<?xml version="1.0" standalone="no"?>
 <!DOCTYPE svg PUBLIC "-//W3C//DTD SVG 1.1//EN" 
 "http://www.w3.org/Graphics/SVG/1.1/DTD/svg11.dtd"> 
<svg
  xmlns:svg="http://www.w3.org/2000/svg"
  xmlns="http://www.w3.org/2000/svg"
  xmlns:xlink="http://www.w3.org/1999/xlink"
  version="1.1"
  width="65.2780mm" height="8.5598mm" viewBox="0.0000 0.0000 65.2780 8.5598">
<title>SVG Image created as working.svg date 2023/08/14 11:12:59 </title>
  <desc>Image generated by Eeschema-SVG </desc>
<g style="fill:#000000; fill-opacity:1.0000;stroke:#000000; stroke-opacity:1.0000;
stroke-linecap:round; stroke-linejoin:round;"
 transform="translate(0 0) scale(1 1)">
</g>
<g style="fill:#840000; fill-opacity:0.0; 
stroke:#840000; stroke-width:0.0000; stroke-opacity:1; 
stroke-linecap:round; stroke-linejoin:round;">
</g>
<g style="fill:#840084; fill-opacity:0.0; 
stroke:#840084; stroke-width:0.0000; stroke-opacity:1; 
stroke-linecap:round; stroke-linejoin:round;">
</g>
<g style="fill:#840000; fill-opacity:0.0; 
stroke:#840000; stroke-width:0.0000; stroke-opacity:1; 
stroke-linecap:round; stroke-linejoin:round;">
</g>
<g style="fill:#840084; fill-opacity:0.0; 
stroke:#840084; stroke-width:0.0000; stroke-opacity:1; 
stroke-linecap:round; stroke-linejoin:round;">
</g>
<g style="fill:#006464; fill-opacity:0.0; 
stroke:#006464; stroke-width:0.0000; stroke-opacity:1; 
stroke-linecap:round; stroke-linejoin:round;">
</g>
<g style="fill:#006464; fill-opacity:0.0; 
stroke:#006464; stroke-width:0.1588; stroke-opacity:1; 
stroke-linecap:round; stroke-linejoin:round;">
<text x="32.6452" y="4.9089"
textLength="2.6415" font-size="1.6933" lengthAdjust="spacingAndGlyphs"
text-anchor="middle" opacity="0">U?</text>
<g class="stroked-text"><desc>U?</desc>
<path d="M31.7380 3.5831
L31.7380 4.6112
" />
<path d="M31.7380 4.6112
L31.7985 4.7322
" />
<path d="M31.7985 4.7322
L31.8590 4.7927
" />
<path d="M31.8590 4.7927
L31.9799 4.8531
" />
<path d="M31.9799 4.8531
L32.2218 4.8531
" />
<path d="M32.2218 4.8531
L32.3428 4.7927
" />
<path d="M32.3428 4.7927
L32.4033 4.7322
" />
<path d="M32.4033 4.7322
L32.4637 4.6112
" />
<path d="M32.4637 4.6112
L32.4637 3.5831
" />
<path d="M33.2500 4.7322
L33.3104 4.7927
" />
<path d="M33.3104 4.7927
L33.2500 4.8531
" />
<path d="M33.2500 4.8531
L33.1895 4.7927
" />
<path d="M33.1895 4.7927
L33.2500 4.7322
" />
<path d="M33.2500 4.7322
L33.2500 4.8531
" />
<path d="M33.0081 3.6436
L33.1290 3.5831
" />
<path d="M33.1290 3.5831
L33.4314 3.5831
" />
<path d="M33.4314 3.5831
L33.5523 3.6436
" />
<path d="M33.5523 3.6436
L33.6128 3.7646
" />
<path d="M33.6128 3.7646
L33.6128 3.8855
" />
<path d="M33.6128 3.8855
L33.5523 4.0065
" />
<path d="M33.5523 4.0065
L33.4919 4.0669
" />
<path d="M33.4919 4.0669
L33.3709 4.1274
" />
<path d="M33.3709 4.1274
L33.3104 4.1879
" />
<path d="M33.3104 4.1879
L33.2500 4.3088
" />
<path d="M33.2500 4.3088
L33.2500 4.3693
" />
</g><text x="32.6452" y="7.4489"
textLength="15.9460" font-size="1.6933" lengthAdjust="spacingAndGlyphs"
text-anchor="middle" opacity="0">LD1086D2M33TR</text>
<g class="stroked-text"><desc>LD1086D2M33TR</desc>
<path d="M25.6905 7.3931
L25.0857 7.3931
" />
<path d="M25.0857 7.3931
L25.0857 6.1231
" />
<path d="M26.1138 7.3931
L26.1138 6.1231
" />
<path d="M26.1138 6.1231
L26.4162 6.1231
" />
<path d="M26.4162 6.1231
L26.5976 6.1836
" />
<path d="M26.5976 6.1836
L26.7186 6.3046
" />
<path d="M26.7186 6.3046
L26.7791 6.4255
" />
<path d="M26.7791 6.4255
L26.8395 6.6674
" />
<path d="M26.8395 6.6674
L26.8395 6.8488
" />
<path d="M26.8395 6.8488
L26.7791 7.0907
" />
<path d="M26.7791 7.0907
L26.7186 7.2117
" />
<path d="M26.7186 7.2117
L26.5976 7.3327
" />
<path d="M26.5976 7.3327
L26.4162 7.3931
" />
<path d="M26.4162 7.3931
L26.1138 7.3931
" />
<path d="M28.0491 7.3931
L27.3234 7.3931
" />
<path d="M27.6862 7.3931
L27.6862 6.1231
" />
<path d="M27.6862 6.1231
L27.5653 6.3046
" />
<path d="M27.5653 6.3046
L27.4443 6.4255
" />
<path d="M27.4443 6.4255
L27.3234 6.4860
" />
<path d="M28.8352 6.1231
L28.9562 6.1231
" />
<path d="M28.9562 6.1231
L29.0771 6.1836
" />
<path d="M29.0771 6.1836
L29.1376 6.2441
" />
<path d="M29.1376 6.2441
L29.1981 6.3650
" />
<path d="M29.1981 6.3650
L29.2586 6.6069
" />
<path d="M29.2586 6.6069
L29.2586 6.9093
" />
<path d="M29.2586 6.9093
L29.1981 7.1512
" />
<path d="M29.1981 7.1512
L29.1376 7.2722
" />
<path d="M29.1376 7.2722
L29.0771 7.3327
" />
<path d="M29.0771 7.3327
L28.9562 7.3931
" />
<path d="M28.9562 7.3931
L28.8352 7.3931
" />
<path d="M28.8352 7.3931
L28.7143 7.3327
" />
<path d="M28.7143 7.3327
L28.6538 7.2722
" />
<path d="M28.6538 7.2722
L28.5933 7.1512
" />
<path d="M28.5933 7.1512
L28.5329 6.9093
" />
<path d="M28.5329 6.9093
L28.5329 6.6069
" />
<path d="M28.5329 6.6069
L28.5933 6.3650
" />
<path d="M28.5933 6.3650
L28.6538 6.2441
" />
<path d="M28.6538 6.2441
L28.7143 6.1836
" />
<path d="M28.7143 6.1836
L28.8352 6.1231
" />
<path d="M29.9843 6.6674
L29.8633 6.6069
" />
<path d="M29.8633 6.6069
L29.8028 6.5465
" />
<path d="M29.8028 6.5465
L29.7424 6.4255
" />
<path d="M29.7424 6.4255
L29.7424 6.3650
" />
<path d="M29.7424 6.3650
L29.8028 6.2441
" />
<path d="M29.8028 6.2441
L29.8633 6.1836
" />
<path d="M29.8633 6.1836
L29.9843 6.1231
" />
<path d="M29.9843 6.1231
L30.2262 6.1231
" />
<path d="M30.2262 6.1231
L30.3471 6.1836
" />
<path d="M30.3471 6.1836
L30.4076 6.2441
" />
<path d="M30.4076 6.2441
L30.4681 6.3650
" />
<path d="M30.4681 6.3650
L30.4681 6.4255
" />
<path d="M30.4681 6.4255
L30.4076 6.5465
" />
<path d="M30.4076 6.5465
L30.3471 6.6069
" />
<path d="M30.3471 6.6069
L30.2262 6.6674
" />
<path d="M30.2262 6.6674
L29.9843 6.6674
" />
<path d="M29.9843 6.6674
L29.8633 6.7279
" />
<path d="M29.8633 6.7279
L29.8028 6.7884
" />
<path d="M29.8028 6.7884
L29.7424 6.9093
" />
<path d="M29.7424 6.9093
L29.7424 7.1512
" />
<path d="M29.7424 7.1512
L29.8028 7.2722
" />
<path d="M29.8028 7.2722
L29.8633 7.3327
" />
<path d="M29.8633 7.3327
L29.9843 7.3931
" />
<path d="M29.9843 7.3931
L30.2262 7.3931
" />
<path d="M30.2262 7.3931
L30.3471 7.3327
" />
<path d="M30.3471 7.3327
L30.4076 7.2722
" />
<path d="M30.4076 7.2722
L30.4681 7.1512
" />
<path d="M30.4681 7.1512
L30.4681 6.9093
" />
<path d="M30.4681 6.9093
L30.4076 6.7884
" />
<path d="M30.4076 6.7884
L30.3471 6.7279
" />
<path d="M30.3471 6.7279
L30.2262 6.6674
" />
<path d="M31.5566 6.1231
L31.3147 6.1231
" />
<path d="M31.3147 6.1231
L31.1938 6.1836
" />
<path d="M31.1938 6.1836
L31.1333 6.2441
" />
<path d="M31.1333 6.2441
L31.0123 6.4255
" />
<path d="M31.0123 6.4255
L30.9519 6.6674
" />
<path d="M30.9519 6.6674
L30.9519 7.1512
" />
<path d="M30.9519 7.1512
L31.0123 7.2722
" />
<path d="M31.0123 7.2722
L31.0728 7.3327
" />
<path d="M31.0728 7.3327
L31.1938 7.3931
" />
<path d="M31.1938 7.3931
L31.4357 7.3931
" />
<path d="M31.4357 7.3931
L31.5566 7.3327
" />
<path d="M31.5566 7.3327
L31.6171 7.2722
" />
<path d="M31.6171 7.2722
L31.6776 7.1512
" />
<path d="M31.6776 7.1512
L31.6776 6.8488
" />
<path d="M31.6776 6.8488
L31.6171 6.7279
" />
<path d="M31.6171 6.7279
L31.5566 6.6674
" />
<path d="M31.5566 6.6674
L31.4357 6.6069
" />
<path d="M31.4357 6.6069
L31.1938 6.6069
" />
<path d="M31.1938 6.6069
L31.0728 6.6674
" />
<path d="M31.0728 6.6674
L31.0123 6.7279
" />
<path d="M31.0123 6.7279
L30.9519 6.8488
" />
<path d="M32.2218 7.3931
L32.2218 6.1231
" />
<path d="M32.2218 6.1231
L32.5242 6.1231
" />
<path d="M32.5242 6.1231
L32.7056 6.1836
" />
<path d="M32.7056 6.1836
L32.8266 6.3046
" />
<path d="M32.8266 6.3046
L32.8871 6.4255
" />
<path d="M32.8871 6.4255
L32.9475 6.6674
" />
<path d="M32.9475 6.6674
L32.9475 6.8488
" />
<path d="M32.9475 6.8488
L32.8871 7.0907
" />
<path d="M32.8871 7.0907
L32.8266 7.2117
" />
<path d="M32.8266 7.2117
L32.7056 7.3327
" />
<path d="M32.7056 7.3327
L32.5242 7.3931
" />
<path d="M32.5242 7.3931
L32.2218 7.3931
" />
<path d="M33.4314 6.2441
L33.4918 6.1836
" />
<path d="M33.4918 6.1836
L33.6128 6.1231
" />
<path d="M33.6128 6.1231
L33.9152 6.1231
" />
<path d="M33.9152 6.1231
L34.0361 6.1836
" />
<path d="M34.0361 6.1836
L34.0966 6.2441
" />
<path d="M34.0966 6.2441
L34.1571 6.3650
" />
<path d="M34.1571 6.3650
L34.1571 6.4860
" />
<path d="M34.1571 6.4860
L34.0966 6.6674
" />
<path d="M34.0966 6.6674
L33.3709 7.3931
" />
<path d="M33.3709 7.3931
L34.1571 7.3931
" />
<path d="M34.7013 7.3931
L34.7013 6.1231
" />
<path d="M34.7013 6.1231
L35.1247 7.0303
" />
<path d="M35.1247 7.0303
L35.5480 6.1231
" />
<path d="M35.5480 6.1231
L35.5480 7.3931
" />
<path d="M36.0318 6.1231
L36.8180 6.1231
" />
<path d="M36.8180 6.1231
L36.3946 6.6069
" />
<path d="M36.3946 6.6069
L36.5761 6.6069
" />
<path d="M36.5761 6.6069
L36.6970 6.6674
" />
<path d="M36.6970 6.6674
L36.7575 6.7279
" />
<path d="M36.7575 6.7279
L36.8180 6.8488
" />
<path d="M36.8180 6.8488
L36.8180 7.1512
" />
<path d="M36.8180 7.1512
L36.7575 7.2722
" />
<path d="M36.7575 7.2722
L36.6970 7.3327
" />
<path d="M36.6970 7.3327
L36.5761 7.3931
" />
<path d="M36.5761 7.3931
L36.2132 7.3931
" />
<path d="M36.2132 7.3931
L36.0923 7.3327
" />
<path d="M36.0923 7.3327
L36.0318 7.2722
" />
<path d="M37.2413 6.1231
L38.0275 6.1231
" />
<path d="M38.0275 6.1231
L37.6041 6.6069
" />
<path d="M37.6041 6.6069
L37.7856 6.6069
" />
<path d="M37.7856 6.6069
L37.9065 6.6674
" />
<path d="M37.9065 6.6674
L37.9670 6.7279
" />
<path d="M37.9670 6.7279
L38.0275 6.8488
" />
<path d="M38.0275 6.8488
L38.0275 7.1512
" />
<path d="M38.0275 7.1512
L37.9670 7.2722
" />
<path d="M37.9670 7.2722
L37.9065 7.3327
" />
<path d="M37.9065 7.3327
L37.7856 7.3931
" />
<path d="M37.7856 7.3931
L37.4227 7.3931
" />
<path d="M37.4227 7.3931
L37.3018 7.3327
" />
<path d="M37.3018 7.3327
L37.2413 7.2722
" />
<path d="M38.3903 6.1231
L39.1160 6.1231
" />
<path d="M38.7532 7.3931
L38.7532 6.1231
" />
<path d="M40.2650 7.3931
L39.8417 6.7884
" />
<path d="M39.5393 7.3931
L39.5393 6.1231
" />
<path d="M39.5393 6.1231
L40.0231 6.1231
" />
<path d="M40.0231 6.1231
L40.1441 6.1836
" />
<path d="M40.1441 6.1836
L40.2046 6.2441
" />
<path d="M40.2046 6.2441
L40.2650 6.3650
" />
<path d="M40.2650 6.3650
L40.2650 6.5465
" />
<path d="M40.2650 6.5465
L40.2046 6.6674
" />
<path d="M40.2046 6.6674
L40.1441 6.7279
" />
<path d="M40.1441 6.7279
L40.0231 6.7884
" />
<path d="M40.0231 6.7884
L39.5393 6.7884
" />
</g></g>
<g style="fill:#840084; fill-opacity:0.0; 
stroke:#840084; stroke-width:0.1588; stroke-opacity:1; 
stroke-linecap:round; stroke-linejoin:round;">
<text x="32.6452" y="2.3689"
textLength="40.1363" font-size="1.6933" lengthAdjust="spacingAndGlyphs"
text-anchor="middle" opacity="0">Package_TO_SOT_SMD:TO-263-3_TabPin2</text>
<g class="stroked-text"><desc>Package_TO_SOT_SMD:TO-263-3_TabPin2</desc>
<path d="M12.9906 2.3131
L12.9906 1.0431
" />
<path d="M12.9906 1.0431
L13.4744 1.0431
" />
<path d="M13.4744 1.0431
L13.5954 1.1036
" />
<path d="M13.5954 1.1036
L13.6559 1.1641
" />
<path d="M13.6559 1.1641
L13.7163 1.2850
" />
<path d="M13.7163 1.2850
L13.7163 1.4665
" />
<path d="M13.7163 1.4665
L13.6559 1.5874
" />
<path d="M13.6559 1.5874
L13.5954 1.6479
" />
<path d="M13.5954 1.6479
L13.4744 1.7084
" />
<path d="M13.4744 1.7084
L12.9906 1.7084
" />
<path d="M14.8049 2.3131
L14.8049 1.6479
" />
<path d="M14.8049 1.6479
L14.7444 1.5269
" />
<path d="M14.7444 1.5269
L14.6235 1.4665
" />
<path d="M14.6235 1.4665
L14.3816 1.4665
" />
<path d="M14.3816 1.4665
L14.2606 1.5269
" />
<path d="M14.8049 2.2527
L14.6840 2.3131
" />
<path d="M14.6840 2.3131
L14.3816 2.3131
" />
<path d="M14.3816 2.3131
L14.2606 2.2527
" />
<path d="M14.2606 2.2527
L14.2002 2.1317
" />
<path d="M14.2002 2.1317
L14.2002 2.0107
" />
<path d="M14.2002 2.0107
L14.2606 1.8898
" />
<path d="M14.2606 1.8898
L14.3816 1.8293
" />
<path d="M14.3816 1.8293
L14.6840 1.8293
" />
<path d="M14.6840 1.8293
L14.8049 1.7688
" />
<path d="M15.9539 2.2527
L15.8330 2.3131
" />
<path d="M15.8330 2.3131
L15.5911 2.3131
" />
<path d="M15.5911 2.3131
L15.4701 2.2527
" />
<path d="M15.4701 2.2527
L15.4096 2.1922
" />
<path d="M15.4096 2.1922
L15.3492 2.0712
" />
<path d="M15.3492 2.0712
L15.3492 1.7084
" />
<path d="M15.3492 1.7084
L15.4096 1.5874
" />
<path d="M15.4096 1.5874
L15.4701 1.5269
" />
<path d="M15.4701 1.5269
L15.5911 1.4665
" />
<path d="M15.5911 1.4665
L15.8330 1.4665
" />
<path d="M15.8330 1.4665
L15.9539 1.5269
" />
<path d="M16.4982 2.3131
L16.4982 1.0431
" />
<path d="M16.6192 1.8293
L16.9820 2.3131
" />
<path d="M16.9820 1.4665
L16.4982 1.9503
" />
<path d="M18.0706 2.3131
L18.0706 1.6479
" />
<path d="M18.0706 1.6479
L18.0101 1.5269
" />
<path d="M18.0101 1.5269
L17.8892 1.4665
" />
<path d="M17.8892 1.4665
L17.6473 1.4665
" />
<path d="M17.6473 1.4665
L17.5263 1.5269
" />
<path d="M18.0706 2.2527
L17.9497 2.3131
" />
<path d="M17.9497 2.3131
L17.6473 2.3131
" />
<path d="M17.6473 2.3131
L17.5263 2.2527
" />
<path d="M17.5263 2.2527
L17.4659 2.1317
" />
<path d="M17.4659 2.1317
L17.4659 2.0107
" />
<path d="M17.4659 2.0107
L17.5263 1.8898
" />
<path d="M17.5263 1.8898
L17.6473 1.8293
" />
<path d="M17.6473 1.8293
L17.9497 1.8293
" />
<path d="M17.9497 1.8293
L18.0706 1.7688
" />
<path d="M19.2196 1.4665
L19.2196 2.4946
" />
<path d="M19.2196 2.4946
L19.1591 2.6155
" />
<path d="M19.1591 2.6155
L19.0987 2.6760
" />
<path d="M19.0987 2.6760
L18.9777 2.7365
" />
<path d="M18.9777 2.7365
L18.7963 2.7365
" />
<path d="M18.7963 2.7365
L18.6753 2.6760
" />
<path d="M19.2196 2.2527
L19.0987 2.3131
" />
<path d="M19.0987 2.3131
L18.8568 2.3131
" />
<path d="M18.8568 2.3131
L18.7358 2.2527
" />
<path d="M18.7358 2.2527
L18.6753 2.1922
" />
<path d="M18.6753 2.1922
L18.6149 2.0712
" />
<path d="M18.6149 2.0712
L18.6149 1.7084
" />
<path d="M18.6149 1.7084
L18.6753 1.5874
" />
<path d="M18.6753 1.5874
L18.7358 1.5269
" />
<path d="M18.7358 1.5269
L18.8568 1.4665
" />
<path d="M18.8568 1.4665
L19.0987 1.4665
" />
<path d="M19.0987 1.4665
L19.2196 1.5269
" />
<path d="M20.3081 2.2527
L20.1872 2.3131
" />
<path d="M20.1872 2.3131
L19.9453 2.3131
" />
<path d="M19.9453 2.3131
L19.8243 2.2527
" />
<path d="M19.8243 2.2527
L19.7639 2.1317
" />
<path d="M19.7639 2.1317
L19.7639 1.6479
" />
<path d="M19.7639 1.6479
L19.8243 1.5269
" />
<path d="M19.8243 1.5269
L19.9453 1.4665
" />
<path d="M19.9453 1.4665
L20.1872 1.4665
" />
<path d="M20.1872 1.4665
L20.3081 1.5269
" />
<path d="M20.3081 1.5269
L20.3686 1.6479
" />
<path d="M20.3686 1.6479
L20.3686 1.7688
" />
<path d="M20.3686 1.7688
L19.7639 1.8898
" />
<path d="M20.6106 2.4341
L21.5782 2.4341
" />
<path d="M21.6991 1.0431
L22.4248 1.0431
" />
<path d="M22.0620 2.3131
L22.0620 1.0431
" />
<path d="M23.0900 1.0431
L23.3319 1.0431
" />
<path d="M23.3319 1.0431
L23.4529 1.1036
" />
<path d="M23.4529 1.1036
L23.5738 1.2246
" />
<path d="M23.5738 1.2246
L23.6343 1.4665
" />
<path d="M23.6343 1.4665
L23.6343 1.8898
" />
<path d="M23.6343 1.8898
L23.5738 2.1317
" />
<path d="M23.5738 2.1317
L23.4529 2.2527
" />
<path d="M23.4529 2.2527
L23.3319 2.3131
" />
<path d="M23.3319 2.3131
L23.0900 2.3131
" />
<path d="M23.0900 2.3131
L22.9691 2.2527
" />
<path d="M22.9691 2.2527
L22.8481 2.1317
" />
<path d="M22.8481 2.1317
L22.7877 1.8898
" />
<path d="M22.7877 1.8898
L22.7877 1.4665
" />
<path d="M22.7877 1.4665
L22.8481 1.2246
" />
<path d="M22.8481 1.2246
L22.9691 1.1036
" />
<path d="M22.9691 1.1036
L23.0900 1.0431
" />
<path d="M23.8763 2.4341
L24.8439 2.4341
" />
<path d="M25.0858 2.2527
L25.2672 2.3131
" />
<path d="M25.2672 2.3131
L25.5696 2.3131
" />
<path d="M25.5696 2.3131
L25.6905 2.2527
" />
<path d="M25.6905 2.2527
L25.7510 2.1922
" />
<path d="M25.7510 2.1922
L25.8115 2.0712
" />
<path d="M25.8115 2.0712
L25.8115 1.9503
" />
<path d="M25.8115 1.9503
L25.7510 1.8293
" />
<path d="M25.7510 1.8293
L25.6905 1.7688
" />
<path d="M25.6905 1.7688
L25.5696 1.7084
" />
<path d="M25.5696 1.7084
L25.3277 1.6479
" />
<path d="M25.3277 1.6479
L25.2067 1.5874
" />
<path d="M25.2067 1.5874
L25.1462 1.5269
" />
<path d="M25.1462 1.5269
L25.0858 1.4060
" />
<path d="M25.0858 1.4060
L25.0858 1.2850
" />
<path d="M25.0858 1.2850
L25.1462 1.1641
" />
<path d="M25.1462 1.1641
L25.2067 1.1036
" />
<path d="M25.2067 1.1036
L25.3277 1.0431
" />
<path d="M25.3277 1.0431
L25.6300 1.0431
" />
<path d="M25.6300 1.0431
L25.8115 1.1036
" />
<path d="M26.5976 1.0431
L26.8395 1.0431
" />
<path d="M26.8395 1.0431
L26.9605 1.1036
" />
<path d="M26.9605 1.1036
L27.0814 1.2246
" />
<path d="M27.0814 1.2246
L27.1419 1.4665
" />
<path d="M27.1419 1.4665
L27.1419 1.8898
" />
<path d="M27.1419 1.8898
L27.0814 2.1317
" />
<path d="M27.0814 2.1317
L26.9605 2.2527
" />
<path d="M26.9605 2.2527
L26.8395 2.3131
" />
<path d="M26.8395 2.3131
L26.5976 2.3131
" />
<path d="M26.5976 2.3131
L26.4767 2.2527
" />
<path d="M26.4767 2.2527
L26.3557 2.1317
" />
<path d="M26.3557 2.1317
L26.2953 1.8898
" />
<path d="M26.2953 1.8898
L26.2953 1.4665
" />
<path d="M26.2953 1.4665
L26.3557 1.2246
" />
<path d="M26.3557 1.2246
L26.4767 1.1036
" />
<path d="M26.4767 1.1036
L26.5976 1.0431
" />
<path d="M27.5048 1.0431
L28.2305 1.0431
" />
<path d="M27.8677 2.3131
L27.8677 1.0431
" />
<path d="M28.3515 2.4341
L29.3191 2.4341
" />
<path d="M29.5610 2.2527
L29.7424 2.3131
" />
<path d="M29.7424 2.3131
L30.0448 2.3131
" />
<path d="M30.0448 2.3131
L30.1657 2.2527
" />
<path d="M30.1657 2.2527
L30.2262 2.1922
" />
<path d="M30.2262 2.1922
L30.2867 2.0712
" />
<path d="M30.2867 2.0712
L30.2867 1.9503
" />
<path d="M30.2867 1.9503
L30.2262 1.8293
" />
<path d="M30.2262 1.8293
L30.1657 1.7688
" />
<path d="M30.1657 1.7688
L30.0448 1.7084
" />
<path d="M30.0448 1.7084
L29.8029 1.6479
" />
<path d="M29.8029 1.6479
L29.6819 1.5874
" />
<path d="M29.6819 1.5874
L29.6214 1.5269
" />
<path d="M29.6214 1.5269
L29.5610 1.4060
" />
<path d="M29.5610 1.4060
L29.5610 1.2850
" />
<path d="M29.5610 1.2850
L29.6214 1.1641
" />
<path d="M29.6214 1.1641
L29.6819 1.1036
" />
<path d="M29.6819 1.1036
L29.8029 1.0431
" />
<path d="M29.8029 1.0431
L30.1052 1.0431
" />
<path d="M30.1052 1.0431
L30.2867 1.1036
" />
<path d="M30.8309 2.3131
L30.8309 1.0431
" />
<path d="M30.8309 1.0431
L31.2543 1.9503
" />
<path d="M31.2543 1.9503
L31.6776 1.0431
" />
<path d="M31.6776 1.0431
L31.6776 2.3131
" />
<path d="M32.2823 2.3131
L32.2823 1.0431
" />
<path d="M32.2823 1.0431
L32.5847 1.0431
" />
<path d="M32.5847 1.0431
L32.7661 1.1036
" />
<path d="M32.7661 1.1036
L32.8871 1.2246
" />
<path d="M32.8871 1.2246
L32.9476 1.3455
" />
<path d="M32.9476 1.3455
L33.0080 1.5874
" />
<path d="M33.0080 1.5874
L33.0080 1.7688
" />
<path d="M33.0080 1.7688
L32.9476 2.0107
" />
<path d="M32.9476 2.0107
L32.8871 2.1317
" />
<path d="M32.8871 2.1317
L32.7661 2.2527
" />
<path d="M32.7661 2.2527
L32.5847 2.3131
" />
<path d="M32.5847 2.3131
L32.2823 2.3131
" />
<path d="M33.5523 2.1922
L33.6128 2.2527
" />
<path d="M33.6128 2.2527
L33.5523 2.3131
" />
<path d="M33.5523 2.3131
L33.4919 2.2527
" />
<path d="M33.4919 2.2527
L33.5523 2.1922
" />
<path d="M33.5523 2.1922
L33.5523 2.3131
" />
<path d="M33.5523 1.5269
L33.6128 1.5874
" />
<path d="M33.6128 1.5874
L33.5523 1.6479
" />
<path d="M33.5523 1.6479
L33.4919 1.5874
" />
<path d="M33.4919 1.5874
L33.5523 1.5269
" />
<path d="M33.5523 1.5269
L33.5523 1.6479
" />
<path d="M33.9757 1.0431
L34.7014 1.0431
" />
<path d="M34.3386 2.3131
L34.3386 1.0431
" />
<path d="M35.3666 1.0431
L35.6085 1.0431
" />
<path d="M35.6085 1.0431
L35.7295 1.1036
" />
<path d="M35.7295 1.1036
L35.8504 1.2246
" />
<path d="M35.8504 1.2246
L35.9109 1.4665
" />
<path d="M35.9109 1.4665
L35.9109 1.8898
" />
<path d="M35.9109 1.8898
L35.8504 2.1317
" />
<path d="M35.8504 2.1317
L35.7295 2.2527
" />
<path d="M35.7295 2.2527
L35.6085 2.3131
" />
<path d="M35.6085 2.3131
L35.3666 2.3131
" />
<path d="M35.3666 2.3131
L35.2457 2.2527
" />
<path d="M35.2457 2.2527
L35.1247 2.1317
" />
<path d="M35.1247 2.1317
L35.0643 1.8898
" />
<path d="M35.0643 1.8898
L35.0643 1.4665
" />
<path d="M35.0643 1.4665
L35.1247 1.2246
" />
<path d="M35.1247 1.2246
L35.2457 1.1036
" />
<path d="M35.2457 1.1036
L35.3666 1.0431
" />
<path d="M36.4552 1.8293
L37.4229 1.8293
" />
<path d="M37.9672 1.1641
L38.0276 1.1036
" />
<path d="M38.0276 1.1036
L38.1486 1.0431
" />
<path d="M38.1486 1.0431
L38.4510 1.0431
" />
<path d="M38.4510 1.0431
L38.5719 1.1036
" />
<path d="M38.5719 1.1036
L38.6324 1.1641
" />
<path d="M38.6324 1.1641
L38.6929 1.2850
" />
<path d="M38.6929 1.2850
L38.6929 1.4060
" />
<path d="M38.6929 1.4060
L38.6324 1.5874
" />
<path d="M38.6324 1.5874
L37.9067 2.3131
" />
<path d="M37.9067 2.3131
L38.6929 2.3131
" />
<path d="M39.7814 1.0431
L39.5395 1.0431
" />
<path d="M39.5395 1.0431
L39.4186 1.1036
" />
<path d="M39.4186 1.1036
L39.3581 1.1641
" />
<path d="M39.3581 1.1641
L39.2371 1.3455
" />
<path d="M39.2371 1.3455
L39.1767 1.5874
" />
<path d="M39.1767 1.5874
L39.1767 2.0712
" />
<path d="M39.1767 2.0712
L39.2371 2.1922
" />
<path d="M39.2371 2.1922
L39.2976 2.2527
" />
<path d="M39.2976 2.2527
L39.4186 2.3131
" />
<path d="M39.4186 2.3131
L39.6605 2.3131
" />
<path d="M39.6605 2.3131
L39.7814 2.2527
" />
<path d="M39.7814 2.2527
L39.8419 2.1922
" />
<path d="M39.8419 2.1922
L39.9024 2.0712
" />
<path d="M39.9024 2.0712
L39.9024 1.7688
" />
<path d="M39.9024 1.7688
L39.8419 1.6479
" />
<path d="M39.8419 1.6479
L39.7814 1.5874
" />
<path d="M39.7814 1.5874
L39.6605 1.5269
" />
<path d="M39.6605 1.5269
L39.4186 1.5269
" />
<path d="M39.4186 1.5269
L39.2976 1.5874
" />
<path d="M39.2976 1.5874
L39.2371 1.6479
" />
<path d="M39.2371 1.6479
L39.1767 1.7688
" />
<path d="M40.3257 1.0431
L41.1119 1.0431
" />
<path d="M41.1119 1.0431
L40.6885 1.5269
" />
<path d="M40.6885 1.5269
L40.8700 1.5269
" />
<path d="M40.8700 1.5269
L40.9909 1.5874
" />
<path d="M40.9909 1.5874
L41.0514 1.6479
" />
<path d="M41.0514 1.6479
L41.1119 1.7688
" />
<path d="M41.1119 1.7688
L41.1119 2.0712
" />
<path d="M41.1119 2.0712
L41.0514 2.1922
" />
<path d="M41.0514 2.1922
L40.9909 2.2527
" />
<path d="M40.9909 2.2527
L40.8700 2.3131
" />
<path d="M40.8700 2.3131
L40.5071 2.3131
" />
<path d="M40.5071 2.3131
L40.3862 2.2527
" />
<path d="M40.3862 2.2527
L40.3257 2.1922
" />
<path d="M41.6561 1.8293
L42.6238 1.8293
" />
<path d="M43.1076 1.0431
L43.8938 1.0431
" />
<path d="M43.8938 1.0431
L43.4704 1.5269
" />
<path d="M43.4704 1.5269
L43.6519 1.5269
" />
<path d="M43.6519 1.5269
L43.7728 1.5874
" />
<path d="M43.7728 1.5874
L43.8333 1.6479
" />
<path d="M43.8333 1.6479
L43.8938 1.7688
" />
<path d="M43.8938 1.7688
L43.8938 2.0712
" />
<path d="M43.8938 2.0712
L43.8333 2.1922
" />
<path d="M43.8333 2.1922
L43.7728 2.2527
" />
<path d="M43.7728 2.2527
L43.6519 2.3131
" />
<path d="M43.6519 2.3131
L43.2890 2.3131
" />
<path d="M43.2890 2.3131
L43.1681 2.2527
" />
<path d="M43.1681 2.2527
L43.1076 2.1922
" />
<path d="M44.1357 2.4341
L45.1033 2.4341
" />
<path d="M45.2242 1.0431
L45.9499 1.0431
" />
<path d="M45.5871 2.3131
L45.5871 1.0431
" />
<path d="M46.9175 2.3131
L46.9175 1.6479
" />
<path d="M46.9175 1.6479
L46.8570 1.5269
" />
<path d="M46.8570 1.5269
L46.7361 1.4665
" />
<path d="M46.7361 1.4665
L46.4942 1.4665
" />
<path d="M46.4942 1.4665
L46.3732 1.5269
" />
<path d="M46.9175 2.2527
L46.7966 2.3131
" />
<path d="M46.7966 2.3131
L46.4942 2.3131
" />
<path d="M46.4942 2.3131
L46.3732 2.2527
" />
<path d="M46.3732 2.2527
L46.3128 2.1317
" />
<path d="M46.3128 2.1317
L46.3128 2.0107
" />
<path d="M46.3128 2.0107
L46.3732 1.8898
" />
<path d="M46.3732 1.8898
L46.4942 1.8293
" />
<path d="M46.4942 1.8293
L46.7966 1.8293
" />
<path d="M46.7966 1.8293
L46.9175 1.7688
" />
<path d="M47.5222 2.3131
L47.5222 1.0431
" />
<path d="M47.5222 1.5269
L47.6432 1.4665
" />
<path d="M47.6432 1.4665
L47.8851 1.4665
" />
<path d="M47.8851 1.4665
L48.0060 1.5269
" />
<path d="M48.0060 1.5269
L48.0665 1.5874
" />
<path d="M48.0665 1.5874
L48.1270 1.7084
" />
<path d="M48.1270 1.7084
L48.1270 2.0712
" />
<path d="M48.1270 2.0712
L48.0665 2.1922
" />
<path d="M48.0665 2.1922
L48.0060 2.2527
" />
<path d="M48.0060 2.2527
L47.8851 2.3131
" />
<path d="M47.8851 2.3131
L47.6432 2.3131
" />
<path d="M47.6432 2.3131
L47.5222 2.2527
" />
<path d="M48.6712 2.3131
L48.6712 1.0431
" />
<path d="M48.6712 1.0431
L49.1550 1.0431
" />
<path d="M49.1550 1.0431
L49.2760 1.1036
" />
<path d="M49.2760 1.1036
L49.3365 1.1641
" />
<path d="M49.3365 1.1641
L49.3969 1.2850
" />
<path d="M49.3969 1.2850
L49.3969 1.4665
" />
<path d="M49.3969 1.4665
L49.3365 1.5874
" />
<path d="M49.3365 1.5874
L49.2760 1.6479
" />
<path d="M49.2760 1.6479
L49.1550 1.7084
" />
<path d="M49.1550 1.7084
L48.6712 1.7084
" />
<path d="M49.9412 2.3131
L49.9412 1.4665
" />
<path d="M49.9412 1.0431
L49.8808 1.1036
" />
<path d="M49.8808 1.1036
L49.9412 1.1641
" />
<path d="M49.9412 1.1641
L50.0017 1.1036
" />
<path d="M50.0017 1.1036
L49.9412 1.0431
" />
<path d="M49.9412 1.0431
L49.9412 1.1641
" />
<path d="M50.5460 1.4665
L50.5460 2.3131
" />
<path d="M50.5460 1.5874
L50.6065 1.5269
" />
<path d="M50.6065 1.5269
L50.7275 1.4665
" />
<path d="M50.7275 1.4665
L50.9089 1.4665
" />
<path d="M50.9089 1.4665
L51.0298 1.5269
" />
<path d="M51.0298 1.5269
L51.0903 1.6479
" />
<path d="M51.0903 1.6479
L51.0903 2.3131
" />
<path d="M51.6346 1.1641
L51.6950 1.1036
" />
<path d="M51.6950 1.1036
L51.8160 1.0431
" />
<path d="M51.8160 1.0431
L52.1184 1.0431
" />
<path d="M52.1184 1.0431
L52.2393 1.1036
" />
<path d="M52.2393 1.1036
L52.2998 1.1641
" />
<path d="M52.2998 1.1641
L52.3603 1.2850
" />
<path d="M52.3603 1.2850
L52.3603 1.4060
" />
<path d="M52.3603 1.4060
L52.2998 1.5874
" />
<path d="M52.2998 1.5874
L51.5741 2.3131
" />
<path d="M51.5741 2.3131
L52.3603 2.3131
" />
</g><text x="32.6452" y="2.3689"
textLength="54.4088" font-size="1.6933" lengthAdjust="spacingAndGlyphs"
text-anchor="middle" opacity="0">https://www.st.com/resource/en/datasheet/ld1086.pdf</text>
<g class="stroked-text"><desc>https://www.st.com/resource/en/datasheet/ld1086.pdf</desc>
<path d="M5.8543 2.3131
L5.8543 1.0431
" />
<path d="M6.3986 2.3131
L6.3986 1.6479
" />
<path d="M6.3986 1.6479
L6.3381 1.5269
" />
<path d="M6.3381 1.5269
L6.2172 1.4665
" />
<path d="M6.2172 1.4665
L6.0358 1.4665
" />
<path d="M6.0358 1.4665
L5.9148 1.5269
" />
<path d="M5.9148 1.5269
L5.8543 1.5874
" />
<path d="M6.8219 1.4665
L7.3057 1.4665
" />
<path d="M7.0033 1.0431
L7.0033 2.1317
" />
<path d="M7.0033 2.1317
L7.0638 2.2527
" />
<path d="M7.0638 2.2527
L7.1848 2.3131
" />
<path d="M7.1848 2.3131
L7.3057 2.3131
" />
<path d="M7.5476 1.4665
L8.0314 1.4665
" />
<path d="M7.7290 1.0431
L7.7290 2.1317
" />
<path d="M7.7290 2.1317
L7.7895 2.2527
" />
<path d="M7.7895 2.2527
L7.9105 2.3131
" />
<path d="M7.9105 2.3131
L8.0314 2.3131
" />
<path d="M8.4547 1.4665
L8.4547 2.7365
" />
<path d="M8.4547 1.5269
L8.5757 1.4665
" />
<path d="M8.5757 1.4665
L8.8176 1.4665
" />
<path d="M8.8176 1.4665
L8.9385 1.5269
" />
<path d="M8.9385 1.5269
L8.9990 1.5874
" />
<path d="M8.9990 1.5874
L9.0595 1.7084
" />
<path d="M9.0595 1.7084
L9.0595 2.0712
" />
<path d="M9.0595 2.0712
L8.9990 2.1922
" />
<path d="M8.9990 2.1922
L8.9385 2.2527
" />
<path d="M8.9385 2.2527
L8.8176 2.3131
" />
<path d="M8.8176 2.3131
L8.5757 2.3131
" />
<path d="M8.5757 2.3131
L8.4547 2.2527
" />
<path d="M9.5433 2.2527
L9.6642 2.3131
" />
<path d="M9.6642 2.3131
L9.9061 2.3131
" />
<path d="M9.9061 2.3131
L10.0271 2.2527
" />
<path d="M10.0271 2.2527
L10.0875 2.1317
" />
<path d="M10.0875 2.1317
L10.0875 2.0712
" />
<path d="M10.0875 2.0712
L10.0271 1.9503
" />
<path d="M10.0271 1.9503
L9.9061 1.8898
" />
<path d="M9.9061 1.8898
L9.7247 1.8898
" />
<path d="M9.7247 1.8898
L9.6037 1.8293
" />
<path d="M9.6037 1.8293
L9.5433 1.7084
" />
<path d="M9.5433 1.7084
L9.5433 1.6479
" />
<path d="M9.5433 1.6479
L9.6037 1.5269
" />
<path d="M9.6037 1.5269
L9.7247 1.4665
" />
<path d="M9.7247 1.4665
L9.9061 1.4665
" />
<path d="M9.9061 1.4665
L10.0271 1.5269
" />
<path d="M10.6318 2.1922
L10.6923 2.2527
" />
<path d="M10.6923 2.2527
L10.6318 2.3131
" />
<path d="M10.6318 2.3131
L10.5714 2.2527
" />
<path d="M10.5714 2.2527
L10.6318 2.1922
" />
<path d="M10.6318 2.1922
L10.6318 2.3131
" />
<path d="M10.6318 1.5269
L10.6923 1.5874
" />
<path d="M10.6923 1.5874
L10.6318 1.6479
" />
<path d="M10.6318 1.6479
L10.5714 1.5874
" />
<path d="M10.5714 1.5874
L10.6318 1.5269
" />
<path d="M10.6318 1.5269
L10.6318 1.6479
" />
<path d="M12.1438 0.9827
L11.0552 2.6155
" />
<path d="M13.4743 0.9827
L12.3857 2.6155
" />
<path d="M13.7767 1.4665
L14.0186 2.3131
" />
<path d="M14.0186 2.3131
L14.2605 1.7084
" />
<path d="M14.2605 1.7084
L14.5024 2.3131
" />
<path d="M14.5024 2.3131
L14.7443 1.4665
" />
<path d="M15.1072 1.4665
L15.3491 2.3131
" />
<path d="M15.3491 2.3131
L15.5910 1.7084
" />
<path d="M15.5910 1.7084
L15.8329 2.3131
" />
<path d="M15.8329 2.3131
L16.0748 1.4665
" />
<path d="M16.4377 1.4665
L16.6796 2.3131
" />
<path d="M16.6796 2.3131
L16.9215 1.7084
" />
<path d="M16.9215 1.7084
L17.1634 2.3131
" />
<path d="M17.1634 2.3131
L17.4053 1.4665
" />
<path d="M17.8891 2.1922
L17.9496 2.2527
" />
<path d="M17.9496 2.2527
L17.8891 2.3131
" />
<path d="M17.8891 2.3131
L17.8287 2.2527
" />
<path d="M17.8287 2.2527
L17.8891 2.1922
" />
<path d="M17.8891 2.1922
L17.8891 2.3131
" />
<path d="M18.4335 2.2527
L18.5544 2.3131
" />
<path d="M18.5544 2.3131
L18.7963 2.3131
" />
<path d="M18.7963 2.3131
L18.9173 2.2527
" />
<path d="M18.9173 2.2527
L18.9777 2.1317
" />
<path d="M18.9777 2.1317
L18.9777 2.0712
" />
<path d="M18.9777 2.0712
L18.9173 1.9503
" />
<path d="M18.9173 1.9503
L18.7963 1.8898
" />
<path d="M18.7963 1.8898
L18.6149 1.8898
" />
<path d="M18.6149 1.8898
L18.4939 1.8293
" />
<path d="M18.4939 1.8293
L18.4335 1.7084
" />
<path d="M18.4335 1.7084
L18.4335 1.6479
" />
<path d="M18.4335 1.6479
L18.4939 1.5269
" />
<path d="M18.4939 1.5269
L18.6149 1.4665
" />
<path d="M18.6149 1.4665
L18.7963 1.4665
" />
<path d="M18.7963 1.4665
L18.9173 1.5269
" />
<path d="M19.3406 1.4665
L19.8244 1.4665
" />
<path d="M19.5220 1.0431
L19.5220 2.1317
" />
<path d="M19.5220 2.1317
L19.5825 2.2527
" />
<path d="M19.5825 2.2527
L19.7035 2.3131
" />
<path d="M19.7035 2.3131
L19.8244 2.3131
" />
<path d="M20.2477 2.1922
L20.3082 2.2527
" />
<path d="M20.3082 2.2527
L20.2477 2.3131
" />
<path d="M20.2477 2.3131
L20.1873 2.2527
" />
<path d="M20.1873 2.2527
L20.2477 2.1922
" />
<path d="M20.2477 2.1922
L20.2477 2.3131
" />
<path d="M21.3968 2.2527
L21.2759 2.3131
" />
<path d="M21.2759 2.3131
L21.0340 2.3131
" />
<path d="M21.0340 2.3131
L20.9130 2.2527
" />
<path d="M20.9130 2.2527
L20.8525 2.1922
" />
<path d="M20.8525 2.1922
L20.7921 2.0712
" />
<path d="M20.7921 2.0712
L20.7921 1.7084
" />
<path d="M20.7921 1.7084
L20.8525 1.5874
" />
<path d="M20.8525 1.5874
L20.9130 1.5269
" />
<path d="M20.9130 1.5269
L21.0340 1.4665
" />
<path d="M21.0340 1.4665
L21.2759 1.4665
" />
<path d="M21.2759 1.4665
L21.3968 1.5269
" />
<path d="M22.1226 2.3131
L22.0016 2.2527
" />
<path d="M22.0016 2.2527
L21.9411 2.1922
" />
<path d="M21.9411 2.1922
L21.8807 2.0712
" />
<path d="M21.8807 2.0712
L21.8807 1.7084
" />
<path d="M21.8807 1.7084
L21.9411 1.5874
" />
<path d="M21.9411 1.5874
L22.0016 1.5269
" />
<path d="M22.0016 1.5269
L22.1226 1.4665
" />
<path d="M22.1226 1.4665
L22.3040 1.4665
" />
<path d="M22.3040 1.4665
L22.4249 1.5269
" />
<path d="M22.4249 1.5269
L22.4854 1.5874
" />
<path d="M22.4854 1.5874
L22.5459 1.7084
" />
<path d="M22.5459 1.7084
L22.5459 2.0712
" />
<path d="M22.5459 2.0712
L22.4854 2.1922
" />
<path d="M22.4854 2.1922
L22.4249 2.2527
" />
<path d="M22.4249 2.2527
L22.3040 2.3131
" />
<path d="M22.3040 2.3131
L22.1226 2.3131
" />
<path d="M23.0901 2.3131
L23.0901 1.4665
" />
<path d="M23.0901 1.5874
L23.1506 1.5269
" />
<path d="M23.1506 1.5269
L23.2716 1.4665
" />
<path d="M23.2716 1.4665
L23.4530 1.4665
" />
<path d="M23.4530 1.4665
L23.5739 1.5269
" />
<path d="M23.5739 1.5269
L23.6344 1.6479
" />
<path d="M23.6344 1.6479
L23.6344 2.3131
" />
<path d="M23.6344 1.6479
L23.6949 1.5269
" />
<path d="M23.6949 1.5269
L23.8158 1.4665
" />
<path d="M23.8158 1.4665
L23.9973 1.4665
" />
<path d="M23.9973 1.4665
L24.1182 1.5269
" />
<path d="M24.1182 1.5269
L24.1787 1.6479
" />
<path d="M24.1787 1.6479
L24.1787 2.3131
" />
<path d="M25.6906 0.9827
L24.6020 2.6155
" />
<path d="M26.1139 2.3131
L26.1139 1.4665
" />
<path d="M26.1139 1.7084
L26.1744 1.5874
" />
<path d="M26.1744 1.5874
L26.2349 1.5269
" />
<path d="M26.2349 1.5269
L26.3558 1.4665
" />
<path d="M26.3558 1.4665
L26.4768 1.4665
" />
<path d="M27.3839 2.2527
L27.2630 2.3131
" />
<path d="M27.2630 2.3131
L27.0211 2.3131
" />
<path d="M27.0211 2.3131
L26.9001 2.2527
" />
<path d="M26.9001 2.2527
L26.8397 2.1317
" />
<path d="M26.8397 2.1317
L26.8397 1.6479
" />
<path d="M26.8397 1.6479
L26.9001 1.5269
" />
<path d="M26.9001 1.5269
L27.0211 1.4665
" />
<path d="M27.0211 1.4665
L27.2630 1.4665
" />
<path d="M27.2630 1.4665
L27.3839 1.5269
" />
<path d="M27.3839 1.5269
L27.4444 1.6479
" />
<path d="M27.4444 1.6479
L27.4444 1.7688
" />
<path d="M27.4444 1.7688
L26.8397 1.8898
" />
<path d="M27.9283 2.2527
L28.0492 2.3131
" />
<path d="M28.0492 2.3131
L28.2911 2.3131
" />
<path d="M28.2911 2.3131
L28.4121 2.2527
" />
<path d="M28.4121 2.2527
L28.4725 2.1317
" />
<path d="M28.4725 2.1317
L28.4725 2.0712
" />
<path d="M28.4725 2.0712
L28.4121 1.9503
" />
<path d="M28.4121 1.9503
L28.2911 1.8898
" />
<path d="M28.2911 1.8898
L28.1097 1.8898
" />
<path d="M28.1097 1.8898
L27.9887 1.8293
" />
<path d="M27.9887 1.8293
L27.9283 1.7084
" />
<path d="M27.9283 1.7084
L27.9283 1.6479
" />
<path d="M27.9283 1.6479
L27.9887 1.5269
" />
<path d="M27.9887 1.5269
L28.1097 1.4665
" />
<path d="M28.1097 1.4665
L28.2911 1.4665
" />
<path d="M28.2911 1.4665
L28.4121 1.5269
" />
<path d="M29.1983 2.3131
L29.0773 2.2527
" />
<path d="M29.0773 2.2527
L29.0168 2.1922
" />
<path d="M29.0168 2.1922
L28.9564 2.0712
" />
<path d="M28.9564 2.0712
L28.9564 1.7084
" />
<path d="M28.9564 1.7084
L29.0168 1.5874
" />
<path d="M29.0168 1.5874
L29.0773 1.5269
" />
<path d="M29.0773 1.5269
L29.1983 1.4665
" />
<path d="M29.1983 1.4665
L29.3797 1.4665
" />
<path d="M29.3797 1.4665
L29.5006 1.5269
" />
<path d="M29.5006 1.5269
L29.5611 1.5874
" />
<path d="M29.5611 1.5874
L29.6216 1.7084
" />
<path d="M29.6216 1.7084
L29.6216 2.0712
" />
<path d="M29.6216 2.0712
L29.5611 2.1922
" />
<path d="M29.5611 2.1922
L29.5006 2.2527
" />
<path d="M29.5006 2.2527
L29.3797 2.3131
" />
<path d="M29.3797 2.3131
L29.1983 2.3131
" />
<path d="M30.7101 1.4665
L30.7101 2.3131
" />
<path d="M30.1658 1.4665
L30.1658 2.1317
" />
<path d="M30.1658 2.1317
L30.2263 2.2527
" />
<path d="M30.2263 2.2527
L30.3473 2.3131
" />
<path d="M30.3473 2.3131
L30.5287 2.3131
" />
<path d="M30.5287 2.3131
L30.6496 2.2527
" />
<path d="M30.6496 2.2527
L30.7101 2.1922
" />
<path d="M31.3148 2.3131
L31.3148 1.4665
" />
<path d="M31.3148 1.7084
L31.3753 1.5874
" />
<path d="M31.3753 1.5874
L31.4358 1.5269
" />
<path d="M31.4358 1.5269
L31.5567 1.4665
" />
<path d="M31.5567 1.4665
L31.6777 1.4665
" />
<path d="M32.6453 2.2527
L32.5244 2.3131
" />
<path d="M32.5244 2.3131
L32.2825 2.3131
" />
<path d="M32.2825 2.3131
L32.1615 2.2527
" />
<path d="M32.1615 2.2527
L32.1010 2.1922
" />
<path d="M32.1010 2.1922
L32.0406 2.0712
" />
<path d="M32.0406 2.0712
L32.0406 1.7084
" />
<path d="M32.0406 1.7084
L32.1010 1.5874
" />
<path d="M32.1010 1.5874
L32.1615 1.5269
" />
<path d="M32.1615 1.5269
L32.2825 1.4665
" />
<path d="M32.2825 1.4665
L32.5244 1.4665
" />
<path d="M32.5244 1.4665
L32.6453 1.5269
" />
<path d="M33.6734 2.2527
L33.5525 2.3131
" />
<path d="M33.5525 2.3131
L33.3106 2.3131
" />
<path d="M33.3106 2.3131
L33.1896 2.2527
" />
<path d="M33.1896 2.2527
L33.1292 2.1317
" />
<path d="M33.1292 2.1317
L33.1292 1.6479
" />
<path d="M33.1292 1.6479
L33.1896 1.5269
" />
<path d="M33.1896 1.5269
L33.3106 1.4665
" />
<path d="M33.3106 1.4665
L33.5525 1.4665
" />
<path d="M33.5525 1.4665
L33.6734 1.5269
" />
<path d="M33.6734 1.5269
L33.7339 1.6479
" />
<path d="M33.7339 1.6479
L33.7339 1.7688
" />
<path d="M33.7339 1.7688
L33.1292 1.8898
" />
<path d="M35.1854 0.9827
L34.0968 2.6155
" />
<path d="M36.0925 2.2527
L35.9716 2.3131
" />
<path d="M35.9716 2.3131
L35.7297 2.3131
" />
<path d="M35.7297 2.3131
L35.6087 2.2527
" />
<path d="M35.6087 2.2527
L35.5483 2.1317
" />
<path d="M35.5483 2.1317
L35.5483 1.6479
" />
<path d="M35.5483 1.6479
L35.6087 1.5269
" />
<path d="M35.6087 1.5269
L35.7297 1.4665
" />
<path d="M35.7297 1.4665
L35.9716 1.4665
" />
<path d="M35.9716 1.4665
L36.0925 1.5269
" />
<path d="M36.0925 1.5269
L36.1530 1.6479
" />
<path d="M36.1530 1.6479
L36.1530 1.7688
" />
<path d="M36.1530 1.7688
L35.5483 1.8898
" />
<path d="M36.6973 1.4665
L36.6973 2.3131
" />
<path d="M36.6973 1.5874
L36.7578 1.5269
" />
<path d="M36.7578 1.5269
L36.8788 1.4665
" />
<path d="M36.8788 1.4665
L37.0602 1.4665
" />
<path d="M37.0602 1.4665
L37.1811 1.5269
" />
<path d="M37.1811 1.5269
L37.2416 1.6479
" />
<path d="M37.2416 1.6479
L37.2416 2.3131
" />
<path d="M38.7535 0.9827
L37.6649 2.6155
" />
<path d="M39.7211 2.3131
L39.7211 1.0431
" />
<path d="M39.7211 2.2527
L39.6002 2.3131
" />
<path d="M39.6002 2.3131
L39.3583 2.3131
" />
<path d="M39.3583 2.3131
L39.2373 2.2527
" />
<path d="M39.2373 2.2527
L39.1768 2.1922
" />
<path d="M39.1768 2.1922
L39.1164 2.0712
" />
<path d="M39.1164 2.0712
L39.1164 1.7084
" />
<path d="M39.1164 1.7084
L39.1768 1.5874
" />
<path d="M39.1768 1.5874
L39.2373 1.5269
" />
<path d="M39.2373 1.5269
L39.3583 1.4665
" />
<path d="M39.3583 1.4665
L39.6002 1.4665
" />
<path d="M39.6002 1.4665
L39.7211 1.5269
" />
<path d="M40.8701 2.3131
L40.8701 1.6479
" />
<path d="M40.8701 1.6479
L40.8096 1.5269
" />
<path d="M40.8096 1.5269
L40.6887 1.4665
" />
<path d="M40.6887 1.4665
L40.4468 1.4665
" />
<path d="M40.4468 1.4665
L40.3258 1.5269
" />
<path d="M40.8701 2.2527
L40.7492 2.3131
" />
<path d="M40.7492 2.3131
L40.4468 2.3131
" />
<path d="M40.4468 2.3131
L40.3258 2.2527
" />
<path d="M40.3258 2.2527
L40.2654 2.1317
" />
<path d="M40.2654 2.1317
L40.2654 2.0107
" />
<path d="M40.2654 2.0107
L40.3258 1.8898
" />
<path d="M40.3258 1.8898
L40.4468 1.8293
" />
<path d="M40.4468 1.8293
L40.7492 1.8293
" />
<path d="M40.7492 1.8293
L40.8701 1.7688
" />
<path d="M41.2934 1.4665
L41.7772 1.4665
" />
<path d="M41.4748 1.0431
L41.4748 2.1317
" />
<path d="M41.4748 2.1317
L41.5353 2.2527
" />
<path d="M41.5353 2.2527
L41.6563 2.3131
" />
<path d="M41.6563 2.3131
L41.7772 2.3131
" />
<path d="M42.7448 2.3131
L42.7448 1.6479
" />
<path d="M42.7448 1.6479
L42.6843 1.5269
" />
<path d="M42.6843 1.5269
L42.5634 1.4665
" />
<path d="M42.5634 1.4665
L42.3215 1.4665
" />
<path d="M42.3215 1.4665
L42.2005 1.5269
" />
<path d="M42.7448 2.2527
L42.6239 2.3131
" />
<path d="M42.6239 2.3131
L42.3215 2.3131
" />
<path d="M42.3215 2.3131
L42.2005 2.2527
" />
<path d="M42.2005 2.2527
L42.1401 2.1317
" />
<path d="M42.1401 2.1317
L42.1401 2.0107
" />
<path d="M42.1401 2.0107
L42.2005 1.8898
" />
<path d="M42.2005 1.8898
L42.3215 1.8293
" />
<path d="M42.3215 1.8293
L42.6239 1.8293
" />
<path d="M42.6239 1.8293
L42.7448 1.7688
" />
<path d="M43.2891 2.2527
L43.4100 2.3131
" />
<path d="M43.4100 2.3131
L43.6519 2.3131
" />
<path d="M43.6519 2.3131
L43.7729 2.2527
" />
<path d="M43.7729 2.2527
L43.8333 2.1317
" />
<path d="M43.8333 2.1317
L43.8333 2.0712
" />
<path d="M43.8333 2.0712
L43.7729 1.9503
" />
<path d="M43.7729 1.9503
L43.6519 1.8898
" />
<path d="M43.6519 1.8898
L43.4705 1.8898
" />
<path d="M43.4705 1.8898
L43.3495 1.8293
" />
<path d="M43.3495 1.8293
L43.2891 1.7084
" />
<path d="M43.2891 1.7084
L43.2891 1.6479
" />
<path d="M43.2891 1.6479
L43.3495 1.5269
" />
<path d="M43.3495 1.5269
L43.4705 1.4665
" />
<path d="M43.4705 1.4665
L43.6519 1.4665
" />
<path d="M43.6519 1.4665
L43.7729 1.5269
" />
<path d="M44.3776 2.3131
L44.3776 1.0431
" />
<path d="M44.9219 2.3131
L44.9219 1.6479
" />
<path d="M44.9219 1.6479
L44.8614 1.5269
" />
<path d="M44.8614 1.5269
L44.7405 1.4665
" />
<path d="M44.7405 1.4665
L44.5591 1.4665
" />
<path d="M44.5591 1.4665
L44.4381 1.5269
" />
<path d="M44.4381 1.5269
L44.3776 1.5874
" />
<path d="M46.0104 2.2527
L45.8895 2.3131
" />
<path d="M45.8895 2.3131
L45.6476 2.3131
" />
<path d="M45.6476 2.3131
L45.5266 2.2527
" />
<path d="M45.5266 2.2527
L45.4662 2.1317
" />
<path d="M45.4662 2.1317
L45.4662 1.6479
" />
<path d="M45.4662 1.6479
L45.5266 1.5269
" />
<path d="M45.5266 1.5269
L45.6476 1.4665
" />
<path d="M45.6476 1.4665
L45.8895 1.4665
" />
<path d="M45.8895 1.4665
L46.0104 1.5269
" />
<path d="M46.0104 1.5269
L46.0709 1.6479
" />
<path d="M46.0709 1.6479
L46.0709 1.7688
" />
<path d="M46.0709 1.7688
L45.4662 1.8898
" />
<path d="M47.0990 2.2527
L46.9781 2.3131
" />
<path d="M46.9781 2.3131
L46.7362 2.3131
" />
<path d="M46.7362 2.3131
L46.6152 2.2527
" />
<path d="M46.6152 2.2527
L46.5548 2.1317
" />
<path d="M46.5548 2.1317
L46.5548 1.6479
" />
<path d="M46.5548 1.6479
L46.6152 1.5269
" />
<path d="M46.6152 1.5269
L46.7362 1.4665
" />
<path d="M46.7362 1.4665
L46.9781 1.4665
" />
<path d="M46.9781 1.4665
L47.0990 1.5269
" />
<path d="M47.0990 1.5269
L47.1595 1.6479
" />
<path d="M47.1595 1.6479
L47.1595 1.7688
" />
<path d="M47.1595 1.7688
L46.5548 1.8898
" />
<path d="M47.5224 1.4665
L48.0062 1.4665
" />
<path d="M47.7038 1.0431
L47.7038 2.1317
" />
<path d="M47.7038 2.1317
L47.7643 2.2527
" />
<path d="M47.7643 2.2527
L47.8853 2.3131
" />
<path d="M47.8853 2.3131
L48.0062 2.3131
" />
<path d="M49.3367 0.9827
L48.2481 2.6155
" />
<path d="M49.9415 2.3131
L49.8205 2.2527
" />
<path d="M49.8205 2.2527
L49.7600 2.1317
" />
<path d="M49.7600 2.1317
L49.7600 1.0431
" />
<path d="M50.9695 2.3131
L50.9695 1.0431
" />
<path d="M50.9695 2.2527
L50.8486 2.3131
" />
<path d="M50.8486 2.3131
L50.6067 2.3131
" />
<path d="M50.6067 2.3131
L50.4857 2.2527
" />
<path d="M50.4857 2.2527
L50.4252 2.1922
" />
<path d="M50.4252 2.1922
L50.3648 2.0712
" />
<path d="M50.3648 2.0712
L50.3648 1.7084
" />
<path d="M50.3648 1.7084
L50.4252 1.5874
" />
<path d="M50.4252 1.5874
L50.4857 1.5269
" />
<path d="M50.4857 1.5269
L50.6067 1.4665
" />
<path d="M50.6067 1.4665
L50.8486 1.4665
" />
<path d="M50.8486 1.4665
L50.9695 1.5269
" />
<path d="M52.2395 2.3131
L51.5138 2.3131
" />
<path d="M51.8766 2.3131
L51.8766 1.0431
" />
<path d="M51.8766 1.0431
L51.7557 1.2246
" />
<path d="M51.7557 1.2246
L51.6347 1.3455
" />
<path d="M51.6347 1.3455
L51.5138 1.4060
" />
<path d="M53.0256 1.0431
L53.1466 1.0431
" />
<path d="M53.1466 1.0431
L53.2675 1.1036
" />
<path d="M53.2675 1.1036
L53.3280 1.1641
" />
<path d="M53.3280 1.1641
L53.3885 1.2850
" />
<path d="M53.3885 1.2850
L53.4490 1.5269
" />
<path d="M53.4490 1.5269
L53.4490 1.8293
" />
<path d="M53.4490 1.8293
L53.3885 2.0712
" />
<path d="M53.3885 2.0712
L53.3280 2.1922
" />
<path d="M53.3280 2.1922
L53.2675 2.2527
" />
<path d="M53.2675 2.2527
L53.1466 2.3131
" />
<path d="M53.1466 2.3131
L53.0256 2.3131
" />
<path d="M53.0256 2.3131
L52.9047 2.2527
" />
<path d="M52.9047 2.2527
L52.8442 2.1922
" />
<path d="M52.8442 2.1922
L52.7837 2.0712
" />
<path d="M52.7837 2.0712
L52.7233 1.8293
" />
<path d="M52.7233 1.8293
L52.7233 1.5269
" />
<path d="M52.7233 1.5269
L52.7837 1.2850
" />
<path d="M52.7837 1.2850
L52.8442 1.1641
" />
<path d="M52.8442 1.1641
L52.9047 1.1036
" />
<path d="M52.9047 1.1036
L53.0256 1.0431
" />
<path d="M54.1747 1.5874
L54.0537 1.5269
" />
<path d="M54.0537 1.5269
L53.9932 1.4665
" />
<path d="M53.9932 1.4665
L53.9328 1.3455
" />
<path d="M53.9328 1.3455
L53.9328 1.2850
" />
<path d="M53.9328 1.2850
L53.9932 1.1641
" />
<path d="M53.9932 1.1641
L54.0537 1.1036
" />
<path d="M54.0537 1.1036
L54.1747 1.0431
" />
<path d="M54.1747 1.0431
L54.4166 1.0431
" />
<path d="M54.4166 1.0431
L54.5375 1.1036
" />
<path d="M54.5375 1.1036
L54.5980 1.1641
" />
<path d="M54.5980 1.1641
L54.6585 1.2850
" />
<path d="M54.6585 1.2850
L54.6585 1.3455
" />
<path d="M54.6585 1.3455
L54.5980 1.4665
" />
<path d="M54.5980 1.4665
L54.5375 1.5269
" />
<path d="M54.5375 1.5269
L54.4166 1.5874
" />
<path d="M54.4166 1.5874
L54.1747 1.5874
" />
<path d="M54.1747 1.5874
L54.0537 1.6479
" />
<path d="M54.0537 1.6479
L53.9932 1.7084
" />
<path d="M53.9932 1.7084
L53.9328 1.8293
" />
<path d="M53.9328 1.8293
L53.9328 2.0712
" />
<path d="M53.9328 2.0712
L53.9932 2.1922
" />
<path d="M53.9932 2.1922
L54.0537 2.2527
" />
<path d="M54.0537 2.2527
L54.1747 2.3131
" />
<path d="M54.1747 2.3131
L54.4166 2.3131
" />
<path d="M54.4166 2.3131
L54.5375 2.2527
" />
<path d="M54.5375 2.2527
L54.5980 2.1922
" />
<path d="M54.5980 2.1922
L54.6585 2.0712
" />
<path d="M54.6585 2.0712
L54.6585 1.8293
" />
<path d="M54.6585 1.8293
L54.5980 1.7084
" />
<path d="M54.5980 1.7084
L54.5375 1.6479
" />
<path d="M54.5375 1.6479
L54.4166 1.5874
" />
<path d="M55.7470 1.0431
L55.5051 1.0431
" />
<path d="M55.5051 1.0431
L55.3842 1.1036
" />
<path d="M55.3842 1.1036
L55.3237 1.1641
" />
<path d="M55.3237 1.1641
L55.2027 1.3455
" />
<path d="M55.2027 1.3455
L55.1423 1.5874
" />
<path d="M55.1423 1.5874
L55.1423 2.0712
" />
<path d="M55.1423 2.0712
L55.2027 2.1922
" />
<path d="M55.2027 2.1922
L55.2632 2.2527
" />
<path d="M55.2632 2.2527
L55.3842 2.3131
" />
<path d="M55.3842 2.3131
L55.6261 2.3131
" />
<path d="M55.6261 2.3131
L55.7470 2.2527
" />
<path d="M55.7470 2.2527
L55.8075 2.1922
" />
<path d="M55.8075 2.1922
L55.8680 2.0712
" />
<path d="M55.8680 2.0712
L55.8680 1.7688
" />
<path d="M55.8680 1.7688
L55.8075 1.6479
" />
<path d="M55.8075 1.6479
L55.7470 1.5874
" />
<path d="M55.7470 1.5874
L55.6261 1.5269
" />
<path d="M55.6261 1.5269
L55.3842 1.5269
" />
<path d="M55.3842 1.5269
L55.2632 1.5874
" />
<path d="M55.2632 1.5874
L55.2027 1.6479
" />
<path d="M55.2027 1.6479
L55.1423 1.7688
" />
<path d="M56.4122 2.1922
L56.4727 2.2527
" />
<path d="M56.4727 2.2527
L56.4122 2.3131
" />
<path d="M56.4122 2.3131
L56.3518 2.2527
" />
<path d="M56.3518 2.2527
L56.4122 2.1922
" />
<path d="M56.4122 2.1922
L56.4122 2.3131
" />
<path d="M57.0170 1.4665
L57.0170 2.7365
" />
<path d="M57.0170 1.5269
L57.1380 1.4665
" />
<path d="M57.1380 1.4665
L57.3799 1.4665
" />
<path d="M57.3799 1.4665
L57.5008 1.5269
" />
<path d="M57.5008 1.5269
L57.5613 1.5874
" />
<path d="M57.5613 1.5874
L57.6218 1.7084
" />
<path d="M57.6218 1.7084
L57.6218 2.0712
" />
<path d="M57.6218 2.0712
L57.5613 2.1922
" />
<path d="M57.5613 2.1922
L57.5008 2.2527
" />
<path d="M57.5008 2.2527
L57.3799 2.3131
" />
<path d="M57.3799 2.3131
L57.1380 2.3131
" />
<path d="M57.1380 2.3131
L57.0170 2.2527
" />
<path d="M58.7103 2.3131
L58.7103 1.0431
" />
<path d="M58.7103 2.2527
L58.5894 2.3131
" />
<path d="M58.5894 2.3131
L58.3475 2.3131
" />
<path d="M58.3475 2.3131
L58.2265 2.2527
" />
<path d="M58.2265 2.2527
L58.1660 2.1922
" />
<path d="M58.1660 2.1922
L58.1056 2.0712
" />
<path d="M58.1056 2.0712
L58.1056 1.7084
" />
<path d="M58.1056 1.7084
L58.1660 1.5874
" />
<path d="M58.1660 1.5874
L58.2265 1.5269
" />
<path d="M58.2265 1.5269
L58.3475 1.4665
" />
<path d="M58.3475 1.4665
L58.5894 1.4665
" />
<path d="M58.5894 1.4665
L58.7103 1.5269
" />
<path d="M59.1336 1.4665
L59.6174 1.4665
" />
<path d="M59.3150 2.3131
L59.3150 1.2246
" />
<path d="M59.3150 1.2246
L59.3755 1.1036
" />
<path d="M59.3755 1.1036
L59.4965 1.0431
" />
<path d="M59.4965 1.0431
L59.6174 1.0431
" />
</g></g> 
</svg>
