<?xml version="1.0" standalone="no"?>
 <!DOCTYPE svg PUBLIC "-//W3C//DTD SVG 1.1//EN" 
 "http://www.w3.org/Graphics/SVG/1.1/DTD/svg11.dtd"> 
<svg
  xmlns:svg="http://www.w3.org/2000/svg"
  xmlns="http://www.w3.org/2000/svg"
  xmlns:xlink="http://www.w3.org/1999/xlink"
  version="1.1"
  width="202.7428mm" height="19.2278mm" viewBox="0.0000 0.0000 202.7428 19.2278">
<title>SVG Image created as working.svg date 2023/08/15 07:21:46 </title>
  <desc>Image generated by Eeschema-SVG </desc>
<g style="fill:#000000; fill-opacity:1.0000;stroke:#000000; stroke-opacity:1.0000;
stroke-linecap:round; stroke-linejoin:round;"
 transform="translate(0 0) scale(1 1)">
</g>
<g style="fill:#840000; fill-opacity:0.0; 
stroke:#840000; stroke-width:0.0000; stroke-opacity:1; 
stroke-linecap:round; stroke-linejoin:round;">
</g>
<g style="fill:#840084; fill-opacity:0.0; 
stroke:#840084; stroke-width:0.0000; stroke-opacity:1; 
stroke-linecap:round; stroke-linejoin:round;">
</g>
<g style="fill:#840000; fill-opacity:0.0; 
stroke:#840000; stroke-width:0.0000; stroke-opacity:1; 
stroke-linecap:round; stroke-linejoin:round;">
</g>
<g style="fill:#840084; fill-opacity:0.0; 
stroke:#840084; stroke-width:0.0000; stroke-opacity:1; 
stroke-linecap:round; stroke-linejoin:round;">
</g>
<g style="fill:#006464; fill-opacity:0.0; 
stroke:#006464; stroke-width:0.0000; stroke-opacity:1; 
stroke-linecap:round; stroke-linejoin:round;">
</g>
<g style="fill:#006464; fill-opacity:0.0; 
stroke:#006464; stroke-width:0.1588; stroke-opacity:1; 
stroke-linecap:round; stroke-linejoin:round;">
<text x="102.6397" y="17.2279"
textLength="2.6415" font-size="1.6933" lengthAdjust="spacingAndGlyphs"
text-anchor="middle" opacity="0">U?</text>
<g class="stroked-text"><desc>U?</desc>
<path d="M101.7325 15.9021
L101.7325 16.9302
" />
<path d="M101.7325 16.9302
L101.7930 17.0512
" />
<path d="M101.7930 17.0512
L101.8535 17.1117
" />
<path d="M101.8535 17.1117
L101.9744 17.1721
" />
<path d="M101.9744 17.1721
L102.2163 17.1721
" />
<path d="M102.2163 17.1721
L102.3373 17.1117
" />
<path d="M102.3373 17.1117
L102.3978 17.0512
" />
<path d="M102.3978 17.0512
L102.4582 16.9302
" />
<path d="M102.4582 16.9302
L102.4582 15.9021
" />
<path d="M103.2445 17.0512
L103.3049 17.1117
" />
<path d="M103.3049 17.1117
L103.2445 17.1721
" />
<path d="M103.2445 17.1721
L103.1840 17.1117
" />
<path d="M103.1840 17.1117
L103.2445 17.0512
" />
<path d="M103.2445 17.0512
L103.2445 17.1721
" />
<path d="M103.0026 15.9626
L103.1235 15.9021
" />
<path d="M103.1235 15.9021
L103.4259 15.9021
" />
<path d="M103.4259 15.9021
L103.5468 15.9626
" />
<path d="M103.5468 15.9626
L103.6073 16.0836
" />
<path d="M103.6073 16.0836
L103.6073 16.2045
" />
<path d="M103.6073 16.2045
L103.5468 16.3255
" />
<path d="M103.5468 16.3255
L103.4864 16.3859
" />
<path d="M103.4864 16.3859
L103.3654 16.4464
" />
<path d="M103.3654 16.4464
L103.3049 16.5069
" />
<path d="M103.3049 16.5069
L103.2445 16.6278
" />
<path d="M103.2445 16.6278
L103.2445 16.6883
" />
</g><text x="117.3256" y="17.2279"
textLength="16.6718" font-size="1.6933" lengthAdjust="spacingAndGlyphs"
text-anchor="middle" opacity="0">MIC5317-1.8xM5</text>
<g class="stroked-text"><desc>MIC5317-1.8xM5</desc>
<path d="M109.4032 17.1721
L109.4032 15.9021
" />
<path d="M109.4032 15.9021
L109.8266 16.8093
" />
<path d="M109.8266 16.8093
L110.2499 15.9021
" />
<path d="M110.2499 15.9021
L110.2499 17.1721
" />
<path d="M110.8546 17.1721
L110.8546 15.9021
" />
<path d="M112.1851 17.0512
L112.1247 17.1117
" />
<path d="M112.1247 17.1117
L111.9432 17.1721
" />
<path d="M111.9432 17.1721
L111.8223 17.1721
" />
<path d="M111.8223 17.1721
L111.6409 17.1117
" />
<path d="M111.6409 17.1117
L111.5199 16.9907
" />
<path d="M111.5199 16.9907
L111.4594 16.8697
" />
<path d="M111.4594 16.8697
L111.3990 16.6278
" />
<path d="M111.3990 16.6278
L111.3990 16.4464
" />
<path d="M111.3990 16.4464
L111.4594 16.2045
" />
<path d="M111.4594 16.2045
L111.5199 16.0836
" />
<path d="M111.5199 16.0836
L111.6409 15.9626
" />
<path d="M111.6409 15.9626
L111.8223 15.9021
" />
<path d="M111.8223 15.9021
L111.9432 15.9021
" />
<path d="M111.9432 15.9021
L112.1247 15.9626
" />
<path d="M112.1247 15.9626
L112.1851 16.0231
" />
<path d="M113.3342 15.9021
L112.7294 15.9021
" />
<path d="M112.7294 15.9021
L112.6690 16.5069
" />
<path d="M112.6690 16.5069
L112.7294 16.4464
" />
<path d="M112.7294 16.4464
L112.8504 16.3859
" />
<path d="M112.8504 16.3859
L113.1528 16.3859
" />
<path d="M113.1528 16.3859
L113.2737 16.4464
" />
<path d="M113.2737 16.4464
L113.3342 16.5069
" />
<path d="M113.3342 16.5069
L113.3947 16.6278
" />
<path d="M113.3947 16.6278
L113.3947 16.9302
" />
<path d="M113.3947 16.9302
L113.3342 17.0512
" />
<path d="M113.3342 17.0512
L113.2737 17.1117
" />
<path d="M113.2737 17.1117
L113.1528 17.1721
" />
<path d="M113.1528 17.1721
L112.8504 17.1721
" />
<path d="M112.8504 17.1721
L112.7294 17.1117
" />
<path d="M112.7294 17.1117
L112.6690 17.0512
" />
<path d="M113.8180 15.9021
L114.6042 15.9021
" />
<path d="M114.6042 15.9021
L114.1808 16.3859
" />
<path d="M114.1808 16.3859
L114.3623 16.3859
" />
<path d="M114.3623 16.3859
L114.4832 16.4464
" />
<path d="M114.4832 16.4464
L114.5437 16.5069
" />
<path d="M114.5437 16.5069
L114.6042 16.6278
" />
<path d="M114.6042 16.6278
L114.6042 16.9302
" />
<path d="M114.6042 16.9302
L114.5437 17.0512
" />
<path d="M114.5437 17.0512
L114.4832 17.1117
" />
<path d="M114.4832 17.1117
L114.3623 17.1721
" />
<path d="M114.3623 17.1721
L113.9994 17.1721
" />
<path d="M113.9994 17.1721
L113.8785 17.1117
" />
<path d="M113.8785 17.1117
L113.8180 17.0512
" />
<path d="M115.8137 17.1721
L115.0880 17.1721
" />
<path d="M115.4508 17.1721
L115.4508 15.9021
" />
<path d="M115.4508 15.9021
L115.3299 16.0836
" />
<path d="M115.3299 16.0836
L115.2089 16.2045
" />
<path d="M115.2089 16.2045
L115.0880 16.2650
" />
<path d="M116.2370 15.9021
L117.0836 15.9021
" />
<path d="M117.0836 15.9021
L116.5394 17.1721
" />
<path d="M117.5674 16.6883
L118.5351 16.6883
" />
<path d="M119.8051 17.1721
L119.0794 17.1721
" />
<path d="M119.4422 17.1721
L119.4422 15.9021
" />
<path d="M119.4422 15.9021
L119.3213 16.0836
" />
<path d="M119.3213 16.0836
L119.2003 16.2045
" />
<path d="M119.2003 16.2045
L119.0794 16.2650
" />
<path d="M120.3493 17.0512
L120.4098 17.1117
" />
<path d="M120.4098 17.1117
L120.3493 17.1721
" />
<path d="M120.3493 17.1721
L120.2889 17.1117
" />
<path d="M120.2889 17.1117
L120.3493 17.0512
" />
<path d="M120.3493 17.0512
L120.3493 17.1721
" />
<path d="M121.1356 16.4464
L121.0146 16.3859
" />
<path d="M121.0146 16.3859
L120.9541 16.3255
" />
<path d="M120.9541 16.3255
L120.8937 16.2045
" />
<path d="M120.8937 16.2045
L120.8937 16.1440
" />
<path d="M120.8937 16.1440
L120.9541 16.0231
" />
<path d="M120.9541 16.0231
L121.0146 15.9626
" />
<path d="M121.0146 15.9626
L121.1356 15.9021
" />
<path d="M121.1356 15.9021
L121.3775 15.9021
" />
<path d="M121.3775 15.9021
L121.4984 15.9626
" />
<path d="M121.4984 15.9626
L121.5589 16.0231
" />
<path d="M121.5589 16.0231
L121.6194 16.1440
" />
<path d="M121.6194 16.1440
L121.6194 16.2045
" />
<path d="M121.6194 16.2045
L121.5589 16.3255
" />
<path d="M121.5589 16.3255
L121.4984 16.3859
" />
<path d="M121.4984 16.3859
L121.3775 16.4464
" />
<path d="M121.3775 16.4464
L121.1356 16.4464
" />
<path d="M121.1356 16.4464
L121.0146 16.5069
" />
<path d="M121.0146 16.5069
L120.9541 16.5674
" />
<path d="M120.9541 16.5674
L120.8937 16.6883
" />
<path d="M120.8937 16.6883
L120.8937 16.9302
" />
<path d="M120.8937 16.9302
L120.9541 17.0512
" />
<path d="M120.9541 17.0512
L121.0146 17.1117
" />
<path d="M121.0146 17.1117
L121.1356 17.1721
" />
<path d="M121.1356 17.1721
L121.3775 17.1721
" />
<path d="M121.3775 17.1721
L121.4984 17.1117
" />
<path d="M121.4984 17.1117
L121.5589 17.0512
" />
<path d="M121.5589 17.0512
L121.6194 16.9302
" />
<path d="M121.6194 16.9302
L121.6194 16.6883
" />
<path d="M121.6194 16.6883
L121.5589 16.5674
" />
<path d="M121.5589 16.5674
L121.4984 16.5069
" />
<path d="M121.4984 16.5069
L121.3775 16.4464
" />
<path d="M122.0427 17.1721
L122.7079 16.3255
" />
<path d="M122.0427 16.3255
L122.7079 17.1721
" />
<path d="M123.1917 17.1721
L123.1917 15.9021
" />
<path d="M123.1917 15.9021
L123.6151 16.8093
" />
<path d="M123.6151 16.8093
L124.0384 15.9021
" />
<path d="M124.0384 15.9021
L124.0384 17.1721
" />
<path d="M125.2479 15.9021
L124.6431 15.9021
" />
<path d="M124.6431 15.9021
L124.5827 16.5069
" />
<path d="M124.5827 16.5069
L124.6431 16.4464
" />
<path d="M124.6431 16.4464
L124.7641 16.3859
" />
<path d="M124.7641 16.3859
L125.0665 16.3859
" />
<path d="M125.0665 16.3859
L125.1874 16.4464
" />
<path d="M125.1874 16.4464
L125.2479 16.5069
" />
<path d="M125.2479 16.5069
L125.3084 16.6278
" />
<path d="M125.3084 16.6278
L125.3084 16.9302
" />
<path d="M125.3084 16.9302
L125.2479 17.0512
" />
<path d="M125.2479 17.0512
L125.1874 17.1117
" />
<path d="M125.1874 17.1117
L125.0665 17.1721
" />
<path d="M125.0665 17.1721
L124.7641 17.1721
" />
<path d="M124.7641 17.1721
L124.6431 17.1117
" />
<path d="M124.6431 17.1117
L124.5827 17.0512
" />
</g></g>
<g style="fill:#840084; fill-opacity:0.0; 
stroke:#840084; stroke-width:0.1588; stroke-opacity:1; 
stroke-linecap:round; stroke-linejoin:round;">
<text x="108.9897" y="14.6879"
textLength="31.6698" font-size="1.6933" lengthAdjust="spacingAndGlyphs"
text-anchor="middle" opacity="0">Package_TO_SOT_SMD:SOT-23-5</text>
<g class="stroked-text"><desc>Package_TO_SOT_SMD:SOT-23-5</desc>
<path d="M93.5683 14.6321
L93.5683 13.3621
" />
<path d="M93.5683 13.3621
L94.0521 13.3621
" />
<path d="M94.0521 13.3621
L94.1731 13.4226
" />
<path d="M94.1731 13.4226
L94.2336 13.4831
" />
<path d="M94.2336 13.4831
L94.2940 13.6040
" />
<path d="M94.2940 13.6040
L94.2940 13.7855
" />
<path d="M94.2940 13.7855
L94.2336 13.9064
" />
<path d="M94.2336 13.9064
L94.1731 13.9669
" />
<path d="M94.1731 13.9669
L94.0521 14.0274
" />
<path d="M94.0521 14.0274
L93.5683 14.0274
" />
<path d="M95.3826 14.6321
L95.3826 13.9669
" />
<path d="M95.3826 13.9669
L95.3221 13.8459
" />
<path d="M95.3221 13.8459
L95.2012 13.7855
" />
<path d="M95.2012 13.7855
L94.9593 13.7855
" />
<path d="M94.9593 13.7855
L94.8383 13.8459
" />
<path d="M95.3826 14.5717
L95.2617 14.6321
" />
<path d="M95.2617 14.6321
L94.9593 14.6321
" />
<path d="M94.9593 14.6321
L94.8383 14.5717
" />
<path d="M94.8383 14.5717
L94.7779 14.4507
" />
<path d="M94.7779 14.4507
L94.7779 14.3297
" />
<path d="M94.7779 14.3297
L94.8383 14.2088
" />
<path d="M94.8383 14.2088
L94.9593 14.1483
" />
<path d="M94.9593 14.1483
L95.2617 14.1483
" />
<path d="M95.2617 14.1483
L95.3826 14.0878
" />
<path d="M96.5316 14.5717
L96.4107 14.6321
" />
<path d="M96.4107 14.6321
L96.1688 14.6321
" />
<path d="M96.1688 14.6321
L96.0478 14.5717
" />
<path d="M96.0478 14.5717
L95.9873 14.5112
" />
<path d="M95.9873 14.5112
L95.9269 14.3902
" />
<path d="M95.9269 14.3902
L95.9269 14.0274
" />
<path d="M95.9269 14.0274
L95.9873 13.9064
" />
<path d="M95.9873 13.9064
L96.0478 13.8459
" />
<path d="M96.0478 13.8459
L96.1688 13.7855
" />
<path d="M96.1688 13.7855
L96.4107 13.7855
" />
<path d="M96.4107 13.7855
L96.5316 13.8459
" />
<path d="M97.0759 14.6321
L97.0759 13.3621
" />
<path d="M97.1969 14.1483
L97.5597 14.6321
" />
<path d="M97.5597 13.7855
L97.0759 14.2693
" />
<path d="M98.6483 14.6321
L98.6483 13.9669
" />
<path d="M98.6483 13.9669
L98.5878 13.8459
" />
<path d="M98.5878 13.8459
L98.4669 13.7855
" />
<path d="M98.4669 13.7855
L98.2250 13.7855
" />
<path d="M98.2250 13.7855
L98.1040 13.8459
" />
<path d="M98.6483 14.5717
L98.5274 14.6321
" />
<path d="M98.5274 14.6321
L98.2250 14.6321
" />
<path d="M98.2250 14.6321
L98.1040 14.5717
" />
<path d="M98.1040 14.5717
L98.0436 14.4507
" />
<path d="M98.0436 14.4507
L98.0436 14.3297
" />
<path d="M98.0436 14.3297
L98.1040 14.2088
" />
<path d="M98.1040 14.2088
L98.2250 14.1483
" />
<path d="M98.2250 14.1483
L98.5274 14.1483
" />
<path d="M98.5274 14.1483
L98.6483 14.0878
" />
<path d="M99.7973 13.7855
L99.7973 14.8136
" />
<path d="M99.7973 14.8136
L99.7368 14.9345
" />
<path d="M99.7368 14.9345
L99.6764 14.9950
" />
<path d="M99.6764 14.9950
L99.5554 15.0555
" />
<path d="M99.5554 15.0555
L99.3740 15.0555
" />
<path d="M99.3740 15.0555
L99.2530 14.9950
" />
<path d="M99.7973 14.5717
L99.6764 14.6321
" />
<path d="M99.6764 14.6321
L99.4345 14.6321
" />
<path d="M99.4345 14.6321
L99.3135 14.5717
" />
<path d="M99.3135 14.5717
L99.2530 14.5112
" />
<path d="M99.2530 14.5112
L99.1926 14.3902
" />
<path d="M99.1926 14.3902
L99.1926 14.0274
" />
<path d="M99.1926 14.0274
L99.2530 13.9064
" />
<path d="M99.2530 13.9064
L99.3135 13.8459
" />
<path d="M99.3135 13.8459
L99.4345 13.7855
" />
<path d="M99.4345 13.7855
L99.6764 13.7855
" />
<path d="M99.6764 13.7855
L99.7973 13.8459
" />
<path d="M100.8858 14.5717
L100.7649 14.6321
" />
<path d="M100.7649 14.6321
L100.5230 14.6321
" />
<path d="M100.5230 14.6321
L100.4020 14.5717
" />
<path d="M100.4020 14.5717
L100.3416 14.4507
" />
<path d="M100.3416 14.4507
L100.3416 13.9669
" />
<path d="M100.3416 13.9669
L100.4020 13.8459
" />
<path d="M100.4020 13.8459
L100.5230 13.7855
" />
<path d="M100.5230 13.7855
L100.7649 13.7855
" />
<path d="M100.7649 13.7855
L100.8858 13.8459
" />
<path d="M100.8858 13.8459
L100.9463 13.9669
" />
<path d="M100.9463 13.9669
L100.9463 14.0878
" />
<path d="M100.9463 14.0878
L100.3416 14.2088
" />
<path d="M101.1883 14.7531
L102.1559 14.7531
" />
<path d="M102.2768 13.3621
L103.0025 13.3621
" />
<path d="M102.6397 14.6321
L102.6397 13.3621
" />
<path d="M103.6677 13.3621
L103.9096 13.3621
" />
<path d="M103.9096 13.3621
L104.0306 13.4226
" />
<path d="M104.0306 13.4226
L104.1515 13.5436
" />
<path d="M104.1515 13.5436
L104.2120 13.7855
" />
<path d="M104.2120 13.7855
L104.2120 14.2088
" />
<path d="M104.2120 14.2088
L104.1515 14.4507
" />
<path d="M104.1515 14.4507
L104.0306 14.5717
" />
<path d="M104.0306 14.5717
L103.9096 14.6321
" />
<path d="M103.9096 14.6321
L103.6677 14.6321
" />
<path d="M103.6677 14.6321
L103.5468 14.5717
" />
<path d="M103.5468 14.5717
L103.4258 14.4507
" />
<path d="M103.4258 14.4507
L103.3654 14.2088
" />
<path d="M103.3654 14.2088
L103.3654 13.7855
" />
<path d="M103.3654 13.7855
L103.4258 13.5436
" />
<path d="M103.4258 13.5436
L103.5468 13.4226
" />
<path d="M103.5468 13.4226
L103.6677 13.3621
" />
<path d="M104.4540 14.7531
L105.4216 14.7531
" />
<path d="M105.6635 14.5717
L105.8449 14.6321
" />
<path d="M105.8449 14.6321
L106.1473 14.6321
" />
<path d="M106.1473 14.6321
L106.2682 14.5717
" />
<path d="M106.2682 14.5717
L106.3287 14.5112
" />
<path d="M106.3287 14.5112
L106.3892 14.3902
" />
<path d="M106.3892 14.3902
L106.3892 14.2693
" />
<path d="M106.3892 14.2693
L106.3287 14.1483
" />
<path d="M106.3287 14.1483
L106.2682 14.0878
" />
<path d="M106.2682 14.0878
L106.1473 14.0274
" />
<path d="M106.1473 14.0274
L105.9054 13.9669
" />
<path d="M105.9054 13.9669
L105.7844 13.9064
" />
<path d="M105.7844 13.9064
L105.7239 13.8459
" />
<path d="M105.7239 13.8459
L105.6635 13.7250
" />
<path d="M105.6635 13.7250
L105.6635 13.6040
" />
<path d="M105.6635 13.6040
L105.7239 13.4831
" />
<path d="M105.7239 13.4831
L105.7844 13.4226
" />
<path d="M105.7844 13.4226
L105.9054 13.3621
" />
<path d="M105.9054 13.3621
L106.2077 13.3621
" />
<path d="M106.2077 13.3621
L106.3892 13.4226
" />
<path d="M107.1753 13.3621
L107.4172 13.3621
" />
<path d="M107.4172 13.3621
L107.5382 13.4226
" />
<path d="M107.5382 13.4226
L107.6591 13.5436
" />
<path d="M107.6591 13.5436
L107.7196 13.7855
" />
<path d="M107.7196 13.7855
L107.7196 14.2088
" />
<path d="M107.7196 14.2088
L107.6591 14.4507
" />
<path d="M107.6591 14.4507
L107.5382 14.5717
" />
<path d="M107.5382 14.5717
L107.4172 14.6321
" />
<path d="M107.4172 14.6321
L107.1753 14.6321
" />
<path d="M107.1753 14.6321
L107.0544 14.5717
" />
<path d="M107.0544 14.5717
L106.9334 14.4507
" />
<path d="M106.9334 14.4507
L106.8730 14.2088
" />
<path d="M106.8730 14.2088
L106.8730 13.7855
" />
<path d="M106.8730 13.7855
L106.9334 13.5436
" />
<path d="M106.9334 13.5436
L107.0544 13.4226
" />
<path d="M107.0544 13.4226
L107.1753 13.3621
" />
<path d="M108.0825 13.3621
L108.8082 13.3621
" />
<path d="M108.4454 14.6321
L108.4454 13.3621
" />
<path d="M108.9292 14.7531
L109.8968 14.7531
" />
<path d="M110.1387 14.5717
L110.3201 14.6321
" />
<path d="M110.3201 14.6321
L110.6225 14.6321
" />
<path d="M110.6225 14.6321
L110.7434 14.5717
" />
<path d="M110.7434 14.5717
L110.8039 14.5112
" />
<path d="M110.8039 14.5112
L110.8644 14.3902
" />
<path d="M110.8644 14.3902
L110.8644 14.2693
" />
<path d="M110.8644 14.2693
L110.8039 14.1483
" />
<path d="M110.8039 14.1483
L110.7434 14.0878
" />
<path d="M110.7434 14.0878
L110.6225 14.0274
" />
<path d="M110.6225 14.0274
L110.3806 13.9669
" />
<path d="M110.3806 13.9669
L110.2596 13.9064
" />
<path d="M110.2596 13.9064
L110.1991 13.8459
" />
<path d="M110.1991 13.8459
L110.1387 13.7250
" />
<path d="M110.1387 13.7250
L110.1387 13.6040
" />
<path d="M110.1387 13.6040
L110.1991 13.4831
" />
<path d="M110.1991 13.4831
L110.2596 13.4226
" />
<path d="M110.2596 13.4226
L110.3806 13.3621
" />
<path d="M110.3806 13.3621
L110.6829 13.3621
" />
<path d="M110.6829 13.3621
L110.8644 13.4226
" />
<path d="M111.4086 14.6321
L111.4086 13.3621
" />
<path d="M111.4086 13.3621
L111.8320 14.2693
" />
<path d="M111.8320 14.2693
L112.2553 13.3621
" />
<path d="M112.2553 13.3621
L112.2553 14.6321
" />
<path d="M112.8600 14.6321
L112.8600 13.3621
" />
<path d="M112.8600 13.3621
L113.1624 13.3621
" />
<path d="M113.1624 13.3621
L113.3438 13.4226
" />
<path d="M113.3438 13.4226
L113.4648 13.5436
" />
<path d="M113.4648 13.5436
L113.5253 13.6645
" />
<path d="M113.5253 13.6645
L113.5857 13.9064
" />
<path d="M113.5857 13.9064
L113.5857 14.0878
" />
<path d="M113.5857 14.0878
L113.5253 14.3297
" />
<path d="M113.5253 14.3297
L113.4648 14.4507
" />
<path d="M113.4648 14.4507
L113.3438 14.5717
" />
<path d="M113.3438 14.5717
L113.1624 14.6321
" />
<path d="M113.1624 14.6321
L112.8600 14.6321
" />
<path d="M114.1300 14.5112
L114.1905 14.5717
" />
<path d="M114.1905 14.5717
L114.1300 14.6321
" />
<path d="M114.1300 14.6321
L114.0696 14.5717
" />
<path d="M114.0696 14.5717
L114.1300 14.5112
" />
<path d="M114.1300 14.5112
L114.1300 14.6321
" />
<path d="M114.1300 13.8459
L114.1905 13.9064
" />
<path d="M114.1905 13.9064
L114.1300 13.9669
" />
<path d="M114.1300 13.9669
L114.0696 13.9064
" />
<path d="M114.0696 13.9064
L114.1300 13.8459
" />
<path d="M114.1300 13.8459
L114.1300 13.9669
" />
<path d="M114.6744 14.5717
L114.8558 14.6321
" />
<path d="M114.8558 14.6321
L115.1582 14.6321
" />
<path d="M115.1582 14.6321
L115.2791 14.5717
" />
<path d="M115.2791 14.5717
L115.3396 14.5112
" />
<path d="M115.3396 14.5112
L115.4001 14.3902
" />
<path d="M115.4001 14.3902
L115.4001 14.2693
" />
<path d="M115.4001 14.2693
L115.3396 14.1483
" />
<path d="M115.3396 14.1483
L115.2791 14.0878
" />
<path d="M115.2791 14.0878
L115.1582 14.0274
" />
<path d="M115.1582 14.0274
L114.9163 13.9669
" />
<path d="M114.9163 13.9669
L114.7953 13.9064
" />
<path d="M114.7953 13.9064
L114.7348 13.8459
" />
<path d="M114.7348 13.8459
L114.6744 13.7250
" />
<path d="M114.6744 13.7250
L114.6744 13.6040
" />
<path d="M114.6744 13.6040
L114.7348 13.4831
" />
<path d="M114.7348 13.4831
L114.7953 13.4226
" />
<path d="M114.7953 13.4226
L114.9163 13.3621
" />
<path d="M114.9163 13.3621
L115.2186 13.3621
" />
<path d="M115.2186 13.3621
L115.4001 13.4226
" />
<path d="M116.1862 13.3621
L116.4281 13.3621
" />
<path d="M116.4281 13.3621
L116.5491 13.4226
" />
<path d="M116.5491 13.4226
L116.6700 13.5436
" />
<path d="M116.6700 13.5436
L116.7305 13.7855
" />
<path d="M116.7305 13.7855
L116.7305 14.2088
" />
<path d="M116.7305 14.2088
L116.6700 14.4507
" />
<path d="M116.6700 14.4507
L116.5491 14.5717
" />
<path d="M116.5491 14.5717
L116.4281 14.6321
" />
<path d="M116.4281 14.6321
L116.1862 14.6321
" />
<path d="M116.1862 14.6321
L116.0653 14.5717
" />
<path d="M116.0653 14.5717
L115.9443 14.4507
" />
<path d="M115.9443 14.4507
L115.8839 14.2088
" />
<path d="M115.8839 14.2088
L115.8839 13.7855
" />
<path d="M115.8839 13.7855
L115.9443 13.5436
" />
<path d="M115.9443 13.5436
L116.0653 13.4226
" />
<path d="M116.0653 13.4226
L116.1862 13.3621
" />
<path d="M117.0934 13.3621
L117.8191 13.3621
" />
<path d="M117.4563 14.6321
L117.4563 13.3621
" />
<path d="M118.2424 14.1483
L119.2101 14.1483
" />
<path d="M119.7544 13.4831
L119.8148 13.4226
" />
<path d="M119.8148 13.4226
L119.9358 13.3621
" />
<path d="M119.9358 13.3621
L120.2382 13.3621
" />
<path d="M120.2382 13.3621
L120.3591 13.4226
" />
<path d="M120.3591 13.4226
L120.4196 13.4831
" />
<path d="M120.4196 13.4831
L120.4801 13.6040
" />
<path d="M120.4801 13.6040
L120.4801 13.7250
" />
<path d="M120.4801 13.7250
L120.4196 13.9064
" />
<path d="M120.4196 13.9064
L119.6939 14.6321
" />
<path d="M119.6939 14.6321
L120.4801 14.6321
" />
<path d="M120.9034 13.3621
L121.6896 13.3621
" />
<path d="M121.6896 13.3621
L121.2662 13.8459
" />
<path d="M121.2662 13.8459
L121.4477 13.8459
" />
<path d="M121.4477 13.8459
L121.5686 13.9064
" />
<path d="M121.5686 13.9064
L121.6291 13.9669
" />
<path d="M121.6291 13.9669
L121.6896 14.0878
" />
<path d="M121.6896 14.0878
L121.6896 14.3902
" />
<path d="M121.6896 14.3902
L121.6291 14.5112
" />
<path d="M121.6291 14.5112
L121.5686 14.5717
" />
<path d="M121.5686 14.5717
L121.4477 14.6321
" />
<path d="M121.4477 14.6321
L121.0848 14.6321
" />
<path d="M121.0848 14.6321
L120.9639 14.5717
" />
<path d="M120.9639 14.5717
L120.9034 14.5112
" />
<path d="M122.2338 14.1483
L123.2015 14.1483
" />
<path d="M124.4110 13.3621
L123.8062 13.3621
" />
<path d="M123.8062 13.3621
L123.7458 13.9669
" />
<path d="M123.7458 13.9669
L123.8062 13.9064
" />
<path d="M123.8062 13.9064
L123.9272 13.8459
" />
<path d="M123.9272 13.8459
L124.2296 13.8459
" />
<path d="M124.2296 13.8459
L124.3505 13.9064
" />
<path d="M124.3505 13.9064
L124.4110 13.9669
" />
<path d="M124.4110 13.9669
L124.4715 14.0878
" />
<path d="M124.4715 14.0878
L124.4715 14.3902
" />
<path d="M124.4715 14.3902
L124.4110 14.5112
" />
<path d="M124.4110 14.5112
L124.3505 14.5717
" />
<path d="M124.3505 14.5717
L124.2296 14.6321
" />
<path d="M124.2296 14.6321
L123.9272 14.6321
" />
<path d="M123.9272 14.6321
L123.8062 14.5717
" />
<path d="M123.8062 14.5717
L123.7458 14.5112
" />
</g><text x="101.3697" y="3.2579"
textLength="168.9496" font-size="1.6933" lengthAdjust="spacingAndGlyphs"
text-anchor="middle" opacity="0">https://ww1.microchip.com/downloads/aemDocuments/documents/OTH/ProductDocuments/DataSheets/MIC5317-High-Performance-Single-150mA-LDO-DS20006195B.pdf</text>
<g class="stroked-text"><desc>https://ww1.microchip.com/downloads/aemDocuments/documents/OTH/ProductDocuments/DataSheets/MIC5317-High-Performance-Single-150mA-LDO-DS20006195B.pdf</desc>
<path d="M17.3084 3.2021
L17.3084 1.9321
" />
<path d="M17.8527 3.2021
L17.8527 2.5369
" />
<path d="M17.8527 2.5369
L17.7922 2.4159
" />
<path d="M17.7922 2.4159
L17.6713 2.3555
" />
<path d="M17.6713 2.3555
L17.4899 2.3555
" />
<path d="M17.4899 2.3555
L17.3689 2.4159
" />
<path d="M17.3689 2.4159
L17.3084 2.4764
" />
<path d="M18.2760 2.3555
L18.7598 2.3555
" />
<path d="M18.4574 1.9321
L18.4574 3.0207
" />
<path d="M18.4574 3.0207
L18.5179 3.1417
" />
<path d="M18.5179 3.1417
L18.6389 3.2021
" />
<path d="M18.6389 3.2021
L18.7598 3.2021
" />
<path d="M19.0017 2.3555
L19.4855 2.3555
" />
<path d="M19.1831 1.9321
L19.1831 3.0207
" />
<path d="M19.1831 3.0207
L19.2436 3.1417
" />
<path d="M19.2436 3.1417
L19.3646 3.2021
" />
<path d="M19.3646 3.2021
L19.4855 3.2021
" />
<path d="M19.9088 2.3555
L19.9088 3.6255
" />
<path d="M19.9088 2.4159
L20.0298 2.3555
" />
<path d="M20.0298 2.3555
L20.2717 2.3555
" />
<path d="M20.2717 2.3555
L20.3926 2.4159
" />
<path d="M20.3926 2.4159
L20.4531 2.4764
" />
<path d="M20.4531 2.4764
L20.5136 2.5974
" />
<path d="M20.5136 2.5974
L20.5136 2.9602
" />
<path d="M20.5136 2.9602
L20.4531 3.0812
" />
<path d="M20.4531 3.0812
L20.3926 3.1417
" />
<path d="M20.3926 3.1417
L20.2717 3.2021
" />
<path d="M20.2717 3.2021
L20.0298 3.2021
" />
<path d="M20.0298 3.2021
L19.9088 3.1417
" />
<path d="M20.9974 3.1417
L21.1183 3.2021
" />
<path d="M21.1183 3.2021
L21.3602 3.2021
" />
<path d="M21.3602 3.2021
L21.4812 3.1417
" />
<path d="M21.4812 3.1417
L21.5416 3.0207
" />
<path d="M21.5416 3.0207
L21.5416 2.9602
" />
<path d="M21.5416 2.9602
L21.4812 2.8393
" />
<path d="M21.4812 2.8393
L21.3602 2.7788
" />
<path d="M21.3602 2.7788
L21.1788 2.7788
" />
<path d="M21.1788 2.7788
L21.0578 2.7183
" />
<path d="M21.0578 2.7183
L20.9974 2.5974
" />
<path d="M20.9974 2.5974
L20.9974 2.5369
" />
<path d="M20.9974 2.5369
L21.0578 2.4159
" />
<path d="M21.0578 2.4159
L21.1788 2.3555
" />
<path d="M21.1788 2.3555
L21.3602 2.3555
" />
<path d="M21.3602 2.3555
L21.4812 2.4159
" />
<path d="M22.0859 3.0812
L22.1464 3.1417
" />
<path d="M22.1464 3.1417
L22.0859 3.2021
" />
<path d="M22.0859 3.2021
L22.0255 3.1417
" />
<path d="M22.0255 3.1417
L22.0859 3.0812
" />
<path d="M22.0859 3.0812
L22.0859 3.2021
" />
<path d="M22.0859 2.4159
L22.1464 2.4764
" />
<path d="M22.1464 2.4764
L22.0859 2.5369
" />
<path d="M22.0859 2.5369
L22.0255 2.4764
" />
<path d="M22.0255 2.4764
L22.0859 2.4159
" />
<path d="M22.0859 2.4159
L22.0859 2.5369
" />
<path d="M23.5979 1.8717
L22.5093 3.5045
" />
<path d="M24.9284 1.8717
L23.8398 3.5045
" />
<path d="M25.2308 2.3555
L25.4727 3.2021
" />
<path d="M25.4727 3.2021
L25.7146 2.5974
" />
<path d="M25.7146 2.5974
L25.9565 3.2021
" />
<path d="M25.9565 3.2021
L26.1984 2.3555
" />
<path d="M26.5613 2.3555
L26.8032 3.2021
" />
<path d="M26.8032 3.2021
L27.0451 2.5974
" />
<path d="M27.0451 2.5974
L27.2870 3.2021
" />
<path d="M27.2870 3.2021
L27.5289 2.3555
" />
<path d="M28.6780 3.2021
L27.9523 3.2021
" />
<path d="M28.3151 3.2021
L28.3151 1.9321
" />
<path d="M28.3151 1.9321
L28.1942 2.1136
" />
<path d="M28.1942 2.1136
L28.0732 2.2345
" />
<path d="M28.0732 2.2345
L27.9523 2.2950
" />
<path d="M29.2222 3.0812
L29.2827 3.1417
" />
<path d="M29.2827 3.1417
L29.2222 3.2021
" />
<path d="M29.2222 3.2021
L29.1618 3.1417
" />
<path d="M29.1618 3.1417
L29.2222 3.0812
" />
<path d="M29.2222 3.0812
L29.2222 3.2021
" />
<path d="M29.8270 3.2021
L29.8270 2.3555
" />
<path d="M29.8270 2.4764
L29.8875 2.4159
" />
<path d="M29.8875 2.4159
L30.0085 2.3555
" />
<path d="M30.0085 2.3555
L30.1899 2.3555
" />
<path d="M30.1899 2.3555
L30.3108 2.4159
" />
<path d="M30.3108 2.4159
L30.3713 2.5369
" />
<path d="M30.3713 2.5369
L30.3713 3.2021
" />
<path d="M30.3713 2.5369
L30.4318 2.4159
" />
<path d="M30.4318 2.4159
L30.5527 2.3555
" />
<path d="M30.5527 2.3555
L30.7342 2.3555
" />
<path d="M30.7342 2.3555
L30.8551 2.4159
" />
<path d="M30.8551 2.4159
L30.9156 2.5369
" />
<path d="M30.9156 2.5369
L30.9156 3.2021
" />
<path d="M31.5203 3.2021
L31.5203 2.3555
" />
<path d="M31.5203 1.9321
L31.4599 1.9926
" />
<path d="M31.4599 1.9926
L31.5203 2.0531
" />
<path d="M31.5203 2.0531
L31.5808 1.9926
" />
<path d="M31.5808 1.9926
L31.5203 1.9321
" />
<path d="M31.5203 1.9321
L31.5203 2.0531
" />
<path d="M32.6694 3.1417
L32.5485 3.2021
" />
<path d="M32.5485 3.2021
L32.3066 3.2021
" />
<path d="M32.3066 3.2021
L32.1856 3.1417
" />
<path d="M32.1856 3.1417
L32.1251 3.0812
" />
<path d="M32.1251 3.0812
L32.0647 2.9602
" />
<path d="M32.0647 2.9602
L32.0647 2.5974
" />
<path d="M32.0647 2.5974
L32.1251 2.4764
" />
<path d="M32.1251 2.4764
L32.1856 2.4159
" />
<path d="M32.1856 2.4159
L32.3066 2.3555
" />
<path d="M32.3066 2.3555
L32.5485 2.3555
" />
<path d="M32.5485 2.3555
L32.6694 2.4159
" />
<path d="M33.2137 3.2021
L33.2137 2.3555
" />
<path d="M33.2137 2.5974
L33.2742 2.4764
" />
<path d="M33.2742 2.4764
L33.3347 2.4159
" />
<path d="M33.3347 2.4159
L33.4556 2.3555
" />
<path d="M33.4556 2.3555
L33.5766 2.3555
" />
<path d="M34.1814 3.2021
L34.0604 3.1417
" />
<path d="M34.0604 3.1417
L33.9999 3.0812
" />
<path d="M33.9999 3.0812
L33.9395 2.9602
" />
<path d="M33.9395 2.9602
L33.9395 2.5974
" />
<path d="M33.9395 2.5974
L33.9999 2.4764
" />
<path d="M33.9999 2.4764
L34.0604 2.4159
" />
<path d="M34.0604 2.4159
L34.1814 2.3555
" />
<path d="M34.1814 2.3555
L34.3628 2.3555
" />
<path d="M34.3628 2.3555
L34.4837 2.4159
" />
<path d="M34.4837 2.4159
L34.5442 2.4764
" />
<path d="M34.5442 2.4764
L34.6047 2.5974
" />
<path d="M34.6047 2.5974
L34.6047 2.9602
" />
<path d="M34.6047 2.9602
L34.5442 3.0812
" />
<path d="M34.5442 3.0812
L34.4837 3.1417
" />
<path d="M34.4837 3.1417
L34.3628 3.2021
" />
<path d="M34.3628 3.2021
L34.1814 3.2021
" />
<path d="M35.6932 3.1417
L35.5723 3.2021
" />
<path d="M35.5723 3.2021
L35.3304 3.2021
" />
<path d="M35.3304 3.2021
L35.2094 3.1417
" />
<path d="M35.2094 3.1417
L35.1489 3.0812
" />
<path d="M35.1489 3.0812
L35.0885 2.9602
" />
<path d="M35.0885 2.9602
L35.0885 2.5974
" />
<path d="M35.0885 2.5974
L35.1489 2.4764
" />
<path d="M35.1489 2.4764
L35.2094 2.4159
" />
<path d="M35.2094 2.4159
L35.3304 2.3555
" />
<path d="M35.3304 2.3555
L35.5723 2.3555
" />
<path d="M35.5723 2.3555
L35.6932 2.4159
" />
<path d="M36.2375 3.2021
L36.2375 1.9321
" />
<path d="M36.7818 3.2021
L36.7818 2.5369
" />
<path d="M36.7818 2.5369
L36.7213 2.4159
" />
<path d="M36.7213 2.4159
L36.6004 2.3555
" />
<path d="M36.6004 2.3555
L36.4190 2.3555
" />
<path d="M36.4190 2.3555
L36.2980 2.4159
" />
<path d="M36.2980 2.4159
L36.2375 2.4764
" />
<path d="M37.3865 3.2021
L37.3865 2.3555
" />
<path d="M37.3865 1.9321
L37.3261 1.9926
" />
<path d="M37.3261 1.9926
L37.3865 2.0531
" />
<path d="M37.3865 2.0531
L37.4470 1.9926
" />
<path d="M37.4470 1.9926
L37.3865 1.9321
" />
<path d="M37.3865 1.9321
L37.3865 2.0531
" />
<path d="M37.9913 2.3555
L37.9913 3.6255
" />
<path d="M37.9913 2.4159
L38.1123 2.3555
" />
<path d="M38.1123 2.3555
L38.3542 2.3555
" />
<path d="M38.3542 2.3555
L38.4751 2.4159
" />
<path d="M38.4751 2.4159
L38.5356 2.4764
" />
<path d="M38.5356 2.4764
L38.5961 2.5974
" />
<path d="M38.5961 2.5974
L38.5961 2.9602
" />
<path d="M38.5961 2.9602
L38.5356 3.0812
" />
<path d="M38.5356 3.0812
L38.4751 3.1417
" />
<path d="M38.4751 3.1417
L38.3542 3.2021
" />
<path d="M38.3542 3.2021
L38.1123 3.2021
" />
<path d="M38.1123 3.2021
L37.9913 3.1417
" />
<path d="M39.1403 3.0812
L39.2008 3.1417
" />
<path d="M39.2008 3.1417
L39.1403 3.2021
" />
<path d="M39.1403 3.2021
L39.0799 3.1417
" />
<path d="M39.0799 3.1417
L39.1403 3.0812
" />
<path d="M39.1403 3.0812
L39.1403 3.2021
" />
<path d="M40.2894 3.1417
L40.1685 3.2021
" />
<path d="M40.1685 3.2021
L39.9266 3.2021
" />
<path d="M39.9266 3.2021
L39.8056 3.1417
" />
<path d="M39.8056 3.1417
L39.7451 3.0812
" />
<path d="M39.7451 3.0812
L39.6847 2.9602
" />
<path d="M39.6847 2.9602
L39.6847 2.5974
" />
<path d="M39.6847 2.5974
L39.7451 2.4764
" />
<path d="M39.7451 2.4764
L39.8056 2.4159
" />
<path d="M39.8056 2.4159
L39.9266 2.3555
" />
<path d="M39.9266 2.3555
L40.1685 2.3555
" />
<path d="M40.1685 2.3555
L40.2894 2.4159
" />
<path d="M41.0152 3.2021
L40.8942 3.1417
" />
<path d="M40.8942 3.1417
L40.8337 3.0812
" />
<path d="M40.8337 3.0812
L40.7733 2.9602
" />
<path d="M40.7733 2.9602
L40.7733 2.5974
" />
<path d="M40.7733 2.5974
L40.8337 2.4764
" />
<path d="M40.8337 2.4764
L40.8942 2.4159
" />
<path d="M40.8942 2.4159
L41.0152 2.3555
" />
<path d="M41.0152 2.3555
L41.1966 2.3555
" />
<path d="M41.1966 2.3555
L41.3175 2.4159
" />
<path d="M41.3175 2.4159
L41.3780 2.4764
" />
<path d="M41.3780 2.4764
L41.4385 2.5974
" />
<path d="M41.4385 2.5974
L41.4385 2.9602
" />
<path d="M41.4385 2.9602
L41.3780 3.0812
" />
<path d="M41.3780 3.0812
L41.3175 3.1417
" />
<path d="M41.3175 3.1417
L41.1966 3.2021
" />
<path d="M41.1966 3.2021
L41.0152 3.2021
" />
<path d="M41.9827 3.2021
L41.9827 2.3555
" />
<path d="M41.9827 2.4764
L42.0432 2.4159
" />
<path d="M42.0432 2.4159
L42.1642 2.3555
" />
<path d="M42.1642 2.3555
L42.3456 2.3555
" />
<path d="M42.3456 2.3555
L42.4665 2.4159
" />
<path d="M42.4665 2.4159
L42.5270 2.5369
" />
<path d="M42.5270 2.5369
L42.5270 3.2021
" />
<path d="M42.5270 2.5369
L42.5875 2.4159
" />
<path d="M42.5875 2.4159
L42.7084 2.3555
" />
<path d="M42.7084 2.3555
L42.8899 2.3555
" />
<path d="M42.8899 2.3555
L43.0108 2.4159
" />
<path d="M43.0108 2.4159
L43.0713 2.5369
" />
<path d="M43.0713 2.5369
L43.0713 3.2021
" />
<path d="M44.5832 1.8717
L43.4946 3.5045
" />
<path d="M45.5508 3.2021
L45.5508 1.9321
" />
<path d="M45.5508 3.1417
L45.4299 3.2021
" />
<path d="M45.4299 3.2021
L45.1880 3.2021
" />
<path d="M45.1880 3.2021
L45.0670 3.1417
" />
<path d="M45.0670 3.1417
L45.0065 3.0812
" />
<path d="M45.0065 3.0812
L44.9461 2.9602
" />
<path d="M44.9461 2.9602
L44.9461 2.5974
" />
<path d="M44.9461 2.5974
L45.0065 2.4764
" />
<path d="M45.0065 2.4764
L45.0670 2.4159
" />
<path d="M45.0670 2.4159
L45.1880 2.3555
" />
<path d="M45.1880 2.3555
L45.4299 2.3555
" />
<path d="M45.4299 2.3555
L45.5508 2.4159
" />
<path d="M46.3370 3.2021
L46.2160 3.1417
" />
<path d="M46.2160 3.1417
L46.1555 3.0812
" />
<path d="M46.1555 3.0812
L46.0951 2.9602
" />
<path d="M46.0951 2.9602
L46.0951 2.5974
" />
<path d="M46.0951 2.5974
L46.1555 2.4764
" />
<path d="M46.1555 2.4764
L46.2160 2.4159
" />
<path d="M46.2160 2.4159
L46.3370 2.3555
" />
<path d="M46.3370 2.3555
L46.5184 2.3555
" />
<path d="M46.5184 2.3555
L46.6393 2.4159
" />
<path d="M46.6393 2.4159
L46.6998 2.4764
" />
<path d="M46.6998 2.4764
L46.7603 2.5974
" />
<path d="M46.7603 2.5974
L46.7603 2.9602
" />
<path d="M46.7603 2.9602
L46.6998 3.0812
" />
<path d="M46.6998 3.0812
L46.6393 3.1417
" />
<path d="M46.6393 3.1417
L46.5184 3.2021
" />
<path d="M46.5184 3.2021
L46.3370 3.2021
" />
<path d="M47.1836 2.3555
L47.4255 3.2021
" />
<path d="M47.4255 3.2021
L47.6674 2.5974
" />
<path d="M47.6674 2.5974
L47.9093 3.2021
" />
<path d="M47.9093 3.2021
L48.1512 2.3555
" />
<path d="M48.6350 2.3555
L48.6350 3.2021
" />
<path d="M48.6350 2.4764
L48.6955 2.4159
" />
<path d="M48.6955 2.4159
L48.8165 2.3555
" />
<path d="M48.8165 2.3555
L48.9979 2.3555
" />
<path d="M48.9979 2.3555
L49.1188 2.4159
" />
<path d="M49.1188 2.4159
L49.1793 2.5369
" />
<path d="M49.1793 2.5369
L49.1793 3.2021
" />
<path d="M49.9655 3.2021
L49.8445 3.1417
" />
<path d="M49.8445 3.1417
L49.7840 3.0207
" />
<path d="M49.7840 3.0207
L49.7840 1.9321
" />
<path d="M50.6307 3.2021
L50.5097 3.1417
" />
<path d="M50.5097 3.1417
L50.4492 3.0812
" />
<path d="M50.4492 3.0812
L50.3888 2.9602
" />
<path d="M50.3888 2.9602
L50.3888 2.5974
" />
<path d="M50.3888 2.5974
L50.4492 2.4764
" />
<path d="M50.4492 2.4764
L50.5097 2.4159
" />
<path d="M50.5097 2.4159
L50.6307 2.3555
" />
<path d="M50.6307 2.3555
L50.8121 2.3555
" />
<path d="M50.8121 2.3555
L50.9330 2.4159
" />
<path d="M50.9330 2.4159
L50.9935 2.4764
" />
<path d="M50.9935 2.4764
L51.0540 2.5974
" />
<path d="M51.0540 2.5974
L51.0540 2.9602
" />
<path d="M51.0540 2.9602
L50.9935 3.0812
" />
<path d="M50.9935 3.0812
L50.9330 3.1417
" />
<path d="M50.9330 3.1417
L50.8121 3.2021
" />
<path d="M50.8121 3.2021
L50.6307 3.2021
" />
<path d="M52.1425 3.2021
L52.1425 2.5369
" />
<path d="M52.1425 2.5369
L52.0820 2.4159
" />
<path d="M52.0820 2.4159
L51.9611 2.3555
" />
<path d="M51.9611 2.3555
L51.7192 2.3555
" />
<path d="M51.7192 2.3555
L51.5982 2.4159
" />
<path d="M52.1425 3.1417
L52.0216 3.2021
" />
<path d="M52.0216 3.2021
L51.7192 3.2021
" />
<path d="M51.7192 3.2021
L51.5982 3.1417
" />
<path d="M51.5982 3.1417
L51.5378 3.0207
" />
<path d="M51.5378 3.0207
L51.5378 2.8997
" />
<path d="M51.5378 2.8997
L51.5982 2.7788
" />
<path d="M51.5982 2.7788
L51.7192 2.7183
" />
<path d="M51.7192 2.7183
L52.0216 2.7183
" />
<path d="M52.0216 2.7183
L52.1425 2.6578
" />
<path d="M53.2915 3.2021
L53.2915 1.9321
" />
<path d="M53.2915 3.1417
L53.1706 3.2021
" />
<path d="M53.1706 3.2021
L52.9287 3.2021
" />
<path d="M52.9287 3.2021
L52.8077 3.1417
" />
<path d="M52.8077 3.1417
L52.7472 3.0812
" />
<path d="M52.7472 3.0812
L52.6868 2.9602
" />
<path d="M52.6868 2.9602
L52.6868 2.5974
" />
<path d="M52.6868 2.5974
L52.7472 2.4764
" />
<path d="M52.7472 2.4764
L52.8077 2.4159
" />
<path d="M52.8077 2.4159
L52.9287 2.3555
" />
<path d="M52.9287 2.3555
L53.1706 2.3555
" />
<path d="M53.1706 2.3555
L53.2915 2.4159
" />
<path d="M53.8358 3.1417
L53.9567 3.2021
" />
<path d="M53.9567 3.2021
L54.1986 3.2021
" />
<path d="M54.1986 3.2021
L54.3196 3.1417
" />
<path d="M54.3196 3.1417
L54.3800 3.0207
" />
<path d="M54.3800 3.0207
L54.3800 2.9602
" />
<path d="M54.3800 2.9602
L54.3196 2.8393
" />
<path d="M54.3196 2.8393
L54.1986 2.7788
" />
<path d="M54.1986 2.7788
L54.0172 2.7788
" />
<path d="M54.0172 2.7788
L53.8962 2.7183
" />
<path d="M53.8962 2.7183
L53.8358 2.5974
" />
<path d="M53.8358 2.5974
L53.8358 2.5369
" />
<path d="M53.8358 2.5369
L53.8962 2.4159
" />
<path d="M53.8962 2.4159
L54.0172 2.3555
" />
<path d="M54.0172 2.3555
L54.1986 2.3555
" />
<path d="M54.1986 2.3555
L54.3196 2.4159
" />
<path d="M55.8315 1.8717
L54.7429 3.5045
" />
<path d="M56.7991 3.2021
L56.7991 2.5369
" />
<path d="M56.7991 2.5369
L56.7386 2.4159
" />
<path d="M56.7386 2.4159
L56.6177 2.3555
" />
<path d="M56.6177 2.3555
L56.3758 2.3555
" />
<path d="M56.3758 2.3555
L56.2548 2.4159
" />
<path d="M56.7991 3.1417
L56.6782 3.2021
" />
<path d="M56.6782 3.2021
L56.3758 3.2021
" />
<path d="M56.3758 3.2021
L56.2548 3.1417
" />
<path d="M56.2548 3.1417
L56.1944 3.0207
" />
<path d="M56.1944 3.0207
L56.1944 2.8997
" />
<path d="M56.1944 2.8997
L56.2548 2.7788
" />
<path d="M56.2548 2.7788
L56.3758 2.7183
" />
<path d="M56.3758 2.7183
L56.6782 2.7183
" />
<path d="M56.6782 2.7183
L56.7991 2.6578
" />
<path d="M57.8876 3.1417
L57.7667 3.2021
" />
<path d="M57.7667 3.2021
L57.5248 3.2021
" />
<path d="M57.5248 3.2021
L57.4038 3.1417
" />
<path d="M57.4038 3.1417
L57.3434 3.0207
" />
<path d="M57.3434 3.0207
L57.3434 2.5369
" />
<path d="M57.3434 2.5369
L57.4038 2.4159
" />
<path d="M57.4038 2.4159
L57.5248 2.3555
" />
<path d="M57.5248 2.3555
L57.7667 2.3555
" />
<path d="M57.7667 2.3555
L57.8876 2.4159
" />
<path d="M57.8876 2.4159
L57.9481 2.5369
" />
<path d="M57.9481 2.5369
L57.9481 2.6578
" />
<path d="M57.9481 2.6578
L57.3434 2.7788
" />
<path d="M58.4924 3.2021
L58.4924 2.3555
" />
<path d="M58.4924 2.4764
L58.5529 2.4159
" />
<path d="M58.5529 2.4159
L58.6739 2.3555
" />
<path d="M58.6739 2.3555
L58.8553 2.3555
" />
<path d="M58.8553 2.3555
L58.9762 2.4159
" />
<path d="M58.9762 2.4159
L59.0367 2.5369
" />
<path d="M59.0367 2.5369
L59.0367 3.2021
" />
<path d="M59.0367 2.5369
L59.0972 2.4159
" />
<path d="M59.0972 2.4159
L59.2181 2.3555
" />
<path d="M59.2181 2.3555
L59.3996 2.3555
" />
<path d="M59.3996 2.3555
L59.5205 2.4159
" />
<path d="M59.5205 2.4159
L59.5810 2.5369
" />
<path d="M59.5810 2.5369
L59.5810 3.2021
" />
<path d="M60.1857 3.2021
L60.1857 1.9321
" />
<path d="M60.1857 1.9321
L60.4881 1.9321
" />
<path d="M60.4881 1.9321
L60.6695 1.9926
" />
<path d="M60.6695 1.9926
L60.7905 2.1136
" />
<path d="M60.7905 2.1136
L60.8510 2.2345
" />
<path d="M60.8510 2.2345
L60.9114 2.4764
" />
<path d="M60.9114 2.4764
L60.9114 2.6578
" />
<path d="M60.9114 2.6578
L60.8510 2.8997
" />
<path d="M60.8510 2.8997
L60.7905 3.0207
" />
<path d="M60.7905 3.0207
L60.6695 3.1417
" />
<path d="M60.6695 3.1417
L60.4881 3.2021
" />
<path d="M60.4881 3.2021
L60.1857 3.2021
" />
<path d="M61.6372 3.2021
L61.5162 3.1417
" />
<path d="M61.5162 3.1417
L61.4557 3.0812
" />
<path d="M61.4557 3.0812
L61.3953 2.9602
" />
<path d="M61.3953 2.9602
L61.3953 2.5974
" />
<path d="M61.3953 2.5974
L61.4557 2.4764
" />
<path d="M61.4557 2.4764
L61.5162 2.4159
" />
<path d="M61.5162 2.4159
L61.6372 2.3555
" />
<path d="M61.6372 2.3555
L61.8186 2.3555
" />
<path d="M61.8186 2.3555
L61.9395 2.4159
" />
<path d="M61.9395 2.4159
L62.0000 2.4764
" />
<path d="M62.0000 2.4764
L62.0605 2.5974
" />
<path d="M62.0605 2.5974
L62.0605 2.9602
" />
<path d="M62.0605 2.9602
L62.0000 3.0812
" />
<path d="M62.0000 3.0812
L61.9395 3.1417
" />
<path d="M61.9395 3.1417
L61.8186 3.2021
" />
<path d="M61.8186 3.2021
L61.6372 3.2021
" />
<path d="M63.1490 3.1417
L63.0281 3.2021
" />
<path d="M63.0281 3.2021
L62.7862 3.2021
" />
<path d="M62.7862 3.2021
L62.6652 3.1417
" />
<path d="M62.6652 3.1417
L62.6047 3.0812
" />
<path d="M62.6047 3.0812
L62.5443 2.9602
" />
<path d="M62.5443 2.9602
L62.5443 2.5974
" />
<path d="M62.5443 2.5974
L62.6047 2.4764
" />
<path d="M62.6047 2.4764
L62.6652 2.4159
" />
<path d="M62.6652 2.4159
L62.7862 2.3555
" />
<path d="M62.7862 2.3555
L63.0281 2.3555
" />
<path d="M63.0281 2.3555
L63.1490 2.4159
" />
<path d="M64.2376 2.3555
L64.2376 3.2021
" />
<path d="M63.6933 2.3555
L63.6933 3.0207
" />
<path d="M63.6933 3.0207
L63.7538 3.1417
" />
<path d="M63.7538 3.1417
L63.8748 3.2021
" />
<path d="M63.8748 3.2021
L64.0562 3.2021
" />
<path d="M64.0562 3.2021
L64.1771 3.1417
" />
<path d="M64.1771 3.1417
L64.2376 3.0812
" />
<path d="M64.8423 3.2021
L64.8423 2.3555
" />
<path d="M64.8423 2.4764
L64.9028 2.4159
" />
<path d="M64.9028 2.4159
L65.0238 2.3555
" />
<path d="M65.0238 2.3555
L65.2052 2.3555
" />
<path d="M65.2052 2.3555
L65.3261 2.4159
" />
<path d="M65.3261 2.4159
L65.3866 2.5369
" />
<path d="M65.3866 2.5369
L65.3866 3.2021
" />
<path d="M65.3866 2.5369
L65.4471 2.4159
" />
<path d="M65.4471 2.4159
L65.5680 2.3555
" />
<path d="M65.5680 2.3555
L65.7495 2.3555
" />
<path d="M65.7495 2.3555
L65.8704 2.4159
" />
<path d="M65.8704 2.4159
L65.9309 2.5369
" />
<path d="M65.9309 2.5369
L65.9309 3.2021
" />
<path d="M67.0194 3.1417
L66.8985 3.2021
" />
<path d="M66.8985 3.2021
L66.6566 3.2021
" />
<path d="M66.6566 3.2021
L66.5356 3.1417
" />
<path d="M66.5356 3.1417
L66.4752 3.0207
" />
<path d="M66.4752 3.0207
L66.4752 2.5369
" />
<path d="M66.4752 2.5369
L66.5356 2.4159
" />
<path d="M66.5356 2.4159
L66.6566 2.3555
" />
<path d="M66.6566 2.3555
L66.8985 2.3555
" />
<path d="M66.8985 2.3555
L67.0194 2.4159
" />
<path d="M67.0194 2.4159
L67.0799 2.5369
" />
<path d="M67.0799 2.5369
L67.0799 2.6578
" />
<path d="M67.0799 2.6578
L66.4752 2.7788
" />
<path d="M67.6242 2.3555
L67.6242 3.2021
" />
<path d="M67.6242 2.4764
L67.6847 2.4159
" />
<path d="M67.6847 2.4159
L67.8057 2.3555
" />
<path d="M67.8057 2.3555
L67.9871 2.3555
" />
<path d="M67.9871 2.3555
L68.1080 2.4159
" />
<path d="M68.1080 2.4159
L68.1685 2.5369
" />
<path d="M68.1685 2.5369
L68.1685 3.2021
" />
<path d="M68.5918 2.3555
L69.0756 2.3555
" />
<path d="M68.7732 1.9321
L68.7732 3.0207
" />
<path d="M68.7732 3.0207
L68.8337 3.1417
" />
<path d="M68.8337 3.1417
L68.9547 3.2021
" />
<path d="M68.9547 3.2021
L69.0756 3.2021
" />
<path d="M69.4385 3.1417
L69.5594 3.2021
" />
<path d="M69.5594 3.2021
L69.8013 3.2021
" />
<path d="M69.8013 3.2021
L69.9223 3.1417
" />
<path d="M69.9223 3.1417
L69.9827 3.0207
" />
<path d="M69.9827 3.0207
L69.9827 2.9602
" />
<path d="M69.9827 2.9602
L69.9223 2.8393
" />
<path d="M69.9223 2.8393
L69.8013 2.7788
" />
<path d="M69.8013 2.7788
L69.6199 2.7788
" />
<path d="M69.6199 2.7788
L69.4989 2.7183
" />
<path d="M69.4989 2.7183
L69.4385 2.5974
" />
<path d="M69.4385 2.5974
L69.4385 2.5369
" />
<path d="M69.4385 2.5369
L69.4989 2.4159
" />
<path d="M69.4989 2.4159
L69.6199 2.3555
" />
<path d="M69.6199 2.3555
L69.8013 2.3555
" />
<path d="M69.8013 2.3555
L69.9223 2.4159
" />
<path d="M71.4342 1.8717
L70.3456 3.5045
" />
<path d="M72.4018 3.2021
L72.4018 1.9321
" />
<path d="M72.4018 3.1417
L72.2809 3.2021
" />
<path d="M72.2809 3.2021
L72.0390 3.2021
" />
<path d="M72.0390 3.2021
L71.9180 3.1417
" />
<path d="M71.9180 3.1417
L71.8575 3.0812
" />
<path d="M71.8575 3.0812
L71.7971 2.9602
" />
<path d="M71.7971 2.9602
L71.7971 2.5974
" />
<path d="M71.7971 2.5974
L71.8575 2.4764
" />
<path d="M71.8575 2.4764
L71.9180 2.4159
" />
<path d="M71.9180 2.4159
L72.0390 2.3555
" />
<path d="M72.0390 2.3555
L72.2809 2.3555
" />
<path d="M72.2809 2.3555
L72.4018 2.4159
" />
<path d="M73.1880 3.2021
L73.0670 3.1417
" />
<path d="M73.0670 3.1417
L73.0065 3.0812
" />
<path d="M73.0065 3.0812
L72.9461 2.9602
" />
<path d="M72.9461 2.9602
L72.9461 2.5974
" />
<path d="M72.9461 2.5974
L73.0065 2.4764
" />
<path d="M73.0065 2.4764
L73.0670 2.4159
" />
<path d="M73.0670 2.4159
L73.1880 2.3555
" />
<path d="M73.1880 2.3555
L73.3694 2.3555
" />
<path d="M73.3694 2.3555
L73.4903 2.4159
" />
<path d="M73.4903 2.4159
L73.5508 2.4764
" />
<path d="M73.5508 2.4764
L73.6113 2.5974
" />
<path d="M73.6113 2.5974
L73.6113 2.9602
" />
<path d="M73.6113 2.9602
L73.5508 3.0812
" />
<path d="M73.5508 3.0812
L73.4903 3.1417
" />
<path d="M73.4903 3.1417
L73.3694 3.2021
" />
<path d="M73.3694 3.2021
L73.1880 3.2021
" />
<path d="M74.6998 3.1417
L74.5789 3.2021
" />
<path d="M74.5789 3.2021
L74.3370 3.2021
" />
<path d="M74.3370 3.2021
L74.2160 3.1417
" />
<path d="M74.2160 3.1417
L74.1555 3.0812
" />
<path d="M74.1555 3.0812
L74.0951 2.9602
" />
<path d="M74.0951 2.9602
L74.0951 2.5974
" />
<path d="M74.0951 2.5974
L74.1555 2.4764
" />
<path d="M74.1555 2.4764
L74.2160 2.4159
" />
<path d="M74.2160 2.4159
L74.3370 2.3555
" />
<path d="M74.3370 2.3555
L74.5789 2.3555
" />
<path d="M74.5789 2.3555
L74.6998 2.4159
" />
<path d="M75.7884 2.3555
L75.7884 3.2021
" />
<path d="M75.2441 2.3555
L75.2441 3.0207
" />
<path d="M75.2441 3.0207
L75.3046 3.1417
" />
<path d="M75.3046 3.1417
L75.4256 3.2021
" />
<path d="M75.4256 3.2021
L75.6070 3.2021
" />
<path d="M75.6070 3.2021
L75.7279 3.1417
" />
<path d="M75.7279 3.1417
L75.7884 3.0812
" />
<path d="M76.3931 3.2021
L76.3931 2.3555
" />
<path d="M76.3931 2.4764
L76.4536 2.4159
" />
<path d="M76.4536 2.4159
L76.5746 2.3555
" />
<path d="M76.5746 2.3555
L76.7560 2.3555
" />
<path d="M76.7560 2.3555
L76.8769 2.4159
" />
<path d="M76.8769 2.4159
L76.9374 2.5369
" />
<path d="M76.9374 2.5369
L76.9374 3.2021
" />
<path d="M76.9374 2.5369
L76.9979 2.4159
" />
<path d="M76.9979 2.4159
L77.1188 2.3555
" />
<path d="M77.1188 2.3555
L77.3003 2.3555
" />
<path d="M77.3003 2.3555
L77.4212 2.4159
" />
<path d="M77.4212 2.4159
L77.4817 2.5369
" />
<path d="M77.4817 2.5369
L77.4817 3.2021
" />
<path d="M78.5702 3.1417
L78.4493 3.2021
" />
<path d="M78.4493 3.2021
L78.2074 3.2021
" />
<path d="M78.2074 3.2021
L78.0864 3.1417
" />
<path d="M78.0864 3.1417
L78.0260 3.0207
" />
<path d="M78.0260 3.0207
L78.0260 2.5369
" />
<path d="M78.0260 2.5369
L78.0864 2.4159
" />
<path d="M78.0864 2.4159
L78.2074 2.3555
" />
<path d="M78.2074 2.3555
L78.4493 2.3555
" />
<path d="M78.4493 2.3555
L78.5702 2.4159
" />
<path d="M78.5702 2.4159
L78.6307 2.5369
" />
<path d="M78.6307 2.5369
L78.6307 2.6578
" />
<path d="M78.6307 2.6578
L78.0260 2.7788
" />
<path d="M79.1750 2.3555
L79.1750 3.2021
" />
<path d="M79.1750 2.4764
L79.2355 2.4159
" />
<path d="M79.2355 2.4159
L79.3565 2.3555
" />
<path d="M79.3565 2.3555
L79.5379 2.3555
" />
<path d="M79.5379 2.3555
L79.6588 2.4159
" />
<path d="M79.6588 2.4159
L79.7193 2.5369
" />
<path d="M79.7193 2.5369
L79.7193 3.2021
" />
<path d="M80.1426 2.3555
L80.6264 2.3555
" />
<path d="M80.3240 1.9321
L80.3240 3.0207
" />
<path d="M80.3240 3.0207
L80.3845 3.1417
" />
<path d="M80.3845 3.1417
L80.5055 3.2021
" />
<path d="M80.5055 3.2021
L80.6264 3.2021
" />
<path d="M80.9893 3.1417
L81.1102 3.2021
" />
<path d="M81.1102 3.2021
L81.3521 3.2021
" />
<path d="M81.3521 3.2021
L81.4731 3.1417
" />
<path d="M81.4731 3.1417
L81.5335 3.0207
" />
<path d="M81.5335 3.0207
L81.5335 2.9602
" />
<path d="M81.5335 2.9602
L81.4731 2.8393
" />
<path d="M81.4731 2.8393
L81.3521 2.7788
" />
<path d="M81.3521 2.7788
L81.1707 2.7788
" />
<path d="M81.1707 2.7788
L81.0497 2.7183
" />
<path d="M81.0497 2.7183
L80.9893 2.5974
" />
<path d="M80.9893 2.5974
L80.9893 2.5369
" />
<path d="M80.9893 2.5369
L81.0497 2.4159
" />
<path d="M81.0497 2.4159
L81.1707 2.3555
" />
<path d="M81.1707 2.3555
L81.3521 2.3555
" />
<path d="M81.3521 2.3555
L81.4731 2.4159
" />
<path d="M82.9850 1.8717
L81.8964 3.5045
" />
<path d="M83.6502 1.9321
L83.8921 1.9321
" />
<path d="M83.8921 1.9321
L84.0131 1.9926
" />
<path d="M84.0131 1.9926
L84.1340 2.1136
" />
<path d="M84.1340 2.1136
L84.1945 2.3555
" />
<path d="M84.1945 2.3555
L84.1945 2.7788
" />
<path d="M84.1945 2.7788
L84.1340 3.0207
" />
<path d="M84.1340 3.0207
L84.0131 3.1417
" />
<path d="M84.0131 3.1417
L83.8921 3.2021
" />
<path d="M83.8921 3.2021
L83.6502 3.2021
" />
<path d="M83.6502 3.2021
L83.5293 3.1417
" />
<path d="M83.5293 3.1417
L83.4083 3.0207
" />
<path d="M83.4083 3.0207
L83.3479 2.7788
" />
<path d="M83.3479 2.7788
L83.3479 2.3555
" />
<path d="M83.3479 2.3555
L83.4083 2.1136
" />
<path d="M83.4083 2.1136
L83.5293 1.9926
" />
<path d="M83.5293 1.9926
L83.6502 1.9321
" />
<path d="M84.5574 1.9321
L85.2831 1.9321
" />
<path d="M84.9203 3.2021
L84.9203 1.9321
" />
<path d="M85.7064 3.2021
L85.7064 1.9321
" />
<path d="M85.7064 2.5369
L86.4321 2.5369
" />
<path d="M86.4321 3.2021
L86.4321 1.9321
" />
<path d="M87.9441 1.8717
L86.8555 3.5045
" />
<path d="M88.3674 3.2021
L88.3674 1.9321
" />
<path d="M88.3674 1.9321
L88.8512 1.9321
" />
<path d="M88.8512 1.9321
L88.9722 1.9926
" />
<path d="M88.9722 1.9926
L89.0327 2.0531
" />
<path d="M89.0327 2.0531
L89.0931 2.1740
" />
<path d="M89.0931 2.1740
L89.0931 2.3555
" />
<path d="M89.0931 2.3555
L89.0327 2.4764
" />
<path d="M89.0327 2.4764
L88.9722 2.5369
" />
<path d="M88.9722 2.5369
L88.8512 2.5974
" />
<path d="M88.8512 2.5974
L88.3674 2.5974
" />
<path d="M89.6374 3.2021
L89.6374 2.3555
" />
<path d="M89.6374 2.5974
L89.6979 2.4764
" />
<path d="M89.6979 2.4764
L89.7584 2.4159
" />
<path d="M89.7584 2.4159
L89.8793 2.3555
" />
<path d="M89.8793 2.3555
L90.0003 2.3555
" />
<path d="M90.6051 3.2021
L90.4841 3.1417
" />
<path d="M90.4841 3.1417
L90.4236 3.0812
" />
<path d="M90.4236 3.0812
L90.3632 2.9602
" />
<path d="M90.3632 2.9602
L90.3632 2.5974
" />
<path d="M90.3632 2.5974
L90.4236 2.4764
" />
<path d="M90.4236 2.4764
L90.4841 2.4159
" />
<path d="M90.4841 2.4159
L90.6051 2.3555
" />
<path d="M90.6051 2.3555
L90.7865 2.3555
" />
<path d="M90.7865 2.3555
L90.9074 2.4159
" />
<path d="M90.9074 2.4159
L90.9679 2.4764
" />
<path d="M90.9679 2.4764
L91.0284 2.5974
" />
<path d="M91.0284 2.5974
L91.0284 2.9602
" />
<path d="M91.0284 2.9602
L90.9679 3.0812
" />
<path d="M90.9679 3.0812
L90.9074 3.1417
" />
<path d="M90.9074 3.1417
L90.7865 3.2021
" />
<path d="M90.7865 3.2021
L90.6051 3.2021
" />
<path d="M92.1169 3.2021
L92.1169 1.9321
" />
<path d="M92.1169 3.1417
L91.9960 3.2021
" />
<path d="M91.9960 3.2021
L91.7541 3.2021
" />
<path d="M91.7541 3.2021
L91.6331 3.1417
" />
<path d="M91.6331 3.1417
L91.5726 3.0812
" />
<path d="M91.5726 3.0812
L91.5122 2.9602
" />
<path d="M91.5122 2.9602
L91.5122 2.5974
" />
<path d="M91.5122 2.5974
L91.5726 2.4764
" />
<path d="M91.5726 2.4764
L91.6331 2.4159
" />
<path d="M91.6331 2.4159
L91.7541 2.3555
" />
<path d="M91.7541 2.3555
L91.9960 2.3555
" />
<path d="M91.9960 2.3555
L92.1169 2.4159
" />
<path d="M93.2659 2.3555
L93.2659 3.2021
" />
<path d="M92.7216 2.3555
L92.7216 3.0207
" />
<path d="M92.7216 3.0207
L92.7821 3.1417
" />
<path d="M92.7821 3.1417
L92.9031 3.2021
" />
<path d="M92.9031 3.2021
L93.0845 3.2021
" />
<path d="M93.0845 3.2021
L93.2054 3.1417
" />
<path d="M93.2054 3.1417
L93.2659 3.0812
" />
<path d="M94.4149 3.1417
L94.2940 3.2021
" />
<path d="M94.2940 3.2021
L94.0521 3.2021
" />
<path d="M94.0521 3.2021
L93.9311 3.1417
" />
<path d="M93.9311 3.1417
L93.8706 3.0812
" />
<path d="M93.8706 3.0812
L93.8102 2.9602
" />
<path d="M93.8102 2.9602
L93.8102 2.5974
" />
<path d="M93.8102 2.5974
L93.8706 2.4764
" />
<path d="M93.8706 2.4764
L93.9311 2.4159
" />
<path d="M93.9311 2.4159
L94.0521 2.3555
" />
<path d="M94.0521 2.3555
L94.2940 2.3555
" />
<path d="M94.2940 2.3555
L94.4149 2.4159
" />
<path d="M94.7778 2.3555
L95.2616 2.3555
" />
<path d="M94.9592 1.9321
L94.9592 3.0207
" />
<path d="M94.9592 3.0207
L95.0197 3.1417
" />
<path d="M95.0197 3.1417
L95.1407 3.2021
" />
<path d="M95.1407 3.2021
L95.2616 3.2021
" />
<path d="M95.6849 3.2021
L95.6849 1.9321
" />
<path d="M95.6849 1.9321
L95.9873 1.9321
" />
<path d="M95.9873 1.9321
L96.1687 1.9926
" />
<path d="M96.1687 1.9926
L96.2897 2.1136
" />
<path d="M96.2897 2.1136
L96.3502 2.2345
" />
<path d="M96.3502 2.2345
L96.4106 2.4764
" />
<path d="M96.4106 2.4764
L96.4106 2.6578
" />
<path d="M96.4106 2.6578
L96.3502 2.8997
" />
<path d="M96.3502 2.8997
L96.2897 3.0207
" />
<path d="M96.2897 3.0207
L96.1687 3.1417
" />
<path d="M96.1687 3.1417
L95.9873 3.2021
" />
<path d="M95.9873 3.2021
L95.6849 3.2021
" />
<path d="M97.1364 3.2021
L97.0154 3.1417
" />
<path d="M97.0154 3.1417
L96.9549 3.0812
" />
<path d="M96.9549 3.0812
L96.8945 2.9602
" />
<path d="M96.8945 2.9602
L96.8945 2.5974
" />
<path d="M96.8945 2.5974
L96.9549 2.4764
" />
<path d="M96.9549 2.4764
L97.0154 2.4159
" />
<path d="M97.0154 2.4159
L97.1364 2.3555
" />
<path d="M97.1364 2.3555
L97.3178 2.3555
" />
<path d="M97.3178 2.3555
L97.4387 2.4159
" />
<path d="M97.4387 2.4159
L97.4992 2.4764
" />
<path d="M97.4992 2.4764
L97.5597 2.5974
" />
<path d="M97.5597 2.5974
L97.5597 2.9602
" />
<path d="M97.5597 2.9602
L97.4992 3.0812
" />
<path d="M97.4992 3.0812
L97.4387 3.1417
" />
<path d="M97.4387 3.1417
L97.3178 3.2021
" />
<path d="M97.3178 3.2021
L97.1364 3.2021
" />
<path d="M98.6482 3.1417
L98.5273 3.2021
" />
<path d="M98.5273 3.2021
L98.2854 3.2021
" />
<path d="M98.2854 3.2021
L98.1644 3.1417
" />
<path d="M98.1644 3.1417
L98.1039 3.0812
" />
<path d="M98.1039 3.0812
L98.0435 2.9602
" />
<path d="M98.0435 2.9602
L98.0435 2.5974
" />
<path d="M98.0435 2.5974
L98.1039 2.4764
" />
<path d="M98.1039 2.4764
L98.1644 2.4159
" />
<path d="M98.1644 2.4159
L98.2854 2.3555
" />
<path d="M98.2854 2.3555
L98.5273 2.3555
" />
<path d="M98.5273 2.3555
L98.6482 2.4159
" />
<path d="M99.7368 2.3555
L99.7368 3.2021
" />
<path d="M99.1925 2.3555
L99.1925 3.0207
" />
<path d="M99.1925 3.0207
L99.2530 3.1417
" />
<path d="M99.2530 3.1417
L99.3740 3.2021
" />
<path d="M99.3740 3.2021
L99.5554 3.2021
" />
<path d="M99.5554 3.2021
L99.6763 3.1417
" />
<path d="M99.6763 3.1417
L99.7368 3.0812
" />
<path d="M100.3415 3.2021
L100.3415 2.3555
" />
<path d="M100.3415 2.4764
L100.4020 2.4159
" />
<path d="M100.4020 2.4159
L100.5230 2.3555
" />
<path d="M100.5230 2.3555
L100.7044 2.3555
" />
<path d="M100.7044 2.3555
L100.8253 2.4159
" />
<path d="M100.8253 2.4159
L100.8858 2.5369
" />
<path d="M100.8858 2.5369
L100.8858 3.2021
" />
<path d="M100.8858 2.5369
L100.9463 2.4159
" />
<path d="M100.9463 2.4159
L101.0672 2.3555
" />
<path d="M101.0672 2.3555
L101.2487 2.3555
" />
<path d="M101.2487 2.3555
L101.3696 2.4159
" />
<path d="M101.3696 2.4159
L101.4301 2.5369
" />
<path d="M101.4301 2.5369
L101.4301 3.2021
" />
<path d="M102.5186 3.1417
L102.3977 3.2021
" />
<path d="M102.3977 3.2021
L102.1558 3.2021
" />
<path d="M102.1558 3.2021
L102.0348 3.1417
" />
<path d="M102.0348 3.1417
L101.9744 3.0207
" />
<path d="M101.9744 3.0207
L101.9744 2.5369
" />
<path d="M101.9744 2.5369
L102.0348 2.4159
" />
<path d="M102.0348 2.4159
L102.1558 2.3555
" />
<path d="M102.1558 2.3555
L102.3977 2.3555
" />
<path d="M102.3977 2.3555
L102.5186 2.4159
" />
<path d="M102.5186 2.4159
L102.5791 2.5369
" />
<path d="M102.5791 2.5369
L102.5791 2.6578
" />
<path d="M102.5791 2.6578
L101.9744 2.7788
" />
<path d="M103.1234 2.3555
L103.1234 3.2021
" />
<path d="M103.1234 2.4764
L103.1839 2.4159
" />
<path d="M103.1839 2.4159
L103.3049 2.3555
" />
<path d="M103.3049 2.3555
L103.4863 2.3555
" />
<path d="M103.4863 2.3555
L103.6072 2.4159
" />
<path d="M103.6072 2.4159
L103.6677 2.5369
" />
<path d="M103.6677 2.5369
L103.6677 3.2021
" />
<path d="M104.0910 2.3555
L104.5748 2.3555
" />
<path d="M104.2724 1.9321
L104.2724 3.0207
" />
<path d="M104.2724 3.0207
L104.3329 3.1417
" />
<path d="M104.3329 3.1417
L104.4539 3.2021
" />
<path d="M104.4539 3.2021
L104.5748 3.2021
" />
<path d="M104.9377 3.1417
L105.0586 3.2021
" />
<path d="M105.0586 3.2021
L105.3005 3.2021
" />
<path d="M105.3005 3.2021
L105.4215 3.1417
" />
<path d="M105.4215 3.1417
L105.4819 3.0207
" />
<path d="M105.4819 3.0207
L105.4819 2.9602
" />
<path d="M105.4819 2.9602
L105.4215 2.8393
" />
<path d="M105.4215 2.8393
L105.3005 2.7788
" />
<path d="M105.3005 2.7788
L105.1191 2.7788
" />
<path d="M105.1191 2.7788
L104.9981 2.7183
" />
<path d="M104.9981 2.7183
L104.9377 2.5974
" />
<path d="M104.9377 2.5974
L104.9377 2.5369
" />
<path d="M104.9377 2.5369
L104.9981 2.4159
" />
<path d="M104.9981 2.4159
L105.1191 2.3555
" />
<path d="M105.1191 2.3555
L105.3005 2.3555
" />
<path d="M105.3005 2.3555
L105.4215 2.4159
" />
<path d="M106.9334 1.8717
L105.8448 3.5045
" />
<path d="M107.3567 3.2021
L107.3567 1.9321
" />
<path d="M107.3567 1.9321
L107.6591 1.9321
" />
<path d="M107.6591 1.9321
L107.8405 1.9926
" />
<path d="M107.8405 1.9926
L107.9615 2.1136
" />
<path d="M107.9615 2.1136
L108.0220 2.2345
" />
<path d="M108.0220 2.2345
L108.0824 2.4764
" />
<path d="M108.0824 2.4764
L108.0824 2.6578
" />
<path d="M108.0824 2.6578
L108.0220 2.8997
" />
<path d="M108.0220 2.8997
L107.9615 3.0207
" />
<path d="M107.9615 3.0207
L107.8405 3.1417
" />
<path d="M107.8405 3.1417
L107.6591 3.2021
" />
<path d="M107.6591 3.2021
L107.3567 3.2021
" />
<path d="M109.1710 3.2021
L109.1710 2.5369
" />
<path d="M109.1710 2.5369
L109.1105 2.4159
" />
<path d="M109.1105 2.4159
L108.9896 2.3555
" />
<path d="M108.9896 2.3555
L108.7477 2.3555
" />
<path d="M108.7477 2.3555
L108.6267 2.4159
" />
<path d="M109.1710 3.1417
L109.0501 3.2021
" />
<path d="M109.0501 3.2021
L108.7477 3.2021
" />
<path d="M108.7477 3.2021
L108.6267 3.1417
" />
<path d="M108.6267 3.1417
L108.5663 3.0207
" />
<path d="M108.5663 3.0207
L108.5663 2.8997
" />
<path d="M108.5663 2.8997
L108.6267 2.7788
" />
<path d="M108.6267 2.7788
L108.7477 2.7183
" />
<path d="M108.7477 2.7183
L109.0501 2.7183
" />
<path d="M109.0501 2.7183
L109.1710 2.6578
" />
<path d="M109.5943 2.3555
L110.0781 2.3555
" />
<path d="M109.7757 1.9321
L109.7757 3.0207
" />
<path d="M109.7757 3.0207
L109.8362 3.1417
" />
<path d="M109.8362 3.1417
L109.9572 3.2021
" />
<path d="M109.9572 3.2021
L110.0781 3.2021
" />
<path d="M111.0457 3.2021
L111.0457 2.5369
" />
<path d="M111.0457 2.5369
L110.9852 2.4159
" />
<path d="M110.9852 2.4159
L110.8643 2.3555
" />
<path d="M110.8643 2.3555
L110.6224 2.3555
" />
<path d="M110.6224 2.3555
L110.5014 2.4159
" />
<path d="M111.0457 3.1417
L110.9248 3.2021
" />
<path d="M110.9248 3.2021
L110.6224 3.2021
" />
<path d="M110.6224 3.2021
L110.5014 3.1417
" />
<path d="M110.5014 3.1417
L110.4410 3.0207
" />
<path d="M110.4410 3.0207
L110.4410 2.8997
" />
<path d="M110.4410 2.8997
L110.5014 2.7788
" />
<path d="M110.5014 2.7788
L110.6224 2.7183
" />
<path d="M110.6224 2.7183
L110.9248 2.7183
" />
<path d="M110.9248 2.7183
L111.0457 2.6578
" />
<path d="M111.5900 3.1417
L111.7714 3.2021
" />
<path d="M111.7714 3.2021
L112.0738 3.2021
" />
<path d="M112.0738 3.2021
L112.1947 3.1417
" />
<path d="M112.1947 3.1417
L112.2552 3.0812
" />
<path d="M112.2552 3.0812
L112.3157 2.9602
" />
<path d="M112.3157 2.9602
L112.3157 2.8393
" />
<path d="M112.3157 2.8393
L112.2552 2.7183
" />
<path d="M112.2552 2.7183
L112.1947 2.6578
" />
<path d="M112.1947 2.6578
L112.0738 2.5974
" />
<path d="M112.0738 2.5974
L111.8319 2.5369
" />
<path d="M111.8319 2.5369
L111.7109 2.4764
" />
<path d="M111.7109 2.4764
L111.6504 2.4159
" />
<path d="M111.6504 2.4159
L111.5900 2.2950
" />
<path d="M111.5900 2.2950
L111.5900 2.1740
" />
<path d="M111.5900 2.1740
L111.6504 2.0531
" />
<path d="M111.6504 2.0531
L111.7109 1.9926
" />
<path d="M111.7109 1.9926
L111.8319 1.9321
" />
<path d="M111.8319 1.9321
L112.1342 1.9321
" />
<path d="M112.1342 1.9321
L112.3157 1.9926
" />
<path d="M112.8599 3.2021
L112.8599 1.9321
" />
<path d="M113.4042 3.2021
L113.4042 2.5369
" />
<path d="M113.4042 2.5369
L113.3437 2.4159
" />
<path d="M113.3437 2.4159
L113.2228 2.3555
" />
<path d="M113.2228 2.3555
L113.0414 2.3555
" />
<path d="M113.0414 2.3555
L112.9204 2.4159
" />
<path d="M112.9204 2.4159
L112.8599 2.4764
" />
<path d="M114.4927 3.1417
L114.3718 3.2021
" />
<path d="M114.3718 3.2021
L114.1299 3.2021
" />
<path d="M114.1299 3.2021
L114.0089 3.1417
" />
<path d="M114.0089 3.1417
L113.9485 3.0207
" />
<path d="M113.9485 3.0207
L113.9485 2.5369
" />
<path d="M113.9485 2.5369
L114.0089 2.4159
" />
<path d="M114.0089 2.4159
L114.1299 2.3555
" />
<path d="M114.1299 2.3555
L114.3718 2.3555
" />
<path d="M114.3718 2.3555
L114.4927 2.4159
" />
<path d="M114.4927 2.4159
L114.5532 2.5369
" />
<path d="M114.5532 2.5369
L114.5532 2.6578
" />
<path d="M114.5532 2.6578
L113.9485 2.7788
" />
<path d="M115.5813 3.1417
L115.4604 3.2021
" />
<path d="M115.4604 3.2021
L115.2185 3.2021
" />
<path d="M115.2185 3.2021
L115.0975 3.1417
" />
<path d="M115.0975 3.1417
L115.0371 3.0207
" />
<path d="M115.0371 3.0207
L115.0371 2.5369
" />
<path d="M115.0371 2.5369
L115.0975 2.4159
" />
<path d="M115.0975 2.4159
L115.2185 2.3555
" />
<path d="M115.2185 2.3555
L115.4604 2.3555
" />
<path d="M115.4604 2.3555
L115.5813 2.4159
" />
<path d="M115.5813 2.4159
L115.6418 2.5369
" />
<path d="M115.6418 2.5369
L115.6418 2.6578
" />
<path d="M115.6418 2.6578
L115.0371 2.7788
" />
<path d="M116.0047 2.3555
L116.4885 2.3555
" />
<path d="M116.1861 1.9321
L116.1861 3.0207
" />
<path d="M116.1861 3.0207
L116.2466 3.1417
" />
<path d="M116.2466 3.1417
L116.3676 3.2021
" />
<path d="M116.3676 3.2021
L116.4885 3.2021
" />
<path d="M116.8514 3.1417
L116.9723 3.2021
" />
<path d="M116.9723 3.2021
L117.2142 3.2021
" />
<path d="M117.2142 3.2021
L117.3352 3.1417
" />
<path d="M117.3352 3.1417
L117.3956 3.0207
" />
<path d="M117.3956 3.0207
L117.3956 2.9602
" />
<path d="M117.3956 2.9602
L117.3352 2.8393
" />
<path d="M117.3352 2.8393
L117.2142 2.7788
" />
<path d="M117.2142 2.7788
L117.0328 2.7788
" />
<path d="M117.0328 2.7788
L116.9118 2.7183
" />
<path d="M116.9118 2.7183
L116.8514 2.5974
" />
<path d="M116.8514 2.5974
L116.8514 2.5369
" />
<path d="M116.8514 2.5369
L116.9118 2.4159
" />
<path d="M116.9118 2.4159
L117.0328 2.3555
" />
<path d="M117.0328 2.3555
L117.2142 2.3555
" />
<path d="M117.2142 2.3555
L117.3352 2.4159
" />
<path d="M118.8471 1.8717
L117.7585 3.5045
" />
<path d="M119.2704 3.2021
L119.2704 1.9321
" />
<path d="M119.2704 1.9321
L119.6938 2.8393
" />
<path d="M119.6938 2.8393
L120.1171 1.9321
" />
<path d="M120.1171 1.9321
L120.1171 3.2021
" />
<path d="M120.7218 3.2021
L120.7218 1.9321
" />
<path d="M122.0523 3.0812
L121.9919 3.1417
" />
<path d="M121.9919 3.1417
L121.8104 3.2021
" />
<path d="M121.8104 3.2021
L121.6895 3.2021
" />
<path d="M121.6895 3.2021
L121.5081 3.1417
" />
<path d="M121.5081 3.1417
L121.3871 3.0207
" />
<path d="M121.3871 3.0207
L121.3266 2.8997
" />
<path d="M121.3266 2.8997
L121.2662 2.6578
" />
<path d="M121.2662 2.6578
L121.2662 2.4764
" />
<path d="M121.2662 2.4764
L121.3266 2.2345
" />
<path d="M121.3266 2.2345
L121.3871 2.1136
" />
<path d="M121.3871 2.1136
L121.5081 1.9926
" />
<path d="M121.5081 1.9926
L121.6895 1.9321
" />
<path d="M121.6895 1.9321
L121.8104 1.9321
" />
<path d="M121.8104 1.9321
L121.9919 1.9926
" />
<path d="M121.9919 1.9926
L122.0523 2.0531
" />
<path d="M123.2014 1.9321
L122.5966 1.9321
" />
<path d="M122.5966 1.9321
L122.5362 2.5369
" />
<path d="M122.5362 2.5369
L122.5966 2.4764
" />
<path d="M122.5966 2.4764
L122.7176 2.4159
" />
<path d="M122.7176 2.4159
L123.0200 2.4159
" />
<path d="M123.0200 2.4159
L123.1409 2.4764
" />
<path d="M123.1409 2.4764
L123.2014 2.5369
" />
<path d="M123.2014 2.5369
L123.2619 2.6578
" />
<path d="M123.2619 2.6578
L123.2619 2.9602
" />
<path d="M123.2619 2.9602
L123.2014 3.0812
" />
<path d="M123.2014 3.0812
L123.1409 3.1417
" />
<path d="M123.1409 3.1417
L123.0200 3.2021
" />
<path d="M123.0200 3.2021
L122.7176 3.2021
" />
<path d="M122.7176 3.2021
L122.5966 3.1417
" />
<path d="M122.5966 3.1417
L122.5362 3.0812
" />
<path d="M123.6852 1.9321
L124.4714 1.9321
" />
<path d="M124.4714 1.9321
L124.0480 2.4159
" />
<path d="M124.0480 2.4159
L124.2295 2.4159
" />
<path d="M124.2295 2.4159
L124.3504 2.4764
" />
<path d="M124.3504 2.4764
L124.4109 2.5369
" />
<path d="M124.4109 2.5369
L124.4714 2.6578
" />
<path d="M124.4714 2.6578
L124.4714 2.9602
" />
<path d="M124.4714 2.9602
L124.4109 3.0812
" />
<path d="M124.4109 3.0812
L124.3504 3.1417
" />
<path d="M124.3504 3.1417
L124.2295 3.2021
" />
<path d="M124.2295 3.2021
L123.8666 3.2021
" />
<path d="M123.8666 3.2021
L123.7457 3.1417
" />
<path d="M123.7457 3.1417
L123.6852 3.0812
" />
<path d="M125.6809 3.2021
L124.9552 3.2021
" />
<path d="M125.3180 3.2021
L125.3180 1.9321
" />
<path d="M125.3180 1.9321
L125.1971 2.1136
" />
<path d="M125.1971 2.1136
L125.0761 2.2345
" />
<path d="M125.0761 2.2345
L124.9552 2.2950
" />
<path d="M126.1042 1.9321
L126.9508 1.9321
" />
<path d="M126.9508 1.9321
L126.4066 3.2021
" />
<path d="M127.4346 2.7183
L128.4023 2.7183
" />
<path d="M129.0070 3.2021
L129.0070 1.9321
" />
<path d="M129.0070 2.5369
L129.7327 2.5369
" />
<path d="M129.7327 3.2021
L129.7327 1.9321
" />
<path d="M130.3375 3.2021
L130.3375 2.3555
" />
<path d="M130.3375 1.9321
L130.2771 1.9926
" />
<path d="M130.2771 1.9926
L130.3375 2.0531
" />
<path d="M130.3375 2.0531
L130.3980 1.9926
" />
<path d="M130.3980 1.9926
L130.3375 1.9321
" />
<path d="M130.3375 1.9321
L130.3375 2.0531
" />
<path d="M131.4866 2.3555
L131.4866 3.3836
" />
<path d="M131.4866 3.3836
L131.4261 3.5045
" />
<path d="M131.4261 3.5045
L131.3657 3.5650
" />
<path d="M131.3657 3.5650
L131.2447 3.6255
" />
<path d="M131.2447 3.6255
L131.0633 3.6255
" />
<path d="M131.0633 3.6255
L130.9423 3.5650
" />
<path d="M131.4866 3.1417
L131.3657 3.2021
" />
<path d="M131.3657 3.2021
L131.1238 3.2021
" />
<path d="M131.1238 3.2021
L131.0028 3.1417
" />
<path d="M131.0028 3.1417
L130.9423 3.0812
" />
<path d="M130.9423 3.0812
L130.8819 2.9602
" />
<path d="M130.8819 2.9602
L130.8819 2.5974
" />
<path d="M130.8819 2.5974
L130.9423 2.4764
" />
<path d="M130.9423 2.4764
L131.0028 2.4159
" />
<path d="M131.0028 2.4159
L131.1238 2.3555
" />
<path d="M131.1238 2.3555
L131.3657 2.3555
" />
<path d="M131.3657 2.3555
L131.4866 2.4159
" />
<path d="M132.0913 3.2021
L132.0913 1.9321
" />
<path d="M132.6356 3.2021
L132.6356 2.5369
" />
<path d="M132.6356 2.5369
L132.5751 2.4159
" />
<path d="M132.5751 2.4159
L132.4542 2.3555
" />
<path d="M132.4542 2.3555
L132.2728 2.3555
" />
<path d="M132.2728 2.3555
L132.1518 2.4159
" />
<path d="M132.1518 2.4159
L132.0913 2.4764
" />
<path d="M133.2403 2.7183
L134.2080 2.7183
" />
<path d="M134.8127 3.2021
L134.8127 1.9321
" />
<path d="M134.8127 1.9321
L135.2965 1.9321
" />
<path d="M135.2965 1.9321
L135.4175 1.9926
" />
<path d="M135.4175 1.9926
L135.4780 2.0531
" />
<path d="M135.4780 2.0531
L135.5384 2.1740
" />
<path d="M135.5384 2.1740
L135.5384 2.3555
" />
<path d="M135.5384 2.3555
L135.4780 2.4764
" />
<path d="M135.4780 2.4764
L135.4175 2.5369
" />
<path d="M135.4175 2.5369
L135.2965 2.5974
" />
<path d="M135.2965 2.5974
L134.8127 2.5974
" />
<path d="M136.5665 3.1417
L136.4456 3.2021
" />
<path d="M136.4456 3.2021
L136.2037 3.2021
" />
<path d="M136.2037 3.2021
L136.0827 3.1417
" />
<path d="M136.0827 3.1417
L136.0223 3.0207
" />
<path d="M136.0223 3.0207
L136.0223 2.5369
" />
<path d="M136.0223 2.5369
L136.0827 2.4159
" />
<path d="M136.0827 2.4159
L136.2037 2.3555
" />
<path d="M136.2037 2.3555
L136.4456 2.3555
" />
<path d="M136.4456 2.3555
L136.5665 2.4159
" />
<path d="M136.5665 2.4159
L136.6270 2.5369
" />
<path d="M136.6270 2.5369
L136.6270 2.6578
" />
<path d="M136.6270 2.6578
L136.0223 2.7788
" />
<path d="M137.1713 3.2021
L137.1713 2.3555
" />
<path d="M137.1713 2.5974
L137.2318 2.4764
" />
<path d="M137.2318 2.4764
L137.2923 2.4159
" />
<path d="M137.2923 2.4159
L137.4132 2.3555
" />
<path d="M137.4132 2.3555
L137.5342 2.3555
" />
<path d="M137.7761 2.3555
L138.2599 2.3555
" />
<path d="M137.9575 3.2021
L137.9575 2.1136
" />
<path d="M137.9575 2.1136
L138.0180 1.9926
" />
<path d="M138.0180 1.9926
L138.1390 1.9321
" />
<path d="M138.1390 1.9321
L138.2599 1.9321
" />
<path d="M138.8647 3.2021
L138.7437 3.1417
" />
<path d="M138.7437 3.1417
L138.6832 3.0812
" />
<path d="M138.6832 3.0812
L138.6228 2.9602
" />
<path d="M138.6228 2.9602
L138.6228 2.5974
" />
<path d="M138.6228 2.5974
L138.6832 2.4764
" />
<path d="M138.6832 2.4764
L138.7437 2.4159
" />
<path d="M138.7437 2.4159
L138.8647 2.3555
" />
<path d="M138.8647 2.3555
L139.0461 2.3555
" />
<path d="M139.0461 2.3555
L139.1670 2.4159
" />
<path d="M139.1670 2.4159
L139.2275 2.4764
" />
<path d="M139.2275 2.4764
L139.2880 2.5974
" />
<path d="M139.2880 2.5974
L139.2880 2.9602
" />
<path d="M139.2880 2.9602
L139.2275 3.0812
" />
<path d="M139.2275 3.0812
L139.1670 3.1417
" />
<path d="M139.1670 3.1417
L139.0461 3.2021
" />
<path d="M139.0461 3.2021
L138.8647 3.2021
" />
<path d="M139.8322 3.2021
L139.8322 2.3555
" />
<path d="M139.8322 2.5974
L139.8927 2.4764
" />
<path d="M139.8927 2.4764
L139.9532 2.4159
" />
<path d="M139.9532 2.4159
L140.0741 2.3555
" />
<path d="M140.0741 2.3555
L140.1951 2.3555
" />
<path d="M140.6184 3.2021
L140.6184 2.3555
" />
<path d="M140.6184 2.4764
L140.6789 2.4159
" />
<path d="M140.6789 2.4159
L140.7999 2.3555
" />
<path d="M140.7999 2.3555
L140.9813 2.3555
" />
<path d="M140.9813 2.3555
L141.1022 2.4159
" />
<path d="M141.1022 2.4159
L141.1627 2.5369
" />
<path d="M141.1627 2.5369
L141.1627 3.2021
" />
<path d="M141.1627 2.5369
L141.2232 2.4159
" />
<path d="M141.2232 2.4159
L141.3441 2.3555
" />
<path d="M141.3441 2.3555
L141.5256 2.3555
" />
<path d="M141.5256 2.3555
L141.6465 2.4159
" />
<path d="M141.6465 2.4159
L141.7070 2.5369
" />
<path d="M141.7070 2.5369
L141.7070 3.2021
" />
<path d="M142.8560 3.2021
L142.8560 2.5369
" />
<path d="M142.8560 2.5369
L142.7955 2.4159
" />
<path d="M142.7955 2.4159
L142.6746 2.3555
" />
<path d="M142.6746 2.3555
L142.4327 2.3555
" />
<path d="M142.4327 2.3555
L142.3117 2.4159
" />
<path d="M142.8560 3.1417
L142.7351 3.2021
" />
<path d="M142.7351 3.2021
L142.4327 3.2021
" />
<path d="M142.4327 3.2021
L142.3117 3.1417
" />
<path d="M142.3117 3.1417
L142.2513 3.0207
" />
<path d="M142.2513 3.0207
L142.2513 2.8997
" />
<path d="M142.2513 2.8997
L142.3117 2.7788
" />
<path d="M142.3117 2.7788
L142.4327 2.7183
" />
<path d="M142.4327 2.7183
L142.7351 2.7183
" />
<path d="M142.7351 2.7183
L142.8560 2.6578
" />
<path d="M143.4607 2.3555
L143.4607 3.2021
" />
<path d="M143.4607 2.4764
L143.5212 2.4159
" />
<path d="M143.5212 2.4159
L143.6422 2.3555
" />
<path d="M143.6422 2.3555
L143.8236 2.3555
" />
<path d="M143.8236 2.3555
L143.9445 2.4159
" />
<path d="M143.9445 2.4159
L144.0050 2.5369
" />
<path d="M144.0050 2.5369
L144.0050 3.2021
" />
<path d="M145.1540 3.1417
L145.0331 3.2021
" />
<path d="M145.0331 3.2021
L144.7912 3.2021
" />
<path d="M144.7912 3.2021
L144.6702 3.1417
" />
<path d="M144.6702 3.1417
L144.6097 3.0812
" />
<path d="M144.6097 3.0812
L144.5493 2.9602
" />
<path d="M144.5493 2.9602
L144.5493 2.5974
" />
<path d="M144.5493 2.5974
L144.6097 2.4764
" />
<path d="M144.6097 2.4764
L144.6702 2.4159
" />
<path d="M144.6702 2.4159
L144.7912 2.3555
" />
<path d="M144.7912 2.3555
L145.0331 2.3555
" />
<path d="M145.0331 2.3555
L145.1540 2.4159
" />
<path d="M146.1821 3.1417
L146.0612 3.2021
" />
<path d="M146.0612 3.2021
L145.8193 3.2021
" />
<path d="M145.8193 3.2021
L145.6983 3.1417
" />
<path d="M145.6983 3.1417
L145.6379 3.0207
" />
<path d="M145.6379 3.0207
L145.6379 2.5369
" />
<path d="M145.6379 2.5369
L145.6983 2.4159
" />
<path d="M145.6983 2.4159
L145.8193 2.3555
" />
<path d="M145.8193 2.3555
L146.0612 2.3555
" />
<path d="M146.0612 2.3555
L146.1821 2.4159
" />
<path d="M146.1821 2.4159
L146.2426 2.5369
" />
<path d="M146.2426 2.5369
L146.2426 2.6578
" />
<path d="M146.2426 2.6578
L145.6379 2.7788
" />
<path d="M146.7869 2.7183
L147.7546 2.7183
" />
<path d="M148.2989 3.1417
L148.4803 3.2021
" />
<path d="M148.4803 3.2021
L148.7827 3.2021
" />
<path d="M148.7827 3.2021
L148.9036 3.1417
" />
<path d="M148.9036 3.1417
L148.9641 3.0812
" />
<path d="M148.9641 3.0812
L149.0246 2.9602
" />
<path d="M149.0246 2.9602
L149.0246 2.8393
" />
<path d="M149.0246 2.8393
L148.9641 2.7183
" />
<path d="M148.9641 2.7183
L148.9036 2.6578
" />
<path d="M148.9036 2.6578
L148.7827 2.5974
" />
<path d="M148.7827 2.5974
L148.5408 2.5369
" />
<path d="M148.5408 2.5369
L148.4198 2.4764
" />
<path d="M148.4198 2.4764
L148.3593 2.4159
" />
<path d="M148.3593 2.4159
L148.2989 2.2950
" />
<path d="M148.2989 2.2950
L148.2989 2.1740
" />
<path d="M148.2989 2.1740
L148.3593 2.0531
" />
<path d="M148.3593 2.0531
L148.4198 1.9926
" />
<path d="M148.4198 1.9926
L148.5408 1.9321
" />
<path d="M148.5408 1.9321
L148.8431 1.9321
" />
<path d="M148.8431 1.9321
L149.0246 1.9926
" />
<path d="M149.5688 3.2021
L149.5688 2.3555
" />
<path d="M149.5688 1.9321
L149.5084 1.9926
" />
<path d="M149.5084 1.9926
L149.5688 2.0531
" />
<path d="M149.5688 2.0531
L149.6293 1.9926
" />
<path d="M149.6293 1.9926
L149.5688 1.9321
" />
<path d="M149.5688 1.9321
L149.5688 2.0531
" />
<path d="M150.1736 2.3555
L150.1736 3.2021
" />
<path d="M150.1736 2.4764
L150.2341 2.4159
" />
<path d="M150.2341 2.4159
L150.3551 2.3555
" />
<path d="M150.3551 2.3555
L150.5365 2.3555
" />
<path d="M150.5365 2.3555
L150.6574 2.4159
" />
<path d="M150.6574 2.4159
L150.7179 2.5369
" />
<path d="M150.7179 2.5369
L150.7179 3.2021
" />
<path d="M151.8669 2.3555
L151.8669 3.3836
" />
<path d="M151.8669 3.3836
L151.8064 3.5045
" />
<path d="M151.8064 3.5045
L151.7460 3.5650
" />
<path d="M151.7460 3.5650
L151.6250 3.6255
" />
<path d="M151.6250 3.6255
L151.4436 3.6255
" />
<path d="M151.4436 3.6255
L151.3226 3.5650
" />
<path d="M151.8669 3.1417
L151.7460 3.2021
" />
<path d="M151.7460 3.2021
L151.5041 3.2021
" />
<path d="M151.5041 3.2021
L151.3831 3.1417
" />
<path d="M151.3831 3.1417
L151.3226 3.0812
" />
<path d="M151.3226 3.0812
L151.2622 2.9602
" />
<path d="M151.2622 2.9602
L151.2622 2.5974
" />
<path d="M151.2622 2.5974
L151.3226 2.4764
" />
<path d="M151.3226 2.4764
L151.3831 2.4159
" />
<path d="M151.3831 2.4159
L151.5041 2.3555
" />
<path d="M151.5041 2.3555
L151.7460 2.3555
" />
<path d="M151.7460 2.3555
L151.8669 2.4159
" />
<path d="M152.6531 3.2021
L152.5321 3.1417
" />
<path d="M152.5321 3.1417
L152.4716 3.0207
" />
<path d="M152.4716 3.0207
L152.4716 1.9321
" />
<path d="M153.6206 3.1417
L153.4997 3.2021
" />
<path d="M153.4997 3.2021
L153.2578 3.2021
" />
<path d="M153.2578 3.2021
L153.1368 3.1417
" />
<path d="M153.1368 3.1417
L153.0764 3.0207
" />
<path d="M153.0764 3.0207
L153.0764 2.5369
" />
<path d="M153.0764 2.5369
L153.1368 2.4159
" />
<path d="M153.1368 2.4159
L153.2578 2.3555
" />
<path d="M153.2578 2.3555
L153.4997 2.3555
" />
<path d="M153.4997 2.3555
L153.6206 2.4159
" />
<path d="M153.6206 2.4159
L153.6811 2.5369
" />
<path d="M153.6811 2.5369
L153.6811 2.6578
" />
<path d="M153.6811 2.6578
L153.0764 2.7788
" />
<path d="M154.2254 2.7183
L155.1931 2.7183
" />
<path d="M156.4631 3.2021
L155.7374 3.2021
" />
<path d="M156.1002 3.2021
L156.1002 1.9321
" />
<path d="M156.1002 1.9321
L155.9793 2.1136
" />
<path d="M155.9793 2.1136
L155.8583 2.2345
" />
<path d="M155.8583 2.2345
L155.7374 2.2950
" />
<path d="M157.6121 1.9321
L157.0073 1.9321
" />
<path d="M157.0073 1.9321
L156.9469 2.5369
" />
<path d="M156.9469 2.5369
L157.0073 2.4764
" />
<path d="M157.0073 2.4764
L157.1283 2.4159
" />
<path d="M157.1283 2.4159
L157.4307 2.4159
" />
<path d="M157.4307 2.4159
L157.5516 2.4764
" />
<path d="M157.5516 2.4764
L157.6121 2.5369
" />
<path d="M157.6121 2.5369
L157.6726 2.6578
" />
<path d="M157.6726 2.6578
L157.6726 2.9602
" />
<path d="M157.6726 2.9602
L157.6121 3.0812
" />
<path d="M157.6121 3.0812
L157.5516 3.1417
" />
<path d="M157.5516 3.1417
L157.4307 3.2021
" />
<path d="M157.4307 3.2021
L157.1283 3.2021
" />
<path d="M157.1283 3.2021
L157.0073 3.1417
" />
<path d="M157.0073 3.1417
L156.9469 3.0812
" />
<path d="M158.4587 1.9321
L158.5797 1.9321
" />
<path d="M158.5797 1.9321
L158.7006 1.9926
" />
<path d="M158.7006 1.9926
L158.7611 2.0531
" />
<path d="M158.7611 2.0531
L158.8216 2.1740
" />
<path d="M158.8216 2.1740
L158.8821 2.4159
" />
<path d="M158.8821 2.4159
L158.8821 2.7183
" />
<path d="M158.8821 2.7183
L158.8216 2.9602
" />
<path d="M158.8216 2.9602
L158.7611 3.0812
" />
<path d="M158.7611 3.0812
L158.7006 3.1417
" />
<path d="M158.7006 3.1417
L158.5797 3.2021
" />
<path d="M158.5797 3.2021
L158.4587 3.2021
" />
<path d="M158.4587 3.2021
L158.3378 3.1417
" />
<path d="M158.3378 3.1417
L158.2773 3.0812
" />
<path d="M158.2773 3.0812
L158.2168 2.9602
" />
<path d="M158.2168 2.9602
L158.1564 2.7183
" />
<path d="M158.1564 2.7183
L158.1564 2.4159
" />
<path d="M158.1564 2.4159
L158.2168 2.1740
" />
<path d="M158.2168 2.1740
L158.2773 2.0531
" />
<path d="M158.2773 2.0531
L158.3378 1.9926
" />
<path d="M158.3378 1.9926
L158.4587 1.9321
" />
<path d="M159.4263 3.2021
L159.4263 2.3555
" />
<path d="M159.4263 2.4764
L159.4868 2.4159
" />
<path d="M159.4868 2.4159
L159.6078 2.3555
" />
<path d="M159.6078 2.3555
L159.7892 2.3555
" />
<path d="M159.7892 2.3555
L159.9101 2.4159
" />
<path d="M159.9101 2.4159
L159.9706 2.5369
" />
<path d="M159.9706 2.5369
L159.9706 3.2021
" />
<path d="M159.9706 2.5369
L160.0311 2.4159
" />
<path d="M160.0311 2.4159
L160.1520 2.3555
" />
<path d="M160.1520 2.3555
L160.3335 2.3555
" />
<path d="M160.3335 2.3555
L160.4544 2.4159
" />
<path d="M160.4544 2.4159
L160.5149 2.5369
" />
<path d="M160.5149 2.5369
L160.5149 3.2021
" />
<path d="M161.0592 2.8393
L161.6639 2.8393
" />
<path d="M160.9382 3.2021
L161.3615 1.9321
" />
<path d="M161.3615 1.9321
L161.7849 3.2021
" />
<path d="M162.2082 2.7183
L163.1759 2.7183
" />
<path d="M164.3854 3.2021
L163.7806 3.2021
" />
<path d="M163.7806 3.2021
L163.7806 1.9321
" />
<path d="M164.8087 3.2021
L164.8087 1.9321
" />
<path d="M164.8087 1.9321
L165.1111 1.9321
" />
<path d="M165.1111 1.9321
L165.2925 1.9926
" />
<path d="M165.2925 1.9926
L165.4135 2.1136
" />
<path d="M165.4135 2.1136
L165.4740 2.2345
" />
<path d="M165.4740 2.2345
L165.5344 2.4764
" />
<path d="M165.5344 2.4764
L165.5344 2.6578
" />
<path d="M165.5344 2.6578
L165.4740 2.8997
" />
<path d="M165.4740 2.8997
L165.4135 3.0207
" />
<path d="M165.4135 3.0207
L165.2925 3.1417
" />
<path d="M165.2925 3.1417
L165.1111 3.2021
" />
<path d="M165.1111 3.2021
L164.8087 3.2021
" />
<path d="M166.3206 1.9321
L166.5625 1.9321
" />
<path d="M166.5625 1.9321
L166.6835 1.9926
" />
<path d="M166.6835 1.9926
L166.8044 2.1136
" />
<path d="M166.8044 2.1136
L166.8649 2.3555
" />
<path d="M166.8649 2.3555
L166.8649 2.7788
" />
<path d="M166.8649 2.7788
L166.8044 3.0207
" />
<path d="M166.8044 3.0207
L166.6835 3.1417
" />
<path d="M166.6835 3.1417
L166.5625 3.2021
" />
<path d="M166.5625 3.2021
L166.3206 3.2021
" />
<path d="M166.3206 3.2021
L166.1997 3.1417
" />
<path d="M166.1997 3.1417
L166.0787 3.0207
" />
<path d="M166.0787 3.0207
L166.0183 2.7788
" />
<path d="M166.0183 2.7788
L166.0183 2.3555
" />
<path d="M166.0183 2.3555
L166.0787 2.1136
" />
<path d="M166.0787 2.1136
L166.1997 1.9926
" />
<path d="M166.1997 1.9926
L166.3206 1.9321
" />
<path d="M167.4092 2.7183
L168.3769 2.7183
" />
<path d="M168.9816 3.2021
L168.9816 1.9321
" />
<path d="M168.9816 1.9321
L169.2840 1.9321
" />
<path d="M169.2840 1.9321
L169.4654 1.9926
" />
<path d="M169.4654 1.9926
L169.5864 2.1136
" />
<path d="M169.5864 2.1136
L169.6469 2.2345
" />
<path d="M169.6469 2.2345
L169.7073 2.4764
" />
<path d="M169.7073 2.4764
L169.7073 2.6578
" />
<path d="M169.7073 2.6578
L169.6469 2.8997
" />
<path d="M169.6469 2.8997
L169.5864 3.0207
" />
<path d="M169.5864 3.0207
L169.4654 3.1417
" />
<path d="M169.4654 3.1417
L169.2840 3.2021
" />
<path d="M169.2840 3.2021
L168.9816 3.2021
" />
<path d="M170.1912 3.1417
L170.3726 3.2021
" />
<path d="M170.3726 3.2021
L170.6750 3.2021
" />
<path d="M170.6750 3.2021
L170.7959 3.1417
" />
<path d="M170.7959 3.1417
L170.8564 3.0812
" />
<path d="M170.8564 3.0812
L170.9169 2.9602
" />
<path d="M170.9169 2.9602
L170.9169 2.8393
" />
<path d="M170.9169 2.8393
L170.8564 2.7183
" />
<path d="M170.8564 2.7183
L170.7959 2.6578
" />
<path d="M170.7959 2.6578
L170.6750 2.5974
" />
<path d="M170.6750 2.5974
L170.4331 2.5369
" />
<path d="M170.4331 2.5369
L170.3121 2.4764
" />
<path d="M170.3121 2.4764
L170.2516 2.4159
" />
<path d="M170.2516 2.4159
L170.1912 2.2950
" />
<path d="M170.1912 2.2950
L170.1912 2.1740
" />
<path d="M170.1912 2.1740
L170.2516 2.0531
" />
<path d="M170.2516 2.0531
L170.3121 1.9926
" />
<path d="M170.3121 1.9926
L170.4331 1.9321
" />
<path d="M170.4331 1.9321
L170.7354 1.9321
" />
<path d="M170.7354 1.9321
L170.9169 1.9926
" />
<path d="M171.4007 2.0531
L171.4611 1.9926
" />
<path d="M171.4611 1.9926
L171.5821 1.9321
" />
<path d="M171.5821 1.9321
L171.8845 1.9321
" />
<path d="M171.8845 1.9321
L172.0054 1.9926
" />
<path d="M172.0054 1.9926
L172.0659 2.0531
" />
<path d="M172.0659 2.0531
L172.1264 2.1740
" />
<path d="M172.1264 2.1740
L172.1264 2.2950
" />
<path d="M172.1264 2.2950
L172.0659 2.4764
" />
<path d="M172.0659 2.4764
L171.3402 3.2021
" />
<path d="M171.3402 3.2021
L172.1264 3.2021
" />
<path d="M172.9125 1.9321
L173.0335 1.9321
" />
<path d="M173.0335 1.9321
L173.1544 1.9926
" />
<path d="M173.1544 1.9926
L173.2149 2.0531
" />
<path d="M173.2149 2.0531
L173.2754 2.1740
" />
<path d="M173.2754 2.1740
L173.3359 2.4159
" />
<path d="M173.3359 2.4159
L173.3359 2.7183
" />
<path d="M173.3359 2.7183
L173.2754 2.9602
" />
<path d="M173.2754 2.9602
L173.2149 3.0812
" />
<path d="M173.2149 3.0812
L173.1544 3.1417
" />
<path d="M173.1544 3.1417
L173.0335 3.2021
" />
<path d="M173.0335 3.2021
L172.9125 3.2021
" />
<path d="M172.9125 3.2021
L172.7916 3.1417
" />
<path d="M172.7916 3.1417
L172.7311 3.0812
" />
<path d="M172.7311 3.0812
L172.6706 2.9602
" />
<path d="M172.6706 2.9602
L172.6102 2.7183
" />
<path d="M172.6102 2.7183
L172.6102 2.4159
" />
<path d="M172.6102 2.4159
L172.6706 2.1740
" />
<path d="M172.6706 2.1740
L172.7311 2.0531
" />
<path d="M172.7311 2.0531
L172.7916 1.9926
" />
<path d="M172.7916 1.9926
L172.9125 1.9321
" />
<path d="M174.1220 1.9321
L174.2430 1.9321
" />
<path d="M174.2430 1.9321
L174.3639 1.9926
" />
<path d="M174.3639 1.9926
L174.4244 2.0531
" />
<path d="M174.4244 2.0531
L174.4849 2.1740
" />
<path d="M174.4849 2.1740
L174.5454 2.4159
" />
<path d="M174.5454 2.4159
L174.5454 2.7183
" />
<path d="M174.5454 2.7183
L174.4849 2.9602
" />
<path d="M174.4849 2.9602
L174.4244 3.0812
" />
<path d="M174.4244 3.0812
L174.3639 3.1417
" />
<path d="M174.3639 3.1417
L174.2430 3.2021
" />
<path d="M174.2430 3.2021
L174.1220 3.2021
" />
<path d="M174.1220 3.2021
L174.0011 3.1417
" />
<path d="M174.0011 3.1417
L173.9406 3.0812
" />
<path d="M173.9406 3.0812
L173.8801 2.9602
" />
<path d="M173.8801 2.9602
L173.8197 2.7183
" />
<path d="M173.8197 2.7183
L173.8197 2.4159
" />
<path d="M173.8197 2.4159
L173.8801 2.1740
" />
<path d="M173.8801 2.1740
L173.9406 2.0531
" />
<path d="M173.9406 2.0531
L174.0011 1.9926
" />
<path d="M174.0011 1.9926
L174.1220 1.9321
" />
<path d="M175.3315 1.9321
L175.4525 1.9321
" />
<path d="M175.4525 1.9321
L175.5734 1.9926
" />
<path d="M175.5734 1.9926
L175.6339 2.0531
" />
<path d="M175.6339 2.0531
L175.6944 2.1740
" />
<path d="M175.6944 2.1740
L175.7549 2.4159
" />
<path d="M175.7549 2.4159
L175.7549 2.7183
" />
<path d="M175.7549 2.7183
L175.6944 2.9602
" />
<path d="M175.6944 2.9602
L175.6339 3.0812
" />
<path d="M175.6339 3.0812
L175.5734 3.1417
" />
<path d="M175.5734 3.1417
L175.4525 3.2021
" />
<path d="M175.4525 3.2021
L175.3315 3.2021
" />
<path d="M175.3315 3.2021
L175.2106 3.1417
" />
<path d="M175.2106 3.1417
L175.1501 3.0812
" />
<path d="M175.1501 3.0812
L175.0896 2.9602
" />
<path d="M175.0896 2.9602
L175.0292 2.7183
" />
<path d="M175.0292 2.7183
L175.0292 2.4159
" />
<path d="M175.0292 2.4159
L175.0896 2.1740
" />
<path d="M175.0896 2.1740
L175.1501 2.0531
" />
<path d="M175.1501 2.0531
L175.2106 1.9926
" />
<path d="M175.2106 1.9926
L175.3315 1.9321
" />
<path d="M176.8434 1.9321
L176.6015 1.9321
" />
<path d="M176.6015 1.9321
L176.4806 1.9926
" />
<path d="M176.4806 1.9926
L176.4201 2.0531
" />
<path d="M176.4201 2.0531
L176.2991 2.2345
" />
<path d="M176.2991 2.2345
L176.2387 2.4764
" />
<path d="M176.2387 2.4764
L176.2387 2.9602
" />
<path d="M176.2387 2.9602
L176.2991 3.0812
" />
<path d="M176.2991 3.0812
L176.3596 3.1417
" />
<path d="M176.3596 3.1417
L176.4806 3.2021
" />
<path d="M176.4806 3.2021
L176.7225 3.2021
" />
<path d="M176.7225 3.2021
L176.8434 3.1417
" />
<path d="M176.8434 3.1417
L176.9039 3.0812
" />
<path d="M176.9039 3.0812
L176.9644 2.9602
" />
<path d="M176.9644 2.9602
L176.9644 2.6578
" />
<path d="M176.9644 2.6578
L176.9039 2.5369
" />
<path d="M176.9039 2.5369
L176.8434 2.4764
" />
<path d="M176.8434 2.4764
L176.7225 2.4159
" />
<path d="M176.7225 2.4159
L176.4806 2.4159
" />
<path d="M176.4806 2.4159
L176.3596 2.4764
" />
<path d="M176.3596 2.4764
L176.2991 2.5369
" />
<path d="M176.2991 2.5369
L176.2387 2.6578
" />
<path d="M178.1739 3.2021
L177.4482 3.2021
" />
<path d="M177.8110 3.2021
L177.8110 1.9321
" />
<path d="M177.8110 1.9321
L177.6901 2.1136
" />
<path d="M177.6901 2.1136
L177.5691 2.2345
" />
<path d="M177.5691 2.2345
L177.4482 2.2950
" />
<path d="M178.7786 3.2021
L179.0205 3.2021
" />
<path d="M179.0205 3.2021
L179.1415 3.1417
" />
<path d="M179.1415 3.1417
L179.2019 3.0812
" />
<path d="M179.2019 3.0812
L179.3229 2.8997
" />
<path d="M179.3229 2.8997
L179.3834 2.6578
" />
<path d="M179.3834 2.6578
L179.3834 2.1740
" />
<path d="M179.3834 2.1740
L179.3229 2.0531
" />
<path d="M179.3229 2.0531
L179.2624 1.9926
" />
<path d="M179.2624 1.9926
L179.1415 1.9321
" />
<path d="M179.1415 1.9321
L178.8996 1.9321
" />
<path d="M178.8996 1.9321
L178.7786 1.9926
" />
<path d="M178.7786 1.9926
L178.7181 2.0531
" />
<path d="M178.7181 2.0531
L178.6577 2.1740
" />
<path d="M178.6577 2.1740
L178.6577 2.4764
" />
<path d="M178.6577 2.4764
L178.7181 2.5974
" />
<path d="M178.7181 2.5974
L178.7786 2.6578
" />
<path d="M178.7786 2.6578
L178.8996 2.7183
" />
<path d="M178.8996 2.7183
L179.1415 2.7183
" />
<path d="M179.1415 2.7183
L179.2624 2.6578
" />
<path d="M179.2624 2.6578
L179.3229 2.5974
" />
<path d="M179.3229 2.5974
L179.3834 2.4764
" />
<path d="M180.5324 1.9321
L179.9276 1.9321
" />
<path d="M179.9276 1.9321
L179.8672 2.5369
" />
<path d="M179.8672 2.5369
L179.9276 2.4764
" />
<path d="M179.9276 2.4764
L180.0486 2.4159
" />
<path d="M180.0486 2.4159
L180.3510 2.4159
" />
<path d="M180.3510 2.4159
L180.4719 2.4764
" />
<path d="M180.4719 2.4764
L180.5324 2.5369
" />
<path d="M180.5324 2.5369
L180.5929 2.6578
" />
<path d="M180.5929 2.6578
L180.5929 2.9602
" />
<path d="M180.5929 2.9602
L180.5324 3.0812
" />
<path d="M180.5324 3.0812
L180.4719 3.1417
" />
<path d="M180.4719 3.1417
L180.3510 3.2021
" />
<path d="M180.3510 3.2021
L180.0486 3.2021
" />
<path d="M180.0486 3.2021
L179.9276 3.1417
" />
<path d="M179.9276 3.1417
L179.8672 3.0812
" />
<path d="M181.5605 2.5369
L181.7419 2.5974
" />
<path d="M181.7419 2.5974
L181.8024 2.6578
" />
<path d="M181.8024 2.6578
L181.8628 2.7788
" />
<path d="M181.8628 2.7788
L181.8628 2.9602
" />
<path d="M181.8628 2.9602
L181.8024 3.0812
" />
<path d="M181.8024 3.0812
L181.7419 3.1417
" />
<path d="M181.7419 3.1417
L181.6209 3.2021
" />
<path d="M181.6209 3.2021
L181.1371 3.2021
" />
<path d="M181.1371 3.2021
L181.1371 1.9321
" />
<path d="M181.1371 1.9321
L181.5605 1.9321
" />
<path d="M181.5605 1.9321
L181.6814 1.9926
" />
<path d="M181.6814 1.9926
L181.7419 2.0531
" />
<path d="M181.7419 2.0531
L181.8024 2.1740
" />
<path d="M181.8024 2.1740
L181.8024 2.2950
" />
<path d="M181.8024 2.2950
L181.7419 2.4159
" />
<path d="M181.7419 2.4159
L181.6814 2.4764
" />
<path d="M181.6814 2.4764
L181.5605 2.5369
" />
<path d="M181.5605 2.5369
L181.1371 2.5369
" />
<path d="M182.4071 3.0812
L182.4676 3.1417
" />
<path d="M182.4676 3.1417
L182.4071 3.2021
" />
<path d="M182.4071 3.2021
L182.3467 3.1417
" />
<path d="M182.3467 3.1417
L182.4071 3.0812
" />
<path d="M182.4071 3.0812
L182.4071 3.2021
" />
<path d="M183.0119 2.3555
L183.0119 3.6255
" />
<path d="M183.0119 2.4159
L183.1329 2.3555
" />
<path d="M183.1329 2.3555
L183.3748 2.3555
" />
<path d="M183.3748 2.3555
L183.4957 2.4159
" />
<path d="M183.4957 2.4159
L183.5562 2.4764
" />
<path d="M183.5562 2.4764
L183.6167 2.5974
" />
<path d="M183.6167 2.5974
L183.6167 2.9602
" />
<path d="M183.6167 2.9602
L183.5562 3.0812
" />
<path d="M183.5562 3.0812
L183.4957 3.1417
" />
<path d="M183.4957 3.1417
L183.3748 3.2021
" />
<path d="M183.3748 3.2021
L183.1329 3.2021
" />
<path d="M183.1329 3.2021
L183.0119 3.1417
" />
<path d="M184.7052 3.2021
L184.7052 1.9321
" />
<path d="M184.7052 3.1417
L184.5843 3.2021
" />
<path d="M184.5843 3.2021
L184.3424 3.2021
" />
<path d="M184.3424 3.2021
L184.2214 3.1417
" />
<path d="M184.2214 3.1417
L184.1609 3.0812
" />
<path d="M184.1609 3.0812
L184.1005 2.9602
" />
<path d="M184.1005 2.9602
L184.1005 2.5974
" />
<path d="M184.1005 2.5974
L184.1609 2.4764
" />
<path d="M184.1609 2.4764
L184.2214 2.4159
" />
<path d="M184.2214 2.4159
L184.3424 2.3555
" />
<path d="M184.3424 2.3555
L184.5843 2.3555
" />
<path d="M184.5843 2.3555
L184.7052 2.4159
" />
<path d="M185.1285 2.3555
L185.6123 2.3555
" />
<path d="M185.3099 3.2021
L185.3099 2.1136
" />
<path d="M185.3099 2.1136
L185.3704 1.9926
" />
<path d="M185.3704 1.9926
L185.4914 1.9321
" />
<path d="M185.4914 1.9321
L185.6123 1.9321
" />
</g></g> 
</svg>
