<?xml version="1.0" standalone="no"?>
 <!DOCTYPE svg PUBLIC "-//W3C//DTD SVG 1.1//EN" 
 "http://www.w3.org/Graphics/SVG/1.1/DTD/svg11.dtd"> 
<svg
  xmlns:svg="http://www.w3.org/2000/svg"
  xmlns="http://www.w3.org/2000/svg"
  xmlns:xlink="http://www.w3.org/1999/xlink"
  version="1.1"
  width="101.2952mm" height="8.5598mm" viewBox="0.0000 0.0000 101.2952 8.5598">
<title>SVG Image created as working.svg date 2023/08/14 22:11:42 </title>
  <desc>Image generated by Eeschema-SVG </desc>
<g style="fill:#000000; fill-opacity:1.0000;stroke:#000000; stroke-opacity:1.0000;
stroke-linecap:round; stroke-linejoin:round;"
 transform="translate(0 0) scale(1 1)">
</g>
<g style="fill:#840000; fill-opacity:0.0; 
stroke:#840000; stroke-width:0.0000; stroke-opacity:1; 
stroke-linecap:round; stroke-linejoin:round;">
</g>
<g style="fill:#840084; fill-opacity:0.0; 
stroke:#840084; stroke-width:0.0000; stroke-opacity:1; 
stroke-linecap:round; stroke-linejoin:round;">
</g>
<g style="fill:#840000; fill-opacity:0.0; 
stroke:#840000; stroke-width:0.0000; stroke-opacity:1; 
stroke-linecap:round; stroke-linejoin:round;">
</g>
<g style="fill:#840084; fill-opacity:0.0; 
stroke:#840084; stroke-width:0.0000; stroke-opacity:1; 
stroke-linecap:round; stroke-linejoin:round;">
</g>
<g style="fill:#006464; fill-opacity:0.0; 
stroke:#006464; stroke-width:0.0000; stroke-opacity:1; 
stroke-linecap:round; stroke-linejoin:round;">
</g>
<g style="fill:#006464; fill-opacity:0.0; 
stroke:#006464; stroke-width:0.1588; stroke-opacity:1; 
stroke-linecap:round; stroke-linejoin:round;">
<text x="46.1976" y="5.5439"
textLength="2.6415" font-size="1.6933" lengthAdjust="spacingAndGlyphs"
text-anchor="middle" opacity="0">U?</text>
<g class="stroked-text"><desc>U?</desc>
<path d="M45.2904 4.2181
L45.2904 5.2462
" />
<path d="M45.2904 5.2462
L45.3509 5.3672
" />
<path d="M45.3509 5.3672
L45.4114 5.4277
" />
<path d="M45.4114 5.4277
L45.5323 5.4881
" />
<path d="M45.5323 5.4881
L45.7742 5.4881
" />
<path d="M45.7742 5.4881
L45.8952 5.4277
" />
<path d="M45.8952 5.4277
L45.9557 5.3672
" />
<path d="M45.9557 5.3672
L46.0161 5.2462
" />
<path d="M46.0161 5.2462
L46.0161 4.2181
" />
<path d="M46.8024 5.3672
L46.8628 5.4277
" />
<path d="M46.8628 5.4277
L46.8024 5.4881
" />
<path d="M46.8024 5.4881
L46.7419 5.4277
" />
<path d="M46.7419 5.4277
L46.8024 5.3672
" />
<path d="M46.8024 5.3672
L46.8024 5.4881
" />
<path d="M46.5605 4.2786
L46.6814 4.2181
" />
<path d="M46.6814 4.2181
L46.9838 4.2181
" />
<path d="M46.9838 4.2181
L47.1047 4.2786
" />
<path d="M47.1047 4.2786
L47.1652 4.3996
" />
<path d="M47.1652 4.3996
L47.1652 4.5205
" />
<path d="M47.1652 4.5205
L47.1047 4.6415
" />
<path d="M47.1047 4.6415
L47.0443 4.7019
" />
<path d="M47.0443 4.7019
L46.9233 4.7624
" />
<path d="M46.9233 4.7624
L46.8628 4.8229
" />
<path d="M46.8628 4.8229
L46.8024 4.9438
" />
<path d="M46.8024 4.9438
L46.8024 5.0043
" />
</g><text x="60.0368" y="5.5439"
textLength="20.0584" font-size="1.6933" lengthAdjust="spacingAndGlyphs"
text-anchor="middle" opacity="0">LT1175-ADJ_SOT223</text>
<g class="stroked-text"><desc>LT1175-ADJ_SOT223</desc>
<path d="M51.0259 5.4881
L50.4211 5.4881
" />
<path d="M50.4211 5.4881
L50.4211 4.2181
" />
<path d="M51.2678 4.2181
L51.9935 4.2181
" />
<path d="M51.6307 5.4881
L51.6307 4.2181
" />
<path d="M53.0821 5.4881
L52.3564 5.4881
" />
<path d="M52.7192 5.4881
L52.7192 4.2181
" />
<path d="M52.7192 4.2181
L52.5983 4.3996
" />
<path d="M52.5983 4.3996
L52.4773 4.5205
" />
<path d="M52.4773 4.5205
L52.3564 4.5810
" />
<path d="M54.2916 5.4881
L53.5659 5.4881
" />
<path d="M53.9287 5.4881
L53.9287 4.2181
" />
<path d="M53.9287 4.2181
L53.8078 4.3996
" />
<path d="M53.8078 4.3996
L53.6868 4.5205
" />
<path d="M53.6868 4.5205
L53.5659 4.5810
" />
<path d="M54.7149 4.2181
L55.5615 4.2181
" />
<path d="M55.5615 4.2181
L55.0173 5.4881
" />
<path d="M56.6501 4.2181
L56.0453 4.2181
" />
<path d="M56.0453 4.2181
L55.9849 4.8229
" />
<path d="M55.9849 4.8229
L56.0453 4.7624
" />
<path d="M56.0453 4.7624
L56.1663 4.7019
" />
<path d="M56.1663 4.7019
L56.4687 4.7019
" />
<path d="M56.4687 4.7019
L56.5896 4.7624
" />
<path d="M56.5896 4.7624
L56.6501 4.8229
" />
<path d="M56.6501 4.8229
L56.7106 4.9438
" />
<path d="M56.7106 4.9438
L56.7106 5.2462
" />
<path d="M56.7106 5.2462
L56.6501 5.3672
" />
<path d="M56.6501 5.3672
L56.5896 5.4277
" />
<path d="M56.5896 5.4277
L56.4687 5.4881
" />
<path d="M56.4687 5.4881
L56.1663 5.4881
" />
<path d="M56.1663 5.4881
L56.0453 5.4277
" />
<path d="M56.0453 5.4277
L55.9849 5.3672
" />
<path d="M57.2548 5.0043
L58.2225 5.0043
" />
<path d="M58.7668 5.1253
L59.3715 5.1253
" />
<path d="M58.6458 5.4881
L59.0691 4.2181
" />
<path d="M59.0691 4.2181
L59.4925 5.4881
" />
<path d="M59.9158 5.4881
L59.9158 4.2181
" />
<path d="M59.9158 4.2181
L60.2182 4.2181
" />
<path d="M60.2182 4.2181
L60.3996 4.2786
" />
<path d="M60.3996 4.2786
L60.5206 4.3996
" />
<path d="M60.5206 4.3996
L60.5811 4.5205
" />
<path d="M60.5811 4.5205
L60.6415 4.7624
" />
<path d="M60.6415 4.7624
L60.6415 4.9438
" />
<path d="M60.6415 4.9438
L60.5811 5.1857
" />
<path d="M60.5811 5.1857
L60.5206 5.3067
" />
<path d="M60.5206 5.3067
L60.3996 5.4277
" />
<path d="M60.3996 5.4277
L60.2182 5.4881
" />
<path d="M60.2182 5.4881
L59.9158 5.4881
" />
<path d="M61.5487 4.2181
L61.5487 5.1253
" />
<path d="M61.5487 5.1253
L61.4882 5.3067
" />
<path d="M61.4882 5.3067
L61.3673 5.4277
" />
<path d="M61.3673 5.4277
L61.1858 5.4881
" />
<path d="M61.1858 5.4881
L61.0649 5.4881
" />
<path d="M61.8511 5.6091
L62.8187 5.6091
" />
<path d="M63.0606 5.4277
L63.2420 5.4881
" />
<path d="M63.2420 5.4881
L63.5444 5.4881
" />
<path d="M63.5444 5.4881
L63.6653 5.4277
" />
<path d="M63.6653 5.4277
L63.7258 5.3672
" />
<path d="M63.7258 5.3672
L63.7863 5.2462
" />
<path d="M63.7863 5.2462
L63.7863 5.1253
" />
<path d="M63.7863 5.1253
L63.7258 5.0043
" />
<path d="M63.7258 5.0043
L63.6653 4.9438
" />
<path d="M63.6653 4.9438
L63.5444 4.8834
" />
<path d="M63.5444 4.8834
L63.3025 4.8229
" />
<path d="M63.3025 4.8229
L63.1815 4.7624
" />
<path d="M63.1815 4.7624
L63.1210 4.7019
" />
<path d="M63.1210 4.7019
L63.0606 4.5810
" />
<path d="M63.0606 4.5810
L63.0606 4.4600
" />
<path d="M63.0606 4.4600
L63.1210 4.3391
" />
<path d="M63.1210 4.3391
L63.1815 4.2786
" />
<path d="M63.1815 4.2786
L63.3025 4.2181
" />
<path d="M63.3025 4.2181
L63.6048 4.2181
" />
<path d="M63.6048 4.2181
L63.7863 4.2786
" />
<path d="M64.5724 4.2181
L64.8143 4.2181
" />
<path d="M64.8143 4.2181
L64.9353 4.2786
" />
<path d="M64.9353 4.2786
L65.0562 4.3996
" />
<path d="M65.0562 4.3996
L65.1167 4.6415
" />
<path d="M65.1167 4.6415
L65.1167 5.0648
" />
<path d="M65.1167 5.0648
L65.0562 5.3067
" />
<path d="M65.0562 5.3067
L64.9353 5.4277
" />
<path d="M64.9353 5.4277
L64.8143 5.4881
" />
<path d="M64.8143 5.4881
L64.5724 5.4881
" />
<path d="M64.5724 5.4881
L64.4515 5.4277
" />
<path d="M64.4515 5.4277
L64.3305 5.3067
" />
<path d="M64.3305 5.3067
L64.2701 5.0648
" />
<path d="M64.2701 5.0648
L64.2701 4.6415
" />
<path d="M64.2701 4.6415
L64.3305 4.3996
" />
<path d="M64.3305 4.3996
L64.4515 4.2786
" />
<path d="M64.4515 4.2786
L64.5724 4.2181
" />
<path d="M65.4796 4.2181
L66.2053 4.2181
" />
<path d="M65.8425 5.4881
L65.8425 4.2181
" />
<path d="M66.5682 4.3391
L66.6286 4.2786
" />
<path d="M66.6286 4.2786
L66.7496 4.2181
" />
<path d="M66.7496 4.2181
L67.0520 4.2181
" />
<path d="M67.0520 4.2181
L67.1729 4.2786
" />
<path d="M67.1729 4.2786
L67.2334 4.3391
" />
<path d="M67.2334 4.3391
L67.2939 4.4600
" />
<path d="M67.2939 4.4600
L67.2939 4.5810
" />
<path d="M67.2939 4.5810
L67.2334 4.7624
" />
<path d="M67.2334 4.7624
L66.5077 5.4881
" />
<path d="M66.5077 5.4881
L67.2939 5.4881
" />
<path d="M67.7777 4.3391
L67.8381 4.2786
" />
<path d="M67.8381 4.2786
L67.9591 4.2181
" />
<path d="M67.9591 4.2181
L68.2615 4.2181
" />
<path d="M68.2615 4.2181
L68.3824 4.2786
" />
<path d="M68.3824 4.2786
L68.4429 4.3391
" />
<path d="M68.4429 4.3391
L68.5034 4.4600
" />
<path d="M68.5034 4.4600
L68.5034 4.5810
" />
<path d="M68.5034 4.5810
L68.4429 4.7624
" />
<path d="M68.4429 4.7624
L67.7172 5.4881
" />
<path d="M67.7172 5.4881
L68.5034 5.4881
" />
<path d="M68.9267 4.2181
L69.7129 4.2181
" />
<path d="M69.7129 4.2181
L69.2895 4.7019
" />
<path d="M69.2895 4.7019
L69.4710 4.7019
" />
<path d="M69.4710 4.7019
L69.5919 4.7624
" />
<path d="M69.5919 4.7624
L69.6524 4.8229
" />
<path d="M69.6524 4.8229
L69.7129 4.9438
" />
<path d="M69.7129 4.9438
L69.7129 5.2462
" />
<path d="M69.7129 5.2462
L69.6524 5.3672
" />
<path d="M69.6524 5.3672
L69.5919 5.4277
" />
<path d="M69.5919 5.4277
L69.4710 5.4881
" />
<path d="M69.4710 5.4881
L69.1081 5.4881
" />
<path d="M69.1081 5.4881
L68.9872 5.4277
" />
<path d="M68.9872 5.4277
L68.9267 5.3672
" />
</g></g>
<g style="fill:#840084; fill-opacity:0.0; 
stroke:#840084; stroke-width:0.1588; stroke-opacity:1; 
stroke-linecap:round; stroke-linejoin:round;">
<text x="50.0076" y="7.4489"
textLength="41.3458" font-size="1.6933" lengthAdjust="spacingAndGlyphs"
text-anchor="middle" opacity="0">Package_TO_SOT_SMD:SOT-223-3_TabPin2</text>
<g class="stroked-text"><desc>Package_TO_SOT_SMD:SOT-223-3_TabPin2</desc>
<path d="M29.7482 7.3931
L29.7482 6.1231
" />
<path d="M29.7482 6.1231
L30.2320 6.1231
" />
<path d="M30.2320 6.1231
L30.3530 6.1836
" />
<path d="M30.3530 6.1836
L30.4135 6.2441
" />
<path d="M30.4135 6.2441
L30.4739 6.3650
" />
<path d="M30.4739 6.3650
L30.4739 6.5465
" />
<path d="M30.4739 6.5465
L30.4135 6.6674
" />
<path d="M30.4135 6.6674
L30.3530 6.7279
" />
<path d="M30.3530 6.7279
L30.2320 6.7884
" />
<path d="M30.2320 6.7884
L29.7482 6.7884
" />
<path d="M31.5625 7.3931
L31.5625 6.7279
" />
<path d="M31.5625 6.7279
L31.5020 6.6069
" />
<path d="M31.5020 6.6069
L31.3811 6.5465
" />
<path d="M31.3811 6.5465
L31.1392 6.5465
" />
<path d="M31.1392 6.5465
L31.0182 6.6069
" />
<path d="M31.5625 7.3327
L31.4416 7.3931
" />
<path d="M31.4416 7.3931
L31.1392 7.3931
" />
<path d="M31.1392 7.3931
L31.0182 7.3327
" />
<path d="M31.0182 7.3327
L30.9578 7.2117
" />
<path d="M30.9578 7.2117
L30.9578 7.0907
" />
<path d="M30.9578 7.0907
L31.0182 6.9698
" />
<path d="M31.0182 6.9698
L31.1392 6.9093
" />
<path d="M31.1392 6.9093
L31.4416 6.9093
" />
<path d="M31.4416 6.9093
L31.5625 6.8488
" />
<path d="M32.7115 7.3327
L32.5906 7.3931
" />
<path d="M32.5906 7.3931
L32.3487 7.3931
" />
<path d="M32.3487 7.3931
L32.2277 7.3327
" />
<path d="M32.2277 7.3327
L32.1672 7.2722
" />
<path d="M32.1672 7.2722
L32.1068 7.1512
" />
<path d="M32.1068 7.1512
L32.1068 6.7884
" />
<path d="M32.1068 6.7884
L32.1672 6.6674
" />
<path d="M32.1672 6.6674
L32.2277 6.6069
" />
<path d="M32.2277 6.6069
L32.3487 6.5465
" />
<path d="M32.3487 6.5465
L32.5906 6.5465
" />
<path d="M32.5906 6.5465
L32.7115 6.6069
" />
<path d="M33.2558 7.3931
L33.2558 6.1231
" />
<path d="M33.3768 6.9093
L33.7396 7.3931
" />
<path d="M33.7396 6.5465
L33.2558 7.0303
" />
<path d="M34.8282 7.3931
L34.8282 6.7279
" />
<path d="M34.8282 6.7279
L34.7677 6.6069
" />
<path d="M34.7677 6.6069
L34.6468 6.5465
" />
<path d="M34.6468 6.5465
L34.4049 6.5465
" />
<path d="M34.4049 6.5465
L34.2839 6.6069
" />
<path d="M34.8282 7.3327
L34.7073 7.3931
" />
<path d="M34.7073 7.3931
L34.4049 7.3931
" />
<path d="M34.4049 7.3931
L34.2839 7.3327
" />
<path d="M34.2839 7.3327
L34.2235 7.2117
" />
<path d="M34.2235 7.2117
L34.2235 7.0907
" />
<path d="M34.2235 7.0907
L34.2839 6.9698
" />
<path d="M34.2839 6.9698
L34.4049 6.9093
" />
<path d="M34.4049 6.9093
L34.7073 6.9093
" />
<path d="M34.7073 6.9093
L34.8282 6.8488
" />
<path d="M35.9772 6.5465
L35.9772 7.5746
" />
<path d="M35.9772 7.5746
L35.9167 7.6955
" />
<path d="M35.9167 7.6955
L35.8563 7.7560
" />
<path d="M35.8563 7.7560
L35.7353 7.8165
" />
<path d="M35.7353 7.8165
L35.5539 7.8165
" />
<path d="M35.5539 7.8165
L35.4329 7.7560
" />
<path d="M35.9772 7.3327
L35.8563 7.3931
" />
<path d="M35.8563 7.3931
L35.6144 7.3931
" />
<path d="M35.6144 7.3931
L35.4934 7.3327
" />
<path d="M35.4934 7.3327
L35.4329 7.2722
" />
<path d="M35.4329 7.2722
L35.3725 7.1512
" />
<path d="M35.3725 7.1512
L35.3725 6.7884
" />
<path d="M35.3725 6.7884
L35.4329 6.6674
" />
<path d="M35.4329 6.6674
L35.4934 6.6069
" />
<path d="M35.4934 6.6069
L35.6144 6.5465
" />
<path d="M35.6144 6.5465
L35.8563 6.5465
" />
<path d="M35.8563 6.5465
L35.9772 6.6069
" />
<path d="M37.0657 7.3327
L36.9448 7.3931
" />
<path d="M36.9448 7.3931
L36.7029 7.3931
" />
<path d="M36.7029 7.3931
L36.5819 7.3327
" />
<path d="M36.5819 7.3327
L36.5215 7.2117
" />
<path d="M36.5215 7.2117
L36.5215 6.7279
" />
<path d="M36.5215 6.7279
L36.5819 6.6069
" />
<path d="M36.5819 6.6069
L36.7029 6.5465
" />
<path d="M36.7029 6.5465
L36.9448 6.5465
" />
<path d="M36.9448 6.5465
L37.0657 6.6069
" />
<path d="M37.0657 6.6069
L37.1262 6.7279
" />
<path d="M37.1262 6.7279
L37.1262 6.8488
" />
<path d="M37.1262 6.8488
L36.5215 6.9698
" />
<path d="M37.3682 7.5141
L38.3358 7.5141
" />
<path d="M38.4567 6.1231
L39.1824 6.1231
" />
<path d="M38.8196 7.3931
L38.8196 6.1231
" />
<path d="M39.8476 6.1231
L40.0895 6.1231
" />
<path d="M40.0895 6.1231
L40.2105 6.1836
" />
<path d="M40.2105 6.1836
L40.3314 6.3046
" />
<path d="M40.3314 6.3046
L40.3919 6.5465
" />
<path d="M40.3919 6.5465
L40.3919 6.9698
" />
<path d="M40.3919 6.9698
L40.3314 7.2117
" />
<path d="M40.3314 7.2117
L40.2105 7.3327
" />
<path d="M40.2105 7.3327
L40.0895 7.3931
" />
<path d="M40.0895 7.3931
L39.8476 7.3931
" />
<path d="M39.8476 7.3931
L39.7267 7.3327
" />
<path d="M39.7267 7.3327
L39.6057 7.2117
" />
<path d="M39.6057 7.2117
L39.5453 6.9698
" />
<path d="M39.5453 6.9698
L39.5453 6.5465
" />
<path d="M39.5453 6.5465
L39.6057 6.3046
" />
<path d="M39.6057 6.3046
L39.7267 6.1836
" />
<path d="M39.7267 6.1836
L39.8476 6.1231
" />
<path d="M40.6339 7.5141
L41.6015 7.5141
" />
<path d="M41.8434 7.3327
L42.0248 7.3931
" />
<path d="M42.0248 7.3931
L42.3272 7.3931
" />
<path d="M42.3272 7.3931
L42.4481 7.3327
" />
<path d="M42.4481 7.3327
L42.5086 7.2722
" />
<path d="M42.5086 7.2722
L42.5691 7.1512
" />
<path d="M42.5691 7.1512
L42.5691 7.0303
" />
<path d="M42.5691 7.0303
L42.5086 6.9093
" />
<path d="M42.5086 6.9093
L42.4481 6.8488
" />
<path d="M42.4481 6.8488
L42.3272 6.7884
" />
<path d="M42.3272 6.7884
L42.0853 6.7279
" />
<path d="M42.0853 6.7279
L41.9643 6.6674
" />
<path d="M41.9643 6.6674
L41.9038 6.6069
" />
<path d="M41.9038 6.6069
L41.8434 6.4860
" />
<path d="M41.8434 6.4860
L41.8434 6.3650
" />
<path d="M41.8434 6.3650
L41.9038 6.2441
" />
<path d="M41.9038 6.2441
L41.9643 6.1836
" />
<path d="M41.9643 6.1836
L42.0853 6.1231
" />
<path d="M42.0853 6.1231
L42.3876 6.1231
" />
<path d="M42.3876 6.1231
L42.5691 6.1836
" />
<path d="M43.3552 6.1231
L43.5971 6.1231
" />
<path d="M43.5971 6.1231
L43.7181 6.1836
" />
<path d="M43.7181 6.1836
L43.8390 6.3046
" />
<path d="M43.8390 6.3046
L43.8995 6.5465
" />
<path d="M43.8995 6.5465
L43.8995 6.9698
" />
<path d="M43.8995 6.9698
L43.8390 7.2117
" />
<path d="M43.8390 7.2117
L43.7181 7.3327
" />
<path d="M43.7181 7.3327
L43.5971 7.3931
" />
<path d="M43.5971 7.3931
L43.3552 7.3931
" />
<path d="M43.3552 7.3931
L43.2343 7.3327
" />
<path d="M43.2343 7.3327
L43.1133 7.2117
" />
<path d="M43.1133 7.2117
L43.0529 6.9698
" />
<path d="M43.0529 6.9698
L43.0529 6.5465
" />
<path d="M43.0529 6.5465
L43.1133 6.3046
" />
<path d="M43.1133 6.3046
L43.2343 6.1836
" />
<path d="M43.2343 6.1836
L43.3552 6.1231
" />
<path d="M44.2624 6.1231
L44.9881 6.1231
" />
<path d="M44.6253 7.3931
L44.6253 6.1231
" />
<path d="M45.1091 7.5141
L46.0767 7.5141
" />
<path d="M46.3186 7.3327
L46.5000 7.3931
" />
<path d="M46.5000 7.3931
L46.8024 7.3931
" />
<path d="M46.8024 7.3931
L46.9233 7.3327
" />
<path d="M46.9233 7.3327
L46.9838 7.2722
" />
<path d="M46.9838 7.2722
L47.0443 7.1512
" />
<path d="M47.0443 7.1512
L47.0443 7.0303
" />
<path d="M47.0443 7.0303
L46.9838 6.9093
" />
<path d="M46.9838 6.9093
L46.9233 6.8488
" />
<path d="M46.9233 6.8488
L46.8024 6.7884
" />
<path d="M46.8024 6.7884
L46.5605 6.7279
" />
<path d="M46.5605 6.7279
L46.4395 6.6674
" />
<path d="M46.4395 6.6674
L46.3790 6.6069
" />
<path d="M46.3790 6.6069
L46.3186 6.4860
" />
<path d="M46.3186 6.4860
L46.3186 6.3650
" />
<path d="M46.3186 6.3650
L46.3790 6.2441
" />
<path d="M46.3790 6.2441
L46.4395 6.1836
" />
<path d="M46.4395 6.1836
L46.5605 6.1231
" />
<path d="M46.5605 6.1231
L46.8628 6.1231
" />
<path d="M46.8628 6.1231
L47.0443 6.1836
" />
<path d="M47.5885 7.3931
L47.5885 6.1231
" />
<path d="M47.5885 6.1231
L48.0119 7.0303
" />
<path d="M48.0119 7.0303
L48.4352 6.1231
" />
<path d="M48.4352 6.1231
L48.4352 7.3931
" />
<path d="M49.0399 7.3931
L49.0399 6.1231
" />
<path d="M49.0399 6.1231
L49.3423 6.1231
" />
<path d="M49.3423 6.1231
L49.5237 6.1836
" />
<path d="M49.5237 6.1836
L49.6447 6.3046
" />
<path d="M49.6447 6.3046
L49.7052 6.4255
" />
<path d="M49.7052 6.4255
L49.7656 6.6674
" />
<path d="M49.7656 6.6674
L49.7656 6.8488
" />
<path d="M49.7656 6.8488
L49.7052 7.0907
" />
<path d="M49.7052 7.0907
L49.6447 7.2117
" />
<path d="M49.6447 7.2117
L49.5237 7.3327
" />
<path d="M49.5237 7.3327
L49.3423 7.3931
" />
<path d="M49.3423 7.3931
L49.0399 7.3931
" />
<path d="M50.3099 7.2722
L50.3704 7.3327
" />
<path d="M50.3704 7.3327
L50.3099 7.3931
" />
<path d="M50.3099 7.3931
L50.2495 7.3327
" />
<path d="M50.2495 7.3327
L50.3099 7.2722
" />
<path d="M50.3099 7.2722
L50.3099 7.3931
" />
<path d="M50.3099 6.6069
L50.3704 6.6674
" />
<path d="M50.3704 6.6674
L50.3099 6.7279
" />
<path d="M50.3099 6.7279
L50.2495 6.6674
" />
<path d="M50.2495 6.6674
L50.3099 6.6069
" />
<path d="M50.3099 6.6069
L50.3099 6.7279
" />
<path d="M50.8543 7.3327
L51.0357 7.3931
" />
<path d="M51.0357 7.3931
L51.3381 7.3931
" />
<path d="M51.3381 7.3931
L51.4590 7.3327
" />
<path d="M51.4590 7.3327
L51.5195 7.2722
" />
<path d="M51.5195 7.2722
L51.5800 7.1512
" />
<path d="M51.5800 7.1512
L51.5800 7.0303
" />
<path d="M51.5800 7.0303
L51.5195 6.9093
" />
<path d="M51.5195 6.9093
L51.4590 6.8488
" />
<path d="M51.4590 6.8488
L51.3381 6.7884
" />
<path d="M51.3381 6.7884
L51.0962 6.7279
" />
<path d="M51.0962 6.7279
L50.9752 6.6674
" />
<path d="M50.9752 6.6674
L50.9147 6.6069
" />
<path d="M50.9147 6.6069
L50.8543 6.4860
" />
<path d="M50.8543 6.4860
L50.8543 6.3650
" />
<path d="M50.8543 6.3650
L50.9147 6.2441
" />
<path d="M50.9147 6.2441
L50.9752 6.1836
" />
<path d="M50.9752 6.1836
L51.0962 6.1231
" />
<path d="M51.0962 6.1231
L51.3985 6.1231
" />
<path d="M51.3985 6.1231
L51.5800 6.1836
" />
<path d="M52.3661 6.1231
L52.6080 6.1231
" />
<path d="M52.6080 6.1231
L52.7290 6.1836
" />
<path d="M52.7290 6.1836
L52.8499 6.3046
" />
<path d="M52.8499 6.3046
L52.9104 6.5465
" />
<path d="M52.9104 6.5465
L52.9104 6.9698
" />
<path d="M52.9104 6.9698
L52.8499 7.2117
" />
<path d="M52.8499 7.2117
L52.7290 7.3327
" />
<path d="M52.7290 7.3327
L52.6080 7.3931
" />
<path d="M52.6080 7.3931
L52.3661 7.3931
" />
<path d="M52.3661 7.3931
L52.2452 7.3327
" />
<path d="M52.2452 7.3327
L52.1242 7.2117
" />
<path d="M52.1242 7.2117
L52.0638 6.9698
" />
<path d="M52.0638 6.9698
L52.0638 6.5465
" />
<path d="M52.0638 6.5465
L52.1242 6.3046
" />
<path d="M52.1242 6.3046
L52.2452 6.1836
" />
<path d="M52.2452 6.1836
L52.3661 6.1231
" />
<path d="M53.2733 6.1231
L53.9990 6.1231
" />
<path d="M53.6362 7.3931
L53.6362 6.1231
" />
<path d="M54.4223 6.9093
L55.3900 6.9093
" />
<path d="M55.9343 6.2441
L55.9947 6.1836
" />
<path d="M55.9947 6.1836
L56.1157 6.1231
" />
<path d="M56.1157 6.1231
L56.4181 6.1231
" />
<path d="M56.4181 6.1231
L56.5390 6.1836
" />
<path d="M56.5390 6.1836
L56.5995 6.2441
" />
<path d="M56.5995 6.2441
L56.6600 6.3650
" />
<path d="M56.6600 6.3650
L56.6600 6.4860
" />
<path d="M56.6600 6.4860
L56.5995 6.6674
" />
<path d="M56.5995 6.6674
L55.8738 7.3931
" />
<path d="M55.8738 7.3931
L56.6600 7.3931
" />
<path d="M57.1438 6.2441
L57.2042 6.1836
" />
<path d="M57.2042 6.1836
L57.3252 6.1231
" />
<path d="M57.3252 6.1231
L57.6276 6.1231
" />
<path d="M57.6276 6.1231
L57.7485 6.1836
" />
<path d="M57.7485 6.1836
L57.8090 6.2441
" />
<path d="M57.8090 6.2441
L57.8695 6.3650
" />
<path d="M57.8695 6.3650
L57.8695 6.4860
" />
<path d="M57.8695 6.4860
L57.8090 6.6674
" />
<path d="M57.8090 6.6674
L57.0833 7.3931
" />
<path d="M57.0833 7.3931
L57.8695 7.3931
" />
<path d="M58.2928 6.1231
L59.0790 6.1231
" />
<path d="M59.0790 6.1231
L58.6556 6.6069
" />
<path d="M58.6556 6.6069
L58.8371 6.6069
" />
<path d="M58.8371 6.6069
L58.9580 6.6674
" />
<path d="M58.9580 6.6674
L59.0185 6.7279
" />
<path d="M59.0185 6.7279
L59.0790 6.8488
" />
<path d="M59.0790 6.8488
L59.0790 7.1512
" />
<path d="M59.0790 7.1512
L59.0185 7.2722
" />
<path d="M59.0185 7.2722
L58.9580 7.3327
" />
<path d="M58.9580 7.3327
L58.8371 7.3931
" />
<path d="M58.8371 7.3931
L58.4742 7.3931
" />
<path d="M58.4742 7.3931
L58.3533 7.3327
" />
<path d="M58.3533 7.3327
L58.2928 7.2722
" />
<path d="M59.6232 6.9093
L60.5909 6.9093
" />
<path d="M61.0747 6.1231
L61.8609 6.1231
" />
<path d="M61.8609 6.1231
L61.4375 6.6069
" />
<path d="M61.4375 6.6069
L61.6190 6.6069
" />
<path d="M61.6190 6.6069
L61.7399 6.6674
" />
<path d="M61.7399 6.6674
L61.8004 6.7279
" />
<path d="M61.8004 6.7279
L61.8609 6.8488
" />
<path d="M61.8609 6.8488
L61.8609 7.1512
" />
<path d="M61.8609 7.1512
L61.8004 7.2722
" />
<path d="M61.8004 7.2722
L61.7399 7.3327
" />
<path d="M61.7399 7.3327
L61.6190 7.3931
" />
<path d="M61.6190 7.3931
L61.2561 7.3931
" />
<path d="M61.2561 7.3931
L61.1352 7.3327
" />
<path d="M61.1352 7.3327
L61.0747 7.2722
" />
<path d="M62.1028 7.5141
L63.0704 7.5141
" />
<path d="M63.1913 6.1231
L63.9170 6.1231
" />
<path d="M63.5542 7.3931
L63.5542 6.1231
" />
<path d="M64.8846 7.3931
L64.8846 6.7279
" />
<path d="M64.8846 6.7279
L64.8241 6.6069
" />
<path d="M64.8241 6.6069
L64.7032 6.5465
" />
<path d="M64.7032 6.5465
L64.4613 6.5465
" />
<path d="M64.4613 6.5465
L64.3403 6.6069
" />
<path d="M64.8846 7.3327
L64.7637 7.3931
" />
<path d="M64.7637 7.3931
L64.4613 7.3931
" />
<path d="M64.4613 7.3931
L64.3403 7.3327
" />
<path d="M64.3403 7.3327
L64.2799 7.2117
" />
<path d="M64.2799 7.2117
L64.2799 7.0907
" />
<path d="M64.2799 7.0907
L64.3403 6.9698
" />
<path d="M64.3403 6.9698
L64.4613 6.9093
" />
<path d="M64.4613 6.9093
L64.7637 6.9093
" />
<path d="M64.7637 6.9093
L64.8846 6.8488
" />
<path d="M65.4893 7.3931
L65.4893 6.1231
" />
<path d="M65.4893 6.6069
L65.6103 6.5465
" />
<path d="M65.6103 6.5465
L65.8522 6.5465
" />
<path d="M65.8522 6.5465
L65.9731 6.6069
" />
<path d="M65.9731 6.6069
L66.0336 6.6674
" />
<path d="M66.0336 6.6674
L66.0941 6.7884
" />
<path d="M66.0941 6.7884
L66.0941 7.1512
" />
<path d="M66.0941 7.1512
L66.0336 7.2722
" />
<path d="M66.0336 7.2722
L65.9731 7.3327
" />
<path d="M65.9731 7.3327
L65.8522 7.3931
" />
<path d="M65.8522 7.3931
L65.6103 7.3931
" />
<path d="M65.6103 7.3931
L65.4893 7.3327
" />
<path d="M66.6383 7.3931
L66.6383 6.1231
" />
<path d="M66.6383 6.1231
L67.1221 6.1231
" />
<path d="M67.1221 6.1231
L67.2431 6.1836
" />
<path d="M67.2431 6.1836
L67.3036 6.2441
" />
<path d="M67.3036 6.2441
L67.3640 6.3650
" />
<path d="M67.3640 6.3650
L67.3640 6.5465
" />
<path d="M67.3640 6.5465
L67.3036 6.6674
" />
<path d="M67.3036 6.6674
L67.2431 6.7279
" />
<path d="M67.2431 6.7279
L67.1221 6.7884
" />
<path d="M67.1221 6.7884
L66.6383 6.7884
" />
<path d="M67.9083 7.3931
L67.9083 6.5465
" />
<path d="M67.9083 6.1231
L67.8479 6.1836
" />
<path d="M67.8479 6.1836
L67.9083 6.2441
" />
<path d="M67.9083 6.2441
L67.9688 6.1836
" />
<path d="M67.9688 6.1836
L67.9083 6.1231
" />
<path d="M67.9083 6.1231
L67.9083 6.2441
" />
<path d="M68.5131 6.5465
L68.5131 7.3931
" />
<path d="M68.5131 6.6674
L68.5736 6.6069
" />
<path d="M68.5736 6.6069
L68.6946 6.5465
" />
<path d="M68.6946 6.5465
L68.8760 6.5465
" />
<path d="M68.8760 6.5465
L68.9969 6.6069
" />
<path d="M68.9969 6.6069
L69.0574 6.7279
" />
<path d="M69.0574 6.7279
L69.0574 7.3931
" />
<path d="M69.6017 6.2441
L69.6621 6.1836
" />
<path d="M69.6621 6.1836
L69.7831 6.1231
" />
<path d="M69.7831 6.1231
L70.0855 6.1231
" />
<path d="M70.0855 6.1231
L70.2064 6.1836
" />
<path d="M70.2064 6.1836
L70.2669 6.2441
" />
<path d="M70.2669 6.2441
L70.3274 6.3650
" />
<path d="M70.3274 6.3650
L70.3274 6.4860
" />
<path d="M70.3274 6.4860
L70.2669 6.6674
" />
<path d="M70.2669 6.6674
L69.5412 7.3931
" />
<path d="M69.5412 7.3931
L70.3274 7.3931
" />
</g><text x="50.6426" y="2.3689"
textLength="84.4044" font-size="1.6933" lengthAdjust="spacingAndGlyphs"
text-anchor="middle" opacity="0">https://www.analog.com/media/en/technical-documentation/data-sheets/1175ff.pdf</text>
<g class="stroked-text"><desc>https://www.analog.com/media/en/technical-documentation/data-sheets/1175ff.pdf</desc>
<path d="M8.8539 2.3131
L8.8539 1.0431
" />
<path d="M9.3982 2.3131
L9.3982 1.6479
" />
<path d="M9.3982 1.6479
L9.3377 1.5269
" />
<path d="M9.3377 1.5269
L9.2168 1.4665
" />
<path d="M9.2168 1.4665
L9.0354 1.4665
" />
<path d="M9.0354 1.4665
L8.9144 1.5269
" />
<path d="M8.9144 1.5269
L8.8539 1.5874
" />
<path d="M9.8215 1.4665
L10.3053 1.4665
" />
<path d="M10.0029 1.0431
L10.0029 2.1317
" />
<path d="M10.0029 2.1317
L10.0634 2.2527
" />
<path d="M10.0634 2.2527
L10.1844 2.3131
" />
<path d="M10.1844 2.3131
L10.3053 2.3131
" />
<path d="M10.5472 1.4665
L11.0310 1.4665
" />
<path d="M10.7286 1.0431
L10.7286 2.1317
" />
<path d="M10.7286 2.1317
L10.7891 2.2527
" />
<path d="M10.7891 2.2527
L10.9101 2.3131
" />
<path d="M10.9101 2.3131
L11.0310 2.3131
" />
<path d="M11.4543 1.4665
L11.4543 2.7365
" />
<path d="M11.4543 1.5269
L11.5753 1.4665
" />
<path d="M11.5753 1.4665
L11.8172 1.4665
" />
<path d="M11.8172 1.4665
L11.9381 1.5269
" />
<path d="M11.9381 1.5269
L11.9986 1.5874
" />
<path d="M11.9986 1.5874
L12.0591 1.7084
" />
<path d="M12.0591 1.7084
L12.0591 2.0712
" />
<path d="M12.0591 2.0712
L11.9986 2.1922
" />
<path d="M11.9986 2.1922
L11.9381 2.2527
" />
<path d="M11.9381 2.2527
L11.8172 2.3131
" />
<path d="M11.8172 2.3131
L11.5753 2.3131
" />
<path d="M11.5753 2.3131
L11.4543 2.2527
" />
<path d="M12.5429 2.2527
L12.6638 2.3131
" />
<path d="M12.6638 2.3131
L12.9057 2.3131
" />
<path d="M12.9057 2.3131
L13.0267 2.2527
" />
<path d="M13.0267 2.2527
L13.0871 2.1317
" />
<path d="M13.0871 2.1317
L13.0871 2.0712
" />
<path d="M13.0871 2.0712
L13.0267 1.9503
" />
<path d="M13.0267 1.9503
L12.9057 1.8898
" />
<path d="M12.9057 1.8898
L12.7243 1.8898
" />
<path d="M12.7243 1.8898
L12.6033 1.8293
" />
<path d="M12.6033 1.8293
L12.5429 1.7084
" />
<path d="M12.5429 1.7084
L12.5429 1.6479
" />
<path d="M12.5429 1.6479
L12.6033 1.5269
" />
<path d="M12.6033 1.5269
L12.7243 1.4665
" />
<path d="M12.7243 1.4665
L12.9057 1.4665
" />
<path d="M12.9057 1.4665
L13.0267 1.5269
" />
<path d="M13.6314 2.1922
L13.6919 2.2527
" />
<path d="M13.6919 2.2527
L13.6314 2.3131
" />
<path d="M13.6314 2.3131
L13.5710 2.2527
" />
<path d="M13.5710 2.2527
L13.6314 2.1922
" />
<path d="M13.6314 2.1922
L13.6314 2.3131
" />
<path d="M13.6314 1.5269
L13.6919 1.5874
" />
<path d="M13.6919 1.5874
L13.6314 1.6479
" />
<path d="M13.6314 1.6479
L13.5710 1.5874
" />
<path d="M13.5710 1.5874
L13.6314 1.5269
" />
<path d="M13.6314 1.5269
L13.6314 1.6479
" />
<path d="M15.1434 0.9827
L14.0548 2.6155
" />
<path d="M16.4739 0.9827
L15.3853 2.6155
" />
<path d="M16.7763 1.4665
L17.0182 2.3131
" />
<path d="M17.0182 2.3131
L17.2601 1.7084
" />
<path d="M17.2601 1.7084
L17.5020 2.3131
" />
<path d="M17.5020 2.3131
L17.7439 1.4665
" />
<path d="M18.1068 1.4665
L18.3487 2.3131
" />
<path d="M18.3487 2.3131
L18.5906 1.7084
" />
<path d="M18.5906 1.7084
L18.8325 2.3131
" />
<path d="M18.8325 2.3131
L19.0744 1.4665
" />
<path d="M19.4373 1.4665
L19.6792 2.3131
" />
<path d="M19.6792 2.3131
L19.9211 1.7084
" />
<path d="M19.9211 1.7084
L20.1630 2.3131
" />
<path d="M20.1630 2.3131
L20.4049 1.4665
" />
<path d="M20.8887 2.1922
L20.9492 2.2527
" />
<path d="M20.9492 2.2527
L20.8887 2.3131
" />
<path d="M20.8887 2.3131
L20.8283 2.2527
" />
<path d="M20.8283 2.2527
L20.8887 2.1922
" />
<path d="M20.8887 2.1922
L20.8887 2.3131
" />
<path d="M22.0378 2.3131
L22.0378 1.6479
" />
<path d="M22.0378 1.6479
L21.9773 1.5269
" />
<path d="M21.9773 1.5269
L21.8564 1.4665
" />
<path d="M21.8564 1.4665
L21.6145 1.4665
" />
<path d="M21.6145 1.4665
L21.4935 1.5269
" />
<path d="M22.0378 2.2527
L21.9169 2.3131
" />
<path d="M21.9169 2.3131
L21.6145 2.3131
" />
<path d="M21.6145 2.3131
L21.4935 2.2527
" />
<path d="M21.4935 2.2527
L21.4331 2.1317
" />
<path d="M21.4331 2.1317
L21.4331 2.0107
" />
<path d="M21.4331 2.0107
L21.4935 1.8898
" />
<path d="M21.4935 1.8898
L21.6145 1.8293
" />
<path d="M21.6145 1.8293
L21.9169 1.8293
" />
<path d="M21.9169 1.8293
L22.0378 1.7688
" />
<path d="M22.6425 1.4665
L22.6425 2.3131
" />
<path d="M22.6425 1.5874
L22.7030 1.5269
" />
<path d="M22.7030 1.5269
L22.8240 1.4665
" />
<path d="M22.8240 1.4665
L23.0054 1.4665
" />
<path d="M23.0054 1.4665
L23.1263 1.5269
" />
<path d="M23.1263 1.5269
L23.1868 1.6479
" />
<path d="M23.1868 1.6479
L23.1868 2.3131
" />
<path d="M24.3358 2.3131
L24.3358 1.6479
" />
<path d="M24.3358 1.6479
L24.2753 1.5269
" />
<path d="M24.2753 1.5269
L24.1544 1.4665
" />
<path d="M24.1544 1.4665
L23.9125 1.4665
" />
<path d="M23.9125 1.4665
L23.7915 1.5269
" />
<path d="M24.3358 2.2527
L24.2149 2.3131
" />
<path d="M24.2149 2.3131
L23.9125 2.3131
" />
<path d="M23.9125 2.3131
L23.7915 2.2527
" />
<path d="M23.7915 2.2527
L23.7311 2.1317
" />
<path d="M23.7311 2.1317
L23.7311 2.0107
" />
<path d="M23.7311 2.0107
L23.7915 1.8898
" />
<path d="M23.7915 1.8898
L23.9125 1.8293
" />
<path d="M23.9125 1.8293
L24.2149 1.8293
" />
<path d="M24.2149 1.8293
L24.3358 1.7688
" />
<path d="M25.1220 2.3131
L25.0010 2.2527
" />
<path d="M25.0010 2.2527
L24.9405 2.1317
" />
<path d="M24.9405 2.1317
L24.9405 1.0431
" />
<path d="M25.7872 2.3131
L25.6662 2.2527
" />
<path d="M25.6662 2.2527
L25.6057 2.1922
" />
<path d="M25.6057 2.1922
L25.5453 2.0712
" />
<path d="M25.5453 2.0712
L25.5453 1.7084
" />
<path d="M25.5453 1.7084
L25.6057 1.5874
" />
<path d="M25.6057 1.5874
L25.6662 1.5269
" />
<path d="M25.6662 1.5269
L25.7872 1.4665
" />
<path d="M25.7872 1.4665
L25.9686 1.4665
" />
<path d="M25.9686 1.4665
L26.0895 1.5269
" />
<path d="M26.0895 1.5269
L26.1500 1.5874
" />
<path d="M26.1500 1.5874
L26.2105 1.7084
" />
<path d="M26.2105 1.7084
L26.2105 2.0712
" />
<path d="M26.2105 2.0712
L26.1500 2.1922
" />
<path d="M26.1500 2.1922
L26.0895 2.2527
" />
<path d="M26.0895 2.2527
L25.9686 2.3131
" />
<path d="M25.9686 2.3131
L25.7872 2.3131
" />
<path d="M27.2990 1.4665
L27.2990 2.4946
" />
<path d="M27.2990 2.4946
L27.2385 2.6155
" />
<path d="M27.2385 2.6155
L27.1781 2.6760
" />
<path d="M27.1781 2.6760
L27.0571 2.7365
" />
<path d="M27.0571 2.7365
L26.8757 2.7365
" />
<path d="M26.8757 2.7365
L26.7547 2.6760
" />
<path d="M27.2990 2.2527
L27.1781 2.3131
" />
<path d="M27.1781 2.3131
L26.9362 2.3131
" />
<path d="M26.9362 2.3131
L26.8152 2.2527
" />
<path d="M26.8152 2.2527
L26.7547 2.1922
" />
<path d="M26.7547 2.1922
L26.6943 2.0712
" />
<path d="M26.6943 2.0712
L26.6943 1.7084
" />
<path d="M26.6943 1.7084
L26.7547 1.5874
" />
<path d="M26.7547 1.5874
L26.8152 1.5269
" />
<path d="M26.8152 1.5269
L26.9362 1.4665
" />
<path d="M26.9362 1.4665
L27.1781 1.4665
" />
<path d="M27.1781 1.4665
L27.2990 1.5269
" />
<path d="M27.9037 2.1922
L27.9642 2.2527
" />
<path d="M27.9642 2.2527
L27.9037 2.3131
" />
<path d="M27.9037 2.3131
L27.8433 2.2527
" />
<path d="M27.8433 2.2527
L27.9037 2.1922
" />
<path d="M27.9037 2.1922
L27.9037 2.3131
" />
<path d="M29.0528 2.2527
L28.9319 2.3131
" />
<path d="M28.9319 2.3131
L28.6900 2.3131
" />
<path d="M28.6900 2.3131
L28.5690 2.2527
" />
<path d="M28.5690 2.2527
L28.5085 2.1922
" />
<path d="M28.5085 2.1922
L28.4481 2.0712
" />
<path d="M28.4481 2.0712
L28.4481 1.7084
" />
<path d="M28.4481 1.7084
L28.5085 1.5874
" />
<path d="M28.5085 1.5874
L28.5690 1.5269
" />
<path d="M28.5690 1.5269
L28.6900 1.4665
" />
<path d="M28.6900 1.4665
L28.9319 1.4665
" />
<path d="M28.9319 1.4665
L29.0528 1.5269
" />
<path d="M29.7786 2.3131
L29.6576 2.2527
" />
<path d="M29.6576 2.2527
L29.5971 2.1922
" />
<path d="M29.5971 2.1922
L29.5367 2.0712
" />
<path d="M29.5367 2.0712
L29.5367 1.7084
" />
<path d="M29.5367 1.7084
L29.5971 1.5874
" />
<path d="M29.5971 1.5874
L29.6576 1.5269
" />
<path d="M29.6576 1.5269
L29.7786 1.4665
" />
<path d="M29.7786 1.4665
L29.9600 1.4665
" />
<path d="M29.9600 1.4665
L30.0809 1.5269
" />
<path d="M30.0809 1.5269
L30.1414 1.5874
" />
<path d="M30.1414 1.5874
L30.2019 1.7084
" />
<path d="M30.2019 1.7084
L30.2019 2.0712
" />
<path d="M30.2019 2.0712
L30.1414 2.1922
" />
<path d="M30.1414 2.1922
L30.0809 2.2527
" />
<path d="M30.0809 2.2527
L29.9600 2.3131
" />
<path d="M29.9600 2.3131
L29.7786 2.3131
" />
<path d="M30.7461 2.3131
L30.7461 1.4665
" />
<path d="M30.7461 1.5874
L30.8066 1.5269
" />
<path d="M30.8066 1.5269
L30.9276 1.4665
" />
<path d="M30.9276 1.4665
L31.1090 1.4665
" />
<path d="M31.1090 1.4665
L31.2299 1.5269
" />
<path d="M31.2299 1.5269
L31.2904 1.6479
" />
<path d="M31.2904 1.6479
L31.2904 2.3131
" />
<path d="M31.2904 1.6479
L31.3509 1.5269
" />
<path d="M31.3509 1.5269
L31.4718 1.4665
" />
<path d="M31.4718 1.4665
L31.6533 1.4665
" />
<path d="M31.6533 1.4665
L31.7742 1.5269
" />
<path d="M31.7742 1.5269
L31.8347 1.6479
" />
<path d="M31.8347 1.6479
L31.8347 2.3131
" />
<path d="M33.3466 0.9827
L32.2580 2.6155
" />
<path d="M33.7699 2.3131
L33.7699 1.4665
" />
<path d="M33.7699 1.5874
L33.8304 1.5269
" />
<path d="M33.8304 1.5269
L33.9514 1.4665
" />
<path d="M33.9514 1.4665
L34.1328 1.4665
" />
<path d="M34.1328 1.4665
L34.2537 1.5269
" />
<path d="M34.2537 1.5269
L34.3142 1.6479
" />
<path d="M34.3142 1.6479
L34.3142 2.3131
" />
<path d="M34.3142 1.6479
L34.3747 1.5269
" />
<path d="M34.3747 1.5269
L34.4956 1.4665
" />
<path d="M34.4956 1.4665
L34.6771 1.4665
" />
<path d="M34.6771 1.4665
L34.7980 1.5269
" />
<path d="M34.7980 1.5269
L34.8585 1.6479
" />
<path d="M34.8585 1.6479
L34.8585 2.3131
" />
<path d="M35.9470 2.2527
L35.8261 2.3131
" />
<path d="M35.8261 2.3131
L35.5842 2.3131
" />
<path d="M35.5842 2.3131
L35.4632 2.2527
" />
<path d="M35.4632 2.2527
L35.4028 2.1317
" />
<path d="M35.4028 2.1317
L35.4028 1.6479
" />
<path d="M35.4028 1.6479
L35.4632 1.5269
" />
<path d="M35.4632 1.5269
L35.5842 1.4665
" />
<path d="M35.5842 1.4665
L35.8261 1.4665
" />
<path d="M35.8261 1.4665
L35.9470 1.5269
" />
<path d="M35.9470 1.5269
L36.0075 1.6479
" />
<path d="M36.0075 1.6479
L36.0075 1.7688
" />
<path d="M36.0075 1.7688
L35.4028 1.8898
" />
<path d="M37.0961 2.3131
L37.0961 1.0431
" />
<path d="M37.0961 2.2527
L36.9752 2.3131
" />
<path d="M36.9752 2.3131
L36.7333 2.3131
" />
<path d="M36.7333 2.3131
L36.6123 2.2527
" />
<path d="M36.6123 2.2527
L36.5518 2.1922
" />
<path d="M36.5518 2.1922
L36.4914 2.0712
" />
<path d="M36.4914 2.0712
L36.4914 1.7084
" />
<path d="M36.4914 1.7084
L36.5518 1.5874
" />
<path d="M36.5518 1.5874
L36.6123 1.5269
" />
<path d="M36.6123 1.5269
L36.7333 1.4665
" />
<path d="M36.7333 1.4665
L36.9752 1.4665
" />
<path d="M36.9752 1.4665
L37.0961 1.5269
" />
<path d="M37.7008 2.3131
L37.7008 1.4665
" />
<path d="M37.7008 1.0431
L37.6404 1.1036
" />
<path d="M37.6404 1.1036
L37.7008 1.1641
" />
<path d="M37.7008 1.1641
L37.7613 1.1036
" />
<path d="M37.7613 1.1036
L37.7008 1.0431
" />
<path d="M37.7008 1.0431
L37.7008 1.1641
" />
<path d="M38.8499 2.3131
L38.8499 1.6479
" />
<path d="M38.8499 1.6479
L38.7894 1.5269
" />
<path d="M38.7894 1.5269
L38.6685 1.4665
" />
<path d="M38.6685 1.4665
L38.4266 1.4665
" />
<path d="M38.4266 1.4665
L38.3056 1.5269
" />
<path d="M38.8499 2.2527
L38.7290 2.3131
" />
<path d="M38.7290 2.3131
L38.4266 2.3131
" />
<path d="M38.4266 2.3131
L38.3056 2.2527
" />
<path d="M38.3056 2.2527
L38.2452 2.1317
" />
<path d="M38.2452 2.1317
L38.2452 2.0107
" />
<path d="M38.2452 2.0107
L38.3056 1.8898
" />
<path d="M38.3056 1.8898
L38.4266 1.8293
" />
<path d="M38.4266 1.8293
L38.7290 1.8293
" />
<path d="M38.7290 1.8293
L38.8499 1.7688
" />
<path d="M40.3618 0.9827
L39.2732 2.6155
" />
<path d="M41.2689 2.2527
L41.1480 2.3131
" />
<path d="M41.1480 2.3131
L40.9061 2.3131
" />
<path d="M40.9061 2.3131
L40.7851 2.2527
" />
<path d="M40.7851 2.2527
L40.7247 2.1317
" />
<path d="M40.7247 2.1317
L40.7247 1.6479
" />
<path d="M40.7247 1.6479
L40.7851 1.5269
" />
<path d="M40.7851 1.5269
L40.9061 1.4665
" />
<path d="M40.9061 1.4665
L41.1480 1.4665
" />
<path d="M41.1480 1.4665
L41.2689 1.5269
" />
<path d="M41.2689 1.5269
L41.3294 1.6479
" />
<path d="M41.3294 1.6479
L41.3294 1.7688
" />
<path d="M41.3294 1.7688
L40.7247 1.8898
" />
<path d="M41.8737 1.4665
L41.8737 2.3131
" />
<path d="M41.8737 1.5874
L41.9342 1.5269
" />
<path d="M41.9342 1.5269
L42.0552 1.4665
" />
<path d="M42.0552 1.4665
L42.2366 1.4665
" />
<path d="M42.2366 1.4665
L42.3575 1.5269
" />
<path d="M42.3575 1.5269
L42.4180 1.6479
" />
<path d="M42.4180 1.6479
L42.4180 2.3131
" />
<path d="M43.9299 0.9827
L42.8413 2.6155
" />
<path d="M44.1718 1.4665
L44.6556 1.4665
" />
<path d="M44.3532 1.0431
L44.3532 2.1317
" />
<path d="M44.3532 2.1317
L44.4137 2.2527
" />
<path d="M44.4137 2.2527
L44.5347 2.3131
" />
<path d="M44.5347 2.3131
L44.6556 2.3131
" />
<path d="M45.5627 2.2527
L45.4418 2.3131
" />
<path d="M45.4418 2.3131
L45.1999 2.3131
" />
<path d="M45.1999 2.3131
L45.0789 2.2527
" />
<path d="M45.0789 2.2527
L45.0185 2.1317
" />
<path d="M45.0185 2.1317
L45.0185 1.6479
" />
<path d="M45.0185 1.6479
L45.0789 1.5269
" />
<path d="M45.0789 1.5269
L45.1999 1.4665
" />
<path d="M45.1999 1.4665
L45.4418 1.4665
" />
<path d="M45.4418 1.4665
L45.5627 1.5269
" />
<path d="M45.5627 1.5269
L45.6232 1.6479
" />
<path d="M45.6232 1.6479
L45.6232 1.7688
" />
<path d="M45.6232 1.7688
L45.0185 1.8898
" />
<path d="M46.7118 2.2527
L46.5909 2.3131
" />
<path d="M46.5909 2.3131
L46.3490 2.3131
" />
<path d="M46.3490 2.3131
L46.2280 2.2527
" />
<path d="M46.2280 2.2527
L46.1675 2.1922
" />
<path d="M46.1675 2.1922
L46.1071 2.0712
" />
<path d="M46.1071 2.0712
L46.1071 1.7084
" />
<path d="M46.1071 1.7084
L46.1675 1.5874
" />
<path d="M46.1675 1.5874
L46.2280 1.5269
" />
<path d="M46.2280 1.5269
L46.3490 1.4665
" />
<path d="M46.3490 1.4665
L46.5909 1.4665
" />
<path d="M46.5909 1.4665
L46.7118 1.5269
" />
<path d="M47.2561 2.3131
L47.2561 1.0431
" />
<path d="M47.8004 2.3131
L47.8004 1.6479
" />
<path d="M47.8004 1.6479
L47.7399 1.5269
" />
<path d="M47.7399 1.5269
L47.6190 1.4665
" />
<path d="M47.6190 1.4665
L47.4376 1.4665
" />
<path d="M47.4376 1.4665
L47.3166 1.5269
" />
<path d="M47.3166 1.5269
L47.2561 1.5874
" />
<path d="M48.4051 1.4665
L48.4051 2.3131
" />
<path d="M48.4051 1.5874
L48.4656 1.5269
" />
<path d="M48.4656 1.5269
L48.5866 1.4665
" />
<path d="M48.5866 1.4665
L48.7680 1.4665
" />
<path d="M48.7680 1.4665
L48.8889 1.5269
" />
<path d="M48.8889 1.5269
L48.9494 1.6479
" />
<path d="M48.9494 1.6479
L48.9494 2.3131
" />
<path d="M49.5541 2.3131
L49.5541 1.4665
" />
<path d="M49.5541 1.0431
L49.4937 1.1036
" />
<path d="M49.4937 1.1036
L49.5541 1.1641
" />
<path d="M49.5541 1.1641
L49.6146 1.1036
" />
<path d="M49.6146 1.1036
L49.5541 1.0431
" />
<path d="M49.5541 1.0431
L49.5541 1.1641
" />
<path d="M50.7032 2.2527
L50.5823 2.3131
" />
<path d="M50.5823 2.3131
L50.3404 2.3131
" />
<path d="M50.3404 2.3131
L50.2194 2.2527
" />
<path d="M50.2194 2.2527
L50.1589 2.1922
" />
<path d="M50.1589 2.1922
L50.0985 2.0712
" />
<path d="M50.0985 2.0712
L50.0985 1.7084
" />
<path d="M50.0985 1.7084
L50.1589 1.5874
" />
<path d="M50.1589 1.5874
L50.2194 1.5269
" />
<path d="M50.2194 1.5269
L50.3404 1.4665
" />
<path d="M50.3404 1.4665
L50.5823 1.4665
" />
<path d="M50.5823 1.4665
L50.7032 1.5269
" />
<path d="M51.7918 2.3131
L51.7918 1.6479
" />
<path d="M51.7918 1.6479
L51.7313 1.5269
" />
<path d="M51.7313 1.5269
L51.6104 1.4665
" />
<path d="M51.6104 1.4665
L51.3685 1.4665
" />
<path d="M51.3685 1.4665
L51.2475 1.5269
" />
<path d="M51.7918 2.2527
L51.6709 2.3131
" />
<path d="M51.6709 2.3131
L51.3685 2.3131
" />
<path d="M51.3685 2.3131
L51.2475 2.2527
" />
<path d="M51.2475 2.2527
L51.1871 2.1317
" />
<path d="M51.1871 2.1317
L51.1871 2.0107
" />
<path d="M51.1871 2.0107
L51.2475 1.8898
" />
<path d="M51.2475 1.8898
L51.3685 1.8293
" />
<path d="M51.3685 1.8293
L51.6709 1.8293
" />
<path d="M51.6709 1.8293
L51.7918 1.7688
" />
<path d="M52.5780 2.3131
L52.4570 2.2527
" />
<path d="M52.4570 2.2527
L52.3965 2.1317
" />
<path d="M52.3965 2.1317
L52.3965 1.0431
" />
<path d="M53.0617 1.8293
L54.0294 1.8293
" />
<path d="M55.1784 2.3131
L55.1784 1.0431
" />
<path d="M55.1784 2.2527
L55.0575 2.3131
" />
<path d="M55.0575 2.3131
L54.8156 2.3131
" />
<path d="M54.8156 2.3131
L54.6946 2.2527
" />
<path d="M54.6946 2.2527
L54.6341 2.1922
" />
<path d="M54.6341 2.1922
L54.5737 2.0712
" />
<path d="M54.5737 2.0712
L54.5737 1.7084
" />
<path d="M54.5737 1.7084
L54.6341 1.5874
" />
<path d="M54.6341 1.5874
L54.6946 1.5269
" />
<path d="M54.6946 1.5269
L54.8156 1.4665
" />
<path d="M54.8156 1.4665
L55.0575 1.4665
" />
<path d="M55.0575 1.4665
L55.1784 1.5269
" />
<path d="M55.9646 2.3131
L55.8436 2.2527
" />
<path d="M55.8436 2.2527
L55.7831 2.1922
" />
<path d="M55.7831 2.1922
L55.7227 2.0712
" />
<path d="M55.7227 2.0712
L55.7227 1.7084
" />
<path d="M55.7227 1.7084
L55.7831 1.5874
" />
<path d="M55.7831 1.5874
L55.8436 1.5269
" />
<path d="M55.8436 1.5269
L55.9646 1.4665
" />
<path d="M55.9646 1.4665
L56.1460 1.4665
" />
<path d="M56.1460 1.4665
L56.2669 1.5269
" />
<path d="M56.2669 1.5269
L56.3274 1.5874
" />
<path d="M56.3274 1.5874
L56.3879 1.7084
" />
<path d="M56.3879 1.7084
L56.3879 2.0712
" />
<path d="M56.3879 2.0712
L56.3274 2.1922
" />
<path d="M56.3274 2.1922
L56.2669 2.2527
" />
<path d="M56.2669 2.2527
L56.1460 2.3131
" />
<path d="M56.1460 2.3131
L55.9646 2.3131
" />
<path d="M57.4764 2.2527
L57.3555 2.3131
" />
<path d="M57.3555 2.3131
L57.1136 2.3131
" />
<path d="M57.1136 2.3131
L56.9926 2.2527
" />
<path d="M56.9926 2.2527
L56.9321 2.1922
" />
<path d="M56.9321 2.1922
L56.8717 2.0712
" />
<path d="M56.8717 2.0712
L56.8717 1.7084
" />
<path d="M56.8717 1.7084
L56.9321 1.5874
" />
<path d="M56.9321 1.5874
L56.9926 1.5269
" />
<path d="M56.9926 1.5269
L57.1136 1.4665
" />
<path d="M57.1136 1.4665
L57.3555 1.4665
" />
<path d="M57.3555 1.4665
L57.4764 1.5269
" />
<path d="M58.5650 1.4665
L58.5650 2.3131
" />
<path d="M58.0207 1.4665
L58.0207 2.1317
" />
<path d="M58.0207 2.1317
L58.0812 2.2527
" />
<path d="M58.0812 2.2527
L58.2022 2.3131
" />
<path d="M58.2022 2.3131
L58.3836 2.3131
" />
<path d="M58.3836 2.3131
L58.5045 2.2527
" />
<path d="M58.5045 2.2527
L58.5650 2.1922
" />
<path d="M59.1697 2.3131
L59.1697 1.4665
" />
<path d="M59.1697 1.5874
L59.2302 1.5269
" />
<path d="M59.2302 1.5269
L59.3512 1.4665
" />
<path d="M59.3512 1.4665
L59.5326 1.4665
" />
<path d="M59.5326 1.4665
L59.6535 1.5269
" />
<path d="M59.6535 1.5269
L59.7140 1.6479
" />
<path d="M59.7140 1.6479
L59.7140 2.3131
" />
<path d="M59.7140 1.6479
L59.7745 1.5269
" />
<path d="M59.7745 1.5269
L59.8954 1.4665
" />
<path d="M59.8954 1.4665
L60.0769 1.4665
" />
<path d="M60.0769 1.4665
L60.1978 1.5269
" />
<path d="M60.1978 1.5269
L60.2583 1.6479
" />
<path d="M60.2583 1.6479
L60.2583 2.3131
" />
<path d="M61.3468 2.2527
L61.2259 2.3131
" />
<path d="M61.2259 2.3131
L60.9840 2.3131
" />
<path d="M60.9840 2.3131
L60.8630 2.2527
" />
<path d="M60.8630 2.2527
L60.8026 2.1317
" />
<path d="M60.8026 2.1317
L60.8026 1.6479
" />
<path d="M60.8026 1.6479
L60.8630 1.5269
" />
<path d="M60.8630 1.5269
L60.9840 1.4665
" />
<path d="M60.9840 1.4665
L61.2259 1.4665
" />
<path d="M61.2259 1.4665
L61.3468 1.5269
" />
<path d="M61.3468 1.5269
L61.4073 1.6479
" />
<path d="M61.4073 1.6479
L61.4073 1.7688
" />
<path d="M61.4073 1.7688
L60.8026 1.8898
" />
<path d="M61.9516 1.4665
L61.9516 2.3131
" />
<path d="M61.9516 1.5874
L62.0121 1.5269
" />
<path d="M62.0121 1.5269
L62.1331 1.4665
" />
<path d="M62.1331 1.4665
L62.3145 1.4665
" />
<path d="M62.3145 1.4665
L62.4354 1.5269
" />
<path d="M62.4354 1.5269
L62.4959 1.6479
" />
<path d="M62.4959 1.6479
L62.4959 2.3131
" />
<path d="M62.9192 1.4665
L63.4030 1.4665
" />
<path d="M63.1006 1.0431
L63.1006 2.1317
" />
<path d="M63.1006 2.1317
L63.1611 2.2527
" />
<path d="M63.1611 2.2527
L63.2821 2.3131
" />
<path d="M63.2821 2.3131
L63.4030 2.3131
" />
<path d="M64.3706 2.3131
L64.3706 1.6479
" />
<path d="M64.3706 1.6479
L64.3101 1.5269
" />
<path d="M64.3101 1.5269
L64.1892 1.4665
" />
<path d="M64.1892 1.4665
L63.9473 1.4665
" />
<path d="M63.9473 1.4665
L63.8263 1.5269
" />
<path d="M64.3706 2.2527
L64.2497 2.3131
" />
<path d="M64.2497 2.3131
L63.9473 2.3131
" />
<path d="M63.9473 2.3131
L63.8263 2.2527
" />
<path d="M63.8263 2.2527
L63.7659 2.1317
" />
<path d="M63.7659 2.1317
L63.7659 2.0107
" />
<path d="M63.7659 2.0107
L63.8263 1.8898
" />
<path d="M63.8263 1.8898
L63.9473 1.8293
" />
<path d="M63.9473 1.8293
L64.2497 1.8293
" />
<path d="M64.2497 1.8293
L64.3706 1.7688
" />
<path d="M64.7939 1.4665
L65.2777 1.4665
" />
<path d="M64.9753 1.0431
L64.9753 2.1317
" />
<path d="M64.9753 2.1317
L65.0358 2.2527
" />
<path d="M65.0358 2.2527
L65.1568 2.3131
" />
<path d="M65.1568 2.3131
L65.2777 2.3131
" />
<path d="M65.7010 2.3131
L65.7010 1.4665
" />
<path d="M65.7010 1.0431
L65.6406 1.1036
" />
<path d="M65.6406 1.1036
L65.7010 1.1641
" />
<path d="M65.7010 1.1641
L65.7615 1.1036
" />
<path d="M65.7615 1.1036
L65.7010 1.0431
" />
<path d="M65.7010 1.0431
L65.7010 1.1641
" />
<path d="M66.4873 2.3131
L66.3663 2.2527
" />
<path d="M66.3663 2.2527
L66.3058 2.1922
" />
<path d="M66.3058 2.1922
L66.2454 2.0712
" />
<path d="M66.2454 2.0712
L66.2454 1.7084
" />
<path d="M66.2454 1.7084
L66.3058 1.5874
" />
<path d="M66.3058 1.5874
L66.3663 1.5269
" />
<path d="M66.3663 1.5269
L66.4873 1.4665
" />
<path d="M66.4873 1.4665
L66.6687 1.4665
" />
<path d="M66.6687 1.4665
L66.7896 1.5269
" />
<path d="M66.7896 1.5269
L66.8501 1.5874
" />
<path d="M66.8501 1.5874
L66.9106 1.7084
" />
<path d="M66.9106 1.7084
L66.9106 2.0712
" />
<path d="M66.9106 2.0712
L66.8501 2.1922
" />
<path d="M66.8501 2.1922
L66.7896 2.2527
" />
<path d="M66.7896 2.2527
L66.6687 2.3131
" />
<path d="M66.6687 2.3131
L66.4873 2.3131
" />
<path d="M67.4548 1.4665
L67.4548 2.3131
" />
<path d="M67.4548 1.5874
L67.5153 1.5269
" />
<path d="M67.5153 1.5269
L67.6363 1.4665
" />
<path d="M67.6363 1.4665
L67.8177 1.4665
" />
<path d="M67.8177 1.4665
L67.9386 1.5269
" />
<path d="M67.9386 1.5269
L67.9991 1.6479
" />
<path d="M67.9991 1.6479
L67.9991 2.3131
" />
<path d="M69.5110 0.9827
L68.4224 2.6155
" />
<path d="M70.4786 2.3131
L70.4786 1.0431
" />
<path d="M70.4786 2.2527
L70.3577 2.3131
" />
<path d="M70.3577 2.3131
L70.1158 2.3131
" />
<path d="M70.1158 2.3131
L69.9948 2.2527
" />
<path d="M69.9948 2.2527
L69.9343 2.1922
" />
<path d="M69.9343 2.1922
L69.8739 2.0712
" />
<path d="M69.8739 2.0712
L69.8739 1.7084
" />
<path d="M69.8739 1.7084
L69.9343 1.5874
" />
<path d="M69.9343 1.5874
L69.9948 1.5269
" />
<path d="M69.9948 1.5269
L70.1158 1.4665
" />
<path d="M70.1158 1.4665
L70.3577 1.4665
" />
<path d="M70.3577 1.4665
L70.4786 1.5269
" />
<path d="M71.6276 2.3131
L71.6276 1.6479
" />
<path d="M71.6276 1.6479
L71.5671 1.5269
" />
<path d="M71.5671 1.5269
L71.4462 1.4665
" />
<path d="M71.4462 1.4665
L71.2043 1.4665
" />
<path d="M71.2043 1.4665
L71.0833 1.5269
" />
<path d="M71.6276 2.2527
L71.5067 2.3131
" />
<path d="M71.5067 2.3131
L71.2043 2.3131
" />
<path d="M71.2043 2.3131
L71.0833 2.2527
" />
<path d="M71.0833 2.2527
L71.0229 2.1317
" />
<path d="M71.0229 2.1317
L71.0229 2.0107
" />
<path d="M71.0229 2.0107
L71.0833 1.8898
" />
<path d="M71.0833 1.8898
L71.2043 1.8293
" />
<path d="M71.2043 1.8293
L71.5067 1.8293
" />
<path d="M71.5067 1.8293
L71.6276 1.7688
" />
<path d="M72.0509 1.4665
L72.5347 1.4665
" />
<path d="M72.2323 1.0431
L72.2323 2.1317
" />
<path d="M72.2323 2.1317
L72.2928 2.2527
" />
<path d="M72.2928 2.2527
L72.4138 2.3131
" />
<path d="M72.4138 2.3131
L72.5347 2.3131
" />
<path d="M73.5023 2.3131
L73.5023 1.6479
" />
<path d="M73.5023 1.6479
L73.4418 1.5269
" />
<path d="M73.4418 1.5269
L73.3209 1.4665
" />
<path d="M73.3209 1.4665
L73.0790 1.4665
" />
<path d="M73.0790 1.4665
L72.9580 1.5269
" />
<path d="M73.5023 2.2527
L73.3814 2.3131
" />
<path d="M73.3814 2.3131
L73.0790 2.3131
" />
<path d="M73.0790 2.3131
L72.9580 2.2527
" />
<path d="M72.9580 2.2527
L72.8976 2.1317
" />
<path d="M72.8976 2.1317
L72.8976 2.0107
" />
<path d="M72.8976 2.0107
L72.9580 1.8898
" />
<path d="M72.9580 1.8898
L73.0790 1.8293
" />
<path d="M73.0790 1.8293
L73.3814 1.8293
" />
<path d="M73.3814 1.8293
L73.5023 1.7688
" />
<path d="M74.1070 1.8293
L75.0747 1.8293
" />
<path d="M75.6190 2.2527
L75.7399 2.3131
" />
<path d="M75.7399 2.3131
L75.9818 2.3131
" />
<path d="M75.9818 2.3131
L76.1028 2.2527
" />
<path d="M76.1028 2.2527
L76.1632 2.1317
" />
<path d="M76.1632 2.1317
L76.1632 2.0712
" />
<path d="M76.1632 2.0712
L76.1028 1.9503
" />
<path d="M76.1028 1.9503
L75.9818 1.8898
" />
<path d="M75.9818 1.8898
L75.8004 1.8898
" />
<path d="M75.8004 1.8898
L75.6794 1.8293
" />
<path d="M75.6794 1.8293
L75.6190 1.7084
" />
<path d="M75.6190 1.7084
L75.6190 1.6479
" />
<path d="M75.6190 1.6479
L75.6794 1.5269
" />
<path d="M75.6794 1.5269
L75.8004 1.4665
" />
<path d="M75.8004 1.4665
L75.9818 1.4665
" />
<path d="M75.9818 1.4665
L76.1028 1.5269
" />
<path d="M76.7075 2.3131
L76.7075 1.0431
" />
<path d="M77.2518 2.3131
L77.2518 1.6479
" />
<path d="M77.2518 1.6479
L77.1913 1.5269
" />
<path d="M77.1913 1.5269
L77.0704 1.4665
" />
<path d="M77.0704 1.4665
L76.8890 1.4665
" />
<path d="M76.8890 1.4665
L76.7680 1.5269
" />
<path d="M76.7680 1.5269
L76.7075 1.5874
" />
<path d="M78.3403 2.2527
L78.2194 2.3131
" />
<path d="M78.2194 2.3131
L77.9775 2.3131
" />
<path d="M77.9775 2.3131
L77.8565 2.2527
" />
<path d="M77.8565 2.2527
L77.7961 2.1317
" />
<path d="M77.7961 2.1317
L77.7961 1.6479
" />
<path d="M77.7961 1.6479
L77.8565 1.5269
" />
<path d="M77.8565 1.5269
L77.9775 1.4665
" />
<path d="M77.9775 1.4665
L78.2194 1.4665
" />
<path d="M78.2194 1.4665
L78.3403 1.5269
" />
<path d="M78.3403 1.5269
L78.4008 1.6479
" />
<path d="M78.4008 1.6479
L78.4008 1.7688
" />
<path d="M78.4008 1.7688
L77.7961 1.8898
" />
<path d="M79.4289 2.2527
L79.3080 2.3131
" />
<path d="M79.3080 2.3131
L79.0661 2.3131
" />
<path d="M79.0661 2.3131
L78.9451 2.2527
" />
<path d="M78.9451 2.2527
L78.8847 2.1317
" />
<path d="M78.8847 2.1317
L78.8847 1.6479
" />
<path d="M78.8847 1.6479
L78.9451 1.5269
" />
<path d="M78.9451 1.5269
L79.0661 1.4665
" />
<path d="M79.0661 1.4665
L79.3080 1.4665
" />
<path d="M79.3080 1.4665
L79.4289 1.5269
" />
<path d="M79.4289 1.5269
L79.4894 1.6479
" />
<path d="M79.4894 1.6479
L79.4894 1.7688
" />
<path d="M79.4894 1.7688
L78.8847 1.8898
" />
<path d="M79.8523 1.4665
L80.3361 1.4665
" />
<path d="M80.0337 1.0431
L80.0337 2.1317
" />
<path d="M80.0337 2.1317
L80.0942 2.2527
" />
<path d="M80.0942 2.2527
L80.2152 2.3131
" />
<path d="M80.2152 2.3131
L80.3361 2.3131
" />
<path d="M80.6990 2.2527
L80.8199 2.3131
" />
<path d="M80.8199 2.3131
L81.0618 2.3131
" />
<path d="M81.0618 2.3131
L81.1828 2.2527
" />
<path d="M81.1828 2.2527
L81.2432 2.1317
" />
<path d="M81.2432 2.1317
L81.2432 2.0712
" />
<path d="M81.2432 2.0712
L81.1828 1.9503
" />
<path d="M81.1828 1.9503
L81.0618 1.8898
" />
<path d="M81.0618 1.8898
L80.8804 1.8898
" />
<path d="M80.8804 1.8898
L80.7594 1.8293
" />
<path d="M80.7594 1.8293
L80.6990 1.7084
" />
<path d="M80.6990 1.7084
L80.6990 1.6479
" />
<path d="M80.6990 1.6479
L80.7594 1.5269
" />
<path d="M80.7594 1.5269
L80.8804 1.4665
" />
<path d="M80.8804 1.4665
L81.0618 1.4665
" />
<path d="M81.0618 1.4665
L81.1828 1.5269
" />
<path d="M82.6947 0.9827
L81.6061 2.6155
" />
<path d="M83.7833 2.3131
L83.0576 2.3131
" />
<path d="M83.4204 2.3131
L83.4204 1.0431
" />
<path d="M83.4204 1.0431
L83.2995 1.2246
" />
<path d="M83.2995 1.2246
L83.1785 1.3455
" />
<path d="M83.1785 1.3455
L83.0576 1.4060
" />
<path d="M84.9928 2.3131
L84.2671 2.3131
" />
<path d="M84.6299 2.3131
L84.6299 1.0431
" />
<path d="M84.6299 1.0431
L84.5090 1.2246
" />
<path d="M84.5090 1.2246
L84.3880 1.3455
" />
<path d="M84.3880 1.3455
L84.2671 1.4060
" />
<path d="M85.4161 1.0431
L86.2627 1.0431
" />
<path d="M86.2627 1.0431
L85.7185 2.3131
" />
<path d="M87.3513 1.0431
L86.7465 1.0431
" />
<path d="M86.7465 1.0431
L86.6861 1.6479
" />
<path d="M86.6861 1.6479
L86.7465 1.5874
" />
<path d="M86.7465 1.5874
L86.8675 1.5269
" />
<path d="M86.8675 1.5269
L87.1699 1.5269
" />
<path d="M87.1699 1.5269
L87.2908 1.5874
" />
<path d="M87.2908 1.5874
L87.3513 1.6479
" />
<path d="M87.3513 1.6479
L87.4118 1.7688
" />
<path d="M87.4118 1.7688
L87.4118 2.0712
" />
<path d="M87.4118 2.0712
L87.3513 2.1922
" />
<path d="M87.3513 2.1922
L87.2908 2.2527
" />
<path d="M87.2908 2.2527
L87.1699 2.3131
" />
<path d="M87.1699 2.3131
L86.8675 2.3131
" />
<path d="M86.8675 2.3131
L86.7465 2.2527
" />
<path d="M86.7465 2.2527
L86.6861 2.1922
" />
<path d="M87.7746 1.4665
L88.2584 1.4665
" />
<path d="M87.9560 2.3131
L87.9560 1.2246
" />
<path d="M87.9560 1.2246
L88.0165 1.1036
" />
<path d="M88.0165 1.1036
L88.1375 1.0431
" />
<path d="M88.1375 1.0431
L88.2584 1.0431
" />
<path d="M88.5003 1.4665
L88.9841 1.4665
" />
<path d="M88.6817 2.3131
L88.6817 1.2246
" />
<path d="M88.6817 1.2246
L88.7422 1.1036
" />
<path d="M88.7422 1.1036
L88.8632 1.0431
" />
<path d="M88.8632 1.0431
L88.9841 1.0431
" />
<path d="M89.4074 2.1922
L89.4679 2.2527
" />
<path d="M89.4679 2.2527
L89.4074 2.3131
" />
<path d="M89.4074 2.3131
L89.3470 2.2527
" />
<path d="M89.3470 2.2527
L89.4074 2.1922
" />
<path d="M89.4074 2.1922
L89.4074 2.3131
" />
<path d="M90.0122 1.4665
L90.0122 2.7365
" />
<path d="M90.0122 1.5269
L90.1332 1.4665
" />
<path d="M90.1332 1.4665
L90.3751 1.4665
" />
<path d="M90.3751 1.4665
L90.4960 1.5269
" />
<path d="M90.4960 1.5269
L90.5565 1.5874
" />
<path d="M90.5565 1.5874
L90.6170 1.7084
" />
<path d="M90.6170 1.7084
L90.6170 2.0712
" />
<path d="M90.6170 2.0712
L90.5565 2.1922
" />
<path d="M90.5565 2.1922
L90.4960 2.2527
" />
<path d="M90.4960 2.2527
L90.3751 2.3131
" />
<path d="M90.3751 2.3131
L90.1332 2.3131
" />
<path d="M90.1332 2.3131
L90.0122 2.2527
" />
<path d="M91.7055 2.3131
L91.7055 1.0431
" />
<path d="M91.7055 2.2527
L91.5846 2.3131
" />
<path d="M91.5846 2.3131
L91.3427 2.3131
" />
<path d="M91.3427 2.3131
L91.2217 2.2527
" />
<path d="M91.2217 2.2527
L91.1612 2.1922
" />
<path d="M91.1612 2.1922
L91.1008 2.0712
" />
<path d="M91.1008 2.0712
L91.1008 1.7084
" />
<path d="M91.1008 1.7084
L91.1612 1.5874
" />
<path d="M91.1612 1.5874
L91.2217 1.5269
" />
<path d="M91.2217 1.5269
L91.3427 1.4665
" />
<path d="M91.3427 1.4665
L91.5846 1.4665
" />
<path d="M91.5846 1.4665
L91.7055 1.5269
" />
<path d="M92.1288 1.4665
L92.6126 1.4665
" />
<path d="M92.3102 2.3131
L92.3102 1.2246
" />
<path d="M92.3102 1.2246
L92.3707 1.1036
" />
<path d="M92.3707 1.1036
L92.4917 1.0431
" />
<path d="M92.4917 1.0431
L92.6126 1.0431
" />
</g></g> 
</svg>
