<?xml version="1.0" standalone="no"?>
 <!DOCTYPE svg PUBLIC "-//W3C//DTD SVG 1.1//EN" 
 "http://www.w3.org/Graphics/SVG/1.1/DTD/svg11.dtd"> 
<svg
  xmlns:svg="http://www.w3.org/2000/svg"
  xmlns="http://www.w3.org/2000/svg"
  xmlns:xlink="http://www.w3.org/1999/xlink"
  version="1.1"
  width="63.7540mm" height="16.1798mm" viewBox="0.0000 0.0000 63.7540 16.1798">
<title>SVG Image created as working.svg date 2023/08/13 23:11:47 </title>
  <desc>Image generated by Eeschema-SVG </desc>
<g style="fill:#000000; fill-opacity:1.0000;stroke:#000000; stroke-opacity:1.0000;
stroke-linecap:round; stroke-linejoin:round;"
 transform="translate(0 0) scale(1 1)">
</g>
<g style="fill:#840000; fill-opacity:0.0; 
stroke:#840000; stroke-width:0.0000; stroke-opacity:1; 
stroke-linecap:round; stroke-linejoin:round;">
</g>
<g style="fill:#840084; fill-opacity:0.0; 
stroke:#840084; stroke-width:0.0000; stroke-opacity:1; 
stroke-linecap:round; stroke-linejoin:round;">
</g>
<g style="fill:#840000; fill-opacity:0.0; 
stroke:#840000; stroke-width:0.0000; stroke-opacity:1; 
stroke-linecap:round; stroke-linejoin:round;">
</g>
<g style="fill:#840084; fill-opacity:0.0; 
stroke:#840084; stroke-width:0.0000; stroke-opacity:1; 
stroke-linecap:round; stroke-linejoin:round;">
</g>
<g style="fill:#006464; fill-opacity:0.0; 
stroke:#006464; stroke-width:0.0000; stroke-opacity:1; 
stroke-linecap:round; stroke-linejoin:round;">
</g>
<g style="fill:#006464; fill-opacity:0.0; 
stroke:#006464; stroke-width:0.1588; stroke-opacity:1; 
stroke-linecap:round; stroke-linejoin:round;">
<text x="25.5330" y="4.9089"
textLength="2.6415" font-size="1.6933" lengthAdjust="spacingAndGlyphs"
text-anchor="middle" opacity="0">U?</text>
<g class="stroked-text"><desc>U?</desc>
<path d="M24.6258 3.5831
L24.6258 4.6112
" />
<path d="M24.6258 4.6112
L24.6863 4.7322
" />
<path d="M24.6863 4.7322
L24.7468 4.7927
" />
<path d="M24.7468 4.7927
L24.8677 4.8531
" />
<path d="M24.8677 4.8531
L25.1096 4.8531
" />
<path d="M25.1096 4.8531
L25.2306 4.7927
" />
<path d="M25.2306 4.7927
L25.2911 4.7322
" />
<path d="M25.2911 4.7322
L25.3515 4.6112
" />
<path d="M25.3515 4.6112
L25.3515 3.5831
" />
<path d="M26.1378 4.7322
L26.1982 4.7927
" />
<path d="M26.1982 4.7927
L26.1378 4.8531
" />
<path d="M26.1378 4.8531
L26.0773 4.7927
" />
<path d="M26.0773 4.7927
L26.1378 4.7322
" />
<path d="M26.1378 4.7322
L26.1378 4.8531
" />
<path d="M25.8959 3.6436
L26.0168 3.5831
" />
<path d="M26.0168 3.5831
L26.3192 3.5831
" />
<path d="M26.3192 3.5831
L26.4401 3.6436
" />
<path d="M26.4401 3.6436
L26.5006 3.7646
" />
<path d="M26.5006 3.7646
L26.5006 3.8855
" />
<path d="M26.5006 3.8855
L26.4401 4.0065
" />
<path d="M26.4401 4.0065
L26.3797 4.0669
" />
<path d="M26.3797 4.0669
L26.2587 4.1274
" />
<path d="M26.2587 4.1274
L26.1982 4.1879
" />
<path d="M26.1982 4.1879
L26.1378 4.3088
" />
<path d="M26.1378 4.3088
L26.1378 4.3693
" />
</g><text x="37.9208" y="4.9089"
textLength="17.1556" font-size="1.6933" lengthAdjust="spacingAndGlyphs"
text-anchor="middle" opacity="0">AMS1117CD-2.85</text>
<g class="stroked-text"><desc>AMS1117CD-2.85</desc>
<path d="M29.6961 4.4903
L30.3008 4.4903
" />
<path d="M29.5751 4.8531
L29.9984 3.5831
" />
<path d="M29.9984 3.5831
L30.4218 4.8531
" />
<path d="M30.8451 4.8531
L30.8451 3.5831
" />
<path d="M30.8451 3.5831
L31.2685 4.4903
" />
<path d="M31.2685 4.4903
L31.6918 3.5831
" />
<path d="M31.6918 3.5831
L31.6918 4.8531
" />
<path d="M32.2361 4.7927
L32.4175 4.8531
" />
<path d="M32.4175 4.8531
L32.7199 4.8531
" />
<path d="M32.7199 4.8531
L32.8408 4.7927
" />
<path d="M32.8408 4.7927
L32.9013 4.7322
" />
<path d="M32.9013 4.7322
L32.9618 4.6112
" />
<path d="M32.9618 4.6112
L32.9618 4.4903
" />
<path d="M32.9618 4.4903
L32.9013 4.3693
" />
<path d="M32.9013 4.3693
L32.8408 4.3088
" />
<path d="M32.8408 4.3088
L32.7199 4.2484
" />
<path d="M32.7199 4.2484
L32.4780 4.1879
" />
<path d="M32.4780 4.1879
L32.3570 4.1274
" />
<path d="M32.3570 4.1274
L32.2965 4.0669
" />
<path d="M32.2965 4.0669
L32.2361 3.9460
" />
<path d="M32.2361 3.9460
L32.2361 3.8250
" />
<path d="M32.2361 3.8250
L32.2965 3.7041
" />
<path d="M32.2965 3.7041
L32.3570 3.6436
" />
<path d="M32.3570 3.6436
L32.4780 3.5831
" />
<path d="M32.4780 3.5831
L32.7803 3.5831
" />
<path d="M32.7803 3.5831
L32.9618 3.6436
" />
<path d="M34.1713 4.8531
L33.4456 4.8531
" />
<path d="M33.8084 4.8531
L33.8084 3.5831
" />
<path d="M33.8084 3.5831
L33.6875 3.7646
" />
<path d="M33.6875 3.7646
L33.5665 3.8855
" />
<path d="M33.5665 3.8855
L33.4456 3.9460
" />
<path d="M35.3808 4.8531
L34.6551 4.8531
" />
<path d="M35.0179 4.8531
L35.0179 3.5831
" />
<path d="M35.0179 3.5831
L34.8970 3.7646
" />
<path d="M34.8970 3.7646
L34.7760 3.8855
" />
<path d="M34.7760 3.8855
L34.6551 3.9460
" />
<path d="M36.5903 4.8531
L35.8646 4.8531
" />
<path d="M36.2274 4.8531
L36.2274 3.5831
" />
<path d="M36.2274 3.5831
L36.1065 3.7646
" />
<path d="M36.1065 3.7646
L35.9855 3.8855
" />
<path d="M35.9855 3.8855
L35.8646 3.9460
" />
<path d="M37.0136 3.5831
L37.8602 3.5831
" />
<path d="M37.8602 3.5831
L37.3160 4.8531
" />
<path d="M39.0697 4.7322
L39.0093 4.7927
" />
<path d="M39.0093 4.7927
L38.8278 4.8531
" />
<path d="M38.8278 4.8531
L38.7069 4.8531
" />
<path d="M38.7069 4.8531
L38.5255 4.7927
" />
<path d="M38.5255 4.7927
L38.4045 4.6717
" />
<path d="M38.4045 4.6717
L38.3440 4.5507
" />
<path d="M38.3440 4.5507
L38.2836 4.3088
" />
<path d="M38.2836 4.3088
L38.2836 4.1274
" />
<path d="M38.2836 4.1274
L38.3440 3.8855
" />
<path d="M38.3440 3.8855
L38.4045 3.7646
" />
<path d="M38.4045 3.7646
L38.5255 3.6436
" />
<path d="M38.5255 3.6436
L38.7069 3.5831
" />
<path d="M38.7069 3.5831
L38.8278 3.5831
" />
<path d="M38.8278 3.5831
L39.0093 3.6436
" />
<path d="M39.0093 3.6436
L39.0697 3.7041
" />
<path d="M39.6140 4.8531
L39.6140 3.5831
" />
<path d="M39.6140 3.5831
L39.9164 3.5831
" />
<path d="M39.9164 3.5831
L40.0978 3.6436
" />
<path d="M40.0978 3.6436
L40.2188 3.7646
" />
<path d="M40.2188 3.7646
L40.2793 3.8855
" />
<path d="M40.2793 3.8855
L40.3397 4.1274
" />
<path d="M40.3397 4.1274
L40.3397 4.3088
" />
<path d="M40.3397 4.3088
L40.2793 4.5507
" />
<path d="M40.2793 4.5507
L40.2188 4.6717
" />
<path d="M40.2188 4.6717
L40.0978 4.7927
" />
<path d="M40.0978 4.7927
L39.9164 4.8531
" />
<path d="M39.9164 4.8531
L39.6140 4.8531
" />
<path d="M40.8840 4.3693
L41.8517 4.3693
" />
<path d="M42.3960 3.7041
L42.4564 3.6436
" />
<path d="M42.4564 3.6436
L42.5774 3.5831
" />
<path d="M42.5774 3.5831
L42.8798 3.5831
" />
<path d="M42.8798 3.5831
L43.0007 3.6436
" />
<path d="M43.0007 3.6436
L43.0612 3.7041
" />
<path d="M43.0612 3.7041
L43.1217 3.8250
" />
<path d="M43.1217 3.8250
L43.1217 3.9460
" />
<path d="M43.1217 3.9460
L43.0612 4.1274
" />
<path d="M43.0612 4.1274
L42.3355 4.8531
" />
<path d="M42.3355 4.8531
L43.1217 4.8531
" />
<path d="M43.6659 4.7322
L43.7264 4.7927
" />
<path d="M43.7264 4.7927
L43.6659 4.8531
" />
<path d="M43.6659 4.8531
L43.6055 4.7927
" />
<path d="M43.6055 4.7927
L43.6659 4.7322
" />
<path d="M43.6659 4.7322
L43.6659 4.8531
" />
<path d="M44.4522 4.1274
L44.3312 4.0669
" />
<path d="M44.3312 4.0669
L44.2707 4.0065
" />
<path d="M44.2707 4.0065
L44.2103 3.8855
" />
<path d="M44.2103 3.8855
L44.2103 3.8250
" />
<path d="M44.2103 3.8250
L44.2707 3.7041
" />
<path d="M44.2707 3.7041
L44.3312 3.6436
" />
<path d="M44.3312 3.6436
L44.4522 3.5831
" />
<path d="M44.4522 3.5831
L44.6941 3.5831
" />
<path d="M44.6941 3.5831
L44.8150 3.6436
" />
<path d="M44.8150 3.6436
L44.8755 3.7041
" />
<path d="M44.8755 3.7041
L44.9360 3.8250
" />
<path d="M44.9360 3.8250
L44.9360 3.8855
" />
<path d="M44.9360 3.8855
L44.8755 4.0065
" />
<path d="M44.8755 4.0065
L44.8150 4.0669
" />
<path d="M44.8150 4.0669
L44.6941 4.1274
" />
<path d="M44.6941 4.1274
L44.4522 4.1274
" />
<path d="M44.4522 4.1274
L44.3312 4.1879
" />
<path d="M44.3312 4.1879
L44.2707 4.2484
" />
<path d="M44.2707 4.2484
L44.2103 4.3693
" />
<path d="M44.2103 4.3693
L44.2103 4.6112
" />
<path d="M44.2103 4.6112
L44.2707 4.7322
" />
<path d="M44.2707 4.7322
L44.3312 4.7927
" />
<path d="M44.3312 4.7927
L44.4522 4.8531
" />
<path d="M44.4522 4.8531
L44.6941 4.8531
" />
<path d="M44.6941 4.8531
L44.8150 4.7927
" />
<path d="M44.8150 4.7927
L44.8755 4.7322
" />
<path d="M44.8755 4.7322
L44.9360 4.6112
" />
<path d="M44.9360 4.6112
L44.9360 4.3693
" />
<path d="M44.9360 4.3693
L44.8755 4.2484
" />
<path d="M44.8755 4.2484
L44.8150 4.1879
" />
<path d="M44.8150 4.1879
L44.6941 4.1274
" />
<path d="M46.0850 3.5831
L45.4802 3.5831
" />
<path d="M45.4802 3.5831
L45.4198 4.1879
" />
<path d="M45.4198 4.1879
L45.4802 4.1274
" />
<path d="M45.4802 4.1274
L45.6012 4.0669
" />
<path d="M45.6012 4.0669
L45.9036 4.0669
" />
<path d="M45.9036 4.0669
L46.0245 4.1274
" />
<path d="M46.0245 4.1274
L46.0850 4.1879
" />
<path d="M46.0850 4.1879
L46.1455 4.3088
" />
<path d="M46.1455 4.3088
L46.1455 4.6112
" />
<path d="M46.1455 4.6112
L46.0850 4.7322
" />
<path d="M46.0850 4.7322
L46.0245 4.7927
" />
<path d="M46.0245 4.7927
L45.9036 4.8531
" />
<path d="M45.9036 4.8531
L45.6012 4.8531
" />
<path d="M45.6012 4.8531
L45.4802 4.7927
" />
<path d="M45.4802 4.7927
L45.4198 4.7322
" />
</g></g>
<g style="fill:#840084; fill-opacity:0.0; 
stroke:#840084; stroke-width:0.1588; stroke-opacity:1; 
stroke-linecap:round; stroke-linejoin:round;">
<text x="29.3430" y="3.0039"
textLength="40.1363" font-size="1.6933" lengthAdjust="spacingAndGlyphs"
text-anchor="middle" opacity="0">Package_TO_SOT_SMD:TO-252-3_TabPin2</text>
<g class="stroked-text"><desc>Package_TO_SOT_SMD:TO-252-3_TabPin2</desc>
<path d="M9.6884 2.9481
L9.6884 1.6781
" />
<path d="M9.6884 1.6781
L10.1722 1.6781
" />
<path d="M10.1722 1.6781
L10.2932 1.7386
" />
<path d="M10.2932 1.7386
L10.3537 1.7991
" />
<path d="M10.3537 1.7991
L10.4141 1.9200
" />
<path d="M10.4141 1.9200
L10.4141 2.1015
" />
<path d="M10.4141 2.1015
L10.3537 2.2224
" />
<path d="M10.3537 2.2224
L10.2932 2.2829
" />
<path d="M10.2932 2.2829
L10.1722 2.3434
" />
<path d="M10.1722 2.3434
L9.6884 2.3434
" />
<path d="M11.5027 2.9481
L11.5027 2.2829
" />
<path d="M11.5027 2.2829
L11.4422 2.1619
" />
<path d="M11.4422 2.1619
L11.3213 2.1015
" />
<path d="M11.3213 2.1015
L11.0794 2.1015
" />
<path d="M11.0794 2.1015
L10.9584 2.1619
" />
<path d="M11.5027 2.8877
L11.3818 2.9481
" />
<path d="M11.3818 2.9481
L11.0794 2.9481
" />
<path d="M11.0794 2.9481
L10.9584 2.8877
" />
<path d="M10.9584 2.8877
L10.8980 2.7667
" />
<path d="M10.8980 2.7667
L10.8980 2.6457
" />
<path d="M10.8980 2.6457
L10.9584 2.5248
" />
<path d="M10.9584 2.5248
L11.0794 2.4643
" />
<path d="M11.0794 2.4643
L11.3818 2.4643
" />
<path d="M11.3818 2.4643
L11.5027 2.4038
" />
<path d="M12.6517 2.8877
L12.5308 2.9481
" />
<path d="M12.5308 2.9481
L12.2889 2.9481
" />
<path d="M12.2889 2.9481
L12.1679 2.8877
" />
<path d="M12.1679 2.8877
L12.1074 2.8272
" />
<path d="M12.1074 2.8272
L12.0470 2.7062
" />
<path d="M12.0470 2.7062
L12.0470 2.3434
" />
<path d="M12.0470 2.3434
L12.1074 2.2224
" />
<path d="M12.1074 2.2224
L12.1679 2.1619
" />
<path d="M12.1679 2.1619
L12.2889 2.1015
" />
<path d="M12.2889 2.1015
L12.5308 2.1015
" />
<path d="M12.5308 2.1015
L12.6517 2.1619
" />
<path d="M13.1960 2.9481
L13.1960 1.6781
" />
<path d="M13.3170 2.4643
L13.6798 2.9481
" />
<path d="M13.6798 2.1015
L13.1960 2.5853
" />
<path d="M14.7684 2.9481
L14.7684 2.2829
" />
<path d="M14.7684 2.2829
L14.7079 2.1619
" />
<path d="M14.7079 2.1619
L14.5870 2.1015
" />
<path d="M14.5870 2.1015
L14.3451 2.1015
" />
<path d="M14.3451 2.1015
L14.2241 2.1619
" />
<path d="M14.7684 2.8877
L14.6475 2.9481
" />
<path d="M14.6475 2.9481
L14.3451 2.9481
" />
<path d="M14.3451 2.9481
L14.2241 2.8877
" />
<path d="M14.2241 2.8877
L14.1637 2.7667
" />
<path d="M14.1637 2.7667
L14.1637 2.6457
" />
<path d="M14.1637 2.6457
L14.2241 2.5248
" />
<path d="M14.2241 2.5248
L14.3451 2.4643
" />
<path d="M14.3451 2.4643
L14.6475 2.4643
" />
<path d="M14.6475 2.4643
L14.7684 2.4038
" />
<path d="M15.9174 2.1015
L15.9174 3.1296
" />
<path d="M15.9174 3.1296
L15.8569 3.2505
" />
<path d="M15.8569 3.2505
L15.7965 3.3110
" />
<path d="M15.7965 3.3110
L15.6755 3.3715
" />
<path d="M15.6755 3.3715
L15.4941 3.3715
" />
<path d="M15.4941 3.3715
L15.3731 3.3110
" />
<path d="M15.9174 2.8877
L15.7965 2.9481
" />
<path d="M15.7965 2.9481
L15.5546 2.9481
" />
<path d="M15.5546 2.9481
L15.4336 2.8877
" />
<path d="M15.4336 2.8877
L15.3731 2.8272
" />
<path d="M15.3731 2.8272
L15.3127 2.7062
" />
<path d="M15.3127 2.7062
L15.3127 2.3434
" />
<path d="M15.3127 2.3434
L15.3731 2.2224
" />
<path d="M15.3731 2.2224
L15.4336 2.1619
" />
<path d="M15.4336 2.1619
L15.5546 2.1015
" />
<path d="M15.5546 2.1015
L15.7965 2.1015
" />
<path d="M15.7965 2.1015
L15.9174 2.1619
" />
<path d="M17.0059 2.8877
L16.8850 2.9481
" />
<path d="M16.8850 2.9481
L16.6431 2.9481
" />
<path d="M16.6431 2.9481
L16.5221 2.8877
" />
<path d="M16.5221 2.8877
L16.4617 2.7667
" />
<path d="M16.4617 2.7667
L16.4617 2.2829
" />
<path d="M16.4617 2.2829
L16.5221 2.1619
" />
<path d="M16.5221 2.1619
L16.6431 2.1015
" />
<path d="M16.6431 2.1015
L16.8850 2.1015
" />
<path d="M16.8850 2.1015
L17.0059 2.1619
" />
<path d="M17.0059 2.1619
L17.0664 2.2829
" />
<path d="M17.0664 2.2829
L17.0664 2.4038
" />
<path d="M17.0664 2.4038
L16.4617 2.5248
" />
<path d="M17.3084 3.0691
L18.2760 3.0691
" />
<path d="M18.3969 1.6781
L19.1226 1.6781
" />
<path d="M18.7598 2.9481
L18.7598 1.6781
" />
<path d="M19.7878 1.6781
L20.0297 1.6781
" />
<path d="M20.0297 1.6781
L20.1507 1.7386
" />
<path d="M20.1507 1.7386
L20.2716 1.8596
" />
<path d="M20.2716 1.8596
L20.3321 2.1015
" />
<path d="M20.3321 2.1015
L20.3321 2.5248
" />
<path d="M20.3321 2.5248
L20.2716 2.7667
" />
<path d="M20.2716 2.7667
L20.1507 2.8877
" />
<path d="M20.1507 2.8877
L20.0297 2.9481
" />
<path d="M20.0297 2.9481
L19.7878 2.9481
" />
<path d="M19.7878 2.9481
L19.6669 2.8877
" />
<path d="M19.6669 2.8877
L19.5459 2.7667
" />
<path d="M19.5459 2.7667
L19.4855 2.5248
" />
<path d="M19.4855 2.5248
L19.4855 2.1015
" />
<path d="M19.4855 2.1015
L19.5459 1.8596
" />
<path d="M19.5459 1.8596
L19.6669 1.7386
" />
<path d="M19.6669 1.7386
L19.7878 1.6781
" />
<path d="M20.5741 3.0691
L21.5417 3.0691
" />
<path d="M21.7836 2.8877
L21.9650 2.9481
" />
<path d="M21.9650 2.9481
L22.2674 2.9481
" />
<path d="M22.2674 2.9481
L22.3883 2.8877
" />
<path d="M22.3883 2.8877
L22.4488 2.8272
" />
<path d="M22.4488 2.8272
L22.5093 2.7062
" />
<path d="M22.5093 2.7062
L22.5093 2.5853
" />
<path d="M22.5093 2.5853
L22.4488 2.4643
" />
<path d="M22.4488 2.4643
L22.3883 2.4038
" />
<path d="M22.3883 2.4038
L22.2674 2.3434
" />
<path d="M22.2674 2.3434
L22.0255 2.2829
" />
<path d="M22.0255 2.2829
L21.9045 2.2224
" />
<path d="M21.9045 2.2224
L21.8440 2.1619
" />
<path d="M21.8440 2.1619
L21.7836 2.0410
" />
<path d="M21.7836 2.0410
L21.7836 1.9200
" />
<path d="M21.7836 1.9200
L21.8440 1.7991
" />
<path d="M21.8440 1.7991
L21.9045 1.7386
" />
<path d="M21.9045 1.7386
L22.0255 1.6781
" />
<path d="M22.0255 1.6781
L22.3278 1.6781
" />
<path d="M22.3278 1.6781
L22.5093 1.7386
" />
<path d="M23.2954 1.6781
L23.5373 1.6781
" />
<path d="M23.5373 1.6781
L23.6583 1.7386
" />
<path d="M23.6583 1.7386
L23.7792 1.8596
" />
<path d="M23.7792 1.8596
L23.8397 2.1015
" />
<path d="M23.8397 2.1015
L23.8397 2.5248
" />
<path d="M23.8397 2.5248
L23.7792 2.7667
" />
<path d="M23.7792 2.7667
L23.6583 2.8877
" />
<path d="M23.6583 2.8877
L23.5373 2.9481
" />
<path d="M23.5373 2.9481
L23.2954 2.9481
" />
<path d="M23.2954 2.9481
L23.1745 2.8877
" />
<path d="M23.1745 2.8877
L23.0535 2.7667
" />
<path d="M23.0535 2.7667
L22.9931 2.5248
" />
<path d="M22.9931 2.5248
L22.9931 2.1015
" />
<path d="M22.9931 2.1015
L23.0535 1.8596
" />
<path d="M23.0535 1.8596
L23.1745 1.7386
" />
<path d="M23.1745 1.7386
L23.2954 1.6781
" />
<path d="M24.2026 1.6781
L24.9283 1.6781
" />
<path d="M24.5655 2.9481
L24.5655 1.6781
" />
<path d="M25.0493 3.0691
L26.0169 3.0691
" />
<path d="M26.2588 2.8877
L26.4402 2.9481
" />
<path d="M26.4402 2.9481
L26.7426 2.9481
" />
<path d="M26.7426 2.9481
L26.8635 2.8877
" />
<path d="M26.8635 2.8877
L26.9240 2.8272
" />
<path d="M26.9240 2.8272
L26.9845 2.7062
" />
<path d="M26.9845 2.7062
L26.9845 2.5853
" />
<path d="M26.9845 2.5853
L26.9240 2.4643
" />
<path d="M26.9240 2.4643
L26.8635 2.4038
" />
<path d="M26.8635 2.4038
L26.7426 2.3434
" />
<path d="M26.7426 2.3434
L26.5007 2.2829
" />
<path d="M26.5007 2.2829
L26.3797 2.2224
" />
<path d="M26.3797 2.2224
L26.3192 2.1619
" />
<path d="M26.3192 2.1619
L26.2588 2.0410
" />
<path d="M26.2588 2.0410
L26.2588 1.9200
" />
<path d="M26.2588 1.9200
L26.3192 1.7991
" />
<path d="M26.3192 1.7991
L26.3797 1.7386
" />
<path d="M26.3797 1.7386
L26.5007 1.6781
" />
<path d="M26.5007 1.6781
L26.8030 1.6781
" />
<path d="M26.8030 1.6781
L26.9845 1.7386
" />
<path d="M27.5287 2.9481
L27.5287 1.6781
" />
<path d="M27.5287 1.6781
L27.9521 2.5853
" />
<path d="M27.9521 2.5853
L28.3754 1.6781
" />
<path d="M28.3754 1.6781
L28.3754 2.9481
" />
<path d="M28.9801 2.9481
L28.9801 1.6781
" />
<path d="M28.9801 1.6781
L29.2825 1.6781
" />
<path d="M29.2825 1.6781
L29.4639 1.7386
" />
<path d="M29.4639 1.7386
L29.5849 1.8596
" />
<path d="M29.5849 1.8596
L29.6454 1.9805
" />
<path d="M29.6454 1.9805
L29.7058 2.2224
" />
<path d="M29.7058 2.2224
L29.7058 2.4038
" />
<path d="M29.7058 2.4038
L29.6454 2.6457
" />
<path d="M29.6454 2.6457
L29.5849 2.7667
" />
<path d="M29.5849 2.7667
L29.4639 2.8877
" />
<path d="M29.4639 2.8877
L29.2825 2.9481
" />
<path d="M29.2825 2.9481
L28.9801 2.9481
" />
<path d="M30.2501 2.8272
L30.3106 2.8877
" />
<path d="M30.3106 2.8877
L30.2501 2.9481
" />
<path d="M30.2501 2.9481
L30.1897 2.8877
" />
<path d="M30.1897 2.8877
L30.2501 2.8272
" />
<path d="M30.2501 2.8272
L30.2501 2.9481
" />
<path d="M30.2501 2.1619
L30.3106 2.2224
" />
<path d="M30.3106 2.2224
L30.2501 2.2829
" />
<path d="M30.2501 2.2829
L30.1897 2.2224
" />
<path d="M30.1897 2.2224
L30.2501 2.1619
" />
<path d="M30.2501 2.1619
L30.2501 2.2829
" />
<path d="M30.6735 1.6781
L31.3992 1.6781
" />
<path d="M31.0364 2.9481
L31.0364 1.6781
" />
<path d="M32.0644 1.6781
L32.3063 1.6781
" />
<path d="M32.3063 1.6781
L32.4273 1.7386
" />
<path d="M32.4273 1.7386
L32.5482 1.8596
" />
<path d="M32.5482 1.8596
L32.6087 2.1015
" />
<path d="M32.6087 2.1015
L32.6087 2.5248
" />
<path d="M32.6087 2.5248
L32.5482 2.7667
" />
<path d="M32.5482 2.7667
L32.4273 2.8877
" />
<path d="M32.4273 2.8877
L32.3063 2.9481
" />
<path d="M32.3063 2.9481
L32.0644 2.9481
" />
<path d="M32.0644 2.9481
L31.9435 2.8877
" />
<path d="M31.9435 2.8877
L31.8225 2.7667
" />
<path d="M31.8225 2.7667
L31.7621 2.5248
" />
<path d="M31.7621 2.5248
L31.7621 2.1015
" />
<path d="M31.7621 2.1015
L31.8225 1.8596
" />
<path d="M31.8225 1.8596
L31.9435 1.7386
" />
<path d="M31.9435 1.7386
L32.0644 1.6781
" />
<path d="M33.1530 2.4643
L34.1207 2.4643
" />
<path d="M34.6650 1.7991
L34.7254 1.7386
" />
<path d="M34.7254 1.7386
L34.8464 1.6781
" />
<path d="M34.8464 1.6781
L35.1488 1.6781
" />
<path d="M35.1488 1.6781
L35.2697 1.7386
" />
<path d="M35.2697 1.7386
L35.3302 1.7991
" />
<path d="M35.3302 1.7991
L35.3907 1.9200
" />
<path d="M35.3907 1.9200
L35.3907 2.0410
" />
<path d="M35.3907 2.0410
L35.3302 2.2224
" />
<path d="M35.3302 2.2224
L34.6045 2.9481
" />
<path d="M34.6045 2.9481
L35.3907 2.9481
" />
<path d="M36.5397 1.6781
L35.9349 1.6781
" />
<path d="M35.9349 1.6781
L35.8745 2.2829
" />
<path d="M35.8745 2.2829
L35.9349 2.2224
" />
<path d="M35.9349 2.2224
L36.0559 2.1619
" />
<path d="M36.0559 2.1619
L36.3583 2.1619
" />
<path d="M36.3583 2.1619
L36.4792 2.2224
" />
<path d="M36.4792 2.2224
L36.5397 2.2829
" />
<path d="M36.5397 2.2829
L36.6002 2.4038
" />
<path d="M36.6002 2.4038
L36.6002 2.7062
" />
<path d="M36.6002 2.7062
L36.5397 2.8272
" />
<path d="M36.5397 2.8272
L36.4792 2.8877
" />
<path d="M36.4792 2.8877
L36.3583 2.9481
" />
<path d="M36.3583 2.9481
L36.0559 2.9481
" />
<path d="M36.0559 2.9481
L35.9349 2.8877
" />
<path d="M35.9349 2.8877
L35.8745 2.8272
" />
<path d="M37.0840 1.7991
L37.1444 1.7386
" />
<path d="M37.1444 1.7386
L37.2654 1.6781
" />
<path d="M37.2654 1.6781
L37.5678 1.6781
" />
<path d="M37.5678 1.6781
L37.6887 1.7386
" />
<path d="M37.6887 1.7386
L37.7492 1.7991
" />
<path d="M37.7492 1.7991
L37.8097 1.9200
" />
<path d="M37.8097 1.9200
L37.8097 2.0410
" />
<path d="M37.8097 2.0410
L37.7492 2.2224
" />
<path d="M37.7492 2.2224
L37.0235 2.9481
" />
<path d="M37.0235 2.9481
L37.8097 2.9481
" />
<path d="M38.3539 2.4643
L39.3216 2.4643
" />
<path d="M39.8054 1.6781
L40.5916 1.6781
" />
<path d="M40.5916 1.6781
L40.1682 2.1619
" />
<path d="M40.1682 2.1619
L40.3497 2.1619
" />
<path d="M40.3497 2.1619
L40.4706 2.2224
" />
<path d="M40.4706 2.2224
L40.5311 2.2829
" />
<path d="M40.5311 2.2829
L40.5916 2.4038
" />
<path d="M40.5916 2.4038
L40.5916 2.7062
" />
<path d="M40.5916 2.7062
L40.5311 2.8272
" />
<path d="M40.5311 2.8272
L40.4706 2.8877
" />
<path d="M40.4706 2.8877
L40.3497 2.9481
" />
<path d="M40.3497 2.9481
L39.9868 2.9481
" />
<path d="M39.9868 2.9481
L39.8659 2.8877
" />
<path d="M39.8659 2.8877
L39.8054 2.8272
" />
<path d="M40.8335 3.0691
L41.8011 3.0691
" />
<path d="M41.9220 1.6781
L42.6477 1.6781
" />
<path d="M42.2849 2.9481
L42.2849 1.6781
" />
<path d="M43.6153 2.9481
L43.6153 2.2829
" />
<path d="M43.6153 2.2829
L43.5548 2.1619
" />
<path d="M43.5548 2.1619
L43.4339 2.1015
" />
<path d="M43.4339 2.1015
L43.1920 2.1015
" />
<path d="M43.1920 2.1015
L43.0710 2.1619
" />
<path d="M43.6153 2.8877
L43.4944 2.9481
" />
<path d="M43.4944 2.9481
L43.1920 2.9481
" />
<path d="M43.1920 2.9481
L43.0710 2.8877
" />
<path d="M43.0710 2.8877
L43.0106 2.7667
" />
<path d="M43.0106 2.7667
L43.0106 2.6457
" />
<path d="M43.0106 2.6457
L43.0710 2.5248
" />
<path d="M43.0710 2.5248
L43.1920 2.4643
" />
<path d="M43.1920 2.4643
L43.4944 2.4643
" />
<path d="M43.4944 2.4643
L43.6153 2.4038
" />
<path d="M44.2200 2.9481
L44.2200 1.6781
" />
<path d="M44.2200 2.1619
L44.3410 2.1015
" />
<path d="M44.3410 2.1015
L44.5829 2.1015
" />
<path d="M44.5829 2.1015
L44.7038 2.1619
" />
<path d="M44.7038 2.1619
L44.7643 2.2224
" />
<path d="M44.7643 2.2224
L44.8248 2.3434
" />
<path d="M44.8248 2.3434
L44.8248 2.7062
" />
<path d="M44.8248 2.7062
L44.7643 2.8272
" />
<path d="M44.7643 2.8272
L44.7038 2.8877
" />
<path d="M44.7038 2.8877
L44.5829 2.9481
" />
<path d="M44.5829 2.9481
L44.3410 2.9481
" />
<path d="M44.3410 2.9481
L44.2200 2.8877
" />
<path d="M45.3690 2.9481
L45.3690 1.6781
" />
<path d="M45.3690 1.6781
L45.8528 1.6781
" />
<path d="M45.8528 1.6781
L45.9738 1.7386
" />
<path d="M45.9738 1.7386
L46.0343 1.7991
" />
<path d="M46.0343 1.7991
L46.0947 1.9200
" />
<path d="M46.0947 1.9200
L46.0947 2.1015
" />
<path d="M46.0947 2.1015
L46.0343 2.2224
" />
<path d="M46.0343 2.2224
L45.9738 2.2829
" />
<path d="M45.9738 2.2829
L45.8528 2.3434
" />
<path d="M45.8528 2.3434
L45.3690 2.3434
" />
<path d="M46.6390 2.9481
L46.6390 2.1015
" />
<path d="M46.6390 1.6781
L46.5786 1.7386
" />
<path d="M46.5786 1.7386
L46.6390 1.7991
" />
<path d="M46.6390 1.7991
L46.6995 1.7386
" />
<path d="M46.6995 1.7386
L46.6390 1.6781
" />
<path d="M46.6390 1.6781
L46.6390 1.7991
" />
<path d="M47.2438 2.1015
L47.2438 2.9481
" />
<path d="M47.2438 2.2224
L47.3043 2.1619
" />
<path d="M47.3043 2.1619
L47.4253 2.1015
" />
<path d="M47.4253 2.1015
L47.6067 2.1015
" />
<path d="M47.6067 2.1015
L47.7276 2.1619
" />
<path d="M47.7276 2.1619
L47.7881 2.2829
" />
<path d="M47.7881 2.2829
L47.7881 2.9481
" />
<path d="M48.3324 1.7991
L48.3928 1.7386
" />
<path d="M48.3928 1.7386
L48.5138 1.6781
" />
<path d="M48.5138 1.6781
L48.8162 1.6781
" />
<path d="M48.8162 1.6781
L48.9371 1.7386
" />
<path d="M48.9371 1.7386
L48.9976 1.7991
" />
<path d="M48.9976 1.7991
L49.0581 1.9200
" />
<path d="M49.0581 1.9200
L49.0581 2.0410
" />
<path d="M49.0581 2.0410
L48.9976 2.2224
" />
<path d="M48.9976 2.2224
L48.2719 2.9481
" />
<path d="M48.2719 2.9481
L49.0581 2.9481
" />
</g><text x="31.8830" y="14.4339"
textLength="53.1385" font-size="1.6933" lengthAdjust="spacingAndGlyphs"
text-anchor="middle" opacity="0">http://www.advanced-monolithic.com/pdf/ds1117.pdf</text>
<g class="stroked-text"><desc>http://www.advanced-monolithic.com/pdf/ds1117.pdf</desc>
<path d="M5.7273 14.3781
L5.7273 13.1081
" />
<path d="M6.2716 14.3781
L6.2716 13.7129
" />
<path d="M6.2716 13.7129
L6.2111 13.5919
" />
<path d="M6.2111 13.5919
L6.0902 13.5315
" />
<path d="M6.0902 13.5315
L5.9088 13.5315
" />
<path d="M5.9088 13.5315
L5.7878 13.5919
" />
<path d="M5.7878 13.5919
L5.7273 13.6524
" />
<path d="M6.6949 13.5315
L7.1787 13.5315
" />
<path d="M6.8763 13.1081
L6.8763 14.1967
" />
<path d="M6.8763 14.1967
L6.9368 14.3177
" />
<path d="M6.9368 14.3177
L7.0578 14.3781
" />
<path d="M7.0578 14.3781
L7.1787 14.3781
" />
<path d="M7.4206 13.5315
L7.9044 13.5315
" />
<path d="M7.6020 13.1081
L7.6020 14.1967
" />
<path d="M7.6020 14.1967
L7.6625 14.3177
" />
<path d="M7.6625 14.3177
L7.7835 14.3781
" />
<path d="M7.7835 14.3781
L7.9044 14.3781
" />
<path d="M8.3277 13.5315
L8.3277 14.8015
" />
<path d="M8.3277 13.5919
L8.4487 13.5315
" />
<path d="M8.4487 13.5315
L8.6906 13.5315
" />
<path d="M8.6906 13.5315
L8.8115 13.5919
" />
<path d="M8.8115 13.5919
L8.8720 13.6524
" />
<path d="M8.8720 13.6524
L8.9325 13.7734
" />
<path d="M8.9325 13.7734
L8.9325 14.1362
" />
<path d="M8.9325 14.1362
L8.8720 14.2572
" />
<path d="M8.8720 14.2572
L8.8115 14.3177
" />
<path d="M8.8115 14.3177
L8.6906 14.3781
" />
<path d="M8.6906 14.3781
L8.4487 14.3781
" />
<path d="M8.4487 14.3781
L8.3277 14.3177
" />
<path d="M9.4767 14.2572
L9.5372 14.3177
" />
<path d="M9.5372 14.3177
L9.4767 14.3781
" />
<path d="M9.4767 14.3781
L9.4163 14.3177
" />
<path d="M9.4163 14.3177
L9.4767 14.2572
" />
<path d="M9.4767 14.2572
L9.4767 14.3781
" />
<path d="M9.4767 13.5919
L9.5372 13.6524
" />
<path d="M9.5372 13.6524
L9.4767 13.7129
" />
<path d="M9.4767 13.7129
L9.4163 13.6524
" />
<path d="M9.4163 13.6524
L9.4767 13.5919
" />
<path d="M9.4767 13.5919
L9.4767 13.7129
" />
<path d="M10.9887 13.0477
L9.9001 14.6805
" />
<path d="M12.3192 13.0477
L11.2306 14.6805
" />
<path d="M12.6216 13.5315
L12.8635 14.3781
" />
<path d="M12.8635 14.3781
L13.1054 13.7734
" />
<path d="M13.1054 13.7734
L13.3473 14.3781
" />
<path d="M13.3473 14.3781
L13.5892 13.5315
" />
<path d="M13.9521 13.5315
L14.1940 14.3781
" />
<path d="M14.1940 14.3781
L14.4359 13.7734
" />
<path d="M14.4359 13.7734
L14.6778 14.3781
" />
<path d="M14.6778 14.3781
L14.9197 13.5315
" />
<path d="M15.2826 13.5315
L15.5245 14.3781
" />
<path d="M15.5245 14.3781
L15.7664 13.7734
" />
<path d="M15.7664 13.7734
L16.0083 14.3781
" />
<path d="M16.0083 14.3781
L16.2502 13.5315
" />
<path d="M16.7340 14.2572
L16.7945 14.3177
" />
<path d="M16.7945 14.3177
L16.7340 14.3781
" />
<path d="M16.7340 14.3781
L16.6736 14.3177
" />
<path d="M16.6736 14.3177
L16.7340 14.2572
" />
<path d="M16.7340 14.2572
L16.7340 14.3781
" />
<path d="M17.8831 14.3781
L17.8831 13.7129
" />
<path d="M17.8831 13.7129
L17.8226 13.5919
" />
<path d="M17.8226 13.5919
L17.7017 13.5315
" />
<path d="M17.7017 13.5315
L17.4598 13.5315
" />
<path d="M17.4598 13.5315
L17.3388 13.5919
" />
<path d="M17.8831 14.3177
L17.7622 14.3781
" />
<path d="M17.7622 14.3781
L17.4598 14.3781
" />
<path d="M17.4598 14.3781
L17.3388 14.3177
" />
<path d="M17.3388 14.3177
L17.2784 14.1967
" />
<path d="M17.2784 14.1967
L17.2784 14.0757
" />
<path d="M17.2784 14.0757
L17.3388 13.9548
" />
<path d="M17.3388 13.9548
L17.4598 13.8943
" />
<path d="M17.4598 13.8943
L17.7622 13.8943
" />
<path d="M17.7622 13.8943
L17.8831 13.8338
" />
<path d="M19.0321 14.3781
L19.0321 13.1081
" />
<path d="M19.0321 14.3177
L18.9112 14.3781
" />
<path d="M18.9112 14.3781
L18.6693 14.3781
" />
<path d="M18.6693 14.3781
L18.5483 14.3177
" />
<path d="M18.5483 14.3177
L18.4878 14.2572
" />
<path d="M18.4878 14.2572
L18.4274 14.1362
" />
<path d="M18.4274 14.1362
L18.4274 13.7734
" />
<path d="M18.4274 13.7734
L18.4878 13.6524
" />
<path d="M18.4878 13.6524
L18.5483 13.5919
" />
<path d="M18.5483 13.5919
L18.6693 13.5315
" />
<path d="M18.6693 13.5315
L18.9112 13.5315
" />
<path d="M18.9112 13.5315
L19.0321 13.5919
" />
<path d="M19.5159 13.5315
L19.8183 14.3781
" />
<path d="M19.8183 14.3781
L20.1206 13.5315
" />
<path d="M21.1487 14.3781
L21.1487 13.7129
" />
<path d="M21.1487 13.7129
L21.0882 13.5919
" />
<path d="M21.0882 13.5919
L20.9673 13.5315
" />
<path d="M20.9673 13.5315
L20.7254 13.5315
" />
<path d="M20.7254 13.5315
L20.6044 13.5919
" />
<path d="M21.1487 14.3177
L21.0278 14.3781
" />
<path d="M21.0278 14.3781
L20.7254 14.3781
" />
<path d="M20.7254 14.3781
L20.6044 14.3177
" />
<path d="M20.6044 14.3177
L20.5440 14.1967
" />
<path d="M20.5440 14.1967
L20.5440 14.0757
" />
<path d="M20.5440 14.0757
L20.6044 13.9548
" />
<path d="M20.6044 13.9548
L20.7254 13.8943
" />
<path d="M20.7254 13.8943
L21.0278 13.8943
" />
<path d="M21.0278 13.8943
L21.1487 13.8338
" />
<path d="M21.7534 13.5315
L21.7534 14.3781
" />
<path d="M21.7534 13.6524
L21.8139 13.5919
" />
<path d="M21.8139 13.5919
L21.9349 13.5315
" />
<path d="M21.9349 13.5315
L22.1163 13.5315
" />
<path d="M22.1163 13.5315
L22.2372 13.5919
" />
<path d="M22.2372 13.5919
L22.2977 13.7129
" />
<path d="M22.2977 13.7129
L22.2977 14.3781
" />
<path d="M23.4467 14.3177
L23.3258 14.3781
" />
<path d="M23.3258 14.3781
L23.0839 14.3781
" />
<path d="M23.0839 14.3781
L22.9629 14.3177
" />
<path d="M22.9629 14.3177
L22.9024 14.2572
" />
<path d="M22.9024 14.2572
L22.8420 14.1362
" />
<path d="M22.8420 14.1362
L22.8420 13.7734
" />
<path d="M22.8420 13.7734
L22.9024 13.6524
" />
<path d="M22.9024 13.6524
L22.9629 13.5919
" />
<path d="M22.9629 13.5919
L23.0839 13.5315
" />
<path d="M23.0839 13.5315
L23.3258 13.5315
" />
<path d="M23.3258 13.5315
L23.4467 13.5919
" />
<path d="M24.4748 14.3177
L24.3539 14.3781
" />
<path d="M24.3539 14.3781
L24.1120 14.3781
" />
<path d="M24.1120 14.3781
L23.9910 14.3177
" />
<path d="M23.9910 14.3177
L23.9306 14.1967
" />
<path d="M23.9306 14.1967
L23.9306 13.7129
" />
<path d="M23.9306 13.7129
L23.9910 13.5919
" />
<path d="M23.9910 13.5919
L24.1120 13.5315
" />
<path d="M24.1120 13.5315
L24.3539 13.5315
" />
<path d="M24.3539 13.5315
L24.4748 13.5919
" />
<path d="M24.4748 13.5919
L24.5353 13.7129
" />
<path d="M24.5353 13.7129
L24.5353 13.8338
" />
<path d="M24.5353 13.8338
L23.9306 13.9548
" />
<path d="M25.6239 14.3781
L25.6239 13.1081
" />
<path d="M25.6239 14.3177
L25.5030 14.3781
" />
<path d="M25.5030 14.3781
L25.2611 14.3781
" />
<path d="M25.2611 14.3781
L25.1401 14.3177
" />
<path d="M25.1401 14.3177
L25.0796 14.2572
" />
<path d="M25.0796 14.2572
L25.0192 14.1362
" />
<path d="M25.0192 14.1362
L25.0192 13.7734
" />
<path d="M25.0192 13.7734
L25.0796 13.6524
" />
<path d="M25.0796 13.6524
L25.1401 13.5919
" />
<path d="M25.1401 13.5919
L25.2611 13.5315
" />
<path d="M25.2611 13.5315
L25.5030 13.5315
" />
<path d="M25.5030 13.5315
L25.6239 13.5919
" />
<path d="M26.2286 13.8943
L27.1963 13.8943
" />
<path d="M27.8010 14.3781
L27.8010 13.5315
" />
<path d="M27.8010 13.6524
L27.8615 13.5919
" />
<path d="M27.8615 13.5919
L27.9825 13.5315
" />
<path d="M27.9825 13.5315
L28.1639 13.5315
" />
<path d="M28.1639 13.5315
L28.2848 13.5919
" />
<path d="M28.2848 13.5919
L28.3453 13.7129
" />
<path d="M28.3453 13.7129
L28.3453 14.3781
" />
<path d="M28.3453 13.7129
L28.4058 13.5919
" />
<path d="M28.4058 13.5919
L28.5267 13.5315
" />
<path d="M28.5267 13.5315
L28.7082 13.5315
" />
<path d="M28.7082 13.5315
L28.8291 13.5919
" />
<path d="M28.8291 13.5919
L28.8896 13.7129
" />
<path d="M28.8896 13.7129
L28.8896 14.3781
" />
<path d="M29.6758 14.3781
L29.5548 14.3177
" />
<path d="M29.5548 14.3177
L29.4943 14.2572
" />
<path d="M29.4943 14.2572
L29.4339 14.1362
" />
<path d="M29.4339 14.1362
L29.4339 13.7734
" />
<path d="M29.4339 13.7734
L29.4943 13.6524
" />
<path d="M29.4943 13.6524
L29.5548 13.5919
" />
<path d="M29.5548 13.5919
L29.6758 13.5315
" />
<path d="M29.6758 13.5315
L29.8572 13.5315
" />
<path d="M29.8572 13.5315
L29.9781 13.5919
" />
<path d="M29.9781 13.5919
L30.0386 13.6524
" />
<path d="M30.0386 13.6524
L30.0991 13.7734
" />
<path d="M30.0991 13.7734
L30.0991 14.1362
" />
<path d="M30.0991 14.1362
L30.0386 14.2572
" />
<path d="M30.0386 14.2572
L29.9781 14.3177
" />
<path d="M29.9781 14.3177
L29.8572 14.3781
" />
<path d="M29.8572 14.3781
L29.6758 14.3781
" />
<path d="M30.6433 13.5315
L30.6433 14.3781
" />
<path d="M30.6433 13.6524
L30.7038 13.5919
" />
<path d="M30.7038 13.5919
L30.8248 13.5315
" />
<path d="M30.8248 13.5315
L31.0062 13.5315
" />
<path d="M31.0062 13.5315
L31.1271 13.5919
" />
<path d="M31.1271 13.5919
L31.1876 13.7129
" />
<path d="M31.1876 13.7129
L31.1876 14.3781
" />
<path d="M31.9738 14.3781
L31.8528 14.3177
" />
<path d="M31.8528 14.3177
L31.7923 14.2572
" />
<path d="M31.7923 14.2572
L31.7319 14.1362
" />
<path d="M31.7319 14.1362
L31.7319 13.7734
" />
<path d="M31.7319 13.7734
L31.7923 13.6524
" />
<path d="M31.7923 13.6524
L31.8528 13.5919
" />
<path d="M31.8528 13.5919
L31.9738 13.5315
" />
<path d="M31.9738 13.5315
L32.1552 13.5315
" />
<path d="M32.1552 13.5315
L32.2761 13.5919
" />
<path d="M32.2761 13.5919
L32.3366 13.6524
" />
<path d="M32.3366 13.6524
L32.3971 13.7734
" />
<path d="M32.3971 13.7734
L32.3971 14.1362
" />
<path d="M32.3971 14.1362
L32.3366 14.2572
" />
<path d="M32.3366 14.2572
L32.2761 14.3177
" />
<path d="M32.2761 14.3177
L32.1552 14.3781
" />
<path d="M32.1552 14.3781
L31.9738 14.3781
" />
<path d="M33.1228 14.3781
L33.0018 14.3177
" />
<path d="M33.0018 14.3177
L32.9413 14.1967
" />
<path d="M32.9413 14.1967
L32.9413 13.1081
" />
<path d="M33.6065 14.3781
L33.6065 13.5315
" />
<path d="M33.6065 13.1081
L33.5461 13.1686
" />
<path d="M33.5461 13.1686
L33.6065 13.2291
" />
<path d="M33.6065 13.2291
L33.6670 13.1686
" />
<path d="M33.6670 13.1686
L33.6065 13.1081
" />
<path d="M33.6065 13.1081
L33.6065 13.2291
" />
<path d="M34.0299 13.5315
L34.5137 13.5315
" />
<path d="M34.2113 13.1081
L34.2113 14.1967
" />
<path d="M34.2113 14.1967
L34.2718 14.3177
" />
<path d="M34.2718 14.3177
L34.3928 14.3781
" />
<path d="M34.3928 14.3781
L34.5137 14.3781
" />
<path d="M34.9370 14.3781
L34.9370 13.1081
" />
<path d="M35.4813 14.3781
L35.4813 13.7129
" />
<path d="M35.4813 13.7129
L35.4208 13.5919
" />
<path d="M35.4208 13.5919
L35.2999 13.5315
" />
<path d="M35.2999 13.5315
L35.1185 13.5315
" />
<path d="M35.1185 13.5315
L34.9975 13.5919
" />
<path d="M34.9975 13.5919
L34.9370 13.6524
" />
<path d="M36.0860 14.3781
L36.0860 13.5315
" />
<path d="M36.0860 13.1081
L36.0256 13.1686
" />
<path d="M36.0256 13.1686
L36.0860 13.2291
" />
<path d="M36.0860 13.2291
L36.1465 13.1686
" />
<path d="M36.1465 13.1686
L36.0860 13.1081
" />
<path d="M36.0860 13.1081
L36.0860 13.2291
" />
<path d="M37.2351 14.3177
L37.1142 14.3781
" />
<path d="M37.1142 14.3781
L36.8723 14.3781
" />
<path d="M36.8723 14.3781
L36.7513 14.3177
" />
<path d="M36.7513 14.3177
L36.6908 14.2572
" />
<path d="M36.6908 14.2572
L36.6304 14.1362
" />
<path d="M36.6304 14.1362
L36.6304 13.7734
" />
<path d="M36.6304 13.7734
L36.6908 13.6524
" />
<path d="M36.6908 13.6524
L36.7513 13.5919
" />
<path d="M36.7513 13.5919
L36.8723 13.5315
" />
<path d="M36.8723 13.5315
L37.1142 13.5315
" />
<path d="M37.1142 13.5315
L37.2351 13.5919
" />
<path d="M37.7794 14.2572
L37.8399 14.3177
" />
<path d="M37.8399 14.3177
L37.7794 14.3781
" />
<path d="M37.7794 14.3781
L37.7190 14.3177
" />
<path d="M37.7190 14.3177
L37.7794 14.2572
" />
<path d="M37.7794 14.2572
L37.7794 14.3781
" />
<path d="M38.9285 14.3177
L38.8076 14.3781
" />
<path d="M38.8076 14.3781
L38.5657 14.3781
" />
<path d="M38.5657 14.3781
L38.4447 14.3177
" />
<path d="M38.4447 14.3177
L38.3842 14.2572
" />
<path d="M38.3842 14.2572
L38.3238 14.1362
" />
<path d="M38.3238 14.1362
L38.3238 13.7734
" />
<path d="M38.3238 13.7734
L38.3842 13.6524
" />
<path d="M38.3842 13.6524
L38.4447 13.5919
" />
<path d="M38.4447 13.5919
L38.5657 13.5315
" />
<path d="M38.5657 13.5315
L38.8076 13.5315
" />
<path d="M38.8076 13.5315
L38.9285 13.5919
" />
<path d="M39.6543 14.3781
L39.5333 14.3177
" />
<path d="M39.5333 14.3177
L39.4728 14.2572
" />
<path d="M39.4728 14.2572
L39.4124 14.1362
" />
<path d="M39.4124 14.1362
L39.4124 13.7734
" />
<path d="M39.4124 13.7734
L39.4728 13.6524
" />
<path d="M39.4728 13.6524
L39.5333 13.5919
" />
<path d="M39.5333 13.5919
L39.6543 13.5315
" />
<path d="M39.6543 13.5315
L39.8357 13.5315
" />
<path d="M39.8357 13.5315
L39.9566 13.5919
" />
<path d="M39.9566 13.5919
L40.0171 13.6524
" />
<path d="M40.0171 13.6524
L40.0776 13.7734
" />
<path d="M40.0776 13.7734
L40.0776 14.1362
" />
<path d="M40.0776 14.1362
L40.0171 14.2572
" />
<path d="M40.0171 14.2572
L39.9566 14.3177
" />
<path d="M39.9566 14.3177
L39.8357 14.3781
" />
<path d="M39.8357 14.3781
L39.6543 14.3781
" />
<path d="M40.6218 14.3781
L40.6218 13.5315
" />
<path d="M40.6218 13.6524
L40.6823 13.5919
" />
<path d="M40.6823 13.5919
L40.8033 13.5315
" />
<path d="M40.8033 13.5315
L40.9847 13.5315
" />
<path d="M40.9847 13.5315
L41.1056 13.5919
" />
<path d="M41.1056 13.5919
L41.1661 13.7129
" />
<path d="M41.1661 13.7129
L41.1661 14.3781
" />
<path d="M41.1661 13.7129
L41.2266 13.5919
" />
<path d="M41.2266 13.5919
L41.3475 13.5315
" />
<path d="M41.3475 13.5315
L41.5290 13.5315
" />
<path d="M41.5290 13.5315
L41.6499 13.5919
" />
<path d="M41.6499 13.5919
L41.7104 13.7129
" />
<path d="M41.7104 13.7129
L41.7104 14.3781
" />
<path d="M43.2223 13.0477
L42.1337 14.6805
" />
<path d="M43.6456 13.5315
L43.6456 14.8015
" />
<path d="M43.6456 13.5919
L43.7666 13.5315
" />
<path d="M43.7666 13.5315
L44.0085 13.5315
" />
<path d="M44.0085 13.5315
L44.1294 13.5919
" />
<path d="M44.1294 13.5919
L44.1899 13.6524
" />
<path d="M44.1899 13.6524
L44.2504 13.7734
" />
<path d="M44.2504 13.7734
L44.2504 14.1362
" />
<path d="M44.2504 14.1362
L44.1899 14.2572
" />
<path d="M44.1899 14.2572
L44.1294 14.3177
" />
<path d="M44.1294 14.3177
L44.0085 14.3781
" />
<path d="M44.0085 14.3781
L43.7666 14.3781
" />
<path d="M43.7666 14.3781
L43.6456 14.3177
" />
<path d="M45.3389 14.3781
L45.3389 13.1081
" />
<path d="M45.3389 14.3177
L45.2180 14.3781
" />
<path d="M45.2180 14.3781
L44.9761 14.3781
" />
<path d="M44.9761 14.3781
L44.8551 14.3177
" />
<path d="M44.8551 14.3177
L44.7946 14.2572
" />
<path d="M44.7946 14.2572
L44.7342 14.1362
" />
<path d="M44.7342 14.1362
L44.7342 13.7734
" />
<path d="M44.7342 13.7734
L44.7946 13.6524
" />
<path d="M44.7946 13.6524
L44.8551 13.5919
" />
<path d="M44.8551 13.5919
L44.9761 13.5315
" />
<path d="M44.9761 13.5315
L45.2180 13.5315
" />
<path d="M45.2180 13.5315
L45.3389 13.5919
" />
<path d="M45.7622 13.5315
L46.2460 13.5315
" />
<path d="M45.9436 14.3781
L45.9436 13.2896
" />
<path d="M45.9436 13.2896
L46.0041 13.1686
" />
<path d="M46.0041 13.1686
L46.1251 13.1081
" />
<path d="M46.1251 13.1081
L46.2460 13.1081
" />
<path d="M47.5765 13.0477
L46.4879 14.6805
" />
<path d="M48.5441 14.3781
L48.5441 13.1081
" />
<path d="M48.5441 14.3177
L48.4232 14.3781
" />
<path d="M48.4232 14.3781
L48.1813 14.3781
" />
<path d="M48.1813 14.3781
L48.0603 14.3177
" />
<path d="M48.0603 14.3177
L47.9998 14.2572
" />
<path d="M47.9998 14.2572
L47.9394 14.1362
" />
<path d="M47.9394 14.1362
L47.9394 13.7734
" />
<path d="M47.9394 13.7734
L47.9998 13.6524
" />
<path d="M47.9998 13.6524
L48.0603 13.5919
" />
<path d="M48.0603 13.5919
L48.1813 13.5315
" />
<path d="M48.1813 13.5315
L48.4232 13.5315
" />
<path d="M48.4232 13.5315
L48.5441 13.5919
" />
<path d="M49.0884 14.3177
L49.2093 14.3781
" />
<path d="M49.2093 14.3781
L49.4512 14.3781
" />
<path d="M49.4512 14.3781
L49.5722 14.3177
" />
<path d="M49.5722 14.3177
L49.6326 14.1967
" />
<path d="M49.6326 14.1967
L49.6326 14.1362
" />
<path d="M49.6326 14.1362
L49.5722 14.0153
" />
<path d="M49.5722 14.0153
L49.4512 13.9548
" />
<path d="M49.4512 13.9548
L49.2698 13.9548
" />
<path d="M49.2698 13.9548
L49.1488 13.8943
" />
<path d="M49.1488 13.8943
L49.0884 13.7734
" />
<path d="M49.0884 13.7734
L49.0884 13.7129
" />
<path d="M49.0884 13.7129
L49.1488 13.5919
" />
<path d="M49.1488 13.5919
L49.2698 13.5315
" />
<path d="M49.2698 13.5315
L49.4512 13.5315
" />
<path d="M49.4512 13.5315
L49.5722 13.5919
" />
<path d="M50.8422 14.3781
L50.1165 14.3781
" />
<path d="M50.4793 14.3781
L50.4793 13.1081
" />
<path d="M50.4793 13.1081
L50.3584 13.2896
" />
<path d="M50.3584 13.2896
L50.2374 13.4105
" />
<path d="M50.2374 13.4105
L50.1165 13.4710
" />
<path d="M52.0517 14.3781
L51.3260 14.3781
" />
<path d="M51.6888 14.3781
L51.6888 13.1081
" />
<path d="M51.6888 13.1081
L51.5679 13.2896
" />
<path d="M51.5679 13.2896
L51.4469 13.4105
" />
<path d="M51.4469 13.4105
L51.3260 13.4710
" />
<path d="M53.2612 14.3781
L52.5355 14.3781
" />
<path d="M52.8983 14.3781
L52.8983 13.1081
" />
<path d="M52.8983 13.1081
L52.7774 13.2896
" />
<path d="M52.7774 13.2896
L52.6564 13.4105
" />
<path d="M52.6564 13.4105
L52.5355 13.4710
" />
<path d="M53.6845 13.1081
L54.5311 13.1081
" />
<path d="M54.5311 13.1081
L53.9869 14.3781
" />
<path d="M55.0149 14.2572
L55.0754 14.3177
" />
<path d="M55.0754 14.3177
L55.0149 14.3781
" />
<path d="M55.0149 14.3781
L54.9545 14.3177
" />
<path d="M54.9545 14.3177
L55.0149 14.2572
" />
<path d="M55.0149 14.2572
L55.0149 14.3781
" />
<path d="M55.6197 13.5315
L55.6197 14.8015
" />
<path d="M55.6197 13.5919
L55.7407 13.5315
" />
<path d="M55.7407 13.5315
L55.9826 13.5315
" />
<path d="M55.9826 13.5315
L56.1035 13.5919
" />
<path d="M56.1035 13.5919
L56.1640 13.6524
" />
<path d="M56.1640 13.6524
L56.2245 13.7734
" />
<path d="M56.2245 13.7734
L56.2245 14.1362
" />
<path d="M56.2245 14.1362
L56.1640 14.2572
" />
<path d="M56.1640 14.2572
L56.1035 14.3177
" />
<path d="M56.1035 14.3177
L55.9826 14.3781
" />
<path d="M55.9826 14.3781
L55.7407 14.3781
" />
<path d="M55.7407 14.3781
L55.6197 14.3177
" />
<path d="M57.3130 14.3781
L57.3130 13.1081
" />
<path d="M57.3130 14.3177
L57.1921 14.3781
" />
<path d="M57.1921 14.3781
L56.9502 14.3781
" />
<path d="M56.9502 14.3781
L56.8292 14.3177
" />
<path d="M56.8292 14.3177
L56.7687 14.2572
" />
<path d="M56.7687 14.2572
L56.7083 14.1362
" />
<path d="M56.7083 14.1362
L56.7083 13.7734
" />
<path d="M56.7083 13.7734
L56.7687 13.6524
" />
<path d="M56.7687 13.6524
L56.8292 13.5919
" />
<path d="M56.8292 13.5919
L56.9502 13.5315
" />
<path d="M56.9502 13.5315
L57.1921 13.5315
" />
<path d="M57.1921 13.5315
L57.3130 13.5919
" />
<path d="M57.7363 13.5315
L58.2201 13.5315
" />
<path d="M57.9177 14.3781
L57.9177 13.2896
" />
<path d="M57.9177 13.2896
L57.9782 13.1686
" />
<path d="M57.9782 13.1686
L58.0992 13.1081
" />
<path d="M58.0992 13.1081
L58.2201 13.1081
" />
</g></g> 
</svg>
