<?xml version="1.0" standalone="no"?>
 <!DOCTYPE svg PUBLIC "-//W3C//DTD SVG 1.1//EN" 
 "http://www.w3.org/Graphics/SVG/1.1/DTD/svg11.dtd"> 
<svg
  xmlns:svg="http://www.w3.org/2000/svg"
  xmlns="http://www.w3.org/2000/svg"
  xmlns:xlink="http://www.w3.org/1999/xlink"
  version="1.1"
  width="12.9286mm" height="11.6078mm" viewBox="0.0000 0.0000 12.9286 11.6078">
<title>SVG Image created as working.svg date 2023/08/27 23:43:20 </title>
  <desc>Image generated by Eeschema-SVG </desc>
<g style="fill:#000000; fill-opacity:1.0000;stroke:#000000; stroke-opacity:1.0000;
stroke-linecap:round; stroke-linejoin:round;"
 transform="translate(0 0) scale(1 1)">
</g>
<g style="fill:#840000; fill-opacity:0.0; 
stroke:#840000; stroke-width:0.0000; stroke-opacity:1; 
stroke-linecap:round; stroke-linejoin:round;">
</g>
<g style="fill:#840084; fill-opacity:0.0; 
stroke:#840084; stroke-width:0.0000; stroke-opacity:1; 
stroke-linecap:round; stroke-linejoin:round;">
</g>
<g style="fill:#840000; fill-opacity:0.0; 
stroke:#840000; stroke-width:0.0000; stroke-opacity:1; 
stroke-linecap:round; stroke-linejoin:round;">
</g>
<g style="fill:#840000; fill-opacity:0.0; 
stroke:#840000; stroke-width:0.1524; stroke-opacity:1; 
stroke-linecap:round; stroke-linejoin:round;">
<path style="fill:#840000; fill-opacity:0.0; 
stroke:#840000; stroke-width:0.1524; stroke-opacity:1; 
stroke-linecap:round; stroke-linejoin:round;fill:none"
d="M 8.1374,4.5279
8.8994,3.2579
" /> 
<path style="fill:#840000; fill-opacity:0.0; 
stroke:#840000; stroke-width:0.1524; stroke-opacity:1; 
stroke-linecap:round; stroke-linejoin:round;fill:none"
d="M 8.8994,5.7979
8.8994,3.2579
" /> 
<path style="fill:#840000; fill-opacity:0.0; 
stroke:#840000; stroke-width:0.1524; stroke-opacity:1; 
stroke-linecap:round; stroke-linejoin:round;fill:none"
d="M 8.8994,3.2579
9.6614,4.5279
" /> 
</g>
<g style="fill:#840084; fill-opacity:0.0; 
stroke:#840084; stroke-width:0.1524; stroke-opacity:1; 
stroke-linecap:round; stroke-linejoin:round;">
</g>
<g style="fill:#006464; fill-opacity:0.0; 
stroke:#006464; stroke-width:0.1524; stroke-opacity:1; 
stroke-linecap:round; stroke-linejoin:round;">
</g>
<g style="fill:#006464; fill-opacity:0.0; 
stroke:#006464; stroke-width:0.1588; stroke-opacity:1; 
stroke-linecap:round; stroke-linejoin:round;">
<text x="3.8194" y="10.2429"
textLength="6.5724" font-size="1.6933" lengthAdjust="spacingAndGlyphs"
text-anchor="middle" opacity="0">#PWR?</text>
<g class="stroked-text"><desc>#PWR?</desc>
<path d="M0.8863 9.3405
L1.7934 9.3405
" />
<path d="M1.2491 8.7962
L0.8863 10.4290
" />
<path d="M1.6724 9.8847
L0.7653 9.8847
" />
<path d="M1.3096 10.4290
L1.6724 8.7962
" />
<path d="M2.2167 10.1871
L2.2167 8.9171
" />
<path d="M2.2167 8.9171
L2.7005 8.9171
" />
<path d="M2.7005 8.9171
L2.8215 8.9776
" />
<path d="M2.8215 8.9776
L2.8820 9.0381
" />
<path d="M2.8820 9.0381
L2.9424 9.1590
" />
<path d="M2.9424 9.1590
L2.9424 9.3405
" />
<path d="M2.9424 9.3405
L2.8820 9.4614
" />
<path d="M2.8820 9.4614
L2.8215 9.5219
" />
<path d="M2.8215 9.5219
L2.7005 9.5824
" />
<path d="M2.7005 9.5824
L2.2167 9.5824
" />
<path d="M3.3658 8.9171
L3.6682 10.1871
" />
<path d="M3.6682 10.1871
L3.9101 9.2800
" />
<path d="M3.9101 9.2800
L4.1520 10.1871
" />
<path d="M4.1520 10.1871
L4.4544 8.9171
" />
<path d="M5.6638 10.1871
L5.2405 9.5824
" />
<path d="M4.9381 10.1871
L4.9381 8.9171
" />
<path d="M4.9381 8.9171
L5.4219 8.9171
" />
<path d="M5.4219 8.9171
L5.5429 8.9776
" />
<path d="M5.5429 8.9776
L5.6034 9.0381
" />
<path d="M5.6034 9.0381
L5.6638 9.1590
" />
<path d="M5.6638 9.1590
L5.6638 9.3405
" />
<path d="M5.6638 9.3405
L5.6034 9.4614
" />
<path d="M5.6034 9.4614
L5.5429 9.5219
" />
<path d="M5.5429 9.5219
L5.4219 9.5824
" />
<path d="M5.4219 9.5824
L4.9381 9.5824
" />
<path d="M6.3896 10.0662
L6.4500 10.1267
" />
<path d="M6.4500 10.1267
L6.3896 10.1871
" />
<path d="M6.3896 10.1871
L6.3291 10.1267
" />
<path d="M6.3291 10.1267
L6.3896 10.0662
" />
<path d="M6.3896 10.0662
L6.3896 10.1871
" />
<path d="M6.1477 8.9776
L6.2686 8.9171
" />
<path d="M6.2686 8.9171
L6.5710 8.9171
" />
<path d="M6.5710 8.9171
L6.6919 8.9776
" />
<path d="M6.6919 8.9776
L6.7524 9.0986
" />
<path d="M6.7524 9.0986
L6.7524 9.2195
" />
<path d="M6.7524 9.2195
L6.6919 9.3405
" />
<path d="M6.6919 9.3405
L6.6315 9.4009
" />
<path d="M6.6315 9.4009
L6.5105 9.4614
" />
<path d="M6.5105 9.4614
L6.4500 9.5219
" />
<path d="M6.4500 9.5219
L6.3896 9.6428
" />
<path d="M6.3896 9.6428
L6.3896 9.7033
" />
</g><text x="8.8994" y="2.6229"
textLength="5.9072" font-size="1.6933" lengthAdjust="spacingAndGlyphs"
text-anchor="middle" opacity="0">Vdrive</text>
<g class="stroked-text"><desc>Vdrive</desc>
<path d="M6.1779 1.2971
L6.6012 2.5671
" />
<path d="M6.6012 2.5671
L7.0246 1.2971
" />
<path d="M7.9922 2.5671
L7.9922 1.2971
" />
<path d="M7.9922 2.5067
L7.8713 2.5671
" />
<path d="M7.8713 2.5671
L7.6294 2.5671
" />
<path d="M7.6294 2.5671
L7.5084 2.5067
" />
<path d="M7.5084 2.5067
L7.4479 2.4462
" />
<path d="M7.4479 2.4462
L7.3875 2.3252
" />
<path d="M7.3875 2.3252
L7.3875 1.9624
" />
<path d="M7.3875 1.9624
L7.4479 1.8414
" />
<path d="M7.4479 1.8414
L7.5084 1.7809
" />
<path d="M7.5084 1.7809
L7.6294 1.7205
" />
<path d="M7.6294 1.7205
L7.8713 1.7205
" />
<path d="M7.8713 1.7205
L7.9922 1.7809
" />
<path d="M8.5969 2.5671
L8.5969 1.7205
" />
<path d="M8.5969 1.9624
L8.6574 1.8414
" />
<path d="M8.6574 1.8414
L8.7179 1.7809
" />
<path d="M8.7179 1.7809
L8.8388 1.7205
" />
<path d="M8.8388 1.7205
L8.9598 1.7205
" />
<path d="M9.3831 2.5671
L9.3831 1.7205
" />
<path d="M9.3831 1.2971
L9.3227 1.3576
" />
<path d="M9.3227 1.3576
L9.3831 1.4181
" />
<path d="M9.3831 1.4181
L9.4436 1.3576
" />
<path d="M9.4436 1.3576
L9.3831 1.2971
" />
<path d="M9.3831 1.2971
L9.3831 1.4181
" />
<path d="M9.8670 1.7205
L10.1694 2.5671
" />
<path d="M10.1694 2.5671
L10.4717 1.7205
" />
<path d="M11.4393 2.5067
L11.3184 2.5671
" />
<path d="M11.3184 2.5671
L11.0765 2.5671
" />
<path d="M11.0765 2.5671
L10.9555 2.5067
" />
<path d="M10.9555 2.5067
L10.8951 2.3857
" />
<path d="M10.8951 2.3857
L10.8951 1.9019
" />
<path d="M10.8951 1.9019
L10.9555 1.7809
" />
<path d="M10.9555 1.7809
L11.0765 1.7205
" />
<path d="M11.0765 1.7205
L11.3184 1.7205
" />
<path d="M11.3184 1.7205
L11.4393 1.7809
" />
<path d="M11.4393 1.7809
L11.4998 1.9019
" />
<path d="M11.4998 1.9019
L11.4998 2.0228
" />
<path d="M11.4998 2.0228
L10.8951 2.1438
" />
</g></g> 
</svg>
