<?xml version="1.0" standalone="no"?>
 <!DOCTYPE svg PUBLIC "-//W3C//DTD SVG 1.1//EN" 
 "http://www.w3.org/Graphics/SVG/1.1/DTD/svg11.dtd"> 
<svg
  xmlns:svg="http://www.w3.org/2000/svg"
  xmlns="http://www.w3.org/2000/svg"
  xmlns:xlink="http://www.w3.org/1999/xlink"
  version="1.1"
  width="109.9312mm" height="78.6638mm" viewBox="0.0000 0.0000 109.9312 78.6638">
<title>SVG Image created as working.svg date 2023/08/19 02:51:59 </title>
  <desc>Image generated by Eeschema-SVG </desc>
<g style="fill:#000000; fill-opacity:1.0000;stroke:#000000; stroke-opacity:1.0000;
stroke-linecap:round; stroke-linejoin:round;"
 transform="translate(0 0) scale(1 1)">
</g>
<g style="fill:#840000; fill-opacity:0.0; 
stroke:#840000; stroke-width:0.0000; stroke-opacity:1; 
stroke-linecap:round; stroke-linejoin:round;">
</g>
<g style="fill:#840084; fill-opacity:0.0; 
stroke:#840084; stroke-width:0.0000; stroke-opacity:1; 
stroke-linecap:round; stroke-linejoin:round;">
</g>
<g style="fill:#840000; fill-opacity:0.0; 
stroke:#840000; stroke-width:0.0000; stroke-opacity:1; 
stroke-linecap:round; stroke-linejoin:round;">
</g>
<g style="fill:#840084; fill-opacity:0.0; 
stroke:#840084; stroke-width:0.0000; stroke-opacity:1; 
stroke-linecap:round; stroke-linejoin:round;">
</g>
<g style="fill:#006464; fill-opacity:0.0; 
stroke:#006464; stroke-width:0.0000; stroke-opacity:1; 
stroke-linecap:round; stroke-linejoin:round;">
</g>
<g style="fill:#006464; fill-opacity:0.0; 
stroke:#006464; stroke-width:0.1588; stroke-opacity:1; 
stroke-linecap:round; stroke-linejoin:round;">
<text x="35.9614" y="8.2109"
textLength="2.6415" font-size="1.6933" lengthAdjust="spacingAndGlyphs"
text-anchor="middle" opacity="0">U?</text>
<g class="stroked-text"><desc>U?</desc>
<path d="M35.0542 6.8851
L35.0542 7.9132
" />
<path d="M35.0542 7.9132
L35.1147 8.0342
" />
<path d="M35.1147 8.0342
L35.1752 8.0947
" />
<path d="M35.1752 8.0947
L35.2961 8.1551
" />
<path d="M35.2961 8.1551
L35.5380 8.1551
" />
<path d="M35.5380 8.1551
L35.6590 8.0947
" />
<path d="M35.6590 8.0947
L35.7195 8.0342
" />
<path d="M35.7195 8.0342
L35.7799 7.9132
" />
<path d="M35.7799 7.9132
L35.7799 6.8851
" />
<path d="M36.5662 8.0342
L36.6266 8.0947
" />
<path d="M36.6266 8.0947
L36.5662 8.1551
" />
<path d="M36.5662 8.1551
L36.5057 8.0947
" />
<path d="M36.5057 8.0947
L36.5662 8.0342
" />
<path d="M36.5662 8.0342
L36.5662 8.1551
" />
<path d="M36.3243 6.9456
L36.4452 6.8851
" />
<path d="M36.4452 6.8851
L36.7476 6.8851
" />
<path d="M36.7476 6.8851
L36.8685 6.9456
" />
<path d="M36.8685 6.9456
L36.9290 7.0666
" />
<path d="M36.9290 7.0666
L36.9290 7.1875
" />
<path d="M36.9290 7.1875
L36.8685 7.3085
" />
<path d="M36.8685 7.3085
L36.8081 7.3689
" />
<path d="M36.8081 7.3689
L36.6871 7.4294
" />
<path d="M36.6871 7.4294
L36.6266 7.4899
" />
<path d="M36.6266 7.4899
L36.5662 7.6108
" />
<path d="M36.5662 7.6108
L36.5662 7.6713
" />
</g><text x="62.8324" y="8.2109"
textLength="14.7365" font-size="1.6933" lengthAdjust="spacingAndGlyphs"
text-anchor="middle" opacity="0">MKE02Z32VLC4</text>
<g class="stroked-text"><desc>MKE02Z32VLC4</desc>
<path d="M55.8777 8.1551
L55.8777 6.8851
" />
<path d="M55.8777 6.8851
L56.3011 7.7923
" />
<path d="M56.3011 7.7923
L56.7244 6.8851
" />
<path d="M56.7244 6.8851
L56.7244 8.1551
" />
<path d="M57.3291 8.1551
L57.3291 6.8851
" />
<path d="M58.0548 8.1551
L57.5106 7.4294
" />
<path d="M58.0548 6.8851
L57.3291 7.6108
" />
<path d="M58.5991 7.4899
L59.0225 7.4899
" />
<path d="M59.2039 8.1551
L58.5991 8.1551
" />
<path d="M58.5991 8.1551
L58.5991 6.8851
" />
<path d="M58.5991 6.8851
L59.2039 6.8851
" />
<path d="M59.9900 6.8851
L60.1110 6.8851
" />
<path d="M60.1110 6.8851
L60.2319 6.9456
" />
<path d="M60.2319 6.9456
L60.2924 7.0061
" />
<path d="M60.2924 7.0061
L60.3529 7.1270
" />
<path d="M60.3529 7.1270
L60.4134 7.3689
" />
<path d="M60.4134 7.3689
L60.4134 7.6713
" />
<path d="M60.4134 7.6713
L60.3529 7.9132
" />
<path d="M60.3529 7.9132
L60.2924 8.0342
" />
<path d="M60.2924 8.0342
L60.2319 8.0947
" />
<path d="M60.2319 8.0947
L60.1110 8.1551
" />
<path d="M60.1110 8.1551
L59.9900 8.1551
" />
<path d="M59.9900 8.1551
L59.8691 8.0947
" />
<path d="M59.8691 8.0947
L59.8086 8.0342
" />
<path d="M59.8086 8.0342
L59.7481 7.9132
" />
<path d="M59.7481 7.9132
L59.6877 7.6713
" />
<path d="M59.6877 7.6713
L59.6877 7.3689
" />
<path d="M59.6877 7.3689
L59.7481 7.1270
" />
<path d="M59.7481 7.1270
L59.8086 7.0061
" />
<path d="M59.8086 7.0061
L59.8691 6.9456
" />
<path d="M59.8691 6.9456
L59.9900 6.8851
" />
<path d="M60.8972 7.0061
L60.9576 6.9456
" />
<path d="M60.9576 6.9456
L61.0786 6.8851
" />
<path d="M61.0786 6.8851
L61.3810 6.8851
" />
<path d="M61.3810 6.8851
L61.5019 6.9456
" />
<path d="M61.5019 6.9456
L61.5624 7.0061
" />
<path d="M61.5624 7.0061
L61.6229 7.1270
" />
<path d="M61.6229 7.1270
L61.6229 7.2480
" />
<path d="M61.6229 7.2480
L61.5624 7.4294
" />
<path d="M61.5624 7.4294
L60.8367 8.1551
" />
<path d="M60.8367 8.1551
L61.6229 8.1551
" />
<path d="M62.0462 6.8851
L62.8928 6.8851
" />
<path d="M62.8928 6.8851
L62.0462 8.1551
" />
<path d="M62.0462 8.1551
L62.8928 8.1551
" />
<path d="M63.2557 6.8851
L64.0419 6.8851
" />
<path d="M64.0419 6.8851
L63.6185 7.3689
" />
<path d="M63.6185 7.3689
L63.8000 7.3689
" />
<path d="M63.8000 7.3689
L63.9209 7.4294
" />
<path d="M63.9209 7.4294
L63.9814 7.4899
" />
<path d="M63.9814 7.4899
L64.0419 7.6108
" />
<path d="M64.0419 7.6108
L64.0419 7.9132
" />
<path d="M64.0419 7.9132
L63.9814 8.0342
" />
<path d="M63.9814 8.0342
L63.9209 8.0947
" />
<path d="M63.9209 8.0947
L63.8000 8.1551
" />
<path d="M63.8000 8.1551
L63.4371 8.1551
" />
<path d="M63.4371 8.1551
L63.3162 8.0947
" />
<path d="M63.3162 8.0947
L63.2557 8.0342
" />
<path d="M64.5257 7.0061
L64.5861 6.9456
" />
<path d="M64.5861 6.9456
L64.7071 6.8851
" />
<path d="M64.7071 6.8851
L65.0095 6.8851
" />
<path d="M65.0095 6.8851
L65.1304 6.9456
" />
<path d="M65.1304 6.9456
L65.1909 7.0061
" />
<path d="M65.1909 7.0061
L65.2514 7.1270
" />
<path d="M65.2514 7.1270
L65.2514 7.2480
" />
<path d="M65.2514 7.2480
L65.1909 7.4294
" />
<path d="M65.1909 7.4294
L64.4652 8.1551
" />
<path d="M64.4652 8.1551
L65.2514 8.1551
" />
<path d="M65.6142 6.8851
L66.0375 8.1551
" />
<path d="M66.0375 8.1551
L66.4609 6.8851
" />
<path d="M67.4890 8.1551
L66.8842 8.1551
" />
<path d="M66.8842 8.1551
L66.8842 6.8851
" />
<path d="M68.6380 8.0342
L68.5776 8.0947
" />
<path d="M68.5776 8.0947
L68.3961 8.1551
" />
<path d="M68.3961 8.1551
L68.2752 8.1551
" />
<path d="M68.2752 8.1551
L68.0938 8.0947
" />
<path d="M68.0938 8.0947
L67.9728 7.9737
" />
<path d="M67.9728 7.9737
L67.9123 7.8527
" />
<path d="M67.9123 7.8527
L67.8519 7.6108
" />
<path d="M67.8519 7.6108
L67.8519 7.4294
" />
<path d="M67.8519 7.4294
L67.9123 7.1875
" />
<path d="M67.9123 7.1875
L67.9728 7.0666
" />
<path d="M67.9728 7.0666
L68.0938 6.9456
" />
<path d="M68.0938 6.9456
L68.2752 6.8851
" />
<path d="M68.2752 6.8851
L68.3961 6.8851
" />
<path d="M68.3961 6.8851
L68.5776 6.9456
" />
<path d="M68.5776 6.9456
L68.6380 7.0061
" />
<path d="M69.7266 7.3085
L69.7266 8.1551
" />
<path d="M69.4242 6.8247
L69.1219 7.7318
" />
<path d="M69.1219 7.7318
L69.9080 7.7318
" />
</g></g>
<g style="fill:#840084; fill-opacity:0.0; 
stroke:#840084; stroke-width:0.1588; stroke-opacity:1; 
stroke-linecap:round; stroke-linejoin:round;">
<text x="80.5927" y="71.7109"
textLength="38.5641" font-size="1.6933" lengthAdjust="spacingAndGlyphs"
text-anchor="middle" opacity="0">Package_QFP:LQFP-32_7x7mm_P0.8mm</text>
<g class="stroked-text"><desc>Package_QFP:LQFP-32_7x7mm_P0.8mm</desc>
<path d="M61.7167 71.6551
L61.8754 70.3851
" />
<path d="M61.8754 70.3851
L62.3592 70.3851
" />
<path d="M62.3592 70.3851
L62.4726 70.4456
" />
<path d="M62.4726 70.4456
L62.5255 70.5061
" />
<path d="M62.5255 70.5061
L62.5709 70.6270
" />
<path d="M62.5709 70.6270
L62.5482 70.8085
" />
<path d="M62.5482 70.8085
L62.4726 70.9294
" />
<path d="M62.4726 70.9294
L62.4046 70.9899
" />
<path d="M62.4046 70.9899
L62.2761 71.0504
" />
<path d="M62.2761 71.0504
L61.7923 71.0504
" />
<path d="M63.5310 71.6551
L63.6141 70.9899
" />
<path d="M63.6141 70.9899
L63.5688 70.8689
" />
<path d="M63.5688 70.8689
L63.4554 70.8085
" />
<path d="M63.4554 70.8085
L63.2135 70.8085
" />
<path d="M63.2135 70.8085
L63.0849 70.8689
" />
<path d="M63.5385 71.5947
L63.4100 71.6551
" />
<path d="M63.4100 71.6551
L63.1076 71.6551
" />
<path d="M63.1076 71.6551
L62.9942 71.5947
" />
<path d="M62.9942 71.5947
L62.9489 71.4737
" />
<path d="M62.9489 71.4737
L62.9640 71.3527
" />
<path d="M62.9640 71.3527
L63.0396 71.2318
" />
<path d="M63.0396 71.2318
L63.1681 71.1713
" />
<path d="M63.1681 71.1713
L63.4705 71.1713
" />
<path d="M63.4705 71.1713
L63.5990 71.1108
" />
<path d="M64.6875 71.5947
L64.5590 71.6551
" />
<path d="M64.5590 71.6551
L64.3171 71.6551
" />
<path d="M64.3171 71.6551
L64.2037 71.5947
" />
<path d="M64.2037 71.5947
L64.1508 71.5342
" />
<path d="M64.1508 71.5342
L64.1054 71.4132
" />
<path d="M64.1054 71.4132
L64.1508 71.0504
" />
<path d="M64.1508 71.0504
L64.2264 70.9294
" />
<path d="M64.2264 70.9294
L64.2944 70.8689
" />
<path d="M64.2944 70.8689
L64.4229 70.8085
" />
<path d="M64.4229 70.8085
L64.6648 70.8085
" />
<path d="M64.6648 70.8085
L64.7782 70.8689
" />
<path d="M65.2243 71.6551
L65.3830 70.3851
" />
<path d="M65.4057 71.1713
L65.7081 71.6551
" />
<path d="M65.8139 70.8085
L65.2696 71.2923
" />
<path d="M66.7967 71.6551
L66.8798 70.9899
" />
<path d="M66.8798 70.9899
L66.8345 70.8689
" />
<path d="M66.8345 70.8689
L66.7211 70.8085
" />
<path d="M66.7211 70.8085
L66.4792 70.8085
" />
<path d="M66.4792 70.8085
L66.3506 70.8689
" />
<path d="M66.8042 71.5947
L66.6757 71.6551
" />
<path d="M66.6757 71.6551
L66.3733 71.6551
" />
<path d="M66.3733 71.6551
L66.2599 71.5947
" />
<path d="M66.2599 71.5947
L66.2146 71.4737
" />
<path d="M66.2146 71.4737
L66.2297 71.3527
" />
<path d="M66.2297 71.3527
L66.3053 71.2318
" />
<path d="M66.3053 71.2318
L66.4338 71.1713
" />
<path d="M66.4338 71.1713
L66.7362 71.1713
" />
<path d="M66.7362 71.1713
L66.8647 71.1108
" />
<path d="M68.0515 70.8085
L67.9230 71.8366
" />
<path d="M67.9230 71.8366
L67.8474 71.9575
" />
<path d="M67.8474 71.9575
L67.7793 72.0180
" />
<path d="M67.7793 72.0180
L67.6508 72.0785
" />
<path d="M67.6508 72.0785
L67.4694 72.0785
" />
<path d="M67.4694 72.0785
L67.3560 72.0180
" />
<path d="M67.9532 71.5947
L67.8247 71.6551
" />
<path d="M67.8247 71.6551
L67.5828 71.6551
" />
<path d="M67.5828 71.6551
L67.4694 71.5947
" />
<path d="M67.4694 71.5947
L67.4165 71.5342
" />
<path d="M67.4165 71.5342
L67.3711 71.4132
" />
<path d="M67.3711 71.4132
L67.4165 71.0504
" />
<path d="M67.4165 71.0504
L67.4921 70.9294
" />
<path d="M67.4921 70.9294
L67.5601 70.8689
" />
<path d="M67.5601 70.8689
L67.6886 70.8085
" />
<path d="M67.6886 70.8085
L67.9305 70.8085
" />
<path d="M67.9305 70.8085
L68.0439 70.8689
" />
<path d="M69.0417 71.5947
L68.9132 71.6551
" />
<path d="M68.9132 71.6551
L68.6713 71.6551
" />
<path d="M68.6713 71.6551
L68.5579 71.5947
" />
<path d="M68.5579 71.5947
L68.5126 71.4737
" />
<path d="M68.5126 71.4737
L68.5731 70.9899
" />
<path d="M68.5731 70.9899
L68.6486 70.8689
" />
<path d="M68.6486 70.8689
L68.7772 70.8085
" />
<path d="M68.7772 70.8085
L69.0191 70.8085
" />
<path d="M69.0191 70.8085
L69.1325 70.8689
" />
<path d="M69.1325 70.8689
L69.1778 70.9899
" />
<path d="M69.1778 70.9899
L69.1627 71.1108
" />
<path d="M69.1627 71.1108
L68.5428 71.2318
" />
<path d="M69.3215 71.7761
L70.2891 71.7761
" />
<path d="M71.4381 71.7761
L71.3247 71.7156
" />
<path d="M71.3247 71.7156
L71.2189 71.5947
" />
<path d="M71.2189 71.5947
L71.0601 71.4132
" />
<path d="M71.0601 71.4132
L70.9468 71.3527
" />
<path d="M70.9468 71.3527
L70.8258 71.3527
" />
<path d="M70.8485 71.6551
L70.7351 71.5947
" />
<path d="M70.7351 71.5947
L70.6293 71.4737
" />
<path d="M70.6293 71.4737
L70.5990 71.2318
" />
<path d="M70.5990 71.2318
L70.6519 70.8085
" />
<path d="M70.6519 70.8085
L70.7426 70.5666
" />
<path d="M70.7426 70.5666
L70.8787 70.4456
" />
<path d="M70.8787 70.4456
L71.0072 70.3851
" />
<path d="M71.0072 70.3851
L71.2491 70.3851
" />
<path d="M71.2491 70.3851
L71.3625 70.4456
" />
<path d="M71.3625 70.4456
L71.4684 70.5666
" />
<path d="M71.4684 70.5666
L71.4986 70.8085
" />
<path d="M71.4986 70.8085
L71.4457 71.2318
" />
<path d="M71.4457 71.2318
L71.3550 71.4737
" />
<path d="M71.3550 71.4737
L71.2189 71.5947
" />
<path d="M71.2189 71.5947
L71.0904 71.6551
" />
<path d="M71.0904 71.6551
L70.8485 71.6551
" />
<path d="M72.4436 70.9899
L72.0202 70.9899
" />
<path d="M71.9371 71.6551
L72.0958 70.3851
" />
<path d="M72.0958 70.3851
L72.7006 70.3851
" />
<path d="M73.0257 71.6551
L73.1844 70.3851
" />
<path d="M73.1844 70.3851
L73.6682 70.3851
" />
<path d="M73.6682 70.3851
L73.7816 70.4456
" />
<path d="M73.7816 70.4456
L73.8345 70.5061
" />
<path d="M73.8345 70.5061
L73.8799 70.6270
" />
<path d="M73.8799 70.6270
L73.8572 70.8085
" />
<path d="M73.8572 70.8085
L73.7816 70.9294
" />
<path d="M73.7816 70.9294
L73.7136 70.9899
" />
<path d="M73.7136 70.9899
L73.5851 71.0504
" />
<path d="M73.5851 71.0504
L73.1013 71.0504
" />
<path d="M74.3108 71.5342
L74.3637 71.5947
" />
<path d="M74.3637 71.5947
L74.2957 71.6551
" />
<path d="M74.2957 71.6551
L74.2428 71.5947
" />
<path d="M74.2428 71.5947
L74.3108 71.5342
" />
<path d="M74.3108 71.5342
L74.2957 71.6551
" />
<path d="M74.3939 70.8689
L74.4469 70.9294
" />
<path d="M74.4469 70.9294
L74.3788 70.9899
" />
<path d="M74.3788 70.9899
L74.3259 70.9294
" />
<path d="M74.3259 70.9294
L74.3939 70.8689
" />
<path d="M74.3939 70.8689
L74.3788 70.9899
" />
<path d="M75.5052 71.6551
L74.9005 71.6551
" />
<path d="M74.9005 71.6551
L75.0592 70.3851
" />
<path d="M76.7601 71.7761
L76.6467 71.7156
" />
<path d="M76.6467 71.7156
L76.5409 71.5947
" />
<path d="M76.5409 71.5947
L76.3821 71.4132
" />
<path d="M76.3821 71.4132
L76.2688 71.3527
" />
<path d="M76.2688 71.3527
L76.1478 71.3527
" />
<path d="M76.1705 71.6551
L76.0571 71.5947
" />
<path d="M76.0571 71.5947
L75.9513 71.4737
" />
<path d="M75.9513 71.4737
L75.9210 71.2318
" />
<path d="M75.9210 71.2318
L75.9739 70.8085
" />
<path d="M75.9739 70.8085
L76.0646 70.5666
" />
<path d="M76.0646 70.5666
L76.2007 70.4456
" />
<path d="M76.2007 70.4456
L76.3292 70.3851
" />
<path d="M76.3292 70.3851
L76.5711 70.3851
" />
<path d="M76.5711 70.3851
L76.6845 70.4456
" />
<path d="M76.6845 70.4456
L76.7904 70.5666
" />
<path d="M76.7904 70.5666
L76.8206 70.8085
" />
<path d="M76.8206 70.8085
L76.7677 71.2318
" />
<path d="M76.7677 71.2318
L76.6770 71.4737
" />
<path d="M76.6770 71.4737
L76.5409 71.5947
" />
<path d="M76.5409 71.5947
L76.4124 71.6551
" />
<path d="M76.4124 71.6551
L76.1705 71.6551
" />
<path d="M77.7656 70.9899
L77.3422 70.9899
" />
<path d="M77.2591 71.6551
L77.4178 70.3851
" />
<path d="M77.4178 70.3851
L78.0226 70.3851
" />
<path d="M78.3477 71.6551
L78.5064 70.3851
" />
<path d="M78.5064 70.3851
L78.9902 70.3851
" />
<path d="M78.9902 70.3851
L79.1036 70.4456
" />
<path d="M79.1036 70.4456
L79.1565 70.5061
" />
<path d="M79.1565 70.5061
L79.2019 70.6270
" />
<path d="M79.2019 70.6270
L79.1792 70.8085
" />
<path d="M79.1792 70.8085
L79.1036 70.9294
" />
<path d="M79.1036 70.9294
L79.0356 70.9899
" />
<path d="M79.0356 70.9899
L78.9071 71.0504
" />
<path d="M78.9071 71.0504
L78.4233 71.0504
" />
<path d="M79.6781 71.1713
L80.6458 71.1713
" />
<path d="M81.2279 70.3851
L82.0141 70.3851
" />
<path d="M82.0141 70.3851
L81.5303 70.8689
" />
<path d="M81.5303 70.8689
L81.7117 70.8689
" />
<path d="M81.7117 70.8689
L81.8251 70.9294
" />
<path d="M81.8251 70.9294
L81.8780 70.9899
" />
<path d="M81.8780 70.9899
L81.9233 71.1108
" />
<path d="M81.9233 71.1108
L81.8855 71.4132
" />
<path d="M81.8855 71.4132
L81.8100 71.5342
" />
<path d="M81.8100 71.5342
L81.7419 71.5947
" />
<path d="M81.7419 71.5947
L81.6134 71.6551
" />
<path d="M81.6134 71.6551
L81.2505 71.6551
" />
<path d="M81.2505 71.6551
L81.1372 71.5947
" />
<path d="M81.1372 71.5947
L81.0842 71.5342
" />
<path d="M82.4827 70.5061
L82.5508 70.4456
" />
<path d="M82.5508 70.4456
L82.6793 70.3851
" />
<path d="M82.6793 70.3851
L82.9817 70.3851
" />
<path d="M82.9817 70.3851
L83.0950 70.4456
" />
<path d="M83.0950 70.4456
L83.1480 70.5061
" />
<path d="M83.1480 70.5061
L83.1933 70.6270
" />
<path d="M83.1933 70.6270
L83.1782 70.7480
" />
<path d="M83.1782 70.7480
L83.0950 70.9294
" />
<path d="M83.0950 70.9294
L82.2786 71.6551
" />
<path d="M82.2786 71.6551
L83.0648 71.6551
" />
<path d="M83.2916 71.7761
L84.2592 71.7761
" />
<path d="M84.6145 70.3851
L85.4611 70.3851
" />
<path d="M85.4611 70.3851
L84.7581 71.6551
" />
<path d="M85.6652 71.6551
L86.4363 70.8085
" />
<path d="M85.7711 70.8085
L86.3305 71.6551
" />
<path d="M86.8521 70.3851
L87.6987 70.3851
" />
<path d="M87.6987 70.3851
L86.9957 71.6551
" />
<path d="M88.0238 71.6551
L88.1296 70.8085
" />
<path d="M88.1145 70.9294
L88.1825 70.8689
" />
<path d="M88.1825 70.8689
L88.3110 70.8085
" />
<path d="M88.3110 70.8085
L88.4925 70.8085
" />
<path d="M88.4925 70.8085
L88.6059 70.8689
" />
<path d="M88.6059 70.8689
L88.6512 70.9899
" />
<path d="M88.6512 70.9899
L88.5681 71.6551
" />
<path d="M88.6512 70.9899
L88.7268 70.8689
" />
<path d="M88.7268 70.8689
L88.8553 70.8085
" />
<path d="M88.8553 70.8085
L89.0367 70.8085
" />
<path d="M89.0367 70.8085
L89.1501 70.8689
" />
<path d="M89.1501 70.8689
L89.1955 70.9899
" />
<path d="M89.1955 70.9899
L89.1123 71.6551
" />
<path d="M89.7171 71.6551
L89.8229 70.8085
" />
<path d="M89.8078 70.9294
L89.8758 70.8689
" />
<path d="M89.8758 70.8689
L90.0043 70.8085
" />
<path d="M90.0043 70.8085
L90.1858 70.8085
" />
<path d="M90.1858 70.8085
L90.2992 70.8689
" />
<path d="M90.2992 70.8689
L90.3445 70.9899
" />
<path d="M90.3445 70.9899
L90.2614 71.6551
" />
<path d="M90.3445 70.9899
L90.4201 70.8689
" />
<path d="M90.4201 70.8689
L90.5486 70.8085
" />
<path d="M90.5486 70.8085
L90.7300 70.8085
" />
<path d="M90.7300 70.8085
L90.8434 70.8689
" />
<path d="M90.8434 70.8689
L90.8888 70.9899
" />
<path d="M90.8888 70.9899
L90.8056 71.6551
" />
<path d="M91.0929 71.7761
L92.0605 71.7761
" />
<path d="M92.3780 71.6551
L92.5367 70.3851
" />
<path d="M92.5367 70.3851
L93.0205 70.3851
" />
<path d="M93.0205 70.3851
L93.1339 70.4456
" />
<path d="M93.1339 70.4456
L93.1868 70.5061
" />
<path d="M93.1868 70.5061
L93.2322 70.6270
" />
<path d="M93.2322 70.6270
L93.2095 70.8085
" />
<path d="M93.2095 70.8085
L93.1339 70.9294
" />
<path d="M93.1339 70.9294
L93.0659 70.9899
" />
<path d="M93.0659 70.9899
L92.9374 71.0504
" />
<path d="M92.9374 71.0504
L92.4536 71.0504
" />
<path d="M94.0486 70.3851
L94.1696 70.3851
" />
<path d="M94.1696 70.3851
L94.2830 70.4456
" />
<path d="M94.2830 70.4456
L94.3359 70.5061
" />
<path d="M94.3359 70.5061
L94.3812 70.6270
" />
<path d="M94.3812 70.6270
L94.4115 70.8689
" />
<path d="M94.4115 70.8689
L94.3737 71.1713
" />
<path d="M94.3737 71.1713
L94.2830 71.4132
" />
<path d="M94.2830 71.4132
L94.2074 71.5342
" />
<path d="M94.2074 71.5342
L94.1393 71.5947
" />
<path d="M94.1393 71.5947
L94.0108 71.6551
" />
<path d="M94.0108 71.6551
L93.8899 71.6551
" />
<path d="M93.8899 71.6551
L93.7765 71.5947
" />
<path d="M93.7765 71.5947
L93.7236 71.5342
" />
<path d="M93.7236 71.5342
L93.6782 71.4132
" />
<path d="M93.6782 71.4132
L93.6480 71.1713
" />
<path d="M93.6480 71.1713
L93.6858 70.8689
" />
<path d="M93.6858 70.8689
L93.7765 70.6270
" />
<path d="M93.7765 70.6270
L93.8521 70.5061
" />
<path d="M93.8521 70.5061
L93.9201 70.4456
" />
<path d="M93.9201 70.4456
L94.0486 70.3851
" />
<path d="M94.8726 71.5342
L94.9255 71.5947
" />
<path d="M94.9255 71.5947
L94.8575 71.6551
" />
<path d="M94.8575 71.6551
L94.8046 71.5947
" />
<path d="M94.8046 71.5947
L94.8726 71.5342
" />
<path d="M94.8726 71.5342
L94.8575 71.6551
" />
<path d="M95.7344 70.9294
L95.6210 70.8689
" />
<path d="M95.6210 70.8689
L95.5681 70.8085
" />
<path d="M95.5681 70.8085
L95.5227 70.6875
" />
<path d="M95.5227 70.6875
L95.5303 70.6270
" />
<path d="M95.5303 70.6270
L95.6059 70.5061
" />
<path d="M95.6059 70.5061
L95.6739 70.4456
" />
<path d="M95.6739 70.4456
L95.8025 70.3851
" />
<path d="M95.8025 70.3851
L96.0444 70.3851
" />
<path d="M96.0444 70.3851
L96.1577 70.4456
" />
<path d="M96.1577 70.4456
L96.2107 70.5061
" />
<path d="M96.2107 70.5061
L96.2560 70.6270
" />
<path d="M96.2560 70.6270
L96.2485 70.6875
" />
<path d="M96.2485 70.6875
L96.1729 70.8085
" />
<path d="M96.1729 70.8085
L96.1048 70.8689
" />
<path d="M96.1048 70.8689
L95.9763 70.9294
" />
<path d="M95.9763 70.9294
L95.7344 70.9294
" />
<path d="M95.7344 70.9294
L95.6059 70.9899
" />
<path d="M95.6059 70.9899
L95.5379 71.0504
" />
<path d="M95.5379 71.0504
L95.4623 71.1713
" />
<path d="M95.4623 71.1713
L95.4320 71.4132
" />
<path d="M95.4320 71.4132
L95.4774 71.5342
" />
<path d="M95.4774 71.5342
L95.5303 71.5947
" />
<path d="M95.5303 71.5947
L95.6437 71.6551
" />
<path d="M95.6437 71.6551
L95.8856 71.6551
" />
<path d="M95.8856 71.6551
L96.0141 71.5947
" />
<path d="M96.0141 71.5947
L96.0822 71.5342
" />
<path d="M96.0822 71.5342
L96.1577 71.4132
" />
<path d="M96.1577 71.4132
L96.1880 71.1713
" />
<path d="M96.1880 71.1713
L96.1426 71.0504
" />
<path d="M96.1426 71.0504
L96.0897 70.9899
" />
<path d="M96.0897 70.9899
L95.9763 70.9294
" />
<path d="M96.6718 71.6551
L96.7776 70.8085
" />
<path d="M96.7625 70.9294
L96.8305 70.8689
" />
<path d="M96.8305 70.8689
L96.9590 70.8085
" />
<path d="M96.9590 70.8085
L97.1405 70.8085
" />
<path d="M97.1405 70.8085
L97.2539 70.8689
" />
<path d="M97.2539 70.8689
L97.2992 70.9899
" />
<path d="M97.2992 70.9899
L97.2161 71.6551
" />
<path d="M97.2992 70.9899
L97.3748 70.8689
" />
<path d="M97.3748 70.8689
L97.5033 70.8085
" />
<path d="M97.5033 70.8085
L97.6847 70.8085
" />
<path d="M97.6847 70.8085
L97.7981 70.8689
" />
<path d="M97.7981 70.8689
L97.8435 70.9899
" />
<path d="M97.8435 70.9899
L97.7603 71.6551
" />
<path d="M98.3651 71.6551
L98.4709 70.8085
" />
<path d="M98.4558 70.9294
L98.5238 70.8689
" />
<path d="M98.5238 70.8689
L98.6523 70.8085
" />
<path d="M98.6523 70.8085
L98.8338 70.8085
" />
<path d="M98.8338 70.8085
L98.9472 70.8689
" />
<path d="M98.9472 70.8689
L98.9925 70.9899
" />
<path d="M98.9925 70.9899
L98.9094 71.6551
" />
<path d="M98.9925 70.9899
L99.0681 70.8689
" />
<path d="M99.0681 70.8689
L99.1966 70.8085
" />
<path d="M99.1966 70.8085
L99.3780 70.8085
" />
<path d="M99.3780 70.8085
L99.4914 70.8689
" />
<path d="M99.4914 70.8689
L99.5368 70.9899
" />
<path d="M99.5368 70.9899
L99.4536 71.6551
" />
</g><text x="54.9607" y="32.3409"
textLength="91.6012" font-size="1.6933" lengthAdjust="spacingAndGlyphs"
text-anchor="middle" opacity="0">https://www.nxp.com/files-static/microcontrollers/doc/ref_manual/MKE02P64M40SF0RM.pdf</text>
<g class="stroked-text"><desc>https://www.nxp.com/files-static/microcontrollers/doc/ref_manual/MKE02P64M40SF0RM.pdf</desc>
<path d="M9.5736 32.2851
L9.5736 31.0151
" />
<path d="M10.1179 32.2851
L10.1179 31.6199
" />
<path d="M10.1179 31.6199
L10.0574 31.4989
" />
<path d="M10.0574 31.4989
L9.9365 31.4385
" />
<path d="M9.9365 31.4385
L9.7551 31.4385
" />
<path d="M9.7551 31.4385
L9.6341 31.4989
" />
<path d="M9.6341 31.4989
L9.5736 31.5594
" />
<path d="M10.5412 31.4385
L11.0250 31.4385
" />
<path d="M10.7226 31.0151
L10.7226 32.1037
" />
<path d="M10.7226 32.1037
L10.7831 32.2247
" />
<path d="M10.7831 32.2247
L10.9041 32.2851
" />
<path d="M10.9041 32.2851
L11.0250 32.2851
" />
<path d="M11.2669 31.4385
L11.7507 31.4385
" />
<path d="M11.4483 31.0151
L11.4483 32.1037
" />
<path d="M11.4483 32.1037
L11.5088 32.2247
" />
<path d="M11.5088 32.2247
L11.6298 32.2851
" />
<path d="M11.6298 32.2851
L11.7507 32.2851
" />
<path d="M12.1740 31.4385
L12.1740 32.7085
" />
<path d="M12.1740 31.4989
L12.2950 31.4385
" />
<path d="M12.2950 31.4385
L12.5369 31.4385
" />
<path d="M12.5369 31.4385
L12.6578 31.4989
" />
<path d="M12.6578 31.4989
L12.7183 31.5594
" />
<path d="M12.7183 31.5594
L12.7788 31.6804
" />
<path d="M12.7788 31.6804
L12.7788 32.0432
" />
<path d="M12.7788 32.0432
L12.7183 32.1642
" />
<path d="M12.7183 32.1642
L12.6578 32.2247
" />
<path d="M12.6578 32.2247
L12.5369 32.2851
" />
<path d="M12.5369 32.2851
L12.2950 32.2851
" />
<path d="M12.2950 32.2851
L12.1740 32.2247
" />
<path d="M13.2626 32.2247
L13.3835 32.2851
" />
<path d="M13.3835 32.2851
L13.6254 32.2851
" />
<path d="M13.6254 32.2851
L13.7464 32.2247
" />
<path d="M13.7464 32.2247
L13.8068 32.1037
" />
<path d="M13.8068 32.1037
L13.8068 32.0432
" />
<path d="M13.8068 32.0432
L13.7464 31.9223
" />
<path d="M13.7464 31.9223
L13.6254 31.8618
" />
<path d="M13.6254 31.8618
L13.4440 31.8618
" />
<path d="M13.4440 31.8618
L13.3230 31.8013
" />
<path d="M13.3230 31.8013
L13.2626 31.6804
" />
<path d="M13.2626 31.6804
L13.2626 31.6199
" />
<path d="M13.2626 31.6199
L13.3230 31.4989
" />
<path d="M13.3230 31.4989
L13.4440 31.4385
" />
<path d="M13.4440 31.4385
L13.6254 31.4385
" />
<path d="M13.6254 31.4385
L13.7464 31.4989
" />
<path d="M14.3511 32.1642
L14.4116 32.2247
" />
<path d="M14.4116 32.2247
L14.3511 32.2851
" />
<path d="M14.3511 32.2851
L14.2907 32.2247
" />
<path d="M14.2907 32.2247
L14.3511 32.1642
" />
<path d="M14.3511 32.1642
L14.3511 32.2851
" />
<path d="M14.3511 31.4989
L14.4116 31.5594
" />
<path d="M14.4116 31.5594
L14.3511 31.6199
" />
<path d="M14.3511 31.6199
L14.2907 31.5594
" />
<path d="M14.2907 31.5594
L14.3511 31.4989
" />
<path d="M14.3511 31.4989
L14.3511 31.6199
" />
<path d="M15.8631 30.9547
L14.7745 32.5875
" />
<path d="M17.1936 30.9547
L16.1050 32.5875
" />
<path d="M17.4960 31.4385
L17.7379 32.2851
" />
<path d="M17.7379 32.2851
L17.9798 31.6804
" />
<path d="M17.9798 31.6804
L18.2217 32.2851
" />
<path d="M18.2217 32.2851
L18.4636 31.4385
" />
<path d="M18.8265 31.4385
L19.0684 32.2851
" />
<path d="M19.0684 32.2851
L19.3103 31.6804
" />
<path d="M19.3103 31.6804
L19.5522 32.2851
" />
<path d="M19.5522 32.2851
L19.7941 31.4385
" />
<path d="M20.1570 31.4385
L20.3989 32.2851
" />
<path d="M20.3989 32.2851
L20.6408 31.6804
" />
<path d="M20.6408 31.6804
L20.8827 32.2851
" />
<path d="M20.8827 32.2851
L21.1246 31.4385
" />
<path d="M21.6084 32.1642
L21.6689 32.2247
" />
<path d="M21.6689 32.2247
L21.6084 32.2851
" />
<path d="M21.6084 32.2851
L21.5480 32.2247
" />
<path d="M21.5480 32.2247
L21.6084 32.1642
" />
<path d="M21.6084 32.1642
L21.6084 32.2851
" />
<path d="M22.2132 31.4385
L22.2132 32.2851
" />
<path d="M22.2132 31.5594
L22.2737 31.4989
" />
<path d="M22.2737 31.4989
L22.3947 31.4385
" />
<path d="M22.3947 31.4385
L22.5761 31.4385
" />
<path d="M22.5761 31.4385
L22.6970 31.4989
" />
<path d="M22.6970 31.4989
L22.7575 31.6199
" />
<path d="M22.7575 31.6199
L22.7575 32.2851
" />
<path d="M23.2413 32.2851
L23.9065 31.4385
" />
<path d="M23.2413 31.4385
L23.9065 32.2851
" />
<path d="M24.3903 31.4385
L24.3903 32.7085
" />
<path d="M24.3903 31.4989
L24.5113 31.4385
" />
<path d="M24.5113 31.4385
L24.7532 31.4385
" />
<path d="M24.7532 31.4385
L24.8741 31.4989
" />
<path d="M24.8741 31.4989
L24.9346 31.5594
" />
<path d="M24.9346 31.5594
L24.9951 31.6804
" />
<path d="M24.9951 31.6804
L24.9951 32.0432
" />
<path d="M24.9951 32.0432
L24.9346 32.1642
" />
<path d="M24.9346 32.1642
L24.8741 32.2247
" />
<path d="M24.8741 32.2247
L24.7532 32.2851
" />
<path d="M24.7532 32.2851
L24.5113 32.2851
" />
<path d="M24.5113 32.2851
L24.3903 32.2247
" />
<path d="M25.5393 32.1642
L25.5998 32.2247
" />
<path d="M25.5998 32.2247
L25.5393 32.2851
" />
<path d="M25.5393 32.2851
L25.4789 32.2247
" />
<path d="M25.4789 32.2247
L25.5393 32.1642
" />
<path d="M25.5393 32.1642
L25.5393 32.2851
" />
<path d="M26.6884 32.2247
L26.5675 32.2851
" />
<path d="M26.5675 32.2851
L26.3256 32.2851
" />
<path d="M26.3256 32.2851
L26.2046 32.2247
" />
<path d="M26.2046 32.2247
L26.1441 32.1642
" />
<path d="M26.1441 32.1642
L26.0837 32.0432
" />
<path d="M26.0837 32.0432
L26.0837 31.6804
" />
<path d="M26.0837 31.6804
L26.1441 31.5594
" />
<path d="M26.1441 31.5594
L26.2046 31.4989
" />
<path d="M26.2046 31.4989
L26.3256 31.4385
" />
<path d="M26.3256 31.4385
L26.5675 31.4385
" />
<path d="M26.5675 31.4385
L26.6884 31.4989
" />
<path d="M27.4142 32.2851
L27.2932 32.2247
" />
<path d="M27.2932 32.2247
L27.2327 32.1642
" />
<path d="M27.2327 32.1642
L27.1723 32.0432
" />
<path d="M27.1723 32.0432
L27.1723 31.6804
" />
<path d="M27.1723 31.6804
L27.2327 31.5594
" />
<path d="M27.2327 31.5594
L27.2932 31.4989
" />
<path d="M27.2932 31.4989
L27.4142 31.4385
" />
<path d="M27.4142 31.4385
L27.5956 31.4385
" />
<path d="M27.5956 31.4385
L27.7165 31.4989
" />
<path d="M27.7165 31.4989
L27.7770 31.5594
" />
<path d="M27.7770 31.5594
L27.8375 31.6804
" />
<path d="M27.8375 31.6804
L27.8375 32.0432
" />
<path d="M27.8375 32.0432
L27.7770 32.1642
" />
<path d="M27.7770 32.1642
L27.7165 32.2247
" />
<path d="M27.7165 32.2247
L27.5956 32.2851
" />
<path d="M27.5956 32.2851
L27.4142 32.2851
" />
<path d="M28.3817 32.2851
L28.3817 31.4385
" />
<path d="M28.3817 31.5594
L28.4422 31.4989
" />
<path d="M28.4422 31.4989
L28.5632 31.4385
" />
<path d="M28.5632 31.4385
L28.7446 31.4385
" />
<path d="M28.7446 31.4385
L28.8655 31.4989
" />
<path d="M28.8655 31.4989
L28.9260 31.6199
" />
<path d="M28.9260 31.6199
L28.9260 32.2851
" />
<path d="M28.9260 31.6199
L28.9865 31.4989
" />
<path d="M28.9865 31.4989
L29.1074 31.4385
" />
<path d="M29.1074 31.4385
L29.2889 31.4385
" />
<path d="M29.2889 31.4385
L29.4098 31.4989
" />
<path d="M29.4098 31.4989
L29.4703 31.6199
" />
<path d="M29.4703 31.6199
L29.4703 32.2851
" />
<path d="M30.9822 30.9547
L29.8936 32.5875
" />
<path d="M31.2241 31.4385
L31.7079 31.4385
" />
<path d="M31.4055 32.2851
L31.4055 31.1966
" />
<path d="M31.4055 31.1966
L31.4660 31.0756
" />
<path d="M31.4660 31.0756
L31.5870 31.0151
" />
<path d="M31.5870 31.0151
L31.7079 31.0151
" />
<path d="M32.1312 32.2851
L32.1312 31.4385
" />
<path d="M32.1312 31.0151
L32.0708 31.0756
" />
<path d="M32.0708 31.0756
L32.1312 31.1361
" />
<path d="M32.1312 31.1361
L32.1917 31.0756
" />
<path d="M32.1917 31.0756
L32.1312 31.0151
" />
<path d="M32.1312 31.0151
L32.1312 31.1361
" />
<path d="M32.9175 32.2851
L32.7965 32.2247
" />
<path d="M32.7965 32.2247
L32.7360 32.1037
" />
<path d="M32.7360 32.1037
L32.7360 31.0151
" />
<path d="M33.8850 32.2247
L33.7641 32.2851
" />
<path d="M33.7641 32.2851
L33.5222 32.2851
" />
<path d="M33.5222 32.2851
L33.4012 32.2247
" />
<path d="M33.4012 32.2247
L33.3408 32.1037
" />
<path d="M33.3408 32.1037
L33.3408 31.6199
" />
<path d="M33.3408 31.6199
L33.4012 31.4989
" />
<path d="M33.4012 31.4989
L33.5222 31.4385
" />
<path d="M33.5222 31.4385
L33.7641 31.4385
" />
<path d="M33.7641 31.4385
L33.8850 31.4989
" />
<path d="M33.8850 31.4989
L33.9455 31.6199
" />
<path d="M33.9455 31.6199
L33.9455 31.7408
" />
<path d="M33.9455 31.7408
L33.3408 31.8618
" />
<path d="M34.4294 32.2247
L34.5503 32.2851
" />
<path d="M34.5503 32.2851
L34.7922 32.2851
" />
<path d="M34.7922 32.2851
L34.9132 32.2247
" />
<path d="M34.9132 32.2247
L34.9736 32.1037
" />
<path d="M34.9736 32.1037
L34.9736 32.0432
" />
<path d="M34.9736 32.0432
L34.9132 31.9223
" />
<path d="M34.9132 31.9223
L34.7922 31.8618
" />
<path d="M34.7922 31.8618
L34.6108 31.8618
" />
<path d="M34.6108 31.8618
L34.4898 31.8013
" />
<path d="M34.4898 31.8013
L34.4294 31.6804
" />
<path d="M34.4294 31.6804
L34.4294 31.6199
" />
<path d="M34.4294 31.6199
L34.4898 31.4989
" />
<path d="M34.4898 31.4989
L34.6108 31.4385
" />
<path d="M34.6108 31.4385
L34.7922 31.4385
" />
<path d="M34.7922 31.4385
L34.9132 31.4989
" />
<path d="M35.5179 31.8013
L36.4856 31.8013
" />
<path d="M37.0299 32.2247
L37.1508 32.2851
" />
<path d="M37.1508 32.2851
L37.3927 32.2851
" />
<path d="M37.3927 32.2851
L37.5137 32.2247
" />
<path d="M37.5137 32.2247
L37.5741 32.1037
" />
<path d="M37.5741 32.1037
L37.5741 32.0432
" />
<path d="M37.5741 32.0432
L37.5137 31.9223
" />
<path d="M37.5137 31.9223
L37.3927 31.8618
" />
<path d="M37.3927 31.8618
L37.2113 31.8618
" />
<path d="M37.2113 31.8618
L37.0903 31.8013
" />
<path d="M37.0903 31.8013
L37.0299 31.6804
" />
<path d="M37.0299 31.6804
L37.0299 31.6199
" />
<path d="M37.0299 31.6199
L37.0903 31.4989
" />
<path d="M37.0903 31.4989
L37.2113 31.4385
" />
<path d="M37.2113 31.4385
L37.3927 31.4385
" />
<path d="M37.3927 31.4385
L37.5137 31.4989
" />
<path d="M37.9370 31.4385
L38.4208 31.4385
" />
<path d="M38.1184 31.0151
L38.1184 32.1037
" />
<path d="M38.1184 32.1037
L38.1789 32.2247
" />
<path d="M38.1789 32.2247
L38.2999 32.2851
" />
<path d="M38.2999 32.2851
L38.4208 32.2851
" />
<path d="M39.3884 32.2851
L39.3884 31.6199
" />
<path d="M39.3884 31.6199
L39.3279 31.4989
" />
<path d="M39.3279 31.4989
L39.2070 31.4385
" />
<path d="M39.2070 31.4385
L38.9651 31.4385
" />
<path d="M38.9651 31.4385
L38.8441 31.4989
" />
<path d="M39.3884 32.2247
L39.2675 32.2851
" />
<path d="M39.2675 32.2851
L38.9651 32.2851
" />
<path d="M38.9651 32.2851
L38.8441 32.2247
" />
<path d="M38.8441 32.2247
L38.7837 32.1037
" />
<path d="M38.7837 32.1037
L38.7837 31.9827
" />
<path d="M38.7837 31.9827
L38.8441 31.8618
" />
<path d="M38.8441 31.8618
L38.9651 31.8013
" />
<path d="M38.9651 31.8013
L39.2675 31.8013
" />
<path d="M39.2675 31.8013
L39.3884 31.7408
" />
<path d="M39.8117 31.4385
L40.2955 31.4385
" />
<path d="M39.9931 31.0151
L39.9931 32.1037
" />
<path d="M39.9931 32.1037
L40.0536 32.2247
" />
<path d="M40.0536 32.2247
L40.1746 32.2851
" />
<path d="M40.1746 32.2851
L40.2955 32.2851
" />
<path d="M40.7188 32.2851
L40.7188 31.4385
" />
<path d="M40.7188 31.0151
L40.6584 31.0756
" />
<path d="M40.6584 31.0756
L40.7188 31.1361
" />
<path d="M40.7188 31.1361
L40.7793 31.0756
" />
<path d="M40.7793 31.0756
L40.7188 31.0151
" />
<path d="M40.7188 31.0151
L40.7188 31.1361
" />
<path d="M41.8679 32.2247
L41.7470 32.2851
" />
<path d="M41.7470 32.2851
L41.5051 32.2851
" />
<path d="M41.5051 32.2851
L41.3841 32.2247
" />
<path d="M41.3841 32.2247
L41.3236 32.1642
" />
<path d="M41.3236 32.1642
L41.2632 32.0432
" />
<path d="M41.2632 32.0432
L41.2632 31.6804
" />
<path d="M41.2632 31.6804
L41.3236 31.5594
" />
<path d="M41.3236 31.5594
L41.3841 31.4989
" />
<path d="M41.3841 31.4989
L41.5051 31.4385
" />
<path d="M41.5051 31.4385
L41.7470 31.4385
" />
<path d="M41.7470 31.4385
L41.8679 31.4989
" />
<path d="M43.3194 30.9547
L42.2308 32.5875
" />
<path d="M43.7427 32.2851
L43.7427 31.4385
" />
<path d="M43.7427 31.5594
L43.8032 31.4989
" />
<path d="M43.8032 31.4989
L43.9242 31.4385
" />
<path d="M43.9242 31.4385
L44.1056 31.4385
" />
<path d="M44.1056 31.4385
L44.2265 31.4989
" />
<path d="M44.2265 31.4989
L44.2870 31.6199
" />
<path d="M44.2870 31.6199
L44.2870 32.2851
" />
<path d="M44.2870 31.6199
L44.3475 31.4989
" />
<path d="M44.3475 31.4989
L44.4684 31.4385
" />
<path d="M44.4684 31.4385
L44.6499 31.4385
" />
<path d="M44.6499 31.4385
L44.7708 31.4989
" />
<path d="M44.7708 31.4989
L44.8313 31.6199
" />
<path d="M44.8313 31.6199
L44.8313 32.2851
" />
<path d="M45.4360 32.2851
L45.4360 31.4385
" />
<path d="M45.4360 31.0151
L45.3756 31.0756
" />
<path d="M45.3756 31.0756
L45.4360 31.1361
" />
<path d="M45.4360 31.1361
L45.4965 31.0756
" />
<path d="M45.4965 31.0756
L45.4360 31.0151
" />
<path d="M45.4360 31.0151
L45.4360 31.1361
" />
<path d="M46.5851 32.2247
L46.4642 32.2851
" />
<path d="M46.4642 32.2851
L46.2223 32.2851
" />
<path d="M46.2223 32.2851
L46.1013 32.2247
" />
<path d="M46.1013 32.2247
L46.0408 32.1642
" />
<path d="M46.0408 32.1642
L45.9804 32.0432
" />
<path d="M45.9804 32.0432
L45.9804 31.6804
" />
<path d="M45.9804 31.6804
L46.0408 31.5594
" />
<path d="M46.0408 31.5594
L46.1013 31.4989
" />
<path d="M46.1013 31.4989
L46.2223 31.4385
" />
<path d="M46.2223 31.4385
L46.4642 31.4385
" />
<path d="M46.4642 31.4385
L46.5851 31.4989
" />
<path d="M47.1294 32.2851
L47.1294 31.4385
" />
<path d="M47.1294 31.6804
L47.1899 31.5594
" />
<path d="M47.1899 31.5594
L47.2504 31.4989
" />
<path d="M47.2504 31.4989
L47.3713 31.4385
" />
<path d="M47.3713 31.4385
L47.4923 31.4385
" />
<path d="M48.0971 32.2851
L47.9761 32.2247
" />
<path d="M47.9761 32.2247
L47.9156 32.1642
" />
<path d="M47.9156 32.1642
L47.8552 32.0432
" />
<path d="M47.8552 32.0432
L47.8552 31.6804
" />
<path d="M47.8552 31.6804
L47.9156 31.5594
" />
<path d="M47.9156 31.5594
L47.9761 31.4989
" />
<path d="M47.9761 31.4989
L48.0971 31.4385
" />
<path d="M48.0971 31.4385
L48.2785 31.4385
" />
<path d="M48.2785 31.4385
L48.3994 31.4989
" />
<path d="M48.3994 31.4989
L48.4599 31.5594
" />
<path d="M48.4599 31.5594
L48.5204 31.6804
" />
<path d="M48.5204 31.6804
L48.5204 32.0432
" />
<path d="M48.5204 32.0432
L48.4599 32.1642
" />
<path d="M48.4599 32.1642
L48.3994 32.2247
" />
<path d="M48.3994 32.2247
L48.2785 32.2851
" />
<path d="M48.2785 32.2851
L48.0971 32.2851
" />
<path d="M49.6089 32.2247
L49.4880 32.2851
" />
<path d="M49.4880 32.2851
L49.2461 32.2851
" />
<path d="M49.2461 32.2851
L49.1251 32.2247
" />
<path d="M49.1251 32.2247
L49.0646 32.1642
" />
<path d="M49.0646 32.1642
L49.0042 32.0432
" />
<path d="M49.0042 32.0432
L49.0042 31.6804
" />
<path d="M49.0042 31.6804
L49.0646 31.5594
" />
<path d="M49.0646 31.5594
L49.1251 31.4989
" />
<path d="M49.1251 31.4989
L49.2461 31.4385
" />
<path d="M49.2461 31.4385
L49.4880 31.4385
" />
<path d="M49.4880 31.4385
L49.6089 31.4989
" />
<path d="M50.3347 32.2851
L50.2137 32.2247
" />
<path d="M50.2137 32.2247
L50.1532 32.1642
" />
<path d="M50.1532 32.1642
L50.0928 32.0432
" />
<path d="M50.0928 32.0432
L50.0928 31.6804
" />
<path d="M50.0928 31.6804
L50.1532 31.5594
" />
<path d="M50.1532 31.5594
L50.2137 31.4989
" />
<path d="M50.2137 31.4989
L50.3347 31.4385
" />
<path d="M50.3347 31.4385
L50.5161 31.4385
" />
<path d="M50.5161 31.4385
L50.6370 31.4989
" />
<path d="M50.6370 31.4989
L50.6975 31.5594
" />
<path d="M50.6975 31.5594
L50.7580 31.6804
" />
<path d="M50.7580 31.6804
L50.7580 32.0432
" />
<path d="M50.7580 32.0432
L50.6975 32.1642
" />
<path d="M50.6975 32.1642
L50.6370 32.2247
" />
<path d="M50.6370 32.2247
L50.5161 32.2851
" />
<path d="M50.5161 32.2851
L50.3347 32.2851
" />
<path d="M51.3022 31.4385
L51.3022 32.2851
" />
<path d="M51.3022 31.5594
L51.3627 31.4989
" />
<path d="M51.3627 31.4989
L51.4837 31.4385
" />
<path d="M51.4837 31.4385
L51.6651 31.4385
" />
<path d="M51.6651 31.4385
L51.7860 31.4989
" />
<path d="M51.7860 31.4989
L51.8465 31.6199
" />
<path d="M51.8465 31.6199
L51.8465 32.2851
" />
<path d="M52.2698 31.4385
L52.7536 31.4385
" />
<path d="M52.4512 31.0151
L52.4512 32.1037
" />
<path d="M52.4512 32.1037
L52.5117 32.2247
" />
<path d="M52.5117 32.2247
L52.6327 32.2851
" />
<path d="M52.6327 32.2851
L52.7536 32.2851
" />
<path d="M53.1769 32.2851
L53.1769 31.4385
" />
<path d="M53.1769 31.6804
L53.2374 31.5594
" />
<path d="M53.2374 31.5594
L53.2979 31.4989
" />
<path d="M53.2979 31.4989
L53.4188 31.4385
" />
<path d="M53.4188 31.4385
L53.5398 31.4385
" />
<path d="M54.1446 32.2851
L54.0236 32.2247
" />
<path d="M54.0236 32.2247
L53.9631 32.1642
" />
<path d="M53.9631 32.1642
L53.9027 32.0432
" />
<path d="M53.9027 32.0432
L53.9027 31.6804
" />
<path d="M53.9027 31.6804
L53.9631 31.5594
" />
<path d="M53.9631 31.5594
L54.0236 31.4989
" />
<path d="M54.0236 31.4989
L54.1446 31.4385
" />
<path d="M54.1446 31.4385
L54.3260 31.4385
" />
<path d="M54.3260 31.4385
L54.4469 31.4989
" />
<path d="M54.4469 31.4989
L54.5074 31.5594
" />
<path d="M54.5074 31.5594
L54.5679 31.6804
" />
<path d="M54.5679 31.6804
L54.5679 32.0432
" />
<path d="M54.5679 32.0432
L54.5074 32.1642
" />
<path d="M54.5074 32.1642
L54.4469 32.2247
" />
<path d="M54.4469 32.2247
L54.3260 32.2851
" />
<path d="M54.3260 32.2851
L54.1446 32.2851
" />
<path d="M55.2936 32.2851
L55.1726 32.2247
" />
<path d="M55.1726 32.2247
L55.1121 32.1037
" />
<path d="M55.1121 32.1037
L55.1121 31.0151
" />
<path d="M55.9588 32.2851
L55.8378 32.2247
" />
<path d="M55.8378 32.2247
L55.7773 32.1037
" />
<path d="M55.7773 32.1037
L55.7773 31.0151
" />
<path d="M56.9263 32.2247
L56.8054 32.2851
" />
<path d="M56.8054 32.2851
L56.5635 32.2851
" />
<path d="M56.5635 32.2851
L56.4425 32.2247
" />
<path d="M56.4425 32.2247
L56.3821 32.1037
" />
<path d="M56.3821 32.1037
L56.3821 31.6199
" />
<path d="M56.3821 31.6199
L56.4425 31.4989
" />
<path d="M56.4425 31.4989
L56.5635 31.4385
" />
<path d="M56.5635 31.4385
L56.8054 31.4385
" />
<path d="M56.8054 31.4385
L56.9263 31.4989
" />
<path d="M56.9263 31.4989
L56.9868 31.6199
" />
<path d="M56.9868 31.6199
L56.9868 31.7408
" />
<path d="M56.9868 31.7408
L56.3821 31.8618
" />
<path d="M57.5311 32.2851
L57.5311 31.4385
" />
<path d="M57.5311 31.6804
L57.5916 31.5594
" />
<path d="M57.5916 31.5594
L57.6521 31.4989
" />
<path d="M57.6521 31.4989
L57.7730 31.4385
" />
<path d="M57.7730 31.4385
L57.8940 31.4385
" />
<path d="M58.2569 32.2247
L58.3778 32.2851
" />
<path d="M58.3778 32.2851
L58.6197 32.2851
" />
<path d="M58.6197 32.2851
L58.7407 32.2247
" />
<path d="M58.7407 32.2247
L58.8011 32.1037
" />
<path d="M58.8011 32.1037
L58.8011 32.0432
" />
<path d="M58.8011 32.0432
L58.7407 31.9223
" />
<path d="M58.7407 31.9223
L58.6197 31.8618
" />
<path d="M58.6197 31.8618
L58.4383 31.8618
" />
<path d="M58.4383 31.8618
L58.3173 31.8013
" />
<path d="M58.3173 31.8013
L58.2569 31.6804
" />
<path d="M58.2569 31.6804
L58.2569 31.6199
" />
<path d="M58.2569 31.6199
L58.3173 31.4989
" />
<path d="M58.3173 31.4989
L58.4383 31.4385
" />
<path d="M58.4383 31.4385
L58.6197 31.4385
" />
<path d="M58.6197 31.4385
L58.7407 31.4989
" />
<path d="M60.2526 30.9547
L59.1640 32.5875
" />
<path d="M61.2202 32.2851
L61.2202 31.0151
" />
<path d="M61.2202 32.2247
L61.0993 32.2851
" />
<path d="M61.0993 32.2851
L60.8574 32.2851
" />
<path d="M60.8574 32.2851
L60.7364 32.2247
" />
<path d="M60.7364 32.2247
L60.6759 32.1642
" />
<path d="M60.6759 32.1642
L60.6155 32.0432
" />
<path d="M60.6155 32.0432
L60.6155 31.6804
" />
<path d="M60.6155 31.6804
L60.6759 31.5594
" />
<path d="M60.6759 31.5594
L60.7364 31.4989
" />
<path d="M60.7364 31.4989
L60.8574 31.4385
" />
<path d="M60.8574 31.4385
L61.0993 31.4385
" />
<path d="M61.0993 31.4385
L61.2202 31.4989
" />
<path d="M62.0064 32.2851
L61.8854 32.2247
" />
<path d="M61.8854 32.2247
L61.8249 32.1642
" />
<path d="M61.8249 32.1642
L61.7645 32.0432
" />
<path d="M61.7645 32.0432
L61.7645 31.6804
" />
<path d="M61.7645 31.6804
L61.8249 31.5594
" />
<path d="M61.8249 31.5594
L61.8854 31.4989
" />
<path d="M61.8854 31.4989
L62.0064 31.4385
" />
<path d="M62.0064 31.4385
L62.1878 31.4385
" />
<path d="M62.1878 31.4385
L62.3087 31.4989
" />
<path d="M62.3087 31.4989
L62.3692 31.5594
" />
<path d="M62.3692 31.5594
L62.4297 31.6804
" />
<path d="M62.4297 31.6804
L62.4297 32.0432
" />
<path d="M62.4297 32.0432
L62.3692 32.1642
" />
<path d="M62.3692 32.1642
L62.3087 32.2247
" />
<path d="M62.3087 32.2247
L62.1878 32.2851
" />
<path d="M62.1878 32.2851
L62.0064 32.2851
" />
<path d="M63.5182 32.2247
L63.3973 32.2851
" />
<path d="M63.3973 32.2851
L63.1554 32.2851
" />
<path d="M63.1554 32.2851
L63.0344 32.2247
" />
<path d="M63.0344 32.2247
L62.9739 32.1642
" />
<path d="M62.9739 32.1642
L62.9135 32.0432
" />
<path d="M62.9135 32.0432
L62.9135 31.6804
" />
<path d="M62.9135 31.6804
L62.9739 31.5594
" />
<path d="M62.9739 31.5594
L63.0344 31.4989
" />
<path d="M63.0344 31.4989
L63.1554 31.4385
" />
<path d="M63.1554 31.4385
L63.3973 31.4385
" />
<path d="M63.3973 31.4385
L63.5182 31.4989
" />
<path d="M64.9697 30.9547
L63.8811 32.5875
" />
<path d="M65.3930 32.2851
L65.3930 31.4385
" />
<path d="M65.3930 31.6804
L65.4535 31.5594
" />
<path d="M65.4535 31.5594
L65.5140 31.4989
" />
<path d="M65.5140 31.4989
L65.6349 31.4385
" />
<path d="M65.6349 31.4385
L65.7559 31.4385
" />
<path d="M66.6630 32.2247
L66.5421 32.2851
" />
<path d="M66.5421 32.2851
L66.3002 32.2851
" />
<path d="M66.3002 32.2851
L66.1792 32.2247
" />
<path d="M66.1792 32.2247
L66.1188 32.1037
" />
<path d="M66.1188 32.1037
L66.1188 31.6199
" />
<path d="M66.1188 31.6199
L66.1792 31.4989
" />
<path d="M66.1792 31.4989
L66.3002 31.4385
" />
<path d="M66.3002 31.4385
L66.5421 31.4385
" />
<path d="M66.5421 31.4385
L66.6630 31.4989
" />
<path d="M66.6630 31.4989
L66.7235 31.6199
" />
<path d="M66.7235 31.6199
L66.7235 31.7408
" />
<path d="M66.7235 31.7408
L66.1188 31.8618
" />
<path d="M67.0864 31.4385
L67.5702 31.4385
" />
<path d="M67.2678 32.2851
L67.2678 31.1966
" />
<path d="M67.2678 31.1966
L67.3283 31.0756
" />
<path d="M67.3283 31.0756
L67.4493 31.0151
" />
<path d="M67.4493 31.0151
L67.5702 31.0151
" />
<path d="M67.6912 32.4061
L68.6588 32.4061
" />
<path d="M68.9611 32.2851
L68.9611 31.4385
" />
<path d="M68.9611 31.5594
L69.0216 31.4989
" />
<path d="M69.0216 31.4989
L69.1426 31.4385
" />
<path d="M69.1426 31.4385
L69.3240 31.4385
" />
<path d="M69.3240 31.4385
L69.4449 31.4989
" />
<path d="M69.4449 31.4989
L69.5054 31.6199
" />
<path d="M69.5054 31.6199
L69.5054 32.2851
" />
<path d="M69.5054 31.6199
L69.5659 31.4989
" />
<path d="M69.5659 31.4989
L69.6868 31.4385
" />
<path d="M69.6868 31.4385
L69.8683 31.4385
" />
<path d="M69.8683 31.4385
L69.9892 31.4989
" />
<path d="M69.9892 31.4989
L70.0497 31.6199
" />
<path d="M70.0497 31.6199
L70.0497 32.2851
" />
<path d="M71.1987 32.2851
L71.1987 31.6199
" />
<path d="M71.1987 31.6199
L71.1382 31.4989
" />
<path d="M71.1382 31.4989
L71.0173 31.4385
" />
<path d="M71.0173 31.4385
L70.7754 31.4385
" />
<path d="M70.7754 31.4385
L70.6544 31.4989
" />
<path d="M71.1987 32.2247
L71.0778 32.2851
" />
<path d="M71.0778 32.2851
L70.7754 32.2851
" />
<path d="M70.7754 32.2851
L70.6544 32.2247
" />
<path d="M70.6544 32.2247
L70.5940 32.1037
" />
<path d="M70.5940 32.1037
L70.5940 31.9827
" />
<path d="M70.5940 31.9827
L70.6544 31.8618
" />
<path d="M70.6544 31.8618
L70.7754 31.8013
" />
<path d="M70.7754 31.8013
L71.0778 31.8013
" />
<path d="M71.0778 31.8013
L71.1987 31.7408
" />
<path d="M71.8034 31.4385
L71.8034 32.2851
" />
<path d="M71.8034 31.5594
L71.8639 31.4989
" />
<path d="M71.8639 31.4989
L71.9849 31.4385
" />
<path d="M71.9849 31.4385
L72.1663 31.4385
" />
<path d="M72.1663 31.4385
L72.2872 31.4989
" />
<path d="M72.2872 31.4989
L72.3477 31.6199
" />
<path d="M72.3477 31.6199
L72.3477 32.2851
" />
<path d="M73.4967 31.4385
L73.4967 32.2851
" />
<path d="M72.9524 31.4385
L72.9524 32.1037
" />
<path d="M72.9524 32.1037
L73.0129 32.2247
" />
<path d="M73.0129 32.2247
L73.1339 32.2851
" />
<path d="M73.1339 32.2851
L73.3153 32.2851
" />
<path d="M73.3153 32.2851
L73.4362 32.2247
" />
<path d="M73.4362 32.2247
L73.4967 32.1642
" />
<path d="M74.6457 32.2851
L74.6457 31.6199
" />
<path d="M74.6457 31.6199
L74.5852 31.4989
" />
<path d="M74.5852 31.4989
L74.4643 31.4385
" />
<path d="M74.4643 31.4385
L74.2224 31.4385
" />
<path d="M74.2224 31.4385
L74.1014 31.4989
" />
<path d="M74.6457 32.2247
L74.5248 32.2851
" />
<path d="M74.5248 32.2851
L74.2224 32.2851
" />
<path d="M74.2224 32.2851
L74.1014 32.2247
" />
<path d="M74.1014 32.2247
L74.0410 32.1037
" />
<path d="M74.0410 32.1037
L74.0410 31.9827
" />
<path d="M74.0410 31.9827
L74.1014 31.8618
" />
<path d="M74.1014 31.8618
L74.2224 31.8013
" />
<path d="M74.2224 31.8013
L74.5248 31.8013
" />
<path d="M74.5248 31.8013
L74.6457 31.7408
" />
<path d="M75.4319 32.2851
L75.3109 32.2247
" />
<path d="M75.3109 32.2247
L75.2504 32.1037
" />
<path d="M75.2504 32.1037
L75.2504 31.0151
" />
<path d="M76.8228 30.9547
L75.7342 32.5875
" />
<path d="M77.2461 32.2851
L77.2461 31.0151
" />
<path d="M77.2461 31.0151
L77.6695 31.9223
" />
<path d="M77.6695 31.9223
L78.0928 31.0151
" />
<path d="M78.0928 31.0151
L78.0928 32.2851
" />
<path d="M78.6975 32.2851
L78.6975 31.0151
" />
<path d="M79.4232 32.2851
L78.8790 31.5594
" />
<path d="M79.4232 31.0151
L78.6975 31.7408
" />
<path d="M79.9675 31.6199
L80.3909 31.6199
" />
<path d="M80.5723 32.2851
L79.9675 32.2851
" />
<path d="M79.9675 32.2851
L79.9675 31.0151
" />
<path d="M79.9675 31.0151
L80.5723 31.0151
" />
<path d="M81.3584 31.0151
L81.4794 31.0151
" />
<path d="M81.4794 31.0151
L81.6003 31.0756
" />
<path d="M81.6003 31.0756
L81.6608 31.1361
" />
<path d="M81.6608 31.1361
L81.7213 31.2570
" />
<path d="M81.7213 31.2570
L81.7818 31.4989
" />
<path d="M81.7818 31.4989
L81.7818 31.8013
" />
<path d="M81.7818 31.8013
L81.7213 32.0432
" />
<path d="M81.7213 32.0432
L81.6608 32.1642
" />
<path d="M81.6608 32.1642
L81.6003 32.2247
" />
<path d="M81.6003 32.2247
L81.4794 32.2851
" />
<path d="M81.4794 32.2851
L81.3584 32.2851
" />
<path d="M81.3584 32.2851
L81.2375 32.2247
" />
<path d="M81.2375 32.2247
L81.1770 32.1642
" />
<path d="M81.1770 32.1642
L81.1165 32.0432
" />
<path d="M81.1165 32.0432
L81.0561 31.8013
" />
<path d="M81.0561 31.8013
L81.0561 31.4989
" />
<path d="M81.0561 31.4989
L81.1165 31.2570
" />
<path d="M81.1165 31.2570
L81.1770 31.1361
" />
<path d="M81.1770 31.1361
L81.2375 31.0756
" />
<path d="M81.2375 31.0756
L81.3584 31.0151
" />
<path d="M82.2656 31.1361
L82.3260 31.0756
" />
<path d="M82.3260 31.0756
L82.4470 31.0151
" />
<path d="M82.4470 31.0151
L82.7494 31.0151
" />
<path d="M82.7494 31.0151
L82.8703 31.0756
" />
<path d="M82.8703 31.0756
L82.9308 31.1361
" />
<path d="M82.9308 31.1361
L82.9913 31.2570
" />
<path d="M82.9913 31.2570
L82.9913 31.3780
" />
<path d="M82.9913 31.3780
L82.9308 31.5594
" />
<path d="M82.9308 31.5594
L82.2051 32.2851
" />
<path d="M82.2051 32.2851
L82.9913 32.2851
" />
<path d="M83.5355 32.2851
L83.5355 31.0151
" />
<path d="M83.5355 31.0151
L84.0193 31.0151
" />
<path d="M84.0193 31.0151
L84.1403 31.0756
" />
<path d="M84.1403 31.0756
L84.2008 31.1361
" />
<path d="M84.2008 31.1361
L84.2612 31.2570
" />
<path d="M84.2612 31.2570
L84.2612 31.4385
" />
<path d="M84.2612 31.4385
L84.2008 31.5594
" />
<path d="M84.2008 31.5594
L84.1403 31.6199
" />
<path d="M84.1403 31.6199
L84.0193 31.6804
" />
<path d="M84.0193 31.6804
L83.5355 31.6804
" />
<path d="M85.3498 31.0151
L85.1079 31.0151
" />
<path d="M85.1079 31.0151
L84.9870 31.0756
" />
<path d="M84.9870 31.0756
L84.9265 31.1361
" />
<path d="M84.9265 31.1361
L84.8055 31.3175
" />
<path d="M84.8055 31.3175
L84.7451 31.5594
" />
<path d="M84.7451 31.5594
L84.7451 32.0432
" />
<path d="M84.7451 32.0432
L84.8055 32.1642
" />
<path d="M84.8055 32.1642
L84.8660 32.2247
" />
<path d="M84.8660 32.2247
L84.9870 32.2851
" />
<path d="M84.9870 32.2851
L85.2289 32.2851
" />
<path d="M85.2289 32.2851
L85.3498 32.2247
" />
<path d="M85.3498 32.2247
L85.4103 32.1642
" />
<path d="M85.4103 32.1642
L85.4708 32.0432
" />
<path d="M85.4708 32.0432
L85.4708 31.7408
" />
<path d="M85.4708 31.7408
L85.4103 31.6199
" />
<path d="M85.4103 31.6199
L85.3498 31.5594
" />
<path d="M85.3498 31.5594
L85.2289 31.4989
" />
<path d="M85.2289 31.4989
L84.9870 31.4989
" />
<path d="M84.9870 31.4989
L84.8660 31.5594
" />
<path d="M84.8660 31.5594
L84.8055 31.6199
" />
<path d="M84.8055 31.6199
L84.7451 31.7408
" />
<path d="M86.5593 31.4385
L86.5593 32.2851
" />
<path d="M86.2569 30.9547
L85.9546 31.8618
" />
<path d="M85.9546 31.8618
L86.7407 31.8618
" />
<path d="M87.2245 32.2851
L87.2245 31.0151
" />
<path d="M87.2245 31.0151
L87.6479 31.9223
" />
<path d="M87.6479 31.9223
L88.0712 31.0151
" />
<path d="M88.0712 31.0151
L88.0712 32.2851
" />
<path d="M89.2202 31.4385
L89.2202 32.2851
" />
<path d="M88.9178 30.9547
L88.6155 31.8618
" />
<path d="M88.6155 31.8618
L89.4016 31.8618
" />
<path d="M90.1273 31.0151
L90.2483 31.0151
" />
<path d="M90.2483 31.0151
L90.3692 31.0756
" />
<path d="M90.3692 31.0756
L90.4297 31.1361
" />
<path d="M90.4297 31.1361
L90.4902 31.2570
" />
<path d="M90.4902 31.2570
L90.5507 31.4989
" />
<path d="M90.5507 31.4989
L90.5507 31.8013
" />
<path d="M90.5507 31.8013
L90.4902 32.0432
" />
<path d="M90.4902 32.0432
L90.4297 32.1642
" />
<path d="M90.4297 32.1642
L90.3692 32.2247
" />
<path d="M90.3692 32.2247
L90.2483 32.2851
" />
<path d="M90.2483 32.2851
L90.1273 32.2851
" />
<path d="M90.1273 32.2851
L90.0064 32.2247
" />
<path d="M90.0064 32.2247
L89.9459 32.1642
" />
<path d="M89.9459 32.1642
L89.8854 32.0432
" />
<path d="M89.8854 32.0432
L89.8250 31.8013
" />
<path d="M89.8250 31.8013
L89.8250 31.4989
" />
<path d="M89.8250 31.4989
L89.8854 31.2570
" />
<path d="M89.8854 31.2570
L89.9459 31.1361
" />
<path d="M89.9459 31.1361
L90.0064 31.0756
" />
<path d="M90.0064 31.0756
L90.1273 31.0151
" />
<path d="M91.0345 32.2247
L91.2159 32.2851
" />
<path d="M91.2159 32.2851
L91.5183 32.2851
" />
<path d="M91.5183 32.2851
L91.6392 32.2247
" />
<path d="M91.6392 32.2247
L91.6997 32.1642
" />
<path d="M91.6997 32.1642
L91.7602 32.0432
" />
<path d="M91.7602 32.0432
L91.7602 31.9223
" />
<path d="M91.7602 31.9223
L91.6997 31.8013
" />
<path d="M91.6997 31.8013
L91.6392 31.7408
" />
<path d="M91.6392 31.7408
L91.5183 31.6804
" />
<path d="M91.5183 31.6804
L91.2764 31.6199
" />
<path d="M91.2764 31.6199
L91.1554 31.5594
" />
<path d="M91.1554 31.5594
L91.0949 31.4989
" />
<path d="M91.0949 31.4989
L91.0345 31.3780
" />
<path d="M91.0345 31.3780
L91.0345 31.2570
" />
<path d="M91.0345 31.2570
L91.0949 31.1361
" />
<path d="M91.0949 31.1361
L91.1554 31.0756
" />
<path d="M91.1554 31.0756
L91.2764 31.0151
" />
<path d="M91.2764 31.0151
L91.5787 31.0151
" />
<path d="M91.5787 31.0151
L91.7602 31.0756
" />
<path d="M92.7278 31.6199
L92.3044 31.6199
" />
<path d="M92.3044 32.2851
L92.3044 31.0151
" />
<path d="M92.3044 31.0151
L92.9092 31.0151
" />
<path d="M93.6349 31.0151
L93.7559 31.0151
" />
<path d="M93.7559 31.0151
L93.8768 31.0756
" />
<path d="M93.8768 31.0756
L93.9373 31.1361
" />
<path d="M93.9373 31.1361
L93.9978 31.2570
" />
<path d="M93.9978 31.2570
L94.0583 31.4989
" />
<path d="M94.0583 31.4989
L94.0583 31.8013
" />
<path d="M94.0583 31.8013
L93.9978 32.0432
" />
<path d="M93.9978 32.0432
L93.9373 32.1642
" />
<path d="M93.9373 32.1642
L93.8768 32.2247
" />
<path d="M93.8768 32.2247
L93.7559 32.2851
" />
<path d="M93.7559 32.2851
L93.6349 32.2851
" />
<path d="M93.6349 32.2851
L93.5140 32.2247
" />
<path d="M93.5140 32.2247
L93.4535 32.1642
" />
<path d="M93.4535 32.1642
L93.3930 32.0432
" />
<path d="M93.3930 32.0432
L93.3326 31.8013
" />
<path d="M93.3326 31.8013
L93.3326 31.4989
" />
<path d="M93.3326 31.4989
L93.3930 31.2570
" />
<path d="M93.3930 31.2570
L93.4535 31.1361
" />
<path d="M93.4535 31.1361
L93.5140 31.0756
" />
<path d="M93.5140 31.0756
L93.6349 31.0151
" />
<path d="M95.3282 32.2851
L94.9049 31.6804
" />
<path d="M94.6025 32.2851
L94.6025 31.0151
" />
<path d="M94.6025 31.0151
L95.0863 31.0151
" />
<path d="M95.0863 31.0151
L95.2073 31.0756
" />
<path d="M95.2073 31.0756
L95.2678 31.1361
" />
<path d="M95.2678 31.1361
L95.3282 31.2570
" />
<path d="M95.3282 31.2570
L95.3282 31.4385
" />
<path d="M95.3282 31.4385
L95.2678 31.5594
" />
<path d="M95.2678 31.5594
L95.2073 31.6199
" />
<path d="M95.2073 31.6199
L95.0863 31.6804
" />
<path d="M95.0863 31.6804
L94.6025 31.6804
" />
<path d="M95.8725 32.2851
L95.8725 31.0151
" />
<path d="M95.8725 31.0151
L96.2959 31.9223
" />
<path d="M96.2959 31.9223
L96.7192 31.0151
" />
<path d="M96.7192 31.0151
L96.7192 32.2851
" />
<path d="M97.3239 32.1642
L97.3844 32.2247
" />
<path d="M97.3844 32.2247
L97.3239 32.2851
" />
<path d="M97.3239 32.2851
L97.2635 32.2247
" />
<path d="M97.2635 32.2247
L97.3239 32.1642
" />
<path d="M97.3239 32.1642
L97.3239 32.2851
" />
<path d="M97.9287 31.4385
L97.9287 32.7085
" />
<path d="M97.9287 31.4989
L98.0497 31.4385
" />
<path d="M98.0497 31.4385
L98.2916 31.4385
" />
<path d="M98.2916 31.4385
L98.4125 31.4989
" />
<path d="M98.4125 31.4989
L98.4730 31.5594
" />
<path d="M98.4730 31.5594
L98.5335 31.6804
" />
<path d="M98.5335 31.6804
L98.5335 32.0432
" />
<path d="M98.5335 32.0432
L98.4730 32.1642
" />
<path d="M98.4730 32.1642
L98.4125 32.2247
" />
<path d="M98.4125 32.2247
L98.2916 32.2851
" />
<path d="M98.2916 32.2851
L98.0497 32.2851
" />
<path d="M98.0497 32.2851
L97.9287 32.2247
" />
<path d="M99.6220 32.2851
L99.6220 31.0151
" />
<path d="M99.6220 32.2247
L99.5011 32.2851
" />
<path d="M99.5011 32.2851
L99.2592 32.2851
" />
<path d="M99.2592 32.2851
L99.1382 32.2247
" />
<path d="M99.1382 32.2247
L99.0777 32.1642
" />
<path d="M99.0777 32.1642
L99.0173 32.0432
" />
<path d="M99.0173 32.0432
L99.0173 31.6804
" />
<path d="M99.0173 31.6804
L99.0777 31.5594
" />
<path d="M99.0777 31.5594
L99.1382 31.4989
" />
<path d="M99.1382 31.4989
L99.2592 31.4385
" />
<path d="M99.2592 31.4385
L99.5011 31.4385
" />
<path d="M99.5011 31.4385
L99.6220 31.4989
" />
<path d="M100.0453 31.4385
L100.5291 31.4385
" />
<path d="M100.2267 32.2851
L100.2267 31.1966
" />
<path d="M100.2267 31.1966
L100.2872 31.0756
" />
<path d="M100.2872 31.0756
L100.4082 31.0151
" />
<path d="M100.4082 31.0151
L100.5291 31.0151
" />
</g></g> 
</svg>
