<?xml version="1.0" standalone="no"?>
 <!DOCTYPE svg PUBLIC "-//W3C//DTD SVG 1.1//EN" 
 "http://www.w3.org/Graphics/SVG/1.1/DTD/svg11.dtd"> 
<svg
  xmlns:svg="http://www.w3.org/2000/svg"
  xmlns="http://www.w3.org/2000/svg"
  xmlns:xlink="http://www.w3.org/1999/xlink"
  version="1.1"
  width="58.4708mm" height="19.9644mm" viewBox="0.0000 0.0000 58.4708 19.9644">
<title>SVG Image created as working.svg date 2023/08/14 16:11:21 </title>
  <desc>Image generated by Eeschema-SVG </desc>
<g style="fill:#000000; fill-opacity:1.0000;stroke:#000000; stroke-opacity:1.0000;
stroke-linecap:round; stroke-linejoin:round;"
 transform="translate(0 0) scale(1 1)">
</g>
<g style="fill:#840000; fill-opacity:0.0; 
stroke:#840000; stroke-width:0.0000; stroke-opacity:1; 
stroke-linecap:round; stroke-linejoin:round;">
</g>
<g style="fill:#FFFFC2; fill-opacity:0.0; 
stroke:#FFFFC2; stroke-width:0.0000; stroke-opacity:1; 
stroke-linecap:round; stroke-linejoin:round;">
</g>
<g style="fill:#FFFFC2; fill-opacity:1.0000; 
stroke:#FFFFC2; stroke-width:0.0000; stroke-opacity:1; 
stroke-linecap:round; stroke-linejoin:round;">
<rect x="24.154400" y="1.790700" width="10.160000" height="6.985000" rx="0.000000" />
</g>
<g style="fill:#840084; fill-opacity:1.0000; 
stroke:#840084; stroke-width:0.0000; stroke-opacity:1; 
stroke-linecap:round; stroke-linejoin:round;">
</g>
<g style="fill:#840000; fill-opacity:1.0000; 
stroke:#840000; stroke-width:0.0000; stroke-opacity:1; 
stroke-linecap:round; stroke-linejoin:round;">
</g>
<g style="fill:#840000; fill-opacity:0.0; 
stroke:#840000; stroke-width:0.2540; stroke-opacity:1; 
stroke-linecap:round; stroke-linejoin:round;">
<rect x="24.154400" y="1.790700" width="10.160000" height="6.985000" rx="0.000000" />
</g>
<g style="fill:#840000; fill-opacity:0.0; 
stroke:#840000; stroke-width:0.1524; stroke-opacity:1; 
stroke-linecap:round; stroke-linejoin:round;">
<path d="M29.2344 15.7607
L29.2344 18.3007
" />
</g>
<g style="fill:#006464; fill-opacity:0.0; 
stroke:#006464; stroke-width:0.1524; stroke-opacity:1; 
stroke-linecap:round; stroke-linejoin:round;">
<g transform="rotate(-90.000000 29.2344 15.5067)">
<text x="29.2344" y="16.1417"
textLength="3.5294" font-size="1.6933" lengthAdjust="spacingAndGlyphs"
text-anchor="start" opacity="0">ADJ</text>
</g>
<g class="stroked-text"><desc>ADJ</desc>
<path d="M29.4511 15.1645
L29.4511 14.5598
" />
<path d="M29.8139 15.2855
L28.5439 14.8622
" />
<path d="M28.5439 14.8622
L29.8139 14.4388
" />
<path d="M29.8139 14.0155
L28.5439 14.0155
" />
<path d="M28.5439 14.0155
L28.5439 13.7131
" />
<path d="M28.5439 13.7131
L28.6044 13.5317
" />
<path d="M28.6044 13.5317
L28.7254 13.4107
" />
<path d="M28.7254 13.4107
L28.8463 13.3502
" />
<path d="M28.8463 13.3502
L29.0882 13.2898
" />
<path d="M29.0882 13.2898
L29.2696 13.2898
" />
<path d="M29.2696 13.2898
L29.5115 13.3502
" />
<path d="M29.5115 13.3502
L29.6325 13.4107
" />
<path d="M29.6325 13.4107
L29.7535 13.5317
" />
<path d="M29.7535 13.5317
L29.8139 13.7131
" />
<path d="M29.8139 13.7131
L29.8139 14.0155
" />
<path d="M28.5439 12.3826
L29.4511 12.3826
" />
<path d="M29.4511 12.3826
L29.6325 12.4431
" />
<path d="M29.6325 12.4431
L29.7535 12.5640
" />
<path d="M29.7535 12.5640
L29.8139 12.7455
" />
<path d="M29.8139 12.7455
L29.8139 12.8664
" />
</g></g>
<g style="fill:#A90000; fill-opacity:0.0; 
stroke:#A90000; stroke-width:0.1524; stroke-opacity:1; 
stroke-linecap:round; stroke-linejoin:round;">
<g transform="rotate(-90.000000 28.9804 17.0307)">
<text x="28.9804" y="17.0307"
textLength="1.4127" font-size="1.6933" lengthAdjust="spacingAndGlyphs"
text-anchor="middle" opacity="0">1</text>
</g>
<g class="stroked-text"><desc>1</desc>
<path d="M28.8169 16.6677
L28.8169 17.3934
" />
<path d="M28.8169 17.0306
L27.5469 17.0306
" />
<path d="M27.5469 17.0306
L27.7284 17.1515
" />
<path d="M27.7284 17.1515
L27.8493 17.2725
" />
<path d="M27.8493 17.2725
L27.9098 17.3934
" />
</g></g>
<g style="fill:#840000; fill-opacity:0.0; 
stroke:#840000; stroke-width:0.1524; stroke-opacity:1; 
stroke-linecap:round; stroke-linejoin:round;">
<path d="M34.3144 10.6807
L36.8544 10.6807
" />
</g>
<g style="fill:#006464; fill-opacity:0.0; 
stroke:#006464; stroke-width:0.1524; stroke-opacity:1; 
stroke-linecap:round; stroke-linejoin:round;">
<text x="34.0604" y="11.3157"
textLength="2.6223" font-size="1.6933" lengthAdjust="spacingAndGlyphs"
text-anchor="end" opacity="0">VO</text>
<g class="stroked-text"><desc>VO</desc>
<path d="M31.6620 9.9902
L32.0853 11.2602
" />
<path d="M32.0853 11.2602
L32.5087 9.9902
" />
<path d="M33.1739 9.9902
L33.4158 9.9902
" />
<path d="M33.4158 9.9902
L33.5368 10.0507
" />
<path d="M33.5368 10.0507
L33.6577 10.1717
" />
<path d="M33.6577 10.1717
L33.7182 10.4136
" />
<path d="M33.7182 10.4136
L33.7182 10.8369
" />
<path d="M33.7182 10.8369
L33.6577 11.0788
" />
<path d="M33.6577 11.0788
L33.5368 11.1998
" />
<path d="M33.5368 11.1998
L33.4158 11.2602
" />
<path d="M33.4158 11.2602
L33.1739 11.2602
" />
<path d="M33.1739 11.2602
L33.0530 11.1998
" />
<path d="M33.0530 11.1998
L32.9320 11.0788
" />
<path d="M32.9320 11.0788
L32.8716 10.8369
" />
<path d="M32.8716 10.8369
L32.8716 10.4136
" />
<path d="M32.8716 10.4136
L32.9320 10.1717
" />
<path d="M32.9320 10.1717
L33.0530 10.0507
" />
<path d="M33.0530 10.0507
L33.1739 9.9902
" />
</g></g>
<g style="fill:#A90000; fill-opacity:0.0; 
stroke:#A90000; stroke-width:0.1524; stroke-opacity:1; 
stroke-linecap:round; stroke-linejoin:round;">
<text x="35.5844" y="10.4267"
textLength="1.4127" font-size="1.6933" lengthAdjust="spacingAndGlyphs"
text-anchor="middle" opacity="0">2</text>
<g class="stroked-text"><desc>2</desc>
<path d="M35.2216 9.1142
L35.2820 9.0537
" />
<path d="M35.2820 9.0537
L35.4030 8.9932
" />
<path d="M35.4030 8.9932
L35.7054 8.9932
" />
<path d="M35.7054 8.9932
L35.8263 9.0537
" />
<path d="M35.8263 9.0537
L35.8868 9.1142
" />
<path d="M35.8868 9.1142
L35.9473 9.2351
" />
<path d="M35.9473 9.2351
L35.9473 9.3561
" />
<path d="M35.9473 9.3561
L35.8868 9.5375
" />
<path d="M35.8868 9.5375
L35.1611 10.2632
" />
<path d="M35.1611 10.2632
L35.9473 10.2632
" />
</g></g>
<g style="fill:#840000; fill-opacity:0.0; 
stroke:#840000; stroke-width:0.1524; stroke-opacity:1; 
stroke-linecap:round; stroke-linejoin:round;">
<path d="M24.1544 10.6807
L21.6144 10.6807
" />
</g>
<g style="fill:#006464; fill-opacity:0.0; 
stroke:#006464; stroke-width:0.1524; stroke-opacity:1; 
stroke-linecap:round; stroke-linejoin:round;">
<text x="24.4084" y="11.3157"
textLength="1.8966" font-size="1.6933" lengthAdjust="spacingAndGlyphs"
text-anchor="start" opacity="0">VI</text>
<g class="stroked-text"><desc>VI</desc>
<path d="M24.6295 9.9902
L25.0528 11.2602
" />
<path d="M25.0528 11.2602
L25.4762 9.9902
" />
<path d="M25.8995 11.2602
L25.8995 9.9902
" />
</g></g>
<g style="fill:#A90000; fill-opacity:0.0; 
stroke:#A90000; stroke-width:0.1524; stroke-opacity:1; 
stroke-linecap:round; stroke-linejoin:round;">
<text x="22.8844" y="10.4267"
textLength="1.4127" font-size="1.6933" lengthAdjust="spacingAndGlyphs"
text-anchor="middle" opacity="0">3</text>
<g class="stroked-text"><desc>3</desc>
<path d="M22.4611 8.9932
L23.2473 8.9932
" />
<path d="M23.2473 8.9932
L22.8239 9.4770
" />
<path d="M22.8239 9.4770
L23.0054 9.4770
" />
<path d="M23.0054 9.4770
L23.1263 9.5375
" />
<path d="M23.1263 9.5375
L23.1868 9.5980
" />
<path d="M23.1868 9.5980
L23.2473 9.7189
" />
<path d="M23.2473 9.7189
L23.2473 10.0213
" />
<path d="M23.2473 10.0213
L23.1868 10.1423
" />
<path d="M23.1868 10.1423
L23.1263 10.2028
" />
<path d="M23.1263 10.2028
L23.0054 10.2632
" />
<path d="M23.0054 10.2632
L22.6425 10.2632
" />
<path d="M22.6425 10.2632
L22.5216 10.2028
" />
<path d="M22.5216 10.2028
L22.4611 10.1423
" />
</g></g>
<g style="fill:#840084; fill-opacity:0.0; 
stroke:#840084; stroke-width:0.1524; stroke-opacity:1; 
stroke-linecap:round; stroke-linejoin:round;">
</g>
<g style="fill:#006464; fill-opacity:0.0; 
stroke:#006464; stroke-width:0.1524; stroke-opacity:1; 
stroke-linecap:round; stroke-linejoin:round;">
</g>
<g style="fill:#006464; fill-opacity:0.0; 
stroke:#006464; stroke-width:0.1588; stroke-opacity:1; 
stroke-linecap:round; stroke-linejoin:round;">
<text x="25.4244" y="8.1407"
textLength="2.6415" font-size="1.6933" lengthAdjust="spacingAndGlyphs"
text-anchor="middle" opacity="0">U?</text>
<g class="stroked-text"><desc>U?</desc>
<path d="M24.5172 6.8149
L24.5172 7.8430
" />
<path d="M24.5172 7.8430
L24.5777 7.9640
" />
<path d="M24.5777 7.9640
L24.6382 8.0245
" />
<path d="M24.6382 8.0245
L24.7591 8.0849
" />
<path d="M24.7591 8.0849
L25.0010 8.0849
" />
<path d="M25.0010 8.0849
L25.1220 8.0245
" />
<path d="M25.1220 8.0245
L25.1825 7.9640
" />
<path d="M25.1825 7.9640
L25.2429 7.8430
" />
<path d="M25.2429 7.8430
L25.2429 6.8149
" />
<path d="M26.0292 7.9640
L26.0896 8.0245
" />
<path d="M26.0896 8.0245
L26.0292 8.0849
" />
<path d="M26.0292 8.0849
L25.9687 8.0245
" />
<path d="M25.9687 8.0245
L26.0292 7.9640
" />
<path d="M26.0292 7.9640
L26.0292 8.0849
" />
<path d="M25.7873 6.8754
L25.9082 6.8149
" />
<path d="M25.9082 6.8149
L26.2106 6.8149
" />
<path d="M26.2106 6.8149
L26.3315 6.8754
" />
<path d="M26.3315 6.8754
L26.3920 6.9964
" />
<path d="M26.3920 6.9964
L26.3920 7.1173
" />
<path d="M26.3920 7.1173
L26.3315 7.2383
" />
<path d="M26.3315 7.2383
L26.2711 7.2987
" />
<path d="M26.2711 7.2987
L26.1501 7.3592
" />
<path d="M26.1501 7.3592
L26.0896 7.4197
" />
<path d="M26.0896 7.4197
L26.0292 7.5406
" />
<path d="M26.0292 7.5406
L26.0292 7.6011
" />
</g><text x="36.6329" y="8.1407"
textLength="14.7970" font-size="1.6933" lengthAdjust="spacingAndGlyphs"
text-anchor="middle" opacity="0">LM317_TO-252</text>
<g class="stroked-text"><desc>LM317_TO-252</desc>
<path d="M30.2527 8.0849
L29.6479 8.0849
" />
<path d="M29.6479 8.0849
L29.6479 6.8149
" />
<path d="M30.6760 8.0849
L30.6760 6.8149
" />
<path d="M30.6760 6.8149
L31.0994 7.7221
" />
<path d="M31.0994 7.7221
L31.5227 6.8149
" />
<path d="M31.5227 6.8149
L31.5227 8.0849
" />
<path d="M32.0065 6.8149
L32.7927 6.8149
" />
<path d="M32.7927 6.8149
L32.3693 7.2987
" />
<path d="M32.3693 7.2987
L32.5508 7.2987
" />
<path d="M32.5508 7.2987
L32.6717 7.3592
" />
<path d="M32.6717 7.3592
L32.7322 7.4197
" />
<path d="M32.7322 7.4197
L32.7927 7.5406
" />
<path d="M32.7927 7.5406
L32.7927 7.8430
" />
<path d="M32.7927 7.8430
L32.7322 7.9640
" />
<path d="M32.7322 7.9640
L32.6717 8.0245
" />
<path d="M32.6717 8.0245
L32.5508 8.0849
" />
<path d="M32.5508 8.0849
L32.1879 8.0849
" />
<path d="M32.1879 8.0849
L32.0670 8.0245
" />
<path d="M32.0670 8.0245
L32.0065 7.9640
" />
<path d="M34.0022 8.0849
L33.2765 8.0849
" />
<path d="M33.6393 8.0849
L33.6393 6.8149
" />
<path d="M33.6393 6.8149
L33.5184 6.9964
" />
<path d="M33.5184 6.9964
L33.3974 7.1173
" />
<path d="M33.3974 7.1173
L33.2765 7.1778
" />
<path d="M34.4255 6.8149
L35.2721 6.8149
" />
<path d="M35.2721 6.8149
L34.7279 8.0849
" />
<path d="M35.4536 8.2059
L36.4212 8.2059
" />
<path d="M36.5421 6.8149
L37.2678 6.8149
" />
<path d="M36.9050 8.0849
L36.9050 6.8149
" />
<path d="M37.9330 6.8149
L38.1749 6.8149
" />
<path d="M38.1749 6.8149
L38.2959 6.8754
" />
<path d="M38.2959 6.8754
L38.4168 6.9964
" />
<path d="M38.4168 6.9964
L38.4773 7.2383
" />
<path d="M38.4773 7.2383
L38.4773 7.6616
" />
<path d="M38.4773 7.6616
L38.4168 7.9035
" />
<path d="M38.4168 7.9035
L38.2959 8.0245
" />
<path d="M38.2959 8.0245
L38.1749 8.0849
" />
<path d="M38.1749 8.0849
L37.9330 8.0849
" />
<path d="M37.9330 8.0849
L37.8121 8.0245
" />
<path d="M37.8121 8.0245
L37.6911 7.9035
" />
<path d="M37.6911 7.9035
L37.6307 7.6616
" />
<path d="M37.6307 7.6616
L37.6307 7.2383
" />
<path d="M37.6307 7.2383
L37.6911 6.9964
" />
<path d="M37.6911 6.9964
L37.8121 6.8754
" />
<path d="M37.8121 6.8754
L37.9330 6.8149
" />
<path d="M39.0216 7.6011
L39.9893 7.6011
" />
<path d="M40.5336 6.9359
L40.5940 6.8754
" />
<path d="M40.5940 6.8754
L40.7150 6.8149
" />
<path d="M40.7150 6.8149
L41.0174 6.8149
" />
<path d="M41.0174 6.8149
L41.1383 6.8754
" />
<path d="M41.1383 6.8754
L41.1988 6.9359
" />
<path d="M41.1988 6.9359
L41.2593 7.0568
" />
<path d="M41.2593 7.0568
L41.2593 7.1778
" />
<path d="M41.2593 7.1778
L41.1988 7.3592
" />
<path d="M41.1988 7.3592
L40.4731 8.0849
" />
<path d="M40.4731 8.0849
L41.2593 8.0849
" />
<path d="M42.4083 6.8149
L41.8035 6.8149
" />
<path d="M41.8035 6.8149
L41.7431 7.4197
" />
<path d="M41.7431 7.4197
L41.8035 7.3592
" />
<path d="M41.8035 7.3592
L41.9245 7.2987
" />
<path d="M41.9245 7.2987
L42.2269 7.2987
" />
<path d="M42.2269 7.2987
L42.3478 7.3592
" />
<path d="M42.3478 7.3592
L42.4083 7.4197
" />
<path d="M42.4083 7.4197
L42.4688 7.5406
" />
<path d="M42.4688 7.5406
L42.4688 7.8430
" />
<path d="M42.4688 7.8430
L42.4083 7.9640
" />
<path d="M42.4083 7.9640
L42.3478 8.0245
" />
<path d="M42.3478 8.0245
L42.2269 8.0849
" />
<path d="M42.2269 8.0849
L41.9245 8.0849
" />
<path d="M41.9245 8.0849
L41.8035 8.0245
" />
<path d="M41.8035 8.0245
L41.7431 7.9640
" />
<path d="M42.9526 6.9359
L43.0130 6.8754
" />
<path d="M43.0130 6.8754
L43.1340 6.8149
" />
<path d="M43.1340 6.8149
L43.4364 6.8149
" />
<path d="M43.4364 6.8149
L43.5573 6.8754
" />
<path d="M43.5573 6.8754
L43.6178 6.9359
" />
<path d="M43.6178 6.9359
L43.6783 7.0568
" />
<path d="M43.6783 7.0568
L43.6783 7.1778
" />
<path d="M43.6783 7.1778
L43.6178 7.3592
" />
<path d="M43.6178 7.3592
L42.8921 8.0849
" />
<path d="M42.8921 8.0849
L43.6783 8.0849
" />
</g></g>
<g style="fill:#840084; fill-opacity:0.0; 
stroke:#840084; stroke-width:0.1588; stroke-opacity:1; 
stroke-linecap:round; stroke-linejoin:round;">
<text x="29.3138" y="4.9657"
textLength="31.6698" font-size="1.6933" lengthAdjust="spacingAndGlyphs"
text-anchor="middle" opacity="0">Package_TO_SOT_SMD:TO-252-2</text>
<g class="stroked-text"><desc>Package_TO_SOT_SMD:TO-252-2</desc>
<path d="M13.8849 4.9099
L14.0436 3.6399
" />
<path d="M14.0436 3.6399
L14.5274 3.6399
" />
<path d="M14.5274 3.6399
L14.6408 3.7004
" />
<path d="M14.6408 3.7004
L14.6937 3.7609
" />
<path d="M14.6937 3.7609
L14.7391 3.8818
" />
<path d="M14.7391 3.8818
L14.7164 4.0633
" />
<path d="M14.7164 4.0633
L14.6408 4.1842
" />
<path d="M14.6408 4.1842
L14.5728 4.2447
" />
<path d="M14.5728 4.2447
L14.4443 4.3052
" />
<path d="M14.4443 4.3052
L13.9605 4.3052
" />
<path d="M15.6992 4.9099
L15.7823 4.2447
" />
<path d="M15.7823 4.2447
L15.7370 4.1237
" />
<path d="M15.7370 4.1237
L15.6236 4.0633
" />
<path d="M15.6236 4.0633
L15.3817 4.0633
" />
<path d="M15.3817 4.0633
L15.2531 4.1237
" />
<path d="M15.7067 4.8495
L15.5782 4.9099
" />
<path d="M15.5782 4.9099
L15.2758 4.9099
" />
<path d="M15.2758 4.9099
L15.1624 4.8495
" />
<path d="M15.1624 4.8495
L15.1171 4.7285
" />
<path d="M15.1171 4.7285
L15.1322 4.6075
" />
<path d="M15.1322 4.6075
L15.2078 4.4866
" />
<path d="M15.2078 4.4866
L15.3363 4.4261
" />
<path d="M15.3363 4.4261
L15.6387 4.4261
" />
<path d="M15.6387 4.4261
L15.7672 4.3656
" />
<path d="M16.8557 4.8495
L16.7272 4.9099
" />
<path d="M16.7272 4.9099
L16.4853 4.9099
" />
<path d="M16.4853 4.9099
L16.3719 4.8495
" />
<path d="M16.3719 4.8495
L16.3190 4.7890
" />
<path d="M16.3190 4.7890
L16.2736 4.6680
" />
<path d="M16.2736 4.6680
L16.3190 4.3052
" />
<path d="M16.3190 4.3052
L16.3946 4.1842
" />
<path d="M16.3946 4.1842
L16.4626 4.1237
" />
<path d="M16.4626 4.1237
L16.5911 4.0633
" />
<path d="M16.5911 4.0633
L16.8330 4.0633
" />
<path d="M16.8330 4.0633
L16.9464 4.1237
" />
<path d="M17.3925 4.9099
L17.5512 3.6399
" />
<path d="M17.5739 4.4261
L17.8763 4.9099
" />
<path d="M17.9821 4.0633
L17.4378 4.5471
" />
<path d="M18.9649 4.9099
L19.0480 4.2447
" />
<path d="M19.0480 4.2447
L19.0027 4.1237
" />
<path d="M19.0027 4.1237
L18.8893 4.0633
" />
<path d="M18.8893 4.0633
L18.6474 4.0633
" />
<path d="M18.6474 4.0633
L18.5188 4.1237
" />
<path d="M18.9724 4.8495
L18.8439 4.9099
" />
<path d="M18.8439 4.9099
L18.5415 4.9099
" />
<path d="M18.5415 4.9099
L18.4281 4.8495
" />
<path d="M18.4281 4.8495
L18.3828 4.7285
" />
<path d="M18.3828 4.7285
L18.3979 4.6075
" />
<path d="M18.3979 4.6075
L18.4735 4.4866
" />
<path d="M18.4735 4.4866
L18.6020 4.4261
" />
<path d="M18.6020 4.4261
L18.9044 4.4261
" />
<path d="M18.9044 4.4261
L19.0329 4.3656
" />
<path d="M20.2197 4.0633
L20.0912 5.0914
" />
<path d="M20.0912 5.0914
L20.0156 5.2123
" />
<path d="M20.0156 5.2123
L19.9475 5.2728
" />
<path d="M19.9475 5.2728
L19.8190 5.3333
" />
<path d="M19.8190 5.3333
L19.6376 5.3333
" />
<path d="M19.6376 5.3333
L19.5242 5.2728
" />
<path d="M20.1214 4.8495
L19.9929 4.9099
" />
<path d="M19.9929 4.9099
L19.7510 4.9099
" />
<path d="M19.7510 4.9099
L19.6376 4.8495
" />
<path d="M19.6376 4.8495
L19.5847 4.7890
" />
<path d="M19.5847 4.7890
L19.5393 4.6680
" />
<path d="M19.5393 4.6680
L19.5847 4.3052
" />
<path d="M19.5847 4.3052
L19.6603 4.1842
" />
<path d="M19.6603 4.1842
L19.7283 4.1237
" />
<path d="M19.7283 4.1237
L19.8568 4.0633
" />
<path d="M19.8568 4.0633
L20.0987 4.0633
" />
<path d="M20.0987 4.0633
L20.2121 4.1237
" />
<path d="M21.2099 4.8495
L21.0814 4.9099
" />
<path d="M21.0814 4.9099
L20.8395 4.9099
" />
<path d="M20.8395 4.9099
L20.7261 4.8495
" />
<path d="M20.7261 4.8495
L20.6808 4.7285
" />
<path d="M20.6808 4.7285
L20.7413 4.2447
" />
<path d="M20.7413 4.2447
L20.8168 4.1237
" />
<path d="M20.8168 4.1237
L20.9454 4.0633
" />
<path d="M20.9454 4.0633
L21.1873 4.0633
" />
<path d="M21.1873 4.0633
L21.3007 4.1237
" />
<path d="M21.3007 4.1237
L21.3460 4.2447
" />
<path d="M21.3460 4.2447
L21.3309 4.3656
" />
<path d="M21.3309 4.3656
L20.7110 4.4866
" />
<path d="M21.4897 5.0309
L22.4573 5.0309
" />
<path d="M22.7521 3.6399
L23.4778 3.6399
" />
<path d="M22.9562 4.9099
L23.1150 3.6399
" />
<path d="M24.1430 3.6399
L24.3849 3.6399
" />
<path d="M24.3849 3.6399
L24.4983 3.7004
" />
<path d="M24.4983 3.7004
L24.6042 3.8214
" />
<path d="M24.6042 3.8214
L24.6344 4.0633
" />
<path d="M24.6344 4.0633
L24.5815 4.4866
" />
<path d="M24.5815 4.4866
L24.4908 4.7285
" />
<path d="M24.4908 4.7285
L24.3547 4.8495
" />
<path d="M24.3547 4.8495
L24.2262 4.9099
" />
<path d="M24.2262 4.9099
L23.9843 4.9099
" />
<path d="M23.9843 4.9099
L23.8709 4.8495
" />
<path d="M23.8709 4.8495
L23.7651 4.7285
" />
<path d="M23.7651 4.7285
L23.7348 4.4866
" />
<path d="M23.7348 4.4866
L23.7877 4.0633
" />
<path d="M23.7877 4.0633
L23.8784 3.8214
" />
<path d="M23.8784 3.8214
L24.0145 3.7004
" />
<path d="M24.0145 3.7004
L24.1430 3.6399
" />
<path d="M24.7554 5.0309
L25.7230 5.0309
" />
<path d="M25.9876 4.8495
L26.1614 4.9099
" />
<path d="M26.1614 4.9099
L26.4638 4.9099
" />
<path d="M26.4638 4.9099
L26.5923 4.8495
" />
<path d="M26.5923 4.8495
L26.6604 4.7890
" />
<path d="M26.6604 4.7890
L26.7359 4.6680
" />
<path d="M26.7359 4.6680
L26.7511 4.5471
" />
<path d="M26.7511 4.5471
L26.7057 4.4261
" />
<path d="M26.7057 4.4261
L26.6528 4.3656
" />
<path d="M26.6528 4.3656
L26.5394 4.3052
" />
<path d="M26.5394 4.3052
L26.3051 4.2447
" />
<path d="M26.3051 4.2447
L26.1917 4.1842
" />
<path d="M26.1917 4.1842
L26.1387 4.1237
" />
<path d="M26.1387 4.1237
L26.0934 4.0028
" />
<path d="M26.0934 4.0028
L26.1085 3.8818
" />
<path d="M26.1085 3.8818
L26.1841 3.7609
" />
<path d="M26.1841 3.7609
L26.2521 3.7004
" />
<path d="M26.2521 3.7004
L26.3807 3.6399
" />
<path d="M26.3807 3.6399
L26.6830 3.6399
" />
<path d="M26.6830 3.6399
L26.8569 3.7004
" />
<path d="M27.6506 3.6399
L27.8925 3.6399
" />
<path d="M27.8925 3.6399
L28.0059 3.7004
" />
<path d="M28.0059 3.7004
L28.1118 3.8214
" />
<path d="M28.1118 3.8214
L28.1420 4.0633
" />
<path d="M28.1420 4.0633
L28.0891 4.4866
" />
<path d="M28.0891 4.4866
L27.9984 4.7285
" />
<path d="M27.9984 4.7285
L27.8623 4.8495
" />
<path d="M27.8623 4.8495
L27.7338 4.9099
" />
<path d="M27.7338 4.9099
L27.4919 4.9099
" />
<path d="M27.4919 4.9099
L27.3785 4.8495
" />
<path d="M27.3785 4.8495
L27.2727 4.7285
" />
<path d="M27.2727 4.7285
L27.2424 4.4866
" />
<path d="M27.2424 4.4866
L27.2953 4.0633
" />
<path d="M27.2953 4.0633
L27.3860 3.8214
" />
<path d="M27.3860 3.8214
L27.5221 3.7004
" />
<path d="M27.5221 3.7004
L27.6506 3.6399
" />
<path d="M28.5578 3.6399
L29.2835 3.6399
" />
<path d="M28.7619 4.9099
L28.9207 3.6399
" />
<path d="M29.2306 5.0309
L30.1982 5.0309
" />
<path d="M30.4628 4.8495
L30.6366 4.9099
" />
<path d="M30.6366 4.9099
L30.9390 4.9099
" />
<path d="M30.9390 4.9099
L31.0675 4.8495
" />
<path d="M31.0675 4.8495
L31.1356 4.7890
" />
<path d="M31.1356 4.7890
L31.2111 4.6680
" />
<path d="M31.2111 4.6680
L31.2263 4.5471
" />
<path d="M31.2263 4.5471
L31.1809 4.4261
" />
<path d="M31.1809 4.4261
L31.1280 4.3656
" />
<path d="M31.1280 4.3656
L31.0146 4.3052
" />
<path d="M31.0146 4.3052
L30.7803 4.2447
" />
<path d="M30.7803 4.2447
L30.6669 4.1842
" />
<path d="M30.6669 4.1842
L30.6139 4.1237
" />
<path d="M30.6139 4.1237
L30.5686 4.0028
" />
<path d="M30.5686 4.0028
L30.5837 3.8818
" />
<path d="M30.5837 3.8818
L30.6593 3.7609
" />
<path d="M30.6593 3.7609
L30.7273 3.7004
" />
<path d="M30.7273 3.7004
L30.8559 3.6399
" />
<path d="M30.8559 3.6399
L31.1582 3.6399
" />
<path d="M31.1582 3.6399
L31.3321 3.7004
" />
<path d="M31.7252 4.9099
L31.8839 3.6399
" />
<path d="M31.8839 3.6399
L32.1939 4.5471
" />
<path d="M32.1939 4.5471
L32.7306 3.6399
" />
<path d="M32.7306 3.6399
L32.5718 4.9099
" />
<path d="M33.1766 4.9099
L33.3353 3.6399
" />
<path d="M33.3353 3.6399
L33.6377 3.6399
" />
<path d="M33.6377 3.6399
L33.8116 3.7004
" />
<path d="M33.8116 3.7004
L33.9174 3.8214
" />
<path d="M33.9174 3.8214
L33.9628 3.9423
" />
<path d="M33.9628 3.9423
L33.9930 4.1842
" />
<path d="M33.9930 4.1842
L33.9703 4.3656
" />
<path d="M33.9703 4.3656
L33.8796 4.6075
" />
<path d="M33.8796 4.6075
L33.8040 4.7285
" />
<path d="M33.8040 4.7285
L33.6679 4.8495
" />
<path d="M33.6679 4.8495
L33.4790 4.9099
" />
<path d="M33.4790 4.9099
L33.1766 4.9099
" />
<path d="M34.4617 4.7890
L34.5146 4.8495
" />
<path d="M34.5146 4.8495
L34.4466 4.9099
" />
<path d="M34.4466 4.9099
L34.3937 4.8495
" />
<path d="M34.3937 4.8495
L34.4617 4.7890
" />
<path d="M34.4617 4.7890
L34.4466 4.9099
" />
<path d="M34.5448 4.1237
L34.5978 4.1842
" />
<path d="M34.5978 4.1842
L34.5297 4.2447
" />
<path d="M34.5297 4.2447
L34.4768 4.1842
" />
<path d="M34.4768 4.1842
L34.5448 4.1237
" />
<path d="M34.5448 4.1237
L34.5297 4.2447
" />
<path d="M35.0287 3.6399
L35.7544 3.6399
" />
<path d="M35.2328 4.9099
L35.3916 3.6399
" />
<path d="M36.4196 3.6399
L36.6615 3.6399
" />
<path d="M36.6615 3.6399
L36.7749 3.7004
" />
<path d="M36.7749 3.7004
L36.8808 3.8214
" />
<path d="M36.8808 3.8214
L36.9110 4.0633
" />
<path d="M36.9110 4.0633
L36.8581 4.4866
" />
<path d="M36.8581 4.4866
L36.7674 4.7285
" />
<path d="M36.7674 4.7285
L36.6313 4.8495
" />
<path d="M36.6313 4.8495
L36.5028 4.9099
" />
<path d="M36.5028 4.9099
L36.2609 4.9099
" />
<path d="M36.2609 4.9099
L36.1475 4.8495
" />
<path d="M36.1475 4.8495
L36.0417 4.7285
" />
<path d="M36.0417 4.7285
L36.0114 4.4866
" />
<path d="M36.0114 4.4866
L36.0643 4.0633
" />
<path d="M36.0643 4.0633
L36.1550 3.8214
" />
<path d="M36.1550 3.8214
L36.2911 3.7004
" />
<path d="M36.2911 3.7004
L36.4196 3.6399
" />
<path d="M37.4099 4.4261
L38.3776 4.4261
" />
<path d="M39.0050 3.7609
L39.0731 3.7004
" />
<path d="M39.0731 3.7004
L39.2016 3.6399
" />
<path d="M39.2016 3.6399
L39.5040 3.6399
" />
<path d="M39.5040 3.6399
L39.6173 3.7004
" />
<path d="M39.6173 3.7004
L39.6703 3.7609
" />
<path d="M39.6703 3.7609
L39.7156 3.8818
" />
<path d="M39.7156 3.8818
L39.7005 4.0028
" />
<path d="M39.7005 4.0028
L39.6173 4.1842
" />
<path d="M39.6173 4.1842
L38.8009 4.9099
" />
<path d="M38.8009 4.9099
L39.5871 4.9099
" />
<path d="M40.8949 3.6399
L40.2901 3.6399
" />
<path d="M40.2901 3.6399
L40.1541 4.2447
" />
<path d="M40.1541 4.2447
L40.2221 4.1842
" />
<path d="M40.2221 4.1842
L40.3506 4.1237
" />
<path d="M40.3506 4.1237
L40.6530 4.1237
" />
<path d="M40.6530 4.1237
L40.7664 4.1842
" />
<path d="M40.7664 4.1842
L40.8193 4.2447
" />
<path d="M40.8193 4.2447
L40.8646 4.3656
" />
<path d="M40.8646 4.3656
L40.8268 4.6680
" />
<path d="M40.8268 4.6680
L40.7513 4.7890
" />
<path d="M40.7513 4.7890
L40.6832 4.8495
" />
<path d="M40.6832 4.8495
L40.5547 4.9099
" />
<path d="M40.5547 4.9099
L40.2523 4.9099
" />
<path d="M40.2523 4.9099
L40.1389 4.8495
" />
<path d="M40.1389 4.8495
L40.0860 4.7890
" />
<path d="M41.4240 3.7609
L41.4921 3.7004
" />
<path d="M41.4921 3.7004
L41.6206 3.6399
" />
<path d="M41.6206 3.6399
L41.9230 3.6399
" />
<path d="M41.9230 3.6399
L42.0363 3.7004
" />
<path d="M42.0363 3.7004
L42.0893 3.7609
" />
<path d="M42.0893 3.7609
L42.1346 3.8818
" />
<path d="M42.1346 3.8818
L42.1195 4.0028
" />
<path d="M42.1195 4.0028
L42.0363 4.1842
" />
<path d="M42.0363 4.1842
L41.2199 4.9099
" />
<path d="M41.2199 4.9099
L42.0061 4.9099
" />
<path d="M42.6108 4.4261
L43.5785 4.4261
" />
<path d="M44.2059 3.7609
L44.2740 3.7004
" />
<path d="M44.2740 3.7004
L44.4025 3.6399
" />
<path d="M44.4025 3.6399
L44.7049 3.6399
" />
<path d="M44.7049 3.6399
L44.8182 3.7004
" />
<path d="M44.8182 3.7004
L44.8712 3.7609
" />
<path d="M44.8712 3.7609
L44.9165 3.8818
" />
<path d="M44.9165 3.8818
L44.9014 4.0028
" />
<path d="M44.9014 4.0028
L44.8182 4.1842
" />
<path d="M44.8182 4.1842
L44.0018 4.9099
" />
<path d="M44.0018 4.9099
L44.7880 4.9099
" />
</g><text x="29.2344" y="11.3157"
textLength="48.7240" font-size="1.6933" lengthAdjust="spacingAndGlyphs"
text-anchor="middle" opacity="0">http://www.ti.com/lit/ds/snvs774n/snvs774n.pdf</text>
<g class="stroked-text"><desc>http://www.ti.com/lit/ds/snvs774n/snvs774n.pdf</desc>
<path d="M5.2859 11.2599
L5.2859 9.9899
" />
<path d="M5.8302 11.2599
L5.8302 10.5947
" />
<path d="M5.8302 10.5947
L5.7697 10.4737
" />
<path d="M5.7697 10.4737
L5.6488 10.4133
" />
<path d="M5.6488 10.4133
L5.4674 10.4133
" />
<path d="M5.4674 10.4133
L5.3464 10.4737
" />
<path d="M5.3464 10.4737
L5.2859 10.5342
" />
<path d="M6.2535 10.4133
L6.7373 10.4133
" />
<path d="M6.4349 9.9899
L6.4349 11.0785
" />
<path d="M6.4349 11.0785
L6.4954 11.1995
" />
<path d="M6.4954 11.1995
L6.6164 11.2599
" />
<path d="M6.6164 11.2599
L6.7373 11.2599
" />
<path d="M6.9792 10.4133
L7.4630 10.4133
" />
<path d="M7.1606 9.9899
L7.1606 11.0785
" />
<path d="M7.1606 11.0785
L7.2211 11.1995
" />
<path d="M7.2211 11.1995
L7.3421 11.2599
" />
<path d="M7.3421 11.2599
L7.4630 11.2599
" />
<path d="M7.8863 10.4133
L7.8863 11.6833
" />
<path d="M7.8863 10.4737
L8.0073 10.4133
" />
<path d="M8.0073 10.4133
L8.2492 10.4133
" />
<path d="M8.2492 10.4133
L8.3701 10.4737
" />
<path d="M8.3701 10.4737
L8.4306 10.5342
" />
<path d="M8.4306 10.5342
L8.4911 10.6552
" />
<path d="M8.4911 10.6552
L8.4911 11.0180
" />
<path d="M8.4911 11.0180
L8.4306 11.1390
" />
<path d="M8.4306 11.1390
L8.3701 11.1995
" />
<path d="M8.3701 11.1995
L8.2492 11.2599
" />
<path d="M8.2492 11.2599
L8.0073 11.2599
" />
<path d="M8.0073 11.2599
L7.8863 11.1995
" />
<path d="M9.0353 11.1390
L9.0958 11.1995
" />
<path d="M9.0958 11.1995
L9.0353 11.2599
" />
<path d="M9.0353 11.2599
L8.9749 11.1995
" />
<path d="M8.9749 11.1995
L9.0353 11.1390
" />
<path d="M9.0353 11.1390
L9.0353 11.2599
" />
<path d="M9.0353 10.4737
L9.0958 10.5342
" />
<path d="M9.0958 10.5342
L9.0353 10.5947
" />
<path d="M9.0353 10.5947
L8.9749 10.5342
" />
<path d="M8.9749 10.5342
L9.0353 10.4737
" />
<path d="M9.0353 10.4737
L9.0353 10.5947
" />
<path d="M10.5473 9.9295
L9.4587 11.5623
" />
<path d="M11.8778 9.9295
L10.7892 11.5623
" />
<path d="M12.1802 10.4133
L12.4221 11.2599
" />
<path d="M12.4221 11.2599
L12.6640 10.6552
" />
<path d="M12.6640 10.6552
L12.9059 11.2599
" />
<path d="M12.9059 11.2599
L13.1478 10.4133
" />
<path d="M13.5107 10.4133
L13.7526 11.2599
" />
<path d="M13.7526 11.2599
L13.9945 10.6552
" />
<path d="M13.9945 10.6552
L14.2364 11.2599
" />
<path d="M14.2364 11.2599
L14.4783 10.4133
" />
<path d="M14.8412 10.4133
L15.0831 11.2599
" />
<path d="M15.0831 11.2599
L15.3250 10.6552
" />
<path d="M15.3250 10.6552
L15.5669 11.2599
" />
<path d="M15.5669 11.2599
L15.8088 10.4133
" />
<path d="M16.2926 11.1390
L16.3531 11.1995
" />
<path d="M16.3531 11.1995
L16.2926 11.2599
" />
<path d="M16.2926 11.2599
L16.2322 11.1995
" />
<path d="M16.2322 11.1995
L16.2926 11.1390
" />
<path d="M16.2926 11.1390
L16.2926 11.2599
" />
<path d="M16.7160 10.4133
L17.1998 10.4133
" />
<path d="M16.8974 9.9899
L16.8974 11.0785
" />
<path d="M16.8974 11.0785
L16.9579 11.1995
" />
<path d="M16.9579 11.1995
L17.0789 11.2599
" />
<path d="M17.0789 11.2599
L17.1998 11.2599
" />
<path d="M17.6231 11.2599
L17.6231 10.4133
" />
<path d="M17.6231 9.9899
L17.5627 10.0504
" />
<path d="M17.5627 10.0504
L17.6231 10.1109
" />
<path d="M17.6231 10.1109
L17.6836 10.0504
" />
<path d="M17.6836 10.0504
L17.6231 9.9899
" />
<path d="M17.6231 9.9899
L17.6231 10.1109
" />
<path d="M18.2279 11.1390
L18.2884 11.1995
" />
<path d="M18.2884 11.1995
L18.2279 11.2599
" />
<path d="M18.2279 11.2599
L18.1675 11.1995
" />
<path d="M18.1675 11.1995
L18.2279 11.1390
" />
<path d="M18.2279 11.1390
L18.2279 11.2599
" />
<path d="M19.3770 11.1995
L19.2561 11.2599
" />
<path d="M19.2561 11.2599
L19.0142 11.2599
" />
<path d="M19.0142 11.2599
L18.8932 11.1995
" />
<path d="M18.8932 11.1995
L18.8327 11.1390
" />
<path d="M18.8327 11.1390
L18.7723 11.0180
" />
<path d="M18.7723 11.0180
L18.7723 10.6552
" />
<path d="M18.7723 10.6552
L18.8327 10.5342
" />
<path d="M18.8327 10.5342
L18.8932 10.4737
" />
<path d="M18.8932 10.4737
L19.0142 10.4133
" />
<path d="M19.0142 10.4133
L19.2561 10.4133
" />
<path d="M19.2561 10.4133
L19.3770 10.4737
" />
<path d="M20.1028 11.2599
L19.9818 11.1995
" />
<path d="M19.9818 11.1995
L19.9213 11.1390
" />
<path d="M19.9213 11.1390
L19.8609 11.0180
" />
<path d="M19.8609 11.0180
L19.8609 10.6552
" />
<path d="M19.8609 10.6552
L19.9213 10.5342
" />
<path d="M19.9213 10.5342
L19.9818 10.4737
" />
<path d="M19.9818 10.4737
L20.1028 10.4133
" />
<path d="M20.1028 10.4133
L20.2842 10.4133
" />
<path d="M20.2842 10.4133
L20.4051 10.4737
" />
<path d="M20.4051 10.4737
L20.4656 10.5342
" />
<path d="M20.4656 10.5342
L20.5261 10.6552
" />
<path d="M20.5261 10.6552
L20.5261 11.0180
" />
<path d="M20.5261 11.0180
L20.4656 11.1390
" />
<path d="M20.4656 11.1390
L20.4051 11.1995
" />
<path d="M20.4051 11.1995
L20.2842 11.2599
" />
<path d="M20.2842 11.2599
L20.1028 11.2599
" />
<path d="M21.0703 11.2599
L21.0703 10.4133
" />
<path d="M21.0703 10.5342
L21.1308 10.4737
" />
<path d="M21.1308 10.4737
L21.2518 10.4133
" />
<path d="M21.2518 10.4133
L21.4332 10.4133
" />
<path d="M21.4332 10.4133
L21.5541 10.4737
" />
<path d="M21.5541 10.4737
L21.6146 10.5947
" />
<path d="M21.6146 10.5947
L21.6146 11.2599
" />
<path d="M21.6146 10.5947
L21.6751 10.4737
" />
<path d="M21.6751 10.4737
L21.7960 10.4133
" />
<path d="M21.7960 10.4133
L21.9775 10.4133
" />
<path d="M21.9775 10.4133
L22.0984 10.4737
" />
<path d="M22.0984 10.4737
L22.1589 10.5947
" />
<path d="M22.1589 10.5947
L22.1589 11.2599
" />
<path d="M23.6708 9.9295
L22.5822 11.5623
" />
<path d="M24.2756 11.2599
L24.1546 11.1995
" />
<path d="M24.1546 11.1995
L24.0941 11.0785
" />
<path d="M24.0941 11.0785
L24.0941 9.9899
" />
<path d="M24.7593 11.2599
L24.7593 10.4133
" />
<path d="M24.7593 9.9899
L24.6989 10.0504
" />
<path d="M24.6989 10.0504
L24.7593 10.1109
" />
<path d="M24.7593 10.1109
L24.8198 10.0504
" />
<path d="M24.8198 10.0504
L24.7593 9.9899
" />
<path d="M24.7593 9.9899
L24.7593 10.1109
" />
<path d="M25.1827 10.4133
L25.6665 10.4133
" />
<path d="M25.3641 9.9899
L25.3641 11.0785
" />
<path d="M25.3641 11.0785
L25.4246 11.1995
" />
<path d="M25.4246 11.1995
L25.5456 11.2599
" />
<path d="M25.5456 11.2599
L25.6665 11.2599
" />
<path d="M26.9970 9.9295
L25.9084 11.5623
" />
<path d="M27.9646 11.2599
L27.9646 9.9899
" />
<path d="M27.9646 11.1995
L27.8437 11.2599
" />
<path d="M27.8437 11.2599
L27.6018 11.2599
" />
<path d="M27.6018 11.2599
L27.4808 11.1995
" />
<path d="M27.4808 11.1995
L27.4203 11.1390
" />
<path d="M27.4203 11.1390
L27.3599 11.0180
" />
<path d="M27.3599 11.0180
L27.3599 10.6552
" />
<path d="M27.3599 10.6552
L27.4203 10.5342
" />
<path d="M27.4203 10.5342
L27.4808 10.4737
" />
<path d="M27.4808 10.4737
L27.6018 10.4133
" />
<path d="M27.6018 10.4133
L27.8437 10.4133
" />
<path d="M27.8437 10.4133
L27.9646 10.4737
" />
<path d="M28.5089 11.1995
L28.6298 11.2599
" />
<path d="M28.6298 11.2599
L28.8717 11.2599
" />
<path d="M28.8717 11.2599
L28.9927 11.1995
" />
<path d="M28.9927 11.1995
L29.0531 11.0785
" />
<path d="M29.0531 11.0785
L29.0531 11.0180
" />
<path d="M29.0531 11.0180
L28.9927 10.8971
" />
<path d="M28.9927 10.8971
L28.8717 10.8366
" />
<path d="M28.8717 10.8366
L28.6903 10.8366
" />
<path d="M28.6903 10.8366
L28.5693 10.7761
" />
<path d="M28.5693 10.7761
L28.5089 10.6552
" />
<path d="M28.5089 10.6552
L28.5089 10.5947
" />
<path d="M28.5089 10.5947
L28.5693 10.4737
" />
<path d="M28.5693 10.4737
L28.6903 10.4133
" />
<path d="M28.6903 10.4133
L28.8717 10.4133
" />
<path d="M28.8717 10.4133
L28.9927 10.4737
" />
<path d="M30.5046 9.9295
L29.4160 11.5623
" />
<path d="M30.8675 11.1995
L30.9884 11.2599
" />
<path d="M30.9884 11.2599
L31.2303 11.2599
" />
<path d="M31.2303 11.2599
L31.3513 11.1995
" />
<path d="M31.3513 11.1995
L31.4117 11.0785
" />
<path d="M31.4117 11.0785
L31.4117 11.0180
" />
<path d="M31.4117 11.0180
L31.3513 10.8971
" />
<path d="M31.3513 10.8971
L31.2303 10.8366
" />
<path d="M31.2303 10.8366
L31.0489 10.8366
" />
<path d="M31.0489 10.8366
L30.9279 10.7761
" />
<path d="M30.9279 10.7761
L30.8675 10.6552
" />
<path d="M30.8675 10.6552
L30.8675 10.5947
" />
<path d="M30.8675 10.5947
L30.9279 10.4737
" />
<path d="M30.9279 10.4737
L31.0489 10.4133
" />
<path d="M31.0489 10.4133
L31.2303 10.4133
" />
<path d="M31.2303 10.4133
L31.3513 10.4737
" />
<path d="M31.9560 10.4133
L31.9560 11.2599
" />
<path d="M31.9560 10.5342
L32.0165 10.4737
" />
<path d="M32.0165 10.4737
L32.1375 10.4133
" />
<path d="M32.1375 10.4133
L32.3189 10.4133
" />
<path d="M32.3189 10.4133
L32.4398 10.4737
" />
<path d="M32.4398 10.4737
L32.5003 10.5947
" />
<path d="M32.5003 10.5947
L32.5003 11.2599
" />
<path d="M32.9841 10.4133
L33.2865 11.2599
" />
<path d="M33.2865 11.2599
L33.5888 10.4133
" />
<path d="M34.0122 11.1995
L34.1331 11.2599
" />
<path d="M34.1331 11.2599
L34.3750 11.2599
" />
<path d="M34.3750 11.2599
L34.4960 11.1995
" />
<path d="M34.4960 11.1995
L34.5564 11.0785
" />
<path d="M34.5564 11.0785
L34.5564 11.0180
" />
<path d="M34.5564 11.0180
L34.4960 10.8971
" />
<path d="M34.4960 10.8971
L34.3750 10.8366
" />
<path d="M34.3750 10.8366
L34.1936 10.8366
" />
<path d="M34.1936 10.8366
L34.0726 10.7761
" />
<path d="M34.0726 10.7761
L34.0122 10.6552
" />
<path d="M34.0122 10.6552
L34.0122 10.5947
" />
<path d="M34.0122 10.5947
L34.0726 10.4737
" />
<path d="M34.0726 10.4737
L34.1936 10.4133
" />
<path d="M34.1936 10.4133
L34.3750 10.4133
" />
<path d="M34.3750 10.4133
L34.4960 10.4737
" />
<path d="M34.9798 9.9899
L35.8264 9.9899
" />
<path d="M35.8264 9.9899
L35.2822 11.2599
" />
<path d="M36.1893 9.9899
L37.0359 9.9899
" />
<path d="M37.0359 9.9899
L36.4917 11.2599
" />
<path d="M38.0640 10.4133
L38.0640 11.2599
" />
<path d="M37.7616 9.9295
L37.4593 10.8366
" />
<path d="M37.4593 10.8366
L38.2454 10.8366
" />
<path d="M38.7292 10.4133
L38.7292 11.2599
" />
<path d="M38.7292 10.5342
L38.7897 10.4737
" />
<path d="M38.7897 10.4737
L38.9107 10.4133
" />
<path d="M38.9107 10.4133
L39.0921 10.4133
" />
<path d="M39.0921 10.4133
L39.2130 10.4737
" />
<path d="M39.2130 10.4737
L39.2735 10.5947
" />
<path d="M39.2735 10.5947
L39.2735 11.2599
" />
<path d="M40.7854 9.9295
L39.6968 11.5623
" />
<path d="M41.1483 11.1995
L41.2692 11.2599
" />
<path d="M41.2692 11.2599
L41.5111 11.2599
" />
<path d="M41.5111 11.2599
L41.6321 11.1995
" />
<path d="M41.6321 11.1995
L41.6925 11.0785
" />
<path d="M41.6925 11.0785
L41.6925 11.0180
" />
<path d="M41.6925 11.0180
L41.6321 10.8971
" />
<path d="M41.6321 10.8971
L41.5111 10.8366
" />
<path d="M41.5111 10.8366
L41.3297 10.8366
" />
<path d="M41.3297 10.8366
L41.2087 10.7761
" />
<path d="M41.2087 10.7761
L41.1483 10.6552
" />
<path d="M41.1483 10.6552
L41.1483 10.5947
" />
<path d="M41.1483 10.5947
L41.2087 10.4737
" />
<path d="M41.2087 10.4737
L41.3297 10.4133
" />
<path d="M41.3297 10.4133
L41.5111 10.4133
" />
<path d="M41.5111 10.4133
L41.6321 10.4737
" />
<path d="M42.2368 10.4133
L42.2368 11.2599
" />
<path d="M42.2368 10.5342
L42.2973 10.4737
" />
<path d="M42.2973 10.4737
L42.4183 10.4133
" />
<path d="M42.4183 10.4133
L42.5997 10.4133
" />
<path d="M42.5997 10.4133
L42.7206 10.4737
" />
<path d="M42.7206 10.4737
L42.7811 10.5947
" />
<path d="M42.7811 10.5947
L42.7811 11.2599
" />
<path d="M43.2649 10.4133
L43.5673 11.2599
" />
<path d="M43.5673 11.2599
L43.8696 10.4133
" />
<path d="M44.2930 11.1995
L44.4139 11.2599
" />
<path d="M44.4139 11.2599
L44.6558 11.2599
" />
<path d="M44.6558 11.2599
L44.7768 11.1995
" />
<path d="M44.7768 11.1995
L44.8372 11.0785
" />
<path d="M44.8372 11.0785
L44.8372 11.0180
" />
<path d="M44.8372 11.0180
L44.7768 10.8971
" />
<path d="M44.7768 10.8971
L44.6558 10.8366
" />
<path d="M44.6558 10.8366
L44.4744 10.8366
" />
<path d="M44.4744 10.8366
L44.3534 10.7761
" />
<path d="M44.3534 10.7761
L44.2930 10.6552
" />
<path d="M44.2930 10.6552
L44.2930 10.5947
" />
<path d="M44.2930 10.5947
L44.3534 10.4737
" />
<path d="M44.3534 10.4737
L44.4744 10.4133
" />
<path d="M44.4744 10.4133
L44.6558 10.4133
" />
<path d="M44.6558 10.4133
L44.7768 10.4737
" />
<path d="M45.2606 9.9899
L46.1072 9.9899
" />
<path d="M46.1072 9.9899
L45.5630 11.2599
" />
<path d="M46.4701 9.9899
L47.3167 9.9899
" />
<path d="M47.3167 9.9899
L46.7725 11.2599
" />
<path d="M48.3448 10.4133
L48.3448 11.2599
" />
<path d="M48.0424 9.9295
L47.7401 10.8366
" />
<path d="M47.7401 10.8366
L48.5262 10.8366
" />
<path d="M49.0100 10.4133
L49.0100 11.2599
" />
<path d="M49.0100 10.5342
L49.0705 10.4737
" />
<path d="M49.0705 10.4737
L49.1915 10.4133
" />
<path d="M49.1915 10.4133
L49.3729 10.4133
" />
<path d="M49.3729 10.4133
L49.4938 10.4737
" />
<path d="M49.4938 10.4737
L49.5543 10.5947
" />
<path d="M49.5543 10.5947
L49.5543 11.2599
" />
<path d="M50.1590 11.1390
L50.2195 11.1995
" />
<path d="M50.2195 11.1995
L50.1590 11.2599
" />
<path d="M50.1590 11.2599
L50.0986 11.1995
" />
<path d="M50.0986 11.1995
L50.1590 11.1390
" />
<path d="M50.1590 11.1390
L50.1590 11.2599
" />
<path d="M50.7638 10.4133
L50.7638 11.6833
" />
<path d="M50.7638 10.4737
L50.8848 10.4133
" />
<path d="M50.8848 10.4133
L51.1267 10.4133
" />
<path d="M51.1267 10.4133
L51.2476 10.4737
" />
<path d="M51.2476 10.4737
L51.3081 10.5342
" />
<path d="M51.3081 10.5342
L51.3686 10.6552
" />
<path d="M51.3686 10.6552
L51.3686 11.0180
" />
<path d="M51.3686 11.0180
L51.3081 11.1390
" />
<path d="M51.3081 11.1390
L51.2476 11.1995
" />
<path d="M51.2476 11.1995
L51.1267 11.2599
" />
<path d="M51.1267 11.2599
L50.8848 11.2599
" />
<path d="M50.8848 11.2599
L50.7638 11.1995
" />
<path d="M52.4571 11.2599
L52.4571 9.9899
" />
<path d="M52.4571 11.1995
L52.3362 11.2599
" />
<path d="M52.3362 11.2599
L52.0943 11.2599
" />
<path d="M52.0943 11.2599
L51.9733 11.1995
" />
<path d="M51.9733 11.1995
L51.9128 11.1390
" />
<path d="M51.9128 11.1390
L51.8524 11.0180
" />
<path d="M51.8524 11.0180
L51.8524 10.6552
" />
<path d="M51.8524 10.6552
L51.9128 10.5342
" />
<path d="M51.9128 10.5342
L51.9733 10.4737
" />
<path d="M51.9733 10.4737
L52.0943 10.4133
" />
<path d="M52.0943 10.4133
L52.3362 10.4133
" />
<path d="M52.3362 10.4133
L52.4571 10.4737
" />
<path d="M52.8804 10.4133
L53.3642 10.4133
" />
<path d="M53.0618 11.2599
L53.0618 10.1714
" />
<path d="M53.0618 10.1714
L53.1223 10.0504
" />
<path d="M53.1223 10.0504
L53.2433 9.9899
" />
<path d="M53.2433 9.9899
L53.3642 9.9899
" />
</g></g> 
</svg>
