<?xml version="1.0" standalone="no"?>
 <!DOCTYPE svg PUBLIC "-//W3C//DTD SVG 1.1//EN" 
 "http://www.w3.org/Graphics/SVG/1.1/DTD/svg11.dtd"> 
<svg
  xmlns:svg="http://www.w3.org/2000/svg"
  xmlns="http://www.w3.org/2000/svg"
  xmlns:xlink="http://www.w3.org/1999/xlink"
  version="1.1"
  width="59.0804mm" height="56.0832mm" viewBox="0.0000 0.0000 59.0804 56.0832">
<title>SVG Image created as working.svg date 2023/08/17 17:03:58 </title>
  <desc>Image generated by Eeschema-SVG </desc>
<g style="fill:#000000; fill-opacity:1.0000;stroke:#000000; stroke-opacity:1.0000;
stroke-linecap:round; stroke-linejoin:round;"
 transform="translate(0 0) scale(1 1)">
</g>
<g style="fill:#840000; fill-opacity:0.0; 
stroke:#840000; stroke-width:0.0000; stroke-opacity:1; 
stroke-linecap:round; stroke-linejoin:round;">
</g>
<g style="fill:#FFFFC2; fill-opacity:0.0; 
stroke:#FFFFC2; stroke-width:0.0000; stroke-opacity:1; 
stroke-linecap:round; stroke-linejoin:round;">
</g>
<g style="fill:#FFFFC2; fill-opacity:1.0000; 
stroke:#FFFFC2; stroke-width:0.0000; stroke-opacity:1; 
stroke-linecap:round; stroke-linejoin:round;">
<rect x="20.758700" y="33.635700" width="15.240000" height="15.240000" rx="0.000000" />
</g>
<g style="fill:#840084; fill-opacity:1.0000; 
stroke:#840084; stroke-width:0.0000; stroke-opacity:1; 
stroke-linecap:round; stroke-linejoin:round;">
</g>
<g style="fill:#840000; fill-opacity:1.0000; 
stroke:#840000; stroke-width:0.0000; stroke-opacity:1; 
stroke-linecap:round; stroke-linejoin:round;">
</g>
<g style="fill:#840000; fill-opacity:0.0; 
stroke:#840000; stroke-width:0.2540; stroke-opacity:1; 
stroke-linecap:round; stroke-linejoin:round;">
<rect x="20.758700" y="33.635700" width="15.240000" height="15.240000" rx="0.000000" />
</g>
<g style="fill:#840000; fill-opacity:0.0; 
stroke:#840000; stroke-width:0.1524; stroke-opacity:1; 
stroke-linecap:round; stroke-linejoin:round;">
<path d="M35.9987 36.1757
L38.5387 36.1757
" />
</g>
<g style="fill:#006464; fill-opacity:0.0; 
stroke:#006464; stroke-width:0.1524; stroke-opacity:1; 
stroke-linecap:round; stroke-linejoin:round;">
<text x="35.4907" y="36.8107"
textLength="2.8641" font-size="1.6933" lengthAdjust="spacingAndGlyphs"
text-anchor="end" opacity="0">SW</text>
<g class="stroked-text"><desc>SW</desc>
<path d="M32.9715 36.6948
L33.1529 36.7552
" />
<path d="M33.1529 36.7552
L33.4553 36.7552
" />
<path d="M33.4553 36.7552
L33.5762 36.6948
" />
<path d="M33.5762 36.6948
L33.6367 36.6343
" />
<path d="M33.6367 36.6343
L33.6972 36.5133
" />
<path d="M33.6972 36.5133
L33.6972 36.3924
" />
<path d="M33.6972 36.3924
L33.6367 36.2714
" />
<path d="M33.6367 36.2714
L33.5762 36.2109
" />
<path d="M33.5762 36.2109
L33.4553 36.1505
" />
<path d="M33.4553 36.1505
L33.2134 36.0900
" />
<path d="M33.2134 36.0900
L33.0924 36.0295
" />
<path d="M33.0924 36.0295
L33.0319 35.9690
" />
<path d="M33.0319 35.9690
L32.9715 35.8481
" />
<path d="M32.9715 35.8481
L32.9715 35.7271
" />
<path d="M32.9715 35.7271
L33.0319 35.6062
" />
<path d="M33.0319 35.6062
L33.0924 35.5457
" />
<path d="M33.0924 35.5457
L33.2134 35.4852
" />
<path d="M33.2134 35.4852
L33.5157 35.4852
" />
<path d="M33.5157 35.4852
L33.6972 35.5457
" />
<path d="M34.1205 35.4852
L34.4229 36.7552
" />
<path d="M34.4229 36.7552
L34.6648 35.8481
" />
<path d="M34.6648 35.8481
L34.9067 36.7552
" />
<path d="M34.9067 36.7552
L35.2091 35.4852
" />
</g></g>
<g style="fill:#A90000; fill-opacity:0.0; 
stroke:#A90000; stroke-width:0.1524; stroke-opacity:1; 
stroke-linecap:round; stroke-linejoin:round;">
<text x="37.2687" y="35.9217"
textLength="1.4127" font-size="1.6933" lengthAdjust="spacingAndGlyphs"
text-anchor="middle" opacity="0">1</text>
<g class="stroked-text"><desc>1</desc>
<path d="M37.6316 35.7582
L36.9059 35.7582
" />
<path d="M37.2687 35.7582
L37.2687 34.4882
" />
<path d="M37.2687 34.4882
L37.1478 34.6697
" />
<path d="M37.1478 34.6697
L37.0268 34.7906
" />
<path d="M37.0268 34.7906
L36.9059 34.8511
" />
</g></g>
<g style="fill:#840000; fill-opacity:0.0; 
stroke:#840000; stroke-width:0.1524; stroke-opacity:1; 
stroke-linecap:round; stroke-linejoin:round;">
<path d="M20.7587 36.1757
L18.2187 36.1757
" />
</g>
<g style="fill:#006464; fill-opacity:0.0; 
stroke:#006464; stroke-width:0.1524; stroke-opacity:1; 
stroke-linecap:round; stroke-linejoin:round;">
<text x="21.2667" y="36.8107"
textLength="3.2271" font-size="1.6933" lengthAdjust="spacingAndGlyphs"
text-anchor="start" opacity="0">VIN</text>
<g class="stroked-text"><desc>VIN</desc>
<path d="M21.4878 35.4852
L21.9111 36.7552
" />
<path d="M21.9111 36.7552
L22.3345 35.4852
" />
<path d="M22.7578 36.7552
L22.7578 35.4852
" />
<path d="M23.3626 36.7552
L23.3626 35.4852
" />
<path d="M23.3626 35.4852
L24.0883 36.7552
" />
<path d="M24.0883 36.7552
L24.0883 35.4852
" />
</g></g>
<g style="fill:#A90000; fill-opacity:0.0; 
stroke:#A90000; stroke-width:0.1524; stroke-opacity:1; 
stroke-linecap:round; stroke-linejoin:round;">
<text x="19.4887" y="35.9217"
textLength="2.6222" font-size="1.6933" lengthAdjust="spacingAndGlyphs"
text-anchor="middle" opacity="0">10</text>
<g class="stroked-text"><desc>10</desc>
<path d="M19.2468 35.7582
L18.5211 35.7582
" />
<path d="M18.8839 35.7582
L18.8839 34.4882
" />
<path d="M18.8839 34.4882
L18.7630 34.6697
" />
<path d="M18.7630 34.6697
L18.6420 34.7906
" />
<path d="M18.6420 34.7906
L18.5211 34.8511
" />
<path d="M20.0329 34.4882
L20.1539 34.4882
" />
<path d="M20.1539 34.4882
L20.2748 34.5487
" />
<path d="M20.2748 34.5487
L20.3353 34.6092
" />
<path d="M20.3353 34.6092
L20.3958 34.7301
" />
<path d="M20.3958 34.7301
L20.4563 34.9720
" />
<path d="M20.4563 34.9720
L20.4563 35.2744
" />
<path d="M20.4563 35.2744
L20.3958 35.5163
" />
<path d="M20.3958 35.5163
L20.3353 35.6373
" />
<path d="M20.3353 35.6373
L20.2748 35.6978
" />
<path d="M20.2748 35.6978
L20.1539 35.7582
" />
<path d="M20.1539 35.7582
L20.0329 35.7582
" />
<path d="M20.0329 35.7582
L19.9120 35.6978
" />
<path d="M19.9120 35.6978
L19.8515 35.6373
" />
<path d="M19.8515 35.6373
L19.7910 35.5163
" />
<path d="M19.7910 35.5163
L19.7306 35.2744
" />
<path d="M19.7306 35.2744
L19.7306 34.9720
" />
<path d="M19.7306 34.9720
L19.7910 34.7301
" />
<path d="M19.7910 34.7301
L19.8515 34.6092
" />
<path d="M19.8515 34.6092
L19.9120 34.5487
" />
<path d="M19.9120 34.5487
L20.0329 34.4882
" />
</g></g>
<g style="fill:#840000; fill-opacity:0.0; 
stroke:#840000; stroke-width:0.1524; stroke-opacity:1; 
stroke-linecap:round; stroke-linejoin:round;">
<path d="M28.3787 48.8757
L28.3787 51.4157
" />
</g>
<g style="fill:#006464; fill-opacity:0.0; 
stroke:#006464; stroke-width:0.1524; stroke-opacity:1; 
stroke-linecap:round; stroke-linejoin:round;">
<g transform="rotate(-90.000000 28.3787 48.3677)">
<text x="28.3787" y="49.0027"
textLength="4.0737" font-size="1.6933" lengthAdjust="spacingAndGlyphs"
text-anchor="start" opacity="0">GND</text>
</g>
<g class="stroked-text"><desc>GND</desc>
<path d="M27.7487 47.2998
L27.6882 47.4208
" />
<path d="M27.6882 47.4208
L27.6882 47.6022
" />
<path d="M27.6882 47.6022
L27.7487 47.7836
" />
<path d="M27.7487 47.7836
L27.8697 47.9046
" />
<path d="M27.8697 47.9046
L27.9906 47.9651
" />
<path d="M27.9906 47.9651
L28.2325 48.0255
" />
<path d="M28.2325 48.0255
L28.4139 48.0255
" />
<path d="M28.4139 48.0255
L28.6558 47.9651
" />
<path d="M28.6558 47.9651
L28.7768 47.9046
" />
<path d="M28.7768 47.9046
L28.8978 47.7836
" />
<path d="M28.8978 47.7836
L28.9582 47.6022
" />
<path d="M28.9582 47.6022
L28.9582 47.4813
" />
<path d="M28.9582 47.4813
L28.8978 47.2998
" />
<path d="M28.8978 47.2998
L28.8373 47.2394
" />
<path d="M28.8373 47.2394
L28.4139 47.2394
" />
<path d="M28.4139 47.2394
L28.4139 47.4813
" />
<path d="M28.9582 46.6951
L27.6882 46.6951
" />
<path d="M27.6882 46.6951
L28.9582 45.9694
" />
<path d="M28.9582 45.9694
L27.6882 45.9694
" />
<path d="M28.9582 45.3646
L27.6882 45.3646
" />
<path d="M27.6882 45.3646
L27.6882 45.0622
" />
<path d="M27.6882 45.0622
L27.7487 44.8808
" />
<path d="M27.7487 44.8808
L27.8697 44.7598
" />
<path d="M27.8697 44.7598
L27.9906 44.6993
" />
<path d="M27.9906 44.6993
L28.2325 44.6389
" />
<path d="M28.2325 44.6389
L28.4139 44.6389
" />
<path d="M28.4139 44.6389
L28.6558 44.6993
" />
<path d="M28.6558 44.6993
L28.7768 44.7598
" />
<path d="M28.7768 44.7598
L28.8978 44.8808
" />
<path d="M28.8978 44.8808
L28.9582 45.0622
" />
<path d="M28.9582 45.0622
L28.9582 45.3646
" />
</g></g>
<g style="fill:#A90000; fill-opacity:0.0; 
stroke:#A90000; stroke-width:0.1524; stroke-opacity:1; 
stroke-linecap:round; stroke-linejoin:round;">
<g transform="rotate(-90.000000 28.1247 50.1457)">
<text x="28.1247" y="50.1457"
textLength="2.6222" font-size="1.6933" lengthAdjust="spacingAndGlyphs"
text-anchor="middle" opacity="0">11</text>
</g>
<g class="stroked-text"><desc>11</desc>
<path d="M27.9612 50.3875
L27.9612 51.1132
" />
<path d="M27.9612 50.7504
L26.6912 50.7504
" />
<path d="M26.6912 50.7504
L26.8727 50.8713
" />
<path d="M26.8727 50.8713
L26.9936 50.9923
" />
<path d="M26.9936 50.9923
L27.0541 51.1132
" />
<path d="M27.9612 49.1780
L27.9612 49.9037
" />
<path d="M27.9612 49.5409
L26.6912 49.5409
" />
<path d="M26.6912 49.5409
L26.8727 49.6618
" />
<path d="M26.8727 49.6618
L26.9936 49.7828
" />
<path d="M26.9936 49.7828
L27.0541 49.9037
" />
</g></g>
<g style="fill:#840000; fill-opacity:0.0; 
stroke:#840000; stroke-width:0.1524; stroke-opacity:1; 
stroke-linecap:round; stroke-linejoin:round;">
<path d="M35.9987 38.7157
L38.5387 38.7157
" />
</g>
<g style="fill:#006464; fill-opacity:0.0; 
stroke:#006464; stroke-width:0.1524; stroke-opacity:1; 
stroke-linecap:round; stroke-linejoin:round;">
<text x="35.4907" y="39.3507"
textLength="4.9204" font-size="1.6933" lengthAdjust="spacingAndGlyphs"
text-anchor="end" opacity="0">VOUT</text>
<g class="stroked-text"><desc>VOUT</desc>
<path d="M30.7942 38.0252
L31.2175 39.2952
" />
<path d="M31.2175 39.2952
L31.6409 38.0252
" />
<path d="M32.3061 38.0252
L32.5480 38.0252
" />
<path d="M32.5480 38.0252
L32.6690 38.0857
" />
<path d="M32.6690 38.0857
L32.7899 38.2067
" />
<path d="M32.7899 38.2067
L32.8504 38.4486
" />
<path d="M32.8504 38.4486
L32.8504 38.8719
" />
<path d="M32.8504 38.8719
L32.7899 39.1138
" />
<path d="M32.7899 39.1138
L32.6690 39.2348
" />
<path d="M32.6690 39.2348
L32.5480 39.2952
" />
<path d="M32.5480 39.2952
L32.3061 39.2952
" />
<path d="M32.3061 39.2952
L32.1852 39.2348
" />
<path d="M32.1852 39.2348
L32.0642 39.1138
" />
<path d="M32.0642 39.1138
L32.0038 38.8719
" />
<path d="M32.0038 38.8719
L32.0038 38.4486
" />
<path d="M32.0038 38.4486
L32.0642 38.2067
" />
<path d="M32.0642 38.2067
L32.1852 38.0857
" />
<path d="M32.1852 38.0857
L32.3061 38.0252
" />
<path d="M33.3947 38.0252
L33.3947 39.0533
" />
<path d="M33.3947 39.0533
L33.4552 39.1743
" />
<path d="M33.4552 39.1743
L33.5157 39.2348
" />
<path d="M33.5157 39.2348
L33.6366 39.2952
" />
<path d="M33.6366 39.2952
L33.8785 39.2952
" />
<path d="M33.8785 39.2952
L33.9995 39.2348
" />
<path d="M33.9995 39.2348
L34.0600 39.1743
" />
<path d="M34.0600 39.1743
L34.1204 39.0533
" />
<path d="M34.1204 39.0533
L34.1204 38.0252
" />
<path d="M34.5438 38.0252
L35.2695 38.0252
" />
<path d="M34.9067 39.2952
L34.9067 38.0252
" />
</g></g>
<g style="fill:#A90000; fill-opacity:0.0; 
stroke:#A90000; stroke-width:0.1524; stroke-opacity:1; 
stroke-linecap:round; stroke-linejoin:round;">
<text x="37.2687" y="38.4617"
textLength="1.4127" font-size="1.6933" lengthAdjust="spacingAndGlyphs"
text-anchor="middle" opacity="0">3</text>
<g class="stroked-text"><desc>3</desc>
<path d="M36.8454 37.0282
L37.6316 37.0282
" />
<path d="M37.6316 37.0282
L37.2082 37.5120
" />
<path d="M37.2082 37.5120
L37.3897 37.5120
" />
<path d="M37.3897 37.5120
L37.5106 37.5725
" />
<path d="M37.5106 37.5725
L37.5711 37.6330
" />
<path d="M37.5711 37.6330
L37.6316 37.7539
" />
<path d="M37.6316 37.7539
L37.6316 38.0563
" />
<path d="M37.6316 38.0563
L37.5711 38.1773
" />
<path d="M37.5711 38.1773
L37.5106 38.2378
" />
<path d="M37.5106 38.2378
L37.3897 38.2982
" />
<path d="M37.3897 38.2982
L37.0268 38.2982
" />
<path d="M37.0268 38.2982
L36.9059 38.2378
" />
<path d="M36.9059 38.2378
L36.8454 38.1773
" />
</g></g>
<g style="fill:#840000; fill-opacity:0.0; 
stroke:#840000; stroke-width:0.1524; stroke-opacity:1; 
stroke-linecap:round; stroke-linejoin:round;">
<path d="M35.9987 46.3357
L38.5387 46.3357
" />
</g>
<g style="fill:#006464; fill-opacity:0.0; 
stroke:#006464; stroke-width:0.1524; stroke-opacity:1; 
stroke-linecap:round; stroke-linejoin:round;">
<text x="35.4907" y="46.9707"
textLength="2.7432" font-size="1.6933" lengthAdjust="spacingAndGlyphs"
text-anchor="end" opacity="0">PG</text>
<g class="stroked-text"><desc>PG</desc>
<path d="M33.1528 46.9152
L33.1528 45.6452
" />
<path d="M33.1528 45.6452
L33.6366 45.6452
" />
<path d="M33.6366 45.6452
L33.7576 45.7057
" />
<path d="M33.7576 45.7057
L33.8181 45.7662
" />
<path d="M33.8181 45.7662
L33.8785 45.8871
" />
<path d="M33.8785 45.8871
L33.8785 46.0686
" />
<path d="M33.8785 46.0686
L33.8181 46.1895
" />
<path d="M33.8181 46.1895
L33.7576 46.2500
" />
<path d="M33.7576 46.2500
L33.6366 46.3105
" />
<path d="M33.6366 46.3105
L33.1528 46.3105
" />
<path d="M35.0881 45.7057
L34.9671 45.6452
" />
<path d="M34.9671 45.6452
L34.7857 45.6452
" />
<path d="M34.7857 45.6452
L34.6043 45.7057
" />
<path d="M34.6043 45.7057
L34.4833 45.8267
" />
<path d="M34.4833 45.8267
L34.4228 45.9476
" />
<path d="M34.4228 45.9476
L34.3624 46.1895
" />
<path d="M34.3624 46.1895
L34.3624 46.3709
" />
<path d="M34.3624 46.3709
L34.4228 46.6128
" />
<path d="M34.4228 46.6128
L34.4833 46.7338
" />
<path d="M34.4833 46.7338
L34.6043 46.8548
" />
<path d="M34.6043 46.8548
L34.7857 46.9152
" />
<path d="M34.7857 46.9152
L34.9066 46.9152
" />
<path d="M34.9066 46.9152
L35.0881 46.8548
" />
<path d="M35.0881 46.8548
L35.1485 46.7943
" />
<path d="M35.1485 46.7943
L35.1485 46.3709
" />
<path d="M35.1485 46.3709
L34.9066 46.3709
" />
</g></g>
<g style="fill:#A90000; fill-opacity:0.0; 
stroke:#A90000; stroke-width:0.1524; stroke-opacity:1; 
stroke-linecap:round; stroke-linejoin:round;">
<text x="37.2687" y="46.0817"
textLength="1.4127" font-size="1.6933" lengthAdjust="spacingAndGlyphs"
text-anchor="middle" opacity="0">5</text>
<g class="stroked-text"><desc>5</desc>
<path d="M37.5711 44.6482
L36.9663 44.6482
" />
<path d="M36.9663 44.6482
L36.9059 45.2530
" />
<path d="M36.9059 45.2530
L36.9663 45.1925
" />
<path d="M36.9663 45.1925
L37.0873 45.1320
" />
<path d="M37.0873 45.1320
L37.3897 45.1320
" />
<path d="M37.3897 45.1320
L37.5106 45.1925
" />
<path d="M37.5106 45.1925
L37.5711 45.2530
" />
<path d="M37.5711 45.2530
L37.6316 45.3739
" />
<path d="M37.6316 45.3739
L37.6316 45.6763
" />
<path d="M37.6316 45.6763
L37.5711 45.7973
" />
<path d="M37.5711 45.7973
L37.5106 45.8578
" />
<path d="M37.5106 45.8578
L37.3897 45.9182
" />
<path d="M37.3897 45.9182
L37.0873 45.9182
" />
<path d="M37.0873 45.9182
L36.9663 45.8578
" />
<path d="M36.9663 45.8578
L36.9059 45.7973
" />
</g></g>
<g style="fill:#840000; fill-opacity:0.0; 
stroke:#840000; stroke-width:0.1524; stroke-opacity:1; 
stroke-linecap:round; stroke-linejoin:round;">
<path d="M20.7587 46.3357
L18.2187 46.3357
" />
</g>
<g style="fill:#006464; fill-opacity:0.0; 
stroke:#006464; stroke-width:0.1524; stroke-opacity:1; 
stroke-linecap:round; stroke-linejoin:round;">
<text x="21.2667" y="46.9707"
textLength="2.6222" font-size="1.6933" lengthAdjust="spacingAndGlyphs"
text-anchor="start" opacity="0">SS</text>
<g class="stroked-text"><desc>SS</desc>
<path d="M21.6088 46.8548
L21.7902 46.9152
" />
<path d="M21.7902 46.9152
L22.0926 46.9152
" />
<path d="M22.0926 46.9152
L22.2135 46.8548
" />
<path d="M22.2135 46.8548
L22.2740 46.7943
" />
<path d="M22.2740 46.7943
L22.3345 46.6733
" />
<path d="M22.3345 46.6733
L22.3345 46.5524
" />
<path d="M22.3345 46.5524
L22.2740 46.4314
" />
<path d="M22.2740 46.4314
L22.2135 46.3709
" />
<path d="M22.2135 46.3709
L22.0926 46.3105
" />
<path d="M22.0926 46.3105
L21.8507 46.2500
" />
<path d="M21.8507 46.2500
L21.7297 46.1895
" />
<path d="M21.7297 46.1895
L21.6692 46.1290
" />
<path d="M21.6692 46.1290
L21.6088 46.0081
" />
<path d="M21.6088 46.0081
L21.6088 45.8871
" />
<path d="M21.6088 45.8871
L21.6692 45.7662
" />
<path d="M21.6692 45.7662
L21.7297 45.7057
" />
<path d="M21.7297 45.7057
L21.8507 45.6452
" />
<path d="M21.8507 45.6452
L22.1530 45.6452
" />
<path d="M22.1530 45.6452
L22.3345 45.7057
" />
<path d="M22.8183 46.8548
L22.9997 46.9152
" />
<path d="M22.9997 46.9152
L23.3021 46.9152
" />
<path d="M23.3021 46.9152
L23.4230 46.8548
" />
<path d="M23.4230 46.8548
L23.4835 46.7943
" />
<path d="M23.4835 46.7943
L23.5440 46.6733
" />
<path d="M23.5440 46.6733
L23.5440 46.5524
" />
<path d="M23.5440 46.5524
L23.4835 46.4314
" />
<path d="M23.4835 46.4314
L23.4230 46.3709
" />
<path d="M23.4230 46.3709
L23.3021 46.3105
" />
<path d="M23.3021 46.3105
L23.0602 46.2500
" />
<path d="M23.0602 46.2500
L22.9392 46.1895
" />
<path d="M22.9392 46.1895
L22.8787 46.1290
" />
<path d="M22.8787 46.1290
L22.8183 46.0081
" />
<path d="M22.8183 46.0081
L22.8183 45.8871
" />
<path d="M22.8183 45.8871
L22.8787 45.7662
" />
<path d="M22.8787 45.7662
L22.9392 45.7057
" />
<path d="M22.9392 45.7057
L23.0602 45.6452
" />
<path d="M23.0602 45.6452
L23.3625 45.6452
" />
<path d="M23.3625 45.6452
L23.5440 45.7057
" />
</g></g>
<g style="fill:#A90000; fill-opacity:0.0; 
stroke:#A90000; stroke-width:0.1524; stroke-opacity:1; 
stroke-linecap:round; stroke-linejoin:round;">
<text x="19.4887" y="46.0817"
textLength="1.4127" font-size="1.6933" lengthAdjust="spacingAndGlyphs"
text-anchor="middle" opacity="0">6</text>
<g class="stroked-text"><desc>6</desc>
<path d="M19.7306 44.6482
L19.4887 44.6482
" />
<path d="M19.4887 44.6482
L19.3678 44.7087
" />
<path d="M19.3678 44.7087
L19.3073 44.7692
" />
<path d="M19.3073 44.7692
L19.1863 44.9506
" />
<path d="M19.1863 44.9506
L19.1259 45.1925
" />
<path d="M19.1259 45.1925
L19.1259 45.6763
" />
<path d="M19.1259 45.6763
L19.1863 45.7973
" />
<path d="M19.1863 45.7973
L19.2468 45.8578
" />
<path d="M19.2468 45.8578
L19.3678 45.9182
" />
<path d="M19.3678 45.9182
L19.6097 45.9182
" />
<path d="M19.6097 45.9182
L19.7306 45.8578
" />
<path d="M19.7306 45.8578
L19.7911 45.7973
" />
<path d="M19.7911 45.7973
L19.8516 45.6763
" />
<path d="M19.8516 45.6763
L19.8516 45.3739
" />
<path d="M19.8516 45.3739
L19.7911 45.2530
" />
<path d="M19.7911 45.2530
L19.7306 45.1925
" />
<path d="M19.7306 45.1925
L19.6097 45.1320
" />
<path d="M19.6097 45.1320
L19.3678 45.1320
" />
<path d="M19.3678 45.1320
L19.2468 45.1925
" />
<path d="M19.2468 45.1925
L19.1863 45.2530
" />
<path d="M19.1863 45.2530
L19.1259 45.3739
" />
</g></g>
<g style="fill:#840000; fill-opacity:0.0; 
stroke:#840000; stroke-width:0.1524; stroke-opacity:1; 
stroke-linecap:round; stroke-linejoin:round;">
<path d="M35.9987 41.2557
L38.5387 41.2557
" />
</g>
<g style="fill:#006464; fill-opacity:0.0; 
stroke:#006464; stroke-width:0.1524; stroke-opacity:1; 
stroke-linecap:round; stroke-linejoin:round;">
<text x="35.4907" y="41.8907"
textLength="2.5618" font-size="1.6933" lengthAdjust="spacingAndGlyphs"
text-anchor="end" opacity="0">FB</text>
<g class="stroked-text"><desc>FB</desc>
<path d="M33.7576 41.1700
L33.3342 41.1700
" />
<path d="M33.3342 41.8352
L33.3342 40.5652
" />
<path d="M33.3342 40.5652
L33.9390 40.5652
" />
<path d="M34.8462 41.1700
L35.0276 41.2305
" />
<path d="M35.0276 41.2305
L35.0881 41.2909
" />
<path d="M35.0881 41.2909
L35.1485 41.4119
" />
<path d="M35.1485 41.4119
L35.1485 41.5933
" />
<path d="M35.1485 41.5933
L35.0881 41.7143
" />
<path d="M35.0881 41.7143
L35.0276 41.7748
" />
<path d="M35.0276 41.7748
L34.9066 41.8352
" />
<path d="M34.9066 41.8352
L34.4228 41.8352
" />
<path d="M34.4228 41.8352
L34.4228 40.5652
" />
<path d="M34.4228 40.5652
L34.8462 40.5652
" />
<path d="M34.8462 40.5652
L34.9671 40.6257
" />
<path d="M34.9671 40.6257
L35.0276 40.6862
" />
<path d="M35.0276 40.6862
L35.0881 40.8071
" />
<path d="M35.0881 40.8071
L35.0881 40.9281
" />
<path d="M35.0881 40.9281
L35.0276 41.0490
" />
<path d="M35.0276 41.0490
L34.9671 41.1095
" />
<path d="M34.9671 41.1095
L34.8462 41.1700
" />
<path d="M34.8462 41.1700
L34.4228 41.1700
" />
</g></g>
<g style="fill:#A90000; fill-opacity:0.0; 
stroke:#A90000; stroke-width:0.1524; stroke-opacity:1; 
stroke-linecap:round; stroke-linejoin:round;">
<text x="37.2687" y="41.0017"
textLength="1.4127" font-size="1.6933" lengthAdjust="spacingAndGlyphs"
text-anchor="middle" opacity="0">7</text>
<g class="stroked-text"><desc>7</desc>
<path d="M36.8454 39.5682
L37.6920 39.5682
" />
<path d="M37.6920 39.5682
L37.1478 40.8382
" />
</g></g>
<g style="fill:#840000; fill-opacity:0.0; 
stroke:#840000; stroke-width:0.1524; stroke-opacity:1; 
stroke-linecap:round; stroke-linejoin:round;">
<path d="M20.7587 41.2557
L18.2187 41.2557
" />
</g>
<g style="fill:#006464; fill-opacity:0.0; 
stroke:#006464; stroke-width:0.1524; stroke-opacity:1; 
stroke-linecap:round; stroke-linejoin:round;">
<text x="21.2667" y="41.8907"
textLength="3.8318" font-size="1.6933" lengthAdjust="spacingAndGlyphs"
text-anchor="start" opacity="0">HYS</text>
<g class="stroked-text"><desc>HYS</desc>
<path d="M21.6692 41.8352
L21.6692 40.5652
" />
<path d="M21.6692 41.1700
L22.3949 41.1700
" />
<path d="M22.3949 41.8352
L22.3949 40.5652
" />
<path d="M23.2416 41.2305
L23.2416 41.8352
" />
<path d="M22.8183 40.5652
L23.2416 41.2305
" />
<path d="M23.2416 41.2305
L23.6650 40.5652
" />
<path d="M24.0279 41.7748
L24.2093 41.8352
" />
<path d="M24.2093 41.8352
L24.5117 41.8352
" />
<path d="M24.5117 41.8352
L24.6326 41.7748
" />
<path d="M24.6326 41.7748
L24.6931 41.7143
" />
<path d="M24.6931 41.7143
L24.7536 41.5933
" />
<path d="M24.7536 41.5933
L24.7536 41.4724
" />
<path d="M24.7536 41.4724
L24.6931 41.3514
" />
<path d="M24.6931 41.3514
L24.6326 41.2909
" />
<path d="M24.6326 41.2909
L24.5117 41.2305
" />
<path d="M24.5117 41.2305
L24.2698 41.1700
" />
<path d="M24.2698 41.1700
L24.1488 41.1095
" />
<path d="M24.1488 41.1095
L24.0883 41.0490
" />
<path d="M24.0883 41.0490
L24.0279 40.9281
" />
<path d="M24.0279 40.9281
L24.0279 40.8071
" />
<path d="M24.0279 40.8071
L24.0883 40.6862
" />
<path d="M24.0883 40.6862
L24.1488 40.6257
" />
<path d="M24.1488 40.6257
L24.2698 40.5652
" />
<path d="M24.2698 40.5652
L24.5721 40.5652
" />
<path d="M24.5721 40.5652
L24.7536 40.6257
" />
</g></g>
<g style="fill:#A90000; fill-opacity:0.0; 
stroke:#A90000; stroke-width:0.1524; stroke-opacity:1; 
stroke-linecap:round; stroke-linejoin:round;">
<text x="19.4887" y="41.0017"
textLength="1.4127" font-size="1.6933" lengthAdjust="spacingAndGlyphs"
text-anchor="middle" opacity="0">8</text>
<g class="stroked-text"><desc>8</desc>
<path d="M19.3678 40.1125
L19.2468 40.0520
" />
<path d="M19.2468 40.0520
L19.1863 39.9916
" />
<path d="M19.1863 39.9916
L19.1259 39.8706
" />
<path d="M19.1259 39.8706
L19.1259 39.8101
" />
<path d="M19.1259 39.8101
L19.1863 39.6892
" />
<path d="M19.1863 39.6892
L19.2468 39.6287
" />
<path d="M19.2468 39.6287
L19.3678 39.5682
" />
<path d="M19.3678 39.5682
L19.6097 39.5682
" />
<path d="M19.6097 39.5682
L19.7306 39.6287
" />
<path d="M19.7306 39.6287
L19.7911 39.6892
" />
<path d="M19.7911 39.6892
L19.8516 39.8101
" />
<path d="M19.8516 39.8101
L19.8516 39.8706
" />
<path d="M19.8516 39.8706
L19.7911 39.9916
" />
<path d="M19.7911 39.9916
L19.7306 40.0520
" />
<path d="M19.7306 40.0520
L19.6097 40.1125
" />
<path d="M19.6097 40.1125
L19.3678 40.1125
" />
<path d="M19.3678 40.1125
L19.2468 40.1730
" />
<path d="M19.2468 40.1730
L19.1863 40.2335
" />
<path d="M19.1863 40.2335
L19.1259 40.3544
" />
<path d="M19.1259 40.3544
L19.1259 40.5963
" />
<path d="M19.1259 40.5963
L19.1863 40.7173
" />
<path d="M19.1863 40.7173
L19.2468 40.7778
" />
<path d="M19.2468 40.7778
L19.3678 40.8382
" />
<path d="M19.3678 40.8382
L19.6097 40.8382
" />
<path d="M19.6097 40.8382
L19.7306 40.7778
" />
<path d="M19.7306 40.7778
L19.7911 40.7173
" />
<path d="M19.7911 40.7173
L19.8516 40.5963
" />
<path d="M19.8516 40.5963
L19.8516 40.3544
" />
<path d="M19.8516 40.3544
L19.7911 40.2335
" />
<path d="M19.7911 40.2335
L19.7306 40.1730
" />
<path d="M19.7306 40.1730
L19.6097 40.1125
" />
</g></g>
<g style="fill:#840000; fill-opacity:0.0; 
stroke:#840000; stroke-width:0.1524; stroke-opacity:1; 
stroke-linecap:round; stroke-linejoin:round;">
<path d="M20.7587 38.7157
L18.2187 38.7157
" />
</g>
<g style="fill:#006464; fill-opacity:0.0; 
stroke:#006464; stroke-width:0.1524; stroke-opacity:1; 
stroke-linecap:round; stroke-linejoin:round;">
<text x="21.2667" y="39.3507"
textLength="2.6827" font-size="1.6933" lengthAdjust="spacingAndGlyphs"
text-anchor="start" opacity="0">EN</text>
<g class="stroked-text"><desc>EN</desc>
<path d="M21.6692 38.6300
L22.0926 38.6300
" />
<path d="M22.2740 39.2952
L21.6692 39.2952
" />
<path d="M21.6692 39.2952
L21.6692 38.0252
" />
<path d="M21.6692 38.0252
L22.2740 38.0252
" />
<path d="M22.8182 39.2952
L22.8182 38.0252
" />
<path d="M22.8182 38.0252
L23.5439 39.2952
" />
<path d="M23.5439 39.2952
L23.5439 38.0252
" />
</g></g>
<g style="fill:#A90000; fill-opacity:0.0; 
stroke:#A90000; stroke-width:0.1524; stroke-opacity:1; 
stroke-linecap:round; stroke-linejoin:round;">
<text x="19.4887" y="38.4617"
textLength="1.4127" font-size="1.6933" lengthAdjust="spacingAndGlyphs"
text-anchor="middle" opacity="0">9</text>
<g class="stroked-text"><desc>9</desc>
<path d="M19.2468 38.2982
L19.4887 38.2982
" />
<path d="M19.4887 38.2982
L19.6097 38.2378
" />
<path d="M19.6097 38.2378
L19.6701 38.1773
" />
<path d="M19.6701 38.1773
L19.7911 37.9958
" />
<path d="M19.7911 37.9958
L19.8516 37.7539
" />
<path d="M19.8516 37.7539
L19.8516 37.2701
" />
<path d="M19.8516 37.2701
L19.7911 37.1492
" />
<path d="M19.7911 37.1492
L19.7306 37.0887
" />
<path d="M19.7306 37.0887
L19.6097 37.0282
" />
<path d="M19.6097 37.0282
L19.3678 37.0282
" />
<path d="M19.3678 37.0282
L19.2468 37.0887
" />
<path d="M19.2468 37.0887
L19.1863 37.1492
" />
<path d="M19.1863 37.1492
L19.1259 37.2701
" />
<path d="M19.1259 37.2701
L19.1259 37.5725
" />
<path d="M19.1259 37.5725
L19.1863 37.6935
" />
<path d="M19.1863 37.6935
L19.2468 37.7539
" />
<path d="M19.2468 37.7539
L19.3678 37.8144
" />
<path d="M19.3678 37.8144
L19.6097 37.8144
" />
<path d="M19.6097 37.8144
L19.7306 37.7539
" />
<path d="M19.7306 37.7539
L19.7911 37.6935
" />
<path d="M19.7911 37.6935
L19.8516 37.5725
" />
</g></g>
<g style="fill:#840084; fill-opacity:0.0; 
stroke:#840084; stroke-width:0.1524; stroke-opacity:1; 
stroke-linecap:round; stroke-linejoin:round;">
</g>
<g style="fill:#006464; fill-opacity:0.0; 
stroke:#006464; stroke-width:0.1524; stroke-opacity:1; 
stroke-linecap:round; stroke-linejoin:round;">
</g>
<g style="fill:#006464; fill-opacity:0.0; 
stroke:#006464; stroke-width:0.1588; stroke-opacity:1; 
stroke-linecap:round; stroke-linejoin:round;">
<text x="22.0794" y="31.1855"
textLength="2.6415" font-size="1.6933" lengthAdjust="spacingAndGlyphs"
text-anchor="middle" opacity="0">U?</text>
<g class="stroked-text"><desc>U?</desc>
<path d="M21.1722 29.8597
L21.1722 30.8878
" />
<path d="M21.1722 30.8878
L21.2327 31.0088
" />
<path d="M21.2327 31.0088
L21.2932 31.0693
" />
<path d="M21.2932 31.0693
L21.4141 31.1297
" />
<path d="M21.4141 31.1297
L21.6560 31.1297
" />
<path d="M21.6560 31.1297
L21.7770 31.0693
" />
<path d="M21.7770 31.0693
L21.8375 31.0088
" />
<path d="M21.8375 31.0088
L21.8979 30.8878
" />
<path d="M21.8979 30.8878
L21.8979 29.8597
" />
<path d="M22.6842 31.0088
L22.7446 31.0693
" />
<path d="M22.7446 31.0693
L22.6842 31.1297
" />
<path d="M22.6842 31.1297
L22.6237 31.0693
" />
<path d="M22.6237 31.0693
L22.6842 31.0088
" />
<path d="M22.6842 31.0088
L22.6842 31.1297
" />
<path d="M22.4423 29.9202
L22.5632 29.8597
" />
<path d="M22.5632 29.8597
L22.8656 29.8597
" />
<path d="M22.8656 29.8597
L22.9865 29.9202
" />
<path d="M22.9865 29.9202
L23.0470 30.0412
" />
<path d="M23.0470 30.0412
L23.0470 30.1621
" />
<path d="M23.0470 30.1621
L22.9865 30.2831
" />
<path d="M22.9865 30.2831
L22.9261 30.3435
" />
<path d="M22.9261 30.3435
L22.8051 30.4040
" />
<path d="M22.8051 30.4040
L22.7446 30.4645
" />
<path d="M22.7446 30.4645
L22.6842 30.5854
" />
<path d="M22.6842 30.5854
L22.6842 30.6459
" />
</g><text x="27.5222" y="33.0007"
textLength="13.5270" font-size="1.6933" lengthAdjust="spacingAndGlyphs"
text-anchor="middle" opacity="0">TPS61230DRC</text>
<g class="stroked-text"><desc>TPS61230DRC</desc>
<path d="M20.9908 31.6749
L21.7165 31.6749
" />
<path d="M21.3537 32.9449
L21.3537 31.6749
" />
<path d="M22.1398 32.9449
L22.1398 31.6749
" />
<path d="M22.1398 31.6749
L22.6236 31.6749
" />
<path d="M22.6236 31.6749
L22.7446 31.7354
" />
<path d="M22.7446 31.7354
L22.8051 31.7959
" />
<path d="M22.8051 31.7959
L22.8655 31.9168
" />
<path d="M22.8655 31.9168
L22.8655 32.0983
" />
<path d="M22.8655 32.0983
L22.8051 32.2192
" />
<path d="M22.8051 32.2192
L22.7446 32.2797
" />
<path d="M22.7446 32.2797
L22.6236 32.3402
" />
<path d="M22.6236 32.3402
L22.1398 32.3402
" />
<path d="M23.3494 32.8845
L23.5308 32.9449
" />
<path d="M23.5308 32.9449
L23.8332 32.9449
" />
<path d="M23.8332 32.9449
L23.9541 32.8845
" />
<path d="M23.9541 32.8845
L24.0146 32.8240
" />
<path d="M24.0146 32.8240
L24.0751 32.7030
" />
<path d="M24.0751 32.7030
L24.0751 32.5821
" />
<path d="M24.0751 32.5821
L24.0146 32.4611
" />
<path d="M24.0146 32.4611
L23.9541 32.4006
" />
<path d="M23.9541 32.4006
L23.8332 32.3402
" />
<path d="M23.8332 32.3402
L23.5913 32.2797
" />
<path d="M23.5913 32.2797
L23.4703 32.2192
" />
<path d="M23.4703 32.2192
L23.4098 32.1587
" />
<path d="M23.4098 32.1587
L23.3494 32.0378
" />
<path d="M23.3494 32.0378
L23.3494 31.9168
" />
<path d="M23.3494 31.9168
L23.4098 31.7959
" />
<path d="M23.4098 31.7959
L23.4703 31.7354
" />
<path d="M23.4703 31.7354
L23.5913 31.6749
" />
<path d="M23.5913 31.6749
L23.8936 31.6749
" />
<path d="M23.8936 31.6749
L24.0751 31.7354
" />
<path d="M25.1636 31.6749
L24.9217 31.6749
" />
<path d="M24.9217 31.6749
L24.8008 31.7354
" />
<path d="M24.8008 31.7354
L24.7403 31.7959
" />
<path d="M24.7403 31.7959
L24.6193 31.9773
" />
<path d="M24.6193 31.9773
L24.5589 32.2192
" />
<path d="M24.5589 32.2192
L24.5589 32.7030
" />
<path d="M24.5589 32.7030
L24.6193 32.8240
" />
<path d="M24.6193 32.8240
L24.6798 32.8845
" />
<path d="M24.6798 32.8845
L24.8008 32.9449
" />
<path d="M24.8008 32.9449
L25.0427 32.9449
" />
<path d="M25.0427 32.9449
L25.1636 32.8845
" />
<path d="M25.1636 32.8845
L25.2241 32.8240
" />
<path d="M25.2241 32.8240
L25.2846 32.7030
" />
<path d="M25.2846 32.7030
L25.2846 32.4006
" />
<path d="M25.2846 32.4006
L25.2241 32.2797
" />
<path d="M25.2241 32.2797
L25.1636 32.2192
" />
<path d="M25.1636 32.2192
L25.0427 32.1587
" />
<path d="M25.0427 32.1587
L24.8008 32.1587
" />
<path d="M24.8008 32.1587
L24.6798 32.2192
" />
<path d="M24.6798 32.2192
L24.6193 32.2797
" />
<path d="M24.6193 32.2797
L24.5589 32.4006
" />
<path d="M26.4941 32.9449
L25.7684 32.9449
" />
<path d="M26.1312 32.9449
L26.1312 31.6749
" />
<path d="M26.1312 31.6749
L26.0103 31.8564
" />
<path d="M26.0103 31.8564
L25.8893 31.9773
" />
<path d="M25.8893 31.9773
L25.7684 32.0378
" />
<path d="M26.9779 31.7959
L27.0383 31.7354
" />
<path d="M27.0383 31.7354
L27.1593 31.6749
" />
<path d="M27.1593 31.6749
L27.4617 31.6749
" />
<path d="M27.4617 31.6749
L27.5826 31.7354
" />
<path d="M27.5826 31.7354
L27.6431 31.7959
" />
<path d="M27.6431 31.7959
L27.7036 31.9168
" />
<path d="M27.7036 31.9168
L27.7036 32.0378
" />
<path d="M27.7036 32.0378
L27.6431 32.2192
" />
<path d="M27.6431 32.2192
L26.9174 32.9449
" />
<path d="M26.9174 32.9449
L27.7036 32.9449
" />
<path d="M28.1269 31.6749
L28.9131 31.6749
" />
<path d="M28.9131 31.6749
L28.4897 32.1587
" />
<path d="M28.4897 32.1587
L28.6712 32.1587
" />
<path d="M28.6712 32.1587
L28.7921 32.2192
" />
<path d="M28.7921 32.2192
L28.8526 32.2797
" />
<path d="M28.8526 32.2797
L28.9131 32.4006
" />
<path d="M28.9131 32.4006
L28.9131 32.7030
" />
<path d="M28.9131 32.7030
L28.8526 32.8240
" />
<path d="M28.8526 32.8240
L28.7921 32.8845
" />
<path d="M28.7921 32.8845
L28.6712 32.9449
" />
<path d="M28.6712 32.9449
L28.3083 32.9449
" />
<path d="M28.3083 32.9449
L28.1874 32.8845
" />
<path d="M28.1874 32.8845
L28.1269 32.8240
" />
<path d="M29.6992 31.6749
L29.8202 31.6749
" />
<path d="M29.8202 31.6749
L29.9411 31.7354
" />
<path d="M29.9411 31.7354
L30.0016 31.7959
" />
<path d="M30.0016 31.7959
L30.0621 31.9168
" />
<path d="M30.0621 31.9168
L30.1226 32.1587
" />
<path d="M30.1226 32.1587
L30.1226 32.4611
" />
<path d="M30.1226 32.4611
L30.0621 32.7030
" />
<path d="M30.0621 32.7030
L30.0016 32.8240
" />
<path d="M30.0016 32.8240
L29.9411 32.8845
" />
<path d="M29.9411 32.8845
L29.8202 32.9449
" />
<path d="M29.8202 32.9449
L29.6992 32.9449
" />
<path d="M29.6992 32.9449
L29.5783 32.8845
" />
<path d="M29.5783 32.8845
L29.5178 32.8240
" />
<path d="M29.5178 32.8240
L29.4573 32.7030
" />
<path d="M29.4573 32.7030
L29.3969 32.4611
" />
<path d="M29.3969 32.4611
L29.3969 32.1587
" />
<path d="M29.3969 32.1587
L29.4573 31.9168
" />
<path d="M29.4573 31.9168
L29.5178 31.7959
" />
<path d="M29.5178 31.7959
L29.5783 31.7354
" />
<path d="M29.5783 31.7354
L29.6992 31.6749
" />
<path d="M30.6668 32.9449
L30.6668 31.6749
" />
<path d="M30.6668 31.6749
L30.9692 31.6749
" />
<path d="M30.9692 31.6749
L31.1506 31.7354
" />
<path d="M31.1506 31.7354
L31.2716 31.8564
" />
<path d="M31.2716 31.8564
L31.3321 31.9773
" />
<path d="M31.3321 31.9773
L31.3925 32.2192
" />
<path d="M31.3925 32.2192
L31.3925 32.4006
" />
<path d="M31.3925 32.4006
L31.3321 32.6425
" />
<path d="M31.3321 32.6425
L31.2716 32.7635
" />
<path d="M31.2716 32.7635
L31.1506 32.8845
" />
<path d="M31.1506 32.8845
L30.9692 32.9449
" />
<path d="M30.9692 32.9449
L30.6668 32.9449
" />
<path d="M32.6625 32.9449
L32.2392 32.3402
" />
<path d="M31.9368 32.9449
L31.9368 31.6749
" />
<path d="M31.9368 31.6749
L32.4206 31.6749
" />
<path d="M32.4206 31.6749
L32.5416 31.7354
" />
<path d="M32.5416 31.7354
L32.6021 31.7959
" />
<path d="M32.6021 31.7959
L32.6625 31.9168
" />
<path d="M32.6625 31.9168
L32.6625 32.0983
" />
<path d="M32.6625 32.0983
L32.6021 32.2192
" />
<path d="M32.6021 32.2192
L32.5416 32.2797
" />
<path d="M32.5416 32.2797
L32.4206 32.3402
" />
<path d="M32.4206 32.3402
L31.9368 32.3402
" />
<path d="M33.9325 32.8240
L33.8721 32.8845
" />
<path d="M33.8721 32.8845
L33.6906 32.9449
" />
<path d="M33.6906 32.9449
L33.5697 32.9449
" />
<path d="M33.5697 32.9449
L33.3883 32.8845
" />
<path d="M33.3883 32.8845
L33.2673 32.7635
" />
<path d="M33.2673 32.7635
L33.2068 32.6425
" />
<path d="M33.2068 32.6425
L33.1464 32.4006
" />
<path d="M33.1464 32.4006
L33.1464 32.2192
" />
<path d="M33.1464 32.2192
L33.2068 31.9773
" />
<path d="M33.2068 31.9773
L33.2673 31.8564
" />
<path d="M33.2673 31.8564
L33.3883 31.7354
" />
<path d="M33.3883 31.7354
L33.5697 31.6749
" />
<path d="M33.5697 31.6749
L33.6906 31.6749
" />
<path d="M33.6906 31.6749
L33.8721 31.7354
" />
<path d="M33.8721 31.7354
L33.9325 31.7959
" />
</g></g>
<g style="fill:#840084; fill-opacity:0.0; 
stroke:#840084; stroke-width:0.1588; stroke-opacity:1; 
stroke-linecap:round; stroke-linejoin:round;">
<text x="30.9187" y="6.3307"
textLength="46.4865" font-size="1.6933" lengthAdjust="spacingAndGlyphs"
text-anchor="middle" opacity="0">Package_SON:Texas_S-PVSON-N10_ThermalVias</text>
<g class="stroked-text"><desc>Package_SON:Texas_S-PVSON-N10_ThermalVias</desc>
<path d="M8.0890 6.2749
L8.0890 5.0049
" />
<path d="M8.0890 5.0049
L8.5728 5.0049
" />
<path d="M8.5728 5.0049
L8.6938 5.0654
" />
<path d="M8.6938 5.0654
L8.7543 5.1259
" />
<path d="M8.7543 5.1259
L8.8147 5.2468
" />
<path d="M8.8147 5.2468
L8.8147 5.4283
" />
<path d="M8.8147 5.4283
L8.7543 5.5492
" />
<path d="M8.7543 5.5492
L8.6938 5.6097
" />
<path d="M8.6938 5.6097
L8.5728 5.6702
" />
<path d="M8.5728 5.6702
L8.0890 5.6702
" />
<path d="M9.9033 6.2749
L9.9033 5.6097
" />
<path d="M9.9033 5.6097
L9.8428 5.4887
" />
<path d="M9.8428 5.4887
L9.7219 5.4283
" />
<path d="M9.7219 5.4283
L9.4800 5.4283
" />
<path d="M9.4800 5.4283
L9.3590 5.4887
" />
<path d="M9.9033 6.2145
L9.7824 6.2749
" />
<path d="M9.7824 6.2749
L9.4800 6.2749
" />
<path d="M9.4800 6.2749
L9.3590 6.2145
" />
<path d="M9.3590 6.2145
L9.2986 6.0935
" />
<path d="M9.2986 6.0935
L9.2986 5.9725
" />
<path d="M9.2986 5.9725
L9.3590 5.8516
" />
<path d="M9.3590 5.8516
L9.4800 5.7911
" />
<path d="M9.4800 5.7911
L9.7824 5.7911
" />
<path d="M9.7824 5.7911
L9.9033 5.7306
" />
<path d="M11.0523 6.2145
L10.9314 6.2749
" />
<path d="M10.9314 6.2749
L10.6895 6.2749
" />
<path d="M10.6895 6.2749
L10.5685 6.2145
" />
<path d="M10.5685 6.2145
L10.5080 6.1540
" />
<path d="M10.5080 6.1540
L10.4476 6.0330
" />
<path d="M10.4476 6.0330
L10.4476 5.6702
" />
<path d="M10.4476 5.6702
L10.5080 5.5492
" />
<path d="M10.5080 5.5492
L10.5685 5.4887
" />
<path d="M10.5685 5.4887
L10.6895 5.4283
" />
<path d="M10.6895 5.4283
L10.9314 5.4283
" />
<path d="M10.9314 5.4283
L11.0523 5.4887
" />
<path d="M11.5966 6.2749
L11.5966 5.0049
" />
<path d="M11.7176 5.7911
L12.0804 6.2749
" />
<path d="M12.0804 5.4283
L11.5966 5.9121
" />
<path d="M13.1690 6.2749
L13.1690 5.6097
" />
<path d="M13.1690 5.6097
L13.1085 5.4887
" />
<path d="M13.1085 5.4887
L12.9876 5.4283
" />
<path d="M12.9876 5.4283
L12.7457 5.4283
" />
<path d="M12.7457 5.4283
L12.6247 5.4887
" />
<path d="M13.1690 6.2145
L13.0481 6.2749
" />
<path d="M13.0481 6.2749
L12.7457 6.2749
" />
<path d="M12.7457 6.2749
L12.6247 6.2145
" />
<path d="M12.6247 6.2145
L12.5643 6.0935
" />
<path d="M12.5643 6.0935
L12.5643 5.9725
" />
<path d="M12.5643 5.9725
L12.6247 5.8516
" />
<path d="M12.6247 5.8516
L12.7457 5.7911
" />
<path d="M12.7457 5.7911
L13.0481 5.7911
" />
<path d="M13.0481 5.7911
L13.1690 5.7306
" />
<path d="M14.3180 5.4283
L14.3180 6.4564
" />
<path d="M14.3180 6.4564
L14.2575 6.5773
" />
<path d="M14.2575 6.5773
L14.1971 6.6378
" />
<path d="M14.1971 6.6378
L14.0761 6.6983
" />
<path d="M14.0761 6.6983
L13.8947 6.6983
" />
<path d="M13.8947 6.6983
L13.7737 6.6378
" />
<path d="M14.3180 6.2145
L14.1971 6.2749
" />
<path d="M14.1971 6.2749
L13.9552 6.2749
" />
<path d="M13.9552 6.2749
L13.8342 6.2145
" />
<path d="M13.8342 6.2145
L13.7737 6.1540
" />
<path d="M13.7737 6.1540
L13.7133 6.0330
" />
<path d="M13.7133 6.0330
L13.7133 5.6702
" />
<path d="M13.7133 5.6702
L13.7737 5.5492
" />
<path d="M13.7737 5.5492
L13.8342 5.4887
" />
<path d="M13.8342 5.4887
L13.9552 5.4283
" />
<path d="M13.9552 5.4283
L14.1971 5.4283
" />
<path d="M14.1971 5.4283
L14.3180 5.4887
" />
<path d="M15.4065 6.2145
L15.2856 6.2749
" />
<path d="M15.2856 6.2749
L15.0437 6.2749
" />
<path d="M15.0437 6.2749
L14.9227 6.2145
" />
<path d="M14.9227 6.2145
L14.8623 6.0935
" />
<path d="M14.8623 6.0935
L14.8623 5.6097
" />
<path d="M14.8623 5.6097
L14.9227 5.4887
" />
<path d="M14.9227 5.4887
L15.0437 5.4283
" />
<path d="M15.0437 5.4283
L15.2856 5.4283
" />
<path d="M15.2856 5.4283
L15.4065 5.4887
" />
<path d="M15.4065 5.4887
L15.4670 5.6097
" />
<path d="M15.4670 5.6097
L15.4670 5.7306
" />
<path d="M15.4670 5.7306
L14.8623 5.8516
" />
<path d="M15.7090 6.3959
L16.6766 6.3959
" />
<path d="M16.9185 6.2145
L17.0999 6.2749
" />
<path d="M17.0999 6.2749
L17.4023 6.2749
" />
<path d="M17.4023 6.2749
L17.5232 6.2145
" />
<path d="M17.5232 6.2145
L17.5837 6.1540
" />
<path d="M17.5837 6.1540
L17.6442 6.0330
" />
<path d="M17.6442 6.0330
L17.6442 5.9121
" />
<path d="M17.6442 5.9121
L17.5837 5.7911
" />
<path d="M17.5837 5.7911
L17.5232 5.7306
" />
<path d="M17.5232 5.7306
L17.4023 5.6702
" />
<path d="M17.4023 5.6702
L17.1604 5.6097
" />
<path d="M17.1604 5.6097
L17.0394 5.5492
" />
<path d="M17.0394 5.5492
L16.9789 5.4887
" />
<path d="M16.9789 5.4887
L16.9185 5.3678
" />
<path d="M16.9185 5.3678
L16.9185 5.2468
" />
<path d="M16.9185 5.2468
L16.9789 5.1259
" />
<path d="M16.9789 5.1259
L17.0394 5.0654
" />
<path d="M17.0394 5.0654
L17.1604 5.0049
" />
<path d="M17.1604 5.0049
L17.4627 5.0049
" />
<path d="M17.4627 5.0049
L17.6442 5.0654
" />
<path d="M18.4303 5.0049
L18.6722 5.0049
" />
<path d="M18.6722 5.0049
L18.7932 5.0654
" />
<path d="M18.7932 5.0654
L18.9141 5.1864
" />
<path d="M18.9141 5.1864
L18.9746 5.4283
" />
<path d="M18.9746 5.4283
L18.9746 5.8516
" />
<path d="M18.9746 5.8516
L18.9141 6.0935
" />
<path d="M18.9141 6.0935
L18.7932 6.2145
" />
<path d="M18.7932 6.2145
L18.6722 6.2749
" />
<path d="M18.6722 6.2749
L18.4303 6.2749
" />
<path d="M18.4303 6.2749
L18.3094 6.2145
" />
<path d="M18.3094 6.2145
L18.1884 6.0935
" />
<path d="M18.1884 6.0935
L18.1280 5.8516
" />
<path d="M18.1280 5.8516
L18.1280 5.4283
" />
<path d="M18.1280 5.4283
L18.1884 5.1864
" />
<path d="M18.1884 5.1864
L18.3094 5.0654
" />
<path d="M18.3094 5.0654
L18.4303 5.0049
" />
<path d="M19.5189 6.2749
L19.5189 5.0049
" />
<path d="M19.5189 5.0049
L20.2446 6.2749
" />
<path d="M20.2446 6.2749
L20.2446 5.0049
" />
<path d="M20.8494 6.1540
L20.9099 6.2145
" />
<path d="M20.9099 6.2145
L20.8494 6.2749
" />
<path d="M20.8494 6.2749
L20.7890 6.2145
" />
<path d="M20.7890 6.2145
L20.8494 6.1540
" />
<path d="M20.8494 6.1540
L20.8494 6.2749
" />
<path d="M20.8494 5.4887
L20.9099 5.5492
" />
<path d="M20.9099 5.5492
L20.8494 5.6097
" />
<path d="M20.8494 5.6097
L20.7890 5.5492
" />
<path d="M20.7890 5.5492
L20.8494 5.4887
" />
<path d="M20.8494 5.4887
L20.8494 5.6097
" />
<path d="M21.2728 5.0049
L21.9985 5.0049
" />
<path d="M21.6357 6.2749
L21.6357 5.0049
" />
<path d="M22.9056 6.2145
L22.7847 6.2749
" />
<path d="M22.7847 6.2749
L22.5428 6.2749
" />
<path d="M22.5428 6.2749
L22.4218 6.2145
" />
<path d="M22.4218 6.2145
L22.3614 6.0935
" />
<path d="M22.3614 6.0935
L22.3614 5.6097
" />
<path d="M22.3614 5.6097
L22.4218 5.4887
" />
<path d="M22.4218 5.4887
L22.5428 5.4283
" />
<path d="M22.5428 5.4283
L22.7847 5.4283
" />
<path d="M22.7847 5.4283
L22.9056 5.4887
" />
<path d="M22.9056 5.4887
L22.9661 5.6097
" />
<path d="M22.9661 5.6097
L22.9661 5.7306
" />
<path d="M22.9661 5.7306
L22.3614 5.8516
" />
<path d="M23.3895 6.2749
L24.0547 5.4283
" />
<path d="M23.3895 5.4283
L24.0547 6.2749
" />
<path d="M25.0828 6.2749
L25.0828 5.6097
" />
<path d="M25.0828 5.6097
L25.0223 5.4887
" />
<path d="M25.0223 5.4887
L24.9014 5.4283
" />
<path d="M24.9014 5.4283
L24.6595 5.4283
" />
<path d="M24.6595 5.4283
L24.5385 5.4887
" />
<path d="M25.0828 6.2145
L24.9619 6.2749
" />
<path d="M24.9619 6.2749
L24.6595 6.2749
" />
<path d="M24.6595 6.2749
L24.5385 6.2145
" />
<path d="M24.5385 6.2145
L24.4781 6.0935
" />
<path d="M24.4781 6.0935
L24.4781 5.9725
" />
<path d="M24.4781 5.9725
L24.5385 5.8516
" />
<path d="M24.5385 5.8516
L24.6595 5.7911
" />
<path d="M24.6595 5.7911
L24.9619 5.7911
" />
<path d="M24.9619 5.7911
L25.0828 5.7306
" />
<path d="M25.6271 6.2145
L25.7480 6.2749
" />
<path d="M25.7480 6.2749
L25.9899 6.2749
" />
<path d="M25.9899 6.2749
L26.1109 6.2145
" />
<path d="M26.1109 6.2145
L26.1713 6.0935
" />
<path d="M26.1713 6.0935
L26.1713 6.0330
" />
<path d="M26.1713 6.0330
L26.1109 5.9121
" />
<path d="M26.1109 5.9121
L25.9899 5.8516
" />
<path d="M25.9899 5.8516
L25.8085 5.8516
" />
<path d="M25.8085 5.8516
L25.6875 5.7911
" />
<path d="M25.6875 5.7911
L25.6271 5.6702
" />
<path d="M25.6271 5.6702
L25.6271 5.6097
" />
<path d="M25.6271 5.6097
L25.6875 5.4887
" />
<path d="M25.6875 5.4887
L25.8085 5.4283
" />
<path d="M25.8085 5.4283
L25.9899 5.4283
" />
<path d="M25.9899 5.4283
L26.1109 5.4887
" />
<path d="M26.4133 6.3959
L27.3809 6.3959
" />
<path d="M27.6228 6.2145
L27.8042 6.2749
" />
<path d="M27.8042 6.2749
L28.1066 6.2749
" />
<path d="M28.1066 6.2749
L28.2275 6.2145
" />
<path d="M28.2275 6.2145
L28.2880 6.1540
" />
<path d="M28.2880 6.1540
L28.3485 6.0330
" />
<path d="M28.3485 6.0330
L28.3485 5.9121
" />
<path d="M28.3485 5.9121
L28.2880 5.7911
" />
<path d="M28.2880 5.7911
L28.2275 5.7306
" />
<path d="M28.2275 5.7306
L28.1066 5.6702
" />
<path d="M28.1066 5.6702
L27.8647 5.6097
" />
<path d="M27.8647 5.6097
L27.7437 5.5492
" />
<path d="M27.7437 5.5492
L27.6832 5.4887
" />
<path d="M27.6832 5.4887
L27.6228 5.3678
" />
<path d="M27.6228 5.3678
L27.6228 5.2468
" />
<path d="M27.6228 5.2468
L27.6832 5.1259
" />
<path d="M27.6832 5.1259
L27.7437 5.0654
" />
<path d="M27.7437 5.0654
L27.8647 5.0049
" />
<path d="M27.8647 5.0049
L28.1670 5.0049
" />
<path d="M28.1670 5.0049
L28.3485 5.0654
" />
<path d="M28.8927 5.7911
L29.8604 5.7911
" />
<path d="M30.4651 6.2749
L30.4651 5.0049
" />
<path d="M30.4651 5.0049
L30.9489 5.0049
" />
<path d="M30.9489 5.0049
L31.0699 5.0654
" />
<path d="M31.0699 5.0654
L31.1304 5.1259
" />
<path d="M31.1304 5.1259
L31.1908 5.2468
" />
<path d="M31.1908 5.2468
L31.1908 5.4283
" />
<path d="M31.1908 5.4283
L31.1304 5.5492
" />
<path d="M31.1304 5.5492
L31.0699 5.6097
" />
<path d="M31.0699 5.6097
L30.9489 5.6702
" />
<path d="M30.9489 5.6702
L30.4651 5.6702
" />
<path d="M31.5537 5.0049
L31.9770 6.2749
" />
<path d="M31.9770 6.2749
L32.4004 5.0049
" />
<path d="M32.7633 6.2145
L32.9447 6.2749
" />
<path d="M32.9447 6.2749
L33.2471 6.2749
" />
<path d="M33.2471 6.2749
L33.3680 6.2145
" />
<path d="M33.3680 6.2145
L33.4285 6.1540
" />
<path d="M33.4285 6.1540
L33.4890 6.0330
" />
<path d="M33.4890 6.0330
L33.4890 5.9121
" />
<path d="M33.4890 5.9121
L33.4285 5.7911
" />
<path d="M33.4285 5.7911
L33.3680 5.7306
" />
<path d="M33.3680 5.7306
L33.2471 5.6702
" />
<path d="M33.2471 5.6702
L33.0052 5.6097
" />
<path d="M33.0052 5.6097
L32.8842 5.5492
" />
<path d="M32.8842 5.5492
L32.8237 5.4887
" />
<path d="M32.8237 5.4887
L32.7633 5.3678
" />
<path d="M32.7633 5.3678
L32.7633 5.2468
" />
<path d="M32.7633 5.2468
L32.8237 5.1259
" />
<path d="M32.8237 5.1259
L32.8842 5.0654
" />
<path d="M32.8842 5.0654
L33.0052 5.0049
" />
<path d="M33.0052 5.0049
L33.3075 5.0049
" />
<path d="M33.3075 5.0049
L33.4890 5.0654
" />
<path d="M34.2751 5.0049
L34.5170 5.0049
" />
<path d="M34.5170 5.0049
L34.6380 5.0654
" />
<path d="M34.6380 5.0654
L34.7589 5.1864
" />
<path d="M34.7589 5.1864
L34.8194 5.4283
" />
<path d="M34.8194 5.4283
L34.8194 5.8516
" />
<path d="M34.8194 5.8516
L34.7589 6.0935
" />
<path d="M34.7589 6.0935
L34.6380 6.2145
" />
<path d="M34.6380 6.2145
L34.5170 6.2749
" />
<path d="M34.5170 6.2749
L34.2751 6.2749
" />
<path d="M34.2751 6.2749
L34.1542 6.2145
" />
<path d="M34.1542 6.2145
L34.0332 6.0935
" />
<path d="M34.0332 6.0935
L33.9728 5.8516
" />
<path d="M33.9728 5.8516
L33.9728 5.4283
" />
<path d="M33.9728 5.4283
L34.0332 5.1864
" />
<path d="M34.0332 5.1864
L34.1542 5.0654
" />
<path d="M34.1542 5.0654
L34.2751 5.0049
" />
<path d="M35.3637 6.2749
L35.3637 5.0049
" />
<path d="M35.3637 5.0049
L36.0894 6.2749
" />
<path d="M36.0894 6.2749
L36.0894 5.0049
" />
<path d="M36.6942 5.7911
L37.6619 5.7911
" />
<path d="M38.2666 6.2749
L38.2666 5.0049
" />
<path d="M38.2666 5.0049
L38.9923 6.2749
" />
<path d="M38.9923 6.2749
L38.9923 5.0049
" />
<path d="M40.2624 6.2749
L39.5367 6.2749
" />
<path d="M39.8995 6.2749
L39.8995 5.0049
" />
<path d="M39.8995 5.0049
L39.7786 5.1864
" />
<path d="M39.7786 5.1864
L39.6576 5.3073
" />
<path d="M39.6576 5.3073
L39.5367 5.3678
" />
<path d="M41.0485 5.0049
L41.1695 5.0049
" />
<path d="M41.1695 5.0049
L41.2904 5.0654
" />
<path d="M41.2904 5.0654
L41.3509 5.1259
" />
<path d="M41.3509 5.1259
L41.4114 5.2468
" />
<path d="M41.4114 5.2468
L41.4719 5.4887
" />
<path d="M41.4719 5.4887
L41.4719 5.7911
" />
<path d="M41.4719 5.7911
L41.4114 6.0330
" />
<path d="M41.4114 6.0330
L41.3509 6.1540
" />
<path d="M41.3509 6.1540
L41.2904 6.2145
" />
<path d="M41.2904 6.2145
L41.1695 6.2749
" />
<path d="M41.1695 6.2749
L41.0485 6.2749
" />
<path d="M41.0485 6.2749
L40.9276 6.2145
" />
<path d="M40.9276 6.2145
L40.8671 6.1540
" />
<path d="M40.8671 6.1540
L40.8066 6.0330
" />
<path d="M40.8066 6.0330
L40.7462 5.7911
" />
<path d="M40.7462 5.7911
L40.7462 5.4887
" />
<path d="M40.7462 5.4887
L40.8066 5.2468
" />
<path d="M40.8066 5.2468
L40.8671 5.1259
" />
<path d="M40.8671 5.1259
L40.9276 5.0654
" />
<path d="M40.9276 5.0654
L41.0485 5.0049
" />
<path d="M41.7138 6.3959
L42.6814 6.3959
" />
<path d="M42.8023 5.0049
L43.5280 5.0049
" />
<path d="M43.1652 6.2749
L43.1652 5.0049
" />
<path d="M43.9513 6.2749
L43.9513 5.0049
" />
<path d="M44.4956 6.2749
L44.4956 5.6097
" />
<path d="M44.4956 5.6097
L44.4351 5.4887
" />
<path d="M44.4351 5.4887
L44.3142 5.4283
" />
<path d="M44.3142 5.4283
L44.1328 5.4283
" />
<path d="M44.1328 5.4283
L44.0118 5.4887
" />
<path d="M44.0118 5.4887
L43.9513 5.5492
" />
<path d="M45.5841 6.2145
L45.4632 6.2749
" />
<path d="M45.4632 6.2749
L45.2213 6.2749
" />
<path d="M45.2213 6.2749
L45.1003 6.2145
" />
<path d="M45.1003 6.2145
L45.0399 6.0935
" />
<path d="M45.0399 6.0935
L45.0399 5.6097
" />
<path d="M45.0399 5.6097
L45.1003 5.4887
" />
<path d="M45.1003 5.4887
L45.2213 5.4283
" />
<path d="M45.2213 5.4283
L45.4632 5.4283
" />
<path d="M45.4632 5.4283
L45.5841 5.4887
" />
<path d="M45.5841 5.4887
L45.6446 5.6097
" />
<path d="M45.6446 5.6097
L45.6446 5.7306
" />
<path d="M45.6446 5.7306
L45.0399 5.8516
" />
<path d="M46.1889 6.2749
L46.1889 5.4283
" />
<path d="M46.1889 5.6702
L46.2494 5.5492
" />
<path d="M46.2494 5.5492
L46.3099 5.4887
" />
<path d="M46.3099 5.4887
L46.4308 5.4283
" />
<path d="M46.4308 5.4283
L46.5518 5.4283
" />
<path d="M46.9751 6.2749
L46.9751 5.4283
" />
<path d="M46.9751 5.5492
L47.0356 5.4887
" />
<path d="M47.0356 5.4887
L47.1566 5.4283
" />
<path d="M47.1566 5.4283
L47.3380 5.4283
" />
<path d="M47.3380 5.4283
L47.4589 5.4887
" />
<path d="M47.4589 5.4887
L47.5194 5.6097
" />
<path d="M47.5194 5.6097
L47.5194 6.2749
" />
<path d="M47.5194 5.6097
L47.5799 5.4887
" />
<path d="M47.5799 5.4887
L47.7008 5.4283
" />
<path d="M47.7008 5.4283
L47.8823 5.4283
" />
<path d="M47.8823 5.4283
L48.0032 5.4887
" />
<path d="M48.0032 5.4887
L48.0637 5.6097
" />
<path d="M48.0637 5.6097
L48.0637 6.2749
" />
<path d="M49.2127 6.2749
L49.2127 5.6097
" />
<path d="M49.2127 5.6097
L49.1522 5.4887
" />
<path d="M49.1522 5.4887
L49.0313 5.4283
" />
<path d="M49.0313 5.4283
L48.7894 5.4283
" />
<path d="M48.7894 5.4283
L48.6684 5.4887
" />
<path d="M49.2127 6.2145
L49.0918 6.2749
" />
<path d="M49.0918 6.2749
L48.7894 6.2749
" />
<path d="M48.7894 6.2749
L48.6684 6.2145
" />
<path d="M48.6684 6.2145
L48.6080 6.0935
" />
<path d="M48.6080 6.0935
L48.6080 5.9725
" />
<path d="M48.6080 5.9725
L48.6684 5.8516
" />
<path d="M48.6684 5.8516
L48.7894 5.7911
" />
<path d="M48.7894 5.7911
L49.0918 5.7911
" />
<path d="M49.0918 5.7911
L49.2127 5.7306
" />
<path d="M49.9989 6.2749
L49.8779 6.2145
" />
<path d="M49.8779 6.2145
L49.8174 6.0935
" />
<path d="M49.8174 6.0935
L49.8174 5.0049
" />
<path d="M50.3012 5.0049
L50.7245 6.2749
" />
<path d="M50.7245 6.2749
L51.1479 5.0049
" />
<path d="M51.5712 6.2749
L51.5712 5.4283
" />
<path d="M51.5712 5.0049
L51.5108 5.0654
" />
<path d="M51.5108 5.0654
L51.5712 5.1259
" />
<path d="M51.5712 5.1259
L51.6317 5.0654
" />
<path d="M51.6317 5.0654
L51.5712 5.0049
" />
<path d="M51.5712 5.0049
L51.5712 5.1259
" />
<path d="M52.7203 6.2749
L52.7203 5.6097
" />
<path d="M52.7203 5.6097
L52.6598 5.4887
" />
<path d="M52.6598 5.4887
L52.5389 5.4283
" />
<path d="M52.5389 5.4283
L52.2970 5.4283
" />
<path d="M52.2970 5.4283
L52.1760 5.4887
" />
<path d="M52.7203 6.2145
L52.5994 6.2749
" />
<path d="M52.5994 6.2749
L52.2970 6.2749
" />
<path d="M52.2970 6.2749
L52.1760 6.2145
" />
<path d="M52.1760 6.2145
L52.1156 6.0935
" />
<path d="M52.1156 6.0935
L52.1156 5.9725
" />
<path d="M52.1156 5.9725
L52.1760 5.8516
" />
<path d="M52.1760 5.8516
L52.2970 5.7911
" />
<path d="M52.2970 5.7911
L52.5994 5.7911
" />
<path d="M52.5994 5.7911
L52.7203 5.7306
" />
<path d="M53.2646 6.2145
L53.3855 6.2749
" />
<path d="M53.3855 6.2749
L53.6274 6.2749
" />
<path d="M53.6274 6.2749
L53.7484 6.2145
" />
<path d="M53.7484 6.2145
L53.8088 6.0935
" />
<path d="M53.8088 6.0935
L53.8088 6.0330
" />
<path d="M53.8088 6.0330
L53.7484 5.9121
" />
<path d="M53.7484 5.9121
L53.6274 5.8516
" />
<path d="M53.6274 5.8516
L53.4460 5.8516
" />
<path d="M53.4460 5.8516
L53.3250 5.7911
" />
<path d="M53.3250 5.7911
L53.2646 5.6702
" />
<path d="M53.2646 5.6702
L53.2646 5.6097
" />
<path d="M53.2646 5.6097
L53.3250 5.4887
" />
<path d="M53.3250 5.4887
L53.4460 5.4283
" />
<path d="M53.4460 5.4283
L53.6274 5.4283
" />
<path d="M53.6274 5.4283
L53.7484 5.4887
" />
</g><text x="28.3787" y="20.3007"
textLength="46.9098" font-size="1.6933" lengthAdjust="spacingAndGlyphs"
text-anchor="middle" opacity="0">http://www.ti.com/lit/ds/symlink/tps61232.pdf</text>
<g class="stroked-text"><desc>http://www.ti.com/lit/ds/symlink/tps61232.pdf</desc>
<path d="M5.3373 20.2449
L5.3373 18.9749
" />
<path d="M5.8816 20.2449
L5.8816 19.5797
" />
<path d="M5.8816 19.5797
L5.8211 19.4587
" />
<path d="M5.8211 19.4587
L5.7002 19.3983
" />
<path d="M5.7002 19.3983
L5.5188 19.3983
" />
<path d="M5.5188 19.3983
L5.3978 19.4587
" />
<path d="M5.3978 19.4587
L5.3373 19.5192
" />
<path d="M6.3049 19.3983
L6.7887 19.3983
" />
<path d="M6.4863 18.9749
L6.4863 20.0635
" />
<path d="M6.4863 20.0635
L6.5468 20.1845
" />
<path d="M6.5468 20.1845
L6.6678 20.2449
" />
<path d="M6.6678 20.2449
L6.7887 20.2449
" />
<path d="M7.0306 19.3983
L7.5144 19.3983
" />
<path d="M7.2120 18.9749
L7.2120 20.0635
" />
<path d="M7.2120 20.0635
L7.2725 20.1845
" />
<path d="M7.2725 20.1845
L7.3935 20.2449
" />
<path d="M7.3935 20.2449
L7.5144 20.2449
" />
<path d="M7.9377 19.3983
L7.9377 20.6683
" />
<path d="M7.9377 19.4587
L8.0587 19.3983
" />
<path d="M8.0587 19.3983
L8.3006 19.3983
" />
<path d="M8.3006 19.3983
L8.4215 19.4587
" />
<path d="M8.4215 19.4587
L8.4820 19.5192
" />
<path d="M8.4820 19.5192
L8.5425 19.6402
" />
<path d="M8.5425 19.6402
L8.5425 20.0030
" />
<path d="M8.5425 20.0030
L8.4820 20.1240
" />
<path d="M8.4820 20.1240
L8.4215 20.1845
" />
<path d="M8.4215 20.1845
L8.3006 20.2449
" />
<path d="M8.3006 20.2449
L8.0587 20.2449
" />
<path d="M8.0587 20.2449
L7.9377 20.1845
" />
<path d="M9.0867 20.1240
L9.1472 20.1845
" />
<path d="M9.1472 20.1845
L9.0867 20.2449
" />
<path d="M9.0867 20.2449
L9.0263 20.1845
" />
<path d="M9.0263 20.1845
L9.0867 20.1240
" />
<path d="M9.0867 20.1240
L9.0867 20.2449
" />
<path d="M9.0867 19.4587
L9.1472 19.5192
" />
<path d="M9.1472 19.5192
L9.0867 19.5797
" />
<path d="M9.0867 19.5797
L9.0263 19.5192
" />
<path d="M9.0263 19.5192
L9.0867 19.4587
" />
<path d="M9.0867 19.4587
L9.0867 19.5797
" />
<path d="M10.5987 18.9145
L9.5101 20.5473
" />
<path d="M11.9292 18.9145
L10.8406 20.5473
" />
<path d="M12.2316 19.3983
L12.4735 20.2449
" />
<path d="M12.4735 20.2449
L12.7154 19.6402
" />
<path d="M12.7154 19.6402
L12.9573 20.2449
" />
<path d="M12.9573 20.2449
L13.1992 19.3983
" />
<path d="M13.5621 19.3983
L13.8040 20.2449
" />
<path d="M13.8040 20.2449
L14.0459 19.6402
" />
<path d="M14.0459 19.6402
L14.2878 20.2449
" />
<path d="M14.2878 20.2449
L14.5297 19.3983
" />
<path d="M14.8926 19.3983
L15.1345 20.2449
" />
<path d="M15.1345 20.2449
L15.3764 19.6402
" />
<path d="M15.3764 19.6402
L15.6183 20.2449
" />
<path d="M15.6183 20.2449
L15.8602 19.3983
" />
<path d="M16.3440 20.1240
L16.4045 20.1845
" />
<path d="M16.4045 20.1845
L16.3440 20.2449
" />
<path d="M16.3440 20.2449
L16.2836 20.1845
" />
<path d="M16.2836 20.1845
L16.3440 20.1240
" />
<path d="M16.3440 20.1240
L16.3440 20.2449
" />
<path d="M16.7674 19.3983
L17.2512 19.3983
" />
<path d="M16.9488 18.9749
L16.9488 20.0635
" />
<path d="M16.9488 20.0635
L17.0093 20.1845
" />
<path d="M17.0093 20.1845
L17.1303 20.2449
" />
<path d="M17.1303 20.2449
L17.2512 20.2449
" />
<path d="M17.6745 20.2449
L17.6745 19.3983
" />
<path d="M17.6745 18.9749
L17.6141 19.0354
" />
<path d="M17.6141 19.0354
L17.6745 19.0959
" />
<path d="M17.6745 19.0959
L17.7350 19.0354
" />
<path d="M17.7350 19.0354
L17.6745 18.9749
" />
<path d="M17.6745 18.9749
L17.6745 19.0959
" />
<path d="M18.2793 20.1240
L18.3398 20.1845
" />
<path d="M18.3398 20.1845
L18.2793 20.2449
" />
<path d="M18.2793 20.2449
L18.2189 20.1845
" />
<path d="M18.2189 20.1845
L18.2793 20.1240
" />
<path d="M18.2793 20.1240
L18.2793 20.2449
" />
<path d="M19.4284 20.1845
L19.3075 20.2449
" />
<path d="M19.3075 20.2449
L19.0656 20.2449
" />
<path d="M19.0656 20.2449
L18.9446 20.1845
" />
<path d="M18.9446 20.1845
L18.8841 20.1240
" />
<path d="M18.8841 20.1240
L18.8237 20.0030
" />
<path d="M18.8237 20.0030
L18.8237 19.6402
" />
<path d="M18.8237 19.6402
L18.8841 19.5192
" />
<path d="M18.8841 19.5192
L18.9446 19.4587
" />
<path d="M18.9446 19.4587
L19.0656 19.3983
" />
<path d="M19.0656 19.3983
L19.3075 19.3983
" />
<path d="M19.3075 19.3983
L19.4284 19.4587
" />
<path d="M20.1542 20.2449
L20.0332 20.1845
" />
<path d="M20.0332 20.1845
L19.9727 20.1240
" />
<path d="M19.9727 20.1240
L19.9123 20.0030
" />
<path d="M19.9123 20.0030
L19.9123 19.6402
" />
<path d="M19.9123 19.6402
L19.9727 19.5192
" />
<path d="M19.9727 19.5192
L20.0332 19.4587
" />
<path d="M20.0332 19.4587
L20.1542 19.3983
" />
<path d="M20.1542 19.3983
L20.3356 19.3983
" />
<path d="M20.3356 19.3983
L20.4565 19.4587
" />
<path d="M20.4565 19.4587
L20.5170 19.5192
" />
<path d="M20.5170 19.5192
L20.5775 19.6402
" />
<path d="M20.5775 19.6402
L20.5775 20.0030
" />
<path d="M20.5775 20.0030
L20.5170 20.1240
" />
<path d="M20.5170 20.1240
L20.4565 20.1845
" />
<path d="M20.4565 20.1845
L20.3356 20.2449
" />
<path d="M20.3356 20.2449
L20.1542 20.2449
" />
<path d="M21.1217 20.2449
L21.1217 19.3983
" />
<path d="M21.1217 19.5192
L21.1822 19.4587
" />
<path d="M21.1822 19.4587
L21.3032 19.3983
" />
<path d="M21.3032 19.3983
L21.4846 19.3983
" />
<path d="M21.4846 19.3983
L21.6055 19.4587
" />
<path d="M21.6055 19.4587
L21.6660 19.5797
" />
<path d="M21.6660 19.5797
L21.6660 20.2449
" />
<path d="M21.6660 19.5797
L21.7265 19.4587
" />
<path d="M21.7265 19.4587
L21.8474 19.3983
" />
<path d="M21.8474 19.3983
L22.0289 19.3983
" />
<path d="M22.0289 19.3983
L22.1498 19.4587
" />
<path d="M22.1498 19.4587
L22.2103 19.5797
" />
<path d="M22.2103 19.5797
L22.2103 20.2449
" />
<path d="M23.7222 18.9145
L22.6336 20.5473
" />
<path d="M24.3270 20.2449
L24.2060 20.1845
" />
<path d="M24.2060 20.1845
L24.1455 20.0635
" />
<path d="M24.1455 20.0635
L24.1455 18.9749
" />
<path d="M24.8107 20.2449
L24.8107 19.3983
" />
<path d="M24.8107 18.9749
L24.7503 19.0354
" />
<path d="M24.7503 19.0354
L24.8107 19.0959
" />
<path d="M24.8107 19.0959
L24.8712 19.0354
" />
<path d="M24.8712 19.0354
L24.8107 18.9749
" />
<path d="M24.8107 18.9749
L24.8107 19.0959
" />
<path d="M25.2341 19.3983
L25.7179 19.3983
" />
<path d="M25.4155 18.9749
L25.4155 20.0635
" />
<path d="M25.4155 20.0635
L25.4760 20.1845
" />
<path d="M25.4760 20.1845
L25.5970 20.2449
" />
<path d="M25.5970 20.2449
L25.7179 20.2449
" />
<path d="M27.0484 18.9145
L25.9598 20.5473
" />
<path d="M28.0160 20.2449
L28.0160 18.9749
" />
<path d="M28.0160 20.1845
L27.8951 20.2449
" />
<path d="M27.8951 20.2449
L27.6532 20.2449
" />
<path d="M27.6532 20.2449
L27.5322 20.1845
" />
<path d="M27.5322 20.1845
L27.4717 20.1240
" />
<path d="M27.4717 20.1240
L27.4113 20.0030
" />
<path d="M27.4113 20.0030
L27.4113 19.6402
" />
<path d="M27.4113 19.6402
L27.4717 19.5192
" />
<path d="M27.4717 19.5192
L27.5322 19.4587
" />
<path d="M27.5322 19.4587
L27.6532 19.3983
" />
<path d="M27.6532 19.3983
L27.8951 19.3983
" />
<path d="M27.8951 19.3983
L28.0160 19.4587
" />
<path d="M28.5603 20.1845
L28.6812 20.2449
" />
<path d="M28.6812 20.2449
L28.9231 20.2449
" />
<path d="M28.9231 20.2449
L29.0441 20.1845
" />
<path d="M29.0441 20.1845
L29.1045 20.0635
" />
<path d="M29.1045 20.0635
L29.1045 20.0030
" />
<path d="M29.1045 20.0030
L29.0441 19.8821
" />
<path d="M29.0441 19.8821
L28.9231 19.8216
" />
<path d="M28.9231 19.8216
L28.7417 19.8216
" />
<path d="M28.7417 19.8216
L28.6207 19.7611
" />
<path d="M28.6207 19.7611
L28.5603 19.6402
" />
<path d="M28.5603 19.6402
L28.5603 19.5797
" />
<path d="M28.5603 19.5797
L28.6207 19.4587
" />
<path d="M28.6207 19.4587
L28.7417 19.3983
" />
<path d="M28.7417 19.3983
L28.9231 19.3983
" />
<path d="M28.9231 19.3983
L29.0441 19.4587
" />
<path d="M30.5560 18.9145
L29.4674 20.5473
" />
<path d="M30.9189 20.1845
L31.0398 20.2449
" />
<path d="M31.0398 20.2449
L31.2817 20.2449
" />
<path d="M31.2817 20.2449
L31.4027 20.1845
" />
<path d="M31.4027 20.1845
L31.4631 20.0635
" />
<path d="M31.4631 20.0635
L31.4631 20.0030
" />
<path d="M31.4631 20.0030
L31.4027 19.8821
" />
<path d="M31.4027 19.8821
L31.2817 19.8216
" />
<path d="M31.2817 19.8216
L31.1003 19.8216
" />
<path d="M31.1003 19.8216
L30.9793 19.7611
" />
<path d="M30.9793 19.7611
L30.9189 19.6402
" />
<path d="M30.9189 19.6402
L30.9189 19.5797
" />
<path d="M30.9189 19.5797
L30.9793 19.4587
" />
<path d="M30.9793 19.4587
L31.1003 19.3983
" />
<path d="M31.1003 19.3983
L31.2817 19.3983
" />
<path d="M31.2817 19.3983
L31.4027 19.4587
" />
<path d="M31.8865 19.3983
L32.1889 20.2449
" />
<path d="M32.4912 19.3983
L32.1889 20.2449
" />
<path d="M32.1889 20.2449
L32.0679 20.5473
" />
<path d="M32.0679 20.5473
L32.0074 20.6078
" />
<path d="M32.0074 20.6078
L31.8865 20.6683
" />
<path d="M32.9750 20.2449
L32.9750 19.3983
" />
<path d="M32.9750 19.5192
L33.0355 19.4587
" />
<path d="M33.0355 19.4587
L33.1565 19.3983
" />
<path d="M33.1565 19.3983
L33.3379 19.3983
" />
<path d="M33.3379 19.3983
L33.4588 19.4587
" />
<path d="M33.4588 19.4587
L33.5193 19.5797
" />
<path d="M33.5193 19.5797
L33.5193 20.2449
" />
<path d="M33.5193 19.5797
L33.5798 19.4587
" />
<path d="M33.5798 19.4587
L33.7007 19.3983
" />
<path d="M33.7007 19.3983
L33.8822 19.3983
" />
<path d="M33.8822 19.3983
L34.0031 19.4587
" />
<path d="M34.0031 19.4587
L34.0636 19.5797
" />
<path d="M34.0636 19.5797
L34.0636 20.2449
" />
<path d="M34.8498 20.2449
L34.7288 20.1845
" />
<path d="M34.7288 20.1845
L34.6683 20.0635
" />
<path d="M34.6683 20.0635
L34.6683 18.9749
" />
<path d="M35.3335 20.2449
L35.3335 19.3983
" />
<path d="M35.3335 18.9749
L35.2731 19.0354
" />
<path d="M35.2731 19.0354
L35.3335 19.0959
" />
<path d="M35.3335 19.0959
L35.3940 19.0354
" />
<path d="M35.3940 19.0354
L35.3335 18.9749
" />
<path d="M35.3335 18.9749
L35.3335 19.0959
" />
<path d="M35.9383 19.3983
L35.9383 20.2449
" />
<path d="M35.9383 19.5192
L35.9988 19.4587
" />
<path d="M35.9988 19.4587
L36.1198 19.3983
" />
<path d="M36.1198 19.3983
L36.3012 19.3983
" />
<path d="M36.3012 19.3983
L36.4221 19.4587
" />
<path d="M36.4221 19.4587
L36.4826 19.5797
" />
<path d="M36.4826 19.5797
L36.4826 20.2449
" />
<path d="M37.0873 20.2449
L37.0873 18.9749
" />
<path d="M37.2083 19.7611
L37.5711 20.2449
" />
<path d="M37.5711 19.3983
L37.0873 19.8821
" />
<path d="M39.0226 18.9145
L37.9340 20.5473
" />
<path d="M39.2645 19.3983
L39.7483 19.3983
" />
<path d="M39.4459 18.9749
L39.4459 20.0635
" />
<path d="M39.4459 20.0635
L39.5064 20.1845
" />
<path d="M39.5064 20.1845
L39.6274 20.2449
" />
<path d="M39.6274 20.2449
L39.7483 20.2449
" />
<path d="M40.1716 19.3983
L40.1716 20.6683
" />
<path d="M40.1716 19.4587
L40.2926 19.3983
" />
<path d="M40.2926 19.3983
L40.5345 19.3983
" />
<path d="M40.5345 19.3983
L40.6554 19.4587
" />
<path d="M40.6554 19.4587
L40.7159 19.5192
" />
<path d="M40.7159 19.5192
L40.7764 19.6402
" />
<path d="M40.7764 19.6402
L40.7764 20.0030
" />
<path d="M40.7764 20.0030
L40.7159 20.1240
" />
<path d="M40.7159 20.1240
L40.6554 20.1845
" />
<path d="M40.6554 20.1845
L40.5345 20.2449
" />
<path d="M40.5345 20.2449
L40.2926 20.2449
" />
<path d="M40.2926 20.2449
L40.1716 20.1845
" />
<path d="M41.2602 20.1845
L41.3811 20.2449
" />
<path d="M41.3811 20.2449
L41.6230 20.2449
" />
<path d="M41.6230 20.2449
L41.7440 20.1845
" />
<path d="M41.7440 20.1845
L41.8044 20.0635
" />
<path d="M41.8044 20.0635
L41.8044 20.0030
" />
<path d="M41.8044 20.0030
L41.7440 19.8821
" />
<path d="M41.7440 19.8821
L41.6230 19.8216
" />
<path d="M41.6230 19.8216
L41.4416 19.8216
" />
<path d="M41.4416 19.8216
L41.3206 19.7611
" />
<path d="M41.3206 19.7611
L41.2602 19.6402
" />
<path d="M41.2602 19.6402
L41.2602 19.5797
" />
<path d="M41.2602 19.5797
L41.3206 19.4587
" />
<path d="M41.3206 19.4587
L41.4416 19.3983
" />
<path d="M41.4416 19.3983
L41.6230 19.3983
" />
<path d="M41.6230 19.3983
L41.7440 19.4587
" />
<path d="M42.8930 18.9749
L42.6511 18.9749
" />
<path d="M42.6511 18.9749
L42.5302 19.0354
" />
<path d="M42.5302 19.0354
L42.4697 19.0959
" />
<path d="M42.4697 19.0959
L42.3487 19.2773
" />
<path d="M42.3487 19.2773
L42.2883 19.5192
" />
<path d="M42.2883 19.5192
L42.2883 20.0030
" />
<path d="M42.2883 20.0030
L42.3487 20.1240
" />
<path d="M42.3487 20.1240
L42.4092 20.1845
" />
<path d="M42.4092 20.1845
L42.5302 20.2449
" />
<path d="M42.5302 20.2449
L42.7721 20.2449
" />
<path d="M42.7721 20.2449
L42.8930 20.1845
" />
<path d="M42.8930 20.1845
L42.9535 20.1240
" />
<path d="M42.9535 20.1240
L43.0140 20.0030
" />
<path d="M43.0140 20.0030
L43.0140 19.7006
" />
<path d="M43.0140 19.7006
L42.9535 19.5797
" />
<path d="M42.9535 19.5797
L42.8930 19.5192
" />
<path d="M42.8930 19.5192
L42.7721 19.4587
" />
<path d="M42.7721 19.4587
L42.5302 19.4587
" />
<path d="M42.5302 19.4587
L42.4092 19.5192
" />
<path d="M42.4092 19.5192
L42.3487 19.5797
" />
<path d="M42.3487 19.5797
L42.2883 19.7006
" />
<path d="M44.2235 20.2449
L43.4978 20.2449
" />
<path d="M43.8606 20.2449
L43.8606 18.9749
" />
<path d="M43.8606 18.9749
L43.7397 19.1564
" />
<path d="M43.7397 19.1564
L43.6187 19.2773
" />
<path d="M43.6187 19.2773
L43.4978 19.3378
" />
<path d="M44.7073 19.0959
L44.7677 19.0354
" />
<path d="M44.7677 19.0354
L44.8887 18.9749
" />
<path d="M44.8887 18.9749
L45.1911 18.9749
" />
<path d="M45.1911 18.9749
L45.3120 19.0354
" />
<path d="M45.3120 19.0354
L45.3725 19.0959
" />
<path d="M45.3725 19.0959
L45.4330 19.2168
" />
<path d="M45.4330 19.2168
L45.4330 19.3378
" />
<path d="M45.4330 19.3378
L45.3725 19.5192
" />
<path d="M45.3725 19.5192
L44.6468 20.2449
" />
<path d="M44.6468 20.2449
L45.4330 20.2449
" />
<path d="M45.8563 18.9749
L46.6425 18.9749
" />
<path d="M46.6425 18.9749
L46.2191 19.4587
" />
<path d="M46.2191 19.4587
L46.4006 19.4587
" />
<path d="M46.4006 19.4587
L46.5215 19.5192
" />
<path d="M46.5215 19.5192
L46.5820 19.5797
" />
<path d="M46.5820 19.5797
L46.6425 19.7006
" />
<path d="M46.6425 19.7006
L46.6425 20.0030
" />
<path d="M46.6425 20.0030
L46.5820 20.1240
" />
<path d="M46.5820 20.1240
L46.5215 20.1845
" />
<path d="M46.5215 20.1845
L46.4006 20.2449
" />
<path d="M46.4006 20.2449
L46.0377 20.2449
" />
<path d="M46.0377 20.2449
L45.9168 20.1845
" />
<path d="M45.9168 20.1845
L45.8563 20.1240
" />
<path d="M47.1263 19.0959
L47.1867 19.0354
" />
<path d="M47.1867 19.0354
L47.3077 18.9749
" />
<path d="M47.3077 18.9749
L47.6101 18.9749
" />
<path d="M47.6101 18.9749
L47.7310 19.0354
" />
<path d="M47.7310 19.0354
L47.7915 19.0959
" />
<path d="M47.7915 19.0959
L47.8520 19.2168
" />
<path d="M47.8520 19.2168
L47.8520 19.3378
" />
<path d="M47.8520 19.3378
L47.7915 19.5192
" />
<path d="M47.7915 19.5192
L47.0658 20.2449
" />
<path d="M47.0658 20.2449
L47.8520 20.2449
" />
<path d="M48.3962 20.1240
L48.4567 20.1845
" />
<path d="M48.4567 20.1845
L48.3962 20.2449
" />
<path d="M48.3962 20.2449
L48.3358 20.1845
" />
<path d="M48.3358 20.1845
L48.3962 20.1240
" />
<path d="M48.3962 20.1240
L48.3962 20.2449
" />
<path d="M49.0010 19.3983
L49.0010 20.6683
" />
<path d="M49.0010 19.4587
L49.1220 19.3983
" />
<path d="M49.1220 19.3983
L49.3639 19.3983
" />
<path d="M49.3639 19.3983
L49.4848 19.4587
" />
<path d="M49.4848 19.4587
L49.5453 19.5192
" />
<path d="M49.5453 19.5192
L49.6058 19.6402
" />
<path d="M49.6058 19.6402
L49.6058 20.0030
" />
<path d="M49.6058 20.0030
L49.5453 20.1240
" />
<path d="M49.5453 20.1240
L49.4848 20.1845
" />
<path d="M49.4848 20.1845
L49.3639 20.2449
" />
<path d="M49.3639 20.2449
L49.1220 20.2449
" />
<path d="M49.1220 20.2449
L49.0010 20.1845
" />
<path d="M50.6943 20.2449
L50.6943 18.9749
" />
<path d="M50.6943 20.1845
L50.5734 20.2449
" />
<path d="M50.5734 20.2449
L50.3315 20.2449
" />
<path d="M50.3315 20.2449
L50.2105 20.1845
" />
<path d="M50.2105 20.1845
L50.1500 20.1240
" />
<path d="M50.1500 20.1240
L50.0896 20.0030
" />
<path d="M50.0896 20.0030
L50.0896 19.6402
" />
<path d="M50.0896 19.6402
L50.1500 19.5192
" />
<path d="M50.1500 19.5192
L50.2105 19.4587
" />
<path d="M50.2105 19.4587
L50.3315 19.3983
" />
<path d="M50.3315 19.3983
L50.5734 19.3983
" />
<path d="M50.5734 19.3983
L50.6943 19.4587
" />
<path d="M51.1176 19.3983
L51.6014 19.3983
" />
<path d="M51.2990 20.2449
L51.2990 19.1564
" />
<path d="M51.2990 19.1564
L51.3595 19.0354
" />
<path d="M51.3595 19.0354
L51.4805 18.9749
" />
<path d="M51.4805 18.9749
L51.6014 18.9749
" />
</g></g> 
</svg>
