<?xml version="1.0" standalone="no"?>
 <!DOCTYPE svg PUBLIC "-//W3C//DTD SVG 1.1//EN" 
 "http://www.w3.org/Graphics/SVG/1.1/DTD/svg11.dtd"> 
<svg
  xmlns:svg="http://www.w3.org/2000/svg"
  xmlns="http://www.w3.org/2000/svg"
  xmlns:xlink="http://www.w3.org/1999/xlink"
  version="1.1"
  width="87.4268mm" height="33.2232mm" viewBox="0.0000 0.0000 87.4268 33.2232">
<title>SVG Image created as working.svg date 2023/08/29 17:10:08 </title>
  <desc>Image generated by Eeschema-SVG </desc>
<g style="fill:#000000; fill-opacity:1.0000;stroke:#000000; stroke-opacity:1.0000;
stroke-linecap:round; stroke-linejoin:round;"
 transform="translate(0 0) scale(1 1)">
</g>
<g style="fill:#840000; fill-opacity:0.0; 
stroke:#840000; stroke-width:0.0000; stroke-opacity:1; 
stroke-linecap:round; stroke-linejoin:round;">
</g>
<g style="fill:#FFFFC2; fill-opacity:0.0; 
stroke:#FFFFC2; stroke-width:0.0000; stroke-opacity:1; 
stroke-linecap:round; stroke-linejoin:round;">
</g>
<g style="fill:#FFFFC2; fill-opacity:1.0000; 
stroke:#FFFFC2; stroke-width:0.0000; stroke-opacity:1; 
stroke-linecap:round; stroke-linejoin:round;">
<rect x="36.092100" y="7.600700" width="15.240000" height="20.320000" rx="0.000000" />
</g>
<g style="fill:#840084; fill-opacity:1.0000; 
stroke:#840084; stroke-width:0.0000; stroke-opacity:1; 
stroke-linecap:round; stroke-linejoin:round;">
</g>
<g style="fill:#840000; fill-opacity:1.0000; 
stroke:#840000; stroke-width:0.0000; stroke-opacity:1; 
stroke-linecap:round; stroke-linejoin:round;">
</g>
<g style="fill:#840000; fill-opacity:0.0; 
stroke:#840000; stroke-width:0.2540; stroke-opacity:1; 
stroke-linecap:round; stroke-linejoin:round;">
<rect x="36.092100" y="7.600700" width="15.240000" height="20.320000" rx="0.000000" />
</g>
<g style="fill:#840000; fill-opacity:0.0; 
stroke:#840000; stroke-width:0.1524; stroke-opacity:1; 
stroke-linecap:round; stroke-linejoin:round;">
<path d="M38.6321 7.6007
L38.6321 5.0607
" />
</g>
<g style="fill:#006464; fill-opacity:0.0; 
stroke:#006464; stroke-width:0.1524; stroke-opacity:1; 
stroke-linecap:round; stroke-linejoin:round;">
<g transform="rotate(-90.000000 38.6321 8.1087)">
<text x="38.6321" y="8.7437"
textLength="3.8318" font-size="1.6933" lengthAdjust="spacingAndGlyphs"
text-anchor="end" opacity="0">VCC</text>
</g>
<g class="stroked-text"><desc>VCC</desc>
<path d="M37.9416 11.7165
L39.2116 11.2932
" />
<path d="M39.2116 11.2932
L37.9416 10.8698
" />
<path d="M39.0907 9.7208
L39.1512 9.7812
" />
<path d="M39.1512 9.7812
L39.2116 9.9627
" />
<path d="M39.2116 9.9627
L39.2116 10.0836
" />
<path d="M39.2116 10.0836
L39.1512 10.2650
" />
<path d="M39.1512 10.2650
L39.0302 10.3860
" />
<path d="M39.0302 10.3860
L38.9092 10.4465
" />
<path d="M38.9092 10.4465
L38.6673 10.5069
" />
<path d="M38.6673 10.5069
L38.4859 10.5069
" />
<path d="M38.4859 10.5069
L38.2440 10.4465
" />
<path d="M38.2440 10.4465
L38.1231 10.3860
" />
<path d="M38.1231 10.3860
L38.0021 10.2650
" />
<path d="M38.0021 10.2650
L37.9416 10.0836
" />
<path d="M37.9416 10.0836
L37.9416 9.9627
" />
<path d="M37.9416 9.9627
L38.0021 9.7812
" />
<path d="M38.0021 9.7812
L38.0626 9.7208
" />
<path d="M39.0907 8.4508
L39.1512 8.5112
" />
<path d="M39.1512 8.5112
L39.2116 8.6927
" />
<path d="M39.2116 8.6927
L39.2116 8.8136
" />
<path d="M39.2116 8.8136
L39.1512 8.9950
" />
<path d="M39.1512 8.9950
L39.0302 9.1160
" />
<path d="M39.0302 9.1160
L38.9092 9.1765
" />
<path d="M38.9092 9.1765
L38.6673 9.2369
" />
<path d="M38.6673 9.2369
L38.4859 9.2369
" />
<path d="M38.4859 9.2369
L38.2440 9.1765
" />
<path d="M38.2440 9.1765
L38.1231 9.1160
" />
<path d="M38.1231 9.1160
L38.0021 8.9950
" />
<path d="M38.0021 8.9950
L37.9416 8.8136
" />
<path d="M37.9416 8.8136
L37.9416 8.6927
" />
<path d="M37.9416 8.6927
L38.0021 8.5112
" />
<path d="M38.0021 8.5112
L38.0626 8.4508
" />
</g></g>
<g style="fill:#A90000; fill-opacity:0.0; 
stroke:#A90000; stroke-width:0.1524; stroke-opacity:1; 
stroke-linecap:round; stroke-linejoin:round;">
<g transform="rotate(-90.000000 38.3781 6.3307)">
<text x="38.3781" y="6.3307"
textLength="1.4127" font-size="1.6933" lengthAdjust="spacingAndGlyphs"
text-anchor="middle" opacity="0">1</text>
</g>
<g class="stroked-text"><desc>1</desc>
<path d="M38.2146 5.9677
L38.2146 6.6934
" />
<path d="M38.2146 6.3306
L36.9446 6.3306
" />
<path d="M36.9446 6.3306
L37.1261 6.4515
" />
<path d="M37.1261 6.4515
L37.2470 6.5725
" />
<path d="M37.2470 6.5725
L37.3075 6.6934
" />
</g></g>
<g style="fill:#840000; fill-opacity:0.0; 
stroke:#840000; stroke-width:0.1524; stroke-opacity:1; 
stroke-linecap:round; stroke-linejoin:round;">
<path d="M51.3321 20.3007
L53.8721 20.3007
" />
</g>
<g style="fill:#006464; fill-opacity:0.0; 
stroke:#006464; stroke-width:0.1524; stroke-opacity:1; 
stroke-linecap:round; stroke-linejoin:round;">
<text x="50.8241" y="20.9357"
textLength="5.6461" font-size="1.6933" lengthAdjust="spacingAndGlyphs"
text-anchor="end" opacity="0">VIDEO</text>
<g class="stroked-text"><desc>VIDEO</desc>
<path d="M45.4019 19.6102
L45.8252 20.8802
" />
<path d="M45.8252 20.8802
L46.2486 19.6102
" />
<path d="M46.6719 20.8802
L46.6719 19.6102
" />
<path d="M47.2767 20.8802
L47.2767 19.6102
" />
<path d="M47.2767 19.6102
L47.5791 19.6102
" />
<path d="M47.5791 19.6102
L47.7605 19.6707
" />
<path d="M47.7605 19.6707
L47.8815 19.7917
" />
<path d="M47.8815 19.7917
L47.9420 19.9126
" />
<path d="M47.9420 19.9126
L48.0024 20.1545
" />
<path d="M48.0024 20.1545
L48.0024 20.3359
" />
<path d="M48.0024 20.3359
L47.9420 20.5778
" />
<path d="M47.9420 20.5778
L47.8815 20.6988
" />
<path d="M47.8815 20.6988
L47.7605 20.8198
" />
<path d="M47.7605 20.8198
L47.5791 20.8802
" />
<path d="M47.5791 20.8802
L47.2767 20.8802
" />
<path d="M48.5467 20.2150
L48.9701 20.2150
" />
<path d="M49.1515 20.8802
L48.5467 20.8802
" />
<path d="M48.5467 20.8802
L48.5467 19.6102
" />
<path d="M48.5467 19.6102
L49.1515 19.6102
" />
<path d="M49.9376 19.6102
L50.1795 19.6102
" />
<path d="M50.1795 19.6102
L50.3005 19.6707
" />
<path d="M50.3005 19.6707
L50.4214 19.7917
" />
<path d="M50.4214 19.7917
L50.4819 20.0336
" />
<path d="M50.4819 20.0336
L50.4819 20.4569
" />
<path d="M50.4819 20.4569
L50.4214 20.6988
" />
<path d="M50.4214 20.6988
L50.3005 20.8198
" />
<path d="M50.3005 20.8198
L50.1795 20.8802
" />
<path d="M50.1795 20.8802
L49.9376 20.8802
" />
<path d="M49.9376 20.8802
L49.8167 20.8198
" />
<path d="M49.8167 20.8198
L49.6957 20.6988
" />
<path d="M49.6957 20.6988
L49.6353 20.4569
" />
<path d="M49.6353 20.4569
L49.6353 20.0336
" />
<path d="M49.6353 20.0336
L49.6957 19.7917
" />
<path d="M49.6957 19.7917
L49.8167 19.6707
" />
<path d="M49.8167 19.6707
L49.9376 19.6102
" />
</g></g>
<g style="fill:#A90000; fill-opacity:0.0; 
stroke:#A90000; stroke-width:0.1524; stroke-opacity:1; 
stroke-linecap:round; stroke-linejoin:round;">
<text x="52.6021" y="20.0467"
textLength="2.6222" font-size="1.6933" lengthAdjust="spacingAndGlyphs"
text-anchor="middle" opacity="0">10</text>
<g class="stroked-text"><desc>10</desc>
<path d="M52.3602 19.8832
L51.6345 19.8832
" />
<path d="M51.9973 19.8832
L51.9973 18.6132
" />
<path d="M51.9973 18.6132
L51.8764 18.7947
" />
<path d="M51.8764 18.7947
L51.7554 18.9156
" />
<path d="M51.7554 18.9156
L51.6345 18.9761
" />
<path d="M53.1463 18.6132
L53.2673 18.6132
" />
<path d="M53.2673 18.6132
L53.3882 18.6737
" />
<path d="M53.3882 18.6737
L53.4487 18.7342
" />
<path d="M53.4487 18.7342
L53.5092 18.8551
" />
<path d="M53.5092 18.8551
L53.5697 19.0970
" />
<path d="M53.5697 19.0970
L53.5697 19.3994
" />
<path d="M53.5697 19.3994
L53.5092 19.6413
" />
<path d="M53.5092 19.6413
L53.4487 19.7623
" />
<path d="M53.4487 19.7623
L53.3882 19.8228
" />
<path d="M53.3882 19.8228
L53.2673 19.8832
" />
<path d="M53.2673 19.8832
L53.1463 19.8832
" />
<path d="M53.1463 19.8832
L53.0254 19.8228
" />
<path d="M53.0254 19.8228
L52.9649 19.7623
" />
<path d="M52.9649 19.7623
L52.9044 19.6413
" />
<path d="M52.9044 19.6413
L52.8440 19.3994
" />
<path d="M52.8440 19.3994
L52.8440 19.0970
" />
<path d="M52.8440 19.0970
L52.9044 18.8551
" />
<path d="M52.9044 18.8551
L52.9649 18.7342
" />
<path d="M52.9649 18.7342
L53.0254 18.6737
" />
<path d="M53.0254 18.6737
L53.1463 18.6132
" />
</g></g>
<g style="fill:#840000; fill-opacity:0.0; 
stroke:#840000; stroke-width:0.1524; stroke-opacity:1; 
stroke-linecap:round; stroke-linejoin:round;">
<path d="M41.1721 27.9207
L41.1721 30.4607
" />
</g>
<g style="fill:#006464; fill-opacity:0.0; 
stroke:#006464; stroke-width:0.1524; stroke-opacity:1; 
stroke-linecap:round; stroke-linejoin:round;">
<g transform="rotate(-90.000000 41.1721 27.4127)">
<text x="41.1721" y="28.0477"
textLength="4.0737" font-size="1.6933" lengthAdjust="spacingAndGlyphs"
text-anchor="start" opacity="0">GND</text>
</g>
<g class="stroked-text"><desc>GND</desc>
<path d="M40.5421 26.3448
L40.4816 26.4658
" />
<path d="M40.4816 26.4658
L40.4816 26.6472
" />
<path d="M40.4816 26.6472
L40.5421 26.8286
" />
<path d="M40.5421 26.8286
L40.6631 26.9496
" />
<path d="M40.6631 26.9496
L40.7840 27.0101
" />
<path d="M40.7840 27.0101
L41.0259 27.0705
" />
<path d="M41.0259 27.0705
L41.2073 27.0705
" />
<path d="M41.2073 27.0705
L41.4492 27.0101
" />
<path d="M41.4492 27.0101
L41.5702 26.9496
" />
<path d="M41.5702 26.9496
L41.6912 26.8286
" />
<path d="M41.6912 26.8286
L41.7516 26.6472
" />
<path d="M41.7516 26.6472
L41.7516 26.5263
" />
<path d="M41.7516 26.5263
L41.6912 26.3448
" />
<path d="M41.6912 26.3448
L41.6307 26.2844
" />
<path d="M41.6307 26.2844
L41.2073 26.2844
" />
<path d="M41.2073 26.2844
L41.2073 26.5263
" />
<path d="M41.7516 25.7401
L40.4816 25.7401
" />
<path d="M40.4816 25.7401
L41.7516 25.0144
" />
<path d="M41.7516 25.0144
L40.4816 25.0144
" />
<path d="M41.7516 24.4096
L40.4816 24.4096
" />
<path d="M40.4816 24.4096
L40.4816 24.1072
" />
<path d="M40.4816 24.1072
L40.5421 23.9258
" />
<path d="M40.5421 23.9258
L40.6631 23.8048
" />
<path d="M40.6631 23.8048
L40.7840 23.7443
" />
<path d="M40.7840 23.7443
L41.0259 23.6839
" />
<path d="M41.0259 23.6839
L41.2073 23.6839
" />
<path d="M41.2073 23.6839
L41.4492 23.7443
" />
<path d="M41.4492 23.7443
L41.5702 23.8048
" />
<path d="M41.5702 23.8048
L41.6912 23.9258
" />
<path d="M41.6912 23.9258
L41.7516 24.1072
" />
<path d="M41.7516 24.1072
L41.7516 24.4096
" />
</g></g>
<g style="fill:#A90000; fill-opacity:0.0; 
stroke:#A90000; stroke-width:0.1524; stroke-opacity:1; 
stroke-linecap:round; stroke-linejoin:round;">
<g transform="rotate(-90.000000 40.9181 29.1907)">
<text x="40.9181" y="29.1907"
textLength="1.4127" font-size="1.6933" lengthAdjust="spacingAndGlyphs"
text-anchor="middle" opacity="0">2</text>
</g>
<g class="stroked-text"><desc>2</desc>
<path d="M39.6056 29.5534
L39.5451 29.4930
" />
<path d="M39.5451 29.4930
L39.4846 29.3720
" />
<path d="M39.4846 29.3720
L39.4846 29.0696
" />
<path d="M39.4846 29.0696
L39.5451 28.9487
" />
<path d="M39.5451 28.9487
L39.6056 28.8882
" />
<path d="M39.6056 28.8882
L39.7265 28.8277
" />
<path d="M39.7265 28.8277
L39.8475 28.8277
" />
<path d="M39.8475 28.8277
L40.0289 28.8882
" />
<path d="M40.0289 28.8882
L40.7546 29.6139
" />
<path d="M40.7546 29.6139
L40.7546 28.8277
" />
</g></g>
<g style="fill:#840000; fill-opacity:0.0; 
stroke:#840000; stroke-width:0.1524; stroke-opacity:1; 
stroke-linecap:round; stroke-linejoin:round;">
<path d="M41.1721 7.6007
L41.1721 5.0607
" />
</g>
<g style="fill:#006464; fill-opacity:0.0; 
stroke:#006464; stroke-width:0.1524; stroke-opacity:1; 
stroke-linecap:round; stroke-linejoin:round;">
<g transform="rotate(-90.000000 41.1721 8.1087)">
<text x="41.1721" y="8.7437"
textLength="3.8318" font-size="1.6933" lengthAdjust="spacingAndGlyphs"
text-anchor="end" opacity="0">VCC</text>
</g>
<g class="stroked-text"><desc>VCC</desc>
<path d="M40.4816 11.7165
L41.7516 11.2932
" />
<path d="M41.7516 11.2932
L40.4816 10.8698
" />
<path d="M41.6307 9.7208
L41.6912 9.7812
" />
<path d="M41.6912 9.7812
L41.7516 9.9627
" />
<path d="M41.7516 9.9627
L41.7516 10.0836
" />
<path d="M41.7516 10.0836
L41.6912 10.2650
" />
<path d="M41.6912 10.2650
L41.5702 10.3860
" />
<path d="M41.5702 10.3860
L41.4492 10.4465
" />
<path d="M41.4492 10.4465
L41.2073 10.5069
" />
<path d="M41.2073 10.5069
L41.0259 10.5069
" />
<path d="M41.0259 10.5069
L40.7840 10.4465
" />
<path d="M40.7840 10.4465
L40.6631 10.3860
" />
<path d="M40.6631 10.3860
L40.5421 10.2650
" />
<path d="M40.5421 10.2650
L40.4816 10.0836
" />
<path d="M40.4816 10.0836
L40.4816 9.9627
" />
<path d="M40.4816 9.9627
L40.5421 9.7812
" />
<path d="M40.5421 9.7812
L40.6026 9.7208
" />
<path d="M41.6307 8.4508
L41.6912 8.5112
" />
<path d="M41.6912 8.5112
L41.7516 8.6927
" />
<path d="M41.7516 8.6927
L41.7516 8.8136
" />
<path d="M41.7516 8.8136
L41.6912 8.9950
" />
<path d="M41.6912 8.9950
L41.5702 9.1160
" />
<path d="M41.5702 9.1160
L41.4492 9.1765
" />
<path d="M41.4492 9.1765
L41.2073 9.2369
" />
<path d="M41.2073 9.2369
L41.0259 9.2369
" />
<path d="M41.0259 9.2369
L40.7840 9.1765
" />
<path d="M40.7840 9.1765
L40.6631 9.1160
" />
<path d="M40.6631 9.1160
L40.5421 8.9950
" />
<path d="M40.5421 8.9950
L40.4816 8.8136
" />
<path d="M40.4816 8.8136
L40.4816 8.6927
" />
<path d="M40.4816 8.6927
L40.5421 8.5112
" />
<path d="M40.5421 8.5112
L40.6026 8.4508
" />
</g></g>
<g style="fill:#A90000; fill-opacity:0.0; 
stroke:#A90000; stroke-width:0.1524; stroke-opacity:1; 
stroke-linecap:round; stroke-linejoin:round;">
<g transform="rotate(-90.000000 40.9181 6.3307)">
<text x="40.9181" y="6.3307"
textLength="1.4127" font-size="1.6933" lengthAdjust="spacingAndGlyphs"
text-anchor="middle" opacity="0">3</text>
</g>
<g class="stroked-text"><desc>3</desc>
<path d="M39.4846 6.7539
L39.4846 5.9677
" />
<path d="M39.4846 5.9677
L39.9684 6.3911
" />
<path d="M39.9684 6.3911
L39.9684 6.2096
" />
<path d="M39.9684 6.2096
L40.0289 6.0887
" />
<path d="M40.0289 6.0887
L40.0894 6.0282
" />
<path d="M40.0894 6.0282
L40.2103 5.9677
" />
<path d="M40.2103 5.9677
L40.5127 5.9677
" />
<path d="M40.5127 5.9677
L40.6337 6.0282
" />
<path d="M40.6337 6.0282
L40.6942 6.0887
" />
<path d="M40.6942 6.0887
L40.7546 6.2096
" />
<path d="M40.7546 6.2096
L40.7546 6.5725
" />
<path d="M40.7546 6.5725
L40.6942 6.6934
" />
<path d="M40.6942 6.6934
L40.6337 6.7539
" />
</g></g>
<g style="fill:#840000; fill-opacity:0.0; 
stroke:#840000; stroke-width:0.1524; stroke-opacity:1; 
stroke-linecap:round; stroke-linejoin:round;">
<path d="M36.0921 15.2207
L33.5521 15.2207
" />
</g>
<g style="fill:#006464; fill-opacity:0.0; 
stroke:#006464; stroke-width:0.1524; stroke-opacity:1; 
stroke-linecap:round; stroke-linejoin:round;">
<text x="36.6001" y="15.8557"
textLength="3.7713" font-size="1.6933" lengthAdjust="spacingAndGlyphs"
text-anchor="start" opacity="0">CLK</text>
<g class="stroked-text"><desc>CLK</desc>
<path d="M37.7283 15.6793
L37.6679 15.7398
" />
<path d="M37.6679 15.7398
L37.4864 15.8002
" />
<path d="M37.4864 15.8002
L37.3655 15.8002
" />
<path d="M37.3655 15.8002
L37.1841 15.7398
" />
<path d="M37.1841 15.7398
L37.0631 15.6188
" />
<path d="M37.0631 15.6188
L37.0026 15.4978
" />
<path d="M37.0026 15.4978
L36.9422 15.2559
" />
<path d="M36.9422 15.2559
L36.9422 15.0745
" />
<path d="M36.9422 15.0745
L37.0026 14.8326
" />
<path d="M37.0026 14.8326
L37.0631 14.7117
" />
<path d="M37.0631 14.7117
L37.1841 14.5907
" />
<path d="M37.1841 14.5907
L37.3655 14.5302
" />
<path d="M37.3655 14.5302
L37.4864 14.5302
" />
<path d="M37.4864 14.5302
L37.6679 14.5907
" />
<path d="M37.6679 14.5907
L37.7283 14.6512
" />
<path d="M38.8774 15.8002
L38.2726 15.8002
" />
<path d="M38.2726 15.8002
L38.2726 14.5302
" />
<path d="M39.3007 15.8002
L39.3007 14.5302
" />
<path d="M40.0264 15.8002
L39.4822 15.0745
" />
<path d="M40.0264 14.5302
L39.3007 15.2559
" />
</g></g>
<g style="fill:#A90000; fill-opacity:0.0; 
stroke:#A90000; stroke-width:0.1524; stroke-opacity:1; 
stroke-linecap:round; stroke-linejoin:round;">
<text x="34.8221" y="14.9667"
textLength="1.4127" font-size="1.6933" lengthAdjust="spacingAndGlyphs"
text-anchor="middle" opacity="0">4</text>
<g class="stroked-text"><desc>4</desc>
<path d="M35.0640 13.9566
L35.0640 14.8032
" />
<path d="M34.7616 13.4728
L34.4593 14.3799
" />
<path d="M34.4593 14.3799
L35.2454 14.3799
" />
</g></g>
<g style="fill:#840000; fill-opacity:0.0; 
stroke:#840000; stroke-width:0.1524; stroke-opacity:1; 
stroke-linecap:round; stroke-linejoin:round;">
<path d="M46.2521 27.9207
L46.2521 30.4607
" />
</g>
<g style="fill:#006464; fill-opacity:0.0; 
stroke:#006464; stroke-width:0.1524; stroke-opacity:1; 
stroke-linecap:round; stroke-linejoin:round;">
<g transform="rotate(-90.000000 46.2521 27.4127)">
<text x="46.2521" y="28.0477"
textLength="4.9203" font-size="1.6933" lengthAdjust="spacingAndGlyphs"
text-anchor="start" opacity="0">CASE</text>
</g>
<g class="stroked-text"><desc>CASE</desc>
<path d="M46.7107 26.2844
L46.7712 26.3448
" />
<path d="M46.7712 26.3448
L46.8316 26.5263
" />
<path d="M46.8316 26.5263
L46.8316 26.6472
" />
<path d="M46.8316 26.6472
L46.7712 26.8286
" />
<path d="M46.7712 26.8286
L46.6502 26.9496
" />
<path d="M46.6502 26.9496
L46.5292 27.0101
" />
<path d="M46.5292 27.0101
L46.2873 27.0705
" />
<path d="M46.2873 27.0705
L46.1059 27.0705
" />
<path d="M46.1059 27.0705
L45.8640 27.0101
" />
<path d="M45.8640 27.0101
L45.7431 26.9496
" />
<path d="M45.7431 26.9496
L45.6221 26.8286
" />
<path d="M45.6221 26.8286
L45.5616 26.6472
" />
<path d="M45.5616 26.6472
L45.5616 26.5263
" />
<path d="M45.5616 26.5263
L45.6221 26.3448
" />
<path d="M45.6221 26.3448
L45.6826 26.2844
" />
<path d="M46.4688 25.8005
L46.4688 25.1958
" />
<path d="M46.8316 25.9215
L45.5616 25.4982
" />
<path d="M45.5616 25.4982
L46.8316 25.0748
" />
<path d="M46.7712 24.7119
L46.8316 24.5305
" />
<path d="M46.8316 24.5305
L46.8316 24.2281
" />
<path d="M46.8316 24.2281
L46.7712 24.1072
" />
<path d="M46.7712 24.1072
L46.7107 24.0467
" />
<path d="M46.7107 24.0467
L46.5897 23.9862
" />
<path d="M46.5897 23.9862
L46.4688 23.9862
" />
<path d="M46.4688 23.9862
L46.3478 24.0467
" />
<path d="M46.3478 24.0467
L46.2873 24.1072
" />
<path d="M46.2873 24.1072
L46.2269 24.2281
" />
<path d="M46.2269 24.2281
L46.1664 24.4700
" />
<path d="M46.1664 24.4700
L46.1059 24.5910
" />
<path d="M46.1059 24.5910
L46.0454 24.6515
" />
<path d="M46.0454 24.6515
L45.9245 24.7119
" />
<path d="M45.9245 24.7119
L45.8035 24.7119
" />
<path d="M45.8035 24.7119
L45.6826 24.6515
" />
<path d="M45.6826 24.6515
L45.6221 24.5910
" />
<path d="M45.6221 24.5910
L45.5616 24.4700
" />
<path d="M45.5616 24.4700
L45.5616 24.1677
" />
<path d="M45.5616 24.1677
L45.6221 23.9862
" />
<path d="M46.1664 23.4420
L46.1664 23.0186
" />
<path d="M46.8316 22.8372
L46.8316 23.4420
" />
<path d="M46.8316 23.4420
L45.5616 23.4420
" />
<path d="M45.5616 23.4420
L45.5616 22.8372
" />
</g></g>
<g style="fill:#A90000; fill-opacity:0.0; 
stroke:#A90000; stroke-width:0.1524; stroke-opacity:1; 
stroke-linecap:round; stroke-linejoin:round;">
<g transform="rotate(-90.000000 45.9981 29.1907)">
<text x="45.9981" y="29.1907"
textLength="1.4127" font-size="1.6933" lengthAdjust="spacingAndGlyphs"
text-anchor="middle" opacity="0">5</text>
</g>
<g class="stroked-text"><desc>5</desc>
<path d="M44.5646 28.8882
L44.5646 29.4930
" />
<path d="M44.5646 29.4930
L45.1694 29.5534
" />
<path d="M45.1694 29.5534
L45.1089 29.4930
" />
<path d="M45.1089 29.4930
L45.0484 29.3720
" />
<path d="M45.0484 29.3720
L45.0484 29.0696
" />
<path d="M45.0484 29.0696
L45.1089 28.9487
" />
<path d="M45.1089 28.9487
L45.1694 28.8882
" />
<path d="M45.1694 28.8882
L45.2903 28.8277
" />
<path d="M45.2903 28.8277
L45.5927 28.8277
" />
<path d="M45.5927 28.8277
L45.7137 28.8882
" />
<path d="M45.7137 28.8882
L45.7742 28.9487
" />
<path d="M45.7742 28.9487
L45.8346 29.0696
" />
<path d="M45.8346 29.0696
L45.8346 29.3720
" />
<path d="M45.8346 29.3720
L45.7742 29.4930
" />
<path d="M45.7742 29.4930
L45.7137 29.5534
" />
</g></g>
<g style="fill:#840000; fill-opacity:0.0; 
stroke:#840000; stroke-width:0.1524; stroke-opacity:1; 
stroke-linecap:round; stroke-linejoin:round;">
<path d="M36.0921 17.7607
L33.5521 17.7607
" />
</g>
<g style="fill:#006464; fill-opacity:0.0; 
stroke:#006464; stroke-width:0.1524; stroke-opacity:1; 
stroke-linecap:round; stroke-linejoin:round;">
<text x="36.6001" y="18.3957"
textLength="2.3803" font-size="1.6933" lengthAdjust="spacingAndGlyphs"
text-anchor="start" opacity="0">ST</text>
<g class="stroked-text"><desc>ST</desc>
<path d="M36.9422 18.2798
L37.1236 18.3402
" />
<path d="M37.1236 18.3402
L37.4260 18.3402
" />
<path d="M37.4260 18.3402
L37.5469 18.2798
" />
<path d="M37.5469 18.2798
L37.6074 18.2193
" />
<path d="M37.6074 18.2193
L37.6679 18.0983
" />
<path d="M37.6679 18.0983
L37.6679 17.9774
" />
<path d="M37.6679 17.9774
L37.6074 17.8564
" />
<path d="M37.6074 17.8564
L37.5469 17.7959
" />
<path d="M37.5469 17.7959
L37.4260 17.7355
" />
<path d="M37.4260 17.7355
L37.1841 17.6750
" />
<path d="M37.1841 17.6750
L37.0631 17.6145
" />
<path d="M37.0631 17.6145
L37.0026 17.5540
" />
<path d="M37.0026 17.5540
L36.9422 17.4331
" />
<path d="M36.9422 17.4331
L36.9422 17.3121
" />
<path d="M36.9422 17.3121
L37.0026 17.1912
" />
<path d="M37.0026 17.1912
L37.0631 17.1307
" />
<path d="M37.0631 17.1307
L37.1841 17.0702
" />
<path d="M37.1841 17.0702
L37.4864 17.0702
" />
<path d="M37.4864 17.0702
L37.6679 17.1307
" />
<path d="M38.0307 17.0702
L38.7564 17.0702
" />
<path d="M38.3936 18.3402
L38.3936 17.0702
" />
</g></g>
<g style="fill:#A90000; fill-opacity:0.0; 
stroke:#A90000; stroke-width:0.1524; stroke-opacity:1; 
stroke-linecap:round; stroke-linejoin:round;">
<text x="34.8221" y="17.5067"
textLength="1.4127" font-size="1.6933" lengthAdjust="spacingAndGlyphs"
text-anchor="middle" opacity="0">6</text>
<g class="stroked-text"><desc>6</desc>
<path d="M35.0640 16.0732
L34.8221 16.0732
" />
<path d="M34.8221 16.0732
L34.7012 16.1337
" />
<path d="M34.7012 16.1337
L34.6407 16.1942
" />
<path d="M34.6407 16.1942
L34.5197 16.3756
" />
<path d="M34.5197 16.3756
L34.4593 16.6175
" />
<path d="M34.4593 16.6175
L34.4593 17.1013
" />
<path d="M34.4593 17.1013
L34.5197 17.2223
" />
<path d="M34.5197 17.2223
L34.5802 17.2828
" />
<path d="M34.5802 17.2828
L34.7012 17.3432
" />
<path d="M34.7012 17.3432
L34.9431 17.3432
" />
<path d="M34.9431 17.3432
L35.0640 17.2828
" />
<path d="M35.0640 17.2828
L35.1245 17.2223
" />
<path d="M35.1245 17.2223
L35.1850 17.1013
" />
<path d="M35.1850 17.1013
L35.1850 16.7989
" />
<path d="M35.1850 16.7989
L35.1245 16.6780
" />
<path d="M35.1245 16.6780
L35.0640 16.6175
" />
<path d="M35.0640 16.6175
L34.9431 16.5570
" />
<path d="M34.9431 16.5570
L34.7012 16.5570
" />
<path d="M34.7012 16.5570
L34.5802 16.6175
" />
<path d="M34.5802 16.6175
L34.5197 16.6780
" />
<path d="M34.5197 16.6780
L34.4593 16.7989
" />
</g></g>
<g style="fill:#840000; fill-opacity:0.0; 
stroke:#840000; stroke-width:0.1524; stroke-opacity:1; 
stroke-linecap:round; stroke-linejoin:round;">
<path d="M51.3321 15.2207
L53.8721 15.2207
" />
</g>
<g style="fill:#006464; fill-opacity:0.0; 
stroke:#006464; stroke-width:0.1524; stroke-opacity:1; 
stroke-linecap:round; stroke-linejoin:round;">
<text x="50.8241" y="15.8557"
textLength="3.7108" font-size="1.6933" lengthAdjust="spacingAndGlyphs"
text-anchor="end" opacity="0">TRG</text>
<g class="stroked-text"><desc>TRG</desc>
<path d="M47.3372 14.5302
L48.0629 14.5302
" />
<path d="M47.7001 15.8002
L47.7001 14.5302
" />
<path d="M49.2119 15.8002
L48.7886 15.1955
" />
<path d="M48.4862 15.8002
L48.4862 14.5302
" />
<path d="M48.4862 14.5302
L48.9700 14.5302
" />
<path d="M48.9700 14.5302
L49.0910 14.5907
" />
<path d="M49.0910 14.5907
L49.1515 14.6512
" />
<path d="M49.1515 14.6512
L49.2119 14.7721
" />
<path d="M49.2119 14.7721
L49.2119 14.9536
" />
<path d="M49.2119 14.9536
L49.1515 15.0745
" />
<path d="M49.1515 15.0745
L49.0910 15.1350
" />
<path d="M49.0910 15.1350
L48.9700 15.1955
" />
<path d="M48.9700 15.1955
L48.4862 15.1955
" />
<path d="M50.4215 14.5907
L50.3005 14.5302
" />
<path d="M50.3005 14.5302
L50.1191 14.5302
" />
<path d="M50.1191 14.5302
L49.9377 14.5907
" />
<path d="M49.9377 14.5907
L49.8167 14.7117
" />
<path d="M49.8167 14.7117
L49.7562 14.8326
" />
<path d="M49.7562 14.8326
L49.6958 15.0745
" />
<path d="M49.6958 15.0745
L49.6958 15.2559
" />
<path d="M49.6958 15.2559
L49.7562 15.4978
" />
<path d="M49.7562 15.4978
L49.8167 15.6188
" />
<path d="M49.8167 15.6188
L49.9377 15.7398
" />
<path d="M49.9377 15.7398
L50.1191 15.8002
" />
<path d="M50.1191 15.8002
L50.2400 15.8002
" />
<path d="M50.2400 15.8002
L50.4215 15.7398
" />
<path d="M50.4215 15.7398
L50.4819 15.6793
" />
<path d="M50.4819 15.6793
L50.4819 15.2559
" />
<path d="M50.4819 15.2559
L50.2400 15.2559
" />
</g></g>
<g style="fill:#A90000; fill-opacity:0.0; 
stroke:#A90000; stroke-width:0.1524; stroke-opacity:1; 
stroke-linecap:round; stroke-linejoin:round;">
<text x="52.6021" y="14.9667"
textLength="1.4127" font-size="1.6933" lengthAdjust="spacingAndGlyphs"
text-anchor="middle" opacity="0">7</text>
<g class="stroked-text"><desc>7</desc>
<path d="M52.1788 13.5332
L53.0254 13.5332
" />
<path d="M53.0254 13.5332
L52.4812 14.8032
" />
</g></g>
<g style="fill:#840000; fill-opacity:0.0; 
stroke:#840000; stroke-width:0.1524; stroke-opacity:1; 
stroke-linecap:round; stroke-linejoin:round;">
<path d="M51.3321 17.7607
L53.8721 17.7607
" />
</g>
<g style="fill:#006464; fill-opacity:0.0; 
stroke:#006464; stroke-width:0.1524; stroke-opacity:1; 
stroke-linecap:round; stroke-linejoin:round;">
<text x="50.8241" y="18.3957"
textLength="3.8922" font-size="1.6933" lengthAdjust="spacingAndGlyphs"
text-anchor="end" opacity="0">EOS</text>
<g class="stroked-text"><desc>EOS</desc>
<path d="M47.3372 17.6750
L47.7606 17.6750
" />
<path d="M47.9420 18.3402
L47.3372 18.3402
" />
<path d="M47.3372 18.3402
L47.3372 17.0702
" />
<path d="M47.3372 17.0702
L47.9420 17.0702
" />
<path d="M48.7281 17.0702
L48.9700 17.0702
" />
<path d="M48.9700 17.0702
L49.0910 17.1307
" />
<path d="M49.0910 17.1307
L49.2119 17.2517
" />
<path d="M49.2119 17.2517
L49.2724 17.4936
" />
<path d="M49.2724 17.4936
L49.2724 17.9169
" />
<path d="M49.2724 17.9169
L49.2119 18.1588
" />
<path d="M49.2119 18.1588
L49.0910 18.2798
" />
<path d="M49.0910 18.2798
L48.9700 18.3402
" />
<path d="M48.9700 18.3402
L48.7281 18.3402
" />
<path d="M48.7281 18.3402
L48.6072 18.2798
" />
<path d="M48.6072 18.2798
L48.4862 18.1588
" />
<path d="M48.4862 18.1588
L48.4258 17.9169
" />
<path d="M48.4258 17.9169
L48.4258 17.4936
" />
<path d="M48.4258 17.4936
L48.4862 17.2517
" />
<path d="M48.4862 17.2517
L48.6072 17.1307
" />
<path d="M48.6072 17.1307
L48.7281 17.0702
" />
<path d="M49.7563 18.2798
L49.9377 18.3402
" />
<path d="M49.9377 18.3402
L50.2401 18.3402
" />
<path d="M50.2401 18.3402
L50.3610 18.2798
" />
<path d="M50.3610 18.2798
L50.4215 18.2193
" />
<path d="M50.4215 18.2193
L50.4820 18.0983
" />
<path d="M50.4820 18.0983
L50.4820 17.9774
" />
<path d="M50.4820 17.9774
L50.4215 17.8564
" />
<path d="M50.4215 17.8564
L50.3610 17.7959
" />
<path d="M50.3610 17.7959
L50.2401 17.7355
" />
<path d="M50.2401 17.7355
L49.9982 17.6750
" />
<path d="M49.9982 17.6750
L49.8772 17.6145
" />
<path d="M49.8772 17.6145
L49.8167 17.5540
" />
<path d="M49.8167 17.5540
L49.7563 17.4331
" />
<path d="M49.7563 17.4331
L49.7563 17.3121
" />
<path d="M49.7563 17.3121
L49.8167 17.1912
" />
<path d="M49.8167 17.1912
L49.8772 17.1307
" />
<path d="M49.8772 17.1307
L49.9982 17.0702
" />
<path d="M49.9982 17.0702
L50.3005 17.0702
" />
<path d="M50.3005 17.0702
L50.4820 17.1307
" />
</g></g>
<g style="fill:#A90000; fill-opacity:0.0; 
stroke:#A90000; stroke-width:0.1524; stroke-opacity:1; 
stroke-linecap:round; stroke-linejoin:round;">
<text x="52.6021" y="17.5067"
textLength="1.4127" font-size="1.6933" lengthAdjust="spacingAndGlyphs"
text-anchor="middle" opacity="0">9</text>
<g class="stroked-text"><desc>9</desc>
<path d="M52.3602 17.3432
L52.6021 17.3432
" />
<path d="M52.6021 17.3432
L52.7231 17.2828
" />
<path d="M52.7231 17.2828
L52.7835 17.2223
" />
<path d="M52.7835 17.2223
L52.9045 17.0408
" />
<path d="M52.9045 17.0408
L52.9650 16.7989
" />
<path d="M52.9650 16.7989
L52.9650 16.3151
" />
<path d="M52.9650 16.3151
L52.9045 16.1942
" />
<path d="M52.9045 16.1942
L52.8440 16.1337
" />
<path d="M52.8440 16.1337
L52.7231 16.0732
" />
<path d="M52.7231 16.0732
L52.4812 16.0732
" />
<path d="M52.4812 16.0732
L52.3602 16.1337
" />
<path d="M52.3602 16.1337
L52.2997 16.1942
" />
<path d="M52.2997 16.1942
L52.2393 16.3151
" />
<path d="M52.2393 16.3151
L52.2393 16.6175
" />
<path d="M52.2393 16.6175
L52.2997 16.7385
" />
<path d="M52.2997 16.7385
L52.3602 16.7989
" />
<path d="M52.3602 16.7989
L52.4812 16.8594
" />
<path d="M52.4812 16.8594
L52.7231 16.8594
" />
<path d="M52.7231 16.8594
L52.8440 16.7989
" />
<path d="M52.8440 16.7989
L52.9045 16.7385
" />
<path d="M52.9045 16.7385
L52.9650 16.6175
" />
</g></g>
<g style="fill:#840084; fill-opacity:0.0; 
stroke:#840084; stroke-width:0.1524; stroke-opacity:1; 
stroke-linecap:round; stroke-linejoin:round;">
</g>
<g style="fill:#006464; fill-opacity:0.0; 
stroke:#006464; stroke-width:0.1524; stroke-opacity:1; 
stroke-linecap:round; stroke-linejoin:round;">
</g>
<g style="fill:#006464; fill-opacity:0.0; 
stroke:#006464; stroke-width:0.1588; stroke-opacity:1; 
stroke-linecap:round; stroke-linejoin:round;">
<text x="45.0328" y="4.4257"
textLength="2.6415" font-size="1.6933" lengthAdjust="spacingAndGlyphs"
text-anchor="middle" opacity="0">U?</text>
<g class="stroked-text"><desc>U?</desc>
<path d="M44.1256 3.0999
L44.1256 4.1280
" />
<path d="M44.1256 4.1280
L44.1861 4.2490
" />
<path d="M44.1861 4.2490
L44.2466 4.3095
" />
<path d="M44.2466 4.3095
L44.3675 4.3699
" />
<path d="M44.3675 4.3699
L44.6094 4.3699
" />
<path d="M44.6094 4.3699
L44.7304 4.3095
" />
<path d="M44.7304 4.3095
L44.7909 4.2490
" />
<path d="M44.7909 4.2490
L44.8513 4.1280
" />
<path d="M44.8513 4.1280
L44.8513 3.0999
" />
<path d="M45.6376 4.2490
L45.6980 4.3095
" />
<path d="M45.6980 4.3095
L45.6376 4.3699
" />
<path d="M45.6376 4.3699
L45.5771 4.3095
" />
<path d="M45.5771 4.3095
L45.6376 4.2490
" />
<path d="M45.6376 4.2490
L45.6376 4.3699
" />
<path d="M45.3957 3.1604
L45.5166 3.0999
" />
<path d="M45.5166 3.0999
L45.8190 3.0999
" />
<path d="M45.8190 3.0999
L45.9399 3.1604
" />
<path d="M45.9399 3.1604
L46.0004 3.2814
" />
<path d="M46.0004 3.2814
L46.0004 3.4023
" />
<path d="M46.0004 3.4023
L45.9399 3.5233
" />
<path d="M45.9399 3.5233
L45.8795 3.5837
" />
<path d="M45.8795 3.5837
L45.7585 3.6442
" />
<path d="M45.7585 3.6442
L45.6980 3.7047
" />
<path d="M45.6980 3.7047
L45.6376 3.8256
" />
<path d="M45.6376 3.8256
L45.6376 3.8861
" />
</g><text x="48.7520" y="6.9657"
textLength="10.0799" font-size="1.6933" lengthAdjust="spacingAndGlyphs"
text-anchor="middle" opacity="0">C12880MA</text>
<g class="stroked-text"><desc>C12880MA</desc>
<path d="M44.8513 6.7890
L44.7909 6.8495
" />
<path d="M44.7909 6.8495
L44.6094 6.9099
" />
<path d="M44.6094 6.9099
L44.4885 6.9099
" />
<path d="M44.4885 6.9099
L44.3071 6.8495
" />
<path d="M44.3071 6.8495
L44.1861 6.7285
" />
<path d="M44.1861 6.7285
L44.1256 6.6075
" />
<path d="M44.1256 6.6075
L44.0652 6.3656
" />
<path d="M44.0652 6.3656
L44.0652 6.1842
" />
<path d="M44.0652 6.1842
L44.1256 5.9423
" />
<path d="M44.1256 5.9423
L44.1861 5.8214
" />
<path d="M44.1861 5.8214
L44.3071 5.7004
" />
<path d="M44.3071 5.7004
L44.4885 5.6399
" />
<path d="M44.4885 5.6399
L44.6094 5.6399
" />
<path d="M44.6094 5.6399
L44.7909 5.7004
" />
<path d="M44.7909 5.7004
L44.8513 5.7609
" />
<path d="M46.0609 6.9099
L45.3352 6.9099
" />
<path d="M45.6980 6.9099
L45.6980 5.6399
" />
<path d="M45.6980 5.6399
L45.5771 5.8214
" />
<path d="M45.5771 5.8214
L45.4561 5.9423
" />
<path d="M45.4561 5.9423
L45.3352 6.0028
" />
<path d="M46.5447 5.7609
L46.6051 5.7004
" />
<path d="M46.6051 5.7004
L46.7261 5.6399
" />
<path d="M46.7261 5.6399
L47.0285 5.6399
" />
<path d="M47.0285 5.6399
L47.1494 5.7004
" />
<path d="M47.1494 5.7004
L47.2099 5.7609
" />
<path d="M47.2099 5.7609
L47.2704 5.8818
" />
<path d="M47.2704 5.8818
L47.2704 6.0028
" />
<path d="M47.2704 6.0028
L47.2099 6.1842
" />
<path d="M47.2099 6.1842
L46.4842 6.9099
" />
<path d="M46.4842 6.9099
L47.2704 6.9099
" />
<path d="M47.9961 6.1842
L47.8751 6.1237
" />
<path d="M47.8751 6.1237
L47.8146 6.0633
" />
<path d="M47.8146 6.0633
L47.7542 5.9423
" />
<path d="M47.7542 5.9423
L47.7542 5.8818
" />
<path d="M47.7542 5.8818
L47.8146 5.7609
" />
<path d="M47.8146 5.7609
L47.8751 5.7004
" />
<path d="M47.8751 5.7004
L47.9961 5.6399
" />
<path d="M47.9961 5.6399
L48.2380 5.6399
" />
<path d="M48.2380 5.6399
L48.3589 5.7004
" />
<path d="M48.3589 5.7004
L48.4194 5.7609
" />
<path d="M48.4194 5.7609
L48.4799 5.8818
" />
<path d="M48.4799 5.8818
L48.4799 5.9423
" />
<path d="M48.4799 5.9423
L48.4194 6.0633
" />
<path d="M48.4194 6.0633
L48.3589 6.1237
" />
<path d="M48.3589 6.1237
L48.2380 6.1842
" />
<path d="M48.2380 6.1842
L47.9961 6.1842
" />
<path d="M47.9961 6.1842
L47.8751 6.2447
" />
<path d="M47.8751 6.2447
L47.8146 6.3052
" />
<path d="M47.8146 6.3052
L47.7542 6.4261
" />
<path d="M47.7542 6.4261
L47.7542 6.6680
" />
<path d="M47.7542 6.6680
L47.8146 6.7890
" />
<path d="M47.8146 6.7890
L47.8751 6.8495
" />
<path d="M47.8751 6.8495
L47.9961 6.9099
" />
<path d="M47.9961 6.9099
L48.2380 6.9099
" />
<path d="M48.2380 6.9099
L48.3589 6.8495
" />
<path d="M48.3589 6.8495
L48.4194 6.7890
" />
<path d="M48.4194 6.7890
L48.4799 6.6680
" />
<path d="M48.4799 6.6680
L48.4799 6.4261
" />
<path d="M48.4799 6.4261
L48.4194 6.3052
" />
<path d="M48.4194 6.3052
L48.3589 6.2447
" />
<path d="M48.3589 6.2447
L48.2380 6.1842
" />
<path d="M49.2056 6.1842
L49.0846 6.1237
" />
<path d="M49.0846 6.1237
L49.0241 6.0633
" />
<path d="M49.0241 6.0633
L48.9637 5.9423
" />
<path d="M48.9637 5.9423
L48.9637 5.8818
" />
<path d="M48.9637 5.8818
L49.0241 5.7609
" />
<path d="M49.0241 5.7609
L49.0846 5.7004
" />
<path d="M49.0846 5.7004
L49.2056 5.6399
" />
<path d="M49.2056 5.6399
L49.4475 5.6399
" />
<path d="M49.4475 5.6399
L49.5684 5.7004
" />
<path d="M49.5684 5.7004
L49.6289 5.7609
" />
<path d="M49.6289 5.7609
L49.6894 5.8818
" />
<path d="M49.6894 5.8818
L49.6894 5.9423
" />
<path d="M49.6894 5.9423
L49.6289 6.0633
" />
<path d="M49.6289 6.0633
L49.5684 6.1237
" />
<path d="M49.5684 6.1237
L49.4475 6.1842
" />
<path d="M49.4475 6.1842
L49.2056 6.1842
" />
<path d="M49.2056 6.1842
L49.0846 6.2447
" />
<path d="M49.0846 6.2447
L49.0241 6.3052
" />
<path d="M49.0241 6.3052
L48.9637 6.4261
" />
<path d="M48.9637 6.4261
L48.9637 6.6680
" />
<path d="M48.9637 6.6680
L49.0241 6.7890
" />
<path d="M49.0241 6.7890
L49.0846 6.8495
" />
<path d="M49.0846 6.8495
L49.2056 6.9099
" />
<path d="M49.2056 6.9099
L49.4475 6.9099
" />
<path d="M49.4475 6.9099
L49.5684 6.8495
" />
<path d="M49.5684 6.8495
L49.6289 6.7890
" />
<path d="M49.6289 6.7890
L49.6894 6.6680
" />
<path d="M49.6894 6.6680
L49.6894 6.4261
" />
<path d="M49.6894 6.4261
L49.6289 6.3052
" />
<path d="M49.6289 6.3052
L49.5684 6.2447
" />
<path d="M49.5684 6.2447
L49.4475 6.1842
" />
<path d="M50.4755 5.6399
L50.5965 5.6399
" />
<path d="M50.5965 5.6399
L50.7174 5.7004
" />
<path d="M50.7174 5.7004
L50.7779 5.7609
" />
<path d="M50.7779 5.7609
L50.8384 5.8818
" />
<path d="M50.8384 5.8818
L50.8989 6.1237
" />
<path d="M50.8989 6.1237
L50.8989 6.4261
" />
<path d="M50.8989 6.4261
L50.8384 6.6680
" />
<path d="M50.8384 6.6680
L50.7779 6.7890
" />
<path d="M50.7779 6.7890
L50.7174 6.8495
" />
<path d="M50.7174 6.8495
L50.5965 6.9099
" />
<path d="M50.5965 6.9099
L50.4755 6.9099
" />
<path d="M50.4755 6.9099
L50.3546 6.8495
" />
<path d="M50.3546 6.8495
L50.2941 6.7890
" />
<path d="M50.2941 6.7890
L50.2336 6.6680
" />
<path d="M50.2336 6.6680
L50.1732 6.4261
" />
<path d="M50.1732 6.4261
L50.1732 6.1237
" />
<path d="M50.1732 6.1237
L50.2336 5.8818
" />
<path d="M50.2336 5.8818
L50.2941 5.7609
" />
<path d="M50.2941 5.7609
L50.3546 5.7004
" />
<path d="M50.3546 5.7004
L50.4755 5.6399
" />
<path d="M51.4431 6.9099
L51.4431 5.6399
" />
<path d="M51.4431 5.6399
L51.8665 6.5471
" />
<path d="M51.8665 6.5471
L52.2898 5.6399
" />
<path d="M52.2898 5.6399
L52.2898 6.9099
" />
<path d="M52.8341 6.5471
L53.4388 6.5471
" />
<path d="M52.7131 6.9099
L53.1364 5.6399
" />
<path d="M53.1364 5.6399
L53.5598 6.9099
" />
</g></g>
<g style="fill:#840084; fill-opacity:0.0; 
stroke:#840084; stroke-width:0.1588; stroke-opacity:1; 
stroke-linecap:round; stroke-linejoin:round;">
<text x="41.1721" y="6.9657"
textLength="30.6416" font-size="1.6933" lengthAdjust="spacingAndGlyphs"
text-anchor="middle" opacity="0">OptoDevice:Hamamatsu_C12880</text>
<g class="stroked-text"><desc>OptoDevice:Hamamatsu_C12880</desc>
<path d="M26.5067 5.6399
L26.7486 5.6399
" />
<path d="M26.7486 5.6399
L26.8696 5.7004
" />
<path d="M26.8696 5.7004
L26.9905 5.8214
" />
<path d="M26.9905 5.8214
L27.0510 6.0633
" />
<path d="M27.0510 6.0633
L27.0510 6.4866
" />
<path d="M27.0510 6.4866
L26.9905 6.7285
" />
<path d="M26.9905 6.7285
L26.8696 6.8495
" />
<path d="M26.8696 6.8495
L26.7486 6.9099
" />
<path d="M26.7486 6.9099
L26.5067 6.9099
" />
<path d="M26.5067 6.9099
L26.3858 6.8495
" />
<path d="M26.3858 6.8495
L26.2648 6.7285
" />
<path d="M26.2648 6.7285
L26.2044 6.4866
" />
<path d="M26.2044 6.4866
L26.2044 6.0633
" />
<path d="M26.2044 6.0633
L26.2648 5.8214
" />
<path d="M26.2648 5.8214
L26.3858 5.7004
" />
<path d="M26.3858 5.7004
L26.5067 5.6399
" />
<path d="M27.5953 6.0633
L27.5953 7.3333
" />
<path d="M27.5953 6.1237
L27.7163 6.0633
" />
<path d="M27.7163 6.0633
L27.9582 6.0633
" />
<path d="M27.9582 6.0633
L28.0791 6.1237
" />
<path d="M28.0791 6.1237
L28.1396 6.1842
" />
<path d="M28.1396 6.1842
L28.2001 6.3052
" />
<path d="M28.2001 6.3052
L28.2001 6.6680
" />
<path d="M28.2001 6.6680
L28.1396 6.7890
" />
<path d="M28.1396 6.7890
L28.0791 6.8495
" />
<path d="M28.0791 6.8495
L27.9582 6.9099
" />
<path d="M27.9582 6.9099
L27.7163 6.9099
" />
<path d="M27.7163 6.9099
L27.5953 6.8495
" />
<path d="M28.5629 6.0633
L29.0467 6.0633
" />
<path d="M28.7443 5.6399
L28.7443 6.7285
" />
<path d="M28.7443 6.7285
L28.8048 6.8495
" />
<path d="M28.8048 6.8495
L28.9258 6.9099
" />
<path d="M28.9258 6.9099
L29.0467 6.9099
" />
<path d="M29.6515 6.9099
L29.5305 6.8495
" />
<path d="M29.5305 6.8495
L29.4700 6.7890
" />
<path d="M29.4700 6.7890
L29.4096 6.6680
" />
<path d="M29.4096 6.6680
L29.4096 6.3052
" />
<path d="M29.4096 6.3052
L29.4700 6.1842
" />
<path d="M29.4700 6.1842
L29.5305 6.1237
" />
<path d="M29.5305 6.1237
L29.6515 6.0633
" />
<path d="M29.6515 6.0633
L29.8329 6.0633
" />
<path d="M29.8329 6.0633
L29.9538 6.1237
" />
<path d="M29.9538 6.1237
L30.0143 6.1842
" />
<path d="M30.0143 6.1842
L30.0748 6.3052
" />
<path d="M30.0748 6.3052
L30.0748 6.6680
" />
<path d="M30.0748 6.6680
L30.0143 6.7890
" />
<path d="M30.0143 6.7890
L29.9538 6.8495
" />
<path d="M29.9538 6.8495
L29.8329 6.9099
" />
<path d="M29.8329 6.9099
L29.6515 6.9099
" />
<path d="M30.6190 6.9099
L30.6190 5.6399
" />
<path d="M30.6190 5.6399
L30.9214 5.6399
" />
<path d="M30.9214 5.6399
L31.1028 5.7004
" />
<path d="M31.1028 5.7004
L31.2238 5.8214
" />
<path d="M31.2238 5.8214
L31.2843 5.9423
" />
<path d="M31.2843 5.9423
L31.3447 6.1842
" />
<path d="M31.3447 6.1842
L31.3447 6.3656
" />
<path d="M31.3447 6.3656
L31.2843 6.6075
" />
<path d="M31.2843 6.6075
L31.2238 6.7285
" />
<path d="M31.2238 6.7285
L31.1028 6.8495
" />
<path d="M31.1028 6.8495
L30.9214 6.9099
" />
<path d="M30.9214 6.9099
L30.6190 6.9099
" />
<path d="M32.3728 6.8495
L32.2519 6.9099
" />
<path d="M32.2519 6.9099
L32.0100 6.9099
" />
<path d="M32.0100 6.9099
L31.8890 6.8495
" />
<path d="M31.8890 6.8495
L31.8286 6.7285
" />
<path d="M31.8286 6.7285
L31.8286 6.2447
" />
<path d="M31.8286 6.2447
L31.8890 6.1237
" />
<path d="M31.8890 6.1237
L32.0100 6.0633
" />
<path d="M32.0100 6.0633
L32.2519 6.0633
" />
<path d="M32.2519 6.0633
L32.3728 6.1237
" />
<path d="M32.3728 6.1237
L32.4333 6.2447
" />
<path d="M32.4333 6.2447
L32.4333 6.3656
" />
<path d="M32.4333 6.3656
L31.8286 6.4866
" />
<path d="M32.8567 6.0633
L33.1591 6.9099
" />
<path d="M33.1591 6.9099
L33.4614 6.0633
" />
<path d="M33.9452 6.9099
L33.9452 6.0633
" />
<path d="M33.9452 5.6399
L33.8848 5.7004
" />
<path d="M33.8848 5.7004
L33.9452 5.7609
" />
<path d="M33.9452 5.7609
L34.0057 5.7004
" />
<path d="M34.0057 5.7004
L33.9452 5.6399
" />
<path d="M33.9452 5.6399
L33.9452 5.7609
" />
<path d="M35.0943 6.8495
L34.9734 6.9099
" />
<path d="M34.9734 6.9099
L34.7315 6.9099
" />
<path d="M34.7315 6.9099
L34.6105 6.8495
" />
<path d="M34.6105 6.8495
L34.5500 6.7890
" />
<path d="M34.5500 6.7890
L34.4896 6.6680
" />
<path d="M34.4896 6.6680
L34.4896 6.3052
" />
<path d="M34.4896 6.3052
L34.5500 6.1842
" />
<path d="M34.5500 6.1842
L34.6105 6.1237
" />
<path d="M34.6105 6.1237
L34.7315 6.0633
" />
<path d="M34.7315 6.0633
L34.9734 6.0633
" />
<path d="M34.9734 6.0633
L35.0943 6.1237
" />
<path d="M36.1224 6.8495
L36.0015 6.9099
" />
<path d="M36.0015 6.9099
L35.7596 6.9099
" />
<path d="M35.7596 6.9099
L35.6386 6.8495
" />
<path d="M35.6386 6.8495
L35.5782 6.7285
" />
<path d="M35.5782 6.7285
L35.5782 6.2447
" />
<path d="M35.5782 6.2447
L35.6386 6.1237
" />
<path d="M35.6386 6.1237
L35.7596 6.0633
" />
<path d="M35.7596 6.0633
L36.0015 6.0633
" />
<path d="M36.0015 6.0633
L36.1224 6.1237
" />
<path d="M36.1224 6.1237
L36.1829 6.2447
" />
<path d="M36.1829 6.2447
L36.1829 6.3656
" />
<path d="M36.1829 6.3656
L35.5782 6.4866
" />
<path d="M36.7272 6.7890
L36.7877 6.8495
" />
<path d="M36.7877 6.8495
L36.7272 6.9099
" />
<path d="M36.7272 6.9099
L36.6668 6.8495
" />
<path d="M36.6668 6.8495
L36.7272 6.7890
" />
<path d="M36.7272 6.7890
L36.7272 6.9099
" />
<path d="M36.7272 6.1237
L36.7877 6.1842
" />
<path d="M36.7877 6.1842
L36.7272 6.2447
" />
<path d="M36.7272 6.2447
L36.6668 6.1842
" />
<path d="M36.6668 6.1842
L36.7272 6.1237
" />
<path d="M36.7272 6.1237
L36.7272 6.2447
" />
<path d="M37.3320 6.9099
L37.3320 5.6399
" />
<path d="M37.3320 6.2447
L38.0577 6.2447
" />
<path d="M38.0577 6.9099
L38.0577 5.6399
" />
<path d="M39.2068 6.9099
L39.2068 6.2447
" />
<path d="M39.2068 6.2447
L39.1463 6.1237
" />
<path d="M39.1463 6.1237
L39.0254 6.0633
" />
<path d="M39.0254 6.0633
L38.7835 6.0633
" />
<path d="M38.7835 6.0633
L38.6625 6.1237
" />
<path d="M39.2068 6.8495
L39.0859 6.9099
" />
<path d="M39.0859 6.9099
L38.7835 6.9099
" />
<path d="M38.7835 6.9099
L38.6625 6.8495
" />
<path d="M38.6625 6.8495
L38.6021 6.7285
" />
<path d="M38.6021 6.7285
L38.6021 6.6075
" />
<path d="M38.6021 6.6075
L38.6625 6.4866
" />
<path d="M38.6625 6.4866
L38.7835 6.4261
" />
<path d="M38.7835 6.4261
L39.0859 6.4261
" />
<path d="M39.0859 6.4261
L39.2068 6.3656
" />
<path d="M39.8115 6.9099
L39.8115 6.0633
" />
<path d="M39.8115 6.1842
L39.8720 6.1237
" />
<path d="M39.8720 6.1237
L39.9930 6.0633
" />
<path d="M39.9930 6.0633
L40.1744 6.0633
" />
<path d="M40.1744 6.0633
L40.2953 6.1237
" />
<path d="M40.2953 6.1237
L40.3558 6.2447
" />
<path d="M40.3558 6.2447
L40.3558 6.9099
" />
<path d="M40.3558 6.2447
L40.4163 6.1237
" />
<path d="M40.4163 6.1237
L40.5372 6.0633
" />
<path d="M40.5372 6.0633
L40.7187 6.0633
" />
<path d="M40.7187 6.0633
L40.8396 6.1237
" />
<path d="M40.8396 6.1237
L40.9001 6.2447
" />
<path d="M40.9001 6.2447
L40.9001 6.9099
" />
<path d="M42.0491 6.9099
L42.0491 6.2447
" />
<path d="M42.0491 6.2447
L41.9886 6.1237
" />
<path d="M41.9886 6.1237
L41.8677 6.0633
" />
<path d="M41.8677 6.0633
L41.6258 6.0633
" />
<path d="M41.6258 6.0633
L41.5048 6.1237
" />
<path d="M42.0491 6.8495
L41.9282 6.9099
" />
<path d="M41.9282 6.9099
L41.6258 6.9099
" />
<path d="M41.6258 6.9099
L41.5048 6.8495
" />
<path d="M41.5048 6.8495
L41.4444 6.7285
" />
<path d="M41.4444 6.7285
L41.4444 6.6075
" />
<path d="M41.4444 6.6075
L41.5048 6.4866
" />
<path d="M41.5048 6.4866
L41.6258 6.4261
" />
<path d="M41.6258 6.4261
L41.9282 6.4261
" />
<path d="M41.9282 6.4261
L42.0491 6.3656
" />
<path d="M42.6538 6.9099
L42.6538 6.0633
" />
<path d="M42.6538 6.1842
L42.7143 6.1237
" />
<path d="M42.7143 6.1237
L42.8353 6.0633
" />
<path d="M42.8353 6.0633
L43.0167 6.0633
" />
<path d="M43.0167 6.0633
L43.1376 6.1237
" />
<path d="M43.1376 6.1237
L43.1981 6.2447
" />
<path d="M43.1981 6.2447
L43.1981 6.9099
" />
<path d="M43.1981 6.2447
L43.2586 6.1237
" />
<path d="M43.2586 6.1237
L43.3795 6.0633
" />
<path d="M43.3795 6.0633
L43.5610 6.0633
" />
<path d="M43.5610 6.0633
L43.6819 6.1237
" />
<path d="M43.6819 6.1237
L43.7424 6.2447
" />
<path d="M43.7424 6.2447
L43.7424 6.9099
" />
<path d="M44.8914 6.9099
L44.8914 6.2447
" />
<path d="M44.8914 6.2447
L44.8309 6.1237
" />
<path d="M44.8309 6.1237
L44.7100 6.0633
" />
<path d="M44.7100 6.0633
L44.4681 6.0633
" />
<path d="M44.4681 6.0633
L44.3471 6.1237
" />
<path d="M44.8914 6.8495
L44.7705 6.9099
" />
<path d="M44.7705 6.9099
L44.4681 6.9099
" />
<path d="M44.4681 6.9099
L44.3471 6.8495
" />
<path d="M44.3471 6.8495
L44.2867 6.7285
" />
<path d="M44.2867 6.7285
L44.2867 6.6075
" />
<path d="M44.2867 6.6075
L44.3471 6.4866
" />
<path d="M44.3471 6.4866
L44.4681 6.4261
" />
<path d="M44.4681 6.4261
L44.7705 6.4261
" />
<path d="M44.7705 6.4261
L44.8914 6.3656
" />
<path d="M45.3147 6.0633
L45.7985 6.0633
" />
<path d="M45.4961 5.6399
L45.4961 6.7285
" />
<path d="M45.4961 6.7285
L45.5566 6.8495
" />
<path d="M45.5566 6.8495
L45.6776 6.9099
" />
<path d="M45.6776 6.9099
L45.7985 6.9099
" />
<path d="M46.1614 6.8495
L46.2823 6.9099
" />
<path d="M46.2823 6.9099
L46.5242 6.9099
" />
<path d="M46.5242 6.9099
L46.6452 6.8495
" />
<path d="M46.6452 6.8495
L46.7056 6.7285
" />
<path d="M46.7056 6.7285
L46.7056 6.6680
" />
<path d="M46.7056 6.6680
L46.6452 6.5471
" />
<path d="M46.6452 6.5471
L46.5242 6.4866
" />
<path d="M46.5242 6.4866
L46.3428 6.4866
" />
<path d="M46.3428 6.4866
L46.2218 6.4261
" />
<path d="M46.2218 6.4261
L46.1614 6.3052
" />
<path d="M46.1614 6.3052
L46.1614 6.2447
" />
<path d="M46.1614 6.2447
L46.2218 6.1237
" />
<path d="M46.2218 6.1237
L46.3428 6.0633
" />
<path d="M46.3428 6.0633
L46.5242 6.0633
" />
<path d="M46.5242 6.0633
L46.6452 6.1237
" />
<path d="M47.7942 6.0633
L47.7942 6.9099
" />
<path d="M47.2499 6.0633
L47.2499 6.7285
" />
<path d="M47.2499 6.7285
L47.3104 6.8495
" />
<path d="M47.3104 6.8495
L47.4314 6.9099
" />
<path d="M47.4314 6.9099
L47.6128 6.9099
" />
<path d="M47.6128 6.9099
L47.7337 6.8495
" />
<path d="M47.7337 6.8495
L47.7942 6.7890
" />
<path d="M48.0966 7.0309
L49.0642 7.0309
" />
<path d="M50.0922 6.7890
L50.0318 6.8495
" />
<path d="M50.0318 6.8495
L49.8503 6.9099
" />
<path d="M49.8503 6.9099
L49.7294 6.9099
" />
<path d="M49.7294 6.9099
L49.5480 6.8495
" />
<path d="M49.5480 6.8495
L49.4270 6.7285
" />
<path d="M49.4270 6.7285
L49.3665 6.6075
" />
<path d="M49.3665 6.6075
L49.3061 6.3656
" />
<path d="M49.3061 6.3656
L49.3061 6.1842
" />
<path d="M49.3061 6.1842
L49.3665 5.9423
" />
<path d="M49.3665 5.9423
L49.4270 5.8214
" />
<path d="M49.4270 5.8214
L49.5480 5.7004
" />
<path d="M49.5480 5.7004
L49.7294 5.6399
" />
<path d="M49.7294 5.6399
L49.8503 5.6399
" />
<path d="M49.8503 5.6399
L50.0318 5.7004
" />
<path d="M50.0318 5.7004
L50.0922 5.7609
" />
<path d="M51.3018 6.9099
L50.5761 6.9099
" />
<path d="M50.9389 6.9099
L50.9389 5.6399
" />
<path d="M50.9389 5.6399
L50.8180 5.8214
" />
<path d="M50.8180 5.8214
L50.6970 5.9423
" />
<path d="M50.6970 5.9423
L50.5761 6.0028
" />
<path d="M51.7856 5.7609
L51.8460 5.7004
" />
<path d="M51.8460 5.7004
L51.9670 5.6399
" />
<path d="M51.9670 5.6399
L52.2694 5.6399
" />
<path d="M52.2694 5.6399
L52.3903 5.7004
" />
<path d="M52.3903 5.7004
L52.4508 5.7609
" />
<path d="M52.4508 5.7609
L52.5113 5.8818
" />
<path d="M52.5113 5.8818
L52.5113 6.0028
" />
<path d="M52.5113 6.0028
L52.4508 6.1842
" />
<path d="M52.4508 6.1842
L51.7251 6.9099
" />
<path d="M51.7251 6.9099
L52.5113 6.9099
" />
<path d="M53.2370 6.1842
L53.1160 6.1237
" />
<path d="M53.1160 6.1237
L53.0555 6.0633
" />
<path d="M53.0555 6.0633
L52.9951 5.9423
" />
<path d="M52.9951 5.9423
L52.9951 5.8818
" />
<path d="M52.9951 5.8818
L53.0555 5.7609
" />
<path d="M53.0555 5.7609
L53.1160 5.7004
" />
<path d="M53.1160 5.7004
L53.2370 5.6399
" />
<path d="M53.2370 5.6399
L53.4789 5.6399
" />
<path d="M53.4789 5.6399
L53.5998 5.7004
" />
<path d="M53.5998 5.7004
L53.6603 5.7609
" />
<path d="M53.6603 5.7609
L53.7208 5.8818
" />
<path d="M53.7208 5.8818
L53.7208 5.9423
" />
<path d="M53.7208 5.9423
L53.6603 6.0633
" />
<path d="M53.6603 6.0633
L53.5998 6.1237
" />
<path d="M53.5998 6.1237
L53.4789 6.1842
" />
<path d="M53.4789 6.1842
L53.2370 6.1842
" />
<path d="M53.2370 6.1842
L53.1160 6.2447
" />
<path d="M53.1160 6.2447
L53.0555 6.3052
" />
<path d="M53.0555 6.3052
L52.9951 6.4261
" />
<path d="M52.9951 6.4261
L52.9951 6.6680
" />
<path d="M52.9951 6.6680
L53.0555 6.7890
" />
<path d="M53.0555 6.7890
L53.1160 6.8495
" />
<path d="M53.1160 6.8495
L53.2370 6.9099
" />
<path d="M53.2370 6.9099
L53.4789 6.9099
" />
<path d="M53.4789 6.9099
L53.5998 6.8495
" />
<path d="M53.5998 6.8495
L53.6603 6.7890
" />
<path d="M53.6603 6.7890
L53.7208 6.6680
" />
<path d="M53.7208 6.6680
L53.7208 6.4261
" />
<path d="M53.7208 6.4261
L53.6603 6.3052
" />
<path d="M53.6603 6.3052
L53.5998 6.2447
" />
<path d="M53.5998 6.2447
L53.4789 6.1842
" />
<path d="M54.4465 6.1842
L54.3255 6.1237
" />
<path d="M54.3255 6.1237
L54.2650 6.0633
" />
<path d="M54.2650 6.0633
L54.2046 5.9423
" />
<path d="M54.2046 5.9423
L54.2046 5.8818
" />
<path d="M54.2046 5.8818
L54.2650 5.7609
" />
<path d="M54.2650 5.7609
L54.3255 5.7004
" />
<path d="M54.3255 5.7004
L54.4465 5.6399
" />
<path d="M54.4465 5.6399
L54.6884 5.6399
" />
<path d="M54.6884 5.6399
L54.8093 5.7004
" />
<path d="M54.8093 5.7004
L54.8698 5.7609
" />
<path d="M54.8698 5.7609
L54.9303 5.8818
" />
<path d="M54.9303 5.8818
L54.9303 5.9423
" />
<path d="M54.9303 5.9423
L54.8698 6.0633
" />
<path d="M54.8698 6.0633
L54.8093 6.1237
" />
<path d="M54.8093 6.1237
L54.6884 6.1842
" />
<path d="M54.6884 6.1842
L54.4465 6.1842
" />
<path d="M54.4465 6.1842
L54.3255 6.2447
" />
<path d="M54.3255 6.2447
L54.2650 6.3052
" />
<path d="M54.2650 6.3052
L54.2046 6.4261
" />
<path d="M54.2046 6.4261
L54.2046 6.6680
" />
<path d="M54.2046 6.6680
L54.2650 6.7890
" />
<path d="M54.2650 6.7890
L54.3255 6.8495
" />
<path d="M54.3255 6.8495
L54.4465 6.9099
" />
<path d="M54.4465 6.9099
L54.6884 6.9099
" />
<path d="M54.6884 6.9099
L54.8093 6.8495
" />
<path d="M54.8093 6.8495
L54.8698 6.7890
" />
<path d="M54.8698 6.7890
L54.9303 6.6680
" />
<path d="M54.9303 6.6680
L54.9303 6.4261
" />
<path d="M54.9303 6.4261
L54.8698 6.3052
" />
<path d="M54.8698 6.3052
L54.8093 6.2447
" />
<path d="M54.8093 6.2447
L54.6884 6.1842
" />
<path d="M55.7164 5.6399
L55.8374 5.6399
" />
<path d="M55.8374 5.6399
L55.9583 5.7004
" />
<path d="M55.9583 5.7004
L56.0188 5.7609
" />
<path d="M56.0188 5.7609
L56.0793 5.8818
" />
<path d="M56.0793 5.8818
L56.1398 6.1237
" />
<path d="M56.1398 6.1237
L56.1398 6.4261
" />
<path d="M56.1398 6.4261
L56.0793 6.6680
" />
<path d="M56.0793 6.6680
L56.0188 6.7890
" />
<path d="M56.0188 6.7890
L55.9583 6.8495
" />
<path d="M55.9583 6.8495
L55.8374 6.9099
" />
<path d="M55.8374 6.9099
L55.7164 6.9099
" />
<path d="M55.7164 6.9099
L55.5955 6.8495
" />
<path d="M55.5955 6.8495
L55.5350 6.7890
" />
<path d="M55.5350 6.7890
L55.4745 6.6680
" />
<path d="M55.4745 6.6680
L55.4141 6.4261
" />
<path d="M55.4141 6.4261
L55.4141 6.1237
" />
<path d="M55.4141 6.1237
L55.4745 5.8818
" />
<path d="M55.4745 5.8818
L55.5350 5.7609
" />
<path d="M55.5350 5.7609
L55.5955 5.7004
" />
<path d="M55.5955 5.7004
L55.7164 5.6399
" />
</g><text x="43.7121" y="4.4257"
textLength="72.8537" font-size="1.6933" lengthAdjust="spacingAndGlyphs"
text-anchor="middle" opacity="0">http://www.hamamatsu.com/resources/pdf/ssd/c12880ma_kacc1226e.pdf</text>
<g class="stroked-text"><desc>http://www.hamamatsu.com/resources/pdf/ssd/c12880ma_kacc1226e.pdf</desc>
<path d="M7.6988 4.3699
L7.6988 3.0999
" />
<path d="M8.2431 4.3699
L8.2431 3.7047
" />
<path d="M8.2431 3.7047
L8.1826 3.5837
" />
<path d="M8.1826 3.5837
L8.0617 3.5233
" />
<path d="M8.0617 3.5233
L7.8803 3.5233
" />
<path d="M7.8803 3.5233
L7.7593 3.5837
" />
<path d="M7.7593 3.5837
L7.6988 3.6442
" />
<path d="M8.6664 3.5233
L9.1502 3.5233
" />
<path d="M8.8478 3.0999
L8.8478 4.1885
" />
<path d="M8.8478 4.1885
L8.9083 4.3095
" />
<path d="M8.9083 4.3095
L9.0293 4.3699
" />
<path d="M9.0293 4.3699
L9.1502 4.3699
" />
<path d="M9.3921 3.5233
L9.8759 3.5233
" />
<path d="M9.5735 3.0999
L9.5735 4.1885
" />
<path d="M9.5735 4.1885
L9.6340 4.3095
" />
<path d="M9.6340 4.3095
L9.7550 4.3699
" />
<path d="M9.7550 4.3699
L9.8759 4.3699
" />
<path d="M10.2992 3.5233
L10.2992 4.7933
" />
<path d="M10.2992 3.5837
L10.4202 3.5233
" />
<path d="M10.4202 3.5233
L10.6621 3.5233
" />
<path d="M10.6621 3.5233
L10.7830 3.5837
" />
<path d="M10.7830 3.5837
L10.8435 3.6442
" />
<path d="M10.8435 3.6442
L10.9040 3.7652
" />
<path d="M10.9040 3.7652
L10.9040 4.1280
" />
<path d="M10.9040 4.1280
L10.8435 4.2490
" />
<path d="M10.8435 4.2490
L10.7830 4.3095
" />
<path d="M10.7830 4.3095
L10.6621 4.3699
" />
<path d="M10.6621 4.3699
L10.4202 4.3699
" />
<path d="M10.4202 4.3699
L10.2992 4.3095
" />
<path d="M11.4482 4.2490
L11.5087 4.3095
" />
<path d="M11.5087 4.3095
L11.4482 4.3699
" />
<path d="M11.4482 4.3699
L11.3878 4.3095
" />
<path d="M11.3878 4.3095
L11.4482 4.2490
" />
<path d="M11.4482 4.2490
L11.4482 4.3699
" />
<path d="M11.4482 3.5837
L11.5087 3.6442
" />
<path d="M11.5087 3.6442
L11.4482 3.7047
" />
<path d="M11.4482 3.7047
L11.3878 3.6442
" />
<path d="M11.3878 3.6442
L11.4482 3.5837
" />
<path d="M11.4482 3.5837
L11.4482 3.7047
" />
<path d="M12.9602 3.0395
L11.8716 4.6723
" />
<path d="M14.2907 3.0395
L13.2021 4.6723
" />
<path d="M14.5931 3.5233
L14.8350 4.3699
" />
<path d="M14.8350 4.3699
L15.0769 3.7652
" />
<path d="M15.0769 3.7652
L15.3188 4.3699
" />
<path d="M15.3188 4.3699
L15.5607 3.5233
" />
<path d="M15.9236 3.5233
L16.1655 4.3699
" />
<path d="M16.1655 4.3699
L16.4074 3.7652
" />
<path d="M16.4074 3.7652
L16.6493 4.3699
" />
<path d="M16.6493 4.3699
L16.8912 3.5233
" />
<path d="M17.2541 3.5233
L17.4960 4.3699
" />
<path d="M17.4960 4.3699
L17.7379 3.7652
" />
<path d="M17.7379 3.7652
L17.9798 4.3699
" />
<path d="M17.9798 4.3699
L18.2217 3.5233
" />
<path d="M18.7055 4.2490
L18.7660 4.3095
" />
<path d="M18.7660 4.3095
L18.7055 4.3699
" />
<path d="M18.7055 4.3699
L18.6451 4.3095
" />
<path d="M18.6451 4.3095
L18.7055 4.2490
" />
<path d="M18.7055 4.2490
L18.7055 4.3699
" />
<path d="M19.3103 4.3699
L19.3103 3.0999
" />
<path d="M19.8546 4.3699
L19.8546 3.7047
" />
<path d="M19.8546 3.7047
L19.7941 3.5837
" />
<path d="M19.7941 3.5837
L19.6732 3.5233
" />
<path d="M19.6732 3.5233
L19.4918 3.5233
" />
<path d="M19.4918 3.5233
L19.3708 3.5837
" />
<path d="M19.3708 3.5837
L19.3103 3.6442
" />
<path d="M21.0036 4.3699
L21.0036 3.7047
" />
<path d="M21.0036 3.7047
L20.9431 3.5837
" />
<path d="M20.9431 3.5837
L20.8222 3.5233
" />
<path d="M20.8222 3.5233
L20.5803 3.5233
" />
<path d="M20.5803 3.5233
L20.4593 3.5837
" />
<path d="M21.0036 4.3095
L20.8827 4.3699
" />
<path d="M20.8827 4.3699
L20.5803 4.3699
" />
<path d="M20.5803 4.3699
L20.4593 4.3095
" />
<path d="M20.4593 4.3095
L20.3989 4.1885
" />
<path d="M20.3989 4.1885
L20.3989 4.0675
" />
<path d="M20.3989 4.0675
L20.4593 3.9466
" />
<path d="M20.4593 3.9466
L20.5803 3.8861
" />
<path d="M20.5803 3.8861
L20.8827 3.8861
" />
<path d="M20.8827 3.8861
L21.0036 3.8256
" />
<path d="M21.6083 4.3699
L21.6083 3.5233
" />
<path d="M21.6083 3.6442
L21.6688 3.5837
" />
<path d="M21.6688 3.5837
L21.7898 3.5233
" />
<path d="M21.7898 3.5233
L21.9712 3.5233
" />
<path d="M21.9712 3.5233
L22.0921 3.5837
" />
<path d="M22.0921 3.5837
L22.1526 3.7047
" />
<path d="M22.1526 3.7047
L22.1526 4.3699
" />
<path d="M22.1526 3.7047
L22.2131 3.5837
" />
<path d="M22.2131 3.5837
L22.3340 3.5233
" />
<path d="M22.3340 3.5233
L22.5155 3.5233
" />
<path d="M22.5155 3.5233
L22.6364 3.5837
" />
<path d="M22.6364 3.5837
L22.6969 3.7047
" />
<path d="M22.6969 3.7047
L22.6969 4.3699
" />
<path d="M23.8459 4.3699
L23.8459 3.7047
" />
<path d="M23.8459 3.7047
L23.7854 3.5837
" />
<path d="M23.7854 3.5837
L23.6645 3.5233
" />
<path d="M23.6645 3.5233
L23.4226 3.5233
" />
<path d="M23.4226 3.5233
L23.3016 3.5837
" />
<path d="M23.8459 4.3095
L23.7250 4.3699
" />
<path d="M23.7250 4.3699
L23.4226 4.3699
" />
<path d="M23.4226 4.3699
L23.3016 4.3095
" />
<path d="M23.3016 4.3095
L23.2412 4.1885
" />
<path d="M23.2412 4.1885
L23.2412 4.0675
" />
<path d="M23.2412 4.0675
L23.3016 3.9466
" />
<path d="M23.3016 3.9466
L23.4226 3.8861
" />
<path d="M23.4226 3.8861
L23.7250 3.8861
" />
<path d="M23.7250 3.8861
L23.8459 3.8256
" />
<path d="M24.4506 4.3699
L24.4506 3.5233
" />
<path d="M24.4506 3.6442
L24.5111 3.5837
" />
<path d="M24.5111 3.5837
L24.6321 3.5233
" />
<path d="M24.6321 3.5233
L24.8135 3.5233
" />
<path d="M24.8135 3.5233
L24.9344 3.5837
" />
<path d="M24.9344 3.5837
L24.9949 3.7047
" />
<path d="M24.9949 3.7047
L24.9949 4.3699
" />
<path d="M24.9949 3.7047
L25.0554 3.5837
" />
<path d="M25.0554 3.5837
L25.1763 3.5233
" />
<path d="M25.1763 3.5233
L25.3578 3.5233
" />
<path d="M25.3578 3.5233
L25.4787 3.5837
" />
<path d="M25.4787 3.5837
L25.5392 3.7047
" />
<path d="M25.5392 3.7047
L25.5392 4.3699
" />
<path d="M26.6882 4.3699
L26.6882 3.7047
" />
<path d="M26.6882 3.7047
L26.6277 3.5837
" />
<path d="M26.6277 3.5837
L26.5068 3.5233
" />
<path d="M26.5068 3.5233
L26.2649 3.5233
" />
<path d="M26.2649 3.5233
L26.1439 3.5837
" />
<path d="M26.6882 4.3095
L26.5673 4.3699
" />
<path d="M26.5673 4.3699
L26.2649 4.3699
" />
<path d="M26.2649 4.3699
L26.1439 4.3095
" />
<path d="M26.1439 4.3095
L26.0835 4.1885
" />
<path d="M26.0835 4.1885
L26.0835 4.0675
" />
<path d="M26.0835 4.0675
L26.1439 3.9466
" />
<path d="M26.1439 3.9466
L26.2649 3.8861
" />
<path d="M26.2649 3.8861
L26.5673 3.8861
" />
<path d="M26.5673 3.8861
L26.6882 3.8256
" />
<path d="M27.1115 3.5233
L27.5953 3.5233
" />
<path d="M27.2929 3.0999
L27.2929 4.1885
" />
<path d="M27.2929 4.1885
L27.3534 4.3095
" />
<path d="M27.3534 4.3095
L27.4744 4.3699
" />
<path d="M27.4744 4.3699
L27.5953 4.3699
" />
<path d="M27.9582 4.3095
L28.0791 4.3699
" />
<path d="M28.0791 4.3699
L28.3210 4.3699
" />
<path d="M28.3210 4.3699
L28.4420 4.3095
" />
<path d="M28.4420 4.3095
L28.5024 4.1885
" />
<path d="M28.5024 4.1885
L28.5024 4.1280
" />
<path d="M28.5024 4.1280
L28.4420 4.0071
" />
<path d="M28.4420 4.0071
L28.3210 3.9466
" />
<path d="M28.3210 3.9466
L28.1396 3.9466
" />
<path d="M28.1396 3.9466
L28.0186 3.8861
" />
<path d="M28.0186 3.8861
L27.9582 3.7652
" />
<path d="M27.9582 3.7652
L27.9582 3.7047
" />
<path d="M27.9582 3.7047
L28.0186 3.5837
" />
<path d="M28.0186 3.5837
L28.1396 3.5233
" />
<path d="M28.1396 3.5233
L28.3210 3.5233
" />
<path d="M28.3210 3.5233
L28.4420 3.5837
" />
<path d="M29.5910 3.5233
L29.5910 4.3699
" />
<path d="M29.0467 3.5233
L29.0467 4.1885
" />
<path d="M29.0467 4.1885
L29.1072 4.3095
" />
<path d="M29.1072 4.3095
L29.2282 4.3699
" />
<path d="M29.2282 4.3699
L29.4096 4.3699
" />
<path d="M29.4096 4.3699
L29.5305 4.3095
" />
<path d="M29.5305 4.3095
L29.5910 4.2490
" />
<path d="M30.1957 4.2490
L30.2562 4.3095
" />
<path d="M30.2562 4.3095
L30.1957 4.3699
" />
<path d="M30.1957 4.3699
L30.1353 4.3095
" />
<path d="M30.1353 4.3095
L30.1957 4.2490
" />
<path d="M30.1957 4.2490
L30.1957 4.3699
" />
<path d="M31.3448 4.3095
L31.2239 4.3699
" />
<path d="M31.2239 4.3699
L30.9820 4.3699
" />
<path d="M30.9820 4.3699
L30.8610 4.3095
" />
<path d="M30.8610 4.3095
L30.8005 4.2490
" />
<path d="M30.8005 4.2490
L30.7401 4.1280
" />
<path d="M30.7401 4.1280
L30.7401 3.7652
" />
<path d="M30.7401 3.7652
L30.8005 3.6442
" />
<path d="M30.8005 3.6442
L30.8610 3.5837
" />
<path d="M30.8610 3.5837
L30.9820 3.5233
" />
<path d="M30.9820 3.5233
L31.2239 3.5233
" />
<path d="M31.2239 3.5233
L31.3448 3.5837
" />
<path d="M32.0706 4.3699
L31.9496 4.3095
" />
<path d="M31.9496 4.3095
L31.8891 4.2490
" />
<path d="M31.8891 4.2490
L31.8287 4.1280
" />
<path d="M31.8287 4.1280
L31.8287 3.7652
" />
<path d="M31.8287 3.7652
L31.8891 3.6442
" />
<path d="M31.8891 3.6442
L31.9496 3.5837
" />
<path d="M31.9496 3.5837
L32.0706 3.5233
" />
<path d="M32.0706 3.5233
L32.2520 3.5233
" />
<path d="M32.2520 3.5233
L32.3729 3.5837
" />
<path d="M32.3729 3.5837
L32.4334 3.6442
" />
<path d="M32.4334 3.6442
L32.4939 3.7652
" />
<path d="M32.4939 3.7652
L32.4939 4.1280
" />
<path d="M32.4939 4.1280
L32.4334 4.2490
" />
<path d="M32.4334 4.2490
L32.3729 4.3095
" />
<path d="M32.3729 4.3095
L32.2520 4.3699
" />
<path d="M32.2520 4.3699
L32.0706 4.3699
" />
<path d="M33.0381 4.3699
L33.0381 3.5233
" />
<path d="M33.0381 3.6442
L33.0986 3.5837
" />
<path d="M33.0986 3.5837
L33.2196 3.5233
" />
<path d="M33.2196 3.5233
L33.4010 3.5233
" />
<path d="M33.4010 3.5233
L33.5219 3.5837
" />
<path d="M33.5219 3.5837
L33.5824 3.7047
" />
<path d="M33.5824 3.7047
L33.5824 4.3699
" />
<path d="M33.5824 3.7047
L33.6429 3.5837
" />
<path d="M33.6429 3.5837
L33.7638 3.5233
" />
<path d="M33.7638 3.5233
L33.9453 3.5233
" />
<path d="M33.9453 3.5233
L34.0662 3.5837
" />
<path d="M34.0662 3.5837
L34.1267 3.7047
" />
<path d="M34.1267 3.7047
L34.1267 4.3699
" />
<path d="M35.6386 3.0395
L34.5500 4.6723
" />
<path d="M36.0619 4.3699
L36.0619 3.5233
" />
<path d="M36.0619 3.7652
L36.1224 3.6442
" />
<path d="M36.1224 3.6442
L36.1829 3.5837
" />
<path d="M36.1829 3.5837
L36.3038 3.5233
" />
<path d="M36.3038 3.5233
L36.4248 3.5233
" />
<path d="M37.3319 4.3095
L37.2110 4.3699
" />
<path d="M37.2110 4.3699
L36.9691 4.3699
" />
<path d="M36.9691 4.3699
L36.8481 4.3095
" />
<path d="M36.8481 4.3095
L36.7877 4.1885
" />
<path d="M36.7877 4.1885
L36.7877 3.7047
" />
<path d="M36.7877 3.7047
L36.8481 3.5837
" />
<path d="M36.8481 3.5837
L36.9691 3.5233
" />
<path d="M36.9691 3.5233
L37.2110 3.5233
" />
<path d="M37.2110 3.5233
L37.3319 3.5837
" />
<path d="M37.3319 3.5837
L37.3924 3.7047
" />
<path d="M37.3924 3.7047
L37.3924 3.8256
" />
<path d="M37.3924 3.8256
L36.7877 3.9466
" />
<path d="M37.8763 4.3095
L37.9972 4.3699
" />
<path d="M37.9972 4.3699
L38.2391 4.3699
" />
<path d="M38.2391 4.3699
L38.3601 4.3095
" />
<path d="M38.3601 4.3095
L38.4205 4.1885
" />
<path d="M38.4205 4.1885
L38.4205 4.1280
" />
<path d="M38.4205 4.1280
L38.3601 4.0071
" />
<path d="M38.3601 4.0071
L38.2391 3.9466
" />
<path d="M38.2391 3.9466
L38.0577 3.9466
" />
<path d="M38.0577 3.9466
L37.9367 3.8861
" />
<path d="M37.9367 3.8861
L37.8763 3.7652
" />
<path d="M37.8763 3.7652
L37.8763 3.7047
" />
<path d="M37.8763 3.7047
L37.9367 3.5837
" />
<path d="M37.9367 3.5837
L38.0577 3.5233
" />
<path d="M38.0577 3.5233
L38.2391 3.5233
" />
<path d="M38.2391 3.5233
L38.3601 3.5837
" />
<path d="M39.1463 4.3699
L39.0253 4.3095
" />
<path d="M39.0253 4.3095
L38.9648 4.2490
" />
<path d="M38.9648 4.2490
L38.9044 4.1280
" />
<path d="M38.9044 4.1280
L38.9044 3.7652
" />
<path d="M38.9044 3.7652
L38.9648 3.6442
" />
<path d="M38.9648 3.6442
L39.0253 3.5837
" />
<path d="M39.0253 3.5837
L39.1463 3.5233
" />
<path d="M39.1463 3.5233
L39.3277 3.5233
" />
<path d="M39.3277 3.5233
L39.4486 3.5837
" />
<path d="M39.4486 3.5837
L39.5091 3.6442
" />
<path d="M39.5091 3.6442
L39.5696 3.7652
" />
<path d="M39.5696 3.7652
L39.5696 4.1280
" />
<path d="M39.5696 4.1280
L39.5091 4.2490
" />
<path d="M39.5091 4.2490
L39.4486 4.3095
" />
<path d="M39.4486 4.3095
L39.3277 4.3699
" />
<path d="M39.3277 4.3699
L39.1463 4.3699
" />
<path d="M40.6581 3.5233
L40.6581 4.3699
" />
<path d="M40.1138 3.5233
L40.1138 4.1885
" />
<path d="M40.1138 4.1885
L40.1743 4.3095
" />
<path d="M40.1743 4.3095
L40.2953 4.3699
" />
<path d="M40.2953 4.3699
L40.4767 4.3699
" />
<path d="M40.4767 4.3699
L40.5976 4.3095
" />
<path d="M40.5976 4.3095
L40.6581 4.2490
" />
<path d="M41.2628 4.3699
L41.2628 3.5233
" />
<path d="M41.2628 3.7652
L41.3233 3.6442
" />
<path d="M41.3233 3.6442
L41.3838 3.5837
" />
<path d="M41.3838 3.5837
L41.5047 3.5233
" />
<path d="M41.5047 3.5233
L41.6257 3.5233
" />
<path d="M42.5933 4.3095
L42.4724 4.3699
" />
<path d="M42.4724 4.3699
L42.2305 4.3699
" />
<path d="M42.2305 4.3699
L42.1095 4.3095
" />
<path d="M42.1095 4.3095
L42.0490 4.2490
" />
<path d="M42.0490 4.2490
L41.9886 4.1280
" />
<path d="M41.9886 4.1280
L41.9886 3.7652
" />
<path d="M41.9886 3.7652
L42.0490 3.6442
" />
<path d="M42.0490 3.6442
L42.1095 3.5837
" />
<path d="M42.1095 3.5837
L42.2305 3.5233
" />
<path d="M42.2305 3.5233
L42.4724 3.5233
" />
<path d="M42.4724 3.5233
L42.5933 3.5837
" />
<path d="M43.6214 4.3095
L43.5005 4.3699
" />
<path d="M43.5005 4.3699
L43.2586 4.3699
" />
<path d="M43.2586 4.3699
L43.1376 4.3095
" />
<path d="M43.1376 4.3095
L43.0772 4.1885
" />
<path d="M43.0772 4.1885
L43.0772 3.7047
" />
<path d="M43.0772 3.7047
L43.1376 3.5837
" />
<path d="M43.1376 3.5837
L43.2586 3.5233
" />
<path d="M43.2586 3.5233
L43.5005 3.5233
" />
<path d="M43.5005 3.5233
L43.6214 3.5837
" />
<path d="M43.6214 3.5837
L43.6819 3.7047
" />
<path d="M43.6819 3.7047
L43.6819 3.8256
" />
<path d="M43.6819 3.8256
L43.0772 3.9466
" />
<path d="M44.1658 4.3095
L44.2867 4.3699
" />
<path d="M44.2867 4.3699
L44.5286 4.3699
" />
<path d="M44.5286 4.3699
L44.6496 4.3095
" />
<path d="M44.6496 4.3095
L44.7100 4.1885
" />
<path d="M44.7100 4.1885
L44.7100 4.1280
" />
<path d="M44.7100 4.1280
L44.6496 4.0071
" />
<path d="M44.6496 4.0071
L44.5286 3.9466
" />
<path d="M44.5286 3.9466
L44.3472 3.9466
" />
<path d="M44.3472 3.9466
L44.2262 3.8861
" />
<path d="M44.2262 3.8861
L44.1658 3.7652
" />
<path d="M44.1658 3.7652
L44.1658 3.7047
" />
<path d="M44.1658 3.7047
L44.2262 3.5837
" />
<path d="M44.2262 3.5837
L44.3472 3.5233
" />
<path d="M44.3472 3.5233
L44.5286 3.5233
" />
<path d="M44.5286 3.5233
L44.6496 3.5837
" />
<path d="M46.1615 3.0395
L45.0729 4.6723
" />
<path d="M46.5848 3.5233
L46.5848 4.7933
" />
<path d="M46.5848 3.5837
L46.7058 3.5233
" />
<path d="M46.7058 3.5233
L46.9477 3.5233
" />
<path d="M46.9477 3.5233
L47.0686 3.5837
" />
<path d="M47.0686 3.5837
L47.1291 3.6442
" />
<path d="M47.1291 3.6442
L47.1896 3.7652
" />
<path d="M47.1896 3.7652
L47.1896 4.1280
" />
<path d="M47.1896 4.1280
L47.1291 4.2490
" />
<path d="M47.1291 4.2490
L47.0686 4.3095
" />
<path d="M47.0686 4.3095
L46.9477 4.3699
" />
<path d="M46.9477 4.3699
L46.7058 4.3699
" />
<path d="M46.7058 4.3699
L46.5848 4.3095
" />
<path d="M48.2781 4.3699
L48.2781 3.0999
" />
<path d="M48.2781 4.3095
L48.1572 4.3699
" />
<path d="M48.1572 4.3699
L47.9153 4.3699
" />
<path d="M47.9153 4.3699
L47.7943 4.3095
" />
<path d="M47.7943 4.3095
L47.7338 4.2490
" />
<path d="M47.7338 4.2490
L47.6734 4.1280
" />
<path d="M47.6734 4.1280
L47.6734 3.7652
" />
<path d="M47.6734 3.7652
L47.7338 3.6442
" />
<path d="M47.7338 3.6442
L47.7943 3.5837
" />
<path d="M47.7943 3.5837
L47.9153 3.5233
" />
<path d="M47.9153 3.5233
L48.1572 3.5233
" />
<path d="M48.1572 3.5233
L48.2781 3.5837
" />
<path d="M48.7014 3.5233
L49.1852 3.5233
" />
<path d="M48.8828 4.3699
L48.8828 3.2814
" />
<path d="M48.8828 3.2814
L48.9433 3.1604
" />
<path d="M48.9433 3.1604
L49.0643 3.0999
" />
<path d="M49.0643 3.0999
L49.1852 3.0999
" />
<path d="M50.5157 3.0395
L49.4271 4.6723
" />
<path d="M50.8786 4.3095
L50.9995 4.3699
" />
<path d="M50.9995 4.3699
L51.2414 4.3699
" />
<path d="M51.2414 4.3699
L51.3624 4.3095
" />
<path d="M51.3624 4.3095
L51.4228 4.1885
" />
<path d="M51.4228 4.1885
L51.4228 4.1280
" />
<path d="M51.4228 4.1280
L51.3624 4.0071
" />
<path d="M51.3624 4.0071
L51.2414 3.9466
" />
<path d="M51.2414 3.9466
L51.0600 3.9466
" />
<path d="M51.0600 3.9466
L50.9390 3.8861
" />
<path d="M50.9390 3.8861
L50.8786 3.7652
" />
<path d="M50.8786 3.7652
L50.8786 3.7047
" />
<path d="M50.8786 3.7047
L50.9390 3.5837
" />
<path d="M50.9390 3.5837
L51.0600 3.5233
" />
<path d="M51.0600 3.5233
L51.2414 3.5233
" />
<path d="M51.2414 3.5233
L51.3624 3.5837
" />
<path d="M51.9067 4.3095
L52.0276 4.3699
" />
<path d="M52.0276 4.3699
L52.2695 4.3699
" />
<path d="M52.2695 4.3699
L52.3905 4.3095
" />
<path d="M52.3905 4.3095
L52.4509 4.1885
" />
<path d="M52.4509 4.1885
L52.4509 4.1280
" />
<path d="M52.4509 4.1280
L52.3905 4.0071
" />
<path d="M52.3905 4.0071
L52.2695 3.9466
" />
<path d="M52.2695 3.9466
L52.0881 3.9466
" />
<path d="M52.0881 3.9466
L51.9671 3.8861
" />
<path d="M51.9671 3.8861
L51.9067 3.7652
" />
<path d="M51.9067 3.7652
L51.9067 3.7047
" />
<path d="M51.9067 3.7047
L51.9671 3.5837
" />
<path d="M51.9671 3.5837
L52.0881 3.5233
" />
<path d="M52.0881 3.5233
L52.2695 3.5233
" />
<path d="M52.2695 3.5233
L52.3905 3.5837
" />
<path d="M53.5395 4.3699
L53.5395 3.0999
" />
<path d="M53.5395 4.3095
L53.4186 4.3699
" />
<path d="M53.4186 4.3699
L53.1767 4.3699
" />
<path d="M53.1767 4.3699
L53.0557 4.3095
" />
<path d="M53.0557 4.3095
L52.9952 4.2490
" />
<path d="M52.9952 4.2490
L52.9348 4.1280
" />
<path d="M52.9348 4.1280
L52.9348 3.7652
" />
<path d="M52.9348 3.7652
L52.9952 3.6442
" />
<path d="M52.9952 3.6442
L53.0557 3.5837
" />
<path d="M53.0557 3.5837
L53.1767 3.5233
" />
<path d="M53.1767 3.5233
L53.4186 3.5233
" />
<path d="M53.4186 3.5233
L53.5395 3.5837
" />
<path d="M55.0514 3.0395
L53.9628 4.6723
" />
<path d="M56.0190 4.3095
L55.8981 4.3699
" />
<path d="M55.8981 4.3699
L55.6562 4.3699
" />
<path d="M55.6562 4.3699
L55.5352 4.3095
" />
<path d="M55.5352 4.3095
L55.4747 4.2490
" />
<path d="M55.4747 4.2490
L55.4143 4.1280
" />
<path d="M55.4143 4.1280
L55.4143 3.7652
" />
<path d="M55.4143 3.7652
L55.4747 3.6442
" />
<path d="M55.4747 3.6442
L55.5352 3.5837
" />
<path d="M55.5352 3.5837
L55.6562 3.5233
" />
<path d="M55.6562 3.5233
L55.8981 3.5233
" />
<path d="M55.8981 3.5233
L56.0190 3.5837
" />
<path d="M57.2286 4.3699
L56.5029 4.3699
" />
<path d="M56.8657 4.3699
L56.8657 3.0999
" />
<path d="M56.8657 3.0999
L56.7448 3.2814
" />
<path d="M56.7448 3.2814
L56.6238 3.4023
" />
<path d="M56.6238 3.4023
L56.5029 3.4628
" />
<path d="M57.7124 3.2209
L57.7728 3.1604
" />
<path d="M57.7728 3.1604
L57.8938 3.0999
" />
<path d="M57.8938 3.0999
L58.1962 3.0999
" />
<path d="M58.1962 3.0999
L58.3171 3.1604
" />
<path d="M58.3171 3.1604
L58.3776 3.2209
" />
<path d="M58.3776 3.2209
L58.4381 3.3418
" />
<path d="M58.4381 3.3418
L58.4381 3.4628
" />
<path d="M58.4381 3.4628
L58.3776 3.6442
" />
<path d="M58.3776 3.6442
L57.6519 4.3699
" />
<path d="M57.6519 4.3699
L58.4381 4.3699
" />
<path d="M59.1638 3.6442
L59.0428 3.5837
" />
<path d="M59.0428 3.5837
L58.9823 3.5233
" />
<path d="M58.9823 3.5233
L58.9219 3.4023
" />
<path d="M58.9219 3.4023
L58.9219 3.3418
" />
<path d="M58.9219 3.3418
L58.9823 3.2209
" />
<path d="M58.9823 3.2209
L59.0428 3.1604
" />
<path d="M59.0428 3.1604
L59.1638 3.0999
" />
<path d="M59.1638 3.0999
L59.4057 3.0999
" />
<path d="M59.4057 3.0999
L59.5266 3.1604
" />
<path d="M59.5266 3.1604
L59.5871 3.2209
" />
<path d="M59.5871 3.2209
L59.6476 3.3418
" />
<path d="M59.6476 3.3418
L59.6476 3.4023
" />
<path d="M59.6476 3.4023
L59.5871 3.5233
" />
<path d="M59.5871 3.5233
L59.5266 3.5837
" />
<path d="M59.5266 3.5837
L59.4057 3.6442
" />
<path d="M59.4057 3.6442
L59.1638 3.6442
" />
<path d="M59.1638 3.6442
L59.0428 3.7047
" />
<path d="M59.0428 3.7047
L58.9823 3.7652
" />
<path d="M58.9823 3.7652
L58.9219 3.8861
" />
<path d="M58.9219 3.8861
L58.9219 4.1280
" />
<path d="M58.9219 4.1280
L58.9823 4.2490
" />
<path d="M58.9823 4.2490
L59.0428 4.3095
" />
<path d="M59.0428 4.3095
L59.1638 4.3699
" />
<path d="M59.1638 4.3699
L59.4057 4.3699
" />
<path d="M59.4057 4.3699
L59.5266 4.3095
" />
<path d="M59.5266 4.3095
L59.5871 4.2490
" />
<path d="M59.5871 4.2490
L59.6476 4.1280
" />
<path d="M59.6476 4.1280
L59.6476 3.8861
" />
<path d="M59.6476 3.8861
L59.5871 3.7652
" />
<path d="M59.5871 3.7652
L59.5266 3.7047
" />
<path d="M59.5266 3.7047
L59.4057 3.6442
" />
<path d="M60.3733 3.6442
L60.2523 3.5837
" />
<path d="M60.2523 3.5837
L60.1918 3.5233
" />
<path d="M60.1918 3.5233
L60.1314 3.4023
" />
<path d="M60.1314 3.4023
L60.1314 3.3418
" />
<path d="M60.1314 3.3418
L60.1918 3.2209
" />
<path d="M60.1918 3.2209
L60.2523 3.1604
" />
<path d="M60.2523 3.1604
L60.3733 3.0999
" />
<path d="M60.3733 3.0999
L60.6152 3.0999
" />
<path d="M60.6152 3.0999
L60.7361 3.1604
" />
<path d="M60.7361 3.1604
L60.7966 3.2209
" />
<path d="M60.7966 3.2209
L60.8571 3.3418
" />
<path d="M60.8571 3.3418
L60.8571 3.4023
" />
<path d="M60.8571 3.4023
L60.7966 3.5233
" />
<path d="M60.7966 3.5233
L60.7361 3.5837
" />
<path d="M60.7361 3.5837
L60.6152 3.6442
" />
<path d="M60.6152 3.6442
L60.3733 3.6442
" />
<path d="M60.3733 3.6442
L60.2523 3.7047
" />
<path d="M60.2523 3.7047
L60.1918 3.7652
" />
<path d="M60.1918 3.7652
L60.1314 3.8861
" />
<path d="M60.1314 3.8861
L60.1314 4.1280
" />
<path d="M60.1314 4.1280
L60.1918 4.2490
" />
<path d="M60.1918 4.2490
L60.2523 4.3095
" />
<path d="M60.2523 4.3095
L60.3733 4.3699
" />
<path d="M60.3733 4.3699
L60.6152 4.3699
" />
<path d="M60.6152 4.3699
L60.7361 4.3095
" />
<path d="M60.7361 4.3095
L60.7966 4.2490
" />
<path d="M60.7966 4.2490
L60.8571 4.1280
" />
<path d="M60.8571 4.1280
L60.8571 3.8861
" />
<path d="M60.8571 3.8861
L60.7966 3.7652
" />
<path d="M60.7966 3.7652
L60.7361 3.7047
" />
<path d="M60.7361 3.7047
L60.6152 3.6442
" />
<path d="M61.6432 3.0999
L61.7642 3.0999
" />
<path d="M61.7642 3.0999
L61.8851 3.1604
" />
<path d="M61.8851 3.1604
L61.9456 3.2209
" />
<path d="M61.9456 3.2209
L62.0061 3.3418
" />
<path d="M62.0061 3.3418
L62.0666 3.5837
" />
<path d="M62.0666 3.5837
L62.0666 3.8861
" />
<path d="M62.0666 3.8861
L62.0061 4.1280
" />
<path d="M62.0061 4.1280
L61.9456 4.2490
" />
<path d="M61.9456 4.2490
L61.8851 4.3095
" />
<path d="M61.8851 4.3095
L61.7642 4.3699
" />
<path d="M61.7642 4.3699
L61.6432 4.3699
" />
<path d="M61.6432 4.3699
L61.5223 4.3095
" />
<path d="M61.5223 4.3095
L61.4618 4.2490
" />
<path d="M61.4618 4.2490
L61.4013 4.1280
" />
<path d="M61.4013 4.1280
L61.3409 3.8861
" />
<path d="M61.3409 3.8861
L61.3409 3.5837
" />
<path d="M61.3409 3.5837
L61.4013 3.3418
" />
<path d="M61.4013 3.3418
L61.4618 3.2209
" />
<path d="M61.4618 3.2209
L61.5223 3.1604
" />
<path d="M61.5223 3.1604
L61.6432 3.0999
" />
<path d="M62.6108 4.3699
L62.6108 3.5233
" />
<path d="M62.6108 3.6442
L62.6713 3.5837
" />
<path d="M62.6713 3.5837
L62.7923 3.5233
" />
<path d="M62.7923 3.5233
L62.9737 3.5233
" />
<path d="M62.9737 3.5233
L63.0946 3.5837
" />
<path d="M63.0946 3.5837
L63.1551 3.7047
" />
<path d="M63.1551 3.7047
L63.1551 4.3699
" />
<path d="M63.1551 3.7047
L63.2156 3.5837
" />
<path d="M63.2156 3.5837
L63.3365 3.5233
" />
<path d="M63.3365 3.5233
L63.5180 3.5233
" />
<path d="M63.5180 3.5233
L63.6389 3.5837
" />
<path d="M63.6389 3.5837
L63.6994 3.7047
" />
<path d="M63.6994 3.7047
L63.6994 4.3699
" />
<path d="M64.8484 4.3699
L64.8484 3.7047
" />
<path d="M64.8484 3.7047
L64.7879 3.5837
" />
<path d="M64.7879 3.5837
L64.6670 3.5233
" />
<path d="M64.6670 3.5233
L64.4251 3.5233
" />
<path d="M64.4251 3.5233
L64.3041 3.5837
" />
<path d="M64.8484 4.3095
L64.7275 4.3699
" />
<path d="M64.7275 4.3699
L64.4251 4.3699
" />
<path d="M64.4251 4.3699
L64.3041 4.3095
" />
<path d="M64.3041 4.3095
L64.2437 4.1885
" />
<path d="M64.2437 4.1885
L64.2437 4.0675
" />
<path d="M64.2437 4.0675
L64.3041 3.9466
" />
<path d="M64.3041 3.9466
L64.4251 3.8861
" />
<path d="M64.4251 3.8861
L64.7275 3.8861
" />
<path d="M64.7275 3.8861
L64.8484 3.8256
" />
<path d="M65.1508 4.4909
L66.1184 4.4909
" />
<path d="M66.4207 4.3699
L66.4207 3.0999
" />
<path d="M66.5417 3.8861
L66.9045 4.3699
" />
<path d="M66.9045 3.5233
L66.4207 4.0071
" />
<path d="M67.9931 4.3699
L67.9931 3.7047
" />
<path d="M67.9931 3.7047
L67.9326 3.5837
" />
<path d="M67.9326 3.5837
L67.8117 3.5233
" />
<path d="M67.8117 3.5233
L67.5698 3.5233
" />
<path d="M67.5698 3.5233
L67.4488 3.5837
" />
<path d="M67.9931 4.3095
L67.8722 4.3699
" />
<path d="M67.8722 4.3699
L67.5698 4.3699
" />
<path d="M67.5698 4.3699
L67.4488 4.3095
" />
<path d="M67.4488 4.3095
L67.3884 4.1885
" />
<path d="M67.3884 4.1885
L67.3884 4.0675
" />
<path d="M67.3884 4.0675
L67.4488 3.9466
" />
<path d="M67.4488 3.9466
L67.5698 3.8861
" />
<path d="M67.5698 3.8861
L67.8722 3.8861
" />
<path d="M67.8722 3.8861
L67.9931 3.8256
" />
<path d="M69.1421 4.3095
L69.0212 4.3699
" />
<path d="M69.0212 4.3699
L68.7793 4.3699
" />
<path d="M68.7793 4.3699
L68.6583 4.3095
" />
<path d="M68.6583 4.3095
L68.5978 4.2490
" />
<path d="M68.5978 4.2490
L68.5374 4.1280
" />
<path d="M68.5374 4.1280
L68.5374 3.7652
" />
<path d="M68.5374 3.7652
L68.5978 3.6442
" />
<path d="M68.5978 3.6442
L68.6583 3.5837
" />
<path d="M68.6583 3.5837
L68.7793 3.5233
" />
<path d="M68.7793 3.5233
L69.0212 3.5233
" />
<path d="M69.0212 3.5233
L69.1421 3.5837
" />
<path d="M70.2307 4.3095
L70.1098 4.3699
" />
<path d="M70.1098 4.3699
L69.8679 4.3699
" />
<path d="M69.8679 4.3699
L69.7469 4.3095
" />
<path d="M69.7469 4.3095
L69.6864 4.2490
" />
<path d="M69.6864 4.2490
L69.6260 4.1280
" />
<path d="M69.6260 4.1280
L69.6260 3.7652
" />
<path d="M69.6260 3.7652
L69.6864 3.6442
" />
<path d="M69.6864 3.6442
L69.7469 3.5837
" />
<path d="M69.7469 3.5837
L69.8679 3.5233
" />
<path d="M69.8679 3.5233
L70.1098 3.5233
" />
<path d="M70.1098 3.5233
L70.2307 3.5837
" />
<path d="M71.4403 4.3699
L70.7146 4.3699
" />
<path d="M71.0774 4.3699
L71.0774 3.0999
" />
<path d="M71.0774 3.0999
L70.9565 3.2814
" />
<path d="M70.9565 3.2814
L70.8355 3.4023
" />
<path d="M70.8355 3.4023
L70.7146 3.4628
" />
<path d="M71.9241 3.2209
L71.9845 3.1604
" />
<path d="M71.9845 3.1604
L72.1055 3.0999
" />
<path d="M72.1055 3.0999
L72.4079 3.0999
" />
<path d="M72.4079 3.0999
L72.5288 3.1604
" />
<path d="M72.5288 3.1604
L72.5893 3.2209
" />
<path d="M72.5893 3.2209
L72.6498 3.3418
" />
<path d="M72.6498 3.3418
L72.6498 3.4628
" />
<path d="M72.6498 3.4628
L72.5893 3.6442
" />
<path d="M72.5893 3.6442
L71.8636 4.3699
" />
<path d="M71.8636 4.3699
L72.6498 4.3699
" />
<path d="M73.1336 3.2209
L73.1940 3.1604
" />
<path d="M73.1940 3.1604
L73.3150 3.0999
" />
<path d="M73.3150 3.0999
L73.6174 3.0999
" />
<path d="M73.6174 3.0999
L73.7383 3.1604
" />
<path d="M73.7383 3.1604
L73.7988 3.2209
" />
<path d="M73.7988 3.2209
L73.8593 3.3418
" />
<path d="M73.8593 3.3418
L73.8593 3.4628
" />
<path d="M73.8593 3.4628
L73.7988 3.6442
" />
<path d="M73.7988 3.6442
L73.0731 4.3699
" />
<path d="M73.0731 4.3699
L73.8593 4.3699
" />
<path d="M74.9478 3.0999
L74.7059 3.0999
" />
<path d="M74.7059 3.0999
L74.5850 3.1604
" />
<path d="M74.5850 3.1604
L74.5245 3.2209
" />
<path d="M74.5245 3.2209
L74.4035 3.4023
" />
<path d="M74.4035 3.4023
L74.3431 3.6442
" />
<path d="M74.3431 3.6442
L74.3431 4.1280
" />
<path d="M74.3431 4.1280
L74.4035 4.2490
" />
<path d="M74.4035 4.2490
L74.4640 4.3095
" />
<path d="M74.4640 4.3095
L74.5850 4.3699
" />
<path d="M74.5850 4.3699
L74.8269 4.3699
" />
<path d="M74.8269 4.3699
L74.9478 4.3095
" />
<path d="M74.9478 4.3095
L75.0083 4.2490
" />
<path d="M75.0083 4.2490
L75.0688 4.1280
" />
<path d="M75.0688 4.1280
L75.0688 3.8256
" />
<path d="M75.0688 3.8256
L75.0083 3.7047
" />
<path d="M75.0083 3.7047
L74.9478 3.6442
" />
<path d="M74.9478 3.6442
L74.8269 3.5837
" />
<path d="M74.8269 3.5837
L74.5850 3.5837
" />
<path d="M74.5850 3.5837
L74.4640 3.6442
" />
<path d="M74.4640 3.6442
L74.4035 3.7047
" />
<path d="M74.4035 3.7047
L74.3431 3.8256
" />
<path d="M76.0968 4.3095
L75.9759 4.3699
" />
<path d="M75.9759 4.3699
L75.7340 4.3699
" />
<path d="M75.7340 4.3699
L75.6130 4.3095
" />
<path d="M75.6130 4.3095
L75.5526 4.1885
" />
<path d="M75.5526 4.1885
L75.5526 3.7047
" />
<path d="M75.5526 3.7047
L75.6130 3.5837
" />
<path d="M75.6130 3.5837
L75.7340 3.5233
" />
<path d="M75.7340 3.5233
L75.9759 3.5233
" />
<path d="M75.9759 3.5233
L76.0968 3.5837
" />
<path d="M76.0968 3.5837
L76.1573 3.7047
" />
<path d="M76.1573 3.7047
L76.1573 3.8256
" />
<path d="M76.1573 3.8256
L75.5526 3.9466
" />
<path d="M76.7016 4.2490
L76.7621 4.3095
" />
<path d="M76.7621 4.3095
L76.7016 4.3699
" />
<path d="M76.7016 4.3699
L76.6412 4.3095
" />
<path d="M76.6412 4.3095
L76.7016 4.2490
" />
<path d="M76.7016 4.2490
L76.7016 4.3699
" />
<path d="M77.3064 3.5233
L77.3064 4.7933
" />
<path d="M77.3064 3.5837
L77.4274 3.5233
" />
<path d="M77.4274 3.5233
L77.6693 3.5233
" />
<path d="M77.6693 3.5233
L77.7902 3.5837
" />
<path d="M77.7902 3.5837
L77.8507 3.6442
" />
<path d="M77.8507 3.6442
L77.9112 3.7652
" />
<path d="M77.9112 3.7652
L77.9112 4.1280
" />
<path d="M77.9112 4.1280
L77.8507 4.2490
" />
<path d="M77.8507 4.2490
L77.7902 4.3095
" />
<path d="M77.7902 4.3095
L77.6693 4.3699
" />
<path d="M77.6693 4.3699
L77.4274 4.3699
" />
<path d="M77.4274 4.3699
L77.3064 4.3095
" />
<path d="M78.9997 4.3699
L78.9997 3.0999
" />
<path d="M78.9997 4.3095
L78.8788 4.3699
" />
<path d="M78.8788 4.3699
L78.6369 4.3699
" />
<path d="M78.6369 4.3699
L78.5159 4.3095
" />
<path d="M78.5159 4.3095
L78.4554 4.2490
" />
<path d="M78.4554 4.2490
L78.3950 4.1280
" />
<path d="M78.3950 4.1280
L78.3950 3.7652
" />
<path d="M78.3950 3.7652
L78.4554 3.6442
" />
<path d="M78.4554 3.6442
L78.5159 3.5837
" />
<path d="M78.5159 3.5837
L78.6369 3.5233
" />
<path d="M78.6369 3.5233
L78.8788 3.5233
" />
<path d="M78.8788 3.5233
L78.9997 3.5837
" />
<path d="M79.4230 3.5233
L79.9068 3.5233
" />
<path d="M79.6044 4.3699
L79.6044 3.2814
" />
<path d="M79.6044 3.2814
L79.6649 3.1604
" />
<path d="M79.6649 3.1604
L79.7859 3.0999
" />
<path d="M79.7859 3.0999
L79.9068 3.0999
" />
</g></g> 
</svg>
