<?xml version="1.0" standalone="no"?>
 <!DOCTYPE svg PUBLIC "-//W3C//DTD SVG 1.1//EN" 
 "http://www.w3.org/Graphics/SVG/1.1/DTD/svg11.dtd"> 
<svg
  xmlns:svg="http://www.w3.org/2000/svg"
  xmlns="http://www.w3.org/2000/svg"
  xmlns:xlink="http://www.w3.org/1999/xlink"
  version="1.1"
  width="67.0306mm" height="10.8458mm" viewBox="0.0000 0.0000 67.0306 10.8458">
<title>SVG Image created as working.svg date 2023/08/11 09:57:30 </title>
  <desc>Image generated by Eeschema-SVG </desc>
<g style="fill:#000000; fill-opacity:1.0000;stroke:#000000; stroke-opacity:1.0000;
stroke-linecap:round; stroke-linejoin:round;"
 transform="translate(0 0) scale(1 1)">
</g>
<g style="fill:#840000; fill-opacity:0.0; 
stroke:#840000; stroke-width:0.0000; stroke-opacity:1; 
stroke-linecap:round; stroke-linejoin:round;">
</g>
<g style="fill:#840084; fill-opacity:0.0; 
stroke:#840084; stroke-width:0.0000; stroke-opacity:1; 
stroke-linecap:round; stroke-linejoin:round;">
</g>
<g style="fill:#840000; fill-opacity:0.0; 
stroke:#840000; stroke-width:0.0000; stroke-opacity:1; 
stroke-linecap:round; stroke-linejoin:round;">
</g>
<g style="fill:#840084; fill-opacity:0.0; 
stroke:#840084; stroke-width:0.0000; stroke-opacity:1; 
stroke-linecap:round; stroke-linejoin:round;">
</g>
<g style="fill:#006464; fill-opacity:0.0; 
stroke:#006464; stroke-width:0.0000; stroke-opacity:1; 
stroke-linecap:round; stroke-linejoin:round;">
</g>
<g style="fill:#006464; fill-opacity:0.0; 
stroke:#006464; stroke-width:0.1588; stroke-opacity:1; 
stroke-linecap:round; stroke-linejoin:round;">
<text x="33.5161" y="2.5594"
textLength="2.5810" font-size="1.6933" lengthAdjust="spacingAndGlyphs"
text-anchor="middle" opacity="0">D?</text>
<g class="stroked-text"><desc>D?</desc>
<path d="M32.6391 2.5036
L32.6391 1.2336
" />
<path d="M32.6391 1.2336
L32.9415 1.2336
" />
<path d="M32.9415 1.2336
L33.1229 1.2941
" />
<path d="M33.1229 1.2941
L33.2439 1.4151
" />
<path d="M33.2439 1.4151
L33.3044 1.5360
" />
<path d="M33.3044 1.5360
L33.3648 1.7779
" />
<path d="M33.3648 1.7779
L33.3648 1.9593
" />
<path d="M33.3648 1.9593
L33.3044 2.2012
" />
<path d="M33.3044 2.2012
L33.2439 2.3222
" />
<path d="M33.2439 2.3222
L33.1229 2.4432
" />
<path d="M33.1229 2.4432
L32.9415 2.5036
" />
<path d="M32.9415 2.5036
L32.6391 2.5036
" />
<path d="M34.0906 2.3827
L34.1510 2.4432
" />
<path d="M34.1510 2.4432
L34.0906 2.5036
" />
<path d="M34.0906 2.5036
L34.0301 2.4432
" />
<path d="M34.0301 2.4432
L34.0906 2.3827
" />
<path d="M34.0906 2.3827
L34.0906 2.5036
" />
<path d="M33.8487 1.2941
L33.9696 1.2336
" />
<path d="M33.9696 1.2336
L34.2720 1.2336
" />
<path d="M34.2720 1.2336
L34.3929 1.2941
" />
<path d="M34.3929 1.2941
L34.4534 1.4151
" />
<path d="M34.4534 1.4151
L34.4534 1.5360
" />
<path d="M34.4534 1.5360
L34.3929 1.6570
" />
<path d="M34.3929 1.6570
L34.3325 1.7174
" />
<path d="M34.3325 1.7174
L34.2115 1.7779
" />
<path d="M34.2115 1.7779
L34.1510 1.8384
" />
<path d="M34.1510 1.8384
L34.0906 1.9593
" />
<path d="M34.0906 1.9593
L34.0906 2.0198
" />
</g><text x="33.5161" y="7.6394"
textLength="10.0194" font-size="1.6933" lengthAdjust="spacingAndGlyphs"
text-anchor="middle" opacity="0">1N4148WT</text>
<g class="stroked-text"><desc>1N4148WT</desc>
<path d="M29.5852 7.5836
L28.8595 7.5836
" />
<path d="M29.2223 7.5836
L29.2223 6.3136
" />
<path d="M29.2223 6.3136
L29.1014 6.4951
" />
<path d="M29.1014 6.4951
L28.9804 6.6160
" />
<path d="M28.9804 6.6160
L28.8595 6.6765
" />
<path d="M30.1294 7.5836
L30.1294 6.3136
" />
<path d="M30.1294 6.3136
L30.8551 7.5836
" />
<path d="M30.8551 7.5836
L30.8551 6.3136
" />
<path d="M32.0042 6.7370
L32.0042 7.5836
" />
<path d="M31.7018 6.2532
L31.3995 7.1603
" />
<path d="M31.3995 7.1603
L32.1856 7.1603
" />
<path d="M33.3347 7.5836
L32.6090 7.5836
" />
<path d="M32.9718 7.5836
L32.9718 6.3136
" />
<path d="M32.9718 6.3136
L32.8509 6.4951
" />
<path d="M32.8509 6.4951
L32.7299 6.6160
" />
<path d="M32.7299 6.6160
L32.6090 6.6765
" />
<path d="M34.4232 6.7370
L34.4232 7.5836
" />
<path d="M34.1208 6.2532
L33.8185 7.1603
" />
<path d="M33.8185 7.1603
L34.6046 7.1603
" />
<path d="M35.2699 6.8579
L35.1489 6.7974
" />
<path d="M35.1489 6.7974
L35.0884 6.7370
" />
<path d="M35.0884 6.7370
L35.0280 6.6160
" />
<path d="M35.0280 6.6160
L35.0280 6.5555
" />
<path d="M35.0280 6.5555
L35.0884 6.4346
" />
<path d="M35.0884 6.4346
L35.1489 6.3741
" />
<path d="M35.1489 6.3741
L35.2699 6.3136
" />
<path d="M35.2699 6.3136
L35.5118 6.3136
" />
<path d="M35.5118 6.3136
L35.6327 6.3741
" />
<path d="M35.6327 6.3741
L35.6932 6.4346
" />
<path d="M35.6932 6.4346
L35.7537 6.5555
" />
<path d="M35.7537 6.5555
L35.7537 6.6160
" />
<path d="M35.7537 6.6160
L35.6932 6.7370
" />
<path d="M35.6932 6.7370
L35.6327 6.7974
" />
<path d="M35.6327 6.7974
L35.5118 6.8579
" />
<path d="M35.5118 6.8579
L35.2699 6.8579
" />
<path d="M35.2699 6.8579
L35.1489 6.9184
" />
<path d="M35.1489 6.9184
L35.0884 6.9789
" />
<path d="M35.0884 6.9789
L35.0280 7.0998
" />
<path d="M35.0280 7.0998
L35.0280 7.3417
" />
<path d="M35.0280 7.3417
L35.0884 7.4627
" />
<path d="M35.0884 7.4627
L35.1489 7.5232
" />
<path d="M35.1489 7.5232
L35.2699 7.5836
" />
<path d="M35.2699 7.5836
L35.5118 7.5836
" />
<path d="M35.5118 7.5836
L35.6327 7.5232
" />
<path d="M35.6327 7.5232
L35.6932 7.4627
" />
<path d="M35.6932 7.4627
L35.7537 7.3417
" />
<path d="M35.7537 7.3417
L35.7537 7.0998
" />
<path d="M35.7537 7.0998
L35.6932 6.9789
" />
<path d="M35.6932 6.9789
L35.6327 6.9184
" />
<path d="M35.6327 6.9184
L35.5118 6.8579
" />
<path d="M36.1770 6.3136
L36.4794 7.5836
" />
<path d="M36.4794 7.5836
L36.7213 6.6765
" />
<path d="M36.7213 6.6765
L36.9632 7.5836
" />
<path d="M36.9632 7.5836
L37.2656 6.3136
" />
<path d="M37.5679 6.3136
L38.2936 6.3136
" />
<path d="M37.9308 7.5836
L37.9308 6.3136
" />
</g></g>
<g style="fill:#840084; fill-opacity:0.0; 
stroke:#840084; stroke-width:0.1588; stroke-opacity:1; 
stroke-linecap:round; stroke-linejoin:round;">
<text x="33.5161" y="9.5444"
textLength="22.2356" font-size="1.6933" lengthAdjust="spacingAndGlyphs"
text-anchor="middle" opacity="0">Diode_SMD:D_SOD-523</text>
<g class="stroked-text"><desc>Diode_SMD:D_SOD-523</desc>
<path d="M22.8118 9.4886
L22.8118 8.2186
" />
<path d="M22.8118 8.2186
L23.1142 8.2186
" />
<path d="M23.1142 8.2186
L23.2956 8.2791
" />
<path d="M23.2956 8.2791
L23.4166 8.4001
" />
<path d="M23.4166 8.4001
L23.4771 8.5210
" />
<path d="M23.4771 8.5210
L23.5375 8.7629
" />
<path d="M23.5375 8.7629
L23.5375 8.9443
" />
<path d="M23.5375 8.9443
L23.4771 9.1862
" />
<path d="M23.4771 9.1862
L23.4166 9.3072
" />
<path d="M23.4166 9.3072
L23.2956 9.4282
" />
<path d="M23.2956 9.4282
L23.1142 9.4886
" />
<path d="M23.1142 9.4886
L22.8118 9.4886
" />
<path d="M24.0818 9.4886
L24.0818 8.6420
" />
<path d="M24.0818 8.2186
L24.0214 8.2791
" />
<path d="M24.0214 8.2791
L24.0818 8.3396
" />
<path d="M24.0818 8.3396
L24.1423 8.2791
" />
<path d="M24.1423 8.2791
L24.0818 8.2186
" />
<path d="M24.0818 8.2186
L24.0818 8.3396
" />
<path d="M24.8681 9.4886
L24.7471 9.4282
" />
<path d="M24.7471 9.4282
L24.6866 9.3677
" />
<path d="M24.6866 9.3677
L24.6262 9.2467
" />
<path d="M24.6262 9.2467
L24.6262 8.8839
" />
<path d="M24.6262 8.8839
L24.6866 8.7629
" />
<path d="M24.6866 8.7629
L24.7471 8.7024
" />
<path d="M24.7471 8.7024
L24.8681 8.6420
" />
<path d="M24.8681 8.6420
L25.0495 8.6420
" />
<path d="M25.0495 8.6420
L25.1704 8.7024
" />
<path d="M25.1704 8.7024
L25.2309 8.7629
" />
<path d="M25.2309 8.7629
L25.2914 8.8839
" />
<path d="M25.2914 8.8839
L25.2914 9.2467
" />
<path d="M25.2914 9.2467
L25.2309 9.3677
" />
<path d="M25.2309 9.3677
L25.1704 9.4282
" />
<path d="M25.1704 9.4282
L25.0495 9.4886
" />
<path d="M25.0495 9.4886
L24.8681 9.4886
" />
<path d="M26.3799 9.4886
L26.3799 8.2186
" />
<path d="M26.3799 9.4282
L26.2590 9.4886
" />
<path d="M26.2590 9.4886
L26.0171 9.4886
" />
<path d="M26.0171 9.4886
L25.8961 9.4282
" />
<path d="M25.8961 9.4282
L25.8356 9.3677
" />
<path d="M25.8356 9.3677
L25.7752 9.2467
" />
<path d="M25.7752 9.2467
L25.7752 8.8839
" />
<path d="M25.7752 8.8839
L25.8356 8.7629
" />
<path d="M25.8356 8.7629
L25.8961 8.7024
" />
<path d="M25.8961 8.7024
L26.0171 8.6420
" />
<path d="M26.0171 8.6420
L26.2590 8.6420
" />
<path d="M26.2590 8.6420
L26.3799 8.7024
" />
<path d="M27.4684 9.4282
L27.3475 9.4886
" />
<path d="M27.3475 9.4886
L27.1056 9.4886
" />
<path d="M27.1056 9.4886
L26.9846 9.4282
" />
<path d="M26.9846 9.4282
L26.9242 9.3072
" />
<path d="M26.9242 9.3072
L26.9242 8.8234
" />
<path d="M26.9242 8.8234
L26.9846 8.7024
" />
<path d="M26.9846 8.7024
L27.1056 8.6420
" />
<path d="M27.1056 8.6420
L27.3475 8.6420
" />
<path d="M27.3475 8.6420
L27.4684 8.7024
" />
<path d="M27.4684 8.7024
L27.5289 8.8234
" />
<path d="M27.5289 8.8234
L27.5289 8.9443
" />
<path d="M27.5289 8.9443
L26.9242 9.0653
" />
<path d="M27.7709 9.6096
L28.7385 9.6096
" />
<path d="M28.9804 9.4282
L29.1618 9.4886
" />
<path d="M29.1618 9.4886
L29.4642 9.4886
" />
<path d="M29.4642 9.4886
L29.5851 9.4282
" />
<path d="M29.5851 9.4282
L29.6456 9.3677
" />
<path d="M29.6456 9.3677
L29.7061 9.2467
" />
<path d="M29.7061 9.2467
L29.7061 9.1258
" />
<path d="M29.7061 9.1258
L29.6456 9.0048
" />
<path d="M29.6456 9.0048
L29.5851 8.9443
" />
<path d="M29.5851 8.9443
L29.4642 8.8839
" />
<path d="M29.4642 8.8839
L29.2223 8.8234
" />
<path d="M29.2223 8.8234
L29.1013 8.7629
" />
<path d="M29.1013 8.7629
L29.0408 8.7024
" />
<path d="M29.0408 8.7024
L28.9804 8.5815
" />
<path d="M28.9804 8.5815
L28.9804 8.4605
" />
<path d="M28.9804 8.4605
L29.0408 8.3396
" />
<path d="M29.0408 8.3396
L29.1013 8.2791
" />
<path d="M29.1013 8.2791
L29.2223 8.2186
" />
<path d="M29.2223 8.2186
L29.5246 8.2186
" />
<path d="M29.5246 8.2186
L29.7061 8.2791
" />
<path d="M30.2503 9.4886
L30.2503 8.2186
" />
<path d="M30.2503 8.2186
L30.6737 9.1258
" />
<path d="M30.6737 9.1258
L31.0970 8.2186
" />
<path d="M31.0970 8.2186
L31.0970 9.4886
" />
<path d="M31.7017 9.4886
L31.7017 8.2186
" />
<path d="M31.7017 8.2186
L32.0041 8.2186
" />
<path d="M32.0041 8.2186
L32.1855 8.2791
" />
<path d="M32.1855 8.2791
L32.3065 8.4001
" />
<path d="M32.3065 8.4001
L32.3670 8.5210
" />
<path d="M32.3670 8.5210
L32.4274 8.7629
" />
<path d="M32.4274 8.7629
L32.4274 8.9443
" />
<path d="M32.4274 8.9443
L32.3670 9.1862
" />
<path d="M32.3670 9.1862
L32.3065 9.3072
" />
<path d="M32.3065 9.3072
L32.1855 9.4282
" />
<path d="M32.1855 9.4282
L32.0041 9.4886
" />
<path d="M32.0041 9.4886
L31.7017 9.4886
" />
<path d="M32.9717 9.3677
L33.0322 9.4282
" />
<path d="M33.0322 9.4282
L32.9717 9.4886
" />
<path d="M32.9717 9.4886
L32.9113 9.4282
" />
<path d="M32.9113 9.4282
L32.9717 9.3677
" />
<path d="M32.9717 9.3677
L32.9717 9.4886
" />
<path d="M32.9717 8.7024
L33.0322 8.7629
" />
<path d="M33.0322 8.7629
L32.9717 8.8234
" />
<path d="M32.9717 8.8234
L32.9113 8.7629
" />
<path d="M32.9113 8.7629
L32.9717 8.7024
" />
<path d="M32.9717 8.7024
L32.9717 8.8234
" />
<path d="M33.5765 9.4886
L33.5765 8.2186
" />
<path d="M33.5765 8.2186
L33.8789 8.2186
" />
<path d="M33.8789 8.2186
L34.0603 8.2791
" />
<path d="M34.0603 8.2791
L34.1813 8.4001
" />
<path d="M34.1813 8.4001
L34.2418 8.5210
" />
<path d="M34.2418 8.5210
L34.3022 8.7629
" />
<path d="M34.3022 8.7629
L34.3022 8.9443
" />
<path d="M34.3022 8.9443
L34.2418 9.1862
" />
<path d="M34.2418 9.1862
L34.1813 9.3072
" />
<path d="M34.1813 9.3072
L34.0603 9.4282
" />
<path d="M34.0603 9.4282
L33.8789 9.4886
" />
<path d="M33.8789 9.4886
L33.5765 9.4886
" />
<path d="M34.5442 9.6096
L35.5118 9.6096
" />
<path d="M35.7537 9.4282
L35.9351 9.4886
" />
<path d="M35.9351 9.4886
L36.2375 9.4886
" />
<path d="M36.2375 9.4886
L36.3584 9.4282
" />
<path d="M36.3584 9.4282
L36.4189 9.3677
" />
<path d="M36.4189 9.3677
L36.4794 9.2467
" />
<path d="M36.4794 9.2467
L36.4794 9.1258
" />
<path d="M36.4794 9.1258
L36.4189 9.0048
" />
<path d="M36.4189 9.0048
L36.3584 8.9443
" />
<path d="M36.3584 8.9443
L36.2375 8.8839
" />
<path d="M36.2375 8.8839
L35.9956 8.8234
" />
<path d="M35.9956 8.8234
L35.8746 8.7629
" />
<path d="M35.8746 8.7629
L35.8141 8.7024
" />
<path d="M35.8141 8.7024
L35.7537 8.5815
" />
<path d="M35.7537 8.5815
L35.7537 8.4605
" />
<path d="M35.7537 8.4605
L35.8141 8.3396
" />
<path d="M35.8141 8.3396
L35.8746 8.2791
" />
<path d="M35.8746 8.2791
L35.9956 8.2186
" />
<path d="M35.9956 8.2186
L36.2979 8.2186
" />
<path d="M36.2979 8.2186
L36.4794 8.2791
" />
<path d="M37.2655 8.2186
L37.5074 8.2186
" />
<path d="M37.5074 8.2186
L37.6284 8.2791
" />
<path d="M37.6284 8.2791
L37.7493 8.4001
" />
<path d="M37.7493 8.4001
L37.8098 8.6420
" />
<path d="M37.8098 8.6420
L37.8098 9.0653
" />
<path d="M37.8098 9.0653
L37.7493 9.3072
" />
<path d="M37.7493 9.3072
L37.6284 9.4282
" />
<path d="M37.6284 9.4282
L37.5074 9.4886
" />
<path d="M37.5074 9.4886
L37.2655 9.4886
" />
<path d="M37.2655 9.4886
L37.1446 9.4282
" />
<path d="M37.1446 9.4282
L37.0236 9.3072
" />
<path d="M37.0236 9.3072
L36.9632 9.0653
" />
<path d="M36.9632 9.0653
L36.9632 8.6420
" />
<path d="M36.9632 8.6420
L37.0236 8.4001
" />
<path d="M37.0236 8.4001
L37.1446 8.2791
" />
<path d="M37.1446 8.2791
L37.2655 8.2186
" />
<path d="M38.3541 9.4886
L38.3541 8.2186
" />
<path d="M38.3541 8.2186
L38.6565 8.2186
" />
<path d="M38.6565 8.2186
L38.8379 8.2791
" />
<path d="M38.8379 8.2791
L38.9589 8.4001
" />
<path d="M38.9589 8.4001
L39.0194 8.5210
" />
<path d="M39.0194 8.5210
L39.0798 8.7629
" />
<path d="M39.0798 8.7629
L39.0798 8.9443
" />
<path d="M39.0798 8.9443
L39.0194 9.1862
" />
<path d="M39.0194 9.1862
L38.9589 9.3072
" />
<path d="M38.9589 9.3072
L38.8379 9.4282
" />
<path d="M38.8379 9.4282
L38.6565 9.4886
" />
<path d="M38.6565 9.4886
L38.3541 9.4886
" />
<path d="M39.6241 9.0048
L40.5918 9.0048
" />
<path d="M41.8013 8.2186
L41.1965 8.2186
" />
<path d="M41.1965 8.2186
L41.1361 8.8234
" />
<path d="M41.1361 8.8234
L41.1965 8.7629
" />
<path d="M41.1965 8.7629
L41.3175 8.7024
" />
<path d="M41.3175 8.7024
L41.6199 8.7024
" />
<path d="M41.6199 8.7024
L41.7408 8.7629
" />
<path d="M41.7408 8.7629
L41.8013 8.8234
" />
<path d="M41.8013 8.8234
L41.8618 8.9443
" />
<path d="M41.8618 8.9443
L41.8618 9.2467
" />
<path d="M41.8618 9.2467
L41.8013 9.3677
" />
<path d="M41.8013 9.3677
L41.7408 9.4282
" />
<path d="M41.7408 9.4282
L41.6199 9.4886
" />
<path d="M41.6199 9.4886
L41.3175 9.4886
" />
<path d="M41.3175 9.4886
L41.1965 9.4282
" />
<path d="M41.1965 9.4282
L41.1361 9.3677
" />
<path d="M42.3456 8.3396
L42.4060 8.2791
" />
<path d="M42.4060 8.2791
L42.5270 8.2186
" />
<path d="M42.5270 8.2186
L42.8294 8.2186
" />
<path d="M42.8294 8.2186
L42.9503 8.2791
" />
<path d="M42.9503 8.2791
L43.0108 8.3396
" />
<path d="M43.0108 8.3396
L43.0713 8.4605
" />
<path d="M43.0713 8.4605
L43.0713 8.5815
" />
<path d="M43.0713 8.5815
L43.0108 8.7629
" />
<path d="M43.0108 8.7629
L42.2851 9.4886
" />
<path d="M42.2851 9.4886
L43.0713 9.4886
" />
<path d="M43.4946 8.2186
L44.2808 8.2186
" />
<path d="M44.2808 8.2186
L43.8574 8.7024
" />
<path d="M43.8574 8.7024
L44.0389 8.7024
" />
<path d="M44.0389 8.7024
L44.1598 8.7629
" />
<path d="M44.1598 8.7629
L44.2203 8.8234
" />
<path d="M44.2203 8.8234
L44.2808 8.9443
" />
<path d="M44.2808 8.9443
L44.2808 9.2467
" />
<path d="M44.2808 9.2467
L44.2203 9.3677
" />
<path d="M44.2203 9.3677
L44.1598 9.4282
" />
<path d="M44.1598 9.4282
L44.0389 9.4886
" />
<path d="M44.0389 9.4886
L43.6760 9.4886
" />
<path d="M43.6760 9.4886
L43.5551 9.4282
" />
<path d="M43.5551 9.4282
L43.4946 9.3677
" />
</g><text x="33.5161" y="5.0994"
textLength="55.8602" font-size="1.6933" lengthAdjust="spacingAndGlyphs"
text-anchor="middle" opacity="0">https://www.diodes.com/assets/Datasheets/ds30396.pdf</text>
<g class="stroked-text"><desc>https://www.diodes.com/assets/Datasheets/ds30396.pdf</desc>
<path d="M5.9995 5.0436
L5.9995 3.7736
" />
<path d="M6.5438 5.0436
L6.5438 4.3784
" />
<path d="M6.5438 4.3784
L6.4833 4.2574
" />
<path d="M6.4833 4.2574
L6.3624 4.1970
" />
<path d="M6.3624 4.1970
L6.1810 4.1970
" />
<path d="M6.1810 4.1970
L6.0600 4.2574
" />
<path d="M6.0600 4.2574
L5.9995 4.3179
" />
<path d="M6.9671 4.1970
L7.4509 4.1970
" />
<path d="M7.1485 3.7736
L7.1485 4.8622
" />
<path d="M7.1485 4.8622
L7.2090 4.9832
" />
<path d="M7.2090 4.9832
L7.3300 5.0436
" />
<path d="M7.3300 5.0436
L7.4509 5.0436
" />
<path d="M7.6928 4.1970
L8.1766 4.1970
" />
<path d="M7.8742 3.7736
L7.8742 4.8622
" />
<path d="M7.8742 4.8622
L7.9347 4.9832
" />
<path d="M7.9347 4.9832
L8.0557 5.0436
" />
<path d="M8.0557 5.0436
L8.1766 5.0436
" />
<path d="M8.5999 4.1970
L8.5999 5.4670
" />
<path d="M8.5999 4.2574
L8.7209 4.1970
" />
<path d="M8.7209 4.1970
L8.9628 4.1970
" />
<path d="M8.9628 4.1970
L9.0837 4.2574
" />
<path d="M9.0837 4.2574
L9.1442 4.3179
" />
<path d="M9.1442 4.3179
L9.2047 4.4389
" />
<path d="M9.2047 4.4389
L9.2047 4.8017
" />
<path d="M9.2047 4.8017
L9.1442 4.9227
" />
<path d="M9.1442 4.9227
L9.0837 4.9832
" />
<path d="M9.0837 4.9832
L8.9628 5.0436
" />
<path d="M8.9628 5.0436
L8.7209 5.0436
" />
<path d="M8.7209 5.0436
L8.5999 4.9832
" />
<path d="M9.6885 4.9832
L9.8094 5.0436
" />
<path d="M9.8094 5.0436
L10.0513 5.0436
" />
<path d="M10.0513 5.0436
L10.1723 4.9832
" />
<path d="M10.1723 4.9832
L10.2327 4.8622
" />
<path d="M10.2327 4.8622
L10.2327 4.8017
" />
<path d="M10.2327 4.8017
L10.1723 4.6808
" />
<path d="M10.1723 4.6808
L10.0513 4.6203
" />
<path d="M10.0513 4.6203
L9.8699 4.6203
" />
<path d="M9.8699 4.6203
L9.7489 4.5598
" />
<path d="M9.7489 4.5598
L9.6885 4.4389
" />
<path d="M9.6885 4.4389
L9.6885 4.3784
" />
<path d="M9.6885 4.3784
L9.7489 4.2574
" />
<path d="M9.7489 4.2574
L9.8699 4.1970
" />
<path d="M9.8699 4.1970
L10.0513 4.1970
" />
<path d="M10.0513 4.1970
L10.1723 4.2574
" />
<path d="M10.7770 4.9227
L10.8375 4.9832
" />
<path d="M10.8375 4.9832
L10.7770 5.0436
" />
<path d="M10.7770 5.0436
L10.7166 4.9832
" />
<path d="M10.7166 4.9832
L10.7770 4.9227
" />
<path d="M10.7770 4.9227
L10.7770 5.0436
" />
<path d="M10.7770 4.2574
L10.8375 4.3179
" />
<path d="M10.8375 4.3179
L10.7770 4.3784
" />
<path d="M10.7770 4.3784
L10.7166 4.3179
" />
<path d="M10.7166 4.3179
L10.7770 4.2574
" />
<path d="M10.7770 4.2574
L10.7770 4.3784
" />
<path d="M12.2890 3.7132
L11.2004 5.3460
" />
<path d="M13.6195 3.7132
L12.5309 5.3460
" />
<path d="M13.9219 4.1970
L14.1638 5.0436
" />
<path d="M14.1638 5.0436
L14.4057 4.4389
" />
<path d="M14.4057 4.4389
L14.6476 5.0436
" />
<path d="M14.6476 5.0436
L14.8895 4.1970
" />
<path d="M15.2524 4.1970
L15.4943 5.0436
" />
<path d="M15.4943 5.0436
L15.7362 4.4389
" />
<path d="M15.7362 4.4389
L15.9781 5.0436
" />
<path d="M15.9781 5.0436
L16.2200 4.1970
" />
<path d="M16.5829 4.1970
L16.8248 5.0436
" />
<path d="M16.8248 5.0436
L17.0667 4.4389
" />
<path d="M17.0667 4.4389
L17.3086 5.0436
" />
<path d="M17.3086 5.0436
L17.5505 4.1970
" />
<path d="M18.0343 4.9227
L18.0948 4.9832
" />
<path d="M18.0948 4.9832
L18.0343 5.0436
" />
<path d="M18.0343 5.0436
L17.9739 4.9832
" />
<path d="M17.9739 4.9832
L18.0343 4.9227
" />
<path d="M18.0343 4.9227
L18.0343 5.0436
" />
<path d="M19.1834 5.0436
L19.1834 3.7736
" />
<path d="M19.1834 4.9832
L19.0625 5.0436
" />
<path d="M19.0625 5.0436
L18.8206 5.0436
" />
<path d="M18.8206 5.0436
L18.6996 4.9832
" />
<path d="M18.6996 4.9832
L18.6391 4.9227
" />
<path d="M18.6391 4.9227
L18.5787 4.8017
" />
<path d="M18.5787 4.8017
L18.5787 4.4389
" />
<path d="M18.5787 4.4389
L18.6391 4.3179
" />
<path d="M18.6391 4.3179
L18.6996 4.2574
" />
<path d="M18.6996 4.2574
L18.8206 4.1970
" />
<path d="M18.8206 4.1970
L19.0625 4.1970
" />
<path d="M19.0625 4.1970
L19.1834 4.2574
" />
<path d="M19.7881 5.0436
L19.7881 4.1970
" />
<path d="M19.7881 3.7736
L19.7277 3.8341
" />
<path d="M19.7277 3.8341
L19.7881 3.8946
" />
<path d="M19.7881 3.8946
L19.8486 3.8341
" />
<path d="M19.8486 3.8341
L19.7881 3.7736
" />
<path d="M19.7881 3.7736
L19.7881 3.8946
" />
<path d="M20.5744 5.0436
L20.4534 4.9832
" />
<path d="M20.4534 4.9832
L20.3929 4.9227
" />
<path d="M20.3929 4.9227
L20.3325 4.8017
" />
<path d="M20.3325 4.8017
L20.3325 4.4389
" />
<path d="M20.3325 4.4389
L20.3929 4.3179
" />
<path d="M20.3929 4.3179
L20.4534 4.2574
" />
<path d="M20.4534 4.2574
L20.5744 4.1970
" />
<path d="M20.5744 4.1970
L20.7558 4.1970
" />
<path d="M20.7558 4.1970
L20.8767 4.2574
" />
<path d="M20.8767 4.2574
L20.9372 4.3179
" />
<path d="M20.9372 4.3179
L20.9977 4.4389
" />
<path d="M20.9977 4.4389
L20.9977 4.8017
" />
<path d="M20.9977 4.8017
L20.9372 4.9227
" />
<path d="M20.9372 4.9227
L20.8767 4.9832
" />
<path d="M20.8767 4.9832
L20.7558 5.0436
" />
<path d="M20.7558 5.0436
L20.5744 5.0436
" />
<path d="M22.0862 5.0436
L22.0862 3.7736
" />
<path d="M22.0862 4.9832
L21.9653 5.0436
" />
<path d="M21.9653 5.0436
L21.7234 5.0436
" />
<path d="M21.7234 5.0436
L21.6024 4.9832
" />
<path d="M21.6024 4.9832
L21.5419 4.9227
" />
<path d="M21.5419 4.9227
L21.4815 4.8017
" />
<path d="M21.4815 4.8017
L21.4815 4.4389
" />
<path d="M21.4815 4.4389
L21.5419 4.3179
" />
<path d="M21.5419 4.3179
L21.6024 4.2574
" />
<path d="M21.6024 4.2574
L21.7234 4.1970
" />
<path d="M21.7234 4.1970
L21.9653 4.1970
" />
<path d="M21.9653 4.1970
L22.0862 4.2574
" />
<path d="M23.1747 4.9832
L23.0538 5.0436
" />
<path d="M23.0538 5.0436
L22.8119 5.0436
" />
<path d="M22.8119 5.0436
L22.6909 4.9832
" />
<path d="M22.6909 4.9832
L22.6305 4.8622
" />
<path d="M22.6305 4.8622
L22.6305 4.3784
" />
<path d="M22.6305 4.3784
L22.6909 4.2574
" />
<path d="M22.6909 4.2574
L22.8119 4.1970
" />
<path d="M22.8119 4.1970
L23.0538 4.1970
" />
<path d="M23.0538 4.1970
L23.1747 4.2574
" />
<path d="M23.1747 4.2574
L23.2352 4.3784
" />
<path d="M23.2352 4.3784
L23.2352 4.4993
" />
<path d="M23.2352 4.4993
L22.6305 4.6203
" />
<path d="M23.7191 4.9832
L23.8400 5.0436
" />
<path d="M23.8400 5.0436
L24.0819 5.0436
" />
<path d="M24.0819 5.0436
L24.2029 4.9832
" />
<path d="M24.2029 4.9832
L24.2633 4.8622
" />
<path d="M24.2633 4.8622
L24.2633 4.8017
" />
<path d="M24.2633 4.8017
L24.2029 4.6808
" />
<path d="M24.2029 4.6808
L24.0819 4.6203
" />
<path d="M24.0819 4.6203
L23.9005 4.6203
" />
<path d="M23.9005 4.6203
L23.7795 4.5598
" />
<path d="M23.7795 4.5598
L23.7191 4.4389
" />
<path d="M23.7191 4.4389
L23.7191 4.3784
" />
<path d="M23.7191 4.3784
L23.7795 4.2574
" />
<path d="M23.7795 4.2574
L23.9005 4.1970
" />
<path d="M23.9005 4.1970
L24.0819 4.1970
" />
<path d="M24.0819 4.1970
L24.2029 4.2574
" />
<path d="M24.8076 4.9227
L24.8681 4.9832
" />
<path d="M24.8681 4.9832
L24.8076 5.0436
" />
<path d="M24.8076 5.0436
L24.7472 4.9832
" />
<path d="M24.7472 4.9832
L24.8076 4.9227
" />
<path d="M24.8076 4.9227
L24.8076 5.0436
" />
<path d="M25.9567 4.9832
L25.8358 5.0436
" />
<path d="M25.8358 5.0436
L25.5939 5.0436
" />
<path d="M25.5939 5.0436
L25.4729 4.9832
" />
<path d="M25.4729 4.9832
L25.4124 4.9227
" />
<path d="M25.4124 4.9227
L25.3520 4.8017
" />
<path d="M25.3520 4.8017
L25.3520 4.4389
" />
<path d="M25.3520 4.4389
L25.4124 4.3179
" />
<path d="M25.4124 4.3179
L25.4729 4.2574
" />
<path d="M25.4729 4.2574
L25.5939 4.1970
" />
<path d="M25.5939 4.1970
L25.8358 4.1970
" />
<path d="M25.8358 4.1970
L25.9567 4.2574
" />
<path d="M26.6825 5.0436
L26.5615 4.9832
" />
<path d="M26.5615 4.9832
L26.5010 4.9227
" />
<path d="M26.5010 4.9227
L26.4406 4.8017
" />
<path d="M26.4406 4.8017
L26.4406 4.4389
" />
<path d="M26.4406 4.4389
L26.5010 4.3179
" />
<path d="M26.5010 4.3179
L26.5615 4.2574
" />
<path d="M26.5615 4.2574
L26.6825 4.1970
" />
<path d="M26.6825 4.1970
L26.8639 4.1970
" />
<path d="M26.8639 4.1970
L26.9848 4.2574
" />
<path d="M26.9848 4.2574
L27.0453 4.3179
" />
<path d="M27.0453 4.3179
L27.1058 4.4389
" />
<path d="M27.1058 4.4389
L27.1058 4.8017
" />
<path d="M27.1058 4.8017
L27.0453 4.9227
" />
<path d="M27.0453 4.9227
L26.9848 4.9832
" />
<path d="M26.9848 4.9832
L26.8639 5.0436
" />
<path d="M26.8639 5.0436
L26.6825 5.0436
" />
<path d="M27.6500 5.0436
L27.6500 4.1970
" />
<path d="M27.6500 4.3179
L27.7105 4.2574
" />
<path d="M27.7105 4.2574
L27.8315 4.1970
" />
<path d="M27.8315 4.1970
L28.0129 4.1970
" />
<path d="M28.0129 4.1970
L28.1338 4.2574
" />
<path d="M28.1338 4.2574
L28.1943 4.3784
" />
<path d="M28.1943 4.3784
L28.1943 5.0436
" />
<path d="M28.1943 4.3784
L28.2548 4.2574
" />
<path d="M28.2548 4.2574
L28.3757 4.1970
" />
<path d="M28.3757 4.1970
L28.5572 4.1970
" />
<path d="M28.5572 4.1970
L28.6781 4.2574
" />
<path d="M28.6781 4.2574
L28.7386 4.3784
" />
<path d="M28.7386 4.3784
L28.7386 5.0436
" />
<path d="M30.2505 3.7132
L29.1619 5.3460
" />
<path d="M31.2181 5.0436
L31.2181 4.3784
" />
<path d="M31.2181 4.3784
L31.1576 4.2574
" />
<path d="M31.1576 4.2574
L31.0367 4.1970
" />
<path d="M31.0367 4.1970
L30.7948 4.1970
" />
<path d="M30.7948 4.1970
L30.6738 4.2574
" />
<path d="M31.2181 4.9832
L31.0972 5.0436
" />
<path d="M31.0972 5.0436
L30.7948 5.0436
" />
<path d="M30.7948 5.0436
L30.6738 4.9832
" />
<path d="M30.6738 4.9832
L30.6134 4.8622
" />
<path d="M30.6134 4.8622
L30.6134 4.7412
" />
<path d="M30.6134 4.7412
L30.6738 4.6203
" />
<path d="M30.6738 4.6203
L30.7948 4.5598
" />
<path d="M30.7948 4.5598
L31.0972 4.5598
" />
<path d="M31.0972 4.5598
L31.2181 4.4993
" />
<path d="M31.7624 4.9832
L31.8833 5.0436
" />
<path d="M31.8833 5.0436
L32.1252 5.0436
" />
<path d="M32.1252 5.0436
L32.2462 4.9832
" />
<path d="M32.2462 4.9832
L32.3066 4.8622
" />
<path d="M32.3066 4.8622
L32.3066 4.8017
" />
<path d="M32.3066 4.8017
L32.2462 4.6808
" />
<path d="M32.2462 4.6808
L32.1252 4.6203
" />
<path d="M32.1252 4.6203
L31.9438 4.6203
" />
<path d="M31.9438 4.6203
L31.8228 4.5598
" />
<path d="M31.8228 4.5598
L31.7624 4.4389
" />
<path d="M31.7624 4.4389
L31.7624 4.3784
" />
<path d="M31.7624 4.3784
L31.8228 4.2574
" />
<path d="M31.8228 4.2574
L31.9438 4.1970
" />
<path d="M31.9438 4.1970
L32.1252 4.1970
" />
<path d="M32.1252 4.1970
L32.2462 4.2574
" />
<path d="M32.7905 4.9832
L32.9114 5.0436
" />
<path d="M32.9114 5.0436
L33.1533 5.0436
" />
<path d="M33.1533 5.0436
L33.2743 4.9832
" />
<path d="M33.2743 4.9832
L33.3347 4.8622
" />
<path d="M33.3347 4.8622
L33.3347 4.8017
" />
<path d="M33.3347 4.8017
L33.2743 4.6808
" />
<path d="M33.2743 4.6808
L33.1533 4.6203
" />
<path d="M33.1533 4.6203
L32.9719 4.6203
" />
<path d="M32.9719 4.6203
L32.8509 4.5598
" />
<path d="M32.8509 4.5598
L32.7905 4.4389
" />
<path d="M32.7905 4.4389
L32.7905 4.3784
" />
<path d="M32.7905 4.3784
L32.8509 4.2574
" />
<path d="M32.8509 4.2574
L32.9719 4.1970
" />
<path d="M32.9719 4.1970
L33.1533 4.1970
" />
<path d="M33.1533 4.1970
L33.2743 4.2574
" />
<path d="M34.3628 4.9832
L34.2419 5.0436
" />
<path d="M34.2419 5.0436
L34.0000 5.0436
" />
<path d="M34.0000 5.0436
L33.8790 4.9832
" />
<path d="M33.8790 4.9832
L33.8186 4.8622
" />
<path d="M33.8186 4.8622
L33.8186 4.3784
" />
<path d="M33.8186 4.3784
L33.8790 4.2574
" />
<path d="M33.8790 4.2574
L34.0000 4.1970
" />
<path d="M34.0000 4.1970
L34.2419 4.1970
" />
<path d="M34.2419 4.1970
L34.3628 4.2574
" />
<path d="M34.3628 4.2574
L34.4233 4.3784
" />
<path d="M34.4233 4.3784
L34.4233 4.4993
" />
<path d="M34.4233 4.4993
L33.8186 4.6203
" />
<path d="M34.7862 4.1970
L35.2700 4.1970
" />
<path d="M34.9676 3.7736
L34.9676 4.8622
" />
<path d="M34.9676 4.8622
L35.0281 4.9832
" />
<path d="M35.0281 4.9832
L35.1491 5.0436
" />
<path d="M35.1491 5.0436
L35.2700 5.0436
" />
<path d="M35.6329 4.9832
L35.7538 5.0436
" />
<path d="M35.7538 5.0436
L35.9957 5.0436
" />
<path d="M35.9957 5.0436
L36.1167 4.9832
" />
<path d="M36.1167 4.9832
L36.1771 4.8622
" />
<path d="M36.1771 4.8622
L36.1771 4.8017
" />
<path d="M36.1771 4.8017
L36.1167 4.6808
" />
<path d="M36.1167 4.6808
L35.9957 4.6203
" />
<path d="M35.9957 4.6203
L35.8143 4.6203
" />
<path d="M35.8143 4.6203
L35.6933 4.5598
" />
<path d="M35.6933 4.5598
L35.6329 4.4389
" />
<path d="M35.6329 4.4389
L35.6329 4.3784
" />
<path d="M35.6329 4.3784
L35.6933 4.2574
" />
<path d="M35.6933 4.2574
L35.8143 4.1970
" />
<path d="M35.8143 4.1970
L35.9957 4.1970
" />
<path d="M35.9957 4.1970
L36.1167 4.2574
" />
<path d="M37.6286 3.7132
L36.5400 5.3460
" />
<path d="M38.0519 5.0436
L38.0519 3.7736
" />
<path d="M38.0519 3.7736
L38.3543 3.7736
" />
<path d="M38.3543 3.7736
L38.5357 3.8341
" />
<path d="M38.5357 3.8341
L38.6567 3.9551
" />
<path d="M38.6567 3.9551
L38.7172 4.0760
" />
<path d="M38.7172 4.0760
L38.7776 4.3179
" />
<path d="M38.7776 4.3179
L38.7776 4.4993
" />
<path d="M38.7776 4.4993
L38.7172 4.7412
" />
<path d="M38.7172 4.7412
L38.6567 4.8622
" />
<path d="M38.6567 4.8622
L38.5357 4.9832
" />
<path d="M38.5357 4.9832
L38.3543 5.0436
" />
<path d="M38.3543 5.0436
L38.0519 5.0436
" />
<path d="M39.8662 5.0436
L39.8662 4.3784
" />
<path d="M39.8662 4.3784
L39.8057 4.2574
" />
<path d="M39.8057 4.2574
L39.6848 4.1970
" />
<path d="M39.6848 4.1970
L39.4429 4.1970
" />
<path d="M39.4429 4.1970
L39.3219 4.2574
" />
<path d="M39.8662 4.9832
L39.7453 5.0436
" />
<path d="M39.7453 5.0436
L39.4429 5.0436
" />
<path d="M39.4429 5.0436
L39.3219 4.9832
" />
<path d="M39.3219 4.9832
L39.2615 4.8622
" />
<path d="M39.2615 4.8622
L39.2615 4.7412
" />
<path d="M39.2615 4.7412
L39.3219 4.6203
" />
<path d="M39.3219 4.6203
L39.4429 4.5598
" />
<path d="M39.4429 4.5598
L39.7453 4.5598
" />
<path d="M39.7453 4.5598
L39.8662 4.4993
" />
<path d="M40.2895 4.1970
L40.7733 4.1970
" />
<path d="M40.4709 3.7736
L40.4709 4.8622
" />
<path d="M40.4709 4.8622
L40.5314 4.9832
" />
<path d="M40.5314 4.9832
L40.6524 5.0436
" />
<path d="M40.6524 5.0436
L40.7733 5.0436
" />
<path d="M41.7409 5.0436
L41.7409 4.3784
" />
<path d="M41.7409 4.3784
L41.6804 4.2574
" />
<path d="M41.6804 4.2574
L41.5595 4.1970
" />
<path d="M41.5595 4.1970
L41.3176 4.1970
" />
<path d="M41.3176 4.1970
L41.1966 4.2574
" />
<path d="M41.7409 4.9832
L41.6200 5.0436
" />
<path d="M41.6200 5.0436
L41.3176 5.0436
" />
<path d="M41.3176 5.0436
L41.1966 4.9832
" />
<path d="M41.1966 4.9832
L41.1362 4.8622
" />
<path d="M41.1362 4.8622
L41.1362 4.7412
" />
<path d="M41.1362 4.7412
L41.1966 4.6203
" />
<path d="M41.1966 4.6203
L41.3176 4.5598
" />
<path d="M41.3176 4.5598
L41.6200 4.5598
" />
<path d="M41.6200 4.5598
L41.7409 4.4993
" />
<path d="M42.2852 4.9832
L42.4061 5.0436
" />
<path d="M42.4061 5.0436
L42.6480 5.0436
" />
<path d="M42.6480 5.0436
L42.7690 4.9832
" />
<path d="M42.7690 4.9832
L42.8294 4.8622
" />
<path d="M42.8294 4.8622
L42.8294 4.8017
" />
<path d="M42.8294 4.8017
L42.7690 4.6808
" />
<path d="M42.7690 4.6808
L42.6480 4.6203
" />
<path d="M42.6480 4.6203
L42.4666 4.6203
" />
<path d="M42.4666 4.6203
L42.3456 4.5598
" />
<path d="M42.3456 4.5598
L42.2852 4.4389
" />
<path d="M42.2852 4.4389
L42.2852 4.3784
" />
<path d="M42.2852 4.3784
L42.3456 4.2574
" />
<path d="M42.3456 4.2574
L42.4666 4.1970
" />
<path d="M42.4666 4.1970
L42.6480 4.1970
" />
<path d="M42.6480 4.1970
L42.7690 4.2574
" />
<path d="M43.3737 5.0436
L43.3737 3.7736
" />
<path d="M43.9180 5.0436
L43.9180 4.3784
" />
<path d="M43.9180 4.3784
L43.8575 4.2574
" />
<path d="M43.8575 4.2574
L43.7366 4.1970
" />
<path d="M43.7366 4.1970
L43.5552 4.1970
" />
<path d="M43.5552 4.1970
L43.4342 4.2574
" />
<path d="M43.4342 4.2574
L43.3737 4.3179
" />
<path d="M45.0065 4.9832
L44.8856 5.0436
" />
<path d="M44.8856 5.0436
L44.6437 5.0436
" />
<path d="M44.6437 5.0436
L44.5227 4.9832
" />
<path d="M44.5227 4.9832
L44.4623 4.8622
" />
<path d="M44.4623 4.8622
L44.4623 4.3784
" />
<path d="M44.4623 4.3784
L44.5227 4.2574
" />
<path d="M44.5227 4.2574
L44.6437 4.1970
" />
<path d="M44.6437 4.1970
L44.8856 4.1970
" />
<path d="M44.8856 4.1970
L45.0065 4.2574
" />
<path d="M45.0065 4.2574
L45.0670 4.3784
" />
<path d="M45.0670 4.3784
L45.0670 4.4993
" />
<path d="M45.0670 4.4993
L44.4623 4.6203
" />
<path d="M46.0951 4.9832
L45.9742 5.0436
" />
<path d="M45.9742 5.0436
L45.7323 5.0436
" />
<path d="M45.7323 5.0436
L45.6113 4.9832
" />
<path d="M45.6113 4.9832
L45.5509 4.8622
" />
<path d="M45.5509 4.8622
L45.5509 4.3784
" />
<path d="M45.5509 4.3784
L45.6113 4.2574
" />
<path d="M45.6113 4.2574
L45.7323 4.1970
" />
<path d="M45.7323 4.1970
L45.9742 4.1970
" />
<path d="M45.9742 4.1970
L46.0951 4.2574
" />
<path d="M46.0951 4.2574
L46.1556 4.3784
" />
<path d="M46.1556 4.3784
L46.1556 4.4993
" />
<path d="M46.1556 4.4993
L45.5509 4.6203
" />
<path d="M46.5185 4.1970
L47.0023 4.1970
" />
<path d="M46.6999 3.7736
L46.6999 4.8622
" />
<path d="M46.6999 4.8622
L46.7604 4.9832
" />
<path d="M46.7604 4.9832
L46.8814 5.0436
" />
<path d="M46.8814 5.0436
L47.0023 5.0436
" />
<path d="M47.3652 4.9832
L47.4861 5.0436
" />
<path d="M47.4861 5.0436
L47.7280 5.0436
" />
<path d="M47.7280 5.0436
L47.8490 4.9832
" />
<path d="M47.8490 4.9832
L47.9094 4.8622
" />
<path d="M47.9094 4.8622
L47.9094 4.8017
" />
<path d="M47.9094 4.8017
L47.8490 4.6808
" />
<path d="M47.8490 4.6808
L47.7280 4.6203
" />
<path d="M47.7280 4.6203
L47.5466 4.6203
" />
<path d="M47.5466 4.6203
L47.4256 4.5598
" />
<path d="M47.4256 4.5598
L47.3652 4.4389
" />
<path d="M47.3652 4.4389
L47.3652 4.3784
" />
<path d="M47.3652 4.3784
L47.4256 4.2574
" />
<path d="M47.4256 4.2574
L47.5466 4.1970
" />
<path d="M47.5466 4.1970
L47.7280 4.1970
" />
<path d="M47.7280 4.1970
L47.8490 4.2574
" />
<path d="M49.3609 3.7132
L48.2723 5.3460
" />
<path d="M50.3285 5.0436
L50.3285 3.7736
" />
<path d="M50.3285 4.9832
L50.2076 5.0436
" />
<path d="M50.2076 5.0436
L49.9657 5.0436
" />
<path d="M49.9657 5.0436
L49.8447 4.9832
" />
<path d="M49.8447 4.9832
L49.7842 4.9227
" />
<path d="M49.7842 4.9227
L49.7238 4.8017
" />
<path d="M49.7238 4.8017
L49.7238 4.4389
" />
<path d="M49.7238 4.4389
L49.7842 4.3179
" />
<path d="M49.7842 4.3179
L49.8447 4.2574
" />
<path d="M49.8447 4.2574
L49.9657 4.1970
" />
<path d="M49.9657 4.1970
L50.2076 4.1970
" />
<path d="M50.2076 4.1970
L50.3285 4.2574
" />
<path d="M50.8728 4.9832
L50.9937 5.0436
" />
<path d="M50.9937 5.0436
L51.2356 5.0436
" />
<path d="M51.2356 5.0436
L51.3566 4.9832
" />
<path d="M51.3566 4.9832
L51.4170 4.8622
" />
<path d="M51.4170 4.8622
L51.4170 4.8017
" />
<path d="M51.4170 4.8017
L51.3566 4.6808
" />
<path d="M51.3566 4.6808
L51.2356 4.6203
" />
<path d="M51.2356 4.6203
L51.0542 4.6203
" />
<path d="M51.0542 4.6203
L50.9332 4.5598
" />
<path d="M50.9332 4.5598
L50.8728 4.4389
" />
<path d="M50.8728 4.4389
L50.8728 4.3784
" />
<path d="M50.8728 4.3784
L50.9332 4.2574
" />
<path d="M50.9332 4.2574
L51.0542 4.1970
" />
<path d="M51.0542 4.1970
L51.2356 4.1970
" />
<path d="M51.2356 4.1970
L51.3566 4.2574
" />
<path d="M51.8404 3.7736
L52.6266 3.7736
" />
<path d="M52.6266 3.7736
L52.2032 4.2574
" />
<path d="M52.2032 4.2574
L52.3847 4.2574
" />
<path d="M52.3847 4.2574
L52.5056 4.3179
" />
<path d="M52.5056 4.3179
L52.5661 4.3784
" />
<path d="M52.5661 4.3784
L52.6266 4.4993
" />
<path d="M52.6266 4.4993
L52.6266 4.8017
" />
<path d="M52.6266 4.8017
L52.5661 4.9227
" />
<path d="M52.5661 4.9227
L52.5056 4.9832
" />
<path d="M52.5056 4.9832
L52.3847 5.0436
" />
<path d="M52.3847 5.0436
L52.0218 5.0436
" />
<path d="M52.0218 5.0436
L51.9009 4.9832
" />
<path d="M51.9009 4.9832
L51.8404 4.9227
" />
<path d="M53.4127 3.7736
L53.5337 3.7736
" />
<path d="M53.5337 3.7736
L53.6546 3.8341
" />
<path d="M53.6546 3.8341
L53.7151 3.8946
" />
<path d="M53.7151 3.8946
L53.7756 4.0155
" />
<path d="M53.7756 4.0155
L53.8361 4.2574
" />
<path d="M53.8361 4.2574
L53.8361 4.5598
" />
<path d="M53.8361 4.5598
L53.7756 4.8017
" />
<path d="M53.7756 4.8017
L53.7151 4.9227
" />
<path d="M53.7151 4.9227
L53.6546 4.9832
" />
<path d="M53.6546 4.9832
L53.5337 5.0436
" />
<path d="M53.5337 5.0436
L53.4127 5.0436
" />
<path d="M53.4127 5.0436
L53.2918 4.9832
" />
<path d="M53.2918 4.9832
L53.2313 4.9227
" />
<path d="M53.2313 4.9227
L53.1708 4.8017
" />
<path d="M53.1708 4.8017
L53.1104 4.5598
" />
<path d="M53.1104 4.5598
L53.1104 4.2574
" />
<path d="M53.1104 4.2574
L53.1708 4.0155
" />
<path d="M53.1708 4.0155
L53.2313 3.8946
" />
<path d="M53.2313 3.8946
L53.2918 3.8341
" />
<path d="M53.2918 3.8341
L53.4127 3.7736
" />
<path d="M54.2594 3.7736
L55.0456 3.7736
" />
<path d="M55.0456 3.7736
L54.6222 4.2574
" />
<path d="M54.6222 4.2574
L54.8037 4.2574
" />
<path d="M54.8037 4.2574
L54.9246 4.3179
" />
<path d="M54.9246 4.3179
L54.9851 4.3784
" />
<path d="M54.9851 4.3784
L55.0456 4.4993
" />
<path d="M55.0456 4.4993
L55.0456 4.8017
" />
<path d="M55.0456 4.8017
L54.9851 4.9227
" />
<path d="M54.9851 4.9227
L54.9246 4.9832
" />
<path d="M54.9246 4.9832
L54.8037 5.0436
" />
<path d="M54.8037 5.0436
L54.4408 5.0436
" />
<path d="M54.4408 5.0436
L54.3199 4.9832
" />
<path d="M54.3199 4.9832
L54.2594 4.9227
" />
<path d="M55.6503 5.0436
L55.8922 5.0436
" />
<path d="M55.8922 5.0436
L56.0132 4.9832
" />
<path d="M56.0132 4.9832
L56.0736 4.9227
" />
<path d="M56.0736 4.9227
L56.1946 4.7412
" />
<path d="M56.1946 4.7412
L56.2551 4.4993
" />
<path d="M56.2551 4.4993
L56.2551 4.0155
" />
<path d="M56.2551 4.0155
L56.1946 3.8946
" />
<path d="M56.1946 3.8946
L56.1341 3.8341
" />
<path d="M56.1341 3.8341
L56.0132 3.7736
" />
<path d="M56.0132 3.7736
L55.7713 3.7736
" />
<path d="M55.7713 3.7736
L55.6503 3.8341
" />
<path d="M55.6503 3.8341
L55.5898 3.8946
" />
<path d="M55.5898 3.8946
L55.5294 4.0155
" />
<path d="M55.5294 4.0155
L55.5294 4.3179
" />
<path d="M55.5294 4.3179
L55.5898 4.4389
" />
<path d="M55.5898 4.4389
L55.6503 4.4993
" />
<path d="M55.6503 4.4993
L55.7713 4.5598
" />
<path d="M55.7713 4.5598
L56.0132 4.5598
" />
<path d="M56.0132 4.5598
L56.1341 4.4993
" />
<path d="M56.1341 4.4993
L56.1946 4.4389
" />
<path d="M56.1946 4.4389
L56.2551 4.3179
" />
<path d="M57.3436 3.7736
L57.1017 3.7736
" />
<path d="M57.1017 3.7736
L56.9808 3.8341
" />
<path d="M56.9808 3.8341
L56.9203 3.8946
" />
<path d="M56.9203 3.8946
L56.7993 4.0760
" />
<path d="M56.7993 4.0760
L56.7389 4.3179
" />
<path d="M56.7389 4.3179
L56.7389 4.8017
" />
<path d="M56.7389 4.8017
L56.7993 4.9227
" />
<path d="M56.7993 4.9227
L56.8598 4.9832
" />
<path d="M56.8598 4.9832
L56.9808 5.0436
" />
<path d="M56.9808 5.0436
L57.2227 5.0436
" />
<path d="M57.2227 5.0436
L57.3436 4.9832
" />
<path d="M57.3436 4.9832
L57.4041 4.9227
" />
<path d="M57.4041 4.9227
L57.4646 4.8017
" />
<path d="M57.4646 4.8017
L57.4646 4.4993
" />
<path d="M57.4646 4.4993
L57.4041 4.3784
" />
<path d="M57.4041 4.3784
L57.3436 4.3179
" />
<path d="M57.3436 4.3179
L57.2227 4.2574
" />
<path d="M57.2227 4.2574
L56.9808 4.2574
" />
<path d="M56.9808 4.2574
L56.8598 4.3179
" />
<path d="M56.8598 4.3179
L56.7993 4.3784
" />
<path d="M56.7993 4.3784
L56.7389 4.4993
" />
<path d="M58.0088 4.9227
L58.0693 4.9832
" />
<path d="M58.0693 4.9832
L58.0088 5.0436
" />
<path d="M58.0088 5.0436
L57.9484 4.9832
" />
<path d="M57.9484 4.9832
L58.0088 4.9227
" />
<path d="M58.0088 4.9227
L58.0088 5.0436
" />
<path d="M58.6136 4.1970
L58.6136 5.4670
" />
<path d="M58.6136 4.2574
L58.7346 4.1970
" />
<path d="M58.7346 4.1970
L58.9765 4.1970
" />
<path d="M58.9765 4.1970
L59.0974 4.2574
" />
<path d="M59.0974 4.2574
L59.1579 4.3179
" />
<path d="M59.1579 4.3179
L59.2184 4.4389
" />
<path d="M59.2184 4.4389
L59.2184 4.8017
" />
<path d="M59.2184 4.8017
L59.1579 4.9227
" />
<path d="M59.1579 4.9227
L59.0974 4.9832
" />
<path d="M59.0974 4.9832
L58.9765 5.0436
" />
<path d="M58.9765 5.0436
L58.7346 5.0436
" />
<path d="M58.7346 5.0436
L58.6136 4.9832
" />
<path d="M60.3069 5.0436
L60.3069 3.7736
" />
<path d="M60.3069 4.9832
L60.1860 5.0436
" />
<path d="M60.1860 5.0436
L59.9441 5.0436
" />
<path d="M59.9441 5.0436
L59.8231 4.9832
" />
<path d="M59.8231 4.9832
L59.7626 4.9227
" />
<path d="M59.7626 4.9227
L59.7022 4.8017
" />
<path d="M59.7022 4.8017
L59.7022 4.4389
" />
<path d="M59.7022 4.4389
L59.7626 4.3179
" />
<path d="M59.7626 4.3179
L59.8231 4.2574
" />
<path d="M59.8231 4.2574
L59.9441 4.1970
" />
<path d="M59.9441 4.1970
L60.1860 4.1970
" />
<path d="M60.1860 4.1970
L60.3069 4.2574
" />
<path d="M60.7302 4.1970
L61.2140 4.1970
" />
<path d="M60.9116 5.0436
L60.9116 3.9551
" />
<path d="M60.9116 3.9551
L60.9721 3.8341
" />
<path d="M60.9721 3.8341
L61.0931 3.7736
" />
<path d="M61.0931 3.7736
L61.2140 3.7736
" />
</g></g> 
</svg>
