<?xml version="1.0" standalone="no"?>
 <!DOCTYPE svg PUBLIC "-//W3C//DTD SVG 1.1//EN" 
 "http://www.w3.org/Graphics/SVG/1.1/DTD/svg11.dtd"> 
<svg
  xmlns:svg="http://www.w3.org/2000/svg"
  xmlns="http://www.w3.org/2000/svg"
  xmlns:xlink="http://www.w3.org/1999/xlink"
  version="1.1"
  width="84.3026mm" height="43.6118mm" viewBox="0.0000 0.0000 84.3026 43.6118">
<title>SVG Image created as working.svg date 2023/08/12 22:16:28 </title>
  <desc>Image generated by Eeschema-SVG </desc>
<g style="fill:#000000; fill-opacity:1.0000;stroke:#000000; stroke-opacity:1.0000;
stroke-linecap:round; stroke-linejoin:round;"
 transform="translate(0 0) scale(1 1)">
</g>
<g style="fill:#840000; fill-opacity:0.0; 
stroke:#840000; stroke-width:0.0000; stroke-opacity:1; 
stroke-linecap:round; stroke-linejoin:round;">
</g>
<g style="fill:#840084; fill-opacity:0.0; 
stroke:#840084; stroke-width:0.0000; stroke-opacity:1; 
stroke-linecap:round; stroke-linejoin:round;">
</g>
<g style="fill:#840000; fill-opacity:0.0; 
stroke:#840000; stroke-width:0.0000; stroke-opacity:1; 
stroke-linecap:round; stroke-linejoin:round;">
</g>
<g style="fill:#840084; fill-opacity:0.0; 
stroke:#840084; stroke-width:0.0000; stroke-opacity:1; 
stroke-linecap:round; stroke-linejoin:round;">
</g>
<g style="fill:#006464; fill-opacity:0.0; 
stroke:#006464; stroke-width:0.0000; stroke-opacity:1; 
stroke-linecap:round; stroke-linejoin:round;">
</g>
<g style="fill:#006464; fill-opacity:0.0; 
stroke:#006464; stroke-width:0.1588; stroke-opacity:1; 
stroke-linecap:round; stroke-linejoin:round;">
<text x="34.5319" y="5.2899"
textLength="2.6415" font-size="1.6933" lengthAdjust="spacingAndGlyphs"
text-anchor="middle" opacity="0">U?</text>
<g class="stroked-text"><desc>U?</desc>
<path d="M33.6247 3.9641
L33.6247 4.9922
" />
<path d="M33.6247 4.9922
L33.6852 5.1132
" />
<path d="M33.6852 5.1132
L33.7457 5.1737
" />
<path d="M33.7457 5.1737
L33.8666 5.2341
" />
<path d="M33.8666 5.2341
L34.1085 5.2341
" />
<path d="M34.1085 5.2341
L34.2295 5.1737
" />
<path d="M34.2295 5.1737
L34.2900 5.1132
" />
<path d="M34.2900 5.1132
L34.3504 4.9922
" />
<path d="M34.3504 4.9922
L34.3504 3.9641
" />
<path d="M35.1367 5.1132
L35.1971 5.1737
" />
<path d="M35.1971 5.1737
L35.1367 5.2341
" />
<path d="M35.1367 5.2341
L35.0762 5.1737
" />
<path d="M35.0762 5.1737
L35.1367 5.1132
" />
<path d="M35.1367 5.1132
L35.1367 5.2341
" />
<path d="M34.8948 4.0246
L35.0157 3.9641
" />
<path d="M35.0157 3.9641
L35.3181 3.9641
" />
<path d="M35.3181 3.9641
L35.4390 4.0246
" />
<path d="M35.4390 4.0246
L35.4995 4.1456
" />
<path d="M35.4995 4.1456
L35.4995 4.2665
" />
<path d="M35.4995 4.2665
L35.4390 4.3875
" />
<path d="M35.4390 4.3875
L35.3786 4.4479
" />
<path d="M35.3786 4.4479
L35.2576 4.5084
" />
<path d="M35.2576 4.5084
L35.1971 4.5689
" />
<path d="M35.1971 4.5689
L35.1367 4.6898
" />
<path d="M35.1367 4.6898
L35.1367 4.7503
" />
</g><text x="53.1185" y="5.2899"
textLength="11.7733" font-size="1.6933" lengthAdjust="spacingAndGlyphs"
text-anchor="middle" opacity="0">MAX1969xUI</text>
<g class="stroked-text"><desc>MAX1969xUI</desc>
<path d="M47.6454 5.2341
L47.6454 3.9641
" />
<path d="M47.6454 3.9641
L48.0688 4.8713
" />
<path d="M48.0688 4.8713
L48.4921 3.9641
" />
<path d="M48.4921 3.9641
L48.4921 5.2341
" />
<path d="M49.0364 4.8713
L49.6411 4.8713
" />
<path d="M48.9154 5.2341
L49.3387 3.9641
" />
<path d="M49.3387 3.9641
L49.7621 5.2341
" />
<path d="M50.0645 3.9641
L50.9111 5.2341
" />
<path d="M50.9111 3.9641
L50.0645 5.2341
" />
<path d="M52.0602 5.2341
L51.3345 5.2341
" />
<path d="M51.6973 5.2341
L51.6973 3.9641
" />
<path d="M51.6973 3.9641
L51.5764 4.1456
" />
<path d="M51.5764 4.1456
L51.4554 4.2665
" />
<path d="M51.4554 4.2665
L51.3345 4.3270
" />
<path d="M52.6649 5.2341
L52.9068 5.2341
" />
<path d="M52.9068 5.2341
L53.0278 5.1737
" />
<path d="M53.0278 5.1737
L53.0882 5.1132
" />
<path d="M53.0882 5.1132
L53.2092 4.9317
" />
<path d="M53.2092 4.9317
L53.2697 4.6898
" />
<path d="M53.2697 4.6898
L53.2697 4.2060
" />
<path d="M53.2697 4.2060
L53.2092 4.0851
" />
<path d="M53.2092 4.0851
L53.1487 4.0246
" />
<path d="M53.1487 4.0246
L53.0278 3.9641
" />
<path d="M53.0278 3.9641
L52.7859 3.9641
" />
<path d="M52.7859 3.9641
L52.6649 4.0246
" />
<path d="M52.6649 4.0246
L52.6044 4.0851
" />
<path d="M52.6044 4.0851
L52.5440 4.2060
" />
<path d="M52.5440 4.2060
L52.5440 4.5084
" />
<path d="M52.5440 4.5084
L52.6044 4.6294
" />
<path d="M52.6044 4.6294
L52.6649 4.6898
" />
<path d="M52.6649 4.6898
L52.7859 4.7503
" />
<path d="M52.7859 4.7503
L53.0278 4.7503
" />
<path d="M53.0278 4.7503
L53.1487 4.6898
" />
<path d="M53.1487 4.6898
L53.2092 4.6294
" />
<path d="M53.2092 4.6294
L53.2697 4.5084
" />
<path d="M54.3582 3.9641
L54.1163 3.9641
" />
<path d="M54.1163 3.9641
L53.9954 4.0246
" />
<path d="M53.9954 4.0246
L53.9349 4.0851
" />
<path d="M53.9349 4.0851
L53.8139 4.2665
" />
<path d="M53.8139 4.2665
L53.7535 4.5084
" />
<path d="M53.7535 4.5084
L53.7535 4.9922
" />
<path d="M53.7535 4.9922
L53.8139 5.1132
" />
<path d="M53.8139 5.1132
L53.8744 5.1737
" />
<path d="M53.8744 5.1737
L53.9954 5.2341
" />
<path d="M53.9954 5.2341
L54.2373 5.2341
" />
<path d="M54.2373 5.2341
L54.3582 5.1737
" />
<path d="M54.3582 5.1737
L54.4187 5.1132
" />
<path d="M54.4187 5.1132
L54.4792 4.9922
" />
<path d="M54.4792 4.9922
L54.4792 4.6898
" />
<path d="M54.4792 4.6898
L54.4187 4.5689
" />
<path d="M54.4187 4.5689
L54.3582 4.5084
" />
<path d="M54.3582 4.5084
L54.2373 4.4479
" />
<path d="M54.2373 4.4479
L53.9954 4.4479
" />
<path d="M53.9954 4.4479
L53.8744 4.5084
" />
<path d="M53.8744 4.5084
L53.8139 4.5689
" />
<path d="M53.8139 4.5689
L53.7535 4.6898
" />
<path d="M55.0839 5.2341
L55.3258 5.2341
" />
<path d="M55.3258 5.2341
L55.4468 5.1737
" />
<path d="M55.4468 5.1737
L55.5072 5.1132
" />
<path d="M55.5072 5.1132
L55.6282 4.9317
" />
<path d="M55.6282 4.9317
L55.6887 4.6898
" />
<path d="M55.6887 4.6898
L55.6887 4.2060
" />
<path d="M55.6887 4.2060
L55.6282 4.0851
" />
<path d="M55.6282 4.0851
L55.5677 4.0246
" />
<path d="M55.5677 4.0246
L55.4468 3.9641
" />
<path d="M55.4468 3.9641
L55.2049 3.9641
" />
<path d="M55.2049 3.9641
L55.0839 4.0246
" />
<path d="M55.0839 4.0246
L55.0234 4.0851
" />
<path d="M55.0234 4.0851
L54.9630 4.2060
" />
<path d="M54.9630 4.2060
L54.9630 4.5084
" />
<path d="M54.9630 4.5084
L55.0234 4.6294
" />
<path d="M55.0234 4.6294
L55.0839 4.6898
" />
<path d="M55.0839 4.6898
L55.2049 4.7503
" />
<path d="M55.2049 4.7503
L55.4468 4.7503
" />
<path d="M55.4468 4.7503
L55.5677 4.6898
" />
<path d="M55.5677 4.6898
L55.6282 4.6294
" />
<path d="M55.6282 4.6294
L55.6887 4.5084
" />
<path d="M56.1120 5.2341
L56.7772 4.3875
" />
<path d="M56.1120 4.3875
L56.7772 5.2341
" />
<path d="M57.2610 3.9641
L57.2610 4.9922
" />
<path d="M57.2610 4.9922
L57.3215 5.1132
" />
<path d="M57.3215 5.1132
L57.3820 5.1737
" />
<path d="M57.3820 5.1737
L57.5029 5.2341
" />
<path d="M57.5029 5.2341
L57.7448 5.2341
" />
<path d="M57.7448 5.2341
L57.8658 5.1737
" />
<path d="M57.8658 5.1737
L57.9263 5.1132
" />
<path d="M57.9263 5.1132
L57.9867 4.9922
" />
<path d="M57.9867 4.9922
L57.9867 3.9641
" />
<path d="M58.5915 5.2341
L58.5915 3.9641
" />
</g></g>
<g style="fill:#840084; fill-opacity:0.0; 
stroke:#840084; stroke-width:0.1588; stroke-opacity:1; 
stroke-linecap:round; stroke-linejoin:round;">
<text x="42.1519" y="39.5799"
textLength="65.1128" font-size="1.6933" lengthAdjust="spacingAndGlyphs"
text-anchor="middle" opacity="0">Package_SO:HTSSOP-28-1EP_4.4x9.7mm_P0.65mm_EP2.85x5.4mm</text>
<g class="stroked-text"><desc>Package_SO:HTSSOP-28-1EP_4.4x9.7mm_P0.65mm_EP2.85x5.4mm</desc>
<path d="M10.0090 39.5241
L10.0090 38.2541
" />
<path d="M10.0090 38.2541
L10.4928 38.2541
" />
<path d="M10.4928 38.2541
L10.6138 38.3146
" />
<path d="M10.6138 38.3146
L10.6743 38.3751
" />
<path d="M10.6743 38.3751
L10.7347 38.4960
" />
<path d="M10.7347 38.4960
L10.7347 38.6775
" />
<path d="M10.7347 38.6775
L10.6743 38.7984
" />
<path d="M10.6743 38.7984
L10.6138 38.8589
" />
<path d="M10.6138 38.8589
L10.4928 38.9194
" />
<path d="M10.4928 38.9194
L10.0090 38.9194
" />
<path d="M11.8233 39.5241
L11.8233 38.8589
" />
<path d="M11.8233 38.8589
L11.7628 38.7379
" />
<path d="M11.7628 38.7379
L11.6419 38.6775
" />
<path d="M11.6419 38.6775
L11.4000 38.6775
" />
<path d="M11.4000 38.6775
L11.2790 38.7379
" />
<path d="M11.8233 39.4637
L11.7024 39.5241
" />
<path d="M11.7024 39.5241
L11.4000 39.5241
" />
<path d="M11.4000 39.5241
L11.2790 39.4637
" />
<path d="M11.2790 39.4637
L11.2186 39.3427
" />
<path d="M11.2186 39.3427
L11.2186 39.2217
" />
<path d="M11.2186 39.2217
L11.2790 39.1008
" />
<path d="M11.2790 39.1008
L11.4000 39.0403
" />
<path d="M11.4000 39.0403
L11.7024 39.0403
" />
<path d="M11.7024 39.0403
L11.8233 38.9798
" />
<path d="M12.9723 39.4637
L12.8514 39.5241
" />
<path d="M12.8514 39.5241
L12.6095 39.5241
" />
<path d="M12.6095 39.5241
L12.4885 39.4637
" />
<path d="M12.4885 39.4637
L12.4280 39.4032
" />
<path d="M12.4280 39.4032
L12.3676 39.2822
" />
<path d="M12.3676 39.2822
L12.3676 38.9194
" />
<path d="M12.3676 38.9194
L12.4280 38.7984
" />
<path d="M12.4280 38.7984
L12.4885 38.7379
" />
<path d="M12.4885 38.7379
L12.6095 38.6775
" />
<path d="M12.6095 38.6775
L12.8514 38.6775
" />
<path d="M12.8514 38.6775
L12.9723 38.7379
" />
<path d="M13.5166 39.5241
L13.5166 38.2541
" />
<path d="M13.6376 39.0403
L14.0004 39.5241
" />
<path d="M14.0004 38.6775
L13.5166 39.1613
" />
<path d="M15.0890 39.5241
L15.0890 38.8589
" />
<path d="M15.0890 38.8589
L15.0285 38.7379
" />
<path d="M15.0285 38.7379
L14.9076 38.6775
" />
<path d="M14.9076 38.6775
L14.6657 38.6775
" />
<path d="M14.6657 38.6775
L14.5447 38.7379
" />
<path d="M15.0890 39.4637
L14.9681 39.5241
" />
<path d="M14.9681 39.5241
L14.6657 39.5241
" />
<path d="M14.6657 39.5241
L14.5447 39.4637
" />
<path d="M14.5447 39.4637
L14.4843 39.3427
" />
<path d="M14.4843 39.3427
L14.4843 39.2217
" />
<path d="M14.4843 39.2217
L14.5447 39.1008
" />
<path d="M14.5447 39.1008
L14.6657 39.0403
" />
<path d="M14.6657 39.0403
L14.9681 39.0403
" />
<path d="M14.9681 39.0403
L15.0890 38.9798
" />
<path d="M16.2380 38.6775
L16.2380 39.7056
" />
<path d="M16.2380 39.7056
L16.1775 39.8265
" />
<path d="M16.1775 39.8265
L16.1171 39.8870
" />
<path d="M16.1171 39.8870
L15.9961 39.9475
" />
<path d="M15.9961 39.9475
L15.8147 39.9475
" />
<path d="M15.8147 39.9475
L15.6937 39.8870
" />
<path d="M16.2380 39.4637
L16.1171 39.5241
" />
<path d="M16.1171 39.5241
L15.8752 39.5241
" />
<path d="M15.8752 39.5241
L15.7542 39.4637
" />
<path d="M15.7542 39.4637
L15.6937 39.4032
" />
<path d="M15.6937 39.4032
L15.6333 39.2822
" />
<path d="M15.6333 39.2822
L15.6333 38.9194
" />
<path d="M15.6333 38.9194
L15.6937 38.7984
" />
<path d="M15.6937 38.7984
L15.7542 38.7379
" />
<path d="M15.7542 38.7379
L15.8752 38.6775
" />
<path d="M15.8752 38.6775
L16.1171 38.6775
" />
<path d="M16.1171 38.6775
L16.2380 38.7379
" />
<path d="M17.3265 39.4637
L17.2056 39.5241
" />
<path d="M17.2056 39.5241
L16.9637 39.5241
" />
<path d="M16.9637 39.5241
L16.8427 39.4637
" />
<path d="M16.8427 39.4637
L16.7823 39.3427
" />
<path d="M16.7823 39.3427
L16.7823 38.8589
" />
<path d="M16.7823 38.8589
L16.8427 38.7379
" />
<path d="M16.8427 38.7379
L16.9637 38.6775
" />
<path d="M16.9637 38.6775
L17.2056 38.6775
" />
<path d="M17.2056 38.6775
L17.3265 38.7379
" />
<path d="M17.3265 38.7379
L17.3870 38.8589
" />
<path d="M17.3870 38.8589
L17.3870 38.9798
" />
<path d="M17.3870 38.9798
L16.7823 39.1008
" />
<path d="M17.6290 39.6451
L18.5966 39.6451
" />
<path d="M18.8385 39.4637
L19.0199 39.5241
" />
<path d="M19.0199 39.5241
L19.3223 39.5241
" />
<path d="M19.3223 39.5241
L19.4432 39.4637
" />
<path d="M19.4432 39.4637
L19.5037 39.4032
" />
<path d="M19.5037 39.4032
L19.5642 39.2822
" />
<path d="M19.5642 39.2822
L19.5642 39.1613
" />
<path d="M19.5642 39.1613
L19.5037 39.0403
" />
<path d="M19.5037 39.0403
L19.4432 38.9798
" />
<path d="M19.4432 38.9798
L19.3223 38.9194
" />
<path d="M19.3223 38.9194
L19.0804 38.8589
" />
<path d="M19.0804 38.8589
L18.9594 38.7984
" />
<path d="M18.9594 38.7984
L18.8989 38.7379
" />
<path d="M18.8989 38.7379
L18.8385 38.6170
" />
<path d="M18.8385 38.6170
L18.8385 38.4960
" />
<path d="M18.8385 38.4960
L18.8989 38.3751
" />
<path d="M18.8989 38.3751
L18.9594 38.3146
" />
<path d="M18.9594 38.3146
L19.0804 38.2541
" />
<path d="M19.0804 38.2541
L19.3827 38.2541
" />
<path d="M19.3827 38.2541
L19.5642 38.3146
" />
<path d="M20.3503 38.2541
L20.5922 38.2541
" />
<path d="M20.5922 38.2541
L20.7132 38.3146
" />
<path d="M20.7132 38.3146
L20.8341 38.4356
" />
<path d="M20.8341 38.4356
L20.8946 38.6775
" />
<path d="M20.8946 38.6775
L20.8946 39.1008
" />
<path d="M20.8946 39.1008
L20.8341 39.3427
" />
<path d="M20.8341 39.3427
L20.7132 39.4637
" />
<path d="M20.7132 39.4637
L20.5922 39.5241
" />
<path d="M20.5922 39.5241
L20.3503 39.5241
" />
<path d="M20.3503 39.5241
L20.2294 39.4637
" />
<path d="M20.2294 39.4637
L20.1084 39.3427
" />
<path d="M20.1084 39.3427
L20.0480 39.1008
" />
<path d="M20.0480 39.1008
L20.0480 38.6775
" />
<path d="M20.0480 38.6775
L20.1084 38.4356
" />
<path d="M20.1084 38.4356
L20.2294 38.3146
" />
<path d="M20.2294 38.3146
L20.3503 38.2541
" />
<path d="M21.4389 39.4032
L21.4994 39.4637
" />
<path d="M21.4994 39.4637
L21.4389 39.5241
" />
<path d="M21.4389 39.5241
L21.3785 39.4637
" />
<path d="M21.3785 39.4637
L21.4389 39.4032
" />
<path d="M21.4389 39.4032
L21.4389 39.5241
" />
<path d="M21.4389 38.7379
L21.4994 38.7984
" />
<path d="M21.4994 38.7984
L21.4389 38.8589
" />
<path d="M21.4389 38.8589
L21.3785 38.7984
" />
<path d="M21.3785 38.7984
L21.4389 38.7379
" />
<path d="M21.4389 38.7379
L21.4389 38.8589
" />
<path d="M22.0437 39.5241
L22.0437 38.2541
" />
<path d="M22.0437 38.8589
L22.7694 38.8589
" />
<path d="M22.7694 39.5241
L22.7694 38.2541
" />
<path d="M23.1928 38.2541
L23.9185 38.2541
" />
<path d="M23.5557 39.5241
L23.5557 38.2541
" />
<path d="M24.2814 39.4637
L24.4628 39.5241
" />
<path d="M24.4628 39.5241
L24.7652 39.5241
" />
<path d="M24.7652 39.5241
L24.8861 39.4637
" />
<path d="M24.8861 39.4637
L24.9466 39.4032
" />
<path d="M24.9466 39.4032
L25.0071 39.2822
" />
<path d="M25.0071 39.2822
L25.0071 39.1613
" />
<path d="M25.0071 39.1613
L24.9466 39.0403
" />
<path d="M24.9466 39.0403
L24.8861 38.9798
" />
<path d="M24.8861 38.9798
L24.7652 38.9194
" />
<path d="M24.7652 38.9194
L24.5233 38.8589
" />
<path d="M24.5233 38.8589
L24.4023 38.7984
" />
<path d="M24.4023 38.7984
L24.3418 38.7379
" />
<path d="M24.3418 38.7379
L24.2814 38.6170
" />
<path d="M24.2814 38.6170
L24.2814 38.4960
" />
<path d="M24.2814 38.4960
L24.3418 38.3751
" />
<path d="M24.3418 38.3751
L24.4023 38.3146
" />
<path d="M24.4023 38.3146
L24.5233 38.2541
" />
<path d="M24.5233 38.2541
L24.8256 38.2541
" />
<path d="M24.8256 38.2541
L25.0071 38.3146
" />
<path d="M25.4909 39.4637
L25.6723 39.5241
" />
<path d="M25.6723 39.5241
L25.9747 39.5241
" />
<path d="M25.9747 39.5241
L26.0956 39.4637
" />
<path d="M26.0956 39.4637
L26.1561 39.4032
" />
<path d="M26.1561 39.4032
L26.2166 39.2822
" />
<path d="M26.2166 39.2822
L26.2166 39.1613
" />
<path d="M26.2166 39.1613
L26.1561 39.0403
" />
<path d="M26.1561 39.0403
L26.0956 38.9798
" />
<path d="M26.0956 38.9798
L25.9747 38.9194
" />
<path d="M25.9747 38.9194
L25.7328 38.8589
" />
<path d="M25.7328 38.8589
L25.6118 38.7984
" />
<path d="M25.6118 38.7984
L25.5513 38.7379
" />
<path d="M25.5513 38.7379
L25.4909 38.6170
" />
<path d="M25.4909 38.6170
L25.4909 38.4960
" />
<path d="M25.4909 38.4960
L25.5513 38.3751
" />
<path d="M25.5513 38.3751
L25.6118 38.3146
" />
<path d="M25.6118 38.3146
L25.7328 38.2541
" />
<path d="M25.7328 38.2541
L26.0351 38.2541
" />
<path d="M26.0351 38.2541
L26.2166 38.3146
" />
<path d="M27.0027 38.2541
L27.2446 38.2541
" />
<path d="M27.2446 38.2541
L27.3656 38.3146
" />
<path d="M27.3656 38.3146
L27.4865 38.4356
" />
<path d="M27.4865 38.4356
L27.5470 38.6775
" />
<path d="M27.5470 38.6775
L27.5470 39.1008
" />
<path d="M27.5470 39.1008
L27.4865 39.3427
" />
<path d="M27.4865 39.3427
L27.3656 39.4637
" />
<path d="M27.3656 39.4637
L27.2446 39.5241
" />
<path d="M27.2446 39.5241
L27.0027 39.5241
" />
<path d="M27.0027 39.5241
L26.8818 39.4637
" />
<path d="M26.8818 39.4637
L26.7608 39.3427
" />
<path d="M26.7608 39.3427
L26.7004 39.1008
" />
<path d="M26.7004 39.1008
L26.7004 38.6775
" />
<path d="M26.7004 38.6775
L26.7608 38.4356
" />
<path d="M26.7608 38.4356
L26.8818 38.3146
" />
<path d="M26.8818 38.3146
L27.0027 38.2541
" />
<path d="M28.0913 39.5241
L28.0913 38.2541
" />
<path d="M28.0913 38.2541
L28.5751 38.2541
" />
<path d="M28.5751 38.2541
L28.6961 38.3146
" />
<path d="M28.6961 38.3146
L28.7566 38.3751
" />
<path d="M28.7566 38.3751
L28.8170 38.4960
" />
<path d="M28.8170 38.4960
L28.8170 38.6775
" />
<path d="M28.8170 38.6775
L28.7566 38.7984
" />
<path d="M28.7566 38.7984
L28.6961 38.8589
" />
<path d="M28.6961 38.8589
L28.5751 38.9194
" />
<path d="M28.5751 38.9194
L28.0913 38.9194
" />
<path d="M29.3613 39.0403
L30.3290 39.0403
" />
<path d="M30.8733 38.3751
L30.9337 38.3146
" />
<path d="M30.9337 38.3146
L31.0547 38.2541
" />
<path d="M31.0547 38.2541
L31.3571 38.2541
" />
<path d="M31.3571 38.2541
L31.4780 38.3146
" />
<path d="M31.4780 38.3146
L31.5385 38.3751
" />
<path d="M31.5385 38.3751
L31.5990 38.4960
" />
<path d="M31.5990 38.4960
L31.5990 38.6170
" />
<path d="M31.5990 38.6170
L31.5385 38.7984
" />
<path d="M31.5385 38.7984
L30.8128 39.5241
" />
<path d="M30.8128 39.5241
L31.5990 39.5241
" />
<path d="M32.3247 38.7984
L32.2037 38.7379
" />
<path d="M32.2037 38.7379
L32.1432 38.6775
" />
<path d="M32.1432 38.6775
L32.0828 38.5565
" />
<path d="M32.0828 38.5565
L32.0828 38.4960
" />
<path d="M32.0828 38.4960
L32.1432 38.3751
" />
<path d="M32.1432 38.3751
L32.2037 38.3146
" />
<path d="M32.2037 38.3146
L32.3247 38.2541
" />
<path d="M32.3247 38.2541
L32.5666 38.2541
" />
<path d="M32.5666 38.2541
L32.6875 38.3146
" />
<path d="M32.6875 38.3146
L32.7480 38.3751
" />
<path d="M32.7480 38.3751
L32.8085 38.4960
" />
<path d="M32.8085 38.4960
L32.8085 38.5565
" />
<path d="M32.8085 38.5565
L32.7480 38.6775
" />
<path d="M32.7480 38.6775
L32.6875 38.7379
" />
<path d="M32.6875 38.7379
L32.5666 38.7984
" />
<path d="M32.5666 38.7984
L32.3247 38.7984
" />
<path d="M32.3247 38.7984
L32.2037 38.8589
" />
<path d="M32.2037 38.8589
L32.1432 38.9194
" />
<path d="M32.1432 38.9194
L32.0828 39.0403
" />
<path d="M32.0828 39.0403
L32.0828 39.2822
" />
<path d="M32.0828 39.2822
L32.1432 39.4032
" />
<path d="M32.1432 39.4032
L32.2037 39.4637
" />
<path d="M32.2037 39.4637
L32.3247 39.5241
" />
<path d="M32.3247 39.5241
L32.5666 39.5241
" />
<path d="M32.5666 39.5241
L32.6875 39.4637
" />
<path d="M32.6875 39.4637
L32.7480 39.4032
" />
<path d="M32.7480 39.4032
L32.8085 39.2822
" />
<path d="M32.8085 39.2822
L32.8085 39.0403
" />
<path d="M32.8085 39.0403
L32.7480 38.9194
" />
<path d="M32.7480 38.9194
L32.6875 38.8589
" />
<path d="M32.6875 38.8589
L32.5666 38.7984
" />
<path d="M33.3527 39.0403
L34.3204 39.0403
" />
<path d="M35.5904 39.5241
L34.8647 39.5241
" />
<path d="M35.2275 39.5241
L35.2275 38.2541
" />
<path d="M35.2275 38.2541
L35.1066 38.4356
" />
<path d="M35.1066 38.4356
L34.9856 38.5565
" />
<path d="M34.9856 38.5565
L34.8647 38.6170
" />
<path d="M36.1346 38.8589
L36.5580 38.8589
" />
<path d="M36.7394 39.5241
L36.1346 39.5241
" />
<path d="M36.1346 39.5241
L36.1346 38.2541
" />
<path d="M36.1346 38.2541
L36.7394 38.2541
" />
<path d="M37.2836 39.5241
L37.2836 38.2541
" />
<path d="M37.2836 38.2541
L37.7674 38.2541
" />
<path d="M37.7674 38.2541
L37.8884 38.3146
" />
<path d="M37.8884 38.3146
L37.9489 38.3751
" />
<path d="M37.9489 38.3751
L38.0093 38.4960
" />
<path d="M38.0093 38.4960
L38.0093 38.6775
" />
<path d="M38.0093 38.6775
L37.9489 38.7984
" />
<path d="M37.9489 38.7984
L37.8884 38.8589
" />
<path d="M37.8884 38.8589
L37.7674 38.9194
" />
<path d="M37.7674 38.9194
L37.2836 38.9194
" />
<path d="M38.2513 39.6451
L39.2189 39.6451
" />
<path d="M40.0655 38.6775
L40.0655 39.5241
" />
<path d="M39.7631 38.1937
L39.4608 39.1008
" />
<path d="M39.4608 39.1008
L40.2469 39.1008
" />
<path d="M40.7307 39.4032
L40.7912 39.4637
" />
<path d="M40.7912 39.4637
L40.7307 39.5241
" />
<path d="M40.7307 39.5241
L40.6703 39.4637
" />
<path d="M40.6703 39.4637
L40.7307 39.4032
" />
<path d="M40.7307 39.4032
L40.7307 39.5241
" />
<path d="M41.8798 38.6775
L41.8798 39.5241
" />
<path d="M41.5774 38.1937
L41.2751 39.1008
" />
<path d="M41.2751 39.1008
L42.0612 39.1008
" />
<path d="M42.4241 39.5241
L43.0893 38.6775
" />
<path d="M42.4241 38.6775
L43.0893 39.5241
" />
<path d="M43.6336 39.5241
L43.8755 39.5241
" />
<path d="M43.8755 39.5241
L43.9965 39.4637
" />
<path d="M43.9965 39.4637
L44.0569 39.4032
" />
<path d="M44.0569 39.4032
L44.1779 39.2217
" />
<path d="M44.1779 39.2217
L44.2384 38.9798
" />
<path d="M44.2384 38.9798
L44.2384 38.4960
" />
<path d="M44.2384 38.4960
L44.1779 38.3751
" />
<path d="M44.1779 38.3751
L44.1174 38.3146
" />
<path d="M44.1174 38.3146
L43.9965 38.2541
" />
<path d="M43.9965 38.2541
L43.7546 38.2541
" />
<path d="M43.7546 38.2541
L43.6336 38.3146
" />
<path d="M43.6336 38.3146
L43.5731 38.3751
" />
<path d="M43.5731 38.3751
L43.5127 38.4960
" />
<path d="M43.5127 38.4960
L43.5127 38.7984
" />
<path d="M43.5127 38.7984
L43.5731 38.9194
" />
<path d="M43.5731 38.9194
L43.6336 38.9798
" />
<path d="M43.6336 38.9798
L43.7546 39.0403
" />
<path d="M43.7546 39.0403
L43.9965 39.0403
" />
<path d="M43.9965 39.0403
L44.1174 38.9798
" />
<path d="M44.1174 38.9798
L44.1779 38.9194
" />
<path d="M44.1779 38.9194
L44.2384 38.7984
" />
<path d="M44.7826 39.4032
L44.8431 39.4637
" />
<path d="M44.8431 39.4637
L44.7826 39.5241
" />
<path d="M44.7826 39.5241
L44.7222 39.4637
" />
<path d="M44.7222 39.4637
L44.7826 39.4032
" />
<path d="M44.7826 39.4032
L44.7826 39.5241
" />
<path d="M45.2665 38.2541
L46.1131 38.2541
" />
<path d="M46.1131 38.2541
L45.5689 39.5241
" />
<path d="M46.5969 39.5241
L46.5969 38.6775
" />
<path d="M46.5969 38.7984
L46.6574 38.7379
" />
<path d="M46.6574 38.7379
L46.7784 38.6775
" />
<path d="M46.7784 38.6775
L46.9598 38.6775
" />
<path d="M46.9598 38.6775
L47.0807 38.7379
" />
<path d="M47.0807 38.7379
L47.1412 38.8589
" />
<path d="M47.1412 38.8589
L47.1412 39.5241
" />
<path d="M47.1412 38.8589
L47.2017 38.7379
" />
<path d="M47.2017 38.7379
L47.3226 38.6775
" />
<path d="M47.3226 38.6775
L47.5041 38.6775
" />
<path d="M47.5041 38.6775
L47.6250 38.7379
" />
<path d="M47.6250 38.7379
L47.6855 38.8589
" />
<path d="M47.6855 38.8589
L47.6855 39.5241
" />
<path d="M48.2902 39.5241
L48.2902 38.6775
" />
<path d="M48.2902 38.7984
L48.3507 38.7379
" />
<path d="M48.3507 38.7379
L48.4717 38.6775
" />
<path d="M48.4717 38.6775
L48.6531 38.6775
" />
<path d="M48.6531 38.6775
L48.7740 38.7379
" />
<path d="M48.7740 38.7379
L48.8345 38.8589
" />
<path d="M48.8345 38.8589
L48.8345 39.5241
" />
<path d="M48.8345 38.8589
L48.8950 38.7379
" />
<path d="M48.8950 38.7379
L49.0159 38.6775
" />
<path d="M49.0159 38.6775
L49.1974 38.6775
" />
<path d="M49.1974 38.6775
L49.3183 38.7379
" />
<path d="M49.3183 38.7379
L49.3788 38.8589
" />
<path d="M49.3788 38.8589
L49.3788 39.5241
" />
<path d="M49.6812 39.6451
L50.6488 39.6451
" />
<path d="M50.9511 39.5241
L50.9511 38.2541
" />
<path d="M50.9511 38.2541
L51.4349 38.2541
" />
<path d="M51.4349 38.2541
L51.5559 38.3146
" />
<path d="M51.5559 38.3146
L51.6164 38.3751
" />
<path d="M51.6164 38.3751
L51.6768 38.4960
" />
<path d="M51.6768 38.4960
L51.6768 38.6775
" />
<path d="M51.6768 38.6775
L51.6164 38.7984
" />
<path d="M51.6164 38.7984
L51.5559 38.8589
" />
<path d="M51.5559 38.8589
L51.4349 38.9194
" />
<path d="M51.4349 38.9194
L50.9511 38.9194
" />
<path d="M52.4630 38.2541
L52.5840 38.2541
" />
<path d="M52.5840 38.2541
L52.7049 38.3146
" />
<path d="M52.7049 38.3146
L52.7654 38.3751
" />
<path d="M52.7654 38.3751
L52.8259 38.4960
" />
<path d="M52.8259 38.4960
L52.8864 38.7379
" />
<path d="M52.8864 38.7379
L52.8864 39.0403
" />
<path d="M52.8864 39.0403
L52.8259 39.2822
" />
<path d="M52.8259 39.2822
L52.7654 39.4032
" />
<path d="M52.7654 39.4032
L52.7049 39.4637
" />
<path d="M52.7049 39.4637
L52.5840 39.5241
" />
<path d="M52.5840 39.5241
L52.4630 39.5241
" />
<path d="M52.4630 39.5241
L52.3421 39.4637
" />
<path d="M52.3421 39.4637
L52.2816 39.4032
" />
<path d="M52.2816 39.4032
L52.2211 39.2822
" />
<path d="M52.2211 39.2822
L52.1607 39.0403
" />
<path d="M52.1607 39.0403
L52.1607 38.7379
" />
<path d="M52.1607 38.7379
L52.2211 38.4960
" />
<path d="M52.2211 38.4960
L52.2816 38.3751
" />
<path d="M52.2816 38.3751
L52.3421 38.3146
" />
<path d="M52.3421 38.3146
L52.4630 38.2541
" />
<path d="M53.4306 39.4032
L53.4911 39.4637
" />
<path d="M53.4911 39.4637
L53.4306 39.5241
" />
<path d="M53.4306 39.5241
L53.3702 39.4637
" />
<path d="M53.3702 39.4637
L53.4306 39.4032
" />
<path d="M53.4306 39.4032
L53.4306 39.5241
" />
<path d="M54.5797 38.2541
L54.3378 38.2541
" />
<path d="M54.3378 38.2541
L54.2169 38.3146
" />
<path d="M54.2169 38.3146
L54.1564 38.3751
" />
<path d="M54.1564 38.3751
L54.0354 38.5565
" />
<path d="M54.0354 38.5565
L53.9750 38.7984
" />
<path d="M53.9750 38.7984
L53.9750 39.2822
" />
<path d="M53.9750 39.2822
L54.0354 39.4032
" />
<path d="M54.0354 39.4032
L54.0959 39.4637
" />
<path d="M54.0959 39.4637
L54.2169 39.5241
" />
<path d="M54.2169 39.5241
L54.4588 39.5241
" />
<path d="M54.4588 39.5241
L54.5797 39.4637
" />
<path d="M54.5797 39.4637
L54.6402 39.4032
" />
<path d="M54.6402 39.4032
L54.7007 39.2822
" />
<path d="M54.7007 39.2822
L54.7007 38.9798
" />
<path d="M54.7007 38.9798
L54.6402 38.8589
" />
<path d="M54.6402 38.8589
L54.5797 38.7984
" />
<path d="M54.5797 38.7984
L54.4588 38.7379
" />
<path d="M54.4588 38.7379
L54.2169 38.7379
" />
<path d="M54.2169 38.7379
L54.0959 38.7984
" />
<path d="M54.0959 38.7984
L54.0354 38.8589
" />
<path d="M54.0354 38.8589
L53.9750 38.9798
" />
<path d="M55.8497 38.2541
L55.2449 38.2541
" />
<path d="M55.2449 38.2541
L55.1845 38.8589
" />
<path d="M55.1845 38.8589
L55.2449 38.7984
" />
<path d="M55.2449 38.7984
L55.3659 38.7379
" />
<path d="M55.3659 38.7379
L55.6683 38.7379
" />
<path d="M55.6683 38.7379
L55.7892 38.7984
" />
<path d="M55.7892 38.7984
L55.8497 38.8589
" />
<path d="M55.8497 38.8589
L55.9102 38.9798
" />
<path d="M55.9102 38.9798
L55.9102 39.2822
" />
<path d="M55.9102 39.2822
L55.8497 39.4032
" />
<path d="M55.8497 39.4032
L55.7892 39.4637
" />
<path d="M55.7892 39.4637
L55.6683 39.5241
" />
<path d="M55.6683 39.5241
L55.3659 39.5241
" />
<path d="M55.3659 39.5241
L55.2449 39.4637
" />
<path d="M55.2449 39.4637
L55.1845 39.4032
" />
<path d="M56.4544 39.5241
L56.4544 38.6775
" />
<path d="M56.4544 38.7984
L56.5149 38.7379
" />
<path d="M56.5149 38.7379
L56.6359 38.6775
" />
<path d="M56.6359 38.6775
L56.8173 38.6775
" />
<path d="M56.8173 38.6775
L56.9382 38.7379
" />
<path d="M56.9382 38.7379
L56.9987 38.8589
" />
<path d="M56.9987 38.8589
L56.9987 39.5241
" />
<path d="M56.9987 38.8589
L57.0592 38.7379
" />
<path d="M57.0592 38.7379
L57.1801 38.6775
" />
<path d="M57.1801 38.6775
L57.3616 38.6775
" />
<path d="M57.3616 38.6775
L57.4825 38.7379
" />
<path d="M57.4825 38.7379
L57.5430 38.8589
" />
<path d="M57.5430 38.8589
L57.5430 39.5241
" />
<path d="M58.1477 39.5241
L58.1477 38.6775
" />
<path d="M58.1477 38.7984
L58.2082 38.7379
" />
<path d="M58.2082 38.7379
L58.3292 38.6775
" />
<path d="M58.3292 38.6775
L58.5106 38.6775
" />
<path d="M58.5106 38.6775
L58.6315 38.7379
" />
<path d="M58.6315 38.7379
L58.6920 38.8589
" />
<path d="M58.6920 38.8589
L58.6920 39.5241
" />
<path d="M58.6920 38.8589
L58.7525 38.7379
" />
<path d="M58.7525 38.7379
L58.8734 38.6775
" />
<path d="M58.8734 38.6775
L59.0549 38.6775
" />
<path d="M59.0549 38.6775
L59.1758 38.7379
" />
<path d="M59.1758 38.7379
L59.2363 38.8589
" />
<path d="M59.2363 38.8589
L59.2363 39.5241
" />
<path d="M59.5387 39.6451
L60.5063 39.6451
" />
<path d="M60.8086 38.8589
L61.2320 38.8589
" />
<path d="M61.4134 39.5241
L60.8086 39.5241
" />
<path d="M60.8086 39.5241
L60.8086 38.2541
" />
<path d="M60.8086 38.2541
L61.4134 38.2541
" />
<path d="M61.9576 39.5241
L61.9576 38.2541
" />
<path d="M61.9576 38.2541
L62.4414 38.2541
" />
<path d="M62.4414 38.2541
L62.5624 38.3146
" />
<path d="M62.5624 38.3146
L62.6229 38.3751
" />
<path d="M62.6229 38.3751
L62.6833 38.4960
" />
<path d="M62.6833 38.4960
L62.6833 38.6775
" />
<path d="M62.6833 38.6775
L62.6229 38.7984
" />
<path d="M62.6229 38.7984
L62.5624 38.8589
" />
<path d="M62.5624 38.8589
L62.4414 38.9194
" />
<path d="M62.4414 38.9194
L61.9576 38.9194
" />
<path d="M63.1672 38.3751
L63.2276 38.3146
" />
<path d="M63.2276 38.3146
L63.3486 38.2541
" />
<path d="M63.3486 38.2541
L63.6510 38.2541
" />
<path d="M63.6510 38.2541
L63.7719 38.3146
" />
<path d="M63.7719 38.3146
L63.8324 38.3751
" />
<path d="M63.8324 38.3751
L63.8929 38.4960
" />
<path d="M63.8929 38.4960
L63.8929 38.6170
" />
<path d="M63.8929 38.6170
L63.8324 38.7984
" />
<path d="M63.8324 38.7984
L63.1067 39.5241
" />
<path d="M63.1067 39.5241
L63.8929 39.5241
" />
<path d="M64.4371 39.4032
L64.4976 39.4637
" />
<path d="M64.4976 39.4637
L64.4371 39.5241
" />
<path d="M64.4371 39.5241
L64.3767 39.4637
" />
<path d="M64.3767 39.4637
L64.4371 39.4032
" />
<path d="M64.4371 39.4032
L64.4371 39.5241
" />
<path d="M65.2234 38.7984
L65.1024 38.7379
" />
<path d="M65.1024 38.7379
L65.0419 38.6775
" />
<path d="M65.0419 38.6775
L64.9815 38.5565
" />
<path d="M64.9815 38.5565
L64.9815 38.4960
" />
<path d="M64.9815 38.4960
L65.0419 38.3751
" />
<path d="M65.0419 38.3751
L65.1024 38.3146
" />
<path d="M65.1024 38.3146
L65.2234 38.2541
" />
<path d="M65.2234 38.2541
L65.4653 38.2541
" />
<path d="M65.4653 38.2541
L65.5862 38.3146
" />
<path d="M65.5862 38.3146
L65.6467 38.3751
" />
<path d="M65.6467 38.3751
L65.7072 38.4960
" />
<path d="M65.7072 38.4960
L65.7072 38.5565
" />
<path d="M65.7072 38.5565
L65.6467 38.6775
" />
<path d="M65.6467 38.6775
L65.5862 38.7379
" />
<path d="M65.5862 38.7379
L65.4653 38.7984
" />
<path d="M65.4653 38.7984
L65.2234 38.7984
" />
<path d="M65.2234 38.7984
L65.1024 38.8589
" />
<path d="M65.1024 38.8589
L65.0419 38.9194
" />
<path d="M65.0419 38.9194
L64.9815 39.0403
" />
<path d="M64.9815 39.0403
L64.9815 39.2822
" />
<path d="M64.9815 39.2822
L65.0419 39.4032
" />
<path d="M65.0419 39.4032
L65.1024 39.4637
" />
<path d="M65.1024 39.4637
L65.2234 39.5241
" />
<path d="M65.2234 39.5241
L65.4653 39.5241
" />
<path d="M65.4653 39.5241
L65.5862 39.4637
" />
<path d="M65.5862 39.4637
L65.6467 39.4032
" />
<path d="M65.6467 39.4032
L65.7072 39.2822
" />
<path d="M65.7072 39.2822
L65.7072 39.0403
" />
<path d="M65.7072 39.0403
L65.6467 38.9194
" />
<path d="M65.6467 38.9194
L65.5862 38.8589
" />
<path d="M65.5862 38.8589
L65.4653 38.7984
" />
<path d="M66.8562 38.2541
L66.2514 38.2541
" />
<path d="M66.2514 38.2541
L66.1910 38.8589
" />
<path d="M66.1910 38.8589
L66.2514 38.7984
" />
<path d="M66.2514 38.7984
L66.3724 38.7379
" />
<path d="M66.3724 38.7379
L66.6748 38.7379
" />
<path d="M66.6748 38.7379
L66.7957 38.7984
" />
<path d="M66.7957 38.7984
L66.8562 38.8589
" />
<path d="M66.8562 38.8589
L66.9167 38.9798
" />
<path d="M66.9167 38.9798
L66.9167 39.2822
" />
<path d="M66.9167 39.2822
L66.8562 39.4032
" />
<path d="M66.8562 39.4032
L66.7957 39.4637
" />
<path d="M66.7957 39.4637
L66.6748 39.5241
" />
<path d="M66.6748 39.5241
L66.3724 39.5241
" />
<path d="M66.3724 39.5241
L66.2514 39.4637
" />
<path d="M66.2514 39.4637
L66.1910 39.4032
" />
<path d="M67.3400 39.5241
L68.0052 38.6775
" />
<path d="M67.3400 38.6775
L68.0052 39.5241
" />
<path d="M69.0938 38.2541
L68.4890 38.2541
" />
<path d="M68.4890 38.2541
L68.4286 38.8589
" />
<path d="M68.4286 38.8589
L68.4890 38.7984
" />
<path d="M68.4890 38.7984
L68.6100 38.7379
" />
<path d="M68.6100 38.7379
L68.9124 38.7379
" />
<path d="M68.9124 38.7379
L69.0333 38.7984
" />
<path d="M69.0333 38.7984
L69.0938 38.8589
" />
<path d="M69.0938 38.8589
L69.1543 38.9798
" />
<path d="M69.1543 38.9798
L69.1543 39.2822
" />
<path d="M69.1543 39.2822
L69.0938 39.4032
" />
<path d="M69.0938 39.4032
L69.0333 39.4637
" />
<path d="M69.0333 39.4637
L68.9124 39.5241
" />
<path d="M68.9124 39.5241
L68.6100 39.5241
" />
<path d="M68.6100 39.5241
L68.4890 39.4637
" />
<path d="M68.4890 39.4637
L68.4286 39.4032
" />
<path d="M69.6985 39.4032
L69.7590 39.4637
" />
<path d="M69.7590 39.4637
L69.6985 39.5241
" />
<path d="M69.6985 39.5241
L69.6381 39.4637
" />
<path d="M69.6381 39.4637
L69.6985 39.4032
" />
<path d="M69.6985 39.4032
L69.6985 39.5241
" />
<path d="M70.8476 38.6775
L70.8476 39.5241
" />
<path d="M70.5452 38.1937
L70.2429 39.1008
" />
<path d="M70.2429 39.1008
L71.0290 39.1008
" />
<path d="M71.5128 39.5241
L71.5128 38.6775
" />
<path d="M71.5128 38.7984
L71.5733 38.7379
" />
<path d="M71.5733 38.7379
L71.6943 38.6775
" />
<path d="M71.6943 38.6775
L71.8757 38.6775
" />
<path d="M71.8757 38.6775
L71.9966 38.7379
" />
<path d="M71.9966 38.7379
L72.0571 38.8589
" />
<path d="M72.0571 38.8589
L72.0571 39.5241
" />
<path d="M72.0571 38.8589
L72.1176 38.7379
" />
<path d="M72.1176 38.7379
L72.2385 38.6775
" />
<path d="M72.2385 38.6775
L72.4200 38.6775
" />
<path d="M72.4200 38.6775
L72.5409 38.7379
" />
<path d="M72.5409 38.7379
L72.6014 38.8589
" />
<path d="M72.6014 38.8589
L72.6014 39.5241
" />
<path d="M73.2061 39.5241
L73.2061 38.6775
" />
<path d="M73.2061 38.7984
L73.2666 38.7379
" />
<path d="M73.2666 38.7379
L73.3876 38.6775
" />
<path d="M73.3876 38.6775
L73.5690 38.6775
" />
<path d="M73.5690 38.6775
L73.6899 38.7379
" />
<path d="M73.6899 38.7379
L73.7504 38.8589
" />
<path d="M73.7504 38.8589
L73.7504 39.5241
" />
<path d="M73.7504 38.8589
L73.8109 38.7379
" />
<path d="M73.8109 38.7379
L73.9318 38.6775
" />
<path d="M73.9318 38.6775
L74.1133 38.6775
" />
<path d="M74.1133 38.6775
L74.2342 38.7379
" />
<path d="M74.2342 38.7379
L74.2947 38.8589
" />
<path d="M74.2947 38.8589
L74.2947 39.5241
" />
</g><text x="42.1519" y="21.7999"
textLength="70.2532" font-size="1.6933" lengthAdjust="spacingAndGlyphs"
text-anchor="middle" opacity="0">https://datasheets.maximintegrated.com/en/ds/MAX1968-MAX1969.pdf</text>
<g class="stroked-text"><desc>https://datasheets.maximintegrated.com/en/ds/MAX1968-MAX1969.pdf</desc>
<path d="M7.4388 21.7441
L7.4388 20.4741
" />
<path d="M7.9831 21.7441
L7.9831 21.0789
" />
<path d="M7.9831 21.0789
L7.9226 20.9579
" />
<path d="M7.9226 20.9579
L7.8017 20.8975
" />
<path d="M7.8017 20.8975
L7.6203 20.8975
" />
<path d="M7.6203 20.8975
L7.4993 20.9579
" />
<path d="M7.4993 20.9579
L7.4388 21.0184
" />
<path d="M8.4064 20.8975
L8.8902 20.8975
" />
<path d="M8.5878 20.4741
L8.5878 21.5627
" />
<path d="M8.5878 21.5627
L8.6483 21.6837
" />
<path d="M8.6483 21.6837
L8.7693 21.7441
" />
<path d="M8.7693 21.7441
L8.8902 21.7441
" />
<path d="M9.1321 20.8975
L9.6159 20.8975
" />
<path d="M9.3135 20.4741
L9.3135 21.5627
" />
<path d="M9.3135 21.5627
L9.3740 21.6837
" />
<path d="M9.3740 21.6837
L9.4950 21.7441
" />
<path d="M9.4950 21.7441
L9.6159 21.7441
" />
<path d="M10.0392 20.8975
L10.0392 22.1675
" />
<path d="M10.0392 20.9579
L10.1602 20.8975
" />
<path d="M10.1602 20.8975
L10.4021 20.8975
" />
<path d="M10.4021 20.8975
L10.5230 20.9579
" />
<path d="M10.5230 20.9579
L10.5835 21.0184
" />
<path d="M10.5835 21.0184
L10.6440 21.1394
" />
<path d="M10.6440 21.1394
L10.6440 21.5022
" />
<path d="M10.6440 21.5022
L10.5835 21.6232
" />
<path d="M10.5835 21.6232
L10.5230 21.6837
" />
<path d="M10.5230 21.6837
L10.4021 21.7441
" />
<path d="M10.4021 21.7441
L10.1602 21.7441
" />
<path d="M10.1602 21.7441
L10.0392 21.6837
" />
<path d="M11.1278 21.6837
L11.2487 21.7441
" />
<path d="M11.2487 21.7441
L11.4906 21.7441
" />
<path d="M11.4906 21.7441
L11.6116 21.6837
" />
<path d="M11.6116 21.6837
L11.6720 21.5627
" />
<path d="M11.6720 21.5627
L11.6720 21.5022
" />
<path d="M11.6720 21.5022
L11.6116 21.3813
" />
<path d="M11.6116 21.3813
L11.4906 21.3208
" />
<path d="M11.4906 21.3208
L11.3092 21.3208
" />
<path d="M11.3092 21.3208
L11.1882 21.2603
" />
<path d="M11.1882 21.2603
L11.1278 21.1394
" />
<path d="M11.1278 21.1394
L11.1278 21.0789
" />
<path d="M11.1278 21.0789
L11.1882 20.9579
" />
<path d="M11.1882 20.9579
L11.3092 20.8975
" />
<path d="M11.3092 20.8975
L11.4906 20.8975
" />
<path d="M11.4906 20.8975
L11.6116 20.9579
" />
<path d="M12.2163 21.6232
L12.2768 21.6837
" />
<path d="M12.2768 21.6837
L12.2163 21.7441
" />
<path d="M12.2163 21.7441
L12.1559 21.6837
" />
<path d="M12.1559 21.6837
L12.2163 21.6232
" />
<path d="M12.2163 21.6232
L12.2163 21.7441
" />
<path d="M12.2163 20.9579
L12.2768 21.0184
" />
<path d="M12.2768 21.0184
L12.2163 21.0789
" />
<path d="M12.2163 21.0789
L12.1559 21.0184
" />
<path d="M12.1559 21.0184
L12.2163 20.9579
" />
<path d="M12.2163 20.9579
L12.2163 21.0789
" />
<path d="M13.7283 20.4137
L12.6397 22.0465
" />
<path d="M15.0588 20.4137
L13.9702 22.0465
" />
<path d="M16.0264 21.7441
L16.0264 20.4741
" />
<path d="M16.0264 21.6837
L15.9055 21.7441
" />
<path d="M15.9055 21.7441
L15.6636 21.7441
" />
<path d="M15.6636 21.7441
L15.5426 21.6837
" />
<path d="M15.5426 21.6837
L15.4821 21.6232
" />
<path d="M15.4821 21.6232
L15.4217 21.5022
" />
<path d="M15.4217 21.5022
L15.4217 21.1394
" />
<path d="M15.4217 21.1394
L15.4821 21.0184
" />
<path d="M15.4821 21.0184
L15.5426 20.9579
" />
<path d="M15.5426 20.9579
L15.6636 20.8975
" />
<path d="M15.6636 20.8975
L15.9055 20.8975
" />
<path d="M15.9055 20.8975
L16.0264 20.9579
" />
<path d="M17.1754 21.7441
L17.1754 21.0789
" />
<path d="M17.1754 21.0789
L17.1149 20.9579
" />
<path d="M17.1149 20.9579
L16.9940 20.8975
" />
<path d="M16.9940 20.8975
L16.7521 20.8975
" />
<path d="M16.7521 20.8975
L16.6311 20.9579
" />
<path d="M17.1754 21.6837
L17.0545 21.7441
" />
<path d="M17.0545 21.7441
L16.7521 21.7441
" />
<path d="M16.7521 21.7441
L16.6311 21.6837
" />
<path d="M16.6311 21.6837
L16.5707 21.5627
" />
<path d="M16.5707 21.5627
L16.5707 21.4417
" />
<path d="M16.5707 21.4417
L16.6311 21.3208
" />
<path d="M16.6311 21.3208
L16.7521 21.2603
" />
<path d="M16.7521 21.2603
L17.0545 21.2603
" />
<path d="M17.0545 21.2603
L17.1754 21.1998
" />
<path d="M17.5987 20.8975
L18.0825 20.8975
" />
<path d="M17.7801 20.4741
L17.7801 21.5627
" />
<path d="M17.7801 21.5627
L17.8406 21.6837
" />
<path d="M17.8406 21.6837
L17.9616 21.7441
" />
<path d="M17.9616 21.7441
L18.0825 21.7441
" />
<path d="M19.0501 21.7441
L19.0501 21.0789
" />
<path d="M19.0501 21.0789
L18.9896 20.9579
" />
<path d="M18.9896 20.9579
L18.8687 20.8975
" />
<path d="M18.8687 20.8975
L18.6268 20.8975
" />
<path d="M18.6268 20.8975
L18.5058 20.9579
" />
<path d="M19.0501 21.6837
L18.9292 21.7441
" />
<path d="M18.9292 21.7441
L18.6268 21.7441
" />
<path d="M18.6268 21.7441
L18.5058 21.6837
" />
<path d="M18.5058 21.6837
L18.4454 21.5627
" />
<path d="M18.4454 21.5627
L18.4454 21.4417
" />
<path d="M18.4454 21.4417
L18.5058 21.3208
" />
<path d="M18.5058 21.3208
L18.6268 21.2603
" />
<path d="M18.6268 21.2603
L18.9292 21.2603
" />
<path d="M18.9292 21.2603
L19.0501 21.1998
" />
<path d="M19.5944 21.6837
L19.7153 21.7441
" />
<path d="M19.7153 21.7441
L19.9572 21.7441
" />
<path d="M19.9572 21.7441
L20.0782 21.6837
" />
<path d="M20.0782 21.6837
L20.1386 21.5627
" />
<path d="M20.1386 21.5627
L20.1386 21.5022
" />
<path d="M20.1386 21.5022
L20.0782 21.3813
" />
<path d="M20.0782 21.3813
L19.9572 21.3208
" />
<path d="M19.9572 21.3208
L19.7758 21.3208
" />
<path d="M19.7758 21.3208
L19.6548 21.2603
" />
<path d="M19.6548 21.2603
L19.5944 21.1394
" />
<path d="M19.5944 21.1394
L19.5944 21.0789
" />
<path d="M19.5944 21.0789
L19.6548 20.9579
" />
<path d="M19.6548 20.9579
L19.7758 20.8975
" />
<path d="M19.7758 20.8975
L19.9572 20.8975
" />
<path d="M19.9572 20.8975
L20.0782 20.9579
" />
<path d="M20.6829 21.7441
L20.6829 20.4741
" />
<path d="M21.2272 21.7441
L21.2272 21.0789
" />
<path d="M21.2272 21.0789
L21.1667 20.9579
" />
<path d="M21.1667 20.9579
L21.0458 20.8975
" />
<path d="M21.0458 20.8975
L20.8644 20.8975
" />
<path d="M20.8644 20.8975
L20.7434 20.9579
" />
<path d="M20.7434 20.9579
L20.6829 21.0184
" />
<path d="M22.3157 21.6837
L22.1948 21.7441
" />
<path d="M22.1948 21.7441
L21.9529 21.7441
" />
<path d="M21.9529 21.7441
L21.8319 21.6837
" />
<path d="M21.8319 21.6837
L21.7715 21.5627
" />
<path d="M21.7715 21.5627
L21.7715 21.0789
" />
<path d="M21.7715 21.0789
L21.8319 20.9579
" />
<path d="M21.8319 20.9579
L21.9529 20.8975
" />
<path d="M21.9529 20.8975
L22.1948 20.8975
" />
<path d="M22.1948 20.8975
L22.3157 20.9579
" />
<path d="M22.3157 20.9579
L22.3762 21.0789
" />
<path d="M22.3762 21.0789
L22.3762 21.1998
" />
<path d="M22.3762 21.1998
L21.7715 21.3208
" />
<path d="M23.4043 21.6837
L23.2834 21.7441
" />
<path d="M23.2834 21.7441
L23.0415 21.7441
" />
<path d="M23.0415 21.7441
L22.9205 21.6837
" />
<path d="M22.9205 21.6837
L22.8601 21.5627
" />
<path d="M22.8601 21.5627
L22.8601 21.0789
" />
<path d="M22.8601 21.0789
L22.9205 20.9579
" />
<path d="M22.9205 20.9579
L23.0415 20.8975
" />
<path d="M23.0415 20.8975
L23.2834 20.8975
" />
<path d="M23.2834 20.8975
L23.4043 20.9579
" />
<path d="M23.4043 20.9579
L23.4648 21.0789
" />
<path d="M23.4648 21.0789
L23.4648 21.1998
" />
<path d="M23.4648 21.1998
L22.8601 21.3208
" />
<path d="M23.8277 20.8975
L24.3115 20.8975
" />
<path d="M24.0091 20.4741
L24.0091 21.5627
" />
<path d="M24.0091 21.5627
L24.0696 21.6837
" />
<path d="M24.0696 21.6837
L24.1906 21.7441
" />
<path d="M24.1906 21.7441
L24.3115 21.7441
" />
<path d="M24.6744 21.6837
L24.7953 21.7441
" />
<path d="M24.7953 21.7441
L25.0372 21.7441
" />
<path d="M25.0372 21.7441
L25.1582 21.6837
" />
<path d="M25.1582 21.6837
L25.2186 21.5627
" />
<path d="M25.2186 21.5627
L25.2186 21.5022
" />
<path d="M25.2186 21.5022
L25.1582 21.3813
" />
<path d="M25.1582 21.3813
L25.0372 21.3208
" />
<path d="M25.0372 21.3208
L24.8558 21.3208
" />
<path d="M24.8558 21.3208
L24.7348 21.2603
" />
<path d="M24.7348 21.2603
L24.6744 21.1394
" />
<path d="M24.6744 21.1394
L24.6744 21.0789
" />
<path d="M24.6744 21.0789
L24.7348 20.9579
" />
<path d="M24.7348 20.9579
L24.8558 20.8975
" />
<path d="M24.8558 20.8975
L25.0372 20.8975
" />
<path d="M25.0372 20.8975
L25.1582 20.9579
" />
<path d="M25.7629 21.6232
L25.8234 21.6837
" />
<path d="M25.8234 21.6837
L25.7629 21.7441
" />
<path d="M25.7629 21.7441
L25.7025 21.6837
" />
<path d="M25.7025 21.6837
L25.7629 21.6232
" />
<path d="M25.7629 21.6232
L25.7629 21.7441
" />
<path d="M26.3677 21.7441
L26.3677 20.8975
" />
<path d="M26.3677 21.0184
L26.4282 20.9579
" />
<path d="M26.4282 20.9579
L26.5492 20.8975
" />
<path d="M26.5492 20.8975
L26.7306 20.8975
" />
<path d="M26.7306 20.8975
L26.8515 20.9579
" />
<path d="M26.8515 20.9579
L26.9120 21.0789
" />
<path d="M26.9120 21.0789
L26.9120 21.7441
" />
<path d="M26.9120 21.0789
L26.9725 20.9579
" />
<path d="M26.9725 20.9579
L27.0934 20.8975
" />
<path d="M27.0934 20.8975
L27.2749 20.8975
" />
<path d="M27.2749 20.8975
L27.3958 20.9579
" />
<path d="M27.3958 20.9579
L27.4563 21.0789
" />
<path d="M27.4563 21.0789
L27.4563 21.7441
" />
<path d="M28.6053 21.7441
L28.6053 21.0789
" />
<path d="M28.6053 21.0789
L28.5448 20.9579
" />
<path d="M28.5448 20.9579
L28.4239 20.8975
" />
<path d="M28.4239 20.8975
L28.1820 20.8975
" />
<path d="M28.1820 20.8975
L28.0610 20.9579
" />
<path d="M28.6053 21.6837
L28.4844 21.7441
" />
<path d="M28.4844 21.7441
L28.1820 21.7441
" />
<path d="M28.1820 21.7441
L28.0610 21.6837
" />
<path d="M28.0610 21.6837
L28.0006 21.5627
" />
<path d="M28.0006 21.5627
L28.0006 21.4417
" />
<path d="M28.0006 21.4417
L28.0610 21.3208
" />
<path d="M28.0610 21.3208
L28.1820 21.2603
" />
<path d="M28.1820 21.2603
L28.4844 21.2603
" />
<path d="M28.4844 21.2603
L28.6053 21.1998
" />
<path d="M29.0891 21.7441
L29.7543 20.8975
" />
<path d="M29.0891 20.8975
L29.7543 21.7441
" />
<path d="M30.2381 21.7441
L30.2381 20.8975
" />
<path d="M30.2381 20.4741
L30.1777 20.5346
" />
<path d="M30.1777 20.5346
L30.2381 20.5951
" />
<path d="M30.2381 20.5951
L30.2986 20.5346
" />
<path d="M30.2986 20.5346
L30.2381 20.4741
" />
<path d="M30.2381 20.4741
L30.2381 20.5951
" />
<path d="M30.8429 21.7441
L30.8429 20.8975
" />
<path d="M30.8429 21.0184
L30.9034 20.9579
" />
<path d="M30.9034 20.9579
L31.0244 20.8975
" />
<path d="M31.0244 20.8975
L31.2058 20.8975
" />
<path d="M31.2058 20.8975
L31.3267 20.9579
" />
<path d="M31.3267 20.9579
L31.3872 21.0789
" />
<path d="M31.3872 21.0789
L31.3872 21.7441
" />
<path d="M31.3872 21.0789
L31.4477 20.9579
" />
<path d="M31.4477 20.9579
L31.5686 20.8975
" />
<path d="M31.5686 20.8975
L31.7501 20.8975
" />
<path d="M31.7501 20.8975
L31.8710 20.9579
" />
<path d="M31.8710 20.9579
L31.9315 21.0789
" />
<path d="M31.9315 21.0789
L31.9315 21.7441
" />
<path d="M32.5362 21.7441
L32.5362 20.8975
" />
<path d="M32.5362 20.4741
L32.4758 20.5346
" />
<path d="M32.4758 20.5346
L32.5362 20.5951
" />
<path d="M32.5362 20.5951
L32.5967 20.5346
" />
<path d="M32.5967 20.5346
L32.5362 20.4741
" />
<path d="M32.5362 20.4741
L32.5362 20.5951
" />
<path d="M33.1410 20.8975
L33.1410 21.7441
" />
<path d="M33.1410 21.0184
L33.2015 20.9579
" />
<path d="M33.2015 20.9579
L33.3225 20.8975
" />
<path d="M33.3225 20.8975
L33.5039 20.8975
" />
<path d="M33.5039 20.8975
L33.6248 20.9579
" />
<path d="M33.6248 20.9579
L33.6853 21.0789
" />
<path d="M33.6853 21.0789
L33.6853 21.7441
" />
<path d="M34.1086 20.8975
L34.5924 20.8975
" />
<path d="M34.2900 20.4741
L34.2900 21.5627
" />
<path d="M34.2900 21.5627
L34.3505 21.6837
" />
<path d="M34.3505 21.6837
L34.4715 21.7441
" />
<path d="M34.4715 21.7441
L34.5924 21.7441
" />
<path d="M35.4995 21.6837
L35.3786 21.7441
" />
<path d="M35.3786 21.7441
L35.1367 21.7441
" />
<path d="M35.1367 21.7441
L35.0157 21.6837
" />
<path d="M35.0157 21.6837
L34.9553 21.5627
" />
<path d="M34.9553 21.5627
L34.9553 21.0789
" />
<path d="M34.9553 21.0789
L35.0157 20.9579
" />
<path d="M35.0157 20.9579
L35.1367 20.8975
" />
<path d="M35.1367 20.8975
L35.3786 20.8975
" />
<path d="M35.3786 20.8975
L35.4995 20.9579
" />
<path d="M35.4995 20.9579
L35.5600 21.0789
" />
<path d="M35.5600 21.0789
L35.5600 21.1998
" />
<path d="M35.5600 21.1998
L34.9553 21.3208
" />
<path d="M36.6486 20.8975
L36.6486 21.9256
" />
<path d="M36.6486 21.9256
L36.5881 22.0465
" />
<path d="M36.5881 22.0465
L36.5277 22.1070
" />
<path d="M36.5277 22.1070
L36.4067 22.1675
" />
<path d="M36.4067 22.1675
L36.2253 22.1675
" />
<path d="M36.2253 22.1675
L36.1043 22.1070
" />
<path d="M36.6486 21.6837
L36.5277 21.7441
" />
<path d="M36.5277 21.7441
L36.2858 21.7441
" />
<path d="M36.2858 21.7441
L36.1648 21.6837
" />
<path d="M36.1648 21.6837
L36.1043 21.6232
" />
<path d="M36.1043 21.6232
L36.0439 21.5022
" />
<path d="M36.0439 21.5022
L36.0439 21.1394
" />
<path d="M36.0439 21.1394
L36.1043 21.0184
" />
<path d="M36.1043 21.0184
L36.1648 20.9579
" />
<path d="M36.1648 20.9579
L36.2858 20.8975
" />
<path d="M36.2858 20.8975
L36.5277 20.8975
" />
<path d="M36.5277 20.8975
L36.6486 20.9579
" />
<path d="M37.2533 21.7441
L37.2533 20.8975
" />
<path d="M37.2533 21.1394
L37.3138 21.0184
" />
<path d="M37.3138 21.0184
L37.3743 20.9579
" />
<path d="M37.3743 20.9579
L37.4952 20.8975
" />
<path d="M37.4952 20.8975
L37.6162 20.8975
" />
<path d="M38.5838 21.7441
L38.5838 21.0789
" />
<path d="M38.5838 21.0789
L38.5233 20.9579
" />
<path d="M38.5233 20.9579
L38.4024 20.8975
" />
<path d="M38.4024 20.8975
L38.1605 20.8975
" />
<path d="M38.1605 20.8975
L38.0395 20.9579
" />
<path d="M38.5838 21.6837
L38.4629 21.7441
" />
<path d="M38.4629 21.7441
L38.1605 21.7441
" />
<path d="M38.1605 21.7441
L38.0395 21.6837
" />
<path d="M38.0395 21.6837
L37.9791 21.5627
" />
<path d="M37.9791 21.5627
L37.9791 21.4417
" />
<path d="M37.9791 21.4417
L38.0395 21.3208
" />
<path d="M38.0395 21.3208
L38.1605 21.2603
" />
<path d="M38.1605 21.2603
L38.4629 21.2603
" />
<path d="M38.4629 21.2603
L38.5838 21.1998
" />
<path d="M39.0071 20.8975
L39.4909 20.8975
" />
<path d="M39.1885 20.4741
L39.1885 21.5627
" />
<path d="M39.1885 21.5627
L39.2490 21.6837
" />
<path d="M39.2490 21.6837
L39.3700 21.7441
" />
<path d="M39.3700 21.7441
L39.4909 21.7441
" />
<path d="M40.3980 21.6837
L40.2771 21.7441
" />
<path d="M40.2771 21.7441
L40.0352 21.7441
" />
<path d="M40.0352 21.7441
L39.9142 21.6837
" />
<path d="M39.9142 21.6837
L39.8538 21.5627
" />
<path d="M39.8538 21.5627
L39.8538 21.0789
" />
<path d="M39.8538 21.0789
L39.9142 20.9579
" />
<path d="M39.9142 20.9579
L40.0352 20.8975
" />
<path d="M40.0352 20.8975
L40.2771 20.8975
" />
<path d="M40.2771 20.8975
L40.3980 20.9579
" />
<path d="M40.3980 20.9579
L40.4585 21.0789
" />
<path d="M40.4585 21.0789
L40.4585 21.1998
" />
<path d="M40.4585 21.1998
L39.8538 21.3208
" />
<path d="M41.5471 21.7441
L41.5471 20.4741
" />
<path d="M41.5471 21.6837
L41.4262 21.7441
" />
<path d="M41.4262 21.7441
L41.1843 21.7441
" />
<path d="M41.1843 21.7441
L41.0633 21.6837
" />
<path d="M41.0633 21.6837
L41.0028 21.6232
" />
<path d="M41.0028 21.6232
L40.9424 21.5022
" />
<path d="M40.9424 21.5022
L40.9424 21.1394
" />
<path d="M40.9424 21.1394
L41.0028 21.0184
" />
<path d="M41.0028 21.0184
L41.0633 20.9579
" />
<path d="M41.0633 20.9579
L41.1843 20.8975
" />
<path d="M41.1843 20.8975
L41.4262 20.8975
" />
<path d="M41.4262 20.8975
L41.5471 20.9579
" />
<path d="M42.1518 21.6232
L42.2123 21.6837
" />
<path d="M42.2123 21.6837
L42.1518 21.7441
" />
<path d="M42.1518 21.7441
L42.0914 21.6837
" />
<path d="M42.0914 21.6837
L42.1518 21.6232
" />
<path d="M42.1518 21.6232
L42.1518 21.7441
" />
<path d="M43.3009 21.6837
L43.1800 21.7441
" />
<path d="M43.1800 21.7441
L42.9381 21.7441
" />
<path d="M42.9381 21.7441
L42.8171 21.6837
" />
<path d="M42.8171 21.6837
L42.7566 21.6232
" />
<path d="M42.7566 21.6232
L42.6962 21.5022
" />
<path d="M42.6962 21.5022
L42.6962 21.1394
" />
<path d="M42.6962 21.1394
L42.7566 21.0184
" />
<path d="M42.7566 21.0184
L42.8171 20.9579
" />
<path d="M42.8171 20.9579
L42.9381 20.8975
" />
<path d="M42.9381 20.8975
L43.1800 20.8975
" />
<path d="M43.1800 20.8975
L43.3009 20.9579
" />
<path d="M44.0267 21.7441
L43.9057 21.6837
" />
<path d="M43.9057 21.6837
L43.8452 21.6232
" />
<path d="M43.8452 21.6232
L43.7848 21.5022
" />
<path d="M43.7848 21.5022
L43.7848 21.1394
" />
<path d="M43.7848 21.1394
L43.8452 21.0184
" />
<path d="M43.8452 21.0184
L43.9057 20.9579
" />
<path d="M43.9057 20.9579
L44.0267 20.8975
" />
<path d="M44.0267 20.8975
L44.2081 20.8975
" />
<path d="M44.2081 20.8975
L44.3290 20.9579
" />
<path d="M44.3290 20.9579
L44.3895 21.0184
" />
<path d="M44.3895 21.0184
L44.4500 21.1394
" />
<path d="M44.4500 21.1394
L44.4500 21.5022
" />
<path d="M44.4500 21.5022
L44.3895 21.6232
" />
<path d="M44.3895 21.6232
L44.3290 21.6837
" />
<path d="M44.3290 21.6837
L44.2081 21.7441
" />
<path d="M44.2081 21.7441
L44.0267 21.7441
" />
<path d="M44.9942 21.7441
L44.9942 20.8975
" />
<path d="M44.9942 21.0184
L45.0547 20.9579
" />
<path d="M45.0547 20.9579
L45.1757 20.8975
" />
<path d="M45.1757 20.8975
L45.3571 20.8975
" />
<path d="M45.3571 20.8975
L45.4780 20.9579
" />
<path d="M45.4780 20.9579
L45.5385 21.0789
" />
<path d="M45.5385 21.0789
L45.5385 21.7441
" />
<path d="M45.5385 21.0789
L45.5990 20.9579
" />
<path d="M45.5990 20.9579
L45.7199 20.8975
" />
<path d="M45.7199 20.8975
L45.9014 20.8975
" />
<path d="M45.9014 20.8975
L46.0223 20.9579
" />
<path d="M46.0223 20.9579
L46.0828 21.0789
" />
<path d="M46.0828 21.0789
L46.0828 21.7441
" />
<path d="M47.5947 20.4137
L46.5061 22.0465
" />
<path d="M48.5018 21.6837
L48.3809 21.7441
" />
<path d="M48.3809 21.7441
L48.1390 21.7441
" />
<path d="M48.1390 21.7441
L48.0180 21.6837
" />
<path d="M48.0180 21.6837
L47.9576 21.5627
" />
<path d="M47.9576 21.5627
L47.9576 21.0789
" />
<path d="M47.9576 21.0789
L48.0180 20.9579
" />
<path d="M48.0180 20.9579
L48.1390 20.8975
" />
<path d="M48.1390 20.8975
L48.3809 20.8975
" />
<path d="M48.3809 20.8975
L48.5018 20.9579
" />
<path d="M48.5018 20.9579
L48.5623 21.0789
" />
<path d="M48.5623 21.0789
L48.5623 21.1998
" />
<path d="M48.5623 21.1998
L47.9576 21.3208
" />
<path d="M49.1066 20.8975
L49.1066 21.7441
" />
<path d="M49.1066 21.0184
L49.1671 20.9579
" />
<path d="M49.1671 20.9579
L49.2881 20.8975
" />
<path d="M49.2881 20.8975
L49.4695 20.8975
" />
<path d="M49.4695 20.8975
L49.5904 20.9579
" />
<path d="M49.5904 20.9579
L49.6509 21.0789
" />
<path d="M49.6509 21.0789
L49.6509 21.7441
" />
<path d="M51.1628 20.4137
L50.0742 22.0465
" />
<path d="M52.1304 21.7441
L52.1304 20.4741
" />
<path d="M52.1304 21.6837
L52.0095 21.7441
" />
<path d="M52.0095 21.7441
L51.7676 21.7441
" />
<path d="M51.7676 21.7441
L51.6466 21.6837
" />
<path d="M51.6466 21.6837
L51.5861 21.6232
" />
<path d="M51.5861 21.6232
L51.5257 21.5022
" />
<path d="M51.5257 21.5022
L51.5257 21.1394
" />
<path d="M51.5257 21.1394
L51.5861 21.0184
" />
<path d="M51.5861 21.0184
L51.6466 20.9579
" />
<path d="M51.6466 20.9579
L51.7676 20.8975
" />
<path d="M51.7676 20.8975
L52.0095 20.8975
" />
<path d="M52.0095 20.8975
L52.1304 20.9579
" />
<path d="M52.6747 21.6837
L52.7956 21.7441
" />
<path d="M52.7956 21.7441
L53.0375 21.7441
" />
<path d="M53.0375 21.7441
L53.1585 21.6837
" />
<path d="M53.1585 21.6837
L53.2189 21.5627
" />
<path d="M53.2189 21.5627
L53.2189 21.5022
" />
<path d="M53.2189 21.5022
L53.1585 21.3813
" />
<path d="M53.1585 21.3813
L53.0375 21.3208
" />
<path d="M53.0375 21.3208
L52.8561 21.3208
" />
<path d="M52.8561 21.3208
L52.7351 21.2603
" />
<path d="M52.7351 21.2603
L52.6747 21.1394
" />
<path d="M52.6747 21.1394
L52.6747 21.0789
" />
<path d="M52.6747 21.0789
L52.7351 20.9579
" />
<path d="M52.7351 20.9579
L52.8561 20.8975
" />
<path d="M52.8561 20.8975
L53.0375 20.8975
" />
<path d="M53.0375 20.8975
L53.1585 20.9579
" />
<path d="M54.6704 20.4137
L53.5818 22.0465
" />
<path d="M55.0937 21.7441
L55.0937 20.4741
" />
<path d="M55.0937 20.4741
L55.5171 21.3813
" />
<path d="M55.5171 21.3813
L55.9404 20.4741
" />
<path d="M55.9404 20.4741
L55.9404 21.7441
" />
<path d="M56.4847 21.3813
L57.0894 21.3813
" />
<path d="M56.3637 21.7441
L56.7870 20.4741
" />
<path d="M56.7870 20.4741
L57.2104 21.7441
" />
<path d="M57.5128 20.4741
L58.3594 21.7441
" />
<path d="M58.3594 20.4741
L57.5128 21.7441
" />
<path d="M59.5085 21.7441
L58.7828 21.7441
" />
<path d="M59.1456 21.7441
L59.1456 20.4741
" />
<path d="M59.1456 20.4741
L59.0247 20.6556
" />
<path d="M59.0247 20.6556
L58.9037 20.7765
" />
<path d="M58.9037 20.7765
L58.7828 20.8370
" />
<path d="M60.1132 21.7441
L60.3551 21.7441
" />
<path d="M60.3551 21.7441
L60.4761 21.6837
" />
<path d="M60.4761 21.6837
L60.5365 21.6232
" />
<path d="M60.5365 21.6232
L60.6575 21.4417
" />
<path d="M60.6575 21.4417
L60.7180 21.1998
" />
<path d="M60.7180 21.1998
L60.7180 20.7160
" />
<path d="M60.7180 20.7160
L60.6575 20.5951
" />
<path d="M60.6575 20.5951
L60.5970 20.5346
" />
<path d="M60.5970 20.5346
L60.4761 20.4741
" />
<path d="M60.4761 20.4741
L60.2342 20.4741
" />
<path d="M60.2342 20.4741
L60.1132 20.5346
" />
<path d="M60.1132 20.5346
L60.0527 20.5951
" />
<path d="M60.0527 20.5951
L59.9923 20.7160
" />
<path d="M59.9923 20.7160
L59.9923 21.0184
" />
<path d="M59.9923 21.0184
L60.0527 21.1394
" />
<path d="M60.0527 21.1394
L60.1132 21.1998
" />
<path d="M60.1132 21.1998
L60.2342 21.2603
" />
<path d="M60.2342 21.2603
L60.4761 21.2603
" />
<path d="M60.4761 21.2603
L60.5970 21.1998
" />
<path d="M60.5970 21.1998
L60.6575 21.1394
" />
<path d="M60.6575 21.1394
L60.7180 21.0184
" />
<path d="M61.8065 20.4741
L61.5646 20.4741
" />
<path d="M61.5646 20.4741
L61.4437 20.5346
" />
<path d="M61.4437 20.5346
L61.3832 20.5951
" />
<path d="M61.3832 20.5951
L61.2622 20.7765
" />
<path d="M61.2622 20.7765
L61.2018 21.0184
" />
<path d="M61.2018 21.0184
L61.2018 21.5022
" />
<path d="M61.2018 21.5022
L61.2622 21.6232
" />
<path d="M61.2622 21.6232
L61.3227 21.6837
" />
<path d="M61.3227 21.6837
L61.4437 21.7441
" />
<path d="M61.4437 21.7441
L61.6856 21.7441
" />
<path d="M61.6856 21.7441
L61.8065 21.6837
" />
<path d="M61.8065 21.6837
L61.8670 21.6232
" />
<path d="M61.8670 21.6232
L61.9275 21.5022
" />
<path d="M61.9275 21.5022
L61.9275 21.1998
" />
<path d="M61.9275 21.1998
L61.8670 21.0789
" />
<path d="M61.8670 21.0789
L61.8065 21.0184
" />
<path d="M61.8065 21.0184
L61.6856 20.9579
" />
<path d="M61.6856 20.9579
L61.4437 20.9579
" />
<path d="M61.4437 20.9579
L61.3227 21.0184
" />
<path d="M61.3227 21.0184
L61.2622 21.0789
" />
<path d="M61.2622 21.0789
L61.2018 21.1998
" />
<path d="M62.6532 21.0184
L62.5322 20.9579
" />
<path d="M62.5322 20.9579
L62.4717 20.8975
" />
<path d="M62.4717 20.8975
L62.4113 20.7765
" />
<path d="M62.4113 20.7765
L62.4113 20.7160
" />
<path d="M62.4113 20.7160
L62.4717 20.5951
" />
<path d="M62.4717 20.5951
L62.5322 20.5346
" />
<path d="M62.5322 20.5346
L62.6532 20.4741
" />
<path d="M62.6532 20.4741
L62.8951 20.4741
" />
<path d="M62.8951 20.4741
L63.0160 20.5346
" />
<path d="M63.0160 20.5346
L63.0765 20.5951
" />
<path d="M63.0765 20.5951
L63.1370 20.7160
" />
<path d="M63.1370 20.7160
L63.1370 20.7765
" />
<path d="M63.1370 20.7765
L63.0765 20.8975
" />
<path d="M63.0765 20.8975
L63.0160 20.9579
" />
<path d="M63.0160 20.9579
L62.8951 21.0184
" />
<path d="M62.8951 21.0184
L62.6532 21.0184
" />
<path d="M62.6532 21.0184
L62.5322 21.0789
" />
<path d="M62.5322 21.0789
L62.4717 21.1394
" />
<path d="M62.4717 21.1394
L62.4113 21.2603
" />
<path d="M62.4113 21.2603
L62.4113 21.5022
" />
<path d="M62.4113 21.5022
L62.4717 21.6232
" />
<path d="M62.4717 21.6232
L62.5322 21.6837
" />
<path d="M62.5322 21.6837
L62.6532 21.7441
" />
<path d="M62.6532 21.7441
L62.8951 21.7441
" />
<path d="M62.8951 21.7441
L63.0160 21.6837
" />
<path d="M63.0160 21.6837
L63.0765 21.6232
" />
<path d="M63.0765 21.6232
L63.1370 21.5022
" />
<path d="M63.1370 21.5022
L63.1370 21.2603
" />
<path d="M63.1370 21.2603
L63.0765 21.1394
" />
<path d="M63.0765 21.1394
L63.0160 21.0789
" />
<path d="M63.0160 21.0789
L62.8951 21.0184
" />
<path d="M63.6812 21.2603
L64.6489 21.2603
" />
<path d="M65.2536 21.7441
L65.2536 20.4741
" />
<path d="M65.2536 20.4741
L65.6770 21.3813
" />
<path d="M65.6770 21.3813
L66.1003 20.4741
" />
<path d="M66.1003 20.4741
L66.1003 21.7441
" />
<path d="M66.6446 21.3813
L67.2493 21.3813
" />
<path d="M66.5236 21.7441
L66.9469 20.4741
" />
<path d="M66.9469 20.4741
L67.3703 21.7441
" />
<path d="M67.6727 20.4741
L68.5193 21.7441
" />
<path d="M68.5193 20.4741
L67.6727 21.7441
" />
<path d="M69.6684 21.7441
L68.9427 21.7441
" />
<path d="M69.3055 21.7441
L69.3055 20.4741
" />
<path d="M69.3055 20.4741
L69.1846 20.6556
" />
<path d="M69.1846 20.6556
L69.0636 20.7765
" />
<path d="M69.0636 20.7765
L68.9427 20.8370
" />
<path d="M70.2731 21.7441
L70.5150 21.7441
" />
<path d="M70.5150 21.7441
L70.6360 21.6837
" />
<path d="M70.6360 21.6837
L70.6964 21.6232
" />
<path d="M70.6964 21.6232
L70.8174 21.4417
" />
<path d="M70.8174 21.4417
L70.8779 21.1998
" />
<path d="M70.8779 21.1998
L70.8779 20.7160
" />
<path d="M70.8779 20.7160
L70.8174 20.5951
" />
<path d="M70.8174 20.5951
L70.7569 20.5346
" />
<path d="M70.7569 20.5346
L70.6360 20.4741
" />
<path d="M70.6360 20.4741
L70.3941 20.4741
" />
<path d="M70.3941 20.4741
L70.2731 20.5346
" />
<path d="M70.2731 20.5346
L70.2126 20.5951
" />
<path d="M70.2126 20.5951
L70.1522 20.7160
" />
<path d="M70.1522 20.7160
L70.1522 21.0184
" />
<path d="M70.1522 21.0184
L70.2126 21.1394
" />
<path d="M70.2126 21.1394
L70.2731 21.1998
" />
<path d="M70.2731 21.1998
L70.3941 21.2603
" />
<path d="M70.3941 21.2603
L70.6360 21.2603
" />
<path d="M70.6360 21.2603
L70.7569 21.1998
" />
<path d="M70.7569 21.1998
L70.8174 21.1394
" />
<path d="M70.8174 21.1394
L70.8779 21.0184
" />
<path d="M71.9664 20.4741
L71.7245 20.4741
" />
<path d="M71.7245 20.4741
L71.6036 20.5346
" />
<path d="M71.6036 20.5346
L71.5431 20.5951
" />
<path d="M71.5431 20.5951
L71.4221 20.7765
" />
<path d="M71.4221 20.7765
L71.3617 21.0184
" />
<path d="M71.3617 21.0184
L71.3617 21.5022
" />
<path d="M71.3617 21.5022
L71.4221 21.6232
" />
<path d="M71.4221 21.6232
L71.4826 21.6837
" />
<path d="M71.4826 21.6837
L71.6036 21.7441
" />
<path d="M71.6036 21.7441
L71.8455 21.7441
" />
<path d="M71.8455 21.7441
L71.9664 21.6837
" />
<path d="M71.9664 21.6837
L72.0269 21.6232
" />
<path d="M72.0269 21.6232
L72.0874 21.5022
" />
<path d="M72.0874 21.5022
L72.0874 21.1998
" />
<path d="M72.0874 21.1998
L72.0269 21.0789
" />
<path d="M72.0269 21.0789
L71.9664 21.0184
" />
<path d="M71.9664 21.0184
L71.8455 20.9579
" />
<path d="M71.8455 20.9579
L71.6036 20.9579
" />
<path d="M71.6036 20.9579
L71.4826 21.0184
" />
<path d="M71.4826 21.0184
L71.4221 21.0789
" />
<path d="M71.4221 21.0789
L71.3617 21.1998
" />
<path d="M72.6921 21.7441
L72.9340 21.7441
" />
<path d="M72.9340 21.7441
L73.0550 21.6837
" />
<path d="M73.0550 21.6837
L73.1154 21.6232
" />
<path d="M73.1154 21.6232
L73.2364 21.4417
" />
<path d="M73.2364 21.4417
L73.2969 21.1998
" />
<path d="M73.2969 21.1998
L73.2969 20.7160
" />
<path d="M73.2969 20.7160
L73.2364 20.5951
" />
<path d="M73.2364 20.5951
L73.1759 20.5346
" />
<path d="M73.1759 20.5346
L73.0550 20.4741
" />
<path d="M73.0550 20.4741
L72.8131 20.4741
" />
<path d="M72.8131 20.4741
L72.6921 20.5346
" />
<path d="M72.6921 20.5346
L72.6316 20.5951
" />
<path d="M72.6316 20.5951
L72.5712 20.7160
" />
<path d="M72.5712 20.7160
L72.5712 21.0184
" />
<path d="M72.5712 21.0184
L72.6316 21.1394
" />
<path d="M72.6316 21.1394
L72.6921 21.1998
" />
<path d="M72.6921 21.1998
L72.8131 21.2603
" />
<path d="M72.8131 21.2603
L73.0550 21.2603
" />
<path d="M73.0550 21.2603
L73.1759 21.1998
" />
<path d="M73.1759 21.1998
L73.2364 21.1394
" />
<path d="M73.2364 21.1394
L73.2969 21.0184
" />
<path d="M73.8411 21.6232
L73.9016 21.6837
" />
<path d="M73.9016 21.6837
L73.8411 21.7441
" />
<path d="M73.8411 21.7441
L73.7807 21.6837
" />
<path d="M73.7807 21.6837
L73.8411 21.6232
" />
<path d="M73.8411 21.6232
L73.8411 21.7441
" />
<path d="M74.4459 20.8975
L74.4459 22.1675
" />
<path d="M74.4459 20.9579
L74.5669 20.8975
" />
<path d="M74.5669 20.8975
L74.8088 20.8975
" />
<path d="M74.8088 20.8975
L74.9297 20.9579
" />
<path d="M74.9297 20.9579
L74.9902 21.0184
" />
<path d="M74.9902 21.0184
L75.0507 21.1394
" />
<path d="M75.0507 21.1394
L75.0507 21.5022
" />
<path d="M75.0507 21.5022
L74.9902 21.6232
" />
<path d="M74.9902 21.6232
L74.9297 21.6837
" />
<path d="M74.9297 21.6837
L74.8088 21.7441
" />
<path d="M74.8088 21.7441
L74.5669 21.7441
" />
<path d="M74.5669 21.7441
L74.4459 21.6837
" />
<path d="M76.1392 21.7441
L76.1392 20.4741
" />
<path d="M76.1392 21.6837
L76.0183 21.7441
" />
<path d="M76.0183 21.7441
L75.7764 21.7441
" />
<path d="M75.7764 21.7441
L75.6554 21.6837
" />
<path d="M75.6554 21.6837
L75.5949 21.6232
" />
<path d="M75.5949 21.6232
L75.5345 21.5022
" />
<path d="M75.5345 21.5022
L75.5345 21.1394
" />
<path d="M75.5345 21.1394
L75.5949 21.0184
" />
<path d="M75.5949 21.0184
L75.6554 20.9579
" />
<path d="M75.6554 20.9579
L75.7764 20.8975
" />
<path d="M75.7764 20.8975
L76.0183 20.8975
" />
<path d="M76.0183 20.8975
L76.1392 20.9579
" />
<path d="M76.5625 20.8975
L77.0463 20.8975
" />
<path d="M76.7439 21.7441
L76.7439 20.6556
" />
<path d="M76.7439 20.6556
L76.8044 20.5346
" />
<path d="M76.8044 20.5346
L76.9254 20.4741
" />
<path d="M76.9254 20.4741
L77.0463 20.4741
" />
</g></g> 
</svg>
