<?xml version="1.0" standalone="no"?>
 <!DOCTYPE svg PUBLIC "-//W3C//DTD SVG 1.1//EN" 
 "http://www.w3.org/Graphics/SVG/1.1/DTD/svg11.dtd"> 
<svg
  xmlns:svg="http://www.w3.org/2000/svg"
  xmlns="http://www.w3.org/2000/svg"
  xmlns:xlink="http://www.w3.org/1999/xlink"
  version="1.1"
  width="54.1020mm" height="29.8958mm" viewBox="0.0000 0.0000 54.1020 29.8958">
<title>SVG Image created as working.svg date 2023/08/13 01:44:13 </title>
  <desc>Image generated by Eeschema-SVG </desc>
<g style="fill:#000000; fill-opacity:1.0000;stroke:#000000; stroke-opacity:1.0000;
stroke-linecap:round; stroke-linejoin:round;"
 transform="translate(0 0) scale(1 1)">
</g>
<g style="fill:#840000; fill-opacity:0.0; 
stroke:#840000; stroke-width:0.0000; stroke-opacity:1; 
stroke-linecap:round; stroke-linejoin:round;">
</g>
<g style="fill:#840084; fill-opacity:0.0; 
stroke:#840084; stroke-width:0.0000; stroke-opacity:1; 
stroke-linecap:round; stroke-linejoin:round;">
</g>
<g style="fill:#840000; fill-opacity:0.0; 
stroke:#840000; stroke-width:0.0000; stroke-opacity:1; 
stroke-linecap:round; stroke-linejoin:round;">
</g>
<g style="fill:#840084; fill-opacity:0.0; 
stroke:#840084; stroke-width:0.0000; stroke-opacity:1; 
stroke-linecap:round; stroke-linejoin:round;">
</g>
<g style="fill:#006464; fill-opacity:0.0; 
stroke:#006464; stroke-width:0.0000; stroke-opacity:1; 
stroke-linecap:round; stroke-linejoin:round;">
</g>
<g style="fill:#006464; fill-opacity:0.0; 
stroke:#006464; stroke-width:0.1588; stroke-opacity:1; 
stroke-linecap:round; stroke-linejoin:round;">
<text x="19.4372" y="4.1469"
textLength="2.6415" font-size="1.6933" lengthAdjust="spacingAndGlyphs"
text-anchor="middle" opacity="0">U?</text>
<g class="stroked-text"><desc>U?</desc>
<path d="M18.5300 2.8211
L18.5300 3.8492
" />
<path d="M18.5300 3.8492
L18.5905 3.9702
" />
<path d="M18.5905 3.9702
L18.6510 4.0307
" />
<path d="M18.6510 4.0307
L18.7719 4.0911
" />
<path d="M18.7719 4.0911
L19.0138 4.0911
" />
<path d="M19.0138 4.0911
L19.1348 4.0307
" />
<path d="M19.1348 4.0307
L19.1953 3.9702
" />
<path d="M19.1953 3.9702
L19.2557 3.8492
" />
<path d="M19.2557 3.8492
L19.2557 2.8211
" />
<path d="M20.0420 3.9702
L20.1024 4.0307
" />
<path d="M20.1024 4.0307
L20.0420 4.0911
" />
<path d="M20.0420 4.0911
L19.9815 4.0307
" />
<path d="M19.9815 4.0307
L20.0420 3.9702
" />
<path d="M20.0420 3.9702
L20.0420 4.0911
" />
<path d="M19.8001 2.8816
L19.9210 2.8211
" />
<path d="M19.9210 2.8211
L20.2234 2.8211
" />
<path d="M20.2234 2.8211
L20.3443 2.8816
" />
<path d="M20.3443 2.8816
L20.4048 3.0026
" />
<path d="M20.4048 3.0026
L20.4048 3.1235
" />
<path d="M20.4048 3.1235
L20.3443 3.2445
" />
<path d="M20.3443 3.2445
L20.2839 3.3049
" />
<path d="M20.2839 3.3049
L20.1629 3.3654
" />
<path d="M20.1629 3.3654
L20.1024 3.4259
" />
<path d="M20.1024 3.4259
L20.0420 3.5468
" />
<path d="M20.0420 3.5468
L20.0420 3.6073
" />
</g><text x="32.1372" y="6.6869"
textLength="13.7690" font-size="1.6933" lengthAdjust="spacingAndGlyphs"
text-anchor="middle" opacity="0">UA9638CDRG4</text>
<g class="stroked-text"><desc>UA9638CDRG4</desc>
<path d="M25.6662 5.3611
L25.6662 6.3892
" />
<path d="M25.6662 6.3892
L25.7267 6.5102
" />
<path d="M25.7267 6.5102
L25.7872 6.5707
" />
<path d="M25.7872 6.5707
L25.9081 6.6311
" />
<path d="M25.9081 6.6311
L26.1500 6.6311
" />
<path d="M26.1500 6.6311
L26.2710 6.5707
" />
<path d="M26.2710 6.5707
L26.3315 6.5102
" />
<path d="M26.3315 6.5102
L26.3919 6.3892
" />
<path d="M26.3919 6.3892
L26.3919 5.3611
" />
<path d="M26.9363 6.2683
L27.5410 6.2683
" />
<path d="M26.8153 6.6311
L27.2386 5.3611
" />
<path d="M27.2386 5.3611
L27.6620 6.6311
" />
<path d="M28.1458 6.6311
L28.3877 6.6311
" />
<path d="M28.3877 6.6311
L28.5087 6.5707
" />
<path d="M28.5087 6.5707
L28.5691 6.5102
" />
<path d="M28.5691 6.5102
L28.6901 6.3287
" />
<path d="M28.6901 6.3287
L28.7506 6.0868
" />
<path d="M28.7506 6.0868
L28.7506 5.6030
" />
<path d="M28.7506 5.6030
L28.6901 5.4821
" />
<path d="M28.6901 5.4821
L28.6296 5.4216
" />
<path d="M28.6296 5.4216
L28.5087 5.3611
" />
<path d="M28.5087 5.3611
L28.2668 5.3611
" />
<path d="M28.2668 5.3611
L28.1458 5.4216
" />
<path d="M28.1458 5.4216
L28.0853 5.4821
" />
<path d="M28.0853 5.4821
L28.0249 5.6030
" />
<path d="M28.0249 5.6030
L28.0249 5.9054
" />
<path d="M28.0249 5.9054
L28.0853 6.0264
" />
<path d="M28.0853 6.0264
L28.1458 6.0868
" />
<path d="M28.1458 6.0868
L28.2668 6.1473
" />
<path d="M28.2668 6.1473
L28.5087 6.1473
" />
<path d="M28.5087 6.1473
L28.6296 6.0868
" />
<path d="M28.6296 6.0868
L28.6901 6.0264
" />
<path d="M28.6901 6.0264
L28.7506 5.9054
" />
<path d="M29.8391 5.3611
L29.5972 5.3611
" />
<path d="M29.5972 5.3611
L29.4763 5.4216
" />
<path d="M29.4763 5.4216
L29.4158 5.4821
" />
<path d="M29.4158 5.4821
L29.2948 5.6635
" />
<path d="M29.2948 5.6635
L29.2344 5.9054
" />
<path d="M29.2344 5.9054
L29.2344 6.3892
" />
<path d="M29.2344 6.3892
L29.2948 6.5102
" />
<path d="M29.2948 6.5102
L29.3553 6.5707
" />
<path d="M29.3553 6.5707
L29.4763 6.6311
" />
<path d="M29.4763 6.6311
L29.7182 6.6311
" />
<path d="M29.7182 6.6311
L29.8391 6.5707
" />
<path d="M29.8391 6.5707
L29.8996 6.5102
" />
<path d="M29.8996 6.5102
L29.9601 6.3892
" />
<path d="M29.9601 6.3892
L29.9601 6.0868
" />
<path d="M29.9601 6.0868
L29.8996 5.9659
" />
<path d="M29.8996 5.9659
L29.8391 5.9054
" />
<path d="M29.8391 5.9054
L29.7182 5.8449
" />
<path d="M29.7182 5.8449
L29.4763 5.8449
" />
<path d="M29.4763 5.8449
L29.3553 5.9054
" />
<path d="M29.3553 5.9054
L29.2948 5.9659
" />
<path d="M29.2948 5.9659
L29.2344 6.0868
" />
<path d="M30.3834 5.3611
L31.1696 5.3611
" />
<path d="M31.1696 5.3611
L30.7462 5.8449
" />
<path d="M30.7462 5.8449
L30.9277 5.8449
" />
<path d="M30.9277 5.8449
L31.0486 5.9054
" />
<path d="M31.0486 5.9054
L31.1091 5.9659
" />
<path d="M31.1091 5.9659
L31.1696 6.0868
" />
<path d="M31.1696 6.0868
L31.1696 6.3892
" />
<path d="M31.1696 6.3892
L31.1091 6.5102
" />
<path d="M31.1091 6.5102
L31.0486 6.5707
" />
<path d="M31.0486 6.5707
L30.9277 6.6311
" />
<path d="M30.9277 6.6311
L30.5648 6.6311
" />
<path d="M30.5648 6.6311
L30.4439 6.5707
" />
<path d="M30.4439 6.5707
L30.3834 6.5102
" />
<path d="M31.8953 5.9054
L31.7743 5.8449
" />
<path d="M31.7743 5.8449
L31.7138 5.7845
" />
<path d="M31.7138 5.7845
L31.6534 5.6635
" />
<path d="M31.6534 5.6635
L31.6534 5.6030
" />
<path d="M31.6534 5.6030
L31.7138 5.4821
" />
<path d="M31.7138 5.4821
L31.7743 5.4216
" />
<path d="M31.7743 5.4216
L31.8953 5.3611
" />
<path d="M31.8953 5.3611
L32.1372 5.3611
" />
<path d="M32.1372 5.3611
L32.2581 5.4216
" />
<path d="M32.2581 5.4216
L32.3186 5.4821
" />
<path d="M32.3186 5.4821
L32.3791 5.6030
" />
<path d="M32.3791 5.6030
L32.3791 5.6635
" />
<path d="M32.3791 5.6635
L32.3186 5.7845
" />
<path d="M32.3186 5.7845
L32.2581 5.8449
" />
<path d="M32.2581 5.8449
L32.1372 5.9054
" />
<path d="M32.1372 5.9054
L31.8953 5.9054
" />
<path d="M31.8953 5.9054
L31.7743 5.9659
" />
<path d="M31.7743 5.9659
L31.7138 6.0264
" />
<path d="M31.7138 6.0264
L31.6534 6.1473
" />
<path d="M31.6534 6.1473
L31.6534 6.3892
" />
<path d="M31.6534 6.3892
L31.7138 6.5102
" />
<path d="M31.7138 6.5102
L31.7743 6.5707
" />
<path d="M31.7743 6.5707
L31.8953 6.6311
" />
<path d="M31.8953 6.6311
L32.1372 6.6311
" />
<path d="M32.1372 6.6311
L32.2581 6.5707
" />
<path d="M32.2581 6.5707
L32.3186 6.5102
" />
<path d="M32.3186 6.5102
L32.3791 6.3892
" />
<path d="M32.3791 6.3892
L32.3791 6.1473
" />
<path d="M32.3791 6.1473
L32.3186 6.0264
" />
<path d="M32.3186 6.0264
L32.2581 5.9659
" />
<path d="M32.2581 5.9659
L32.1372 5.9054
" />
<path d="M33.6490 6.5102
L33.5886 6.5707
" />
<path d="M33.5886 6.5707
L33.4071 6.6311
" />
<path d="M33.4071 6.6311
L33.2862 6.6311
" />
<path d="M33.2862 6.6311
L33.1048 6.5707
" />
<path d="M33.1048 6.5707
L32.9838 6.4497
" />
<path d="M32.9838 6.4497
L32.9233 6.3287
" />
<path d="M32.9233 6.3287
L32.8629 6.0868
" />
<path d="M32.8629 6.0868
L32.8629 5.9054
" />
<path d="M32.8629 5.9054
L32.9233 5.6635
" />
<path d="M32.9233 5.6635
L32.9838 5.5426
" />
<path d="M32.9838 5.5426
L33.1048 5.4216
" />
<path d="M33.1048 5.4216
L33.2862 5.3611
" />
<path d="M33.2862 5.3611
L33.4071 5.3611
" />
<path d="M33.4071 5.3611
L33.5886 5.4216
" />
<path d="M33.5886 5.4216
L33.6490 5.4821
" />
<path d="M34.1933 6.6311
L34.1933 5.3611
" />
<path d="M34.1933 5.3611
L34.4957 5.3611
" />
<path d="M34.4957 5.3611
L34.6771 5.4216
" />
<path d="M34.6771 5.4216
L34.7981 5.5426
" />
<path d="M34.7981 5.5426
L34.8586 5.6635
" />
<path d="M34.8586 5.6635
L34.9190 5.9054
" />
<path d="M34.9190 5.9054
L34.9190 6.0868
" />
<path d="M34.9190 6.0868
L34.8586 6.3287
" />
<path d="M34.8586 6.3287
L34.7981 6.4497
" />
<path d="M34.7981 6.4497
L34.6771 6.5707
" />
<path d="M34.6771 6.5707
L34.4957 6.6311
" />
<path d="M34.4957 6.6311
L34.1933 6.6311
" />
<path d="M36.1890 6.6311
L35.7657 6.0264
" />
<path d="M35.4633 6.6311
L35.4633 5.3611
" />
<path d="M35.4633 5.3611
L35.9471 5.3611
" />
<path d="M35.9471 5.3611
L36.0681 5.4216
" />
<path d="M36.0681 5.4216
L36.1286 5.4821
" />
<path d="M36.1286 5.4821
L36.1890 5.6030
" />
<path d="M36.1890 5.6030
L36.1890 5.7845
" />
<path d="M36.1890 5.7845
L36.1286 5.9054
" />
<path d="M36.1286 5.9054
L36.0681 5.9659
" />
<path d="M36.0681 5.9659
L35.9471 6.0264
" />
<path d="M35.9471 6.0264
L35.4633 6.0264
" />
<path d="M37.3986 5.4216
L37.2776 5.3611
" />
<path d="M37.2776 5.3611
L37.0962 5.3611
" />
<path d="M37.0962 5.3611
L36.9148 5.4216
" />
<path d="M36.9148 5.4216
L36.7938 5.5426
" />
<path d="M36.7938 5.5426
L36.7333 5.6635
" />
<path d="M36.7333 5.6635
L36.6729 5.9054
" />
<path d="M36.6729 5.9054
L36.6729 6.0868
" />
<path d="M36.6729 6.0868
L36.7333 6.3287
" />
<path d="M36.7333 6.3287
L36.7938 6.4497
" />
<path d="M36.7938 6.4497
L36.9148 6.5707
" />
<path d="M36.9148 6.5707
L37.0962 6.6311
" />
<path d="M37.0962 6.6311
L37.2171 6.6311
" />
<path d="M37.2171 6.6311
L37.3986 6.5707
" />
<path d="M37.3986 6.5707
L37.4590 6.5102
" />
<path d="M37.4590 6.5102
L37.4590 6.0868
" />
<path d="M37.4590 6.0868
L37.2171 6.0868
" />
<path d="M38.5476 5.7845
L38.5476 6.6311
" />
<path d="M38.2452 5.3007
L37.9429 6.2078
" />
<path d="M37.9429 6.2078
L38.7290 6.2078
" />
</g></g>
<g style="fill:#840084; fill-opacity:0.0; 
stroke:#840084; stroke-width:0.1588; stroke-opacity:1; 
stroke-linecap:round; stroke-linejoin:round;">
<text x="27.0572" y="27.0069"
textLength="40.7412" font-size="1.6933" lengthAdjust="spacingAndGlyphs"
text-anchor="middle" opacity="0">Package_SO:SOIC-8_3.9x4.9mm_P1.27mm</text>
<g class="stroked-text"><desc>Package_SO:SOIC-8_3.9x4.9mm_P1.27mm</desc>
<path d="M7.1001 26.9511
L7.1001 25.6811
" />
<path d="M7.1001 25.6811
L7.5839 25.6811
" />
<path d="M7.5839 25.6811
L7.7049 25.7416
" />
<path d="M7.7049 25.7416
L7.7654 25.8021
" />
<path d="M7.7654 25.8021
L7.8258 25.9230
" />
<path d="M7.8258 25.9230
L7.8258 26.1045
" />
<path d="M7.8258 26.1045
L7.7654 26.2254
" />
<path d="M7.7654 26.2254
L7.7049 26.2859
" />
<path d="M7.7049 26.2859
L7.5839 26.3464
" />
<path d="M7.5839 26.3464
L7.1001 26.3464
" />
<path d="M8.9144 26.9511
L8.9144 26.2859
" />
<path d="M8.9144 26.2859
L8.8539 26.1649
" />
<path d="M8.8539 26.1649
L8.7330 26.1045
" />
<path d="M8.7330 26.1045
L8.4911 26.1045
" />
<path d="M8.4911 26.1045
L8.3701 26.1649
" />
<path d="M8.9144 26.8907
L8.7935 26.9511
" />
<path d="M8.7935 26.9511
L8.4911 26.9511
" />
<path d="M8.4911 26.9511
L8.3701 26.8907
" />
<path d="M8.3701 26.8907
L8.3097 26.7697
" />
<path d="M8.3097 26.7697
L8.3097 26.6487
" />
<path d="M8.3097 26.6487
L8.3701 26.5278
" />
<path d="M8.3701 26.5278
L8.4911 26.4673
" />
<path d="M8.4911 26.4673
L8.7935 26.4673
" />
<path d="M8.7935 26.4673
L8.9144 26.4068
" />
<path d="M10.0634 26.8907
L9.9425 26.9511
" />
<path d="M9.9425 26.9511
L9.7006 26.9511
" />
<path d="M9.7006 26.9511
L9.5796 26.8907
" />
<path d="M9.5796 26.8907
L9.5191 26.8302
" />
<path d="M9.5191 26.8302
L9.4587 26.7092
" />
<path d="M9.4587 26.7092
L9.4587 26.3464
" />
<path d="M9.4587 26.3464
L9.5191 26.2254
" />
<path d="M9.5191 26.2254
L9.5796 26.1649
" />
<path d="M9.5796 26.1649
L9.7006 26.1045
" />
<path d="M9.7006 26.1045
L9.9425 26.1045
" />
<path d="M9.9425 26.1045
L10.0634 26.1649
" />
<path d="M10.6077 26.9511
L10.6077 25.6811
" />
<path d="M10.7287 26.4673
L11.0915 26.9511
" />
<path d="M11.0915 26.1045
L10.6077 26.5883
" />
<path d="M12.1801 26.9511
L12.1801 26.2859
" />
<path d="M12.1801 26.2859
L12.1196 26.1649
" />
<path d="M12.1196 26.1649
L11.9987 26.1045
" />
<path d="M11.9987 26.1045
L11.7568 26.1045
" />
<path d="M11.7568 26.1045
L11.6358 26.1649
" />
<path d="M12.1801 26.8907
L12.0592 26.9511
" />
<path d="M12.0592 26.9511
L11.7568 26.9511
" />
<path d="M11.7568 26.9511
L11.6358 26.8907
" />
<path d="M11.6358 26.8907
L11.5754 26.7697
" />
<path d="M11.5754 26.7697
L11.5754 26.6487
" />
<path d="M11.5754 26.6487
L11.6358 26.5278
" />
<path d="M11.6358 26.5278
L11.7568 26.4673
" />
<path d="M11.7568 26.4673
L12.0592 26.4673
" />
<path d="M12.0592 26.4673
L12.1801 26.4068
" />
<path d="M13.3291 26.1045
L13.3291 27.1326
" />
<path d="M13.3291 27.1326
L13.2686 27.2535
" />
<path d="M13.2686 27.2535
L13.2082 27.3140
" />
<path d="M13.2082 27.3140
L13.0872 27.3745
" />
<path d="M13.0872 27.3745
L12.9058 27.3745
" />
<path d="M12.9058 27.3745
L12.7848 27.3140
" />
<path d="M13.3291 26.8907
L13.2082 26.9511
" />
<path d="M13.2082 26.9511
L12.9663 26.9511
" />
<path d="M12.9663 26.9511
L12.8453 26.8907
" />
<path d="M12.8453 26.8907
L12.7848 26.8302
" />
<path d="M12.7848 26.8302
L12.7244 26.7092
" />
<path d="M12.7244 26.7092
L12.7244 26.3464
" />
<path d="M12.7244 26.3464
L12.7848 26.2254
" />
<path d="M12.7848 26.2254
L12.8453 26.1649
" />
<path d="M12.8453 26.1649
L12.9663 26.1045
" />
<path d="M12.9663 26.1045
L13.2082 26.1045
" />
<path d="M13.2082 26.1045
L13.3291 26.1649
" />
<path d="M14.4176 26.8907
L14.2967 26.9511
" />
<path d="M14.2967 26.9511
L14.0548 26.9511
" />
<path d="M14.0548 26.9511
L13.9338 26.8907
" />
<path d="M13.9338 26.8907
L13.8734 26.7697
" />
<path d="M13.8734 26.7697
L13.8734 26.2859
" />
<path d="M13.8734 26.2859
L13.9338 26.1649
" />
<path d="M13.9338 26.1649
L14.0548 26.1045
" />
<path d="M14.0548 26.1045
L14.2967 26.1045
" />
<path d="M14.2967 26.1045
L14.4176 26.1649
" />
<path d="M14.4176 26.1649
L14.4781 26.2859
" />
<path d="M14.4781 26.2859
L14.4781 26.4068
" />
<path d="M14.4781 26.4068
L13.8734 26.5278
" />
<path d="M14.7201 27.0721
L15.6877 27.0721
" />
<path d="M15.9296 26.8907
L16.1110 26.9511
" />
<path d="M16.1110 26.9511
L16.4134 26.9511
" />
<path d="M16.4134 26.9511
L16.5343 26.8907
" />
<path d="M16.5343 26.8907
L16.5948 26.8302
" />
<path d="M16.5948 26.8302
L16.6553 26.7092
" />
<path d="M16.6553 26.7092
L16.6553 26.5883
" />
<path d="M16.6553 26.5883
L16.5948 26.4673
" />
<path d="M16.5948 26.4673
L16.5343 26.4068
" />
<path d="M16.5343 26.4068
L16.4134 26.3464
" />
<path d="M16.4134 26.3464
L16.1715 26.2859
" />
<path d="M16.1715 26.2859
L16.0505 26.2254
" />
<path d="M16.0505 26.2254
L15.9900 26.1649
" />
<path d="M15.9900 26.1649
L15.9296 26.0440
" />
<path d="M15.9296 26.0440
L15.9296 25.9230
" />
<path d="M15.9296 25.9230
L15.9900 25.8021
" />
<path d="M15.9900 25.8021
L16.0505 25.7416
" />
<path d="M16.0505 25.7416
L16.1715 25.6811
" />
<path d="M16.1715 25.6811
L16.4738 25.6811
" />
<path d="M16.4738 25.6811
L16.6553 25.7416
" />
<path d="M17.4414 25.6811
L17.6833 25.6811
" />
<path d="M17.6833 25.6811
L17.8043 25.7416
" />
<path d="M17.8043 25.7416
L17.9252 25.8626
" />
<path d="M17.9252 25.8626
L17.9857 26.1045
" />
<path d="M17.9857 26.1045
L17.9857 26.5278
" />
<path d="M17.9857 26.5278
L17.9252 26.7697
" />
<path d="M17.9252 26.7697
L17.8043 26.8907
" />
<path d="M17.8043 26.8907
L17.6833 26.9511
" />
<path d="M17.6833 26.9511
L17.4414 26.9511
" />
<path d="M17.4414 26.9511
L17.3205 26.8907
" />
<path d="M17.3205 26.8907
L17.1995 26.7697
" />
<path d="M17.1995 26.7697
L17.1391 26.5278
" />
<path d="M17.1391 26.5278
L17.1391 26.1045
" />
<path d="M17.1391 26.1045
L17.1995 25.8626
" />
<path d="M17.1995 25.8626
L17.3205 25.7416
" />
<path d="M17.3205 25.7416
L17.4414 25.6811
" />
<path d="M18.5300 26.8302
L18.5905 26.8907
" />
<path d="M18.5905 26.8907
L18.5300 26.9511
" />
<path d="M18.5300 26.9511
L18.4696 26.8907
" />
<path d="M18.4696 26.8907
L18.5300 26.8302
" />
<path d="M18.5300 26.8302
L18.5300 26.9511
" />
<path d="M18.5300 26.1649
L18.5905 26.2254
" />
<path d="M18.5905 26.2254
L18.5300 26.2859
" />
<path d="M18.5300 26.2859
L18.4696 26.2254
" />
<path d="M18.4696 26.2254
L18.5300 26.1649
" />
<path d="M18.5300 26.1649
L18.5300 26.2859
" />
<path d="M19.0744 26.8907
L19.2558 26.9511
" />
<path d="M19.2558 26.9511
L19.5582 26.9511
" />
<path d="M19.5582 26.9511
L19.6791 26.8907
" />
<path d="M19.6791 26.8907
L19.7396 26.8302
" />
<path d="M19.7396 26.8302
L19.8001 26.7092
" />
<path d="M19.8001 26.7092
L19.8001 26.5883
" />
<path d="M19.8001 26.5883
L19.7396 26.4673
" />
<path d="M19.7396 26.4673
L19.6791 26.4068
" />
<path d="M19.6791 26.4068
L19.5582 26.3464
" />
<path d="M19.5582 26.3464
L19.3163 26.2859
" />
<path d="M19.3163 26.2859
L19.1953 26.2254
" />
<path d="M19.1953 26.2254
L19.1348 26.1649
" />
<path d="M19.1348 26.1649
L19.0744 26.0440
" />
<path d="M19.0744 26.0440
L19.0744 25.9230
" />
<path d="M19.0744 25.9230
L19.1348 25.8021
" />
<path d="M19.1348 25.8021
L19.1953 25.7416
" />
<path d="M19.1953 25.7416
L19.3163 25.6811
" />
<path d="M19.3163 25.6811
L19.6186 25.6811
" />
<path d="M19.6186 25.6811
L19.8001 25.7416
" />
<path d="M20.5862 25.6811
L20.8281 25.6811
" />
<path d="M20.8281 25.6811
L20.9491 25.7416
" />
<path d="M20.9491 25.7416
L21.0700 25.8626
" />
<path d="M21.0700 25.8626
L21.1305 26.1045
" />
<path d="M21.1305 26.1045
L21.1305 26.5278
" />
<path d="M21.1305 26.5278
L21.0700 26.7697
" />
<path d="M21.0700 26.7697
L20.9491 26.8907
" />
<path d="M20.9491 26.8907
L20.8281 26.9511
" />
<path d="M20.8281 26.9511
L20.5862 26.9511
" />
<path d="M20.5862 26.9511
L20.4653 26.8907
" />
<path d="M20.4653 26.8907
L20.3443 26.7697
" />
<path d="M20.3443 26.7697
L20.2839 26.5278
" />
<path d="M20.2839 26.5278
L20.2839 26.1045
" />
<path d="M20.2839 26.1045
L20.3443 25.8626
" />
<path d="M20.3443 25.8626
L20.4653 25.7416
" />
<path d="M20.4653 25.7416
L20.5862 25.6811
" />
<path d="M21.6748 26.9511
L21.6748 25.6811
" />
<path d="M23.0053 26.8302
L22.9449 26.8907
" />
<path d="M22.9449 26.8907
L22.7634 26.9511
" />
<path d="M22.7634 26.9511
L22.6425 26.9511
" />
<path d="M22.6425 26.9511
L22.4611 26.8907
" />
<path d="M22.4611 26.8907
L22.3401 26.7697
" />
<path d="M22.3401 26.7697
L22.2796 26.6487
" />
<path d="M22.2796 26.6487
L22.2192 26.4068
" />
<path d="M22.2192 26.4068
L22.2192 26.2254
" />
<path d="M22.2192 26.2254
L22.2796 25.9835
" />
<path d="M22.2796 25.9835
L22.3401 25.8626
" />
<path d="M22.3401 25.8626
L22.4611 25.7416
" />
<path d="M22.4611 25.7416
L22.6425 25.6811
" />
<path d="M22.6425 25.6811
L22.7634 25.6811
" />
<path d="M22.7634 25.6811
L22.9449 25.7416
" />
<path d="M22.9449 25.7416
L23.0053 25.8021
" />
<path d="M23.5496 26.4673
L24.5173 26.4673
" />
<path d="M25.3035 26.2254
L25.1825 26.1649
" />
<path d="M25.1825 26.1649
L25.1220 26.1045
" />
<path d="M25.1220 26.1045
L25.0616 25.9835
" />
<path d="M25.0616 25.9835
L25.0616 25.9230
" />
<path d="M25.0616 25.9230
L25.1220 25.8021
" />
<path d="M25.1220 25.8021
L25.1825 25.7416
" />
<path d="M25.1825 25.7416
L25.3035 25.6811
" />
<path d="M25.3035 25.6811
L25.5454 25.6811
" />
<path d="M25.5454 25.6811
L25.6663 25.7416
" />
<path d="M25.6663 25.7416
L25.7268 25.8021
" />
<path d="M25.7268 25.8021
L25.7873 25.9230
" />
<path d="M25.7873 25.9230
L25.7873 25.9835
" />
<path d="M25.7873 25.9835
L25.7268 26.1045
" />
<path d="M25.7268 26.1045
L25.6663 26.1649
" />
<path d="M25.6663 26.1649
L25.5454 26.2254
" />
<path d="M25.5454 26.2254
L25.3035 26.2254
" />
<path d="M25.3035 26.2254
L25.1825 26.2859
" />
<path d="M25.1825 26.2859
L25.1220 26.3464
" />
<path d="M25.1220 26.3464
L25.0616 26.4673
" />
<path d="M25.0616 26.4673
L25.0616 26.7092
" />
<path d="M25.0616 26.7092
L25.1220 26.8302
" />
<path d="M25.1220 26.8302
L25.1825 26.8907
" />
<path d="M25.1825 26.8907
L25.3035 26.9511
" />
<path d="M25.3035 26.9511
L25.5454 26.9511
" />
<path d="M25.5454 26.9511
L25.6663 26.8907
" />
<path d="M25.6663 26.8907
L25.7268 26.8302
" />
<path d="M25.7268 26.8302
L25.7873 26.7092
" />
<path d="M25.7873 26.7092
L25.7873 26.4673
" />
<path d="M25.7873 26.4673
L25.7268 26.3464
" />
<path d="M25.7268 26.3464
L25.6663 26.2859
" />
<path d="M25.6663 26.2859
L25.5454 26.2254
" />
<path d="M26.0292 27.0721
L26.9968 27.0721
" />
<path d="M27.1782 25.6811
L27.9644 25.6811
" />
<path d="M27.9644 25.6811
L27.5410 26.1649
" />
<path d="M27.5410 26.1649
L27.7225 26.1649
" />
<path d="M27.7225 26.1649
L27.8434 26.2254
" />
<path d="M27.8434 26.2254
L27.9039 26.2859
" />
<path d="M27.9039 26.2859
L27.9644 26.4068
" />
<path d="M27.9644 26.4068
L27.9644 26.7092
" />
<path d="M27.9644 26.7092
L27.9039 26.8302
" />
<path d="M27.9039 26.8302
L27.8434 26.8907
" />
<path d="M27.8434 26.8907
L27.7225 26.9511
" />
<path d="M27.7225 26.9511
L27.3596 26.9511
" />
<path d="M27.3596 26.9511
L27.2387 26.8907
" />
<path d="M27.2387 26.8907
L27.1782 26.8302
" />
<path d="M28.5086 26.8302
L28.5691 26.8907
" />
<path d="M28.5691 26.8907
L28.5086 26.9511
" />
<path d="M28.5086 26.9511
L28.4482 26.8907
" />
<path d="M28.4482 26.8907
L28.5086 26.8302
" />
<path d="M28.5086 26.8302
L28.5086 26.9511
" />
<path d="M29.1739 26.9511
L29.4158 26.9511
" />
<path d="M29.4158 26.9511
L29.5368 26.8907
" />
<path d="M29.5368 26.8907
L29.5972 26.8302
" />
<path d="M29.5972 26.8302
L29.7182 26.6487
" />
<path d="M29.7182 26.6487
L29.7787 26.4068
" />
<path d="M29.7787 26.4068
L29.7787 25.9230
" />
<path d="M29.7787 25.9230
L29.7182 25.8021
" />
<path d="M29.7182 25.8021
L29.6577 25.7416
" />
<path d="M29.6577 25.7416
L29.5368 25.6811
" />
<path d="M29.5368 25.6811
L29.2949 25.6811
" />
<path d="M29.2949 25.6811
L29.1739 25.7416
" />
<path d="M29.1739 25.7416
L29.1134 25.8021
" />
<path d="M29.1134 25.8021
L29.0530 25.9230
" />
<path d="M29.0530 25.9230
L29.0530 26.2254
" />
<path d="M29.0530 26.2254
L29.1134 26.3464
" />
<path d="M29.1134 26.3464
L29.1739 26.4068
" />
<path d="M29.1739 26.4068
L29.2949 26.4673
" />
<path d="M29.2949 26.4673
L29.5368 26.4673
" />
<path d="M29.5368 26.4673
L29.6577 26.4068
" />
<path d="M29.6577 26.4068
L29.7182 26.3464
" />
<path d="M29.7182 26.3464
L29.7787 26.2254
" />
<path d="M30.2020 26.9511
L30.8672 26.1045
" />
<path d="M30.2020 26.1045
L30.8672 26.9511
" />
<path d="M31.8953 26.1045
L31.8953 26.9511
" />
<path d="M31.5929 25.6207
L31.2906 26.5278
" />
<path d="M31.2906 26.5278
L32.0767 26.5278
" />
<path d="M32.5605 26.8302
L32.6210 26.8907
" />
<path d="M32.6210 26.8907
L32.5605 26.9511
" />
<path d="M32.5605 26.9511
L32.5001 26.8907
" />
<path d="M32.5001 26.8907
L32.5605 26.8302
" />
<path d="M32.5605 26.8302
L32.5605 26.9511
" />
<path d="M33.2258 26.9511
L33.4677 26.9511
" />
<path d="M33.4677 26.9511
L33.5887 26.8907
" />
<path d="M33.5887 26.8907
L33.6491 26.8302
" />
<path d="M33.6491 26.8302
L33.7701 26.6487
" />
<path d="M33.7701 26.6487
L33.8306 26.4068
" />
<path d="M33.8306 26.4068
L33.8306 25.9230
" />
<path d="M33.8306 25.9230
L33.7701 25.8021
" />
<path d="M33.7701 25.8021
L33.7096 25.7416
" />
<path d="M33.7096 25.7416
L33.5887 25.6811
" />
<path d="M33.5887 25.6811
L33.3468 25.6811
" />
<path d="M33.3468 25.6811
L33.2258 25.7416
" />
<path d="M33.2258 25.7416
L33.1653 25.8021
" />
<path d="M33.1653 25.8021
L33.1049 25.9230
" />
<path d="M33.1049 25.9230
L33.1049 26.2254
" />
<path d="M33.1049 26.2254
L33.1653 26.3464
" />
<path d="M33.1653 26.3464
L33.2258 26.4068
" />
<path d="M33.2258 26.4068
L33.3468 26.4673
" />
<path d="M33.3468 26.4673
L33.5887 26.4673
" />
<path d="M33.5887 26.4673
L33.7096 26.4068
" />
<path d="M33.7096 26.4068
L33.7701 26.3464
" />
<path d="M33.7701 26.3464
L33.8306 26.2254
" />
<path d="M34.3748 26.9511
L34.3748 26.1045
" />
<path d="M34.3748 26.2254
L34.4353 26.1649
" />
<path d="M34.4353 26.1649
L34.5563 26.1045
" />
<path d="M34.5563 26.1045
L34.7377 26.1045
" />
<path d="M34.7377 26.1045
L34.8586 26.1649
" />
<path d="M34.8586 26.1649
L34.9191 26.2859
" />
<path d="M34.9191 26.2859
L34.9191 26.9511
" />
<path d="M34.9191 26.2859
L34.9796 26.1649
" />
<path d="M34.9796 26.1649
L35.1005 26.1045
" />
<path d="M35.1005 26.1045
L35.2820 26.1045
" />
<path d="M35.2820 26.1045
L35.4029 26.1649
" />
<path d="M35.4029 26.1649
L35.4634 26.2859
" />
<path d="M35.4634 26.2859
L35.4634 26.9511
" />
<path d="M36.0681 26.9511
L36.0681 26.1045
" />
<path d="M36.0681 26.2254
L36.1286 26.1649
" />
<path d="M36.1286 26.1649
L36.2496 26.1045
" />
<path d="M36.2496 26.1045
L36.4310 26.1045
" />
<path d="M36.4310 26.1045
L36.5519 26.1649
" />
<path d="M36.5519 26.1649
L36.6124 26.2859
" />
<path d="M36.6124 26.2859
L36.6124 26.9511
" />
<path d="M36.6124 26.2859
L36.6729 26.1649
" />
<path d="M36.6729 26.1649
L36.7938 26.1045
" />
<path d="M36.7938 26.1045
L36.9753 26.1045
" />
<path d="M36.9753 26.1045
L37.0962 26.1649
" />
<path d="M37.0962 26.1649
L37.1567 26.2859
" />
<path d="M37.1567 26.2859
L37.1567 26.9511
" />
<path d="M37.4591 27.0721
L38.4267 27.0721
" />
<path d="M38.7290 26.9511
L38.7290 25.6811
" />
<path d="M38.7290 25.6811
L39.2128 25.6811
" />
<path d="M39.2128 25.6811
L39.3338 25.7416
" />
<path d="M39.3338 25.7416
L39.3943 25.8021
" />
<path d="M39.3943 25.8021
L39.4547 25.9230
" />
<path d="M39.4547 25.9230
L39.4547 26.1045
" />
<path d="M39.4547 26.1045
L39.3943 26.2254
" />
<path d="M39.3943 26.2254
L39.3338 26.2859
" />
<path d="M39.3338 26.2859
L39.2128 26.3464
" />
<path d="M39.2128 26.3464
L38.7290 26.3464
" />
<path d="M40.6643 26.9511
L39.9386 26.9511
" />
<path d="M40.3014 26.9511
L40.3014 25.6811
" />
<path d="M40.3014 25.6811
L40.1805 25.8626
" />
<path d="M40.1805 25.8626
L40.0595 25.9835
" />
<path d="M40.0595 25.9835
L39.9386 26.0440
" />
<path d="M41.2085 26.8302
L41.2690 26.8907
" />
<path d="M41.2690 26.8907
L41.2085 26.9511
" />
<path d="M41.2085 26.9511
L41.1481 26.8907
" />
<path d="M41.1481 26.8907
L41.2085 26.8302
" />
<path d="M41.2085 26.8302
L41.2085 26.9511
" />
<path d="M41.7529 25.8021
L41.8133 25.7416
" />
<path d="M41.8133 25.7416
L41.9343 25.6811
" />
<path d="M41.9343 25.6811
L42.2367 25.6811
" />
<path d="M42.2367 25.6811
L42.3576 25.7416
" />
<path d="M42.3576 25.7416
L42.4181 25.8021
" />
<path d="M42.4181 25.8021
L42.4786 25.9230
" />
<path d="M42.4786 25.9230
L42.4786 26.0440
" />
<path d="M42.4786 26.0440
L42.4181 26.2254
" />
<path d="M42.4181 26.2254
L41.6924 26.9511
" />
<path d="M41.6924 26.9511
L42.4786 26.9511
" />
<path d="M42.9019 25.6811
L43.7485 25.6811
" />
<path d="M43.7485 25.6811
L43.2043 26.9511
" />
<path d="M44.2323 26.9511
L44.2323 26.1045
" />
<path d="M44.2323 26.2254
L44.2928 26.1649
" />
<path d="M44.2928 26.1649
L44.4138 26.1045
" />
<path d="M44.4138 26.1045
L44.5952 26.1045
" />
<path d="M44.5952 26.1045
L44.7161 26.1649
" />
<path d="M44.7161 26.1649
L44.7766 26.2859
" />
<path d="M44.7766 26.2859
L44.7766 26.9511
" />
<path d="M44.7766 26.2859
L44.8371 26.1649
" />
<path d="M44.8371 26.1649
L44.9580 26.1045
" />
<path d="M44.9580 26.1045
L45.1395 26.1045
" />
<path d="M45.1395 26.1045
L45.2604 26.1649
" />
<path d="M45.2604 26.1649
L45.3209 26.2859
" />
<path d="M45.3209 26.2859
L45.3209 26.9511
" />
<path d="M45.9256 26.9511
L45.9256 26.1045
" />
<path d="M45.9256 26.2254
L45.9861 26.1649
" />
<path d="M45.9861 26.1649
L46.1071 26.1045
" />
<path d="M46.1071 26.1045
L46.2885 26.1045
" />
<path d="M46.2885 26.1045
L46.4094 26.1649
" />
<path d="M46.4094 26.1649
L46.4699 26.2859
" />
<path d="M46.4699 26.2859
L46.4699 26.9511
" />
<path d="M46.4699 26.2859
L46.5304 26.1649
" />
<path d="M46.5304 26.1649
L46.6513 26.1045
" />
<path d="M46.6513 26.1045
L46.8328 26.1045
" />
<path d="M46.8328 26.1045
L46.9537 26.1649
" />
<path d="M46.9537 26.1649
L47.0142 26.2859
" />
<path d="M47.0142 26.2859
L47.0142 26.9511
" />
</g><text x="27.0572" y="14.3069"
textLength="45.0955" font-size="1.6933" lengthAdjust="spacingAndGlyphs"
text-anchor="middle" opacity="0">http://www.ti.com/lit/ds/symlink/ua9638.pdf</text>
<g class="stroked-text"><desc>http://www.ti.com/lit/ds/symlink/ua9638.pdf</desc>
<path d="M4.9230 14.2511
L4.9230 12.9811
" />
<path d="M5.4673 14.2511
L5.4673 13.5859
" />
<path d="M5.4673 13.5859
L5.4068 13.4649
" />
<path d="M5.4068 13.4649
L5.2859 13.4045
" />
<path d="M5.2859 13.4045
L5.1045 13.4045
" />
<path d="M5.1045 13.4045
L4.9835 13.4649
" />
<path d="M4.9835 13.4649
L4.9230 13.5254
" />
<path d="M5.8906 13.4045
L6.3744 13.4045
" />
<path d="M6.0720 12.9811
L6.0720 14.0697
" />
<path d="M6.0720 14.0697
L6.1325 14.1907
" />
<path d="M6.1325 14.1907
L6.2535 14.2511
" />
<path d="M6.2535 14.2511
L6.3744 14.2511
" />
<path d="M6.6163 13.4045
L7.1001 13.4045
" />
<path d="M6.7977 12.9811
L6.7977 14.0697
" />
<path d="M6.7977 14.0697
L6.8582 14.1907
" />
<path d="M6.8582 14.1907
L6.9792 14.2511
" />
<path d="M6.9792 14.2511
L7.1001 14.2511
" />
<path d="M7.5234 13.4045
L7.5234 14.6745
" />
<path d="M7.5234 13.4649
L7.6444 13.4045
" />
<path d="M7.6444 13.4045
L7.8863 13.4045
" />
<path d="M7.8863 13.4045
L8.0072 13.4649
" />
<path d="M8.0072 13.4649
L8.0677 13.5254
" />
<path d="M8.0677 13.5254
L8.1282 13.6464
" />
<path d="M8.1282 13.6464
L8.1282 14.0092
" />
<path d="M8.1282 14.0092
L8.0677 14.1302
" />
<path d="M8.0677 14.1302
L8.0072 14.1907
" />
<path d="M8.0072 14.1907
L7.8863 14.2511
" />
<path d="M7.8863 14.2511
L7.6444 14.2511
" />
<path d="M7.6444 14.2511
L7.5234 14.1907
" />
<path d="M8.6724 14.1302
L8.7329 14.1907
" />
<path d="M8.7329 14.1907
L8.6724 14.2511
" />
<path d="M8.6724 14.2511
L8.6120 14.1907
" />
<path d="M8.6120 14.1907
L8.6724 14.1302
" />
<path d="M8.6724 14.1302
L8.6724 14.2511
" />
<path d="M8.6724 13.4649
L8.7329 13.5254
" />
<path d="M8.7329 13.5254
L8.6724 13.5859
" />
<path d="M8.6724 13.5859
L8.6120 13.5254
" />
<path d="M8.6120 13.5254
L8.6724 13.4649
" />
<path d="M8.6724 13.4649
L8.6724 13.5859
" />
<path d="M10.1844 12.9207
L9.0958 14.5535
" />
<path d="M11.5149 12.9207
L10.4263 14.5535
" />
<path d="M11.8173 13.4045
L12.0592 14.2511
" />
<path d="M12.0592 14.2511
L12.3011 13.6464
" />
<path d="M12.3011 13.6464
L12.5430 14.2511
" />
<path d="M12.5430 14.2511
L12.7849 13.4045
" />
<path d="M13.1478 13.4045
L13.3897 14.2511
" />
<path d="M13.3897 14.2511
L13.6316 13.6464
" />
<path d="M13.6316 13.6464
L13.8735 14.2511
" />
<path d="M13.8735 14.2511
L14.1154 13.4045
" />
<path d="M14.4783 13.4045
L14.7202 14.2511
" />
<path d="M14.7202 14.2511
L14.9621 13.6464
" />
<path d="M14.9621 13.6464
L15.2040 14.2511
" />
<path d="M15.2040 14.2511
L15.4459 13.4045
" />
<path d="M15.9297 14.1302
L15.9902 14.1907
" />
<path d="M15.9902 14.1907
L15.9297 14.2511
" />
<path d="M15.9297 14.2511
L15.8693 14.1907
" />
<path d="M15.8693 14.1907
L15.9297 14.1302
" />
<path d="M15.9297 14.1302
L15.9297 14.2511
" />
<path d="M16.3531 13.4045
L16.8369 13.4045
" />
<path d="M16.5345 12.9811
L16.5345 14.0697
" />
<path d="M16.5345 14.0697
L16.5950 14.1907
" />
<path d="M16.5950 14.1907
L16.7160 14.2511
" />
<path d="M16.7160 14.2511
L16.8369 14.2511
" />
<path d="M17.2602 14.2511
L17.2602 13.4045
" />
<path d="M17.2602 12.9811
L17.1998 13.0416
" />
<path d="M17.1998 13.0416
L17.2602 13.1021
" />
<path d="M17.2602 13.1021
L17.3207 13.0416
" />
<path d="M17.3207 13.0416
L17.2602 12.9811
" />
<path d="M17.2602 12.9811
L17.2602 13.1021
" />
<path d="M17.8650 14.1302
L17.9255 14.1907
" />
<path d="M17.9255 14.1907
L17.8650 14.2511
" />
<path d="M17.8650 14.2511
L17.8046 14.1907
" />
<path d="M17.8046 14.1907
L17.8650 14.1302
" />
<path d="M17.8650 14.1302
L17.8650 14.2511
" />
<path d="M19.0141 14.1907
L18.8932 14.2511
" />
<path d="M18.8932 14.2511
L18.6513 14.2511
" />
<path d="M18.6513 14.2511
L18.5303 14.1907
" />
<path d="M18.5303 14.1907
L18.4698 14.1302
" />
<path d="M18.4698 14.1302
L18.4094 14.0092
" />
<path d="M18.4094 14.0092
L18.4094 13.6464
" />
<path d="M18.4094 13.6464
L18.4698 13.5254
" />
<path d="M18.4698 13.5254
L18.5303 13.4649
" />
<path d="M18.5303 13.4649
L18.6513 13.4045
" />
<path d="M18.6513 13.4045
L18.8932 13.4045
" />
<path d="M18.8932 13.4045
L19.0141 13.4649
" />
<path d="M19.7399 14.2511
L19.6189 14.1907
" />
<path d="M19.6189 14.1907
L19.5584 14.1302
" />
<path d="M19.5584 14.1302
L19.4980 14.0092
" />
<path d="M19.4980 14.0092
L19.4980 13.6464
" />
<path d="M19.4980 13.6464
L19.5584 13.5254
" />
<path d="M19.5584 13.5254
L19.6189 13.4649
" />
<path d="M19.6189 13.4649
L19.7399 13.4045
" />
<path d="M19.7399 13.4045
L19.9213 13.4045
" />
<path d="M19.9213 13.4045
L20.0422 13.4649
" />
<path d="M20.0422 13.4649
L20.1027 13.5254
" />
<path d="M20.1027 13.5254
L20.1632 13.6464
" />
<path d="M20.1632 13.6464
L20.1632 14.0092
" />
<path d="M20.1632 14.0092
L20.1027 14.1302
" />
<path d="M20.1027 14.1302
L20.0422 14.1907
" />
<path d="M20.0422 14.1907
L19.9213 14.2511
" />
<path d="M19.9213 14.2511
L19.7399 14.2511
" />
<path d="M20.7074 14.2511
L20.7074 13.4045
" />
<path d="M20.7074 13.5254
L20.7679 13.4649
" />
<path d="M20.7679 13.4649
L20.8889 13.4045
" />
<path d="M20.8889 13.4045
L21.0703 13.4045
" />
<path d="M21.0703 13.4045
L21.1912 13.4649
" />
<path d="M21.1912 13.4649
L21.2517 13.5859
" />
<path d="M21.2517 13.5859
L21.2517 14.2511
" />
<path d="M21.2517 13.5859
L21.3122 13.4649
" />
<path d="M21.3122 13.4649
L21.4331 13.4045
" />
<path d="M21.4331 13.4045
L21.6146 13.4045
" />
<path d="M21.6146 13.4045
L21.7355 13.4649
" />
<path d="M21.7355 13.4649
L21.7960 13.5859
" />
<path d="M21.7960 13.5859
L21.7960 14.2511
" />
<path d="M23.3079 12.9207
L22.2193 14.5535
" />
<path d="M23.9127 14.2511
L23.7917 14.1907
" />
<path d="M23.7917 14.1907
L23.7312 14.0697
" />
<path d="M23.7312 14.0697
L23.7312 12.9811
" />
<path d="M24.3964 14.2511
L24.3964 13.4045
" />
<path d="M24.3964 12.9811
L24.3360 13.0416
" />
<path d="M24.3360 13.0416
L24.3964 13.1021
" />
<path d="M24.3964 13.1021
L24.4569 13.0416
" />
<path d="M24.4569 13.0416
L24.3964 12.9811
" />
<path d="M24.3964 12.9811
L24.3964 13.1021
" />
<path d="M24.8198 13.4045
L25.3036 13.4045
" />
<path d="M25.0012 12.9811
L25.0012 14.0697
" />
<path d="M25.0012 14.0697
L25.0617 14.1907
" />
<path d="M25.0617 14.1907
L25.1827 14.2511
" />
<path d="M25.1827 14.2511
L25.3036 14.2511
" />
<path d="M26.6341 12.9207
L25.5455 14.5535
" />
<path d="M27.6017 14.2511
L27.6017 12.9811
" />
<path d="M27.6017 14.1907
L27.4808 14.2511
" />
<path d="M27.4808 14.2511
L27.2389 14.2511
" />
<path d="M27.2389 14.2511
L27.1179 14.1907
" />
<path d="M27.1179 14.1907
L27.0574 14.1302
" />
<path d="M27.0574 14.1302
L26.9970 14.0092
" />
<path d="M26.9970 14.0092
L26.9970 13.6464
" />
<path d="M26.9970 13.6464
L27.0574 13.5254
" />
<path d="M27.0574 13.5254
L27.1179 13.4649
" />
<path d="M27.1179 13.4649
L27.2389 13.4045
" />
<path d="M27.2389 13.4045
L27.4808 13.4045
" />
<path d="M27.4808 13.4045
L27.6017 13.4649
" />
<path d="M28.1460 14.1907
L28.2669 14.2511
" />
<path d="M28.2669 14.2511
L28.5088 14.2511
" />
<path d="M28.5088 14.2511
L28.6298 14.1907
" />
<path d="M28.6298 14.1907
L28.6902 14.0697
" />
<path d="M28.6902 14.0697
L28.6902 14.0092
" />
<path d="M28.6902 14.0092
L28.6298 13.8883
" />
<path d="M28.6298 13.8883
L28.5088 13.8278
" />
<path d="M28.5088 13.8278
L28.3274 13.8278
" />
<path d="M28.3274 13.8278
L28.2064 13.7673
" />
<path d="M28.2064 13.7673
L28.1460 13.6464
" />
<path d="M28.1460 13.6464
L28.1460 13.5859
" />
<path d="M28.1460 13.5859
L28.2064 13.4649
" />
<path d="M28.2064 13.4649
L28.3274 13.4045
" />
<path d="M28.3274 13.4045
L28.5088 13.4045
" />
<path d="M28.5088 13.4045
L28.6298 13.4649
" />
<path d="M30.1417 12.9207
L29.0531 14.5535
" />
<path d="M30.5046 14.1907
L30.6255 14.2511
" />
<path d="M30.6255 14.2511
L30.8674 14.2511
" />
<path d="M30.8674 14.2511
L30.9884 14.1907
" />
<path d="M30.9884 14.1907
L31.0488 14.0697
" />
<path d="M31.0488 14.0697
L31.0488 14.0092
" />
<path d="M31.0488 14.0092
L30.9884 13.8883
" />
<path d="M30.9884 13.8883
L30.8674 13.8278
" />
<path d="M30.8674 13.8278
L30.6860 13.8278
" />
<path d="M30.6860 13.8278
L30.5650 13.7673
" />
<path d="M30.5650 13.7673
L30.5046 13.6464
" />
<path d="M30.5046 13.6464
L30.5046 13.5859
" />
<path d="M30.5046 13.5859
L30.5650 13.4649
" />
<path d="M30.5650 13.4649
L30.6860 13.4045
" />
<path d="M30.6860 13.4045
L30.8674 13.4045
" />
<path d="M30.8674 13.4045
L30.9884 13.4649
" />
<path d="M31.4722 13.4045
L31.7746 14.2511
" />
<path d="M32.0769 13.4045
L31.7746 14.2511
" />
<path d="M31.7746 14.2511
L31.6536 14.5535
" />
<path d="M31.6536 14.5535
L31.5931 14.6140
" />
<path d="M31.5931 14.6140
L31.4722 14.6745
" />
<path d="M32.5607 14.2511
L32.5607 13.4045
" />
<path d="M32.5607 13.5254
L32.6212 13.4649
" />
<path d="M32.6212 13.4649
L32.7422 13.4045
" />
<path d="M32.7422 13.4045
L32.9236 13.4045
" />
<path d="M32.9236 13.4045
L33.0445 13.4649
" />
<path d="M33.0445 13.4649
L33.1050 13.5859
" />
<path d="M33.1050 13.5859
L33.1050 14.2511
" />
<path d="M33.1050 13.5859
L33.1655 13.4649
" />
<path d="M33.1655 13.4649
L33.2864 13.4045
" />
<path d="M33.2864 13.4045
L33.4679 13.4045
" />
<path d="M33.4679 13.4045
L33.5888 13.4649
" />
<path d="M33.5888 13.4649
L33.6493 13.5859
" />
<path d="M33.6493 13.5859
L33.6493 14.2511
" />
<path d="M34.4355 14.2511
L34.3145 14.1907
" />
<path d="M34.3145 14.1907
L34.2540 14.0697
" />
<path d="M34.2540 14.0697
L34.2540 12.9811
" />
<path d="M34.9192 14.2511
L34.9192 13.4045
" />
<path d="M34.9192 12.9811
L34.8588 13.0416
" />
<path d="M34.8588 13.0416
L34.9192 13.1021
" />
<path d="M34.9192 13.1021
L34.9797 13.0416
" />
<path d="M34.9797 13.0416
L34.9192 12.9811
" />
<path d="M34.9192 12.9811
L34.9192 13.1021
" />
<path d="M35.5240 13.4045
L35.5240 14.2511
" />
<path d="M35.5240 13.5254
L35.5845 13.4649
" />
<path d="M35.5845 13.4649
L35.7055 13.4045
" />
<path d="M35.7055 13.4045
L35.8869 13.4045
" />
<path d="M35.8869 13.4045
L36.0078 13.4649
" />
<path d="M36.0078 13.4649
L36.0683 13.5859
" />
<path d="M36.0683 13.5859
L36.0683 14.2511
" />
<path d="M36.6730 14.2511
L36.6730 12.9811
" />
<path d="M36.7940 13.7673
L37.1568 14.2511
" />
<path d="M37.1568 13.4045
L36.6730 13.8883
" />
<path d="M38.6083 12.9207
L37.5197 14.5535
" />
<path d="M39.5759 13.4045
L39.5759 14.2511
" />
<path d="M39.0316 13.4045
L39.0316 14.0697
" />
<path d="M39.0316 14.0697
L39.0921 14.1907
" />
<path d="M39.0921 14.1907
L39.2131 14.2511
" />
<path d="M39.2131 14.2511
L39.3945 14.2511
" />
<path d="M39.3945 14.2511
L39.5154 14.1907
" />
<path d="M39.5154 14.1907
L39.5759 14.1302
" />
<path d="M40.7249 14.2511
L40.7249 13.5859
" />
<path d="M40.7249 13.5859
L40.6644 13.4649
" />
<path d="M40.6644 13.4649
L40.5435 13.4045
" />
<path d="M40.5435 13.4045
L40.3016 13.4045
" />
<path d="M40.3016 13.4045
L40.1806 13.4649
" />
<path d="M40.7249 14.1907
L40.6040 14.2511
" />
<path d="M40.6040 14.2511
L40.3016 14.2511
" />
<path d="M40.3016 14.2511
L40.1806 14.1907
" />
<path d="M40.1806 14.1907
L40.1202 14.0697
" />
<path d="M40.1202 14.0697
L40.1202 13.9487
" />
<path d="M40.1202 13.9487
L40.1806 13.8278
" />
<path d="M40.1806 13.8278
L40.3016 13.7673
" />
<path d="M40.3016 13.7673
L40.6040 13.7673
" />
<path d="M40.6040 13.7673
L40.7249 13.7068
" />
<path d="M41.3901 14.2511
L41.6320 14.2511
" />
<path d="M41.6320 14.2511
L41.7530 14.1907
" />
<path d="M41.7530 14.1907
L41.8134 14.1302
" />
<path d="M41.8134 14.1302
L41.9344 13.9487
" />
<path d="M41.9344 13.9487
L41.9949 13.7068
" />
<path d="M41.9949 13.7068
L41.9949 13.2230
" />
<path d="M41.9949 13.2230
L41.9344 13.1021
" />
<path d="M41.9344 13.1021
L41.8739 13.0416
" />
<path d="M41.8739 13.0416
L41.7530 12.9811
" />
<path d="M41.7530 12.9811
L41.5111 12.9811
" />
<path d="M41.5111 12.9811
L41.3901 13.0416
" />
<path d="M41.3901 13.0416
L41.3296 13.1021
" />
<path d="M41.3296 13.1021
L41.2692 13.2230
" />
<path d="M41.2692 13.2230
L41.2692 13.5254
" />
<path d="M41.2692 13.5254
L41.3296 13.6464
" />
<path d="M41.3296 13.6464
L41.3901 13.7068
" />
<path d="M41.3901 13.7068
L41.5111 13.7673
" />
<path d="M41.5111 13.7673
L41.7530 13.7673
" />
<path d="M41.7530 13.7673
L41.8739 13.7068
" />
<path d="M41.8739 13.7068
L41.9344 13.6464
" />
<path d="M41.9344 13.6464
L41.9949 13.5254
" />
<path d="M43.0834 12.9811
L42.8415 12.9811
" />
<path d="M42.8415 12.9811
L42.7206 13.0416
" />
<path d="M42.7206 13.0416
L42.6601 13.1021
" />
<path d="M42.6601 13.1021
L42.5391 13.2835
" />
<path d="M42.5391 13.2835
L42.4787 13.5254
" />
<path d="M42.4787 13.5254
L42.4787 14.0092
" />
<path d="M42.4787 14.0092
L42.5391 14.1302
" />
<path d="M42.5391 14.1302
L42.5996 14.1907
" />
<path d="M42.5996 14.1907
L42.7206 14.2511
" />
<path d="M42.7206 14.2511
L42.9625 14.2511
" />
<path d="M42.9625 14.2511
L43.0834 14.1907
" />
<path d="M43.0834 14.1907
L43.1439 14.1302
" />
<path d="M43.1439 14.1302
L43.2044 14.0092
" />
<path d="M43.2044 14.0092
L43.2044 13.7068
" />
<path d="M43.2044 13.7068
L43.1439 13.5859
" />
<path d="M43.1439 13.5859
L43.0834 13.5254
" />
<path d="M43.0834 13.5254
L42.9625 13.4649
" />
<path d="M42.9625 13.4649
L42.7206 13.4649
" />
<path d="M42.7206 13.4649
L42.5996 13.5254
" />
<path d="M42.5996 13.5254
L42.5391 13.5859
" />
<path d="M42.5391 13.5859
L42.4787 13.7068
" />
<path d="M43.6277 12.9811
L44.4139 12.9811
" />
<path d="M44.4139 12.9811
L43.9905 13.4649
" />
<path d="M43.9905 13.4649
L44.1720 13.4649
" />
<path d="M44.1720 13.4649
L44.2929 13.5254
" />
<path d="M44.2929 13.5254
L44.3534 13.5859
" />
<path d="M44.3534 13.5859
L44.4139 13.7068
" />
<path d="M44.4139 13.7068
L44.4139 14.0092
" />
<path d="M44.4139 14.0092
L44.3534 14.1302
" />
<path d="M44.3534 14.1302
L44.2929 14.1907
" />
<path d="M44.2929 14.1907
L44.1720 14.2511
" />
<path d="M44.1720 14.2511
L43.8091 14.2511
" />
<path d="M43.8091 14.2511
L43.6882 14.1907
" />
<path d="M43.6882 14.1907
L43.6277 14.1302
" />
<path d="M45.1396 13.5254
L45.0186 13.4649
" />
<path d="M45.0186 13.4649
L44.9581 13.4045
" />
<path d="M44.9581 13.4045
L44.8977 13.2835
" />
<path d="M44.8977 13.2835
L44.8977 13.2230
" />
<path d="M44.8977 13.2230
L44.9581 13.1021
" />
<path d="M44.9581 13.1021
L45.0186 13.0416
" />
<path d="M45.0186 13.0416
L45.1396 12.9811
" />
<path d="M45.1396 12.9811
L45.3815 12.9811
" />
<path d="M45.3815 12.9811
L45.5024 13.0416
" />
<path d="M45.5024 13.0416
L45.5629 13.1021
" />
<path d="M45.5629 13.1021
L45.6234 13.2230
" />
<path d="M45.6234 13.2230
L45.6234 13.2835
" />
<path d="M45.6234 13.2835
L45.5629 13.4045
" />
<path d="M45.5629 13.4045
L45.5024 13.4649
" />
<path d="M45.5024 13.4649
L45.3815 13.5254
" />
<path d="M45.3815 13.5254
L45.1396 13.5254
" />
<path d="M45.1396 13.5254
L45.0186 13.5859
" />
<path d="M45.0186 13.5859
L44.9581 13.6464
" />
<path d="M44.9581 13.6464
L44.8977 13.7673
" />
<path d="M44.8977 13.7673
L44.8977 14.0092
" />
<path d="M44.8977 14.0092
L44.9581 14.1302
" />
<path d="M44.9581 14.1302
L45.0186 14.1907
" />
<path d="M45.0186 14.1907
L45.1396 14.2511
" />
<path d="M45.1396 14.2511
L45.3815 14.2511
" />
<path d="M45.3815 14.2511
L45.5024 14.1907
" />
<path d="M45.5024 14.1907
L45.5629 14.1302
" />
<path d="M45.5629 14.1302
L45.6234 14.0092
" />
<path d="M45.6234 14.0092
L45.6234 13.7673
" />
<path d="M45.6234 13.7673
L45.5629 13.6464
" />
<path d="M45.5629 13.6464
L45.5024 13.5859
" />
<path d="M45.5024 13.5859
L45.3815 13.5254
" />
<path d="M46.1676 14.1302
L46.2281 14.1907
" />
<path d="M46.2281 14.1907
L46.1676 14.2511
" />
<path d="M46.1676 14.2511
L46.1072 14.1907
" />
<path d="M46.1072 14.1907
L46.1676 14.1302
" />
<path d="M46.1676 14.1302
L46.1676 14.2511
" />
<path d="M46.7724 13.4045
L46.7724 14.6745
" />
<path d="M46.7724 13.4649
L46.8934 13.4045
" />
<path d="M46.8934 13.4045
L47.1353 13.4045
" />
<path d="M47.1353 13.4045
L47.2562 13.4649
" />
<path d="M47.2562 13.4649
L47.3167 13.5254
" />
<path d="M47.3167 13.5254
L47.3772 13.6464
" />
<path d="M47.3772 13.6464
L47.3772 14.0092
" />
<path d="M47.3772 14.0092
L47.3167 14.1302
" />
<path d="M47.3167 14.1302
L47.2562 14.1907
" />
<path d="M47.2562 14.1907
L47.1353 14.2511
" />
<path d="M47.1353 14.2511
L46.8934 14.2511
" />
<path d="M46.8934 14.2511
L46.7724 14.1907
" />
<path d="M48.4657 14.2511
L48.4657 12.9811
" />
<path d="M48.4657 14.1907
L48.3448 14.2511
" />
<path d="M48.3448 14.2511
L48.1029 14.2511
" />
<path d="M48.1029 14.2511
L47.9819 14.1907
" />
<path d="M47.9819 14.1907
L47.9214 14.1302
" />
<path d="M47.9214 14.1302
L47.8610 14.0092
" />
<path d="M47.8610 14.0092
L47.8610 13.6464
" />
<path d="M47.8610 13.6464
L47.9214 13.5254
" />
<path d="M47.9214 13.5254
L47.9819 13.4649
" />
<path d="M47.9819 13.4649
L48.1029 13.4045
" />
<path d="M48.1029 13.4045
L48.3448 13.4045
" />
<path d="M48.3448 13.4045
L48.4657 13.4649
" />
<path d="M48.8890 13.4045
L49.3728 13.4045
" />
<path d="M49.0704 14.2511
L49.0704 13.1626
" />
<path d="M49.0704 13.1626
L49.1309 13.0416
" />
<path d="M49.1309 13.0416
L49.2519 12.9811
" />
<path d="M49.2519 12.9811
L49.3728 12.9811
" />
</g></g> 
</svg>
