<?xml version="1.0" standalone="no"?>
 <!DOCTYPE svg PUBLIC "-//W3C//DTD SVG 1.1//EN" 
 "http://www.w3.org/Graphics/SVG/1.1/DTD/svg11.dtd"> 
<svg
  xmlns:svg="http://www.w3.org/2000/svg"
  xmlns="http://www.w3.org/2000/svg"
  xmlns:xlink="http://www.w3.org/1999/xlink"
  version="1.1"
  width="76.3270mm" height="23.7998mm" viewBox="0.0000 0.0000 76.3270 23.7998">
<title>SVG Image created as working.svg date 2023/08/18 16:18:49 </title>
  <desc>Image generated by Eeschema-SVG </desc>
<g style="fill:#000000; fill-opacity:1.0000;stroke:#000000; stroke-opacity:1.0000;
stroke-linecap:round; stroke-linejoin:round;"
 transform="translate(0 0) scale(1 1)">
</g>
<g style="fill:#840000; fill-opacity:0.0; 
stroke:#840000; stroke-width:0.0000; stroke-opacity:1; 
stroke-linecap:round; stroke-linejoin:round;">
</g>
<g style="fill:#840084; fill-opacity:0.0; 
stroke:#840084; stroke-width:0.0000; stroke-opacity:1; 
stroke-linecap:round; stroke-linejoin:round;">
</g>
<g style="fill:#840000; fill-opacity:0.0; 
stroke:#840000; stroke-width:0.0000; stroke-opacity:1; 
stroke-linecap:round; stroke-linejoin:round;">
</g>
<g style="fill:#840084; fill-opacity:0.0; 
stroke:#840084; stroke-width:0.0000; stroke-opacity:1; 
stroke-linecap:round; stroke-linejoin:round;">
</g>
<g style="fill:#006464; fill-opacity:0.0; 
stroke:#006464; stroke-width:0.0000; stroke-opacity:1; 
stroke-linecap:round; stroke-linejoin:round;">
</g>
<g style="fill:#006464; fill-opacity:0.0; 
stroke:#006464; stroke-width:0.1588; stroke-opacity:1; 
stroke-linecap:round; stroke-linejoin:round;">
<text x="44.5613" y="3.6389"
textLength="2.6415" font-size="1.6933" lengthAdjust="spacingAndGlyphs"
text-anchor="middle" opacity="0">U?</text>
<g class="stroked-text"><desc>U?</desc>
<path d="M43.6541 2.3131
L43.6541 3.3412
" />
<path d="M43.6541 3.3412
L43.7146 3.4622
" />
<path d="M43.7146 3.4622
L43.7751 3.5227
" />
<path d="M43.7751 3.5227
L43.8960 3.5831
" />
<path d="M43.8960 3.5831
L44.1379 3.5831
" />
<path d="M44.1379 3.5831
L44.2589 3.5227
" />
<path d="M44.2589 3.5227
L44.3194 3.4622
" />
<path d="M44.3194 3.4622
L44.3798 3.3412
" />
<path d="M44.3798 3.3412
L44.3798 2.3131
" />
<path d="M45.1661 3.4622
L45.2265 3.5227
" />
<path d="M45.2265 3.5227
L45.1661 3.5831
" />
<path d="M45.1661 3.5831
L45.1056 3.5227
" />
<path d="M45.1056 3.5227
L45.1661 3.4622
" />
<path d="M45.1661 3.4622
L45.1661 3.5831
" />
<path d="M44.9242 2.3736
L45.0451 2.3131
" />
<path d="M45.0451 2.3131
L45.3475 2.3131
" />
<path d="M45.3475 2.3131
L45.4684 2.3736
" />
<path d="M45.4684 2.3736
L45.5289 2.4946
" />
<path d="M45.5289 2.4946
L45.5289 2.6155
" />
<path d="M45.5289 2.6155
L45.4684 2.7365
" />
<path d="M45.4684 2.7365
L45.4080 2.7969
" />
<path d="M45.4080 2.7969
L45.2870 2.8574
" />
<path d="M45.2870 2.8574
L45.2265 2.9179
" />
<path d="M45.2265 2.9179
L45.1661 3.0388
" />
<path d="M45.1661 3.0388
L45.1661 3.0993
" />
</g><text x="51.3346" y="6.1789"
textLength="16.1881" font-size="1.6933" lengthAdjust="spacingAndGlyphs"
text-anchor="middle" opacity="0">PIC16F628A-ISS</text>
<g class="stroked-text"><desc>PIC16F628A-ISS</desc>
<path d="M43.6541 6.1231
L43.6541 4.8531
" />
<path d="M43.6541 4.8531
L44.1379 4.8531
" />
<path d="M44.1379 4.8531
L44.2589 4.9136
" />
<path d="M44.2589 4.9136
L44.3194 4.9741
" />
<path d="M44.3194 4.9741
L44.3798 5.0950
" />
<path d="M44.3798 5.0950
L44.3798 5.2765
" />
<path d="M44.3798 5.2765
L44.3194 5.3974
" />
<path d="M44.3194 5.3974
L44.2589 5.4579
" />
<path d="M44.2589 5.4579
L44.1379 5.5184
" />
<path d="M44.1379 5.5184
L43.6541 5.5184
" />
<path d="M44.9241 6.1231
L44.9241 4.8531
" />
<path d="M46.2546 6.0022
L46.1942 6.0627
" />
<path d="M46.1942 6.0627
L46.0127 6.1231
" />
<path d="M46.0127 6.1231
L45.8918 6.1231
" />
<path d="M45.8918 6.1231
L45.7104 6.0627
" />
<path d="M45.7104 6.0627
L45.5894 5.9417
" />
<path d="M45.5894 5.9417
L45.5289 5.8207
" />
<path d="M45.5289 5.8207
L45.4685 5.5788
" />
<path d="M45.4685 5.5788
L45.4685 5.3974
" />
<path d="M45.4685 5.3974
L45.5289 5.1555
" />
<path d="M45.5289 5.1555
L45.5894 5.0346
" />
<path d="M45.5894 5.0346
L45.7104 4.9136
" />
<path d="M45.7104 4.9136
L45.8918 4.8531
" />
<path d="M45.8918 4.8531
L46.0127 4.8531
" />
<path d="M46.0127 4.8531
L46.1942 4.9136
" />
<path d="M46.1942 4.9136
L46.2546 4.9741
" />
<path d="M47.4642 6.1231
L46.7385 6.1231
" />
<path d="M47.1013 6.1231
L47.1013 4.8531
" />
<path d="M47.1013 4.8531
L46.9804 5.0346
" />
<path d="M46.9804 5.0346
L46.8594 5.1555
" />
<path d="M46.8594 5.1555
L46.7385 5.2160
" />
<path d="M48.5527 4.8531
L48.3108 4.8531
" />
<path d="M48.3108 4.8531
L48.1899 4.9136
" />
<path d="M48.1899 4.9136
L48.1294 4.9741
" />
<path d="M48.1294 4.9741
L48.0084 5.1555
" />
<path d="M48.0084 5.1555
L47.9480 5.3974
" />
<path d="M47.9480 5.3974
L47.9480 5.8812
" />
<path d="M47.9480 5.8812
L48.0084 6.0022
" />
<path d="M48.0084 6.0022
L48.0689 6.0627
" />
<path d="M48.0689 6.0627
L48.1899 6.1231
" />
<path d="M48.1899 6.1231
L48.4318 6.1231
" />
<path d="M48.4318 6.1231
L48.5527 6.0627
" />
<path d="M48.5527 6.0627
L48.6132 6.0022
" />
<path d="M48.6132 6.0022
L48.6737 5.8812
" />
<path d="M48.6737 5.8812
L48.6737 5.5788
" />
<path d="M48.6737 5.5788
L48.6132 5.4579
" />
<path d="M48.6132 5.4579
L48.5527 5.3974
" />
<path d="M48.5527 5.3974
L48.4318 5.3369
" />
<path d="M48.4318 5.3369
L48.1899 5.3369
" />
<path d="M48.1899 5.3369
L48.0689 5.3974
" />
<path d="M48.0689 5.3974
L48.0084 5.4579
" />
<path d="M48.0084 5.4579
L47.9480 5.5788
" />
<path d="M49.6413 5.4579
L49.2179 5.4579
" />
<path d="M49.2179 6.1231
L49.2179 4.8531
" />
<path d="M49.2179 4.8531
L49.8227 4.8531
" />
<path d="M50.8508 4.8531
L50.6089 4.8531
" />
<path d="M50.6089 4.8531
L50.4880 4.9136
" />
<path d="M50.4880 4.9136
L50.4275 4.9741
" />
<path d="M50.4275 4.9741
L50.3065 5.1555
" />
<path d="M50.3065 5.1555
L50.2461 5.3974
" />
<path d="M50.2461 5.3974
L50.2461 5.8812
" />
<path d="M50.2461 5.8812
L50.3065 6.0022
" />
<path d="M50.3065 6.0022
L50.3670 6.0627
" />
<path d="M50.3670 6.0627
L50.4880 6.1231
" />
<path d="M50.4880 6.1231
L50.7299 6.1231
" />
<path d="M50.7299 6.1231
L50.8508 6.0627
" />
<path d="M50.8508 6.0627
L50.9113 6.0022
" />
<path d="M50.9113 6.0022
L50.9718 5.8812
" />
<path d="M50.9718 5.8812
L50.9718 5.5788
" />
<path d="M50.9718 5.5788
L50.9113 5.4579
" />
<path d="M50.9113 5.4579
L50.8508 5.3974
" />
<path d="M50.8508 5.3974
L50.7299 5.3369
" />
<path d="M50.7299 5.3369
L50.4880 5.3369
" />
<path d="M50.4880 5.3369
L50.3670 5.3974
" />
<path d="M50.3670 5.3974
L50.3065 5.4579
" />
<path d="M50.3065 5.4579
L50.2461 5.5788
" />
<path d="M51.4556 4.9741
L51.5160 4.9136
" />
<path d="M51.5160 4.9136
L51.6370 4.8531
" />
<path d="M51.6370 4.8531
L51.9394 4.8531
" />
<path d="M51.9394 4.8531
L52.0603 4.9136
" />
<path d="M52.0603 4.9136
L52.1208 4.9741
" />
<path d="M52.1208 4.9741
L52.1813 5.0950
" />
<path d="M52.1813 5.0950
L52.1813 5.2160
" />
<path d="M52.1813 5.2160
L52.1208 5.3974
" />
<path d="M52.1208 5.3974
L51.3951 6.1231
" />
<path d="M51.3951 6.1231
L52.1813 6.1231
" />
<path d="M52.9070 5.3974
L52.7860 5.3369
" />
<path d="M52.7860 5.3369
L52.7255 5.2765
" />
<path d="M52.7255 5.2765
L52.6651 5.1555
" />
<path d="M52.6651 5.1555
L52.6651 5.0950
" />
<path d="M52.6651 5.0950
L52.7255 4.9741
" />
<path d="M52.7255 4.9741
L52.7860 4.9136
" />
<path d="M52.7860 4.9136
L52.9070 4.8531
" />
<path d="M52.9070 4.8531
L53.1489 4.8531
" />
<path d="M53.1489 4.8531
L53.2698 4.9136
" />
<path d="M53.2698 4.9136
L53.3303 4.9741
" />
<path d="M53.3303 4.9741
L53.3908 5.0950
" />
<path d="M53.3908 5.0950
L53.3908 5.1555
" />
<path d="M53.3908 5.1555
L53.3303 5.2765
" />
<path d="M53.3303 5.2765
L53.2698 5.3369
" />
<path d="M53.2698 5.3369
L53.1489 5.3974
" />
<path d="M53.1489 5.3974
L52.9070 5.3974
" />
<path d="M52.9070 5.3974
L52.7860 5.4579
" />
<path d="M52.7860 5.4579
L52.7255 5.5184
" />
<path d="M52.7255 5.5184
L52.6651 5.6393
" />
<path d="M52.6651 5.6393
L52.6651 5.8812
" />
<path d="M52.6651 5.8812
L52.7255 6.0022
" />
<path d="M52.7255 6.0022
L52.7860 6.0627
" />
<path d="M52.7860 6.0627
L52.9070 6.1231
" />
<path d="M52.9070 6.1231
L53.1489 6.1231
" />
<path d="M53.1489 6.1231
L53.2698 6.0627
" />
<path d="M53.2698 6.0627
L53.3303 6.0022
" />
<path d="M53.3303 6.0022
L53.3908 5.8812
" />
<path d="M53.3908 5.8812
L53.3908 5.6393
" />
<path d="M53.3908 5.6393
L53.3303 5.5184
" />
<path d="M53.3303 5.5184
L53.2698 5.4579
" />
<path d="M53.2698 5.4579
L53.1489 5.3974
" />
<path d="M53.8746 5.7603
L54.4793 5.7603
" />
<path d="M53.7536 6.1231
L54.1769 4.8531
" />
<path d="M54.1769 4.8531
L54.6003 6.1231
" />
<path d="M55.0236 5.6393
L55.9913 5.6393
" />
<path d="M56.5960 6.1231
L56.5960 4.8531
" />
<path d="M57.1404 6.0627
L57.3218 6.1231
" />
<path d="M57.3218 6.1231
L57.6242 6.1231
" />
<path d="M57.6242 6.1231
L57.7451 6.0627
" />
<path d="M57.7451 6.0627
L57.8056 6.0022
" />
<path d="M57.8056 6.0022
L57.8661 5.8812
" />
<path d="M57.8661 5.8812
L57.8661 5.7603
" />
<path d="M57.8661 5.7603
L57.8056 5.6393
" />
<path d="M57.8056 5.6393
L57.7451 5.5788
" />
<path d="M57.7451 5.5788
L57.6242 5.5184
" />
<path d="M57.6242 5.5184
L57.3823 5.4579
" />
<path d="M57.3823 5.4579
L57.2613 5.3974
" />
<path d="M57.2613 5.3974
L57.2008 5.3369
" />
<path d="M57.2008 5.3369
L57.1404 5.2160
" />
<path d="M57.1404 5.2160
L57.1404 5.0950
" />
<path d="M57.1404 5.0950
L57.2008 4.9741
" />
<path d="M57.2008 4.9741
L57.2613 4.9136
" />
<path d="M57.2613 4.9136
L57.3823 4.8531
" />
<path d="M57.3823 4.8531
L57.6846 4.8531
" />
<path d="M57.6846 4.8531
L57.8661 4.9136
" />
<path d="M58.3499 6.0627
L58.5313 6.1231
" />
<path d="M58.5313 6.1231
L58.8337 6.1231
" />
<path d="M58.8337 6.1231
L58.9546 6.0627
" />
<path d="M58.9546 6.0627
L59.0151 6.0022
" />
<path d="M59.0151 6.0022
L59.0756 5.8812
" />
<path d="M59.0756 5.8812
L59.0756 5.7603
" />
<path d="M59.0756 5.7603
L59.0151 5.6393
" />
<path d="M59.0151 5.6393
L58.9546 5.5788
" />
<path d="M58.9546 5.5788
L58.8337 5.5184
" />
<path d="M58.8337 5.5184
L58.5918 5.4579
" />
<path d="M58.5918 5.4579
L58.4708 5.3974
" />
<path d="M58.4708 5.3974
L58.4103 5.3369
" />
<path d="M58.4103 5.3369
L58.3499 5.2160
" />
<path d="M58.3499 5.2160
L58.3499 5.0950
" />
<path d="M58.3499 5.0950
L58.4103 4.9741
" />
<path d="M58.4103 4.9741
L58.4708 4.9136
" />
<path d="M58.4708 4.9136
L58.5918 4.8531
" />
<path d="M58.5918 4.8531
L58.8941 4.8531
" />
<path d="M58.8941 4.8531
L59.0756 4.9136
" />
</g></g>
<g style="fill:#840084; fill-opacity:0.0; 
stroke:#840084; stroke-width:0.1588; stroke-opacity:1; 
stroke-linecap:round; stroke-linejoin:round;">
<text x="38.1606" y="21.4189"
textLength="63.6011" font-size="1.6933" lengthAdjust="spacingAndGlyphs"
text-anchor="middle" opacity="0">http://ww1.microchip.com/downloads/en/DeviceDoc/40044G.pdf</text>
<g class="stroked-text"><desc>http://ww1.microchip.com/downloads/en/DeviceDoc/40044G.pdf</desc>
<path d="M6.7736 21.3631
L6.7736 20.0931
" />
<path d="M7.3179 21.3631
L7.3179 20.6979
" />
<path d="M7.3179 20.6979
L7.2574 20.5769
" />
<path d="M7.2574 20.5769
L7.1365 20.5165
" />
<path d="M7.1365 20.5165
L6.9551 20.5165
" />
<path d="M6.9551 20.5165
L6.8341 20.5769
" />
<path d="M6.8341 20.5769
L6.7736 20.6374
" />
<path d="M7.7412 20.5165
L8.2250 20.5165
" />
<path d="M7.9226 20.0931
L7.9226 21.1817
" />
<path d="M7.9226 21.1817
L7.9831 21.3027
" />
<path d="M7.9831 21.3027
L8.1041 21.3631
" />
<path d="M8.1041 21.3631
L8.2250 21.3631
" />
<path d="M8.4669 20.5165
L8.9507 20.5165
" />
<path d="M8.6483 20.0931
L8.6483 21.1817
" />
<path d="M8.6483 21.1817
L8.7088 21.3027
" />
<path d="M8.7088 21.3027
L8.8298 21.3631
" />
<path d="M8.8298 21.3631
L8.9507 21.3631
" />
<path d="M9.3740 20.5165
L9.3740 21.7865
" />
<path d="M9.3740 20.5769
L9.4950 20.5165
" />
<path d="M9.4950 20.5165
L9.7369 20.5165
" />
<path d="M9.7369 20.5165
L9.8578 20.5769
" />
<path d="M9.8578 20.5769
L9.9183 20.6374
" />
<path d="M9.9183 20.6374
L9.9788 20.7584
" />
<path d="M9.9788 20.7584
L9.9788 21.1212
" />
<path d="M9.9788 21.1212
L9.9183 21.2422
" />
<path d="M9.9183 21.2422
L9.8578 21.3027
" />
<path d="M9.8578 21.3027
L9.7369 21.3631
" />
<path d="M9.7369 21.3631
L9.4950 21.3631
" />
<path d="M9.4950 21.3631
L9.3740 21.3027
" />
<path d="M10.5230 21.2422
L10.5835 21.3027
" />
<path d="M10.5835 21.3027
L10.5230 21.3631
" />
<path d="M10.5230 21.3631
L10.4626 21.3027
" />
<path d="M10.4626 21.3027
L10.5230 21.2422
" />
<path d="M10.5230 21.2422
L10.5230 21.3631
" />
<path d="M10.5230 20.5769
L10.5835 20.6374
" />
<path d="M10.5835 20.6374
L10.5230 20.6979
" />
<path d="M10.5230 20.6979
L10.4626 20.6374
" />
<path d="M10.4626 20.6374
L10.5230 20.5769
" />
<path d="M10.5230 20.5769
L10.5230 20.6979
" />
<path d="M12.0350 20.0327
L10.9464 21.6655
" />
<path d="M13.3655 20.0327
L12.2769 21.6655
" />
<path d="M13.6679 20.5165
L13.9098 21.3631
" />
<path d="M13.9098 21.3631
L14.1517 20.7584
" />
<path d="M14.1517 20.7584
L14.3936 21.3631
" />
<path d="M14.3936 21.3631
L14.6355 20.5165
" />
<path d="M14.9984 20.5165
L15.2403 21.3631
" />
<path d="M15.2403 21.3631
L15.4822 20.7584
" />
<path d="M15.4822 20.7584
L15.7241 21.3631
" />
<path d="M15.7241 21.3631
L15.9660 20.5165
" />
<path d="M17.1151 21.3631
L16.3894 21.3631
" />
<path d="M16.7522 21.3631
L16.7522 20.0931
" />
<path d="M16.7522 20.0931
L16.6313 20.2746
" />
<path d="M16.6313 20.2746
L16.5103 20.3955
" />
<path d="M16.5103 20.3955
L16.3894 20.4560
" />
<path d="M17.6593 21.2422
L17.7198 21.3027
" />
<path d="M17.7198 21.3027
L17.6593 21.3631
" />
<path d="M17.6593 21.3631
L17.5989 21.3027
" />
<path d="M17.5989 21.3027
L17.6593 21.2422
" />
<path d="M17.6593 21.2422
L17.6593 21.3631
" />
<path d="M18.2641 21.3631
L18.2641 20.5165
" />
<path d="M18.2641 20.6374
L18.3246 20.5769
" />
<path d="M18.3246 20.5769
L18.4456 20.5165
" />
<path d="M18.4456 20.5165
L18.6270 20.5165
" />
<path d="M18.6270 20.5165
L18.7479 20.5769
" />
<path d="M18.7479 20.5769
L18.8084 20.6979
" />
<path d="M18.8084 20.6979
L18.8084 21.3631
" />
<path d="M18.8084 20.6979
L18.8689 20.5769
" />
<path d="M18.8689 20.5769
L18.9898 20.5165
" />
<path d="M18.9898 20.5165
L19.1713 20.5165
" />
<path d="M19.1713 20.5165
L19.2922 20.5769
" />
<path d="M19.2922 20.5769
L19.3527 20.6979
" />
<path d="M19.3527 20.6979
L19.3527 21.3631
" />
<path d="M19.9574 21.3631
L19.9574 20.5165
" />
<path d="M19.9574 20.0931
L19.8970 20.1536
" />
<path d="M19.8970 20.1536
L19.9574 20.2141
" />
<path d="M19.9574 20.2141
L20.0179 20.1536
" />
<path d="M20.0179 20.1536
L19.9574 20.0931
" />
<path d="M19.9574 20.0931
L19.9574 20.2141
" />
<path d="M21.1065 21.3027
L20.9856 21.3631
" />
<path d="M20.9856 21.3631
L20.7437 21.3631
" />
<path d="M20.7437 21.3631
L20.6227 21.3027
" />
<path d="M20.6227 21.3027
L20.5622 21.2422
" />
<path d="M20.5622 21.2422
L20.5018 21.1212
" />
<path d="M20.5018 21.1212
L20.5018 20.7584
" />
<path d="M20.5018 20.7584
L20.5622 20.6374
" />
<path d="M20.5622 20.6374
L20.6227 20.5769
" />
<path d="M20.6227 20.5769
L20.7437 20.5165
" />
<path d="M20.7437 20.5165
L20.9856 20.5165
" />
<path d="M20.9856 20.5165
L21.1065 20.5769
" />
<path d="M21.6508 21.3631
L21.6508 20.5165
" />
<path d="M21.6508 20.7584
L21.7113 20.6374
" />
<path d="M21.7113 20.6374
L21.7718 20.5769
" />
<path d="M21.7718 20.5769
L21.8927 20.5165
" />
<path d="M21.8927 20.5165
L22.0137 20.5165
" />
<path d="M22.6185 21.3631
L22.4975 21.3027
" />
<path d="M22.4975 21.3027
L22.4370 21.2422
" />
<path d="M22.4370 21.2422
L22.3766 21.1212
" />
<path d="M22.3766 21.1212
L22.3766 20.7584
" />
<path d="M22.3766 20.7584
L22.4370 20.6374
" />
<path d="M22.4370 20.6374
L22.4975 20.5769
" />
<path d="M22.4975 20.5769
L22.6185 20.5165
" />
<path d="M22.6185 20.5165
L22.7999 20.5165
" />
<path d="M22.7999 20.5165
L22.9208 20.5769
" />
<path d="M22.9208 20.5769
L22.9813 20.6374
" />
<path d="M22.9813 20.6374
L23.0418 20.7584
" />
<path d="M23.0418 20.7584
L23.0418 21.1212
" />
<path d="M23.0418 21.1212
L22.9813 21.2422
" />
<path d="M22.9813 21.2422
L22.9208 21.3027
" />
<path d="M22.9208 21.3027
L22.7999 21.3631
" />
<path d="M22.7999 21.3631
L22.6185 21.3631
" />
<path d="M24.1303 21.3027
L24.0094 21.3631
" />
<path d="M24.0094 21.3631
L23.7675 21.3631
" />
<path d="M23.7675 21.3631
L23.6465 21.3027
" />
<path d="M23.6465 21.3027
L23.5860 21.2422
" />
<path d="M23.5860 21.2422
L23.5256 21.1212
" />
<path d="M23.5256 21.1212
L23.5256 20.7584
" />
<path d="M23.5256 20.7584
L23.5860 20.6374
" />
<path d="M23.5860 20.6374
L23.6465 20.5769
" />
<path d="M23.6465 20.5769
L23.7675 20.5165
" />
<path d="M23.7675 20.5165
L24.0094 20.5165
" />
<path d="M24.0094 20.5165
L24.1303 20.5769
" />
<path d="M24.6746 21.3631
L24.6746 20.0931
" />
<path d="M25.2189 21.3631
L25.2189 20.6979
" />
<path d="M25.2189 20.6979
L25.1584 20.5769
" />
<path d="M25.1584 20.5769
L25.0375 20.5165
" />
<path d="M25.0375 20.5165
L24.8561 20.5165
" />
<path d="M24.8561 20.5165
L24.7351 20.5769
" />
<path d="M24.7351 20.5769
L24.6746 20.6374
" />
<path d="M25.8236 21.3631
L25.8236 20.5165
" />
<path d="M25.8236 20.0931
L25.7632 20.1536
" />
<path d="M25.7632 20.1536
L25.8236 20.2141
" />
<path d="M25.8236 20.2141
L25.8841 20.1536
" />
<path d="M25.8841 20.1536
L25.8236 20.0931
" />
<path d="M25.8236 20.0931
L25.8236 20.2141
" />
<path d="M26.4284 20.5165
L26.4284 21.7865
" />
<path d="M26.4284 20.5769
L26.5494 20.5165
" />
<path d="M26.5494 20.5165
L26.7913 20.5165
" />
<path d="M26.7913 20.5165
L26.9122 20.5769
" />
<path d="M26.9122 20.5769
L26.9727 20.6374
" />
<path d="M26.9727 20.6374
L27.0332 20.7584
" />
<path d="M27.0332 20.7584
L27.0332 21.1212
" />
<path d="M27.0332 21.1212
L26.9727 21.2422
" />
<path d="M26.9727 21.2422
L26.9122 21.3027
" />
<path d="M26.9122 21.3027
L26.7913 21.3631
" />
<path d="M26.7913 21.3631
L26.5494 21.3631
" />
<path d="M26.5494 21.3631
L26.4284 21.3027
" />
<path d="M27.5774 21.2422
L27.6379 21.3027
" />
<path d="M27.6379 21.3027
L27.5774 21.3631
" />
<path d="M27.5774 21.3631
L27.5170 21.3027
" />
<path d="M27.5170 21.3027
L27.5774 21.2422
" />
<path d="M27.5774 21.2422
L27.5774 21.3631
" />
<path d="M28.7265 21.3027
L28.6056 21.3631
" />
<path d="M28.6056 21.3631
L28.3637 21.3631
" />
<path d="M28.3637 21.3631
L28.2427 21.3027
" />
<path d="M28.2427 21.3027
L28.1822 21.2422
" />
<path d="M28.1822 21.2422
L28.1218 21.1212
" />
<path d="M28.1218 21.1212
L28.1218 20.7584
" />
<path d="M28.1218 20.7584
L28.1822 20.6374
" />
<path d="M28.1822 20.6374
L28.2427 20.5769
" />
<path d="M28.2427 20.5769
L28.3637 20.5165
" />
<path d="M28.3637 20.5165
L28.6056 20.5165
" />
<path d="M28.6056 20.5165
L28.7265 20.5769
" />
<path d="M29.4523 21.3631
L29.3313 21.3027
" />
<path d="M29.3313 21.3027
L29.2708 21.2422
" />
<path d="M29.2708 21.2422
L29.2104 21.1212
" />
<path d="M29.2104 21.1212
L29.2104 20.7584
" />
<path d="M29.2104 20.7584
L29.2708 20.6374
" />
<path d="M29.2708 20.6374
L29.3313 20.5769
" />
<path d="M29.3313 20.5769
L29.4523 20.5165
" />
<path d="M29.4523 20.5165
L29.6337 20.5165
" />
<path d="M29.6337 20.5165
L29.7546 20.5769
" />
<path d="M29.7546 20.5769
L29.8151 20.6374
" />
<path d="M29.8151 20.6374
L29.8756 20.7584
" />
<path d="M29.8756 20.7584
L29.8756 21.1212
" />
<path d="M29.8756 21.1212
L29.8151 21.2422
" />
<path d="M29.8151 21.2422
L29.7546 21.3027
" />
<path d="M29.7546 21.3027
L29.6337 21.3631
" />
<path d="M29.6337 21.3631
L29.4523 21.3631
" />
<path d="M30.4198 21.3631
L30.4198 20.5165
" />
<path d="M30.4198 20.6374
L30.4803 20.5769
" />
<path d="M30.4803 20.5769
L30.6013 20.5165
" />
<path d="M30.6013 20.5165
L30.7827 20.5165
" />
<path d="M30.7827 20.5165
L30.9036 20.5769
" />
<path d="M30.9036 20.5769
L30.9641 20.6979
" />
<path d="M30.9641 20.6979
L30.9641 21.3631
" />
<path d="M30.9641 20.6979
L31.0246 20.5769
" />
<path d="M31.0246 20.5769
L31.1455 20.5165
" />
<path d="M31.1455 20.5165
L31.3270 20.5165
" />
<path d="M31.3270 20.5165
L31.4479 20.5769
" />
<path d="M31.4479 20.5769
L31.5084 20.6979
" />
<path d="M31.5084 20.6979
L31.5084 21.3631
" />
<path d="M33.0203 20.0327
L31.9317 21.6655
" />
<path d="M33.9879 21.3631
L33.9879 20.0931
" />
<path d="M33.9879 21.3027
L33.8670 21.3631
" />
<path d="M33.8670 21.3631
L33.6251 21.3631
" />
<path d="M33.6251 21.3631
L33.5041 21.3027
" />
<path d="M33.5041 21.3027
L33.4436 21.2422
" />
<path d="M33.4436 21.2422
L33.3832 21.1212
" />
<path d="M33.3832 21.1212
L33.3832 20.7584
" />
<path d="M33.3832 20.7584
L33.4436 20.6374
" />
<path d="M33.4436 20.6374
L33.5041 20.5769
" />
<path d="M33.5041 20.5769
L33.6251 20.5165
" />
<path d="M33.6251 20.5165
L33.8670 20.5165
" />
<path d="M33.8670 20.5165
L33.9879 20.5769
" />
<path d="M34.7741 21.3631
L34.6531 21.3027
" />
<path d="M34.6531 21.3027
L34.5926 21.2422
" />
<path d="M34.5926 21.2422
L34.5322 21.1212
" />
<path d="M34.5322 21.1212
L34.5322 20.7584
" />
<path d="M34.5322 20.7584
L34.5926 20.6374
" />
<path d="M34.5926 20.6374
L34.6531 20.5769
" />
<path d="M34.6531 20.5769
L34.7741 20.5165
" />
<path d="M34.7741 20.5165
L34.9555 20.5165
" />
<path d="M34.9555 20.5165
L35.0764 20.5769
" />
<path d="M35.0764 20.5769
L35.1369 20.6374
" />
<path d="M35.1369 20.6374
L35.1974 20.7584
" />
<path d="M35.1974 20.7584
L35.1974 21.1212
" />
<path d="M35.1974 21.1212
L35.1369 21.2422
" />
<path d="M35.1369 21.2422
L35.0764 21.3027
" />
<path d="M35.0764 21.3027
L34.9555 21.3631
" />
<path d="M34.9555 21.3631
L34.7741 21.3631
" />
<path d="M35.6207 20.5165
L35.8626 21.3631
" />
<path d="M35.8626 21.3631
L36.1045 20.7584
" />
<path d="M36.1045 20.7584
L36.3464 21.3631
" />
<path d="M36.3464 21.3631
L36.5883 20.5165
" />
<path d="M37.0721 20.5165
L37.0721 21.3631
" />
<path d="M37.0721 20.6374
L37.1326 20.5769
" />
<path d="M37.1326 20.5769
L37.2536 20.5165
" />
<path d="M37.2536 20.5165
L37.4350 20.5165
" />
<path d="M37.4350 20.5165
L37.5559 20.5769
" />
<path d="M37.5559 20.5769
L37.6164 20.6979
" />
<path d="M37.6164 20.6979
L37.6164 21.3631
" />
<path d="M38.4026 21.3631
L38.2816 21.3027
" />
<path d="M38.2816 21.3027
L38.2211 21.1817
" />
<path d="M38.2211 21.1817
L38.2211 20.0931
" />
<path d="M39.0678 21.3631
L38.9468 21.3027
" />
<path d="M38.9468 21.3027
L38.8863 21.2422
" />
<path d="M38.8863 21.2422
L38.8259 21.1212
" />
<path d="M38.8259 21.1212
L38.8259 20.7584
" />
<path d="M38.8259 20.7584
L38.8863 20.6374
" />
<path d="M38.8863 20.6374
L38.9468 20.5769
" />
<path d="M38.9468 20.5769
L39.0678 20.5165
" />
<path d="M39.0678 20.5165
L39.2492 20.5165
" />
<path d="M39.2492 20.5165
L39.3701 20.5769
" />
<path d="M39.3701 20.5769
L39.4306 20.6374
" />
<path d="M39.4306 20.6374
L39.4911 20.7584
" />
<path d="M39.4911 20.7584
L39.4911 21.1212
" />
<path d="M39.4911 21.1212
L39.4306 21.2422
" />
<path d="M39.4306 21.2422
L39.3701 21.3027
" />
<path d="M39.3701 21.3027
L39.2492 21.3631
" />
<path d="M39.2492 21.3631
L39.0678 21.3631
" />
<path d="M40.5796 21.3631
L40.5796 20.6979
" />
<path d="M40.5796 20.6979
L40.5191 20.5769
" />
<path d="M40.5191 20.5769
L40.3982 20.5165
" />
<path d="M40.3982 20.5165
L40.1563 20.5165
" />
<path d="M40.1563 20.5165
L40.0353 20.5769
" />
<path d="M40.5796 21.3027
L40.4587 21.3631
" />
<path d="M40.4587 21.3631
L40.1563 21.3631
" />
<path d="M40.1563 21.3631
L40.0353 21.3027
" />
<path d="M40.0353 21.3027
L39.9749 21.1817
" />
<path d="M39.9749 21.1817
L39.9749 21.0607
" />
<path d="M39.9749 21.0607
L40.0353 20.9398
" />
<path d="M40.0353 20.9398
L40.1563 20.8793
" />
<path d="M40.1563 20.8793
L40.4587 20.8793
" />
<path d="M40.4587 20.8793
L40.5796 20.8188
" />
<path d="M41.7286 21.3631
L41.7286 20.0931
" />
<path d="M41.7286 21.3027
L41.6077 21.3631
" />
<path d="M41.6077 21.3631
L41.3658 21.3631
" />
<path d="M41.3658 21.3631
L41.2448 21.3027
" />
<path d="M41.2448 21.3027
L41.1843 21.2422
" />
<path d="M41.1843 21.2422
L41.1239 21.1212
" />
<path d="M41.1239 21.1212
L41.1239 20.7584
" />
<path d="M41.1239 20.7584
L41.1843 20.6374
" />
<path d="M41.1843 20.6374
L41.2448 20.5769
" />
<path d="M41.2448 20.5769
L41.3658 20.5165
" />
<path d="M41.3658 20.5165
L41.6077 20.5165
" />
<path d="M41.6077 20.5165
L41.7286 20.5769
" />
<path d="M42.2729 21.3027
L42.3938 21.3631
" />
<path d="M42.3938 21.3631
L42.6357 21.3631
" />
<path d="M42.6357 21.3631
L42.7567 21.3027
" />
<path d="M42.7567 21.3027
L42.8171 21.1817
" />
<path d="M42.8171 21.1817
L42.8171 21.1212
" />
<path d="M42.8171 21.1212
L42.7567 21.0003
" />
<path d="M42.7567 21.0003
L42.6357 20.9398
" />
<path d="M42.6357 20.9398
L42.4543 20.9398
" />
<path d="M42.4543 20.9398
L42.3333 20.8793
" />
<path d="M42.3333 20.8793
L42.2729 20.7584
" />
<path d="M42.2729 20.7584
L42.2729 20.6979
" />
<path d="M42.2729 20.6979
L42.3333 20.5769
" />
<path d="M42.3333 20.5769
L42.4543 20.5165
" />
<path d="M42.4543 20.5165
L42.6357 20.5165
" />
<path d="M42.6357 20.5165
L42.7567 20.5769
" />
<path d="M44.2686 20.0327
L43.1800 21.6655
" />
<path d="M45.1757 21.3027
L45.0548 21.3631
" />
<path d="M45.0548 21.3631
L44.8129 21.3631
" />
<path d="M44.8129 21.3631
L44.6919 21.3027
" />
<path d="M44.6919 21.3027
L44.6315 21.1817
" />
<path d="M44.6315 21.1817
L44.6315 20.6979
" />
<path d="M44.6315 20.6979
L44.6919 20.5769
" />
<path d="M44.6919 20.5769
L44.8129 20.5165
" />
<path d="M44.8129 20.5165
L45.0548 20.5165
" />
<path d="M45.0548 20.5165
L45.1757 20.5769
" />
<path d="M45.1757 20.5769
L45.2362 20.6979
" />
<path d="M45.2362 20.6979
L45.2362 20.8188
" />
<path d="M45.2362 20.8188
L44.6315 20.9398
" />
<path d="M45.7805 20.5165
L45.7805 21.3631
" />
<path d="M45.7805 20.6374
L45.8410 20.5769
" />
<path d="M45.8410 20.5769
L45.9620 20.5165
" />
<path d="M45.9620 20.5165
L46.1434 20.5165
" />
<path d="M46.1434 20.5165
L46.2643 20.5769
" />
<path d="M46.2643 20.5769
L46.3248 20.6979
" />
<path d="M46.3248 20.6979
L46.3248 21.3631
" />
<path d="M47.8367 20.0327
L46.7481 21.6655
" />
<path d="M48.2600 21.3631
L48.2600 20.0931
" />
<path d="M48.2600 20.0931
L48.5624 20.0931
" />
<path d="M48.5624 20.0931
L48.7438 20.1536
" />
<path d="M48.7438 20.1536
L48.8648 20.2746
" />
<path d="M48.8648 20.2746
L48.9253 20.3955
" />
<path d="M48.9253 20.3955
L48.9857 20.6374
" />
<path d="M48.9857 20.6374
L48.9857 20.8188
" />
<path d="M48.9857 20.8188
L48.9253 21.0607
" />
<path d="M48.9253 21.0607
L48.8648 21.1817
" />
<path d="M48.8648 21.1817
L48.7438 21.3027
" />
<path d="M48.7438 21.3027
L48.5624 21.3631
" />
<path d="M48.5624 21.3631
L48.2600 21.3631
" />
<path d="M50.0138 21.3027
L49.8929 21.3631
" />
<path d="M49.8929 21.3631
L49.6510 21.3631
" />
<path d="M49.6510 21.3631
L49.5300 21.3027
" />
<path d="M49.5300 21.3027
L49.4696 21.1817
" />
<path d="M49.4696 21.1817
L49.4696 20.6979
" />
<path d="M49.4696 20.6979
L49.5300 20.5769
" />
<path d="M49.5300 20.5769
L49.6510 20.5165
" />
<path d="M49.6510 20.5165
L49.8929 20.5165
" />
<path d="M49.8929 20.5165
L50.0138 20.5769
" />
<path d="M50.0138 20.5769
L50.0743 20.6979
" />
<path d="M50.0743 20.6979
L50.0743 20.8188
" />
<path d="M50.0743 20.8188
L49.4696 20.9398
" />
<path d="M50.4977 20.5165
L50.8001 21.3631
" />
<path d="M50.8001 21.3631
L51.1024 20.5165
" />
<path d="M51.5862 21.3631
L51.5862 20.5165
" />
<path d="M51.5862 20.0931
L51.5258 20.1536
" />
<path d="M51.5258 20.1536
L51.5862 20.2141
" />
<path d="M51.5862 20.2141
L51.6467 20.1536
" />
<path d="M51.6467 20.1536
L51.5862 20.0931
" />
<path d="M51.5862 20.0931
L51.5862 20.2141
" />
<path d="M52.7353 21.3027
L52.6144 21.3631
" />
<path d="M52.6144 21.3631
L52.3725 21.3631
" />
<path d="M52.3725 21.3631
L52.2515 21.3027
" />
<path d="M52.2515 21.3027
L52.1910 21.2422
" />
<path d="M52.1910 21.2422
L52.1306 21.1212
" />
<path d="M52.1306 21.1212
L52.1306 20.7584
" />
<path d="M52.1306 20.7584
L52.1910 20.6374
" />
<path d="M52.1910 20.6374
L52.2515 20.5769
" />
<path d="M52.2515 20.5769
L52.3725 20.5165
" />
<path d="M52.3725 20.5165
L52.6144 20.5165
" />
<path d="M52.6144 20.5165
L52.7353 20.5769
" />
<path d="M53.7634 21.3027
L53.6425 21.3631
" />
<path d="M53.6425 21.3631
L53.4006 21.3631
" />
<path d="M53.4006 21.3631
L53.2796 21.3027
" />
<path d="M53.2796 21.3027
L53.2192 21.1817
" />
<path d="M53.2192 21.1817
L53.2192 20.6979
" />
<path d="M53.2192 20.6979
L53.2796 20.5769
" />
<path d="M53.2796 20.5769
L53.4006 20.5165
" />
<path d="M53.4006 20.5165
L53.6425 20.5165
" />
<path d="M53.6425 20.5165
L53.7634 20.5769
" />
<path d="M53.7634 20.5769
L53.8239 20.6979
" />
<path d="M53.8239 20.6979
L53.8239 20.8188
" />
<path d="M53.8239 20.8188
L53.2192 20.9398
" />
<path d="M54.3682 21.3631
L54.3682 20.0931
" />
<path d="M54.3682 20.0931
L54.6706 20.0931
" />
<path d="M54.6706 20.0931
L54.8520 20.1536
" />
<path d="M54.8520 20.1536
L54.9730 20.2746
" />
<path d="M54.9730 20.2746
L55.0335 20.3955
" />
<path d="M55.0335 20.3955
L55.0939 20.6374
" />
<path d="M55.0939 20.6374
L55.0939 20.8188
" />
<path d="M55.0939 20.8188
L55.0335 21.0607
" />
<path d="M55.0335 21.0607
L54.9730 21.1817
" />
<path d="M54.9730 21.1817
L54.8520 21.3027
" />
<path d="M54.8520 21.3027
L54.6706 21.3631
" />
<path d="M54.6706 21.3631
L54.3682 21.3631
" />
<path d="M55.8197 21.3631
L55.6987 21.3027
" />
<path d="M55.6987 21.3027
L55.6382 21.2422
" />
<path d="M55.6382 21.2422
L55.5778 21.1212
" />
<path d="M55.5778 21.1212
L55.5778 20.7584
" />
<path d="M55.5778 20.7584
L55.6382 20.6374
" />
<path d="M55.6382 20.6374
L55.6987 20.5769
" />
<path d="M55.6987 20.5769
L55.8197 20.5165
" />
<path d="M55.8197 20.5165
L56.0011 20.5165
" />
<path d="M56.0011 20.5165
L56.1220 20.5769
" />
<path d="M56.1220 20.5769
L56.1825 20.6374
" />
<path d="M56.1825 20.6374
L56.2430 20.7584
" />
<path d="M56.2430 20.7584
L56.2430 21.1212
" />
<path d="M56.2430 21.1212
L56.1825 21.2422
" />
<path d="M56.1825 21.2422
L56.1220 21.3027
" />
<path d="M56.1220 21.3027
L56.0011 21.3631
" />
<path d="M56.0011 21.3631
L55.8197 21.3631
" />
<path d="M57.3315 21.3027
L57.2106 21.3631
" />
<path d="M57.2106 21.3631
L56.9687 21.3631
" />
<path d="M56.9687 21.3631
L56.8477 21.3027
" />
<path d="M56.8477 21.3027
L56.7872 21.2422
" />
<path d="M56.7872 21.2422
L56.7268 21.1212
" />
<path d="M56.7268 21.1212
L56.7268 20.7584
" />
<path d="M56.7268 20.7584
L56.7872 20.6374
" />
<path d="M56.7872 20.6374
L56.8477 20.5769
" />
<path d="M56.8477 20.5769
L56.9687 20.5165
" />
<path d="M56.9687 20.5165
L57.2106 20.5165
" />
<path d="M57.2106 20.5165
L57.3315 20.5769
" />
<path d="M58.7830 20.0327
L57.6944 21.6655
" />
<path d="M59.7506 20.5165
L59.7506 21.3631
" />
<path d="M59.4482 20.0327
L59.1459 20.9398
" />
<path d="M59.1459 20.9398
L59.9320 20.9398
" />
<path d="M60.6577 20.0931
L60.7787 20.0931
" />
<path d="M60.7787 20.0931
L60.8996 20.1536
" />
<path d="M60.8996 20.1536
L60.9601 20.2141
" />
<path d="M60.9601 20.2141
L61.0206 20.3350
" />
<path d="M61.0206 20.3350
L61.0811 20.5769
" />
<path d="M61.0811 20.5769
L61.0811 20.8793
" />
<path d="M61.0811 20.8793
L61.0206 21.1212
" />
<path d="M61.0206 21.1212
L60.9601 21.2422
" />
<path d="M60.9601 21.2422
L60.8996 21.3027
" />
<path d="M60.8996 21.3027
L60.7787 21.3631
" />
<path d="M60.7787 21.3631
L60.6577 21.3631
" />
<path d="M60.6577 21.3631
L60.5368 21.3027
" />
<path d="M60.5368 21.3027
L60.4763 21.2422
" />
<path d="M60.4763 21.2422
L60.4158 21.1212
" />
<path d="M60.4158 21.1212
L60.3554 20.8793
" />
<path d="M60.3554 20.8793
L60.3554 20.5769
" />
<path d="M60.3554 20.5769
L60.4158 20.3350
" />
<path d="M60.4158 20.3350
L60.4763 20.2141
" />
<path d="M60.4763 20.2141
L60.5368 20.1536
" />
<path d="M60.5368 20.1536
L60.6577 20.0931
" />
<path d="M61.8672 20.0931
L61.9882 20.0931
" />
<path d="M61.9882 20.0931
L62.1091 20.1536
" />
<path d="M62.1091 20.1536
L62.1696 20.2141
" />
<path d="M62.1696 20.2141
L62.2301 20.3350
" />
<path d="M62.2301 20.3350
L62.2906 20.5769
" />
<path d="M62.2906 20.5769
L62.2906 20.8793
" />
<path d="M62.2906 20.8793
L62.2301 21.1212
" />
<path d="M62.2301 21.1212
L62.1696 21.2422
" />
<path d="M62.1696 21.2422
L62.1091 21.3027
" />
<path d="M62.1091 21.3027
L61.9882 21.3631
" />
<path d="M61.9882 21.3631
L61.8672 21.3631
" />
<path d="M61.8672 21.3631
L61.7463 21.3027
" />
<path d="M61.7463 21.3027
L61.6858 21.2422
" />
<path d="M61.6858 21.2422
L61.6253 21.1212
" />
<path d="M61.6253 21.1212
L61.5649 20.8793
" />
<path d="M61.5649 20.8793
L61.5649 20.5769
" />
<path d="M61.5649 20.5769
L61.6253 20.3350
" />
<path d="M61.6253 20.3350
L61.6858 20.2141
" />
<path d="M61.6858 20.2141
L61.7463 20.1536
" />
<path d="M61.7463 20.1536
L61.8672 20.0931
" />
<path d="M63.3791 20.5165
L63.3791 21.3631
" />
<path d="M63.0767 20.0327
L62.7744 20.9398
" />
<path d="M62.7744 20.9398
L63.5605 20.9398
" />
<path d="M64.5886 20.5165
L64.5886 21.3631
" />
<path d="M64.2862 20.0327
L63.9839 20.9398
" />
<path d="M63.9839 20.9398
L64.7700 20.9398
" />
<path d="M65.9191 20.1536
L65.7981 20.0931
" />
<path d="M65.7981 20.0931
L65.6167 20.0931
" />
<path d="M65.6167 20.0931
L65.4353 20.1536
" />
<path d="M65.4353 20.1536
L65.3143 20.2746
" />
<path d="M65.3143 20.2746
L65.2538 20.3955
" />
<path d="M65.2538 20.3955
L65.1934 20.6374
" />
<path d="M65.1934 20.6374
L65.1934 20.8188
" />
<path d="M65.1934 20.8188
L65.2538 21.0607
" />
<path d="M65.2538 21.0607
L65.3143 21.1817
" />
<path d="M65.3143 21.1817
L65.4353 21.3027
" />
<path d="M65.4353 21.3027
L65.6167 21.3631
" />
<path d="M65.6167 21.3631
L65.7376 21.3631
" />
<path d="M65.7376 21.3631
L65.9191 21.3027
" />
<path d="M65.9191 21.3027
L65.9795 21.2422
" />
<path d="M65.9795 21.2422
L65.9795 20.8188
" />
<path d="M65.9795 20.8188
L65.7376 20.8188
" />
<path d="M66.5238 21.2422
L66.5843 21.3027
" />
<path d="M66.5843 21.3027
L66.5238 21.3631
" />
<path d="M66.5238 21.3631
L66.4634 21.3027
" />
<path d="M66.4634 21.3027
L66.5238 21.2422
" />
<path d="M66.5238 21.2422
L66.5238 21.3631
" />
<path d="M67.1286 20.5165
L67.1286 21.7865
" />
<path d="M67.1286 20.5769
L67.2496 20.5165
" />
<path d="M67.2496 20.5165
L67.4915 20.5165
" />
<path d="M67.4915 20.5165
L67.6124 20.5769
" />
<path d="M67.6124 20.5769
L67.6729 20.6374
" />
<path d="M67.6729 20.6374
L67.7334 20.7584
" />
<path d="M67.7334 20.7584
L67.7334 21.1212
" />
<path d="M67.7334 21.1212
L67.6729 21.2422
" />
<path d="M67.6729 21.2422
L67.6124 21.3027
" />
<path d="M67.6124 21.3027
L67.4915 21.3631
" />
<path d="M67.4915 21.3631
L67.2496 21.3631
" />
<path d="M67.2496 21.3631
L67.1286 21.3027
" />
<path d="M68.8219 21.3631
L68.8219 20.0931
" />
<path d="M68.8219 21.3027
L68.7010 21.3631
" />
<path d="M68.7010 21.3631
L68.4591 21.3631
" />
<path d="M68.4591 21.3631
L68.3381 21.3027
" />
<path d="M68.3381 21.3027
L68.2776 21.2422
" />
<path d="M68.2776 21.2422
L68.2172 21.1212
" />
<path d="M68.2172 21.1212
L68.2172 20.7584
" />
<path d="M68.2172 20.7584
L68.2776 20.6374
" />
<path d="M68.2776 20.6374
L68.3381 20.5769
" />
<path d="M68.3381 20.5769
L68.4591 20.5165
" />
<path d="M68.4591 20.5165
L68.7010 20.5165
" />
<path d="M68.7010 20.5165
L68.8219 20.5769
" />
<path d="M69.2452 20.5165
L69.7290 20.5165
" />
<path d="M69.4266 21.3631
L69.4266 20.2746
" />
<path d="M69.4266 20.2746
L69.4871 20.1536
" />
<path d="M69.4871 20.1536
L69.6081 20.0931
" />
<path d="M69.6081 20.0931
L69.7290 20.0931
" />
</g></g> 
</svg>
