<?xml version="1.0" standalone="no"?>
 <!DOCTYPE svg PUBLIC "-//W3C//DTD SVG 1.1//EN" 
 "http://www.w3.org/Graphics/SVG/1.1/DTD/svg11.dtd"> 
<svg
  xmlns:svg="http://www.w3.org/2000/svg"
  xmlns="http://www.w3.org/2000/svg"
  xmlns:xlink="http://www.w3.org/1999/xlink"
  version="1.1"
  width="46.6344mm" height="18.2880mm" viewBox="0.0000 0.0000 46.6344 18.2880">
<title>SVG Image created as working.svg date 2023/08/29 21:47:54 </title>
  <desc>Image generated by Eeschema-SVG </desc>
<g style="fill:#000000; fill-opacity:1.0000;stroke:#000000; stroke-opacity:1.0000;
stroke-linecap:round; stroke-linejoin:round;"
 transform="translate(0 0) scale(1 1)">
</g>
<g style="fill:#840000; fill-opacity:0.0; 
stroke:#840000; stroke-width:0.0000; stroke-opacity:1; 
stroke-linecap:round; stroke-linejoin:round;">
</g>
<g style="fill:#FFFFC2; fill-opacity:0.0; 
stroke:#FFFFC2; stroke-width:0.0000; stroke-opacity:1; 
stroke-linecap:round; stroke-linejoin:round;">
</g>
<g style="fill:#FFFFC2; fill-opacity:1.0000; 
stroke:#FFFFC2; stroke-width:0.0000; stroke-opacity:1; 
stroke-linecap:round; stroke-linejoin:round;">
<rect x="15.699800" y="4.064100" width="15.240000" height="10.160000" rx="0.000000" />
</g>
<g style="fill:#840084; fill-opacity:1.0000; 
stroke:#840084; stroke-width:0.0000; stroke-opacity:1; 
stroke-linecap:round; stroke-linejoin:round;">
</g>
<g style="fill:#840000; fill-opacity:1.0000; 
stroke:#840000; stroke-width:0.0000; stroke-opacity:1; 
stroke-linecap:round; stroke-linejoin:round;">
</g>
<g style="fill:#840000; fill-opacity:0.0; 
stroke:#840000; stroke-width:0.2540; stroke-opacity:1; 
stroke-linecap:round; stroke-linejoin:round;">
<rect x="15.699800" y="4.064100" width="15.240000" height="10.160000" rx="0.000000" />
</g>
<g style="fill:#840000; fill-opacity:0.0; 
stroke:#840000; stroke-width:0.1524; stroke-opacity:1; 
stroke-linecap:round; stroke-linejoin:round;">
<path d="M30.9398 6.6041
L33.4798 6.6041
" />
</g>
<g style="fill:#006464; fill-opacity:0.0; 
stroke:#006464; stroke-width:0.1524; stroke-opacity:1; 
stroke-linecap:round; stroke-linejoin:round;">
<text x="30.4318" y="7.2391"
textLength="3.7713" font-size="1.6933" lengthAdjust="spacingAndGlyphs"
text-anchor="end" opacity="0">SDA</text>
<g class="stroked-text"><desc>SDA</desc>
<path d="M27.0054 7.1232
L27.1868 7.1836
" />
<path d="M27.1868 7.1836
L27.4892 7.1836
" />
<path d="M27.4892 7.1836
L27.6101 7.1232
" />
<path d="M27.6101 7.1232
L27.6706 7.0627
" />
<path d="M27.6706 7.0627
L27.7311 6.9417
" />
<path d="M27.7311 6.9417
L27.7311 6.8208
" />
<path d="M27.7311 6.8208
L27.6706 6.6998
" />
<path d="M27.6706 6.6998
L27.6101 6.6393
" />
<path d="M27.6101 6.6393
L27.4892 6.5789
" />
<path d="M27.4892 6.5789
L27.2473 6.5184
" />
<path d="M27.2473 6.5184
L27.1263 6.4579
" />
<path d="M27.1263 6.4579
L27.0658 6.3974
" />
<path d="M27.0658 6.3974
L27.0054 6.2765
" />
<path d="M27.0054 6.2765
L27.0054 6.1555
" />
<path d="M27.0054 6.1555
L27.0658 6.0346
" />
<path d="M27.0658 6.0346
L27.1263 5.9741
" />
<path d="M27.1263 5.9741
L27.2473 5.9136
" />
<path d="M27.2473 5.9136
L27.5496 5.9136
" />
<path d="M27.5496 5.9136
L27.7311 5.9741
" />
<path d="M28.2753 7.1836
L28.2753 5.9136
" />
<path d="M28.2753 5.9136
L28.5777 5.9136
" />
<path d="M28.5777 5.9136
L28.7591 5.9741
" />
<path d="M28.7591 5.9741
L28.8801 6.0951
" />
<path d="M28.8801 6.0951
L28.9406 6.2160
" />
<path d="M28.9406 6.2160
L29.0010 6.4579
" />
<path d="M29.0010 6.4579
L29.0010 6.6393
" />
<path d="M29.0010 6.6393
L28.9406 6.8812
" />
<path d="M28.9406 6.8812
L28.8801 7.0022
" />
<path d="M28.8801 7.0022
L28.7591 7.1232
" />
<path d="M28.7591 7.1232
L28.5777 7.1836
" />
<path d="M28.5777 7.1836
L28.2753 7.1836
" />
<path d="M29.4849 6.8208
L30.0896 6.8208
" />
<path d="M29.3639 7.1836
L29.7872 5.9136
" />
<path d="M29.7872 5.9136
L30.2106 7.1836
" />
</g></g>
<g style="fill:#A90000; fill-opacity:0.0; 
stroke:#A90000; stroke-width:0.1524; stroke-opacity:1; 
stroke-linecap:round; stroke-linejoin:round;">
<text x="32.2098" y="6.3501"
textLength="1.4127" font-size="1.6933" lengthAdjust="spacingAndGlyphs"
text-anchor="middle" opacity="0">1</text>
<g class="stroked-text"><desc>1</desc>
<path d="M32.5727 6.1866
L31.8470 6.1866
" />
<path d="M32.2098 6.1866
L32.2098 4.9166
" />
<path d="M32.2098 4.9166
L32.0889 5.0981
" />
<path d="M32.0889 5.0981
L31.9679 5.2190
" />
<path d="M31.9679 5.2190
L31.8470 5.2795
" />
</g></g>
<g style="fill:#840000; fill-opacity:0.0; 
stroke:#840000; stroke-width:0.1524; stroke-opacity:1; 
stroke-linecap:round; stroke-linejoin:round;">
<path d="M30.9398 9.1441
L33.4798 9.1441
" />
</g>
<g style="fill:#006464; fill-opacity:0.0; 
stroke:#006464; stroke-width:0.1524; stroke-opacity:1; 
stroke-linecap:round; stroke-linejoin:round;">
<text x="30.4318" y="9.7791"
textLength="3.7108" font-size="1.6933" lengthAdjust="spacingAndGlyphs"
text-anchor="end" opacity="0">SCL</text>
<g class="stroked-text"><desc>SCL</desc>
<path d="M27.0659 9.6632
L27.2473 9.7236
" />
<path d="M27.2473 9.7236
L27.5497 9.7236
" />
<path d="M27.5497 9.7236
L27.6706 9.6632
" />
<path d="M27.6706 9.6632
L27.7311 9.6027
" />
<path d="M27.7311 9.6027
L27.7916 9.4817
" />
<path d="M27.7916 9.4817
L27.7916 9.3608
" />
<path d="M27.7916 9.3608
L27.7311 9.2398
" />
<path d="M27.7311 9.2398
L27.6706 9.1793
" />
<path d="M27.6706 9.1793
L27.5497 9.1189
" />
<path d="M27.5497 9.1189
L27.3078 9.0584
" />
<path d="M27.3078 9.0584
L27.1868 8.9979
" />
<path d="M27.1868 8.9979
L27.1263 8.9374
" />
<path d="M27.1263 8.9374
L27.0659 8.8165
" />
<path d="M27.0659 8.8165
L27.0659 8.6955
" />
<path d="M27.0659 8.6955
L27.1263 8.5746
" />
<path d="M27.1263 8.5746
L27.1868 8.5141
" />
<path d="M27.1868 8.5141
L27.3078 8.4536
" />
<path d="M27.3078 8.4536
L27.6101 8.4536
" />
<path d="M27.6101 8.4536
L27.7916 8.5141
" />
<path d="M29.0615 9.6027
L29.0011 9.6632
" />
<path d="M29.0011 9.6632
L28.8196 9.7236
" />
<path d="M28.8196 9.7236
L28.6987 9.7236
" />
<path d="M28.6987 9.7236
L28.5173 9.6632
" />
<path d="M28.5173 9.6632
L28.3963 9.5422
" />
<path d="M28.3963 9.5422
L28.3358 9.4212
" />
<path d="M28.3358 9.4212
L28.2754 9.1793
" />
<path d="M28.2754 9.1793
L28.2754 8.9979
" />
<path d="M28.2754 8.9979
L28.3358 8.7560
" />
<path d="M28.3358 8.7560
L28.3963 8.6351
" />
<path d="M28.3963 8.6351
L28.5173 8.5141
" />
<path d="M28.5173 8.5141
L28.6987 8.4536
" />
<path d="M28.6987 8.4536
L28.8196 8.4536
" />
<path d="M28.8196 8.4536
L29.0011 8.5141
" />
<path d="M29.0011 8.5141
L29.0615 8.5746
" />
<path d="M30.2106 9.7236
L29.6058 9.7236
" />
<path d="M29.6058 9.7236
L29.6058 8.4536
" />
</g></g>
<g style="fill:#A90000; fill-opacity:0.0; 
stroke:#A90000; stroke-width:0.1524; stroke-opacity:1; 
stroke-linecap:round; stroke-linejoin:round;">
<text x="32.2098" y="8.8901"
textLength="1.4127" font-size="1.6933" lengthAdjust="spacingAndGlyphs"
text-anchor="middle" opacity="0">2</text>
<g class="stroked-text"><desc>2</desc>
<path d="M31.8470 7.5776
L31.9074 7.5171
" />
<path d="M31.9074 7.5171
L32.0284 7.4566
" />
<path d="M32.0284 7.4566
L32.3308 7.4566
" />
<path d="M32.3308 7.4566
L32.4517 7.5171
" />
<path d="M32.4517 7.5171
L32.5122 7.5776
" />
<path d="M32.5122 7.5776
L32.5727 7.6985
" />
<path d="M32.5727 7.6985
L32.5727 7.8195
" />
<path d="M32.5727 7.8195
L32.5122 8.0009
" />
<path d="M32.5122 8.0009
L31.7865 8.7266
" />
<path d="M31.7865 8.7266
L32.5727 8.7266
" />
</g></g>
<g style="fill:#840000; fill-opacity:0.0; 
stroke:#840000; stroke-width:0.1524; stroke-opacity:1; 
stroke-linecap:round; stroke-linejoin:round;">
<path d="M30.9398 11.6841
L33.4798 11.6841
" />
</g>
<g style="fill:#006464; fill-opacity:0.0; 
stroke:#006464; stroke-width:0.1524; stroke-opacity:1; 
stroke-linecap:round; stroke-linejoin:round;">
<text x="30.4318" y="12.3191"
textLength="5.7065" font-size="1.6933" lengthAdjust="spacingAndGlyphs"
text-anchor="end" opacity="0">ALERT</text>
<g class="stroked-text"><desc>ALERT</desc>
<path d="M25.0702 11.9008
L25.6749 11.9008
" />
<path d="M24.9492 12.2636
L25.3725 10.9936
" />
<path d="M25.3725 10.9936
L25.7959 12.2636
" />
<path d="M26.8240 12.2636
L26.2192 12.2636
" />
<path d="M26.2192 12.2636
L26.2192 10.9936
" />
<path d="M27.2473 11.5984
L27.6707 11.5984
" />
<path d="M27.8521 12.2636
L27.2473 12.2636
" />
<path d="M27.2473 12.2636
L27.2473 10.9936
" />
<path d="M27.2473 10.9936
L27.8521 10.9936
" />
<path d="M29.1220 12.2636
L28.6987 11.6589
" />
<path d="M28.3963 12.2636
L28.3963 10.9936
" />
<path d="M28.3963 10.9936
L28.8801 10.9936
" />
<path d="M28.8801 10.9936
L29.0011 11.0541
" />
<path d="M29.0011 11.0541
L29.0616 11.1146
" />
<path d="M29.0616 11.1146
L29.1220 11.2355
" />
<path d="M29.1220 11.2355
L29.1220 11.4170
" />
<path d="M29.1220 11.4170
L29.0616 11.5379
" />
<path d="M29.0616 11.5379
L29.0011 11.5984
" />
<path d="M29.0011 11.5984
L28.8801 11.6589
" />
<path d="M28.8801 11.6589
L28.3963 11.6589
" />
<path d="M29.4849 10.9936
L30.2106 10.9936
" />
<path d="M29.8478 12.2636
L29.8478 10.9936
" />
</g></g>
<g style="fill:#A90000; fill-opacity:0.0; 
stroke:#A90000; stroke-width:0.1524; stroke-opacity:1; 
stroke-linecap:round; stroke-linejoin:round;">
<text x="32.2098" y="11.4301"
textLength="1.4127" font-size="1.6933" lengthAdjust="spacingAndGlyphs"
text-anchor="middle" opacity="0">3</text>
<g class="stroked-text"><desc>3</desc>
<path d="M31.7865 9.9966
L32.5727 9.9966
" />
<path d="M32.5727 9.9966
L32.1493 10.4804
" />
<path d="M32.1493 10.4804
L32.3308 10.4804
" />
<path d="M32.3308 10.4804
L32.4517 10.5409
" />
<path d="M32.4517 10.5409
L32.5122 10.6014
" />
<path d="M32.5122 10.6014
L32.5727 10.7223
" />
<path d="M32.5727 10.7223
L32.5727 11.0247
" />
<path d="M32.5727 11.0247
L32.5122 11.1457
" />
<path d="M32.5122 11.1457
L32.4517 11.2062
" />
<path d="M32.4517 11.2062
L32.3308 11.2666
" />
<path d="M32.3308 11.2666
L31.9679 11.2666
" />
<path d="M31.9679 11.2666
L31.8470 11.2062
" />
<path d="M31.8470 11.2062
L31.7865 11.1457
" />
</g></g>
<g style="fill:#840000; fill-opacity:0.0; 
stroke:#840000; stroke-width:0.1524; stroke-opacity:1; 
stroke-linecap:round; stroke-linejoin:round;">
<path d="M23.3198 14.2241
L23.3198 16.7641
" />
</g>
<g style="fill:#006464; fill-opacity:0.0; 
stroke:#006464; stroke-width:0.1524; stroke-opacity:1; 
stroke-linecap:round; stroke-linejoin:round;">
<g transform="rotate(-90.000000 23.3198 13.7161)">
<text x="23.3198" y="14.3511"
textLength="4.0737" font-size="1.6933" lengthAdjust="spacingAndGlyphs"
text-anchor="start" opacity="0">GND</text>
</g>
<g class="stroked-text"><desc>GND</desc>
<path d="M22.6898 12.6482
L22.6293 12.7692
" />
<path d="M22.6293 12.7692
L22.6293 12.9506
" />
<path d="M22.6293 12.9506
L22.6898 13.1320
" />
<path d="M22.6898 13.1320
L22.8108 13.2530
" />
<path d="M22.8108 13.2530
L22.9317 13.3135
" />
<path d="M22.9317 13.3135
L23.1736 13.3739
" />
<path d="M23.1736 13.3739
L23.3550 13.3739
" />
<path d="M23.3550 13.3739
L23.5969 13.3135
" />
<path d="M23.5969 13.3135
L23.7179 13.2530
" />
<path d="M23.7179 13.2530
L23.8389 13.1320
" />
<path d="M23.8389 13.1320
L23.8993 12.9506
" />
<path d="M23.8993 12.9506
L23.8993 12.8297
" />
<path d="M23.8993 12.8297
L23.8389 12.6482
" />
<path d="M23.8389 12.6482
L23.7784 12.5878
" />
<path d="M23.7784 12.5878
L23.3550 12.5878
" />
<path d="M23.3550 12.5878
L23.3550 12.8297
" />
<path d="M23.8993 12.0435
L22.6293 12.0435
" />
<path d="M22.6293 12.0435
L23.8993 11.3178
" />
<path d="M23.8993 11.3178
L22.6293 11.3178
" />
<path d="M23.8993 10.7130
L22.6293 10.7130
" />
<path d="M22.6293 10.7130
L22.6293 10.4106
" />
<path d="M22.6293 10.4106
L22.6898 10.2292
" />
<path d="M22.6898 10.2292
L22.8108 10.1082
" />
<path d="M22.8108 10.1082
L22.9317 10.0477
" />
<path d="M22.9317 10.0477
L23.1736 9.9873
" />
<path d="M23.1736 9.9873
L23.3550 9.9873
" />
<path d="M23.3550 9.9873
L23.5969 10.0477
" />
<path d="M23.5969 10.0477
L23.7179 10.1082
" />
<path d="M23.7179 10.1082
L23.8389 10.2292
" />
<path d="M23.8389 10.2292
L23.8993 10.4106
" />
<path d="M23.8993 10.4106
L23.8993 10.7130
" />
</g></g>
<g style="fill:#A90000; fill-opacity:0.0; 
stroke:#A90000; stroke-width:0.1524; stroke-opacity:1; 
stroke-linecap:round; stroke-linejoin:round;">
<g transform="rotate(-90.000000 23.0658 15.4941)">
<text x="23.0658" y="15.4941"
textLength="1.4127" font-size="1.6933" lengthAdjust="spacingAndGlyphs"
text-anchor="middle" opacity="0">4</text>
</g>
<g class="stroked-text"><desc>4</desc>
<path d="M22.0557 15.2521
L22.9023 15.2521
" />
<path d="M21.5719 15.5545
L22.4790 15.8568
" />
<path d="M22.4790 15.8568
L22.4790 15.0707
" />
</g></g>
<g style="fill:#840000; fill-opacity:0.0; 
stroke:#840000; stroke-width:0.1524; stroke-opacity:1; 
stroke-linecap:round; stroke-linejoin:round;">
<path d="M15.6998 11.6841
L13.1598 11.6841
" />
</g>
<g style="fill:#006464; fill-opacity:0.0; 
stroke:#006464; stroke-width:0.1524; stroke-opacity:1; 
stroke-linecap:round; stroke-linejoin:round;">
<text x="16.2078" y="12.3191"
textLength="2.5013" font-size="1.6933" lengthAdjust="spacingAndGlyphs"
text-anchor="start" opacity="0">A2</text>
<g class="stroked-text"><desc>A2</desc>
<path d="M16.5499 11.9008
L17.1546 11.9008
" />
<path d="M16.4289 12.2636
L16.8522 10.9936
" />
<path d="M16.8522 10.9936
L17.2756 12.2636
" />
<path d="M17.6385 11.1146
L17.6989 11.0541
" />
<path d="M17.6989 11.0541
L17.8199 10.9936
" />
<path d="M17.8199 10.9936
L18.1223 10.9936
" />
<path d="M18.1223 10.9936
L18.2432 11.0541
" />
<path d="M18.2432 11.0541
L18.3037 11.1146
" />
<path d="M18.3037 11.1146
L18.3642 11.2355
" />
<path d="M18.3642 11.2355
L18.3642 11.3565
" />
<path d="M18.3642 11.3565
L18.3037 11.5379
" />
<path d="M18.3037 11.5379
L17.5780 12.2636
" />
<path d="M17.5780 12.2636
L18.3642 12.2636
" />
</g></g>
<g style="fill:#A90000; fill-opacity:0.0; 
stroke:#A90000; stroke-width:0.1524; stroke-opacity:1; 
stroke-linecap:round; stroke-linejoin:round;">
<text x="14.4298" y="11.4301"
textLength="1.4127" font-size="1.6933" lengthAdjust="spacingAndGlyphs"
text-anchor="middle" opacity="0">5</text>
<g class="stroked-text"><desc>5</desc>
<path d="M14.7322 9.9966
L14.1274 9.9966
" />
<path d="M14.1274 9.9966
L14.0670 10.6014
" />
<path d="M14.0670 10.6014
L14.1274 10.5409
" />
<path d="M14.1274 10.5409
L14.2484 10.4804
" />
<path d="M14.2484 10.4804
L14.5508 10.4804
" />
<path d="M14.5508 10.4804
L14.6717 10.5409
" />
<path d="M14.6717 10.5409
L14.7322 10.6014
" />
<path d="M14.7322 10.6014
L14.7927 10.7223
" />
<path d="M14.7927 10.7223
L14.7927 11.0247
" />
<path d="M14.7927 11.0247
L14.7322 11.1457
" />
<path d="M14.7322 11.1457
L14.6717 11.2062
" />
<path d="M14.6717 11.2062
L14.5508 11.2666
" />
<path d="M14.5508 11.2666
L14.2484 11.2666
" />
<path d="M14.2484 11.2666
L14.1274 11.2062
" />
<path d="M14.1274 11.2062
L14.0670 11.1457
" />
</g></g>
<g style="fill:#840000; fill-opacity:0.0; 
stroke:#840000; stroke-width:0.1524; stroke-opacity:1; 
stroke-linecap:round; stroke-linejoin:round;">
<path d="M15.6998 9.1441
L13.1598 9.1441
" />
</g>
<g style="fill:#006464; fill-opacity:0.0; 
stroke:#006464; stroke-width:0.1524; stroke-opacity:1; 
stroke-linecap:round; stroke-linejoin:round;">
<text x="16.2078" y="9.7791"
textLength="2.5013" font-size="1.6933" lengthAdjust="spacingAndGlyphs"
text-anchor="start" opacity="0">A1</text>
<g class="stroked-text"><desc>A1</desc>
<path d="M16.5499 9.3608
L17.1546 9.3608
" />
<path d="M16.4289 9.7236
L16.8522 8.4536
" />
<path d="M16.8522 8.4536
L17.2756 9.7236
" />
<path d="M18.3642 9.7236
L17.6385 9.7236
" />
<path d="M18.0013 9.7236
L18.0013 8.4536
" />
<path d="M18.0013 8.4536
L17.8804 8.6351
" />
<path d="M17.8804 8.6351
L17.7594 8.7560
" />
<path d="M17.7594 8.7560
L17.6385 8.8165
" />
</g></g>
<g style="fill:#A90000; fill-opacity:0.0; 
stroke:#A90000; stroke-width:0.1524; stroke-opacity:1; 
stroke-linecap:round; stroke-linejoin:round;">
<text x="14.4298" y="8.8901"
textLength="1.4127" font-size="1.6933" lengthAdjust="spacingAndGlyphs"
text-anchor="middle" opacity="0">6</text>
<g class="stroked-text"><desc>6</desc>
<path d="M14.6717 7.4566
L14.4298 7.4566
" />
<path d="M14.4298 7.4566
L14.3089 7.5171
" />
<path d="M14.3089 7.5171
L14.2484 7.5776
" />
<path d="M14.2484 7.5776
L14.1274 7.7590
" />
<path d="M14.1274 7.7590
L14.0670 8.0009
" />
<path d="M14.0670 8.0009
L14.0670 8.4847
" />
<path d="M14.0670 8.4847
L14.1274 8.6057
" />
<path d="M14.1274 8.6057
L14.1879 8.6662
" />
<path d="M14.1879 8.6662
L14.3089 8.7266
" />
<path d="M14.3089 8.7266
L14.5508 8.7266
" />
<path d="M14.5508 8.7266
L14.6717 8.6662
" />
<path d="M14.6717 8.6662
L14.7322 8.6057
" />
<path d="M14.7322 8.6057
L14.7927 8.4847
" />
<path d="M14.7927 8.4847
L14.7927 8.1823
" />
<path d="M14.7927 8.1823
L14.7322 8.0614
" />
<path d="M14.7322 8.0614
L14.6717 8.0009
" />
<path d="M14.6717 8.0009
L14.5508 7.9404
" />
<path d="M14.5508 7.9404
L14.3089 7.9404
" />
<path d="M14.3089 7.9404
L14.1879 8.0009
" />
<path d="M14.1879 8.0009
L14.1274 8.0614
" />
<path d="M14.1274 8.0614
L14.0670 8.1823
" />
</g></g>
<g style="fill:#840000; fill-opacity:0.0; 
stroke:#840000; stroke-width:0.1524; stroke-opacity:1; 
stroke-linecap:round; stroke-linejoin:round;">
<path d="M15.6998 6.6041
L13.1598 6.6041
" />
</g>
<g style="fill:#006464; fill-opacity:0.0; 
stroke:#006464; stroke-width:0.1524; stroke-opacity:1; 
stroke-linecap:round; stroke-linejoin:round;">
<text x="16.2078" y="7.2391"
textLength="2.5013" font-size="1.6933" lengthAdjust="spacingAndGlyphs"
text-anchor="start" opacity="0">A0</text>
<g class="stroked-text"><desc>A0</desc>
<path d="M16.5499 6.8208
L17.1546 6.8208
" />
<path d="M16.4289 7.1836
L16.8522 5.9136
" />
<path d="M16.8522 5.9136
L17.2756 7.1836
" />
<path d="M17.9408 5.9136
L18.0618 5.9136
" />
<path d="M18.0618 5.9136
L18.1827 5.9741
" />
<path d="M18.1827 5.9741
L18.2432 6.0346
" />
<path d="M18.2432 6.0346
L18.3037 6.1555
" />
<path d="M18.3037 6.1555
L18.3642 6.3974
" />
<path d="M18.3642 6.3974
L18.3642 6.6998
" />
<path d="M18.3642 6.6998
L18.3037 6.9417
" />
<path d="M18.3037 6.9417
L18.2432 7.0627
" />
<path d="M18.2432 7.0627
L18.1827 7.1232
" />
<path d="M18.1827 7.1232
L18.0618 7.1836
" />
<path d="M18.0618 7.1836
L17.9408 7.1836
" />
<path d="M17.9408 7.1836
L17.8199 7.1232
" />
<path d="M17.8199 7.1232
L17.7594 7.0627
" />
<path d="M17.7594 7.0627
L17.6989 6.9417
" />
<path d="M17.6989 6.9417
L17.6385 6.6998
" />
<path d="M17.6385 6.6998
L17.6385 6.3974
" />
<path d="M17.6385 6.3974
L17.6989 6.1555
" />
<path d="M17.6989 6.1555
L17.7594 6.0346
" />
<path d="M17.7594 6.0346
L17.8199 5.9741
" />
<path d="M17.8199 5.9741
L17.9408 5.9136
" />
</g></g>
<g style="fill:#A90000; fill-opacity:0.0; 
stroke:#A90000; stroke-width:0.1524; stroke-opacity:1; 
stroke-linecap:round; stroke-linejoin:round;">
<text x="14.4298" y="6.3501"
textLength="1.4127" font-size="1.6933" lengthAdjust="spacingAndGlyphs"
text-anchor="middle" opacity="0">7</text>
<g class="stroked-text"><desc>7</desc>
<path d="M14.0065 4.9166
L14.8531 4.9166
" />
<path d="M14.8531 4.9166
L14.3089 6.1866
" />
</g></g>
<g style="fill:#840000; fill-opacity:0.0; 
stroke:#840000; stroke-width:0.1524; stroke-opacity:1; 
stroke-linecap:round; stroke-linejoin:round;">
<path d="M23.3198 4.0641
L23.3198 1.5241
" />
</g>
<g style="fill:#006464; fill-opacity:0.0; 
stroke:#006464; stroke-width:0.1524; stroke-opacity:1; 
stroke-linecap:round; stroke-linejoin:round;">
<g transform="rotate(-90.000000 23.3198 4.5721)">
<text x="23.3198" y="5.2071"
textLength="2.8642" font-size="1.6933" lengthAdjust="spacingAndGlyphs"
text-anchor="end" opacity="0">V+</text>
</g>
<g class="stroked-text"><desc>V+</desc>
<path d="M22.6293 7.2123
L23.8993 6.7890
" />
<path d="M23.8993 6.7890
L22.6293 6.3656
" />
<path d="M23.4155 5.9423
L23.4155 4.9747
" />
<path d="M23.8993 5.4585
L22.9317 5.4585
" />
</g></g>
<g style="fill:#A90000; fill-opacity:0.0; 
stroke:#A90000; stroke-width:0.1524; stroke-opacity:1; 
stroke-linecap:round; stroke-linejoin:round;">
<g transform="rotate(-90.000000 23.0658 2.7941)">
<text x="23.0658" y="2.7941"
textLength="1.4127" font-size="1.6933" lengthAdjust="spacingAndGlyphs"
text-anchor="middle" opacity="0">8</text>
</g>
<g class="stroked-text"><desc>8</desc>
<path d="M22.1766 2.9149
L22.1161 3.0359
" />
<path d="M22.1161 3.0359
L22.0557 3.0964
" />
<path d="M22.0557 3.0964
L21.9347 3.1568
" />
<path d="M21.9347 3.1568
L21.8742 3.1568
" />
<path d="M21.8742 3.1568
L21.7533 3.0964
" />
<path d="M21.7533 3.0964
L21.6928 3.0359
" />
<path d="M21.6928 3.0359
L21.6323 2.9149
" />
<path d="M21.6323 2.9149
L21.6323 2.6730
" />
<path d="M21.6323 2.6730
L21.6928 2.5521
" />
<path d="M21.6928 2.5521
L21.7533 2.4916
" />
<path d="M21.7533 2.4916
L21.8742 2.4311
" />
<path d="M21.8742 2.4311
L21.9347 2.4311
" />
<path d="M21.9347 2.4311
L22.0557 2.4916
" />
<path d="M22.0557 2.4916
L22.1161 2.5521
" />
<path d="M22.1161 2.5521
L22.1766 2.6730
" />
<path d="M22.1766 2.6730
L22.1766 2.9149
" />
<path d="M22.1766 2.9149
L22.2371 3.0359
" />
<path d="M22.2371 3.0359
L22.2976 3.0964
" />
<path d="M22.2976 3.0964
L22.4185 3.1568
" />
<path d="M22.4185 3.1568
L22.6604 3.1568
" />
<path d="M22.6604 3.1568
L22.7814 3.0964
" />
<path d="M22.7814 3.0964
L22.8419 3.0359
" />
<path d="M22.8419 3.0359
L22.9023 2.9149
" />
<path d="M22.9023 2.9149
L22.9023 2.6730
" />
<path d="M22.9023 2.6730
L22.8419 2.5521
" />
<path d="M22.8419 2.5521
L22.7814 2.4916
" />
<path d="M22.7814 2.4916
L22.6604 2.4311
" />
<path d="M22.6604 2.4311
L22.4185 2.4311
" />
<path d="M22.4185 2.4311
L22.2976 2.4916
" />
<path d="M22.2976 2.4916
L22.2371 2.5521
" />
<path d="M22.2371 2.5521
L22.1766 2.6730
" />
</g></g>
<g style="fill:#840084; fill-opacity:0.0; 
stroke:#840084; stroke-width:0.1524; stroke-opacity:1; 
stroke-linecap:round; stroke-linejoin:round;">
</g>
<g style="fill:#006464; fill-opacity:0.0; 
stroke:#006464; stroke-width:0.1524; stroke-opacity:1; 
stroke-linecap:round; stroke-linejoin:round;">
</g>
<g style="fill:#006464; fill-opacity:0.0; 
stroke:#006464; stroke-width:0.1588; stroke-opacity:1; 
stroke-linecap:round; stroke-linejoin:round;">
<text x="16.9698" y="3.4291"
textLength="2.6415" font-size="1.6933" lengthAdjust="spacingAndGlyphs"
text-anchor="middle" opacity="0">U?</text>
<g class="stroked-text"><desc>U?</desc>
<path d="M16.0626 2.1033
L16.0626 3.1314
" />
<path d="M16.0626 3.1314
L16.1231 3.2524
" />
<path d="M16.1231 3.2524
L16.1836 3.3129
" />
<path d="M16.1836 3.3129
L16.3045 3.3733
" />
<path d="M16.3045 3.3733
L16.5464 3.3733
" />
<path d="M16.5464 3.3733
L16.6674 3.3129
" />
<path d="M16.6674 3.3129
L16.7279 3.2524
" />
<path d="M16.7279 3.2524
L16.7883 3.1314
" />
<path d="M16.7883 3.1314
L16.7883 2.1033
" />
<path d="M17.5746 3.2524
L17.6350 3.3129
" />
<path d="M17.6350 3.3129
L17.5746 3.3733
" />
<path d="M17.5746 3.3733
L17.5141 3.3129
" />
<path d="M17.5141 3.3129
L17.5746 3.2524
" />
<path d="M17.5746 3.2524
L17.5746 3.3733
" />
<path d="M17.3327 2.1638
L17.4536 2.1033
" />
<path d="M17.4536 2.1033
L17.7560 2.1033
" />
<path d="M17.7560 2.1033
L17.8769 2.1638
" />
<path d="M17.8769 2.1638
L17.9374 2.2848
" />
<path d="M17.9374 2.2848
L17.9374 2.4057
" />
<path d="M17.9374 2.4057
L17.8769 2.5267
" />
<path d="M17.8769 2.5267
L17.8165 2.5871
" />
<path d="M17.8165 2.5871
L17.6955 2.6476
" />
<path d="M17.6955 2.6476
L17.6350 2.7081
" />
<path d="M17.6350 2.7081
L17.5746 2.8290
" />
<path d="M17.5746 2.8290
L17.5746 2.8895
" />
</g><text x="29.6698" y="3.4291"
textLength="10.0194" font-size="1.6933" lengthAdjust="spacingAndGlyphs"
text-anchor="middle" opacity="0">TMP1075D</text>
<g class="stroked-text"><desc>TMP1075D</desc>
<path d="M24.8922 2.1033
L25.6179 2.1033
" />
<path d="M25.2551 3.3733
L25.2551 2.1033
" />
<path d="M26.0412 3.3733
L26.0412 2.1033
" />
<path d="M26.0412 2.1033
L26.4646 3.0105
" />
<path d="M26.4646 3.0105
L26.8879 2.1033
" />
<path d="M26.8879 2.1033
L26.8879 3.3733
" />
<path d="M27.4926 3.3733
L27.4926 2.1033
" />
<path d="M27.4926 2.1033
L27.9764 2.1033
" />
<path d="M27.9764 2.1033
L28.0974 2.1638
" />
<path d="M28.0974 2.1638
L28.1579 2.2243
" />
<path d="M28.1579 2.2243
L28.2183 2.3452
" />
<path d="M28.2183 2.3452
L28.2183 2.5267
" />
<path d="M28.2183 2.5267
L28.1579 2.6476
" />
<path d="M28.1579 2.6476
L28.0974 2.7081
" />
<path d="M28.0974 2.7081
L27.9764 2.7686
" />
<path d="M27.9764 2.7686
L27.4926 2.7686
" />
<path d="M29.4279 3.3733
L28.7022 3.3733
" />
<path d="M29.0650 3.3733
L29.0650 2.1033
" />
<path d="M29.0650 2.1033
L28.9441 2.2848
" />
<path d="M28.9441 2.2848
L28.8231 2.4057
" />
<path d="M28.8231 2.4057
L28.7022 2.4662
" />
<path d="M30.2140 2.1033
L30.3350 2.1033
" />
<path d="M30.3350 2.1033
L30.4559 2.1638
" />
<path d="M30.4559 2.1638
L30.5164 2.2243
" />
<path d="M30.5164 2.2243
L30.5769 2.3452
" />
<path d="M30.5769 2.3452
L30.6374 2.5871
" />
<path d="M30.6374 2.5871
L30.6374 2.8895
" />
<path d="M30.6374 2.8895
L30.5769 3.1314
" />
<path d="M30.5769 3.1314
L30.5164 3.2524
" />
<path d="M30.5164 3.2524
L30.4559 3.3129
" />
<path d="M30.4559 3.3129
L30.3350 3.3733
" />
<path d="M30.3350 3.3733
L30.2140 3.3733
" />
<path d="M30.2140 3.3733
L30.0931 3.3129
" />
<path d="M30.0931 3.3129
L30.0326 3.2524
" />
<path d="M30.0326 3.2524
L29.9721 3.1314
" />
<path d="M29.9721 3.1314
L29.9117 2.8895
" />
<path d="M29.9117 2.8895
L29.9117 2.5871
" />
<path d="M29.9117 2.5871
L29.9721 2.3452
" />
<path d="M29.9721 2.3452
L30.0326 2.2243
" />
<path d="M30.0326 2.2243
L30.0931 2.1638
" />
<path d="M30.0931 2.1638
L30.2140 2.1033
" />
<path d="M31.0607 2.1033
L31.9073 2.1033
" />
<path d="M31.9073 2.1033
L31.3631 3.3733
" />
<path d="M32.9959 2.1033
L32.3911 2.1033
" />
<path d="M32.3911 2.1033
L32.3307 2.7081
" />
<path d="M32.3307 2.7081
L32.3911 2.6476
" />
<path d="M32.3911 2.6476
L32.5121 2.5871
" />
<path d="M32.5121 2.5871
L32.8145 2.5871
" />
<path d="M32.8145 2.5871
L32.9354 2.6476
" />
<path d="M32.9354 2.6476
L32.9959 2.7081
" />
<path d="M32.9959 2.7081
L33.0564 2.8290
" />
<path d="M33.0564 2.8290
L33.0564 3.1314
" />
<path d="M33.0564 3.1314
L32.9959 3.2524
" />
<path d="M32.9959 3.2524
L32.9354 3.3129
" />
<path d="M32.9354 3.3129
L32.8145 3.3733
" />
<path d="M32.8145 3.3733
L32.5121 3.3733
" />
<path d="M32.5121 3.3733
L32.3911 3.3129
" />
<path d="M32.3911 3.3129
L32.3307 3.2524
" />
<path d="M33.6006 3.3733
L33.6006 2.1033
" />
<path d="M33.6006 2.1033
L33.9030 2.1033
" />
<path d="M33.9030 2.1033
L34.0844 2.1638
" />
<path d="M34.0844 2.1638
L34.2054 2.2848
" />
<path d="M34.2054 2.2848
L34.2659 2.4057
" />
<path d="M34.2659 2.4057
L34.3263 2.6476
" />
<path d="M34.3263 2.6476
L34.3263 2.8290
" />
<path d="M34.3263 2.8290
L34.2659 3.0709
" />
<path d="M34.2659 3.0709
L34.2054 3.1919
" />
<path d="M34.2054 3.1919
L34.0844 3.3129
" />
<path d="M34.0844 3.3129
L33.9030 3.3733
" />
<path d="M33.9030 3.3733
L33.6006 3.3733
" />
</g></g>
<g style="fill:#840084; fill-opacity:0.0; 
stroke:#840084; stroke-width:0.1588; stroke-opacity:1; 
stroke-linecap:round; stroke-linejoin:round;">
<text x="23.3198" y="16.1291"
textLength="38.8664" font-size="1.6933" lengthAdjust="spacingAndGlyphs"
text-anchor="middle" opacity="0">Package_SO:SO-8_3.9x4.9mm_P1.27mm</text>
<g class="stroked-text"><desc>Package_SO:SO-8_3.9x4.9mm_P1.27mm</desc>
<path d="M4.3001 16.0733
L4.3001 14.8033
" />
<path d="M4.3001 14.8033
L4.7839 14.8033
" />
<path d="M4.7839 14.8033
L4.9049 14.8638
" />
<path d="M4.9049 14.8638
L4.9654 14.9243
" />
<path d="M4.9654 14.9243
L5.0258 15.0452
" />
<path d="M5.0258 15.0452
L5.0258 15.2267
" />
<path d="M5.0258 15.2267
L4.9654 15.3476
" />
<path d="M4.9654 15.3476
L4.9049 15.4081
" />
<path d="M4.9049 15.4081
L4.7839 15.4686
" />
<path d="M4.7839 15.4686
L4.3001 15.4686
" />
<path d="M6.1144 16.0733
L6.1144 15.4081
" />
<path d="M6.1144 15.4081
L6.0539 15.2871
" />
<path d="M6.0539 15.2871
L5.9330 15.2267
" />
<path d="M5.9330 15.2267
L5.6911 15.2267
" />
<path d="M5.6911 15.2267
L5.5701 15.2871
" />
<path d="M6.1144 16.0129
L5.9935 16.0733
" />
<path d="M5.9935 16.0733
L5.6911 16.0733
" />
<path d="M5.6911 16.0733
L5.5701 16.0129
" />
<path d="M5.5701 16.0129
L5.5097 15.8919
" />
<path d="M5.5097 15.8919
L5.5097 15.7709
" />
<path d="M5.5097 15.7709
L5.5701 15.6500
" />
<path d="M5.5701 15.6500
L5.6911 15.5895
" />
<path d="M5.6911 15.5895
L5.9935 15.5895
" />
<path d="M5.9935 15.5895
L6.1144 15.5290
" />
<path d="M7.2634 16.0129
L7.1425 16.0733
" />
<path d="M7.1425 16.0733
L6.9006 16.0733
" />
<path d="M6.9006 16.0733
L6.7796 16.0129
" />
<path d="M6.7796 16.0129
L6.7191 15.9524
" />
<path d="M6.7191 15.9524
L6.6587 15.8314
" />
<path d="M6.6587 15.8314
L6.6587 15.4686
" />
<path d="M6.6587 15.4686
L6.7191 15.3476
" />
<path d="M6.7191 15.3476
L6.7796 15.2871
" />
<path d="M6.7796 15.2871
L6.9006 15.2267
" />
<path d="M6.9006 15.2267
L7.1425 15.2267
" />
<path d="M7.1425 15.2267
L7.2634 15.2871
" />
<path d="M7.8077 16.0733
L7.8077 14.8033
" />
<path d="M7.9287 15.5895
L8.2915 16.0733
" />
<path d="M8.2915 15.2267
L7.8077 15.7105
" />
<path d="M9.3801 16.0733
L9.3801 15.4081
" />
<path d="M9.3801 15.4081
L9.3196 15.2871
" />
<path d="M9.3196 15.2871
L9.1987 15.2267
" />
<path d="M9.1987 15.2267
L8.9568 15.2267
" />
<path d="M8.9568 15.2267
L8.8358 15.2871
" />
<path d="M9.3801 16.0129
L9.2592 16.0733
" />
<path d="M9.2592 16.0733
L8.9568 16.0733
" />
<path d="M8.9568 16.0733
L8.8358 16.0129
" />
<path d="M8.8358 16.0129
L8.7754 15.8919
" />
<path d="M8.7754 15.8919
L8.7754 15.7709
" />
<path d="M8.7754 15.7709
L8.8358 15.6500
" />
<path d="M8.8358 15.6500
L8.9568 15.5895
" />
<path d="M8.9568 15.5895
L9.2592 15.5895
" />
<path d="M9.2592 15.5895
L9.3801 15.5290
" />
<path d="M10.5291 15.2267
L10.5291 16.2548
" />
<path d="M10.5291 16.2548
L10.4686 16.3757
" />
<path d="M10.4686 16.3757
L10.4082 16.4362
" />
<path d="M10.4082 16.4362
L10.2872 16.4967
" />
<path d="M10.2872 16.4967
L10.1058 16.4967
" />
<path d="M10.1058 16.4967
L9.9848 16.4362
" />
<path d="M10.5291 16.0129
L10.4082 16.0733
" />
<path d="M10.4082 16.0733
L10.1663 16.0733
" />
<path d="M10.1663 16.0733
L10.0453 16.0129
" />
<path d="M10.0453 16.0129
L9.9848 15.9524
" />
<path d="M9.9848 15.9524
L9.9244 15.8314
" />
<path d="M9.9244 15.8314
L9.9244 15.4686
" />
<path d="M9.9244 15.4686
L9.9848 15.3476
" />
<path d="M9.9848 15.3476
L10.0453 15.2871
" />
<path d="M10.0453 15.2871
L10.1663 15.2267
" />
<path d="M10.1663 15.2267
L10.4082 15.2267
" />
<path d="M10.4082 15.2267
L10.5291 15.2871
" />
<path d="M11.6176 16.0129
L11.4967 16.0733
" />
<path d="M11.4967 16.0733
L11.2548 16.0733
" />
<path d="M11.2548 16.0733
L11.1338 16.0129
" />
<path d="M11.1338 16.0129
L11.0734 15.8919
" />
<path d="M11.0734 15.8919
L11.0734 15.4081
" />
<path d="M11.0734 15.4081
L11.1338 15.2871
" />
<path d="M11.1338 15.2871
L11.2548 15.2267
" />
<path d="M11.2548 15.2267
L11.4967 15.2267
" />
<path d="M11.4967 15.2267
L11.6176 15.2871
" />
<path d="M11.6176 15.2871
L11.6781 15.4081
" />
<path d="M11.6781 15.4081
L11.6781 15.5290
" />
<path d="M11.6781 15.5290
L11.0734 15.6500
" />
<path d="M11.9201 16.1943
L12.8877 16.1943
" />
<path d="M13.1296 16.0129
L13.3110 16.0733
" />
<path d="M13.3110 16.0733
L13.6134 16.0733
" />
<path d="M13.6134 16.0733
L13.7343 16.0129
" />
<path d="M13.7343 16.0129
L13.7948 15.9524
" />
<path d="M13.7948 15.9524
L13.8553 15.8314
" />
<path d="M13.8553 15.8314
L13.8553 15.7105
" />
<path d="M13.8553 15.7105
L13.7948 15.5895
" />
<path d="M13.7948 15.5895
L13.7343 15.5290
" />
<path d="M13.7343 15.5290
L13.6134 15.4686
" />
<path d="M13.6134 15.4686
L13.3715 15.4081
" />
<path d="M13.3715 15.4081
L13.2505 15.3476
" />
<path d="M13.2505 15.3476
L13.1900 15.2871
" />
<path d="M13.1900 15.2871
L13.1296 15.1662
" />
<path d="M13.1296 15.1662
L13.1296 15.0452
" />
<path d="M13.1296 15.0452
L13.1900 14.9243
" />
<path d="M13.1900 14.9243
L13.2505 14.8638
" />
<path d="M13.2505 14.8638
L13.3715 14.8033
" />
<path d="M13.3715 14.8033
L13.6738 14.8033
" />
<path d="M13.6738 14.8033
L13.8553 14.8638
" />
<path d="M14.6414 14.8033
L14.8833 14.8033
" />
<path d="M14.8833 14.8033
L15.0043 14.8638
" />
<path d="M15.0043 14.8638
L15.1252 14.9848
" />
<path d="M15.1252 14.9848
L15.1857 15.2267
" />
<path d="M15.1857 15.2267
L15.1857 15.6500
" />
<path d="M15.1857 15.6500
L15.1252 15.8919
" />
<path d="M15.1252 15.8919
L15.0043 16.0129
" />
<path d="M15.0043 16.0129
L14.8833 16.0733
" />
<path d="M14.8833 16.0733
L14.6414 16.0733
" />
<path d="M14.6414 16.0733
L14.5205 16.0129
" />
<path d="M14.5205 16.0129
L14.3995 15.8919
" />
<path d="M14.3995 15.8919
L14.3391 15.6500
" />
<path d="M14.3391 15.6500
L14.3391 15.2267
" />
<path d="M14.3391 15.2267
L14.3995 14.9848
" />
<path d="M14.3995 14.9848
L14.5205 14.8638
" />
<path d="M14.5205 14.8638
L14.6414 14.8033
" />
<path d="M15.7300 15.9524
L15.7905 16.0129
" />
<path d="M15.7905 16.0129
L15.7300 16.0733
" />
<path d="M15.7300 16.0733
L15.6696 16.0129
" />
<path d="M15.6696 16.0129
L15.7300 15.9524
" />
<path d="M15.7300 15.9524
L15.7300 16.0733
" />
<path d="M15.7300 15.2871
L15.7905 15.3476
" />
<path d="M15.7905 15.3476
L15.7300 15.4081
" />
<path d="M15.7300 15.4081
L15.6696 15.3476
" />
<path d="M15.6696 15.3476
L15.7300 15.2871
" />
<path d="M15.7300 15.2871
L15.7300 15.4081
" />
<path d="M16.2744 16.0129
L16.4558 16.0733
" />
<path d="M16.4558 16.0733
L16.7582 16.0733
" />
<path d="M16.7582 16.0733
L16.8791 16.0129
" />
<path d="M16.8791 16.0129
L16.9396 15.9524
" />
<path d="M16.9396 15.9524
L17.0001 15.8314
" />
<path d="M17.0001 15.8314
L17.0001 15.7105
" />
<path d="M17.0001 15.7105
L16.9396 15.5895
" />
<path d="M16.9396 15.5895
L16.8791 15.5290
" />
<path d="M16.8791 15.5290
L16.7582 15.4686
" />
<path d="M16.7582 15.4686
L16.5163 15.4081
" />
<path d="M16.5163 15.4081
L16.3953 15.3476
" />
<path d="M16.3953 15.3476
L16.3348 15.2871
" />
<path d="M16.3348 15.2871
L16.2744 15.1662
" />
<path d="M16.2744 15.1662
L16.2744 15.0452
" />
<path d="M16.2744 15.0452
L16.3348 14.9243
" />
<path d="M16.3348 14.9243
L16.3953 14.8638
" />
<path d="M16.3953 14.8638
L16.5163 14.8033
" />
<path d="M16.5163 14.8033
L16.8186 14.8033
" />
<path d="M16.8186 14.8033
L17.0001 14.8638
" />
<path d="M17.7862 14.8033
L18.0281 14.8033
" />
<path d="M18.0281 14.8033
L18.1491 14.8638
" />
<path d="M18.1491 14.8638
L18.2700 14.9848
" />
<path d="M18.2700 14.9848
L18.3305 15.2267
" />
<path d="M18.3305 15.2267
L18.3305 15.6500
" />
<path d="M18.3305 15.6500
L18.2700 15.8919
" />
<path d="M18.2700 15.8919
L18.1491 16.0129
" />
<path d="M18.1491 16.0129
L18.0281 16.0733
" />
<path d="M18.0281 16.0733
L17.7862 16.0733
" />
<path d="M17.7862 16.0733
L17.6653 16.0129
" />
<path d="M17.6653 16.0129
L17.5443 15.8919
" />
<path d="M17.5443 15.8919
L17.4839 15.6500
" />
<path d="M17.4839 15.6500
L17.4839 15.2267
" />
<path d="M17.4839 15.2267
L17.5443 14.9848
" />
<path d="M17.5443 14.9848
L17.6653 14.8638
" />
<path d="M17.6653 14.8638
L17.7862 14.8033
" />
<path d="M18.8748 15.5895
L19.8425 15.5895
" />
<path d="M20.6287 15.3476
L20.5077 15.2871
" />
<path d="M20.5077 15.2871
L20.4472 15.2267
" />
<path d="M20.4472 15.2267
L20.3868 15.1057
" />
<path d="M20.3868 15.1057
L20.3868 15.0452
" />
<path d="M20.3868 15.0452
L20.4472 14.9243
" />
<path d="M20.4472 14.9243
L20.5077 14.8638
" />
<path d="M20.5077 14.8638
L20.6287 14.8033
" />
<path d="M20.6287 14.8033
L20.8706 14.8033
" />
<path d="M20.8706 14.8033
L20.9915 14.8638
" />
<path d="M20.9915 14.8638
L21.0520 14.9243
" />
<path d="M21.0520 14.9243
L21.1125 15.0452
" />
<path d="M21.1125 15.0452
L21.1125 15.1057
" />
<path d="M21.1125 15.1057
L21.0520 15.2267
" />
<path d="M21.0520 15.2267
L20.9915 15.2871
" />
<path d="M20.9915 15.2871
L20.8706 15.3476
" />
<path d="M20.8706 15.3476
L20.6287 15.3476
" />
<path d="M20.6287 15.3476
L20.5077 15.4081
" />
<path d="M20.5077 15.4081
L20.4472 15.4686
" />
<path d="M20.4472 15.4686
L20.3868 15.5895
" />
<path d="M20.3868 15.5895
L20.3868 15.8314
" />
<path d="M20.3868 15.8314
L20.4472 15.9524
" />
<path d="M20.4472 15.9524
L20.5077 16.0129
" />
<path d="M20.5077 16.0129
L20.6287 16.0733
" />
<path d="M20.6287 16.0733
L20.8706 16.0733
" />
<path d="M20.8706 16.0733
L20.9915 16.0129
" />
<path d="M20.9915 16.0129
L21.0520 15.9524
" />
<path d="M21.0520 15.9524
L21.1125 15.8314
" />
<path d="M21.1125 15.8314
L21.1125 15.5895
" />
<path d="M21.1125 15.5895
L21.0520 15.4686
" />
<path d="M21.0520 15.4686
L20.9915 15.4081
" />
<path d="M20.9915 15.4081
L20.8706 15.3476
" />
<path d="M21.3544 16.1943
L22.3220 16.1943
" />
<path d="M22.5034 14.8033
L23.2896 14.8033
" />
<path d="M23.2896 14.8033
L22.8662 15.2871
" />
<path d="M22.8662 15.2871
L23.0477 15.2871
" />
<path d="M23.0477 15.2871
L23.1686 15.3476
" />
<path d="M23.1686 15.3476
L23.2291 15.4081
" />
<path d="M23.2291 15.4081
L23.2896 15.5290
" />
<path d="M23.2896 15.5290
L23.2896 15.8314
" />
<path d="M23.2896 15.8314
L23.2291 15.9524
" />
<path d="M23.2291 15.9524
L23.1686 16.0129
" />
<path d="M23.1686 16.0129
L23.0477 16.0733
" />
<path d="M23.0477 16.0733
L22.6848 16.0733
" />
<path d="M22.6848 16.0733
L22.5639 16.0129
" />
<path d="M22.5639 16.0129
L22.5034 15.9524
" />
<path d="M23.8338 15.9524
L23.8943 16.0129
" />
<path d="M23.8943 16.0129
L23.8338 16.0733
" />
<path d="M23.8338 16.0733
L23.7734 16.0129
" />
<path d="M23.7734 16.0129
L23.8338 15.9524
" />
<path d="M23.8338 15.9524
L23.8338 16.0733
" />
<path d="M24.4991 16.0733
L24.7410 16.0733
" />
<path d="M24.7410 16.0733
L24.8620 16.0129
" />
<path d="M24.8620 16.0129
L24.9224 15.9524
" />
<path d="M24.9224 15.9524
L25.0434 15.7709
" />
<path d="M25.0434 15.7709
L25.1039 15.5290
" />
<path d="M25.1039 15.5290
L25.1039 15.0452
" />
<path d="M25.1039 15.0452
L25.0434 14.9243
" />
<path d="M25.0434 14.9243
L24.9829 14.8638
" />
<path d="M24.9829 14.8638
L24.8620 14.8033
" />
<path d="M24.8620 14.8033
L24.6201 14.8033
" />
<path d="M24.6201 14.8033
L24.4991 14.8638
" />
<path d="M24.4991 14.8638
L24.4386 14.9243
" />
<path d="M24.4386 14.9243
L24.3782 15.0452
" />
<path d="M24.3782 15.0452
L24.3782 15.3476
" />
<path d="M24.3782 15.3476
L24.4386 15.4686
" />
<path d="M24.4386 15.4686
L24.4991 15.5290
" />
<path d="M24.4991 15.5290
L24.6201 15.5895
" />
<path d="M24.6201 15.5895
L24.8620 15.5895
" />
<path d="M24.8620 15.5895
L24.9829 15.5290
" />
<path d="M24.9829 15.5290
L25.0434 15.4686
" />
<path d="M25.0434 15.4686
L25.1039 15.3476
" />
<path d="M25.5272 16.0733
L26.1924 15.2267
" />
<path d="M25.5272 15.2267
L26.1924 16.0733
" />
<path d="M27.2205 15.2267
L27.2205 16.0733
" />
<path d="M26.9181 14.7429
L26.6158 15.6500
" />
<path d="M26.6158 15.6500
L27.4019 15.6500
" />
<path d="M27.8857 15.9524
L27.9462 16.0129
" />
<path d="M27.9462 16.0129
L27.8857 16.0733
" />
<path d="M27.8857 16.0733
L27.8253 16.0129
" />
<path d="M27.8253 16.0129
L27.8857 15.9524
" />
<path d="M27.8857 15.9524
L27.8857 16.0733
" />
<path d="M28.5510 16.0733
L28.7929 16.0733
" />
<path d="M28.7929 16.0733
L28.9139 16.0129
" />
<path d="M28.9139 16.0129
L28.9743 15.9524
" />
<path d="M28.9743 15.9524
L29.0953 15.7709
" />
<path d="M29.0953 15.7709
L29.1558 15.5290
" />
<path d="M29.1558 15.5290
L29.1558 15.0452
" />
<path d="M29.1558 15.0452
L29.0953 14.9243
" />
<path d="M29.0953 14.9243
L29.0348 14.8638
" />
<path d="M29.0348 14.8638
L28.9139 14.8033
" />
<path d="M28.9139 14.8033
L28.6720 14.8033
" />
<path d="M28.6720 14.8033
L28.5510 14.8638
" />
<path d="M28.5510 14.8638
L28.4905 14.9243
" />
<path d="M28.4905 14.9243
L28.4301 15.0452
" />
<path d="M28.4301 15.0452
L28.4301 15.3476
" />
<path d="M28.4301 15.3476
L28.4905 15.4686
" />
<path d="M28.4905 15.4686
L28.5510 15.5290
" />
<path d="M28.5510 15.5290
L28.6720 15.5895
" />
<path d="M28.6720 15.5895
L28.9139 15.5895
" />
<path d="M28.9139 15.5895
L29.0348 15.5290
" />
<path d="M29.0348 15.5290
L29.0953 15.4686
" />
<path d="M29.0953 15.4686
L29.1558 15.3476
" />
<path d="M29.7000 16.0733
L29.7000 15.2267
" />
<path d="M29.7000 15.3476
L29.7605 15.2871
" />
<path d="M29.7605 15.2871
L29.8815 15.2267
" />
<path d="M29.8815 15.2267
L30.0629 15.2267
" />
<path d="M30.0629 15.2267
L30.1838 15.2871
" />
<path d="M30.1838 15.2871
L30.2443 15.4081
" />
<path d="M30.2443 15.4081
L30.2443 16.0733
" />
<path d="M30.2443 15.4081
L30.3048 15.2871
" />
<path d="M30.3048 15.2871
L30.4257 15.2267
" />
<path d="M30.4257 15.2267
L30.6072 15.2267
" />
<path d="M30.6072 15.2267
L30.7281 15.2871
" />
<path d="M30.7281 15.2871
L30.7886 15.4081
" />
<path d="M30.7886 15.4081
L30.7886 16.0733
" />
<path d="M31.3933 16.0733
L31.3933 15.2267
" />
<path d="M31.3933 15.3476
L31.4538 15.2871
" />
<path d="M31.4538 15.2871
L31.5748 15.2267
" />
<path d="M31.5748 15.2267
L31.7562 15.2267
" />
<path d="M31.7562 15.2267
L31.8771 15.2871
" />
<path d="M31.8771 15.2871
L31.9376 15.4081
" />
<path d="M31.9376 15.4081
L31.9376 16.0733
" />
<path d="M31.9376 15.4081
L31.9981 15.2871
" />
<path d="M31.9981 15.2871
L32.1190 15.2267
" />
<path d="M32.1190 15.2267
L32.3005 15.2267
" />
<path d="M32.3005 15.2267
L32.4214 15.2871
" />
<path d="M32.4214 15.2871
L32.4819 15.4081
" />
<path d="M32.4819 15.4081
L32.4819 16.0733
" />
<path d="M32.7843 16.1943
L33.7519 16.1943
" />
<path d="M34.0542 16.0733
L34.0542 14.8033
" />
<path d="M34.0542 14.8033
L34.5380 14.8033
" />
<path d="M34.5380 14.8033
L34.6590 14.8638
" />
<path d="M34.6590 14.8638
L34.7195 14.9243
" />
<path d="M34.7195 14.9243
L34.7799 15.0452
" />
<path d="M34.7799 15.0452
L34.7799 15.2267
" />
<path d="M34.7799 15.2267
L34.7195 15.3476
" />
<path d="M34.7195 15.3476
L34.6590 15.4081
" />
<path d="M34.6590 15.4081
L34.5380 15.4686
" />
<path d="M34.5380 15.4686
L34.0542 15.4686
" />
<path d="M35.9895 16.0733
L35.2638 16.0733
" />
<path d="M35.6266 16.0733
L35.6266 14.8033
" />
<path d="M35.6266 14.8033
L35.5057 14.9848
" />
<path d="M35.5057 14.9848
L35.3847 15.1057
" />
<path d="M35.3847 15.1057
L35.2638 15.1662
" />
<path d="M36.5337 15.9524
L36.5942 16.0129
" />
<path d="M36.5942 16.0129
L36.5337 16.0733
" />
<path d="M36.5337 16.0733
L36.4733 16.0129
" />
<path d="M36.4733 16.0129
L36.5337 15.9524
" />
<path d="M36.5337 15.9524
L36.5337 16.0733
" />
<path d="M37.0781 14.9243
L37.1385 14.8638
" />
<path d="M37.1385 14.8638
L37.2595 14.8033
" />
<path d="M37.2595 14.8033
L37.5619 14.8033
" />
<path d="M37.5619 14.8033
L37.6828 14.8638
" />
<path d="M37.6828 14.8638
L37.7433 14.9243
" />
<path d="M37.7433 14.9243
L37.8038 15.0452
" />
<path d="M37.8038 15.0452
L37.8038 15.1662
" />
<path d="M37.8038 15.1662
L37.7433 15.3476
" />
<path d="M37.7433 15.3476
L37.0176 16.0733
" />
<path d="M37.0176 16.0733
L37.8038 16.0733
" />
<path d="M38.2271 14.8033
L39.0737 14.8033
" />
<path d="M39.0737 14.8033
L38.5295 16.0733
" />
<path d="M39.5575 16.0733
L39.5575 15.2267
" />
<path d="M39.5575 15.3476
L39.6180 15.2871
" />
<path d="M39.6180 15.2871
L39.7390 15.2267
" />
<path d="M39.7390 15.2267
L39.9204 15.2267
" />
<path d="M39.9204 15.2267
L40.0413 15.2871
" />
<path d="M40.0413 15.2871
L40.1018 15.4081
" />
<path d="M40.1018 15.4081
L40.1018 16.0733
" />
<path d="M40.1018 15.4081
L40.1623 15.2871
" />
<path d="M40.1623 15.2871
L40.2832 15.2267
" />
<path d="M40.2832 15.2267
L40.4647 15.2267
" />
<path d="M40.4647 15.2267
L40.5856 15.2871
" />
<path d="M40.5856 15.2871
L40.6461 15.4081
" />
<path d="M40.6461 15.4081
L40.6461 16.0733
" />
<path d="M41.2508 16.0733
L41.2508 15.2267
" />
<path d="M41.2508 15.3476
L41.3113 15.2871
" />
<path d="M41.3113 15.2871
L41.4323 15.2267
" />
<path d="M41.4323 15.2267
L41.6137 15.2267
" />
<path d="M41.6137 15.2267
L41.7346 15.2871
" />
<path d="M41.7346 15.2871
L41.7951 15.4081
" />
<path d="M41.7951 15.4081
L41.7951 16.0733
" />
<path d="M41.7951 15.4081
L41.8556 15.2871
" />
<path d="M41.8556 15.2871
L41.9765 15.2267
" />
<path d="M41.9765 15.2267
L42.1580 15.2267
" />
<path d="M42.1580 15.2267
L42.2789 15.2871
" />
<path d="M42.2789 15.2871
L42.3394 15.4081
" />
<path d="M42.3394 15.4081
L42.3394 16.0733
" />
</g><text x="23.3198" y="9.7791"
textLength="36.5684" font-size="1.6933" lengthAdjust="spacingAndGlyphs"
text-anchor="middle" opacity="0">https://www.ti.com/lit/gpn/tmp1075</text>
<g class="stroked-text"><desc>https://www.ti.com/lit/gpn/tmp1075</desc>
<path d="M5.4491 9.7233
L5.4491 8.4533
" />
<path d="M5.9934 9.7233
L5.9934 9.0581
" />
<path d="M5.9934 9.0581
L5.9329 8.9371
" />
<path d="M5.9329 8.9371
L5.8120 8.8767
" />
<path d="M5.8120 8.8767
L5.6306 8.8767
" />
<path d="M5.6306 8.8767
L5.5096 8.9371
" />
<path d="M5.5096 8.9371
L5.4491 8.9976
" />
<path d="M6.4167 8.8767
L6.9005 8.8767
" />
<path d="M6.5981 8.4533
L6.5981 9.5419
" />
<path d="M6.5981 9.5419
L6.6586 9.6629
" />
<path d="M6.6586 9.6629
L6.7796 9.7233
" />
<path d="M6.7796 9.7233
L6.9005 9.7233
" />
<path d="M7.1424 8.8767
L7.6262 8.8767
" />
<path d="M7.3238 8.4533
L7.3238 9.5419
" />
<path d="M7.3238 9.5419
L7.3843 9.6629
" />
<path d="M7.3843 9.6629
L7.5053 9.7233
" />
<path d="M7.5053 9.7233
L7.6262 9.7233
" />
<path d="M8.0495 8.8767
L8.0495 10.1467
" />
<path d="M8.0495 8.9371
L8.1705 8.8767
" />
<path d="M8.1705 8.8767
L8.4124 8.8767
" />
<path d="M8.4124 8.8767
L8.5333 8.9371
" />
<path d="M8.5333 8.9371
L8.5938 8.9976
" />
<path d="M8.5938 8.9976
L8.6543 9.1186
" />
<path d="M8.6543 9.1186
L8.6543 9.4814
" />
<path d="M8.6543 9.4814
L8.5938 9.6024
" />
<path d="M8.5938 9.6024
L8.5333 9.6629
" />
<path d="M8.5333 9.6629
L8.4124 9.7233
" />
<path d="M8.4124 9.7233
L8.1705 9.7233
" />
<path d="M8.1705 9.7233
L8.0495 9.6629
" />
<path d="M9.1381 9.6629
L9.2590 9.7233
" />
<path d="M9.2590 9.7233
L9.5009 9.7233
" />
<path d="M9.5009 9.7233
L9.6219 9.6629
" />
<path d="M9.6219 9.6629
L9.6823 9.5419
" />
<path d="M9.6823 9.5419
L9.6823 9.4814
" />
<path d="M9.6823 9.4814
L9.6219 9.3605
" />
<path d="M9.6219 9.3605
L9.5009 9.3000
" />
<path d="M9.5009 9.3000
L9.3195 9.3000
" />
<path d="M9.3195 9.3000
L9.1985 9.2395
" />
<path d="M9.1985 9.2395
L9.1381 9.1186
" />
<path d="M9.1381 9.1186
L9.1381 9.0581
" />
<path d="M9.1381 9.0581
L9.1985 8.9371
" />
<path d="M9.1985 8.9371
L9.3195 8.8767
" />
<path d="M9.3195 8.8767
L9.5009 8.8767
" />
<path d="M9.5009 8.8767
L9.6219 8.9371
" />
<path d="M10.2266 9.6024
L10.2871 9.6629
" />
<path d="M10.2871 9.6629
L10.2266 9.7233
" />
<path d="M10.2266 9.7233
L10.1662 9.6629
" />
<path d="M10.1662 9.6629
L10.2266 9.6024
" />
<path d="M10.2266 9.6024
L10.2266 9.7233
" />
<path d="M10.2266 8.9371
L10.2871 8.9976
" />
<path d="M10.2871 8.9976
L10.2266 9.0581
" />
<path d="M10.2266 9.0581
L10.1662 8.9976
" />
<path d="M10.1662 8.9976
L10.2266 8.9371
" />
<path d="M10.2266 8.9371
L10.2266 9.0581
" />
<path d="M11.7386 8.3929
L10.6500 10.0257
" />
<path d="M13.0691 8.3929
L11.9805 10.0257
" />
<path d="M13.3715 8.8767
L13.6134 9.7233
" />
<path d="M13.6134 9.7233
L13.8553 9.1186
" />
<path d="M13.8553 9.1186
L14.0972 9.7233
" />
<path d="M14.0972 9.7233
L14.3391 8.8767
" />
<path d="M14.7020 8.8767
L14.9439 9.7233
" />
<path d="M14.9439 9.7233
L15.1858 9.1186
" />
<path d="M15.1858 9.1186
L15.4277 9.7233
" />
<path d="M15.4277 9.7233
L15.6696 8.8767
" />
<path d="M16.0325 8.8767
L16.2744 9.7233
" />
<path d="M16.2744 9.7233
L16.5163 9.1186
" />
<path d="M16.5163 9.1186
L16.7582 9.7233
" />
<path d="M16.7582 9.7233
L17.0001 8.8767
" />
<path d="M17.4839 9.6024
L17.5444 9.6629
" />
<path d="M17.5444 9.6629
L17.4839 9.7233
" />
<path d="M17.4839 9.7233
L17.4235 9.6629
" />
<path d="M17.4235 9.6629
L17.4839 9.6024
" />
<path d="M17.4839 9.6024
L17.4839 9.7233
" />
<path d="M17.9073 8.8767
L18.3911 8.8767
" />
<path d="M18.0887 8.4533
L18.0887 9.5419
" />
<path d="M18.0887 9.5419
L18.1492 9.6629
" />
<path d="M18.1492 9.6629
L18.2702 9.7233
" />
<path d="M18.2702 9.7233
L18.3911 9.7233
" />
<path d="M18.8144 9.7233
L18.8144 8.8767
" />
<path d="M18.8144 8.4533
L18.7540 8.5138
" />
<path d="M18.7540 8.5138
L18.8144 8.5743
" />
<path d="M18.8144 8.5743
L18.8749 8.5138
" />
<path d="M18.8749 8.5138
L18.8144 8.4533
" />
<path d="M18.8144 8.4533
L18.8144 8.5743
" />
<path d="M19.4192 9.6024
L19.4797 9.6629
" />
<path d="M19.4797 9.6629
L19.4192 9.7233
" />
<path d="M19.4192 9.7233
L19.3588 9.6629
" />
<path d="M19.3588 9.6629
L19.4192 9.6024
" />
<path d="M19.4192 9.6024
L19.4192 9.7233
" />
<path d="M20.5683 9.6629
L20.4474 9.7233
" />
<path d="M20.4474 9.7233
L20.2055 9.7233
" />
<path d="M20.2055 9.7233
L20.0845 9.6629
" />
<path d="M20.0845 9.6629
L20.0240 9.6024
" />
<path d="M20.0240 9.6024
L19.9636 9.4814
" />
<path d="M19.9636 9.4814
L19.9636 9.1186
" />
<path d="M19.9636 9.1186
L20.0240 8.9976
" />
<path d="M20.0240 8.9976
L20.0845 8.9371
" />
<path d="M20.0845 8.9371
L20.2055 8.8767
" />
<path d="M20.2055 8.8767
L20.4474 8.8767
" />
<path d="M20.4474 8.8767
L20.5683 8.9371
" />
<path d="M21.2941 9.7233
L21.1731 9.6629
" />
<path d="M21.1731 9.6629
L21.1126 9.6024
" />
<path d="M21.1126 9.6024
L21.0522 9.4814
" />
<path d="M21.0522 9.4814
L21.0522 9.1186
" />
<path d="M21.0522 9.1186
L21.1126 8.9976
" />
<path d="M21.1126 8.9976
L21.1731 8.9371
" />
<path d="M21.1731 8.9371
L21.2941 8.8767
" />
<path d="M21.2941 8.8767
L21.4755 8.8767
" />
<path d="M21.4755 8.8767
L21.5964 8.9371
" />
<path d="M21.5964 8.9371
L21.6569 8.9976
" />
<path d="M21.6569 8.9976
L21.7174 9.1186
" />
<path d="M21.7174 9.1186
L21.7174 9.4814
" />
<path d="M21.7174 9.4814
L21.6569 9.6024
" />
<path d="M21.6569 9.6024
L21.5964 9.6629
" />
<path d="M21.5964 9.6629
L21.4755 9.7233
" />
<path d="M21.4755 9.7233
L21.2941 9.7233
" />
<path d="M22.2616 9.7233
L22.2616 8.8767
" />
<path d="M22.2616 8.9976
L22.3221 8.9371
" />
<path d="M22.3221 8.9371
L22.4431 8.8767
" />
<path d="M22.4431 8.8767
L22.6245 8.8767
" />
<path d="M22.6245 8.8767
L22.7454 8.9371
" />
<path d="M22.7454 8.9371
L22.8059 9.0581
" />
<path d="M22.8059 9.0581
L22.8059 9.7233
" />
<path d="M22.8059 9.0581
L22.8664 8.9371
" />
<path d="M22.8664 8.9371
L22.9873 8.8767
" />
<path d="M22.9873 8.8767
L23.1688 8.8767
" />
<path d="M23.1688 8.8767
L23.2897 8.9371
" />
<path d="M23.2897 8.9371
L23.3502 9.0581
" />
<path d="M23.3502 9.0581
L23.3502 9.7233
" />
<path d="M24.8621 8.3929
L23.7735 10.0257
" />
<path d="M25.4669 9.7233
L25.3459 9.6629
" />
<path d="M25.3459 9.6629
L25.2854 9.5419
" />
<path d="M25.2854 9.5419
L25.2854 8.4533
" />
<path d="M25.9506 9.7233
L25.9506 8.8767
" />
<path d="M25.9506 8.4533
L25.8902 8.5138
" />
<path d="M25.8902 8.5138
L25.9506 8.5743
" />
<path d="M25.9506 8.5743
L26.0111 8.5138
" />
<path d="M26.0111 8.5138
L25.9506 8.4533
" />
<path d="M25.9506 8.4533
L25.9506 8.5743
" />
<path d="M26.3740 8.8767
L26.8578 8.8767
" />
<path d="M26.5554 8.4533
L26.5554 9.5419
" />
<path d="M26.5554 9.5419
L26.6159 9.6629
" />
<path d="M26.6159 9.6629
L26.7369 9.7233
" />
<path d="M26.7369 9.7233
L26.8578 9.7233
" />
<path d="M28.1883 8.3929
L27.0997 10.0257
" />
<path d="M29.1559 8.8767
L29.1559 9.9048
" />
<path d="M29.1559 9.9048
L29.0954 10.0257
" />
<path d="M29.0954 10.0257
L29.0350 10.0862
" />
<path d="M29.0350 10.0862
L28.9140 10.1467
" />
<path d="M28.9140 10.1467
L28.7326 10.1467
" />
<path d="M28.7326 10.1467
L28.6116 10.0862
" />
<path d="M29.1559 9.6629
L29.0350 9.7233
" />
<path d="M29.0350 9.7233
L28.7931 9.7233
" />
<path d="M28.7931 9.7233
L28.6721 9.6629
" />
<path d="M28.6721 9.6629
L28.6116 9.6024
" />
<path d="M28.6116 9.6024
L28.5512 9.4814
" />
<path d="M28.5512 9.4814
L28.5512 9.1186
" />
<path d="M28.5512 9.1186
L28.6116 8.9976
" />
<path d="M28.6116 8.9976
L28.6721 8.9371
" />
<path d="M28.6721 8.9371
L28.7931 8.8767
" />
<path d="M28.7931 8.8767
L29.0350 8.8767
" />
<path d="M29.0350 8.8767
L29.1559 8.9371
" />
<path d="M29.7606 8.8767
L29.7606 10.1467
" />
<path d="M29.7606 8.9371
L29.8816 8.8767
" />
<path d="M29.8816 8.8767
L30.1235 8.8767
" />
<path d="M30.1235 8.8767
L30.2444 8.9371
" />
<path d="M30.2444 8.9371
L30.3049 8.9976
" />
<path d="M30.3049 8.9976
L30.3654 9.1186
" />
<path d="M30.3654 9.1186
L30.3654 9.4814
" />
<path d="M30.3654 9.4814
L30.3049 9.6024
" />
<path d="M30.3049 9.6024
L30.2444 9.6629
" />
<path d="M30.2444 9.6629
L30.1235 9.7233
" />
<path d="M30.1235 9.7233
L29.8816 9.7233
" />
<path d="M29.8816 9.7233
L29.7606 9.6629
" />
<path d="M30.9096 8.8767
L30.9096 9.7233
" />
<path d="M30.9096 8.9976
L30.9701 8.9371
" />
<path d="M30.9701 8.9371
L31.0911 8.8767
" />
<path d="M31.0911 8.8767
L31.2725 8.8767
" />
<path d="M31.2725 8.8767
L31.3934 8.9371
" />
<path d="M31.3934 8.9371
L31.4539 9.0581
" />
<path d="M31.4539 9.0581
L31.4539 9.7233
" />
<path d="M32.9658 8.3929
L31.8772 10.0257
" />
<path d="M33.2077 8.8767
L33.6915 8.8767
" />
<path d="M33.3891 8.4533
L33.3891 9.5419
" />
<path d="M33.3891 9.5419
L33.4496 9.6629
" />
<path d="M33.4496 9.6629
L33.5706 9.7233
" />
<path d="M33.5706 9.7233
L33.6915 9.7233
" />
<path d="M34.1148 9.7233
L34.1148 8.8767
" />
<path d="M34.1148 8.9976
L34.1753 8.9371
" />
<path d="M34.1753 8.9371
L34.2963 8.8767
" />
<path d="M34.2963 8.8767
L34.4777 8.8767
" />
<path d="M34.4777 8.8767
L34.5986 8.9371
" />
<path d="M34.5986 8.9371
L34.6591 9.0581
" />
<path d="M34.6591 9.0581
L34.6591 9.7233
" />
<path d="M34.6591 9.0581
L34.7196 8.9371
" />
<path d="M34.7196 8.9371
L34.8405 8.8767
" />
<path d="M34.8405 8.8767
L35.0220 8.8767
" />
<path d="M35.0220 8.8767
L35.1429 8.9371
" />
<path d="M35.1429 8.9371
L35.2034 9.0581
" />
<path d="M35.2034 9.0581
L35.2034 9.7233
" />
<path d="M35.8081 8.8767
L35.8081 10.1467
" />
<path d="M35.8081 8.9371
L35.9291 8.8767
" />
<path d="M35.9291 8.8767
L36.1710 8.8767
" />
<path d="M36.1710 8.8767
L36.2919 8.9371
" />
<path d="M36.2919 8.9371
L36.3524 8.9976
" />
<path d="M36.3524 8.9976
L36.4129 9.1186
" />
<path d="M36.4129 9.1186
L36.4129 9.4814
" />
<path d="M36.4129 9.4814
L36.3524 9.6024
" />
<path d="M36.3524 9.6024
L36.2919 9.6629
" />
<path d="M36.2919 9.6629
L36.1710 9.7233
" />
<path d="M36.1710 9.7233
L35.9291 9.7233
" />
<path d="M35.9291 9.7233
L35.8081 9.6629
" />
<path d="M37.6224 9.7233
L36.8967 9.7233
" />
<path d="M37.2595 9.7233
L37.2595 8.4533
" />
<path d="M37.2595 8.4533
L37.1386 8.6348
" />
<path d="M37.1386 8.6348
L37.0176 8.7557
" />
<path d="M37.0176 8.7557
L36.8967 8.8162
" />
<path d="M38.4085 8.4533
L38.5295 8.4533
" />
<path d="M38.5295 8.4533
L38.6504 8.5138
" />
<path d="M38.6504 8.5138
L38.7109 8.5743
" />
<path d="M38.7109 8.5743
L38.7714 8.6952
" />
<path d="M38.7714 8.6952
L38.8319 8.9371
" />
<path d="M38.8319 8.9371
L38.8319 9.2395
" />
<path d="M38.8319 9.2395
L38.7714 9.4814
" />
<path d="M38.7714 9.4814
L38.7109 9.6024
" />
<path d="M38.7109 9.6024
L38.6504 9.6629
" />
<path d="M38.6504 9.6629
L38.5295 9.7233
" />
<path d="M38.5295 9.7233
L38.4085 9.7233
" />
<path d="M38.4085 9.7233
L38.2876 9.6629
" />
<path d="M38.2876 9.6629
L38.2271 9.6024
" />
<path d="M38.2271 9.6024
L38.1666 9.4814
" />
<path d="M38.1666 9.4814
L38.1062 9.2395
" />
<path d="M38.1062 9.2395
L38.1062 8.9371
" />
<path d="M38.1062 8.9371
L38.1666 8.6952
" />
<path d="M38.1666 8.6952
L38.2271 8.5743
" />
<path d="M38.2271 8.5743
L38.2876 8.5138
" />
<path d="M38.2876 8.5138
L38.4085 8.4533
" />
<path d="M39.2552 8.4533
L40.1018 8.4533
" />
<path d="M40.1018 8.4533
L39.5576 9.7233
" />
<path d="M41.1904 8.4533
L40.5856 8.4533
" />
<path d="M40.5856 8.4533
L40.5252 9.0581
" />
<path d="M40.5252 9.0581
L40.5856 8.9976
" />
<path d="M40.5856 8.9976
L40.7066 8.9371
" />
<path d="M40.7066 8.9371
L41.0090 8.9371
" />
<path d="M41.0090 8.9371
L41.1299 8.9976
" />
<path d="M41.1299 8.9976
L41.1904 9.0581
" />
<path d="M41.1904 9.0581
L41.2509 9.1790
" />
<path d="M41.2509 9.1790
L41.2509 9.4814
" />
<path d="M41.2509 9.4814
L41.1904 9.6024
" />
<path d="M41.1904 9.6024
L41.1299 9.6629
" />
<path d="M41.1299 9.6629
L41.0090 9.7233
" />
<path d="M41.0090 9.7233
L40.7066 9.7233
" />
<path d="M40.7066 9.7233
L40.5856 9.6629
" />
<path d="M40.5856 9.6629
L40.5252 9.6024
" />
</g></g> 
</svg>
