<?xml version="1.0" standalone="no"?>
 <!DOCTYPE svg PUBLIC "-//W3C//DTD SVG 1.1//EN" 
 "http://www.w3.org/Graphics/SVG/1.1/DTD/svg11.dtd"> 
<svg
  xmlns:svg="http://www.w3.org/2000/svg"
  xmlns="http://www.w3.org/2000/svg"
  xmlns:xlink="http://www.w3.org/1999/xlink"
  version="1.1"
  width="77.8764mm" height="45.1358mm" viewBox="0.0000 0.0000 77.8764 45.1358">
<title>SVG Image created as working.svg date 2023/08/13 13:09:20 </title>
  <desc>Image generated by Eeschema-SVG </desc>
<g style="fill:#000000; fill-opacity:1.0000;stroke:#000000; stroke-opacity:1.0000;
stroke-linecap:round; stroke-linejoin:round;"
 transform="translate(0 0) scale(1 1)">
</g>
<g style="fill:#840000; fill-opacity:0.0; 
stroke:#840000; stroke-width:0.0000; stroke-opacity:1; 
stroke-linecap:round; stroke-linejoin:round;">
</g>
<g style="fill:#840084; fill-opacity:0.0; 
stroke:#840084; stroke-width:0.0000; stroke-opacity:1; 
stroke-linecap:round; stroke-linejoin:round;">
</g>
<g style="fill:#840000; fill-opacity:0.0; 
stroke:#840000; stroke-width:0.0000; stroke-opacity:1; 
stroke-linecap:round; stroke-linejoin:round;">
</g>
<g style="fill:#840084; fill-opacity:0.0; 
stroke:#840084; stroke-width:0.0000; stroke-opacity:1; 
stroke-linecap:round; stroke-linejoin:round;">
</g>
<g style="fill:#006464; fill-opacity:0.0; 
stroke:#006464; stroke-width:0.0000; stroke-opacity:1; 
stroke-linecap:round; stroke-linejoin:round;">
</g>
<g style="fill:#006464; fill-opacity:0.0; 
stroke:#006464; stroke-width:0.1588; stroke-opacity:1; 
stroke-linecap:round; stroke-linejoin:round;">
<text x="23.4428" y="5.4169"
textLength="2.6415" font-size="1.6933" lengthAdjust="spacingAndGlyphs"
text-anchor="middle" opacity="0">U?</text>
<g class="stroked-text"><desc>U?</desc>
<path d="M22.5356 4.0911
L22.5356 5.1192
" />
<path d="M22.5356 5.1192
L22.5961 5.2402
" />
<path d="M22.5961 5.2402
L22.6566 5.3007
" />
<path d="M22.6566 5.3007
L22.7775 5.3611
" />
<path d="M22.7775 5.3611
L23.0194 5.3611
" />
<path d="M23.0194 5.3611
L23.1404 5.3007
" />
<path d="M23.1404 5.3007
L23.2009 5.2402
" />
<path d="M23.2009 5.2402
L23.2613 5.1192
" />
<path d="M23.2613 5.1192
L23.2613 4.0911
" />
<path d="M24.0476 5.2402
L24.1080 5.3007
" />
<path d="M24.1080 5.3007
L24.0476 5.3611
" />
<path d="M24.0476 5.3611
L23.9871 5.3007
" />
<path d="M23.9871 5.3007
L24.0476 5.2402
" />
<path d="M24.0476 5.2402
L24.0476 5.3611
" />
<path d="M23.8057 4.1516
L23.9266 4.0911
" />
<path d="M23.9266 4.0911
L24.2290 4.0911
" />
<path d="M24.2290 4.0911
L24.3499 4.1516
" />
<path d="M24.3499 4.1516
L24.4104 4.2726
" />
<path d="M24.4104 4.2726
L24.4104 4.3935
" />
<path d="M24.4104 4.3935
L24.3499 4.5145
" />
<path d="M24.3499 4.5145
L24.2895 4.5749
" />
<path d="M24.2895 4.5749
L24.1685 4.6354
" />
<path d="M24.1685 4.6354
L24.1080 4.6959
" />
<path d="M24.1080 4.6959
L24.0476 4.8168
" />
<path d="M24.0476 4.8168
L24.0476 4.8773
" />
</g><text x="38.6828" y="5.4169"
textLength="12.2570" font-size="1.6933" lengthAdjust="spacingAndGlyphs"
text-anchor="middle" opacity="0">TXS0101DCK</text>
<g class="stroked-text"><desc>TXS0101DCK</desc>
<path d="M32.7864 4.0911
L33.5121 4.0911
" />
<path d="M33.1493 5.3611
L33.1493 4.0911
" />
<path d="M33.8145 4.0911
L34.6611 5.3611
" />
<path d="M34.6611 4.0911
L33.8145 5.3611
" />
<path d="M35.0845 5.3007
L35.2659 5.3611
" />
<path d="M35.2659 5.3611
L35.5683 5.3611
" />
<path d="M35.5683 5.3611
L35.6892 5.3007
" />
<path d="M35.6892 5.3007
L35.7497 5.2402
" />
<path d="M35.7497 5.2402
L35.8102 5.1192
" />
<path d="M35.8102 5.1192
L35.8102 4.9983
" />
<path d="M35.8102 4.9983
L35.7497 4.8773
" />
<path d="M35.7497 4.8773
L35.6892 4.8168
" />
<path d="M35.6892 4.8168
L35.5683 4.7564
" />
<path d="M35.5683 4.7564
L35.3264 4.6959
" />
<path d="M35.3264 4.6959
L35.2054 4.6354
" />
<path d="M35.2054 4.6354
L35.1449 4.5749
" />
<path d="M35.1449 4.5749
L35.0845 4.4540
" />
<path d="M35.0845 4.4540
L35.0845 4.3330
" />
<path d="M35.0845 4.3330
L35.1449 4.2121
" />
<path d="M35.1449 4.2121
L35.2054 4.1516
" />
<path d="M35.2054 4.1516
L35.3264 4.0911
" />
<path d="M35.3264 4.0911
L35.6287 4.0911
" />
<path d="M35.6287 4.0911
L35.8102 4.1516
" />
<path d="M36.5963 4.0911
L36.7173 4.0911
" />
<path d="M36.7173 4.0911
L36.8382 4.1516
" />
<path d="M36.8382 4.1516
L36.8987 4.2121
" />
<path d="M36.8987 4.2121
L36.9592 4.3330
" />
<path d="M36.9592 4.3330
L37.0197 4.5749
" />
<path d="M37.0197 4.5749
L37.0197 4.8773
" />
<path d="M37.0197 4.8773
L36.9592 5.1192
" />
<path d="M36.9592 5.1192
L36.8987 5.2402
" />
<path d="M36.8987 5.2402
L36.8382 5.3007
" />
<path d="M36.8382 5.3007
L36.7173 5.3611
" />
<path d="M36.7173 5.3611
L36.5963 5.3611
" />
<path d="M36.5963 5.3611
L36.4754 5.3007
" />
<path d="M36.4754 5.3007
L36.4149 5.2402
" />
<path d="M36.4149 5.2402
L36.3544 5.1192
" />
<path d="M36.3544 5.1192
L36.2940 4.8773
" />
<path d="M36.2940 4.8773
L36.2940 4.5749
" />
<path d="M36.2940 4.5749
L36.3544 4.3330
" />
<path d="M36.3544 4.3330
L36.4149 4.2121
" />
<path d="M36.4149 4.2121
L36.4754 4.1516
" />
<path d="M36.4754 4.1516
L36.5963 4.0911
" />
<path d="M38.2292 5.3611
L37.5035 5.3611
" />
<path d="M37.8663 5.3611
L37.8663 4.0911
" />
<path d="M37.8663 4.0911
L37.7454 4.2726
" />
<path d="M37.7454 4.2726
L37.6244 4.3935
" />
<path d="M37.6244 4.3935
L37.5035 4.4540
" />
<path d="M39.0153 4.0911
L39.1363 4.0911
" />
<path d="M39.1363 4.0911
L39.2572 4.1516
" />
<path d="M39.2572 4.1516
L39.3177 4.2121
" />
<path d="M39.3177 4.2121
L39.3782 4.3330
" />
<path d="M39.3782 4.3330
L39.4387 4.5749
" />
<path d="M39.4387 4.5749
L39.4387 4.8773
" />
<path d="M39.4387 4.8773
L39.3782 5.1192
" />
<path d="M39.3782 5.1192
L39.3177 5.2402
" />
<path d="M39.3177 5.2402
L39.2572 5.3007
" />
<path d="M39.2572 5.3007
L39.1363 5.3611
" />
<path d="M39.1363 5.3611
L39.0153 5.3611
" />
<path d="M39.0153 5.3611
L38.8944 5.3007
" />
<path d="M38.8944 5.3007
L38.8339 5.2402
" />
<path d="M38.8339 5.2402
L38.7734 5.1192
" />
<path d="M38.7734 5.1192
L38.7130 4.8773
" />
<path d="M38.7130 4.8773
L38.7130 4.5749
" />
<path d="M38.7130 4.5749
L38.7734 4.3330
" />
<path d="M38.7734 4.3330
L38.8339 4.2121
" />
<path d="M38.8339 4.2121
L38.8944 4.1516
" />
<path d="M38.8944 4.1516
L39.0153 4.0911
" />
<path d="M40.6482 5.3611
L39.9225 5.3611
" />
<path d="M40.2853 5.3611
L40.2853 4.0911
" />
<path d="M40.2853 4.0911
L40.1644 4.2726
" />
<path d="M40.1644 4.2726
L40.0434 4.3935
" />
<path d="M40.0434 4.3935
L39.9225 4.4540
" />
<path d="M41.1924 5.3611
L41.1924 4.0911
" />
<path d="M41.1924 4.0911
L41.4948 4.0911
" />
<path d="M41.4948 4.0911
L41.6762 4.1516
" />
<path d="M41.6762 4.1516
L41.7972 4.2726
" />
<path d="M41.7972 4.2726
L41.8577 4.3935
" />
<path d="M41.8577 4.3935
L41.9181 4.6354
" />
<path d="M41.9181 4.6354
L41.9181 4.8168
" />
<path d="M41.9181 4.8168
L41.8577 5.0587
" />
<path d="M41.8577 5.0587
L41.7972 5.1797
" />
<path d="M41.7972 5.1797
L41.6762 5.3007
" />
<path d="M41.6762 5.3007
L41.4948 5.3611
" />
<path d="M41.4948 5.3611
L41.1924 5.3611
" />
<path d="M43.1881 5.2402
L43.1277 5.3007
" />
<path d="M43.1277 5.3007
L42.9462 5.3611
" />
<path d="M42.9462 5.3611
L42.8253 5.3611
" />
<path d="M42.8253 5.3611
L42.6439 5.3007
" />
<path d="M42.6439 5.3007
L42.5229 5.1797
" />
<path d="M42.5229 5.1797
L42.4624 5.0587
" />
<path d="M42.4624 5.0587
L42.4020 4.8168
" />
<path d="M42.4020 4.8168
L42.4020 4.6354
" />
<path d="M42.4020 4.6354
L42.4624 4.3935
" />
<path d="M42.4624 4.3935
L42.5229 4.2726
" />
<path d="M42.5229 4.2726
L42.6439 4.1516
" />
<path d="M42.6439 4.1516
L42.8253 4.0911
" />
<path d="M42.8253 4.0911
L42.9462 4.0911
" />
<path d="M42.9462 4.0911
L43.1277 4.1516
" />
<path d="M43.1277 4.1516
L43.1881 4.2121
" />
<path d="M43.7324 5.3611
L43.7324 4.0911
" />
<path d="M44.4581 5.3611
L43.9139 4.6354
" />
<path d="M44.4581 4.0911
L43.7324 4.8168
" />
</g></g>
<g style="fill:#840084; fill-opacity:0.0; 
stroke:#840084; stroke-width:0.1588; stroke-opacity:1; 
stroke-linecap:round; stroke-linejoin:round;">
<text x="51.2217" y="28.2769"
textLength="40.3178" font-size="1.6933" lengthAdjust="spacingAndGlyphs"
text-anchor="middle" opacity="0">Package_TO_SOT_SMD:SOT-363_SC-70-6</text>
<g class="stroked-text"><desc>Package_TO_SOT_SMD:SOT-363_SC-70-6</desc>
<path d="M31.4763 28.2211
L31.4763 26.9511
" />
<path d="M31.4763 26.9511
L31.9601 26.9511
" />
<path d="M31.9601 26.9511
L32.0811 27.0116
" />
<path d="M32.0811 27.0116
L32.1416 27.0721
" />
<path d="M32.1416 27.0721
L32.2020 27.1930
" />
<path d="M32.2020 27.1930
L32.2020 27.3745
" />
<path d="M32.2020 27.3745
L32.1416 27.4954
" />
<path d="M32.1416 27.4954
L32.0811 27.5559
" />
<path d="M32.0811 27.5559
L31.9601 27.6164
" />
<path d="M31.9601 27.6164
L31.4763 27.6164
" />
<path d="M33.2906 28.2211
L33.2906 27.5559
" />
<path d="M33.2906 27.5559
L33.2301 27.4349
" />
<path d="M33.2301 27.4349
L33.1092 27.3745
" />
<path d="M33.1092 27.3745
L32.8673 27.3745
" />
<path d="M32.8673 27.3745
L32.7463 27.4349
" />
<path d="M33.2906 28.1607
L33.1697 28.2211
" />
<path d="M33.1697 28.2211
L32.8673 28.2211
" />
<path d="M32.8673 28.2211
L32.7463 28.1607
" />
<path d="M32.7463 28.1607
L32.6859 28.0397
" />
<path d="M32.6859 28.0397
L32.6859 27.9187
" />
<path d="M32.6859 27.9187
L32.7463 27.7978
" />
<path d="M32.7463 27.7978
L32.8673 27.7373
" />
<path d="M32.8673 27.7373
L33.1697 27.7373
" />
<path d="M33.1697 27.7373
L33.2906 27.6768
" />
<path d="M34.4396 28.1607
L34.3187 28.2211
" />
<path d="M34.3187 28.2211
L34.0768 28.2211
" />
<path d="M34.0768 28.2211
L33.9558 28.1607
" />
<path d="M33.9558 28.1607
L33.8953 28.1002
" />
<path d="M33.8953 28.1002
L33.8349 27.9792
" />
<path d="M33.8349 27.9792
L33.8349 27.6164
" />
<path d="M33.8349 27.6164
L33.8953 27.4954
" />
<path d="M33.8953 27.4954
L33.9558 27.4349
" />
<path d="M33.9558 27.4349
L34.0768 27.3745
" />
<path d="M34.0768 27.3745
L34.3187 27.3745
" />
<path d="M34.3187 27.3745
L34.4396 27.4349
" />
<path d="M34.9839 28.2211
L34.9839 26.9511
" />
<path d="M35.1049 27.7373
L35.4677 28.2211
" />
<path d="M35.4677 27.3745
L34.9839 27.8583
" />
<path d="M36.5563 28.2211
L36.5563 27.5559
" />
<path d="M36.5563 27.5559
L36.4958 27.4349
" />
<path d="M36.4958 27.4349
L36.3749 27.3745
" />
<path d="M36.3749 27.3745
L36.1330 27.3745
" />
<path d="M36.1330 27.3745
L36.0120 27.4349
" />
<path d="M36.5563 28.1607
L36.4354 28.2211
" />
<path d="M36.4354 28.2211
L36.1330 28.2211
" />
<path d="M36.1330 28.2211
L36.0120 28.1607
" />
<path d="M36.0120 28.1607
L35.9516 28.0397
" />
<path d="M35.9516 28.0397
L35.9516 27.9187
" />
<path d="M35.9516 27.9187
L36.0120 27.7978
" />
<path d="M36.0120 27.7978
L36.1330 27.7373
" />
<path d="M36.1330 27.7373
L36.4354 27.7373
" />
<path d="M36.4354 27.7373
L36.5563 27.6768
" />
<path d="M37.7053 27.3745
L37.7053 28.4026
" />
<path d="M37.7053 28.4026
L37.6448 28.5235
" />
<path d="M37.6448 28.5235
L37.5844 28.5840
" />
<path d="M37.5844 28.5840
L37.4634 28.6445
" />
<path d="M37.4634 28.6445
L37.2820 28.6445
" />
<path d="M37.2820 28.6445
L37.1610 28.5840
" />
<path d="M37.7053 28.1607
L37.5844 28.2211
" />
<path d="M37.5844 28.2211
L37.3425 28.2211
" />
<path d="M37.3425 28.2211
L37.2215 28.1607
" />
<path d="M37.2215 28.1607
L37.1610 28.1002
" />
<path d="M37.1610 28.1002
L37.1006 27.9792
" />
<path d="M37.1006 27.9792
L37.1006 27.6164
" />
<path d="M37.1006 27.6164
L37.1610 27.4954
" />
<path d="M37.1610 27.4954
L37.2215 27.4349
" />
<path d="M37.2215 27.4349
L37.3425 27.3745
" />
<path d="M37.3425 27.3745
L37.5844 27.3745
" />
<path d="M37.5844 27.3745
L37.7053 27.4349
" />
<path d="M38.7938 28.1607
L38.6729 28.2211
" />
<path d="M38.6729 28.2211
L38.4310 28.2211
" />
<path d="M38.4310 28.2211
L38.3100 28.1607
" />
<path d="M38.3100 28.1607
L38.2496 28.0397
" />
<path d="M38.2496 28.0397
L38.2496 27.5559
" />
<path d="M38.2496 27.5559
L38.3100 27.4349
" />
<path d="M38.3100 27.4349
L38.4310 27.3745
" />
<path d="M38.4310 27.3745
L38.6729 27.3745
" />
<path d="M38.6729 27.3745
L38.7938 27.4349
" />
<path d="M38.7938 27.4349
L38.8543 27.5559
" />
<path d="M38.8543 27.5559
L38.8543 27.6768
" />
<path d="M38.8543 27.6768
L38.2496 27.7978
" />
<path d="M39.0963 28.3421
L40.0639 28.3421
" />
<path d="M40.1848 26.9511
L40.9105 26.9511
" />
<path d="M40.5477 28.2211
L40.5477 26.9511
" />
<path d="M41.5757 26.9511
L41.8176 26.9511
" />
<path d="M41.8176 26.9511
L41.9386 27.0116
" />
<path d="M41.9386 27.0116
L42.0595 27.1326
" />
<path d="M42.0595 27.1326
L42.1200 27.3745
" />
<path d="M42.1200 27.3745
L42.1200 27.7978
" />
<path d="M42.1200 27.7978
L42.0595 28.0397
" />
<path d="M42.0595 28.0397
L41.9386 28.1607
" />
<path d="M41.9386 28.1607
L41.8176 28.2211
" />
<path d="M41.8176 28.2211
L41.5757 28.2211
" />
<path d="M41.5757 28.2211
L41.4548 28.1607
" />
<path d="M41.4548 28.1607
L41.3338 28.0397
" />
<path d="M41.3338 28.0397
L41.2734 27.7978
" />
<path d="M41.2734 27.7978
L41.2734 27.3745
" />
<path d="M41.2734 27.3745
L41.3338 27.1326
" />
<path d="M41.3338 27.1326
L41.4548 27.0116
" />
<path d="M41.4548 27.0116
L41.5757 26.9511
" />
<path d="M42.3620 28.3421
L43.3296 28.3421
" />
<path d="M43.5715 28.1607
L43.7529 28.2211
" />
<path d="M43.7529 28.2211
L44.0553 28.2211
" />
<path d="M44.0553 28.2211
L44.1762 28.1607
" />
<path d="M44.1762 28.1607
L44.2367 28.1002
" />
<path d="M44.2367 28.1002
L44.2972 27.9792
" />
<path d="M44.2972 27.9792
L44.2972 27.8583
" />
<path d="M44.2972 27.8583
L44.2367 27.7373
" />
<path d="M44.2367 27.7373
L44.1762 27.6768
" />
<path d="M44.1762 27.6768
L44.0553 27.6164
" />
<path d="M44.0553 27.6164
L43.8134 27.5559
" />
<path d="M43.8134 27.5559
L43.6924 27.4954
" />
<path d="M43.6924 27.4954
L43.6319 27.4349
" />
<path d="M43.6319 27.4349
L43.5715 27.3140
" />
<path d="M43.5715 27.3140
L43.5715 27.1930
" />
<path d="M43.5715 27.1930
L43.6319 27.0721
" />
<path d="M43.6319 27.0721
L43.6924 27.0116
" />
<path d="M43.6924 27.0116
L43.8134 26.9511
" />
<path d="M43.8134 26.9511
L44.1157 26.9511
" />
<path d="M44.1157 26.9511
L44.2972 27.0116
" />
<path d="M45.0833 26.9511
L45.3252 26.9511
" />
<path d="M45.3252 26.9511
L45.4462 27.0116
" />
<path d="M45.4462 27.0116
L45.5671 27.1326
" />
<path d="M45.5671 27.1326
L45.6276 27.3745
" />
<path d="M45.6276 27.3745
L45.6276 27.7978
" />
<path d="M45.6276 27.7978
L45.5671 28.0397
" />
<path d="M45.5671 28.0397
L45.4462 28.1607
" />
<path d="M45.4462 28.1607
L45.3252 28.2211
" />
<path d="M45.3252 28.2211
L45.0833 28.2211
" />
<path d="M45.0833 28.2211
L44.9624 28.1607
" />
<path d="M44.9624 28.1607
L44.8414 28.0397
" />
<path d="M44.8414 28.0397
L44.7810 27.7978
" />
<path d="M44.7810 27.7978
L44.7810 27.3745
" />
<path d="M44.7810 27.3745
L44.8414 27.1326
" />
<path d="M44.8414 27.1326
L44.9624 27.0116
" />
<path d="M44.9624 27.0116
L45.0833 26.9511
" />
<path d="M45.9905 26.9511
L46.7162 26.9511
" />
<path d="M46.3534 28.2211
L46.3534 26.9511
" />
<path d="M46.8372 28.3421
L47.8048 28.3421
" />
<path d="M48.0467 28.1607
L48.2281 28.2211
" />
<path d="M48.2281 28.2211
L48.5305 28.2211
" />
<path d="M48.5305 28.2211
L48.6514 28.1607
" />
<path d="M48.6514 28.1607
L48.7119 28.1002
" />
<path d="M48.7119 28.1002
L48.7724 27.9792
" />
<path d="M48.7724 27.9792
L48.7724 27.8583
" />
<path d="M48.7724 27.8583
L48.7119 27.7373
" />
<path d="M48.7119 27.7373
L48.6514 27.6768
" />
<path d="M48.6514 27.6768
L48.5305 27.6164
" />
<path d="M48.5305 27.6164
L48.2886 27.5559
" />
<path d="M48.2886 27.5559
L48.1676 27.4954
" />
<path d="M48.1676 27.4954
L48.1071 27.4349
" />
<path d="M48.1071 27.4349
L48.0467 27.3140
" />
<path d="M48.0467 27.3140
L48.0467 27.1930
" />
<path d="M48.0467 27.1930
L48.1071 27.0721
" />
<path d="M48.1071 27.0721
L48.1676 27.0116
" />
<path d="M48.1676 27.0116
L48.2886 26.9511
" />
<path d="M48.2886 26.9511
L48.5909 26.9511
" />
<path d="M48.5909 26.9511
L48.7724 27.0116
" />
<path d="M49.3166 28.2211
L49.3166 26.9511
" />
<path d="M49.3166 26.9511
L49.7400 27.8583
" />
<path d="M49.7400 27.8583
L50.1633 26.9511
" />
<path d="M50.1633 26.9511
L50.1633 28.2211
" />
<path d="M50.7680 28.2211
L50.7680 26.9511
" />
<path d="M50.7680 26.9511
L51.0704 26.9511
" />
<path d="M51.0704 26.9511
L51.2518 27.0116
" />
<path d="M51.2518 27.0116
L51.3728 27.1326
" />
<path d="M51.3728 27.1326
L51.4333 27.2535
" />
<path d="M51.4333 27.2535
L51.4937 27.4954
" />
<path d="M51.4937 27.4954
L51.4937 27.6768
" />
<path d="M51.4937 27.6768
L51.4333 27.9187
" />
<path d="M51.4333 27.9187
L51.3728 28.0397
" />
<path d="M51.3728 28.0397
L51.2518 28.1607
" />
<path d="M51.2518 28.1607
L51.0704 28.2211
" />
<path d="M51.0704 28.2211
L50.7680 28.2211
" />
<path d="M52.0380 28.1002
L52.0985 28.1607
" />
<path d="M52.0985 28.1607
L52.0380 28.2211
" />
<path d="M52.0380 28.2211
L51.9776 28.1607
" />
<path d="M51.9776 28.1607
L52.0380 28.1002
" />
<path d="M52.0380 28.1002
L52.0380 28.2211
" />
<path d="M52.0380 27.4349
L52.0985 27.4954
" />
<path d="M52.0985 27.4954
L52.0380 27.5559
" />
<path d="M52.0380 27.5559
L51.9776 27.4954
" />
<path d="M51.9776 27.4954
L52.0380 27.4349
" />
<path d="M52.0380 27.4349
L52.0380 27.5559
" />
<path d="M52.5824 28.1607
L52.7638 28.2211
" />
<path d="M52.7638 28.2211
L53.0662 28.2211
" />
<path d="M53.0662 28.2211
L53.1871 28.1607
" />
<path d="M53.1871 28.1607
L53.2476 28.1002
" />
<path d="M53.2476 28.1002
L53.3081 27.9792
" />
<path d="M53.3081 27.9792
L53.3081 27.8583
" />
<path d="M53.3081 27.8583
L53.2476 27.7373
" />
<path d="M53.2476 27.7373
L53.1871 27.6768
" />
<path d="M53.1871 27.6768
L53.0662 27.6164
" />
<path d="M53.0662 27.6164
L52.8243 27.5559
" />
<path d="M52.8243 27.5559
L52.7033 27.4954
" />
<path d="M52.7033 27.4954
L52.6428 27.4349
" />
<path d="M52.6428 27.4349
L52.5824 27.3140
" />
<path d="M52.5824 27.3140
L52.5824 27.1930
" />
<path d="M52.5824 27.1930
L52.6428 27.0721
" />
<path d="M52.6428 27.0721
L52.7033 27.0116
" />
<path d="M52.7033 27.0116
L52.8243 26.9511
" />
<path d="M52.8243 26.9511
L53.1266 26.9511
" />
<path d="M53.1266 26.9511
L53.3081 27.0116
" />
<path d="M54.0942 26.9511
L54.3361 26.9511
" />
<path d="M54.3361 26.9511
L54.4571 27.0116
" />
<path d="M54.4571 27.0116
L54.5780 27.1326
" />
<path d="M54.5780 27.1326
L54.6385 27.3745
" />
<path d="M54.6385 27.3745
L54.6385 27.7978
" />
<path d="M54.6385 27.7978
L54.5780 28.0397
" />
<path d="M54.5780 28.0397
L54.4571 28.1607
" />
<path d="M54.4571 28.1607
L54.3361 28.2211
" />
<path d="M54.3361 28.2211
L54.0942 28.2211
" />
<path d="M54.0942 28.2211
L53.9733 28.1607
" />
<path d="M53.9733 28.1607
L53.8523 28.0397
" />
<path d="M53.8523 28.0397
L53.7919 27.7978
" />
<path d="M53.7919 27.7978
L53.7919 27.3745
" />
<path d="M53.7919 27.3745
L53.8523 27.1326
" />
<path d="M53.8523 27.1326
L53.9733 27.0116
" />
<path d="M53.9733 27.0116
L54.0942 26.9511
" />
<path d="M55.0014 26.9511
L55.7271 26.9511
" />
<path d="M55.3643 28.2211
L55.3643 26.9511
" />
<path d="M56.1504 27.7373
L57.1181 27.7373
" />
<path d="M57.6019 26.9511
L58.3881 26.9511
" />
<path d="M58.3881 26.9511
L57.9647 27.4349
" />
<path d="M57.9647 27.4349
L58.1462 27.4349
" />
<path d="M58.1462 27.4349
L58.2671 27.4954
" />
<path d="M58.2671 27.4954
L58.3276 27.5559
" />
<path d="M58.3276 27.5559
L58.3881 27.6768
" />
<path d="M58.3881 27.6768
L58.3881 27.9792
" />
<path d="M58.3881 27.9792
L58.3276 28.1002
" />
<path d="M58.3276 28.1002
L58.2671 28.1607
" />
<path d="M58.2671 28.1607
L58.1462 28.2211
" />
<path d="M58.1462 28.2211
L57.7833 28.2211
" />
<path d="M57.7833 28.2211
L57.6624 28.1607
" />
<path d="M57.6624 28.1607
L57.6019 28.1002
" />
<path d="M59.4766 26.9511
L59.2347 26.9511
" />
<path d="M59.2347 26.9511
L59.1138 27.0116
" />
<path d="M59.1138 27.0116
L59.0533 27.0721
" />
<path d="M59.0533 27.0721
L58.9323 27.2535
" />
<path d="M58.9323 27.2535
L58.8719 27.4954
" />
<path d="M58.8719 27.4954
L58.8719 27.9792
" />
<path d="M58.8719 27.9792
L58.9323 28.1002
" />
<path d="M58.9323 28.1002
L58.9928 28.1607
" />
<path d="M58.9928 28.1607
L59.1138 28.2211
" />
<path d="M59.1138 28.2211
L59.3557 28.2211
" />
<path d="M59.3557 28.2211
L59.4766 28.1607
" />
<path d="M59.4766 28.1607
L59.5371 28.1002
" />
<path d="M59.5371 28.1002
L59.5976 27.9792
" />
<path d="M59.5976 27.9792
L59.5976 27.6768
" />
<path d="M59.5976 27.6768
L59.5371 27.5559
" />
<path d="M59.5371 27.5559
L59.4766 27.4954
" />
<path d="M59.4766 27.4954
L59.3557 27.4349
" />
<path d="M59.3557 27.4349
L59.1138 27.4349
" />
<path d="M59.1138 27.4349
L58.9928 27.4954
" />
<path d="M58.9928 27.4954
L58.9323 27.5559
" />
<path d="M58.9323 27.5559
L58.8719 27.6768
" />
<path d="M60.0209 26.9511
L60.8071 26.9511
" />
<path d="M60.8071 26.9511
L60.3837 27.4349
" />
<path d="M60.3837 27.4349
L60.5652 27.4349
" />
<path d="M60.5652 27.4349
L60.6861 27.4954
" />
<path d="M60.6861 27.4954
L60.7466 27.5559
" />
<path d="M60.7466 27.5559
L60.8071 27.6768
" />
<path d="M60.8071 27.6768
L60.8071 27.9792
" />
<path d="M60.8071 27.9792
L60.7466 28.1002
" />
<path d="M60.7466 28.1002
L60.6861 28.1607
" />
<path d="M60.6861 28.1607
L60.5652 28.2211
" />
<path d="M60.5652 28.2211
L60.2023 28.2211
" />
<path d="M60.2023 28.2211
L60.0814 28.1607
" />
<path d="M60.0814 28.1607
L60.0209 28.1002
" />
<path d="M61.0490 28.3421
L62.0166 28.3421
" />
<path d="M62.2585 28.1607
L62.4399 28.2211
" />
<path d="M62.4399 28.2211
L62.7423 28.2211
" />
<path d="M62.7423 28.2211
L62.8632 28.1607
" />
<path d="M62.8632 28.1607
L62.9237 28.1002
" />
<path d="M62.9237 28.1002
L62.9842 27.9792
" />
<path d="M62.9842 27.9792
L62.9842 27.8583
" />
<path d="M62.9842 27.8583
L62.9237 27.7373
" />
<path d="M62.9237 27.7373
L62.8632 27.6768
" />
<path d="M62.8632 27.6768
L62.7423 27.6164
" />
<path d="M62.7423 27.6164
L62.5004 27.5559
" />
<path d="M62.5004 27.5559
L62.3794 27.4954
" />
<path d="M62.3794 27.4954
L62.3189 27.4349
" />
<path d="M62.3189 27.4349
L62.2585 27.3140
" />
<path d="M62.2585 27.3140
L62.2585 27.1930
" />
<path d="M62.2585 27.1930
L62.3189 27.0721
" />
<path d="M62.3189 27.0721
L62.3794 27.0116
" />
<path d="M62.3794 27.0116
L62.5004 26.9511
" />
<path d="M62.5004 26.9511
L62.8027 26.9511
" />
<path d="M62.8027 26.9511
L62.9842 27.0116
" />
<path d="M64.2541 28.1002
L64.1937 28.1607
" />
<path d="M64.1937 28.1607
L64.0122 28.2211
" />
<path d="M64.0122 28.2211
L63.8913 28.2211
" />
<path d="M63.8913 28.2211
L63.7099 28.1607
" />
<path d="M63.7099 28.1607
L63.5889 28.0397
" />
<path d="M63.5889 28.0397
L63.5284 27.9187
" />
<path d="M63.5284 27.9187
L63.4680 27.6768
" />
<path d="M63.4680 27.6768
L63.4680 27.4954
" />
<path d="M63.4680 27.4954
L63.5284 27.2535
" />
<path d="M63.5284 27.2535
L63.5889 27.1326
" />
<path d="M63.5889 27.1326
L63.7099 27.0116
" />
<path d="M63.7099 27.0116
L63.8913 26.9511
" />
<path d="M63.8913 26.9511
L64.0122 26.9511
" />
<path d="M64.0122 26.9511
L64.1937 27.0116
" />
<path d="M64.1937 27.0116
L64.2541 27.0721
" />
<path d="M64.7984 27.7373
L65.7661 27.7373
" />
<path d="M66.2499 26.9511
L67.0965 26.9511
" />
<path d="M67.0965 26.9511
L66.5523 28.2211
" />
<path d="M67.8222 26.9511
L67.9432 26.9511
" />
<path d="M67.9432 26.9511
L68.0641 27.0116
" />
<path d="M68.0641 27.0116
L68.1246 27.0721
" />
<path d="M68.1246 27.0721
L68.1851 27.1930
" />
<path d="M68.1851 27.1930
L68.2456 27.4349
" />
<path d="M68.2456 27.4349
L68.2456 27.7373
" />
<path d="M68.2456 27.7373
L68.1851 27.9792
" />
<path d="M68.1851 27.9792
L68.1246 28.1002
" />
<path d="M68.1246 28.1002
L68.0641 28.1607
" />
<path d="M68.0641 28.1607
L67.9432 28.2211
" />
<path d="M67.9432 28.2211
L67.8222 28.2211
" />
<path d="M67.8222 28.2211
L67.7013 28.1607
" />
<path d="M67.7013 28.1607
L67.6408 28.1002
" />
<path d="M67.6408 28.1002
L67.5803 27.9792
" />
<path d="M67.5803 27.9792
L67.5199 27.7373
" />
<path d="M67.5199 27.7373
L67.5199 27.4349
" />
<path d="M67.5199 27.4349
L67.5803 27.1930
" />
<path d="M67.5803 27.1930
L67.6408 27.0721
" />
<path d="M67.6408 27.0721
L67.7013 27.0116
" />
<path d="M67.7013 27.0116
L67.8222 26.9511
" />
<path d="M68.7898 27.7373
L69.7575 27.7373
" />
<path d="M70.9065 26.9511
L70.6646 26.9511
" />
<path d="M70.6646 26.9511
L70.5437 27.0116
" />
<path d="M70.5437 27.0116
L70.4832 27.0721
" />
<path d="M70.4832 27.0721
L70.3622 27.2535
" />
<path d="M70.3622 27.2535
L70.3018 27.4954
" />
<path d="M70.3018 27.4954
L70.3018 27.9792
" />
<path d="M70.3018 27.9792
L70.3622 28.1002
" />
<path d="M70.3622 28.1002
L70.4227 28.1607
" />
<path d="M70.4227 28.1607
L70.5437 28.2211
" />
<path d="M70.5437 28.2211
L70.7856 28.2211
" />
<path d="M70.7856 28.2211
L70.9065 28.1607
" />
<path d="M70.9065 28.1607
L70.9670 28.1002
" />
<path d="M70.9670 28.1002
L71.0275 27.9792
" />
<path d="M71.0275 27.9792
L71.0275 27.6768
" />
<path d="M71.0275 27.6768
L70.9670 27.5559
" />
<path d="M70.9670 27.5559
L70.9065 27.4954
" />
<path d="M70.9065 27.4954
L70.7856 27.4349
" />
<path d="M70.7856 27.4349
L70.5437 27.4349
" />
<path d="M70.5437 27.4349
L70.4227 27.4954
" />
<path d="M70.4227 27.4954
L70.3622 27.5559
" />
<path d="M70.3622 27.5559
L70.3018 27.6768
" />
</g><text x="29.7928" y="40.9769"
textLength="46.6075" font-size="1.6933" lengthAdjust="spacingAndGlyphs"
text-anchor="middle" opacity="0">https://www.ti.com/lit/ds/symlink/txs0101.pdf</text>
<g class="stroked-text"><desc>https://www.ti.com/lit/ds/symlink/txs0101.pdf</desc>
<path d="M6.9026 40.9211
L6.9026 39.6511
" />
<path d="M7.4469 40.9211
L7.4469 40.2559
" />
<path d="M7.4469 40.2559
L7.3864 40.1349
" />
<path d="M7.3864 40.1349
L7.2655 40.0745
" />
<path d="M7.2655 40.0745
L7.0841 40.0745
" />
<path d="M7.0841 40.0745
L6.9631 40.1349
" />
<path d="M6.9631 40.1349
L6.9026 40.1954
" />
<path d="M7.8702 40.0745
L8.3540 40.0745
" />
<path d="M8.0516 39.6511
L8.0516 40.7397
" />
<path d="M8.0516 40.7397
L8.1121 40.8607
" />
<path d="M8.1121 40.8607
L8.2331 40.9211
" />
<path d="M8.2331 40.9211
L8.3540 40.9211
" />
<path d="M8.5959 40.0745
L9.0797 40.0745
" />
<path d="M8.7773 39.6511
L8.7773 40.7397
" />
<path d="M8.7773 40.7397
L8.8378 40.8607
" />
<path d="M8.8378 40.8607
L8.9588 40.9211
" />
<path d="M8.9588 40.9211
L9.0797 40.9211
" />
<path d="M9.5030 40.0745
L9.5030 41.3445
" />
<path d="M9.5030 40.1349
L9.6240 40.0745
" />
<path d="M9.6240 40.0745
L9.8659 40.0745
" />
<path d="M9.8659 40.0745
L9.9868 40.1349
" />
<path d="M9.9868 40.1349
L10.0473 40.1954
" />
<path d="M10.0473 40.1954
L10.1078 40.3164
" />
<path d="M10.1078 40.3164
L10.1078 40.6792
" />
<path d="M10.1078 40.6792
L10.0473 40.8002
" />
<path d="M10.0473 40.8002
L9.9868 40.8607
" />
<path d="M9.9868 40.8607
L9.8659 40.9211
" />
<path d="M9.8659 40.9211
L9.6240 40.9211
" />
<path d="M9.6240 40.9211
L9.5030 40.8607
" />
<path d="M10.5916 40.8607
L10.7125 40.9211
" />
<path d="M10.7125 40.9211
L10.9544 40.9211
" />
<path d="M10.9544 40.9211
L11.0754 40.8607
" />
<path d="M11.0754 40.8607
L11.1358 40.7397
" />
<path d="M11.1358 40.7397
L11.1358 40.6792
" />
<path d="M11.1358 40.6792
L11.0754 40.5583
" />
<path d="M11.0754 40.5583
L10.9544 40.4978
" />
<path d="M10.9544 40.4978
L10.7730 40.4978
" />
<path d="M10.7730 40.4978
L10.6520 40.4373
" />
<path d="M10.6520 40.4373
L10.5916 40.3164
" />
<path d="M10.5916 40.3164
L10.5916 40.2559
" />
<path d="M10.5916 40.2559
L10.6520 40.1349
" />
<path d="M10.6520 40.1349
L10.7730 40.0745
" />
<path d="M10.7730 40.0745
L10.9544 40.0745
" />
<path d="M10.9544 40.0745
L11.0754 40.1349
" />
<path d="M11.6801 40.8002
L11.7406 40.8607
" />
<path d="M11.7406 40.8607
L11.6801 40.9211
" />
<path d="M11.6801 40.9211
L11.6197 40.8607
" />
<path d="M11.6197 40.8607
L11.6801 40.8002
" />
<path d="M11.6801 40.8002
L11.6801 40.9211
" />
<path d="M11.6801 40.1349
L11.7406 40.1954
" />
<path d="M11.7406 40.1954
L11.6801 40.2559
" />
<path d="M11.6801 40.2559
L11.6197 40.1954
" />
<path d="M11.6197 40.1954
L11.6801 40.1349
" />
<path d="M11.6801 40.1349
L11.6801 40.2559
" />
<path d="M13.1921 39.5907
L12.1035 41.2235
" />
<path d="M14.5226 39.5907
L13.4340 41.2235
" />
<path d="M14.8250 40.0745
L15.0669 40.9211
" />
<path d="M15.0669 40.9211
L15.3088 40.3164
" />
<path d="M15.3088 40.3164
L15.5507 40.9211
" />
<path d="M15.5507 40.9211
L15.7926 40.0745
" />
<path d="M16.1555 40.0745
L16.3974 40.9211
" />
<path d="M16.3974 40.9211
L16.6393 40.3164
" />
<path d="M16.6393 40.3164
L16.8812 40.9211
" />
<path d="M16.8812 40.9211
L17.1231 40.0745
" />
<path d="M17.4860 40.0745
L17.7279 40.9211
" />
<path d="M17.7279 40.9211
L17.9698 40.3164
" />
<path d="M17.9698 40.3164
L18.2117 40.9211
" />
<path d="M18.2117 40.9211
L18.4536 40.0745
" />
<path d="M18.9374 40.8002
L18.9979 40.8607
" />
<path d="M18.9979 40.8607
L18.9374 40.9211
" />
<path d="M18.9374 40.9211
L18.8770 40.8607
" />
<path d="M18.8770 40.8607
L18.9374 40.8002
" />
<path d="M18.9374 40.8002
L18.9374 40.9211
" />
<path d="M19.3608 40.0745
L19.8446 40.0745
" />
<path d="M19.5422 39.6511
L19.5422 40.7397
" />
<path d="M19.5422 40.7397
L19.6027 40.8607
" />
<path d="M19.6027 40.8607
L19.7237 40.9211
" />
<path d="M19.7237 40.9211
L19.8446 40.9211
" />
<path d="M20.2679 40.9211
L20.2679 40.0745
" />
<path d="M20.2679 39.6511
L20.2075 39.7116
" />
<path d="M20.2075 39.7116
L20.2679 39.7721
" />
<path d="M20.2679 39.7721
L20.3284 39.7116
" />
<path d="M20.3284 39.7116
L20.2679 39.6511
" />
<path d="M20.2679 39.6511
L20.2679 39.7721
" />
<path d="M20.8727 40.8002
L20.9332 40.8607
" />
<path d="M20.9332 40.8607
L20.8727 40.9211
" />
<path d="M20.8727 40.9211
L20.8123 40.8607
" />
<path d="M20.8123 40.8607
L20.8727 40.8002
" />
<path d="M20.8727 40.8002
L20.8727 40.9211
" />
<path d="M22.0218 40.8607
L21.9009 40.9211
" />
<path d="M21.9009 40.9211
L21.6590 40.9211
" />
<path d="M21.6590 40.9211
L21.5380 40.8607
" />
<path d="M21.5380 40.8607
L21.4775 40.8002
" />
<path d="M21.4775 40.8002
L21.4171 40.6792
" />
<path d="M21.4171 40.6792
L21.4171 40.3164
" />
<path d="M21.4171 40.3164
L21.4775 40.1954
" />
<path d="M21.4775 40.1954
L21.5380 40.1349
" />
<path d="M21.5380 40.1349
L21.6590 40.0745
" />
<path d="M21.6590 40.0745
L21.9009 40.0745
" />
<path d="M21.9009 40.0745
L22.0218 40.1349
" />
<path d="M22.7476 40.9211
L22.6266 40.8607
" />
<path d="M22.6266 40.8607
L22.5661 40.8002
" />
<path d="M22.5661 40.8002
L22.5057 40.6792
" />
<path d="M22.5057 40.6792
L22.5057 40.3164
" />
<path d="M22.5057 40.3164
L22.5661 40.1954
" />
<path d="M22.5661 40.1954
L22.6266 40.1349
" />
<path d="M22.6266 40.1349
L22.7476 40.0745
" />
<path d="M22.7476 40.0745
L22.9290 40.0745
" />
<path d="M22.9290 40.0745
L23.0499 40.1349
" />
<path d="M23.0499 40.1349
L23.1104 40.1954
" />
<path d="M23.1104 40.1954
L23.1709 40.3164
" />
<path d="M23.1709 40.3164
L23.1709 40.6792
" />
<path d="M23.1709 40.6792
L23.1104 40.8002
" />
<path d="M23.1104 40.8002
L23.0499 40.8607
" />
<path d="M23.0499 40.8607
L22.9290 40.9211
" />
<path d="M22.9290 40.9211
L22.7476 40.9211
" />
<path d="M23.7151 40.9211
L23.7151 40.0745
" />
<path d="M23.7151 40.1954
L23.7756 40.1349
" />
<path d="M23.7756 40.1349
L23.8966 40.0745
" />
<path d="M23.8966 40.0745
L24.0780 40.0745
" />
<path d="M24.0780 40.0745
L24.1989 40.1349
" />
<path d="M24.1989 40.1349
L24.2594 40.2559
" />
<path d="M24.2594 40.2559
L24.2594 40.9211
" />
<path d="M24.2594 40.2559
L24.3199 40.1349
" />
<path d="M24.3199 40.1349
L24.4408 40.0745
" />
<path d="M24.4408 40.0745
L24.6223 40.0745
" />
<path d="M24.6223 40.0745
L24.7432 40.1349
" />
<path d="M24.7432 40.1349
L24.8037 40.2559
" />
<path d="M24.8037 40.2559
L24.8037 40.9211
" />
<path d="M26.3156 39.5907
L25.2270 41.2235
" />
<path d="M26.9204 40.9211
L26.7994 40.8607
" />
<path d="M26.7994 40.8607
L26.7389 40.7397
" />
<path d="M26.7389 40.7397
L26.7389 39.6511
" />
<path d="M27.4041 40.9211
L27.4041 40.0745
" />
<path d="M27.4041 39.6511
L27.3437 39.7116
" />
<path d="M27.3437 39.7116
L27.4041 39.7721
" />
<path d="M27.4041 39.7721
L27.4646 39.7116
" />
<path d="M27.4646 39.7116
L27.4041 39.6511
" />
<path d="M27.4041 39.6511
L27.4041 39.7721
" />
<path d="M27.8275 40.0745
L28.3113 40.0745
" />
<path d="M28.0089 39.6511
L28.0089 40.7397
" />
<path d="M28.0089 40.7397
L28.0694 40.8607
" />
<path d="M28.0694 40.8607
L28.1904 40.9211
" />
<path d="M28.1904 40.9211
L28.3113 40.9211
" />
<path d="M29.6418 39.5907
L28.5532 41.2235
" />
<path d="M30.6094 40.9211
L30.6094 39.6511
" />
<path d="M30.6094 40.8607
L30.4885 40.9211
" />
<path d="M30.4885 40.9211
L30.2466 40.9211
" />
<path d="M30.2466 40.9211
L30.1256 40.8607
" />
<path d="M30.1256 40.8607
L30.0651 40.8002
" />
<path d="M30.0651 40.8002
L30.0047 40.6792
" />
<path d="M30.0047 40.6792
L30.0047 40.3164
" />
<path d="M30.0047 40.3164
L30.0651 40.1954
" />
<path d="M30.0651 40.1954
L30.1256 40.1349
" />
<path d="M30.1256 40.1349
L30.2466 40.0745
" />
<path d="M30.2466 40.0745
L30.4885 40.0745
" />
<path d="M30.4885 40.0745
L30.6094 40.1349
" />
<path d="M31.1537 40.8607
L31.2746 40.9211
" />
<path d="M31.2746 40.9211
L31.5165 40.9211
" />
<path d="M31.5165 40.9211
L31.6375 40.8607
" />
<path d="M31.6375 40.8607
L31.6979 40.7397
" />
<path d="M31.6979 40.7397
L31.6979 40.6792
" />
<path d="M31.6979 40.6792
L31.6375 40.5583
" />
<path d="M31.6375 40.5583
L31.5165 40.4978
" />
<path d="M31.5165 40.4978
L31.3351 40.4978
" />
<path d="M31.3351 40.4978
L31.2141 40.4373
" />
<path d="M31.2141 40.4373
L31.1537 40.3164
" />
<path d="M31.1537 40.3164
L31.1537 40.2559
" />
<path d="M31.1537 40.2559
L31.2141 40.1349
" />
<path d="M31.2141 40.1349
L31.3351 40.0745
" />
<path d="M31.3351 40.0745
L31.5165 40.0745
" />
<path d="M31.5165 40.0745
L31.6375 40.1349
" />
<path d="M33.1494 39.5907
L32.0608 41.2235
" />
<path d="M33.5123 40.8607
L33.6332 40.9211
" />
<path d="M33.6332 40.9211
L33.8751 40.9211
" />
<path d="M33.8751 40.9211
L33.9961 40.8607
" />
<path d="M33.9961 40.8607
L34.0565 40.7397
" />
<path d="M34.0565 40.7397
L34.0565 40.6792
" />
<path d="M34.0565 40.6792
L33.9961 40.5583
" />
<path d="M33.9961 40.5583
L33.8751 40.4978
" />
<path d="M33.8751 40.4978
L33.6937 40.4978
" />
<path d="M33.6937 40.4978
L33.5727 40.4373
" />
<path d="M33.5727 40.4373
L33.5123 40.3164
" />
<path d="M33.5123 40.3164
L33.5123 40.2559
" />
<path d="M33.5123 40.2559
L33.5727 40.1349
" />
<path d="M33.5727 40.1349
L33.6937 40.0745
" />
<path d="M33.6937 40.0745
L33.8751 40.0745
" />
<path d="M33.8751 40.0745
L33.9961 40.1349
" />
<path d="M34.4799 40.0745
L34.7823 40.9211
" />
<path d="M35.0846 40.0745
L34.7823 40.9211
" />
<path d="M34.7823 40.9211
L34.6613 41.2235
" />
<path d="M34.6613 41.2235
L34.6008 41.2840
" />
<path d="M34.6008 41.2840
L34.4799 41.3445
" />
<path d="M35.5684 40.9211
L35.5684 40.0745
" />
<path d="M35.5684 40.1954
L35.6289 40.1349
" />
<path d="M35.6289 40.1349
L35.7499 40.0745
" />
<path d="M35.7499 40.0745
L35.9313 40.0745
" />
<path d="M35.9313 40.0745
L36.0522 40.1349
" />
<path d="M36.0522 40.1349
L36.1127 40.2559
" />
<path d="M36.1127 40.2559
L36.1127 40.9211
" />
<path d="M36.1127 40.2559
L36.1732 40.1349
" />
<path d="M36.1732 40.1349
L36.2941 40.0745
" />
<path d="M36.2941 40.0745
L36.4756 40.0745
" />
<path d="M36.4756 40.0745
L36.5965 40.1349
" />
<path d="M36.5965 40.1349
L36.6570 40.2559
" />
<path d="M36.6570 40.2559
L36.6570 40.9211
" />
<path d="M37.4432 40.9211
L37.3222 40.8607
" />
<path d="M37.3222 40.8607
L37.2617 40.7397
" />
<path d="M37.2617 40.7397
L37.2617 39.6511
" />
<path d="M37.9269 40.9211
L37.9269 40.0745
" />
<path d="M37.9269 39.6511
L37.8665 39.7116
" />
<path d="M37.8665 39.7116
L37.9269 39.7721
" />
<path d="M37.9269 39.7721
L37.9874 39.7116
" />
<path d="M37.9874 39.7116
L37.9269 39.6511
" />
<path d="M37.9269 39.6511
L37.9269 39.7721
" />
<path d="M38.5317 40.0745
L38.5317 40.9211
" />
<path d="M38.5317 40.1954
L38.5922 40.1349
" />
<path d="M38.5922 40.1349
L38.7132 40.0745
" />
<path d="M38.7132 40.0745
L38.8946 40.0745
" />
<path d="M38.8946 40.0745
L39.0155 40.1349
" />
<path d="M39.0155 40.1349
L39.0760 40.2559
" />
<path d="M39.0760 40.2559
L39.0760 40.9211
" />
<path d="M39.6807 40.9211
L39.6807 39.6511
" />
<path d="M39.8017 40.4373
L40.1645 40.9211
" />
<path d="M40.1645 40.0745
L39.6807 40.5583
" />
<path d="M41.6160 39.5907
L40.5274 41.2235
" />
<path d="M41.8579 40.0745
L42.3417 40.0745
" />
<path d="M42.0393 39.6511
L42.0393 40.7397
" />
<path d="M42.0393 40.7397
L42.0998 40.8607
" />
<path d="M42.0998 40.8607
L42.2208 40.9211
" />
<path d="M42.2208 40.9211
L42.3417 40.9211
" />
<path d="M42.6441 40.9211
L43.3093 40.0745
" />
<path d="M42.6441 40.0745
L43.3093 40.9211
" />
<path d="M43.7327 40.8607
L43.8536 40.9211
" />
<path d="M43.8536 40.9211
L44.0955 40.9211
" />
<path d="M44.0955 40.9211
L44.2165 40.8607
" />
<path d="M44.2165 40.8607
L44.2769 40.7397
" />
<path d="M44.2769 40.7397
L44.2769 40.6792
" />
<path d="M44.2769 40.6792
L44.2165 40.5583
" />
<path d="M44.2165 40.5583
L44.0955 40.4978
" />
<path d="M44.0955 40.4978
L43.9141 40.4978
" />
<path d="M43.9141 40.4978
L43.7931 40.4373
" />
<path d="M43.7931 40.4373
L43.7327 40.3164
" />
<path d="M43.7327 40.3164
L43.7327 40.2559
" />
<path d="M43.7327 40.2559
L43.7931 40.1349
" />
<path d="M43.7931 40.1349
L43.9141 40.0745
" />
<path d="M43.9141 40.0745
L44.0955 40.0745
" />
<path d="M44.0955 40.0745
L44.2165 40.1349
" />
<path d="M45.0631 39.6511
L45.1841 39.6511
" />
<path d="M45.1841 39.6511
L45.3050 39.7116
" />
<path d="M45.3050 39.7116
L45.3655 39.7721
" />
<path d="M45.3655 39.7721
L45.4260 39.8930
" />
<path d="M45.4260 39.8930
L45.4865 40.1349
" />
<path d="M45.4865 40.1349
L45.4865 40.4373
" />
<path d="M45.4865 40.4373
L45.4260 40.6792
" />
<path d="M45.4260 40.6792
L45.3655 40.8002
" />
<path d="M45.3655 40.8002
L45.3050 40.8607
" />
<path d="M45.3050 40.8607
L45.1841 40.9211
" />
<path d="M45.1841 40.9211
L45.0631 40.9211
" />
<path d="M45.0631 40.9211
L44.9422 40.8607
" />
<path d="M44.9422 40.8607
L44.8817 40.8002
" />
<path d="M44.8817 40.8002
L44.8212 40.6792
" />
<path d="M44.8212 40.6792
L44.7608 40.4373
" />
<path d="M44.7608 40.4373
L44.7608 40.1349
" />
<path d="M44.7608 40.1349
L44.8212 39.8930
" />
<path d="M44.8212 39.8930
L44.8817 39.7721
" />
<path d="M44.8817 39.7721
L44.9422 39.7116
" />
<path d="M44.9422 39.7116
L45.0631 39.6511
" />
<path d="M46.6960 40.9211
L45.9703 40.9211
" />
<path d="M46.3331 40.9211
L46.3331 39.6511
" />
<path d="M46.3331 39.6511
L46.2122 39.8326
" />
<path d="M46.2122 39.8326
L46.0912 39.9535
" />
<path d="M46.0912 39.9535
L45.9703 40.0140
" />
<path d="M47.4821 39.6511
L47.6031 39.6511
" />
<path d="M47.6031 39.6511
L47.7240 39.7116
" />
<path d="M47.7240 39.7116
L47.7845 39.7721
" />
<path d="M47.7845 39.7721
L47.8450 39.8930
" />
<path d="M47.8450 39.8930
L47.9055 40.1349
" />
<path d="M47.9055 40.1349
L47.9055 40.4373
" />
<path d="M47.9055 40.4373
L47.8450 40.6792
" />
<path d="M47.8450 40.6792
L47.7845 40.8002
" />
<path d="M47.7845 40.8002
L47.7240 40.8607
" />
<path d="M47.7240 40.8607
L47.6031 40.9211
" />
<path d="M47.6031 40.9211
L47.4821 40.9211
" />
<path d="M47.4821 40.9211
L47.3612 40.8607
" />
<path d="M47.3612 40.8607
L47.3007 40.8002
" />
<path d="M47.3007 40.8002
L47.2402 40.6792
" />
<path d="M47.2402 40.6792
L47.1798 40.4373
" />
<path d="M47.1798 40.4373
L47.1798 40.1349
" />
<path d="M47.1798 40.1349
L47.2402 39.8930
" />
<path d="M47.2402 39.8930
L47.3007 39.7721
" />
<path d="M47.3007 39.7721
L47.3612 39.7116
" />
<path d="M47.3612 39.7116
L47.4821 39.6511
" />
<path d="M49.1150 40.9211
L48.3893 40.9211
" />
<path d="M48.7521 40.9211
L48.7521 39.6511
" />
<path d="M48.7521 39.6511
L48.6312 39.8326
" />
<path d="M48.6312 39.8326
L48.5102 39.9535
" />
<path d="M48.5102 39.9535
L48.3893 40.0140
" />
<path d="M49.6592 40.8002
L49.7197 40.8607
" />
<path d="M49.7197 40.8607
L49.6592 40.9211
" />
<path d="M49.6592 40.9211
L49.5988 40.8607
" />
<path d="M49.5988 40.8607
L49.6592 40.8002
" />
<path d="M49.6592 40.8002
L49.6592 40.9211
" />
<path d="M50.2640 40.0745
L50.2640 41.3445
" />
<path d="M50.2640 40.1349
L50.3850 40.0745
" />
<path d="M50.3850 40.0745
L50.6269 40.0745
" />
<path d="M50.6269 40.0745
L50.7478 40.1349
" />
<path d="M50.7478 40.1349
L50.8083 40.1954
" />
<path d="M50.8083 40.1954
L50.8688 40.3164
" />
<path d="M50.8688 40.3164
L50.8688 40.6792
" />
<path d="M50.8688 40.6792
L50.8083 40.8002
" />
<path d="M50.8083 40.8002
L50.7478 40.8607
" />
<path d="M50.7478 40.8607
L50.6269 40.9211
" />
<path d="M50.6269 40.9211
L50.3850 40.9211
" />
<path d="M50.3850 40.9211
L50.2640 40.8607
" />
<path d="M51.9573 40.9211
L51.9573 39.6511
" />
<path d="M51.9573 40.8607
L51.8364 40.9211
" />
<path d="M51.8364 40.9211
L51.5945 40.9211
" />
<path d="M51.5945 40.9211
L51.4735 40.8607
" />
<path d="M51.4735 40.8607
L51.4130 40.8002
" />
<path d="M51.4130 40.8002
L51.3526 40.6792
" />
<path d="M51.3526 40.6792
L51.3526 40.3164
" />
<path d="M51.3526 40.3164
L51.4130 40.1954
" />
<path d="M51.4130 40.1954
L51.4735 40.1349
" />
<path d="M51.4735 40.1349
L51.5945 40.0745
" />
<path d="M51.5945 40.0745
L51.8364 40.0745
" />
<path d="M51.8364 40.0745
L51.9573 40.1349
" />
<path d="M52.3806 40.0745
L52.8644 40.0745
" />
<path d="M52.5620 40.9211
L52.5620 39.8326
" />
<path d="M52.5620 39.8326
L52.6225 39.7116
" />
<path d="M52.6225 39.7116
L52.7435 39.6511
" />
<path d="M52.7435 39.6511
L52.8644 39.6511
" />
</g></g> 
</svg>
