<?xml version="1.0" standalone="no"?>
 <!DOCTYPE svg PUBLIC "-//W3C//DTD SVG 1.1//EN" 
 "http://www.w3.org/Graphics/SVG/1.1/DTD/svg11.dtd"> 
<svg
  xmlns:svg="http://www.w3.org/2000/svg"
  xmlns="http://www.w3.org/2000/svg"
  xmlns:xlink="http://www.w3.org/1999/xlink"
  version="1.1"
  width="72.3900mm" height="10.8458mm" viewBox="0.0000 0.0000 72.3900 10.8458">
<title>SVG Image created as working.svg date 2023/08/12 14:18:50 </title>
  <desc>Image generated by Eeschema-SVG </desc>
<g style="fill:#000000; fill-opacity:1.0000;stroke:#000000; stroke-opacity:1.0000;
stroke-linecap:round; stroke-linejoin:round;"
 transform="translate(0 0) scale(1 1)">
</g>
<g style="fill:#840000; fill-opacity:0.0; 
stroke:#840000; stroke-width:0.0000; stroke-opacity:1; 
stroke-linecap:round; stroke-linejoin:round;">
</g>
<g style="fill:#840084; fill-opacity:0.0; 
stroke:#840084; stroke-width:0.0000; stroke-opacity:1; 
stroke-linecap:round; stroke-linejoin:round;">
</g>
<g style="fill:#840000; fill-opacity:0.0; 
stroke:#840000; stroke-width:0.0000; stroke-opacity:1; 
stroke-linecap:round; stroke-linejoin:round;">
</g>
<g style="fill:#840084; fill-opacity:0.0; 
stroke:#840084; stroke-width:0.0000; stroke-opacity:1; 
stroke-linecap:round; stroke-linejoin:round;">
</g>
<g style="fill:#006464; fill-opacity:0.0; 
stroke:#006464; stroke-width:0.0000; stroke-opacity:1; 
stroke-linecap:round; stroke-linejoin:round;">
</g>
<g style="fill:#006464; fill-opacity:0.0; 
stroke:#006464; stroke-width:0.1588; stroke-opacity:1; 
stroke-linecap:round; stroke-linejoin:round;">
<text x="36.2012" y="2.5594"
textLength="2.5810" font-size="1.6933" lengthAdjust="spacingAndGlyphs"
text-anchor="middle" opacity="0">D?</text>
<g class="stroked-text"><desc>D?</desc>
<path d="M35.3242 2.5036
L35.3242 1.2336
" />
<path d="M35.3242 1.2336
L35.6266 1.2336
" />
<path d="M35.6266 1.2336
L35.8080 1.2941
" />
<path d="M35.8080 1.2941
L35.9290 1.4151
" />
<path d="M35.9290 1.4151
L35.9895 1.5360
" />
<path d="M35.9895 1.5360
L36.0499 1.7779
" />
<path d="M36.0499 1.7779
L36.0499 1.9593
" />
<path d="M36.0499 1.9593
L35.9895 2.2012
" />
<path d="M35.9895 2.2012
L35.9290 2.3222
" />
<path d="M35.9290 2.3222
L35.8080 2.4432
" />
<path d="M35.8080 2.4432
L35.6266 2.5036
" />
<path d="M35.6266 2.5036
L35.3242 2.5036
" />
<path d="M36.7757 2.3827
L36.8361 2.4432
" />
<path d="M36.8361 2.4432
L36.7757 2.5036
" />
<path d="M36.7757 2.5036
L36.7152 2.4432
" />
<path d="M36.7152 2.4432
L36.7757 2.3827
" />
<path d="M36.7757 2.3827
L36.7757 2.5036
" />
<path d="M36.5338 1.2941
L36.6547 1.2336
" />
<path d="M36.6547 1.2336
L36.9571 1.2336
" />
<path d="M36.9571 1.2336
L37.0780 1.2941
" />
<path d="M37.0780 1.2941
L37.1385 1.4151
" />
<path d="M37.1385 1.4151
L37.1385 1.5360
" />
<path d="M37.1385 1.5360
L37.0780 1.6570
" />
<path d="M37.0780 1.6570
L37.0176 1.7174
" />
<path d="M37.0176 1.7174
L36.8966 1.7779
" />
<path d="M36.8966 1.7779
L36.8361 1.8384
" />
<path d="M36.8361 1.8384
L36.7757 1.9593
" />
<path d="M36.7757 1.9593
L36.7757 2.0198
" />
</g><text x="36.2012" y="7.6394"
textLength="6.2095" font-size="1.6933" lengthAdjust="spacingAndGlyphs"
text-anchor="middle" opacity="0">ZMDxx</text>
<g class="stroked-text"><desc>ZMDxx</desc>
<path d="M33.3891 6.3136
L34.2357 6.3136
" />
<path d="M34.2357 6.3136
L33.3891 7.5836
" />
<path d="M33.3891 7.5836
L34.2357 7.5836
" />
<path d="M34.7195 7.5836
L34.7195 6.3136
" />
<path d="M34.7195 6.3136
L35.1429 7.2208
" />
<path d="M35.1429 7.2208
L35.5662 6.3136
" />
<path d="M35.5662 6.3136
L35.5662 7.5836
" />
<path d="M36.1709 7.5836
L36.1709 6.3136
" />
<path d="M36.1709 6.3136
L36.4733 6.3136
" />
<path d="M36.4733 6.3136
L36.6547 6.3741
" />
<path d="M36.6547 6.3741
L36.7757 6.4951
" />
<path d="M36.7757 6.4951
L36.8362 6.6160
" />
<path d="M36.8362 6.6160
L36.8966 6.8579
" />
<path d="M36.8966 6.8579
L36.8966 7.0393
" />
<path d="M36.8966 7.0393
L36.8362 7.2812
" />
<path d="M36.8362 7.2812
L36.7757 7.4022
" />
<path d="M36.7757 7.4022
L36.6547 7.5232
" />
<path d="M36.6547 7.5232
L36.4733 7.5836
" />
<path d="M36.4733 7.5836
L36.1709 7.5836
" />
<path d="M37.3200 7.5836
L37.9852 6.7370
" />
<path d="M37.3200 6.7370
L37.9852 7.5836
" />
<path d="M38.3481 7.5836
L39.0133 6.7370
" />
<path d="M38.3481 6.7370
L39.0133 7.5836
" />
</g></g>
<g style="fill:#840084; fill-opacity:0.0; 
stroke:#840084; stroke-width:0.1588; stroke-opacity:1; 
stroke-linecap:round; stroke-linejoin:round;">
<text x="36.2012" y="9.5444"
textLength="21.7518" font-size="1.6933" lengthAdjust="spacingAndGlyphs"
text-anchor="middle" opacity="0">Diode_SMD:D_MiniMELF</text>
<g class="stroked-text"><desc>Diode_SMD:D_MiniMELF</desc>
<path d="M25.7388 9.4886
L25.7388 8.2186
" />
<path d="M25.7388 8.2186
L26.0412 8.2186
" />
<path d="M26.0412 8.2186
L26.2226 8.2791
" />
<path d="M26.2226 8.2791
L26.3436 8.4001
" />
<path d="M26.3436 8.4001
L26.4041 8.5210
" />
<path d="M26.4041 8.5210
L26.4645 8.7629
" />
<path d="M26.4645 8.7629
L26.4645 8.9443
" />
<path d="M26.4645 8.9443
L26.4041 9.1862
" />
<path d="M26.4041 9.1862
L26.3436 9.3072
" />
<path d="M26.3436 9.3072
L26.2226 9.4282
" />
<path d="M26.2226 9.4282
L26.0412 9.4886
" />
<path d="M26.0412 9.4886
L25.7388 9.4886
" />
<path d="M27.0088 9.4886
L27.0088 8.6420
" />
<path d="M27.0088 8.2186
L26.9484 8.2791
" />
<path d="M26.9484 8.2791
L27.0088 8.3396
" />
<path d="M27.0088 8.3396
L27.0693 8.2791
" />
<path d="M27.0693 8.2791
L27.0088 8.2186
" />
<path d="M27.0088 8.2186
L27.0088 8.3396
" />
<path d="M27.7951 9.4886
L27.6741 9.4282
" />
<path d="M27.6741 9.4282
L27.6136 9.3677
" />
<path d="M27.6136 9.3677
L27.5532 9.2467
" />
<path d="M27.5532 9.2467
L27.5532 8.8839
" />
<path d="M27.5532 8.8839
L27.6136 8.7629
" />
<path d="M27.6136 8.7629
L27.6741 8.7024
" />
<path d="M27.6741 8.7024
L27.7951 8.6420
" />
<path d="M27.7951 8.6420
L27.9765 8.6420
" />
<path d="M27.9765 8.6420
L28.0974 8.7024
" />
<path d="M28.0974 8.7024
L28.1579 8.7629
" />
<path d="M28.1579 8.7629
L28.2184 8.8839
" />
<path d="M28.2184 8.8839
L28.2184 9.2467
" />
<path d="M28.2184 9.2467
L28.1579 9.3677
" />
<path d="M28.1579 9.3677
L28.0974 9.4282
" />
<path d="M28.0974 9.4282
L27.9765 9.4886
" />
<path d="M27.9765 9.4886
L27.7951 9.4886
" />
<path d="M29.3069 9.4886
L29.3069 8.2186
" />
<path d="M29.3069 9.4282
L29.1860 9.4886
" />
<path d="M29.1860 9.4886
L28.9441 9.4886
" />
<path d="M28.9441 9.4886
L28.8231 9.4282
" />
<path d="M28.8231 9.4282
L28.7626 9.3677
" />
<path d="M28.7626 9.3677
L28.7022 9.2467
" />
<path d="M28.7022 9.2467
L28.7022 8.8839
" />
<path d="M28.7022 8.8839
L28.7626 8.7629
" />
<path d="M28.7626 8.7629
L28.8231 8.7024
" />
<path d="M28.8231 8.7024
L28.9441 8.6420
" />
<path d="M28.9441 8.6420
L29.1860 8.6420
" />
<path d="M29.1860 8.6420
L29.3069 8.7024
" />
<path d="M30.3954 9.4282
L30.2745 9.4886
" />
<path d="M30.2745 9.4886
L30.0326 9.4886
" />
<path d="M30.0326 9.4886
L29.9116 9.4282
" />
<path d="M29.9116 9.4282
L29.8512 9.3072
" />
<path d="M29.8512 9.3072
L29.8512 8.8234
" />
<path d="M29.8512 8.8234
L29.9116 8.7024
" />
<path d="M29.9116 8.7024
L30.0326 8.6420
" />
<path d="M30.0326 8.6420
L30.2745 8.6420
" />
<path d="M30.2745 8.6420
L30.3954 8.7024
" />
<path d="M30.3954 8.7024
L30.4559 8.8234
" />
<path d="M30.4559 8.8234
L30.4559 8.9443
" />
<path d="M30.4559 8.9443
L29.8512 9.0653
" />
<path d="M30.6979 9.6096
L31.6655 9.6096
" />
<path d="M31.9074 9.4282
L32.0888 9.4886
" />
<path d="M32.0888 9.4886
L32.3912 9.4886
" />
<path d="M32.3912 9.4886
L32.5121 9.4282
" />
<path d="M32.5121 9.4282
L32.5726 9.3677
" />
<path d="M32.5726 9.3677
L32.6331 9.2467
" />
<path d="M32.6331 9.2467
L32.6331 9.1258
" />
<path d="M32.6331 9.1258
L32.5726 9.0048
" />
<path d="M32.5726 9.0048
L32.5121 8.9443
" />
<path d="M32.5121 8.9443
L32.3912 8.8839
" />
<path d="M32.3912 8.8839
L32.1493 8.8234
" />
<path d="M32.1493 8.8234
L32.0283 8.7629
" />
<path d="M32.0283 8.7629
L31.9678 8.7024
" />
<path d="M31.9678 8.7024
L31.9074 8.5815
" />
<path d="M31.9074 8.5815
L31.9074 8.4605
" />
<path d="M31.9074 8.4605
L31.9678 8.3396
" />
<path d="M31.9678 8.3396
L32.0283 8.2791
" />
<path d="M32.0283 8.2791
L32.1493 8.2186
" />
<path d="M32.1493 8.2186
L32.4516 8.2186
" />
<path d="M32.4516 8.2186
L32.6331 8.2791
" />
<path d="M33.1773 9.4886
L33.1773 8.2186
" />
<path d="M33.1773 8.2186
L33.6007 9.1258
" />
<path d="M33.6007 9.1258
L34.0240 8.2186
" />
<path d="M34.0240 8.2186
L34.0240 9.4886
" />
<path d="M34.6287 9.4886
L34.6287 8.2186
" />
<path d="M34.6287 8.2186
L34.9311 8.2186
" />
<path d="M34.9311 8.2186
L35.1125 8.2791
" />
<path d="M35.1125 8.2791
L35.2335 8.4001
" />
<path d="M35.2335 8.4001
L35.2940 8.5210
" />
<path d="M35.2940 8.5210
L35.3544 8.7629
" />
<path d="M35.3544 8.7629
L35.3544 8.9443
" />
<path d="M35.3544 8.9443
L35.2940 9.1862
" />
<path d="M35.2940 9.1862
L35.2335 9.3072
" />
<path d="M35.2335 9.3072
L35.1125 9.4282
" />
<path d="M35.1125 9.4282
L34.9311 9.4886
" />
<path d="M34.9311 9.4886
L34.6287 9.4886
" />
<path d="M35.8987 9.3677
L35.9592 9.4282
" />
<path d="M35.9592 9.4282
L35.8987 9.4886
" />
<path d="M35.8987 9.4886
L35.8383 9.4282
" />
<path d="M35.8383 9.4282
L35.8987 9.3677
" />
<path d="M35.8987 9.3677
L35.8987 9.4886
" />
<path d="M35.8987 8.7024
L35.9592 8.7629
" />
<path d="M35.9592 8.7629
L35.8987 8.8234
" />
<path d="M35.8987 8.8234
L35.8383 8.7629
" />
<path d="M35.8383 8.7629
L35.8987 8.7024
" />
<path d="M35.8987 8.7024
L35.8987 8.8234
" />
<path d="M36.5035 9.4886
L36.5035 8.2186
" />
<path d="M36.5035 8.2186
L36.8059 8.2186
" />
<path d="M36.8059 8.2186
L36.9873 8.2791
" />
<path d="M36.9873 8.2791
L37.1083 8.4001
" />
<path d="M37.1083 8.4001
L37.1688 8.5210
" />
<path d="M37.1688 8.5210
L37.2292 8.7629
" />
<path d="M37.2292 8.7629
L37.2292 8.9443
" />
<path d="M37.2292 8.9443
L37.1688 9.1862
" />
<path d="M37.1688 9.1862
L37.1083 9.3072
" />
<path d="M37.1083 9.3072
L36.9873 9.4282
" />
<path d="M36.9873 9.4282
L36.8059 9.4886
" />
<path d="M36.8059 9.4886
L36.5035 9.4886
" />
<path d="M37.4712 9.6096
L38.4388 9.6096
" />
<path d="M38.7411 9.4886
L38.7411 8.2186
" />
<path d="M38.7411 8.2186
L39.1645 9.1258
" />
<path d="M39.1645 9.1258
L39.5878 8.2186
" />
<path d="M39.5878 8.2186
L39.5878 9.4886
" />
<path d="M40.1925 9.4886
L40.1925 8.6420
" />
<path d="M40.1925 8.2186
L40.1321 8.2791
" />
<path d="M40.1321 8.2791
L40.1925 8.3396
" />
<path d="M40.1925 8.3396
L40.2530 8.2791
" />
<path d="M40.2530 8.2791
L40.1925 8.2186
" />
<path d="M40.1925 8.2186
L40.1925 8.3396
" />
<path d="M40.7973 8.6420
L40.7973 9.4886
" />
<path d="M40.7973 8.7629
L40.8578 8.7024
" />
<path d="M40.8578 8.7024
L40.9788 8.6420
" />
<path d="M40.9788 8.6420
L41.1602 8.6420
" />
<path d="M41.1602 8.6420
L41.2811 8.7024
" />
<path d="M41.2811 8.7024
L41.3416 8.8234
" />
<path d="M41.3416 8.8234
L41.3416 9.4886
" />
<path d="M41.9463 9.4886
L41.9463 8.6420
" />
<path d="M41.9463 8.2186
L41.8859 8.2791
" />
<path d="M41.8859 8.2791
L41.9463 8.3396
" />
<path d="M41.9463 8.3396
L42.0068 8.2791
" />
<path d="M42.0068 8.2791
L41.9463 8.2186
" />
<path d="M41.9463 8.2186
L41.9463 8.3396
" />
<path d="M42.5511 9.4886
L42.5511 8.2186
" />
<path d="M42.5511 8.2186
L42.9745 9.1258
" />
<path d="M42.9745 9.1258
L43.3978 8.2186
" />
<path d="M43.3978 8.2186
L43.3978 9.4886
" />
<path d="M44.0025 8.8234
L44.4259 8.8234
" />
<path d="M44.6073 9.4886
L44.0025 9.4886
" />
<path d="M44.0025 9.4886
L44.0025 8.2186
" />
<path d="M44.0025 8.2186
L44.6073 8.2186
" />
<path d="M45.7563 9.4886
L45.1515 9.4886
" />
<path d="M45.1515 9.4886
L45.1515 8.2186
" />
<path d="M46.6030 8.8234
L46.1796 8.8234
" />
<path d="M46.1796 9.4886
L46.1796 8.2186
" />
<path d="M46.1796 8.2186
L46.7844 8.2186
" />
</g><text x="36.2012" y="5.0994"
textLength="60.3354" font-size="1.6933" lengthAdjust="spacingAndGlyphs"
text-anchor="middle" opacity="0">http://diotec.com/tl_files/diotec/files/pdf/datasheets/zmd1</text>
<g class="stroked-text"><desc>http://diotec.com/tl_files/diotec/files/pdf/datasheets/zmd1</desc>
<path d="M6.4470 5.0436
L6.4470 3.7736
" />
<path d="M6.9913 5.0436
L6.9913 4.3784
" />
<path d="M6.9913 4.3784
L6.9308 4.2574
" />
<path d="M6.9308 4.2574
L6.8099 4.1970
" />
<path d="M6.8099 4.1970
L6.6285 4.1970
" />
<path d="M6.6285 4.1970
L6.5075 4.2574
" />
<path d="M6.5075 4.2574
L6.4470 4.3179
" />
<path d="M7.4146 4.1970
L7.8984 4.1970
" />
<path d="M7.5960 3.7736
L7.5960 4.8622
" />
<path d="M7.5960 4.8622
L7.6565 4.9832
" />
<path d="M7.6565 4.9832
L7.7775 5.0436
" />
<path d="M7.7775 5.0436
L7.8984 5.0436
" />
<path d="M8.1403 4.1970
L8.6241 4.1970
" />
<path d="M8.3217 3.7736
L8.3217 4.8622
" />
<path d="M8.3217 4.8622
L8.3822 4.9832
" />
<path d="M8.3822 4.9832
L8.5032 5.0436
" />
<path d="M8.5032 5.0436
L8.6241 5.0436
" />
<path d="M9.0474 4.1970
L9.0474 5.4670
" />
<path d="M9.0474 4.2574
L9.1684 4.1970
" />
<path d="M9.1684 4.1970
L9.4103 4.1970
" />
<path d="M9.4103 4.1970
L9.5312 4.2574
" />
<path d="M9.5312 4.2574
L9.5917 4.3179
" />
<path d="M9.5917 4.3179
L9.6522 4.4389
" />
<path d="M9.6522 4.4389
L9.6522 4.8017
" />
<path d="M9.6522 4.8017
L9.5917 4.9227
" />
<path d="M9.5917 4.9227
L9.5312 4.9832
" />
<path d="M9.5312 4.9832
L9.4103 5.0436
" />
<path d="M9.4103 5.0436
L9.1684 5.0436
" />
<path d="M9.1684 5.0436
L9.0474 4.9832
" />
<path d="M10.1964 4.9227
L10.2569 4.9832
" />
<path d="M10.2569 4.9832
L10.1964 5.0436
" />
<path d="M10.1964 5.0436
L10.1360 4.9832
" />
<path d="M10.1360 4.9832
L10.1964 4.9227
" />
<path d="M10.1964 4.9227
L10.1964 5.0436
" />
<path d="M10.1964 4.2574
L10.2569 4.3179
" />
<path d="M10.2569 4.3179
L10.1964 4.3784
" />
<path d="M10.1964 4.3784
L10.1360 4.3179
" />
<path d="M10.1360 4.3179
L10.1964 4.2574
" />
<path d="M10.1964 4.2574
L10.1964 4.3784
" />
<path d="M11.7084 3.7132
L10.6198 5.3460
" />
<path d="M13.0389 3.7132
L11.9503 5.3460
" />
<path d="M14.0065 5.0436
L14.0065 3.7736
" />
<path d="M14.0065 4.9832
L13.8856 5.0436
" />
<path d="M13.8856 5.0436
L13.6437 5.0436
" />
<path d="M13.6437 5.0436
L13.5227 4.9832
" />
<path d="M13.5227 4.9832
L13.4622 4.9227
" />
<path d="M13.4622 4.9227
L13.4018 4.8017
" />
<path d="M13.4018 4.8017
L13.4018 4.4389
" />
<path d="M13.4018 4.4389
L13.4622 4.3179
" />
<path d="M13.4622 4.3179
L13.5227 4.2574
" />
<path d="M13.5227 4.2574
L13.6437 4.1970
" />
<path d="M13.6437 4.1970
L13.8856 4.1970
" />
<path d="M13.8856 4.1970
L14.0065 4.2574
" />
<path d="M14.6112 5.0436
L14.6112 4.1970
" />
<path d="M14.6112 3.7736
L14.5508 3.8341
" />
<path d="M14.5508 3.8341
L14.6112 3.8946
" />
<path d="M14.6112 3.8946
L14.6717 3.8341
" />
<path d="M14.6717 3.8341
L14.6112 3.7736
" />
<path d="M14.6112 3.7736
L14.6112 3.8946
" />
<path d="M15.3975 5.0436
L15.2765 4.9832
" />
<path d="M15.2765 4.9832
L15.2160 4.9227
" />
<path d="M15.2160 4.9227
L15.1556 4.8017
" />
<path d="M15.1556 4.8017
L15.1556 4.4389
" />
<path d="M15.1556 4.4389
L15.2160 4.3179
" />
<path d="M15.2160 4.3179
L15.2765 4.2574
" />
<path d="M15.2765 4.2574
L15.3975 4.1970
" />
<path d="M15.3975 4.1970
L15.5789 4.1970
" />
<path d="M15.5789 4.1970
L15.6998 4.2574
" />
<path d="M15.6998 4.2574
L15.7603 4.3179
" />
<path d="M15.7603 4.3179
L15.8208 4.4389
" />
<path d="M15.8208 4.4389
L15.8208 4.8017
" />
<path d="M15.8208 4.8017
L15.7603 4.9227
" />
<path d="M15.7603 4.9227
L15.6998 4.9832
" />
<path d="M15.6998 4.9832
L15.5789 5.0436
" />
<path d="M15.5789 5.0436
L15.3975 5.0436
" />
<path d="M16.1836 4.1970
L16.6674 4.1970
" />
<path d="M16.3650 3.7736
L16.3650 4.8622
" />
<path d="M16.3650 4.8622
L16.4255 4.9832
" />
<path d="M16.4255 4.9832
L16.5465 5.0436
" />
<path d="M16.5465 5.0436
L16.6674 5.0436
" />
<path d="M17.5745 4.9832
L17.4536 5.0436
" />
<path d="M17.4536 5.0436
L17.2117 5.0436
" />
<path d="M17.2117 5.0436
L17.0907 4.9832
" />
<path d="M17.0907 4.9832
L17.0303 4.8622
" />
<path d="M17.0303 4.8622
L17.0303 4.3784
" />
<path d="M17.0303 4.3784
L17.0907 4.2574
" />
<path d="M17.0907 4.2574
L17.2117 4.1970
" />
<path d="M17.2117 4.1970
L17.4536 4.1970
" />
<path d="M17.4536 4.1970
L17.5745 4.2574
" />
<path d="M17.5745 4.2574
L17.6350 4.3784
" />
<path d="M17.6350 4.3784
L17.6350 4.4993
" />
<path d="M17.6350 4.4993
L17.0303 4.6203
" />
<path d="M18.7236 4.9832
L18.6027 5.0436
" />
<path d="M18.6027 5.0436
L18.3608 5.0436
" />
<path d="M18.3608 5.0436
L18.2398 4.9832
" />
<path d="M18.2398 4.9832
L18.1793 4.9227
" />
<path d="M18.1793 4.9227
L18.1189 4.8017
" />
<path d="M18.1189 4.8017
L18.1189 4.4389
" />
<path d="M18.1189 4.4389
L18.1793 4.3179
" />
<path d="M18.1793 4.3179
L18.2398 4.2574
" />
<path d="M18.2398 4.2574
L18.3608 4.1970
" />
<path d="M18.3608 4.1970
L18.6027 4.1970
" />
<path d="M18.6027 4.1970
L18.7236 4.2574
" />
<path d="M19.2679 4.9227
L19.3284 4.9832
" />
<path d="M19.3284 4.9832
L19.2679 5.0436
" />
<path d="M19.2679 5.0436
L19.2075 4.9832
" />
<path d="M19.2075 4.9832
L19.2679 4.9227
" />
<path d="M19.2679 4.9227
L19.2679 5.0436
" />
<path d="M20.4170 4.9832
L20.2961 5.0436
" />
<path d="M20.2961 5.0436
L20.0542 5.0436
" />
<path d="M20.0542 5.0436
L19.9332 4.9832
" />
<path d="M19.9332 4.9832
L19.8727 4.9227
" />
<path d="M19.8727 4.9227
L19.8123 4.8017
" />
<path d="M19.8123 4.8017
L19.8123 4.4389
" />
<path d="M19.8123 4.4389
L19.8727 4.3179
" />
<path d="M19.8727 4.3179
L19.9332 4.2574
" />
<path d="M19.9332 4.2574
L20.0542 4.1970
" />
<path d="M20.0542 4.1970
L20.2961 4.1970
" />
<path d="M20.2961 4.1970
L20.4170 4.2574
" />
<path d="M21.1428 5.0436
L21.0218 4.9832
" />
<path d="M21.0218 4.9832
L20.9613 4.9227
" />
<path d="M20.9613 4.9227
L20.9009 4.8017
" />
<path d="M20.9009 4.8017
L20.9009 4.4389
" />
<path d="M20.9009 4.4389
L20.9613 4.3179
" />
<path d="M20.9613 4.3179
L21.0218 4.2574
" />
<path d="M21.0218 4.2574
L21.1428 4.1970
" />
<path d="M21.1428 4.1970
L21.3242 4.1970
" />
<path d="M21.3242 4.1970
L21.4451 4.2574
" />
<path d="M21.4451 4.2574
L21.5056 4.3179
" />
<path d="M21.5056 4.3179
L21.5661 4.4389
" />
<path d="M21.5661 4.4389
L21.5661 4.8017
" />
<path d="M21.5661 4.8017
L21.5056 4.9227
" />
<path d="M21.5056 4.9227
L21.4451 4.9832
" />
<path d="M21.4451 4.9832
L21.3242 5.0436
" />
<path d="M21.3242 5.0436
L21.1428 5.0436
" />
<path d="M22.1103 5.0436
L22.1103 4.1970
" />
<path d="M22.1103 4.3179
L22.1708 4.2574
" />
<path d="M22.1708 4.2574
L22.2918 4.1970
" />
<path d="M22.2918 4.1970
L22.4732 4.1970
" />
<path d="M22.4732 4.1970
L22.5941 4.2574
" />
<path d="M22.5941 4.2574
L22.6546 4.3784
" />
<path d="M22.6546 4.3784
L22.6546 5.0436
" />
<path d="M22.6546 4.3784
L22.7151 4.2574
" />
<path d="M22.7151 4.2574
L22.8360 4.1970
" />
<path d="M22.8360 4.1970
L23.0175 4.1970
" />
<path d="M23.0175 4.1970
L23.1384 4.2574
" />
<path d="M23.1384 4.2574
L23.1989 4.3784
" />
<path d="M23.1989 4.3784
L23.1989 5.0436
" />
<path d="M24.7108 3.7132
L23.6222 5.3460
" />
<path d="M24.9527 4.1970
L25.4365 4.1970
" />
<path d="M25.1341 3.7736
L25.1341 4.8622
" />
<path d="M25.1341 4.8622
L25.1946 4.9832
" />
<path d="M25.1946 4.9832
L25.3156 5.0436
" />
<path d="M25.3156 5.0436
L25.4365 5.0436
" />
<path d="M26.0413 5.0436
L25.9203 4.9832
" />
<path d="M25.9203 4.9832
L25.8598 4.8622
" />
<path d="M25.8598 4.8622
L25.8598 3.7736
" />
<path d="M26.2227 5.1646
L27.1903 5.1646
" />
<path d="M27.3112 4.1970
L27.7950 4.1970
" />
<path d="M27.4926 5.0436
L27.4926 3.9551
" />
<path d="M27.4926 3.9551
L27.5531 3.8341
" />
<path d="M27.5531 3.8341
L27.6741 3.7736
" />
<path d="M27.6741 3.7736
L27.7950 3.7736
" />
<path d="M28.2183 5.0436
L28.2183 4.1970
" />
<path d="M28.2183 3.7736
L28.1579 3.8341
" />
<path d="M28.1579 3.8341
L28.2183 3.8946
" />
<path d="M28.2183 3.8946
L28.2788 3.8341
" />
<path d="M28.2788 3.8341
L28.2183 3.7736
" />
<path d="M28.2183 3.7736
L28.2183 3.8946
" />
<path d="M29.0046 5.0436
L28.8836 4.9832
" />
<path d="M28.8836 4.9832
L28.8231 4.8622
" />
<path d="M28.8231 4.8622
L28.8231 3.7736
" />
<path d="M29.9721 4.9832
L29.8512 5.0436
" />
<path d="M29.8512 5.0436
L29.6093 5.0436
" />
<path d="M29.6093 5.0436
L29.4883 4.9832
" />
<path d="M29.4883 4.9832
L29.4279 4.8622
" />
<path d="M29.4279 4.8622
L29.4279 4.3784
" />
<path d="M29.4279 4.3784
L29.4883 4.2574
" />
<path d="M29.4883 4.2574
L29.6093 4.1970
" />
<path d="M29.6093 4.1970
L29.8512 4.1970
" />
<path d="M29.8512 4.1970
L29.9721 4.2574
" />
<path d="M29.9721 4.2574
L30.0326 4.3784
" />
<path d="M30.0326 4.3784
L30.0326 4.4993
" />
<path d="M30.0326 4.4993
L29.4279 4.6203
" />
<path d="M30.5165 4.9832
L30.6374 5.0436
" />
<path d="M30.6374 5.0436
L30.8793 5.0436
" />
<path d="M30.8793 5.0436
L31.0003 4.9832
" />
<path d="M31.0003 4.9832
L31.0607 4.8622
" />
<path d="M31.0607 4.8622
L31.0607 4.8017
" />
<path d="M31.0607 4.8017
L31.0003 4.6808
" />
<path d="M31.0003 4.6808
L30.8793 4.6203
" />
<path d="M30.8793 4.6203
L30.6979 4.6203
" />
<path d="M30.6979 4.6203
L30.5769 4.5598
" />
<path d="M30.5769 4.5598
L30.5165 4.4389
" />
<path d="M30.5165 4.4389
L30.5165 4.3784
" />
<path d="M30.5165 4.3784
L30.5769 4.2574
" />
<path d="M30.5769 4.2574
L30.6979 4.1970
" />
<path d="M30.6979 4.1970
L30.8793 4.1970
" />
<path d="M30.8793 4.1970
L31.0003 4.2574
" />
<path d="M32.5122 3.7132
L31.4236 5.3460
" />
<path d="M33.4798 5.0436
L33.4798 3.7736
" />
<path d="M33.4798 4.9832
L33.3589 5.0436
" />
<path d="M33.3589 5.0436
L33.1170 5.0436
" />
<path d="M33.1170 5.0436
L32.9960 4.9832
" />
<path d="M32.9960 4.9832
L32.9355 4.9227
" />
<path d="M32.9355 4.9227
L32.8751 4.8017
" />
<path d="M32.8751 4.8017
L32.8751 4.4389
" />
<path d="M32.8751 4.4389
L32.9355 4.3179
" />
<path d="M32.9355 4.3179
L32.9960 4.2574
" />
<path d="M32.9960 4.2574
L33.1170 4.1970
" />
<path d="M33.1170 4.1970
L33.3589 4.1970
" />
<path d="M33.3589 4.1970
L33.4798 4.2574
" />
<path d="M34.0845 5.0436
L34.0845 4.1970
" />
<path d="M34.0845 3.7736
L34.0241 3.8341
" />
<path d="M34.0241 3.8341
L34.0845 3.8946
" />
<path d="M34.0845 3.8946
L34.1450 3.8341
" />
<path d="M34.1450 3.8341
L34.0845 3.7736
" />
<path d="M34.0845 3.7736
L34.0845 3.8946
" />
<path d="M34.8708 5.0436
L34.7498 4.9832
" />
<path d="M34.7498 4.9832
L34.6893 4.9227
" />
<path d="M34.6893 4.9227
L34.6289 4.8017
" />
<path d="M34.6289 4.8017
L34.6289 4.4389
" />
<path d="M34.6289 4.4389
L34.6893 4.3179
" />
<path d="M34.6893 4.3179
L34.7498 4.2574
" />
<path d="M34.7498 4.2574
L34.8708 4.1970
" />
<path d="M34.8708 4.1970
L35.0522 4.1970
" />
<path d="M35.0522 4.1970
L35.1731 4.2574
" />
<path d="M35.1731 4.2574
L35.2336 4.3179
" />
<path d="M35.2336 4.3179
L35.2941 4.4389
" />
<path d="M35.2941 4.4389
L35.2941 4.8017
" />
<path d="M35.2941 4.8017
L35.2336 4.9227
" />
<path d="M35.2336 4.9227
L35.1731 4.9832
" />
<path d="M35.1731 4.9832
L35.0522 5.0436
" />
<path d="M35.0522 5.0436
L34.8708 5.0436
" />
<path d="M35.6569 4.1970
L36.1407 4.1970
" />
<path d="M35.8383 3.7736
L35.8383 4.8622
" />
<path d="M35.8383 4.8622
L35.8988 4.9832
" />
<path d="M35.8988 4.9832
L36.0198 5.0436
" />
<path d="M36.0198 5.0436
L36.1407 5.0436
" />
<path d="M37.0478 4.9832
L36.9269 5.0436
" />
<path d="M36.9269 5.0436
L36.6850 5.0436
" />
<path d="M36.6850 5.0436
L36.5640 4.9832
" />
<path d="M36.5640 4.9832
L36.5036 4.8622
" />
<path d="M36.5036 4.8622
L36.5036 4.3784
" />
<path d="M36.5036 4.3784
L36.5640 4.2574
" />
<path d="M36.5640 4.2574
L36.6850 4.1970
" />
<path d="M36.6850 4.1970
L36.9269 4.1970
" />
<path d="M36.9269 4.1970
L37.0478 4.2574
" />
<path d="M37.0478 4.2574
L37.1083 4.3784
" />
<path d="M37.1083 4.3784
L37.1083 4.4993
" />
<path d="M37.1083 4.4993
L36.5036 4.6203
" />
<path d="M38.1969 4.9832
L38.0760 5.0436
" />
<path d="M38.0760 5.0436
L37.8341 5.0436
" />
<path d="M37.8341 5.0436
L37.7131 4.9832
" />
<path d="M37.7131 4.9832
L37.6526 4.9227
" />
<path d="M37.6526 4.9227
L37.5922 4.8017
" />
<path d="M37.5922 4.8017
L37.5922 4.4389
" />
<path d="M37.5922 4.4389
L37.6526 4.3179
" />
<path d="M37.6526 4.3179
L37.7131 4.2574
" />
<path d="M37.7131 4.2574
L37.8341 4.1970
" />
<path d="M37.8341 4.1970
L38.0760 4.1970
" />
<path d="M38.0760 4.1970
L38.1969 4.2574
" />
<path d="M39.6484 3.7132
L38.5598 5.3460
" />
<path d="M39.8903 4.1970
L40.3741 4.1970
" />
<path d="M40.0717 5.0436
L40.0717 3.9551
" />
<path d="M40.0717 3.9551
L40.1322 3.8341
" />
<path d="M40.1322 3.8341
L40.2532 3.7736
" />
<path d="M40.2532 3.7736
L40.3741 3.7736
" />
<path d="M40.7974 5.0436
L40.7974 4.1970
" />
<path d="M40.7974 3.7736
L40.7370 3.8341
" />
<path d="M40.7370 3.8341
L40.7974 3.8946
" />
<path d="M40.7974 3.8946
L40.8579 3.8341
" />
<path d="M40.8579 3.8341
L40.7974 3.7736
" />
<path d="M40.7974 3.7736
L40.7974 3.8946
" />
<path d="M41.5837 5.0436
L41.4627 4.9832
" />
<path d="M41.4627 4.9832
L41.4022 4.8622
" />
<path d="M41.4022 4.8622
L41.4022 3.7736
" />
<path d="M42.5512 4.9832
L42.4303 5.0436
" />
<path d="M42.4303 5.0436
L42.1884 5.0436
" />
<path d="M42.1884 5.0436
L42.0674 4.9832
" />
<path d="M42.0674 4.9832
L42.0070 4.8622
" />
<path d="M42.0070 4.8622
L42.0070 4.3784
" />
<path d="M42.0070 4.3784
L42.0674 4.2574
" />
<path d="M42.0674 4.2574
L42.1884 4.1970
" />
<path d="M42.1884 4.1970
L42.4303 4.1970
" />
<path d="M42.4303 4.1970
L42.5512 4.2574
" />
<path d="M42.5512 4.2574
L42.6117 4.3784
" />
<path d="M42.6117 4.3784
L42.6117 4.4993
" />
<path d="M42.6117 4.4993
L42.0070 4.6203
" />
<path d="M43.0956 4.9832
L43.2165 5.0436
" />
<path d="M43.2165 5.0436
L43.4584 5.0436
" />
<path d="M43.4584 5.0436
L43.5794 4.9832
" />
<path d="M43.5794 4.9832
L43.6398 4.8622
" />
<path d="M43.6398 4.8622
L43.6398 4.8017
" />
<path d="M43.6398 4.8017
L43.5794 4.6808
" />
<path d="M43.5794 4.6808
L43.4584 4.6203
" />
<path d="M43.4584 4.6203
L43.2770 4.6203
" />
<path d="M43.2770 4.6203
L43.1560 4.5598
" />
<path d="M43.1560 4.5598
L43.0956 4.4389
" />
<path d="M43.0956 4.4389
L43.0956 4.3784
" />
<path d="M43.0956 4.3784
L43.1560 4.2574
" />
<path d="M43.1560 4.2574
L43.2770 4.1970
" />
<path d="M43.2770 4.1970
L43.4584 4.1970
" />
<path d="M43.4584 4.1970
L43.5794 4.2574
" />
<path d="M45.0913 3.7132
L44.0027 5.3460
" />
<path d="M45.5146 4.1970
L45.5146 5.4670
" />
<path d="M45.5146 4.2574
L45.6356 4.1970
" />
<path d="M45.6356 4.1970
L45.8775 4.1970
" />
<path d="M45.8775 4.1970
L45.9984 4.2574
" />
<path d="M45.9984 4.2574
L46.0589 4.3179
" />
<path d="M46.0589 4.3179
L46.1194 4.4389
" />
<path d="M46.1194 4.4389
L46.1194 4.8017
" />
<path d="M46.1194 4.8017
L46.0589 4.9227
" />
<path d="M46.0589 4.9227
L45.9984 4.9832
" />
<path d="M45.9984 4.9832
L45.8775 5.0436
" />
<path d="M45.8775 5.0436
L45.6356 5.0436
" />
<path d="M45.6356 5.0436
L45.5146 4.9832
" />
<path d="M47.2079 5.0436
L47.2079 3.7736
" />
<path d="M47.2079 4.9832
L47.0870 5.0436
" />
<path d="M47.0870 5.0436
L46.8451 5.0436
" />
<path d="M46.8451 5.0436
L46.7241 4.9832
" />
<path d="M46.7241 4.9832
L46.6636 4.9227
" />
<path d="M46.6636 4.9227
L46.6032 4.8017
" />
<path d="M46.6032 4.8017
L46.6032 4.4389
" />
<path d="M46.6032 4.4389
L46.6636 4.3179
" />
<path d="M46.6636 4.3179
L46.7241 4.2574
" />
<path d="M46.7241 4.2574
L46.8451 4.1970
" />
<path d="M46.8451 4.1970
L47.0870 4.1970
" />
<path d="M47.0870 4.1970
L47.2079 4.2574
" />
<path d="M47.6312 4.1970
L48.1150 4.1970
" />
<path d="M47.8126 5.0436
L47.8126 3.9551
" />
<path d="M47.8126 3.9551
L47.8731 3.8341
" />
<path d="M47.8731 3.8341
L47.9941 3.7736
" />
<path d="M47.9941 3.7736
L48.1150 3.7736
" />
<path d="M49.4455 3.7132
L48.3569 5.3460
" />
<path d="M50.4131 5.0436
L50.4131 3.7736
" />
<path d="M50.4131 4.9832
L50.2922 5.0436
" />
<path d="M50.2922 5.0436
L50.0503 5.0436
" />
<path d="M50.0503 5.0436
L49.9293 4.9832
" />
<path d="M49.9293 4.9832
L49.8688 4.9227
" />
<path d="M49.8688 4.9227
L49.8084 4.8017
" />
<path d="M49.8084 4.8017
L49.8084 4.4389
" />
<path d="M49.8084 4.4389
L49.8688 4.3179
" />
<path d="M49.8688 4.3179
L49.9293 4.2574
" />
<path d="M49.9293 4.2574
L50.0503 4.1970
" />
<path d="M50.0503 4.1970
L50.2922 4.1970
" />
<path d="M50.2922 4.1970
L50.4131 4.2574
" />
<path d="M51.5621 5.0436
L51.5621 4.3784
" />
<path d="M51.5621 4.3784
L51.5016 4.2574
" />
<path d="M51.5016 4.2574
L51.3807 4.1970
" />
<path d="M51.3807 4.1970
L51.1388 4.1970
" />
<path d="M51.1388 4.1970
L51.0178 4.2574
" />
<path d="M51.5621 4.9832
L51.4412 5.0436
" />
<path d="M51.4412 5.0436
L51.1388 5.0436
" />
<path d="M51.1388 5.0436
L51.0178 4.9832
" />
<path d="M51.0178 4.9832
L50.9574 4.8622
" />
<path d="M50.9574 4.8622
L50.9574 4.7412
" />
<path d="M50.9574 4.7412
L51.0178 4.6203
" />
<path d="M51.0178 4.6203
L51.1388 4.5598
" />
<path d="M51.1388 4.5598
L51.4412 4.5598
" />
<path d="M51.4412 4.5598
L51.5621 4.4993
" />
<path d="M51.9854 4.1970
L52.4692 4.1970
" />
<path d="M52.1668 3.7736
L52.1668 4.8622
" />
<path d="M52.1668 4.8622
L52.2273 4.9832
" />
<path d="M52.2273 4.9832
L52.3483 5.0436
" />
<path d="M52.3483 5.0436
L52.4692 5.0436
" />
<path d="M53.4368 5.0436
L53.4368 4.3784
" />
<path d="M53.4368 4.3784
L53.3763 4.2574
" />
<path d="M53.3763 4.2574
L53.2554 4.1970
" />
<path d="M53.2554 4.1970
L53.0135 4.1970
" />
<path d="M53.0135 4.1970
L52.8925 4.2574
" />
<path d="M53.4368 4.9832
L53.3159 5.0436
" />
<path d="M53.3159 5.0436
L53.0135 5.0436
" />
<path d="M53.0135 5.0436
L52.8925 4.9832
" />
<path d="M52.8925 4.9832
L52.8321 4.8622
" />
<path d="M52.8321 4.8622
L52.8321 4.7412
" />
<path d="M52.8321 4.7412
L52.8925 4.6203
" />
<path d="M52.8925 4.6203
L53.0135 4.5598
" />
<path d="M53.0135 4.5598
L53.3159 4.5598
" />
<path d="M53.3159 4.5598
L53.4368 4.4993
" />
<path d="M53.9811 4.9832
L54.1020 5.0436
" />
<path d="M54.1020 5.0436
L54.3439 5.0436
" />
<path d="M54.3439 5.0436
L54.4649 4.9832
" />
<path d="M54.4649 4.9832
L54.5253 4.8622
" />
<path d="M54.5253 4.8622
L54.5253 4.8017
" />
<path d="M54.5253 4.8017
L54.4649 4.6808
" />
<path d="M54.4649 4.6808
L54.3439 4.6203
" />
<path d="M54.3439 4.6203
L54.1625 4.6203
" />
<path d="M54.1625 4.6203
L54.0415 4.5598
" />
<path d="M54.0415 4.5598
L53.9811 4.4389
" />
<path d="M53.9811 4.4389
L53.9811 4.3784
" />
<path d="M53.9811 4.3784
L54.0415 4.2574
" />
<path d="M54.0415 4.2574
L54.1625 4.1970
" />
<path d="M54.1625 4.1970
L54.3439 4.1970
" />
<path d="M54.3439 4.1970
L54.4649 4.2574
" />
<path d="M55.0696 5.0436
L55.0696 3.7736
" />
<path d="M55.6139 5.0436
L55.6139 4.3784
" />
<path d="M55.6139 4.3784
L55.5534 4.2574
" />
<path d="M55.5534 4.2574
L55.4325 4.1970
" />
<path d="M55.4325 4.1970
L55.2511 4.1970
" />
<path d="M55.2511 4.1970
L55.1301 4.2574
" />
<path d="M55.1301 4.2574
L55.0696 4.3179
" />
<path d="M56.7024 4.9832
L56.5815 5.0436
" />
<path d="M56.5815 5.0436
L56.3396 5.0436
" />
<path d="M56.3396 5.0436
L56.2186 4.9832
" />
<path d="M56.2186 4.9832
L56.1582 4.8622
" />
<path d="M56.1582 4.8622
L56.1582 4.3784
" />
<path d="M56.1582 4.3784
L56.2186 4.2574
" />
<path d="M56.2186 4.2574
L56.3396 4.1970
" />
<path d="M56.3396 4.1970
L56.5815 4.1970
" />
<path d="M56.5815 4.1970
L56.7024 4.2574
" />
<path d="M56.7024 4.2574
L56.7629 4.3784
" />
<path d="M56.7629 4.3784
L56.7629 4.4993
" />
<path d="M56.7629 4.4993
L56.1582 4.6203
" />
<path d="M57.7910 4.9832
L57.6701 5.0436
" />
<path d="M57.6701 5.0436
L57.4282 5.0436
" />
<path d="M57.4282 5.0436
L57.3072 4.9832
" />
<path d="M57.3072 4.9832
L57.2468 4.8622
" />
<path d="M57.2468 4.8622
L57.2468 4.3784
" />
<path d="M57.2468 4.3784
L57.3072 4.2574
" />
<path d="M57.3072 4.2574
L57.4282 4.1970
" />
<path d="M57.4282 4.1970
L57.6701 4.1970
" />
<path d="M57.6701 4.1970
L57.7910 4.2574
" />
<path d="M57.7910 4.2574
L57.8515 4.3784
" />
<path d="M57.8515 4.3784
L57.8515 4.4993
" />
<path d="M57.8515 4.4993
L57.2468 4.6203
" />
<path d="M58.2144 4.1970
L58.6982 4.1970
" />
<path d="M58.3958 3.7736
L58.3958 4.8622
" />
<path d="M58.3958 4.8622
L58.4563 4.9832
" />
<path d="M58.4563 4.9832
L58.5773 5.0436
" />
<path d="M58.5773 5.0436
L58.6982 5.0436
" />
<path d="M59.0611 4.9832
L59.1820 5.0436
" />
<path d="M59.1820 5.0436
L59.4239 5.0436
" />
<path d="M59.4239 5.0436
L59.5449 4.9832
" />
<path d="M59.5449 4.9832
L59.6053 4.8622
" />
<path d="M59.6053 4.8622
L59.6053 4.8017
" />
<path d="M59.6053 4.8017
L59.5449 4.6808
" />
<path d="M59.5449 4.6808
L59.4239 4.6203
" />
<path d="M59.4239 4.6203
L59.2425 4.6203
" />
<path d="M59.2425 4.6203
L59.1215 4.5598
" />
<path d="M59.1215 4.5598
L59.0611 4.4389
" />
<path d="M59.0611 4.4389
L59.0611 4.3784
" />
<path d="M59.0611 4.3784
L59.1215 4.2574
" />
<path d="M59.1215 4.2574
L59.2425 4.1970
" />
<path d="M59.2425 4.1970
L59.4239 4.1970
" />
<path d="M59.4239 4.1970
L59.5449 4.2574
" />
<path d="M61.0568 3.7132
L59.9682 5.3460
" />
<path d="M61.3592 4.1970
L62.0244 4.1970
" />
<path d="M62.0244 4.1970
L61.3592 5.0436
" />
<path d="M61.3592 5.0436
L62.0244 5.0436
" />
<path d="M62.5082 5.0436
L62.5082 4.1970
" />
<path d="M62.5082 4.3179
L62.5687 4.2574
" />
<path d="M62.5687 4.2574
L62.6897 4.1970
" />
<path d="M62.6897 4.1970
L62.8711 4.1970
" />
<path d="M62.8711 4.1970
L62.9920 4.2574
" />
<path d="M62.9920 4.2574
L63.0525 4.3784
" />
<path d="M63.0525 4.3784
L63.0525 5.0436
" />
<path d="M63.0525 4.3784
L63.1130 4.2574
" />
<path d="M63.1130 4.2574
L63.2339 4.1970
" />
<path d="M63.2339 4.1970
L63.4154 4.1970
" />
<path d="M63.4154 4.1970
L63.5363 4.2574
" />
<path d="M63.5363 4.2574
L63.5968 4.3784
" />
<path d="M63.5968 4.3784
L63.5968 5.0436
" />
<path d="M64.7458 5.0436
L64.7458 3.7736
" />
<path d="M64.7458 4.9832
L64.6249 5.0436
" />
<path d="M64.6249 5.0436
L64.3830 5.0436
" />
<path d="M64.3830 5.0436
L64.2620 4.9832
" />
<path d="M64.2620 4.9832
L64.2015 4.9227
" />
<path d="M64.2015 4.9227
L64.1411 4.8017
" />
<path d="M64.1411 4.8017
L64.1411 4.4389
" />
<path d="M64.1411 4.4389
L64.2015 4.3179
" />
<path d="M64.2015 4.3179
L64.2620 4.2574
" />
<path d="M64.2620 4.2574
L64.3830 4.1970
" />
<path d="M64.3830 4.1970
L64.6249 4.1970
" />
<path d="M64.6249 4.1970
L64.7458 4.2574
" />
<path d="M66.0158 5.0436
L65.2901 5.0436
" />
<path d="M65.6529 5.0436
L65.6529 3.7736
" />
<path d="M65.6529 3.7736
L65.5320 3.9551
" />
<path d="M65.5320 3.9551
L65.4110 4.0760
" />
<path d="M65.4110 4.0760
L65.2901 4.1365
" />
</g></g> 
</svg>
