<?xml version="1.0" standalone="no"?>
 <!DOCTYPE svg PUBLIC "-//W3C//DTD SVG 1.1//EN" 
 "http://www.w3.org/Graphics/SVG/1.1/DTD/svg11.dtd"> 
<svg
  xmlns:svg="http://www.w3.org/2000/svg"
  xmlns="http://www.w3.org/2000/svg"
  xmlns:xlink="http://www.w3.org/1999/xlink"
  version="1.1"
  width="127.6350mm" height="4.7498mm" viewBox="0.0000 0.0000 127.6350 4.7498">
<title>SVG Image created as working.svg date 2023/08/31 10:50:08 </title>
  <desc>Image generated by Eeschema-SVG </desc>
<g style="fill:#000000; fill-opacity:1.0000;stroke:#000000; stroke-opacity:1.0000;
stroke-linecap:round; stroke-linejoin:round;"
 transform="translate(0 0) scale(1 1)">
</g>
<g style="fill:#840000; fill-opacity:0.0; 
stroke:#840000; stroke-width:0.0000; stroke-opacity:1; 
stroke-linecap:round; stroke-linejoin:round;">
</g>
<g style="fill:#840084; fill-opacity:0.0; 
stroke:#840084; stroke-width:0.0000; stroke-opacity:1; 
stroke-linecap:round; stroke-linejoin:round;">
</g>
<g style="fill:#840000; fill-opacity:0.0; 
stroke:#840000; stroke-width:0.0000; stroke-opacity:1; 
stroke-linecap:round; stroke-linejoin:round;">
</g>
<g style="fill:#840084; fill-opacity:0.0; 
stroke:#840084; stroke-width:0.0000; stroke-opacity:1; 
stroke-linecap:round; stroke-linejoin:round;">
</g>
<g style="fill:#006464; fill-opacity:0.0; 
stroke:#006464; stroke-width:0.0000; stroke-opacity:1; 
stroke-linecap:round; stroke-linejoin:round;">
</g>
<g style="fill:#006464; fill-opacity:0.0; 
stroke:#006464; stroke-width:0.1588; stroke-opacity:1; 
stroke-linecap:round; stroke-linejoin:round;">
<text x="32.3990" y="2.0514"
textLength="2.6415" font-size="1.6933" lengthAdjust="spacingAndGlyphs"
text-anchor="middle" opacity="0">Q?</text>
<g class="stroked-text"><desc>Q?</desc>
<path d="M32.3385 2.1166
L32.2175 2.0561
" />
<path d="M32.2175 2.0561
L32.0966 1.9352
" />
<path d="M32.0966 1.9352
L31.9152 1.7537
" />
<path d="M31.9152 1.7537
L31.7942 1.6932
" />
<path d="M31.7942 1.6932
L31.6733 1.6932
" />
<path d="M31.7337 1.9956
L31.6128 1.9352
" />
<path d="M31.6128 1.9352
L31.4918 1.8142
" />
<path d="M31.4918 1.8142
L31.4314 1.5723
" />
<path d="M31.4314 1.5723
L31.4314 1.1490
" />
<path d="M31.4314 1.1490
L31.4918 0.9071
" />
<path d="M31.4918 0.9071
L31.6128 0.7861
" />
<path d="M31.6128 0.7861
L31.7337 0.7256
" />
<path d="M31.7337 0.7256
L31.9756 0.7256
" />
<path d="M31.9756 0.7256
L32.0966 0.7861
" />
<path d="M32.0966 0.7861
L32.2175 0.9071
" />
<path d="M32.2175 0.9071
L32.2780 1.1490
" />
<path d="M32.2780 1.1490
L32.2780 1.5723
" />
<path d="M32.2780 1.5723
L32.2175 1.8142
" />
<path d="M32.2175 1.8142
L32.0966 1.9352
" />
<path d="M32.0966 1.9352
L31.9756 1.9956
" />
<path d="M31.9756 1.9956
L31.7337 1.9956
" />
<path d="M33.0038 1.8747
L33.0642 1.9352
" />
<path d="M33.0642 1.9352
L33.0038 1.9956
" />
<path d="M33.0038 1.9956
L32.9433 1.9352
" />
<path d="M32.9433 1.9352
L33.0038 1.8747
" />
<path d="M33.0038 1.8747
L33.0038 1.9956
" />
<path d="M32.7619 0.7861
L32.8828 0.7256
" />
<path d="M32.8828 0.7256
L33.1852 0.7256
" />
<path d="M33.1852 0.7256
L33.3061 0.7861
" />
<path d="M33.3061 0.7861
L33.3666 0.9071
" />
<path d="M33.3666 0.9071
L33.3666 1.0280
" />
<path d="M33.3666 1.0280
L33.3061 1.1490
" />
<path d="M33.3061 1.1490
L33.2457 1.2094
" />
<path d="M33.2457 1.2094
L33.1247 1.2699
" />
<path d="M33.1247 1.2699
L33.0642 1.3304
" />
<path d="M33.0642 1.3304
L33.0038 1.4513
" />
<path d="M33.0038 1.4513
L33.0038 1.5118
" />
</g><text x="35.0902" y="3.9564"
textLength="8.0238" font-size="1.6933" lengthAdjust="spacingAndGlyphs"
text-anchor="middle" opacity="0">IRF6635</text>
<g class="stroked-text"><desc>IRF6635</desc>
<path d="M31.4918 3.9006
L31.4918 2.6306
" />
<path d="M32.8223 3.9006
L32.3990 3.2959
" />
<path d="M32.0966 3.9006
L32.0966 2.6306
" />
<path d="M32.0966 2.6306
L32.5804 2.6306
" />
<path d="M32.5804 2.6306
L32.7014 2.6911
" />
<path d="M32.7014 2.6911
L32.7619 2.7516
" />
<path d="M32.7619 2.7516
L32.8223 2.8725
" />
<path d="M32.8223 2.8725
L32.8223 3.0540
" />
<path d="M32.8223 3.0540
L32.7619 3.1749
" />
<path d="M32.7619 3.1749
L32.7014 3.2354
" />
<path d="M32.7014 3.2354
L32.5804 3.2959
" />
<path d="M32.5804 3.2959
L32.0966 3.2959
" />
<path d="M33.7900 3.2354
L33.3666 3.2354
" />
<path d="M33.3666 3.9006
L33.3666 2.6306
" />
<path d="M33.3666 2.6306
L33.9714 2.6306
" />
<path d="M34.9995 2.6306
L34.7576 2.6306
" />
<path d="M34.7576 2.6306
L34.6367 2.6911
" />
<path d="M34.6367 2.6911
L34.5762 2.7516
" />
<path d="M34.5762 2.7516
L34.4552 2.9330
" />
<path d="M34.4552 2.9330
L34.3948 3.1749
" />
<path d="M34.3948 3.1749
L34.3948 3.6587
" />
<path d="M34.3948 3.6587
L34.4552 3.7797
" />
<path d="M34.4552 3.7797
L34.5157 3.8402
" />
<path d="M34.5157 3.8402
L34.6367 3.9006
" />
<path d="M34.6367 3.9006
L34.8786 3.9006
" />
<path d="M34.8786 3.9006
L34.9995 3.8402
" />
<path d="M34.9995 3.8402
L35.0600 3.7797
" />
<path d="M35.0600 3.7797
L35.1205 3.6587
" />
<path d="M35.1205 3.6587
L35.1205 3.3563
" />
<path d="M35.1205 3.3563
L35.0600 3.2354
" />
<path d="M35.0600 3.2354
L34.9995 3.1749
" />
<path d="M34.9995 3.1749
L34.8786 3.1144
" />
<path d="M34.8786 3.1144
L34.6367 3.1144
" />
<path d="M34.6367 3.1144
L34.5157 3.1749
" />
<path d="M34.5157 3.1749
L34.4552 3.2354
" />
<path d="M34.4552 3.2354
L34.3948 3.3563
" />
<path d="M36.2090 2.6306
L35.9671 2.6306
" />
<path d="M35.9671 2.6306
L35.8462 2.6911
" />
<path d="M35.8462 2.6911
L35.7857 2.7516
" />
<path d="M35.7857 2.7516
L35.6647 2.9330
" />
<path d="M35.6647 2.9330
L35.6043 3.1749
" />
<path d="M35.6043 3.1749
L35.6043 3.6587
" />
<path d="M35.6043 3.6587
L35.6647 3.7797
" />
<path d="M35.6647 3.7797
L35.7252 3.8402
" />
<path d="M35.7252 3.8402
L35.8462 3.9006
" />
<path d="M35.8462 3.9006
L36.0881 3.9006
" />
<path d="M36.0881 3.9006
L36.2090 3.8402
" />
<path d="M36.2090 3.8402
L36.2695 3.7797
" />
<path d="M36.2695 3.7797
L36.3300 3.6587
" />
<path d="M36.3300 3.6587
L36.3300 3.3563
" />
<path d="M36.3300 3.3563
L36.2695 3.2354
" />
<path d="M36.2695 3.2354
L36.2090 3.1749
" />
<path d="M36.2090 3.1749
L36.0881 3.1144
" />
<path d="M36.0881 3.1144
L35.8462 3.1144
" />
<path d="M35.8462 3.1144
L35.7252 3.1749
" />
<path d="M35.7252 3.1749
L35.6647 3.2354
" />
<path d="M35.6647 3.2354
L35.6043 3.3563
" />
<path d="M36.7533 2.6306
L37.5395 2.6306
" />
<path d="M37.5395 2.6306
L37.1161 3.1144
" />
<path d="M37.1161 3.1144
L37.2976 3.1144
" />
<path d="M37.2976 3.1144
L37.4185 3.1749
" />
<path d="M37.4185 3.1749
L37.4790 3.2354
" />
<path d="M37.4790 3.2354
L37.5395 3.3563
" />
<path d="M37.5395 3.3563
L37.5395 3.6587
" />
<path d="M37.5395 3.6587
L37.4790 3.7797
" />
<path d="M37.4790 3.7797
L37.4185 3.8402
" />
<path d="M37.4185 3.8402
L37.2976 3.9006
" />
<path d="M37.2976 3.9006
L36.9347 3.9006
" />
<path d="M36.9347 3.9006
L36.8138 3.8402
" />
<path d="M36.8138 3.8402
L36.7533 3.7797
" />
<path d="M38.6885 2.6306
L38.0837 2.6306
" />
<path d="M38.0837 2.6306
L38.0233 3.2354
" />
<path d="M38.0233 3.2354
L38.0837 3.1749
" />
<path d="M38.0837 3.1749
L38.2047 3.1144
" />
<path d="M38.2047 3.1144
L38.5071 3.1144
" />
<path d="M38.5071 3.1144
L38.6280 3.1749
" />
<path d="M38.6280 3.1749
L38.6885 3.2354
" />
<path d="M38.6885 3.2354
L38.7490 3.3563
" />
<path d="M38.7490 3.3563
L38.7490 3.6587
" />
<path d="M38.7490 3.6587
L38.6885 3.7797
" />
<path d="M38.6885 3.7797
L38.6280 3.8402
" />
<path d="M38.6280 3.8402
L38.5071 3.9006
" />
<path d="M38.5071 3.9006
L38.2047 3.9006
" />
<path d="M38.2047 3.9006
L38.0837 3.8402
" />
<path d="M38.0837 3.8402
L38.0233 3.7797
" />
</g></g>
<g style="fill:#840084; fill-opacity:0.0; 
stroke:#840084; stroke-width:0.1588; stroke-opacity:1; 
stroke-linecap:round; stroke-linejoin:round;">
<text x="26.0777" y="3.9564"
textLength="30.8838" font-size="1.6933" lengthAdjust="spacingAndGlyphs"
text-anchor="middle" opacity="0">Package_DirectFET:DirectFET_MX</text>
<g class="stroked-text"><desc>Package_DirectFET:DirectFET_MX</desc>
<path d="M11.0418 3.9006
L11.2005 2.6306
" />
<path d="M11.2005 2.6306
L11.6843 2.6306
" />
<path d="M11.6843 2.6306
L11.7977 2.6911
" />
<path d="M11.7977 2.6911
L11.8506 2.7516
" />
<path d="M11.8506 2.7516
L11.8960 2.8725
" />
<path d="M11.8960 2.8725
L11.8733 3.0540
" />
<path d="M11.8733 3.0540
L11.7977 3.1749
" />
<path d="M11.7977 3.1749
L11.7297 3.2354
" />
<path d="M11.7297 3.2354
L11.6012 3.2959
" />
<path d="M11.6012 3.2959
L11.1174 3.2959
" />
<path d="M12.8561 3.9006
L12.9392 3.2354
" />
<path d="M12.9392 3.2354
L12.8939 3.1144
" />
<path d="M12.8939 3.1144
L12.7805 3.0540
" />
<path d="M12.7805 3.0540
L12.5386 3.0540
" />
<path d="M12.5386 3.0540
L12.4100 3.1144
" />
<path d="M12.8636 3.8402
L12.7351 3.9006
" />
<path d="M12.7351 3.9006
L12.4327 3.9006
" />
<path d="M12.4327 3.9006
L12.3193 3.8402
" />
<path d="M12.3193 3.8402
L12.2740 3.7192
" />
<path d="M12.2740 3.7192
L12.2891 3.5982
" />
<path d="M12.2891 3.5982
L12.3647 3.4773
" />
<path d="M12.3647 3.4773
L12.4932 3.4168
" />
<path d="M12.4932 3.4168
L12.7956 3.4168
" />
<path d="M12.7956 3.4168
L12.9241 3.3563
" />
<path d="M14.0126 3.8402
L13.8841 3.9006
" />
<path d="M13.8841 3.9006
L13.6422 3.9006
" />
<path d="M13.6422 3.9006
L13.5288 3.8402
" />
<path d="M13.5288 3.8402
L13.4759 3.7797
" />
<path d="M13.4759 3.7797
L13.4305 3.6587
" />
<path d="M13.4305 3.6587
L13.4759 3.2959
" />
<path d="M13.4759 3.2959
L13.5515 3.1749
" />
<path d="M13.5515 3.1749
L13.6195 3.1144
" />
<path d="M13.6195 3.1144
L13.7480 3.0540
" />
<path d="M13.7480 3.0540
L13.9899 3.0540
" />
<path d="M13.9899 3.0540
L14.1033 3.1144
" />
<path d="M14.5494 3.9006
L14.7081 2.6306
" />
<path d="M14.7308 3.4168
L15.0332 3.9006
" />
<path d="M15.1390 3.0540
L14.5947 3.5378
" />
<path d="M16.1218 3.9006
L16.2049 3.2354
" />
<path d="M16.2049 3.2354
L16.1596 3.1144
" />
<path d="M16.1596 3.1144
L16.0462 3.0540
" />
<path d="M16.0462 3.0540
L15.8043 3.0540
" />
<path d="M15.8043 3.0540
L15.6757 3.1144
" />
<path d="M16.1293 3.8402
L16.0008 3.9006
" />
<path d="M16.0008 3.9006
L15.6984 3.9006
" />
<path d="M15.6984 3.9006
L15.5850 3.8402
" />
<path d="M15.5850 3.8402
L15.5397 3.7192
" />
<path d="M15.5397 3.7192
L15.5548 3.5982
" />
<path d="M15.5548 3.5982
L15.6304 3.4773
" />
<path d="M15.6304 3.4773
L15.7589 3.4168
" />
<path d="M15.7589 3.4168
L16.0613 3.4168
" />
<path d="M16.0613 3.4168
L16.1898 3.3563
" />
<path d="M17.3766 3.0540
L17.2481 4.0821
" />
<path d="M17.2481 4.0821
L17.1725 4.2030
" />
<path d="M17.1725 4.2030
L17.1044 4.2635
" />
<path d="M17.1044 4.2635
L16.9759 4.3240
" />
<path d="M16.9759 4.3240
L16.7945 4.3240
" />
<path d="M16.7945 4.3240
L16.6811 4.2635
" />
<path d="M17.2783 3.8402
L17.1498 3.9006
" />
<path d="M17.1498 3.9006
L16.9079 3.9006
" />
<path d="M16.9079 3.9006
L16.7945 3.8402
" />
<path d="M16.7945 3.8402
L16.7416 3.7797
" />
<path d="M16.7416 3.7797
L16.6962 3.6587
" />
<path d="M16.6962 3.6587
L16.7416 3.2959
" />
<path d="M16.7416 3.2959
L16.8172 3.1749
" />
<path d="M16.8172 3.1749
L16.8852 3.1144
" />
<path d="M16.8852 3.1144
L17.0137 3.0540
" />
<path d="M17.0137 3.0540
L17.2556 3.0540
" />
<path d="M17.2556 3.0540
L17.3690 3.1144
" />
<path d="M18.3668 3.8402
L18.2383 3.9006
" />
<path d="M18.2383 3.9006
L17.9964 3.9006
" />
<path d="M17.9964 3.9006
L17.8830 3.8402
" />
<path d="M17.8830 3.8402
L17.8377 3.7192
" />
<path d="M17.8377 3.7192
L17.8982 3.2354
" />
<path d="M17.8982 3.2354
L17.9737 3.1144
" />
<path d="M17.9737 3.1144
L18.1023 3.0540
" />
<path d="M18.1023 3.0540
L18.3442 3.0540
" />
<path d="M18.3442 3.0540
L18.4576 3.1144
" />
<path d="M18.4576 3.1144
L18.5029 3.2354
" />
<path d="M18.5029 3.2354
L18.4878 3.3563
" />
<path d="M18.4878 3.3563
L17.8679 3.4773
" />
<path d="M18.6466 4.0216
L19.6142 4.0216
" />
<path d="M19.9317 3.9006
L20.0904 2.6306
" />
<path d="M20.0904 2.6306
L20.3928 2.6306
" />
<path d="M20.3928 2.6306
L20.5667 2.6911
" />
<path d="M20.5667 2.6911
L20.6725 2.8121
" />
<path d="M20.6725 2.8121
L20.7179 2.9330
" />
<path d="M20.7179 2.9330
L20.7481 3.1749
" />
<path d="M20.7481 3.1749
L20.7254 3.3563
" />
<path d="M20.7254 3.3563
L20.6347 3.5982
" />
<path d="M20.6347 3.5982
L20.5591 3.7192
" />
<path d="M20.5591 3.7192
L20.4230 3.8402
" />
<path d="M20.4230 3.8402
L20.2341 3.9006
" />
<path d="M20.2341 3.9006
L19.9317 3.9006
" />
<path d="M21.2017 3.9006
L21.3075 3.0540
" />
<path d="M21.3604 2.6306
L21.2924 2.6911
" />
<path d="M21.2924 2.6911
L21.3453 2.7516
" />
<path d="M21.3453 2.7516
L21.4133 2.6911
" />
<path d="M21.4133 2.6911
L21.3604 2.6306
" />
<path d="M21.3604 2.6306
L21.3453 2.7516
" />
<path d="M21.8065 3.9006
L21.9123 3.0540
" />
<path d="M21.8821 3.2959
L21.9577 3.1749
" />
<path d="M21.9577 3.1749
L22.0257 3.1144
" />
<path d="M22.0257 3.1144
L22.1542 3.0540
" />
<path d="M22.1542 3.0540
L22.2752 3.0540
" />
<path d="M23.0840 3.8402
L22.9555 3.9006
" />
<path d="M22.9555 3.9006
L22.7136 3.9006
" />
<path d="M22.7136 3.9006
L22.6002 3.8402
" />
<path d="M22.6002 3.8402
L22.5549 3.7192
" />
<path d="M22.5549 3.7192
L22.6154 3.2354
" />
<path d="M22.6154 3.2354
L22.6909 3.1144
" />
<path d="M22.6909 3.1144
L22.8195 3.0540
" />
<path d="M22.8195 3.0540
L23.0614 3.0540
" />
<path d="M23.0614 3.0540
L23.1748 3.1144
" />
<path d="M23.1748 3.1144
L23.2201 3.2354
" />
<path d="M23.2201 3.2354
L23.2050 3.3563
" />
<path d="M23.2050 3.3563
L22.5851 3.4773
" />
<path d="M24.2331 3.8402
L24.1046 3.9006
" />
<path d="M24.1046 3.9006
L23.8627 3.9006
" />
<path d="M23.8627 3.9006
L23.7493 3.8402
" />
<path d="M23.7493 3.8402
L23.6964 3.7797
" />
<path d="M23.6964 3.7797
L23.6510 3.6587
" />
<path d="M23.6510 3.6587
L23.6964 3.2959
" />
<path d="M23.6964 3.2959
L23.7720 3.1749
" />
<path d="M23.7720 3.1749
L23.8400 3.1144
" />
<path d="M23.8400 3.1144
L23.9685 3.0540
" />
<path d="M23.9685 3.0540
L24.2104 3.0540
" />
<path d="M24.2104 3.0540
L24.3238 3.1144
" />
<path d="M24.6943 3.0540
L25.1781 3.0540
" />
<path d="M24.9286 2.6306
L24.7926 3.7192
" />
<path d="M24.7926 3.7192
L24.8379 3.8402
" />
<path d="M24.8379 3.8402
L24.9513 3.9006
" />
<path d="M24.9513 3.9006
L25.0723 3.9006
" />
<path d="M26.0021 3.2354
L25.5787 3.2354
" />
<path d="M25.4956 3.9006
L25.6543 2.6306
" />
<path d="M25.6543 2.6306
L26.2591 2.6306
" />
<path d="M26.6673 3.2354
L27.0907 3.2354
" />
<path d="M27.1889 3.9006
L26.5842 3.9006
" />
<path d="M26.5842 3.9006
L26.7429 2.6306
" />
<path d="M26.7429 2.6306
L27.3477 2.6306
" />
<path d="M27.7105 2.6306
L28.4362 2.6306
" />
<path d="M27.9146 3.9006
L28.0734 2.6306
" />
<path d="M28.7159 3.7797
L28.7688 3.8402
" />
<path d="M28.7688 3.8402
L28.7008 3.9006
" />
<path d="M28.7008 3.9006
L28.6479 3.8402
" />
<path d="M28.6479 3.8402
L28.7159 3.7797
" />
<path d="M28.7159 3.7797
L28.7008 3.9006
" />
<path d="M28.7990 3.1144
L28.8520 3.1749
" />
<path d="M28.8520 3.1749
L28.7839 3.2354
" />
<path d="M28.7839 3.2354
L28.7310 3.1749
" />
<path d="M28.7310 3.1749
L28.7990 3.1144
" />
<path d="M28.7990 3.1144
L28.7839 3.2354
" />
<path d="M29.3056 3.9006
L29.4643 2.6306
" />
<path d="M29.4643 2.6306
L29.7667 2.6306
" />
<path d="M29.7667 2.6306
L29.9406 2.6911
" />
<path d="M29.9406 2.6911
L30.0464 2.8121
" />
<path d="M30.0464 2.8121
L30.0918 2.9330
" />
<path d="M30.0918 2.9330
L30.1220 3.1749
" />
<path d="M30.1220 3.1749
L30.0993 3.3563
" />
<path d="M30.0993 3.3563
L30.0086 3.5982
" />
<path d="M30.0086 3.5982
L29.9330 3.7192
" />
<path d="M29.9330 3.7192
L29.7969 3.8402
" />
<path d="M29.7969 3.8402
L29.6080 3.9006
" />
<path d="M29.6080 3.9006
L29.3056 3.9006
" />
<path d="M30.5756 3.9006
L30.6814 3.0540
" />
<path d="M30.7343 2.6306
L30.6663 2.6911
" />
<path d="M30.6663 2.6911
L30.7192 2.7516
" />
<path d="M30.7192 2.7516
L30.7872 2.6911
" />
<path d="M30.7872 2.6911
L30.7343 2.6306
" />
<path d="M30.7343 2.6306
L30.7192 2.7516
" />
<path d="M31.1804 3.9006
L31.2862 3.0540
" />
<path d="M31.2560 3.2959
L31.3316 3.1749
" />
<path d="M31.3316 3.1749
L31.3996 3.1144
" />
<path d="M31.3996 3.1144
L31.5281 3.0540
" />
<path d="M31.5281 3.0540
L31.6491 3.0540
" />
<path d="M32.4579 3.8402
L32.3294 3.9006
" />
<path d="M32.3294 3.9006
L32.0875 3.9006
" />
<path d="M32.0875 3.9006
L31.9741 3.8402
" />
<path d="M31.9741 3.8402
L31.9288 3.7192
" />
<path d="M31.9288 3.7192
L31.9893 3.2354
" />
<path d="M31.9893 3.2354
L32.0648 3.1144
" />
<path d="M32.0648 3.1144
L32.1934 3.0540
" />
<path d="M32.1934 3.0540
L32.4353 3.0540
" />
<path d="M32.4353 3.0540
L32.5487 3.1144
" />
<path d="M32.5487 3.1144
L32.5940 3.2354
" />
<path d="M32.5940 3.2354
L32.5789 3.3563
" />
<path d="M32.5789 3.3563
L31.9590 3.4773
" />
<path d="M33.6070 3.8402
L33.4785 3.9006
" />
<path d="M33.4785 3.9006
L33.2366 3.9006
" />
<path d="M33.2366 3.9006
L33.1232 3.8402
" />
<path d="M33.1232 3.8402
L33.0703 3.7797
" />
<path d="M33.0703 3.7797
L33.0249 3.6587
" />
<path d="M33.0249 3.6587
L33.0703 3.2959
" />
<path d="M33.0703 3.2959
L33.1459 3.1749
" />
<path d="M33.1459 3.1749
L33.2139 3.1144
" />
<path d="M33.2139 3.1144
L33.3424 3.0540
" />
<path d="M33.3424 3.0540
L33.5843 3.0540
" />
<path d="M33.5843 3.0540
L33.6977 3.1144
" />
<path d="M34.0682 3.0540
L34.5520 3.0540
" />
<path d="M34.3025 2.6306
L34.1665 3.7192
" />
<path d="M34.1665 3.7192
L34.2118 3.8402
" />
<path d="M34.2118 3.8402
L34.3252 3.9006
" />
<path d="M34.3252 3.9006
L34.4462 3.9006
" />
<path d="M35.3760 3.2354
L34.9526 3.2354
" />
<path d="M34.8695 3.9006
L35.0282 2.6306
" />
<path d="M35.0282 2.6306
L35.6330 2.6306
" />
<path d="M36.0412 3.2354
L36.4646 3.2354
" />
<path d="M36.5628 3.9006
L35.9581 3.9006
" />
<path d="M35.9581 3.9006
L36.1168 2.6306
" />
<path d="M36.1168 2.6306
L36.7216 2.6306
" />
<path d="M37.0844 2.6306
L37.8101 2.6306
" />
<path d="M37.2885 3.9006
L37.4473 2.6306
" />
<path d="M37.7572 4.0216
L38.7248 4.0216
" />
<path d="M39.0423 3.9006
L39.2010 2.6306
" />
<path d="M39.2010 2.6306
L39.5110 3.5378
" />
<path d="M39.5110 3.5378
L40.0477 2.6306
" />
<path d="M40.0477 2.6306
L39.8889 3.9006
" />
<path d="M40.5315 2.6306
L41.2194 3.9006
" />
<path d="M41.3781 2.6306
L40.3727 3.9006
" />
</g><text x="71.4963" y="3.9564"
textLength="90.9960" font-size="1.6933" lengthAdjust="spacingAndGlyphs"
text-anchor="middle" opacity="0">https://www.infineon.com/dgdl/irf6635pbf.pdf?fileId=5546d462533600a4015355e8e7ab1a3d</text>
<g class="stroked-text"><desc>https://www.infineon.com/dgdl/irf6635pbf.pdf?fileId=5546d462533600a4015355e8e7ab1a3d</desc>
<path d="M26.4118 3.9006
L26.4118 2.6306
" />
<path d="M26.9561 3.9006
L26.9561 3.2354
" />
<path d="M26.9561 3.2354
L26.8956 3.1144
" />
<path d="M26.8956 3.1144
L26.7747 3.0540
" />
<path d="M26.7747 3.0540
L26.5933 3.0540
" />
<path d="M26.5933 3.0540
L26.4723 3.1144
" />
<path d="M26.4723 3.1144
L26.4118 3.1749
" />
<path d="M27.3794 3.0540
L27.8632 3.0540
" />
<path d="M27.5608 2.6306
L27.5608 3.7192
" />
<path d="M27.5608 3.7192
L27.6213 3.8402
" />
<path d="M27.6213 3.8402
L27.7423 3.9006
" />
<path d="M27.7423 3.9006
L27.8632 3.9006
" />
<path d="M28.1051 3.0540
L28.5889 3.0540
" />
<path d="M28.2865 2.6306
L28.2865 3.7192
" />
<path d="M28.2865 3.7192
L28.3470 3.8402
" />
<path d="M28.3470 3.8402
L28.4680 3.9006
" />
<path d="M28.4680 3.9006
L28.5889 3.9006
" />
<path d="M29.0122 3.0540
L29.0122 4.3240
" />
<path d="M29.0122 3.1144
L29.1332 3.0540
" />
<path d="M29.1332 3.0540
L29.3751 3.0540
" />
<path d="M29.3751 3.0540
L29.4960 3.1144
" />
<path d="M29.4960 3.1144
L29.5565 3.1749
" />
<path d="M29.5565 3.1749
L29.6170 3.2959
" />
<path d="M29.6170 3.2959
L29.6170 3.6587
" />
<path d="M29.6170 3.6587
L29.5565 3.7797
" />
<path d="M29.5565 3.7797
L29.4960 3.8402
" />
<path d="M29.4960 3.8402
L29.3751 3.9006
" />
<path d="M29.3751 3.9006
L29.1332 3.9006
" />
<path d="M29.1332 3.9006
L29.0122 3.8402
" />
<path d="M30.1008 3.8402
L30.2217 3.9006
" />
<path d="M30.2217 3.9006
L30.4636 3.9006
" />
<path d="M30.4636 3.9006
L30.5846 3.8402
" />
<path d="M30.5846 3.8402
L30.6450 3.7192
" />
<path d="M30.6450 3.7192
L30.6450 3.6587
" />
<path d="M30.6450 3.6587
L30.5846 3.5378
" />
<path d="M30.5846 3.5378
L30.4636 3.4773
" />
<path d="M30.4636 3.4773
L30.2822 3.4773
" />
<path d="M30.2822 3.4773
L30.1612 3.4168
" />
<path d="M30.1612 3.4168
L30.1008 3.2959
" />
<path d="M30.1008 3.2959
L30.1008 3.2354
" />
<path d="M30.1008 3.2354
L30.1612 3.1144
" />
<path d="M30.1612 3.1144
L30.2822 3.0540
" />
<path d="M30.2822 3.0540
L30.4636 3.0540
" />
<path d="M30.4636 3.0540
L30.5846 3.1144
" />
<path d="M31.1893 3.7797
L31.2498 3.8402
" />
<path d="M31.2498 3.8402
L31.1893 3.9006
" />
<path d="M31.1893 3.9006
L31.1289 3.8402
" />
<path d="M31.1289 3.8402
L31.1893 3.7797
" />
<path d="M31.1893 3.7797
L31.1893 3.9006
" />
<path d="M31.1893 3.1144
L31.2498 3.1749
" />
<path d="M31.2498 3.1749
L31.1893 3.2354
" />
<path d="M31.1893 3.2354
L31.1289 3.1749
" />
<path d="M31.1289 3.1749
L31.1893 3.1144
" />
<path d="M31.1893 3.1144
L31.1893 3.2354
" />
<path d="M32.7013 2.5702
L31.6127 4.2030
" />
<path d="M34.0318 2.5702
L32.9432 4.2030
" />
<path d="M34.3342 3.0540
L34.5761 3.9006
" />
<path d="M34.5761 3.9006
L34.8180 3.2959
" />
<path d="M34.8180 3.2959
L35.0599 3.9006
" />
<path d="M35.0599 3.9006
L35.3018 3.0540
" />
<path d="M35.6647 3.0540
L35.9066 3.9006
" />
<path d="M35.9066 3.9006
L36.1485 3.2959
" />
<path d="M36.1485 3.2959
L36.3904 3.9006
" />
<path d="M36.3904 3.9006
L36.6323 3.0540
" />
<path d="M36.9952 3.0540
L37.2371 3.9006
" />
<path d="M37.2371 3.9006
L37.4790 3.2959
" />
<path d="M37.4790 3.2959
L37.7209 3.9006
" />
<path d="M37.7209 3.9006
L37.9628 3.0540
" />
<path d="M38.4466 3.7797
L38.5071 3.8402
" />
<path d="M38.5071 3.8402
L38.4466 3.9006
" />
<path d="M38.4466 3.9006
L38.3862 3.8402
" />
<path d="M38.3862 3.8402
L38.4466 3.7797
" />
<path d="M38.4466 3.7797
L38.4466 3.9006
" />
<path d="M39.0514 3.9006
L39.0514 3.0540
" />
<path d="M39.0514 2.6306
L38.9910 2.6911
" />
<path d="M38.9910 2.6911
L39.0514 2.7516
" />
<path d="M39.0514 2.7516
L39.1119 2.6911
" />
<path d="M39.1119 2.6911
L39.0514 2.6306
" />
<path d="M39.0514 2.6306
L39.0514 2.7516
" />
<path d="M39.6562 3.0540
L39.6562 3.9006
" />
<path d="M39.6562 3.1749
L39.7167 3.1144
" />
<path d="M39.7167 3.1144
L39.8377 3.0540
" />
<path d="M39.8377 3.0540
L40.0191 3.0540
" />
<path d="M40.0191 3.0540
L40.1400 3.1144
" />
<path d="M40.1400 3.1144
L40.2005 3.2354
" />
<path d="M40.2005 3.2354
L40.2005 3.9006
" />
<path d="M40.6238 3.0540
L41.1076 3.0540
" />
<path d="M40.8052 3.9006
L40.8052 2.8121
" />
<path d="M40.8052 2.8121
L40.8657 2.6911
" />
<path d="M40.8657 2.6911
L40.9867 2.6306
" />
<path d="M40.9867 2.6306
L41.1076 2.6306
" />
<path d="M41.5309 3.9006
L41.5309 3.0540
" />
<path d="M41.5309 2.6306
L41.4705 2.6911
" />
<path d="M41.4705 2.6911
L41.5309 2.7516
" />
<path d="M41.5309 2.7516
L41.5914 2.6911
" />
<path d="M41.5914 2.6911
L41.5309 2.6306
" />
<path d="M41.5309 2.6306
L41.5309 2.7516
" />
<path d="M42.1357 3.0540
L42.1357 3.9006
" />
<path d="M42.1357 3.1749
L42.1962 3.1144
" />
<path d="M42.1962 3.1144
L42.3172 3.0540
" />
<path d="M42.3172 3.0540
L42.4986 3.0540
" />
<path d="M42.4986 3.0540
L42.6195 3.1144
" />
<path d="M42.6195 3.1144
L42.6800 3.2354
" />
<path d="M42.6800 3.2354
L42.6800 3.9006
" />
<path d="M43.7685 3.8402
L43.6476 3.9006
" />
<path d="M43.6476 3.9006
L43.4057 3.9006
" />
<path d="M43.4057 3.9006
L43.2847 3.8402
" />
<path d="M43.2847 3.8402
L43.2243 3.7192
" />
<path d="M43.2243 3.7192
L43.2243 3.2354
" />
<path d="M43.2243 3.2354
L43.2847 3.1144
" />
<path d="M43.2847 3.1144
L43.4057 3.0540
" />
<path d="M43.4057 3.0540
L43.6476 3.0540
" />
<path d="M43.6476 3.0540
L43.7685 3.1144
" />
<path d="M43.7685 3.1144
L43.8290 3.2354
" />
<path d="M43.8290 3.2354
L43.8290 3.3563
" />
<path d="M43.8290 3.3563
L43.2243 3.4773
" />
<path d="M44.5548 3.9006
L44.4338 3.8402
" />
<path d="M44.4338 3.8402
L44.3733 3.7797
" />
<path d="M44.3733 3.7797
L44.3129 3.6587
" />
<path d="M44.3129 3.6587
L44.3129 3.2959
" />
<path d="M44.3129 3.2959
L44.3733 3.1749
" />
<path d="M44.3733 3.1749
L44.4338 3.1144
" />
<path d="M44.4338 3.1144
L44.5548 3.0540
" />
<path d="M44.5548 3.0540
L44.7362 3.0540
" />
<path d="M44.7362 3.0540
L44.8571 3.1144
" />
<path d="M44.8571 3.1144
L44.9176 3.1749
" />
<path d="M44.9176 3.1749
L44.9781 3.2959
" />
<path d="M44.9781 3.2959
L44.9781 3.6587
" />
<path d="M44.9781 3.6587
L44.9176 3.7797
" />
<path d="M44.9176 3.7797
L44.8571 3.8402
" />
<path d="M44.8571 3.8402
L44.7362 3.9006
" />
<path d="M44.7362 3.9006
L44.5548 3.9006
" />
<path d="M45.5223 3.0540
L45.5223 3.9006
" />
<path d="M45.5223 3.1749
L45.5828 3.1144
" />
<path d="M45.5828 3.1144
L45.7038 3.0540
" />
<path d="M45.7038 3.0540
L45.8852 3.0540
" />
<path d="M45.8852 3.0540
L46.0061 3.1144
" />
<path d="M46.0061 3.1144
L46.0666 3.2354
" />
<path d="M46.0666 3.2354
L46.0666 3.9006
" />
<path d="M46.6713 3.7797
L46.7318 3.8402
" />
<path d="M46.7318 3.8402
L46.6713 3.9006
" />
<path d="M46.6713 3.9006
L46.6109 3.8402
" />
<path d="M46.6109 3.8402
L46.6713 3.7797
" />
<path d="M46.6713 3.7797
L46.6713 3.9006
" />
<path d="M47.8204 3.8402
L47.6995 3.9006
" />
<path d="M47.6995 3.9006
L47.4576 3.9006
" />
<path d="M47.4576 3.9006
L47.3366 3.8402
" />
<path d="M47.3366 3.8402
L47.2761 3.7797
" />
<path d="M47.2761 3.7797
L47.2157 3.6587
" />
<path d="M47.2157 3.6587
L47.2157 3.2959
" />
<path d="M47.2157 3.2959
L47.2761 3.1749
" />
<path d="M47.2761 3.1749
L47.3366 3.1144
" />
<path d="M47.3366 3.1144
L47.4576 3.0540
" />
<path d="M47.4576 3.0540
L47.6995 3.0540
" />
<path d="M47.6995 3.0540
L47.8204 3.1144
" />
<path d="M48.5462 3.9006
L48.4252 3.8402
" />
<path d="M48.4252 3.8402
L48.3647 3.7797
" />
<path d="M48.3647 3.7797
L48.3043 3.6587
" />
<path d="M48.3043 3.6587
L48.3043 3.2959
" />
<path d="M48.3043 3.2959
L48.3647 3.1749
" />
<path d="M48.3647 3.1749
L48.4252 3.1144
" />
<path d="M48.4252 3.1144
L48.5462 3.0540
" />
<path d="M48.5462 3.0540
L48.7276 3.0540
" />
<path d="M48.7276 3.0540
L48.8485 3.1144
" />
<path d="M48.8485 3.1144
L48.9090 3.1749
" />
<path d="M48.9090 3.1749
L48.9695 3.2959
" />
<path d="M48.9695 3.2959
L48.9695 3.6587
" />
<path d="M48.9695 3.6587
L48.9090 3.7797
" />
<path d="M48.9090 3.7797
L48.8485 3.8402
" />
<path d="M48.8485 3.8402
L48.7276 3.9006
" />
<path d="M48.7276 3.9006
L48.5462 3.9006
" />
<path d="M49.5137 3.9006
L49.5137 3.0540
" />
<path d="M49.5137 3.1749
L49.5742 3.1144
" />
<path d="M49.5742 3.1144
L49.6952 3.0540
" />
<path d="M49.6952 3.0540
L49.8766 3.0540
" />
<path d="M49.8766 3.0540
L49.9975 3.1144
" />
<path d="M49.9975 3.1144
L50.0580 3.2354
" />
<path d="M50.0580 3.2354
L50.0580 3.9006
" />
<path d="M50.0580 3.2354
L50.1185 3.1144
" />
<path d="M50.1185 3.1144
L50.2394 3.0540
" />
<path d="M50.2394 3.0540
L50.4209 3.0540
" />
<path d="M50.4209 3.0540
L50.5418 3.1144
" />
<path d="M50.5418 3.1144
L50.6023 3.2354
" />
<path d="M50.6023 3.2354
L50.6023 3.9006
" />
<path d="M52.1142 2.5702
L51.0256 4.2030
" />
<path d="M53.0818 3.9006
L53.0818 2.6306
" />
<path d="M53.0818 3.8402
L52.9609 3.9006
" />
<path d="M52.9609 3.9006
L52.7190 3.9006
" />
<path d="M52.7190 3.9006
L52.5980 3.8402
" />
<path d="M52.5980 3.8402
L52.5375 3.7797
" />
<path d="M52.5375 3.7797
L52.4771 3.6587
" />
<path d="M52.4771 3.6587
L52.4771 3.2959
" />
<path d="M52.4771 3.2959
L52.5375 3.1749
" />
<path d="M52.5375 3.1749
L52.5980 3.1144
" />
<path d="M52.5980 3.1144
L52.7190 3.0540
" />
<path d="M52.7190 3.0540
L52.9609 3.0540
" />
<path d="M52.9609 3.0540
L53.0818 3.1144
" />
<path d="M54.2308 3.0540
L54.2308 4.0821
" />
<path d="M54.2308 4.0821
L54.1703 4.2030
" />
<path d="M54.1703 4.2030
L54.1099 4.2635
" />
<path d="M54.1099 4.2635
L53.9889 4.3240
" />
<path d="M53.9889 4.3240
L53.8075 4.3240
" />
<path d="M53.8075 4.3240
L53.6865 4.2635
" />
<path d="M54.2308 3.8402
L54.1099 3.9006
" />
<path d="M54.1099 3.9006
L53.8680 3.9006
" />
<path d="M53.8680 3.9006
L53.7470 3.8402
" />
<path d="M53.7470 3.8402
L53.6865 3.7797
" />
<path d="M53.6865 3.7797
L53.6261 3.6587
" />
<path d="M53.6261 3.6587
L53.6261 3.2959
" />
<path d="M53.6261 3.2959
L53.6865 3.1749
" />
<path d="M53.6865 3.1749
L53.7470 3.1144
" />
<path d="M53.7470 3.1144
L53.8680 3.0540
" />
<path d="M53.8680 3.0540
L54.1099 3.0540
" />
<path d="M54.1099 3.0540
L54.2308 3.1144
" />
<path d="M55.3798 3.9006
L55.3798 2.6306
" />
<path d="M55.3798 3.8402
L55.2589 3.9006
" />
<path d="M55.2589 3.9006
L55.0170 3.9006
" />
<path d="M55.0170 3.9006
L54.8960 3.8402
" />
<path d="M54.8960 3.8402
L54.8355 3.7797
" />
<path d="M54.8355 3.7797
L54.7751 3.6587
" />
<path d="M54.7751 3.6587
L54.7751 3.2959
" />
<path d="M54.7751 3.2959
L54.8355 3.1749
" />
<path d="M54.8355 3.1749
L54.8960 3.1144
" />
<path d="M54.8960 3.1144
L55.0170 3.0540
" />
<path d="M55.0170 3.0540
L55.2589 3.0540
" />
<path d="M55.2589 3.0540
L55.3798 3.1144
" />
<path d="M56.1660 3.9006
L56.0450 3.8402
" />
<path d="M56.0450 3.8402
L55.9845 3.7192
" />
<path d="M55.9845 3.7192
L55.9845 2.6306
" />
<path d="M57.5569 2.5702
L56.4683 4.2030
" />
<path d="M57.9802 3.9006
L57.9802 3.0540
" />
<path d="M57.9802 2.6306
L57.9198 2.6911
" />
<path d="M57.9198 2.6911
L57.9802 2.7516
" />
<path d="M57.9802 2.7516
L58.0407 2.6911
" />
<path d="M58.0407 2.6911
L57.9802 2.6306
" />
<path d="M57.9802 2.6306
L57.9802 2.7516
" />
<path d="M58.5850 3.9006
L58.5850 3.0540
" />
<path d="M58.5850 3.2959
L58.6455 3.1749
" />
<path d="M58.6455 3.1749
L58.7060 3.1144
" />
<path d="M58.7060 3.1144
L58.8269 3.0540
" />
<path d="M58.8269 3.0540
L58.9479 3.0540
" />
<path d="M59.1898 3.0540
L59.6736 3.0540
" />
<path d="M59.3712 3.9006
L59.3712 2.8121
" />
<path d="M59.3712 2.8121
L59.4317 2.6911
" />
<path d="M59.4317 2.6911
L59.5527 2.6306
" />
<path d="M59.5527 2.6306
L59.6736 2.6306
" />
<path d="M60.6412 2.6306
L60.3993 2.6306
" />
<path d="M60.3993 2.6306
L60.2784 2.6911
" />
<path d="M60.2784 2.6911
L60.2179 2.7516
" />
<path d="M60.2179 2.7516
L60.0969 2.9330
" />
<path d="M60.0969 2.9330
L60.0365 3.1749
" />
<path d="M60.0365 3.1749
L60.0365 3.6587
" />
<path d="M60.0365 3.6587
L60.0969 3.7797
" />
<path d="M60.0969 3.7797
L60.1574 3.8402
" />
<path d="M60.1574 3.8402
L60.2784 3.9006
" />
<path d="M60.2784 3.9006
L60.5203 3.9006
" />
<path d="M60.5203 3.9006
L60.6412 3.8402
" />
<path d="M60.6412 3.8402
L60.7017 3.7797
" />
<path d="M60.7017 3.7797
L60.7622 3.6587
" />
<path d="M60.7622 3.6587
L60.7622 3.3563
" />
<path d="M60.7622 3.3563
L60.7017 3.2354
" />
<path d="M60.7017 3.2354
L60.6412 3.1749
" />
<path d="M60.6412 3.1749
L60.5203 3.1144
" />
<path d="M60.5203 3.1144
L60.2784 3.1144
" />
<path d="M60.2784 3.1144
L60.1574 3.1749
" />
<path d="M60.1574 3.1749
L60.0969 3.2354
" />
<path d="M60.0969 3.2354
L60.0365 3.3563
" />
<path d="M61.8507 2.6306
L61.6088 2.6306
" />
<path d="M61.6088 2.6306
L61.4879 2.6911
" />
<path d="M61.4879 2.6911
L61.4274 2.7516
" />
<path d="M61.4274 2.7516
L61.3064 2.9330
" />
<path d="M61.3064 2.9330
L61.2460 3.1749
" />
<path d="M61.2460 3.1749
L61.2460 3.6587
" />
<path d="M61.2460 3.6587
L61.3064 3.7797
" />
<path d="M61.3064 3.7797
L61.3669 3.8402
" />
<path d="M61.3669 3.8402
L61.4879 3.9006
" />
<path d="M61.4879 3.9006
L61.7298 3.9006
" />
<path d="M61.7298 3.9006
L61.8507 3.8402
" />
<path d="M61.8507 3.8402
L61.9112 3.7797
" />
<path d="M61.9112 3.7797
L61.9717 3.6587
" />
<path d="M61.9717 3.6587
L61.9717 3.3563
" />
<path d="M61.9717 3.3563
L61.9112 3.2354
" />
<path d="M61.9112 3.2354
L61.8507 3.1749
" />
<path d="M61.8507 3.1749
L61.7298 3.1144
" />
<path d="M61.7298 3.1144
L61.4879 3.1144
" />
<path d="M61.4879 3.1144
L61.3669 3.1749
" />
<path d="M61.3669 3.1749
L61.3064 3.2354
" />
<path d="M61.3064 3.2354
L61.2460 3.3563
" />
<path d="M62.3950 2.6306
L63.1812 2.6306
" />
<path d="M63.1812 2.6306
L62.7578 3.1144
" />
<path d="M62.7578 3.1144
L62.9393 3.1144
" />
<path d="M62.9393 3.1144
L63.0602 3.1749
" />
<path d="M63.0602 3.1749
L63.1207 3.2354
" />
<path d="M63.1207 3.2354
L63.1812 3.3563
" />
<path d="M63.1812 3.3563
L63.1812 3.6587
" />
<path d="M63.1812 3.6587
L63.1207 3.7797
" />
<path d="M63.1207 3.7797
L63.0602 3.8402
" />
<path d="M63.0602 3.8402
L62.9393 3.9006
" />
<path d="M62.9393 3.9006
L62.5764 3.9006
" />
<path d="M62.5764 3.9006
L62.4555 3.8402
" />
<path d="M62.4555 3.8402
L62.3950 3.7797
" />
<path d="M64.3302 2.6306
L63.7254 2.6306
" />
<path d="M63.7254 2.6306
L63.6650 3.2354
" />
<path d="M63.6650 3.2354
L63.7254 3.1749
" />
<path d="M63.7254 3.1749
L63.8464 3.1144
" />
<path d="M63.8464 3.1144
L64.1488 3.1144
" />
<path d="M64.1488 3.1144
L64.2697 3.1749
" />
<path d="M64.2697 3.1749
L64.3302 3.2354
" />
<path d="M64.3302 3.2354
L64.3907 3.3563
" />
<path d="M64.3907 3.3563
L64.3907 3.6587
" />
<path d="M64.3907 3.6587
L64.3302 3.7797
" />
<path d="M64.3302 3.7797
L64.2697 3.8402
" />
<path d="M64.2697 3.8402
L64.1488 3.9006
" />
<path d="M64.1488 3.9006
L63.8464 3.9006
" />
<path d="M63.8464 3.9006
L63.7254 3.8402
" />
<path d="M63.7254 3.8402
L63.6650 3.7797
" />
<path d="M64.9349 3.0540
L64.9349 4.3240
" />
<path d="M64.9349 3.1144
L65.0559 3.0540
" />
<path d="M65.0559 3.0540
L65.2978 3.0540
" />
<path d="M65.2978 3.0540
L65.4187 3.1144
" />
<path d="M65.4187 3.1144
L65.4792 3.1749
" />
<path d="M65.4792 3.1749
L65.5397 3.2959
" />
<path d="M65.5397 3.2959
L65.5397 3.6587
" />
<path d="M65.5397 3.6587
L65.4792 3.7797
" />
<path d="M65.4792 3.7797
L65.4187 3.8402
" />
<path d="M65.4187 3.8402
L65.2978 3.9006
" />
<path d="M65.2978 3.9006
L65.0559 3.9006
" />
<path d="M65.0559 3.9006
L64.9349 3.8402
" />
<path d="M66.0839 3.9006
L66.0839 2.6306
" />
<path d="M66.0839 3.1144
L66.2049 3.0540
" />
<path d="M66.2049 3.0540
L66.4468 3.0540
" />
<path d="M66.4468 3.0540
L66.5677 3.1144
" />
<path d="M66.5677 3.1144
L66.6282 3.1749
" />
<path d="M66.6282 3.1749
L66.6887 3.2959
" />
<path d="M66.6887 3.2959
L66.6887 3.6587
" />
<path d="M66.6887 3.6587
L66.6282 3.7797
" />
<path d="M66.6282 3.7797
L66.5677 3.8402
" />
<path d="M66.5677 3.8402
L66.4468 3.9006
" />
<path d="M66.4468 3.9006
L66.2049 3.9006
" />
<path d="M66.2049 3.9006
L66.0839 3.8402
" />
<path d="M67.0515 3.0540
L67.5353 3.0540
" />
<path d="M67.2329 3.9006
L67.2329 2.8121
" />
<path d="M67.2329 2.8121
L67.2934 2.6911
" />
<path d="M67.2934 2.6911
L67.4144 2.6306
" />
<path d="M67.4144 2.6306
L67.5353 2.6306
" />
<path d="M67.9586 3.7797
L68.0191 3.8402
" />
<path d="M68.0191 3.8402
L67.9586 3.9006
" />
<path d="M67.9586 3.9006
L67.8982 3.8402
" />
<path d="M67.8982 3.8402
L67.9586 3.7797
" />
<path d="M67.9586 3.7797
L67.9586 3.9006
" />
<path d="M68.5634 3.0540
L68.5634 4.3240
" />
<path d="M68.5634 3.1144
L68.6844 3.0540
" />
<path d="M68.6844 3.0540
L68.9263 3.0540
" />
<path d="M68.9263 3.0540
L69.0472 3.1144
" />
<path d="M69.0472 3.1144
L69.1077 3.1749
" />
<path d="M69.1077 3.1749
L69.1682 3.2959
" />
<path d="M69.1682 3.2959
L69.1682 3.6587
" />
<path d="M69.1682 3.6587
L69.1077 3.7797
" />
<path d="M69.1077 3.7797
L69.0472 3.8402
" />
<path d="M69.0472 3.8402
L68.9263 3.9006
" />
<path d="M68.9263 3.9006
L68.6844 3.9006
" />
<path d="M68.6844 3.9006
L68.5634 3.8402
" />
<path d="M70.2567 3.9006
L70.2567 2.6306
" />
<path d="M70.2567 3.8402
L70.1358 3.9006
" />
<path d="M70.1358 3.9006
L69.8939 3.9006
" />
<path d="M69.8939 3.9006
L69.7729 3.8402
" />
<path d="M69.7729 3.8402
L69.7124 3.7797
" />
<path d="M69.7124 3.7797
L69.6520 3.6587
" />
<path d="M69.6520 3.6587
L69.6520 3.2959
" />
<path d="M69.6520 3.2959
L69.7124 3.1749
" />
<path d="M69.7124 3.1749
L69.7729 3.1144
" />
<path d="M69.7729 3.1144
L69.8939 3.0540
" />
<path d="M69.8939 3.0540
L70.1358 3.0540
" />
<path d="M70.1358 3.0540
L70.2567 3.1144
" />
<path d="M70.6800 3.0540
L71.1638 3.0540
" />
<path d="M70.8614 3.9006
L70.8614 2.8121
" />
<path d="M70.8614 2.8121
L70.9219 2.6911
" />
<path d="M70.9219 2.6911
L71.0429 2.6306
" />
<path d="M71.0429 2.6306
L71.1638 2.6306
" />
<path d="M71.7686 3.7797
L71.8290 3.8402
" />
<path d="M71.8290 3.8402
L71.7686 3.9006
" />
<path d="M71.7686 3.9006
L71.7081 3.8402
" />
<path d="M71.7081 3.8402
L71.7686 3.7797
" />
<path d="M71.7686 3.7797
L71.7686 3.9006
" />
<path d="M71.5267 2.6911
L71.6476 2.6306
" />
<path d="M71.6476 2.6306
L71.9500 2.6306
" />
<path d="M71.9500 2.6306
L72.0709 2.6911
" />
<path d="M72.0709 2.6911
L72.1314 2.8121
" />
<path d="M72.1314 2.8121
L72.1314 2.9330
" />
<path d="M72.1314 2.9330
L72.0709 3.0540
" />
<path d="M72.0709 3.0540
L72.0105 3.1144
" />
<path d="M72.0105 3.1144
L71.8895 3.1749
" />
<path d="M71.8895 3.1749
L71.8290 3.2354
" />
<path d="M71.8290 3.2354
L71.7686 3.3563
" />
<path d="M71.7686 3.3563
L71.7686 3.4168
" />
<path d="M72.4943 3.0540
L72.9781 3.0540
" />
<path d="M72.6757 3.9006
L72.6757 2.8121
" />
<path d="M72.6757 2.8121
L72.7362 2.6911
" />
<path d="M72.7362 2.6911
L72.8572 2.6306
" />
<path d="M72.8572 2.6306
L72.9781 2.6306
" />
<path d="M73.4014 3.9006
L73.4014 3.0540
" />
<path d="M73.4014 2.6306
L73.3410 2.6911
" />
<path d="M73.3410 2.6911
L73.4014 2.7516
" />
<path d="M73.4014 2.7516
L73.4619 2.6911
" />
<path d="M73.4619 2.6911
L73.4014 2.6306
" />
<path d="M73.4014 2.6306
L73.4014 2.7516
" />
<path d="M74.1877 3.9006
L74.0667 3.8402
" />
<path d="M74.0667 3.8402
L74.0062 3.7192
" />
<path d="M74.0062 3.7192
L74.0062 2.6306
" />
<path d="M75.1552 3.8402
L75.0343 3.9006
" />
<path d="M75.0343 3.9006
L74.7924 3.9006
" />
<path d="M74.7924 3.9006
L74.6714 3.8402
" />
<path d="M74.6714 3.8402
L74.6110 3.7192
" />
<path d="M74.6110 3.7192
L74.6110 3.2354
" />
<path d="M74.6110 3.2354
L74.6714 3.1144
" />
<path d="M74.6714 3.1144
L74.7924 3.0540
" />
<path d="M74.7924 3.0540
L75.0343 3.0540
" />
<path d="M75.0343 3.0540
L75.1552 3.1144
" />
<path d="M75.1552 3.1144
L75.2157 3.2354
" />
<path d="M75.2157 3.2354
L75.2157 3.3563
" />
<path d="M75.2157 3.3563
L74.6110 3.4773
" />
<path d="M75.7600 3.9006
L75.7600 2.6306
" />
<path d="M76.9091 3.9006
L76.9091 2.6306
" />
<path d="M76.9091 3.8402
L76.7882 3.9006
" />
<path d="M76.7882 3.9006
L76.5463 3.9006
" />
<path d="M76.5463 3.9006
L76.4253 3.8402
" />
<path d="M76.4253 3.8402
L76.3648 3.7797
" />
<path d="M76.3648 3.7797
L76.3044 3.6587
" />
<path d="M76.3044 3.6587
L76.3044 3.2959
" />
<path d="M76.3044 3.2959
L76.3648 3.1749
" />
<path d="M76.3648 3.1749
L76.4253 3.1144
" />
<path d="M76.4253 3.1144
L76.5463 3.0540
" />
<path d="M76.5463 3.0540
L76.7882 3.0540
" />
<path d="M76.7882 3.0540
L76.9091 3.1144
" />
<path d="M77.5138 3.2354
L78.4815 3.2354
" />
<path d="M78.4815 3.5982
L77.5138 3.5982
" />
<path d="M79.6910 2.6306
L79.0862 2.6306
" />
<path d="M79.0862 2.6306
L79.0258 3.2354
" />
<path d="M79.0258 3.2354
L79.0862 3.1749
" />
<path d="M79.0862 3.1749
L79.2072 3.1144
" />
<path d="M79.2072 3.1144
L79.5096 3.1144
" />
<path d="M79.5096 3.1144
L79.6305 3.1749
" />
<path d="M79.6305 3.1749
L79.6910 3.2354
" />
<path d="M79.6910 3.2354
L79.7515 3.3563
" />
<path d="M79.7515 3.3563
L79.7515 3.6587
" />
<path d="M79.7515 3.6587
L79.6910 3.7797
" />
<path d="M79.6910 3.7797
L79.6305 3.8402
" />
<path d="M79.6305 3.8402
L79.5096 3.9006
" />
<path d="M79.5096 3.9006
L79.2072 3.9006
" />
<path d="M79.2072 3.9006
L79.0862 3.8402
" />
<path d="M79.0862 3.8402
L79.0258 3.7797
" />
<path d="M80.9005 2.6306
L80.2957 2.6306
" />
<path d="M80.2957 2.6306
L80.2353 3.2354
" />
<path d="M80.2353 3.2354
L80.2957 3.1749
" />
<path d="M80.2957 3.1749
L80.4167 3.1144
" />
<path d="M80.4167 3.1144
L80.7191 3.1144
" />
<path d="M80.7191 3.1144
L80.8400 3.1749
" />
<path d="M80.8400 3.1749
L80.9005 3.2354
" />
<path d="M80.9005 3.2354
L80.9610 3.3563
" />
<path d="M80.9610 3.3563
L80.9610 3.6587
" />
<path d="M80.9610 3.6587
L80.9005 3.7797
" />
<path d="M80.9005 3.7797
L80.8400 3.8402
" />
<path d="M80.8400 3.8402
L80.7191 3.9006
" />
<path d="M80.7191 3.9006
L80.4167 3.9006
" />
<path d="M80.4167 3.9006
L80.2957 3.8402
" />
<path d="M80.2957 3.8402
L80.2353 3.7797
" />
<path d="M82.0495 3.0540
L82.0495 3.9006
" />
<path d="M81.7471 2.5702
L81.4448 3.4773
" />
<path d="M81.4448 3.4773
L82.2309 3.4773
" />
<path d="M83.2590 2.6306
L83.0171 2.6306
" />
<path d="M83.0171 2.6306
L82.8962 2.6911
" />
<path d="M82.8962 2.6911
L82.8357 2.7516
" />
<path d="M82.8357 2.7516
L82.7147 2.9330
" />
<path d="M82.7147 2.9330
L82.6543 3.1749
" />
<path d="M82.6543 3.1749
L82.6543 3.6587
" />
<path d="M82.6543 3.6587
L82.7147 3.7797
" />
<path d="M82.7147 3.7797
L82.7752 3.8402
" />
<path d="M82.7752 3.8402
L82.8962 3.9006
" />
<path d="M82.8962 3.9006
L83.1381 3.9006
" />
<path d="M83.1381 3.9006
L83.2590 3.8402
" />
<path d="M83.2590 3.8402
L83.3195 3.7797
" />
<path d="M83.3195 3.7797
L83.3800 3.6587
" />
<path d="M83.3800 3.6587
L83.3800 3.3563
" />
<path d="M83.3800 3.3563
L83.3195 3.2354
" />
<path d="M83.3195 3.2354
L83.2590 3.1749
" />
<path d="M83.2590 3.1749
L83.1381 3.1144
" />
<path d="M83.1381 3.1144
L82.8962 3.1144
" />
<path d="M82.8962 3.1144
L82.7752 3.1749
" />
<path d="M82.7752 3.1749
L82.7147 3.2354
" />
<path d="M82.7147 3.2354
L82.6543 3.3563
" />
<path d="M84.4685 3.9006
L84.4685 2.6306
" />
<path d="M84.4685 3.8402
L84.3476 3.9006
" />
<path d="M84.3476 3.9006
L84.1057 3.9006
" />
<path d="M84.1057 3.9006
L83.9847 3.8402
" />
<path d="M83.9847 3.8402
L83.9242 3.7797
" />
<path d="M83.9242 3.7797
L83.8638 3.6587
" />
<path d="M83.8638 3.6587
L83.8638 3.2959
" />
<path d="M83.8638 3.2959
L83.9242 3.1749
" />
<path d="M83.9242 3.1749
L83.9847 3.1144
" />
<path d="M83.9847 3.1144
L84.1057 3.0540
" />
<path d="M84.1057 3.0540
L84.3476 3.0540
" />
<path d="M84.3476 3.0540
L84.4685 3.1144
" />
<path d="M85.6175 3.0540
L85.6175 3.9006
" />
<path d="M85.3151 2.5702
L85.0128 3.4773
" />
<path d="M85.0128 3.4773
L85.7989 3.4773
" />
<path d="M86.8270 2.6306
L86.5851 2.6306
" />
<path d="M86.5851 2.6306
L86.4642 2.6911
" />
<path d="M86.4642 2.6911
L86.4037 2.7516
" />
<path d="M86.4037 2.7516
L86.2827 2.9330
" />
<path d="M86.2827 2.9330
L86.2223 3.1749
" />
<path d="M86.2223 3.1749
L86.2223 3.6587
" />
<path d="M86.2223 3.6587
L86.2827 3.7797
" />
<path d="M86.2827 3.7797
L86.3432 3.8402
" />
<path d="M86.3432 3.8402
L86.4642 3.9006
" />
<path d="M86.4642 3.9006
L86.7061 3.9006
" />
<path d="M86.7061 3.9006
L86.8270 3.8402
" />
<path d="M86.8270 3.8402
L86.8875 3.7797
" />
<path d="M86.8875 3.7797
L86.9480 3.6587
" />
<path d="M86.9480 3.6587
L86.9480 3.3563
" />
<path d="M86.9480 3.3563
L86.8875 3.2354
" />
<path d="M86.8875 3.2354
L86.8270 3.1749
" />
<path d="M86.8270 3.1749
L86.7061 3.1144
" />
<path d="M86.7061 3.1144
L86.4642 3.1144
" />
<path d="M86.4642 3.1144
L86.3432 3.1749
" />
<path d="M86.3432 3.1749
L86.2827 3.2354
" />
<path d="M86.2827 3.2354
L86.2223 3.3563
" />
<path d="M87.4318 2.7516
L87.4922 2.6911
" />
<path d="M87.4922 2.6911
L87.6132 2.6306
" />
<path d="M87.6132 2.6306
L87.9156 2.6306
" />
<path d="M87.9156 2.6306
L88.0365 2.6911
" />
<path d="M88.0365 2.6911
L88.0970 2.7516
" />
<path d="M88.0970 2.7516
L88.1575 2.8725
" />
<path d="M88.1575 2.8725
L88.1575 2.9935
" />
<path d="M88.1575 2.9935
L88.0970 3.1749
" />
<path d="M88.0970 3.1749
L87.3713 3.9006
" />
<path d="M87.3713 3.9006
L88.1575 3.9006
" />
<path d="M89.3065 2.6306
L88.7017 2.6306
" />
<path d="M88.7017 2.6306
L88.6413 3.2354
" />
<path d="M88.6413 3.2354
L88.7017 3.1749
" />
<path d="M88.7017 3.1749
L88.8227 3.1144
" />
<path d="M88.8227 3.1144
L89.1251 3.1144
" />
<path d="M89.1251 3.1144
L89.2460 3.1749
" />
<path d="M89.2460 3.1749
L89.3065 3.2354
" />
<path d="M89.3065 3.2354
L89.3670 3.3563
" />
<path d="M89.3670 3.3563
L89.3670 3.6587
" />
<path d="M89.3670 3.6587
L89.3065 3.7797
" />
<path d="M89.3065 3.7797
L89.2460 3.8402
" />
<path d="M89.2460 3.8402
L89.1251 3.9006
" />
<path d="M89.1251 3.9006
L88.8227 3.9006
" />
<path d="M88.8227 3.9006
L88.7017 3.8402
" />
<path d="M88.7017 3.8402
L88.6413 3.7797
" />
<path d="M89.7903 2.6306
L90.5765 2.6306
" />
<path d="M90.5765 2.6306
L90.1531 3.1144
" />
<path d="M90.1531 3.1144
L90.3346 3.1144
" />
<path d="M90.3346 3.1144
L90.4555 3.1749
" />
<path d="M90.4555 3.1749
L90.5160 3.2354
" />
<path d="M90.5160 3.2354
L90.5765 3.3563
" />
<path d="M90.5765 3.3563
L90.5765 3.6587
" />
<path d="M90.5765 3.6587
L90.5160 3.7797
" />
<path d="M90.5160 3.7797
L90.4555 3.8402
" />
<path d="M90.4555 3.8402
L90.3346 3.9006
" />
<path d="M90.3346 3.9006
L89.9717 3.9006
" />
<path d="M89.9717 3.9006
L89.8508 3.8402
" />
<path d="M89.8508 3.8402
L89.7903 3.7797
" />
<path d="M90.9998 2.6306
L91.7860 2.6306
" />
<path d="M91.7860 2.6306
L91.3626 3.1144
" />
<path d="M91.3626 3.1144
L91.5441 3.1144
" />
<path d="M91.5441 3.1144
L91.6650 3.1749
" />
<path d="M91.6650 3.1749
L91.7255 3.2354
" />
<path d="M91.7255 3.2354
L91.7860 3.3563
" />
<path d="M91.7860 3.3563
L91.7860 3.6587
" />
<path d="M91.7860 3.6587
L91.7255 3.7797
" />
<path d="M91.7255 3.7797
L91.6650 3.8402
" />
<path d="M91.6650 3.8402
L91.5441 3.9006
" />
<path d="M91.5441 3.9006
L91.1812 3.9006
" />
<path d="M91.1812 3.9006
L91.0603 3.8402
" />
<path d="M91.0603 3.8402
L90.9998 3.7797
" />
<path d="M92.8745 2.6306
L92.6326 2.6306
" />
<path d="M92.6326 2.6306
L92.5117 2.6911
" />
<path d="M92.5117 2.6911
L92.4512 2.7516
" />
<path d="M92.4512 2.7516
L92.3302 2.9330
" />
<path d="M92.3302 2.9330
L92.2698 3.1749
" />
<path d="M92.2698 3.1749
L92.2698 3.6587
" />
<path d="M92.2698 3.6587
L92.3302 3.7797
" />
<path d="M92.3302 3.7797
L92.3907 3.8402
" />
<path d="M92.3907 3.8402
L92.5117 3.9006
" />
<path d="M92.5117 3.9006
L92.7536 3.9006
" />
<path d="M92.7536 3.9006
L92.8745 3.8402
" />
<path d="M92.8745 3.8402
L92.9350 3.7797
" />
<path d="M92.9350 3.7797
L92.9955 3.6587
" />
<path d="M92.9955 3.6587
L92.9955 3.3563
" />
<path d="M92.9955 3.3563
L92.9350 3.2354
" />
<path d="M92.9350 3.2354
L92.8745 3.1749
" />
<path d="M92.8745 3.1749
L92.7536 3.1144
" />
<path d="M92.7536 3.1144
L92.5117 3.1144
" />
<path d="M92.5117 3.1144
L92.3907 3.1749
" />
<path d="M92.3907 3.1749
L92.3302 3.2354
" />
<path d="M92.3302 3.2354
L92.2698 3.3563
" />
<path d="M93.7816 2.6306
L93.9026 2.6306
" />
<path d="M93.9026 2.6306
L94.0235 2.6911
" />
<path d="M94.0235 2.6911
L94.0840 2.7516
" />
<path d="M94.0840 2.7516
L94.1445 2.8725
" />
<path d="M94.1445 2.8725
L94.2050 3.1144
" />
<path d="M94.2050 3.1144
L94.2050 3.4168
" />
<path d="M94.2050 3.4168
L94.1445 3.6587
" />
<path d="M94.1445 3.6587
L94.0840 3.7797
" />
<path d="M94.0840 3.7797
L94.0235 3.8402
" />
<path d="M94.0235 3.8402
L93.9026 3.9006
" />
<path d="M93.9026 3.9006
L93.7816 3.9006
" />
<path d="M93.7816 3.9006
L93.6607 3.8402
" />
<path d="M93.6607 3.8402
L93.6002 3.7797
" />
<path d="M93.6002 3.7797
L93.5397 3.6587
" />
<path d="M93.5397 3.6587
L93.4793 3.4168
" />
<path d="M93.4793 3.4168
L93.4793 3.1144
" />
<path d="M93.4793 3.1144
L93.5397 2.8725
" />
<path d="M93.5397 2.8725
L93.6002 2.7516
" />
<path d="M93.6002 2.7516
L93.6607 2.6911
" />
<path d="M93.6607 2.6911
L93.7816 2.6306
" />
<path d="M94.9911 2.6306
L95.1121 2.6306
" />
<path d="M95.1121 2.6306
L95.2330 2.6911
" />
<path d="M95.2330 2.6911
L95.2935 2.7516
" />
<path d="M95.2935 2.7516
L95.3540 2.8725
" />
<path d="M95.3540 2.8725
L95.4145 3.1144
" />
<path d="M95.4145 3.1144
L95.4145 3.4168
" />
<path d="M95.4145 3.4168
L95.3540 3.6587
" />
<path d="M95.3540 3.6587
L95.2935 3.7797
" />
<path d="M95.2935 3.7797
L95.2330 3.8402
" />
<path d="M95.2330 3.8402
L95.1121 3.9006
" />
<path d="M95.1121 3.9006
L94.9911 3.9006
" />
<path d="M94.9911 3.9006
L94.8702 3.8402
" />
<path d="M94.8702 3.8402
L94.8097 3.7797
" />
<path d="M94.8097 3.7797
L94.7492 3.6587
" />
<path d="M94.7492 3.6587
L94.6888 3.4168
" />
<path d="M94.6888 3.4168
L94.6888 3.1144
" />
<path d="M94.6888 3.1144
L94.7492 2.8725
" />
<path d="M94.7492 2.8725
L94.8097 2.7516
" />
<path d="M94.8097 2.7516
L94.8702 2.6911
" />
<path d="M94.8702 2.6911
L94.9911 2.6306
" />
<path d="M96.5030 3.9006
L96.5030 3.2354
" />
<path d="M96.5030 3.2354
L96.4425 3.1144
" />
<path d="M96.4425 3.1144
L96.3216 3.0540
" />
<path d="M96.3216 3.0540
L96.0797 3.0540
" />
<path d="M96.0797 3.0540
L95.9587 3.1144
" />
<path d="M96.5030 3.8402
L96.3821 3.9006
" />
<path d="M96.3821 3.9006
L96.0797 3.9006
" />
<path d="M96.0797 3.9006
L95.9587 3.8402
" />
<path d="M95.9587 3.8402
L95.8983 3.7192
" />
<path d="M95.8983 3.7192
L95.8983 3.5982
" />
<path d="M95.8983 3.5982
L95.9587 3.4773
" />
<path d="M95.9587 3.4773
L96.0797 3.4168
" />
<path d="M96.0797 3.4168
L96.3821 3.4168
" />
<path d="M96.3821 3.4168
L96.5030 3.3563
" />
<path d="M97.6520 3.0540
L97.6520 3.9006
" />
<path d="M97.3496 2.5702
L97.0473 3.4773
" />
<path d="M97.0473 3.4773
L97.8334 3.4773
" />
<path d="M98.5591 2.6306
L98.6801 2.6306
" />
<path d="M98.6801 2.6306
L98.8010 2.6911
" />
<path d="M98.8010 2.6911
L98.8615 2.7516
" />
<path d="M98.8615 2.7516
L98.9220 2.8725
" />
<path d="M98.9220 2.8725
L98.9825 3.1144
" />
<path d="M98.9825 3.1144
L98.9825 3.4168
" />
<path d="M98.9825 3.4168
L98.9220 3.6587
" />
<path d="M98.9220 3.6587
L98.8615 3.7797
" />
<path d="M98.8615 3.7797
L98.8010 3.8402
" />
<path d="M98.8010 3.8402
L98.6801 3.9006
" />
<path d="M98.6801 3.9006
L98.5591 3.9006
" />
<path d="M98.5591 3.9006
L98.4382 3.8402
" />
<path d="M98.4382 3.8402
L98.3777 3.7797
" />
<path d="M98.3777 3.7797
L98.3172 3.6587
" />
<path d="M98.3172 3.6587
L98.2568 3.4168
" />
<path d="M98.2568 3.4168
L98.2568 3.1144
" />
<path d="M98.2568 3.1144
L98.3172 2.8725
" />
<path d="M98.3172 2.8725
L98.3777 2.7516
" />
<path d="M98.3777 2.7516
L98.4382 2.6911
" />
<path d="M98.4382 2.6911
L98.5591 2.6306
" />
<path d="M100.1920 3.9006
L99.4663 3.9006
" />
<path d="M99.8291 3.9006
L99.8291 2.6306
" />
<path d="M99.8291 2.6306
L99.7082 2.8121
" />
<path d="M99.7082 2.8121
L99.5872 2.9330
" />
<path d="M99.5872 2.9330
L99.4663 2.9935
" />
<path d="M101.3410 2.6306
L100.7362 2.6306
" />
<path d="M100.7362 2.6306
L100.6758 3.2354
" />
<path d="M100.6758 3.2354
L100.7362 3.1749
" />
<path d="M100.7362 3.1749
L100.8572 3.1144
" />
<path d="M100.8572 3.1144
L101.1596 3.1144
" />
<path d="M101.1596 3.1144
L101.2805 3.1749
" />
<path d="M101.2805 3.1749
L101.3410 3.2354
" />
<path d="M101.3410 3.2354
L101.4015 3.3563
" />
<path d="M101.4015 3.3563
L101.4015 3.6587
" />
<path d="M101.4015 3.6587
L101.3410 3.7797
" />
<path d="M101.3410 3.7797
L101.2805 3.8402
" />
<path d="M101.2805 3.8402
L101.1596 3.9006
" />
<path d="M101.1596 3.9006
L100.8572 3.9006
" />
<path d="M100.8572 3.9006
L100.7362 3.8402
" />
<path d="M100.7362 3.8402
L100.6758 3.7797
" />
<path d="M101.8248 2.6306
L102.6110 2.6306
" />
<path d="M102.6110 2.6306
L102.1876 3.1144
" />
<path d="M102.1876 3.1144
L102.3691 3.1144
" />
<path d="M102.3691 3.1144
L102.4900 3.1749
" />
<path d="M102.4900 3.1749
L102.5505 3.2354
" />
<path d="M102.5505 3.2354
L102.6110 3.3563
" />
<path d="M102.6110 3.3563
L102.6110 3.6587
" />
<path d="M102.6110 3.6587
L102.5505 3.7797
" />
<path d="M102.5505 3.7797
L102.4900 3.8402
" />
<path d="M102.4900 3.8402
L102.3691 3.9006
" />
<path d="M102.3691 3.9006
L102.0062 3.9006
" />
<path d="M102.0062 3.9006
L101.8853 3.8402
" />
<path d="M101.8853 3.8402
L101.8248 3.7797
" />
<path d="M103.7600 2.6306
L103.1552 2.6306
" />
<path d="M103.1552 2.6306
L103.0948 3.2354
" />
<path d="M103.0948 3.2354
L103.1552 3.1749
" />
<path d="M103.1552 3.1749
L103.2762 3.1144
" />
<path d="M103.2762 3.1144
L103.5786 3.1144
" />
<path d="M103.5786 3.1144
L103.6995 3.1749
" />
<path d="M103.6995 3.1749
L103.7600 3.2354
" />
<path d="M103.7600 3.2354
L103.8205 3.3563
" />
<path d="M103.8205 3.3563
L103.8205 3.6587
" />
<path d="M103.8205 3.6587
L103.7600 3.7797
" />
<path d="M103.7600 3.7797
L103.6995 3.8402
" />
<path d="M103.6995 3.8402
L103.5786 3.9006
" />
<path d="M103.5786 3.9006
L103.2762 3.9006
" />
<path d="M103.2762 3.9006
L103.1552 3.8402
" />
<path d="M103.1552 3.8402
L103.0948 3.7797
" />
<path d="M104.9695 2.6306
L104.3647 2.6306
" />
<path d="M104.3647 2.6306
L104.3043 3.2354
" />
<path d="M104.3043 3.2354
L104.3647 3.1749
" />
<path d="M104.3647 3.1749
L104.4857 3.1144
" />
<path d="M104.4857 3.1144
L104.7881 3.1144
" />
<path d="M104.7881 3.1144
L104.9090 3.1749
" />
<path d="M104.9090 3.1749
L104.9695 3.2354
" />
<path d="M104.9695 3.2354
L105.0300 3.3563
" />
<path d="M105.0300 3.3563
L105.0300 3.6587
" />
<path d="M105.0300 3.6587
L104.9695 3.7797
" />
<path d="M104.9695 3.7797
L104.9090 3.8402
" />
<path d="M104.9090 3.8402
L104.7881 3.9006
" />
<path d="M104.7881 3.9006
L104.4857 3.9006
" />
<path d="M104.4857 3.9006
L104.3647 3.8402
" />
<path d="M104.3647 3.8402
L104.3043 3.7797
" />
<path d="M106.0580 3.8402
L105.9371 3.9006
" />
<path d="M105.9371 3.9006
L105.6952 3.9006
" />
<path d="M105.6952 3.9006
L105.5742 3.8402
" />
<path d="M105.5742 3.8402
L105.5138 3.7192
" />
<path d="M105.5138 3.7192
L105.5138 3.2354
" />
<path d="M105.5138 3.2354
L105.5742 3.1144
" />
<path d="M105.5742 3.1144
L105.6952 3.0540
" />
<path d="M105.6952 3.0540
L105.9371 3.0540
" />
<path d="M105.9371 3.0540
L106.0580 3.1144
" />
<path d="M106.0580 3.1144
L106.1185 3.2354
" />
<path d="M106.1185 3.2354
L106.1185 3.3563
" />
<path d="M106.1185 3.3563
L105.5138 3.4773
" />
<path d="M106.8443 3.1749
L106.7233 3.1144
" />
<path d="M106.7233 3.1144
L106.6628 3.0540
" />
<path d="M106.6628 3.0540
L106.6024 2.9330
" />
<path d="M106.6024 2.9330
L106.6024 2.8725
" />
<path d="M106.6024 2.8725
L106.6628 2.7516
" />
<path d="M106.6628 2.7516
L106.7233 2.6911
" />
<path d="M106.7233 2.6911
L106.8443 2.6306
" />
<path d="M106.8443 2.6306
L107.0862 2.6306
" />
<path d="M107.0862 2.6306
L107.2071 2.6911
" />
<path d="M107.2071 2.6911
L107.2676 2.7516
" />
<path d="M107.2676 2.7516
L107.3281 2.8725
" />
<path d="M107.3281 2.8725
L107.3281 2.9330
" />
<path d="M107.3281 2.9330
L107.2676 3.0540
" />
<path d="M107.2676 3.0540
L107.2071 3.1144
" />
<path d="M107.2071 3.1144
L107.0862 3.1749
" />
<path d="M107.0862 3.1749
L106.8443 3.1749
" />
<path d="M106.8443 3.1749
L106.7233 3.2354
" />
<path d="M106.7233 3.2354
L106.6628 3.2959
" />
<path d="M106.6628 3.2959
L106.6024 3.4168
" />
<path d="M106.6024 3.4168
L106.6024 3.6587
" />
<path d="M106.6024 3.6587
L106.6628 3.7797
" />
<path d="M106.6628 3.7797
L106.7233 3.8402
" />
<path d="M106.7233 3.8402
L106.8443 3.9006
" />
<path d="M106.8443 3.9006
L107.0862 3.9006
" />
<path d="M107.0862 3.9006
L107.2071 3.8402
" />
<path d="M107.2071 3.8402
L107.2676 3.7797
" />
<path d="M107.2676 3.7797
L107.3281 3.6587
" />
<path d="M107.3281 3.6587
L107.3281 3.4168
" />
<path d="M107.3281 3.4168
L107.2676 3.2959
" />
<path d="M107.2676 3.2959
L107.2071 3.2354
" />
<path d="M107.2071 3.2354
L107.0862 3.1749
" />
<path d="M108.3561 3.8402
L108.2352 3.9006
" />
<path d="M108.2352 3.9006
L107.9933 3.9006
" />
<path d="M107.9933 3.9006
L107.8723 3.8402
" />
<path d="M107.8723 3.8402
L107.8119 3.7192
" />
<path d="M107.8119 3.7192
L107.8119 3.2354
" />
<path d="M107.8119 3.2354
L107.8723 3.1144
" />
<path d="M107.8723 3.1144
L107.9933 3.0540
" />
<path d="M107.9933 3.0540
L108.2352 3.0540
" />
<path d="M108.2352 3.0540
L108.3561 3.1144
" />
<path d="M108.3561 3.1144
L108.4166 3.2354
" />
<path d="M108.4166 3.2354
L108.4166 3.3563
" />
<path d="M108.4166 3.3563
L107.8119 3.4773
" />
<path d="M108.8400 2.6306
L109.6866 2.6306
" />
<path d="M109.6866 2.6306
L109.1424 3.9006
" />
<path d="M110.7147 3.9006
L110.7147 3.2354
" />
<path d="M110.7147 3.2354
L110.6542 3.1144
" />
<path d="M110.6542 3.1144
L110.5333 3.0540
" />
<path d="M110.5333 3.0540
L110.2914 3.0540
" />
<path d="M110.2914 3.0540
L110.1704 3.1144
" />
<path d="M110.7147 3.8402
L110.5938 3.9006
" />
<path d="M110.5938 3.9006
L110.2914 3.9006
" />
<path d="M110.2914 3.9006
L110.1704 3.8402
" />
<path d="M110.1704 3.8402
L110.1100 3.7192
" />
<path d="M110.1100 3.7192
L110.1100 3.5982
" />
<path d="M110.1100 3.5982
L110.1704 3.4773
" />
<path d="M110.1704 3.4773
L110.2914 3.4168
" />
<path d="M110.2914 3.4168
L110.5938 3.4168
" />
<path d="M110.5938 3.4168
L110.7147 3.3563
" />
<path d="M111.3194 3.9006
L111.3194 2.6306
" />
<path d="M111.3194 3.1144
L111.4404 3.0540
" />
<path d="M111.4404 3.0540
L111.6823 3.0540
" />
<path d="M111.6823 3.0540
L111.8032 3.1144
" />
<path d="M111.8032 3.1144
L111.8637 3.1749
" />
<path d="M111.8637 3.1749
L111.9242 3.2959
" />
<path d="M111.9242 3.2959
L111.9242 3.6587
" />
<path d="M111.9242 3.6587
L111.8637 3.7797
" />
<path d="M111.8637 3.7797
L111.8032 3.8402
" />
<path d="M111.8032 3.8402
L111.6823 3.9006
" />
<path d="M111.6823 3.9006
L111.4404 3.9006
" />
<path d="M111.4404 3.9006
L111.3194 3.8402
" />
<path d="M113.1337 3.9006
L112.4080 3.9006
" />
<path d="M112.7708 3.9006
L112.7708 2.6306
" />
<path d="M112.7708 2.6306
L112.6499 2.8121
" />
<path d="M112.6499 2.8121
L112.5289 2.9330
" />
<path d="M112.5289 2.9330
L112.4080 2.9935
" />
<path d="M114.2222 3.9006
L114.2222 3.2354
" />
<path d="M114.2222 3.2354
L114.1617 3.1144
" />
<path d="M114.1617 3.1144
L114.0408 3.0540
" />
<path d="M114.0408 3.0540
L113.7989 3.0540
" />
<path d="M113.7989 3.0540
L113.6779 3.1144
" />
<path d="M114.2222 3.8402
L114.1013 3.9006
" />
<path d="M114.1013 3.9006
L113.7989 3.9006
" />
<path d="M113.7989 3.9006
L113.6779 3.8402
" />
<path d="M113.6779 3.8402
L113.6175 3.7192
" />
<path d="M113.6175 3.7192
L113.6175 3.5982
" />
<path d="M113.6175 3.5982
L113.6779 3.4773
" />
<path d="M113.6779 3.4773
L113.7989 3.4168
" />
<path d="M113.7989 3.4168
L114.1013 3.4168
" />
<path d="M114.1013 3.4168
L114.2222 3.3563
" />
<path d="M114.7060 2.6306
L115.4922 2.6306
" />
<path d="M115.4922 2.6306
L115.0688 3.1144
" />
<path d="M115.0688 3.1144
L115.2503 3.1144
" />
<path d="M115.2503 3.1144
L115.3712 3.1749
" />
<path d="M115.3712 3.1749
L115.4317 3.2354
" />
<path d="M115.4317 3.2354
L115.4922 3.3563
" />
<path d="M115.4922 3.3563
L115.4922 3.6587
" />
<path d="M115.4922 3.6587
L115.4317 3.7797
" />
<path d="M115.4317 3.7797
L115.3712 3.8402
" />
<path d="M115.3712 3.8402
L115.2503 3.9006
" />
<path d="M115.2503 3.9006
L114.8874 3.9006
" />
<path d="M114.8874 3.9006
L114.7665 3.8402
" />
<path d="M114.7665 3.8402
L114.7060 3.7797
" />
<path d="M116.5807 3.9006
L116.5807 2.6306
" />
<path d="M116.5807 3.8402
L116.4598 3.9006
" />
<path d="M116.4598 3.9006
L116.2179 3.9006
" />
<path d="M116.2179 3.9006
L116.0969 3.8402
" />
<path d="M116.0969 3.8402
L116.0364 3.7797
" />
<path d="M116.0364 3.7797
L115.9760 3.6587
" />
<path d="M115.9760 3.6587
L115.9760 3.2959
" />
<path d="M115.9760 3.2959
L116.0364 3.1749
" />
<path d="M116.0364 3.1749
L116.0969 3.1144
" />
<path d="M116.0969 3.1144
L116.2179 3.0540
" />
<path d="M116.2179 3.0540
L116.4598 3.0540
" />
<path d="M116.4598 3.0540
L116.5807 3.1144
" />
</g></g> 
</svg>
