<?xml version="1.0" standalone="no"?>
 <!DOCTYPE svg PUBLIC "-//W3C//DTD SVG 1.1//EN" 
 "http://www.w3.org/Graphics/SVG/1.1/DTD/svg11.dtd"> 
<svg
  xmlns:svg="http://www.w3.org/2000/svg"
  xmlns="http://www.w3.org/2000/svg"
  xmlns:xlink="http://www.w3.org/1999/xlink"
  version="1.1"
  width="162.2552mm" height="7.7978mm" viewBox="0.0000 0.0000 162.2552 7.7978">
<title>SVG Image created as working.svg date 2023/08/31 12:56:08 </title>
  <desc>Image generated by Eeschema-SVG </desc>
<g style="fill:#000000; fill-opacity:1.0000;stroke:#000000; stroke-opacity:1.0000;
stroke-linecap:round; stroke-linejoin:round;"
 transform="translate(0 0) scale(1 1)">
</g>
<g style="fill:#840000; fill-opacity:0.0; 
stroke:#840000; stroke-width:0.0000; stroke-opacity:1; 
stroke-linecap:round; stroke-linejoin:round;">
</g>
<g style="fill:#840084; fill-opacity:0.0; 
stroke:#840084; stroke-width:0.0000; stroke-opacity:1; 
stroke-linecap:round; stroke-linejoin:round;">
</g>
<g style="fill:#840000; fill-opacity:0.0; 
stroke:#840000; stroke-width:0.0000; stroke-opacity:1; 
stroke-linecap:round; stroke-linejoin:round;">
</g>
<g style="fill:#840084; fill-opacity:0.0; 
stroke:#840084; stroke-width:0.0000; stroke-opacity:1; 
stroke-linecap:round; stroke-linejoin:round;">
</g>
<g style="fill:#006464; fill-opacity:0.0; 
stroke:#006464; stroke-width:0.0000; stroke-opacity:1; 
stroke-linecap:round; stroke-linejoin:round;">
</g>
<g style="fill:#006464; fill-opacity:0.0; 
stroke:#006464; stroke-width:0.1588; stroke-opacity:1; 
stroke-linecap:round; stroke-linejoin:round;">
<text x="59.7157" y="2.3054"
textLength="2.6415" font-size="1.6933" lengthAdjust="spacingAndGlyphs"
text-anchor="middle" opacity="0">Q?</text>
<g class="stroked-text"><desc>Q?</desc>
<path d="M59.6552 2.3706
L59.5342 2.3101
" />
<path d="M59.5342 2.3101
L59.4133 2.1892
" />
<path d="M59.4133 2.1892
L59.2319 2.0077
" />
<path d="M59.2319 2.0077
L59.1109 1.9472
" />
<path d="M59.1109 1.9472
L58.9900 1.9472
" />
<path d="M59.0504 2.2496
L58.9295 2.1892
" />
<path d="M58.9295 2.1892
L58.8085 2.0682
" />
<path d="M58.8085 2.0682
L58.7481 1.8263
" />
<path d="M58.7481 1.8263
L58.7481 1.4030
" />
<path d="M58.7481 1.4030
L58.8085 1.1611
" />
<path d="M58.8085 1.1611
L58.9295 1.0401
" />
<path d="M58.9295 1.0401
L59.0504 0.9796
" />
<path d="M59.0504 0.9796
L59.2923 0.9796
" />
<path d="M59.2923 0.9796
L59.4133 1.0401
" />
<path d="M59.4133 1.0401
L59.5342 1.1611
" />
<path d="M59.5342 1.1611
L59.5947 1.4030
" />
<path d="M59.5947 1.4030
L59.5947 1.8263
" />
<path d="M59.5947 1.8263
L59.5342 2.0682
" />
<path d="M59.5342 2.0682
L59.4133 2.1892
" />
<path d="M59.4133 2.1892
L59.2923 2.2496
" />
<path d="M59.2923 2.2496
L59.0504 2.2496
" />
<path d="M60.3205 2.1287
L60.3809 2.1892
" />
<path d="M60.3809 2.1892
L60.3205 2.2496
" />
<path d="M60.3205 2.2496
L60.2600 2.1892
" />
<path d="M60.2600 2.1892
L60.3205 2.1287
" />
<path d="M60.3205 2.1287
L60.3205 2.2496
" />
<path d="M60.0786 1.0401
L60.1995 0.9796
" />
<path d="M60.1995 0.9796
L60.5019 0.9796
" />
<path d="M60.5019 0.9796
L60.6228 1.0401
" />
<path d="M60.6228 1.0401
L60.6833 1.1611
" />
<path d="M60.6833 1.1611
L60.6833 1.2820
" />
<path d="M60.6833 1.2820
L60.6228 1.4030
" />
<path d="M60.6228 1.4030
L60.5624 1.4634
" />
<path d="M60.5624 1.4634
L60.4414 1.5239
" />
<path d="M60.4414 1.5239
L60.3809 1.5844
" />
<path d="M60.3809 1.5844
L60.3205 1.7053
" />
<path d="M60.3205 1.7053
L60.3205 1.7658
" />
</g><text x="63.3745" y="4.2104"
textLength="9.9591" font-size="1.6933" lengthAdjust="spacingAndGlyphs"
text-anchor="middle" opacity="0">IRFI4212H</text>
<g class="stroked-text"><desc>IRFI4212H</desc>
<path d="M58.8085 4.1546
L58.8085 2.8846
" />
<path d="M60.1390 4.1546
L59.7157 3.5499
" />
<path d="M59.4133 4.1546
L59.4133 2.8846
" />
<path d="M59.4133 2.8846
L59.8971 2.8846
" />
<path d="M59.8971 2.8846
L60.0181 2.9451
" />
<path d="M60.0181 2.9451
L60.0786 3.0056
" />
<path d="M60.0786 3.0056
L60.1390 3.1265
" />
<path d="M60.1390 3.1265
L60.1390 3.3080
" />
<path d="M60.1390 3.3080
L60.0786 3.4289
" />
<path d="M60.0786 3.4289
L60.0181 3.4894
" />
<path d="M60.0181 3.4894
L59.8971 3.5499
" />
<path d="M59.8971 3.5499
L59.4133 3.5499
" />
<path d="M61.1067 3.4894
L60.6833 3.4894
" />
<path d="M60.6833 4.1546
L60.6833 2.8846
" />
<path d="M60.6833 2.8846
L61.2881 2.8846
" />
<path d="M61.7719 4.1546
L61.7719 2.8846
" />
<path d="M62.9210 3.3080
L62.9210 4.1546
" />
<path d="M62.6186 2.8242
L62.3163 3.7313
" />
<path d="M62.3163 3.7313
L63.1024 3.7313
" />
<path d="M63.5258 3.0056
L63.5862 2.9451
" />
<path d="M63.5862 2.9451
L63.7072 2.8846
" />
<path d="M63.7072 2.8846
L64.0096 2.8846
" />
<path d="M64.0096 2.8846
L64.1305 2.9451
" />
<path d="M64.1305 2.9451
L64.1910 3.0056
" />
<path d="M64.1910 3.0056
L64.2515 3.1265
" />
<path d="M64.2515 3.1265
L64.2515 3.2475
" />
<path d="M64.2515 3.2475
L64.1910 3.4289
" />
<path d="M64.1910 3.4289
L63.4653 4.1546
" />
<path d="M63.4653 4.1546
L64.2515 4.1546
" />
<path d="M65.4610 4.1546
L64.7353 4.1546
" />
<path d="M65.0981 4.1546
L65.0981 2.8846
" />
<path d="M65.0981 2.8846
L64.9772 3.0661
" />
<path d="M64.9772 3.0661
L64.8562 3.1870
" />
<path d="M64.8562 3.1870
L64.7353 3.2475
" />
<path d="M65.9448 3.0056
L66.0052 2.9451
" />
<path d="M66.0052 2.9451
L66.1262 2.8846
" />
<path d="M66.1262 2.8846
L66.4286 2.8846
" />
<path d="M66.4286 2.8846
L66.5495 2.9451
" />
<path d="M66.5495 2.9451
L66.6100 3.0056
" />
<path d="M66.6100 3.0056
L66.6705 3.1265
" />
<path d="M66.6705 3.1265
L66.6705 3.2475
" />
<path d="M66.6705 3.2475
L66.6100 3.4289
" />
<path d="M66.6100 3.4289
L65.8843 4.1546
" />
<path d="M65.8843 4.1546
L66.6705 4.1546
" />
<path d="M67.2147 4.1546
L67.2147 2.8846
" />
<path d="M67.2147 3.4894
L67.9404 3.4894
" />
<path d="M67.9404 4.1546
L67.9404 2.8846
" />
</g></g>
<g style="fill:#840084; fill-opacity:0.0; 
stroke:#840084; stroke-width:0.1588; stroke-opacity:1; 
stroke-linecap:round; stroke-linejoin:round;">
<text x="53.3944" y="6.7504"
textLength="79.7479" font-size="1.6933" lengthAdjust="spacingAndGlyphs"
text-anchor="middle" opacity="0">Package_TO_SOT_THT:TO-220F-5_P3.4x2.06mm_StaggerEven_Lead1.86mm_Vertical</text>
<g class="stroked-text"><desc>Package_TO_SOT_THT:TO-220F-5_P3.4x2.06mm_StaggerEven_Lead1.86mm_Vertical</desc>
<path d="M13.9265 6.6946
L14.0852 5.4246
" />
<path d="M14.0852 5.4246
L14.5690 5.4246
" />
<path d="M14.5690 5.4246
L14.6824 5.4851
" />
<path d="M14.6824 5.4851
L14.7353 5.5456
" />
<path d="M14.7353 5.5456
L14.7807 5.6665
" />
<path d="M14.7807 5.6665
L14.7580 5.8480
" />
<path d="M14.7580 5.8480
L14.6824 5.9689
" />
<path d="M14.6824 5.9689
L14.6144 6.0294
" />
<path d="M14.6144 6.0294
L14.4859 6.0899
" />
<path d="M14.4859 6.0899
L14.0021 6.0899
" />
<path d="M15.7408 6.6946
L15.8239 6.0294
" />
<path d="M15.8239 6.0294
L15.7786 5.9084
" />
<path d="M15.7786 5.9084
L15.6652 5.8480
" />
<path d="M15.6652 5.8480
L15.4233 5.8480
" />
<path d="M15.4233 5.8480
L15.2947 5.9084
" />
<path d="M15.7483 6.6342
L15.6198 6.6946
" />
<path d="M15.6198 6.6946
L15.3174 6.6946
" />
<path d="M15.3174 6.6946
L15.2040 6.6342
" />
<path d="M15.2040 6.6342
L15.1587 6.5132
" />
<path d="M15.1587 6.5132
L15.1738 6.3922
" />
<path d="M15.1738 6.3922
L15.2494 6.2713
" />
<path d="M15.2494 6.2713
L15.3779 6.2108
" />
<path d="M15.3779 6.2108
L15.6803 6.2108
" />
<path d="M15.6803 6.2108
L15.8088 6.1503
" />
<path d="M16.8973 6.6342
L16.7688 6.6946
" />
<path d="M16.7688 6.6946
L16.5269 6.6946
" />
<path d="M16.5269 6.6946
L16.4135 6.6342
" />
<path d="M16.4135 6.6342
L16.3606 6.5737
" />
<path d="M16.3606 6.5737
L16.3152 6.4527
" />
<path d="M16.3152 6.4527
L16.3606 6.0899
" />
<path d="M16.3606 6.0899
L16.4362 5.9689
" />
<path d="M16.4362 5.9689
L16.5042 5.9084
" />
<path d="M16.5042 5.9084
L16.6327 5.8480
" />
<path d="M16.6327 5.8480
L16.8746 5.8480
" />
<path d="M16.8746 5.8480
L16.9880 5.9084
" />
<path d="M17.4341 6.6946
L17.5928 5.4246
" />
<path d="M17.6155 6.2108
L17.9179 6.6946
" />
<path d="M18.0237 5.8480
L17.4794 6.3318
" />
<path d="M19.0065 6.6946
L19.0896 6.0294
" />
<path d="M19.0896 6.0294
L19.0443 5.9084
" />
<path d="M19.0443 5.9084
L18.9309 5.8480
" />
<path d="M18.9309 5.8480
L18.6890 5.8480
" />
<path d="M18.6890 5.8480
L18.5604 5.9084
" />
<path d="M19.0140 6.6342
L18.8855 6.6946
" />
<path d="M18.8855 6.6946
L18.5831 6.6946
" />
<path d="M18.5831 6.6946
L18.4697 6.6342
" />
<path d="M18.4697 6.6342
L18.4244 6.5132
" />
<path d="M18.4244 6.5132
L18.4395 6.3922
" />
<path d="M18.4395 6.3922
L18.5151 6.2713
" />
<path d="M18.5151 6.2713
L18.6436 6.2108
" />
<path d="M18.6436 6.2108
L18.9460 6.2108
" />
<path d="M18.9460 6.2108
L19.0745 6.1503
" />
<path d="M20.2613 5.8480
L20.1328 6.8761
" />
<path d="M20.1328 6.8761
L20.0572 6.9970
" />
<path d="M20.0572 6.9970
L19.9891 7.0575
" />
<path d="M19.9891 7.0575
L19.8606 7.1180
" />
<path d="M19.8606 7.1180
L19.6792 7.1180
" />
<path d="M19.6792 7.1180
L19.5658 7.0575
" />
<path d="M20.1630 6.6342
L20.0345 6.6946
" />
<path d="M20.0345 6.6946
L19.7926 6.6946
" />
<path d="M19.7926 6.6946
L19.6792 6.6342
" />
<path d="M19.6792 6.6342
L19.6263 6.5737
" />
<path d="M19.6263 6.5737
L19.5809 6.4527
" />
<path d="M19.5809 6.4527
L19.6263 6.0899
" />
<path d="M19.6263 6.0899
L19.7019 5.9689
" />
<path d="M19.7019 5.9689
L19.7699 5.9084
" />
<path d="M19.7699 5.9084
L19.8984 5.8480
" />
<path d="M19.8984 5.8480
L20.1403 5.8480
" />
<path d="M20.1403 5.8480
L20.2537 5.9084
" />
<path d="M21.2515 6.6342
L21.1230 6.6946
" />
<path d="M21.1230 6.6946
L20.8811 6.6946
" />
<path d="M20.8811 6.6946
L20.7677 6.6342
" />
<path d="M20.7677 6.6342
L20.7224 6.5132
" />
<path d="M20.7224 6.5132
L20.7829 6.0294
" />
<path d="M20.7829 6.0294
L20.8584 5.9084
" />
<path d="M20.8584 5.9084
L20.9870 5.8480
" />
<path d="M20.9870 5.8480
L21.2289 5.8480
" />
<path d="M21.2289 5.8480
L21.3423 5.9084
" />
<path d="M21.3423 5.9084
L21.3876 6.0294
" />
<path d="M21.3876 6.0294
L21.3725 6.1503
" />
<path d="M21.3725 6.1503
L20.7526 6.2713
" />
<path d="M21.5313 6.8156
L22.4989 6.8156
" />
<path d="M22.7937 5.4246
L23.5194 5.4246
" />
<path d="M22.9978 6.6946
L23.1566 5.4246
" />
<path d="M24.1846 5.4246
L24.4265 5.4246
" />
<path d="M24.4265 5.4246
L24.5399 5.4851
" />
<path d="M24.5399 5.4851
L24.6458 5.6061
" />
<path d="M24.6458 5.6061
L24.6760 5.8480
" />
<path d="M24.6760 5.8480
L24.6231 6.2713
" />
<path d="M24.6231 6.2713
L24.5324 6.5132
" />
<path d="M24.5324 6.5132
L24.3963 6.6342
" />
<path d="M24.3963 6.6342
L24.2678 6.6946
" />
<path d="M24.2678 6.6946
L24.0259 6.6946
" />
<path d="M24.0259 6.6946
L23.9125 6.6342
" />
<path d="M23.9125 6.6342
L23.8067 6.5132
" />
<path d="M23.8067 6.5132
L23.7764 6.2713
" />
<path d="M23.7764 6.2713
L23.8293 5.8480
" />
<path d="M23.8293 5.8480
L23.9200 5.6061
" />
<path d="M23.9200 5.6061
L24.0561 5.4851
" />
<path d="M24.0561 5.4851
L24.1846 5.4246
" />
<path d="M24.7970 6.8156
L25.7646 6.8156
" />
<path d="M26.0292 6.6342
L26.2030 6.6946
" />
<path d="M26.2030 6.6946
L26.5054 6.6946
" />
<path d="M26.5054 6.6946
L26.6339 6.6342
" />
<path d="M26.6339 6.6342
L26.7020 6.5737
" />
<path d="M26.7020 6.5737
L26.7775 6.4527
" />
<path d="M26.7775 6.4527
L26.7927 6.3318
" />
<path d="M26.7927 6.3318
L26.7473 6.2108
" />
<path d="M26.7473 6.2108
L26.6944 6.1503
" />
<path d="M26.6944 6.1503
L26.5810 6.0899
" />
<path d="M26.5810 6.0899
L26.3467 6.0294
" />
<path d="M26.3467 6.0294
L26.2333 5.9689
" />
<path d="M26.2333 5.9689
L26.1803 5.9084
" />
<path d="M26.1803 5.9084
L26.1350 5.7875
" />
<path d="M26.1350 5.7875
L26.1501 5.6665
" />
<path d="M26.1501 5.6665
L26.2257 5.5456
" />
<path d="M26.2257 5.5456
L26.2937 5.4851
" />
<path d="M26.2937 5.4851
L26.4223 5.4246
" />
<path d="M26.4223 5.4246
L26.7246 5.4246
" />
<path d="M26.7246 5.4246
L26.8985 5.4851
" />
<path d="M27.6922 5.4246
L27.9341 5.4246
" />
<path d="M27.9341 5.4246
L28.0475 5.4851
" />
<path d="M28.0475 5.4851
L28.1534 5.6061
" />
<path d="M28.1534 5.6061
L28.1836 5.8480
" />
<path d="M28.1836 5.8480
L28.1307 6.2713
" />
<path d="M28.1307 6.2713
L28.0400 6.5132
" />
<path d="M28.0400 6.5132
L27.9039 6.6342
" />
<path d="M27.9039 6.6342
L27.7754 6.6946
" />
<path d="M27.7754 6.6946
L27.5335 6.6946
" />
<path d="M27.5335 6.6946
L27.4201 6.6342
" />
<path d="M27.4201 6.6342
L27.3143 6.5132
" />
<path d="M27.3143 6.5132
L27.2840 6.2713
" />
<path d="M27.2840 6.2713
L27.3369 5.8480
" />
<path d="M27.3369 5.8480
L27.4276 5.6061
" />
<path d="M27.4276 5.6061
L27.5637 5.4851
" />
<path d="M27.5637 5.4851
L27.6922 5.4246
" />
<path d="M28.5994 5.4246
L29.3251 5.4246
" />
<path d="M28.8035 6.6946
L28.9623 5.4246
" />
<path d="M29.2722 6.8156
L30.2398 6.8156
" />
<path d="M30.5346 5.4246
L31.2603 5.4246
" />
<path d="M30.7387 6.6946
L30.8975 5.4246
" />
<path d="M31.5249 6.6946
L31.6836 5.4246
" />
<path d="M31.6080 6.0294
L32.3337 6.0294
" />
<path d="M32.2506 6.6946
L32.4093 5.4246
" />
<path d="M32.8327 5.4246
L33.5584 5.4246
" />
<path d="M33.0368 6.6946
L33.1956 5.4246
" />
<path d="M33.8381 6.5737
L33.8910 6.6342
" />
<path d="M33.8910 6.6342
L33.8230 6.6946
" />
<path d="M33.8230 6.6946
L33.7701 6.6342
" />
<path d="M33.7701 6.6342
L33.8381 6.5737
" />
<path d="M33.8381 6.5737
L33.8230 6.6946
" />
<path d="M33.9212 5.9084
L33.9742 5.9689
" />
<path d="M33.9742 5.9689
L33.9061 6.0294
" />
<path d="M33.9061 6.0294
L33.8532 5.9689
" />
<path d="M33.8532 5.9689
L33.9212 5.9084
" />
<path d="M33.9212 5.9084
L33.9061 6.0294
" />
<path d="M34.4051 5.4246
L35.1308 5.4246
" />
<path d="M34.6092 6.6946
L34.7680 5.4246
" />
<path d="M35.7960 5.4246
L36.0379 5.4246
" />
<path d="M36.0379 5.4246
L36.1513 5.4851
" />
<path d="M36.1513 5.4851
L36.2572 5.6061
" />
<path d="M36.2572 5.6061
L36.2874 5.8480
" />
<path d="M36.2874 5.8480
L36.2345 6.2713
" />
<path d="M36.2345 6.2713
L36.1438 6.5132
" />
<path d="M36.1438 6.5132
L36.0077 6.6342
" />
<path d="M36.0077 6.6342
L35.8792 6.6946
" />
<path d="M35.8792 6.6946
L35.6373 6.6946
" />
<path d="M35.6373 6.6946
L35.5239 6.6342
" />
<path d="M35.5239 6.6342
L35.4181 6.5132
" />
<path d="M35.4181 6.5132
L35.3878 6.2713
" />
<path d="M35.3878 6.2713
L35.4407 5.8480
" />
<path d="M35.4407 5.8480
L35.5314 5.6061
" />
<path d="M35.5314 5.6061
L35.6675 5.4851
" />
<path d="M35.6675 5.4851
L35.7960 5.4246
" />
<path d="M36.7863 6.2108
L37.7540 6.2108
" />
<path d="M38.3814 5.5456
L38.4495 5.4851
" />
<path d="M38.4495 5.4851
L38.5780 5.4246
" />
<path d="M38.5780 5.4246
L38.8804 5.4246
" />
<path d="M38.8804 5.4246
L38.9937 5.4851
" />
<path d="M38.9937 5.4851
L39.0467 5.5456
" />
<path d="M39.0467 5.5456
L39.0920 5.6665
" />
<path d="M39.0920 5.6665
L39.0769 5.7875
" />
<path d="M39.0769 5.7875
L38.9937 5.9689
" />
<path d="M38.9937 5.9689
L38.1773 6.6946
" />
<path d="M38.1773 6.6946
L38.9635 6.6946
" />
<path d="M39.5909 5.5456
L39.6590 5.4851
" />
<path d="M39.6590 5.4851
L39.7875 5.4246
" />
<path d="M39.7875 5.4246
L40.0899 5.4246
" />
<path d="M40.0899 5.4246
L40.2032 5.4851
" />
<path d="M40.2032 5.4851
L40.2562 5.5456
" />
<path d="M40.2562 5.5456
L40.3015 5.6665
" />
<path d="M40.3015 5.6665
L40.2864 5.7875
" />
<path d="M40.2864 5.7875
L40.2032 5.9689
" />
<path d="M40.2032 5.9689
L39.3868 6.6946
" />
<path d="M39.3868 6.6946
L40.1730 6.6946
" />
<path d="M41.1179 5.4246
L41.2389 5.4246
" />
<path d="M41.2389 5.4246
L41.3523 5.4851
" />
<path d="M41.3523 5.4851
L41.4052 5.5456
" />
<path d="M41.4052 5.5456
L41.4505 5.6665
" />
<path d="M41.4505 5.6665
L41.4808 5.9084
" />
<path d="M41.4808 5.9084
L41.4430 6.2108
" />
<path d="M41.4430 6.2108
L41.3523 6.4527
" />
<path d="M41.3523 6.4527
L41.2767 6.5737
" />
<path d="M41.2767 6.5737
L41.2086 6.6342
" />
<path d="M41.2086 6.6342
L41.0801 6.6946
" />
<path d="M41.0801 6.6946
L40.9592 6.6946
" />
<path d="M40.9592 6.6946
L40.8458 6.6342
" />
<path d="M40.8458 6.6342
L40.7929 6.5737
" />
<path d="M40.7929 6.5737
L40.7475 6.4527
" />
<path d="M40.7475 6.4527
L40.7173 6.2108
" />
<path d="M40.7173 6.2108
L40.7551 5.9084
" />
<path d="M40.7551 5.9084
L40.8458 5.6665
" />
<path d="M40.8458 5.6665
L40.9214 5.5456
" />
<path d="M40.9214 5.5456
L40.9894 5.4851
" />
<path d="M40.9894 5.4851
L41.1179 5.4246
" />
<path d="M42.4333 6.0294
L42.0099 6.0294
" />
<path d="M41.9268 6.6946
L42.0855 5.4246
" />
<path d="M42.0855 5.4246
L42.6903 5.4246
" />
<path d="M43.0758 6.2108
L44.0435 6.2108
" />
<path d="M45.3513 5.4246
L44.7465 5.4246
" />
<path d="M44.7465 5.4246
L44.6105 6.0294
" />
<path d="M44.6105 6.0294
L44.6785 5.9689
" />
<path d="M44.6785 5.9689
L44.8070 5.9084
" />
<path d="M44.8070 5.9084
L45.1094 5.9084
" />
<path d="M45.1094 5.9084
L45.2228 5.9689
" />
<path d="M45.2228 5.9689
L45.2757 6.0294
" />
<path d="M45.2757 6.0294
L45.3210 6.1503
" />
<path d="M45.3210 6.1503
L45.2832 6.4527
" />
<path d="M45.2832 6.4527
L45.2077 6.5737
" />
<path d="M45.2077 6.5737
L45.1396 6.6342
" />
<path d="M45.1396 6.6342
L45.0111 6.6946
" />
<path d="M45.0111 6.6946
L44.7087 6.6946
" />
<path d="M44.7087 6.6946
L44.5953 6.6342
" />
<path d="M44.5953 6.6342
L44.5424 6.5737
" />
<path d="M45.4798 6.8156
L46.4474 6.8156
" />
<path d="M46.7649 6.6946
L46.9236 5.4246
" />
<path d="M46.9236 5.4246
L47.4074 5.4246
" />
<path d="M47.4074 5.4246
L47.5208 5.4851
" />
<path d="M47.5208 5.4851
L47.5737 5.5456
" />
<path d="M47.5737 5.5456
L47.6191 5.6665
" />
<path d="M47.6191 5.6665
L47.5964 5.8480
" />
<path d="M47.5964 5.8480
L47.5208 5.9689
" />
<path d="M47.5208 5.9689
L47.4528 6.0294
" />
<path d="M47.4528 6.0294
L47.3243 6.0899
" />
<path d="M47.3243 6.0899
L46.8405 6.0899
" />
<path d="M48.0727 5.4246
L48.8589 5.4246
" />
<path d="M48.8589 5.4246
L48.3751 5.9084
" />
<path d="M48.3751 5.9084
L48.5565 5.9084
" />
<path d="M48.5565 5.9084
L48.6699 5.9689
" />
<path d="M48.6699 5.9689
L48.7228 6.0294
" />
<path d="M48.7228 6.0294
L48.7681 6.1503
" />
<path d="M48.7681 6.1503
L48.7303 6.4527
" />
<path d="M48.7303 6.4527
L48.6548 6.5737
" />
<path d="M48.6548 6.5737
L48.5867 6.6342
" />
<path d="M48.5867 6.6342
L48.4582 6.6946
" />
<path d="M48.4582 6.6946
L48.0953 6.6946
" />
<path d="M48.0953 6.6946
L47.9820 6.6342
" />
<path d="M47.9820 6.6342
L47.9290 6.5737
" />
<path d="M49.2595 6.5737
L49.3124 6.6342
" />
<path d="M49.3124 6.6342
L49.2444 6.6946
" />
<path d="M49.2444 6.6946
L49.1915 6.6342
" />
<path d="M49.1915 6.6342
L49.2595 6.5737
" />
<path d="M49.2595 6.5737
L49.2444 6.6946
" />
<path d="M50.4993 5.8480
L50.3935 6.6946
" />
<path d="M50.2574 5.3642
L49.8416 6.2713
" />
<path d="M49.8416 6.2713
L50.6278 6.2713
" />
<path d="M50.9377 6.6946
L51.7088 5.8480
" />
<path d="M51.0436 5.8480
L51.6030 6.6946
" />
<path d="M52.1699 5.5456
L52.2380 5.4851
" />
<path d="M52.2380 5.4851
L52.3665 5.4246
" />
<path d="M52.3665 5.4246
L52.6689 5.4246
" />
<path d="M52.6689 5.4246
L52.7822 5.4851
" />
<path d="M52.7822 5.4851
L52.8352 5.5456
" />
<path d="M52.8352 5.5456
L52.8805 5.6665
" />
<path d="M52.8805 5.6665
L52.8654 5.7875
" />
<path d="M52.8654 5.7875
L52.7822 5.9689
" />
<path d="M52.7822 5.9689
L51.9658 6.6946
" />
<path d="M51.9658 6.6946
L52.7520 6.6946
" />
<path d="M53.3114 6.5737
L53.3643 6.6342
" />
<path d="M53.3643 6.6342
L53.2963 6.6946
" />
<path d="M53.2963 6.6946
L53.2434 6.6342
" />
<path d="M53.2434 6.6342
L53.3114 6.5737
" />
<path d="M53.3114 6.5737
L53.2963 6.6946
" />
<path d="M54.3017 5.4246
L54.4227 5.4246
" />
<path d="M54.4227 5.4246
L54.5361 5.4851
" />
<path d="M54.5361 5.4851
L54.5890 5.5456
" />
<path d="M54.5890 5.5456
L54.6343 5.6665
" />
<path d="M54.6343 5.6665
L54.6646 5.9084
" />
<path d="M54.6646 5.9084
L54.6268 6.2108
" />
<path d="M54.6268 6.2108
L54.5361 6.4527
" />
<path d="M54.5361 6.4527
L54.4605 6.5737
" />
<path d="M54.4605 6.5737
L54.3924 6.6342
" />
<path d="M54.3924 6.6342
L54.2639 6.6946
" />
<path d="M54.2639 6.6946
L54.1430 6.6946
" />
<path d="M54.1430 6.6946
L54.0296 6.6342
" />
<path d="M54.0296 6.6342
L53.9767 6.5737
" />
<path d="M53.9767 6.5737
L53.9313 6.4527
" />
<path d="M53.9313 6.4527
L53.9011 6.2108
" />
<path d="M53.9011 6.2108
L53.9389 5.9084
" />
<path d="M53.9389 5.9084
L54.0296 5.6665
" />
<path d="M54.0296 5.6665
L54.1052 5.5456
" />
<path d="M54.1052 5.5456
L54.1732 5.4851
" />
<path d="M54.1732 5.4851
L54.3017 5.4246
" />
<path d="M55.8136 5.4246
L55.5717 5.4246
" />
<path d="M55.5717 5.4246
L55.4432 5.4851
" />
<path d="M55.4432 5.4851
L55.3752 5.5456
" />
<path d="M55.3752 5.5456
L55.2315 5.7270
" />
<path d="M55.2315 5.7270
L55.1408 5.9689
" />
<path d="M55.1408 5.9689
L55.0803 6.4527
" />
<path d="M55.0803 6.4527
L55.1257 6.5737
" />
<path d="M55.1257 6.5737
L55.1786 6.6342
" />
<path d="M55.1786 6.6342
L55.2920 6.6946
" />
<path d="M55.2920 6.6946
L55.5339 6.6946
" />
<path d="M55.5339 6.6946
L55.6624 6.6342
" />
<path d="M55.6624 6.6342
L55.7305 6.5737
" />
<path d="M55.7305 6.5737
L55.8060 6.4527
" />
<path d="M55.8060 6.4527
L55.8438 6.1503
" />
<path d="M55.8438 6.1503
L55.7985 6.0294
" />
<path d="M55.7985 6.0294
L55.7456 5.9689
" />
<path d="M55.7456 5.9689
L55.6322 5.9084
" />
<path d="M55.6322 5.9084
L55.3903 5.9084
" />
<path d="M55.3903 5.9084
L55.2618 5.9689
" />
<path d="M55.2618 5.9689
L55.1937 6.0294
" />
<path d="M55.1937 6.0294
L55.1181 6.1503
" />
<path d="M56.3201 6.6946
L56.4259 5.8480
" />
<path d="M56.4108 5.9689
L56.4788 5.9084
" />
<path d="M56.4788 5.9084
L56.6073 5.8480
" />
<path d="M56.6073 5.8480
L56.7888 5.8480
" />
<path d="M56.7888 5.8480
L56.9022 5.9084
" />
<path d="M56.9022 5.9084
L56.9475 6.0294
" />
<path d="M56.9475 6.0294
L56.8644 6.6946
" />
<path d="M56.9475 6.0294
L57.0231 5.9084
" />
<path d="M57.0231 5.9084
L57.1516 5.8480
" />
<path d="M57.1516 5.8480
L57.3330 5.8480
" />
<path d="M57.3330 5.8480
L57.4464 5.9084
" />
<path d="M57.4464 5.9084
L57.4918 6.0294
" />
<path d="M57.4918 6.0294
L57.4086 6.6946
" />
<path d="M58.0134 6.6946
L58.1192 5.8480
" />
<path d="M58.1041 5.9689
L58.1721 5.9084
" />
<path d="M58.1721 5.9084
L58.3006 5.8480
" />
<path d="M58.3006 5.8480
L58.4821 5.8480
" />
<path d="M58.4821 5.8480
L58.5955 5.9084
" />
<path d="M58.5955 5.9084
L58.6408 6.0294
" />
<path d="M58.6408 6.0294
L58.5577 6.6946
" />
<path d="M58.6408 6.0294
L58.7164 5.9084
" />
<path d="M58.7164 5.9084
L58.8449 5.8480
" />
<path d="M58.8449 5.8480
L59.0263 5.8480
" />
<path d="M59.0263 5.8480
L59.1397 5.9084
" />
<path d="M59.1397 5.9084
L59.1851 6.0294
" />
<path d="M59.1851 6.0294
L59.1019 6.6946
" />
<path d="M59.3892 6.8156
L60.3568 6.8156
" />
<path d="M60.6214 6.6342
L60.7952 6.6946
" />
<path d="M60.7952 6.6946
L61.0976 6.6946
" />
<path d="M61.0976 6.6946
L61.2261 6.6342
" />
<path d="M61.2261 6.6342
L61.2942 6.5737
" />
<path d="M61.2942 6.5737
L61.3697 6.4527
" />
<path d="M61.3697 6.4527
L61.3849 6.3318
" />
<path d="M61.3849 6.3318
L61.3395 6.2108
" />
<path d="M61.3395 6.2108
L61.2866 6.1503
" />
<path d="M61.2866 6.1503
L61.1732 6.0899
" />
<path d="M61.1732 6.0899
L60.9389 6.0294
" />
<path d="M60.9389 6.0294
L60.8255 5.9689
" />
<path d="M60.8255 5.9689
L60.7725 5.9084
" />
<path d="M60.7725 5.9084
L60.7272 5.7875
" />
<path d="M60.7272 5.7875
L60.7423 5.6665
" />
<path d="M60.7423 5.6665
L60.8179 5.5456
" />
<path d="M60.8179 5.5456
L60.8859 5.4851
" />
<path d="M60.8859 5.4851
L61.0145 5.4246
" />
<path d="M61.0145 5.4246
L61.3168 5.4246
" />
<path d="M61.3168 5.4246
L61.4907 5.4851
" />
<path d="M61.8082 5.8480
L62.2920 5.8480
" />
<path d="M62.0425 5.4246
L61.9065 6.5132
" />
<path d="M61.9065 6.5132
L61.9518 6.6342
" />
<path d="M61.9518 6.6342
L62.0652 6.6946
" />
<path d="M62.0652 6.6946
L62.1862 6.6946
" />
<path d="M63.1538 6.6946
L63.2369 6.0294
" />
<path d="M63.2369 6.0294
L63.1916 5.9084
" />
<path d="M63.1916 5.9084
L63.0782 5.8480
" />
<path d="M63.0782 5.8480
L62.8363 5.8480
" />
<path d="M62.8363 5.8480
L62.7077 5.9084
" />
<path d="M63.1613 6.6342
L63.0328 6.6946
" />
<path d="M63.0328 6.6946
L62.7304 6.6946
" />
<path d="M62.7304 6.6946
L62.6170 6.6342
" />
<path d="M62.6170 6.6342
L62.5717 6.5132
" />
<path d="M62.5717 6.5132
L62.5868 6.3922
" />
<path d="M62.5868 6.3922
L62.6624 6.2713
" />
<path d="M62.6624 6.2713
L62.7909 6.2108
" />
<path d="M62.7909 6.2108
L63.0933 6.2108
" />
<path d="M63.0933 6.2108
L63.2218 6.1503
" />
<path d="M64.4086 5.8480
L64.2801 6.8761
" />
<path d="M64.2801 6.8761
L64.2045 6.9970
" />
<path d="M64.2045 6.9970
L64.1364 7.0575
" />
<path d="M64.1364 7.0575
L64.0079 7.1180
" />
<path d="M64.0079 7.1180
L63.8265 7.1180
" />
<path d="M63.8265 7.1180
L63.7131 7.0575
" />
<path d="M64.3103 6.6342
L64.1818 6.6946
" />
<path d="M64.1818 6.6946
L63.9399 6.6946
" />
<path d="M63.9399 6.6946
L63.8265 6.6342
" />
<path d="M63.8265 6.6342
L63.7736 6.5737
" />
<path d="M63.7736 6.5737
L63.7282 6.4527
" />
<path d="M63.7282 6.4527
L63.7736 6.0899
" />
<path d="M63.7736 6.0899
L63.8492 5.9689
" />
<path d="M63.8492 5.9689
L63.9172 5.9084
" />
<path d="M63.9172 5.9084
L64.0457 5.8480
" />
<path d="M64.0457 5.8480
L64.2876 5.8480
" />
<path d="M64.2876 5.8480
L64.4010 5.9084
" />
<path d="M65.5576 5.8480
L65.4291 6.8761
" />
<path d="M65.4291 6.8761
L65.3535 6.9970
" />
<path d="M65.3535 6.9970
L65.2854 7.0575
" />
<path d="M65.2854 7.0575
L65.1569 7.1180
" />
<path d="M65.1569 7.1180
L64.9755 7.1180
" />
<path d="M64.9755 7.1180
L64.8621 7.0575
" />
<path d="M65.4593 6.6342
L65.3308 6.6946
" />
<path d="M65.3308 6.6946
L65.0889 6.6946
" />
<path d="M65.0889 6.6946
L64.9755 6.6342
" />
<path d="M64.9755 6.6342
L64.9226 6.5737
" />
<path d="M64.9226 6.5737
L64.8772 6.4527
" />
<path d="M64.8772 6.4527
L64.9226 6.0899
" />
<path d="M64.9226 6.0899
L64.9982 5.9689
" />
<path d="M64.9982 5.9689
L65.0662 5.9084
" />
<path d="M65.0662 5.9084
L65.1947 5.8480
" />
<path d="M65.1947 5.8480
L65.4366 5.8480
" />
<path d="M65.4366 5.8480
L65.5500 5.9084
" />
<path d="M66.5478 6.6342
L66.4193 6.6946
" />
<path d="M66.4193 6.6946
L66.1774 6.6946
" />
<path d="M66.1774 6.6946
L66.0640 6.6342
" />
<path d="M66.0640 6.6342
L66.0187 6.5132
" />
<path d="M66.0187 6.5132
L66.0792 6.0294
" />
<path d="M66.0792 6.0294
L66.1547 5.9084
" />
<path d="M66.1547 5.9084
L66.2833 5.8480
" />
<path d="M66.2833 5.8480
L66.5252 5.8480
" />
<path d="M66.5252 5.8480
L66.6386 5.9084
" />
<path d="M66.6386 5.9084
L66.6839 6.0294
" />
<path d="M66.6839 6.0294
L66.6688 6.1503
" />
<path d="M66.6688 6.1503
L66.0489 6.2713
" />
<path d="M67.1451 6.6946
L67.2509 5.8480
" />
<path d="M67.2207 6.0899
L67.2963 5.9689
" />
<path d="M67.2963 5.9689
L67.3643 5.9084
" />
<path d="M67.3643 5.9084
L67.4928 5.8480
" />
<path d="M67.4928 5.8480
L67.6138 5.8480
" />
<path d="M68.0144 6.0294
L68.4378 6.0294
" />
<path d="M68.5360 6.6946
L67.9313 6.6946
" />
<path d="M67.9313 6.6946
L68.0900 5.4246
" />
<path d="M68.0900 5.4246
L68.6948 5.4246
" />
<path d="M69.0652 5.8480
L69.2617 6.6946
" />
<path d="M69.2617 6.6946
L69.6699 5.8480
" />
<path d="M70.5392 6.6342
L70.4107 6.6946
" />
<path d="M70.4107 6.6946
L70.1688 6.6946
" />
<path d="M70.1688 6.6946
L70.0554 6.6342
" />
<path d="M70.0554 6.6342
L70.0101 6.5132
" />
<path d="M70.0101 6.5132
L70.0706 6.0294
" />
<path d="M70.0706 6.0294
L70.1461 5.9084
" />
<path d="M70.1461 5.9084
L70.2747 5.8480
" />
<path d="M70.2747 5.8480
L70.5166 5.8480
" />
<path d="M70.5166 5.8480
L70.6300 5.9084
" />
<path d="M70.6300 5.9084
L70.6753 6.0294
" />
<path d="M70.6753 6.0294
L70.6602 6.1503
" />
<path d="M70.6602 6.1503
L70.0403 6.2713
" />
<path d="M71.2423 5.8480
L71.1365 6.6946
" />
<path d="M71.2272 5.9689
L71.2952 5.9084
" />
<path d="M71.2952 5.9084
L71.4237 5.8480
" />
<path d="M71.4237 5.8480
L71.6052 5.8480
" />
<path d="M71.6052 5.8480
L71.7186 5.9084
" />
<path d="M71.7186 5.9084
L71.7639 6.0294
" />
<path d="M71.7639 6.0294
L71.6808 6.6946
" />
<path d="M71.9680 6.8156
L72.9356 6.8156
" />
<path d="M73.8578 6.6946
L73.2531 6.6946
" />
<path d="M73.2531 6.6946
L73.4118 5.4246
" />
<path d="M74.7725 6.6342
L74.6440 6.6946
" />
<path d="M74.6440 6.6946
L74.4021 6.6946
" />
<path d="M74.4021 6.6946
L74.2887 6.6342
" />
<path d="M74.2887 6.6342
L74.2434 6.5132
" />
<path d="M74.2434 6.5132
L74.3039 6.0294
" />
<path d="M74.3039 6.0294
L74.3794 5.9084
" />
<path d="M74.3794 5.9084
L74.5080 5.8480
" />
<path d="M74.5080 5.8480
L74.7499 5.8480
" />
<path d="M74.7499 5.8480
L74.8633 5.9084
" />
<path d="M74.8633 5.9084
L74.9086 6.0294
" />
<path d="M74.9086 6.0294
L74.8935 6.1503
" />
<path d="M74.8935 6.1503
L74.2736 6.2713
" />
<path d="M75.9141 6.6946
L75.9972 6.0294
" />
<path d="M75.9972 6.0294
L75.9519 5.9084
" />
<path d="M75.9519 5.9084
L75.8385 5.8480
" />
<path d="M75.8385 5.8480
L75.5966 5.8480
" />
<path d="M75.5966 5.8480
L75.4680 5.9084
" />
<path d="M75.9216 6.6342
L75.7931 6.6946
" />
<path d="M75.7931 6.6946
L75.4907 6.6946
" />
<path d="M75.4907 6.6946
L75.3773 6.6342
" />
<path d="M75.3773 6.6342
L75.3320 6.5132
" />
<path d="M75.3320 6.5132
L75.3471 6.3922
" />
<path d="M75.3471 6.3922
L75.4227 6.2713
" />
<path d="M75.4227 6.2713
L75.5512 6.2108
" />
<path d="M75.5512 6.2108
L75.8536 6.2108
" />
<path d="M75.8536 6.2108
L75.9821 6.1503
" />
<path d="M77.0631 6.6946
L77.2218 5.4246
" />
<path d="M77.0706 6.6342
L76.9421 6.6946
" />
<path d="M76.9421 6.6946
L76.7002 6.6946
" />
<path d="M76.7002 6.6946
L76.5868 6.6342
" />
<path d="M76.5868 6.6342
L76.5339 6.5737
" />
<path d="M76.5339 6.5737
L76.4885 6.4527
" />
<path d="M76.4885 6.4527
L76.5339 6.0899
" />
<path d="M76.5339 6.0899
L76.6095 5.9689
" />
<path d="M76.6095 5.9689
L76.6775 5.9084
" />
<path d="M76.6775 5.9084
L76.8060 5.8480
" />
<path d="M76.8060 5.8480
L77.0479 5.8480
" />
<path d="M77.0479 5.8480
L77.1613 5.9084
" />
<path d="M78.3330 6.6946
L77.6073 6.6946
" />
<path d="M77.9702 6.6946
L78.1289 5.4246
" />
<path d="M78.1289 5.4246
L77.9853 5.6061
" />
<path d="M77.9853 5.6061
L77.8492 5.7270
" />
<path d="M77.8492 5.7270
L77.7207 5.7875
" />
<path d="M78.8924 6.5737
L78.9453 6.6342
" />
<path d="M78.9453 6.6342
L78.8773 6.6946
" />
<path d="M78.8773 6.6946
L78.8244 6.6342
" />
<path d="M78.8244 6.6342
L78.8924 6.5737
" />
<path d="M78.8924 6.5737
L78.8773 6.6946
" />
<path d="M79.7542 5.9689
L79.6408 5.9084
" />
<path d="M79.6408 5.9084
L79.5879 5.8480
" />
<path d="M79.5879 5.8480
L79.5425 5.7270
" />
<path d="M79.5425 5.7270
L79.5501 5.6665
" />
<path d="M79.5501 5.6665
L79.6257 5.5456
" />
<path d="M79.6257 5.5456
L79.6937 5.4851
" />
<path d="M79.6937 5.4851
L79.8223 5.4246
" />
<path d="M79.8223 5.4246
L80.0642 5.4246
" />
<path d="M80.0642 5.4246
L80.1775 5.4851
" />
<path d="M80.1775 5.4851
L80.2305 5.5456
" />
<path d="M80.2305 5.5456
L80.2758 5.6665
" />
<path d="M80.2758 5.6665
L80.2683 5.7270
" />
<path d="M80.2683 5.7270
L80.1927 5.8480
" />
<path d="M80.1927 5.8480
L80.1246 5.9084
" />
<path d="M80.1246 5.9084
L79.9961 5.9689
" />
<path d="M79.9961 5.9689
L79.7542 5.9689
" />
<path d="M79.7542 5.9689
L79.6257 6.0294
" />
<path d="M79.6257 6.0294
L79.5577 6.0899
" />
<path d="M79.5577 6.0899
L79.4821 6.2108
" />
<path d="M79.4821 6.2108
L79.4518 6.4527
" />
<path d="M79.4518 6.4527
L79.4972 6.5737
" />
<path d="M79.4972 6.5737
L79.5501 6.6342
" />
<path d="M79.5501 6.6342
L79.6635 6.6946
" />
<path d="M79.6635 6.6946
L79.9054 6.6946
" />
<path d="M79.9054 6.6946
L80.0339 6.6342
" />
<path d="M80.0339 6.6342
L80.1020 6.5737
" />
<path d="M80.1020 6.5737
L80.1775 6.4527
" />
<path d="M80.1775 6.4527
L80.2078 6.2108
" />
<path d="M80.2078 6.2108
L80.1624 6.0899
" />
<path d="M80.1624 6.0899
L80.1095 6.0294
" />
<path d="M80.1095 6.0294
L79.9961 5.9689
" />
<path d="M81.3946 5.4246
L81.1527 5.4246
" />
<path d="M81.1527 5.4246
L81.0242 5.4851
" />
<path d="M81.0242 5.4851
L80.9562 5.5456
" />
<path d="M80.9562 5.5456
L80.8125 5.7270
" />
<path d="M80.8125 5.7270
L80.7218 5.9689
" />
<path d="M80.7218 5.9689
L80.6613 6.4527
" />
<path d="M80.6613 6.4527
L80.7067 6.5737
" />
<path d="M80.7067 6.5737
L80.7596 6.6342
" />
<path d="M80.7596 6.6342
L80.8730 6.6946
" />
<path d="M80.8730 6.6946
L81.1149 6.6946
" />
<path d="M81.1149 6.6946
L81.2434 6.6342
" />
<path d="M81.2434 6.6342
L81.3115 6.5737
" />
<path d="M81.3115 6.5737
L81.3870 6.4527
" />
<path d="M81.3870 6.4527
L81.4248 6.1503
" />
<path d="M81.4248 6.1503
L81.3795 6.0294
" />
<path d="M81.3795 6.0294
L81.3266 5.9689
" />
<path d="M81.3266 5.9689
L81.2132 5.9084
" />
<path d="M81.2132 5.9084
L80.9713 5.9084
" />
<path d="M80.9713 5.9084
L80.8428 5.9689
" />
<path d="M80.8428 5.9689
L80.7747 6.0294
" />
<path d="M80.7747 6.0294
L80.6991 6.1503
" />
<path d="M81.9011 6.6946
L82.0069 5.8480
" />
<path d="M81.9918 5.9689
L82.0598 5.9084
" />
<path d="M82.0598 5.9084
L82.1883 5.8480
" />
<path d="M82.1883 5.8480
L82.3698 5.8480
" />
<path d="M82.3698 5.8480
L82.4832 5.9084
" />
<path d="M82.4832 5.9084
L82.5285 6.0294
" />
<path d="M82.5285 6.0294
L82.4454 6.6946
" />
<path d="M82.5285 6.0294
L82.6041 5.9084
" />
<path d="M82.6041 5.9084
L82.7326 5.8480
" />
<path d="M82.7326 5.8480
L82.9140 5.8480
" />
<path d="M82.9140 5.8480
L83.0274 5.9084
" />
<path d="M83.0274 5.9084
L83.0728 6.0294
" />
<path d="M83.0728 6.0294
L82.9896 6.6946
" />
<path d="M83.5944 6.6946
L83.7002 5.8480
" />
<path d="M83.6851 5.9689
L83.7531 5.9084
" />
<path d="M83.7531 5.9084
L83.8816 5.8480
" />
<path d="M83.8816 5.8480
L84.0631 5.8480
" />
<path d="M84.0631 5.8480
L84.1765 5.9084
" />
<path d="M84.1765 5.9084
L84.2218 6.0294
" />
<path d="M84.2218 6.0294
L84.1387 6.6946
" />
<path d="M84.2218 6.0294
L84.2974 5.9084
" />
<path d="M84.2974 5.9084
L84.4259 5.8480
" />
<path d="M84.4259 5.8480
L84.6073 5.8480
" />
<path d="M84.6073 5.8480
L84.7207 5.9084
" />
<path d="M84.7207 5.9084
L84.7661 6.0294
" />
<path d="M84.7661 6.0294
L84.6829 6.6946
" />
<path d="M84.9702 6.8156
L85.9378 6.8156
" />
<path d="M86.2326 5.4246
L86.4972 6.6946
" />
<path d="M86.4972 6.6946
L87.0793 5.4246
" />
<path d="M87.8352 6.6342
L87.7067 6.6946
" />
<path d="M87.7067 6.6946
L87.4648 6.6946
" />
<path d="M87.4648 6.6946
L87.3514 6.6342
" />
<path d="M87.3514 6.6342
L87.3061 6.5132
" />
<path d="M87.3061 6.5132
L87.3666 6.0294
" />
<path d="M87.3666 6.0294
L87.4421 5.9084
" />
<path d="M87.4421 5.9084
L87.5707 5.8480
" />
<path d="M87.5707 5.8480
L87.8126 5.8480
" />
<path d="M87.8126 5.8480
L87.9260 5.9084
" />
<path d="M87.9260 5.9084
L87.9713 6.0294
" />
<path d="M87.9713 6.0294
L87.9562 6.1503
" />
<path d="M87.9562 6.1503
L87.3363 6.2713
" />
<path d="M88.4325 6.6946
L88.5383 5.8480
" />
<path d="M88.5081 6.0899
L88.5837 5.9689
" />
<path d="M88.5837 5.9689
L88.6517 5.9084
" />
<path d="M88.6517 5.9084
L88.7802 5.8480
" />
<path d="M88.7802 5.8480
L88.9012 5.8480
" />
<path d="M89.1431 5.8480
L89.6269 5.8480
" />
<path d="M89.3774 5.4246
L89.2414 6.5132
" />
<path d="M89.2414 6.5132
L89.2867 6.6342
" />
<path d="M89.2867 6.6342
L89.4001 6.6946
" />
<path d="M89.4001 6.6946
L89.5211 6.6946
" />
<path d="M89.9444 6.6946
L90.0502 5.8480
" />
<path d="M90.1031 5.4246
L90.0351 5.4851
" />
<path d="M90.0351 5.4851
L90.0880 5.5456
" />
<path d="M90.0880 5.5456
L90.1560 5.4851
" />
<path d="M90.1560 5.4851
L90.1031 5.4246
" />
<path d="M90.1031 5.4246
L90.0880 5.5456
" />
<path d="M91.1010 6.6342
L90.9725 6.6946
" />
<path d="M90.9725 6.6946
L90.7306 6.6946
" />
<path d="M90.7306 6.6946
L90.6172 6.6342
" />
<path d="M90.6172 6.6342
L90.5643 6.5737
" />
<path d="M90.5643 6.5737
L90.5189 6.4527
" />
<path d="M90.5189 6.4527
L90.5643 6.0899
" />
<path d="M90.5643 6.0899
L90.6399 5.9689
" />
<path d="M90.6399 5.9689
L90.7079 5.9084
" />
<path d="M90.7079 5.9084
L90.8364 5.8480
" />
<path d="M90.8364 5.8480
L91.0783 5.8480
" />
<path d="M91.0783 5.8480
L91.1917 5.9084
" />
<path d="M92.1821 6.6946
L92.2652 6.0294
" />
<path d="M92.2652 6.0294
L92.2199 5.9084
" />
<path d="M92.2199 5.9084
L92.1065 5.8480
" />
<path d="M92.1065 5.8480
L91.8646 5.8480
" />
<path d="M91.8646 5.8480
L91.7360 5.9084
" />
<path d="M92.1896 6.6342
L92.0611 6.6946
" />
<path d="M92.0611 6.6946
L91.7587 6.6946
" />
<path d="M91.7587 6.6946
L91.6453 6.6342
" />
<path d="M91.6453 6.6342
L91.6000 6.5132
" />
<path d="M91.6000 6.5132
L91.6151 6.3922
" />
<path d="M91.6151 6.3922
L91.6907 6.2713
" />
<path d="M91.6907 6.2713
L91.8192 6.2108
" />
<path d="M91.8192 6.2108
L92.1216 6.2108
" />
<path d="M92.1216 6.2108
L92.2501 6.1503
" />
<path d="M92.9682 6.6946
L92.8548 6.6342
" />
<path d="M92.8548 6.6342
L92.8095 6.5132
" />
<path d="M92.8095 6.5132
L92.9455 5.4246
" />
</g><text x="101.0204" y="6.7504"
textLength="95.4108" font-size="1.6933" lengthAdjust="spacingAndGlyphs"
text-anchor="middle" opacity="0">https://www.infineon.com/dgdl/irfi4212h-117p.pdf?fileId=5546d462533600a401535623fc841f7a</text>
<g class="stroked-text"><desc>https://www.infineon.com/dgdl/irfi4212h-117p.pdf?fileId=5546d462533600a401535623fc841f7a</desc>
<path d="M53.7285 6.6946
L53.7285 5.4246
" />
<path d="M54.2728 6.6946
L54.2728 6.0294
" />
<path d="M54.2728 6.0294
L54.2123 5.9084
" />
<path d="M54.2123 5.9084
L54.0914 5.8480
" />
<path d="M54.0914 5.8480
L53.9100 5.8480
" />
<path d="M53.9100 5.8480
L53.7890 5.9084
" />
<path d="M53.7890 5.9084
L53.7285 5.9689
" />
<path d="M54.6961 5.8480
L55.1799 5.8480
" />
<path d="M54.8775 5.4246
L54.8775 6.5132
" />
<path d="M54.8775 6.5132
L54.9380 6.6342
" />
<path d="M54.9380 6.6342
L55.0590 6.6946
" />
<path d="M55.0590 6.6946
L55.1799 6.6946
" />
<path d="M55.4218 5.8480
L55.9056 5.8480
" />
<path d="M55.6032 5.4246
L55.6032 6.5132
" />
<path d="M55.6032 6.5132
L55.6637 6.6342
" />
<path d="M55.6637 6.6342
L55.7847 6.6946
" />
<path d="M55.7847 6.6946
L55.9056 6.6946
" />
<path d="M56.3289 5.8480
L56.3289 7.1180
" />
<path d="M56.3289 5.9084
L56.4499 5.8480
" />
<path d="M56.4499 5.8480
L56.6918 5.8480
" />
<path d="M56.6918 5.8480
L56.8127 5.9084
" />
<path d="M56.8127 5.9084
L56.8732 5.9689
" />
<path d="M56.8732 5.9689
L56.9337 6.0899
" />
<path d="M56.9337 6.0899
L56.9337 6.4527
" />
<path d="M56.9337 6.4527
L56.8732 6.5737
" />
<path d="M56.8732 6.5737
L56.8127 6.6342
" />
<path d="M56.8127 6.6342
L56.6918 6.6946
" />
<path d="M56.6918 6.6946
L56.4499 6.6946
" />
<path d="M56.4499 6.6946
L56.3289 6.6342
" />
<path d="M57.4175 6.6342
L57.5384 6.6946
" />
<path d="M57.5384 6.6946
L57.7803 6.6946
" />
<path d="M57.7803 6.6946
L57.9013 6.6342
" />
<path d="M57.9013 6.6342
L57.9617 6.5132
" />
<path d="M57.9617 6.5132
L57.9617 6.4527
" />
<path d="M57.9617 6.4527
L57.9013 6.3318
" />
<path d="M57.9013 6.3318
L57.7803 6.2713
" />
<path d="M57.7803 6.2713
L57.5989 6.2713
" />
<path d="M57.5989 6.2713
L57.4779 6.2108
" />
<path d="M57.4779 6.2108
L57.4175 6.0899
" />
<path d="M57.4175 6.0899
L57.4175 6.0294
" />
<path d="M57.4175 6.0294
L57.4779 5.9084
" />
<path d="M57.4779 5.9084
L57.5989 5.8480
" />
<path d="M57.5989 5.8480
L57.7803 5.8480
" />
<path d="M57.7803 5.8480
L57.9013 5.9084
" />
<path d="M58.5060 6.5737
L58.5665 6.6342
" />
<path d="M58.5665 6.6342
L58.5060 6.6946
" />
<path d="M58.5060 6.6946
L58.4456 6.6342
" />
<path d="M58.4456 6.6342
L58.5060 6.5737
" />
<path d="M58.5060 6.5737
L58.5060 6.6946
" />
<path d="M58.5060 5.9084
L58.5665 5.9689
" />
<path d="M58.5665 5.9689
L58.5060 6.0294
" />
<path d="M58.5060 6.0294
L58.4456 5.9689
" />
<path d="M58.4456 5.9689
L58.5060 5.9084
" />
<path d="M58.5060 5.9084
L58.5060 6.0294
" />
<path d="M60.0180 5.3642
L58.9294 6.9970
" />
<path d="M61.3485 5.3642
L60.2599 6.9970
" />
<path d="M61.6509 5.8480
L61.8928 6.6946
" />
<path d="M61.8928 6.6946
L62.1347 6.0899
" />
<path d="M62.1347 6.0899
L62.3766 6.6946
" />
<path d="M62.3766 6.6946
L62.6185 5.8480
" />
<path d="M62.9814 5.8480
L63.2233 6.6946
" />
<path d="M63.2233 6.6946
L63.4652 6.0899
" />
<path d="M63.4652 6.0899
L63.7071 6.6946
" />
<path d="M63.7071 6.6946
L63.9490 5.8480
" />
<path d="M64.3119 5.8480
L64.5538 6.6946
" />
<path d="M64.5538 6.6946
L64.7957 6.0899
" />
<path d="M64.7957 6.0899
L65.0376 6.6946
" />
<path d="M65.0376 6.6946
L65.2795 5.8480
" />
<path d="M65.7633 6.5737
L65.8238 6.6342
" />
<path d="M65.8238 6.6342
L65.7633 6.6946
" />
<path d="M65.7633 6.6946
L65.7029 6.6342
" />
<path d="M65.7029 6.6342
L65.7633 6.5737
" />
<path d="M65.7633 6.5737
L65.7633 6.6946
" />
<path d="M66.3681 6.6946
L66.3681 5.8480
" />
<path d="M66.3681 5.4246
L66.3077 5.4851
" />
<path d="M66.3077 5.4851
L66.3681 5.5456
" />
<path d="M66.3681 5.5456
L66.4286 5.4851
" />
<path d="M66.4286 5.4851
L66.3681 5.4246
" />
<path d="M66.3681 5.4246
L66.3681 5.5456
" />
<path d="M66.9729 5.8480
L66.9729 6.6946
" />
<path d="M66.9729 5.9689
L67.0334 5.9084
" />
<path d="M67.0334 5.9084
L67.1544 5.8480
" />
<path d="M67.1544 5.8480
L67.3358 5.8480
" />
<path d="M67.3358 5.8480
L67.4567 5.9084
" />
<path d="M67.4567 5.9084
L67.5172 6.0294
" />
<path d="M67.5172 6.0294
L67.5172 6.6946
" />
<path d="M67.9405 5.8480
L68.4243 5.8480
" />
<path d="M68.1219 6.6946
L68.1219 5.6061
" />
<path d="M68.1219 5.6061
L68.1824 5.4851
" />
<path d="M68.1824 5.4851
L68.3034 5.4246
" />
<path d="M68.3034 5.4246
L68.4243 5.4246
" />
<path d="M68.8476 6.6946
L68.8476 5.8480
" />
<path d="M68.8476 5.4246
L68.7872 5.4851
" />
<path d="M68.7872 5.4851
L68.8476 5.5456
" />
<path d="M68.8476 5.5456
L68.9081 5.4851
" />
<path d="M68.9081 5.4851
L68.8476 5.4246
" />
<path d="M68.8476 5.4246
L68.8476 5.5456
" />
<path d="M69.4524 5.8480
L69.4524 6.6946
" />
<path d="M69.4524 5.9689
L69.5129 5.9084
" />
<path d="M69.5129 5.9084
L69.6339 5.8480
" />
<path d="M69.6339 5.8480
L69.8153 5.8480
" />
<path d="M69.8153 5.8480
L69.9362 5.9084
" />
<path d="M69.9362 5.9084
L69.9967 6.0294
" />
<path d="M69.9967 6.0294
L69.9967 6.6946
" />
<path d="M71.0852 6.6342
L70.9643 6.6946
" />
<path d="M70.9643 6.6946
L70.7224 6.6946
" />
<path d="M70.7224 6.6946
L70.6014 6.6342
" />
<path d="M70.6014 6.6342
L70.5410 6.5132
" />
<path d="M70.5410 6.5132
L70.5410 6.0294
" />
<path d="M70.5410 6.0294
L70.6014 5.9084
" />
<path d="M70.6014 5.9084
L70.7224 5.8480
" />
<path d="M70.7224 5.8480
L70.9643 5.8480
" />
<path d="M70.9643 5.8480
L71.0852 5.9084
" />
<path d="M71.0852 5.9084
L71.1457 6.0294
" />
<path d="M71.1457 6.0294
L71.1457 6.1503
" />
<path d="M71.1457 6.1503
L70.5410 6.2713
" />
<path d="M71.8715 6.6946
L71.7505 6.6342
" />
<path d="M71.7505 6.6342
L71.6900 6.5737
" />
<path d="M71.6900 6.5737
L71.6296 6.4527
" />
<path d="M71.6296 6.4527
L71.6296 6.0899
" />
<path d="M71.6296 6.0899
L71.6900 5.9689
" />
<path d="M71.6900 5.9689
L71.7505 5.9084
" />
<path d="M71.7505 5.9084
L71.8715 5.8480
" />
<path d="M71.8715 5.8480
L72.0529 5.8480
" />
<path d="M72.0529 5.8480
L72.1738 5.9084
" />
<path d="M72.1738 5.9084
L72.2343 5.9689
" />
<path d="M72.2343 5.9689
L72.2948 6.0899
" />
<path d="M72.2948 6.0899
L72.2948 6.4527
" />
<path d="M72.2948 6.4527
L72.2343 6.5737
" />
<path d="M72.2343 6.5737
L72.1738 6.6342
" />
<path d="M72.1738 6.6342
L72.0529 6.6946
" />
<path d="M72.0529 6.6946
L71.8715 6.6946
" />
<path d="M72.8390 5.8480
L72.8390 6.6946
" />
<path d="M72.8390 5.9689
L72.8995 5.9084
" />
<path d="M72.8995 5.9084
L73.0205 5.8480
" />
<path d="M73.0205 5.8480
L73.2019 5.8480
" />
<path d="M73.2019 5.8480
L73.3228 5.9084
" />
<path d="M73.3228 5.9084
L73.3833 6.0294
" />
<path d="M73.3833 6.0294
L73.3833 6.6946
" />
<path d="M73.9880 6.5737
L74.0485 6.6342
" />
<path d="M74.0485 6.6342
L73.9880 6.6946
" />
<path d="M73.9880 6.6946
L73.9276 6.6342
" />
<path d="M73.9276 6.6342
L73.9880 6.5737
" />
<path d="M73.9880 6.5737
L73.9880 6.6946
" />
<path d="M75.1371 6.6342
L75.0162 6.6946
" />
<path d="M75.0162 6.6946
L74.7743 6.6946
" />
<path d="M74.7743 6.6946
L74.6533 6.6342
" />
<path d="M74.6533 6.6342
L74.5928 6.5737
" />
<path d="M74.5928 6.5737
L74.5324 6.4527
" />
<path d="M74.5324 6.4527
L74.5324 6.0899
" />
<path d="M74.5324 6.0899
L74.5928 5.9689
" />
<path d="M74.5928 5.9689
L74.6533 5.9084
" />
<path d="M74.6533 5.9084
L74.7743 5.8480
" />
<path d="M74.7743 5.8480
L75.0162 5.8480
" />
<path d="M75.0162 5.8480
L75.1371 5.9084
" />
<path d="M75.8629 6.6946
L75.7419 6.6342
" />
<path d="M75.7419 6.6342
L75.6814 6.5737
" />
<path d="M75.6814 6.5737
L75.6210 6.4527
" />
<path d="M75.6210 6.4527
L75.6210 6.0899
" />
<path d="M75.6210 6.0899
L75.6814 5.9689
" />
<path d="M75.6814 5.9689
L75.7419 5.9084
" />
<path d="M75.7419 5.9084
L75.8629 5.8480
" />
<path d="M75.8629 5.8480
L76.0443 5.8480
" />
<path d="M76.0443 5.8480
L76.1652 5.9084
" />
<path d="M76.1652 5.9084
L76.2257 5.9689
" />
<path d="M76.2257 5.9689
L76.2862 6.0899
" />
<path d="M76.2862 6.0899
L76.2862 6.4527
" />
<path d="M76.2862 6.4527
L76.2257 6.5737
" />
<path d="M76.2257 6.5737
L76.1652 6.6342
" />
<path d="M76.1652 6.6342
L76.0443 6.6946
" />
<path d="M76.0443 6.6946
L75.8629 6.6946
" />
<path d="M76.8304 6.6946
L76.8304 5.8480
" />
<path d="M76.8304 5.9689
L76.8909 5.9084
" />
<path d="M76.8909 5.9084
L77.0119 5.8480
" />
<path d="M77.0119 5.8480
L77.1933 5.8480
" />
<path d="M77.1933 5.8480
L77.3142 5.9084
" />
<path d="M77.3142 5.9084
L77.3747 6.0294
" />
<path d="M77.3747 6.0294
L77.3747 6.6946
" />
<path d="M77.3747 6.0294
L77.4352 5.9084
" />
<path d="M77.4352 5.9084
L77.5561 5.8480
" />
<path d="M77.5561 5.8480
L77.7376 5.8480
" />
<path d="M77.7376 5.8480
L77.8585 5.9084
" />
<path d="M77.8585 5.9084
L77.9190 6.0294
" />
<path d="M77.9190 6.0294
L77.9190 6.6946
" />
<path d="M79.4309 5.3642
L78.3423 6.9970
" />
<path d="M80.3985 6.6946
L80.3985 5.4246
" />
<path d="M80.3985 6.6342
L80.2776 6.6946
" />
<path d="M80.2776 6.6946
L80.0357 6.6946
" />
<path d="M80.0357 6.6946
L79.9147 6.6342
" />
<path d="M79.9147 6.6342
L79.8542 6.5737
" />
<path d="M79.8542 6.5737
L79.7938 6.4527
" />
<path d="M79.7938 6.4527
L79.7938 6.0899
" />
<path d="M79.7938 6.0899
L79.8542 5.9689
" />
<path d="M79.8542 5.9689
L79.9147 5.9084
" />
<path d="M79.9147 5.9084
L80.0357 5.8480
" />
<path d="M80.0357 5.8480
L80.2776 5.8480
" />
<path d="M80.2776 5.8480
L80.3985 5.9084
" />
<path d="M81.5475 5.8480
L81.5475 6.8761
" />
<path d="M81.5475 6.8761
L81.4870 6.9970
" />
<path d="M81.4870 6.9970
L81.4266 7.0575
" />
<path d="M81.4266 7.0575
L81.3056 7.1180
" />
<path d="M81.3056 7.1180
L81.1242 7.1180
" />
<path d="M81.1242 7.1180
L81.0032 7.0575
" />
<path d="M81.5475 6.6342
L81.4266 6.6946
" />
<path d="M81.4266 6.6946
L81.1847 6.6946
" />
<path d="M81.1847 6.6946
L81.0637 6.6342
" />
<path d="M81.0637 6.6342
L81.0032 6.5737
" />
<path d="M81.0032 6.5737
L80.9428 6.4527
" />
<path d="M80.9428 6.4527
L80.9428 6.0899
" />
<path d="M80.9428 6.0899
L81.0032 5.9689
" />
<path d="M81.0032 5.9689
L81.0637 5.9084
" />
<path d="M81.0637 5.9084
L81.1847 5.8480
" />
<path d="M81.1847 5.8480
L81.4266 5.8480
" />
<path d="M81.4266 5.8480
L81.5475 5.9084
" />
<path d="M82.6965 6.6946
L82.6965 5.4246
" />
<path d="M82.6965 6.6342
L82.5756 6.6946
" />
<path d="M82.5756 6.6946
L82.3337 6.6946
" />
<path d="M82.3337 6.6946
L82.2127 6.6342
" />
<path d="M82.2127 6.6342
L82.1522 6.5737
" />
<path d="M82.1522 6.5737
L82.0918 6.4527
" />
<path d="M82.0918 6.4527
L82.0918 6.0899
" />
<path d="M82.0918 6.0899
L82.1522 5.9689
" />
<path d="M82.1522 5.9689
L82.2127 5.9084
" />
<path d="M82.2127 5.9084
L82.3337 5.8480
" />
<path d="M82.3337 5.8480
L82.5756 5.8480
" />
<path d="M82.5756 5.8480
L82.6965 5.9084
" />
<path d="M83.4827 6.6946
L83.3617 6.6342
" />
<path d="M83.3617 6.6342
L83.3012 6.5132
" />
<path d="M83.3012 6.5132
L83.3012 5.4246
" />
<path d="M84.8736 5.3642
L83.7850 6.9970
" />
<path d="M85.2969 6.6946
L85.2969 5.8480
" />
<path d="M85.2969 5.4246
L85.2365 5.4851
" />
<path d="M85.2365 5.4851
L85.2969 5.5456
" />
<path d="M85.2969 5.5456
L85.3574 5.4851
" />
<path d="M85.3574 5.4851
L85.2969 5.4246
" />
<path d="M85.2969 5.4246
L85.2969 5.5456
" />
<path d="M85.9017 6.6946
L85.9017 5.8480
" />
<path d="M85.9017 6.0899
L85.9622 5.9689
" />
<path d="M85.9622 5.9689
L86.0227 5.9084
" />
<path d="M86.0227 5.9084
L86.1436 5.8480
" />
<path d="M86.1436 5.8480
L86.2646 5.8480
" />
<path d="M86.5065 5.8480
L86.9903 5.8480
" />
<path d="M86.6879 6.6946
L86.6879 5.6061
" />
<path d="M86.6879 5.6061
L86.7484 5.4851
" />
<path d="M86.7484 5.4851
L86.8694 5.4246
" />
<path d="M86.8694 5.4246
L86.9903 5.4246
" />
<path d="M87.4136 6.6946
L87.4136 5.8480
" />
<path d="M87.4136 5.4246
L87.3532 5.4851
" />
<path d="M87.3532 5.4851
L87.4136 5.5456
" />
<path d="M87.4136 5.5456
L87.4741 5.4851
" />
<path d="M87.4741 5.4851
L87.4136 5.4246
" />
<path d="M87.4136 5.4246
L87.4136 5.5456
" />
<path d="M88.5627 5.8480
L88.5627 6.6946
" />
<path d="M88.2603 5.3642
L87.9580 6.2713
" />
<path d="M87.9580 6.2713
L88.7441 6.2713
" />
<path d="M89.1675 5.5456
L89.2279 5.4851
" />
<path d="M89.2279 5.4851
L89.3489 5.4246
" />
<path d="M89.3489 5.4246
L89.6513 5.4246
" />
<path d="M89.6513 5.4246
L89.7722 5.4851
" />
<path d="M89.7722 5.4851
L89.8327 5.5456
" />
<path d="M89.8327 5.5456
L89.8932 5.6665
" />
<path d="M89.8932 5.6665
L89.8932 5.7875
" />
<path d="M89.8932 5.7875
L89.8327 5.9689
" />
<path d="M89.8327 5.9689
L89.1070 6.6946
" />
<path d="M89.1070 6.6946
L89.8932 6.6946
" />
<path d="M91.1027 6.6946
L90.3770 6.6946
" />
<path d="M90.7398 6.6946
L90.7398 5.4246
" />
<path d="M90.7398 5.4246
L90.6189 5.6061
" />
<path d="M90.6189 5.6061
L90.4979 5.7270
" />
<path d="M90.4979 5.7270
L90.3770 5.7875
" />
<path d="M91.5865 5.5456
L91.6469 5.4851
" />
<path d="M91.6469 5.4851
L91.7679 5.4246
" />
<path d="M91.7679 5.4246
L92.0703 5.4246
" />
<path d="M92.0703 5.4246
L92.1912 5.4851
" />
<path d="M92.1912 5.4851
L92.2517 5.5456
" />
<path d="M92.2517 5.5456
L92.3122 5.6665
" />
<path d="M92.3122 5.6665
L92.3122 5.7875
" />
<path d="M92.3122 5.7875
L92.2517 5.9689
" />
<path d="M92.2517 5.9689
L91.5260 6.6946
" />
<path d="M91.5260 6.6946
L92.3122 6.6946
" />
<path d="M92.8564 6.6946
L92.8564 5.4246
" />
<path d="M93.4007 6.6946
L93.4007 6.0294
" />
<path d="M93.4007 6.0294
L93.3402 5.9084
" />
<path d="M93.3402 5.9084
L93.2193 5.8480
" />
<path d="M93.2193 5.8480
L93.0379 5.8480
" />
<path d="M93.0379 5.8480
L92.9169 5.9084
" />
<path d="M92.9169 5.9084
L92.8564 5.9689
" />
<path d="M94.0054 6.2108
L94.9731 6.2108
" />
<path d="M96.2431 6.6946
L95.5174 6.6946
" />
<path d="M95.8802 6.6946
L95.8802 5.4246
" />
<path d="M95.8802 5.4246
L95.7593 5.6061
" />
<path d="M95.7593 5.6061
L95.6383 5.7270
" />
<path d="M95.6383 5.7270
L95.5174 5.7875
" />
<path d="M97.4526 6.6946
L96.7269 6.6946
" />
<path d="M97.0897 6.6946
L97.0897 5.4246
" />
<path d="M97.0897 5.4246
L96.9688 5.6061
" />
<path d="M96.9688 5.6061
L96.8478 5.7270
" />
<path d="M96.8478 5.7270
L96.7269 5.7875
" />
<path d="M97.8759 5.4246
L98.7225 5.4246
" />
<path d="M98.7225 5.4246
L98.1783 6.6946
" />
<path d="M99.2063 5.8480
L99.2063 7.1180
" />
<path d="M99.2063 5.9084
L99.3273 5.8480
" />
<path d="M99.3273 5.8480
L99.5692 5.8480
" />
<path d="M99.5692 5.8480
L99.6901 5.9084
" />
<path d="M99.6901 5.9084
L99.7506 5.9689
" />
<path d="M99.7506 5.9689
L99.8111 6.0899
" />
<path d="M99.8111 6.0899
L99.8111 6.4527
" />
<path d="M99.8111 6.4527
L99.7506 6.5737
" />
<path d="M99.7506 6.5737
L99.6901 6.6342
" />
<path d="M99.6901 6.6342
L99.5692 6.6946
" />
<path d="M99.5692 6.6946
L99.3273 6.6946
" />
<path d="M99.3273 6.6946
L99.2063 6.6342
" />
<path d="M100.3553 6.5737
L100.4158 6.6342
" />
<path d="M100.4158 6.6342
L100.3553 6.6946
" />
<path d="M100.3553 6.6946
L100.2949 6.6342
" />
<path d="M100.2949 6.6342
L100.3553 6.5737
" />
<path d="M100.3553 6.5737
L100.3553 6.6946
" />
<path d="M100.9601 5.8480
L100.9601 7.1180
" />
<path d="M100.9601 5.9084
L101.0811 5.8480
" />
<path d="M101.0811 5.8480
L101.3230 5.8480
" />
<path d="M101.3230 5.8480
L101.4439 5.9084
" />
<path d="M101.4439 5.9084
L101.5044 5.9689
" />
<path d="M101.5044 5.9689
L101.5649 6.0899
" />
<path d="M101.5649 6.0899
L101.5649 6.4527
" />
<path d="M101.5649 6.4527
L101.5044 6.5737
" />
<path d="M101.5044 6.5737
L101.4439 6.6342
" />
<path d="M101.4439 6.6342
L101.3230 6.6946
" />
<path d="M101.3230 6.6946
L101.0811 6.6946
" />
<path d="M101.0811 6.6946
L100.9601 6.6342
" />
<path d="M102.6534 6.6946
L102.6534 5.4246
" />
<path d="M102.6534 6.6342
L102.5325 6.6946
" />
<path d="M102.5325 6.6946
L102.2906 6.6946
" />
<path d="M102.2906 6.6946
L102.1696 6.6342
" />
<path d="M102.1696 6.6342
L102.1091 6.5737
" />
<path d="M102.1091 6.5737
L102.0487 6.4527
" />
<path d="M102.0487 6.4527
L102.0487 6.0899
" />
<path d="M102.0487 6.0899
L102.1091 5.9689
" />
<path d="M102.1091 5.9689
L102.1696 5.9084
" />
<path d="M102.1696 5.9084
L102.2906 5.8480
" />
<path d="M102.2906 5.8480
L102.5325 5.8480
" />
<path d="M102.5325 5.8480
L102.6534 5.9084
" />
<path d="M103.0767 5.8480
L103.5605 5.8480
" />
<path d="M103.2581 6.6946
L103.2581 5.6061
" />
<path d="M103.2581 5.6061
L103.3186 5.4851
" />
<path d="M103.3186 5.4851
L103.4396 5.4246
" />
<path d="M103.4396 5.4246
L103.5605 5.4246
" />
<path d="M104.1653 6.5737
L104.2257 6.6342
" />
<path d="M104.2257 6.6342
L104.1653 6.6946
" />
<path d="M104.1653 6.6946
L104.1048 6.6342
" />
<path d="M104.1048 6.6342
L104.1653 6.5737
" />
<path d="M104.1653 6.5737
L104.1653 6.6946
" />
<path d="M103.9234 5.4851
L104.0443 5.4246
" />
<path d="M104.0443 5.4246
L104.3467 5.4246
" />
<path d="M104.3467 5.4246
L104.4676 5.4851
" />
<path d="M104.4676 5.4851
L104.5281 5.6061
" />
<path d="M104.5281 5.6061
L104.5281 5.7270
" />
<path d="M104.5281 5.7270
L104.4676 5.8480
" />
<path d="M104.4676 5.8480
L104.4072 5.9084
" />
<path d="M104.4072 5.9084
L104.2862 5.9689
" />
<path d="M104.2862 5.9689
L104.2257 6.0294
" />
<path d="M104.2257 6.0294
L104.1653 6.1503
" />
<path d="M104.1653 6.1503
L104.1653 6.2108
" />
<path d="M104.8910 5.8480
L105.3748 5.8480
" />
<path d="M105.0724 6.6946
L105.0724 5.6061
" />
<path d="M105.0724 5.6061
L105.1329 5.4851
" />
<path d="M105.1329 5.4851
L105.2539 5.4246
" />
<path d="M105.2539 5.4246
L105.3748 5.4246
" />
<path d="M105.7981 6.6946
L105.7981 5.8480
" />
<path d="M105.7981 5.4246
L105.7377 5.4851
" />
<path d="M105.7377 5.4851
L105.7981 5.5456
" />
<path d="M105.7981 5.5456
L105.8586 5.4851
" />
<path d="M105.8586 5.4851
L105.7981 5.4246
" />
<path d="M105.7981 5.4246
L105.7981 5.5456
" />
<path d="M106.5844 6.6946
L106.4634 6.6342
" />
<path d="M106.4634 6.6342
L106.4029 6.5132
" />
<path d="M106.4029 6.5132
L106.4029 5.4246
" />
<path d="M107.5519 6.6342
L107.4310 6.6946
" />
<path d="M107.4310 6.6946
L107.1891 6.6946
" />
<path d="M107.1891 6.6946
L107.0681 6.6342
" />
<path d="M107.0681 6.6342
L107.0077 6.5132
" />
<path d="M107.0077 6.5132
L107.0077 6.0294
" />
<path d="M107.0077 6.0294
L107.0681 5.9084
" />
<path d="M107.0681 5.9084
L107.1891 5.8480
" />
<path d="M107.1891 5.8480
L107.4310 5.8480
" />
<path d="M107.4310 5.8480
L107.5519 5.9084
" />
<path d="M107.5519 5.9084
L107.6124 6.0294
" />
<path d="M107.6124 6.0294
L107.6124 6.1503
" />
<path d="M107.6124 6.1503
L107.0077 6.2713
" />
<path d="M108.1567 6.6946
L108.1567 5.4246
" />
<path d="M109.3058 6.6946
L109.3058 5.4246
" />
<path d="M109.3058 6.6342
L109.1849 6.6946
" />
<path d="M109.1849 6.6946
L108.9430 6.6946
" />
<path d="M108.9430 6.6946
L108.8220 6.6342
" />
<path d="M108.8220 6.6342
L108.7615 6.5737
" />
<path d="M108.7615 6.5737
L108.7011 6.4527
" />
<path d="M108.7011 6.4527
L108.7011 6.0899
" />
<path d="M108.7011 6.0899
L108.7615 5.9689
" />
<path d="M108.7615 5.9689
L108.8220 5.9084
" />
<path d="M108.8220 5.9084
L108.9430 5.8480
" />
<path d="M108.9430 5.8480
L109.1849 5.8480
" />
<path d="M109.1849 5.8480
L109.3058 5.9084
" />
<path d="M109.9105 6.0294
L110.8782 6.0294
" />
<path d="M110.8782 6.3922
L109.9105 6.3922
" />
<path d="M112.0877 5.4246
L111.4829 5.4246
" />
<path d="M111.4829 5.4246
L111.4225 6.0294
" />
<path d="M111.4225 6.0294
L111.4829 5.9689
" />
<path d="M111.4829 5.9689
L111.6039 5.9084
" />
<path d="M111.6039 5.9084
L111.9063 5.9084
" />
<path d="M111.9063 5.9084
L112.0272 5.9689
" />
<path d="M112.0272 5.9689
L112.0877 6.0294
" />
<path d="M112.0877 6.0294
L112.1482 6.1503
" />
<path d="M112.1482 6.1503
L112.1482 6.4527
" />
<path d="M112.1482 6.4527
L112.0877 6.5737
" />
<path d="M112.0877 6.5737
L112.0272 6.6342
" />
<path d="M112.0272 6.6342
L111.9063 6.6946
" />
<path d="M111.9063 6.6946
L111.6039 6.6946
" />
<path d="M111.6039 6.6946
L111.4829 6.6342
" />
<path d="M111.4829 6.6342
L111.4225 6.5737
" />
<path d="M113.2972 5.4246
L112.6924 5.4246
" />
<path d="M112.6924 5.4246
L112.6320 6.0294
" />
<path d="M112.6320 6.0294
L112.6924 5.9689
" />
<path d="M112.6924 5.9689
L112.8134 5.9084
" />
<path d="M112.8134 5.9084
L113.1158 5.9084
" />
<path d="M113.1158 5.9084
L113.2367 5.9689
" />
<path d="M113.2367 5.9689
L113.2972 6.0294
" />
<path d="M113.2972 6.0294
L113.3577 6.1503
" />
<path d="M113.3577 6.1503
L113.3577 6.4527
" />
<path d="M113.3577 6.4527
L113.2972 6.5737
" />
<path d="M113.2972 6.5737
L113.2367 6.6342
" />
<path d="M113.2367 6.6342
L113.1158 6.6946
" />
<path d="M113.1158 6.6946
L112.8134 6.6946
" />
<path d="M112.8134 6.6946
L112.6924 6.6342
" />
<path d="M112.6924 6.6342
L112.6320 6.5737
" />
<path d="M114.4462 5.8480
L114.4462 6.6946
" />
<path d="M114.1438 5.3642
L113.8415 6.2713
" />
<path d="M113.8415 6.2713
L114.6276 6.2713
" />
<path d="M115.6557 5.4246
L115.4138 5.4246
" />
<path d="M115.4138 5.4246
L115.2929 5.4851
" />
<path d="M115.2929 5.4851
L115.2324 5.5456
" />
<path d="M115.2324 5.5456
L115.1114 5.7270
" />
<path d="M115.1114 5.7270
L115.0510 5.9689
" />
<path d="M115.0510 5.9689
L115.0510 6.4527
" />
<path d="M115.0510 6.4527
L115.1114 6.5737
" />
<path d="M115.1114 6.5737
L115.1719 6.6342
" />
<path d="M115.1719 6.6342
L115.2929 6.6946
" />
<path d="M115.2929 6.6946
L115.5348 6.6946
" />
<path d="M115.5348 6.6946
L115.6557 6.6342
" />
<path d="M115.6557 6.6342
L115.7162 6.5737
" />
<path d="M115.7162 6.5737
L115.7767 6.4527
" />
<path d="M115.7767 6.4527
L115.7767 6.1503
" />
<path d="M115.7767 6.1503
L115.7162 6.0294
" />
<path d="M115.7162 6.0294
L115.6557 5.9689
" />
<path d="M115.6557 5.9689
L115.5348 5.9084
" />
<path d="M115.5348 5.9084
L115.2929 5.9084
" />
<path d="M115.2929 5.9084
L115.1719 5.9689
" />
<path d="M115.1719 5.9689
L115.1114 6.0294
" />
<path d="M115.1114 6.0294
L115.0510 6.1503
" />
<path d="M116.8652 6.6946
L116.8652 5.4246
" />
<path d="M116.8652 6.6342
L116.7443 6.6946
" />
<path d="M116.7443 6.6946
L116.5024 6.6946
" />
<path d="M116.5024 6.6946
L116.3814 6.6342
" />
<path d="M116.3814 6.6342
L116.3209 6.5737
" />
<path d="M116.3209 6.5737
L116.2605 6.4527
" />
<path d="M116.2605 6.4527
L116.2605 6.0899
" />
<path d="M116.2605 6.0899
L116.3209 5.9689
" />
<path d="M116.3209 5.9689
L116.3814 5.9084
" />
<path d="M116.3814 5.9084
L116.5024 5.8480
" />
<path d="M116.5024 5.8480
L116.7443 5.8480
" />
<path d="M116.7443 5.8480
L116.8652 5.9084
" />
<path d="M118.0142 5.8480
L118.0142 6.6946
" />
<path d="M117.7118 5.3642
L117.4095 6.2713
" />
<path d="M117.4095 6.2713
L118.1956 6.2713
" />
<path d="M119.2237 5.4246
L118.9818 5.4246
" />
<path d="M118.9818 5.4246
L118.8609 5.4851
" />
<path d="M118.8609 5.4851
L118.8004 5.5456
" />
<path d="M118.8004 5.5456
L118.6794 5.7270
" />
<path d="M118.6794 5.7270
L118.6190 5.9689
" />
<path d="M118.6190 5.9689
L118.6190 6.4527
" />
<path d="M118.6190 6.4527
L118.6794 6.5737
" />
<path d="M118.6794 6.5737
L118.7399 6.6342
" />
<path d="M118.7399 6.6342
L118.8609 6.6946
" />
<path d="M118.8609 6.6946
L119.1028 6.6946
" />
<path d="M119.1028 6.6946
L119.2237 6.6342
" />
<path d="M119.2237 6.6342
L119.2842 6.5737
" />
<path d="M119.2842 6.5737
L119.3447 6.4527
" />
<path d="M119.3447 6.4527
L119.3447 6.1503
" />
<path d="M119.3447 6.1503
L119.2842 6.0294
" />
<path d="M119.2842 6.0294
L119.2237 5.9689
" />
<path d="M119.2237 5.9689
L119.1028 5.9084
" />
<path d="M119.1028 5.9084
L118.8609 5.9084
" />
<path d="M118.8609 5.9084
L118.7399 5.9689
" />
<path d="M118.7399 5.9689
L118.6794 6.0294
" />
<path d="M118.6794 6.0294
L118.6190 6.1503
" />
<path d="M119.8285 5.5456
L119.8889 5.4851
" />
<path d="M119.8889 5.4851
L120.0099 5.4246
" />
<path d="M120.0099 5.4246
L120.3123 5.4246
" />
<path d="M120.3123 5.4246
L120.4332 5.4851
" />
<path d="M120.4332 5.4851
L120.4937 5.5456
" />
<path d="M120.4937 5.5456
L120.5542 5.6665
" />
<path d="M120.5542 5.6665
L120.5542 5.7875
" />
<path d="M120.5542 5.7875
L120.4937 5.9689
" />
<path d="M120.4937 5.9689
L119.7680 6.6946
" />
<path d="M119.7680 6.6946
L120.5542 6.6946
" />
<path d="M121.7032 5.4246
L121.0984 5.4246
" />
<path d="M121.0984 5.4246
L121.0380 6.0294
" />
<path d="M121.0380 6.0294
L121.0984 5.9689
" />
<path d="M121.0984 5.9689
L121.2194 5.9084
" />
<path d="M121.2194 5.9084
L121.5218 5.9084
" />
<path d="M121.5218 5.9084
L121.6427 5.9689
" />
<path d="M121.6427 5.9689
L121.7032 6.0294
" />
<path d="M121.7032 6.0294
L121.7637 6.1503
" />
<path d="M121.7637 6.1503
L121.7637 6.4527
" />
<path d="M121.7637 6.4527
L121.7032 6.5737
" />
<path d="M121.7032 6.5737
L121.6427 6.6342
" />
<path d="M121.6427 6.6342
L121.5218 6.6946
" />
<path d="M121.5218 6.6946
L121.2194 6.6946
" />
<path d="M121.2194 6.6946
L121.0984 6.6342
" />
<path d="M121.0984 6.6342
L121.0380 6.5737
" />
<path d="M122.1870 5.4246
L122.9732 5.4246
" />
<path d="M122.9732 5.4246
L122.5498 5.9084
" />
<path d="M122.5498 5.9084
L122.7313 5.9084
" />
<path d="M122.7313 5.9084
L122.8522 5.9689
" />
<path d="M122.8522 5.9689
L122.9127 6.0294
" />
<path d="M122.9127 6.0294
L122.9732 6.1503
" />
<path d="M122.9732 6.1503
L122.9732 6.4527
" />
<path d="M122.9732 6.4527
L122.9127 6.5737
" />
<path d="M122.9127 6.5737
L122.8522 6.6342
" />
<path d="M122.8522 6.6342
L122.7313 6.6946
" />
<path d="M122.7313 6.6946
L122.3684 6.6946
" />
<path d="M122.3684 6.6946
L122.2475 6.6342
" />
<path d="M122.2475 6.6342
L122.1870 6.5737
" />
<path d="M123.3965 5.4246
L124.1827 5.4246
" />
<path d="M124.1827 5.4246
L123.7593 5.9084
" />
<path d="M123.7593 5.9084
L123.9408 5.9084
" />
<path d="M123.9408 5.9084
L124.0617 5.9689
" />
<path d="M124.0617 5.9689
L124.1222 6.0294
" />
<path d="M124.1222 6.0294
L124.1827 6.1503
" />
<path d="M124.1827 6.1503
L124.1827 6.4527
" />
<path d="M124.1827 6.4527
L124.1222 6.5737
" />
<path d="M124.1222 6.5737
L124.0617 6.6342
" />
<path d="M124.0617 6.6342
L123.9408 6.6946
" />
<path d="M123.9408 6.6946
L123.5779 6.6946
" />
<path d="M123.5779 6.6946
L123.4570 6.6342
" />
<path d="M123.4570 6.6342
L123.3965 6.5737
" />
<path d="M125.2712 5.4246
L125.0293 5.4246
" />
<path d="M125.0293 5.4246
L124.9084 5.4851
" />
<path d="M124.9084 5.4851
L124.8479 5.5456
" />
<path d="M124.8479 5.5456
L124.7269 5.7270
" />
<path d="M124.7269 5.7270
L124.6665 5.9689
" />
<path d="M124.6665 5.9689
L124.6665 6.4527
" />
<path d="M124.6665 6.4527
L124.7269 6.5737
" />
<path d="M124.7269 6.5737
L124.7874 6.6342
" />
<path d="M124.7874 6.6342
L124.9084 6.6946
" />
<path d="M124.9084 6.6946
L125.1503 6.6946
" />
<path d="M125.1503 6.6946
L125.2712 6.6342
" />
<path d="M125.2712 6.6342
L125.3317 6.5737
" />
<path d="M125.3317 6.5737
L125.3922 6.4527
" />
<path d="M125.3922 6.4527
L125.3922 6.1503
" />
<path d="M125.3922 6.1503
L125.3317 6.0294
" />
<path d="M125.3317 6.0294
L125.2712 5.9689
" />
<path d="M125.2712 5.9689
L125.1503 5.9084
" />
<path d="M125.1503 5.9084
L124.9084 5.9084
" />
<path d="M124.9084 5.9084
L124.7874 5.9689
" />
<path d="M124.7874 5.9689
L124.7269 6.0294
" />
<path d="M124.7269 6.0294
L124.6665 6.1503
" />
<path d="M126.1783 5.4246
L126.2993 5.4246
" />
<path d="M126.2993 5.4246
L126.4202 5.4851
" />
<path d="M126.4202 5.4851
L126.4807 5.5456
" />
<path d="M126.4807 5.5456
L126.5412 5.6665
" />
<path d="M126.5412 5.6665
L126.6017 5.9084
" />
<path d="M126.6017 5.9084
L126.6017 6.2108
" />
<path d="M126.6017 6.2108
L126.5412 6.4527
" />
<path d="M126.5412 6.4527
L126.4807 6.5737
" />
<path d="M126.4807 6.5737
L126.4202 6.6342
" />
<path d="M126.4202 6.6342
L126.2993 6.6946
" />
<path d="M126.2993 6.6946
L126.1783 6.6946
" />
<path d="M126.1783 6.6946
L126.0574 6.6342
" />
<path d="M126.0574 6.6342
L125.9969 6.5737
" />
<path d="M125.9969 6.5737
L125.9364 6.4527
" />
<path d="M125.9364 6.4527
L125.8760 6.2108
" />
<path d="M125.8760 6.2108
L125.8760 5.9084
" />
<path d="M125.8760 5.9084
L125.9364 5.6665
" />
<path d="M125.9364 5.6665
L125.9969 5.5456
" />
<path d="M125.9969 5.5456
L126.0574 5.4851
" />
<path d="M126.0574 5.4851
L126.1783 5.4246
" />
<path d="M127.3878 5.4246
L127.5088 5.4246
" />
<path d="M127.5088 5.4246
L127.6297 5.4851
" />
<path d="M127.6297 5.4851
L127.6902 5.5456
" />
<path d="M127.6902 5.5456
L127.7507 5.6665
" />
<path d="M127.7507 5.6665
L127.8112 5.9084
" />
<path d="M127.8112 5.9084
L127.8112 6.2108
" />
<path d="M127.8112 6.2108
L127.7507 6.4527
" />
<path d="M127.7507 6.4527
L127.6902 6.5737
" />
<path d="M127.6902 6.5737
L127.6297 6.6342
" />
<path d="M127.6297 6.6342
L127.5088 6.6946
" />
<path d="M127.5088 6.6946
L127.3878 6.6946
" />
<path d="M127.3878 6.6946
L127.2669 6.6342
" />
<path d="M127.2669 6.6342
L127.2064 6.5737
" />
<path d="M127.2064 6.5737
L127.1459 6.4527
" />
<path d="M127.1459 6.4527
L127.0855 6.2108
" />
<path d="M127.0855 6.2108
L127.0855 5.9084
" />
<path d="M127.0855 5.9084
L127.1459 5.6665
" />
<path d="M127.1459 5.6665
L127.2064 5.5456
" />
<path d="M127.2064 5.5456
L127.2669 5.4851
" />
<path d="M127.2669 5.4851
L127.3878 5.4246
" />
<path d="M128.8997 6.6946
L128.8997 6.0294
" />
<path d="M128.8997 6.0294
L128.8392 5.9084
" />
<path d="M128.8392 5.9084
L128.7183 5.8480
" />
<path d="M128.7183 5.8480
L128.4764 5.8480
" />
<path d="M128.4764 5.8480
L128.3554 5.9084
" />
<path d="M128.8997 6.6342
L128.7788 6.6946
" />
<path d="M128.7788 6.6946
L128.4764 6.6946
" />
<path d="M128.4764 6.6946
L128.3554 6.6342
" />
<path d="M128.3554 6.6342
L128.2950 6.5132
" />
<path d="M128.2950 6.5132
L128.2950 6.3922
" />
<path d="M128.2950 6.3922
L128.3554 6.2713
" />
<path d="M128.3554 6.2713
L128.4764 6.2108
" />
<path d="M128.4764 6.2108
L128.7788 6.2108
" />
<path d="M128.7788 6.2108
L128.8997 6.1503
" />
<path d="M130.0487 5.8480
L130.0487 6.6946
" />
<path d="M129.7463 5.3642
L129.4440 6.2713
" />
<path d="M129.4440 6.2713
L130.2301 6.2713
" />
<path d="M130.9558 5.4246
L131.0768 5.4246
" />
<path d="M131.0768 5.4246
L131.1977 5.4851
" />
<path d="M131.1977 5.4851
L131.2582 5.5456
" />
<path d="M131.2582 5.5456
L131.3187 5.6665
" />
<path d="M131.3187 5.6665
L131.3792 5.9084
" />
<path d="M131.3792 5.9084
L131.3792 6.2108
" />
<path d="M131.3792 6.2108
L131.3187 6.4527
" />
<path d="M131.3187 6.4527
L131.2582 6.5737
" />
<path d="M131.2582 6.5737
L131.1977 6.6342
" />
<path d="M131.1977 6.6342
L131.0768 6.6946
" />
<path d="M131.0768 6.6946
L130.9558 6.6946
" />
<path d="M130.9558 6.6946
L130.8349 6.6342
" />
<path d="M130.8349 6.6342
L130.7744 6.5737
" />
<path d="M130.7744 6.5737
L130.7139 6.4527
" />
<path d="M130.7139 6.4527
L130.6535 6.2108
" />
<path d="M130.6535 6.2108
L130.6535 5.9084
" />
<path d="M130.6535 5.9084
L130.7139 5.6665
" />
<path d="M130.7139 5.6665
L130.7744 5.5456
" />
<path d="M130.7744 5.5456
L130.8349 5.4851
" />
<path d="M130.8349 5.4851
L130.9558 5.4246
" />
<path d="M132.5887 6.6946
L131.8630 6.6946
" />
<path d="M132.2258 6.6946
L132.2258 5.4246
" />
<path d="M132.2258 5.4246
L132.1049 5.6061
" />
<path d="M132.1049 5.6061
L131.9839 5.7270
" />
<path d="M131.9839 5.7270
L131.8630 5.7875
" />
<path d="M133.7377 5.4246
L133.1329 5.4246
" />
<path d="M133.1329 5.4246
L133.0725 6.0294
" />
<path d="M133.0725 6.0294
L133.1329 5.9689
" />
<path d="M133.1329 5.9689
L133.2539 5.9084
" />
<path d="M133.2539 5.9084
L133.5563 5.9084
" />
<path d="M133.5563 5.9084
L133.6772 5.9689
" />
<path d="M133.6772 5.9689
L133.7377 6.0294
" />
<path d="M133.7377 6.0294
L133.7982 6.1503
" />
<path d="M133.7982 6.1503
L133.7982 6.4527
" />
<path d="M133.7982 6.4527
L133.7377 6.5737
" />
<path d="M133.7377 6.5737
L133.6772 6.6342
" />
<path d="M133.6772 6.6342
L133.5563 6.6946
" />
<path d="M133.5563 6.6946
L133.2539 6.6946
" />
<path d="M133.2539 6.6946
L133.1329 6.6342
" />
<path d="M133.1329 6.6342
L133.0725 6.5737
" />
<path d="M134.2215 5.4246
L135.0077 5.4246
" />
<path d="M135.0077 5.4246
L134.5843 5.9084
" />
<path d="M134.5843 5.9084
L134.7658 5.9084
" />
<path d="M134.7658 5.9084
L134.8867 5.9689
" />
<path d="M134.8867 5.9689
L134.9472 6.0294
" />
<path d="M134.9472 6.0294
L135.0077 6.1503
" />
<path d="M135.0077 6.1503
L135.0077 6.4527
" />
<path d="M135.0077 6.4527
L134.9472 6.5737
" />
<path d="M134.9472 6.5737
L134.8867 6.6342
" />
<path d="M134.8867 6.6342
L134.7658 6.6946
" />
<path d="M134.7658 6.6946
L134.4029 6.6946
" />
<path d="M134.4029 6.6946
L134.2820 6.6342
" />
<path d="M134.2820 6.6342
L134.2215 6.5737
" />
<path d="M136.1567 5.4246
L135.5519 5.4246
" />
<path d="M135.5519 5.4246
L135.4915 6.0294
" />
<path d="M135.4915 6.0294
L135.5519 5.9689
" />
<path d="M135.5519 5.9689
L135.6729 5.9084
" />
<path d="M135.6729 5.9084
L135.9753 5.9084
" />
<path d="M135.9753 5.9084
L136.0962 5.9689
" />
<path d="M136.0962 5.9689
L136.1567 6.0294
" />
<path d="M136.1567 6.0294
L136.2172 6.1503
" />
<path d="M136.2172 6.1503
L136.2172 6.4527
" />
<path d="M136.2172 6.4527
L136.1567 6.5737
" />
<path d="M136.1567 6.5737
L136.0962 6.6342
" />
<path d="M136.0962 6.6342
L135.9753 6.6946
" />
<path d="M135.9753 6.6946
L135.6729 6.6946
" />
<path d="M135.6729 6.6946
L135.5519 6.6342
" />
<path d="M135.5519 6.6342
L135.4915 6.5737
" />
<path d="M137.3057 5.4246
L137.0638 5.4246
" />
<path d="M137.0638 5.4246
L136.9429 5.4851
" />
<path d="M136.9429 5.4851
L136.8824 5.5456
" />
<path d="M136.8824 5.5456
L136.7614 5.7270
" />
<path d="M136.7614 5.7270
L136.7010 5.9689
" />
<path d="M136.7010 5.9689
L136.7010 6.4527
" />
<path d="M136.7010 6.4527
L136.7614 6.5737
" />
<path d="M136.7614 6.5737
L136.8219 6.6342
" />
<path d="M136.8219 6.6342
L136.9429 6.6946
" />
<path d="M136.9429 6.6946
L137.1848 6.6946
" />
<path d="M137.1848 6.6946
L137.3057 6.6342
" />
<path d="M137.3057 6.6342
L137.3662 6.5737
" />
<path d="M137.3662 6.5737
L137.4267 6.4527
" />
<path d="M137.4267 6.4527
L137.4267 6.1503
" />
<path d="M137.4267 6.1503
L137.3662 6.0294
" />
<path d="M137.3662 6.0294
L137.3057 5.9689
" />
<path d="M137.3057 5.9689
L137.1848 5.9084
" />
<path d="M137.1848 5.9084
L136.9429 5.9084
" />
<path d="M136.9429 5.9084
L136.8219 5.9689
" />
<path d="M136.8219 5.9689
L136.7614 6.0294
" />
<path d="M136.7614 6.0294
L136.7010 6.1503
" />
<path d="M137.9105 5.5456
L137.9709 5.4851
" />
<path d="M137.9709 5.4851
L138.0919 5.4246
" />
<path d="M138.0919 5.4246
L138.3943 5.4246
" />
<path d="M138.3943 5.4246
L138.5152 5.4851
" />
<path d="M138.5152 5.4851
L138.5757 5.5456
" />
<path d="M138.5757 5.5456
L138.6362 5.6665
" />
<path d="M138.6362 5.6665
L138.6362 5.7875
" />
<path d="M138.6362 5.7875
L138.5757 5.9689
" />
<path d="M138.5757 5.9689
L137.8500 6.6946
" />
<path d="M137.8500 6.6946
L138.6362 6.6946
" />
<path d="M139.0595 5.4246
L139.8457 5.4246
" />
<path d="M139.8457 5.4246
L139.4223 5.9084
" />
<path d="M139.4223 5.9084
L139.6038 5.9084
" />
<path d="M139.6038 5.9084
L139.7247 5.9689
" />
<path d="M139.7247 5.9689
L139.7852 6.0294
" />
<path d="M139.7852 6.0294
L139.8457 6.1503
" />
<path d="M139.8457 6.1503
L139.8457 6.4527
" />
<path d="M139.8457 6.4527
L139.7852 6.5737
" />
<path d="M139.7852 6.5737
L139.7247 6.6342
" />
<path d="M139.7247 6.6342
L139.6038 6.6946
" />
<path d="M139.6038 6.6946
L139.2409 6.6946
" />
<path d="M139.2409 6.6946
L139.1200 6.6342
" />
<path d="M139.1200 6.6342
L139.0595 6.5737
" />
<path d="M140.2085 5.8480
L140.6923 5.8480
" />
<path d="M140.3899 6.6946
L140.3899 5.6061
" />
<path d="M140.3899 5.6061
L140.4504 5.4851
" />
<path d="M140.4504 5.4851
L140.5714 5.4246
" />
<path d="M140.5714 5.4246
L140.6923 5.4246
" />
<path d="M141.6599 6.6342
L141.5390 6.6946
" />
<path d="M141.5390 6.6946
L141.2971 6.6946
" />
<path d="M141.2971 6.6946
L141.1761 6.6342
" />
<path d="M141.1761 6.6342
L141.1156 6.5737
" />
<path d="M141.1156 6.5737
L141.0552 6.4527
" />
<path d="M141.0552 6.4527
L141.0552 6.0899
" />
<path d="M141.0552 6.0899
L141.1156 5.9689
" />
<path d="M141.1156 5.9689
L141.1761 5.9084
" />
<path d="M141.1761 5.9084
L141.2971 5.8480
" />
<path d="M141.2971 5.8480
L141.5390 5.8480
" />
<path d="M141.5390 5.8480
L141.6599 5.9084
" />
<path d="M142.3857 5.9689
L142.2647 5.9084
" />
<path d="M142.2647 5.9084
L142.2042 5.8480
" />
<path d="M142.2042 5.8480
L142.1438 5.7270
" />
<path d="M142.1438 5.7270
L142.1438 5.6665
" />
<path d="M142.1438 5.6665
L142.2042 5.5456
" />
<path d="M142.2042 5.5456
L142.2647 5.4851
" />
<path d="M142.2647 5.4851
L142.3857 5.4246
" />
<path d="M142.3857 5.4246
L142.6276 5.4246
" />
<path d="M142.6276 5.4246
L142.7485 5.4851
" />
<path d="M142.7485 5.4851
L142.8090 5.5456
" />
<path d="M142.8090 5.5456
L142.8695 5.6665
" />
<path d="M142.8695 5.6665
L142.8695 5.7270
" />
<path d="M142.8695 5.7270
L142.8090 5.8480
" />
<path d="M142.8090 5.8480
L142.7485 5.9084
" />
<path d="M142.7485 5.9084
L142.6276 5.9689
" />
<path d="M142.6276 5.9689
L142.3857 5.9689
" />
<path d="M142.3857 5.9689
L142.2647 6.0294
" />
<path d="M142.2647 6.0294
L142.2042 6.0899
" />
<path d="M142.2042 6.0899
L142.1438 6.2108
" />
<path d="M142.1438 6.2108
L142.1438 6.4527
" />
<path d="M142.1438 6.4527
L142.2042 6.5737
" />
<path d="M142.2042 6.5737
L142.2647 6.6342
" />
<path d="M142.2647 6.6342
L142.3857 6.6946
" />
<path d="M142.3857 6.6946
L142.6276 6.6946
" />
<path d="M142.6276 6.6946
L142.7485 6.6342
" />
<path d="M142.7485 6.6342
L142.8090 6.5737
" />
<path d="M142.8090 6.5737
L142.8695 6.4527
" />
<path d="M142.8695 6.4527
L142.8695 6.2108
" />
<path d="M142.8695 6.2108
L142.8090 6.0899
" />
<path d="M142.8090 6.0899
L142.7485 6.0294
" />
<path d="M142.7485 6.0294
L142.6276 5.9689
" />
<path d="M143.9580 5.8480
L143.9580 6.6946
" />
<path d="M143.6556 5.3642
L143.3533 6.2713
" />
<path d="M143.3533 6.2713
L144.1394 6.2713
" />
<path d="M145.2885 6.6946
L144.5628 6.6946
" />
<path d="M144.9256 6.6946
L144.9256 5.4246
" />
<path d="M144.9256 5.4246
L144.8047 5.6061
" />
<path d="M144.8047 5.6061
L144.6837 5.7270
" />
<path d="M144.6837 5.7270
L144.5628 5.7875
" />
<path d="M145.6513 5.8480
L146.1351 5.8480
" />
<path d="M145.8327 6.6946
L145.8327 5.6061
" />
<path d="M145.8327 5.6061
L145.8932 5.4851
" />
<path d="M145.8932 5.4851
L146.0142 5.4246
" />
<path d="M146.0142 5.4246
L146.1351 5.4246
" />
<path d="M146.4375 5.4246
L147.2841 5.4246
" />
<path d="M147.2841 5.4246
L146.7399 6.6946
" />
<path d="M148.3122 6.6946
L148.3122 6.0294
" />
<path d="M148.3122 6.0294
L148.2517 5.9084
" />
<path d="M148.2517 5.9084
L148.1308 5.8480
" />
<path d="M148.1308 5.8480
L147.8889 5.8480
" />
<path d="M147.8889 5.8480
L147.7679 5.9084
" />
<path d="M148.3122 6.6342
L148.1913 6.6946
" />
<path d="M148.1913 6.6946
L147.8889 6.6946
" />
<path d="M147.8889 6.6946
L147.7679 6.6342
" />
<path d="M147.7679 6.6342
L147.7075 6.5132
" />
<path d="M147.7075 6.5132
L147.7075 6.3922
" />
<path d="M147.7075 6.3922
L147.7679 6.2713
" />
<path d="M147.7679 6.2713
L147.8889 6.2108
" />
<path d="M147.8889 6.2108
L148.1913 6.2108
" />
<path d="M148.1913 6.2108
L148.3122 6.1503
" />
</g></g> 
</svg>
