<?xml version="1.0" standalone="no"?>
 <!DOCTYPE svg PUBLIC "-//W3C//DTD SVG 1.1//EN" 
 "http://www.w3.org/Graphics/SVG/1.1/DTD/svg11.dtd"> 
<svg
  xmlns:svg="http://www.w3.org/2000/svg"
  xmlns="http://www.w3.org/2000/svg"
  xmlns:xlink="http://www.w3.org/1999/xlink"
  version="1.1"
  width="82.5500mm" height="78.6638mm" viewBox="0.0000 0.0000 82.5500 78.6638">
<title>SVG Image created as working.svg date 2023/08/13 05:22:29 </title>
  <desc>Image generated by Eeschema-SVG </desc>
<g style="fill:#000000; fill-opacity:1.0000;stroke:#000000; stroke-opacity:1.0000;
stroke-linecap:round; stroke-linejoin:round;"
 transform="translate(0 0) scale(1 1)">
</g>
<g style="fill:#840000; fill-opacity:0.0; 
stroke:#840000; stroke-width:0.0000; stroke-opacity:1; 
stroke-linecap:round; stroke-linejoin:round;">
</g>
<g style="fill:#840084; fill-opacity:0.0; 
stroke:#840084; stroke-width:0.0000; stroke-opacity:1; 
stroke-linecap:round; stroke-linejoin:round;">
</g>
<g style="fill:#840000; fill-opacity:0.0; 
stroke:#840000; stroke-width:0.0000; stroke-opacity:1; 
stroke-linecap:round; stroke-linejoin:round;">
</g>
<g style="fill:#840084; fill-opacity:0.0; 
stroke:#840084; stroke-width:0.0000; stroke-opacity:1; 
stroke-linecap:round; stroke-linejoin:round;">
</g>
<g style="fill:#006464; fill-opacity:0.0; 
stroke:#006464; stroke-width:0.0000; stroke-opacity:1; 
stroke-linecap:round; stroke-linejoin:round;">
</g>
<g style="fill:#006464; fill-opacity:0.0; 
stroke:#006464; stroke-width:0.1588; stroke-opacity:1; 
stroke-linecap:round; stroke-linejoin:round;">
<text x="29.8510" y="8.2109"
textLength="2.6415" font-size="1.6933" lengthAdjust="spacingAndGlyphs"
text-anchor="middle" opacity="0">U?</text>
<g class="stroked-text"><desc>U?</desc>
<path d="M28.9438 6.8851
L28.9438 7.9132
" />
<path d="M28.9438 7.9132
L29.0043 8.0342
" />
<path d="M29.0043 8.0342
L29.0648 8.0947
" />
<path d="M29.0648 8.0947
L29.1857 8.1551
" />
<path d="M29.1857 8.1551
L29.4276 8.1551
" />
<path d="M29.4276 8.1551
L29.5486 8.0947
" />
<path d="M29.5486 8.0947
L29.6091 8.0342
" />
<path d="M29.6091 8.0342
L29.6695 7.9132
" />
<path d="M29.6695 7.9132
L29.6695 6.8851
" />
<path d="M30.4558 8.0342
L30.5162 8.0947
" />
<path d="M30.5162 8.0947
L30.4558 8.1551
" />
<path d="M30.4558 8.1551
L30.3953 8.0947
" />
<path d="M30.3953 8.0947
L30.4558 8.0342
" />
<path d="M30.4558 8.0342
L30.4558 8.1551
" />
<path d="M30.2139 6.9456
L30.3348 6.8851
" />
<path d="M30.3348 6.8851
L30.6372 6.8851
" />
<path d="M30.6372 6.8851
L30.7581 6.9456
" />
<path d="M30.7581 6.9456
L30.8186 7.0666
" />
<path d="M30.8186 7.0666
L30.8186 7.1875
" />
<path d="M30.8186 7.1875
L30.7581 7.3085
" />
<path d="M30.7581 7.3085
L30.6977 7.3689
" />
<path d="M30.6977 7.3689
L30.5767 7.4294
" />
<path d="M30.5767 7.4294
L30.5162 7.4899
" />
<path d="M30.5162 7.4899
L30.4558 7.6108
" />
<path d="M30.4558 7.6108
L30.4558 7.6713
" />
</g><text x="48.9010" y="8.2109"
textLength="13.6480" font-size="1.6933" lengthAdjust="spacingAndGlyphs"
text-anchor="middle" opacity="0">SC16IS762IBS</text>
<g class="stroked-text"><desc>SC16IS762IBS</desc>
<path d="M42.4301 8.0947
L42.6115 8.1551
" />
<path d="M42.6115 8.1551
L42.9139 8.1551
" />
<path d="M42.9139 8.1551
L43.0348 8.0947
" />
<path d="M43.0348 8.0947
L43.0953 8.0342
" />
<path d="M43.0953 8.0342
L43.1558 7.9132
" />
<path d="M43.1558 7.9132
L43.1558 7.7923
" />
<path d="M43.1558 7.7923
L43.0953 7.6713
" />
<path d="M43.0953 7.6713
L43.0348 7.6108
" />
<path d="M43.0348 7.6108
L42.9139 7.5504
" />
<path d="M42.9139 7.5504
L42.6720 7.4899
" />
<path d="M42.6720 7.4899
L42.5510 7.4294
" />
<path d="M42.5510 7.4294
L42.4905 7.3689
" />
<path d="M42.4905 7.3689
L42.4301 7.2480
" />
<path d="M42.4301 7.2480
L42.4301 7.1270
" />
<path d="M42.4301 7.1270
L42.4905 7.0061
" />
<path d="M42.4905 7.0061
L42.5510 6.9456
" />
<path d="M42.5510 6.9456
L42.6720 6.8851
" />
<path d="M42.6720 6.8851
L42.9743 6.8851
" />
<path d="M42.9743 6.8851
L43.1558 6.9456
" />
<path d="M44.4257 8.0342
L44.3653 8.0947
" />
<path d="M44.3653 8.0947
L44.1838 8.1551
" />
<path d="M44.1838 8.1551
L44.0629 8.1551
" />
<path d="M44.0629 8.1551
L43.8815 8.0947
" />
<path d="M43.8815 8.0947
L43.7605 7.9737
" />
<path d="M43.7605 7.9737
L43.7000 7.8527
" />
<path d="M43.7000 7.8527
L43.6396 7.6108
" />
<path d="M43.6396 7.6108
L43.6396 7.4294
" />
<path d="M43.6396 7.4294
L43.7000 7.1875
" />
<path d="M43.7000 7.1875
L43.7605 7.0666
" />
<path d="M43.7605 7.0666
L43.8815 6.9456
" />
<path d="M43.8815 6.9456
L44.0629 6.8851
" />
<path d="M44.0629 6.8851
L44.1838 6.8851
" />
<path d="M44.1838 6.8851
L44.3653 6.9456
" />
<path d="M44.3653 6.9456
L44.4257 7.0061
" />
<path d="M45.6353 8.1551
L44.9096 8.1551
" />
<path d="M45.2724 8.1551
L45.2724 6.8851
" />
<path d="M45.2724 6.8851
L45.1515 7.0666
" />
<path d="M45.1515 7.0666
L45.0305 7.1875
" />
<path d="M45.0305 7.1875
L44.9096 7.2480
" />
<path d="M46.7238 6.8851
L46.4819 6.8851
" />
<path d="M46.4819 6.8851
L46.3610 6.9456
" />
<path d="M46.3610 6.9456
L46.3005 7.0061
" />
<path d="M46.3005 7.0061
L46.1795 7.1875
" />
<path d="M46.1795 7.1875
L46.1191 7.4294
" />
<path d="M46.1191 7.4294
L46.1191 7.9132
" />
<path d="M46.1191 7.9132
L46.1795 8.0342
" />
<path d="M46.1795 8.0342
L46.2400 8.0947
" />
<path d="M46.2400 8.0947
L46.3610 8.1551
" />
<path d="M46.3610 8.1551
L46.6029 8.1551
" />
<path d="M46.6029 8.1551
L46.7238 8.0947
" />
<path d="M46.7238 8.0947
L46.7843 8.0342
" />
<path d="M46.7843 8.0342
L46.8448 7.9132
" />
<path d="M46.8448 7.9132
L46.8448 7.6108
" />
<path d="M46.8448 7.6108
L46.7843 7.4899
" />
<path d="M46.7843 7.4899
L46.7238 7.4294
" />
<path d="M46.7238 7.4294
L46.6029 7.3689
" />
<path d="M46.6029 7.3689
L46.3610 7.3689
" />
<path d="M46.3610 7.3689
L46.2400 7.4294
" />
<path d="M46.2400 7.4294
L46.1795 7.4899
" />
<path d="M46.1795 7.4899
L46.1191 7.6108
" />
<path d="M47.3890 8.1551
L47.3890 6.8851
" />
<path d="M47.9334 8.0947
L48.1148 8.1551
" />
<path d="M48.1148 8.1551
L48.4172 8.1551
" />
<path d="M48.4172 8.1551
L48.5381 8.0947
" />
<path d="M48.5381 8.0947
L48.5986 8.0342
" />
<path d="M48.5986 8.0342
L48.6591 7.9132
" />
<path d="M48.6591 7.9132
L48.6591 7.7923
" />
<path d="M48.6591 7.7923
L48.5986 7.6713
" />
<path d="M48.5986 7.6713
L48.5381 7.6108
" />
<path d="M48.5381 7.6108
L48.4172 7.5504
" />
<path d="M48.4172 7.5504
L48.1753 7.4899
" />
<path d="M48.1753 7.4899
L48.0543 7.4294
" />
<path d="M48.0543 7.4294
L47.9938 7.3689
" />
<path d="M47.9938 7.3689
L47.9334 7.2480
" />
<path d="M47.9334 7.2480
L47.9334 7.1270
" />
<path d="M47.9334 7.1270
L47.9938 7.0061
" />
<path d="M47.9938 7.0061
L48.0543 6.9456
" />
<path d="M48.0543 6.9456
L48.1753 6.8851
" />
<path d="M48.1753 6.8851
L48.4776 6.8851
" />
<path d="M48.4776 6.8851
L48.6591 6.9456
" />
<path d="M49.0824 6.8851
L49.9290 6.8851
" />
<path d="M49.9290 6.8851
L49.3848 8.1551
" />
<path d="M50.9571 6.8851
L50.7152 6.8851
" />
<path d="M50.7152 6.8851
L50.5943 6.9456
" />
<path d="M50.5943 6.9456
L50.5338 7.0061
" />
<path d="M50.5338 7.0061
L50.4128 7.1875
" />
<path d="M50.4128 7.1875
L50.3524 7.4294
" />
<path d="M50.3524 7.4294
L50.3524 7.9132
" />
<path d="M50.3524 7.9132
L50.4128 8.0342
" />
<path d="M50.4128 8.0342
L50.4733 8.0947
" />
<path d="M50.4733 8.0947
L50.5943 8.1551
" />
<path d="M50.5943 8.1551
L50.8362 8.1551
" />
<path d="M50.8362 8.1551
L50.9571 8.0947
" />
<path d="M50.9571 8.0947
L51.0176 8.0342
" />
<path d="M51.0176 8.0342
L51.0781 7.9132
" />
<path d="M51.0781 7.9132
L51.0781 7.6108
" />
<path d="M51.0781 7.6108
L51.0176 7.4899
" />
<path d="M51.0176 7.4899
L50.9571 7.4294
" />
<path d="M50.9571 7.4294
L50.8362 7.3689
" />
<path d="M50.8362 7.3689
L50.5943 7.3689
" />
<path d="M50.5943 7.3689
L50.4733 7.4294
" />
<path d="M50.4733 7.4294
L50.4128 7.4899
" />
<path d="M50.4128 7.4899
L50.3524 7.6108
" />
<path d="M51.5619 7.0061
L51.6223 6.9456
" />
<path d="M51.6223 6.9456
L51.7433 6.8851
" />
<path d="M51.7433 6.8851
L52.0457 6.8851
" />
<path d="M52.0457 6.8851
L52.1666 6.9456
" />
<path d="M52.1666 6.9456
L52.2271 7.0061
" />
<path d="M52.2271 7.0061
L52.2876 7.1270
" />
<path d="M52.2876 7.1270
L52.2876 7.2480
" />
<path d="M52.2876 7.2480
L52.2271 7.4294
" />
<path d="M52.2271 7.4294
L51.5014 8.1551
" />
<path d="M51.5014 8.1551
L52.2876 8.1551
" />
<path d="M52.8318 8.1551
L52.8318 6.8851
" />
<path d="M53.8600 7.4899
L54.0414 7.5504
" />
<path d="M54.0414 7.5504
L54.1019 7.6108
" />
<path d="M54.1019 7.6108
L54.1623 7.7318
" />
<path d="M54.1623 7.7318
L54.1623 7.9132
" />
<path d="M54.1623 7.9132
L54.1019 8.0342
" />
<path d="M54.1019 8.0342
L54.0414 8.0947
" />
<path d="M54.0414 8.0947
L53.9204 8.1551
" />
<path d="M53.9204 8.1551
L53.4366 8.1551
" />
<path d="M53.4366 8.1551
L53.4366 6.8851
" />
<path d="M53.4366 6.8851
L53.8600 6.8851
" />
<path d="M53.8600 6.8851
L53.9809 6.9456
" />
<path d="M53.9809 6.9456
L54.0414 7.0061
" />
<path d="M54.0414 7.0061
L54.1019 7.1270
" />
<path d="M54.1019 7.1270
L54.1019 7.2480
" />
<path d="M54.1019 7.2480
L54.0414 7.3689
" />
<path d="M54.0414 7.3689
L53.9809 7.4294
" />
<path d="M53.9809 7.4294
L53.8600 7.4899
" />
<path d="M53.8600 7.4899
L53.4366 7.4899
" />
<path d="M54.6462 8.0947
L54.8276 8.1551
" />
<path d="M54.8276 8.1551
L55.1300 8.1551
" />
<path d="M55.1300 8.1551
L55.2509 8.0947
" />
<path d="M55.2509 8.0947
L55.3114 8.0342
" />
<path d="M55.3114 8.0342
L55.3719 7.9132
" />
<path d="M55.3719 7.9132
L55.3719 7.7923
" />
<path d="M55.3719 7.7923
L55.3114 7.6713
" />
<path d="M55.3114 7.6713
L55.2509 7.6108
" />
<path d="M55.2509 7.6108
L55.1300 7.5504
" />
<path d="M55.1300 7.5504
L54.8881 7.4899
" />
<path d="M54.8881 7.4899
L54.7671 7.4294
" />
<path d="M54.7671 7.4294
L54.7066 7.3689
" />
<path d="M54.7066 7.3689
L54.6462 7.2480
" />
<path d="M54.6462 7.2480
L54.6462 7.1270
" />
<path d="M54.6462 7.1270
L54.7066 7.0061
" />
<path d="M54.7066 7.0061
L54.7671 6.9456
" />
<path d="M54.7671 6.9456
L54.8881 6.8851
" />
<path d="M54.8881 6.8851
L55.1904 6.8851
" />
<path d="M55.1904 6.8851
L55.3719 6.9456
" />
</g></g>
<g style="fill:#840084; fill-opacity:0.0; 
stroke:#840084; stroke-width:0.1588; stroke-opacity:1; 
stroke-linecap:round; stroke-linejoin:round;">
<text x="41.2810" y="71.7109"
textLength="62.4521" font-size="1.6933" lengthAdjust="spacingAndGlyphs"
text-anchor="middle" opacity="0">Package_DFN_QFN:VQFN-32-1EP_5x5mm_P0.5mm_EP3.1x3.1mm</text>
<g class="stroked-text"><desc>Package_DFN_QFN:VQFN-32-1EP_5x5mm_P0.5mm_EP3.1x3.1mm</desc>
<path d="M10.4685 71.6551
L10.4685 70.3851
" />
<path d="M10.4685 70.3851
L10.9523 70.3851
" />
<path d="M10.9523 70.3851
L11.0733 70.4456
" />
<path d="M11.0733 70.4456
L11.1338 70.5061
" />
<path d="M11.1338 70.5061
L11.1942 70.6270
" />
<path d="M11.1942 70.6270
L11.1942 70.8085
" />
<path d="M11.1942 70.8085
L11.1338 70.9294
" />
<path d="M11.1338 70.9294
L11.0733 70.9899
" />
<path d="M11.0733 70.9899
L10.9523 71.0504
" />
<path d="M10.9523 71.0504
L10.4685 71.0504
" />
<path d="M12.2828 71.6551
L12.2828 70.9899
" />
<path d="M12.2828 70.9899
L12.2223 70.8689
" />
<path d="M12.2223 70.8689
L12.1014 70.8085
" />
<path d="M12.1014 70.8085
L11.8595 70.8085
" />
<path d="M11.8595 70.8085
L11.7385 70.8689
" />
<path d="M12.2828 71.5947
L12.1619 71.6551
" />
<path d="M12.1619 71.6551
L11.8595 71.6551
" />
<path d="M11.8595 71.6551
L11.7385 71.5947
" />
<path d="M11.7385 71.5947
L11.6781 71.4737
" />
<path d="M11.6781 71.4737
L11.6781 71.3527
" />
<path d="M11.6781 71.3527
L11.7385 71.2318
" />
<path d="M11.7385 71.2318
L11.8595 71.1713
" />
<path d="M11.8595 71.1713
L12.1619 71.1713
" />
<path d="M12.1619 71.1713
L12.2828 71.1108
" />
<path d="M13.4318 71.5947
L13.3109 71.6551
" />
<path d="M13.3109 71.6551
L13.0690 71.6551
" />
<path d="M13.0690 71.6551
L12.9480 71.5947
" />
<path d="M12.9480 71.5947
L12.8875 71.5342
" />
<path d="M12.8875 71.5342
L12.8271 71.4132
" />
<path d="M12.8271 71.4132
L12.8271 71.0504
" />
<path d="M12.8271 71.0504
L12.8875 70.9294
" />
<path d="M12.8875 70.9294
L12.9480 70.8689
" />
<path d="M12.9480 70.8689
L13.0690 70.8085
" />
<path d="M13.0690 70.8085
L13.3109 70.8085
" />
<path d="M13.3109 70.8085
L13.4318 70.8689
" />
<path d="M13.9761 71.6551
L13.9761 70.3851
" />
<path d="M14.0971 71.1713
L14.4599 71.6551
" />
<path d="M14.4599 70.8085
L13.9761 71.2923
" />
<path d="M15.5485 71.6551
L15.5485 70.9899
" />
<path d="M15.5485 70.9899
L15.4880 70.8689
" />
<path d="M15.4880 70.8689
L15.3671 70.8085
" />
<path d="M15.3671 70.8085
L15.1252 70.8085
" />
<path d="M15.1252 70.8085
L15.0042 70.8689
" />
<path d="M15.5485 71.5947
L15.4276 71.6551
" />
<path d="M15.4276 71.6551
L15.1252 71.6551
" />
<path d="M15.1252 71.6551
L15.0042 71.5947
" />
<path d="M15.0042 71.5947
L14.9438 71.4737
" />
<path d="M14.9438 71.4737
L14.9438 71.3527
" />
<path d="M14.9438 71.3527
L15.0042 71.2318
" />
<path d="M15.0042 71.2318
L15.1252 71.1713
" />
<path d="M15.1252 71.1713
L15.4276 71.1713
" />
<path d="M15.4276 71.1713
L15.5485 71.1108
" />
<path d="M16.6975 70.8085
L16.6975 71.8366
" />
<path d="M16.6975 71.8366
L16.6370 71.9575
" />
<path d="M16.6370 71.9575
L16.5766 72.0180
" />
<path d="M16.5766 72.0180
L16.4556 72.0785
" />
<path d="M16.4556 72.0785
L16.2742 72.0785
" />
<path d="M16.2742 72.0785
L16.1532 72.0180
" />
<path d="M16.6975 71.5947
L16.5766 71.6551
" />
<path d="M16.5766 71.6551
L16.3347 71.6551
" />
<path d="M16.3347 71.6551
L16.2137 71.5947
" />
<path d="M16.2137 71.5947
L16.1532 71.5342
" />
<path d="M16.1532 71.5342
L16.0928 71.4132
" />
<path d="M16.0928 71.4132
L16.0928 71.0504
" />
<path d="M16.0928 71.0504
L16.1532 70.9294
" />
<path d="M16.1532 70.9294
L16.2137 70.8689
" />
<path d="M16.2137 70.8689
L16.3347 70.8085
" />
<path d="M16.3347 70.8085
L16.5766 70.8085
" />
<path d="M16.5766 70.8085
L16.6975 70.8689
" />
<path d="M17.7860 71.5947
L17.6651 71.6551
" />
<path d="M17.6651 71.6551
L17.4232 71.6551
" />
<path d="M17.4232 71.6551
L17.3022 71.5947
" />
<path d="M17.3022 71.5947
L17.2418 71.4737
" />
<path d="M17.2418 71.4737
L17.2418 70.9899
" />
<path d="M17.2418 70.9899
L17.3022 70.8689
" />
<path d="M17.3022 70.8689
L17.4232 70.8085
" />
<path d="M17.4232 70.8085
L17.6651 70.8085
" />
<path d="M17.6651 70.8085
L17.7860 70.8689
" />
<path d="M17.7860 70.8689
L17.8465 70.9899
" />
<path d="M17.8465 70.9899
L17.8465 71.1108
" />
<path d="M17.8465 71.1108
L17.2418 71.2318
" />
<path d="M18.0885 71.7761
L19.0561 71.7761
" />
<path d="M19.3584 71.6551
L19.3584 70.3851
" />
<path d="M19.3584 70.3851
L19.6608 70.3851
" />
<path d="M19.6608 70.3851
L19.8422 70.4456
" />
<path d="M19.8422 70.4456
L19.9632 70.5666
" />
<path d="M19.9632 70.5666
L20.0237 70.6875
" />
<path d="M20.0237 70.6875
L20.0841 70.9294
" />
<path d="M20.0841 70.9294
L20.0841 71.1108
" />
<path d="M20.0841 71.1108
L20.0237 71.3527
" />
<path d="M20.0237 71.3527
L19.9632 71.4737
" />
<path d="M19.9632 71.4737
L19.8422 71.5947
" />
<path d="M19.8422 71.5947
L19.6608 71.6551
" />
<path d="M19.6608 71.6551
L19.3584 71.6551
" />
<path d="M21.0518 70.9899
L20.6284 70.9899
" />
<path d="M20.6284 71.6551
L20.6284 70.3851
" />
<path d="M20.6284 70.3851
L21.2332 70.3851
" />
<path d="M21.7170 71.6551
L21.7170 70.3851
" />
<path d="M21.7170 70.3851
L22.4427 71.6551
" />
<path d="M22.4427 71.6551
L22.4427 70.3851
" />
<path d="M22.7452 71.7761
L23.7128 71.7761
" />
<path d="M24.8618 71.7761
L24.7408 71.7156
" />
<path d="M24.7408 71.7156
L24.6199 71.5947
" />
<path d="M24.6199 71.5947
L24.4385 71.4132
" />
<path d="M24.4385 71.4132
L24.3175 71.3527
" />
<path d="M24.3175 71.3527
L24.1966 71.3527
" />
<path d="M24.2570 71.6551
L24.1361 71.5947
" />
<path d="M24.1361 71.5947
L24.0151 71.4737
" />
<path d="M24.0151 71.4737
L23.9547 71.2318
" />
<path d="M23.9547 71.2318
L23.9547 70.8085
" />
<path d="M23.9547 70.8085
L24.0151 70.5666
" />
<path d="M24.0151 70.5666
L24.1361 70.4456
" />
<path d="M24.1361 70.4456
L24.2570 70.3851
" />
<path d="M24.2570 70.3851
L24.4989 70.3851
" />
<path d="M24.4989 70.3851
L24.6199 70.4456
" />
<path d="M24.6199 70.4456
L24.7408 70.5666
" />
<path d="M24.7408 70.5666
L24.8013 70.8085
" />
<path d="M24.8013 70.8085
L24.8013 71.2318
" />
<path d="M24.8013 71.2318
L24.7408 71.4737
" />
<path d="M24.7408 71.4737
L24.6199 71.5947
" />
<path d="M24.6199 71.5947
L24.4989 71.6551
" />
<path d="M24.4989 71.6551
L24.2570 71.6551
" />
<path d="M25.7690 70.9899
L25.3456 70.9899
" />
<path d="M25.3456 71.6551
L25.3456 70.3851
" />
<path d="M25.3456 70.3851
L25.9504 70.3851
" />
<path d="M26.4342 71.6551
L26.4342 70.3851
" />
<path d="M26.4342 70.3851
L27.1599 71.6551
" />
<path d="M27.1599 71.6551
L27.1599 70.3851
" />
<path d="M27.7647 71.5342
L27.8252 71.5947
" />
<path d="M27.8252 71.5947
L27.7647 71.6551
" />
<path d="M27.7647 71.6551
L27.7043 71.5947
" />
<path d="M27.7043 71.5947
L27.7647 71.5342
" />
<path d="M27.7647 71.5342
L27.7647 71.6551
" />
<path d="M27.7647 70.8689
L27.8252 70.9294
" />
<path d="M27.8252 70.9294
L27.7647 70.9899
" />
<path d="M27.7647 70.9899
L27.7043 70.9294
" />
<path d="M27.7043 70.9294
L27.7647 70.8689
" />
<path d="M27.7647 70.8689
L27.7647 70.9899
" />
<path d="M28.1881 70.3851
L28.6114 71.6551
" />
<path d="M28.6114 71.6551
L29.0348 70.3851
" />
<path d="M30.3048 71.7761
L30.1838 71.7156
" />
<path d="M30.1838 71.7156
L30.0629 71.5947
" />
<path d="M30.0629 71.5947
L29.8815 71.4132
" />
<path d="M29.8815 71.4132
L29.7605 71.3527
" />
<path d="M29.7605 71.3527
L29.6396 71.3527
" />
<path d="M29.7000 71.6551
L29.5791 71.5947
" />
<path d="M29.5791 71.5947
L29.4581 71.4737
" />
<path d="M29.4581 71.4737
L29.3977 71.2318
" />
<path d="M29.3977 71.2318
L29.3977 70.8085
" />
<path d="M29.3977 70.8085
L29.4581 70.5666
" />
<path d="M29.4581 70.5666
L29.5791 70.4456
" />
<path d="M29.5791 70.4456
L29.7000 70.3851
" />
<path d="M29.7000 70.3851
L29.9419 70.3851
" />
<path d="M29.9419 70.3851
L30.0629 70.4456
" />
<path d="M30.0629 70.4456
L30.1838 70.5666
" />
<path d="M30.1838 70.5666
L30.2443 70.8085
" />
<path d="M30.2443 70.8085
L30.2443 71.2318
" />
<path d="M30.2443 71.2318
L30.1838 71.4737
" />
<path d="M30.1838 71.4737
L30.0629 71.5947
" />
<path d="M30.0629 71.5947
L29.9419 71.6551
" />
<path d="M29.9419 71.6551
L29.7000 71.6551
" />
<path d="M31.2120 70.9899
L30.7886 70.9899
" />
<path d="M30.7886 71.6551
L30.7886 70.3851
" />
<path d="M30.7886 70.3851
L31.3934 70.3851
" />
<path d="M31.8772 71.6551
L31.8772 70.3851
" />
<path d="M31.8772 70.3851
L32.6029 71.6551
" />
<path d="M32.6029 71.6551
L32.6029 70.3851
" />
<path d="M33.2077 71.1713
L34.1754 71.1713
" />
<path d="M34.6592 70.3851
L35.4454 70.3851
" />
<path d="M35.4454 70.3851
L35.0220 70.8689
" />
<path d="M35.0220 70.8689
L35.2035 70.8689
" />
<path d="M35.2035 70.8689
L35.3244 70.9294
" />
<path d="M35.3244 70.9294
L35.3849 70.9899
" />
<path d="M35.3849 70.9899
L35.4454 71.1108
" />
<path d="M35.4454 71.1108
L35.4454 71.4132
" />
<path d="M35.4454 71.4132
L35.3849 71.5342
" />
<path d="M35.3849 71.5342
L35.3244 71.5947
" />
<path d="M35.3244 71.5947
L35.2035 71.6551
" />
<path d="M35.2035 71.6551
L34.8406 71.6551
" />
<path d="M34.8406 71.6551
L34.7197 71.5947
" />
<path d="M34.7197 71.5947
L34.6592 71.5342
" />
<path d="M35.9292 70.5061
L35.9896 70.4456
" />
<path d="M35.9896 70.4456
L36.1106 70.3851
" />
<path d="M36.1106 70.3851
L36.4130 70.3851
" />
<path d="M36.4130 70.3851
L36.5339 70.4456
" />
<path d="M36.5339 70.4456
L36.5944 70.5061
" />
<path d="M36.5944 70.5061
L36.6549 70.6270
" />
<path d="M36.6549 70.6270
L36.6549 70.7480
" />
<path d="M36.6549 70.7480
L36.5944 70.9294
" />
<path d="M36.5944 70.9294
L35.8687 71.6551
" />
<path d="M35.8687 71.6551
L36.6549 71.6551
" />
<path d="M37.1991 71.1713
L38.1668 71.1713
" />
<path d="M39.4368 71.6551
L38.7111 71.6551
" />
<path d="M39.0739 71.6551
L39.0739 70.3851
" />
<path d="M39.0739 70.3851
L38.9530 70.5666
" />
<path d="M38.9530 70.5666
L38.8320 70.6875
" />
<path d="M38.8320 70.6875
L38.7111 70.7480
" />
<path d="M39.9810 70.9899
L40.4044 70.9899
" />
<path d="M40.5858 71.6551
L39.9810 71.6551
" />
<path d="M39.9810 71.6551
L39.9810 70.3851
" />
<path d="M39.9810 70.3851
L40.5858 70.3851
" />
<path d="M41.1300 71.6551
L41.1300 70.3851
" />
<path d="M41.1300 70.3851
L41.6138 70.3851
" />
<path d="M41.6138 70.3851
L41.7348 70.4456
" />
<path d="M41.7348 70.4456
L41.7953 70.5061
" />
<path d="M41.7953 70.5061
L41.8557 70.6270
" />
<path d="M41.8557 70.6270
L41.8557 70.8085
" />
<path d="M41.8557 70.8085
L41.7953 70.9294
" />
<path d="M41.7953 70.9294
L41.7348 70.9899
" />
<path d="M41.7348 70.9899
L41.6138 71.0504
" />
<path d="M41.6138 71.0504
L41.1300 71.0504
" />
<path d="M42.0977 71.7761
L43.0653 71.7761
" />
<path d="M43.9724 70.3851
L43.3676 70.3851
" />
<path d="M43.3676 70.3851
L43.3072 70.9899
" />
<path d="M43.3072 70.9899
L43.3676 70.9294
" />
<path d="M43.3676 70.9294
L43.4886 70.8689
" />
<path d="M43.4886 70.8689
L43.7910 70.8689
" />
<path d="M43.7910 70.8689
L43.9119 70.9294
" />
<path d="M43.9119 70.9294
L43.9724 70.9899
" />
<path d="M43.9724 70.9899
L44.0329 71.1108
" />
<path d="M44.0329 71.1108
L44.0329 71.4132
" />
<path d="M44.0329 71.4132
L43.9724 71.5342
" />
<path d="M43.9724 71.5342
L43.9119 71.5947
" />
<path d="M43.9119 71.5947
L43.7910 71.6551
" />
<path d="M43.7910 71.6551
L43.4886 71.6551
" />
<path d="M43.4886 71.6551
L43.3676 71.5947
" />
<path d="M43.3676 71.5947
L43.3072 71.5342
" />
<path d="M44.4562 71.6551
L45.1214 70.8085
" />
<path d="M44.4562 70.8085
L45.1214 71.6551
" />
<path d="M46.2100 70.3851
L45.6052 70.3851
" />
<path d="M45.6052 70.3851
L45.5448 70.9899
" />
<path d="M45.5448 70.9899
L45.6052 70.9294
" />
<path d="M45.6052 70.9294
L45.7262 70.8689
" />
<path d="M45.7262 70.8689
L46.0286 70.8689
" />
<path d="M46.0286 70.8689
L46.1495 70.9294
" />
<path d="M46.1495 70.9294
L46.2100 70.9899
" />
<path d="M46.2100 70.9899
L46.2705 71.1108
" />
<path d="M46.2705 71.1108
L46.2705 71.4132
" />
<path d="M46.2705 71.4132
L46.2100 71.5342
" />
<path d="M46.2100 71.5342
L46.1495 71.5947
" />
<path d="M46.1495 71.5947
L46.0286 71.6551
" />
<path d="M46.0286 71.6551
L45.7262 71.6551
" />
<path d="M45.7262 71.6551
L45.6052 71.5947
" />
<path d="M45.6052 71.5947
L45.5448 71.5342
" />
<path d="M46.8147 71.6551
L46.8147 70.8085
" />
<path d="M46.8147 70.9294
L46.8752 70.8689
" />
<path d="M46.8752 70.8689
L46.9962 70.8085
" />
<path d="M46.9962 70.8085
L47.1776 70.8085
" />
<path d="M47.1776 70.8085
L47.2985 70.8689
" />
<path d="M47.2985 70.8689
L47.3590 70.9899
" />
<path d="M47.3590 70.9899
L47.3590 71.6551
" />
<path d="M47.3590 70.9899
L47.4195 70.8689
" />
<path d="M47.4195 70.8689
L47.5404 70.8085
" />
<path d="M47.5404 70.8085
L47.7219 70.8085
" />
<path d="M47.7219 70.8085
L47.8428 70.8689
" />
<path d="M47.8428 70.8689
L47.9033 70.9899
" />
<path d="M47.9033 70.9899
L47.9033 71.6551
" />
<path d="M48.5080 71.6551
L48.5080 70.8085
" />
<path d="M48.5080 70.9294
L48.5685 70.8689
" />
<path d="M48.5685 70.8689
L48.6895 70.8085
" />
<path d="M48.6895 70.8085
L48.8709 70.8085
" />
<path d="M48.8709 70.8085
L48.9918 70.8689
" />
<path d="M48.9918 70.8689
L49.0523 70.9899
" />
<path d="M49.0523 70.9899
L49.0523 71.6551
" />
<path d="M49.0523 70.9899
L49.1128 70.8689
" />
<path d="M49.1128 70.8689
L49.2337 70.8085
" />
<path d="M49.2337 70.8085
L49.4152 70.8085
" />
<path d="M49.4152 70.8085
L49.5361 70.8689
" />
<path d="M49.5361 70.8689
L49.5966 70.9899
" />
<path d="M49.5966 70.9899
L49.5966 71.6551
" />
<path d="M49.8990 71.7761
L50.8666 71.7761
" />
<path d="M51.1689 71.6551
L51.1689 70.3851
" />
<path d="M51.1689 70.3851
L51.6527 70.3851
" />
<path d="M51.6527 70.3851
L51.7737 70.4456
" />
<path d="M51.7737 70.4456
L51.8342 70.5061
" />
<path d="M51.8342 70.5061
L51.8946 70.6270
" />
<path d="M51.8946 70.6270
L51.8946 70.8085
" />
<path d="M51.8946 70.8085
L51.8342 70.9294
" />
<path d="M51.8342 70.9294
L51.7737 70.9899
" />
<path d="M51.7737 70.9899
L51.6527 71.0504
" />
<path d="M51.6527 71.0504
L51.1689 71.0504
" />
<path d="M52.6808 70.3851
L52.8018 70.3851
" />
<path d="M52.8018 70.3851
L52.9227 70.4456
" />
<path d="M52.9227 70.4456
L52.9832 70.5061
" />
<path d="M52.9832 70.5061
L53.0437 70.6270
" />
<path d="M53.0437 70.6270
L53.1042 70.8689
" />
<path d="M53.1042 70.8689
L53.1042 71.1713
" />
<path d="M53.1042 71.1713
L53.0437 71.4132
" />
<path d="M53.0437 71.4132
L52.9832 71.5342
" />
<path d="M52.9832 71.5342
L52.9227 71.5947
" />
<path d="M52.9227 71.5947
L52.8018 71.6551
" />
<path d="M52.8018 71.6551
L52.6808 71.6551
" />
<path d="M52.6808 71.6551
L52.5599 71.5947
" />
<path d="M52.5599 71.5947
L52.4994 71.5342
" />
<path d="M52.4994 71.5342
L52.4389 71.4132
" />
<path d="M52.4389 71.4132
L52.3785 71.1713
" />
<path d="M52.3785 71.1713
L52.3785 70.8689
" />
<path d="M52.3785 70.8689
L52.4389 70.6270
" />
<path d="M52.4389 70.6270
L52.4994 70.5061
" />
<path d="M52.4994 70.5061
L52.5599 70.4456
" />
<path d="M52.5599 70.4456
L52.6808 70.3851
" />
<path d="M53.6484 71.5342
L53.7089 71.5947
" />
<path d="M53.7089 71.5947
L53.6484 71.6551
" />
<path d="M53.6484 71.6551
L53.5880 71.5947
" />
<path d="M53.5880 71.5947
L53.6484 71.5342
" />
<path d="M53.6484 71.5342
L53.6484 71.6551
" />
<path d="M54.8580 70.3851
L54.2532 70.3851
" />
<path d="M54.2532 70.3851
L54.1928 70.9899
" />
<path d="M54.1928 70.9899
L54.2532 70.9294
" />
<path d="M54.2532 70.9294
L54.3742 70.8689
" />
<path d="M54.3742 70.8689
L54.6766 70.8689
" />
<path d="M54.6766 70.8689
L54.7975 70.9294
" />
<path d="M54.7975 70.9294
L54.8580 70.9899
" />
<path d="M54.8580 70.9899
L54.9185 71.1108
" />
<path d="M54.9185 71.1108
L54.9185 71.4132
" />
<path d="M54.9185 71.4132
L54.8580 71.5342
" />
<path d="M54.8580 71.5342
L54.7975 71.5947
" />
<path d="M54.7975 71.5947
L54.6766 71.6551
" />
<path d="M54.6766 71.6551
L54.3742 71.6551
" />
<path d="M54.3742 71.6551
L54.2532 71.5947
" />
<path d="M54.2532 71.5947
L54.1928 71.5342
" />
<path d="M55.4627 71.6551
L55.4627 70.8085
" />
<path d="M55.4627 70.9294
L55.5232 70.8689
" />
<path d="M55.5232 70.8689
L55.6442 70.8085
" />
<path d="M55.6442 70.8085
L55.8256 70.8085
" />
<path d="M55.8256 70.8085
L55.9465 70.8689
" />
<path d="M55.9465 70.8689
L56.0070 70.9899
" />
<path d="M56.0070 70.9899
L56.0070 71.6551
" />
<path d="M56.0070 70.9899
L56.0675 70.8689
" />
<path d="M56.0675 70.8689
L56.1884 70.8085
" />
<path d="M56.1884 70.8085
L56.3699 70.8085
" />
<path d="M56.3699 70.8085
L56.4908 70.8689
" />
<path d="M56.4908 70.8689
L56.5513 70.9899
" />
<path d="M56.5513 70.9899
L56.5513 71.6551
" />
<path d="M57.1560 71.6551
L57.1560 70.8085
" />
<path d="M57.1560 70.9294
L57.2165 70.8689
" />
<path d="M57.2165 70.8689
L57.3375 70.8085
" />
<path d="M57.3375 70.8085
L57.5189 70.8085
" />
<path d="M57.5189 70.8085
L57.6398 70.8689
" />
<path d="M57.6398 70.8689
L57.7003 70.9899
" />
<path d="M57.7003 70.9899
L57.7003 71.6551
" />
<path d="M57.7003 70.9899
L57.7608 70.8689
" />
<path d="M57.7608 70.8689
L57.8817 70.8085
" />
<path d="M57.8817 70.8085
L58.0632 70.8085
" />
<path d="M58.0632 70.8085
L58.1841 70.8689
" />
<path d="M58.1841 70.8689
L58.2446 70.9899
" />
<path d="M58.2446 70.9899
L58.2446 71.6551
" />
<path d="M58.5470 71.7761
L59.5146 71.7761
" />
<path d="M59.8169 70.9899
L60.2403 70.9899
" />
<path d="M60.4217 71.6551
L59.8169 71.6551
" />
<path d="M59.8169 71.6551
L59.8169 70.3851
" />
<path d="M59.8169 70.3851
L60.4217 70.3851
" />
<path d="M60.9659 71.6551
L60.9659 70.3851
" />
<path d="M60.9659 70.3851
L61.4497 70.3851
" />
<path d="M61.4497 70.3851
L61.5707 70.4456
" />
<path d="M61.5707 70.4456
L61.6312 70.5061
" />
<path d="M61.6312 70.5061
L61.6916 70.6270
" />
<path d="M61.6916 70.6270
L61.6916 70.8085
" />
<path d="M61.6916 70.8085
L61.6312 70.9294
" />
<path d="M61.6312 70.9294
L61.5707 70.9899
" />
<path d="M61.5707 70.9899
L61.4497 71.0504
" />
<path d="M61.4497 71.0504
L60.9659 71.0504
" />
<path d="M62.1150 70.3851
L62.9012 70.3851
" />
<path d="M62.9012 70.3851
L62.4778 70.8689
" />
<path d="M62.4778 70.8689
L62.6593 70.8689
" />
<path d="M62.6593 70.8689
L62.7802 70.9294
" />
<path d="M62.7802 70.9294
L62.8407 70.9899
" />
<path d="M62.8407 70.9899
L62.9012 71.1108
" />
<path d="M62.9012 71.1108
L62.9012 71.4132
" />
<path d="M62.9012 71.4132
L62.8407 71.5342
" />
<path d="M62.8407 71.5342
L62.7802 71.5947
" />
<path d="M62.7802 71.5947
L62.6593 71.6551
" />
<path d="M62.6593 71.6551
L62.2964 71.6551
" />
<path d="M62.2964 71.6551
L62.1755 71.5947
" />
<path d="M62.1755 71.5947
L62.1150 71.5342
" />
<path d="M63.4454 71.5342
L63.5059 71.5947
" />
<path d="M63.5059 71.5947
L63.4454 71.6551
" />
<path d="M63.4454 71.6551
L63.3850 71.5947
" />
<path d="M63.3850 71.5947
L63.4454 71.5342
" />
<path d="M63.4454 71.5342
L63.4454 71.6551
" />
<path d="M64.7155 71.6551
L63.9898 71.6551
" />
<path d="M64.3526 71.6551
L64.3526 70.3851
" />
<path d="M64.3526 70.3851
L64.2317 70.5666
" />
<path d="M64.2317 70.5666
L64.1107 70.6875
" />
<path d="M64.1107 70.6875
L63.9898 70.7480
" />
<path d="M65.1388 71.6551
L65.8040 70.8085
" />
<path d="M65.1388 70.8085
L65.8040 71.6551
" />
<path d="M66.1669 70.3851
L66.9531 70.3851
" />
<path d="M66.9531 70.3851
L66.5297 70.8689
" />
<path d="M66.5297 70.8689
L66.7112 70.8689
" />
<path d="M66.7112 70.8689
L66.8321 70.9294
" />
<path d="M66.8321 70.9294
L66.8926 70.9899
" />
<path d="M66.8926 70.9899
L66.9531 71.1108
" />
<path d="M66.9531 71.1108
L66.9531 71.4132
" />
<path d="M66.9531 71.4132
L66.8926 71.5342
" />
<path d="M66.8926 71.5342
L66.8321 71.5947
" />
<path d="M66.8321 71.5947
L66.7112 71.6551
" />
<path d="M66.7112 71.6551
L66.3483 71.6551
" />
<path d="M66.3483 71.6551
L66.2274 71.5947
" />
<path d="M66.2274 71.5947
L66.1669 71.5342
" />
<path d="M67.4973 71.5342
L67.5578 71.5947
" />
<path d="M67.5578 71.5947
L67.4973 71.6551
" />
<path d="M67.4973 71.6551
L67.4369 71.5947
" />
<path d="M67.4369 71.5947
L67.4973 71.5342
" />
<path d="M67.4973 71.5342
L67.4973 71.6551
" />
<path d="M68.7674 71.6551
L68.0417 71.6551
" />
<path d="M68.4045 71.6551
L68.4045 70.3851
" />
<path d="M68.4045 70.3851
L68.2836 70.5666
" />
<path d="M68.2836 70.5666
L68.1626 70.6875
" />
<path d="M68.1626 70.6875
L68.0417 70.7480
" />
<path d="M69.3116 71.6551
L69.3116 70.8085
" />
<path d="M69.3116 70.9294
L69.3721 70.8689
" />
<path d="M69.3721 70.8689
L69.4931 70.8085
" />
<path d="M69.4931 70.8085
L69.6745 70.8085
" />
<path d="M69.6745 70.8085
L69.7954 70.8689
" />
<path d="M69.7954 70.8689
L69.8559 70.9899
" />
<path d="M69.8559 70.9899
L69.8559 71.6551
" />
<path d="M69.8559 70.9899
L69.9164 70.8689
" />
<path d="M69.9164 70.8689
L70.0373 70.8085
" />
<path d="M70.0373 70.8085
L70.2188 70.8085
" />
<path d="M70.2188 70.8085
L70.3397 70.8689
" />
<path d="M70.3397 70.8689
L70.4002 70.9899
" />
<path d="M70.4002 70.9899
L70.4002 71.6551
" />
<path d="M71.0049 71.6551
L71.0049 70.8085
" />
<path d="M71.0049 70.9294
L71.0654 70.8689
" />
<path d="M71.0654 70.8689
L71.1864 70.8085
" />
<path d="M71.1864 70.8085
L71.3678 70.8085
" />
<path d="M71.3678 70.8085
L71.4887 70.8689
" />
<path d="M71.4887 70.8689
L71.5492 70.9899
" />
<path d="M71.5492 70.9899
L71.5492 71.6551
" />
<path d="M71.5492 70.9899
L71.6097 70.8689
" />
<path d="M71.6097 70.8689
L71.7306 70.8085
" />
<path d="M71.7306 70.8085
L71.9121 70.8085
" />
<path d="M71.9121 70.8085
L72.0330 70.8689
" />
<path d="M72.0330 70.8689
L72.0935 70.9899
" />
<path d="M72.0935 70.9899
L72.0935 71.6551
" />
</g><text x="41.2810" y="67.9009"
textLength="68.8019" font-size="1.6933" lengthAdjust="spacingAndGlyphs"
text-anchor="middle" opacity="0">https://www.nxp.com/docs/en/data-sheet/SC16IS752_SC16IS762.pdf</text>
<g class="stroked-text"><desc>https://www.nxp.com/docs/en/data-sheet/SC16IS752_SC16IS762.pdf</desc>
<path d="M7.2936 67.8451
L7.2936 66.5751
" />
<path d="M7.8379 67.8451
L7.8379 67.1799
" />
<path d="M7.8379 67.1799
L7.7774 67.0589
" />
<path d="M7.7774 67.0589
L7.6565 66.9985
" />
<path d="M7.6565 66.9985
L7.4751 66.9985
" />
<path d="M7.4751 66.9985
L7.3541 67.0589
" />
<path d="M7.3541 67.0589
L7.2936 67.1194
" />
<path d="M8.2612 66.9985
L8.7450 66.9985
" />
<path d="M8.4426 66.5751
L8.4426 67.6637
" />
<path d="M8.4426 67.6637
L8.5031 67.7847
" />
<path d="M8.5031 67.7847
L8.6241 67.8451
" />
<path d="M8.6241 67.8451
L8.7450 67.8451
" />
<path d="M8.9869 66.9985
L9.4707 66.9985
" />
<path d="M9.1683 66.5751
L9.1683 67.6637
" />
<path d="M9.1683 67.6637
L9.2288 67.7847
" />
<path d="M9.2288 67.7847
L9.3498 67.8451
" />
<path d="M9.3498 67.8451
L9.4707 67.8451
" />
<path d="M9.8940 66.9985
L9.8940 68.2685
" />
<path d="M9.8940 67.0589
L10.0150 66.9985
" />
<path d="M10.0150 66.9985
L10.2569 66.9985
" />
<path d="M10.2569 66.9985
L10.3778 67.0589
" />
<path d="M10.3778 67.0589
L10.4383 67.1194
" />
<path d="M10.4383 67.1194
L10.4988 67.2404
" />
<path d="M10.4988 67.2404
L10.4988 67.6032
" />
<path d="M10.4988 67.6032
L10.4383 67.7242
" />
<path d="M10.4383 67.7242
L10.3778 67.7847
" />
<path d="M10.3778 67.7847
L10.2569 67.8451
" />
<path d="M10.2569 67.8451
L10.0150 67.8451
" />
<path d="M10.0150 67.8451
L9.8940 67.7847
" />
<path d="M10.9826 67.7847
L11.1035 67.8451
" />
<path d="M11.1035 67.8451
L11.3454 67.8451
" />
<path d="M11.3454 67.8451
L11.4664 67.7847
" />
<path d="M11.4664 67.7847
L11.5268 67.6637
" />
<path d="M11.5268 67.6637
L11.5268 67.6032
" />
<path d="M11.5268 67.6032
L11.4664 67.4823
" />
<path d="M11.4664 67.4823
L11.3454 67.4218
" />
<path d="M11.3454 67.4218
L11.1640 67.4218
" />
<path d="M11.1640 67.4218
L11.0430 67.3613
" />
<path d="M11.0430 67.3613
L10.9826 67.2404
" />
<path d="M10.9826 67.2404
L10.9826 67.1799
" />
<path d="M10.9826 67.1799
L11.0430 67.0589
" />
<path d="M11.0430 67.0589
L11.1640 66.9985
" />
<path d="M11.1640 66.9985
L11.3454 66.9985
" />
<path d="M11.3454 66.9985
L11.4664 67.0589
" />
<path d="M12.0711 67.7242
L12.1316 67.7847
" />
<path d="M12.1316 67.7847
L12.0711 67.8451
" />
<path d="M12.0711 67.8451
L12.0107 67.7847
" />
<path d="M12.0107 67.7847
L12.0711 67.7242
" />
<path d="M12.0711 67.7242
L12.0711 67.8451
" />
<path d="M12.0711 67.0589
L12.1316 67.1194
" />
<path d="M12.1316 67.1194
L12.0711 67.1799
" />
<path d="M12.0711 67.1799
L12.0107 67.1194
" />
<path d="M12.0107 67.1194
L12.0711 67.0589
" />
<path d="M12.0711 67.0589
L12.0711 67.1799
" />
<path d="M13.5831 66.5147
L12.4945 68.1475
" />
<path d="M14.9136 66.5147
L13.8250 68.1475
" />
<path d="M15.2160 66.9985
L15.4579 67.8451
" />
<path d="M15.4579 67.8451
L15.6998 67.2404
" />
<path d="M15.6998 67.2404
L15.9417 67.8451
" />
<path d="M15.9417 67.8451
L16.1836 66.9985
" />
<path d="M16.5465 66.9985
L16.7884 67.8451
" />
<path d="M16.7884 67.8451
L17.0303 67.2404
" />
<path d="M17.0303 67.2404
L17.2722 67.8451
" />
<path d="M17.2722 67.8451
L17.5141 66.9985
" />
<path d="M17.8770 66.9985
L18.1189 67.8451
" />
<path d="M18.1189 67.8451
L18.3608 67.2404
" />
<path d="M18.3608 67.2404
L18.6027 67.8451
" />
<path d="M18.6027 67.8451
L18.8446 66.9985
" />
<path d="M19.3284 67.7242
L19.3889 67.7847
" />
<path d="M19.3889 67.7847
L19.3284 67.8451
" />
<path d="M19.3284 67.8451
L19.2680 67.7847
" />
<path d="M19.2680 67.7847
L19.3284 67.7242
" />
<path d="M19.3284 67.7242
L19.3284 67.8451
" />
<path d="M19.9332 66.9985
L19.9332 67.8451
" />
<path d="M19.9332 67.1194
L19.9937 67.0589
" />
<path d="M19.9937 67.0589
L20.1147 66.9985
" />
<path d="M20.1147 66.9985
L20.2961 66.9985
" />
<path d="M20.2961 66.9985
L20.4170 67.0589
" />
<path d="M20.4170 67.0589
L20.4775 67.1799
" />
<path d="M20.4775 67.1799
L20.4775 67.8451
" />
<path d="M20.9613 67.8451
L21.6265 66.9985
" />
<path d="M20.9613 66.9985
L21.6265 67.8451
" />
<path d="M22.1103 66.9985
L22.1103 68.2685
" />
<path d="M22.1103 67.0589
L22.2313 66.9985
" />
<path d="M22.2313 66.9985
L22.4732 66.9985
" />
<path d="M22.4732 66.9985
L22.5941 67.0589
" />
<path d="M22.5941 67.0589
L22.6546 67.1194
" />
<path d="M22.6546 67.1194
L22.7151 67.2404
" />
<path d="M22.7151 67.2404
L22.7151 67.6032
" />
<path d="M22.7151 67.6032
L22.6546 67.7242
" />
<path d="M22.6546 67.7242
L22.5941 67.7847
" />
<path d="M22.5941 67.7847
L22.4732 67.8451
" />
<path d="M22.4732 67.8451
L22.2313 67.8451
" />
<path d="M22.2313 67.8451
L22.1103 67.7847
" />
<path d="M23.2593 67.7242
L23.3198 67.7847
" />
<path d="M23.3198 67.7847
L23.2593 67.8451
" />
<path d="M23.2593 67.8451
L23.1989 67.7847
" />
<path d="M23.1989 67.7847
L23.2593 67.7242
" />
<path d="M23.2593 67.7242
L23.2593 67.8451
" />
<path d="M24.4084 67.7847
L24.2875 67.8451
" />
<path d="M24.2875 67.8451
L24.0456 67.8451
" />
<path d="M24.0456 67.8451
L23.9246 67.7847
" />
<path d="M23.9246 67.7847
L23.8641 67.7242
" />
<path d="M23.8641 67.7242
L23.8037 67.6032
" />
<path d="M23.8037 67.6032
L23.8037 67.2404
" />
<path d="M23.8037 67.2404
L23.8641 67.1194
" />
<path d="M23.8641 67.1194
L23.9246 67.0589
" />
<path d="M23.9246 67.0589
L24.0456 66.9985
" />
<path d="M24.0456 66.9985
L24.2875 66.9985
" />
<path d="M24.2875 66.9985
L24.4084 67.0589
" />
<path d="M25.1342 67.8451
L25.0132 67.7847
" />
<path d="M25.0132 67.7847
L24.9527 67.7242
" />
<path d="M24.9527 67.7242
L24.8923 67.6032
" />
<path d="M24.8923 67.6032
L24.8923 67.2404
" />
<path d="M24.8923 67.2404
L24.9527 67.1194
" />
<path d="M24.9527 67.1194
L25.0132 67.0589
" />
<path d="M25.0132 67.0589
L25.1342 66.9985
" />
<path d="M25.1342 66.9985
L25.3156 66.9985
" />
<path d="M25.3156 66.9985
L25.4365 67.0589
" />
<path d="M25.4365 67.0589
L25.4970 67.1194
" />
<path d="M25.4970 67.1194
L25.5575 67.2404
" />
<path d="M25.5575 67.2404
L25.5575 67.6032
" />
<path d="M25.5575 67.6032
L25.4970 67.7242
" />
<path d="M25.4970 67.7242
L25.4365 67.7847
" />
<path d="M25.4365 67.7847
L25.3156 67.8451
" />
<path d="M25.3156 67.8451
L25.1342 67.8451
" />
<path d="M26.1017 67.8451
L26.1017 66.9985
" />
<path d="M26.1017 67.1194
L26.1622 67.0589
" />
<path d="M26.1622 67.0589
L26.2832 66.9985
" />
<path d="M26.2832 66.9985
L26.4646 66.9985
" />
<path d="M26.4646 66.9985
L26.5855 67.0589
" />
<path d="M26.5855 67.0589
L26.6460 67.1799
" />
<path d="M26.6460 67.1799
L26.6460 67.8451
" />
<path d="M26.6460 67.1799
L26.7065 67.0589
" />
<path d="M26.7065 67.0589
L26.8274 66.9985
" />
<path d="M26.8274 66.9985
L27.0089 66.9985
" />
<path d="M27.0089 66.9985
L27.1298 67.0589
" />
<path d="M27.1298 67.0589
L27.1903 67.1799
" />
<path d="M27.1903 67.1799
L27.1903 67.8451
" />
<path d="M28.7022 66.5147
L27.6136 68.1475
" />
<path d="M29.6698 67.8451
L29.6698 66.5751
" />
<path d="M29.6698 67.7847
L29.5489 67.8451
" />
<path d="M29.5489 67.8451
L29.3070 67.8451
" />
<path d="M29.3070 67.8451
L29.1860 67.7847
" />
<path d="M29.1860 67.7847
L29.1255 67.7242
" />
<path d="M29.1255 67.7242
L29.0651 67.6032
" />
<path d="M29.0651 67.6032
L29.0651 67.2404
" />
<path d="M29.0651 67.2404
L29.1255 67.1194
" />
<path d="M29.1255 67.1194
L29.1860 67.0589
" />
<path d="M29.1860 67.0589
L29.3070 66.9985
" />
<path d="M29.3070 66.9985
L29.5489 66.9985
" />
<path d="M29.5489 66.9985
L29.6698 67.0589
" />
<path d="M30.4560 67.8451
L30.3350 67.7847
" />
<path d="M30.3350 67.7847
L30.2745 67.7242
" />
<path d="M30.2745 67.7242
L30.2141 67.6032
" />
<path d="M30.2141 67.6032
L30.2141 67.2404
" />
<path d="M30.2141 67.2404
L30.2745 67.1194
" />
<path d="M30.2745 67.1194
L30.3350 67.0589
" />
<path d="M30.3350 67.0589
L30.4560 66.9985
" />
<path d="M30.4560 66.9985
L30.6374 66.9985
" />
<path d="M30.6374 66.9985
L30.7583 67.0589
" />
<path d="M30.7583 67.0589
L30.8188 67.1194
" />
<path d="M30.8188 67.1194
L30.8793 67.2404
" />
<path d="M30.8793 67.2404
L30.8793 67.6032
" />
<path d="M30.8793 67.6032
L30.8188 67.7242
" />
<path d="M30.8188 67.7242
L30.7583 67.7847
" />
<path d="M30.7583 67.7847
L30.6374 67.8451
" />
<path d="M30.6374 67.8451
L30.4560 67.8451
" />
<path d="M31.9678 67.7847
L31.8469 67.8451
" />
<path d="M31.8469 67.8451
L31.6050 67.8451
" />
<path d="M31.6050 67.8451
L31.4840 67.7847
" />
<path d="M31.4840 67.7847
L31.4235 67.7242
" />
<path d="M31.4235 67.7242
L31.3631 67.6032
" />
<path d="M31.3631 67.6032
L31.3631 67.2404
" />
<path d="M31.3631 67.2404
L31.4235 67.1194
" />
<path d="M31.4235 67.1194
L31.4840 67.0589
" />
<path d="M31.4840 67.0589
L31.6050 66.9985
" />
<path d="M31.6050 66.9985
L31.8469 66.9985
" />
<path d="M31.8469 66.9985
L31.9678 67.0589
" />
<path d="M32.4517 67.7847
L32.5726 67.8451
" />
<path d="M32.5726 67.8451
L32.8145 67.8451
" />
<path d="M32.8145 67.8451
L32.9355 67.7847
" />
<path d="M32.9355 67.7847
L32.9959 67.6637
" />
<path d="M32.9959 67.6637
L32.9959 67.6032
" />
<path d="M32.9959 67.6032
L32.9355 67.4823
" />
<path d="M32.9355 67.4823
L32.8145 67.4218
" />
<path d="M32.8145 67.4218
L32.6331 67.4218
" />
<path d="M32.6331 67.4218
L32.5121 67.3613
" />
<path d="M32.5121 67.3613
L32.4517 67.2404
" />
<path d="M32.4517 67.2404
L32.4517 67.1799
" />
<path d="M32.4517 67.1799
L32.5121 67.0589
" />
<path d="M32.5121 67.0589
L32.6331 66.9985
" />
<path d="M32.6331 66.9985
L32.8145 66.9985
" />
<path d="M32.8145 66.9985
L32.9355 67.0589
" />
<path d="M34.4474 66.5147
L33.3588 68.1475
" />
<path d="M35.3545 67.7847
L35.2336 67.8451
" />
<path d="M35.2336 67.8451
L34.9917 67.8451
" />
<path d="M34.9917 67.8451
L34.8707 67.7847
" />
<path d="M34.8707 67.7847
L34.8103 67.6637
" />
<path d="M34.8103 67.6637
L34.8103 67.1799
" />
<path d="M34.8103 67.1799
L34.8707 67.0589
" />
<path d="M34.8707 67.0589
L34.9917 66.9985
" />
<path d="M34.9917 66.9985
L35.2336 66.9985
" />
<path d="M35.2336 66.9985
L35.3545 67.0589
" />
<path d="M35.3545 67.0589
L35.4150 67.1799
" />
<path d="M35.4150 67.1799
L35.4150 67.3008
" />
<path d="M35.4150 67.3008
L34.8103 67.4218
" />
<path d="M35.9593 66.9985
L35.9593 67.8451
" />
<path d="M35.9593 67.1194
L36.0198 67.0589
" />
<path d="M36.0198 67.0589
L36.1408 66.9985
" />
<path d="M36.1408 66.9985
L36.3222 66.9985
" />
<path d="M36.3222 66.9985
L36.4431 67.0589
" />
<path d="M36.4431 67.0589
L36.5036 67.1799
" />
<path d="M36.5036 67.1799
L36.5036 67.8451
" />
<path d="M38.0155 66.5147
L36.9269 68.1475
" />
<path d="M38.9831 67.8451
L38.9831 66.5751
" />
<path d="M38.9831 67.7847
L38.8622 67.8451
" />
<path d="M38.8622 67.8451
L38.6203 67.8451
" />
<path d="M38.6203 67.8451
L38.4993 67.7847
" />
<path d="M38.4993 67.7847
L38.4388 67.7242
" />
<path d="M38.4388 67.7242
L38.3784 67.6032
" />
<path d="M38.3784 67.6032
L38.3784 67.2404
" />
<path d="M38.3784 67.2404
L38.4388 67.1194
" />
<path d="M38.4388 67.1194
L38.4993 67.0589
" />
<path d="M38.4993 67.0589
L38.6203 66.9985
" />
<path d="M38.6203 66.9985
L38.8622 66.9985
" />
<path d="M38.8622 66.9985
L38.9831 67.0589
" />
<path d="M40.1321 67.8451
L40.1321 67.1799
" />
<path d="M40.1321 67.1799
L40.0716 67.0589
" />
<path d="M40.0716 67.0589
L39.9507 66.9985
" />
<path d="M39.9507 66.9985
L39.7088 66.9985
" />
<path d="M39.7088 66.9985
L39.5878 67.0589
" />
<path d="M40.1321 67.7847
L40.0112 67.8451
" />
<path d="M40.0112 67.8451
L39.7088 67.8451
" />
<path d="M39.7088 67.8451
L39.5878 67.7847
" />
<path d="M39.5878 67.7847
L39.5274 67.6637
" />
<path d="M39.5274 67.6637
L39.5274 67.5427
" />
<path d="M39.5274 67.5427
L39.5878 67.4218
" />
<path d="M39.5878 67.4218
L39.7088 67.3613
" />
<path d="M39.7088 67.3613
L40.0112 67.3613
" />
<path d="M40.0112 67.3613
L40.1321 67.3008
" />
<path d="M40.5554 66.9985
L41.0392 66.9985
" />
<path d="M40.7368 66.5751
L40.7368 67.6637
" />
<path d="M40.7368 67.6637
L40.7973 67.7847
" />
<path d="M40.7973 67.7847
L40.9183 67.8451
" />
<path d="M40.9183 67.8451
L41.0392 67.8451
" />
<path d="M42.0068 67.8451
L42.0068 67.1799
" />
<path d="M42.0068 67.1799
L41.9463 67.0589
" />
<path d="M41.9463 67.0589
L41.8254 66.9985
" />
<path d="M41.8254 66.9985
L41.5835 66.9985
" />
<path d="M41.5835 66.9985
L41.4625 67.0589
" />
<path d="M42.0068 67.7847
L41.8859 67.8451
" />
<path d="M41.8859 67.8451
L41.5835 67.8451
" />
<path d="M41.5835 67.8451
L41.4625 67.7847
" />
<path d="M41.4625 67.7847
L41.4021 67.6637
" />
<path d="M41.4021 67.6637
L41.4021 67.5427
" />
<path d="M41.4021 67.5427
L41.4625 67.4218
" />
<path d="M41.4625 67.4218
L41.5835 67.3613
" />
<path d="M41.5835 67.3613
L41.8859 67.3613
" />
<path d="M41.8859 67.3613
L42.0068 67.3008
" />
<path d="M42.6115 67.3613
L43.5792 67.3613
" />
<path d="M44.1235 67.7847
L44.2444 67.8451
" />
<path d="M44.2444 67.8451
L44.4863 67.8451
" />
<path d="M44.4863 67.8451
L44.6073 67.7847
" />
<path d="M44.6073 67.7847
L44.6677 67.6637
" />
<path d="M44.6677 67.6637
L44.6677 67.6032
" />
<path d="M44.6677 67.6032
L44.6073 67.4823
" />
<path d="M44.6073 67.4823
L44.4863 67.4218
" />
<path d="M44.4863 67.4218
L44.3049 67.4218
" />
<path d="M44.3049 67.4218
L44.1839 67.3613
" />
<path d="M44.1839 67.3613
L44.1235 67.2404
" />
<path d="M44.1235 67.2404
L44.1235 67.1799
" />
<path d="M44.1235 67.1799
L44.1839 67.0589
" />
<path d="M44.1839 67.0589
L44.3049 66.9985
" />
<path d="M44.3049 66.9985
L44.4863 66.9985
" />
<path d="M44.4863 66.9985
L44.6073 67.0589
" />
<path d="M45.2120 67.8451
L45.2120 66.5751
" />
<path d="M45.7563 67.8451
L45.7563 67.1799
" />
<path d="M45.7563 67.1799
L45.6958 67.0589
" />
<path d="M45.6958 67.0589
L45.5749 66.9985
" />
<path d="M45.5749 66.9985
L45.3935 66.9985
" />
<path d="M45.3935 66.9985
L45.2725 67.0589
" />
<path d="M45.2725 67.0589
L45.2120 67.1194
" />
<path d="M46.8448 67.7847
L46.7239 67.8451
" />
<path d="M46.7239 67.8451
L46.4820 67.8451
" />
<path d="M46.4820 67.8451
L46.3610 67.7847
" />
<path d="M46.3610 67.7847
L46.3006 67.6637
" />
<path d="M46.3006 67.6637
L46.3006 67.1799
" />
<path d="M46.3006 67.1799
L46.3610 67.0589
" />
<path d="M46.3610 67.0589
L46.4820 66.9985
" />
<path d="M46.4820 66.9985
L46.7239 66.9985
" />
<path d="M46.7239 66.9985
L46.8448 67.0589
" />
<path d="M46.8448 67.0589
L46.9053 67.1799
" />
<path d="M46.9053 67.1799
L46.9053 67.3008
" />
<path d="M46.9053 67.3008
L46.3006 67.4218
" />
<path d="M47.9334 67.7847
L47.8125 67.8451
" />
<path d="M47.8125 67.8451
L47.5706 67.8451
" />
<path d="M47.5706 67.8451
L47.4496 67.7847
" />
<path d="M47.4496 67.7847
L47.3892 67.6637
" />
<path d="M47.3892 67.6637
L47.3892 67.1799
" />
<path d="M47.3892 67.1799
L47.4496 67.0589
" />
<path d="M47.4496 67.0589
L47.5706 66.9985
" />
<path d="M47.5706 66.9985
L47.8125 66.9985
" />
<path d="M47.8125 66.9985
L47.9334 67.0589
" />
<path d="M47.9334 67.0589
L47.9939 67.1799
" />
<path d="M47.9939 67.1799
L47.9939 67.3008
" />
<path d="M47.9939 67.3008
L47.3892 67.4218
" />
<path d="M48.3568 66.9985
L48.8406 66.9985
" />
<path d="M48.5382 66.5751
L48.5382 67.6637
" />
<path d="M48.5382 67.6637
L48.5987 67.7847
" />
<path d="M48.5987 67.7847
L48.7197 67.8451
" />
<path d="M48.7197 67.8451
L48.8406 67.8451
" />
<path d="M50.1711 66.5147
L49.0825 68.1475
" />
<path d="M50.5340 67.7847
L50.7154 67.8451
" />
<path d="M50.7154 67.8451
L51.0178 67.8451
" />
<path d="M51.0178 67.8451
L51.1387 67.7847
" />
<path d="M51.1387 67.7847
L51.1992 67.7242
" />
<path d="M51.1992 67.7242
L51.2597 67.6032
" />
<path d="M51.2597 67.6032
L51.2597 67.4823
" />
<path d="M51.2597 67.4823
L51.1992 67.3613
" />
<path d="M51.1992 67.3613
L51.1387 67.3008
" />
<path d="M51.1387 67.3008
L51.0178 67.2404
" />
<path d="M51.0178 67.2404
L50.7759 67.1799
" />
<path d="M50.7759 67.1799
L50.6549 67.1194
" />
<path d="M50.6549 67.1194
L50.5944 67.0589
" />
<path d="M50.5944 67.0589
L50.5340 66.9380
" />
<path d="M50.5340 66.9380
L50.5340 66.8170
" />
<path d="M50.5340 66.8170
L50.5944 66.6961
" />
<path d="M50.5944 66.6961
L50.6549 66.6356
" />
<path d="M50.6549 66.6356
L50.7759 66.5751
" />
<path d="M50.7759 66.5751
L51.0782 66.5751
" />
<path d="M51.0782 66.5751
L51.2597 66.6356
" />
<path d="M52.5296 67.7242
L52.4692 67.7847
" />
<path d="M52.4692 67.7847
L52.2877 67.8451
" />
<path d="M52.2877 67.8451
L52.1668 67.8451
" />
<path d="M52.1668 67.8451
L51.9854 67.7847
" />
<path d="M51.9854 67.7847
L51.8644 67.6637
" />
<path d="M51.8644 67.6637
L51.8039 67.5427
" />
<path d="M51.8039 67.5427
L51.7435 67.3008
" />
<path d="M51.7435 67.3008
L51.7435 67.1194
" />
<path d="M51.7435 67.1194
L51.8039 66.8775
" />
<path d="M51.8039 66.8775
L51.8644 66.7566
" />
<path d="M51.8644 66.7566
L51.9854 66.6356
" />
<path d="M51.9854 66.6356
L52.1668 66.5751
" />
<path d="M52.1668 66.5751
L52.2877 66.5751
" />
<path d="M52.2877 66.5751
L52.4692 66.6356
" />
<path d="M52.4692 66.6356
L52.5296 66.6961
" />
<path d="M53.7392 67.8451
L53.0135 67.8451
" />
<path d="M53.3763 67.8451
L53.3763 66.5751
" />
<path d="M53.3763 66.5751
L53.2554 66.7566
" />
<path d="M53.2554 66.7566
L53.1344 66.8775
" />
<path d="M53.1344 66.8775
L53.0135 66.9380
" />
<path d="M54.8277 66.5751
L54.5858 66.5751
" />
<path d="M54.5858 66.5751
L54.4649 66.6356
" />
<path d="M54.4649 66.6356
L54.4044 66.6961
" />
<path d="M54.4044 66.6961
L54.2834 66.8775
" />
<path d="M54.2834 66.8775
L54.2230 67.1194
" />
<path d="M54.2230 67.1194
L54.2230 67.6032
" />
<path d="M54.2230 67.6032
L54.2834 67.7242
" />
<path d="M54.2834 67.7242
L54.3439 67.7847
" />
<path d="M54.3439 67.7847
L54.4649 67.8451
" />
<path d="M54.4649 67.8451
L54.7068 67.8451
" />
<path d="M54.7068 67.8451
L54.8277 67.7847
" />
<path d="M54.8277 67.7847
L54.8882 67.7242
" />
<path d="M54.8882 67.7242
L54.9487 67.6032
" />
<path d="M54.9487 67.6032
L54.9487 67.3008
" />
<path d="M54.9487 67.3008
L54.8882 67.1799
" />
<path d="M54.8882 67.1799
L54.8277 67.1194
" />
<path d="M54.8277 67.1194
L54.7068 67.0589
" />
<path d="M54.7068 67.0589
L54.4649 67.0589
" />
<path d="M54.4649 67.0589
L54.3439 67.1194
" />
<path d="M54.3439 67.1194
L54.2834 67.1799
" />
<path d="M54.2834 67.1799
L54.2230 67.3008
" />
<path d="M55.4929 67.8451
L55.4929 66.5751
" />
<path d="M56.0373 67.7847
L56.2187 67.8451
" />
<path d="M56.2187 67.8451
L56.5211 67.8451
" />
<path d="M56.5211 67.8451
L56.6420 67.7847
" />
<path d="M56.6420 67.7847
L56.7025 67.7242
" />
<path d="M56.7025 67.7242
L56.7630 67.6032
" />
<path d="M56.7630 67.6032
L56.7630 67.4823
" />
<path d="M56.7630 67.4823
L56.7025 67.3613
" />
<path d="M56.7025 67.3613
L56.6420 67.3008
" />
<path d="M56.6420 67.3008
L56.5211 67.2404
" />
<path d="M56.5211 67.2404
L56.2792 67.1799
" />
<path d="M56.2792 67.1799
L56.1582 67.1194
" />
<path d="M56.1582 67.1194
L56.0977 67.0589
" />
<path d="M56.0977 67.0589
L56.0373 66.9380
" />
<path d="M56.0373 66.9380
L56.0373 66.8170
" />
<path d="M56.0373 66.8170
L56.0977 66.6961
" />
<path d="M56.0977 66.6961
L56.1582 66.6356
" />
<path d="M56.1582 66.6356
L56.2792 66.5751
" />
<path d="M56.2792 66.5751
L56.5815 66.5751
" />
<path d="M56.5815 66.5751
L56.7630 66.6356
" />
<path d="M57.1863 66.5751
L58.0329 66.5751
" />
<path d="M58.0329 66.5751
L57.4887 67.8451
" />
<path d="M59.1215 66.5751
L58.5167 66.5751
" />
<path d="M58.5167 66.5751
L58.4563 67.1799
" />
<path d="M58.4563 67.1799
L58.5167 67.1194
" />
<path d="M58.5167 67.1194
L58.6377 67.0589
" />
<path d="M58.6377 67.0589
L58.9401 67.0589
" />
<path d="M58.9401 67.0589
L59.0610 67.1194
" />
<path d="M59.0610 67.1194
L59.1215 67.1799
" />
<path d="M59.1215 67.1799
L59.1820 67.3008
" />
<path d="M59.1820 67.3008
L59.1820 67.6032
" />
<path d="M59.1820 67.6032
L59.1215 67.7242
" />
<path d="M59.1215 67.7242
L59.0610 67.7847
" />
<path d="M59.0610 67.7847
L58.9401 67.8451
" />
<path d="M58.9401 67.8451
L58.6377 67.8451
" />
<path d="M58.6377 67.8451
L58.5167 67.7847
" />
<path d="M58.5167 67.7847
L58.4563 67.7242
" />
<path d="M59.6658 66.6961
L59.7262 66.6356
" />
<path d="M59.7262 66.6356
L59.8472 66.5751
" />
<path d="M59.8472 66.5751
L60.1496 66.5751
" />
<path d="M60.1496 66.5751
L60.2705 66.6356
" />
<path d="M60.2705 66.6356
L60.3310 66.6961
" />
<path d="M60.3310 66.6961
L60.3915 66.8170
" />
<path d="M60.3915 66.8170
L60.3915 66.9380
" />
<path d="M60.3915 66.9380
L60.3310 67.1194
" />
<path d="M60.3310 67.1194
L59.6053 67.8451
" />
<path d="M59.6053 67.8451
L60.3915 67.8451
" />
<path d="M60.6334 67.9661
L61.6010 67.9661
" />
<path d="M61.8429 67.7847
L62.0243 67.8451
" />
<path d="M62.0243 67.8451
L62.3267 67.8451
" />
<path d="M62.3267 67.8451
L62.4476 67.7847
" />
<path d="M62.4476 67.7847
L62.5081 67.7242
" />
<path d="M62.5081 67.7242
L62.5686 67.6032
" />
<path d="M62.5686 67.6032
L62.5686 67.4823
" />
<path d="M62.5686 67.4823
L62.5081 67.3613
" />
<path d="M62.5081 67.3613
L62.4476 67.3008
" />
<path d="M62.4476 67.3008
L62.3267 67.2404
" />
<path d="M62.3267 67.2404
L62.0848 67.1799
" />
<path d="M62.0848 67.1799
L61.9638 67.1194
" />
<path d="M61.9638 67.1194
L61.9033 67.0589
" />
<path d="M61.9033 67.0589
L61.8429 66.9380
" />
<path d="M61.8429 66.9380
L61.8429 66.8170
" />
<path d="M61.8429 66.8170
L61.9033 66.6961
" />
<path d="M61.9033 66.6961
L61.9638 66.6356
" />
<path d="M61.9638 66.6356
L62.0848 66.5751
" />
<path d="M62.0848 66.5751
L62.3871 66.5751
" />
<path d="M62.3871 66.5751
L62.5686 66.6356
" />
<path d="M63.8385 67.7242
L63.7781 67.7847
" />
<path d="M63.7781 67.7847
L63.5966 67.8451
" />
<path d="M63.5966 67.8451
L63.4757 67.8451
" />
<path d="M63.4757 67.8451
L63.2943 67.7847
" />
<path d="M63.2943 67.7847
L63.1733 67.6637
" />
<path d="M63.1733 67.6637
L63.1128 67.5427
" />
<path d="M63.1128 67.5427
L63.0524 67.3008
" />
<path d="M63.0524 67.3008
L63.0524 67.1194
" />
<path d="M63.0524 67.1194
L63.1128 66.8775
" />
<path d="M63.1128 66.8775
L63.1733 66.7566
" />
<path d="M63.1733 66.7566
L63.2943 66.6356
" />
<path d="M63.2943 66.6356
L63.4757 66.5751
" />
<path d="M63.4757 66.5751
L63.5966 66.5751
" />
<path d="M63.5966 66.5751
L63.7781 66.6356
" />
<path d="M63.7781 66.6356
L63.8385 66.6961
" />
<path d="M65.0481 67.8451
L64.3224 67.8451
" />
<path d="M64.6852 67.8451
L64.6852 66.5751
" />
<path d="M64.6852 66.5751
L64.5643 66.7566
" />
<path d="M64.5643 66.7566
L64.4433 66.8775
" />
<path d="M64.4433 66.8775
L64.3224 66.9380
" />
<path d="M66.1366 66.5751
L65.8947 66.5751
" />
<path d="M65.8947 66.5751
L65.7738 66.6356
" />
<path d="M65.7738 66.6356
L65.7133 66.6961
" />
<path d="M65.7133 66.6961
L65.5923 66.8775
" />
<path d="M65.5923 66.8775
L65.5319 67.1194
" />
<path d="M65.5319 67.1194
L65.5319 67.6032
" />
<path d="M65.5319 67.6032
L65.5923 67.7242
" />
<path d="M65.5923 67.7242
L65.6528 67.7847
" />
<path d="M65.6528 67.7847
L65.7738 67.8451
" />
<path d="M65.7738 67.8451
L66.0157 67.8451
" />
<path d="M66.0157 67.8451
L66.1366 67.7847
" />
<path d="M66.1366 67.7847
L66.1971 67.7242
" />
<path d="M66.1971 67.7242
L66.2576 67.6032
" />
<path d="M66.2576 67.6032
L66.2576 67.3008
" />
<path d="M66.2576 67.3008
L66.1971 67.1799
" />
<path d="M66.1971 67.1799
L66.1366 67.1194
" />
<path d="M66.1366 67.1194
L66.0157 67.0589
" />
<path d="M66.0157 67.0589
L65.7738 67.0589
" />
<path d="M65.7738 67.0589
L65.6528 67.1194
" />
<path d="M65.6528 67.1194
L65.5923 67.1799
" />
<path d="M65.5923 67.1799
L65.5319 67.3008
" />
<path d="M66.8018 67.8451
L66.8018 66.5751
" />
<path d="M67.3462 67.7847
L67.5276 67.8451
" />
<path d="M67.5276 67.8451
L67.8300 67.8451
" />
<path d="M67.8300 67.8451
L67.9509 67.7847
" />
<path d="M67.9509 67.7847
L68.0114 67.7242
" />
<path d="M68.0114 67.7242
L68.0719 67.6032
" />
<path d="M68.0719 67.6032
L68.0719 67.4823
" />
<path d="M68.0719 67.4823
L68.0114 67.3613
" />
<path d="M68.0114 67.3613
L67.9509 67.3008
" />
<path d="M67.9509 67.3008
L67.8300 67.2404
" />
<path d="M67.8300 67.2404
L67.5881 67.1799
" />
<path d="M67.5881 67.1799
L67.4671 67.1194
" />
<path d="M67.4671 67.1194
L67.4066 67.0589
" />
<path d="M67.4066 67.0589
L67.3462 66.9380
" />
<path d="M67.3462 66.9380
L67.3462 66.8170
" />
<path d="M67.3462 66.8170
L67.4066 66.6961
" />
<path d="M67.4066 66.6961
L67.4671 66.6356
" />
<path d="M67.4671 66.6356
L67.5881 66.5751
" />
<path d="M67.5881 66.5751
L67.8904 66.5751
" />
<path d="M67.8904 66.5751
L68.0719 66.6356
" />
<path d="M68.4952 66.5751
L69.3418 66.5751
" />
<path d="M69.3418 66.5751
L68.7976 67.8451
" />
<path d="M70.3699 66.5751
L70.1280 66.5751
" />
<path d="M70.1280 66.5751
L70.0071 66.6356
" />
<path d="M70.0071 66.6356
L69.9466 66.6961
" />
<path d="M69.9466 66.6961
L69.8256 66.8775
" />
<path d="M69.8256 66.8775
L69.7652 67.1194
" />
<path d="M69.7652 67.1194
L69.7652 67.6032
" />
<path d="M69.7652 67.6032
L69.8256 67.7242
" />
<path d="M69.8256 67.7242
L69.8861 67.7847
" />
<path d="M69.8861 67.7847
L70.0071 67.8451
" />
<path d="M70.0071 67.8451
L70.2490 67.8451
" />
<path d="M70.2490 67.8451
L70.3699 67.7847
" />
<path d="M70.3699 67.7847
L70.4304 67.7242
" />
<path d="M70.4304 67.7242
L70.4909 67.6032
" />
<path d="M70.4909 67.6032
L70.4909 67.3008
" />
<path d="M70.4909 67.3008
L70.4304 67.1799
" />
<path d="M70.4304 67.1799
L70.3699 67.1194
" />
<path d="M70.3699 67.1194
L70.2490 67.0589
" />
<path d="M70.2490 67.0589
L70.0071 67.0589
" />
<path d="M70.0071 67.0589
L69.8861 67.1194
" />
<path d="M69.8861 67.1194
L69.8256 67.1799
" />
<path d="M69.8256 67.1799
L69.7652 67.3008
" />
<path d="M70.9747 66.6961
L71.0351 66.6356
" />
<path d="M71.0351 66.6356
L71.1561 66.5751
" />
<path d="M71.1561 66.5751
L71.4585 66.5751
" />
<path d="M71.4585 66.5751
L71.5794 66.6356
" />
<path d="M71.5794 66.6356
L71.6399 66.6961
" />
<path d="M71.6399 66.6961
L71.7004 66.8170
" />
<path d="M71.7004 66.8170
L71.7004 66.9380
" />
<path d="M71.7004 66.9380
L71.6399 67.1194
" />
<path d="M71.6399 67.1194
L70.9142 67.8451
" />
<path d="M70.9142 67.8451
L71.7004 67.8451
" />
<path d="M72.2446 67.7242
L72.3051 67.7847
" />
<path d="M72.3051 67.7847
L72.2446 67.8451
" />
<path d="M72.2446 67.8451
L72.1842 67.7847
" />
<path d="M72.1842 67.7847
L72.2446 67.7242
" />
<path d="M72.2446 67.7242
L72.2446 67.8451
" />
<path d="M72.8494 66.9985
L72.8494 68.2685
" />
<path d="M72.8494 67.0589
L72.9704 66.9985
" />
<path d="M72.9704 66.9985
L73.2123 66.9985
" />
<path d="M73.2123 66.9985
L73.3332 67.0589
" />
<path d="M73.3332 67.0589
L73.3937 67.1194
" />
<path d="M73.3937 67.1194
L73.4542 67.2404
" />
<path d="M73.4542 67.2404
L73.4542 67.6032
" />
<path d="M73.4542 67.6032
L73.3937 67.7242
" />
<path d="M73.3937 67.7242
L73.3332 67.7847
" />
<path d="M73.3332 67.7847
L73.2123 67.8451
" />
<path d="M73.2123 67.8451
L72.9704 67.8451
" />
<path d="M72.9704 67.8451
L72.8494 67.7847
" />
<path d="M74.5427 67.8451
L74.5427 66.5751
" />
<path d="M74.5427 67.7847
L74.4218 67.8451
" />
<path d="M74.4218 67.8451
L74.1799 67.8451
" />
<path d="M74.1799 67.8451
L74.0589 67.7847
" />
<path d="M74.0589 67.7847
L73.9984 67.7242
" />
<path d="M73.9984 67.7242
L73.9380 67.6032
" />
<path d="M73.9380 67.6032
L73.9380 67.2404
" />
<path d="M73.9380 67.2404
L73.9984 67.1194
" />
<path d="M73.9984 67.1194
L74.0589 67.0589
" />
<path d="M74.0589 67.0589
L74.1799 66.9985
" />
<path d="M74.1799 66.9985
L74.4218 66.9985
" />
<path d="M74.4218 66.9985
L74.5427 67.0589
" />
<path d="M74.9660 66.9985
L75.4498 66.9985
" />
<path d="M75.1474 67.8451
L75.1474 66.7566
" />
<path d="M75.1474 66.7566
L75.2079 66.6356
" />
<path d="M75.2079 66.6356
L75.3289 66.5751
" />
<path d="M75.3289 66.5751
L75.4498 66.5751
" />
</g></g> 
</svg>
