<?xml version="1.0" standalone="no"?>
 <!DOCTYPE svg PUBLIC "-//W3C//DTD SVG 1.1//EN" 
 "http://www.w3.org/Graphics/SVG/1.1/DTD/svg11.dtd"> 
<svg
  xmlns:svg="http://www.w3.org/2000/svg"
  xmlns="http://www.w3.org/2000/svg"
  xmlns:xlink="http://www.w3.org/1999/xlink"
  version="1.1"
  width="75.4380mm" height="10.8458mm" viewBox="0.0000 0.0000 75.4380 10.8458">
<title>SVG Image created as working.svg date 2023/08/11 12:24:35 </title>
  <desc>Image generated by Eeschema-SVG </desc>
<g style="fill:#000000; fill-opacity:1.0000;stroke:#000000; stroke-opacity:1.0000;
stroke-linecap:round; stroke-linejoin:round;"
 transform="translate(0 0) scale(1 1)">
</g>
<g style="fill:#840000; fill-opacity:0.0; 
stroke:#840000; stroke-width:0.0000; stroke-opacity:1; 
stroke-linecap:round; stroke-linejoin:round;">
</g>
<g style="fill:#840084; fill-opacity:0.0; 
stroke:#840084; stroke-width:0.0000; stroke-opacity:1; 
stroke-linecap:round; stroke-linejoin:round;">
</g>
<g style="fill:#840000; fill-opacity:0.0; 
stroke:#840000; stroke-width:0.0000; stroke-opacity:1; 
stroke-linecap:round; stroke-linejoin:round;">
</g>
<g style="fill:#840084; fill-opacity:0.0; 
stroke:#840084; stroke-width:0.0000; stroke-opacity:1; 
stroke-linecap:round; stroke-linejoin:round;">
</g>
<g style="fill:#006464; fill-opacity:0.0; 
stroke:#006464; stroke-width:0.0000; stroke-opacity:1; 
stroke-linecap:round; stroke-linejoin:round;">
</g>
<g style="fill:#006464; fill-opacity:0.0; 
stroke:#006464; stroke-width:0.1588; stroke-opacity:1; 
stroke-linecap:round; stroke-linejoin:round;">
<text x="37.7251" y="2.5594"
textLength="2.5810" font-size="1.6933" lengthAdjust="spacingAndGlyphs"
text-anchor="middle" opacity="0">D?</text>
<g class="stroked-text"><desc>D?</desc>
<path d="M36.8481 2.5036
L36.8481 1.2336
" />
<path d="M36.8481 1.2336
L37.1505 1.2336
" />
<path d="M37.1505 1.2336
L37.3319 1.2941
" />
<path d="M37.3319 1.2941
L37.4529 1.4151
" />
<path d="M37.4529 1.4151
L37.5134 1.5360
" />
<path d="M37.5134 1.5360
L37.5738 1.7779
" />
<path d="M37.5738 1.7779
L37.5738 1.9593
" />
<path d="M37.5738 1.9593
L37.5134 2.2012
" />
<path d="M37.5134 2.2012
L37.4529 2.3222
" />
<path d="M37.4529 2.3222
L37.3319 2.4432
" />
<path d="M37.3319 2.4432
L37.1505 2.5036
" />
<path d="M37.1505 2.5036
L36.8481 2.5036
" />
<path d="M38.2996 2.3827
L38.3600 2.4432
" />
<path d="M38.3600 2.4432
L38.2996 2.5036
" />
<path d="M38.2996 2.5036
L38.2391 2.4432
" />
<path d="M38.2391 2.4432
L38.2996 2.3827
" />
<path d="M38.2996 2.3827
L38.2996 2.5036
" />
<path d="M38.0577 1.2941
L38.1786 1.2336
" />
<path d="M38.1786 1.2336
L38.4810 1.2336
" />
<path d="M38.4810 1.2336
L38.6019 1.2941
" />
<path d="M38.6019 1.2941
L38.6624 1.4151
" />
<path d="M38.6624 1.4151
L38.6624 1.5360
" />
<path d="M38.6624 1.5360
L38.6019 1.6570
" />
<path d="M38.6019 1.6570
L38.5415 1.7174
" />
<path d="M38.5415 1.7174
L38.4205 1.7779
" />
<path d="M38.4205 1.7779
L38.3600 1.8384
" />
<path d="M38.3600 1.8384
L38.2996 1.9593
" />
<path d="M38.2996 1.9593
L38.2996 2.0198
" />
</g><text x="37.7251" y="7.6394"
textLength="6.9352" font-size="1.6933" lengthAdjust="spacingAndGlyphs"
text-anchor="middle" opacity="0">BAT54J</text>
<g class="stroked-text"><desc>BAT54J</desc>
<path d="M35.0944 6.9184
L35.2758 6.9789
" />
<path d="M35.2758 6.9789
L35.3363 7.0393
" />
<path d="M35.3363 7.0393
L35.3967 7.1603
" />
<path d="M35.3967 7.1603
L35.3967 7.3417
" />
<path d="M35.3967 7.3417
L35.3363 7.4627
" />
<path d="M35.3363 7.4627
L35.2758 7.5232
" />
<path d="M35.2758 7.5232
L35.1548 7.5836
" />
<path d="M35.1548 7.5836
L34.6710 7.5836
" />
<path d="M34.6710 7.5836
L34.6710 6.3136
" />
<path d="M34.6710 6.3136
L35.0944 6.3136
" />
<path d="M35.0944 6.3136
L35.2153 6.3741
" />
<path d="M35.2153 6.3741
L35.2758 6.4346
" />
<path d="M35.2758 6.4346
L35.3363 6.5555
" />
<path d="M35.3363 6.5555
L35.3363 6.6765
" />
<path d="M35.3363 6.6765
L35.2758 6.7974
" />
<path d="M35.2758 6.7974
L35.2153 6.8579
" />
<path d="M35.2153 6.8579
L35.0944 6.9184
" />
<path d="M35.0944 6.9184
L34.6710 6.9184
" />
<path d="M35.8806 7.2208
L36.4853 7.2208
" />
<path d="M35.7596 7.5836
L36.1829 6.3136
" />
<path d="M36.1829 6.3136
L36.6063 7.5836
" />
<path d="M36.8482 6.3136
L37.5739 6.3136
" />
<path d="M37.2111 7.5836
L37.2111 6.3136
" />
<path d="M38.6020 6.3136
L37.9972 6.3136
" />
<path d="M37.9972 6.3136
L37.9368 6.9184
" />
<path d="M37.9368 6.9184
L37.9972 6.8579
" />
<path d="M37.9972 6.8579
L38.1182 6.7974
" />
<path d="M38.1182 6.7974
L38.4206 6.7974
" />
<path d="M38.4206 6.7974
L38.5415 6.8579
" />
<path d="M38.5415 6.8579
L38.6020 6.9184
" />
<path d="M38.6020 6.9184
L38.6625 7.0393
" />
<path d="M38.6625 7.0393
L38.6625 7.3417
" />
<path d="M38.6625 7.3417
L38.6020 7.4627
" />
<path d="M38.6020 7.4627
L38.5415 7.5232
" />
<path d="M38.5415 7.5232
L38.4206 7.5836
" />
<path d="M38.4206 7.5836
L38.1182 7.5836
" />
<path d="M38.1182 7.5836
L37.9972 7.5232
" />
<path d="M37.9972 7.5232
L37.9368 7.4627
" />
<path d="M39.7510 6.7370
L39.7510 7.5836
" />
<path d="M39.4486 6.2532
L39.1463 7.1603
" />
<path d="M39.1463 7.1603
L39.9324 7.1603
" />
<path d="M40.7791 6.3136
L40.7791 7.2208
" />
<path d="M40.7791 7.2208
L40.7186 7.4022
" />
<path d="M40.7186 7.4022
L40.5977 7.5232
" />
<path d="M40.5977 7.5232
L40.4162 7.5836
" />
<path d="M40.4162 7.5836
L40.2953 7.5836
" />
</g></g>
<g style="fill:#840084; fill-opacity:0.0; 
stroke:#840084; stroke-width:0.1588; stroke-opacity:1; 
stroke-linecap:round; stroke-linejoin:round;">
<text x="37.7251" y="9.5444"
textLength="23.3242" font-size="1.6933" lengthAdjust="spacingAndGlyphs"
text-anchor="middle" opacity="0">Diode_SMD:D_SOD-323F</text>
<g class="stroked-text"><desc>Diode_SMD:D_SOD-323F</desc>
<path d="M26.4765 9.4886
L26.4765 8.2186
" />
<path d="M26.4765 8.2186
L26.7789 8.2186
" />
<path d="M26.7789 8.2186
L26.9603 8.2791
" />
<path d="M26.9603 8.2791
L27.0813 8.4001
" />
<path d="M27.0813 8.4001
L27.1418 8.5210
" />
<path d="M27.1418 8.5210
L27.2022 8.7629
" />
<path d="M27.2022 8.7629
L27.2022 8.9443
" />
<path d="M27.2022 8.9443
L27.1418 9.1862
" />
<path d="M27.1418 9.1862
L27.0813 9.3072
" />
<path d="M27.0813 9.3072
L26.9603 9.4282
" />
<path d="M26.9603 9.4282
L26.7789 9.4886
" />
<path d="M26.7789 9.4886
L26.4765 9.4886
" />
<path d="M27.7465 9.4886
L27.7465 8.6420
" />
<path d="M27.7465 8.2186
L27.6861 8.2791
" />
<path d="M27.6861 8.2791
L27.7465 8.3396
" />
<path d="M27.7465 8.3396
L27.8070 8.2791
" />
<path d="M27.8070 8.2791
L27.7465 8.2186
" />
<path d="M27.7465 8.2186
L27.7465 8.3396
" />
<path d="M28.5328 9.4886
L28.4118 9.4282
" />
<path d="M28.4118 9.4282
L28.3513 9.3677
" />
<path d="M28.3513 9.3677
L28.2909 9.2467
" />
<path d="M28.2909 9.2467
L28.2909 8.8839
" />
<path d="M28.2909 8.8839
L28.3513 8.7629
" />
<path d="M28.3513 8.7629
L28.4118 8.7024
" />
<path d="M28.4118 8.7024
L28.5328 8.6420
" />
<path d="M28.5328 8.6420
L28.7142 8.6420
" />
<path d="M28.7142 8.6420
L28.8351 8.7024
" />
<path d="M28.8351 8.7024
L28.8956 8.7629
" />
<path d="M28.8956 8.7629
L28.9561 8.8839
" />
<path d="M28.9561 8.8839
L28.9561 9.2467
" />
<path d="M28.9561 9.2467
L28.8956 9.3677
" />
<path d="M28.8956 9.3677
L28.8351 9.4282
" />
<path d="M28.8351 9.4282
L28.7142 9.4886
" />
<path d="M28.7142 9.4886
L28.5328 9.4886
" />
<path d="M30.0446 9.4886
L30.0446 8.2186
" />
<path d="M30.0446 9.4282
L29.9237 9.4886
" />
<path d="M29.9237 9.4886
L29.6818 9.4886
" />
<path d="M29.6818 9.4886
L29.5608 9.4282
" />
<path d="M29.5608 9.4282
L29.5003 9.3677
" />
<path d="M29.5003 9.3677
L29.4399 9.2467
" />
<path d="M29.4399 9.2467
L29.4399 8.8839
" />
<path d="M29.4399 8.8839
L29.5003 8.7629
" />
<path d="M29.5003 8.7629
L29.5608 8.7024
" />
<path d="M29.5608 8.7024
L29.6818 8.6420
" />
<path d="M29.6818 8.6420
L29.9237 8.6420
" />
<path d="M29.9237 8.6420
L30.0446 8.7024
" />
<path d="M31.1331 9.4282
L31.0122 9.4886
" />
<path d="M31.0122 9.4886
L30.7703 9.4886
" />
<path d="M30.7703 9.4886
L30.6493 9.4282
" />
<path d="M30.6493 9.4282
L30.5889 9.3072
" />
<path d="M30.5889 9.3072
L30.5889 8.8234
" />
<path d="M30.5889 8.8234
L30.6493 8.7024
" />
<path d="M30.6493 8.7024
L30.7703 8.6420
" />
<path d="M30.7703 8.6420
L31.0122 8.6420
" />
<path d="M31.0122 8.6420
L31.1331 8.7024
" />
<path d="M31.1331 8.7024
L31.1936 8.8234
" />
<path d="M31.1936 8.8234
L31.1936 8.9443
" />
<path d="M31.1936 8.9443
L30.5889 9.0653
" />
<path d="M31.4356 9.6096
L32.4032 9.6096
" />
<path d="M32.6451 9.4282
L32.8265 9.4886
" />
<path d="M32.8265 9.4886
L33.1289 9.4886
" />
<path d="M33.1289 9.4886
L33.2498 9.4282
" />
<path d="M33.2498 9.4282
L33.3103 9.3677
" />
<path d="M33.3103 9.3677
L33.3708 9.2467
" />
<path d="M33.3708 9.2467
L33.3708 9.1258
" />
<path d="M33.3708 9.1258
L33.3103 9.0048
" />
<path d="M33.3103 9.0048
L33.2498 8.9443
" />
<path d="M33.2498 8.9443
L33.1289 8.8839
" />
<path d="M33.1289 8.8839
L32.8870 8.8234
" />
<path d="M32.8870 8.8234
L32.7660 8.7629
" />
<path d="M32.7660 8.7629
L32.7055 8.7024
" />
<path d="M32.7055 8.7024
L32.6451 8.5815
" />
<path d="M32.6451 8.5815
L32.6451 8.4605
" />
<path d="M32.6451 8.4605
L32.7055 8.3396
" />
<path d="M32.7055 8.3396
L32.7660 8.2791
" />
<path d="M32.7660 8.2791
L32.8870 8.2186
" />
<path d="M32.8870 8.2186
L33.1893 8.2186
" />
<path d="M33.1893 8.2186
L33.3708 8.2791
" />
<path d="M33.9150 9.4886
L33.9150 8.2186
" />
<path d="M33.9150 8.2186
L34.3384 9.1258
" />
<path d="M34.3384 9.1258
L34.7617 8.2186
" />
<path d="M34.7617 8.2186
L34.7617 9.4886
" />
<path d="M35.3664 9.4886
L35.3664 8.2186
" />
<path d="M35.3664 8.2186
L35.6688 8.2186
" />
<path d="M35.6688 8.2186
L35.8502 8.2791
" />
<path d="M35.8502 8.2791
L35.9712 8.4001
" />
<path d="M35.9712 8.4001
L36.0317 8.5210
" />
<path d="M36.0317 8.5210
L36.0921 8.7629
" />
<path d="M36.0921 8.7629
L36.0921 8.9443
" />
<path d="M36.0921 8.9443
L36.0317 9.1862
" />
<path d="M36.0317 9.1862
L35.9712 9.3072
" />
<path d="M35.9712 9.3072
L35.8502 9.4282
" />
<path d="M35.8502 9.4282
L35.6688 9.4886
" />
<path d="M35.6688 9.4886
L35.3664 9.4886
" />
<path d="M36.6364 9.3677
L36.6969 9.4282
" />
<path d="M36.6969 9.4282
L36.6364 9.4886
" />
<path d="M36.6364 9.4886
L36.5760 9.4282
" />
<path d="M36.5760 9.4282
L36.6364 9.3677
" />
<path d="M36.6364 9.3677
L36.6364 9.4886
" />
<path d="M36.6364 8.7024
L36.6969 8.7629
" />
<path d="M36.6969 8.7629
L36.6364 8.8234
" />
<path d="M36.6364 8.8234
L36.5760 8.7629
" />
<path d="M36.5760 8.7629
L36.6364 8.7024
" />
<path d="M36.6364 8.7024
L36.6364 8.8234
" />
<path d="M37.2412 9.4886
L37.2412 8.2186
" />
<path d="M37.2412 8.2186
L37.5436 8.2186
" />
<path d="M37.5436 8.2186
L37.7250 8.2791
" />
<path d="M37.7250 8.2791
L37.8460 8.4001
" />
<path d="M37.8460 8.4001
L37.9065 8.5210
" />
<path d="M37.9065 8.5210
L37.9669 8.7629
" />
<path d="M37.9669 8.7629
L37.9669 8.9443
" />
<path d="M37.9669 8.9443
L37.9065 9.1862
" />
<path d="M37.9065 9.1862
L37.8460 9.3072
" />
<path d="M37.8460 9.3072
L37.7250 9.4282
" />
<path d="M37.7250 9.4282
L37.5436 9.4886
" />
<path d="M37.5436 9.4886
L37.2412 9.4886
" />
<path d="M38.2089 9.6096
L39.1765 9.6096
" />
<path d="M39.4184 9.4282
L39.5998 9.4886
" />
<path d="M39.5998 9.4886
L39.9022 9.4886
" />
<path d="M39.9022 9.4886
L40.0231 9.4282
" />
<path d="M40.0231 9.4282
L40.0836 9.3677
" />
<path d="M40.0836 9.3677
L40.1441 9.2467
" />
<path d="M40.1441 9.2467
L40.1441 9.1258
" />
<path d="M40.1441 9.1258
L40.0836 9.0048
" />
<path d="M40.0836 9.0048
L40.0231 8.9443
" />
<path d="M40.0231 8.9443
L39.9022 8.8839
" />
<path d="M39.9022 8.8839
L39.6603 8.8234
" />
<path d="M39.6603 8.8234
L39.5393 8.7629
" />
<path d="M39.5393 8.7629
L39.4788 8.7024
" />
<path d="M39.4788 8.7024
L39.4184 8.5815
" />
<path d="M39.4184 8.5815
L39.4184 8.4605
" />
<path d="M39.4184 8.4605
L39.4788 8.3396
" />
<path d="M39.4788 8.3396
L39.5393 8.2791
" />
<path d="M39.5393 8.2791
L39.6603 8.2186
" />
<path d="M39.6603 8.2186
L39.9626 8.2186
" />
<path d="M39.9626 8.2186
L40.1441 8.2791
" />
<path d="M40.9302 8.2186
L41.1721 8.2186
" />
<path d="M41.1721 8.2186
L41.2931 8.2791
" />
<path d="M41.2931 8.2791
L41.4140 8.4001
" />
<path d="M41.4140 8.4001
L41.4745 8.6420
" />
<path d="M41.4745 8.6420
L41.4745 9.0653
" />
<path d="M41.4745 9.0653
L41.4140 9.3072
" />
<path d="M41.4140 9.3072
L41.2931 9.4282
" />
<path d="M41.2931 9.4282
L41.1721 9.4886
" />
<path d="M41.1721 9.4886
L40.9302 9.4886
" />
<path d="M40.9302 9.4886
L40.8093 9.4282
" />
<path d="M40.8093 9.4282
L40.6883 9.3072
" />
<path d="M40.6883 9.3072
L40.6279 9.0653
" />
<path d="M40.6279 9.0653
L40.6279 8.6420
" />
<path d="M40.6279 8.6420
L40.6883 8.4001
" />
<path d="M40.6883 8.4001
L40.8093 8.2791
" />
<path d="M40.8093 8.2791
L40.9302 8.2186
" />
<path d="M42.0188 9.4886
L42.0188 8.2186
" />
<path d="M42.0188 8.2186
L42.3212 8.2186
" />
<path d="M42.3212 8.2186
L42.5026 8.2791
" />
<path d="M42.5026 8.2791
L42.6236 8.4001
" />
<path d="M42.6236 8.4001
L42.6841 8.5210
" />
<path d="M42.6841 8.5210
L42.7445 8.7629
" />
<path d="M42.7445 8.7629
L42.7445 8.9443
" />
<path d="M42.7445 8.9443
L42.6841 9.1862
" />
<path d="M42.6841 9.1862
L42.6236 9.3072
" />
<path d="M42.6236 9.3072
L42.5026 9.4282
" />
<path d="M42.5026 9.4282
L42.3212 9.4886
" />
<path d="M42.3212 9.4886
L42.0188 9.4886
" />
<path d="M43.2888 9.0048
L44.2565 9.0048
" />
<path d="M44.7403 8.2186
L45.5265 8.2186
" />
<path d="M45.5265 8.2186
L45.1031 8.7024
" />
<path d="M45.1031 8.7024
L45.2846 8.7024
" />
<path d="M45.2846 8.7024
L45.4055 8.7629
" />
<path d="M45.4055 8.7629
L45.4660 8.8234
" />
<path d="M45.4660 8.8234
L45.5265 8.9443
" />
<path d="M45.5265 8.9443
L45.5265 9.2467
" />
<path d="M45.5265 9.2467
L45.4660 9.3677
" />
<path d="M45.4660 9.3677
L45.4055 9.4282
" />
<path d="M45.4055 9.4282
L45.2846 9.4886
" />
<path d="M45.2846 9.4886
L44.9217 9.4886
" />
<path d="M44.9217 9.4886
L44.8008 9.4282
" />
<path d="M44.8008 9.4282
L44.7403 9.3677
" />
<path d="M46.0103 8.3396
L46.0707 8.2791
" />
<path d="M46.0707 8.2791
L46.1917 8.2186
" />
<path d="M46.1917 8.2186
L46.4941 8.2186
" />
<path d="M46.4941 8.2186
L46.6150 8.2791
" />
<path d="M46.6150 8.2791
L46.6755 8.3396
" />
<path d="M46.6755 8.3396
L46.7360 8.4605
" />
<path d="M46.7360 8.4605
L46.7360 8.5815
" />
<path d="M46.7360 8.5815
L46.6755 8.7629
" />
<path d="M46.6755 8.7629
L45.9498 9.4886
" />
<path d="M45.9498 9.4886
L46.7360 9.4886
" />
<path d="M47.1593 8.2186
L47.9455 8.2186
" />
<path d="M47.9455 8.2186
L47.5221 8.7024
" />
<path d="M47.5221 8.7024
L47.7036 8.7024
" />
<path d="M47.7036 8.7024
L47.8245 8.7629
" />
<path d="M47.8245 8.7629
L47.8850 8.8234
" />
<path d="M47.8850 8.8234
L47.9455 8.9443
" />
<path d="M47.9455 8.9443
L47.9455 9.2467
" />
<path d="M47.9455 9.2467
L47.8850 9.3677
" />
<path d="M47.8850 9.3677
L47.8245 9.4282
" />
<path d="M47.8245 9.4282
L47.7036 9.4886
" />
<path d="M47.7036 9.4886
L47.3407 9.4886
" />
<path d="M47.3407 9.4886
L47.2198 9.4282
" />
<path d="M47.2198 9.4282
L47.1593 9.3677
" />
<path d="M48.9131 8.8234
L48.4897 8.8234
" />
<path d="M48.4897 9.4886
L48.4897 8.2186
" />
<path d="M48.4897 8.2186
L49.0945 8.2186
" />
</g><text x="37.7251" y="5.0994"
textLength="62.8753" font-size="1.6933" lengthAdjust="spacingAndGlyphs"
text-anchor="middle" opacity="0">https://assets.nexperia.com/documents/data-sheet/BAT54J.pdf</text>
<g class="stroked-text"><desc>https://assets.nexperia.com/documents/data-sheet/BAT54J.pdf</desc>
<path d="M6.7010 5.0436
L6.7010 3.7736
" />
<path d="M7.2453 5.0436
L7.2453 4.3784
" />
<path d="M7.2453 4.3784
L7.1848 4.2574
" />
<path d="M7.1848 4.2574
L7.0639 4.1970
" />
<path d="M7.0639 4.1970
L6.8825 4.1970
" />
<path d="M6.8825 4.1970
L6.7615 4.2574
" />
<path d="M6.7615 4.2574
L6.7010 4.3179
" />
<path d="M7.6686 4.1970
L8.1524 4.1970
" />
<path d="M7.8500 3.7736
L7.8500 4.8622
" />
<path d="M7.8500 4.8622
L7.9105 4.9832
" />
<path d="M7.9105 4.9832
L8.0315 5.0436
" />
<path d="M8.0315 5.0436
L8.1524 5.0436
" />
<path d="M8.3943 4.1970
L8.8781 4.1970
" />
<path d="M8.5757 3.7736
L8.5757 4.8622
" />
<path d="M8.5757 4.8622
L8.6362 4.9832
" />
<path d="M8.6362 4.9832
L8.7572 5.0436
" />
<path d="M8.7572 5.0436
L8.8781 5.0436
" />
<path d="M9.3014 4.1970
L9.3014 5.4670
" />
<path d="M9.3014 4.2574
L9.4224 4.1970
" />
<path d="M9.4224 4.1970
L9.6643 4.1970
" />
<path d="M9.6643 4.1970
L9.7852 4.2574
" />
<path d="M9.7852 4.2574
L9.8457 4.3179
" />
<path d="M9.8457 4.3179
L9.9062 4.4389
" />
<path d="M9.9062 4.4389
L9.9062 4.8017
" />
<path d="M9.9062 4.8017
L9.8457 4.9227
" />
<path d="M9.8457 4.9227
L9.7852 4.9832
" />
<path d="M9.7852 4.9832
L9.6643 5.0436
" />
<path d="M9.6643 5.0436
L9.4224 5.0436
" />
<path d="M9.4224 5.0436
L9.3014 4.9832
" />
<path d="M10.3900 4.9832
L10.5109 5.0436
" />
<path d="M10.5109 5.0436
L10.7528 5.0436
" />
<path d="M10.7528 5.0436
L10.8738 4.9832
" />
<path d="M10.8738 4.9832
L10.9342 4.8622
" />
<path d="M10.9342 4.8622
L10.9342 4.8017
" />
<path d="M10.9342 4.8017
L10.8738 4.6808
" />
<path d="M10.8738 4.6808
L10.7528 4.6203
" />
<path d="M10.7528 4.6203
L10.5714 4.6203
" />
<path d="M10.5714 4.6203
L10.4504 4.5598
" />
<path d="M10.4504 4.5598
L10.3900 4.4389
" />
<path d="M10.3900 4.4389
L10.3900 4.3784
" />
<path d="M10.3900 4.3784
L10.4504 4.2574
" />
<path d="M10.4504 4.2574
L10.5714 4.1970
" />
<path d="M10.5714 4.1970
L10.7528 4.1970
" />
<path d="M10.7528 4.1970
L10.8738 4.2574
" />
<path d="M11.4785 4.9227
L11.5390 4.9832
" />
<path d="M11.5390 4.9832
L11.4785 5.0436
" />
<path d="M11.4785 5.0436
L11.4181 4.9832
" />
<path d="M11.4181 4.9832
L11.4785 4.9227
" />
<path d="M11.4785 4.9227
L11.4785 5.0436
" />
<path d="M11.4785 4.2574
L11.5390 4.3179
" />
<path d="M11.5390 4.3179
L11.4785 4.3784
" />
<path d="M11.4785 4.3784
L11.4181 4.3179
" />
<path d="M11.4181 4.3179
L11.4785 4.2574
" />
<path d="M11.4785 4.2574
L11.4785 4.3784
" />
<path d="M12.9905 3.7132
L11.9019 5.3460
" />
<path d="M14.3210 3.7132
L13.2324 5.3460
" />
<path d="M15.2886 5.0436
L15.2886 4.3784
" />
<path d="M15.2886 4.3784
L15.2281 4.2574
" />
<path d="M15.2281 4.2574
L15.1072 4.1970
" />
<path d="M15.1072 4.1970
L14.8653 4.1970
" />
<path d="M14.8653 4.1970
L14.7443 4.2574
" />
<path d="M15.2886 4.9832
L15.1677 5.0436
" />
<path d="M15.1677 5.0436
L14.8653 5.0436
" />
<path d="M14.8653 5.0436
L14.7443 4.9832
" />
<path d="M14.7443 4.9832
L14.6839 4.8622
" />
<path d="M14.6839 4.8622
L14.6839 4.7412
" />
<path d="M14.6839 4.7412
L14.7443 4.6203
" />
<path d="M14.7443 4.6203
L14.8653 4.5598
" />
<path d="M14.8653 4.5598
L15.1677 4.5598
" />
<path d="M15.1677 4.5598
L15.2886 4.4993
" />
<path d="M15.8329 4.9832
L15.9538 5.0436
" />
<path d="M15.9538 5.0436
L16.1957 5.0436
" />
<path d="M16.1957 5.0436
L16.3167 4.9832
" />
<path d="M16.3167 4.9832
L16.3771 4.8622
" />
<path d="M16.3771 4.8622
L16.3771 4.8017
" />
<path d="M16.3771 4.8017
L16.3167 4.6808
" />
<path d="M16.3167 4.6808
L16.1957 4.6203
" />
<path d="M16.1957 4.6203
L16.0143 4.6203
" />
<path d="M16.0143 4.6203
L15.8933 4.5598
" />
<path d="M15.8933 4.5598
L15.8329 4.4389
" />
<path d="M15.8329 4.4389
L15.8329 4.3784
" />
<path d="M15.8329 4.3784
L15.8933 4.2574
" />
<path d="M15.8933 4.2574
L16.0143 4.1970
" />
<path d="M16.0143 4.1970
L16.1957 4.1970
" />
<path d="M16.1957 4.1970
L16.3167 4.2574
" />
<path d="M16.8610 4.9832
L16.9819 5.0436
" />
<path d="M16.9819 5.0436
L17.2238 5.0436
" />
<path d="M17.2238 5.0436
L17.3448 4.9832
" />
<path d="M17.3448 4.9832
L17.4052 4.8622
" />
<path d="M17.4052 4.8622
L17.4052 4.8017
" />
<path d="M17.4052 4.8017
L17.3448 4.6808
" />
<path d="M17.3448 4.6808
L17.2238 4.6203
" />
<path d="M17.2238 4.6203
L17.0424 4.6203
" />
<path d="M17.0424 4.6203
L16.9214 4.5598
" />
<path d="M16.9214 4.5598
L16.8610 4.4389
" />
<path d="M16.8610 4.4389
L16.8610 4.3784
" />
<path d="M16.8610 4.3784
L16.9214 4.2574
" />
<path d="M16.9214 4.2574
L17.0424 4.1970
" />
<path d="M17.0424 4.1970
L17.2238 4.1970
" />
<path d="M17.2238 4.1970
L17.3448 4.2574
" />
<path d="M18.4333 4.9832
L18.3124 5.0436
" />
<path d="M18.3124 5.0436
L18.0705 5.0436
" />
<path d="M18.0705 5.0436
L17.9495 4.9832
" />
<path d="M17.9495 4.9832
L17.8891 4.8622
" />
<path d="M17.8891 4.8622
L17.8891 4.3784
" />
<path d="M17.8891 4.3784
L17.9495 4.2574
" />
<path d="M17.9495 4.2574
L18.0705 4.1970
" />
<path d="M18.0705 4.1970
L18.3124 4.1970
" />
<path d="M18.3124 4.1970
L18.4333 4.2574
" />
<path d="M18.4333 4.2574
L18.4938 4.3784
" />
<path d="M18.4938 4.3784
L18.4938 4.4993
" />
<path d="M18.4938 4.4993
L17.8891 4.6203
" />
<path d="M18.8567 4.1970
L19.3405 4.1970
" />
<path d="M19.0381 3.7736
L19.0381 4.8622
" />
<path d="M19.0381 4.8622
L19.0986 4.9832
" />
<path d="M19.0986 4.9832
L19.2196 5.0436
" />
<path d="M19.2196 5.0436
L19.3405 5.0436
" />
<path d="M19.7034 4.9832
L19.8243 5.0436
" />
<path d="M19.8243 5.0436
L20.0662 5.0436
" />
<path d="M20.0662 5.0436
L20.1872 4.9832
" />
<path d="M20.1872 4.9832
L20.2476 4.8622
" />
<path d="M20.2476 4.8622
L20.2476 4.8017
" />
<path d="M20.2476 4.8017
L20.1872 4.6808
" />
<path d="M20.1872 4.6808
L20.0662 4.6203
" />
<path d="M20.0662 4.6203
L19.8848 4.6203
" />
<path d="M19.8848 4.6203
L19.7638 4.5598
" />
<path d="M19.7638 4.5598
L19.7034 4.4389
" />
<path d="M19.7034 4.4389
L19.7034 4.3784
" />
<path d="M19.7034 4.3784
L19.7638 4.2574
" />
<path d="M19.7638 4.2574
L19.8848 4.1970
" />
<path d="M19.8848 4.1970
L20.0662 4.1970
" />
<path d="M20.0662 4.1970
L20.1872 4.2574
" />
<path d="M20.7919 4.9227
L20.8524 4.9832
" />
<path d="M20.8524 4.9832
L20.7919 5.0436
" />
<path d="M20.7919 5.0436
L20.7315 4.9832
" />
<path d="M20.7315 4.9832
L20.7919 4.9227
" />
<path d="M20.7919 4.9227
L20.7919 5.0436
" />
<path d="M21.3967 4.1970
L21.3967 5.0436
" />
<path d="M21.3967 4.3179
L21.4572 4.2574
" />
<path d="M21.4572 4.2574
L21.5782 4.1970
" />
<path d="M21.5782 4.1970
L21.7596 4.1970
" />
<path d="M21.7596 4.1970
L21.8805 4.2574
" />
<path d="M21.8805 4.2574
L21.9410 4.3784
" />
<path d="M21.9410 4.3784
L21.9410 5.0436
" />
<path d="M23.0295 4.9832
L22.9086 5.0436
" />
<path d="M22.9086 5.0436
L22.6667 5.0436
" />
<path d="M22.6667 5.0436
L22.5457 4.9832
" />
<path d="M22.5457 4.9832
L22.4853 4.8622
" />
<path d="M22.4853 4.8622
L22.4853 4.3784
" />
<path d="M22.4853 4.3784
L22.5457 4.2574
" />
<path d="M22.5457 4.2574
L22.6667 4.1970
" />
<path d="M22.6667 4.1970
L22.9086 4.1970
" />
<path d="M22.9086 4.1970
L23.0295 4.2574
" />
<path d="M23.0295 4.2574
L23.0900 4.3784
" />
<path d="M23.0900 4.3784
L23.0900 4.4993
" />
<path d="M23.0900 4.4993
L22.4853 4.6203
" />
<path d="M23.5134 5.0436
L24.1786 4.1970
" />
<path d="M23.5134 4.1970
L24.1786 5.0436
" />
<path d="M24.6624 4.1970
L24.6624 5.4670
" />
<path d="M24.6624 4.2574
L24.7834 4.1970
" />
<path d="M24.7834 4.1970
L25.0253 4.1970
" />
<path d="M25.0253 4.1970
L25.1462 4.2574
" />
<path d="M25.1462 4.2574
L25.2067 4.3179
" />
<path d="M25.2067 4.3179
L25.2672 4.4389
" />
<path d="M25.2672 4.4389
L25.2672 4.8017
" />
<path d="M25.2672 4.8017
L25.2067 4.9227
" />
<path d="M25.2067 4.9227
L25.1462 4.9832
" />
<path d="M25.1462 4.9832
L25.0253 5.0436
" />
<path d="M25.0253 5.0436
L24.7834 5.0436
" />
<path d="M24.7834 5.0436
L24.6624 4.9832
" />
<path d="M26.2952 4.9832
L26.1743 5.0436
" />
<path d="M26.1743 5.0436
L25.9324 5.0436
" />
<path d="M25.9324 5.0436
L25.8114 4.9832
" />
<path d="M25.8114 4.9832
L25.7510 4.8622
" />
<path d="M25.7510 4.8622
L25.7510 4.3784
" />
<path d="M25.7510 4.3784
L25.8114 4.2574
" />
<path d="M25.8114 4.2574
L25.9324 4.1970
" />
<path d="M25.9324 4.1970
L26.1743 4.1970
" />
<path d="M26.1743 4.1970
L26.2952 4.2574
" />
<path d="M26.2952 4.2574
L26.3557 4.3784
" />
<path d="M26.3557 4.3784
L26.3557 4.4993
" />
<path d="M26.3557 4.4993
L25.7510 4.6203
" />
<path d="M26.9000 5.0436
L26.9000 4.1970
" />
<path d="M26.9000 4.4389
L26.9605 4.3179
" />
<path d="M26.9605 4.3179
L27.0210 4.2574
" />
<path d="M27.0210 4.2574
L27.1419 4.1970
" />
<path d="M27.1419 4.1970
L27.2629 4.1970
" />
<path d="M27.6862 5.0436
L27.6862 4.1970
" />
<path d="M27.6862 3.7736
L27.6258 3.8341
" />
<path d="M27.6258 3.8341
L27.6862 3.8946
" />
<path d="M27.6862 3.8946
L27.7467 3.8341
" />
<path d="M27.7467 3.8341
L27.6862 3.7736
" />
<path d="M27.6862 3.7736
L27.6862 3.8946
" />
<path d="M28.8353 5.0436
L28.8353 4.3784
" />
<path d="M28.8353 4.3784
L28.7748 4.2574
" />
<path d="M28.7748 4.2574
L28.6539 4.1970
" />
<path d="M28.6539 4.1970
L28.4120 4.1970
" />
<path d="M28.4120 4.1970
L28.2910 4.2574
" />
<path d="M28.8353 4.9832
L28.7144 5.0436
" />
<path d="M28.7144 5.0436
L28.4120 5.0436
" />
<path d="M28.4120 5.0436
L28.2910 4.9832
" />
<path d="M28.2910 4.9832
L28.2306 4.8622
" />
<path d="M28.2306 4.8622
L28.2306 4.7412
" />
<path d="M28.2306 4.7412
L28.2910 4.6203
" />
<path d="M28.2910 4.6203
L28.4120 4.5598
" />
<path d="M28.4120 4.5598
L28.7144 4.5598
" />
<path d="M28.7144 4.5598
L28.8353 4.4993
" />
<path d="M29.4400 4.9227
L29.5005 4.9832
" />
<path d="M29.5005 4.9832
L29.4400 5.0436
" />
<path d="M29.4400 5.0436
L29.3796 4.9832
" />
<path d="M29.3796 4.9832
L29.4400 4.9227
" />
<path d="M29.4400 4.9227
L29.4400 5.0436
" />
<path d="M30.5891 4.9832
L30.4682 5.0436
" />
<path d="M30.4682 5.0436
L30.2263 5.0436
" />
<path d="M30.2263 5.0436
L30.1053 4.9832
" />
<path d="M30.1053 4.9832
L30.0448 4.9227
" />
<path d="M30.0448 4.9227
L29.9844 4.8017
" />
<path d="M29.9844 4.8017
L29.9844 4.4389
" />
<path d="M29.9844 4.4389
L30.0448 4.3179
" />
<path d="M30.0448 4.3179
L30.1053 4.2574
" />
<path d="M30.1053 4.2574
L30.2263 4.1970
" />
<path d="M30.2263 4.1970
L30.4682 4.1970
" />
<path d="M30.4682 4.1970
L30.5891 4.2574
" />
<path d="M31.3149 5.0436
L31.1939 4.9832
" />
<path d="M31.1939 4.9832
L31.1334 4.9227
" />
<path d="M31.1334 4.9227
L31.0730 4.8017
" />
<path d="M31.0730 4.8017
L31.0730 4.4389
" />
<path d="M31.0730 4.4389
L31.1334 4.3179
" />
<path d="M31.1334 4.3179
L31.1939 4.2574
" />
<path d="M31.1939 4.2574
L31.3149 4.1970
" />
<path d="M31.3149 4.1970
L31.4963 4.1970
" />
<path d="M31.4963 4.1970
L31.6172 4.2574
" />
<path d="M31.6172 4.2574
L31.6777 4.3179
" />
<path d="M31.6777 4.3179
L31.7382 4.4389
" />
<path d="M31.7382 4.4389
L31.7382 4.8017
" />
<path d="M31.7382 4.8017
L31.6777 4.9227
" />
<path d="M31.6777 4.9227
L31.6172 4.9832
" />
<path d="M31.6172 4.9832
L31.4963 5.0436
" />
<path d="M31.4963 5.0436
L31.3149 5.0436
" />
<path d="M32.2824 5.0436
L32.2824 4.1970
" />
<path d="M32.2824 4.3179
L32.3429 4.2574
" />
<path d="M32.3429 4.2574
L32.4639 4.1970
" />
<path d="M32.4639 4.1970
L32.6453 4.1970
" />
<path d="M32.6453 4.1970
L32.7662 4.2574
" />
<path d="M32.7662 4.2574
L32.8267 4.3784
" />
<path d="M32.8267 4.3784
L32.8267 5.0436
" />
<path d="M32.8267 4.3784
L32.8872 4.2574
" />
<path d="M32.8872 4.2574
L33.0081 4.1970
" />
<path d="M33.0081 4.1970
L33.1896 4.1970
" />
<path d="M33.1896 4.1970
L33.3105 4.2574
" />
<path d="M33.3105 4.2574
L33.3710 4.3784
" />
<path d="M33.3710 4.3784
L33.3710 5.0436
" />
<path d="M34.8829 3.7132
L33.7943 5.3460
" />
<path d="M35.8505 5.0436
L35.8505 3.7736
" />
<path d="M35.8505 4.9832
L35.7296 5.0436
" />
<path d="M35.7296 5.0436
L35.4877 5.0436
" />
<path d="M35.4877 5.0436
L35.3667 4.9832
" />
<path d="M35.3667 4.9832
L35.3062 4.9227
" />
<path d="M35.3062 4.9227
L35.2458 4.8017
" />
<path d="M35.2458 4.8017
L35.2458 4.4389
" />
<path d="M35.2458 4.4389
L35.3062 4.3179
" />
<path d="M35.3062 4.3179
L35.3667 4.2574
" />
<path d="M35.3667 4.2574
L35.4877 4.1970
" />
<path d="M35.4877 4.1970
L35.7296 4.1970
" />
<path d="M35.7296 4.1970
L35.8505 4.2574
" />
<path d="M36.6367 5.0436
L36.5157 4.9832
" />
<path d="M36.5157 4.9832
L36.4552 4.9227
" />
<path d="M36.4552 4.9227
L36.3948 4.8017
" />
<path d="M36.3948 4.8017
L36.3948 4.4389
" />
<path d="M36.3948 4.4389
L36.4552 4.3179
" />
<path d="M36.4552 4.3179
L36.5157 4.2574
" />
<path d="M36.5157 4.2574
L36.6367 4.1970
" />
<path d="M36.6367 4.1970
L36.8181 4.1970
" />
<path d="M36.8181 4.1970
L36.9390 4.2574
" />
<path d="M36.9390 4.2574
L36.9995 4.3179
" />
<path d="M36.9995 4.3179
L37.0600 4.4389
" />
<path d="M37.0600 4.4389
L37.0600 4.8017
" />
<path d="M37.0600 4.8017
L36.9995 4.9227
" />
<path d="M36.9995 4.9227
L36.9390 4.9832
" />
<path d="M36.9390 4.9832
L36.8181 5.0436
" />
<path d="M36.8181 5.0436
L36.6367 5.0436
" />
<path d="M38.1485 4.9832
L38.0276 5.0436
" />
<path d="M38.0276 5.0436
L37.7857 5.0436
" />
<path d="M37.7857 5.0436
L37.6647 4.9832
" />
<path d="M37.6647 4.9832
L37.6042 4.9227
" />
<path d="M37.6042 4.9227
L37.5438 4.8017
" />
<path d="M37.5438 4.8017
L37.5438 4.4389
" />
<path d="M37.5438 4.4389
L37.6042 4.3179
" />
<path d="M37.6042 4.3179
L37.6647 4.2574
" />
<path d="M37.6647 4.2574
L37.7857 4.1970
" />
<path d="M37.7857 4.1970
L38.0276 4.1970
" />
<path d="M38.0276 4.1970
L38.1485 4.2574
" />
<path d="M39.2371 4.1970
L39.2371 5.0436
" />
<path d="M38.6928 4.1970
L38.6928 4.8622
" />
<path d="M38.6928 4.8622
L38.7533 4.9832
" />
<path d="M38.7533 4.9832
L38.8743 5.0436
" />
<path d="M38.8743 5.0436
L39.0557 5.0436
" />
<path d="M39.0557 5.0436
L39.1766 4.9832
" />
<path d="M39.1766 4.9832
L39.2371 4.9227
" />
<path d="M39.8418 5.0436
L39.8418 4.1970
" />
<path d="M39.8418 4.3179
L39.9023 4.2574
" />
<path d="M39.9023 4.2574
L40.0233 4.1970
" />
<path d="M40.0233 4.1970
L40.2047 4.1970
" />
<path d="M40.2047 4.1970
L40.3256 4.2574
" />
<path d="M40.3256 4.2574
L40.3861 4.3784
" />
<path d="M40.3861 4.3784
L40.3861 5.0436
" />
<path d="M40.3861 4.3784
L40.4466 4.2574
" />
<path d="M40.4466 4.2574
L40.5675 4.1970
" />
<path d="M40.5675 4.1970
L40.7490 4.1970
" />
<path d="M40.7490 4.1970
L40.8699 4.2574
" />
<path d="M40.8699 4.2574
L40.9304 4.3784
" />
<path d="M40.9304 4.3784
L40.9304 5.0436
" />
<path d="M42.0189 4.9832
L41.8980 5.0436
" />
<path d="M41.8980 5.0436
L41.6561 5.0436
" />
<path d="M41.6561 5.0436
L41.5351 4.9832
" />
<path d="M41.5351 4.9832
L41.4747 4.8622
" />
<path d="M41.4747 4.8622
L41.4747 4.3784
" />
<path d="M41.4747 4.3784
L41.5351 4.2574
" />
<path d="M41.5351 4.2574
L41.6561 4.1970
" />
<path d="M41.6561 4.1970
L41.8980 4.1970
" />
<path d="M41.8980 4.1970
L42.0189 4.2574
" />
<path d="M42.0189 4.2574
L42.0794 4.3784
" />
<path d="M42.0794 4.3784
L42.0794 4.4993
" />
<path d="M42.0794 4.4993
L41.4747 4.6203
" />
<path d="M42.6237 4.1970
L42.6237 5.0436
" />
<path d="M42.6237 4.3179
L42.6842 4.2574
" />
<path d="M42.6842 4.2574
L42.8052 4.1970
" />
<path d="M42.8052 4.1970
L42.9866 4.1970
" />
<path d="M42.9866 4.1970
L43.1075 4.2574
" />
<path d="M43.1075 4.2574
L43.1680 4.3784
" />
<path d="M43.1680 4.3784
L43.1680 5.0436
" />
<path d="M43.5913 4.1970
L44.0751 4.1970
" />
<path d="M43.7727 3.7736
L43.7727 4.8622
" />
<path d="M43.7727 4.8622
L43.8332 4.9832
" />
<path d="M43.8332 4.9832
L43.9542 5.0436
" />
<path d="M43.9542 5.0436
L44.0751 5.0436
" />
<path d="M44.4380 4.9832
L44.5589 5.0436
" />
<path d="M44.5589 5.0436
L44.8008 5.0436
" />
<path d="M44.8008 5.0436
L44.9218 4.9832
" />
<path d="M44.9218 4.9832
L44.9822 4.8622
" />
<path d="M44.9822 4.8622
L44.9822 4.8017
" />
<path d="M44.9822 4.8017
L44.9218 4.6808
" />
<path d="M44.9218 4.6808
L44.8008 4.6203
" />
<path d="M44.8008 4.6203
L44.6194 4.6203
" />
<path d="M44.6194 4.6203
L44.4984 4.5598
" />
<path d="M44.4984 4.5598
L44.4380 4.4389
" />
<path d="M44.4380 4.4389
L44.4380 4.3784
" />
<path d="M44.4380 4.3784
L44.4984 4.2574
" />
<path d="M44.4984 4.2574
L44.6194 4.1970
" />
<path d="M44.6194 4.1970
L44.8008 4.1970
" />
<path d="M44.8008 4.1970
L44.9218 4.2574
" />
<path d="M46.4337 3.7132
L45.3451 5.3460
" />
<path d="M47.4013 5.0436
L47.4013 3.7736
" />
<path d="M47.4013 4.9832
L47.2804 5.0436
" />
<path d="M47.2804 5.0436
L47.0385 5.0436
" />
<path d="M47.0385 5.0436
L46.9175 4.9832
" />
<path d="M46.9175 4.9832
L46.8570 4.9227
" />
<path d="M46.8570 4.9227
L46.7966 4.8017
" />
<path d="M46.7966 4.8017
L46.7966 4.4389
" />
<path d="M46.7966 4.4389
L46.8570 4.3179
" />
<path d="M46.8570 4.3179
L46.9175 4.2574
" />
<path d="M46.9175 4.2574
L47.0385 4.1970
" />
<path d="M47.0385 4.1970
L47.2804 4.1970
" />
<path d="M47.2804 4.1970
L47.4013 4.2574
" />
<path d="M48.5503 5.0436
L48.5503 4.3784
" />
<path d="M48.5503 4.3784
L48.4898 4.2574
" />
<path d="M48.4898 4.2574
L48.3689 4.1970
" />
<path d="M48.3689 4.1970
L48.1270 4.1970
" />
<path d="M48.1270 4.1970
L48.0060 4.2574
" />
<path d="M48.5503 4.9832
L48.4294 5.0436
" />
<path d="M48.4294 5.0436
L48.1270 5.0436
" />
<path d="M48.1270 5.0436
L48.0060 4.9832
" />
<path d="M48.0060 4.9832
L47.9456 4.8622
" />
<path d="M47.9456 4.8622
L47.9456 4.7412
" />
<path d="M47.9456 4.7412
L48.0060 4.6203
" />
<path d="M48.0060 4.6203
L48.1270 4.5598
" />
<path d="M48.1270 4.5598
L48.4294 4.5598
" />
<path d="M48.4294 4.5598
L48.5503 4.4993
" />
<path d="M48.9736 4.1970
L49.4574 4.1970
" />
<path d="M49.1550 3.7736
L49.1550 4.8622
" />
<path d="M49.1550 4.8622
L49.2155 4.9832
" />
<path d="M49.2155 4.9832
L49.3365 5.0436
" />
<path d="M49.3365 5.0436
L49.4574 5.0436
" />
<path d="M50.4250 5.0436
L50.4250 4.3784
" />
<path d="M50.4250 4.3784
L50.3645 4.2574
" />
<path d="M50.3645 4.2574
L50.2436 4.1970
" />
<path d="M50.2436 4.1970
L50.0017 4.1970
" />
<path d="M50.0017 4.1970
L49.8807 4.2574
" />
<path d="M50.4250 4.9832
L50.3041 5.0436
" />
<path d="M50.3041 5.0436
L50.0017 5.0436
" />
<path d="M50.0017 5.0436
L49.8807 4.9832
" />
<path d="M49.8807 4.9832
L49.8203 4.8622
" />
<path d="M49.8203 4.8622
L49.8203 4.7412
" />
<path d="M49.8203 4.7412
L49.8807 4.6203
" />
<path d="M49.8807 4.6203
L50.0017 4.5598
" />
<path d="M50.0017 4.5598
L50.3041 4.5598
" />
<path d="M50.3041 4.5598
L50.4250 4.4993
" />
<path d="M51.0297 4.5598
L51.9974 4.5598
" />
<path d="M52.5417 4.9832
L52.6626 5.0436
" />
<path d="M52.6626 5.0436
L52.9045 5.0436
" />
<path d="M52.9045 5.0436
L53.0255 4.9832
" />
<path d="M53.0255 4.9832
L53.0859 4.8622
" />
<path d="M53.0859 4.8622
L53.0859 4.8017
" />
<path d="M53.0859 4.8017
L53.0255 4.6808
" />
<path d="M53.0255 4.6808
L52.9045 4.6203
" />
<path d="M52.9045 4.6203
L52.7231 4.6203
" />
<path d="M52.7231 4.6203
L52.6021 4.5598
" />
<path d="M52.6021 4.5598
L52.5417 4.4389
" />
<path d="M52.5417 4.4389
L52.5417 4.3784
" />
<path d="M52.5417 4.3784
L52.6021 4.2574
" />
<path d="M52.6021 4.2574
L52.7231 4.1970
" />
<path d="M52.7231 4.1970
L52.9045 4.1970
" />
<path d="M52.9045 4.1970
L53.0255 4.2574
" />
<path d="M53.6302 5.0436
L53.6302 3.7736
" />
<path d="M54.1745 5.0436
L54.1745 4.3784
" />
<path d="M54.1745 4.3784
L54.1140 4.2574
" />
<path d="M54.1140 4.2574
L53.9931 4.1970
" />
<path d="M53.9931 4.1970
L53.8117 4.1970
" />
<path d="M53.8117 4.1970
L53.6907 4.2574
" />
<path d="M53.6907 4.2574
L53.6302 4.3179
" />
<path d="M55.2630 4.9832
L55.1421 5.0436
" />
<path d="M55.1421 5.0436
L54.9002 5.0436
" />
<path d="M54.9002 5.0436
L54.7792 4.9832
" />
<path d="M54.7792 4.9832
L54.7188 4.8622
" />
<path d="M54.7188 4.8622
L54.7188 4.3784
" />
<path d="M54.7188 4.3784
L54.7792 4.2574
" />
<path d="M54.7792 4.2574
L54.9002 4.1970
" />
<path d="M54.9002 4.1970
L55.1421 4.1970
" />
<path d="M55.1421 4.1970
L55.2630 4.2574
" />
<path d="M55.2630 4.2574
L55.3235 4.3784
" />
<path d="M55.3235 4.3784
L55.3235 4.4993
" />
<path d="M55.3235 4.4993
L54.7188 4.6203
" />
<path d="M56.3516 4.9832
L56.2307 5.0436
" />
<path d="M56.2307 5.0436
L55.9888 5.0436
" />
<path d="M55.9888 5.0436
L55.8678 4.9832
" />
<path d="M55.8678 4.9832
L55.8074 4.8622
" />
<path d="M55.8074 4.8622
L55.8074 4.3784
" />
<path d="M55.8074 4.3784
L55.8678 4.2574
" />
<path d="M55.8678 4.2574
L55.9888 4.1970
" />
<path d="M55.9888 4.1970
L56.2307 4.1970
" />
<path d="M56.2307 4.1970
L56.3516 4.2574
" />
<path d="M56.3516 4.2574
L56.4121 4.3784
" />
<path d="M56.4121 4.3784
L56.4121 4.4993
" />
<path d="M56.4121 4.4993
L55.8074 4.6203
" />
<path d="M56.7750 4.1970
L57.2588 4.1970
" />
<path d="M56.9564 3.7736
L56.9564 4.8622
" />
<path d="M56.9564 4.8622
L57.0169 4.9832
" />
<path d="M57.0169 4.9832
L57.1379 5.0436
" />
<path d="M57.1379 5.0436
L57.2588 5.0436
" />
<path d="M58.5893 3.7132
L57.5007 5.3460
" />
<path d="M59.4360 4.3784
L59.6174 4.4389
" />
<path d="M59.6174 4.4389
L59.6779 4.4993
" />
<path d="M59.6779 4.4993
L59.7383 4.6203
" />
<path d="M59.7383 4.6203
L59.7383 4.8017
" />
<path d="M59.7383 4.8017
L59.6779 4.9227
" />
<path d="M59.6779 4.9227
L59.6174 4.9832
" />
<path d="M59.6174 4.9832
L59.4964 5.0436
" />
<path d="M59.4964 5.0436
L59.0126 5.0436
" />
<path d="M59.0126 5.0436
L59.0126 3.7736
" />
<path d="M59.0126 3.7736
L59.4360 3.7736
" />
<path d="M59.4360 3.7736
L59.5569 3.8341
" />
<path d="M59.5569 3.8341
L59.6174 3.8946
" />
<path d="M59.6174 3.8946
L59.6779 4.0155
" />
<path d="M59.6779 4.0155
L59.6779 4.1365
" />
<path d="M59.6779 4.1365
L59.6174 4.2574
" />
<path d="M59.6174 4.2574
L59.5569 4.3179
" />
<path d="M59.5569 4.3179
L59.4360 4.3784
" />
<path d="M59.4360 4.3784
L59.0126 4.3784
" />
<path d="M60.2222 4.6808
L60.8269 4.6808
" />
<path d="M60.1012 5.0436
L60.5245 3.7736
" />
<path d="M60.5245 3.7736
L60.9479 5.0436
" />
<path d="M61.1898 3.7736
L61.9155 3.7736
" />
<path d="M61.5527 5.0436
L61.5527 3.7736
" />
<path d="M62.9436 3.7736
L62.3388 3.7736
" />
<path d="M62.3388 3.7736
L62.2784 4.3784
" />
<path d="M62.2784 4.3784
L62.3388 4.3179
" />
<path d="M62.3388 4.3179
L62.4598 4.2574
" />
<path d="M62.4598 4.2574
L62.7622 4.2574
" />
<path d="M62.7622 4.2574
L62.8831 4.3179
" />
<path d="M62.8831 4.3179
L62.9436 4.3784
" />
<path d="M62.9436 4.3784
L63.0041 4.4993
" />
<path d="M63.0041 4.4993
L63.0041 4.8017
" />
<path d="M63.0041 4.8017
L62.9436 4.9227
" />
<path d="M62.9436 4.9227
L62.8831 4.9832
" />
<path d="M62.8831 4.9832
L62.7622 5.0436
" />
<path d="M62.7622 5.0436
L62.4598 5.0436
" />
<path d="M62.4598 5.0436
L62.3388 4.9832
" />
<path d="M62.3388 4.9832
L62.2784 4.9227
" />
<path d="M64.0926 4.1970
L64.0926 5.0436
" />
<path d="M63.7902 3.7132
L63.4879 4.6203
" />
<path d="M63.4879 4.6203
L64.2740 4.6203
" />
<path d="M65.1207 3.7736
L65.1207 4.6808
" />
<path d="M65.1207 4.6808
L65.0602 4.8622
" />
<path d="M65.0602 4.8622
L64.9393 4.9832
" />
<path d="M64.9393 4.9832
L64.7578 5.0436
" />
<path d="M64.7578 5.0436
L64.6369 5.0436
" />
<path d="M65.7254 4.9227
L65.7859 4.9832
" />
<path d="M65.7859 4.9832
L65.7254 5.0436
" />
<path d="M65.7254 5.0436
L65.6650 4.9832
" />
<path d="M65.6650 4.9832
L65.7254 4.9227
" />
<path d="M65.7254 4.9227
L65.7254 5.0436
" />
<path d="M66.3302 4.1970
L66.3302 5.4670
" />
<path d="M66.3302 4.2574
L66.4512 4.1970
" />
<path d="M66.4512 4.1970
L66.6931 4.1970
" />
<path d="M66.6931 4.1970
L66.8140 4.2574
" />
<path d="M66.8140 4.2574
L66.8745 4.3179
" />
<path d="M66.8745 4.3179
L66.9350 4.4389
" />
<path d="M66.9350 4.4389
L66.9350 4.8017
" />
<path d="M66.9350 4.8017
L66.8745 4.9227
" />
<path d="M66.8745 4.9227
L66.8140 4.9832
" />
<path d="M66.8140 4.9832
L66.6931 5.0436
" />
<path d="M66.6931 5.0436
L66.4512 5.0436
" />
<path d="M66.4512 5.0436
L66.3302 4.9832
" />
<path d="M68.0235 5.0436
L68.0235 3.7736
" />
<path d="M68.0235 4.9832
L67.9026 5.0436
" />
<path d="M67.9026 5.0436
L67.6607 5.0436
" />
<path d="M67.6607 5.0436
L67.5397 4.9832
" />
<path d="M67.5397 4.9832
L67.4792 4.9227
" />
<path d="M67.4792 4.9227
L67.4188 4.8017
" />
<path d="M67.4188 4.8017
L67.4188 4.4389
" />
<path d="M67.4188 4.4389
L67.4792 4.3179
" />
<path d="M67.4792 4.3179
L67.5397 4.2574
" />
<path d="M67.5397 4.2574
L67.6607 4.1970
" />
<path d="M67.6607 4.1970
L67.9026 4.1970
" />
<path d="M67.9026 4.1970
L68.0235 4.2574
" />
<path d="M68.4468 4.1970
L68.9306 4.1970
" />
<path d="M68.6282 5.0436
L68.6282 3.9551
" />
<path d="M68.6282 3.9551
L68.6887 3.8341
" />
<path d="M68.6887 3.8341
L68.8097 3.7736
" />
<path d="M68.8097 3.7736
L68.9306 3.7736
" />
</g></g> 
</svg>
