<?xml version="1.0" standalone="no"?>
 <!DOCTYPE svg PUBLIC "-//W3C//DTD SVG 1.1//EN" 
 "http://www.w3.org/Graphics/SVG/1.1/DTD/svg11.dtd"> 
<svg
  xmlns:svg="http://www.w3.org/2000/svg"
  xmlns="http://www.w3.org/2000/svg"
  xmlns:xlink="http://www.w3.org/1999/xlink"
  version="1.1"
  width="98.7552mm" height="84.7598mm" viewBox="0.0000 0.0000 98.7552 84.7598">
<title>SVG Image created as working.svg date 2023/08/12 23:54:28 </title>
  <desc>Image generated by Eeschema-SVG </desc>
<g style="fill:#000000; fill-opacity:1.0000;stroke:#000000; stroke-opacity:1.0000;
stroke-linecap:round; stroke-linejoin:round;"
 transform="translate(0 0) scale(1 1)">
</g>
<g style="fill:#840000; fill-opacity:0.0; 
stroke:#840000; stroke-width:0.0000; stroke-opacity:1; 
stroke-linecap:round; stroke-linejoin:round;">
</g>
<g style="fill:#840084; fill-opacity:0.0; 
stroke:#840084; stroke-width:0.0000; stroke-opacity:1; 
stroke-linecap:round; stroke-linejoin:round;">
</g>
<g style="fill:#840000; fill-opacity:0.0; 
stroke:#840000; stroke-width:0.0000; stroke-opacity:1; 
stroke-linecap:round; stroke-linejoin:round;">
</g>
<g style="fill:#840084; fill-opacity:0.0; 
stroke:#840084; stroke-width:0.0000; stroke-opacity:1; 
stroke-linecap:round; stroke-linejoin:round;">
</g>
<g style="fill:#006464; fill-opacity:0.0; 
stroke:#006464; stroke-width:0.0000; stroke-opacity:1; 
stroke-linecap:round; stroke-linejoin:round;">
</g>
<g style="fill:#006464; fill-opacity:0.0; 
stroke:#006464; stroke-width:0.1588; stroke-opacity:1; 
stroke-linecap:round; stroke-linejoin:round;">
<text x="40.4318" y="8.7189"
textLength="2.6415" font-size="1.6933" lengthAdjust="spacingAndGlyphs"
text-anchor="middle" opacity="0">U?</text>
<g class="stroked-text"><desc>U?</desc>
<path d="M39.5246 7.3931
L39.5246 8.4212
" />
<path d="M39.5246 8.4212
L39.5851 8.5422
" />
<path d="M39.5851 8.5422
L39.6456 8.6027
" />
<path d="M39.6456 8.6027
L39.7665 8.6631
" />
<path d="M39.7665 8.6631
L40.0084 8.6631
" />
<path d="M40.0084 8.6631
L40.1294 8.6027
" />
<path d="M40.1294 8.6027
L40.1899 8.5422
" />
<path d="M40.1899 8.5422
L40.2503 8.4212
" />
<path d="M40.2503 8.4212
L40.2503 7.3931
" />
<path d="M41.0366 8.5422
L41.0970 8.6027
" />
<path d="M41.0970 8.6027
L41.0366 8.6631
" />
<path d="M41.0366 8.6631
L40.9761 8.6027
" />
<path d="M40.9761 8.6027
L41.0366 8.5422
" />
<path d="M41.0366 8.5422
L41.0366 8.6631
" />
<path d="M40.7947 7.4536
L40.9156 7.3931
" />
<path d="M40.9156 7.3931
L41.2180 7.3931
" />
<path d="M41.2180 7.3931
L41.3389 7.4536
" />
<path d="M41.3389 7.4536
L41.3994 7.5746
" />
<path d="M41.3994 7.5746
L41.3994 7.6955
" />
<path d="M41.3994 7.6955
L41.3389 7.8165
" />
<path d="M41.3389 7.8165
L41.2785 7.8769
" />
<path d="M41.2785 7.8769
L41.1575 7.9374
" />
<path d="M41.1575 7.9374
L41.0970 7.9979
" />
<path d="M41.0970 7.9979
L41.0366 8.1188
" />
<path d="M41.0366 8.1188
L41.0366 8.1793
" />
</g><text x="57.0024" y="8.7189"
textLength="5.0604" font-size="1.6933" lengthAdjust="spacingAndGlyphs"
text-anchor="middle" opacity="0">6822</text>
<g class="stroked-text"><desc>6822</desc>
<path d="M55.4300 7.3931
L55.1881 7.3931
" />
<path d="M55.1881 7.3931
L55.0672 7.4536
" />
<path d="M55.0672 7.4536
L55.0067 7.5141
" />
<path d="M55.0067 7.5141
L54.8857 7.6955
" />
<path d="M54.8857 7.6955
L54.8253 7.9374
" />
<path d="M54.8253 7.9374
L54.8253 8.4212
" />
<path d="M54.8253 8.4212
L54.8857 8.5422
" />
<path d="M54.8857 8.5422
L54.9462 8.6027
" />
<path d="M54.9462 8.6027
L55.0672 8.6631
" />
<path d="M55.0672 8.6631
L55.3091 8.6631
" />
<path d="M55.3091 8.6631
L55.4300 8.6027
" />
<path d="M55.4300 8.6027
L55.4905 8.5422
" />
<path d="M55.4905 8.5422
L55.5510 8.4212
" />
<path d="M55.5510 8.4212
L55.5510 8.1188
" />
<path d="M55.5510 8.1188
L55.4905 7.9979
" />
<path d="M55.4905 7.9979
L55.4300 7.9374
" />
<path d="M55.4300 7.9374
L55.3091 7.8769
" />
<path d="M55.3091 7.8769
L55.0672 7.8769
" />
<path d="M55.0672 7.8769
L54.9462 7.9374
" />
<path d="M54.9462 7.9374
L54.8857 7.9979
" />
<path d="M54.8857 7.9979
L54.8253 8.1188
" />
<path d="M56.2767 7.9374
L56.1557 7.8769
" />
<path d="M56.1557 7.8769
L56.0952 7.8165
" />
<path d="M56.0952 7.8165
L56.0348 7.6955
" />
<path d="M56.0348 7.6955
L56.0348 7.6350
" />
<path d="M56.0348 7.6350
L56.0952 7.5141
" />
<path d="M56.0952 7.5141
L56.1557 7.4536
" />
<path d="M56.1557 7.4536
L56.2767 7.3931
" />
<path d="M56.2767 7.3931
L56.5186 7.3931
" />
<path d="M56.5186 7.3931
L56.6395 7.4536
" />
<path d="M56.6395 7.4536
L56.7000 7.5141
" />
<path d="M56.7000 7.5141
L56.7605 7.6350
" />
<path d="M56.7605 7.6350
L56.7605 7.6955
" />
<path d="M56.7605 7.6955
L56.7000 7.8165
" />
<path d="M56.7000 7.8165
L56.6395 7.8769
" />
<path d="M56.6395 7.8769
L56.5186 7.9374
" />
<path d="M56.5186 7.9374
L56.2767 7.9374
" />
<path d="M56.2767 7.9374
L56.1557 7.9979
" />
<path d="M56.1557 7.9979
L56.0952 8.0584
" />
<path d="M56.0952 8.0584
L56.0348 8.1793
" />
<path d="M56.0348 8.1793
L56.0348 8.4212
" />
<path d="M56.0348 8.4212
L56.0952 8.5422
" />
<path d="M56.0952 8.5422
L56.1557 8.6027
" />
<path d="M56.1557 8.6027
L56.2767 8.6631
" />
<path d="M56.2767 8.6631
L56.5186 8.6631
" />
<path d="M56.5186 8.6631
L56.6395 8.6027
" />
<path d="M56.6395 8.6027
L56.7000 8.5422
" />
<path d="M56.7000 8.5422
L56.7605 8.4212
" />
<path d="M56.7605 8.4212
L56.7605 8.1793
" />
<path d="M56.7605 8.1793
L56.7000 8.0584
" />
<path d="M56.7000 8.0584
L56.6395 7.9979
" />
<path d="M56.6395 7.9979
L56.5186 7.9374
" />
<path d="M57.2443 7.5141
L57.3047 7.4536
" />
<path d="M57.3047 7.4536
L57.4257 7.3931
" />
<path d="M57.4257 7.3931
L57.7281 7.3931
" />
<path d="M57.7281 7.3931
L57.8490 7.4536
" />
<path d="M57.8490 7.4536
L57.9095 7.5141
" />
<path d="M57.9095 7.5141
L57.9700 7.6350
" />
<path d="M57.9700 7.6350
L57.9700 7.7560
" />
<path d="M57.9700 7.7560
L57.9095 7.9374
" />
<path d="M57.9095 7.9374
L57.1838 8.6631
" />
<path d="M57.1838 8.6631
L57.9700 8.6631
" />
<path d="M58.4538 7.5141
L58.5142 7.4536
" />
<path d="M58.5142 7.4536
L58.6352 7.3931
" />
<path d="M58.6352 7.3931
L58.9376 7.3931
" />
<path d="M58.9376 7.3931
L59.0585 7.4536
" />
<path d="M59.0585 7.4536
L59.1190 7.5141
" />
<path d="M59.1190 7.5141
L59.1795 7.6350
" />
<path d="M59.1795 7.6350
L59.1795 7.7560
" />
<path d="M59.1795 7.7560
L59.1190 7.9374
" />
<path d="M59.1190 7.9374
L58.3933 8.6631
" />
<path d="M58.3933 8.6631
L59.1795 8.6631
" />
</g></g>
<g style="fill:#840084; fill-opacity:0.0; 
stroke:#840084; stroke-width:0.1588; stroke-opacity:1; 
stroke-linecap:round; stroke-linejoin:round;">
<text x="66.2658" y="77.2989"
textLength="31.2465" font-size="1.6933" lengthAdjust="spacingAndGlyphs"
text-anchor="middle" opacity="0">Package_DIP:DIP-40_W15.24mm</text>
<g class="stroked-text"><desc>Package_DIP:DIP-40_W15.24mm</desc>
<path d="M51.0561 77.2431
L51.0561 75.9731
" />
<path d="M51.0561 75.9731
L51.5399 75.9731
" />
<path d="M51.5399 75.9731
L51.6609 76.0336
" />
<path d="M51.6609 76.0336
L51.7214 76.0941
" />
<path d="M51.7214 76.0941
L51.7818 76.2150
" />
<path d="M51.7818 76.2150
L51.7818 76.3965
" />
<path d="M51.7818 76.3965
L51.7214 76.5174
" />
<path d="M51.7214 76.5174
L51.6609 76.5779
" />
<path d="M51.6609 76.5779
L51.5399 76.6384
" />
<path d="M51.5399 76.6384
L51.0561 76.6384
" />
<path d="M52.8704 77.2431
L52.8704 76.5779
" />
<path d="M52.8704 76.5779
L52.8099 76.4569
" />
<path d="M52.8099 76.4569
L52.6890 76.3965
" />
<path d="M52.6890 76.3965
L52.4471 76.3965
" />
<path d="M52.4471 76.3965
L52.3261 76.4569
" />
<path d="M52.8704 77.1827
L52.7495 77.2431
" />
<path d="M52.7495 77.2431
L52.4471 77.2431
" />
<path d="M52.4471 77.2431
L52.3261 77.1827
" />
<path d="M52.3261 77.1827
L52.2657 77.0617
" />
<path d="M52.2657 77.0617
L52.2657 76.9407
" />
<path d="M52.2657 76.9407
L52.3261 76.8198
" />
<path d="M52.3261 76.8198
L52.4471 76.7593
" />
<path d="M52.4471 76.7593
L52.7495 76.7593
" />
<path d="M52.7495 76.7593
L52.8704 76.6988
" />
<path d="M54.0194 77.1827
L53.8985 77.2431
" />
<path d="M53.8985 77.2431
L53.6566 77.2431
" />
<path d="M53.6566 77.2431
L53.5356 77.1827
" />
<path d="M53.5356 77.1827
L53.4751 77.1222
" />
<path d="M53.4751 77.1222
L53.4147 77.0012
" />
<path d="M53.4147 77.0012
L53.4147 76.6384
" />
<path d="M53.4147 76.6384
L53.4751 76.5174
" />
<path d="M53.4751 76.5174
L53.5356 76.4569
" />
<path d="M53.5356 76.4569
L53.6566 76.3965
" />
<path d="M53.6566 76.3965
L53.8985 76.3965
" />
<path d="M53.8985 76.3965
L54.0194 76.4569
" />
<path d="M54.5637 77.2431
L54.5637 75.9731
" />
<path d="M54.6847 76.7593
L55.0475 77.2431
" />
<path d="M55.0475 76.3965
L54.5637 76.8803
" />
<path d="M56.1361 77.2431
L56.1361 76.5779
" />
<path d="M56.1361 76.5779
L56.0756 76.4569
" />
<path d="M56.0756 76.4569
L55.9547 76.3965
" />
<path d="M55.9547 76.3965
L55.7128 76.3965
" />
<path d="M55.7128 76.3965
L55.5918 76.4569
" />
<path d="M56.1361 77.1827
L56.0152 77.2431
" />
<path d="M56.0152 77.2431
L55.7128 77.2431
" />
<path d="M55.7128 77.2431
L55.5918 77.1827
" />
<path d="M55.5918 77.1827
L55.5314 77.0617
" />
<path d="M55.5314 77.0617
L55.5314 76.9407
" />
<path d="M55.5314 76.9407
L55.5918 76.8198
" />
<path d="M55.5918 76.8198
L55.7128 76.7593
" />
<path d="M55.7128 76.7593
L56.0152 76.7593
" />
<path d="M56.0152 76.7593
L56.1361 76.6988
" />
<path d="M57.2851 76.3965
L57.2851 77.4246
" />
<path d="M57.2851 77.4246
L57.2246 77.5455
" />
<path d="M57.2246 77.5455
L57.1642 77.6060
" />
<path d="M57.1642 77.6060
L57.0432 77.6665
" />
<path d="M57.0432 77.6665
L56.8618 77.6665
" />
<path d="M56.8618 77.6665
L56.7408 77.6060
" />
<path d="M57.2851 77.1827
L57.1642 77.2431
" />
<path d="M57.1642 77.2431
L56.9223 77.2431
" />
<path d="M56.9223 77.2431
L56.8013 77.1827
" />
<path d="M56.8013 77.1827
L56.7408 77.1222
" />
<path d="M56.7408 77.1222
L56.6804 77.0012
" />
<path d="M56.6804 77.0012
L56.6804 76.6384
" />
<path d="M56.6804 76.6384
L56.7408 76.5174
" />
<path d="M56.7408 76.5174
L56.8013 76.4569
" />
<path d="M56.8013 76.4569
L56.9223 76.3965
" />
<path d="M56.9223 76.3965
L57.1642 76.3965
" />
<path d="M57.1642 76.3965
L57.2851 76.4569
" />
<path d="M58.3736 77.1827
L58.2527 77.2431
" />
<path d="M58.2527 77.2431
L58.0108 77.2431
" />
<path d="M58.0108 77.2431
L57.8898 77.1827
" />
<path d="M57.8898 77.1827
L57.8294 77.0617
" />
<path d="M57.8294 77.0617
L57.8294 76.5779
" />
<path d="M57.8294 76.5779
L57.8898 76.4569
" />
<path d="M57.8898 76.4569
L58.0108 76.3965
" />
<path d="M58.0108 76.3965
L58.2527 76.3965
" />
<path d="M58.2527 76.3965
L58.3736 76.4569
" />
<path d="M58.3736 76.4569
L58.4341 76.5779
" />
<path d="M58.4341 76.5779
L58.4341 76.6988
" />
<path d="M58.4341 76.6988
L57.8294 76.8198
" />
<path d="M58.6761 77.3641
L59.6437 77.3641
" />
<path d="M59.9460 77.2431
L59.9460 75.9731
" />
<path d="M59.9460 75.9731
L60.2484 75.9731
" />
<path d="M60.2484 75.9731
L60.4298 76.0336
" />
<path d="M60.4298 76.0336
L60.5508 76.1546
" />
<path d="M60.5508 76.1546
L60.6113 76.2755
" />
<path d="M60.6113 76.2755
L60.6717 76.5174
" />
<path d="M60.6717 76.5174
L60.6717 76.6988
" />
<path d="M60.6717 76.6988
L60.6113 76.9407
" />
<path d="M60.6113 76.9407
L60.5508 77.0617
" />
<path d="M60.5508 77.0617
L60.4298 77.1827
" />
<path d="M60.4298 77.1827
L60.2484 77.2431
" />
<path d="M60.2484 77.2431
L59.9460 77.2431
" />
<path d="M61.2160 77.2431
L61.2160 75.9731
" />
<path d="M61.8208 77.2431
L61.8208 75.9731
" />
<path d="M61.8208 75.9731
L62.3046 75.9731
" />
<path d="M62.3046 75.9731
L62.4256 76.0336
" />
<path d="M62.4256 76.0336
L62.4861 76.0941
" />
<path d="M62.4861 76.0941
L62.5465 76.2150
" />
<path d="M62.5465 76.2150
L62.5465 76.3965
" />
<path d="M62.5465 76.3965
L62.4861 76.5174
" />
<path d="M62.4861 76.5174
L62.4256 76.5779
" />
<path d="M62.4256 76.5779
L62.3046 76.6384
" />
<path d="M62.3046 76.6384
L61.8208 76.6384
" />
<path d="M63.0908 77.1222
L63.1513 77.1827
" />
<path d="M63.1513 77.1827
L63.0908 77.2431
" />
<path d="M63.0908 77.2431
L63.0304 77.1827
" />
<path d="M63.0304 77.1827
L63.0908 77.1222
" />
<path d="M63.0908 77.1222
L63.0908 77.2431
" />
<path d="M63.0908 76.4569
L63.1513 76.5174
" />
<path d="M63.1513 76.5174
L63.0908 76.5779
" />
<path d="M63.0908 76.5779
L63.0304 76.5174
" />
<path d="M63.0304 76.5174
L63.0908 76.4569
" />
<path d="M63.0908 76.4569
L63.0908 76.5779
" />
<path d="M63.6956 77.2431
L63.6956 75.9731
" />
<path d="M63.6956 75.9731
L63.9980 75.9731
" />
<path d="M63.9980 75.9731
L64.1794 76.0336
" />
<path d="M64.1794 76.0336
L64.3004 76.1546
" />
<path d="M64.3004 76.1546
L64.3609 76.2755
" />
<path d="M64.3609 76.2755
L64.4213 76.5174
" />
<path d="M64.4213 76.5174
L64.4213 76.6988
" />
<path d="M64.4213 76.6988
L64.3609 76.9407
" />
<path d="M64.3609 76.9407
L64.3004 77.0617
" />
<path d="M64.3004 77.0617
L64.1794 77.1827
" />
<path d="M64.1794 77.1827
L63.9980 77.2431
" />
<path d="M63.9980 77.2431
L63.6956 77.2431
" />
<path d="M64.9656 77.2431
L64.9656 75.9731
" />
<path d="M65.5704 77.2431
L65.5704 75.9731
" />
<path d="M65.5704 75.9731
L66.0542 75.9731
" />
<path d="M66.0542 75.9731
L66.1752 76.0336
" />
<path d="M66.1752 76.0336
L66.2357 76.0941
" />
<path d="M66.2357 76.0941
L66.2961 76.2150
" />
<path d="M66.2961 76.2150
L66.2961 76.3965
" />
<path d="M66.2961 76.3965
L66.2357 76.5174
" />
<path d="M66.2357 76.5174
L66.1752 76.5779
" />
<path d="M66.1752 76.5779
L66.0542 76.6384
" />
<path d="M66.0542 76.6384
L65.5704 76.6384
" />
<path d="M66.8404 76.7593
L67.8081 76.7593
" />
<path d="M68.9571 76.3965
L68.9571 77.2431
" />
<path d="M68.6547 75.9127
L68.3524 76.8198
" />
<path d="M68.3524 76.8198
L69.1385 76.8198
" />
<path d="M69.8642 75.9731
L69.9852 75.9731
" />
<path d="M69.9852 75.9731
L70.1061 76.0336
" />
<path d="M70.1061 76.0336
L70.1666 76.0941
" />
<path d="M70.1666 76.0941
L70.2271 76.2150
" />
<path d="M70.2271 76.2150
L70.2876 76.4569
" />
<path d="M70.2876 76.4569
L70.2876 76.7593
" />
<path d="M70.2876 76.7593
L70.2271 77.0012
" />
<path d="M70.2271 77.0012
L70.1666 77.1222
" />
<path d="M70.1666 77.1222
L70.1061 77.1827
" />
<path d="M70.1061 77.1827
L69.9852 77.2431
" />
<path d="M69.9852 77.2431
L69.8642 77.2431
" />
<path d="M69.8642 77.2431
L69.7433 77.1827
" />
<path d="M69.7433 77.1827
L69.6828 77.1222
" />
<path d="M69.6828 77.1222
L69.6223 77.0012
" />
<path d="M69.6223 77.0012
L69.5619 76.7593
" />
<path d="M69.5619 76.7593
L69.5619 76.4569
" />
<path d="M69.5619 76.4569
L69.6223 76.2150
" />
<path d="M69.6223 76.2150
L69.6828 76.0941
" />
<path d="M69.6828 76.0941
L69.7433 76.0336
" />
<path d="M69.7433 76.0336
L69.8642 75.9731
" />
<path d="M70.5295 77.3641
L71.4971 77.3641
" />
<path d="M71.6785 75.9731
L71.9809 77.2431
" />
<path d="M71.9809 77.2431
L72.2228 76.3360
" />
<path d="M72.2228 76.3360
L72.4647 77.2431
" />
<path d="M72.4647 77.2431
L72.7671 75.9731
" />
<path d="M73.9161 77.2431
L73.1904 77.2431
" />
<path d="M73.5532 77.2431
L73.5532 75.9731
" />
<path d="M73.5532 75.9731
L73.4323 76.1546
" />
<path d="M73.4323 76.1546
L73.3113 76.2755
" />
<path d="M73.3113 76.2755
L73.1904 76.3360
" />
<path d="M75.0651 75.9731
L74.4603 75.9731
" />
<path d="M74.4603 75.9731
L74.3999 76.5779
" />
<path d="M74.3999 76.5779
L74.4603 76.5174
" />
<path d="M74.4603 76.5174
L74.5813 76.4569
" />
<path d="M74.5813 76.4569
L74.8837 76.4569
" />
<path d="M74.8837 76.4569
L75.0046 76.5174
" />
<path d="M75.0046 76.5174
L75.0651 76.5779
" />
<path d="M75.0651 76.5779
L75.1256 76.6988
" />
<path d="M75.1256 76.6988
L75.1256 77.0012
" />
<path d="M75.1256 77.0012
L75.0651 77.1222
" />
<path d="M75.0651 77.1222
L75.0046 77.1827
" />
<path d="M75.0046 77.1827
L74.8837 77.2431
" />
<path d="M74.8837 77.2431
L74.5813 77.2431
" />
<path d="M74.5813 77.2431
L74.4603 77.1827
" />
<path d="M74.4603 77.1827
L74.3999 77.1222
" />
<path d="M75.6698 77.1222
L75.7303 77.1827
" />
<path d="M75.7303 77.1827
L75.6698 77.2431
" />
<path d="M75.6698 77.2431
L75.6094 77.1827
" />
<path d="M75.6094 77.1827
L75.6698 77.1222
" />
<path d="M75.6698 77.1222
L75.6698 77.2431
" />
<path d="M76.2142 76.0941
L76.2746 76.0336
" />
<path d="M76.2746 76.0336
L76.3956 75.9731
" />
<path d="M76.3956 75.9731
L76.6980 75.9731
" />
<path d="M76.6980 75.9731
L76.8189 76.0336
" />
<path d="M76.8189 76.0336
L76.8794 76.0941
" />
<path d="M76.8794 76.0941
L76.9399 76.2150
" />
<path d="M76.9399 76.2150
L76.9399 76.3360
" />
<path d="M76.9399 76.3360
L76.8794 76.5174
" />
<path d="M76.8794 76.5174
L76.1537 77.2431
" />
<path d="M76.1537 77.2431
L76.9399 77.2431
" />
<path d="M78.0284 76.3965
L78.0284 77.2431
" />
<path d="M77.7260 75.9127
L77.4237 76.8198
" />
<path d="M77.4237 76.8198
L78.2098 76.8198
" />
<path d="M78.6936 77.2431
L78.6936 76.3965
" />
<path d="M78.6936 76.5174
L78.7541 76.4569
" />
<path d="M78.7541 76.4569
L78.8751 76.3965
" />
<path d="M78.8751 76.3965
L79.0565 76.3965
" />
<path d="M79.0565 76.3965
L79.1774 76.4569
" />
<path d="M79.1774 76.4569
L79.2379 76.5779
" />
<path d="M79.2379 76.5779
L79.2379 77.2431
" />
<path d="M79.2379 76.5779
L79.2984 76.4569
" />
<path d="M79.2984 76.4569
L79.4193 76.3965
" />
<path d="M79.4193 76.3965
L79.6008 76.3965
" />
<path d="M79.6008 76.3965
L79.7217 76.4569
" />
<path d="M79.7217 76.4569
L79.7822 76.5779
" />
<path d="M79.7822 76.5779
L79.7822 77.2431
" />
<path d="M80.3869 77.2431
L80.3869 76.3965
" />
<path d="M80.3869 76.5174
L80.4474 76.4569
" />
<path d="M80.4474 76.4569
L80.5684 76.3965
" />
<path d="M80.5684 76.3965
L80.7498 76.3965
" />
<path d="M80.7498 76.3965
L80.8707 76.4569
" />
<path d="M80.8707 76.4569
L80.9312 76.5779
" />
<path d="M80.9312 76.5779
L80.9312 77.2431
" />
<path d="M80.9312 76.5779
L80.9917 76.4569
" />
<path d="M80.9917 76.4569
L81.1126 76.3965
" />
<path d="M81.1126 76.3965
L81.2941 76.3965
" />
<path d="M81.2941 76.3965
L81.4150 76.4569
" />
<path d="M81.4150 76.4569
L81.4755 76.5779
" />
<path d="M81.4755 76.5779
L81.4755 77.2431
" />
</g><text x="49.3726" y="43.0089"
textLength="82.2878" font-size="1.6933" lengthAdjust="spacingAndGlyphs"
text-anchor="middle" opacity="0">http://pdf1.alldatasheet.com/datasheet-pdf/view/135452/MOTOROLA/MC6822.html</text>
<g class="stroked-text"><desc>http://pdf1.alldatasheet.com/datasheet-pdf/view/135452/MOTOROLA/MC6822.html</desc>
<path d="M8.6422 42.9531
L8.6422 41.6831
" />
<path d="M9.1865 42.9531
L9.1865 42.2879
" />
<path d="M9.1865 42.2879
L9.1260 42.1669
" />
<path d="M9.1260 42.1669
L9.0051 42.1065
" />
<path d="M9.0051 42.1065
L8.8237 42.1065
" />
<path d="M8.8237 42.1065
L8.7027 42.1669
" />
<path d="M8.7027 42.1669
L8.6422 42.2274
" />
<path d="M9.6098 42.1065
L10.0936 42.1065
" />
<path d="M9.7912 41.6831
L9.7912 42.7717
" />
<path d="M9.7912 42.7717
L9.8517 42.8927
" />
<path d="M9.8517 42.8927
L9.9727 42.9531
" />
<path d="M9.9727 42.9531
L10.0936 42.9531
" />
<path d="M10.3355 42.1065
L10.8193 42.1065
" />
<path d="M10.5169 41.6831
L10.5169 42.7717
" />
<path d="M10.5169 42.7717
L10.5774 42.8927
" />
<path d="M10.5774 42.8927
L10.6984 42.9531
" />
<path d="M10.6984 42.9531
L10.8193 42.9531
" />
<path d="M11.2426 42.1065
L11.2426 43.3765
" />
<path d="M11.2426 42.1669
L11.3636 42.1065
" />
<path d="M11.3636 42.1065
L11.6055 42.1065
" />
<path d="M11.6055 42.1065
L11.7264 42.1669
" />
<path d="M11.7264 42.1669
L11.7869 42.2274
" />
<path d="M11.7869 42.2274
L11.8474 42.3484
" />
<path d="M11.8474 42.3484
L11.8474 42.7112
" />
<path d="M11.8474 42.7112
L11.7869 42.8322
" />
<path d="M11.7869 42.8322
L11.7264 42.8927
" />
<path d="M11.7264 42.8927
L11.6055 42.9531
" />
<path d="M11.6055 42.9531
L11.3636 42.9531
" />
<path d="M11.3636 42.9531
L11.2426 42.8927
" />
<path d="M12.3916 42.8322
L12.4521 42.8927
" />
<path d="M12.4521 42.8927
L12.3916 42.9531
" />
<path d="M12.3916 42.9531
L12.3312 42.8927
" />
<path d="M12.3312 42.8927
L12.3916 42.8322
" />
<path d="M12.3916 42.8322
L12.3916 42.9531
" />
<path d="M12.3916 42.1669
L12.4521 42.2274
" />
<path d="M12.4521 42.2274
L12.3916 42.2879
" />
<path d="M12.3916 42.2879
L12.3312 42.2274
" />
<path d="M12.3312 42.2274
L12.3916 42.1669
" />
<path d="M12.3916 42.1669
L12.3916 42.2879
" />
<path d="M13.9036 41.6227
L12.8150 43.2555
" />
<path d="M15.2341 41.6227
L14.1455 43.2555
" />
<path d="M15.6574 42.1065
L15.6574 43.3765
" />
<path d="M15.6574 42.1669
L15.7784 42.1065
" />
<path d="M15.7784 42.1065
L16.0203 42.1065
" />
<path d="M16.0203 42.1065
L16.1412 42.1669
" />
<path d="M16.1412 42.1669
L16.2017 42.2274
" />
<path d="M16.2017 42.2274
L16.2622 42.3484
" />
<path d="M16.2622 42.3484
L16.2622 42.7112
" />
<path d="M16.2622 42.7112
L16.2017 42.8322
" />
<path d="M16.2017 42.8322
L16.1412 42.8927
" />
<path d="M16.1412 42.8927
L16.0203 42.9531
" />
<path d="M16.0203 42.9531
L15.7784 42.9531
" />
<path d="M15.7784 42.9531
L15.6574 42.8927
" />
<path d="M17.3507 42.9531
L17.3507 41.6831
" />
<path d="M17.3507 42.8927
L17.2298 42.9531
" />
<path d="M17.2298 42.9531
L16.9879 42.9531
" />
<path d="M16.9879 42.9531
L16.8669 42.8927
" />
<path d="M16.8669 42.8927
L16.8064 42.8322
" />
<path d="M16.8064 42.8322
L16.7460 42.7112
" />
<path d="M16.7460 42.7112
L16.7460 42.3484
" />
<path d="M16.7460 42.3484
L16.8064 42.2274
" />
<path d="M16.8064 42.2274
L16.8669 42.1669
" />
<path d="M16.8669 42.1669
L16.9879 42.1065
" />
<path d="M16.9879 42.1065
L17.2298 42.1065
" />
<path d="M17.2298 42.1065
L17.3507 42.1669
" />
<path d="M17.7740 42.1065
L18.2578 42.1065
" />
<path d="M17.9554 42.9531
L17.9554 41.8646
" />
<path d="M17.9554 41.8646
L18.0159 41.7436
" />
<path d="M18.0159 41.7436
L18.1369 41.6831
" />
<path d="M18.1369 41.6831
L18.2578 41.6831
" />
<path d="M19.3464 42.9531
L18.6207 42.9531
" />
<path d="M18.9835 42.9531
L18.9835 41.6831
" />
<path d="M18.9835 41.6831
L18.8626 41.8646
" />
<path d="M18.8626 41.8646
L18.7416 41.9855
" />
<path d="M18.7416 41.9855
L18.6207 42.0460
" />
<path d="M19.8906 42.8322
L19.9511 42.8927
" />
<path d="M19.9511 42.8927
L19.8906 42.9531
" />
<path d="M19.8906 42.9531
L19.8302 42.8927
" />
<path d="M19.8302 42.8927
L19.8906 42.8322
" />
<path d="M19.8906 42.8322
L19.8906 42.9531
" />
<path d="M21.0397 42.9531
L21.0397 42.2879
" />
<path d="M21.0397 42.2879
L20.9792 42.1669
" />
<path d="M20.9792 42.1669
L20.8583 42.1065
" />
<path d="M20.8583 42.1065
L20.6164 42.1065
" />
<path d="M20.6164 42.1065
L20.4954 42.1669
" />
<path d="M21.0397 42.8927
L20.9188 42.9531
" />
<path d="M20.9188 42.9531
L20.6164 42.9531
" />
<path d="M20.6164 42.9531
L20.4954 42.8927
" />
<path d="M20.4954 42.8927
L20.4350 42.7717
" />
<path d="M20.4350 42.7717
L20.4350 42.6507
" />
<path d="M20.4350 42.6507
L20.4954 42.5298
" />
<path d="M20.4954 42.5298
L20.6164 42.4693
" />
<path d="M20.6164 42.4693
L20.9188 42.4693
" />
<path d="M20.9188 42.4693
L21.0397 42.4088
" />
<path d="M21.8259 42.9531
L21.7049 42.8927
" />
<path d="M21.7049 42.8927
L21.6444 42.7717
" />
<path d="M21.6444 42.7717
L21.6444 41.6831
" />
<path d="M22.4911 42.9531
L22.3701 42.8927
" />
<path d="M22.3701 42.8927
L22.3096 42.7717
" />
<path d="M22.3096 42.7717
L22.3096 41.6831
" />
<path d="M23.5191 42.9531
L23.5191 41.6831
" />
<path d="M23.5191 42.8927
L23.3982 42.9531
" />
<path d="M23.3982 42.9531
L23.1563 42.9531
" />
<path d="M23.1563 42.9531
L23.0353 42.8927
" />
<path d="M23.0353 42.8927
L22.9748 42.8322
" />
<path d="M22.9748 42.8322
L22.9144 42.7112
" />
<path d="M22.9144 42.7112
L22.9144 42.3484
" />
<path d="M22.9144 42.3484
L22.9748 42.2274
" />
<path d="M22.9748 42.2274
L23.0353 42.1669
" />
<path d="M23.0353 42.1669
L23.1563 42.1065
" />
<path d="M23.1563 42.1065
L23.3982 42.1065
" />
<path d="M23.3982 42.1065
L23.5191 42.1669
" />
<path d="M24.6681 42.9531
L24.6681 42.2879
" />
<path d="M24.6681 42.2879
L24.6076 42.1669
" />
<path d="M24.6076 42.1669
L24.4867 42.1065
" />
<path d="M24.4867 42.1065
L24.2448 42.1065
" />
<path d="M24.2448 42.1065
L24.1238 42.1669
" />
<path d="M24.6681 42.8927
L24.5472 42.9531
" />
<path d="M24.5472 42.9531
L24.2448 42.9531
" />
<path d="M24.2448 42.9531
L24.1238 42.8927
" />
<path d="M24.1238 42.8927
L24.0634 42.7717
" />
<path d="M24.0634 42.7717
L24.0634 42.6507
" />
<path d="M24.0634 42.6507
L24.1238 42.5298
" />
<path d="M24.1238 42.5298
L24.2448 42.4693
" />
<path d="M24.2448 42.4693
L24.5472 42.4693
" />
<path d="M24.5472 42.4693
L24.6681 42.4088
" />
<path d="M25.0914 42.1065
L25.5752 42.1065
" />
<path d="M25.2728 41.6831
L25.2728 42.7717
" />
<path d="M25.2728 42.7717
L25.3333 42.8927
" />
<path d="M25.3333 42.8927
L25.4543 42.9531
" />
<path d="M25.4543 42.9531
L25.5752 42.9531
" />
<path d="M26.5428 42.9531
L26.5428 42.2879
" />
<path d="M26.5428 42.2879
L26.4823 42.1669
" />
<path d="M26.4823 42.1669
L26.3614 42.1065
" />
<path d="M26.3614 42.1065
L26.1195 42.1065
" />
<path d="M26.1195 42.1065
L25.9985 42.1669
" />
<path d="M26.5428 42.8927
L26.4219 42.9531
" />
<path d="M26.4219 42.9531
L26.1195 42.9531
" />
<path d="M26.1195 42.9531
L25.9985 42.8927
" />
<path d="M25.9985 42.8927
L25.9381 42.7717
" />
<path d="M25.9381 42.7717
L25.9381 42.6507
" />
<path d="M25.9381 42.6507
L25.9985 42.5298
" />
<path d="M25.9985 42.5298
L26.1195 42.4693
" />
<path d="M26.1195 42.4693
L26.4219 42.4693
" />
<path d="M26.4219 42.4693
L26.5428 42.4088
" />
<path d="M27.0871 42.8927
L27.2080 42.9531
" />
<path d="M27.2080 42.9531
L27.4499 42.9531
" />
<path d="M27.4499 42.9531
L27.5709 42.8927
" />
<path d="M27.5709 42.8927
L27.6313 42.7717
" />
<path d="M27.6313 42.7717
L27.6313 42.7112
" />
<path d="M27.6313 42.7112
L27.5709 42.5903
" />
<path d="M27.5709 42.5903
L27.4499 42.5298
" />
<path d="M27.4499 42.5298
L27.2685 42.5298
" />
<path d="M27.2685 42.5298
L27.1475 42.4693
" />
<path d="M27.1475 42.4693
L27.0871 42.3484
" />
<path d="M27.0871 42.3484
L27.0871 42.2879
" />
<path d="M27.0871 42.2879
L27.1475 42.1669
" />
<path d="M27.1475 42.1669
L27.2685 42.1065
" />
<path d="M27.2685 42.1065
L27.4499 42.1065
" />
<path d="M27.4499 42.1065
L27.5709 42.1669
" />
<path d="M28.1756 42.9531
L28.1756 41.6831
" />
<path d="M28.7199 42.9531
L28.7199 42.2879
" />
<path d="M28.7199 42.2879
L28.6594 42.1669
" />
<path d="M28.6594 42.1669
L28.5385 42.1065
" />
<path d="M28.5385 42.1065
L28.3571 42.1065
" />
<path d="M28.3571 42.1065
L28.2361 42.1669
" />
<path d="M28.2361 42.1669
L28.1756 42.2274
" />
<path d="M29.8084 42.8927
L29.6875 42.9531
" />
<path d="M29.6875 42.9531
L29.4456 42.9531
" />
<path d="M29.4456 42.9531
L29.3246 42.8927
" />
<path d="M29.3246 42.8927
L29.2642 42.7717
" />
<path d="M29.2642 42.7717
L29.2642 42.2879
" />
<path d="M29.2642 42.2879
L29.3246 42.1669
" />
<path d="M29.3246 42.1669
L29.4456 42.1065
" />
<path d="M29.4456 42.1065
L29.6875 42.1065
" />
<path d="M29.6875 42.1065
L29.8084 42.1669
" />
<path d="M29.8084 42.1669
L29.8689 42.2879
" />
<path d="M29.8689 42.2879
L29.8689 42.4088
" />
<path d="M29.8689 42.4088
L29.2642 42.5298
" />
<path d="M30.8970 42.8927
L30.7761 42.9531
" />
<path d="M30.7761 42.9531
L30.5342 42.9531
" />
<path d="M30.5342 42.9531
L30.4132 42.8927
" />
<path d="M30.4132 42.8927
L30.3528 42.7717
" />
<path d="M30.3528 42.7717
L30.3528 42.2879
" />
<path d="M30.3528 42.2879
L30.4132 42.1669
" />
<path d="M30.4132 42.1669
L30.5342 42.1065
" />
<path d="M30.5342 42.1065
L30.7761 42.1065
" />
<path d="M30.7761 42.1065
L30.8970 42.1669
" />
<path d="M30.8970 42.1669
L30.9575 42.2879
" />
<path d="M30.9575 42.2879
L30.9575 42.4088
" />
<path d="M30.9575 42.4088
L30.3528 42.5298
" />
<path d="M31.3204 42.1065
L31.8042 42.1065
" />
<path d="M31.5018 41.6831
L31.5018 42.7717
" />
<path d="M31.5018 42.7717
L31.5623 42.8927
" />
<path d="M31.5623 42.8927
L31.6833 42.9531
" />
<path d="M31.6833 42.9531
L31.8042 42.9531
" />
<path d="M32.2275 42.8322
L32.2880 42.8927
" />
<path d="M32.2880 42.8927
L32.2275 42.9531
" />
<path d="M32.2275 42.9531
L32.1671 42.8927
" />
<path d="M32.1671 42.8927
L32.2275 42.8322
" />
<path d="M32.2275 42.8322
L32.2275 42.9531
" />
<path d="M33.3766 42.8927
L33.2557 42.9531
" />
<path d="M33.2557 42.9531
L33.0138 42.9531
" />
<path d="M33.0138 42.9531
L32.8928 42.8927
" />
<path d="M32.8928 42.8927
L32.8323 42.8322
" />
<path d="M32.8323 42.8322
L32.7719 42.7112
" />
<path d="M32.7719 42.7112
L32.7719 42.3484
" />
<path d="M32.7719 42.3484
L32.8323 42.2274
" />
<path d="M32.8323 42.2274
L32.8928 42.1669
" />
<path d="M32.8928 42.1669
L33.0138 42.1065
" />
<path d="M33.0138 42.1065
L33.2557 42.1065
" />
<path d="M33.2557 42.1065
L33.3766 42.1669
" />
<path d="M34.1024 42.9531
L33.9814 42.8927
" />
<path d="M33.9814 42.8927
L33.9209 42.8322
" />
<path d="M33.9209 42.8322
L33.8605 42.7112
" />
<path d="M33.8605 42.7112
L33.8605 42.3484
" />
<path d="M33.8605 42.3484
L33.9209 42.2274
" />
<path d="M33.9209 42.2274
L33.9814 42.1669
" />
<path d="M33.9814 42.1669
L34.1024 42.1065
" />
<path d="M34.1024 42.1065
L34.2838 42.1065
" />
<path d="M34.2838 42.1065
L34.4047 42.1669
" />
<path d="M34.4047 42.1669
L34.4652 42.2274
" />
<path d="M34.4652 42.2274
L34.5257 42.3484
" />
<path d="M34.5257 42.3484
L34.5257 42.7112
" />
<path d="M34.5257 42.7112
L34.4652 42.8322
" />
<path d="M34.4652 42.8322
L34.4047 42.8927
" />
<path d="M34.4047 42.8927
L34.2838 42.9531
" />
<path d="M34.2838 42.9531
L34.1024 42.9531
" />
<path d="M35.0699 42.9531
L35.0699 42.1065
" />
<path d="M35.0699 42.2274
L35.1304 42.1669
" />
<path d="M35.1304 42.1669
L35.2514 42.1065
" />
<path d="M35.2514 42.1065
L35.4328 42.1065
" />
<path d="M35.4328 42.1065
L35.5537 42.1669
" />
<path d="M35.5537 42.1669
L35.6142 42.2879
" />
<path d="M35.6142 42.2879
L35.6142 42.9531
" />
<path d="M35.6142 42.2879
L35.6747 42.1669
" />
<path d="M35.6747 42.1669
L35.7956 42.1065
" />
<path d="M35.7956 42.1065
L35.9771 42.1065
" />
<path d="M35.9771 42.1065
L36.0980 42.1669
" />
<path d="M36.0980 42.1669
L36.1585 42.2879
" />
<path d="M36.1585 42.2879
L36.1585 42.9531
" />
<path d="M37.6704 41.6227
L36.5818 43.2555
" />
<path d="M38.6380 42.9531
L38.6380 41.6831
" />
<path d="M38.6380 42.8927
L38.5171 42.9531
" />
<path d="M38.5171 42.9531
L38.2752 42.9531
" />
<path d="M38.2752 42.9531
L38.1542 42.8927
" />
<path d="M38.1542 42.8927
L38.0937 42.8322
" />
<path d="M38.0937 42.8322
L38.0333 42.7112
" />
<path d="M38.0333 42.7112
L38.0333 42.3484
" />
<path d="M38.0333 42.3484
L38.0937 42.2274
" />
<path d="M38.0937 42.2274
L38.1542 42.1669
" />
<path d="M38.1542 42.1669
L38.2752 42.1065
" />
<path d="M38.2752 42.1065
L38.5171 42.1065
" />
<path d="M38.5171 42.1065
L38.6380 42.1669
" />
<path d="M39.7870 42.9531
L39.7870 42.2879
" />
<path d="M39.7870 42.2879
L39.7265 42.1669
" />
<path d="M39.7265 42.1669
L39.6056 42.1065
" />
<path d="M39.6056 42.1065
L39.3637 42.1065
" />
<path d="M39.3637 42.1065
L39.2427 42.1669
" />
<path d="M39.7870 42.8927
L39.6661 42.9531
" />
<path d="M39.6661 42.9531
L39.3637 42.9531
" />
<path d="M39.3637 42.9531
L39.2427 42.8927
" />
<path d="M39.2427 42.8927
L39.1823 42.7717
" />
<path d="M39.1823 42.7717
L39.1823 42.6507
" />
<path d="M39.1823 42.6507
L39.2427 42.5298
" />
<path d="M39.2427 42.5298
L39.3637 42.4693
" />
<path d="M39.3637 42.4693
L39.6661 42.4693
" />
<path d="M39.6661 42.4693
L39.7870 42.4088
" />
<path d="M40.2103 42.1065
L40.6941 42.1065
" />
<path d="M40.3917 41.6831
L40.3917 42.7717
" />
<path d="M40.3917 42.7717
L40.4522 42.8927
" />
<path d="M40.4522 42.8927
L40.5732 42.9531
" />
<path d="M40.5732 42.9531
L40.6941 42.9531
" />
<path d="M41.6617 42.9531
L41.6617 42.2879
" />
<path d="M41.6617 42.2879
L41.6012 42.1669
" />
<path d="M41.6012 42.1669
L41.4803 42.1065
" />
<path d="M41.4803 42.1065
L41.2384 42.1065
" />
<path d="M41.2384 42.1065
L41.1174 42.1669
" />
<path d="M41.6617 42.8927
L41.5408 42.9531
" />
<path d="M41.5408 42.9531
L41.2384 42.9531
" />
<path d="M41.2384 42.9531
L41.1174 42.8927
" />
<path d="M41.1174 42.8927
L41.0570 42.7717
" />
<path d="M41.0570 42.7717
L41.0570 42.6507
" />
<path d="M41.0570 42.6507
L41.1174 42.5298
" />
<path d="M41.1174 42.5298
L41.2384 42.4693
" />
<path d="M41.2384 42.4693
L41.5408 42.4693
" />
<path d="M41.5408 42.4693
L41.6617 42.4088
" />
<path d="M42.2060 42.8927
L42.3269 42.9531
" />
<path d="M42.3269 42.9531
L42.5688 42.9531
" />
<path d="M42.5688 42.9531
L42.6898 42.8927
" />
<path d="M42.6898 42.8927
L42.7502 42.7717
" />
<path d="M42.7502 42.7717
L42.7502 42.7112
" />
<path d="M42.7502 42.7112
L42.6898 42.5903
" />
<path d="M42.6898 42.5903
L42.5688 42.5298
" />
<path d="M42.5688 42.5298
L42.3874 42.5298
" />
<path d="M42.3874 42.5298
L42.2664 42.4693
" />
<path d="M42.2664 42.4693
L42.2060 42.3484
" />
<path d="M42.2060 42.3484
L42.2060 42.2879
" />
<path d="M42.2060 42.2879
L42.2664 42.1669
" />
<path d="M42.2664 42.1669
L42.3874 42.1065
" />
<path d="M42.3874 42.1065
L42.5688 42.1065
" />
<path d="M42.5688 42.1065
L42.6898 42.1669
" />
<path d="M43.2945 42.9531
L43.2945 41.6831
" />
<path d="M43.8388 42.9531
L43.8388 42.2879
" />
<path d="M43.8388 42.2879
L43.7783 42.1669
" />
<path d="M43.7783 42.1669
L43.6574 42.1065
" />
<path d="M43.6574 42.1065
L43.4760 42.1065
" />
<path d="M43.4760 42.1065
L43.3550 42.1669
" />
<path d="M43.3550 42.1669
L43.2945 42.2274
" />
<path d="M44.9273 42.8927
L44.8064 42.9531
" />
<path d="M44.8064 42.9531
L44.5645 42.9531
" />
<path d="M44.5645 42.9531
L44.4435 42.8927
" />
<path d="M44.4435 42.8927
L44.3831 42.7717
" />
<path d="M44.3831 42.7717
L44.3831 42.2879
" />
<path d="M44.3831 42.2879
L44.4435 42.1669
" />
<path d="M44.4435 42.1669
L44.5645 42.1065
" />
<path d="M44.5645 42.1065
L44.8064 42.1065
" />
<path d="M44.8064 42.1065
L44.9273 42.1669
" />
<path d="M44.9273 42.1669
L44.9878 42.2879
" />
<path d="M44.9878 42.2879
L44.9878 42.4088
" />
<path d="M44.9878 42.4088
L44.3831 42.5298
" />
<path d="M46.0159 42.8927
L45.8950 42.9531
" />
<path d="M45.8950 42.9531
L45.6531 42.9531
" />
<path d="M45.6531 42.9531
L45.5321 42.8927
" />
<path d="M45.5321 42.8927
L45.4717 42.7717
" />
<path d="M45.4717 42.7717
L45.4717 42.2879
" />
<path d="M45.4717 42.2879
L45.5321 42.1669
" />
<path d="M45.5321 42.1669
L45.6531 42.1065
" />
<path d="M45.6531 42.1065
L45.8950 42.1065
" />
<path d="M45.8950 42.1065
L46.0159 42.1669
" />
<path d="M46.0159 42.1669
L46.0764 42.2879
" />
<path d="M46.0764 42.2879
L46.0764 42.4088
" />
<path d="M46.0764 42.4088
L45.4717 42.5298
" />
<path d="M46.4393 42.1065
L46.9231 42.1065
" />
<path d="M46.6207 41.6831
L46.6207 42.7717
" />
<path d="M46.6207 42.7717
L46.6812 42.8927
" />
<path d="M46.6812 42.8927
L46.8022 42.9531
" />
<path d="M46.8022 42.9531
L46.9231 42.9531
" />
<path d="M47.3464 42.4693
L48.3141 42.4693
" />
<path d="M48.9188 42.1065
L48.9188 43.3765
" />
<path d="M48.9188 42.1669
L49.0398 42.1065
" />
<path d="M49.0398 42.1065
L49.2817 42.1065
" />
<path d="M49.2817 42.1065
L49.4026 42.1669
" />
<path d="M49.4026 42.1669
L49.4631 42.2274
" />
<path d="M49.4631 42.2274
L49.5236 42.3484
" />
<path d="M49.5236 42.3484
L49.5236 42.7112
" />
<path d="M49.5236 42.7112
L49.4631 42.8322
" />
<path d="M49.4631 42.8322
L49.4026 42.8927
" />
<path d="M49.4026 42.8927
L49.2817 42.9531
" />
<path d="M49.2817 42.9531
L49.0398 42.9531
" />
<path d="M49.0398 42.9531
L48.9188 42.8927
" />
<path d="M50.6121 42.9531
L50.6121 41.6831
" />
<path d="M50.6121 42.8927
L50.4912 42.9531
" />
<path d="M50.4912 42.9531
L50.2493 42.9531
" />
<path d="M50.2493 42.9531
L50.1283 42.8927
" />
<path d="M50.1283 42.8927
L50.0678 42.8322
" />
<path d="M50.0678 42.8322
L50.0074 42.7112
" />
<path d="M50.0074 42.7112
L50.0074 42.3484
" />
<path d="M50.0074 42.3484
L50.0678 42.2274
" />
<path d="M50.0678 42.2274
L50.1283 42.1669
" />
<path d="M50.1283 42.1669
L50.2493 42.1065
" />
<path d="M50.2493 42.1065
L50.4912 42.1065
" />
<path d="M50.4912 42.1065
L50.6121 42.1669
" />
<path d="M51.0354 42.1065
L51.5192 42.1065
" />
<path d="M51.2168 42.9531
L51.2168 41.8646
" />
<path d="M51.2168 41.8646
L51.2773 41.7436
" />
<path d="M51.2773 41.7436
L51.3983 41.6831
" />
<path d="M51.3983 41.6831
L51.5192 41.6831
" />
<path d="M52.8497 41.6227
L51.7611 43.2555
" />
<path d="M53.1521 42.1065
L53.4545 42.9531
" />
<path d="M53.4545 42.9531
L53.7568 42.1065
" />
<path d="M54.2406 42.9531
L54.2406 42.1065
" />
<path d="M54.2406 41.6831
L54.1802 41.7436
" />
<path d="M54.1802 41.7436
L54.2406 41.8041
" />
<path d="M54.2406 41.8041
L54.3011 41.7436
" />
<path d="M54.3011 41.7436
L54.2406 41.6831
" />
<path d="M54.2406 41.6831
L54.2406 41.8041
" />
<path d="M55.3292 42.8927
L55.2083 42.9531
" />
<path d="M55.2083 42.9531
L54.9664 42.9531
" />
<path d="M54.9664 42.9531
L54.8454 42.8927
" />
<path d="M54.8454 42.8927
L54.7850 42.7717
" />
<path d="M54.7850 42.7717
L54.7850 42.2879
" />
<path d="M54.7850 42.2879
L54.8454 42.1669
" />
<path d="M54.8454 42.1669
L54.9664 42.1065
" />
<path d="M54.9664 42.1065
L55.2083 42.1065
" />
<path d="M55.2083 42.1065
L55.3292 42.1669
" />
<path d="M55.3292 42.1669
L55.3897 42.2879
" />
<path d="M55.3897 42.2879
L55.3897 42.4088
" />
<path d="M55.3897 42.4088
L54.7850 42.5298
" />
<path d="M55.8131 42.1065
L56.0550 42.9531
" />
<path d="M56.0550 42.9531
L56.2969 42.3484
" />
<path d="M56.2969 42.3484
L56.5388 42.9531
" />
<path d="M56.5388 42.9531
L56.7807 42.1065
" />
<path d="M58.1717 41.6227
L57.0831 43.2555
" />
<path d="M59.2603 42.9531
L58.5346 42.9531
" />
<path d="M58.8974 42.9531
L58.8974 41.6831
" />
<path d="M58.8974 41.6831
L58.7765 41.8646
" />
<path d="M58.7765 41.8646
L58.6555 41.9855
" />
<path d="M58.6555 41.9855
L58.5346 42.0460
" />
<path d="M59.6836 41.6831
L60.4698 41.6831
" />
<path d="M60.4698 41.6831
L60.0464 42.1669
" />
<path d="M60.0464 42.1669
L60.2279 42.1669
" />
<path d="M60.2279 42.1669
L60.3488 42.2274
" />
<path d="M60.3488 42.2274
L60.4093 42.2879
" />
<path d="M60.4093 42.2879
L60.4698 42.4088
" />
<path d="M60.4698 42.4088
L60.4698 42.7112
" />
<path d="M60.4698 42.7112
L60.4093 42.8322
" />
<path d="M60.4093 42.8322
L60.3488 42.8927
" />
<path d="M60.3488 42.8927
L60.2279 42.9531
" />
<path d="M60.2279 42.9531
L59.8650 42.9531
" />
<path d="M59.8650 42.9531
L59.7441 42.8927
" />
<path d="M59.7441 42.8927
L59.6836 42.8322
" />
<path d="M61.6188 41.6831
L61.0140 41.6831
" />
<path d="M61.0140 41.6831
L60.9536 42.2879
" />
<path d="M60.9536 42.2879
L61.0140 42.2274
" />
<path d="M61.0140 42.2274
L61.1350 42.1669
" />
<path d="M61.1350 42.1669
L61.4374 42.1669
" />
<path d="M61.4374 42.1669
L61.5583 42.2274
" />
<path d="M61.5583 42.2274
L61.6188 42.2879
" />
<path d="M61.6188 42.2879
L61.6793 42.4088
" />
<path d="M61.6793 42.4088
L61.6793 42.7112
" />
<path d="M61.6793 42.7112
L61.6188 42.8322
" />
<path d="M61.6188 42.8322
L61.5583 42.8927
" />
<path d="M61.5583 42.8927
L61.4374 42.9531
" />
<path d="M61.4374 42.9531
L61.1350 42.9531
" />
<path d="M61.1350 42.9531
L61.0140 42.8927
" />
<path d="M61.0140 42.8927
L60.9536 42.8322
" />
<path d="M62.7678 42.1065
L62.7678 42.9531
" />
<path d="M62.4654 41.6227
L62.1631 42.5298
" />
<path d="M62.1631 42.5298
L62.9492 42.5298
" />
<path d="M64.0378 41.6831
L63.4330 41.6831
" />
<path d="M63.4330 41.6831
L63.3726 42.2879
" />
<path d="M63.3726 42.2879
L63.4330 42.2274
" />
<path d="M63.4330 42.2274
L63.5540 42.1669
" />
<path d="M63.5540 42.1669
L63.8564 42.1669
" />
<path d="M63.8564 42.1669
L63.9773 42.2274
" />
<path d="M63.9773 42.2274
L64.0378 42.2879
" />
<path d="M64.0378 42.2879
L64.0983 42.4088
" />
<path d="M64.0983 42.4088
L64.0983 42.7112
" />
<path d="M64.0983 42.7112
L64.0378 42.8322
" />
<path d="M64.0378 42.8322
L63.9773 42.8927
" />
<path d="M63.9773 42.8927
L63.8564 42.9531
" />
<path d="M63.8564 42.9531
L63.5540 42.9531
" />
<path d="M63.5540 42.9531
L63.4330 42.8927
" />
<path d="M63.4330 42.8927
L63.3726 42.8322
" />
<path d="M64.5821 41.8041
L64.6425 41.7436
" />
<path d="M64.6425 41.7436
L64.7635 41.6831
" />
<path d="M64.7635 41.6831
L65.0659 41.6831
" />
<path d="M65.0659 41.6831
L65.1868 41.7436
" />
<path d="M65.1868 41.7436
L65.2473 41.8041
" />
<path d="M65.2473 41.8041
L65.3078 41.9250
" />
<path d="M65.3078 41.9250
L65.3078 42.0460
" />
<path d="M65.3078 42.0460
L65.2473 42.2274
" />
<path d="M65.2473 42.2274
L64.5216 42.9531
" />
<path d="M64.5216 42.9531
L65.3078 42.9531
" />
<path d="M66.7592 41.6227
L65.6706 43.2555
" />
<path d="M67.1825 42.9531
L67.1825 41.6831
" />
<path d="M67.1825 41.6831
L67.6059 42.5903
" />
<path d="M67.6059 42.5903
L68.0292 41.6831
" />
<path d="M68.0292 41.6831
L68.0292 42.9531
" />
<path d="M68.8758 41.6831
L69.1177 41.6831
" />
<path d="M69.1177 41.6831
L69.2387 41.7436
" />
<path d="M69.2387 41.7436
L69.3596 41.8646
" />
<path d="M69.3596 41.8646
L69.4201 42.1065
" />
<path d="M69.4201 42.1065
L69.4201 42.5298
" />
<path d="M69.4201 42.5298
L69.3596 42.7717
" />
<path d="M69.3596 42.7717
L69.2387 42.8927
" />
<path d="M69.2387 42.8927
L69.1177 42.9531
" />
<path d="M69.1177 42.9531
L68.8758 42.9531
" />
<path d="M68.8758 42.9531
L68.7549 42.8927
" />
<path d="M68.7549 42.8927
L68.6339 42.7717
" />
<path d="M68.6339 42.7717
L68.5735 42.5298
" />
<path d="M68.5735 42.5298
L68.5735 42.1065
" />
<path d="M68.5735 42.1065
L68.6339 41.8646
" />
<path d="M68.6339 41.8646
L68.7549 41.7436
" />
<path d="M68.7549 41.7436
L68.8758 41.6831
" />
<path d="M69.7830 41.6831
L70.5087 41.6831
" />
<path d="M70.1459 42.9531
L70.1459 41.6831
" />
<path d="M71.1739 41.6831
L71.4158 41.6831
" />
<path d="M71.4158 41.6831
L71.5368 41.7436
" />
<path d="M71.5368 41.7436
L71.6577 41.8646
" />
<path d="M71.6577 41.8646
L71.7182 42.1065
" />
<path d="M71.7182 42.1065
L71.7182 42.5298
" />
<path d="M71.7182 42.5298
L71.6577 42.7717
" />
<path d="M71.6577 42.7717
L71.5368 42.8927
" />
<path d="M71.5368 42.8927
L71.4158 42.9531
" />
<path d="M71.4158 42.9531
L71.1739 42.9531
" />
<path d="M71.1739 42.9531
L71.0530 42.8927
" />
<path d="M71.0530 42.8927
L70.9320 42.7717
" />
<path d="M70.9320 42.7717
L70.8716 42.5298
" />
<path d="M70.8716 42.5298
L70.8716 42.1065
" />
<path d="M70.8716 42.1065
L70.9320 41.8646
" />
<path d="M70.9320 41.8646
L71.0530 41.7436
" />
<path d="M71.0530 41.7436
L71.1739 41.6831
" />
<path d="M72.9882 42.9531
L72.5649 42.3484
" />
<path d="M72.2625 42.9531
L72.2625 41.6831
" />
<path d="M72.2625 41.6831
L72.7463 41.6831
" />
<path d="M72.7463 41.6831
L72.8673 41.7436
" />
<path d="M72.8673 41.7436
L72.9278 41.8041
" />
<path d="M72.9278 41.8041
L72.9882 41.9250
" />
<path d="M72.9882 41.9250
L72.9882 42.1065
" />
<path d="M72.9882 42.1065
L72.9278 42.2274
" />
<path d="M72.9278 42.2274
L72.8673 42.2879
" />
<path d="M72.8673 42.2879
L72.7463 42.3484
" />
<path d="M72.7463 42.3484
L72.2625 42.3484
" />
<path d="M73.7744 41.6831
L74.0163 41.6831
" />
<path d="M74.0163 41.6831
L74.1373 41.7436
" />
<path d="M74.1373 41.7436
L74.2582 41.8646
" />
<path d="M74.2582 41.8646
L74.3187 42.1065
" />
<path d="M74.3187 42.1065
L74.3187 42.5298
" />
<path d="M74.3187 42.5298
L74.2582 42.7717
" />
<path d="M74.2582 42.7717
L74.1373 42.8927
" />
<path d="M74.1373 42.8927
L74.0163 42.9531
" />
<path d="M74.0163 42.9531
L73.7744 42.9531
" />
<path d="M73.7744 42.9531
L73.6535 42.8927
" />
<path d="M73.6535 42.8927
L73.5325 42.7717
" />
<path d="M73.5325 42.7717
L73.4721 42.5298
" />
<path d="M73.4721 42.5298
L73.4721 42.1065
" />
<path d="M73.4721 42.1065
L73.5325 41.8646
" />
<path d="M73.5325 41.8646
L73.6535 41.7436
" />
<path d="M73.6535 41.7436
L73.7744 41.6831
" />
<path d="M75.4678 42.9531
L74.8630 42.9531
" />
<path d="M74.8630 42.9531
L74.8630 41.6831
" />
<path d="M75.8307 42.5903
L76.4354 42.5903
" />
<path d="M75.7097 42.9531
L76.1330 41.6831
" />
<path d="M76.1330 41.6831
L76.5564 42.9531
" />
<path d="M77.8869 41.6227
L76.7983 43.2555
" />
<path d="M78.3102 42.9531
L78.3102 41.6831
" />
<path d="M78.3102 41.6831
L78.7336 42.5903
" />
<path d="M78.7336 42.5903
L79.1569 41.6831
" />
<path d="M79.1569 41.6831
L79.1569 42.9531
" />
<path d="M80.4873 42.8322
L80.4269 42.8927
" />
<path d="M80.4269 42.8927
L80.2454 42.9531
" />
<path d="M80.2454 42.9531
L80.1245 42.9531
" />
<path d="M80.1245 42.9531
L79.9431 42.8927
" />
<path d="M79.9431 42.8927
L79.8221 42.7717
" />
<path d="M79.8221 42.7717
L79.7616 42.6507
" />
<path d="M79.7616 42.6507
L79.7012 42.4088
" />
<path d="M79.7012 42.4088
L79.7012 42.2274
" />
<path d="M79.7012 42.2274
L79.7616 41.9855
" />
<path d="M79.7616 41.9855
L79.8221 41.8646
" />
<path d="M79.8221 41.8646
L79.9431 41.7436
" />
<path d="M79.9431 41.7436
L80.1245 41.6831
" />
<path d="M80.1245 41.6831
L80.2454 41.6831
" />
<path d="M80.2454 41.6831
L80.4269 41.7436
" />
<path d="M80.4269 41.7436
L80.4873 41.8041
" />
<path d="M81.5759 41.6831
L81.3340 41.6831
" />
<path d="M81.3340 41.6831
L81.2131 41.7436
" />
<path d="M81.2131 41.7436
L81.1526 41.8041
" />
<path d="M81.1526 41.8041
L81.0316 41.9855
" />
<path d="M81.0316 41.9855
L80.9712 42.2274
" />
<path d="M80.9712 42.2274
L80.9712 42.7112
" />
<path d="M80.9712 42.7112
L81.0316 42.8322
" />
<path d="M81.0316 42.8322
L81.0921 42.8927
" />
<path d="M81.0921 42.8927
L81.2131 42.9531
" />
<path d="M81.2131 42.9531
L81.4550 42.9531
" />
<path d="M81.4550 42.9531
L81.5759 42.8927
" />
<path d="M81.5759 42.8927
L81.6364 42.8322
" />
<path d="M81.6364 42.8322
L81.6969 42.7112
" />
<path d="M81.6969 42.7112
L81.6969 42.4088
" />
<path d="M81.6969 42.4088
L81.6364 42.2879
" />
<path d="M81.6364 42.2879
L81.5759 42.2274
" />
<path d="M81.5759 42.2274
L81.4550 42.1669
" />
<path d="M81.4550 42.1669
L81.2131 42.1669
" />
<path d="M81.2131 42.1669
L81.0921 42.2274
" />
<path d="M81.0921 42.2274
L81.0316 42.2879
" />
<path d="M81.0316 42.2879
L80.9712 42.4088
" />
<path d="M82.4226 42.2274
L82.3016 42.1669
" />
<path d="M82.3016 42.1669
L82.2411 42.1065
" />
<path d="M82.2411 42.1065
L82.1807 41.9855
" />
<path d="M82.1807 41.9855
L82.1807 41.9250
" />
<path d="M82.1807 41.9250
L82.2411 41.8041
" />
<path d="M82.2411 41.8041
L82.3016 41.7436
" />
<path d="M82.3016 41.7436
L82.4226 41.6831
" />
<path d="M82.4226 41.6831
L82.6645 41.6831
" />
<path d="M82.6645 41.6831
L82.7854 41.7436
" />
<path d="M82.7854 41.7436
L82.8459 41.8041
" />
<path d="M82.8459 41.8041
L82.9064 41.9250
" />
<path d="M82.9064 41.9250
L82.9064 41.9855
" />
<path d="M82.9064 41.9855
L82.8459 42.1065
" />
<path d="M82.8459 42.1065
L82.7854 42.1669
" />
<path d="M82.7854 42.1669
L82.6645 42.2274
" />
<path d="M82.6645 42.2274
L82.4226 42.2274
" />
<path d="M82.4226 42.2274
L82.3016 42.2879
" />
<path d="M82.3016 42.2879
L82.2411 42.3484
" />
<path d="M82.2411 42.3484
L82.1807 42.4693
" />
<path d="M82.1807 42.4693
L82.1807 42.7112
" />
<path d="M82.1807 42.7112
L82.2411 42.8322
" />
<path d="M82.2411 42.8322
L82.3016 42.8927
" />
<path d="M82.3016 42.8927
L82.4226 42.9531
" />
<path d="M82.4226 42.9531
L82.6645 42.9531
" />
<path d="M82.6645 42.9531
L82.7854 42.8927
" />
<path d="M82.7854 42.8927
L82.8459 42.8322
" />
<path d="M82.8459 42.8322
L82.9064 42.7112
" />
<path d="M82.9064 42.7112
L82.9064 42.4693
" />
<path d="M82.9064 42.4693
L82.8459 42.3484
" />
<path d="M82.8459 42.3484
L82.7854 42.2879
" />
<path d="M82.7854 42.2879
L82.6645 42.2274
" />
<path d="M83.3902 41.8041
L83.4506 41.7436
" />
<path d="M83.4506 41.7436
L83.5716 41.6831
" />
<path d="M83.5716 41.6831
L83.8740 41.6831
" />
<path d="M83.8740 41.6831
L83.9949 41.7436
" />
<path d="M83.9949 41.7436
L84.0554 41.8041
" />
<path d="M84.0554 41.8041
L84.1159 41.9250
" />
<path d="M84.1159 41.9250
L84.1159 42.0460
" />
<path d="M84.1159 42.0460
L84.0554 42.2274
" />
<path d="M84.0554 42.2274
L83.3297 42.9531
" />
<path d="M83.3297 42.9531
L84.1159 42.9531
" />
<path d="M84.5997 41.8041
L84.6601 41.7436
" />
<path d="M84.6601 41.7436
L84.7811 41.6831
" />
<path d="M84.7811 41.6831
L85.0835 41.6831
" />
<path d="M85.0835 41.6831
L85.2044 41.7436
" />
<path d="M85.2044 41.7436
L85.2649 41.8041
" />
<path d="M85.2649 41.8041
L85.3254 41.9250
" />
<path d="M85.3254 41.9250
L85.3254 42.0460
" />
<path d="M85.3254 42.0460
L85.2649 42.2274
" />
<path d="M85.2649 42.2274
L84.5392 42.9531
" />
<path d="M84.5392 42.9531
L85.3254 42.9531
" />
<path d="M85.8696 42.8322
L85.9301 42.8927
" />
<path d="M85.9301 42.8927
L85.8696 42.9531
" />
<path d="M85.8696 42.9531
L85.8092 42.8927
" />
<path d="M85.8092 42.8927
L85.8696 42.8322
" />
<path d="M85.8696 42.8322
L85.8696 42.9531
" />
<path d="M86.4744 42.9531
L86.4744 41.6831
" />
<path d="M87.0187 42.9531
L87.0187 42.2879
" />
<path d="M87.0187 42.2879
L86.9582 42.1669
" />
<path d="M86.9582 42.1669
L86.8373 42.1065
" />
<path d="M86.8373 42.1065
L86.6559 42.1065
" />
<path d="M86.6559 42.1065
L86.5349 42.1669
" />
<path d="M86.5349 42.1669
L86.4744 42.2274
" />
<path d="M87.4420 42.1065
L87.9258 42.1065
" />
<path d="M87.6234 41.6831
L87.6234 42.7717
" />
<path d="M87.6234 42.7717
L87.6839 42.8927
" />
<path d="M87.6839 42.8927
L87.8049 42.9531
" />
<path d="M87.8049 42.9531
L87.9258 42.9531
" />
<path d="M88.3491 42.9531
L88.3491 42.1065
" />
<path d="M88.3491 42.2274
L88.4096 42.1669
" />
<path d="M88.4096 42.1669
L88.5306 42.1065
" />
<path d="M88.5306 42.1065
L88.7120 42.1065
" />
<path d="M88.7120 42.1065
L88.8329 42.1669
" />
<path d="M88.8329 42.1669
L88.8934 42.2879
" />
<path d="M88.8934 42.2879
L88.8934 42.9531
" />
<path d="M88.8934 42.2879
L88.9539 42.1669
" />
<path d="M88.9539 42.1669
L89.0748 42.1065
" />
<path d="M89.0748 42.1065
L89.2563 42.1065
" />
<path d="M89.2563 42.1065
L89.3772 42.1669
" />
<path d="M89.3772 42.1669
L89.4377 42.2879
" />
<path d="M89.4377 42.2879
L89.4377 42.9531
" />
<path d="M90.2239 42.9531
L90.1029 42.8927
" />
<path d="M90.1029 42.8927
L90.0424 42.7717
" />
<path d="M90.0424 42.7717
L90.0424 41.6831
" />
</g></g> 
</svg>
