<?xml version="1.0" standalone="no"?>
 <!DOCTYPE svg PUBLIC "-//W3C//DTD SVG 1.1//EN" 
 "http://www.w3.org/Graphics/SVG/1.1/DTD/svg11.dtd"> 
<svg
  xmlns:svg="http://www.w3.org/2000/svg"
  xmlns="http://www.w3.org/2000/svg"
  xmlns:xlink="http://www.w3.org/1999/xlink"
  version="1.1"
  width="93.2180mm" height="20.2692mm" viewBox="0.0000 0.0000 93.2180 20.2692">
<title>SVG Image created as working.svg date 2023/08/14 09:15:17 </title>
  <desc>Image generated by Eeschema-SVG </desc>
<g style="fill:#000000; fill-opacity:1.0000;stroke:#000000; stroke-opacity:1.0000;
stroke-linecap:round; stroke-linejoin:round;"
 transform="translate(0 0) scale(1 1)">
</g>
<g style="fill:#840000; fill-opacity:0.0; 
stroke:#840000; stroke-width:0.0000; stroke-opacity:1; 
stroke-linecap:round; stroke-linejoin:round;">
</g>
<g style="fill:#FFFFC2; fill-opacity:0.0; 
stroke:#FFFFC2; stroke-width:0.0000; stroke-opacity:1; 
stroke-linecap:round; stroke-linejoin:round;">
</g>
<g style="fill:#FFFFC2; fill-opacity:1.0000; 
stroke:#FFFFC2; stroke-width:0.0000; stroke-opacity:1; 
stroke-linecap:round; stroke-linejoin:round;">
<rect x="38.994800" y="6.521200" width="15.240000" height="9.525000" rx="0.000000" />
</g>
<g style="fill:#840084; fill-opacity:1.0000; 
stroke:#840084; stroke-width:0.0000; stroke-opacity:1; 
stroke-linecap:round; stroke-linejoin:round;">
</g>
<g style="fill:#840000; fill-opacity:1.0000; 
stroke:#840000; stroke-width:0.0000; stroke-opacity:1; 
stroke-linecap:round; stroke-linejoin:round;">
</g>
<g style="fill:#840000; fill-opacity:0.0; 
stroke:#840000; stroke-width:0.2540; stroke-opacity:1; 
stroke-linecap:round; stroke-linejoin:round;">
<rect x="38.994800" y="6.521200" width="15.240000" height="9.525000" rx="0.000000" />
</g>
<g style="fill:#840000; fill-opacity:0.0; 
stroke:#840000; stroke-width:0.1524; stroke-opacity:1; 
stroke-linecap:round; stroke-linejoin:round;">
<path d="M38.9948 8.4262
L36.4548 8.4262
" />
</g>
<g style="fill:#006464; fill-opacity:0.0; 
stroke:#006464; stroke-width:0.1524; stroke-opacity:1; 
stroke-linecap:round; stroke-linejoin:round;">
<text x="39.2488" y="9.0612"
textLength="3.2271" font-size="1.6933" lengthAdjust="spacingAndGlyphs"
text-anchor="start" opacity="0">VIN</text>
<g class="stroked-text"><desc>VIN</desc>
<path d="M39.4699 7.7357
L39.8932 9.0057
" />
<path d="M39.8932 9.0057
L40.3166 7.7357
" />
<path d="M40.7399 9.0057
L40.7399 7.7357
" />
<path d="M41.3447 9.0057
L41.3447 7.7357
" />
<path d="M41.3447 7.7357
L42.0704 9.0057
" />
<path d="M42.0704 9.0057
L42.0704 7.7357
" />
</g></g>
<g style="fill:#A90000; fill-opacity:0.0; 
stroke:#A90000; stroke-width:0.1524; stroke-opacity:1; 
stroke-linecap:round; stroke-linejoin:round;">
<text x="37.7248" y="8.1722"
textLength="1.4127" font-size="1.6933" lengthAdjust="spacingAndGlyphs"
text-anchor="middle" opacity="0">1</text>
<g class="stroked-text"><desc>1</desc>
<path d="M38.0877 8.0087
L37.3620 8.0087
" />
<path d="M37.7248 8.0087
L37.7248 6.7387
" />
<path d="M37.7248 6.7387
L37.6039 6.9202
" />
<path d="M37.6039 6.9202
L37.4829 7.0411
" />
<path d="M37.4829 7.0411
L37.3620 7.1016
" />
</g></g>
<g style="fill:#840000; fill-opacity:0.0; 
stroke:#840000; stroke-width:0.1524; stroke-opacity:1; 
stroke-linecap:round; stroke-linejoin:round;">
<path d="M54.2348 10.9662
L56.7748 10.9662
" />
</g>
<g style="fill:#006464; fill-opacity:0.0; 
stroke:#006464; stroke-width:0.1524; stroke-opacity:1; 
stroke-linecap:round; stroke-linejoin:round;">
<text x="53.9808" y="11.6012"
textLength="4.8599" font-size="1.6933" lengthAdjust="spacingAndGlyphs"
text-anchor="end" opacity="0">LIMIT</text>
<g class="stroked-text"><desc>LIMIT</desc>
<path d="M50.1310 11.5457
L49.5262 11.5457
" />
<path d="M49.5262 11.5457
L49.5262 10.2757
" />
<path d="M50.5543 11.5457
L50.5543 10.2757
" />
<path d="M51.1591 11.5457
L51.1591 10.2757
" />
<path d="M51.1591 10.2757
L51.5825 11.1829
" />
<path d="M51.5825 11.1829
L52.0058 10.2757
" />
<path d="M52.0058 10.2757
L52.0058 11.5457
" />
<path d="M52.6105 11.5457
L52.6105 10.2757
" />
<path d="M53.0339 10.2757
L53.7596 10.2757
" />
<path d="M53.3968 11.5457
L53.3968 10.2757
" />
</g></g>
<g style="fill:#A90000; fill-opacity:0.0; 
stroke:#A90000; stroke-width:0.1524; stroke-opacity:1; 
stroke-linecap:round; stroke-linejoin:round;">
<text x="55.5048" y="10.7122"
textLength="1.4127" font-size="1.6933" lengthAdjust="spacingAndGlyphs"
text-anchor="middle" opacity="0">2</text>
<g class="stroked-text"><desc>2</desc>
<path d="M55.1420 9.3997
L55.2024 9.3392
" />
<path d="M55.2024 9.3392
L55.3234 9.2787
" />
<path d="M55.3234 9.2787
L55.6258 9.2787
" />
<path d="M55.6258 9.2787
L55.7467 9.3392
" />
<path d="M55.7467 9.3392
L55.8072 9.3997
" />
<path d="M55.8072 9.3997
L55.8677 9.5206
" />
<path d="M55.8677 9.5206
L55.8677 9.6416
" />
<path d="M55.8677 9.6416
L55.8072 9.8230
" />
<path d="M55.8072 9.8230
L55.0815 10.5487
" />
<path d="M55.0815 10.5487
L55.8677 10.5487
" />
</g></g>
<g style="fill:#840000; fill-opacity:0.0; 
stroke:#840000; stroke-width:0.1524; stroke-opacity:1; 
stroke-linecap:round; stroke-linejoin:round;">
<path d="M46.6148 16.0462
L46.6148 18.5862
" />
</g>
<g style="fill:#006464; fill-opacity:0.0; 
stroke:#006464; stroke-width:0.1524; stroke-opacity:1; 
stroke-linecap:round; stroke-linejoin:round;">
<g transform="rotate(-90.000000 46.6148 15.7922)">
<text x="46.6148" y="16.4272"
textLength="4.0737" font-size="1.6933" lengthAdjust="spacingAndGlyphs"
text-anchor="start" opacity="0">GND</text>
</g>
<g class="stroked-text"><desc>GND</desc>
<path d="M45.9848 14.7243
L45.9243 14.8453
" />
<path d="M45.9243 14.8453
L45.9243 15.0267
" />
<path d="M45.9243 15.0267
L45.9848 15.2081
" />
<path d="M45.9848 15.2081
L46.1058 15.3291
" />
<path d="M46.1058 15.3291
L46.2267 15.3896
" />
<path d="M46.2267 15.3896
L46.4686 15.4500
" />
<path d="M46.4686 15.4500
L46.6500 15.4500
" />
<path d="M46.6500 15.4500
L46.8919 15.3896
" />
<path d="M46.8919 15.3896
L47.0129 15.3291
" />
<path d="M47.0129 15.3291
L47.1339 15.2081
" />
<path d="M47.1339 15.2081
L47.1943 15.0267
" />
<path d="M47.1943 15.0267
L47.1943 14.9058
" />
<path d="M47.1943 14.9058
L47.1339 14.7243
" />
<path d="M47.1339 14.7243
L47.0734 14.6639
" />
<path d="M47.0734 14.6639
L46.6500 14.6639
" />
<path d="M46.6500 14.6639
L46.6500 14.9058
" />
<path d="M47.1943 14.1196
L45.9243 14.1196
" />
<path d="M45.9243 14.1196
L47.1943 13.3939
" />
<path d="M47.1943 13.3939
L45.9243 13.3939
" />
<path d="M47.1943 12.7891
L45.9243 12.7891
" />
<path d="M45.9243 12.7891
L45.9243 12.4867
" />
<path d="M45.9243 12.4867
L45.9848 12.3053
" />
<path d="M45.9848 12.3053
L46.1058 12.1843
" />
<path d="M46.1058 12.1843
L46.2267 12.1238
" />
<path d="M46.2267 12.1238
L46.4686 12.0634
" />
<path d="M46.4686 12.0634
L46.6500 12.0634
" />
<path d="M46.6500 12.0634
L46.8919 12.1238
" />
<path d="M46.8919 12.1238
L47.0129 12.1843
" />
<path d="M47.0129 12.1843
L47.1339 12.3053
" />
<path d="M47.1339 12.3053
L47.1943 12.4867
" />
<path d="M47.1943 12.4867
L47.1943 12.7891
" />
</g></g>
<g style="fill:#A90000; fill-opacity:0.0; 
stroke:#A90000; stroke-width:0.1524; stroke-opacity:1; 
stroke-linecap:round; stroke-linejoin:round;">
<g transform="rotate(-90.000000 46.3608 17.3162)">
<text x="46.3608" y="17.3162"
textLength="1.4127" font-size="1.6933" lengthAdjust="spacingAndGlyphs"
text-anchor="middle" opacity="0">3</text>
</g>
<g class="stroked-text"><desc>3</desc>
<path d="M44.9273 17.7394
L44.9273 16.9532
" />
<path d="M44.9273 16.9532
L45.4111 17.3766
" />
<path d="M45.4111 17.3766
L45.4111 17.1951
" />
<path d="M45.4111 17.1951
L45.4716 17.0742
" />
<path d="M45.4716 17.0742
L45.5321 17.0137
" />
<path d="M45.5321 17.0137
L45.6530 16.9532
" />
<path d="M45.6530 16.9532
L45.9554 16.9532
" />
<path d="M45.9554 16.9532
L46.0764 17.0137
" />
<path d="M46.0764 17.0137
L46.1369 17.0742
" />
<path d="M46.1369 17.0742
L46.1973 17.1951
" />
<path d="M46.1973 17.1951
L46.1973 17.5580
" />
<path d="M46.1973 17.5580
L46.1369 17.6789
" />
<path d="M46.1369 17.6789
L46.0764 17.7394
" />
</g></g>
<g style="fill:#840000; fill-opacity:0.0; 
stroke:#840000; stroke-width:0.1524; stroke-opacity:1; 
stroke-linecap:round; stroke-linejoin:round;">
<path d="M54.2348 13.5062
L56.7748 13.5062
" />
</g>
<g style="fill:#006464; fill-opacity:0.0; 
stroke:#006464; stroke-width:0.1524; stroke-opacity:1; 
stroke-linecap:round; stroke-linejoin:round;">
<text x="53.9808" y="14.1412"
textLength="3.7108" font-size="1.6933" lengthAdjust="spacingAndGlyphs"
text-anchor="end" opacity="0">REF</text>
<g class="stroked-text"><desc>REF</desc>
<path d="M51.4010 14.0857
L50.9777 13.4810
" />
<path d="M50.6753 14.0857
L50.6753 12.8157
" />
<path d="M50.6753 12.8157
L51.1591 12.8157
" />
<path d="M51.1591 12.8157
L51.2801 12.8762
" />
<path d="M51.2801 12.8762
L51.3406 12.9367
" />
<path d="M51.3406 12.9367
L51.4010 13.0576
" />
<path d="M51.4010 13.0576
L51.4010 13.2391
" />
<path d="M51.4010 13.2391
L51.3406 13.3600
" />
<path d="M51.3406 13.3600
L51.2801 13.4205
" />
<path d="M51.2801 13.4205
L51.1591 13.4810
" />
<path d="M51.1591 13.4810
L50.6753 13.4810
" />
<path d="M51.9453 13.4205
L52.3687 13.4205
" />
<path d="M52.5501 14.0857
L51.9453 14.0857
" />
<path d="M51.9453 14.0857
L51.9453 12.8157
" />
<path d="M51.9453 12.8157
L52.5501 12.8157
" />
<path d="M53.5177 13.4205
L53.0943 13.4205
" />
<path d="M53.0943 14.0857
L53.0943 12.8157
" />
<path d="M53.0943 12.8157
L53.6991 12.8157
" />
</g></g>
<g style="fill:#A90000; fill-opacity:0.0; 
stroke:#A90000; stroke-width:0.1524; stroke-opacity:1; 
stroke-linecap:round; stroke-linejoin:round;">
<text x="55.5048" y="13.2522"
textLength="1.4127" font-size="1.6933" lengthAdjust="spacingAndGlyphs"
text-anchor="middle" opacity="0">4</text>
<g class="stroked-text"><desc>4</desc>
<path d="M55.7467 12.2421
L55.7467 13.0887
" />
<path d="M55.4443 11.7583
L55.1420 12.6654
" />
<path d="M55.1420 12.6654
L55.9281 12.6654
" />
</g></g>
<g style="fill:#840000; fill-opacity:0.0; 
stroke:#840000; stroke-width:0.1524; stroke-opacity:1; 
stroke-linecap:round; stroke-linejoin:round;">
<path d="M54.2348 8.4262
L56.7748 8.4262
" />
</g>
<g style="fill:#006464; fill-opacity:0.0; 
stroke:#006464; stroke-width:0.1524; stroke-opacity:1; 
stroke-linecap:round; stroke-linejoin:round;">
<text x="53.9808" y="9.0612"
textLength="4.9204" font-size="1.6933" lengthAdjust="spacingAndGlyphs"
text-anchor="end" opacity="0">VOUT</text>
<g class="stroked-text"><desc>VOUT</desc>
<path d="M49.2843 7.7357
L49.7076 9.0057
" />
<path d="M49.7076 9.0057
L50.1310 7.7357
" />
<path d="M50.7962 7.7357
L51.0381 7.7357
" />
<path d="M51.0381 7.7357
L51.1591 7.7962
" />
<path d="M51.1591 7.7962
L51.2800 7.9172
" />
<path d="M51.2800 7.9172
L51.3405 8.1591
" />
<path d="M51.3405 8.1591
L51.3405 8.5824
" />
<path d="M51.3405 8.5824
L51.2800 8.8243
" />
<path d="M51.2800 8.8243
L51.1591 8.9453
" />
<path d="M51.1591 8.9453
L51.0381 9.0057
" />
<path d="M51.0381 9.0057
L50.7962 9.0057
" />
<path d="M50.7962 9.0057
L50.6753 8.9453
" />
<path d="M50.6753 8.9453
L50.5543 8.8243
" />
<path d="M50.5543 8.8243
L50.4939 8.5824
" />
<path d="M50.4939 8.5824
L50.4939 8.1591
" />
<path d="M50.4939 8.1591
L50.5543 7.9172
" />
<path d="M50.5543 7.9172
L50.6753 7.7962
" />
<path d="M50.6753 7.7962
L50.7962 7.7357
" />
<path d="M51.8848 7.7357
L51.8848 8.7638
" />
<path d="M51.8848 8.7638
L51.9453 8.8848
" />
<path d="M51.9453 8.8848
L52.0058 8.9453
" />
<path d="M52.0058 8.9453
L52.1267 9.0057
" />
<path d="M52.1267 9.0057
L52.3686 9.0057
" />
<path d="M52.3686 9.0057
L52.4896 8.9453
" />
<path d="M52.4896 8.9453
L52.5501 8.8848
" />
<path d="M52.5501 8.8848
L52.6105 8.7638
" />
<path d="M52.6105 8.7638
L52.6105 7.7357
" />
<path d="M53.0339 7.7357
L53.7596 7.7357
" />
<path d="M53.3968 9.0057
L53.3968 7.7357
" />
</g></g>
<g style="fill:#A90000; fill-opacity:0.0; 
stroke:#A90000; stroke-width:0.1524; stroke-opacity:1; 
stroke-linecap:round; stroke-linejoin:round;">
<text x="55.5048" y="8.1722"
textLength="1.4127" font-size="1.6933" lengthAdjust="spacingAndGlyphs"
text-anchor="middle" opacity="0">5</text>
<g class="stroked-text"><desc>5</desc>
<path d="M55.8072 6.7387
L55.2024 6.7387
" />
<path d="M55.2024 6.7387
L55.1420 7.3435
" />
<path d="M55.1420 7.3435
L55.2024 7.2830
" />
<path d="M55.2024 7.2830
L55.3234 7.2225
" />
<path d="M55.3234 7.2225
L55.6258 7.2225
" />
<path d="M55.6258 7.2225
L55.7467 7.2830
" />
<path d="M55.7467 7.2830
L55.8072 7.3435
" />
<path d="M55.8072 7.3435
L55.8677 7.4644
" />
<path d="M55.8677 7.4644
L55.8677 7.7668
" />
<path d="M55.8677 7.7668
L55.8072 7.8878
" />
<path d="M55.8072 7.8878
L55.7467 7.9483
" />
<path d="M55.7467 7.9483
L55.6258 8.0087
" />
<path d="M55.6258 8.0087
L55.3234 8.0087
" />
<path d="M55.3234 8.0087
L55.2024 7.9483
" />
<path d="M55.2024 7.9483
L55.1420 7.8878
" />
</g></g>
<g style="fill:#840084; fill-opacity:0.0; 
stroke:#840084; stroke-width:0.1524; stroke-opacity:1; 
stroke-linecap:round; stroke-linejoin:round;">
</g>
<g style="fill:#006464; fill-opacity:0.0; 
stroke:#006464; stroke-width:0.1524; stroke-opacity:1; 
stroke-linecap:round; stroke-linejoin:round;">
</g>
<g style="fill:#006464; fill-opacity:0.0; 
stroke:#006464; stroke-width:0.1588; stroke-opacity:1; 
stroke-linecap:round; stroke-linejoin:round;">
<text x="40.2648" y="5.8862"
textLength="2.6415" font-size="1.6933" lengthAdjust="spacingAndGlyphs"
text-anchor="middle" opacity="0">U?</text>
<g class="stroked-text"><desc>U?</desc>
<path d="M39.3576 4.5604
L39.3576 5.5885
" />
<path d="M39.3576 5.5885
L39.4181 5.7095
" />
<path d="M39.4181 5.7095
L39.4786 5.7700
" />
<path d="M39.4786 5.7700
L39.5995 5.8304
" />
<path d="M39.5995 5.8304
L39.8414 5.8304
" />
<path d="M39.8414 5.8304
L39.9624 5.7700
" />
<path d="M39.9624 5.7700
L40.0229 5.7095
" />
<path d="M40.0229 5.7095
L40.0833 5.5885
" />
<path d="M40.0833 5.5885
L40.0833 4.5604
" />
<path d="M40.8696 5.7095
L40.9300 5.7700
" />
<path d="M40.9300 5.7700
L40.8696 5.8304
" />
<path d="M40.8696 5.8304
L40.8091 5.7700
" />
<path d="M40.8091 5.7700
L40.8696 5.7095
" />
<path d="M40.8696 5.7095
L40.8696 5.8304
" />
<path d="M40.6277 4.6209
L40.7486 4.5604
" />
<path d="M40.7486 4.5604
L41.0510 4.5604
" />
<path d="M41.0510 4.5604
L41.1719 4.6209
" />
<path d="M41.1719 4.6209
L41.2324 4.7419
" />
<path d="M41.2324 4.7419
L41.2324 4.8628
" />
<path d="M41.2324 4.8628
L41.1719 4.9838
" />
<path d="M41.1719 4.9838
L41.1115 5.0442
" />
<path d="M41.1115 5.0442
L40.9905 5.1047
" />
<path d="M40.9905 5.1047
L40.9300 5.1652
" />
<path d="M40.9300 5.1652
L40.8696 5.2861
" />
<path d="M40.8696 5.2861
L40.8696 5.3466
" />
</g><text x="51.6948" y="5.8862"
textLength="4.8790" font-size="1.6933" lengthAdjust="spacingAndGlyphs"
text-anchor="middle" opacity="0">L200</text>
<g class="stroked-text"><desc>L200</desc>
<path d="M50.2736 5.8304
L49.6688 5.8304
" />
<path d="M49.6688 5.8304
L49.6688 4.5604
" />
<path d="M50.6365 4.6814
L50.6969 4.6209
" />
<path d="M50.6969 4.6209
L50.8179 4.5604
" />
<path d="M50.8179 4.5604
L51.1203 4.5604
" />
<path d="M51.1203 4.5604
L51.2412 4.6209
" />
<path d="M51.2412 4.6209
L51.3017 4.6814
" />
<path d="M51.3017 4.6814
L51.3622 4.8023
" />
<path d="M51.3622 4.8023
L51.3622 4.9233
" />
<path d="M51.3622 4.9233
L51.3017 5.1047
" />
<path d="M51.3017 5.1047
L50.5760 5.8304
" />
<path d="M50.5760 5.8304
L51.3622 5.8304
" />
<path d="M52.1483 4.5604
L52.2693 4.5604
" />
<path d="M52.2693 4.5604
L52.3902 4.6209
" />
<path d="M52.3902 4.6209
L52.4507 4.6814
" />
<path d="M52.4507 4.6814
L52.5112 4.8023
" />
<path d="M52.5112 4.8023
L52.5717 5.0442
" />
<path d="M52.5717 5.0442
L52.5717 5.3466
" />
<path d="M52.5717 5.3466
L52.5112 5.5885
" />
<path d="M52.5112 5.5885
L52.4507 5.7095
" />
<path d="M52.4507 5.7095
L52.3902 5.7700
" />
<path d="M52.3902 5.7700
L52.2693 5.8304
" />
<path d="M52.2693 5.8304
L52.1483 5.8304
" />
<path d="M52.1483 5.8304
L52.0274 5.7700
" />
<path d="M52.0274 5.7700
L51.9669 5.7095
" />
<path d="M51.9669 5.7095
L51.9064 5.5885
" />
<path d="M51.9064 5.5885
L51.8460 5.3466
" />
<path d="M51.8460 5.3466
L51.8460 5.0442
" />
<path d="M51.8460 5.0442
L51.9064 4.8023
" />
<path d="M51.9064 4.8023
L51.9669 4.6814
" />
<path d="M51.9669 4.6814
L52.0274 4.6209
" />
<path d="M52.0274 4.6209
L52.1483 4.5604
" />
<path d="M53.3578 4.5604
L53.4788 4.5604
" />
<path d="M53.4788 4.5604
L53.5997 4.6209
" />
<path d="M53.5997 4.6209
L53.6602 4.6814
" />
<path d="M53.6602 4.6814
L53.7207 4.8023
" />
<path d="M53.7207 4.8023
L53.7812 5.0442
" />
<path d="M53.7812 5.0442
L53.7812 5.3466
" />
<path d="M53.7812 5.3466
L53.7207 5.5885
" />
<path d="M53.7207 5.5885
L53.6602 5.7095
" />
<path d="M53.6602 5.7095
L53.5997 5.7700
" />
<path d="M53.5997 5.7700
L53.4788 5.8304
" />
<path d="M53.4788 5.8304
L53.3578 5.8304
" />
<path d="M53.3578 5.8304
L53.2369 5.7700
" />
<path d="M53.2369 5.7700
L53.1764 5.7095
" />
<path d="M53.1764 5.7095
L53.1159 5.5885
" />
<path d="M53.1159 5.5885
L53.0555 5.3466
" />
<path d="M53.0555 5.3466
L53.0555 5.0442
" />
<path d="M53.0555 5.0442
L53.1159 4.8023
" />
<path d="M53.1159 4.8023
L53.1764 4.6814
" />
<path d="M53.1764 4.6814
L53.2369 4.6209
" />
<path d="M53.2369 4.6209
L53.3578 4.5604
" />
</g></g>
<g style="fill:#840084; fill-opacity:0.0; 
stroke:#840084; stroke-width:0.1588; stroke-opacity:1; 
stroke-linecap:round; stroke-linejoin:round;">
<text x="46.6148" y="3.3462"
textLength="77.6915" font-size="1.6933" lengthAdjust="spacingAndGlyphs"
text-anchor="middle" opacity="0">Package_TO_SOT_THT:TO-220-5_P3.4x3.8mm_StaggerOdd_Lead7.13mm_TabDown</text>
<g class="stroked-text"><desc>Package_TO_SOT_THT:TO-220-5_P3.4x3.8mm_StaggerOdd_Lead7.13mm_TabDown</desc>
<path d="M8.1826 3.2904
L8.1826 2.0204
" />
<path d="M8.1826 2.0204
L8.6664 2.0204
" />
<path d="M8.6664 2.0204
L8.7874 2.0809
" />
<path d="M8.7874 2.0809
L8.8479 2.1414
" />
<path d="M8.8479 2.1414
L8.9083 2.2623
" />
<path d="M8.9083 2.2623
L8.9083 2.4438
" />
<path d="M8.9083 2.4438
L8.8479 2.5647
" />
<path d="M8.8479 2.5647
L8.7874 2.6252
" />
<path d="M8.7874 2.6252
L8.6664 2.6857
" />
<path d="M8.6664 2.6857
L8.1826 2.6857
" />
<path d="M9.9969 3.2904
L9.9969 2.6252
" />
<path d="M9.9969 2.6252
L9.9364 2.5042
" />
<path d="M9.9364 2.5042
L9.8155 2.4438
" />
<path d="M9.8155 2.4438
L9.5736 2.4438
" />
<path d="M9.5736 2.4438
L9.4526 2.5042
" />
<path d="M9.9969 3.2300
L9.8760 3.2904
" />
<path d="M9.8760 3.2904
L9.5736 3.2904
" />
<path d="M9.5736 3.2904
L9.4526 3.2300
" />
<path d="M9.4526 3.2300
L9.3922 3.1090
" />
<path d="M9.3922 3.1090
L9.3922 2.9880
" />
<path d="M9.3922 2.9880
L9.4526 2.8671
" />
<path d="M9.4526 2.8671
L9.5736 2.8066
" />
<path d="M9.5736 2.8066
L9.8760 2.8066
" />
<path d="M9.8760 2.8066
L9.9969 2.7461
" />
<path d="M11.1459 3.2300
L11.0250 3.2904
" />
<path d="M11.0250 3.2904
L10.7831 3.2904
" />
<path d="M10.7831 3.2904
L10.6621 3.2300
" />
<path d="M10.6621 3.2300
L10.6016 3.1695
" />
<path d="M10.6016 3.1695
L10.5412 3.0485
" />
<path d="M10.5412 3.0485
L10.5412 2.6857
" />
<path d="M10.5412 2.6857
L10.6016 2.5647
" />
<path d="M10.6016 2.5647
L10.6621 2.5042
" />
<path d="M10.6621 2.5042
L10.7831 2.4438
" />
<path d="M10.7831 2.4438
L11.0250 2.4438
" />
<path d="M11.0250 2.4438
L11.1459 2.5042
" />
<path d="M11.6902 3.2904
L11.6902 2.0204
" />
<path d="M11.8112 2.8066
L12.1740 3.2904
" />
<path d="M12.1740 2.4438
L11.6902 2.9276
" />
<path d="M13.2626 3.2904
L13.2626 2.6252
" />
<path d="M13.2626 2.6252
L13.2021 2.5042
" />
<path d="M13.2021 2.5042
L13.0812 2.4438
" />
<path d="M13.0812 2.4438
L12.8393 2.4438
" />
<path d="M12.8393 2.4438
L12.7183 2.5042
" />
<path d="M13.2626 3.2300
L13.1417 3.2904
" />
<path d="M13.1417 3.2904
L12.8393 3.2904
" />
<path d="M12.8393 3.2904
L12.7183 3.2300
" />
<path d="M12.7183 3.2300
L12.6579 3.1090
" />
<path d="M12.6579 3.1090
L12.6579 2.9880
" />
<path d="M12.6579 2.9880
L12.7183 2.8671
" />
<path d="M12.7183 2.8671
L12.8393 2.8066
" />
<path d="M12.8393 2.8066
L13.1417 2.8066
" />
<path d="M13.1417 2.8066
L13.2626 2.7461
" />
<path d="M14.4116 2.4438
L14.4116 3.4719
" />
<path d="M14.4116 3.4719
L14.3511 3.5928
" />
<path d="M14.3511 3.5928
L14.2907 3.6533
" />
<path d="M14.2907 3.6533
L14.1697 3.7138
" />
<path d="M14.1697 3.7138
L13.9883 3.7138
" />
<path d="M13.9883 3.7138
L13.8673 3.6533
" />
<path d="M14.4116 3.2300
L14.2907 3.2904
" />
<path d="M14.2907 3.2904
L14.0488 3.2904
" />
<path d="M14.0488 3.2904
L13.9278 3.2300
" />
<path d="M13.9278 3.2300
L13.8673 3.1695
" />
<path d="M13.8673 3.1695
L13.8069 3.0485
" />
<path d="M13.8069 3.0485
L13.8069 2.6857
" />
<path d="M13.8069 2.6857
L13.8673 2.5647
" />
<path d="M13.8673 2.5647
L13.9278 2.5042
" />
<path d="M13.9278 2.5042
L14.0488 2.4438
" />
<path d="M14.0488 2.4438
L14.2907 2.4438
" />
<path d="M14.2907 2.4438
L14.4116 2.5042
" />
<path d="M15.5001 3.2300
L15.3792 3.2904
" />
<path d="M15.3792 3.2904
L15.1373 3.2904
" />
<path d="M15.1373 3.2904
L15.0163 3.2300
" />
<path d="M15.0163 3.2300
L14.9559 3.1090
" />
<path d="M14.9559 3.1090
L14.9559 2.6252
" />
<path d="M14.9559 2.6252
L15.0163 2.5042
" />
<path d="M15.0163 2.5042
L15.1373 2.4438
" />
<path d="M15.1373 2.4438
L15.3792 2.4438
" />
<path d="M15.3792 2.4438
L15.5001 2.5042
" />
<path d="M15.5001 2.5042
L15.5606 2.6252
" />
<path d="M15.5606 2.6252
L15.5606 2.7461
" />
<path d="M15.5606 2.7461
L14.9559 2.8671
" />
<path d="M15.8026 3.4114
L16.7702 3.4114
" />
<path d="M16.8911 2.0204
L17.6168 2.0204
" />
<path d="M17.2540 3.2904
L17.2540 2.0204
" />
<path d="M18.2820 2.0204
L18.5239 2.0204
" />
<path d="M18.5239 2.0204
L18.6449 2.0809
" />
<path d="M18.6449 2.0809
L18.7658 2.2019
" />
<path d="M18.7658 2.2019
L18.8263 2.4438
" />
<path d="M18.8263 2.4438
L18.8263 2.8671
" />
<path d="M18.8263 2.8671
L18.7658 3.1090
" />
<path d="M18.7658 3.1090
L18.6449 3.2300
" />
<path d="M18.6449 3.2300
L18.5239 3.2904
" />
<path d="M18.5239 3.2904
L18.2820 3.2904
" />
<path d="M18.2820 3.2904
L18.1611 3.2300
" />
<path d="M18.1611 3.2300
L18.0401 3.1090
" />
<path d="M18.0401 3.1090
L17.9797 2.8671
" />
<path d="M17.9797 2.8671
L17.9797 2.4438
" />
<path d="M17.9797 2.4438
L18.0401 2.2019
" />
<path d="M18.0401 2.2019
L18.1611 2.0809
" />
<path d="M18.1611 2.0809
L18.2820 2.0204
" />
<path d="M19.0683 3.4114
L20.0359 3.4114
" />
<path d="M20.2778 3.2300
L20.4592 3.2904
" />
<path d="M20.4592 3.2904
L20.7616 3.2904
" />
<path d="M20.7616 3.2904
L20.8825 3.2300
" />
<path d="M20.8825 3.2300
L20.9430 3.1695
" />
<path d="M20.9430 3.1695
L21.0035 3.0485
" />
<path d="M21.0035 3.0485
L21.0035 2.9276
" />
<path d="M21.0035 2.9276
L20.9430 2.8066
" />
<path d="M20.9430 2.8066
L20.8825 2.7461
" />
<path d="M20.8825 2.7461
L20.7616 2.6857
" />
<path d="M20.7616 2.6857
L20.5197 2.6252
" />
<path d="M20.5197 2.6252
L20.3987 2.5647
" />
<path d="M20.3987 2.5647
L20.3382 2.5042
" />
<path d="M20.3382 2.5042
L20.2778 2.3833
" />
<path d="M20.2778 2.3833
L20.2778 2.2623
" />
<path d="M20.2778 2.2623
L20.3382 2.1414
" />
<path d="M20.3382 2.1414
L20.3987 2.0809
" />
<path d="M20.3987 2.0809
L20.5197 2.0204
" />
<path d="M20.5197 2.0204
L20.8220 2.0204
" />
<path d="M20.8220 2.0204
L21.0035 2.0809
" />
<path d="M21.7896 2.0204
L22.0315 2.0204
" />
<path d="M22.0315 2.0204
L22.1525 2.0809
" />
<path d="M22.1525 2.0809
L22.2734 2.2019
" />
<path d="M22.2734 2.2019
L22.3339 2.4438
" />
<path d="M22.3339 2.4438
L22.3339 2.8671
" />
<path d="M22.3339 2.8671
L22.2734 3.1090
" />
<path d="M22.2734 3.1090
L22.1525 3.2300
" />
<path d="M22.1525 3.2300
L22.0315 3.2904
" />
<path d="M22.0315 3.2904
L21.7896 3.2904
" />
<path d="M21.7896 3.2904
L21.6687 3.2300
" />
<path d="M21.6687 3.2300
L21.5477 3.1090
" />
<path d="M21.5477 3.1090
L21.4873 2.8671
" />
<path d="M21.4873 2.8671
L21.4873 2.4438
" />
<path d="M21.4873 2.4438
L21.5477 2.2019
" />
<path d="M21.5477 2.2019
L21.6687 2.0809
" />
<path d="M21.6687 2.0809
L21.7896 2.0204
" />
<path d="M22.6968 2.0204
L23.4225 2.0204
" />
<path d="M23.0597 3.2904
L23.0597 2.0204
" />
<path d="M23.5435 3.4114
L24.5111 3.4114
" />
<path d="M24.6320 2.0204
L25.3577 2.0204
" />
<path d="M24.9949 3.2904
L24.9949 2.0204
" />
<path d="M25.7810 3.2904
L25.7810 2.0204
" />
<path d="M25.7810 2.6252
L26.5067 2.6252
" />
<path d="M26.5067 3.2904
L26.5067 2.0204
" />
<path d="M26.9301 2.0204
L27.6558 2.0204
" />
<path d="M27.2930 3.2904
L27.2930 2.0204
" />
<path d="M28.0791 3.1695
L28.1396 3.2300
" />
<path d="M28.1396 3.2300
L28.0791 3.2904
" />
<path d="M28.0791 3.2904
L28.0187 3.2300
" />
<path d="M28.0187 3.2300
L28.0791 3.1695
" />
<path d="M28.0791 3.1695
L28.0791 3.2904
" />
<path d="M28.0791 2.5042
L28.1396 2.5647
" />
<path d="M28.1396 2.5647
L28.0791 2.6252
" />
<path d="M28.0791 2.6252
L28.0187 2.5647
" />
<path d="M28.0187 2.5647
L28.0791 2.5042
" />
<path d="M28.0791 2.5042
L28.0791 2.6252
" />
<path d="M28.5025 2.0204
L29.2282 2.0204
" />
<path d="M28.8654 3.2904
L28.8654 2.0204
" />
<path d="M29.8934 2.0204
L30.1353 2.0204
" />
<path d="M30.1353 2.0204
L30.2563 2.0809
" />
<path d="M30.2563 2.0809
L30.3772 2.2019
" />
<path d="M30.3772 2.2019
L30.4377 2.4438
" />
<path d="M30.4377 2.4438
L30.4377 2.8671
" />
<path d="M30.4377 2.8671
L30.3772 3.1090
" />
<path d="M30.3772 3.1090
L30.2563 3.2300
" />
<path d="M30.2563 3.2300
L30.1353 3.2904
" />
<path d="M30.1353 3.2904
L29.8934 3.2904
" />
<path d="M29.8934 3.2904
L29.7725 3.2300
" />
<path d="M29.7725 3.2300
L29.6515 3.1090
" />
<path d="M29.6515 3.1090
L29.5911 2.8671
" />
<path d="M29.5911 2.8671
L29.5911 2.4438
" />
<path d="M29.5911 2.4438
L29.6515 2.2019
" />
<path d="M29.6515 2.2019
L29.7725 2.0809
" />
<path d="M29.7725 2.0809
L29.8934 2.0204
" />
<path d="M30.9820 2.8066
L31.9497 2.8066
" />
<path d="M32.4940 2.1414
L32.5544 2.0809
" />
<path d="M32.5544 2.0809
L32.6754 2.0204
" />
<path d="M32.6754 2.0204
L32.9778 2.0204
" />
<path d="M32.9778 2.0204
L33.0987 2.0809
" />
<path d="M33.0987 2.0809
L33.1592 2.1414
" />
<path d="M33.1592 2.1414
L33.2197 2.2623
" />
<path d="M33.2197 2.2623
L33.2197 2.3833
" />
<path d="M33.2197 2.3833
L33.1592 2.5647
" />
<path d="M33.1592 2.5647
L32.4335 3.2904
" />
<path d="M32.4335 3.2904
L33.2197 3.2904
" />
<path d="M33.7035 2.1414
L33.7639 2.0809
" />
<path d="M33.7639 2.0809
L33.8849 2.0204
" />
<path d="M33.8849 2.0204
L34.1873 2.0204
" />
<path d="M34.1873 2.0204
L34.3082 2.0809
" />
<path d="M34.3082 2.0809
L34.3687 2.1414
" />
<path d="M34.3687 2.1414
L34.4292 2.2623
" />
<path d="M34.4292 2.2623
L34.4292 2.3833
" />
<path d="M34.4292 2.3833
L34.3687 2.5647
" />
<path d="M34.3687 2.5647
L33.6430 3.2904
" />
<path d="M33.6430 3.2904
L34.4292 3.2904
" />
<path d="M35.2153 2.0204
L35.3363 2.0204
" />
<path d="M35.3363 2.0204
L35.4572 2.0809
" />
<path d="M35.4572 2.0809
L35.5177 2.1414
" />
<path d="M35.5177 2.1414
L35.5782 2.2623
" />
<path d="M35.5782 2.2623
L35.6387 2.5042
" />
<path d="M35.6387 2.5042
L35.6387 2.8066
" />
<path d="M35.6387 2.8066
L35.5782 3.0485
" />
<path d="M35.5782 3.0485
L35.5177 3.1695
" />
<path d="M35.5177 3.1695
L35.4572 3.2300
" />
<path d="M35.4572 3.2300
L35.3363 3.2904
" />
<path d="M35.3363 3.2904
L35.2153 3.2904
" />
<path d="M35.2153 3.2904
L35.0944 3.2300
" />
<path d="M35.0944 3.2300
L35.0339 3.1695
" />
<path d="M35.0339 3.1695
L34.9734 3.0485
" />
<path d="M34.9734 3.0485
L34.9130 2.8066
" />
<path d="M34.9130 2.8066
L34.9130 2.5042
" />
<path d="M34.9130 2.5042
L34.9734 2.2623
" />
<path d="M34.9734 2.2623
L35.0339 2.1414
" />
<path d="M35.0339 2.1414
L35.0944 2.0809
" />
<path d="M35.0944 2.0809
L35.2153 2.0204
" />
<path d="M36.1829 2.8066
L37.1506 2.8066
" />
<path d="M38.3601 2.0204
L37.7553 2.0204
" />
<path d="M37.7553 2.0204
L37.6949 2.6252
" />
<path d="M37.6949 2.6252
L37.7553 2.5647
" />
<path d="M37.7553 2.5647
L37.8763 2.5042
" />
<path d="M37.8763 2.5042
L38.1787 2.5042
" />
<path d="M38.1787 2.5042
L38.2996 2.5647
" />
<path d="M38.2996 2.5647
L38.3601 2.6252
" />
<path d="M38.3601 2.6252
L38.4206 2.7461
" />
<path d="M38.4206 2.7461
L38.4206 3.0485
" />
<path d="M38.4206 3.0485
L38.3601 3.1695
" />
<path d="M38.3601 3.1695
L38.2996 3.2300
" />
<path d="M38.2996 3.2300
L38.1787 3.2904
" />
<path d="M38.1787 3.2904
L37.8763 3.2904
" />
<path d="M37.8763 3.2904
L37.7553 3.2300
" />
<path d="M37.7553 3.2300
L37.6949 3.1695
" />
<path d="M38.6625 3.4114
L39.6301 3.4114
" />
<path d="M39.9324 3.2904
L39.9324 2.0204
" />
<path d="M39.9324 2.0204
L40.4162 2.0204
" />
<path d="M40.4162 2.0204
L40.5372 2.0809
" />
<path d="M40.5372 2.0809
L40.5977 2.1414
" />
<path d="M40.5977 2.1414
L40.6581 2.2623
" />
<path d="M40.6581 2.2623
L40.6581 2.4438
" />
<path d="M40.6581 2.4438
L40.5977 2.5647
" />
<path d="M40.5977 2.5647
L40.5372 2.6252
" />
<path d="M40.5372 2.6252
L40.4162 2.6857
" />
<path d="M40.4162 2.6857
L39.9324 2.6857
" />
<path d="M41.0815 2.0204
L41.8677 2.0204
" />
<path d="M41.8677 2.0204
L41.4443 2.5042
" />
<path d="M41.4443 2.5042
L41.6258 2.5042
" />
<path d="M41.6258 2.5042
L41.7467 2.5647
" />
<path d="M41.7467 2.5647
L41.8072 2.6252
" />
<path d="M41.8072 2.6252
L41.8677 2.7461
" />
<path d="M41.8677 2.7461
L41.8677 3.0485
" />
<path d="M41.8677 3.0485
L41.8072 3.1695
" />
<path d="M41.8072 3.1695
L41.7467 3.2300
" />
<path d="M41.7467 3.2300
L41.6258 3.2904
" />
<path d="M41.6258 3.2904
L41.2629 3.2904
" />
<path d="M41.2629 3.2904
L41.1420 3.2300
" />
<path d="M41.1420 3.2300
L41.0815 3.1695
" />
<path d="M42.4119 3.1695
L42.4724 3.2300
" />
<path d="M42.4724 3.2300
L42.4119 3.2904
" />
<path d="M42.4119 3.2904
L42.3515 3.2300
" />
<path d="M42.3515 3.2300
L42.4119 3.1695
" />
<path d="M42.4119 3.1695
L42.4119 3.2904
" />
<path d="M43.5610 2.4438
L43.5610 3.2904
" />
<path d="M43.2586 1.9600
L42.9563 2.8671
" />
<path d="M42.9563 2.8671
L43.7424 2.8671
" />
<path d="M44.1053 3.2904
L44.7705 2.4438
" />
<path d="M44.1053 2.4438
L44.7705 3.2904
" />
<path d="M45.1334 2.0204
L45.9196 2.0204
" />
<path d="M45.9196 2.0204
L45.4962 2.5042
" />
<path d="M45.4962 2.5042
L45.6777 2.5042
" />
<path d="M45.6777 2.5042
L45.7986 2.5647
" />
<path d="M45.7986 2.5647
L45.8591 2.6252
" />
<path d="M45.8591 2.6252
L45.9196 2.7461
" />
<path d="M45.9196 2.7461
L45.9196 3.0485
" />
<path d="M45.9196 3.0485
L45.8591 3.1695
" />
<path d="M45.8591 3.1695
L45.7986 3.2300
" />
<path d="M45.7986 3.2300
L45.6777 3.2904
" />
<path d="M45.6777 3.2904
L45.3148 3.2904
" />
<path d="M45.3148 3.2904
L45.1939 3.2300
" />
<path d="M45.1939 3.2300
L45.1334 3.1695
" />
<path d="M46.4638 3.1695
L46.5243 3.2300
" />
<path d="M46.5243 3.2300
L46.4638 3.2904
" />
<path d="M46.4638 3.2904
L46.4034 3.2300
" />
<path d="M46.4034 3.2300
L46.4638 3.1695
" />
<path d="M46.4638 3.1695
L46.4638 3.2904
" />
<path d="M47.2501 2.5647
L47.1291 2.5042
" />
<path d="M47.1291 2.5042
L47.0686 2.4438
" />
<path d="M47.0686 2.4438
L47.0082 2.3228
" />
<path d="M47.0082 2.3228
L47.0082 2.2623
" />
<path d="M47.0082 2.2623
L47.0686 2.1414
" />
<path d="M47.0686 2.1414
L47.1291 2.0809
" />
<path d="M47.1291 2.0809
L47.2501 2.0204
" />
<path d="M47.2501 2.0204
L47.4920 2.0204
" />
<path d="M47.4920 2.0204
L47.6129 2.0809
" />
<path d="M47.6129 2.0809
L47.6734 2.1414
" />
<path d="M47.6734 2.1414
L47.7339 2.2623
" />
<path d="M47.7339 2.2623
L47.7339 2.3228
" />
<path d="M47.7339 2.3228
L47.6734 2.4438
" />
<path d="M47.6734 2.4438
L47.6129 2.5042
" />
<path d="M47.6129 2.5042
L47.4920 2.5647
" />
<path d="M47.4920 2.5647
L47.2501 2.5647
" />
<path d="M47.2501 2.5647
L47.1291 2.6252
" />
<path d="M47.1291 2.6252
L47.0686 2.6857
" />
<path d="M47.0686 2.6857
L47.0082 2.8066
" />
<path d="M47.0082 2.8066
L47.0082 3.0485
" />
<path d="M47.0082 3.0485
L47.0686 3.1695
" />
<path d="M47.0686 3.1695
L47.1291 3.2300
" />
<path d="M47.1291 3.2300
L47.2501 3.2904
" />
<path d="M47.2501 3.2904
L47.4920 3.2904
" />
<path d="M47.4920 3.2904
L47.6129 3.2300
" />
<path d="M47.6129 3.2300
L47.6734 3.1695
" />
<path d="M47.6734 3.1695
L47.7339 3.0485
" />
<path d="M47.7339 3.0485
L47.7339 2.8066
" />
<path d="M47.7339 2.8066
L47.6734 2.6857
" />
<path d="M47.6734 2.6857
L47.6129 2.6252
" />
<path d="M47.6129 2.6252
L47.4920 2.5647
" />
<path d="M48.2781 3.2904
L48.2781 2.4438
" />
<path d="M48.2781 2.5647
L48.3386 2.5042
" />
<path d="M48.3386 2.5042
L48.4596 2.4438
" />
<path d="M48.4596 2.4438
L48.6410 2.4438
" />
<path d="M48.6410 2.4438
L48.7619 2.5042
" />
<path d="M48.7619 2.5042
L48.8224 2.6252
" />
<path d="M48.8224 2.6252
L48.8224 3.2904
" />
<path d="M48.8224 2.6252
L48.8829 2.5042
" />
<path d="M48.8829 2.5042
L49.0038 2.4438
" />
<path d="M49.0038 2.4438
L49.1853 2.4438
" />
<path d="M49.1853 2.4438
L49.3062 2.5042
" />
<path d="M49.3062 2.5042
L49.3667 2.6252
" />
<path d="M49.3667 2.6252
L49.3667 3.2904
" />
<path d="M49.9714 3.2904
L49.9714 2.4438
" />
<path d="M49.9714 2.5647
L50.0319 2.5042
" />
<path d="M50.0319 2.5042
L50.1529 2.4438
" />
<path d="M50.1529 2.4438
L50.3343 2.4438
" />
<path d="M50.3343 2.4438
L50.4552 2.5042
" />
<path d="M50.4552 2.5042
L50.5157 2.6252
" />
<path d="M50.5157 2.6252
L50.5157 3.2904
" />
<path d="M50.5157 2.6252
L50.5762 2.5042
" />
<path d="M50.5762 2.5042
L50.6971 2.4438
" />
<path d="M50.6971 2.4438
L50.8786 2.4438
" />
<path d="M50.8786 2.4438
L50.9995 2.5042
" />
<path d="M50.9995 2.5042
L51.0600 2.6252
" />
<path d="M51.0600 2.6252
L51.0600 3.2904
" />
<path d="M51.3624 3.4114
L52.3300 3.4114
" />
<path d="M52.5719 3.2300
L52.7533 3.2904
" />
<path d="M52.7533 3.2904
L53.0557 3.2904
" />
<path d="M53.0557 3.2904
L53.1766 3.2300
" />
<path d="M53.1766 3.2300
L53.2371 3.1695
" />
<path d="M53.2371 3.1695
L53.2976 3.0485
" />
<path d="M53.2976 3.0485
L53.2976 2.9276
" />
<path d="M53.2976 2.9276
L53.2371 2.8066
" />
<path d="M53.2371 2.8066
L53.1766 2.7461
" />
<path d="M53.1766 2.7461
L53.0557 2.6857
" />
<path d="M53.0557 2.6857
L52.8138 2.6252
" />
<path d="M52.8138 2.6252
L52.6928 2.5647
" />
<path d="M52.6928 2.5647
L52.6323 2.5042
" />
<path d="M52.6323 2.5042
L52.5719 2.3833
" />
<path d="M52.5719 2.3833
L52.5719 2.2623
" />
<path d="M52.5719 2.2623
L52.6323 2.1414
" />
<path d="M52.6323 2.1414
L52.6928 2.0809
" />
<path d="M52.6928 2.0809
L52.8138 2.0204
" />
<path d="M52.8138 2.0204
L53.1161 2.0204
" />
<path d="M53.1161 2.0204
L53.2976 2.0809
" />
<path d="M53.6604 2.4438
L54.1442 2.4438
" />
<path d="M53.8418 2.0204
L53.8418 3.1090
" />
<path d="M53.8418 3.1090
L53.9023 3.2300
" />
<path d="M53.9023 3.2300
L54.0233 3.2904
" />
<path d="M54.0233 3.2904
L54.1442 3.2904
" />
<path d="M55.1118 3.2904
L55.1118 2.6252
" />
<path d="M55.1118 2.6252
L55.0513 2.5042
" />
<path d="M55.0513 2.5042
L54.9304 2.4438
" />
<path d="M54.9304 2.4438
L54.6885 2.4438
" />
<path d="M54.6885 2.4438
L54.5675 2.5042
" />
<path d="M55.1118 3.2300
L54.9909 3.2904
" />
<path d="M54.9909 3.2904
L54.6885 3.2904
" />
<path d="M54.6885 3.2904
L54.5675 3.2300
" />
<path d="M54.5675 3.2300
L54.5071 3.1090
" />
<path d="M54.5071 3.1090
L54.5071 2.9880
" />
<path d="M54.5071 2.9880
L54.5675 2.8671
" />
<path d="M54.5675 2.8671
L54.6885 2.8066
" />
<path d="M54.6885 2.8066
L54.9909 2.8066
" />
<path d="M54.9909 2.8066
L55.1118 2.7461
" />
<path d="M56.2608 2.4438
L56.2608 3.4719
" />
<path d="M56.2608 3.4719
L56.2003 3.5928
" />
<path d="M56.2003 3.5928
L56.1399 3.6533
" />
<path d="M56.1399 3.6533
L56.0189 3.7138
" />
<path d="M56.0189 3.7138
L55.8375 3.7138
" />
<path d="M55.8375 3.7138
L55.7165 3.6533
" />
<path d="M56.2608 3.2300
L56.1399 3.2904
" />
<path d="M56.1399 3.2904
L55.8980 3.2904
" />
<path d="M55.8980 3.2904
L55.7770 3.2300
" />
<path d="M55.7770 3.2300
L55.7165 3.1695
" />
<path d="M55.7165 3.1695
L55.6561 3.0485
" />
<path d="M55.6561 3.0485
L55.6561 2.6857
" />
<path d="M55.6561 2.6857
L55.7165 2.5647
" />
<path d="M55.7165 2.5647
L55.7770 2.5042
" />
<path d="M55.7770 2.5042
L55.8980 2.4438
" />
<path d="M55.8980 2.4438
L56.1399 2.4438
" />
<path d="M56.1399 2.4438
L56.2608 2.5042
" />
<path d="M57.4098 2.4438
L57.4098 3.4719
" />
<path d="M57.4098 3.4719
L57.3493 3.5928
" />
<path d="M57.3493 3.5928
L57.2889 3.6533
" />
<path d="M57.2889 3.6533
L57.1679 3.7138
" />
<path d="M57.1679 3.7138
L56.9865 3.7138
" />
<path d="M56.9865 3.7138
L56.8655 3.6533
" />
<path d="M57.4098 3.2300
L57.2889 3.2904
" />
<path d="M57.2889 3.2904
L57.0470 3.2904
" />
<path d="M57.0470 3.2904
L56.9260 3.2300
" />
<path d="M56.9260 3.2300
L56.8655 3.1695
" />
<path d="M56.8655 3.1695
L56.8051 3.0485
" />
<path d="M56.8051 3.0485
L56.8051 2.6857
" />
<path d="M56.8051 2.6857
L56.8655 2.5647
" />
<path d="M56.8655 2.5647
L56.9260 2.5042
" />
<path d="M56.9260 2.5042
L57.0470 2.4438
" />
<path d="M57.0470 2.4438
L57.2889 2.4438
" />
<path d="M57.2889 2.4438
L57.4098 2.5042
" />
<path d="M58.4983 3.2300
L58.3774 3.2904
" />
<path d="M58.3774 3.2904
L58.1355 3.2904
" />
<path d="M58.1355 3.2904
L58.0145 3.2300
" />
<path d="M58.0145 3.2300
L57.9541 3.1090
" />
<path d="M57.9541 3.1090
L57.9541 2.6252
" />
<path d="M57.9541 2.6252
L58.0145 2.5042
" />
<path d="M58.0145 2.5042
L58.1355 2.4438
" />
<path d="M58.1355 2.4438
L58.3774 2.4438
" />
<path d="M58.3774 2.4438
L58.4983 2.5042
" />
<path d="M58.4983 2.5042
L58.5588 2.6252
" />
<path d="M58.5588 2.6252
L58.5588 2.7461
" />
<path d="M58.5588 2.7461
L57.9541 2.8671
" />
<path d="M59.1031 3.2904
L59.1031 2.4438
" />
<path d="M59.1031 2.6857
L59.1636 2.5647
" />
<path d="M59.1636 2.5647
L59.2241 2.5042
" />
<path d="M59.2241 2.5042
L59.3450 2.4438
" />
<path d="M59.3450 2.4438
L59.4660 2.4438
" />
<path d="M60.1312 2.0204
L60.3731 2.0204
" />
<path d="M60.3731 2.0204
L60.4941 2.0809
" />
<path d="M60.4941 2.0809
L60.6150 2.2019
" />
<path d="M60.6150 2.2019
L60.6755 2.4438
" />
<path d="M60.6755 2.4438
L60.6755 2.8671
" />
<path d="M60.6755 2.8671
L60.6150 3.1090
" />
<path d="M60.6150 3.1090
L60.4941 3.2300
" />
<path d="M60.4941 3.2300
L60.3731 3.2904
" />
<path d="M60.3731 3.2904
L60.1312 3.2904
" />
<path d="M60.1312 3.2904
L60.0103 3.2300
" />
<path d="M60.0103 3.2300
L59.8893 3.1090
" />
<path d="M59.8893 3.1090
L59.8289 2.8671
" />
<path d="M59.8289 2.8671
L59.8289 2.4438
" />
<path d="M59.8289 2.4438
L59.8893 2.2019
" />
<path d="M59.8893 2.2019
L60.0103 2.0809
" />
<path d="M60.0103 2.0809
L60.1312 2.0204
" />
<path d="M61.7641 3.2904
L61.7641 2.0204
" />
<path d="M61.7641 3.2300
L61.6432 3.2904
" />
<path d="M61.6432 3.2904
L61.4013 3.2904
" />
<path d="M61.4013 3.2904
L61.2803 3.2300
" />
<path d="M61.2803 3.2300
L61.2198 3.1695
" />
<path d="M61.2198 3.1695
L61.1594 3.0485
" />
<path d="M61.1594 3.0485
L61.1594 2.6857
" />
<path d="M61.1594 2.6857
L61.2198 2.5647
" />
<path d="M61.2198 2.5647
L61.2803 2.5042
" />
<path d="M61.2803 2.5042
L61.4013 2.4438
" />
<path d="M61.4013 2.4438
L61.6432 2.4438
" />
<path d="M61.6432 2.4438
L61.7641 2.5042
" />
<path d="M62.9131 3.2904
L62.9131 2.0204
" />
<path d="M62.9131 3.2300
L62.7922 3.2904
" />
<path d="M62.7922 3.2904
L62.5503 3.2904
" />
<path d="M62.5503 3.2904
L62.4293 3.2300
" />
<path d="M62.4293 3.2300
L62.3688 3.1695
" />
<path d="M62.3688 3.1695
L62.3084 3.0485
" />
<path d="M62.3084 3.0485
L62.3084 2.6857
" />
<path d="M62.3084 2.6857
L62.3688 2.5647
" />
<path d="M62.3688 2.5647
L62.4293 2.5042
" />
<path d="M62.4293 2.5042
L62.5503 2.4438
" />
<path d="M62.5503 2.4438
L62.7922 2.4438
" />
<path d="M62.7922 2.4438
L62.9131 2.5042
" />
<path d="M63.2155 3.4114
L64.1831 3.4114
" />
<path d="M65.0902 3.2904
L64.4854 3.2904
" />
<path d="M64.4854 3.2904
L64.4854 2.0204
" />
<path d="M65.9973 3.2300
L65.8764 3.2904
" />
<path d="M65.8764 3.2904
L65.6345 3.2904
" />
<path d="M65.6345 3.2904
L65.5135 3.2300
" />
<path d="M65.5135 3.2300
L65.4531 3.1090
" />
<path d="M65.4531 3.1090
L65.4531 2.6252
" />
<path d="M65.4531 2.6252
L65.5135 2.5042
" />
<path d="M65.5135 2.5042
L65.6345 2.4438
" />
<path d="M65.6345 2.4438
L65.8764 2.4438
" />
<path d="M65.8764 2.4438
L65.9973 2.5042
" />
<path d="M65.9973 2.5042
L66.0578 2.6252
" />
<path d="M66.0578 2.6252
L66.0578 2.7461
" />
<path d="M66.0578 2.7461
L65.4531 2.8671
" />
<path d="M67.1464 3.2904
L67.1464 2.6252
" />
<path d="M67.1464 2.6252
L67.0859 2.5042
" />
<path d="M67.0859 2.5042
L66.9650 2.4438
" />
<path d="M66.9650 2.4438
L66.7231 2.4438
" />
<path d="M66.7231 2.4438
L66.6021 2.5042
" />
<path d="M67.1464 3.2300
L67.0255 3.2904
" />
<path d="M67.0255 3.2904
L66.7231 3.2904
" />
<path d="M66.7231 3.2904
L66.6021 3.2300
" />
<path d="M66.6021 3.2300
L66.5417 3.1090
" />
<path d="M66.5417 3.1090
L66.5417 2.9880
" />
<path d="M66.5417 2.9880
L66.6021 2.8671
" />
<path d="M66.6021 2.8671
L66.7231 2.8066
" />
<path d="M66.7231 2.8066
L67.0255 2.8066
" />
<path d="M67.0255 2.8066
L67.1464 2.7461
" />
<path d="M68.2954 3.2904
L68.2954 2.0204
" />
<path d="M68.2954 3.2300
L68.1745 3.2904
" />
<path d="M68.1745 3.2904
L67.9326 3.2904
" />
<path d="M67.9326 3.2904
L67.8116 3.2300
" />
<path d="M67.8116 3.2300
L67.7511 3.1695
" />
<path d="M67.7511 3.1695
L67.6907 3.0485
" />
<path d="M67.6907 3.0485
L67.6907 2.6857
" />
<path d="M67.6907 2.6857
L67.7511 2.5647
" />
<path d="M67.7511 2.5647
L67.8116 2.5042
" />
<path d="M67.8116 2.5042
L67.9326 2.4438
" />
<path d="M67.9326 2.4438
L68.1745 2.4438
" />
<path d="M68.1745 2.4438
L68.2954 2.5042
" />
<path d="M68.7792 2.0204
L69.6258 2.0204
" />
<path d="M69.6258 2.0204
L69.0816 3.2904
" />
<path d="M70.1096 3.1695
L70.1701 3.2300
" />
<path d="M70.1701 3.2300
L70.1096 3.2904
" />
<path d="M70.1096 3.2904
L70.0492 3.2300
" />
<path d="M70.0492 3.2300
L70.1096 3.1695
" />
<path d="M70.1096 3.1695
L70.1096 3.2904
" />
<path d="M71.3797 3.2904
L70.6540 3.2904
" />
<path d="M71.0168 3.2904
L71.0168 2.0204
" />
<path d="M71.0168 2.0204
L70.8959 2.2019
" />
<path d="M70.8959 2.2019
L70.7749 2.3228
" />
<path d="M70.7749 2.3228
L70.6540 2.3833
" />
<path d="M71.8030 2.0204
L72.5892 2.0204
" />
<path d="M72.5892 2.0204
L72.1658 2.5042
" />
<path d="M72.1658 2.5042
L72.3473 2.5042
" />
<path d="M72.3473 2.5042
L72.4682 2.5647
" />
<path d="M72.4682 2.5647
L72.5287 2.6252
" />
<path d="M72.5287 2.6252
L72.5892 2.7461
" />
<path d="M72.5892 2.7461
L72.5892 3.0485
" />
<path d="M72.5892 3.0485
L72.5287 3.1695
" />
<path d="M72.5287 3.1695
L72.4682 3.2300
" />
<path d="M72.4682 3.2300
L72.3473 3.2904
" />
<path d="M72.3473 3.2904
L71.9844 3.2904
" />
<path d="M71.9844 3.2904
L71.8635 3.2300
" />
<path d="M71.8635 3.2300
L71.8030 3.1695
" />
<path d="M73.1334 3.2904
L73.1334 2.4438
" />
<path d="M73.1334 2.5647
L73.1939 2.5042
" />
<path d="M73.1939 2.5042
L73.3149 2.4438
" />
<path d="M73.3149 2.4438
L73.4963 2.4438
" />
<path d="M73.4963 2.4438
L73.6172 2.5042
" />
<path d="M73.6172 2.5042
L73.6777 2.6252
" />
<path d="M73.6777 2.6252
L73.6777 3.2904
" />
<path d="M73.6777 2.6252
L73.7382 2.5042
" />
<path d="M73.7382 2.5042
L73.8591 2.4438
" />
<path d="M73.8591 2.4438
L74.0406 2.4438
" />
<path d="M74.0406 2.4438
L74.1615 2.5042
" />
<path d="M74.1615 2.5042
L74.2220 2.6252
" />
<path d="M74.2220 2.6252
L74.2220 3.2904
" />
<path d="M74.8267 3.2904
L74.8267 2.4438
" />
<path d="M74.8267 2.5647
L74.8872 2.5042
" />
<path d="M74.8872 2.5042
L75.0082 2.4438
" />
<path d="M75.0082 2.4438
L75.1896 2.4438
" />
<path d="M75.1896 2.4438
L75.3105 2.5042
" />
<path d="M75.3105 2.5042
L75.3710 2.6252
" />
<path d="M75.3710 2.6252
L75.3710 3.2904
" />
<path d="M75.3710 2.6252
L75.4315 2.5042
" />
<path d="M75.4315 2.5042
L75.5524 2.4438
" />
<path d="M75.5524 2.4438
L75.7339 2.4438
" />
<path d="M75.7339 2.4438
L75.8548 2.5042
" />
<path d="M75.8548 2.5042
L75.9153 2.6252
" />
<path d="M75.9153 2.6252
L75.9153 3.2904
" />
<path d="M76.2177 3.4114
L77.1853 3.4114
" />
<path d="M77.3062 2.0204
L78.0319 2.0204
" />
<path d="M77.6691 3.2904
L77.6691 2.0204
" />
<path d="M78.9995 3.2904
L78.9995 2.6252
" />
<path d="M78.9995 2.6252
L78.9390 2.5042
" />
<path d="M78.9390 2.5042
L78.8181 2.4438
" />
<path d="M78.8181 2.4438
L78.5762 2.4438
" />
<path d="M78.5762 2.4438
L78.4552 2.5042
" />
<path d="M78.9995 3.2300
L78.8786 3.2904
" />
<path d="M78.8786 3.2904
L78.5762 3.2904
" />
<path d="M78.5762 3.2904
L78.4552 3.2300
" />
<path d="M78.4552 3.2300
L78.3948 3.1090
" />
<path d="M78.3948 3.1090
L78.3948 2.9880
" />
<path d="M78.3948 2.9880
L78.4552 2.8671
" />
<path d="M78.4552 2.8671
L78.5762 2.8066
" />
<path d="M78.5762 2.8066
L78.8786 2.8066
" />
<path d="M78.8786 2.8066
L78.9995 2.7461
" />
<path d="M79.6042 3.2904
L79.6042 2.0204
" />
<path d="M79.6042 2.5042
L79.7252 2.4438
" />
<path d="M79.7252 2.4438
L79.9671 2.4438
" />
<path d="M79.9671 2.4438
L80.0880 2.5042
" />
<path d="M80.0880 2.5042
L80.1485 2.5647
" />
<path d="M80.1485 2.5647
L80.2090 2.6857
" />
<path d="M80.2090 2.6857
L80.2090 3.0485
" />
<path d="M80.2090 3.0485
L80.1485 3.1695
" />
<path d="M80.1485 3.1695
L80.0880 3.2300
" />
<path d="M80.0880 3.2300
L79.9671 3.2904
" />
<path d="M79.9671 3.2904
L79.7252 3.2904
" />
<path d="M79.7252 3.2904
L79.6042 3.2300
" />
<path d="M80.7532 3.2904
L80.7532 2.0204
" />
<path d="M80.7532 2.0204
L81.0556 2.0204
" />
<path d="M81.0556 2.0204
L81.2370 2.0809
" />
<path d="M81.2370 2.0809
L81.3580 2.2019
" />
<path d="M81.3580 2.2019
L81.4185 2.3228
" />
<path d="M81.4185 2.3228
L81.4789 2.5647
" />
<path d="M81.4789 2.5647
L81.4789 2.7461
" />
<path d="M81.4789 2.7461
L81.4185 2.9880
" />
<path d="M81.4185 2.9880
L81.3580 3.1090
" />
<path d="M81.3580 3.1090
L81.2370 3.2300
" />
<path d="M81.2370 3.2300
L81.0556 3.2904
" />
<path d="M81.0556 3.2904
L80.7532 3.2904
" />
<path d="M82.2047 3.2904
L82.0837 3.2300
" />
<path d="M82.0837 3.2300
L82.0232 3.1695
" />
<path d="M82.0232 3.1695
L81.9628 3.0485
" />
<path d="M81.9628 3.0485
L81.9628 2.6857
" />
<path d="M81.9628 2.6857
L82.0232 2.5647
" />
<path d="M82.0232 2.5647
L82.0837 2.5042
" />
<path d="M82.0837 2.5042
L82.2047 2.4438
" />
<path d="M82.2047 2.4438
L82.3861 2.4438
" />
<path d="M82.3861 2.4438
L82.5070 2.5042
" />
<path d="M82.5070 2.5042
L82.5675 2.5647
" />
<path d="M82.5675 2.5647
L82.6280 2.6857
" />
<path d="M82.6280 2.6857
L82.6280 3.0485
" />
<path d="M82.6280 3.0485
L82.5675 3.1695
" />
<path d="M82.5675 3.1695
L82.5070 3.2300
" />
<path d="M82.5070 3.2300
L82.3861 3.2904
" />
<path d="M82.3861 3.2904
L82.2047 3.2904
" />
<path d="M83.0513 2.4438
L83.2932 3.2904
" />
<path d="M83.2932 3.2904
L83.5351 2.6857
" />
<path d="M83.5351 2.6857
L83.7770 3.2904
" />
<path d="M83.7770 3.2904
L84.0189 2.4438
" />
<path d="M84.5027 2.4438
L84.5027 3.2904
" />
<path d="M84.5027 2.5647
L84.5632 2.5042
" />
<path d="M84.5632 2.5042
L84.6842 2.4438
" />
<path d="M84.6842 2.4438
L84.8656 2.4438
" />
<path d="M84.8656 2.4438
L84.9865 2.5042
" />
<path d="M84.9865 2.5042
L85.0470 2.6252
" />
<path d="M85.0470 2.6252
L85.0470 3.2904
" />
</g><text x="46.6148" y="6.5212"
textLength="55.4371" font-size="1.6933" lengthAdjust="spacingAndGlyphs"
text-anchor="middle" opacity="0">http://www.zen22142.zen.co.uk/Circuits/Power/l200.pdf</text>
<g class="stroked-text"><desc>http://www.zen22142.zen.co.uk/Circuits/Power/l200.pdf</desc>
<path d="M19.3098 6.4654
L19.3098 5.1954
" />
<path d="M19.8541 6.4654
L19.8541 5.8002
" />
<path d="M19.8541 5.8002
L19.7936 5.6792
" />
<path d="M19.7936 5.6792
L19.6727 5.6188
" />
<path d="M19.6727 5.6188
L19.4913 5.6188
" />
<path d="M19.4913 5.6188
L19.3703 5.6792
" />
<path d="M19.3703 5.6792
L19.3098 5.7397
" />
<path d="M20.2774 5.6188
L20.7612 5.6188
" />
<path d="M20.4588 5.1954
L20.4588 6.2840
" />
<path d="M20.4588 6.2840
L20.5193 6.4050
" />
<path d="M20.5193 6.4050
L20.6403 6.4654
" />
<path d="M20.6403 6.4654
L20.7612 6.4654
" />
<path d="M21.0031 5.6188
L21.4869 5.6188
" />
<path d="M21.1845 5.1954
L21.1845 6.2840
" />
<path d="M21.1845 6.2840
L21.2450 6.4050
" />
<path d="M21.2450 6.4050
L21.3660 6.4654
" />
<path d="M21.3660 6.4654
L21.4869 6.4654
" />
<path d="M21.9102 5.6188
L21.9102 6.8888
" />
<path d="M21.9102 5.6792
L22.0312 5.6188
" />
<path d="M22.0312 5.6188
L22.2731 5.6188
" />
<path d="M22.2731 5.6188
L22.3940 5.6792
" />
<path d="M22.3940 5.6792
L22.4545 5.7397
" />
<path d="M22.4545 5.7397
L22.5150 5.8607
" />
<path d="M22.5150 5.8607
L22.5150 6.2235
" />
<path d="M22.5150 6.2235
L22.4545 6.3445
" />
<path d="M22.4545 6.3445
L22.3940 6.4050
" />
<path d="M22.3940 6.4050
L22.2731 6.4654
" />
<path d="M22.2731 6.4654
L22.0312 6.4654
" />
<path d="M22.0312 6.4654
L21.9102 6.4050
" />
<path d="M23.0592 6.3445
L23.1197 6.4050
" />
<path d="M23.1197 6.4050
L23.0592 6.4654
" />
<path d="M23.0592 6.4654
L22.9988 6.4050
" />
<path d="M22.9988 6.4050
L23.0592 6.3445
" />
<path d="M23.0592 6.3445
L23.0592 6.4654
" />
<path d="M23.0592 5.6792
L23.1197 5.7397
" />
<path d="M23.1197 5.7397
L23.0592 5.8002
" />
<path d="M23.0592 5.8002
L22.9988 5.7397
" />
<path d="M22.9988 5.7397
L23.0592 5.6792
" />
<path d="M23.0592 5.6792
L23.0592 5.8002
" />
<path d="M24.5712 5.1350
L23.4826 6.7678
" />
<path d="M25.9017 5.1350
L24.8131 6.7678
" />
<path d="M26.2041 5.6188
L26.4460 6.4654
" />
<path d="M26.4460 6.4654
L26.6879 5.8607
" />
<path d="M26.6879 5.8607
L26.9298 6.4654
" />
<path d="M26.9298 6.4654
L27.1717 5.6188
" />
<path d="M27.5346 5.6188
L27.7765 6.4654
" />
<path d="M27.7765 6.4654
L28.0184 5.8607
" />
<path d="M28.0184 5.8607
L28.2603 6.4654
" />
<path d="M28.2603 6.4654
L28.5022 5.6188
" />
<path d="M28.8651 5.6188
L29.1070 6.4654
" />
<path d="M29.1070 6.4654
L29.3489 5.8607
" />
<path d="M29.3489 5.8607
L29.5908 6.4654
" />
<path d="M29.5908 6.4654
L29.8327 5.6188
" />
<path d="M30.3165 6.3445
L30.3770 6.4050
" />
<path d="M30.3770 6.4050
L30.3165 6.4654
" />
<path d="M30.3165 6.4654
L30.2561 6.4050
" />
<path d="M30.2561 6.4050
L30.3165 6.3445
" />
<path d="M30.3165 6.3445
L30.3165 6.4654
" />
<path d="M30.8004 5.6188
L31.4656 5.6188
" />
<path d="M31.4656 5.6188
L30.8004 6.4654
" />
<path d="M30.8004 6.4654
L31.4656 6.4654
" />
<path d="M32.4332 6.4050
L32.3123 6.4654
" />
<path d="M32.3123 6.4654
L32.0704 6.4654
" />
<path d="M32.0704 6.4654
L31.9494 6.4050
" />
<path d="M31.9494 6.4050
L31.8890 6.2840
" />
<path d="M31.8890 6.2840
L31.8890 5.8002
" />
<path d="M31.8890 5.8002
L31.9494 5.6792
" />
<path d="M31.9494 5.6792
L32.0704 5.6188
" />
<path d="M32.0704 5.6188
L32.3123 5.6188
" />
<path d="M32.3123 5.6188
L32.4332 5.6792
" />
<path d="M32.4332 5.6792
L32.4937 5.8002
" />
<path d="M32.4937 5.8002
L32.4937 5.9211
" />
<path d="M32.4937 5.9211
L31.8890 6.0421
" />
<path d="M33.0380 5.6188
L33.0380 6.4654
" />
<path d="M33.0380 5.7397
L33.0985 5.6792
" />
<path d="M33.0985 5.6792
L33.2195 5.6188
" />
<path d="M33.2195 5.6188
L33.4009 5.6188
" />
<path d="M33.4009 5.6188
L33.5218 5.6792
" />
<path d="M33.5218 5.6792
L33.5823 5.8002
" />
<path d="M33.5823 5.8002
L33.5823 6.4654
" />
<path d="M34.1266 5.3164
L34.1870 5.2559
" />
<path d="M34.1870 5.2559
L34.3080 5.1954
" />
<path d="M34.3080 5.1954
L34.6104 5.1954
" />
<path d="M34.6104 5.1954
L34.7313 5.2559
" />
<path d="M34.7313 5.2559
L34.7918 5.3164
" />
<path d="M34.7918 5.3164
L34.8523 5.4373
" />
<path d="M34.8523 5.4373
L34.8523 5.5583
" />
<path d="M34.8523 5.5583
L34.7918 5.7397
" />
<path d="M34.7918 5.7397
L34.0661 6.4654
" />
<path d="M34.0661 6.4654
L34.8523 6.4654
" />
<path d="M35.3361 5.3164
L35.3965 5.2559
" />
<path d="M35.3965 5.2559
L35.5175 5.1954
" />
<path d="M35.5175 5.1954
L35.8199 5.1954
" />
<path d="M35.8199 5.1954
L35.9408 5.2559
" />
<path d="M35.9408 5.2559
L36.0013 5.3164
" />
<path d="M36.0013 5.3164
L36.0618 5.4373
" />
<path d="M36.0618 5.4373
L36.0618 5.5583
" />
<path d="M36.0618 5.5583
L36.0013 5.7397
" />
<path d="M36.0013 5.7397
L35.2756 6.4654
" />
<path d="M35.2756 6.4654
L36.0618 6.4654
" />
<path d="M37.2713 6.4654
L36.5456 6.4654
" />
<path d="M36.9084 6.4654
L36.9084 5.1954
" />
<path d="M36.9084 5.1954
L36.7875 5.3769
" />
<path d="M36.7875 5.3769
L36.6665 5.4978
" />
<path d="M36.6665 5.4978
L36.5456 5.5583
" />
<path d="M38.3598 5.6188
L38.3598 6.4654
" />
<path d="M38.0574 5.1350
L37.7551 6.0421
" />
<path d="M37.7551 6.0421
L38.5412 6.0421
" />
<path d="M38.9646 5.3164
L39.0250 5.2559
" />
<path d="M39.0250 5.2559
L39.1460 5.1954
" />
<path d="M39.1460 5.1954
L39.4484 5.1954
" />
<path d="M39.4484 5.1954
L39.5693 5.2559
" />
<path d="M39.5693 5.2559
L39.6298 5.3164
" />
<path d="M39.6298 5.3164
L39.6903 5.4373
" />
<path d="M39.6903 5.4373
L39.6903 5.5583
" />
<path d="M39.6903 5.5583
L39.6298 5.7397
" />
<path d="M39.6298 5.7397
L38.9041 6.4654
" />
<path d="M38.9041 6.4654
L39.6903 6.4654
" />
<path d="M40.2345 6.3445
L40.2950 6.4050
" />
<path d="M40.2950 6.4050
L40.2345 6.4654
" />
<path d="M40.2345 6.4654
L40.1741 6.4050
" />
<path d="M40.1741 6.4050
L40.2345 6.3445
" />
<path d="M40.2345 6.3445
L40.2345 6.4654
" />
<path d="M40.7184 5.6188
L41.3836 5.6188
" />
<path d="M41.3836 5.6188
L40.7184 6.4654
" />
<path d="M40.7184 6.4654
L41.3836 6.4654
" />
<path d="M42.3512 6.4050
L42.2303 6.4654
" />
<path d="M42.2303 6.4654
L41.9884 6.4654
" />
<path d="M41.9884 6.4654
L41.8674 6.4050
" />
<path d="M41.8674 6.4050
L41.8070 6.2840
" />
<path d="M41.8070 6.2840
L41.8070 5.8002
" />
<path d="M41.8070 5.8002
L41.8674 5.6792
" />
<path d="M41.8674 5.6792
L41.9884 5.6188
" />
<path d="M41.9884 5.6188
L42.2303 5.6188
" />
<path d="M42.2303 5.6188
L42.3512 5.6792
" />
<path d="M42.3512 5.6792
L42.4117 5.8002
" />
<path d="M42.4117 5.8002
L42.4117 5.9211
" />
<path d="M42.4117 5.9211
L41.8070 6.0421
" />
<path d="M42.9560 5.6188
L42.9560 6.4654
" />
<path d="M42.9560 5.7397
L43.0165 5.6792
" />
<path d="M43.0165 5.6792
L43.1375 5.6188
" />
<path d="M43.1375 5.6188
L43.3189 5.6188
" />
<path d="M43.3189 5.6188
L43.4398 5.6792
" />
<path d="M43.4398 5.6792
L43.5003 5.8002
" />
<path d="M43.5003 5.8002
L43.5003 6.4654
" />
<path d="M44.1050 6.3445
L44.1655 6.4050
" />
<path d="M44.1655 6.4050
L44.1050 6.4654
" />
<path d="M44.1050 6.4654
L44.0446 6.4050
" />
<path d="M44.0446 6.4050
L44.1050 6.3445
" />
<path d="M44.1050 6.3445
L44.1050 6.4654
" />
<path d="M45.2541 6.4050
L45.1332 6.4654
" />
<path d="M45.1332 6.4654
L44.8913 6.4654
" />
<path d="M44.8913 6.4654
L44.7703 6.4050
" />
<path d="M44.7703 6.4050
L44.7098 6.3445
" />
<path d="M44.7098 6.3445
L44.6494 6.2235
" />
<path d="M44.6494 6.2235
L44.6494 5.8607
" />
<path d="M44.6494 5.8607
L44.7098 5.7397
" />
<path d="M44.7098 5.7397
L44.7703 5.6792
" />
<path d="M44.7703 5.6792
L44.8913 5.6188
" />
<path d="M44.8913 5.6188
L45.1332 5.6188
" />
<path d="M45.1332 5.6188
L45.2541 5.6792
" />
<path d="M45.9799 6.4654
L45.8589 6.4050
" />
<path d="M45.8589 6.4050
L45.7984 6.3445
" />
<path d="M45.7984 6.3445
L45.7380 6.2235
" />
<path d="M45.7380 6.2235
L45.7380 5.8607
" />
<path d="M45.7380 5.8607
L45.7984 5.7397
" />
<path d="M45.7984 5.7397
L45.8589 5.6792
" />
<path d="M45.8589 5.6792
L45.9799 5.6188
" />
<path d="M45.9799 5.6188
L46.1613 5.6188
" />
<path d="M46.1613 5.6188
L46.2822 5.6792
" />
<path d="M46.2822 5.6792
L46.3427 5.7397
" />
<path d="M46.3427 5.7397
L46.4032 5.8607
" />
<path d="M46.4032 5.8607
L46.4032 6.2235
" />
<path d="M46.4032 6.2235
L46.3427 6.3445
" />
<path d="M46.3427 6.3445
L46.2822 6.4050
" />
<path d="M46.2822 6.4050
L46.1613 6.4654
" />
<path d="M46.1613 6.4654
L45.9799 6.4654
" />
<path d="M46.9474 6.3445
L47.0079 6.4050
" />
<path d="M47.0079 6.4050
L46.9474 6.4654
" />
<path d="M46.9474 6.4654
L46.8870 6.4050
" />
<path d="M46.8870 6.4050
L46.9474 6.3445
" />
<path d="M46.9474 6.3445
L46.9474 6.4654
" />
<path d="M48.0965 5.6188
L48.0965 6.4654
" />
<path d="M47.5522 5.6188
L47.5522 6.2840
" />
<path d="M47.5522 6.2840
L47.6127 6.4050
" />
<path d="M47.6127 6.4050
L47.7337 6.4654
" />
<path d="M47.7337 6.4654
L47.9151 6.4654
" />
<path d="M47.9151 6.4654
L48.0360 6.4050
" />
<path d="M48.0360 6.4050
L48.0965 6.3445
" />
<path d="M48.7012 6.4654
L48.7012 5.1954
" />
<path d="M48.8222 5.9816
L49.1850 6.4654
" />
<path d="M49.1850 5.6188
L48.7012 6.1026
" />
<path d="M50.6365 5.1350
L49.5479 6.7678
" />
<path d="M51.7855 6.3445
L51.7251 6.4050
" />
<path d="M51.7251 6.4050
L51.5436 6.4654
" />
<path d="M51.5436 6.4654
L51.4227 6.4654
" />
<path d="M51.4227 6.4654
L51.2413 6.4050
" />
<path d="M51.2413 6.4050
L51.1203 6.2840
" />
<path d="M51.1203 6.2840
L51.0598 6.1630
" />
<path d="M51.0598 6.1630
L50.9994 5.9211
" />
<path d="M50.9994 5.9211
L50.9994 5.7397
" />
<path d="M50.9994 5.7397
L51.0598 5.4978
" />
<path d="M51.0598 5.4978
L51.1203 5.3769
" />
<path d="M51.1203 5.3769
L51.2413 5.2559
" />
<path d="M51.2413 5.2559
L51.4227 5.1954
" />
<path d="M51.4227 5.1954
L51.5436 5.1954
" />
<path d="M51.5436 5.1954
L51.7251 5.2559
" />
<path d="M51.7251 5.2559
L51.7855 5.3164
" />
<path d="M52.3298 6.4654
L52.3298 5.6188
" />
<path d="M52.3298 5.1954
L52.2694 5.2559
" />
<path d="M52.2694 5.2559
L52.3298 5.3164
" />
<path d="M52.3298 5.3164
L52.3903 5.2559
" />
<path d="M52.3903 5.2559
L52.3298 5.1954
" />
<path d="M52.3298 5.1954
L52.3298 5.3164
" />
<path d="M52.9346 6.4654
L52.9346 5.6188
" />
<path d="M52.9346 5.8607
L52.9951 5.7397
" />
<path d="M52.9951 5.7397
L53.0556 5.6792
" />
<path d="M53.0556 5.6792
L53.1765 5.6188
" />
<path d="M53.1765 5.6188
L53.2975 5.6188
" />
<path d="M54.2651 6.4050
L54.1442 6.4654
" />
<path d="M54.1442 6.4654
L53.9023 6.4654
" />
<path d="M53.9023 6.4654
L53.7813 6.4050
" />
<path d="M53.7813 6.4050
L53.7208 6.3445
" />
<path d="M53.7208 6.3445
L53.6604 6.2235
" />
<path d="M53.6604 6.2235
L53.6604 5.8607
" />
<path d="M53.6604 5.8607
L53.7208 5.7397
" />
<path d="M53.7208 5.7397
L53.7813 5.6792
" />
<path d="M53.7813 5.6792
L53.9023 5.6188
" />
<path d="M53.9023 5.6188
L54.1442 5.6188
" />
<path d="M54.1442 5.6188
L54.2651 5.6792
" />
<path d="M55.3537 5.6188
L55.3537 6.4654
" />
<path d="M54.8094 5.6188
L54.8094 6.2840
" />
<path d="M54.8094 6.2840
L54.8699 6.4050
" />
<path d="M54.8699 6.4050
L54.9909 6.4654
" />
<path d="M54.9909 6.4654
L55.1723 6.4654
" />
<path d="M55.1723 6.4654
L55.2932 6.4050
" />
<path d="M55.2932 6.4050
L55.3537 6.3445
" />
<path d="M55.9584 6.4654
L55.9584 5.6188
" />
<path d="M55.9584 5.1954
L55.8980 5.2559
" />
<path d="M55.8980 5.2559
L55.9584 5.3164
" />
<path d="M55.9584 5.3164
L56.0189 5.2559
" />
<path d="M56.0189 5.2559
L55.9584 5.1954
" />
<path d="M55.9584 5.1954
L55.9584 5.3164
" />
<path d="M56.3818 5.6188
L56.8656 5.6188
" />
<path d="M56.5632 5.1954
L56.5632 6.2840
" />
<path d="M56.5632 6.2840
L56.6237 6.4050
" />
<path d="M56.6237 6.4050
L56.7447 6.4654
" />
<path d="M56.7447 6.4654
L56.8656 6.4654
" />
<path d="M57.2285 6.4050
L57.3494 6.4654
" />
<path d="M57.3494 6.4654
L57.5913 6.4654
" />
<path d="M57.5913 6.4654
L57.7123 6.4050
" />
<path d="M57.7123 6.4050
L57.7727 6.2840
" />
<path d="M57.7727 6.2840
L57.7727 6.2235
" />
<path d="M57.7727 6.2235
L57.7123 6.1026
" />
<path d="M57.7123 6.1026
L57.5913 6.0421
" />
<path d="M57.5913 6.0421
L57.4099 6.0421
" />
<path d="M57.4099 6.0421
L57.2889 5.9816
" />
<path d="M57.2889 5.9816
L57.2285 5.8607
" />
<path d="M57.2285 5.8607
L57.2285 5.8002
" />
<path d="M57.2285 5.8002
L57.2889 5.6792
" />
<path d="M57.2889 5.6792
L57.4099 5.6188
" />
<path d="M57.4099 5.6188
L57.5913 5.6188
" />
<path d="M57.5913 5.6188
L57.7123 5.6792
" />
<path d="M59.2242 5.1350
L58.1356 6.7678
" />
<path d="M59.6475 6.4654
L59.6475 5.1954
" />
<path d="M59.6475 5.1954
L60.1313 5.1954
" />
<path d="M60.1313 5.1954
L60.2523 5.2559
" />
<path d="M60.2523 5.2559
L60.3128 5.3164
" />
<path d="M60.3128 5.3164
L60.3732 5.4373
" />
<path d="M60.3732 5.4373
L60.3732 5.6188
" />
<path d="M60.3732 5.6188
L60.3128 5.7397
" />
<path d="M60.3128 5.7397
L60.2523 5.8002
" />
<path d="M60.2523 5.8002
L60.1313 5.8607
" />
<path d="M60.1313 5.8607
L59.6475 5.8607
" />
<path d="M61.0990 6.4654
L60.9780 6.4050
" />
<path d="M60.9780 6.4050
L60.9175 6.3445
" />
<path d="M60.9175 6.3445
L60.8571 6.2235
" />
<path d="M60.8571 6.2235
L60.8571 5.8607
" />
<path d="M60.8571 5.8607
L60.9175 5.7397
" />
<path d="M60.9175 5.7397
L60.9780 5.6792
" />
<path d="M60.9780 5.6792
L61.0990 5.6188
" />
<path d="M61.0990 5.6188
L61.2804 5.6188
" />
<path d="M61.2804 5.6188
L61.4013 5.6792
" />
<path d="M61.4013 5.6792
L61.4618 5.7397
" />
<path d="M61.4618 5.7397
L61.5223 5.8607
" />
<path d="M61.5223 5.8607
L61.5223 6.2235
" />
<path d="M61.5223 6.2235
L61.4618 6.3445
" />
<path d="M61.4618 6.3445
L61.4013 6.4050
" />
<path d="M61.4013 6.4050
L61.2804 6.4654
" />
<path d="M61.2804 6.4654
L61.0990 6.4654
" />
<path d="M61.9456 5.6188
L62.1875 6.4654
" />
<path d="M62.1875 6.4654
L62.4294 5.8607
" />
<path d="M62.4294 5.8607
L62.6713 6.4654
" />
<path d="M62.6713 6.4654
L62.9132 5.6188
" />
<path d="M63.8808 6.4050
L63.7599 6.4654
" />
<path d="M63.7599 6.4654
L63.5180 6.4654
" />
<path d="M63.5180 6.4654
L63.3970 6.4050
" />
<path d="M63.3970 6.4050
L63.3366 6.2840
" />
<path d="M63.3366 6.2840
L63.3366 5.8002
" />
<path d="M63.3366 5.8002
L63.3970 5.6792
" />
<path d="M63.3970 5.6792
L63.5180 5.6188
" />
<path d="M63.5180 5.6188
L63.7599 5.6188
" />
<path d="M63.7599 5.6188
L63.8808 5.6792
" />
<path d="M63.8808 5.6792
L63.9413 5.8002
" />
<path d="M63.9413 5.8002
L63.9413 5.9211
" />
<path d="M63.9413 5.9211
L63.3366 6.0421
" />
<path d="M64.4856 6.4654
L64.4856 5.6188
" />
<path d="M64.4856 5.8607
L64.5461 5.7397
" />
<path d="M64.5461 5.7397
L64.6066 5.6792
" />
<path d="M64.6066 5.6792
L64.7275 5.6188
" />
<path d="M64.7275 5.6188
L64.8485 5.6188
" />
<path d="M66.1790 5.1350
L65.0904 6.7678
" />
<path d="M66.7838 6.4654
L66.6628 6.4050
" />
<path d="M66.6628 6.4050
L66.6023 6.2840
" />
<path d="M66.6023 6.2840
L66.6023 5.1954
" />
<path d="M67.2071 5.3164
L67.2675 5.2559
" />
<path d="M67.2675 5.2559
L67.3885 5.1954
" />
<path d="M67.3885 5.1954
L67.6909 5.1954
" />
<path d="M67.6909 5.1954
L67.8118 5.2559
" />
<path d="M67.8118 5.2559
L67.8723 5.3164
" />
<path d="M67.8723 5.3164
L67.9328 5.4373
" />
<path d="M67.9328 5.4373
L67.9328 5.5583
" />
<path d="M67.9328 5.5583
L67.8723 5.7397
" />
<path d="M67.8723 5.7397
L67.1466 6.4654
" />
<path d="M67.1466 6.4654
L67.9328 6.4654
" />
<path d="M68.7189 5.1954
L68.8399 5.1954
" />
<path d="M68.8399 5.1954
L68.9608 5.2559
" />
<path d="M68.9608 5.2559
L69.0213 5.3164
" />
<path d="M69.0213 5.3164
L69.0818 5.4373
" />
<path d="M69.0818 5.4373
L69.1423 5.6792
" />
<path d="M69.1423 5.6792
L69.1423 5.9816
" />
<path d="M69.1423 5.9816
L69.0818 6.2235
" />
<path d="M69.0818 6.2235
L69.0213 6.3445
" />
<path d="M69.0213 6.3445
L68.9608 6.4050
" />
<path d="M68.9608 6.4050
L68.8399 6.4654
" />
<path d="M68.8399 6.4654
L68.7189 6.4654
" />
<path d="M68.7189 6.4654
L68.5980 6.4050
" />
<path d="M68.5980 6.4050
L68.5375 6.3445
" />
<path d="M68.5375 6.3445
L68.4770 6.2235
" />
<path d="M68.4770 6.2235
L68.4166 5.9816
" />
<path d="M68.4166 5.9816
L68.4166 5.6792
" />
<path d="M68.4166 5.6792
L68.4770 5.4373
" />
<path d="M68.4770 5.4373
L68.5375 5.3164
" />
<path d="M68.5375 5.3164
L68.5980 5.2559
" />
<path d="M68.5980 5.2559
L68.7189 5.1954
" />
<path d="M69.9284 5.1954
L70.0494 5.1954
" />
<path d="M70.0494 5.1954
L70.1703 5.2559
" />
<path d="M70.1703 5.2559
L70.2308 5.3164
" />
<path d="M70.2308 5.3164
L70.2913 5.4373
" />
<path d="M70.2913 5.4373
L70.3518 5.6792
" />
<path d="M70.3518 5.6792
L70.3518 5.9816
" />
<path d="M70.3518 5.9816
L70.2913 6.2235
" />
<path d="M70.2913 6.2235
L70.2308 6.3445
" />
<path d="M70.2308 6.3445
L70.1703 6.4050
" />
<path d="M70.1703 6.4050
L70.0494 6.4654
" />
<path d="M70.0494 6.4654
L69.9284 6.4654
" />
<path d="M69.9284 6.4654
L69.8075 6.4050
" />
<path d="M69.8075 6.4050
L69.7470 6.3445
" />
<path d="M69.7470 6.3445
L69.6865 6.2235
" />
<path d="M69.6865 6.2235
L69.6261 5.9816
" />
<path d="M69.6261 5.9816
L69.6261 5.6792
" />
<path d="M69.6261 5.6792
L69.6865 5.4373
" />
<path d="M69.6865 5.4373
L69.7470 5.3164
" />
<path d="M69.7470 5.3164
L69.8075 5.2559
" />
<path d="M69.8075 5.2559
L69.9284 5.1954
" />
<path d="M70.8960 6.3445
L70.9565 6.4050
" />
<path d="M70.9565 6.4050
L70.8960 6.4654
" />
<path d="M70.8960 6.4654
L70.8356 6.4050
" />
<path d="M70.8356 6.4050
L70.8960 6.3445
" />
<path d="M70.8960 6.3445
L70.8960 6.4654
" />
<path d="M71.5008 5.6188
L71.5008 6.8888
" />
<path d="M71.5008 5.6792
L71.6218 5.6188
" />
<path d="M71.6218 5.6188
L71.8637 5.6188
" />
<path d="M71.8637 5.6188
L71.9846 5.6792
" />
<path d="M71.9846 5.6792
L72.0451 5.7397
" />
<path d="M72.0451 5.7397
L72.1056 5.8607
" />
<path d="M72.1056 5.8607
L72.1056 6.2235
" />
<path d="M72.1056 6.2235
L72.0451 6.3445
" />
<path d="M72.0451 6.3445
L71.9846 6.4050
" />
<path d="M71.9846 6.4050
L71.8637 6.4654
" />
<path d="M71.8637 6.4654
L71.6218 6.4654
" />
<path d="M71.6218 6.4654
L71.5008 6.4050
" />
<path d="M73.1941 6.4654
L73.1941 5.1954
" />
<path d="M73.1941 6.4050
L73.0732 6.4654
" />
<path d="M73.0732 6.4654
L72.8313 6.4654
" />
<path d="M72.8313 6.4654
L72.7103 6.4050
" />
<path d="M72.7103 6.4050
L72.6498 6.3445
" />
<path d="M72.6498 6.3445
L72.5894 6.2235
" />
<path d="M72.5894 6.2235
L72.5894 5.8607
" />
<path d="M72.5894 5.8607
L72.6498 5.7397
" />
<path d="M72.6498 5.7397
L72.7103 5.6792
" />
<path d="M72.7103 5.6792
L72.8313 5.6188
" />
<path d="M72.8313 5.6188
L73.0732 5.6188
" />
<path d="M73.0732 5.6188
L73.1941 5.6792
" />
<path d="M73.6174 5.6188
L74.1012 5.6188
" />
<path d="M73.7988 6.4654
L73.7988 5.3769
" />
<path d="M73.7988 5.3769
L73.8593 5.2559
" />
<path d="M73.8593 5.2559
L73.9803 5.1954
" />
<path d="M73.9803 5.1954
L74.1012 5.1954
" />
</g></g> 
</svg>
