<?xml version="1.0" standalone="no"?>
 <!DOCTYPE svg PUBLIC "-//W3C//DTD SVG 1.1//EN" 
 "http://www.w3.org/Graphics/SVG/1.1/DTD/svg11.dtd"> 
<svg
  xmlns:svg="http://www.w3.org/2000/svg"
  xmlns="http://www.w3.org/2000/svg"
  xmlns:xlink="http://www.w3.org/1999/xlink"
  version="1.1"
  width="76.4540mm" height="64.9478mm" viewBox="0.0000 0.0000 76.4540 64.9478">
<title>SVG Image created as working.svg date 2023/08/27 18:44:25 </title>
  <desc>Image generated by Eeschema-SVG </desc>
<g style="fill:#000000; fill-opacity:1.0000;stroke:#000000; stroke-opacity:1.0000;
stroke-linecap:round; stroke-linejoin:round;"
 transform="translate(0 0) scale(1 1)">
</g>
<g style="fill:#840000; fill-opacity:0.0; 
stroke:#840000; stroke-width:0.0000; stroke-opacity:1; 
stroke-linecap:round; stroke-linejoin:round;">
</g>
<g style="fill:#840084; fill-opacity:0.0; 
stroke:#840084; stroke-width:0.0000; stroke-opacity:1; 
stroke-linecap:round; stroke-linejoin:round;">
</g>
<g style="fill:#840000; fill-opacity:0.0; 
stroke:#840000; stroke-width:0.0000; stroke-opacity:1; 
stroke-linecap:round; stroke-linejoin:round;">
</g>
<g style="fill:#840084; fill-opacity:0.0; 
stroke:#840084; stroke-width:0.0000; stroke-opacity:1; 
stroke-linecap:round; stroke-linejoin:round;">
</g>
<g style="fill:#006464; fill-opacity:0.0; 
stroke:#006464; stroke-width:0.0000; stroke-opacity:1; 
stroke-linecap:round; stroke-linejoin:round;">
</g>
<g style="fill:#006464; fill-opacity:0.0; 
stroke:#006464; stroke-width:0.1588; stroke-opacity:1; 
stroke-linecap:round; stroke-linejoin:round;">
<text x="31.0064" y="10.8779"
textLength="2.6415" font-size="1.6933" lengthAdjust="spacingAndGlyphs"
text-anchor="middle" opacity="0">U?</text>
<g class="stroked-text"><desc>U?</desc>
<path d="M30.0992 9.5521
L30.0992 10.5802
" />
<path d="M30.0992 10.5802
L30.1597 10.7012
" />
<path d="M30.1597 10.7012
L30.2202 10.7617
" />
<path d="M30.2202 10.7617
L30.3411 10.8221
" />
<path d="M30.3411 10.8221
L30.5830 10.8221
" />
<path d="M30.5830 10.8221
L30.7040 10.7617
" />
<path d="M30.7040 10.7617
L30.7645 10.7012
" />
<path d="M30.7645 10.7012
L30.8249 10.5802
" />
<path d="M30.8249 10.5802
L30.8249 9.5521
" />
<path d="M31.6112 10.7012
L31.6716 10.7617
" />
<path d="M31.6716 10.7617
L31.6112 10.8221
" />
<path d="M31.6112 10.8221
L31.5507 10.7617
" />
<path d="M31.5507 10.7617
L31.6112 10.7012
" />
<path d="M31.6112 10.7012
L31.6112 10.8221
" />
<path d="M31.3693 9.6126
L31.4902 9.5521
" />
<path d="M31.4902 9.5521
L31.7926 9.5521
" />
<path d="M31.7926 9.5521
L31.9135 9.6126
" />
<path d="M31.9135 9.6126
L31.9740 9.7336
" />
<path d="M31.9740 9.7336
L31.9740 9.8545
" />
<path d="M31.9740 9.8545
L31.9135 9.9755
" />
<path d="M31.9135 9.9755
L31.8531 10.0359
" />
<path d="M31.8531 10.0359
L31.7321 10.0964
" />
<path d="M31.7321 10.0964
L31.6716 10.1569
" />
<path d="M31.6716 10.1569
L31.6112 10.2778
" />
<path d="M31.6112 10.2778
L31.6112 10.3383
" />
</g><text x="47.5164" y="10.8779"
textLength="13.4060" font-size="1.6933" lengthAdjust="spacingAndGlyphs"
text-anchor="middle" opacity="0">TPS26635RGE</text>
<g class="stroked-text"><desc>TPS26635RGE</desc>
<path d="M41.0455 9.5521
L41.7712 9.5521
" />
<path d="M41.4084 10.8221
L41.4084 9.5521
" />
<path d="M42.1945 10.8221
L42.1945 9.5521
" />
<path d="M42.1945 9.5521
L42.6783 9.5521
" />
<path d="M42.6783 9.5521
L42.7993 9.6126
" />
<path d="M42.7993 9.6126
L42.8598 9.6731
" />
<path d="M42.8598 9.6731
L42.9202 9.7940
" />
<path d="M42.9202 9.7940
L42.9202 9.9755
" />
<path d="M42.9202 9.9755
L42.8598 10.0964
" />
<path d="M42.8598 10.0964
L42.7993 10.1569
" />
<path d="M42.7993 10.1569
L42.6783 10.2174
" />
<path d="M42.6783 10.2174
L42.1945 10.2174
" />
<path d="M43.4041 10.7617
L43.5855 10.8221
" />
<path d="M43.5855 10.8221
L43.8879 10.8221
" />
<path d="M43.8879 10.8221
L44.0088 10.7617
" />
<path d="M44.0088 10.7617
L44.0693 10.7012
" />
<path d="M44.0693 10.7012
L44.1298 10.5802
" />
<path d="M44.1298 10.5802
L44.1298 10.4593
" />
<path d="M44.1298 10.4593
L44.0693 10.3383
" />
<path d="M44.0693 10.3383
L44.0088 10.2778
" />
<path d="M44.0088 10.2778
L43.8879 10.2174
" />
<path d="M43.8879 10.2174
L43.6460 10.1569
" />
<path d="M43.6460 10.1569
L43.5250 10.0964
" />
<path d="M43.5250 10.0964
L43.4645 10.0359
" />
<path d="M43.4645 10.0359
L43.4041 9.9150
" />
<path d="M43.4041 9.9150
L43.4041 9.7940
" />
<path d="M43.4041 9.7940
L43.4645 9.6731
" />
<path d="M43.4645 9.6731
L43.5250 9.6126
" />
<path d="M43.5250 9.6126
L43.6460 9.5521
" />
<path d="M43.6460 9.5521
L43.9483 9.5521
" />
<path d="M43.9483 9.5521
L44.1298 9.6126
" />
<path d="M44.6136 9.6731
L44.6740 9.6126
" />
<path d="M44.6740 9.6126
L44.7950 9.5521
" />
<path d="M44.7950 9.5521
L45.0974 9.5521
" />
<path d="M45.0974 9.5521
L45.2183 9.6126
" />
<path d="M45.2183 9.6126
L45.2788 9.6731
" />
<path d="M45.2788 9.6731
L45.3393 9.7940
" />
<path d="M45.3393 9.7940
L45.3393 9.9150
" />
<path d="M45.3393 9.9150
L45.2788 10.0964
" />
<path d="M45.2788 10.0964
L44.5531 10.8221
" />
<path d="M44.5531 10.8221
L45.3393 10.8221
" />
<path d="M46.4278 9.5521
L46.1859 9.5521
" />
<path d="M46.1859 9.5521
L46.0650 9.6126
" />
<path d="M46.0650 9.6126
L46.0045 9.6731
" />
<path d="M46.0045 9.6731
L45.8835 9.8545
" />
<path d="M45.8835 9.8545
L45.8231 10.0964
" />
<path d="M45.8231 10.0964
L45.8231 10.5802
" />
<path d="M45.8231 10.5802
L45.8835 10.7012
" />
<path d="M45.8835 10.7012
L45.9440 10.7617
" />
<path d="M45.9440 10.7617
L46.0650 10.8221
" />
<path d="M46.0650 10.8221
L46.3069 10.8221
" />
<path d="M46.3069 10.8221
L46.4278 10.7617
" />
<path d="M46.4278 10.7617
L46.4883 10.7012
" />
<path d="M46.4883 10.7012
L46.5488 10.5802
" />
<path d="M46.5488 10.5802
L46.5488 10.2778
" />
<path d="M46.5488 10.2778
L46.4883 10.1569
" />
<path d="M46.4883 10.1569
L46.4278 10.0964
" />
<path d="M46.4278 10.0964
L46.3069 10.0359
" />
<path d="M46.3069 10.0359
L46.0650 10.0359
" />
<path d="M46.0650 10.0359
L45.9440 10.0964
" />
<path d="M45.9440 10.0964
L45.8835 10.1569
" />
<path d="M45.8835 10.1569
L45.8231 10.2778
" />
<path d="M47.6373 9.5521
L47.3954 9.5521
" />
<path d="M47.3954 9.5521
L47.2745 9.6126
" />
<path d="M47.2745 9.6126
L47.2140 9.6731
" />
<path d="M47.2140 9.6731
L47.0930 9.8545
" />
<path d="M47.0930 9.8545
L47.0326 10.0964
" />
<path d="M47.0326 10.0964
L47.0326 10.5802
" />
<path d="M47.0326 10.5802
L47.0930 10.7012
" />
<path d="M47.0930 10.7012
L47.1535 10.7617
" />
<path d="M47.1535 10.7617
L47.2745 10.8221
" />
<path d="M47.2745 10.8221
L47.5164 10.8221
" />
<path d="M47.5164 10.8221
L47.6373 10.7617
" />
<path d="M47.6373 10.7617
L47.6978 10.7012
" />
<path d="M47.6978 10.7012
L47.7583 10.5802
" />
<path d="M47.7583 10.5802
L47.7583 10.2778
" />
<path d="M47.7583 10.2778
L47.6978 10.1569
" />
<path d="M47.6978 10.1569
L47.6373 10.0964
" />
<path d="M47.6373 10.0964
L47.5164 10.0359
" />
<path d="M47.5164 10.0359
L47.2745 10.0359
" />
<path d="M47.2745 10.0359
L47.1535 10.0964
" />
<path d="M47.1535 10.0964
L47.0930 10.1569
" />
<path d="M47.0930 10.1569
L47.0326 10.2778
" />
<path d="M48.1816 9.5521
L48.9678 9.5521
" />
<path d="M48.9678 9.5521
L48.5444 10.0359
" />
<path d="M48.5444 10.0359
L48.7259 10.0359
" />
<path d="M48.7259 10.0359
L48.8468 10.0964
" />
<path d="M48.8468 10.0964
L48.9073 10.1569
" />
<path d="M48.9073 10.1569
L48.9678 10.2778
" />
<path d="M48.9678 10.2778
L48.9678 10.5802
" />
<path d="M48.9678 10.5802
L48.9073 10.7012
" />
<path d="M48.9073 10.7012
L48.8468 10.7617
" />
<path d="M48.8468 10.7617
L48.7259 10.8221
" />
<path d="M48.7259 10.8221
L48.3630 10.8221
" />
<path d="M48.3630 10.8221
L48.2421 10.7617
" />
<path d="M48.2421 10.7617
L48.1816 10.7012
" />
<path d="M50.1168 9.5521
L49.5120 9.5521
" />
<path d="M49.5120 9.5521
L49.4516 10.1569
" />
<path d="M49.4516 10.1569
L49.5120 10.0964
" />
<path d="M49.5120 10.0964
L49.6330 10.0359
" />
<path d="M49.6330 10.0359
L49.9354 10.0359
" />
<path d="M49.9354 10.0359
L50.0563 10.0964
" />
<path d="M50.0563 10.0964
L50.1168 10.1569
" />
<path d="M50.1168 10.1569
L50.1773 10.2778
" />
<path d="M50.1773 10.2778
L50.1773 10.5802
" />
<path d="M50.1773 10.5802
L50.1168 10.7012
" />
<path d="M50.1168 10.7012
L50.0563 10.7617
" />
<path d="M50.0563 10.7617
L49.9354 10.8221
" />
<path d="M49.9354 10.8221
L49.6330 10.8221
" />
<path d="M49.6330 10.8221
L49.5120 10.7617
" />
<path d="M49.5120 10.7617
L49.4516 10.7012
" />
<path d="M51.4472 10.8221
L51.0239 10.2174
" />
<path d="M50.7215 10.8221
L50.7215 9.5521
" />
<path d="M50.7215 9.5521
L51.2053 9.5521
" />
<path d="M51.2053 9.5521
L51.3263 9.6126
" />
<path d="M51.3263 9.6126
L51.3868 9.6731
" />
<path d="M51.3868 9.6731
L51.4472 9.7940
" />
<path d="M51.4472 9.7940
L51.4472 9.9755
" />
<path d="M51.4472 9.9755
L51.3868 10.0964
" />
<path d="M51.3868 10.0964
L51.3263 10.1569
" />
<path d="M51.3263 10.1569
L51.2053 10.2174
" />
<path d="M51.2053 10.2174
L50.7215 10.2174
" />
<path d="M52.6568 9.6126
L52.5358 9.5521
" />
<path d="M52.5358 9.5521
L52.3544 9.5521
" />
<path d="M52.3544 9.5521
L52.1730 9.6126
" />
<path d="M52.1730 9.6126
L52.0520 9.7336
" />
<path d="M52.0520 9.7336
L51.9915 9.8545
" />
<path d="M51.9915 9.8545
L51.9311 10.0964
" />
<path d="M51.9311 10.0964
L51.9311 10.2778
" />
<path d="M51.9311 10.2778
L51.9915 10.5197
" />
<path d="M51.9915 10.5197
L52.0520 10.6407
" />
<path d="M52.0520 10.6407
L52.1730 10.7617
" />
<path d="M52.1730 10.7617
L52.3544 10.8221
" />
<path d="M52.3544 10.8221
L52.4753 10.8221
" />
<path d="M52.4753 10.8221
L52.6568 10.7617
" />
<path d="M52.6568 10.7617
L52.7172 10.7012
" />
<path d="M52.7172 10.7012
L52.7172 10.2778
" />
<path d="M52.7172 10.2778
L52.4753 10.2778
" />
<path d="M53.2615 10.1569
L53.6849 10.1569
" />
<path d="M53.8663 10.8221
L53.2615 10.8221
" />
<path d="M53.2615 10.8221
L53.2615 9.5521
" />
<path d="M53.2615 9.5521
L53.8663 9.5521
" />
</g></g>
<g style="fill:#840084; fill-opacity:0.0; 
stroke:#840084; stroke-width:0.1588; stroke-opacity:1; 
stroke-linecap:round; stroke-linejoin:round;">
<text x="39.8964" y="59.1379"
textLength="60.3958" font-size="1.6933" lengthAdjust="spacingAndGlyphs"
text-anchor="middle" opacity="0">Package_DFN_QFN:Texas_RGE0024H_EP2.7x2.7mm_ThermalVias</text>
<g class="stroked-text"><desc>Package_DFN_QFN:Texas_RGE0024H_EP2.7x2.7mm_ThermalVias</desc>
<path d="M10.1120 59.0821
L10.1120 57.8121
" />
<path d="M10.1120 57.8121
L10.5958 57.8121
" />
<path d="M10.5958 57.8121
L10.7168 57.8726
" />
<path d="M10.7168 57.8726
L10.7773 57.9331
" />
<path d="M10.7773 57.9331
L10.8377 58.0540
" />
<path d="M10.8377 58.0540
L10.8377 58.2355
" />
<path d="M10.8377 58.2355
L10.7773 58.3564
" />
<path d="M10.7773 58.3564
L10.7168 58.4169
" />
<path d="M10.7168 58.4169
L10.5958 58.4774
" />
<path d="M10.5958 58.4774
L10.1120 58.4774
" />
<path d="M11.9263 59.0821
L11.9263 58.4169
" />
<path d="M11.9263 58.4169
L11.8658 58.2959
" />
<path d="M11.8658 58.2959
L11.7449 58.2355
" />
<path d="M11.7449 58.2355
L11.5030 58.2355
" />
<path d="M11.5030 58.2355
L11.3820 58.2959
" />
<path d="M11.9263 59.0217
L11.8054 59.0821
" />
<path d="M11.8054 59.0821
L11.5030 59.0821
" />
<path d="M11.5030 59.0821
L11.3820 59.0217
" />
<path d="M11.3820 59.0217
L11.3216 58.9007
" />
<path d="M11.3216 58.9007
L11.3216 58.7797
" />
<path d="M11.3216 58.7797
L11.3820 58.6588
" />
<path d="M11.3820 58.6588
L11.5030 58.5983
" />
<path d="M11.5030 58.5983
L11.8054 58.5983
" />
<path d="M11.8054 58.5983
L11.9263 58.5378
" />
<path d="M13.0753 59.0217
L12.9544 59.0821
" />
<path d="M12.9544 59.0821
L12.7125 59.0821
" />
<path d="M12.7125 59.0821
L12.5915 59.0217
" />
<path d="M12.5915 59.0217
L12.5310 58.9612
" />
<path d="M12.5310 58.9612
L12.4706 58.8402
" />
<path d="M12.4706 58.8402
L12.4706 58.4774
" />
<path d="M12.4706 58.4774
L12.5310 58.3564
" />
<path d="M12.5310 58.3564
L12.5915 58.2959
" />
<path d="M12.5915 58.2959
L12.7125 58.2355
" />
<path d="M12.7125 58.2355
L12.9544 58.2355
" />
<path d="M12.9544 58.2355
L13.0753 58.2959
" />
<path d="M13.6196 59.0821
L13.6196 57.8121
" />
<path d="M13.7406 58.5983
L14.1034 59.0821
" />
<path d="M14.1034 58.2355
L13.6196 58.7193
" />
<path d="M15.1920 59.0821
L15.1920 58.4169
" />
<path d="M15.1920 58.4169
L15.1315 58.2959
" />
<path d="M15.1315 58.2959
L15.0106 58.2355
" />
<path d="M15.0106 58.2355
L14.7687 58.2355
" />
<path d="M14.7687 58.2355
L14.6477 58.2959
" />
<path d="M15.1920 59.0217
L15.0711 59.0821
" />
<path d="M15.0711 59.0821
L14.7687 59.0821
" />
<path d="M14.7687 59.0821
L14.6477 59.0217
" />
<path d="M14.6477 59.0217
L14.5873 58.9007
" />
<path d="M14.5873 58.9007
L14.5873 58.7797
" />
<path d="M14.5873 58.7797
L14.6477 58.6588
" />
<path d="M14.6477 58.6588
L14.7687 58.5983
" />
<path d="M14.7687 58.5983
L15.0711 58.5983
" />
<path d="M15.0711 58.5983
L15.1920 58.5378
" />
<path d="M16.3410 58.2355
L16.3410 59.2636
" />
<path d="M16.3410 59.2636
L16.2805 59.3845
" />
<path d="M16.2805 59.3845
L16.2201 59.4450
" />
<path d="M16.2201 59.4450
L16.0991 59.5055
" />
<path d="M16.0991 59.5055
L15.9177 59.5055
" />
<path d="M15.9177 59.5055
L15.7967 59.4450
" />
<path d="M16.3410 59.0217
L16.2201 59.0821
" />
<path d="M16.2201 59.0821
L15.9782 59.0821
" />
<path d="M15.9782 59.0821
L15.8572 59.0217
" />
<path d="M15.8572 59.0217
L15.7967 58.9612
" />
<path d="M15.7967 58.9612
L15.7363 58.8402
" />
<path d="M15.7363 58.8402
L15.7363 58.4774
" />
<path d="M15.7363 58.4774
L15.7967 58.3564
" />
<path d="M15.7967 58.3564
L15.8572 58.2959
" />
<path d="M15.8572 58.2959
L15.9782 58.2355
" />
<path d="M15.9782 58.2355
L16.2201 58.2355
" />
<path d="M16.2201 58.2355
L16.3410 58.2959
" />
<path d="M17.4295 59.0217
L17.3086 59.0821
" />
<path d="M17.3086 59.0821
L17.0667 59.0821
" />
<path d="M17.0667 59.0821
L16.9457 59.0217
" />
<path d="M16.9457 59.0217
L16.8853 58.9007
" />
<path d="M16.8853 58.9007
L16.8853 58.4169
" />
<path d="M16.8853 58.4169
L16.9457 58.2959
" />
<path d="M16.9457 58.2959
L17.0667 58.2355
" />
<path d="M17.0667 58.2355
L17.3086 58.2355
" />
<path d="M17.3086 58.2355
L17.4295 58.2959
" />
<path d="M17.4295 58.2959
L17.4900 58.4169
" />
<path d="M17.4900 58.4169
L17.4900 58.5378
" />
<path d="M17.4900 58.5378
L16.8853 58.6588
" />
<path d="M17.7320 59.2031
L18.6996 59.2031
" />
<path d="M19.0019 59.0821
L19.0019 57.8121
" />
<path d="M19.0019 57.8121
L19.3043 57.8121
" />
<path d="M19.3043 57.8121
L19.4857 57.8726
" />
<path d="M19.4857 57.8726
L19.6067 57.9936
" />
<path d="M19.6067 57.9936
L19.6672 58.1145
" />
<path d="M19.6672 58.1145
L19.7276 58.3564
" />
<path d="M19.7276 58.3564
L19.7276 58.5378
" />
<path d="M19.7276 58.5378
L19.6672 58.7797
" />
<path d="M19.6672 58.7797
L19.6067 58.9007
" />
<path d="M19.6067 58.9007
L19.4857 59.0217
" />
<path d="M19.4857 59.0217
L19.3043 59.0821
" />
<path d="M19.3043 59.0821
L19.0019 59.0821
" />
<path d="M20.6953 58.4169
L20.2719 58.4169
" />
<path d="M20.2719 59.0821
L20.2719 57.8121
" />
<path d="M20.2719 57.8121
L20.8767 57.8121
" />
<path d="M21.3605 59.0821
L21.3605 57.8121
" />
<path d="M21.3605 57.8121
L22.0862 59.0821
" />
<path d="M22.0862 59.0821
L22.0862 57.8121
" />
<path d="M22.3887 59.2031
L23.3563 59.2031
" />
<path d="M24.5053 59.2031
L24.3843 59.1426
" />
<path d="M24.3843 59.1426
L24.2634 59.0217
" />
<path d="M24.2634 59.0217
L24.0820 58.8402
" />
<path d="M24.0820 58.8402
L23.9610 58.7797
" />
<path d="M23.9610 58.7797
L23.8401 58.7797
" />
<path d="M23.9005 59.0821
L23.7796 59.0217
" />
<path d="M23.7796 59.0217
L23.6586 58.9007
" />
<path d="M23.6586 58.9007
L23.5982 58.6588
" />
<path d="M23.5982 58.6588
L23.5982 58.2355
" />
<path d="M23.5982 58.2355
L23.6586 57.9936
" />
<path d="M23.6586 57.9936
L23.7796 57.8726
" />
<path d="M23.7796 57.8726
L23.9005 57.8121
" />
<path d="M23.9005 57.8121
L24.1424 57.8121
" />
<path d="M24.1424 57.8121
L24.2634 57.8726
" />
<path d="M24.2634 57.8726
L24.3843 57.9936
" />
<path d="M24.3843 57.9936
L24.4448 58.2355
" />
<path d="M24.4448 58.2355
L24.4448 58.6588
" />
<path d="M24.4448 58.6588
L24.3843 58.9007
" />
<path d="M24.3843 58.9007
L24.2634 59.0217
" />
<path d="M24.2634 59.0217
L24.1424 59.0821
" />
<path d="M24.1424 59.0821
L23.9005 59.0821
" />
<path d="M25.4125 58.4169
L24.9891 58.4169
" />
<path d="M24.9891 59.0821
L24.9891 57.8121
" />
<path d="M24.9891 57.8121
L25.5939 57.8121
" />
<path d="M26.0777 59.0821
L26.0777 57.8121
" />
<path d="M26.0777 57.8121
L26.8034 59.0821
" />
<path d="M26.8034 59.0821
L26.8034 57.8121
" />
<path d="M27.4082 58.9612
L27.4687 59.0217
" />
<path d="M27.4687 59.0217
L27.4082 59.0821
" />
<path d="M27.4082 59.0821
L27.3478 59.0217
" />
<path d="M27.3478 59.0217
L27.4082 58.9612
" />
<path d="M27.4082 58.9612
L27.4082 59.0821
" />
<path d="M27.4082 58.2959
L27.4687 58.3564
" />
<path d="M27.4687 58.3564
L27.4082 58.4169
" />
<path d="M27.4082 58.4169
L27.3478 58.3564
" />
<path d="M27.3478 58.3564
L27.4082 58.2959
" />
<path d="M27.4082 58.2959
L27.4082 58.4169
" />
<path d="M27.8316 57.8121
L28.5573 57.8121
" />
<path d="M28.1945 59.0821
L28.1945 57.8121
" />
<path d="M29.4644 59.0217
L29.3435 59.0821
" />
<path d="M29.3435 59.0821
L29.1016 59.0821
" />
<path d="M29.1016 59.0821
L28.9806 59.0217
" />
<path d="M28.9806 59.0217
L28.9202 58.9007
" />
<path d="M28.9202 58.9007
L28.9202 58.4169
" />
<path d="M28.9202 58.4169
L28.9806 58.2959
" />
<path d="M28.9806 58.2959
L29.1016 58.2355
" />
<path d="M29.1016 58.2355
L29.3435 58.2355
" />
<path d="M29.3435 58.2355
L29.4644 58.2959
" />
<path d="M29.4644 58.2959
L29.5249 58.4169
" />
<path d="M29.5249 58.4169
L29.5249 58.5378
" />
<path d="M29.5249 58.5378
L28.9202 58.6588
" />
<path d="M29.9483 59.0821
L30.6135 58.2355
" />
<path d="M29.9483 58.2355
L30.6135 59.0821
" />
<path d="M31.6416 59.0821
L31.6416 58.4169
" />
<path d="M31.6416 58.4169
L31.5811 58.2959
" />
<path d="M31.5811 58.2959
L31.4602 58.2355
" />
<path d="M31.4602 58.2355
L31.2183 58.2355
" />
<path d="M31.2183 58.2355
L31.0973 58.2959
" />
<path d="M31.6416 59.0217
L31.5207 59.0821
" />
<path d="M31.5207 59.0821
L31.2183 59.0821
" />
<path d="M31.2183 59.0821
L31.0973 59.0217
" />
<path d="M31.0973 59.0217
L31.0369 58.9007
" />
<path d="M31.0369 58.9007
L31.0369 58.7797
" />
<path d="M31.0369 58.7797
L31.0973 58.6588
" />
<path d="M31.0973 58.6588
L31.2183 58.5983
" />
<path d="M31.2183 58.5983
L31.5207 58.5983
" />
<path d="M31.5207 58.5983
L31.6416 58.5378
" />
<path d="M32.1859 59.0217
L32.3068 59.0821
" />
<path d="M32.3068 59.0821
L32.5487 59.0821
" />
<path d="M32.5487 59.0821
L32.6697 59.0217
" />
<path d="M32.6697 59.0217
L32.7301 58.9007
" />
<path d="M32.7301 58.9007
L32.7301 58.8402
" />
<path d="M32.7301 58.8402
L32.6697 58.7193
" />
<path d="M32.6697 58.7193
L32.5487 58.6588
" />
<path d="M32.5487 58.6588
L32.3673 58.6588
" />
<path d="M32.3673 58.6588
L32.2463 58.5983
" />
<path d="M32.2463 58.5983
L32.1859 58.4774
" />
<path d="M32.1859 58.4774
L32.1859 58.4169
" />
<path d="M32.1859 58.4169
L32.2463 58.2959
" />
<path d="M32.2463 58.2959
L32.3673 58.2355
" />
<path d="M32.3673 58.2355
L32.5487 58.2355
" />
<path d="M32.5487 58.2355
L32.6697 58.2959
" />
<path d="M32.9721 59.2031
L33.9397 59.2031
" />
<path d="M34.9677 59.0821
L34.5444 58.4774
" />
<path d="M34.2420 59.0821
L34.2420 57.8121
" />
<path d="M34.2420 57.8121
L34.7258 57.8121
" />
<path d="M34.7258 57.8121
L34.8468 57.8726
" />
<path d="M34.8468 57.8726
L34.9073 57.9331
" />
<path d="M34.9073 57.9331
L34.9677 58.0540
" />
<path d="M34.9677 58.0540
L34.9677 58.2355
" />
<path d="M34.9677 58.2355
L34.9073 58.3564
" />
<path d="M34.9073 58.3564
L34.8468 58.4169
" />
<path d="M34.8468 58.4169
L34.7258 58.4774
" />
<path d="M34.7258 58.4774
L34.2420 58.4774
" />
<path d="M36.1773 57.8726
L36.0563 57.8121
" />
<path d="M36.0563 57.8121
L35.8749 57.8121
" />
<path d="M35.8749 57.8121
L35.6935 57.8726
" />
<path d="M35.6935 57.8726
L35.5725 57.9936
" />
<path d="M35.5725 57.9936
L35.5120 58.1145
" />
<path d="M35.5120 58.1145
L35.4516 58.3564
" />
<path d="M35.4516 58.3564
L35.4516 58.5378
" />
<path d="M35.4516 58.5378
L35.5120 58.7797
" />
<path d="M35.5120 58.7797
L35.5725 58.9007
" />
<path d="M35.5725 58.9007
L35.6935 59.0217
" />
<path d="M35.6935 59.0217
L35.8749 59.0821
" />
<path d="M35.8749 59.0821
L35.9958 59.0821
" />
<path d="M35.9958 59.0821
L36.1773 59.0217
" />
<path d="M36.1773 59.0217
L36.2377 58.9612
" />
<path d="M36.2377 58.9612
L36.2377 58.5378
" />
<path d="M36.2377 58.5378
L35.9958 58.5378
" />
<path d="M36.7820 58.4169
L37.2054 58.4169
" />
<path d="M37.3868 59.0821
L36.7820 59.0821
" />
<path d="M36.7820 59.0821
L36.7820 57.8121
" />
<path d="M36.7820 57.8121
L37.3868 57.8121
" />
<path d="M38.1729 57.8121
L38.2939 57.8121
" />
<path d="M38.2939 57.8121
L38.4148 57.8726
" />
<path d="M38.4148 57.8726
L38.4753 57.9331
" />
<path d="M38.4753 57.9331
L38.5358 58.0540
" />
<path d="M38.5358 58.0540
L38.5963 58.2959
" />
<path d="M38.5963 58.2959
L38.5963 58.5983
" />
<path d="M38.5963 58.5983
L38.5358 58.8402
" />
<path d="M38.5358 58.8402
L38.4753 58.9612
" />
<path d="M38.4753 58.9612
L38.4148 59.0217
" />
<path d="M38.4148 59.0217
L38.2939 59.0821
" />
<path d="M38.2939 59.0821
L38.1729 59.0821
" />
<path d="M38.1729 59.0821
L38.0520 59.0217
" />
<path d="M38.0520 59.0217
L37.9915 58.9612
" />
<path d="M37.9915 58.9612
L37.9310 58.8402
" />
<path d="M37.9310 58.8402
L37.8706 58.5983
" />
<path d="M37.8706 58.5983
L37.8706 58.2959
" />
<path d="M37.8706 58.2959
L37.9310 58.0540
" />
<path d="M37.9310 58.0540
L37.9915 57.9331
" />
<path d="M37.9915 57.9331
L38.0520 57.8726
" />
<path d="M38.0520 57.8726
L38.1729 57.8121
" />
<path d="M39.3824 57.8121
L39.5034 57.8121
" />
<path d="M39.5034 57.8121
L39.6243 57.8726
" />
<path d="M39.6243 57.8726
L39.6848 57.9331
" />
<path d="M39.6848 57.9331
L39.7453 58.0540
" />
<path d="M39.7453 58.0540
L39.8058 58.2959
" />
<path d="M39.8058 58.2959
L39.8058 58.5983
" />
<path d="M39.8058 58.5983
L39.7453 58.8402
" />
<path d="M39.7453 58.8402
L39.6848 58.9612
" />
<path d="M39.6848 58.9612
L39.6243 59.0217
" />
<path d="M39.6243 59.0217
L39.5034 59.0821
" />
<path d="M39.5034 59.0821
L39.3824 59.0821
" />
<path d="M39.3824 59.0821
L39.2615 59.0217
" />
<path d="M39.2615 59.0217
L39.2010 58.9612
" />
<path d="M39.2010 58.9612
L39.1405 58.8402
" />
<path d="M39.1405 58.8402
L39.0801 58.5983
" />
<path d="M39.0801 58.5983
L39.0801 58.2959
" />
<path d="M39.0801 58.2959
L39.1405 58.0540
" />
<path d="M39.1405 58.0540
L39.2010 57.9331
" />
<path d="M39.2010 57.9331
L39.2615 57.8726
" />
<path d="M39.2615 57.8726
L39.3824 57.8121
" />
<path d="M40.2896 57.9331
L40.3500 57.8726
" />
<path d="M40.3500 57.8726
L40.4710 57.8121
" />
<path d="M40.4710 57.8121
L40.7734 57.8121
" />
<path d="M40.7734 57.8121
L40.8943 57.8726
" />
<path d="M40.8943 57.8726
L40.9548 57.9331
" />
<path d="M40.9548 57.9331
L41.0153 58.0540
" />
<path d="M41.0153 58.0540
L41.0153 58.1750
" />
<path d="M41.0153 58.1750
L40.9548 58.3564
" />
<path d="M40.9548 58.3564
L40.2291 59.0821
" />
<path d="M40.2291 59.0821
L41.0153 59.0821
" />
<path d="M42.1038 58.2355
L42.1038 59.0821
" />
<path d="M41.8014 57.7517
L41.4991 58.6588
" />
<path d="M41.4991 58.6588
L42.2852 58.6588
" />
<path d="M42.7690 59.0821
L42.7690 57.8121
" />
<path d="M42.7690 58.4169
L43.4947 58.4169
" />
<path d="M43.4947 59.0821
L43.4947 57.8121
" />
<path d="M43.7972 59.2031
L44.7648 59.2031
" />
<path d="M45.0671 58.4169
L45.4905 58.4169
" />
<path d="M45.6719 59.0821
L45.0671 59.0821
" />
<path d="M45.0671 59.0821
L45.0671 57.8121
" />
<path d="M45.0671 57.8121
L45.6719 57.8121
" />
<path d="M46.2161 59.0821
L46.2161 57.8121
" />
<path d="M46.2161 57.8121
L46.6999 57.8121
" />
<path d="M46.6999 57.8121
L46.8209 57.8726
" />
<path d="M46.8209 57.8726
L46.8814 57.9331
" />
<path d="M46.8814 57.9331
L46.9418 58.0540
" />
<path d="M46.9418 58.0540
L46.9418 58.2355
" />
<path d="M46.9418 58.2355
L46.8814 58.3564
" />
<path d="M46.8814 58.3564
L46.8209 58.4169
" />
<path d="M46.8209 58.4169
L46.6999 58.4774
" />
<path d="M46.6999 58.4774
L46.2161 58.4774
" />
<path d="M47.4257 57.9331
L47.4861 57.8726
" />
<path d="M47.4861 57.8726
L47.6071 57.8121
" />
<path d="M47.6071 57.8121
L47.9095 57.8121
" />
<path d="M47.9095 57.8121
L48.0304 57.8726
" />
<path d="M48.0304 57.8726
L48.0909 57.9331
" />
<path d="M48.0909 57.9331
L48.1514 58.0540
" />
<path d="M48.1514 58.0540
L48.1514 58.1750
" />
<path d="M48.1514 58.1750
L48.0909 58.3564
" />
<path d="M48.0909 58.3564
L47.3652 59.0821
" />
<path d="M47.3652 59.0821
L48.1514 59.0821
" />
<path d="M48.6956 58.9612
L48.7561 59.0217
" />
<path d="M48.7561 59.0217
L48.6956 59.0821
" />
<path d="M48.6956 59.0821
L48.6352 59.0217
" />
<path d="M48.6352 59.0217
L48.6956 58.9612
" />
<path d="M48.6956 58.9612
L48.6956 59.0821
" />
<path d="M49.1795 57.8121
L50.0261 57.8121
" />
<path d="M50.0261 57.8121
L49.4819 59.0821
" />
<path d="M50.3890 59.0821
L51.0542 58.2355
" />
<path d="M50.3890 58.2355
L51.0542 59.0821
" />
<path d="M51.4776 57.9331
L51.5380 57.8726
" />
<path d="M51.5380 57.8726
L51.6590 57.8121
" />
<path d="M51.6590 57.8121
L51.9614 57.8121
" />
<path d="M51.9614 57.8121
L52.0823 57.8726
" />
<path d="M52.0823 57.8726
L52.1428 57.9331
" />
<path d="M52.1428 57.9331
L52.2033 58.0540
" />
<path d="M52.2033 58.0540
L52.2033 58.1750
" />
<path d="M52.2033 58.1750
L52.1428 58.3564
" />
<path d="M52.1428 58.3564
L51.4171 59.0821
" />
<path d="M51.4171 59.0821
L52.2033 59.0821
" />
<path d="M52.7475 58.9612
L52.8080 59.0217
" />
<path d="M52.8080 59.0217
L52.7475 59.0821
" />
<path d="M52.7475 59.0821
L52.6871 59.0217
" />
<path d="M52.6871 59.0217
L52.7475 58.9612
" />
<path d="M52.7475 58.9612
L52.7475 59.0821
" />
<path d="M53.2314 57.8121
L54.0780 57.8121
" />
<path d="M54.0780 57.8121
L53.5338 59.0821
" />
<path d="M54.5618 59.0821
L54.5618 58.2355
" />
<path d="M54.5618 58.3564
L54.6223 58.2959
" />
<path d="M54.6223 58.2959
L54.7433 58.2355
" />
<path d="M54.7433 58.2355
L54.9247 58.2355
" />
<path d="M54.9247 58.2355
L55.0456 58.2959
" />
<path d="M55.0456 58.2959
L55.1061 58.4169
" />
<path d="M55.1061 58.4169
L55.1061 59.0821
" />
<path d="M55.1061 58.4169
L55.1666 58.2959
" />
<path d="M55.1666 58.2959
L55.2875 58.2355
" />
<path d="M55.2875 58.2355
L55.4690 58.2355
" />
<path d="M55.4690 58.2355
L55.5899 58.2959
" />
<path d="M55.5899 58.2959
L55.6504 58.4169
" />
<path d="M55.6504 58.4169
L55.6504 59.0821
" />
<path d="M56.2551 59.0821
L56.2551 58.2355
" />
<path d="M56.2551 58.3564
L56.3156 58.2959
" />
<path d="M56.3156 58.2959
L56.4366 58.2355
" />
<path d="M56.4366 58.2355
L56.6180 58.2355
" />
<path d="M56.6180 58.2355
L56.7389 58.2959
" />
<path d="M56.7389 58.2959
L56.7994 58.4169
" />
<path d="M56.7994 58.4169
L56.7994 59.0821
" />
<path d="M56.7994 58.4169
L56.8599 58.2959
" />
<path d="M56.8599 58.2959
L56.9808 58.2355
" />
<path d="M56.9808 58.2355
L57.1623 58.2355
" />
<path d="M57.1623 58.2355
L57.2832 58.2959
" />
<path d="M57.2832 58.2959
L57.3437 58.4169
" />
<path d="M57.3437 58.4169
L57.3437 59.0821
" />
<path d="M57.6461 59.2031
L58.6137 59.2031
" />
<path d="M58.7346 57.8121
L59.4603 57.8121
" />
<path d="M59.0975 59.0821
L59.0975 57.8121
" />
<path d="M59.8836 59.0821
L59.8836 57.8121
" />
<path d="M60.4279 59.0821
L60.4279 58.4169
" />
<path d="M60.4279 58.4169
L60.3674 58.2959
" />
<path d="M60.3674 58.2959
L60.2465 58.2355
" />
<path d="M60.2465 58.2355
L60.0651 58.2355
" />
<path d="M60.0651 58.2355
L59.9441 58.2959
" />
<path d="M59.9441 58.2959
L59.8836 58.3564
" />
<path d="M61.5164 59.0217
L61.3955 59.0821
" />
<path d="M61.3955 59.0821
L61.1536 59.0821
" />
<path d="M61.1536 59.0821
L61.0326 59.0217
" />
<path d="M61.0326 59.0217
L60.9722 58.9007
" />
<path d="M60.9722 58.9007
L60.9722 58.4169
" />
<path d="M60.9722 58.4169
L61.0326 58.2959
" />
<path d="M61.0326 58.2959
L61.1536 58.2355
" />
<path d="M61.1536 58.2355
L61.3955 58.2355
" />
<path d="M61.3955 58.2355
L61.5164 58.2959
" />
<path d="M61.5164 58.2959
L61.5769 58.4169
" />
<path d="M61.5769 58.4169
L61.5769 58.5378
" />
<path d="M61.5769 58.5378
L60.9722 58.6588
" />
<path d="M62.1212 59.0821
L62.1212 58.2355
" />
<path d="M62.1212 58.4774
L62.1817 58.3564
" />
<path d="M62.1817 58.3564
L62.2422 58.2959
" />
<path d="M62.2422 58.2959
L62.3631 58.2355
" />
<path d="M62.3631 58.2355
L62.4841 58.2355
" />
<path d="M62.9074 59.0821
L62.9074 58.2355
" />
<path d="M62.9074 58.3564
L62.9679 58.2959
" />
<path d="M62.9679 58.2959
L63.0889 58.2355
" />
<path d="M63.0889 58.2355
L63.2703 58.2355
" />
<path d="M63.2703 58.2355
L63.3912 58.2959
" />
<path d="M63.3912 58.2959
L63.4517 58.4169
" />
<path d="M63.4517 58.4169
L63.4517 59.0821
" />
<path d="M63.4517 58.4169
L63.5122 58.2959
" />
<path d="M63.5122 58.2959
L63.6331 58.2355
" />
<path d="M63.6331 58.2355
L63.8146 58.2355
" />
<path d="M63.8146 58.2355
L63.9355 58.2959
" />
<path d="M63.9355 58.2959
L63.9960 58.4169
" />
<path d="M63.9960 58.4169
L63.9960 59.0821
" />
<path d="M65.1450 59.0821
L65.1450 58.4169
" />
<path d="M65.1450 58.4169
L65.0845 58.2959
" />
<path d="M65.0845 58.2959
L64.9636 58.2355
" />
<path d="M64.9636 58.2355
L64.7217 58.2355
" />
<path d="M64.7217 58.2355
L64.6007 58.2959
" />
<path d="M65.1450 59.0217
L65.0241 59.0821
" />
<path d="M65.0241 59.0821
L64.7217 59.0821
" />
<path d="M64.7217 59.0821
L64.6007 59.0217
" />
<path d="M64.6007 59.0217
L64.5403 58.9007
" />
<path d="M64.5403 58.9007
L64.5403 58.7797
" />
<path d="M64.5403 58.7797
L64.6007 58.6588
" />
<path d="M64.6007 58.6588
L64.7217 58.5983
" />
<path d="M64.7217 58.5983
L65.0241 58.5983
" />
<path d="M65.0241 58.5983
L65.1450 58.5378
" />
<path d="M65.9312 59.0821
L65.8102 59.0217
" />
<path d="M65.8102 59.0217
L65.7497 58.9007
" />
<path d="M65.7497 58.9007
L65.7497 57.8121
" />
<path d="M66.2335 57.8121
L66.6568 59.0821
" />
<path d="M66.6568 59.0821
L67.0802 57.8121
" />
<path d="M67.5035 59.0821
L67.5035 58.2355
" />
<path d="M67.5035 57.8121
L67.4431 57.8726
" />
<path d="M67.4431 57.8726
L67.5035 57.9331
" />
<path d="M67.5035 57.9331
L67.5640 57.8726
" />
<path d="M67.5640 57.8726
L67.5035 57.8121
" />
<path d="M67.5035 57.8121
L67.5035 57.9331
" />
<path d="M68.6526 59.0821
L68.6526 58.4169
" />
<path d="M68.6526 58.4169
L68.5921 58.2959
" />
<path d="M68.5921 58.2959
L68.4712 58.2355
" />
<path d="M68.4712 58.2355
L68.2293 58.2355
" />
<path d="M68.2293 58.2355
L68.1083 58.2959
" />
<path d="M68.6526 59.0217
L68.5317 59.0821
" />
<path d="M68.5317 59.0821
L68.2293 59.0821
" />
<path d="M68.2293 59.0821
L68.1083 59.0217
" />
<path d="M68.1083 59.0217
L68.0479 58.9007
" />
<path d="M68.0479 58.9007
L68.0479 58.7797
" />
<path d="M68.0479 58.7797
L68.1083 58.6588
" />
<path d="M68.1083 58.6588
L68.2293 58.5983
" />
<path d="M68.2293 58.5983
L68.5317 58.5983
" />
<path d="M68.5317 58.5983
L68.6526 58.5378
" />
<path d="M69.1969 59.0217
L69.3178 59.0821
" />
<path d="M69.3178 59.0821
L69.5597 59.0821
" />
<path d="M69.5597 59.0821
L69.6807 59.0217
" />
<path d="M69.6807 59.0217
L69.7411 58.9007
" />
<path d="M69.7411 58.9007
L69.7411 58.8402
" />
<path d="M69.7411 58.8402
L69.6807 58.7193
" />
<path d="M69.6807 58.7193
L69.5597 58.6588
" />
<path d="M69.5597 58.6588
L69.3783 58.6588
" />
<path d="M69.3783 58.6588
L69.2573 58.5983
" />
<path d="M69.2573 58.5983
L69.1969 58.4774
" />
<path d="M69.1969 58.4774
L69.1969 58.4169
" />
<path d="M69.1969 58.4169
L69.2573 58.2959
" />
<path d="M69.2573 58.2959
L69.3783 58.2355
" />
<path d="M69.3783 58.2355
L69.5597 58.2355
" />
<path d="M69.5597 58.2355
L69.6807 58.2959
" />
</g><text x="29.7364" y="7.0679"
textLength="46.7284" font-size="1.6933" lengthAdjust="spacingAndGlyphs"
text-anchor="middle" opacity="0">https://www.ti.com/lit/ds/symlink/tps2663.pdf</text>
<g class="stroked-text"><desc>https://www.ti.com/lit/ds/symlink/tps2663.pdf</desc>
<path d="M6.7857 7.0121
L6.7857 5.7421
" />
<path d="M7.3300 7.0121
L7.3300 6.3469
" />
<path d="M7.3300 6.3469
L7.2695 6.2259
" />
<path d="M7.2695 6.2259
L7.1486 6.1655
" />
<path d="M7.1486 6.1655
L6.9672 6.1655
" />
<path d="M6.9672 6.1655
L6.8462 6.2259
" />
<path d="M6.8462 6.2259
L6.7857 6.2864
" />
<path d="M7.7533 6.1655
L8.2371 6.1655
" />
<path d="M7.9347 5.7421
L7.9347 6.8307
" />
<path d="M7.9347 6.8307
L7.9952 6.9517
" />
<path d="M7.9952 6.9517
L8.1162 7.0121
" />
<path d="M8.1162 7.0121
L8.2371 7.0121
" />
<path d="M8.4790 6.1655
L8.9628 6.1655
" />
<path d="M8.6604 5.7421
L8.6604 6.8307
" />
<path d="M8.6604 6.8307
L8.7209 6.9517
" />
<path d="M8.7209 6.9517
L8.8419 7.0121
" />
<path d="M8.8419 7.0121
L8.9628 7.0121
" />
<path d="M9.3861 6.1655
L9.3861 7.4355
" />
<path d="M9.3861 6.2259
L9.5071 6.1655
" />
<path d="M9.5071 6.1655
L9.7490 6.1655
" />
<path d="M9.7490 6.1655
L9.8699 6.2259
" />
<path d="M9.8699 6.2259
L9.9304 6.2864
" />
<path d="M9.9304 6.2864
L9.9909 6.4074
" />
<path d="M9.9909 6.4074
L9.9909 6.7702
" />
<path d="M9.9909 6.7702
L9.9304 6.8912
" />
<path d="M9.9304 6.8912
L9.8699 6.9517
" />
<path d="M9.8699 6.9517
L9.7490 7.0121
" />
<path d="M9.7490 7.0121
L9.5071 7.0121
" />
<path d="M9.5071 7.0121
L9.3861 6.9517
" />
<path d="M10.4747 6.9517
L10.5956 7.0121
" />
<path d="M10.5956 7.0121
L10.8375 7.0121
" />
<path d="M10.8375 7.0121
L10.9585 6.9517
" />
<path d="M10.9585 6.9517
L11.0189 6.8307
" />
<path d="M11.0189 6.8307
L11.0189 6.7702
" />
<path d="M11.0189 6.7702
L10.9585 6.6493
" />
<path d="M10.9585 6.6493
L10.8375 6.5888
" />
<path d="M10.8375 6.5888
L10.6561 6.5888
" />
<path d="M10.6561 6.5888
L10.5351 6.5283
" />
<path d="M10.5351 6.5283
L10.4747 6.4074
" />
<path d="M10.4747 6.4074
L10.4747 6.3469
" />
<path d="M10.4747 6.3469
L10.5351 6.2259
" />
<path d="M10.5351 6.2259
L10.6561 6.1655
" />
<path d="M10.6561 6.1655
L10.8375 6.1655
" />
<path d="M10.8375 6.1655
L10.9585 6.2259
" />
<path d="M11.5632 6.8912
L11.6237 6.9517
" />
<path d="M11.6237 6.9517
L11.5632 7.0121
" />
<path d="M11.5632 7.0121
L11.5028 6.9517
" />
<path d="M11.5028 6.9517
L11.5632 6.8912
" />
<path d="M11.5632 6.8912
L11.5632 7.0121
" />
<path d="M11.5632 6.2259
L11.6237 6.2864
" />
<path d="M11.6237 6.2864
L11.5632 6.3469
" />
<path d="M11.5632 6.3469
L11.5028 6.2864
" />
<path d="M11.5028 6.2864
L11.5632 6.2259
" />
<path d="M11.5632 6.2259
L11.5632 6.3469
" />
<path d="M13.0752 5.6817
L11.9866 7.3145
" />
<path d="M14.4057 5.6817
L13.3171 7.3145
" />
<path d="M14.7081 6.1655
L14.9500 7.0121
" />
<path d="M14.9500 7.0121
L15.1919 6.4074
" />
<path d="M15.1919 6.4074
L15.4338 7.0121
" />
<path d="M15.4338 7.0121
L15.6757 6.1655
" />
<path d="M16.0386 6.1655
L16.2805 7.0121
" />
<path d="M16.2805 7.0121
L16.5224 6.4074
" />
<path d="M16.5224 6.4074
L16.7643 7.0121
" />
<path d="M16.7643 7.0121
L17.0062 6.1655
" />
<path d="M17.3691 6.1655
L17.6110 7.0121
" />
<path d="M17.6110 7.0121
L17.8529 6.4074
" />
<path d="M17.8529 6.4074
L18.0948 7.0121
" />
<path d="M18.0948 7.0121
L18.3367 6.1655
" />
<path d="M18.8205 6.8912
L18.8810 6.9517
" />
<path d="M18.8810 6.9517
L18.8205 7.0121
" />
<path d="M18.8205 7.0121
L18.7601 6.9517
" />
<path d="M18.7601 6.9517
L18.8205 6.8912
" />
<path d="M18.8205 6.8912
L18.8205 7.0121
" />
<path d="M19.2439 6.1655
L19.7277 6.1655
" />
<path d="M19.4253 5.7421
L19.4253 6.8307
" />
<path d="M19.4253 6.8307
L19.4858 6.9517
" />
<path d="M19.4858 6.9517
L19.6068 7.0121
" />
<path d="M19.6068 7.0121
L19.7277 7.0121
" />
<path d="M20.1510 7.0121
L20.1510 6.1655
" />
<path d="M20.1510 5.7421
L20.0906 5.8026
" />
<path d="M20.0906 5.8026
L20.1510 5.8631
" />
<path d="M20.1510 5.8631
L20.2115 5.8026
" />
<path d="M20.2115 5.8026
L20.1510 5.7421
" />
<path d="M20.1510 5.7421
L20.1510 5.8631
" />
<path d="M20.7558 6.8912
L20.8163 6.9517
" />
<path d="M20.8163 6.9517
L20.7558 7.0121
" />
<path d="M20.7558 7.0121
L20.6954 6.9517
" />
<path d="M20.6954 6.9517
L20.7558 6.8912
" />
<path d="M20.7558 6.8912
L20.7558 7.0121
" />
<path d="M21.9049 6.9517
L21.7840 7.0121
" />
<path d="M21.7840 7.0121
L21.5421 7.0121
" />
<path d="M21.5421 7.0121
L21.4211 6.9517
" />
<path d="M21.4211 6.9517
L21.3606 6.8912
" />
<path d="M21.3606 6.8912
L21.3002 6.7702
" />
<path d="M21.3002 6.7702
L21.3002 6.4074
" />
<path d="M21.3002 6.4074
L21.3606 6.2864
" />
<path d="M21.3606 6.2864
L21.4211 6.2259
" />
<path d="M21.4211 6.2259
L21.5421 6.1655
" />
<path d="M21.5421 6.1655
L21.7840 6.1655
" />
<path d="M21.7840 6.1655
L21.9049 6.2259
" />
<path d="M22.6307 7.0121
L22.5097 6.9517
" />
<path d="M22.5097 6.9517
L22.4492 6.8912
" />
<path d="M22.4492 6.8912
L22.3888 6.7702
" />
<path d="M22.3888 6.7702
L22.3888 6.4074
" />
<path d="M22.3888 6.4074
L22.4492 6.2864
" />
<path d="M22.4492 6.2864
L22.5097 6.2259
" />
<path d="M22.5097 6.2259
L22.6307 6.1655
" />
<path d="M22.6307 6.1655
L22.8121 6.1655
" />
<path d="M22.8121 6.1655
L22.9330 6.2259
" />
<path d="M22.9330 6.2259
L22.9935 6.2864
" />
<path d="M22.9935 6.2864
L23.0540 6.4074
" />
<path d="M23.0540 6.4074
L23.0540 6.7702
" />
<path d="M23.0540 6.7702
L22.9935 6.8912
" />
<path d="M22.9935 6.8912
L22.9330 6.9517
" />
<path d="M22.9330 6.9517
L22.8121 7.0121
" />
<path d="M22.8121 7.0121
L22.6307 7.0121
" />
<path d="M23.5982 7.0121
L23.5982 6.1655
" />
<path d="M23.5982 6.2864
L23.6587 6.2259
" />
<path d="M23.6587 6.2259
L23.7797 6.1655
" />
<path d="M23.7797 6.1655
L23.9611 6.1655
" />
<path d="M23.9611 6.1655
L24.0820 6.2259
" />
<path d="M24.0820 6.2259
L24.1425 6.3469
" />
<path d="M24.1425 6.3469
L24.1425 7.0121
" />
<path d="M24.1425 6.3469
L24.2030 6.2259
" />
<path d="M24.2030 6.2259
L24.3239 6.1655
" />
<path d="M24.3239 6.1655
L24.5054 6.1655
" />
<path d="M24.5054 6.1655
L24.6263 6.2259
" />
<path d="M24.6263 6.2259
L24.6868 6.3469
" />
<path d="M24.6868 6.3469
L24.6868 7.0121
" />
<path d="M26.1987 5.6817
L25.1101 7.3145
" />
<path d="M26.8035 7.0121
L26.6825 6.9517
" />
<path d="M26.6825 6.9517
L26.6220 6.8307
" />
<path d="M26.6220 6.8307
L26.6220 5.7421
" />
<path d="M27.2872 7.0121
L27.2872 6.1655
" />
<path d="M27.2872 5.7421
L27.2268 5.8026
" />
<path d="M27.2268 5.8026
L27.2872 5.8631
" />
<path d="M27.2872 5.8631
L27.3477 5.8026
" />
<path d="M27.3477 5.8026
L27.2872 5.7421
" />
<path d="M27.2872 5.7421
L27.2872 5.8631
" />
<path d="M27.7106 6.1655
L28.1944 6.1655
" />
<path d="M27.8920 5.7421
L27.8920 6.8307
" />
<path d="M27.8920 6.8307
L27.9525 6.9517
" />
<path d="M27.9525 6.9517
L28.0735 7.0121
" />
<path d="M28.0735 7.0121
L28.1944 7.0121
" />
<path d="M29.5249 5.6817
L28.4363 7.3145
" />
<path d="M30.4925 7.0121
L30.4925 5.7421
" />
<path d="M30.4925 6.9517
L30.3716 7.0121
" />
<path d="M30.3716 7.0121
L30.1297 7.0121
" />
<path d="M30.1297 7.0121
L30.0087 6.9517
" />
<path d="M30.0087 6.9517
L29.9482 6.8912
" />
<path d="M29.9482 6.8912
L29.8878 6.7702
" />
<path d="M29.8878 6.7702
L29.8878 6.4074
" />
<path d="M29.8878 6.4074
L29.9482 6.2864
" />
<path d="M29.9482 6.2864
L30.0087 6.2259
" />
<path d="M30.0087 6.2259
L30.1297 6.1655
" />
<path d="M30.1297 6.1655
L30.3716 6.1655
" />
<path d="M30.3716 6.1655
L30.4925 6.2259
" />
<path d="M31.0368 6.9517
L31.1577 7.0121
" />
<path d="M31.1577 7.0121
L31.3996 7.0121
" />
<path d="M31.3996 7.0121
L31.5206 6.9517
" />
<path d="M31.5206 6.9517
L31.5810 6.8307
" />
<path d="M31.5810 6.8307
L31.5810 6.7702
" />
<path d="M31.5810 6.7702
L31.5206 6.6493
" />
<path d="M31.5206 6.6493
L31.3996 6.5888
" />
<path d="M31.3996 6.5888
L31.2182 6.5888
" />
<path d="M31.2182 6.5888
L31.0972 6.5283
" />
<path d="M31.0972 6.5283
L31.0368 6.4074
" />
<path d="M31.0368 6.4074
L31.0368 6.3469
" />
<path d="M31.0368 6.3469
L31.0972 6.2259
" />
<path d="M31.0972 6.2259
L31.2182 6.1655
" />
<path d="M31.2182 6.1655
L31.3996 6.1655
" />
<path d="M31.3996 6.1655
L31.5206 6.2259
" />
<path d="M33.0325 5.6817
L31.9439 7.3145
" />
<path d="M33.3954 6.9517
L33.5163 7.0121
" />
<path d="M33.5163 7.0121
L33.7582 7.0121
" />
<path d="M33.7582 7.0121
L33.8792 6.9517
" />
<path d="M33.8792 6.9517
L33.9396 6.8307
" />
<path d="M33.9396 6.8307
L33.9396 6.7702
" />
<path d="M33.9396 6.7702
L33.8792 6.6493
" />
<path d="M33.8792 6.6493
L33.7582 6.5888
" />
<path d="M33.7582 6.5888
L33.5768 6.5888
" />
<path d="M33.5768 6.5888
L33.4558 6.5283
" />
<path d="M33.4558 6.5283
L33.3954 6.4074
" />
<path d="M33.3954 6.4074
L33.3954 6.3469
" />
<path d="M33.3954 6.3469
L33.4558 6.2259
" />
<path d="M33.4558 6.2259
L33.5768 6.1655
" />
<path d="M33.5768 6.1655
L33.7582 6.1655
" />
<path d="M33.7582 6.1655
L33.8792 6.2259
" />
<path d="M34.3630 6.1655
L34.6654 7.0121
" />
<path d="M34.9677 6.1655
L34.6654 7.0121
" />
<path d="M34.6654 7.0121
L34.5444 7.3145
" />
<path d="M34.5444 7.3145
L34.4839 7.3750
" />
<path d="M34.4839 7.3750
L34.3630 7.4355
" />
<path d="M35.4515 7.0121
L35.4515 6.1655
" />
<path d="M35.4515 6.2864
L35.5120 6.2259
" />
<path d="M35.5120 6.2259
L35.6330 6.1655
" />
<path d="M35.6330 6.1655
L35.8144 6.1655
" />
<path d="M35.8144 6.1655
L35.9353 6.2259
" />
<path d="M35.9353 6.2259
L35.9958 6.3469
" />
<path d="M35.9958 6.3469
L35.9958 7.0121
" />
<path d="M35.9958 6.3469
L36.0563 6.2259
" />
<path d="M36.0563 6.2259
L36.1772 6.1655
" />
<path d="M36.1772 6.1655
L36.3587 6.1655
" />
<path d="M36.3587 6.1655
L36.4796 6.2259
" />
<path d="M36.4796 6.2259
L36.5401 6.3469
" />
<path d="M36.5401 6.3469
L36.5401 7.0121
" />
<path d="M37.3263 7.0121
L37.2053 6.9517
" />
<path d="M37.2053 6.9517
L37.1448 6.8307
" />
<path d="M37.1448 6.8307
L37.1448 5.7421
" />
<path d="M37.8100 7.0121
L37.8100 6.1655
" />
<path d="M37.8100 5.7421
L37.7496 5.8026
" />
<path d="M37.7496 5.8026
L37.8100 5.8631
" />
<path d="M37.8100 5.8631
L37.8705 5.8026
" />
<path d="M37.8705 5.8026
L37.8100 5.7421
" />
<path d="M37.8100 5.7421
L37.8100 5.8631
" />
<path d="M38.4148 6.1655
L38.4148 7.0121
" />
<path d="M38.4148 6.2864
L38.4753 6.2259
" />
<path d="M38.4753 6.2259
L38.5963 6.1655
" />
<path d="M38.5963 6.1655
L38.7777 6.1655
" />
<path d="M38.7777 6.1655
L38.8986 6.2259
" />
<path d="M38.8986 6.2259
L38.9591 6.3469
" />
<path d="M38.9591 6.3469
L38.9591 7.0121
" />
<path d="M39.5638 7.0121
L39.5638 5.7421
" />
<path d="M39.6848 6.5283
L40.0476 7.0121
" />
<path d="M40.0476 6.1655
L39.5638 6.6493
" />
<path d="M41.4991 5.6817
L40.4105 7.3145
" />
<path d="M41.7410 6.1655
L42.2248 6.1655
" />
<path d="M41.9224 5.7421
L41.9224 6.8307
" />
<path d="M41.9224 6.8307
L41.9829 6.9517
" />
<path d="M41.9829 6.9517
L42.1039 7.0121
" />
<path d="M42.1039 7.0121
L42.2248 7.0121
" />
<path d="M42.6481 6.1655
L42.6481 7.4355
" />
<path d="M42.6481 6.2259
L42.7691 6.1655
" />
<path d="M42.7691 6.1655
L43.0110 6.1655
" />
<path d="M43.0110 6.1655
L43.1319 6.2259
" />
<path d="M43.1319 6.2259
L43.1924 6.2864
" />
<path d="M43.1924 6.2864
L43.2529 6.4074
" />
<path d="M43.2529 6.4074
L43.2529 6.7702
" />
<path d="M43.2529 6.7702
L43.1924 6.8912
" />
<path d="M43.1924 6.8912
L43.1319 6.9517
" />
<path d="M43.1319 6.9517
L43.0110 7.0121
" />
<path d="M43.0110 7.0121
L42.7691 7.0121
" />
<path d="M42.7691 7.0121
L42.6481 6.9517
" />
<path d="M43.7367 6.9517
L43.8576 7.0121
" />
<path d="M43.8576 7.0121
L44.0995 7.0121
" />
<path d="M44.0995 7.0121
L44.2205 6.9517
" />
<path d="M44.2205 6.9517
L44.2809 6.8307
" />
<path d="M44.2809 6.8307
L44.2809 6.7702
" />
<path d="M44.2809 6.7702
L44.2205 6.6493
" />
<path d="M44.2205 6.6493
L44.0995 6.5888
" />
<path d="M44.0995 6.5888
L43.9181 6.5888
" />
<path d="M43.9181 6.5888
L43.7971 6.5283
" />
<path d="M43.7971 6.5283
L43.7367 6.4074
" />
<path d="M43.7367 6.4074
L43.7367 6.3469
" />
<path d="M43.7367 6.3469
L43.7971 6.2259
" />
<path d="M43.7971 6.2259
L43.9181 6.1655
" />
<path d="M43.9181 6.1655
L44.0995 6.1655
" />
<path d="M44.0995 6.1655
L44.2205 6.2259
" />
<path d="M44.7648 5.8631
L44.8252 5.8026
" />
<path d="M44.8252 5.8026
L44.9462 5.7421
" />
<path d="M44.9462 5.7421
L45.2486 5.7421
" />
<path d="M45.2486 5.7421
L45.3695 5.8026
" />
<path d="M45.3695 5.8026
L45.4300 5.8631
" />
<path d="M45.4300 5.8631
L45.4905 5.9840
" />
<path d="M45.4905 5.9840
L45.4905 6.1050
" />
<path d="M45.4905 6.1050
L45.4300 6.2864
" />
<path d="M45.4300 6.2864
L44.7043 7.0121
" />
<path d="M44.7043 7.0121
L45.4905 7.0121
" />
<path d="M46.5790 5.7421
L46.3371 5.7421
" />
<path d="M46.3371 5.7421
L46.2162 5.8026
" />
<path d="M46.2162 5.8026
L46.1557 5.8631
" />
<path d="M46.1557 5.8631
L46.0347 6.0445
" />
<path d="M46.0347 6.0445
L45.9743 6.2864
" />
<path d="M45.9743 6.2864
L45.9743 6.7702
" />
<path d="M45.9743 6.7702
L46.0347 6.8912
" />
<path d="M46.0347 6.8912
L46.0952 6.9517
" />
<path d="M46.0952 6.9517
L46.2162 7.0121
" />
<path d="M46.2162 7.0121
L46.4581 7.0121
" />
<path d="M46.4581 7.0121
L46.5790 6.9517
" />
<path d="M46.5790 6.9517
L46.6395 6.8912
" />
<path d="M46.6395 6.8912
L46.7000 6.7702
" />
<path d="M46.7000 6.7702
L46.7000 6.4678
" />
<path d="M46.7000 6.4678
L46.6395 6.3469
" />
<path d="M46.6395 6.3469
L46.5790 6.2864
" />
<path d="M46.5790 6.2864
L46.4581 6.2259
" />
<path d="M46.4581 6.2259
L46.2162 6.2259
" />
<path d="M46.2162 6.2259
L46.0952 6.2864
" />
<path d="M46.0952 6.2864
L46.0347 6.3469
" />
<path d="M46.0347 6.3469
L45.9743 6.4678
" />
<path d="M47.7885 5.7421
L47.5466 5.7421
" />
<path d="M47.5466 5.7421
L47.4257 5.8026
" />
<path d="M47.4257 5.8026
L47.3652 5.8631
" />
<path d="M47.3652 5.8631
L47.2442 6.0445
" />
<path d="M47.2442 6.0445
L47.1838 6.2864
" />
<path d="M47.1838 6.2864
L47.1838 6.7702
" />
<path d="M47.1838 6.7702
L47.2442 6.8912
" />
<path d="M47.2442 6.8912
L47.3047 6.9517
" />
<path d="M47.3047 6.9517
L47.4257 7.0121
" />
<path d="M47.4257 7.0121
L47.6676 7.0121
" />
<path d="M47.6676 7.0121
L47.7885 6.9517
" />
<path d="M47.7885 6.9517
L47.8490 6.8912
" />
<path d="M47.8490 6.8912
L47.9095 6.7702
" />
<path d="M47.9095 6.7702
L47.9095 6.4678
" />
<path d="M47.9095 6.4678
L47.8490 6.3469
" />
<path d="M47.8490 6.3469
L47.7885 6.2864
" />
<path d="M47.7885 6.2864
L47.6676 6.2259
" />
<path d="M47.6676 6.2259
L47.4257 6.2259
" />
<path d="M47.4257 6.2259
L47.3047 6.2864
" />
<path d="M47.3047 6.2864
L47.2442 6.3469
" />
<path d="M47.2442 6.3469
L47.1838 6.4678
" />
<path d="M48.3328 5.7421
L49.1190 5.7421
" />
<path d="M49.1190 5.7421
L48.6956 6.2259
" />
<path d="M48.6956 6.2259
L48.8771 6.2259
" />
<path d="M48.8771 6.2259
L48.9980 6.2864
" />
<path d="M48.9980 6.2864
L49.0585 6.3469
" />
<path d="M49.0585 6.3469
L49.1190 6.4678
" />
<path d="M49.1190 6.4678
L49.1190 6.7702
" />
<path d="M49.1190 6.7702
L49.0585 6.8912
" />
<path d="M49.0585 6.8912
L48.9980 6.9517
" />
<path d="M48.9980 6.9517
L48.8771 7.0121
" />
<path d="M48.8771 7.0121
L48.5142 7.0121
" />
<path d="M48.5142 7.0121
L48.3933 6.9517
" />
<path d="M48.3933 6.9517
L48.3328 6.8912
" />
<path d="M49.6632 6.8912
L49.7237 6.9517
" />
<path d="M49.7237 6.9517
L49.6632 7.0121
" />
<path d="M49.6632 7.0121
L49.6028 6.9517
" />
<path d="M49.6028 6.9517
L49.6632 6.8912
" />
<path d="M49.6632 6.8912
L49.6632 7.0121
" />
<path d="M50.2680 6.1655
L50.2680 7.4355
" />
<path d="M50.2680 6.2259
L50.3890 6.1655
" />
<path d="M50.3890 6.1655
L50.6309 6.1655
" />
<path d="M50.6309 6.1655
L50.7518 6.2259
" />
<path d="M50.7518 6.2259
L50.8123 6.2864
" />
<path d="M50.8123 6.2864
L50.8728 6.4074
" />
<path d="M50.8728 6.4074
L50.8728 6.7702
" />
<path d="M50.8728 6.7702
L50.8123 6.8912
" />
<path d="M50.8123 6.8912
L50.7518 6.9517
" />
<path d="M50.7518 6.9517
L50.6309 7.0121
" />
<path d="M50.6309 7.0121
L50.3890 7.0121
" />
<path d="M50.3890 7.0121
L50.2680 6.9517
" />
<path d="M51.9613 7.0121
L51.9613 5.7421
" />
<path d="M51.9613 6.9517
L51.8404 7.0121
" />
<path d="M51.8404 7.0121
L51.5985 7.0121
" />
<path d="M51.5985 7.0121
L51.4775 6.9517
" />
<path d="M51.4775 6.9517
L51.4170 6.8912
" />
<path d="M51.4170 6.8912
L51.3566 6.7702
" />
<path d="M51.3566 6.7702
L51.3566 6.4074
" />
<path d="M51.3566 6.4074
L51.4170 6.2864
" />
<path d="M51.4170 6.2864
L51.4775 6.2259
" />
<path d="M51.4775 6.2259
L51.5985 6.1655
" />
<path d="M51.5985 6.1655
L51.8404 6.1655
" />
<path d="M51.8404 6.1655
L51.9613 6.2259
" />
<path d="M52.3846 6.1655
L52.8684 6.1655
" />
<path d="M52.5660 7.0121
L52.5660 5.9236
" />
<path d="M52.5660 5.9236
L52.6265 5.8026
" />
<path d="M52.6265 5.8026
L52.7475 5.7421
" />
<path d="M52.7475 5.7421
L52.8684 5.7421
" />
</g></g> 
</svg>
