<?xml version="1.0" standalone="no"?>
 <!DOCTYPE svg PUBLIC "-//W3C//DTD SVG 1.1//EN" 
 "http://www.w3.org/Graphics/SVG/1.1/DTD/svg11.dtd"> 
<svg
  xmlns:svg="http://www.w3.org/2000/svg"
  xmlns="http://www.w3.org/2000/svg"
  xmlns:xlink="http://www.w3.org/1999/xlink"
  version="1.1"
  width="139.2174mm" height="317.9318mm" viewBox="0.0000 0.0000 139.2174 317.9318">
<title>SVG Image created as working.svg date 2023/08/20 12:45:11 </title>
  <desc>Image generated by Eeschema-SVG </desc>
<g style="fill:#000000; fill-opacity:1.0000;stroke:#000000; stroke-opacity:1.0000;
stroke-linecap:round; stroke-linejoin:round;"
 transform="translate(0 0) scale(1 1)">
</g>
<g style="fill:#840000; fill-opacity:0.0; 
stroke:#840000; stroke-width:0.0000; stroke-opacity:1; 
stroke-linecap:round; stroke-linejoin:round;">
</g>
<g style="fill:#840084; fill-opacity:0.0; 
stroke:#840084; stroke-width:0.0000; stroke-opacity:1; 
stroke-linecap:round; stroke-linejoin:round;">
</g>
<g style="fill:#840000; fill-opacity:0.0; 
stroke:#840000; stroke-width:0.0000; stroke-opacity:1; 
stroke-linecap:round; stroke-linejoin:round;">
</g>
<g style="fill:#840084; fill-opacity:0.0; 
stroke:#840084; stroke-width:0.0000; stroke-opacity:1; 
stroke-linecap:round; stroke-linejoin:round;">
</g>
<g style="fill:#006464; fill-opacity:0.0; 
stroke:#006464; stroke-width:0.0000; stroke-opacity:1; 
stroke-linecap:round; stroke-linejoin:round;">
</g>
<g style="fill:#006464; fill-opacity:0.0; 
stroke:#006464; stroke-width:0.1588; stroke-opacity:1; 
stroke-linecap:round; stroke-linejoin:round;">
<text x="55.1147" y="28.1499"
textLength="2.6415" font-size="1.6933" lengthAdjust="spacingAndGlyphs"
text-anchor="middle" opacity="0">U?</text>
<g class="stroked-text"><desc>U?</desc>
<path d="M54.2075 26.8241
L54.2075 27.8522
" />
<path d="M54.2075 27.8522
L54.2680 27.9732
" />
<path d="M54.2680 27.9732
L54.3285 28.0337
" />
<path d="M54.3285 28.0337
L54.4494 28.0941
" />
<path d="M54.4494 28.0941
L54.6913 28.0941
" />
<path d="M54.6913 28.0941
L54.8123 28.0337
" />
<path d="M54.8123 28.0337
L54.8728 27.9732
" />
<path d="M54.8728 27.9732
L54.9332 27.8522
" />
<path d="M54.9332 27.8522
L54.9332 26.8241
" />
<path d="M55.7195 27.9732
L55.7799 28.0337
" />
<path d="M55.7799 28.0337
L55.7195 28.0941
" />
<path d="M55.7195 28.0941
L55.6590 28.0337
" />
<path d="M55.6590 28.0337
L55.7195 27.9732
" />
<path d="M55.7195 27.9732
L55.7195 28.0941
" />
<path d="M55.4776 26.8846
L55.5985 26.8241
" />
<path d="M55.5985 26.8241
L55.9009 26.8241
" />
<path d="M55.9009 26.8241
L56.0218 26.8846
" />
<path d="M56.0218 26.8846
L56.0823 27.0056
" />
<path d="M56.0823 27.0056
L56.0823 27.1265
" />
<path d="M56.0823 27.1265
L56.0218 27.2475
" />
<path d="M56.0218 27.2475
L55.9614 27.3079
" />
<path d="M55.9614 27.3079
L55.8404 27.3684
" />
<path d="M55.8404 27.3684
L55.7799 27.4289
" />
<path d="M55.7799 27.4289
L55.7195 27.5498
" />
<path d="M55.7195 27.5498
L55.7195 27.6103
" />
</g><text x="119.9148" y="28.1499"
textLength="15.4017" font-size="1.6933" lengthAdjust="spacingAndGlyphs"
text-anchor="middle" opacity="0">STM32F746BETx</text>
<g class="stroked-text"><desc>STM32F746BETx</desc>
<path d="M112.5671 28.0337
L112.7485 28.0941
" />
<path d="M112.7485 28.0941
L113.0509 28.0941
" />
<path d="M113.0509 28.0941
L113.1718 28.0337
" />
<path d="M113.1718 28.0337
L113.2323 27.9732
" />
<path d="M113.2323 27.9732
L113.2928 27.8522
" />
<path d="M113.2928 27.8522
L113.2928 27.7313
" />
<path d="M113.2928 27.7313
L113.2323 27.6103
" />
<path d="M113.2323 27.6103
L113.1718 27.5498
" />
<path d="M113.1718 27.5498
L113.0509 27.4894
" />
<path d="M113.0509 27.4894
L112.8090 27.4289
" />
<path d="M112.8090 27.4289
L112.6880 27.3684
" />
<path d="M112.6880 27.3684
L112.6275 27.3079
" />
<path d="M112.6275 27.3079
L112.5671 27.1870
" />
<path d="M112.5671 27.1870
L112.5671 27.0660
" />
<path d="M112.5671 27.0660
L112.6275 26.9451
" />
<path d="M112.6275 26.9451
L112.6880 26.8846
" />
<path d="M112.6880 26.8846
L112.8090 26.8241
" />
<path d="M112.8090 26.8241
L113.1113 26.8241
" />
<path d="M113.1113 26.8241
L113.2928 26.8846
" />
<path d="M113.6556 26.8241
L114.3813 26.8241
" />
<path d="M114.0185 28.0941
L114.0185 26.8241
" />
<path d="M114.8046 28.0941
L114.8046 26.8241
" />
<path d="M114.8046 26.8241
L115.2280 27.7313
" />
<path d="M115.2280 27.7313
L115.6513 26.8241
" />
<path d="M115.6513 26.8241
L115.6513 28.0941
" />
<path d="M116.1351 26.8241
L116.9213 26.8241
" />
<path d="M116.9213 26.8241
L116.4979 27.3079
" />
<path d="M116.4979 27.3079
L116.6794 27.3079
" />
<path d="M116.6794 27.3079
L116.8003 27.3684
" />
<path d="M116.8003 27.3684
L116.8608 27.4289
" />
<path d="M116.8608 27.4289
L116.9213 27.5498
" />
<path d="M116.9213 27.5498
L116.9213 27.8522
" />
<path d="M116.9213 27.8522
L116.8608 27.9732
" />
<path d="M116.8608 27.9732
L116.8003 28.0337
" />
<path d="M116.8003 28.0337
L116.6794 28.0941
" />
<path d="M116.6794 28.0941
L116.3165 28.0941
" />
<path d="M116.3165 28.0941
L116.1956 28.0337
" />
<path d="M116.1956 28.0337
L116.1351 27.9732
" />
<path d="M117.4051 26.9451
L117.4655 26.8846
" />
<path d="M117.4655 26.8846
L117.5865 26.8241
" />
<path d="M117.5865 26.8241
L117.8889 26.8241
" />
<path d="M117.8889 26.8241
L118.0098 26.8846
" />
<path d="M118.0098 26.8846
L118.0703 26.9451
" />
<path d="M118.0703 26.9451
L118.1308 27.0660
" />
<path d="M118.1308 27.0660
L118.1308 27.1870
" />
<path d="M118.1308 27.1870
L118.0703 27.3684
" />
<path d="M118.0703 27.3684
L117.3446 28.0941
" />
<path d="M117.3446 28.0941
L118.1308 28.0941
" />
<path d="M119.0984 27.4289
L118.6750 27.4289
" />
<path d="M118.6750 28.0941
L118.6750 26.8241
" />
<path d="M118.6750 26.8241
L119.2798 26.8241
" />
<path d="M119.6427 26.8241
L120.4893 26.8241
" />
<path d="M120.4893 26.8241
L119.9451 28.0941
" />
<path d="M121.5174 27.2475
L121.5174 28.0941
" />
<path d="M121.2150 26.7637
L120.9127 27.6708
" />
<path d="M120.9127 27.6708
L121.6988 27.6708
" />
<path d="M122.7269 26.8241
L122.4850 26.8241
" />
<path d="M122.4850 26.8241
L122.3641 26.8846
" />
<path d="M122.3641 26.8846
L122.3036 26.9451
" />
<path d="M122.3036 26.9451
L122.1826 27.1265
" />
<path d="M122.1826 27.1265
L122.1222 27.3684
" />
<path d="M122.1222 27.3684
L122.1222 27.8522
" />
<path d="M122.1222 27.8522
L122.1826 27.9732
" />
<path d="M122.1826 27.9732
L122.2431 28.0337
" />
<path d="M122.2431 28.0337
L122.3641 28.0941
" />
<path d="M122.3641 28.0941
L122.6060 28.0941
" />
<path d="M122.6060 28.0941
L122.7269 28.0337
" />
<path d="M122.7269 28.0337
L122.7874 27.9732
" />
<path d="M122.7874 27.9732
L122.8479 27.8522
" />
<path d="M122.8479 27.8522
L122.8479 27.5498
" />
<path d="M122.8479 27.5498
L122.7874 27.4289
" />
<path d="M122.7874 27.4289
L122.7269 27.3684
" />
<path d="M122.7269 27.3684
L122.6060 27.3079
" />
<path d="M122.6060 27.3079
L122.3641 27.3079
" />
<path d="M122.3641 27.3079
L122.2431 27.3684
" />
<path d="M122.2431 27.3684
L122.1826 27.4289
" />
<path d="M122.1826 27.4289
L122.1222 27.5498
" />
<path d="M123.8155 27.4289
L123.9969 27.4894
" />
<path d="M123.9969 27.4894
L124.0574 27.5498
" />
<path d="M124.0574 27.5498
L124.1178 27.6708
" />
<path d="M124.1178 27.6708
L124.1178 27.8522
" />
<path d="M124.1178 27.8522
L124.0574 27.9732
" />
<path d="M124.0574 27.9732
L123.9969 28.0337
" />
<path d="M123.9969 28.0337
L123.8759 28.0941
" />
<path d="M123.8759 28.0941
L123.3921 28.0941
" />
<path d="M123.3921 28.0941
L123.3921 26.8241
" />
<path d="M123.3921 26.8241
L123.8155 26.8241
" />
<path d="M123.8155 26.8241
L123.9364 26.8846
" />
<path d="M123.9364 26.8846
L123.9969 26.9451
" />
<path d="M123.9969 26.9451
L124.0574 27.0660
" />
<path d="M124.0574 27.0660
L124.0574 27.1870
" />
<path d="M124.0574 27.1870
L123.9969 27.3079
" />
<path d="M123.9969 27.3079
L123.9364 27.3684
" />
<path d="M123.9364 27.3684
L123.8155 27.4289
" />
<path d="M123.8155 27.4289
L123.3921 27.4289
" />
<path d="M124.6621 27.4289
L125.0855 27.4289
" />
<path d="M125.2669 28.0941
L124.6621 28.0941
" />
<path d="M124.6621 28.0941
L124.6621 26.8241
" />
<path d="M124.6621 26.8241
L125.2669 26.8241
" />
<path d="M125.6297 26.8241
L126.3554 26.8241
" />
<path d="M125.9926 28.0941
L125.9926 26.8241
" />
<path d="M126.6578 28.0941
L127.3230 27.2475
" />
<path d="M126.6578 27.2475
L127.3230 28.0941
" />
</g></g>
<g style="fill:#840084; fill-opacity:0.0; 
stroke:#840084; stroke-width:0.1588; stroke-opacity:1; 
stroke-linecap:round; stroke-linejoin:round;">
<text x="32.6977" y="291.0399"
textLength="42.1926" font-size="1.6933" lengthAdjust="spacingAndGlyphs"
text-anchor="middle" opacity="0">Package_QFP:LQFP-208_28x28mm_P0.5mm</text>
<g class="stroked-text"><desc>Package_QFP:LQFP-208_28x28mm_P0.5mm</desc>
<path d="M12.0149 290.9841
L12.0149 289.7141
" />
<path d="M12.0149 289.7141
L12.4987 289.7141
" />
<path d="M12.4987 289.7141
L12.6197 289.7746
" />
<path d="M12.6197 289.7746
L12.6802 289.8351
" />
<path d="M12.6802 289.8351
L12.7406 289.9560
" />
<path d="M12.7406 289.9560
L12.7406 290.1375
" />
<path d="M12.7406 290.1375
L12.6802 290.2584
" />
<path d="M12.6802 290.2584
L12.6197 290.3189
" />
<path d="M12.6197 290.3189
L12.4987 290.3794
" />
<path d="M12.4987 290.3794
L12.0149 290.3794
" />
<path d="M13.8292 290.9841
L13.8292 290.3189
" />
<path d="M13.8292 290.3189
L13.7687 290.1979
" />
<path d="M13.7687 290.1979
L13.6478 290.1375
" />
<path d="M13.6478 290.1375
L13.4059 290.1375
" />
<path d="M13.4059 290.1375
L13.2849 290.1979
" />
<path d="M13.8292 290.9237
L13.7083 290.9841
" />
<path d="M13.7083 290.9841
L13.4059 290.9841
" />
<path d="M13.4059 290.9841
L13.2849 290.9237
" />
<path d="M13.2849 290.9237
L13.2245 290.8027
" />
<path d="M13.2245 290.8027
L13.2245 290.6817
" />
<path d="M13.2245 290.6817
L13.2849 290.5608
" />
<path d="M13.2849 290.5608
L13.4059 290.5003
" />
<path d="M13.4059 290.5003
L13.7083 290.5003
" />
<path d="M13.7083 290.5003
L13.8292 290.4398
" />
<path d="M14.9782 290.9237
L14.8573 290.9841
" />
<path d="M14.8573 290.9841
L14.6154 290.9841
" />
<path d="M14.6154 290.9841
L14.4944 290.9237
" />
<path d="M14.4944 290.9237
L14.4339 290.8632
" />
<path d="M14.4339 290.8632
L14.3735 290.7422
" />
<path d="M14.3735 290.7422
L14.3735 290.3794
" />
<path d="M14.3735 290.3794
L14.4339 290.2584
" />
<path d="M14.4339 290.2584
L14.4944 290.1979
" />
<path d="M14.4944 290.1979
L14.6154 290.1375
" />
<path d="M14.6154 290.1375
L14.8573 290.1375
" />
<path d="M14.8573 290.1375
L14.9782 290.1979
" />
<path d="M15.5225 290.9841
L15.5225 289.7141
" />
<path d="M15.6435 290.5003
L16.0063 290.9841
" />
<path d="M16.0063 290.1375
L15.5225 290.6213
" />
<path d="M17.0949 290.9841
L17.0949 290.3189
" />
<path d="M17.0949 290.3189
L17.0344 290.1979
" />
<path d="M17.0344 290.1979
L16.9135 290.1375
" />
<path d="M16.9135 290.1375
L16.6716 290.1375
" />
<path d="M16.6716 290.1375
L16.5506 290.1979
" />
<path d="M17.0949 290.9237
L16.9740 290.9841
" />
<path d="M16.9740 290.9841
L16.6716 290.9841
" />
<path d="M16.6716 290.9841
L16.5506 290.9237
" />
<path d="M16.5506 290.9237
L16.4902 290.8027
" />
<path d="M16.4902 290.8027
L16.4902 290.6817
" />
<path d="M16.4902 290.6817
L16.5506 290.5608
" />
<path d="M16.5506 290.5608
L16.6716 290.5003
" />
<path d="M16.6716 290.5003
L16.9740 290.5003
" />
<path d="M16.9740 290.5003
L17.0949 290.4398
" />
<path d="M18.2439 290.1375
L18.2439 291.1656
" />
<path d="M18.2439 291.1656
L18.1834 291.2865
" />
<path d="M18.1834 291.2865
L18.1230 291.3470
" />
<path d="M18.1230 291.3470
L18.0020 291.4075
" />
<path d="M18.0020 291.4075
L17.8206 291.4075
" />
<path d="M17.8206 291.4075
L17.6996 291.3470
" />
<path d="M18.2439 290.9237
L18.1230 290.9841
" />
<path d="M18.1230 290.9841
L17.8811 290.9841
" />
<path d="M17.8811 290.9841
L17.7601 290.9237
" />
<path d="M17.7601 290.9237
L17.6996 290.8632
" />
<path d="M17.6996 290.8632
L17.6392 290.7422
" />
<path d="M17.6392 290.7422
L17.6392 290.3794
" />
<path d="M17.6392 290.3794
L17.6996 290.2584
" />
<path d="M17.6996 290.2584
L17.7601 290.1979
" />
<path d="M17.7601 290.1979
L17.8811 290.1375
" />
<path d="M17.8811 290.1375
L18.1230 290.1375
" />
<path d="M18.1230 290.1375
L18.2439 290.1979
" />
<path d="M19.3324 290.9237
L19.2115 290.9841
" />
<path d="M19.2115 290.9841
L18.9696 290.9841
" />
<path d="M18.9696 290.9841
L18.8486 290.9237
" />
<path d="M18.8486 290.9237
L18.7882 290.8027
" />
<path d="M18.7882 290.8027
L18.7882 290.3189
" />
<path d="M18.7882 290.3189
L18.8486 290.1979
" />
<path d="M18.8486 290.1979
L18.9696 290.1375
" />
<path d="M18.9696 290.1375
L19.2115 290.1375
" />
<path d="M19.2115 290.1375
L19.3324 290.1979
" />
<path d="M19.3324 290.1979
L19.3929 290.3189
" />
<path d="M19.3929 290.3189
L19.3929 290.4398
" />
<path d="M19.3929 290.4398
L18.7882 290.5608
" />
<path d="M19.6349 291.1051
L20.6025 291.1051
" />
<path d="M21.7515 291.1051
L21.6305 291.0446
" />
<path d="M21.6305 291.0446
L21.5096 290.9237
" />
<path d="M21.5096 290.9237
L21.3282 290.7422
" />
<path d="M21.3282 290.7422
L21.2072 290.6817
" />
<path d="M21.2072 290.6817
L21.0863 290.6817
" />
<path d="M21.1467 290.9841
L21.0258 290.9237
" />
<path d="M21.0258 290.9237
L20.9048 290.8027
" />
<path d="M20.9048 290.8027
L20.8444 290.5608
" />
<path d="M20.8444 290.5608
L20.8444 290.1375
" />
<path d="M20.8444 290.1375
L20.9048 289.8956
" />
<path d="M20.9048 289.8956
L21.0258 289.7746
" />
<path d="M21.0258 289.7746
L21.1467 289.7141
" />
<path d="M21.1467 289.7141
L21.3886 289.7141
" />
<path d="M21.3886 289.7141
L21.5096 289.7746
" />
<path d="M21.5096 289.7746
L21.6305 289.8956
" />
<path d="M21.6305 289.8956
L21.6910 290.1375
" />
<path d="M21.6910 290.1375
L21.6910 290.5608
" />
<path d="M21.6910 290.5608
L21.6305 290.8027
" />
<path d="M21.6305 290.8027
L21.5096 290.9237
" />
<path d="M21.5096 290.9237
L21.3886 290.9841
" />
<path d="M21.3886 290.9841
L21.1467 290.9841
" />
<path d="M22.6587 290.3189
L22.2353 290.3189
" />
<path d="M22.2353 290.9841
L22.2353 289.7141
" />
<path d="M22.2353 289.7141
L22.8401 289.7141
" />
<path d="M23.3239 290.9841
L23.3239 289.7141
" />
<path d="M23.3239 289.7141
L23.8077 289.7141
" />
<path d="M23.8077 289.7141
L23.9287 289.7746
" />
<path d="M23.9287 289.7746
L23.9892 289.8351
" />
<path d="M23.9892 289.8351
L24.0496 289.9560
" />
<path d="M24.0496 289.9560
L24.0496 290.1375
" />
<path d="M24.0496 290.1375
L23.9892 290.2584
" />
<path d="M23.9892 290.2584
L23.9287 290.3189
" />
<path d="M23.9287 290.3189
L23.8077 290.3794
" />
<path d="M23.8077 290.3794
L23.3239 290.3794
" />
<path d="M24.5939 290.8632
L24.6544 290.9237
" />
<path d="M24.6544 290.9237
L24.5939 290.9841
" />
<path d="M24.5939 290.9841
L24.5335 290.9237
" />
<path d="M24.5335 290.9237
L24.5939 290.8632
" />
<path d="M24.5939 290.8632
L24.5939 290.9841
" />
<path d="M24.5939 290.1979
L24.6544 290.2584
" />
<path d="M24.6544 290.2584
L24.5939 290.3189
" />
<path d="M24.5939 290.3189
L24.5335 290.2584
" />
<path d="M24.5335 290.2584
L24.5939 290.1979
" />
<path d="M24.5939 290.1979
L24.5939 290.3189
" />
<path d="M25.8035 290.9841
L25.1987 290.9841
" />
<path d="M25.1987 290.9841
L25.1987 289.7141
" />
<path d="M27.0735 291.1051
L26.9525 291.0446
" />
<path d="M26.9525 291.0446
L26.8316 290.9237
" />
<path d="M26.8316 290.9237
L26.6502 290.7422
" />
<path d="M26.6502 290.7422
L26.5292 290.6817
" />
<path d="M26.5292 290.6817
L26.4083 290.6817
" />
<path d="M26.4687 290.9841
L26.3478 290.9237
" />
<path d="M26.3478 290.9237
L26.2268 290.8027
" />
<path d="M26.2268 290.8027
L26.1664 290.5608
" />
<path d="M26.1664 290.5608
L26.1664 290.1375
" />
<path d="M26.1664 290.1375
L26.2268 289.8956
" />
<path d="M26.2268 289.8956
L26.3478 289.7746
" />
<path d="M26.3478 289.7746
L26.4687 289.7141
" />
<path d="M26.4687 289.7141
L26.7106 289.7141
" />
<path d="M26.7106 289.7141
L26.8316 289.7746
" />
<path d="M26.8316 289.7746
L26.9525 289.8956
" />
<path d="M26.9525 289.8956
L27.0130 290.1375
" />
<path d="M27.0130 290.1375
L27.0130 290.5608
" />
<path d="M27.0130 290.5608
L26.9525 290.8027
" />
<path d="M26.9525 290.8027
L26.8316 290.9237
" />
<path d="M26.8316 290.9237
L26.7106 290.9841
" />
<path d="M26.7106 290.9841
L26.4687 290.9841
" />
<path d="M27.9807 290.3189
L27.5573 290.3189
" />
<path d="M27.5573 290.9841
L27.5573 289.7141
" />
<path d="M27.5573 289.7141
L28.1621 289.7141
" />
<path d="M28.6459 290.9841
L28.6459 289.7141
" />
<path d="M28.6459 289.7141
L29.1297 289.7141
" />
<path d="M29.1297 289.7141
L29.2507 289.7746
" />
<path d="M29.2507 289.7746
L29.3112 289.8351
" />
<path d="M29.3112 289.8351
L29.3716 289.9560
" />
<path d="M29.3716 289.9560
L29.3716 290.1375
" />
<path d="M29.3716 290.1375
L29.3112 290.2584
" />
<path d="M29.3112 290.2584
L29.2507 290.3189
" />
<path d="M29.2507 290.3189
L29.1297 290.3794
" />
<path d="M29.1297 290.3794
L28.6459 290.3794
" />
<path d="M29.9159 290.5003
L30.8836 290.5003
" />
<path d="M31.4279 289.8351
L31.4883 289.7746
" />
<path d="M31.4883 289.7746
L31.6093 289.7141
" />
<path d="M31.6093 289.7141
L31.9117 289.7141
" />
<path d="M31.9117 289.7141
L32.0326 289.7746
" />
<path d="M32.0326 289.7746
L32.0931 289.8351
" />
<path d="M32.0931 289.8351
L32.1536 289.9560
" />
<path d="M32.1536 289.9560
L32.1536 290.0770
" />
<path d="M32.1536 290.0770
L32.0931 290.2584
" />
<path d="M32.0931 290.2584
L31.3674 290.9841
" />
<path d="M31.3674 290.9841
L32.1536 290.9841
" />
<path d="M32.9397 289.7141
L33.0607 289.7141
" />
<path d="M33.0607 289.7141
L33.1816 289.7746
" />
<path d="M33.1816 289.7746
L33.2421 289.8351
" />
<path d="M33.2421 289.8351
L33.3026 289.9560
" />
<path d="M33.3026 289.9560
L33.3631 290.1979
" />
<path d="M33.3631 290.1979
L33.3631 290.5003
" />
<path d="M33.3631 290.5003
L33.3026 290.7422
" />
<path d="M33.3026 290.7422
L33.2421 290.8632
" />
<path d="M33.2421 290.8632
L33.1816 290.9237
" />
<path d="M33.1816 290.9237
L33.0607 290.9841
" />
<path d="M33.0607 290.9841
L32.9397 290.9841
" />
<path d="M32.9397 290.9841
L32.8188 290.9237
" />
<path d="M32.8188 290.9237
L32.7583 290.8632
" />
<path d="M32.7583 290.8632
L32.6978 290.7422
" />
<path d="M32.6978 290.7422
L32.6374 290.5003
" />
<path d="M32.6374 290.5003
L32.6374 290.1979
" />
<path d="M32.6374 290.1979
L32.6978 289.9560
" />
<path d="M32.6978 289.9560
L32.7583 289.8351
" />
<path d="M32.7583 289.8351
L32.8188 289.7746
" />
<path d="M32.8188 289.7746
L32.9397 289.7141
" />
<path d="M34.0888 290.2584
L33.9678 290.1979
" />
<path d="M33.9678 290.1979
L33.9073 290.1375
" />
<path d="M33.9073 290.1375
L33.8469 290.0165
" />
<path d="M33.8469 290.0165
L33.8469 289.9560
" />
<path d="M33.8469 289.9560
L33.9073 289.8351
" />
<path d="M33.9073 289.8351
L33.9678 289.7746
" />
<path d="M33.9678 289.7746
L34.0888 289.7141
" />
<path d="M34.0888 289.7141
L34.3307 289.7141
" />
<path d="M34.3307 289.7141
L34.4516 289.7746
" />
<path d="M34.4516 289.7746
L34.5121 289.8351
" />
<path d="M34.5121 289.8351
L34.5726 289.9560
" />
<path d="M34.5726 289.9560
L34.5726 290.0165
" />
<path d="M34.5726 290.0165
L34.5121 290.1375
" />
<path d="M34.5121 290.1375
L34.4516 290.1979
" />
<path d="M34.4516 290.1979
L34.3307 290.2584
" />
<path d="M34.3307 290.2584
L34.0888 290.2584
" />
<path d="M34.0888 290.2584
L33.9678 290.3189
" />
<path d="M33.9678 290.3189
L33.9073 290.3794
" />
<path d="M33.9073 290.3794
L33.8469 290.5003
" />
<path d="M33.8469 290.5003
L33.8469 290.7422
" />
<path d="M33.8469 290.7422
L33.9073 290.8632
" />
<path d="M33.9073 290.8632
L33.9678 290.9237
" />
<path d="M33.9678 290.9237
L34.0888 290.9841
" />
<path d="M34.0888 290.9841
L34.3307 290.9841
" />
<path d="M34.3307 290.9841
L34.4516 290.9237
" />
<path d="M34.4516 290.9237
L34.5121 290.8632
" />
<path d="M34.5121 290.8632
L34.5726 290.7422
" />
<path d="M34.5726 290.7422
L34.5726 290.5003
" />
<path d="M34.5726 290.5003
L34.5121 290.3794
" />
<path d="M34.5121 290.3794
L34.4516 290.3189
" />
<path d="M34.4516 290.3189
L34.3307 290.2584
" />
<path d="M34.8145 291.1051
L35.7821 291.1051
" />
<path d="M36.0240 289.8351
L36.0844 289.7746
" />
<path d="M36.0844 289.7746
L36.2054 289.7141
" />
<path d="M36.2054 289.7141
L36.5078 289.7141
" />
<path d="M36.5078 289.7141
L36.6287 289.7746
" />
<path d="M36.6287 289.7746
L36.6892 289.8351
" />
<path d="M36.6892 289.8351
L36.7497 289.9560
" />
<path d="M36.7497 289.9560
L36.7497 290.0770
" />
<path d="M36.7497 290.0770
L36.6892 290.2584
" />
<path d="M36.6892 290.2584
L35.9635 290.9841
" />
<path d="M35.9635 290.9841
L36.7497 290.9841
" />
<path d="M37.4754 290.2584
L37.3544 290.1979
" />
<path d="M37.3544 290.1979
L37.2939 290.1375
" />
<path d="M37.2939 290.1375
L37.2335 290.0165
" />
<path d="M37.2335 290.0165
L37.2335 289.9560
" />
<path d="M37.2335 289.9560
L37.2939 289.8351
" />
<path d="M37.2939 289.8351
L37.3544 289.7746
" />
<path d="M37.3544 289.7746
L37.4754 289.7141
" />
<path d="M37.4754 289.7141
L37.7173 289.7141
" />
<path d="M37.7173 289.7141
L37.8382 289.7746
" />
<path d="M37.8382 289.7746
L37.8987 289.8351
" />
<path d="M37.8987 289.8351
L37.9592 289.9560
" />
<path d="M37.9592 289.9560
L37.9592 290.0165
" />
<path d="M37.9592 290.0165
L37.8987 290.1375
" />
<path d="M37.8987 290.1375
L37.8382 290.1979
" />
<path d="M37.8382 290.1979
L37.7173 290.2584
" />
<path d="M37.7173 290.2584
L37.4754 290.2584
" />
<path d="M37.4754 290.2584
L37.3544 290.3189
" />
<path d="M37.3544 290.3189
L37.2939 290.3794
" />
<path d="M37.2939 290.3794
L37.2335 290.5003
" />
<path d="M37.2335 290.5003
L37.2335 290.7422
" />
<path d="M37.2335 290.7422
L37.2939 290.8632
" />
<path d="M37.2939 290.8632
L37.3544 290.9237
" />
<path d="M37.3544 290.9237
L37.4754 290.9841
" />
<path d="M37.4754 290.9841
L37.7173 290.9841
" />
<path d="M37.7173 290.9841
L37.8382 290.9237
" />
<path d="M37.8382 290.9237
L37.8987 290.8632
" />
<path d="M37.8987 290.8632
L37.9592 290.7422
" />
<path d="M37.9592 290.7422
L37.9592 290.5003
" />
<path d="M37.9592 290.5003
L37.8987 290.3794
" />
<path d="M37.8987 290.3794
L37.8382 290.3189
" />
<path d="M37.8382 290.3189
L37.7173 290.2584
" />
<path d="M38.3825 290.9841
L39.0477 290.1375
" />
<path d="M38.3825 290.1375
L39.0477 290.9841
" />
<path d="M39.4711 289.8351
L39.5315 289.7746
" />
<path d="M39.5315 289.7746
L39.6525 289.7141
" />
<path d="M39.6525 289.7141
L39.9549 289.7141
" />
<path d="M39.9549 289.7141
L40.0758 289.7746
" />
<path d="M40.0758 289.7746
L40.1363 289.8351
" />
<path d="M40.1363 289.8351
L40.1968 289.9560
" />
<path d="M40.1968 289.9560
L40.1968 290.0770
" />
<path d="M40.1968 290.0770
L40.1363 290.2584
" />
<path d="M40.1363 290.2584
L39.4106 290.9841
" />
<path d="M39.4106 290.9841
L40.1968 290.9841
" />
<path d="M40.9225 290.2584
L40.8015 290.1979
" />
<path d="M40.8015 290.1979
L40.7410 290.1375
" />
<path d="M40.7410 290.1375
L40.6806 290.0165
" />
<path d="M40.6806 290.0165
L40.6806 289.9560
" />
<path d="M40.6806 289.9560
L40.7410 289.8351
" />
<path d="M40.7410 289.8351
L40.8015 289.7746
" />
<path d="M40.8015 289.7746
L40.9225 289.7141
" />
<path d="M40.9225 289.7141
L41.1644 289.7141
" />
<path d="M41.1644 289.7141
L41.2853 289.7746
" />
<path d="M41.2853 289.7746
L41.3458 289.8351
" />
<path d="M41.3458 289.8351
L41.4063 289.9560
" />
<path d="M41.4063 289.9560
L41.4063 290.0165
" />
<path d="M41.4063 290.0165
L41.3458 290.1375
" />
<path d="M41.3458 290.1375
L41.2853 290.1979
" />
<path d="M41.2853 290.1979
L41.1644 290.2584
" />
<path d="M41.1644 290.2584
L40.9225 290.2584
" />
<path d="M40.9225 290.2584
L40.8015 290.3189
" />
<path d="M40.8015 290.3189
L40.7410 290.3794
" />
<path d="M40.7410 290.3794
L40.6806 290.5003
" />
<path d="M40.6806 290.5003
L40.6806 290.7422
" />
<path d="M40.6806 290.7422
L40.7410 290.8632
" />
<path d="M40.7410 290.8632
L40.8015 290.9237
" />
<path d="M40.8015 290.9237
L40.9225 290.9841
" />
<path d="M40.9225 290.9841
L41.1644 290.9841
" />
<path d="M41.1644 290.9841
L41.2853 290.9237
" />
<path d="M41.2853 290.9237
L41.3458 290.8632
" />
<path d="M41.3458 290.8632
L41.4063 290.7422
" />
<path d="M41.4063 290.7422
L41.4063 290.5003
" />
<path d="M41.4063 290.5003
L41.3458 290.3794
" />
<path d="M41.3458 290.3794
L41.2853 290.3189
" />
<path d="M41.2853 290.3189
L41.1644 290.2584
" />
<path d="M41.9505 290.9841
L41.9505 290.1375
" />
<path d="M41.9505 290.2584
L42.0110 290.1979
" />
<path d="M42.0110 290.1979
L42.1320 290.1375
" />
<path d="M42.1320 290.1375
L42.3134 290.1375
" />
<path d="M42.3134 290.1375
L42.4343 290.1979
" />
<path d="M42.4343 290.1979
L42.4948 290.3189
" />
<path d="M42.4948 290.3189
L42.4948 290.9841
" />
<path d="M42.4948 290.3189
L42.5553 290.1979
" />
<path d="M42.5553 290.1979
L42.6762 290.1375
" />
<path d="M42.6762 290.1375
L42.8577 290.1375
" />
<path d="M42.8577 290.1375
L42.9786 290.1979
" />
<path d="M42.9786 290.1979
L43.0391 290.3189
" />
<path d="M43.0391 290.3189
L43.0391 290.9841
" />
<path d="M43.6438 290.9841
L43.6438 290.1375
" />
<path d="M43.6438 290.2584
L43.7043 290.1979
" />
<path d="M43.7043 290.1979
L43.8253 290.1375
" />
<path d="M43.8253 290.1375
L44.0067 290.1375
" />
<path d="M44.0067 290.1375
L44.1276 290.1979
" />
<path d="M44.1276 290.1979
L44.1881 290.3189
" />
<path d="M44.1881 290.3189
L44.1881 290.9841
" />
<path d="M44.1881 290.3189
L44.2486 290.1979
" />
<path d="M44.2486 290.1979
L44.3695 290.1375
" />
<path d="M44.3695 290.1375
L44.5510 290.1375
" />
<path d="M44.5510 290.1375
L44.6719 290.1979
" />
<path d="M44.6719 290.1979
L44.7324 290.3189
" />
<path d="M44.7324 290.3189
L44.7324 290.9841
" />
<path d="M45.0348 291.1051
L46.0024 291.1051
" />
<path d="M46.3047 290.9841
L46.3047 289.7141
" />
<path d="M46.3047 289.7141
L46.7885 289.7141
" />
<path d="M46.7885 289.7141
L46.9095 289.7746
" />
<path d="M46.9095 289.7746
L46.9700 289.8351
" />
<path d="M46.9700 289.8351
L47.0304 289.9560
" />
<path d="M47.0304 289.9560
L47.0304 290.1375
" />
<path d="M47.0304 290.1375
L46.9700 290.2584
" />
<path d="M46.9700 290.2584
L46.9095 290.3189
" />
<path d="M46.9095 290.3189
L46.7885 290.3794
" />
<path d="M46.7885 290.3794
L46.3047 290.3794
" />
<path d="M47.8166 289.7141
L47.9376 289.7141
" />
<path d="M47.9376 289.7141
L48.0585 289.7746
" />
<path d="M48.0585 289.7746
L48.1190 289.8351
" />
<path d="M48.1190 289.8351
L48.1795 289.9560
" />
<path d="M48.1795 289.9560
L48.2400 290.1979
" />
<path d="M48.2400 290.1979
L48.2400 290.5003
" />
<path d="M48.2400 290.5003
L48.1795 290.7422
" />
<path d="M48.1795 290.7422
L48.1190 290.8632
" />
<path d="M48.1190 290.8632
L48.0585 290.9237
" />
<path d="M48.0585 290.9237
L47.9376 290.9841
" />
<path d="M47.9376 290.9841
L47.8166 290.9841
" />
<path d="M47.8166 290.9841
L47.6957 290.9237
" />
<path d="M47.6957 290.9237
L47.6352 290.8632
" />
<path d="M47.6352 290.8632
L47.5747 290.7422
" />
<path d="M47.5747 290.7422
L47.5143 290.5003
" />
<path d="M47.5143 290.5003
L47.5143 290.1979
" />
<path d="M47.5143 290.1979
L47.5747 289.9560
" />
<path d="M47.5747 289.9560
L47.6352 289.8351
" />
<path d="M47.6352 289.8351
L47.6957 289.7746
" />
<path d="M47.6957 289.7746
L47.8166 289.7141
" />
<path d="M48.7842 290.8632
L48.8447 290.9237
" />
<path d="M48.8447 290.9237
L48.7842 290.9841
" />
<path d="M48.7842 290.9841
L48.7238 290.9237
" />
<path d="M48.7238 290.9237
L48.7842 290.8632
" />
<path d="M48.7842 290.8632
L48.7842 290.9841
" />
<path d="M49.9938 289.7141
L49.3890 289.7141
" />
<path d="M49.3890 289.7141
L49.3286 290.3189
" />
<path d="M49.3286 290.3189
L49.3890 290.2584
" />
<path d="M49.3890 290.2584
L49.5100 290.1979
" />
<path d="M49.5100 290.1979
L49.8124 290.1979
" />
<path d="M49.8124 290.1979
L49.9333 290.2584
" />
<path d="M49.9333 290.2584
L49.9938 290.3189
" />
<path d="M49.9938 290.3189
L50.0543 290.4398
" />
<path d="M50.0543 290.4398
L50.0543 290.7422
" />
<path d="M50.0543 290.7422
L49.9938 290.8632
" />
<path d="M49.9938 290.8632
L49.9333 290.9237
" />
<path d="M49.9333 290.9237
L49.8124 290.9841
" />
<path d="M49.8124 290.9841
L49.5100 290.9841
" />
<path d="M49.5100 290.9841
L49.3890 290.9237
" />
<path d="M49.3890 290.9237
L49.3286 290.8632
" />
<path d="M50.5985 290.9841
L50.5985 290.1375
" />
<path d="M50.5985 290.2584
L50.6590 290.1979
" />
<path d="M50.6590 290.1979
L50.7800 290.1375
" />
<path d="M50.7800 290.1375
L50.9614 290.1375
" />
<path d="M50.9614 290.1375
L51.0823 290.1979
" />
<path d="M51.0823 290.1979
L51.1428 290.3189
" />
<path d="M51.1428 290.3189
L51.1428 290.9841
" />
<path d="M51.1428 290.3189
L51.2033 290.1979
" />
<path d="M51.2033 290.1979
L51.3242 290.1375
" />
<path d="M51.3242 290.1375
L51.5057 290.1375
" />
<path d="M51.5057 290.1375
L51.6266 290.1979
" />
<path d="M51.6266 290.1979
L51.6871 290.3189
" />
<path d="M51.6871 290.3189
L51.6871 290.9841
" />
<path d="M52.2918 290.9841
L52.2918 290.1375
" />
<path d="M52.2918 290.2584
L52.3523 290.1979
" />
<path d="M52.3523 290.1979
L52.4733 290.1375
" />
<path d="M52.4733 290.1375
L52.6547 290.1375
" />
<path d="M52.6547 290.1375
L52.7756 290.1979
" />
<path d="M52.7756 290.1979
L52.8361 290.3189
" />
<path d="M52.8361 290.3189
L52.8361 290.9841
" />
<path d="M52.8361 290.3189
L52.8966 290.1979
" />
<path d="M52.8966 290.1979
L53.0175 290.1375
" />
<path d="M53.0175 290.1375
L53.1990 290.1375
" />
<path d="M53.1990 290.1375
L53.3199 290.1979
" />
<path d="M53.3199 290.1979
L53.3804 290.3189
" />
<path d="M53.3804 290.3189
L53.3804 290.9841
" />
</g><text x="84.2740" y="161.4999"
textLength="60.2145" font-size="1.6933" lengthAdjust="spacingAndGlyphs"
text-anchor="middle" opacity="0">https://www.st.com/resource/en/datasheet/stm32f746be.pdf</text>
<g class="stroked-text"><desc>https://www.st.com/resource/en/datasheet/stm32f746be.pdf</desc>
<path d="M54.5803 161.4441
L54.5803 160.1741
" />
<path d="M55.1246 161.4441
L55.1246 160.7789
" />
<path d="M55.1246 160.7789
L55.0641 160.6579
" />
<path d="M55.0641 160.6579
L54.9432 160.5975
" />
<path d="M54.9432 160.5975
L54.7618 160.5975
" />
<path d="M54.7618 160.5975
L54.6408 160.6579
" />
<path d="M54.6408 160.6579
L54.5803 160.7184
" />
<path d="M55.5479 160.5975
L56.0317 160.5975
" />
<path d="M55.7293 160.1741
L55.7293 161.2627
" />
<path d="M55.7293 161.2627
L55.7898 161.3837
" />
<path d="M55.7898 161.3837
L55.9108 161.4441
" />
<path d="M55.9108 161.4441
L56.0317 161.4441
" />
<path d="M56.2736 160.5975
L56.7574 160.5975
" />
<path d="M56.4550 160.1741
L56.4550 161.2627
" />
<path d="M56.4550 161.2627
L56.5155 161.3837
" />
<path d="M56.5155 161.3837
L56.6365 161.4441
" />
<path d="M56.6365 161.4441
L56.7574 161.4441
" />
<path d="M57.1807 160.5975
L57.1807 161.8675
" />
<path d="M57.1807 160.6579
L57.3017 160.5975
" />
<path d="M57.3017 160.5975
L57.5436 160.5975
" />
<path d="M57.5436 160.5975
L57.6645 160.6579
" />
<path d="M57.6645 160.6579
L57.7250 160.7184
" />
<path d="M57.7250 160.7184
L57.7855 160.8394
" />
<path d="M57.7855 160.8394
L57.7855 161.2022
" />
<path d="M57.7855 161.2022
L57.7250 161.3232
" />
<path d="M57.7250 161.3232
L57.6645 161.3837
" />
<path d="M57.6645 161.3837
L57.5436 161.4441
" />
<path d="M57.5436 161.4441
L57.3017 161.4441
" />
<path d="M57.3017 161.4441
L57.1807 161.3837
" />
<path d="M58.2693 161.3837
L58.3902 161.4441
" />
<path d="M58.3902 161.4441
L58.6321 161.4441
" />
<path d="M58.6321 161.4441
L58.7531 161.3837
" />
<path d="M58.7531 161.3837
L58.8135 161.2627
" />
<path d="M58.8135 161.2627
L58.8135 161.2022
" />
<path d="M58.8135 161.2022
L58.7531 161.0813
" />
<path d="M58.7531 161.0813
L58.6321 161.0208
" />
<path d="M58.6321 161.0208
L58.4507 161.0208
" />
<path d="M58.4507 161.0208
L58.3297 160.9603
" />
<path d="M58.3297 160.9603
L58.2693 160.8394
" />
<path d="M58.2693 160.8394
L58.2693 160.7789
" />
<path d="M58.2693 160.7789
L58.3297 160.6579
" />
<path d="M58.3297 160.6579
L58.4507 160.5975
" />
<path d="M58.4507 160.5975
L58.6321 160.5975
" />
<path d="M58.6321 160.5975
L58.7531 160.6579
" />
<path d="M59.3578 161.3232
L59.4183 161.3837
" />
<path d="M59.4183 161.3837
L59.3578 161.4441
" />
<path d="M59.3578 161.4441
L59.2974 161.3837
" />
<path d="M59.2974 161.3837
L59.3578 161.3232
" />
<path d="M59.3578 161.3232
L59.3578 161.4441
" />
<path d="M59.3578 160.6579
L59.4183 160.7184
" />
<path d="M59.4183 160.7184
L59.3578 160.7789
" />
<path d="M59.3578 160.7789
L59.2974 160.7184
" />
<path d="M59.2974 160.7184
L59.3578 160.6579
" />
<path d="M59.3578 160.6579
L59.3578 160.7789
" />
<path d="M60.8698 160.1137
L59.7812 161.7465
" />
<path d="M62.2003 160.1137
L61.1117 161.7465
" />
<path d="M62.5027 160.5975
L62.7446 161.4441
" />
<path d="M62.7446 161.4441
L62.9865 160.8394
" />
<path d="M62.9865 160.8394
L63.2284 161.4441
" />
<path d="M63.2284 161.4441
L63.4703 160.5975
" />
<path d="M63.8332 160.5975
L64.0751 161.4441
" />
<path d="M64.0751 161.4441
L64.3170 160.8394
" />
<path d="M64.3170 160.8394
L64.5589 161.4441
" />
<path d="M64.5589 161.4441
L64.8008 160.5975
" />
<path d="M65.1637 160.5975
L65.4056 161.4441
" />
<path d="M65.4056 161.4441
L65.6475 160.8394
" />
<path d="M65.6475 160.8394
L65.8894 161.4441
" />
<path d="M65.8894 161.4441
L66.1313 160.5975
" />
<path d="M66.6151 161.3232
L66.6756 161.3837
" />
<path d="M66.6756 161.3837
L66.6151 161.4441
" />
<path d="M66.6151 161.4441
L66.5547 161.3837
" />
<path d="M66.5547 161.3837
L66.6151 161.3232
" />
<path d="M66.6151 161.3232
L66.6151 161.4441
" />
<path d="M67.1595 161.3837
L67.2804 161.4441
" />
<path d="M67.2804 161.4441
L67.5223 161.4441
" />
<path d="M67.5223 161.4441
L67.6433 161.3837
" />
<path d="M67.6433 161.3837
L67.7037 161.2627
" />
<path d="M67.7037 161.2627
L67.7037 161.2022
" />
<path d="M67.7037 161.2022
L67.6433 161.0813
" />
<path d="M67.6433 161.0813
L67.5223 161.0208
" />
<path d="M67.5223 161.0208
L67.3409 161.0208
" />
<path d="M67.3409 161.0208
L67.2199 160.9603
" />
<path d="M67.2199 160.9603
L67.1595 160.8394
" />
<path d="M67.1595 160.8394
L67.1595 160.7789
" />
<path d="M67.1595 160.7789
L67.2199 160.6579
" />
<path d="M67.2199 160.6579
L67.3409 160.5975
" />
<path d="M67.3409 160.5975
L67.5223 160.5975
" />
<path d="M67.5223 160.5975
L67.6433 160.6579
" />
<path d="M68.0666 160.5975
L68.5504 160.5975
" />
<path d="M68.2480 160.1741
L68.2480 161.2627
" />
<path d="M68.2480 161.2627
L68.3085 161.3837
" />
<path d="M68.3085 161.3837
L68.4295 161.4441
" />
<path d="M68.4295 161.4441
L68.5504 161.4441
" />
<path d="M68.9737 161.3232
L69.0342 161.3837
" />
<path d="M69.0342 161.3837
L68.9737 161.4441
" />
<path d="M68.9737 161.4441
L68.9133 161.3837
" />
<path d="M68.9133 161.3837
L68.9737 161.3232
" />
<path d="M68.9737 161.3232
L68.9737 161.4441
" />
<path d="M70.1228 161.3837
L70.0019 161.4441
" />
<path d="M70.0019 161.4441
L69.7600 161.4441
" />
<path d="M69.7600 161.4441
L69.6390 161.3837
" />
<path d="M69.6390 161.3837
L69.5785 161.3232
" />
<path d="M69.5785 161.3232
L69.5181 161.2022
" />
<path d="M69.5181 161.2022
L69.5181 160.8394
" />
<path d="M69.5181 160.8394
L69.5785 160.7184
" />
<path d="M69.5785 160.7184
L69.6390 160.6579
" />
<path d="M69.6390 160.6579
L69.7600 160.5975
" />
<path d="M69.7600 160.5975
L70.0019 160.5975
" />
<path d="M70.0019 160.5975
L70.1228 160.6579
" />
<path d="M70.8486 161.4441
L70.7276 161.3837
" />
<path d="M70.7276 161.3837
L70.6671 161.3232
" />
<path d="M70.6671 161.3232
L70.6067 161.2022
" />
<path d="M70.6067 161.2022
L70.6067 160.8394
" />
<path d="M70.6067 160.8394
L70.6671 160.7184
" />
<path d="M70.6671 160.7184
L70.7276 160.6579
" />
<path d="M70.7276 160.6579
L70.8486 160.5975
" />
<path d="M70.8486 160.5975
L71.0300 160.5975
" />
<path d="M71.0300 160.5975
L71.1509 160.6579
" />
<path d="M71.1509 160.6579
L71.2114 160.7184
" />
<path d="M71.2114 160.7184
L71.2719 160.8394
" />
<path d="M71.2719 160.8394
L71.2719 161.2022
" />
<path d="M71.2719 161.2022
L71.2114 161.3232
" />
<path d="M71.2114 161.3232
L71.1509 161.3837
" />
<path d="M71.1509 161.3837
L71.0300 161.4441
" />
<path d="M71.0300 161.4441
L70.8486 161.4441
" />
<path d="M71.8161 161.4441
L71.8161 160.5975
" />
<path d="M71.8161 160.7184
L71.8766 160.6579
" />
<path d="M71.8766 160.6579
L71.9976 160.5975
" />
<path d="M71.9976 160.5975
L72.1790 160.5975
" />
<path d="M72.1790 160.5975
L72.2999 160.6579
" />
<path d="M72.2999 160.6579
L72.3604 160.7789
" />
<path d="M72.3604 160.7789
L72.3604 161.4441
" />
<path d="M72.3604 160.7789
L72.4209 160.6579
" />
<path d="M72.4209 160.6579
L72.5418 160.5975
" />
<path d="M72.5418 160.5975
L72.7233 160.5975
" />
<path d="M72.7233 160.5975
L72.8442 160.6579
" />
<path d="M72.8442 160.6579
L72.9047 160.7789
" />
<path d="M72.9047 160.7789
L72.9047 161.4441
" />
<path d="M74.4166 160.1137
L73.3280 161.7465
" />
<path d="M74.8399 161.4441
L74.8399 160.5975
" />
<path d="M74.8399 160.8394
L74.9004 160.7184
" />
<path d="M74.9004 160.7184
L74.9609 160.6579
" />
<path d="M74.9609 160.6579
L75.0818 160.5975
" />
<path d="M75.0818 160.5975
L75.2028 160.5975
" />
<path d="M76.1099 161.3837
L75.9890 161.4441
" />
<path d="M75.9890 161.4441
L75.7471 161.4441
" />
<path d="M75.7471 161.4441
L75.6261 161.3837
" />
<path d="M75.6261 161.3837
L75.5657 161.2627
" />
<path d="M75.5657 161.2627
L75.5657 160.7789
" />
<path d="M75.5657 160.7789
L75.6261 160.6579
" />
<path d="M75.6261 160.6579
L75.7471 160.5975
" />
<path d="M75.7471 160.5975
L75.9890 160.5975
" />
<path d="M75.9890 160.5975
L76.1099 160.6579
" />
<path d="M76.1099 160.6579
L76.1704 160.7789
" />
<path d="M76.1704 160.7789
L76.1704 160.8998
" />
<path d="M76.1704 160.8998
L75.5657 161.0208
" />
<path d="M76.6543 161.3837
L76.7752 161.4441
" />
<path d="M76.7752 161.4441
L77.0171 161.4441
" />
<path d="M77.0171 161.4441
L77.1381 161.3837
" />
<path d="M77.1381 161.3837
L77.1985 161.2627
" />
<path d="M77.1985 161.2627
L77.1985 161.2022
" />
<path d="M77.1985 161.2022
L77.1381 161.0813
" />
<path d="M77.1381 161.0813
L77.0171 161.0208
" />
<path d="M77.0171 161.0208
L76.8357 161.0208
" />
<path d="M76.8357 161.0208
L76.7147 160.9603
" />
<path d="M76.7147 160.9603
L76.6543 160.8394
" />
<path d="M76.6543 160.8394
L76.6543 160.7789
" />
<path d="M76.6543 160.7789
L76.7147 160.6579
" />
<path d="M76.7147 160.6579
L76.8357 160.5975
" />
<path d="M76.8357 160.5975
L77.0171 160.5975
" />
<path d="M77.0171 160.5975
L77.1381 160.6579
" />
<path d="M77.9243 161.4441
L77.8033 161.3837
" />
<path d="M77.8033 161.3837
L77.7428 161.3232
" />
<path d="M77.7428 161.3232
L77.6824 161.2022
" />
<path d="M77.6824 161.2022
L77.6824 160.8394
" />
<path d="M77.6824 160.8394
L77.7428 160.7184
" />
<path d="M77.7428 160.7184
L77.8033 160.6579
" />
<path d="M77.8033 160.6579
L77.9243 160.5975
" />
<path d="M77.9243 160.5975
L78.1057 160.5975
" />
<path d="M78.1057 160.5975
L78.2266 160.6579
" />
<path d="M78.2266 160.6579
L78.2871 160.7184
" />
<path d="M78.2871 160.7184
L78.3476 160.8394
" />
<path d="M78.3476 160.8394
L78.3476 161.2022
" />
<path d="M78.3476 161.2022
L78.2871 161.3232
" />
<path d="M78.2871 161.3232
L78.2266 161.3837
" />
<path d="M78.2266 161.3837
L78.1057 161.4441
" />
<path d="M78.1057 161.4441
L77.9243 161.4441
" />
<path d="M79.4361 160.5975
L79.4361 161.4441
" />
<path d="M78.8918 160.5975
L78.8918 161.2627
" />
<path d="M78.8918 161.2627
L78.9523 161.3837
" />
<path d="M78.9523 161.3837
L79.0733 161.4441
" />
<path d="M79.0733 161.4441
L79.2547 161.4441
" />
<path d="M79.2547 161.4441
L79.3756 161.3837
" />
<path d="M79.3756 161.3837
L79.4361 161.3232
" />
<path d="M80.0408 161.4441
L80.0408 160.5975
" />
<path d="M80.0408 160.8394
L80.1013 160.7184
" />
<path d="M80.1013 160.7184
L80.1618 160.6579
" />
<path d="M80.1618 160.6579
L80.2827 160.5975
" />
<path d="M80.2827 160.5975
L80.4037 160.5975
" />
<path d="M81.3713 161.3837
L81.2504 161.4441
" />
<path d="M81.2504 161.4441
L81.0085 161.4441
" />
<path d="M81.0085 161.4441
L80.8875 161.3837
" />
<path d="M80.8875 161.3837
L80.8270 161.3232
" />
<path d="M80.8270 161.3232
L80.7666 161.2022
" />
<path d="M80.7666 161.2022
L80.7666 160.8394
" />
<path d="M80.7666 160.8394
L80.8270 160.7184
" />
<path d="M80.8270 160.7184
L80.8875 160.6579
" />
<path d="M80.8875 160.6579
L81.0085 160.5975
" />
<path d="M81.0085 160.5975
L81.2504 160.5975
" />
<path d="M81.2504 160.5975
L81.3713 160.6579
" />
<path d="M82.3994 161.3837
L82.2785 161.4441
" />
<path d="M82.2785 161.4441
L82.0366 161.4441
" />
<path d="M82.0366 161.4441
L81.9156 161.3837
" />
<path d="M81.9156 161.3837
L81.8552 161.2627
" />
<path d="M81.8552 161.2627
L81.8552 160.7789
" />
<path d="M81.8552 160.7789
L81.9156 160.6579
" />
<path d="M81.9156 160.6579
L82.0366 160.5975
" />
<path d="M82.0366 160.5975
L82.2785 160.5975
" />
<path d="M82.2785 160.5975
L82.3994 160.6579
" />
<path d="M82.3994 160.6579
L82.4599 160.7789
" />
<path d="M82.4599 160.7789
L82.4599 160.8998
" />
<path d="M82.4599 160.8998
L81.8552 161.0208
" />
<path d="M83.9114 160.1137
L82.8228 161.7465
" />
<path d="M84.8185 161.3837
L84.6976 161.4441
" />
<path d="M84.6976 161.4441
L84.4557 161.4441
" />
<path d="M84.4557 161.4441
L84.3347 161.3837
" />
<path d="M84.3347 161.3837
L84.2743 161.2627
" />
<path d="M84.2743 161.2627
L84.2743 160.7789
" />
<path d="M84.2743 160.7789
L84.3347 160.6579
" />
<path d="M84.3347 160.6579
L84.4557 160.5975
" />
<path d="M84.4557 160.5975
L84.6976 160.5975
" />
<path d="M84.6976 160.5975
L84.8185 160.6579
" />
<path d="M84.8185 160.6579
L84.8790 160.7789
" />
<path d="M84.8790 160.7789
L84.8790 160.8998
" />
<path d="M84.8790 160.8998
L84.2743 161.0208
" />
<path d="M85.4233 160.5975
L85.4233 161.4441
" />
<path d="M85.4233 160.7184
L85.4838 160.6579
" />
<path d="M85.4838 160.6579
L85.6048 160.5975
" />
<path d="M85.6048 160.5975
L85.7862 160.5975
" />
<path d="M85.7862 160.5975
L85.9071 160.6579
" />
<path d="M85.9071 160.6579
L85.9676 160.7789
" />
<path d="M85.9676 160.7789
L85.9676 161.4441
" />
<path d="M87.4795 160.1137
L86.3909 161.7465
" />
<path d="M88.4471 161.4441
L88.4471 160.1741
" />
<path d="M88.4471 161.3837
L88.3262 161.4441
" />
<path d="M88.3262 161.4441
L88.0843 161.4441
" />
<path d="M88.0843 161.4441
L87.9633 161.3837
" />
<path d="M87.9633 161.3837
L87.9028 161.3232
" />
<path d="M87.9028 161.3232
L87.8424 161.2022
" />
<path d="M87.8424 161.2022
L87.8424 160.8394
" />
<path d="M87.8424 160.8394
L87.9028 160.7184
" />
<path d="M87.9028 160.7184
L87.9633 160.6579
" />
<path d="M87.9633 160.6579
L88.0843 160.5975
" />
<path d="M88.0843 160.5975
L88.3262 160.5975
" />
<path d="M88.3262 160.5975
L88.4471 160.6579
" />
<path d="M89.5961 161.4441
L89.5961 160.7789
" />
<path d="M89.5961 160.7789
L89.5356 160.6579
" />
<path d="M89.5356 160.6579
L89.4147 160.5975
" />
<path d="M89.4147 160.5975
L89.1728 160.5975
" />
<path d="M89.1728 160.5975
L89.0518 160.6579
" />
<path d="M89.5961 161.3837
L89.4752 161.4441
" />
<path d="M89.4752 161.4441
L89.1728 161.4441
" />
<path d="M89.1728 161.4441
L89.0518 161.3837
" />
<path d="M89.0518 161.3837
L88.9914 161.2627
" />
<path d="M88.9914 161.2627
L88.9914 161.1417
" />
<path d="M88.9914 161.1417
L89.0518 161.0208
" />
<path d="M89.0518 161.0208
L89.1728 160.9603
" />
<path d="M89.1728 160.9603
L89.4752 160.9603
" />
<path d="M89.4752 160.9603
L89.5961 160.8998
" />
<path d="M90.0194 160.5975
L90.5032 160.5975
" />
<path d="M90.2008 160.1741
L90.2008 161.2627
" />
<path d="M90.2008 161.2627
L90.2613 161.3837
" />
<path d="M90.2613 161.3837
L90.3823 161.4441
" />
<path d="M90.3823 161.4441
L90.5032 161.4441
" />
<path d="M91.4708 161.4441
L91.4708 160.7789
" />
<path d="M91.4708 160.7789
L91.4103 160.6579
" />
<path d="M91.4103 160.6579
L91.2894 160.5975
" />
<path d="M91.2894 160.5975
L91.0475 160.5975
" />
<path d="M91.0475 160.5975
L90.9265 160.6579
" />
<path d="M91.4708 161.3837
L91.3499 161.4441
" />
<path d="M91.3499 161.4441
L91.0475 161.4441
" />
<path d="M91.0475 161.4441
L90.9265 161.3837
" />
<path d="M90.9265 161.3837
L90.8661 161.2627
" />
<path d="M90.8661 161.2627
L90.8661 161.1417
" />
<path d="M90.8661 161.1417
L90.9265 161.0208
" />
<path d="M90.9265 161.0208
L91.0475 160.9603
" />
<path d="M91.0475 160.9603
L91.3499 160.9603
" />
<path d="M91.3499 160.9603
L91.4708 160.8998
" />
<path d="M92.0151 161.3837
L92.1360 161.4441
" />
<path d="M92.1360 161.4441
L92.3779 161.4441
" />
<path d="M92.3779 161.4441
L92.4989 161.3837
" />
<path d="M92.4989 161.3837
L92.5593 161.2627
" />
<path d="M92.5593 161.2627
L92.5593 161.2022
" />
<path d="M92.5593 161.2022
L92.4989 161.0813
" />
<path d="M92.4989 161.0813
L92.3779 161.0208
" />
<path d="M92.3779 161.0208
L92.1965 161.0208
" />
<path d="M92.1965 161.0208
L92.0755 160.9603
" />
<path d="M92.0755 160.9603
L92.0151 160.8394
" />
<path d="M92.0151 160.8394
L92.0151 160.7789
" />
<path d="M92.0151 160.7789
L92.0755 160.6579
" />
<path d="M92.0755 160.6579
L92.1965 160.5975
" />
<path d="M92.1965 160.5975
L92.3779 160.5975
" />
<path d="M92.3779 160.5975
L92.4989 160.6579
" />
<path d="M93.1036 161.4441
L93.1036 160.1741
" />
<path d="M93.6479 161.4441
L93.6479 160.7789
" />
<path d="M93.6479 160.7789
L93.5874 160.6579
" />
<path d="M93.5874 160.6579
L93.4665 160.5975
" />
<path d="M93.4665 160.5975
L93.2851 160.5975
" />
<path d="M93.2851 160.5975
L93.1641 160.6579
" />
<path d="M93.1641 160.6579
L93.1036 160.7184
" />
<path d="M94.7364 161.3837
L94.6155 161.4441
" />
<path d="M94.6155 161.4441
L94.3736 161.4441
" />
<path d="M94.3736 161.4441
L94.2526 161.3837
" />
<path d="M94.2526 161.3837
L94.1922 161.2627
" />
<path d="M94.1922 161.2627
L94.1922 160.7789
" />
<path d="M94.1922 160.7789
L94.2526 160.6579
" />
<path d="M94.2526 160.6579
L94.3736 160.5975
" />
<path d="M94.3736 160.5975
L94.6155 160.5975
" />
<path d="M94.6155 160.5975
L94.7364 160.6579
" />
<path d="M94.7364 160.6579
L94.7969 160.7789
" />
<path d="M94.7969 160.7789
L94.7969 160.8998
" />
<path d="M94.7969 160.8998
L94.1922 161.0208
" />
<path d="M95.8250 161.3837
L95.7041 161.4441
" />
<path d="M95.7041 161.4441
L95.4622 161.4441
" />
<path d="M95.4622 161.4441
L95.3412 161.3837
" />
<path d="M95.3412 161.3837
L95.2808 161.2627
" />
<path d="M95.2808 161.2627
L95.2808 160.7789
" />
<path d="M95.2808 160.7789
L95.3412 160.6579
" />
<path d="M95.3412 160.6579
L95.4622 160.5975
" />
<path d="M95.4622 160.5975
L95.7041 160.5975
" />
<path d="M95.7041 160.5975
L95.8250 160.6579
" />
<path d="M95.8250 160.6579
L95.8855 160.7789
" />
<path d="M95.8855 160.7789
L95.8855 160.8998
" />
<path d="M95.8855 160.8998
L95.2808 161.0208
" />
<path d="M96.2484 160.5975
L96.7322 160.5975
" />
<path d="M96.4298 160.1741
L96.4298 161.2627
" />
<path d="M96.4298 161.2627
L96.4903 161.3837
" />
<path d="M96.4903 161.3837
L96.6113 161.4441
" />
<path d="M96.6113 161.4441
L96.7322 161.4441
" />
<path d="M98.0627 160.1137
L96.9741 161.7465
" />
<path d="M98.4256 161.3837
L98.5465 161.4441
" />
<path d="M98.5465 161.4441
L98.7884 161.4441
" />
<path d="M98.7884 161.4441
L98.9094 161.3837
" />
<path d="M98.9094 161.3837
L98.9698 161.2627
" />
<path d="M98.9698 161.2627
L98.9698 161.2022
" />
<path d="M98.9698 161.2022
L98.9094 161.0813
" />
<path d="M98.9094 161.0813
L98.7884 161.0208
" />
<path d="M98.7884 161.0208
L98.6070 161.0208
" />
<path d="M98.6070 161.0208
L98.4860 160.9603
" />
<path d="M98.4860 160.9603
L98.4256 160.8394
" />
<path d="M98.4256 160.8394
L98.4256 160.7789
" />
<path d="M98.4256 160.7789
L98.4860 160.6579
" />
<path d="M98.4860 160.6579
L98.6070 160.5975
" />
<path d="M98.6070 160.5975
L98.7884 160.5975
" />
<path d="M98.7884 160.5975
L98.9094 160.6579
" />
<path d="M99.3327 160.5975
L99.8165 160.5975
" />
<path d="M99.5141 160.1741
L99.5141 161.2627
" />
<path d="M99.5141 161.2627
L99.5746 161.3837
" />
<path d="M99.5746 161.3837
L99.6956 161.4441
" />
<path d="M99.6956 161.4441
L99.8165 161.4441
" />
<path d="M100.2398 161.4441
L100.2398 160.5975
" />
<path d="M100.2398 160.7184
L100.3003 160.6579
" />
<path d="M100.3003 160.6579
L100.4213 160.5975
" />
<path d="M100.4213 160.5975
L100.6027 160.5975
" />
<path d="M100.6027 160.5975
L100.7236 160.6579
" />
<path d="M100.7236 160.6579
L100.7841 160.7789
" />
<path d="M100.7841 160.7789
L100.7841 161.4441
" />
<path d="M100.7841 160.7789
L100.8446 160.6579
" />
<path d="M100.8446 160.6579
L100.9655 160.5975
" />
<path d="M100.9655 160.5975
L101.1470 160.5975
" />
<path d="M101.1470 160.5975
L101.2679 160.6579
" />
<path d="M101.2679 160.6579
L101.3284 160.7789
" />
<path d="M101.3284 160.7789
L101.3284 161.4441
" />
<path d="M101.8122 160.1741
L102.5984 160.1741
" />
<path d="M102.5984 160.1741
L102.1750 160.6579
" />
<path d="M102.1750 160.6579
L102.3565 160.6579
" />
<path d="M102.3565 160.6579
L102.4774 160.7184
" />
<path d="M102.4774 160.7184
L102.5379 160.7789
" />
<path d="M102.5379 160.7789
L102.5984 160.8998
" />
<path d="M102.5984 160.8998
L102.5984 161.2022
" />
<path d="M102.5984 161.2022
L102.5379 161.3232
" />
<path d="M102.5379 161.3232
L102.4774 161.3837
" />
<path d="M102.4774 161.3837
L102.3565 161.4441
" />
<path d="M102.3565 161.4441
L101.9936 161.4441
" />
<path d="M101.9936 161.4441
L101.8727 161.3837
" />
<path d="M101.8727 161.3837
L101.8122 161.3232
" />
<path d="M103.0822 160.2951
L103.1426 160.2346
" />
<path d="M103.1426 160.2346
L103.2636 160.1741
" />
<path d="M103.2636 160.1741
L103.5660 160.1741
" />
<path d="M103.5660 160.1741
L103.6869 160.2346
" />
<path d="M103.6869 160.2346
L103.7474 160.2951
" />
<path d="M103.7474 160.2951
L103.8079 160.4160
" />
<path d="M103.8079 160.4160
L103.8079 160.5370
" />
<path d="M103.8079 160.5370
L103.7474 160.7184
" />
<path d="M103.7474 160.7184
L103.0217 161.4441
" />
<path d="M103.0217 161.4441
L103.8079 161.4441
" />
<path d="M104.1707 160.5975
L104.6545 160.5975
" />
<path d="M104.3521 161.4441
L104.3521 160.3556
" />
<path d="M104.3521 160.3556
L104.4126 160.2346
" />
<path d="M104.4126 160.2346
L104.5336 160.1741
" />
<path d="M104.5336 160.1741
L104.6545 160.1741
" />
<path d="M104.9569 160.1741
L105.8035 160.1741
" />
<path d="M105.8035 160.1741
L105.2593 161.4441
" />
<path d="M106.8316 160.5975
L106.8316 161.4441
" />
<path d="M106.5292 160.1137
L106.2269 161.0208
" />
<path d="M106.2269 161.0208
L107.0130 161.0208
" />
<path d="M108.0411 160.1741
L107.7992 160.1741
" />
<path d="M107.7992 160.1741
L107.6783 160.2346
" />
<path d="M107.6783 160.2346
L107.6178 160.2951
" />
<path d="M107.6178 160.2951
L107.4968 160.4765
" />
<path d="M107.4968 160.4765
L107.4364 160.7184
" />
<path d="M107.4364 160.7184
L107.4364 161.2022
" />
<path d="M107.4364 161.2022
L107.4968 161.3232
" />
<path d="M107.4968 161.3232
L107.5573 161.3837
" />
<path d="M107.5573 161.3837
L107.6783 161.4441
" />
<path d="M107.6783 161.4441
L107.9202 161.4441
" />
<path d="M107.9202 161.4441
L108.0411 161.3837
" />
<path d="M108.0411 161.3837
L108.1016 161.3232
" />
<path d="M108.1016 161.3232
L108.1621 161.2022
" />
<path d="M108.1621 161.2022
L108.1621 160.8998
" />
<path d="M108.1621 160.8998
L108.1016 160.7789
" />
<path d="M108.1016 160.7789
L108.0411 160.7184
" />
<path d="M108.0411 160.7184
L107.9202 160.6579
" />
<path d="M107.9202 160.6579
L107.6783 160.6579
" />
<path d="M107.6783 160.6579
L107.5573 160.7184
" />
<path d="M107.5573 160.7184
L107.4968 160.7789
" />
<path d="M107.4968 160.7789
L107.4364 160.8998
" />
<path d="M108.7063 161.4441
L108.7063 160.1741
" />
<path d="M108.7063 160.6579
L108.8273 160.5975
" />
<path d="M108.8273 160.5975
L109.0692 160.5975
" />
<path d="M109.0692 160.5975
L109.1901 160.6579
" />
<path d="M109.1901 160.6579
L109.2506 160.7184
" />
<path d="M109.2506 160.7184
L109.3111 160.8394
" />
<path d="M109.3111 160.8394
L109.3111 161.2022
" />
<path d="M109.3111 161.2022
L109.2506 161.3232
" />
<path d="M109.2506 161.3232
L109.1901 161.3837
" />
<path d="M109.1901 161.3837
L109.0692 161.4441
" />
<path d="M109.0692 161.4441
L108.8273 161.4441
" />
<path d="M108.8273 161.4441
L108.7063 161.3837
" />
<path d="M110.3391 161.3837
L110.2182 161.4441
" />
<path d="M110.2182 161.4441
L109.9763 161.4441
" />
<path d="M109.9763 161.4441
L109.8553 161.3837
" />
<path d="M109.8553 161.3837
L109.7949 161.2627
" />
<path d="M109.7949 161.2627
L109.7949 160.7789
" />
<path d="M109.7949 160.7789
L109.8553 160.6579
" />
<path d="M109.8553 160.6579
L109.9763 160.5975
" />
<path d="M109.9763 160.5975
L110.2182 160.5975
" />
<path d="M110.2182 160.5975
L110.3391 160.6579
" />
<path d="M110.3391 160.6579
L110.3996 160.7789
" />
<path d="M110.3996 160.7789
L110.3996 160.8998
" />
<path d="M110.3996 160.8998
L109.7949 161.0208
" />
<path d="M110.9439 161.3232
L111.0044 161.3837
" />
<path d="M111.0044 161.3837
L110.9439 161.4441
" />
<path d="M110.9439 161.4441
L110.8835 161.3837
" />
<path d="M110.8835 161.3837
L110.9439 161.3232
" />
<path d="M110.9439 161.3232
L110.9439 161.4441
" />
<path d="M111.5487 160.5975
L111.5487 161.8675
" />
<path d="M111.5487 160.6579
L111.6697 160.5975
" />
<path d="M111.6697 160.5975
L111.9116 160.5975
" />
<path d="M111.9116 160.5975
L112.0325 160.6579
" />
<path d="M112.0325 160.6579
L112.0930 160.7184
" />
<path d="M112.0930 160.7184
L112.1535 160.8394
" />
<path d="M112.1535 160.8394
L112.1535 161.2022
" />
<path d="M112.1535 161.2022
L112.0930 161.3232
" />
<path d="M112.0930 161.3232
L112.0325 161.3837
" />
<path d="M112.0325 161.3837
L111.9116 161.4441
" />
<path d="M111.9116 161.4441
L111.6697 161.4441
" />
<path d="M111.6697 161.4441
L111.5487 161.3837
" />
<path d="M113.2420 161.4441
L113.2420 160.1741
" />
<path d="M113.2420 161.3837
L113.1211 161.4441
" />
<path d="M113.1211 161.4441
L112.8792 161.4441
" />
<path d="M112.8792 161.4441
L112.7582 161.3837
" />
<path d="M112.7582 161.3837
L112.6977 161.3232
" />
<path d="M112.6977 161.3232
L112.6373 161.2022
" />
<path d="M112.6373 161.2022
L112.6373 160.8394
" />
<path d="M112.6373 160.8394
L112.6977 160.7184
" />
<path d="M112.6977 160.7184
L112.7582 160.6579
" />
<path d="M112.7582 160.6579
L112.8792 160.5975
" />
<path d="M112.8792 160.5975
L113.1211 160.5975
" />
<path d="M113.1211 160.5975
L113.2420 160.6579
" />
<path d="M113.6653 160.5975
L114.1491 160.5975
" />
<path d="M113.8467 161.4441
L113.8467 160.3556
" />
<path d="M113.8467 160.3556
L113.9072 160.2346
" />
<path d="M113.9072 160.2346
L114.0282 160.1741
" />
<path d="M114.0282 160.1741
L114.1491 160.1741
" />
</g></g> 
</svg>
