<?xml version="1.0" standalone="no"?>
 <!DOCTYPE svg PUBLIC "-//W3C//DTD SVG 1.1//EN" 
 "http://www.w3.org/Graphics/SVG/1.1/DTD/svg11.dtd"> 
<svg
  xmlns:svg="http://www.w3.org/2000/svg"
  xmlns="http://www.w3.org/2000/svg"
  xmlns:xlink="http://www.w3.org/1999/xlink"
  version="1.1"
  width="109.1184mm" height="19.2278mm" viewBox="0.0000 0.0000 109.1184 19.2278">
<title>SVG Image created as working.svg date 2023/09/23 09:21:00 </title>
  <desc>Image generated by Eeschema-SVG </desc>
<g style="fill:#000000; fill-opacity:1.0000;stroke:#000000; stroke-opacity:1.0000;
stroke-linecap:round; stroke-linejoin:round;"
 transform="translate(0 0) scale(1 1)">
</g>
<g style="fill:#840000; fill-opacity:0.0; 
stroke:#840000; stroke-width:0.0000; stroke-opacity:1; 
stroke-linecap:round; stroke-linejoin:round;">
</g>
<g style="fill:#840084; fill-opacity:0.0; 
stroke:#840084; stroke-width:0.0000; stroke-opacity:1; 
stroke-linecap:round; stroke-linejoin:round;">
</g>
<g style="fill:#840000; fill-opacity:0.0; 
stroke:#840000; stroke-width:0.0000; stroke-opacity:1; 
stroke-linecap:round; stroke-linejoin:round;">
</g>
<g style="fill:#840084; fill-opacity:0.0; 
stroke:#840084; stroke-width:0.0000; stroke-opacity:1; 
stroke-linecap:round; stroke-linejoin:round;">
</g>
<g style="fill:#006464; fill-opacity:0.0; 
stroke:#006464; stroke-width:0.0000; stroke-opacity:1; 
stroke-linecap:round; stroke-linejoin:round;">
</g>
<g style="fill:#006464; fill-opacity:0.0; 
stroke:#006464; stroke-width:0.1588; stroke-opacity:1; 
stroke-linecap:round; stroke-linejoin:round;">
<text x="44.4014" y="3.2579"
textLength="3.7905" font-size="1.6933" lengthAdjust="spacingAndGlyphs"
text-anchor="middle" opacity="0">PS?</text>
<g class="stroked-text"><desc>PS?</desc>
<path d="M42.9197 3.2021
L42.9197 1.9321
" />
<path d="M42.9197 1.9321
L43.4035 1.9321
" />
<path d="M43.4035 1.9321
L43.5245 1.9926
" />
<path d="M43.5245 1.9926
L43.5850 2.0531
" />
<path d="M43.5850 2.0531
L43.6454 2.1740
" />
<path d="M43.6454 2.1740
L43.6454 2.3555
" />
<path d="M43.6454 2.3555
L43.5850 2.4764
" />
<path d="M43.5850 2.4764
L43.5245 2.5369
" />
<path d="M43.5245 2.5369
L43.4035 2.5974
" />
<path d="M43.4035 2.5974
L42.9197 2.5974
" />
<path d="M44.1293 3.1417
L44.3107 3.2021
" />
<path d="M44.3107 3.2021
L44.6131 3.2021
" />
<path d="M44.6131 3.2021
L44.7340 3.1417
" />
<path d="M44.7340 3.1417
L44.7945 3.0812
" />
<path d="M44.7945 3.0812
L44.8550 2.9602
" />
<path d="M44.8550 2.9602
L44.8550 2.8393
" />
<path d="M44.8550 2.8393
L44.7945 2.7183
" />
<path d="M44.7945 2.7183
L44.7340 2.6578
" />
<path d="M44.7340 2.6578
L44.6131 2.5974
" />
<path d="M44.6131 2.5974
L44.3712 2.5369
" />
<path d="M44.3712 2.5369
L44.2502 2.4764
" />
<path d="M44.2502 2.4764
L44.1897 2.4159
" />
<path d="M44.1897 2.4159
L44.1293 2.2950
" />
<path d="M44.1293 2.2950
L44.1293 2.1740
" />
<path d="M44.1293 2.1740
L44.1897 2.0531
" />
<path d="M44.1897 2.0531
L44.2502 1.9926
" />
<path d="M44.2502 1.9926
L44.3712 1.9321
" />
<path d="M44.3712 1.9321
L44.6735 1.9321
" />
<path d="M44.6735 1.9321
L44.8550 1.9926
" />
<path d="M45.5807 3.0812
L45.6411 3.1417
" />
<path d="M45.6411 3.1417
L45.5807 3.2021
" />
<path d="M45.5807 3.2021
L45.5202 3.1417
" />
<path d="M45.5202 3.1417
L45.5807 3.0812
" />
<path d="M45.5807 3.0812
L45.5807 3.2021
" />
<path d="M45.3388 1.9926
L45.4597 1.9321
" />
<path d="M45.4597 1.9321
L45.7621 1.9321
" />
<path d="M45.7621 1.9321
L45.8830 1.9926
" />
<path d="M45.8830 1.9926
L45.9435 2.1136
" />
<path d="M45.9435 2.1136
L45.9435 2.2345
" />
<path d="M45.9435 2.2345
L45.8830 2.3555
" />
<path d="M45.8830 2.3555
L45.8226 2.4159
" />
<path d="M45.8226 2.4159
L45.7016 2.4764
" />
<path d="M45.7016 2.4764
L45.6411 2.5369
" />
<path d="M45.6411 2.5369
L45.5807 2.6578
" />
<path d="M45.5807 2.6578
L45.5807 2.7183
" />
</g><text x="44.4014" y="13.4179"
textLength="15.7647" font-size="1.6933" lengthAdjust="spacingAndGlyphs"
text-anchor="middle" opacity="0">TPP-15-112-D</text>
<g class="stroked-text"><desc>TPP-15-112-D</desc>
<path d="M36.7512 12.0921
L37.4769 12.0921
" />
<path d="M37.1141 13.3621
L37.1141 12.0921
" />
<path d="M37.9002 13.3621
L37.9002 12.0921
" />
<path d="M37.9002 12.0921
L38.3840 12.0921
" />
<path d="M38.3840 12.0921
L38.5050 12.1526
" />
<path d="M38.5050 12.1526
L38.5655 12.2131
" />
<path d="M38.5655 12.2131
L38.6259 12.3340
" />
<path d="M38.6259 12.3340
L38.6259 12.5155
" />
<path d="M38.6259 12.5155
L38.5655 12.6364
" />
<path d="M38.5655 12.6364
L38.5050 12.6969
" />
<path d="M38.5050 12.6969
L38.3840 12.7574
" />
<path d="M38.3840 12.7574
L37.9002 12.7574
" />
<path d="M39.1702 13.3621
L39.1702 12.0921
" />
<path d="M39.1702 12.0921
L39.6540 12.0921
" />
<path d="M39.6540 12.0921
L39.7750 12.1526
" />
<path d="M39.7750 12.1526
L39.8355 12.2131
" />
<path d="M39.8355 12.2131
L39.8959 12.3340
" />
<path d="M39.8959 12.3340
L39.8959 12.5155
" />
<path d="M39.8959 12.5155
L39.8355 12.6364
" />
<path d="M39.8355 12.6364
L39.7750 12.6969
" />
<path d="M39.7750 12.6969
L39.6540 12.7574
" />
<path d="M39.6540 12.7574
L39.1702 12.7574
" />
<path d="M40.4402 12.8783
L41.4079 12.8783
" />
<path d="M42.6779 13.3621
L41.9522 13.3621
" />
<path d="M42.3150 13.3621
L42.3150 12.0921
" />
<path d="M42.3150 12.0921
L42.1941 12.2736
" />
<path d="M42.1941 12.2736
L42.0731 12.3945
" />
<path d="M42.0731 12.3945
L41.9522 12.4550
" />
<path d="M43.8269 12.0921
L43.2221 12.0921
" />
<path d="M43.2221 12.0921
L43.1617 12.6969
" />
<path d="M43.1617 12.6969
L43.2221 12.6364
" />
<path d="M43.2221 12.6364
L43.3431 12.5759
" />
<path d="M43.3431 12.5759
L43.6455 12.5759
" />
<path d="M43.6455 12.5759
L43.7664 12.6364
" />
<path d="M43.7664 12.6364
L43.8269 12.6969
" />
<path d="M43.8269 12.6969
L43.8874 12.8178
" />
<path d="M43.8874 12.8178
L43.8874 13.1202
" />
<path d="M43.8874 13.1202
L43.8269 13.2412
" />
<path d="M43.8269 13.2412
L43.7664 13.3017
" />
<path d="M43.7664 13.3017
L43.6455 13.3621
" />
<path d="M43.6455 13.3621
L43.3431 13.3621
" />
<path d="M43.3431 13.3621
L43.2221 13.3017
" />
<path d="M43.2221 13.3017
L43.1617 13.2412
" />
<path d="M44.4316 12.8783
L45.3993 12.8783
" />
<path d="M46.6693 13.3621
L45.9436 13.3621
" />
<path d="M46.3064 13.3621
L46.3064 12.0921
" />
<path d="M46.3064 12.0921
L46.1855 12.2736
" />
<path d="M46.1855 12.2736
L46.0645 12.3945
" />
<path d="M46.0645 12.3945
L45.9436 12.4550
" />
<path d="M47.8788 13.3621
L47.1531 13.3621
" />
<path d="M47.5159 13.3621
L47.5159 12.0921
" />
<path d="M47.5159 12.0921
L47.3950 12.2736
" />
<path d="M47.3950 12.2736
L47.2740 12.3945
" />
<path d="M47.2740 12.3945
L47.1531 12.4550
" />
<path d="M48.3626 12.2131
L48.4230 12.1526
" />
<path d="M48.4230 12.1526
L48.5440 12.0921
" />
<path d="M48.5440 12.0921
L48.8464 12.0921
" />
<path d="M48.8464 12.0921
L48.9673 12.1526
" />
<path d="M48.9673 12.1526
L49.0278 12.2131
" />
<path d="M49.0278 12.2131
L49.0883 12.3340
" />
<path d="M49.0883 12.3340
L49.0883 12.4550
" />
<path d="M49.0883 12.4550
L49.0278 12.6364
" />
<path d="M49.0278 12.6364
L48.3021 13.3621
" />
<path d="M48.3021 13.3621
L49.0883 13.3621
" />
<path d="M49.6325 12.8783
L50.6002 12.8783
" />
<path d="M51.2049 13.3621
L51.2049 12.0921
" />
<path d="M51.2049 12.0921
L51.5073 12.0921
" />
<path d="M51.5073 12.0921
L51.6887 12.1526
" />
<path d="M51.6887 12.1526
L51.8097 12.2736
" />
<path d="M51.8097 12.2736
L51.8702 12.3945
" />
<path d="M51.8702 12.3945
L51.9306 12.6364
" />
<path d="M51.9306 12.6364
L51.9306 12.8178
" />
<path d="M51.9306 12.8178
L51.8702 13.0597
" />
<path d="M51.8702 13.0597
L51.8097 13.1807
" />
<path d="M51.8097 13.1807
L51.6887 13.3017
" />
<path d="M51.6887 13.3017
L51.5073 13.3621
" />
<path d="M51.5073 13.3621
L51.2049 13.3621
" />
</g></g>
<g style="fill:#840084; fill-opacity:0.0; 
stroke:#840084; stroke-width:0.1588; stroke-opacity:1; 
stroke-linecap:round; stroke-linejoin:round;">
<text x="44.4014" y="15.9579"
textLength="57.8561" font-size="1.6933" lengthAdjust="spacingAndGlyphs"
text-anchor="middle" opacity="0">Converter_ACDC:Converter_ACDC_TRACO_TPP-15-1xx-D_THT</text>
<g class="stroked-text"><desc>Converter_ACDC:Converter_ACDC_TRACO_TPP-15-1xx-D_THT</desc>
<path d="M16.6126 15.7812
L16.5522 15.8417
" />
<path d="M16.5522 15.8417
L16.3707 15.9021
" />
<path d="M16.3707 15.9021
L16.2498 15.9021
" />
<path d="M16.2498 15.9021
L16.0684 15.8417
" />
<path d="M16.0684 15.8417
L15.9474 15.7207
" />
<path d="M15.9474 15.7207
L15.8869 15.5997
" />
<path d="M15.8869 15.5997
L15.8265 15.3578
" />
<path d="M15.8265 15.3578
L15.8265 15.1764
" />
<path d="M15.8265 15.1764
L15.8869 14.9345
" />
<path d="M15.8869 14.9345
L15.9474 14.8136
" />
<path d="M15.9474 14.8136
L16.0684 14.6926
" />
<path d="M16.0684 14.6926
L16.2498 14.6321
" />
<path d="M16.2498 14.6321
L16.3707 14.6321
" />
<path d="M16.3707 14.6321
L16.5522 14.6926
" />
<path d="M16.5522 14.6926
L16.6126 14.7531
" />
<path d="M17.3384 15.9021
L17.2174 15.8417
" />
<path d="M17.2174 15.8417
L17.1569 15.7812
" />
<path d="M17.1569 15.7812
L17.0965 15.6602
" />
<path d="M17.0965 15.6602
L17.0965 15.2974
" />
<path d="M17.0965 15.2974
L17.1569 15.1764
" />
<path d="M17.1569 15.1764
L17.2174 15.1159
" />
<path d="M17.2174 15.1159
L17.3384 15.0555
" />
<path d="M17.3384 15.0555
L17.5198 15.0555
" />
<path d="M17.5198 15.0555
L17.6407 15.1159
" />
<path d="M17.6407 15.1159
L17.7012 15.1764
" />
<path d="M17.7012 15.1764
L17.7617 15.2974
" />
<path d="M17.7617 15.2974
L17.7617 15.6602
" />
<path d="M17.7617 15.6602
L17.7012 15.7812
" />
<path d="M17.7012 15.7812
L17.6407 15.8417
" />
<path d="M17.6407 15.8417
L17.5198 15.9021
" />
<path d="M17.5198 15.9021
L17.3384 15.9021
" />
<path d="M18.3059 15.0555
L18.3059 15.9021
" />
<path d="M18.3059 15.1764
L18.3664 15.1159
" />
<path d="M18.3664 15.1159
L18.4874 15.0555
" />
<path d="M18.4874 15.0555
L18.6688 15.0555
" />
<path d="M18.6688 15.0555
L18.7897 15.1159
" />
<path d="M18.7897 15.1159
L18.8502 15.2369
" />
<path d="M18.8502 15.2369
L18.8502 15.9021
" />
<path d="M19.3340 15.0555
L19.6364 15.9021
" />
<path d="M19.6364 15.9021
L19.9387 15.0555
" />
<path d="M20.9063 15.8417
L20.7854 15.9021
" />
<path d="M20.7854 15.9021
L20.5435 15.9021
" />
<path d="M20.5435 15.9021
L20.4225 15.8417
" />
<path d="M20.4225 15.8417
L20.3621 15.7207
" />
<path d="M20.3621 15.7207
L20.3621 15.2369
" />
<path d="M20.3621 15.2369
L20.4225 15.1159
" />
<path d="M20.4225 15.1159
L20.5435 15.0555
" />
<path d="M20.5435 15.0555
L20.7854 15.0555
" />
<path d="M20.7854 15.0555
L20.9063 15.1159
" />
<path d="M20.9063 15.1159
L20.9668 15.2369
" />
<path d="M20.9668 15.2369
L20.9668 15.3578
" />
<path d="M20.9668 15.3578
L20.3621 15.4788
" />
<path d="M21.5111 15.9021
L21.5111 15.0555
" />
<path d="M21.5111 15.2974
L21.5716 15.1764
" />
<path d="M21.5716 15.1764
L21.6321 15.1159
" />
<path d="M21.6321 15.1159
L21.7530 15.0555
" />
<path d="M21.7530 15.0555
L21.8740 15.0555
" />
<path d="M22.1159 15.0555
L22.5997 15.0555
" />
<path d="M22.2973 14.6321
L22.2973 15.7207
" />
<path d="M22.2973 15.7207
L22.3578 15.8417
" />
<path d="M22.3578 15.8417
L22.4788 15.9021
" />
<path d="M22.4788 15.9021
L22.5997 15.9021
" />
<path d="M23.5068 15.8417
L23.3859 15.9021
" />
<path d="M23.3859 15.9021
L23.1440 15.9021
" />
<path d="M23.1440 15.9021
L23.0230 15.8417
" />
<path d="M23.0230 15.8417
L22.9626 15.7207
" />
<path d="M22.9626 15.7207
L22.9626 15.2369
" />
<path d="M22.9626 15.2369
L23.0230 15.1159
" />
<path d="M23.0230 15.1159
L23.1440 15.0555
" />
<path d="M23.1440 15.0555
L23.3859 15.0555
" />
<path d="M23.3859 15.0555
L23.5068 15.1159
" />
<path d="M23.5068 15.1159
L23.5673 15.2369
" />
<path d="M23.5673 15.2369
L23.5673 15.3578
" />
<path d="M23.5673 15.3578
L22.9626 15.4788
" />
<path d="M24.1116 15.9021
L24.1116 15.0555
" />
<path d="M24.1116 15.2974
L24.1721 15.1764
" />
<path d="M24.1721 15.1764
L24.2326 15.1159
" />
<path d="M24.2326 15.1159
L24.3535 15.0555
" />
<path d="M24.3535 15.0555
L24.4745 15.0555
" />
<path d="M24.5955 16.0231
L25.5631 16.0231
" />
<path d="M25.8050 15.5393
L26.4097 15.5393
" />
<path d="M25.6840 15.9021
L26.1073 14.6321
" />
<path d="M26.1073 14.6321
L26.5307 15.9021
" />
<path d="M27.6797 15.7812
L27.6193 15.8417
" />
<path d="M27.6193 15.8417
L27.4378 15.9021
" />
<path d="M27.4378 15.9021
L27.3169 15.9021
" />
<path d="M27.3169 15.9021
L27.1355 15.8417
" />
<path d="M27.1355 15.8417
L27.0145 15.7207
" />
<path d="M27.0145 15.7207
L26.9540 15.5997
" />
<path d="M26.9540 15.5997
L26.8936 15.3578
" />
<path d="M26.8936 15.3578
L26.8936 15.1764
" />
<path d="M26.8936 15.1764
L26.9540 14.9345
" />
<path d="M26.9540 14.9345
L27.0145 14.8136
" />
<path d="M27.0145 14.8136
L27.1355 14.6926
" />
<path d="M27.1355 14.6926
L27.3169 14.6321
" />
<path d="M27.3169 14.6321
L27.4378 14.6321
" />
<path d="M27.4378 14.6321
L27.6193 14.6926
" />
<path d="M27.6193 14.6926
L27.6797 14.7531
" />
<path d="M28.2240 15.9021
L28.2240 14.6321
" />
<path d="M28.2240 14.6321
L28.5264 14.6321
" />
<path d="M28.5264 14.6321
L28.7078 14.6926
" />
<path d="M28.7078 14.6926
L28.8288 14.8136
" />
<path d="M28.8288 14.8136
L28.8893 14.9345
" />
<path d="M28.8893 14.9345
L28.9497 15.1764
" />
<path d="M28.9497 15.1764
L28.9497 15.3578
" />
<path d="M28.9497 15.3578
L28.8893 15.5997
" />
<path d="M28.8893 15.5997
L28.8288 15.7207
" />
<path d="M28.8288 15.7207
L28.7078 15.8417
" />
<path d="M28.7078 15.8417
L28.5264 15.9021
" />
<path d="M28.5264 15.9021
L28.2240 15.9021
" />
<path d="M30.2197 15.7812
L30.1593 15.8417
" />
<path d="M30.1593 15.8417
L29.9778 15.9021
" />
<path d="M29.9778 15.9021
L29.8569 15.9021
" />
<path d="M29.8569 15.9021
L29.6755 15.8417
" />
<path d="M29.6755 15.8417
L29.5545 15.7207
" />
<path d="M29.5545 15.7207
L29.4940 15.5997
" />
<path d="M29.4940 15.5997
L29.4336 15.3578
" />
<path d="M29.4336 15.3578
L29.4336 15.1764
" />
<path d="M29.4336 15.1764
L29.4940 14.9345
" />
<path d="M29.4940 14.9345
L29.5545 14.8136
" />
<path d="M29.5545 14.8136
L29.6755 14.6926
" />
<path d="M29.6755 14.6926
L29.8569 14.6321
" />
<path d="M29.8569 14.6321
L29.9778 14.6321
" />
<path d="M29.9778 14.6321
L30.1593 14.6926
" />
<path d="M30.1593 14.6926
L30.2197 14.7531
" />
<path d="M30.7640 15.7812
L30.8245 15.8417
" />
<path d="M30.8245 15.8417
L30.7640 15.9021
" />
<path d="M30.7640 15.9021
L30.7036 15.8417
" />
<path d="M30.7036 15.8417
L30.7640 15.7812
" />
<path d="M30.7640 15.7812
L30.7640 15.9021
" />
<path d="M30.7640 15.1159
L30.8245 15.1764
" />
<path d="M30.8245 15.1764
L30.7640 15.2369
" />
<path d="M30.7640 15.2369
L30.7036 15.1764
" />
<path d="M30.7036 15.1764
L30.7640 15.1159
" />
<path d="M30.7640 15.1159
L30.7640 15.2369
" />
<path d="M32.0945 15.7812
L32.0341 15.8417
" />
<path d="M32.0341 15.8417
L31.8526 15.9021
" />
<path d="M31.8526 15.9021
L31.7317 15.9021
" />
<path d="M31.7317 15.9021
L31.5503 15.8417
" />
<path d="M31.5503 15.8417
L31.4293 15.7207
" />
<path d="M31.4293 15.7207
L31.3688 15.5997
" />
<path d="M31.3688 15.5997
L31.3084 15.3578
" />
<path d="M31.3084 15.3578
L31.3084 15.1764
" />
<path d="M31.3084 15.1764
L31.3688 14.9345
" />
<path d="M31.3688 14.9345
L31.4293 14.8136
" />
<path d="M31.4293 14.8136
L31.5503 14.6926
" />
<path d="M31.5503 14.6926
L31.7317 14.6321
" />
<path d="M31.7317 14.6321
L31.8526 14.6321
" />
<path d="M31.8526 14.6321
L32.0341 14.6926
" />
<path d="M32.0341 14.6926
L32.0945 14.7531
" />
<path d="M32.8203 15.9021
L32.6993 15.8417
" />
<path d="M32.6993 15.8417
L32.6388 15.7812
" />
<path d="M32.6388 15.7812
L32.5784 15.6602
" />
<path d="M32.5784 15.6602
L32.5784 15.2974
" />
<path d="M32.5784 15.2974
L32.6388 15.1764
" />
<path d="M32.6388 15.1764
L32.6993 15.1159
" />
<path d="M32.6993 15.1159
L32.8203 15.0555
" />
<path d="M32.8203 15.0555
L33.0017 15.0555
" />
<path d="M33.0017 15.0555
L33.1226 15.1159
" />
<path d="M33.1226 15.1159
L33.1831 15.1764
" />
<path d="M33.1831 15.1764
L33.2436 15.2974
" />
<path d="M33.2436 15.2974
L33.2436 15.6602
" />
<path d="M33.2436 15.6602
L33.1831 15.7812
" />
<path d="M33.1831 15.7812
L33.1226 15.8417
" />
<path d="M33.1226 15.8417
L33.0017 15.9021
" />
<path d="M33.0017 15.9021
L32.8203 15.9021
" />
<path d="M33.7878 15.0555
L33.7878 15.9021
" />
<path d="M33.7878 15.1764
L33.8483 15.1159
" />
<path d="M33.8483 15.1159
L33.9693 15.0555
" />
<path d="M33.9693 15.0555
L34.1507 15.0555
" />
<path d="M34.1507 15.0555
L34.2716 15.1159
" />
<path d="M34.2716 15.1159
L34.3321 15.2369
" />
<path d="M34.3321 15.2369
L34.3321 15.9021
" />
<path d="M34.8159 15.0555
L35.1183 15.9021
" />
<path d="M35.1183 15.9021
L35.4206 15.0555
" />
<path d="M36.3882 15.8417
L36.2673 15.9021
" />
<path d="M36.2673 15.9021
L36.0254 15.9021
" />
<path d="M36.0254 15.9021
L35.9044 15.8417
" />
<path d="M35.9044 15.8417
L35.8440 15.7207
" />
<path d="M35.8440 15.7207
L35.8440 15.2369
" />
<path d="M35.8440 15.2369
L35.9044 15.1159
" />
<path d="M35.9044 15.1159
L36.0254 15.0555
" />
<path d="M36.0254 15.0555
L36.2673 15.0555
" />
<path d="M36.2673 15.0555
L36.3882 15.1159
" />
<path d="M36.3882 15.1159
L36.4487 15.2369
" />
<path d="M36.4487 15.2369
L36.4487 15.3578
" />
<path d="M36.4487 15.3578
L35.8440 15.4788
" />
<path d="M36.9930 15.9021
L36.9930 15.0555
" />
<path d="M36.9930 15.2974
L37.0535 15.1764
" />
<path d="M37.0535 15.1764
L37.1140 15.1159
" />
<path d="M37.1140 15.1159
L37.2349 15.0555
" />
<path d="M37.2349 15.0555
L37.3559 15.0555
" />
<path d="M37.5978 15.0555
L38.0816 15.0555
" />
<path d="M37.7792 14.6321
L37.7792 15.7207
" />
<path d="M37.7792 15.7207
L37.8397 15.8417
" />
<path d="M37.8397 15.8417
L37.9607 15.9021
" />
<path d="M37.9607 15.9021
L38.0816 15.9021
" />
<path d="M38.9887 15.8417
L38.8678 15.9021
" />
<path d="M38.8678 15.9021
L38.6259 15.9021
" />
<path d="M38.6259 15.9021
L38.5049 15.8417
" />
<path d="M38.5049 15.8417
L38.4445 15.7207
" />
<path d="M38.4445 15.7207
L38.4445 15.2369
" />
<path d="M38.4445 15.2369
L38.5049 15.1159
" />
<path d="M38.5049 15.1159
L38.6259 15.0555
" />
<path d="M38.6259 15.0555
L38.8678 15.0555
" />
<path d="M38.8678 15.0555
L38.9887 15.1159
" />
<path d="M38.9887 15.1159
L39.0492 15.2369
" />
<path d="M39.0492 15.2369
L39.0492 15.3578
" />
<path d="M39.0492 15.3578
L38.4445 15.4788
" />
<path d="M39.5935 15.9021
L39.5935 15.0555
" />
<path d="M39.5935 15.2974
L39.6540 15.1764
" />
<path d="M39.6540 15.1764
L39.7145 15.1159
" />
<path d="M39.7145 15.1159
L39.8354 15.0555
" />
<path d="M39.8354 15.0555
L39.9564 15.0555
" />
<path d="M40.0774 16.0231
L41.0450 16.0231
" />
<path d="M41.2869 15.5393
L41.8916 15.5393
" />
<path d="M41.1659 15.9021
L41.5892 14.6321
" />
<path d="M41.5892 14.6321
L42.0126 15.9021
" />
<path d="M43.1616 15.7812
L43.1012 15.8417
" />
<path d="M43.1012 15.8417
L42.9197 15.9021
" />
<path d="M42.9197 15.9021
L42.7988 15.9021
" />
<path d="M42.7988 15.9021
L42.6174 15.8417
" />
<path d="M42.6174 15.8417
L42.4964 15.7207
" />
<path d="M42.4964 15.7207
L42.4359 15.5997
" />
<path d="M42.4359 15.5997
L42.3755 15.3578
" />
<path d="M42.3755 15.3578
L42.3755 15.1764
" />
<path d="M42.3755 15.1764
L42.4359 14.9345
" />
<path d="M42.4359 14.9345
L42.4964 14.8136
" />
<path d="M42.4964 14.8136
L42.6174 14.6926
" />
<path d="M42.6174 14.6926
L42.7988 14.6321
" />
<path d="M42.7988 14.6321
L42.9197 14.6321
" />
<path d="M42.9197 14.6321
L43.1012 14.6926
" />
<path d="M43.1012 14.6926
L43.1616 14.7531
" />
<path d="M43.7059 15.9021
L43.7059 14.6321
" />
<path d="M43.7059 14.6321
L44.0083 14.6321
" />
<path d="M44.0083 14.6321
L44.1897 14.6926
" />
<path d="M44.1897 14.6926
L44.3107 14.8136
" />
<path d="M44.3107 14.8136
L44.3712 14.9345
" />
<path d="M44.3712 14.9345
L44.4316 15.1764
" />
<path d="M44.4316 15.1764
L44.4316 15.3578
" />
<path d="M44.4316 15.3578
L44.3712 15.5997
" />
<path d="M44.3712 15.5997
L44.3107 15.7207
" />
<path d="M44.3107 15.7207
L44.1897 15.8417
" />
<path d="M44.1897 15.8417
L44.0083 15.9021
" />
<path d="M44.0083 15.9021
L43.7059 15.9021
" />
<path d="M45.7016 15.7812
L45.6412 15.8417
" />
<path d="M45.6412 15.8417
L45.4597 15.9021
" />
<path d="M45.4597 15.9021
L45.3388 15.9021
" />
<path d="M45.3388 15.9021
L45.1574 15.8417
" />
<path d="M45.1574 15.8417
L45.0364 15.7207
" />
<path d="M45.0364 15.7207
L44.9759 15.5997
" />
<path d="M44.9759 15.5997
L44.9155 15.3578
" />
<path d="M44.9155 15.3578
L44.9155 15.1764
" />
<path d="M44.9155 15.1764
L44.9759 14.9345
" />
<path d="M44.9759 14.9345
L45.0364 14.8136
" />
<path d="M45.0364 14.8136
L45.1574 14.6926
" />
<path d="M45.1574 14.6926
L45.3388 14.6321
" />
<path d="M45.3388 14.6321
L45.4597 14.6321
" />
<path d="M45.4597 14.6321
L45.6412 14.6926
" />
<path d="M45.6412 14.6926
L45.7016 14.7531
" />
<path d="M45.9436 16.0231
L46.9112 16.0231
" />
<path d="M47.0321 14.6321
L47.7578 14.6321
" />
<path d="M47.3950 15.9021
L47.3950 14.6321
" />
<path d="M48.9068 15.9021
L48.4835 15.2974
" />
<path d="M48.1811 15.9021
L48.1811 14.6321
" />
<path d="M48.1811 14.6321
L48.6649 14.6321
" />
<path d="M48.6649 14.6321
L48.7859 14.6926
" />
<path d="M48.7859 14.6926
L48.8464 14.7531
" />
<path d="M48.8464 14.7531
L48.9068 14.8740
" />
<path d="M48.9068 14.8740
L48.9068 15.0555
" />
<path d="M48.9068 15.0555
L48.8464 15.1764
" />
<path d="M48.8464 15.1764
L48.7859 15.2369
" />
<path d="M48.7859 15.2369
L48.6649 15.2974
" />
<path d="M48.6649 15.2974
L48.1811 15.2974
" />
<path d="M49.3907 15.5393
L49.9954 15.5393
" />
<path d="M49.2697 15.9021
L49.6930 14.6321
" />
<path d="M49.6930 14.6321
L50.1164 15.9021
" />
<path d="M51.2654 15.7812
L51.2050 15.8417
" />
<path d="M51.2050 15.8417
L51.0235 15.9021
" />
<path d="M51.0235 15.9021
L50.9026 15.9021
" />
<path d="M50.9026 15.9021
L50.7212 15.8417
" />
<path d="M50.7212 15.8417
L50.6002 15.7207
" />
<path d="M50.6002 15.7207
L50.5397 15.5997
" />
<path d="M50.5397 15.5997
L50.4793 15.3578
" />
<path d="M50.4793 15.3578
L50.4793 15.1764
" />
<path d="M50.4793 15.1764
L50.5397 14.9345
" />
<path d="M50.5397 14.9345
L50.6002 14.8136
" />
<path d="M50.6002 14.8136
L50.7212 14.6926
" />
<path d="M50.7212 14.6926
L50.9026 14.6321
" />
<path d="M50.9026 14.6321
L51.0235 14.6321
" />
<path d="M51.0235 14.6321
L51.2050 14.6926
" />
<path d="M51.2050 14.6926
L51.2654 14.7531
" />
<path d="M52.0516 14.6321
L52.2935 14.6321
" />
<path d="M52.2935 14.6321
L52.4145 14.6926
" />
<path d="M52.4145 14.6926
L52.5354 14.8136
" />
<path d="M52.5354 14.8136
L52.5959 15.0555
" />
<path d="M52.5959 15.0555
L52.5959 15.4788
" />
<path d="M52.5959 15.4788
L52.5354 15.7207
" />
<path d="M52.5354 15.7207
L52.4145 15.8417
" />
<path d="M52.4145 15.8417
L52.2935 15.9021
" />
<path d="M52.2935 15.9021
L52.0516 15.9021
" />
<path d="M52.0516 15.9021
L51.9307 15.8417
" />
<path d="M51.9307 15.8417
L51.8097 15.7207
" />
<path d="M51.8097 15.7207
L51.7493 15.4788
" />
<path d="M51.7493 15.4788
L51.7493 15.0555
" />
<path d="M51.7493 15.0555
L51.8097 14.8136
" />
<path d="M51.8097 14.8136
L51.9307 14.6926
" />
<path d="M51.9307 14.6926
L52.0516 14.6321
" />
<path d="M52.8379 16.0231
L53.8055 16.0231
" />
<path d="M53.9264 14.6321
L54.6521 14.6321
" />
<path d="M54.2893 15.9021
L54.2893 14.6321
" />
<path d="M55.0754 15.9021
L55.0754 14.6321
" />
<path d="M55.0754 14.6321
L55.5592 14.6321
" />
<path d="M55.5592 14.6321
L55.6802 14.6926
" />
<path d="M55.6802 14.6926
L55.7407 14.7531
" />
<path d="M55.7407 14.7531
L55.8011 14.8740
" />
<path d="M55.8011 14.8740
L55.8011 15.0555
" />
<path d="M55.8011 15.0555
L55.7407 15.1764
" />
<path d="M55.7407 15.1764
L55.6802 15.2369
" />
<path d="M55.6802 15.2369
L55.5592 15.2974
" />
<path d="M55.5592 15.2974
L55.0754 15.2974
" />
<path d="M56.3454 15.9021
L56.3454 14.6321
" />
<path d="M56.3454 14.6321
L56.8292 14.6321
" />
<path d="M56.8292 14.6321
L56.9502 14.6926
" />
<path d="M56.9502 14.6926
L57.0107 14.7531
" />
<path d="M57.0107 14.7531
L57.0711 14.8740
" />
<path d="M57.0711 14.8740
L57.0711 15.0555
" />
<path d="M57.0711 15.0555
L57.0107 15.1764
" />
<path d="M57.0107 15.1764
L56.9502 15.2369
" />
<path d="M56.9502 15.2369
L56.8292 15.2974
" />
<path d="M56.8292 15.2974
L56.3454 15.2974
" />
<path d="M57.6154 15.4183
L58.5831 15.4183
" />
<path d="M59.8531 15.9021
L59.1274 15.9021
" />
<path d="M59.4902 15.9021
L59.4902 14.6321
" />
<path d="M59.4902 14.6321
L59.3693 14.8136
" />
<path d="M59.3693 14.8136
L59.2483 14.9345
" />
<path d="M59.2483 14.9345
L59.1274 14.9950
" />
<path d="M61.0021 14.6321
L60.3973 14.6321
" />
<path d="M60.3973 14.6321
L60.3369 15.2369
" />
<path d="M60.3369 15.2369
L60.3973 15.1764
" />
<path d="M60.3973 15.1764
L60.5183 15.1159
" />
<path d="M60.5183 15.1159
L60.8207 15.1159
" />
<path d="M60.8207 15.1159
L60.9416 15.1764
" />
<path d="M60.9416 15.1764
L61.0021 15.2369
" />
<path d="M61.0021 15.2369
L61.0626 15.3578
" />
<path d="M61.0626 15.3578
L61.0626 15.6602
" />
<path d="M61.0626 15.6602
L61.0021 15.7812
" />
<path d="M61.0021 15.7812
L60.9416 15.8417
" />
<path d="M60.9416 15.8417
L60.8207 15.9021
" />
<path d="M60.8207 15.9021
L60.5183 15.9021
" />
<path d="M60.5183 15.9021
L60.3973 15.8417
" />
<path d="M60.3973 15.8417
L60.3369 15.7812
" />
<path d="M61.6068 15.4183
L62.5745 15.4183
" />
<path d="M63.8445 15.9021
L63.1188 15.9021
" />
<path d="M63.4816 15.9021
L63.4816 14.6321
" />
<path d="M63.4816 14.6321
L63.3607 14.8136
" />
<path d="M63.3607 14.8136
L63.2397 14.9345
" />
<path d="M63.2397 14.9345
L63.1188 14.9950
" />
<path d="M64.2678 15.9021
L64.9330 15.0555
" />
<path d="M64.2678 15.0555
L64.9330 15.9021
" />
<path d="M65.2959 15.9021
L65.9611 15.0555
" />
<path d="M65.2959 15.0555
L65.9611 15.9021
" />
<path d="M66.4449 15.4183
L67.4126 15.4183
" />
<path d="M68.0173 15.9021
L68.0173 14.6321
" />
<path d="M68.0173 14.6321
L68.3197 14.6321
" />
<path d="M68.3197 14.6321
L68.5011 14.6926
" />
<path d="M68.5011 14.6926
L68.6221 14.8136
" />
<path d="M68.6221 14.8136
L68.6826 14.9345
" />
<path d="M68.6826 14.9345
L68.7430 15.1764
" />
<path d="M68.7430 15.1764
L68.7430 15.3578
" />
<path d="M68.7430 15.3578
L68.6826 15.5997
" />
<path d="M68.6826 15.5997
L68.6221 15.7207
" />
<path d="M68.6221 15.7207
L68.5011 15.8417
" />
<path d="M68.5011 15.8417
L68.3197 15.9021
" />
<path d="M68.3197 15.9021
L68.0173 15.9021
" />
<path d="M68.9850 16.0231
L69.9526 16.0231
" />
<path d="M70.0735 14.6321
L70.7992 14.6321
" />
<path d="M70.4364 15.9021
L70.4364 14.6321
" />
<path d="M71.2225 15.9021
L71.2225 14.6321
" />
<path d="M71.2225 15.2369
L71.9482 15.2369
" />
<path d="M71.9482 15.9021
L71.9482 14.6321
" />
<path d="M72.3716 14.6321
L73.0973 14.6321
" />
<path d="M72.7345 15.9021
L72.7345 14.6321
" />
</g><text x="54.5614" y="17.2279"
textLength="90.9359" font-size="1.6933" lengthAdjust="spacingAndGlyphs"
text-anchor="middle" opacity="0">https://www.tracopower.com/sites/default/files/products/datasheets/tpp15_d_datasheet.pdf</text>
<g class="stroked-text"><desc>https://www.tracopower.com/sites/default/files/products/datasheets/tpp15_d_datasheet.pdf</desc>
<path d="M9.5070 17.1721
L9.5070 15.9021
" />
<path d="M10.0513 17.1721
L10.0513 16.5069
" />
<path d="M10.0513 16.5069
L9.9908 16.3859
" />
<path d="M9.9908 16.3859
L9.8699 16.3255
" />
<path d="M9.8699 16.3255
L9.6885 16.3255
" />
<path d="M9.6885 16.3255
L9.5675 16.3859
" />
<path d="M9.5675 16.3859
L9.5070 16.4464
" />
<path d="M10.4746 16.3255
L10.9584 16.3255
" />
<path d="M10.6560 15.9021
L10.6560 16.9907
" />
<path d="M10.6560 16.9907
L10.7165 17.1117
" />
<path d="M10.7165 17.1117
L10.8375 17.1721
" />
<path d="M10.8375 17.1721
L10.9584 17.1721
" />
<path d="M11.2003 16.3255
L11.6841 16.3255
" />
<path d="M11.3817 15.9021
L11.3817 16.9907
" />
<path d="M11.3817 16.9907
L11.4422 17.1117
" />
<path d="M11.4422 17.1117
L11.5632 17.1721
" />
<path d="M11.5632 17.1721
L11.6841 17.1721
" />
<path d="M12.1074 16.3255
L12.1074 17.5955
" />
<path d="M12.1074 16.3859
L12.2284 16.3255
" />
<path d="M12.2284 16.3255
L12.4703 16.3255
" />
<path d="M12.4703 16.3255
L12.5912 16.3859
" />
<path d="M12.5912 16.3859
L12.6517 16.4464
" />
<path d="M12.6517 16.4464
L12.7122 16.5674
" />
<path d="M12.7122 16.5674
L12.7122 16.9302
" />
<path d="M12.7122 16.9302
L12.6517 17.0512
" />
<path d="M12.6517 17.0512
L12.5912 17.1117
" />
<path d="M12.5912 17.1117
L12.4703 17.1721
" />
<path d="M12.4703 17.1721
L12.2284 17.1721
" />
<path d="M12.2284 17.1721
L12.1074 17.1117
" />
<path d="M13.1960 17.1117
L13.3169 17.1721
" />
<path d="M13.3169 17.1721
L13.5588 17.1721
" />
<path d="M13.5588 17.1721
L13.6798 17.1117
" />
<path d="M13.6798 17.1117
L13.7402 16.9907
" />
<path d="M13.7402 16.9907
L13.7402 16.9302
" />
<path d="M13.7402 16.9302
L13.6798 16.8093
" />
<path d="M13.6798 16.8093
L13.5588 16.7488
" />
<path d="M13.5588 16.7488
L13.3774 16.7488
" />
<path d="M13.3774 16.7488
L13.2564 16.6883
" />
<path d="M13.2564 16.6883
L13.1960 16.5674
" />
<path d="M13.1960 16.5674
L13.1960 16.5069
" />
<path d="M13.1960 16.5069
L13.2564 16.3859
" />
<path d="M13.2564 16.3859
L13.3774 16.3255
" />
<path d="M13.3774 16.3255
L13.5588 16.3255
" />
<path d="M13.5588 16.3255
L13.6798 16.3859
" />
<path d="M14.2845 17.0512
L14.3450 17.1117
" />
<path d="M14.3450 17.1117
L14.2845 17.1721
" />
<path d="M14.2845 17.1721
L14.2241 17.1117
" />
<path d="M14.2241 17.1117
L14.2845 17.0512
" />
<path d="M14.2845 17.0512
L14.2845 17.1721
" />
<path d="M14.2845 16.3859
L14.3450 16.4464
" />
<path d="M14.3450 16.4464
L14.2845 16.5069
" />
<path d="M14.2845 16.5069
L14.2241 16.4464
" />
<path d="M14.2241 16.4464
L14.2845 16.3859
" />
<path d="M14.2845 16.3859
L14.2845 16.5069
" />
<path d="M15.7965 15.8417
L14.7079 17.4745
" />
<path d="M17.1270 15.8417
L16.0384 17.4745
" />
<path d="M17.4294 16.3255
L17.6713 17.1721
" />
<path d="M17.6713 17.1721
L17.9132 16.5674
" />
<path d="M17.9132 16.5674
L18.1551 17.1721
" />
<path d="M18.1551 17.1721
L18.3970 16.3255
" />
<path d="M18.7599 16.3255
L19.0018 17.1721
" />
<path d="M19.0018 17.1721
L19.2437 16.5674
" />
<path d="M19.2437 16.5674
L19.4856 17.1721
" />
<path d="M19.4856 17.1721
L19.7275 16.3255
" />
<path d="M20.0904 16.3255
L20.3323 17.1721
" />
<path d="M20.3323 17.1721
L20.5742 16.5674
" />
<path d="M20.5742 16.5674
L20.8161 17.1721
" />
<path d="M20.8161 17.1721
L21.0580 16.3255
" />
<path d="M21.5418 17.0512
L21.6023 17.1117
" />
<path d="M21.6023 17.1117
L21.5418 17.1721
" />
<path d="M21.5418 17.1721
L21.4814 17.1117
" />
<path d="M21.4814 17.1117
L21.5418 17.0512
" />
<path d="M21.5418 17.0512
L21.5418 17.1721
" />
<path d="M21.9652 16.3255
L22.4490 16.3255
" />
<path d="M22.1466 15.9021
L22.1466 16.9907
" />
<path d="M22.1466 16.9907
L22.2071 17.1117
" />
<path d="M22.2071 17.1117
L22.3281 17.1721
" />
<path d="M22.3281 17.1721
L22.4490 17.1721
" />
<path d="M22.8723 17.1721
L22.8723 16.3255
" />
<path d="M22.8723 16.5674
L22.9328 16.4464
" />
<path d="M22.9328 16.4464
L22.9933 16.3859
" />
<path d="M22.9933 16.3859
L23.1142 16.3255
" />
<path d="M23.1142 16.3255
L23.2352 16.3255
" />
<path d="M24.2028 17.1721
L24.2028 16.5069
" />
<path d="M24.2028 16.5069
L24.1423 16.3859
" />
<path d="M24.1423 16.3859
L24.0214 16.3255
" />
<path d="M24.0214 16.3255
L23.7795 16.3255
" />
<path d="M23.7795 16.3255
L23.6585 16.3859
" />
<path d="M24.2028 17.1117
L24.0819 17.1721
" />
<path d="M24.0819 17.1721
L23.7795 17.1721
" />
<path d="M23.7795 17.1721
L23.6585 17.1117
" />
<path d="M23.6585 17.1117
L23.5981 16.9907
" />
<path d="M23.5981 16.9907
L23.5981 16.8697
" />
<path d="M23.5981 16.8697
L23.6585 16.7488
" />
<path d="M23.6585 16.7488
L23.7795 16.6883
" />
<path d="M23.7795 16.6883
L24.0819 16.6883
" />
<path d="M24.0819 16.6883
L24.2028 16.6278
" />
<path d="M25.3518 17.1117
L25.2309 17.1721
" />
<path d="M25.2309 17.1721
L24.9890 17.1721
" />
<path d="M24.9890 17.1721
L24.8680 17.1117
" />
<path d="M24.8680 17.1117
L24.8075 17.0512
" />
<path d="M24.8075 17.0512
L24.7471 16.9302
" />
<path d="M24.7471 16.9302
L24.7471 16.5674
" />
<path d="M24.7471 16.5674
L24.8075 16.4464
" />
<path d="M24.8075 16.4464
L24.8680 16.3859
" />
<path d="M24.8680 16.3859
L24.9890 16.3255
" />
<path d="M24.9890 16.3255
L25.2309 16.3255
" />
<path d="M25.2309 16.3255
L25.3518 16.3859
" />
<path d="M26.0776 17.1721
L25.9566 17.1117
" />
<path d="M25.9566 17.1117
L25.8961 17.0512
" />
<path d="M25.8961 17.0512
L25.8357 16.9302
" />
<path d="M25.8357 16.9302
L25.8357 16.5674
" />
<path d="M25.8357 16.5674
L25.8961 16.4464
" />
<path d="M25.8961 16.4464
L25.9566 16.3859
" />
<path d="M25.9566 16.3859
L26.0776 16.3255
" />
<path d="M26.0776 16.3255
L26.2590 16.3255
" />
<path d="M26.2590 16.3255
L26.3799 16.3859
" />
<path d="M26.3799 16.3859
L26.4404 16.4464
" />
<path d="M26.4404 16.4464
L26.5009 16.5674
" />
<path d="M26.5009 16.5674
L26.5009 16.9302
" />
<path d="M26.5009 16.9302
L26.4404 17.0512
" />
<path d="M26.4404 17.0512
L26.3799 17.1117
" />
<path d="M26.3799 17.1117
L26.2590 17.1721
" />
<path d="M26.2590 17.1721
L26.0776 17.1721
" />
<path d="M27.0451 16.3255
L27.0451 17.5955
" />
<path d="M27.0451 16.3859
L27.1661 16.3255
" />
<path d="M27.1661 16.3255
L27.4080 16.3255
" />
<path d="M27.4080 16.3255
L27.5289 16.3859
" />
<path d="M27.5289 16.3859
L27.5894 16.4464
" />
<path d="M27.5894 16.4464
L27.6499 16.5674
" />
<path d="M27.6499 16.5674
L27.6499 16.9302
" />
<path d="M27.6499 16.9302
L27.5894 17.0512
" />
<path d="M27.5894 17.0512
L27.5289 17.1117
" />
<path d="M27.5289 17.1117
L27.4080 17.1721
" />
<path d="M27.4080 17.1721
L27.1661 17.1721
" />
<path d="M27.1661 17.1721
L27.0451 17.1117
" />
<path d="M28.3756 17.1721
L28.2546 17.1117
" />
<path d="M28.2546 17.1117
L28.1941 17.0512
" />
<path d="M28.1941 17.0512
L28.1337 16.9302
" />
<path d="M28.1337 16.9302
L28.1337 16.5674
" />
<path d="M28.1337 16.5674
L28.1941 16.4464
" />
<path d="M28.1941 16.4464
L28.2546 16.3859
" />
<path d="M28.2546 16.3859
L28.3756 16.3255
" />
<path d="M28.3756 16.3255
L28.5570 16.3255
" />
<path d="M28.5570 16.3255
L28.6779 16.3859
" />
<path d="M28.6779 16.3859
L28.7384 16.4464
" />
<path d="M28.7384 16.4464
L28.7989 16.5674
" />
<path d="M28.7989 16.5674
L28.7989 16.9302
" />
<path d="M28.7989 16.9302
L28.7384 17.0512
" />
<path d="M28.7384 17.0512
L28.6779 17.1117
" />
<path d="M28.6779 17.1117
L28.5570 17.1721
" />
<path d="M28.5570 17.1721
L28.3756 17.1721
" />
<path d="M29.2222 16.3255
L29.4641 17.1721
" />
<path d="M29.4641 17.1721
L29.7060 16.5674
" />
<path d="M29.7060 16.5674
L29.9479 17.1721
" />
<path d="M29.9479 17.1721
L30.1898 16.3255
" />
<path d="M31.1574 17.1117
L31.0365 17.1721
" />
<path d="M31.0365 17.1721
L30.7946 17.1721
" />
<path d="M30.7946 17.1721
L30.6736 17.1117
" />
<path d="M30.6736 17.1117
L30.6132 16.9907
" />
<path d="M30.6132 16.9907
L30.6132 16.5069
" />
<path d="M30.6132 16.5069
L30.6736 16.3859
" />
<path d="M30.6736 16.3859
L30.7946 16.3255
" />
<path d="M30.7946 16.3255
L31.0365 16.3255
" />
<path d="M31.0365 16.3255
L31.1574 16.3859
" />
<path d="M31.1574 16.3859
L31.2179 16.5069
" />
<path d="M31.2179 16.5069
L31.2179 16.6278
" />
<path d="M31.2179 16.6278
L30.6132 16.7488
" />
<path d="M31.7622 17.1721
L31.7622 16.3255
" />
<path d="M31.7622 16.5674
L31.8227 16.4464
" />
<path d="M31.8227 16.4464
L31.8832 16.3859
" />
<path d="M31.8832 16.3859
L32.0041 16.3255
" />
<path d="M32.0041 16.3255
L32.1251 16.3255
" />
<path d="M32.5484 17.0512
L32.6089 17.1117
" />
<path d="M32.6089 17.1117
L32.5484 17.1721
" />
<path d="M32.5484 17.1721
L32.4880 17.1117
" />
<path d="M32.4880 17.1117
L32.5484 17.0512
" />
<path d="M32.5484 17.0512
L32.5484 17.1721
" />
<path d="M33.6975 17.1117
L33.5766 17.1721
" />
<path d="M33.5766 17.1721
L33.3347 17.1721
" />
<path d="M33.3347 17.1721
L33.2137 17.1117
" />
<path d="M33.2137 17.1117
L33.1532 17.0512
" />
<path d="M33.1532 17.0512
L33.0928 16.9302
" />
<path d="M33.0928 16.9302
L33.0928 16.5674
" />
<path d="M33.0928 16.5674
L33.1532 16.4464
" />
<path d="M33.1532 16.4464
L33.2137 16.3859
" />
<path d="M33.2137 16.3859
L33.3347 16.3255
" />
<path d="M33.3347 16.3255
L33.5766 16.3255
" />
<path d="M33.5766 16.3255
L33.6975 16.3859
" />
<path d="M34.4233 17.1721
L34.3023 17.1117
" />
<path d="M34.3023 17.1117
L34.2418 17.0512
" />
<path d="M34.2418 17.0512
L34.1814 16.9302
" />
<path d="M34.1814 16.9302
L34.1814 16.5674
" />
<path d="M34.1814 16.5674
L34.2418 16.4464
" />
<path d="M34.2418 16.4464
L34.3023 16.3859
" />
<path d="M34.3023 16.3859
L34.4233 16.3255
" />
<path d="M34.4233 16.3255
L34.6047 16.3255
" />
<path d="M34.6047 16.3255
L34.7256 16.3859
" />
<path d="M34.7256 16.3859
L34.7861 16.4464
" />
<path d="M34.7861 16.4464
L34.8466 16.5674
" />
<path d="M34.8466 16.5674
L34.8466 16.9302
" />
<path d="M34.8466 16.9302
L34.7861 17.0512
" />
<path d="M34.7861 17.0512
L34.7256 17.1117
" />
<path d="M34.7256 17.1117
L34.6047 17.1721
" />
<path d="M34.6047 17.1721
L34.4233 17.1721
" />
<path d="M35.3908 17.1721
L35.3908 16.3255
" />
<path d="M35.3908 16.4464
L35.4513 16.3859
" />
<path d="M35.4513 16.3859
L35.5723 16.3255
" />
<path d="M35.5723 16.3255
L35.7537 16.3255
" />
<path d="M35.7537 16.3255
L35.8746 16.3859
" />
<path d="M35.8746 16.3859
L35.9351 16.5069
" />
<path d="M35.9351 16.5069
L35.9351 17.1721
" />
<path d="M35.9351 16.5069
L35.9956 16.3859
" />
<path d="M35.9956 16.3859
L36.1165 16.3255
" />
<path d="M36.1165 16.3255
L36.2980 16.3255
" />
<path d="M36.2980 16.3255
L36.4189 16.3859
" />
<path d="M36.4189 16.3859
L36.4794 16.5069
" />
<path d="M36.4794 16.5069
L36.4794 17.1721
" />
<path d="M37.9913 15.8417
L36.9027 17.4745
" />
<path d="M38.3542 17.1117
L38.4751 17.1721
" />
<path d="M38.4751 17.1721
L38.7170 17.1721
" />
<path d="M38.7170 17.1721
L38.8380 17.1117
" />
<path d="M38.8380 17.1117
L38.8984 16.9907
" />
<path d="M38.8984 16.9907
L38.8984 16.9302
" />
<path d="M38.8984 16.9302
L38.8380 16.8093
" />
<path d="M38.8380 16.8093
L38.7170 16.7488
" />
<path d="M38.7170 16.7488
L38.5356 16.7488
" />
<path d="M38.5356 16.7488
L38.4146 16.6883
" />
<path d="M38.4146 16.6883
L38.3542 16.5674
" />
<path d="M38.3542 16.5674
L38.3542 16.5069
" />
<path d="M38.3542 16.5069
L38.4146 16.3859
" />
<path d="M38.4146 16.3859
L38.5356 16.3255
" />
<path d="M38.5356 16.3255
L38.7170 16.3255
" />
<path d="M38.7170 16.3255
L38.8380 16.3859
" />
<path d="M39.4427 17.1721
L39.4427 16.3255
" />
<path d="M39.4427 15.9021
L39.3823 15.9626
" />
<path d="M39.3823 15.9626
L39.4427 16.0231
" />
<path d="M39.4427 16.0231
L39.5032 15.9626
" />
<path d="M39.5032 15.9626
L39.4427 15.9021
" />
<path d="M39.4427 15.9021
L39.4427 16.0231
" />
<path d="M39.8661 16.3255
L40.3499 16.3255
" />
<path d="M40.0475 15.9021
L40.0475 16.9907
" />
<path d="M40.0475 16.9907
L40.1080 17.1117
" />
<path d="M40.1080 17.1117
L40.2290 17.1721
" />
<path d="M40.2290 17.1721
L40.3499 17.1721
" />
<path d="M41.2570 17.1117
L41.1361 17.1721
" />
<path d="M41.1361 17.1721
L40.8942 17.1721
" />
<path d="M40.8942 17.1721
L40.7732 17.1117
" />
<path d="M40.7732 17.1117
L40.7128 16.9907
" />
<path d="M40.7128 16.9907
L40.7128 16.5069
" />
<path d="M40.7128 16.5069
L40.7732 16.3859
" />
<path d="M40.7732 16.3859
L40.8942 16.3255
" />
<path d="M40.8942 16.3255
L41.1361 16.3255
" />
<path d="M41.1361 16.3255
L41.2570 16.3859
" />
<path d="M41.2570 16.3859
L41.3175 16.5069
" />
<path d="M41.3175 16.5069
L41.3175 16.6278
" />
<path d="M41.3175 16.6278
L40.7128 16.7488
" />
<path d="M41.8014 17.1117
L41.9223 17.1721
" />
<path d="M41.9223 17.1721
L42.1642 17.1721
" />
<path d="M42.1642 17.1721
L42.2852 17.1117
" />
<path d="M42.2852 17.1117
L42.3456 16.9907
" />
<path d="M42.3456 16.9907
L42.3456 16.9302
" />
<path d="M42.3456 16.9302
L42.2852 16.8093
" />
<path d="M42.2852 16.8093
L42.1642 16.7488
" />
<path d="M42.1642 16.7488
L41.9828 16.7488
" />
<path d="M41.9828 16.7488
L41.8618 16.6883
" />
<path d="M41.8618 16.6883
L41.8014 16.5674
" />
<path d="M41.8014 16.5674
L41.8014 16.5069
" />
<path d="M41.8014 16.5069
L41.8618 16.3859
" />
<path d="M41.8618 16.3859
L41.9828 16.3255
" />
<path d="M41.9828 16.3255
L42.1642 16.3255
" />
<path d="M42.1642 16.3255
L42.2852 16.3859
" />
<path d="M43.7971 15.8417
L42.7085 17.4745
" />
<path d="M44.7647 17.1721
L44.7647 15.9021
" />
<path d="M44.7647 17.1117
L44.6438 17.1721
" />
<path d="M44.6438 17.1721
L44.4019 17.1721
" />
<path d="M44.4019 17.1721
L44.2809 17.1117
" />
<path d="M44.2809 17.1117
L44.2204 17.0512
" />
<path d="M44.2204 17.0512
L44.1600 16.9302
" />
<path d="M44.1600 16.9302
L44.1600 16.5674
" />
<path d="M44.1600 16.5674
L44.2204 16.4464
" />
<path d="M44.2204 16.4464
L44.2809 16.3859
" />
<path d="M44.2809 16.3859
L44.4019 16.3255
" />
<path d="M44.4019 16.3255
L44.6438 16.3255
" />
<path d="M44.6438 16.3255
L44.7647 16.3859
" />
<path d="M45.8532 17.1117
L45.7323 17.1721
" />
<path d="M45.7323 17.1721
L45.4904 17.1721
" />
<path d="M45.4904 17.1721
L45.3694 17.1117
" />
<path d="M45.3694 17.1117
L45.3090 16.9907
" />
<path d="M45.3090 16.9907
L45.3090 16.5069
" />
<path d="M45.3090 16.5069
L45.3694 16.3859
" />
<path d="M45.3694 16.3859
L45.4904 16.3255
" />
<path d="M45.4904 16.3255
L45.7323 16.3255
" />
<path d="M45.7323 16.3255
L45.8532 16.3859
" />
<path d="M45.8532 16.3859
L45.9137 16.5069
" />
<path d="M45.9137 16.5069
L45.9137 16.6278
" />
<path d="M45.9137 16.6278
L45.3090 16.7488
" />
<path d="M46.2766 16.3255
L46.7604 16.3255
" />
<path d="M46.4580 17.1721
L46.4580 16.0836
" />
<path d="M46.4580 16.0836
L46.5185 15.9626
" />
<path d="M46.5185 15.9626
L46.6395 15.9021
" />
<path d="M46.6395 15.9021
L46.7604 15.9021
" />
<path d="M47.7280 17.1721
L47.7280 16.5069
" />
<path d="M47.7280 16.5069
L47.6675 16.3859
" />
<path d="M47.6675 16.3859
L47.5466 16.3255
" />
<path d="M47.5466 16.3255
L47.3047 16.3255
" />
<path d="M47.3047 16.3255
L47.1837 16.3859
" />
<path d="M47.7280 17.1117
L47.6071 17.1721
" />
<path d="M47.6071 17.1721
L47.3047 17.1721
" />
<path d="M47.3047 17.1721
L47.1837 17.1117
" />
<path d="M47.1837 17.1117
L47.1233 16.9907
" />
<path d="M47.1233 16.9907
L47.1233 16.8697
" />
<path d="M47.1233 16.8697
L47.1837 16.7488
" />
<path d="M47.1837 16.7488
L47.3047 16.6883
" />
<path d="M47.3047 16.6883
L47.6071 16.6883
" />
<path d="M47.6071 16.6883
L47.7280 16.6278
" />
<path d="M48.8770 16.3255
L48.8770 17.1721
" />
<path d="M48.3327 16.3255
L48.3327 16.9907
" />
<path d="M48.3327 16.9907
L48.3932 17.1117
" />
<path d="M48.3932 17.1117
L48.5142 17.1721
" />
<path d="M48.5142 17.1721
L48.6956 17.1721
" />
<path d="M48.6956 17.1721
L48.8165 17.1117
" />
<path d="M48.8165 17.1117
L48.8770 17.0512
" />
<path d="M49.6632 17.1721
L49.5422 17.1117
" />
<path d="M49.5422 17.1117
L49.4817 16.9907
" />
<path d="M49.4817 16.9907
L49.4817 15.9021
" />
<path d="M49.9655 16.3255
L50.4493 16.3255
" />
<path d="M50.1469 15.9021
L50.1469 16.9907
" />
<path d="M50.1469 16.9907
L50.2074 17.1117
" />
<path d="M50.2074 17.1117
L50.3284 17.1721
" />
<path d="M50.3284 17.1721
L50.4493 17.1721
" />
<path d="M51.7798 15.8417
L50.6912 17.4745
" />
<path d="M52.0217 16.3255
L52.5055 16.3255
" />
<path d="M52.2031 17.1721
L52.2031 16.0836
" />
<path d="M52.2031 16.0836
L52.2636 15.9626
" />
<path d="M52.2636 15.9626
L52.3846 15.9021
" />
<path d="M52.3846 15.9021
L52.5055 15.9021
" />
<path d="M52.9288 17.1721
L52.9288 16.3255
" />
<path d="M52.9288 15.9021
L52.8684 15.9626
" />
<path d="M52.8684 15.9626
L52.9288 16.0231
" />
<path d="M52.9288 16.0231
L52.9893 15.9626
" />
<path d="M52.9893 15.9626
L52.9288 15.9021
" />
<path d="M52.9288 15.9021
L52.9288 16.0231
" />
<path d="M53.7151 17.1721
L53.5941 17.1117
" />
<path d="M53.5941 17.1117
L53.5336 16.9907
" />
<path d="M53.5336 16.9907
L53.5336 15.9021
" />
<path d="M54.6826 17.1117
L54.5617 17.1721
" />
<path d="M54.5617 17.1721
L54.3198 17.1721
" />
<path d="M54.3198 17.1721
L54.1988 17.1117
" />
<path d="M54.1988 17.1117
L54.1384 16.9907
" />
<path d="M54.1384 16.9907
L54.1384 16.5069
" />
<path d="M54.1384 16.5069
L54.1988 16.3859
" />
<path d="M54.1988 16.3859
L54.3198 16.3255
" />
<path d="M54.3198 16.3255
L54.5617 16.3255
" />
<path d="M54.5617 16.3255
L54.6826 16.3859
" />
<path d="M54.6826 16.3859
L54.7431 16.5069
" />
<path d="M54.7431 16.5069
L54.7431 16.6278
" />
<path d="M54.7431 16.6278
L54.1384 16.7488
" />
<path d="M55.2270 17.1117
L55.3479 17.1721
" />
<path d="M55.3479 17.1721
L55.5898 17.1721
" />
<path d="M55.5898 17.1721
L55.7108 17.1117
" />
<path d="M55.7108 17.1117
L55.7712 16.9907
" />
<path d="M55.7712 16.9907
L55.7712 16.9302
" />
<path d="M55.7712 16.9302
L55.7108 16.8093
" />
<path d="M55.7108 16.8093
L55.5898 16.7488
" />
<path d="M55.5898 16.7488
L55.4084 16.7488
" />
<path d="M55.4084 16.7488
L55.2874 16.6883
" />
<path d="M55.2874 16.6883
L55.2270 16.5674
" />
<path d="M55.2270 16.5674
L55.2270 16.5069
" />
<path d="M55.2270 16.5069
L55.2874 16.3859
" />
<path d="M55.2874 16.3859
L55.4084 16.3255
" />
<path d="M55.4084 16.3255
L55.5898 16.3255
" />
<path d="M55.5898 16.3255
L55.7108 16.3859
" />
<path d="M57.2227 15.8417
L56.1341 17.4745
" />
<path d="M57.6460 16.3255
L57.6460 17.5955
" />
<path d="M57.6460 16.3859
L57.7670 16.3255
" />
<path d="M57.7670 16.3255
L58.0089 16.3255
" />
<path d="M58.0089 16.3255
L58.1298 16.3859
" />
<path d="M58.1298 16.3859
L58.1903 16.4464
" />
<path d="M58.1903 16.4464
L58.2508 16.5674
" />
<path d="M58.2508 16.5674
L58.2508 16.9302
" />
<path d="M58.2508 16.9302
L58.1903 17.0512
" />
<path d="M58.1903 17.0512
L58.1298 17.1117
" />
<path d="M58.1298 17.1117
L58.0089 17.1721
" />
<path d="M58.0089 17.1721
L57.7670 17.1721
" />
<path d="M57.7670 17.1721
L57.6460 17.1117
" />
<path d="M58.7950 17.1721
L58.7950 16.3255
" />
<path d="M58.7950 16.5674
L58.8555 16.4464
" />
<path d="M58.8555 16.4464
L58.9160 16.3859
" />
<path d="M58.9160 16.3859
L59.0369 16.3255
" />
<path d="M59.0369 16.3255
L59.1579 16.3255
" />
<path d="M59.7627 17.1721
L59.6417 17.1117
" />
<path d="M59.6417 17.1117
L59.5812 17.0512
" />
<path d="M59.5812 17.0512
L59.5208 16.9302
" />
<path d="M59.5208 16.9302
L59.5208 16.5674
" />
<path d="M59.5208 16.5674
L59.5812 16.4464
" />
<path d="M59.5812 16.4464
L59.6417 16.3859
" />
<path d="M59.6417 16.3859
L59.7627 16.3255
" />
<path d="M59.7627 16.3255
L59.9441 16.3255
" />
<path d="M59.9441 16.3255
L60.0650 16.3859
" />
<path d="M60.0650 16.3859
L60.1255 16.4464
" />
<path d="M60.1255 16.4464
L60.1860 16.5674
" />
<path d="M60.1860 16.5674
L60.1860 16.9302
" />
<path d="M60.1860 16.9302
L60.1255 17.0512
" />
<path d="M60.1255 17.0512
L60.0650 17.1117
" />
<path d="M60.0650 17.1117
L59.9441 17.1721
" />
<path d="M59.9441 17.1721
L59.7627 17.1721
" />
<path d="M61.2745 17.1721
L61.2745 15.9021
" />
<path d="M61.2745 17.1117
L61.1536 17.1721
" />
<path d="M61.1536 17.1721
L60.9117 17.1721
" />
<path d="M60.9117 17.1721
L60.7907 17.1117
" />
<path d="M60.7907 17.1117
L60.7302 17.0512
" />
<path d="M60.7302 17.0512
L60.6698 16.9302
" />
<path d="M60.6698 16.9302
L60.6698 16.5674
" />
<path d="M60.6698 16.5674
L60.7302 16.4464
" />
<path d="M60.7302 16.4464
L60.7907 16.3859
" />
<path d="M60.7907 16.3859
L60.9117 16.3255
" />
<path d="M60.9117 16.3255
L61.1536 16.3255
" />
<path d="M61.1536 16.3255
L61.2745 16.3859
" />
<path d="M62.4235 16.3255
L62.4235 17.1721
" />
<path d="M61.8792 16.3255
L61.8792 16.9907
" />
<path d="M61.8792 16.9907
L61.9397 17.1117
" />
<path d="M61.9397 17.1117
L62.0607 17.1721
" />
<path d="M62.0607 17.1721
L62.2421 17.1721
" />
<path d="M62.2421 17.1721
L62.3630 17.1117
" />
<path d="M62.3630 17.1117
L62.4235 17.0512
" />
<path d="M63.5725 17.1117
L63.4516 17.1721
" />
<path d="M63.4516 17.1721
L63.2097 17.1721
" />
<path d="M63.2097 17.1721
L63.0887 17.1117
" />
<path d="M63.0887 17.1117
L63.0282 17.0512
" />
<path d="M63.0282 17.0512
L62.9678 16.9302
" />
<path d="M62.9678 16.9302
L62.9678 16.5674
" />
<path d="M62.9678 16.5674
L63.0282 16.4464
" />
<path d="M63.0282 16.4464
L63.0887 16.3859
" />
<path d="M63.0887 16.3859
L63.2097 16.3255
" />
<path d="M63.2097 16.3255
L63.4516 16.3255
" />
<path d="M63.4516 16.3255
L63.5725 16.3859
" />
<path d="M63.9354 16.3255
L64.4192 16.3255
" />
<path d="M64.1168 15.9021
L64.1168 16.9907
" />
<path d="M64.1168 16.9907
L64.1773 17.1117
" />
<path d="M64.1773 17.1117
L64.2983 17.1721
" />
<path d="M64.2983 17.1721
L64.4192 17.1721
" />
<path d="M64.7821 17.1117
L64.9030 17.1721
" />
<path d="M64.9030 17.1721
L65.1449 17.1721
" />
<path d="M65.1449 17.1721
L65.2659 17.1117
" />
<path d="M65.2659 17.1117
L65.3263 16.9907
" />
<path d="M65.3263 16.9907
L65.3263 16.9302
" />
<path d="M65.3263 16.9302
L65.2659 16.8093
" />
<path d="M65.2659 16.8093
L65.1449 16.7488
" />
<path d="M65.1449 16.7488
L64.9635 16.7488
" />
<path d="M64.9635 16.7488
L64.8425 16.6883
" />
<path d="M64.8425 16.6883
L64.7821 16.5674
" />
<path d="M64.7821 16.5674
L64.7821 16.5069
" />
<path d="M64.7821 16.5069
L64.8425 16.3859
" />
<path d="M64.8425 16.3859
L64.9635 16.3255
" />
<path d="M64.9635 16.3255
L65.1449 16.3255
" />
<path d="M65.1449 16.3255
L65.2659 16.3859
" />
<path d="M66.7778 15.8417
L65.6892 17.4745
" />
<path d="M67.7454 17.1721
L67.7454 15.9021
" />
<path d="M67.7454 17.1117
L67.6245 17.1721
" />
<path d="M67.6245 17.1721
L67.3826 17.1721
" />
<path d="M67.3826 17.1721
L67.2616 17.1117
" />
<path d="M67.2616 17.1117
L67.2011 17.0512
" />
<path d="M67.2011 17.0512
L67.1407 16.9302
" />
<path d="M67.1407 16.9302
L67.1407 16.5674
" />
<path d="M67.1407 16.5674
L67.2011 16.4464
" />
<path d="M67.2011 16.4464
L67.2616 16.3859
" />
<path d="M67.2616 16.3859
L67.3826 16.3255
" />
<path d="M67.3826 16.3255
L67.6245 16.3255
" />
<path d="M67.6245 16.3255
L67.7454 16.3859
" />
<path d="M68.8944 17.1721
L68.8944 16.5069
" />
<path d="M68.8944 16.5069
L68.8339 16.3859
" />
<path d="M68.8339 16.3859
L68.7130 16.3255
" />
<path d="M68.7130 16.3255
L68.4711 16.3255
" />
<path d="M68.4711 16.3255
L68.3501 16.3859
" />
<path d="M68.8944 17.1117
L68.7735 17.1721
" />
<path d="M68.7735 17.1721
L68.4711 17.1721
" />
<path d="M68.4711 17.1721
L68.3501 17.1117
" />
<path d="M68.3501 17.1117
L68.2897 16.9907
" />
<path d="M68.2897 16.9907
L68.2897 16.8697
" />
<path d="M68.2897 16.8697
L68.3501 16.7488
" />
<path d="M68.3501 16.7488
L68.4711 16.6883
" />
<path d="M68.4711 16.6883
L68.7735 16.6883
" />
<path d="M68.7735 16.6883
L68.8944 16.6278
" />
<path d="M69.3177 16.3255
L69.8015 16.3255
" />
<path d="M69.4991 15.9021
L69.4991 16.9907
" />
<path d="M69.4991 16.9907
L69.5596 17.1117
" />
<path d="M69.5596 17.1117
L69.6806 17.1721
" />
<path d="M69.6806 17.1721
L69.8015 17.1721
" />
<path d="M70.7691 17.1721
L70.7691 16.5069
" />
<path d="M70.7691 16.5069
L70.7086 16.3859
" />
<path d="M70.7086 16.3859
L70.5877 16.3255
" />
<path d="M70.5877 16.3255
L70.3458 16.3255
" />
<path d="M70.3458 16.3255
L70.2248 16.3859
" />
<path d="M70.7691 17.1117
L70.6482 17.1721
" />
<path d="M70.6482 17.1721
L70.3458 17.1721
" />
<path d="M70.3458 17.1721
L70.2248 17.1117
" />
<path d="M70.2248 17.1117
L70.1644 16.9907
" />
<path d="M70.1644 16.9907
L70.1644 16.8697
" />
<path d="M70.1644 16.8697
L70.2248 16.7488
" />
<path d="M70.2248 16.7488
L70.3458 16.6883
" />
<path d="M70.3458 16.6883
L70.6482 16.6883
" />
<path d="M70.6482 16.6883
L70.7691 16.6278
" />
<path d="M71.3134 17.1117
L71.4343 17.1721
" />
<path d="M71.4343 17.1721
L71.6762 17.1721
" />
<path d="M71.6762 17.1721
L71.7972 17.1117
" />
<path d="M71.7972 17.1117
L71.8576 16.9907
" />
<path d="M71.8576 16.9907
L71.8576 16.9302
" />
<path d="M71.8576 16.9302
L71.7972 16.8093
" />
<path d="M71.7972 16.8093
L71.6762 16.7488
" />
<path d="M71.6762 16.7488
L71.4948 16.7488
" />
<path d="M71.4948 16.7488
L71.3738 16.6883
" />
<path d="M71.3738 16.6883
L71.3134 16.5674
" />
<path d="M71.3134 16.5674
L71.3134 16.5069
" />
<path d="M71.3134 16.5069
L71.3738 16.3859
" />
<path d="M71.3738 16.3859
L71.4948 16.3255
" />
<path d="M71.4948 16.3255
L71.6762 16.3255
" />
<path d="M71.6762 16.3255
L71.7972 16.3859
" />
<path d="M72.4019 17.1721
L72.4019 15.9021
" />
<path d="M72.9462 17.1721
L72.9462 16.5069
" />
<path d="M72.9462 16.5069
L72.8857 16.3859
" />
<path d="M72.8857 16.3859
L72.7648 16.3255
" />
<path d="M72.7648 16.3255
L72.5834 16.3255
" />
<path d="M72.5834 16.3255
L72.4624 16.3859
" />
<path d="M72.4624 16.3859
L72.4019 16.4464
" />
<path d="M74.0347 17.1117
L73.9138 17.1721
" />
<path d="M73.9138 17.1721
L73.6719 17.1721
" />
<path d="M73.6719 17.1721
L73.5509 17.1117
" />
<path d="M73.5509 17.1117
L73.4905 16.9907
" />
<path d="M73.4905 16.9907
L73.4905 16.5069
" />
<path d="M73.4905 16.5069
L73.5509 16.3859
" />
<path d="M73.5509 16.3859
L73.6719 16.3255
" />
<path d="M73.6719 16.3255
L73.9138 16.3255
" />
<path d="M73.9138 16.3255
L74.0347 16.3859
" />
<path d="M74.0347 16.3859
L74.0952 16.5069
" />
<path d="M74.0952 16.5069
L74.0952 16.6278
" />
<path d="M74.0952 16.6278
L73.4905 16.7488
" />
<path d="M75.1233 17.1117
L75.0024 17.1721
" />
<path d="M75.0024 17.1721
L74.7605 17.1721
" />
<path d="M74.7605 17.1721
L74.6395 17.1117
" />
<path d="M74.6395 17.1117
L74.5791 16.9907
" />
<path d="M74.5791 16.9907
L74.5791 16.5069
" />
<path d="M74.5791 16.5069
L74.6395 16.3859
" />
<path d="M74.6395 16.3859
L74.7605 16.3255
" />
<path d="M74.7605 16.3255
L75.0024 16.3255
" />
<path d="M75.0024 16.3255
L75.1233 16.3859
" />
<path d="M75.1233 16.3859
L75.1838 16.5069
" />
<path d="M75.1838 16.5069
L75.1838 16.6278
" />
<path d="M75.1838 16.6278
L74.5791 16.7488
" />
<path d="M75.5467 16.3255
L76.0305 16.3255
" />
<path d="M75.7281 15.9021
L75.7281 16.9907
" />
<path d="M75.7281 16.9907
L75.7886 17.1117
" />
<path d="M75.7886 17.1117
L75.9096 17.1721
" />
<path d="M75.9096 17.1721
L76.0305 17.1721
" />
<path d="M76.3934 17.1117
L76.5143 17.1721
" />
<path d="M76.5143 17.1721
L76.7562 17.1721
" />
<path d="M76.7562 17.1721
L76.8772 17.1117
" />
<path d="M76.8772 17.1117
L76.9376 16.9907
" />
<path d="M76.9376 16.9907
L76.9376 16.9302
" />
<path d="M76.9376 16.9302
L76.8772 16.8093
" />
<path d="M76.8772 16.8093
L76.7562 16.7488
" />
<path d="M76.7562 16.7488
L76.5748 16.7488
" />
<path d="M76.5748 16.7488
L76.4538 16.6883
" />
<path d="M76.4538 16.6883
L76.3934 16.5674
" />
<path d="M76.3934 16.5674
L76.3934 16.5069
" />
<path d="M76.3934 16.5069
L76.4538 16.3859
" />
<path d="M76.4538 16.3859
L76.5748 16.3255
" />
<path d="M76.5748 16.3255
L76.7562 16.3255
" />
<path d="M76.7562 16.3255
L76.8772 16.3859
" />
<path d="M78.3891 15.8417
L77.3005 17.4745
" />
<path d="M78.6310 16.3255
L79.1148 16.3255
" />
<path d="M78.8124 15.9021
L78.8124 16.9907
" />
<path d="M78.8124 16.9907
L78.8729 17.1117
" />
<path d="M78.8729 17.1117
L78.9939 17.1721
" />
<path d="M78.9939 17.1721
L79.1148 17.1721
" />
<path d="M79.5381 16.3255
L79.5381 17.5955
" />
<path d="M79.5381 16.3859
L79.6591 16.3255
" />
<path d="M79.6591 16.3255
L79.9010 16.3255
" />
<path d="M79.9010 16.3255
L80.0219 16.3859
" />
<path d="M80.0219 16.3859
L80.0824 16.4464
" />
<path d="M80.0824 16.4464
L80.1429 16.5674
" />
<path d="M80.1429 16.5674
L80.1429 16.9302
" />
<path d="M80.1429 16.9302
L80.0824 17.0512
" />
<path d="M80.0824 17.0512
L80.0219 17.1117
" />
<path d="M80.0219 17.1117
L79.9010 17.1721
" />
<path d="M79.9010 17.1721
L79.6591 17.1721
" />
<path d="M79.6591 17.1721
L79.5381 17.1117
" />
<path d="M80.6871 16.3255
L80.6871 17.5955
" />
<path d="M80.6871 16.3859
L80.8081 16.3255
" />
<path d="M80.8081 16.3255
L81.0500 16.3255
" />
<path d="M81.0500 16.3255
L81.1709 16.3859
" />
<path d="M81.1709 16.3859
L81.2314 16.4464
" />
<path d="M81.2314 16.4464
L81.2919 16.5674
" />
<path d="M81.2919 16.5674
L81.2919 16.9302
" />
<path d="M81.2919 16.9302
L81.2314 17.0512
" />
<path d="M81.2314 17.0512
L81.1709 17.1117
" />
<path d="M81.1709 17.1117
L81.0500 17.1721
" />
<path d="M81.0500 17.1721
L80.8081 17.1721
" />
<path d="M80.8081 17.1721
L80.6871 17.1117
" />
<path d="M82.5014 17.1721
L81.7757 17.1721
" />
<path d="M82.1385 17.1721
L82.1385 15.9021
" />
<path d="M82.1385 15.9021
L82.0176 16.0836
" />
<path d="M82.0176 16.0836
L81.8966 16.2045
" />
<path d="M81.8966 16.2045
L81.7757 16.2650
" />
<path d="M83.6504 15.9021
L83.0456 15.9021
" />
<path d="M83.0456 15.9021
L82.9852 16.5069
" />
<path d="M82.9852 16.5069
L83.0456 16.4464
" />
<path d="M83.0456 16.4464
L83.1666 16.3859
" />
<path d="M83.1666 16.3859
L83.4690 16.3859
" />
<path d="M83.4690 16.3859
L83.5899 16.4464
" />
<path d="M83.5899 16.4464
L83.6504 16.5069
" />
<path d="M83.6504 16.5069
L83.7109 16.6278
" />
<path d="M83.7109 16.6278
L83.7109 16.9302
" />
<path d="M83.7109 16.9302
L83.6504 17.0512
" />
<path d="M83.6504 17.0512
L83.5899 17.1117
" />
<path d="M83.5899 17.1117
L83.4690 17.1721
" />
<path d="M83.4690 17.1721
L83.1666 17.1721
" />
<path d="M83.1666 17.1721
L83.0456 17.1117
" />
<path d="M83.0456 17.1117
L82.9852 17.0512
" />
<path d="M83.9528 17.2931
L84.9204 17.2931
" />
<path d="M85.7670 17.1721
L85.7670 15.9021
" />
<path d="M85.7670 17.1117
L85.6461 17.1721
" />
<path d="M85.6461 17.1721
L85.4042 17.1721
" />
<path d="M85.4042 17.1721
L85.2832 17.1117
" />
<path d="M85.2832 17.1117
L85.2227 17.0512
" />
<path d="M85.2227 17.0512
L85.1623 16.9302
" />
<path d="M85.1623 16.9302
L85.1623 16.5674
" />
<path d="M85.1623 16.5674
L85.2227 16.4464
" />
<path d="M85.2227 16.4464
L85.2832 16.3859
" />
<path d="M85.2832 16.3859
L85.4042 16.3255
" />
<path d="M85.4042 16.3255
L85.6461 16.3255
" />
<path d="M85.6461 16.3255
L85.7670 16.3859
" />
<path d="M86.0694 17.2931
L87.0370 17.2931
" />
<path d="M87.8836 17.1721
L87.8836 15.9021
" />
<path d="M87.8836 17.1117
L87.7627 17.1721
" />
<path d="M87.7627 17.1721
L87.5208 17.1721
" />
<path d="M87.5208 17.1721
L87.3998 17.1117
" />
<path d="M87.3998 17.1117
L87.3393 17.0512
" />
<path d="M87.3393 17.0512
L87.2789 16.9302
" />
<path d="M87.2789 16.9302
L87.2789 16.5674
" />
<path d="M87.2789 16.5674
L87.3393 16.4464
" />
<path d="M87.3393 16.4464
L87.3998 16.3859
" />
<path d="M87.3998 16.3859
L87.5208 16.3255
" />
<path d="M87.5208 16.3255
L87.7627 16.3255
" />
<path d="M87.7627 16.3255
L87.8836 16.3859
" />
<path d="M89.0326 17.1721
L89.0326 16.5069
" />
<path d="M89.0326 16.5069
L88.9721 16.3859
" />
<path d="M88.9721 16.3859
L88.8512 16.3255
" />
<path d="M88.8512 16.3255
L88.6093 16.3255
" />
<path d="M88.6093 16.3255
L88.4883 16.3859
" />
<path d="M89.0326 17.1117
L88.9117 17.1721
" />
<path d="M88.9117 17.1721
L88.6093 17.1721
" />
<path d="M88.6093 17.1721
L88.4883 17.1117
" />
<path d="M88.4883 17.1117
L88.4279 16.9907
" />
<path d="M88.4279 16.9907
L88.4279 16.8697
" />
<path d="M88.4279 16.8697
L88.4883 16.7488
" />
<path d="M88.4883 16.7488
L88.6093 16.6883
" />
<path d="M88.6093 16.6883
L88.9117 16.6883
" />
<path d="M88.9117 16.6883
L89.0326 16.6278
" />
<path d="M89.4559 16.3255
L89.9397 16.3255
" />
<path d="M89.6373 15.9021
L89.6373 16.9907
" />
<path d="M89.6373 16.9907
L89.6978 17.1117
" />
<path d="M89.6978 17.1117
L89.8188 17.1721
" />
<path d="M89.8188 17.1721
L89.9397 17.1721
" />
<path d="M90.9073 17.1721
L90.9073 16.5069
" />
<path d="M90.9073 16.5069
L90.8468 16.3859
" />
<path d="M90.8468 16.3859
L90.7259 16.3255
" />
<path d="M90.7259 16.3255
L90.4840 16.3255
" />
<path d="M90.4840 16.3255
L90.3630 16.3859
" />
<path d="M90.9073 17.1117
L90.7864 17.1721
" />
<path d="M90.7864 17.1721
L90.4840 17.1721
" />
<path d="M90.4840 17.1721
L90.3630 17.1117
" />
<path d="M90.3630 17.1117
L90.3026 16.9907
" />
<path d="M90.3026 16.9907
L90.3026 16.8697
" />
<path d="M90.3026 16.8697
L90.3630 16.7488
" />
<path d="M90.3630 16.7488
L90.4840 16.6883
" />
<path d="M90.4840 16.6883
L90.7864 16.6883
" />
<path d="M90.7864 16.6883
L90.9073 16.6278
" />
<path d="M91.4516 17.1117
L91.5725 17.1721
" />
<path d="M91.5725 17.1721
L91.8144 17.1721
" />
<path d="M91.8144 17.1721
L91.9354 17.1117
" />
<path d="M91.9354 17.1117
L91.9958 16.9907
" />
<path d="M91.9958 16.9907
L91.9958 16.9302
" />
<path d="M91.9958 16.9302
L91.9354 16.8093
" />
<path d="M91.9354 16.8093
L91.8144 16.7488
" />
<path d="M91.8144 16.7488
L91.6330 16.7488
" />
<path d="M91.6330 16.7488
L91.5120 16.6883
" />
<path d="M91.5120 16.6883
L91.4516 16.5674
" />
<path d="M91.4516 16.5674
L91.4516 16.5069
" />
<path d="M91.4516 16.5069
L91.5120 16.3859
" />
<path d="M91.5120 16.3859
L91.6330 16.3255
" />
<path d="M91.6330 16.3255
L91.8144 16.3255
" />
<path d="M91.8144 16.3255
L91.9354 16.3859
" />
<path d="M92.5401 17.1721
L92.5401 15.9021
" />
<path d="M93.0844 17.1721
L93.0844 16.5069
" />
<path d="M93.0844 16.5069
L93.0239 16.3859
" />
<path d="M93.0239 16.3859
L92.9030 16.3255
" />
<path d="M92.9030 16.3255
L92.7216 16.3255
" />
<path d="M92.7216 16.3255
L92.6006 16.3859
" />
<path d="M92.6006 16.3859
L92.5401 16.4464
" />
<path d="M94.1729 17.1117
L94.0520 17.1721
" />
<path d="M94.0520 17.1721
L93.8101 17.1721
" />
<path d="M93.8101 17.1721
L93.6891 17.1117
" />
<path d="M93.6891 17.1117
L93.6287 16.9907
" />
<path d="M93.6287 16.9907
L93.6287 16.5069
" />
<path d="M93.6287 16.5069
L93.6891 16.3859
" />
<path d="M93.6891 16.3859
L93.8101 16.3255
" />
<path d="M93.8101 16.3255
L94.0520 16.3255
" />
<path d="M94.0520 16.3255
L94.1729 16.3859
" />
<path d="M94.1729 16.3859
L94.2334 16.5069
" />
<path d="M94.2334 16.5069
L94.2334 16.6278
" />
<path d="M94.2334 16.6278
L93.6287 16.7488
" />
<path d="M95.2615 17.1117
L95.1406 17.1721
" />
<path d="M95.1406 17.1721
L94.8987 17.1721
" />
<path d="M94.8987 17.1721
L94.7777 17.1117
" />
<path d="M94.7777 17.1117
L94.7173 16.9907
" />
<path d="M94.7173 16.9907
L94.7173 16.5069
" />
<path d="M94.7173 16.5069
L94.7777 16.3859
" />
<path d="M94.7777 16.3859
L94.8987 16.3255
" />
<path d="M94.8987 16.3255
L95.1406 16.3255
" />
<path d="M95.1406 16.3255
L95.2615 16.3859
" />
<path d="M95.2615 16.3859
L95.3220 16.5069
" />
<path d="M95.3220 16.5069
L95.3220 16.6278
" />
<path d="M95.3220 16.6278
L94.7173 16.7488
" />
<path d="M95.6849 16.3255
L96.1687 16.3255
" />
<path d="M95.8663 15.9021
L95.8663 16.9907
" />
<path d="M95.8663 16.9907
L95.9268 17.1117
" />
<path d="M95.9268 17.1117
L96.0478 17.1721
" />
<path d="M96.0478 17.1721
L96.1687 17.1721
" />
<path d="M96.5920 17.0512
L96.6525 17.1117
" />
<path d="M96.6525 17.1117
L96.5920 17.1721
" />
<path d="M96.5920 17.1721
L96.5316 17.1117
" />
<path d="M96.5316 17.1117
L96.5920 17.0512
" />
<path d="M96.5920 17.0512
L96.5920 17.1721
" />
<path d="M97.1968 16.3255
L97.1968 17.5955
" />
<path d="M97.1968 16.3859
L97.3178 16.3255
" />
<path d="M97.3178 16.3255
L97.5597 16.3255
" />
<path d="M97.5597 16.3255
L97.6806 16.3859
" />
<path d="M97.6806 16.3859
L97.7411 16.4464
" />
<path d="M97.7411 16.4464
L97.8016 16.5674
" />
<path d="M97.8016 16.5674
L97.8016 16.9302
" />
<path d="M97.8016 16.9302
L97.7411 17.0512
" />
<path d="M97.7411 17.0512
L97.6806 17.1117
" />
<path d="M97.6806 17.1117
L97.5597 17.1721
" />
<path d="M97.5597 17.1721
L97.3178 17.1721
" />
<path d="M97.3178 17.1721
L97.1968 17.1117
" />
<path d="M98.8901 17.1721
L98.8901 15.9021
" />
<path d="M98.8901 17.1117
L98.7692 17.1721
" />
<path d="M98.7692 17.1721
L98.5273 17.1721
" />
<path d="M98.5273 17.1721
L98.4063 17.1117
" />
<path d="M98.4063 17.1117
L98.3458 17.0512
" />
<path d="M98.3458 17.0512
L98.2854 16.9302
" />
<path d="M98.2854 16.9302
L98.2854 16.5674
" />
<path d="M98.2854 16.5674
L98.3458 16.4464
" />
<path d="M98.3458 16.4464
L98.4063 16.3859
" />
<path d="M98.4063 16.3859
L98.5273 16.3255
" />
<path d="M98.5273 16.3255
L98.7692 16.3255
" />
<path d="M98.7692 16.3255
L98.8901 16.3859
" />
<path d="M99.3134 16.3255
L99.7972 16.3255
" />
<path d="M99.4948 17.1721
L99.4948 16.0836
" />
<path d="M99.4948 16.0836
L99.5553 15.9626
" />
<path d="M99.5553 15.9626
L99.6763 15.9021
" />
<path d="M99.6763 15.9021
L99.7972 15.9021
" />
</g></g> 
</svg>
