<?xml version="1.0" standalone="no"?>
 <!DOCTYPE svg PUBLIC "-//W3C//DTD SVG 1.1//EN" 
 "http://www.w3.org/Graphics/SVG/1.1/DTD/svg11.dtd"> 
<svg
  xmlns:svg="http://www.w3.org/2000/svg"
  xmlns="http://www.w3.org/2000/svg"
  xmlns:xlink="http://www.w3.org/1999/xlink"
  version="1.1"
  width="112.2426mm" height="21.5138mm" viewBox="0.0000 0.0000 112.2426 21.5138">
<title>SVG Image created as working.svg date 2023/08/15 18:04:42 </title>
  <desc>Image generated by Eeschema-SVG </desc>
<g style="fill:#000000; fill-opacity:1.0000;stroke:#000000; stroke-opacity:1.0000;
stroke-linecap:round; stroke-linejoin:round;"
 transform="translate(0 0) scale(1 1)">
</g>
<g style="fill:#840000; fill-opacity:0.0; 
stroke:#840000; stroke-width:0.0000; stroke-opacity:1; 
stroke-linecap:round; stroke-linejoin:round;">
</g>
<g style="fill:#840084; fill-opacity:0.0; 
stroke:#840084; stroke-width:0.0000; stroke-opacity:1; 
stroke-linecap:round; stroke-linejoin:round;">
</g>
<g style="fill:#840000; fill-opacity:0.0; 
stroke:#840000; stroke-width:0.0000; stroke-opacity:1; 
stroke-linecap:round; stroke-linejoin:round;">
</g>
<g style="fill:#840084; fill-opacity:0.0; 
stroke:#840084; stroke-width:0.0000; stroke-opacity:1; 
stroke-linecap:round; stroke-linejoin:round;">
</g>
<g style="fill:#006464; fill-opacity:0.0; 
stroke:#006464; stroke-width:0.0000; stroke-opacity:1; 
stroke-linecap:round; stroke-linejoin:round;">
</g>
<g style="fill:#006464; fill-opacity:0.0; 
stroke:#006464; stroke-width:0.1588; stroke-opacity:1; 
stroke-linecap:round; stroke-linejoin:round;">
<text x="47.8380" y="5.9884"
textLength="2.6415" font-size="1.6933" lengthAdjust="spacingAndGlyphs"
text-anchor="middle" opacity="0">U?</text>
<g class="stroked-text"><desc>U?</desc>
<path d="M46.9308 4.6626
L46.9308 5.6907
" />
<path d="M46.9308 5.6907
L46.9913 5.8117
" />
<path d="M46.9913 5.8117
L47.0518 5.8722
" />
<path d="M47.0518 5.8722
L47.1727 5.9326
" />
<path d="M47.1727 5.9326
L47.4146 5.9326
" />
<path d="M47.4146 5.9326
L47.5356 5.8722
" />
<path d="M47.5356 5.8722
L47.5961 5.8117
" />
<path d="M47.5961 5.8117
L47.6565 5.6907
" />
<path d="M47.6565 5.6907
L47.6565 4.6626
" />
<path d="M48.4428 5.8117
L48.5032 5.8722
" />
<path d="M48.5032 5.8722
L48.4428 5.9326
" />
<path d="M48.4428 5.9326
L48.3823 5.8722
" />
<path d="M48.3823 5.8722
L48.4428 5.8117
" />
<path d="M48.4428 5.8117
L48.4428 5.9326
" />
<path d="M48.2009 4.7231
L48.3218 4.6626
" />
<path d="M48.3218 4.6626
L48.6242 4.6626
" />
<path d="M48.6242 4.6626
L48.7451 4.7231
" />
<path d="M48.7451 4.7231
L48.8056 4.8441
" />
<path d="M48.8056 4.8441
L48.8056 4.9650
" />
<path d="M48.8056 4.9650
L48.7451 5.0860
" />
<path d="M48.7451 5.0860
L48.6847 5.1464
" />
<path d="M48.6847 5.1464
L48.5637 5.2069
" />
<path d="M48.5637 5.2069
L48.5032 5.2674
" />
<path d="M48.5032 5.2674
L48.4428 5.3883
" />
<path d="M48.4428 5.3883
L48.4428 5.4488
" />
</g><text x="61.5358" y="5.9884"
textLength="9.7170" font-size="1.6933" lengthAdjust="spacingAndGlyphs"
text-anchor="middle" opacity="0">TPS70348</text>
<g class="stroked-text"><desc>TPS70348</desc>
<path d="M56.9094 4.6626
L57.6351 4.6626
" />
<path d="M57.2723 5.9326
L57.2723 4.6626
" />
<path d="M58.0584 5.9326
L58.0584 4.6626
" />
<path d="M58.0584 4.6626
L58.5422 4.6626
" />
<path d="M58.5422 4.6626
L58.6632 4.7231
" />
<path d="M58.6632 4.7231
L58.7237 4.7836
" />
<path d="M58.7237 4.7836
L58.7841 4.9045
" />
<path d="M58.7841 4.9045
L58.7841 5.0860
" />
<path d="M58.7841 5.0860
L58.7237 5.2069
" />
<path d="M58.7237 5.2069
L58.6632 5.2674
" />
<path d="M58.6632 5.2674
L58.5422 5.3279
" />
<path d="M58.5422 5.3279
L58.0584 5.3279
" />
<path d="M59.2680 5.8722
L59.4494 5.9326
" />
<path d="M59.4494 5.9326
L59.7518 5.9326
" />
<path d="M59.7518 5.9326
L59.8727 5.8722
" />
<path d="M59.8727 5.8722
L59.9332 5.8117
" />
<path d="M59.9332 5.8117
L59.9937 5.6907
" />
<path d="M59.9937 5.6907
L59.9937 5.5698
" />
<path d="M59.9937 5.5698
L59.9332 5.4488
" />
<path d="M59.9332 5.4488
L59.8727 5.3883
" />
<path d="M59.8727 5.3883
L59.7518 5.3279
" />
<path d="M59.7518 5.3279
L59.5099 5.2674
" />
<path d="M59.5099 5.2674
L59.3889 5.2069
" />
<path d="M59.3889 5.2069
L59.3284 5.1464
" />
<path d="M59.3284 5.1464
L59.2680 5.0255
" />
<path d="M59.2680 5.0255
L59.2680 4.9045
" />
<path d="M59.2680 4.9045
L59.3284 4.7836
" />
<path d="M59.3284 4.7836
L59.3889 4.7231
" />
<path d="M59.3889 4.7231
L59.5099 4.6626
" />
<path d="M59.5099 4.6626
L59.8122 4.6626
" />
<path d="M59.8122 4.6626
L59.9937 4.7231
" />
<path d="M60.4170 4.6626
L61.2636 4.6626
" />
<path d="M61.2636 4.6626
L60.7194 5.9326
" />
<path d="M61.9893 4.6626
L62.1103 4.6626
" />
<path d="M62.1103 4.6626
L62.2312 4.7231
" />
<path d="M62.2312 4.7231
L62.2917 4.7836
" />
<path d="M62.2917 4.7836
L62.3522 4.9045
" />
<path d="M62.3522 4.9045
L62.4127 5.1464
" />
<path d="M62.4127 5.1464
L62.4127 5.4488
" />
<path d="M62.4127 5.4488
L62.3522 5.6907
" />
<path d="M62.3522 5.6907
L62.2917 5.8117
" />
<path d="M62.2917 5.8117
L62.2312 5.8722
" />
<path d="M62.2312 5.8722
L62.1103 5.9326
" />
<path d="M62.1103 5.9326
L61.9893 5.9326
" />
<path d="M61.9893 5.9326
L61.8684 5.8722
" />
<path d="M61.8684 5.8722
L61.8079 5.8117
" />
<path d="M61.8079 5.8117
L61.7474 5.6907
" />
<path d="M61.7474 5.6907
L61.6870 5.4488
" />
<path d="M61.6870 5.4488
L61.6870 5.1464
" />
<path d="M61.6870 5.1464
L61.7474 4.9045
" />
<path d="M61.7474 4.9045
L61.8079 4.7836
" />
<path d="M61.8079 4.7836
L61.8684 4.7231
" />
<path d="M61.8684 4.7231
L61.9893 4.6626
" />
<path d="M62.8360 4.6626
L63.6222 4.6626
" />
<path d="M63.6222 4.6626
L63.1988 5.1464
" />
<path d="M63.1988 5.1464
L63.3803 5.1464
" />
<path d="M63.3803 5.1464
L63.5012 5.2069
" />
<path d="M63.5012 5.2069
L63.5617 5.2674
" />
<path d="M63.5617 5.2674
L63.6222 5.3883
" />
<path d="M63.6222 5.3883
L63.6222 5.6907
" />
<path d="M63.6222 5.6907
L63.5617 5.8117
" />
<path d="M63.5617 5.8117
L63.5012 5.8722
" />
<path d="M63.5012 5.8722
L63.3803 5.9326
" />
<path d="M63.3803 5.9326
L63.0174 5.9326
" />
<path d="M63.0174 5.9326
L62.8965 5.8722
" />
<path d="M62.8965 5.8722
L62.8360 5.8117
" />
<path d="M64.7107 5.0860
L64.7107 5.9326
" />
<path d="M64.4083 4.6022
L64.1060 5.5093
" />
<path d="M64.1060 5.5093
L64.8921 5.5093
" />
<path d="M65.5574 5.2069
L65.4364 5.1464
" />
<path d="M65.4364 5.1464
L65.3759 5.0860
" />
<path d="M65.3759 5.0860
L65.3155 4.9650
" />
<path d="M65.3155 4.9650
L65.3155 4.9045
" />
<path d="M65.3155 4.9045
L65.3759 4.7836
" />
<path d="M65.3759 4.7836
L65.4364 4.7231
" />
<path d="M65.4364 4.7231
L65.5574 4.6626
" />
<path d="M65.5574 4.6626
L65.7993 4.6626
" />
<path d="M65.7993 4.6626
L65.9202 4.7231
" />
<path d="M65.9202 4.7231
L65.9807 4.7836
" />
<path d="M65.9807 4.7836
L66.0412 4.9045
" />
<path d="M66.0412 4.9045
L66.0412 4.9650
" />
<path d="M66.0412 4.9650
L65.9807 5.0860
" />
<path d="M65.9807 5.0860
L65.9202 5.1464
" />
<path d="M65.9202 5.1464
L65.7993 5.2069
" />
<path d="M65.7993 5.2069
L65.5574 5.2069
" />
<path d="M65.5574 5.2069
L65.4364 5.2674
" />
<path d="M65.4364 5.2674
L65.3759 5.3279
" />
<path d="M65.3759 5.3279
L65.3155 5.4488
" />
<path d="M65.3155 5.4488
L65.3155 5.6907
" />
<path d="M65.3155 5.6907
L65.3759 5.8117
" />
<path d="M65.3759 5.8117
L65.4364 5.8722
" />
<path d="M65.4364 5.8722
L65.5574 5.9326
" />
<path d="M65.5574 5.9326
L65.7993 5.9326
" />
<path d="M65.7993 5.9326
L65.9202 5.8722
" />
<path d="M65.9202 5.8722
L65.9807 5.8117
" />
<path d="M65.9807 5.8117
L66.0412 5.6907
" />
<path d="M66.0412 5.6907
L66.0412 5.4488
" />
<path d="M66.0412 5.4488
L65.9807 5.3279
" />
<path d="M65.9807 5.3279
L65.9202 5.2674
" />
<path d="M65.9202 5.2674
L65.7993 5.2069
" />
</g></g>
<g style="fill:#840084; fill-opacity:0.0; 
stroke:#840084; stroke-width:0.1588; stroke-opacity:1; 
stroke-linecap:round; stroke-linejoin:round;">
<text x="56.1217" y="3.4484"
textLength="93.5363" font-size="1.6933" lengthAdjust="spacingAndGlyphs"
text-anchor="middle" opacity="0">Package_SO:HTSSOP-24-1EP_4.4x7.8mm_P0.65mm_EP3.4x7.8mm_Mask2.4x4.68mm_ThermalVias</text>
<g class="stroked-text"><desc>Package_SO:HTSSOP-24-1EP_4.4x7.8mm_P0.65mm_EP3.4x7.8mm_Mask2.4x4.68mm_ThermalVias</desc>
<path d="M9.7596 3.3926
L9.9183 2.1226
" />
<path d="M9.9183 2.1226
L10.4021 2.1226
" />
<path d="M10.4021 2.1226
L10.5155 2.1831
" />
<path d="M10.5155 2.1831
L10.5684 2.2436
" />
<path d="M10.5684 2.2436
L10.6138 2.3645
" />
<path d="M10.6138 2.3645
L10.5911 2.5460
" />
<path d="M10.5911 2.5460
L10.5155 2.6669
" />
<path d="M10.5155 2.6669
L10.4475 2.7274
" />
<path d="M10.4475 2.7274
L10.3190 2.7879
" />
<path d="M10.3190 2.7879
L9.8352 2.7879
" />
<path d="M11.5739 3.3926
L11.6570 2.7274
" />
<path d="M11.6570 2.7274
L11.6117 2.6064
" />
<path d="M11.6117 2.6064
L11.4983 2.5460
" />
<path d="M11.4983 2.5460
L11.2564 2.5460
" />
<path d="M11.2564 2.5460
L11.1278 2.6064
" />
<path d="M11.5814 3.3322
L11.4529 3.3926
" />
<path d="M11.4529 3.3926
L11.1505 3.3926
" />
<path d="M11.1505 3.3926
L11.0371 3.3322
" />
<path d="M11.0371 3.3322
L10.9918 3.2112
" />
<path d="M10.9918 3.2112
L11.0069 3.0902
" />
<path d="M11.0069 3.0902
L11.0825 2.9693
" />
<path d="M11.0825 2.9693
L11.2110 2.9088
" />
<path d="M11.2110 2.9088
L11.5134 2.9088
" />
<path d="M11.5134 2.9088
L11.6419 2.8483
" />
<path d="M12.7304 3.3322
L12.6019 3.3926
" />
<path d="M12.6019 3.3926
L12.3600 3.3926
" />
<path d="M12.3600 3.3926
L12.2466 3.3322
" />
<path d="M12.2466 3.3322
L12.1937 3.2717
" />
<path d="M12.1937 3.2717
L12.1483 3.1507
" />
<path d="M12.1483 3.1507
L12.1937 2.7879
" />
<path d="M12.1937 2.7879
L12.2693 2.6669
" />
<path d="M12.2693 2.6669
L12.3373 2.6064
" />
<path d="M12.3373 2.6064
L12.4658 2.5460
" />
<path d="M12.4658 2.5460
L12.7077 2.5460
" />
<path d="M12.7077 2.5460
L12.8211 2.6064
" />
<path d="M13.2672 3.3926
L13.4259 2.1226
" />
<path d="M13.4486 2.9088
L13.7510 3.3926
" />
<path d="M13.8568 2.5460
L13.3125 3.0298
" />
<path d="M14.8396 3.3926
L14.9227 2.7274
" />
<path d="M14.9227 2.7274
L14.8774 2.6064
" />
<path d="M14.8774 2.6064
L14.7640 2.5460
" />
<path d="M14.7640 2.5460
L14.5221 2.5460
" />
<path d="M14.5221 2.5460
L14.3935 2.6064
" />
<path d="M14.8471 3.3322
L14.7186 3.3926
" />
<path d="M14.7186 3.3926
L14.4162 3.3926
" />
<path d="M14.4162 3.3926
L14.3028 3.3322
" />
<path d="M14.3028 3.3322
L14.2575 3.2112
" />
<path d="M14.2575 3.2112
L14.2726 3.0902
" />
<path d="M14.2726 3.0902
L14.3482 2.9693
" />
<path d="M14.3482 2.9693
L14.4767 2.9088
" />
<path d="M14.4767 2.9088
L14.7791 2.9088
" />
<path d="M14.7791 2.9088
L14.9076 2.8483
" />
<path d="M16.0944 2.5460
L15.9659 3.5741
" />
<path d="M15.9659 3.5741
L15.8903 3.6950
" />
<path d="M15.8903 3.6950
L15.8222 3.7555
" />
<path d="M15.8222 3.7555
L15.6937 3.8160
" />
<path d="M15.6937 3.8160
L15.5123 3.8160
" />
<path d="M15.5123 3.8160
L15.3989 3.7555
" />
<path d="M15.9961 3.3322
L15.8676 3.3926
" />
<path d="M15.8676 3.3926
L15.6257 3.3926
" />
<path d="M15.6257 3.3926
L15.5123 3.3322
" />
<path d="M15.5123 3.3322
L15.4594 3.2717
" />
<path d="M15.4594 3.2717
L15.4140 3.1507
" />
<path d="M15.4140 3.1507
L15.4594 2.7879
" />
<path d="M15.4594 2.7879
L15.5350 2.6669
" />
<path d="M15.5350 2.6669
L15.6030 2.6064
" />
<path d="M15.6030 2.6064
L15.7315 2.5460
" />
<path d="M15.7315 2.5460
L15.9734 2.5460
" />
<path d="M15.9734 2.5460
L16.0868 2.6064
" />
<path d="M17.0846 3.3322
L16.9561 3.3926
" />
<path d="M16.9561 3.3926
L16.7142 3.3926
" />
<path d="M16.7142 3.3926
L16.6008 3.3322
" />
<path d="M16.6008 3.3322
L16.5555 3.2112
" />
<path d="M16.5555 3.2112
L16.6160 2.7274
" />
<path d="M16.6160 2.7274
L16.6915 2.6064
" />
<path d="M16.6915 2.6064
L16.8201 2.5460
" />
<path d="M16.8201 2.5460
L17.0620 2.5460
" />
<path d="M17.0620 2.5460
L17.1754 2.6064
" />
<path d="M17.1754 2.6064
L17.2207 2.7274
" />
<path d="M17.2207 2.7274
L17.2056 2.8483
" />
<path d="M17.2056 2.8483
L16.5857 2.9693
" />
<path d="M17.3644 3.5136
L18.3320 3.5136
" />
<path d="M18.5966 3.3322
L18.7704 3.3926
" />
<path d="M18.7704 3.3926
L19.0728 3.3926
" />
<path d="M19.0728 3.3926
L19.2013 3.3322
" />
<path d="M19.2013 3.3322
L19.2694 3.2717
" />
<path d="M19.2694 3.2717
L19.3449 3.1507
" />
<path d="M19.3449 3.1507
L19.3601 3.0298
" />
<path d="M19.3601 3.0298
L19.3147 2.9088
" />
<path d="M19.3147 2.9088
L19.2618 2.8483
" />
<path d="M19.2618 2.8483
L19.1484 2.7879
" />
<path d="M19.1484 2.7879
L18.9141 2.7274
" />
<path d="M18.9141 2.7274
L18.8007 2.6669
" />
<path d="M18.8007 2.6669
L18.7477 2.6064
" />
<path d="M18.7477 2.6064
L18.7024 2.4855
" />
<path d="M18.7024 2.4855
L18.7175 2.3645
" />
<path d="M18.7175 2.3645
L18.7931 2.2436
" />
<path d="M18.7931 2.2436
L18.8611 2.1831
" />
<path d="M18.8611 2.1831
L18.9897 2.1226
" />
<path d="M18.9897 2.1226
L19.2920 2.1226
" />
<path d="M19.2920 2.1226
L19.4659 2.1831
" />
<path d="M20.2596 2.1226
L20.5015 2.1226
" />
<path d="M20.5015 2.1226
L20.6149 2.1831
" />
<path d="M20.6149 2.1831
L20.7208 2.3041
" />
<path d="M20.7208 2.3041
L20.7510 2.5460
" />
<path d="M20.7510 2.5460
L20.6981 2.9693
" />
<path d="M20.6981 2.9693
L20.6074 3.2112
" />
<path d="M20.6074 3.2112
L20.4713 3.3322
" />
<path d="M20.4713 3.3322
L20.3428 3.3926
" />
<path d="M20.3428 3.3926
L20.1009 3.3926
" />
<path d="M20.1009 3.3926
L19.9875 3.3322
" />
<path d="M19.9875 3.3322
L19.8817 3.2112
" />
<path d="M19.8817 3.2112
L19.8514 2.9693
" />
<path d="M19.8514 2.9693
L19.9043 2.5460
" />
<path d="M19.9043 2.5460
L19.9950 2.3041
" />
<path d="M19.9950 2.3041
L20.1311 2.1831
" />
<path d="M20.1311 2.1831
L20.2596 2.1226
" />
<path d="M21.2046 3.2717
L21.2575 3.3322
" />
<path d="M21.2575 3.3322
L21.1895 3.3926
" />
<path d="M21.1895 3.3926
L21.1366 3.3322
" />
<path d="M21.1366 3.3322
L21.2046 3.2717
" />
<path d="M21.2046 3.2717
L21.1895 3.3926
" />
<path d="M21.2877 2.6064
L21.3407 2.6669
" />
<path d="M21.3407 2.6669
L21.2726 2.7274
" />
<path d="M21.2726 2.7274
L21.2197 2.6669
" />
<path d="M21.2197 2.6669
L21.2877 2.6064
" />
<path d="M21.2877 2.6064
L21.2726 2.7274
" />
<path d="M21.7943 3.3926
L21.9530 2.1226
" />
<path d="M21.8774 2.7274
L22.6031 2.7274
" />
<path d="M22.5200 3.3926
L22.6787 2.1226
" />
<path d="M23.1021 2.1226
L23.8278 2.1226
" />
<path d="M23.3062 3.3926
L23.4650 2.1226
" />
<path d="M24.0395 3.3322
L24.2133 3.3926
" />
<path d="M24.2133 3.3926
L24.5157 3.3926
" />
<path d="M24.5157 3.3926
L24.6442 3.3322
" />
<path d="M24.6442 3.3322
L24.7123 3.2717
" />
<path d="M24.7123 3.2717
L24.7878 3.1507
" />
<path d="M24.7878 3.1507
L24.8030 3.0298
" />
<path d="M24.8030 3.0298
L24.7576 2.9088
" />
<path d="M24.7576 2.9088
L24.7047 2.8483
" />
<path d="M24.7047 2.8483
L24.5913 2.7879
" />
<path d="M24.5913 2.7879
L24.3570 2.7274
" />
<path d="M24.3570 2.7274
L24.2436 2.6669
" />
<path d="M24.2436 2.6669
L24.1906 2.6064
" />
<path d="M24.1906 2.6064
L24.1453 2.4855
" />
<path d="M24.1453 2.4855
L24.1604 2.3645
" />
<path d="M24.1604 2.3645
L24.2360 2.2436
" />
<path d="M24.2360 2.2436
L24.3040 2.1831
" />
<path d="M24.3040 2.1831
L24.4326 2.1226
" />
<path d="M24.4326 2.1226
L24.7349 2.1226
" />
<path d="M24.7349 2.1226
L24.9088 2.1831
" />
<path d="M25.2490 3.3322
L25.4228 3.3926
" />
<path d="M25.4228 3.3926
L25.7252 3.3926
" />
<path d="M25.7252 3.3926
L25.8537 3.3322
" />
<path d="M25.8537 3.3322
L25.9218 3.2717
" />
<path d="M25.9218 3.2717
L25.9973 3.1507
" />
<path d="M25.9973 3.1507
L26.0125 3.0298
" />
<path d="M26.0125 3.0298
L25.9671 2.9088
" />
<path d="M25.9671 2.9088
L25.9142 2.8483
" />
<path d="M25.9142 2.8483
L25.8008 2.7879
" />
<path d="M25.8008 2.7879
L25.5665 2.7274
" />
<path d="M25.5665 2.7274
L25.4531 2.6669
" />
<path d="M25.4531 2.6669
L25.4001 2.6064
" />
<path d="M25.4001 2.6064
L25.3548 2.4855
" />
<path d="M25.3548 2.4855
L25.3699 2.3645
" />
<path d="M25.3699 2.3645
L25.4455 2.2436
" />
<path d="M25.4455 2.2436
L25.5135 2.1831
" />
<path d="M25.5135 2.1831
L25.6421 2.1226
" />
<path d="M25.6421 2.1226
L25.9444 2.1226
" />
<path d="M25.9444 2.1226
L26.1183 2.1831
" />
<path d="M26.9120 2.1226
L27.1539 2.1226
" />
<path d="M27.1539 2.1226
L27.2673 2.1831
" />
<path d="M27.2673 2.1831
L27.3732 2.3041
" />
<path d="M27.3732 2.3041
L27.4034 2.5460
" />
<path d="M27.4034 2.5460
L27.3505 2.9693
" />
<path d="M27.3505 2.9693
L27.2598 3.2112
" />
<path d="M27.2598 3.2112
L27.1237 3.3322
" />
<path d="M27.1237 3.3322
L26.9952 3.3926
" />
<path d="M26.9952 3.3926
L26.7533 3.3926
" />
<path d="M26.7533 3.3926
L26.6399 3.3322
" />
<path d="M26.6399 3.3322
L26.5341 3.2112
" />
<path d="M26.5341 3.2112
L26.5038 2.9693
" />
<path d="M26.5038 2.9693
L26.5567 2.5460
" />
<path d="M26.5567 2.5460
L26.6474 2.3041
" />
<path d="M26.6474 2.3041
L26.7835 2.1831
" />
<path d="M26.7835 2.1831
L26.9120 2.1226
" />
<path d="M27.8419 3.3926
L28.0006 2.1226
" />
<path d="M28.0006 2.1226
L28.4844 2.1226
" />
<path d="M28.4844 2.1226
L28.5978 2.1831
" />
<path d="M28.5978 2.1831
L28.6507 2.2436
" />
<path d="M28.6507 2.2436
L28.6961 2.3645
" />
<path d="M28.6961 2.3645
L28.6734 2.5460
" />
<path d="M28.6734 2.5460
L28.5978 2.6669
" />
<path d="M28.5978 2.6669
L28.5298 2.7274
" />
<path d="M28.5298 2.7274
L28.4013 2.7879
" />
<path d="M28.4013 2.7879
L27.9175 2.7879
" />
<path d="M29.1723 2.9088
L30.1400 2.9088
" />
<path d="M30.7674 2.2436
L30.8355 2.1831
" />
<path d="M30.8355 2.1831
L30.9640 2.1226
" />
<path d="M30.9640 2.1226
L31.2664 2.1226
" />
<path d="M31.2664 2.1226
L31.3797 2.1831
" />
<path d="M31.3797 2.1831
L31.4327 2.2436
" />
<path d="M31.4327 2.2436
L31.4780 2.3645
" />
<path d="M31.4780 2.3645
L31.4629 2.4855
" />
<path d="M31.4629 2.4855
L31.3797 2.6669
" />
<path d="M31.3797 2.6669
L30.5633 3.3926
" />
<path d="M30.5633 3.3926
L31.3495 3.3926
" />
<path d="M32.5439 2.5460
L32.4381 3.3926
" />
<path d="M32.3020 2.0622
L31.8862 2.9693
" />
<path d="M31.8862 2.9693
L32.6724 2.9693
" />
<path d="M33.1637 2.9088
L34.1314 2.9088
" />
<path d="M35.3409 3.3926
L34.6152 3.3926
" />
<path d="M34.9781 3.3926
L35.1368 2.1226
" />
<path d="M35.1368 2.1226
L34.9932 2.3041
" />
<path d="M34.9932 2.3041
L34.8571 2.4250
" />
<path d="M34.8571 2.4250
L34.7286 2.4855
" />
<path d="M35.9683 2.7274
L36.3917 2.7274
" />
<path d="M36.4899 3.3926
L35.8852 3.3926
" />
<path d="M35.8852 3.3926
L36.0439 2.1226
" />
<path d="M36.0439 2.1226
L36.6487 2.1226
" />
<path d="M37.0342 3.3926
L37.1929 2.1226
" />
<path d="M37.1929 2.1226
L37.6767 2.1226
" />
<path d="M37.6767 2.1226
L37.7901 2.1831
" />
<path d="M37.7901 2.1831
L37.8430 2.2436
" />
<path d="M37.8430 2.2436
L37.8884 2.3645
" />
<path d="M37.8884 2.3645
L37.8657 2.5460
" />
<path d="M37.8657 2.5460
L37.7901 2.6669
" />
<path d="M37.7901 2.6669
L37.7221 2.7274
" />
<path d="M37.7221 2.7274
L37.5936 2.7879
" />
<path d="M37.5936 2.7879
L37.1098 2.7879
" />
<path d="M37.9867 3.5136
L38.9543 3.5136
" />
<path d="M39.9219 2.5460
L39.8161 3.3926
" />
<path d="M39.6800 2.0622
L39.2642 2.9693
" />
<path d="M39.2642 2.9693
L40.0504 2.9693
" />
<path d="M40.4964 3.2717
L40.5493 3.3322
" />
<path d="M40.5493 3.3322
L40.4813 3.3926
" />
<path d="M40.4813 3.3926
L40.4284 3.3322
" />
<path d="M40.4284 3.3322
L40.4964 3.2717
" />
<path d="M40.4964 3.2717
L40.4813 3.3926
" />
<path d="M41.7362 2.5460
L41.6304 3.3926
" />
<path d="M41.4943 2.0622
L41.0785 2.9693
" />
<path d="M41.0785 2.9693
L41.8647 2.9693
" />
<path d="M42.1746 3.3926
L42.9457 2.5460
" />
<path d="M42.2805 2.5460
L42.8399 3.3926
" />
<path d="M43.3615 2.1226
L44.2081 2.1226
" />
<path d="M44.2081 2.1226
L43.5051 3.3926
" />
<path d="M44.5483 3.2717
L44.6012 3.3322
" />
<path d="M44.6012 3.3322
L44.5332 3.3926
" />
<path d="M44.5332 3.3926
L44.4803 3.3322
" />
<path d="M44.4803 3.3322
L44.5483 3.2717
" />
<path d="M44.5483 3.2717
L44.5332 3.3926
" />
<path d="M45.4101 2.6669
L45.2967 2.6064
" />
<path d="M45.2967 2.6064
L45.2438 2.5460
" />
<path d="M45.2438 2.5460
L45.1984 2.4250
" />
<path d="M45.1984 2.4250
L45.2060 2.3645
" />
<path d="M45.2060 2.3645
L45.2816 2.2436
" />
<path d="M45.2816 2.2436
L45.3496 2.1831
" />
<path d="M45.3496 2.1831
L45.4782 2.1226
" />
<path d="M45.4782 2.1226
L45.7201 2.1226
" />
<path d="M45.7201 2.1226
L45.8334 2.1831
" />
<path d="M45.8334 2.1831
L45.8864 2.2436
" />
<path d="M45.8864 2.2436
L45.9317 2.3645
" />
<path d="M45.9317 2.3645
L45.9242 2.4250
" />
<path d="M45.9242 2.4250
L45.8486 2.5460
" />
<path d="M45.8486 2.5460
L45.7805 2.6064
" />
<path d="M45.7805 2.6064
L45.6520 2.6669
" />
<path d="M45.6520 2.6669
L45.4101 2.6669
" />
<path d="M45.4101 2.6669
L45.2816 2.7274
" />
<path d="M45.2816 2.7274
L45.2136 2.7879
" />
<path d="M45.2136 2.7879
L45.1380 2.9088
" />
<path d="M45.1380 2.9088
L45.1077 3.1507
" />
<path d="M45.1077 3.1507
L45.1531 3.2717
" />
<path d="M45.1531 3.2717
L45.2060 3.3322
" />
<path d="M45.2060 3.3322
L45.3194 3.3926
" />
<path d="M45.3194 3.3926
L45.5613 3.3926
" />
<path d="M45.5613 3.3926
L45.6898 3.3322
" />
<path d="M45.6898 3.3322
L45.7579 3.2717
" />
<path d="M45.7579 3.2717
L45.8334 3.1507
" />
<path d="M45.8334 3.1507
L45.8637 2.9088
" />
<path d="M45.8637 2.9088
L45.8183 2.7879
" />
<path d="M45.8183 2.7879
L45.7654 2.7274
" />
<path d="M45.7654 2.7274
L45.6520 2.6669
" />
<path d="M46.3475 3.3926
L46.4533 2.5460
" />
<path d="M46.4382 2.6669
L46.5062 2.6064
" />
<path d="M46.5062 2.6064
L46.6347 2.5460
" />
<path d="M46.6347 2.5460
L46.8162 2.5460
" />
<path d="M46.8162 2.5460
L46.9296 2.6064
" />
<path d="M46.9296 2.6064
L46.9749 2.7274
" />
<path d="M46.9749 2.7274
L46.8918 3.3926
" />
<path d="M46.9749 2.7274
L47.0505 2.6064
" />
<path d="M47.0505 2.6064
L47.1790 2.5460
" />
<path d="M47.1790 2.5460
L47.3604 2.5460
" />
<path d="M47.3604 2.5460
L47.4738 2.6064
" />
<path d="M47.4738 2.6064
L47.5192 2.7274
" />
<path d="M47.5192 2.7274
L47.4360 3.3926
" />
<path d="M48.0408 3.3926
L48.1466 2.5460
" />
<path d="M48.1315 2.6669
L48.1995 2.6064
" />
<path d="M48.1995 2.6064
L48.3280 2.5460
" />
<path d="M48.3280 2.5460
L48.5095 2.5460
" />
<path d="M48.5095 2.5460
L48.6229 2.6064
" />
<path d="M48.6229 2.6064
L48.6682 2.7274
" />
<path d="M48.6682 2.7274
L48.5851 3.3926
" />
<path d="M48.6682 2.7274
L48.7438 2.6064
" />
<path d="M48.7438 2.6064
L48.8723 2.5460
" />
<path d="M48.8723 2.5460
L49.0537 2.5460
" />
<path d="M49.0537 2.5460
L49.1671 2.6064
" />
<path d="M49.1671 2.6064
L49.2125 2.7274
" />
<path d="M49.2125 2.7274
L49.1293 3.3926
" />
<path d="M49.4166 3.5136
L50.3842 3.5136
" />
<path d="M50.7017 3.3926
L50.8604 2.1226
" />
<path d="M50.8604 2.1226
L51.3442 2.1226
" />
<path d="M51.3442 2.1226
L51.4576 2.1831
" />
<path d="M51.4576 2.1831
L51.5105 2.2436
" />
<path d="M51.5105 2.2436
L51.5559 2.3645
" />
<path d="M51.5559 2.3645
L51.5332 2.5460
" />
<path d="M51.5332 2.5460
L51.4576 2.6669
" />
<path d="M51.4576 2.6669
L51.3896 2.7274
" />
<path d="M51.3896 2.7274
L51.2611 2.7879
" />
<path d="M51.2611 2.7879
L50.7773 2.7879
" />
<path d="M52.3723 2.1226
L52.4933 2.1226
" />
<path d="M52.4933 2.1226
L52.6067 2.1831
" />
<path d="M52.6067 2.1831
L52.6596 2.2436
" />
<path d="M52.6596 2.2436
L52.7049 2.3645
" />
<path d="M52.7049 2.3645
L52.7352 2.6064
" />
<path d="M52.7352 2.6064
L52.6974 2.9088
" />
<path d="M52.6974 2.9088
L52.6067 3.1507
" />
<path d="M52.6067 3.1507
L52.5311 3.2717
" />
<path d="M52.5311 3.2717
L52.4630 3.3322
" />
<path d="M52.4630 3.3322
L52.3345 3.3926
" />
<path d="M52.3345 3.3926
L52.2136 3.3926
" />
<path d="M52.2136 3.3926
L52.1002 3.3322
" />
<path d="M52.1002 3.3322
L52.0473 3.2717
" />
<path d="M52.0473 3.2717
L52.0019 3.1507
" />
<path d="M52.0019 3.1507
L51.9717 2.9088
" />
<path d="M51.9717 2.9088
L52.0095 2.6064
" />
<path d="M52.0095 2.6064
L52.1002 2.3645
" />
<path d="M52.1002 2.3645
L52.1758 2.2436
" />
<path d="M52.1758 2.2436
L52.2438 2.1831
" />
<path d="M52.2438 2.1831
L52.3723 2.1226
" />
<path d="M53.1963 3.2717
L53.2492 3.3322
" />
<path d="M53.2492 3.3322
L53.1812 3.3926
" />
<path d="M53.1812 3.3926
L53.1283 3.3322
" />
<path d="M53.1283 3.3322
L53.1963 3.2717
" />
<path d="M53.1963 3.2717
L53.1812 3.3926
" />
<path d="M54.4890 2.1226
L54.2471 2.1226
" />
<path d="M54.2471 2.1226
L54.1186 2.1831
" />
<path d="M54.1186 2.1831
L54.0506 2.2436
" />
<path d="M54.0506 2.2436
L53.9069 2.4250
" />
<path d="M53.9069 2.4250
L53.8162 2.6669
" />
<path d="M53.8162 2.6669
L53.7557 3.1507
" />
<path d="M53.7557 3.1507
L53.8011 3.2717
" />
<path d="M53.8011 3.2717
L53.8540 3.3322
" />
<path d="M53.8540 3.3322
L53.9674 3.3926
" />
<path d="M53.9674 3.3926
L54.2093 3.3926
" />
<path d="M54.2093 3.3926
L54.3378 3.3322
" />
<path d="M54.3378 3.3322
L54.4059 3.2717
" />
<path d="M54.4059 3.2717
L54.4814 3.1507
" />
<path d="M54.4814 3.1507
L54.5192 2.8483
" />
<path d="M54.5192 2.8483
L54.4739 2.7274
" />
<path d="M54.4739 2.7274
L54.4210 2.6669
" />
<path d="M54.4210 2.6669
L54.3076 2.6064
" />
<path d="M54.3076 2.6064
L54.0657 2.6064
" />
<path d="M54.0657 2.6064
L53.9372 2.6669
" />
<path d="M53.9372 2.6669
L53.8691 2.7274
" />
<path d="M53.8691 2.7274
L53.7935 2.8483
" />
<path d="M55.7590 2.1226
L55.1542 2.1226
" />
<path d="M55.1542 2.1226
L55.0182 2.7274
" />
<path d="M55.0182 2.7274
L55.0862 2.6669
" />
<path d="M55.0862 2.6669
L55.2147 2.6064
" />
<path d="M55.2147 2.6064
L55.5171 2.6064
" />
<path d="M55.5171 2.6064
L55.6305 2.6669
" />
<path d="M55.6305 2.6669
L55.6834 2.7274
" />
<path d="M55.6834 2.7274
L55.7287 2.8483
" />
<path d="M55.7287 2.8483
L55.6909 3.1507
" />
<path d="M55.6909 3.1507
L55.6154 3.2717
" />
<path d="M55.6154 3.2717
L55.5473 3.3322
" />
<path d="M55.5473 3.3322
L55.4188 3.3926
" />
<path d="M55.4188 3.3926
L55.1164 3.3926
" />
<path d="M55.1164 3.3926
L55.0030 3.3322
" />
<path d="M55.0030 3.3322
L54.9501 3.2717
" />
<path d="M56.2050 3.3926
L56.3108 2.5460
" />
<path d="M56.2957 2.6669
L56.3637 2.6064
" />
<path d="M56.3637 2.6064
L56.4922 2.5460
" />
<path d="M56.4922 2.5460
L56.6737 2.5460
" />
<path d="M56.6737 2.5460
L56.7871 2.6064
" />
<path d="M56.7871 2.6064
L56.8324 2.7274
" />
<path d="M56.8324 2.7274
L56.7493 3.3926
" />
<path d="M56.8324 2.7274
L56.9080 2.6064
" />
<path d="M56.9080 2.6064
L57.0365 2.5460
" />
<path d="M57.0365 2.5460
L57.2179 2.5460
" />
<path d="M57.2179 2.5460
L57.3313 2.6064
" />
<path d="M57.3313 2.6064
L57.3767 2.7274
" />
<path d="M57.3767 2.7274
L57.2935 3.3926
" />
<path d="M57.8983 3.3926
L58.0041 2.5460
" />
<path d="M57.9890 2.6669
L58.0570 2.6064
" />
<path d="M58.0570 2.6064
L58.1855 2.5460
" />
<path d="M58.1855 2.5460
L58.3670 2.5460
" />
<path d="M58.3670 2.5460
L58.4804 2.6064
" />
<path d="M58.4804 2.6064
L58.5257 2.7274
" />
<path d="M58.5257 2.7274
L58.4426 3.3926
" />
<path d="M58.5257 2.7274
L58.6013 2.6064
" />
<path d="M58.6013 2.6064
L58.7298 2.5460
" />
<path d="M58.7298 2.5460
L58.9112 2.5460
" />
<path d="M58.9112 2.5460
L59.0246 2.6064
" />
<path d="M59.0246 2.6064
L59.0700 2.7274
" />
<path d="M59.0700 2.7274
L58.9868 3.3926
" />
<path d="M59.2741 3.5136
L60.2417 3.5136
" />
<path d="M60.6423 2.7274
L61.0657 2.7274
" />
<path d="M61.1639 3.3926
L60.5592 3.3926
" />
<path d="M60.5592 3.3926
L60.7179 2.1226
" />
<path d="M60.7179 2.1226
L61.3227 2.1226
" />
<path d="M61.7082 3.3926
L61.8669 2.1226
" />
<path d="M61.8669 2.1226
L62.3507 2.1226
" />
<path d="M62.3507 2.1226
L62.4641 2.1831
" />
<path d="M62.4641 2.1831
L62.5170 2.2436
" />
<path d="M62.5170 2.2436
L62.5624 2.3645
" />
<path d="M62.5624 2.3645
L62.5397 2.5460
" />
<path d="M62.5397 2.5460
L62.4641 2.6669
" />
<path d="M62.4641 2.6669
L62.3961 2.7274
" />
<path d="M62.3961 2.7274
L62.2676 2.7879
" />
<path d="M62.2676 2.7879
L61.7838 2.7879
" />
<path d="M63.0160 2.1226
L63.8022 2.1226
" />
<path d="M63.8022 2.1226
L63.3184 2.6064
" />
<path d="M63.3184 2.6064
L63.4998 2.6064
" />
<path d="M63.4998 2.6064
L63.6132 2.6669
" />
<path d="M63.6132 2.6669
L63.6661 2.7274
" />
<path d="M63.6661 2.7274
L63.7114 2.8483
" />
<path d="M63.7114 2.8483
L63.6736 3.1507
" />
<path d="M63.6736 3.1507
L63.5981 3.2717
" />
<path d="M63.5981 3.2717
L63.5300 3.3322
" />
<path d="M63.5300 3.3322
L63.4015 3.3926
" />
<path d="M63.4015 3.3926
L63.0386 3.3926
" />
<path d="M63.0386 3.3926
L62.9253 3.3322
" />
<path d="M62.9253 3.3322
L62.8723 3.2717
" />
<path d="M64.2028 3.2717
L64.2557 3.3322
" />
<path d="M64.2557 3.3322
L64.1877 3.3926
" />
<path d="M64.1877 3.3926
L64.1348 3.3322
" />
<path d="M64.1348 3.3322
L64.2028 3.2717
" />
<path d="M64.2028 3.2717
L64.1877 3.3926
" />
<path d="M65.4426 2.5460
L65.3368 3.3926
" />
<path d="M65.2007 2.0622
L64.7849 2.9693
" />
<path d="M64.7849 2.9693
L65.5711 2.9693
" />
<path d="M65.8810 3.3926
L66.6521 2.5460
" />
<path d="M65.9869 2.5460
L66.5463 3.3926
" />
<path d="M67.0679 2.1226
L67.9145 2.1226
" />
<path d="M67.9145 2.1226
L67.2115 3.3926
" />
<path d="M68.2547 3.2717
L68.3076 3.3322
" />
<path d="M68.3076 3.3322
L68.2396 3.3926
" />
<path d="M68.2396 3.3926
L68.1867 3.3322
" />
<path d="M68.1867 3.3322
L68.2547 3.2717
" />
<path d="M68.2547 3.2717
L68.2396 3.3926
" />
<path d="M69.1165 2.6669
L69.0031 2.6064
" />
<path d="M69.0031 2.6064
L68.9502 2.5460
" />
<path d="M68.9502 2.5460
L68.9048 2.4250
" />
<path d="M68.9048 2.4250
L68.9124 2.3645
" />
<path d="M68.9124 2.3645
L68.9880 2.2436
" />
<path d="M68.9880 2.2436
L69.0560 2.1831
" />
<path d="M69.0560 2.1831
L69.1846 2.1226
" />
<path d="M69.1846 2.1226
L69.4265 2.1226
" />
<path d="M69.4265 2.1226
L69.5398 2.1831
" />
<path d="M69.5398 2.1831
L69.5928 2.2436
" />
<path d="M69.5928 2.2436
L69.6381 2.3645
" />
<path d="M69.6381 2.3645
L69.6306 2.4250
" />
<path d="M69.6306 2.4250
L69.5550 2.5460
" />
<path d="M69.5550 2.5460
L69.4869 2.6064
" />
<path d="M69.4869 2.6064
L69.3584 2.6669
" />
<path d="M69.3584 2.6669
L69.1165 2.6669
" />
<path d="M69.1165 2.6669
L68.9880 2.7274
" />
<path d="M68.9880 2.7274
L68.9200 2.7879
" />
<path d="M68.9200 2.7879
L68.8444 2.9088
" />
<path d="M68.8444 2.9088
L68.8141 3.1507
" />
<path d="M68.8141 3.1507
L68.8595 3.2717
" />
<path d="M68.8595 3.2717
L68.9124 3.3322
" />
<path d="M68.9124 3.3322
L69.0258 3.3926
" />
<path d="M69.0258 3.3926
L69.2677 3.3926
" />
<path d="M69.2677 3.3926
L69.3962 3.3322
" />
<path d="M69.3962 3.3322
L69.4643 3.2717
" />
<path d="M69.4643 3.2717
L69.5398 3.1507
" />
<path d="M69.5398 3.1507
L69.5701 2.9088
" />
<path d="M69.5701 2.9088
L69.5247 2.7879
" />
<path d="M69.5247 2.7879
L69.4718 2.7274
" />
<path d="M69.4718 2.7274
L69.3584 2.6669
" />
<path d="M70.0539 3.3926
L70.1597 2.5460
" />
<path d="M70.1446 2.6669
L70.2126 2.6064
" />
<path d="M70.2126 2.6064
L70.3411 2.5460
" />
<path d="M70.3411 2.5460
L70.5226 2.5460
" />
<path d="M70.5226 2.5460
L70.6360 2.6064
" />
<path d="M70.6360 2.6064
L70.6813 2.7274
" />
<path d="M70.6813 2.7274
L70.5982 3.3926
" />
<path d="M70.6813 2.7274
L70.7569 2.6064
" />
<path d="M70.7569 2.6064
L70.8854 2.5460
" />
<path d="M70.8854 2.5460
L71.0668 2.5460
" />
<path d="M71.0668 2.5460
L71.1802 2.6064
" />
<path d="M71.1802 2.6064
L71.2256 2.7274
" />
<path d="M71.2256 2.7274
L71.1424 3.3926
" />
<path d="M71.7472 3.3926
L71.8530 2.5460
" />
<path d="M71.8379 2.6669
L71.9059 2.6064
" />
<path d="M71.9059 2.6064
L72.0344 2.5460
" />
<path d="M72.0344 2.5460
L72.2159 2.5460
" />
<path d="M72.2159 2.5460
L72.3293 2.6064
" />
<path d="M72.3293 2.6064
L72.3746 2.7274
" />
<path d="M72.3746 2.7274
L72.2915 3.3926
" />
<path d="M72.3746 2.7274
L72.4502 2.6064
" />
<path d="M72.4502 2.6064
L72.5787 2.5460
" />
<path d="M72.5787 2.5460
L72.7601 2.5460
" />
<path d="M72.7601 2.5460
L72.8735 2.6064
" />
<path d="M72.8735 2.6064
L72.9189 2.7274
" />
<path d="M72.9189 2.7274
L72.8357 3.3926
" />
<path d="M73.1230 3.5136
L74.0906 3.5136
" />
<path d="M74.4081 3.3926
L74.5668 2.1226
" />
<path d="M74.5668 2.1226
L74.8768 3.0298
" />
<path d="M74.8768 3.0298
L75.4135 2.1226
" />
<path d="M75.4135 2.1226
L75.2547 3.3926
" />
<path d="M76.4038 3.3926
L76.4869 2.7274
" />
<path d="M76.4869 2.7274
L76.4416 2.6064
" />
<path d="M76.4416 2.6064
L76.3282 2.5460
" />
<path d="M76.3282 2.5460
L76.0863 2.5460
" />
<path d="M76.0863 2.5460
L75.9577 2.6064
" />
<path d="M76.4113 3.3322
L76.2828 3.3926
" />
<path d="M76.2828 3.3926
L75.9804 3.3926
" />
<path d="M75.9804 3.3926
L75.8670 3.3322
" />
<path d="M75.8670 3.3322
L75.8217 3.2112
" />
<path d="M75.8217 3.2112
L75.8368 3.0902
" />
<path d="M75.8368 3.0902
L75.9124 2.9693
" />
<path d="M75.9124 2.9693
L76.0409 2.9088
" />
<path d="M76.0409 2.9088
L76.3433 2.9088
" />
<path d="M76.3433 2.9088
L76.4718 2.8483
" />
<path d="M76.9556 3.3322
L77.0689 3.3926
" />
<path d="M77.0689 3.3926
L77.3109 3.3926
" />
<path d="M77.3109 3.3926
L77.4394 3.3322
" />
<path d="M77.4394 3.3322
L77.5150 3.2112
" />
<path d="M77.5150 3.2112
L77.5225 3.1507
" />
<path d="M77.5225 3.1507
L77.4772 3.0298
" />
<path d="M77.4772 3.0298
L77.3638 2.9693
" />
<path d="M77.3638 2.9693
L77.1823 2.9693
" />
<path d="M77.1823 2.9693
L77.0689 2.9088
" />
<path d="M77.0689 2.9088
L77.0236 2.7879
" />
<path d="M77.0236 2.7879
L77.0312 2.7274
" />
<path d="M77.0312 2.7274
L77.1067 2.6064
" />
<path d="M77.1067 2.6064
L77.2353 2.5460
" />
<path d="M77.2353 2.5460
L77.4167 2.5460
" />
<path d="M77.4167 2.5460
L77.5301 2.6064
" />
<path d="M78.0366 3.3926
L78.1953 2.1226
" />
<path d="M78.2180 2.9088
L78.5204 3.3926
" />
<path d="M78.6262 2.5460
L78.0819 3.0298
" />
<path d="M79.1478 2.2436
L79.2159 2.1831
" />
<path d="M79.2159 2.1831
L79.3444 2.1226
" />
<path d="M79.3444 2.1226
L79.6468 2.1226
" />
<path d="M79.6468 2.1226
L79.7601 2.1831
" />
<path d="M79.7601 2.1831
L79.8131 2.2436
" />
<path d="M79.8131 2.2436
L79.8584 2.3645
" />
<path d="M79.8584 2.3645
L79.8433 2.4855
" />
<path d="M79.8433 2.4855
L79.7601 2.6669
" />
<path d="M79.7601 2.6669
L78.9437 3.3926
" />
<path d="M78.9437 3.3926
L79.7299 3.3926
" />
<path d="M80.2893 3.2717
L80.3422 3.3322
" />
<path d="M80.3422 3.3322
L80.2742 3.3926
" />
<path d="M80.2742 3.3926
L80.2213 3.3322
" />
<path d="M80.2213 3.3322
L80.2893 3.2717
" />
<path d="M80.2893 3.2717
L80.2742 3.3926
" />
<path d="M81.5291 2.5460
L81.4233 3.3926
" />
<path d="M81.2872 2.0622
L80.8714 2.9693
" />
<path d="M80.8714 2.9693
L81.6576 2.9693
" />
<path d="M81.9675 3.3926
L82.7386 2.5460
" />
<path d="M82.0734 2.5460
L82.6328 3.3926
" />
<path d="M83.7667 2.5460
L83.6609 3.3926
" />
<path d="M83.5248 2.0622
L83.1090 2.9693
" />
<path d="M83.1090 2.9693
L83.8952 2.9693
" />
<path d="M84.3412 3.2717
L84.3941 3.3322
" />
<path d="M84.3941 3.3322
L84.3261 3.3926
" />
<path d="M84.3261 3.3926
L84.2732 3.3322
" />
<path d="M84.2732 3.3322
L84.3412 3.2717
" />
<path d="M84.3412 3.2717
L84.3261 3.3926
" />
<path d="M85.6339 2.1226
L85.3920 2.1226
" />
<path d="M85.3920 2.1226
L85.2635 2.1831
" />
<path d="M85.2635 2.1831
L85.1955 2.2436
" />
<path d="M85.1955 2.2436
L85.0518 2.4250
" />
<path d="M85.0518 2.4250
L84.9611 2.6669
" />
<path d="M84.9611 2.6669
L84.9006 3.1507
" />
<path d="M84.9006 3.1507
L84.9460 3.2717
" />
<path d="M84.9460 3.2717
L84.9989 3.3322
" />
<path d="M84.9989 3.3322
L85.1123 3.3926
" />
<path d="M85.1123 3.3926
L85.3542 3.3926
" />
<path d="M85.3542 3.3926
L85.4827 3.3322
" />
<path d="M85.4827 3.3322
L85.5508 3.2717
" />
<path d="M85.5508 3.2717
L85.6263 3.1507
" />
<path d="M85.6263 3.1507
L85.6641 2.8483
" />
<path d="M85.6641 2.8483
L85.6188 2.7274
" />
<path d="M85.6188 2.7274
L85.5659 2.6669
" />
<path d="M85.5659 2.6669
L85.4525 2.6064
" />
<path d="M85.4525 2.6064
L85.2106 2.6064
" />
<path d="M85.2106 2.6064
L85.0821 2.6669
" />
<path d="M85.0821 2.6669
L85.0140 2.7274
" />
<path d="M85.0140 2.7274
L84.9384 2.8483
" />
<path d="M86.4125 2.6669
L86.2991 2.6064
" />
<path d="M86.2991 2.6064
L86.2462 2.5460
" />
<path d="M86.2462 2.5460
L86.2008 2.4250
" />
<path d="M86.2008 2.4250
L86.2084 2.3645
" />
<path d="M86.2084 2.3645
L86.2840 2.2436
" />
<path d="M86.2840 2.2436
L86.3520 2.1831
" />
<path d="M86.3520 2.1831
L86.4806 2.1226
" />
<path d="M86.4806 2.1226
L86.7225 2.1226
" />
<path d="M86.7225 2.1226
L86.8358 2.1831
" />
<path d="M86.8358 2.1831
L86.8888 2.2436
" />
<path d="M86.8888 2.2436
L86.9341 2.3645
" />
<path d="M86.9341 2.3645
L86.9266 2.4250
" />
<path d="M86.9266 2.4250
L86.8510 2.5460
" />
<path d="M86.8510 2.5460
L86.7829 2.6064
" />
<path d="M86.7829 2.6064
L86.6544 2.6669
" />
<path d="M86.6544 2.6669
L86.4125 2.6669
" />
<path d="M86.4125 2.6669
L86.2840 2.7274
" />
<path d="M86.2840 2.7274
L86.2160 2.7879
" />
<path d="M86.2160 2.7879
L86.1404 2.9088
" />
<path d="M86.1404 2.9088
L86.1101 3.1507
" />
<path d="M86.1101 3.1507
L86.1555 3.2717
" />
<path d="M86.1555 3.2717
L86.2084 3.3322
" />
<path d="M86.2084 3.3322
L86.3218 3.3926
" />
<path d="M86.3218 3.3926
L86.5637 3.3926
" />
<path d="M86.5637 3.3926
L86.6922 3.3322
" />
<path d="M86.6922 3.3322
L86.7603 3.2717
" />
<path d="M86.7603 3.2717
L86.8358 3.1507
" />
<path d="M86.8358 3.1507
L86.8661 2.9088
" />
<path d="M86.8661 2.9088
L86.8207 2.7879
" />
<path d="M86.8207 2.7879
L86.7678 2.7274
" />
<path d="M86.7678 2.7274
L86.6544 2.6669
" />
<path d="M87.3499 3.3926
L87.4557 2.5460
" />
<path d="M87.4406 2.6669
L87.5086 2.6064
" />
<path d="M87.5086 2.6064
L87.6371 2.5460
" />
<path d="M87.6371 2.5460
L87.8186 2.5460
" />
<path d="M87.8186 2.5460
L87.9320 2.6064
" />
<path d="M87.9320 2.6064
L87.9773 2.7274
" />
<path d="M87.9773 2.7274
L87.8942 3.3926
" />
<path d="M87.9773 2.7274
L88.0529 2.6064
" />
<path d="M88.0529 2.6064
L88.1814 2.5460
" />
<path d="M88.1814 2.5460
L88.3628 2.5460
" />
<path d="M88.3628 2.5460
L88.4762 2.6064
" />
<path d="M88.4762 2.6064
L88.5216 2.7274
" />
<path d="M88.5216 2.7274
L88.4384 3.3926
" />
<path d="M89.0432 3.3926
L89.1490 2.5460
" />
<path d="M89.1339 2.6669
L89.2019 2.6064
" />
<path d="M89.2019 2.6064
L89.3304 2.5460
" />
<path d="M89.3304 2.5460
L89.5119 2.5460
" />
<path d="M89.5119 2.5460
L89.6253 2.6064
" />
<path d="M89.6253 2.6064
L89.6706 2.7274
" />
<path d="M89.6706 2.7274
L89.5875 3.3926
" />
<path d="M89.6706 2.7274
L89.7462 2.6064
" />
<path d="M89.7462 2.6064
L89.8747 2.5460
" />
<path d="M89.8747 2.5460
L90.0561 2.5460
" />
<path d="M90.0561 2.5460
L90.1695 2.6064
" />
<path d="M90.1695 2.6064
L90.2149 2.7274
" />
<path d="M90.2149 2.7274
L90.1317 3.3926
" />
<path d="M90.4190 3.5136
L91.3866 3.5136
" />
<path d="M91.6814 2.1226
L92.4071 2.1226
" />
<path d="M91.8855 3.3926
L92.0443 2.1226
" />
<path d="M92.6717 3.3926
L92.8304 2.1226
" />
<path d="M93.2160 3.3926
L93.2991 2.7274
" />
<path d="M93.2991 2.7274
L93.2538 2.6064
" />
<path d="M93.2538 2.6064
L93.1404 2.5460
" />
<path d="M93.1404 2.5460
L92.9589 2.5460
" />
<path d="M92.9589 2.5460
L92.8304 2.6064
" />
<path d="M92.8304 2.6064
L92.7624 2.6669
" />
<path d="M94.3120 3.3322
L94.1835 3.3926
" />
<path d="M94.1835 3.3926
L93.9416 3.3926
" />
<path d="M93.9416 3.3926
L93.8282 3.3322
" />
<path d="M93.8282 3.3322
L93.7829 3.2112
" />
<path d="M93.7829 3.2112
L93.8434 2.7274
" />
<path d="M93.8434 2.7274
L93.9189 2.6064
" />
<path d="M93.9189 2.6064
L94.0475 2.5460
" />
<path d="M94.0475 2.5460
L94.2894 2.5460
" />
<path d="M94.2894 2.5460
L94.4028 2.6064
" />
<path d="M94.4028 2.6064
L94.4481 2.7274
" />
<path d="M94.4481 2.7274
L94.4330 2.8483
" />
<path d="M94.4330 2.8483
L93.8131 2.9693
" />
<path d="M94.9093 3.3926
L95.0151 2.5460
" />
<path d="M94.9849 2.7879
L95.0605 2.6669
" />
<path d="M95.0605 2.6669
L95.1285 2.6064
" />
<path d="M95.1285 2.6064
L95.2570 2.5460
" />
<path d="M95.2570 2.5460
L95.3780 2.5460
" />
<path d="M95.6955 3.3926
L95.8013 2.5460
" />
<path d="M95.7862 2.6669
L95.8542 2.6064
" />
<path d="M95.8542 2.6064
L95.9827 2.5460
" />
<path d="M95.9827 2.5460
L96.1642 2.5460
" />
<path d="M96.1642 2.5460
L96.2776 2.6064
" />
<path d="M96.2776 2.6064
L96.3229 2.7274
" />
<path d="M96.3229 2.7274
L96.2398 3.3926
" />
<path d="M96.3229 2.7274
L96.3985 2.6064
" />
<path d="M96.3985 2.6064
L96.5270 2.5460
" />
<path d="M96.5270 2.5460
L96.7084 2.5460
" />
<path d="M96.7084 2.5460
L96.8218 2.6064
" />
<path d="M96.8218 2.6064
L96.8672 2.7274
" />
<path d="M96.8672 2.7274
L96.7840 3.3926
" />
<path d="M97.9331 3.3926
L98.0162 2.7274
" />
<path d="M98.0162 2.7274
L97.9709 2.6064
" />
<path d="M97.9709 2.6064
L97.8575 2.5460
" />
<path d="M97.8575 2.5460
L97.6156 2.5460
" />
<path d="M97.6156 2.5460
L97.4870 2.6064
" />
<path d="M97.9406 3.3322
L97.8121 3.3926
" />
<path d="M97.8121 3.3926
L97.5097 3.3926
" />
<path d="M97.5097 3.3926
L97.3963 3.3322
" />
<path d="M97.3963 3.3322
L97.3510 3.2112
" />
<path d="M97.3510 3.2112
L97.3661 3.0902
" />
<path d="M97.3661 3.0902
L97.4417 2.9693
" />
<path d="M97.4417 2.9693
L97.5702 2.9088
" />
<path d="M97.5702 2.9088
L97.8726 2.9088
" />
<path d="M97.8726 2.9088
L98.0011 2.8483
" />
<path d="M98.7192 3.3926
L98.6058 3.3322
" />
<path d="M98.6058 3.3322
L98.5605 3.2112
" />
<path d="M98.5605 3.2112
L98.6965 2.1226
" />
<path d="M99.1803 2.1226
L99.4449 3.3926
" />
<path d="M99.4449 3.3926
L100.0270 2.1226
" />
<path d="M100.2916 3.3926
L100.3974 2.5460
" />
<path d="M100.4503 2.1226
L100.3823 2.1831
" />
<path d="M100.3823 2.1831
L100.4352 2.2436
" />
<path d="M100.4352 2.2436
L100.5032 2.1831
" />
<path d="M100.5032 2.1831
L100.4503 2.1226
" />
<path d="M100.4503 2.1226
L100.4352 2.2436
" />
<path d="M101.4407 3.3926
L101.5238 2.7274
" />
<path d="M101.5238 2.7274
L101.4785 2.6064
" />
<path d="M101.4785 2.6064
L101.3651 2.5460
" />
<path d="M101.3651 2.5460
L101.1232 2.5460
" />
<path d="M101.1232 2.5460
L100.9946 2.6064
" />
<path d="M101.4482 3.3322
L101.3197 3.3926
" />
<path d="M101.3197 3.3926
L101.0173 3.3926
" />
<path d="M101.0173 3.3926
L100.9039 3.3322
" />
<path d="M100.9039 3.3322
L100.8586 3.2112
" />
<path d="M100.8586 3.2112
L100.8737 3.0902
" />
<path d="M100.8737 3.0902
L100.9493 2.9693
" />
<path d="M100.9493 2.9693
L101.0778 2.9088
" />
<path d="M101.0778 2.9088
L101.3802 2.9088
" />
<path d="M101.3802 2.9088
L101.5087 2.8483
" />
<path d="M101.9925 3.3322
L102.1058 3.3926
" />
<path d="M102.1058 3.3926
L102.3478 3.3926
" />
<path d="M102.3478 3.3926
L102.4763 3.3322
" />
<path d="M102.4763 3.3322
L102.5519 3.2112
" />
<path d="M102.5519 3.2112
L102.5594 3.1507
" />
<path d="M102.5594 3.1507
L102.5141 3.0298
" />
<path d="M102.5141 3.0298
L102.4007 2.9693
" />
<path d="M102.4007 2.9693
L102.2192 2.9693
" />
<path d="M102.2192 2.9693
L102.1058 2.9088
" />
<path d="M102.1058 2.9088
L102.0605 2.7879
" />
<path d="M102.0605 2.7879
L102.0681 2.7274
" />
<path d="M102.0681 2.7274
L102.1436 2.6064
" />
<path d="M102.1436 2.6064
L102.2722 2.5460
" />
<path d="M102.2722 2.5460
L102.4536 2.5460
" />
<path d="M102.4536 2.5460
L102.5670 2.6064
" />
</g><text x="56.6773" y="19.3234"
textLength="44.4908" font-size="1.6933" lengthAdjust="spacingAndGlyphs"
text-anchor="middle" opacity="0">http://www.ti.com/lit/ds/symlink/tps703.pdf</text>
<g class="stroked-text"><desc>http://www.ti.com/lit/ds/symlink/tps703.pdf</desc>
<path d="M34.8454 19.2676
L34.8454 17.9976
" />
<path d="M35.3897 19.2676
L35.3897 18.6024
" />
<path d="M35.3897 18.6024
L35.3292 18.4814
" />
<path d="M35.3292 18.4814
L35.2083 18.4210
" />
<path d="M35.2083 18.4210
L35.0269 18.4210
" />
<path d="M35.0269 18.4210
L34.9059 18.4814
" />
<path d="M34.9059 18.4814
L34.8454 18.5419
" />
<path d="M35.8130 18.4210
L36.2968 18.4210
" />
<path d="M35.9944 17.9976
L35.9944 19.0862
" />
<path d="M35.9944 19.0862
L36.0549 19.2072
" />
<path d="M36.0549 19.2072
L36.1759 19.2676
" />
<path d="M36.1759 19.2676
L36.2968 19.2676
" />
<path d="M36.5387 18.4210
L37.0225 18.4210
" />
<path d="M36.7201 17.9976
L36.7201 19.0862
" />
<path d="M36.7201 19.0862
L36.7806 19.2072
" />
<path d="M36.7806 19.2072
L36.9016 19.2676
" />
<path d="M36.9016 19.2676
L37.0225 19.2676
" />
<path d="M37.4458 18.4210
L37.4458 19.6910
" />
<path d="M37.4458 18.4814
L37.5668 18.4210
" />
<path d="M37.5668 18.4210
L37.8087 18.4210
" />
<path d="M37.8087 18.4210
L37.9296 18.4814
" />
<path d="M37.9296 18.4814
L37.9901 18.5419
" />
<path d="M37.9901 18.5419
L38.0506 18.6629
" />
<path d="M38.0506 18.6629
L38.0506 19.0257
" />
<path d="M38.0506 19.0257
L37.9901 19.1467
" />
<path d="M37.9901 19.1467
L37.9296 19.2072
" />
<path d="M37.9296 19.2072
L37.8087 19.2676
" />
<path d="M37.8087 19.2676
L37.5668 19.2676
" />
<path d="M37.5668 19.2676
L37.4458 19.2072
" />
<path d="M38.5948 19.1467
L38.6553 19.2072
" />
<path d="M38.6553 19.2072
L38.5948 19.2676
" />
<path d="M38.5948 19.2676
L38.5344 19.2072
" />
<path d="M38.5344 19.2072
L38.5948 19.1467
" />
<path d="M38.5948 19.1467
L38.5948 19.2676
" />
<path d="M38.5948 18.4814
L38.6553 18.5419
" />
<path d="M38.6553 18.5419
L38.5948 18.6024
" />
<path d="M38.5948 18.6024
L38.5344 18.5419
" />
<path d="M38.5344 18.5419
L38.5948 18.4814
" />
<path d="M38.5948 18.4814
L38.5948 18.6024
" />
<path d="M40.1068 17.9372
L39.0182 19.5700
" />
<path d="M41.4373 17.9372
L40.3487 19.5700
" />
<path d="M41.7397 18.4210
L41.9816 19.2676
" />
<path d="M41.9816 19.2676
L42.2235 18.6629
" />
<path d="M42.2235 18.6629
L42.4654 19.2676
" />
<path d="M42.4654 19.2676
L42.7073 18.4210
" />
<path d="M43.0702 18.4210
L43.3121 19.2676
" />
<path d="M43.3121 19.2676
L43.5540 18.6629
" />
<path d="M43.5540 18.6629
L43.7959 19.2676
" />
<path d="M43.7959 19.2676
L44.0378 18.4210
" />
<path d="M44.4007 18.4210
L44.6426 19.2676
" />
<path d="M44.6426 19.2676
L44.8845 18.6629
" />
<path d="M44.8845 18.6629
L45.1264 19.2676
" />
<path d="M45.1264 19.2676
L45.3683 18.4210
" />
<path d="M45.8521 19.1467
L45.9126 19.2072
" />
<path d="M45.9126 19.2072
L45.8521 19.2676
" />
<path d="M45.8521 19.2676
L45.7917 19.2072
" />
<path d="M45.7917 19.2072
L45.8521 19.1467
" />
<path d="M45.8521 19.1467
L45.8521 19.2676
" />
<path d="M46.2755 18.4210
L46.7593 18.4210
" />
<path d="M46.4569 17.9976
L46.4569 19.0862
" />
<path d="M46.4569 19.0862
L46.5174 19.2072
" />
<path d="M46.5174 19.2072
L46.6384 19.2676
" />
<path d="M46.6384 19.2676
L46.7593 19.2676
" />
<path d="M47.1826 19.2676
L47.1826 18.4210
" />
<path d="M47.1826 17.9976
L47.1222 18.0581
" />
<path d="M47.1222 18.0581
L47.1826 18.1186
" />
<path d="M47.1826 18.1186
L47.2431 18.0581
" />
<path d="M47.2431 18.0581
L47.1826 17.9976
" />
<path d="M47.1826 17.9976
L47.1826 18.1186
" />
<path d="M47.7874 19.1467
L47.8479 19.2072
" />
<path d="M47.8479 19.2072
L47.7874 19.2676
" />
<path d="M47.7874 19.2676
L47.7270 19.2072
" />
<path d="M47.7270 19.2072
L47.7874 19.1467
" />
<path d="M47.7874 19.1467
L47.7874 19.2676
" />
<path d="M48.9365 19.2072
L48.8156 19.2676
" />
<path d="M48.8156 19.2676
L48.5737 19.2676
" />
<path d="M48.5737 19.2676
L48.4527 19.2072
" />
<path d="M48.4527 19.2072
L48.3922 19.1467
" />
<path d="M48.3922 19.1467
L48.3318 19.0257
" />
<path d="M48.3318 19.0257
L48.3318 18.6629
" />
<path d="M48.3318 18.6629
L48.3922 18.5419
" />
<path d="M48.3922 18.5419
L48.4527 18.4814
" />
<path d="M48.4527 18.4814
L48.5737 18.4210
" />
<path d="M48.5737 18.4210
L48.8156 18.4210
" />
<path d="M48.8156 18.4210
L48.9365 18.4814
" />
<path d="M49.6623 19.2676
L49.5413 19.2072
" />
<path d="M49.5413 19.2072
L49.4808 19.1467
" />
<path d="M49.4808 19.1467
L49.4204 19.0257
" />
<path d="M49.4204 19.0257
L49.4204 18.6629
" />
<path d="M49.4204 18.6629
L49.4808 18.5419
" />
<path d="M49.4808 18.5419
L49.5413 18.4814
" />
<path d="M49.5413 18.4814
L49.6623 18.4210
" />
<path d="M49.6623 18.4210
L49.8437 18.4210
" />
<path d="M49.8437 18.4210
L49.9646 18.4814
" />
<path d="M49.9646 18.4814
L50.0251 18.5419
" />
<path d="M50.0251 18.5419
L50.0856 18.6629
" />
<path d="M50.0856 18.6629
L50.0856 19.0257
" />
<path d="M50.0856 19.0257
L50.0251 19.1467
" />
<path d="M50.0251 19.1467
L49.9646 19.2072
" />
<path d="M49.9646 19.2072
L49.8437 19.2676
" />
<path d="M49.8437 19.2676
L49.6623 19.2676
" />
<path d="M50.6298 19.2676
L50.6298 18.4210
" />
<path d="M50.6298 18.5419
L50.6903 18.4814
" />
<path d="M50.6903 18.4814
L50.8113 18.4210
" />
<path d="M50.8113 18.4210
L50.9927 18.4210
" />
<path d="M50.9927 18.4210
L51.1136 18.4814
" />
<path d="M51.1136 18.4814
L51.1741 18.6024
" />
<path d="M51.1741 18.6024
L51.1741 19.2676
" />
<path d="M51.1741 18.6024
L51.2346 18.4814
" />
<path d="M51.2346 18.4814
L51.3555 18.4210
" />
<path d="M51.3555 18.4210
L51.5370 18.4210
" />
<path d="M51.5370 18.4210
L51.6579 18.4814
" />
<path d="M51.6579 18.4814
L51.7184 18.6024
" />
<path d="M51.7184 18.6024
L51.7184 19.2676
" />
<path d="M53.2303 17.9372
L52.1417 19.5700
" />
<path d="M53.8351 19.2676
L53.7141 19.2072
" />
<path d="M53.7141 19.2072
L53.6536 19.0862
" />
<path d="M53.6536 19.0862
L53.6536 17.9976
" />
<path d="M54.3188 19.2676
L54.3188 18.4210
" />
<path d="M54.3188 17.9976
L54.2584 18.0581
" />
<path d="M54.2584 18.0581
L54.3188 18.1186
" />
<path d="M54.3188 18.1186
L54.3793 18.0581
" />
<path d="M54.3793 18.0581
L54.3188 17.9976
" />
<path d="M54.3188 17.9976
L54.3188 18.1186
" />
<path d="M54.7422 18.4210
L55.2260 18.4210
" />
<path d="M54.9236 17.9976
L54.9236 19.0862
" />
<path d="M54.9236 19.0862
L54.9841 19.2072
" />
<path d="M54.9841 19.2072
L55.1051 19.2676
" />
<path d="M55.1051 19.2676
L55.2260 19.2676
" />
<path d="M56.5565 17.9372
L55.4679 19.5700
" />
<path d="M57.5241 19.2676
L57.5241 17.9976
" />
<path d="M57.5241 19.2072
L57.4032 19.2676
" />
<path d="M57.4032 19.2676
L57.1613 19.2676
" />
<path d="M57.1613 19.2676
L57.0403 19.2072
" />
<path d="M57.0403 19.2072
L56.9798 19.1467
" />
<path d="M56.9798 19.1467
L56.9194 19.0257
" />
<path d="M56.9194 19.0257
L56.9194 18.6629
" />
<path d="M56.9194 18.6629
L56.9798 18.5419
" />
<path d="M56.9798 18.5419
L57.0403 18.4814
" />
<path d="M57.0403 18.4814
L57.1613 18.4210
" />
<path d="M57.1613 18.4210
L57.4032 18.4210
" />
<path d="M57.4032 18.4210
L57.5241 18.4814
" />
<path d="M58.0684 19.2072
L58.1893 19.2676
" />
<path d="M58.1893 19.2676
L58.4312 19.2676
" />
<path d="M58.4312 19.2676
L58.5522 19.2072
" />
<path d="M58.5522 19.2072
L58.6126 19.0862
" />
<path d="M58.6126 19.0862
L58.6126 19.0257
" />
<path d="M58.6126 19.0257
L58.5522 18.9048
" />
<path d="M58.5522 18.9048
L58.4312 18.8443
" />
<path d="M58.4312 18.8443
L58.2498 18.8443
" />
<path d="M58.2498 18.8443
L58.1288 18.7838
" />
<path d="M58.1288 18.7838
L58.0684 18.6629
" />
<path d="M58.0684 18.6629
L58.0684 18.6024
" />
<path d="M58.0684 18.6024
L58.1288 18.4814
" />
<path d="M58.1288 18.4814
L58.2498 18.4210
" />
<path d="M58.2498 18.4210
L58.4312 18.4210
" />
<path d="M58.4312 18.4210
L58.5522 18.4814
" />
<path d="M60.0641 17.9372
L58.9755 19.5700
" />
<path d="M60.4270 19.2072
L60.5479 19.2676
" />
<path d="M60.5479 19.2676
L60.7898 19.2676
" />
<path d="M60.7898 19.2676
L60.9108 19.2072
" />
<path d="M60.9108 19.2072
L60.9712 19.0862
" />
<path d="M60.9712 19.0862
L60.9712 19.0257
" />
<path d="M60.9712 19.0257
L60.9108 18.9048
" />
<path d="M60.9108 18.9048
L60.7898 18.8443
" />
<path d="M60.7898 18.8443
L60.6084 18.8443
" />
<path d="M60.6084 18.8443
L60.4874 18.7838
" />
<path d="M60.4874 18.7838
L60.4270 18.6629
" />
<path d="M60.4270 18.6629
L60.4270 18.6024
" />
<path d="M60.4270 18.6024
L60.4874 18.4814
" />
<path d="M60.4874 18.4814
L60.6084 18.4210
" />
<path d="M60.6084 18.4210
L60.7898 18.4210
" />
<path d="M60.7898 18.4210
L60.9108 18.4814
" />
<path d="M61.3946 18.4210
L61.6970 19.2676
" />
<path d="M61.9993 18.4210
L61.6970 19.2676
" />
<path d="M61.6970 19.2676
L61.5760 19.5700
" />
<path d="M61.5760 19.5700
L61.5155 19.6305
" />
<path d="M61.5155 19.6305
L61.3946 19.6910
" />
<path d="M62.4831 19.2676
L62.4831 18.4210
" />
<path d="M62.4831 18.5419
L62.5436 18.4814
" />
<path d="M62.5436 18.4814
L62.6646 18.4210
" />
<path d="M62.6646 18.4210
L62.8460 18.4210
" />
<path d="M62.8460 18.4210
L62.9669 18.4814
" />
<path d="M62.9669 18.4814
L63.0274 18.6024
" />
<path d="M63.0274 18.6024
L63.0274 19.2676
" />
<path d="M63.0274 18.6024
L63.0879 18.4814
" />
<path d="M63.0879 18.4814
L63.2088 18.4210
" />
<path d="M63.2088 18.4210
L63.3903 18.4210
" />
<path d="M63.3903 18.4210
L63.5112 18.4814
" />
<path d="M63.5112 18.4814
L63.5717 18.6024
" />
<path d="M63.5717 18.6024
L63.5717 19.2676
" />
<path d="M64.3579 19.2676
L64.2369 19.2072
" />
<path d="M64.2369 19.2072
L64.1764 19.0862
" />
<path d="M64.1764 19.0862
L64.1764 17.9976
" />
<path d="M64.8416 19.2676
L64.8416 18.4210
" />
<path d="M64.8416 17.9976
L64.7812 18.0581
" />
<path d="M64.7812 18.0581
L64.8416 18.1186
" />
<path d="M64.8416 18.1186
L64.9021 18.0581
" />
<path d="M64.9021 18.0581
L64.8416 17.9976
" />
<path d="M64.8416 17.9976
L64.8416 18.1186
" />
<path d="M65.4464 18.4210
L65.4464 19.2676
" />
<path d="M65.4464 18.5419
L65.5069 18.4814
" />
<path d="M65.5069 18.4814
L65.6279 18.4210
" />
<path d="M65.6279 18.4210
L65.8093 18.4210
" />
<path d="M65.8093 18.4210
L65.9302 18.4814
" />
<path d="M65.9302 18.4814
L65.9907 18.6024
" />
<path d="M65.9907 18.6024
L65.9907 19.2676
" />
<path d="M66.5954 19.2676
L66.5954 17.9976
" />
<path d="M66.7164 18.7838
L67.0792 19.2676
" />
<path d="M67.0792 18.4210
L66.5954 18.9048
" />
<path d="M68.5307 17.9372
L67.4421 19.5700
" />
<path d="M68.7726 18.4210
L69.2564 18.4210
" />
<path d="M68.9540 17.9976
L68.9540 19.0862
" />
<path d="M68.9540 19.0862
L69.0145 19.2072
" />
<path d="M69.0145 19.2072
L69.1355 19.2676
" />
<path d="M69.1355 19.2676
L69.2564 19.2676
" />
<path d="M69.6797 18.4210
L69.6797 19.6910
" />
<path d="M69.6797 18.4814
L69.8007 18.4210
" />
<path d="M69.8007 18.4210
L70.0426 18.4210
" />
<path d="M70.0426 18.4210
L70.1635 18.4814
" />
<path d="M70.1635 18.4814
L70.2240 18.5419
" />
<path d="M70.2240 18.5419
L70.2845 18.6629
" />
<path d="M70.2845 18.6629
L70.2845 19.0257
" />
<path d="M70.2845 19.0257
L70.2240 19.1467
" />
<path d="M70.2240 19.1467
L70.1635 19.2072
" />
<path d="M70.1635 19.2072
L70.0426 19.2676
" />
<path d="M70.0426 19.2676
L69.8007 19.2676
" />
<path d="M69.8007 19.2676
L69.6797 19.2072
" />
<path d="M70.7683 19.2072
L70.8892 19.2676
" />
<path d="M70.8892 19.2676
L71.1311 19.2676
" />
<path d="M71.1311 19.2676
L71.2521 19.2072
" />
<path d="M71.2521 19.2072
L71.3125 19.0862
" />
<path d="M71.3125 19.0862
L71.3125 19.0257
" />
<path d="M71.3125 19.0257
L71.2521 18.9048
" />
<path d="M71.2521 18.9048
L71.1311 18.8443
" />
<path d="M71.1311 18.8443
L70.9497 18.8443
" />
<path d="M70.9497 18.8443
L70.8287 18.7838
" />
<path d="M70.8287 18.7838
L70.7683 18.6629
" />
<path d="M70.7683 18.6629
L70.7683 18.6024
" />
<path d="M70.7683 18.6024
L70.8287 18.4814
" />
<path d="M70.8287 18.4814
L70.9497 18.4210
" />
<path d="M70.9497 18.4210
L71.1311 18.4210
" />
<path d="M71.1311 18.4210
L71.2521 18.4814
" />
<path d="M71.7359 17.9976
L72.5825 17.9976
" />
<path d="M72.5825 17.9976
L72.0383 19.2676
" />
<path d="M73.3082 17.9976
L73.4292 17.9976
" />
<path d="M73.4292 17.9976
L73.5501 18.0581
" />
<path d="M73.5501 18.0581
L73.6106 18.1186
" />
<path d="M73.6106 18.1186
L73.6711 18.2395
" />
<path d="M73.6711 18.2395
L73.7316 18.4814
" />
<path d="M73.7316 18.4814
L73.7316 18.7838
" />
<path d="M73.7316 18.7838
L73.6711 19.0257
" />
<path d="M73.6711 19.0257
L73.6106 19.1467
" />
<path d="M73.6106 19.1467
L73.5501 19.2072
" />
<path d="M73.5501 19.2072
L73.4292 19.2676
" />
<path d="M73.4292 19.2676
L73.3082 19.2676
" />
<path d="M73.3082 19.2676
L73.1873 19.2072
" />
<path d="M73.1873 19.2072
L73.1268 19.1467
" />
<path d="M73.1268 19.1467
L73.0663 19.0257
" />
<path d="M73.0663 19.0257
L73.0059 18.7838
" />
<path d="M73.0059 18.7838
L73.0059 18.4814
" />
<path d="M73.0059 18.4814
L73.0663 18.2395
" />
<path d="M73.0663 18.2395
L73.1268 18.1186
" />
<path d="M73.1268 18.1186
L73.1873 18.0581
" />
<path d="M73.1873 18.0581
L73.3082 17.9976
" />
<path d="M74.1549 17.9976
L74.9411 17.9976
" />
<path d="M74.9411 17.9976
L74.5177 18.4814
" />
<path d="M74.5177 18.4814
L74.6992 18.4814
" />
<path d="M74.6992 18.4814
L74.8201 18.5419
" />
<path d="M74.8201 18.5419
L74.8806 18.6024
" />
<path d="M74.8806 18.6024
L74.9411 18.7233
" />
<path d="M74.9411 18.7233
L74.9411 19.0257
" />
<path d="M74.9411 19.0257
L74.8806 19.1467
" />
<path d="M74.8806 19.1467
L74.8201 19.2072
" />
<path d="M74.8201 19.2072
L74.6992 19.2676
" />
<path d="M74.6992 19.2676
L74.3363 19.2676
" />
<path d="M74.3363 19.2676
L74.2154 19.2072
" />
<path d="M74.2154 19.2072
L74.1549 19.1467
" />
<path d="M75.4853 19.1467
L75.5458 19.2072
" />
<path d="M75.5458 19.2072
L75.4853 19.2676
" />
<path d="M75.4853 19.2676
L75.4249 19.2072
" />
<path d="M75.4249 19.2072
L75.4853 19.1467
" />
<path d="M75.4853 19.1467
L75.4853 19.2676
" />
<path d="M76.0901 18.4210
L76.0901 19.6910
" />
<path d="M76.0901 18.4814
L76.2111 18.4210
" />
<path d="M76.2111 18.4210
L76.4530 18.4210
" />
<path d="M76.4530 18.4210
L76.5739 18.4814
" />
<path d="M76.5739 18.4814
L76.6344 18.5419
" />
<path d="M76.6344 18.5419
L76.6949 18.6629
" />
<path d="M76.6949 18.6629
L76.6949 19.0257
" />
<path d="M76.6949 19.0257
L76.6344 19.1467
" />
<path d="M76.6344 19.1467
L76.5739 19.2072
" />
<path d="M76.5739 19.2072
L76.4530 19.2676
" />
<path d="M76.4530 19.2676
L76.2111 19.2676
" />
<path d="M76.2111 19.2676
L76.0901 19.2072
" />
<path d="M77.7834 19.2676
L77.7834 17.9976
" />
<path d="M77.7834 19.2072
L77.6625 19.2676
" />
<path d="M77.6625 19.2676
L77.4206 19.2676
" />
<path d="M77.4206 19.2676
L77.2996 19.2072
" />
<path d="M77.2996 19.2072
L77.2391 19.1467
" />
<path d="M77.2391 19.1467
L77.1787 19.0257
" />
<path d="M77.1787 19.0257
L77.1787 18.6629
" />
<path d="M77.1787 18.6629
L77.2391 18.5419
" />
<path d="M77.2391 18.5419
L77.2996 18.4814
" />
<path d="M77.2996 18.4814
L77.4206 18.4210
" />
<path d="M77.4206 18.4210
L77.6625 18.4210
" />
<path d="M77.6625 18.4210
L77.7834 18.4814
" />
<path d="M78.2067 18.4210
L78.6905 18.4210
" />
<path d="M78.3881 19.2676
L78.3881 18.1791
" />
<path d="M78.3881 18.1791
L78.4486 18.0581
" />
<path d="M78.4486 18.0581
L78.5696 17.9976
" />
<path d="M78.5696 17.9976
L78.6905 17.9976
" />
</g></g> 
</svg>
