<?xml version="1.0" standalone="no"?>
 <!DOCTYPE svg PUBLIC "-//W3C//DTD SVG 1.1//EN" 
 "http://www.w3.org/Graphics/SVG/1.1/DTD/svg11.dtd"> 
<svg
  xmlns:svg="http://www.w3.org/2000/svg"
  xmlns="http://www.w3.org/2000/svg"
  xmlns:xlink="http://www.w3.org/1999/xlink"
  version="1.1"
  width="106.5022mm" height="37.5158mm" viewBox="0.0000 0.0000 106.5022 37.5158">
<title>SVG Image created as working.svg date 2023/08/10 10:05:38 </title>
  <desc>Image generated by Eeschema-SVG </desc>
<g style="fill:#000000; fill-opacity:1.0000;stroke:#000000; stroke-opacity:1.0000;
stroke-linecap:round; stroke-linejoin:round;"
 transform="translate(0 0) scale(1 1)">
</g>
<g style="fill:#840000; fill-opacity:0.0; 
stroke:#840000; stroke-width:0.0000; stroke-opacity:1; 
stroke-linecap:round; stroke-linejoin:round;">
</g>
<g style="fill:#840084; fill-opacity:0.0; 
stroke:#840084; stroke-width:0.0000; stroke-opacity:1; 
stroke-linecap:round; stroke-linejoin:round;">
</g>
<g style="fill:#840000; fill-opacity:0.0; 
stroke:#840000; stroke-width:0.0000; stroke-opacity:1; 
stroke-linecap:round; stroke-linejoin:round;">
</g>
<g style="fill:#840084; fill-opacity:0.0; 
stroke:#840084; stroke-width:0.0000; stroke-opacity:1; 
stroke-linecap:round; stroke-linejoin:round;">
</g>
<g style="fill:#006464; fill-opacity:0.0; 
stroke:#006464; stroke-width:0.0000; stroke-opacity:1; 
stroke-linecap:round; stroke-linejoin:round;">
</g>
<g style="fill:#006464; fill-opacity:0.0; 
stroke:#006464; stroke-width:0.1588; stroke-opacity:1; 
stroke-linecap:round; stroke-linejoin:round;">
<text x="55.7951" y="4.7819"
textLength="2.2786" font-size="1.6933" lengthAdjust="spacingAndGlyphs"
text-anchor="middle" opacity="0">J?</text>
<g class="stroked-text"><desc>J?</desc>
<path d="M55.4322 3.4561
L55.4322 4.3633
" />
<path d="M55.4322 4.3633
L55.3717 4.5447
" />
<path d="M55.3717 4.5447
L55.2508 4.6657
" />
<path d="M55.2508 4.6657
L55.0693 4.7261
" />
<path d="M55.0693 4.7261
L54.9484 4.7261
" />
<path d="M56.2184 4.6052
L56.2788 4.6657
" />
<path d="M56.2788 4.6657
L56.2184 4.7261
" />
<path d="M56.2184 4.7261
L56.1579 4.6657
" />
<path d="M56.1579 4.6657
L56.2184 4.6052
" />
<path d="M56.2184 4.6052
L56.2184 4.7261
" />
<path d="M55.9765 3.5166
L56.0974 3.4561
" />
<path d="M56.0974 3.4561
L56.3998 3.4561
" />
<path d="M56.3998 3.4561
L56.5207 3.5166
" />
<path d="M56.5207 3.5166
L56.5812 3.6376
" />
<path d="M56.5812 3.6376
L56.5812 3.7585
" />
<path d="M56.5812 3.7585
L56.5207 3.8795
" />
<path d="M56.5207 3.8795
L56.4603 3.9399
" />
<path d="M56.4603 3.9399
L56.3393 4.0004
" />
<path d="M56.3393 4.0004
L56.2788 4.0609
" />
<path d="M56.2788 4.0609
L56.2184 4.1818
" />
<path d="M56.2184 4.1818
L56.2184 4.2423
" />
</g><text x="55.7951" y="7.3219"
textLength="38.4428" font-size="1.6933" lengthAdjust="spacingAndGlyphs"
text-anchor="middle" opacity="0">Conn_ARM_SWD_TagConnect_TC2030-NL</text>
<g class="stroked-text"><desc>Conn_ARM_SWD_TagConnect_TC2030-NL</desc>
<path d="M37.7129 7.1452
L37.6525 7.2057
" />
<path d="M37.6525 7.2057
L37.4710 7.2661
" />
<path d="M37.4710 7.2661
L37.3501 7.2661
" />
<path d="M37.3501 7.2661
L37.1687 7.2057
" />
<path d="M37.1687 7.2057
L37.0477 7.0847
" />
<path d="M37.0477 7.0847
L36.9872 6.9637
" />
<path d="M36.9872 6.9637
L36.9268 6.7218
" />
<path d="M36.9268 6.7218
L36.9268 6.5404
" />
<path d="M36.9268 6.5404
L36.9872 6.2985
" />
<path d="M36.9872 6.2985
L37.0477 6.1776
" />
<path d="M37.0477 6.1776
L37.1687 6.0566
" />
<path d="M37.1687 6.0566
L37.3501 5.9961
" />
<path d="M37.3501 5.9961
L37.4710 5.9961
" />
<path d="M37.4710 5.9961
L37.6525 6.0566
" />
<path d="M37.6525 6.0566
L37.7129 6.1171
" />
<path d="M38.4387 7.2661
L38.3177 7.2057
" />
<path d="M38.3177 7.2057
L38.2572 7.1452
" />
<path d="M38.2572 7.1452
L38.1968 7.0242
" />
<path d="M38.1968 7.0242
L38.1968 6.6614
" />
<path d="M38.1968 6.6614
L38.2572 6.5404
" />
<path d="M38.2572 6.5404
L38.3177 6.4799
" />
<path d="M38.3177 6.4799
L38.4387 6.4195
" />
<path d="M38.4387 6.4195
L38.6201 6.4195
" />
<path d="M38.6201 6.4195
L38.7410 6.4799
" />
<path d="M38.7410 6.4799
L38.8015 6.5404
" />
<path d="M38.8015 6.5404
L38.8620 6.6614
" />
<path d="M38.8620 6.6614
L38.8620 7.0242
" />
<path d="M38.8620 7.0242
L38.8015 7.1452
" />
<path d="M38.8015 7.1452
L38.7410 7.2057
" />
<path d="M38.7410 7.2057
L38.6201 7.2661
" />
<path d="M38.6201 7.2661
L38.4387 7.2661
" />
<path d="M39.4062 6.4195
L39.4062 7.2661
" />
<path d="M39.4062 6.5404
L39.4667 6.4799
" />
<path d="M39.4667 6.4799
L39.5877 6.4195
" />
<path d="M39.5877 6.4195
L39.7691 6.4195
" />
<path d="M39.7691 6.4195
L39.8900 6.4799
" />
<path d="M39.8900 6.4799
L39.9505 6.6009
" />
<path d="M39.9505 6.6009
L39.9505 7.2661
" />
<path d="M40.5552 6.4195
L40.5552 7.2661
" />
<path d="M40.5552 6.5404
L40.6157 6.4799
" />
<path d="M40.6157 6.4799
L40.7367 6.4195
" />
<path d="M40.7367 6.4195
L40.9181 6.4195
" />
<path d="M40.9181 6.4195
L41.0390 6.4799
" />
<path d="M41.0390 6.4799
L41.0995 6.6009
" />
<path d="M41.0995 6.6009
L41.0995 7.2661
" />
<path d="M41.4019 7.3871
L42.3695 7.3871
" />
<path d="M42.6114 6.9033
L43.2161 6.9033
" />
<path d="M42.4904 7.2661
L42.9137 5.9961
" />
<path d="M42.9137 5.9961
L43.3371 7.2661
" />
<path d="M44.4861 7.2661
L44.0628 6.6614
" />
<path d="M43.7604 7.2661
L43.7604 5.9961
" />
<path d="M43.7604 5.9961
L44.2442 5.9961
" />
<path d="M44.2442 5.9961
L44.3652 6.0566
" />
<path d="M44.3652 6.0566
L44.4257 6.1171
" />
<path d="M44.4257 6.1171
L44.4861 6.2380
" />
<path d="M44.4861 6.2380
L44.4861 6.4195
" />
<path d="M44.4861 6.4195
L44.4257 6.5404
" />
<path d="M44.4257 6.5404
L44.3652 6.6009
" />
<path d="M44.3652 6.6009
L44.2442 6.6614
" />
<path d="M44.2442 6.6614
L43.7604 6.6614
" />
<path d="M45.0304 7.2661
L45.0304 5.9961
" />
<path d="M45.0304 5.9961
L45.4538 6.9033
" />
<path d="M45.4538 6.9033
L45.8771 5.9961
" />
<path d="M45.8771 5.9961
L45.8771 7.2661
" />
<path d="M46.1795 7.3871
L47.1471 7.3871
" />
<path d="M47.3890 7.2057
L47.5704 7.2661
" />
<path d="M47.5704 7.2661
L47.8728 7.2661
" />
<path d="M47.8728 7.2661
L47.9937 7.2057
" />
<path d="M47.9937 7.2057
L48.0542 7.1452
" />
<path d="M48.0542 7.1452
L48.1147 7.0242
" />
<path d="M48.1147 7.0242
L48.1147 6.9033
" />
<path d="M48.1147 6.9033
L48.0542 6.7823
" />
<path d="M48.0542 6.7823
L47.9937 6.7218
" />
<path d="M47.9937 6.7218
L47.8728 6.6614
" />
<path d="M47.8728 6.6614
L47.6309 6.6009
" />
<path d="M47.6309 6.6009
L47.5099 6.5404
" />
<path d="M47.5099 6.5404
L47.4494 6.4799
" />
<path d="M47.4494 6.4799
L47.3890 6.3590
" />
<path d="M47.3890 6.3590
L47.3890 6.2380
" />
<path d="M47.3890 6.2380
L47.4494 6.1171
" />
<path d="M47.4494 6.1171
L47.5099 6.0566
" />
<path d="M47.5099 6.0566
L47.6309 5.9961
" />
<path d="M47.6309 5.9961
L47.9332 5.9961
" />
<path d="M47.9332 5.9961
L48.1147 6.0566
" />
<path d="M48.5380 5.9961
L48.8404 7.2661
" />
<path d="M48.8404 7.2661
L49.0823 6.3590
" />
<path d="M49.0823 6.3590
L49.3242 7.2661
" />
<path d="M49.3242 7.2661
L49.6266 5.9961
" />
<path d="M50.1103 7.2661
L50.1103 5.9961
" />
<path d="M50.1103 5.9961
L50.4127 5.9961
" />
<path d="M50.4127 5.9961
L50.5941 6.0566
" />
<path d="M50.5941 6.0566
L50.7151 6.1776
" />
<path d="M50.7151 6.1776
L50.7756 6.2985
" />
<path d="M50.7756 6.2985
L50.8360 6.5404
" />
<path d="M50.8360 6.5404
L50.8360 6.7218
" />
<path d="M50.8360 6.7218
L50.7756 6.9637
" />
<path d="M50.7756 6.9637
L50.7151 7.0847
" />
<path d="M50.7151 7.0847
L50.5941 7.2057
" />
<path d="M50.5941 7.2057
L50.4127 7.2661
" />
<path d="M50.4127 7.2661
L50.1103 7.2661
" />
<path d="M51.0780 7.3871
L52.0456 7.3871
" />
<path d="M52.1665 5.9961
L52.8922 5.9961
" />
<path d="M52.5294 7.2661
L52.5294 5.9961
" />
<path d="M53.8598 7.2661
L53.8598 6.6009
" />
<path d="M53.8598 6.6009
L53.7993 6.4799
" />
<path d="M53.7993 6.4799
L53.6784 6.4195
" />
<path d="M53.6784 6.4195
L53.4365 6.4195
" />
<path d="M53.4365 6.4195
L53.3155 6.4799
" />
<path d="M53.8598 7.2057
L53.7389 7.2661
" />
<path d="M53.7389 7.2661
L53.4365 7.2661
" />
<path d="M53.4365 7.2661
L53.3155 7.2057
" />
<path d="M53.3155 7.2057
L53.2551 7.0847
" />
<path d="M53.2551 7.0847
L53.2551 6.9637
" />
<path d="M53.2551 6.9637
L53.3155 6.8428
" />
<path d="M53.3155 6.8428
L53.4365 6.7823
" />
<path d="M53.4365 6.7823
L53.7389 6.7823
" />
<path d="M53.7389 6.7823
L53.8598 6.7218
" />
<path d="M55.0088 6.4195
L55.0088 7.4476
" />
<path d="M55.0088 7.4476
L54.9483 7.5685
" />
<path d="M54.9483 7.5685
L54.8879 7.6290
" />
<path d="M54.8879 7.6290
L54.7669 7.6895
" />
<path d="M54.7669 7.6895
L54.5855 7.6895
" />
<path d="M54.5855 7.6895
L54.4645 7.6290
" />
<path d="M55.0088 7.2057
L54.8879 7.2661
" />
<path d="M54.8879 7.2661
L54.6460 7.2661
" />
<path d="M54.6460 7.2661
L54.5250 7.2057
" />
<path d="M54.5250 7.2057
L54.4645 7.1452
" />
<path d="M54.4645 7.1452
L54.4041 7.0242
" />
<path d="M54.4041 7.0242
L54.4041 6.6614
" />
<path d="M54.4041 6.6614
L54.4645 6.5404
" />
<path d="M54.4645 6.5404
L54.5250 6.4799
" />
<path d="M54.5250 6.4799
L54.6460 6.4195
" />
<path d="M54.6460 6.4195
L54.8879 6.4195
" />
<path d="M54.8879 6.4195
L55.0088 6.4799
" />
<path d="M56.3392 7.1452
L56.2788 7.2057
" />
<path d="M56.2788 7.2057
L56.0973 7.2661
" />
<path d="M56.0973 7.2661
L55.9764 7.2661
" />
<path d="M55.9764 7.2661
L55.7950 7.2057
" />
<path d="M55.7950 7.2057
L55.6740 7.0847
" />
<path d="M55.6740 7.0847
L55.6135 6.9637
" />
<path d="M55.6135 6.9637
L55.5531 6.7218
" />
<path d="M55.5531 6.7218
L55.5531 6.5404
" />
<path d="M55.5531 6.5404
L55.6135 6.2985
" />
<path d="M55.6135 6.2985
L55.6740 6.1776
" />
<path d="M55.6740 6.1776
L55.7950 6.0566
" />
<path d="M55.7950 6.0566
L55.9764 5.9961
" />
<path d="M55.9764 5.9961
L56.0973 5.9961
" />
<path d="M56.0973 5.9961
L56.2788 6.0566
" />
<path d="M56.2788 6.0566
L56.3392 6.1171
" />
<path d="M57.0650 7.2661
L56.9440 7.2057
" />
<path d="M56.9440 7.2057
L56.8835 7.1452
" />
<path d="M56.8835 7.1452
L56.8231 7.0242
" />
<path d="M56.8231 7.0242
L56.8231 6.6614
" />
<path d="M56.8231 6.6614
L56.8835 6.5404
" />
<path d="M56.8835 6.5404
L56.9440 6.4799
" />
<path d="M56.9440 6.4799
L57.0650 6.4195
" />
<path d="M57.0650 6.4195
L57.2464 6.4195
" />
<path d="M57.2464 6.4195
L57.3673 6.4799
" />
<path d="M57.3673 6.4799
L57.4278 6.5404
" />
<path d="M57.4278 6.5404
L57.4883 6.6614
" />
<path d="M57.4883 6.6614
L57.4883 7.0242
" />
<path d="M57.4883 7.0242
L57.4278 7.1452
" />
<path d="M57.4278 7.1452
L57.3673 7.2057
" />
<path d="M57.3673 7.2057
L57.2464 7.2661
" />
<path d="M57.2464 7.2661
L57.0650 7.2661
" />
<path d="M58.0325 6.4195
L58.0325 7.2661
" />
<path d="M58.0325 6.5404
L58.0930 6.4799
" />
<path d="M58.0930 6.4799
L58.2140 6.4195
" />
<path d="M58.2140 6.4195
L58.3954 6.4195
" />
<path d="M58.3954 6.4195
L58.5163 6.4799
" />
<path d="M58.5163 6.4799
L58.5768 6.6009
" />
<path d="M58.5768 6.6009
L58.5768 7.2661
" />
<path d="M59.1815 6.4195
L59.1815 7.2661
" />
<path d="M59.1815 6.5404
L59.2420 6.4799
" />
<path d="M59.2420 6.4799
L59.3630 6.4195
" />
<path d="M59.3630 6.4195
L59.5444 6.4195
" />
<path d="M59.5444 6.4195
L59.6653 6.4799
" />
<path d="M59.6653 6.4799
L59.7258 6.6009
" />
<path d="M59.7258 6.6009
L59.7258 7.2661
" />
<path d="M60.8143 7.2057
L60.6934 7.2661
" />
<path d="M60.6934 7.2661
L60.4515 7.2661
" />
<path d="M60.4515 7.2661
L60.3305 7.2057
" />
<path d="M60.3305 7.2057
L60.2701 7.0847
" />
<path d="M60.2701 7.0847
L60.2701 6.6009
" />
<path d="M60.2701 6.6009
L60.3305 6.4799
" />
<path d="M60.3305 6.4799
L60.4515 6.4195
" />
<path d="M60.4515 6.4195
L60.6934 6.4195
" />
<path d="M60.6934 6.4195
L60.8143 6.4799
" />
<path d="M60.8143 6.4799
L60.8748 6.6009
" />
<path d="M60.8748 6.6009
L60.8748 6.7218
" />
<path d="M60.8748 6.7218
L60.2701 6.8428
" />
<path d="M61.9634 7.2057
L61.8425 7.2661
" />
<path d="M61.8425 7.2661
L61.6006 7.2661
" />
<path d="M61.6006 7.2661
L61.4796 7.2057
" />
<path d="M61.4796 7.2057
L61.4191 7.1452
" />
<path d="M61.4191 7.1452
L61.3587 7.0242
" />
<path d="M61.3587 7.0242
L61.3587 6.6614
" />
<path d="M61.3587 6.6614
L61.4191 6.5404
" />
<path d="M61.4191 6.5404
L61.4796 6.4799
" />
<path d="M61.4796 6.4799
L61.6006 6.4195
" />
<path d="M61.6006 6.4195
L61.8425 6.4195
" />
<path d="M61.8425 6.4195
L61.9634 6.4799
" />
<path d="M62.3263 6.4195
L62.8101 6.4195
" />
<path d="M62.5077 5.9961
L62.5077 7.0847
" />
<path d="M62.5077 7.0847
L62.5682 7.2057
" />
<path d="M62.5682 7.2057
L62.6892 7.2661
" />
<path d="M62.6892 7.2661
L62.8101 7.2661
" />
<path d="M62.9311 7.3871
L63.8987 7.3871
" />
<path d="M64.0196 5.9961
L64.7453 5.9961
" />
<path d="M64.3825 7.2661
L64.3825 5.9961
" />
<path d="M65.8943 7.1452
L65.8339 7.2057
" />
<path d="M65.8339 7.2057
L65.6524 7.2661
" />
<path d="M65.6524 7.2661
L65.5315 7.2661
" />
<path d="M65.5315 7.2661
L65.3501 7.2057
" />
<path d="M65.3501 7.2057
L65.2291 7.0847
" />
<path d="M65.2291 7.0847
L65.1686 6.9637
" />
<path d="M65.1686 6.9637
L65.1082 6.7218
" />
<path d="M65.1082 6.7218
L65.1082 6.5404
" />
<path d="M65.1082 6.5404
L65.1686 6.2985
" />
<path d="M65.1686 6.2985
L65.2291 6.1776
" />
<path d="M65.2291 6.1776
L65.3501 6.0566
" />
<path d="M65.3501 6.0566
L65.5315 5.9961
" />
<path d="M65.5315 5.9961
L65.6524 5.9961
" />
<path d="M65.6524 5.9961
L65.8339 6.0566
" />
<path d="M65.8339 6.0566
L65.8943 6.1171
" />
<path d="M66.3782 6.1171
L66.4386 6.0566
" />
<path d="M66.4386 6.0566
L66.5596 5.9961
" />
<path d="M66.5596 5.9961
L66.8620 5.9961
" />
<path d="M66.8620 5.9961
L66.9829 6.0566
" />
<path d="M66.9829 6.0566
L67.0434 6.1171
" />
<path d="M67.0434 6.1171
L67.1039 6.2380
" />
<path d="M67.1039 6.2380
L67.1039 6.3590
" />
<path d="M67.1039 6.3590
L67.0434 6.5404
" />
<path d="M67.0434 6.5404
L66.3177 7.2661
" />
<path d="M66.3177 7.2661
L67.1039 7.2661
" />
<path d="M67.8900 5.9961
L68.0110 5.9961
" />
<path d="M68.0110 5.9961
L68.1319 6.0566
" />
<path d="M68.1319 6.0566
L68.1924 6.1171
" />
<path d="M68.1924 6.1171
L68.2529 6.2380
" />
<path d="M68.2529 6.2380
L68.3134 6.4799
" />
<path d="M68.3134 6.4799
L68.3134 6.7823
" />
<path d="M68.3134 6.7823
L68.2529 7.0242
" />
<path d="M68.2529 7.0242
L68.1924 7.1452
" />
<path d="M68.1924 7.1452
L68.1319 7.2057
" />
<path d="M68.1319 7.2057
L68.0110 7.2661
" />
<path d="M68.0110 7.2661
L67.8900 7.2661
" />
<path d="M67.8900 7.2661
L67.7691 7.2057
" />
<path d="M67.7691 7.2057
L67.7086 7.1452
" />
<path d="M67.7086 7.1452
L67.6481 7.0242
" />
<path d="M67.6481 7.0242
L67.5877 6.7823
" />
<path d="M67.5877 6.7823
L67.5877 6.4799
" />
<path d="M67.5877 6.4799
L67.6481 6.2380
" />
<path d="M67.6481 6.2380
L67.7086 6.1171
" />
<path d="M67.7086 6.1171
L67.7691 6.0566
" />
<path d="M67.7691 6.0566
L67.8900 5.9961
" />
<path d="M68.7367 5.9961
L69.5229 5.9961
" />
<path d="M69.5229 5.9961
L69.0995 6.4799
" />
<path d="M69.0995 6.4799
L69.2810 6.4799
" />
<path d="M69.2810 6.4799
L69.4019 6.5404
" />
<path d="M69.4019 6.5404
L69.4624 6.6009
" />
<path d="M69.4624 6.6009
L69.5229 6.7218
" />
<path d="M69.5229 6.7218
L69.5229 7.0242
" />
<path d="M69.5229 7.0242
L69.4624 7.1452
" />
<path d="M69.4624 7.1452
L69.4019 7.2057
" />
<path d="M69.4019 7.2057
L69.2810 7.2661
" />
<path d="M69.2810 7.2661
L68.9181 7.2661
" />
<path d="M68.9181 7.2661
L68.7972 7.2057
" />
<path d="M68.7972 7.2057
L68.7367 7.1452
" />
<path d="M70.3090 5.9961
L70.4300 5.9961
" />
<path d="M70.4300 5.9961
L70.5509 6.0566
" />
<path d="M70.5509 6.0566
L70.6114 6.1171
" />
<path d="M70.6114 6.1171
L70.6719 6.2380
" />
<path d="M70.6719 6.2380
L70.7324 6.4799
" />
<path d="M70.7324 6.4799
L70.7324 6.7823
" />
<path d="M70.7324 6.7823
L70.6719 7.0242
" />
<path d="M70.6719 7.0242
L70.6114 7.1452
" />
<path d="M70.6114 7.1452
L70.5509 7.2057
" />
<path d="M70.5509 7.2057
L70.4300 7.2661
" />
<path d="M70.4300 7.2661
L70.3090 7.2661
" />
<path d="M70.3090 7.2661
L70.1881 7.2057
" />
<path d="M70.1881 7.2057
L70.1276 7.1452
" />
<path d="M70.1276 7.1452
L70.0671 7.0242
" />
<path d="M70.0671 7.0242
L70.0067 6.7823
" />
<path d="M70.0067 6.7823
L70.0067 6.4799
" />
<path d="M70.0067 6.4799
L70.0671 6.2380
" />
<path d="M70.0671 6.2380
L70.1276 6.1171
" />
<path d="M70.1276 6.1171
L70.1881 6.0566
" />
<path d="M70.1881 6.0566
L70.3090 5.9961
" />
<path d="M71.2766 6.7823
L72.2443 6.7823
" />
<path d="M72.8490 7.2661
L72.8490 5.9961
" />
<path d="M72.8490 5.9961
L73.5747 7.2661
" />
<path d="M73.5747 7.2661
L73.5747 5.9961
" />
<path d="M74.7843 7.2661
L74.1795 7.2661
" />
<path d="M74.1795 7.2661
L74.1795 5.9961
" />
</g></g>
<g style="fill:#840084; fill-opacity:0.0; 
stroke:#840084; stroke-width:0.1588; stroke-opacity:1; 
stroke-linecap:round; stroke-linejoin:round;">
<text x="53.2551" y="33.9919"
textLength="63.1776" font-size="1.6933" lengthAdjust="spacingAndGlyphs"
text-anchor="middle" opacity="0">Connector:Tag-Connect_TC2030-IDC-NL_2x03_P1.27mm_Vertical</text>
<g class="stroked-text"><desc>Connector:Tag-Connect_TC2030-IDC-NL_2x03_P1.27mm_Vertical</desc>
<path d="M22.8055 33.8152
L22.7451 33.8757
" />
<path d="M22.7451 33.8757
L22.5636 33.9361
" />
<path d="M22.5636 33.9361
L22.4427 33.9361
" />
<path d="M22.4427 33.9361
L22.2613 33.8757
" />
<path d="M22.2613 33.8757
L22.1403 33.7547
" />
<path d="M22.1403 33.7547
L22.0798 33.6337
" />
<path d="M22.0798 33.6337
L22.0194 33.3918
" />
<path d="M22.0194 33.3918
L22.0194 33.2104
" />
<path d="M22.0194 33.2104
L22.0798 32.9685
" />
<path d="M22.0798 32.9685
L22.1403 32.8476
" />
<path d="M22.1403 32.8476
L22.2613 32.7266
" />
<path d="M22.2613 32.7266
L22.4427 32.6661
" />
<path d="M22.4427 32.6661
L22.5636 32.6661
" />
<path d="M22.5636 32.6661
L22.7451 32.7266
" />
<path d="M22.7451 32.7266
L22.8055 32.7871
" />
<path d="M23.5313 33.9361
L23.4103 33.8757
" />
<path d="M23.4103 33.8757
L23.3498 33.8152
" />
<path d="M23.3498 33.8152
L23.2894 33.6942
" />
<path d="M23.2894 33.6942
L23.2894 33.3314
" />
<path d="M23.2894 33.3314
L23.3498 33.2104
" />
<path d="M23.3498 33.2104
L23.4103 33.1499
" />
<path d="M23.4103 33.1499
L23.5313 33.0895
" />
<path d="M23.5313 33.0895
L23.7127 33.0895
" />
<path d="M23.7127 33.0895
L23.8336 33.1499
" />
<path d="M23.8336 33.1499
L23.8941 33.2104
" />
<path d="M23.8941 33.2104
L23.9546 33.3314
" />
<path d="M23.9546 33.3314
L23.9546 33.6942
" />
<path d="M23.9546 33.6942
L23.8941 33.8152
" />
<path d="M23.8941 33.8152
L23.8336 33.8757
" />
<path d="M23.8336 33.8757
L23.7127 33.9361
" />
<path d="M23.7127 33.9361
L23.5313 33.9361
" />
<path d="M24.4988 33.0895
L24.4988 33.9361
" />
<path d="M24.4988 33.2104
L24.5593 33.1499
" />
<path d="M24.5593 33.1499
L24.6803 33.0895
" />
<path d="M24.6803 33.0895
L24.8617 33.0895
" />
<path d="M24.8617 33.0895
L24.9826 33.1499
" />
<path d="M24.9826 33.1499
L25.0431 33.2709
" />
<path d="M25.0431 33.2709
L25.0431 33.9361
" />
<path d="M25.6478 33.0895
L25.6478 33.9361
" />
<path d="M25.6478 33.2104
L25.7083 33.1499
" />
<path d="M25.7083 33.1499
L25.8293 33.0895
" />
<path d="M25.8293 33.0895
L26.0107 33.0895
" />
<path d="M26.0107 33.0895
L26.1316 33.1499
" />
<path d="M26.1316 33.1499
L26.1921 33.2709
" />
<path d="M26.1921 33.2709
L26.1921 33.9361
" />
<path d="M27.2806 33.8757
L27.1597 33.9361
" />
<path d="M27.1597 33.9361
L26.9178 33.9361
" />
<path d="M26.9178 33.9361
L26.7968 33.8757
" />
<path d="M26.7968 33.8757
L26.7364 33.7547
" />
<path d="M26.7364 33.7547
L26.7364 33.2709
" />
<path d="M26.7364 33.2709
L26.7968 33.1499
" />
<path d="M26.7968 33.1499
L26.9178 33.0895
" />
<path d="M26.9178 33.0895
L27.1597 33.0895
" />
<path d="M27.1597 33.0895
L27.2806 33.1499
" />
<path d="M27.2806 33.1499
L27.3411 33.2709
" />
<path d="M27.3411 33.2709
L27.3411 33.3918
" />
<path d="M27.3411 33.3918
L26.7364 33.5128
" />
<path d="M28.4297 33.8757
L28.3088 33.9361
" />
<path d="M28.3088 33.9361
L28.0669 33.9361
" />
<path d="M28.0669 33.9361
L27.9459 33.8757
" />
<path d="M27.9459 33.8757
L27.8854 33.8152
" />
<path d="M27.8854 33.8152
L27.8250 33.6942
" />
<path d="M27.8250 33.6942
L27.8250 33.3314
" />
<path d="M27.8250 33.3314
L27.8854 33.2104
" />
<path d="M27.8854 33.2104
L27.9459 33.1499
" />
<path d="M27.9459 33.1499
L28.0669 33.0895
" />
<path d="M28.0669 33.0895
L28.3088 33.0895
" />
<path d="M28.3088 33.0895
L28.4297 33.1499
" />
<path d="M28.7926 33.0895
L29.2764 33.0895
" />
<path d="M28.9740 32.6661
L28.9740 33.7547
" />
<path d="M28.9740 33.7547
L29.0345 33.8757
" />
<path d="M29.0345 33.8757
L29.1555 33.9361
" />
<path d="M29.1555 33.9361
L29.2764 33.9361
" />
<path d="M29.8812 33.9361
L29.7602 33.8757
" />
<path d="M29.7602 33.8757
L29.6997 33.8152
" />
<path d="M29.6997 33.8152
L29.6393 33.6942
" />
<path d="M29.6393 33.6942
L29.6393 33.3314
" />
<path d="M29.6393 33.3314
L29.6997 33.2104
" />
<path d="M29.6997 33.2104
L29.7602 33.1499
" />
<path d="M29.7602 33.1499
L29.8812 33.0895
" />
<path d="M29.8812 33.0895
L30.0626 33.0895
" />
<path d="M30.0626 33.0895
L30.1835 33.1499
" />
<path d="M30.1835 33.1499
L30.2440 33.2104
" />
<path d="M30.2440 33.2104
L30.3045 33.3314
" />
<path d="M30.3045 33.3314
L30.3045 33.6942
" />
<path d="M30.3045 33.6942
L30.2440 33.8152
" />
<path d="M30.2440 33.8152
L30.1835 33.8757
" />
<path d="M30.1835 33.8757
L30.0626 33.9361
" />
<path d="M30.0626 33.9361
L29.8812 33.9361
" />
<path d="M30.8487 33.9361
L30.8487 33.0895
" />
<path d="M30.8487 33.3314
L30.9092 33.2104
" />
<path d="M30.9092 33.2104
L30.9697 33.1499
" />
<path d="M30.9697 33.1499
L31.0906 33.0895
" />
<path d="M31.0906 33.0895
L31.2116 33.0895
" />
<path d="M31.6349 33.8152
L31.6954 33.8757
" />
<path d="M31.6954 33.8757
L31.6349 33.9361
" />
<path d="M31.6349 33.9361
L31.5745 33.8757
" />
<path d="M31.5745 33.8757
L31.6349 33.8152
" />
<path d="M31.6349 33.8152
L31.6349 33.9361
" />
<path d="M31.6349 33.1499
L31.6954 33.2104
" />
<path d="M31.6954 33.2104
L31.6349 33.2709
" />
<path d="M31.6349 33.2709
L31.5745 33.2104
" />
<path d="M31.5745 33.2104
L31.6349 33.1499
" />
<path d="M31.6349 33.1499
L31.6349 33.2709
" />
<path d="M32.0583 32.6661
L32.7840 32.6661
" />
<path d="M32.4212 33.9361
L32.4212 32.6661
" />
<path d="M33.7516 33.9361
L33.7516 33.2709
" />
<path d="M33.7516 33.2709
L33.6911 33.1499
" />
<path d="M33.6911 33.1499
L33.5702 33.0895
" />
<path d="M33.5702 33.0895
L33.3283 33.0895
" />
<path d="M33.3283 33.0895
L33.2073 33.1499
" />
<path d="M33.7516 33.8757
L33.6307 33.9361
" />
<path d="M33.6307 33.9361
L33.3283 33.9361
" />
<path d="M33.3283 33.9361
L33.2073 33.8757
" />
<path d="M33.2073 33.8757
L33.1469 33.7547
" />
<path d="M33.1469 33.7547
L33.1469 33.6337
" />
<path d="M33.1469 33.6337
L33.2073 33.5128
" />
<path d="M33.2073 33.5128
L33.3283 33.4523
" />
<path d="M33.3283 33.4523
L33.6307 33.4523
" />
<path d="M33.6307 33.4523
L33.7516 33.3918
" />
<path d="M34.9006 33.0895
L34.9006 34.1176
" />
<path d="M34.9006 34.1176
L34.8401 34.2385
" />
<path d="M34.8401 34.2385
L34.7797 34.2990
" />
<path d="M34.7797 34.2990
L34.6587 34.3595
" />
<path d="M34.6587 34.3595
L34.4773 34.3595
" />
<path d="M34.4773 34.3595
L34.3563 34.2990
" />
<path d="M34.9006 33.8757
L34.7797 33.9361
" />
<path d="M34.7797 33.9361
L34.5378 33.9361
" />
<path d="M34.5378 33.9361
L34.4168 33.8757
" />
<path d="M34.4168 33.8757
L34.3563 33.8152
" />
<path d="M34.3563 33.8152
L34.2959 33.6942
" />
<path d="M34.2959 33.6942
L34.2959 33.3314
" />
<path d="M34.2959 33.3314
L34.3563 33.2104
" />
<path d="M34.3563 33.2104
L34.4168 33.1499
" />
<path d="M34.4168 33.1499
L34.5378 33.0895
" />
<path d="M34.5378 33.0895
L34.7797 33.0895
" />
<path d="M34.7797 33.0895
L34.9006 33.1499
" />
<path d="M35.5053 33.4523
L36.4730 33.4523
" />
<path d="M37.8034 33.8152
L37.7430 33.8757
" />
<path d="M37.7430 33.8757
L37.5615 33.9361
" />
<path d="M37.5615 33.9361
L37.4406 33.9361
" />
<path d="M37.4406 33.9361
L37.2592 33.8757
" />
<path d="M37.2592 33.8757
L37.1382 33.7547
" />
<path d="M37.1382 33.7547
L37.0777 33.6337
" />
<path d="M37.0777 33.6337
L37.0173 33.3918
" />
<path d="M37.0173 33.3918
L37.0173 33.2104
" />
<path d="M37.0173 33.2104
L37.0777 32.9685
" />
<path d="M37.0777 32.9685
L37.1382 32.8476
" />
<path d="M37.1382 32.8476
L37.2592 32.7266
" />
<path d="M37.2592 32.7266
L37.4406 32.6661
" />
<path d="M37.4406 32.6661
L37.5615 32.6661
" />
<path d="M37.5615 32.6661
L37.7430 32.7266
" />
<path d="M37.7430 32.7266
L37.8034 32.7871
" />
<path d="M38.5292 33.9361
L38.4082 33.8757
" />
<path d="M38.4082 33.8757
L38.3477 33.8152
" />
<path d="M38.3477 33.8152
L38.2873 33.6942
" />
<path d="M38.2873 33.6942
L38.2873 33.3314
" />
<path d="M38.2873 33.3314
L38.3477 33.2104
" />
<path d="M38.3477 33.2104
L38.4082 33.1499
" />
<path d="M38.4082 33.1499
L38.5292 33.0895
" />
<path d="M38.5292 33.0895
L38.7106 33.0895
" />
<path d="M38.7106 33.0895
L38.8315 33.1499
" />
<path d="M38.8315 33.1499
L38.8920 33.2104
" />
<path d="M38.8920 33.2104
L38.9525 33.3314
" />
<path d="M38.9525 33.3314
L38.9525 33.6942
" />
<path d="M38.9525 33.6942
L38.8920 33.8152
" />
<path d="M38.8920 33.8152
L38.8315 33.8757
" />
<path d="M38.8315 33.8757
L38.7106 33.9361
" />
<path d="M38.7106 33.9361
L38.5292 33.9361
" />
<path d="M39.4967 33.0895
L39.4967 33.9361
" />
<path d="M39.4967 33.2104
L39.5572 33.1499
" />
<path d="M39.5572 33.1499
L39.6782 33.0895
" />
<path d="M39.6782 33.0895
L39.8596 33.0895
" />
<path d="M39.8596 33.0895
L39.9805 33.1499
" />
<path d="M39.9805 33.1499
L40.0410 33.2709
" />
<path d="M40.0410 33.2709
L40.0410 33.9361
" />
<path d="M40.6457 33.0895
L40.6457 33.9361
" />
<path d="M40.6457 33.2104
L40.7062 33.1499
" />
<path d="M40.7062 33.1499
L40.8272 33.0895
" />
<path d="M40.8272 33.0895
L41.0086 33.0895
" />
<path d="M41.0086 33.0895
L41.1295 33.1499
" />
<path d="M41.1295 33.1499
L41.1900 33.2709
" />
<path d="M41.1900 33.2709
L41.1900 33.9361
" />
<path d="M42.2785 33.8757
L42.1576 33.9361
" />
<path d="M42.1576 33.9361
L41.9157 33.9361
" />
<path d="M41.9157 33.9361
L41.7947 33.8757
" />
<path d="M41.7947 33.8757
L41.7343 33.7547
" />
<path d="M41.7343 33.7547
L41.7343 33.2709
" />
<path d="M41.7343 33.2709
L41.7947 33.1499
" />
<path d="M41.7947 33.1499
L41.9157 33.0895
" />
<path d="M41.9157 33.0895
L42.1576 33.0895
" />
<path d="M42.1576 33.0895
L42.2785 33.1499
" />
<path d="M42.2785 33.1499
L42.3390 33.2709
" />
<path d="M42.3390 33.2709
L42.3390 33.3918
" />
<path d="M42.3390 33.3918
L41.7343 33.5128
" />
<path d="M43.4276 33.8757
L43.3067 33.9361
" />
<path d="M43.3067 33.9361
L43.0648 33.9361
" />
<path d="M43.0648 33.9361
L42.9438 33.8757
" />
<path d="M42.9438 33.8757
L42.8833 33.8152
" />
<path d="M42.8833 33.8152
L42.8229 33.6942
" />
<path d="M42.8229 33.6942
L42.8229 33.3314
" />
<path d="M42.8229 33.3314
L42.8833 33.2104
" />
<path d="M42.8833 33.2104
L42.9438 33.1499
" />
<path d="M42.9438 33.1499
L43.0648 33.0895
" />
<path d="M43.0648 33.0895
L43.3067 33.0895
" />
<path d="M43.3067 33.0895
L43.4276 33.1499
" />
<path d="M43.7905 33.0895
L44.2743 33.0895
" />
<path d="M43.9719 32.6661
L43.9719 33.7547
" />
<path d="M43.9719 33.7547
L44.0324 33.8757
" />
<path d="M44.0324 33.8757
L44.1534 33.9361
" />
<path d="M44.1534 33.9361
L44.2743 33.9361
" />
<path d="M44.3953 34.0571
L45.3629 34.0571
" />
<path d="M45.4838 32.6661
L46.2095 32.6661
" />
<path d="M45.8467 33.9361
L45.8467 32.6661
" />
<path d="M47.3585 33.8152
L47.2981 33.8757
" />
<path d="M47.2981 33.8757
L47.1166 33.9361
" />
<path d="M47.1166 33.9361
L46.9957 33.9361
" />
<path d="M46.9957 33.9361
L46.8143 33.8757
" />
<path d="M46.8143 33.8757
L46.6933 33.7547
" />
<path d="M46.6933 33.7547
L46.6328 33.6337
" />
<path d="M46.6328 33.6337
L46.5724 33.3918
" />
<path d="M46.5724 33.3918
L46.5724 33.2104
" />
<path d="M46.5724 33.2104
L46.6328 32.9685
" />
<path d="M46.6328 32.9685
L46.6933 32.8476
" />
<path d="M46.6933 32.8476
L46.8143 32.7266
" />
<path d="M46.8143 32.7266
L46.9957 32.6661
" />
<path d="M46.9957 32.6661
L47.1166 32.6661
" />
<path d="M47.1166 32.6661
L47.2981 32.7266
" />
<path d="M47.2981 32.7266
L47.3585 32.7871
" />
<path d="M47.8424 32.7871
L47.9028 32.7266
" />
<path d="M47.9028 32.7266
L48.0238 32.6661
" />
<path d="M48.0238 32.6661
L48.3262 32.6661
" />
<path d="M48.3262 32.6661
L48.4471 32.7266
" />
<path d="M48.4471 32.7266
L48.5076 32.7871
" />
<path d="M48.5076 32.7871
L48.5681 32.9080
" />
<path d="M48.5681 32.9080
L48.5681 33.0290
" />
<path d="M48.5681 33.0290
L48.5076 33.2104
" />
<path d="M48.5076 33.2104
L47.7819 33.9361
" />
<path d="M47.7819 33.9361
L48.5681 33.9361
" />
<path d="M49.3542 32.6661
L49.4752 32.6661
" />
<path d="M49.4752 32.6661
L49.5961 32.7266
" />
<path d="M49.5961 32.7266
L49.6566 32.7871
" />
<path d="M49.6566 32.7871
L49.7171 32.9080
" />
<path d="M49.7171 32.9080
L49.7776 33.1499
" />
<path d="M49.7776 33.1499
L49.7776 33.4523
" />
<path d="M49.7776 33.4523
L49.7171 33.6942
" />
<path d="M49.7171 33.6942
L49.6566 33.8152
" />
<path d="M49.6566 33.8152
L49.5961 33.8757
" />
<path d="M49.5961 33.8757
L49.4752 33.9361
" />
<path d="M49.4752 33.9361
L49.3542 33.9361
" />
<path d="M49.3542 33.9361
L49.2333 33.8757
" />
<path d="M49.2333 33.8757
L49.1728 33.8152
" />
<path d="M49.1728 33.8152
L49.1123 33.6942
" />
<path d="M49.1123 33.6942
L49.0519 33.4523
" />
<path d="M49.0519 33.4523
L49.0519 33.1499
" />
<path d="M49.0519 33.1499
L49.1123 32.9080
" />
<path d="M49.1123 32.9080
L49.1728 32.7871
" />
<path d="M49.1728 32.7871
L49.2333 32.7266
" />
<path d="M49.2333 32.7266
L49.3542 32.6661
" />
<path d="M50.2009 32.6661
L50.9871 32.6661
" />
<path d="M50.9871 32.6661
L50.5637 33.1499
" />
<path d="M50.5637 33.1499
L50.7452 33.1499
" />
<path d="M50.7452 33.1499
L50.8661 33.2104
" />
<path d="M50.8661 33.2104
L50.9266 33.2709
" />
<path d="M50.9266 33.2709
L50.9871 33.3918
" />
<path d="M50.9871 33.3918
L50.9871 33.6942
" />
<path d="M50.9871 33.6942
L50.9266 33.8152
" />
<path d="M50.9266 33.8152
L50.8661 33.8757
" />
<path d="M50.8661 33.8757
L50.7452 33.9361
" />
<path d="M50.7452 33.9361
L50.3823 33.9361
" />
<path d="M50.3823 33.9361
L50.2614 33.8757
" />
<path d="M50.2614 33.8757
L50.2009 33.8152
" />
<path d="M51.7732 32.6661
L51.8942 32.6661
" />
<path d="M51.8942 32.6661
L52.0151 32.7266
" />
<path d="M52.0151 32.7266
L52.0756 32.7871
" />
<path d="M52.0756 32.7871
L52.1361 32.9080
" />
<path d="M52.1361 32.9080
L52.1966 33.1499
" />
<path d="M52.1966 33.1499
L52.1966 33.4523
" />
<path d="M52.1966 33.4523
L52.1361 33.6942
" />
<path d="M52.1361 33.6942
L52.0756 33.8152
" />
<path d="M52.0756 33.8152
L52.0151 33.8757
" />
<path d="M52.0151 33.8757
L51.8942 33.9361
" />
<path d="M51.8942 33.9361
L51.7732 33.9361
" />
<path d="M51.7732 33.9361
L51.6523 33.8757
" />
<path d="M51.6523 33.8757
L51.5918 33.8152
" />
<path d="M51.5918 33.8152
L51.5313 33.6942
" />
<path d="M51.5313 33.6942
L51.4709 33.4523
" />
<path d="M51.4709 33.4523
L51.4709 33.1499
" />
<path d="M51.4709 33.1499
L51.5313 32.9080
" />
<path d="M51.5313 32.9080
L51.5918 32.7871
" />
<path d="M51.5918 32.7871
L51.6523 32.7266
" />
<path d="M51.6523 32.7266
L51.7732 32.6661
" />
<path d="M52.7408 33.4523
L53.7085 33.4523
" />
<path d="M54.3132 33.9361
L54.3132 32.6661
" />
<path d="M54.9180 33.9361
L54.9180 32.6661
" />
<path d="M54.9180 32.6661
L55.2204 32.6661
" />
<path d="M55.2204 32.6661
L55.4018 32.7266
" />
<path d="M55.4018 32.7266
L55.5228 32.8476
" />
<path d="M55.5228 32.8476
L55.5833 32.9685
" />
<path d="M55.5833 32.9685
L55.6437 33.2104
" />
<path d="M55.6437 33.2104
L55.6437 33.3918
" />
<path d="M55.6437 33.3918
L55.5833 33.6337
" />
<path d="M55.5833 33.6337
L55.5228 33.7547
" />
<path d="M55.5228 33.7547
L55.4018 33.8757
" />
<path d="M55.4018 33.8757
L55.2204 33.9361
" />
<path d="M55.2204 33.9361
L54.9180 33.9361
" />
<path d="M56.9137 33.8152
L56.8533 33.8757
" />
<path d="M56.8533 33.8757
L56.6718 33.9361
" />
<path d="M56.6718 33.9361
L56.5509 33.9361
" />
<path d="M56.5509 33.9361
L56.3695 33.8757
" />
<path d="M56.3695 33.8757
L56.2485 33.7547
" />
<path d="M56.2485 33.7547
L56.1880 33.6337
" />
<path d="M56.1880 33.6337
L56.1276 33.3918
" />
<path d="M56.1276 33.3918
L56.1276 33.2104
" />
<path d="M56.1276 33.2104
L56.1880 32.9685
" />
<path d="M56.1880 32.9685
L56.2485 32.8476
" />
<path d="M56.2485 32.8476
L56.3695 32.7266
" />
<path d="M56.3695 32.7266
L56.5509 32.6661
" />
<path d="M56.5509 32.6661
L56.6718 32.6661
" />
<path d="M56.6718 32.6661
L56.8533 32.7266
" />
<path d="M56.8533 32.7266
L56.9137 32.7871
" />
<path d="M57.4580 33.4523
L58.4257 33.4523
" />
<path d="M59.0304 33.9361
L59.0304 32.6661
" />
<path d="M59.0304 32.6661
L59.7561 33.9361
" />
<path d="M59.7561 33.9361
L59.7561 32.6661
" />
<path d="M60.9657 33.9361
L60.3609 33.9361
" />
<path d="M60.3609 33.9361
L60.3609 32.6661
" />
<path d="M61.0867 34.0571
L62.0543 34.0571
" />
<path d="M62.2962 32.7871
L62.3566 32.7266
" />
<path d="M62.3566 32.7266
L62.4776 32.6661
" />
<path d="M62.4776 32.6661
L62.7800 32.6661
" />
<path d="M62.7800 32.6661
L62.9009 32.7266
" />
<path d="M62.9009 32.7266
L62.9614 32.7871
" />
<path d="M62.9614 32.7871
L63.0219 32.9080
" />
<path d="M63.0219 32.9080
L63.0219 33.0290
" />
<path d="M63.0219 33.0290
L62.9614 33.2104
" />
<path d="M62.9614 33.2104
L62.2357 33.9361
" />
<path d="M62.2357 33.9361
L63.0219 33.9361
" />
<path d="M63.4452 33.9361
L64.1104 33.0895
" />
<path d="M63.4452 33.0895
L64.1104 33.9361
" />
<path d="M64.8361 32.6661
L64.9571 32.6661
" />
<path d="M64.9571 32.6661
L65.0780 32.7266
" />
<path d="M65.0780 32.7266
L65.1385 32.7871
" />
<path d="M65.1385 32.7871
L65.1990 32.9080
" />
<path d="M65.1990 32.9080
L65.2595 33.1499
" />
<path d="M65.2595 33.1499
L65.2595 33.4523
" />
<path d="M65.2595 33.4523
L65.1990 33.6942
" />
<path d="M65.1990 33.6942
L65.1385 33.8152
" />
<path d="M65.1385 33.8152
L65.0780 33.8757
" />
<path d="M65.0780 33.8757
L64.9571 33.9361
" />
<path d="M64.9571 33.9361
L64.8361 33.9361
" />
<path d="M64.8361 33.9361
L64.7152 33.8757
" />
<path d="M64.7152 33.8757
L64.6547 33.8152
" />
<path d="M64.6547 33.8152
L64.5942 33.6942
" />
<path d="M64.5942 33.6942
L64.5338 33.4523
" />
<path d="M64.5338 33.4523
L64.5338 33.1499
" />
<path d="M64.5338 33.1499
L64.5942 32.9080
" />
<path d="M64.5942 32.9080
L64.6547 32.7871
" />
<path d="M64.6547 32.7871
L64.7152 32.7266
" />
<path d="M64.7152 32.7266
L64.8361 32.6661
" />
<path d="M65.6828 32.6661
L66.4690 32.6661
" />
<path d="M66.4690 32.6661
L66.0456 33.1499
" />
<path d="M66.0456 33.1499
L66.2271 33.1499
" />
<path d="M66.2271 33.1499
L66.3480 33.2104
" />
<path d="M66.3480 33.2104
L66.4085 33.2709
" />
<path d="M66.4085 33.2709
L66.4690 33.3918
" />
<path d="M66.4690 33.3918
L66.4690 33.6942
" />
<path d="M66.4690 33.6942
L66.4085 33.8152
" />
<path d="M66.4085 33.8152
L66.3480 33.8757
" />
<path d="M66.3480 33.8757
L66.2271 33.9361
" />
<path d="M66.2271 33.9361
L65.8642 33.9361
" />
<path d="M65.8642 33.9361
L65.7433 33.8757
" />
<path d="M65.7433 33.8757
L65.6828 33.8152
" />
<path d="M66.7109 34.0571
L67.6785 34.0571
" />
<path d="M67.9808 33.9361
L67.9808 32.6661
" />
<path d="M67.9808 32.6661
L68.4646 32.6661
" />
<path d="M68.4646 32.6661
L68.5856 32.7266
" />
<path d="M68.5856 32.7266
L68.6461 32.7871
" />
<path d="M68.6461 32.7871
L68.7065 32.9080
" />
<path d="M68.7065 32.9080
L68.7065 33.0895
" />
<path d="M68.7065 33.0895
L68.6461 33.2104
" />
<path d="M68.6461 33.2104
L68.5856 33.2709
" />
<path d="M68.5856 33.2709
L68.4646 33.3314
" />
<path d="M68.4646 33.3314
L67.9808 33.3314
" />
<path d="M69.9161 33.9361
L69.1904 33.9361
" />
<path d="M69.5532 33.9361
L69.5532 32.6661
" />
<path d="M69.5532 32.6661
L69.4323 32.8476
" />
<path d="M69.4323 32.8476
L69.3113 32.9685
" />
<path d="M69.3113 32.9685
L69.1904 33.0290
" />
<path d="M70.4603 33.8152
L70.5208 33.8757
" />
<path d="M70.5208 33.8757
L70.4603 33.9361
" />
<path d="M70.4603 33.9361
L70.3999 33.8757
" />
<path d="M70.3999 33.8757
L70.4603 33.8152
" />
<path d="M70.4603 33.8152
L70.4603 33.9361
" />
<path d="M71.0047 32.7871
L71.0651 32.7266
" />
<path d="M71.0651 32.7266
L71.1861 32.6661
" />
<path d="M71.1861 32.6661
L71.4885 32.6661
" />
<path d="M71.4885 32.6661
L71.6094 32.7266
" />
<path d="M71.6094 32.7266
L71.6699 32.7871
" />
<path d="M71.6699 32.7871
L71.7304 32.9080
" />
<path d="M71.7304 32.9080
L71.7304 33.0290
" />
<path d="M71.7304 33.0290
L71.6699 33.2104
" />
<path d="M71.6699 33.2104
L70.9442 33.9361
" />
<path d="M70.9442 33.9361
L71.7304 33.9361
" />
<path d="M72.1537 32.6661
L73.0003 32.6661
" />
<path d="M73.0003 32.6661
L72.4561 33.9361
" />
<path d="M73.4841 33.9361
L73.4841 33.0895
" />
<path d="M73.4841 33.2104
L73.5446 33.1499
" />
<path d="M73.5446 33.1499
L73.6656 33.0895
" />
<path d="M73.6656 33.0895
L73.8470 33.0895
" />
<path d="M73.8470 33.0895
L73.9679 33.1499
" />
<path d="M73.9679 33.1499
L74.0284 33.2709
" />
<path d="M74.0284 33.2709
L74.0284 33.9361
" />
<path d="M74.0284 33.2709
L74.0889 33.1499
" />
<path d="M74.0889 33.1499
L74.2098 33.0895
" />
<path d="M74.2098 33.0895
L74.3913 33.0895
" />
<path d="M74.3913 33.0895
L74.5122 33.1499
" />
<path d="M74.5122 33.1499
L74.5727 33.2709
" />
<path d="M74.5727 33.2709
L74.5727 33.9361
" />
<path d="M75.1774 33.9361
L75.1774 33.0895
" />
<path d="M75.1774 33.2104
L75.2379 33.1499
" />
<path d="M75.2379 33.1499
L75.3589 33.0895
" />
<path d="M75.3589 33.0895
L75.5403 33.0895
" />
<path d="M75.5403 33.0895
L75.6612 33.1499
" />
<path d="M75.6612 33.1499
L75.7217 33.2709
" />
<path d="M75.7217 33.2709
L75.7217 33.9361
" />
<path d="M75.7217 33.2709
L75.7822 33.1499
" />
<path d="M75.7822 33.1499
L75.9031 33.0895
" />
<path d="M75.9031 33.0895
L76.0846 33.0895
" />
<path d="M76.0846 33.0895
L76.2055 33.1499
" />
<path d="M76.2055 33.1499
L76.2660 33.2709
" />
<path d="M76.2660 33.2709
L76.2660 33.9361
" />
<path d="M76.5684 34.0571
L77.5360 34.0571
" />
<path d="M77.6569 32.6661
L78.0802 33.9361
" />
<path d="M78.0802 33.9361
L78.5036 32.6661
" />
<path d="M79.4107 33.8757
L79.2898 33.9361
" />
<path d="M79.2898 33.9361
L79.0479 33.9361
" />
<path d="M79.0479 33.9361
L78.9269 33.8757
" />
<path d="M78.9269 33.8757
L78.8665 33.7547
" />
<path d="M78.8665 33.7547
L78.8665 33.2709
" />
<path d="M78.8665 33.2709
L78.9269 33.1499
" />
<path d="M78.9269 33.1499
L79.0479 33.0895
" />
<path d="M79.0479 33.0895
L79.2898 33.0895
" />
<path d="M79.2898 33.0895
L79.4107 33.1499
" />
<path d="M79.4107 33.1499
L79.4712 33.2709
" />
<path d="M79.4712 33.2709
L79.4712 33.3918
" />
<path d="M79.4712 33.3918
L78.8665 33.5128
" />
<path d="M80.0155 33.9361
L80.0155 33.0895
" />
<path d="M80.0155 33.3314
L80.0760 33.2104
" />
<path d="M80.0760 33.2104
L80.1365 33.1499
" />
<path d="M80.1365 33.1499
L80.2574 33.0895
" />
<path d="M80.2574 33.0895
L80.3784 33.0895
" />
<path d="M80.6203 33.0895
L81.1041 33.0895
" />
<path d="M80.8017 32.6661
L80.8017 33.7547
" />
<path d="M80.8017 33.7547
L80.8622 33.8757
" />
<path d="M80.8622 33.8757
L80.9832 33.9361
" />
<path d="M80.9832 33.9361
L81.1041 33.9361
" />
<path d="M81.5274 33.9361
L81.5274 33.0895
" />
<path d="M81.5274 32.6661
L81.4670 32.7266
" />
<path d="M81.4670 32.7266
L81.5274 32.7871
" />
<path d="M81.5274 32.7871
L81.5879 32.7266
" />
<path d="M81.5879 32.7266
L81.5274 32.6661
" />
<path d="M81.5274 32.6661
L81.5274 32.7871
" />
<path d="M82.6765 33.8757
L82.5556 33.9361
" />
<path d="M82.5556 33.9361
L82.3137 33.9361
" />
<path d="M82.3137 33.9361
L82.1927 33.8757
" />
<path d="M82.1927 33.8757
L82.1322 33.8152
" />
<path d="M82.1322 33.8152
L82.0718 33.6942
" />
<path d="M82.0718 33.6942
L82.0718 33.3314
" />
<path d="M82.0718 33.3314
L82.1322 33.2104
" />
<path d="M82.1322 33.2104
L82.1927 33.1499
" />
<path d="M82.1927 33.1499
L82.3137 33.0895
" />
<path d="M82.3137 33.0895
L82.5556 33.0895
" />
<path d="M82.5556 33.0895
L82.6765 33.1499
" />
<path d="M83.7651 33.9361
L83.7651 33.2709
" />
<path d="M83.7651 33.2709
L83.7046 33.1499
" />
<path d="M83.7046 33.1499
L83.5837 33.0895
" />
<path d="M83.5837 33.0895
L83.3418 33.0895
" />
<path d="M83.3418 33.0895
L83.2208 33.1499
" />
<path d="M83.7651 33.8757
L83.6442 33.9361
" />
<path d="M83.6442 33.9361
L83.3418 33.9361
" />
<path d="M83.3418 33.9361
L83.2208 33.8757
" />
<path d="M83.2208 33.8757
L83.1604 33.7547
" />
<path d="M83.1604 33.7547
L83.1604 33.6337
" />
<path d="M83.1604 33.6337
L83.2208 33.5128
" />
<path d="M83.2208 33.5128
L83.3418 33.4523
" />
<path d="M83.3418 33.4523
L83.6442 33.4523
" />
<path d="M83.6442 33.4523
L83.7651 33.3918
" />
<path d="M84.5513 33.9361
L84.4303 33.8757
" />
<path d="M84.4303 33.8757
L84.3698 33.7547
" />
<path d="M84.3698 33.7547
L84.3698 32.6661
" />
</g><text x="53.2551" y="31.4519"
textLength="88.7586" font-size="1.6933" lengthAdjust="spacingAndGlyphs"
text-anchor="middle" opacity="0">https://www.tag-connect.com/wp-content/uploads/bsk-pdf-manager/TC2030-CTX_1.pdf</text>
<g class="stroked-text"><desc>https://www.tag-connect.com/wp-content/uploads/bsk-pdf-manager/TC2030-CTX_1.pdf</desc>
<path d="M9.2893 31.3961
L9.2893 30.1261
" />
<path d="M9.8336 31.3961
L9.8336 30.7309
" />
<path d="M9.8336 30.7309
L9.7731 30.6099
" />
<path d="M9.7731 30.6099
L9.6522 30.5495
" />
<path d="M9.6522 30.5495
L9.4708 30.5495
" />
<path d="M9.4708 30.5495
L9.3498 30.6099
" />
<path d="M9.3498 30.6099
L9.2893 30.6704
" />
<path d="M10.2569 30.5495
L10.7407 30.5495
" />
<path d="M10.4383 30.1261
L10.4383 31.2147
" />
<path d="M10.4383 31.2147
L10.4988 31.3357
" />
<path d="M10.4988 31.3357
L10.6198 31.3961
" />
<path d="M10.6198 31.3961
L10.7407 31.3961
" />
<path d="M10.9826 30.5495
L11.4664 30.5495
" />
<path d="M11.1640 30.1261
L11.1640 31.2147
" />
<path d="M11.1640 31.2147
L11.2245 31.3357
" />
<path d="M11.2245 31.3357
L11.3455 31.3961
" />
<path d="M11.3455 31.3961
L11.4664 31.3961
" />
<path d="M11.8897 30.5495
L11.8897 31.8195
" />
<path d="M11.8897 30.6099
L12.0107 30.5495
" />
<path d="M12.0107 30.5495
L12.2526 30.5495
" />
<path d="M12.2526 30.5495
L12.3735 30.6099
" />
<path d="M12.3735 30.6099
L12.4340 30.6704
" />
<path d="M12.4340 30.6704
L12.4945 30.7914
" />
<path d="M12.4945 30.7914
L12.4945 31.1542
" />
<path d="M12.4945 31.1542
L12.4340 31.2752
" />
<path d="M12.4340 31.2752
L12.3735 31.3357
" />
<path d="M12.3735 31.3357
L12.2526 31.3961
" />
<path d="M12.2526 31.3961
L12.0107 31.3961
" />
<path d="M12.0107 31.3961
L11.8897 31.3357
" />
<path d="M12.9783 31.3357
L13.0992 31.3961
" />
<path d="M13.0992 31.3961
L13.3411 31.3961
" />
<path d="M13.3411 31.3961
L13.4621 31.3357
" />
<path d="M13.4621 31.3357
L13.5225 31.2147
" />
<path d="M13.5225 31.2147
L13.5225 31.1542
" />
<path d="M13.5225 31.1542
L13.4621 31.0333
" />
<path d="M13.4621 31.0333
L13.3411 30.9728
" />
<path d="M13.3411 30.9728
L13.1597 30.9728
" />
<path d="M13.1597 30.9728
L13.0387 30.9123
" />
<path d="M13.0387 30.9123
L12.9783 30.7914
" />
<path d="M12.9783 30.7914
L12.9783 30.7309
" />
<path d="M12.9783 30.7309
L13.0387 30.6099
" />
<path d="M13.0387 30.6099
L13.1597 30.5495
" />
<path d="M13.1597 30.5495
L13.3411 30.5495
" />
<path d="M13.3411 30.5495
L13.4621 30.6099
" />
<path d="M14.0668 31.2752
L14.1273 31.3357
" />
<path d="M14.1273 31.3357
L14.0668 31.3961
" />
<path d="M14.0668 31.3961
L14.0064 31.3357
" />
<path d="M14.0064 31.3357
L14.0668 31.2752
" />
<path d="M14.0668 31.2752
L14.0668 31.3961
" />
<path d="M14.0668 30.6099
L14.1273 30.6704
" />
<path d="M14.1273 30.6704
L14.0668 30.7309
" />
<path d="M14.0668 30.7309
L14.0064 30.6704
" />
<path d="M14.0064 30.6704
L14.0668 30.6099
" />
<path d="M14.0668 30.6099
L14.0668 30.7309
" />
<path d="M15.5788 30.0657
L14.4902 31.6985
" />
<path d="M16.9093 30.0657
L15.8207 31.6985
" />
<path d="M17.2117 30.5495
L17.4536 31.3961
" />
<path d="M17.4536 31.3961
L17.6955 30.7914
" />
<path d="M17.6955 30.7914
L17.9374 31.3961
" />
<path d="M17.9374 31.3961
L18.1793 30.5495
" />
<path d="M18.5422 30.5495
L18.7841 31.3961
" />
<path d="M18.7841 31.3961
L19.0260 30.7914
" />
<path d="M19.0260 30.7914
L19.2679 31.3961
" />
<path d="M19.2679 31.3961
L19.5098 30.5495
" />
<path d="M19.8727 30.5495
L20.1146 31.3961
" />
<path d="M20.1146 31.3961
L20.3565 30.7914
" />
<path d="M20.3565 30.7914
L20.5984 31.3961
" />
<path d="M20.5984 31.3961
L20.8403 30.5495
" />
<path d="M21.3241 31.2752
L21.3846 31.3357
" />
<path d="M21.3846 31.3357
L21.3241 31.3961
" />
<path d="M21.3241 31.3961
L21.2637 31.3357
" />
<path d="M21.2637 31.3357
L21.3241 31.2752
" />
<path d="M21.3241 31.2752
L21.3241 31.3961
" />
<path d="M21.7475 30.5495
L22.2313 30.5495
" />
<path d="M21.9289 30.1261
L21.9289 31.2147
" />
<path d="M21.9289 31.2147
L21.9894 31.3357
" />
<path d="M21.9894 31.3357
L22.1104 31.3961
" />
<path d="M22.1104 31.3961
L22.2313 31.3961
" />
<path d="M23.1989 31.3961
L23.1989 30.7309
" />
<path d="M23.1989 30.7309
L23.1384 30.6099
" />
<path d="M23.1384 30.6099
L23.0175 30.5495
" />
<path d="M23.0175 30.5495
L22.7756 30.5495
" />
<path d="M22.7756 30.5495
L22.6546 30.6099
" />
<path d="M23.1989 31.3357
L23.0780 31.3961
" />
<path d="M23.0780 31.3961
L22.7756 31.3961
" />
<path d="M22.7756 31.3961
L22.6546 31.3357
" />
<path d="M22.6546 31.3357
L22.5942 31.2147
" />
<path d="M22.5942 31.2147
L22.5942 31.0937
" />
<path d="M22.5942 31.0937
L22.6546 30.9728
" />
<path d="M22.6546 30.9728
L22.7756 30.9123
" />
<path d="M22.7756 30.9123
L23.0780 30.9123
" />
<path d="M23.0780 30.9123
L23.1989 30.8518
" />
<path d="M24.3479 30.5495
L24.3479 31.5776
" />
<path d="M24.3479 31.5776
L24.2874 31.6985
" />
<path d="M24.2874 31.6985
L24.2270 31.7590
" />
<path d="M24.2270 31.7590
L24.1060 31.8195
" />
<path d="M24.1060 31.8195
L23.9246 31.8195
" />
<path d="M23.9246 31.8195
L23.8036 31.7590
" />
<path d="M24.3479 31.3357
L24.2270 31.3961
" />
<path d="M24.2270 31.3961
L23.9851 31.3961
" />
<path d="M23.9851 31.3961
L23.8641 31.3357
" />
<path d="M23.8641 31.3357
L23.8036 31.2752
" />
<path d="M23.8036 31.2752
L23.7432 31.1542
" />
<path d="M23.7432 31.1542
L23.7432 30.7914
" />
<path d="M23.7432 30.7914
L23.8036 30.6704
" />
<path d="M23.8036 30.6704
L23.8641 30.6099
" />
<path d="M23.8641 30.6099
L23.9851 30.5495
" />
<path d="M23.9851 30.5495
L24.2270 30.5495
" />
<path d="M24.2270 30.5495
L24.3479 30.6099
" />
<path d="M24.9526 30.9123
L25.9203 30.9123
" />
<path d="M27.0693 31.3357
L26.9484 31.3961
" />
<path d="M26.9484 31.3961
L26.7065 31.3961
" />
<path d="M26.7065 31.3961
L26.5855 31.3357
" />
<path d="M26.5855 31.3357
L26.5250 31.2752
" />
<path d="M26.5250 31.2752
L26.4646 31.1542
" />
<path d="M26.4646 31.1542
L26.4646 30.7914
" />
<path d="M26.4646 30.7914
L26.5250 30.6704
" />
<path d="M26.5250 30.6704
L26.5855 30.6099
" />
<path d="M26.5855 30.6099
L26.7065 30.5495
" />
<path d="M26.7065 30.5495
L26.9484 30.5495
" />
<path d="M26.9484 30.5495
L27.0693 30.6099
" />
<path d="M27.7951 31.3961
L27.6741 31.3357
" />
<path d="M27.6741 31.3357
L27.6136 31.2752
" />
<path d="M27.6136 31.2752
L27.5532 31.1542
" />
<path d="M27.5532 31.1542
L27.5532 30.7914
" />
<path d="M27.5532 30.7914
L27.6136 30.6704
" />
<path d="M27.6136 30.6704
L27.6741 30.6099
" />
<path d="M27.6741 30.6099
L27.7951 30.5495
" />
<path d="M27.7951 30.5495
L27.9765 30.5495
" />
<path d="M27.9765 30.5495
L28.0974 30.6099
" />
<path d="M28.0974 30.6099
L28.1579 30.6704
" />
<path d="M28.1579 30.6704
L28.2184 30.7914
" />
<path d="M28.2184 30.7914
L28.2184 31.1542
" />
<path d="M28.2184 31.1542
L28.1579 31.2752
" />
<path d="M28.1579 31.2752
L28.0974 31.3357
" />
<path d="M28.0974 31.3357
L27.9765 31.3961
" />
<path d="M27.9765 31.3961
L27.7951 31.3961
" />
<path d="M28.7626 30.5495
L28.7626 31.3961
" />
<path d="M28.7626 30.6704
L28.8231 30.6099
" />
<path d="M28.8231 30.6099
L28.9441 30.5495
" />
<path d="M28.9441 30.5495
L29.1255 30.5495
" />
<path d="M29.1255 30.5495
L29.2464 30.6099
" />
<path d="M29.2464 30.6099
L29.3069 30.7309
" />
<path d="M29.3069 30.7309
L29.3069 31.3961
" />
<path d="M29.9116 30.5495
L29.9116 31.3961
" />
<path d="M29.9116 30.6704
L29.9721 30.6099
" />
<path d="M29.9721 30.6099
L30.0931 30.5495
" />
<path d="M30.0931 30.5495
L30.2745 30.5495
" />
<path d="M30.2745 30.5495
L30.3954 30.6099
" />
<path d="M30.3954 30.6099
L30.4559 30.7309
" />
<path d="M30.4559 30.7309
L30.4559 31.3961
" />
<path d="M31.5444 31.3357
L31.4235 31.3961
" />
<path d="M31.4235 31.3961
L31.1816 31.3961
" />
<path d="M31.1816 31.3961
L31.0606 31.3357
" />
<path d="M31.0606 31.3357
L31.0002 31.2147
" />
<path d="M31.0002 31.2147
L31.0002 30.7309
" />
<path d="M31.0002 30.7309
L31.0606 30.6099
" />
<path d="M31.0606 30.6099
L31.1816 30.5495
" />
<path d="M31.1816 30.5495
L31.4235 30.5495
" />
<path d="M31.4235 30.5495
L31.5444 30.6099
" />
<path d="M31.5444 30.6099
L31.6049 30.7309
" />
<path d="M31.6049 30.7309
L31.6049 30.8518
" />
<path d="M31.6049 30.8518
L31.0002 30.9728
" />
<path d="M32.6935 31.3357
L32.5726 31.3961
" />
<path d="M32.5726 31.3961
L32.3307 31.3961
" />
<path d="M32.3307 31.3961
L32.2097 31.3357
" />
<path d="M32.2097 31.3357
L32.1492 31.2752
" />
<path d="M32.1492 31.2752
L32.0888 31.1542
" />
<path d="M32.0888 31.1542
L32.0888 30.7914
" />
<path d="M32.0888 30.7914
L32.1492 30.6704
" />
<path d="M32.1492 30.6704
L32.2097 30.6099
" />
<path d="M32.2097 30.6099
L32.3307 30.5495
" />
<path d="M32.3307 30.5495
L32.5726 30.5495
" />
<path d="M32.5726 30.5495
L32.6935 30.6099
" />
<path d="M33.0564 30.5495
L33.5402 30.5495
" />
<path d="M33.2378 30.1261
L33.2378 31.2147
" />
<path d="M33.2378 31.2147
L33.2983 31.3357
" />
<path d="M33.2983 31.3357
L33.4193 31.3961
" />
<path d="M33.4193 31.3961
L33.5402 31.3961
" />
<path d="M33.9635 31.2752
L34.0240 31.3357
" />
<path d="M34.0240 31.3357
L33.9635 31.3961
" />
<path d="M33.9635 31.3961
L33.9031 31.3357
" />
<path d="M33.9031 31.3357
L33.9635 31.2752
" />
<path d="M33.9635 31.2752
L33.9635 31.3961
" />
<path d="M35.1126 31.3357
L34.9917 31.3961
" />
<path d="M34.9917 31.3961
L34.7498 31.3961
" />
<path d="M34.7498 31.3961
L34.6288 31.3357
" />
<path d="M34.6288 31.3357
L34.5683 31.2752
" />
<path d="M34.5683 31.2752
L34.5079 31.1542
" />
<path d="M34.5079 31.1542
L34.5079 30.7914
" />
<path d="M34.5079 30.7914
L34.5683 30.6704
" />
<path d="M34.5683 30.6704
L34.6288 30.6099
" />
<path d="M34.6288 30.6099
L34.7498 30.5495
" />
<path d="M34.7498 30.5495
L34.9917 30.5495
" />
<path d="M34.9917 30.5495
L35.1126 30.6099
" />
<path d="M35.8384 31.3961
L35.7174 31.3357
" />
<path d="M35.7174 31.3357
L35.6569 31.2752
" />
<path d="M35.6569 31.2752
L35.5965 31.1542
" />
<path d="M35.5965 31.1542
L35.5965 30.7914
" />
<path d="M35.5965 30.7914
L35.6569 30.6704
" />
<path d="M35.6569 30.6704
L35.7174 30.6099
" />
<path d="M35.7174 30.6099
L35.8384 30.5495
" />
<path d="M35.8384 30.5495
L36.0198 30.5495
" />
<path d="M36.0198 30.5495
L36.1407 30.6099
" />
<path d="M36.1407 30.6099
L36.2012 30.6704
" />
<path d="M36.2012 30.6704
L36.2617 30.7914
" />
<path d="M36.2617 30.7914
L36.2617 31.1542
" />
<path d="M36.2617 31.1542
L36.2012 31.2752
" />
<path d="M36.2012 31.2752
L36.1407 31.3357
" />
<path d="M36.1407 31.3357
L36.0198 31.3961
" />
<path d="M36.0198 31.3961
L35.8384 31.3961
" />
<path d="M36.8059 31.3961
L36.8059 30.5495
" />
<path d="M36.8059 30.6704
L36.8664 30.6099
" />
<path d="M36.8664 30.6099
L36.9874 30.5495
" />
<path d="M36.9874 30.5495
L37.1688 30.5495
" />
<path d="M37.1688 30.5495
L37.2897 30.6099
" />
<path d="M37.2897 30.6099
L37.3502 30.7309
" />
<path d="M37.3502 30.7309
L37.3502 31.3961
" />
<path d="M37.3502 30.7309
L37.4107 30.6099
" />
<path d="M37.4107 30.6099
L37.5316 30.5495
" />
<path d="M37.5316 30.5495
L37.7131 30.5495
" />
<path d="M37.7131 30.5495
L37.8340 30.6099
" />
<path d="M37.8340 30.6099
L37.8945 30.7309
" />
<path d="M37.8945 30.7309
L37.8945 31.3961
" />
<path d="M39.4064 30.0657
L38.3178 31.6985
" />
<path d="M39.7088 30.5495
L39.9507 31.3961
" />
<path d="M39.9507 31.3961
L40.1926 30.7914
" />
<path d="M40.1926 30.7914
L40.4345 31.3961
" />
<path d="M40.4345 31.3961
L40.6764 30.5495
" />
<path d="M41.1602 30.5495
L41.1602 31.8195
" />
<path d="M41.1602 30.6099
L41.2812 30.5495
" />
<path d="M41.2812 30.5495
L41.5231 30.5495
" />
<path d="M41.5231 30.5495
L41.6440 30.6099
" />
<path d="M41.6440 30.6099
L41.7045 30.6704
" />
<path d="M41.7045 30.6704
L41.7650 30.7914
" />
<path d="M41.7650 30.7914
L41.7650 31.1542
" />
<path d="M41.7650 31.1542
L41.7045 31.2752
" />
<path d="M41.7045 31.2752
L41.6440 31.3357
" />
<path d="M41.6440 31.3357
L41.5231 31.3961
" />
<path d="M41.5231 31.3961
L41.2812 31.3961
" />
<path d="M41.2812 31.3961
L41.1602 31.3357
" />
<path d="M42.3092 30.9123
L43.2769 30.9123
" />
<path d="M44.4259 31.3357
L44.3050 31.3961
" />
<path d="M44.3050 31.3961
L44.0631 31.3961
" />
<path d="M44.0631 31.3961
L43.9421 31.3357
" />
<path d="M43.9421 31.3357
L43.8816 31.2752
" />
<path d="M43.8816 31.2752
L43.8212 31.1542
" />
<path d="M43.8212 31.1542
L43.8212 30.7914
" />
<path d="M43.8212 30.7914
L43.8816 30.6704
" />
<path d="M43.8816 30.6704
L43.9421 30.6099
" />
<path d="M43.9421 30.6099
L44.0631 30.5495
" />
<path d="M44.0631 30.5495
L44.3050 30.5495
" />
<path d="M44.3050 30.5495
L44.4259 30.6099
" />
<path d="M45.1517 31.3961
L45.0307 31.3357
" />
<path d="M45.0307 31.3357
L44.9702 31.2752
" />
<path d="M44.9702 31.2752
L44.9098 31.1542
" />
<path d="M44.9098 31.1542
L44.9098 30.7914
" />
<path d="M44.9098 30.7914
L44.9702 30.6704
" />
<path d="M44.9702 30.6704
L45.0307 30.6099
" />
<path d="M45.0307 30.6099
L45.1517 30.5495
" />
<path d="M45.1517 30.5495
L45.3331 30.5495
" />
<path d="M45.3331 30.5495
L45.4540 30.6099
" />
<path d="M45.4540 30.6099
L45.5145 30.6704
" />
<path d="M45.5145 30.6704
L45.5750 30.7914
" />
<path d="M45.5750 30.7914
L45.5750 31.1542
" />
<path d="M45.5750 31.1542
L45.5145 31.2752
" />
<path d="M45.5145 31.2752
L45.4540 31.3357
" />
<path d="M45.4540 31.3357
L45.3331 31.3961
" />
<path d="M45.3331 31.3961
L45.1517 31.3961
" />
<path d="M46.1192 30.5495
L46.1192 31.3961
" />
<path d="M46.1192 30.6704
L46.1797 30.6099
" />
<path d="M46.1797 30.6099
L46.3007 30.5495
" />
<path d="M46.3007 30.5495
L46.4821 30.5495
" />
<path d="M46.4821 30.5495
L46.6030 30.6099
" />
<path d="M46.6030 30.6099
L46.6635 30.7309
" />
<path d="M46.6635 30.7309
L46.6635 31.3961
" />
<path d="M47.0868 30.5495
L47.5706 30.5495
" />
<path d="M47.2682 30.1261
L47.2682 31.2147
" />
<path d="M47.2682 31.2147
L47.3287 31.3357
" />
<path d="M47.3287 31.3357
L47.4497 31.3961
" />
<path d="M47.4497 31.3961
L47.5706 31.3961
" />
<path d="M48.4777 31.3357
L48.3568 31.3961
" />
<path d="M48.3568 31.3961
L48.1149 31.3961
" />
<path d="M48.1149 31.3961
L47.9939 31.3357
" />
<path d="M47.9939 31.3357
L47.9335 31.2147
" />
<path d="M47.9335 31.2147
L47.9335 30.7309
" />
<path d="M47.9335 30.7309
L47.9939 30.6099
" />
<path d="M47.9939 30.6099
L48.1149 30.5495
" />
<path d="M48.1149 30.5495
L48.3568 30.5495
" />
<path d="M48.3568 30.5495
L48.4777 30.6099
" />
<path d="M48.4777 30.6099
L48.5382 30.7309
" />
<path d="M48.5382 30.7309
L48.5382 30.8518
" />
<path d="M48.5382 30.8518
L47.9335 30.9728
" />
<path d="M49.0825 30.5495
L49.0825 31.3961
" />
<path d="M49.0825 30.6704
L49.1430 30.6099
" />
<path d="M49.1430 30.6099
L49.2640 30.5495
" />
<path d="M49.2640 30.5495
L49.4454 30.5495
" />
<path d="M49.4454 30.5495
L49.5663 30.6099
" />
<path d="M49.5663 30.6099
L49.6268 30.7309
" />
<path d="M49.6268 30.7309
L49.6268 31.3961
" />
<path d="M50.0501 30.5495
L50.5339 30.5495
" />
<path d="M50.2315 30.1261
L50.2315 31.2147
" />
<path d="M50.2315 31.2147
L50.2920 31.3357
" />
<path d="M50.2920 31.3357
L50.4130 31.3961
" />
<path d="M50.4130 31.3961
L50.5339 31.3961
" />
<path d="M51.8644 30.0657
L50.7758 31.6985
" />
<path d="M52.8320 30.5495
L52.8320 31.3961
" />
<path d="M52.2877 30.5495
L52.2877 31.2147
" />
<path d="M52.2877 31.2147
L52.3482 31.3357
" />
<path d="M52.3482 31.3357
L52.4692 31.3961
" />
<path d="M52.4692 31.3961
L52.6506 31.3961
" />
<path d="M52.6506 31.3961
L52.7715 31.3357
" />
<path d="M52.7715 31.3357
L52.8320 31.2752
" />
<path d="M53.4367 30.5495
L53.4367 31.8195
" />
<path d="M53.4367 30.6099
L53.5577 30.5495
" />
<path d="M53.5577 30.5495
L53.7996 30.5495
" />
<path d="M53.7996 30.5495
L53.9205 30.6099
" />
<path d="M53.9205 30.6099
L53.9810 30.6704
" />
<path d="M53.9810 30.6704
L54.0415 30.7914
" />
<path d="M54.0415 30.7914
L54.0415 31.1542
" />
<path d="M54.0415 31.1542
L53.9810 31.2752
" />
<path d="M53.9810 31.2752
L53.9205 31.3357
" />
<path d="M53.9205 31.3357
L53.7996 31.3961
" />
<path d="M53.7996 31.3961
L53.5577 31.3961
" />
<path d="M53.5577 31.3961
L53.4367 31.3357
" />
<path d="M54.7672 31.3961
L54.6462 31.3357
" />
<path d="M54.6462 31.3357
L54.5857 31.2147
" />
<path d="M54.5857 31.2147
L54.5857 30.1261
" />
<path d="M55.4324 31.3961
L55.3114 31.3357
" />
<path d="M55.3114 31.3357
L55.2509 31.2752
" />
<path d="M55.2509 31.2752
L55.1905 31.1542
" />
<path d="M55.1905 31.1542
L55.1905 30.7914
" />
<path d="M55.1905 30.7914
L55.2509 30.6704
" />
<path d="M55.2509 30.6704
L55.3114 30.6099
" />
<path d="M55.3114 30.6099
L55.4324 30.5495
" />
<path d="M55.4324 30.5495
L55.6138 30.5495
" />
<path d="M55.6138 30.5495
L55.7347 30.6099
" />
<path d="M55.7347 30.6099
L55.7952 30.6704
" />
<path d="M55.7952 30.6704
L55.8557 30.7914
" />
<path d="M55.8557 30.7914
L55.8557 31.1542
" />
<path d="M55.8557 31.1542
L55.7952 31.2752
" />
<path d="M55.7952 31.2752
L55.7347 31.3357
" />
<path d="M55.7347 31.3357
L55.6138 31.3961
" />
<path d="M55.6138 31.3961
L55.4324 31.3961
" />
<path d="M56.9442 31.3961
L56.9442 30.7309
" />
<path d="M56.9442 30.7309
L56.8837 30.6099
" />
<path d="M56.8837 30.6099
L56.7628 30.5495
" />
<path d="M56.7628 30.5495
L56.5209 30.5495
" />
<path d="M56.5209 30.5495
L56.3999 30.6099
" />
<path d="M56.9442 31.3357
L56.8233 31.3961
" />
<path d="M56.8233 31.3961
L56.5209 31.3961
" />
<path d="M56.5209 31.3961
L56.3999 31.3357
" />
<path d="M56.3999 31.3357
L56.3395 31.2147
" />
<path d="M56.3395 31.2147
L56.3395 31.0937
" />
<path d="M56.3395 31.0937
L56.3999 30.9728
" />
<path d="M56.3999 30.9728
L56.5209 30.9123
" />
<path d="M56.5209 30.9123
L56.8233 30.9123
" />
<path d="M56.8233 30.9123
L56.9442 30.8518
" />
<path d="M58.0932 31.3961
L58.0932 30.1261
" />
<path d="M58.0932 31.3357
L57.9723 31.3961
" />
<path d="M57.9723 31.3961
L57.7304 31.3961
" />
<path d="M57.7304 31.3961
L57.6094 31.3357
" />
<path d="M57.6094 31.3357
L57.5489 31.2752
" />
<path d="M57.5489 31.2752
L57.4885 31.1542
" />
<path d="M57.4885 31.1542
L57.4885 30.7914
" />
<path d="M57.4885 30.7914
L57.5489 30.6704
" />
<path d="M57.5489 30.6704
L57.6094 30.6099
" />
<path d="M57.6094 30.6099
L57.7304 30.5495
" />
<path d="M57.7304 30.5495
L57.9723 30.5495
" />
<path d="M57.9723 30.5495
L58.0932 30.6099
" />
<path d="M58.6375 31.3357
L58.7584 31.3961
" />
<path d="M58.7584 31.3961
L59.0003 31.3961
" />
<path d="M59.0003 31.3961
L59.1213 31.3357
" />
<path d="M59.1213 31.3357
L59.1817 31.2147
" />
<path d="M59.1817 31.2147
L59.1817 31.1542
" />
<path d="M59.1817 31.1542
L59.1213 31.0333
" />
<path d="M59.1213 31.0333
L59.0003 30.9728
" />
<path d="M59.0003 30.9728
L58.8189 30.9728
" />
<path d="M58.8189 30.9728
L58.6979 30.9123
" />
<path d="M58.6979 30.9123
L58.6375 30.7914
" />
<path d="M58.6375 30.7914
L58.6375 30.7309
" />
<path d="M58.6375 30.7309
L58.6979 30.6099
" />
<path d="M58.6979 30.6099
L58.8189 30.5495
" />
<path d="M58.8189 30.5495
L59.0003 30.5495
" />
<path d="M59.0003 30.5495
L59.1213 30.6099
" />
<path d="M60.6332 30.0657
L59.5446 31.6985
" />
<path d="M61.0565 31.3961
L61.0565 30.1261
" />
<path d="M61.0565 30.6099
L61.1775 30.5495
" />
<path d="M61.1775 30.5495
L61.4194 30.5495
" />
<path d="M61.4194 30.5495
L61.5403 30.6099
" />
<path d="M61.5403 30.6099
L61.6008 30.6704
" />
<path d="M61.6008 30.6704
L61.6613 30.7914
" />
<path d="M61.6613 30.7914
L61.6613 31.1542
" />
<path d="M61.6613 31.1542
L61.6008 31.2752
" />
<path d="M61.6008 31.2752
L61.5403 31.3357
" />
<path d="M61.5403 31.3357
L61.4194 31.3961
" />
<path d="M61.4194 31.3961
L61.1775 31.3961
" />
<path d="M61.1775 31.3961
L61.0565 31.3357
" />
<path d="M62.1451 31.3357
L62.2660 31.3961
" />
<path d="M62.2660 31.3961
L62.5079 31.3961
" />
<path d="M62.5079 31.3961
L62.6289 31.3357
" />
<path d="M62.6289 31.3357
L62.6893 31.2147
" />
<path d="M62.6893 31.2147
L62.6893 31.1542
" />
<path d="M62.6893 31.1542
L62.6289 31.0333
" />
<path d="M62.6289 31.0333
L62.5079 30.9728
" />
<path d="M62.5079 30.9728
L62.3265 30.9728
" />
<path d="M62.3265 30.9728
L62.2055 30.9123
" />
<path d="M62.2055 30.9123
L62.1451 30.7914
" />
<path d="M62.1451 30.7914
L62.1451 30.7309
" />
<path d="M62.1451 30.7309
L62.2055 30.6099
" />
<path d="M62.2055 30.6099
L62.3265 30.5495
" />
<path d="M62.3265 30.5495
L62.5079 30.5495
" />
<path d="M62.5079 30.5495
L62.6289 30.6099
" />
<path d="M63.2336 31.3961
L63.2336 30.1261
" />
<path d="M63.3546 30.9123
L63.7174 31.3961
" />
<path d="M63.7174 30.5495
L63.2336 31.0333
" />
<path d="M64.2617 30.9123
L65.2294 30.9123
" />
<path d="M65.8341 30.5495
L65.8341 31.8195
" />
<path d="M65.8341 30.6099
L65.9551 30.5495
" />
<path d="M65.9551 30.5495
L66.1970 30.5495
" />
<path d="M66.1970 30.5495
L66.3179 30.6099
" />
<path d="M66.3179 30.6099
L66.3784 30.6704
" />
<path d="M66.3784 30.6704
L66.4389 30.7914
" />
<path d="M66.4389 30.7914
L66.4389 31.1542
" />
<path d="M66.4389 31.1542
L66.3784 31.2752
" />
<path d="M66.3784 31.2752
L66.3179 31.3357
" />
<path d="M66.3179 31.3357
L66.1970 31.3961
" />
<path d="M66.1970 31.3961
L65.9551 31.3961
" />
<path d="M65.9551 31.3961
L65.8341 31.3357
" />
<path d="M67.5274 31.3961
L67.5274 30.1261
" />
<path d="M67.5274 31.3357
L67.4065 31.3961
" />
<path d="M67.4065 31.3961
L67.1646 31.3961
" />
<path d="M67.1646 31.3961
L67.0436 31.3357
" />
<path d="M67.0436 31.3357
L66.9831 31.2752
" />
<path d="M66.9831 31.2752
L66.9227 31.1542
" />
<path d="M66.9227 31.1542
L66.9227 30.7914
" />
<path d="M66.9227 30.7914
L66.9831 30.6704
" />
<path d="M66.9831 30.6704
L67.0436 30.6099
" />
<path d="M67.0436 30.6099
L67.1646 30.5495
" />
<path d="M67.1646 30.5495
L67.4065 30.5495
" />
<path d="M67.4065 30.5495
L67.5274 30.6099
" />
<path d="M67.9507 30.5495
L68.4345 30.5495
" />
<path d="M68.1321 31.3961
L68.1321 30.3076
" />
<path d="M68.1321 30.3076
L68.1926 30.1866
" />
<path d="M68.1926 30.1866
L68.3136 30.1261
" />
<path d="M68.3136 30.1261
L68.4345 30.1261
" />
<path d="M68.8578 30.9123
L69.8255 30.9123
" />
<path d="M70.4302 31.3961
L70.4302 30.5495
" />
<path d="M70.4302 30.6704
L70.4907 30.6099
" />
<path d="M70.4907 30.6099
L70.6117 30.5495
" />
<path d="M70.6117 30.5495
L70.7931 30.5495
" />
<path d="M70.7931 30.5495
L70.9140 30.6099
" />
<path d="M70.9140 30.6099
L70.9745 30.7309
" />
<path d="M70.9745 30.7309
L70.9745 31.3961
" />
<path d="M70.9745 30.7309
L71.0350 30.6099
" />
<path d="M71.0350 30.6099
L71.1559 30.5495
" />
<path d="M71.1559 30.5495
L71.3374 30.5495
" />
<path d="M71.3374 30.5495
L71.4583 30.6099
" />
<path d="M71.4583 30.6099
L71.5188 30.7309
" />
<path d="M71.5188 30.7309
L71.5188 31.3961
" />
<path d="M72.6678 31.3961
L72.6678 30.7309
" />
<path d="M72.6678 30.7309
L72.6073 30.6099
" />
<path d="M72.6073 30.6099
L72.4864 30.5495
" />
<path d="M72.4864 30.5495
L72.2445 30.5495
" />
<path d="M72.2445 30.5495
L72.1235 30.6099
" />
<path d="M72.6678 31.3357
L72.5469 31.3961
" />
<path d="M72.5469 31.3961
L72.2445 31.3961
" />
<path d="M72.2445 31.3961
L72.1235 31.3357
" />
<path d="M72.1235 31.3357
L72.0631 31.2147
" />
<path d="M72.0631 31.2147
L72.0631 31.0937
" />
<path d="M72.0631 31.0937
L72.1235 30.9728
" />
<path d="M72.1235 30.9728
L72.2445 30.9123
" />
<path d="M72.2445 30.9123
L72.5469 30.9123
" />
<path d="M72.5469 30.9123
L72.6678 30.8518
" />
<path d="M73.2725 30.5495
L73.2725 31.3961
" />
<path d="M73.2725 30.6704
L73.3330 30.6099
" />
<path d="M73.3330 30.6099
L73.4540 30.5495
" />
<path d="M73.4540 30.5495
L73.6354 30.5495
" />
<path d="M73.6354 30.5495
L73.7563 30.6099
" />
<path d="M73.7563 30.6099
L73.8168 30.7309
" />
<path d="M73.8168 30.7309
L73.8168 31.3961
" />
<path d="M74.9658 31.3961
L74.9658 30.7309
" />
<path d="M74.9658 30.7309
L74.9053 30.6099
" />
<path d="M74.9053 30.6099
L74.7844 30.5495
" />
<path d="M74.7844 30.5495
L74.5425 30.5495
" />
<path d="M74.5425 30.5495
L74.4215 30.6099
" />
<path d="M74.9658 31.3357
L74.8449 31.3961
" />
<path d="M74.8449 31.3961
L74.5425 31.3961
" />
<path d="M74.5425 31.3961
L74.4215 31.3357
" />
<path d="M74.4215 31.3357
L74.3611 31.2147
" />
<path d="M74.3611 31.2147
L74.3611 31.0937
" />
<path d="M74.3611 31.0937
L74.4215 30.9728
" />
<path d="M74.4215 30.9728
L74.5425 30.9123
" />
<path d="M74.5425 30.9123
L74.8449 30.9123
" />
<path d="M74.8449 30.9123
L74.9658 30.8518
" />
<path d="M76.1148 30.5495
L76.1148 31.5776
" />
<path d="M76.1148 31.5776
L76.0543 31.6985
" />
<path d="M76.0543 31.6985
L75.9939 31.7590
" />
<path d="M75.9939 31.7590
L75.8729 31.8195
" />
<path d="M75.8729 31.8195
L75.6915 31.8195
" />
<path d="M75.6915 31.8195
L75.5705 31.7590
" />
<path d="M76.1148 31.3357
L75.9939 31.3961
" />
<path d="M75.9939 31.3961
L75.7520 31.3961
" />
<path d="M75.7520 31.3961
L75.6310 31.3357
" />
<path d="M75.6310 31.3357
L75.5705 31.2752
" />
<path d="M75.5705 31.2752
L75.5101 31.1542
" />
<path d="M75.5101 31.1542
L75.5101 30.7914
" />
<path d="M75.5101 30.7914
L75.5705 30.6704
" />
<path d="M75.5705 30.6704
L75.6310 30.6099
" />
<path d="M75.6310 30.6099
L75.7520 30.5495
" />
<path d="M75.7520 30.5495
L75.9939 30.5495
" />
<path d="M75.9939 30.5495
L76.1148 30.6099
" />
<path d="M77.2033 31.3357
L77.0824 31.3961
" />
<path d="M77.0824 31.3961
L76.8405 31.3961
" />
<path d="M76.8405 31.3961
L76.7195 31.3357
" />
<path d="M76.7195 31.3357
L76.6591 31.2147
" />
<path d="M76.6591 31.2147
L76.6591 30.7309
" />
<path d="M76.6591 30.7309
L76.7195 30.6099
" />
<path d="M76.7195 30.6099
L76.8405 30.5495
" />
<path d="M76.8405 30.5495
L77.0824 30.5495
" />
<path d="M77.0824 30.5495
L77.2033 30.6099
" />
<path d="M77.2033 30.6099
L77.2638 30.7309
" />
<path d="M77.2638 30.7309
L77.2638 30.8518
" />
<path d="M77.2638 30.8518
L76.6591 30.9728
" />
<path d="M77.8081 31.3961
L77.8081 30.5495
" />
<path d="M77.8081 30.7914
L77.8686 30.6704
" />
<path d="M77.8686 30.6704
L77.9291 30.6099
" />
<path d="M77.9291 30.6099
L78.0500 30.5495
" />
<path d="M78.0500 30.5495
L78.1710 30.5495
" />
<path d="M79.5015 30.0657
L78.4129 31.6985
" />
<path d="M79.7434 30.1261
L80.4691 30.1261
" />
<path d="M80.1063 31.3961
L80.1063 30.1261
" />
<path d="M81.6181 31.2752
L81.5577 31.3357
" />
<path d="M81.5577 31.3357
L81.3762 31.3961
" />
<path d="M81.3762 31.3961
L81.2553 31.3961
" />
<path d="M81.2553 31.3961
L81.0739 31.3357
" />
<path d="M81.0739 31.3357
L80.9529 31.2147
" />
<path d="M80.9529 31.2147
L80.8924 31.0937
" />
<path d="M80.8924 31.0937
L80.8320 30.8518
" />
<path d="M80.8320 30.8518
L80.8320 30.6704
" />
<path d="M80.8320 30.6704
L80.8924 30.4285
" />
<path d="M80.8924 30.4285
L80.9529 30.3076
" />
<path d="M80.9529 30.3076
L81.0739 30.1866
" />
<path d="M81.0739 30.1866
L81.2553 30.1261
" />
<path d="M81.2553 30.1261
L81.3762 30.1261
" />
<path d="M81.3762 30.1261
L81.5577 30.1866
" />
<path d="M81.5577 30.1866
L81.6181 30.2471
" />
<path d="M82.1020 30.2471
L82.1624 30.1866
" />
<path d="M82.1624 30.1866
L82.2834 30.1261
" />
<path d="M82.2834 30.1261
L82.5858 30.1261
" />
<path d="M82.5858 30.1261
L82.7067 30.1866
" />
<path d="M82.7067 30.1866
L82.7672 30.2471
" />
<path d="M82.7672 30.2471
L82.8277 30.3680
" />
<path d="M82.8277 30.3680
L82.8277 30.4890
" />
<path d="M82.8277 30.4890
L82.7672 30.6704
" />
<path d="M82.7672 30.6704
L82.0415 31.3961
" />
<path d="M82.0415 31.3961
L82.8277 31.3961
" />
<path d="M83.6138 30.1261
L83.7348 30.1261
" />
<path d="M83.7348 30.1261
L83.8557 30.1866
" />
<path d="M83.8557 30.1866
L83.9162 30.2471
" />
<path d="M83.9162 30.2471
L83.9767 30.3680
" />
<path d="M83.9767 30.3680
L84.0372 30.6099
" />
<path d="M84.0372 30.6099
L84.0372 30.9123
" />
<path d="M84.0372 30.9123
L83.9767 31.1542
" />
<path d="M83.9767 31.1542
L83.9162 31.2752
" />
<path d="M83.9162 31.2752
L83.8557 31.3357
" />
<path d="M83.8557 31.3357
L83.7348 31.3961
" />
<path d="M83.7348 31.3961
L83.6138 31.3961
" />
<path d="M83.6138 31.3961
L83.4929 31.3357
" />
<path d="M83.4929 31.3357
L83.4324 31.2752
" />
<path d="M83.4324 31.2752
L83.3719 31.1542
" />
<path d="M83.3719 31.1542
L83.3115 30.9123
" />
<path d="M83.3115 30.9123
L83.3115 30.6099
" />
<path d="M83.3115 30.6099
L83.3719 30.3680
" />
<path d="M83.3719 30.3680
L83.4324 30.2471
" />
<path d="M83.4324 30.2471
L83.4929 30.1866
" />
<path d="M83.4929 30.1866
L83.6138 30.1261
" />
<path d="M84.4605 30.1261
L85.2467 30.1261
" />
<path d="M85.2467 30.1261
L84.8233 30.6099
" />
<path d="M84.8233 30.6099
L85.0048 30.6099
" />
<path d="M85.0048 30.6099
L85.1257 30.6704
" />
<path d="M85.1257 30.6704
L85.1862 30.7309
" />
<path d="M85.1862 30.7309
L85.2467 30.8518
" />
<path d="M85.2467 30.8518
L85.2467 31.1542
" />
<path d="M85.2467 31.1542
L85.1862 31.2752
" />
<path d="M85.1862 31.2752
L85.1257 31.3357
" />
<path d="M85.1257 31.3357
L85.0048 31.3961
" />
<path d="M85.0048 31.3961
L84.6419 31.3961
" />
<path d="M84.6419 31.3961
L84.5210 31.3357
" />
<path d="M84.5210 31.3357
L84.4605 31.2752
" />
<path d="M86.0328 30.1261
L86.1538 30.1261
" />
<path d="M86.1538 30.1261
L86.2747 30.1866
" />
<path d="M86.2747 30.1866
L86.3352 30.2471
" />
<path d="M86.3352 30.2471
L86.3957 30.3680
" />
<path d="M86.3957 30.3680
L86.4562 30.6099
" />
<path d="M86.4562 30.6099
L86.4562 30.9123
" />
<path d="M86.4562 30.9123
L86.3957 31.1542
" />
<path d="M86.3957 31.1542
L86.3352 31.2752
" />
<path d="M86.3352 31.2752
L86.2747 31.3357
" />
<path d="M86.2747 31.3357
L86.1538 31.3961
" />
<path d="M86.1538 31.3961
L86.0328 31.3961
" />
<path d="M86.0328 31.3961
L85.9119 31.3357
" />
<path d="M85.9119 31.3357
L85.8514 31.2752
" />
<path d="M85.8514 31.2752
L85.7909 31.1542
" />
<path d="M85.7909 31.1542
L85.7305 30.9123
" />
<path d="M85.7305 30.9123
L85.7305 30.6099
" />
<path d="M85.7305 30.6099
L85.7909 30.3680
" />
<path d="M85.7909 30.3680
L85.8514 30.2471
" />
<path d="M85.8514 30.2471
L85.9119 30.1866
" />
<path d="M85.9119 30.1866
L86.0328 30.1261
" />
<path d="M87.0004 30.9123
L87.9681 30.9123
" />
<path d="M89.2985 31.2752
L89.2381 31.3357
" />
<path d="M89.2381 31.3357
L89.0566 31.3961
" />
<path d="M89.0566 31.3961
L88.9357 31.3961
" />
<path d="M88.9357 31.3961
L88.7543 31.3357
" />
<path d="M88.7543 31.3357
L88.6333 31.2147
" />
<path d="M88.6333 31.2147
L88.5728 31.0937
" />
<path d="M88.5728 31.0937
L88.5124 30.8518
" />
<path d="M88.5124 30.8518
L88.5124 30.6704
" />
<path d="M88.5124 30.6704
L88.5728 30.4285
" />
<path d="M88.5728 30.4285
L88.6333 30.3076
" />
<path d="M88.6333 30.3076
L88.7543 30.1866
" />
<path d="M88.7543 30.1866
L88.9357 30.1261
" />
<path d="M88.9357 30.1261
L89.0566 30.1261
" />
<path d="M89.0566 30.1261
L89.2381 30.1866
" />
<path d="M89.2381 30.1866
L89.2985 30.2471
" />
<path d="M89.6614 30.1261
L90.3871 30.1261
" />
<path d="M90.0243 31.3961
L90.0243 30.1261
" />
<path d="M90.6895 30.1261
L91.5361 31.3961
" />
<path d="M91.5361 30.1261
L90.6895 31.3961
" />
<path d="M91.7176 31.5171
L92.6852 31.5171
" />
<path d="M93.6528 31.3961
L92.9271 31.3961
" />
<path d="M93.2899 31.3961
L93.2899 30.1261
" />
<path d="M93.2899 30.1261
L93.1690 30.3076
" />
<path d="M93.1690 30.3076
L93.0480 30.4285
" />
<path d="M93.0480 30.4285
L92.9271 30.4890
" />
<path d="M94.1970 31.2752
L94.2575 31.3357
" />
<path d="M94.2575 31.3357
L94.1970 31.3961
" />
<path d="M94.1970 31.3961
L94.1366 31.3357
" />
<path d="M94.1366 31.3357
L94.1970 31.2752
" />
<path d="M94.1970 31.2752
L94.1970 31.3961
" />
<path d="M94.8018 30.5495
L94.8018 31.8195
" />
<path d="M94.8018 30.6099
L94.9228 30.5495
" />
<path d="M94.9228 30.5495
L95.1647 30.5495
" />
<path d="M95.1647 30.5495
L95.2856 30.6099
" />
<path d="M95.2856 30.6099
L95.3461 30.6704
" />
<path d="M95.3461 30.6704
L95.4066 30.7914
" />
<path d="M95.4066 30.7914
L95.4066 31.1542
" />
<path d="M95.4066 31.1542
L95.3461 31.2752
" />
<path d="M95.3461 31.2752
L95.2856 31.3357
" />
<path d="M95.2856 31.3357
L95.1647 31.3961
" />
<path d="M95.1647 31.3961
L94.9228 31.3961
" />
<path d="M94.9228 31.3961
L94.8018 31.3357
" />
<path d="M96.4951 31.3961
L96.4951 30.1261
" />
<path d="M96.4951 31.3357
L96.3742 31.3961
" />
<path d="M96.3742 31.3961
L96.1323 31.3961
" />
<path d="M96.1323 31.3961
L96.0113 31.3357
" />
<path d="M96.0113 31.3357
L95.9508 31.2752
" />
<path d="M95.9508 31.2752
L95.8904 31.1542
" />
<path d="M95.8904 31.1542
L95.8904 30.7914
" />
<path d="M95.8904 30.7914
L95.9508 30.6704
" />
<path d="M95.9508 30.6704
L96.0113 30.6099
" />
<path d="M96.0113 30.6099
L96.1323 30.5495
" />
<path d="M96.1323 30.5495
L96.3742 30.5495
" />
<path d="M96.3742 30.5495
L96.4951 30.6099
" />
<path d="M96.9184 30.5495
L97.4022 30.5495
" />
<path d="M97.0998 31.3961
L97.0998 30.3076
" />
<path d="M97.0998 30.3076
L97.1603 30.1866
" />
<path d="M97.1603 30.1866
L97.2813 30.1261
" />
<path d="M97.2813 30.1261
L97.4022 30.1261
" />
</g></g> 
</svg>
