<?xml version="1.0" standalone="no"?>
 <!DOCTYPE svg PUBLIC "-//W3C//DTD SVG 1.1//EN" 
 "http://www.w3.org/Graphics/SVG/1.1/DTD/svg11.dtd"> 
<svg
  xmlns:svg="http://www.w3.org/2000/svg"
  xmlns="http://www.w3.org/2000/svg"
  xmlns:xlink="http://www.w3.org/1999/xlink"
  version="1.1"
  width="91.0336mm" height="60.3758mm" viewBox="0.0000 0.0000 91.0336 60.3758">
<title>SVG Image created as working.svg date 2023/08/19 18:02:48 </title>
  <desc>Image generated by Eeschema-SVG </desc>
<g style="fill:#000000; fill-opacity:1.0000;stroke:#000000; stroke-opacity:1.0000;
stroke-linecap:round; stroke-linejoin:round;"
 transform="translate(0 0) scale(1 1)">
</g>
<g style="fill:#840000; fill-opacity:0.0; 
stroke:#840000; stroke-width:0.0000; stroke-opacity:1; 
stroke-linecap:round; stroke-linejoin:round;">
</g>
<g style="fill:#840084; fill-opacity:0.0; 
stroke:#840084; stroke-width:0.0000; stroke-opacity:1; 
stroke-linecap:round; stroke-linejoin:round;">
</g>
<g style="fill:#840000; fill-opacity:0.0; 
stroke:#840000; stroke-width:0.0000; stroke-opacity:1; 
stroke-linecap:round; stroke-linejoin:round;">
</g>
<g style="fill:#840084; fill-opacity:0.0; 
stroke:#840084; stroke-width:0.0000; stroke-opacity:1; 
stroke-linecap:round; stroke-linejoin:round;">
</g>
<g style="fill:#006464; fill-opacity:0.0; 
stroke:#006464; stroke-width:0.0000; stroke-opacity:1; 
stroke-linecap:round; stroke-linejoin:round;">
</g>
<g style="fill:#006464; fill-opacity:0.0; 
stroke:#006464; stroke-width:0.1588; stroke-opacity:1; 
stroke-linecap:round; stroke-linejoin:round;">
<text x="16.1244" y="6.6869"
textLength="3.1858" font-size="1.6933" lengthAdjust="spacingAndGlyphs"
text-anchor="middle" opacity="0">IC?</text>
<g class="stroked-text"><desc>IC?</desc>
<path d="M14.9450 6.6311
L14.9450 5.3611
" />
<path d="M16.2755 6.5102
L16.2151 6.5707
" />
<path d="M16.2151 6.5707
L16.0336 6.6311
" />
<path d="M16.0336 6.6311
L15.9127 6.6311
" />
<path d="M15.9127 6.6311
L15.7313 6.5707
" />
<path d="M15.7313 6.5707
L15.6103 6.4497
" />
<path d="M15.6103 6.4497
L15.5498 6.3287
" />
<path d="M15.5498 6.3287
L15.4894 6.0868
" />
<path d="M15.4894 6.0868
L15.4894 5.9054
" />
<path d="M15.4894 5.9054
L15.5498 5.6635
" />
<path d="M15.5498 5.6635
L15.6103 5.5426
" />
<path d="M15.6103 5.5426
L15.7313 5.4216
" />
<path d="M15.7313 5.4216
L15.9127 5.3611
" />
<path d="M15.9127 5.3611
L16.0336 5.3611
" />
<path d="M16.0336 5.3611
L16.2151 5.4216
" />
<path d="M16.2151 5.4216
L16.2755 5.4821
" />
<path d="M17.0013 6.5102
L17.0617 6.5707
" />
<path d="M17.0617 6.5707
L17.0013 6.6311
" />
<path d="M17.0013 6.6311
L16.9408 6.5707
" />
<path d="M16.9408 6.5707
L17.0013 6.5102
" />
<path d="M17.0013 6.5102
L17.0013 6.6311
" />
<path d="M16.7594 5.4216
L16.8803 5.3611
" />
<path d="M16.8803 5.3611
L17.1827 5.3611
" />
<path d="M17.1827 5.3611
L17.3036 5.4216
" />
<path d="M17.3036 5.4216
L17.3641 5.5426
" />
<path d="M17.3641 5.5426
L17.3641 5.6635
" />
<path d="M17.3641 5.6635
L17.3036 5.7845
" />
<path d="M17.3036 5.7845
L17.2432 5.8449
" />
<path d="M17.2432 5.8449
L17.1222 5.9054
" />
<path d="M17.1222 5.9054
L17.0617 5.9659
" />
<path d="M17.0617 5.9659
L17.0013 6.0868
" />
<path d="M17.0013 6.0868
L17.0013 6.1473
" />
</g><text x="47.3194" y="6.6869"
textLength="15.7041" font-size="1.6933" lengthAdjust="spacingAndGlyphs"
text-anchor="middle" opacity="0">MC9S08SG16xTL</text>
<g class="stroked-text"><desc>MC9S08SG16xTL</desc>
<path d="M39.8809 6.6311
L39.8809 5.3611
" />
<path d="M39.8809 5.3611
L40.3043 6.2683
" />
<path d="M40.3043 6.2683
L40.7276 5.3611
" />
<path d="M40.7276 5.3611
L40.7276 6.6311
" />
<path d="M42.0580 6.5102
L41.9976 6.5707
" />
<path d="M41.9976 6.5707
L41.8161 6.6311
" />
<path d="M41.8161 6.6311
L41.6952 6.6311
" />
<path d="M41.6952 6.6311
L41.5138 6.5707
" />
<path d="M41.5138 6.5707
L41.3928 6.4497
" />
<path d="M41.3928 6.4497
L41.3323 6.3287
" />
<path d="M41.3323 6.3287
L41.2719 6.0868
" />
<path d="M41.2719 6.0868
L41.2719 5.9054
" />
<path d="M41.2719 5.9054
L41.3323 5.6635
" />
<path d="M41.3323 5.6635
L41.3928 5.5426
" />
<path d="M41.3928 5.5426
L41.5138 5.4216
" />
<path d="M41.5138 5.4216
L41.6952 5.3611
" />
<path d="M41.6952 5.3611
L41.8161 5.3611
" />
<path d="M41.8161 5.3611
L41.9976 5.4216
" />
<path d="M41.9976 5.4216
L42.0580 5.4821
" />
<path d="M42.6628 6.6311
L42.9047 6.6311
" />
<path d="M42.9047 6.6311
L43.0257 6.5707
" />
<path d="M43.0257 6.5707
L43.0861 6.5102
" />
<path d="M43.0861 6.5102
L43.2071 6.3287
" />
<path d="M43.2071 6.3287
L43.2676 6.0868
" />
<path d="M43.2676 6.0868
L43.2676 5.6030
" />
<path d="M43.2676 5.6030
L43.2071 5.4821
" />
<path d="M43.2071 5.4821
L43.1466 5.4216
" />
<path d="M43.1466 5.4216
L43.0257 5.3611
" />
<path d="M43.0257 5.3611
L42.7838 5.3611
" />
<path d="M42.7838 5.3611
L42.6628 5.4216
" />
<path d="M42.6628 5.4216
L42.6023 5.4821
" />
<path d="M42.6023 5.4821
L42.5419 5.6030
" />
<path d="M42.5419 5.6030
L42.5419 5.9054
" />
<path d="M42.5419 5.9054
L42.6023 6.0264
" />
<path d="M42.6023 6.0264
L42.6628 6.0868
" />
<path d="M42.6628 6.0868
L42.7838 6.1473
" />
<path d="M42.7838 6.1473
L43.0257 6.1473
" />
<path d="M43.0257 6.1473
L43.1466 6.0868
" />
<path d="M43.1466 6.0868
L43.2071 6.0264
" />
<path d="M43.2071 6.0264
L43.2676 5.9054
" />
<path d="M43.7514 6.5707
L43.9328 6.6311
" />
<path d="M43.9328 6.6311
L44.2352 6.6311
" />
<path d="M44.2352 6.6311
L44.3561 6.5707
" />
<path d="M44.3561 6.5707
L44.4166 6.5102
" />
<path d="M44.4166 6.5102
L44.4771 6.3892
" />
<path d="M44.4771 6.3892
L44.4771 6.2683
" />
<path d="M44.4771 6.2683
L44.4166 6.1473
" />
<path d="M44.4166 6.1473
L44.3561 6.0868
" />
<path d="M44.3561 6.0868
L44.2352 6.0264
" />
<path d="M44.2352 6.0264
L43.9933 5.9659
" />
<path d="M43.9933 5.9659
L43.8723 5.9054
" />
<path d="M43.8723 5.9054
L43.8118 5.8449
" />
<path d="M43.8118 5.8449
L43.7514 5.7240
" />
<path d="M43.7514 5.7240
L43.7514 5.6030
" />
<path d="M43.7514 5.6030
L43.8118 5.4821
" />
<path d="M43.8118 5.4821
L43.8723 5.4216
" />
<path d="M43.8723 5.4216
L43.9933 5.3611
" />
<path d="M43.9933 5.3611
L44.2956 5.3611
" />
<path d="M44.2956 5.3611
L44.4771 5.4216
" />
<path d="M45.2632 5.3611
L45.3842 5.3611
" />
<path d="M45.3842 5.3611
L45.5051 5.4216
" />
<path d="M45.5051 5.4216
L45.5656 5.4821
" />
<path d="M45.5656 5.4821
L45.6261 5.6030
" />
<path d="M45.6261 5.6030
L45.6866 5.8449
" />
<path d="M45.6866 5.8449
L45.6866 6.1473
" />
<path d="M45.6866 6.1473
L45.6261 6.3892
" />
<path d="M45.6261 6.3892
L45.5656 6.5102
" />
<path d="M45.5656 6.5102
L45.5051 6.5707
" />
<path d="M45.5051 6.5707
L45.3842 6.6311
" />
<path d="M45.3842 6.6311
L45.2632 6.6311
" />
<path d="M45.2632 6.6311
L45.1423 6.5707
" />
<path d="M45.1423 6.5707
L45.0818 6.5102
" />
<path d="M45.0818 6.5102
L45.0213 6.3892
" />
<path d="M45.0213 6.3892
L44.9609 6.1473
" />
<path d="M44.9609 6.1473
L44.9609 5.8449
" />
<path d="M44.9609 5.8449
L45.0213 5.6030
" />
<path d="M45.0213 5.6030
L45.0818 5.4821
" />
<path d="M45.0818 5.4821
L45.1423 5.4216
" />
<path d="M45.1423 5.4216
L45.2632 5.3611
" />
<path d="M46.4123 5.9054
L46.2913 5.8449
" />
<path d="M46.2913 5.8449
L46.2308 5.7845
" />
<path d="M46.2308 5.7845
L46.1704 5.6635
" />
<path d="M46.1704 5.6635
L46.1704 5.6030
" />
<path d="M46.1704 5.6030
L46.2308 5.4821
" />
<path d="M46.2308 5.4821
L46.2913 5.4216
" />
<path d="M46.2913 5.4216
L46.4123 5.3611
" />
<path d="M46.4123 5.3611
L46.6542 5.3611
" />
<path d="M46.6542 5.3611
L46.7751 5.4216
" />
<path d="M46.7751 5.4216
L46.8356 5.4821
" />
<path d="M46.8356 5.4821
L46.8961 5.6030
" />
<path d="M46.8961 5.6030
L46.8961 5.6635
" />
<path d="M46.8961 5.6635
L46.8356 5.7845
" />
<path d="M46.8356 5.7845
L46.7751 5.8449
" />
<path d="M46.7751 5.8449
L46.6542 5.9054
" />
<path d="M46.6542 5.9054
L46.4123 5.9054
" />
<path d="M46.4123 5.9054
L46.2913 5.9659
" />
<path d="M46.2913 5.9659
L46.2308 6.0264
" />
<path d="M46.2308 6.0264
L46.1704 6.1473
" />
<path d="M46.1704 6.1473
L46.1704 6.3892
" />
<path d="M46.1704 6.3892
L46.2308 6.5102
" />
<path d="M46.2308 6.5102
L46.2913 6.5707
" />
<path d="M46.2913 6.5707
L46.4123 6.6311
" />
<path d="M46.4123 6.6311
L46.6542 6.6311
" />
<path d="M46.6542 6.6311
L46.7751 6.5707
" />
<path d="M46.7751 6.5707
L46.8356 6.5102
" />
<path d="M46.8356 6.5102
L46.8961 6.3892
" />
<path d="M46.8961 6.3892
L46.8961 6.1473
" />
<path d="M46.8961 6.1473
L46.8356 6.0264
" />
<path d="M46.8356 6.0264
L46.7751 5.9659
" />
<path d="M46.7751 5.9659
L46.6542 5.9054
" />
<path d="M47.3799 6.5707
L47.5613 6.6311
" />
<path d="M47.5613 6.6311
L47.8637 6.6311
" />
<path d="M47.8637 6.6311
L47.9846 6.5707
" />
<path d="M47.9846 6.5707
L48.0451 6.5102
" />
<path d="M48.0451 6.5102
L48.1056 6.3892
" />
<path d="M48.1056 6.3892
L48.1056 6.2683
" />
<path d="M48.1056 6.2683
L48.0451 6.1473
" />
<path d="M48.0451 6.1473
L47.9846 6.0868
" />
<path d="M47.9846 6.0868
L47.8637 6.0264
" />
<path d="M47.8637 6.0264
L47.6218 5.9659
" />
<path d="M47.6218 5.9659
L47.5008 5.9054
" />
<path d="M47.5008 5.9054
L47.4403 5.8449
" />
<path d="M47.4403 5.8449
L47.3799 5.7240
" />
<path d="M47.3799 5.7240
L47.3799 5.6030
" />
<path d="M47.3799 5.6030
L47.4403 5.4821
" />
<path d="M47.4403 5.4821
L47.5008 5.4216
" />
<path d="M47.5008 5.4216
L47.6218 5.3611
" />
<path d="M47.6218 5.3611
L47.9241 5.3611
" />
<path d="M47.9241 5.3611
L48.1056 5.4216
" />
<path d="M49.3151 5.4216
L49.1941 5.3611
" />
<path d="M49.1941 5.3611
L49.0127 5.3611
" />
<path d="M49.0127 5.3611
L48.8313 5.4216
" />
<path d="M48.8313 5.4216
L48.7103 5.5426
" />
<path d="M48.7103 5.5426
L48.6498 5.6635
" />
<path d="M48.6498 5.6635
L48.5894 5.9054
" />
<path d="M48.5894 5.9054
L48.5894 6.0868
" />
<path d="M48.5894 6.0868
L48.6498 6.3287
" />
<path d="M48.6498 6.3287
L48.7103 6.4497
" />
<path d="M48.7103 6.4497
L48.8313 6.5707
" />
<path d="M48.8313 6.5707
L49.0127 6.6311
" />
<path d="M49.0127 6.6311
L49.1336 6.6311
" />
<path d="M49.1336 6.6311
L49.3151 6.5707
" />
<path d="M49.3151 6.5707
L49.3755 6.5102
" />
<path d="M49.3755 6.5102
L49.3755 6.0868
" />
<path d="M49.3755 6.0868
L49.1336 6.0868
" />
<path d="M50.5851 6.6311
L49.8594 6.6311
" />
<path d="M50.2222 6.6311
L50.2222 5.3611
" />
<path d="M50.2222 5.3611
L50.1013 5.5426
" />
<path d="M50.1013 5.5426
L49.9803 5.6635
" />
<path d="M49.9803 5.6635
L49.8594 5.7240
" />
<path d="M51.6736 5.3611
L51.4317 5.3611
" />
<path d="M51.4317 5.3611
L51.3108 5.4216
" />
<path d="M51.3108 5.4216
L51.2503 5.4821
" />
<path d="M51.2503 5.4821
L51.1293 5.6635
" />
<path d="M51.1293 5.6635
L51.0689 5.9054
" />
<path d="M51.0689 5.9054
L51.0689 6.3892
" />
<path d="M51.0689 6.3892
L51.1293 6.5102
" />
<path d="M51.1293 6.5102
L51.1898 6.5707
" />
<path d="M51.1898 6.5707
L51.3108 6.6311
" />
<path d="M51.3108 6.6311
L51.5527 6.6311
" />
<path d="M51.5527 6.6311
L51.6736 6.5707
" />
<path d="M51.6736 6.5707
L51.7341 6.5102
" />
<path d="M51.7341 6.5102
L51.7946 6.3892
" />
<path d="M51.7946 6.3892
L51.7946 6.0868
" />
<path d="M51.7946 6.0868
L51.7341 5.9659
" />
<path d="M51.7341 5.9659
L51.6736 5.9054
" />
<path d="M51.6736 5.9054
L51.5527 5.8449
" />
<path d="M51.5527 5.8449
L51.3108 5.8449
" />
<path d="M51.3108 5.8449
L51.1898 5.9054
" />
<path d="M51.1898 5.9054
L51.1293 5.9659
" />
<path d="M51.1293 5.9659
L51.0689 6.0868
" />
<path d="M52.2179 6.6311
L52.8831 5.7845
" />
<path d="M52.2179 5.7845
L52.8831 6.6311
" />
<path d="M53.1855 5.3611
L53.9112 5.3611
" />
<path d="M53.5484 6.6311
L53.5484 5.3611
" />
<path d="M54.9393 6.6311
L54.3345 6.6311
" />
<path d="M54.3345 6.6311
L54.3345 5.3611
" />
</g></g>
<g style="fill:#840084; fill-opacity:0.0; 
stroke:#840084; stroke-width:0.1588; stroke-opacity:1; 
stroke-linecap:round; stroke-linejoin:round;">
<text x="61.6930" y="54.9469"
textLength="43.5230" font-size="1.6933" lengthAdjust="spacingAndGlyphs"
text-anchor="middle" opacity="0">Package_SO:TSSOP-28_4.4x9.7mm_P0.65mm</text>
<g class="stroked-text"><desc>Package_SO:TSSOP-28_4.4x9.7mm_P0.65mm</desc>
<path d="M40.3375 54.8911
L40.4962 53.6211
" />
<path d="M40.4962 53.6211
L40.9800 53.6211
" />
<path d="M40.9800 53.6211
L41.0934 53.6816
" />
<path d="M41.0934 53.6816
L41.1463 53.7421
" />
<path d="M41.1463 53.7421
L41.1917 53.8630
" />
<path d="M41.1917 53.8630
L41.1690 54.0445
" />
<path d="M41.1690 54.0445
L41.0934 54.1654
" />
<path d="M41.0934 54.1654
L41.0254 54.2259
" />
<path d="M41.0254 54.2259
L40.8969 54.2864
" />
<path d="M40.8969 54.2864
L40.4131 54.2864
" />
<path d="M42.1518 54.8911
L42.2349 54.2259
" />
<path d="M42.2349 54.2259
L42.1896 54.1049
" />
<path d="M42.1896 54.1049
L42.0762 54.0445
" />
<path d="M42.0762 54.0445
L41.8343 54.0445
" />
<path d="M41.8343 54.0445
L41.7057 54.1049
" />
<path d="M42.1593 54.8307
L42.0308 54.8911
" />
<path d="M42.0308 54.8911
L41.7284 54.8911
" />
<path d="M41.7284 54.8911
L41.6150 54.8307
" />
<path d="M41.6150 54.8307
L41.5697 54.7097
" />
<path d="M41.5697 54.7097
L41.5848 54.5887
" />
<path d="M41.5848 54.5887
L41.6604 54.4678
" />
<path d="M41.6604 54.4678
L41.7889 54.4073
" />
<path d="M41.7889 54.4073
L42.0913 54.4073
" />
<path d="M42.0913 54.4073
L42.2198 54.3468
" />
<path d="M43.3083 54.8307
L43.1798 54.8911
" />
<path d="M43.1798 54.8911
L42.9379 54.8911
" />
<path d="M42.9379 54.8911
L42.8245 54.8307
" />
<path d="M42.8245 54.8307
L42.7716 54.7702
" />
<path d="M42.7716 54.7702
L42.7262 54.6492
" />
<path d="M42.7262 54.6492
L42.7716 54.2864
" />
<path d="M42.7716 54.2864
L42.8472 54.1654
" />
<path d="M42.8472 54.1654
L42.9152 54.1049
" />
<path d="M42.9152 54.1049
L43.0437 54.0445
" />
<path d="M43.0437 54.0445
L43.2856 54.0445
" />
<path d="M43.2856 54.0445
L43.3990 54.1049
" />
<path d="M43.8451 54.8911
L44.0038 53.6211
" />
<path d="M44.0265 54.4073
L44.3289 54.8911
" />
<path d="M44.4347 54.0445
L43.8904 54.5283
" />
<path d="M45.4175 54.8911
L45.5006 54.2259
" />
<path d="M45.5006 54.2259
L45.4553 54.1049
" />
<path d="M45.4553 54.1049
L45.3419 54.0445
" />
<path d="M45.3419 54.0445
L45.1000 54.0445
" />
<path d="M45.1000 54.0445
L44.9714 54.1049
" />
<path d="M45.4250 54.8307
L45.2965 54.8911
" />
<path d="M45.2965 54.8911
L44.9941 54.8911
" />
<path d="M44.9941 54.8911
L44.8807 54.8307
" />
<path d="M44.8807 54.8307
L44.8354 54.7097
" />
<path d="M44.8354 54.7097
L44.8505 54.5887
" />
<path d="M44.8505 54.5887
L44.9261 54.4678
" />
<path d="M44.9261 54.4678
L45.0546 54.4073
" />
<path d="M45.0546 54.4073
L45.3570 54.4073
" />
<path d="M45.3570 54.4073
L45.4855 54.3468
" />
<path d="M46.6723 54.0445
L46.5438 55.0726
" />
<path d="M46.5438 55.0726
L46.4682 55.1935
" />
<path d="M46.4682 55.1935
L46.4001 55.2540
" />
<path d="M46.4001 55.2540
L46.2716 55.3145
" />
<path d="M46.2716 55.3145
L46.0902 55.3145
" />
<path d="M46.0902 55.3145
L45.9768 55.2540
" />
<path d="M46.5740 54.8307
L46.4455 54.8911
" />
<path d="M46.4455 54.8911
L46.2036 54.8911
" />
<path d="M46.2036 54.8911
L46.0902 54.8307
" />
<path d="M46.0902 54.8307
L46.0373 54.7702
" />
<path d="M46.0373 54.7702
L45.9919 54.6492
" />
<path d="M45.9919 54.6492
L46.0373 54.2864
" />
<path d="M46.0373 54.2864
L46.1129 54.1654
" />
<path d="M46.1129 54.1654
L46.1809 54.1049
" />
<path d="M46.1809 54.1049
L46.3094 54.0445
" />
<path d="M46.3094 54.0445
L46.5513 54.0445
" />
<path d="M46.5513 54.0445
L46.6647 54.1049
" />
<path d="M47.6625 54.8307
L47.5340 54.8911
" />
<path d="M47.5340 54.8911
L47.2921 54.8911
" />
<path d="M47.2921 54.8911
L47.1787 54.8307
" />
<path d="M47.1787 54.8307
L47.1334 54.7097
" />
<path d="M47.1334 54.7097
L47.1939 54.2259
" />
<path d="M47.1939 54.2259
L47.2694 54.1049
" />
<path d="M47.2694 54.1049
L47.3980 54.0445
" />
<path d="M47.3980 54.0445
L47.6399 54.0445
" />
<path d="M47.6399 54.0445
L47.7533 54.1049
" />
<path d="M47.7533 54.1049
L47.7986 54.2259
" />
<path d="M47.7986 54.2259
L47.7835 54.3468
" />
<path d="M47.7835 54.3468
L47.1636 54.4678
" />
<path d="M47.9423 55.0121
L48.9099 55.0121
" />
<path d="M49.1745 54.8307
L49.3483 54.8911
" />
<path d="M49.3483 54.8911
L49.6507 54.8911
" />
<path d="M49.6507 54.8911
L49.7792 54.8307
" />
<path d="M49.7792 54.8307
L49.8473 54.7702
" />
<path d="M49.8473 54.7702
L49.9228 54.6492
" />
<path d="M49.9228 54.6492
L49.9380 54.5283
" />
<path d="M49.9380 54.5283
L49.8926 54.4073
" />
<path d="M49.8926 54.4073
L49.8397 54.3468
" />
<path d="M49.8397 54.3468
L49.7263 54.2864
" />
<path d="M49.7263 54.2864
L49.4920 54.2259
" />
<path d="M49.4920 54.2259
L49.3786 54.1654
" />
<path d="M49.3786 54.1654
L49.3256 54.1049
" />
<path d="M49.3256 54.1049
L49.2803 53.9840
" />
<path d="M49.2803 53.9840
L49.2954 53.8630
" />
<path d="M49.2954 53.8630
L49.3710 53.7421
" />
<path d="M49.3710 53.7421
L49.4390 53.6816
" />
<path d="M49.4390 53.6816
L49.5676 53.6211
" />
<path d="M49.5676 53.6211
L49.8699 53.6211
" />
<path d="M49.8699 53.6211
L50.0438 53.6816
" />
<path d="M50.8375 53.6211
L51.0794 53.6211
" />
<path d="M51.0794 53.6211
L51.1928 53.6816
" />
<path d="M51.1928 53.6816
L51.2987 53.8026
" />
<path d="M51.2987 53.8026
L51.3289 54.0445
" />
<path d="M51.3289 54.0445
L51.2760 54.4678
" />
<path d="M51.2760 54.4678
L51.1853 54.7097
" />
<path d="M51.1853 54.7097
L51.0492 54.8307
" />
<path d="M51.0492 54.8307
L50.9207 54.8911
" />
<path d="M50.9207 54.8911
L50.6788 54.8911
" />
<path d="M50.6788 54.8911
L50.5654 54.8307
" />
<path d="M50.5654 54.8307
L50.4596 54.7097
" />
<path d="M50.4596 54.7097
L50.4293 54.4678
" />
<path d="M50.4293 54.4678
L50.4822 54.0445
" />
<path d="M50.4822 54.0445
L50.5729 53.8026
" />
<path d="M50.5729 53.8026
L50.7090 53.6816
" />
<path d="M50.7090 53.6816
L50.8375 53.6211
" />
<path d="M51.7825 54.7702
L51.8354 54.8307
" />
<path d="M51.8354 54.8307
L51.7674 54.8911
" />
<path d="M51.7674 54.8911
L51.7145 54.8307
" />
<path d="M51.7145 54.8307
L51.7825 54.7702
" />
<path d="M51.7825 54.7702
L51.7674 54.8911
" />
<path d="M51.8656 54.1049
L51.9186 54.1654
" />
<path d="M51.9186 54.1654
L51.8505 54.2259
" />
<path d="M51.8505 54.2259
L51.7976 54.1654
" />
<path d="M51.7976 54.1654
L51.8656 54.1049
" />
<path d="M51.8656 54.1049
L51.8505 54.2259
" />
<path d="M52.3495 53.6211
L53.0752 53.6211
" />
<path d="M52.5536 54.8911
L52.7124 53.6211
" />
<path d="M53.2869 54.8307
L53.4607 54.8911
" />
<path d="M53.4607 54.8911
L53.7631 54.8911
" />
<path d="M53.7631 54.8911
L53.8916 54.8307
" />
<path d="M53.8916 54.8307
L53.9597 54.7702
" />
<path d="M53.9597 54.7702
L54.0352 54.6492
" />
<path d="M54.0352 54.6492
L54.0504 54.5283
" />
<path d="M54.0504 54.5283
L54.0050 54.4073
" />
<path d="M54.0050 54.4073
L53.9521 54.3468
" />
<path d="M53.9521 54.3468
L53.8387 54.2864
" />
<path d="M53.8387 54.2864
L53.6044 54.2259
" />
<path d="M53.6044 54.2259
L53.4910 54.1654
" />
<path d="M53.4910 54.1654
L53.4380 54.1049
" />
<path d="M53.4380 54.1049
L53.3927 53.9840
" />
<path d="M53.3927 53.9840
L53.4078 53.8630
" />
<path d="M53.4078 53.8630
L53.4834 53.7421
" />
<path d="M53.4834 53.7421
L53.5514 53.6816
" />
<path d="M53.5514 53.6816
L53.6800 53.6211
" />
<path d="M53.6800 53.6211
L53.9823 53.6211
" />
<path d="M53.9823 53.6211
L54.1562 53.6816
" />
<path d="M54.4964 54.8307
L54.6702 54.8911
" />
<path d="M54.6702 54.8911
L54.9726 54.8911
" />
<path d="M54.9726 54.8911
L55.1011 54.8307
" />
<path d="M55.1011 54.8307
L55.1692 54.7702
" />
<path d="M55.1692 54.7702
L55.2447 54.6492
" />
<path d="M55.2447 54.6492
L55.2599 54.5283
" />
<path d="M55.2599 54.5283
L55.2145 54.4073
" />
<path d="M55.2145 54.4073
L55.1616 54.3468
" />
<path d="M55.1616 54.3468
L55.0482 54.2864
" />
<path d="M55.0482 54.2864
L54.8139 54.2259
" />
<path d="M54.8139 54.2259
L54.7005 54.1654
" />
<path d="M54.7005 54.1654
L54.6475 54.1049
" />
<path d="M54.6475 54.1049
L54.6022 53.9840
" />
<path d="M54.6022 53.9840
L54.6173 53.8630
" />
<path d="M54.6173 53.8630
L54.6929 53.7421
" />
<path d="M54.6929 53.7421
L54.7609 53.6816
" />
<path d="M54.7609 53.6816
L54.8895 53.6211
" />
<path d="M54.8895 53.6211
L55.1918 53.6211
" />
<path d="M55.1918 53.6211
L55.3657 53.6816
" />
<path d="M56.1594 53.6211
L56.4013 53.6211
" />
<path d="M56.4013 53.6211
L56.5147 53.6816
" />
<path d="M56.5147 53.6816
L56.6206 53.8026
" />
<path d="M56.6206 53.8026
L56.6508 54.0445
" />
<path d="M56.6508 54.0445
L56.5979 54.4678
" />
<path d="M56.5979 54.4678
L56.5072 54.7097
" />
<path d="M56.5072 54.7097
L56.3711 54.8307
" />
<path d="M56.3711 54.8307
L56.2426 54.8911
" />
<path d="M56.2426 54.8911
L56.0007 54.8911
" />
<path d="M56.0007 54.8911
L55.8873 54.8307
" />
<path d="M55.8873 54.8307
L55.7815 54.7097
" />
<path d="M55.7815 54.7097
L55.7512 54.4678
" />
<path d="M55.7512 54.4678
L55.8041 54.0445
" />
<path d="M55.8041 54.0445
L55.8948 53.8026
" />
<path d="M55.8948 53.8026
L56.0309 53.6816
" />
<path d="M56.0309 53.6816
L56.1594 53.6211
" />
<path d="M57.0893 54.8911
L57.2480 53.6211
" />
<path d="M57.2480 53.6211
L57.7318 53.6211
" />
<path d="M57.7318 53.6211
L57.8452 53.6816
" />
<path d="M57.8452 53.6816
L57.8981 53.7421
" />
<path d="M57.8981 53.7421
L57.9435 53.8630
" />
<path d="M57.9435 53.8630
L57.9208 54.0445
" />
<path d="M57.9208 54.0445
L57.8452 54.1654
" />
<path d="M57.8452 54.1654
L57.7772 54.2259
" />
<path d="M57.7772 54.2259
L57.6487 54.2864
" />
<path d="M57.6487 54.2864
L57.1649 54.2864
" />
<path d="M58.4197 54.4073
L59.3874 54.4073
" />
<path d="M60.0148 53.7421
L60.0829 53.6816
" />
<path d="M60.0829 53.6816
L60.2114 53.6211
" />
<path d="M60.2114 53.6211
L60.5138 53.6211
" />
<path d="M60.5138 53.6211
L60.6271 53.6816
" />
<path d="M60.6271 53.6816
L60.6801 53.7421
" />
<path d="M60.6801 53.7421
L60.7254 53.8630
" />
<path d="M60.7254 53.8630
L60.7103 53.9840
" />
<path d="M60.7103 53.9840
L60.6271 54.1654
" />
<path d="M60.6271 54.1654
L59.8107 54.8911
" />
<path d="M59.8107 54.8911
L60.5969 54.8911
" />
<path d="M61.4133 54.1654
L61.2999 54.1049
" />
<path d="M61.2999 54.1049
L61.2470 54.0445
" />
<path d="M61.2470 54.0445
L61.2016 53.9235
" />
<path d="M61.2016 53.9235
L61.2092 53.8630
" />
<path d="M61.2092 53.8630
L61.2848 53.7421
" />
<path d="M61.2848 53.7421
L61.3528 53.6816
" />
<path d="M61.3528 53.6816
L61.4814 53.6211
" />
<path d="M61.4814 53.6211
L61.7233 53.6211
" />
<path d="M61.7233 53.6211
L61.8366 53.6816
" />
<path d="M61.8366 53.6816
L61.8896 53.7421
" />
<path d="M61.8896 53.7421
L61.9349 53.8630
" />
<path d="M61.9349 53.8630
L61.9274 53.9235
" />
<path d="M61.9274 53.9235
L61.8518 54.0445
" />
<path d="M61.8518 54.0445
L61.7837 54.1049
" />
<path d="M61.7837 54.1049
L61.6552 54.1654
" />
<path d="M61.6552 54.1654
L61.4133 54.1654
" />
<path d="M61.4133 54.1654
L61.2848 54.2259
" />
<path d="M61.2848 54.2259
L61.2168 54.2864
" />
<path d="M61.2168 54.2864
L61.1412 54.4073
" />
<path d="M61.1412 54.4073
L61.1109 54.6492
" />
<path d="M61.1109 54.6492
L61.1563 54.7702
" />
<path d="M61.1563 54.7702
L61.2092 54.8307
" />
<path d="M61.2092 54.8307
L61.3226 54.8911
" />
<path d="M61.3226 54.8911
L61.5645 54.8911
" />
<path d="M61.5645 54.8911
L61.6930 54.8307
" />
<path d="M61.6930 54.8307
L61.7611 54.7702
" />
<path d="M61.7611 54.7702
L61.8366 54.6492
" />
<path d="M61.8366 54.6492
L61.8669 54.4073
" />
<path d="M61.8669 54.4073
L61.8215 54.2864
" />
<path d="M61.8215 54.2864
L61.7686 54.2259
" />
<path d="M61.7686 54.2259
L61.6552 54.1654
" />
<path d="M62.0332 55.0121
L63.0008 55.0121
" />
<path d="M63.9684 54.0445
L63.8626 54.8911
" />
<path d="M63.7265 53.5607
L63.3107 54.4678
" />
<path d="M63.3107 54.4678
L64.0969 54.4678
" />
<path d="M64.5429 54.7702
L64.5958 54.8307
" />
<path d="M64.5958 54.8307
L64.5278 54.8911
" />
<path d="M64.5278 54.8911
L64.4749 54.8307
" />
<path d="M64.4749 54.8307
L64.5429 54.7702
" />
<path d="M64.5429 54.7702
L64.5278 54.8911
" />
<path d="M65.7827 54.0445
L65.6769 54.8911
" />
<path d="M65.5408 53.5607
L65.1250 54.4678
" />
<path d="M65.1250 54.4678
L65.9112 54.4678
" />
<path d="M66.2211 54.8911
L66.9922 54.0445
" />
<path d="M66.3270 54.0445
L66.8864 54.8911
" />
<path d="M67.4306 54.8911
L67.6726 54.8911
" />
<path d="M67.6726 54.8911
L67.8011 54.8307
" />
<path d="M67.8011 54.8307
L67.8691 54.7702
" />
<path d="M67.8691 54.7702
L68.0127 54.5887
" />
<path d="M68.0127 54.5887
L68.1034 54.3468
" />
<path d="M68.1034 54.3468
L68.1639 53.8630
" />
<path d="M68.1639 53.8630
L68.1186 53.7421
" />
<path d="M68.1186 53.7421
L68.0656 53.6816
" />
<path d="M68.0656 53.6816
L67.9523 53.6211
" />
<path d="M67.9523 53.6211
L67.7104 53.6211
" />
<path d="M67.7104 53.6211
L67.5818 53.6816
" />
<path d="M67.5818 53.6816
L67.5138 53.7421
" />
<path d="M67.5138 53.7421
L67.4382 53.8630
" />
<path d="M67.4382 53.8630
L67.4004 54.1654
" />
<path d="M67.4004 54.1654
L67.4458 54.2864
" />
<path d="M67.4458 54.2864
L67.4987 54.3468
" />
<path d="M67.4987 54.3468
L67.6121 54.4073
" />
<path d="M67.6121 54.4073
L67.8540 54.4073
" />
<path d="M67.8540 54.4073
L67.9825 54.3468
" />
<path d="M67.9825 54.3468
L68.0505 54.2864
" />
<path d="M68.0505 54.2864
L68.1261 54.1654
" />
<path d="M68.5948 54.7702
L68.6477 54.8307
" />
<path d="M68.6477 54.8307
L68.5797 54.8911
" />
<path d="M68.5797 54.8911
L68.5268 54.8307
" />
<path d="M68.5268 54.8307
L68.5948 54.7702
" />
<path d="M68.5948 54.7702
L68.5797 54.8911
" />
<path d="M69.2223 53.6211
L70.0689 53.6211
" />
<path d="M70.0689 53.6211
L69.3659 54.8911
" />
<path d="M70.3940 54.8911
L70.4998 54.0445
" />
<path d="M70.4847 54.1654
L70.5527 54.1049
" />
<path d="M70.5527 54.1049
L70.6812 54.0445
" />
<path d="M70.6812 54.0445
L70.8627 54.0445
" />
<path d="M70.8627 54.0445
L70.9761 54.1049
" />
<path d="M70.9761 54.1049
L71.0214 54.2259
" />
<path d="M71.0214 54.2259
L70.9383 54.8911
" />
<path d="M71.0214 54.2259
L71.0970 54.1049
" />
<path d="M71.0970 54.1049
L71.2255 54.0445
" />
<path d="M71.2255 54.0445
L71.4069 54.0445
" />
<path d="M71.4069 54.0445
L71.5203 54.1049
" />
<path d="M71.5203 54.1049
L71.5657 54.2259
" />
<path d="M71.5657 54.2259
L71.4825 54.8911
" />
<path d="M72.0873 54.8911
L72.1931 54.0445
" />
<path d="M72.1780 54.1654
L72.2460 54.1049
" />
<path d="M72.2460 54.1049
L72.3745 54.0445
" />
<path d="M72.3745 54.0445
L72.5560 54.0445
" />
<path d="M72.5560 54.0445
L72.6694 54.1049
" />
<path d="M72.6694 54.1049
L72.7147 54.2259
" />
<path d="M72.7147 54.2259
L72.6316 54.8911
" />
<path d="M72.7147 54.2259
L72.7903 54.1049
" />
<path d="M72.7903 54.1049
L72.9188 54.0445
" />
<path d="M72.9188 54.0445
L73.1002 54.0445
" />
<path d="M73.1002 54.0445
L73.2136 54.1049
" />
<path d="M73.2136 54.1049
L73.2590 54.2259
" />
<path d="M73.2590 54.2259
L73.1758 54.8911
" />
<path d="M73.4631 55.0121
L74.4307 55.0121
" />
<path d="M74.7482 54.8911
L74.9069 53.6211
" />
<path d="M74.9069 53.6211
L75.3907 53.6211
" />
<path d="M75.3907 53.6211
L75.5041 53.6816
" />
<path d="M75.5041 53.6816
L75.5570 53.7421
" />
<path d="M75.5570 53.7421
L75.6024 53.8630
" />
<path d="M75.6024 53.8630
L75.5797 54.0445
" />
<path d="M75.5797 54.0445
L75.5041 54.1654
" />
<path d="M75.5041 54.1654
L75.4361 54.2259
" />
<path d="M75.4361 54.2259
L75.3076 54.2864
" />
<path d="M75.3076 54.2864
L74.8238 54.2864
" />
<path d="M76.4188 53.6211
L76.5398 53.6211
" />
<path d="M76.5398 53.6211
L76.6532 53.6816
" />
<path d="M76.6532 53.6816
L76.7061 53.7421
" />
<path d="M76.7061 53.7421
L76.7514 53.8630
" />
<path d="M76.7514 53.8630
L76.7817 54.1049
" />
<path d="M76.7817 54.1049
L76.7439 54.4073
" />
<path d="M76.7439 54.4073
L76.6532 54.6492
" />
<path d="M76.6532 54.6492
L76.5776 54.7702
" />
<path d="M76.5776 54.7702
L76.5095 54.8307
" />
<path d="M76.5095 54.8307
L76.3810 54.8911
" />
<path d="M76.3810 54.8911
L76.2601 54.8911
" />
<path d="M76.2601 54.8911
L76.1467 54.8307
" />
<path d="M76.1467 54.8307
L76.0938 54.7702
" />
<path d="M76.0938 54.7702
L76.0484 54.6492
" />
<path d="M76.0484 54.6492
L76.0182 54.4073
" />
<path d="M76.0182 54.4073
L76.0560 54.1049
" />
<path d="M76.0560 54.1049
L76.1467 53.8630
" />
<path d="M76.1467 53.8630
L76.2223 53.7421
" />
<path d="M76.2223 53.7421
L76.2903 53.6816
" />
<path d="M76.2903 53.6816
L76.4188 53.6211
" />
<path d="M77.2428 54.7702
L77.2957 54.8307
" />
<path d="M77.2957 54.8307
L77.2277 54.8911
" />
<path d="M77.2277 54.8911
L77.1748 54.8307
" />
<path d="M77.1748 54.8307
L77.2428 54.7702
" />
<path d="M77.2428 54.7702
L77.2277 54.8911
" />
<path d="M78.5355 53.6211
L78.2936 53.6211
" />
<path d="M78.2936 53.6211
L78.1651 53.6816
" />
<path d="M78.1651 53.6816
L78.0971 53.7421
" />
<path d="M78.0971 53.7421
L77.9534 53.9235
" />
<path d="M77.9534 53.9235
L77.8627 54.1654
" />
<path d="M77.8627 54.1654
L77.8022 54.6492
" />
<path d="M77.8022 54.6492
L77.8476 54.7702
" />
<path d="M77.8476 54.7702
L77.9005 54.8307
" />
<path d="M77.9005 54.8307
L78.0139 54.8911
" />
<path d="M78.0139 54.8911
L78.2558 54.8911
" />
<path d="M78.2558 54.8911
L78.3843 54.8307
" />
<path d="M78.3843 54.8307
L78.4524 54.7702
" />
<path d="M78.4524 54.7702
L78.5279 54.6492
" />
<path d="M78.5279 54.6492
L78.5657 54.3468
" />
<path d="M78.5657 54.3468
L78.5204 54.2259
" />
<path d="M78.5204 54.2259
L78.4675 54.1654
" />
<path d="M78.4675 54.1654
L78.3541 54.1049
" />
<path d="M78.3541 54.1049
L78.1122 54.1049
" />
<path d="M78.1122 54.1049
L77.9837 54.1654
" />
<path d="M77.9837 54.1654
L77.9156 54.2259
" />
<path d="M77.9156 54.2259
L77.8400 54.3468
" />
<path d="M79.8055 53.6211
L79.2007 53.6211
" />
<path d="M79.2007 53.6211
L79.0647 54.2259
" />
<path d="M79.0647 54.2259
L79.1327 54.1654
" />
<path d="M79.1327 54.1654
L79.2612 54.1049
" />
<path d="M79.2612 54.1049
L79.5636 54.1049
" />
<path d="M79.5636 54.1049
L79.6770 54.1654
" />
<path d="M79.6770 54.1654
L79.7299 54.2259
" />
<path d="M79.7299 54.2259
L79.7752 54.3468
" />
<path d="M79.7752 54.3468
L79.7374 54.6492
" />
<path d="M79.7374 54.6492
L79.6619 54.7702
" />
<path d="M79.6619 54.7702
L79.5938 54.8307
" />
<path d="M79.5938 54.8307
L79.4653 54.8911
" />
<path d="M79.4653 54.8911
L79.1629 54.8911
" />
<path d="M79.1629 54.8911
L79.0495 54.8307
" />
<path d="M79.0495 54.8307
L78.9966 54.7702
" />
<path d="M80.2515 54.8911
L80.3573 54.0445
" />
<path d="M80.3422 54.1654
L80.4102 54.1049
" />
<path d="M80.4102 54.1049
L80.5387 54.0445
" />
<path d="M80.5387 54.0445
L80.7202 54.0445
" />
<path d="M80.7202 54.0445
L80.8336 54.1049
" />
<path d="M80.8336 54.1049
L80.8789 54.2259
" />
<path d="M80.8789 54.2259
L80.7958 54.8911
" />
<path d="M80.8789 54.2259
L80.9545 54.1049
" />
<path d="M80.9545 54.1049
L81.0830 54.0445
" />
<path d="M81.0830 54.0445
L81.2644 54.0445
" />
<path d="M81.2644 54.0445
L81.3778 54.1049
" />
<path d="M81.3778 54.1049
L81.4232 54.2259
" />
<path d="M81.4232 54.2259
L81.3400 54.8911
" />
<path d="M81.9448 54.8911
L82.0506 54.0445
" />
<path d="M82.0355 54.1654
L82.1035 54.1049
" />
<path d="M82.1035 54.1049
L82.2320 54.0445
" />
<path d="M82.2320 54.0445
L82.4135 54.0445
" />
<path d="M82.4135 54.0445
L82.5269 54.1049
" />
<path d="M82.5269 54.1049
L82.5722 54.2259
" />
<path d="M82.5722 54.2259
L82.4891 54.8911
" />
<path d="M82.5722 54.2259
L82.6478 54.1049
" />
<path d="M82.6478 54.1049
L82.7763 54.0445
" />
<path d="M82.7763 54.0445
L82.9577 54.0445
" />
<path d="M82.9577 54.0445
L83.0711 54.1049
" />
<path d="M83.0711 54.1049
L83.1165 54.2259
" />
<path d="M83.1165 54.2259
L83.0333 54.8911
" />
</g><text x="37.3915" y="30.8169"
textLength="59.6096" font-size="1.6933" lengthAdjust="spacingAndGlyphs"
text-anchor="middle" opacity="0">https://www.nxp.com/docs/en/data-sheet/MC9S08SG32.pdf</text>
<g class="stroked-text"><desc>https://www.nxp.com/docs/en/data-sheet/MC9S08SG32.pdf</desc>
<path d="M8.0002 30.7611
L8.0002 29.4911
" />
<path d="M8.5445 30.7611
L8.5445 30.0959
" />
<path d="M8.5445 30.0959
L8.4840 29.9749
" />
<path d="M8.4840 29.9749
L8.3631 29.9145
" />
<path d="M8.3631 29.9145
L8.1817 29.9145
" />
<path d="M8.1817 29.9145
L8.0607 29.9749
" />
<path d="M8.0607 29.9749
L8.0002 30.0354
" />
<path d="M8.9678 29.9145
L9.4516 29.9145
" />
<path d="M9.1492 29.4911
L9.1492 30.5797
" />
<path d="M9.1492 30.5797
L9.2097 30.7007
" />
<path d="M9.2097 30.7007
L9.3307 30.7611
" />
<path d="M9.3307 30.7611
L9.4516 30.7611
" />
<path d="M9.6935 29.9145
L10.1773 29.9145
" />
<path d="M9.8749 29.4911
L9.8749 30.5797
" />
<path d="M9.8749 30.5797
L9.9354 30.7007
" />
<path d="M9.9354 30.7007
L10.0564 30.7611
" />
<path d="M10.0564 30.7611
L10.1773 30.7611
" />
<path d="M10.6006 29.9145
L10.6006 31.1845
" />
<path d="M10.6006 29.9749
L10.7216 29.9145
" />
<path d="M10.7216 29.9145
L10.9635 29.9145
" />
<path d="M10.9635 29.9145
L11.0844 29.9749
" />
<path d="M11.0844 29.9749
L11.1449 30.0354
" />
<path d="M11.1449 30.0354
L11.2054 30.1564
" />
<path d="M11.2054 30.1564
L11.2054 30.5192
" />
<path d="M11.2054 30.5192
L11.1449 30.6402
" />
<path d="M11.1449 30.6402
L11.0844 30.7007
" />
<path d="M11.0844 30.7007
L10.9635 30.7611
" />
<path d="M10.9635 30.7611
L10.7216 30.7611
" />
<path d="M10.7216 30.7611
L10.6006 30.7007
" />
<path d="M11.6892 30.7007
L11.8101 30.7611
" />
<path d="M11.8101 30.7611
L12.0520 30.7611
" />
<path d="M12.0520 30.7611
L12.1730 30.7007
" />
<path d="M12.1730 30.7007
L12.2334 30.5797
" />
<path d="M12.2334 30.5797
L12.2334 30.5192
" />
<path d="M12.2334 30.5192
L12.1730 30.3983
" />
<path d="M12.1730 30.3983
L12.0520 30.3378
" />
<path d="M12.0520 30.3378
L11.8706 30.3378
" />
<path d="M11.8706 30.3378
L11.7496 30.2773
" />
<path d="M11.7496 30.2773
L11.6892 30.1564
" />
<path d="M11.6892 30.1564
L11.6892 30.0959
" />
<path d="M11.6892 30.0959
L11.7496 29.9749
" />
<path d="M11.7496 29.9749
L11.8706 29.9145
" />
<path d="M11.8706 29.9145
L12.0520 29.9145
" />
<path d="M12.0520 29.9145
L12.1730 29.9749
" />
<path d="M12.7777 30.6402
L12.8382 30.7007
" />
<path d="M12.8382 30.7007
L12.7777 30.7611
" />
<path d="M12.7777 30.7611
L12.7173 30.7007
" />
<path d="M12.7173 30.7007
L12.7777 30.6402
" />
<path d="M12.7777 30.6402
L12.7777 30.7611
" />
<path d="M12.7777 29.9749
L12.8382 30.0354
" />
<path d="M12.8382 30.0354
L12.7777 30.0959
" />
<path d="M12.7777 30.0959
L12.7173 30.0354
" />
<path d="M12.7173 30.0354
L12.7777 29.9749
" />
<path d="M12.7777 29.9749
L12.7777 30.0959
" />
<path d="M14.2897 29.4307
L13.2011 31.0635
" />
<path d="M15.6202 29.4307
L14.5316 31.0635
" />
<path d="M15.9226 29.9145
L16.1645 30.7611
" />
<path d="M16.1645 30.7611
L16.4064 30.1564
" />
<path d="M16.4064 30.1564
L16.6483 30.7611
" />
<path d="M16.6483 30.7611
L16.8902 29.9145
" />
<path d="M17.2531 29.9145
L17.4950 30.7611
" />
<path d="M17.4950 30.7611
L17.7369 30.1564
" />
<path d="M17.7369 30.1564
L17.9788 30.7611
" />
<path d="M17.9788 30.7611
L18.2207 29.9145
" />
<path d="M18.5836 29.9145
L18.8255 30.7611
" />
<path d="M18.8255 30.7611
L19.0674 30.1564
" />
<path d="M19.0674 30.1564
L19.3093 30.7611
" />
<path d="M19.3093 30.7611
L19.5512 29.9145
" />
<path d="M20.0350 30.6402
L20.0955 30.7007
" />
<path d="M20.0955 30.7007
L20.0350 30.7611
" />
<path d="M20.0350 30.7611
L19.9746 30.7007
" />
<path d="M19.9746 30.7007
L20.0350 30.6402
" />
<path d="M20.0350 30.6402
L20.0350 30.7611
" />
<path d="M20.6398 29.9145
L20.6398 30.7611
" />
<path d="M20.6398 30.0354
L20.7003 29.9749
" />
<path d="M20.7003 29.9749
L20.8213 29.9145
" />
<path d="M20.8213 29.9145
L21.0027 29.9145
" />
<path d="M21.0027 29.9145
L21.1236 29.9749
" />
<path d="M21.1236 29.9749
L21.1841 30.0959
" />
<path d="M21.1841 30.0959
L21.1841 30.7611
" />
<path d="M21.6679 30.7611
L22.3331 29.9145
" />
<path d="M21.6679 29.9145
L22.3331 30.7611
" />
<path d="M22.8169 29.9145
L22.8169 31.1845
" />
<path d="M22.8169 29.9749
L22.9379 29.9145
" />
<path d="M22.9379 29.9145
L23.1798 29.9145
" />
<path d="M23.1798 29.9145
L23.3007 29.9749
" />
<path d="M23.3007 29.9749
L23.3612 30.0354
" />
<path d="M23.3612 30.0354
L23.4217 30.1564
" />
<path d="M23.4217 30.1564
L23.4217 30.5192
" />
<path d="M23.4217 30.5192
L23.3612 30.6402
" />
<path d="M23.3612 30.6402
L23.3007 30.7007
" />
<path d="M23.3007 30.7007
L23.1798 30.7611
" />
<path d="M23.1798 30.7611
L22.9379 30.7611
" />
<path d="M22.9379 30.7611
L22.8169 30.7007
" />
<path d="M23.9659 30.6402
L24.0264 30.7007
" />
<path d="M24.0264 30.7007
L23.9659 30.7611
" />
<path d="M23.9659 30.7611
L23.9055 30.7007
" />
<path d="M23.9055 30.7007
L23.9659 30.6402
" />
<path d="M23.9659 30.6402
L23.9659 30.7611
" />
<path d="M25.1150 30.7007
L24.9941 30.7611
" />
<path d="M24.9941 30.7611
L24.7522 30.7611
" />
<path d="M24.7522 30.7611
L24.6312 30.7007
" />
<path d="M24.6312 30.7007
L24.5707 30.6402
" />
<path d="M24.5707 30.6402
L24.5103 30.5192
" />
<path d="M24.5103 30.5192
L24.5103 30.1564
" />
<path d="M24.5103 30.1564
L24.5707 30.0354
" />
<path d="M24.5707 30.0354
L24.6312 29.9749
" />
<path d="M24.6312 29.9749
L24.7522 29.9145
" />
<path d="M24.7522 29.9145
L24.9941 29.9145
" />
<path d="M24.9941 29.9145
L25.1150 29.9749
" />
<path d="M25.8408 30.7611
L25.7198 30.7007
" />
<path d="M25.7198 30.7007
L25.6593 30.6402
" />
<path d="M25.6593 30.6402
L25.5989 30.5192
" />
<path d="M25.5989 30.5192
L25.5989 30.1564
" />
<path d="M25.5989 30.1564
L25.6593 30.0354
" />
<path d="M25.6593 30.0354
L25.7198 29.9749
" />
<path d="M25.7198 29.9749
L25.8408 29.9145
" />
<path d="M25.8408 29.9145
L26.0222 29.9145
" />
<path d="M26.0222 29.9145
L26.1431 29.9749
" />
<path d="M26.1431 29.9749
L26.2036 30.0354
" />
<path d="M26.2036 30.0354
L26.2641 30.1564
" />
<path d="M26.2641 30.1564
L26.2641 30.5192
" />
<path d="M26.2641 30.5192
L26.2036 30.6402
" />
<path d="M26.2036 30.6402
L26.1431 30.7007
" />
<path d="M26.1431 30.7007
L26.0222 30.7611
" />
<path d="M26.0222 30.7611
L25.8408 30.7611
" />
<path d="M26.8083 30.7611
L26.8083 29.9145
" />
<path d="M26.8083 30.0354
L26.8688 29.9749
" />
<path d="M26.8688 29.9749
L26.9898 29.9145
" />
<path d="M26.9898 29.9145
L27.1712 29.9145
" />
<path d="M27.1712 29.9145
L27.2921 29.9749
" />
<path d="M27.2921 29.9749
L27.3526 30.0959
" />
<path d="M27.3526 30.0959
L27.3526 30.7611
" />
<path d="M27.3526 30.0959
L27.4131 29.9749
" />
<path d="M27.4131 29.9749
L27.5340 29.9145
" />
<path d="M27.5340 29.9145
L27.7155 29.9145
" />
<path d="M27.7155 29.9145
L27.8364 29.9749
" />
<path d="M27.8364 29.9749
L27.8969 30.0959
" />
<path d="M27.8969 30.0959
L27.8969 30.7611
" />
<path d="M29.4088 29.4307
L28.3202 31.0635
" />
<path d="M30.3764 30.7611
L30.3764 29.4911
" />
<path d="M30.3764 30.7007
L30.2555 30.7611
" />
<path d="M30.2555 30.7611
L30.0136 30.7611
" />
<path d="M30.0136 30.7611
L29.8926 30.7007
" />
<path d="M29.8926 30.7007
L29.8321 30.6402
" />
<path d="M29.8321 30.6402
L29.7717 30.5192
" />
<path d="M29.7717 30.5192
L29.7717 30.1564
" />
<path d="M29.7717 30.1564
L29.8321 30.0354
" />
<path d="M29.8321 30.0354
L29.8926 29.9749
" />
<path d="M29.8926 29.9749
L30.0136 29.9145
" />
<path d="M30.0136 29.9145
L30.2555 29.9145
" />
<path d="M30.2555 29.9145
L30.3764 29.9749
" />
<path d="M31.1626 30.7611
L31.0416 30.7007
" />
<path d="M31.0416 30.7007
L30.9811 30.6402
" />
<path d="M30.9811 30.6402
L30.9207 30.5192
" />
<path d="M30.9207 30.5192
L30.9207 30.1564
" />
<path d="M30.9207 30.1564
L30.9811 30.0354
" />
<path d="M30.9811 30.0354
L31.0416 29.9749
" />
<path d="M31.0416 29.9749
L31.1626 29.9145
" />
<path d="M31.1626 29.9145
L31.3440 29.9145
" />
<path d="M31.3440 29.9145
L31.4649 29.9749
" />
<path d="M31.4649 29.9749
L31.5254 30.0354
" />
<path d="M31.5254 30.0354
L31.5859 30.1564
" />
<path d="M31.5859 30.1564
L31.5859 30.5192
" />
<path d="M31.5859 30.5192
L31.5254 30.6402
" />
<path d="M31.5254 30.6402
L31.4649 30.7007
" />
<path d="M31.4649 30.7007
L31.3440 30.7611
" />
<path d="M31.3440 30.7611
L31.1626 30.7611
" />
<path d="M32.6744 30.7007
L32.5535 30.7611
" />
<path d="M32.5535 30.7611
L32.3116 30.7611
" />
<path d="M32.3116 30.7611
L32.1906 30.7007
" />
<path d="M32.1906 30.7007
L32.1301 30.6402
" />
<path d="M32.1301 30.6402
L32.0697 30.5192
" />
<path d="M32.0697 30.5192
L32.0697 30.1564
" />
<path d="M32.0697 30.1564
L32.1301 30.0354
" />
<path d="M32.1301 30.0354
L32.1906 29.9749
" />
<path d="M32.1906 29.9749
L32.3116 29.9145
" />
<path d="M32.3116 29.9145
L32.5535 29.9145
" />
<path d="M32.5535 29.9145
L32.6744 29.9749
" />
<path d="M33.1583 30.7007
L33.2792 30.7611
" />
<path d="M33.2792 30.7611
L33.5211 30.7611
" />
<path d="M33.5211 30.7611
L33.6421 30.7007
" />
<path d="M33.6421 30.7007
L33.7025 30.5797
" />
<path d="M33.7025 30.5797
L33.7025 30.5192
" />
<path d="M33.7025 30.5192
L33.6421 30.3983
" />
<path d="M33.6421 30.3983
L33.5211 30.3378
" />
<path d="M33.5211 30.3378
L33.3397 30.3378
" />
<path d="M33.3397 30.3378
L33.2187 30.2773
" />
<path d="M33.2187 30.2773
L33.1583 30.1564
" />
<path d="M33.1583 30.1564
L33.1583 30.0959
" />
<path d="M33.1583 30.0959
L33.2187 29.9749
" />
<path d="M33.2187 29.9749
L33.3397 29.9145
" />
<path d="M33.3397 29.9145
L33.5211 29.9145
" />
<path d="M33.5211 29.9145
L33.6421 29.9749
" />
<path d="M35.1540 29.4307
L34.0654 31.0635
" />
<path d="M36.0611 30.7007
L35.9402 30.7611
" />
<path d="M35.9402 30.7611
L35.6983 30.7611
" />
<path d="M35.6983 30.7611
L35.5773 30.7007
" />
<path d="M35.5773 30.7007
L35.5169 30.5797
" />
<path d="M35.5169 30.5797
L35.5169 30.0959
" />
<path d="M35.5169 30.0959
L35.5773 29.9749
" />
<path d="M35.5773 29.9749
L35.6983 29.9145
" />
<path d="M35.6983 29.9145
L35.9402 29.9145
" />
<path d="M35.9402 29.9145
L36.0611 29.9749
" />
<path d="M36.0611 29.9749
L36.1216 30.0959
" />
<path d="M36.1216 30.0959
L36.1216 30.2168
" />
<path d="M36.1216 30.2168
L35.5169 30.3378
" />
<path d="M36.6659 29.9145
L36.6659 30.7611
" />
<path d="M36.6659 30.0354
L36.7264 29.9749
" />
<path d="M36.7264 29.9749
L36.8474 29.9145
" />
<path d="M36.8474 29.9145
L37.0288 29.9145
" />
<path d="M37.0288 29.9145
L37.1497 29.9749
" />
<path d="M37.1497 29.9749
L37.2102 30.0959
" />
<path d="M37.2102 30.0959
L37.2102 30.7611
" />
<path d="M38.7221 29.4307
L37.6335 31.0635
" />
<path d="M39.6897 30.7611
L39.6897 29.4911
" />
<path d="M39.6897 30.7007
L39.5688 30.7611
" />
<path d="M39.5688 30.7611
L39.3269 30.7611
" />
<path d="M39.3269 30.7611
L39.2059 30.7007
" />
<path d="M39.2059 30.7007
L39.1454 30.6402
" />
<path d="M39.1454 30.6402
L39.0850 30.5192
" />
<path d="M39.0850 30.5192
L39.0850 30.1564
" />
<path d="M39.0850 30.1564
L39.1454 30.0354
" />
<path d="M39.1454 30.0354
L39.2059 29.9749
" />
<path d="M39.2059 29.9749
L39.3269 29.9145
" />
<path d="M39.3269 29.9145
L39.5688 29.9145
" />
<path d="M39.5688 29.9145
L39.6897 29.9749
" />
<path d="M40.8387 30.7611
L40.8387 30.0959
" />
<path d="M40.8387 30.0959
L40.7782 29.9749
" />
<path d="M40.7782 29.9749
L40.6573 29.9145
" />
<path d="M40.6573 29.9145
L40.4154 29.9145
" />
<path d="M40.4154 29.9145
L40.2944 29.9749
" />
<path d="M40.8387 30.7007
L40.7178 30.7611
" />
<path d="M40.7178 30.7611
L40.4154 30.7611
" />
<path d="M40.4154 30.7611
L40.2944 30.7007
" />
<path d="M40.2944 30.7007
L40.2340 30.5797
" />
<path d="M40.2340 30.5797
L40.2340 30.4587
" />
<path d="M40.2340 30.4587
L40.2944 30.3378
" />
<path d="M40.2944 30.3378
L40.4154 30.2773
" />
<path d="M40.4154 30.2773
L40.7178 30.2773
" />
<path d="M40.7178 30.2773
L40.8387 30.2168
" />
<path d="M41.2620 29.9145
L41.7458 29.9145
" />
<path d="M41.4434 29.4911
L41.4434 30.5797
" />
<path d="M41.4434 30.5797
L41.5039 30.7007
" />
<path d="M41.5039 30.7007
L41.6249 30.7611
" />
<path d="M41.6249 30.7611
L41.7458 30.7611
" />
<path d="M42.7134 30.7611
L42.7134 30.0959
" />
<path d="M42.7134 30.0959
L42.6529 29.9749
" />
<path d="M42.6529 29.9749
L42.5320 29.9145
" />
<path d="M42.5320 29.9145
L42.2901 29.9145
" />
<path d="M42.2901 29.9145
L42.1691 29.9749
" />
<path d="M42.7134 30.7007
L42.5925 30.7611
" />
<path d="M42.5925 30.7611
L42.2901 30.7611
" />
<path d="M42.2901 30.7611
L42.1691 30.7007
" />
<path d="M42.1691 30.7007
L42.1087 30.5797
" />
<path d="M42.1087 30.5797
L42.1087 30.4587
" />
<path d="M42.1087 30.4587
L42.1691 30.3378
" />
<path d="M42.1691 30.3378
L42.2901 30.2773
" />
<path d="M42.2901 30.2773
L42.5925 30.2773
" />
<path d="M42.5925 30.2773
L42.7134 30.2168
" />
<path d="M43.3181 30.2773
L44.2858 30.2773
" />
<path d="M44.8301 30.7007
L44.9510 30.7611
" />
<path d="M44.9510 30.7611
L45.1929 30.7611
" />
<path d="M45.1929 30.7611
L45.3139 30.7007
" />
<path d="M45.3139 30.7007
L45.3743 30.5797
" />
<path d="M45.3743 30.5797
L45.3743 30.5192
" />
<path d="M45.3743 30.5192
L45.3139 30.3983
" />
<path d="M45.3139 30.3983
L45.1929 30.3378
" />
<path d="M45.1929 30.3378
L45.0115 30.3378
" />
<path d="M45.0115 30.3378
L44.8905 30.2773
" />
<path d="M44.8905 30.2773
L44.8301 30.1564
" />
<path d="M44.8301 30.1564
L44.8301 30.0959
" />
<path d="M44.8301 30.0959
L44.8905 29.9749
" />
<path d="M44.8905 29.9749
L45.0115 29.9145
" />
<path d="M45.0115 29.9145
L45.1929 29.9145
" />
<path d="M45.1929 29.9145
L45.3139 29.9749
" />
<path d="M45.9186 30.7611
L45.9186 29.4911
" />
<path d="M46.4629 30.7611
L46.4629 30.0959
" />
<path d="M46.4629 30.0959
L46.4024 29.9749
" />
<path d="M46.4024 29.9749
L46.2815 29.9145
" />
<path d="M46.2815 29.9145
L46.1001 29.9145
" />
<path d="M46.1001 29.9145
L45.9791 29.9749
" />
<path d="M45.9791 29.9749
L45.9186 30.0354
" />
<path d="M47.5514 30.7007
L47.4305 30.7611
" />
<path d="M47.4305 30.7611
L47.1886 30.7611
" />
<path d="M47.1886 30.7611
L47.0676 30.7007
" />
<path d="M47.0676 30.7007
L47.0072 30.5797
" />
<path d="M47.0072 30.5797
L47.0072 30.0959
" />
<path d="M47.0072 30.0959
L47.0676 29.9749
" />
<path d="M47.0676 29.9749
L47.1886 29.9145
" />
<path d="M47.1886 29.9145
L47.4305 29.9145
" />
<path d="M47.4305 29.9145
L47.5514 29.9749
" />
<path d="M47.5514 29.9749
L47.6119 30.0959
" />
<path d="M47.6119 30.0959
L47.6119 30.2168
" />
<path d="M47.6119 30.2168
L47.0072 30.3378
" />
<path d="M48.6400 30.7007
L48.5191 30.7611
" />
<path d="M48.5191 30.7611
L48.2772 30.7611
" />
<path d="M48.2772 30.7611
L48.1562 30.7007
" />
<path d="M48.1562 30.7007
L48.0958 30.5797
" />
<path d="M48.0958 30.5797
L48.0958 30.0959
" />
<path d="M48.0958 30.0959
L48.1562 29.9749
" />
<path d="M48.1562 29.9749
L48.2772 29.9145
" />
<path d="M48.2772 29.9145
L48.5191 29.9145
" />
<path d="M48.5191 29.9145
L48.6400 29.9749
" />
<path d="M48.6400 29.9749
L48.7005 30.0959
" />
<path d="M48.7005 30.0959
L48.7005 30.2168
" />
<path d="M48.7005 30.2168
L48.0958 30.3378
" />
<path d="M49.0634 29.9145
L49.5472 29.9145
" />
<path d="M49.2448 29.4911
L49.2448 30.5797
" />
<path d="M49.2448 30.5797
L49.3053 30.7007
" />
<path d="M49.3053 30.7007
L49.4263 30.7611
" />
<path d="M49.4263 30.7611
L49.5472 30.7611
" />
<path d="M50.8777 29.4307
L49.7891 31.0635
" />
<path d="M51.3010 30.7611
L51.3010 29.4911
" />
<path d="M51.3010 29.4911
L51.7244 30.3983
" />
<path d="M51.7244 30.3983
L52.1477 29.4911
" />
<path d="M52.1477 29.4911
L52.1477 30.7611
" />
<path d="M53.4781 30.6402
L53.4177 30.7007
" />
<path d="M53.4177 30.7007
L53.2362 30.7611
" />
<path d="M53.2362 30.7611
L53.1153 30.7611
" />
<path d="M53.1153 30.7611
L52.9339 30.7007
" />
<path d="M52.9339 30.7007
L52.8129 30.5797
" />
<path d="M52.8129 30.5797
L52.7524 30.4587
" />
<path d="M52.7524 30.4587
L52.6920 30.2168
" />
<path d="M52.6920 30.2168
L52.6920 30.0354
" />
<path d="M52.6920 30.0354
L52.7524 29.7935
" />
<path d="M52.7524 29.7935
L52.8129 29.6726
" />
<path d="M52.8129 29.6726
L52.9339 29.5516
" />
<path d="M52.9339 29.5516
L53.1153 29.4911
" />
<path d="M53.1153 29.4911
L53.2362 29.4911
" />
<path d="M53.2362 29.4911
L53.4177 29.5516
" />
<path d="M53.4177 29.5516
L53.4781 29.6121
" />
<path d="M54.0829 30.7611
L54.3248 30.7611
" />
<path d="M54.3248 30.7611
L54.4458 30.7007
" />
<path d="M54.4458 30.7007
L54.5062 30.6402
" />
<path d="M54.5062 30.6402
L54.6272 30.4587
" />
<path d="M54.6272 30.4587
L54.6877 30.2168
" />
<path d="M54.6877 30.2168
L54.6877 29.7330
" />
<path d="M54.6877 29.7330
L54.6272 29.6121
" />
<path d="M54.6272 29.6121
L54.5667 29.5516
" />
<path d="M54.5667 29.5516
L54.4458 29.4911
" />
<path d="M54.4458 29.4911
L54.2039 29.4911
" />
<path d="M54.2039 29.4911
L54.0829 29.5516
" />
<path d="M54.0829 29.5516
L54.0224 29.6121
" />
<path d="M54.0224 29.6121
L53.9620 29.7330
" />
<path d="M53.9620 29.7330
L53.9620 30.0354
" />
<path d="M53.9620 30.0354
L54.0224 30.1564
" />
<path d="M54.0224 30.1564
L54.0829 30.2168
" />
<path d="M54.0829 30.2168
L54.2039 30.2773
" />
<path d="M54.2039 30.2773
L54.4458 30.2773
" />
<path d="M54.4458 30.2773
L54.5667 30.2168
" />
<path d="M54.5667 30.2168
L54.6272 30.1564
" />
<path d="M54.6272 30.1564
L54.6877 30.0354
" />
<path d="M55.1715 30.7007
L55.3529 30.7611
" />
<path d="M55.3529 30.7611
L55.6553 30.7611
" />
<path d="M55.6553 30.7611
L55.7762 30.7007
" />
<path d="M55.7762 30.7007
L55.8367 30.6402
" />
<path d="M55.8367 30.6402
L55.8972 30.5192
" />
<path d="M55.8972 30.5192
L55.8972 30.3983
" />
<path d="M55.8972 30.3983
L55.8367 30.2773
" />
<path d="M55.8367 30.2773
L55.7762 30.2168
" />
<path d="M55.7762 30.2168
L55.6553 30.1564
" />
<path d="M55.6553 30.1564
L55.4134 30.0959
" />
<path d="M55.4134 30.0959
L55.2924 30.0354
" />
<path d="M55.2924 30.0354
L55.2319 29.9749
" />
<path d="M55.2319 29.9749
L55.1715 29.8540
" />
<path d="M55.1715 29.8540
L55.1715 29.7330
" />
<path d="M55.1715 29.7330
L55.2319 29.6121
" />
<path d="M55.2319 29.6121
L55.2924 29.5516
" />
<path d="M55.2924 29.5516
L55.4134 29.4911
" />
<path d="M55.4134 29.4911
L55.7157 29.4911
" />
<path d="M55.7157 29.4911
L55.8972 29.5516
" />
<path d="M56.6833 29.4911
L56.8043 29.4911
" />
<path d="M56.8043 29.4911
L56.9252 29.5516
" />
<path d="M56.9252 29.5516
L56.9857 29.6121
" />
<path d="M56.9857 29.6121
L57.0462 29.7330
" />
<path d="M57.0462 29.7330
L57.1067 29.9749
" />
<path d="M57.1067 29.9749
L57.1067 30.2773
" />
<path d="M57.1067 30.2773
L57.0462 30.5192
" />
<path d="M57.0462 30.5192
L56.9857 30.6402
" />
<path d="M56.9857 30.6402
L56.9252 30.7007
" />
<path d="M56.9252 30.7007
L56.8043 30.7611
" />
<path d="M56.8043 30.7611
L56.6833 30.7611
" />
<path d="M56.6833 30.7611
L56.5624 30.7007
" />
<path d="M56.5624 30.7007
L56.5019 30.6402
" />
<path d="M56.5019 30.6402
L56.4414 30.5192
" />
<path d="M56.4414 30.5192
L56.3810 30.2773
" />
<path d="M56.3810 30.2773
L56.3810 29.9749
" />
<path d="M56.3810 29.9749
L56.4414 29.7330
" />
<path d="M56.4414 29.7330
L56.5019 29.6121
" />
<path d="M56.5019 29.6121
L56.5624 29.5516
" />
<path d="M56.5624 29.5516
L56.6833 29.4911
" />
<path d="M57.8324 30.0354
L57.7114 29.9749
" />
<path d="M57.7114 29.9749
L57.6509 29.9145
" />
<path d="M57.6509 29.9145
L57.5905 29.7935
" />
<path d="M57.5905 29.7935
L57.5905 29.7330
" />
<path d="M57.5905 29.7330
L57.6509 29.6121
" />
<path d="M57.6509 29.6121
L57.7114 29.5516
" />
<path d="M57.7114 29.5516
L57.8324 29.4911
" />
<path d="M57.8324 29.4911
L58.0743 29.4911
" />
<path d="M58.0743 29.4911
L58.1952 29.5516
" />
<path d="M58.1952 29.5516
L58.2557 29.6121
" />
<path d="M58.2557 29.6121
L58.3162 29.7330
" />
<path d="M58.3162 29.7330
L58.3162 29.7935
" />
<path d="M58.3162 29.7935
L58.2557 29.9145
" />
<path d="M58.2557 29.9145
L58.1952 29.9749
" />
<path d="M58.1952 29.9749
L58.0743 30.0354
" />
<path d="M58.0743 30.0354
L57.8324 30.0354
" />
<path d="M57.8324 30.0354
L57.7114 30.0959
" />
<path d="M57.7114 30.0959
L57.6509 30.1564
" />
<path d="M57.6509 30.1564
L57.5905 30.2773
" />
<path d="M57.5905 30.2773
L57.5905 30.5192
" />
<path d="M57.5905 30.5192
L57.6509 30.6402
" />
<path d="M57.6509 30.6402
L57.7114 30.7007
" />
<path d="M57.7114 30.7007
L57.8324 30.7611
" />
<path d="M57.8324 30.7611
L58.0743 30.7611
" />
<path d="M58.0743 30.7611
L58.1952 30.7007
" />
<path d="M58.1952 30.7007
L58.2557 30.6402
" />
<path d="M58.2557 30.6402
L58.3162 30.5192
" />
<path d="M58.3162 30.5192
L58.3162 30.2773
" />
<path d="M58.3162 30.2773
L58.2557 30.1564
" />
<path d="M58.2557 30.1564
L58.1952 30.0959
" />
<path d="M58.1952 30.0959
L58.0743 30.0354
" />
<path d="M58.8000 30.7007
L58.9814 30.7611
" />
<path d="M58.9814 30.7611
L59.2838 30.7611
" />
<path d="M59.2838 30.7611
L59.4047 30.7007
" />
<path d="M59.4047 30.7007
L59.4652 30.6402
" />
<path d="M59.4652 30.6402
L59.5257 30.5192
" />
<path d="M59.5257 30.5192
L59.5257 30.3983
" />
<path d="M59.5257 30.3983
L59.4652 30.2773
" />
<path d="M59.4652 30.2773
L59.4047 30.2168
" />
<path d="M59.4047 30.2168
L59.2838 30.1564
" />
<path d="M59.2838 30.1564
L59.0419 30.0959
" />
<path d="M59.0419 30.0959
L58.9209 30.0354
" />
<path d="M58.9209 30.0354
L58.8604 29.9749
" />
<path d="M58.8604 29.9749
L58.8000 29.8540
" />
<path d="M58.8000 29.8540
L58.8000 29.7330
" />
<path d="M58.8000 29.7330
L58.8604 29.6121
" />
<path d="M58.8604 29.6121
L58.9209 29.5516
" />
<path d="M58.9209 29.5516
L59.0419 29.4911
" />
<path d="M59.0419 29.4911
L59.3442 29.4911
" />
<path d="M59.3442 29.4911
L59.5257 29.5516
" />
<path d="M60.7352 29.5516
L60.6142 29.4911
" />
<path d="M60.6142 29.4911
L60.4328 29.4911
" />
<path d="M60.4328 29.4911
L60.2514 29.5516
" />
<path d="M60.2514 29.5516
L60.1304 29.6726
" />
<path d="M60.1304 29.6726
L60.0699 29.7935
" />
<path d="M60.0699 29.7935
L60.0095 30.0354
" />
<path d="M60.0095 30.0354
L60.0095 30.2168
" />
<path d="M60.0095 30.2168
L60.0699 30.4587
" />
<path d="M60.0699 30.4587
L60.1304 30.5797
" />
<path d="M60.1304 30.5797
L60.2514 30.7007
" />
<path d="M60.2514 30.7007
L60.4328 30.7611
" />
<path d="M60.4328 30.7611
L60.5537 30.7611
" />
<path d="M60.5537 30.7611
L60.7352 30.7007
" />
<path d="M60.7352 30.7007
L60.7956 30.6402
" />
<path d="M60.7956 30.6402
L60.7956 30.2168
" />
<path d="M60.7956 30.2168
L60.5537 30.2168
" />
<path d="M61.2190 29.4911
L62.0052 29.4911
" />
<path d="M62.0052 29.4911
L61.5818 29.9749
" />
<path d="M61.5818 29.9749
L61.7633 29.9749
" />
<path d="M61.7633 29.9749
L61.8842 30.0354
" />
<path d="M61.8842 30.0354
L61.9447 30.0959
" />
<path d="M61.9447 30.0959
L62.0052 30.2168
" />
<path d="M62.0052 30.2168
L62.0052 30.5192
" />
<path d="M62.0052 30.5192
L61.9447 30.6402
" />
<path d="M61.9447 30.6402
L61.8842 30.7007
" />
<path d="M61.8842 30.7007
L61.7633 30.7611
" />
<path d="M61.7633 30.7611
L61.4004 30.7611
" />
<path d="M61.4004 30.7611
L61.2795 30.7007
" />
<path d="M61.2795 30.7007
L61.2190 30.6402
" />
<path d="M62.4890 29.6121
L62.5494 29.5516
" />
<path d="M62.5494 29.5516
L62.6704 29.4911
" />
<path d="M62.6704 29.4911
L62.9728 29.4911
" />
<path d="M62.9728 29.4911
L63.0937 29.5516
" />
<path d="M63.0937 29.5516
L63.1542 29.6121
" />
<path d="M63.1542 29.6121
L63.2147 29.7330
" />
<path d="M63.2147 29.7330
L63.2147 29.8540
" />
<path d="M63.2147 29.8540
L63.1542 30.0354
" />
<path d="M63.1542 30.0354
L62.4285 30.7611
" />
<path d="M62.4285 30.7611
L63.2147 30.7611
" />
<path d="M63.7589 30.6402
L63.8194 30.7007
" />
<path d="M63.8194 30.7007
L63.7589 30.7611
" />
<path d="M63.7589 30.7611
L63.6985 30.7007
" />
<path d="M63.6985 30.7007
L63.7589 30.6402
" />
<path d="M63.7589 30.6402
L63.7589 30.7611
" />
<path d="M64.3637 29.9145
L64.3637 31.1845
" />
<path d="M64.3637 29.9749
L64.4847 29.9145
" />
<path d="M64.4847 29.9145
L64.7266 29.9145
" />
<path d="M64.7266 29.9145
L64.8475 29.9749
" />
<path d="M64.8475 29.9749
L64.9080 30.0354
" />
<path d="M64.9080 30.0354
L64.9685 30.1564
" />
<path d="M64.9685 30.1564
L64.9685 30.5192
" />
<path d="M64.9685 30.5192
L64.9080 30.6402
" />
<path d="M64.9080 30.6402
L64.8475 30.7007
" />
<path d="M64.8475 30.7007
L64.7266 30.7611
" />
<path d="M64.7266 30.7611
L64.4847 30.7611
" />
<path d="M64.4847 30.7611
L64.3637 30.7007
" />
<path d="M66.0570 30.7611
L66.0570 29.4911
" />
<path d="M66.0570 30.7007
L65.9361 30.7611
" />
<path d="M65.9361 30.7611
L65.6942 30.7611
" />
<path d="M65.6942 30.7611
L65.5732 30.7007
" />
<path d="M65.5732 30.7007
L65.5127 30.6402
" />
<path d="M65.5127 30.6402
L65.4523 30.5192
" />
<path d="M65.4523 30.5192
L65.4523 30.1564
" />
<path d="M65.4523 30.1564
L65.5127 30.0354
" />
<path d="M65.5127 30.0354
L65.5732 29.9749
" />
<path d="M65.5732 29.9749
L65.6942 29.9145
" />
<path d="M65.6942 29.9145
L65.9361 29.9145
" />
<path d="M65.9361 29.9145
L66.0570 29.9749
" />
<path d="M66.4803 29.9145
L66.9641 29.9145
" />
<path d="M66.6617 30.7611
L66.6617 29.6726
" />
<path d="M66.6617 29.6726
L66.7222 29.5516
" />
<path d="M66.7222 29.5516
L66.8432 29.4911
" />
<path d="M66.8432 29.4911
L66.9641 29.4911
" />
</g></g> 
</svg>
