<?xml version="1.0" standalone="no"?>
 <!DOCTYPE svg PUBLIC "-//W3C//DTD SVG 1.1//EN" 
 "http://www.w3.org/Graphics/SVG/1.1/DTD/svg11.dtd"> 
<svg
  xmlns:svg="http://www.w3.org/2000/svg"
  xmlns="http://www.w3.org/2000/svg"
  xmlns:xlink="http://www.w3.org/1999/xlink"
  version="1.1"
  width="102.0064mm" height="36.5760mm" viewBox="0.0000 0.0000 102.0064 36.5760">
<title>SVG Image created as working.svg date 2023/08/29 11:16:26 </title>
  <desc>Image generated by Eeschema-SVG </desc>
<g style="fill:#000000; fill-opacity:1.0000;stroke:#000000; stroke-opacity:1.0000;
stroke-linecap:round; stroke-linejoin:round;"
 transform="translate(0 0) scale(1 1)">
</g>
<g style="fill:#840000; fill-opacity:0.0; 
stroke:#840000; stroke-width:0.0000; stroke-opacity:1; 
stroke-linecap:round; stroke-linejoin:round;">
</g>
<g style="fill:#FFFFC2; fill-opacity:0.0; 
stroke:#FFFFC2; stroke-width:0.0000; stroke-opacity:1; 
stroke-linecap:round; stroke-linejoin:round;">
</g>
<g style="fill:#FFFFC2; fill-opacity:1.0000; 
stroke:#FFFFC2; stroke-width:0.0000; stroke-opacity:1; 
stroke-linecap:round; stroke-linejoin:round;">
<rect x="40.845600" y="5.588100" width="20.320000" height="25.400000" rx="0.000000" />
</g>
<g style="fill:#840084; fill-opacity:1.0000; 
stroke:#840084; stroke-width:0.0000; stroke-opacity:1; 
stroke-linecap:round; stroke-linejoin:round;">
</g>
<g style="fill:#840000; fill-opacity:1.0000; 
stroke:#840000; stroke-width:0.0000; stroke-opacity:1; 
stroke-linecap:round; stroke-linejoin:round;">
</g>
<g style="fill:#840000; fill-opacity:0.0; 
stroke:#840000; stroke-width:0.2540; stroke-opacity:1; 
stroke-linecap:round; stroke-linejoin:round;">
<rect x="40.845600" y="5.588100" width="20.320000" height="25.400000" rx="0.000000" />
</g>
<g style="fill:#840000; fill-opacity:0.0; 
stroke:#840000; stroke-width:0.1524; stroke-opacity:1; 
stroke-linecap:round; stroke-linejoin:round;">
<path d="M51.0056 5.5881
L51.0056 3.0481
" />
</g>
<g style="fill:#006464; fill-opacity:0.0; 
stroke:#006464; stroke-width:0.1524; stroke-opacity:1; 
stroke-linecap:round; stroke-linejoin:round;">
<g transform="rotate(-90.000000 51.0056 6.0961)">
<text x="51.0056" y="6.7311"
textLength="4.1947" font-size="1.6933" lengthAdjust="spacingAndGlyphs"
text-anchor="end" opacity="0">+Uc</text>
</g>
<g class="stroked-text"><desc>+Uc</desc>
<path d="M51.1013 9.8854
L51.1013 8.9178
" />
<path d="M51.5851 9.4016
L50.6175 9.4016
" />
<path d="M50.3151 8.3130
L51.3432 8.3130
" />
<path d="M51.3432 8.3130
L51.4642 8.2525
" />
<path d="M51.4642 8.2525
L51.5247 8.1920
" />
<path d="M51.5247 8.1920
L51.5851 8.0711
" />
<path d="M51.5851 8.0711
L51.5851 7.8292
" />
<path d="M51.5851 7.8292
L51.5247 7.7082
" />
<path d="M51.5247 7.7082
L51.4642 7.6477
" />
<path d="M51.4642 7.6477
L51.3432 7.5873
" />
<path d="M51.3432 7.5873
L50.3151 7.5873
" />
<path d="M51.5247 6.4382
L51.5851 6.5591
" />
<path d="M51.5851 6.5591
L51.5851 6.8010
" />
<path d="M51.5851 6.8010
L51.5247 6.9220
" />
<path d="M51.5247 6.9220
L51.4642 6.9825
" />
<path d="M51.4642 6.9825
L51.3432 7.0429
" />
<path d="M51.3432 7.0429
L50.9804 7.0429
" />
<path d="M50.9804 7.0429
L50.8594 6.9825
" />
<path d="M50.8594 6.9825
L50.7989 6.9220
" />
<path d="M50.7989 6.9220
L50.7385 6.8010
" />
<path d="M50.7385 6.8010
L50.7385 6.5591
" />
<path d="M50.7385 6.5591
L50.7989 6.4382
" />
</g></g>
<g style="fill:#A90000; fill-opacity:0.0; 
stroke:#A90000; stroke-width:0.1524; stroke-opacity:1; 
stroke-linecap:round; stroke-linejoin:round;">
<g transform="rotate(-90.000000 50.7516 4.3181)">
<text x="50.7516" y="4.3181"
textLength="1.4127" font-size="1.6933" lengthAdjust="spacingAndGlyphs"
text-anchor="middle" opacity="0">1</text>
</g>
<g class="stroked-text"><desc>1</desc>
<path d="M50.5881 3.9551
L50.5881 4.6808
" />
<path d="M50.5881 4.3180
L49.3181 4.3180
" />
<path d="M49.3181 4.3180
L49.4996 4.4389
" />
<path d="M49.4996 4.4389
L49.6205 4.5599
" />
<path d="M49.6205 4.5599
L49.6810 4.6808
" />
</g></g>
<g style="fill:#840000; fill-opacity:0.0; 
stroke:#840000; stroke-width:0.1524; stroke-opacity:1; 
stroke-linecap:round; stroke-linejoin:round;">
<path d="M40.8456 13.2081
L38.3056 13.2081
" />
</g>
<g style="fill:#006464; fill-opacity:0.0; 
stroke:#006464; stroke-width:0.1524; stroke-opacity:1; 
stroke-linecap:round; stroke-linejoin:round;">
<text x="41.3536" y="13.8431"
textLength="2.1385" font-size="1.6933" lengthAdjust="spacingAndGlyphs"
text-anchor="start" opacity="0">IN</text>
<g class="stroked-text"><desc>IN</desc>
<path d="M41.7561 13.7876
L41.7561 12.5176
" />
<path d="M42.3609 13.7876
L42.3609 12.5176
" />
<path d="M42.3609 12.5176
L43.0866 13.7876
" />
<path d="M43.0866 13.7876
L43.0866 12.5176
" />
</g></g>
<g style="fill:#A90000; fill-opacity:0.0; 
stroke:#A90000; stroke-width:0.1524; stroke-opacity:1; 
stroke-linecap:round; stroke-linejoin:round;">
<text x="39.5756" y="12.9541"
textLength="2.6222" font-size="1.6933" lengthAdjust="spacingAndGlyphs"
text-anchor="middle" opacity="0">10</text>
<g class="stroked-text"><desc>10</desc>
<path d="M39.3337 12.7906
L38.6080 12.7906
" />
<path d="M38.9708 12.7906
L38.9708 11.5206
" />
<path d="M38.9708 11.5206
L38.8499 11.7021
" />
<path d="M38.8499 11.7021
L38.7289 11.8230
" />
<path d="M38.7289 11.8230
L38.6080 11.8835
" />
<path d="M40.1198 11.5206
L40.2408 11.5206
" />
<path d="M40.2408 11.5206
L40.3617 11.5811
" />
<path d="M40.3617 11.5811
L40.4222 11.6416
" />
<path d="M40.4222 11.6416
L40.4827 11.7625
" />
<path d="M40.4827 11.7625
L40.5432 12.0044
" />
<path d="M40.5432 12.0044
L40.5432 12.3068
" />
<path d="M40.5432 12.3068
L40.4827 12.5487
" />
<path d="M40.4827 12.5487
L40.4222 12.6697
" />
<path d="M40.4222 12.6697
L40.3617 12.7302
" />
<path d="M40.3617 12.7302
L40.2408 12.7906
" />
<path d="M40.2408 12.7906
L40.1198 12.7906
" />
<path d="M40.1198 12.7906
L39.9989 12.7302
" />
<path d="M39.9989 12.7302
L39.9384 12.6697
" />
<path d="M39.9384 12.6697
L39.8779 12.5487
" />
<path d="M39.8779 12.5487
L39.8175 12.3068
" />
<path d="M39.8175 12.3068
L39.8175 12.0044
" />
<path d="M39.8175 12.0044
L39.8779 11.7625
" />
<path d="M39.8779 11.7625
L39.9384 11.6416
" />
<path d="M39.9384 11.6416
L39.9989 11.5811
" />
<path d="M39.9989 11.5811
L40.1198 11.5206
" />
</g></g>
<g style="fill:#840000; fill-opacity:0.0; 
stroke:#840000; stroke-width:0.1524; stroke-opacity:1; 
stroke-linecap:round; stroke-linejoin:round;">
<path d="M40.8456 18.2881
L38.3056 18.2881
" />
</g>
<g style="fill:#006464; fill-opacity:0.0; 
stroke:#006464; stroke-width:0.1524; stroke-opacity:1; 
stroke-linecap:round; stroke-linejoin:round;">
<text x="41.3536" y="18.9231"
textLength="3.8318" font-size="1.6933" lengthAdjust="spacingAndGlyphs"
text-anchor="start" opacity="0">OUT</text>
<g class="stroked-text"><desc>OUT</desc>
<path d="M41.9980 17.5976
L42.2399 17.5976
" />
<path d="M42.2399 17.5976
L42.3609 17.6581
" />
<path d="M42.3609 17.6581
L42.4818 17.7791
" />
<path d="M42.4818 17.7791
L42.5423 18.0210
" />
<path d="M42.5423 18.0210
L42.5423 18.4443
" />
<path d="M42.5423 18.4443
L42.4818 18.6862
" />
<path d="M42.4818 18.6862
L42.3609 18.8072
" />
<path d="M42.3609 18.8072
L42.2399 18.8676
" />
<path d="M42.2399 18.8676
L41.9980 18.8676
" />
<path d="M41.9980 18.8676
L41.8771 18.8072
" />
<path d="M41.8771 18.8072
L41.7561 18.6862
" />
<path d="M41.7561 18.6862
L41.6957 18.4443
" />
<path d="M41.6957 18.4443
L41.6957 18.0210
" />
<path d="M41.6957 18.0210
L41.7561 17.7791
" />
<path d="M41.7561 17.7791
L41.8771 17.6581
" />
<path d="M41.8771 17.6581
L41.9980 17.5976
" />
<path d="M43.0866 17.5976
L43.0866 18.6257
" />
<path d="M43.0866 18.6257
L43.1471 18.7467
" />
<path d="M43.1471 18.7467
L43.2076 18.8072
" />
<path d="M43.2076 18.8072
L43.3285 18.8676
" />
<path d="M43.3285 18.8676
L43.5704 18.8676
" />
<path d="M43.5704 18.8676
L43.6914 18.8072
" />
<path d="M43.6914 18.8072
L43.7519 18.7467
" />
<path d="M43.7519 18.7467
L43.8123 18.6257
" />
<path d="M43.8123 18.6257
L43.8123 17.5976
" />
<path d="M44.2357 17.5976
L44.9614 17.5976
" />
<path d="M44.5986 18.8676
L44.5986 17.5976
" />
</g></g>
<g style="fill:#A90000; fill-opacity:0.0; 
stroke:#A90000; stroke-width:0.1524; stroke-opacity:1; 
stroke-linecap:round; stroke-linejoin:round;">
<text x="39.5756" y="18.0341"
textLength="2.6222" font-size="1.6933" lengthAdjust="spacingAndGlyphs"
text-anchor="middle" opacity="0">11</text>
<g class="stroked-text"><desc>11</desc>
<path d="M39.3337 17.8706
L38.6080 17.8706
" />
<path d="M38.9708 17.8706
L38.9708 16.6006
" />
<path d="M38.9708 16.6006
L38.8499 16.7821
" />
<path d="M38.8499 16.7821
L38.7289 16.9030
" />
<path d="M38.7289 16.9030
L38.6080 16.9635
" />
<path d="M40.5432 17.8706
L39.8175 17.8706
" />
<path d="M40.1803 17.8706
L40.1803 16.6006
" />
<path d="M40.1803 16.6006
L40.0594 16.7821
" />
<path d="M40.0594 16.7821
L39.9384 16.9030
" />
<path d="M39.9384 16.9030
L39.8175 16.9635
" />
</g></g>
<g style="fill:#840000; fill-opacity:0.0; 
stroke:#840000; stroke-width:0.1524; stroke-opacity:1; 
stroke-linecap:round; stroke-linejoin:round;">
<path d="M40.8456 20.8281
L38.3056 20.8281
" />
</g>
<g style="fill:#006464; fill-opacity:0.0; 
stroke:#006464; stroke-width:0.1524; stroke-opacity:1; 
stroke-linecap:round; stroke-linejoin:round;">
<text x="41.3536" y="21.4631"
textLength="3.8318" font-size="1.6933" lengthAdjust="spacingAndGlyphs"
text-anchor="start" opacity="0">OUT</text>
<g class="stroked-text"><desc>OUT</desc>
<path d="M41.9980 20.1376
L42.2399 20.1376
" />
<path d="M42.2399 20.1376
L42.3609 20.1981
" />
<path d="M42.3609 20.1981
L42.4818 20.3191
" />
<path d="M42.4818 20.3191
L42.5423 20.5610
" />
<path d="M42.5423 20.5610
L42.5423 20.9843
" />
<path d="M42.5423 20.9843
L42.4818 21.2262
" />
<path d="M42.4818 21.2262
L42.3609 21.3472
" />
<path d="M42.3609 21.3472
L42.2399 21.4076
" />
<path d="M42.2399 21.4076
L41.9980 21.4076
" />
<path d="M41.9980 21.4076
L41.8771 21.3472
" />
<path d="M41.8771 21.3472
L41.7561 21.2262
" />
<path d="M41.7561 21.2262
L41.6957 20.9843
" />
<path d="M41.6957 20.9843
L41.6957 20.5610
" />
<path d="M41.6957 20.5610
L41.7561 20.3191
" />
<path d="M41.7561 20.3191
L41.8771 20.1981
" />
<path d="M41.8771 20.1981
L41.9980 20.1376
" />
<path d="M43.0866 20.1376
L43.0866 21.1657
" />
<path d="M43.0866 21.1657
L43.1471 21.2867
" />
<path d="M43.1471 21.2867
L43.2076 21.3472
" />
<path d="M43.2076 21.3472
L43.3285 21.4076
" />
<path d="M43.3285 21.4076
L43.5704 21.4076
" />
<path d="M43.5704 21.4076
L43.6914 21.3472
" />
<path d="M43.6914 21.3472
L43.7519 21.2867
" />
<path d="M43.7519 21.2867
L43.8123 21.1657
" />
<path d="M43.8123 21.1657
L43.8123 20.1376
" />
<path d="M44.2357 20.1376
L44.9614 20.1376
" />
<path d="M44.5986 21.4076
L44.5986 20.1376
" />
</g></g>
<g style="fill:#A90000; fill-opacity:0.0; 
stroke:#A90000; stroke-width:0.1524; stroke-opacity:1; 
stroke-linecap:round; stroke-linejoin:round;">
<text x="39.5756" y="20.5741"
textLength="2.6222" font-size="1.6933" lengthAdjust="spacingAndGlyphs"
text-anchor="middle" opacity="0">12</text>
<g class="stroked-text"><desc>12</desc>
<path d="M39.3337 20.4106
L38.6080 20.4106
" />
<path d="M38.9708 20.4106
L38.9708 19.1406
" />
<path d="M38.9708 19.1406
L38.8499 19.3221
" />
<path d="M38.8499 19.3221
L38.7289 19.4430
" />
<path d="M38.7289 19.4430
L38.6080 19.5035
" />
<path d="M39.8175 19.2616
L39.8779 19.2011
" />
<path d="M39.8779 19.2011
L39.9989 19.1406
" />
<path d="M39.9989 19.1406
L40.3013 19.1406
" />
<path d="M40.3013 19.1406
L40.4222 19.2011
" />
<path d="M40.4222 19.2011
L40.4827 19.2616
" />
<path d="M40.4827 19.2616
L40.5432 19.3825
" />
<path d="M40.5432 19.3825
L40.5432 19.5035
" />
<path d="M40.5432 19.5035
L40.4827 19.6849
" />
<path d="M40.4827 19.6849
L39.7570 20.4106
" />
<path d="M39.7570 20.4106
L40.5432 20.4106
" />
</g></g>
<g style="fill:#840000; fill-opacity:0.0; 
stroke:#840000; stroke-width:0.1524; stroke-opacity:1; 
stroke-linecap:round; stroke-linejoin:round;">
<path d="M40.8456 23.3681
L38.3056 23.3681
" />
</g>
<g style="fill:#006464; fill-opacity:0.0; 
stroke:#006464; stroke-width:0.1524; stroke-opacity:1; 
stroke-linecap:round; stroke-linejoin:round;">
<text x="41.3536" y="24.0031"
textLength="3.8318" font-size="1.6933" lengthAdjust="spacingAndGlyphs"
text-anchor="start" opacity="0">OUT</text>
<g class="stroked-text"><desc>OUT</desc>
<path d="M41.9980 22.6776
L42.2399 22.6776
" />
<path d="M42.2399 22.6776
L42.3609 22.7381
" />
<path d="M42.3609 22.7381
L42.4818 22.8591
" />
<path d="M42.4818 22.8591
L42.5423 23.1010
" />
<path d="M42.5423 23.1010
L42.5423 23.5243
" />
<path d="M42.5423 23.5243
L42.4818 23.7662
" />
<path d="M42.4818 23.7662
L42.3609 23.8872
" />
<path d="M42.3609 23.8872
L42.2399 23.9476
" />
<path d="M42.2399 23.9476
L41.9980 23.9476
" />
<path d="M41.9980 23.9476
L41.8771 23.8872
" />
<path d="M41.8771 23.8872
L41.7561 23.7662
" />
<path d="M41.7561 23.7662
L41.6957 23.5243
" />
<path d="M41.6957 23.5243
L41.6957 23.1010
" />
<path d="M41.6957 23.1010
L41.7561 22.8591
" />
<path d="M41.7561 22.8591
L41.8771 22.7381
" />
<path d="M41.8771 22.7381
L41.9980 22.6776
" />
<path d="M43.0866 22.6776
L43.0866 23.7057
" />
<path d="M43.0866 23.7057
L43.1471 23.8267
" />
<path d="M43.1471 23.8267
L43.2076 23.8872
" />
<path d="M43.2076 23.8872
L43.3285 23.9476
" />
<path d="M43.3285 23.9476
L43.5704 23.9476
" />
<path d="M43.5704 23.9476
L43.6914 23.8872
" />
<path d="M43.6914 23.8872
L43.7519 23.8267
" />
<path d="M43.7519 23.8267
L43.8123 23.7057
" />
<path d="M43.8123 23.7057
L43.8123 22.6776
" />
<path d="M44.2357 22.6776
L44.9614 22.6776
" />
<path d="M44.5986 23.9476
L44.5986 22.6776
" />
</g></g>
<g style="fill:#A90000; fill-opacity:0.0; 
stroke:#A90000; stroke-width:0.1524; stroke-opacity:1; 
stroke-linecap:round; stroke-linejoin:round;">
<text x="39.5756" y="23.1141"
textLength="2.6222" font-size="1.6933" lengthAdjust="spacingAndGlyphs"
text-anchor="middle" opacity="0">13</text>
<g class="stroked-text"><desc>13</desc>
<path d="M39.3337 22.9506
L38.6080 22.9506
" />
<path d="M38.9708 22.9506
L38.9708 21.6806
" />
<path d="M38.9708 21.6806
L38.8499 21.8621
" />
<path d="M38.8499 21.8621
L38.7289 21.9830
" />
<path d="M38.7289 21.9830
L38.6080 22.0435
" />
<path d="M39.7570 21.6806
L40.5432 21.6806
" />
<path d="M40.5432 21.6806
L40.1198 22.1644
" />
<path d="M40.1198 22.1644
L40.3013 22.1644
" />
<path d="M40.3013 22.1644
L40.4222 22.2249
" />
<path d="M40.4222 22.2249
L40.4827 22.2854
" />
<path d="M40.4827 22.2854
L40.5432 22.4063
" />
<path d="M40.5432 22.4063
L40.5432 22.7087
" />
<path d="M40.5432 22.7087
L40.4827 22.8297
" />
<path d="M40.4827 22.8297
L40.4222 22.8902
" />
<path d="M40.4222 22.8902
L40.3013 22.9506
" />
<path d="M40.3013 22.9506
L39.9384 22.9506
" />
<path d="M39.9384 22.9506
L39.8175 22.8902
" />
<path d="M39.8175 22.8902
L39.7570 22.8297
" />
</g></g>
<g style="fill:#840000; fill-opacity:0.0; 
stroke:#840000; stroke-width:0.1524; stroke-opacity:1; 
stroke-linecap:round; stroke-linejoin:round;">
<path d="M51.0056 30.9881
L51.0056 33.5281
" />
</g>
<g style="fill:#006464; fill-opacity:0.0; 
stroke:#006464; stroke-width:0.1524; stroke-opacity:1; 
stroke-linecap:round; stroke-linejoin:round;">
<g transform="rotate(-90.000000 51.0056 30.4801)">
<text x="51.0056" y="31.1151"
textLength="2.5013" font-size="1.6933" lengthAdjust="spacingAndGlyphs"
text-anchor="start" opacity="0">0V</text>
</g>
<g class="stroked-text"><desc>0V</desc>
<path d="M50.3151 29.8356
L50.3151 29.7146
" />
<path d="M50.3151 29.7146
L50.3756 29.5937
" />
<path d="M50.3756 29.5937
L50.4361 29.5332
" />
<path d="M50.4361 29.5332
L50.5570 29.4727
" />
<path d="M50.5570 29.4727
L50.7989 29.4122
" />
<path d="M50.7989 29.4122
L51.1013 29.4122
" />
<path d="M51.1013 29.4122
L51.3432 29.4727
" />
<path d="M51.3432 29.4727
L51.4642 29.5332
" />
<path d="M51.4642 29.5332
L51.5247 29.5937
" />
<path d="M51.5247 29.5937
L51.5851 29.7146
" />
<path d="M51.5851 29.7146
L51.5851 29.8356
" />
<path d="M51.5851 29.8356
L51.5247 29.9565
" />
<path d="M51.5247 29.9565
L51.4642 30.0170
" />
<path d="M51.4642 30.0170
L51.3432 30.0775
" />
<path d="M51.3432 30.0775
L51.1013 30.1379
" />
<path d="M51.1013 30.1379
L50.7989 30.1379
" />
<path d="M50.7989 30.1379
L50.5570 30.0775
" />
<path d="M50.5570 30.0775
L50.4361 30.0170
" />
<path d="M50.4361 30.0170
L50.3756 29.9565
" />
<path d="M50.3756 29.9565
L50.3151 29.8356
" />
<path d="M50.3151 29.0494
L51.5851 28.6261
" />
<path d="M51.5851 28.6261
L50.3151 28.2027
" />
</g></g>
<g style="fill:#A90000; fill-opacity:0.0; 
stroke:#A90000; stroke-width:0.1524; stroke-opacity:1; 
stroke-linecap:round; stroke-linejoin:round;">
<g transform="rotate(-90.000000 50.7516 32.2581)">
<text x="50.7516" y="32.2581"
textLength="1.4127" font-size="1.6933" lengthAdjust="spacingAndGlyphs"
text-anchor="middle" opacity="0">2</text>
</g>
<g class="stroked-text"><desc>2</desc>
<path d="M49.4391 32.6208
L49.3786 32.5604
" />
<path d="M49.3786 32.5604
L49.3181 32.4394
" />
<path d="M49.3181 32.4394
L49.3181 32.1370
" />
<path d="M49.3181 32.1370
L49.3786 32.0161
" />
<path d="M49.3786 32.0161
L49.4391 31.9556
" />
<path d="M49.4391 31.9556
L49.5600 31.8951
" />
<path d="M49.5600 31.8951
L49.6810 31.8951
" />
<path d="M49.6810 31.8951
L49.8624 31.9556
" />
<path d="M49.8624 31.9556
L50.5881 32.6813
" />
<path d="M50.5881 32.6813
L50.5881 31.8951
" />
</g></g>
<g style="fill:#840000; fill-opacity:0.0; 
stroke:#840000; stroke-width:0.1524; stroke-opacity:1; 
stroke-linecap:round; stroke-linejoin:round;">
<path d="M61.1656 20.8281
L63.7056 20.8281
" />
</g>
<g style="fill:#006464; fill-opacity:0.0; 
stroke:#006464; stroke-width:0.1524; stroke-opacity:1; 
stroke-linecap:round; stroke-linejoin:round;">
<text x="60.6576" y="21.4631"
textLength="4.3155" font-size="1.6933" lengthAdjust="spacingAndGlyphs"
text-anchor="end" opacity="0">Vout</text>
<g class="stroked-text"><desc>Vout</desc>
<path d="M56.5660 20.1376
L56.9893 21.4076
" />
<path d="M56.9893 21.4076
L57.4127 20.1376
" />
<path d="M58.0175 21.4076
L57.8965 21.3472
" />
<path d="M57.8965 21.3472
L57.8360 21.2867
" />
<path d="M57.8360 21.2867
L57.7756 21.1657
" />
<path d="M57.7756 21.1657
L57.7756 20.8029
" />
<path d="M57.7756 20.8029
L57.8360 20.6819
" />
<path d="M57.8360 20.6819
L57.8965 20.6214
" />
<path d="M57.8965 20.6214
L58.0175 20.5610
" />
<path d="M58.0175 20.5610
L58.1989 20.5610
" />
<path d="M58.1989 20.5610
L58.3198 20.6214
" />
<path d="M58.3198 20.6214
L58.3803 20.6819
" />
<path d="M58.3803 20.6819
L58.4408 20.8029
" />
<path d="M58.4408 20.8029
L58.4408 21.1657
" />
<path d="M58.4408 21.1657
L58.3803 21.2867
" />
<path d="M58.3803 21.2867
L58.3198 21.3472
" />
<path d="M58.3198 21.3472
L58.1989 21.4076
" />
<path d="M58.1989 21.4076
L58.0175 21.4076
" />
<path d="M59.5293 20.5610
L59.5293 21.4076
" />
<path d="M58.9850 20.5610
L58.9850 21.2262
" />
<path d="M58.9850 21.2262
L59.0455 21.3472
" />
<path d="M59.0455 21.3472
L59.1665 21.4076
" />
<path d="M59.1665 21.4076
L59.3479 21.4076
" />
<path d="M59.3479 21.4076
L59.4688 21.3472
" />
<path d="M59.4688 21.3472
L59.5293 21.2867
" />
<path d="M59.9526 20.5610
L60.4364 20.5610
" />
<path d="M60.1340 20.1376
L60.1340 21.2262
" />
<path d="M60.1340 21.2262
L60.1945 21.3472
" />
<path d="M60.1945 21.3472
L60.3155 21.4076
" />
<path d="M60.3155 21.4076
L60.4364 21.4076
" />
</g></g>
<g style="fill:#A90000; fill-opacity:0.0; 
stroke:#A90000; stroke-width:0.1524; stroke-opacity:1; 
stroke-linecap:round; stroke-linejoin:round;">
<text x="62.4356" y="20.5741"
textLength="1.4127" font-size="1.6933" lengthAdjust="spacingAndGlyphs"
text-anchor="middle" opacity="0">3</text>
<g class="stroked-text"><desc>3</desc>
<path d="M62.0123 19.1406
L62.7985 19.1406
" />
<path d="M62.7985 19.1406
L62.3751 19.6244
" />
<path d="M62.3751 19.6244
L62.5566 19.6244
" />
<path d="M62.5566 19.6244
L62.6775 19.6849
" />
<path d="M62.6775 19.6849
L62.7380 19.7454
" />
<path d="M62.7380 19.7454
L62.7985 19.8663
" />
<path d="M62.7985 19.8663
L62.7985 20.1687
" />
<path d="M62.7985 20.1687
L62.7380 20.2897
" />
<path d="M62.7380 20.2897
L62.6775 20.3502
" />
<path d="M62.6775 20.3502
L62.5566 20.4106
" />
<path d="M62.5566 20.4106
L62.1937 20.4106
" />
<path d="M62.1937 20.4106
L62.0728 20.3502
" />
<path d="M62.0728 20.3502
L62.0123 20.2897
" />
</g></g>
<g style="fill:#840000; fill-opacity:0.0; 
stroke:#840000; stroke-width:0.1524; stroke-opacity:1; 
stroke-linecap:round; stroke-linejoin:round;">
<path d="M53.5456 5.5881
L53.5456 3.0481
" />
</g>
<g style="fill:#006464; fill-opacity:0.0; 
stroke:#006464; stroke-width:0.1524; stroke-opacity:1; 
stroke-linecap:round; stroke-linejoin:round;">
<g transform="rotate(-90.000000 53.5456 6.0961)">
<text x="53.5456" y="6.7311"
textLength="3.8923" font-size="1.6933" lengthAdjust="spacingAndGlyphs"
text-anchor="end" opacity="0">Vref</text>
</g>
<g class="stroked-text"><desc>Vref</desc>
<path d="M52.8551 9.7644
L54.1251 9.3411
" />
<path d="M54.1251 9.3411
L52.8551 8.9177
" />
<path d="M54.1251 8.4944
L53.2785 8.4944
" />
<path d="M53.5204 8.4944
L53.3994 8.4339
" />
<path d="M53.3994 8.4339
L53.3389 8.3734
" />
<path d="M53.3389 8.3734
L53.2785 8.2525
" />
<path d="M53.2785 8.2525
L53.2785 8.1315
" />
<path d="M54.0647 7.2244
L54.1251 7.3453
" />
<path d="M54.1251 7.3453
L54.1251 7.5872
" />
<path d="M54.1251 7.5872
L54.0647 7.7082
" />
<path d="M54.0647 7.7082
L53.9437 7.7686
" />
<path d="M53.9437 7.7686
L53.4599 7.7686
" />
<path d="M53.4599 7.7686
L53.3389 7.7082
" />
<path d="M53.3389 7.7082
L53.2785 7.5872
" />
<path d="M53.2785 7.5872
L53.2785 7.3453
" />
<path d="M53.2785 7.3453
L53.3389 7.2244
" />
<path d="M53.3389 7.2244
L53.4599 7.1639
" />
<path d="M53.4599 7.1639
L53.5808 7.1639
" />
<path d="M53.5808 7.1639
L53.7018 7.7686
" />
<path d="M53.2785 6.8010
L53.2785 6.3172
" />
<path d="M54.1251 6.6196
L53.0366 6.6196
" />
<path d="M53.0366 6.6196
L52.9156 6.5591
" />
<path d="M52.9156 6.5591
L52.8551 6.4381
" />
<path d="M52.8551 6.4381
L52.8551 6.3172
" />
</g></g>
<g style="fill:#A90000; fill-opacity:0.0; 
stroke:#A90000; stroke-width:0.1524; stroke-opacity:1; 
stroke-linecap:round; stroke-linejoin:round;">
<g transform="rotate(-90.000000 53.2916 4.3181)">
<text x="53.2916" y="4.3181"
textLength="1.4127" font-size="1.6933" lengthAdjust="spacingAndGlyphs"
text-anchor="middle" opacity="0">4</text>
</g>
<g class="stroked-text"><desc>4</desc>
<path d="M52.2815 4.0761
L53.1281 4.0761
" />
<path d="M51.7977 4.3785
L52.7048 4.6808
" />
<path d="M52.7048 4.6808
L52.7048 3.8947
" />
</g></g>
<g style="fill:#840000; fill-opacity:0.0; 
stroke:#840000; stroke-width:0.1524; stroke-opacity:1; 
stroke-linecap:round; stroke-linejoin:round;">
<path d="M61.1656 15.7481
L63.7056 15.7481
" />
</g>
<g style="fill:#006464; fill-opacity:0.0; 
stroke:#006464; stroke-width:0.1524; stroke-opacity:1; 
stroke-linecap:round; stroke-linejoin:round;">
<text x="60.6576" y="16.3831"
textLength="4.0737" font-size="1.6933" lengthAdjust="spacingAndGlyphs"
text-anchor="end" opacity="0">OCD</text>
<g class="stroked-text"><desc>OCD</desc>
<path d="M57.2311 15.0576
L57.4730 15.0576
" />
<path d="M57.4730 15.0576
L57.5940 15.1181
" />
<path d="M57.5940 15.1181
L57.7149 15.2391
" />
<path d="M57.7149 15.2391
L57.7754 15.4810
" />
<path d="M57.7754 15.4810
L57.7754 15.9043
" />
<path d="M57.7754 15.9043
L57.7149 16.1462
" />
<path d="M57.7149 16.1462
L57.5940 16.2672
" />
<path d="M57.5940 16.2672
L57.4730 16.3276
" />
<path d="M57.4730 16.3276
L57.2311 16.3276
" />
<path d="M57.2311 16.3276
L57.1102 16.2672
" />
<path d="M57.1102 16.2672
L56.9892 16.1462
" />
<path d="M56.9892 16.1462
L56.9288 15.9043
" />
<path d="M56.9288 15.9043
L56.9288 15.4810
" />
<path d="M56.9288 15.4810
L56.9892 15.2391
" />
<path d="M56.9892 15.2391
L57.1102 15.1181
" />
<path d="M57.1102 15.1181
L57.2311 15.0576
" />
<path d="M59.0454 16.2067
L58.9850 16.2672
" />
<path d="M58.9850 16.2672
L58.8035 16.3276
" />
<path d="M58.8035 16.3276
L58.6826 16.3276
" />
<path d="M58.6826 16.3276
L58.5012 16.2672
" />
<path d="M58.5012 16.2672
L58.3802 16.1462
" />
<path d="M58.3802 16.1462
L58.3197 16.0252
" />
<path d="M58.3197 16.0252
L58.2593 15.7833
" />
<path d="M58.2593 15.7833
L58.2593 15.6019
" />
<path d="M58.2593 15.6019
L58.3197 15.3600
" />
<path d="M58.3197 15.3600
L58.3802 15.2391
" />
<path d="M58.3802 15.2391
L58.5012 15.1181
" />
<path d="M58.5012 15.1181
L58.6826 15.0576
" />
<path d="M58.6826 15.0576
L58.8035 15.0576
" />
<path d="M58.8035 15.0576
L58.9850 15.1181
" />
<path d="M58.9850 15.1181
L59.0454 15.1786
" />
<path d="M59.5897 16.3276
L59.5897 15.0576
" />
<path d="M59.5897 15.0576
L59.8921 15.0576
" />
<path d="M59.8921 15.0576
L60.0735 15.1181
" />
<path d="M60.0735 15.1181
L60.1945 15.2391
" />
<path d="M60.1945 15.2391
L60.2550 15.3600
" />
<path d="M60.2550 15.3600
L60.3154 15.6019
" />
<path d="M60.3154 15.6019
L60.3154 15.7833
" />
<path d="M60.3154 15.7833
L60.2550 16.0252
" />
<path d="M60.2550 16.0252
L60.1945 16.1462
" />
<path d="M60.1945 16.1462
L60.0735 16.2672
" />
<path d="M60.0735 16.2672
L59.8921 16.3276
" />
<path d="M59.8921 16.3276
L59.5897 16.3276
" />
</g></g>
<g style="fill:#A90000; fill-opacity:0.0; 
stroke:#A90000; stroke-width:0.1524; stroke-opacity:1; 
stroke-linecap:round; stroke-linejoin:round;">
<text x="62.4356" y="15.4941"
textLength="1.4127" font-size="1.6933" lengthAdjust="spacingAndGlyphs"
text-anchor="middle" opacity="0">5</text>
<g class="stroked-text"><desc>5</desc>
<path d="M62.7380 14.0606
L62.1332 14.0606
" />
<path d="M62.1332 14.0606
L62.0728 14.6654
" />
<path d="M62.0728 14.6654
L62.1332 14.6049
" />
<path d="M62.1332 14.6049
L62.2542 14.5444
" />
<path d="M62.2542 14.5444
L62.5566 14.5444
" />
<path d="M62.5566 14.5444
L62.6775 14.6049
" />
<path d="M62.6775 14.6049
L62.7380 14.6654
" />
<path d="M62.7380 14.6654
L62.7985 14.7863
" />
<path d="M62.7985 14.7863
L62.7985 15.0887
" />
<path d="M62.7985 15.0887
L62.7380 15.2097
" />
<path d="M62.7380 15.2097
L62.6775 15.2702
" />
<path d="M62.6775 15.2702
L62.5566 15.3306
" />
<path d="M62.5566 15.3306
L62.2542 15.3306
" />
<path d="M62.2542 15.3306
L62.1332 15.2702
" />
<path d="M62.1332 15.2702
L62.0728 15.2097
" />
</g></g>
<g style="fill:#840000; fill-opacity:0.0; 
stroke:#840000; stroke-width:0.1524; stroke-opacity:1; 
stroke-linecap:round; stroke-linejoin:round;">
<path d="M40.8456 28.4481
L38.3056 28.4481
" />
</g>
<g style="fill:#006464; fill-opacity:0.0; 
stroke:#006464; stroke-width:0.1524; stroke-opacity:1; 
stroke-linecap:round; stroke-linejoin:round;">
<text x="41.3536" y="29.0831"
textLength="7.7020" font-size="1.6933" lengthAdjust="spacingAndGlyphs"
text-anchor="start" opacity="0">Standby</text>
<g class="stroked-text"><desc>Standby</desc>
<path d="M41.6957 28.9672
L41.8771 29.0276
" />
<path d="M41.8771 29.0276
L42.1795 29.0276
" />
<path d="M42.1795 29.0276
L42.3004 28.9672
" />
<path d="M42.3004 28.9672
L42.3609 28.9067
" />
<path d="M42.3609 28.9067
L42.4214 28.7857
" />
<path d="M42.4214 28.7857
L42.4214 28.6648
" />
<path d="M42.4214 28.6648
L42.3609 28.5438
" />
<path d="M42.3609 28.5438
L42.3004 28.4833
" />
<path d="M42.3004 28.4833
L42.1795 28.4229
" />
<path d="M42.1795 28.4229
L41.9376 28.3624
" />
<path d="M41.9376 28.3624
L41.8166 28.3019
" />
<path d="M41.8166 28.3019
L41.7561 28.2414
" />
<path d="M41.7561 28.2414
L41.6957 28.1205
" />
<path d="M41.6957 28.1205
L41.6957 27.9995
" />
<path d="M41.6957 27.9995
L41.7561 27.8786
" />
<path d="M41.7561 27.8786
L41.8166 27.8181
" />
<path d="M41.8166 27.8181
L41.9376 27.7576
" />
<path d="M41.9376 27.7576
L42.2399 27.7576
" />
<path d="M42.2399 27.7576
L42.4214 27.8181
" />
<path d="M42.7842 28.1810
L43.2680 28.1810
" />
<path d="M42.9656 27.7576
L42.9656 28.8462
" />
<path d="M42.9656 28.8462
L43.0261 28.9672
" />
<path d="M43.0261 28.9672
L43.1471 29.0276
" />
<path d="M43.1471 29.0276
L43.2680 29.0276
" />
<path d="M44.2356 29.0276
L44.2356 28.3624
" />
<path d="M44.2356 28.3624
L44.1751 28.2414
" />
<path d="M44.1751 28.2414
L44.0542 28.1810
" />
<path d="M44.0542 28.1810
L43.8123 28.1810
" />
<path d="M43.8123 28.1810
L43.6913 28.2414
" />
<path d="M44.2356 28.9672
L44.1147 29.0276
" />
<path d="M44.1147 29.0276
L43.8123 29.0276
" />
<path d="M43.8123 29.0276
L43.6913 28.9672
" />
<path d="M43.6913 28.9672
L43.6309 28.8462
" />
<path d="M43.6309 28.8462
L43.6309 28.7252
" />
<path d="M43.6309 28.7252
L43.6913 28.6043
" />
<path d="M43.6913 28.6043
L43.8123 28.5438
" />
<path d="M43.8123 28.5438
L44.1147 28.5438
" />
<path d="M44.1147 28.5438
L44.2356 28.4833
" />
<path d="M44.8403 28.1810
L44.8403 29.0276
" />
<path d="M44.8403 28.3019
L44.9008 28.2414
" />
<path d="M44.9008 28.2414
L45.0218 28.1810
" />
<path d="M45.0218 28.1810
L45.2032 28.1810
" />
<path d="M45.2032 28.1810
L45.3241 28.2414
" />
<path d="M45.3241 28.2414
L45.3846 28.3624
" />
<path d="M45.3846 28.3624
L45.3846 29.0276
" />
<path d="M46.5336 29.0276
L46.5336 27.7576
" />
<path d="M46.5336 28.9672
L46.4127 29.0276
" />
<path d="M46.4127 29.0276
L46.1708 29.0276
" />
<path d="M46.1708 29.0276
L46.0498 28.9672
" />
<path d="M46.0498 28.9672
L45.9893 28.9067
" />
<path d="M45.9893 28.9067
L45.9289 28.7857
" />
<path d="M45.9289 28.7857
L45.9289 28.4229
" />
<path d="M45.9289 28.4229
L45.9893 28.3019
" />
<path d="M45.9893 28.3019
L46.0498 28.2414
" />
<path d="M46.0498 28.2414
L46.1708 28.1810
" />
<path d="M46.1708 28.1810
L46.4127 28.1810
" />
<path d="M46.4127 28.1810
L46.5336 28.2414
" />
<path d="M47.1383 29.0276
L47.1383 27.7576
" />
<path d="M47.1383 28.2414
L47.2593 28.1810
" />
<path d="M47.2593 28.1810
L47.5012 28.1810
" />
<path d="M47.5012 28.1810
L47.6221 28.2414
" />
<path d="M47.6221 28.2414
L47.6826 28.3019
" />
<path d="M47.6826 28.3019
L47.7431 28.4229
" />
<path d="M47.7431 28.4229
L47.7431 28.7857
" />
<path d="M47.7431 28.7857
L47.6826 28.9067
" />
<path d="M47.6826 28.9067
L47.6221 28.9672
" />
<path d="M47.6221 28.9672
L47.5012 29.0276
" />
<path d="M47.5012 29.0276
L47.2593 29.0276
" />
<path d="M47.2593 29.0276
L47.1383 28.9672
" />
<path d="M48.1664 28.1810
L48.4688 29.0276
" />
<path d="M48.7711 28.1810
L48.4688 29.0276
" />
<path d="M48.4688 29.0276
L48.3478 29.3300
" />
<path d="M48.3478 29.3300
L48.2873 29.3905
" />
<path d="M48.2873 29.3905
L48.1664 29.4510
" />
</g></g>
<g style="fill:#A90000; fill-opacity:0.0; 
stroke:#A90000; stroke-width:0.1524; stroke-opacity:1; 
stroke-linecap:round; stroke-linejoin:round;">
<text x="39.5756" y="28.1941"
textLength="1.4127" font-size="1.6933" lengthAdjust="spacingAndGlyphs"
text-anchor="middle" opacity="0">6</text>
<g class="stroked-text"><desc>6</desc>
<path d="M39.8175 26.7606
L39.5756 26.7606
" />
<path d="M39.5756 26.7606
L39.4547 26.8211
" />
<path d="M39.4547 26.8211
L39.3942 26.8816
" />
<path d="M39.3942 26.8816
L39.2732 27.0630
" />
<path d="M39.2732 27.0630
L39.2128 27.3049
" />
<path d="M39.2128 27.3049
L39.2128 27.7887
" />
<path d="M39.2128 27.7887
L39.2732 27.9097
" />
<path d="M39.2732 27.9097
L39.3337 27.9702
" />
<path d="M39.3337 27.9702
L39.4547 28.0306
" />
<path d="M39.4547 28.0306
L39.6966 28.0306
" />
<path d="M39.6966 28.0306
L39.8175 27.9702
" />
<path d="M39.8175 27.9702
L39.8780 27.9097
" />
<path d="M39.8780 27.9097
L39.9385 27.7887
" />
<path d="M39.9385 27.7887
L39.9385 27.4863
" />
<path d="M39.9385 27.4863
L39.8780 27.3654
" />
<path d="M39.8780 27.3654
L39.8175 27.3049
" />
<path d="M39.8175 27.3049
L39.6966 27.2444
" />
<path d="M39.6966 27.2444
L39.4547 27.2444
" />
<path d="M39.4547 27.2444
L39.3337 27.3049
" />
<path d="M39.3337 27.3049
L39.2732 27.3654
" />
<path d="M39.2732 27.3654
L39.2128 27.4863
" />
</g></g>
<g style="fill:#840000; fill-opacity:0.0; 
stroke:#840000; stroke-width:0.1524; stroke-opacity:1; 
stroke-linecap:round; stroke-linejoin:round;">
<path d="M53.5456 30.9881
L53.5456 33.5281
" />
</g>
<g style="fill:#006464; fill-opacity:0.0; 
stroke:#006464; stroke-width:0.1524; stroke-opacity:1; 
stroke-linecap:round; stroke-linejoin:round;">
<g transform="rotate(-90.000000 53.5456 30.4801)">
<text x="53.5456" y="31.1151"
textLength="2.6223" font-size="1.6933" lengthAdjust="spacingAndGlyphs"
text-anchor="start" opacity="0">NA</text>
</g>
<g class="stroked-text"><desc>NA</desc>
<path d="M54.1251 30.0775
L52.8551 30.0775
" />
<path d="M52.8551 30.0775
L54.1251 29.3518
" />
<path d="M54.1251 29.3518
L52.8551 29.3518
" />
<path d="M53.7623 28.8074
L53.7623 28.2027
" />
<path d="M54.1251 28.9284
L52.8551 28.5051
" />
<path d="M52.8551 28.5051
L54.1251 28.0817
" />
</g></g>
<g style="fill:#A90000; fill-opacity:0.0; 
stroke:#A90000; stroke-width:0.1524; stroke-opacity:1; 
stroke-linecap:round; stroke-linejoin:round;">
<g transform="rotate(-90.000000 53.2916 32.2581)">
<text x="53.2916" y="32.2581"
textLength="1.4127" font-size="1.6933" lengthAdjust="spacingAndGlyphs"
text-anchor="middle" opacity="0">7</text>
</g>
<g class="stroked-text"><desc>7</desc>
<path d="M51.8581 32.6813
L51.8581 31.8347
" />
<path d="M51.8581 31.8347
L53.1281 32.3789
" />
</g></g>
<g style="fill:#840000; fill-opacity:0.0; 
stroke:#840000; stroke-width:0.1524; stroke-opacity:1; 
stroke-linecap:round; stroke-linejoin:round;">
<path d="M40.8456 8.1281
L38.3056 8.1281
" />
</g>
<g style="fill:#006464; fill-opacity:0.0; 
stroke:#006464; stroke-width:0.1524; stroke-opacity:1; 
stroke-linecap:round; stroke-linejoin:round;">
<text x="41.3536" y="8.7631"
textLength="2.1385" font-size="1.6933" lengthAdjust="spacingAndGlyphs"
text-anchor="start" opacity="0">IN</text>
<g class="stroked-text"><desc>IN</desc>
<path d="M41.7561 8.7076
L41.7561 7.4376
" />
<path d="M42.3609 8.7076
L42.3609 7.4376
" />
<path d="M42.3609 7.4376
L43.0866 8.7076
" />
<path d="M43.0866 8.7076
L43.0866 7.4376
" />
</g></g>
<g style="fill:#A90000; fill-opacity:0.0; 
stroke:#A90000; stroke-width:0.1524; stroke-opacity:1; 
stroke-linecap:round; stroke-linejoin:round;">
<text x="39.5756" y="7.8741"
textLength="1.4127" font-size="1.6933" lengthAdjust="spacingAndGlyphs"
text-anchor="middle" opacity="0">8</text>
<g class="stroked-text"><desc>8</desc>
<path d="M39.4547 6.9849
L39.3337 6.9244
" />
<path d="M39.3337 6.9244
L39.2732 6.8640
" />
<path d="M39.2732 6.8640
L39.2128 6.7430
" />
<path d="M39.2128 6.7430
L39.2128 6.6825
" />
<path d="M39.2128 6.6825
L39.2732 6.5616
" />
<path d="M39.2732 6.5616
L39.3337 6.5011
" />
<path d="M39.3337 6.5011
L39.4547 6.4406
" />
<path d="M39.4547 6.4406
L39.6966 6.4406
" />
<path d="M39.6966 6.4406
L39.8175 6.5011
" />
<path d="M39.8175 6.5011
L39.8780 6.5616
" />
<path d="M39.8780 6.5616
L39.9385 6.6825
" />
<path d="M39.9385 6.6825
L39.9385 6.7430
" />
<path d="M39.9385 6.7430
L39.8780 6.8640
" />
<path d="M39.8780 6.8640
L39.8175 6.9244
" />
<path d="M39.8175 6.9244
L39.6966 6.9849
" />
<path d="M39.6966 6.9849
L39.4547 6.9849
" />
<path d="M39.4547 6.9849
L39.3337 7.0454
" />
<path d="M39.3337 7.0454
L39.2732 7.1059
" />
<path d="M39.2732 7.1059
L39.2128 7.2268
" />
<path d="M39.2128 7.2268
L39.2128 7.4687
" />
<path d="M39.2128 7.4687
L39.2732 7.5897
" />
<path d="M39.2732 7.5897
L39.3337 7.6502
" />
<path d="M39.3337 7.6502
L39.4547 7.7106
" />
<path d="M39.4547 7.7106
L39.6966 7.7106
" />
<path d="M39.6966 7.7106
L39.8175 7.6502
" />
<path d="M39.8175 7.6502
L39.8780 7.5897
" />
<path d="M39.8780 7.5897
L39.9385 7.4687
" />
<path d="M39.9385 7.4687
L39.9385 7.2268
" />
<path d="M39.9385 7.2268
L39.8780 7.1059
" />
<path d="M39.8780 7.1059
L39.8175 7.0454
" />
<path d="M39.8175 7.0454
L39.6966 6.9849
" />
</g></g>
<g style="fill:#840000; fill-opacity:0.0; 
stroke:#840000; stroke-width:0.1524; stroke-opacity:1; 
stroke-linecap:round; stroke-linejoin:round;">
<path d="M40.8456 10.6681
L38.3056 10.6681
" />
</g>
<g style="fill:#006464; fill-opacity:0.0; 
stroke:#006464; stroke-width:0.1524; stroke-opacity:1; 
stroke-linecap:round; stroke-linejoin:round;">
<text x="41.3536" y="11.3031"
textLength="2.1385" font-size="1.6933" lengthAdjust="spacingAndGlyphs"
text-anchor="start" opacity="0">IN</text>
<g class="stroked-text"><desc>IN</desc>
<path d="M41.7561 11.2476
L41.7561 9.9776
" />
<path d="M42.3609 11.2476
L42.3609 9.9776
" />
<path d="M42.3609 9.9776
L43.0866 11.2476
" />
<path d="M43.0866 11.2476
L43.0866 9.9776
" />
</g></g>
<g style="fill:#A90000; fill-opacity:0.0; 
stroke:#A90000; stroke-width:0.1524; stroke-opacity:1; 
stroke-linecap:round; stroke-linejoin:round;">
<text x="39.5756" y="10.4141"
textLength="1.4127" font-size="1.6933" lengthAdjust="spacingAndGlyphs"
text-anchor="middle" opacity="0">9</text>
<g class="stroked-text"><desc>9</desc>
<path d="M39.3337 10.2506
L39.5756 10.2506
" />
<path d="M39.5756 10.2506
L39.6966 10.1902
" />
<path d="M39.6966 10.1902
L39.7570 10.1297
" />
<path d="M39.7570 10.1297
L39.8780 9.9482
" />
<path d="M39.8780 9.9482
L39.9385 9.7063
" />
<path d="M39.9385 9.7063
L39.9385 9.2225
" />
<path d="M39.9385 9.2225
L39.8780 9.1016
" />
<path d="M39.8780 9.1016
L39.8175 9.0411
" />
<path d="M39.8175 9.0411
L39.6966 8.9806
" />
<path d="M39.6966 8.9806
L39.4547 8.9806
" />
<path d="M39.4547 8.9806
L39.3337 9.0411
" />
<path d="M39.3337 9.0411
L39.2732 9.1016
" />
<path d="M39.2732 9.1016
L39.2128 9.2225
" />
<path d="M39.2128 9.2225
L39.2128 9.5249
" />
<path d="M39.2128 9.5249
L39.2732 9.6459
" />
<path d="M39.2732 9.6459
L39.3337 9.7063
" />
<path d="M39.3337 9.7063
L39.4547 9.7668
" />
<path d="M39.4547 9.7668
L39.6966 9.7668
" />
<path d="M39.6966 9.7668
L39.8175 9.7063
" />
<path d="M39.8175 9.7063
L39.8780 9.6459
" />
<path d="M39.8780 9.6459
L39.9385 9.5249
" />
</g></g>
<g style="fill:#840084; fill-opacity:0.0; 
stroke:#840084; stroke-width:0.1524; stroke-opacity:1; 
stroke-linecap:round; stroke-linejoin:round;">
</g>
<g style="fill:#006464; fill-opacity:0.0; 
stroke:#006464; stroke-width:0.1524; stroke-opacity:1; 
stroke-linecap:round; stroke-linejoin:round;">
</g>
<g style="fill:#006464; fill-opacity:0.0; 
stroke:#006464; stroke-width:0.1588; stroke-opacity:1; 
stroke-linecap:round; stroke-linejoin:round;">
<text x="43.4363" y="4.9531"
textLength="2.6415" font-size="1.6933" lengthAdjust="spacingAndGlyphs"
text-anchor="middle" opacity="0">U?</text>
<g class="stroked-text"><desc>U?</desc>
<path d="M42.5291 3.6273
L42.5291 4.6554
" />
<path d="M42.5291 4.6554
L42.5896 4.7764
" />
<path d="M42.5896 4.7764
L42.6501 4.8369
" />
<path d="M42.6501 4.8369
L42.7710 4.8973
" />
<path d="M42.7710 4.8973
L43.0129 4.8973
" />
<path d="M43.0129 4.8973
L43.1339 4.8369
" />
<path d="M43.1339 4.8369
L43.1944 4.7764
" />
<path d="M43.1944 4.7764
L43.2548 4.6554
" />
<path d="M43.2548 4.6554
L43.2548 3.6273
" />
<path d="M44.0411 4.7764
L44.1015 4.8369
" />
<path d="M44.1015 4.8369
L44.0411 4.8973
" />
<path d="M44.0411 4.8973
L43.9806 4.8369
" />
<path d="M43.9806 4.8369
L44.0411 4.7764
" />
<path d="M44.0411 4.7764
L44.0411 4.8973
" />
<path d="M43.7992 3.6878
L43.9201 3.6273
" />
<path d="M43.9201 3.6273
L44.2225 3.6273
" />
<path d="M44.2225 3.6273
L44.3434 3.6878
" />
<path d="M44.3434 3.6878
L44.4039 3.8088
" />
<path d="M44.4039 3.8088
L44.4039 3.9297
" />
<path d="M44.4039 3.9297
L44.3434 4.0507
" />
<path d="M44.3434 4.0507
L44.2830 4.1111
" />
<path d="M44.2830 4.1111
L44.1620 4.1716
" />
<path d="M44.1620 4.1716
L44.1015 4.2321
" />
<path d="M44.1015 4.2321
L44.0411 4.3530
" />
<path d="M44.0411 4.3530
L44.0411 4.4135
" />
</g><text x="58.9485" y="4.9531"
textLength="8.2658" font-size="1.6933" lengthAdjust="spacingAndGlyphs"
text-anchor="middle" opacity="0">HO8-NP</text>
<g class="stroked-text"><desc>HO8-NP</desc>
<path d="M55.2291 4.8973
L55.2291 3.6273
" />
<path d="M55.2291 4.2321
L55.9548 4.2321
" />
<path d="M55.9548 4.8973
L55.9548 3.6273
" />
<path d="M56.8015 3.6273
L57.0434 3.6273
" />
<path d="M57.0434 3.6273
L57.1644 3.6878
" />
<path d="M57.1644 3.6878
L57.2853 3.8088
" />
<path d="M57.2853 3.8088
L57.3458 4.0507
" />
<path d="M57.3458 4.0507
L57.3458 4.4740
" />
<path d="M57.3458 4.4740
L57.2853 4.7159
" />
<path d="M57.2853 4.7159
L57.1644 4.8369
" />
<path d="M57.1644 4.8369
L57.0434 4.8973
" />
<path d="M57.0434 4.8973
L56.8015 4.8973
" />
<path d="M56.8015 4.8973
L56.6806 4.8369
" />
<path d="M56.6806 4.8369
L56.5596 4.7159
" />
<path d="M56.5596 4.7159
L56.4992 4.4740
" />
<path d="M56.4992 4.4740
L56.4992 4.0507
" />
<path d="M56.4992 4.0507
L56.5596 3.8088
" />
<path d="M56.5596 3.8088
L56.6806 3.6878
" />
<path d="M56.6806 3.6878
L56.8015 3.6273
" />
<path d="M58.0716 4.1716
L57.9506 4.1111
" />
<path d="M57.9506 4.1111
L57.8901 4.0507
" />
<path d="M57.8901 4.0507
L57.8297 3.9297
" />
<path d="M57.8297 3.9297
L57.8297 3.8692
" />
<path d="M57.8297 3.8692
L57.8901 3.7483
" />
<path d="M57.8901 3.7483
L57.9506 3.6878
" />
<path d="M57.9506 3.6878
L58.0716 3.6273
" />
<path d="M58.0716 3.6273
L58.3135 3.6273
" />
<path d="M58.3135 3.6273
L58.4344 3.6878
" />
<path d="M58.4344 3.6878
L58.4949 3.7483
" />
<path d="M58.4949 3.7483
L58.5554 3.8692
" />
<path d="M58.5554 3.8692
L58.5554 3.9297
" />
<path d="M58.5554 3.9297
L58.4949 4.0507
" />
<path d="M58.4949 4.0507
L58.4344 4.1111
" />
<path d="M58.4344 4.1111
L58.3135 4.1716
" />
<path d="M58.3135 4.1716
L58.0716 4.1716
" />
<path d="M58.0716 4.1716
L57.9506 4.2321
" />
<path d="M57.9506 4.2321
L57.8901 4.2926
" />
<path d="M57.8901 4.2926
L57.8297 4.4135
" />
<path d="M57.8297 4.4135
L57.8297 4.6554
" />
<path d="M57.8297 4.6554
L57.8901 4.7764
" />
<path d="M57.8901 4.7764
L57.9506 4.8369
" />
<path d="M57.9506 4.8369
L58.0716 4.8973
" />
<path d="M58.0716 4.8973
L58.3135 4.8973
" />
<path d="M58.3135 4.8973
L58.4344 4.8369
" />
<path d="M58.4344 4.8369
L58.4949 4.7764
" />
<path d="M58.4949 4.7764
L58.5554 4.6554
" />
<path d="M58.5554 4.6554
L58.5554 4.4135
" />
<path d="M58.5554 4.4135
L58.4949 4.2926
" />
<path d="M58.4949 4.2926
L58.4344 4.2321
" />
<path d="M58.4344 4.2321
L58.3135 4.1716
" />
<path d="M59.0996 4.4135
L60.0673 4.4135
" />
<path d="M60.6720 4.8973
L60.6720 3.6273
" />
<path d="M60.6720 3.6273
L61.3977 4.8973
" />
<path d="M61.3977 4.8973
L61.3977 3.6273
" />
<path d="M62.0025 4.8973
L62.0025 3.6273
" />
<path d="M62.0025 3.6273
L62.4863 3.6273
" />
<path d="M62.4863 3.6273
L62.6073 3.6878
" />
<path d="M62.6073 3.6878
L62.6678 3.7483
" />
<path d="M62.6678 3.7483
L62.7282 3.8692
" />
<path d="M62.7282 3.8692
L62.7282 4.0507
" />
<path d="M62.7282 4.0507
L62.6678 4.1716
" />
<path d="M62.6678 4.1716
L62.6073 4.2321
" />
<path d="M62.6073 4.2321
L62.4863 4.2926
" />
<path d="M62.4863 4.2926
L62.0025 4.2926
" />
</g></g>
<g style="fill:#840084; fill-opacity:0.0; 
stroke:#840084; stroke-width:0.1588; stroke-opacity:1; 
stroke-linecap:round; stroke-linejoin:round;">
<text x="51.0056" y="18.9231"
textLength="27.7994" font-size="1.6933" lengthAdjust="spacingAndGlyphs"
text-anchor="middle" opacity="0">Sensor_Current:LEM_HO8-NP</text>
<g class="stroked-text"><desc>Sensor_Current:LEM_HO8-NP</desc>
<path d="M37.4590 18.8069
L37.6404 18.8673
" />
<path d="M37.6404 18.8673
L37.9428 18.8673
" />
<path d="M37.9428 18.8673
L38.0637 18.8069
" />
<path d="M38.0637 18.8069
L38.1242 18.7464
" />
<path d="M38.1242 18.7464
L38.1847 18.6254
" />
<path d="M38.1847 18.6254
L38.1847 18.5045
" />
<path d="M38.1847 18.5045
L38.1242 18.3835
" />
<path d="M38.1242 18.3835
L38.0637 18.3230
" />
<path d="M38.0637 18.3230
L37.9428 18.2626
" />
<path d="M37.9428 18.2626
L37.7009 18.2021
" />
<path d="M37.7009 18.2021
L37.5799 18.1416
" />
<path d="M37.5799 18.1416
L37.5194 18.0811
" />
<path d="M37.5194 18.0811
L37.4590 17.9602
" />
<path d="M37.4590 17.9602
L37.4590 17.8392
" />
<path d="M37.4590 17.8392
L37.5194 17.7183
" />
<path d="M37.5194 17.7183
L37.5799 17.6578
" />
<path d="M37.5799 17.6578
L37.7009 17.5973
" />
<path d="M37.7009 17.5973
L38.0032 17.5973
" />
<path d="M38.0032 17.5973
L38.1847 17.6578
" />
<path d="M39.2127 18.8069
L39.0918 18.8673
" />
<path d="M39.0918 18.8673
L38.8499 18.8673
" />
<path d="M38.8499 18.8673
L38.7289 18.8069
" />
<path d="M38.7289 18.8069
L38.6685 18.6859
" />
<path d="M38.6685 18.6859
L38.6685 18.2021
" />
<path d="M38.6685 18.2021
L38.7289 18.0811
" />
<path d="M38.7289 18.0811
L38.8499 18.0207
" />
<path d="M38.8499 18.0207
L39.0918 18.0207
" />
<path d="M39.0918 18.0207
L39.2127 18.0811
" />
<path d="M39.2127 18.0811
L39.2732 18.2021
" />
<path d="M39.2732 18.2021
L39.2732 18.3230
" />
<path d="M39.2732 18.3230
L38.6685 18.4440
" />
<path d="M39.8175 18.0207
L39.8175 18.8673
" />
<path d="M39.8175 18.1416
L39.8780 18.0811
" />
<path d="M39.8780 18.0811
L39.9990 18.0207
" />
<path d="M39.9990 18.0207
L40.1804 18.0207
" />
<path d="M40.1804 18.0207
L40.3013 18.0811
" />
<path d="M40.3013 18.0811
L40.3618 18.2021
" />
<path d="M40.3618 18.2021
L40.3618 18.8673
" />
<path d="M40.9061 18.8069
L41.0270 18.8673
" />
<path d="M41.0270 18.8673
L41.2689 18.8673
" />
<path d="M41.2689 18.8673
L41.3899 18.8069
" />
<path d="M41.3899 18.8069
L41.4503 18.6859
" />
<path d="M41.4503 18.6859
L41.4503 18.6254
" />
<path d="M41.4503 18.6254
L41.3899 18.5045
" />
<path d="M41.3899 18.5045
L41.2689 18.4440
" />
<path d="M41.2689 18.4440
L41.0875 18.4440
" />
<path d="M41.0875 18.4440
L40.9665 18.3835
" />
<path d="M40.9665 18.3835
L40.9061 18.2626
" />
<path d="M40.9061 18.2626
L40.9061 18.2021
" />
<path d="M40.9061 18.2021
L40.9665 18.0811
" />
<path d="M40.9665 18.0811
L41.0875 18.0207
" />
<path d="M41.0875 18.0207
L41.2689 18.0207
" />
<path d="M41.2689 18.0207
L41.3899 18.0811
" />
<path d="M42.1761 18.8673
L42.0551 18.8069
" />
<path d="M42.0551 18.8069
L41.9946 18.7464
" />
<path d="M41.9946 18.7464
L41.9342 18.6254
" />
<path d="M41.9342 18.6254
L41.9342 18.2626
" />
<path d="M41.9342 18.2626
L41.9946 18.1416
" />
<path d="M41.9946 18.1416
L42.0551 18.0811
" />
<path d="M42.0551 18.0811
L42.1761 18.0207
" />
<path d="M42.1761 18.0207
L42.3575 18.0207
" />
<path d="M42.3575 18.0207
L42.4784 18.0811
" />
<path d="M42.4784 18.0811
L42.5389 18.1416
" />
<path d="M42.5389 18.1416
L42.5994 18.2626
" />
<path d="M42.5994 18.2626
L42.5994 18.6254
" />
<path d="M42.5994 18.6254
L42.5389 18.7464
" />
<path d="M42.5389 18.7464
L42.4784 18.8069
" />
<path d="M42.4784 18.8069
L42.3575 18.8673
" />
<path d="M42.3575 18.8673
L42.1761 18.8673
" />
<path d="M43.1436 18.8673
L43.1436 18.0207
" />
<path d="M43.1436 18.2626
L43.2041 18.1416
" />
<path d="M43.2041 18.1416
L43.2646 18.0811
" />
<path d="M43.2646 18.0811
L43.3855 18.0207
" />
<path d="M43.3855 18.0207
L43.5065 18.0207
" />
<path d="M43.6275 18.9883
L44.5951 18.9883
" />
<path d="M45.6231 18.7464
L45.5627 18.8069
" />
<path d="M45.5627 18.8069
L45.3812 18.8673
" />
<path d="M45.3812 18.8673
L45.2603 18.8673
" />
<path d="M45.2603 18.8673
L45.0789 18.8069
" />
<path d="M45.0789 18.8069
L44.9579 18.6859
" />
<path d="M44.9579 18.6859
L44.8974 18.5649
" />
<path d="M44.8974 18.5649
L44.8370 18.3230
" />
<path d="M44.8370 18.3230
L44.8370 18.1416
" />
<path d="M44.8370 18.1416
L44.8974 17.8997
" />
<path d="M44.8974 17.8997
L44.9579 17.7788
" />
<path d="M44.9579 17.7788
L45.0789 17.6578
" />
<path d="M45.0789 17.6578
L45.2603 17.5973
" />
<path d="M45.2603 17.5973
L45.3812 17.5973
" />
<path d="M45.3812 17.5973
L45.5627 17.6578
" />
<path d="M45.5627 17.6578
L45.6231 17.7183
" />
<path d="M46.7117 18.0207
L46.7117 18.8673
" />
<path d="M46.1674 18.0207
L46.1674 18.6859
" />
<path d="M46.1674 18.6859
L46.2279 18.8069
" />
<path d="M46.2279 18.8069
L46.3489 18.8673
" />
<path d="M46.3489 18.8673
L46.5303 18.8673
" />
<path d="M46.5303 18.8673
L46.6512 18.8069
" />
<path d="M46.6512 18.8069
L46.7117 18.7464
" />
<path d="M47.3164 18.8673
L47.3164 18.0207
" />
<path d="M47.3164 18.2626
L47.3769 18.1416
" />
<path d="M47.3769 18.1416
L47.4374 18.0811
" />
<path d="M47.4374 18.0811
L47.5583 18.0207
" />
<path d="M47.5583 18.0207
L47.6793 18.0207
" />
<path d="M48.1026 18.8673
L48.1026 18.0207
" />
<path d="M48.1026 18.2626
L48.1631 18.1416
" />
<path d="M48.1631 18.1416
L48.2236 18.0811
" />
<path d="M48.2236 18.0811
L48.3445 18.0207
" />
<path d="M48.3445 18.0207
L48.4655 18.0207
" />
<path d="M49.3726 18.8069
L49.2517 18.8673
" />
<path d="M49.2517 18.8673
L49.0098 18.8673
" />
<path d="M49.0098 18.8673
L48.8888 18.8069
" />
<path d="M48.8888 18.8069
L48.8284 18.6859
" />
<path d="M48.8284 18.6859
L48.8284 18.2021
" />
<path d="M48.8284 18.2021
L48.8888 18.0811
" />
<path d="M48.8888 18.0811
L49.0098 18.0207
" />
<path d="M49.0098 18.0207
L49.2517 18.0207
" />
<path d="M49.2517 18.0207
L49.3726 18.0811
" />
<path d="M49.3726 18.0811
L49.4331 18.2021
" />
<path d="M49.4331 18.2021
L49.4331 18.3230
" />
<path d="M49.4331 18.3230
L48.8284 18.4440
" />
<path d="M49.9774 18.0207
L49.9774 18.8673
" />
<path d="M49.9774 18.1416
L50.0379 18.0811
" />
<path d="M50.0379 18.0811
L50.1589 18.0207
" />
<path d="M50.1589 18.0207
L50.3403 18.0207
" />
<path d="M50.3403 18.0207
L50.4612 18.0811
" />
<path d="M50.4612 18.0811
L50.5217 18.2021
" />
<path d="M50.5217 18.2021
L50.5217 18.8673
" />
<path d="M50.9450 18.0207
L51.4288 18.0207
" />
<path d="M51.1264 17.5973
L51.1264 18.6859
" />
<path d="M51.1264 18.6859
L51.1869 18.8069
" />
<path d="M51.1869 18.8069
L51.3079 18.8673
" />
<path d="M51.3079 18.8673
L51.4288 18.8673
" />
<path d="M51.8521 18.7464
L51.9126 18.8069
" />
<path d="M51.9126 18.8069
L51.8521 18.8673
" />
<path d="M51.8521 18.8673
L51.7917 18.8069
" />
<path d="M51.7917 18.8069
L51.8521 18.7464
" />
<path d="M51.8521 18.7464
L51.8521 18.8673
" />
<path d="M51.8521 18.0811
L51.9126 18.1416
" />
<path d="M51.9126 18.1416
L51.8521 18.2021
" />
<path d="M51.8521 18.2021
L51.7917 18.1416
" />
<path d="M51.7917 18.1416
L51.8521 18.0811
" />
<path d="M51.8521 18.0811
L51.8521 18.2021
" />
<path d="M53.0617 18.8673
L52.4569 18.8673
" />
<path d="M52.4569 18.8673
L52.4569 17.5973
" />
<path d="M53.4850 18.2021
L53.9084 18.2021
" />
<path d="M54.0898 18.8673
L53.4850 18.8673
" />
<path d="M53.4850 18.8673
L53.4850 17.5973
" />
<path d="M53.4850 17.5973
L54.0898 17.5973
" />
<path d="M54.6340 18.8673
L54.6340 17.5973
" />
<path d="M54.6340 17.5973
L55.0574 18.5045
" />
<path d="M55.0574 18.5045
L55.4807 17.5973
" />
<path d="M55.4807 17.5973
L55.4807 18.8673
" />
<path d="M55.7831 18.9883
L56.7507 18.9883
" />
<path d="M57.0530 18.8673
L57.0530 17.5973
" />
<path d="M57.0530 18.2021
L57.7787 18.2021
" />
<path d="M57.7787 18.8673
L57.7787 17.5973
" />
<path d="M58.6254 17.5973
L58.8673 17.5973
" />
<path d="M58.8673 17.5973
L58.9883 17.6578
" />
<path d="M58.9883 17.6578
L59.1092 17.7788
" />
<path d="M59.1092 17.7788
L59.1697 18.0207
" />
<path d="M59.1697 18.0207
L59.1697 18.4440
" />
<path d="M59.1697 18.4440
L59.1092 18.6859
" />
<path d="M59.1092 18.6859
L58.9883 18.8069
" />
<path d="M58.9883 18.8069
L58.8673 18.8673
" />
<path d="M58.8673 18.8673
L58.6254 18.8673
" />
<path d="M58.6254 18.8673
L58.5045 18.8069
" />
<path d="M58.5045 18.8069
L58.3835 18.6859
" />
<path d="M58.3835 18.6859
L58.3231 18.4440
" />
<path d="M58.3231 18.4440
L58.3231 18.0207
" />
<path d="M58.3231 18.0207
L58.3835 17.7788
" />
<path d="M58.3835 17.7788
L58.5045 17.6578
" />
<path d="M58.5045 17.6578
L58.6254 17.5973
" />
<path d="M59.8955 18.1416
L59.7745 18.0811
" />
<path d="M59.7745 18.0811
L59.7140 18.0207
" />
<path d="M59.7140 18.0207
L59.6536 17.8997
" />
<path d="M59.6536 17.8997
L59.6536 17.8392
" />
<path d="M59.6536 17.8392
L59.7140 17.7183
" />
<path d="M59.7140 17.7183
L59.7745 17.6578
" />
<path d="M59.7745 17.6578
L59.8955 17.5973
" />
<path d="M59.8955 17.5973
L60.1374 17.5973
" />
<path d="M60.1374 17.5973
L60.2583 17.6578
" />
<path d="M60.2583 17.6578
L60.3188 17.7183
" />
<path d="M60.3188 17.7183
L60.3793 17.8392
" />
<path d="M60.3793 17.8392
L60.3793 17.8997
" />
<path d="M60.3793 17.8997
L60.3188 18.0207
" />
<path d="M60.3188 18.0207
L60.2583 18.0811
" />
<path d="M60.2583 18.0811
L60.1374 18.1416
" />
<path d="M60.1374 18.1416
L59.8955 18.1416
" />
<path d="M59.8955 18.1416
L59.7745 18.2021
" />
<path d="M59.7745 18.2021
L59.7140 18.2626
" />
<path d="M59.7140 18.2626
L59.6536 18.3835
" />
<path d="M59.6536 18.3835
L59.6536 18.6254
" />
<path d="M59.6536 18.6254
L59.7140 18.7464
" />
<path d="M59.7140 18.7464
L59.7745 18.8069
" />
<path d="M59.7745 18.8069
L59.8955 18.8673
" />
<path d="M59.8955 18.8673
L60.1374 18.8673
" />
<path d="M60.1374 18.8673
L60.2583 18.8069
" />
<path d="M60.2583 18.8069
L60.3188 18.7464
" />
<path d="M60.3188 18.7464
L60.3793 18.6254
" />
<path d="M60.3793 18.6254
L60.3793 18.3835
" />
<path d="M60.3793 18.3835
L60.3188 18.2626
" />
<path d="M60.3188 18.2626
L60.2583 18.2021
" />
<path d="M60.2583 18.2021
L60.1374 18.1416
" />
<path d="M60.9235 18.3835
L61.8912 18.3835
" />
<path d="M62.4959 18.8673
L62.4959 17.5973
" />
<path d="M62.4959 17.5973
L63.2216 18.8673
" />
<path d="M63.2216 18.8673
L63.2216 17.5973
" />
<path d="M63.8264 18.8673
L63.8264 17.5973
" />
<path d="M63.8264 17.5973
L64.3102 17.5973
" />
<path d="M64.3102 17.5973
L64.4312 17.6578
" />
<path d="M64.4312 17.6578
L64.4917 17.7183
" />
<path d="M64.4917 17.7183
L64.5521 17.8392
" />
<path d="M64.5521 17.8392
L64.5521 18.0207
" />
<path d="M64.5521 18.0207
L64.4917 18.1416
" />
<path d="M64.4917 18.1416
L64.4312 18.2021
" />
<path d="M64.4312 18.2021
L64.3102 18.2626
" />
<path d="M64.3102 18.2626
L63.8264 18.2626
" />
</g><text x="51.0056" y="18.9231"
textLength="85.0095" font-size="1.6933" lengthAdjust="spacingAndGlyphs"
text-anchor="middle" opacity="0">https://www.lem.com/sites/default/files/products_datasheets/ho-np-0000_series.pdf</text>
<g class="stroked-text"><desc>https://www.lem.com/sites/default/files/products_datasheets/ho-np-0000_series.pdf</desc>
<path d="M8.9144 18.8673
L8.9144 17.5973
" />
<path d="M9.4587 18.8673
L9.4587 18.2021
" />
<path d="M9.4587 18.2021
L9.3982 18.0811
" />
<path d="M9.3982 18.0811
L9.2773 18.0207
" />
<path d="M9.2773 18.0207
L9.0959 18.0207
" />
<path d="M9.0959 18.0207
L8.9749 18.0811
" />
<path d="M8.9749 18.0811
L8.9144 18.1416
" />
<path d="M9.8820 18.0207
L10.3658 18.0207
" />
<path d="M10.0634 17.5973
L10.0634 18.6859
" />
<path d="M10.0634 18.6859
L10.1239 18.8069
" />
<path d="M10.1239 18.8069
L10.2449 18.8673
" />
<path d="M10.2449 18.8673
L10.3658 18.8673
" />
<path d="M10.6077 18.0207
L11.0915 18.0207
" />
<path d="M10.7891 17.5973
L10.7891 18.6859
" />
<path d="M10.7891 18.6859
L10.8496 18.8069
" />
<path d="M10.8496 18.8069
L10.9706 18.8673
" />
<path d="M10.9706 18.8673
L11.0915 18.8673
" />
<path d="M11.5148 18.0207
L11.5148 19.2907
" />
<path d="M11.5148 18.0811
L11.6358 18.0207
" />
<path d="M11.6358 18.0207
L11.8777 18.0207
" />
<path d="M11.8777 18.0207
L11.9986 18.0811
" />
<path d="M11.9986 18.0811
L12.0591 18.1416
" />
<path d="M12.0591 18.1416
L12.1196 18.2626
" />
<path d="M12.1196 18.2626
L12.1196 18.6254
" />
<path d="M12.1196 18.6254
L12.0591 18.7464
" />
<path d="M12.0591 18.7464
L11.9986 18.8069
" />
<path d="M11.9986 18.8069
L11.8777 18.8673
" />
<path d="M11.8777 18.8673
L11.6358 18.8673
" />
<path d="M11.6358 18.8673
L11.5148 18.8069
" />
<path d="M12.6034 18.8069
L12.7243 18.8673
" />
<path d="M12.7243 18.8673
L12.9662 18.8673
" />
<path d="M12.9662 18.8673
L13.0872 18.8069
" />
<path d="M13.0872 18.8069
L13.1476 18.6859
" />
<path d="M13.1476 18.6859
L13.1476 18.6254
" />
<path d="M13.1476 18.6254
L13.0872 18.5045
" />
<path d="M13.0872 18.5045
L12.9662 18.4440
" />
<path d="M12.9662 18.4440
L12.7848 18.4440
" />
<path d="M12.7848 18.4440
L12.6638 18.3835
" />
<path d="M12.6638 18.3835
L12.6034 18.2626
" />
<path d="M12.6034 18.2626
L12.6034 18.2021
" />
<path d="M12.6034 18.2021
L12.6638 18.0811
" />
<path d="M12.6638 18.0811
L12.7848 18.0207
" />
<path d="M12.7848 18.0207
L12.9662 18.0207
" />
<path d="M12.9662 18.0207
L13.0872 18.0811
" />
<path d="M13.6919 18.7464
L13.7524 18.8069
" />
<path d="M13.7524 18.8069
L13.6919 18.8673
" />
<path d="M13.6919 18.8673
L13.6315 18.8069
" />
<path d="M13.6315 18.8069
L13.6919 18.7464
" />
<path d="M13.6919 18.7464
L13.6919 18.8673
" />
<path d="M13.6919 18.0811
L13.7524 18.1416
" />
<path d="M13.7524 18.1416
L13.6919 18.2021
" />
<path d="M13.6919 18.2021
L13.6315 18.1416
" />
<path d="M13.6315 18.1416
L13.6919 18.0811
" />
<path d="M13.6919 18.0811
L13.6919 18.2021
" />
<path d="M15.2039 17.5369
L14.1153 19.1697
" />
<path d="M16.5344 17.5369
L15.4458 19.1697
" />
<path d="M16.8368 18.0207
L17.0787 18.8673
" />
<path d="M17.0787 18.8673
L17.3206 18.2626
" />
<path d="M17.3206 18.2626
L17.5625 18.8673
" />
<path d="M17.5625 18.8673
L17.8044 18.0207
" />
<path d="M18.1673 18.0207
L18.4092 18.8673
" />
<path d="M18.4092 18.8673
L18.6511 18.2626
" />
<path d="M18.6511 18.2626
L18.8930 18.8673
" />
<path d="M18.8930 18.8673
L19.1349 18.0207
" />
<path d="M19.4978 18.0207
L19.7397 18.8673
" />
<path d="M19.7397 18.8673
L19.9816 18.2626
" />
<path d="M19.9816 18.2626
L20.2235 18.8673
" />
<path d="M20.2235 18.8673
L20.4654 18.0207
" />
<path d="M20.9492 18.7464
L21.0097 18.8069
" />
<path d="M21.0097 18.8069
L20.9492 18.8673
" />
<path d="M20.9492 18.8673
L20.8888 18.8069
" />
<path d="M20.8888 18.8069
L20.9492 18.7464
" />
<path d="M20.9492 18.7464
L20.9492 18.8673
" />
<path d="M21.7355 18.8673
L21.6145 18.8069
" />
<path d="M21.6145 18.8069
L21.5540 18.6859
" />
<path d="M21.5540 18.6859
L21.5540 17.5973
" />
<path d="M22.7030 18.8069
L22.5821 18.8673
" />
<path d="M22.5821 18.8673
L22.3402 18.8673
" />
<path d="M22.3402 18.8673
L22.2192 18.8069
" />
<path d="M22.2192 18.8069
L22.1588 18.6859
" />
<path d="M22.1588 18.6859
L22.1588 18.2021
" />
<path d="M22.1588 18.2021
L22.2192 18.0811
" />
<path d="M22.2192 18.0811
L22.3402 18.0207
" />
<path d="M22.3402 18.0207
L22.5821 18.0207
" />
<path d="M22.5821 18.0207
L22.7030 18.0811
" />
<path d="M22.7030 18.0811
L22.7635 18.2021
" />
<path d="M22.7635 18.2021
L22.7635 18.3230
" />
<path d="M22.7635 18.3230
L22.1588 18.4440
" />
<path d="M23.3078 18.8673
L23.3078 18.0207
" />
<path d="M23.3078 18.1416
L23.3683 18.0811
" />
<path d="M23.3683 18.0811
L23.4893 18.0207
" />
<path d="M23.4893 18.0207
L23.6707 18.0207
" />
<path d="M23.6707 18.0207
L23.7916 18.0811
" />
<path d="M23.7916 18.0811
L23.8521 18.2021
" />
<path d="M23.8521 18.2021
L23.8521 18.8673
" />
<path d="M23.8521 18.2021
L23.9126 18.0811
" />
<path d="M23.9126 18.0811
L24.0335 18.0207
" />
<path d="M24.0335 18.0207
L24.2150 18.0207
" />
<path d="M24.2150 18.0207
L24.3359 18.0811
" />
<path d="M24.3359 18.0811
L24.3964 18.2021
" />
<path d="M24.3964 18.2021
L24.3964 18.8673
" />
<path d="M25.0011 18.7464
L25.0616 18.8069
" />
<path d="M25.0616 18.8069
L25.0011 18.8673
" />
<path d="M25.0011 18.8673
L24.9407 18.8069
" />
<path d="M24.9407 18.8069
L25.0011 18.7464
" />
<path d="M25.0011 18.7464
L25.0011 18.8673
" />
<path d="M26.1502 18.8069
L26.0293 18.8673
" />
<path d="M26.0293 18.8673
L25.7874 18.8673
" />
<path d="M25.7874 18.8673
L25.6664 18.8069
" />
<path d="M25.6664 18.8069
L25.6059 18.7464
" />
<path d="M25.6059 18.7464
L25.5455 18.6254
" />
<path d="M25.5455 18.6254
L25.5455 18.2626
" />
<path d="M25.5455 18.2626
L25.6059 18.1416
" />
<path d="M25.6059 18.1416
L25.6664 18.0811
" />
<path d="M25.6664 18.0811
L25.7874 18.0207
" />
<path d="M25.7874 18.0207
L26.0293 18.0207
" />
<path d="M26.0293 18.0207
L26.1502 18.0811
" />
<path d="M26.8760 18.8673
L26.7550 18.8069
" />
<path d="M26.7550 18.8069
L26.6945 18.7464
" />
<path d="M26.6945 18.7464
L26.6341 18.6254
" />
<path d="M26.6341 18.6254
L26.6341 18.2626
" />
<path d="M26.6341 18.2626
L26.6945 18.1416
" />
<path d="M26.6945 18.1416
L26.7550 18.0811
" />
<path d="M26.7550 18.0811
L26.8760 18.0207
" />
<path d="M26.8760 18.0207
L27.0574 18.0207
" />
<path d="M27.0574 18.0207
L27.1783 18.0811
" />
<path d="M27.1783 18.0811
L27.2388 18.1416
" />
<path d="M27.2388 18.1416
L27.2993 18.2626
" />
<path d="M27.2993 18.2626
L27.2993 18.6254
" />
<path d="M27.2993 18.6254
L27.2388 18.7464
" />
<path d="M27.2388 18.7464
L27.1783 18.8069
" />
<path d="M27.1783 18.8069
L27.0574 18.8673
" />
<path d="M27.0574 18.8673
L26.8760 18.8673
" />
<path d="M27.8435 18.8673
L27.8435 18.0207
" />
<path d="M27.8435 18.1416
L27.9040 18.0811
" />
<path d="M27.9040 18.0811
L28.0250 18.0207
" />
<path d="M28.0250 18.0207
L28.2064 18.0207
" />
<path d="M28.2064 18.0207
L28.3273 18.0811
" />
<path d="M28.3273 18.0811
L28.3878 18.2021
" />
<path d="M28.3878 18.2021
L28.3878 18.8673
" />
<path d="M28.3878 18.2021
L28.4483 18.0811
" />
<path d="M28.4483 18.0811
L28.5692 18.0207
" />
<path d="M28.5692 18.0207
L28.7507 18.0207
" />
<path d="M28.7507 18.0207
L28.8716 18.0811
" />
<path d="M28.8716 18.0811
L28.9321 18.2021
" />
<path d="M28.9321 18.2021
L28.9321 18.8673
" />
<path d="M30.4440 17.5369
L29.3554 19.1697
" />
<path d="M30.8069 18.8069
L30.9278 18.8673
" />
<path d="M30.9278 18.8673
L31.1697 18.8673
" />
<path d="M31.1697 18.8673
L31.2907 18.8069
" />
<path d="M31.2907 18.8069
L31.3511 18.6859
" />
<path d="M31.3511 18.6859
L31.3511 18.6254
" />
<path d="M31.3511 18.6254
L31.2907 18.5045
" />
<path d="M31.2907 18.5045
L31.1697 18.4440
" />
<path d="M31.1697 18.4440
L30.9883 18.4440
" />
<path d="M30.9883 18.4440
L30.8673 18.3835
" />
<path d="M30.8673 18.3835
L30.8069 18.2626
" />
<path d="M30.8069 18.2626
L30.8069 18.2021
" />
<path d="M30.8069 18.2021
L30.8673 18.0811
" />
<path d="M30.8673 18.0811
L30.9883 18.0207
" />
<path d="M30.9883 18.0207
L31.1697 18.0207
" />
<path d="M31.1697 18.0207
L31.2907 18.0811
" />
<path d="M31.8954 18.8673
L31.8954 18.0207
" />
<path d="M31.8954 17.5973
L31.8350 17.6578
" />
<path d="M31.8350 17.6578
L31.8954 17.7183
" />
<path d="M31.8954 17.7183
L31.9559 17.6578
" />
<path d="M31.9559 17.6578
L31.8954 17.5973
" />
<path d="M31.8954 17.5973
L31.8954 17.7183
" />
<path d="M32.3188 18.0207
L32.8026 18.0207
" />
<path d="M32.5002 17.5973
L32.5002 18.6859
" />
<path d="M32.5002 18.6859
L32.5607 18.8069
" />
<path d="M32.5607 18.8069
L32.6817 18.8673
" />
<path d="M32.6817 18.8673
L32.8026 18.8673
" />
<path d="M33.7097 18.8069
L33.5888 18.8673
" />
<path d="M33.5888 18.8673
L33.3469 18.8673
" />
<path d="M33.3469 18.8673
L33.2259 18.8069
" />
<path d="M33.2259 18.8069
L33.1655 18.6859
" />
<path d="M33.1655 18.6859
L33.1655 18.2021
" />
<path d="M33.1655 18.2021
L33.2259 18.0811
" />
<path d="M33.2259 18.0811
L33.3469 18.0207
" />
<path d="M33.3469 18.0207
L33.5888 18.0207
" />
<path d="M33.5888 18.0207
L33.7097 18.0811
" />
<path d="M33.7097 18.0811
L33.7702 18.2021
" />
<path d="M33.7702 18.2021
L33.7702 18.3230
" />
<path d="M33.7702 18.3230
L33.1655 18.4440
" />
<path d="M34.2541 18.8069
L34.3750 18.8673
" />
<path d="M34.3750 18.8673
L34.6169 18.8673
" />
<path d="M34.6169 18.8673
L34.7379 18.8069
" />
<path d="M34.7379 18.8069
L34.7983 18.6859
" />
<path d="M34.7983 18.6859
L34.7983 18.6254
" />
<path d="M34.7983 18.6254
L34.7379 18.5045
" />
<path d="M34.7379 18.5045
L34.6169 18.4440
" />
<path d="M34.6169 18.4440
L34.4355 18.4440
" />
<path d="M34.4355 18.4440
L34.3145 18.3835
" />
<path d="M34.3145 18.3835
L34.2541 18.2626
" />
<path d="M34.2541 18.2626
L34.2541 18.2021
" />
<path d="M34.2541 18.2021
L34.3145 18.0811
" />
<path d="M34.3145 18.0811
L34.4355 18.0207
" />
<path d="M34.4355 18.0207
L34.6169 18.0207
" />
<path d="M34.6169 18.0207
L34.7379 18.0811
" />
<path d="M36.2498 17.5369
L35.1612 19.1697
" />
<path d="M37.2174 18.8673
L37.2174 17.5973
" />
<path d="M37.2174 18.8069
L37.0965 18.8673
" />
<path d="M37.0965 18.8673
L36.8546 18.8673
" />
<path d="M36.8546 18.8673
L36.7336 18.8069
" />
<path d="M36.7336 18.8069
L36.6731 18.7464
" />
<path d="M36.6731 18.7464
L36.6127 18.6254
" />
<path d="M36.6127 18.6254
L36.6127 18.2626
" />
<path d="M36.6127 18.2626
L36.6731 18.1416
" />
<path d="M36.6731 18.1416
L36.7336 18.0811
" />
<path d="M36.7336 18.0811
L36.8546 18.0207
" />
<path d="M36.8546 18.0207
L37.0965 18.0207
" />
<path d="M37.0965 18.0207
L37.2174 18.0811
" />
<path d="M38.3059 18.8069
L38.1850 18.8673
" />
<path d="M38.1850 18.8673
L37.9431 18.8673
" />
<path d="M37.9431 18.8673
L37.8221 18.8069
" />
<path d="M37.8221 18.8069
L37.7617 18.6859
" />
<path d="M37.7617 18.6859
L37.7617 18.2021
" />
<path d="M37.7617 18.2021
L37.8221 18.0811
" />
<path d="M37.8221 18.0811
L37.9431 18.0207
" />
<path d="M37.9431 18.0207
L38.1850 18.0207
" />
<path d="M38.1850 18.0207
L38.3059 18.0811
" />
<path d="M38.3059 18.0811
L38.3664 18.2021
" />
<path d="M38.3664 18.2021
L38.3664 18.3230
" />
<path d="M38.3664 18.3230
L37.7617 18.4440
" />
<path d="M38.7293 18.0207
L39.2131 18.0207
" />
<path d="M38.9107 18.8673
L38.9107 17.7788
" />
<path d="M38.9107 17.7788
L38.9712 17.6578
" />
<path d="M38.9712 17.6578
L39.0922 17.5973
" />
<path d="M39.0922 17.5973
L39.2131 17.5973
" />
<path d="M40.1807 18.8673
L40.1807 18.2021
" />
<path d="M40.1807 18.2021
L40.1202 18.0811
" />
<path d="M40.1202 18.0811
L39.9993 18.0207
" />
<path d="M39.9993 18.0207
L39.7574 18.0207
" />
<path d="M39.7574 18.0207
L39.6364 18.0811
" />
<path d="M40.1807 18.8069
L40.0598 18.8673
" />
<path d="M40.0598 18.8673
L39.7574 18.8673
" />
<path d="M39.7574 18.8673
L39.6364 18.8069
" />
<path d="M39.6364 18.8069
L39.5760 18.6859
" />
<path d="M39.5760 18.6859
L39.5760 18.5649
" />
<path d="M39.5760 18.5649
L39.6364 18.4440
" />
<path d="M39.6364 18.4440
L39.7574 18.3835
" />
<path d="M39.7574 18.3835
L40.0598 18.3835
" />
<path d="M40.0598 18.3835
L40.1807 18.3230
" />
<path d="M41.3297 18.0207
L41.3297 18.8673
" />
<path d="M40.7854 18.0207
L40.7854 18.6859
" />
<path d="M40.7854 18.6859
L40.8459 18.8069
" />
<path d="M40.8459 18.8069
L40.9669 18.8673
" />
<path d="M40.9669 18.8673
L41.1483 18.8673
" />
<path d="M41.1483 18.8673
L41.2692 18.8069
" />
<path d="M41.2692 18.8069
L41.3297 18.7464
" />
<path d="M42.1159 18.8673
L41.9949 18.8069
" />
<path d="M41.9949 18.8069
L41.9344 18.6859
" />
<path d="M41.9344 18.6859
L41.9344 17.5973
" />
<path d="M42.4182 18.0207
L42.9020 18.0207
" />
<path d="M42.5996 17.5973
L42.5996 18.6859
" />
<path d="M42.5996 18.6859
L42.6601 18.8069
" />
<path d="M42.6601 18.8069
L42.7811 18.8673
" />
<path d="M42.7811 18.8673
L42.9020 18.8673
" />
<path d="M44.2325 17.5369
L43.1439 19.1697
" />
<path d="M44.4744 18.0207
L44.9582 18.0207
" />
<path d="M44.6558 18.8673
L44.6558 17.7788
" />
<path d="M44.6558 17.7788
L44.7163 17.6578
" />
<path d="M44.7163 17.6578
L44.8373 17.5973
" />
<path d="M44.8373 17.5973
L44.9582 17.5973
" />
<path d="M45.3815 18.8673
L45.3815 18.0207
" />
<path d="M45.3815 17.5973
L45.3211 17.6578
" />
<path d="M45.3211 17.6578
L45.3815 17.7183
" />
<path d="M45.3815 17.7183
L45.4420 17.6578
" />
<path d="M45.4420 17.6578
L45.3815 17.5973
" />
<path d="M45.3815 17.5973
L45.3815 17.7183
" />
<path d="M46.1678 18.8673
L46.0468 18.8069
" />
<path d="M46.0468 18.8069
L45.9863 18.6859
" />
<path d="M45.9863 18.6859
L45.9863 17.5973
" />
<path d="M47.1353 18.8069
L47.0144 18.8673
" />
<path d="M47.0144 18.8673
L46.7725 18.8673
" />
<path d="M46.7725 18.8673
L46.6515 18.8069
" />
<path d="M46.6515 18.8069
L46.5911 18.6859
" />
<path d="M46.5911 18.6859
L46.5911 18.2021
" />
<path d="M46.5911 18.2021
L46.6515 18.0811
" />
<path d="M46.6515 18.0811
L46.7725 18.0207
" />
<path d="M46.7725 18.0207
L47.0144 18.0207
" />
<path d="M47.0144 18.0207
L47.1353 18.0811
" />
<path d="M47.1353 18.0811
L47.1958 18.2021
" />
<path d="M47.1958 18.2021
L47.1958 18.3230
" />
<path d="M47.1958 18.3230
L46.5911 18.4440
" />
<path d="M47.6797 18.8069
L47.8006 18.8673
" />
<path d="M47.8006 18.8673
L48.0425 18.8673
" />
<path d="M48.0425 18.8673
L48.1635 18.8069
" />
<path d="M48.1635 18.8069
L48.2239 18.6859
" />
<path d="M48.2239 18.6859
L48.2239 18.6254
" />
<path d="M48.2239 18.6254
L48.1635 18.5045
" />
<path d="M48.1635 18.5045
L48.0425 18.4440
" />
<path d="M48.0425 18.4440
L47.8611 18.4440
" />
<path d="M47.8611 18.4440
L47.7401 18.3835
" />
<path d="M47.7401 18.3835
L47.6797 18.2626
" />
<path d="M47.6797 18.2626
L47.6797 18.2021
" />
<path d="M47.6797 18.2021
L47.7401 18.0811
" />
<path d="M47.7401 18.0811
L47.8611 18.0207
" />
<path d="M47.8611 18.0207
L48.0425 18.0207
" />
<path d="M48.0425 18.0207
L48.1635 18.0811
" />
<path d="M49.6754 17.5369
L48.5868 19.1697
" />
<path d="M50.0987 18.0207
L50.0987 19.2907
" />
<path d="M50.0987 18.0811
L50.2197 18.0207
" />
<path d="M50.2197 18.0207
L50.4616 18.0207
" />
<path d="M50.4616 18.0207
L50.5825 18.0811
" />
<path d="M50.5825 18.0811
L50.6430 18.1416
" />
<path d="M50.6430 18.1416
L50.7035 18.2626
" />
<path d="M50.7035 18.2626
L50.7035 18.6254
" />
<path d="M50.7035 18.6254
L50.6430 18.7464
" />
<path d="M50.6430 18.7464
L50.5825 18.8069
" />
<path d="M50.5825 18.8069
L50.4616 18.8673
" />
<path d="M50.4616 18.8673
L50.2197 18.8673
" />
<path d="M50.2197 18.8673
L50.0987 18.8069
" />
<path d="M51.2477 18.8673
L51.2477 18.0207
" />
<path d="M51.2477 18.2626
L51.3082 18.1416
" />
<path d="M51.3082 18.1416
L51.3687 18.0811
" />
<path d="M51.3687 18.0811
L51.4896 18.0207
" />
<path d="M51.4896 18.0207
L51.6106 18.0207
" />
<path d="M52.2154 18.8673
L52.0944 18.8069
" />
<path d="M52.0944 18.8069
L52.0339 18.7464
" />
<path d="M52.0339 18.7464
L51.9735 18.6254
" />
<path d="M51.9735 18.6254
L51.9735 18.2626
" />
<path d="M51.9735 18.2626
L52.0339 18.1416
" />
<path d="M52.0339 18.1416
L52.0944 18.0811
" />
<path d="M52.0944 18.0811
L52.2154 18.0207
" />
<path d="M52.2154 18.0207
L52.3968 18.0207
" />
<path d="M52.3968 18.0207
L52.5177 18.0811
" />
<path d="M52.5177 18.0811
L52.5782 18.1416
" />
<path d="M52.5782 18.1416
L52.6387 18.2626
" />
<path d="M52.6387 18.2626
L52.6387 18.6254
" />
<path d="M52.6387 18.6254
L52.5782 18.7464
" />
<path d="M52.5782 18.7464
L52.5177 18.8069
" />
<path d="M52.5177 18.8069
L52.3968 18.8673
" />
<path d="M52.3968 18.8673
L52.2154 18.8673
" />
<path d="M53.7272 18.8673
L53.7272 17.5973
" />
<path d="M53.7272 18.8069
L53.6063 18.8673
" />
<path d="M53.6063 18.8673
L53.3644 18.8673
" />
<path d="M53.3644 18.8673
L53.2434 18.8069
" />
<path d="M53.2434 18.8069
L53.1829 18.7464
" />
<path d="M53.1829 18.7464
L53.1225 18.6254
" />
<path d="M53.1225 18.6254
L53.1225 18.2626
" />
<path d="M53.1225 18.2626
L53.1829 18.1416
" />
<path d="M53.1829 18.1416
L53.2434 18.0811
" />
<path d="M53.2434 18.0811
L53.3644 18.0207
" />
<path d="M53.3644 18.0207
L53.6063 18.0207
" />
<path d="M53.6063 18.0207
L53.7272 18.0811
" />
<path d="M54.8762 18.0207
L54.8762 18.8673
" />
<path d="M54.3319 18.0207
L54.3319 18.6859
" />
<path d="M54.3319 18.6859
L54.3924 18.8069
" />
<path d="M54.3924 18.8069
L54.5134 18.8673
" />
<path d="M54.5134 18.8673
L54.6948 18.8673
" />
<path d="M54.6948 18.8673
L54.8157 18.8069
" />
<path d="M54.8157 18.8069
L54.8762 18.7464
" />
<path d="M56.0252 18.8069
L55.9043 18.8673
" />
<path d="M55.9043 18.8673
L55.6624 18.8673
" />
<path d="M55.6624 18.8673
L55.5414 18.8069
" />
<path d="M55.5414 18.8069
L55.4809 18.7464
" />
<path d="M55.4809 18.7464
L55.4205 18.6254
" />
<path d="M55.4205 18.6254
L55.4205 18.2626
" />
<path d="M55.4205 18.2626
L55.4809 18.1416
" />
<path d="M55.4809 18.1416
L55.5414 18.0811
" />
<path d="M55.5414 18.0811
L55.6624 18.0207
" />
<path d="M55.6624 18.0207
L55.9043 18.0207
" />
<path d="M55.9043 18.0207
L56.0252 18.0811
" />
<path d="M56.3881 18.0207
L56.8719 18.0207
" />
<path d="M56.5695 17.5973
L56.5695 18.6859
" />
<path d="M56.5695 18.6859
L56.6300 18.8069
" />
<path d="M56.6300 18.8069
L56.7510 18.8673
" />
<path d="M56.7510 18.8673
L56.8719 18.8673
" />
<path d="M57.2348 18.8069
L57.3557 18.8673
" />
<path d="M57.3557 18.8673
L57.5976 18.8673
" />
<path d="M57.5976 18.8673
L57.7186 18.8069
" />
<path d="M57.7186 18.8069
L57.7790 18.6859
" />
<path d="M57.7790 18.6859
L57.7790 18.6254
" />
<path d="M57.7790 18.6254
L57.7186 18.5045
" />
<path d="M57.7186 18.5045
L57.5976 18.4440
" />
<path d="M57.5976 18.4440
L57.4162 18.4440
" />
<path d="M57.4162 18.4440
L57.2952 18.3835
" />
<path d="M57.2952 18.3835
L57.2348 18.2626
" />
<path d="M57.2348 18.2626
L57.2348 18.2021
" />
<path d="M57.2348 18.2021
L57.2952 18.0811
" />
<path d="M57.2952 18.0811
L57.4162 18.0207
" />
<path d="M57.4162 18.0207
L57.5976 18.0207
" />
<path d="M57.5976 18.0207
L57.7186 18.0811
" />
<path d="M58.0210 18.9883
L58.9886 18.9883
" />
<path d="M59.8352 18.8673
L59.8352 17.5973
" />
<path d="M59.8352 18.8069
L59.7143 18.8673
" />
<path d="M59.7143 18.8673
L59.4724 18.8673
" />
<path d="M59.4724 18.8673
L59.3514 18.8069
" />
<path d="M59.3514 18.8069
L59.2909 18.7464
" />
<path d="M59.2909 18.7464
L59.2305 18.6254
" />
<path d="M59.2305 18.6254
L59.2305 18.2626
" />
<path d="M59.2305 18.2626
L59.2909 18.1416
" />
<path d="M59.2909 18.1416
L59.3514 18.0811
" />
<path d="M59.3514 18.0811
L59.4724 18.0207
" />
<path d="M59.4724 18.0207
L59.7143 18.0207
" />
<path d="M59.7143 18.0207
L59.8352 18.0811
" />
<path d="M60.9842 18.8673
L60.9842 18.2021
" />
<path d="M60.9842 18.2021
L60.9237 18.0811
" />
<path d="M60.9237 18.0811
L60.8028 18.0207
" />
<path d="M60.8028 18.0207
L60.5609 18.0207
" />
<path d="M60.5609 18.0207
L60.4399 18.0811
" />
<path d="M60.9842 18.8069
L60.8633 18.8673
" />
<path d="M60.8633 18.8673
L60.5609 18.8673
" />
<path d="M60.5609 18.8673
L60.4399 18.8069
" />
<path d="M60.4399 18.8069
L60.3795 18.6859
" />
<path d="M60.3795 18.6859
L60.3795 18.5649
" />
<path d="M60.3795 18.5649
L60.4399 18.4440
" />
<path d="M60.4399 18.4440
L60.5609 18.3835
" />
<path d="M60.5609 18.3835
L60.8633 18.3835
" />
<path d="M60.8633 18.3835
L60.9842 18.3230
" />
<path d="M61.4075 18.0207
L61.8913 18.0207
" />
<path d="M61.5889 17.5973
L61.5889 18.6859
" />
<path d="M61.5889 18.6859
L61.6494 18.8069
" />
<path d="M61.6494 18.8069
L61.7704 18.8673
" />
<path d="M61.7704 18.8673
L61.8913 18.8673
" />
<path d="M62.8589 18.8673
L62.8589 18.2021
" />
<path d="M62.8589 18.2021
L62.7984 18.0811
" />
<path d="M62.7984 18.0811
L62.6775 18.0207
" />
<path d="M62.6775 18.0207
L62.4356 18.0207
" />
<path d="M62.4356 18.0207
L62.3146 18.0811
" />
<path d="M62.8589 18.8069
L62.7380 18.8673
" />
<path d="M62.7380 18.8673
L62.4356 18.8673
" />
<path d="M62.4356 18.8673
L62.3146 18.8069
" />
<path d="M62.3146 18.8069
L62.2542 18.6859
" />
<path d="M62.2542 18.6859
L62.2542 18.5649
" />
<path d="M62.2542 18.5649
L62.3146 18.4440
" />
<path d="M62.3146 18.4440
L62.4356 18.3835
" />
<path d="M62.4356 18.3835
L62.7380 18.3835
" />
<path d="M62.7380 18.3835
L62.8589 18.3230
" />
<path d="M63.4032 18.8069
L63.5241 18.8673
" />
<path d="M63.5241 18.8673
L63.7660 18.8673
" />
<path d="M63.7660 18.8673
L63.8870 18.8069
" />
<path d="M63.8870 18.8069
L63.9474 18.6859
" />
<path d="M63.9474 18.6859
L63.9474 18.6254
" />
<path d="M63.9474 18.6254
L63.8870 18.5045
" />
<path d="M63.8870 18.5045
L63.7660 18.4440
" />
<path d="M63.7660 18.4440
L63.5846 18.4440
" />
<path d="M63.5846 18.4440
L63.4636 18.3835
" />
<path d="M63.4636 18.3835
L63.4032 18.2626
" />
<path d="M63.4032 18.2626
L63.4032 18.2021
" />
<path d="M63.4032 18.2021
L63.4636 18.0811
" />
<path d="M63.4636 18.0811
L63.5846 18.0207
" />
<path d="M63.5846 18.0207
L63.7660 18.0207
" />
<path d="M63.7660 18.0207
L63.8870 18.0811
" />
<path d="M64.4917 18.8673
L64.4917 17.5973
" />
<path d="M65.0360 18.8673
L65.0360 18.2021
" />
<path d="M65.0360 18.2021
L64.9755 18.0811
" />
<path d="M64.9755 18.0811
L64.8546 18.0207
" />
<path d="M64.8546 18.0207
L64.6732 18.0207
" />
<path d="M64.6732 18.0207
L64.5522 18.0811
" />
<path d="M64.5522 18.0811
L64.4917 18.1416
" />
<path d="M66.1245 18.8069
L66.0036 18.8673
" />
<path d="M66.0036 18.8673
L65.7617 18.8673
" />
<path d="M65.7617 18.8673
L65.6407 18.8069
" />
<path d="M65.6407 18.8069
L65.5803 18.6859
" />
<path d="M65.5803 18.6859
L65.5803 18.2021
" />
<path d="M65.5803 18.2021
L65.6407 18.0811
" />
<path d="M65.6407 18.0811
L65.7617 18.0207
" />
<path d="M65.7617 18.0207
L66.0036 18.0207
" />
<path d="M66.0036 18.0207
L66.1245 18.0811
" />
<path d="M66.1245 18.0811
L66.1850 18.2021
" />
<path d="M66.1850 18.2021
L66.1850 18.3230
" />
<path d="M66.1850 18.3230
L65.5803 18.4440
" />
<path d="M67.2131 18.8069
L67.0922 18.8673
" />
<path d="M67.0922 18.8673
L66.8503 18.8673
" />
<path d="M66.8503 18.8673
L66.7293 18.8069
" />
<path d="M66.7293 18.8069
L66.6689 18.6859
" />
<path d="M66.6689 18.6859
L66.6689 18.2021
" />
<path d="M66.6689 18.2021
L66.7293 18.0811
" />
<path d="M66.7293 18.0811
L66.8503 18.0207
" />
<path d="M66.8503 18.0207
L67.0922 18.0207
" />
<path d="M67.0922 18.0207
L67.2131 18.0811
" />
<path d="M67.2131 18.0811
L67.2736 18.2021
" />
<path d="M67.2736 18.2021
L67.2736 18.3230
" />
<path d="M67.2736 18.3230
L66.6689 18.4440
" />
<path d="M67.6365 18.0207
L68.1203 18.0207
" />
<path d="M67.8179 17.5973
L67.8179 18.6859
" />
<path d="M67.8179 18.6859
L67.8784 18.8069
" />
<path d="M67.8784 18.8069
L67.9994 18.8673
" />
<path d="M67.9994 18.8673
L68.1203 18.8673
" />
<path d="M68.4832 18.8069
L68.6041 18.8673
" />
<path d="M68.6041 18.8673
L68.8460 18.8673
" />
<path d="M68.8460 18.8673
L68.9670 18.8069
" />
<path d="M68.9670 18.8069
L69.0274 18.6859
" />
<path d="M69.0274 18.6859
L69.0274 18.6254
" />
<path d="M69.0274 18.6254
L68.9670 18.5045
" />
<path d="M68.9670 18.5045
L68.8460 18.4440
" />
<path d="M68.8460 18.4440
L68.6646 18.4440
" />
<path d="M68.6646 18.4440
L68.5436 18.3835
" />
<path d="M68.5436 18.3835
L68.4832 18.2626
" />
<path d="M68.4832 18.2626
L68.4832 18.2021
" />
<path d="M68.4832 18.2021
L68.5436 18.0811
" />
<path d="M68.5436 18.0811
L68.6646 18.0207
" />
<path d="M68.6646 18.0207
L68.8460 18.0207
" />
<path d="M68.8460 18.0207
L68.9670 18.0811
" />
<path d="M70.4789 17.5369
L69.3903 19.1697
" />
<path d="M70.9022 18.8673
L70.9022 17.5973
" />
<path d="M71.4465 18.8673
L71.4465 18.2021
" />
<path d="M71.4465 18.2021
L71.3860 18.0811
" />
<path d="M71.3860 18.0811
L71.2651 18.0207
" />
<path d="M71.2651 18.0207
L71.0837 18.0207
" />
<path d="M71.0837 18.0207
L70.9627 18.0811
" />
<path d="M70.9627 18.0811
L70.9022 18.1416
" />
<path d="M72.2327 18.8673
L72.1117 18.8069
" />
<path d="M72.1117 18.8069
L72.0512 18.7464
" />
<path d="M72.0512 18.7464
L71.9908 18.6254
" />
<path d="M71.9908 18.6254
L71.9908 18.2626
" />
<path d="M71.9908 18.2626
L72.0512 18.1416
" />
<path d="M72.0512 18.1416
L72.1117 18.0811
" />
<path d="M72.1117 18.0811
L72.2327 18.0207
" />
<path d="M72.2327 18.0207
L72.4141 18.0207
" />
<path d="M72.4141 18.0207
L72.5350 18.0811
" />
<path d="M72.5350 18.0811
L72.5955 18.1416
" />
<path d="M72.5955 18.1416
L72.6560 18.2626
" />
<path d="M72.6560 18.2626
L72.6560 18.6254
" />
<path d="M72.6560 18.6254
L72.5955 18.7464
" />
<path d="M72.5955 18.7464
L72.5350 18.8069
" />
<path d="M72.5350 18.8069
L72.4141 18.8673
" />
<path d="M72.4141 18.8673
L72.2327 18.8673
" />
<path d="M73.2002 18.3835
L74.1679 18.3835
" />
<path d="M74.7726 18.0207
L74.7726 18.8673
" />
<path d="M74.7726 18.1416
L74.8331 18.0811
" />
<path d="M74.8331 18.0811
L74.9541 18.0207
" />
<path d="M74.9541 18.0207
L75.1355 18.0207
" />
<path d="M75.1355 18.0207
L75.2564 18.0811
" />
<path d="M75.2564 18.0811
L75.3169 18.2021
" />
<path d="M75.3169 18.2021
L75.3169 18.8673
" />
<path d="M75.9216 18.0207
L75.9216 19.2907
" />
<path d="M75.9216 18.0811
L76.0426 18.0207
" />
<path d="M76.0426 18.0207
L76.2845 18.0207
" />
<path d="M76.2845 18.0207
L76.4054 18.0811
" />
<path d="M76.4054 18.0811
L76.4659 18.1416
" />
<path d="M76.4659 18.1416
L76.5264 18.2626
" />
<path d="M76.5264 18.2626
L76.5264 18.6254
" />
<path d="M76.5264 18.6254
L76.4659 18.7464
" />
<path d="M76.4659 18.7464
L76.4054 18.8069
" />
<path d="M76.4054 18.8069
L76.2845 18.8673
" />
<path d="M76.2845 18.8673
L76.0426 18.8673
" />
<path d="M76.0426 18.8673
L75.9216 18.8069
" />
<path d="M77.0706 18.3835
L78.0383 18.3835
" />
<path d="M78.8849 17.5973
L79.0059 17.5973
" />
<path d="M79.0059 17.5973
L79.1268 17.6578
" />
<path d="M79.1268 17.6578
L79.1873 17.7183
" />
<path d="M79.1873 17.7183
L79.2478 17.8392
" />
<path d="M79.2478 17.8392
L79.3083 18.0811
" />
<path d="M79.3083 18.0811
L79.3083 18.3835
" />
<path d="M79.3083 18.3835
L79.2478 18.6254
" />
<path d="M79.2478 18.6254
L79.1873 18.7464
" />
<path d="M79.1873 18.7464
L79.1268 18.8069
" />
<path d="M79.1268 18.8069
L79.0059 18.8673
" />
<path d="M79.0059 18.8673
L78.8849 18.8673
" />
<path d="M78.8849 18.8673
L78.7640 18.8069
" />
<path d="M78.7640 18.8069
L78.7035 18.7464
" />
<path d="M78.7035 18.7464
L78.6430 18.6254
" />
<path d="M78.6430 18.6254
L78.5826 18.3835
" />
<path d="M78.5826 18.3835
L78.5826 18.0811
" />
<path d="M78.5826 18.0811
L78.6430 17.8392
" />
<path d="M78.6430 17.8392
L78.7035 17.7183
" />
<path d="M78.7035 17.7183
L78.7640 17.6578
" />
<path d="M78.7640 17.6578
L78.8849 17.5973
" />
<path d="M80.0944 17.5973
L80.2154 17.5973
" />
<path d="M80.2154 17.5973
L80.3363 17.6578
" />
<path d="M80.3363 17.6578
L80.3968 17.7183
" />
<path d="M80.3968 17.7183
L80.4573 17.8392
" />
<path d="M80.4573 17.8392
L80.5178 18.0811
" />
<path d="M80.5178 18.0811
L80.5178 18.3835
" />
<path d="M80.5178 18.3835
L80.4573 18.6254
" />
<path d="M80.4573 18.6254
L80.3968 18.7464
" />
<path d="M80.3968 18.7464
L80.3363 18.8069
" />
<path d="M80.3363 18.8069
L80.2154 18.8673
" />
<path d="M80.2154 18.8673
L80.0944 18.8673
" />
<path d="M80.0944 18.8673
L79.9735 18.8069
" />
<path d="M79.9735 18.8069
L79.9130 18.7464
" />
<path d="M79.9130 18.7464
L79.8525 18.6254
" />
<path d="M79.8525 18.6254
L79.7921 18.3835
" />
<path d="M79.7921 18.3835
L79.7921 18.0811
" />
<path d="M79.7921 18.0811
L79.8525 17.8392
" />
<path d="M79.8525 17.8392
L79.9130 17.7183
" />
<path d="M79.9130 17.7183
L79.9735 17.6578
" />
<path d="M79.9735 17.6578
L80.0944 17.5973
" />
<path d="M81.3039 17.5973
L81.4249 17.5973
" />
<path d="M81.4249 17.5973
L81.5458 17.6578
" />
<path d="M81.5458 17.6578
L81.6063 17.7183
" />
<path d="M81.6063 17.7183
L81.6668 17.8392
" />
<path d="M81.6668 17.8392
L81.7273 18.0811
" />
<path d="M81.7273 18.0811
L81.7273 18.3835
" />
<path d="M81.7273 18.3835
L81.6668 18.6254
" />
<path d="M81.6668 18.6254
L81.6063 18.7464
" />
<path d="M81.6063 18.7464
L81.5458 18.8069
" />
<path d="M81.5458 18.8069
L81.4249 18.8673
" />
<path d="M81.4249 18.8673
L81.3039 18.8673
" />
<path d="M81.3039 18.8673
L81.1830 18.8069
" />
<path d="M81.1830 18.8069
L81.1225 18.7464
" />
<path d="M81.1225 18.7464
L81.0620 18.6254
" />
<path d="M81.0620 18.6254
L81.0016 18.3835
" />
<path d="M81.0016 18.3835
L81.0016 18.0811
" />
<path d="M81.0016 18.0811
L81.0620 17.8392
" />
<path d="M81.0620 17.8392
L81.1225 17.7183
" />
<path d="M81.1225 17.7183
L81.1830 17.6578
" />
<path d="M81.1830 17.6578
L81.3039 17.5973
" />
<path d="M82.5134 17.5973
L82.6344 17.5973
" />
<path d="M82.6344 17.5973
L82.7553 17.6578
" />
<path d="M82.7553 17.6578
L82.8158 17.7183
" />
<path d="M82.8158 17.7183
L82.8763 17.8392
" />
<path d="M82.8763 17.8392
L82.9368 18.0811
" />
<path d="M82.9368 18.0811
L82.9368 18.3835
" />
<path d="M82.9368 18.3835
L82.8763 18.6254
" />
<path d="M82.8763 18.6254
L82.8158 18.7464
" />
<path d="M82.8158 18.7464
L82.7553 18.8069
" />
<path d="M82.7553 18.8069
L82.6344 18.8673
" />
<path d="M82.6344 18.8673
L82.5134 18.8673
" />
<path d="M82.5134 18.8673
L82.3925 18.8069
" />
<path d="M82.3925 18.8069
L82.3320 18.7464
" />
<path d="M82.3320 18.7464
L82.2715 18.6254
" />
<path d="M82.2715 18.6254
L82.2111 18.3835
" />
<path d="M82.2111 18.3835
L82.2111 18.0811
" />
<path d="M82.2111 18.0811
L82.2715 17.8392
" />
<path d="M82.2715 17.8392
L82.3320 17.7183
" />
<path d="M82.3320 17.7183
L82.3925 17.6578
" />
<path d="M82.3925 17.6578
L82.5134 17.5973
" />
<path d="M83.1787 18.9883
L84.1463 18.9883
" />
<path d="M84.3882 18.8069
L84.5091 18.8673
" />
<path d="M84.5091 18.8673
L84.7510 18.8673
" />
<path d="M84.7510 18.8673
L84.8720 18.8069
" />
<path d="M84.8720 18.8069
L84.9324 18.6859
" />
<path d="M84.9324 18.6859
L84.9324 18.6254
" />
<path d="M84.9324 18.6254
L84.8720 18.5045
" />
<path d="M84.8720 18.5045
L84.7510 18.4440
" />
<path d="M84.7510 18.4440
L84.5696 18.4440
" />
<path d="M84.5696 18.4440
L84.4486 18.3835
" />
<path d="M84.4486 18.3835
L84.3882 18.2626
" />
<path d="M84.3882 18.2626
L84.3882 18.2021
" />
<path d="M84.3882 18.2021
L84.4486 18.0811
" />
<path d="M84.4486 18.0811
L84.5696 18.0207
" />
<path d="M84.5696 18.0207
L84.7510 18.0207
" />
<path d="M84.7510 18.0207
L84.8720 18.0811
" />
<path d="M85.9605 18.8069
L85.8396 18.8673
" />
<path d="M85.8396 18.8673
L85.5977 18.8673
" />
<path d="M85.5977 18.8673
L85.4767 18.8069
" />
<path d="M85.4767 18.8069
L85.4163 18.6859
" />
<path d="M85.4163 18.6859
L85.4163 18.2021
" />
<path d="M85.4163 18.2021
L85.4767 18.0811
" />
<path d="M85.4767 18.0811
L85.5977 18.0207
" />
<path d="M85.5977 18.0207
L85.8396 18.0207
" />
<path d="M85.8396 18.0207
L85.9605 18.0811
" />
<path d="M85.9605 18.0811
L86.0210 18.2021
" />
<path d="M86.0210 18.2021
L86.0210 18.3230
" />
<path d="M86.0210 18.3230
L85.4163 18.4440
" />
<path d="M86.5653 18.8673
L86.5653 18.0207
" />
<path d="M86.5653 18.2626
L86.6258 18.1416
" />
<path d="M86.6258 18.1416
L86.6863 18.0811
" />
<path d="M86.6863 18.0811
L86.8072 18.0207
" />
<path d="M86.8072 18.0207
L86.9282 18.0207
" />
<path d="M87.3515 18.8673
L87.3515 18.0207
" />
<path d="M87.3515 17.5973
L87.2911 17.6578
" />
<path d="M87.2911 17.6578
L87.3515 17.7183
" />
<path d="M87.3515 17.7183
L87.4120 17.6578
" />
<path d="M87.4120 17.6578
L87.3515 17.5973
" />
<path d="M87.3515 17.5973
L87.3515 17.7183
" />
<path d="M88.4401 18.8069
L88.3192 18.8673
" />
<path d="M88.3192 18.8673
L88.0773 18.8673
" />
<path d="M88.0773 18.8673
L87.9563 18.8069
" />
<path d="M87.9563 18.8069
L87.8959 18.6859
" />
<path d="M87.8959 18.6859
L87.8959 18.2021
" />
<path d="M87.8959 18.2021
L87.9563 18.0811
" />
<path d="M87.9563 18.0811
L88.0773 18.0207
" />
<path d="M88.0773 18.0207
L88.3192 18.0207
" />
<path d="M88.3192 18.0207
L88.4401 18.0811
" />
<path d="M88.4401 18.0811
L88.5006 18.2021
" />
<path d="M88.5006 18.2021
L88.5006 18.3230
" />
<path d="M88.5006 18.3230
L87.8959 18.4440
" />
<path d="M88.9845 18.8069
L89.1054 18.8673
" />
<path d="M89.1054 18.8673
L89.3473 18.8673
" />
<path d="M89.3473 18.8673
L89.4683 18.8069
" />
<path d="M89.4683 18.8069
L89.5287 18.6859
" />
<path d="M89.5287 18.6859
L89.5287 18.6254
" />
<path d="M89.5287 18.6254
L89.4683 18.5045
" />
<path d="M89.4683 18.5045
L89.3473 18.4440
" />
<path d="M89.3473 18.4440
L89.1659 18.4440
" />
<path d="M89.1659 18.4440
L89.0449 18.3835
" />
<path d="M89.0449 18.3835
L88.9845 18.2626
" />
<path d="M88.9845 18.2626
L88.9845 18.2021
" />
<path d="M88.9845 18.2021
L89.0449 18.0811
" />
<path d="M89.0449 18.0811
L89.1659 18.0207
" />
<path d="M89.1659 18.0207
L89.3473 18.0207
" />
<path d="M89.3473 18.0207
L89.4683 18.0811
" />
<path d="M90.0730 18.7464
L90.1335 18.8069
" />
<path d="M90.1335 18.8069
L90.0730 18.8673
" />
<path d="M90.0730 18.8673
L90.0126 18.8069
" />
<path d="M90.0126 18.8069
L90.0730 18.7464
" />
<path d="M90.0730 18.7464
L90.0730 18.8673
" />
<path d="M90.6778 18.0207
L90.6778 19.2907
" />
<path d="M90.6778 18.0811
L90.7988 18.0207
" />
<path d="M90.7988 18.0207
L91.0407 18.0207
" />
<path d="M91.0407 18.0207
L91.1616 18.0811
" />
<path d="M91.1616 18.0811
L91.2221 18.1416
" />
<path d="M91.2221 18.1416
L91.2826 18.2626
" />
<path d="M91.2826 18.2626
L91.2826 18.6254
" />
<path d="M91.2826 18.6254
L91.2221 18.7464
" />
<path d="M91.2221 18.7464
L91.1616 18.8069
" />
<path d="M91.1616 18.8069
L91.0407 18.8673
" />
<path d="M91.0407 18.8673
L90.7988 18.8673
" />
<path d="M90.7988 18.8673
L90.6778 18.8069
" />
<path d="M92.3711 18.8673
L92.3711 17.5973
" />
<path d="M92.3711 18.8069
L92.2502 18.8673
" />
<path d="M92.2502 18.8673
L92.0083 18.8673
" />
<path d="M92.0083 18.8673
L91.8873 18.8069
" />
<path d="M91.8873 18.8069
L91.8268 18.7464
" />
<path d="M91.8268 18.7464
L91.7664 18.6254
" />
<path d="M91.7664 18.6254
L91.7664 18.2626
" />
<path d="M91.7664 18.2626
L91.8268 18.1416
" />
<path d="M91.8268 18.1416
L91.8873 18.0811
" />
<path d="M91.8873 18.0811
L92.0083 18.0207
" />
<path d="M92.0083 18.0207
L92.2502 18.0207
" />
<path d="M92.2502 18.0207
L92.3711 18.0811
" />
<path d="M92.7944 18.0207
L93.2782 18.0207
" />
<path d="M92.9758 18.8673
L92.9758 17.7788
" />
<path d="M92.9758 17.7788
L93.0363 17.6578
" />
<path d="M93.0363 17.6578
L93.1573 17.5973
" />
<path d="M93.1573 17.5973
L93.2782 17.5973
" />
</g></g> 
</svg>
