<?xml version="1.0" standalone="no"?>
 <!DOCTYPE svg PUBLIC "-//W3C//DTD SVG 1.1//EN" 
 "http://www.w3.org/Graphics/SVG/1.1/DTD/svg11.dtd"> 
<svg
  xmlns:svg="http://www.w3.org/2000/svg"
  xmlns="http://www.w3.org/2000/svg"
  xmlns:xlink="http://www.w3.org/1999/xlink"
  version="1.1"
  width="6.5024mm" height="17.6784mm" viewBox="0.0000 0.0000 6.5024 17.6784">
<title>SVG Image created as working.svg date 2023/09/18 15:24:57 </title>
  <desc>Image generated by Eeschema-SVG </desc>
<g style="fill:#000000; fill-opacity:1.0000;stroke:#000000; stroke-opacity:1.0000;
stroke-linecap:round; stroke-linejoin:round;"
 transform="translate(0 0) scale(1 1)">
</g>
<g style="fill:#840000; fill-opacity:0.0; 
stroke:#840000; stroke-width:0.0000; stroke-opacity:1; 
stroke-linecap:round; stroke-linejoin:round;">
</g>
<g style="fill:#840084; fill-opacity:0.0; 
stroke:#840084; stroke-width:0.0000; stroke-opacity:1; 
stroke-linecap:round; stroke-linejoin:round;">
</g>
<g style="fill:#840000; fill-opacity:0.0; 
stroke:#840000; stroke-width:0.0000; stroke-opacity:1; 
stroke-linecap:round; stroke-linejoin:round;">
</g>
<g style="fill:#840000; fill-opacity:0.0; 
stroke:#840000; stroke-width:0.2540; stroke-opacity:1; 
stroke-linecap:round; stroke-linejoin:round;">
<rect x="1.881000" y="6.301900" width="2.032000" height="5.080000" rx="0.000000" />
</g>
<g style="fill:#840000; fill-opacity:0.0; 
stroke:#840000; stroke-width:0.1524; stroke-opacity:1; 
stroke-linecap:round; stroke-linejoin:round;">
<path d="M2.8970 11.3819
L2.8970 12.6519
" />
</g>
<g style="fill:#A90000; fill-opacity:0.0; 
stroke:#A90000; stroke-width:0.1524; stroke-opacity:1; 
stroke-linecap:round; stroke-linejoin:round;">
<g transform="rotate(-90.000000 3.1510 12.0169)">
<text x="3.1510" y="13.2869"
textLength="1.4127" font-size="1.6933" lengthAdjust="spacingAndGlyphs"
text-anchor="middle" opacity="0">1</text>
</g>
<g class="stroked-text"><desc>1</desc>
<path d="M4.4734 11.6539
L4.4734 12.3796
" />
<path d="M4.4734 12.0168
L3.2034 12.0168
" />
<path d="M3.2034 12.0168
L3.3849 12.1377
" />
<path d="M3.3849 12.1377
L3.5058 12.2587
" />
<path d="M3.5058 12.2587
L3.5663 12.3796
" />
</g></g>
<g style="fill:#840000; fill-opacity:0.0; 
stroke:#840000; stroke-width:0.1524; stroke-opacity:1; 
stroke-linecap:round; stroke-linejoin:round;">
<path d="M2.8970 6.3019
L2.8970 5.0319
" />
</g>
<g style="fill:#A90000; fill-opacity:0.0; 
stroke:#A90000; stroke-width:0.1524; stroke-opacity:1; 
stroke-linecap:round; stroke-linejoin:round;">
<g transform="rotate(-90.000000 3.1510 5.6669)">
<text x="3.1510" y="6.9369"
textLength="1.4127" font-size="1.6933" lengthAdjust="spacingAndGlyphs"
text-anchor="middle" opacity="0">8</text>
</g>
<g class="stroked-text"><desc>8</desc>
<path d="M3.7477 5.7877
L3.6872 5.9087
" />
<path d="M3.6872 5.9087
L3.6268 5.9692
" />
<path d="M3.6268 5.9692
L3.5058 6.0296
" />
<path d="M3.5058 6.0296
L3.4453 6.0296
" />
<path d="M3.4453 6.0296
L3.3244 5.9692
" />
<path d="M3.3244 5.9692
L3.2639 5.9087
" />
<path d="M3.2639 5.9087
L3.2034 5.7877
" />
<path d="M3.2034 5.7877
L3.2034 5.5458
" />
<path d="M3.2034 5.5458
L3.2639 5.4249
" />
<path d="M3.2639 5.4249
L3.3244 5.3644
" />
<path d="M3.3244 5.3644
L3.4453 5.3039
" />
<path d="M3.4453 5.3039
L3.5058 5.3039
" />
<path d="M3.5058 5.3039
L3.6268 5.3644
" />
<path d="M3.6268 5.3644
L3.6872 5.4249
" />
<path d="M3.6872 5.4249
L3.7477 5.5458
" />
<path d="M3.7477 5.5458
L3.7477 5.7877
" />
<path d="M3.7477 5.7877
L3.8082 5.9087
" />
<path d="M3.8082 5.9087
L3.8687 5.9692
" />
<path d="M3.8687 5.9692
L3.9896 6.0296
" />
<path d="M3.9896 6.0296
L4.2315 6.0296
" />
<path d="M4.2315 6.0296
L4.3525 5.9692
" />
<path d="M4.3525 5.9692
L4.4130 5.9087
" />
<path d="M4.4130 5.9087
L4.4734 5.7877
" />
<path d="M4.4734 5.7877
L4.4734 5.5458
" />
<path d="M4.4734 5.5458
L4.4130 5.4249
" />
<path d="M4.4130 5.4249
L4.3525 5.3644
" />
<path d="M4.3525 5.3644
L4.2315 5.3039
" />
<path d="M4.2315 5.3039
L3.9896 5.3039
" />
<path d="M3.9896 5.3039
L3.8687 5.3644
" />
<path d="M3.8687 5.3644
L3.8082 5.4249
" />
<path d="M3.8082 5.4249
L3.7477 5.5458
" />
</g></g>
<g style="fill:#840084; fill-opacity:0.0; 
stroke:#840084; stroke-width:0.1524; stroke-opacity:1; 
stroke-linecap:round; stroke-linejoin:round;">
</g>
<g style="fill:#006464; fill-opacity:0.0; 
stroke:#006464; stroke-width:0.1524; stroke-opacity:1; 
stroke-linecap:round; stroke-linejoin:round;">
</g>
<g style="fill:#006464; fill-opacity:0.0; 
stroke:#006464; stroke-width:0.1588; stroke-opacity:1; 
stroke-linecap:round; stroke-linejoin:round;">
<g transform="rotate(-90.000000 4.9290 8.8419)">
<text x="4.9290" y="9.4769"
textLength="5.0001" font-size="1.6933" lengthAdjust="spacingAndGlyphs"
text-anchor="middle" opacity="0">RN?A</text>
</g>
<g class="stroked-text"><desc>RN?A</desc>
<path d="M5.5082 10.2026
L4.9035 10.6259
" />
<path d="M5.5082 10.9283
L4.2382 10.9283
" />
<path d="M4.2382 10.9283
L4.2382 10.4445
" />
<path d="M4.2382 10.4445
L4.2987 10.3235
" />
<path d="M4.2987 10.3235
L4.3592 10.2630
" />
<path d="M4.3592 10.2630
L4.4801 10.2026
" />
<path d="M4.4801 10.2026
L4.6616 10.2026
" />
<path d="M4.6616 10.2026
L4.7825 10.2630
" />
<path d="M4.7825 10.2630
L4.8430 10.3235
" />
<path d="M4.8430 10.3235
L4.9035 10.4445
" />
<path d="M4.9035 10.4445
L4.9035 10.9283
" />
<path d="M5.5082 9.6583
L4.2382 9.6583
" />
<path d="M4.2382 9.6583
L5.5082 8.9326
" />
<path d="M5.5082 8.9326
L4.2382 8.9326
" />
<path d="M5.3873 8.1463
L5.4478 8.0859
" />
<path d="M5.4478 8.0859
L5.5082 8.1463
" />
<path d="M5.5082 8.1463
L5.4478 8.2068
" />
<path d="M5.4478 8.2068
L5.3873 8.1463
" />
<path d="M5.3873 8.1463
L5.5082 8.1463
" />
<path d="M4.2987 8.3882
L4.2382 8.2673
" />
<path d="M4.2382 8.2673
L4.2382 7.9649
" />
<path d="M4.2382 7.9649
L4.2987 7.8440
" />
<path d="M4.2987 7.8440
L4.4197 7.7835
" />
<path d="M4.4197 7.7835
L4.5406 7.7835
" />
<path d="M4.5406 7.7835
L4.6616 7.8440
" />
<path d="M4.6616 7.8440
L4.7220 7.9044
" />
<path d="M4.7220 7.9044
L4.7825 8.0254
" />
<path d="M4.7825 8.0254
L4.8430 8.0859
" />
<path d="M4.8430 8.0859
L4.9639 8.1463
" />
<path d="M4.9639 8.1463
L5.0244 8.1463
" />
<path d="M5.1454 7.2996
L5.1454 6.6949
" />
<path d="M5.5082 7.4206
L4.2382 6.9973
" />
<path d="M4.2382 6.9973
L5.5082 6.5739
" />
</g><g transform="rotate(-90.000000 2.8970 8.8419)">
<text x="2.8970" y="9.4769"
textLength="14.7365" font-size="1.6933" lengthAdjust="spacingAndGlyphs"
text-anchor="middle" opacity="0">R_Pack04_Split</text>
</g>
<g class="stroked-text"><desc>R_Pack04_Split</desc>
<path d="M3.4762 15.0708
L2.8715 15.4941
" />
<path d="M3.4762 15.7965
L2.2062 15.7965
" />
<path d="M2.2062 15.7965
L2.2062 15.3127
" />
<path d="M2.2062 15.3127
L2.2667 15.1917
" />
<path d="M2.2667 15.1917
L2.3272 15.1312
" />
<path d="M2.3272 15.1312
L2.4481 15.0708
" />
<path d="M2.4481 15.0708
L2.6296 15.0708
" />
<path d="M2.6296 15.0708
L2.7505 15.1312
" />
<path d="M2.7505 15.1312
L2.8110 15.1917
" />
<path d="M2.8110 15.1917
L2.8715 15.3127
" />
<path d="M2.8715 15.3127
L2.8715 15.7965
" />
<path d="M3.5972 14.8289
L3.5972 13.8612
" />
<path d="M3.4762 13.5589
L2.2062 13.5589
" />
<path d="M2.2062 13.5589
L2.2062 13.0751
" />
<path d="M2.2062 13.0751
L2.2667 12.9541
" />
<path d="M2.2667 12.9541
L2.3272 12.8936
" />
<path d="M2.3272 12.8936
L2.4481 12.8332
" />
<path d="M2.4481 12.8332
L2.6296 12.8332
" />
<path d="M2.6296 12.8332
L2.7505 12.8936
" />
<path d="M2.7505 12.8936
L2.8110 12.9541
" />
<path d="M2.8110 12.9541
L2.8715 13.0751
" />
<path d="M2.8715 13.0751
L2.8715 13.5589
" />
<path d="M3.4762 11.7446
L2.8110 11.7446
" />
<path d="M2.8110 11.7446
L2.6900 11.8051
" />
<path d="M2.6900 11.8051
L2.6296 11.9260
" />
<path d="M2.6296 11.9260
L2.6296 12.1679
" />
<path d="M2.6296 12.1679
L2.6900 12.2889
" />
<path d="M3.4158 11.7446
L3.4762 11.8655
" />
<path d="M3.4762 11.8655
L3.4762 12.1679
" />
<path d="M3.4762 12.1679
L3.4158 12.2889
" />
<path d="M3.4158 12.2889
L3.2948 12.3493
" />
<path d="M3.2948 12.3493
L3.1738 12.3493
" />
<path d="M3.1738 12.3493
L3.0529 12.2889
" />
<path d="M3.0529 12.2889
L2.9924 12.1679
" />
<path d="M2.9924 12.1679
L2.9924 11.8655
" />
<path d="M2.9924 11.8655
L2.9319 11.7446
" />
<path d="M3.4158 10.5956
L3.4762 10.7165
" />
<path d="M3.4762 10.7165
L3.4762 10.9584
" />
<path d="M3.4762 10.9584
L3.4158 11.0794
" />
<path d="M3.4158 11.0794
L3.3553 11.1399
" />
<path d="M3.3553 11.1399
L3.2343 11.2003
" />
<path d="M3.2343 11.2003
L2.8715 11.2003
" />
<path d="M2.8715 11.2003
L2.7505 11.1399
" />
<path d="M2.7505 11.1399
L2.6900 11.0794
" />
<path d="M2.6900 11.0794
L2.6296 10.9584
" />
<path d="M2.6296 10.9584
L2.6296 10.7165
" />
<path d="M2.6296 10.7165
L2.6900 10.5956
" />
<path d="M3.4762 10.0513
L2.2062 10.0513
" />
<path d="M2.9924 9.9303
L3.4762 9.5675
" />
<path d="M2.6296 9.5675
L3.1134 10.0513
" />
<path d="M2.2062 8.7813
L2.2062 8.6603
" />
<path d="M2.2062 8.6603
L2.2667 8.5394
" />
<path d="M2.2667 8.5394
L2.3272 8.4789
" />
<path d="M2.3272 8.4789
L2.4481 8.4184
" />
<path d="M2.4481 8.4184
L2.6900 8.3579
" />
<path d="M2.6900 8.3579
L2.9924 8.3579
" />
<path d="M2.9924 8.3579
L3.2343 8.4184
" />
<path d="M3.2343 8.4184
L3.3553 8.4789
" />
<path d="M3.3553 8.4789
L3.4158 8.5394
" />
<path d="M3.4158 8.5394
L3.4762 8.6603
" />
<path d="M3.4762 8.6603
L3.4762 8.7813
" />
<path d="M3.4762 8.7813
L3.4158 8.9022
" />
<path d="M3.4158 8.9022
L3.3553 8.9627
" />
<path d="M3.3553 8.9627
L3.2343 9.0232
" />
<path d="M3.2343 9.0232
L2.9924 9.0836
" />
<path d="M2.9924 9.0836
L2.6900 9.0836
" />
<path d="M2.6900 9.0836
L2.4481 9.0232
" />
<path d="M2.4481 9.0232
L2.3272 8.9627
" />
<path d="M2.3272 8.9627
L2.2667 8.9022
" />
<path d="M2.2667 8.9022
L2.2062 8.7813
" />
<path d="M2.6296 7.2694
L3.4762 7.2694
" />
<path d="M2.1458 7.5718
L3.0529 7.8741
" />
<path d="M3.0529 7.8741
L3.0529 7.0880
" />
<path d="M3.5972 6.9066
L3.5972 5.9389
" />
<path d="M3.4158 5.6970
L3.4762 5.5156
" />
<path d="M3.4762 5.5156
L3.4762 5.2132
" />
<path d="M3.4762 5.2132
L3.4158 5.0923
" />
<path d="M3.4158 5.0923
L3.3553 5.0318
" />
<path d="M3.3553 5.0318
L3.2343 4.9713
" />
<path d="M3.2343 4.9713
L3.1134 4.9713
" />
<path d="M3.1134 4.9713
L2.9924 5.0318
" />
<path d="M2.9924 5.0318
L2.9319 5.0923
" />
<path d="M2.9319 5.0923
L2.8715 5.2132
" />
<path d="M2.8715 5.2132
L2.8110 5.4551
" />
<path d="M2.8110 5.4551
L2.7505 5.5761
" />
<path d="M2.7505 5.5761
L2.6900 5.6366
" />
<path d="M2.6900 5.6366
L2.5691 5.6970
" />
<path d="M2.5691 5.6970
L2.4481 5.6970
" />
<path d="M2.4481 5.6970
L2.3272 5.6366
" />
<path d="M2.3272 5.6366
L2.2667 5.5761
" />
<path d="M2.2667 5.5761
L2.2062 5.4551
" />
<path d="M2.2062 5.4551
L2.2062 5.1528
" />
<path d="M2.2062 5.1528
L2.2667 4.9713
" />
<path d="M2.6296 4.4271
L3.8996 4.4271
" />
<path d="M2.6900 4.4271
L2.6296 4.3061
" />
<path d="M2.6296 4.3061
L2.6296 4.0642
" />
<path d="M2.6296 4.0642
L2.6900 3.9433
" />
<path d="M2.6900 3.9433
L2.7505 3.8828
" />
<path d="M2.7505 3.8828
L2.8715 3.8223
" />
<path d="M2.8715 3.8223
L3.2343 3.8223
" />
<path d="M3.2343 3.8223
L3.3553 3.8828
" />
<path d="M3.3553 3.8828
L3.4158 3.9433
" />
<path d="M3.4158 3.9433
L3.4762 4.0642
" />
<path d="M3.4762 4.0642
L3.4762 4.3061
" />
<path d="M3.4762 4.3061
L3.4158 4.4271
" />
<path d="M3.4762 3.0966
L3.4158 3.2176
" />
<path d="M3.4158 3.2176
L3.2948 3.2781
" />
<path d="M3.2948 3.2781
L2.2062 3.2781
" />
<path d="M3.4762 2.6129
L2.6296 2.6129
" />
<path d="M2.2062 2.6129
L2.2667 2.6733
" />
<path d="M2.2667 2.6733
L2.3272 2.6129
" />
<path d="M2.3272 2.6129
L2.2667 2.5524
" />
<path d="M2.2667 2.5524
L2.2062 2.6129
" />
<path d="M2.2062 2.6129
L2.3272 2.6129
" />
<path d="M2.6296 2.1895
L2.6296 1.7057
" />
<path d="M2.2062 2.0081
L3.2948 2.0081
" />
<path d="M3.2948 2.0081
L3.4158 1.9476
" />
<path d="M3.4158 1.9476
L3.4762 1.8266
" />
<path d="M3.4762 1.8266
L3.4762 1.7057
" />
</g></g> 
</svg>
