<?xml version="1.0" standalone="no"?>
 <!DOCTYPE svg PUBLIC "-//W3C//DTD SVG 1.1//EN" 
 "http://www.w3.org/Graphics/SVG/1.1/DTD/svg11.dtd"> 
<svg
  xmlns:svg="http://www.w3.org/2000/svg"
  xmlns="http://www.w3.org/2000/svg"
  xmlns:xlink="http://www.w3.org/1999/xlink"
  version="1.1"
  width="23.4950mm" height="15.2400mm" viewBox="0.0000 0.0000 23.4950 15.2400">
<title>SVG Image created as working.svg date 2023/08/30 16:53:24 </title>
  <desc>Image generated by Eeschema-SVG </desc>
<g style="fill:#000000; fill-opacity:1.0000;stroke:#000000; stroke-opacity:1.0000;
stroke-linecap:round; stroke-linejoin:round;"
 transform="translate(0 0) scale(1 1)">
</g>
<g style="fill:#840000; fill-opacity:0.0; 
stroke:#840000; stroke-width:0.0000; stroke-opacity:1; 
stroke-linecap:round; stroke-linejoin:round;">
</g>
<g style="fill:#840084; fill-opacity:0.0; 
stroke:#840084; stroke-width:0.0000; stroke-opacity:1; 
stroke-linecap:round; stroke-linejoin:round;">
</g>
<g style="fill:#840000; fill-opacity:0.0; 
stroke:#840000; stroke-width:0.0000; stroke-opacity:1; 
stroke-linecap:round; stroke-linejoin:round;">
</g>
<g style="fill:#840000; fill-opacity:0.0; 
stroke:#840000; stroke-width:0.1524; stroke-opacity:1; 
stroke-linecap:round; stroke-linejoin:round;">
<path style="fill:#840000; fill-opacity:0.0; 
stroke:#840000; stroke-width:0.1524; stroke-opacity:1; 
stroke-linecap:round; stroke-linejoin:round;fill:none"
d="M 10.8475,8.6361
10.8475,8.8901
" /> 
</g>
<g style="fill:#840000; fill-opacity:0.0; 
stroke:#840000; stroke-width:0.2540; stroke-opacity:1; 
stroke-linecap:round; stroke-linejoin:round;">
<path d="M7.0375 3.1751 A3.1750 3.1750 0.0 0 0 7.0375 9.5251" />
</g>
<g style="fill:#840000; fill-opacity:0.0; 
stroke:#840000; stroke-width:0.1524; stroke-opacity:1; 
stroke-linecap:round; stroke-linejoin:round;">
<path style="fill:#840000; fill-opacity:0.0; 
stroke:#840000; stroke-width:0.1524; stroke-opacity:1; 
stroke-linecap:round; stroke-linejoin:round;fill:none"
d="M 4.8785,6.3501
4.4975,6.3501
" /> 
</g>
<g style="fill:#840000; fill-opacity:0.0; 
stroke:#840000; stroke-width:0.2540; stroke-opacity:1; 
stroke-linecap:round; stroke-linejoin:round;">
<path style="fill:#840000; fill-opacity:0.0; 
stroke:#840000; stroke-width:0.2540; stroke-opacity:1; 
stroke-linecap:round; stroke-linejoin:round;fill:none"
d="M 7.0375,9.5251
8.9425,9.5251
" /> 
<path style="fill:#840000; fill-opacity:0.0; 
stroke:#840000; stroke-width:0.2540; stroke-opacity:1; 
stroke-linecap:round; stroke-linejoin:round;fill:none"
d="M 7.0375,3.1751
8.9425,3.1751
" /> 
</g>
<g style="fill:#840000; fill-opacity:0.0; 
stroke:#840000; stroke-width:0.1524; stroke-opacity:1; 
stroke-linecap:round; stroke-linejoin:round;">
<path style="fill:#840000; fill-opacity:0.0; 
stroke:#840000; stroke-width:0.1524; stroke-opacity:1; 
stroke-linecap:round; stroke-linejoin:round;fill:none"
d="M 8.3075,6.6041
10.8475,4.0641
" /> 
</g>
<g style="fill:#840000; fill-opacity:1.0000; 
stroke:#840000; stroke-width:0.5080; stroke-opacity:1; 
stroke-linecap:round; stroke-linejoin:round;">
<path style="fill:#840000; fill-opacity:1.0000; 
stroke:#840000; stroke-width:0.5080; stroke-opacity:1; 
stroke-linecap:round; stroke-linejoin:round;fill-rule:evenodd;"
d="M 8.4345,4.8261
8.4345,8.0011
" /> 
</g>
<g style="fill:#840000; fill-opacity:0.0; 
stroke:#840000; stroke-width:0.1524; stroke-opacity:1; 
stroke-linecap:round; stroke-linejoin:round;">
<path style="fill:#840000; fill-opacity:0.0; 
stroke:#840000; stroke-width:0.1524; stroke-opacity:1; 
stroke-linecap:round; stroke-linejoin:round;fill:none"
d="M 10.8475,4.0641
10.8475,3.8101
" /> 
<path style="fill:#840000; fill-opacity:0.0; 
stroke:#840000; stroke-width:0.1524; stroke-opacity:1; 
stroke-linecap:round; stroke-linejoin:round;fill:none"
d="M 10.8475,8.6361
8.3075,6.0961
8.3075,6.0961
" /> 
</g>
<g style="fill:#840000; fill-opacity:1.0000; 
stroke:#840000; stroke-width:0.1524; stroke-opacity:1; 
stroke-linecap:round; stroke-linejoin:round;">
<path style="fill:#840000; fill-opacity:1.0000; 
stroke:#840000; stroke-width:0.1524; stroke-opacity:1; 
stroke-linecap:round; stroke-linejoin:round;fill-rule:evenodd;"
d="M 9.7045,8.0011
10.2125,7.4931
9.1965,6.9851
Z" /> 
</g>
<g style="fill:#840000; fill-opacity:0.0; 
stroke:#840000; stroke-width:0.1524; stroke-opacity:1; 
stroke-linecap:round; stroke-linejoin:round;">
<path style="fill:#840000; fill-opacity:0.0; 
stroke:#840000; stroke-width:0.1524; stroke-opacity:1; 
stroke-linecap:round; stroke-linejoin:round;fill:none"
d="M 8.3075,6.3501
6.4025,6.3501
6.2755,5.8421
6.0215,6.8581
5.7675,5.8421
5.5135,6.8581
5.2595,5.8421
5.0055,6.8581
4.8785,6.3501
" /> 
</g>
<g style="fill:#840000; fill-opacity:0.0; 
stroke:#840000; stroke-width:0.2540; stroke-opacity:1; 
stroke-linecap:round; stroke-linejoin:round;">
<path d="M8.9425 9.5251 A3.1750 3.1750 0.0 0 0 8.9425 3.1751" />
</g>
<g style="fill:#840000; fill-opacity:0.0; 
stroke:#840000; stroke-width:0.0635; stroke-opacity:1; 
stroke-linecap:round; stroke-linejoin:round;">
<text x="5.3865" y="5.7152"
textLength="1.9516" font-size="0.6773" lengthAdjust="spacingAndGlyphs"
text-anchor="middle" opacity="0">100k</text>
<g class="stroked-text"><desc>100k</desc>
<path d="M4.8422 5.6928
L4.5519 5.6928
" />
<path d="M4.6971 5.6928
L4.6971 5.1848
" />
<path d="M4.6971 5.1848
L4.6487 5.2574
" />
<path d="M4.6487 5.2574
L4.6003 5.3058
" />
<path d="M4.6003 5.3058
L4.5519 5.3300
" />
<path d="M5.1567 5.1848
L5.2050 5.1848
" />
<path d="M5.2050 5.1848
L5.2534 5.2090
" />
<path d="M5.2534 5.2090
L5.2776 5.2332
" />
<path d="M5.2776 5.2332
L5.3018 5.2816
" />
<path d="M5.3018 5.2816
L5.3260 5.3784
" />
<path d="M5.3260 5.3784
L5.3260 5.4993
" />
<path d="M5.3260 5.4993
L5.3018 5.5961
" />
<path d="M5.3018 5.5961
L5.2776 5.6445
" />
<path d="M5.2776 5.6445
L5.2534 5.6687
" />
<path d="M5.2534 5.6687
L5.2050 5.6928
" />
<path d="M5.2050 5.6928
L5.1567 5.6928
" />
<path d="M5.1567 5.6928
L5.1083 5.6687
" />
<path d="M5.1083 5.6687
L5.0841 5.6445
" />
<path d="M5.0841 5.6445
L5.0599 5.5961
" />
<path d="M5.0599 5.5961
L5.0357 5.4993
" />
<path d="M5.0357 5.4993
L5.0357 5.3784
" />
<path d="M5.0357 5.3784
L5.0599 5.2816
" />
<path d="M5.0599 5.2816
L5.0841 5.2332
" />
<path d="M5.0841 5.2332
L5.1083 5.2090
" />
<path d="M5.1083 5.2090
L5.1567 5.1848
" />
<path d="M5.6405 5.1848
L5.6888 5.1848
" />
<path d="M5.6888 5.1848
L5.7372 5.2090
" />
<path d="M5.7372 5.2090
L5.7614 5.2332
" />
<path d="M5.7614 5.2332
L5.7856 5.2816
" />
<path d="M5.7856 5.2816
L5.8098 5.3784
" />
<path d="M5.8098 5.3784
L5.8098 5.4993
" />
<path d="M5.8098 5.4993
L5.7856 5.5961
" />
<path d="M5.7856 5.5961
L5.7614 5.6445
" />
<path d="M5.7614 5.6445
L5.7372 5.6687
" />
<path d="M5.7372 5.6687
L5.6888 5.6928
" />
<path d="M5.6888 5.6928
L5.6405 5.6928
" />
<path d="M5.6405 5.6928
L5.5921 5.6687
" />
<path d="M5.5921 5.6687
L5.5679 5.6445
" />
<path d="M5.5679 5.6445
L5.5437 5.5961
" />
<path d="M5.5437 5.5961
L5.5195 5.4993
" />
<path d="M5.5195 5.4993
L5.5195 5.3784
" />
<path d="M5.5195 5.3784
L5.5437 5.2816
" />
<path d="M5.5437 5.2816
L5.5679 5.2332
" />
<path d="M5.5679 5.2332
L5.5921 5.2090
" />
<path d="M5.5921 5.2090
L5.6405 5.1848
" />
<path d="M6.0275 5.6928
L6.0275 5.1848
" />
<path d="M6.0759 5.4993
L6.2210 5.6928
" />
<path d="M6.2210 5.3542
L6.0275 5.5477
" />
</g></g>
<g style="fill:#840000; fill-opacity:0.0; 
stroke:#840000; stroke-width:0.1524; stroke-opacity:1; 
stroke-linecap:round; stroke-linejoin:round;">
<path d="M4.4975 6.3501
L1.9575 6.3501
" />
</g>
<g style="fill:#A90000; fill-opacity:0.0; 
stroke:#A90000; stroke-width:0.1524; stroke-opacity:1; 
stroke-linecap:round; stroke-linejoin:round;">
<text x="3.2275" y="7.8741"
textLength="1.4127" font-size="1.6933" lengthAdjust="spacingAndGlyphs"
text-anchor="middle" opacity="0">1</text>
<g class="stroked-text"><desc>1</desc>
<path d="M3.5904 7.9265
L2.8647 7.9265
" />
<path d="M3.2275 7.9265
L3.2275 6.6565
" />
<path d="M3.2275 6.6565
L3.1066 6.8380
" />
<path d="M3.1066 6.8380
L2.9856 6.9589
" />
<path d="M2.9856 6.9589
L2.8647 7.0194
" />
</g></g>
<g style="fill:#840000; fill-opacity:0.0; 
stroke:#840000; stroke-width:0.1524; stroke-opacity:1; 
stroke-linecap:round; stroke-linejoin:round;">
<path d="M10.8475 13.9701
L10.8475 11.4301
" />
</g>
<g style="fill:#A90000; fill-opacity:0.0; 
stroke:#A90000; stroke-width:0.1524; stroke-opacity:1; 
stroke-linecap:round; stroke-linejoin:round;">
<g transform="rotate(-90.000000 11.1015 12.7001)">
<text x="11.1015" y="13.9701"
textLength="1.4127" font-size="1.6933" lengthAdjust="spacingAndGlyphs"
text-anchor="middle" opacity="0">2</text>
</g>
<g class="stroked-text"><desc>2</desc>
<path d="M11.2749 13.0628
L11.2144 13.0024
" />
<path d="M11.2144 13.0024
L11.1539 12.8814
" />
<path d="M11.1539 12.8814
L11.1539 12.5790
" />
<path d="M11.1539 12.5790
L11.2144 12.4581
" />
<path d="M11.2144 12.4581
L11.2749 12.3976
" />
<path d="M11.2749 12.3976
L11.3958 12.3371
" />
<path d="M11.3958 12.3371
L11.5168 12.3371
" />
<path d="M11.5168 12.3371
L11.6982 12.3976
" />
<path d="M11.6982 12.3976
L12.4239 13.1233
" />
<path d="M12.4239 13.1233
L12.4239 12.3371
" />
</g></g>
<g style="fill:#840000; fill-opacity:0.0; 
stroke:#840000; stroke-width:0.1524; stroke-opacity:1; 
stroke-linecap:round; stroke-linejoin:round;">
<path d="M10.8475 3.8101
L10.8475 1.2701
" />
</g>
<g style="fill:#A90000; fill-opacity:0.0; 
stroke:#A90000; stroke-width:0.1524; stroke-opacity:1; 
stroke-linecap:round; stroke-linejoin:round;">
<g transform="rotate(-90.000000 11.1015 2.5401)">
<text x="11.1015" y="3.8101"
textLength="1.4127" font-size="1.6933" lengthAdjust="spacingAndGlyphs"
text-anchor="middle" opacity="0">3</text>
</g>
<g class="stroked-text"><desc>3</desc>
<path d="M11.1539 2.9633
L11.1539 2.1771
" />
<path d="M11.1539 2.1771
L11.6377 2.6005
" />
<path d="M11.6377 2.6005
L11.6377 2.4190
" />
<path d="M11.6377 2.4190
L11.6982 2.2981
" />
<path d="M11.6982 2.2981
L11.7587 2.2376
" />
<path d="M11.7587 2.2376
L11.8796 2.1771
" />
<path d="M11.8796 2.1771
L12.1820 2.1771
" />
<path d="M12.1820 2.1771
L12.3030 2.2376
" />
<path d="M12.3030 2.2376
L12.3635 2.2981
" />
<path d="M12.3635 2.2981
L12.4239 2.4190
" />
<path d="M12.4239 2.4190
L12.4239 2.7819
" />
<path d="M12.4239 2.7819
L12.3635 2.9028
" />
<path d="M12.3635 2.9028
L12.3030 2.9633
" />
</g></g>
<g style="fill:#840084; fill-opacity:0.0; 
stroke:#840084; stroke-width:0.1524; stroke-opacity:1; 
stroke-linecap:round; stroke-linejoin:round;">
</g>
<g style="fill:#006464; fill-opacity:0.0; 
stroke:#006464; stroke-width:0.1524; stroke-opacity:1; 
stroke-linecap:round; stroke-linejoin:round;">
</g>
<g style="fill:#006464; fill-opacity:0.0; 
stroke:#006464; stroke-width:0.1588; stroke-opacity:1; 
stroke-linecap:round; stroke-linejoin:round;">
<text x="14.7082" y="5.0801"
textLength="2.6415" font-size="1.6933" lengthAdjust="spacingAndGlyphs"
text-anchor="middle" opacity="0">Q?</text>
<g class="stroked-text"><desc>Q?</desc>
<path d="M14.6477 5.1453
L14.5267 5.0848
" />
<path d="M14.5267 5.0848
L14.4058 4.9639
" />
<path d="M14.4058 4.9639
L14.2244 4.7824
" />
<path d="M14.2244 4.7824
L14.1034 4.7219
" />
<path d="M14.1034 4.7219
L13.9825 4.7219
" />
<path d="M14.0429 5.0243
L13.9220 4.9639
" />
<path d="M13.9220 4.9639
L13.8010 4.8429
" />
<path d="M13.8010 4.8429
L13.7406 4.6010
" />
<path d="M13.7406 4.6010
L13.7406 4.1777
" />
<path d="M13.7406 4.1777
L13.8010 3.9358
" />
<path d="M13.8010 3.9358
L13.9220 3.8148
" />
<path d="M13.9220 3.8148
L14.0429 3.7543
" />
<path d="M14.0429 3.7543
L14.2848 3.7543
" />
<path d="M14.2848 3.7543
L14.4058 3.8148
" />
<path d="M14.4058 3.8148
L14.5267 3.9358
" />
<path d="M14.5267 3.9358
L14.5872 4.1777
" />
<path d="M14.5872 4.1777
L14.5872 4.6010
" />
<path d="M14.5872 4.6010
L14.5267 4.8429
" />
<path d="M14.5267 4.8429
L14.4058 4.9639
" />
<path d="M14.4058 4.9639
L14.2848 5.0243
" />
<path d="M14.2848 5.0243
L14.0429 5.0243
" />
<path d="M15.3130 4.9034
L15.3734 4.9639
" />
<path d="M15.3734 4.9639
L15.3130 5.0243
" />
<path d="M15.3130 5.0243
L15.2525 4.9639
" />
<path d="M15.2525 4.9639
L15.3130 4.9034
" />
<path d="M15.3130 4.9034
L15.3130 5.0243
" />
<path d="M15.0711 3.8148
L15.1920 3.7543
" />
<path d="M15.1920 3.7543
L15.4944 3.7543
" />
<path d="M15.4944 3.7543
L15.6153 3.8148
" />
<path d="M15.6153 3.8148
L15.6758 3.9358
" />
<path d="M15.6758 3.9358
L15.6758 4.0567
" />
<path d="M15.6758 4.0567
L15.6153 4.1777
" />
<path d="M15.6153 4.1777
L15.5549 4.2381
" />
<path d="M15.5549 4.2381
L15.4339 4.2986
" />
<path d="M15.4339 4.2986
L15.3734 4.3591
" />
<path d="M15.3734 4.3591
L15.3130 4.4800
" />
<path d="M15.3130 4.4800
L15.3130 4.5405
" />
</g><text x="17.4598" y="6.9851"
textLength="8.1447" font-size="1.6933" lengthAdjust="spacingAndGlyphs"
text-anchor="middle" opacity="0">DTA115T</text>
<g class="stroked-text"><desc>DTA115T</desc>
<path d="M13.8010 6.9293
L13.8010 5.6593
" />
<path d="M13.8010 5.6593
L14.1034 5.6593
" />
<path d="M14.1034 5.6593
L14.2848 5.7198
" />
<path d="M14.2848 5.7198
L14.4058 5.8408
" />
<path d="M14.4058 5.8408
L14.4663 5.9617
" />
<path d="M14.4663 5.9617
L14.5267 6.2036
" />
<path d="M14.5267 6.2036
L14.5267 6.3850
" />
<path d="M14.5267 6.3850
L14.4663 6.6269
" />
<path d="M14.4663 6.6269
L14.4058 6.7479
" />
<path d="M14.4058 6.7479
L14.2848 6.8689
" />
<path d="M14.2848 6.8689
L14.1034 6.9293
" />
<path d="M14.1034 6.9293
L13.8010 6.9293
" />
<path d="M14.8896 5.6593
L15.6153 5.6593
" />
<path d="M15.2525 6.9293
L15.2525 5.6593
" />
<path d="M15.9782 6.5665
L16.5829 6.5665
" />
<path d="M15.8572 6.9293
L16.2805 5.6593
" />
<path d="M16.2805 5.6593
L16.7039 6.9293
" />
<path d="M17.7925 6.9293
L17.0668 6.9293
" />
<path d="M17.4296 6.9293
L17.4296 5.6593
" />
<path d="M17.4296 5.6593
L17.3087 5.8408
" />
<path d="M17.3087 5.8408
L17.1877 5.9617
" />
<path d="M17.1877 5.9617
L17.0668 6.0222
" />
<path d="M19.0020 6.9293
L18.2763 6.9293
" />
<path d="M18.6391 6.9293
L18.6391 5.6593
" />
<path d="M18.6391 5.6593
L18.5182 5.8408
" />
<path d="M18.5182 5.8408
L18.3972 5.9617
" />
<path d="M18.3972 5.9617
L18.2763 6.0222
" />
<path d="M20.1510 5.6593
L19.5462 5.6593
" />
<path d="M19.5462 5.6593
L19.4858 6.2641
" />
<path d="M19.4858 6.2641
L19.5462 6.2036
" />
<path d="M19.5462 6.2036
L19.6672 6.1431
" />
<path d="M19.6672 6.1431
L19.9696 6.1431
" />
<path d="M19.9696 6.1431
L20.0905 6.2036
" />
<path d="M20.0905 6.2036
L20.1510 6.2641
" />
<path d="M20.1510 6.2641
L20.2115 6.3850
" />
<path d="M20.2115 6.3850
L20.2115 6.6874
" />
<path d="M20.2115 6.6874
L20.1510 6.8084
" />
<path d="M20.1510 6.8084
L20.0905 6.8689
" />
<path d="M20.0905 6.8689
L19.9696 6.9293
" />
<path d="M19.9696 6.9293
L19.6672 6.9293
" />
<path d="M19.6672 6.9293
L19.5462 6.8689
" />
<path d="M19.5462 6.8689
L19.4858 6.8084
" />
<path d="M20.5743 5.6593
L21.3000 5.6593
" />
<path d="M20.9372 6.9293
L20.9372 5.6593
" />
</g></g> 
</svg>
