<?xml version="1.0" standalone="no"?>
 <!DOCTYPE svg PUBLIC "-//W3C//DTD SVG 1.1//EN" 
 "http://www.w3.org/Graphics/SVG/1.1/DTD/svg11.dtd"> 
<svg
  xmlns:svg="http://www.w3.org/2000/svg"
  xmlns="http://www.w3.org/2000/svg"
  xmlns:xlink="http://www.w3.org/1999/xlink"
  version="1.1"
  width="114.5540mm" height="5.6896mm" viewBox="0.0000 0.0000 114.5540 5.6896">
<title>SVG Image created as working.svg date 2023/09/29 03:08:11 </title>
  <desc>Image generated by Eeschema-SVG </desc>
<g style="fill:#000000; fill-opacity:1.0000;stroke:#000000; stroke-opacity:1.0000;
stroke-linecap:round; stroke-linejoin:round;"
 transform="translate(0 0) scale(1 1)">
</g>
<g style="fill:#840000; fill-opacity:0.0; 
stroke:#840000; stroke-width:0.0000; stroke-opacity:1; 
stroke-linecap:round; stroke-linejoin:round;">
</g>
<g style="fill:#840084; fill-opacity:0.0; 
stroke:#840084; stroke-width:0.0000; stroke-opacity:1; 
stroke-linecap:round; stroke-linejoin:round;">
</g>
<g style="fill:#840000; fill-opacity:0.0; 
stroke:#840000; stroke-width:0.0000; stroke-opacity:1; 
stroke-linecap:round; stroke-linejoin:round;">
</g>
<g style="fill:#840000; fill-opacity:0.0; 
stroke:#840000; stroke-width:0.2540; stroke-opacity:1; 
stroke-linecap:round; stroke-linejoin:round;">
<path style="fill:#840000; fill-opacity:0.0; 
stroke:#840000; stroke-width:0.2540; stroke-opacity:1; 
stroke-linecap:round; stroke-linejoin:round;fill:none"
d="M 56.0126,2.9326
58.5526,2.9326
" /> 
</g>
<g style="fill:#840000; fill-opacity:0.0; 
stroke:#840000; stroke-width:0.1524; stroke-opacity:1; 
stroke-linecap:round; stroke-linejoin:round;">
<path d="M57.2826 2.9326
L54.7426 2.9326
" />
</g>
<g style="fill:#006464; fill-opacity:0.0; 
stroke:#006464; stroke-width:0.1524; stroke-opacity:1; 
stroke-linecap:round; stroke-linejoin:round;">
<text x="56.0126" y="2.6786"
textLength="1.4127" font-size="1.6933" lengthAdjust="spacingAndGlyphs"
text-anchor="middle" opacity="0">1</text>
<g class="stroked-text"><desc>1</desc>
<path d="M56.3755 2.5151
L55.6498 2.5151
" />
<path d="M56.0126 2.5151
L56.0126 1.2451
" />
<path d="M56.0126 1.2451
L55.8917 1.4266
" />
<path d="M55.8917 1.4266
L55.7707 1.5475
" />
<path d="M55.7707 1.5475
L55.6498 1.6080
" />
</g></g>
<g style="fill:#840000; fill-opacity:0.0; 
stroke:#840000; stroke-width:0.1524; stroke-opacity:1; 
stroke-linecap:round; stroke-linejoin:round;">
<path d="M57.2826 2.9326
L59.8226 2.9326
" />
</g>
<g style="fill:#006464; fill-opacity:0.0; 
stroke:#006464; stroke-width:0.1524; stroke-opacity:1; 
stroke-linecap:round; stroke-linejoin:round;">
<text x="58.5526" y="2.6786"
textLength="1.4127" font-size="1.6933" lengthAdjust="spacingAndGlyphs"
text-anchor="middle" opacity="0">2</text>
<g class="stroked-text"><desc>2</desc>
<path d="M58.1898 1.3661
L58.2502 1.3056
" />
<path d="M58.2502 1.3056
L58.3712 1.2451
" />
<path d="M58.3712 1.2451
L58.6736 1.2451
" />
<path d="M58.6736 1.2451
L58.7945 1.3056
" />
<path d="M58.7945 1.3056
L58.8550 1.3661
" />
<path d="M58.8550 1.3661
L58.9155 1.4870
" />
<path d="M58.9155 1.4870
L58.9155 1.6080
" />
<path d="M58.9155 1.6080
L58.8550 1.7894
" />
<path d="M58.8550 1.7894
L58.1293 2.5151
" />
<path d="M58.1293 2.5151
L58.9155 2.5151
" />
</g></g>
<g style="fill:#840084; fill-opacity:0.0; 
stroke:#840084; stroke-width:0.1524; stroke-opacity:1; 
stroke-linecap:round; stroke-linejoin:round;">
</g>
<g style="fill:#006464; fill-opacity:0.0; 
stroke:#006464; stroke-width:0.1524; stroke-opacity:1; 
stroke-linecap:round; stroke-linejoin:round;">
</g>
<g style="fill:#006464; fill-opacity:0.0; 
stroke:#006464; stroke-width:0.1588; stroke-opacity:1; 
stroke-linecap:round; stroke-linejoin:round;">
<text x="57.2826" y="2.2976"
textLength="1.3110" font-size="1.6933" lengthAdjust="spacingAndGlyphs"
text-anchor="middle" opacity="0">?</text>
<g class="stroked-text"><desc>?</desc>
<path d="M57.2221 2.1209
L57.2825 2.1814
" />
<path d="M57.2825 2.1814
L57.2221 2.2418
" />
<path d="M57.2221 2.2418
L57.1616 2.1814
" />
<path d="M57.1616 2.1814
L57.2221 2.1209
" />
<path d="M57.2221 2.1209
L57.2221 2.2418
" />
<path d="M56.9802 1.0323
L57.1011 0.9718
" />
<path d="M57.1011 0.9718
L57.4035 0.9718
" />
<path d="M57.4035 0.9718
L57.5244 1.0323
" />
<path d="M57.5244 1.0323
L57.5849 1.1533
" />
<path d="M57.5849 1.1533
L57.5849 1.2742
" />
<path d="M57.5849 1.2742
L57.5244 1.3952
" />
<path d="M57.5244 1.3952
L57.4640 1.4556
" />
<path d="M57.4640 1.4556
L57.3430 1.5161
" />
<path d="M57.3430 1.5161
L57.2825 1.5766
" />
<path d="M57.2825 1.5766
L57.2221 1.6975
" />
<path d="M57.2221 1.6975
L57.2221 1.7580
" />
</g><text x="57.2826" y="4.8376"
textLength="32.0326" font-size="1.6933" lengthAdjust="spacingAndGlyphs"
text-anchor="middle" opacity="0">nt2_electronic_nettie_2_nets_smd</text>
<g class="stroked-text"><desc>nt2_electronic_nettie_2_nets_smd</desc>
<path d="M41.6798 3.9352
L41.6798 4.7818
" />
<path d="M41.6798 4.0561
L41.7403 3.9956
" />
<path d="M41.7403 3.9956
L41.8613 3.9352
" />
<path d="M41.8613 3.9352
L42.0427 3.9352
" />
<path d="M42.0427 3.9352
L42.1636 3.9956
" />
<path d="M42.1636 3.9956
L42.2241 4.1166
" />
<path d="M42.2241 4.1166
L42.2241 4.7818
" />
<path d="M42.6474 3.9352
L43.1312 3.9352
" />
<path d="M42.8288 3.5118
L42.8288 4.6004
" />
<path d="M42.8288 4.6004
L42.8893 4.7214
" />
<path d="M42.8893 4.7214
L43.0103 4.7818
" />
<path d="M43.0103 4.7818
L43.1312 4.7818
" />
<path d="M43.4941 3.6328
L43.5545 3.5723
" />
<path d="M43.5545 3.5723
L43.6755 3.5118
" />
<path d="M43.6755 3.5118
L43.9779 3.5118
" />
<path d="M43.9779 3.5118
L44.0988 3.5723
" />
<path d="M44.0988 3.5723
L44.1593 3.6328
" />
<path d="M44.1593 3.6328
L44.2198 3.7537
" />
<path d="M44.2198 3.7537
L44.2198 3.8747
" />
<path d="M44.2198 3.8747
L44.1593 4.0561
" />
<path d="M44.1593 4.0561
L43.4336 4.7818
" />
<path d="M43.4336 4.7818
L44.2198 4.7818
" />
<path d="M44.4617 4.9028
L45.4293 4.9028
" />
<path d="M46.2154 4.7214
L46.0945 4.7818
" />
<path d="M46.0945 4.7818
L45.8526 4.7818
" />
<path d="M45.8526 4.7818
L45.7316 4.7214
" />
<path d="M45.7316 4.7214
L45.6712 4.6004
" />
<path d="M45.6712 4.6004
L45.6712 4.1166
" />
<path d="M45.6712 4.1166
L45.7316 3.9956
" />
<path d="M45.7316 3.9956
L45.8526 3.9352
" />
<path d="M45.8526 3.9352
L46.0945 3.9352
" />
<path d="M46.0945 3.9352
L46.2154 3.9956
" />
<path d="M46.2154 3.9956
L46.2759 4.1166
" />
<path d="M46.2759 4.1166
L46.2759 4.2375
" />
<path d="M46.2759 4.2375
L45.6712 4.3585
" />
<path d="M47.0017 4.7818
L46.8807 4.7214
" />
<path d="M46.8807 4.7214
L46.8202 4.6004
" />
<path d="M46.8202 4.6004
L46.8202 3.5118
" />
<path d="M47.9692 4.7214
L47.8483 4.7818
" />
<path d="M47.8483 4.7818
L47.6064 4.7818
" />
<path d="M47.6064 4.7818
L47.4854 4.7214
" />
<path d="M47.4854 4.7214
L47.4250 4.6004
" />
<path d="M47.4250 4.6004
L47.4250 4.1166
" />
<path d="M47.4250 4.1166
L47.4854 3.9956
" />
<path d="M47.4854 3.9956
L47.6064 3.9352
" />
<path d="M47.6064 3.9352
L47.8483 3.9352
" />
<path d="M47.8483 3.9352
L47.9692 3.9956
" />
<path d="M47.9692 3.9956
L48.0297 4.1166
" />
<path d="M48.0297 4.1166
L48.0297 4.2375
" />
<path d="M48.0297 4.2375
L47.4250 4.3585
" />
<path d="M49.1183 4.7214
L48.9974 4.7818
" />
<path d="M48.9974 4.7818
L48.7555 4.7818
" />
<path d="M48.7555 4.7818
L48.6345 4.7214
" />
<path d="M48.6345 4.7214
L48.5740 4.6609
" />
<path d="M48.5740 4.6609
L48.5136 4.5399
" />
<path d="M48.5136 4.5399
L48.5136 4.1771
" />
<path d="M48.5136 4.1771
L48.5740 4.0561
" />
<path d="M48.5740 4.0561
L48.6345 3.9956
" />
<path d="M48.6345 3.9956
L48.7555 3.9352
" />
<path d="M48.7555 3.9352
L48.9974 3.9352
" />
<path d="M48.9974 3.9352
L49.1183 3.9956
" />
<path d="M49.4812 3.9352
L49.9650 3.9352
" />
<path d="M49.6626 3.5118
L49.6626 4.6004
" />
<path d="M49.6626 4.6004
L49.7231 4.7214
" />
<path d="M49.7231 4.7214
L49.8441 4.7818
" />
<path d="M49.8441 4.7818
L49.9650 4.7818
" />
<path d="M50.3883 4.7818
L50.3883 3.9352
" />
<path d="M50.3883 4.1771
L50.4488 4.0561
" />
<path d="M50.4488 4.0561
L50.5093 3.9956
" />
<path d="M50.5093 3.9956
L50.6302 3.9352
" />
<path d="M50.6302 3.9352
L50.7512 3.9352
" />
<path d="M51.3560 4.7818
L51.2350 4.7214
" />
<path d="M51.2350 4.7214
L51.1745 4.6609
" />
<path d="M51.1745 4.6609
L51.1141 4.5399
" />
<path d="M51.1141 4.5399
L51.1141 4.1771
" />
<path d="M51.1141 4.1771
L51.1745 4.0561
" />
<path d="M51.1745 4.0561
L51.2350 3.9956
" />
<path d="M51.2350 3.9956
L51.3560 3.9352
" />
<path d="M51.3560 3.9352
L51.5374 3.9352
" />
<path d="M51.5374 3.9352
L51.6583 3.9956
" />
<path d="M51.6583 3.9956
L51.7188 4.0561
" />
<path d="M51.7188 4.0561
L51.7793 4.1771
" />
<path d="M51.7793 4.1771
L51.7793 4.5399
" />
<path d="M51.7793 4.5399
L51.7188 4.6609
" />
<path d="M51.7188 4.6609
L51.6583 4.7214
" />
<path d="M51.6583 4.7214
L51.5374 4.7818
" />
<path d="M51.5374 4.7818
L51.3560 4.7818
" />
<path d="M52.3235 3.9352
L52.3235 4.7818
" />
<path d="M52.3235 4.0561
L52.3840 3.9956
" />
<path d="M52.3840 3.9956
L52.5050 3.9352
" />
<path d="M52.5050 3.9352
L52.6864 3.9352
" />
<path d="M52.6864 3.9352
L52.8073 3.9956
" />
<path d="M52.8073 3.9956
L52.8678 4.1166
" />
<path d="M52.8678 4.1166
L52.8678 4.7818
" />
<path d="M53.4725 4.7818
L53.4725 3.9352
" />
<path d="M53.4725 3.5118
L53.4121 3.5723
" />
<path d="M53.4121 3.5723
L53.4725 3.6328
" />
<path d="M53.4725 3.6328
L53.5330 3.5723
" />
<path d="M53.5330 3.5723
L53.4725 3.5118
" />
<path d="M53.4725 3.5118
L53.4725 3.6328
" />
<path d="M54.6216 4.7214
L54.5007 4.7818
" />
<path d="M54.5007 4.7818
L54.2588 4.7818
" />
<path d="M54.2588 4.7818
L54.1378 4.7214
" />
<path d="M54.1378 4.7214
L54.0773 4.6609
" />
<path d="M54.0773 4.6609
L54.0169 4.5399
" />
<path d="M54.0169 4.5399
L54.0169 4.1771
" />
<path d="M54.0169 4.1771
L54.0773 4.0561
" />
<path d="M54.0773 4.0561
L54.1378 3.9956
" />
<path d="M54.1378 3.9956
L54.2588 3.9352
" />
<path d="M54.2588 3.9352
L54.5007 3.9352
" />
<path d="M54.5007 3.9352
L54.6216 3.9956
" />
<path d="M54.8636 4.9028
L55.8312 4.9028
" />
<path d="M56.1335 3.9352
L56.1335 4.7818
" />
<path d="M56.1335 4.0561
L56.1940 3.9956
" />
<path d="M56.1940 3.9956
L56.3150 3.9352
" />
<path d="M56.3150 3.9352
L56.4964 3.9352
" />
<path d="M56.4964 3.9352
L56.6173 3.9956
" />
<path d="M56.6173 3.9956
L56.6778 4.1166
" />
<path d="M56.6778 4.1166
L56.6778 4.7818
" />
<path d="M57.7663 4.7214
L57.6454 4.7818
" />
<path d="M57.6454 4.7818
L57.4035 4.7818
" />
<path d="M57.4035 4.7818
L57.2825 4.7214
" />
<path d="M57.2825 4.7214
L57.2221 4.6004
" />
<path d="M57.2221 4.6004
L57.2221 4.1166
" />
<path d="M57.2221 4.1166
L57.2825 3.9956
" />
<path d="M57.2825 3.9956
L57.4035 3.9352
" />
<path d="M57.4035 3.9352
L57.6454 3.9352
" />
<path d="M57.6454 3.9352
L57.7663 3.9956
" />
<path d="M57.7663 3.9956
L57.8268 4.1166
" />
<path d="M57.8268 4.1166
L57.8268 4.2375
" />
<path d="M57.8268 4.2375
L57.2221 4.3585
" />
<path d="M58.1897 3.9352
L58.6735 3.9352
" />
<path d="M58.3711 3.5118
L58.3711 4.6004
" />
<path d="M58.3711 4.6004
L58.4316 4.7214
" />
<path d="M58.4316 4.7214
L58.5526 4.7818
" />
<path d="M58.5526 4.7818
L58.6735 4.7818
" />
<path d="M58.9154 3.9352
L59.3992 3.9352
" />
<path d="M59.0968 3.5118
L59.0968 4.6004
" />
<path d="M59.0968 4.6004
L59.1573 4.7214
" />
<path d="M59.1573 4.7214
L59.2783 4.7818
" />
<path d="M59.2783 4.7818
L59.3992 4.7818
" />
<path d="M59.8225 4.7818
L59.8225 3.9352
" />
<path d="M59.8225 3.5118
L59.7621 3.5723
" />
<path d="M59.7621 3.5723
L59.8225 3.6328
" />
<path d="M59.8225 3.6328
L59.8830 3.5723
" />
<path d="M59.8830 3.5723
L59.8225 3.5118
" />
<path d="M59.8225 3.5118
L59.8225 3.6328
" />
<path d="M60.9111 4.7214
L60.7902 4.7818
" />
<path d="M60.7902 4.7818
L60.5483 4.7818
" />
<path d="M60.5483 4.7818
L60.4273 4.7214
" />
<path d="M60.4273 4.7214
L60.3669 4.6004
" />
<path d="M60.3669 4.6004
L60.3669 4.1166
" />
<path d="M60.3669 4.1166
L60.4273 3.9956
" />
<path d="M60.4273 3.9956
L60.5483 3.9352
" />
<path d="M60.5483 3.9352
L60.7902 3.9352
" />
<path d="M60.7902 3.9352
L60.9111 3.9956
" />
<path d="M60.9111 3.9956
L60.9716 4.1166
" />
<path d="M60.9716 4.1166
L60.9716 4.2375
" />
<path d="M60.9716 4.2375
L60.3669 4.3585
" />
<path d="M61.2136 4.9028
L62.1812 4.9028
" />
<path d="M62.4231 3.6328
L62.4835 3.5723
" />
<path d="M62.4835 3.5723
L62.6045 3.5118
" />
<path d="M62.6045 3.5118
L62.9069 3.5118
" />
<path d="M62.9069 3.5118
L63.0278 3.5723
" />
<path d="M63.0278 3.5723
L63.0883 3.6328
" />
<path d="M63.0883 3.6328
L63.1488 3.7537
" />
<path d="M63.1488 3.7537
L63.1488 3.8747
" />
<path d="M63.1488 3.8747
L63.0883 4.0561
" />
<path d="M63.0883 4.0561
L62.3626 4.7818
" />
<path d="M62.3626 4.7818
L63.1488 4.7818
" />
<path d="M63.3907 4.9028
L64.3583 4.9028
" />
<path d="M64.6606 3.9352
L64.6606 4.7818
" />
<path d="M64.6606 4.0561
L64.7211 3.9956
" />
<path d="M64.7211 3.9956
L64.8421 3.9352
" />
<path d="M64.8421 3.9352
L65.0235 3.9352
" />
<path d="M65.0235 3.9352
L65.1444 3.9956
" />
<path d="M65.1444 3.9956
L65.2049 4.1166
" />
<path d="M65.2049 4.1166
L65.2049 4.7818
" />
<path d="M66.2934 4.7214
L66.1725 4.7818
" />
<path d="M66.1725 4.7818
L65.9306 4.7818
" />
<path d="M65.9306 4.7818
L65.8096 4.7214
" />
<path d="M65.8096 4.7214
L65.7492 4.6004
" />
<path d="M65.7492 4.6004
L65.7492 4.1166
" />
<path d="M65.7492 4.1166
L65.8096 3.9956
" />
<path d="M65.8096 3.9956
L65.9306 3.9352
" />
<path d="M65.9306 3.9352
L66.1725 3.9352
" />
<path d="M66.1725 3.9352
L66.2934 3.9956
" />
<path d="M66.2934 3.9956
L66.3539 4.1166
" />
<path d="M66.3539 4.1166
L66.3539 4.2375
" />
<path d="M66.3539 4.2375
L65.7492 4.3585
" />
<path d="M66.7168 3.9352
L67.2006 3.9352
" />
<path d="M66.8982 3.5118
L66.8982 4.6004
" />
<path d="M66.8982 4.6004
L66.9587 4.7214
" />
<path d="M66.9587 4.7214
L67.0797 4.7818
" />
<path d="M67.0797 4.7818
L67.2006 4.7818
" />
<path d="M67.5635 4.7214
L67.6844 4.7818
" />
<path d="M67.6844 4.7818
L67.9263 4.7818
" />
<path d="M67.9263 4.7818
L68.0473 4.7214
" />
<path d="M68.0473 4.7214
L68.1077 4.6004
" />
<path d="M68.1077 4.6004
L68.1077 4.5399
" />
<path d="M68.1077 4.5399
L68.0473 4.4190
" />
<path d="M68.0473 4.4190
L67.9263 4.3585
" />
<path d="M67.9263 4.3585
L67.7449 4.3585
" />
<path d="M67.7449 4.3585
L67.6239 4.2980
" />
<path d="M67.6239 4.2980
L67.5635 4.1771
" />
<path d="M67.5635 4.1771
L67.5635 4.1166
" />
<path d="M67.5635 4.1166
L67.6239 3.9956
" />
<path d="M67.6239 3.9956
L67.7449 3.9352
" />
<path d="M67.7449 3.9352
L67.9263 3.9352
" />
<path d="M67.9263 3.9352
L68.0473 3.9956
" />
<path d="M68.3497 4.9028
L69.3173 4.9028
" />
<path d="M69.5592 4.7214
L69.6801 4.7818
" />
<path d="M69.6801 4.7818
L69.9220 4.7818
" />
<path d="M69.9220 4.7818
L70.0430 4.7214
" />
<path d="M70.0430 4.7214
L70.1034 4.6004
" />
<path d="M70.1034 4.6004
L70.1034 4.5399
" />
<path d="M70.1034 4.5399
L70.0430 4.4190
" />
<path d="M70.0430 4.4190
L69.9220 4.3585
" />
<path d="M69.9220 4.3585
L69.7406 4.3585
" />
<path d="M69.7406 4.3585
L69.6196 4.2980
" />
<path d="M69.6196 4.2980
L69.5592 4.1771
" />
<path d="M69.5592 4.1771
L69.5592 4.1166
" />
<path d="M69.5592 4.1166
L69.6196 3.9956
" />
<path d="M69.6196 3.9956
L69.7406 3.9352
" />
<path d="M69.7406 3.9352
L69.9220 3.9352
" />
<path d="M69.9220 3.9352
L70.0430 3.9956
" />
<path d="M70.6477 4.7818
L70.6477 3.9352
" />
<path d="M70.6477 4.0561
L70.7082 3.9956
" />
<path d="M70.7082 3.9956
L70.8292 3.9352
" />
<path d="M70.8292 3.9352
L71.0106 3.9352
" />
<path d="M71.0106 3.9352
L71.1315 3.9956
" />
<path d="M71.1315 3.9956
L71.1920 4.1166
" />
<path d="M71.1920 4.1166
L71.1920 4.7818
" />
<path d="M71.1920 4.1166
L71.2525 3.9956
" />
<path d="M71.2525 3.9956
L71.3734 3.9352
" />
<path d="M71.3734 3.9352
L71.5549 3.9352
" />
<path d="M71.5549 3.9352
L71.6758 3.9956
" />
<path d="M71.6758 3.9956
L71.7363 4.1166
" />
<path d="M71.7363 4.1166
L71.7363 4.7818
" />
<path d="M72.8853 4.7818
L72.8853 3.5118
" />
<path d="M72.8853 4.7214
L72.7644 4.7818
" />
<path d="M72.7644 4.7818
L72.5225 4.7818
" />
<path d="M72.5225 4.7818
L72.4015 4.7214
" />
<path d="M72.4015 4.7214
L72.3410 4.6609
" />
<path d="M72.3410 4.6609
L72.2806 4.5399
" />
<path d="M72.2806 4.5399
L72.2806 4.1771
" />
<path d="M72.2806 4.1771
L72.3410 4.0561
" />
<path d="M72.3410 4.0561
L72.4015 3.9956
" />
<path d="M72.4015 3.9956
L72.5225 3.9352
" />
<path d="M72.5225 3.9352
L72.7644 3.9352
" />
<path d="M72.7644 3.9352
L72.8853 3.9956
" />
</g></g>
<g style="fill:#840084; fill-opacity:0.0; 
stroke:#840084; stroke-width:0.1588; stroke-opacity:1; 
stroke-linecap:round; stroke-linejoin:round;">
<text x="57.2826" y="3.5676"
textLength="61.3628" font-size="1.6933" lengthAdjust="spacingAndGlyphs"
text-anchor="middle" opacity="0">oomlout_oomp_part_footprints:nt2_electronic_nettie_2_nets_smd</text>
<g class="stroked-text"><desc>oomlout_oomp_part_footprints:nt2_electronic_nettie_2_nets_smd</desc>
<path d="M27.1962 3.5118
L27.0752 3.4514
" />
<path d="M27.0752 3.4514
L27.0147 3.3909
" />
<path d="M27.0147 3.3909
L26.9543 3.2699
" />
<path d="M26.9543 3.2699
L26.9543 2.9071
" />
<path d="M26.9543 2.9071
L27.0147 2.7861
" />
<path d="M27.0147 2.7861
L27.0752 2.7256
" />
<path d="M27.0752 2.7256
L27.1962 2.6652
" />
<path d="M27.1962 2.6652
L27.3776 2.6652
" />
<path d="M27.3776 2.6652
L27.4985 2.7256
" />
<path d="M27.4985 2.7256
L27.5590 2.7861
" />
<path d="M27.5590 2.7861
L27.6195 2.9071
" />
<path d="M27.6195 2.9071
L27.6195 3.2699
" />
<path d="M27.6195 3.2699
L27.5590 3.3909
" />
<path d="M27.5590 3.3909
L27.4985 3.4514
" />
<path d="M27.4985 3.4514
L27.3776 3.5118
" />
<path d="M27.3776 3.5118
L27.1962 3.5118
" />
<path d="M28.3452 3.5118
L28.2242 3.4514
" />
<path d="M28.2242 3.4514
L28.1637 3.3909
" />
<path d="M28.1637 3.3909
L28.1033 3.2699
" />
<path d="M28.1033 3.2699
L28.1033 2.9071
" />
<path d="M28.1033 2.9071
L28.1637 2.7861
" />
<path d="M28.1637 2.7861
L28.2242 2.7256
" />
<path d="M28.2242 2.7256
L28.3452 2.6652
" />
<path d="M28.3452 2.6652
L28.5266 2.6652
" />
<path d="M28.5266 2.6652
L28.6475 2.7256
" />
<path d="M28.6475 2.7256
L28.7080 2.7861
" />
<path d="M28.7080 2.7861
L28.7685 2.9071
" />
<path d="M28.7685 2.9071
L28.7685 3.2699
" />
<path d="M28.7685 3.2699
L28.7080 3.3909
" />
<path d="M28.7080 3.3909
L28.6475 3.4514
" />
<path d="M28.6475 3.4514
L28.5266 3.5118
" />
<path d="M28.5266 3.5118
L28.3452 3.5118
" />
<path d="M29.3127 3.5118
L29.3127 2.6652
" />
<path d="M29.3127 2.7861
L29.3732 2.7256
" />
<path d="M29.3732 2.7256
L29.4942 2.6652
" />
<path d="M29.4942 2.6652
L29.6756 2.6652
" />
<path d="M29.6756 2.6652
L29.7965 2.7256
" />
<path d="M29.7965 2.7256
L29.8570 2.8466
" />
<path d="M29.8570 2.8466
L29.8570 3.5118
" />
<path d="M29.8570 2.8466
L29.9175 2.7256
" />
<path d="M29.9175 2.7256
L30.0384 2.6652
" />
<path d="M30.0384 2.6652
L30.2199 2.6652
" />
<path d="M30.2199 2.6652
L30.3408 2.7256
" />
<path d="M30.3408 2.7256
L30.4013 2.8466
" />
<path d="M30.4013 2.8466
L30.4013 3.5118
" />
<path d="M31.1875 3.5118
L31.0665 3.4514
" />
<path d="M31.0665 3.4514
L31.0060 3.3304
" />
<path d="M31.0060 3.3304
L31.0060 2.2418
" />
<path d="M31.8527 3.5118
L31.7317 3.4514
" />
<path d="M31.7317 3.4514
L31.6712 3.3909
" />
<path d="M31.6712 3.3909
L31.6108 3.2699
" />
<path d="M31.6108 3.2699
L31.6108 2.9071
" />
<path d="M31.6108 2.9071
L31.6712 2.7861
" />
<path d="M31.6712 2.7861
L31.7317 2.7256
" />
<path d="M31.7317 2.7256
L31.8527 2.6652
" />
<path d="M31.8527 2.6652
L32.0341 2.6652
" />
<path d="M32.0341 2.6652
L32.1550 2.7256
" />
<path d="M32.1550 2.7256
L32.2155 2.7861
" />
<path d="M32.2155 2.7861
L32.2760 2.9071
" />
<path d="M32.2760 2.9071
L32.2760 3.2699
" />
<path d="M32.2760 3.2699
L32.2155 3.3909
" />
<path d="M32.2155 3.3909
L32.1550 3.4514
" />
<path d="M32.1550 3.4514
L32.0341 3.5118
" />
<path d="M32.0341 3.5118
L31.8527 3.5118
" />
<path d="M33.3645 2.6652
L33.3645 3.5118
" />
<path d="M32.8202 2.6652
L32.8202 3.3304
" />
<path d="M32.8202 3.3304
L32.8807 3.4514
" />
<path d="M32.8807 3.4514
L33.0017 3.5118
" />
<path d="M33.0017 3.5118
L33.1831 3.5118
" />
<path d="M33.1831 3.5118
L33.3040 3.4514
" />
<path d="M33.3040 3.4514
L33.3645 3.3909
" />
<path d="M33.7878 2.6652
L34.2716 2.6652
" />
<path d="M33.9692 2.2418
L33.9692 3.3304
" />
<path d="M33.9692 3.3304
L34.0297 3.4514
" />
<path d="M34.0297 3.4514
L34.1507 3.5118
" />
<path d="M34.1507 3.5118
L34.2716 3.5118
" />
<path d="M34.3926 3.6328
L35.3602 3.6328
" />
<path d="M35.8440 3.5118
L35.7230 3.4514
" />
<path d="M35.7230 3.4514
L35.6625 3.3909
" />
<path d="M35.6625 3.3909
L35.6021 3.2699
" />
<path d="M35.6021 3.2699
L35.6021 2.9071
" />
<path d="M35.6021 2.9071
L35.6625 2.7861
" />
<path d="M35.6625 2.7861
L35.7230 2.7256
" />
<path d="M35.7230 2.7256
L35.8440 2.6652
" />
<path d="M35.8440 2.6652
L36.0254 2.6652
" />
<path d="M36.0254 2.6652
L36.1463 2.7256
" />
<path d="M36.1463 2.7256
L36.2068 2.7861
" />
<path d="M36.2068 2.7861
L36.2673 2.9071
" />
<path d="M36.2673 2.9071
L36.2673 3.2699
" />
<path d="M36.2673 3.2699
L36.2068 3.3909
" />
<path d="M36.2068 3.3909
L36.1463 3.4514
" />
<path d="M36.1463 3.4514
L36.0254 3.5118
" />
<path d="M36.0254 3.5118
L35.8440 3.5118
" />
<path d="M36.9930 3.5118
L36.8720 3.4514
" />
<path d="M36.8720 3.4514
L36.8115 3.3909
" />
<path d="M36.8115 3.3909
L36.7511 3.2699
" />
<path d="M36.7511 3.2699
L36.7511 2.9071
" />
<path d="M36.7511 2.9071
L36.8115 2.7861
" />
<path d="M36.8115 2.7861
L36.8720 2.7256
" />
<path d="M36.8720 2.7256
L36.9930 2.6652
" />
<path d="M36.9930 2.6652
L37.1744 2.6652
" />
<path d="M37.1744 2.6652
L37.2953 2.7256
" />
<path d="M37.2953 2.7256
L37.3558 2.7861
" />
<path d="M37.3558 2.7861
L37.4163 2.9071
" />
<path d="M37.4163 2.9071
L37.4163 3.2699
" />
<path d="M37.4163 3.2699
L37.3558 3.3909
" />
<path d="M37.3558 3.3909
L37.2953 3.4514
" />
<path d="M37.2953 3.4514
L37.1744 3.5118
" />
<path d="M37.1744 3.5118
L36.9930 3.5118
" />
<path d="M37.9605 3.5118
L37.9605 2.6652
" />
<path d="M37.9605 2.7861
L38.0210 2.7256
" />
<path d="M38.0210 2.7256
L38.1420 2.6652
" />
<path d="M38.1420 2.6652
L38.3234 2.6652
" />
<path d="M38.3234 2.6652
L38.4443 2.7256
" />
<path d="M38.4443 2.7256
L38.5048 2.8466
" />
<path d="M38.5048 2.8466
L38.5048 3.5118
" />
<path d="M38.5048 2.8466
L38.5653 2.7256
" />
<path d="M38.5653 2.7256
L38.6862 2.6652
" />
<path d="M38.6862 2.6652
L38.8677 2.6652
" />
<path d="M38.8677 2.6652
L38.9886 2.7256
" />
<path d="M38.9886 2.7256
L39.0491 2.8466
" />
<path d="M39.0491 2.8466
L39.0491 3.5118
" />
<path d="M39.6538 2.6652
L39.6538 3.9352
" />
<path d="M39.6538 2.7256
L39.7748 2.6652
" />
<path d="M39.7748 2.6652
L40.0167 2.6652
" />
<path d="M40.0167 2.6652
L40.1376 2.7256
" />
<path d="M40.1376 2.7256
L40.1981 2.7861
" />
<path d="M40.1981 2.7861
L40.2586 2.9071
" />
<path d="M40.2586 2.9071
L40.2586 3.2699
" />
<path d="M40.2586 3.2699
L40.1981 3.3909
" />
<path d="M40.1981 3.3909
L40.1376 3.4514
" />
<path d="M40.1376 3.4514
L40.0167 3.5118
" />
<path d="M40.0167 3.5118
L39.7748 3.5118
" />
<path d="M39.7748 3.5118
L39.6538 3.4514
" />
<path d="M40.5005 3.6328
L41.4681 3.6328
" />
<path d="M41.7704 2.6652
L41.7704 3.9352
" />
<path d="M41.7704 2.7256
L41.8914 2.6652
" />
<path d="M41.8914 2.6652
L42.1333 2.6652
" />
<path d="M42.1333 2.6652
L42.2542 2.7256
" />
<path d="M42.2542 2.7256
L42.3147 2.7861
" />
<path d="M42.3147 2.7861
L42.3752 2.9071
" />
<path d="M42.3752 2.9071
L42.3752 3.2699
" />
<path d="M42.3752 3.2699
L42.3147 3.3909
" />
<path d="M42.3147 3.3909
L42.2542 3.4514
" />
<path d="M42.2542 3.4514
L42.1333 3.5118
" />
<path d="M42.1333 3.5118
L41.8914 3.5118
" />
<path d="M41.8914 3.5118
L41.7704 3.4514
" />
<path d="M43.4637 3.5118
L43.4637 2.8466
" />
<path d="M43.4637 2.8466
L43.4032 2.7256
" />
<path d="M43.4032 2.7256
L43.2823 2.6652
" />
<path d="M43.2823 2.6652
L43.0404 2.6652
" />
<path d="M43.0404 2.6652
L42.9194 2.7256
" />
<path d="M43.4637 3.4514
L43.3428 3.5118
" />
<path d="M43.3428 3.5118
L43.0404 3.5118
" />
<path d="M43.0404 3.5118
L42.9194 3.4514
" />
<path d="M42.9194 3.4514
L42.8590 3.3304
" />
<path d="M42.8590 3.3304
L42.8590 3.2094
" />
<path d="M42.8590 3.2094
L42.9194 3.0885
" />
<path d="M42.9194 3.0885
L43.0404 3.0280
" />
<path d="M43.0404 3.0280
L43.3428 3.0280
" />
<path d="M43.3428 3.0280
L43.4637 2.9675
" />
<path d="M44.0684 3.5118
L44.0684 2.6652
" />
<path d="M44.0684 2.9071
L44.1289 2.7861
" />
<path d="M44.1289 2.7861
L44.1894 2.7256
" />
<path d="M44.1894 2.7256
L44.3103 2.6652
" />
<path d="M44.3103 2.6652
L44.4313 2.6652
" />
<path d="M44.6732 2.6652
L45.1570 2.6652
" />
<path d="M44.8546 2.2418
L44.8546 3.3304
" />
<path d="M44.8546 3.3304
L44.9151 3.4514
" />
<path d="M44.9151 3.4514
L45.0361 3.5118
" />
<path d="M45.0361 3.5118
L45.1570 3.5118
" />
<path d="M45.2780 3.6328
L46.2456 3.6328
" />
<path d="M46.3665 2.6652
L46.8503 2.6652
" />
<path d="M46.5479 3.5118
L46.5479 2.4233
" />
<path d="M46.5479 2.4233
L46.6084 2.3023
" />
<path d="M46.6084 2.3023
L46.7294 2.2418
" />
<path d="M46.7294 2.2418
L46.8503 2.2418
" />
<path d="M47.4551 3.5118
L47.3341 3.4514
" />
<path d="M47.3341 3.4514
L47.2736 3.3909
" />
<path d="M47.2736 3.3909
L47.2132 3.2699
" />
<path d="M47.2132 3.2699
L47.2132 2.9071
" />
<path d="M47.2132 2.9071
L47.2736 2.7861
" />
<path d="M47.2736 2.7861
L47.3341 2.7256
" />
<path d="M47.3341 2.7256
L47.4551 2.6652
" />
<path d="M47.4551 2.6652
L47.6365 2.6652
" />
<path d="M47.6365 2.6652
L47.7574 2.7256
" />
<path d="M47.7574 2.7256
L47.8179 2.7861
" />
<path d="M47.8179 2.7861
L47.8784 2.9071
" />
<path d="M47.8784 2.9071
L47.8784 3.2699
" />
<path d="M47.8784 3.2699
L47.8179 3.3909
" />
<path d="M47.8179 3.3909
L47.7574 3.4514
" />
<path d="M47.7574 3.4514
L47.6365 3.5118
" />
<path d="M47.6365 3.5118
L47.4551 3.5118
" />
<path d="M48.6041 3.5118
L48.4831 3.4514
" />
<path d="M48.4831 3.4514
L48.4226 3.3909
" />
<path d="M48.4226 3.3909
L48.3622 3.2699
" />
<path d="M48.3622 3.2699
L48.3622 2.9071
" />
<path d="M48.3622 2.9071
L48.4226 2.7861
" />
<path d="M48.4226 2.7861
L48.4831 2.7256
" />
<path d="M48.4831 2.7256
L48.6041 2.6652
" />
<path d="M48.6041 2.6652
L48.7855 2.6652
" />
<path d="M48.7855 2.6652
L48.9064 2.7256
" />
<path d="M48.9064 2.7256
L48.9669 2.7861
" />
<path d="M48.9669 2.7861
L49.0274 2.9071
" />
<path d="M49.0274 2.9071
L49.0274 3.2699
" />
<path d="M49.0274 3.2699
L48.9669 3.3909
" />
<path d="M48.9669 3.3909
L48.9064 3.4514
" />
<path d="M48.9064 3.4514
L48.7855 3.5118
" />
<path d="M48.7855 3.5118
L48.6041 3.5118
" />
<path d="M49.3902 2.6652
L49.8740 2.6652
" />
<path d="M49.5716 2.2418
L49.5716 3.3304
" />
<path d="M49.5716 3.3304
L49.6321 3.4514
" />
<path d="M49.6321 3.4514
L49.7531 3.5118
" />
<path d="M49.7531 3.5118
L49.8740 3.5118
" />
<path d="M50.2973 2.6652
L50.2973 3.9352
" />
<path d="M50.2973 2.7256
L50.4183 2.6652
" />
<path d="M50.4183 2.6652
L50.6602 2.6652
" />
<path d="M50.6602 2.6652
L50.7811 2.7256
" />
<path d="M50.7811 2.7256
L50.8416 2.7861
" />
<path d="M50.8416 2.7861
L50.9021 2.9071
" />
<path d="M50.9021 2.9071
L50.9021 3.2699
" />
<path d="M50.9021 3.2699
L50.8416 3.3909
" />
<path d="M50.8416 3.3909
L50.7811 3.4514
" />
<path d="M50.7811 3.4514
L50.6602 3.5118
" />
<path d="M50.6602 3.5118
L50.4183 3.5118
" />
<path d="M50.4183 3.5118
L50.2973 3.4514
" />
<path d="M51.4463 3.5118
L51.4463 2.6652
" />
<path d="M51.4463 2.9071
L51.5068 2.7861
" />
<path d="M51.5068 2.7861
L51.5673 2.7256
" />
<path d="M51.5673 2.7256
L51.6882 2.6652
" />
<path d="M51.6882 2.6652
L51.8092 2.6652
" />
<path d="M52.2325 3.5118
L52.2325 2.6652
" />
<path d="M52.2325 2.2418
L52.1721 2.3023
" />
<path d="M52.1721 2.3023
L52.2325 2.3628
" />
<path d="M52.2325 2.3628
L52.2930 2.3023
" />
<path d="M52.2930 2.3023
L52.2325 2.2418
" />
<path d="M52.2325 2.2418
L52.2325 2.3628
" />
<path d="M52.8373 2.6652
L52.8373 3.5118
" />
<path d="M52.8373 2.7861
L52.8978 2.7256
" />
<path d="M52.8978 2.7256
L53.0188 2.6652
" />
<path d="M53.0188 2.6652
L53.2002 2.6652
" />
<path d="M53.2002 2.6652
L53.3211 2.7256
" />
<path d="M53.3211 2.7256
L53.3816 2.8466
" />
<path d="M53.3816 2.8466
L53.3816 3.5118
" />
<path d="M53.8049 2.6652
L54.2887 2.6652
" />
<path d="M53.9863 2.2418
L53.9863 3.3304
" />
<path d="M53.9863 3.3304
L54.0468 3.4514
" />
<path d="M54.0468 3.4514
L54.1678 3.5118
" />
<path d="M54.1678 3.5118
L54.2887 3.5118
" />
<path d="M54.6516 3.4514
L54.7725 3.5118
" />
<path d="M54.7725 3.5118
L55.0144 3.5118
" />
<path d="M55.0144 3.5118
L55.1354 3.4514
" />
<path d="M55.1354 3.4514
L55.1958 3.3304
" />
<path d="M55.1958 3.3304
L55.1958 3.2699
" />
<path d="M55.1958 3.2699
L55.1354 3.1490
" />
<path d="M55.1354 3.1490
L55.0144 3.0885
" />
<path d="M55.0144 3.0885
L54.8330 3.0885
" />
<path d="M54.8330 3.0885
L54.7120 3.0280
" />
<path d="M54.7120 3.0280
L54.6516 2.9071
" />
<path d="M54.6516 2.9071
L54.6516 2.8466
" />
<path d="M54.6516 2.8466
L54.7120 2.7256
" />
<path d="M54.7120 2.7256
L54.8330 2.6652
" />
<path d="M54.8330 2.6652
L55.0144 2.6652
" />
<path d="M55.0144 2.6652
L55.1354 2.7256
" />
<path d="M55.7401 3.3909
L55.8006 3.4514
" />
<path d="M55.8006 3.4514
L55.7401 3.5118
" />
<path d="M55.7401 3.5118
L55.6797 3.4514
" />
<path d="M55.6797 3.4514
L55.7401 3.3909
" />
<path d="M55.7401 3.3909
L55.7401 3.5118
" />
<path d="M55.7401 2.7256
L55.8006 2.7861
" />
<path d="M55.8006 2.7861
L55.7401 2.8466
" />
<path d="M55.7401 2.8466
L55.6797 2.7861
" />
<path d="M55.6797 2.7861
L55.7401 2.7256
" />
<path d="M55.7401 2.7256
L55.7401 2.8466
" />
<path d="M56.3449 2.6652
L56.3449 3.5118
" />
<path d="M56.3449 2.7861
L56.4054 2.7256
" />
<path d="M56.4054 2.7256
L56.5264 2.6652
" />
<path d="M56.5264 2.6652
L56.7078 2.6652
" />
<path d="M56.7078 2.6652
L56.8287 2.7256
" />
<path d="M56.8287 2.7256
L56.8892 2.8466
" />
<path d="M56.8892 2.8466
L56.8892 3.5118
" />
<path d="M57.3125 2.6652
L57.7963 2.6652
" />
<path d="M57.4939 2.2418
L57.4939 3.3304
" />
<path d="M57.4939 3.3304
L57.5544 3.4514
" />
<path d="M57.5544 3.4514
L57.6754 3.5118
" />
<path d="M57.6754 3.5118
L57.7963 3.5118
" />
<path d="M58.1592 2.3628
L58.2196 2.3023
" />
<path d="M58.2196 2.3023
L58.3406 2.2418
" />
<path d="M58.3406 2.2418
L58.6430 2.2418
" />
<path d="M58.6430 2.2418
L58.7639 2.3023
" />
<path d="M58.7639 2.3023
L58.8244 2.3628
" />
<path d="M58.8244 2.3628
L58.8849 2.4837
" />
<path d="M58.8849 2.4837
L58.8849 2.6047
" />
<path d="M58.8849 2.6047
L58.8244 2.7861
" />
<path d="M58.8244 2.7861
L58.0987 3.5118
" />
<path d="M58.0987 3.5118
L58.8849 3.5118
" />
<path d="M59.1268 3.6328
L60.0944 3.6328
" />
<path d="M60.8805 3.4514
L60.7596 3.5118
" />
<path d="M60.7596 3.5118
L60.5177 3.5118
" />
<path d="M60.5177 3.5118
L60.3967 3.4514
" />
<path d="M60.3967 3.4514
L60.3363 3.3304
" />
<path d="M60.3363 3.3304
L60.3363 2.8466
" />
<path d="M60.3363 2.8466
L60.3967 2.7256
" />
<path d="M60.3967 2.7256
L60.5177 2.6652
" />
<path d="M60.5177 2.6652
L60.7596 2.6652
" />
<path d="M60.7596 2.6652
L60.8805 2.7256
" />
<path d="M60.8805 2.7256
L60.9410 2.8466
" />
<path d="M60.9410 2.8466
L60.9410 2.9675
" />
<path d="M60.9410 2.9675
L60.3363 3.0885
" />
<path d="M61.6668 3.5118
L61.5458 3.4514
" />
<path d="M61.5458 3.4514
L61.4853 3.3304
" />
<path d="M61.4853 3.3304
L61.4853 2.2418
" />
<path d="M62.6343 3.4514
L62.5134 3.5118
" />
<path d="M62.5134 3.5118
L62.2715 3.5118
" />
<path d="M62.2715 3.5118
L62.1505 3.4514
" />
<path d="M62.1505 3.4514
L62.0901 3.3304
" />
<path d="M62.0901 3.3304
L62.0901 2.8466
" />
<path d="M62.0901 2.8466
L62.1505 2.7256
" />
<path d="M62.1505 2.7256
L62.2715 2.6652
" />
<path d="M62.2715 2.6652
L62.5134 2.6652
" />
<path d="M62.5134 2.6652
L62.6343 2.7256
" />
<path d="M62.6343 2.7256
L62.6948 2.8466
" />
<path d="M62.6948 2.8466
L62.6948 2.9675
" />
<path d="M62.6948 2.9675
L62.0901 3.0885
" />
<path d="M63.7834 3.4514
L63.6625 3.5118
" />
<path d="M63.6625 3.5118
L63.4206 3.5118
" />
<path d="M63.4206 3.5118
L63.2996 3.4514
" />
<path d="M63.2996 3.4514
L63.2391 3.3909
" />
<path d="M63.2391 3.3909
L63.1787 3.2699
" />
<path d="M63.1787 3.2699
L63.1787 2.9071
" />
<path d="M63.1787 2.9071
L63.2391 2.7861
" />
<path d="M63.2391 2.7861
L63.2996 2.7256
" />
<path d="M63.2996 2.7256
L63.4206 2.6652
" />
<path d="M63.4206 2.6652
L63.6625 2.6652
" />
<path d="M63.6625 2.6652
L63.7834 2.7256
" />
<path d="M64.1463 2.6652
L64.6301 2.6652
" />
<path d="M64.3277 2.2418
L64.3277 3.3304
" />
<path d="M64.3277 3.3304
L64.3882 3.4514
" />
<path d="M64.3882 3.4514
L64.5092 3.5118
" />
<path d="M64.5092 3.5118
L64.6301 3.5118
" />
<path d="M65.0534 3.5118
L65.0534 2.6652
" />
<path d="M65.0534 2.9071
L65.1139 2.7861
" />
<path d="M65.1139 2.7861
L65.1744 2.7256
" />
<path d="M65.1744 2.7256
L65.2953 2.6652
" />
<path d="M65.2953 2.6652
L65.4163 2.6652
" />
<path d="M66.0211 3.5118
L65.9001 3.4514
" />
<path d="M65.9001 3.4514
L65.8396 3.3909
" />
<path d="M65.8396 3.3909
L65.7792 3.2699
" />
<path d="M65.7792 3.2699
L65.7792 2.9071
" />
<path d="M65.7792 2.9071
L65.8396 2.7861
" />
<path d="M65.8396 2.7861
L65.9001 2.7256
" />
<path d="M65.9001 2.7256
L66.0211 2.6652
" />
<path d="M66.0211 2.6652
L66.2025 2.6652
" />
<path d="M66.2025 2.6652
L66.3234 2.7256
" />
<path d="M66.3234 2.7256
L66.3839 2.7861
" />
<path d="M66.3839 2.7861
L66.4444 2.9071
" />
<path d="M66.4444 2.9071
L66.4444 3.2699
" />
<path d="M66.4444 3.2699
L66.3839 3.3909
" />
<path d="M66.3839 3.3909
L66.3234 3.4514
" />
<path d="M66.3234 3.4514
L66.2025 3.5118
" />
<path d="M66.2025 3.5118
L66.0211 3.5118
" />
<path d="M66.9886 2.6652
L66.9886 3.5118
" />
<path d="M66.9886 2.7861
L67.0491 2.7256
" />
<path d="M67.0491 2.7256
L67.1701 2.6652
" />
<path d="M67.1701 2.6652
L67.3515 2.6652
" />
<path d="M67.3515 2.6652
L67.4724 2.7256
" />
<path d="M67.4724 2.7256
L67.5329 2.8466
" />
<path d="M67.5329 2.8466
L67.5329 3.5118
" />
<path d="M68.1376 3.5118
L68.1376 2.6652
" />
<path d="M68.1376 2.2418
L68.0772 2.3023
" />
<path d="M68.0772 2.3023
L68.1376 2.3628
" />
<path d="M68.1376 2.3628
L68.1981 2.3023
" />
<path d="M68.1981 2.3023
L68.1376 2.2418
" />
<path d="M68.1376 2.2418
L68.1376 2.3628
" />
<path d="M69.2867 3.4514
L69.1658 3.5118
" />
<path d="M69.1658 3.5118
L68.9239 3.5118
" />
<path d="M68.9239 3.5118
L68.8029 3.4514
" />
<path d="M68.8029 3.4514
L68.7424 3.3909
" />
<path d="M68.7424 3.3909
L68.6820 3.2699
" />
<path d="M68.6820 3.2699
L68.6820 2.9071
" />
<path d="M68.6820 2.9071
L68.7424 2.7861
" />
<path d="M68.7424 2.7861
L68.8029 2.7256
" />
<path d="M68.8029 2.7256
L68.9239 2.6652
" />
<path d="M68.9239 2.6652
L69.1658 2.6652
" />
<path d="M69.1658 2.6652
L69.2867 2.7256
" />
<path d="M69.5287 3.6328
L70.4963 3.6328
" />
<path d="M70.7986 2.6652
L70.7986 3.5118
" />
<path d="M70.7986 2.7861
L70.8591 2.7256
" />
<path d="M70.8591 2.7256
L70.9801 2.6652
" />
<path d="M70.9801 2.6652
L71.1615 2.6652
" />
<path d="M71.1615 2.6652
L71.2824 2.7256
" />
<path d="M71.2824 2.7256
L71.3429 2.8466
" />
<path d="M71.3429 2.8466
L71.3429 3.5118
" />
<path d="M72.4314 3.4514
L72.3105 3.5118
" />
<path d="M72.3105 3.5118
L72.0686 3.5118
" />
<path d="M72.0686 3.5118
L71.9476 3.4514
" />
<path d="M71.9476 3.4514
L71.8872 3.3304
" />
<path d="M71.8872 3.3304
L71.8872 2.8466
" />
<path d="M71.8872 2.8466
L71.9476 2.7256
" />
<path d="M71.9476 2.7256
L72.0686 2.6652
" />
<path d="M72.0686 2.6652
L72.3105 2.6652
" />
<path d="M72.3105 2.6652
L72.4314 2.7256
" />
<path d="M72.4314 2.7256
L72.4919 2.8466
" />
<path d="M72.4919 2.8466
L72.4919 2.9675
" />
<path d="M72.4919 2.9675
L71.8872 3.0885
" />
<path d="M72.8548 2.6652
L73.3386 2.6652
" />
<path d="M73.0362 2.2418
L73.0362 3.3304
" />
<path d="M73.0362 3.3304
L73.0967 3.4514
" />
<path d="M73.0967 3.4514
L73.2177 3.5118
" />
<path d="M73.2177 3.5118
L73.3386 3.5118
" />
<path d="M73.5805 2.6652
L74.0643 2.6652
" />
<path d="M73.7619 2.2418
L73.7619 3.3304
" />
<path d="M73.7619 3.3304
L73.8224 3.4514
" />
<path d="M73.8224 3.4514
L73.9434 3.5118
" />
<path d="M73.9434 3.5118
L74.0643 3.5118
" />
<path d="M74.4876 3.5118
L74.4876 2.6652
" />
<path d="M74.4876 2.2418
L74.4272 2.3023
" />
<path d="M74.4272 2.3023
L74.4876 2.3628
" />
<path d="M74.4876 2.3628
L74.5481 2.3023
" />
<path d="M74.5481 2.3023
L74.4876 2.2418
" />
<path d="M74.4876 2.2418
L74.4876 2.3628
" />
<path d="M75.5762 3.4514
L75.4553 3.5118
" />
<path d="M75.4553 3.5118
L75.2134 3.5118
" />
<path d="M75.2134 3.5118
L75.0924 3.4514
" />
<path d="M75.0924 3.4514
L75.0320 3.3304
" />
<path d="M75.0320 3.3304
L75.0320 2.8466
" />
<path d="M75.0320 2.8466
L75.0924 2.7256
" />
<path d="M75.0924 2.7256
L75.2134 2.6652
" />
<path d="M75.2134 2.6652
L75.4553 2.6652
" />
<path d="M75.4553 2.6652
L75.5762 2.7256
" />
<path d="M75.5762 2.7256
L75.6367 2.8466
" />
<path d="M75.6367 2.8466
L75.6367 2.9675
" />
<path d="M75.6367 2.9675
L75.0320 3.0885
" />
<path d="M75.8787 3.6328
L76.8463 3.6328
" />
<path d="M77.0882 2.3628
L77.1486 2.3023
" />
<path d="M77.1486 2.3023
L77.2696 2.2418
" />
<path d="M77.2696 2.2418
L77.5720 2.2418
" />
<path d="M77.5720 2.2418
L77.6929 2.3023
" />
<path d="M77.6929 2.3023
L77.7534 2.3628
" />
<path d="M77.7534 2.3628
L77.8139 2.4837
" />
<path d="M77.8139 2.4837
L77.8139 2.6047
" />
<path d="M77.8139 2.6047
L77.7534 2.7861
" />
<path d="M77.7534 2.7861
L77.0277 3.5118
" />
<path d="M77.0277 3.5118
L77.8139 3.5118
" />
<path d="M78.0558 3.6328
L79.0234 3.6328
" />
<path d="M79.3257 2.6652
L79.3257 3.5118
" />
<path d="M79.3257 2.7861
L79.3862 2.7256
" />
<path d="M79.3862 2.7256
L79.5072 2.6652
" />
<path d="M79.5072 2.6652
L79.6886 2.6652
" />
<path d="M79.6886 2.6652
L79.8095 2.7256
" />
<path d="M79.8095 2.7256
L79.8700 2.8466
" />
<path d="M79.8700 2.8466
L79.8700 3.5118
" />
<path d="M80.9585 3.4514
L80.8376 3.5118
" />
<path d="M80.8376 3.5118
L80.5957 3.5118
" />
<path d="M80.5957 3.5118
L80.4747 3.4514
" />
<path d="M80.4747 3.4514
L80.4143 3.3304
" />
<path d="M80.4143 3.3304
L80.4143 2.8466
" />
<path d="M80.4143 2.8466
L80.4747 2.7256
" />
<path d="M80.4747 2.7256
L80.5957 2.6652
" />
<path d="M80.5957 2.6652
L80.8376 2.6652
" />
<path d="M80.8376 2.6652
L80.9585 2.7256
" />
<path d="M80.9585 2.7256
L81.0190 2.8466
" />
<path d="M81.0190 2.8466
L81.0190 2.9675
" />
<path d="M81.0190 2.9675
L80.4143 3.0885
" />
<path d="M81.3819 2.6652
L81.8657 2.6652
" />
<path d="M81.5633 2.2418
L81.5633 3.3304
" />
<path d="M81.5633 3.3304
L81.6238 3.4514
" />
<path d="M81.6238 3.4514
L81.7448 3.5118
" />
<path d="M81.7448 3.5118
L81.8657 3.5118
" />
<path d="M82.2286 3.4514
L82.3495 3.5118
" />
<path d="M82.3495 3.5118
L82.5914 3.5118
" />
<path d="M82.5914 3.5118
L82.7124 3.4514
" />
<path d="M82.7124 3.4514
L82.7728 3.3304
" />
<path d="M82.7728 3.3304
L82.7728 3.2699
" />
<path d="M82.7728 3.2699
L82.7124 3.1490
" />
<path d="M82.7124 3.1490
L82.5914 3.0885
" />
<path d="M82.5914 3.0885
L82.4100 3.0885
" />
<path d="M82.4100 3.0885
L82.2890 3.0280
" />
<path d="M82.2890 3.0280
L82.2286 2.9071
" />
<path d="M82.2286 2.9071
L82.2286 2.8466
" />
<path d="M82.2286 2.8466
L82.2890 2.7256
" />
<path d="M82.2890 2.7256
L82.4100 2.6652
" />
<path d="M82.4100 2.6652
L82.5914 2.6652
" />
<path d="M82.5914 2.6652
L82.7124 2.7256
" />
<path d="M83.0148 3.6328
L83.9824 3.6328
" />
<path d="M84.2243 3.4514
L84.3452 3.5118
" />
<path d="M84.3452 3.5118
L84.5871 3.5118
" />
<path d="M84.5871 3.5118
L84.7081 3.4514
" />
<path d="M84.7081 3.4514
L84.7685 3.3304
" />
<path d="M84.7685 3.3304
L84.7685 3.2699
" />
<path d="M84.7685 3.2699
L84.7081 3.1490
" />
<path d="M84.7081 3.1490
L84.5871 3.0885
" />
<path d="M84.5871 3.0885
L84.4057 3.0885
" />
<path d="M84.4057 3.0885
L84.2847 3.0280
" />
<path d="M84.2847 3.0280
L84.2243 2.9071
" />
<path d="M84.2243 2.9071
L84.2243 2.8466
" />
<path d="M84.2243 2.8466
L84.2847 2.7256
" />
<path d="M84.2847 2.7256
L84.4057 2.6652
" />
<path d="M84.4057 2.6652
L84.5871 2.6652
" />
<path d="M84.5871 2.6652
L84.7081 2.7256
" />
<path d="M85.3128 3.5118
L85.3128 2.6652
" />
<path d="M85.3128 2.7861
L85.3733 2.7256
" />
<path d="M85.3733 2.7256
L85.4943 2.6652
" />
<path d="M85.4943 2.6652
L85.6757 2.6652
" />
<path d="M85.6757 2.6652
L85.7966 2.7256
" />
<path d="M85.7966 2.7256
L85.8571 2.8466
" />
<path d="M85.8571 2.8466
L85.8571 3.5118
" />
<path d="M85.8571 2.8466
L85.9176 2.7256
" />
<path d="M85.9176 2.7256
L86.0385 2.6652
" />
<path d="M86.0385 2.6652
L86.2200 2.6652
" />
<path d="M86.2200 2.6652
L86.3409 2.7256
" />
<path d="M86.3409 2.7256
L86.4014 2.8466
" />
<path d="M86.4014 2.8466
L86.4014 3.5118
" />
<path d="M87.5504 3.5118
L87.5504 2.2418
" />
<path d="M87.5504 3.4514
L87.4295 3.5118
" />
<path d="M87.4295 3.5118
L87.1876 3.5118
" />
<path d="M87.1876 3.5118
L87.0666 3.4514
" />
<path d="M87.0666 3.4514
L87.0061 3.3909
" />
<path d="M87.0061 3.3909
L86.9457 3.2699
" />
<path d="M86.9457 3.2699
L86.9457 2.9071
" />
<path d="M86.9457 2.9071
L87.0061 2.7861
" />
<path d="M87.0061 2.7861
L87.0666 2.7256
" />
<path d="M87.0666 2.7256
L87.1876 2.6652
" />
<path d="M87.1876 2.6652
L87.4295 2.6652
" />
<path d="M87.4295 2.6652
L87.5504 2.7256
" />
</g><text x="57.2826" y="3.5676"
textLength="95.4710" font-size="1.6933" lengthAdjust="spacingAndGlyphs"
text-anchor="middle" opacity="0">https://github.com/oomlout/oomlout_oomp_v3/parts/electronic_nettie_2_nets_smd/datasheet.pdf</text>
<g class="stroked-text"><desc>https://github.com/oomlout/oomlout_oomp_v3/parts/electronic_nettie_2_nets_smd/datasheet.pdf</desc>
<path d="M9.9606 3.5118
L9.9606 2.2418
" />
<path d="M10.5049 3.5118
L10.5049 2.8466
" />
<path d="M10.5049 2.8466
L10.4444 2.7256
" />
<path d="M10.4444 2.7256
L10.3235 2.6652
" />
<path d="M10.3235 2.6652
L10.1421 2.6652
" />
<path d="M10.1421 2.6652
L10.0211 2.7256
" />
<path d="M10.0211 2.7256
L9.9606 2.7861
" />
<path d="M10.9282 2.6652
L11.4120 2.6652
" />
<path d="M11.1096 2.2418
L11.1096 3.3304
" />
<path d="M11.1096 3.3304
L11.1701 3.4514
" />
<path d="M11.1701 3.4514
L11.2911 3.5118
" />
<path d="M11.2911 3.5118
L11.4120 3.5118
" />
<path d="M11.6539 2.6652
L12.1377 2.6652
" />
<path d="M11.8353 2.2418
L11.8353 3.3304
" />
<path d="M11.8353 3.3304
L11.8958 3.4514
" />
<path d="M11.8958 3.4514
L12.0168 3.5118
" />
<path d="M12.0168 3.5118
L12.1377 3.5118
" />
<path d="M12.5610 2.6652
L12.5610 3.9352
" />
<path d="M12.5610 2.7256
L12.6820 2.6652
" />
<path d="M12.6820 2.6652
L12.9239 2.6652
" />
<path d="M12.9239 2.6652
L13.0448 2.7256
" />
<path d="M13.0448 2.7256
L13.1053 2.7861
" />
<path d="M13.1053 2.7861
L13.1658 2.9071
" />
<path d="M13.1658 2.9071
L13.1658 3.2699
" />
<path d="M13.1658 3.2699
L13.1053 3.3909
" />
<path d="M13.1053 3.3909
L13.0448 3.4514
" />
<path d="M13.0448 3.4514
L12.9239 3.5118
" />
<path d="M12.9239 3.5118
L12.6820 3.5118
" />
<path d="M12.6820 3.5118
L12.5610 3.4514
" />
<path d="M13.6496 3.4514
L13.7705 3.5118
" />
<path d="M13.7705 3.5118
L14.0124 3.5118
" />
<path d="M14.0124 3.5118
L14.1334 3.4514
" />
<path d="M14.1334 3.4514
L14.1938 3.3304
" />
<path d="M14.1938 3.3304
L14.1938 3.2699
" />
<path d="M14.1938 3.2699
L14.1334 3.1490
" />
<path d="M14.1334 3.1490
L14.0124 3.0885
" />
<path d="M14.0124 3.0885
L13.8310 3.0885
" />
<path d="M13.8310 3.0885
L13.7100 3.0280
" />
<path d="M13.7100 3.0280
L13.6496 2.9071
" />
<path d="M13.6496 2.9071
L13.6496 2.8466
" />
<path d="M13.6496 2.8466
L13.7100 2.7256
" />
<path d="M13.7100 2.7256
L13.8310 2.6652
" />
<path d="M13.8310 2.6652
L14.0124 2.6652
" />
<path d="M14.0124 2.6652
L14.1334 2.7256
" />
<path d="M14.7381 3.3909
L14.7986 3.4514
" />
<path d="M14.7986 3.4514
L14.7381 3.5118
" />
<path d="M14.7381 3.5118
L14.6777 3.4514
" />
<path d="M14.6777 3.4514
L14.7381 3.3909
" />
<path d="M14.7381 3.3909
L14.7381 3.5118
" />
<path d="M14.7381 2.7256
L14.7986 2.7861
" />
<path d="M14.7986 2.7861
L14.7381 2.8466
" />
<path d="M14.7381 2.8466
L14.6777 2.7861
" />
<path d="M14.6777 2.7861
L14.7381 2.7256
" />
<path d="M14.7381 2.7256
L14.7381 2.8466
" />
<path d="M16.2501 2.1814
L15.1615 3.8142
" />
<path d="M17.5806 2.1814
L16.4920 3.8142
" />
<path d="M18.5482 2.6652
L18.5482 3.6933
" />
<path d="M18.5482 3.6933
L18.4877 3.8142
" />
<path d="M18.4877 3.8142
L18.4273 3.8747
" />
<path d="M18.4273 3.8747
L18.3063 3.9352
" />
<path d="M18.3063 3.9352
L18.1249 3.9352
" />
<path d="M18.1249 3.9352
L18.0039 3.8747
" />
<path d="M18.5482 3.4514
L18.4273 3.5118
" />
<path d="M18.4273 3.5118
L18.1854 3.5118
" />
<path d="M18.1854 3.5118
L18.0644 3.4514
" />
<path d="M18.0644 3.4514
L18.0039 3.3909
" />
<path d="M18.0039 3.3909
L17.9435 3.2699
" />
<path d="M17.9435 3.2699
L17.9435 2.9071
" />
<path d="M17.9435 2.9071
L18.0039 2.7861
" />
<path d="M18.0039 2.7861
L18.0644 2.7256
" />
<path d="M18.0644 2.7256
L18.1854 2.6652
" />
<path d="M18.1854 2.6652
L18.4273 2.6652
" />
<path d="M18.4273 2.6652
L18.5482 2.7256
" />
<path d="M19.1529 3.5118
L19.1529 2.6652
" />
<path d="M19.1529 2.2418
L19.0925 2.3023
" />
<path d="M19.0925 2.3023
L19.1529 2.3628
" />
<path d="M19.1529 2.3628
L19.2134 2.3023
" />
<path d="M19.2134 2.3023
L19.1529 2.2418
" />
<path d="M19.1529 2.2418
L19.1529 2.3628
" />
<path d="M19.5763 2.6652
L20.0601 2.6652
" />
<path d="M19.7577 2.2418
L19.7577 3.3304
" />
<path d="M19.7577 3.3304
L19.8182 3.4514
" />
<path d="M19.8182 3.4514
L19.9392 3.5118
" />
<path d="M19.9392 3.5118
L20.0601 3.5118
" />
<path d="M20.4834 3.5118
L20.4834 2.2418
" />
<path d="M21.0277 3.5118
L21.0277 2.8466
" />
<path d="M21.0277 2.8466
L20.9672 2.7256
" />
<path d="M20.9672 2.7256
L20.8463 2.6652
" />
<path d="M20.8463 2.6652
L20.6649 2.6652
" />
<path d="M20.6649 2.6652
L20.5439 2.7256
" />
<path d="M20.5439 2.7256
L20.4834 2.7861
" />
<path d="M22.1767 2.6652
L22.1767 3.5118
" />
<path d="M21.6324 2.6652
L21.6324 3.3304
" />
<path d="M21.6324 3.3304
L21.6929 3.4514
" />
<path d="M21.6929 3.4514
L21.8139 3.5118
" />
<path d="M21.8139 3.5118
L21.9953 3.5118
" />
<path d="M21.9953 3.5118
L22.1162 3.4514
" />
<path d="M22.1162 3.4514
L22.1767 3.3909
" />
<path d="M22.7814 3.5118
L22.7814 2.2418
" />
<path d="M22.7814 2.7256
L22.9024 2.6652
" />
<path d="M22.9024 2.6652
L23.1443 2.6652
" />
<path d="M23.1443 2.6652
L23.2652 2.7256
" />
<path d="M23.2652 2.7256
L23.3257 2.7861
" />
<path d="M23.3257 2.7861
L23.3862 2.9071
" />
<path d="M23.3862 2.9071
L23.3862 3.2699
" />
<path d="M23.3862 3.2699
L23.3257 3.3909
" />
<path d="M23.3257 3.3909
L23.2652 3.4514
" />
<path d="M23.2652 3.4514
L23.1443 3.5118
" />
<path d="M23.1443 3.5118
L22.9024 3.5118
" />
<path d="M22.9024 3.5118
L22.7814 3.4514
" />
<path d="M23.9304 3.3909
L23.9909 3.4514
" />
<path d="M23.9909 3.4514
L23.9304 3.5118
" />
<path d="M23.9304 3.5118
L23.8700 3.4514
" />
<path d="M23.8700 3.4514
L23.9304 3.3909
" />
<path d="M23.9304 3.3909
L23.9304 3.5118
" />
<path d="M25.0795 3.4514
L24.9586 3.5118
" />
<path d="M24.9586 3.5118
L24.7167 3.5118
" />
<path d="M24.7167 3.5118
L24.5957 3.4514
" />
<path d="M24.5957 3.4514
L24.5352 3.3909
" />
<path d="M24.5352 3.3909
L24.4748 3.2699
" />
<path d="M24.4748 3.2699
L24.4748 2.9071
" />
<path d="M24.4748 2.9071
L24.5352 2.7861
" />
<path d="M24.5352 2.7861
L24.5957 2.7256
" />
<path d="M24.5957 2.7256
L24.7167 2.6652
" />
<path d="M24.7167 2.6652
L24.9586 2.6652
" />
<path d="M24.9586 2.6652
L25.0795 2.7256
" />
<path d="M25.8053 3.5118
L25.6843 3.4514
" />
<path d="M25.6843 3.4514
L25.6238 3.3909
" />
<path d="M25.6238 3.3909
L25.5634 3.2699
" />
<path d="M25.5634 3.2699
L25.5634 2.9071
" />
<path d="M25.5634 2.9071
L25.6238 2.7861
" />
<path d="M25.6238 2.7861
L25.6843 2.7256
" />
<path d="M25.6843 2.7256
L25.8053 2.6652
" />
<path d="M25.8053 2.6652
L25.9867 2.6652
" />
<path d="M25.9867 2.6652
L26.1076 2.7256
" />
<path d="M26.1076 2.7256
L26.1681 2.7861
" />
<path d="M26.1681 2.7861
L26.2286 2.9071
" />
<path d="M26.2286 2.9071
L26.2286 3.2699
" />
<path d="M26.2286 3.2699
L26.1681 3.3909
" />
<path d="M26.1681 3.3909
L26.1076 3.4514
" />
<path d="M26.1076 3.4514
L25.9867 3.5118
" />
<path d="M25.9867 3.5118
L25.8053 3.5118
" />
<path d="M26.7728 3.5118
L26.7728 2.6652
" />
<path d="M26.7728 2.7861
L26.8333 2.7256
" />
<path d="M26.8333 2.7256
L26.9543 2.6652
" />
<path d="M26.9543 2.6652
L27.1357 2.6652
" />
<path d="M27.1357 2.6652
L27.2566 2.7256
" />
<path d="M27.2566 2.7256
L27.3171 2.8466
" />
<path d="M27.3171 2.8466
L27.3171 3.5118
" />
<path d="M27.3171 2.8466
L27.3776 2.7256
" />
<path d="M27.3776 2.7256
L27.4985 2.6652
" />
<path d="M27.4985 2.6652
L27.6800 2.6652
" />
<path d="M27.6800 2.6652
L27.8009 2.7256
" />
<path d="M27.8009 2.7256
L27.8614 2.8466
" />
<path d="M27.8614 2.8466
L27.8614 3.5118
" />
<path d="M29.3733 2.1814
L28.2847 3.8142
" />
<path d="M29.9781 3.5118
L29.8571 3.4514
" />
<path d="M29.8571 3.4514
L29.7966 3.3909
" />
<path d="M29.7966 3.3909
L29.7362 3.2699
" />
<path d="M29.7362 3.2699
L29.7362 2.9071
" />
<path d="M29.7362 2.9071
L29.7966 2.7861
" />
<path d="M29.7966 2.7861
L29.8571 2.7256
" />
<path d="M29.8571 2.7256
L29.9781 2.6652
" />
<path d="M29.9781 2.6652
L30.1595 2.6652
" />
<path d="M30.1595 2.6652
L30.2804 2.7256
" />
<path d="M30.2804 2.7256
L30.3409 2.7861
" />
<path d="M30.3409 2.7861
L30.4014 2.9071
" />
<path d="M30.4014 2.9071
L30.4014 3.2699
" />
<path d="M30.4014 3.2699
L30.3409 3.3909
" />
<path d="M30.3409 3.3909
L30.2804 3.4514
" />
<path d="M30.2804 3.4514
L30.1595 3.5118
" />
<path d="M30.1595 3.5118
L29.9781 3.5118
" />
<path d="M31.1271 3.5118
L31.0061 3.4514
" />
<path d="M31.0061 3.4514
L30.9456 3.3909
" />
<path d="M30.9456 3.3909
L30.8852 3.2699
" />
<path d="M30.8852 3.2699
L30.8852 2.9071
" />
<path d="M30.8852 2.9071
L30.9456 2.7861
" />
<path d="M30.9456 2.7861
L31.0061 2.7256
" />
<path d="M31.0061 2.7256
L31.1271 2.6652
" />
<path d="M31.1271 2.6652
L31.3085 2.6652
" />
<path d="M31.3085 2.6652
L31.4294 2.7256
" />
<path d="M31.4294 2.7256
L31.4899 2.7861
" />
<path d="M31.4899 2.7861
L31.5504 2.9071
" />
<path d="M31.5504 2.9071
L31.5504 3.2699
" />
<path d="M31.5504 3.2699
L31.4899 3.3909
" />
<path d="M31.4899 3.3909
L31.4294 3.4514
" />
<path d="M31.4294 3.4514
L31.3085 3.5118
" />
<path d="M31.3085 3.5118
L31.1271 3.5118
" />
<path d="M32.0946 3.5118
L32.0946 2.6652
" />
<path d="M32.0946 2.7861
L32.1551 2.7256
" />
<path d="M32.1551 2.7256
L32.2761 2.6652
" />
<path d="M32.2761 2.6652
L32.4575 2.6652
" />
<path d="M32.4575 2.6652
L32.5784 2.7256
" />
<path d="M32.5784 2.7256
L32.6389 2.8466
" />
<path d="M32.6389 2.8466
L32.6389 3.5118
" />
<path d="M32.6389 2.8466
L32.6994 2.7256
" />
<path d="M32.6994 2.7256
L32.8203 2.6652
" />
<path d="M32.8203 2.6652
L33.0018 2.6652
" />
<path d="M33.0018 2.6652
L33.1227 2.7256
" />
<path d="M33.1227 2.7256
L33.1832 2.8466
" />
<path d="M33.1832 2.8466
L33.1832 3.5118
" />
<path d="M33.9694 3.5118
L33.8484 3.4514
" />
<path d="M33.8484 3.4514
L33.7879 3.3304
" />
<path d="M33.7879 3.3304
L33.7879 2.2418
" />
<path d="M34.6346 3.5118
L34.5136 3.4514
" />
<path d="M34.5136 3.4514
L34.4531 3.3909
" />
<path d="M34.4531 3.3909
L34.3927 3.2699
" />
<path d="M34.3927 3.2699
L34.3927 2.9071
" />
<path d="M34.3927 2.9071
L34.4531 2.7861
" />
<path d="M34.4531 2.7861
L34.5136 2.7256
" />
<path d="M34.5136 2.7256
L34.6346 2.6652
" />
<path d="M34.6346 2.6652
L34.8160 2.6652
" />
<path d="M34.8160 2.6652
L34.9369 2.7256
" />
<path d="M34.9369 2.7256
L34.9974 2.7861
" />
<path d="M34.9974 2.7861
L35.0579 2.9071
" />
<path d="M35.0579 2.9071
L35.0579 3.2699
" />
<path d="M35.0579 3.2699
L34.9974 3.3909
" />
<path d="M34.9974 3.3909
L34.9369 3.4514
" />
<path d="M34.9369 3.4514
L34.8160 3.5118
" />
<path d="M34.8160 3.5118
L34.6346 3.5118
" />
<path d="M36.1464 2.6652
L36.1464 3.5118
" />
<path d="M35.6021 2.6652
L35.6021 3.3304
" />
<path d="M35.6021 3.3304
L35.6626 3.4514
" />
<path d="M35.6626 3.4514
L35.7836 3.5118
" />
<path d="M35.7836 3.5118
L35.9650 3.5118
" />
<path d="M35.9650 3.5118
L36.0859 3.4514
" />
<path d="M36.0859 3.4514
L36.1464 3.3909
" />
<path d="M36.5697 2.6652
L37.0535 2.6652
" />
<path d="M36.7511 2.2418
L36.7511 3.3304
" />
<path d="M36.7511 3.3304
L36.8116 3.4514
" />
<path d="M36.8116 3.4514
L36.9326 3.5118
" />
<path d="M36.9326 3.5118
L37.0535 3.5118
" />
<path d="M38.3840 2.1814
L37.2954 3.8142
" />
<path d="M38.9888 3.5118
L38.8678 3.4514
" />
<path d="M38.8678 3.4514
L38.8073 3.3909
" />
<path d="M38.8073 3.3909
L38.7469 3.2699
" />
<path d="M38.7469 3.2699
L38.7469 2.9071
" />
<path d="M38.7469 2.9071
L38.8073 2.7861
" />
<path d="M38.8073 2.7861
L38.8678 2.7256
" />
<path d="M38.8678 2.7256
L38.9888 2.6652
" />
<path d="M38.9888 2.6652
L39.1702 2.6652
" />
<path d="M39.1702 2.6652
L39.2911 2.7256
" />
<path d="M39.2911 2.7256
L39.3516 2.7861
" />
<path d="M39.3516 2.7861
L39.4121 2.9071
" />
<path d="M39.4121 2.9071
L39.4121 3.2699
" />
<path d="M39.4121 3.2699
L39.3516 3.3909
" />
<path d="M39.3516 3.3909
L39.2911 3.4514
" />
<path d="M39.2911 3.4514
L39.1702 3.5118
" />
<path d="M39.1702 3.5118
L38.9888 3.5118
" />
<path d="M40.1378 3.5118
L40.0168 3.4514
" />
<path d="M40.0168 3.4514
L39.9563 3.3909
" />
<path d="M39.9563 3.3909
L39.8959 3.2699
" />
<path d="M39.8959 3.2699
L39.8959 2.9071
" />
<path d="M39.8959 2.9071
L39.9563 2.7861
" />
<path d="M39.9563 2.7861
L40.0168 2.7256
" />
<path d="M40.0168 2.7256
L40.1378 2.6652
" />
<path d="M40.1378 2.6652
L40.3192 2.6652
" />
<path d="M40.3192 2.6652
L40.4401 2.7256
" />
<path d="M40.4401 2.7256
L40.5006 2.7861
" />
<path d="M40.5006 2.7861
L40.5611 2.9071
" />
<path d="M40.5611 2.9071
L40.5611 3.2699
" />
<path d="M40.5611 3.2699
L40.5006 3.3909
" />
<path d="M40.5006 3.3909
L40.4401 3.4514
" />
<path d="M40.4401 3.4514
L40.3192 3.5118
" />
<path d="M40.3192 3.5118
L40.1378 3.5118
" />
<path d="M41.1053 3.5118
L41.1053 2.6652
" />
<path d="M41.1053 2.7861
L41.1658 2.7256
" />
<path d="M41.1658 2.7256
L41.2868 2.6652
" />
<path d="M41.2868 2.6652
L41.4682 2.6652
" />
<path d="M41.4682 2.6652
L41.5891 2.7256
" />
<path d="M41.5891 2.7256
L41.6496 2.8466
" />
<path d="M41.6496 2.8466
L41.6496 3.5118
" />
<path d="M41.6496 2.8466
L41.7101 2.7256
" />
<path d="M41.7101 2.7256
L41.8310 2.6652
" />
<path d="M41.8310 2.6652
L42.0125 2.6652
" />
<path d="M42.0125 2.6652
L42.1334 2.7256
" />
<path d="M42.1334 2.7256
L42.1939 2.8466
" />
<path d="M42.1939 2.8466
L42.1939 3.5118
" />
<path d="M42.9801 3.5118
L42.8591 3.4514
" />
<path d="M42.8591 3.4514
L42.7986 3.3304
" />
<path d="M42.7986 3.3304
L42.7986 2.2418
" />
<path d="M43.6453 3.5118
L43.5243 3.4514
" />
<path d="M43.5243 3.4514
L43.4638 3.3909
" />
<path d="M43.4638 3.3909
L43.4034 3.2699
" />
<path d="M43.4034 3.2699
L43.4034 2.9071
" />
<path d="M43.4034 2.9071
L43.4638 2.7861
" />
<path d="M43.4638 2.7861
L43.5243 2.7256
" />
<path d="M43.5243 2.7256
L43.6453 2.6652
" />
<path d="M43.6453 2.6652
L43.8267 2.6652
" />
<path d="M43.8267 2.6652
L43.9476 2.7256
" />
<path d="M43.9476 2.7256
L44.0081 2.7861
" />
<path d="M44.0081 2.7861
L44.0686 2.9071
" />
<path d="M44.0686 2.9071
L44.0686 3.2699
" />
<path d="M44.0686 3.2699
L44.0081 3.3909
" />
<path d="M44.0081 3.3909
L43.9476 3.4514
" />
<path d="M43.9476 3.4514
L43.8267 3.5118
" />
<path d="M43.8267 3.5118
L43.6453 3.5118
" />
<path d="M45.1571 2.6652
L45.1571 3.5118
" />
<path d="M44.6128 2.6652
L44.6128 3.3304
" />
<path d="M44.6128 3.3304
L44.6733 3.4514
" />
<path d="M44.6733 3.4514
L44.7943 3.5118
" />
<path d="M44.7943 3.5118
L44.9757 3.5118
" />
<path d="M44.9757 3.5118
L45.0966 3.4514
" />
<path d="M45.0966 3.4514
L45.1571 3.3909
" />
<path d="M45.5804 2.6652
L46.0642 2.6652
" />
<path d="M45.7618 2.2418
L45.7618 3.3304
" />
<path d="M45.7618 3.3304
L45.8223 3.4514
" />
<path d="M45.8223 3.4514
L45.9433 3.5118
" />
<path d="M45.9433 3.5118
L46.0642 3.5118
" />
<path d="M46.1852 3.6328
L47.1528 3.6328
" />
<path d="M47.6366 3.5118
L47.5156 3.4514
" />
<path d="M47.5156 3.4514
L47.4551 3.3909
" />
<path d="M47.4551 3.3909
L47.3947 3.2699
" />
<path d="M47.3947 3.2699
L47.3947 2.9071
" />
<path d="M47.3947 2.9071
L47.4551 2.7861
" />
<path d="M47.4551 2.7861
L47.5156 2.7256
" />
<path d="M47.5156 2.7256
L47.6366 2.6652
" />
<path d="M47.6366 2.6652
L47.8180 2.6652
" />
<path d="M47.8180 2.6652
L47.9389 2.7256
" />
<path d="M47.9389 2.7256
L47.9994 2.7861
" />
<path d="M47.9994 2.7861
L48.0599 2.9071
" />
<path d="M48.0599 2.9071
L48.0599 3.2699
" />
<path d="M48.0599 3.2699
L47.9994 3.3909
" />
<path d="M47.9994 3.3909
L47.9389 3.4514
" />
<path d="M47.9389 3.4514
L47.8180 3.5118
" />
<path d="M47.8180 3.5118
L47.6366 3.5118
" />
<path d="M48.7856 3.5118
L48.6646 3.4514
" />
<path d="M48.6646 3.4514
L48.6041 3.3909
" />
<path d="M48.6041 3.3909
L48.5437 3.2699
" />
<path d="M48.5437 3.2699
L48.5437 2.9071
" />
<path d="M48.5437 2.9071
L48.6041 2.7861
" />
<path d="M48.6041 2.7861
L48.6646 2.7256
" />
<path d="M48.6646 2.7256
L48.7856 2.6652
" />
<path d="M48.7856 2.6652
L48.9670 2.6652
" />
<path d="M48.9670 2.6652
L49.0879 2.7256
" />
<path d="M49.0879 2.7256
L49.1484 2.7861
" />
<path d="M49.1484 2.7861
L49.2089 2.9071
" />
<path d="M49.2089 2.9071
L49.2089 3.2699
" />
<path d="M49.2089 3.2699
L49.1484 3.3909
" />
<path d="M49.1484 3.3909
L49.0879 3.4514
" />
<path d="M49.0879 3.4514
L48.9670 3.5118
" />
<path d="M48.9670 3.5118
L48.7856 3.5118
" />
<path d="M49.7531 3.5118
L49.7531 2.6652
" />
<path d="M49.7531 2.7861
L49.8136 2.7256
" />
<path d="M49.8136 2.7256
L49.9346 2.6652
" />
<path d="M49.9346 2.6652
L50.1160 2.6652
" />
<path d="M50.1160 2.6652
L50.2369 2.7256
" />
<path d="M50.2369 2.7256
L50.2974 2.8466
" />
<path d="M50.2974 2.8466
L50.2974 3.5118
" />
<path d="M50.2974 2.8466
L50.3579 2.7256
" />
<path d="M50.3579 2.7256
L50.4788 2.6652
" />
<path d="M50.4788 2.6652
L50.6603 2.6652
" />
<path d="M50.6603 2.6652
L50.7812 2.7256
" />
<path d="M50.7812 2.7256
L50.8417 2.8466
" />
<path d="M50.8417 2.8466
L50.8417 3.5118
" />
<path d="M51.4464 2.6652
L51.4464 3.9352
" />
<path d="M51.4464 2.7256
L51.5674 2.6652
" />
<path d="M51.5674 2.6652
L51.8093 2.6652
" />
<path d="M51.8093 2.6652
L51.9302 2.7256
" />
<path d="M51.9302 2.7256
L51.9907 2.7861
" />
<path d="M51.9907 2.7861
L52.0512 2.9071
" />
<path d="M52.0512 2.9071
L52.0512 3.2699
" />
<path d="M52.0512 3.2699
L51.9907 3.3909
" />
<path d="M51.9907 3.3909
L51.9302 3.4514
" />
<path d="M51.9302 3.4514
L51.8093 3.5118
" />
<path d="M51.8093 3.5118
L51.5674 3.5118
" />
<path d="M51.5674 3.5118
L51.4464 3.4514
" />
<path d="M52.2931 3.6328
L53.2607 3.6328
" />
<path d="M53.4421 2.6652
L53.7445 3.5118
" />
<path d="M53.7445 3.5118
L54.0468 2.6652
" />
<path d="M54.4097 2.2418
L55.1959 2.2418
" />
<path d="M55.1959 2.2418
L54.7725 2.7256
" />
<path d="M54.7725 2.7256
L54.9540 2.7256
" />
<path d="M54.9540 2.7256
L55.0749 2.7861
" />
<path d="M55.0749 2.7861
L55.1354 2.8466
" />
<path d="M55.1354 2.8466
L55.1959 2.9675
" />
<path d="M55.1959 2.9675
L55.1959 3.2699
" />
<path d="M55.1959 3.2699
L55.1354 3.3909
" />
<path d="M55.1354 3.3909
L55.0749 3.4514
" />
<path d="M55.0749 3.4514
L54.9540 3.5118
" />
<path d="M54.9540 3.5118
L54.5911 3.5118
" />
<path d="M54.5911 3.5118
L54.4702 3.4514
" />
<path d="M54.4702 3.4514
L54.4097 3.3909
" />
<path d="M56.6473 2.1814
L55.5587 3.8142
" />
<path d="M57.0706 2.6652
L57.0706 3.9352
" />
<path d="M57.0706 2.7256
L57.1916 2.6652
" />
<path d="M57.1916 2.6652
L57.4335 2.6652
" />
<path d="M57.4335 2.6652
L57.5544 2.7256
" />
<path d="M57.5544 2.7256
L57.6149 2.7861
" />
<path d="M57.6149 2.7861
L57.6754 2.9071
" />
<path d="M57.6754 2.9071
L57.6754 3.2699
" />
<path d="M57.6754 3.2699
L57.6149 3.3909
" />
<path d="M57.6149 3.3909
L57.5544 3.4514
" />
<path d="M57.5544 3.4514
L57.4335 3.5118
" />
<path d="M57.4335 3.5118
L57.1916 3.5118
" />
<path d="M57.1916 3.5118
L57.0706 3.4514
" />
<path d="M58.7639 3.5118
L58.7639 2.8466
" />
<path d="M58.7639 2.8466
L58.7034 2.7256
" />
<path d="M58.7034 2.7256
L58.5825 2.6652
" />
<path d="M58.5825 2.6652
L58.3406 2.6652
" />
<path d="M58.3406 2.6652
L58.2196 2.7256
" />
<path d="M58.7639 3.4514
L58.6430 3.5118
" />
<path d="M58.6430 3.5118
L58.3406 3.5118
" />
<path d="M58.3406 3.5118
L58.2196 3.4514
" />
<path d="M58.2196 3.4514
L58.1592 3.3304
" />
<path d="M58.1592 3.3304
L58.1592 3.2094
" />
<path d="M58.1592 3.2094
L58.2196 3.0885
" />
<path d="M58.2196 3.0885
L58.3406 3.0280
" />
<path d="M58.3406 3.0280
L58.6430 3.0280
" />
<path d="M58.6430 3.0280
L58.7639 2.9675
" />
<path d="M59.3686 3.5118
L59.3686 2.6652
" />
<path d="M59.3686 2.9071
L59.4291 2.7861
" />
<path d="M59.4291 2.7861
L59.4896 2.7256
" />
<path d="M59.4896 2.7256
L59.6105 2.6652
" />
<path d="M59.6105 2.6652
L59.7315 2.6652
" />
<path d="M59.9734 2.6652
L60.4572 2.6652
" />
<path d="M60.1548 2.2418
L60.1548 3.3304
" />
<path d="M60.1548 3.3304
L60.2153 3.4514
" />
<path d="M60.2153 3.4514
L60.3363 3.5118
" />
<path d="M60.3363 3.5118
L60.4572 3.5118
" />
<path d="M60.8201 3.4514
L60.9410 3.5118
" />
<path d="M60.9410 3.5118
L61.1829 3.5118
" />
<path d="M61.1829 3.5118
L61.3039 3.4514
" />
<path d="M61.3039 3.4514
L61.3643 3.3304
" />
<path d="M61.3643 3.3304
L61.3643 3.2699
" />
<path d="M61.3643 3.2699
L61.3039 3.1490
" />
<path d="M61.3039 3.1490
L61.1829 3.0885
" />
<path d="M61.1829 3.0885
L61.0015 3.0885
" />
<path d="M61.0015 3.0885
L60.8805 3.0280
" />
<path d="M60.8805 3.0280
L60.8201 2.9071
" />
<path d="M60.8201 2.9071
L60.8201 2.8466
" />
<path d="M60.8201 2.8466
L60.8805 2.7256
" />
<path d="M60.8805 2.7256
L61.0015 2.6652
" />
<path d="M61.0015 2.6652
L61.1829 2.6652
" />
<path d="M61.1829 2.6652
L61.3039 2.7256
" />
<path d="M62.8158 2.1814
L61.7272 3.8142
" />
<path d="M63.7229 3.4514
L63.6020 3.5118
" />
<path d="M63.6020 3.5118
L63.3601 3.5118
" />
<path d="M63.3601 3.5118
L63.2391 3.4514
" />
<path d="M63.2391 3.4514
L63.1787 3.3304
" />
<path d="M63.1787 3.3304
L63.1787 2.8466
" />
<path d="M63.1787 2.8466
L63.2391 2.7256
" />
<path d="M63.2391 2.7256
L63.3601 2.6652
" />
<path d="M63.3601 2.6652
L63.6020 2.6652
" />
<path d="M63.6020 2.6652
L63.7229 2.7256
" />
<path d="M63.7229 2.7256
L63.7834 2.8466
" />
<path d="M63.7834 2.8466
L63.7834 2.9675
" />
<path d="M63.7834 2.9675
L63.1787 3.0885
" />
<path d="M64.5092 3.5118
L64.3882 3.4514
" />
<path d="M64.3882 3.4514
L64.3277 3.3304
" />
<path d="M64.3277 3.3304
L64.3277 2.2418
" />
<path d="M65.4767 3.4514
L65.3558 3.5118
" />
<path d="M65.3558 3.5118
L65.1139 3.5118
" />
<path d="M65.1139 3.5118
L64.9929 3.4514
" />
<path d="M64.9929 3.4514
L64.9325 3.3304
" />
<path d="M64.9325 3.3304
L64.9325 2.8466
" />
<path d="M64.9325 2.8466
L64.9929 2.7256
" />
<path d="M64.9929 2.7256
L65.1139 2.6652
" />
<path d="M65.1139 2.6652
L65.3558 2.6652
" />
<path d="M65.3558 2.6652
L65.4767 2.7256
" />
<path d="M65.4767 2.7256
L65.5372 2.8466
" />
<path d="M65.5372 2.8466
L65.5372 2.9675
" />
<path d="M65.5372 2.9675
L64.9325 3.0885
" />
<path d="M66.6258 3.4514
L66.5049 3.5118
" />
<path d="M66.5049 3.5118
L66.2630 3.5118
" />
<path d="M66.2630 3.5118
L66.1420 3.4514
" />
<path d="M66.1420 3.4514
L66.0815 3.3909
" />
<path d="M66.0815 3.3909
L66.0211 3.2699
" />
<path d="M66.0211 3.2699
L66.0211 2.9071
" />
<path d="M66.0211 2.9071
L66.0815 2.7861
" />
<path d="M66.0815 2.7861
L66.1420 2.7256
" />
<path d="M66.1420 2.7256
L66.2630 2.6652
" />
<path d="M66.2630 2.6652
L66.5049 2.6652
" />
<path d="M66.5049 2.6652
L66.6258 2.7256
" />
<path d="M66.9887 2.6652
L67.4725 2.6652
" />
<path d="M67.1701 2.2418
L67.1701 3.3304
" />
<path d="M67.1701 3.3304
L67.2306 3.4514
" />
<path d="M67.2306 3.4514
L67.3516 3.5118
" />
<path d="M67.3516 3.5118
L67.4725 3.5118
" />
<path d="M67.8958 3.5118
L67.8958 2.6652
" />
<path d="M67.8958 2.9071
L67.9563 2.7861
" />
<path d="M67.9563 2.7861
L68.0168 2.7256
" />
<path d="M68.0168 2.7256
L68.1377 2.6652
" />
<path d="M68.1377 2.6652
L68.2587 2.6652
" />
<path d="M68.8635 3.5118
L68.7425 3.4514
" />
<path d="M68.7425 3.4514
L68.6820 3.3909
" />
<path d="M68.6820 3.3909
L68.6216 3.2699
" />
<path d="M68.6216 3.2699
L68.6216 2.9071
" />
<path d="M68.6216 2.9071
L68.6820 2.7861
" />
<path d="M68.6820 2.7861
L68.7425 2.7256
" />
<path d="M68.7425 2.7256
L68.8635 2.6652
" />
<path d="M68.8635 2.6652
L69.0449 2.6652
" />
<path d="M69.0449 2.6652
L69.1658 2.7256
" />
<path d="M69.1658 2.7256
L69.2263 2.7861
" />
<path d="M69.2263 2.7861
L69.2868 2.9071
" />
<path d="M69.2868 2.9071
L69.2868 3.2699
" />
<path d="M69.2868 3.2699
L69.2263 3.3909
" />
<path d="M69.2263 3.3909
L69.1658 3.4514
" />
<path d="M69.1658 3.4514
L69.0449 3.5118
" />
<path d="M69.0449 3.5118
L68.8635 3.5118
" />
<path d="M69.8310 2.6652
L69.8310 3.5118
" />
<path d="M69.8310 2.7861
L69.8915 2.7256
" />
<path d="M69.8915 2.7256
L70.0125 2.6652
" />
<path d="M70.0125 2.6652
L70.1939 2.6652
" />
<path d="M70.1939 2.6652
L70.3148 2.7256
" />
<path d="M70.3148 2.7256
L70.3753 2.8466
" />
<path d="M70.3753 2.8466
L70.3753 3.5118
" />
<path d="M70.9800 3.5118
L70.9800 2.6652
" />
<path d="M70.9800 2.2418
L70.9196 2.3023
" />
<path d="M70.9196 2.3023
L70.9800 2.3628
" />
<path d="M70.9800 2.3628
L71.0405 2.3023
" />
<path d="M71.0405 2.3023
L70.9800 2.2418
" />
<path d="M70.9800 2.2418
L70.9800 2.3628
" />
<path d="M72.1291 3.4514
L72.0082 3.5118
" />
<path d="M72.0082 3.5118
L71.7663 3.5118
" />
<path d="M71.7663 3.5118
L71.6453 3.4514
" />
<path d="M71.6453 3.4514
L71.5848 3.3909
" />
<path d="M71.5848 3.3909
L71.5244 3.2699
" />
<path d="M71.5244 3.2699
L71.5244 2.9071
" />
<path d="M71.5244 2.9071
L71.5848 2.7861
" />
<path d="M71.5848 2.7861
L71.6453 2.7256
" />
<path d="M71.6453 2.7256
L71.7663 2.6652
" />
<path d="M71.7663 2.6652
L72.0082 2.6652
" />
<path d="M72.0082 2.6652
L72.1291 2.7256
" />
<path d="M72.3711 3.6328
L73.3387 3.6328
" />
<path d="M73.6410 2.6652
L73.6410 3.5118
" />
<path d="M73.6410 2.7861
L73.7015 2.7256
" />
<path d="M73.7015 2.7256
L73.8225 2.6652
" />
<path d="M73.8225 2.6652
L74.0039 2.6652
" />
<path d="M74.0039 2.6652
L74.1248 2.7256
" />
<path d="M74.1248 2.7256
L74.1853 2.8466
" />
<path d="M74.1853 2.8466
L74.1853 3.5118
" />
<path d="M75.2738 3.4514
L75.1529 3.5118
" />
<path d="M75.1529 3.5118
L74.9110 3.5118
" />
<path d="M74.9110 3.5118
L74.7900 3.4514
" />
<path d="M74.7900 3.4514
L74.7296 3.3304
" />
<path d="M74.7296 3.3304
L74.7296 2.8466
" />
<path d="M74.7296 2.8466
L74.7900 2.7256
" />
<path d="M74.7900 2.7256
L74.9110 2.6652
" />
<path d="M74.9110 2.6652
L75.1529 2.6652
" />
<path d="M75.1529 2.6652
L75.2738 2.7256
" />
<path d="M75.2738 2.7256
L75.3343 2.8466
" />
<path d="M75.3343 2.8466
L75.3343 2.9675
" />
<path d="M75.3343 2.9675
L74.7296 3.0885
" />
<path d="M75.6972 2.6652
L76.1810 2.6652
" />
<path d="M75.8786 2.2418
L75.8786 3.3304
" />
<path d="M75.8786 3.3304
L75.9391 3.4514
" />
<path d="M75.9391 3.4514
L76.0601 3.5118
" />
<path d="M76.0601 3.5118
L76.1810 3.5118
" />
<path d="M76.4229 2.6652
L76.9067 2.6652
" />
<path d="M76.6043 2.2418
L76.6043 3.3304
" />
<path d="M76.6043 3.3304
L76.6648 3.4514
" />
<path d="M76.6648 3.4514
L76.7858 3.5118
" />
<path d="M76.7858 3.5118
L76.9067 3.5118
" />
<path d="M77.3300 3.5118
L77.3300 2.6652
" />
<path d="M77.3300 2.2418
L77.2696 2.3023
" />
<path d="M77.2696 2.3023
L77.3300 2.3628
" />
<path d="M77.3300 2.3628
L77.3905 2.3023
" />
<path d="M77.3905 2.3023
L77.3300 2.2418
" />
<path d="M77.3300 2.2418
L77.3300 2.3628
" />
<path d="M78.4186 3.4514
L78.2977 3.5118
" />
<path d="M78.2977 3.5118
L78.0558 3.5118
" />
<path d="M78.0558 3.5118
L77.9348 3.4514
" />
<path d="M77.9348 3.4514
L77.8744 3.3304
" />
<path d="M77.8744 3.3304
L77.8744 2.8466
" />
<path d="M77.8744 2.8466
L77.9348 2.7256
" />
<path d="M77.9348 2.7256
L78.0558 2.6652
" />
<path d="M78.0558 2.6652
L78.2977 2.6652
" />
<path d="M78.2977 2.6652
L78.4186 2.7256
" />
<path d="M78.4186 2.7256
L78.4791 2.8466
" />
<path d="M78.4791 2.8466
L78.4791 2.9675
" />
<path d="M78.4791 2.9675
L77.8744 3.0885
" />
<path d="M78.7211 3.6328
L79.6887 3.6328
" />
<path d="M79.9306 2.3628
L79.9910 2.3023
" />
<path d="M79.9910 2.3023
L80.1120 2.2418
" />
<path d="M80.1120 2.2418
L80.4144 2.2418
" />
<path d="M80.4144 2.2418
L80.5353 2.3023
" />
<path d="M80.5353 2.3023
L80.5958 2.3628
" />
<path d="M80.5958 2.3628
L80.6563 2.4837
" />
<path d="M80.6563 2.4837
L80.6563 2.6047
" />
<path d="M80.6563 2.6047
L80.5958 2.7861
" />
<path d="M80.5958 2.7861
L79.8701 3.5118
" />
<path d="M79.8701 3.5118
L80.6563 3.5118
" />
<path d="M80.8982 3.6328
L81.8658 3.6328
" />
<path d="M82.1681 2.6652
L82.1681 3.5118
" />
<path d="M82.1681 2.7861
L82.2286 2.7256
" />
<path d="M82.2286 2.7256
L82.3496 2.6652
" />
<path d="M82.3496 2.6652
L82.5310 2.6652
" />
<path d="M82.5310 2.6652
L82.6519 2.7256
" />
<path d="M82.6519 2.7256
L82.7124 2.8466
" />
<path d="M82.7124 2.8466
L82.7124 3.5118
" />
<path d="M83.8009 3.4514
L83.6800 3.5118
" />
<path d="M83.6800 3.5118
L83.4381 3.5118
" />
<path d="M83.4381 3.5118
L83.3171 3.4514
" />
<path d="M83.3171 3.4514
L83.2567 3.3304
" />
<path d="M83.2567 3.3304
L83.2567 2.8466
" />
<path d="M83.2567 2.8466
L83.3171 2.7256
" />
<path d="M83.3171 2.7256
L83.4381 2.6652
" />
<path d="M83.4381 2.6652
L83.6800 2.6652
" />
<path d="M83.6800 2.6652
L83.8009 2.7256
" />
<path d="M83.8009 2.7256
L83.8614 2.8466
" />
<path d="M83.8614 2.8466
L83.8614 2.9675
" />
<path d="M83.8614 2.9675
L83.2567 3.0885
" />
<path d="M84.2243 2.6652
L84.7081 2.6652
" />
<path d="M84.4057 2.2418
L84.4057 3.3304
" />
<path d="M84.4057 3.3304
L84.4662 3.4514
" />
<path d="M84.4662 3.4514
L84.5872 3.5118
" />
<path d="M84.5872 3.5118
L84.7081 3.5118
" />
<path d="M85.0710 3.4514
L85.1919 3.5118
" />
<path d="M85.1919 3.5118
L85.4338 3.5118
" />
<path d="M85.4338 3.5118
L85.5548 3.4514
" />
<path d="M85.5548 3.4514
L85.6152 3.3304
" />
<path d="M85.6152 3.3304
L85.6152 3.2699
" />
<path d="M85.6152 3.2699
L85.5548 3.1490
" />
<path d="M85.5548 3.1490
L85.4338 3.0885
" />
<path d="M85.4338 3.0885
L85.2524 3.0885
" />
<path d="M85.2524 3.0885
L85.1314 3.0280
" />
<path d="M85.1314 3.0280
L85.0710 2.9071
" />
<path d="M85.0710 2.9071
L85.0710 2.8466
" />
<path d="M85.0710 2.8466
L85.1314 2.7256
" />
<path d="M85.1314 2.7256
L85.2524 2.6652
" />
<path d="M85.2524 2.6652
L85.4338 2.6652
" />
<path d="M85.4338 2.6652
L85.5548 2.7256
" />
<path d="M85.8572 3.6328
L86.8248 3.6328
" />
<path d="M87.0667 3.4514
L87.1876 3.5118
" />
<path d="M87.1876 3.5118
L87.4295 3.5118
" />
<path d="M87.4295 3.5118
L87.5505 3.4514
" />
<path d="M87.5505 3.4514
L87.6109 3.3304
" />
<path d="M87.6109 3.3304
L87.6109 3.2699
" />
<path d="M87.6109 3.2699
L87.5505 3.1490
" />
<path d="M87.5505 3.1490
L87.4295 3.0885
" />
<path d="M87.4295 3.0885
L87.2481 3.0885
" />
<path d="M87.2481 3.0885
L87.1271 3.0280
" />
<path d="M87.1271 3.0280
L87.0667 2.9071
" />
<path d="M87.0667 2.9071
L87.0667 2.8466
" />
<path d="M87.0667 2.8466
L87.1271 2.7256
" />
<path d="M87.1271 2.7256
L87.2481 2.6652
" />
<path d="M87.2481 2.6652
L87.4295 2.6652
" />
<path d="M87.4295 2.6652
L87.5505 2.7256
" />
<path d="M88.1552 3.5118
L88.1552 2.6652
" />
<path d="M88.1552 2.7861
L88.2157 2.7256
" />
<path d="M88.2157 2.7256
L88.3367 2.6652
" />
<path d="M88.3367 2.6652
L88.5181 2.6652
" />
<path d="M88.5181 2.6652
L88.6390 2.7256
" />
<path d="M88.6390 2.7256
L88.6995 2.8466
" />
<path d="M88.6995 2.8466
L88.6995 3.5118
" />
<path d="M88.6995 2.8466
L88.7600 2.7256
" />
<path d="M88.7600 2.7256
L88.8809 2.6652
" />
<path d="M88.8809 2.6652
L89.0624 2.6652
" />
<path d="M89.0624 2.6652
L89.1833 2.7256
" />
<path d="M89.1833 2.7256
L89.2438 2.8466
" />
<path d="M89.2438 2.8466
L89.2438 3.5118
" />
<path d="M90.3928 3.5118
L90.3928 2.2418
" />
<path d="M90.3928 3.4514
L90.2719 3.5118
" />
<path d="M90.2719 3.5118
L90.0300 3.5118
" />
<path d="M90.0300 3.5118
L89.9090 3.4514
" />
<path d="M89.9090 3.4514
L89.8485 3.3909
" />
<path d="M89.8485 3.3909
L89.7881 3.2699
" />
<path d="M89.7881 3.2699
L89.7881 2.9071
" />
<path d="M89.7881 2.9071
L89.8485 2.7861
" />
<path d="M89.8485 2.7861
L89.9090 2.7256
" />
<path d="M89.9090 2.7256
L90.0300 2.6652
" />
<path d="M90.0300 2.6652
L90.2719 2.6652
" />
<path d="M90.2719 2.6652
L90.3928 2.7256
" />
<path d="M91.9047 2.1814
L90.8161 3.8142
" />
<path d="M92.8723 3.5118
L92.8723 2.2418
" />
<path d="M92.8723 3.4514
L92.7514 3.5118
" />
<path d="M92.7514 3.5118
L92.5095 3.5118
" />
<path d="M92.5095 3.5118
L92.3885 3.4514
" />
<path d="M92.3885 3.4514
L92.3280 3.3909
" />
<path d="M92.3280 3.3909
L92.2676 3.2699
" />
<path d="M92.2676 3.2699
L92.2676 2.9071
" />
<path d="M92.2676 2.9071
L92.3280 2.7861
" />
<path d="M92.3280 2.7861
L92.3885 2.7256
" />
<path d="M92.3885 2.7256
L92.5095 2.6652
" />
<path d="M92.5095 2.6652
L92.7514 2.6652
" />
<path d="M92.7514 2.6652
L92.8723 2.7256
" />
<path d="M94.0213 3.5118
L94.0213 2.8466
" />
<path d="M94.0213 2.8466
L93.9608 2.7256
" />
<path d="M93.9608 2.7256
L93.8399 2.6652
" />
<path d="M93.8399 2.6652
L93.5980 2.6652
" />
<path d="M93.5980 2.6652
L93.4770 2.7256
" />
<path d="M94.0213 3.4514
L93.9004 3.5118
" />
<path d="M93.9004 3.5118
L93.5980 3.5118
" />
<path d="M93.5980 3.5118
L93.4770 3.4514
" />
<path d="M93.4770 3.4514
L93.4166 3.3304
" />
<path d="M93.4166 3.3304
L93.4166 3.2094
" />
<path d="M93.4166 3.2094
L93.4770 3.0885
" />
<path d="M93.4770 3.0885
L93.5980 3.0280
" />
<path d="M93.5980 3.0280
L93.9004 3.0280
" />
<path d="M93.9004 3.0280
L94.0213 2.9675
" />
<path d="M94.4446 2.6652
L94.9284 2.6652
" />
<path d="M94.6260 2.2418
L94.6260 3.3304
" />
<path d="M94.6260 3.3304
L94.6865 3.4514
" />
<path d="M94.6865 3.4514
L94.8075 3.5118
" />
<path d="M94.8075 3.5118
L94.9284 3.5118
" />
<path d="M95.8960 3.5118
L95.8960 2.8466
" />
<path d="M95.8960 2.8466
L95.8355 2.7256
" />
<path d="M95.8355 2.7256
L95.7146 2.6652
" />
<path d="M95.7146 2.6652
L95.4727 2.6652
" />
<path d="M95.4727 2.6652
L95.3517 2.7256
" />
<path d="M95.8960 3.4514
L95.7751 3.5118
" />
<path d="M95.7751 3.5118
L95.4727 3.5118
" />
<path d="M95.4727 3.5118
L95.3517 3.4514
" />
<path d="M95.3517 3.4514
L95.2913 3.3304
" />
<path d="M95.2913 3.3304
L95.2913 3.2094
" />
<path d="M95.2913 3.2094
L95.3517 3.0885
" />
<path d="M95.3517 3.0885
L95.4727 3.0280
" />
<path d="M95.4727 3.0280
L95.7751 3.0280
" />
<path d="M95.7751 3.0280
L95.8960 2.9675
" />
<path d="M96.4403 3.4514
L96.5612 3.5118
" />
<path d="M96.5612 3.5118
L96.8031 3.5118
" />
<path d="M96.8031 3.5118
L96.9241 3.4514
" />
<path d="M96.9241 3.4514
L96.9845 3.3304
" />
<path d="M96.9845 3.3304
L96.9845 3.2699
" />
<path d="M96.9845 3.2699
L96.9241 3.1490
" />
<path d="M96.9241 3.1490
L96.8031 3.0885
" />
<path d="M96.8031 3.0885
L96.6217 3.0885
" />
<path d="M96.6217 3.0885
L96.5007 3.0280
" />
<path d="M96.5007 3.0280
L96.4403 2.9071
" />
<path d="M96.4403 2.9071
L96.4403 2.8466
" />
<path d="M96.4403 2.8466
L96.5007 2.7256
" />
<path d="M96.5007 2.7256
L96.6217 2.6652
" />
<path d="M96.6217 2.6652
L96.8031 2.6652
" />
<path d="M96.8031 2.6652
L96.9241 2.7256
" />
<path d="M97.5288 3.5118
L97.5288 2.2418
" />
<path d="M98.0731 3.5118
L98.0731 2.8466
" />
<path d="M98.0731 2.8466
L98.0126 2.7256
" />
<path d="M98.0126 2.7256
L97.8917 2.6652
" />
<path d="M97.8917 2.6652
L97.7103 2.6652
" />
<path d="M97.7103 2.6652
L97.5893 2.7256
" />
<path d="M97.5893 2.7256
L97.5288 2.7861
" />
<path d="M99.1616 3.4514
L99.0407 3.5118
" />
<path d="M99.0407 3.5118
L98.7988 3.5118
" />
<path d="M98.7988 3.5118
L98.6778 3.4514
" />
<path d="M98.6778 3.4514
L98.6174 3.3304
" />
<path d="M98.6174 3.3304
L98.6174 2.8466
" />
<path d="M98.6174 2.8466
L98.6778 2.7256
" />
<path d="M98.6778 2.7256
L98.7988 2.6652
" />
<path d="M98.7988 2.6652
L99.0407 2.6652
" />
<path d="M99.0407 2.6652
L99.1616 2.7256
" />
<path d="M99.1616 2.7256
L99.2221 2.8466
" />
<path d="M99.2221 2.8466
L99.2221 2.9675
" />
<path d="M99.2221 2.9675
L98.6174 3.0885
" />
<path d="M100.2502 3.4514
L100.1293 3.5118
" />
<path d="M100.1293 3.5118
L99.8874 3.5118
" />
<path d="M99.8874 3.5118
L99.7664 3.4514
" />
<path d="M99.7664 3.4514
L99.7060 3.3304
" />
<path d="M99.7060 3.3304
L99.7060 2.8466
" />
<path d="M99.7060 2.8466
L99.7664 2.7256
" />
<path d="M99.7664 2.7256
L99.8874 2.6652
" />
<path d="M99.8874 2.6652
L100.1293 2.6652
" />
<path d="M100.1293 2.6652
L100.2502 2.7256
" />
<path d="M100.2502 2.7256
L100.3107 2.8466
" />
<path d="M100.3107 2.8466
L100.3107 2.9675
" />
<path d="M100.3107 2.9675
L99.7060 3.0885
" />
<path d="M100.6736 2.6652
L101.1574 2.6652
" />
<path d="M100.8550 2.2418
L100.8550 3.3304
" />
<path d="M100.8550 3.3304
L100.9155 3.4514
" />
<path d="M100.9155 3.4514
L101.0365 3.5118
" />
<path d="M101.0365 3.5118
L101.1574 3.5118
" />
<path d="M101.5807 3.3909
L101.6412 3.4514
" />
<path d="M101.6412 3.4514
L101.5807 3.5118
" />
<path d="M101.5807 3.5118
L101.5203 3.4514
" />
<path d="M101.5203 3.4514
L101.5807 3.3909
" />
<path d="M101.5807 3.3909
L101.5807 3.5118
" />
<path d="M102.1855 2.6652
L102.1855 3.9352
" />
<path d="M102.1855 2.7256
L102.3065 2.6652
" />
<path d="M102.3065 2.6652
L102.5484 2.6652
" />
<path d="M102.5484 2.6652
L102.6693 2.7256
" />
<path d="M102.6693 2.7256
L102.7298 2.7861
" />
<path d="M102.7298 2.7861
L102.7903 2.9071
" />
<path d="M102.7903 2.9071
L102.7903 3.2699
" />
<path d="M102.7903 3.2699
L102.7298 3.3909
" />
<path d="M102.7298 3.3909
L102.6693 3.4514
" />
<path d="M102.6693 3.4514
L102.5484 3.5118
" />
<path d="M102.5484 3.5118
L102.3065 3.5118
" />
<path d="M102.3065 3.5118
L102.1855 3.4514
" />
<path d="M103.8788 3.5118
L103.8788 2.2418
" />
<path d="M103.8788 3.4514
L103.7579 3.5118
" />
<path d="M103.7579 3.5118
L103.5160 3.5118
" />
<path d="M103.5160 3.5118
L103.3950 3.4514
" />
<path d="M103.3950 3.4514
L103.3345 3.3909
" />
<path d="M103.3345 3.3909
L103.2741 3.2699
" />
<path d="M103.2741 3.2699
L103.2741 2.9071
" />
<path d="M103.2741 2.9071
L103.3345 2.7861
" />
<path d="M103.3345 2.7861
L103.3950 2.7256
" />
<path d="M103.3950 2.7256
L103.5160 2.6652
" />
<path d="M103.5160 2.6652
L103.7579 2.6652
" />
<path d="M103.7579 2.6652
L103.8788 2.7256
" />
<path d="M104.3021 2.6652
L104.7859 2.6652
" />
<path d="M104.4835 3.5118
L104.4835 2.4233
" />
<path d="M104.4835 2.4233
L104.5440 2.3023
" />
<path d="M104.5440 2.3023
L104.6650 2.2418
" />
<path d="M104.6650 2.2418
L104.7859 2.2418
" />
</g></g> 
</svg>
