<?xml version="1.0" standalone="no"?>
 <!DOCTYPE svg PUBLIC "-//W3C//DTD SVG 1.1//EN" 
 "http://www.w3.org/Graphics/SVG/1.1/DTD/svg11.dtd"> 
<svg
  xmlns:svg="http://www.w3.org/2000/svg"
  xmlns="http://www.w3.org/2000/svg"
  xmlns:xlink="http://www.w3.org/1999/xlink"
  version="1.1"
  width="81.4070mm" height="17.2466mm" viewBox="0.0000 0.0000 81.4070 17.2466">
<title>SVG Image created as working.svg date 2023/08/10 00:33:29 </title>
  <desc>Image generated by Eeschema-SVG </desc>
<g style="fill:#000000; fill-opacity:1.0000;stroke:#000000; stroke-opacity:1.0000;
stroke-linecap:round; stroke-linejoin:round;"
 transform="translate(0 0) scale(1 1)">
</g>
<g style="fill:#840000; fill-opacity:0.0; 
stroke:#840000; stroke-width:0.0000; stroke-opacity:1; 
stroke-linecap:round; stroke-linejoin:round;">
</g>
<g style="fill:#840084; fill-opacity:0.0; 
stroke:#840084; stroke-width:0.0000; stroke-opacity:1; 
stroke-linecap:round; stroke-linejoin:round;">
</g>
<g style="fill:#840000; fill-opacity:0.0; 
stroke:#840000; stroke-width:0.0000; stroke-opacity:1; 
stroke-linecap:round; stroke-linejoin:round;">
</g>
<g style="fill:#840084; fill-opacity:0.0; 
stroke:#840084; stroke-width:0.0000; stroke-opacity:1; 
stroke-linecap:round; stroke-linejoin:round;">
</g>
<g style="fill:#006464; fill-opacity:0.0; 
stroke:#006464; stroke-width:0.0000; stroke-opacity:1; 
stroke-linecap:round; stroke-linejoin:round;">
</g>
<g style="fill:#006464; fill-opacity:0.0; 
stroke:#006464; stroke-width:0.1588; stroke-opacity:1; 
stroke-linecap:round; stroke-linejoin:round;">
<text x="38.8462" y="3.0928"
textLength="2.6415" font-size="1.6933" lengthAdjust="spacingAndGlyphs"
text-anchor="middle" opacity="0">U?</text>
<g class="stroked-text"><desc>U?</desc>
<path d="M37.9390 1.7670
L37.9390 2.7951
" />
<path d="M37.9390 2.7951
L37.9995 2.9161
" />
<path d="M37.9995 2.9161
L38.0600 2.9766
" />
<path d="M38.0600 2.9766
L38.1809 3.0370
" />
<path d="M38.1809 3.0370
L38.4228 3.0370
" />
<path d="M38.4228 3.0370
L38.5438 2.9766
" />
<path d="M38.5438 2.9766
L38.6043 2.9161
" />
<path d="M38.6043 2.9161
L38.6647 2.7951
" />
<path d="M38.6647 2.7951
L38.6647 1.7670
" />
<path d="M39.4510 2.9161
L39.5114 2.9766
" />
<path d="M39.5114 2.9766
L39.4510 3.0370
" />
<path d="M39.4510 3.0370
L39.3905 2.9766
" />
<path d="M39.3905 2.9766
L39.4510 2.9161
" />
<path d="M39.4510 2.9161
L39.4510 3.0370
" />
<path d="M39.2091 1.8275
L39.3300 1.7670
" />
<path d="M39.3300 1.7670
L39.6324 1.7670
" />
<path d="M39.6324 1.7670
L39.7533 1.8275
" />
<path d="M39.7533 1.8275
L39.8138 1.9485
" />
<path d="M39.8138 1.9485
L39.8138 2.0694
" />
<path d="M39.8138 2.0694
L39.7533 2.1904
" />
<path d="M39.7533 2.1904
L39.6929 2.2508
" />
<path d="M39.6929 2.2508
L39.5719 2.3113
" />
<path d="M39.5719 2.3113
L39.5114 2.3718
" />
<path d="M39.5114 2.3718
L39.4510 2.4927
" />
<path d="M39.4510 2.4927
L39.4510 2.5532
" />
</g><text x="43.0190" y="4.8708"
textLength="10.9871" font-size="1.6933" lengthAdjust="spacingAndGlyphs"
text-anchor="middle" opacity="0">MAX319xPA</text>
<g class="stroked-text"><desc>MAX319xPA</desc>
<path d="M37.9390 4.8150
L37.9390 3.5450
" />
<path d="M37.9390 3.5450
L38.3624 4.4522
" />
<path d="M38.3624 4.4522
L38.7857 3.5450
" />
<path d="M38.7857 3.5450
L38.7857 4.8150
" />
<path d="M39.3300 4.4522
L39.9347 4.4522
" />
<path d="M39.2090 4.8150
L39.6323 3.5450
" />
<path d="M39.6323 3.5450
L40.0557 4.8150
" />
<path d="M40.3581 3.5450
L41.2047 4.8150
" />
<path d="M41.2047 3.5450
L40.3581 4.8150
" />
<path d="M41.5676 3.5450
L42.3538 3.5450
" />
<path d="M42.3538 3.5450
L41.9304 4.0288
" />
<path d="M41.9304 4.0288
L42.1119 4.0288
" />
<path d="M42.1119 4.0288
L42.2328 4.0893
" />
<path d="M42.2328 4.0893
L42.2933 4.1498
" />
<path d="M42.2933 4.1498
L42.3538 4.2707
" />
<path d="M42.3538 4.2707
L42.3538 4.5731
" />
<path d="M42.3538 4.5731
L42.2933 4.6941
" />
<path d="M42.2933 4.6941
L42.2328 4.7546
" />
<path d="M42.2328 4.7546
L42.1119 4.8150
" />
<path d="M42.1119 4.8150
L41.7490 4.8150
" />
<path d="M41.7490 4.8150
L41.6281 4.7546
" />
<path d="M41.6281 4.7546
L41.5676 4.6941
" />
<path d="M43.5633 4.8150
L42.8376 4.8150
" />
<path d="M43.2004 4.8150
L43.2004 3.5450
" />
<path d="M43.2004 3.5450
L43.0795 3.7265
" />
<path d="M43.0795 3.7265
L42.9585 3.8474
" />
<path d="M42.9585 3.8474
L42.8376 3.9079
" />
<path d="M44.1680 4.8150
L44.4099 4.8150
" />
<path d="M44.4099 4.8150
L44.5309 4.7546
" />
<path d="M44.5309 4.7546
L44.5913 4.6941
" />
<path d="M44.5913 4.6941
L44.7123 4.5126
" />
<path d="M44.7123 4.5126
L44.7728 4.2707
" />
<path d="M44.7728 4.2707
L44.7728 3.7869
" />
<path d="M44.7728 3.7869
L44.7123 3.6660
" />
<path d="M44.7123 3.6660
L44.6518 3.6055
" />
<path d="M44.6518 3.6055
L44.5309 3.5450
" />
<path d="M44.5309 3.5450
L44.2890 3.5450
" />
<path d="M44.2890 3.5450
L44.1680 3.6055
" />
<path d="M44.1680 3.6055
L44.1075 3.6660
" />
<path d="M44.1075 3.6660
L44.0471 3.7869
" />
<path d="M44.0471 3.7869
L44.0471 4.0893
" />
<path d="M44.0471 4.0893
L44.1075 4.2103
" />
<path d="M44.1075 4.2103
L44.1680 4.2707
" />
<path d="M44.1680 4.2707
L44.2890 4.3312
" />
<path d="M44.2890 4.3312
L44.5309 4.3312
" />
<path d="M44.5309 4.3312
L44.6518 4.2707
" />
<path d="M44.6518 4.2707
L44.7123 4.2103
" />
<path d="M44.7123 4.2103
L44.7728 4.0893
" />
<path d="M45.1961 4.8150
L45.8613 3.9684
" />
<path d="M45.1961 3.9684
L45.8613 4.8150
" />
<path d="M46.3451 4.8150
L46.3451 3.5450
" />
<path d="M46.3451 3.5450
L46.8289 3.5450
" />
<path d="M46.8289 3.5450
L46.9499 3.6055
" />
<path d="M46.9499 3.6055
L47.0104 3.6660
" />
<path d="M47.0104 3.6660
L47.0708 3.7869
" />
<path d="M47.0708 3.7869
L47.0708 3.9684
" />
<path d="M47.0708 3.9684
L47.0104 4.0893
" />
<path d="M47.0104 4.0893
L46.9499 4.1498
" />
<path d="M46.9499 4.1498
L46.8289 4.2103
" />
<path d="M46.8289 4.2103
L46.3451 4.2103
" />
<path d="M47.5547 4.4522
L48.1594 4.4522
" />
<path d="M47.4337 4.8150
L47.8570 3.5450
" />
<path d="M47.8570 3.5450
L48.2804 4.8150
" />
</g></g>
<g style="fill:#840084; fill-opacity:0.0; 
stroke:#840084; stroke-width:0.1588; stroke-opacity:1; 
stroke-linecap:round; stroke-linejoin:round;">
<text x="40.7005" y="15.4118"
textLength="28.8275" font-size="1.6933" lengthAdjust="spacingAndGlyphs"
text-anchor="middle" opacity="0">Package_DIP:DIP-8_W7.62mm</text>
<g class="stroked-text"><desc>Package_DIP:DIP-8_W7.62mm</desc>
<path d="M26.7003 15.3560
L26.7003 14.0860
" />
<path d="M26.7003 14.0860
L27.1841 14.0860
" />
<path d="M27.1841 14.0860
L27.3051 14.1465
" />
<path d="M27.3051 14.1465
L27.3656 14.2070
" />
<path d="M27.3656 14.2070
L27.4260 14.3279
" />
<path d="M27.4260 14.3279
L27.4260 14.5094
" />
<path d="M27.4260 14.5094
L27.3656 14.6303
" />
<path d="M27.3656 14.6303
L27.3051 14.6908
" />
<path d="M27.3051 14.6908
L27.1841 14.7513
" />
<path d="M27.1841 14.7513
L26.7003 14.7513
" />
<path d="M28.5146 15.3560
L28.5146 14.6908
" />
<path d="M28.5146 14.6908
L28.4541 14.5698
" />
<path d="M28.4541 14.5698
L28.3332 14.5094
" />
<path d="M28.3332 14.5094
L28.0913 14.5094
" />
<path d="M28.0913 14.5094
L27.9703 14.5698
" />
<path d="M28.5146 15.2956
L28.3937 15.3560
" />
<path d="M28.3937 15.3560
L28.0913 15.3560
" />
<path d="M28.0913 15.3560
L27.9703 15.2956
" />
<path d="M27.9703 15.2956
L27.9099 15.1746
" />
<path d="M27.9099 15.1746
L27.9099 15.0536
" />
<path d="M27.9099 15.0536
L27.9703 14.9327
" />
<path d="M27.9703 14.9327
L28.0913 14.8722
" />
<path d="M28.0913 14.8722
L28.3937 14.8722
" />
<path d="M28.3937 14.8722
L28.5146 14.8117
" />
<path d="M29.6636 15.2956
L29.5427 15.3560
" />
<path d="M29.5427 15.3560
L29.3008 15.3560
" />
<path d="M29.3008 15.3560
L29.1798 15.2956
" />
<path d="M29.1798 15.2956
L29.1193 15.2351
" />
<path d="M29.1193 15.2351
L29.0589 15.1141
" />
<path d="M29.0589 15.1141
L29.0589 14.7513
" />
<path d="M29.0589 14.7513
L29.1193 14.6303
" />
<path d="M29.1193 14.6303
L29.1798 14.5698
" />
<path d="M29.1798 14.5698
L29.3008 14.5094
" />
<path d="M29.3008 14.5094
L29.5427 14.5094
" />
<path d="M29.5427 14.5094
L29.6636 14.5698
" />
<path d="M30.2079 15.3560
L30.2079 14.0860
" />
<path d="M30.3289 14.8722
L30.6917 15.3560
" />
<path d="M30.6917 14.5094
L30.2079 14.9932
" />
<path d="M31.7803 15.3560
L31.7803 14.6908
" />
<path d="M31.7803 14.6908
L31.7198 14.5698
" />
<path d="M31.7198 14.5698
L31.5989 14.5094
" />
<path d="M31.5989 14.5094
L31.3570 14.5094
" />
<path d="M31.3570 14.5094
L31.2360 14.5698
" />
<path d="M31.7803 15.2956
L31.6594 15.3560
" />
<path d="M31.6594 15.3560
L31.3570 15.3560
" />
<path d="M31.3570 15.3560
L31.2360 15.2956
" />
<path d="M31.2360 15.2956
L31.1756 15.1746
" />
<path d="M31.1756 15.1746
L31.1756 15.0536
" />
<path d="M31.1756 15.0536
L31.2360 14.9327
" />
<path d="M31.2360 14.9327
L31.3570 14.8722
" />
<path d="M31.3570 14.8722
L31.6594 14.8722
" />
<path d="M31.6594 14.8722
L31.7803 14.8117
" />
<path d="M32.9293 14.5094
L32.9293 15.5375
" />
<path d="M32.9293 15.5375
L32.8688 15.6584
" />
<path d="M32.8688 15.6584
L32.8084 15.7189
" />
<path d="M32.8084 15.7189
L32.6874 15.7794
" />
<path d="M32.6874 15.7794
L32.5060 15.7794
" />
<path d="M32.5060 15.7794
L32.3850 15.7189
" />
<path d="M32.9293 15.2956
L32.8084 15.3560
" />
<path d="M32.8084 15.3560
L32.5665 15.3560
" />
<path d="M32.5665 15.3560
L32.4455 15.2956
" />
<path d="M32.4455 15.2956
L32.3850 15.2351
" />
<path d="M32.3850 15.2351
L32.3246 15.1141
" />
<path d="M32.3246 15.1141
L32.3246 14.7513
" />
<path d="M32.3246 14.7513
L32.3850 14.6303
" />
<path d="M32.3850 14.6303
L32.4455 14.5698
" />
<path d="M32.4455 14.5698
L32.5665 14.5094
" />
<path d="M32.5665 14.5094
L32.8084 14.5094
" />
<path d="M32.8084 14.5094
L32.9293 14.5698
" />
<path d="M34.0178 15.2956
L33.8969 15.3560
" />
<path d="M33.8969 15.3560
L33.6550 15.3560
" />
<path d="M33.6550 15.3560
L33.5340 15.2956
" />
<path d="M33.5340 15.2956
L33.4736 15.1746
" />
<path d="M33.4736 15.1746
L33.4736 14.6908
" />
<path d="M33.4736 14.6908
L33.5340 14.5698
" />
<path d="M33.5340 14.5698
L33.6550 14.5094
" />
<path d="M33.6550 14.5094
L33.8969 14.5094
" />
<path d="M33.8969 14.5094
L34.0178 14.5698
" />
<path d="M34.0178 14.5698
L34.0783 14.6908
" />
<path d="M34.0783 14.6908
L34.0783 14.8117
" />
<path d="M34.0783 14.8117
L33.4736 14.9327
" />
<path d="M34.3203 15.4770
L35.2879 15.4770
" />
<path d="M35.5902 15.3560
L35.5902 14.0860
" />
<path d="M35.5902 14.0860
L35.8926 14.0860
" />
<path d="M35.8926 14.0860
L36.0740 14.1465
" />
<path d="M36.0740 14.1465
L36.1950 14.2675
" />
<path d="M36.1950 14.2675
L36.2555 14.3884
" />
<path d="M36.2555 14.3884
L36.3159 14.6303
" />
<path d="M36.3159 14.6303
L36.3159 14.8117
" />
<path d="M36.3159 14.8117
L36.2555 15.0536
" />
<path d="M36.2555 15.0536
L36.1950 15.1746
" />
<path d="M36.1950 15.1746
L36.0740 15.2956
" />
<path d="M36.0740 15.2956
L35.8926 15.3560
" />
<path d="M35.8926 15.3560
L35.5902 15.3560
" />
<path d="M36.8602 15.3560
L36.8602 14.0860
" />
<path d="M37.4650 15.3560
L37.4650 14.0860
" />
<path d="M37.4650 14.0860
L37.9488 14.0860
" />
<path d="M37.9488 14.0860
L38.0698 14.1465
" />
<path d="M38.0698 14.1465
L38.1303 14.2070
" />
<path d="M38.1303 14.2070
L38.1907 14.3279
" />
<path d="M38.1907 14.3279
L38.1907 14.5094
" />
<path d="M38.1907 14.5094
L38.1303 14.6303
" />
<path d="M38.1303 14.6303
L38.0698 14.6908
" />
<path d="M38.0698 14.6908
L37.9488 14.7513
" />
<path d="M37.9488 14.7513
L37.4650 14.7513
" />
<path d="M38.7350 15.2351
L38.7955 15.2956
" />
<path d="M38.7955 15.2956
L38.7350 15.3560
" />
<path d="M38.7350 15.3560
L38.6746 15.2956
" />
<path d="M38.6746 15.2956
L38.7350 15.2351
" />
<path d="M38.7350 15.2351
L38.7350 15.3560
" />
<path d="M38.7350 14.5698
L38.7955 14.6303
" />
<path d="M38.7955 14.6303
L38.7350 14.6908
" />
<path d="M38.7350 14.6908
L38.6746 14.6303
" />
<path d="M38.6746 14.6303
L38.7350 14.5698
" />
<path d="M38.7350 14.5698
L38.7350 14.6908
" />
<path d="M39.3398 15.3560
L39.3398 14.0860
" />
<path d="M39.3398 14.0860
L39.6422 14.0860
" />
<path d="M39.6422 14.0860
L39.8236 14.1465
" />
<path d="M39.8236 14.1465
L39.9446 14.2675
" />
<path d="M39.9446 14.2675
L40.0051 14.3884
" />
<path d="M40.0051 14.3884
L40.0655 14.6303
" />
<path d="M40.0655 14.6303
L40.0655 14.8117
" />
<path d="M40.0655 14.8117
L40.0051 15.0536
" />
<path d="M40.0051 15.0536
L39.9446 15.1746
" />
<path d="M39.9446 15.1746
L39.8236 15.2956
" />
<path d="M39.8236 15.2956
L39.6422 15.3560
" />
<path d="M39.6422 15.3560
L39.3398 15.3560
" />
<path d="M40.6098 15.3560
L40.6098 14.0860
" />
<path d="M41.2146 15.3560
L41.2146 14.0860
" />
<path d="M41.2146 14.0860
L41.6984 14.0860
" />
<path d="M41.6984 14.0860
L41.8194 14.1465
" />
<path d="M41.8194 14.1465
L41.8799 14.2070
" />
<path d="M41.8799 14.2070
L41.9403 14.3279
" />
<path d="M41.9403 14.3279
L41.9403 14.5094
" />
<path d="M41.9403 14.5094
L41.8799 14.6303
" />
<path d="M41.8799 14.6303
L41.8194 14.6908
" />
<path d="M41.8194 14.6908
L41.6984 14.7513
" />
<path d="M41.6984 14.7513
L41.2146 14.7513
" />
<path d="M42.4846 14.8722
L43.4523 14.8722
" />
<path d="M44.2385 14.6303
L44.1175 14.5698
" />
<path d="M44.1175 14.5698
L44.0570 14.5094
" />
<path d="M44.0570 14.5094
L43.9966 14.3884
" />
<path d="M43.9966 14.3884
L43.9966 14.3279
" />
<path d="M43.9966 14.3279
L44.0570 14.2070
" />
<path d="M44.0570 14.2070
L44.1175 14.1465
" />
<path d="M44.1175 14.1465
L44.2385 14.0860
" />
<path d="M44.2385 14.0860
L44.4804 14.0860
" />
<path d="M44.4804 14.0860
L44.6013 14.1465
" />
<path d="M44.6013 14.1465
L44.6618 14.2070
" />
<path d="M44.6618 14.2070
L44.7223 14.3279
" />
<path d="M44.7223 14.3279
L44.7223 14.3884
" />
<path d="M44.7223 14.3884
L44.6618 14.5094
" />
<path d="M44.6618 14.5094
L44.6013 14.5698
" />
<path d="M44.6013 14.5698
L44.4804 14.6303
" />
<path d="M44.4804 14.6303
L44.2385 14.6303
" />
<path d="M44.2385 14.6303
L44.1175 14.6908
" />
<path d="M44.1175 14.6908
L44.0570 14.7513
" />
<path d="M44.0570 14.7513
L43.9966 14.8722
" />
<path d="M43.9966 14.8722
L43.9966 15.1141
" />
<path d="M43.9966 15.1141
L44.0570 15.2351
" />
<path d="M44.0570 15.2351
L44.1175 15.2956
" />
<path d="M44.1175 15.2956
L44.2385 15.3560
" />
<path d="M44.2385 15.3560
L44.4804 15.3560
" />
<path d="M44.4804 15.3560
L44.6013 15.2956
" />
<path d="M44.6013 15.2956
L44.6618 15.2351
" />
<path d="M44.6618 15.2351
L44.7223 15.1141
" />
<path d="M44.7223 15.1141
L44.7223 14.8722
" />
<path d="M44.7223 14.8722
L44.6618 14.7513
" />
<path d="M44.6618 14.7513
L44.6013 14.6908
" />
<path d="M44.6013 14.6908
L44.4804 14.6303
" />
<path d="M44.9642 15.4770
L45.9318 15.4770
" />
<path d="M46.1132 14.0860
L46.4156 15.3560
" />
<path d="M46.4156 15.3560
L46.6575 14.4489
" />
<path d="M46.6575 14.4489
L46.8994 15.3560
" />
<path d="M46.8994 15.3560
L47.2018 14.0860
" />
<path d="M47.5646 14.0860
L48.4112 14.0860
" />
<path d="M48.4112 14.0860
L47.8670 15.3560
" />
<path d="M48.8950 15.2351
L48.9555 15.2956
" />
<path d="M48.9555 15.2956
L48.8950 15.3560
" />
<path d="M48.8950 15.3560
L48.8346 15.2956
" />
<path d="M48.8346 15.2956
L48.8950 15.2351
" />
<path d="M48.8950 15.2351
L48.8950 15.3560
" />
<path d="M50.0441 14.0860
L49.8022 14.0860
" />
<path d="M49.8022 14.0860
L49.6813 14.1465
" />
<path d="M49.6813 14.1465
L49.6208 14.2070
" />
<path d="M49.6208 14.2070
L49.4998 14.3884
" />
<path d="M49.4998 14.3884
L49.4394 14.6303
" />
<path d="M49.4394 14.6303
L49.4394 15.1141
" />
<path d="M49.4394 15.1141
L49.4998 15.2351
" />
<path d="M49.4998 15.2351
L49.5603 15.2956
" />
<path d="M49.5603 15.2956
L49.6813 15.3560
" />
<path d="M49.6813 15.3560
L49.9232 15.3560
" />
<path d="M49.9232 15.3560
L50.0441 15.2956
" />
<path d="M50.0441 15.2956
L50.1046 15.2351
" />
<path d="M50.1046 15.2351
L50.1651 15.1141
" />
<path d="M50.1651 15.1141
L50.1651 14.8117
" />
<path d="M50.1651 14.8117
L50.1046 14.6908
" />
<path d="M50.1046 14.6908
L50.0441 14.6303
" />
<path d="M50.0441 14.6303
L49.9232 14.5698
" />
<path d="M49.9232 14.5698
L49.6813 14.5698
" />
<path d="M49.6813 14.5698
L49.5603 14.6303
" />
<path d="M49.5603 14.6303
L49.4998 14.6908
" />
<path d="M49.4998 14.6908
L49.4394 14.8117
" />
<path d="M50.6489 14.2070
L50.7093 14.1465
" />
<path d="M50.7093 14.1465
L50.8303 14.0860
" />
<path d="M50.8303 14.0860
L51.1327 14.0860
" />
<path d="M51.1327 14.0860
L51.2536 14.1465
" />
<path d="M51.2536 14.1465
L51.3141 14.2070
" />
<path d="M51.3141 14.2070
L51.3746 14.3279
" />
<path d="M51.3746 14.3279
L51.3746 14.4489
" />
<path d="M51.3746 14.4489
L51.3141 14.6303
" />
<path d="M51.3141 14.6303
L50.5884 15.3560
" />
<path d="M50.5884 15.3560
L51.3746 15.3560
" />
<path d="M51.9188 15.3560
L51.9188 14.5094
" />
<path d="M51.9188 14.6303
L51.9793 14.5698
" />
<path d="M51.9793 14.5698
L52.1003 14.5094
" />
<path d="M52.1003 14.5094
L52.2817 14.5094
" />
<path d="M52.2817 14.5094
L52.4026 14.5698
" />
<path d="M52.4026 14.5698
L52.4631 14.6908
" />
<path d="M52.4631 14.6908
L52.4631 15.3560
" />
<path d="M52.4631 14.6908
L52.5236 14.5698
" />
<path d="M52.5236 14.5698
L52.6445 14.5094
" />
<path d="M52.6445 14.5094
L52.8260 14.5094
" />
<path d="M52.8260 14.5094
L52.9469 14.5698
" />
<path d="M52.9469 14.5698
L53.0074 14.6908
" />
<path d="M53.0074 14.6908
L53.0074 15.3560
" />
<path d="M53.6121 15.3560
L53.6121 14.5094
" />
<path d="M53.6121 14.6303
L53.6726 14.5698
" />
<path d="M53.6726 14.5698
L53.7936 14.5094
" />
<path d="M53.7936 14.5094
L53.9750 14.5094
" />
<path d="M53.9750 14.5094
L54.0959 14.5698
" />
<path d="M54.0959 14.5698
L54.1564 14.6908
" />
<path d="M54.1564 14.6908
L54.1564 15.3560
" />
<path d="M54.1564 14.6908
L54.2169 14.5698
" />
<path d="M54.2169 14.5698
L54.3378 14.5094
" />
<path d="M54.3378 14.5094
L54.5193 14.5094
" />
<path d="M54.5193 14.5094
L54.6402 14.5698
" />
<path d="M54.6402 14.5698
L54.7007 14.6908
" />
<path d="M54.7007 14.6908
L54.7007 15.3560
" />
</g><text x="40.7005" y="12.8718"
textLength="67.8342" font-size="1.6933" lengthAdjust="spacingAndGlyphs"
text-anchor="middle" opacity="0">https://datasheets.maximintegrated.com/en/ds/MAX317-MAX319.pdf</text>
<g class="stroked-text"><desc>https://datasheets.maximintegrated.com/en/ds/MAX317-MAX319.pdf</desc>
<path d="M7.1969 12.8160
L7.1969 11.5460
" />
<path d="M7.7412 12.8160
L7.7412 12.1508
" />
<path d="M7.7412 12.1508
L7.6807 12.0298
" />
<path d="M7.6807 12.0298
L7.5598 11.9694
" />
<path d="M7.5598 11.9694
L7.3784 11.9694
" />
<path d="M7.3784 11.9694
L7.2574 12.0298
" />
<path d="M7.2574 12.0298
L7.1969 12.0903
" />
<path d="M8.1645 11.9694
L8.6483 11.9694
" />
<path d="M8.3459 11.5460
L8.3459 12.6346
" />
<path d="M8.3459 12.6346
L8.4064 12.7556
" />
<path d="M8.4064 12.7556
L8.5274 12.8160
" />
<path d="M8.5274 12.8160
L8.6483 12.8160
" />
<path d="M8.8902 11.9694
L9.3740 11.9694
" />
<path d="M9.0716 11.5460
L9.0716 12.6346
" />
<path d="M9.0716 12.6346
L9.1321 12.7556
" />
<path d="M9.1321 12.7556
L9.2531 12.8160
" />
<path d="M9.2531 12.8160
L9.3740 12.8160
" />
<path d="M9.7973 11.9694
L9.7973 13.2394
" />
<path d="M9.7973 12.0298
L9.9183 11.9694
" />
<path d="M9.9183 11.9694
L10.1602 11.9694
" />
<path d="M10.1602 11.9694
L10.2811 12.0298
" />
<path d="M10.2811 12.0298
L10.3416 12.0903
" />
<path d="M10.3416 12.0903
L10.4021 12.2113
" />
<path d="M10.4021 12.2113
L10.4021 12.5741
" />
<path d="M10.4021 12.5741
L10.3416 12.6951
" />
<path d="M10.3416 12.6951
L10.2811 12.7556
" />
<path d="M10.2811 12.7556
L10.1602 12.8160
" />
<path d="M10.1602 12.8160
L9.9183 12.8160
" />
<path d="M9.9183 12.8160
L9.7973 12.7556
" />
<path d="M10.8859 12.7556
L11.0068 12.8160
" />
<path d="M11.0068 12.8160
L11.2487 12.8160
" />
<path d="M11.2487 12.8160
L11.3697 12.7556
" />
<path d="M11.3697 12.7556
L11.4301 12.6346
" />
<path d="M11.4301 12.6346
L11.4301 12.5741
" />
<path d="M11.4301 12.5741
L11.3697 12.4532
" />
<path d="M11.3697 12.4532
L11.2487 12.3927
" />
<path d="M11.2487 12.3927
L11.0673 12.3927
" />
<path d="M11.0673 12.3927
L10.9463 12.3322
" />
<path d="M10.9463 12.3322
L10.8859 12.2113
" />
<path d="M10.8859 12.2113
L10.8859 12.1508
" />
<path d="M10.8859 12.1508
L10.9463 12.0298
" />
<path d="M10.9463 12.0298
L11.0673 11.9694
" />
<path d="M11.0673 11.9694
L11.2487 11.9694
" />
<path d="M11.2487 11.9694
L11.3697 12.0298
" />
<path d="M11.9744 12.6951
L12.0349 12.7556
" />
<path d="M12.0349 12.7556
L11.9744 12.8160
" />
<path d="M11.9744 12.8160
L11.9140 12.7556
" />
<path d="M11.9140 12.7556
L11.9744 12.6951
" />
<path d="M11.9744 12.6951
L11.9744 12.8160
" />
<path d="M11.9744 12.0298
L12.0349 12.0903
" />
<path d="M12.0349 12.0903
L11.9744 12.1508
" />
<path d="M11.9744 12.1508
L11.9140 12.0903
" />
<path d="M11.9140 12.0903
L11.9744 12.0298
" />
<path d="M11.9744 12.0298
L11.9744 12.1508
" />
<path d="M13.4864 11.4856
L12.3978 13.1184
" />
<path d="M14.8169 11.4856
L13.7283 13.1184
" />
<path d="M15.7845 12.8160
L15.7845 11.5460
" />
<path d="M15.7845 12.7556
L15.6636 12.8160
" />
<path d="M15.6636 12.8160
L15.4217 12.8160
" />
<path d="M15.4217 12.8160
L15.3007 12.7556
" />
<path d="M15.3007 12.7556
L15.2402 12.6951
" />
<path d="M15.2402 12.6951
L15.1798 12.5741
" />
<path d="M15.1798 12.5741
L15.1798 12.2113
" />
<path d="M15.1798 12.2113
L15.2402 12.0903
" />
<path d="M15.2402 12.0903
L15.3007 12.0298
" />
<path d="M15.3007 12.0298
L15.4217 11.9694
" />
<path d="M15.4217 11.9694
L15.6636 11.9694
" />
<path d="M15.6636 11.9694
L15.7845 12.0298
" />
<path d="M16.9335 12.8160
L16.9335 12.1508
" />
<path d="M16.9335 12.1508
L16.8730 12.0298
" />
<path d="M16.8730 12.0298
L16.7521 11.9694
" />
<path d="M16.7521 11.9694
L16.5102 11.9694
" />
<path d="M16.5102 11.9694
L16.3892 12.0298
" />
<path d="M16.9335 12.7556
L16.8126 12.8160
" />
<path d="M16.8126 12.8160
L16.5102 12.8160
" />
<path d="M16.5102 12.8160
L16.3892 12.7556
" />
<path d="M16.3892 12.7556
L16.3288 12.6346
" />
<path d="M16.3288 12.6346
L16.3288 12.5136
" />
<path d="M16.3288 12.5136
L16.3892 12.3927
" />
<path d="M16.3892 12.3927
L16.5102 12.3322
" />
<path d="M16.5102 12.3322
L16.8126 12.3322
" />
<path d="M16.8126 12.3322
L16.9335 12.2717
" />
<path d="M17.3568 11.9694
L17.8406 11.9694
" />
<path d="M17.5382 11.5460
L17.5382 12.6346
" />
<path d="M17.5382 12.6346
L17.5987 12.7556
" />
<path d="M17.5987 12.7556
L17.7197 12.8160
" />
<path d="M17.7197 12.8160
L17.8406 12.8160
" />
<path d="M18.8082 12.8160
L18.8082 12.1508
" />
<path d="M18.8082 12.1508
L18.7477 12.0298
" />
<path d="M18.7477 12.0298
L18.6268 11.9694
" />
<path d="M18.6268 11.9694
L18.3849 11.9694
" />
<path d="M18.3849 11.9694
L18.2639 12.0298
" />
<path d="M18.8082 12.7556
L18.6873 12.8160
" />
<path d="M18.6873 12.8160
L18.3849 12.8160
" />
<path d="M18.3849 12.8160
L18.2639 12.7556
" />
<path d="M18.2639 12.7556
L18.2035 12.6346
" />
<path d="M18.2035 12.6346
L18.2035 12.5136
" />
<path d="M18.2035 12.5136
L18.2639 12.3927
" />
<path d="M18.2639 12.3927
L18.3849 12.3322
" />
<path d="M18.3849 12.3322
L18.6873 12.3322
" />
<path d="M18.6873 12.3322
L18.8082 12.2717
" />
<path d="M19.3525 12.7556
L19.4734 12.8160
" />
<path d="M19.4734 12.8160
L19.7153 12.8160
" />
<path d="M19.7153 12.8160
L19.8363 12.7556
" />
<path d="M19.8363 12.7556
L19.8967 12.6346
" />
<path d="M19.8967 12.6346
L19.8967 12.5741
" />
<path d="M19.8967 12.5741
L19.8363 12.4532
" />
<path d="M19.8363 12.4532
L19.7153 12.3927
" />
<path d="M19.7153 12.3927
L19.5339 12.3927
" />
<path d="M19.5339 12.3927
L19.4129 12.3322
" />
<path d="M19.4129 12.3322
L19.3525 12.2113
" />
<path d="M19.3525 12.2113
L19.3525 12.1508
" />
<path d="M19.3525 12.1508
L19.4129 12.0298
" />
<path d="M19.4129 12.0298
L19.5339 11.9694
" />
<path d="M19.5339 11.9694
L19.7153 11.9694
" />
<path d="M19.7153 11.9694
L19.8363 12.0298
" />
<path d="M20.4410 12.8160
L20.4410 11.5460
" />
<path d="M20.9853 12.8160
L20.9853 12.1508
" />
<path d="M20.9853 12.1508
L20.9248 12.0298
" />
<path d="M20.9248 12.0298
L20.8039 11.9694
" />
<path d="M20.8039 11.9694
L20.6225 11.9694
" />
<path d="M20.6225 11.9694
L20.5015 12.0298
" />
<path d="M20.5015 12.0298
L20.4410 12.0903
" />
<path d="M22.0738 12.7556
L21.9529 12.8160
" />
<path d="M21.9529 12.8160
L21.7110 12.8160
" />
<path d="M21.7110 12.8160
L21.5900 12.7556
" />
<path d="M21.5900 12.7556
L21.5296 12.6346
" />
<path d="M21.5296 12.6346
L21.5296 12.1508
" />
<path d="M21.5296 12.1508
L21.5900 12.0298
" />
<path d="M21.5900 12.0298
L21.7110 11.9694
" />
<path d="M21.7110 11.9694
L21.9529 11.9694
" />
<path d="M21.9529 11.9694
L22.0738 12.0298
" />
<path d="M22.0738 12.0298
L22.1343 12.1508
" />
<path d="M22.1343 12.1508
L22.1343 12.2717
" />
<path d="M22.1343 12.2717
L21.5296 12.3927
" />
<path d="M23.1624 12.7556
L23.0415 12.8160
" />
<path d="M23.0415 12.8160
L22.7996 12.8160
" />
<path d="M22.7996 12.8160
L22.6786 12.7556
" />
<path d="M22.6786 12.7556
L22.6182 12.6346
" />
<path d="M22.6182 12.6346
L22.6182 12.1508
" />
<path d="M22.6182 12.1508
L22.6786 12.0298
" />
<path d="M22.6786 12.0298
L22.7996 11.9694
" />
<path d="M22.7996 11.9694
L23.0415 11.9694
" />
<path d="M23.0415 11.9694
L23.1624 12.0298
" />
<path d="M23.1624 12.0298
L23.2229 12.1508
" />
<path d="M23.2229 12.1508
L23.2229 12.2717
" />
<path d="M23.2229 12.2717
L22.6182 12.3927
" />
<path d="M23.5858 11.9694
L24.0696 11.9694
" />
<path d="M23.7672 11.5460
L23.7672 12.6346
" />
<path d="M23.7672 12.6346
L23.8277 12.7556
" />
<path d="M23.8277 12.7556
L23.9487 12.8160
" />
<path d="M23.9487 12.8160
L24.0696 12.8160
" />
<path d="M24.4325 12.7556
L24.5534 12.8160
" />
<path d="M24.5534 12.8160
L24.7953 12.8160
" />
<path d="M24.7953 12.8160
L24.9163 12.7556
" />
<path d="M24.9163 12.7556
L24.9767 12.6346
" />
<path d="M24.9767 12.6346
L24.9767 12.5741
" />
<path d="M24.9767 12.5741
L24.9163 12.4532
" />
<path d="M24.9163 12.4532
L24.7953 12.3927
" />
<path d="M24.7953 12.3927
L24.6139 12.3927
" />
<path d="M24.6139 12.3927
L24.4929 12.3322
" />
<path d="M24.4929 12.3322
L24.4325 12.2113
" />
<path d="M24.4325 12.2113
L24.4325 12.1508
" />
<path d="M24.4325 12.1508
L24.4929 12.0298
" />
<path d="M24.4929 12.0298
L24.6139 11.9694
" />
<path d="M24.6139 11.9694
L24.7953 11.9694
" />
<path d="M24.7953 11.9694
L24.9163 12.0298
" />
<path d="M25.5210 12.6951
L25.5815 12.7556
" />
<path d="M25.5815 12.7556
L25.5210 12.8160
" />
<path d="M25.5210 12.8160
L25.4606 12.7556
" />
<path d="M25.4606 12.7556
L25.5210 12.6951
" />
<path d="M25.5210 12.6951
L25.5210 12.8160
" />
<path d="M26.1258 12.8160
L26.1258 11.9694
" />
<path d="M26.1258 12.0903
L26.1863 12.0298
" />
<path d="M26.1863 12.0298
L26.3073 11.9694
" />
<path d="M26.3073 11.9694
L26.4887 11.9694
" />
<path d="M26.4887 11.9694
L26.6096 12.0298
" />
<path d="M26.6096 12.0298
L26.6701 12.1508
" />
<path d="M26.6701 12.1508
L26.6701 12.8160
" />
<path d="M26.6701 12.1508
L26.7306 12.0298
" />
<path d="M26.7306 12.0298
L26.8515 11.9694
" />
<path d="M26.8515 11.9694
L27.0330 11.9694
" />
<path d="M27.0330 11.9694
L27.1539 12.0298
" />
<path d="M27.1539 12.0298
L27.2144 12.1508
" />
<path d="M27.2144 12.1508
L27.2144 12.8160
" />
<path d="M28.3634 12.8160
L28.3634 12.1508
" />
<path d="M28.3634 12.1508
L28.3029 12.0298
" />
<path d="M28.3029 12.0298
L28.1820 11.9694
" />
<path d="M28.1820 11.9694
L27.9401 11.9694
" />
<path d="M27.9401 11.9694
L27.8191 12.0298
" />
<path d="M28.3634 12.7556
L28.2425 12.8160
" />
<path d="M28.2425 12.8160
L27.9401 12.8160
" />
<path d="M27.9401 12.8160
L27.8191 12.7556
" />
<path d="M27.8191 12.7556
L27.7587 12.6346
" />
<path d="M27.7587 12.6346
L27.7587 12.5136
" />
<path d="M27.7587 12.5136
L27.8191 12.3927
" />
<path d="M27.8191 12.3927
L27.9401 12.3322
" />
<path d="M27.9401 12.3322
L28.2425 12.3322
" />
<path d="M28.2425 12.3322
L28.3634 12.2717
" />
<path d="M28.8472 12.8160
L29.5124 11.9694
" />
<path d="M28.8472 11.9694
L29.5124 12.8160
" />
<path d="M29.9962 12.8160
L29.9962 11.9694
" />
<path d="M29.9962 11.5460
L29.9358 11.6065
" />
<path d="M29.9358 11.6065
L29.9962 11.6670
" />
<path d="M29.9962 11.6670
L30.0567 11.6065
" />
<path d="M30.0567 11.6065
L29.9962 11.5460
" />
<path d="M29.9962 11.5460
L29.9962 11.6670
" />
<path d="M30.6010 12.8160
L30.6010 11.9694
" />
<path d="M30.6010 12.0903
L30.6615 12.0298
" />
<path d="M30.6615 12.0298
L30.7825 11.9694
" />
<path d="M30.7825 11.9694
L30.9639 11.9694
" />
<path d="M30.9639 11.9694
L31.0848 12.0298
" />
<path d="M31.0848 12.0298
L31.1453 12.1508
" />
<path d="M31.1453 12.1508
L31.1453 12.8160
" />
<path d="M31.1453 12.1508
L31.2058 12.0298
" />
<path d="M31.2058 12.0298
L31.3267 11.9694
" />
<path d="M31.3267 11.9694
L31.5082 11.9694
" />
<path d="M31.5082 11.9694
L31.6291 12.0298
" />
<path d="M31.6291 12.0298
L31.6896 12.1508
" />
<path d="M31.6896 12.1508
L31.6896 12.8160
" />
<path d="M32.2943 12.8160
L32.2943 11.9694
" />
<path d="M32.2943 11.5460
L32.2339 11.6065
" />
<path d="M32.2339 11.6065
L32.2943 11.6670
" />
<path d="M32.2943 11.6670
L32.3548 11.6065
" />
<path d="M32.3548 11.6065
L32.2943 11.5460
" />
<path d="M32.2943 11.5460
L32.2943 11.6670
" />
<path d="M32.8991 11.9694
L32.8991 12.8160
" />
<path d="M32.8991 12.0903
L32.9596 12.0298
" />
<path d="M32.9596 12.0298
L33.0806 11.9694
" />
<path d="M33.0806 11.9694
L33.2620 11.9694
" />
<path d="M33.2620 11.9694
L33.3829 12.0298
" />
<path d="M33.3829 12.0298
L33.4434 12.1508
" />
<path d="M33.4434 12.1508
L33.4434 12.8160
" />
<path d="M33.8667 11.9694
L34.3505 11.9694
" />
<path d="M34.0481 11.5460
L34.0481 12.6346
" />
<path d="M34.0481 12.6346
L34.1086 12.7556
" />
<path d="M34.1086 12.7556
L34.2296 12.8160
" />
<path d="M34.2296 12.8160
L34.3505 12.8160
" />
<path d="M35.2576 12.7556
L35.1367 12.8160
" />
<path d="M35.1367 12.8160
L34.8948 12.8160
" />
<path d="M34.8948 12.8160
L34.7738 12.7556
" />
<path d="M34.7738 12.7556
L34.7134 12.6346
" />
<path d="M34.7134 12.6346
L34.7134 12.1508
" />
<path d="M34.7134 12.1508
L34.7738 12.0298
" />
<path d="M34.7738 12.0298
L34.8948 11.9694
" />
<path d="M34.8948 11.9694
L35.1367 11.9694
" />
<path d="M35.1367 11.9694
L35.2576 12.0298
" />
<path d="M35.2576 12.0298
L35.3181 12.1508
" />
<path d="M35.3181 12.1508
L35.3181 12.2717
" />
<path d="M35.3181 12.2717
L34.7134 12.3927
" />
<path d="M36.4067 11.9694
L36.4067 12.9975
" />
<path d="M36.4067 12.9975
L36.3462 13.1184
" />
<path d="M36.3462 13.1184
L36.2858 13.1789
" />
<path d="M36.2858 13.1789
L36.1648 13.2394
" />
<path d="M36.1648 13.2394
L35.9834 13.2394
" />
<path d="M35.9834 13.2394
L35.8624 13.1789
" />
<path d="M36.4067 12.7556
L36.2858 12.8160
" />
<path d="M36.2858 12.8160
L36.0439 12.8160
" />
<path d="M36.0439 12.8160
L35.9229 12.7556
" />
<path d="M35.9229 12.7556
L35.8624 12.6951
" />
<path d="M35.8624 12.6951
L35.8020 12.5741
" />
<path d="M35.8020 12.5741
L35.8020 12.2113
" />
<path d="M35.8020 12.2113
L35.8624 12.0903
" />
<path d="M35.8624 12.0903
L35.9229 12.0298
" />
<path d="M35.9229 12.0298
L36.0439 11.9694
" />
<path d="M36.0439 11.9694
L36.2858 11.9694
" />
<path d="M36.2858 11.9694
L36.4067 12.0298
" />
<path d="M37.0114 12.8160
L37.0114 11.9694
" />
<path d="M37.0114 12.2113
L37.0719 12.0903
" />
<path d="M37.0719 12.0903
L37.1324 12.0298
" />
<path d="M37.1324 12.0298
L37.2533 11.9694
" />
<path d="M37.2533 11.9694
L37.3743 11.9694
" />
<path d="M38.3419 12.8160
L38.3419 12.1508
" />
<path d="M38.3419 12.1508
L38.2814 12.0298
" />
<path d="M38.2814 12.0298
L38.1605 11.9694
" />
<path d="M38.1605 11.9694
L37.9186 11.9694
" />
<path d="M37.9186 11.9694
L37.7976 12.0298
" />
<path d="M38.3419 12.7556
L38.2210 12.8160
" />
<path d="M38.2210 12.8160
L37.9186 12.8160
" />
<path d="M37.9186 12.8160
L37.7976 12.7556
" />
<path d="M37.7976 12.7556
L37.7372 12.6346
" />
<path d="M37.7372 12.6346
L37.7372 12.5136
" />
<path d="M37.7372 12.5136
L37.7976 12.3927
" />
<path d="M37.7976 12.3927
L37.9186 12.3322
" />
<path d="M37.9186 12.3322
L38.2210 12.3322
" />
<path d="M38.2210 12.3322
L38.3419 12.2717
" />
<path d="M38.7652 11.9694
L39.2490 11.9694
" />
<path d="M38.9466 11.5460
L38.9466 12.6346
" />
<path d="M38.9466 12.6346
L39.0071 12.7556
" />
<path d="M39.0071 12.7556
L39.1281 12.8160
" />
<path d="M39.1281 12.8160
L39.2490 12.8160
" />
<path d="M40.1561 12.7556
L40.0352 12.8160
" />
<path d="M40.0352 12.8160
L39.7933 12.8160
" />
<path d="M39.7933 12.8160
L39.6723 12.7556
" />
<path d="M39.6723 12.7556
L39.6119 12.6346
" />
<path d="M39.6119 12.6346
L39.6119 12.1508
" />
<path d="M39.6119 12.1508
L39.6723 12.0298
" />
<path d="M39.6723 12.0298
L39.7933 11.9694
" />
<path d="M39.7933 11.9694
L40.0352 11.9694
" />
<path d="M40.0352 11.9694
L40.1561 12.0298
" />
<path d="M40.1561 12.0298
L40.2166 12.1508
" />
<path d="M40.2166 12.1508
L40.2166 12.2717
" />
<path d="M40.2166 12.2717
L39.6119 12.3927
" />
<path d="M41.3052 12.8160
L41.3052 11.5460
" />
<path d="M41.3052 12.7556
L41.1843 12.8160
" />
<path d="M41.1843 12.8160
L40.9424 12.8160
" />
<path d="M40.9424 12.8160
L40.8214 12.7556
" />
<path d="M40.8214 12.7556
L40.7609 12.6951
" />
<path d="M40.7609 12.6951
L40.7005 12.5741
" />
<path d="M40.7005 12.5741
L40.7005 12.2113
" />
<path d="M40.7005 12.2113
L40.7609 12.0903
" />
<path d="M40.7609 12.0903
L40.8214 12.0298
" />
<path d="M40.8214 12.0298
L40.9424 11.9694
" />
<path d="M40.9424 11.9694
L41.1843 11.9694
" />
<path d="M41.1843 11.9694
L41.3052 12.0298
" />
<path d="M41.9099 12.6951
L41.9704 12.7556
" />
<path d="M41.9704 12.7556
L41.9099 12.8160
" />
<path d="M41.9099 12.8160
L41.8495 12.7556
" />
<path d="M41.8495 12.7556
L41.9099 12.6951
" />
<path d="M41.9099 12.6951
L41.9099 12.8160
" />
<path d="M43.0590 12.7556
L42.9381 12.8160
" />
<path d="M42.9381 12.8160
L42.6962 12.8160
" />
<path d="M42.6962 12.8160
L42.5752 12.7556
" />
<path d="M42.5752 12.7556
L42.5147 12.6951
" />
<path d="M42.5147 12.6951
L42.4543 12.5741
" />
<path d="M42.4543 12.5741
L42.4543 12.2113
" />
<path d="M42.4543 12.2113
L42.5147 12.0903
" />
<path d="M42.5147 12.0903
L42.5752 12.0298
" />
<path d="M42.5752 12.0298
L42.6962 11.9694
" />
<path d="M42.6962 11.9694
L42.9381 11.9694
" />
<path d="M42.9381 11.9694
L43.0590 12.0298
" />
<path d="M43.7848 12.8160
L43.6638 12.7556
" />
<path d="M43.6638 12.7556
L43.6033 12.6951
" />
<path d="M43.6033 12.6951
L43.5429 12.5741
" />
<path d="M43.5429 12.5741
L43.5429 12.2113
" />
<path d="M43.5429 12.2113
L43.6033 12.0903
" />
<path d="M43.6033 12.0903
L43.6638 12.0298
" />
<path d="M43.6638 12.0298
L43.7848 11.9694
" />
<path d="M43.7848 11.9694
L43.9662 11.9694
" />
<path d="M43.9662 11.9694
L44.0871 12.0298
" />
<path d="M44.0871 12.0298
L44.1476 12.0903
" />
<path d="M44.1476 12.0903
L44.2081 12.2113
" />
<path d="M44.2081 12.2113
L44.2081 12.5741
" />
<path d="M44.2081 12.5741
L44.1476 12.6951
" />
<path d="M44.1476 12.6951
L44.0871 12.7556
" />
<path d="M44.0871 12.7556
L43.9662 12.8160
" />
<path d="M43.9662 12.8160
L43.7848 12.8160
" />
<path d="M44.7523 12.8160
L44.7523 11.9694
" />
<path d="M44.7523 12.0903
L44.8128 12.0298
" />
<path d="M44.8128 12.0298
L44.9338 11.9694
" />
<path d="M44.9338 11.9694
L45.1152 11.9694
" />
<path d="M45.1152 11.9694
L45.2361 12.0298
" />
<path d="M45.2361 12.0298
L45.2966 12.1508
" />
<path d="M45.2966 12.1508
L45.2966 12.8160
" />
<path d="M45.2966 12.1508
L45.3571 12.0298
" />
<path d="M45.3571 12.0298
L45.4780 11.9694
" />
<path d="M45.4780 11.9694
L45.6595 11.9694
" />
<path d="M45.6595 11.9694
L45.7804 12.0298
" />
<path d="M45.7804 12.0298
L45.8409 12.1508
" />
<path d="M45.8409 12.1508
L45.8409 12.8160
" />
<path d="M47.3528 11.4856
L46.2642 13.1184
" />
<path d="M48.2599 12.7556
L48.1390 12.8160
" />
<path d="M48.1390 12.8160
L47.8971 12.8160
" />
<path d="M47.8971 12.8160
L47.7761 12.7556
" />
<path d="M47.7761 12.7556
L47.7157 12.6346
" />
<path d="M47.7157 12.6346
L47.7157 12.1508
" />
<path d="M47.7157 12.1508
L47.7761 12.0298
" />
<path d="M47.7761 12.0298
L47.8971 11.9694
" />
<path d="M47.8971 11.9694
L48.1390 11.9694
" />
<path d="M48.1390 11.9694
L48.2599 12.0298
" />
<path d="M48.2599 12.0298
L48.3204 12.1508
" />
<path d="M48.3204 12.1508
L48.3204 12.2717
" />
<path d="M48.3204 12.2717
L47.7157 12.3927
" />
<path d="M48.8647 11.9694
L48.8647 12.8160
" />
<path d="M48.8647 12.0903
L48.9252 12.0298
" />
<path d="M48.9252 12.0298
L49.0462 11.9694
" />
<path d="M49.0462 11.9694
L49.2276 11.9694
" />
<path d="M49.2276 11.9694
L49.3485 12.0298
" />
<path d="M49.3485 12.0298
L49.4090 12.1508
" />
<path d="M49.4090 12.1508
L49.4090 12.8160
" />
<path d="M50.9209 11.4856
L49.8323 13.1184
" />
<path d="M51.8885 12.8160
L51.8885 11.5460
" />
<path d="M51.8885 12.7556
L51.7676 12.8160
" />
<path d="M51.7676 12.8160
L51.5257 12.8160
" />
<path d="M51.5257 12.8160
L51.4047 12.7556
" />
<path d="M51.4047 12.7556
L51.3442 12.6951
" />
<path d="M51.3442 12.6951
L51.2838 12.5741
" />
<path d="M51.2838 12.5741
L51.2838 12.2113
" />
<path d="M51.2838 12.2113
L51.3442 12.0903
" />
<path d="M51.3442 12.0903
L51.4047 12.0298
" />
<path d="M51.4047 12.0298
L51.5257 11.9694
" />
<path d="M51.5257 11.9694
L51.7676 11.9694
" />
<path d="M51.7676 11.9694
L51.8885 12.0298
" />
<path d="M52.4328 12.7556
L52.5537 12.8160
" />
<path d="M52.5537 12.8160
L52.7956 12.8160
" />
<path d="M52.7956 12.8160
L52.9166 12.7556
" />
<path d="M52.9166 12.7556
L52.9770 12.6346
" />
<path d="M52.9770 12.6346
L52.9770 12.5741
" />
<path d="M52.9770 12.5741
L52.9166 12.4532
" />
<path d="M52.9166 12.4532
L52.7956 12.3927
" />
<path d="M52.7956 12.3927
L52.6142 12.3927
" />
<path d="M52.6142 12.3927
L52.4932 12.3322
" />
<path d="M52.4932 12.3322
L52.4328 12.2113
" />
<path d="M52.4328 12.2113
L52.4328 12.1508
" />
<path d="M52.4328 12.1508
L52.4932 12.0298
" />
<path d="M52.4932 12.0298
L52.6142 11.9694
" />
<path d="M52.6142 11.9694
L52.7956 11.9694
" />
<path d="M52.7956 11.9694
L52.9166 12.0298
" />
<path d="M54.4285 11.4856
L53.3399 13.1184
" />
<path d="M54.8518 12.8160
L54.8518 11.5460
" />
<path d="M54.8518 11.5460
L55.2752 12.4532
" />
<path d="M55.2752 12.4532
L55.6985 11.5460
" />
<path d="M55.6985 11.5460
L55.6985 12.8160
" />
<path d="M56.2428 12.4532
L56.8475 12.4532
" />
<path d="M56.1218 12.8160
L56.5451 11.5460
" />
<path d="M56.5451 11.5460
L56.9685 12.8160
" />
<path d="M57.2709 11.5460
L58.1175 12.8160
" />
<path d="M58.1175 11.5460
L57.2709 12.8160
" />
<path d="M58.4804 11.5460
L59.2666 11.5460
" />
<path d="M59.2666 11.5460
L58.8432 12.0298
" />
<path d="M58.8432 12.0298
L59.0247 12.0298
" />
<path d="M59.0247 12.0298
L59.1456 12.0903
" />
<path d="M59.1456 12.0903
L59.2061 12.1508
" />
<path d="M59.2061 12.1508
L59.2666 12.2717
" />
<path d="M59.2666 12.2717
L59.2666 12.5741
" />
<path d="M59.2666 12.5741
L59.2061 12.6951
" />
<path d="M59.2061 12.6951
L59.1456 12.7556
" />
<path d="M59.1456 12.7556
L59.0247 12.8160
" />
<path d="M59.0247 12.8160
L58.6618 12.8160
" />
<path d="M58.6618 12.8160
L58.5409 12.7556
" />
<path d="M58.5409 12.7556
L58.4804 12.6951
" />
<path d="M60.4761 12.8160
L59.7504 12.8160
" />
<path d="M60.1132 12.8160
L60.1132 11.5460
" />
<path d="M60.1132 11.5460
L59.9923 11.7275
" />
<path d="M59.9923 11.7275
L59.8713 11.8484
" />
<path d="M59.8713 11.8484
L59.7504 11.9089
" />
<path d="M60.8994 11.5460
L61.7460 11.5460
" />
<path d="M61.7460 11.5460
L61.2018 12.8160
" />
<path d="M62.2298 12.3322
L63.1975 12.3322
" />
<path d="M63.8022 12.8160
L63.8022 11.5460
" />
<path d="M63.8022 11.5460
L64.2256 12.4532
" />
<path d="M64.2256 12.4532
L64.6489 11.5460
" />
<path d="M64.6489 11.5460
L64.6489 12.8160
" />
<path d="M65.1932 12.4532
L65.7979 12.4532
" />
<path d="M65.0722 12.8160
L65.4955 11.5460
" />
<path d="M65.4955 11.5460
L65.9189 12.8160
" />
<path d="M66.2213 11.5460
L67.0679 12.8160
" />
<path d="M67.0679 11.5460
L66.2213 12.8160
" />
<path d="M67.4308 11.5460
L68.2170 11.5460
" />
<path d="M68.2170 11.5460
L67.7936 12.0298
" />
<path d="M67.7936 12.0298
L67.9751 12.0298
" />
<path d="M67.9751 12.0298
L68.0960 12.0903
" />
<path d="M68.0960 12.0903
L68.1565 12.1508
" />
<path d="M68.1565 12.1508
L68.2170 12.2717
" />
<path d="M68.2170 12.2717
L68.2170 12.5741
" />
<path d="M68.2170 12.5741
L68.1565 12.6951
" />
<path d="M68.1565 12.6951
L68.0960 12.7556
" />
<path d="M68.0960 12.7556
L67.9751 12.8160
" />
<path d="M67.9751 12.8160
L67.6122 12.8160
" />
<path d="M67.6122 12.8160
L67.4913 12.7556
" />
<path d="M67.4913 12.7556
L67.4308 12.6951
" />
<path d="M69.4265 12.8160
L68.7008 12.8160
" />
<path d="M69.0636 12.8160
L69.0636 11.5460
" />
<path d="M69.0636 11.5460
L68.9427 11.7275
" />
<path d="M68.9427 11.7275
L68.8217 11.8484
" />
<path d="M68.8217 11.8484
L68.7008 11.9089
" />
<path d="M70.0312 12.8160
L70.2731 12.8160
" />
<path d="M70.2731 12.8160
L70.3941 12.7556
" />
<path d="M70.3941 12.7556
L70.4545 12.6951
" />
<path d="M70.4545 12.6951
L70.5755 12.5136
" />
<path d="M70.5755 12.5136
L70.6360 12.2717
" />
<path d="M70.6360 12.2717
L70.6360 11.7879
" />
<path d="M70.6360 11.7879
L70.5755 11.6670
" />
<path d="M70.5755 11.6670
L70.5150 11.6065
" />
<path d="M70.5150 11.6065
L70.3941 11.5460
" />
<path d="M70.3941 11.5460
L70.1522 11.5460
" />
<path d="M70.1522 11.5460
L70.0312 11.6065
" />
<path d="M70.0312 11.6065
L69.9707 11.6670
" />
<path d="M69.9707 11.6670
L69.9103 11.7879
" />
<path d="M69.9103 11.7879
L69.9103 12.0903
" />
<path d="M69.9103 12.0903
L69.9707 12.2113
" />
<path d="M69.9707 12.2113
L70.0312 12.2717
" />
<path d="M70.0312 12.2717
L70.1522 12.3322
" />
<path d="M70.1522 12.3322
L70.3941 12.3322
" />
<path d="M70.3941 12.3322
L70.5150 12.2717
" />
<path d="M70.5150 12.2717
L70.5755 12.2113
" />
<path d="M70.5755 12.2113
L70.6360 12.0903
" />
<path d="M71.1802 12.6951
L71.2407 12.7556
" />
<path d="M71.2407 12.7556
L71.1802 12.8160
" />
<path d="M71.1802 12.8160
L71.1198 12.7556
" />
<path d="M71.1198 12.7556
L71.1802 12.6951
" />
<path d="M71.1802 12.6951
L71.1802 12.8160
" />
<path d="M71.7850 11.9694
L71.7850 13.2394
" />
<path d="M71.7850 12.0298
L71.9060 11.9694
" />
<path d="M71.9060 11.9694
L72.1479 11.9694
" />
<path d="M72.1479 11.9694
L72.2688 12.0298
" />
<path d="M72.2688 12.0298
L72.3293 12.0903
" />
<path d="M72.3293 12.0903
L72.3898 12.2113
" />
<path d="M72.3898 12.2113
L72.3898 12.5741
" />
<path d="M72.3898 12.5741
L72.3293 12.6951
" />
<path d="M72.3293 12.6951
L72.2688 12.7556
" />
<path d="M72.2688 12.7556
L72.1479 12.8160
" />
<path d="M72.1479 12.8160
L71.9060 12.8160
" />
<path d="M71.9060 12.8160
L71.7850 12.7556
" />
<path d="M73.4783 12.8160
L73.4783 11.5460
" />
<path d="M73.4783 12.7556
L73.3574 12.8160
" />
<path d="M73.3574 12.8160
L73.1155 12.8160
" />
<path d="M73.1155 12.8160
L72.9945 12.7556
" />
<path d="M72.9945 12.7556
L72.9340 12.6951
" />
<path d="M72.9340 12.6951
L72.8736 12.5741
" />
<path d="M72.8736 12.5741
L72.8736 12.2113
" />
<path d="M72.8736 12.2113
L72.9340 12.0903
" />
<path d="M72.9340 12.0903
L72.9945 12.0298
" />
<path d="M72.9945 12.0298
L73.1155 11.9694
" />
<path d="M73.1155 11.9694
L73.3574 11.9694
" />
<path d="M73.3574 11.9694
L73.4783 12.0298
" />
<path d="M73.9016 11.9694
L74.3854 11.9694
" />
<path d="M74.0830 12.8160
L74.0830 11.7275
" />
<path d="M74.0830 11.7275
L74.1435 11.6065
" />
<path d="M74.1435 11.6065
L74.2645 11.5460
" />
<path d="M74.2645 11.5460
L74.3854 11.5460
" />
</g></g> 
</svg>
