<?xml version="1.0" standalone="no"?>
 <!DOCTYPE svg PUBLIC "-//W3C//DTD SVG 1.1//EN" 
 "http://www.w3.org/Graphics/SVG/1.1/DTD/svg11.dtd"> 
<svg
  xmlns:svg="http://www.w3.org/2000/svg"
  xmlns="http://www.w3.org/2000/svg"
  xmlns:xlink="http://www.w3.org/1999/xlink"
  version="1.1"
  width="75.6666mm" height="23.7998mm" viewBox="0.0000 0.0000 75.6666 23.7998">
<title>SVG Image created as working.svg date 2023/08/27 22:35:11 </title>
  <desc>Image generated by Eeschema-SVG </desc>
<g style="fill:#000000; fill-opacity:1.0000;stroke:#000000; stroke-opacity:1.0000;
stroke-linecap:round; stroke-linejoin:round;"
 transform="translate(0 0) scale(1 1)">
</g>
<g style="fill:#840000; fill-opacity:0.0; 
stroke:#840000; stroke-width:0.0000; stroke-opacity:1; 
stroke-linecap:round; stroke-linejoin:round;">
</g>
<g style="fill:#840084; fill-opacity:0.0; 
stroke:#840084; stroke-width:0.0000; stroke-opacity:1; 
stroke-linecap:round; stroke-linejoin:round;">
</g>
<g style="fill:#840000; fill-opacity:0.0; 
stroke:#840000; stroke-width:0.0000; stroke-opacity:1; 
stroke-linecap:round; stroke-linejoin:round;">
</g>
<g style="fill:#840084; fill-opacity:0.0; 
stroke:#840084; stroke-width:0.0000; stroke-opacity:1; 
stroke-linecap:round; stroke-linejoin:round;">
</g>
<g style="fill:#006464; fill-opacity:0.0; 
stroke:#006464; stroke-width:0.0000; stroke-opacity:1; 
stroke-linecap:round; stroke-linejoin:round;">
</g>
<g style="fill:#006464; fill-opacity:0.0; 
stroke:#006464; stroke-width:0.1588; stroke-opacity:1; 
stroke-linecap:round; stroke-linejoin:round;">
<text x="46.7747" y="3.6389"
textLength="2.6415" font-size="1.6933" lengthAdjust="spacingAndGlyphs"
text-anchor="middle" opacity="0">U?</text>
<g class="stroked-text"><desc>U?</desc>
<path d="M45.8675 2.3131
L45.8675 3.3412
" />
<path d="M45.8675 3.3412
L45.9280 3.4622
" />
<path d="M45.9280 3.4622
L45.9885 3.5227
" />
<path d="M45.9885 3.5227
L46.1094 3.5831
" />
<path d="M46.1094 3.5831
L46.3513 3.5831
" />
<path d="M46.3513 3.5831
L46.4723 3.5227
" />
<path d="M46.4723 3.5227
L46.5328 3.4622
" />
<path d="M46.5328 3.4622
L46.5932 3.3412
" />
<path d="M46.5932 3.3412
L46.5932 2.3131
" />
<path d="M47.3795 3.4622
L47.4399 3.5227
" />
<path d="M47.4399 3.5227
L47.3795 3.5831
" />
<path d="M47.3795 3.5831
L47.3190 3.5227
" />
<path d="M47.3190 3.5227
L47.3795 3.4622
" />
<path d="M47.3795 3.4622
L47.3795 3.5831
" />
<path d="M47.1376 2.3736
L47.2585 2.3131
" />
<path d="M47.2585 2.3131
L47.5609 2.3131
" />
<path d="M47.5609 2.3131
L47.6818 2.3736
" />
<path d="M47.6818 2.3736
L47.7423 2.4946
" />
<path d="M47.7423 2.4946
L47.7423 2.6155
" />
<path d="M47.7423 2.6155
L47.6818 2.7365
" />
<path d="M47.6818 2.7365
L47.6214 2.7969
" />
<path d="M47.6214 2.7969
L47.5004 2.8574
" />
<path d="M47.5004 2.8574
L47.4399 2.9179
" />
<path d="M47.4399 2.9179
L47.3795 3.0388
" />
<path d="M47.3795 3.0388
L47.3795 3.0993
" />
</g><text x="51.3406" y="21.4189"
textLength="14.3132" font-size="1.6933" lengthAdjust="spacingAndGlyphs"
text-anchor="middle" opacity="0">MCP101-485D</text>
<g class="stroked-text"><desc>MCP101-485D</desc>
<path d="M44.5975 21.3631
L44.5975 20.0931
" />
<path d="M44.5975 20.0931
L45.0209 21.0003
" />
<path d="M45.0209 21.0003
L45.4442 20.0931
" />
<path d="M45.4442 20.0931
L45.4442 21.3631
" />
<path d="M46.7746 21.2422
L46.7142 21.3027
" />
<path d="M46.7142 21.3027
L46.5327 21.3631
" />
<path d="M46.5327 21.3631
L46.4118 21.3631
" />
<path d="M46.4118 21.3631
L46.2304 21.3027
" />
<path d="M46.2304 21.3027
L46.1094 21.1817
" />
<path d="M46.1094 21.1817
L46.0489 21.0607
" />
<path d="M46.0489 21.0607
L45.9885 20.8188
" />
<path d="M45.9885 20.8188
L45.9885 20.6374
" />
<path d="M45.9885 20.6374
L46.0489 20.3955
" />
<path d="M46.0489 20.3955
L46.1094 20.2746
" />
<path d="M46.1094 20.2746
L46.2304 20.1536
" />
<path d="M46.2304 20.1536
L46.4118 20.0931
" />
<path d="M46.4118 20.0931
L46.5327 20.0931
" />
<path d="M46.5327 20.0931
L46.7142 20.1536
" />
<path d="M46.7142 20.1536
L46.7746 20.2141
" />
<path d="M47.3189 21.3631
L47.3189 20.0931
" />
<path d="M47.3189 20.0931
L47.8027 20.0931
" />
<path d="M47.8027 20.0931
L47.9237 20.1536
" />
<path d="M47.9237 20.1536
L47.9842 20.2141
" />
<path d="M47.9842 20.2141
L48.0446 20.3350
" />
<path d="M48.0446 20.3350
L48.0446 20.5165
" />
<path d="M48.0446 20.5165
L47.9842 20.6374
" />
<path d="M47.9842 20.6374
L47.9237 20.6979
" />
<path d="M47.9237 20.6979
L47.8027 20.7584
" />
<path d="M47.8027 20.7584
L47.3189 20.7584
" />
<path d="M49.2542 21.3631
L48.5285 21.3631
" />
<path d="M48.8913 21.3631
L48.8913 20.0931
" />
<path d="M48.8913 20.0931
L48.7704 20.2746
" />
<path d="M48.7704 20.2746
L48.6494 20.3955
" />
<path d="M48.6494 20.3955
L48.5285 20.4560
" />
<path d="M50.0403 20.0931
L50.1613 20.0931
" />
<path d="M50.1613 20.0931
L50.2822 20.1536
" />
<path d="M50.2822 20.1536
L50.3427 20.2141
" />
<path d="M50.3427 20.2141
L50.4032 20.3350
" />
<path d="M50.4032 20.3350
L50.4637 20.5769
" />
<path d="M50.4637 20.5769
L50.4637 20.8793
" />
<path d="M50.4637 20.8793
L50.4032 21.1212
" />
<path d="M50.4032 21.1212
L50.3427 21.2422
" />
<path d="M50.3427 21.2422
L50.2822 21.3027
" />
<path d="M50.2822 21.3027
L50.1613 21.3631
" />
<path d="M50.1613 21.3631
L50.0403 21.3631
" />
<path d="M50.0403 21.3631
L49.9194 21.3027
" />
<path d="M49.9194 21.3027
L49.8589 21.2422
" />
<path d="M49.8589 21.2422
L49.7984 21.1212
" />
<path d="M49.7984 21.1212
L49.7380 20.8793
" />
<path d="M49.7380 20.8793
L49.7380 20.5769
" />
<path d="M49.7380 20.5769
L49.7984 20.3350
" />
<path d="M49.7984 20.3350
L49.8589 20.2141
" />
<path d="M49.8589 20.2141
L49.9194 20.1536
" />
<path d="M49.9194 20.1536
L50.0403 20.0931
" />
<path d="M51.6732 21.3631
L50.9475 21.3631
" />
<path d="M51.3103 21.3631
L51.3103 20.0931
" />
<path d="M51.3103 20.0931
L51.1894 20.2746
" />
<path d="M51.1894 20.2746
L51.0684 20.3955
" />
<path d="M51.0684 20.3955
L50.9475 20.4560
" />
<path d="M52.2174 20.8793
L53.1851 20.8793
" />
<path d="M54.3341 20.5165
L54.3341 21.3631
" />
<path d="M54.0317 20.0327
L53.7294 20.9398
" />
<path d="M53.7294 20.9398
L54.5155 20.9398
" />
<path d="M55.1808 20.6374
L55.0598 20.5769
" />
<path d="M55.0598 20.5769
L54.9993 20.5165
" />
<path d="M54.9993 20.5165
L54.9389 20.3955
" />
<path d="M54.9389 20.3955
L54.9389 20.3350
" />
<path d="M54.9389 20.3350
L54.9993 20.2141
" />
<path d="M54.9993 20.2141
L55.0598 20.1536
" />
<path d="M55.0598 20.1536
L55.1808 20.0931
" />
<path d="M55.1808 20.0931
L55.4227 20.0931
" />
<path d="M55.4227 20.0931
L55.5436 20.1536
" />
<path d="M55.5436 20.1536
L55.6041 20.2141
" />
<path d="M55.6041 20.2141
L55.6646 20.3350
" />
<path d="M55.6646 20.3350
L55.6646 20.3955
" />
<path d="M55.6646 20.3955
L55.6041 20.5165
" />
<path d="M55.6041 20.5165
L55.5436 20.5769
" />
<path d="M55.5436 20.5769
L55.4227 20.6374
" />
<path d="M55.4227 20.6374
L55.1808 20.6374
" />
<path d="M55.1808 20.6374
L55.0598 20.6979
" />
<path d="M55.0598 20.6979
L54.9993 20.7584
" />
<path d="M54.9993 20.7584
L54.9389 20.8793
" />
<path d="M54.9389 20.8793
L54.9389 21.1212
" />
<path d="M54.9389 21.1212
L54.9993 21.2422
" />
<path d="M54.9993 21.2422
L55.0598 21.3027
" />
<path d="M55.0598 21.3027
L55.1808 21.3631
" />
<path d="M55.1808 21.3631
L55.4227 21.3631
" />
<path d="M55.4227 21.3631
L55.5436 21.3027
" />
<path d="M55.5436 21.3027
L55.6041 21.2422
" />
<path d="M55.6041 21.2422
L55.6646 21.1212
" />
<path d="M55.6646 21.1212
L55.6646 20.8793
" />
<path d="M55.6646 20.8793
L55.6041 20.7584
" />
<path d="M55.6041 20.7584
L55.5436 20.6979
" />
<path d="M55.5436 20.6979
L55.4227 20.6374
" />
<path d="M56.8136 20.0931
L56.2088 20.0931
" />
<path d="M56.2088 20.0931
L56.1484 20.6979
" />
<path d="M56.1484 20.6979
L56.2088 20.6374
" />
<path d="M56.2088 20.6374
L56.3298 20.5769
" />
<path d="M56.3298 20.5769
L56.6322 20.5769
" />
<path d="M56.6322 20.5769
L56.7531 20.6374
" />
<path d="M56.7531 20.6374
L56.8136 20.6979
" />
<path d="M56.8136 20.6979
L56.8741 20.8188
" />
<path d="M56.8741 20.8188
L56.8741 21.1212
" />
<path d="M56.8741 21.1212
L56.8136 21.2422
" />
<path d="M56.8136 21.2422
L56.7531 21.3027
" />
<path d="M56.7531 21.3027
L56.6322 21.3631
" />
<path d="M56.6322 21.3631
L56.3298 21.3631
" />
<path d="M56.3298 21.3631
L56.2088 21.3027
" />
<path d="M56.2088 21.3027
L56.1484 21.2422
" />
<path d="M57.4183 21.3631
L57.4183 20.0931
" />
<path d="M57.4183 20.0931
L57.7207 20.0931
" />
<path d="M57.7207 20.0931
L57.9021 20.1536
" />
<path d="M57.9021 20.1536
L58.0231 20.2746
" />
<path d="M58.0231 20.2746
L58.0836 20.3955
" />
<path d="M58.0836 20.3955
L58.1440 20.6374
" />
<path d="M58.1440 20.6374
L58.1440 20.8188
" />
<path d="M58.1440 20.8188
L58.0836 21.0607
" />
<path d="M58.0836 21.0607
L58.0231 21.1817
" />
<path d="M58.0231 21.1817
L57.9021 21.3027
" />
<path d="M57.9021 21.3027
L57.7207 21.3631
" />
<path d="M57.7207 21.3631
L57.4183 21.3631
" />
</g></g>
<g style="fill:#840084; fill-opacity:0.0; 
stroke:#840084; stroke-width:0.1588; stroke-opacity:1; 
stroke-linecap:round; stroke-linejoin:round;">
<text x="37.8340" y="6.1789"
textLength="63.0568" font-size="1.6933" lengthAdjust="spacingAndGlyphs"
text-anchor="middle" opacity="0">http://ww1.microchip.com/downloads/en/DeviceDoc/11187f.pdf</text>
<g class="stroked-text"><desc>http://ww1.microchip.com/downloads/en/DeviceDoc/11187f.pdf</desc>
<path d="M6.7191 6.1231
L6.7191 4.8531
" />
<path d="M7.2634 6.1231
L7.2634 5.4579
" />
<path d="M7.2634 5.4579
L7.2029 5.3369
" />
<path d="M7.2029 5.3369
L7.0820 5.2765
" />
<path d="M7.0820 5.2765
L6.9006 5.2765
" />
<path d="M6.9006 5.2765
L6.7796 5.3369
" />
<path d="M6.7796 5.3369
L6.7191 5.3974
" />
<path d="M7.6867 5.2765
L8.1705 5.2765
" />
<path d="M7.8681 4.8531
L7.8681 5.9417
" />
<path d="M7.8681 5.9417
L7.9286 6.0627
" />
<path d="M7.9286 6.0627
L8.0496 6.1231
" />
<path d="M8.0496 6.1231
L8.1705 6.1231
" />
<path d="M8.4124 5.2765
L8.8962 5.2765
" />
<path d="M8.5938 4.8531
L8.5938 5.9417
" />
<path d="M8.5938 5.9417
L8.6543 6.0627
" />
<path d="M8.6543 6.0627
L8.7753 6.1231
" />
<path d="M8.7753 6.1231
L8.8962 6.1231
" />
<path d="M9.3195 5.2765
L9.3195 6.5465
" />
<path d="M9.3195 5.3369
L9.4405 5.2765
" />
<path d="M9.4405 5.2765
L9.6824 5.2765
" />
<path d="M9.6824 5.2765
L9.8033 5.3369
" />
<path d="M9.8033 5.3369
L9.8638 5.3974
" />
<path d="M9.8638 5.3974
L9.9243 5.5184
" />
<path d="M9.9243 5.5184
L9.9243 5.8812
" />
<path d="M9.9243 5.8812
L9.8638 6.0022
" />
<path d="M9.8638 6.0022
L9.8033 6.0627
" />
<path d="M9.8033 6.0627
L9.6824 6.1231
" />
<path d="M9.6824 6.1231
L9.4405 6.1231
" />
<path d="M9.4405 6.1231
L9.3195 6.0627
" />
<path d="M10.4685 6.0022
L10.5290 6.0627
" />
<path d="M10.5290 6.0627
L10.4685 6.1231
" />
<path d="M10.4685 6.1231
L10.4081 6.0627
" />
<path d="M10.4081 6.0627
L10.4685 6.0022
" />
<path d="M10.4685 6.0022
L10.4685 6.1231
" />
<path d="M10.4685 5.3369
L10.5290 5.3974
" />
<path d="M10.5290 5.3974
L10.4685 5.4579
" />
<path d="M10.4685 5.4579
L10.4081 5.3974
" />
<path d="M10.4081 5.3974
L10.4685 5.3369
" />
<path d="M10.4685 5.3369
L10.4685 5.4579
" />
<path d="M11.9805 4.7927
L10.8919 6.4255
" />
<path d="M13.3110 4.7927
L12.2224 6.4255
" />
<path d="M13.6134 5.2765
L13.8553 6.1231
" />
<path d="M13.8553 6.1231
L14.0972 5.5184
" />
<path d="M14.0972 5.5184
L14.3391 6.1231
" />
<path d="M14.3391 6.1231
L14.5810 5.2765
" />
<path d="M14.9439 5.2765
L15.1858 6.1231
" />
<path d="M15.1858 6.1231
L15.4277 5.5184
" />
<path d="M15.4277 5.5184
L15.6696 6.1231
" />
<path d="M15.6696 6.1231
L15.9115 5.2765
" />
<path d="M17.0606 6.1231
L16.3349 6.1231
" />
<path d="M16.6977 6.1231
L16.6977 4.8531
" />
<path d="M16.6977 4.8531
L16.5768 5.0346
" />
<path d="M16.5768 5.0346
L16.4558 5.1555
" />
<path d="M16.4558 5.1555
L16.3349 5.2160
" />
<path d="M17.6048 6.0022
L17.6653 6.0627
" />
<path d="M17.6653 6.0627
L17.6048 6.1231
" />
<path d="M17.6048 6.1231
L17.5444 6.0627
" />
<path d="M17.5444 6.0627
L17.6048 6.0022
" />
<path d="M17.6048 6.0022
L17.6048 6.1231
" />
<path d="M18.2096 6.1231
L18.2096 5.2765
" />
<path d="M18.2096 5.3974
L18.2701 5.3369
" />
<path d="M18.2701 5.3369
L18.3911 5.2765
" />
<path d="M18.3911 5.2765
L18.5725 5.2765
" />
<path d="M18.5725 5.2765
L18.6934 5.3369
" />
<path d="M18.6934 5.3369
L18.7539 5.4579
" />
<path d="M18.7539 5.4579
L18.7539 6.1231
" />
<path d="M18.7539 5.4579
L18.8144 5.3369
" />
<path d="M18.8144 5.3369
L18.9353 5.2765
" />
<path d="M18.9353 5.2765
L19.1168 5.2765
" />
<path d="M19.1168 5.2765
L19.2377 5.3369
" />
<path d="M19.2377 5.3369
L19.2982 5.4579
" />
<path d="M19.2982 5.4579
L19.2982 6.1231
" />
<path d="M19.9029 6.1231
L19.9029 5.2765
" />
<path d="M19.9029 4.8531
L19.8425 4.9136
" />
<path d="M19.8425 4.9136
L19.9029 4.9741
" />
<path d="M19.9029 4.9741
L19.9634 4.9136
" />
<path d="M19.9634 4.9136
L19.9029 4.8531
" />
<path d="M19.9029 4.8531
L19.9029 4.9741
" />
<path d="M21.0520 6.0627
L20.9311 6.1231
" />
<path d="M20.9311 6.1231
L20.6892 6.1231
" />
<path d="M20.6892 6.1231
L20.5682 6.0627
" />
<path d="M20.5682 6.0627
L20.5077 6.0022
" />
<path d="M20.5077 6.0022
L20.4473 5.8812
" />
<path d="M20.4473 5.8812
L20.4473 5.5184
" />
<path d="M20.4473 5.5184
L20.5077 5.3974
" />
<path d="M20.5077 5.3974
L20.5682 5.3369
" />
<path d="M20.5682 5.3369
L20.6892 5.2765
" />
<path d="M20.6892 5.2765
L20.9311 5.2765
" />
<path d="M20.9311 5.2765
L21.0520 5.3369
" />
<path d="M21.5963 6.1231
L21.5963 5.2765
" />
<path d="M21.5963 5.5184
L21.6568 5.3974
" />
<path d="M21.6568 5.3974
L21.7173 5.3369
" />
<path d="M21.7173 5.3369
L21.8382 5.2765
" />
<path d="M21.8382 5.2765
L21.9592 5.2765
" />
<path d="M22.5640 6.1231
L22.4430 6.0627
" />
<path d="M22.4430 6.0627
L22.3825 6.0022
" />
<path d="M22.3825 6.0022
L22.3221 5.8812
" />
<path d="M22.3221 5.8812
L22.3221 5.5184
" />
<path d="M22.3221 5.5184
L22.3825 5.3974
" />
<path d="M22.3825 5.3974
L22.4430 5.3369
" />
<path d="M22.4430 5.3369
L22.5640 5.2765
" />
<path d="M22.5640 5.2765
L22.7454 5.2765
" />
<path d="M22.7454 5.2765
L22.8663 5.3369
" />
<path d="M22.8663 5.3369
L22.9268 5.3974
" />
<path d="M22.9268 5.3974
L22.9873 5.5184
" />
<path d="M22.9873 5.5184
L22.9873 5.8812
" />
<path d="M22.9873 5.8812
L22.9268 6.0022
" />
<path d="M22.9268 6.0022
L22.8663 6.0627
" />
<path d="M22.8663 6.0627
L22.7454 6.1231
" />
<path d="M22.7454 6.1231
L22.5640 6.1231
" />
<path d="M24.0758 6.0627
L23.9549 6.1231
" />
<path d="M23.9549 6.1231
L23.7130 6.1231
" />
<path d="M23.7130 6.1231
L23.5920 6.0627
" />
<path d="M23.5920 6.0627
L23.5315 6.0022
" />
<path d="M23.5315 6.0022
L23.4711 5.8812
" />
<path d="M23.4711 5.8812
L23.4711 5.5184
" />
<path d="M23.4711 5.5184
L23.5315 5.3974
" />
<path d="M23.5315 5.3974
L23.5920 5.3369
" />
<path d="M23.5920 5.3369
L23.7130 5.2765
" />
<path d="M23.7130 5.2765
L23.9549 5.2765
" />
<path d="M23.9549 5.2765
L24.0758 5.3369
" />
<path d="M24.6201 6.1231
L24.6201 4.8531
" />
<path d="M25.1644 6.1231
L25.1644 5.4579
" />
<path d="M25.1644 5.4579
L25.1039 5.3369
" />
<path d="M25.1039 5.3369
L24.9830 5.2765
" />
<path d="M24.9830 5.2765
L24.8016 5.2765
" />
<path d="M24.8016 5.2765
L24.6806 5.3369
" />
<path d="M24.6806 5.3369
L24.6201 5.3974
" />
<path d="M25.7691 6.1231
L25.7691 5.2765
" />
<path d="M25.7691 4.8531
L25.7087 4.9136
" />
<path d="M25.7087 4.9136
L25.7691 4.9741
" />
<path d="M25.7691 4.9741
L25.8296 4.9136
" />
<path d="M25.8296 4.9136
L25.7691 4.8531
" />
<path d="M25.7691 4.8531
L25.7691 4.9741
" />
<path d="M26.3739 5.2765
L26.3739 6.5465
" />
<path d="M26.3739 5.3369
L26.4949 5.2765
" />
<path d="M26.4949 5.2765
L26.7368 5.2765
" />
<path d="M26.7368 5.2765
L26.8577 5.3369
" />
<path d="M26.8577 5.3369
L26.9182 5.3974
" />
<path d="M26.9182 5.3974
L26.9787 5.5184
" />
<path d="M26.9787 5.5184
L26.9787 5.8812
" />
<path d="M26.9787 5.8812
L26.9182 6.0022
" />
<path d="M26.9182 6.0022
L26.8577 6.0627
" />
<path d="M26.8577 6.0627
L26.7368 6.1231
" />
<path d="M26.7368 6.1231
L26.4949 6.1231
" />
<path d="M26.4949 6.1231
L26.3739 6.0627
" />
<path d="M27.5229 6.0022
L27.5834 6.0627
" />
<path d="M27.5834 6.0627
L27.5229 6.1231
" />
<path d="M27.5229 6.1231
L27.4625 6.0627
" />
<path d="M27.4625 6.0627
L27.5229 6.0022
" />
<path d="M27.5229 6.0022
L27.5229 6.1231
" />
<path d="M28.6720 6.0627
L28.5511 6.1231
" />
<path d="M28.5511 6.1231
L28.3092 6.1231
" />
<path d="M28.3092 6.1231
L28.1882 6.0627
" />
<path d="M28.1882 6.0627
L28.1277 6.0022
" />
<path d="M28.1277 6.0022
L28.0673 5.8812
" />
<path d="M28.0673 5.8812
L28.0673 5.5184
" />
<path d="M28.0673 5.5184
L28.1277 5.3974
" />
<path d="M28.1277 5.3974
L28.1882 5.3369
" />
<path d="M28.1882 5.3369
L28.3092 5.2765
" />
<path d="M28.3092 5.2765
L28.5511 5.2765
" />
<path d="M28.5511 5.2765
L28.6720 5.3369
" />
<path d="M29.3978 6.1231
L29.2768 6.0627
" />
<path d="M29.2768 6.0627
L29.2163 6.0022
" />
<path d="M29.2163 6.0022
L29.1559 5.8812
" />
<path d="M29.1559 5.8812
L29.1559 5.5184
" />
<path d="M29.1559 5.5184
L29.2163 5.3974
" />
<path d="M29.2163 5.3974
L29.2768 5.3369
" />
<path d="M29.2768 5.3369
L29.3978 5.2765
" />
<path d="M29.3978 5.2765
L29.5792 5.2765
" />
<path d="M29.5792 5.2765
L29.7001 5.3369
" />
<path d="M29.7001 5.3369
L29.7606 5.3974
" />
<path d="M29.7606 5.3974
L29.8211 5.5184
" />
<path d="M29.8211 5.5184
L29.8211 5.8812
" />
<path d="M29.8211 5.8812
L29.7606 6.0022
" />
<path d="M29.7606 6.0022
L29.7001 6.0627
" />
<path d="M29.7001 6.0627
L29.5792 6.1231
" />
<path d="M29.5792 6.1231
L29.3978 6.1231
" />
<path d="M30.3653 6.1231
L30.3653 5.2765
" />
<path d="M30.3653 5.3974
L30.4258 5.3369
" />
<path d="M30.4258 5.3369
L30.5468 5.2765
" />
<path d="M30.5468 5.2765
L30.7282 5.2765
" />
<path d="M30.7282 5.2765
L30.8491 5.3369
" />
<path d="M30.8491 5.3369
L30.9096 5.4579
" />
<path d="M30.9096 5.4579
L30.9096 6.1231
" />
<path d="M30.9096 5.4579
L30.9701 5.3369
" />
<path d="M30.9701 5.3369
L31.0910 5.2765
" />
<path d="M31.0910 5.2765
L31.2725 5.2765
" />
<path d="M31.2725 5.2765
L31.3934 5.3369
" />
<path d="M31.3934 5.3369
L31.4539 5.4579
" />
<path d="M31.4539 5.4579
L31.4539 6.1231
" />
<path d="M32.9658 4.7927
L31.8772 6.4255
" />
<path d="M33.9334 6.1231
L33.9334 4.8531
" />
<path d="M33.9334 6.0627
L33.8125 6.1231
" />
<path d="M33.8125 6.1231
L33.5706 6.1231
" />
<path d="M33.5706 6.1231
L33.4496 6.0627
" />
<path d="M33.4496 6.0627
L33.3891 6.0022
" />
<path d="M33.3891 6.0022
L33.3287 5.8812
" />
<path d="M33.3287 5.8812
L33.3287 5.5184
" />
<path d="M33.3287 5.5184
L33.3891 5.3974
" />
<path d="M33.3891 5.3974
L33.4496 5.3369
" />
<path d="M33.4496 5.3369
L33.5706 5.2765
" />
<path d="M33.5706 5.2765
L33.8125 5.2765
" />
<path d="M33.8125 5.2765
L33.9334 5.3369
" />
<path d="M34.7196 6.1231
L34.5986 6.0627
" />
<path d="M34.5986 6.0627
L34.5381 6.0022
" />
<path d="M34.5381 6.0022
L34.4777 5.8812
" />
<path d="M34.4777 5.8812
L34.4777 5.5184
" />
<path d="M34.4777 5.5184
L34.5381 5.3974
" />
<path d="M34.5381 5.3974
L34.5986 5.3369
" />
<path d="M34.5986 5.3369
L34.7196 5.2765
" />
<path d="M34.7196 5.2765
L34.9010 5.2765
" />
<path d="M34.9010 5.2765
L35.0219 5.3369
" />
<path d="M35.0219 5.3369
L35.0824 5.3974
" />
<path d="M35.0824 5.3974
L35.1429 5.5184
" />
<path d="M35.1429 5.5184
L35.1429 5.8812
" />
<path d="M35.1429 5.8812
L35.0824 6.0022
" />
<path d="M35.0824 6.0022
L35.0219 6.0627
" />
<path d="M35.0219 6.0627
L34.9010 6.1231
" />
<path d="M34.9010 6.1231
L34.7196 6.1231
" />
<path d="M35.5662 5.2765
L35.8081 6.1231
" />
<path d="M35.8081 6.1231
L36.0500 5.5184
" />
<path d="M36.0500 5.5184
L36.2919 6.1231
" />
<path d="M36.2919 6.1231
L36.5338 5.2765
" />
<path d="M37.0176 5.2765
L37.0176 6.1231
" />
<path d="M37.0176 5.3974
L37.0781 5.3369
" />
<path d="M37.0781 5.3369
L37.1991 5.2765
" />
<path d="M37.1991 5.2765
L37.3805 5.2765
" />
<path d="M37.3805 5.2765
L37.5014 5.3369
" />
<path d="M37.5014 5.3369
L37.5619 5.4579
" />
<path d="M37.5619 5.4579
L37.5619 6.1231
" />
<path d="M38.3481 6.1231
L38.2271 6.0627
" />
<path d="M38.2271 6.0627
L38.1666 5.9417
" />
<path d="M38.1666 5.9417
L38.1666 4.8531
" />
<path d="M39.0133 6.1231
L38.8923 6.0627
" />
<path d="M38.8923 6.0627
L38.8318 6.0022
" />
<path d="M38.8318 6.0022
L38.7714 5.8812
" />
<path d="M38.7714 5.8812
L38.7714 5.5184
" />
<path d="M38.7714 5.5184
L38.8318 5.3974
" />
<path d="M38.8318 5.3974
L38.8923 5.3369
" />
<path d="M38.8923 5.3369
L39.0133 5.2765
" />
<path d="M39.0133 5.2765
L39.1947 5.2765
" />
<path d="M39.1947 5.2765
L39.3156 5.3369
" />
<path d="M39.3156 5.3369
L39.3761 5.3974
" />
<path d="M39.3761 5.3974
L39.4366 5.5184
" />
<path d="M39.4366 5.5184
L39.4366 5.8812
" />
<path d="M39.4366 5.8812
L39.3761 6.0022
" />
<path d="M39.3761 6.0022
L39.3156 6.0627
" />
<path d="M39.3156 6.0627
L39.1947 6.1231
" />
<path d="M39.1947 6.1231
L39.0133 6.1231
" />
<path d="M40.5251 6.1231
L40.5251 5.4579
" />
<path d="M40.5251 5.4579
L40.4646 5.3369
" />
<path d="M40.4646 5.3369
L40.3437 5.2765
" />
<path d="M40.3437 5.2765
L40.1018 5.2765
" />
<path d="M40.1018 5.2765
L39.9808 5.3369
" />
<path d="M40.5251 6.0627
L40.4042 6.1231
" />
<path d="M40.4042 6.1231
L40.1018 6.1231
" />
<path d="M40.1018 6.1231
L39.9808 6.0627
" />
<path d="M39.9808 6.0627
L39.9204 5.9417
" />
<path d="M39.9204 5.9417
L39.9204 5.8207
" />
<path d="M39.9204 5.8207
L39.9808 5.6998
" />
<path d="M39.9808 5.6998
L40.1018 5.6393
" />
<path d="M40.1018 5.6393
L40.4042 5.6393
" />
<path d="M40.4042 5.6393
L40.5251 5.5788
" />
<path d="M41.6741 6.1231
L41.6741 4.8531
" />
<path d="M41.6741 6.0627
L41.5532 6.1231
" />
<path d="M41.5532 6.1231
L41.3113 6.1231
" />
<path d="M41.3113 6.1231
L41.1903 6.0627
" />
<path d="M41.1903 6.0627
L41.1298 6.0022
" />
<path d="M41.1298 6.0022
L41.0694 5.8812
" />
<path d="M41.0694 5.8812
L41.0694 5.5184
" />
<path d="M41.0694 5.5184
L41.1298 5.3974
" />
<path d="M41.1298 5.3974
L41.1903 5.3369
" />
<path d="M41.1903 5.3369
L41.3113 5.2765
" />
<path d="M41.3113 5.2765
L41.5532 5.2765
" />
<path d="M41.5532 5.2765
L41.6741 5.3369
" />
<path d="M42.2184 6.0627
L42.3393 6.1231
" />
<path d="M42.3393 6.1231
L42.5812 6.1231
" />
<path d="M42.5812 6.1231
L42.7022 6.0627
" />
<path d="M42.7022 6.0627
L42.7626 5.9417
" />
<path d="M42.7626 5.9417
L42.7626 5.8812
" />
<path d="M42.7626 5.8812
L42.7022 5.7603
" />
<path d="M42.7022 5.7603
L42.5812 5.6998
" />
<path d="M42.5812 5.6998
L42.3998 5.6998
" />
<path d="M42.3998 5.6998
L42.2788 5.6393
" />
<path d="M42.2788 5.6393
L42.2184 5.5184
" />
<path d="M42.2184 5.5184
L42.2184 5.4579
" />
<path d="M42.2184 5.4579
L42.2788 5.3369
" />
<path d="M42.2788 5.3369
L42.3998 5.2765
" />
<path d="M42.3998 5.2765
L42.5812 5.2765
" />
<path d="M42.5812 5.2765
L42.7022 5.3369
" />
<path d="M44.2141 4.7927
L43.1255 6.4255
" />
<path d="M45.1212 6.0627
L45.0003 6.1231
" />
<path d="M45.0003 6.1231
L44.7584 6.1231
" />
<path d="M44.7584 6.1231
L44.6374 6.0627
" />
<path d="M44.6374 6.0627
L44.5770 5.9417
" />
<path d="M44.5770 5.9417
L44.5770 5.4579
" />
<path d="M44.5770 5.4579
L44.6374 5.3369
" />
<path d="M44.6374 5.3369
L44.7584 5.2765
" />
<path d="M44.7584 5.2765
L45.0003 5.2765
" />
<path d="M45.0003 5.2765
L45.1212 5.3369
" />
<path d="M45.1212 5.3369
L45.1817 5.4579
" />
<path d="M45.1817 5.4579
L45.1817 5.5788
" />
<path d="M45.1817 5.5788
L44.5770 5.6998
" />
<path d="M45.7260 5.2765
L45.7260 6.1231
" />
<path d="M45.7260 5.3974
L45.7865 5.3369
" />
<path d="M45.7865 5.3369
L45.9075 5.2765
" />
<path d="M45.9075 5.2765
L46.0889 5.2765
" />
<path d="M46.0889 5.2765
L46.2098 5.3369
" />
<path d="M46.2098 5.3369
L46.2703 5.4579
" />
<path d="M46.2703 5.4579
L46.2703 6.1231
" />
<path d="M47.7822 4.7927
L46.6936 6.4255
" />
<path d="M48.2055 6.1231
L48.2055 4.8531
" />
<path d="M48.2055 4.8531
L48.5079 4.8531
" />
<path d="M48.5079 4.8531
L48.6893 4.9136
" />
<path d="M48.6893 4.9136
L48.8103 5.0346
" />
<path d="M48.8103 5.0346
L48.8708 5.1555
" />
<path d="M48.8708 5.1555
L48.9312 5.3974
" />
<path d="M48.9312 5.3974
L48.9312 5.5788
" />
<path d="M48.9312 5.5788
L48.8708 5.8207
" />
<path d="M48.8708 5.8207
L48.8103 5.9417
" />
<path d="M48.8103 5.9417
L48.6893 6.0627
" />
<path d="M48.6893 6.0627
L48.5079 6.1231
" />
<path d="M48.5079 6.1231
L48.2055 6.1231
" />
<path d="M49.9593 6.0627
L49.8384 6.1231
" />
<path d="M49.8384 6.1231
L49.5965 6.1231
" />
<path d="M49.5965 6.1231
L49.4755 6.0627
" />
<path d="M49.4755 6.0627
L49.4151 5.9417
" />
<path d="M49.4151 5.9417
L49.4151 5.4579
" />
<path d="M49.4151 5.4579
L49.4755 5.3369
" />
<path d="M49.4755 5.3369
L49.5965 5.2765
" />
<path d="M49.5965 5.2765
L49.8384 5.2765
" />
<path d="M49.8384 5.2765
L49.9593 5.3369
" />
<path d="M49.9593 5.3369
L50.0198 5.4579
" />
<path d="M50.0198 5.4579
L50.0198 5.5788
" />
<path d="M50.0198 5.5788
L49.4151 5.6998
" />
<path d="M50.4432 5.2765
L50.7456 6.1231
" />
<path d="M50.7456 6.1231
L51.0479 5.2765
" />
<path d="M51.5317 6.1231
L51.5317 5.2765
" />
<path d="M51.5317 4.8531
L51.4713 4.9136
" />
<path d="M51.4713 4.9136
L51.5317 4.9741
" />
<path d="M51.5317 4.9741
L51.5922 4.9136
" />
<path d="M51.5922 4.9136
L51.5317 4.8531
" />
<path d="M51.5317 4.8531
L51.5317 4.9741
" />
<path d="M52.6808 6.0627
L52.5599 6.1231
" />
<path d="M52.5599 6.1231
L52.3180 6.1231
" />
<path d="M52.3180 6.1231
L52.1970 6.0627
" />
<path d="M52.1970 6.0627
L52.1365 6.0022
" />
<path d="M52.1365 6.0022
L52.0761 5.8812
" />
<path d="M52.0761 5.8812
L52.0761 5.5184
" />
<path d="M52.0761 5.5184
L52.1365 5.3974
" />
<path d="M52.1365 5.3974
L52.1970 5.3369
" />
<path d="M52.1970 5.3369
L52.3180 5.2765
" />
<path d="M52.3180 5.2765
L52.5599 5.2765
" />
<path d="M52.5599 5.2765
L52.6808 5.3369
" />
<path d="M53.7089 6.0627
L53.5880 6.1231
" />
<path d="M53.5880 6.1231
L53.3461 6.1231
" />
<path d="M53.3461 6.1231
L53.2251 6.0627
" />
<path d="M53.2251 6.0627
L53.1647 5.9417
" />
<path d="M53.1647 5.9417
L53.1647 5.4579
" />
<path d="M53.1647 5.4579
L53.2251 5.3369
" />
<path d="M53.2251 5.3369
L53.3461 5.2765
" />
<path d="M53.3461 5.2765
L53.5880 5.2765
" />
<path d="M53.5880 5.2765
L53.7089 5.3369
" />
<path d="M53.7089 5.3369
L53.7694 5.4579
" />
<path d="M53.7694 5.4579
L53.7694 5.5788
" />
<path d="M53.7694 5.5788
L53.1647 5.6998
" />
<path d="M54.3137 6.1231
L54.3137 4.8531
" />
<path d="M54.3137 4.8531
L54.6161 4.8531
" />
<path d="M54.6161 4.8531
L54.7975 4.9136
" />
<path d="M54.7975 4.9136
L54.9185 5.0346
" />
<path d="M54.9185 5.0346
L54.9790 5.1555
" />
<path d="M54.9790 5.1555
L55.0394 5.3974
" />
<path d="M55.0394 5.3974
L55.0394 5.5788
" />
<path d="M55.0394 5.5788
L54.9790 5.8207
" />
<path d="M54.9790 5.8207
L54.9185 5.9417
" />
<path d="M54.9185 5.9417
L54.7975 6.0627
" />
<path d="M54.7975 6.0627
L54.6161 6.1231
" />
<path d="M54.6161 6.1231
L54.3137 6.1231
" />
<path d="M55.7652 6.1231
L55.6442 6.0627
" />
<path d="M55.6442 6.0627
L55.5837 6.0022
" />
<path d="M55.5837 6.0022
L55.5233 5.8812
" />
<path d="M55.5233 5.8812
L55.5233 5.5184
" />
<path d="M55.5233 5.5184
L55.5837 5.3974
" />
<path d="M55.5837 5.3974
L55.6442 5.3369
" />
<path d="M55.6442 5.3369
L55.7652 5.2765
" />
<path d="M55.7652 5.2765
L55.9466 5.2765
" />
<path d="M55.9466 5.2765
L56.0675 5.3369
" />
<path d="M56.0675 5.3369
L56.1280 5.3974
" />
<path d="M56.1280 5.3974
L56.1885 5.5184
" />
<path d="M56.1885 5.5184
L56.1885 5.8812
" />
<path d="M56.1885 5.8812
L56.1280 6.0022
" />
<path d="M56.1280 6.0022
L56.0675 6.0627
" />
<path d="M56.0675 6.0627
L55.9466 6.1231
" />
<path d="M55.9466 6.1231
L55.7652 6.1231
" />
<path d="M57.2770 6.0627
L57.1561 6.1231
" />
<path d="M57.1561 6.1231
L56.9142 6.1231
" />
<path d="M56.9142 6.1231
L56.7932 6.0627
" />
<path d="M56.7932 6.0627
L56.7327 6.0022
" />
<path d="M56.7327 6.0022
L56.6723 5.8812
" />
<path d="M56.6723 5.8812
L56.6723 5.5184
" />
<path d="M56.6723 5.5184
L56.7327 5.3974
" />
<path d="M56.7327 5.3974
L56.7932 5.3369
" />
<path d="M56.7932 5.3369
L56.9142 5.2765
" />
<path d="M56.9142 5.2765
L57.1561 5.2765
" />
<path d="M57.1561 5.2765
L57.2770 5.3369
" />
<path d="M58.7285 4.7927
L57.6399 6.4255
" />
<path d="M59.8171 6.1231
L59.0914 6.1231
" />
<path d="M59.4542 6.1231
L59.4542 4.8531
" />
<path d="M59.4542 4.8531
L59.3333 5.0346
" />
<path d="M59.3333 5.0346
L59.2123 5.1555
" />
<path d="M59.2123 5.1555
L59.0914 5.2160
" />
<path d="M61.0266 6.1231
L60.3009 6.1231
" />
<path d="M60.6637 6.1231
L60.6637 4.8531
" />
<path d="M60.6637 4.8531
L60.5428 5.0346
" />
<path d="M60.5428 5.0346
L60.4218 5.1555
" />
<path d="M60.4218 5.1555
L60.3009 5.2160
" />
<path d="M62.2361 6.1231
L61.5104 6.1231
" />
<path d="M61.8732 6.1231
L61.8732 4.8531
" />
<path d="M61.8732 4.8531
L61.7523 5.0346
" />
<path d="M61.7523 5.0346
L61.6313 5.1555
" />
<path d="M61.6313 5.1555
L61.5104 5.2160
" />
<path d="M62.9618 5.3974
L62.8408 5.3369
" />
<path d="M62.8408 5.3369
L62.7803 5.2765
" />
<path d="M62.7803 5.2765
L62.7199 5.1555
" />
<path d="M62.7199 5.1555
L62.7199 5.0950
" />
<path d="M62.7199 5.0950
L62.7803 4.9741
" />
<path d="M62.7803 4.9741
L62.8408 4.9136
" />
<path d="M62.8408 4.9136
L62.9618 4.8531
" />
<path d="M62.9618 4.8531
L63.2037 4.8531
" />
<path d="M63.2037 4.8531
L63.3246 4.9136
" />
<path d="M63.3246 4.9136
L63.3851 4.9741
" />
<path d="M63.3851 4.9741
L63.4456 5.0950
" />
<path d="M63.4456 5.0950
L63.4456 5.1555
" />
<path d="M63.4456 5.1555
L63.3851 5.2765
" />
<path d="M63.3851 5.2765
L63.3246 5.3369
" />
<path d="M63.3246 5.3369
L63.2037 5.3974
" />
<path d="M63.2037 5.3974
L62.9618 5.3974
" />
<path d="M62.9618 5.3974
L62.8408 5.4579
" />
<path d="M62.8408 5.4579
L62.7803 5.5184
" />
<path d="M62.7803 5.5184
L62.7199 5.6393
" />
<path d="M62.7199 5.6393
L62.7199 5.8812
" />
<path d="M62.7199 5.8812
L62.7803 6.0022
" />
<path d="M62.7803 6.0022
L62.8408 6.0627
" />
<path d="M62.8408 6.0627
L62.9618 6.1231
" />
<path d="M62.9618 6.1231
L63.2037 6.1231
" />
<path d="M63.2037 6.1231
L63.3246 6.0627
" />
<path d="M63.3246 6.0627
L63.3851 6.0022
" />
<path d="M63.3851 6.0022
L63.4456 5.8812
" />
<path d="M63.4456 5.8812
L63.4456 5.6393
" />
<path d="M63.4456 5.6393
L63.3851 5.5184
" />
<path d="M63.3851 5.5184
L63.3246 5.4579
" />
<path d="M63.3246 5.4579
L63.2037 5.3974
" />
<path d="M63.8689 4.8531
L64.7155 4.8531
" />
<path d="M64.7155 4.8531
L64.1713 6.1231
" />
<path d="M65.0179 5.2765
L65.5017 5.2765
" />
<path d="M65.1993 6.1231
L65.1993 5.0346
" />
<path d="M65.1993 5.0346
L65.2598 4.9136
" />
<path d="M65.2598 4.9136
L65.3808 4.8531
" />
<path d="M65.3808 4.8531
L65.5017 4.8531
" />
<path d="M65.9250 6.0022
L65.9855 6.0627
" />
<path d="M65.9855 6.0627
L65.9250 6.1231
" />
<path d="M65.9250 6.1231
L65.8646 6.0627
" />
<path d="M65.8646 6.0627
L65.9250 6.0022
" />
<path d="M65.9250 6.0022
L65.9250 6.1231
" />
<path d="M66.5298 5.2765
L66.5298 6.5465
" />
<path d="M66.5298 5.3369
L66.6508 5.2765
" />
<path d="M66.6508 5.2765
L66.8927 5.2765
" />
<path d="M66.8927 5.2765
L67.0136 5.3369
" />
<path d="M67.0136 5.3369
L67.0741 5.3974
" />
<path d="M67.0741 5.3974
L67.1346 5.5184
" />
<path d="M67.1346 5.5184
L67.1346 5.8812
" />
<path d="M67.1346 5.8812
L67.0741 6.0022
" />
<path d="M67.0741 6.0022
L67.0136 6.0627
" />
<path d="M67.0136 6.0627
L66.8927 6.1231
" />
<path d="M66.8927 6.1231
L66.6508 6.1231
" />
<path d="M66.6508 6.1231
L66.5298 6.0627
" />
<path d="M68.2231 6.1231
L68.2231 4.8531
" />
<path d="M68.2231 6.0627
L68.1022 6.1231
" />
<path d="M68.1022 6.1231
L67.8603 6.1231
" />
<path d="M67.8603 6.1231
L67.7393 6.0627
" />
<path d="M67.7393 6.0627
L67.6788 6.0022
" />
<path d="M67.6788 6.0022
L67.6184 5.8812
" />
<path d="M67.6184 5.8812
L67.6184 5.5184
" />
<path d="M67.6184 5.5184
L67.6788 5.3974
" />
<path d="M67.6788 5.3974
L67.7393 5.3369
" />
<path d="M67.7393 5.3369
L67.8603 5.2765
" />
<path d="M67.8603 5.2765
L68.1022 5.2765
" />
<path d="M68.1022 5.2765
L68.2231 5.3369
" />
<path d="M68.6464 5.2765
L69.1302 5.2765
" />
<path d="M68.8278 6.1231
L68.8278 5.0346
" />
<path d="M68.8278 5.0346
L68.8883 4.9136
" />
<path d="M68.8883 4.9136
L69.0093 4.8531
" />
<path d="M69.0093 4.8531
L69.1302 4.8531
" />
</g></g> 
</svg>
