<?xml version="1.0" standalone="no"?>
 <!DOCTYPE svg PUBLIC "-//W3C//DTD SVG 1.1//EN" 
 "http://www.w3.org/Graphics/SVG/1.1/DTD/svg11.dtd"> 
<svg
  xmlns:svg="http://www.w3.org/2000/svg"
  xmlns="http://www.w3.org/2000/svg"
  xmlns:xlink="http://www.w3.org/1999/xlink"
  version="1.1"
  width="53.5432mm" height="19.9644mm" viewBox="0.0000 0.0000 53.5432 19.9644">
<title>SVG Image created as working.svg date 2023/08/14 16:02:23 </title>
  <desc>Image generated by Eeschema-SVG </desc>
<g style="fill:#000000; fill-opacity:1.0000;stroke:#000000; stroke-opacity:1.0000;
stroke-linecap:round; stroke-linejoin:round;"
 transform="translate(0 0) scale(1 1)">
</g>
<g style="fill:#840000; fill-opacity:0.0; 
stroke:#840000; stroke-width:0.0000; stroke-opacity:1; 
stroke-linecap:round; stroke-linejoin:round;">
</g>
<g style="fill:#FFFFC2; fill-opacity:0.0; 
stroke:#FFFFC2; stroke-width:0.0000; stroke-opacity:1; 
stroke-linecap:round; stroke-linejoin:round;">
</g>
<g style="fill:#FFFFC2; fill-opacity:1.0000; 
stroke:#FFFFC2; stroke-width:0.0000; stroke-opacity:1; 
stroke-linecap:round; stroke-linejoin:round;">
<rect x="21.686900" y="1.790700" width="10.160000" height="6.985000" rx="0.000000" />
</g>
<g style="fill:#840084; fill-opacity:1.0000; 
stroke:#840084; stroke-width:0.0000; stroke-opacity:1; 
stroke-linecap:round; stroke-linejoin:round;">
</g>
<g style="fill:#840000; fill-opacity:1.0000; 
stroke:#840000; stroke-width:0.0000; stroke-opacity:1; 
stroke-linecap:round; stroke-linejoin:round;">
</g>
<g style="fill:#840000; fill-opacity:0.0; 
stroke:#840000; stroke-width:0.2540; stroke-opacity:1; 
stroke-linecap:round; stroke-linejoin:round;">
<rect x="21.686900" y="1.790700" width="10.160000" height="6.985000" rx="0.000000" />
</g>
<g style="fill:#840000; fill-opacity:0.0; 
stroke:#840000; stroke-width:0.1524; stroke-opacity:1; 
stroke-linecap:round; stroke-linejoin:round;">
<path d="M26.7669 15.7607
L26.7669 18.3007
" />
</g>
<g style="fill:#006464; fill-opacity:0.0; 
stroke:#006464; stroke-width:0.1524; stroke-opacity:1; 
stroke-linecap:round; stroke-linejoin:round;">
<g transform="rotate(-90.000000 26.7669 15.5067)">
<text x="26.7669" y="16.1417"
textLength="3.5294" font-size="1.6933" lengthAdjust="spacingAndGlyphs"
text-anchor="start" opacity="0">ADJ</text>
</g>
<g class="stroked-text"><desc>ADJ</desc>
<path d="M26.9836 15.1645
L26.9836 14.5598
" />
<path d="M27.3464 15.2855
L26.0764 14.8622
" />
<path d="M26.0764 14.8622
L27.3464 14.4388
" />
<path d="M27.3464 14.0155
L26.0764 14.0155
" />
<path d="M26.0764 14.0155
L26.0764 13.7131
" />
<path d="M26.0764 13.7131
L26.1369 13.5317
" />
<path d="M26.1369 13.5317
L26.2579 13.4107
" />
<path d="M26.2579 13.4107
L26.3788 13.3502
" />
<path d="M26.3788 13.3502
L26.6207 13.2898
" />
<path d="M26.6207 13.2898
L26.8021 13.2898
" />
<path d="M26.8021 13.2898
L27.0440 13.3502
" />
<path d="M27.0440 13.3502
L27.1650 13.4107
" />
<path d="M27.1650 13.4107
L27.2860 13.5317
" />
<path d="M27.2860 13.5317
L27.3464 13.7131
" />
<path d="M27.3464 13.7131
L27.3464 14.0155
" />
<path d="M26.0764 12.3826
L26.9836 12.3826
" />
<path d="M26.9836 12.3826
L27.1650 12.4431
" />
<path d="M27.1650 12.4431
L27.2860 12.5640
" />
<path d="M27.2860 12.5640
L27.3464 12.7455
" />
<path d="M27.3464 12.7455
L27.3464 12.8664
" />
</g></g>
<g style="fill:#A90000; fill-opacity:0.0; 
stroke:#A90000; stroke-width:0.1524; stroke-opacity:1; 
stroke-linecap:round; stroke-linejoin:round;">
<g transform="rotate(-90.000000 26.5129 17.0307)">
<text x="26.5129" y="17.0307"
textLength="1.4127" font-size="1.6933" lengthAdjust="spacingAndGlyphs"
text-anchor="middle" opacity="0">1</text>
</g>
<g class="stroked-text"><desc>1</desc>
<path d="M26.3494 16.6677
L26.3494 17.3934
" />
<path d="M26.3494 17.0306
L25.0794 17.0306
" />
<path d="M25.0794 17.0306
L25.2609 17.1515
" />
<path d="M25.2609 17.1515
L25.3818 17.2725
" />
<path d="M25.3818 17.2725
L25.4423 17.3934
" />
</g></g>
<g style="fill:#840000; fill-opacity:0.0; 
stroke:#840000; stroke-width:0.1524; stroke-opacity:1; 
stroke-linecap:round; stroke-linejoin:round;">
<path d="M31.8469 10.6807
L34.3869 10.6807
" />
</g>
<g style="fill:#006464; fill-opacity:0.0; 
stroke:#006464; stroke-width:0.1524; stroke-opacity:1; 
stroke-linecap:round; stroke-linejoin:round;">
<text x="31.5929" y="11.3157"
textLength="2.6223" font-size="1.6933" lengthAdjust="spacingAndGlyphs"
text-anchor="end" opacity="0">VO</text>
<g class="stroked-text"><desc>VO</desc>
<path d="M29.1945 9.9902
L29.6178 11.2602
" />
<path d="M29.6178 11.2602
L30.0412 9.9902
" />
<path d="M30.7064 9.9902
L30.9483 9.9902
" />
<path d="M30.9483 9.9902
L31.0693 10.0507
" />
<path d="M31.0693 10.0507
L31.1902 10.1717
" />
<path d="M31.1902 10.1717
L31.2507 10.4136
" />
<path d="M31.2507 10.4136
L31.2507 10.8369
" />
<path d="M31.2507 10.8369
L31.1902 11.0788
" />
<path d="M31.1902 11.0788
L31.0693 11.1998
" />
<path d="M31.0693 11.1998
L30.9483 11.2602
" />
<path d="M30.9483 11.2602
L30.7064 11.2602
" />
<path d="M30.7064 11.2602
L30.5855 11.1998
" />
<path d="M30.5855 11.1998
L30.4645 11.0788
" />
<path d="M30.4645 11.0788
L30.4041 10.8369
" />
<path d="M30.4041 10.8369
L30.4041 10.4136
" />
<path d="M30.4041 10.4136
L30.4645 10.1717
" />
<path d="M30.4645 10.1717
L30.5855 10.0507
" />
<path d="M30.5855 10.0507
L30.7064 9.9902
" />
</g></g>
<g style="fill:#A90000; fill-opacity:0.0; 
stroke:#A90000; stroke-width:0.1524; stroke-opacity:1; 
stroke-linecap:round; stroke-linejoin:round;">
<text x="33.1169" y="10.4267"
textLength="1.4127" font-size="1.6933" lengthAdjust="spacingAndGlyphs"
text-anchor="middle" opacity="0">2</text>
<g class="stroked-text"><desc>2</desc>
<path d="M32.7541 9.1142
L32.8145 9.0537
" />
<path d="M32.8145 9.0537
L32.9355 8.9932
" />
<path d="M32.9355 8.9932
L33.2379 8.9932
" />
<path d="M33.2379 8.9932
L33.3588 9.0537
" />
<path d="M33.3588 9.0537
L33.4193 9.1142
" />
<path d="M33.4193 9.1142
L33.4798 9.2351
" />
<path d="M33.4798 9.2351
L33.4798 9.3561
" />
<path d="M33.4798 9.3561
L33.4193 9.5375
" />
<path d="M33.4193 9.5375
L32.6936 10.2632
" />
<path d="M32.6936 10.2632
L33.4798 10.2632
" />
</g></g>
<g style="fill:#840000; fill-opacity:0.0; 
stroke:#840000; stroke-width:0.1524; stroke-opacity:1; 
stroke-linecap:round; stroke-linejoin:round;">
<path d="M21.6869 10.6807
L19.1469 10.6807
" />
</g>
<g style="fill:#006464; fill-opacity:0.0; 
stroke:#006464; stroke-width:0.1524; stroke-opacity:1; 
stroke-linecap:round; stroke-linejoin:round;">
<text x="21.9409" y="11.3157"
textLength="1.8966" font-size="1.6933" lengthAdjust="spacingAndGlyphs"
text-anchor="start" opacity="0">VI</text>
<g class="stroked-text"><desc>VI</desc>
<path d="M22.1620 9.9902
L22.5853 11.2602
" />
<path d="M22.5853 11.2602
L23.0087 9.9902
" />
<path d="M23.4320 11.2602
L23.4320 9.9902
" />
</g></g>
<g style="fill:#A90000; fill-opacity:0.0; 
stroke:#A90000; stroke-width:0.1524; stroke-opacity:1; 
stroke-linecap:round; stroke-linejoin:round;">
<text x="20.4169" y="10.4267"
textLength="1.4127" font-size="1.6933" lengthAdjust="spacingAndGlyphs"
text-anchor="middle" opacity="0">3</text>
<g class="stroked-text"><desc>3</desc>
<path d="M19.9936 8.9932
L20.7798 8.9932
" />
<path d="M20.7798 8.9932
L20.3564 9.4770
" />
<path d="M20.3564 9.4770
L20.5379 9.4770
" />
<path d="M20.5379 9.4770
L20.6588 9.5375
" />
<path d="M20.6588 9.5375
L20.7193 9.5980
" />
<path d="M20.7193 9.5980
L20.7798 9.7189
" />
<path d="M20.7798 9.7189
L20.7798 10.0213
" />
<path d="M20.7798 10.0213
L20.7193 10.1423
" />
<path d="M20.7193 10.1423
L20.6588 10.2028
" />
<path d="M20.6588 10.2028
L20.5379 10.2632
" />
<path d="M20.5379 10.2632
L20.1750 10.2632
" />
<path d="M20.1750 10.2632
L20.0541 10.2028
" />
<path d="M20.0541 10.2028
L19.9936 10.1423
" />
</g></g>
<g style="fill:#840084; fill-opacity:0.0; 
stroke:#840084; stroke-width:0.1524; stroke-opacity:1; 
stroke-linecap:round; stroke-linejoin:round;">
</g>
<g style="fill:#006464; fill-opacity:0.0; 
stroke:#006464; stroke-width:0.1524; stroke-opacity:1; 
stroke-linecap:round; stroke-linejoin:round;">
</g>
<g style="fill:#006464; fill-opacity:0.0; 
stroke:#006464; stroke-width:0.1588; stroke-opacity:1; 
stroke-linecap:round; stroke-linejoin:round;">
<text x="22.9569" y="8.1407"
textLength="2.6415" font-size="1.6933" lengthAdjust="spacingAndGlyphs"
text-anchor="middle" opacity="0">U?</text>
<g class="stroked-text"><desc>U?</desc>
<path d="M22.0497 6.8149
L22.0497 7.8430
" />
<path d="M22.0497 7.8430
L22.1102 7.9640
" />
<path d="M22.1102 7.9640
L22.1707 8.0245
" />
<path d="M22.1707 8.0245
L22.2916 8.0849
" />
<path d="M22.2916 8.0849
L22.5335 8.0849
" />
<path d="M22.5335 8.0849
L22.6545 8.0245
" />
<path d="M22.6545 8.0245
L22.7150 7.9640
" />
<path d="M22.7150 7.9640
L22.7754 7.8430
" />
<path d="M22.7754 7.8430
L22.7754 6.8149
" />
<path d="M23.5617 7.9640
L23.6221 8.0245
" />
<path d="M23.6221 8.0245
L23.5617 8.0849
" />
<path d="M23.5617 8.0849
L23.5012 8.0245
" />
<path d="M23.5012 8.0245
L23.5617 7.9640
" />
<path d="M23.5617 7.9640
L23.5617 8.0849
" />
<path d="M23.3198 6.8754
L23.4407 6.8149
" />
<path d="M23.4407 6.8149
L23.7431 6.8149
" />
<path d="M23.7431 6.8149
L23.8640 6.8754
" />
<path d="M23.8640 6.8754
L23.9245 6.9964
" />
<path d="M23.9245 6.9964
L23.9245 7.1173
" />
<path d="M23.9245 7.1173
L23.8640 7.2383
" />
<path d="M23.8640 7.2383
L23.8036 7.2987
" />
<path d="M23.8036 7.2987
L23.6826 7.3592
" />
<path d="M23.6826 7.3592
L23.6221 7.4197
" />
<path d="M23.6221 7.4197
L23.5617 7.5406
" />
<path d="M23.5617 7.5406
L23.5617 7.6011
" />
</g><text x="34.6794" y="8.1407"
textLength="15.8251" font-size="1.6933" lengthAdjust="spacingAndGlyphs"
text-anchor="middle" opacity="0">LM317L_SOT-89</text>
<g class="stroked-text"><desc>LM317L_SOT-89</desc>
<path d="M27.7852 8.0849
L27.1804 8.0849
" />
<path d="M27.1804 8.0849
L27.1804 6.8149
" />
<path d="M28.2085 8.0849
L28.2085 6.8149
" />
<path d="M28.2085 6.8149
L28.6319 7.7221
" />
<path d="M28.6319 7.7221
L29.0552 6.8149
" />
<path d="M29.0552 6.8149
L29.0552 8.0849
" />
<path d="M29.5390 6.8149
L30.3252 6.8149
" />
<path d="M30.3252 6.8149
L29.9018 7.2987
" />
<path d="M29.9018 7.2987
L30.0833 7.2987
" />
<path d="M30.0833 7.2987
L30.2042 7.3592
" />
<path d="M30.2042 7.3592
L30.2647 7.4197
" />
<path d="M30.2647 7.4197
L30.3252 7.5406
" />
<path d="M30.3252 7.5406
L30.3252 7.8430
" />
<path d="M30.3252 7.8430
L30.2647 7.9640
" />
<path d="M30.2647 7.9640
L30.2042 8.0245
" />
<path d="M30.2042 8.0245
L30.0833 8.0849
" />
<path d="M30.0833 8.0849
L29.7204 8.0849
" />
<path d="M29.7204 8.0849
L29.5995 8.0245
" />
<path d="M29.5995 8.0245
L29.5390 7.9640
" />
<path d="M31.5347 8.0849
L30.8090 8.0849
" />
<path d="M31.1718 8.0849
L31.1718 6.8149
" />
<path d="M31.1718 6.8149
L31.0509 6.9964
" />
<path d="M31.0509 6.9964
L30.9299 7.1173
" />
<path d="M30.9299 7.1173
L30.8090 7.1778
" />
<path d="M31.9580 6.8149
L32.8046 6.8149
" />
<path d="M32.8046 6.8149
L32.2604 8.0849
" />
<path d="M33.8932 8.0849
L33.2884 8.0849
" />
<path d="M33.2884 8.0849
L33.2884 6.8149
" />
<path d="M34.0142 8.2059
L34.9818 8.2059
" />
<path d="M35.2237 8.0245
L35.4051 8.0849
" />
<path d="M35.4051 8.0849
L35.7075 8.0849
" />
<path d="M35.7075 8.0849
L35.8284 8.0245
" />
<path d="M35.8284 8.0245
L35.8889 7.9640
" />
<path d="M35.8889 7.9640
L35.9494 7.8430
" />
<path d="M35.9494 7.8430
L35.9494 7.7221
" />
<path d="M35.9494 7.7221
L35.8889 7.6011
" />
<path d="M35.8889 7.6011
L35.8284 7.5406
" />
<path d="M35.8284 7.5406
L35.7075 7.4802
" />
<path d="M35.7075 7.4802
L35.4656 7.4197
" />
<path d="M35.4656 7.4197
L35.3446 7.3592
" />
<path d="M35.3446 7.3592
L35.2841 7.2987
" />
<path d="M35.2841 7.2987
L35.2237 7.1778
" />
<path d="M35.2237 7.1778
L35.2237 7.0568
" />
<path d="M35.2237 7.0568
L35.2841 6.9359
" />
<path d="M35.2841 6.9359
L35.3446 6.8754
" />
<path d="M35.3446 6.8754
L35.4656 6.8149
" />
<path d="M35.4656 6.8149
L35.7679 6.8149
" />
<path d="M35.7679 6.8149
L35.9494 6.8754
" />
<path d="M36.7355 6.8149
L36.9774 6.8149
" />
<path d="M36.9774 6.8149
L37.0984 6.8754
" />
<path d="M37.0984 6.8754
L37.2193 6.9964
" />
<path d="M37.2193 6.9964
L37.2798 7.2383
" />
<path d="M37.2798 7.2383
L37.2798 7.6616
" />
<path d="M37.2798 7.6616
L37.2193 7.9035
" />
<path d="M37.2193 7.9035
L37.0984 8.0245
" />
<path d="M37.0984 8.0245
L36.9774 8.0849
" />
<path d="M36.9774 8.0849
L36.7355 8.0849
" />
<path d="M36.7355 8.0849
L36.6146 8.0245
" />
<path d="M36.6146 8.0245
L36.4936 7.9035
" />
<path d="M36.4936 7.9035
L36.4332 7.6616
" />
<path d="M36.4332 7.6616
L36.4332 7.2383
" />
<path d="M36.4332 7.2383
L36.4936 6.9964
" />
<path d="M36.4936 6.9964
L36.6146 6.8754
" />
<path d="M36.6146 6.8754
L36.7355 6.8149
" />
<path d="M37.6427 6.8149
L38.3684 6.8149
" />
<path d="M38.0056 8.0849
L38.0056 6.8149
" />
<path d="M38.7917 7.6011
L39.7594 7.6011
" />
<path d="M40.5456 7.3592
L40.4246 7.2987
" />
<path d="M40.4246 7.2987
L40.3641 7.2383
" />
<path d="M40.3641 7.2383
L40.3037 7.1173
" />
<path d="M40.3037 7.1173
L40.3037 7.0568
" />
<path d="M40.3037 7.0568
L40.3641 6.9359
" />
<path d="M40.3641 6.9359
L40.4246 6.8754
" />
<path d="M40.4246 6.8754
L40.5456 6.8149
" />
<path d="M40.5456 6.8149
L40.7875 6.8149
" />
<path d="M40.7875 6.8149
L40.9084 6.8754
" />
<path d="M40.9084 6.8754
L40.9689 6.9359
" />
<path d="M40.9689 6.9359
L41.0294 7.0568
" />
<path d="M41.0294 7.0568
L41.0294 7.1173
" />
<path d="M41.0294 7.1173
L40.9689 7.2383
" />
<path d="M40.9689 7.2383
L40.9084 7.2987
" />
<path d="M40.9084 7.2987
L40.7875 7.3592
" />
<path d="M40.7875 7.3592
L40.5456 7.3592
" />
<path d="M40.5456 7.3592
L40.4246 7.4197
" />
<path d="M40.4246 7.4197
L40.3641 7.4802
" />
<path d="M40.3641 7.4802
L40.3037 7.6011
" />
<path d="M40.3037 7.6011
L40.3037 7.8430
" />
<path d="M40.3037 7.8430
L40.3641 7.9640
" />
<path d="M40.3641 7.9640
L40.4246 8.0245
" />
<path d="M40.4246 8.0245
L40.5456 8.0849
" />
<path d="M40.5456 8.0849
L40.7875 8.0849
" />
<path d="M40.7875 8.0849
L40.9084 8.0245
" />
<path d="M40.9084 8.0245
L40.9689 7.9640
" />
<path d="M40.9689 7.9640
L41.0294 7.8430
" />
<path d="M41.0294 7.8430
L41.0294 7.6011
" />
<path d="M41.0294 7.6011
L40.9689 7.4802
" />
<path d="M40.9689 7.4802
L40.9084 7.4197
" />
<path d="M40.9084 7.4197
L40.7875 7.3592
" />
<path d="M41.6341 8.0849
L41.8760 8.0849
" />
<path d="M41.8760 8.0849
L41.9970 8.0245
" />
<path d="M41.9970 8.0245
L42.0574 7.9640
" />
<path d="M42.0574 7.9640
L42.1784 7.7825
" />
<path d="M42.1784 7.7825
L42.2389 7.5406
" />
<path d="M42.2389 7.5406
L42.2389 7.0568
" />
<path d="M42.2389 7.0568
L42.1784 6.9359
" />
<path d="M42.1784 6.9359
L42.1179 6.8754
" />
<path d="M42.1179 6.8754
L41.9970 6.8149
" />
<path d="M41.9970 6.8149
L41.7551 6.8149
" />
<path d="M41.7551 6.8149
L41.6341 6.8754
" />
<path d="M41.6341 6.8754
L41.5736 6.9359
" />
<path d="M41.5736 6.9359
L41.5132 7.0568
" />
<path d="M41.5132 7.0568
L41.5132 7.3592
" />
<path d="M41.5132 7.3592
L41.5736 7.4802
" />
<path d="M41.5736 7.4802
L41.6341 7.5406
" />
<path d="M41.6341 7.5406
L41.7551 7.6011
" />
<path d="M41.7551 7.6011
L41.9970 7.6011
" />
<path d="M41.9970 7.6011
L42.1179 7.5406
" />
<path d="M42.1179 7.5406
L42.1784 7.4802
" />
<path d="M42.1784 7.4802
L42.2389 7.3592
" />
</g></g>
<g style="fill:#840084; fill-opacity:0.0; 
stroke:#840084; stroke-width:0.1588; stroke-opacity:1; 
stroke-linecap:round; stroke-linejoin:round;">
<text x="26.8463" y="4.9657"
textLength="31.6698" font-size="1.6933" lengthAdjust="spacingAndGlyphs"
text-anchor="middle" opacity="0">Package_TO_SOT_SMD:SOT-89-3</text>
<g class="stroked-text"><desc>Package_TO_SOT_SMD:SOT-89-3</desc>
<path d="M11.4174 4.9099
L11.5761 3.6399
" />
<path d="M11.5761 3.6399
L12.0599 3.6399
" />
<path d="M12.0599 3.6399
L12.1733 3.7004
" />
<path d="M12.1733 3.7004
L12.2262 3.7609
" />
<path d="M12.2262 3.7609
L12.2716 3.8818
" />
<path d="M12.2716 3.8818
L12.2489 4.0633
" />
<path d="M12.2489 4.0633
L12.1733 4.1842
" />
<path d="M12.1733 4.1842
L12.1053 4.2447
" />
<path d="M12.1053 4.2447
L11.9768 4.3052
" />
<path d="M11.9768 4.3052
L11.4930 4.3052
" />
<path d="M13.2317 4.9099
L13.3148 4.2447
" />
<path d="M13.3148 4.2447
L13.2695 4.1237
" />
<path d="M13.2695 4.1237
L13.1561 4.0633
" />
<path d="M13.1561 4.0633
L12.9142 4.0633
" />
<path d="M12.9142 4.0633
L12.7856 4.1237
" />
<path d="M13.2392 4.8495
L13.1107 4.9099
" />
<path d="M13.1107 4.9099
L12.8083 4.9099
" />
<path d="M12.8083 4.9099
L12.6949 4.8495
" />
<path d="M12.6949 4.8495
L12.6496 4.7285
" />
<path d="M12.6496 4.7285
L12.6647 4.6075
" />
<path d="M12.6647 4.6075
L12.7403 4.4866
" />
<path d="M12.7403 4.4866
L12.8688 4.4261
" />
<path d="M12.8688 4.4261
L13.1712 4.4261
" />
<path d="M13.1712 4.4261
L13.2997 4.3656
" />
<path d="M14.3882 4.8495
L14.2597 4.9099
" />
<path d="M14.2597 4.9099
L14.0178 4.9099
" />
<path d="M14.0178 4.9099
L13.9044 4.8495
" />
<path d="M13.9044 4.8495
L13.8515 4.7890
" />
<path d="M13.8515 4.7890
L13.8061 4.6680
" />
<path d="M13.8061 4.6680
L13.8515 4.3052
" />
<path d="M13.8515 4.3052
L13.9271 4.1842
" />
<path d="M13.9271 4.1842
L13.9951 4.1237
" />
<path d="M13.9951 4.1237
L14.1236 4.0633
" />
<path d="M14.1236 4.0633
L14.3655 4.0633
" />
<path d="M14.3655 4.0633
L14.4789 4.1237
" />
<path d="M14.9250 4.9099
L15.0837 3.6399
" />
<path d="M15.1064 4.4261
L15.4088 4.9099
" />
<path d="M15.5146 4.0633
L14.9703 4.5471
" />
<path d="M16.4974 4.9099
L16.5805 4.2447
" />
<path d="M16.5805 4.2447
L16.5352 4.1237
" />
<path d="M16.5352 4.1237
L16.4218 4.0633
" />
<path d="M16.4218 4.0633
L16.1799 4.0633
" />
<path d="M16.1799 4.0633
L16.0513 4.1237
" />
<path d="M16.5049 4.8495
L16.3764 4.9099
" />
<path d="M16.3764 4.9099
L16.0740 4.9099
" />
<path d="M16.0740 4.9099
L15.9606 4.8495
" />
<path d="M15.9606 4.8495
L15.9153 4.7285
" />
<path d="M15.9153 4.7285
L15.9304 4.6075
" />
<path d="M15.9304 4.6075
L16.0060 4.4866
" />
<path d="M16.0060 4.4866
L16.1345 4.4261
" />
<path d="M16.1345 4.4261
L16.4369 4.4261
" />
<path d="M16.4369 4.4261
L16.5654 4.3656
" />
<path d="M17.7522 4.0633
L17.6237 5.0914
" />
<path d="M17.6237 5.0914
L17.5481 5.2123
" />
<path d="M17.5481 5.2123
L17.4800 5.2728
" />
<path d="M17.4800 5.2728
L17.3515 5.3333
" />
<path d="M17.3515 5.3333
L17.1701 5.3333
" />
<path d="M17.1701 5.3333
L17.0567 5.2728
" />
<path d="M17.6539 4.8495
L17.5254 4.9099
" />
<path d="M17.5254 4.9099
L17.2835 4.9099
" />
<path d="M17.2835 4.9099
L17.1701 4.8495
" />
<path d="M17.1701 4.8495
L17.1172 4.7890
" />
<path d="M17.1172 4.7890
L17.0718 4.6680
" />
<path d="M17.0718 4.6680
L17.1172 4.3052
" />
<path d="M17.1172 4.3052
L17.1928 4.1842
" />
<path d="M17.1928 4.1842
L17.2608 4.1237
" />
<path d="M17.2608 4.1237
L17.3893 4.0633
" />
<path d="M17.3893 4.0633
L17.6312 4.0633
" />
<path d="M17.6312 4.0633
L17.7446 4.1237
" />
<path d="M18.7424 4.8495
L18.6139 4.9099
" />
<path d="M18.6139 4.9099
L18.3720 4.9099
" />
<path d="M18.3720 4.9099
L18.2586 4.8495
" />
<path d="M18.2586 4.8495
L18.2133 4.7285
" />
<path d="M18.2133 4.7285
L18.2738 4.2447
" />
<path d="M18.2738 4.2447
L18.3493 4.1237
" />
<path d="M18.3493 4.1237
L18.4779 4.0633
" />
<path d="M18.4779 4.0633
L18.7198 4.0633
" />
<path d="M18.7198 4.0633
L18.8332 4.1237
" />
<path d="M18.8332 4.1237
L18.8785 4.2447
" />
<path d="M18.8785 4.2447
L18.8634 4.3656
" />
<path d="M18.8634 4.3656
L18.2435 4.4866
" />
<path d="M19.0222 5.0309
L19.9898 5.0309
" />
<path d="M20.2846 3.6399
L21.0103 3.6399
" />
<path d="M20.4887 4.9099
L20.6475 3.6399
" />
<path d="M21.6755 3.6399
L21.9174 3.6399
" />
<path d="M21.9174 3.6399
L22.0308 3.7004
" />
<path d="M22.0308 3.7004
L22.1367 3.8214
" />
<path d="M22.1367 3.8214
L22.1669 4.0633
" />
<path d="M22.1669 4.0633
L22.1140 4.4866
" />
<path d="M22.1140 4.4866
L22.0233 4.7285
" />
<path d="M22.0233 4.7285
L21.8872 4.8495
" />
<path d="M21.8872 4.8495
L21.7587 4.9099
" />
<path d="M21.7587 4.9099
L21.5168 4.9099
" />
<path d="M21.5168 4.9099
L21.4034 4.8495
" />
<path d="M21.4034 4.8495
L21.2976 4.7285
" />
<path d="M21.2976 4.7285
L21.2673 4.4866
" />
<path d="M21.2673 4.4866
L21.3202 4.0633
" />
<path d="M21.3202 4.0633
L21.4109 3.8214
" />
<path d="M21.4109 3.8214
L21.5470 3.7004
" />
<path d="M21.5470 3.7004
L21.6755 3.6399
" />
<path d="M22.2879 5.0309
L23.2555 5.0309
" />
<path d="M23.5201 4.8495
L23.6939 4.9099
" />
<path d="M23.6939 4.9099
L23.9963 4.9099
" />
<path d="M23.9963 4.9099
L24.1248 4.8495
" />
<path d="M24.1248 4.8495
L24.1929 4.7890
" />
<path d="M24.1929 4.7890
L24.2684 4.6680
" />
<path d="M24.2684 4.6680
L24.2836 4.5471
" />
<path d="M24.2836 4.5471
L24.2382 4.4261
" />
<path d="M24.2382 4.4261
L24.1853 4.3656
" />
<path d="M24.1853 4.3656
L24.0719 4.3052
" />
<path d="M24.0719 4.3052
L23.8376 4.2447
" />
<path d="M23.8376 4.2447
L23.7242 4.1842
" />
<path d="M23.7242 4.1842
L23.6712 4.1237
" />
<path d="M23.6712 4.1237
L23.6259 4.0028
" />
<path d="M23.6259 4.0028
L23.6410 3.8818
" />
<path d="M23.6410 3.8818
L23.7166 3.7609
" />
<path d="M23.7166 3.7609
L23.7846 3.7004
" />
<path d="M23.7846 3.7004
L23.9132 3.6399
" />
<path d="M23.9132 3.6399
L24.2155 3.6399
" />
<path d="M24.2155 3.6399
L24.3894 3.7004
" />
<path d="M25.1831 3.6399
L25.4250 3.6399
" />
<path d="M25.4250 3.6399
L25.5384 3.7004
" />
<path d="M25.5384 3.7004
L25.6443 3.8214
" />
<path d="M25.6443 3.8214
L25.6745 4.0633
" />
<path d="M25.6745 4.0633
L25.6216 4.4866
" />
<path d="M25.6216 4.4866
L25.5309 4.7285
" />
<path d="M25.5309 4.7285
L25.3948 4.8495
" />
<path d="M25.3948 4.8495
L25.2663 4.9099
" />
<path d="M25.2663 4.9099
L25.0244 4.9099
" />
<path d="M25.0244 4.9099
L24.9110 4.8495
" />
<path d="M24.9110 4.8495
L24.8052 4.7285
" />
<path d="M24.8052 4.7285
L24.7749 4.4866
" />
<path d="M24.7749 4.4866
L24.8278 4.0633
" />
<path d="M24.8278 4.0633
L24.9185 3.8214
" />
<path d="M24.9185 3.8214
L25.0546 3.7004
" />
<path d="M25.0546 3.7004
L25.1831 3.6399
" />
<path d="M26.0903 3.6399
L26.8160 3.6399
" />
<path d="M26.2944 4.9099
L26.4532 3.6399
" />
<path d="M26.7631 5.0309
L27.7307 5.0309
" />
<path d="M27.9953 4.8495
L28.1691 4.9099
" />
<path d="M28.1691 4.9099
L28.4715 4.9099
" />
<path d="M28.4715 4.9099
L28.6000 4.8495
" />
<path d="M28.6000 4.8495
L28.6681 4.7890
" />
<path d="M28.6681 4.7890
L28.7436 4.6680
" />
<path d="M28.7436 4.6680
L28.7588 4.5471
" />
<path d="M28.7588 4.5471
L28.7134 4.4261
" />
<path d="M28.7134 4.4261
L28.6605 4.3656
" />
<path d="M28.6605 4.3656
L28.5471 4.3052
" />
<path d="M28.5471 4.3052
L28.3128 4.2447
" />
<path d="M28.3128 4.2447
L28.1994 4.1842
" />
<path d="M28.1994 4.1842
L28.1464 4.1237
" />
<path d="M28.1464 4.1237
L28.1011 4.0028
" />
<path d="M28.1011 4.0028
L28.1162 3.8818
" />
<path d="M28.1162 3.8818
L28.1918 3.7609
" />
<path d="M28.1918 3.7609
L28.2598 3.7004
" />
<path d="M28.2598 3.7004
L28.3884 3.6399
" />
<path d="M28.3884 3.6399
L28.6907 3.6399
" />
<path d="M28.6907 3.6399
L28.8646 3.7004
" />
<path d="M29.2577 4.9099
L29.4164 3.6399
" />
<path d="M29.4164 3.6399
L29.7264 4.5471
" />
<path d="M29.7264 4.5471
L30.2631 3.6399
" />
<path d="M30.2631 3.6399
L30.1043 4.9099
" />
<path d="M30.7091 4.9099
L30.8678 3.6399
" />
<path d="M30.8678 3.6399
L31.1702 3.6399
" />
<path d="M31.1702 3.6399
L31.3441 3.7004
" />
<path d="M31.3441 3.7004
L31.4499 3.8214
" />
<path d="M31.4499 3.8214
L31.4953 3.9423
" />
<path d="M31.4953 3.9423
L31.5255 4.1842
" />
<path d="M31.5255 4.1842
L31.5028 4.3656
" />
<path d="M31.5028 4.3656
L31.4121 4.6075
" />
<path d="M31.4121 4.6075
L31.3365 4.7285
" />
<path d="M31.3365 4.7285
L31.2004 4.8495
" />
<path d="M31.2004 4.8495
L31.0115 4.9099
" />
<path d="M31.0115 4.9099
L30.7091 4.9099
" />
<path d="M31.9942 4.7890
L32.0471 4.8495
" />
<path d="M32.0471 4.8495
L31.9791 4.9099
" />
<path d="M31.9791 4.9099
L31.9262 4.8495
" />
<path d="M31.9262 4.8495
L31.9942 4.7890
" />
<path d="M31.9942 4.7890
L31.9791 4.9099
" />
<path d="M32.0773 4.1237
L32.1303 4.1842
" />
<path d="M32.1303 4.1842
L32.0622 4.2447
" />
<path d="M32.0622 4.2447
L32.0093 4.1842
" />
<path d="M32.0093 4.1842
L32.0773 4.1237
" />
<path d="M32.0773 4.1237
L32.0622 4.2447
" />
<path d="M32.5310 4.8495
L32.7048 4.9099
" />
<path d="M32.7048 4.9099
L33.0072 4.9099
" />
<path d="M33.0072 4.9099
L33.1357 4.8495
" />
<path d="M33.1357 4.8495
L33.2038 4.7890
" />
<path d="M33.2038 4.7890
L33.2793 4.6680
" />
<path d="M33.2793 4.6680
L33.2945 4.5471
" />
<path d="M33.2945 4.5471
L33.2491 4.4261
" />
<path d="M33.2491 4.4261
L33.1962 4.3656
" />
<path d="M33.1962 4.3656
L33.0828 4.3052
" />
<path d="M33.0828 4.3052
L32.8485 4.2447
" />
<path d="M32.8485 4.2447
L32.7351 4.1842
" />
<path d="M32.7351 4.1842
L32.6821 4.1237
" />
<path d="M32.6821 4.1237
L32.6368 4.0028
" />
<path d="M32.6368 4.0028
L32.6519 3.8818
" />
<path d="M32.6519 3.8818
L32.7275 3.7609
" />
<path d="M32.7275 3.7609
L32.7955 3.7004
" />
<path d="M32.7955 3.7004
L32.9241 3.6399
" />
<path d="M32.9241 3.6399
L33.2264 3.6399
" />
<path d="M33.2264 3.6399
L33.4003 3.7004
" />
<path d="M34.1940 3.6399
L34.4359 3.6399
" />
<path d="M34.4359 3.6399
L34.5493 3.7004
" />
<path d="M34.5493 3.7004
L34.6552 3.8214
" />
<path d="M34.6552 3.8214
L34.6854 4.0633
" />
<path d="M34.6854 4.0633
L34.6325 4.4866
" />
<path d="M34.6325 4.4866
L34.5418 4.7285
" />
<path d="M34.5418 4.7285
L34.4057 4.8495
" />
<path d="M34.4057 4.8495
L34.2772 4.9099
" />
<path d="M34.2772 4.9099
L34.0353 4.9099
" />
<path d="M34.0353 4.9099
L33.9219 4.8495
" />
<path d="M33.9219 4.8495
L33.8161 4.7285
" />
<path d="M33.8161 4.7285
L33.7858 4.4866
" />
<path d="M33.7858 4.4866
L33.8387 4.0633
" />
<path d="M33.8387 4.0633
L33.9294 3.8214
" />
<path d="M33.9294 3.8214
L34.0655 3.7004
" />
<path d="M34.0655 3.7004
L34.1940 3.6399
" />
<path d="M35.1012 3.6399
L35.8269 3.6399
" />
<path d="M35.3053 4.9099
L35.4641 3.6399
" />
<path d="M36.1519 4.4261
L37.1196 4.4261
" />
<path d="M37.9360 4.1842
L37.8226 4.1237
" />
<path d="M37.8226 4.1237
L37.7697 4.0633
" />
<path d="M37.7697 4.0633
L37.7243 3.9423
" />
<path d="M37.7243 3.9423
L37.7319 3.8818
" />
<path d="M37.7319 3.8818
L37.8075 3.7609
" />
<path d="M37.8075 3.7609
L37.8755 3.7004
" />
<path d="M37.8755 3.7004
L38.0041 3.6399
" />
<path d="M38.0041 3.6399
L38.2460 3.6399
" />
<path d="M38.2460 3.6399
L38.3593 3.7004
" />
<path d="M38.3593 3.7004
L38.4123 3.7609
" />
<path d="M38.4123 3.7609
L38.4576 3.8818
" />
<path d="M38.4576 3.8818
L38.4501 3.9423
" />
<path d="M38.4501 3.9423
L38.3745 4.0633
" />
<path d="M38.3745 4.0633
L38.3064 4.1237
" />
<path d="M38.3064 4.1237
L38.1779 4.1842
" />
<path d="M38.1779 4.1842
L37.9360 4.1842
" />
<path d="M37.9360 4.1842
L37.8075 4.2447
" />
<path d="M37.8075 4.2447
L37.7395 4.3052
" />
<path d="M37.7395 4.3052
L37.6639 4.4261
" />
<path d="M37.6639 4.4261
L37.6336 4.6680
" />
<path d="M37.6336 4.6680
L37.6790 4.7890
" />
<path d="M37.6790 4.7890
L37.7319 4.8495
" />
<path d="M37.7319 4.8495
L37.8453 4.9099
" />
<path d="M37.8453 4.9099
L38.0872 4.9099
" />
<path d="M38.0872 4.9099
L38.2157 4.8495
" />
<path d="M38.2157 4.8495
L38.2838 4.7890
" />
<path d="M38.2838 4.7890
L38.3593 4.6680
" />
<path d="M38.3593 4.6680
L38.3896 4.4261
" />
<path d="M38.3896 4.4261
L38.3442 4.3052
" />
<path d="M38.3442 4.3052
L38.2913 4.2447
" />
<path d="M38.2913 4.2447
L38.1779 4.1842
" />
<path d="M38.9338 4.9099
L39.1758 4.9099
" />
<path d="M39.1758 4.9099
L39.3043 4.8495
" />
<path d="M39.3043 4.8495
L39.3723 4.7890
" />
<path d="M39.3723 4.7890
L39.5159 4.6075
" />
<path d="M39.5159 4.6075
L39.6066 4.3656
" />
<path d="M39.6066 4.3656
L39.6671 3.8818
" />
<path d="M39.6671 3.8818
L39.6218 3.7609
" />
<path d="M39.6218 3.7609
L39.5688 3.7004
" />
<path d="M39.5688 3.7004
L39.4555 3.6399
" />
<path d="M39.4555 3.6399
L39.2136 3.6399
" />
<path d="M39.2136 3.6399
L39.0850 3.7004
" />
<path d="M39.0850 3.7004
L39.0170 3.7609
" />
<path d="M39.0170 3.7609
L38.9414 3.8818
" />
<path d="M38.9414 3.8818
L38.9036 4.1842
" />
<path d="M38.9036 4.1842
L38.9490 4.3052
" />
<path d="M38.9490 4.3052
L39.0019 4.3656
" />
<path d="M39.0019 4.3656
L39.1153 4.4261
" />
<path d="M39.1153 4.4261
L39.3572 4.4261
" />
<path d="M39.3572 4.4261
L39.4857 4.3656
" />
<path d="M39.4857 4.3656
L39.5537 4.3052
" />
<path d="M39.5537 4.3052
L39.6293 4.1842
" />
<path d="M40.1433 4.4261
L41.1110 4.4261
" />
<path d="M41.6931 3.6399
L42.4793 3.6399
" />
<path d="M42.4793 3.6399
L41.9955 4.1237
" />
<path d="M41.9955 4.1237
L42.1769 4.1237
" />
<path d="M42.1769 4.1237
L42.2903 4.1842
" />
<path d="M42.2903 4.1842
L42.3432 4.2447
" />
<path d="M42.3432 4.2447
L42.3885 4.3656
" />
<path d="M42.3885 4.3656
L42.3507 4.6680
" />
<path d="M42.3507 4.6680
L42.2752 4.7890
" />
<path d="M42.2752 4.7890
L42.2071 4.8495
" />
<path d="M42.2071 4.8495
L42.0786 4.9099
" />
<path d="M42.0786 4.9099
L41.7157 4.9099
" />
<path d="M41.7157 4.9099
L41.6024 4.8495
" />
<path d="M41.6024 4.8495
L41.5494 4.7890
" />
</g><text x="26.7669" y="11.3157"
textLength="44.6117" font-size="1.6933" lengthAdjust="spacingAndGlyphs"
text-anchor="middle" opacity="0">http://www.ti.com/lit/ds/symlink/lm317l.pdf</text>
<g class="stroked-text"><desc>http://www.ti.com/lit/ds/symlink/lm317l.pdf</desc>
<path d="M4.8746 11.2599
L4.8746 9.9899
" />
<path d="M5.4189 11.2599
L5.4189 10.5947
" />
<path d="M5.4189 10.5947
L5.3584 10.4737
" />
<path d="M5.3584 10.4737
L5.2375 10.4133
" />
<path d="M5.2375 10.4133
L5.0561 10.4133
" />
<path d="M5.0561 10.4133
L4.9351 10.4737
" />
<path d="M4.9351 10.4737
L4.8746 10.5342
" />
<path d="M5.8422 10.4133
L6.3260 10.4133
" />
<path d="M6.0236 9.9899
L6.0236 11.0785
" />
<path d="M6.0236 11.0785
L6.0841 11.1995
" />
<path d="M6.0841 11.1995
L6.2051 11.2599
" />
<path d="M6.2051 11.2599
L6.3260 11.2599
" />
<path d="M6.5679 10.4133
L7.0517 10.4133
" />
<path d="M6.7493 9.9899
L6.7493 11.0785
" />
<path d="M6.7493 11.0785
L6.8098 11.1995
" />
<path d="M6.8098 11.1995
L6.9308 11.2599
" />
<path d="M6.9308 11.2599
L7.0517 11.2599
" />
<path d="M7.4750 10.4133
L7.4750 11.6833
" />
<path d="M7.4750 10.4737
L7.5960 10.4133
" />
<path d="M7.5960 10.4133
L7.8379 10.4133
" />
<path d="M7.8379 10.4133
L7.9588 10.4737
" />
<path d="M7.9588 10.4737
L8.0193 10.5342
" />
<path d="M8.0193 10.5342
L8.0798 10.6552
" />
<path d="M8.0798 10.6552
L8.0798 11.0180
" />
<path d="M8.0798 11.0180
L8.0193 11.1390
" />
<path d="M8.0193 11.1390
L7.9588 11.1995
" />
<path d="M7.9588 11.1995
L7.8379 11.2599
" />
<path d="M7.8379 11.2599
L7.5960 11.2599
" />
<path d="M7.5960 11.2599
L7.4750 11.1995
" />
<path d="M8.6240 11.1390
L8.6845 11.1995
" />
<path d="M8.6845 11.1995
L8.6240 11.2599
" />
<path d="M8.6240 11.2599
L8.5636 11.1995
" />
<path d="M8.5636 11.1995
L8.6240 11.1390
" />
<path d="M8.6240 11.1390
L8.6240 11.2599
" />
<path d="M8.6240 10.4737
L8.6845 10.5342
" />
<path d="M8.6845 10.5342
L8.6240 10.5947
" />
<path d="M8.6240 10.5947
L8.5636 10.5342
" />
<path d="M8.5636 10.5342
L8.6240 10.4737
" />
<path d="M8.6240 10.4737
L8.6240 10.5947
" />
<path d="M10.1360 9.9295
L9.0474 11.5623
" />
<path d="M11.4665 9.9295
L10.3779 11.5623
" />
<path d="M11.7689 10.4133
L12.0108 11.2599
" />
<path d="M12.0108 11.2599
L12.2527 10.6552
" />
<path d="M12.2527 10.6552
L12.4946 11.2599
" />
<path d="M12.4946 11.2599
L12.7365 10.4133
" />
<path d="M13.0994 10.4133
L13.3413 11.2599
" />
<path d="M13.3413 11.2599
L13.5832 10.6552
" />
<path d="M13.5832 10.6552
L13.8251 11.2599
" />
<path d="M13.8251 11.2599
L14.0670 10.4133
" />
<path d="M14.4299 10.4133
L14.6718 11.2599
" />
<path d="M14.6718 11.2599
L14.9137 10.6552
" />
<path d="M14.9137 10.6552
L15.1556 11.2599
" />
<path d="M15.1556 11.2599
L15.3975 10.4133
" />
<path d="M15.8813 11.1390
L15.9418 11.1995
" />
<path d="M15.9418 11.1995
L15.8813 11.2599
" />
<path d="M15.8813 11.2599
L15.8209 11.1995
" />
<path d="M15.8209 11.1995
L15.8813 11.1390
" />
<path d="M15.8813 11.1390
L15.8813 11.2599
" />
<path d="M16.3047 10.4133
L16.7885 10.4133
" />
<path d="M16.4861 9.9899
L16.4861 11.0785
" />
<path d="M16.4861 11.0785
L16.5466 11.1995
" />
<path d="M16.5466 11.1995
L16.6676 11.2599
" />
<path d="M16.6676 11.2599
L16.7885 11.2599
" />
<path d="M17.2118 11.2599
L17.2118 10.4133
" />
<path d="M17.2118 9.9899
L17.1514 10.0504
" />
<path d="M17.1514 10.0504
L17.2118 10.1109
" />
<path d="M17.2118 10.1109
L17.2723 10.0504
" />
<path d="M17.2723 10.0504
L17.2118 9.9899
" />
<path d="M17.2118 9.9899
L17.2118 10.1109
" />
<path d="M17.8166 11.1390
L17.8771 11.1995
" />
<path d="M17.8771 11.1995
L17.8166 11.2599
" />
<path d="M17.8166 11.2599
L17.7562 11.1995
" />
<path d="M17.7562 11.1995
L17.8166 11.1390
" />
<path d="M17.8166 11.1390
L17.8166 11.2599
" />
<path d="M18.9657 11.1995
L18.8448 11.2599
" />
<path d="M18.8448 11.2599
L18.6029 11.2599
" />
<path d="M18.6029 11.2599
L18.4819 11.1995
" />
<path d="M18.4819 11.1995
L18.4214 11.1390
" />
<path d="M18.4214 11.1390
L18.3610 11.0180
" />
<path d="M18.3610 11.0180
L18.3610 10.6552
" />
<path d="M18.3610 10.6552
L18.4214 10.5342
" />
<path d="M18.4214 10.5342
L18.4819 10.4737
" />
<path d="M18.4819 10.4737
L18.6029 10.4133
" />
<path d="M18.6029 10.4133
L18.8448 10.4133
" />
<path d="M18.8448 10.4133
L18.9657 10.4737
" />
<path d="M19.6915 11.2599
L19.5705 11.1995
" />
<path d="M19.5705 11.1995
L19.5100 11.1390
" />
<path d="M19.5100 11.1390
L19.4496 11.0180
" />
<path d="M19.4496 11.0180
L19.4496 10.6552
" />
<path d="M19.4496 10.6552
L19.5100 10.5342
" />
<path d="M19.5100 10.5342
L19.5705 10.4737
" />
<path d="M19.5705 10.4737
L19.6915 10.4133
" />
<path d="M19.6915 10.4133
L19.8729 10.4133
" />
<path d="M19.8729 10.4133
L19.9938 10.4737
" />
<path d="M19.9938 10.4737
L20.0543 10.5342
" />
<path d="M20.0543 10.5342
L20.1148 10.6552
" />
<path d="M20.1148 10.6552
L20.1148 11.0180
" />
<path d="M20.1148 11.0180
L20.0543 11.1390
" />
<path d="M20.0543 11.1390
L19.9938 11.1995
" />
<path d="M19.9938 11.1995
L19.8729 11.2599
" />
<path d="M19.8729 11.2599
L19.6915 11.2599
" />
<path d="M20.6590 11.2599
L20.6590 10.4133
" />
<path d="M20.6590 10.5342
L20.7195 10.4737
" />
<path d="M20.7195 10.4737
L20.8405 10.4133
" />
<path d="M20.8405 10.4133
L21.0219 10.4133
" />
<path d="M21.0219 10.4133
L21.1428 10.4737
" />
<path d="M21.1428 10.4737
L21.2033 10.5947
" />
<path d="M21.2033 10.5947
L21.2033 11.2599
" />
<path d="M21.2033 10.5947
L21.2638 10.4737
" />
<path d="M21.2638 10.4737
L21.3847 10.4133
" />
<path d="M21.3847 10.4133
L21.5662 10.4133
" />
<path d="M21.5662 10.4133
L21.6871 10.4737
" />
<path d="M21.6871 10.4737
L21.7476 10.5947
" />
<path d="M21.7476 10.5947
L21.7476 11.2599
" />
<path d="M23.2595 9.9295
L22.1709 11.5623
" />
<path d="M23.8643 11.2599
L23.7433 11.1995
" />
<path d="M23.7433 11.1995
L23.6828 11.0785
" />
<path d="M23.6828 11.0785
L23.6828 9.9899
" />
<path d="M24.3480 11.2599
L24.3480 10.4133
" />
<path d="M24.3480 9.9899
L24.2876 10.0504
" />
<path d="M24.2876 10.0504
L24.3480 10.1109
" />
<path d="M24.3480 10.1109
L24.4085 10.0504
" />
<path d="M24.4085 10.0504
L24.3480 9.9899
" />
<path d="M24.3480 9.9899
L24.3480 10.1109
" />
<path d="M24.7714 10.4133
L25.2552 10.4133
" />
<path d="M24.9528 9.9899
L24.9528 11.0785
" />
<path d="M24.9528 11.0785
L25.0133 11.1995
" />
<path d="M25.0133 11.1995
L25.1343 11.2599
" />
<path d="M25.1343 11.2599
L25.2552 11.2599
" />
<path d="M26.5857 9.9295
L25.4971 11.5623
" />
<path d="M27.5533 11.2599
L27.5533 9.9899
" />
<path d="M27.5533 11.1995
L27.4324 11.2599
" />
<path d="M27.4324 11.2599
L27.1905 11.2599
" />
<path d="M27.1905 11.2599
L27.0695 11.1995
" />
<path d="M27.0695 11.1995
L27.0090 11.1390
" />
<path d="M27.0090 11.1390
L26.9486 11.0180
" />
<path d="M26.9486 11.0180
L26.9486 10.6552
" />
<path d="M26.9486 10.6552
L27.0090 10.5342
" />
<path d="M27.0090 10.5342
L27.0695 10.4737
" />
<path d="M27.0695 10.4737
L27.1905 10.4133
" />
<path d="M27.1905 10.4133
L27.4324 10.4133
" />
<path d="M27.4324 10.4133
L27.5533 10.4737
" />
<path d="M28.0976 11.1995
L28.2185 11.2599
" />
<path d="M28.2185 11.2599
L28.4604 11.2599
" />
<path d="M28.4604 11.2599
L28.5814 11.1995
" />
<path d="M28.5814 11.1995
L28.6418 11.0785
" />
<path d="M28.6418 11.0785
L28.6418 11.0180
" />
<path d="M28.6418 11.0180
L28.5814 10.8971
" />
<path d="M28.5814 10.8971
L28.4604 10.8366
" />
<path d="M28.4604 10.8366
L28.2790 10.8366
" />
<path d="M28.2790 10.8366
L28.1580 10.7761
" />
<path d="M28.1580 10.7761
L28.0976 10.6552
" />
<path d="M28.0976 10.6552
L28.0976 10.5947
" />
<path d="M28.0976 10.5947
L28.1580 10.4737
" />
<path d="M28.1580 10.4737
L28.2790 10.4133
" />
<path d="M28.2790 10.4133
L28.4604 10.4133
" />
<path d="M28.4604 10.4133
L28.5814 10.4737
" />
<path d="M30.0933 9.9295
L29.0047 11.5623
" />
<path d="M30.4562 11.1995
L30.5771 11.2599
" />
<path d="M30.5771 11.2599
L30.8190 11.2599
" />
<path d="M30.8190 11.2599
L30.9400 11.1995
" />
<path d="M30.9400 11.1995
L31.0004 11.0785
" />
<path d="M31.0004 11.0785
L31.0004 11.0180
" />
<path d="M31.0004 11.0180
L30.9400 10.8971
" />
<path d="M30.9400 10.8971
L30.8190 10.8366
" />
<path d="M30.8190 10.8366
L30.6376 10.8366
" />
<path d="M30.6376 10.8366
L30.5166 10.7761
" />
<path d="M30.5166 10.7761
L30.4562 10.6552
" />
<path d="M30.4562 10.6552
L30.4562 10.5947
" />
<path d="M30.4562 10.5947
L30.5166 10.4737
" />
<path d="M30.5166 10.4737
L30.6376 10.4133
" />
<path d="M30.6376 10.4133
L30.8190 10.4133
" />
<path d="M30.8190 10.4133
L30.9400 10.4737
" />
<path d="M31.4238 10.4133
L31.7262 11.2599
" />
<path d="M32.0285 10.4133
L31.7262 11.2599
" />
<path d="M31.7262 11.2599
L31.6052 11.5623
" />
<path d="M31.6052 11.5623
L31.5447 11.6228
" />
<path d="M31.5447 11.6228
L31.4238 11.6833
" />
<path d="M32.5123 11.2599
L32.5123 10.4133
" />
<path d="M32.5123 10.5342
L32.5728 10.4737
" />
<path d="M32.5728 10.4737
L32.6938 10.4133
" />
<path d="M32.6938 10.4133
L32.8752 10.4133
" />
<path d="M32.8752 10.4133
L32.9961 10.4737
" />
<path d="M32.9961 10.4737
L33.0566 10.5947
" />
<path d="M33.0566 10.5947
L33.0566 11.2599
" />
<path d="M33.0566 10.5947
L33.1171 10.4737
" />
<path d="M33.1171 10.4737
L33.2380 10.4133
" />
<path d="M33.2380 10.4133
L33.4195 10.4133
" />
<path d="M33.4195 10.4133
L33.5404 10.4737
" />
<path d="M33.5404 10.4737
L33.6009 10.5947
" />
<path d="M33.6009 10.5947
L33.6009 11.2599
" />
<path d="M34.3871 11.2599
L34.2661 11.1995
" />
<path d="M34.2661 11.1995
L34.2056 11.0785
" />
<path d="M34.2056 11.0785
L34.2056 9.9899
" />
<path d="M34.8708 11.2599
L34.8708 10.4133
" />
<path d="M34.8708 9.9899
L34.8104 10.0504
" />
<path d="M34.8104 10.0504
L34.8708 10.1109
" />
<path d="M34.8708 10.1109
L34.9313 10.0504
" />
<path d="M34.9313 10.0504
L34.8708 9.9899
" />
<path d="M34.8708 9.9899
L34.8708 10.1109
" />
<path d="M35.4756 10.4133
L35.4756 11.2599
" />
<path d="M35.4756 10.5342
L35.5361 10.4737
" />
<path d="M35.5361 10.4737
L35.6571 10.4133
" />
<path d="M35.6571 10.4133
L35.8385 10.4133
" />
<path d="M35.8385 10.4133
L35.9594 10.4737
" />
<path d="M35.9594 10.4737
L36.0199 10.5947
" />
<path d="M36.0199 10.5947
L36.0199 11.2599
" />
<path d="M36.6246 11.2599
L36.6246 9.9899
" />
<path d="M36.7456 10.7761
L37.1084 11.2599
" />
<path d="M37.1084 10.4133
L36.6246 10.8971
" />
<path d="M38.5599 9.9295
L37.4713 11.5623
" />
<path d="M39.1647 11.2599
L39.0437 11.1995
" />
<path d="M39.0437 11.1995
L38.9832 11.0785
" />
<path d="M38.9832 11.0785
L38.9832 9.9899
" />
<path d="M39.6484 11.2599
L39.6484 10.4133
" />
<path d="M39.6484 10.5342
L39.7089 10.4737
" />
<path d="M39.7089 10.4737
L39.8299 10.4133
" />
<path d="M39.8299 10.4133
L40.0113 10.4133
" />
<path d="M40.0113 10.4133
L40.1322 10.4737
" />
<path d="M40.1322 10.4737
L40.1927 10.5947
" />
<path d="M40.1927 10.5947
L40.1927 11.2599
" />
<path d="M40.1927 10.5947
L40.2532 10.4737
" />
<path d="M40.2532 10.4737
L40.3741 10.4133
" />
<path d="M40.3741 10.4133
L40.5556 10.4133
" />
<path d="M40.5556 10.4133
L40.6765 10.4737
" />
<path d="M40.6765 10.4737
L40.7370 10.5947
" />
<path d="M40.7370 10.5947
L40.7370 11.2599
" />
<path d="M41.2208 9.9899
L42.0070 9.9899
" />
<path d="M42.0070 9.9899
L41.5836 10.4737
" />
<path d="M41.5836 10.4737
L41.7651 10.4737
" />
<path d="M41.7651 10.4737
L41.8860 10.5342
" />
<path d="M41.8860 10.5342
L41.9465 10.5947
" />
<path d="M41.9465 10.5947
L42.0070 10.7156
" />
<path d="M42.0070 10.7156
L42.0070 11.0180
" />
<path d="M42.0070 11.0180
L41.9465 11.1390
" />
<path d="M41.9465 11.1390
L41.8860 11.1995
" />
<path d="M41.8860 11.1995
L41.7651 11.2599
" />
<path d="M41.7651 11.2599
L41.4022 11.2599
" />
<path d="M41.4022 11.2599
L41.2813 11.1995
" />
<path d="M41.2813 11.1995
L41.2208 11.1390
" />
<path d="M43.2165 11.2599
L42.4908 11.2599
" />
<path d="M42.8536 11.2599
L42.8536 9.9899
" />
<path d="M42.8536 9.9899
L42.7327 10.1714
" />
<path d="M42.7327 10.1714
L42.6117 10.2923
" />
<path d="M42.6117 10.2923
L42.4908 10.3528
" />
<path d="M43.6398 9.9899
L44.4864 9.9899
" />
<path d="M44.4864 9.9899
L43.9422 11.2599
" />
<path d="M45.1517 11.2599
L45.0307 11.1995
" />
<path d="M45.0307 11.1995
L44.9702 11.0785
" />
<path d="M44.9702 11.0785
L44.9702 9.9899
" />
<path d="M45.6354 11.1390
L45.6959 11.1995
" />
<path d="M45.6959 11.1995
L45.6354 11.2599
" />
<path d="M45.6354 11.2599
L45.5750 11.1995
" />
<path d="M45.5750 11.1995
L45.6354 11.1390
" />
<path d="M45.6354 11.1390
L45.6354 11.2599
" />
<path d="M46.2402 10.4133
L46.2402 11.6833
" />
<path d="M46.2402 10.4737
L46.3612 10.4133
" />
<path d="M46.3612 10.4133
L46.6031 10.4133
" />
<path d="M46.6031 10.4133
L46.7240 10.4737
" />
<path d="M46.7240 10.4737
L46.7845 10.5342
" />
<path d="M46.7845 10.5342
L46.8450 10.6552
" />
<path d="M46.8450 10.6552
L46.8450 11.0180
" />
<path d="M46.8450 11.0180
L46.7845 11.1390
" />
<path d="M46.7845 11.1390
L46.7240 11.1995
" />
<path d="M46.7240 11.1995
L46.6031 11.2599
" />
<path d="M46.6031 11.2599
L46.3612 11.2599
" />
<path d="M46.3612 11.2599
L46.2402 11.1995
" />
<path d="M47.9335 11.2599
L47.9335 9.9899
" />
<path d="M47.9335 11.1995
L47.8126 11.2599
" />
<path d="M47.8126 11.2599
L47.5707 11.2599
" />
<path d="M47.5707 11.2599
L47.4497 11.1995
" />
<path d="M47.4497 11.1995
L47.3892 11.1390
" />
<path d="M47.3892 11.1390
L47.3288 11.0180
" />
<path d="M47.3288 11.0180
L47.3288 10.6552
" />
<path d="M47.3288 10.6552
L47.3892 10.5342
" />
<path d="M47.3892 10.5342
L47.4497 10.4737
" />
<path d="M47.4497 10.4737
L47.5707 10.4133
" />
<path d="M47.5707 10.4133
L47.8126 10.4133
" />
<path d="M47.8126 10.4133
L47.9335 10.4737
" />
<path d="M48.3568 10.4133
L48.8406 10.4133
" />
<path d="M48.5382 11.2599
L48.5382 10.1714
" />
<path d="M48.5382 10.1714
L48.5987 10.0504
" />
<path d="M48.5987 10.0504
L48.7197 9.9899
" />
<path d="M48.7197 9.9899
L48.8406 9.9899
" />
</g></g> 
</svg>
