<?xml version="1.0" standalone="no"?>
 <!DOCTYPE svg PUBLIC "-//W3C//DTD SVG 1.1//EN" 
 "http://www.w3.org/Graphics/SVG/1.1/DTD/svg11.dtd"> 
<svg
  xmlns:svg="http://www.w3.org/2000/svg"
  xmlns="http://www.w3.org/2000/svg"
  xmlns:xlink="http://www.w3.org/1999/xlink"
  version="1.1"
  width="129.9464mm" height="4.7498mm" viewBox="0.0000 0.0000 129.9464 4.7498">
<title>SVG Image created as working.svg date 2023/08/31 11:23:24 </title>
  <desc>Image generated by Eeschema-SVG </desc>
<g style="fill:#000000; fill-opacity:1.0000;stroke:#000000; stroke-opacity:1.0000;
stroke-linecap:round; stroke-linejoin:round;"
 transform="translate(0 0) scale(1 1)">
</g>
<g style="fill:#840000; fill-opacity:0.0; 
stroke:#840000; stroke-width:0.0000; stroke-opacity:1; 
stroke-linecap:round; stroke-linejoin:round;">
</g>
<g style="fill:#840084; fill-opacity:0.0; 
stroke:#840084; stroke-width:0.0000; stroke-opacity:1; 
stroke-linecap:round; stroke-linejoin:round;">
</g>
<g style="fill:#840000; fill-opacity:0.0; 
stroke:#840000; stroke-width:0.0000; stroke-opacity:1; 
stroke-linecap:round; stroke-linejoin:round;">
</g>
<g style="fill:#840084; fill-opacity:0.0; 
stroke:#840084; stroke-width:0.0000; stroke-opacity:1; 
stroke-linecap:round; stroke-linejoin:round;">
</g>
<g style="fill:#006464; fill-opacity:0.0; 
stroke:#006464; stroke-width:0.0000; stroke-opacity:1; 
stroke-linecap:round; stroke-linejoin:round;">
</g>
<g style="fill:#006464; fill-opacity:0.0; 
stroke:#006464; stroke-width:0.1588; stroke-opacity:1; 
stroke-linecap:round; stroke-linejoin:round;">
<text x="32.5925" y="2.0514"
textLength="2.6415" font-size="1.6933" lengthAdjust="spacingAndGlyphs"
text-anchor="middle" opacity="0">Q?</text>
<g class="stroked-text"><desc>Q?</desc>
<path d="M32.5320 2.1166
L32.4110 2.0561
" />
<path d="M32.4110 2.0561
L32.2901 1.9352
" />
<path d="M32.2901 1.9352
L32.1087 1.7537
" />
<path d="M32.1087 1.7537
L31.9877 1.6932
" />
<path d="M31.9877 1.6932
L31.8668 1.6932
" />
<path d="M31.9272 1.9956
L31.8063 1.9352
" />
<path d="M31.8063 1.9352
L31.6853 1.8142
" />
<path d="M31.6853 1.8142
L31.6249 1.5723
" />
<path d="M31.6249 1.5723
L31.6249 1.1490
" />
<path d="M31.6249 1.1490
L31.6853 0.9071
" />
<path d="M31.6853 0.9071
L31.8063 0.7861
" />
<path d="M31.8063 0.7861
L31.9272 0.7256
" />
<path d="M31.9272 0.7256
L32.1691 0.7256
" />
<path d="M32.1691 0.7256
L32.2901 0.7861
" />
<path d="M32.2901 0.7861
L32.4110 0.9071
" />
<path d="M32.4110 0.9071
L32.4715 1.1490
" />
<path d="M32.4715 1.1490
L32.4715 1.5723
" />
<path d="M32.4715 1.5723
L32.4110 1.8142
" />
<path d="M32.4110 1.8142
L32.2901 1.9352
" />
<path d="M32.2901 1.9352
L32.1691 1.9956
" />
<path d="M32.1691 1.9956
L31.9272 1.9956
" />
<path d="M33.1973 1.8747
L33.2577 1.9352
" />
<path d="M33.2577 1.9352
L33.1973 1.9956
" />
<path d="M33.1973 1.9956
L33.1368 1.9352
" />
<path d="M33.1368 1.9352
L33.1973 1.8747
" />
<path d="M33.1973 1.8747
L33.1973 1.9956
" />
<path d="M32.9554 0.7861
L33.0763 0.7256
" />
<path d="M33.0763 0.7256
L33.3787 0.7256
" />
<path d="M33.3787 0.7256
L33.4996 0.7861
" />
<path d="M33.4996 0.7861
L33.5601 0.9071
" />
<path d="M33.5601 0.9071
L33.5601 1.0280
" />
<path d="M33.5601 1.0280
L33.4996 1.1490
" />
<path d="M33.4996 1.1490
L33.4392 1.2094
" />
<path d="M33.4392 1.2094
L33.3182 1.2699
" />
<path d="M33.3182 1.2699
L33.2577 1.3304
" />
<path d="M33.2577 1.3304
L33.1973 1.4513
" />
<path d="M33.1973 1.4513
L33.1973 1.5118
" />
</g><text x="36.0094" y="3.9564"
textLength="9.4752" font-size="1.6933" lengthAdjust="spacingAndGlyphs"
text-anchor="middle" opacity="0">IRF6716M</text>
<g class="stroked-text"><desc>IRF6716M</desc>
<path d="M31.6853 3.9006
L31.6853 2.6306
" />
<path d="M33.0158 3.9006
L32.5925 3.2959
" />
<path d="M32.2901 3.9006
L32.2901 2.6306
" />
<path d="M32.2901 2.6306
L32.7739 2.6306
" />
<path d="M32.7739 2.6306
L32.8949 2.6911
" />
<path d="M32.8949 2.6911
L32.9554 2.7516
" />
<path d="M32.9554 2.7516
L33.0158 2.8725
" />
<path d="M33.0158 2.8725
L33.0158 3.0540
" />
<path d="M33.0158 3.0540
L32.9554 3.1749
" />
<path d="M32.9554 3.1749
L32.8949 3.2354
" />
<path d="M32.8949 3.2354
L32.7739 3.2959
" />
<path d="M32.7739 3.2959
L32.2901 3.2959
" />
<path d="M33.9835 3.2354
L33.5601 3.2354
" />
<path d="M33.5601 3.9006
L33.5601 2.6306
" />
<path d="M33.5601 2.6306
L34.1649 2.6306
" />
<path d="M35.1930 2.6306
L34.9511 2.6306
" />
<path d="M34.9511 2.6306
L34.8302 2.6911
" />
<path d="M34.8302 2.6911
L34.7697 2.7516
" />
<path d="M34.7697 2.7516
L34.6487 2.9330
" />
<path d="M34.6487 2.9330
L34.5883 3.1749
" />
<path d="M34.5883 3.1749
L34.5883 3.6587
" />
<path d="M34.5883 3.6587
L34.6487 3.7797
" />
<path d="M34.6487 3.7797
L34.7092 3.8402
" />
<path d="M34.7092 3.8402
L34.8302 3.9006
" />
<path d="M34.8302 3.9006
L35.0721 3.9006
" />
<path d="M35.0721 3.9006
L35.1930 3.8402
" />
<path d="M35.1930 3.8402
L35.2535 3.7797
" />
<path d="M35.2535 3.7797
L35.3140 3.6587
" />
<path d="M35.3140 3.6587
L35.3140 3.3563
" />
<path d="M35.3140 3.3563
L35.2535 3.2354
" />
<path d="M35.2535 3.2354
L35.1930 3.1749
" />
<path d="M35.1930 3.1749
L35.0721 3.1144
" />
<path d="M35.0721 3.1144
L34.8302 3.1144
" />
<path d="M34.8302 3.1144
L34.7092 3.1749
" />
<path d="M34.7092 3.1749
L34.6487 3.2354
" />
<path d="M34.6487 3.2354
L34.5883 3.3563
" />
<path d="M35.7373 2.6306
L36.5839 2.6306
" />
<path d="M36.5839 2.6306
L36.0397 3.9006
" />
<path d="M37.7330 3.9006
L37.0073 3.9006
" />
<path d="M37.3701 3.9006
L37.3701 2.6306
" />
<path d="M37.3701 2.6306
L37.2492 2.8121
" />
<path d="M37.2492 2.8121
L37.1282 2.9330
" />
<path d="M37.1282 2.9330
L37.0073 2.9935
" />
<path d="M38.8215 2.6306
L38.5796 2.6306
" />
<path d="M38.5796 2.6306
L38.4587 2.6911
" />
<path d="M38.4587 2.6911
L38.3982 2.7516
" />
<path d="M38.3982 2.7516
L38.2772 2.9330
" />
<path d="M38.2772 2.9330
L38.2168 3.1749
" />
<path d="M38.2168 3.1749
L38.2168 3.6587
" />
<path d="M38.2168 3.6587
L38.2772 3.7797
" />
<path d="M38.2772 3.7797
L38.3377 3.8402
" />
<path d="M38.3377 3.8402
L38.4587 3.9006
" />
<path d="M38.4587 3.9006
L38.7006 3.9006
" />
<path d="M38.7006 3.9006
L38.8215 3.8402
" />
<path d="M38.8215 3.8402
L38.8820 3.7797
" />
<path d="M38.8820 3.7797
L38.9425 3.6587
" />
<path d="M38.9425 3.6587
L38.9425 3.3563
" />
<path d="M38.9425 3.3563
L38.8820 3.2354
" />
<path d="M38.8820 3.2354
L38.8215 3.1749
" />
<path d="M38.8215 3.1749
L38.7006 3.1144
" />
<path d="M38.7006 3.1144
L38.4587 3.1144
" />
<path d="M38.4587 3.1144
L38.3377 3.1749
" />
<path d="M38.3377 3.1749
L38.2772 3.2354
" />
<path d="M38.2772 3.2354
L38.2168 3.3563
" />
<path d="M39.4867 3.9006
L39.4867 2.6306
" />
<path d="M39.4867 2.6306
L39.9101 3.5378
" />
<path d="M39.9101 3.5378
L40.3334 2.6306
" />
<path d="M40.3334 2.6306
L40.3334 3.9006
" />
</g></g>
<g style="fill:#840084; fill-opacity:0.0; 
stroke:#840084; stroke-width:0.1588; stroke-opacity:1; 
stroke-linecap:round; stroke-linejoin:round;">
<text x="26.2712" y="3.9564"
textLength="30.8838" font-size="1.6933" lengthAdjust="spacingAndGlyphs"
text-anchor="middle" opacity="0">Package_DirectFET:DirectFET_MX</text>
<g class="stroked-text"><desc>Package_DirectFET:DirectFET_MX</desc>
<path d="M11.2353 3.9006
L11.3940 2.6306
" />
<path d="M11.3940 2.6306
L11.8778 2.6306
" />
<path d="M11.8778 2.6306
L11.9912 2.6911
" />
<path d="M11.9912 2.6911
L12.0441 2.7516
" />
<path d="M12.0441 2.7516
L12.0895 2.8725
" />
<path d="M12.0895 2.8725
L12.0668 3.0540
" />
<path d="M12.0668 3.0540
L11.9912 3.1749
" />
<path d="M11.9912 3.1749
L11.9232 3.2354
" />
<path d="M11.9232 3.2354
L11.7947 3.2959
" />
<path d="M11.7947 3.2959
L11.3109 3.2959
" />
<path d="M13.0496 3.9006
L13.1327 3.2354
" />
<path d="M13.1327 3.2354
L13.0874 3.1144
" />
<path d="M13.0874 3.1144
L12.9740 3.0540
" />
<path d="M12.9740 3.0540
L12.7321 3.0540
" />
<path d="M12.7321 3.0540
L12.6035 3.1144
" />
<path d="M13.0571 3.8402
L12.9286 3.9006
" />
<path d="M12.9286 3.9006
L12.6262 3.9006
" />
<path d="M12.6262 3.9006
L12.5128 3.8402
" />
<path d="M12.5128 3.8402
L12.4675 3.7192
" />
<path d="M12.4675 3.7192
L12.4826 3.5982
" />
<path d="M12.4826 3.5982
L12.5582 3.4773
" />
<path d="M12.5582 3.4773
L12.6867 3.4168
" />
<path d="M12.6867 3.4168
L12.9891 3.4168
" />
<path d="M12.9891 3.4168
L13.1176 3.3563
" />
<path d="M14.2061 3.8402
L14.0776 3.9006
" />
<path d="M14.0776 3.9006
L13.8357 3.9006
" />
<path d="M13.8357 3.9006
L13.7223 3.8402
" />
<path d="M13.7223 3.8402
L13.6694 3.7797
" />
<path d="M13.6694 3.7797
L13.6240 3.6587
" />
<path d="M13.6240 3.6587
L13.6694 3.2959
" />
<path d="M13.6694 3.2959
L13.7450 3.1749
" />
<path d="M13.7450 3.1749
L13.8130 3.1144
" />
<path d="M13.8130 3.1144
L13.9415 3.0540
" />
<path d="M13.9415 3.0540
L14.1834 3.0540
" />
<path d="M14.1834 3.0540
L14.2968 3.1144
" />
<path d="M14.7429 3.9006
L14.9016 2.6306
" />
<path d="M14.9243 3.4168
L15.2267 3.9006
" />
<path d="M15.3325 3.0540
L14.7882 3.5378
" />
<path d="M16.3153 3.9006
L16.3984 3.2354
" />
<path d="M16.3984 3.2354
L16.3531 3.1144
" />
<path d="M16.3531 3.1144
L16.2397 3.0540
" />
<path d="M16.2397 3.0540
L15.9978 3.0540
" />
<path d="M15.9978 3.0540
L15.8692 3.1144
" />
<path d="M16.3228 3.8402
L16.1943 3.9006
" />
<path d="M16.1943 3.9006
L15.8919 3.9006
" />
<path d="M15.8919 3.9006
L15.7785 3.8402
" />
<path d="M15.7785 3.8402
L15.7332 3.7192
" />
<path d="M15.7332 3.7192
L15.7483 3.5982
" />
<path d="M15.7483 3.5982
L15.8239 3.4773
" />
<path d="M15.8239 3.4773
L15.9524 3.4168
" />
<path d="M15.9524 3.4168
L16.2548 3.4168
" />
<path d="M16.2548 3.4168
L16.3833 3.3563
" />
<path d="M17.5701 3.0540
L17.4416 4.0821
" />
<path d="M17.4416 4.0821
L17.3660 4.2030
" />
<path d="M17.3660 4.2030
L17.2979 4.2635
" />
<path d="M17.2979 4.2635
L17.1694 4.3240
" />
<path d="M17.1694 4.3240
L16.9880 4.3240
" />
<path d="M16.9880 4.3240
L16.8746 4.2635
" />
<path d="M17.4718 3.8402
L17.3433 3.9006
" />
<path d="M17.3433 3.9006
L17.1014 3.9006
" />
<path d="M17.1014 3.9006
L16.9880 3.8402
" />
<path d="M16.9880 3.8402
L16.9351 3.7797
" />
<path d="M16.9351 3.7797
L16.8897 3.6587
" />
<path d="M16.8897 3.6587
L16.9351 3.2959
" />
<path d="M16.9351 3.2959
L17.0107 3.1749
" />
<path d="M17.0107 3.1749
L17.0787 3.1144
" />
<path d="M17.0787 3.1144
L17.2072 3.0540
" />
<path d="M17.2072 3.0540
L17.4491 3.0540
" />
<path d="M17.4491 3.0540
L17.5625 3.1144
" />
<path d="M18.5603 3.8402
L18.4318 3.9006
" />
<path d="M18.4318 3.9006
L18.1899 3.9006
" />
<path d="M18.1899 3.9006
L18.0765 3.8402
" />
<path d="M18.0765 3.8402
L18.0312 3.7192
" />
<path d="M18.0312 3.7192
L18.0917 3.2354
" />
<path d="M18.0917 3.2354
L18.1672 3.1144
" />
<path d="M18.1672 3.1144
L18.2958 3.0540
" />
<path d="M18.2958 3.0540
L18.5377 3.0540
" />
<path d="M18.5377 3.0540
L18.6511 3.1144
" />
<path d="M18.6511 3.1144
L18.6964 3.2354
" />
<path d="M18.6964 3.2354
L18.6813 3.3563
" />
<path d="M18.6813 3.3563
L18.0614 3.4773
" />
<path d="M18.8401 4.0216
L19.8077 4.0216
" />
<path d="M20.1252 3.9006
L20.2839 2.6306
" />
<path d="M20.2839 2.6306
L20.5863 2.6306
" />
<path d="M20.5863 2.6306
L20.7602 2.6911
" />
<path d="M20.7602 2.6911
L20.8660 2.8121
" />
<path d="M20.8660 2.8121
L20.9114 2.9330
" />
<path d="M20.9114 2.9330
L20.9416 3.1749
" />
<path d="M20.9416 3.1749
L20.9189 3.3563
" />
<path d="M20.9189 3.3563
L20.8282 3.5982
" />
<path d="M20.8282 3.5982
L20.7526 3.7192
" />
<path d="M20.7526 3.7192
L20.6165 3.8402
" />
<path d="M20.6165 3.8402
L20.4276 3.9006
" />
<path d="M20.4276 3.9006
L20.1252 3.9006
" />
<path d="M21.3952 3.9006
L21.5010 3.0540
" />
<path d="M21.5539 2.6306
L21.4859 2.6911
" />
<path d="M21.4859 2.6911
L21.5388 2.7516
" />
<path d="M21.5388 2.7516
L21.6068 2.6911
" />
<path d="M21.6068 2.6911
L21.5539 2.6306
" />
<path d="M21.5539 2.6306
L21.5388 2.7516
" />
<path d="M22.0000 3.9006
L22.1058 3.0540
" />
<path d="M22.0756 3.2959
L22.1512 3.1749
" />
<path d="M22.1512 3.1749
L22.2192 3.1144
" />
<path d="M22.2192 3.1144
L22.3477 3.0540
" />
<path d="M22.3477 3.0540
L22.4687 3.0540
" />
<path d="M23.2775 3.8402
L23.1490 3.9006
" />
<path d="M23.1490 3.9006
L22.9071 3.9006
" />
<path d="M22.9071 3.9006
L22.7937 3.8402
" />
<path d="M22.7937 3.8402
L22.7484 3.7192
" />
<path d="M22.7484 3.7192
L22.8089 3.2354
" />
<path d="M22.8089 3.2354
L22.8844 3.1144
" />
<path d="M22.8844 3.1144
L23.0130 3.0540
" />
<path d="M23.0130 3.0540
L23.2549 3.0540
" />
<path d="M23.2549 3.0540
L23.3683 3.1144
" />
<path d="M23.3683 3.1144
L23.4136 3.2354
" />
<path d="M23.4136 3.2354
L23.3985 3.3563
" />
<path d="M23.3985 3.3563
L22.7786 3.4773
" />
<path d="M24.4266 3.8402
L24.2981 3.9006
" />
<path d="M24.2981 3.9006
L24.0562 3.9006
" />
<path d="M24.0562 3.9006
L23.9428 3.8402
" />
<path d="M23.9428 3.8402
L23.8899 3.7797
" />
<path d="M23.8899 3.7797
L23.8445 3.6587
" />
<path d="M23.8445 3.6587
L23.8899 3.2959
" />
<path d="M23.8899 3.2959
L23.9655 3.1749
" />
<path d="M23.9655 3.1749
L24.0335 3.1144
" />
<path d="M24.0335 3.1144
L24.1620 3.0540
" />
<path d="M24.1620 3.0540
L24.4039 3.0540
" />
<path d="M24.4039 3.0540
L24.5173 3.1144
" />
<path d="M24.8878 3.0540
L25.3716 3.0540
" />
<path d="M25.1221 2.6306
L24.9861 3.7192
" />
<path d="M24.9861 3.7192
L25.0314 3.8402
" />
<path d="M25.0314 3.8402
L25.1448 3.9006
" />
<path d="M25.1448 3.9006
L25.2658 3.9006
" />
<path d="M26.1956 3.2354
L25.7722 3.2354
" />
<path d="M25.6891 3.9006
L25.8478 2.6306
" />
<path d="M25.8478 2.6306
L26.4526 2.6306
" />
<path d="M26.8608 3.2354
L27.2842 3.2354
" />
<path d="M27.3824 3.9006
L26.7777 3.9006
" />
<path d="M26.7777 3.9006
L26.9364 2.6306
" />
<path d="M26.9364 2.6306
L27.5412 2.6306
" />
<path d="M27.9040 2.6306
L28.6297 2.6306
" />
<path d="M28.1081 3.9006
L28.2669 2.6306
" />
<path d="M28.9094 3.7797
L28.9623 3.8402
" />
<path d="M28.9623 3.8402
L28.8943 3.9006
" />
<path d="M28.8943 3.9006
L28.8414 3.8402
" />
<path d="M28.8414 3.8402
L28.9094 3.7797
" />
<path d="M28.9094 3.7797
L28.8943 3.9006
" />
<path d="M28.9925 3.1144
L29.0455 3.1749
" />
<path d="M29.0455 3.1749
L28.9774 3.2354
" />
<path d="M28.9774 3.2354
L28.9245 3.1749
" />
<path d="M28.9245 3.1749
L28.9925 3.1144
" />
<path d="M28.9925 3.1144
L28.9774 3.2354
" />
<path d="M29.4991 3.9006
L29.6578 2.6306
" />
<path d="M29.6578 2.6306
L29.9602 2.6306
" />
<path d="M29.9602 2.6306
L30.1341 2.6911
" />
<path d="M30.1341 2.6911
L30.2399 2.8121
" />
<path d="M30.2399 2.8121
L30.2853 2.9330
" />
<path d="M30.2853 2.9330
L30.3155 3.1749
" />
<path d="M30.3155 3.1749
L30.2928 3.3563
" />
<path d="M30.2928 3.3563
L30.2021 3.5982
" />
<path d="M30.2021 3.5982
L30.1265 3.7192
" />
<path d="M30.1265 3.7192
L29.9904 3.8402
" />
<path d="M29.9904 3.8402
L29.8015 3.9006
" />
<path d="M29.8015 3.9006
L29.4991 3.9006
" />
<path d="M30.7691 3.9006
L30.8749 3.0540
" />
<path d="M30.9278 2.6306
L30.8598 2.6911
" />
<path d="M30.8598 2.6911
L30.9127 2.7516
" />
<path d="M30.9127 2.7516
L30.9807 2.6911
" />
<path d="M30.9807 2.6911
L30.9278 2.6306
" />
<path d="M30.9278 2.6306
L30.9127 2.7516
" />
<path d="M31.3739 3.9006
L31.4797 3.0540
" />
<path d="M31.4495 3.2959
L31.5251 3.1749
" />
<path d="M31.5251 3.1749
L31.5931 3.1144
" />
<path d="M31.5931 3.1144
L31.7216 3.0540
" />
<path d="M31.7216 3.0540
L31.8426 3.0540
" />
<path d="M32.6514 3.8402
L32.5229 3.9006
" />
<path d="M32.5229 3.9006
L32.2810 3.9006
" />
<path d="M32.2810 3.9006
L32.1676 3.8402
" />
<path d="M32.1676 3.8402
L32.1223 3.7192
" />
<path d="M32.1223 3.7192
L32.1828 3.2354
" />
<path d="M32.1828 3.2354
L32.2583 3.1144
" />
<path d="M32.2583 3.1144
L32.3869 3.0540
" />
<path d="M32.3869 3.0540
L32.6288 3.0540
" />
<path d="M32.6288 3.0540
L32.7422 3.1144
" />
<path d="M32.7422 3.1144
L32.7875 3.2354
" />
<path d="M32.7875 3.2354
L32.7724 3.3563
" />
<path d="M32.7724 3.3563
L32.1525 3.4773
" />
<path d="M33.8005 3.8402
L33.6720 3.9006
" />
<path d="M33.6720 3.9006
L33.4301 3.9006
" />
<path d="M33.4301 3.9006
L33.3167 3.8402
" />
<path d="M33.3167 3.8402
L33.2638 3.7797
" />
<path d="M33.2638 3.7797
L33.2184 3.6587
" />
<path d="M33.2184 3.6587
L33.2638 3.2959
" />
<path d="M33.2638 3.2959
L33.3394 3.1749
" />
<path d="M33.3394 3.1749
L33.4074 3.1144
" />
<path d="M33.4074 3.1144
L33.5359 3.0540
" />
<path d="M33.5359 3.0540
L33.7778 3.0540
" />
<path d="M33.7778 3.0540
L33.8912 3.1144
" />
<path d="M34.2617 3.0540
L34.7455 3.0540
" />
<path d="M34.4960 2.6306
L34.3600 3.7192
" />
<path d="M34.3600 3.7192
L34.4053 3.8402
" />
<path d="M34.4053 3.8402
L34.5187 3.9006
" />
<path d="M34.5187 3.9006
L34.6397 3.9006
" />
<path d="M35.5695 3.2354
L35.1461 3.2354
" />
<path d="M35.0630 3.9006
L35.2217 2.6306
" />
<path d="M35.2217 2.6306
L35.8265 2.6306
" />
<path d="M36.2347 3.2354
L36.6581 3.2354
" />
<path d="M36.7563 3.9006
L36.1516 3.9006
" />
<path d="M36.1516 3.9006
L36.3103 2.6306
" />
<path d="M36.3103 2.6306
L36.9151 2.6306
" />
<path d="M37.2779 2.6306
L38.0036 2.6306
" />
<path d="M37.4820 3.9006
L37.6408 2.6306
" />
<path d="M37.9507 4.0216
L38.9183 4.0216
" />
<path d="M39.2358 3.9006
L39.3945 2.6306
" />
<path d="M39.3945 2.6306
L39.7045 3.5378
" />
<path d="M39.7045 3.5378
L40.2412 2.6306
" />
<path d="M40.2412 2.6306
L40.0824 3.9006
" />
<path d="M40.7250 2.6306
L41.4129 3.9006
" />
<path d="M41.5716 2.6306
L40.5662 3.9006
" />
</g><text x="72.6574" y="3.9564"
textLength="92.9312" font-size="1.6933" lengthAdjust="spacingAndGlyphs"
text-anchor="middle" opacity="0">https://www.infineon.com/dgdl/irf6716mpbf.pdf?fileId=5546d462533600a4015355ed15241a84</text>
<g class="stroked-text"><desc>https://www.infineon.com/dgdl/irf6716mpbf.pdf?fileId=5546d462533600a4015355ed15241a84</desc>
<path d="M26.6053 3.9006
L26.6053 2.6306
" />
<path d="M27.1496 3.9006
L27.1496 3.2354
" />
<path d="M27.1496 3.2354
L27.0891 3.1144
" />
<path d="M27.0891 3.1144
L26.9682 3.0540
" />
<path d="M26.9682 3.0540
L26.7868 3.0540
" />
<path d="M26.7868 3.0540
L26.6658 3.1144
" />
<path d="M26.6658 3.1144
L26.6053 3.1749
" />
<path d="M27.5729 3.0540
L28.0567 3.0540
" />
<path d="M27.7543 2.6306
L27.7543 3.7192
" />
<path d="M27.7543 3.7192
L27.8148 3.8402
" />
<path d="M27.8148 3.8402
L27.9358 3.9006
" />
<path d="M27.9358 3.9006
L28.0567 3.9006
" />
<path d="M28.2986 3.0540
L28.7824 3.0540
" />
<path d="M28.4800 2.6306
L28.4800 3.7192
" />
<path d="M28.4800 3.7192
L28.5405 3.8402
" />
<path d="M28.5405 3.8402
L28.6615 3.9006
" />
<path d="M28.6615 3.9006
L28.7824 3.9006
" />
<path d="M29.2057 3.0540
L29.2057 4.3240
" />
<path d="M29.2057 3.1144
L29.3267 3.0540
" />
<path d="M29.3267 3.0540
L29.5686 3.0540
" />
<path d="M29.5686 3.0540
L29.6895 3.1144
" />
<path d="M29.6895 3.1144
L29.7500 3.1749
" />
<path d="M29.7500 3.1749
L29.8105 3.2959
" />
<path d="M29.8105 3.2959
L29.8105 3.6587
" />
<path d="M29.8105 3.6587
L29.7500 3.7797
" />
<path d="M29.7500 3.7797
L29.6895 3.8402
" />
<path d="M29.6895 3.8402
L29.5686 3.9006
" />
<path d="M29.5686 3.9006
L29.3267 3.9006
" />
<path d="M29.3267 3.9006
L29.2057 3.8402
" />
<path d="M30.2943 3.8402
L30.4152 3.9006
" />
<path d="M30.4152 3.9006
L30.6571 3.9006
" />
<path d="M30.6571 3.9006
L30.7781 3.8402
" />
<path d="M30.7781 3.8402
L30.8385 3.7192
" />
<path d="M30.8385 3.7192
L30.8385 3.6587
" />
<path d="M30.8385 3.6587
L30.7781 3.5378
" />
<path d="M30.7781 3.5378
L30.6571 3.4773
" />
<path d="M30.6571 3.4773
L30.4757 3.4773
" />
<path d="M30.4757 3.4773
L30.3547 3.4168
" />
<path d="M30.3547 3.4168
L30.2943 3.2959
" />
<path d="M30.2943 3.2959
L30.2943 3.2354
" />
<path d="M30.2943 3.2354
L30.3547 3.1144
" />
<path d="M30.3547 3.1144
L30.4757 3.0540
" />
<path d="M30.4757 3.0540
L30.6571 3.0540
" />
<path d="M30.6571 3.0540
L30.7781 3.1144
" />
<path d="M31.3828 3.7797
L31.4433 3.8402
" />
<path d="M31.4433 3.8402
L31.3828 3.9006
" />
<path d="M31.3828 3.9006
L31.3224 3.8402
" />
<path d="M31.3224 3.8402
L31.3828 3.7797
" />
<path d="M31.3828 3.7797
L31.3828 3.9006
" />
<path d="M31.3828 3.1144
L31.4433 3.1749
" />
<path d="M31.4433 3.1749
L31.3828 3.2354
" />
<path d="M31.3828 3.2354
L31.3224 3.1749
" />
<path d="M31.3224 3.1749
L31.3828 3.1144
" />
<path d="M31.3828 3.1144
L31.3828 3.2354
" />
<path d="M32.8948 2.5702
L31.8062 4.2030
" />
<path d="M34.2253 2.5702
L33.1367 4.2030
" />
<path d="M34.5277 3.0540
L34.7696 3.9006
" />
<path d="M34.7696 3.9006
L35.0115 3.2959
" />
<path d="M35.0115 3.2959
L35.2534 3.9006
" />
<path d="M35.2534 3.9006
L35.4953 3.0540
" />
<path d="M35.8582 3.0540
L36.1001 3.9006
" />
<path d="M36.1001 3.9006
L36.3420 3.2959
" />
<path d="M36.3420 3.2959
L36.5839 3.9006
" />
<path d="M36.5839 3.9006
L36.8258 3.0540
" />
<path d="M37.1887 3.0540
L37.4306 3.9006
" />
<path d="M37.4306 3.9006
L37.6725 3.2959
" />
<path d="M37.6725 3.2959
L37.9144 3.9006
" />
<path d="M37.9144 3.9006
L38.1563 3.0540
" />
<path d="M38.6401 3.7797
L38.7006 3.8402
" />
<path d="M38.7006 3.8402
L38.6401 3.9006
" />
<path d="M38.6401 3.9006
L38.5797 3.8402
" />
<path d="M38.5797 3.8402
L38.6401 3.7797
" />
<path d="M38.6401 3.7797
L38.6401 3.9006
" />
<path d="M39.2449 3.9006
L39.2449 3.0540
" />
<path d="M39.2449 2.6306
L39.1845 2.6911
" />
<path d="M39.1845 2.6911
L39.2449 2.7516
" />
<path d="M39.2449 2.7516
L39.3054 2.6911
" />
<path d="M39.3054 2.6911
L39.2449 2.6306
" />
<path d="M39.2449 2.6306
L39.2449 2.7516
" />
<path d="M39.8497 3.0540
L39.8497 3.9006
" />
<path d="M39.8497 3.1749
L39.9102 3.1144
" />
<path d="M39.9102 3.1144
L40.0312 3.0540
" />
<path d="M40.0312 3.0540
L40.2126 3.0540
" />
<path d="M40.2126 3.0540
L40.3335 3.1144
" />
<path d="M40.3335 3.1144
L40.3940 3.2354
" />
<path d="M40.3940 3.2354
L40.3940 3.9006
" />
<path d="M40.8173 3.0540
L41.3011 3.0540
" />
<path d="M40.9987 3.9006
L40.9987 2.8121
" />
<path d="M40.9987 2.8121
L41.0592 2.6911
" />
<path d="M41.0592 2.6911
L41.1802 2.6306
" />
<path d="M41.1802 2.6306
L41.3011 2.6306
" />
<path d="M41.7244 3.9006
L41.7244 3.0540
" />
<path d="M41.7244 2.6306
L41.6640 2.6911
" />
<path d="M41.6640 2.6911
L41.7244 2.7516
" />
<path d="M41.7244 2.7516
L41.7849 2.6911
" />
<path d="M41.7849 2.6911
L41.7244 2.6306
" />
<path d="M41.7244 2.6306
L41.7244 2.7516
" />
<path d="M42.3292 3.0540
L42.3292 3.9006
" />
<path d="M42.3292 3.1749
L42.3897 3.1144
" />
<path d="M42.3897 3.1144
L42.5107 3.0540
" />
<path d="M42.5107 3.0540
L42.6921 3.0540
" />
<path d="M42.6921 3.0540
L42.8130 3.1144
" />
<path d="M42.8130 3.1144
L42.8735 3.2354
" />
<path d="M42.8735 3.2354
L42.8735 3.9006
" />
<path d="M43.9620 3.8402
L43.8411 3.9006
" />
<path d="M43.8411 3.9006
L43.5992 3.9006
" />
<path d="M43.5992 3.9006
L43.4782 3.8402
" />
<path d="M43.4782 3.8402
L43.4178 3.7192
" />
<path d="M43.4178 3.7192
L43.4178 3.2354
" />
<path d="M43.4178 3.2354
L43.4782 3.1144
" />
<path d="M43.4782 3.1144
L43.5992 3.0540
" />
<path d="M43.5992 3.0540
L43.8411 3.0540
" />
<path d="M43.8411 3.0540
L43.9620 3.1144
" />
<path d="M43.9620 3.1144
L44.0225 3.2354
" />
<path d="M44.0225 3.2354
L44.0225 3.3563
" />
<path d="M44.0225 3.3563
L43.4178 3.4773
" />
<path d="M44.7483 3.9006
L44.6273 3.8402
" />
<path d="M44.6273 3.8402
L44.5668 3.7797
" />
<path d="M44.5668 3.7797
L44.5064 3.6587
" />
<path d="M44.5064 3.6587
L44.5064 3.2959
" />
<path d="M44.5064 3.2959
L44.5668 3.1749
" />
<path d="M44.5668 3.1749
L44.6273 3.1144
" />
<path d="M44.6273 3.1144
L44.7483 3.0540
" />
<path d="M44.7483 3.0540
L44.9297 3.0540
" />
<path d="M44.9297 3.0540
L45.0506 3.1144
" />
<path d="M45.0506 3.1144
L45.1111 3.1749
" />
<path d="M45.1111 3.1749
L45.1716 3.2959
" />
<path d="M45.1716 3.2959
L45.1716 3.6587
" />
<path d="M45.1716 3.6587
L45.1111 3.7797
" />
<path d="M45.1111 3.7797
L45.0506 3.8402
" />
<path d="M45.0506 3.8402
L44.9297 3.9006
" />
<path d="M44.9297 3.9006
L44.7483 3.9006
" />
<path d="M45.7158 3.0540
L45.7158 3.9006
" />
<path d="M45.7158 3.1749
L45.7763 3.1144
" />
<path d="M45.7763 3.1144
L45.8973 3.0540
" />
<path d="M45.8973 3.0540
L46.0787 3.0540
" />
<path d="M46.0787 3.0540
L46.1996 3.1144
" />
<path d="M46.1996 3.1144
L46.2601 3.2354
" />
<path d="M46.2601 3.2354
L46.2601 3.9006
" />
<path d="M46.8648 3.7797
L46.9253 3.8402
" />
<path d="M46.9253 3.8402
L46.8648 3.9006
" />
<path d="M46.8648 3.9006
L46.8044 3.8402
" />
<path d="M46.8044 3.8402
L46.8648 3.7797
" />
<path d="M46.8648 3.7797
L46.8648 3.9006
" />
<path d="M48.0139 3.8402
L47.8930 3.9006
" />
<path d="M47.8930 3.9006
L47.6511 3.9006
" />
<path d="M47.6511 3.9006
L47.5301 3.8402
" />
<path d="M47.5301 3.8402
L47.4696 3.7797
" />
<path d="M47.4696 3.7797
L47.4092 3.6587
" />
<path d="M47.4092 3.6587
L47.4092 3.2959
" />
<path d="M47.4092 3.2959
L47.4696 3.1749
" />
<path d="M47.4696 3.1749
L47.5301 3.1144
" />
<path d="M47.5301 3.1144
L47.6511 3.0540
" />
<path d="M47.6511 3.0540
L47.8930 3.0540
" />
<path d="M47.8930 3.0540
L48.0139 3.1144
" />
<path d="M48.7397 3.9006
L48.6187 3.8402
" />
<path d="M48.6187 3.8402
L48.5582 3.7797
" />
<path d="M48.5582 3.7797
L48.4978 3.6587
" />
<path d="M48.4978 3.6587
L48.4978 3.2959
" />
<path d="M48.4978 3.2959
L48.5582 3.1749
" />
<path d="M48.5582 3.1749
L48.6187 3.1144
" />
<path d="M48.6187 3.1144
L48.7397 3.0540
" />
<path d="M48.7397 3.0540
L48.9211 3.0540
" />
<path d="M48.9211 3.0540
L49.0420 3.1144
" />
<path d="M49.0420 3.1144
L49.1025 3.1749
" />
<path d="M49.1025 3.1749
L49.1630 3.2959
" />
<path d="M49.1630 3.2959
L49.1630 3.6587
" />
<path d="M49.1630 3.6587
L49.1025 3.7797
" />
<path d="M49.1025 3.7797
L49.0420 3.8402
" />
<path d="M49.0420 3.8402
L48.9211 3.9006
" />
<path d="M48.9211 3.9006
L48.7397 3.9006
" />
<path d="M49.7072 3.9006
L49.7072 3.0540
" />
<path d="M49.7072 3.1749
L49.7677 3.1144
" />
<path d="M49.7677 3.1144
L49.8887 3.0540
" />
<path d="M49.8887 3.0540
L50.0701 3.0540
" />
<path d="M50.0701 3.0540
L50.1910 3.1144
" />
<path d="M50.1910 3.1144
L50.2515 3.2354
" />
<path d="M50.2515 3.2354
L50.2515 3.9006
" />
<path d="M50.2515 3.2354
L50.3120 3.1144
" />
<path d="M50.3120 3.1144
L50.4329 3.0540
" />
<path d="M50.4329 3.0540
L50.6144 3.0540
" />
<path d="M50.6144 3.0540
L50.7353 3.1144
" />
<path d="M50.7353 3.1144
L50.7958 3.2354
" />
<path d="M50.7958 3.2354
L50.7958 3.9006
" />
<path d="M52.3077 2.5702
L51.2191 4.2030
" />
<path d="M53.2753 3.9006
L53.2753 2.6306
" />
<path d="M53.2753 3.8402
L53.1544 3.9006
" />
<path d="M53.1544 3.9006
L52.9125 3.9006
" />
<path d="M52.9125 3.9006
L52.7915 3.8402
" />
<path d="M52.7915 3.8402
L52.7310 3.7797
" />
<path d="M52.7310 3.7797
L52.6706 3.6587
" />
<path d="M52.6706 3.6587
L52.6706 3.2959
" />
<path d="M52.6706 3.2959
L52.7310 3.1749
" />
<path d="M52.7310 3.1749
L52.7915 3.1144
" />
<path d="M52.7915 3.1144
L52.9125 3.0540
" />
<path d="M52.9125 3.0540
L53.1544 3.0540
" />
<path d="M53.1544 3.0540
L53.2753 3.1144
" />
<path d="M54.4243 3.0540
L54.4243 4.0821
" />
<path d="M54.4243 4.0821
L54.3638 4.2030
" />
<path d="M54.3638 4.2030
L54.3034 4.2635
" />
<path d="M54.3034 4.2635
L54.1824 4.3240
" />
<path d="M54.1824 4.3240
L54.0010 4.3240
" />
<path d="M54.0010 4.3240
L53.8800 4.2635
" />
<path d="M54.4243 3.8402
L54.3034 3.9006
" />
<path d="M54.3034 3.9006
L54.0615 3.9006
" />
<path d="M54.0615 3.9006
L53.9405 3.8402
" />
<path d="M53.9405 3.8402
L53.8800 3.7797
" />
<path d="M53.8800 3.7797
L53.8196 3.6587
" />
<path d="M53.8196 3.6587
L53.8196 3.2959
" />
<path d="M53.8196 3.2959
L53.8800 3.1749
" />
<path d="M53.8800 3.1749
L53.9405 3.1144
" />
<path d="M53.9405 3.1144
L54.0615 3.0540
" />
<path d="M54.0615 3.0540
L54.3034 3.0540
" />
<path d="M54.3034 3.0540
L54.4243 3.1144
" />
<path d="M55.5733 3.9006
L55.5733 2.6306
" />
<path d="M55.5733 3.8402
L55.4524 3.9006
" />
<path d="M55.4524 3.9006
L55.2105 3.9006
" />
<path d="M55.2105 3.9006
L55.0895 3.8402
" />
<path d="M55.0895 3.8402
L55.0290 3.7797
" />
<path d="M55.0290 3.7797
L54.9686 3.6587
" />
<path d="M54.9686 3.6587
L54.9686 3.2959
" />
<path d="M54.9686 3.2959
L55.0290 3.1749
" />
<path d="M55.0290 3.1749
L55.0895 3.1144
" />
<path d="M55.0895 3.1144
L55.2105 3.0540
" />
<path d="M55.2105 3.0540
L55.4524 3.0540
" />
<path d="M55.4524 3.0540
L55.5733 3.1144
" />
<path d="M56.3595 3.9006
L56.2385 3.8402
" />
<path d="M56.2385 3.8402
L56.1780 3.7192
" />
<path d="M56.1780 3.7192
L56.1780 2.6306
" />
<path d="M57.7504 2.5702
L56.6618 4.2030
" />
<path d="M58.1737 3.9006
L58.1737 3.0540
" />
<path d="M58.1737 2.6306
L58.1133 2.6911
" />
<path d="M58.1133 2.6911
L58.1737 2.7516
" />
<path d="M58.1737 2.7516
L58.2342 2.6911
" />
<path d="M58.2342 2.6911
L58.1737 2.6306
" />
<path d="M58.1737 2.6306
L58.1737 2.7516
" />
<path d="M58.7785 3.9006
L58.7785 3.0540
" />
<path d="M58.7785 3.2959
L58.8390 3.1749
" />
<path d="M58.8390 3.1749
L58.8995 3.1144
" />
<path d="M58.8995 3.1144
L59.0204 3.0540
" />
<path d="M59.0204 3.0540
L59.1414 3.0540
" />
<path d="M59.3833 3.0540
L59.8671 3.0540
" />
<path d="M59.5647 3.9006
L59.5647 2.8121
" />
<path d="M59.5647 2.8121
L59.6252 2.6911
" />
<path d="M59.6252 2.6911
L59.7462 2.6306
" />
<path d="M59.7462 2.6306
L59.8671 2.6306
" />
<path d="M60.8347 2.6306
L60.5928 2.6306
" />
<path d="M60.5928 2.6306
L60.4719 2.6911
" />
<path d="M60.4719 2.6911
L60.4114 2.7516
" />
<path d="M60.4114 2.7516
L60.2904 2.9330
" />
<path d="M60.2904 2.9330
L60.2300 3.1749
" />
<path d="M60.2300 3.1749
L60.2300 3.6587
" />
<path d="M60.2300 3.6587
L60.2904 3.7797
" />
<path d="M60.2904 3.7797
L60.3509 3.8402
" />
<path d="M60.3509 3.8402
L60.4719 3.9006
" />
<path d="M60.4719 3.9006
L60.7138 3.9006
" />
<path d="M60.7138 3.9006
L60.8347 3.8402
" />
<path d="M60.8347 3.8402
L60.8952 3.7797
" />
<path d="M60.8952 3.7797
L60.9557 3.6587
" />
<path d="M60.9557 3.6587
L60.9557 3.3563
" />
<path d="M60.9557 3.3563
L60.8952 3.2354
" />
<path d="M60.8952 3.2354
L60.8347 3.1749
" />
<path d="M60.8347 3.1749
L60.7138 3.1144
" />
<path d="M60.7138 3.1144
L60.4719 3.1144
" />
<path d="M60.4719 3.1144
L60.3509 3.1749
" />
<path d="M60.3509 3.1749
L60.2904 3.2354
" />
<path d="M60.2904 3.2354
L60.2300 3.3563
" />
<path d="M61.3790 2.6306
L62.2256 2.6306
" />
<path d="M62.2256 2.6306
L61.6814 3.9006
" />
<path d="M63.3747 3.9006
L62.6490 3.9006
" />
<path d="M63.0118 3.9006
L63.0118 2.6306
" />
<path d="M63.0118 2.6306
L62.8909 2.8121
" />
<path d="M62.8909 2.8121
L62.7699 2.9330
" />
<path d="M62.7699 2.9330
L62.6490 2.9935
" />
<path d="M64.4632 2.6306
L64.2213 2.6306
" />
<path d="M64.2213 2.6306
L64.1004 2.6911
" />
<path d="M64.1004 2.6911
L64.0399 2.7516
" />
<path d="M64.0399 2.7516
L63.9189 2.9330
" />
<path d="M63.9189 2.9330
L63.8585 3.1749
" />
<path d="M63.8585 3.1749
L63.8585 3.6587
" />
<path d="M63.8585 3.6587
L63.9189 3.7797
" />
<path d="M63.9189 3.7797
L63.9794 3.8402
" />
<path d="M63.9794 3.8402
L64.1004 3.9006
" />
<path d="M64.1004 3.9006
L64.3423 3.9006
" />
<path d="M64.3423 3.9006
L64.4632 3.8402
" />
<path d="M64.4632 3.8402
L64.5237 3.7797
" />
<path d="M64.5237 3.7797
L64.5842 3.6587
" />
<path d="M64.5842 3.6587
L64.5842 3.3563
" />
<path d="M64.5842 3.3563
L64.5237 3.2354
" />
<path d="M64.5237 3.2354
L64.4632 3.1749
" />
<path d="M64.4632 3.1749
L64.3423 3.1144
" />
<path d="M64.3423 3.1144
L64.1004 3.1144
" />
<path d="M64.1004 3.1144
L63.9794 3.1749
" />
<path d="M63.9794 3.1749
L63.9189 3.2354
" />
<path d="M63.9189 3.2354
L63.8585 3.3563
" />
<path d="M65.1284 3.9006
L65.1284 3.0540
" />
<path d="M65.1284 3.1749
L65.1889 3.1144
" />
<path d="M65.1889 3.1144
L65.3099 3.0540
" />
<path d="M65.3099 3.0540
L65.4913 3.0540
" />
<path d="M65.4913 3.0540
L65.6122 3.1144
" />
<path d="M65.6122 3.1144
L65.6727 3.2354
" />
<path d="M65.6727 3.2354
L65.6727 3.9006
" />
<path d="M65.6727 3.2354
L65.7332 3.1144
" />
<path d="M65.7332 3.1144
L65.8541 3.0540
" />
<path d="M65.8541 3.0540
L66.0356 3.0540
" />
<path d="M66.0356 3.0540
L66.1565 3.1144
" />
<path d="M66.1565 3.1144
L66.2170 3.2354
" />
<path d="M66.2170 3.2354
L66.2170 3.9006
" />
<path d="M66.8217 3.0540
L66.8217 4.3240
" />
<path d="M66.8217 3.1144
L66.9427 3.0540
" />
<path d="M66.9427 3.0540
L67.1846 3.0540
" />
<path d="M67.1846 3.0540
L67.3055 3.1144
" />
<path d="M67.3055 3.1144
L67.3660 3.1749
" />
<path d="M67.3660 3.1749
L67.4265 3.2959
" />
<path d="M67.4265 3.2959
L67.4265 3.6587
" />
<path d="M67.4265 3.6587
L67.3660 3.7797
" />
<path d="M67.3660 3.7797
L67.3055 3.8402
" />
<path d="M67.3055 3.8402
L67.1846 3.9006
" />
<path d="M67.1846 3.9006
L66.9427 3.9006
" />
<path d="M66.9427 3.9006
L66.8217 3.8402
" />
<path d="M67.9707 3.9006
L67.9707 2.6306
" />
<path d="M67.9707 3.1144
L68.0917 3.0540
" />
<path d="M68.0917 3.0540
L68.3336 3.0540
" />
<path d="M68.3336 3.0540
L68.4545 3.1144
" />
<path d="M68.4545 3.1144
L68.5150 3.1749
" />
<path d="M68.5150 3.1749
L68.5755 3.2959
" />
<path d="M68.5755 3.2959
L68.5755 3.6587
" />
<path d="M68.5755 3.6587
L68.5150 3.7797
" />
<path d="M68.5150 3.7797
L68.4545 3.8402
" />
<path d="M68.4545 3.8402
L68.3336 3.9006
" />
<path d="M68.3336 3.9006
L68.0917 3.9006
" />
<path d="M68.0917 3.9006
L67.9707 3.8402
" />
<path d="M68.9383 3.0540
L69.4221 3.0540
" />
<path d="M69.1197 3.9006
L69.1197 2.8121
" />
<path d="M69.1197 2.8121
L69.1802 2.6911
" />
<path d="M69.1802 2.6911
L69.3012 2.6306
" />
<path d="M69.3012 2.6306
L69.4221 2.6306
" />
<path d="M69.8454 3.7797
L69.9059 3.8402
" />
<path d="M69.9059 3.8402
L69.8454 3.9006
" />
<path d="M69.8454 3.9006
L69.7850 3.8402
" />
<path d="M69.7850 3.8402
L69.8454 3.7797
" />
<path d="M69.8454 3.7797
L69.8454 3.9006
" />
<path d="M70.4502 3.0540
L70.4502 4.3240
" />
<path d="M70.4502 3.1144
L70.5712 3.0540
" />
<path d="M70.5712 3.0540
L70.8131 3.0540
" />
<path d="M70.8131 3.0540
L70.9340 3.1144
" />
<path d="M70.9340 3.1144
L70.9945 3.1749
" />
<path d="M70.9945 3.1749
L71.0550 3.2959
" />
<path d="M71.0550 3.2959
L71.0550 3.6587
" />
<path d="M71.0550 3.6587
L70.9945 3.7797
" />
<path d="M70.9945 3.7797
L70.9340 3.8402
" />
<path d="M70.9340 3.8402
L70.8131 3.9006
" />
<path d="M70.8131 3.9006
L70.5712 3.9006
" />
<path d="M70.5712 3.9006
L70.4502 3.8402
" />
<path d="M72.1435 3.9006
L72.1435 2.6306
" />
<path d="M72.1435 3.8402
L72.0226 3.9006
" />
<path d="M72.0226 3.9006
L71.7807 3.9006
" />
<path d="M71.7807 3.9006
L71.6597 3.8402
" />
<path d="M71.6597 3.8402
L71.5992 3.7797
" />
<path d="M71.5992 3.7797
L71.5388 3.6587
" />
<path d="M71.5388 3.6587
L71.5388 3.2959
" />
<path d="M71.5388 3.2959
L71.5992 3.1749
" />
<path d="M71.5992 3.1749
L71.6597 3.1144
" />
<path d="M71.6597 3.1144
L71.7807 3.0540
" />
<path d="M71.7807 3.0540
L72.0226 3.0540
" />
<path d="M72.0226 3.0540
L72.1435 3.1144
" />
<path d="M72.5668 3.0540
L73.0506 3.0540
" />
<path d="M72.7482 3.9006
L72.7482 2.8121
" />
<path d="M72.7482 2.8121
L72.8087 2.6911
" />
<path d="M72.8087 2.6911
L72.9297 2.6306
" />
<path d="M72.9297 2.6306
L73.0506 2.6306
" />
<path d="M73.6554 3.7797
L73.7158 3.8402
" />
<path d="M73.7158 3.8402
L73.6554 3.9006
" />
<path d="M73.6554 3.9006
L73.5949 3.8402
" />
<path d="M73.5949 3.8402
L73.6554 3.7797
" />
<path d="M73.6554 3.7797
L73.6554 3.9006
" />
<path d="M73.4135 2.6911
L73.5344 2.6306
" />
<path d="M73.5344 2.6306
L73.8368 2.6306
" />
<path d="M73.8368 2.6306
L73.9577 2.6911
" />
<path d="M73.9577 2.6911
L74.0182 2.8121
" />
<path d="M74.0182 2.8121
L74.0182 2.9330
" />
<path d="M74.0182 2.9330
L73.9577 3.0540
" />
<path d="M73.9577 3.0540
L73.8973 3.1144
" />
<path d="M73.8973 3.1144
L73.7763 3.1749
" />
<path d="M73.7763 3.1749
L73.7158 3.2354
" />
<path d="M73.7158 3.2354
L73.6554 3.3563
" />
<path d="M73.6554 3.3563
L73.6554 3.4168
" />
<path d="M74.3811 3.0540
L74.8649 3.0540
" />
<path d="M74.5625 3.9006
L74.5625 2.8121
" />
<path d="M74.5625 2.8121
L74.6230 2.6911
" />
<path d="M74.6230 2.6911
L74.7440 2.6306
" />
<path d="M74.7440 2.6306
L74.8649 2.6306
" />
<path d="M75.2882 3.9006
L75.2882 3.0540
" />
<path d="M75.2882 2.6306
L75.2278 2.6911
" />
<path d="M75.2278 2.6911
L75.2882 2.7516
" />
<path d="M75.2882 2.7516
L75.3487 2.6911
" />
<path d="M75.3487 2.6911
L75.2882 2.6306
" />
<path d="M75.2882 2.6306
L75.2882 2.7516
" />
<path d="M76.0745 3.9006
L75.9535 3.8402
" />
<path d="M75.9535 3.8402
L75.8930 3.7192
" />
<path d="M75.8930 3.7192
L75.8930 2.6306
" />
<path d="M77.0420 3.8402
L76.9211 3.9006
" />
<path d="M76.9211 3.9006
L76.6792 3.9006
" />
<path d="M76.6792 3.9006
L76.5582 3.8402
" />
<path d="M76.5582 3.8402
L76.4978 3.7192
" />
<path d="M76.4978 3.7192
L76.4978 3.2354
" />
<path d="M76.4978 3.2354
L76.5582 3.1144
" />
<path d="M76.5582 3.1144
L76.6792 3.0540
" />
<path d="M76.6792 3.0540
L76.9211 3.0540
" />
<path d="M76.9211 3.0540
L77.0420 3.1144
" />
<path d="M77.0420 3.1144
L77.1025 3.2354
" />
<path d="M77.1025 3.2354
L77.1025 3.3563
" />
<path d="M77.1025 3.3563
L76.4978 3.4773
" />
<path d="M77.6468 3.9006
L77.6468 2.6306
" />
<path d="M78.7959 3.9006
L78.7959 2.6306
" />
<path d="M78.7959 3.8402
L78.6750 3.9006
" />
<path d="M78.6750 3.9006
L78.4331 3.9006
" />
<path d="M78.4331 3.9006
L78.3121 3.8402
" />
<path d="M78.3121 3.8402
L78.2516 3.7797
" />
<path d="M78.2516 3.7797
L78.1912 3.6587
" />
<path d="M78.1912 3.6587
L78.1912 3.2959
" />
<path d="M78.1912 3.2959
L78.2516 3.1749
" />
<path d="M78.2516 3.1749
L78.3121 3.1144
" />
<path d="M78.3121 3.1144
L78.4331 3.0540
" />
<path d="M78.4331 3.0540
L78.6750 3.0540
" />
<path d="M78.6750 3.0540
L78.7959 3.1144
" />
<path d="M79.4006 3.2354
L80.3683 3.2354
" />
<path d="M80.3683 3.5982
L79.4006 3.5982
" />
<path d="M81.5778 2.6306
L80.9730 2.6306
" />
<path d="M80.9730 2.6306
L80.9126 3.2354
" />
<path d="M80.9126 3.2354
L80.9730 3.1749
" />
<path d="M80.9730 3.1749
L81.0940 3.1144
" />
<path d="M81.0940 3.1144
L81.3964 3.1144
" />
<path d="M81.3964 3.1144
L81.5173 3.1749
" />
<path d="M81.5173 3.1749
L81.5778 3.2354
" />
<path d="M81.5778 3.2354
L81.6383 3.3563
" />
<path d="M81.6383 3.3563
L81.6383 3.6587
" />
<path d="M81.6383 3.6587
L81.5778 3.7797
" />
<path d="M81.5778 3.7797
L81.5173 3.8402
" />
<path d="M81.5173 3.8402
L81.3964 3.9006
" />
<path d="M81.3964 3.9006
L81.0940 3.9006
" />
<path d="M81.0940 3.9006
L80.9730 3.8402
" />
<path d="M80.9730 3.8402
L80.9126 3.7797
" />
<path d="M82.7873 2.6306
L82.1825 2.6306
" />
<path d="M82.1825 2.6306
L82.1221 3.2354
" />
<path d="M82.1221 3.2354
L82.1825 3.1749
" />
<path d="M82.1825 3.1749
L82.3035 3.1144
" />
<path d="M82.3035 3.1144
L82.6059 3.1144
" />
<path d="M82.6059 3.1144
L82.7268 3.1749
" />
<path d="M82.7268 3.1749
L82.7873 3.2354
" />
<path d="M82.7873 3.2354
L82.8478 3.3563
" />
<path d="M82.8478 3.3563
L82.8478 3.6587
" />
<path d="M82.8478 3.6587
L82.7873 3.7797
" />
<path d="M82.7873 3.7797
L82.7268 3.8402
" />
<path d="M82.7268 3.8402
L82.6059 3.9006
" />
<path d="M82.6059 3.9006
L82.3035 3.9006
" />
<path d="M82.3035 3.9006
L82.1825 3.8402
" />
<path d="M82.1825 3.8402
L82.1221 3.7797
" />
<path d="M83.9363 3.0540
L83.9363 3.9006
" />
<path d="M83.6339 2.5702
L83.3316 3.4773
" />
<path d="M83.3316 3.4773
L84.1177 3.4773
" />
<path d="M85.1458 2.6306
L84.9039 2.6306
" />
<path d="M84.9039 2.6306
L84.7830 2.6911
" />
<path d="M84.7830 2.6911
L84.7225 2.7516
" />
<path d="M84.7225 2.7516
L84.6015 2.9330
" />
<path d="M84.6015 2.9330
L84.5411 3.1749
" />
<path d="M84.5411 3.1749
L84.5411 3.6587
" />
<path d="M84.5411 3.6587
L84.6015 3.7797
" />
<path d="M84.6015 3.7797
L84.6620 3.8402
" />
<path d="M84.6620 3.8402
L84.7830 3.9006
" />
<path d="M84.7830 3.9006
L85.0249 3.9006
" />
<path d="M85.0249 3.9006
L85.1458 3.8402
" />
<path d="M85.1458 3.8402
L85.2063 3.7797
" />
<path d="M85.2063 3.7797
L85.2668 3.6587
" />
<path d="M85.2668 3.6587
L85.2668 3.3563
" />
<path d="M85.2668 3.3563
L85.2063 3.2354
" />
<path d="M85.2063 3.2354
L85.1458 3.1749
" />
<path d="M85.1458 3.1749
L85.0249 3.1144
" />
<path d="M85.0249 3.1144
L84.7830 3.1144
" />
<path d="M84.7830 3.1144
L84.6620 3.1749
" />
<path d="M84.6620 3.1749
L84.6015 3.2354
" />
<path d="M84.6015 3.2354
L84.5411 3.3563
" />
<path d="M86.3553 3.9006
L86.3553 2.6306
" />
<path d="M86.3553 3.8402
L86.2344 3.9006
" />
<path d="M86.2344 3.9006
L85.9925 3.9006
" />
<path d="M85.9925 3.9006
L85.8715 3.8402
" />
<path d="M85.8715 3.8402
L85.8110 3.7797
" />
<path d="M85.8110 3.7797
L85.7506 3.6587
" />
<path d="M85.7506 3.6587
L85.7506 3.2959
" />
<path d="M85.7506 3.2959
L85.8110 3.1749
" />
<path d="M85.8110 3.1749
L85.8715 3.1144
" />
<path d="M85.8715 3.1144
L85.9925 3.0540
" />
<path d="M85.9925 3.0540
L86.2344 3.0540
" />
<path d="M86.2344 3.0540
L86.3553 3.1144
" />
<path d="M87.5043 3.0540
L87.5043 3.9006
" />
<path d="M87.2019 2.5702
L86.8996 3.4773
" />
<path d="M86.8996 3.4773
L87.6857 3.4773
" />
<path d="M88.7138 2.6306
L88.4719 2.6306
" />
<path d="M88.4719 2.6306
L88.3510 2.6911
" />
<path d="M88.3510 2.6911
L88.2905 2.7516
" />
<path d="M88.2905 2.7516
L88.1695 2.9330
" />
<path d="M88.1695 2.9330
L88.1091 3.1749
" />
<path d="M88.1091 3.1749
L88.1091 3.6587
" />
<path d="M88.1091 3.6587
L88.1695 3.7797
" />
<path d="M88.1695 3.7797
L88.2300 3.8402
" />
<path d="M88.2300 3.8402
L88.3510 3.9006
" />
<path d="M88.3510 3.9006
L88.5929 3.9006
" />
<path d="M88.5929 3.9006
L88.7138 3.8402
" />
<path d="M88.7138 3.8402
L88.7743 3.7797
" />
<path d="M88.7743 3.7797
L88.8348 3.6587
" />
<path d="M88.8348 3.6587
L88.8348 3.3563
" />
<path d="M88.8348 3.3563
L88.7743 3.2354
" />
<path d="M88.7743 3.2354
L88.7138 3.1749
" />
<path d="M88.7138 3.1749
L88.5929 3.1144
" />
<path d="M88.5929 3.1144
L88.3510 3.1144
" />
<path d="M88.3510 3.1144
L88.2300 3.1749
" />
<path d="M88.2300 3.1749
L88.1695 3.2354
" />
<path d="M88.1695 3.2354
L88.1091 3.3563
" />
<path d="M89.3186 2.7516
L89.3790 2.6911
" />
<path d="M89.3790 2.6911
L89.5000 2.6306
" />
<path d="M89.5000 2.6306
L89.8024 2.6306
" />
<path d="M89.8024 2.6306
L89.9233 2.6911
" />
<path d="M89.9233 2.6911
L89.9838 2.7516
" />
<path d="M89.9838 2.7516
L90.0443 2.8725
" />
<path d="M90.0443 2.8725
L90.0443 2.9935
" />
<path d="M90.0443 2.9935
L89.9838 3.1749
" />
<path d="M89.9838 3.1749
L89.2581 3.9006
" />
<path d="M89.2581 3.9006
L90.0443 3.9006
" />
<path d="M91.1933 2.6306
L90.5885 2.6306
" />
<path d="M90.5885 2.6306
L90.5281 3.2354
" />
<path d="M90.5281 3.2354
L90.5885 3.1749
" />
<path d="M90.5885 3.1749
L90.7095 3.1144
" />
<path d="M90.7095 3.1144
L91.0119 3.1144
" />
<path d="M91.0119 3.1144
L91.1328 3.1749
" />
<path d="M91.1328 3.1749
L91.1933 3.2354
" />
<path d="M91.1933 3.2354
L91.2538 3.3563
" />
<path d="M91.2538 3.3563
L91.2538 3.6587
" />
<path d="M91.2538 3.6587
L91.1933 3.7797
" />
<path d="M91.1933 3.7797
L91.1328 3.8402
" />
<path d="M91.1328 3.8402
L91.0119 3.9006
" />
<path d="M91.0119 3.9006
L90.7095 3.9006
" />
<path d="M90.7095 3.9006
L90.5885 3.8402
" />
<path d="M90.5885 3.8402
L90.5281 3.7797
" />
<path d="M91.6771 2.6306
L92.4633 2.6306
" />
<path d="M92.4633 2.6306
L92.0399 3.1144
" />
<path d="M92.0399 3.1144
L92.2214 3.1144
" />
<path d="M92.2214 3.1144
L92.3423 3.1749
" />
<path d="M92.3423 3.1749
L92.4028 3.2354
" />
<path d="M92.4028 3.2354
L92.4633 3.3563
" />
<path d="M92.4633 3.3563
L92.4633 3.6587
" />
<path d="M92.4633 3.6587
L92.4028 3.7797
" />
<path d="M92.4028 3.7797
L92.3423 3.8402
" />
<path d="M92.3423 3.8402
L92.2214 3.9006
" />
<path d="M92.2214 3.9006
L91.8585 3.9006
" />
<path d="M91.8585 3.9006
L91.7376 3.8402
" />
<path d="M91.7376 3.8402
L91.6771 3.7797
" />
<path d="M92.8866 2.6306
L93.6728 2.6306
" />
<path d="M93.6728 2.6306
L93.2494 3.1144
" />
<path d="M93.2494 3.1144
L93.4309 3.1144
" />
<path d="M93.4309 3.1144
L93.5518 3.1749
" />
<path d="M93.5518 3.1749
L93.6123 3.2354
" />
<path d="M93.6123 3.2354
L93.6728 3.3563
" />
<path d="M93.6728 3.3563
L93.6728 3.6587
" />
<path d="M93.6728 3.6587
L93.6123 3.7797
" />
<path d="M93.6123 3.7797
L93.5518 3.8402
" />
<path d="M93.5518 3.8402
L93.4309 3.9006
" />
<path d="M93.4309 3.9006
L93.0680 3.9006
" />
<path d="M93.0680 3.9006
L92.9471 3.8402
" />
<path d="M92.9471 3.8402
L92.8866 3.7797
" />
<path d="M94.7613 2.6306
L94.5194 2.6306
" />
<path d="M94.5194 2.6306
L94.3985 2.6911
" />
<path d="M94.3985 2.6911
L94.3380 2.7516
" />
<path d="M94.3380 2.7516
L94.2170 2.9330
" />
<path d="M94.2170 2.9330
L94.1566 3.1749
" />
<path d="M94.1566 3.1749
L94.1566 3.6587
" />
<path d="M94.1566 3.6587
L94.2170 3.7797
" />
<path d="M94.2170 3.7797
L94.2775 3.8402
" />
<path d="M94.2775 3.8402
L94.3985 3.9006
" />
<path d="M94.3985 3.9006
L94.6404 3.9006
" />
<path d="M94.6404 3.9006
L94.7613 3.8402
" />
<path d="M94.7613 3.8402
L94.8218 3.7797
" />
<path d="M94.8218 3.7797
L94.8823 3.6587
" />
<path d="M94.8823 3.6587
L94.8823 3.3563
" />
<path d="M94.8823 3.3563
L94.8218 3.2354
" />
<path d="M94.8218 3.2354
L94.7613 3.1749
" />
<path d="M94.7613 3.1749
L94.6404 3.1144
" />
<path d="M94.6404 3.1144
L94.3985 3.1144
" />
<path d="M94.3985 3.1144
L94.2775 3.1749
" />
<path d="M94.2775 3.1749
L94.2170 3.2354
" />
<path d="M94.2170 3.2354
L94.1566 3.3563
" />
<path d="M95.6684 2.6306
L95.7894 2.6306
" />
<path d="M95.7894 2.6306
L95.9103 2.6911
" />
<path d="M95.9103 2.6911
L95.9708 2.7516
" />
<path d="M95.9708 2.7516
L96.0313 2.8725
" />
<path d="M96.0313 2.8725
L96.0918 3.1144
" />
<path d="M96.0918 3.1144
L96.0918 3.4168
" />
<path d="M96.0918 3.4168
L96.0313 3.6587
" />
<path d="M96.0313 3.6587
L95.9708 3.7797
" />
<path d="M95.9708 3.7797
L95.9103 3.8402
" />
<path d="M95.9103 3.8402
L95.7894 3.9006
" />
<path d="M95.7894 3.9006
L95.6684 3.9006
" />
<path d="M95.6684 3.9006
L95.5475 3.8402
" />
<path d="M95.5475 3.8402
L95.4870 3.7797
" />
<path d="M95.4870 3.7797
L95.4265 3.6587
" />
<path d="M95.4265 3.6587
L95.3661 3.4168
" />
<path d="M95.3661 3.4168
L95.3661 3.1144
" />
<path d="M95.3661 3.1144
L95.4265 2.8725
" />
<path d="M95.4265 2.8725
L95.4870 2.7516
" />
<path d="M95.4870 2.7516
L95.5475 2.6911
" />
<path d="M95.5475 2.6911
L95.6684 2.6306
" />
<path d="M96.8779 2.6306
L96.9989 2.6306
" />
<path d="M96.9989 2.6306
L97.1198 2.6911
" />
<path d="M97.1198 2.6911
L97.1803 2.7516
" />
<path d="M97.1803 2.7516
L97.2408 2.8725
" />
<path d="M97.2408 2.8725
L97.3013 3.1144
" />
<path d="M97.3013 3.1144
L97.3013 3.4168
" />
<path d="M97.3013 3.4168
L97.2408 3.6587
" />
<path d="M97.2408 3.6587
L97.1803 3.7797
" />
<path d="M97.1803 3.7797
L97.1198 3.8402
" />
<path d="M97.1198 3.8402
L96.9989 3.9006
" />
<path d="M96.9989 3.9006
L96.8779 3.9006
" />
<path d="M96.8779 3.9006
L96.7570 3.8402
" />
<path d="M96.7570 3.8402
L96.6965 3.7797
" />
<path d="M96.6965 3.7797
L96.6360 3.6587
" />
<path d="M96.6360 3.6587
L96.5756 3.4168
" />
<path d="M96.5756 3.4168
L96.5756 3.1144
" />
<path d="M96.5756 3.1144
L96.6360 2.8725
" />
<path d="M96.6360 2.8725
L96.6965 2.7516
" />
<path d="M96.6965 2.7516
L96.7570 2.6911
" />
<path d="M96.7570 2.6911
L96.8779 2.6306
" />
<path d="M98.3898 3.9006
L98.3898 3.2354
" />
<path d="M98.3898 3.2354
L98.3293 3.1144
" />
<path d="M98.3293 3.1144
L98.2084 3.0540
" />
<path d="M98.2084 3.0540
L97.9665 3.0540
" />
<path d="M97.9665 3.0540
L97.8455 3.1144
" />
<path d="M98.3898 3.8402
L98.2689 3.9006
" />
<path d="M98.2689 3.9006
L97.9665 3.9006
" />
<path d="M97.9665 3.9006
L97.8455 3.8402
" />
<path d="M97.8455 3.8402
L97.7851 3.7192
" />
<path d="M97.7851 3.7192
L97.7851 3.5982
" />
<path d="M97.7851 3.5982
L97.8455 3.4773
" />
<path d="M97.8455 3.4773
L97.9665 3.4168
" />
<path d="M97.9665 3.4168
L98.2689 3.4168
" />
<path d="M98.2689 3.4168
L98.3898 3.3563
" />
<path d="M99.5388 3.0540
L99.5388 3.9006
" />
<path d="M99.2364 2.5702
L98.9341 3.4773
" />
<path d="M98.9341 3.4773
L99.7202 3.4773
" />
<path d="M100.4459 2.6306
L100.5669 2.6306
" />
<path d="M100.5669 2.6306
L100.6878 2.6911
" />
<path d="M100.6878 2.6911
L100.7483 2.7516
" />
<path d="M100.7483 2.7516
L100.8088 2.8725
" />
<path d="M100.8088 2.8725
L100.8693 3.1144
" />
<path d="M100.8693 3.1144
L100.8693 3.4168
" />
<path d="M100.8693 3.4168
L100.8088 3.6587
" />
<path d="M100.8088 3.6587
L100.7483 3.7797
" />
<path d="M100.7483 3.7797
L100.6878 3.8402
" />
<path d="M100.6878 3.8402
L100.5669 3.9006
" />
<path d="M100.5669 3.9006
L100.4459 3.9006
" />
<path d="M100.4459 3.9006
L100.3250 3.8402
" />
<path d="M100.3250 3.8402
L100.2645 3.7797
" />
<path d="M100.2645 3.7797
L100.2040 3.6587
" />
<path d="M100.2040 3.6587
L100.1436 3.4168
" />
<path d="M100.1436 3.4168
L100.1436 3.1144
" />
<path d="M100.1436 3.1144
L100.2040 2.8725
" />
<path d="M100.2040 2.8725
L100.2645 2.7516
" />
<path d="M100.2645 2.7516
L100.3250 2.6911
" />
<path d="M100.3250 2.6911
L100.4459 2.6306
" />
<path d="M102.0788 3.9006
L101.3531 3.9006
" />
<path d="M101.7159 3.9006
L101.7159 2.6306
" />
<path d="M101.7159 2.6306
L101.5950 2.8121
" />
<path d="M101.5950 2.8121
L101.4740 2.9330
" />
<path d="M101.4740 2.9330
L101.3531 2.9935
" />
<path d="M103.2278 2.6306
L102.6230 2.6306
" />
<path d="M102.6230 2.6306
L102.5626 3.2354
" />
<path d="M102.5626 3.2354
L102.6230 3.1749
" />
<path d="M102.6230 3.1749
L102.7440 3.1144
" />
<path d="M102.7440 3.1144
L103.0464 3.1144
" />
<path d="M103.0464 3.1144
L103.1673 3.1749
" />
<path d="M103.1673 3.1749
L103.2278 3.2354
" />
<path d="M103.2278 3.2354
L103.2883 3.3563
" />
<path d="M103.2883 3.3563
L103.2883 3.6587
" />
<path d="M103.2883 3.6587
L103.2278 3.7797
" />
<path d="M103.2278 3.7797
L103.1673 3.8402
" />
<path d="M103.1673 3.8402
L103.0464 3.9006
" />
<path d="M103.0464 3.9006
L102.7440 3.9006
" />
<path d="M102.7440 3.9006
L102.6230 3.8402
" />
<path d="M102.6230 3.8402
L102.5626 3.7797
" />
<path d="M103.7116 2.6306
L104.4978 2.6306
" />
<path d="M104.4978 2.6306
L104.0744 3.1144
" />
<path d="M104.0744 3.1144
L104.2559 3.1144
" />
<path d="M104.2559 3.1144
L104.3768 3.1749
" />
<path d="M104.3768 3.1749
L104.4373 3.2354
" />
<path d="M104.4373 3.2354
L104.4978 3.3563
" />
<path d="M104.4978 3.3563
L104.4978 3.6587
" />
<path d="M104.4978 3.6587
L104.4373 3.7797
" />
<path d="M104.4373 3.7797
L104.3768 3.8402
" />
<path d="M104.3768 3.8402
L104.2559 3.9006
" />
<path d="M104.2559 3.9006
L103.8930 3.9006
" />
<path d="M103.8930 3.9006
L103.7721 3.8402
" />
<path d="M103.7721 3.8402
L103.7116 3.7797
" />
<path d="M105.6468 2.6306
L105.0420 2.6306
" />
<path d="M105.0420 2.6306
L104.9816 3.2354
" />
<path d="M104.9816 3.2354
L105.0420 3.1749
" />
<path d="M105.0420 3.1749
L105.1630 3.1144
" />
<path d="M105.1630 3.1144
L105.4654 3.1144
" />
<path d="M105.4654 3.1144
L105.5863 3.1749
" />
<path d="M105.5863 3.1749
L105.6468 3.2354
" />
<path d="M105.6468 3.2354
L105.7073 3.3563
" />
<path d="M105.7073 3.3563
L105.7073 3.6587
" />
<path d="M105.7073 3.6587
L105.6468 3.7797
" />
<path d="M105.6468 3.7797
L105.5863 3.8402
" />
<path d="M105.5863 3.8402
L105.4654 3.9006
" />
<path d="M105.4654 3.9006
L105.1630 3.9006
" />
<path d="M105.1630 3.9006
L105.0420 3.8402
" />
<path d="M105.0420 3.8402
L104.9816 3.7797
" />
<path d="M106.8563 2.6306
L106.2515 2.6306
" />
<path d="M106.2515 2.6306
L106.1911 3.2354
" />
<path d="M106.1911 3.2354
L106.2515 3.1749
" />
<path d="M106.2515 3.1749
L106.3725 3.1144
" />
<path d="M106.3725 3.1144
L106.6749 3.1144
" />
<path d="M106.6749 3.1144
L106.7958 3.1749
" />
<path d="M106.7958 3.1749
L106.8563 3.2354
" />
<path d="M106.8563 3.2354
L106.9168 3.3563
" />
<path d="M106.9168 3.3563
L106.9168 3.6587
" />
<path d="M106.9168 3.6587
L106.8563 3.7797
" />
<path d="M106.8563 3.7797
L106.7958 3.8402
" />
<path d="M106.7958 3.8402
L106.6749 3.9006
" />
<path d="M106.6749 3.9006
L106.3725 3.9006
" />
<path d="M106.3725 3.9006
L106.2515 3.8402
" />
<path d="M106.2515 3.8402
L106.1911 3.7797
" />
<path d="M107.9448 3.8402
L107.8239 3.9006
" />
<path d="M107.8239 3.9006
L107.5820 3.9006
" />
<path d="M107.5820 3.9006
L107.4610 3.8402
" />
<path d="M107.4610 3.8402
L107.4006 3.7192
" />
<path d="M107.4006 3.7192
L107.4006 3.2354
" />
<path d="M107.4006 3.2354
L107.4610 3.1144
" />
<path d="M107.4610 3.1144
L107.5820 3.0540
" />
<path d="M107.5820 3.0540
L107.8239 3.0540
" />
<path d="M107.8239 3.0540
L107.9448 3.1144
" />
<path d="M107.9448 3.1144
L108.0053 3.2354
" />
<path d="M108.0053 3.2354
L108.0053 3.3563
" />
<path d="M108.0053 3.3563
L107.4006 3.4773
" />
<path d="M109.0939 3.9006
L109.0939 2.6306
" />
<path d="M109.0939 3.8402
L108.9730 3.9006
" />
<path d="M108.9730 3.9006
L108.7311 3.9006
" />
<path d="M108.7311 3.9006
L108.6101 3.8402
" />
<path d="M108.6101 3.8402
L108.5496 3.7797
" />
<path d="M108.5496 3.7797
L108.4892 3.6587
" />
<path d="M108.4892 3.6587
L108.4892 3.2959
" />
<path d="M108.4892 3.2959
L108.5496 3.1749
" />
<path d="M108.5496 3.1749
L108.6101 3.1144
" />
<path d="M108.6101 3.1144
L108.7311 3.0540
" />
<path d="M108.7311 3.0540
L108.9730 3.0540
" />
<path d="M108.9730 3.0540
L109.0939 3.1144
" />
<path d="M110.3639 3.9006
L109.6382 3.9006
" />
<path d="M110.0010 3.9006
L110.0010 2.6306
" />
<path d="M110.0010 2.6306
L109.8801 2.8121
" />
<path d="M109.8801 2.8121
L109.7591 2.9330
" />
<path d="M109.7591 2.9330
L109.6382 2.9935
" />
<path d="M111.5129 2.6306
L110.9081 2.6306
" />
<path d="M110.9081 2.6306
L110.8477 3.2354
" />
<path d="M110.8477 3.2354
L110.9081 3.1749
" />
<path d="M110.9081 3.1749
L111.0291 3.1144
" />
<path d="M111.0291 3.1144
L111.3315 3.1144
" />
<path d="M111.3315 3.1144
L111.4524 3.1749
" />
<path d="M111.4524 3.1749
L111.5129 3.2354
" />
<path d="M111.5129 3.2354
L111.5734 3.3563
" />
<path d="M111.5734 3.3563
L111.5734 3.6587
" />
<path d="M111.5734 3.6587
L111.5129 3.7797
" />
<path d="M111.5129 3.7797
L111.4524 3.8402
" />
<path d="M111.4524 3.8402
L111.3315 3.9006
" />
<path d="M111.3315 3.9006
L111.0291 3.9006
" />
<path d="M111.0291 3.9006
L110.9081 3.8402
" />
<path d="M110.9081 3.8402
L110.8477 3.7797
" />
<path d="M112.0572 2.7516
L112.1176 2.6911
" />
<path d="M112.1176 2.6911
L112.2386 2.6306
" />
<path d="M112.2386 2.6306
L112.5410 2.6306
" />
<path d="M112.5410 2.6306
L112.6619 2.6911
" />
<path d="M112.6619 2.6911
L112.7224 2.7516
" />
<path d="M112.7224 2.7516
L112.7829 2.8725
" />
<path d="M112.7829 2.8725
L112.7829 2.9935
" />
<path d="M112.7829 2.9935
L112.7224 3.1749
" />
<path d="M112.7224 3.1749
L111.9967 3.9006
" />
<path d="M111.9967 3.9006
L112.7829 3.9006
" />
<path d="M113.8714 3.0540
L113.8714 3.9006
" />
<path d="M113.5690 2.5702
L113.2667 3.4773
" />
<path d="M113.2667 3.4773
L114.0528 3.4773
" />
<path d="M115.2019 3.9006
L114.4762 3.9006
" />
<path d="M114.8390 3.9006
L114.8390 2.6306
" />
<path d="M114.8390 2.6306
L114.7181 2.8121
" />
<path d="M114.7181 2.8121
L114.5971 2.9330
" />
<path d="M114.5971 2.9330
L114.4762 2.9935
" />
<path d="M116.2904 3.9006
L116.2904 3.2354
" />
<path d="M116.2904 3.2354
L116.2299 3.1144
" />
<path d="M116.2299 3.1144
L116.1090 3.0540
" />
<path d="M116.1090 3.0540
L115.8671 3.0540
" />
<path d="M115.8671 3.0540
L115.7461 3.1144
" />
<path d="M116.2904 3.8402
L116.1695 3.9006
" />
<path d="M116.1695 3.9006
L115.8671 3.9006
" />
<path d="M115.8671 3.9006
L115.7461 3.8402
" />
<path d="M115.7461 3.8402
L115.6857 3.7192
" />
<path d="M115.6857 3.7192
L115.6857 3.5982
" />
<path d="M115.6857 3.5982
L115.7461 3.4773
" />
<path d="M115.7461 3.4773
L115.8671 3.4168
" />
<path d="M115.8671 3.4168
L116.1695 3.4168
" />
<path d="M116.1695 3.4168
L116.2904 3.3563
" />
<path d="M117.0766 3.1749
L116.9556 3.1144
" />
<path d="M116.9556 3.1144
L116.8951 3.0540
" />
<path d="M116.8951 3.0540
L116.8347 2.9330
" />
<path d="M116.8347 2.9330
L116.8347 2.8725
" />
<path d="M116.8347 2.8725
L116.8951 2.7516
" />
<path d="M116.8951 2.7516
L116.9556 2.6911
" />
<path d="M116.9556 2.6911
L117.0766 2.6306
" />
<path d="M117.0766 2.6306
L117.3185 2.6306
" />
<path d="M117.3185 2.6306
L117.4394 2.6911
" />
<path d="M117.4394 2.6911
L117.4999 2.7516
" />
<path d="M117.4999 2.7516
L117.5604 2.8725
" />
<path d="M117.5604 2.8725
L117.5604 2.9330
" />
<path d="M117.5604 2.9330
L117.4999 3.0540
" />
<path d="M117.4999 3.0540
L117.4394 3.1144
" />
<path d="M117.4394 3.1144
L117.3185 3.1749
" />
<path d="M117.3185 3.1749
L117.0766 3.1749
" />
<path d="M117.0766 3.1749
L116.9556 3.2354
" />
<path d="M116.9556 3.2354
L116.8951 3.2959
" />
<path d="M116.8951 3.2959
L116.8347 3.4168
" />
<path d="M116.8347 3.4168
L116.8347 3.6587
" />
<path d="M116.8347 3.6587
L116.8951 3.7797
" />
<path d="M116.8951 3.7797
L116.9556 3.8402
" />
<path d="M116.9556 3.8402
L117.0766 3.9006
" />
<path d="M117.0766 3.9006
L117.3185 3.9006
" />
<path d="M117.3185 3.9006
L117.4394 3.8402
" />
<path d="M117.4394 3.8402
L117.4999 3.7797
" />
<path d="M117.4999 3.7797
L117.5604 3.6587
" />
<path d="M117.5604 3.6587
L117.5604 3.4168
" />
<path d="M117.5604 3.4168
L117.4999 3.2959
" />
<path d="M117.4999 3.2959
L117.4394 3.2354
" />
<path d="M117.4394 3.2354
L117.3185 3.1749
" />
<path d="M118.6489 3.0540
L118.6489 3.9006
" />
<path d="M118.3465 2.5702
L118.0442 3.4773
" />
<path d="M118.0442 3.4773
L118.8303 3.4773
" />
</g></g> 
</svg>
