<?xml version="1.0" standalone="no"?>
 <!DOCTYPE svg PUBLIC "-//W3C//DTD SVG 1.1//EN" 
 "http://www.w3.org/Graphics/SVG/1.1/DTD/svg11.dtd"> 
<svg
  xmlns:svg="http://www.w3.org/2000/svg"
  xmlns="http://www.w3.org/2000/svg"
  xmlns:xlink="http://www.w3.org/1999/xlink"
  version="1.1"
  width="160.2232mm" height="18.2880mm" viewBox="0.0000 0.0000 160.2232 18.2880">
<title>SVG Image created as working.svg date 2023/08/29 04:27:04 </title>
  <desc>Image generated by Eeschema-SVG </desc>
<g style="fill:#000000; fill-opacity:1.0000;stroke:#000000; stroke-opacity:1.0000;
stroke-linecap:round; stroke-linejoin:round;"
 transform="translate(0 0) scale(1 1)">
</g>
<g style="fill:#840000; fill-opacity:0.0; 
stroke:#840000; stroke-width:0.0000; stroke-opacity:1; 
stroke-linecap:round; stroke-linejoin:round;">
</g>
<g style="fill:#FFFFC2; fill-opacity:0.0; 
stroke:#FFFFC2; stroke-width:0.0000; stroke-opacity:1; 
stroke-linecap:round; stroke-linejoin:round;">
</g>
<g style="fill:#FFFFC2; fill-opacity:1.0000; 
stroke:#FFFFC2; stroke-width:0.0000; stroke-opacity:1; 
stroke-linecap:round; stroke-linejoin:round;">
<rect x="71.216600" y="4.064100" width="10.160000" height="10.160000" rx="0.000000" />
</g>
<g style="fill:#840084; fill-opacity:1.0000; 
stroke:#840084; stroke-width:0.0000; stroke-opacity:1; 
stroke-linecap:round; stroke-linejoin:round;">
</g>
<g style="fill:#840000; fill-opacity:1.0000; 
stroke:#840000; stroke-width:0.0000; stroke-opacity:1; 
stroke-linecap:round; stroke-linejoin:round;">
</g>
<g style="fill:#840000; fill-opacity:0.0; 
stroke:#840000; stroke-width:0.2540; stroke-opacity:1; 
stroke-linecap:round; stroke-linejoin:round;">
<rect x="71.216600" y="4.064100" width="10.160000" height="10.160000" rx="0.000000" />
</g>
<g style="fill:#840000; fill-opacity:0.0; 
stroke:#840000; stroke-width:0.1524; stroke-opacity:1; 
stroke-linecap:round; stroke-linejoin:round;">
<path d="M76.2966 14.2241
L76.2966 16.7641
" />
</g>
<g style="fill:#006464; fill-opacity:0.0; 
stroke:#006464; stroke-width:0.1524; stroke-opacity:1; 
stroke-linecap:round; stroke-linejoin:round;">
<g transform="rotate(-90.000000 76.2966 13.7161)">
<text x="76.2966" y="14.3511"
textLength="4.0737" font-size="1.6933" lengthAdjust="spacingAndGlyphs"
text-anchor="start" opacity="0">GND</text>
</g>
<g class="stroked-text"><desc>GND</desc>
<path d="M75.6666 12.6482
L75.6061 12.7692
" />
<path d="M75.6061 12.7692
L75.6061 12.9506
" />
<path d="M75.6061 12.9506
L75.6666 13.1320
" />
<path d="M75.6666 13.1320
L75.7876 13.2530
" />
<path d="M75.7876 13.2530
L75.9085 13.3135
" />
<path d="M75.9085 13.3135
L76.1504 13.3739
" />
<path d="M76.1504 13.3739
L76.3318 13.3739
" />
<path d="M76.3318 13.3739
L76.5737 13.3135
" />
<path d="M76.5737 13.3135
L76.6947 13.2530
" />
<path d="M76.6947 13.2530
L76.8157 13.1320
" />
<path d="M76.8157 13.1320
L76.8761 12.9506
" />
<path d="M76.8761 12.9506
L76.8761 12.8297
" />
<path d="M76.8761 12.8297
L76.8157 12.6482
" />
<path d="M76.8157 12.6482
L76.7552 12.5878
" />
<path d="M76.7552 12.5878
L76.3318 12.5878
" />
<path d="M76.3318 12.5878
L76.3318 12.8297
" />
<path d="M76.8761 12.0435
L75.6061 12.0435
" />
<path d="M75.6061 12.0435
L76.8761 11.3178
" />
<path d="M76.8761 11.3178
L75.6061 11.3178
" />
<path d="M76.8761 10.7130
L75.6061 10.7130
" />
<path d="M75.6061 10.7130
L75.6061 10.4106
" />
<path d="M75.6061 10.4106
L75.6666 10.2292
" />
<path d="M75.6666 10.2292
L75.7876 10.1082
" />
<path d="M75.7876 10.1082
L75.9085 10.0477
" />
<path d="M75.9085 10.0477
L76.1504 9.9873
" />
<path d="M76.1504 9.9873
L76.3318 9.9873
" />
<path d="M76.3318 9.9873
L76.5737 10.0477
" />
<path d="M76.5737 10.0477
L76.6947 10.1082
" />
<path d="M76.6947 10.1082
L76.8157 10.2292
" />
<path d="M76.8157 10.2292
L76.8761 10.4106
" />
<path d="M76.8761 10.4106
L76.8761 10.7130
" />
</g></g>
<g style="fill:#A90000; fill-opacity:0.0; 
stroke:#A90000; stroke-width:0.1524; stroke-opacity:1; 
stroke-linecap:round; stroke-linejoin:round;">
<g transform="rotate(-90.000000 76.0426 15.4941)">
<text x="76.0426" y="15.4941"
textLength="1.4127" font-size="1.6933" lengthAdjust="spacingAndGlyphs"
text-anchor="middle" opacity="0">4</text>
</g>
<g class="stroked-text"><desc>4</desc>
<path d="M75.0325 15.2521
L75.8791 15.2521
" />
<path d="M74.5487 15.5545
L75.4558 15.8568
" />
<path d="M75.4558 15.8568
L75.4558 15.0707
" />
</g></g>
<g style="fill:#840000; fill-opacity:0.0; 
stroke:#840000; stroke-width:0.1524; stroke-opacity:1; 
stroke-linecap:round; stroke-linejoin:round;">
<path d="M81.3766 6.6041
L83.9166 6.6041
" />
</g>
<g style="fill:#006464; fill-opacity:0.0; 
stroke:#006464; stroke-width:0.1524; stroke-opacity:1; 
stroke-linecap:round; stroke-linejoin:round;">
<text x="80.8686" y="7.2391"
textLength="3.7713" font-size="1.6933" lengthAdjust="spacingAndGlyphs"
text-anchor="end" opacity="0">SDA</text>
<g class="stroked-text"><desc>SDA</desc>
<path d="M77.4422 7.1232
L77.6236 7.1836
" />
<path d="M77.6236 7.1836
L77.9260 7.1836
" />
<path d="M77.9260 7.1836
L78.0469 7.1232
" />
<path d="M78.0469 7.1232
L78.1074 7.0627
" />
<path d="M78.1074 7.0627
L78.1679 6.9417
" />
<path d="M78.1679 6.9417
L78.1679 6.8208
" />
<path d="M78.1679 6.8208
L78.1074 6.6998
" />
<path d="M78.1074 6.6998
L78.0469 6.6393
" />
<path d="M78.0469 6.6393
L77.9260 6.5789
" />
<path d="M77.9260 6.5789
L77.6841 6.5184
" />
<path d="M77.6841 6.5184
L77.5631 6.4579
" />
<path d="M77.5631 6.4579
L77.5026 6.3974
" />
<path d="M77.5026 6.3974
L77.4422 6.2765
" />
<path d="M77.4422 6.2765
L77.4422 6.1555
" />
<path d="M77.4422 6.1555
L77.5026 6.0346
" />
<path d="M77.5026 6.0346
L77.5631 5.9741
" />
<path d="M77.5631 5.9741
L77.6841 5.9136
" />
<path d="M77.6841 5.9136
L77.9864 5.9136
" />
<path d="M77.9864 5.9136
L78.1679 5.9741
" />
<path d="M78.7121 7.1836
L78.7121 5.9136
" />
<path d="M78.7121 5.9136
L79.0145 5.9136
" />
<path d="M79.0145 5.9136
L79.1959 5.9741
" />
<path d="M79.1959 5.9741
L79.3169 6.0951
" />
<path d="M79.3169 6.0951
L79.3774 6.2160
" />
<path d="M79.3774 6.2160
L79.4378 6.4579
" />
<path d="M79.4378 6.4579
L79.4378 6.6393
" />
<path d="M79.4378 6.6393
L79.3774 6.8812
" />
<path d="M79.3774 6.8812
L79.3169 7.0022
" />
<path d="M79.3169 7.0022
L79.1959 7.1232
" />
<path d="M79.1959 7.1232
L79.0145 7.1836
" />
<path d="M79.0145 7.1836
L78.7121 7.1836
" />
<path d="M79.9217 6.8208
L80.5264 6.8208
" />
<path d="M79.8007 7.1836
L80.2240 5.9136
" />
<path d="M80.2240 5.9136
L80.6474 7.1836
" />
</g></g>
<g style="fill:#A90000; fill-opacity:0.0; 
stroke:#A90000; stroke-width:0.1524; stroke-opacity:1; 
stroke-linecap:round; stroke-linejoin:round;">
<text x="82.6466" y="6.3501"
textLength="1.4127" font-size="1.6933" lengthAdjust="spacingAndGlyphs"
text-anchor="middle" opacity="0">5</text>
<g class="stroked-text"><desc>5</desc>
<path d="M82.9490 4.9166
L82.3442 4.9166
" />
<path d="M82.3442 4.9166
L82.2838 5.5214
" />
<path d="M82.2838 5.5214
L82.3442 5.4609
" />
<path d="M82.3442 5.4609
L82.4652 5.4004
" />
<path d="M82.4652 5.4004
L82.7676 5.4004
" />
<path d="M82.7676 5.4004
L82.8885 5.4609
" />
<path d="M82.8885 5.4609
L82.9490 5.5214
" />
<path d="M82.9490 5.5214
L83.0095 5.6423
" />
<path d="M83.0095 5.6423
L83.0095 5.9447
" />
<path d="M83.0095 5.9447
L82.9490 6.0657
" />
<path d="M82.9490 6.0657
L82.8885 6.1262
" />
<path d="M82.8885 6.1262
L82.7676 6.1866
" />
<path d="M82.7676 6.1866
L82.4652 6.1866
" />
<path d="M82.4652 6.1866
L82.3442 6.1262
" />
<path d="M82.3442 6.1262
L82.2838 6.0657
" />
</g></g>
<g style="fill:#840000; fill-opacity:0.0; 
stroke:#840000; stroke-width:0.1524; stroke-opacity:1; 
stroke-linecap:round; stroke-linejoin:round;">
<path d="M81.3766 11.6841
L83.9166 11.6841
" />
</g>
<g style="fill:#006464; fill-opacity:0.0; 
stroke:#006464; stroke-width:0.1524; stroke-opacity:1; 
stroke-linecap:round; stroke-linejoin:round;">
<text x="80.8686" y="12.3191"
textLength="3.7108" font-size="1.6933" lengthAdjust="spacingAndGlyphs"
text-anchor="end" opacity="0">SCL</text>
<g class="stroked-text"><desc>SCL</desc>
<path d="M77.5027 12.2032
L77.6841 12.2636
" />
<path d="M77.6841 12.2636
L77.9865 12.2636
" />
<path d="M77.9865 12.2636
L78.1074 12.2032
" />
<path d="M78.1074 12.2032
L78.1679 12.1427
" />
<path d="M78.1679 12.1427
L78.2284 12.0217
" />
<path d="M78.2284 12.0217
L78.2284 11.9008
" />
<path d="M78.2284 11.9008
L78.1679 11.7798
" />
<path d="M78.1679 11.7798
L78.1074 11.7193
" />
<path d="M78.1074 11.7193
L77.9865 11.6589
" />
<path d="M77.9865 11.6589
L77.7446 11.5984
" />
<path d="M77.7446 11.5984
L77.6236 11.5379
" />
<path d="M77.6236 11.5379
L77.5631 11.4774
" />
<path d="M77.5631 11.4774
L77.5027 11.3565
" />
<path d="M77.5027 11.3565
L77.5027 11.2355
" />
<path d="M77.5027 11.2355
L77.5631 11.1146
" />
<path d="M77.5631 11.1146
L77.6236 11.0541
" />
<path d="M77.6236 11.0541
L77.7446 10.9936
" />
<path d="M77.7446 10.9936
L78.0469 10.9936
" />
<path d="M78.0469 10.9936
L78.2284 11.0541
" />
<path d="M79.4983 12.1427
L79.4379 12.2032
" />
<path d="M79.4379 12.2032
L79.2564 12.2636
" />
<path d="M79.2564 12.2636
L79.1355 12.2636
" />
<path d="M79.1355 12.2636
L78.9541 12.2032
" />
<path d="M78.9541 12.2032
L78.8331 12.0822
" />
<path d="M78.8331 12.0822
L78.7726 11.9612
" />
<path d="M78.7726 11.9612
L78.7122 11.7193
" />
<path d="M78.7122 11.7193
L78.7122 11.5379
" />
<path d="M78.7122 11.5379
L78.7726 11.2960
" />
<path d="M78.7726 11.2960
L78.8331 11.1751
" />
<path d="M78.8331 11.1751
L78.9541 11.0541
" />
<path d="M78.9541 11.0541
L79.1355 10.9936
" />
<path d="M79.1355 10.9936
L79.2564 10.9936
" />
<path d="M79.2564 10.9936
L79.4379 11.0541
" />
<path d="M79.4379 11.0541
L79.4983 11.1146
" />
<path d="M80.6474 12.2636
L80.0426 12.2636
" />
<path d="M80.0426 12.2636
L80.0426 10.9936
" />
</g></g>
<g style="fill:#A90000; fill-opacity:0.0; 
stroke:#A90000; stroke-width:0.1524; stroke-opacity:1; 
stroke-linecap:round; stroke-linejoin:round;">
<text x="82.6466" y="11.4301"
textLength="1.4127" font-size="1.6933" lengthAdjust="spacingAndGlyphs"
text-anchor="middle" opacity="0">6</text>
<g class="stroked-text"><desc>6</desc>
<path d="M82.8885 9.9966
L82.6466 9.9966
" />
<path d="M82.6466 9.9966
L82.5257 10.0571
" />
<path d="M82.5257 10.0571
L82.4652 10.1176
" />
<path d="M82.4652 10.1176
L82.3442 10.2990
" />
<path d="M82.3442 10.2990
L82.2838 10.5409
" />
<path d="M82.2838 10.5409
L82.2838 11.0247
" />
<path d="M82.2838 11.0247
L82.3442 11.1457
" />
<path d="M82.3442 11.1457
L82.4047 11.2062
" />
<path d="M82.4047 11.2062
L82.5257 11.2666
" />
<path d="M82.5257 11.2666
L82.7676 11.2666
" />
<path d="M82.7676 11.2666
L82.8885 11.2062
" />
<path d="M82.8885 11.2062
L82.9490 11.1457
" />
<path d="M82.9490 11.1457
L83.0095 11.0247
" />
<path d="M83.0095 11.0247
L83.0095 10.7223
" />
<path d="M83.0095 10.7223
L82.9490 10.6014
" />
<path d="M82.9490 10.6014
L82.8885 10.5409
" />
<path d="M82.8885 10.5409
L82.7676 10.4804
" />
<path d="M82.7676 10.4804
L82.5257 10.4804
" />
<path d="M82.5257 10.4804
L82.4047 10.5409
" />
<path d="M82.4047 10.5409
L82.3442 10.6014
" />
<path d="M82.3442 10.6014
L82.2838 10.7223
" />
</g></g>
<g style="fill:#840000; fill-opacity:0.0; 
stroke:#840000; stroke-width:0.1524; stroke-opacity:1; 
stroke-linecap:round; stroke-linejoin:round;">
<path d="M76.2966 4.0641
L76.2966 1.5241
" />
</g>
<g style="fill:#006464; fill-opacity:0.0; 
stroke:#006464; stroke-width:0.1524; stroke-opacity:1; 
stroke-linecap:round; stroke-linejoin:round;">
<g transform="rotate(-90.000000 76.2966 4.5721)">
<text x="76.2966" y="5.2071"
textLength="3.8318" font-size="1.6933" lengthAdjust="spacingAndGlyphs"
text-anchor="end" opacity="0">VCC</text>
</g>
<g class="stroked-text"><desc>VCC</desc>
<path d="M75.6061 8.1799
L76.8761 7.7566
" />
<path d="M76.8761 7.7566
L75.6061 7.3332
" />
<path d="M76.7552 6.1842
L76.8157 6.2446
" />
<path d="M76.8157 6.2446
L76.8761 6.4261
" />
<path d="M76.8761 6.4261
L76.8761 6.5470
" />
<path d="M76.8761 6.5470
L76.8157 6.7284
" />
<path d="M76.8157 6.7284
L76.6947 6.8494
" />
<path d="M76.6947 6.8494
L76.5737 6.9099
" />
<path d="M76.5737 6.9099
L76.3318 6.9703
" />
<path d="M76.3318 6.9703
L76.1504 6.9703
" />
<path d="M76.1504 6.9703
L75.9085 6.9099
" />
<path d="M75.9085 6.9099
L75.7876 6.8494
" />
<path d="M75.7876 6.8494
L75.6666 6.7284
" />
<path d="M75.6666 6.7284
L75.6061 6.5470
" />
<path d="M75.6061 6.5470
L75.6061 6.4261
" />
<path d="M75.6061 6.4261
L75.6666 6.2446
" />
<path d="M75.6666 6.2446
L75.7271 6.1842
" />
<path d="M76.7552 4.9142
L76.8157 4.9746
" />
<path d="M76.8157 4.9746
L76.8761 5.1561
" />
<path d="M76.8761 5.1561
L76.8761 5.2770
" />
<path d="M76.8761 5.2770
L76.8157 5.4584
" />
<path d="M76.8157 5.4584
L76.6947 5.5794
" />
<path d="M76.6947 5.5794
L76.5737 5.6399
" />
<path d="M76.5737 5.6399
L76.3318 5.7003
" />
<path d="M76.3318 5.7003
L76.1504 5.7003
" />
<path d="M76.1504 5.7003
L75.9085 5.6399
" />
<path d="M75.9085 5.6399
L75.7876 5.5794
" />
<path d="M75.7876 5.5794
L75.6666 5.4584
" />
<path d="M75.6666 5.4584
L75.6061 5.2770
" />
<path d="M75.6061 5.2770
L75.6061 5.1561
" />
<path d="M75.6061 5.1561
L75.6666 4.9746
" />
<path d="M75.6666 4.9746
L75.7271 4.9142
" />
</g></g>
<g style="fill:#A90000; fill-opacity:0.0; 
stroke:#A90000; stroke-width:0.1524; stroke-opacity:1; 
stroke-linecap:round; stroke-linejoin:round;">
<g transform="rotate(-90.000000 76.0426 2.7941)">
<text x="76.0426" y="2.7941"
textLength="1.4127" font-size="1.6933" lengthAdjust="spacingAndGlyphs"
text-anchor="middle" opacity="0">8</text>
</g>
<g class="stroked-text"><desc>8</desc>
<path d="M75.1534 2.9149
L75.0929 3.0359
" />
<path d="M75.0929 3.0359
L75.0325 3.0964
" />
<path d="M75.0325 3.0964
L74.9115 3.1568
" />
<path d="M74.9115 3.1568
L74.8510 3.1568
" />
<path d="M74.8510 3.1568
L74.7301 3.0964
" />
<path d="M74.7301 3.0964
L74.6696 3.0359
" />
<path d="M74.6696 3.0359
L74.6091 2.9149
" />
<path d="M74.6091 2.9149
L74.6091 2.6730
" />
<path d="M74.6091 2.6730
L74.6696 2.5521
" />
<path d="M74.6696 2.5521
L74.7301 2.4916
" />
<path d="M74.7301 2.4916
L74.8510 2.4311
" />
<path d="M74.8510 2.4311
L74.9115 2.4311
" />
<path d="M74.9115 2.4311
L75.0325 2.4916
" />
<path d="M75.0325 2.4916
L75.0929 2.5521
" />
<path d="M75.0929 2.5521
L75.1534 2.6730
" />
<path d="M75.1534 2.6730
L75.1534 2.9149
" />
<path d="M75.1534 2.9149
L75.2139 3.0359
" />
<path d="M75.2139 3.0359
L75.2744 3.0964
" />
<path d="M75.2744 3.0964
L75.3953 3.1568
" />
<path d="M75.3953 3.1568
L75.6372 3.1568
" />
<path d="M75.6372 3.1568
L75.7582 3.0964
" />
<path d="M75.7582 3.0964
L75.8187 3.0359
" />
<path d="M75.8187 3.0359
L75.8791 2.9149
" />
<path d="M75.8791 2.9149
L75.8791 2.6730
" />
<path d="M75.8791 2.6730
L75.8187 2.5521
" />
<path d="M75.8187 2.5521
L75.7582 2.4916
" />
<path d="M75.7582 2.4916
L75.6372 2.4311
" />
<path d="M75.6372 2.4311
L75.3953 2.4311
" />
<path d="M75.3953 2.4311
L75.2744 2.4916
" />
<path d="M75.2744 2.4916
L75.2139 2.5521
" />
<path d="M75.2139 2.5521
L75.1534 2.6730
" />
</g></g>
<g style="fill:#840000; fill-opacity:0.0; 
stroke:#840000; stroke-width:0.1524; stroke-opacity:1; 
stroke-linecap:round; stroke-linejoin:round;">
<path d="M73.7566 14.2241
L73.7566 16.7641
" />
</g>
<g style="fill:#006464; fill-opacity:0.0; 
stroke:#006464; stroke-width:0.1524; stroke-opacity:1; 
stroke-linecap:round; stroke-linejoin:round;">
<g transform="rotate(-90.000000 73.7566 13.7161)">
<text x="73.7566" y="14.3511"
textLength="2.6222" font-size="1.6933" lengthAdjust="spacingAndGlyphs"
text-anchor="start" opacity="0">EP</text>
</g>
<g class="stroked-text"><desc>EP</desc>
<path d="M73.6709 13.3135
L73.6709 12.8901
" />
<path d="M74.3361 12.7087
L74.3361 13.3135
" />
<path d="M74.3361 13.3135
L73.0661 13.3135
" />
<path d="M73.0661 13.3135
L73.0661 12.7087
" />
<path d="M74.3361 12.1645
L73.0661 12.1645
" />
<path d="M73.0661 12.1645
L73.0661 11.6807
" />
<path d="M73.0661 11.6807
L73.1266 11.5597
" />
<path d="M73.1266 11.5597
L73.1871 11.4992
" />
<path d="M73.1871 11.4992
L73.3080 11.4388
" />
<path d="M73.3080 11.4388
L73.4895 11.4388
" />
<path d="M73.4895 11.4388
L73.6104 11.4992
" />
<path d="M73.6104 11.4992
L73.6709 11.5597
" />
<path d="M73.6709 11.5597
L73.7314 11.6807
" />
<path d="M73.7314 11.6807
L73.7314 12.1645
" />
</g></g>
<g style="fill:#A90000; fill-opacity:0.0; 
stroke:#A90000; stroke-width:0.1524; stroke-opacity:1; 
stroke-linecap:round; stroke-linejoin:round;">
<g transform="rotate(-90.000000 73.5026 15.4941)">
<text x="73.5026" y="15.4941"
textLength="1.4127" font-size="1.6933" lengthAdjust="spacingAndGlyphs"
text-anchor="middle" opacity="0">9</text>
</g>
<g class="stroked-text"><desc>9</desc>
<path d="M73.3391 15.7359
L73.3391 15.4940
" />
<path d="M73.3391 15.4940
L73.2787 15.3730
" />
<path d="M73.2787 15.3730
L73.2182 15.3126
" />
<path d="M73.2182 15.3126
L73.0367 15.1916
" />
<path d="M73.0367 15.1916
L72.7948 15.1311
" />
<path d="M72.7948 15.1311
L72.3110 15.1311
" />
<path d="M72.3110 15.1311
L72.1901 15.1916
" />
<path d="M72.1901 15.1916
L72.1296 15.2521
" />
<path d="M72.1296 15.2521
L72.0691 15.3730
" />
<path d="M72.0691 15.3730
L72.0691 15.6149
" />
<path d="M72.0691 15.6149
L72.1296 15.7359
" />
<path d="M72.1296 15.7359
L72.1901 15.7964
" />
<path d="M72.1901 15.7964
L72.3110 15.8568
" />
<path d="M72.3110 15.8568
L72.6134 15.8568
" />
<path d="M72.6134 15.8568
L72.7344 15.7964
" />
<path d="M72.7344 15.7964
L72.7948 15.7359
" />
<path d="M72.7948 15.7359
L72.8553 15.6149
" />
<path d="M72.8553 15.6149
L72.8553 15.3730
" />
<path d="M72.8553 15.3730
L72.7948 15.2521
" />
<path d="M72.7948 15.2521
L72.7344 15.1916
" />
<path d="M72.7344 15.1916
L72.6134 15.1311
" />
</g></g>
<g style="fill:#840084; fill-opacity:0.0; 
stroke:#840084; stroke-width:0.1524; stroke-opacity:1; 
stroke-linecap:round; stroke-linejoin:round;">
</g>
<g style="fill:#006464; fill-opacity:0.0; 
stroke:#006464; stroke-width:0.1524; stroke-opacity:1; 
stroke-linecap:round; stroke-linejoin:round;">
</g>
<g style="fill:#006464; fill-opacity:0.0; 
stroke:#006464; stroke-width:0.1588; stroke-opacity:1; 
stroke-linecap:round; stroke-linejoin:round;">
<text x="80.1066" y="3.4291"
textLength="2.6415" font-size="1.6933" lengthAdjust="spacingAndGlyphs"
text-anchor="middle" opacity="0">U?</text>
<g class="stroked-text"><desc>U?</desc>
<path d="M79.1994 2.1033
L79.1994 3.1314
" />
<path d="M79.1994 3.1314
L79.2599 3.2524
" />
<path d="M79.2599 3.2524
L79.3204 3.3129
" />
<path d="M79.3204 3.3129
L79.4413 3.3733
" />
<path d="M79.4413 3.3733
L79.6832 3.3733
" />
<path d="M79.6832 3.3733
L79.8042 3.3129
" />
<path d="M79.8042 3.3129
L79.8647 3.2524
" />
<path d="M79.8647 3.2524
L79.9251 3.1314
" />
<path d="M79.9251 3.1314
L79.9251 2.1033
" />
<path d="M80.7114 3.2524
L80.7718 3.3129
" />
<path d="M80.7718 3.3129
L80.7114 3.3733
" />
<path d="M80.7114 3.3733
L80.6509 3.3129
" />
<path d="M80.6509 3.3129
L80.7114 3.2524
" />
<path d="M80.7114 3.2524
L80.7114 3.3733
" />
<path d="M80.4695 2.1638
L80.5904 2.1033
" />
<path d="M80.5904 2.1033
L80.8928 2.1033
" />
<path d="M80.8928 2.1033
L81.0137 2.1638
" />
<path d="M81.0137 2.1638
L81.0742 2.2848
" />
<path d="M81.0742 2.2848
L81.0742 2.4057
" />
<path d="M81.0742 2.4057
L81.0137 2.5267
" />
<path d="M81.0137 2.5267
L80.9533 2.5871
" />
<path d="M80.9533 2.5871
L80.8323 2.6476
" />
<path d="M80.8323 2.6476
L80.7718 2.7081
" />
<path d="M80.7718 2.7081
L80.7114 2.8290
" />
<path d="M80.7114 2.8290
L80.7114 2.8895
" />
</g><text x="86.4566" y="16.1291"
textLength="18.4862" font-size="1.6933" lengthAdjust="spacingAndGlyphs"
text-anchor="middle" opacity="0">ATECC608A-MAHDA</text>
<g class="stroked-text"><desc>ATECC608A-MAHDA</desc>
<path d="M77.5666 15.7105
L78.1713 15.7105
" />
<path d="M77.4456 16.0733
L77.8689 14.8033
" />
<path d="M77.8689 14.8033
L78.2923 16.0733
" />
<path d="M78.5342 14.8033
L79.2599 14.8033
" />
<path d="M78.8971 16.0733
L78.8971 14.8033
" />
<path d="M79.6832 15.4081
L80.1066 15.4081
" />
<path d="M80.2880 16.0733
L79.6832 16.0733
" />
<path d="M79.6832 16.0733
L79.6832 14.8033
" />
<path d="M79.6832 14.8033
L80.2880 14.8033
" />
<path d="M81.5579 15.9524
L81.4975 16.0129
" />
<path d="M81.4975 16.0129
L81.3160 16.0733
" />
<path d="M81.3160 16.0733
L81.1951 16.0733
" />
<path d="M81.1951 16.0733
L81.0137 16.0129
" />
<path d="M81.0137 16.0129
L80.8927 15.8919
" />
<path d="M80.8927 15.8919
L80.8322 15.7709
" />
<path d="M80.8322 15.7709
L80.7718 15.5290
" />
<path d="M80.7718 15.5290
L80.7718 15.3476
" />
<path d="M80.7718 15.3476
L80.8322 15.1057
" />
<path d="M80.8322 15.1057
L80.8927 14.9848
" />
<path d="M80.8927 14.9848
L81.0137 14.8638
" />
<path d="M81.0137 14.8638
L81.1951 14.8033
" />
<path d="M81.1951 14.8033
L81.3160 14.8033
" />
<path d="M81.3160 14.8033
L81.4975 14.8638
" />
<path d="M81.4975 14.8638
L81.5579 14.9243
" />
<path d="M82.8279 15.9524
L82.7675 16.0129
" />
<path d="M82.7675 16.0129
L82.5860 16.0733
" />
<path d="M82.5860 16.0733
L82.4651 16.0733
" />
<path d="M82.4651 16.0733
L82.2837 16.0129
" />
<path d="M82.2837 16.0129
L82.1627 15.8919
" />
<path d="M82.1627 15.8919
L82.1022 15.7709
" />
<path d="M82.1022 15.7709
L82.0418 15.5290
" />
<path d="M82.0418 15.5290
L82.0418 15.3476
" />
<path d="M82.0418 15.3476
L82.1022 15.1057
" />
<path d="M82.1022 15.1057
L82.1627 14.9848
" />
<path d="M82.1627 14.9848
L82.2837 14.8638
" />
<path d="M82.2837 14.8638
L82.4651 14.8033
" />
<path d="M82.4651 14.8033
L82.5860 14.8033
" />
<path d="M82.5860 14.8033
L82.7675 14.8638
" />
<path d="M82.7675 14.8638
L82.8279 14.9243
" />
<path d="M83.9165 14.8033
L83.6746 14.8033
" />
<path d="M83.6746 14.8033
L83.5537 14.8638
" />
<path d="M83.5537 14.8638
L83.4932 14.9243
" />
<path d="M83.4932 14.9243
L83.3722 15.1057
" />
<path d="M83.3722 15.1057
L83.3118 15.3476
" />
<path d="M83.3118 15.3476
L83.3118 15.8314
" />
<path d="M83.3118 15.8314
L83.3722 15.9524
" />
<path d="M83.3722 15.9524
L83.4327 16.0129
" />
<path d="M83.4327 16.0129
L83.5537 16.0733
" />
<path d="M83.5537 16.0733
L83.7956 16.0733
" />
<path d="M83.7956 16.0733
L83.9165 16.0129
" />
<path d="M83.9165 16.0129
L83.9770 15.9524
" />
<path d="M83.9770 15.9524
L84.0375 15.8314
" />
<path d="M84.0375 15.8314
L84.0375 15.5290
" />
<path d="M84.0375 15.5290
L83.9770 15.4081
" />
<path d="M83.9770 15.4081
L83.9165 15.3476
" />
<path d="M83.9165 15.3476
L83.7956 15.2871
" />
<path d="M83.7956 15.2871
L83.5537 15.2871
" />
<path d="M83.5537 15.2871
L83.4327 15.3476
" />
<path d="M83.4327 15.3476
L83.3722 15.4081
" />
<path d="M83.3722 15.4081
L83.3118 15.5290
" />
<path d="M84.8236 14.8033
L84.9446 14.8033
" />
<path d="M84.9446 14.8033
L85.0655 14.8638
" />
<path d="M85.0655 14.8638
L85.1260 14.9243
" />
<path d="M85.1260 14.9243
L85.1865 15.0452
" />
<path d="M85.1865 15.0452
L85.2470 15.2871
" />
<path d="M85.2470 15.2871
L85.2470 15.5895
" />
<path d="M85.2470 15.5895
L85.1865 15.8314
" />
<path d="M85.1865 15.8314
L85.1260 15.9524
" />
<path d="M85.1260 15.9524
L85.0655 16.0129
" />
<path d="M85.0655 16.0129
L84.9446 16.0733
" />
<path d="M84.9446 16.0733
L84.8236 16.0733
" />
<path d="M84.8236 16.0733
L84.7027 16.0129
" />
<path d="M84.7027 16.0129
L84.6422 15.9524
" />
<path d="M84.6422 15.9524
L84.5817 15.8314
" />
<path d="M84.5817 15.8314
L84.5213 15.5895
" />
<path d="M84.5213 15.5895
L84.5213 15.2871
" />
<path d="M84.5213 15.2871
L84.5817 15.0452
" />
<path d="M84.5817 15.0452
L84.6422 14.9243
" />
<path d="M84.6422 14.9243
L84.7027 14.8638
" />
<path d="M84.7027 14.8638
L84.8236 14.8033
" />
<path d="M85.9727 15.3476
L85.8517 15.2871
" />
<path d="M85.8517 15.2871
L85.7912 15.2267
" />
<path d="M85.7912 15.2267
L85.7308 15.1057
" />
<path d="M85.7308 15.1057
L85.7308 15.0452
" />
<path d="M85.7308 15.0452
L85.7912 14.9243
" />
<path d="M85.7912 14.9243
L85.8517 14.8638
" />
<path d="M85.8517 14.8638
L85.9727 14.8033
" />
<path d="M85.9727 14.8033
L86.2146 14.8033
" />
<path d="M86.2146 14.8033
L86.3355 14.8638
" />
<path d="M86.3355 14.8638
L86.3960 14.9243
" />
<path d="M86.3960 14.9243
L86.4565 15.0452
" />
<path d="M86.4565 15.0452
L86.4565 15.1057
" />
<path d="M86.4565 15.1057
L86.3960 15.2267
" />
<path d="M86.3960 15.2267
L86.3355 15.2871
" />
<path d="M86.3355 15.2871
L86.2146 15.3476
" />
<path d="M86.2146 15.3476
L85.9727 15.3476
" />
<path d="M85.9727 15.3476
L85.8517 15.4081
" />
<path d="M85.8517 15.4081
L85.7912 15.4686
" />
<path d="M85.7912 15.4686
L85.7308 15.5895
" />
<path d="M85.7308 15.5895
L85.7308 15.8314
" />
<path d="M85.7308 15.8314
L85.7912 15.9524
" />
<path d="M85.7912 15.9524
L85.8517 16.0129
" />
<path d="M85.8517 16.0129
L85.9727 16.0733
" />
<path d="M85.9727 16.0733
L86.2146 16.0733
" />
<path d="M86.2146 16.0733
L86.3355 16.0129
" />
<path d="M86.3355 16.0129
L86.3960 15.9524
" />
<path d="M86.3960 15.9524
L86.4565 15.8314
" />
<path d="M86.4565 15.8314
L86.4565 15.5895
" />
<path d="M86.4565 15.5895
L86.3960 15.4686
" />
<path d="M86.3960 15.4686
L86.3355 15.4081
" />
<path d="M86.3355 15.4081
L86.2146 15.3476
" />
<path d="M86.9403 15.7105
L87.5450 15.7105
" />
<path d="M86.8193 16.0733
L87.2426 14.8033
" />
<path d="M87.2426 14.8033
L87.6660 16.0733
" />
<path d="M88.0893 15.5895
L89.0570 15.5895
" />
<path d="M89.6617 16.0733
L89.6617 14.8033
" />
<path d="M89.6617 14.8033
L90.0851 15.7105
" />
<path d="M90.0851 15.7105
L90.5084 14.8033
" />
<path d="M90.5084 14.8033
L90.5084 16.0733
" />
<path d="M91.0527 15.7105
L91.6574 15.7105
" />
<path d="M90.9317 16.0733
L91.3550 14.8033
" />
<path d="M91.3550 14.8033
L91.7784 16.0733
" />
<path d="M92.2017 16.0733
L92.2017 14.8033
" />
<path d="M92.2017 15.4081
L92.9274 15.4081
" />
<path d="M92.9274 16.0733
L92.9274 14.8033
" />
<path d="M93.5322 16.0733
L93.5322 14.8033
" />
<path d="M93.5322 14.8033
L93.8346 14.8033
" />
<path d="M93.8346 14.8033
L94.0160 14.8638
" />
<path d="M94.0160 14.8638
L94.1370 14.9848
" />
<path d="M94.1370 14.9848
L94.1975 15.1057
" />
<path d="M94.1975 15.1057
L94.2579 15.3476
" />
<path d="M94.2579 15.3476
L94.2579 15.5290
" />
<path d="M94.2579 15.5290
L94.1975 15.7709
" />
<path d="M94.1975 15.7709
L94.1370 15.8919
" />
<path d="M94.1370 15.8919
L94.0160 16.0129
" />
<path d="M94.0160 16.0129
L93.8346 16.0733
" />
<path d="M93.8346 16.0733
L93.5322 16.0733
" />
<path d="M94.7418 15.7105
L95.3465 15.7105
" />
<path d="M94.6208 16.0733
L95.0441 14.8033
" />
<path d="M95.0441 14.8033
L95.4675 16.0733
" />
</g></g>
<g style="fill:#840084; fill-opacity:0.0; 
stroke:#840084; stroke-width:0.1588; stroke-opacity:1; 
stroke-linecap:round; stroke-linejoin:round;">
<text x="76.2966" y="9.7791"
textLength="60.0935" font-size="1.6933" lengthAdjust="spacingAndGlyphs"
text-anchor="middle" opacity="0">Package_DFN_QFN:DFN-8-1EP_3x2mm_P0.5mm_EP1.3x1.5mm</text>
<g class="stroked-text"><desc>Package_DFN_QFN:DFN-8-1EP_3x2mm_P0.5mm_EP1.3x1.5mm</desc>
<path d="M46.6634 9.7233
L46.6634 8.4533
" />
<path d="M46.6634 8.4533
L47.1472 8.4533
" />
<path d="M47.1472 8.4533
L47.2682 8.5138
" />
<path d="M47.2682 8.5138
L47.3287 8.5743
" />
<path d="M47.3287 8.5743
L47.3891 8.6952
" />
<path d="M47.3891 8.6952
L47.3891 8.8767
" />
<path d="M47.3891 8.8767
L47.3287 8.9976
" />
<path d="M47.3287 8.9976
L47.2682 9.0581
" />
<path d="M47.2682 9.0581
L47.1472 9.1186
" />
<path d="M47.1472 9.1186
L46.6634 9.1186
" />
<path d="M48.4777 9.7233
L48.4777 9.0581
" />
<path d="M48.4777 9.0581
L48.4172 8.9371
" />
<path d="M48.4172 8.9371
L48.2963 8.8767
" />
<path d="M48.2963 8.8767
L48.0544 8.8767
" />
<path d="M48.0544 8.8767
L47.9334 8.9371
" />
<path d="M48.4777 9.6629
L48.3568 9.7233
" />
<path d="M48.3568 9.7233
L48.0544 9.7233
" />
<path d="M48.0544 9.7233
L47.9334 9.6629
" />
<path d="M47.9334 9.6629
L47.8730 9.5419
" />
<path d="M47.8730 9.5419
L47.8730 9.4209
" />
<path d="M47.8730 9.4209
L47.9334 9.3000
" />
<path d="M47.9334 9.3000
L48.0544 9.2395
" />
<path d="M48.0544 9.2395
L48.3568 9.2395
" />
<path d="M48.3568 9.2395
L48.4777 9.1790
" />
<path d="M49.6267 9.6629
L49.5058 9.7233
" />
<path d="M49.5058 9.7233
L49.2639 9.7233
" />
<path d="M49.2639 9.7233
L49.1429 9.6629
" />
<path d="M49.1429 9.6629
L49.0824 9.6024
" />
<path d="M49.0824 9.6024
L49.0220 9.4814
" />
<path d="M49.0220 9.4814
L49.0220 9.1186
" />
<path d="M49.0220 9.1186
L49.0824 8.9976
" />
<path d="M49.0824 8.9976
L49.1429 8.9371
" />
<path d="M49.1429 8.9371
L49.2639 8.8767
" />
<path d="M49.2639 8.8767
L49.5058 8.8767
" />
<path d="M49.5058 8.8767
L49.6267 8.9371
" />
<path d="M50.1710 9.7233
L50.1710 8.4533
" />
<path d="M50.2920 9.2395
L50.6548 9.7233
" />
<path d="M50.6548 8.8767
L50.1710 9.3605
" />
<path d="M51.7434 9.7233
L51.7434 9.0581
" />
<path d="M51.7434 9.0581
L51.6829 8.9371
" />
<path d="M51.6829 8.9371
L51.5620 8.8767
" />
<path d="M51.5620 8.8767
L51.3201 8.8767
" />
<path d="M51.3201 8.8767
L51.1991 8.9371
" />
<path d="M51.7434 9.6629
L51.6225 9.7233
" />
<path d="M51.6225 9.7233
L51.3201 9.7233
" />
<path d="M51.3201 9.7233
L51.1991 9.6629
" />
<path d="M51.1991 9.6629
L51.1387 9.5419
" />
<path d="M51.1387 9.5419
L51.1387 9.4209
" />
<path d="M51.1387 9.4209
L51.1991 9.3000
" />
<path d="M51.1991 9.3000
L51.3201 9.2395
" />
<path d="M51.3201 9.2395
L51.6225 9.2395
" />
<path d="M51.6225 9.2395
L51.7434 9.1790
" />
<path d="M52.8924 8.8767
L52.8924 9.9048
" />
<path d="M52.8924 9.9048
L52.8319 10.0257
" />
<path d="M52.8319 10.0257
L52.7715 10.0862
" />
<path d="M52.7715 10.0862
L52.6505 10.1467
" />
<path d="M52.6505 10.1467
L52.4691 10.1467
" />
<path d="M52.4691 10.1467
L52.3481 10.0862
" />
<path d="M52.8924 9.6629
L52.7715 9.7233
" />
<path d="M52.7715 9.7233
L52.5296 9.7233
" />
<path d="M52.5296 9.7233
L52.4086 9.6629
" />
<path d="M52.4086 9.6629
L52.3481 9.6024
" />
<path d="M52.3481 9.6024
L52.2877 9.4814
" />
<path d="M52.2877 9.4814
L52.2877 9.1186
" />
<path d="M52.2877 9.1186
L52.3481 8.9976
" />
<path d="M52.3481 8.9976
L52.4086 8.9371
" />
<path d="M52.4086 8.9371
L52.5296 8.8767
" />
<path d="M52.5296 8.8767
L52.7715 8.8767
" />
<path d="M52.7715 8.8767
L52.8924 8.9371
" />
<path d="M53.9809 9.6629
L53.8600 9.7233
" />
<path d="M53.8600 9.7233
L53.6181 9.7233
" />
<path d="M53.6181 9.7233
L53.4971 9.6629
" />
<path d="M53.4971 9.6629
L53.4367 9.5419
" />
<path d="M53.4367 9.5419
L53.4367 9.0581
" />
<path d="M53.4367 9.0581
L53.4971 8.9371
" />
<path d="M53.4971 8.9371
L53.6181 8.8767
" />
<path d="M53.6181 8.8767
L53.8600 8.8767
" />
<path d="M53.8600 8.8767
L53.9809 8.9371
" />
<path d="M53.9809 8.9371
L54.0414 9.0581
" />
<path d="M54.0414 9.0581
L54.0414 9.1790
" />
<path d="M54.0414 9.1790
L53.4367 9.3000
" />
<path d="M54.2834 9.8443
L55.2510 9.8443
" />
<path d="M55.5533 9.7233
L55.5533 8.4533
" />
<path d="M55.5533 8.4533
L55.8557 8.4533
" />
<path d="M55.8557 8.4533
L56.0371 8.5138
" />
<path d="M56.0371 8.5138
L56.1581 8.6348
" />
<path d="M56.1581 8.6348
L56.2186 8.7557
" />
<path d="M56.2186 8.7557
L56.2790 8.9976
" />
<path d="M56.2790 8.9976
L56.2790 9.1790
" />
<path d="M56.2790 9.1790
L56.2186 9.4209
" />
<path d="M56.2186 9.4209
L56.1581 9.5419
" />
<path d="M56.1581 9.5419
L56.0371 9.6629
" />
<path d="M56.0371 9.6629
L55.8557 9.7233
" />
<path d="M55.8557 9.7233
L55.5533 9.7233
" />
<path d="M57.2467 9.0581
L56.8233 9.0581
" />
<path d="M56.8233 9.7233
L56.8233 8.4533
" />
<path d="M56.8233 8.4533
L57.4281 8.4533
" />
<path d="M57.9119 9.7233
L57.9119 8.4533
" />
<path d="M57.9119 8.4533
L58.6376 9.7233
" />
<path d="M58.6376 9.7233
L58.6376 8.4533
" />
<path d="M58.9401 9.8443
L59.9077 9.8443
" />
<path d="M61.0567 9.8443
L60.9357 9.7838
" />
<path d="M60.9357 9.7838
L60.8148 9.6629
" />
<path d="M60.8148 9.6629
L60.6334 9.4814
" />
<path d="M60.6334 9.4814
L60.5124 9.4209
" />
<path d="M60.5124 9.4209
L60.3915 9.4209
" />
<path d="M60.4519 9.7233
L60.3310 9.6629
" />
<path d="M60.3310 9.6629
L60.2100 9.5419
" />
<path d="M60.2100 9.5419
L60.1496 9.3000
" />
<path d="M60.1496 9.3000
L60.1496 8.8767
" />
<path d="M60.1496 8.8767
L60.2100 8.6348
" />
<path d="M60.2100 8.6348
L60.3310 8.5138
" />
<path d="M60.3310 8.5138
L60.4519 8.4533
" />
<path d="M60.4519 8.4533
L60.6938 8.4533
" />
<path d="M60.6938 8.4533
L60.8148 8.5138
" />
<path d="M60.8148 8.5138
L60.9357 8.6348
" />
<path d="M60.9357 8.6348
L60.9962 8.8767
" />
<path d="M60.9962 8.8767
L60.9962 9.3000
" />
<path d="M60.9962 9.3000
L60.9357 9.5419
" />
<path d="M60.9357 9.5419
L60.8148 9.6629
" />
<path d="M60.8148 9.6629
L60.6938 9.7233
" />
<path d="M60.6938 9.7233
L60.4519 9.7233
" />
<path d="M61.9639 9.0581
L61.5405 9.0581
" />
<path d="M61.5405 9.7233
L61.5405 8.4533
" />
<path d="M61.5405 8.4533
L62.1453 8.4533
" />
<path d="M62.6291 9.7233
L62.6291 8.4533
" />
<path d="M62.6291 8.4533
L63.3548 9.7233
" />
<path d="M63.3548 9.7233
L63.3548 8.4533
" />
<path d="M63.9596 9.6024
L64.0201 9.6629
" />
<path d="M64.0201 9.6629
L63.9596 9.7233
" />
<path d="M63.9596 9.7233
L63.8992 9.6629
" />
<path d="M63.8992 9.6629
L63.9596 9.6024
" />
<path d="M63.9596 9.6024
L63.9596 9.7233
" />
<path d="M63.9596 8.9371
L64.0201 8.9976
" />
<path d="M64.0201 8.9976
L63.9596 9.0581
" />
<path d="M63.9596 9.0581
L63.8992 8.9976
" />
<path d="M63.8992 8.9976
L63.9596 8.9371
" />
<path d="M63.9596 8.9371
L63.9596 9.0581
" />
<path d="M64.5644 9.7233
L64.5644 8.4533
" />
<path d="M64.5644 8.4533
L64.8668 8.4533
" />
<path d="M64.8668 8.4533
L65.0482 8.5138
" />
<path d="M65.0482 8.5138
L65.1692 8.6348
" />
<path d="M65.1692 8.6348
L65.2297 8.7557
" />
<path d="M65.2297 8.7557
L65.2901 8.9976
" />
<path d="M65.2901 8.9976
L65.2901 9.1790
" />
<path d="M65.2901 9.1790
L65.2297 9.4209
" />
<path d="M65.2297 9.4209
L65.1692 9.5419
" />
<path d="M65.1692 9.5419
L65.0482 9.6629
" />
<path d="M65.0482 9.6629
L64.8668 9.7233
" />
<path d="M64.8668 9.7233
L64.5644 9.7233
" />
<path d="M66.2578 9.0581
L65.8344 9.0581
" />
<path d="M65.8344 9.7233
L65.8344 8.4533
" />
<path d="M65.8344 8.4533
L66.4392 8.4533
" />
<path d="M66.9230 9.7233
L66.9230 8.4533
" />
<path d="M66.9230 8.4533
L67.6487 9.7233
" />
<path d="M67.6487 9.7233
L67.6487 8.4533
" />
<path d="M68.2535 9.2395
L69.2212 9.2395
" />
<path d="M70.0074 8.9976
L69.8864 8.9371
" />
<path d="M69.8864 8.9371
L69.8259 8.8767
" />
<path d="M69.8259 8.8767
L69.7655 8.7557
" />
<path d="M69.7655 8.7557
L69.7655 8.6952
" />
<path d="M69.7655 8.6952
L69.8259 8.5743
" />
<path d="M69.8259 8.5743
L69.8864 8.5138
" />
<path d="M69.8864 8.5138
L70.0074 8.4533
" />
<path d="M70.0074 8.4533
L70.2493 8.4533
" />
<path d="M70.2493 8.4533
L70.3702 8.5138
" />
<path d="M70.3702 8.5138
L70.4307 8.5743
" />
<path d="M70.4307 8.5743
L70.4912 8.6952
" />
<path d="M70.4912 8.6952
L70.4912 8.7557
" />
<path d="M70.4912 8.7557
L70.4307 8.8767
" />
<path d="M70.4307 8.8767
L70.3702 8.9371
" />
<path d="M70.3702 8.9371
L70.2493 8.9976
" />
<path d="M70.2493 8.9976
L70.0074 8.9976
" />
<path d="M70.0074 8.9976
L69.8864 9.0581
" />
<path d="M69.8864 9.0581
L69.8259 9.1186
" />
<path d="M69.8259 9.1186
L69.7655 9.2395
" />
<path d="M69.7655 9.2395
L69.7655 9.4814
" />
<path d="M69.7655 9.4814
L69.8259 9.6024
" />
<path d="M69.8259 9.6024
L69.8864 9.6629
" />
<path d="M69.8864 9.6629
L70.0074 9.7233
" />
<path d="M70.0074 9.7233
L70.2493 9.7233
" />
<path d="M70.2493 9.7233
L70.3702 9.6629
" />
<path d="M70.3702 9.6629
L70.4307 9.6024
" />
<path d="M70.4307 9.6024
L70.4912 9.4814
" />
<path d="M70.4912 9.4814
L70.4912 9.2395
" />
<path d="M70.4912 9.2395
L70.4307 9.1186
" />
<path d="M70.4307 9.1186
L70.3702 9.0581
" />
<path d="M70.3702 9.0581
L70.2493 8.9976
" />
<path d="M71.0354 9.2395
L72.0031 9.2395
" />
<path d="M73.2731 9.7233
L72.5474 9.7233
" />
<path d="M72.9102 9.7233
L72.9102 8.4533
" />
<path d="M72.9102 8.4533
L72.7893 8.6348
" />
<path d="M72.7893 8.6348
L72.6683 8.7557
" />
<path d="M72.6683 8.7557
L72.5474 8.8162
" />
<path d="M73.8173 9.0581
L74.2407 9.0581
" />
<path d="M74.4221 9.7233
L73.8173 9.7233
" />
<path d="M73.8173 9.7233
L73.8173 8.4533
" />
<path d="M73.8173 8.4533
L74.4221 8.4533
" />
<path d="M74.9663 9.7233
L74.9663 8.4533
" />
<path d="M74.9663 8.4533
L75.4501 8.4533
" />
<path d="M75.4501 8.4533
L75.5711 8.5138
" />
<path d="M75.5711 8.5138
L75.6316 8.5743
" />
<path d="M75.6316 8.5743
L75.6920 8.6952
" />
<path d="M75.6920 8.6952
L75.6920 8.8767
" />
<path d="M75.6920 8.8767
L75.6316 8.9976
" />
<path d="M75.6316 8.9976
L75.5711 9.0581
" />
<path d="M75.5711 9.0581
L75.4501 9.1186
" />
<path d="M75.4501 9.1186
L74.9663 9.1186
" />
<path d="M75.9340 9.8443
L76.9016 9.8443
" />
<path d="M77.0830 8.4533
L77.8692 8.4533
" />
<path d="M77.8692 8.4533
L77.4458 8.9371
" />
<path d="M77.4458 8.9371
L77.6273 8.9371
" />
<path d="M77.6273 8.9371
L77.7482 8.9976
" />
<path d="M77.7482 8.9976
L77.8087 9.0581
" />
<path d="M77.8087 9.0581
L77.8692 9.1790
" />
<path d="M77.8692 9.1790
L77.8692 9.4814
" />
<path d="M77.8692 9.4814
L77.8087 9.6024
" />
<path d="M77.8087 9.6024
L77.7482 9.6629
" />
<path d="M77.7482 9.6629
L77.6273 9.7233
" />
<path d="M77.6273 9.7233
L77.2644 9.7233
" />
<path d="M77.2644 9.7233
L77.1435 9.6629
" />
<path d="M77.1435 9.6629
L77.0830 9.6024
" />
<path d="M78.2925 9.7233
L78.9577 8.8767
" />
<path d="M78.2925 8.8767
L78.9577 9.7233
" />
<path d="M79.3811 8.5743
L79.4415 8.5138
" />
<path d="M79.4415 8.5138
L79.5625 8.4533
" />
<path d="M79.5625 8.4533
L79.8649 8.4533
" />
<path d="M79.8649 8.4533
L79.9858 8.5138
" />
<path d="M79.9858 8.5138
L80.0463 8.5743
" />
<path d="M80.0463 8.5743
L80.1068 8.6952
" />
<path d="M80.1068 8.6952
L80.1068 8.8162
" />
<path d="M80.1068 8.8162
L80.0463 8.9976
" />
<path d="M80.0463 8.9976
L79.3206 9.7233
" />
<path d="M79.3206 9.7233
L80.1068 9.7233
" />
<path d="M80.6510 9.7233
L80.6510 8.8767
" />
<path d="M80.6510 8.9976
L80.7115 8.9371
" />
<path d="M80.7115 8.9371
L80.8325 8.8767
" />
<path d="M80.8325 8.8767
L81.0139 8.8767
" />
<path d="M81.0139 8.8767
L81.1348 8.9371
" />
<path d="M81.1348 8.9371
L81.1953 9.0581
" />
<path d="M81.1953 9.0581
L81.1953 9.7233
" />
<path d="M81.1953 9.0581
L81.2558 8.9371
" />
<path d="M81.2558 8.9371
L81.3767 8.8767
" />
<path d="M81.3767 8.8767
L81.5582 8.8767
" />
<path d="M81.5582 8.8767
L81.6791 8.9371
" />
<path d="M81.6791 8.9371
L81.7396 9.0581
" />
<path d="M81.7396 9.0581
L81.7396 9.7233
" />
<path d="M82.3443 9.7233
L82.3443 8.8767
" />
<path d="M82.3443 8.9976
L82.4048 8.9371
" />
<path d="M82.4048 8.9371
L82.5258 8.8767
" />
<path d="M82.5258 8.8767
L82.7072 8.8767
" />
<path d="M82.7072 8.8767
L82.8281 8.9371
" />
<path d="M82.8281 8.9371
L82.8886 9.0581
" />
<path d="M82.8886 9.0581
L82.8886 9.7233
" />
<path d="M82.8886 9.0581
L82.9491 8.9371
" />
<path d="M82.9491 8.9371
L83.0700 8.8767
" />
<path d="M83.0700 8.8767
L83.2515 8.8767
" />
<path d="M83.2515 8.8767
L83.3724 8.9371
" />
<path d="M83.3724 8.9371
L83.4329 9.0581
" />
<path d="M83.4329 9.0581
L83.4329 9.7233
" />
<path d="M83.7353 9.8443
L84.7029 9.8443
" />
<path d="M85.0052 9.7233
L85.0052 8.4533
" />
<path d="M85.0052 8.4533
L85.4890 8.4533
" />
<path d="M85.4890 8.4533
L85.6100 8.5138
" />
<path d="M85.6100 8.5138
L85.6705 8.5743
" />
<path d="M85.6705 8.5743
L85.7309 8.6952
" />
<path d="M85.7309 8.6952
L85.7309 8.8767
" />
<path d="M85.7309 8.8767
L85.6705 8.9976
" />
<path d="M85.6705 8.9976
L85.6100 9.0581
" />
<path d="M85.6100 9.0581
L85.4890 9.1186
" />
<path d="M85.4890 9.1186
L85.0052 9.1186
" />
<path d="M86.5171 8.4533
L86.6381 8.4533
" />
<path d="M86.6381 8.4533
L86.7590 8.5138
" />
<path d="M86.7590 8.5138
L86.8195 8.5743
" />
<path d="M86.8195 8.5743
L86.8800 8.6952
" />
<path d="M86.8800 8.6952
L86.9405 8.9371
" />
<path d="M86.9405 8.9371
L86.9405 9.2395
" />
<path d="M86.9405 9.2395
L86.8800 9.4814
" />
<path d="M86.8800 9.4814
L86.8195 9.6024
" />
<path d="M86.8195 9.6024
L86.7590 9.6629
" />
<path d="M86.7590 9.6629
L86.6381 9.7233
" />
<path d="M86.6381 9.7233
L86.5171 9.7233
" />
<path d="M86.5171 9.7233
L86.3962 9.6629
" />
<path d="M86.3962 9.6629
L86.3357 9.6024
" />
<path d="M86.3357 9.6024
L86.2752 9.4814
" />
<path d="M86.2752 9.4814
L86.2148 9.2395
" />
<path d="M86.2148 9.2395
L86.2148 8.9371
" />
<path d="M86.2148 8.9371
L86.2752 8.6952
" />
<path d="M86.2752 8.6952
L86.3357 8.5743
" />
<path d="M86.3357 8.5743
L86.3962 8.5138
" />
<path d="M86.3962 8.5138
L86.5171 8.4533
" />
<path d="M87.4847 9.6024
L87.5452 9.6629
" />
<path d="M87.5452 9.6629
L87.4847 9.7233
" />
<path d="M87.4847 9.7233
L87.4243 9.6629
" />
<path d="M87.4243 9.6629
L87.4847 9.6024
" />
<path d="M87.4847 9.6024
L87.4847 9.7233
" />
<path d="M88.6943 8.4533
L88.0895 8.4533
" />
<path d="M88.0895 8.4533
L88.0291 9.0581
" />
<path d="M88.0291 9.0581
L88.0895 8.9976
" />
<path d="M88.0895 8.9976
L88.2105 8.9371
" />
<path d="M88.2105 8.9371
L88.5129 8.9371
" />
<path d="M88.5129 8.9371
L88.6338 8.9976
" />
<path d="M88.6338 8.9976
L88.6943 9.0581
" />
<path d="M88.6943 9.0581
L88.7548 9.1790
" />
<path d="M88.7548 9.1790
L88.7548 9.4814
" />
<path d="M88.7548 9.4814
L88.6943 9.6024
" />
<path d="M88.6943 9.6024
L88.6338 9.6629
" />
<path d="M88.6338 9.6629
L88.5129 9.7233
" />
<path d="M88.5129 9.7233
L88.2105 9.7233
" />
<path d="M88.2105 9.7233
L88.0895 9.6629
" />
<path d="M88.0895 9.6629
L88.0291 9.6024
" />
<path d="M89.2990 9.7233
L89.2990 8.8767
" />
<path d="M89.2990 8.9976
L89.3595 8.9371
" />
<path d="M89.3595 8.9371
L89.4805 8.8767
" />
<path d="M89.4805 8.8767
L89.6619 8.8767
" />
<path d="M89.6619 8.8767
L89.7828 8.9371
" />
<path d="M89.7828 8.9371
L89.8433 9.0581
" />
<path d="M89.8433 9.0581
L89.8433 9.7233
" />
<path d="M89.8433 9.0581
L89.9038 8.9371
" />
<path d="M89.9038 8.9371
L90.0247 8.8767
" />
<path d="M90.0247 8.8767
L90.2062 8.8767
" />
<path d="M90.2062 8.8767
L90.3271 8.9371
" />
<path d="M90.3271 8.9371
L90.3876 9.0581
" />
<path d="M90.3876 9.0581
L90.3876 9.7233
" />
<path d="M90.9923 9.7233
L90.9923 8.8767
" />
<path d="M90.9923 8.9976
L91.0528 8.9371
" />
<path d="M91.0528 8.9371
L91.1738 8.8767
" />
<path d="M91.1738 8.8767
L91.3552 8.8767
" />
<path d="M91.3552 8.8767
L91.4761 8.9371
" />
<path d="M91.4761 8.9371
L91.5366 9.0581
" />
<path d="M91.5366 9.0581
L91.5366 9.7233
" />
<path d="M91.5366 9.0581
L91.5971 8.9371
" />
<path d="M91.5971 8.9371
L91.7180 8.8767
" />
<path d="M91.7180 8.8767
L91.8995 8.8767
" />
<path d="M91.8995 8.8767
L92.0204 8.9371
" />
<path d="M92.0204 8.9371
L92.0809 9.0581
" />
<path d="M92.0809 9.0581
L92.0809 9.7233
" />
<path d="M92.3833 9.8443
L93.3509 9.8443
" />
<path d="M93.6532 9.0581
L94.0766 9.0581
" />
<path d="M94.2580 9.7233
L93.6532 9.7233
" />
<path d="M93.6532 9.7233
L93.6532 8.4533
" />
<path d="M93.6532 8.4533
L94.2580 8.4533
" />
<path d="M94.8022 9.7233
L94.8022 8.4533
" />
<path d="M94.8022 8.4533
L95.2860 8.4533
" />
<path d="M95.2860 8.4533
L95.4070 8.5138
" />
<path d="M95.4070 8.5138
L95.4675 8.5743
" />
<path d="M95.4675 8.5743
L95.5279 8.6952
" />
<path d="M95.5279 8.6952
L95.5279 8.8767
" />
<path d="M95.5279 8.8767
L95.4675 8.9976
" />
<path d="M95.4675 8.9976
L95.4070 9.0581
" />
<path d="M95.4070 9.0581
L95.2860 9.1186
" />
<path d="M95.2860 9.1186
L94.8022 9.1186
" />
<path d="M96.7375 9.7233
L96.0118 9.7233
" />
<path d="M96.3746 9.7233
L96.3746 8.4533
" />
<path d="M96.3746 8.4533
L96.2537 8.6348
" />
<path d="M96.2537 8.6348
L96.1327 8.7557
" />
<path d="M96.1327 8.7557
L96.0118 8.8162
" />
<path d="M97.2817 9.6024
L97.3422 9.6629
" />
<path d="M97.3422 9.6629
L97.2817 9.7233
" />
<path d="M97.2817 9.7233
L97.2213 9.6629
" />
<path d="M97.2213 9.6629
L97.2817 9.6024
" />
<path d="M97.2817 9.6024
L97.2817 9.7233
" />
<path d="M97.7656 8.4533
L98.5518 8.4533
" />
<path d="M98.5518 8.4533
L98.1284 8.9371
" />
<path d="M98.1284 8.9371
L98.3099 8.9371
" />
<path d="M98.3099 8.9371
L98.4308 8.9976
" />
<path d="M98.4308 8.9976
L98.4913 9.0581
" />
<path d="M98.4913 9.0581
L98.5518 9.1790
" />
<path d="M98.5518 9.1790
L98.5518 9.4814
" />
<path d="M98.5518 9.4814
L98.4913 9.6024
" />
<path d="M98.4913 9.6024
L98.4308 9.6629
" />
<path d="M98.4308 9.6629
L98.3099 9.7233
" />
<path d="M98.3099 9.7233
L97.9470 9.7233
" />
<path d="M97.9470 9.7233
L97.8261 9.6629
" />
<path d="M97.8261 9.6629
L97.7656 9.6024
" />
<path d="M98.9751 9.7233
L99.6403 8.8767
" />
<path d="M98.9751 8.8767
L99.6403 9.7233
" />
<path d="M100.7894 9.7233
L100.0637 9.7233
" />
<path d="M100.4265 9.7233
L100.4265 8.4533
" />
<path d="M100.4265 8.4533
L100.3056 8.6348
" />
<path d="M100.3056 8.6348
L100.1846 8.7557
" />
<path d="M100.1846 8.7557
L100.0637 8.8162
" />
<path d="M101.3336 9.6024
L101.3941 9.6629
" />
<path d="M101.3941 9.6629
L101.3336 9.7233
" />
<path d="M101.3336 9.7233
L101.2732 9.6629
" />
<path d="M101.2732 9.6629
L101.3336 9.6024
" />
<path d="M101.3336 9.6024
L101.3336 9.7233
" />
<path d="M102.5432 8.4533
L101.9384 8.4533
" />
<path d="M101.9384 8.4533
L101.8780 9.0581
" />
<path d="M101.8780 9.0581
L101.9384 8.9976
" />
<path d="M101.9384 8.9976
L102.0594 8.9371
" />
<path d="M102.0594 8.9371
L102.3618 8.9371
" />
<path d="M102.3618 8.9371
L102.4827 8.9976
" />
<path d="M102.4827 8.9976
L102.5432 9.0581
" />
<path d="M102.5432 9.0581
L102.6037 9.1790
" />
<path d="M102.6037 9.1790
L102.6037 9.4814
" />
<path d="M102.6037 9.4814
L102.5432 9.6024
" />
<path d="M102.5432 9.6024
L102.4827 9.6629
" />
<path d="M102.4827 9.6629
L102.3618 9.7233
" />
<path d="M102.3618 9.7233
L102.0594 9.7233
" />
<path d="M102.0594 9.7233
L101.9384 9.6629
" />
<path d="M101.9384 9.6629
L101.8780 9.6024
" />
<path d="M103.1479 9.7233
L103.1479 8.8767
" />
<path d="M103.1479 8.9976
L103.2084 8.9371
" />
<path d="M103.2084 8.9371
L103.3294 8.8767
" />
<path d="M103.3294 8.8767
L103.5108 8.8767
" />
<path d="M103.5108 8.8767
L103.6317 8.9371
" />
<path d="M103.6317 8.9371
L103.6922 9.0581
" />
<path d="M103.6922 9.0581
L103.6922 9.7233
" />
<path d="M103.6922 9.0581
L103.7527 8.9371
" />
<path d="M103.7527 8.9371
L103.8736 8.8767
" />
<path d="M103.8736 8.8767
L104.0551 8.8767
" />
<path d="M104.0551 8.8767
L104.1760 8.9371
" />
<path d="M104.1760 8.9371
L104.2365 9.0581
" />
<path d="M104.2365 9.0581
L104.2365 9.7233
" />
<path d="M104.8412 9.7233
L104.8412 8.8767
" />
<path d="M104.8412 8.9976
L104.9017 8.9371
" />
<path d="M104.9017 8.9371
L105.0227 8.8767
" />
<path d="M105.0227 8.8767
L105.2041 8.8767
" />
<path d="M105.2041 8.8767
L105.3250 8.9371
" />
<path d="M105.3250 8.9371
L105.3855 9.0581
" />
<path d="M105.3855 9.0581
L105.3855 9.7233
" />
<path d="M105.3855 9.0581
L105.4460 8.9371
" />
<path d="M105.4460 8.9371
L105.5669 8.8767
" />
<path d="M105.5669 8.8767
L105.7484 8.8767
" />
<path d="M105.7484 8.8767
L105.8693 8.9371
" />
<path d="M105.8693 8.9371
L105.9298 9.0581
" />
<path d="M105.9298 9.0581
L105.9298 9.7233
" />
</g><text x="80.1066" y="3.4291"
textLength="133.5110" font-size="1.6933" lengthAdjust="spacingAndGlyphs"
text-anchor="middle" opacity="0">http://ww1.microchip.com/downloads/en/DeviceDoc/ATECC608A-CryptoAuthentication-Device-Summary-Data-Sheet-DS40001977B.pdf</text>
<g class="stroked-text"><desc>http://ww1.microchip.com/downloads/en/DeviceDoc/ATECC608A-CryptoAuthentication-Device-Summary-Data-Sheet-DS40001977B.pdf</desc>
<path d="M13.7646 3.3733
L13.7646 2.1033
" />
<path d="M14.3089 3.3733
L14.3089 2.7081
" />
<path d="M14.3089 2.7081
L14.2484 2.5871
" />
<path d="M14.2484 2.5871
L14.1275 2.5267
" />
<path d="M14.1275 2.5267
L13.9461 2.5267
" />
<path d="M13.9461 2.5267
L13.8251 2.5871
" />
<path d="M13.8251 2.5871
L13.7646 2.6476
" />
<path d="M14.7322 2.5267
L15.2160 2.5267
" />
<path d="M14.9136 2.1033
L14.9136 3.1919
" />
<path d="M14.9136 3.1919
L14.9741 3.3129
" />
<path d="M14.9741 3.3129
L15.0951 3.3733
" />
<path d="M15.0951 3.3733
L15.2160 3.3733
" />
<path d="M15.4579 2.5267
L15.9417 2.5267
" />
<path d="M15.6393 2.1033
L15.6393 3.1919
" />
<path d="M15.6393 3.1919
L15.6998 3.3129
" />
<path d="M15.6998 3.3129
L15.8208 3.3733
" />
<path d="M15.8208 3.3733
L15.9417 3.3733
" />
<path d="M16.3650 2.5267
L16.3650 3.7967
" />
<path d="M16.3650 2.5871
L16.4860 2.5267
" />
<path d="M16.4860 2.5267
L16.7279 2.5267
" />
<path d="M16.7279 2.5267
L16.8488 2.5871
" />
<path d="M16.8488 2.5871
L16.9093 2.6476
" />
<path d="M16.9093 2.6476
L16.9698 2.7686
" />
<path d="M16.9698 2.7686
L16.9698 3.1314
" />
<path d="M16.9698 3.1314
L16.9093 3.2524
" />
<path d="M16.9093 3.2524
L16.8488 3.3129
" />
<path d="M16.8488 3.3129
L16.7279 3.3733
" />
<path d="M16.7279 3.3733
L16.4860 3.3733
" />
<path d="M16.4860 3.3733
L16.3650 3.3129
" />
<path d="M17.5140 3.2524
L17.5745 3.3129
" />
<path d="M17.5745 3.3129
L17.5140 3.3733
" />
<path d="M17.5140 3.3733
L17.4536 3.3129
" />
<path d="M17.4536 3.3129
L17.5140 3.2524
" />
<path d="M17.5140 3.2524
L17.5140 3.3733
" />
<path d="M17.5140 2.5871
L17.5745 2.6476
" />
<path d="M17.5745 2.6476
L17.5140 2.7081
" />
<path d="M17.5140 2.7081
L17.4536 2.6476
" />
<path d="M17.4536 2.6476
L17.5140 2.5871
" />
<path d="M17.5140 2.5871
L17.5140 2.7081
" />
<path d="M19.0260 2.0429
L17.9374 3.6757
" />
<path d="M20.3565 2.0429
L19.2679 3.6757
" />
<path d="M20.6589 2.5267
L20.9008 3.3733
" />
<path d="M20.9008 3.3733
L21.1427 2.7686
" />
<path d="M21.1427 2.7686
L21.3846 3.3733
" />
<path d="M21.3846 3.3733
L21.6265 2.5267
" />
<path d="M21.9894 2.5267
L22.2313 3.3733
" />
<path d="M22.2313 3.3733
L22.4732 2.7686
" />
<path d="M22.4732 2.7686
L22.7151 3.3733
" />
<path d="M22.7151 3.3733
L22.9570 2.5267
" />
<path d="M24.1061 3.3733
L23.3804 3.3733
" />
<path d="M23.7432 3.3733
L23.7432 2.1033
" />
<path d="M23.7432 2.1033
L23.6223 2.2848
" />
<path d="M23.6223 2.2848
L23.5013 2.4057
" />
<path d="M23.5013 2.4057
L23.3804 2.4662
" />
<path d="M24.6503 3.2524
L24.7108 3.3129
" />
<path d="M24.7108 3.3129
L24.6503 3.3733
" />
<path d="M24.6503 3.3733
L24.5899 3.3129
" />
<path d="M24.5899 3.3129
L24.6503 3.2524
" />
<path d="M24.6503 3.2524
L24.6503 3.3733
" />
<path d="M25.2551 3.3733
L25.2551 2.5267
" />
<path d="M25.2551 2.6476
L25.3156 2.5871
" />
<path d="M25.3156 2.5871
L25.4366 2.5267
" />
<path d="M25.4366 2.5267
L25.6180 2.5267
" />
<path d="M25.6180 2.5267
L25.7389 2.5871
" />
<path d="M25.7389 2.5871
L25.7994 2.7081
" />
<path d="M25.7994 2.7081
L25.7994 3.3733
" />
<path d="M25.7994 2.7081
L25.8599 2.5871
" />
<path d="M25.8599 2.5871
L25.9808 2.5267
" />
<path d="M25.9808 2.5267
L26.1623 2.5267
" />
<path d="M26.1623 2.5267
L26.2832 2.5871
" />
<path d="M26.2832 2.5871
L26.3437 2.7081
" />
<path d="M26.3437 2.7081
L26.3437 3.3733
" />
<path d="M26.9484 3.3733
L26.9484 2.5267
" />
<path d="M26.9484 2.1033
L26.8880 2.1638
" />
<path d="M26.8880 2.1638
L26.9484 2.2243
" />
<path d="M26.9484 2.2243
L27.0089 2.1638
" />
<path d="M27.0089 2.1638
L26.9484 2.1033
" />
<path d="M26.9484 2.1033
L26.9484 2.2243
" />
<path d="M28.0975 3.3129
L27.9766 3.3733
" />
<path d="M27.9766 3.3733
L27.7347 3.3733
" />
<path d="M27.7347 3.3733
L27.6137 3.3129
" />
<path d="M27.6137 3.3129
L27.5532 3.2524
" />
<path d="M27.5532 3.2524
L27.4928 3.1314
" />
<path d="M27.4928 3.1314
L27.4928 2.7686
" />
<path d="M27.4928 2.7686
L27.5532 2.6476
" />
<path d="M27.5532 2.6476
L27.6137 2.5871
" />
<path d="M27.6137 2.5871
L27.7347 2.5267
" />
<path d="M27.7347 2.5267
L27.9766 2.5267
" />
<path d="M27.9766 2.5267
L28.0975 2.5871
" />
<path d="M28.6418 3.3733
L28.6418 2.5267
" />
<path d="M28.6418 2.7686
L28.7023 2.6476
" />
<path d="M28.7023 2.6476
L28.7628 2.5871
" />
<path d="M28.7628 2.5871
L28.8837 2.5267
" />
<path d="M28.8837 2.5267
L29.0047 2.5267
" />
<path d="M29.6095 3.3733
L29.4885 3.3129
" />
<path d="M29.4885 3.3129
L29.4280 3.2524
" />
<path d="M29.4280 3.2524
L29.3676 3.1314
" />
<path d="M29.3676 3.1314
L29.3676 2.7686
" />
<path d="M29.3676 2.7686
L29.4280 2.6476
" />
<path d="M29.4280 2.6476
L29.4885 2.5871
" />
<path d="M29.4885 2.5871
L29.6095 2.5267
" />
<path d="M29.6095 2.5267
L29.7909 2.5267
" />
<path d="M29.7909 2.5267
L29.9118 2.5871
" />
<path d="M29.9118 2.5871
L29.9723 2.6476
" />
<path d="M29.9723 2.6476
L30.0328 2.7686
" />
<path d="M30.0328 2.7686
L30.0328 3.1314
" />
<path d="M30.0328 3.1314
L29.9723 3.2524
" />
<path d="M29.9723 3.2524
L29.9118 3.3129
" />
<path d="M29.9118 3.3129
L29.7909 3.3733
" />
<path d="M29.7909 3.3733
L29.6095 3.3733
" />
<path d="M31.1213 3.3129
L31.0004 3.3733
" />
<path d="M31.0004 3.3733
L30.7585 3.3733
" />
<path d="M30.7585 3.3733
L30.6375 3.3129
" />
<path d="M30.6375 3.3129
L30.5770 3.2524
" />
<path d="M30.5770 3.2524
L30.5166 3.1314
" />
<path d="M30.5166 3.1314
L30.5166 2.7686
" />
<path d="M30.5166 2.7686
L30.5770 2.6476
" />
<path d="M30.5770 2.6476
L30.6375 2.5871
" />
<path d="M30.6375 2.5871
L30.7585 2.5267
" />
<path d="M30.7585 2.5267
L31.0004 2.5267
" />
<path d="M31.0004 2.5267
L31.1213 2.5871
" />
<path d="M31.6656 3.3733
L31.6656 2.1033
" />
<path d="M32.2099 3.3733
L32.2099 2.7081
" />
<path d="M32.2099 2.7081
L32.1494 2.5871
" />
<path d="M32.1494 2.5871
L32.0285 2.5267
" />
<path d="M32.0285 2.5267
L31.8471 2.5267
" />
<path d="M31.8471 2.5267
L31.7261 2.5871
" />
<path d="M31.7261 2.5871
L31.6656 2.6476
" />
<path d="M32.8146 3.3733
L32.8146 2.5267
" />
<path d="M32.8146 2.1033
L32.7542 2.1638
" />
<path d="M32.7542 2.1638
L32.8146 2.2243
" />
<path d="M32.8146 2.2243
L32.8751 2.1638
" />
<path d="M32.8751 2.1638
L32.8146 2.1033
" />
<path d="M32.8146 2.1033
L32.8146 2.2243
" />
<path d="M33.4194 2.5267
L33.4194 3.7967
" />
<path d="M33.4194 2.5871
L33.5404 2.5267
" />
<path d="M33.5404 2.5267
L33.7823 2.5267
" />
<path d="M33.7823 2.5267
L33.9032 2.5871
" />
<path d="M33.9032 2.5871
L33.9637 2.6476
" />
<path d="M33.9637 2.6476
L34.0242 2.7686
" />
<path d="M34.0242 2.7686
L34.0242 3.1314
" />
<path d="M34.0242 3.1314
L33.9637 3.2524
" />
<path d="M33.9637 3.2524
L33.9032 3.3129
" />
<path d="M33.9032 3.3129
L33.7823 3.3733
" />
<path d="M33.7823 3.3733
L33.5404 3.3733
" />
<path d="M33.5404 3.3733
L33.4194 3.3129
" />
<path d="M34.5684 3.2524
L34.6289 3.3129
" />
<path d="M34.6289 3.3129
L34.5684 3.3733
" />
<path d="M34.5684 3.3733
L34.5080 3.3129
" />
<path d="M34.5080 3.3129
L34.5684 3.2524
" />
<path d="M34.5684 3.2524
L34.5684 3.3733
" />
<path d="M35.7175 3.3129
L35.5966 3.3733
" />
<path d="M35.5966 3.3733
L35.3547 3.3733
" />
<path d="M35.3547 3.3733
L35.2337 3.3129
" />
<path d="M35.2337 3.3129
L35.1732 3.2524
" />
<path d="M35.1732 3.2524
L35.1128 3.1314
" />
<path d="M35.1128 3.1314
L35.1128 2.7686
" />
<path d="M35.1128 2.7686
L35.1732 2.6476
" />
<path d="M35.1732 2.6476
L35.2337 2.5871
" />
<path d="M35.2337 2.5871
L35.3547 2.5267
" />
<path d="M35.3547 2.5267
L35.5966 2.5267
" />
<path d="M35.5966 2.5267
L35.7175 2.5871
" />
<path d="M36.4433 3.3733
L36.3223 3.3129
" />
<path d="M36.3223 3.3129
L36.2618 3.2524
" />
<path d="M36.2618 3.2524
L36.2014 3.1314
" />
<path d="M36.2014 3.1314
L36.2014 2.7686
" />
<path d="M36.2014 2.7686
L36.2618 2.6476
" />
<path d="M36.2618 2.6476
L36.3223 2.5871
" />
<path d="M36.3223 2.5871
L36.4433 2.5267
" />
<path d="M36.4433 2.5267
L36.6247 2.5267
" />
<path d="M36.6247 2.5267
L36.7456 2.5871
" />
<path d="M36.7456 2.5871
L36.8061 2.6476
" />
<path d="M36.8061 2.6476
L36.8666 2.7686
" />
<path d="M36.8666 2.7686
L36.8666 3.1314
" />
<path d="M36.8666 3.1314
L36.8061 3.2524
" />
<path d="M36.8061 3.2524
L36.7456 3.3129
" />
<path d="M36.7456 3.3129
L36.6247 3.3733
" />
<path d="M36.6247 3.3733
L36.4433 3.3733
" />
<path d="M37.4108 3.3733
L37.4108 2.5267
" />
<path d="M37.4108 2.6476
L37.4713 2.5871
" />
<path d="M37.4713 2.5871
L37.5923 2.5267
" />
<path d="M37.5923 2.5267
L37.7737 2.5267
" />
<path d="M37.7737 2.5267
L37.8946 2.5871
" />
<path d="M37.8946 2.5871
L37.9551 2.7081
" />
<path d="M37.9551 2.7081
L37.9551 3.3733
" />
<path d="M37.9551 2.7081
L38.0156 2.5871
" />
<path d="M38.0156 2.5871
L38.1365 2.5267
" />
<path d="M38.1365 2.5267
L38.3180 2.5267
" />
<path d="M38.3180 2.5267
L38.4389 2.5871
" />
<path d="M38.4389 2.5871
L38.4994 2.7081
" />
<path d="M38.4994 2.7081
L38.4994 3.3733
" />
<path d="M40.0113 2.0429
L38.9227 3.6757
" />
<path d="M40.9789 3.3733
L40.9789 2.1033
" />
<path d="M40.9789 3.3129
L40.8580 3.3733
" />
<path d="M40.8580 3.3733
L40.6161 3.3733
" />
<path d="M40.6161 3.3733
L40.4951 3.3129
" />
<path d="M40.4951 3.3129
L40.4346 3.2524
" />
<path d="M40.4346 3.2524
L40.3742 3.1314
" />
<path d="M40.3742 3.1314
L40.3742 2.7686
" />
<path d="M40.3742 2.7686
L40.4346 2.6476
" />
<path d="M40.4346 2.6476
L40.4951 2.5871
" />
<path d="M40.4951 2.5871
L40.6161 2.5267
" />
<path d="M40.6161 2.5267
L40.8580 2.5267
" />
<path d="M40.8580 2.5267
L40.9789 2.5871
" />
<path d="M41.7651 3.3733
L41.6441 3.3129
" />
<path d="M41.6441 3.3129
L41.5836 3.2524
" />
<path d="M41.5836 3.2524
L41.5232 3.1314
" />
<path d="M41.5232 3.1314
L41.5232 2.7686
" />
<path d="M41.5232 2.7686
L41.5836 2.6476
" />
<path d="M41.5836 2.6476
L41.6441 2.5871
" />
<path d="M41.6441 2.5871
L41.7651 2.5267
" />
<path d="M41.7651 2.5267
L41.9465 2.5267
" />
<path d="M41.9465 2.5267
L42.0674 2.5871
" />
<path d="M42.0674 2.5871
L42.1279 2.6476
" />
<path d="M42.1279 2.6476
L42.1884 2.7686
" />
<path d="M42.1884 2.7686
L42.1884 3.1314
" />
<path d="M42.1884 3.1314
L42.1279 3.2524
" />
<path d="M42.1279 3.2524
L42.0674 3.3129
" />
<path d="M42.0674 3.3129
L41.9465 3.3733
" />
<path d="M41.9465 3.3733
L41.7651 3.3733
" />
<path d="M42.6117 2.5267
L42.8536 3.3733
" />
<path d="M42.8536 3.3733
L43.0955 2.7686
" />
<path d="M43.0955 2.7686
L43.3374 3.3733
" />
<path d="M43.3374 3.3733
L43.5793 2.5267
" />
<path d="M44.0631 2.5267
L44.0631 3.3733
" />
<path d="M44.0631 2.6476
L44.1236 2.5871
" />
<path d="M44.1236 2.5871
L44.2446 2.5267
" />
<path d="M44.2446 2.5267
L44.4260 2.5267
" />
<path d="M44.4260 2.5267
L44.5469 2.5871
" />
<path d="M44.5469 2.5871
L44.6074 2.7081
" />
<path d="M44.6074 2.7081
L44.6074 3.3733
" />
<path d="M45.3936 3.3733
L45.2726 3.3129
" />
<path d="M45.2726 3.3129
L45.2121 3.1919
" />
<path d="M45.2121 3.1919
L45.2121 2.1033
" />
<path d="M46.0588 3.3733
L45.9378 3.3129
" />
<path d="M45.9378 3.3129
L45.8773 3.2524
" />
<path d="M45.8773 3.2524
L45.8169 3.1314
" />
<path d="M45.8169 3.1314
L45.8169 2.7686
" />
<path d="M45.8169 2.7686
L45.8773 2.6476
" />
<path d="M45.8773 2.6476
L45.9378 2.5871
" />
<path d="M45.9378 2.5871
L46.0588 2.5267
" />
<path d="M46.0588 2.5267
L46.2402 2.5267
" />
<path d="M46.2402 2.5267
L46.3611 2.5871
" />
<path d="M46.3611 2.5871
L46.4216 2.6476
" />
<path d="M46.4216 2.6476
L46.4821 2.7686
" />
<path d="M46.4821 2.7686
L46.4821 3.1314
" />
<path d="M46.4821 3.1314
L46.4216 3.2524
" />
<path d="M46.4216 3.2524
L46.3611 3.3129
" />
<path d="M46.3611 3.3129
L46.2402 3.3733
" />
<path d="M46.2402 3.3733
L46.0588 3.3733
" />
<path d="M47.5706 3.3733
L47.5706 2.7081
" />
<path d="M47.5706 2.7081
L47.5101 2.5871
" />
<path d="M47.5101 2.5871
L47.3892 2.5267
" />
<path d="M47.3892 2.5267
L47.1473 2.5267
" />
<path d="M47.1473 2.5267
L47.0263 2.5871
" />
<path d="M47.5706 3.3129
L47.4497 3.3733
" />
<path d="M47.4497 3.3733
L47.1473 3.3733
" />
<path d="M47.1473 3.3733
L47.0263 3.3129
" />
<path d="M47.0263 3.3129
L46.9659 3.1919
" />
<path d="M46.9659 3.1919
L46.9659 3.0709
" />
<path d="M46.9659 3.0709
L47.0263 2.9500
" />
<path d="M47.0263 2.9500
L47.1473 2.8895
" />
<path d="M47.1473 2.8895
L47.4497 2.8895
" />
<path d="M47.4497 2.8895
L47.5706 2.8290
" />
<path d="M48.7196 3.3733
L48.7196 2.1033
" />
<path d="M48.7196 3.3129
L48.5987 3.3733
" />
<path d="M48.5987 3.3733
L48.3568 3.3733
" />
<path d="M48.3568 3.3733
L48.2358 3.3129
" />
<path d="M48.2358 3.3129
L48.1753 3.2524
" />
<path d="M48.1753 3.2524
L48.1149 3.1314
" />
<path d="M48.1149 3.1314
L48.1149 2.7686
" />
<path d="M48.1149 2.7686
L48.1753 2.6476
" />
<path d="M48.1753 2.6476
L48.2358 2.5871
" />
<path d="M48.2358 2.5871
L48.3568 2.5267
" />
<path d="M48.3568 2.5267
L48.5987 2.5267
" />
<path d="M48.5987 2.5267
L48.7196 2.5871
" />
<path d="M49.2639 3.3129
L49.3848 3.3733
" />
<path d="M49.3848 3.3733
L49.6267 3.3733
" />
<path d="M49.6267 3.3733
L49.7477 3.3129
" />
<path d="M49.7477 3.3129
L49.8081 3.1919
" />
<path d="M49.8081 3.1919
L49.8081 3.1314
" />
<path d="M49.8081 3.1314
L49.7477 3.0105
" />
<path d="M49.7477 3.0105
L49.6267 2.9500
" />
<path d="M49.6267 2.9500
L49.4453 2.9500
" />
<path d="M49.4453 2.9500
L49.3243 2.8895
" />
<path d="M49.3243 2.8895
L49.2639 2.7686
" />
<path d="M49.2639 2.7686
L49.2639 2.7081
" />
<path d="M49.2639 2.7081
L49.3243 2.5871
" />
<path d="M49.3243 2.5871
L49.4453 2.5267
" />
<path d="M49.4453 2.5267
L49.6267 2.5267
" />
<path d="M49.6267 2.5267
L49.7477 2.5871
" />
<path d="M51.2596 2.0429
L50.1710 3.6757
" />
<path d="M52.1667 3.3129
L52.0458 3.3733
" />
<path d="M52.0458 3.3733
L51.8039 3.3733
" />
<path d="M51.8039 3.3733
L51.6829 3.3129
" />
<path d="M51.6829 3.3129
L51.6225 3.1919
" />
<path d="M51.6225 3.1919
L51.6225 2.7081
" />
<path d="M51.6225 2.7081
L51.6829 2.5871
" />
<path d="M51.6829 2.5871
L51.8039 2.5267
" />
<path d="M51.8039 2.5267
L52.0458 2.5267
" />
<path d="M52.0458 2.5267
L52.1667 2.5871
" />
<path d="M52.1667 2.5871
L52.2272 2.7081
" />
<path d="M52.2272 2.7081
L52.2272 2.8290
" />
<path d="M52.2272 2.8290
L51.6225 2.9500
" />
<path d="M52.7715 2.5267
L52.7715 3.3733
" />
<path d="M52.7715 2.6476
L52.8320 2.5871
" />
<path d="M52.8320 2.5871
L52.9530 2.5267
" />
<path d="M52.9530 2.5267
L53.1344 2.5267
" />
<path d="M53.1344 2.5267
L53.2553 2.5871
" />
<path d="M53.2553 2.5871
L53.3158 2.7081
" />
<path d="M53.3158 2.7081
L53.3158 3.3733
" />
<path d="M54.8277 2.0429
L53.7391 3.6757
" />
<path d="M55.2510 3.3733
L55.2510 2.1033
" />
<path d="M55.2510 2.1033
L55.5534 2.1033
" />
<path d="M55.5534 2.1033
L55.7348 2.1638
" />
<path d="M55.7348 2.1638
L55.8558 2.2848
" />
<path d="M55.8558 2.2848
L55.9163 2.4057
" />
<path d="M55.9163 2.4057
L55.9767 2.6476
" />
<path d="M55.9767 2.6476
L55.9767 2.8290
" />
<path d="M55.9767 2.8290
L55.9163 3.0709
" />
<path d="M55.9163 3.0709
L55.8558 3.1919
" />
<path d="M55.8558 3.1919
L55.7348 3.3129
" />
<path d="M55.7348 3.3129
L55.5534 3.3733
" />
<path d="M55.5534 3.3733
L55.2510 3.3733
" />
<path d="M57.0048 3.3129
L56.8839 3.3733
" />
<path d="M56.8839 3.3733
L56.6420 3.3733
" />
<path d="M56.6420 3.3733
L56.5210 3.3129
" />
<path d="M56.5210 3.3129
L56.4606 3.1919
" />
<path d="M56.4606 3.1919
L56.4606 2.7081
" />
<path d="M56.4606 2.7081
L56.5210 2.5871
" />
<path d="M56.5210 2.5871
L56.6420 2.5267
" />
<path d="M56.6420 2.5267
L56.8839 2.5267
" />
<path d="M56.8839 2.5267
L57.0048 2.5871
" />
<path d="M57.0048 2.5871
L57.0653 2.7081
" />
<path d="M57.0653 2.7081
L57.0653 2.8290
" />
<path d="M57.0653 2.8290
L56.4606 2.9500
" />
<path d="M57.4887 2.5267
L57.7911 3.3733
" />
<path d="M57.7911 3.3733
L58.0934 2.5267
" />
<path d="M58.5772 3.3733
L58.5772 2.5267
" />
<path d="M58.5772 2.1033
L58.5168 2.1638
" />
<path d="M58.5168 2.1638
L58.5772 2.2243
" />
<path d="M58.5772 2.2243
L58.6377 2.1638
" />
<path d="M58.6377 2.1638
L58.5772 2.1033
" />
<path d="M58.5772 2.1033
L58.5772 2.2243
" />
<path d="M59.7263 3.3129
L59.6054 3.3733
" />
<path d="M59.6054 3.3733
L59.3635 3.3733
" />
<path d="M59.3635 3.3733
L59.2425 3.3129
" />
<path d="M59.2425 3.3129
L59.1820 3.2524
" />
<path d="M59.1820 3.2524
L59.1216 3.1314
" />
<path d="M59.1216 3.1314
L59.1216 2.7686
" />
<path d="M59.1216 2.7686
L59.1820 2.6476
" />
<path d="M59.1820 2.6476
L59.2425 2.5871
" />
<path d="M59.2425 2.5871
L59.3635 2.5267
" />
<path d="M59.3635 2.5267
L59.6054 2.5267
" />
<path d="M59.6054 2.5267
L59.7263 2.5871
" />
<path d="M60.7544 3.3129
L60.6335 3.3733
" />
<path d="M60.6335 3.3733
L60.3916 3.3733
" />
<path d="M60.3916 3.3733
L60.2706 3.3129
" />
<path d="M60.2706 3.3129
L60.2102 3.1919
" />
<path d="M60.2102 3.1919
L60.2102 2.7081
" />
<path d="M60.2102 2.7081
L60.2706 2.5871
" />
<path d="M60.2706 2.5871
L60.3916 2.5267
" />
<path d="M60.3916 2.5267
L60.6335 2.5267
" />
<path d="M60.6335 2.5267
L60.7544 2.5871
" />
<path d="M60.7544 2.5871
L60.8149 2.7081
" />
<path d="M60.8149 2.7081
L60.8149 2.8290
" />
<path d="M60.8149 2.8290
L60.2102 2.9500
" />
<path d="M61.3592 3.3733
L61.3592 2.1033
" />
<path d="M61.3592 2.1033
L61.6616 2.1033
" />
<path d="M61.6616 2.1033
L61.8430 2.1638
" />
<path d="M61.8430 2.1638
L61.9640 2.2848
" />
<path d="M61.9640 2.2848
L62.0245 2.4057
" />
<path d="M62.0245 2.4057
L62.0849 2.6476
" />
<path d="M62.0849 2.6476
L62.0849 2.8290
" />
<path d="M62.0849 2.8290
L62.0245 3.0709
" />
<path d="M62.0245 3.0709
L61.9640 3.1919
" />
<path d="M61.9640 3.1919
L61.8430 3.3129
" />
<path d="M61.8430 3.3129
L61.6616 3.3733
" />
<path d="M61.6616 3.3733
L61.3592 3.3733
" />
<path d="M62.8107 3.3733
L62.6897 3.3129
" />
<path d="M62.6897 3.3129
L62.6292 3.2524
" />
<path d="M62.6292 3.2524
L62.5688 3.1314
" />
<path d="M62.5688 3.1314
L62.5688 2.7686
" />
<path d="M62.5688 2.7686
L62.6292 2.6476
" />
<path d="M62.6292 2.6476
L62.6897 2.5871
" />
<path d="M62.6897 2.5871
L62.8107 2.5267
" />
<path d="M62.8107 2.5267
L62.9921 2.5267
" />
<path d="M62.9921 2.5267
L63.1130 2.5871
" />
<path d="M63.1130 2.5871
L63.1735 2.6476
" />
<path d="M63.1735 2.6476
L63.2340 2.7686
" />
<path d="M63.2340 2.7686
L63.2340 3.1314
" />
<path d="M63.2340 3.1314
L63.1735 3.2524
" />
<path d="M63.1735 3.2524
L63.1130 3.3129
" />
<path d="M63.1130 3.3129
L62.9921 3.3733
" />
<path d="M62.9921 3.3733
L62.8107 3.3733
" />
<path d="M64.3225 3.3129
L64.2016 3.3733
" />
<path d="M64.2016 3.3733
L63.9597 3.3733
" />
<path d="M63.9597 3.3733
L63.8387 3.3129
" />
<path d="M63.8387 3.3129
L63.7782 3.2524
" />
<path d="M63.7782 3.2524
L63.7178 3.1314
" />
<path d="M63.7178 3.1314
L63.7178 2.7686
" />
<path d="M63.7178 2.7686
L63.7782 2.6476
" />
<path d="M63.7782 2.6476
L63.8387 2.5871
" />
<path d="M63.8387 2.5871
L63.9597 2.5267
" />
<path d="M63.9597 2.5267
L64.2016 2.5267
" />
<path d="M64.2016 2.5267
L64.3225 2.5871
" />
<path d="M65.7740 2.0429
L64.6854 3.6757
" />
<path d="M66.1369 3.0105
L66.7416 3.0105
" />
<path d="M66.0159 3.3733
L66.4392 2.1033
" />
<path d="M66.4392 2.1033
L66.8626 3.3733
" />
<path d="M67.1045 2.1033
L67.8302 2.1033
" />
<path d="M67.4674 3.3733
L67.4674 2.1033
" />
<path d="M68.2535 2.7081
L68.6769 2.7081
" />
<path d="M68.8583 3.3733
L68.2535 3.3733
" />
<path d="M68.2535 3.3733
L68.2535 2.1033
" />
<path d="M68.2535 2.1033
L68.8583 2.1033
" />
<path d="M70.1282 3.2524
L70.0678 3.3129
" />
<path d="M70.0678 3.3129
L69.8863 3.3733
" />
<path d="M69.8863 3.3733
L69.7654 3.3733
" />
<path d="M69.7654 3.3733
L69.5840 3.3129
" />
<path d="M69.5840 3.3129
L69.4630 3.1919
" />
<path d="M69.4630 3.1919
L69.4025 3.0709
" />
<path d="M69.4025 3.0709
L69.3421 2.8290
" />
<path d="M69.3421 2.8290
L69.3421 2.6476
" />
<path d="M69.3421 2.6476
L69.4025 2.4057
" />
<path d="M69.4025 2.4057
L69.4630 2.2848
" />
<path d="M69.4630 2.2848
L69.5840 2.1638
" />
<path d="M69.5840 2.1638
L69.7654 2.1033
" />
<path d="M69.7654 2.1033
L69.8863 2.1033
" />
<path d="M69.8863 2.1033
L70.0678 2.1638
" />
<path d="M70.0678 2.1638
L70.1282 2.2243
" />
<path d="M71.3982 3.2524
L71.3378 3.3129
" />
<path d="M71.3378 3.3129
L71.1563 3.3733
" />
<path d="M71.1563 3.3733
L71.0354 3.3733
" />
<path d="M71.0354 3.3733
L70.8540 3.3129
" />
<path d="M70.8540 3.3129
L70.7330 3.1919
" />
<path d="M70.7330 3.1919
L70.6725 3.0709
" />
<path d="M70.6725 3.0709
L70.6121 2.8290
" />
<path d="M70.6121 2.8290
L70.6121 2.6476
" />
<path d="M70.6121 2.6476
L70.6725 2.4057
" />
<path d="M70.6725 2.4057
L70.7330 2.2848
" />
<path d="M70.7330 2.2848
L70.8540 2.1638
" />
<path d="M70.8540 2.1638
L71.0354 2.1033
" />
<path d="M71.0354 2.1033
L71.1563 2.1033
" />
<path d="M71.1563 2.1033
L71.3378 2.1638
" />
<path d="M71.3378 2.1638
L71.3982 2.2243
" />
<path d="M72.4868 2.1033
L72.2449 2.1033
" />
<path d="M72.2449 2.1033
L72.1240 2.1638
" />
<path d="M72.1240 2.1638
L72.0635 2.2243
" />
<path d="M72.0635 2.2243
L71.9425 2.4057
" />
<path d="M71.9425 2.4057
L71.8821 2.6476
" />
<path d="M71.8821 2.6476
L71.8821 3.1314
" />
<path d="M71.8821 3.1314
L71.9425 3.2524
" />
<path d="M71.9425 3.2524
L72.0030 3.3129
" />
<path d="M72.0030 3.3129
L72.1240 3.3733
" />
<path d="M72.1240 3.3733
L72.3659 3.3733
" />
<path d="M72.3659 3.3733
L72.4868 3.3129
" />
<path d="M72.4868 3.3129
L72.5473 3.2524
" />
<path d="M72.5473 3.2524
L72.6078 3.1314
" />
<path d="M72.6078 3.1314
L72.6078 2.8290
" />
<path d="M72.6078 2.8290
L72.5473 2.7081
" />
<path d="M72.5473 2.7081
L72.4868 2.6476
" />
<path d="M72.4868 2.6476
L72.3659 2.5871
" />
<path d="M72.3659 2.5871
L72.1240 2.5871
" />
<path d="M72.1240 2.5871
L72.0030 2.6476
" />
<path d="M72.0030 2.6476
L71.9425 2.7081
" />
<path d="M71.9425 2.7081
L71.8821 2.8290
" />
<path d="M73.3939 2.1033
L73.5149 2.1033
" />
<path d="M73.5149 2.1033
L73.6358 2.1638
" />
<path d="M73.6358 2.1638
L73.6963 2.2243
" />
<path d="M73.6963 2.2243
L73.7568 2.3452
" />
<path d="M73.7568 2.3452
L73.8173 2.5871
" />
<path d="M73.8173 2.5871
L73.8173 2.8895
" />
<path d="M73.8173 2.8895
L73.7568 3.1314
" />
<path d="M73.7568 3.1314
L73.6963 3.2524
" />
<path d="M73.6963 3.2524
L73.6358 3.3129
" />
<path d="M73.6358 3.3129
L73.5149 3.3733
" />
<path d="M73.5149 3.3733
L73.3939 3.3733
" />
<path d="M73.3939 3.3733
L73.2730 3.3129
" />
<path d="M73.2730 3.3129
L73.2125 3.2524
" />
<path d="M73.2125 3.2524
L73.1520 3.1314
" />
<path d="M73.1520 3.1314
L73.0916 2.8895
" />
<path d="M73.0916 2.8895
L73.0916 2.5871
" />
<path d="M73.0916 2.5871
L73.1520 2.3452
" />
<path d="M73.1520 2.3452
L73.2125 2.2243
" />
<path d="M73.2125 2.2243
L73.2730 2.1638
" />
<path d="M73.2730 2.1638
L73.3939 2.1033
" />
<path d="M74.5430 2.6476
L74.4220 2.5871
" />
<path d="M74.4220 2.5871
L74.3615 2.5267
" />
<path d="M74.3615 2.5267
L74.3011 2.4057
" />
<path d="M74.3011 2.4057
L74.3011 2.3452
" />
<path d="M74.3011 2.3452
L74.3615 2.2243
" />
<path d="M74.3615 2.2243
L74.4220 2.1638
" />
<path d="M74.4220 2.1638
L74.5430 2.1033
" />
<path d="M74.5430 2.1033
L74.7849 2.1033
" />
<path d="M74.7849 2.1033
L74.9058 2.1638
" />
<path d="M74.9058 2.1638
L74.9663 2.2243
" />
<path d="M74.9663 2.2243
L75.0268 2.3452
" />
<path d="M75.0268 2.3452
L75.0268 2.4057
" />
<path d="M75.0268 2.4057
L74.9663 2.5267
" />
<path d="M74.9663 2.5267
L74.9058 2.5871
" />
<path d="M74.9058 2.5871
L74.7849 2.6476
" />
<path d="M74.7849 2.6476
L74.5430 2.6476
" />
<path d="M74.5430 2.6476
L74.4220 2.7081
" />
<path d="M74.4220 2.7081
L74.3615 2.7686
" />
<path d="M74.3615 2.7686
L74.3011 2.8895
" />
<path d="M74.3011 2.8895
L74.3011 3.1314
" />
<path d="M74.3011 3.1314
L74.3615 3.2524
" />
<path d="M74.3615 3.2524
L74.4220 3.3129
" />
<path d="M74.4220 3.3129
L74.5430 3.3733
" />
<path d="M74.5430 3.3733
L74.7849 3.3733
" />
<path d="M74.7849 3.3733
L74.9058 3.3129
" />
<path d="M74.9058 3.3129
L74.9663 3.2524
" />
<path d="M74.9663 3.2524
L75.0268 3.1314
" />
<path d="M75.0268 3.1314
L75.0268 2.8895
" />
<path d="M75.0268 2.8895
L74.9663 2.7686
" />
<path d="M74.9663 2.7686
L74.9058 2.7081
" />
<path d="M74.9058 2.7081
L74.7849 2.6476
" />
<path d="M75.5106 3.0105
L76.1153 3.0105
" />
<path d="M75.3896 3.3733
L75.8129 2.1033
" />
<path d="M75.8129 2.1033
L76.2363 3.3733
" />
<path d="M76.6596 2.8895
L77.6273 2.8895
" />
<path d="M78.9577 3.2524
L78.8973 3.3129
" />
<path d="M78.8973 3.3129
L78.7158 3.3733
" />
<path d="M78.7158 3.3733
L78.5949 3.3733
" />
<path d="M78.5949 3.3733
L78.4135 3.3129
" />
<path d="M78.4135 3.3129
L78.2925 3.1919
" />
<path d="M78.2925 3.1919
L78.2320 3.0709
" />
<path d="M78.2320 3.0709
L78.1716 2.8290
" />
<path d="M78.1716 2.8290
L78.1716 2.6476
" />
<path d="M78.1716 2.6476
L78.2320 2.4057
" />
<path d="M78.2320 2.4057
L78.2925 2.2848
" />
<path d="M78.2925 2.2848
L78.4135 2.1638
" />
<path d="M78.4135 2.1638
L78.5949 2.1033
" />
<path d="M78.5949 2.1033
L78.7158 2.1033
" />
<path d="M78.7158 2.1033
L78.8973 2.1638
" />
<path d="M78.8973 2.1638
L78.9577 2.2243
" />
<path d="M79.5020 3.3733
L79.5020 2.5267
" />
<path d="M79.5020 2.7686
L79.5625 2.6476
" />
<path d="M79.5625 2.6476
L79.6230 2.5871
" />
<path d="M79.6230 2.5871
L79.7439 2.5267
" />
<path d="M79.7439 2.5267
L79.8649 2.5267
" />
<path d="M80.1673 2.5267
L80.4697 3.3733
" />
<path d="M80.7720 2.5267
L80.4697 3.3733
" />
<path d="M80.4697 3.3733
L80.3487 3.6757
" />
<path d="M80.3487 3.6757
L80.2882 3.7362
" />
<path d="M80.2882 3.7362
L80.1673 3.7967
" />
<path d="M81.2558 2.5267
L81.2558 3.7967
" />
<path d="M81.2558 2.5871
L81.3768 2.5267
" />
<path d="M81.3768 2.5267
L81.6187 2.5267
" />
<path d="M81.6187 2.5267
L81.7396 2.5871
" />
<path d="M81.7396 2.5871
L81.8001 2.6476
" />
<path d="M81.8001 2.6476
L81.8606 2.7686
" />
<path d="M81.8606 2.7686
L81.8606 3.1314
" />
<path d="M81.8606 3.1314
L81.8001 3.2524
" />
<path d="M81.8001 3.2524
L81.7396 3.3129
" />
<path d="M81.7396 3.3129
L81.6187 3.3733
" />
<path d="M81.6187 3.3733
L81.3768 3.3733
" />
<path d="M81.3768 3.3733
L81.2558 3.3129
" />
<path d="M82.2234 2.5267
L82.7072 2.5267
" />
<path d="M82.4048 2.1033
L82.4048 3.1919
" />
<path d="M82.4048 3.1919
L82.4653 3.3129
" />
<path d="M82.4653 3.3129
L82.5863 3.3733
" />
<path d="M82.5863 3.3733
L82.7072 3.3733
" />
<path d="M83.3120 3.3733
L83.1910 3.3129
" />
<path d="M83.1910 3.3129
L83.1305 3.2524
" />
<path d="M83.1305 3.2524
L83.0701 3.1314
" />
<path d="M83.0701 3.1314
L83.0701 2.7686
" />
<path d="M83.0701 2.7686
L83.1305 2.6476
" />
<path d="M83.1305 2.6476
L83.1910 2.5871
" />
<path d="M83.1910 2.5871
L83.3120 2.5267
" />
<path d="M83.3120 2.5267
L83.4934 2.5267
" />
<path d="M83.4934 2.5267
L83.6143 2.5871
" />
<path d="M83.6143 2.5871
L83.6748 2.6476
" />
<path d="M83.6748 2.6476
L83.7353 2.7686
" />
<path d="M83.7353 2.7686
L83.7353 3.1314
" />
<path d="M83.7353 3.1314
L83.6748 3.2524
" />
<path d="M83.6748 3.2524
L83.6143 3.3129
" />
<path d="M83.6143 3.3129
L83.4934 3.3733
" />
<path d="M83.4934 3.3733
L83.3120 3.3733
" />
<path d="M84.2191 3.0105
L84.8238 3.0105
" />
<path d="M84.0981 3.3733
L84.5214 2.1033
" />
<path d="M84.5214 2.1033
L84.9448 3.3733
" />
<path d="M85.9124 2.5267
L85.9124 3.3733
" />
<path d="M85.3681 2.5267
L85.3681 3.1919
" />
<path d="M85.3681 3.1919
L85.4286 3.3129
" />
<path d="M85.4286 3.3129
L85.5496 3.3733
" />
<path d="M85.5496 3.3733
L85.7310 3.3733
" />
<path d="M85.7310 3.3733
L85.8519 3.3129
" />
<path d="M85.8519 3.3129
L85.9124 3.2524
" />
<path d="M86.3357 2.5267
L86.8195 2.5267
" />
<path d="M86.5171 2.1033
L86.5171 3.1919
" />
<path d="M86.5171 3.1919
L86.5776 3.3129
" />
<path d="M86.5776 3.3129
L86.6986 3.3733
" />
<path d="M86.6986 3.3733
L86.8195 3.3733
" />
<path d="M87.2428 3.3733
L87.2428 2.1033
" />
<path d="M87.7871 3.3733
L87.7871 2.7081
" />
<path d="M87.7871 2.7081
L87.7266 2.5871
" />
<path d="M87.7266 2.5871
L87.6057 2.5267
" />
<path d="M87.6057 2.5267
L87.4243 2.5267
" />
<path d="M87.4243 2.5267
L87.3033 2.5871
" />
<path d="M87.3033 2.5871
L87.2428 2.6476
" />
<path d="M88.8756 3.3129
L88.7547 3.3733
" />
<path d="M88.7547 3.3733
L88.5128 3.3733
" />
<path d="M88.5128 3.3733
L88.3918 3.3129
" />
<path d="M88.3918 3.3129
L88.3314 3.1919
" />
<path d="M88.3314 3.1919
L88.3314 2.7081
" />
<path d="M88.3314 2.7081
L88.3918 2.5871
" />
<path d="M88.3918 2.5871
L88.5128 2.5267
" />
<path d="M88.5128 2.5267
L88.7547 2.5267
" />
<path d="M88.7547 2.5267
L88.8756 2.5871
" />
<path d="M88.8756 2.5871
L88.9361 2.7081
" />
<path d="M88.9361 2.7081
L88.9361 2.8290
" />
<path d="M88.9361 2.8290
L88.3314 2.9500
" />
<path d="M89.4804 2.5267
L89.4804 3.3733
" />
<path d="M89.4804 2.6476
L89.5409 2.5871
" />
<path d="M89.5409 2.5871
L89.6619 2.5267
" />
<path d="M89.6619 2.5267
L89.8433 2.5267
" />
<path d="M89.8433 2.5267
L89.9642 2.5871
" />
<path d="M89.9642 2.5871
L90.0247 2.7081
" />
<path d="M90.0247 2.7081
L90.0247 3.3733
" />
<path d="M90.4480 2.5267
L90.9318 2.5267
" />
<path d="M90.6294 2.1033
L90.6294 3.1919
" />
<path d="M90.6294 3.1919
L90.6899 3.3129
" />
<path d="M90.6899 3.3129
L90.8109 3.3733
" />
<path d="M90.8109 3.3733
L90.9318 3.3733
" />
<path d="M91.3551 3.3733
L91.3551 2.5267
" />
<path d="M91.3551 2.1033
L91.2947 2.1638
" />
<path d="M91.2947 2.1638
L91.3551 2.2243
" />
<path d="M91.3551 2.2243
L91.4156 2.1638
" />
<path d="M91.4156 2.1638
L91.3551 2.1033
" />
<path d="M91.3551 2.1033
L91.3551 2.2243
" />
<path d="M92.5042 3.3129
L92.3833 3.3733
" />
<path d="M92.3833 3.3733
L92.1414 3.3733
" />
<path d="M92.1414 3.3733
L92.0204 3.3129
" />
<path d="M92.0204 3.3129
L91.9599 3.2524
" />
<path d="M91.9599 3.2524
L91.8995 3.1314
" />
<path d="M91.8995 3.1314
L91.8995 2.7686
" />
<path d="M91.8995 2.7686
L91.9599 2.6476
" />
<path d="M91.9599 2.6476
L92.0204 2.5871
" />
<path d="M92.0204 2.5871
L92.1414 2.5267
" />
<path d="M92.1414 2.5267
L92.3833 2.5267
" />
<path d="M92.3833 2.5267
L92.5042 2.5871
" />
<path d="M93.5928 3.3733
L93.5928 2.7081
" />
<path d="M93.5928 2.7081
L93.5323 2.5871
" />
<path d="M93.5323 2.5871
L93.4114 2.5267
" />
<path d="M93.4114 2.5267
L93.1695 2.5267
" />
<path d="M93.1695 2.5267
L93.0485 2.5871
" />
<path d="M93.5928 3.3129
L93.4719 3.3733
" />
<path d="M93.4719 3.3733
L93.1695 3.3733
" />
<path d="M93.1695 3.3733
L93.0485 3.3129
" />
<path d="M93.0485 3.3129
L92.9881 3.1919
" />
<path d="M92.9881 3.1919
L92.9881 3.0709
" />
<path d="M92.9881 3.0709
L93.0485 2.9500
" />
<path d="M93.0485 2.9500
L93.1695 2.8895
" />
<path d="M93.1695 2.8895
L93.4719 2.8895
" />
<path d="M93.4719 2.8895
L93.5928 2.8290
" />
<path d="M94.0161 2.5267
L94.4999 2.5267
" />
<path d="M94.1975 2.1033
L94.1975 3.1919
" />
<path d="M94.1975 3.1919
L94.2580 3.3129
" />
<path d="M94.2580 3.3129
L94.3790 3.3733
" />
<path d="M94.3790 3.3733
L94.4999 3.3733
" />
<path d="M94.9232 3.3733
L94.9232 2.5267
" />
<path d="M94.9232 2.1033
L94.8628 2.1638
" />
<path d="M94.8628 2.1638
L94.9232 2.2243
" />
<path d="M94.9232 2.2243
L94.9837 2.1638
" />
<path d="M94.9837 2.1638
L94.9232 2.1033
" />
<path d="M94.9232 2.1033
L94.9232 2.2243
" />
<path d="M95.7095 3.3733
L95.5885 3.3129
" />
<path d="M95.5885 3.3129
L95.5280 3.2524
" />
<path d="M95.5280 3.2524
L95.4676 3.1314
" />
<path d="M95.4676 3.1314
L95.4676 2.7686
" />
<path d="M95.4676 2.7686
L95.5280 2.6476
" />
<path d="M95.5280 2.6476
L95.5885 2.5871
" />
<path d="M95.5885 2.5871
L95.7095 2.5267
" />
<path d="M95.7095 2.5267
L95.8909 2.5267
" />
<path d="M95.8909 2.5267
L96.0118 2.5871
" />
<path d="M96.0118 2.5871
L96.0723 2.6476
" />
<path d="M96.0723 2.6476
L96.1328 2.7686
" />
<path d="M96.1328 2.7686
L96.1328 3.1314
" />
<path d="M96.1328 3.1314
L96.0723 3.2524
" />
<path d="M96.0723 3.2524
L96.0118 3.3129
" />
<path d="M96.0118 3.3129
L95.8909 3.3733
" />
<path d="M95.8909 3.3733
L95.7095 3.3733
" />
<path d="M96.6770 2.5267
L96.6770 3.3733
" />
<path d="M96.6770 2.6476
L96.7375 2.5871
" />
<path d="M96.7375 2.5871
L96.8585 2.5267
" />
<path d="M96.8585 2.5267
L97.0399 2.5267
" />
<path d="M97.0399 2.5267
L97.1608 2.5871
" />
<path d="M97.1608 2.5871
L97.2213 2.7081
" />
<path d="M97.2213 2.7081
L97.2213 3.3733
" />
<path d="M97.8260 2.8895
L98.7937 2.8895
" />
<path d="M99.3984 3.3733
L99.3984 2.1033
" />
<path d="M99.3984 2.1033
L99.7008 2.1033
" />
<path d="M99.7008 2.1033
L99.8822 2.1638
" />
<path d="M99.8822 2.1638
L100.0032 2.2848
" />
<path d="M100.0032 2.2848
L100.0637 2.4057
" />
<path d="M100.0637 2.4057
L100.1241 2.6476
" />
<path d="M100.1241 2.6476
L100.1241 2.8290
" />
<path d="M100.1241 2.8290
L100.0637 3.0709
" />
<path d="M100.0637 3.0709
L100.0032 3.1919
" />
<path d="M100.0032 3.1919
L99.8822 3.3129
" />
<path d="M99.8822 3.3129
L99.7008 3.3733
" />
<path d="M99.7008 3.3733
L99.3984 3.3733
" />
<path d="M101.1522 3.3129
L101.0313 3.3733
" />
<path d="M101.0313 3.3733
L100.7894 3.3733
" />
<path d="M100.7894 3.3733
L100.6684 3.3129
" />
<path d="M100.6684 3.3129
L100.6080 3.1919
" />
<path d="M100.6080 3.1919
L100.6080 2.7081
" />
<path d="M100.6080 2.7081
L100.6684 2.5871
" />
<path d="M100.6684 2.5871
L100.7894 2.5267
" />
<path d="M100.7894 2.5267
L101.0313 2.5267
" />
<path d="M101.0313 2.5267
L101.1522 2.5871
" />
<path d="M101.1522 2.5871
L101.2127 2.7081
" />
<path d="M101.2127 2.7081
L101.2127 2.8290
" />
<path d="M101.2127 2.8290
L100.6080 2.9500
" />
<path d="M101.6361 2.5267
L101.9385 3.3733
" />
<path d="M101.9385 3.3733
L102.2408 2.5267
" />
<path d="M102.7246 3.3733
L102.7246 2.5267
" />
<path d="M102.7246 2.1033
L102.6642 2.1638
" />
<path d="M102.6642 2.1638
L102.7246 2.2243
" />
<path d="M102.7246 2.2243
L102.7851 2.1638
" />
<path d="M102.7851 2.1638
L102.7246 2.1033
" />
<path d="M102.7246 2.1033
L102.7246 2.2243
" />
<path d="M103.8737 3.3129
L103.7528 3.3733
" />
<path d="M103.7528 3.3733
L103.5109 3.3733
" />
<path d="M103.5109 3.3733
L103.3899 3.3129
" />
<path d="M103.3899 3.3129
L103.3294 3.2524
" />
<path d="M103.3294 3.2524
L103.2690 3.1314
" />
<path d="M103.2690 3.1314
L103.2690 2.7686
" />
<path d="M103.2690 2.7686
L103.3294 2.6476
" />
<path d="M103.3294 2.6476
L103.3899 2.5871
" />
<path d="M103.3899 2.5871
L103.5109 2.5267
" />
<path d="M103.5109 2.5267
L103.7528 2.5267
" />
<path d="M103.7528 2.5267
L103.8737 2.5871
" />
<path d="M104.9018 3.3129
L104.7809 3.3733
" />
<path d="M104.7809 3.3733
L104.5390 3.3733
" />
<path d="M104.5390 3.3733
L104.4180 3.3129
" />
<path d="M104.4180 3.3129
L104.3576 3.1919
" />
<path d="M104.3576 3.1919
L104.3576 2.7081
" />
<path d="M104.3576 2.7081
L104.4180 2.5871
" />
<path d="M104.4180 2.5871
L104.5390 2.5267
" />
<path d="M104.5390 2.5267
L104.7809 2.5267
" />
<path d="M104.7809 2.5267
L104.9018 2.5871
" />
<path d="M104.9018 2.5871
L104.9623 2.7081
" />
<path d="M104.9623 2.7081
L104.9623 2.8290
" />
<path d="M104.9623 2.8290
L104.3576 2.9500
" />
<path d="M105.5066 2.8895
L106.4743 2.8895
" />
<path d="M107.0186 3.3129
L107.2000 3.3733
" />
<path d="M107.2000 3.3733
L107.5024 3.3733
" />
<path d="M107.5024 3.3733
L107.6233 3.3129
" />
<path d="M107.6233 3.3129
L107.6838 3.2524
" />
<path d="M107.6838 3.2524
L107.7443 3.1314
" />
<path d="M107.7443 3.1314
L107.7443 3.0105
" />
<path d="M107.7443 3.0105
L107.6838 2.8895
" />
<path d="M107.6838 2.8895
L107.6233 2.8290
" />
<path d="M107.6233 2.8290
L107.5024 2.7686
" />
<path d="M107.5024 2.7686
L107.2605 2.7081
" />
<path d="M107.2605 2.7081
L107.1395 2.6476
" />
<path d="M107.1395 2.6476
L107.0790 2.5871
" />
<path d="M107.0790 2.5871
L107.0186 2.4662
" />
<path d="M107.0186 2.4662
L107.0186 2.3452
" />
<path d="M107.0186 2.3452
L107.0790 2.2243
" />
<path d="M107.0790 2.2243
L107.1395 2.1638
" />
<path d="M107.1395 2.1638
L107.2605 2.1033
" />
<path d="M107.2605 2.1033
L107.5628 2.1033
" />
<path d="M107.5628 2.1033
L107.7443 2.1638
" />
<path d="M108.8328 2.5267
L108.8328 3.3733
" />
<path d="M108.2885 2.5267
L108.2885 3.1919
" />
<path d="M108.2885 3.1919
L108.3490 3.3129
" />
<path d="M108.3490 3.3129
L108.4700 3.3733
" />
<path d="M108.4700 3.3733
L108.6514 3.3733
" />
<path d="M108.6514 3.3733
L108.7723 3.3129
" />
<path d="M108.7723 3.3129
L108.8328 3.2524
" />
<path d="M109.4375 3.3733
L109.4375 2.5267
" />
<path d="M109.4375 2.6476
L109.4980 2.5871
" />
<path d="M109.4980 2.5871
L109.6190 2.5267
" />
<path d="M109.6190 2.5267
L109.8004 2.5267
" />
<path d="M109.8004 2.5267
L109.9213 2.5871
" />
<path d="M109.9213 2.5871
L109.9818 2.7081
" />
<path d="M109.9818 2.7081
L109.9818 3.3733
" />
<path d="M109.9818 2.7081
L110.0423 2.5871
" />
<path d="M110.0423 2.5871
L110.1632 2.5267
" />
<path d="M110.1632 2.5267
L110.3447 2.5267
" />
<path d="M110.3447 2.5267
L110.4656 2.5871
" />
<path d="M110.4656 2.5871
L110.5261 2.7081
" />
<path d="M110.5261 2.7081
L110.5261 3.3733
" />
<path d="M111.1308 3.3733
L111.1308 2.5267
" />
<path d="M111.1308 2.6476
L111.1913 2.5871
" />
<path d="M111.1913 2.5871
L111.3123 2.5267
" />
<path d="M111.3123 2.5267
L111.4937 2.5267
" />
<path d="M111.4937 2.5267
L111.6146 2.5871
" />
<path d="M111.6146 2.5871
L111.6751 2.7081
" />
<path d="M111.6751 2.7081
L111.6751 3.3733
" />
<path d="M111.6751 2.7081
L111.7356 2.5871
" />
<path d="M111.7356 2.5871
L111.8565 2.5267
" />
<path d="M111.8565 2.5267
L112.0380 2.5267
" />
<path d="M112.0380 2.5267
L112.1589 2.5871
" />
<path d="M112.1589 2.5871
L112.2194 2.7081
" />
<path d="M112.2194 2.7081
L112.2194 3.3733
" />
<path d="M113.3684 3.3733
L113.3684 2.7081
" />
<path d="M113.3684 2.7081
L113.3079 2.5871
" />
<path d="M113.3079 2.5871
L113.1870 2.5267
" />
<path d="M113.1870 2.5267
L112.9451 2.5267
" />
<path d="M112.9451 2.5267
L112.8241 2.5871
" />
<path d="M113.3684 3.3129
L113.2475 3.3733
" />
<path d="M113.2475 3.3733
L112.9451 3.3733
" />
<path d="M112.9451 3.3733
L112.8241 3.3129
" />
<path d="M112.8241 3.3129
L112.7637 3.1919
" />
<path d="M112.7637 3.1919
L112.7637 3.0709
" />
<path d="M112.7637 3.0709
L112.8241 2.9500
" />
<path d="M112.8241 2.9500
L112.9451 2.8895
" />
<path d="M112.9451 2.8895
L113.2475 2.8895
" />
<path d="M113.2475 2.8895
L113.3684 2.8290
" />
<path d="M113.9731 3.3733
L113.9731 2.5267
" />
<path d="M113.9731 2.7686
L114.0336 2.6476
" />
<path d="M114.0336 2.6476
L114.0941 2.5871
" />
<path d="M114.0941 2.5871
L114.2150 2.5267
" />
<path d="M114.2150 2.5267
L114.3360 2.5267
" />
<path d="M114.6384 2.5267
L114.9408 3.3733
" />
<path d="M115.2431 2.5267
L114.9408 3.3733
" />
<path d="M114.9408 3.3733
L114.8198 3.6757
" />
<path d="M114.8198 3.6757
L114.7593 3.7362
" />
<path d="M114.7593 3.7362
L114.6384 3.7967
" />
<path d="M115.7269 2.8895
L116.6946 2.8895
" />
<path d="M117.2993 3.3733
L117.2993 2.1033
" />
<path d="M117.2993 2.1033
L117.6017 2.1033
" />
<path d="M117.6017 2.1033
L117.7831 2.1638
" />
<path d="M117.7831 2.1638
L117.9041 2.2848
" />
<path d="M117.9041 2.2848
L117.9646 2.4057
" />
<path d="M117.9646 2.4057
L118.0250 2.6476
" />
<path d="M118.0250 2.6476
L118.0250 2.8290
" />
<path d="M118.0250 2.8290
L117.9646 3.0709
" />
<path d="M117.9646 3.0709
L117.9041 3.1919
" />
<path d="M117.9041 3.1919
L117.7831 3.3129
" />
<path d="M117.7831 3.3129
L117.6017 3.3733
" />
<path d="M117.6017 3.3733
L117.2993 3.3733
" />
<path d="M119.1136 3.3733
L119.1136 2.7081
" />
<path d="M119.1136 2.7081
L119.0531 2.5871
" />
<path d="M119.0531 2.5871
L118.9322 2.5267
" />
<path d="M118.9322 2.5267
L118.6903 2.5267
" />
<path d="M118.6903 2.5267
L118.5693 2.5871
" />
<path d="M119.1136 3.3129
L118.9927 3.3733
" />
<path d="M118.9927 3.3733
L118.6903 3.3733
" />
<path d="M118.6903 3.3733
L118.5693 3.3129
" />
<path d="M118.5693 3.3129
L118.5089 3.1919
" />
<path d="M118.5089 3.1919
L118.5089 3.0709
" />
<path d="M118.5089 3.0709
L118.5693 2.9500
" />
<path d="M118.5693 2.9500
L118.6903 2.8895
" />
<path d="M118.6903 2.8895
L118.9927 2.8895
" />
<path d="M118.9927 2.8895
L119.1136 2.8290
" />
<path d="M119.5369 2.5267
L120.0207 2.5267
" />
<path d="M119.7183 2.1033
L119.7183 3.1919
" />
<path d="M119.7183 3.1919
L119.7788 3.3129
" />
<path d="M119.7788 3.3129
L119.8998 3.3733
" />
<path d="M119.8998 3.3733
L120.0207 3.3733
" />
<path d="M120.9883 3.3733
L120.9883 2.7081
" />
<path d="M120.9883 2.7081
L120.9278 2.5871
" />
<path d="M120.9278 2.5871
L120.8069 2.5267
" />
<path d="M120.8069 2.5267
L120.5650 2.5267
" />
<path d="M120.5650 2.5267
L120.4440 2.5871
" />
<path d="M120.9883 3.3129
L120.8674 3.3733
" />
<path d="M120.8674 3.3733
L120.5650 3.3733
" />
<path d="M120.5650 3.3733
L120.4440 3.3129
" />
<path d="M120.4440 3.3129
L120.3836 3.1919
" />
<path d="M120.3836 3.1919
L120.3836 3.0709
" />
<path d="M120.3836 3.0709
L120.4440 2.9500
" />
<path d="M120.4440 2.9500
L120.5650 2.8895
" />
<path d="M120.5650 2.8895
L120.8674 2.8895
" />
<path d="M120.8674 2.8895
L120.9883 2.8290
" />
<path d="M121.5930 2.8895
L122.5607 2.8895
" />
<path d="M123.1050 3.3129
L123.2864 3.3733
" />
<path d="M123.2864 3.3733
L123.5888 3.3733
" />
<path d="M123.5888 3.3733
L123.7097 3.3129
" />
<path d="M123.7097 3.3129
L123.7702 3.2524
" />
<path d="M123.7702 3.2524
L123.8307 3.1314
" />
<path d="M123.8307 3.1314
L123.8307 3.0105
" />
<path d="M123.8307 3.0105
L123.7702 2.8895
" />
<path d="M123.7702 2.8895
L123.7097 2.8290
" />
<path d="M123.7097 2.8290
L123.5888 2.7686
" />
<path d="M123.5888 2.7686
L123.3469 2.7081
" />
<path d="M123.3469 2.7081
L123.2259 2.6476
" />
<path d="M123.2259 2.6476
L123.1654 2.5871
" />
<path d="M123.1654 2.5871
L123.1050 2.4662
" />
<path d="M123.1050 2.4662
L123.1050 2.3452
" />
<path d="M123.1050 2.3452
L123.1654 2.2243
" />
<path d="M123.1654 2.2243
L123.2259 2.1638
" />
<path d="M123.2259 2.1638
L123.3469 2.1033
" />
<path d="M123.3469 2.1033
L123.6492 2.1033
" />
<path d="M123.6492 2.1033
L123.8307 2.1638
" />
<path d="M124.3749 3.3733
L124.3749 2.1033
" />
<path d="M124.9192 3.3733
L124.9192 2.7081
" />
<path d="M124.9192 2.7081
L124.8587 2.5871
" />
<path d="M124.8587 2.5871
L124.7378 2.5267
" />
<path d="M124.7378 2.5267
L124.5564 2.5267
" />
<path d="M124.5564 2.5267
L124.4354 2.5871
" />
<path d="M124.4354 2.5871
L124.3749 2.6476
" />
<path d="M126.0077 3.3129
L125.8868 3.3733
" />
<path d="M125.8868 3.3733
L125.6449 3.3733
" />
<path d="M125.6449 3.3733
L125.5239 3.3129
" />
<path d="M125.5239 3.3129
L125.4635 3.1919
" />
<path d="M125.4635 3.1919
L125.4635 2.7081
" />
<path d="M125.4635 2.7081
L125.5239 2.5871
" />
<path d="M125.5239 2.5871
L125.6449 2.5267
" />
<path d="M125.6449 2.5267
L125.8868 2.5267
" />
<path d="M125.8868 2.5267
L126.0077 2.5871
" />
<path d="M126.0077 2.5871
L126.0682 2.7081
" />
<path d="M126.0682 2.7081
L126.0682 2.8290
" />
<path d="M126.0682 2.8290
L125.4635 2.9500
" />
<path d="M127.0963 3.3129
L126.9754 3.3733
" />
<path d="M126.9754 3.3733
L126.7335 3.3733
" />
<path d="M126.7335 3.3733
L126.6125 3.3129
" />
<path d="M126.6125 3.3129
L126.5521 3.1919
" />
<path d="M126.5521 3.1919
L126.5521 2.7081
" />
<path d="M126.5521 2.7081
L126.6125 2.5871
" />
<path d="M126.6125 2.5871
L126.7335 2.5267
" />
<path d="M126.7335 2.5267
L126.9754 2.5267
" />
<path d="M126.9754 2.5267
L127.0963 2.5871
" />
<path d="M127.0963 2.5871
L127.1568 2.7081
" />
<path d="M127.1568 2.7081
L127.1568 2.8290
" />
<path d="M127.1568 2.8290
L126.5521 2.9500
" />
<path d="M127.5197 2.5267
L128.0035 2.5267
" />
<path d="M127.7011 2.1033
L127.7011 3.1919
" />
<path d="M127.7011 3.1919
L127.7616 3.3129
" />
<path d="M127.7616 3.3129
L127.8826 3.3733
" />
<path d="M127.8826 3.3733
L128.0035 3.3733
" />
<path d="M128.4268 2.8895
L129.3945 2.8895
" />
<path d="M129.9992 3.3733
L129.9992 2.1033
" />
<path d="M129.9992 2.1033
L130.3016 2.1033
" />
<path d="M130.3016 2.1033
L130.4830 2.1638
" />
<path d="M130.4830 2.1638
L130.6040 2.2848
" />
<path d="M130.6040 2.2848
L130.6645 2.4057
" />
<path d="M130.6645 2.4057
L130.7249 2.6476
" />
<path d="M130.7249 2.6476
L130.7249 2.8290
" />
<path d="M130.7249 2.8290
L130.6645 3.0709
" />
<path d="M130.6645 3.0709
L130.6040 3.1919
" />
<path d="M130.6040 3.1919
L130.4830 3.3129
" />
<path d="M130.4830 3.3129
L130.3016 3.3733
" />
<path d="M130.3016 3.3733
L129.9992 3.3733
" />
<path d="M131.2088 3.3129
L131.3902 3.3733
" />
<path d="M131.3902 3.3733
L131.6926 3.3733
" />
<path d="M131.6926 3.3733
L131.8135 3.3129
" />
<path d="M131.8135 3.3129
L131.8740 3.2524
" />
<path d="M131.8740 3.2524
L131.9345 3.1314
" />
<path d="M131.9345 3.1314
L131.9345 3.0105
" />
<path d="M131.9345 3.0105
L131.8740 2.8895
" />
<path d="M131.8740 2.8895
L131.8135 2.8290
" />
<path d="M131.8135 2.8290
L131.6926 2.7686
" />
<path d="M131.6926 2.7686
L131.4507 2.7081
" />
<path d="M131.4507 2.7081
L131.3297 2.6476
" />
<path d="M131.3297 2.6476
L131.2692 2.5871
" />
<path d="M131.2692 2.5871
L131.2088 2.4662
" />
<path d="M131.2088 2.4662
L131.2088 2.3452
" />
<path d="M131.2088 2.3452
L131.2692 2.2243
" />
<path d="M131.2692 2.2243
L131.3297 2.1638
" />
<path d="M131.3297 2.1638
L131.4507 2.1033
" />
<path d="M131.4507 2.1033
L131.7530 2.1033
" />
<path d="M131.7530 2.1033
L131.9345 2.1638
" />
<path d="M133.0230 2.5267
L133.0230 3.3733
" />
<path d="M132.7206 2.0429
L132.4183 2.9500
" />
<path d="M132.4183 2.9500
L133.2044 2.9500
" />
<path d="M133.9301 2.1033
L134.0511 2.1033
" />
<path d="M134.0511 2.1033
L134.1720 2.1638
" />
<path d="M134.1720 2.1638
L134.2325 2.2243
" />
<path d="M134.2325 2.2243
L134.2930 2.3452
" />
<path d="M134.2930 2.3452
L134.3535 2.5871
" />
<path d="M134.3535 2.5871
L134.3535 2.8895
" />
<path d="M134.3535 2.8895
L134.2930 3.1314
" />
<path d="M134.2930 3.1314
L134.2325 3.2524
" />
<path d="M134.2325 3.2524
L134.1720 3.3129
" />
<path d="M134.1720 3.3129
L134.0511 3.3733
" />
<path d="M134.0511 3.3733
L133.9301 3.3733
" />
<path d="M133.9301 3.3733
L133.8092 3.3129
" />
<path d="M133.8092 3.3129
L133.7487 3.2524
" />
<path d="M133.7487 3.2524
L133.6882 3.1314
" />
<path d="M133.6882 3.1314
L133.6278 2.8895
" />
<path d="M133.6278 2.8895
L133.6278 2.5871
" />
<path d="M133.6278 2.5871
L133.6882 2.3452
" />
<path d="M133.6882 2.3452
L133.7487 2.2243
" />
<path d="M133.7487 2.2243
L133.8092 2.1638
" />
<path d="M133.8092 2.1638
L133.9301 2.1033
" />
<path d="M135.1396 2.1033
L135.2606 2.1033
" />
<path d="M135.2606 2.1033
L135.3815 2.1638
" />
<path d="M135.3815 2.1638
L135.4420 2.2243
" />
<path d="M135.4420 2.2243
L135.5025 2.3452
" />
<path d="M135.5025 2.3452
L135.5630 2.5871
" />
<path d="M135.5630 2.5871
L135.5630 2.8895
" />
<path d="M135.5630 2.8895
L135.5025 3.1314
" />
<path d="M135.5025 3.1314
L135.4420 3.2524
" />
<path d="M135.4420 3.2524
L135.3815 3.3129
" />
<path d="M135.3815 3.3129
L135.2606 3.3733
" />
<path d="M135.2606 3.3733
L135.1396 3.3733
" />
<path d="M135.1396 3.3733
L135.0187 3.3129
" />
<path d="M135.0187 3.3129
L134.9582 3.2524
" />
<path d="M134.9582 3.2524
L134.8977 3.1314
" />
<path d="M134.8977 3.1314
L134.8373 2.8895
" />
<path d="M134.8373 2.8895
L134.8373 2.5871
" />
<path d="M134.8373 2.5871
L134.8977 2.3452
" />
<path d="M134.8977 2.3452
L134.9582 2.2243
" />
<path d="M134.9582 2.2243
L135.0187 2.1638
" />
<path d="M135.0187 2.1638
L135.1396 2.1033
" />
<path d="M136.3491 2.1033
L136.4701 2.1033
" />
<path d="M136.4701 2.1033
L136.5910 2.1638
" />
<path d="M136.5910 2.1638
L136.6515 2.2243
" />
<path d="M136.6515 2.2243
L136.7120 2.3452
" />
<path d="M136.7120 2.3452
L136.7725 2.5871
" />
<path d="M136.7725 2.5871
L136.7725 2.8895
" />
<path d="M136.7725 2.8895
L136.7120 3.1314
" />
<path d="M136.7120 3.1314
L136.6515 3.2524
" />
<path d="M136.6515 3.2524
L136.5910 3.3129
" />
<path d="M136.5910 3.3129
L136.4701 3.3733
" />
<path d="M136.4701 3.3733
L136.3491 3.3733
" />
<path d="M136.3491 3.3733
L136.2282 3.3129
" />
<path d="M136.2282 3.3129
L136.1677 3.2524
" />
<path d="M136.1677 3.2524
L136.1072 3.1314
" />
<path d="M136.1072 3.1314
L136.0468 2.8895
" />
<path d="M136.0468 2.8895
L136.0468 2.5871
" />
<path d="M136.0468 2.5871
L136.1072 2.3452
" />
<path d="M136.1072 2.3452
L136.1677 2.2243
" />
<path d="M136.1677 2.2243
L136.2282 2.1638
" />
<path d="M136.2282 2.1638
L136.3491 2.1033
" />
<path d="M137.9820 3.3733
L137.2563 3.3733
" />
<path d="M137.6191 3.3733
L137.6191 2.1033
" />
<path d="M137.6191 2.1033
L137.4982 2.2848
" />
<path d="M137.4982 2.2848
L137.3772 2.4057
" />
<path d="M137.3772 2.4057
L137.2563 2.4662
" />
<path d="M138.5867 3.3733
L138.8286 3.3733
" />
<path d="M138.8286 3.3733
L138.9496 3.3129
" />
<path d="M138.9496 3.3129
L139.0100 3.2524
" />
<path d="M139.0100 3.2524
L139.1310 3.0709
" />
<path d="M139.1310 3.0709
L139.1915 2.8290
" />
<path d="M139.1915 2.8290
L139.1915 2.3452
" />
<path d="M139.1915 2.3452
L139.1310 2.2243
" />
<path d="M139.1310 2.2243
L139.0705 2.1638
" />
<path d="M139.0705 2.1638
L138.9496 2.1033
" />
<path d="M138.9496 2.1033
L138.7077 2.1033
" />
<path d="M138.7077 2.1033
L138.5867 2.1638
" />
<path d="M138.5867 2.1638
L138.5262 2.2243
" />
<path d="M138.5262 2.2243
L138.4658 2.3452
" />
<path d="M138.4658 2.3452
L138.4658 2.6476
" />
<path d="M138.4658 2.6476
L138.5262 2.7686
" />
<path d="M138.5262 2.7686
L138.5867 2.8290
" />
<path d="M138.5867 2.8290
L138.7077 2.8895
" />
<path d="M138.7077 2.8895
L138.9496 2.8895
" />
<path d="M138.9496 2.8895
L139.0705 2.8290
" />
<path d="M139.0705 2.8290
L139.1310 2.7686
" />
<path d="M139.1310 2.7686
L139.1915 2.6476
" />
<path d="M139.6148 2.1033
L140.4614 2.1033
" />
<path d="M140.4614 2.1033
L139.9172 3.3733
" />
<path d="M140.8243 2.1033
L141.6709 2.1033
" />
<path d="M141.6709 2.1033
L141.1267 3.3733
" />
<path d="M142.5781 2.7081
L142.7595 2.7686
" />
<path d="M142.7595 2.7686
L142.8200 2.8290
" />
<path d="M142.8200 2.8290
L142.8804 2.9500
" />
<path d="M142.8804 2.9500
L142.8804 3.1314
" />
<path d="M142.8804 3.1314
L142.8200 3.2524
" />
<path d="M142.8200 3.2524
L142.7595 3.3129
" />
<path d="M142.7595 3.3129
L142.6385 3.3733
" />
<path d="M142.6385 3.3733
L142.1547 3.3733
" />
<path d="M142.1547 3.3733
L142.1547 2.1033
" />
<path d="M142.1547 2.1033
L142.5781 2.1033
" />
<path d="M142.5781 2.1033
L142.6990 2.1638
" />
<path d="M142.6990 2.1638
L142.7595 2.2243
" />
<path d="M142.7595 2.2243
L142.8200 2.3452
" />
<path d="M142.8200 2.3452
L142.8200 2.4662
" />
<path d="M142.8200 2.4662
L142.7595 2.5871
" />
<path d="M142.7595 2.5871
L142.6990 2.6476
" />
<path d="M142.6990 2.6476
L142.5781 2.7081
" />
<path d="M142.5781 2.7081
L142.1547 2.7081
" />
<path d="M143.4247 3.2524
L143.4852 3.3129
" />
<path d="M143.4852 3.3129
L143.4247 3.3733
" />
<path d="M143.4247 3.3733
L143.3643 3.3129
" />
<path d="M143.3643 3.3129
L143.4247 3.2524
" />
<path d="M143.4247 3.2524
L143.4247 3.3733
" />
<path d="M144.0295 2.5267
L144.0295 3.7967
" />
<path d="M144.0295 2.5871
L144.1505 2.5267
" />
<path d="M144.1505 2.5267
L144.3924 2.5267
" />
<path d="M144.3924 2.5267
L144.5133 2.5871
" />
<path d="M144.5133 2.5871
L144.5738 2.6476
" />
<path d="M144.5738 2.6476
L144.6343 2.7686
" />
<path d="M144.6343 2.7686
L144.6343 3.1314
" />
<path d="M144.6343 3.1314
L144.5738 3.2524
" />
<path d="M144.5738 3.2524
L144.5133 3.3129
" />
<path d="M144.5133 3.3129
L144.3924 3.3733
" />
<path d="M144.3924 3.3733
L144.1505 3.3733
" />
<path d="M144.1505 3.3733
L144.0295 3.3129
" />
<path d="M145.7228 3.3733
L145.7228 2.1033
" />
<path d="M145.7228 3.3129
L145.6019 3.3733
" />
<path d="M145.6019 3.3733
L145.3600 3.3733
" />
<path d="M145.3600 3.3733
L145.2390 3.3129
" />
<path d="M145.2390 3.3129
L145.1785 3.2524
" />
<path d="M145.1785 3.2524
L145.1181 3.1314
" />
<path d="M145.1181 3.1314
L145.1181 2.7686
" />
<path d="M145.1181 2.7686
L145.1785 2.6476
" />
<path d="M145.1785 2.6476
L145.2390 2.5871
" />
<path d="M145.2390 2.5871
L145.3600 2.5267
" />
<path d="M145.3600 2.5267
L145.6019 2.5267
" />
<path d="M145.6019 2.5267
L145.7228 2.5871
" />
<path d="M146.1461 2.5267
L146.6299 2.5267
" />
<path d="M146.3275 3.3733
L146.3275 2.2848
" />
<path d="M146.3275 2.2848
L146.3880 2.1638
" />
<path d="M146.3880 2.1638
L146.5090 2.1033
" />
<path d="M146.5090 2.1033
L146.6299 2.1033
" />
</g></g> 
</svg>
