<?xml version="1.0" standalone="no"?>
 <!DOCTYPE svg PUBLIC "-//W3C//DTD SVG 1.1//EN" 
 "http://www.w3.org/Graphics/SVG/1.1/DTD/svg11.dtd"> 
<svg
  xmlns:svg="http://www.w3.org/2000/svg"
  xmlns="http://www.w3.org/2000/svg"
  xmlns:xlink="http://www.w3.org/1999/xlink"
  version="1.1"
  width="72.0344mm" height="13.1318mm" viewBox="0.0000 0.0000 72.0344 13.1318">
<title>SVG Image created as working.svg date 2023/08/13 19:40:31 </title>
  <desc>Image generated by Eeschema-SVG </desc>
<g style="fill:#000000; fill-opacity:1.0000;stroke:#000000; stroke-opacity:1.0000;
stroke-linecap:round; stroke-linejoin:round;"
 transform="translate(0 0) scale(1 1)">
</g>
<g style="fill:#840000; fill-opacity:0.0; 
stroke:#840000; stroke-width:0.0000; stroke-opacity:1; 
stroke-linecap:round; stroke-linejoin:round;">
</g>
<g style="fill:#840084; fill-opacity:0.0; 
stroke:#840084; stroke-width:0.0000; stroke-opacity:1; 
stroke-linecap:round; stroke-linejoin:round;">
</g>
<g style="fill:#840000; fill-opacity:0.0; 
stroke:#840000; stroke-width:0.0000; stroke-opacity:1; 
stroke-linecap:round; stroke-linejoin:round;">
</g>
<g style="fill:#840084; fill-opacity:0.0; 
stroke:#840084; stroke-width:0.0000; stroke-opacity:1; 
stroke-linecap:round; stroke-linejoin:round;">
</g>
<g style="fill:#006464; fill-opacity:0.0; 
stroke:#006464; stroke-width:0.0000; stroke-opacity:1; 
stroke-linecap:round; stroke-linejoin:round;">
</g>
<g style="fill:#006464; fill-opacity:0.0; 
stroke:#006464; stroke-width:0.1588; stroke-opacity:1; 
stroke-linecap:round; stroke-linejoin:round;">
<text x="29.7205" y="2.7499"
textLength="2.6415" font-size="1.6933" lengthAdjust="spacingAndGlyphs"
text-anchor="middle" opacity="0">U?</text>
<g class="stroked-text"><desc>U?</desc>
<path d="M28.8133 1.4241
L28.8133 2.4522
" />
<path d="M28.8133 2.4522
L28.8738 2.5732
" />
<path d="M28.8738 2.5732
L28.9343 2.6337
" />
<path d="M28.9343 2.6337
L29.0552 2.6941
" />
<path d="M29.0552 2.6941
L29.2971 2.6941
" />
<path d="M29.2971 2.6941
L29.4181 2.6337
" />
<path d="M29.4181 2.6337
L29.4786 2.5732
" />
<path d="M29.4786 2.5732
L29.5390 2.4522
" />
<path d="M29.5390 2.4522
L29.5390 1.4241
" />
<path d="M30.3253 2.5732
L30.3857 2.6337
" />
<path d="M30.3857 2.6337
L30.3253 2.6941
" />
<path d="M30.3253 2.6941
L30.2648 2.6337
" />
<path d="M30.2648 2.6337
L30.3253 2.5732
" />
<path d="M30.3253 2.5732
L30.3253 2.6941
" />
<path d="M30.0834 1.4846
L30.2043 1.4241
" />
<path d="M30.2043 1.4241
L30.5067 1.4241
" />
<path d="M30.5067 1.4241
L30.6276 1.4846
" />
<path d="M30.6276 1.4846
L30.6881 1.6056
" />
<path d="M30.6881 1.6056
L30.6881 1.7265
" />
<path d="M30.6881 1.7265
L30.6276 1.8475
" />
<path d="M30.6276 1.8475
L30.5672 1.9079
" />
<path d="M30.5672 1.9079
L30.4462 1.9684
" />
<path d="M30.4462 1.9684
L30.3857 2.0289
" />
<path d="M30.3857 2.0289
L30.3253 2.1498
" />
<path d="M30.3253 2.1498
L30.3253 2.2103
" />
</g><text x="44.2045" y="2.7499"
textLength="13.8294" font-size="1.6933" lengthAdjust="spacingAndGlyphs"
text-anchor="middle" opacity="0">NCP1200P100</text>
<g class="stroked-text"><desc>NCP1200P100</desc>
<path d="M37.7033 2.6941
L37.7033 1.4241
" />
<path d="M37.7033 1.4241
L38.4290 2.6941
" />
<path d="M38.4290 2.6941
L38.4290 1.4241
" />
<path d="M39.7595 2.5732
L39.6991 2.6337
" />
<path d="M39.6991 2.6337
L39.5176 2.6941
" />
<path d="M39.5176 2.6941
L39.3967 2.6941
" />
<path d="M39.3967 2.6941
L39.2153 2.6337
" />
<path d="M39.2153 2.6337
L39.0943 2.5127
" />
<path d="M39.0943 2.5127
L39.0338 2.3917
" />
<path d="M39.0338 2.3917
L38.9734 2.1498
" />
<path d="M38.9734 2.1498
L38.9734 1.9684
" />
<path d="M38.9734 1.9684
L39.0338 1.7265
" />
<path d="M39.0338 1.7265
L39.0943 1.6056
" />
<path d="M39.0943 1.6056
L39.2153 1.4846
" />
<path d="M39.2153 1.4846
L39.3967 1.4241
" />
<path d="M39.3967 1.4241
L39.5176 1.4241
" />
<path d="M39.5176 1.4241
L39.6991 1.4846
" />
<path d="M39.6991 1.4846
L39.7595 1.5451
" />
<path d="M40.3038 2.6941
L40.3038 1.4241
" />
<path d="M40.3038 1.4241
L40.7876 1.4241
" />
<path d="M40.7876 1.4241
L40.9086 1.4846
" />
<path d="M40.9086 1.4846
L40.9691 1.5451
" />
<path d="M40.9691 1.5451
L41.0295 1.6660
" />
<path d="M41.0295 1.6660
L41.0295 1.8475
" />
<path d="M41.0295 1.8475
L40.9691 1.9684
" />
<path d="M40.9691 1.9684
L40.9086 2.0289
" />
<path d="M40.9086 2.0289
L40.7876 2.0894
" />
<path d="M40.7876 2.0894
L40.3038 2.0894
" />
<path d="M42.2391 2.6941
L41.5134 2.6941
" />
<path d="M41.8762 2.6941
L41.8762 1.4241
" />
<path d="M41.8762 1.4241
L41.7553 1.6056
" />
<path d="M41.7553 1.6056
L41.6343 1.7265
" />
<path d="M41.6343 1.7265
L41.5134 1.7870
" />
<path d="M42.7229 1.5451
L42.7833 1.4846
" />
<path d="M42.7833 1.4846
L42.9043 1.4241
" />
<path d="M42.9043 1.4241
L43.2067 1.4241
" />
<path d="M43.2067 1.4241
L43.3276 1.4846
" />
<path d="M43.3276 1.4846
L43.3881 1.5451
" />
<path d="M43.3881 1.5451
L43.4486 1.6660
" />
<path d="M43.4486 1.6660
L43.4486 1.7870
" />
<path d="M43.4486 1.7870
L43.3881 1.9684
" />
<path d="M43.3881 1.9684
L42.6624 2.6941
" />
<path d="M42.6624 2.6941
L43.4486 2.6941
" />
<path d="M44.2347 1.4241
L44.3557 1.4241
" />
<path d="M44.3557 1.4241
L44.4766 1.4846
" />
<path d="M44.4766 1.4846
L44.5371 1.5451
" />
<path d="M44.5371 1.5451
L44.5976 1.6660
" />
<path d="M44.5976 1.6660
L44.6581 1.9079
" />
<path d="M44.6581 1.9079
L44.6581 2.2103
" />
<path d="M44.6581 2.2103
L44.5976 2.4522
" />
<path d="M44.5976 2.4522
L44.5371 2.5732
" />
<path d="M44.5371 2.5732
L44.4766 2.6337
" />
<path d="M44.4766 2.6337
L44.3557 2.6941
" />
<path d="M44.3557 2.6941
L44.2347 2.6941
" />
<path d="M44.2347 2.6941
L44.1138 2.6337
" />
<path d="M44.1138 2.6337
L44.0533 2.5732
" />
<path d="M44.0533 2.5732
L43.9928 2.4522
" />
<path d="M43.9928 2.4522
L43.9324 2.2103
" />
<path d="M43.9324 2.2103
L43.9324 1.9079
" />
<path d="M43.9324 1.9079
L43.9928 1.6660
" />
<path d="M43.9928 1.6660
L44.0533 1.5451
" />
<path d="M44.0533 1.5451
L44.1138 1.4846
" />
<path d="M44.1138 1.4846
L44.2347 1.4241
" />
<path d="M45.4442 1.4241
L45.5652 1.4241
" />
<path d="M45.5652 1.4241
L45.6861 1.4846
" />
<path d="M45.6861 1.4846
L45.7466 1.5451
" />
<path d="M45.7466 1.5451
L45.8071 1.6660
" />
<path d="M45.8071 1.6660
L45.8676 1.9079
" />
<path d="M45.8676 1.9079
L45.8676 2.2103
" />
<path d="M45.8676 2.2103
L45.8071 2.4522
" />
<path d="M45.8071 2.4522
L45.7466 2.5732
" />
<path d="M45.7466 2.5732
L45.6861 2.6337
" />
<path d="M45.6861 2.6337
L45.5652 2.6941
" />
<path d="M45.5652 2.6941
L45.4442 2.6941
" />
<path d="M45.4442 2.6941
L45.3233 2.6337
" />
<path d="M45.3233 2.6337
L45.2628 2.5732
" />
<path d="M45.2628 2.5732
L45.2023 2.4522
" />
<path d="M45.2023 2.4522
L45.1419 2.2103
" />
<path d="M45.1419 2.2103
L45.1419 1.9079
" />
<path d="M45.1419 1.9079
L45.2023 1.6660
" />
<path d="M45.2023 1.6660
L45.2628 1.5451
" />
<path d="M45.2628 1.5451
L45.3233 1.4846
" />
<path d="M45.3233 1.4846
L45.4442 1.4241
" />
<path d="M46.4118 2.6941
L46.4118 1.4241
" />
<path d="M46.4118 1.4241
L46.8956 1.4241
" />
<path d="M46.8956 1.4241
L47.0166 1.4846
" />
<path d="M47.0166 1.4846
L47.0771 1.5451
" />
<path d="M47.0771 1.5451
L47.1375 1.6660
" />
<path d="M47.1375 1.6660
L47.1375 1.8475
" />
<path d="M47.1375 1.8475
L47.0771 1.9684
" />
<path d="M47.0771 1.9684
L47.0166 2.0289
" />
<path d="M47.0166 2.0289
L46.8956 2.0894
" />
<path d="M46.8956 2.0894
L46.4118 2.0894
" />
<path d="M48.3471 2.6941
L47.6214 2.6941
" />
<path d="M47.9842 2.6941
L47.9842 1.4241
" />
<path d="M47.9842 1.4241
L47.8633 1.6056
" />
<path d="M47.8633 1.6056
L47.7423 1.7265
" />
<path d="M47.7423 1.7265
L47.6214 1.7870
" />
<path d="M49.1332 1.4241
L49.2542 1.4241
" />
<path d="M49.2542 1.4241
L49.3751 1.4846
" />
<path d="M49.3751 1.4846
L49.4356 1.5451
" />
<path d="M49.4356 1.5451
L49.4961 1.6660
" />
<path d="M49.4961 1.6660
L49.5566 1.9079
" />
<path d="M49.5566 1.9079
L49.5566 2.2103
" />
<path d="M49.5566 2.2103
L49.4961 2.4522
" />
<path d="M49.4961 2.4522
L49.4356 2.5732
" />
<path d="M49.4356 2.5732
L49.3751 2.6337
" />
<path d="M49.3751 2.6337
L49.2542 2.6941
" />
<path d="M49.2542 2.6941
L49.1332 2.6941
" />
<path d="M49.1332 2.6941
L49.0123 2.6337
" />
<path d="M49.0123 2.6337
L48.9518 2.5732
" />
<path d="M48.9518 2.5732
L48.8913 2.4522
" />
<path d="M48.8913 2.4522
L48.8309 2.2103
" />
<path d="M48.8309 2.2103
L48.8309 1.9079
" />
<path d="M48.8309 1.9079
L48.8913 1.6660
" />
<path d="M48.8913 1.6660
L48.9518 1.5451
" />
<path d="M48.9518 1.5451
L49.0123 1.4846
" />
<path d="M49.0123 1.4846
L49.1332 1.4241
" />
<path d="M50.3427 1.4241
L50.4637 1.4241
" />
<path d="M50.4637 1.4241
L50.5846 1.4846
" />
<path d="M50.5846 1.4846
L50.6451 1.5451
" />
<path d="M50.6451 1.5451
L50.7056 1.6660
" />
<path d="M50.7056 1.6660
L50.7661 1.9079
" />
<path d="M50.7661 1.9079
L50.7661 2.2103
" />
<path d="M50.7661 2.2103
L50.7056 2.4522
" />
<path d="M50.7056 2.4522
L50.6451 2.5732
" />
<path d="M50.6451 2.5732
L50.5846 2.6337
" />
<path d="M50.5846 2.6337
L50.4637 2.6941
" />
<path d="M50.4637 2.6941
L50.3427 2.6941
" />
<path d="M50.3427 2.6941
L50.2218 2.6337
" />
<path d="M50.2218 2.6337
L50.1613 2.5732
" />
<path d="M50.1613 2.5732
L50.1008 2.4522
" />
<path d="M50.1008 2.4522
L50.0404 2.2103
" />
<path d="M50.0404 2.2103
L50.0404 1.9079
" />
<path d="M50.0404 1.9079
L50.1008 1.6660
" />
<path d="M50.1008 1.6660
L50.1613 1.5451
" />
<path d="M50.1613 1.5451
L50.2218 1.4846
" />
<path d="M50.2218 1.4846
L50.3427 1.4241
" />
</g></g>
<g style="fill:#840084; fill-opacity:0.0; 
stroke:#840084; stroke-width:0.1588; stroke-opacity:1; 
stroke-linecap:round; stroke-linejoin:round;">
<text x="36.0992" y="11.6399"
textLength="28.8275" font-size="1.6933" lengthAdjust="spacingAndGlyphs"
text-anchor="middle" opacity="0">Package_DIP:DIP-8_W7.62mm</text>
<g class="stroked-text"><desc>Package_DIP:DIP-8_W7.62mm</desc>
<path d="M22.0915 11.5841
L22.2502 10.3141
" />
<path d="M22.2502 10.3141
L22.7340 10.3141
" />
<path d="M22.7340 10.3141
L22.8474 10.3746
" />
<path d="M22.8474 10.3746
L22.9003 10.4351
" />
<path d="M22.9003 10.4351
L22.9457 10.5560
" />
<path d="M22.9457 10.5560
L22.9230 10.7375
" />
<path d="M22.9230 10.7375
L22.8474 10.8584
" />
<path d="M22.8474 10.8584
L22.7794 10.9189
" />
<path d="M22.7794 10.9189
L22.6509 10.9794
" />
<path d="M22.6509 10.9794
L22.1671 10.9794
" />
<path d="M23.9058 11.5841
L23.9889 10.9189
" />
<path d="M23.9889 10.9189
L23.9436 10.7979
" />
<path d="M23.9436 10.7979
L23.8302 10.7375
" />
<path d="M23.8302 10.7375
L23.5883 10.7375
" />
<path d="M23.5883 10.7375
L23.4597 10.7979
" />
<path d="M23.9133 11.5237
L23.7848 11.5841
" />
<path d="M23.7848 11.5841
L23.4824 11.5841
" />
<path d="M23.4824 11.5841
L23.3690 11.5237
" />
<path d="M23.3690 11.5237
L23.3237 11.4027
" />
<path d="M23.3237 11.4027
L23.3388 11.2817
" />
<path d="M23.3388 11.2817
L23.4144 11.1608
" />
<path d="M23.4144 11.1608
L23.5429 11.1003
" />
<path d="M23.5429 11.1003
L23.8453 11.1003
" />
<path d="M23.8453 11.1003
L23.9738 11.0398
" />
<path d="M25.0623 11.5237
L24.9338 11.5841
" />
<path d="M24.9338 11.5841
L24.6919 11.5841
" />
<path d="M24.6919 11.5841
L24.5785 11.5237
" />
<path d="M24.5785 11.5237
L24.5256 11.4632
" />
<path d="M24.5256 11.4632
L24.4802 11.3422
" />
<path d="M24.4802 11.3422
L24.5256 10.9794
" />
<path d="M24.5256 10.9794
L24.6012 10.8584
" />
<path d="M24.6012 10.8584
L24.6692 10.7979
" />
<path d="M24.6692 10.7979
L24.7977 10.7375
" />
<path d="M24.7977 10.7375
L25.0396 10.7375
" />
<path d="M25.0396 10.7375
L25.1530 10.7979
" />
<path d="M25.5991 11.5841
L25.7578 10.3141
" />
<path d="M25.7805 11.1003
L26.0829 11.5841
" />
<path d="M26.1887 10.7375
L25.6444 11.2213
" />
<path d="M27.1715 11.5841
L27.2546 10.9189
" />
<path d="M27.2546 10.9189
L27.2093 10.7979
" />
<path d="M27.2093 10.7979
L27.0959 10.7375
" />
<path d="M27.0959 10.7375
L26.8540 10.7375
" />
<path d="M26.8540 10.7375
L26.7254 10.7979
" />
<path d="M27.1790 11.5237
L27.0505 11.5841
" />
<path d="M27.0505 11.5841
L26.7481 11.5841
" />
<path d="M26.7481 11.5841
L26.6347 11.5237
" />
<path d="M26.6347 11.5237
L26.5894 11.4027
" />
<path d="M26.5894 11.4027
L26.6045 11.2817
" />
<path d="M26.6045 11.2817
L26.6801 11.1608
" />
<path d="M26.6801 11.1608
L26.8086 11.1003
" />
<path d="M26.8086 11.1003
L27.1110 11.1003
" />
<path d="M27.1110 11.1003
L27.2395 11.0398
" />
<path d="M28.4263 10.7375
L28.2978 11.7656
" />
<path d="M28.2978 11.7656
L28.2222 11.8865
" />
<path d="M28.2222 11.8865
L28.1541 11.9470
" />
<path d="M28.1541 11.9470
L28.0256 12.0075
" />
<path d="M28.0256 12.0075
L27.8442 12.0075
" />
<path d="M27.8442 12.0075
L27.7308 11.9470
" />
<path d="M28.3280 11.5237
L28.1995 11.5841
" />
<path d="M28.1995 11.5841
L27.9576 11.5841
" />
<path d="M27.9576 11.5841
L27.8442 11.5237
" />
<path d="M27.8442 11.5237
L27.7913 11.4632
" />
<path d="M27.7913 11.4632
L27.7459 11.3422
" />
<path d="M27.7459 11.3422
L27.7913 10.9794
" />
<path d="M27.7913 10.9794
L27.8669 10.8584
" />
<path d="M27.8669 10.8584
L27.9349 10.7979
" />
<path d="M27.9349 10.7979
L28.0634 10.7375
" />
<path d="M28.0634 10.7375
L28.3053 10.7375
" />
<path d="M28.3053 10.7375
L28.4187 10.7979
" />
<path d="M29.4165 11.5237
L29.2880 11.5841
" />
<path d="M29.2880 11.5841
L29.0461 11.5841
" />
<path d="M29.0461 11.5841
L28.9327 11.5237
" />
<path d="M28.9327 11.5237
L28.8874 11.4027
" />
<path d="M28.8874 11.4027
L28.9479 10.9189
" />
<path d="M28.9479 10.9189
L29.0234 10.7979
" />
<path d="M29.0234 10.7979
L29.1520 10.7375
" />
<path d="M29.1520 10.7375
L29.3939 10.7375
" />
<path d="M29.3939 10.7375
L29.5073 10.7979
" />
<path d="M29.5073 10.7979
L29.5526 10.9189
" />
<path d="M29.5526 10.9189
L29.5375 11.0398
" />
<path d="M29.5375 11.0398
L28.9176 11.1608
" />
<path d="M29.6963 11.7051
L30.6639 11.7051
" />
<path d="M30.9814 11.5841
L31.1401 10.3141
" />
<path d="M31.1401 10.3141
L31.4425 10.3141
" />
<path d="M31.4425 10.3141
L31.6164 10.3746
" />
<path d="M31.6164 10.3746
L31.7222 10.4956
" />
<path d="M31.7222 10.4956
L31.7676 10.6165
" />
<path d="M31.7676 10.6165
L31.7978 10.8584
" />
<path d="M31.7978 10.8584
L31.7751 11.0398
" />
<path d="M31.7751 11.0398
L31.6844 11.2817
" />
<path d="M31.6844 11.2817
L31.6088 11.4027
" />
<path d="M31.6088 11.4027
L31.4727 11.5237
" />
<path d="M31.4727 11.5237
L31.2838 11.5841
" />
<path d="M31.2838 11.5841
L30.9814 11.5841
" />
<path d="M32.2514 11.5841
L32.4101 10.3141
" />
<path d="M32.8562 11.5841
L33.0149 10.3141
" />
<path d="M33.0149 10.3141
L33.4987 10.3141
" />
<path d="M33.4987 10.3141
L33.6121 10.3746
" />
<path d="M33.6121 10.3746
L33.6650 10.4351
" />
<path d="M33.6650 10.4351
L33.7104 10.5560
" />
<path d="M33.7104 10.5560
L33.6877 10.7375
" />
<path d="M33.6877 10.7375
L33.6121 10.8584
" />
<path d="M33.6121 10.8584
L33.5441 10.9189
" />
<path d="M33.5441 10.9189
L33.4156 10.9794
" />
<path d="M33.4156 10.9794
L32.9318 10.9794
" />
<path d="M34.1413 11.4632
L34.1942 11.5237
" />
<path d="M34.1942 11.5237
L34.1262 11.5841
" />
<path d="M34.1262 11.5841
L34.0733 11.5237
" />
<path d="M34.0733 11.5237
L34.1413 11.4632
" />
<path d="M34.1413 11.4632
L34.1262 11.5841
" />
<path d="M34.2244 10.7979
L34.2774 10.8584
" />
<path d="M34.2774 10.8584
L34.2093 10.9189
" />
<path d="M34.2093 10.9189
L34.1564 10.8584
" />
<path d="M34.1564 10.8584
L34.2244 10.7979
" />
<path d="M34.2244 10.7979
L34.2093 10.9189
" />
<path d="M34.7310 11.5841
L34.8897 10.3141
" />
<path d="M34.8897 10.3141
L35.1921 10.3141
" />
<path d="M35.1921 10.3141
L35.3660 10.3746
" />
<path d="M35.3660 10.3746
L35.4718 10.4956
" />
<path d="M35.4718 10.4956
L35.5172 10.6165
" />
<path d="M35.5172 10.6165
L35.5474 10.8584
" />
<path d="M35.5474 10.8584
L35.5247 11.0398
" />
<path d="M35.5247 11.0398
L35.4340 11.2817
" />
<path d="M35.4340 11.2817
L35.3584 11.4027
" />
<path d="M35.3584 11.4027
L35.2223 11.5237
" />
<path d="M35.2223 11.5237
L35.0334 11.5841
" />
<path d="M35.0334 11.5841
L34.7310 11.5841
" />
<path d="M36.0010 11.5841
L36.1597 10.3141
" />
<path d="M36.6058 11.5841
L36.7645 10.3141
" />
<path d="M36.7645 10.3141
L37.2483 10.3141
" />
<path d="M37.2483 10.3141
L37.3617 10.3746
" />
<path d="M37.3617 10.3746
L37.4146 10.4351
" />
<path d="M37.4146 10.4351
L37.4600 10.5560
" />
<path d="M37.4600 10.5560
L37.4373 10.7375
" />
<path d="M37.4373 10.7375
L37.3617 10.8584
" />
<path d="M37.3617 10.8584
L37.2937 10.9189
" />
<path d="M37.2937 10.9189
L37.1652 10.9794
" />
<path d="M37.1652 10.9794
L36.6814 10.9794
" />
<path d="M37.9362 11.1003
L38.9039 11.1003
" />
<path d="M39.7203 10.8584
L39.6069 10.7979
" />
<path d="M39.6069 10.7979
L39.5540 10.7375
" />
<path d="M39.5540 10.7375
L39.5086 10.6165
" />
<path d="M39.5086 10.6165
L39.5162 10.5560
" />
<path d="M39.5162 10.5560
L39.5918 10.4351
" />
<path d="M39.5918 10.4351
L39.6598 10.3746
" />
<path d="M39.6598 10.3746
L39.7884 10.3141
" />
<path d="M39.7884 10.3141
L40.0303 10.3141
" />
<path d="M40.0303 10.3141
L40.1436 10.3746
" />
<path d="M40.1436 10.3746
L40.1966 10.4351
" />
<path d="M40.1966 10.4351
L40.2419 10.5560
" />
<path d="M40.2419 10.5560
L40.2344 10.6165
" />
<path d="M40.2344 10.6165
L40.1588 10.7375
" />
<path d="M40.1588 10.7375
L40.0907 10.7979
" />
<path d="M40.0907 10.7979
L39.9622 10.8584
" />
<path d="M39.9622 10.8584
L39.7203 10.8584
" />
<path d="M39.7203 10.8584
L39.5918 10.9189
" />
<path d="M39.5918 10.9189
L39.5238 10.9794
" />
<path d="M39.5238 10.9794
L39.4482 11.1003
" />
<path d="M39.4482 11.1003
L39.4179 11.3422
" />
<path d="M39.4179 11.3422
L39.4633 11.4632
" />
<path d="M39.4633 11.4632
L39.5162 11.5237
" />
<path d="M39.5162 11.5237
L39.6296 11.5841
" />
<path d="M39.6296 11.5841
L39.8715 11.5841
" />
<path d="M39.8715 11.5841
L40.0000 11.5237
" />
<path d="M40.0000 11.5237
L40.0681 11.4632
" />
<path d="M40.0681 11.4632
L40.1436 11.3422
" />
<path d="M40.1436 11.3422
L40.1739 11.1003
" />
<path d="M40.1739 11.1003
L40.1285 10.9794
" />
<path d="M40.1285 10.9794
L40.0756 10.9189
" />
<path d="M40.0756 10.9189
L39.9622 10.8584
" />
<path d="M40.3402 11.7051
L41.3078 11.7051
" />
<path d="M41.6631 10.3141
L41.8067 11.5841
" />
<path d="M41.8067 11.5841
L42.1620 10.6770
" />
<path d="M42.1620 10.6770
L42.2905 11.5841
" />
<path d="M42.2905 11.5841
L42.7516 10.3141
" />
<path d="M43.1145 10.3141
L43.9611 10.3141
" />
<path d="M43.9611 10.3141
L43.2581 11.5841
" />
<path d="M44.3013 11.4632
L44.3542 11.5237
" />
<path d="M44.3542 11.5237
L44.2862 11.5841
" />
<path d="M44.2862 11.5841
L44.2333 11.5237
" />
<path d="M44.2333 11.5237
L44.3013 11.4632
" />
<path d="M44.3013 11.4632
L44.2862 11.5841
" />
<path d="M45.5940 10.3141
L45.3521 10.3141
" />
<path d="M45.3521 10.3141
L45.2236 10.3746
" />
<path d="M45.2236 10.3746
L45.1556 10.4351
" />
<path d="M45.1556 10.4351
L45.0119 10.6165
" />
<path d="M45.0119 10.6165
L44.9212 10.8584
" />
<path d="M44.9212 10.8584
L44.8607 11.3422
" />
<path d="M44.8607 11.3422
L44.9061 11.4632
" />
<path d="M44.9061 11.4632
L44.9590 11.5237
" />
<path d="M44.9590 11.5237
L45.0724 11.5841
" />
<path d="M45.0724 11.5841
L45.3143 11.5841
" />
<path d="M45.3143 11.5841
L45.4428 11.5237
" />
<path d="M45.4428 11.5237
L45.5109 11.4632
" />
<path d="M45.5109 11.4632
L45.5864 11.3422
" />
<path d="M45.5864 11.3422
L45.6242 11.0398
" />
<path d="M45.6242 11.0398
L45.5789 10.9189
" />
<path d="M45.5789 10.9189
L45.5260 10.8584
" />
<path d="M45.5260 10.8584
L45.4126 10.7979
" />
<path d="M45.4126 10.7979
L45.1707 10.7979
" />
<path d="M45.1707 10.7979
L45.0422 10.8584
" />
<path d="M45.0422 10.8584
L44.9741 10.9189
" />
<path d="M44.9741 10.9189
L44.8985 11.0398
" />
<path d="M46.1836 10.4351
L46.2517 10.3746
" />
<path d="M46.2517 10.3746
L46.3802 10.3141
" />
<path d="M46.3802 10.3141
L46.6826 10.3141
" />
<path d="M46.6826 10.3141
L46.7959 10.3746
" />
<path d="M46.7959 10.3746
L46.8489 10.4351
" />
<path d="M46.8489 10.4351
L46.8942 10.5560
" />
<path d="M46.8942 10.5560
L46.8791 10.6770
" />
<path d="M46.8791 10.6770
L46.7959 10.8584
" />
<path d="M46.7959 10.8584
L45.9795 11.5841
" />
<path d="M45.9795 11.5841
L46.7657 11.5841
" />
<path d="M47.3100 11.5841
L47.4158 10.7375
" />
<path d="M47.4007 10.8584
L47.4687 10.7979
" />
<path d="M47.4687 10.7979
L47.5972 10.7375
" />
<path d="M47.5972 10.7375
L47.7787 10.7375
" />
<path d="M47.7787 10.7375
L47.8921 10.7979
" />
<path d="M47.8921 10.7979
L47.9374 10.9189
" />
<path d="M47.9374 10.9189
L47.8543 11.5841
" />
<path d="M47.9374 10.9189
L48.0130 10.7979
" />
<path d="M48.0130 10.7979
L48.1415 10.7375
" />
<path d="M48.1415 10.7375
L48.3229 10.7375
" />
<path d="M48.3229 10.7375
L48.4363 10.7979
" />
<path d="M48.4363 10.7979
L48.4817 10.9189
" />
<path d="M48.4817 10.9189
L48.3985 11.5841
" />
<path d="M49.0033 11.5841
L49.1091 10.7375
" />
<path d="M49.0940 10.8584
L49.1620 10.7979
" />
<path d="M49.1620 10.7979
L49.2905 10.7375
" />
<path d="M49.2905 10.7375
L49.4720 10.7375
" />
<path d="M49.4720 10.7375
L49.5854 10.7979
" />
<path d="M49.5854 10.7979
L49.6307 10.9189
" />
<path d="M49.6307 10.9189
L49.5476 11.5841
" />
<path d="M49.6307 10.9189
L49.7063 10.7979
" />
<path d="M49.7063 10.7979
L49.8348 10.7375
" />
<path d="M49.8348 10.7375
L50.0162 10.7375
" />
<path d="M50.0162 10.7375
L50.1296 10.7979
" />
<path d="M50.1296 10.7979
L50.1750 10.9189
" />
<path d="M50.1750 10.9189
L50.0918 11.5841
" />
</g><text x="36.0198" y="11.6399"
textLength="60.0330" font-size="1.6933" lengthAdjust="spacingAndGlyphs"
text-anchor="middle" opacity="0">http://www.onsemi.com/pub_link/Collateral/NCP1200-D.PDF</text>
<g class="stroked-text"><desc>http://www.onsemi.com/pub_link/Collateral/NCP1200-D.PDF</desc>
<path d="M6.4168 11.5841
L6.4168 10.3141
" />
<path d="M6.9611 11.5841
L6.9611 10.9189
" />
<path d="M6.9611 10.9189
L6.9006 10.7979
" />
<path d="M6.9006 10.7979
L6.7797 10.7375
" />
<path d="M6.7797 10.7375
L6.5983 10.7375
" />
<path d="M6.5983 10.7375
L6.4773 10.7979
" />
<path d="M6.4773 10.7979
L6.4168 10.8584
" />
<path d="M7.3844 10.7375
L7.8682 10.7375
" />
<path d="M7.5658 10.3141
L7.5658 11.4027
" />
<path d="M7.5658 11.4027
L7.6263 11.5237
" />
<path d="M7.6263 11.5237
L7.7473 11.5841
" />
<path d="M7.7473 11.5841
L7.8682 11.5841
" />
<path d="M8.1101 10.7375
L8.5939 10.7375
" />
<path d="M8.2915 10.3141
L8.2915 11.4027
" />
<path d="M8.2915 11.4027
L8.3520 11.5237
" />
<path d="M8.3520 11.5237
L8.4730 11.5841
" />
<path d="M8.4730 11.5841
L8.5939 11.5841
" />
<path d="M9.0172 10.7375
L9.0172 12.0075
" />
<path d="M9.0172 10.7979
L9.1382 10.7375
" />
<path d="M9.1382 10.7375
L9.3801 10.7375
" />
<path d="M9.3801 10.7375
L9.5010 10.7979
" />
<path d="M9.5010 10.7979
L9.5615 10.8584
" />
<path d="M9.5615 10.8584
L9.6220 10.9794
" />
<path d="M9.6220 10.9794
L9.6220 11.3422
" />
<path d="M9.6220 11.3422
L9.5615 11.4632
" />
<path d="M9.5615 11.4632
L9.5010 11.5237
" />
<path d="M9.5010 11.5237
L9.3801 11.5841
" />
<path d="M9.3801 11.5841
L9.1382 11.5841
" />
<path d="M9.1382 11.5841
L9.0172 11.5237
" />
<path d="M10.1662 11.4632
L10.2267 11.5237
" />
<path d="M10.2267 11.5237
L10.1662 11.5841
" />
<path d="M10.1662 11.5841
L10.1058 11.5237
" />
<path d="M10.1058 11.5237
L10.1662 11.4632
" />
<path d="M10.1662 11.4632
L10.1662 11.5841
" />
<path d="M10.1662 10.7979
L10.2267 10.8584
" />
<path d="M10.2267 10.8584
L10.1662 10.9189
" />
<path d="M10.1662 10.9189
L10.1058 10.8584
" />
<path d="M10.1058 10.8584
L10.1662 10.7979
" />
<path d="M10.1662 10.7979
L10.1662 10.9189
" />
<path d="M11.6782 10.2537
L10.5896 11.8865
" />
<path d="M13.0087 10.2537
L11.9201 11.8865
" />
<path d="M13.3111 10.7375
L13.5530 11.5841
" />
<path d="M13.5530 11.5841
L13.7949 10.9794
" />
<path d="M13.7949 10.9794
L14.0368 11.5841
" />
<path d="M14.0368 11.5841
L14.2787 10.7375
" />
<path d="M14.6416 10.7375
L14.8835 11.5841
" />
<path d="M14.8835 11.5841
L15.1254 10.9794
" />
<path d="M15.1254 10.9794
L15.3673 11.5841
" />
<path d="M15.3673 11.5841
L15.6092 10.7375
" />
<path d="M15.9721 10.7375
L16.2140 11.5841
" />
<path d="M16.2140 11.5841
L16.4559 10.9794
" />
<path d="M16.4559 10.9794
L16.6978 11.5841
" />
<path d="M16.6978 11.5841
L16.9397 10.7375
" />
<path d="M17.4235 11.4632
L17.4840 11.5237
" />
<path d="M17.4840 11.5237
L17.4235 11.5841
" />
<path d="M17.4235 11.5841
L17.3631 11.5237
" />
<path d="M17.3631 11.5237
L17.4235 11.4632
" />
<path d="M17.4235 11.4632
L17.4235 11.5841
" />
<path d="M18.2098 11.5841
L18.0888 11.5237
" />
<path d="M18.0888 11.5237
L18.0283 11.4632
" />
<path d="M18.0283 11.4632
L17.9679 11.3422
" />
<path d="M17.9679 11.3422
L17.9679 10.9794
" />
<path d="M17.9679 10.9794
L18.0283 10.8584
" />
<path d="M18.0283 10.8584
L18.0888 10.7979
" />
<path d="M18.0888 10.7979
L18.2098 10.7375
" />
<path d="M18.2098 10.7375
L18.3912 10.7375
" />
<path d="M18.3912 10.7375
L18.5121 10.7979
" />
<path d="M18.5121 10.7979
L18.5726 10.8584
" />
<path d="M18.5726 10.8584
L18.6331 10.9794
" />
<path d="M18.6331 10.9794
L18.6331 11.3422
" />
<path d="M18.6331 11.3422
L18.5726 11.4632
" />
<path d="M18.5726 11.4632
L18.5121 11.5237
" />
<path d="M18.5121 11.5237
L18.3912 11.5841
" />
<path d="M18.3912 11.5841
L18.2098 11.5841
" />
<path d="M19.1773 10.7375
L19.1773 11.5841
" />
<path d="M19.1773 10.8584
L19.2378 10.7979
" />
<path d="M19.2378 10.7979
L19.3588 10.7375
" />
<path d="M19.3588 10.7375
L19.5402 10.7375
" />
<path d="M19.5402 10.7375
L19.6611 10.7979
" />
<path d="M19.6611 10.7979
L19.7216 10.9189
" />
<path d="M19.7216 10.9189
L19.7216 11.5841
" />
<path d="M20.2659 11.5237
L20.3868 11.5841
" />
<path d="M20.3868 11.5841
L20.6287 11.5841
" />
<path d="M20.6287 11.5841
L20.7497 11.5237
" />
<path d="M20.7497 11.5237
L20.8101 11.4027
" />
<path d="M20.8101 11.4027
L20.8101 11.3422
" />
<path d="M20.8101 11.3422
L20.7497 11.2213
" />
<path d="M20.7497 11.2213
L20.6287 11.1608
" />
<path d="M20.6287 11.1608
L20.4473 11.1608
" />
<path d="M20.4473 11.1608
L20.3263 11.1003
" />
<path d="M20.3263 11.1003
L20.2659 10.9794
" />
<path d="M20.2659 10.9794
L20.2659 10.9189
" />
<path d="M20.2659 10.9189
L20.3263 10.7979
" />
<path d="M20.3263 10.7979
L20.4473 10.7375
" />
<path d="M20.4473 10.7375
L20.6287 10.7375
" />
<path d="M20.6287 10.7375
L20.7497 10.7979
" />
<path d="M21.8382 11.5237
L21.7173 11.5841
" />
<path d="M21.7173 11.5841
L21.4754 11.5841
" />
<path d="M21.4754 11.5841
L21.3544 11.5237
" />
<path d="M21.3544 11.5237
L21.2940 11.4027
" />
<path d="M21.2940 11.4027
L21.2940 10.9189
" />
<path d="M21.2940 10.9189
L21.3544 10.7979
" />
<path d="M21.3544 10.7979
L21.4754 10.7375
" />
<path d="M21.4754 10.7375
L21.7173 10.7375
" />
<path d="M21.7173 10.7375
L21.8382 10.7979
" />
<path d="M21.8382 10.7979
L21.8987 10.9189
" />
<path d="M21.8987 10.9189
L21.8987 11.0398
" />
<path d="M21.8987 11.0398
L21.2940 11.1608
" />
<path d="M22.4430 11.5841
L22.4430 10.7375
" />
<path d="M22.4430 10.8584
L22.5035 10.7979
" />
<path d="M22.5035 10.7979
L22.6245 10.7375
" />
<path d="M22.6245 10.7375
L22.8059 10.7375
" />
<path d="M22.8059 10.7375
L22.9268 10.7979
" />
<path d="M22.9268 10.7979
L22.9873 10.9189
" />
<path d="M22.9873 10.9189
L22.9873 11.5841
" />
<path d="M22.9873 10.9189
L23.0478 10.7979
" />
<path d="M23.0478 10.7979
L23.1687 10.7375
" />
<path d="M23.1687 10.7375
L23.3502 10.7375
" />
<path d="M23.3502 10.7375
L23.4711 10.7979
" />
<path d="M23.4711 10.7979
L23.5316 10.9189
" />
<path d="M23.5316 10.9189
L23.5316 11.5841
" />
<path d="M24.1363 11.5841
L24.1363 10.7375
" />
<path d="M24.1363 10.3141
L24.0759 10.3746
" />
<path d="M24.0759 10.3746
L24.1363 10.4351
" />
<path d="M24.1363 10.4351
L24.1968 10.3746
" />
<path d="M24.1968 10.3746
L24.1363 10.3141
" />
<path d="M24.1363 10.3141
L24.1363 10.4351
" />
<path d="M24.7411 11.4632
L24.8016 11.5237
" />
<path d="M24.8016 11.5237
L24.7411 11.5841
" />
<path d="M24.7411 11.5841
L24.6807 11.5237
" />
<path d="M24.6807 11.5237
L24.7411 11.4632
" />
<path d="M24.7411 11.4632
L24.7411 11.5841
" />
<path d="M25.8902 11.5237
L25.7693 11.5841
" />
<path d="M25.7693 11.5841
L25.5274 11.5841
" />
<path d="M25.5274 11.5841
L25.4064 11.5237
" />
<path d="M25.4064 11.5237
L25.3459 11.4632
" />
<path d="M25.3459 11.4632
L25.2855 11.3422
" />
<path d="M25.2855 11.3422
L25.2855 10.9794
" />
<path d="M25.2855 10.9794
L25.3459 10.8584
" />
<path d="M25.3459 10.8584
L25.4064 10.7979
" />
<path d="M25.4064 10.7979
L25.5274 10.7375
" />
<path d="M25.5274 10.7375
L25.7693 10.7375
" />
<path d="M25.7693 10.7375
L25.8902 10.7979
" />
<path d="M26.6160 11.5841
L26.4950 11.5237
" />
<path d="M26.4950 11.5237
L26.4345 11.4632
" />
<path d="M26.4345 11.4632
L26.3741 11.3422
" />
<path d="M26.3741 11.3422
L26.3741 10.9794
" />
<path d="M26.3741 10.9794
L26.4345 10.8584
" />
<path d="M26.4345 10.8584
L26.4950 10.7979
" />
<path d="M26.4950 10.7979
L26.6160 10.7375
" />
<path d="M26.6160 10.7375
L26.7974 10.7375
" />
<path d="M26.7974 10.7375
L26.9183 10.7979
" />
<path d="M26.9183 10.7979
L26.9788 10.8584
" />
<path d="M26.9788 10.8584
L27.0393 10.9794
" />
<path d="M27.0393 10.9794
L27.0393 11.3422
" />
<path d="M27.0393 11.3422
L26.9788 11.4632
" />
<path d="M26.9788 11.4632
L26.9183 11.5237
" />
<path d="M26.9183 11.5237
L26.7974 11.5841
" />
<path d="M26.7974 11.5841
L26.6160 11.5841
" />
<path d="M27.5835 11.5841
L27.5835 10.7375
" />
<path d="M27.5835 10.8584
L27.6440 10.7979
" />
<path d="M27.6440 10.7979
L27.7650 10.7375
" />
<path d="M27.7650 10.7375
L27.9464 10.7375
" />
<path d="M27.9464 10.7375
L28.0673 10.7979
" />
<path d="M28.0673 10.7979
L28.1278 10.9189
" />
<path d="M28.1278 10.9189
L28.1278 11.5841
" />
<path d="M28.1278 10.9189
L28.1883 10.7979
" />
<path d="M28.1883 10.7979
L28.3092 10.7375
" />
<path d="M28.3092 10.7375
L28.4907 10.7375
" />
<path d="M28.4907 10.7375
L28.6116 10.7979
" />
<path d="M28.6116 10.7979
L28.6721 10.9189
" />
<path d="M28.6721 10.9189
L28.6721 11.5841
" />
<path d="M30.1840 10.2537
L29.0954 11.8865
" />
<path d="M30.6073 10.7375
L30.6073 12.0075
" />
<path d="M30.6073 10.7979
L30.7283 10.7375
" />
<path d="M30.7283 10.7375
L30.9702 10.7375
" />
<path d="M30.9702 10.7375
L31.0911 10.7979
" />
<path d="M31.0911 10.7979
L31.1516 10.8584
" />
<path d="M31.1516 10.8584
L31.2121 10.9794
" />
<path d="M31.2121 10.9794
L31.2121 11.3422
" />
<path d="M31.2121 11.3422
L31.1516 11.4632
" />
<path d="M31.1516 11.4632
L31.0911 11.5237
" />
<path d="M31.0911 11.5237
L30.9702 11.5841
" />
<path d="M30.9702 11.5841
L30.7283 11.5841
" />
<path d="M30.7283 11.5841
L30.6073 11.5237
" />
<path d="M32.3006 10.7375
L32.3006 11.5841
" />
<path d="M31.7563 10.7375
L31.7563 11.4027
" />
<path d="M31.7563 11.4027
L31.8168 11.5237
" />
<path d="M31.8168 11.5237
L31.9378 11.5841
" />
<path d="M31.9378 11.5841
L32.1192 11.5841
" />
<path d="M32.1192 11.5841
L32.2401 11.5237
" />
<path d="M32.2401 11.5237
L32.3006 11.4632
" />
<path d="M32.9053 11.5841
L32.9053 10.3141
" />
<path d="M32.9053 10.7979
L33.0263 10.7375
" />
<path d="M33.0263 10.7375
L33.2682 10.7375
" />
<path d="M33.2682 10.7375
L33.3891 10.7979
" />
<path d="M33.3891 10.7979
L33.4496 10.8584
" />
<path d="M33.4496 10.8584
L33.5101 10.9794
" />
<path d="M33.5101 10.9794
L33.5101 11.3422
" />
<path d="M33.5101 11.3422
L33.4496 11.4632
" />
<path d="M33.4496 11.4632
L33.3891 11.5237
" />
<path d="M33.3891 11.5237
L33.2682 11.5841
" />
<path d="M33.2682 11.5841
L33.0263 11.5841
" />
<path d="M33.0263 11.5841
L32.9053 11.5237
" />
<path d="M33.7520 11.7051
L34.7196 11.7051
" />
<path d="M35.2034 11.5841
L35.0824 11.5237
" />
<path d="M35.0824 11.5237
L35.0219 11.4027
" />
<path d="M35.0219 11.4027
L35.0219 10.3141
" />
<path d="M35.6871 11.5841
L35.6871 10.7375
" />
<path d="M35.6871 10.3141
L35.6267 10.3746
" />
<path d="M35.6267 10.3746
L35.6871 10.4351
" />
<path d="M35.6871 10.4351
L35.7476 10.3746
" />
<path d="M35.7476 10.3746
L35.6871 10.3141
" />
<path d="M35.6871 10.3141
L35.6871 10.4351
" />
<path d="M36.2919 10.7375
L36.2919 11.5841
" />
<path d="M36.2919 10.8584
L36.3524 10.7979
" />
<path d="M36.3524 10.7979
L36.4734 10.7375
" />
<path d="M36.4734 10.7375
L36.6548 10.7375
" />
<path d="M36.6548 10.7375
L36.7757 10.7979
" />
<path d="M36.7757 10.7979
L36.8362 10.9189
" />
<path d="M36.8362 10.9189
L36.8362 11.5841
" />
<path d="M37.4409 11.5841
L37.4409 10.3141
" />
<path d="M37.5619 11.1003
L37.9247 11.5841
" />
<path d="M37.9247 10.7375
L37.4409 11.2213
" />
<path d="M39.3762 10.2537
L38.2876 11.8865
" />
<path d="M40.5252 11.4632
L40.4648 11.5237
" />
<path d="M40.4648 11.5237
L40.2833 11.5841
" />
<path d="M40.2833 11.5841
L40.1624 11.5841
" />
<path d="M40.1624 11.5841
L39.9810 11.5237
" />
<path d="M39.9810 11.5237
L39.8600 11.4027
" />
<path d="M39.8600 11.4027
L39.7995 11.2817
" />
<path d="M39.7995 11.2817
L39.7391 11.0398
" />
<path d="M39.7391 11.0398
L39.7391 10.8584
" />
<path d="M39.7391 10.8584
L39.7995 10.6165
" />
<path d="M39.7995 10.6165
L39.8600 10.4956
" />
<path d="M39.8600 10.4956
L39.9810 10.3746
" />
<path d="M39.9810 10.3746
L40.1624 10.3141
" />
<path d="M40.1624 10.3141
L40.2833 10.3141
" />
<path d="M40.2833 10.3141
L40.4648 10.3746
" />
<path d="M40.4648 10.3746
L40.5252 10.4351
" />
<path d="M41.2510 11.5841
L41.1300 11.5237
" />
<path d="M41.1300 11.5237
L41.0695 11.4632
" />
<path d="M41.0695 11.4632
L41.0091 11.3422
" />
<path d="M41.0091 11.3422
L41.0091 10.9794
" />
<path d="M41.0091 10.9794
L41.0695 10.8584
" />
<path d="M41.0695 10.8584
L41.1300 10.7979
" />
<path d="M41.1300 10.7979
L41.2510 10.7375
" />
<path d="M41.2510 10.7375
L41.4324 10.7375
" />
<path d="M41.4324 10.7375
L41.5533 10.7979
" />
<path d="M41.5533 10.7979
L41.6138 10.8584
" />
<path d="M41.6138 10.8584
L41.6743 10.9794
" />
<path d="M41.6743 10.9794
L41.6743 11.3422
" />
<path d="M41.6743 11.3422
L41.6138 11.4632
" />
<path d="M41.6138 11.4632
L41.5533 11.5237
" />
<path d="M41.5533 11.5237
L41.4324 11.5841
" />
<path d="M41.4324 11.5841
L41.2510 11.5841
" />
<path d="M42.4000 11.5841
L42.2790 11.5237
" />
<path d="M42.2790 11.5237
L42.2185 11.4027
" />
<path d="M42.2185 11.4027
L42.2185 10.3141
" />
<path d="M43.0652 11.5841
L42.9442 11.5237
" />
<path d="M42.9442 11.5237
L42.8837 11.4027
" />
<path d="M42.8837 11.4027
L42.8837 10.3141
" />
<path d="M44.0932 11.5841
L44.0932 10.9189
" />
<path d="M44.0932 10.9189
L44.0327 10.7979
" />
<path d="M44.0327 10.7979
L43.9118 10.7375
" />
<path d="M43.9118 10.7375
L43.6699 10.7375
" />
<path d="M43.6699 10.7375
L43.5489 10.7979
" />
<path d="M44.0932 11.5237
L43.9723 11.5841
" />
<path d="M43.9723 11.5841
L43.6699 11.5841
" />
<path d="M43.6699 11.5841
L43.5489 11.5237
" />
<path d="M43.5489 11.5237
L43.4885 11.4027
" />
<path d="M43.4885 11.4027
L43.4885 11.2817
" />
<path d="M43.4885 11.2817
L43.5489 11.1608
" />
<path d="M43.5489 11.1608
L43.6699 11.1003
" />
<path d="M43.6699 11.1003
L43.9723 11.1003
" />
<path d="M43.9723 11.1003
L44.0932 11.0398
" />
<path d="M44.5165 10.7375
L45.0003 10.7375
" />
<path d="M44.6979 10.3141
L44.6979 11.4027
" />
<path d="M44.6979 11.4027
L44.7584 11.5237
" />
<path d="M44.7584 11.5237
L44.8794 11.5841
" />
<path d="M44.8794 11.5841
L45.0003 11.5841
" />
<path d="M45.9074 11.5237
L45.7865 11.5841
" />
<path d="M45.7865 11.5841
L45.5446 11.5841
" />
<path d="M45.5446 11.5841
L45.4236 11.5237
" />
<path d="M45.4236 11.5237
L45.3632 11.4027
" />
<path d="M45.3632 11.4027
L45.3632 10.9189
" />
<path d="M45.3632 10.9189
L45.4236 10.7979
" />
<path d="M45.4236 10.7979
L45.5446 10.7375
" />
<path d="M45.5446 10.7375
L45.7865 10.7375
" />
<path d="M45.7865 10.7375
L45.9074 10.7979
" />
<path d="M45.9074 10.7979
L45.9679 10.9189
" />
<path d="M45.9679 10.9189
L45.9679 11.0398
" />
<path d="M45.9679 11.0398
L45.3632 11.1608
" />
<path d="M46.5122 11.5841
L46.5122 10.7375
" />
<path d="M46.5122 10.9794
L46.5727 10.8584
" />
<path d="M46.5727 10.8584
L46.6332 10.7979
" />
<path d="M46.6332 10.7979
L46.7541 10.7375
" />
<path d="M46.7541 10.7375
L46.8751 10.7375
" />
<path d="M47.8427 11.5841
L47.8427 10.9189
" />
<path d="M47.8427 10.9189
L47.7822 10.7979
" />
<path d="M47.7822 10.7979
L47.6613 10.7375
" />
<path d="M47.6613 10.7375
L47.4194 10.7375
" />
<path d="M47.4194 10.7375
L47.2984 10.7979
" />
<path d="M47.8427 11.5237
L47.7218 11.5841
" />
<path d="M47.7218 11.5841
L47.4194 11.5841
" />
<path d="M47.4194 11.5841
L47.2984 11.5237
" />
<path d="M47.2984 11.5237
L47.2380 11.4027
" />
<path d="M47.2380 11.4027
L47.2380 11.2817
" />
<path d="M47.2380 11.2817
L47.2984 11.1608
" />
<path d="M47.2984 11.1608
L47.4194 11.1003
" />
<path d="M47.4194 11.1003
L47.7218 11.1003
" />
<path d="M47.7218 11.1003
L47.8427 11.0398
" />
<path d="M48.6289 11.5841
L48.5079 11.5237
" />
<path d="M48.5079 11.5237
L48.4474 11.4027
" />
<path d="M48.4474 11.4027
L48.4474 10.3141
" />
<path d="M50.0198 10.2537
L48.9312 11.8865
" />
<path d="M50.4431 11.5841
L50.4431 10.3141
" />
<path d="M50.4431 10.3141
L51.1688 11.5841
" />
<path d="M51.1688 11.5841
L51.1688 10.3141
" />
<path d="M52.4993 11.4632
L52.4389 11.5237
" />
<path d="M52.4389 11.5237
L52.2574 11.5841
" />
<path d="M52.2574 11.5841
L52.1365 11.5841
" />
<path d="M52.1365 11.5841
L51.9551 11.5237
" />
<path d="M51.9551 11.5237
L51.8341 11.4027
" />
<path d="M51.8341 11.4027
L51.7736 11.2817
" />
<path d="M51.7736 11.2817
L51.7132 11.0398
" />
<path d="M51.7132 11.0398
L51.7132 10.8584
" />
<path d="M51.7132 10.8584
L51.7736 10.6165
" />
<path d="M51.7736 10.6165
L51.8341 10.4956
" />
<path d="M51.8341 10.4956
L51.9551 10.3746
" />
<path d="M51.9551 10.3746
L52.1365 10.3141
" />
<path d="M52.1365 10.3141
L52.2574 10.3141
" />
<path d="M52.2574 10.3141
L52.4389 10.3746
" />
<path d="M52.4389 10.3746
L52.4993 10.4351
" />
<path d="M53.0436 11.5841
L53.0436 10.3141
" />
<path d="M53.0436 10.3141
L53.5274 10.3141
" />
<path d="M53.5274 10.3141
L53.6484 10.3746
" />
<path d="M53.6484 10.3746
L53.7089 10.4351
" />
<path d="M53.7089 10.4351
L53.7693 10.5560
" />
<path d="M53.7693 10.5560
L53.7693 10.7375
" />
<path d="M53.7693 10.7375
L53.7089 10.8584
" />
<path d="M53.7089 10.8584
L53.6484 10.9189
" />
<path d="M53.6484 10.9189
L53.5274 10.9794
" />
<path d="M53.5274 10.9794
L53.0436 10.9794
" />
<path d="M54.9789 11.5841
L54.2532 11.5841
" />
<path d="M54.6160 11.5841
L54.6160 10.3141
" />
<path d="M54.6160 10.3141
L54.4951 10.4956
" />
<path d="M54.4951 10.4956
L54.3741 10.6165
" />
<path d="M54.3741 10.6165
L54.2532 10.6770
" />
<path d="M55.4627 10.4351
L55.5231 10.3746
" />
<path d="M55.5231 10.3746
L55.6441 10.3141
" />
<path d="M55.6441 10.3141
L55.9465 10.3141
" />
<path d="M55.9465 10.3141
L56.0674 10.3746
" />
<path d="M56.0674 10.3746
L56.1279 10.4351
" />
<path d="M56.1279 10.4351
L56.1884 10.5560
" />
<path d="M56.1884 10.5560
L56.1884 10.6770
" />
<path d="M56.1884 10.6770
L56.1279 10.8584
" />
<path d="M56.1279 10.8584
L55.4022 11.5841
" />
<path d="M55.4022 11.5841
L56.1884 11.5841
" />
<path d="M56.9745 10.3141
L57.0955 10.3141
" />
<path d="M57.0955 10.3141
L57.2164 10.3746
" />
<path d="M57.2164 10.3746
L57.2769 10.4351
" />
<path d="M57.2769 10.4351
L57.3374 10.5560
" />
<path d="M57.3374 10.5560
L57.3979 10.7979
" />
<path d="M57.3979 10.7979
L57.3979 11.1003
" />
<path d="M57.3979 11.1003
L57.3374 11.3422
" />
<path d="M57.3374 11.3422
L57.2769 11.4632
" />
<path d="M57.2769 11.4632
L57.2164 11.5237
" />
<path d="M57.2164 11.5237
L57.0955 11.5841
" />
<path d="M57.0955 11.5841
L56.9745 11.5841
" />
<path d="M56.9745 11.5841
L56.8536 11.5237
" />
<path d="M56.8536 11.5237
L56.7931 11.4632
" />
<path d="M56.7931 11.4632
L56.7326 11.3422
" />
<path d="M56.7326 11.3422
L56.6722 11.1003
" />
<path d="M56.6722 11.1003
L56.6722 10.7979
" />
<path d="M56.6722 10.7979
L56.7326 10.5560
" />
<path d="M56.7326 10.5560
L56.7931 10.4351
" />
<path d="M56.7931 10.4351
L56.8536 10.3746
" />
<path d="M56.8536 10.3746
L56.9745 10.3141
" />
<path d="M58.1840 10.3141
L58.3050 10.3141
" />
<path d="M58.3050 10.3141
L58.4259 10.3746
" />
<path d="M58.4259 10.3746
L58.4864 10.4351
" />
<path d="M58.4864 10.4351
L58.5469 10.5560
" />
<path d="M58.5469 10.5560
L58.6074 10.7979
" />
<path d="M58.6074 10.7979
L58.6074 11.1003
" />
<path d="M58.6074 11.1003
L58.5469 11.3422
" />
<path d="M58.5469 11.3422
L58.4864 11.4632
" />
<path d="M58.4864 11.4632
L58.4259 11.5237
" />
<path d="M58.4259 11.5237
L58.3050 11.5841
" />
<path d="M58.3050 11.5841
L58.1840 11.5841
" />
<path d="M58.1840 11.5841
L58.0631 11.5237
" />
<path d="M58.0631 11.5237
L58.0026 11.4632
" />
<path d="M58.0026 11.4632
L57.9421 11.3422
" />
<path d="M57.9421 11.3422
L57.8817 11.1003
" />
<path d="M57.8817 11.1003
L57.8817 10.7979
" />
<path d="M57.8817 10.7979
L57.9421 10.5560
" />
<path d="M57.9421 10.5560
L58.0026 10.4351
" />
<path d="M58.0026 10.4351
L58.0631 10.3746
" />
<path d="M58.0631 10.3746
L58.1840 10.3141
" />
<path d="M59.1516 11.1003
L60.1193 11.1003
" />
<path d="M60.7240 11.5841
L60.7240 10.3141
" />
<path d="M60.7240 10.3141
L61.0264 10.3141
" />
<path d="M61.0264 10.3141
L61.2078 10.3746
" />
<path d="M61.2078 10.3746
L61.3288 10.4956
" />
<path d="M61.3288 10.4956
L61.3893 10.6165
" />
<path d="M61.3893 10.6165
L61.4497 10.8584
" />
<path d="M61.4497 10.8584
L61.4497 11.0398
" />
<path d="M61.4497 11.0398
L61.3893 11.2817
" />
<path d="M61.3893 11.2817
L61.3288 11.4027
" />
<path d="M61.3288 11.4027
L61.2078 11.5237
" />
<path d="M61.2078 11.5237
L61.0264 11.5841
" />
<path d="M61.0264 11.5841
L60.7240 11.5841
" />
<path d="M61.9940 11.4632
L62.0545 11.5237
" />
<path d="M62.0545 11.5237
L61.9940 11.5841
" />
<path d="M61.9940 11.5841
L61.9336 11.5237
" />
<path d="M61.9336 11.5237
L61.9940 11.4632
" />
<path d="M61.9940 11.4632
L61.9940 11.5841
" />
<path d="M62.5988 11.5841
L62.5988 10.3141
" />
<path d="M62.5988 10.3141
L63.0826 10.3141
" />
<path d="M63.0826 10.3141
L63.2036 10.3746
" />
<path d="M63.2036 10.3746
L63.2641 10.4351
" />
<path d="M63.2641 10.4351
L63.3245 10.5560
" />
<path d="M63.3245 10.5560
L63.3245 10.7375
" />
<path d="M63.3245 10.7375
L63.2641 10.8584
" />
<path d="M63.2641 10.8584
L63.2036 10.9189
" />
<path d="M63.2036 10.9189
L63.0826 10.9794
" />
<path d="M63.0826 10.9794
L62.5988 10.9794
" />
<path d="M63.8688 11.5841
L63.8688 10.3141
" />
<path d="M63.8688 10.3141
L64.1712 10.3141
" />
<path d="M64.1712 10.3141
L64.3526 10.3746
" />
<path d="M64.3526 10.3746
L64.4736 10.4956
" />
<path d="M64.4736 10.4956
L64.5341 10.6165
" />
<path d="M64.5341 10.6165
L64.5945 10.8584
" />
<path d="M64.5945 10.8584
L64.5945 11.0398
" />
<path d="M64.5945 11.0398
L64.5341 11.2817
" />
<path d="M64.5341 11.2817
L64.4736 11.4027
" />
<path d="M64.4736 11.4027
L64.3526 11.5237
" />
<path d="M64.3526 11.5237
L64.1712 11.5841
" />
<path d="M64.1712 11.5841
L63.8688 11.5841
" />
<path d="M65.5622 10.9189
L65.1388 10.9189
" />
<path d="M65.1388 11.5841
L65.1388 10.3141
" />
<path d="M65.1388 10.3141
L65.7436 10.3141
" />
</g></g> 
</svg>
