<?xml version="1.0" standalone="no"?>
 <!DOCTYPE svg PUBLIC "-//W3C//DTD SVG 1.1//EN" 
 "http://www.w3.org/Graphics/SVG/1.1/DTD/svg11.dtd"> 
<svg
  xmlns:svg="http://www.w3.org/2000/svg"
  xmlns="http://www.w3.org/2000/svg"
  xmlns:xlink="http://www.w3.org/1999/xlink"
  version="1.1"
  width="78.7400mm" height="42.0878mm" viewBox="0.0000 0.0000 78.7400 42.0878">
<title>SVG Image created as working.svg date 2023/08/27 02:01:17 </title>
  <desc>Image generated by Eeschema-SVG </desc>
<g style="fill:#000000; fill-opacity:1.0000;stroke:#000000; stroke-opacity:1.0000;
stroke-linecap:round; stroke-linejoin:round;"
 transform="translate(0 0) scale(1 1)">
</g>
<g style="fill:#840000; fill-opacity:0.0; 
stroke:#840000; stroke-width:0.0000; stroke-opacity:1; 
stroke-linecap:round; stroke-linejoin:round;">
</g>
<g style="fill:#840084; fill-opacity:0.0; 
stroke:#840084; stroke-width:0.0000; stroke-opacity:1; 
stroke-linecap:round; stroke-linejoin:round;">
</g>
<g style="fill:#840000; fill-opacity:0.0; 
stroke:#840000; stroke-width:0.0000; stroke-opacity:1; 
stroke-linecap:round; stroke-linejoin:round;">
</g>
<g style="fill:#840084; fill-opacity:0.0; 
stroke:#840084; stroke-width:0.0000; stroke-opacity:1; 
stroke-linecap:round; stroke-linejoin:round;">
</g>
<g style="fill:#006464; fill-opacity:0.0; 
stroke:#006464; stroke-width:0.0000; stroke-opacity:1; 
stroke-linecap:round; stroke-linejoin:round;">
</g>
<g style="fill:#006464; fill-opacity:0.0; 
stroke:#006464; stroke-width:0.1588; stroke-opacity:1; 
stroke-linecap:round; stroke-linejoin:round;">
<text x="31.4180" y="5.1629"
textLength="2.6415" font-size="1.6933" lengthAdjust="spacingAndGlyphs"
text-anchor="middle" opacity="0">U?</text>
<g class="stroked-text"><desc>U?</desc>
<path d="M30.5108 3.8371
L30.5108 4.8652
" />
<path d="M30.5108 4.8652
L30.5713 4.9862
" />
<path d="M30.5713 4.9862
L30.6318 5.0467
" />
<path d="M30.6318 5.0467
L30.7527 5.1071
" />
<path d="M30.7527 5.1071
L30.9946 5.1071
" />
<path d="M30.9946 5.1071
L31.1156 5.0467
" />
<path d="M31.1156 5.0467
L31.1761 4.9862
" />
<path d="M31.1761 4.9862
L31.2365 4.8652
" />
<path d="M31.2365 4.8652
L31.2365 3.8371
" />
<path d="M32.0228 4.9862
L32.0832 5.0467
" />
<path d="M32.0832 5.0467
L32.0228 5.1071
" />
<path d="M32.0228 5.1071
L31.9623 5.0467
" />
<path d="M31.9623 5.0467
L32.0228 4.9862
" />
<path d="M32.0228 4.9862
L32.0228 5.1071
" />
<path d="M31.7809 3.8976
L31.9018 3.8371
" />
<path d="M31.9018 3.8371
L32.2042 3.8371
" />
<path d="M32.2042 3.8371
L32.3251 3.8976
" />
<path d="M32.3251 3.8976
L32.3856 4.0186
" />
<path d="M32.3856 4.0186
L32.3856 4.1395
" />
<path d="M32.3856 4.1395
L32.3251 4.2605
" />
<path d="M32.3251 4.2605
L32.2647 4.3209
" />
<path d="M32.2647 4.3209
L32.1437 4.3814
" />
<path d="M32.1437 4.3814
L32.0832 4.4419
" />
<path d="M32.0832 4.4419
L32.0228 4.5628
" />
<path d="M32.0228 4.5628
L32.0228 4.6233
" />
</g><text x="58.0880" y="38.1829"
textLength="17.8813" font-size="1.6933" lengthAdjust="spacingAndGlyphs"
text-anchor="middle" opacity="0">MSP430F2012IRSA</text>
<g class="stroked-text"><desc>MSP430F2012IRSA</desc>
<path d="M49.5609 38.1271
L49.5609 36.8571
" />
<path d="M49.5609 36.8571
L49.9843 37.7643
" />
<path d="M49.9843 37.7643
L50.4076 36.8571
" />
<path d="M50.4076 36.8571
L50.4076 38.1271
" />
<path d="M50.9519 38.0667
L51.1333 38.1271
" />
<path d="M51.1333 38.1271
L51.4357 38.1271
" />
<path d="M51.4357 38.1271
L51.5566 38.0667
" />
<path d="M51.5566 38.0667
L51.6171 38.0062
" />
<path d="M51.6171 38.0062
L51.6776 37.8852
" />
<path d="M51.6776 37.8852
L51.6776 37.7643
" />
<path d="M51.6776 37.7643
L51.6171 37.6433
" />
<path d="M51.6171 37.6433
L51.5566 37.5828
" />
<path d="M51.5566 37.5828
L51.4357 37.5224
" />
<path d="M51.4357 37.5224
L51.1938 37.4619
" />
<path d="M51.1938 37.4619
L51.0728 37.4014
" />
<path d="M51.0728 37.4014
L51.0123 37.3409
" />
<path d="M51.0123 37.3409
L50.9519 37.2200
" />
<path d="M50.9519 37.2200
L50.9519 37.0990
" />
<path d="M50.9519 37.0990
L51.0123 36.9781
" />
<path d="M51.0123 36.9781
L51.0728 36.9176
" />
<path d="M51.0728 36.9176
L51.1938 36.8571
" />
<path d="M51.1938 36.8571
L51.4961 36.8571
" />
<path d="M51.4961 36.8571
L51.6776 36.9176
" />
<path d="M52.2218 38.1271
L52.2218 36.8571
" />
<path d="M52.2218 36.8571
L52.7056 36.8571
" />
<path d="M52.7056 36.8571
L52.8266 36.9176
" />
<path d="M52.8266 36.9176
L52.8871 36.9781
" />
<path d="M52.8871 36.9781
L52.9475 37.0990
" />
<path d="M52.9475 37.0990
L52.9475 37.2805
" />
<path d="M52.9475 37.2805
L52.8871 37.4014
" />
<path d="M52.8871 37.4014
L52.8266 37.4619
" />
<path d="M52.8266 37.4619
L52.7056 37.5224
" />
<path d="M52.7056 37.5224
L52.2218 37.5224
" />
<path d="M54.0361 37.2805
L54.0361 38.1271
" />
<path d="M53.7337 36.7967
L53.4314 37.7038
" />
<path d="M53.4314 37.7038
L54.2175 37.7038
" />
<path d="M54.5804 36.8571
L55.3666 36.8571
" />
<path d="M55.3666 36.8571
L54.9432 37.3409
" />
<path d="M54.9432 37.3409
L55.1247 37.3409
" />
<path d="M55.1247 37.3409
L55.2456 37.4014
" />
<path d="M55.2456 37.4014
L55.3061 37.4619
" />
<path d="M55.3061 37.4619
L55.3666 37.5828
" />
<path d="M55.3666 37.5828
L55.3666 37.8852
" />
<path d="M55.3666 37.8852
L55.3061 38.0062
" />
<path d="M55.3061 38.0062
L55.2456 38.0667
" />
<path d="M55.2456 38.0667
L55.1247 38.1271
" />
<path d="M55.1247 38.1271
L54.7618 38.1271
" />
<path d="M54.7618 38.1271
L54.6409 38.0667
" />
<path d="M54.6409 38.0667
L54.5804 38.0062
" />
<path d="M56.1527 36.8571
L56.2737 36.8571
" />
<path d="M56.2737 36.8571
L56.3946 36.9176
" />
<path d="M56.3946 36.9176
L56.4551 36.9781
" />
<path d="M56.4551 36.9781
L56.5156 37.0990
" />
<path d="M56.5156 37.0990
L56.5761 37.3409
" />
<path d="M56.5761 37.3409
L56.5761 37.6433
" />
<path d="M56.5761 37.6433
L56.5156 37.8852
" />
<path d="M56.5156 37.8852
L56.4551 38.0062
" />
<path d="M56.4551 38.0062
L56.3946 38.0667
" />
<path d="M56.3946 38.0667
L56.2737 38.1271
" />
<path d="M56.2737 38.1271
L56.1527 38.1271
" />
<path d="M56.1527 38.1271
L56.0318 38.0667
" />
<path d="M56.0318 38.0667
L55.9713 38.0062
" />
<path d="M55.9713 38.0062
L55.9108 37.8852
" />
<path d="M55.9108 37.8852
L55.8504 37.6433
" />
<path d="M55.8504 37.6433
L55.8504 37.3409
" />
<path d="M55.8504 37.3409
L55.9108 37.0990
" />
<path d="M55.9108 37.0990
L55.9713 36.9781
" />
<path d="M55.9713 36.9781
L56.0318 36.9176
" />
<path d="M56.0318 36.9176
L56.1527 36.8571
" />
<path d="M57.5437 37.4619
L57.1203 37.4619
" />
<path d="M57.1203 38.1271
L57.1203 36.8571
" />
<path d="M57.1203 36.8571
L57.7251 36.8571
" />
<path d="M58.1485 36.9781
L58.2089 36.9176
" />
<path d="M58.2089 36.9176
L58.3299 36.8571
" />
<path d="M58.3299 36.8571
L58.6323 36.8571
" />
<path d="M58.6323 36.8571
L58.7532 36.9176
" />
<path d="M58.7532 36.9176
L58.8137 36.9781
" />
<path d="M58.8137 36.9781
L58.8742 37.0990
" />
<path d="M58.8742 37.0990
L58.8742 37.2200
" />
<path d="M58.8742 37.2200
L58.8137 37.4014
" />
<path d="M58.8137 37.4014
L58.0880 38.1271
" />
<path d="M58.0880 38.1271
L58.8742 38.1271
" />
<path d="M59.6603 36.8571
L59.7813 36.8571
" />
<path d="M59.7813 36.8571
L59.9022 36.9176
" />
<path d="M59.9022 36.9176
L59.9627 36.9781
" />
<path d="M59.9627 36.9781
L60.0232 37.0990
" />
<path d="M60.0232 37.0990
L60.0837 37.3409
" />
<path d="M60.0837 37.3409
L60.0837 37.6433
" />
<path d="M60.0837 37.6433
L60.0232 37.8852
" />
<path d="M60.0232 37.8852
L59.9627 38.0062
" />
<path d="M59.9627 38.0062
L59.9022 38.0667
" />
<path d="M59.9022 38.0667
L59.7813 38.1271
" />
<path d="M59.7813 38.1271
L59.6603 38.1271
" />
<path d="M59.6603 38.1271
L59.5394 38.0667
" />
<path d="M59.5394 38.0667
L59.4789 38.0062
" />
<path d="M59.4789 38.0062
L59.4184 37.8852
" />
<path d="M59.4184 37.8852
L59.3580 37.6433
" />
<path d="M59.3580 37.6433
L59.3580 37.3409
" />
<path d="M59.3580 37.3409
L59.4184 37.0990
" />
<path d="M59.4184 37.0990
L59.4789 36.9781
" />
<path d="M59.4789 36.9781
L59.5394 36.9176
" />
<path d="M59.5394 36.9176
L59.6603 36.8571
" />
<path d="M61.2932 38.1271
L60.5675 38.1271
" />
<path d="M60.9303 38.1271
L60.9303 36.8571
" />
<path d="M60.9303 36.8571
L60.8094 37.0386
" />
<path d="M60.8094 37.0386
L60.6884 37.1595
" />
<path d="M60.6884 37.1595
L60.5675 37.2200
" />
<path d="M61.7770 36.9781
L61.8374 36.9176
" />
<path d="M61.8374 36.9176
L61.9584 36.8571
" />
<path d="M61.9584 36.8571
L62.2608 36.8571
" />
<path d="M62.2608 36.8571
L62.3817 36.9176
" />
<path d="M62.3817 36.9176
L62.4422 36.9781
" />
<path d="M62.4422 36.9781
L62.5027 37.0990
" />
<path d="M62.5027 37.0990
L62.5027 37.2200
" />
<path d="M62.5027 37.2200
L62.4422 37.4014
" />
<path d="M62.4422 37.4014
L61.7165 38.1271
" />
<path d="M61.7165 38.1271
L62.5027 38.1271
" />
<path d="M63.0469 38.1271
L63.0469 36.8571
" />
<path d="M64.3774 38.1271
L63.9541 37.5224
" />
<path d="M63.6517 38.1271
L63.6517 36.8571
" />
<path d="M63.6517 36.8571
L64.1355 36.8571
" />
<path d="M64.1355 36.8571
L64.2565 36.9176
" />
<path d="M64.2565 36.9176
L64.3170 36.9781
" />
<path d="M64.3170 36.9781
L64.3774 37.0990
" />
<path d="M64.3774 37.0990
L64.3774 37.2805
" />
<path d="M64.3774 37.2805
L64.3170 37.4014
" />
<path d="M64.3170 37.4014
L64.2565 37.4619
" />
<path d="M64.2565 37.4619
L64.1355 37.5224
" />
<path d="M64.1355 37.5224
L63.6517 37.5224
" />
<path d="M64.8613 38.0667
L65.0427 38.1271
" />
<path d="M65.0427 38.1271
L65.3451 38.1271
" />
<path d="M65.3451 38.1271
L65.4660 38.0667
" />
<path d="M65.4660 38.0667
L65.5265 38.0062
" />
<path d="M65.5265 38.0062
L65.5870 37.8852
" />
<path d="M65.5870 37.8852
L65.5870 37.7643
" />
<path d="M65.5870 37.7643
L65.5265 37.6433
" />
<path d="M65.5265 37.6433
L65.4660 37.5828
" />
<path d="M65.4660 37.5828
L65.3451 37.5224
" />
<path d="M65.3451 37.5224
L65.1032 37.4619
" />
<path d="M65.1032 37.4619
L64.9822 37.4014
" />
<path d="M64.9822 37.4014
L64.9217 37.3409
" />
<path d="M64.9217 37.3409
L64.8613 37.2200
" />
<path d="M64.8613 37.2200
L64.8613 37.0990
" />
<path d="M64.8613 37.0990
L64.9217 36.9781
" />
<path d="M64.9217 36.9781
L64.9822 36.9176
" />
<path d="M64.9822 36.9176
L65.1032 36.8571
" />
<path d="M65.1032 36.8571
L65.4055 36.8571
" />
<path d="M65.4055 36.8571
L65.5870 36.9176
" />
<path d="M66.0708 37.7643
L66.6755 37.7643
" />
<path d="M65.9498 38.1271
L66.3731 36.8571
" />
<path d="M66.3731 36.8571
L66.7965 38.1271
" />
</g></g>
<g style="fill:#840084; fill-opacity:0.0; 
stroke:#840084; stroke-width:0.1588; stroke-opacity:1; 
stroke-linecap:round; stroke-linejoin:round;">
<text x="32.7674" y="38.1829"
textLength="52.4133" font-size="1.6933" lengthAdjust="spacingAndGlyphs"
text-anchor="middle" opacity="0">Package_DFN_QFN:Texas_S-PVQFN-N16_EP2.7x2.7mm</text>
<g class="stroked-text"><desc>Package_DFN_QFN:Texas_S-PVQFN-N16_EP2.7x2.7mm</desc>
<path d="M6.9668 38.1271
L7.1255 36.8571
" />
<path d="M7.1255 36.8571
L7.6093 36.8571
" />
<path d="M7.6093 36.8571
L7.7227 36.9176
" />
<path d="M7.7227 36.9176
L7.7756 36.9781
" />
<path d="M7.7756 36.9781
L7.8210 37.0990
" />
<path d="M7.8210 37.0990
L7.7983 37.2805
" />
<path d="M7.7983 37.2805
L7.7227 37.4014
" />
<path d="M7.7227 37.4014
L7.6547 37.4619
" />
<path d="M7.6547 37.4619
L7.5262 37.5224
" />
<path d="M7.5262 37.5224
L7.0424 37.5224
" />
<path d="M8.7811 38.1271
L8.8642 37.4619
" />
<path d="M8.8642 37.4619
L8.8189 37.3409
" />
<path d="M8.8189 37.3409
L8.7055 37.2805
" />
<path d="M8.7055 37.2805
L8.4636 37.2805
" />
<path d="M8.4636 37.2805
L8.3350 37.3409
" />
<path d="M8.7886 38.0667
L8.6601 38.1271
" />
<path d="M8.6601 38.1271
L8.3577 38.1271
" />
<path d="M8.3577 38.1271
L8.2443 38.0667
" />
<path d="M8.2443 38.0667
L8.1990 37.9457
" />
<path d="M8.1990 37.9457
L8.2141 37.8247
" />
<path d="M8.2141 37.8247
L8.2897 37.7038
" />
<path d="M8.2897 37.7038
L8.4182 37.6433
" />
<path d="M8.4182 37.6433
L8.7206 37.6433
" />
<path d="M8.7206 37.6433
L8.8491 37.5828
" />
<path d="M9.9376 38.0667
L9.8091 38.1271
" />
<path d="M9.8091 38.1271
L9.5672 38.1271
" />
<path d="M9.5672 38.1271
L9.4538 38.0667
" />
<path d="M9.4538 38.0667
L9.4009 38.0062
" />
<path d="M9.4009 38.0062
L9.3555 37.8852
" />
<path d="M9.3555 37.8852
L9.4009 37.5224
" />
<path d="M9.4009 37.5224
L9.4765 37.4014
" />
<path d="M9.4765 37.4014
L9.5445 37.3409
" />
<path d="M9.5445 37.3409
L9.6730 37.2805
" />
<path d="M9.6730 37.2805
L9.9149 37.2805
" />
<path d="M9.9149 37.2805
L10.0283 37.3409
" />
<path d="M10.4744 38.1271
L10.6331 36.8571
" />
<path d="M10.6558 37.6433
L10.9582 38.1271
" />
<path d="M11.0640 37.2805
L10.5197 37.7643
" />
<path d="M12.0468 38.1271
L12.1299 37.4619
" />
<path d="M12.1299 37.4619
L12.0846 37.3409
" />
<path d="M12.0846 37.3409
L11.9712 37.2805
" />
<path d="M11.9712 37.2805
L11.7293 37.2805
" />
<path d="M11.7293 37.2805
L11.6007 37.3409
" />
<path d="M12.0543 38.0667
L11.9258 38.1271
" />
<path d="M11.9258 38.1271
L11.6234 38.1271
" />
<path d="M11.6234 38.1271
L11.5100 38.0667
" />
<path d="M11.5100 38.0667
L11.4647 37.9457
" />
<path d="M11.4647 37.9457
L11.4798 37.8247
" />
<path d="M11.4798 37.8247
L11.5554 37.7038
" />
<path d="M11.5554 37.7038
L11.6839 37.6433
" />
<path d="M11.6839 37.6433
L11.9863 37.6433
" />
<path d="M11.9863 37.6433
L12.1148 37.5828
" />
<path d="M13.3016 37.2805
L13.1731 38.3086
" />
<path d="M13.1731 38.3086
L13.0975 38.4295
" />
<path d="M13.0975 38.4295
L13.0294 38.4900
" />
<path d="M13.0294 38.4900
L12.9009 38.5505
" />
<path d="M12.9009 38.5505
L12.7195 38.5505
" />
<path d="M12.7195 38.5505
L12.6061 38.4900
" />
<path d="M13.2033 38.0667
L13.0748 38.1271
" />
<path d="M13.0748 38.1271
L12.8329 38.1271
" />
<path d="M12.8329 38.1271
L12.7195 38.0667
" />
<path d="M12.7195 38.0667
L12.6666 38.0062
" />
<path d="M12.6666 38.0062
L12.6212 37.8852
" />
<path d="M12.6212 37.8852
L12.6666 37.5224
" />
<path d="M12.6666 37.5224
L12.7422 37.4014
" />
<path d="M12.7422 37.4014
L12.8102 37.3409
" />
<path d="M12.8102 37.3409
L12.9387 37.2805
" />
<path d="M12.9387 37.2805
L13.1806 37.2805
" />
<path d="M13.1806 37.2805
L13.2940 37.3409
" />
<path d="M14.2918 38.0667
L14.1633 38.1271
" />
<path d="M14.1633 38.1271
L13.9214 38.1271
" />
<path d="M13.9214 38.1271
L13.8080 38.0667
" />
<path d="M13.8080 38.0667
L13.7627 37.9457
" />
<path d="M13.7627 37.9457
L13.8232 37.4619
" />
<path d="M13.8232 37.4619
L13.8987 37.3409
" />
<path d="M13.8987 37.3409
L14.0273 37.2805
" />
<path d="M14.0273 37.2805
L14.2692 37.2805
" />
<path d="M14.2692 37.2805
L14.3826 37.3409
" />
<path d="M14.3826 37.3409
L14.4279 37.4619
" />
<path d="M14.4279 37.4619
L14.4128 37.5828
" />
<path d="M14.4128 37.5828
L13.7929 37.7038
" />
<path d="M14.5716 38.2481
L15.5392 38.2481
" />
<path d="M15.8567 38.1271
L16.0154 36.8571
" />
<path d="M16.0154 36.8571
L16.3178 36.8571
" />
<path d="M16.3178 36.8571
L16.4917 36.9176
" />
<path d="M16.4917 36.9176
L16.5975 37.0386
" />
<path d="M16.5975 37.0386
L16.6429 37.1595
" />
<path d="M16.6429 37.1595
L16.6731 37.4014
" />
<path d="M16.6731 37.4014
L16.6504 37.5828
" />
<path d="M16.6504 37.5828
L16.5597 37.8247
" />
<path d="M16.5597 37.8247
L16.4841 37.9457
" />
<path d="M16.4841 37.9457
L16.3480 38.0667
" />
<path d="M16.3480 38.0667
L16.1591 38.1271
" />
<path d="M16.1591 38.1271
L15.8567 38.1271
" />
<path d="M17.6332 37.4619
L17.2098 37.4619
" />
<path d="M17.1267 38.1271
L17.2854 36.8571
" />
<path d="M17.2854 36.8571
L17.8902 36.8571
" />
<path d="M18.2153 38.1271
L18.3740 36.8571
" />
<path d="M18.3740 36.8571
L18.9410 38.1271
" />
<path d="M18.9410 38.1271
L19.0997 36.8571
" />
<path d="M19.2283 38.2481
L20.1959 38.2481
" />
<path d="M21.3449 38.2481
L21.2315 38.1876
" />
<path d="M21.2315 38.1876
L21.1257 38.0667
" />
<path d="M21.1257 38.0667
L20.9669 37.8852
" />
<path d="M20.9669 37.8852
L20.8536 37.8247
" />
<path d="M20.8536 37.8247
L20.7326 37.8247
" />
<path d="M20.7553 38.1271
L20.6419 38.0667
" />
<path d="M20.6419 38.0667
L20.5361 37.9457
" />
<path d="M20.5361 37.9457
L20.5058 37.7038
" />
<path d="M20.5058 37.7038
L20.5587 37.2805
" />
<path d="M20.5587 37.2805
L20.6494 37.0386
" />
<path d="M20.6494 37.0386
L20.7855 36.9176
" />
<path d="M20.7855 36.9176
L20.9140 36.8571
" />
<path d="M20.9140 36.8571
L21.1559 36.8571
" />
<path d="M21.1559 36.8571
L21.2693 36.9176
" />
<path d="M21.2693 36.9176
L21.3752 37.0386
" />
<path d="M21.3752 37.0386
L21.4054 37.2805
" />
<path d="M21.4054 37.2805
L21.3525 37.7038
" />
<path d="M21.3525 37.7038
L21.2618 37.9457
" />
<path d="M21.2618 37.9457
L21.1257 38.0667
" />
<path d="M21.1257 38.0667
L20.9972 38.1271
" />
<path d="M20.9972 38.1271
L20.7553 38.1271
" />
<path d="M22.3504 37.4619
L21.9270 37.4619
" />
<path d="M21.8439 38.1271
L22.0026 36.8571
" />
<path d="M22.0026 36.8571
L22.6074 36.8571
" />
<path d="M22.9325 38.1271
L23.0912 36.8571
" />
<path d="M23.0912 36.8571
L23.6582 38.1271
" />
<path d="M23.6582 38.1271
L23.8169 36.8571
" />
<path d="M24.2781 38.0062
L24.3310 38.0667
" />
<path d="M24.3310 38.0667
L24.2630 38.1271
" />
<path d="M24.2630 38.1271
L24.2101 38.0667
" />
<path d="M24.2101 38.0667
L24.2781 38.0062
" />
<path d="M24.2781 38.0062
L24.2630 38.1271
" />
<path d="M24.3612 37.3409
L24.4142 37.4014
" />
<path d="M24.4142 37.4014
L24.3461 37.4619
" />
<path d="M24.3461 37.4619
L24.2932 37.4014
" />
<path d="M24.2932 37.4014
L24.3612 37.3409
" />
<path d="M24.3612 37.3409
L24.3461 37.4619
" />
<path d="M24.8451 36.8571
L25.5708 36.8571
" />
<path d="M25.0492 38.1271
L25.2080 36.8571
" />
<path d="M26.3267 38.0667
L26.1982 38.1271
" />
<path d="M26.1982 38.1271
L25.9563 38.1271
" />
<path d="M25.9563 38.1271
L25.8429 38.0667
" />
<path d="M25.8429 38.0667
L25.7976 37.9457
" />
<path d="M25.7976 37.9457
L25.8581 37.4619
" />
<path d="M25.8581 37.4619
L25.9336 37.3409
" />
<path d="M25.9336 37.3409
L26.0622 37.2805
" />
<path d="M26.0622 37.2805
L26.3041 37.2805
" />
<path d="M26.3041 37.2805
L26.4175 37.3409
" />
<path d="M26.4175 37.3409
L26.4628 37.4619
" />
<path d="M26.4628 37.4619
L26.4477 37.5828
" />
<path d="M26.4477 37.5828
L25.8278 37.7038
" />
<path d="M26.8030 38.1271
L27.5741 37.2805
" />
<path d="M26.9089 37.2805
L27.4683 38.1271
" />
<path d="M28.4964 38.1271
L28.5795 37.4619
" />
<path d="M28.5795 37.4619
L28.5342 37.3409
" />
<path d="M28.5342 37.3409
L28.4208 37.2805
" />
<path d="M28.4208 37.2805
L28.1789 37.2805
" />
<path d="M28.1789 37.2805
L28.0503 37.3409
" />
<path d="M28.5039 38.0667
L28.3754 38.1271
" />
<path d="M28.3754 38.1271
L28.0730 38.1271
" />
<path d="M28.0730 38.1271
L27.9596 38.0667
" />
<path d="M27.9596 38.0667
L27.9143 37.9457
" />
<path d="M27.9143 37.9457
L27.9294 37.8247
" />
<path d="M27.9294 37.8247
L28.0050 37.7038
" />
<path d="M28.0050 37.7038
L28.1335 37.6433
" />
<path d="M28.1335 37.6433
L28.4359 37.6433
" />
<path d="M28.4359 37.6433
L28.5644 37.5828
" />
<path d="M29.0482 38.0667
L29.1615 38.1271
" />
<path d="M29.1615 38.1271
L29.4035 38.1271
" />
<path d="M29.4035 38.1271
L29.5320 38.0667
" />
<path d="M29.5320 38.0667
L29.6076 37.9457
" />
<path d="M29.6076 37.9457
L29.6151 37.8852
" />
<path d="M29.6151 37.8852
L29.5698 37.7643
" />
<path d="M29.5698 37.7643
L29.4564 37.7038
" />
<path d="M29.4564 37.7038
L29.2749 37.7038
" />
<path d="M29.2749 37.7038
L29.1615 37.6433
" />
<path d="M29.1615 37.6433
L29.1162 37.5224
" />
<path d="M29.1162 37.5224
L29.1238 37.4619
" />
<path d="M29.1238 37.4619
L29.1993 37.3409
" />
<path d="M29.1993 37.3409
L29.3279 37.2805
" />
<path d="M29.3279 37.2805
L29.5093 37.2805
" />
<path d="M29.5093 37.2805
L29.6227 37.3409
" />
<path d="M29.8117 38.2481
L30.7793 38.2481
" />
<path d="M31.0439 38.0667
L31.2177 38.1271
" />
<path d="M31.2177 38.1271
L31.5201 38.1271
" />
<path d="M31.5201 38.1271
L31.6486 38.0667
" />
<path d="M31.6486 38.0667
L31.7167 38.0062
" />
<path d="M31.7167 38.0062
L31.7922 37.8852
" />
<path d="M31.7922 37.8852
L31.8074 37.7643
" />
<path d="M31.8074 37.7643
L31.7620 37.6433
" />
<path d="M31.7620 37.6433
L31.7091 37.5828
" />
<path d="M31.7091 37.5828
L31.5957 37.5224
" />
<path d="M31.5957 37.5224
L31.3614 37.4619
" />
<path d="M31.3614 37.4619
L31.2480 37.4014
" />
<path d="M31.2480 37.4014
L31.1950 37.3409
" />
<path d="M31.1950 37.3409
L31.1497 37.2200
" />
<path d="M31.1497 37.2200
L31.1648 37.0990
" />
<path d="M31.1648 37.0990
L31.2404 36.9781
" />
<path d="M31.2404 36.9781
L31.3084 36.9176
" />
<path d="M31.3084 36.9176
L31.4370 36.8571
" />
<path d="M31.4370 36.8571
L31.7393 36.8571
" />
<path d="M31.7393 36.8571
L31.9132 36.9176
" />
<path d="M32.3667 37.6433
L33.3344 37.6433
" />
<path d="M33.8787 38.1271
L34.0374 36.8571
" />
<path d="M34.0374 36.8571
L34.5212 36.8571
" />
<path d="M34.5212 36.8571
L34.6346 36.9176
" />
<path d="M34.6346 36.9176
L34.6875 36.9781
" />
<path d="M34.6875 36.9781
L34.7329 37.0990
" />
<path d="M34.7329 37.0990
L34.7102 37.2805
" />
<path d="M34.7102 37.2805
L34.6346 37.4014
" />
<path d="M34.6346 37.4014
L34.5666 37.4619
" />
<path d="M34.5666 37.4619
L34.4381 37.5224
" />
<path d="M34.4381 37.5224
L33.9543 37.5224
" />
<path d="M35.1260 36.8571
L35.3906 38.1271
" />
<path d="M35.3906 38.1271
L35.9727 36.8571
" />
<path d="M37.0688 38.2481
L36.9554 38.1876
" />
<path d="M36.9554 38.1876
L36.8496 38.0667
" />
<path d="M36.8496 38.0667
L36.6908 37.8852
" />
<path d="M36.6908 37.8852
L36.5775 37.8247
" />
<path d="M36.5775 37.8247
L36.4565 37.8247
" />
<path d="M36.4792 38.1271
L36.3658 38.0667
" />
<path d="M36.3658 38.0667
L36.2600 37.9457
" />
<path d="M36.2600 37.9457
L36.2297 37.7038
" />
<path d="M36.2297 37.7038
L36.2826 37.2805
" />
<path d="M36.2826 37.2805
L36.3733 37.0386
" />
<path d="M36.3733 37.0386
L36.5094 36.9176
" />
<path d="M36.5094 36.9176
L36.6379 36.8571
" />
<path d="M36.6379 36.8571
L36.8798 36.8571
" />
<path d="M36.8798 36.8571
L36.9932 36.9176
" />
<path d="M36.9932 36.9176
L37.0991 37.0386
" />
<path d="M37.0991 37.0386
L37.1293 37.2805
" />
<path d="M37.1293 37.2805
L37.0764 37.7038
" />
<path d="M37.0764 37.7038
L36.9857 37.9457
" />
<path d="M36.9857 37.9457
L36.8496 38.0667
" />
<path d="M36.8496 38.0667
L36.7211 38.1271
" />
<path d="M36.7211 38.1271
L36.4792 38.1271
" />
<path d="M38.0743 37.4619
L37.6509 37.4619
" />
<path d="M37.5678 38.1271
L37.7265 36.8571
" />
<path d="M37.7265 36.8571
L38.3313 36.8571
" />
<path d="M38.6564 38.1271
L38.8151 36.8571
" />
<path d="M38.8151 36.8571
L39.3821 38.1271
" />
<path d="M39.3821 38.1271
L39.5408 36.8571
" />
<path d="M40.0473 37.6433
L41.0150 37.6433
" />
<path d="M41.5593 38.1271
L41.7180 36.8571
" />
<path d="M41.7180 36.8571
L42.2850 38.1271
" />
<path d="M42.2850 38.1271
L42.4437 36.8571
" />
<path d="M43.5550 38.1271
L42.8293 38.1271
" />
<path d="M43.1922 38.1271
L43.3509 36.8571
" />
<path d="M43.3509 36.8571
L43.2073 37.0386
" />
<path d="M43.2073 37.0386
L43.0712 37.1595
" />
<path d="M43.0712 37.1595
L42.9427 37.2200
" />
<path d="M44.8023 36.8571
L44.5604 36.8571
" />
<path d="M44.5604 36.8571
L44.4319 36.9176
" />
<path d="M44.4319 36.9176
L44.3639 36.9781
" />
<path d="M44.3639 36.9781
L44.2202 37.1595
" />
<path d="M44.2202 37.1595
L44.1295 37.4014
" />
<path d="M44.1295 37.4014
L44.0690 37.8852
" />
<path d="M44.0690 37.8852
L44.1144 38.0062
" />
<path d="M44.1144 38.0062
L44.1673 38.0667
" />
<path d="M44.1673 38.0667
L44.2807 38.1271
" />
<path d="M44.2807 38.1271
L44.5226 38.1271
" />
<path d="M44.5226 38.1271
L44.6511 38.0667
" />
<path d="M44.6511 38.0667
L44.7192 38.0062
" />
<path d="M44.7192 38.0062
L44.7947 37.8852
" />
<path d="M44.7947 37.8852
L44.8325 37.5828
" />
<path d="M44.8325 37.5828
L44.7872 37.4619
" />
<path d="M44.7872 37.4619
L44.7343 37.4014
" />
<path d="M44.7343 37.4014
L44.6209 37.3409
" />
<path d="M44.6209 37.3409
L44.3790 37.3409
" />
<path d="M44.3790 37.3409
L44.2505 37.4014
" />
<path d="M44.2505 37.4014
L44.1824 37.4619
" />
<path d="M44.1824 37.4619
L44.1068 37.5828
" />
<path d="M44.9913 38.2481
L45.9589 38.2481
" />
<path d="M46.3595 37.4619
L46.7829 37.4619
" />
<path d="M46.8811 38.1271
L46.2764 38.1271
" />
<path d="M46.2764 38.1271
L46.4351 36.8571
" />
<path d="M46.4351 36.8571
L47.0399 36.8571
" />
<path d="M47.4254 38.1271
L47.5841 36.8571
" />
<path d="M47.5841 36.8571
L48.0679 36.8571
" />
<path d="M48.0679 36.8571
L48.1813 36.9176
" />
<path d="M48.1813 36.9176
L48.2342 36.9781
" />
<path d="M48.2342 36.9781
L48.2796 37.0990
" />
<path d="M48.2796 37.0990
L48.2569 37.2805
" />
<path d="M48.2569 37.2805
L48.1813 37.4014
" />
<path d="M48.1813 37.4014
L48.1133 37.4619
" />
<path d="M48.1133 37.4619
L47.9848 37.5224
" />
<path d="M47.9848 37.5224
L47.5010 37.5224
" />
<path d="M48.7785 36.9781
L48.8466 36.9176
" />
<path d="M48.8466 36.9176
L48.9751 36.8571
" />
<path d="M48.9751 36.8571
L49.2775 36.8571
" />
<path d="M49.2775 36.8571
L49.3908 36.9176
" />
<path d="M49.3908 36.9176
L49.4438 36.9781
" />
<path d="M49.4438 36.9781
L49.4891 37.0990
" />
<path d="M49.4891 37.0990
L49.4740 37.2200
" />
<path d="M49.4740 37.2200
L49.3908 37.4014
" />
<path d="M49.3908 37.4014
L48.5744 38.1271
" />
<path d="M48.5744 38.1271
L49.3606 38.1271
" />
<path d="M49.9200 38.0062
L49.9729 38.0667
" />
<path d="M49.9729 38.0667
L49.9049 38.1271
" />
<path d="M49.9049 38.1271
L49.8520 38.0667
" />
<path d="M49.8520 38.0667
L49.9200 38.0062
" />
<path d="M49.9200 38.0062
L49.9049 38.1271
" />
<path d="M50.5475 36.8571
L51.3941 36.8571
" />
<path d="M51.3941 36.8571
L50.6911 38.1271
" />
<path d="M51.5982 38.1271
L52.3693 37.2805
" />
<path d="M51.7041 37.2805
L52.2635 38.1271
" />
<path d="M52.8304 36.9781
L52.8985 36.9176
" />
<path d="M52.8985 36.9176
L53.0270 36.8571
" />
<path d="M53.0270 36.8571
L53.3294 36.8571
" />
<path d="M53.3294 36.8571
L53.4427 36.9176
" />
<path d="M53.4427 36.9176
L53.4957 36.9781
" />
<path d="M53.4957 36.9781
L53.5410 37.0990
" />
<path d="M53.5410 37.0990
L53.5259 37.2200
" />
<path d="M53.5259 37.2200
L53.4427 37.4014
" />
<path d="M53.4427 37.4014
L52.6263 38.1271
" />
<path d="M52.6263 38.1271
L53.4125 38.1271
" />
<path d="M53.9719 38.0062
L54.0248 38.0667
" />
<path d="M54.0248 38.0667
L53.9568 38.1271
" />
<path d="M53.9568 38.1271
L53.9039 38.0667
" />
<path d="M53.9039 38.0667
L53.9719 38.0062
" />
<path d="M53.9719 38.0062
L53.9568 38.1271
" />
<path d="M54.5994 36.8571
L55.4460 36.8571
" />
<path d="M55.4460 36.8571
L54.7430 38.1271
" />
<path d="M55.7711 38.1271
L55.8769 37.2805
" />
<path d="M55.8618 37.4014
L55.9298 37.3409
" />
<path d="M55.9298 37.3409
L56.0583 37.2805
" />
<path d="M56.0583 37.2805
L56.2398 37.2805
" />
<path d="M56.2398 37.2805
L56.3532 37.3409
" />
<path d="M56.3532 37.3409
L56.3985 37.4619
" />
<path d="M56.3985 37.4619
L56.3154 38.1271
" />
<path d="M56.3985 37.4619
L56.4741 37.3409
" />
<path d="M56.4741 37.3409
L56.6026 37.2805
" />
<path d="M56.6026 37.2805
L56.7840 37.2805
" />
<path d="M56.7840 37.2805
L56.8974 37.3409
" />
<path d="M56.8974 37.3409
L56.9428 37.4619
" />
<path d="M56.9428 37.4619
L56.8596 38.1271
" />
<path d="M57.4644 38.1271
L57.5702 37.2805
" />
<path d="M57.5551 37.4014
L57.6231 37.3409
" />
<path d="M57.6231 37.3409
L57.7516 37.2805
" />
<path d="M57.7516 37.2805
L57.9331 37.2805
" />
<path d="M57.9331 37.2805
L58.0465 37.3409
" />
<path d="M58.0465 37.3409
L58.0918 37.4619
" />
<path d="M58.0918 37.4619
L58.0087 38.1271
" />
<path d="M58.0918 37.4619
L58.1674 37.3409
" />
<path d="M58.1674 37.3409
L58.2959 37.2805
" />
<path d="M58.2959 37.2805
L58.4773 37.2805
" />
<path d="M58.4773 37.2805
L58.5907 37.3409
" />
<path d="M58.5907 37.3409
L58.6361 37.4619
" />
<path d="M58.6361 37.4619
L58.5529 38.1271
" />
</g><text x="46.6580" y="20.4029"
textLength="51.0221" font-size="1.6933" lengthAdjust="spacingAndGlyphs"
text-anchor="middle" opacity="0">http://www.ti.com/lit/ds/symlink/msp430f2012.pdf</text>
<g class="stroked-text"><desc>http://www.ti.com/lit/ds/symlink/msp430f2012.pdf</desc>
<path d="M21.5605 20.3471
L21.5605 19.0771
" />
<path d="M22.1048 20.3471
L22.1048 19.6819
" />
<path d="M22.1048 19.6819
L22.0443 19.5609
" />
<path d="M22.0443 19.5609
L21.9234 19.5005
" />
<path d="M21.9234 19.5005
L21.7420 19.5005
" />
<path d="M21.7420 19.5005
L21.6210 19.5609
" />
<path d="M21.6210 19.5609
L21.5605 19.6214
" />
<path d="M22.5281 19.5005
L23.0119 19.5005
" />
<path d="M22.7095 19.0771
L22.7095 20.1657
" />
<path d="M22.7095 20.1657
L22.7700 20.2867
" />
<path d="M22.7700 20.2867
L22.8910 20.3471
" />
<path d="M22.8910 20.3471
L23.0119 20.3471
" />
<path d="M23.2538 19.5005
L23.7376 19.5005
" />
<path d="M23.4352 19.0771
L23.4352 20.1657
" />
<path d="M23.4352 20.1657
L23.4957 20.2867
" />
<path d="M23.4957 20.2867
L23.6167 20.3471
" />
<path d="M23.6167 20.3471
L23.7376 20.3471
" />
<path d="M24.1609 19.5005
L24.1609 20.7705
" />
<path d="M24.1609 19.5609
L24.2819 19.5005
" />
<path d="M24.2819 19.5005
L24.5238 19.5005
" />
<path d="M24.5238 19.5005
L24.6447 19.5609
" />
<path d="M24.6447 19.5609
L24.7052 19.6214
" />
<path d="M24.7052 19.6214
L24.7657 19.7424
" />
<path d="M24.7657 19.7424
L24.7657 20.1052
" />
<path d="M24.7657 20.1052
L24.7052 20.2262
" />
<path d="M24.7052 20.2262
L24.6447 20.2867
" />
<path d="M24.6447 20.2867
L24.5238 20.3471
" />
<path d="M24.5238 20.3471
L24.2819 20.3471
" />
<path d="M24.2819 20.3471
L24.1609 20.2867
" />
<path d="M25.3099 20.2262
L25.3704 20.2867
" />
<path d="M25.3704 20.2867
L25.3099 20.3471
" />
<path d="M25.3099 20.3471
L25.2495 20.2867
" />
<path d="M25.2495 20.2867
L25.3099 20.2262
" />
<path d="M25.3099 20.2262
L25.3099 20.3471
" />
<path d="M25.3099 19.5609
L25.3704 19.6214
" />
<path d="M25.3704 19.6214
L25.3099 19.6819
" />
<path d="M25.3099 19.6819
L25.2495 19.6214
" />
<path d="M25.2495 19.6214
L25.3099 19.5609
" />
<path d="M25.3099 19.5609
L25.3099 19.6819
" />
<path d="M26.8219 19.0167
L25.7333 20.6495
" />
<path d="M28.1524 19.0167
L27.0638 20.6495
" />
<path d="M28.4548 19.5005
L28.6967 20.3471
" />
<path d="M28.6967 20.3471
L28.9386 19.7424
" />
<path d="M28.9386 19.7424
L29.1805 20.3471
" />
<path d="M29.1805 20.3471
L29.4224 19.5005
" />
<path d="M29.7853 19.5005
L30.0272 20.3471
" />
<path d="M30.0272 20.3471
L30.2691 19.7424
" />
<path d="M30.2691 19.7424
L30.5110 20.3471
" />
<path d="M30.5110 20.3471
L30.7529 19.5005
" />
<path d="M31.1158 19.5005
L31.3577 20.3471
" />
<path d="M31.3577 20.3471
L31.5996 19.7424
" />
<path d="M31.5996 19.7424
L31.8415 20.3471
" />
<path d="M31.8415 20.3471
L32.0834 19.5005
" />
<path d="M32.5672 20.2262
L32.6277 20.2867
" />
<path d="M32.6277 20.2867
L32.5672 20.3471
" />
<path d="M32.5672 20.3471
L32.5068 20.2867
" />
<path d="M32.5068 20.2867
L32.5672 20.2262
" />
<path d="M32.5672 20.2262
L32.5672 20.3471
" />
<path d="M32.9906 19.5005
L33.4744 19.5005
" />
<path d="M33.1720 19.0771
L33.1720 20.1657
" />
<path d="M33.1720 20.1657
L33.2325 20.2867
" />
<path d="M33.2325 20.2867
L33.3535 20.3471
" />
<path d="M33.3535 20.3471
L33.4744 20.3471
" />
<path d="M33.8977 20.3471
L33.8977 19.5005
" />
<path d="M33.8977 19.0771
L33.8373 19.1376
" />
<path d="M33.8373 19.1376
L33.8977 19.1981
" />
<path d="M33.8977 19.1981
L33.9582 19.1376
" />
<path d="M33.9582 19.1376
L33.8977 19.0771
" />
<path d="M33.8977 19.0771
L33.8977 19.1981
" />
<path d="M34.5025 20.2262
L34.5630 20.2867
" />
<path d="M34.5630 20.2867
L34.5025 20.3471
" />
<path d="M34.5025 20.3471
L34.4421 20.2867
" />
<path d="M34.4421 20.2867
L34.5025 20.2262
" />
<path d="M34.5025 20.2262
L34.5025 20.3471
" />
<path d="M35.6516 20.2867
L35.5307 20.3471
" />
<path d="M35.5307 20.3471
L35.2888 20.3471
" />
<path d="M35.2888 20.3471
L35.1678 20.2867
" />
<path d="M35.1678 20.2867
L35.1073 20.2262
" />
<path d="M35.1073 20.2262
L35.0469 20.1052
" />
<path d="M35.0469 20.1052
L35.0469 19.7424
" />
<path d="M35.0469 19.7424
L35.1073 19.6214
" />
<path d="M35.1073 19.6214
L35.1678 19.5609
" />
<path d="M35.1678 19.5609
L35.2888 19.5005
" />
<path d="M35.2888 19.5005
L35.5307 19.5005
" />
<path d="M35.5307 19.5005
L35.6516 19.5609
" />
<path d="M36.3774 20.3471
L36.2564 20.2867
" />
<path d="M36.2564 20.2867
L36.1959 20.2262
" />
<path d="M36.1959 20.2262
L36.1355 20.1052
" />
<path d="M36.1355 20.1052
L36.1355 19.7424
" />
<path d="M36.1355 19.7424
L36.1959 19.6214
" />
<path d="M36.1959 19.6214
L36.2564 19.5609
" />
<path d="M36.2564 19.5609
L36.3774 19.5005
" />
<path d="M36.3774 19.5005
L36.5588 19.5005
" />
<path d="M36.5588 19.5005
L36.6797 19.5609
" />
<path d="M36.6797 19.5609
L36.7402 19.6214
" />
<path d="M36.7402 19.6214
L36.8007 19.7424
" />
<path d="M36.8007 19.7424
L36.8007 20.1052
" />
<path d="M36.8007 20.1052
L36.7402 20.2262
" />
<path d="M36.7402 20.2262
L36.6797 20.2867
" />
<path d="M36.6797 20.2867
L36.5588 20.3471
" />
<path d="M36.5588 20.3471
L36.3774 20.3471
" />
<path d="M37.3449 20.3471
L37.3449 19.5005
" />
<path d="M37.3449 19.6214
L37.4054 19.5609
" />
<path d="M37.4054 19.5609
L37.5264 19.5005
" />
<path d="M37.5264 19.5005
L37.7078 19.5005
" />
<path d="M37.7078 19.5005
L37.8287 19.5609
" />
<path d="M37.8287 19.5609
L37.8892 19.6819
" />
<path d="M37.8892 19.6819
L37.8892 20.3471
" />
<path d="M37.8892 19.6819
L37.9497 19.5609
" />
<path d="M37.9497 19.5609
L38.0706 19.5005
" />
<path d="M38.0706 19.5005
L38.2521 19.5005
" />
<path d="M38.2521 19.5005
L38.3730 19.5609
" />
<path d="M38.3730 19.5609
L38.4335 19.6819
" />
<path d="M38.4335 19.6819
L38.4335 20.3471
" />
<path d="M39.9454 19.0167
L38.8568 20.6495
" />
<path d="M40.5502 20.3471
L40.4292 20.2867
" />
<path d="M40.4292 20.2867
L40.3687 20.1657
" />
<path d="M40.3687 20.1657
L40.3687 19.0771
" />
<path d="M41.0339 20.3471
L41.0339 19.5005
" />
<path d="M41.0339 19.0771
L40.9735 19.1376
" />
<path d="M40.9735 19.1376
L41.0339 19.1981
" />
<path d="M41.0339 19.1981
L41.0944 19.1376
" />
<path d="M41.0944 19.1376
L41.0339 19.0771
" />
<path d="M41.0339 19.0771
L41.0339 19.1981
" />
<path d="M41.4573 19.5005
L41.9411 19.5005
" />
<path d="M41.6387 19.0771
L41.6387 20.1657
" />
<path d="M41.6387 20.1657
L41.6992 20.2867
" />
<path d="M41.6992 20.2867
L41.8202 20.3471
" />
<path d="M41.8202 20.3471
L41.9411 20.3471
" />
<path d="M43.2716 19.0167
L42.1830 20.6495
" />
<path d="M44.2392 20.3471
L44.2392 19.0771
" />
<path d="M44.2392 20.2867
L44.1183 20.3471
" />
<path d="M44.1183 20.3471
L43.8764 20.3471
" />
<path d="M43.8764 20.3471
L43.7554 20.2867
" />
<path d="M43.7554 20.2867
L43.6949 20.2262
" />
<path d="M43.6949 20.2262
L43.6345 20.1052
" />
<path d="M43.6345 20.1052
L43.6345 19.7424
" />
<path d="M43.6345 19.7424
L43.6949 19.6214
" />
<path d="M43.6949 19.6214
L43.7554 19.5609
" />
<path d="M43.7554 19.5609
L43.8764 19.5005
" />
<path d="M43.8764 19.5005
L44.1183 19.5005
" />
<path d="M44.1183 19.5005
L44.2392 19.5609
" />
<path d="M44.7835 20.2867
L44.9044 20.3471
" />
<path d="M44.9044 20.3471
L45.1463 20.3471
" />
<path d="M45.1463 20.3471
L45.2673 20.2867
" />
<path d="M45.2673 20.2867
L45.3277 20.1657
" />
<path d="M45.3277 20.1657
L45.3277 20.1052
" />
<path d="M45.3277 20.1052
L45.2673 19.9843
" />
<path d="M45.2673 19.9843
L45.1463 19.9238
" />
<path d="M45.1463 19.9238
L44.9649 19.9238
" />
<path d="M44.9649 19.9238
L44.8439 19.8633
" />
<path d="M44.8439 19.8633
L44.7835 19.7424
" />
<path d="M44.7835 19.7424
L44.7835 19.6819
" />
<path d="M44.7835 19.6819
L44.8439 19.5609
" />
<path d="M44.8439 19.5609
L44.9649 19.5005
" />
<path d="M44.9649 19.5005
L45.1463 19.5005
" />
<path d="M45.1463 19.5005
L45.2673 19.5609
" />
<path d="M46.7792 19.0167
L45.6906 20.6495
" />
<path d="M47.1421 20.2867
L47.2630 20.3471
" />
<path d="M47.2630 20.3471
L47.5049 20.3471
" />
<path d="M47.5049 20.3471
L47.6259 20.2867
" />
<path d="M47.6259 20.2867
L47.6863 20.1657
" />
<path d="M47.6863 20.1657
L47.6863 20.1052
" />
<path d="M47.6863 20.1052
L47.6259 19.9843
" />
<path d="M47.6259 19.9843
L47.5049 19.9238
" />
<path d="M47.5049 19.9238
L47.3235 19.9238
" />
<path d="M47.3235 19.9238
L47.2025 19.8633
" />
<path d="M47.2025 19.8633
L47.1421 19.7424
" />
<path d="M47.1421 19.7424
L47.1421 19.6819
" />
<path d="M47.1421 19.6819
L47.2025 19.5609
" />
<path d="M47.2025 19.5609
L47.3235 19.5005
" />
<path d="M47.3235 19.5005
L47.5049 19.5005
" />
<path d="M47.5049 19.5005
L47.6259 19.5609
" />
<path d="M48.1097 19.5005
L48.4121 20.3471
" />
<path d="M48.7144 19.5005
L48.4121 20.3471
" />
<path d="M48.4121 20.3471
L48.2911 20.6495
" />
<path d="M48.2911 20.6495
L48.2306 20.7100
" />
<path d="M48.2306 20.7100
L48.1097 20.7705
" />
<path d="M49.1982 20.3471
L49.1982 19.5005
" />
<path d="M49.1982 19.6214
L49.2587 19.5609
" />
<path d="M49.2587 19.5609
L49.3797 19.5005
" />
<path d="M49.3797 19.5005
L49.5611 19.5005
" />
<path d="M49.5611 19.5005
L49.6820 19.5609
" />
<path d="M49.6820 19.5609
L49.7425 19.6819
" />
<path d="M49.7425 19.6819
L49.7425 20.3471
" />
<path d="M49.7425 19.6819
L49.8030 19.5609
" />
<path d="M49.8030 19.5609
L49.9239 19.5005
" />
<path d="M49.9239 19.5005
L50.1054 19.5005
" />
<path d="M50.1054 19.5005
L50.2263 19.5609
" />
<path d="M50.2263 19.5609
L50.2868 19.6819
" />
<path d="M50.2868 19.6819
L50.2868 20.3471
" />
<path d="M51.0730 20.3471
L50.9520 20.2867
" />
<path d="M50.9520 20.2867
L50.8915 20.1657
" />
<path d="M50.8915 20.1657
L50.8915 19.0771
" />
<path d="M51.5567 20.3471
L51.5567 19.5005
" />
<path d="M51.5567 19.0771
L51.4963 19.1376
" />
<path d="M51.4963 19.1376
L51.5567 19.1981
" />
<path d="M51.5567 19.1981
L51.6172 19.1376
" />
<path d="M51.6172 19.1376
L51.5567 19.0771
" />
<path d="M51.5567 19.0771
L51.5567 19.1981
" />
<path d="M52.1615 19.5005
L52.1615 20.3471
" />
<path d="M52.1615 19.6214
L52.2220 19.5609
" />
<path d="M52.2220 19.5609
L52.3430 19.5005
" />
<path d="M52.3430 19.5005
L52.5244 19.5005
" />
<path d="M52.5244 19.5005
L52.6453 19.5609
" />
<path d="M52.6453 19.5609
L52.7058 19.6819
" />
<path d="M52.7058 19.6819
L52.7058 20.3471
" />
<path d="M53.3105 20.3471
L53.3105 19.0771
" />
<path d="M53.4315 19.8633
L53.7943 20.3471
" />
<path d="M53.7943 19.5005
L53.3105 19.9843
" />
<path d="M55.2458 19.0167
L54.1572 20.6495
" />
<path d="M55.6691 20.3471
L55.6691 19.5005
" />
<path d="M55.6691 19.6214
L55.7296 19.5609
" />
<path d="M55.7296 19.5609
L55.8506 19.5005
" />
<path d="M55.8506 19.5005
L56.0320 19.5005
" />
<path d="M56.0320 19.5005
L56.1529 19.5609
" />
<path d="M56.1529 19.5609
L56.2134 19.6819
" />
<path d="M56.2134 19.6819
L56.2134 20.3471
" />
<path d="M56.2134 19.6819
L56.2739 19.5609
" />
<path d="M56.2739 19.5609
L56.3948 19.5005
" />
<path d="M56.3948 19.5005
L56.5763 19.5005
" />
<path d="M56.5763 19.5005
L56.6972 19.5609
" />
<path d="M56.6972 19.5609
L56.7577 19.6819
" />
<path d="M56.7577 19.6819
L56.7577 20.3471
" />
<path d="M57.3020 20.2867
L57.4229 20.3471
" />
<path d="M57.4229 20.3471
L57.6648 20.3471
" />
<path d="M57.6648 20.3471
L57.7858 20.2867
" />
<path d="M57.7858 20.2867
L57.8462 20.1657
" />
<path d="M57.8462 20.1657
L57.8462 20.1052
" />
<path d="M57.8462 20.1052
L57.7858 19.9843
" />
<path d="M57.7858 19.9843
L57.6648 19.9238
" />
<path d="M57.6648 19.9238
L57.4834 19.9238
" />
<path d="M57.4834 19.9238
L57.3624 19.8633
" />
<path d="M57.3624 19.8633
L57.3020 19.7424
" />
<path d="M57.3020 19.7424
L57.3020 19.6819
" />
<path d="M57.3020 19.6819
L57.3624 19.5609
" />
<path d="M57.3624 19.5609
L57.4834 19.5005
" />
<path d="M57.4834 19.5005
L57.6648 19.5005
" />
<path d="M57.6648 19.5005
L57.7858 19.5609
" />
<path d="M58.3905 19.5005
L58.3905 20.7705
" />
<path d="M58.3905 19.5609
L58.5115 19.5005
" />
<path d="M58.5115 19.5005
L58.7534 19.5005
" />
<path d="M58.7534 19.5005
L58.8743 19.5609
" />
<path d="M58.8743 19.5609
L58.9348 19.6214
" />
<path d="M58.9348 19.6214
L58.9953 19.7424
" />
<path d="M58.9953 19.7424
L58.9953 20.1052
" />
<path d="M58.9953 20.1052
L58.9348 20.2262
" />
<path d="M58.9348 20.2262
L58.8743 20.2867
" />
<path d="M58.8743 20.2867
L58.7534 20.3471
" />
<path d="M58.7534 20.3471
L58.5115 20.3471
" />
<path d="M58.5115 20.3471
L58.3905 20.2867
" />
<path d="M60.0838 19.5005
L60.0838 20.3471
" />
<path d="M59.7814 19.0167
L59.4791 19.9238
" />
<path d="M59.4791 19.9238
L60.2652 19.9238
" />
<path d="M60.6281 19.0771
L61.4143 19.0771
" />
<path d="M61.4143 19.0771
L60.9909 19.5609
" />
<path d="M60.9909 19.5609
L61.1724 19.5609
" />
<path d="M61.1724 19.5609
L61.2933 19.6214
" />
<path d="M61.2933 19.6214
L61.3538 19.6819
" />
<path d="M61.3538 19.6819
L61.4143 19.8028
" />
<path d="M61.4143 19.8028
L61.4143 20.1052
" />
<path d="M61.4143 20.1052
L61.3538 20.2262
" />
<path d="M61.3538 20.2262
L61.2933 20.2867
" />
<path d="M61.2933 20.2867
L61.1724 20.3471
" />
<path d="M61.1724 20.3471
L60.8095 20.3471
" />
<path d="M60.8095 20.3471
L60.6886 20.2867
" />
<path d="M60.6886 20.2867
L60.6281 20.2262
" />
<path d="M62.2004 19.0771
L62.3214 19.0771
" />
<path d="M62.3214 19.0771
L62.4423 19.1376
" />
<path d="M62.4423 19.1376
L62.5028 19.1981
" />
<path d="M62.5028 19.1981
L62.5633 19.3190
" />
<path d="M62.5633 19.3190
L62.6238 19.5609
" />
<path d="M62.6238 19.5609
L62.6238 19.8633
" />
<path d="M62.6238 19.8633
L62.5633 20.1052
" />
<path d="M62.5633 20.1052
L62.5028 20.2262
" />
<path d="M62.5028 20.2262
L62.4423 20.2867
" />
<path d="M62.4423 20.2867
L62.3214 20.3471
" />
<path d="M62.3214 20.3471
L62.2004 20.3471
" />
<path d="M62.2004 20.3471
L62.0795 20.2867
" />
<path d="M62.0795 20.2867
L62.0190 20.2262
" />
<path d="M62.0190 20.2262
L61.9585 20.1052
" />
<path d="M61.9585 20.1052
L61.8981 19.8633
" />
<path d="M61.8981 19.8633
L61.8981 19.5609
" />
<path d="M61.8981 19.5609
L61.9585 19.3190
" />
<path d="M61.9585 19.3190
L62.0190 19.1981
" />
<path d="M62.0190 19.1981
L62.0795 19.1376
" />
<path d="M62.0795 19.1376
L62.2004 19.0771
" />
<path d="M62.9866 19.5005
L63.4704 19.5005
" />
<path d="M63.1680 20.3471
L63.1680 19.2586
" />
<path d="M63.1680 19.2586
L63.2285 19.1376
" />
<path d="M63.2285 19.1376
L63.3495 19.0771
" />
<path d="M63.3495 19.0771
L63.4704 19.0771
" />
<path d="M63.8333 19.1981
L63.8937 19.1376
" />
<path d="M63.8937 19.1376
L64.0147 19.0771
" />
<path d="M64.0147 19.0771
L64.3171 19.0771
" />
<path d="M64.3171 19.0771
L64.4380 19.1376
" />
<path d="M64.4380 19.1376
L64.4985 19.1981
" />
<path d="M64.4985 19.1981
L64.5590 19.3190
" />
<path d="M64.5590 19.3190
L64.5590 19.4400
" />
<path d="M64.5590 19.4400
L64.4985 19.6214
" />
<path d="M64.4985 19.6214
L63.7728 20.3471
" />
<path d="M63.7728 20.3471
L64.5590 20.3471
" />
<path d="M65.3451 19.0771
L65.4661 19.0771
" />
<path d="M65.4661 19.0771
L65.5870 19.1376
" />
<path d="M65.5870 19.1376
L65.6475 19.1981
" />
<path d="M65.6475 19.1981
L65.7080 19.3190
" />
<path d="M65.7080 19.3190
L65.7685 19.5609
" />
<path d="M65.7685 19.5609
L65.7685 19.8633
" />
<path d="M65.7685 19.8633
L65.7080 20.1052
" />
<path d="M65.7080 20.1052
L65.6475 20.2262
" />
<path d="M65.6475 20.2262
L65.5870 20.2867
" />
<path d="M65.5870 20.2867
L65.4661 20.3471
" />
<path d="M65.4661 20.3471
L65.3451 20.3471
" />
<path d="M65.3451 20.3471
L65.2242 20.2867
" />
<path d="M65.2242 20.2867
L65.1637 20.2262
" />
<path d="M65.1637 20.2262
L65.1032 20.1052
" />
<path d="M65.1032 20.1052
L65.0428 19.8633
" />
<path d="M65.0428 19.8633
L65.0428 19.5609
" />
<path d="M65.0428 19.5609
L65.1032 19.3190
" />
<path d="M65.1032 19.3190
L65.1637 19.1981
" />
<path d="M65.1637 19.1981
L65.2242 19.1376
" />
<path d="M65.2242 19.1376
L65.3451 19.0771
" />
<path d="M66.9780 20.3471
L66.2523 20.3471
" />
<path d="M66.6151 20.3471
L66.6151 19.0771
" />
<path d="M66.6151 19.0771
L66.4942 19.2586
" />
<path d="M66.4942 19.2586
L66.3732 19.3795
" />
<path d="M66.3732 19.3795
L66.2523 19.4400
" />
<path d="M67.4618 19.1981
L67.5222 19.1376
" />
<path d="M67.5222 19.1376
L67.6432 19.0771
" />
<path d="M67.6432 19.0771
L67.9456 19.0771
" />
<path d="M67.9456 19.0771
L68.0665 19.1376
" />
<path d="M68.0665 19.1376
L68.1270 19.1981
" />
<path d="M68.1270 19.1981
L68.1875 19.3190
" />
<path d="M68.1875 19.3190
L68.1875 19.4400
" />
<path d="M68.1875 19.4400
L68.1270 19.6214
" />
<path d="M68.1270 19.6214
L67.4013 20.3471
" />
<path d="M67.4013 20.3471
L68.1875 20.3471
" />
<path d="M68.7317 20.2262
L68.7922 20.2867
" />
<path d="M68.7922 20.2867
L68.7317 20.3471
" />
<path d="M68.7317 20.3471
L68.6713 20.2867
" />
<path d="M68.6713 20.2867
L68.7317 20.2262
" />
<path d="M68.7317 20.2262
L68.7317 20.3471
" />
<path d="M69.3365 19.5005
L69.3365 20.7705
" />
<path d="M69.3365 19.5609
L69.4575 19.5005
" />
<path d="M69.4575 19.5005
L69.6994 19.5005
" />
<path d="M69.6994 19.5005
L69.8203 19.5609
" />
<path d="M69.8203 19.5609
L69.8808 19.6214
" />
<path d="M69.8808 19.6214
L69.9413 19.7424
" />
<path d="M69.9413 19.7424
L69.9413 20.1052
" />
<path d="M69.9413 20.1052
L69.8808 20.2262
" />
<path d="M69.8808 20.2262
L69.8203 20.2867
" />
<path d="M69.8203 20.2867
L69.6994 20.3471
" />
<path d="M69.6994 20.3471
L69.4575 20.3471
" />
<path d="M69.4575 20.3471
L69.3365 20.2867
" />
<path d="M71.0298 20.3471
L71.0298 19.0771
" />
<path d="M71.0298 20.2867
L70.9089 20.3471
" />
<path d="M70.9089 20.3471
L70.6670 20.3471
" />
<path d="M70.6670 20.3471
L70.5460 20.2867
" />
<path d="M70.5460 20.2867
L70.4855 20.2262
" />
<path d="M70.4855 20.2262
L70.4251 20.1052
" />
<path d="M70.4251 20.1052
L70.4251 19.7424
" />
<path d="M70.4251 19.7424
L70.4855 19.6214
" />
<path d="M70.4855 19.6214
L70.5460 19.5609
" />
<path d="M70.5460 19.5609
L70.6670 19.5005
" />
<path d="M70.6670 19.5005
L70.9089 19.5005
" />
<path d="M70.9089 19.5005
L71.0298 19.5609
" />
<path d="M71.4531 19.5005
L71.9369 19.5005
" />
<path d="M71.6345 20.3471
L71.6345 19.2586
" />
<path d="M71.6345 19.2586
L71.6950 19.1376
" />
<path d="M71.6950 19.1376
L71.8160 19.0771
" />
<path d="M71.8160 19.0771
L71.9369 19.0771
" />
</g></g> 
</svg>
