<?xml version="1.0" standalone="no"?>
 <!DOCTYPE svg PUBLIC "-//W3C//DTD SVG 1.1//EN" 
 "http://www.w3.org/Graphics/SVG/1.1/DTD/svg11.dtd"> 
<svg
  xmlns:svg="http://www.w3.org/2000/svg"
  xmlns="http://www.w3.org/2000/svg"
  xmlns:xlink="http://www.w3.org/1999/xlink"
  version="1.1"
  width="97.0788mm" height="9.1440mm" viewBox="0.0000 0.0000 97.0788 9.1440">
<title>SVG Image created as working.svg date 2023/08/31 16:51:06 </title>
  <desc>Image generated by Eeschema-SVG </desc>
<g style="fill:#000000; fill-opacity:1.0000;stroke:#000000; stroke-opacity:1.0000;
stroke-linecap:round; stroke-linejoin:round;"
 transform="translate(0 0) scale(1 1)">
</g>
<g style="fill:#840000; fill-opacity:0.0; 
stroke:#840000; stroke-width:0.0000; stroke-opacity:1; 
stroke-linecap:round; stroke-linejoin:round;">
</g>
<g style="fill:#840084; fill-opacity:0.0; 
stroke:#840084; stroke-width:0.0000; stroke-opacity:1; 
stroke-linecap:round; stroke-linejoin:round;">
</g>
<g style="fill:#840000; fill-opacity:0.0; 
stroke:#840000; stroke-width:0.0000; stroke-opacity:1; 
stroke-linecap:round; stroke-linejoin:round;">
</g>
<g style="fill:#840000; fill-opacity:0.0; 
stroke:#840000; stroke-width:0.1524; stroke-opacity:1; 
stroke-linecap:round; stroke-linejoin:round;">
<path style="fill:#840000; fill-opacity:0.0; 
stroke:#840000; stroke-width:0.1524; stroke-opacity:1; 
stroke-linecap:round; stroke-linejoin:round;fill:none"
d="M 10.6298,7.1121
11.2648,5.8421
" /> 
</g>
<g style="fill:#840000; fill-opacity:0.0; 
stroke:#840000; stroke-width:0.2032; stroke-opacity:1; 
stroke-linecap:round; stroke-linejoin:round;">
<path style="fill:#840000; fill-opacity:0.0; 
stroke:#840000; stroke-width:0.2032; stroke-opacity:1; 
stroke-linecap:round; stroke-linejoin:round;fill:none"
d="M 10.6298,5.8421
13.1698,5.8421
" /> 
</g>
<g style="fill:#840000; fill-opacity:0.0; 
stroke:#840000; stroke-width:0.1524; stroke-opacity:1; 
stroke-linecap:round; stroke-linejoin:round;">
<path style="fill:#840000; fill-opacity:0.0; 
stroke:#840000; stroke-width:0.1524; stroke-opacity:1; 
stroke-linecap:round; stroke-linejoin:round;fill:none"
d="M 11.8998,7.1121
11.8998,2.0321
" /> 
</g>
<g style="fill:#840000; fill-opacity:0.0; 
stroke:#840000; stroke-width:0.2032; stroke-opacity:1; 
stroke-linecap:round; stroke-linejoin:round;">
<path style="fill:#840000; fill-opacity:0.0; 
stroke:#840000; stroke-width:0.2032; stroke-opacity:1; 
stroke-linecap:round; stroke-linejoin:round;fill:none"
d="M 10.6298,3.3021
13.1698,3.3021
11.8998,5.8421
Z" /> 
</g>
<g style="fill:#840000; fill-opacity:0.0; 
stroke:#840000; stroke-width:0.1524; stroke-opacity:1; 
stroke-linecap:round; stroke-linejoin:round;">
<path d="M11.8998 3.3021
L11.8998 0.7621
" />
</g>
<g style="fill:#A90000; fill-opacity:0.0; 
stroke:#A90000; stroke-width:0.1524; stroke-opacity:1; 
stroke-linecap:round; stroke-linejoin:round;">
<g transform="rotate(-90.000000 12.1538 2.0321)">
<text x="12.1538" y="3.3021"
textLength="1.4127" font-size="1.6933" lengthAdjust="spacingAndGlyphs"
text-anchor="middle" opacity="0">1</text>
</g>
<g class="stroked-text"><desc>1</desc>
<path d="M13.4762 1.6691
L13.4762 2.3948
" />
<path d="M13.4762 2.0320
L12.2062 2.0320
" />
<path d="M12.2062 2.0320
L12.3877 2.1529
" />
<path d="M12.3877 2.1529
L12.5086 2.2739
" />
<path d="M12.5086 2.2739
L12.5691 2.3948
" />
</g></g>
<g style="fill:#840000; fill-opacity:0.0; 
stroke:#840000; stroke-width:0.1524; stroke-opacity:1; 
stroke-linecap:round; stroke-linejoin:round;">
<path d="M10.6298 7.1121
L8.0898 7.1121
" />
</g>
<g style="fill:#A90000; fill-opacity:0.0; 
stroke:#A90000; stroke-width:0.1524; stroke-opacity:1; 
stroke-linecap:round; stroke-linejoin:round;">
<text x="9.3598" y="8.6361"
textLength="1.4127" font-size="1.6933" lengthAdjust="spacingAndGlyphs"
text-anchor="middle" opacity="0">2</text>
<g class="stroked-text"><desc>2</desc>
<path d="M8.9970 7.5395
L9.0574 7.4790
" />
<path d="M9.0574 7.4790
L9.1784 7.4185
" />
<path d="M9.1784 7.4185
L9.4808 7.4185
" />
<path d="M9.4808 7.4185
L9.6017 7.4790
" />
<path d="M9.6017 7.4790
L9.6622 7.5395
" />
<path d="M9.6622 7.5395
L9.7227 7.6604
" />
<path d="M9.7227 7.6604
L9.7227 7.7814
" />
<path d="M9.7227 7.7814
L9.6622 7.9628
" />
<path d="M9.6622 7.9628
L8.9365 8.6885
" />
<path d="M8.9365 8.6885
L9.7227 8.6885
" />
</g></g>
<g style="fill:#840000; fill-opacity:0.0; 
stroke:#840000; stroke-width:0.1524; stroke-opacity:1; 
stroke-linecap:round; stroke-linejoin:round;">
<path d="M11.8998 5.8421
L11.8998 8.3821
" />
</g>
<g style="fill:#A90000; fill-opacity:0.0; 
stroke:#A90000; stroke-width:0.1524; stroke-opacity:1; 
stroke-linecap:round; stroke-linejoin:round;">
<g transform="rotate(-90.000000 12.1538 7.1121)">
<text x="12.1538" y="8.3821"
textLength="1.4127" font-size="1.6933" lengthAdjust="spacingAndGlyphs"
text-anchor="middle" opacity="0">3</text>
</g>
<g class="stroked-text"><desc>3</desc>
<path d="M12.2062 7.5353
L12.2062 6.7491
" />
<path d="M12.2062 6.7491
L12.6900 7.1725
" />
<path d="M12.6900 7.1725
L12.6900 6.9910
" />
<path d="M12.6900 6.9910
L12.7505 6.8701
" />
<path d="M12.7505 6.8701
L12.8110 6.8096
" />
<path d="M12.8110 6.8096
L12.9319 6.7491
" />
<path d="M12.9319 6.7491
L13.2343 6.7491
" />
<path d="M13.2343 6.7491
L13.3553 6.8096
" />
<path d="M13.3553 6.8096
L13.4158 6.8701
" />
<path d="M13.4158 6.8701
L13.4762 6.9910
" />
<path d="M13.4762 6.9910
L13.4762 7.3539
" />
<path d="M13.4762 7.3539
L13.4158 7.4748
" />
<path d="M13.4158 7.4748
L13.3553 7.5353
" />
</g></g>
<g style="fill:#840084; fill-opacity:0.0; 
stroke:#840084; stroke-width:0.1524; stroke-opacity:1; 
stroke-linecap:round; stroke-linejoin:round;">
</g>
<g style="fill:#006464; fill-opacity:0.0; 
stroke:#006464; stroke-width:0.1524; stroke-opacity:1; 
stroke-linecap:round; stroke-linejoin:round;">
</g>
<g style="fill:#006464; fill-opacity:0.0; 
stroke:#006464; stroke-width:0.1588; stroke-opacity:1; 
stroke-linecap:round; stroke-linejoin:round;">
<text x="15.7605" y="3.3021"
textLength="2.6415" font-size="1.6933" lengthAdjust="spacingAndGlyphs"
text-anchor="middle" opacity="0">Q?</text>
<g class="stroked-text"><desc>Q?</desc>
<path d="M15.7000 3.3673
L15.5790 3.3068
" />
<path d="M15.5790 3.3068
L15.4581 3.1859
" />
<path d="M15.4581 3.1859
L15.2767 3.0044
" />
<path d="M15.2767 3.0044
L15.1557 2.9439
" />
<path d="M15.1557 2.9439
L15.0348 2.9439
" />
<path d="M15.0952 3.2463
L14.9743 3.1859
" />
<path d="M14.9743 3.1859
L14.8533 3.0649
" />
<path d="M14.8533 3.0649
L14.7929 2.8230
" />
<path d="M14.7929 2.8230
L14.7929 2.3997
" />
<path d="M14.7929 2.3997
L14.8533 2.1578
" />
<path d="M14.8533 2.1578
L14.9743 2.0368
" />
<path d="M14.9743 2.0368
L15.0952 1.9763
" />
<path d="M15.0952 1.9763
L15.3371 1.9763
" />
<path d="M15.3371 1.9763
L15.4581 2.0368
" />
<path d="M15.4581 2.0368
L15.5790 2.1578
" />
<path d="M15.5790 2.1578
L15.6395 2.3997
" />
<path d="M15.6395 2.3997
L15.6395 2.8230
" />
<path d="M15.6395 2.8230
L15.5790 3.0649
" />
<path d="M15.5790 3.0649
L15.4581 3.1859
" />
<path d="M15.4581 3.1859
L15.3371 3.2463
" />
<path d="M15.3371 3.2463
L15.0952 3.2463
" />
<path d="M16.3653 3.1254
L16.4257 3.1859
" />
<path d="M16.4257 3.1859
L16.3653 3.2463
" />
<path d="M16.3653 3.2463
L16.3048 3.1859
" />
<path d="M16.3048 3.1859
L16.3653 3.1254
" />
<path d="M16.3653 3.1254
L16.3653 3.2463
" />
<path d="M16.1234 2.0368
L16.2443 1.9763
" />
<path d="M16.2443 1.9763
L16.5467 1.9763
" />
<path d="M16.5467 1.9763
L16.6676 2.0368
" />
<path d="M16.6676 2.0368
L16.7281 2.1578
" />
<path d="M16.7281 2.1578
L16.7281 2.2787
" />
<path d="M16.7281 2.2787
L16.6676 2.3997
" />
<path d="M16.6676 2.3997
L16.6072 2.4601
" />
<path d="M16.6072 2.4601
L16.4862 2.5206
" />
<path d="M16.4862 2.5206
L16.4257 2.5811
" />
<path d="M16.4257 2.5811
L16.3653 2.7020
" />
<path d="M16.3653 2.7020
L16.3653 2.7625
" />
</g><text x="18.1190" y="5.2071"
textLength="7.3585" font-size="1.6933" lengthAdjust="spacingAndGlyphs"
text-anchor="middle" opacity="0">BT169B</text>
<g class="stroked-text"><desc>BT169B</desc>
<path d="M15.2767 4.4861
L15.4581 4.5466
" />
<path d="M15.4581 4.5466
L15.5186 4.6070
" />
<path d="M15.5186 4.6070
L15.5790 4.7280
" />
<path d="M15.5790 4.7280
L15.5790 4.9094
" />
<path d="M15.5790 4.9094
L15.5186 5.0304
" />
<path d="M15.5186 5.0304
L15.4581 5.0909
" />
<path d="M15.4581 5.0909
L15.3371 5.1513
" />
<path d="M15.3371 5.1513
L14.8533 5.1513
" />
<path d="M14.8533 5.1513
L14.8533 3.8813
" />
<path d="M14.8533 3.8813
L15.2767 3.8813
" />
<path d="M15.2767 3.8813
L15.3976 3.9418
" />
<path d="M15.3976 3.9418
L15.4581 4.0023
" />
<path d="M15.4581 4.0023
L15.5186 4.1232
" />
<path d="M15.5186 4.1232
L15.5186 4.2442
" />
<path d="M15.5186 4.2442
L15.4581 4.3651
" />
<path d="M15.4581 4.3651
L15.3976 4.4256
" />
<path d="M15.3976 4.4256
L15.2767 4.4861
" />
<path d="M15.2767 4.4861
L14.8533 4.4861
" />
<path d="M15.9419 3.8813
L16.6676 3.8813
" />
<path d="M16.3048 5.1513
L16.3048 3.8813
" />
<path d="M17.7562 5.1513
L17.0305 5.1513
" />
<path d="M17.3933 5.1513
L17.3933 3.8813
" />
<path d="M17.3933 3.8813
L17.2724 4.0628
" />
<path d="M17.2724 4.0628
L17.1514 4.1837
" />
<path d="M17.1514 4.1837
L17.0305 4.2442
" />
<path d="M18.8447 3.8813
L18.6028 3.8813
" />
<path d="M18.6028 3.8813
L18.4819 3.9418
" />
<path d="M18.4819 3.9418
L18.4214 4.0023
" />
<path d="M18.4214 4.0023
L18.3004 4.1837
" />
<path d="M18.3004 4.1837
L18.2400 4.4256
" />
<path d="M18.2400 4.4256
L18.2400 4.9094
" />
<path d="M18.2400 4.9094
L18.3004 5.0304
" />
<path d="M18.3004 5.0304
L18.3609 5.0909
" />
<path d="M18.3609 5.0909
L18.4819 5.1513
" />
<path d="M18.4819 5.1513
L18.7238 5.1513
" />
<path d="M18.7238 5.1513
L18.8447 5.0909
" />
<path d="M18.8447 5.0909
L18.9052 5.0304
" />
<path d="M18.9052 5.0304
L18.9657 4.9094
" />
<path d="M18.9657 4.9094
L18.9657 4.6070
" />
<path d="M18.9657 4.6070
L18.9052 4.4861
" />
<path d="M18.9052 4.4861
L18.8447 4.4256
" />
<path d="M18.8447 4.4256
L18.7238 4.3651
" />
<path d="M18.7238 4.3651
L18.4819 4.3651
" />
<path d="M18.4819 4.3651
L18.3609 4.4256
" />
<path d="M18.3609 4.4256
L18.3004 4.4861
" />
<path d="M18.3004 4.4861
L18.2400 4.6070
" />
<path d="M19.5704 5.1513
L19.8123 5.1513
" />
<path d="M19.8123 5.1513
L19.9333 5.0909
" />
<path d="M19.9333 5.0909
L19.9937 5.0304
" />
<path d="M19.9937 5.0304
L20.1147 4.8489
" />
<path d="M20.1147 4.8489
L20.1752 4.6070
" />
<path d="M20.1752 4.6070
L20.1752 4.1232
" />
<path d="M20.1752 4.1232
L20.1147 4.0023
" />
<path d="M20.1147 4.0023
L20.0542 3.9418
" />
<path d="M20.0542 3.9418
L19.9333 3.8813
" />
<path d="M19.9333 3.8813
L19.6914 3.8813
" />
<path d="M19.6914 3.8813
L19.5704 3.9418
" />
<path d="M19.5704 3.9418
L19.5099 4.0023
" />
<path d="M19.5099 4.0023
L19.4495 4.1232
" />
<path d="M19.4495 4.1232
L19.4495 4.4256
" />
<path d="M19.4495 4.4256
L19.5099 4.5466
" />
<path d="M19.5099 4.5466
L19.5704 4.6070
" />
<path d="M19.5704 4.6070
L19.6914 4.6675
" />
<path d="M19.6914 4.6675
L19.9333 4.6675
" />
<path d="M19.9333 4.6675
L20.0542 4.6070
" />
<path d="M20.0542 4.6070
L20.1147 4.5466
" />
<path d="M20.1147 4.5466
L20.1752 4.4256
" />
<path d="M21.1428 4.4861
L21.3242 4.5466
" />
<path d="M21.3242 4.5466
L21.3847 4.6070
" />
<path d="M21.3847 4.6070
L21.4451 4.7280
" />
<path d="M21.4451 4.7280
L21.4451 4.9094
" />
<path d="M21.4451 4.9094
L21.3847 5.0304
" />
<path d="M21.3847 5.0304
L21.3242 5.0909
" />
<path d="M21.3242 5.0909
L21.2032 5.1513
" />
<path d="M21.2032 5.1513
L20.7194 5.1513
" />
<path d="M20.7194 5.1513
L20.7194 3.8813
" />
<path d="M20.7194 3.8813
L21.1428 3.8813
" />
<path d="M21.1428 3.8813
L21.2637 3.9418
" />
<path d="M21.2637 3.9418
L21.3242 4.0023
" />
<path d="M21.3242 4.0023
L21.3847 4.1232
" />
<path d="M21.3847 4.1232
L21.3847 4.2442
" />
<path d="M21.3847 4.2442
L21.3242 4.3651
" />
<path d="M21.3242 4.3651
L21.2637 4.4256
" />
<path d="M21.2637 4.4256
L21.1428 4.4861
" />
<path d="M21.1428 4.4861
L20.7194 4.4861
" />
</g></g>
<g style="fill:#840084; fill-opacity:0.0; 
stroke:#840084; stroke-width:0.1588; stroke-opacity:1; 
stroke-linecap:round; stroke-linejoin:round;">
<text x="31.0609" y="7.1121"
textLength="33.2422" font-size="1.6933" lengthAdjust="spacingAndGlyphs"
text-anchor="middle" opacity="0">Package_TO_SOT_THT:TO-92_Inline</text>
<g class="stroked-text"><desc>Package_TO_SOT_THT:TO-92_Inline</desc>
<path d="M14.8458 7.0563
L15.0045 5.7863
" />
<path d="M15.0045 5.7863
L15.4883 5.7863
" />
<path d="M15.4883 5.7863
L15.6017 5.8468
" />
<path d="M15.6017 5.8468
L15.6546 5.9073
" />
<path d="M15.6546 5.9073
L15.7000 6.0282
" />
<path d="M15.7000 6.0282
L15.6773 6.2097
" />
<path d="M15.6773 6.2097
L15.6017 6.3306
" />
<path d="M15.6017 6.3306
L15.5337 6.3911
" />
<path d="M15.5337 6.3911
L15.4052 6.4516
" />
<path d="M15.4052 6.4516
L14.9214 6.4516
" />
<path d="M16.6601 7.0563
L16.7432 6.3911
" />
<path d="M16.7432 6.3911
L16.6979 6.2701
" />
<path d="M16.6979 6.2701
L16.5845 6.2097
" />
<path d="M16.5845 6.2097
L16.3426 6.2097
" />
<path d="M16.3426 6.2097
L16.2140 6.2701
" />
<path d="M16.6676 6.9959
L16.5391 7.0563
" />
<path d="M16.5391 7.0563
L16.2367 7.0563
" />
<path d="M16.2367 7.0563
L16.1233 6.9959
" />
<path d="M16.1233 6.9959
L16.0780 6.8749
" />
<path d="M16.0780 6.8749
L16.0931 6.7539
" />
<path d="M16.0931 6.7539
L16.1687 6.6330
" />
<path d="M16.1687 6.6330
L16.2972 6.5725
" />
<path d="M16.2972 6.5725
L16.5996 6.5725
" />
<path d="M16.5996 6.5725
L16.7281 6.5120
" />
<path d="M17.8166 6.9959
L17.6881 7.0563
" />
<path d="M17.6881 7.0563
L17.4462 7.0563
" />
<path d="M17.4462 7.0563
L17.3328 6.9959
" />
<path d="M17.3328 6.9959
L17.2799 6.9354
" />
<path d="M17.2799 6.9354
L17.2345 6.8144
" />
<path d="M17.2345 6.8144
L17.2799 6.4516
" />
<path d="M17.2799 6.4516
L17.3555 6.3306
" />
<path d="M17.3555 6.3306
L17.4235 6.2701
" />
<path d="M17.4235 6.2701
L17.5520 6.2097
" />
<path d="M17.5520 6.2097
L17.7939 6.2097
" />
<path d="M17.7939 6.2097
L17.9073 6.2701
" />
<path d="M18.3534 7.0563
L18.5121 5.7863
" />
<path d="M18.5348 6.5725
L18.8372 7.0563
" />
<path d="M18.9430 6.2097
L18.3987 6.6935
" />
<path d="M19.9258 7.0563
L20.0089 6.3911
" />
<path d="M20.0089 6.3911
L19.9636 6.2701
" />
<path d="M19.9636 6.2701
L19.8502 6.2097
" />
<path d="M19.8502 6.2097
L19.6083 6.2097
" />
<path d="M19.6083 6.2097
L19.4797 6.2701
" />
<path d="M19.9333 6.9959
L19.8048 7.0563
" />
<path d="M19.8048 7.0563
L19.5024 7.0563
" />
<path d="M19.5024 7.0563
L19.3890 6.9959
" />
<path d="M19.3890 6.9959
L19.3437 6.8749
" />
<path d="M19.3437 6.8749
L19.3588 6.7539
" />
<path d="M19.3588 6.7539
L19.4344 6.6330
" />
<path d="M19.4344 6.6330
L19.5629 6.5725
" />
<path d="M19.5629 6.5725
L19.8653 6.5725
" />
<path d="M19.8653 6.5725
L19.9938 6.5120
" />
<path d="M21.1806 6.2097
L21.0521 7.2378
" />
<path d="M21.0521 7.2378
L20.9765 7.3587
" />
<path d="M20.9765 7.3587
L20.9084 7.4192
" />
<path d="M20.9084 7.4192
L20.7799 7.4797
" />
<path d="M20.7799 7.4797
L20.5985 7.4797
" />
<path d="M20.5985 7.4797
L20.4851 7.4192
" />
<path d="M21.0823 6.9959
L20.9538 7.0563
" />
<path d="M20.9538 7.0563
L20.7119 7.0563
" />
<path d="M20.7119 7.0563
L20.5985 6.9959
" />
<path d="M20.5985 6.9959
L20.5456 6.9354
" />
<path d="M20.5456 6.9354
L20.5002 6.8144
" />
<path d="M20.5002 6.8144
L20.5456 6.4516
" />
<path d="M20.5456 6.4516
L20.6212 6.3306
" />
<path d="M20.6212 6.3306
L20.6892 6.2701
" />
<path d="M20.6892 6.2701
L20.8177 6.2097
" />
<path d="M20.8177 6.2097
L21.0596 6.2097
" />
<path d="M21.0596 6.2097
L21.1730 6.2701
" />
<path d="M22.1708 6.9959
L22.0423 7.0563
" />
<path d="M22.0423 7.0563
L21.8004 7.0563
" />
<path d="M21.8004 7.0563
L21.6870 6.9959
" />
<path d="M21.6870 6.9959
L21.6417 6.8749
" />
<path d="M21.6417 6.8749
L21.7022 6.3911
" />
<path d="M21.7022 6.3911
L21.7777 6.2701
" />
<path d="M21.7777 6.2701
L21.9063 6.2097
" />
<path d="M21.9063 6.2097
L22.1482 6.2097
" />
<path d="M22.1482 6.2097
L22.2616 6.2701
" />
<path d="M22.2616 6.2701
L22.3069 6.3911
" />
<path d="M22.3069 6.3911
L22.2918 6.5120
" />
<path d="M22.2918 6.5120
L21.6719 6.6330
" />
<path d="M22.4506 7.1773
L23.4182 7.1773
" />
<path d="M23.7130 5.7863
L24.4387 5.7863
" />
<path d="M23.9171 7.0563
L24.0759 5.7863
" />
<path d="M25.1039 5.7863
L25.3458 5.7863
" />
<path d="M25.3458 5.7863
L25.4592 5.8468
" />
<path d="M25.4592 5.8468
L25.5651 5.9678
" />
<path d="M25.5651 5.9678
L25.5953 6.2097
" />
<path d="M25.5953 6.2097
L25.5424 6.6330
" />
<path d="M25.5424 6.6330
L25.4517 6.8749
" />
<path d="M25.4517 6.8749
L25.3156 6.9959
" />
<path d="M25.3156 6.9959
L25.1871 7.0563
" />
<path d="M25.1871 7.0563
L24.9452 7.0563
" />
<path d="M24.9452 7.0563
L24.8318 6.9959
" />
<path d="M24.8318 6.9959
L24.7260 6.8749
" />
<path d="M24.7260 6.8749
L24.6957 6.6330
" />
<path d="M24.6957 6.6330
L24.7486 6.2097
" />
<path d="M24.7486 6.2097
L24.8393 5.9678
" />
<path d="M24.8393 5.9678
L24.9754 5.8468
" />
<path d="M24.9754 5.8468
L25.1039 5.7863
" />
<path d="M25.7163 7.1773
L26.6839 7.1773
" />
<path d="M26.9485 6.9959
L27.1223 7.0563
" />
<path d="M27.1223 7.0563
L27.4247 7.0563
" />
<path d="M27.4247 7.0563
L27.5532 6.9959
" />
<path d="M27.5532 6.9959
L27.6213 6.9354
" />
<path d="M27.6213 6.9354
L27.6968 6.8144
" />
<path d="M27.6968 6.8144
L27.7120 6.6935
" />
<path d="M27.7120 6.6935
L27.6666 6.5725
" />
<path d="M27.6666 6.5725
L27.6137 6.5120
" />
<path d="M27.6137 6.5120
L27.5003 6.4516
" />
<path d="M27.5003 6.4516
L27.2660 6.3911
" />
<path d="M27.2660 6.3911
L27.1526 6.3306
" />
<path d="M27.1526 6.3306
L27.0996 6.2701
" />
<path d="M27.0996 6.2701
L27.0543 6.1492
" />
<path d="M27.0543 6.1492
L27.0694 6.0282
" />
<path d="M27.0694 6.0282
L27.1450 5.9073
" />
<path d="M27.1450 5.9073
L27.2130 5.8468
" />
<path d="M27.2130 5.8468
L27.3416 5.7863
" />
<path d="M27.3416 5.7863
L27.6439 5.7863
" />
<path d="M27.6439 5.7863
L27.8178 5.8468
" />
<path d="M28.6115 5.7863
L28.8534 5.7863
" />
<path d="M28.8534 5.7863
L28.9668 5.8468
" />
<path d="M28.9668 5.8468
L29.0727 5.9678
" />
<path d="M29.0727 5.9678
L29.1029 6.2097
" />
<path d="M29.1029 6.2097
L29.0500 6.6330
" />
<path d="M29.0500 6.6330
L28.9593 6.8749
" />
<path d="M28.9593 6.8749
L28.8232 6.9959
" />
<path d="M28.8232 6.9959
L28.6947 7.0563
" />
<path d="M28.6947 7.0563
L28.4528 7.0563
" />
<path d="M28.4528 7.0563
L28.3394 6.9959
" />
<path d="M28.3394 6.9959
L28.2336 6.8749
" />
<path d="M28.2336 6.8749
L28.2033 6.6330
" />
<path d="M28.2033 6.6330
L28.2562 6.2097
" />
<path d="M28.2562 6.2097
L28.3469 5.9678
" />
<path d="M28.3469 5.9678
L28.4830 5.8468
" />
<path d="M28.4830 5.8468
L28.6115 5.7863
" />
<path d="M29.5187 5.7863
L30.2444 5.7863
" />
<path d="M29.7228 7.0563
L29.8816 5.7863
" />
<path d="M30.1915 7.1773
L31.1591 7.1773
" />
<path d="M31.4539 5.7863
L32.1796 5.7863
" />
<path d="M31.6580 7.0563
L31.8168 5.7863
" />
<path d="M32.4442 7.0563
L32.6029 5.7863
" />
<path d="M32.5273 6.3911
L33.2530 6.3911
" />
<path d="M33.1699 7.0563
L33.3286 5.7863
" />
<path d="M33.7520 5.7863
L34.4777 5.7863
" />
<path d="M33.9561 7.0563
L34.1149 5.7863
" />
<path d="M34.7574 6.9354
L34.8103 6.9959
" />
<path d="M34.8103 6.9959
L34.7423 7.0563
" />
<path d="M34.7423 7.0563
L34.6894 6.9959
" />
<path d="M34.6894 6.9959
L34.7574 6.9354
" />
<path d="M34.7574 6.9354
L34.7423 7.0563
" />
<path d="M34.8405 6.2701
L34.8935 6.3306
" />
<path d="M34.8935 6.3306
L34.8254 6.3911
" />
<path d="M34.8254 6.3911
L34.7725 6.3306
" />
<path d="M34.7725 6.3306
L34.8405 6.2701
" />
<path d="M34.8405 6.2701
L34.8254 6.3911
" />
<path d="M35.3244 5.7863
L36.0501 5.7863
" />
<path d="M35.5285 7.0563
L35.6873 5.7863
" />
<path d="M36.7153 5.7863
L36.9572 5.7863
" />
<path d="M36.9572 5.7863
L37.0706 5.8468
" />
<path d="M37.0706 5.8468
L37.1765 5.9678
" />
<path d="M37.1765 5.9678
L37.2067 6.2097
" />
<path d="M37.2067 6.2097
L37.1538 6.6330
" />
<path d="M37.1538 6.6330
L37.0631 6.8749
" />
<path d="M37.0631 6.8749
L36.9270 6.9959
" />
<path d="M36.9270 6.9959
L36.7985 7.0563
" />
<path d="M36.7985 7.0563
L36.5566 7.0563
" />
<path d="M36.5566 7.0563
L36.4432 6.9959
" />
<path d="M36.4432 6.9959
L36.3374 6.8749
" />
<path d="M36.3374 6.8749
L36.3071 6.6330
" />
<path d="M36.3071 6.6330
L36.3600 6.2097
" />
<path d="M36.3600 6.2097
L36.4507 5.9678
" />
<path d="M36.4507 5.9678
L36.5868 5.8468
" />
<path d="M36.5868 5.8468
L36.7153 5.7863
" />
<path d="M37.7056 6.5725
L38.6733 6.5725
" />
<path d="M39.2780 7.0563
L39.5200 7.0563
" />
<path d="M39.5200 7.0563
L39.6485 6.9959
" />
<path d="M39.6485 6.9959
L39.7165 6.9354
" />
<path d="M39.7165 6.9354
L39.8601 6.7539
" />
<path d="M39.8601 6.7539
L39.9508 6.5120
" />
<path d="M39.9508 6.5120
L40.0113 6.0282
" />
<path d="M40.0113 6.0282
L39.9660 5.9073
" />
<path d="M39.9660 5.9073
L39.9130 5.8468
" />
<path d="M39.9130 5.8468
L39.7997 5.7863
" />
<path d="M39.7997 5.7863
L39.5578 5.7863
" />
<path d="M39.5578 5.7863
L39.4292 5.8468
" />
<path d="M39.4292 5.8468
L39.3612 5.9073
" />
<path d="M39.3612 5.9073
L39.2856 6.0282
" />
<path d="M39.2856 6.0282
L39.2478 6.3306
" />
<path d="M39.2478 6.3306
L39.2932 6.4516
" />
<path d="M39.2932 6.4516
L39.3461 6.5120
" />
<path d="M39.3461 6.5120
L39.4595 6.5725
" />
<path d="M39.4595 6.5725
L39.7014 6.5725
" />
<path d="M39.7014 6.5725
L39.8299 6.5120
" />
<path d="M39.8299 6.5120
L39.8979 6.4516
" />
<path d="M39.8979 6.4516
L39.9735 6.3306
" />
<path d="M40.5102 5.9073
L40.5783 5.8468
" />
<path d="M40.5783 5.8468
L40.7068 5.7863
" />
<path d="M40.7068 5.7863
L41.0092 5.7863
" />
<path d="M41.0092 5.7863
L41.1225 5.8468
" />
<path d="M41.1225 5.8468
L41.1755 5.9073
" />
<path d="M41.1755 5.9073
L41.2208 6.0282
" />
<path d="M41.2208 6.0282
L41.2057 6.1492
" />
<path d="M41.2057 6.1492
L41.1225 6.3306
" />
<path d="M41.1225 6.3306
L40.3061 7.0563
" />
<path d="M40.3061 7.0563
L41.0923 7.0563
" />
<path d="M41.3191 7.1773
L42.2867 7.1773
" />
<path d="M42.6042 7.0563
L42.7629 5.7863
" />
<path d="M43.3148 6.2097
L43.2090 7.0563
" />
<path d="M43.2997 6.3306
L43.3677 6.2701
" />
<path d="M43.3677 6.2701
L43.4962 6.2097
" />
<path d="M43.4962 6.2097
L43.6777 6.2097
" />
<path d="M43.6777 6.2097
L43.7911 6.2701
" />
<path d="M43.7911 6.2701
L43.8364 6.3911
" />
<path d="M43.8364 6.3911
L43.7533 7.0563
" />
<path d="M44.5394 7.0563
L44.4260 6.9959
" />
<path d="M44.4260 6.9959
L44.3807 6.8749
" />
<path d="M44.3807 6.8749
L44.5167 5.7863
" />
<path d="M45.0232 7.0563
L45.1290 6.2097
" />
<path d="M45.1819 5.7863
L45.1139 5.8468
" />
<path d="M45.1139 5.8468
L45.1668 5.9073
" />
<path d="M45.1668 5.9073
L45.2348 5.8468
" />
<path d="M45.2348 5.8468
L45.1819 5.7863
" />
<path d="M45.1819 5.7863
L45.1668 5.9073
" />
<path d="M45.7338 6.2097
L45.6280 7.0563
" />
<path d="M45.7187 6.3306
L45.7867 6.2701
" />
<path d="M45.7867 6.2701
L45.9152 6.2097
" />
<path d="M45.9152 6.2097
L46.0967 6.2097
" />
<path d="M46.0967 6.2097
L46.2101 6.2701
" />
<path d="M46.2101 6.2701
L46.2554 6.3911
" />
<path d="M46.2554 6.3911
L46.1723 7.0563
" />
<path d="M47.2683 6.9959
L47.1398 7.0563
" />
<path d="M47.1398 7.0563
L46.8979 7.0563
" />
<path d="M46.8979 7.0563
L46.7845 6.9959
" />
<path d="M46.7845 6.9959
L46.7392 6.8749
" />
<path d="M46.7392 6.8749
L46.7997 6.3911
" />
<path d="M46.7997 6.3911
L46.8752 6.2701
" />
<path d="M46.8752 6.2701
L47.0038 6.2097
" />
<path d="M47.0038 6.2097
L47.2457 6.2097
" />
<path d="M47.2457 6.2097
L47.3591 6.2701
" />
<path d="M47.3591 6.2701
L47.4044 6.3911
" />
<path d="M47.4044 6.3911
L47.3893 6.5120
" />
<path d="M47.3893 6.5120
L46.7694 6.6330
" />
</g><text x="50.4434" y="5.2071"
textLength="77.0872" font-size="1.6933" lengthAdjust="spacingAndGlyphs"
text-anchor="middle" opacity="0">https://media.digikey.com/pdf/Data%20Sheets/NXP%20PDFs/BT169_Series.pdf</text>
<g class="stroked-text"><desc>https://media.digikey.com/pdf/Data%20Sheets/NXP%20PDFs/BT169_Series.pdf</desc>
<path d="M12.3133 5.1513
L12.3133 3.8813
" />
<path d="M12.8576 5.1513
L12.8576 4.4861
" />
<path d="M12.8576 4.4861
L12.7971 4.3651
" />
<path d="M12.7971 4.3651
L12.6762 4.3047
" />
<path d="M12.6762 4.3047
L12.4948 4.3047
" />
<path d="M12.4948 4.3047
L12.3738 4.3651
" />
<path d="M12.3738 4.3651
L12.3133 4.4256
" />
<path d="M13.2809 4.3047
L13.7647 4.3047
" />
<path d="M13.4623 3.8813
L13.4623 4.9699
" />
<path d="M13.4623 4.9699
L13.5228 5.0909
" />
<path d="M13.5228 5.0909
L13.6438 5.1513
" />
<path d="M13.6438 5.1513
L13.7647 5.1513
" />
<path d="M14.0066 4.3047
L14.4904 4.3047
" />
<path d="M14.1880 3.8813
L14.1880 4.9699
" />
<path d="M14.1880 4.9699
L14.2485 5.0909
" />
<path d="M14.2485 5.0909
L14.3695 5.1513
" />
<path d="M14.3695 5.1513
L14.4904 5.1513
" />
<path d="M14.9137 4.3047
L14.9137 5.5747
" />
<path d="M14.9137 4.3651
L15.0347 4.3047
" />
<path d="M15.0347 4.3047
L15.2766 4.3047
" />
<path d="M15.2766 4.3047
L15.3975 4.3651
" />
<path d="M15.3975 4.3651
L15.4580 4.4256
" />
<path d="M15.4580 4.4256
L15.5185 4.5466
" />
<path d="M15.5185 4.5466
L15.5185 4.9094
" />
<path d="M15.5185 4.9094
L15.4580 5.0304
" />
<path d="M15.4580 5.0304
L15.3975 5.0909
" />
<path d="M15.3975 5.0909
L15.2766 5.1513
" />
<path d="M15.2766 5.1513
L15.0347 5.1513
" />
<path d="M15.0347 5.1513
L14.9137 5.0909
" />
<path d="M16.0023 5.0909
L16.1232 5.1513
" />
<path d="M16.1232 5.1513
L16.3651 5.1513
" />
<path d="M16.3651 5.1513
L16.4861 5.0909
" />
<path d="M16.4861 5.0909
L16.5465 4.9699
" />
<path d="M16.5465 4.9699
L16.5465 4.9094
" />
<path d="M16.5465 4.9094
L16.4861 4.7885
" />
<path d="M16.4861 4.7885
L16.3651 4.7280
" />
<path d="M16.3651 4.7280
L16.1837 4.7280
" />
<path d="M16.1837 4.7280
L16.0627 4.6675
" />
<path d="M16.0627 4.6675
L16.0023 4.5466
" />
<path d="M16.0023 4.5466
L16.0023 4.4861
" />
<path d="M16.0023 4.4861
L16.0627 4.3651
" />
<path d="M16.0627 4.3651
L16.1837 4.3047
" />
<path d="M16.1837 4.3047
L16.3651 4.3047
" />
<path d="M16.3651 4.3047
L16.4861 4.3651
" />
<path d="M17.0908 5.0304
L17.1513 5.0909
" />
<path d="M17.1513 5.0909
L17.0908 5.1513
" />
<path d="M17.0908 5.1513
L17.0304 5.0909
" />
<path d="M17.0304 5.0909
L17.0908 5.0304
" />
<path d="M17.0908 5.0304
L17.0908 5.1513
" />
<path d="M17.0908 4.3651
L17.1513 4.4256
" />
<path d="M17.1513 4.4256
L17.0908 4.4861
" />
<path d="M17.0908 4.4861
L17.0304 4.4256
" />
<path d="M17.0304 4.4256
L17.0908 4.3651
" />
<path d="M17.0908 4.3651
L17.0908 4.4861
" />
<path d="M18.6028 3.8209
L17.5142 5.4537
" />
<path d="M19.9333 3.8209
L18.8447 5.4537
" />
<path d="M20.3566 5.1513
L20.3566 4.3047
" />
<path d="M20.3566 4.4256
L20.4171 4.3651
" />
<path d="M20.4171 4.3651
L20.5381 4.3047
" />
<path d="M20.5381 4.3047
L20.7195 4.3047
" />
<path d="M20.7195 4.3047
L20.8404 4.3651
" />
<path d="M20.8404 4.3651
L20.9009 4.4861
" />
<path d="M20.9009 4.4861
L20.9009 5.1513
" />
<path d="M20.9009 4.4861
L20.9614 4.3651
" />
<path d="M20.9614 4.3651
L21.0823 4.3047
" />
<path d="M21.0823 4.3047
L21.2638 4.3047
" />
<path d="M21.2638 4.3047
L21.3847 4.3651
" />
<path d="M21.3847 4.3651
L21.4452 4.4861
" />
<path d="M21.4452 4.4861
L21.4452 5.1513
" />
<path d="M22.5337 5.0909
L22.4128 5.1513
" />
<path d="M22.4128 5.1513
L22.1709 5.1513
" />
<path d="M22.1709 5.1513
L22.0499 5.0909
" />
<path d="M22.0499 5.0909
L21.9895 4.9699
" />
<path d="M21.9895 4.9699
L21.9895 4.4861
" />
<path d="M21.9895 4.4861
L22.0499 4.3651
" />
<path d="M22.0499 4.3651
L22.1709 4.3047
" />
<path d="M22.1709 4.3047
L22.4128 4.3047
" />
<path d="M22.4128 4.3047
L22.5337 4.3651
" />
<path d="M22.5337 4.3651
L22.5942 4.4861
" />
<path d="M22.5942 4.4861
L22.5942 4.6070
" />
<path d="M22.5942 4.6070
L21.9895 4.7280
" />
<path d="M23.6828 5.1513
L23.6828 3.8813
" />
<path d="M23.6828 5.0909
L23.5619 5.1513
" />
<path d="M23.5619 5.1513
L23.3200 5.1513
" />
<path d="M23.3200 5.1513
L23.1990 5.0909
" />
<path d="M23.1990 5.0909
L23.1385 5.0304
" />
<path d="M23.1385 5.0304
L23.0781 4.9094
" />
<path d="M23.0781 4.9094
L23.0781 4.5466
" />
<path d="M23.0781 4.5466
L23.1385 4.4256
" />
<path d="M23.1385 4.4256
L23.1990 4.3651
" />
<path d="M23.1990 4.3651
L23.3200 4.3047
" />
<path d="M23.3200 4.3047
L23.5619 4.3047
" />
<path d="M23.5619 4.3047
L23.6828 4.3651
" />
<path d="M24.2875 5.1513
L24.2875 4.3047
" />
<path d="M24.2875 3.8813
L24.2271 3.9418
" />
<path d="M24.2271 3.9418
L24.2875 4.0023
" />
<path d="M24.2875 4.0023
L24.3480 3.9418
" />
<path d="M24.3480 3.9418
L24.2875 3.8813
" />
<path d="M24.2875 3.8813
L24.2875 4.0023
" />
<path d="M25.4366 5.1513
L25.4366 4.4861
" />
<path d="M25.4366 4.4861
L25.3761 4.3651
" />
<path d="M25.3761 4.3651
L25.2552 4.3047
" />
<path d="M25.2552 4.3047
L25.0133 4.3047
" />
<path d="M25.0133 4.3047
L24.8923 4.3651
" />
<path d="M25.4366 5.0909
L25.3157 5.1513
" />
<path d="M25.3157 5.1513
L25.0133 5.1513
" />
<path d="M25.0133 5.1513
L24.8923 5.0909
" />
<path d="M24.8923 5.0909
L24.8319 4.9699
" />
<path d="M24.8319 4.9699
L24.8319 4.8489
" />
<path d="M24.8319 4.8489
L24.8923 4.7280
" />
<path d="M24.8923 4.7280
L25.0133 4.6675
" />
<path d="M25.0133 4.6675
L25.3157 4.6675
" />
<path d="M25.3157 4.6675
L25.4366 4.6070
" />
<path d="M26.0413 5.0304
L26.1018 5.0909
" />
<path d="M26.1018 5.0909
L26.0413 5.1513
" />
<path d="M26.0413 5.1513
L25.9809 5.0909
" />
<path d="M25.9809 5.0909
L26.0413 5.0304
" />
<path d="M26.0413 5.0304
L26.0413 5.1513
" />
<path d="M27.1904 5.1513
L27.1904 3.8813
" />
<path d="M27.1904 5.0909
L27.0695 5.1513
" />
<path d="M27.0695 5.1513
L26.8276 5.1513
" />
<path d="M26.8276 5.1513
L26.7066 5.0909
" />
<path d="M26.7066 5.0909
L26.6461 5.0304
" />
<path d="M26.6461 5.0304
L26.5857 4.9094
" />
<path d="M26.5857 4.9094
L26.5857 4.5466
" />
<path d="M26.5857 4.5466
L26.6461 4.4256
" />
<path d="M26.6461 4.4256
L26.7066 4.3651
" />
<path d="M26.7066 4.3651
L26.8276 4.3047
" />
<path d="M26.8276 4.3047
L27.0695 4.3047
" />
<path d="M27.0695 4.3047
L27.1904 4.3651
" />
<path d="M27.7951 5.1513
L27.7951 4.3047
" />
<path d="M27.7951 3.8813
L27.7347 3.9418
" />
<path d="M27.7347 3.9418
L27.7951 4.0023
" />
<path d="M27.7951 4.0023
L27.8556 3.9418
" />
<path d="M27.8556 3.9418
L27.7951 3.8813
" />
<path d="M27.7951 3.8813
L27.7951 4.0023
" />
<path d="M28.9442 4.3047
L28.9442 5.3328
" />
<path d="M28.9442 5.3328
L28.8837 5.4537
" />
<path d="M28.8837 5.4537
L28.8233 5.5142
" />
<path d="M28.8233 5.5142
L28.7023 5.5747
" />
<path d="M28.7023 5.5747
L28.5209 5.5747
" />
<path d="M28.5209 5.5747
L28.3999 5.5142
" />
<path d="M28.9442 5.0909
L28.8233 5.1513
" />
<path d="M28.8233 5.1513
L28.5814 5.1513
" />
<path d="M28.5814 5.1513
L28.4604 5.0909
" />
<path d="M28.4604 5.0909
L28.3999 5.0304
" />
<path d="M28.3999 5.0304
L28.3395 4.9094
" />
<path d="M28.3395 4.9094
L28.3395 4.5466
" />
<path d="M28.3395 4.5466
L28.3999 4.4256
" />
<path d="M28.3999 4.4256
L28.4604 4.3651
" />
<path d="M28.4604 4.3651
L28.5814 4.3047
" />
<path d="M28.5814 4.3047
L28.8233 4.3047
" />
<path d="M28.8233 4.3047
L28.9442 4.3651
" />
<path d="M29.5489 5.1513
L29.5489 4.3047
" />
<path d="M29.5489 3.8813
L29.4885 3.9418
" />
<path d="M29.4885 3.9418
L29.5489 4.0023
" />
<path d="M29.5489 4.0023
L29.6094 3.9418
" />
<path d="M29.6094 3.9418
L29.5489 3.8813
" />
<path d="M29.5489 3.8813
L29.5489 4.0023
" />
<path d="M30.1537 5.1513
L30.1537 3.8813
" />
<path d="M30.2747 4.6675
L30.6375 5.1513
" />
<path d="M30.6375 4.3047
L30.1537 4.7885
" />
<path d="M31.6656 5.0909
L31.5447 5.1513
" />
<path d="M31.5447 5.1513
L31.3028 5.1513
" />
<path d="M31.3028 5.1513
L31.1818 5.0909
" />
<path d="M31.1818 5.0909
L31.1214 4.9699
" />
<path d="M31.1214 4.9699
L31.1214 4.4861
" />
<path d="M31.1214 4.4861
L31.1818 4.3651
" />
<path d="M31.1818 4.3651
L31.3028 4.3047
" />
<path d="M31.3028 4.3047
L31.5447 4.3047
" />
<path d="M31.5447 4.3047
L31.6656 4.3651
" />
<path d="M31.6656 4.3651
L31.7261 4.4861
" />
<path d="M31.7261 4.4861
L31.7261 4.6070
" />
<path d="M31.7261 4.6070
L31.1214 4.7280
" />
<path d="M32.1495 4.3047
L32.4519 5.1513
" />
<path d="M32.7542 4.3047
L32.4519 5.1513
" />
<path d="M32.4519 5.1513
L32.3309 5.4537
" />
<path d="M32.3309 5.4537
L32.2704 5.5142
" />
<path d="M32.2704 5.5142
L32.1495 5.5747
" />
<path d="M33.2380 5.0304
L33.2985 5.0909
" />
<path d="M33.2985 5.0909
L33.2380 5.1513
" />
<path d="M33.2380 5.1513
L33.1776 5.0909
" />
<path d="M33.1776 5.0909
L33.2380 5.0304
" />
<path d="M33.2380 5.0304
L33.2380 5.1513
" />
<path d="M34.3871 5.0909
L34.2662 5.1513
" />
<path d="M34.2662 5.1513
L34.0243 5.1513
" />
<path d="M34.0243 5.1513
L33.9033 5.0909
" />
<path d="M33.9033 5.0909
L33.8428 5.0304
" />
<path d="M33.8428 5.0304
L33.7824 4.9094
" />
<path d="M33.7824 4.9094
L33.7824 4.5466
" />
<path d="M33.7824 4.5466
L33.8428 4.4256
" />
<path d="M33.8428 4.4256
L33.9033 4.3651
" />
<path d="M33.9033 4.3651
L34.0243 4.3047
" />
<path d="M34.0243 4.3047
L34.2662 4.3047
" />
<path d="M34.2662 4.3047
L34.3871 4.3651
" />
<path d="M35.1129 5.1513
L34.9919 5.0909
" />
<path d="M34.9919 5.0909
L34.9314 5.0304
" />
<path d="M34.9314 5.0304
L34.8710 4.9094
" />
<path d="M34.8710 4.9094
L34.8710 4.5466
" />
<path d="M34.8710 4.5466
L34.9314 4.4256
" />
<path d="M34.9314 4.4256
L34.9919 4.3651
" />
<path d="M34.9919 4.3651
L35.1129 4.3047
" />
<path d="M35.1129 4.3047
L35.2943 4.3047
" />
<path d="M35.2943 4.3047
L35.4152 4.3651
" />
<path d="M35.4152 4.3651
L35.4757 4.4256
" />
<path d="M35.4757 4.4256
L35.5362 4.5466
" />
<path d="M35.5362 4.5466
L35.5362 4.9094
" />
<path d="M35.5362 4.9094
L35.4757 5.0304
" />
<path d="M35.4757 5.0304
L35.4152 5.0909
" />
<path d="M35.4152 5.0909
L35.2943 5.1513
" />
<path d="M35.2943 5.1513
L35.1129 5.1513
" />
<path d="M36.0804 5.1513
L36.0804 4.3047
" />
<path d="M36.0804 4.4256
L36.1409 4.3651
" />
<path d="M36.1409 4.3651
L36.2619 4.3047
" />
<path d="M36.2619 4.3047
L36.4433 4.3047
" />
<path d="M36.4433 4.3047
L36.5642 4.3651
" />
<path d="M36.5642 4.3651
L36.6247 4.4861
" />
<path d="M36.6247 4.4861
L36.6247 5.1513
" />
<path d="M36.6247 4.4861
L36.6852 4.3651
" />
<path d="M36.6852 4.3651
L36.8061 4.3047
" />
<path d="M36.8061 4.3047
L36.9876 4.3047
" />
<path d="M36.9876 4.3047
L37.1085 4.3651
" />
<path d="M37.1085 4.3651
L37.1690 4.4861
" />
<path d="M37.1690 4.4861
L37.1690 5.1513
" />
<path d="M38.6809 3.8209
L37.5923 5.4537
" />
<path d="M39.1042 4.3047
L39.1042 5.5747
" />
<path d="M39.1042 4.3651
L39.2252 4.3047
" />
<path d="M39.2252 4.3047
L39.4671 4.3047
" />
<path d="M39.4671 4.3047
L39.5880 4.3651
" />
<path d="M39.5880 4.3651
L39.6485 4.4256
" />
<path d="M39.6485 4.4256
L39.7090 4.5466
" />
<path d="M39.7090 4.5466
L39.7090 4.9094
" />
<path d="M39.7090 4.9094
L39.6485 5.0304
" />
<path d="M39.6485 5.0304
L39.5880 5.0909
" />
<path d="M39.5880 5.0909
L39.4671 5.1513
" />
<path d="M39.4671 5.1513
L39.2252 5.1513
" />
<path d="M39.2252 5.1513
L39.1042 5.0909
" />
<path d="M40.7975 5.1513
L40.7975 3.8813
" />
<path d="M40.7975 5.0909
L40.6766 5.1513
" />
<path d="M40.6766 5.1513
L40.4347 5.1513
" />
<path d="M40.4347 5.1513
L40.3137 5.0909
" />
<path d="M40.3137 5.0909
L40.2532 5.0304
" />
<path d="M40.2532 5.0304
L40.1928 4.9094
" />
<path d="M40.1928 4.9094
L40.1928 4.5466
" />
<path d="M40.1928 4.5466
L40.2532 4.4256
" />
<path d="M40.2532 4.4256
L40.3137 4.3651
" />
<path d="M40.3137 4.3651
L40.4347 4.3047
" />
<path d="M40.4347 4.3047
L40.6766 4.3047
" />
<path d="M40.6766 4.3047
L40.7975 4.3651
" />
<path d="M41.2208 4.3047
L41.7046 4.3047
" />
<path d="M41.4022 5.1513
L41.4022 4.0628
" />
<path d="M41.4022 4.0628
L41.4627 3.9418
" />
<path d="M41.4627 3.9418
L41.5837 3.8813
" />
<path d="M41.5837 3.8813
L41.7046 3.8813
" />
<path d="M43.0351 3.8209
L41.9465 5.4537
" />
<path d="M43.4584 5.1513
L43.4584 3.8813
" />
<path d="M43.4584 3.8813
L43.7608 3.8813
" />
<path d="M43.7608 3.8813
L43.9422 3.9418
" />
<path d="M43.9422 3.9418
L44.0632 4.0628
" />
<path d="M44.0632 4.0628
L44.1237 4.1837
" />
<path d="M44.1237 4.1837
L44.1841 4.4256
" />
<path d="M44.1841 4.4256
L44.1841 4.6070
" />
<path d="M44.1841 4.6070
L44.1237 4.8489
" />
<path d="M44.1237 4.8489
L44.0632 4.9699
" />
<path d="M44.0632 4.9699
L43.9422 5.0909
" />
<path d="M43.9422 5.0909
L43.7608 5.1513
" />
<path d="M43.7608 5.1513
L43.4584 5.1513
" />
<path d="M45.2727 5.1513
L45.2727 4.4861
" />
<path d="M45.2727 4.4861
L45.2122 4.3651
" />
<path d="M45.2122 4.3651
L45.0913 4.3047
" />
<path d="M45.0913 4.3047
L44.8494 4.3047
" />
<path d="M44.8494 4.3047
L44.7284 4.3651
" />
<path d="M45.2727 5.0909
L45.1518 5.1513
" />
<path d="M45.1518 5.1513
L44.8494 5.1513
" />
<path d="M44.8494 5.1513
L44.7284 5.0909
" />
<path d="M44.7284 5.0909
L44.6680 4.9699
" />
<path d="M44.6680 4.9699
L44.6680 4.8489
" />
<path d="M44.6680 4.8489
L44.7284 4.7280
" />
<path d="M44.7284 4.7280
L44.8494 4.6675
" />
<path d="M44.8494 4.6675
L45.1518 4.6675
" />
<path d="M45.1518 4.6675
L45.2727 4.6070
" />
<path d="M45.6960 4.3047
L46.1798 4.3047
" />
<path d="M45.8774 3.8813
L45.8774 4.9699
" />
<path d="M45.8774 4.9699
L45.9379 5.0909
" />
<path d="M45.9379 5.0909
L46.0589 5.1513
" />
<path d="M46.0589 5.1513
L46.1798 5.1513
" />
<path d="M47.1474 5.1513
L47.1474 4.4861
" />
<path d="M47.1474 4.4861
L47.0869 4.3651
" />
<path d="M47.0869 4.3651
L46.9660 4.3047
" />
<path d="M46.9660 4.3047
L46.7241 4.3047
" />
<path d="M46.7241 4.3047
L46.6031 4.3651
" />
<path d="M47.1474 5.0909
L47.0265 5.1513
" />
<path d="M47.0265 5.1513
L46.7241 5.1513
" />
<path d="M46.7241 5.1513
L46.6031 5.0909
" />
<path d="M46.6031 5.0909
L46.5427 4.9699
" />
<path d="M46.5427 4.9699
L46.5427 4.8489
" />
<path d="M46.5427 4.8489
L46.6031 4.7280
" />
<path d="M46.6031 4.7280
L46.7241 4.6675
" />
<path d="M46.7241 4.6675
L47.0265 4.6675
" />
<path d="M47.0265 4.6675
L47.1474 4.6070
" />
<path d="M47.6917 5.1513
L48.6593 3.8813
" />
<path d="M47.8731 3.8813
L47.9940 3.9418
" />
<path d="M47.9940 3.9418
L48.0545 4.0628
" />
<path d="M48.0545 4.0628
L47.9940 4.1837
" />
<path d="M47.9940 4.1837
L47.8731 4.2442
" />
<path d="M47.8731 4.2442
L47.7521 4.1837
" />
<path d="M47.7521 4.1837
L47.6917 4.0628
" />
<path d="M47.6917 4.0628
L47.7521 3.9418
" />
<path d="M47.7521 3.9418
L47.8731 3.8813
" />
<path d="M48.5988 5.0909
L48.6593 4.9699
" />
<path d="M48.6593 4.9699
L48.5988 4.8489
" />
<path d="M48.5988 4.8489
L48.4778 4.7885
" />
<path d="M48.4778 4.7885
L48.3569 4.8489
" />
<path d="M48.3569 4.8489
L48.2964 4.9699
" />
<path d="M48.2964 4.9699
L48.3569 5.0909
" />
<path d="M48.3569 5.0909
L48.4778 5.1513
" />
<path d="M48.4778 5.1513
L48.5988 5.0909
" />
<path d="M49.1431 4.0023
L49.2035 3.9418
" />
<path d="M49.2035 3.9418
L49.3245 3.8813
" />
<path d="M49.3245 3.8813
L49.6269 3.8813
" />
<path d="M49.6269 3.8813
L49.7478 3.9418
" />
<path d="M49.7478 3.9418
L49.8083 4.0023
" />
<path d="M49.8083 4.0023
L49.8688 4.1232
" />
<path d="M49.8688 4.1232
L49.8688 4.2442
" />
<path d="M49.8688 4.2442
L49.8083 4.4256
" />
<path d="M49.8083 4.4256
L49.0826 5.1513
" />
<path d="M49.0826 5.1513
L49.8688 5.1513
" />
<path d="M50.6549 3.8813
L50.7759 3.8813
" />
<path d="M50.7759 3.8813
L50.8968 3.9418
" />
<path d="M50.8968 3.9418
L50.9573 4.0023
" />
<path d="M50.9573 4.0023
L51.0178 4.1232
" />
<path d="M51.0178 4.1232
L51.0783 4.3651
" />
<path d="M51.0783 4.3651
L51.0783 4.6675
" />
<path d="M51.0783 4.6675
L51.0178 4.9094
" />
<path d="M51.0178 4.9094
L50.9573 5.0304
" />
<path d="M50.9573 5.0304
L50.8968 5.0909
" />
<path d="M50.8968 5.0909
L50.7759 5.1513
" />
<path d="M50.7759 5.1513
L50.6549 5.1513
" />
<path d="M50.6549 5.1513
L50.5340 5.0909
" />
<path d="M50.5340 5.0909
L50.4735 5.0304
" />
<path d="M50.4735 5.0304
L50.4130 4.9094
" />
<path d="M50.4130 4.9094
L50.3526 4.6675
" />
<path d="M50.3526 4.6675
L50.3526 4.3651
" />
<path d="M50.3526 4.3651
L50.4130 4.1232
" />
<path d="M50.4130 4.1232
L50.4735 4.0023
" />
<path d="M50.4735 4.0023
L50.5340 3.9418
" />
<path d="M50.5340 3.9418
L50.6549 3.8813
" />
<path d="M51.5621 5.0909
L51.7435 5.1513
" />
<path d="M51.7435 5.1513
L52.0459 5.1513
" />
<path d="M52.0459 5.1513
L52.1668 5.0909
" />
<path d="M52.1668 5.0909
L52.2273 5.0304
" />
<path d="M52.2273 5.0304
L52.2878 4.9094
" />
<path d="M52.2878 4.9094
L52.2878 4.7885
" />
<path d="M52.2878 4.7885
L52.2273 4.6675
" />
<path d="M52.2273 4.6675
L52.1668 4.6070
" />
<path d="M52.1668 4.6070
L52.0459 4.5466
" />
<path d="M52.0459 4.5466
L51.8040 4.4861
" />
<path d="M51.8040 4.4861
L51.6830 4.4256
" />
<path d="M51.6830 4.4256
L51.6225 4.3651
" />
<path d="M51.6225 4.3651
L51.5621 4.2442
" />
<path d="M51.5621 4.2442
L51.5621 4.1232
" />
<path d="M51.5621 4.1232
L51.6225 4.0023
" />
<path d="M51.6225 4.0023
L51.6830 3.9418
" />
<path d="M51.6830 3.9418
L51.8040 3.8813
" />
<path d="M51.8040 3.8813
L52.1063 3.8813
" />
<path d="M52.1063 3.8813
L52.2878 3.9418
" />
<path d="M52.8320 5.1513
L52.8320 3.8813
" />
<path d="M53.3763 5.1513
L53.3763 4.4861
" />
<path d="M53.3763 4.4861
L53.3158 4.3651
" />
<path d="M53.3158 4.3651
L53.1949 4.3047
" />
<path d="M53.1949 4.3047
L53.0135 4.3047
" />
<path d="M53.0135 4.3047
L52.8925 4.3651
" />
<path d="M52.8925 4.3651
L52.8320 4.4256
" />
<path d="M54.4648 5.0909
L54.3439 5.1513
" />
<path d="M54.3439 5.1513
L54.1020 5.1513
" />
<path d="M54.1020 5.1513
L53.9810 5.0909
" />
<path d="M53.9810 5.0909
L53.9206 4.9699
" />
<path d="M53.9206 4.9699
L53.9206 4.4861
" />
<path d="M53.9206 4.4861
L53.9810 4.3651
" />
<path d="M53.9810 4.3651
L54.1020 4.3047
" />
<path d="M54.1020 4.3047
L54.3439 4.3047
" />
<path d="M54.3439 4.3047
L54.4648 4.3651
" />
<path d="M54.4648 4.3651
L54.5253 4.4861
" />
<path d="M54.5253 4.4861
L54.5253 4.6070
" />
<path d="M54.5253 4.6070
L53.9206 4.7280
" />
<path d="M55.5534 5.0909
L55.4325 5.1513
" />
<path d="M55.4325 5.1513
L55.1906 5.1513
" />
<path d="M55.1906 5.1513
L55.0696 5.0909
" />
<path d="M55.0696 5.0909
L55.0092 4.9699
" />
<path d="M55.0092 4.9699
L55.0092 4.4861
" />
<path d="M55.0092 4.4861
L55.0696 4.3651
" />
<path d="M55.0696 4.3651
L55.1906 4.3047
" />
<path d="M55.1906 4.3047
L55.4325 4.3047
" />
<path d="M55.4325 4.3047
L55.5534 4.3651
" />
<path d="M55.5534 4.3651
L55.6139 4.4861
" />
<path d="M55.6139 4.4861
L55.6139 4.6070
" />
<path d="M55.6139 4.6070
L55.0092 4.7280
" />
<path d="M55.9768 4.3047
L56.4606 4.3047
" />
<path d="M56.1582 3.8813
L56.1582 4.9699
" />
<path d="M56.1582 4.9699
L56.2187 5.0909
" />
<path d="M56.2187 5.0909
L56.3397 5.1513
" />
<path d="M56.3397 5.1513
L56.4606 5.1513
" />
<path d="M56.8235 5.0909
L56.9444 5.1513
" />
<path d="M56.9444 5.1513
L57.1863 5.1513
" />
<path d="M57.1863 5.1513
L57.3073 5.0909
" />
<path d="M57.3073 5.0909
L57.3677 4.9699
" />
<path d="M57.3677 4.9699
L57.3677 4.9094
" />
<path d="M57.3677 4.9094
L57.3073 4.7885
" />
<path d="M57.3073 4.7885
L57.1863 4.7280
" />
<path d="M57.1863 4.7280
L57.0049 4.7280
" />
<path d="M57.0049 4.7280
L56.8839 4.6675
" />
<path d="M56.8839 4.6675
L56.8235 4.5466
" />
<path d="M56.8235 4.5466
L56.8235 4.4861
" />
<path d="M56.8235 4.4861
L56.8839 4.3651
" />
<path d="M56.8839 4.3651
L57.0049 4.3047
" />
<path d="M57.0049 4.3047
L57.1863 4.3047
" />
<path d="M57.1863 4.3047
L57.3073 4.3651
" />
<path d="M58.8192 3.8209
L57.7306 5.4537
" />
<path d="M59.2425 5.1513
L59.2425 3.8813
" />
<path d="M59.2425 3.8813
L59.9682 5.1513
" />
<path d="M59.9682 5.1513
L59.9682 3.8813
" />
<path d="M60.4521 3.8813
L61.2987 5.1513
" />
<path d="M61.2987 3.8813
L60.4521 5.1513
" />
<path d="M61.7825 5.1513
L61.7825 3.8813
" />
<path d="M61.7825 3.8813
L62.2663 3.8813
" />
<path d="M62.2663 3.8813
L62.3873 3.9418
" />
<path d="M62.3873 3.9418
L62.4478 4.0023
" />
<path d="M62.4478 4.0023
L62.5082 4.1232
" />
<path d="M62.5082 4.1232
L62.5082 4.3047
" />
<path d="M62.5082 4.3047
L62.4478 4.4256
" />
<path d="M62.4478 4.4256
L62.3873 4.4861
" />
<path d="M62.3873 4.4861
L62.2663 4.5466
" />
<path d="M62.2663 4.5466
L61.7825 4.5466
" />
<path d="M62.9921 5.1513
L63.9597 3.8813
" />
<path d="M63.1735 3.8813
L63.2944 3.9418
" />
<path d="M63.2944 3.9418
L63.3549 4.0628
" />
<path d="M63.3549 4.0628
L63.2944 4.1837
" />
<path d="M63.2944 4.1837
L63.1735 4.2442
" />
<path d="M63.1735 4.2442
L63.0525 4.1837
" />
<path d="M63.0525 4.1837
L62.9921 4.0628
" />
<path d="M62.9921 4.0628
L63.0525 3.9418
" />
<path d="M63.0525 3.9418
L63.1735 3.8813
" />
<path d="M63.8992 5.0909
L63.9597 4.9699
" />
<path d="M63.9597 4.9699
L63.8992 4.8489
" />
<path d="M63.8992 4.8489
L63.7782 4.7885
" />
<path d="M63.7782 4.7885
L63.6573 4.8489
" />
<path d="M63.6573 4.8489
L63.5968 4.9699
" />
<path d="M63.5968 4.9699
L63.6573 5.0909
" />
<path d="M63.6573 5.0909
L63.7782 5.1513
" />
<path d="M63.7782 5.1513
L63.8992 5.0909
" />
<path d="M64.4435 4.0023
L64.5039 3.9418
" />
<path d="M64.5039 3.9418
L64.6249 3.8813
" />
<path d="M64.6249 3.8813
L64.9273 3.8813
" />
<path d="M64.9273 3.8813
L65.0482 3.9418
" />
<path d="M65.0482 3.9418
L65.1087 4.0023
" />
<path d="M65.1087 4.0023
L65.1692 4.1232
" />
<path d="M65.1692 4.1232
L65.1692 4.2442
" />
<path d="M65.1692 4.2442
L65.1087 4.4256
" />
<path d="M65.1087 4.4256
L64.3830 5.1513
" />
<path d="M64.3830 5.1513
L65.1692 5.1513
" />
<path d="M65.9553 3.8813
L66.0763 3.8813
" />
<path d="M66.0763 3.8813
L66.1972 3.9418
" />
<path d="M66.1972 3.9418
L66.2577 4.0023
" />
<path d="M66.2577 4.0023
L66.3182 4.1232
" />
<path d="M66.3182 4.1232
L66.3787 4.3651
" />
<path d="M66.3787 4.3651
L66.3787 4.6675
" />
<path d="M66.3787 4.6675
L66.3182 4.9094
" />
<path d="M66.3182 4.9094
L66.2577 5.0304
" />
<path d="M66.2577 5.0304
L66.1972 5.0909
" />
<path d="M66.1972 5.0909
L66.0763 5.1513
" />
<path d="M66.0763 5.1513
L65.9553 5.1513
" />
<path d="M65.9553 5.1513
L65.8344 5.0909
" />
<path d="M65.8344 5.0909
L65.7739 5.0304
" />
<path d="M65.7739 5.0304
L65.7134 4.9094
" />
<path d="M65.7134 4.9094
L65.6530 4.6675
" />
<path d="M65.6530 4.6675
L65.6530 4.3651
" />
<path d="M65.6530 4.3651
L65.7134 4.1232
" />
<path d="M65.7134 4.1232
L65.7739 4.0023
" />
<path d="M65.7739 4.0023
L65.8344 3.9418
" />
<path d="M65.8344 3.9418
L65.9553 3.8813
" />
<path d="M66.9229 5.1513
L66.9229 3.8813
" />
<path d="M66.9229 3.8813
L67.4067 3.8813
" />
<path d="M67.4067 3.8813
L67.5277 3.9418
" />
<path d="M67.5277 3.9418
L67.5882 4.0023
" />
<path d="M67.5882 4.0023
L67.6486 4.1232
" />
<path d="M67.6486 4.1232
L67.6486 4.3047
" />
<path d="M67.6486 4.3047
L67.5882 4.4256
" />
<path d="M67.5882 4.4256
L67.5277 4.4861
" />
<path d="M67.5277 4.4861
L67.4067 4.5466
" />
<path d="M67.4067 4.5466
L66.9229 4.5466
" />
<path d="M68.1929 5.1513
L68.1929 3.8813
" />
<path d="M68.1929 3.8813
L68.4953 3.8813
" />
<path d="M68.4953 3.8813
L68.6767 3.9418
" />
<path d="M68.6767 3.9418
L68.7977 4.0628
" />
<path d="M68.7977 4.0628
L68.8582 4.1837
" />
<path d="M68.8582 4.1837
L68.9186 4.4256
" />
<path d="M68.9186 4.4256
L68.9186 4.6070
" />
<path d="M68.9186 4.6070
L68.8582 4.8489
" />
<path d="M68.8582 4.8489
L68.7977 4.9699
" />
<path d="M68.7977 4.9699
L68.6767 5.0909
" />
<path d="M68.6767 5.0909
L68.4953 5.1513
" />
<path d="M68.4953 5.1513
L68.1929 5.1513
" />
<path d="M69.8863 4.4861
L69.4629 4.4861
" />
<path d="M69.4629 5.1513
L69.4629 3.8813
" />
<path d="M69.4629 3.8813
L70.0677 3.8813
" />
<path d="M70.4911 5.0909
L70.6120 5.1513
" />
<path d="M70.6120 5.1513
L70.8539 5.1513
" />
<path d="M70.8539 5.1513
L70.9749 5.0909
" />
<path d="M70.9749 5.0909
L71.0353 4.9699
" />
<path d="M71.0353 4.9699
L71.0353 4.9094
" />
<path d="M71.0353 4.9094
L70.9749 4.7885
" />
<path d="M70.9749 4.7885
L70.8539 4.7280
" />
<path d="M70.8539 4.7280
L70.6725 4.7280
" />
<path d="M70.6725 4.7280
L70.5515 4.6675
" />
<path d="M70.5515 4.6675
L70.4911 4.5466
" />
<path d="M70.4911 4.5466
L70.4911 4.4861
" />
<path d="M70.4911 4.4861
L70.5515 4.3651
" />
<path d="M70.5515 4.3651
L70.6725 4.3047
" />
<path d="M70.6725 4.3047
L70.8539 4.3047
" />
<path d="M70.8539 4.3047
L70.9749 4.3651
" />
<path d="M72.4868 3.8209
L71.3982 5.4537
" />
<path d="M73.3335 4.4861
L73.5149 4.5466
" />
<path d="M73.5149 4.5466
L73.5754 4.6070
" />
<path d="M73.5754 4.6070
L73.6358 4.7280
" />
<path d="M73.6358 4.7280
L73.6358 4.9094
" />
<path d="M73.6358 4.9094
L73.5754 5.0304
" />
<path d="M73.5754 5.0304
L73.5149 5.0909
" />
<path d="M73.5149 5.0909
L73.3939 5.1513
" />
<path d="M73.3939 5.1513
L72.9101 5.1513
" />
<path d="M72.9101 5.1513
L72.9101 3.8813
" />
<path d="M72.9101 3.8813
L73.3335 3.8813
" />
<path d="M73.3335 3.8813
L73.4544 3.9418
" />
<path d="M73.4544 3.9418
L73.5149 4.0023
" />
<path d="M73.5149 4.0023
L73.5754 4.1232
" />
<path d="M73.5754 4.1232
L73.5754 4.2442
" />
<path d="M73.5754 4.2442
L73.5149 4.3651
" />
<path d="M73.5149 4.3651
L73.4544 4.4256
" />
<path d="M73.4544 4.4256
L73.3335 4.4861
" />
<path d="M73.3335 4.4861
L72.9101 4.4861
" />
<path d="M73.9987 3.8813
L74.7244 3.8813
" />
<path d="M74.3616 5.1513
L74.3616 3.8813
" />
<path d="M75.8130 5.1513
L75.0873 5.1513
" />
<path d="M75.4501 5.1513
L75.4501 3.8813
" />
<path d="M75.4501 3.8813
L75.3292 4.0628
" />
<path d="M75.3292 4.0628
L75.2082 4.1837
" />
<path d="M75.2082 4.1837
L75.0873 4.2442
" />
<path d="M76.9015 3.8813
L76.6596 3.8813
" />
<path d="M76.6596 3.8813
L76.5387 3.9418
" />
<path d="M76.5387 3.9418
L76.4782 4.0023
" />
<path d="M76.4782 4.0023
L76.3572 4.1837
" />
<path d="M76.3572 4.1837
L76.2968 4.4256
" />
<path d="M76.2968 4.4256
L76.2968 4.9094
" />
<path d="M76.2968 4.9094
L76.3572 5.0304
" />
<path d="M76.3572 5.0304
L76.4177 5.0909
" />
<path d="M76.4177 5.0909
L76.5387 5.1513
" />
<path d="M76.5387 5.1513
L76.7806 5.1513
" />
<path d="M76.7806 5.1513
L76.9015 5.0909
" />
<path d="M76.9015 5.0909
L76.9620 5.0304
" />
<path d="M76.9620 5.0304
L77.0225 4.9094
" />
<path d="M77.0225 4.9094
L77.0225 4.6070
" />
<path d="M77.0225 4.6070
L76.9620 4.4861
" />
<path d="M76.9620 4.4861
L76.9015 4.4256
" />
<path d="M76.9015 4.4256
L76.7806 4.3651
" />
<path d="M76.7806 4.3651
L76.5387 4.3651
" />
<path d="M76.5387 4.3651
L76.4177 4.4256
" />
<path d="M76.4177 4.4256
L76.3572 4.4861
" />
<path d="M76.3572 4.4861
L76.2968 4.6070
" />
<path d="M77.6272 5.1513
L77.8691 5.1513
" />
<path d="M77.8691 5.1513
L77.9901 5.0909
" />
<path d="M77.9901 5.0909
L78.0505 5.0304
" />
<path d="M78.0505 5.0304
L78.1715 4.8489
" />
<path d="M78.1715 4.8489
L78.2320 4.6070
" />
<path d="M78.2320 4.6070
L78.2320 4.1232
" />
<path d="M78.2320 4.1232
L78.1715 4.0023
" />
<path d="M78.1715 4.0023
L78.1110 3.9418
" />
<path d="M78.1110 3.9418
L77.9901 3.8813
" />
<path d="M77.9901 3.8813
L77.7482 3.8813
" />
<path d="M77.7482 3.8813
L77.6272 3.9418
" />
<path d="M77.6272 3.9418
L77.5667 4.0023
" />
<path d="M77.5667 4.0023
L77.5063 4.1232
" />
<path d="M77.5063 4.1232
L77.5063 4.4256
" />
<path d="M77.5063 4.4256
L77.5667 4.5466
" />
<path d="M77.5667 4.5466
L77.6272 4.6070
" />
<path d="M77.6272 4.6070
L77.7482 4.6675
" />
<path d="M77.7482 4.6675
L77.9901 4.6675
" />
<path d="M77.9901 4.6675
L78.1110 4.6070
" />
<path d="M78.1110 4.6070
L78.1715 4.5466
" />
<path d="M78.1715 4.5466
L78.2320 4.4256
" />
<path d="M78.4739 5.2723
L79.4415 5.2723
" />
<path d="M79.6834 5.0909
L79.8648 5.1513
" />
<path d="M79.8648 5.1513
L80.1672 5.1513
" />
<path d="M80.1672 5.1513
L80.2881 5.0909
" />
<path d="M80.2881 5.0909
L80.3486 5.0304
" />
<path d="M80.3486 5.0304
L80.4091 4.9094
" />
<path d="M80.4091 4.9094
L80.4091 4.7885
" />
<path d="M80.4091 4.7885
L80.3486 4.6675
" />
<path d="M80.3486 4.6675
L80.2881 4.6070
" />
<path d="M80.2881 4.6070
L80.1672 4.5466
" />
<path d="M80.1672 4.5466
L79.9253 4.4861
" />
<path d="M79.9253 4.4861
L79.8043 4.4256
" />
<path d="M79.8043 4.4256
L79.7438 4.3651
" />
<path d="M79.7438 4.3651
L79.6834 4.2442
" />
<path d="M79.6834 4.2442
L79.6834 4.1232
" />
<path d="M79.6834 4.1232
L79.7438 4.0023
" />
<path d="M79.7438 4.0023
L79.8043 3.9418
" />
<path d="M79.8043 3.9418
L79.9253 3.8813
" />
<path d="M79.9253 3.8813
L80.2276 3.8813
" />
<path d="M80.2276 3.8813
L80.4091 3.9418
" />
<path d="M81.4371 5.0909
L81.3162 5.1513
" />
<path d="M81.3162 5.1513
L81.0743 5.1513
" />
<path d="M81.0743 5.1513
L80.9533 5.0909
" />
<path d="M80.9533 5.0909
L80.8929 4.9699
" />
<path d="M80.8929 4.9699
L80.8929 4.4861
" />
<path d="M80.8929 4.4861
L80.9533 4.3651
" />
<path d="M80.9533 4.3651
L81.0743 4.3047
" />
<path d="M81.0743 4.3047
L81.3162 4.3047
" />
<path d="M81.3162 4.3047
L81.4371 4.3651
" />
<path d="M81.4371 4.3651
L81.4976 4.4861
" />
<path d="M81.4976 4.4861
L81.4976 4.6070
" />
<path d="M81.4976 4.6070
L80.8929 4.7280
" />
<path d="M82.0419 5.1513
L82.0419 4.3047
" />
<path d="M82.0419 4.5466
L82.1024 4.4256
" />
<path d="M82.1024 4.4256
L82.1629 4.3651
" />
<path d="M82.1629 4.3651
L82.2838 4.3047
" />
<path d="M82.2838 4.3047
L82.4048 4.3047
" />
<path d="M82.8281 5.1513
L82.8281 4.3047
" />
<path d="M82.8281 3.8813
L82.7677 3.9418
" />
<path d="M82.7677 3.9418
L82.8281 4.0023
" />
<path d="M82.8281 4.0023
L82.8886 3.9418
" />
<path d="M82.8886 3.9418
L82.8281 3.8813
" />
<path d="M82.8281 3.8813
L82.8281 4.0023
" />
<path d="M83.9167 5.0909
L83.7958 5.1513
" />
<path d="M83.7958 5.1513
L83.5539 5.1513
" />
<path d="M83.5539 5.1513
L83.4329 5.0909
" />
<path d="M83.4329 5.0909
L83.3725 4.9699
" />
<path d="M83.3725 4.9699
L83.3725 4.4861
" />
<path d="M83.3725 4.4861
L83.4329 4.3651
" />
<path d="M83.4329 4.3651
L83.5539 4.3047
" />
<path d="M83.5539 4.3047
L83.7958 4.3047
" />
<path d="M83.7958 4.3047
L83.9167 4.3651
" />
<path d="M83.9167 4.3651
L83.9772 4.4861
" />
<path d="M83.9772 4.4861
L83.9772 4.6070
" />
<path d="M83.9772 4.6070
L83.3725 4.7280
" />
<path d="M84.4611 5.0909
L84.5820 5.1513
" />
<path d="M84.5820 5.1513
L84.8239 5.1513
" />
<path d="M84.8239 5.1513
L84.9449 5.0909
" />
<path d="M84.9449 5.0909
L85.0053 4.9699
" />
<path d="M85.0053 4.9699
L85.0053 4.9094
" />
<path d="M85.0053 4.9094
L84.9449 4.7885
" />
<path d="M84.9449 4.7885
L84.8239 4.7280
" />
<path d="M84.8239 4.7280
L84.6425 4.7280
" />
<path d="M84.6425 4.7280
L84.5215 4.6675
" />
<path d="M84.5215 4.6675
L84.4611 4.5466
" />
<path d="M84.4611 4.5466
L84.4611 4.4861
" />
<path d="M84.4611 4.4861
L84.5215 4.3651
" />
<path d="M84.5215 4.3651
L84.6425 4.3047
" />
<path d="M84.6425 4.3047
L84.8239 4.3047
" />
<path d="M84.8239 4.3047
L84.9449 4.3651
" />
<path d="M85.5496 5.0304
L85.6101 5.0909
" />
<path d="M85.6101 5.0909
L85.5496 5.1513
" />
<path d="M85.5496 5.1513
L85.4892 5.0909
" />
<path d="M85.4892 5.0909
L85.5496 5.0304
" />
<path d="M85.5496 5.0304
L85.5496 5.1513
" />
<path d="M86.1544 4.3047
L86.1544 5.5747
" />
<path d="M86.1544 4.3651
L86.2754 4.3047
" />
<path d="M86.2754 4.3047
L86.5173 4.3047
" />
<path d="M86.5173 4.3047
L86.6382 4.3651
" />
<path d="M86.6382 4.3651
L86.6987 4.4256
" />
<path d="M86.6987 4.4256
L86.7592 4.5466
" />
<path d="M86.7592 4.5466
L86.7592 4.9094
" />
<path d="M86.7592 4.9094
L86.6987 5.0304
" />
<path d="M86.6987 5.0304
L86.6382 5.0909
" />
<path d="M86.6382 5.0909
L86.5173 5.1513
" />
<path d="M86.5173 5.1513
L86.2754 5.1513
" />
<path d="M86.2754 5.1513
L86.1544 5.0909
" />
<path d="M87.8477 5.1513
L87.8477 3.8813
" />
<path d="M87.8477 5.0909
L87.7268 5.1513
" />
<path d="M87.7268 5.1513
L87.4849 5.1513
" />
<path d="M87.4849 5.1513
L87.3639 5.0909
" />
<path d="M87.3639 5.0909
L87.3034 5.0304
" />
<path d="M87.3034 5.0304
L87.2430 4.9094
" />
<path d="M87.2430 4.9094
L87.2430 4.5466
" />
<path d="M87.2430 4.5466
L87.3034 4.4256
" />
<path d="M87.3034 4.4256
L87.3639 4.3651
" />
<path d="M87.3639 4.3651
L87.4849 4.3047
" />
<path d="M87.4849 4.3047
L87.7268 4.3047
" />
<path d="M87.7268 4.3047
L87.8477 4.3651
" />
<path d="M88.2710 4.3047
L88.7548 4.3047
" />
<path d="M88.4524 5.1513
L88.4524 4.0628
" />
<path d="M88.4524 4.0628
L88.5129 3.9418
" />
<path d="M88.5129 3.9418
L88.6339 3.8813
" />
<path d="M88.6339 3.8813
L88.7548 3.8813
" />
</g></g> 
</svg>
