<?xml version="1.0" standalone="no"?>
 <!DOCTYPE svg PUBLIC "-//W3C//DTD SVG 1.1//EN" 
 "http://www.w3.org/Graphics/SVG/1.1/DTD/svg11.dtd"> 
<svg
  xmlns:svg="http://www.w3.org/2000/svg"
  xmlns="http://www.w3.org/2000/svg"
  xmlns:xlink="http://www.w3.org/1999/xlink"
  version="1.1"
  width="72.9488mm" height="20.7518mm" viewBox="0.0000 0.0000 72.9488 20.7518">
<title>SVG Image created as working.svg date 2023/08/27 11:35:34 </title>
  <desc>Image generated by Eeschema-SVG </desc>
<g style="fill:#000000; fill-opacity:1.0000;stroke:#000000; stroke-opacity:1.0000;
stroke-linecap:round; stroke-linejoin:round;"
 transform="translate(0 0) scale(1 1)">
</g>
<g style="fill:#840000; fill-opacity:0.0; 
stroke:#840000; stroke-width:0.0000; stroke-opacity:1; 
stroke-linecap:round; stroke-linejoin:round;">
</g>
<g style="fill:#840084; fill-opacity:0.0; 
stroke:#840084; stroke-width:0.0000; stroke-opacity:1; 
stroke-linecap:round; stroke-linejoin:round;">
</g>
<g style="fill:#840000; fill-opacity:0.0; 
stroke:#840000; stroke-width:0.0000; stroke-opacity:1; 
stroke-linecap:round; stroke-linejoin:round;">
</g>
<g style="fill:#840084; fill-opacity:0.0; 
stroke:#840084; stroke-width:0.0000; stroke-opacity:1; 
stroke-linecap:round; stroke-linejoin:round;">
</g>
<g style="fill:#006464; fill-opacity:0.0; 
stroke:#006464; stroke-width:0.0000; stroke-opacity:1; 
stroke-linecap:round; stroke-linejoin:round;">
</g>
<g style="fill:#006464; fill-opacity:0.0; 
stroke:#006464; stroke-width:0.1588; stroke-opacity:1; 
stroke-linecap:round; stroke-linejoin:round;">
<text x="37.9601" y="3.3849"
textLength="2.5205" font-size="1.6933" lengthAdjust="spacingAndGlyphs"
text-anchor="middle" opacity="0">X?</text>
<g class="stroked-text"><desc>X?</desc>
<path d="M36.9925 2.0591
L37.8391 3.3291
" />
<path d="M37.8391 2.0591
L36.9925 3.3291
" />
<path d="M38.5044 3.2082
L38.5648 3.2687
" />
<path d="M38.5648 3.2687
L38.5044 3.3291
" />
<path d="M38.5044 3.3291
L38.4439 3.2687
" />
<path d="M38.4439 3.2687
L38.5044 3.2082
" />
<path d="M38.5044 3.2082
L38.5044 3.3291
" />
<path d="M38.2625 2.1196
L38.3834 2.0591
" />
<path d="M38.3834 2.0591
L38.6858 2.0591
" />
<path d="M38.6858 2.0591
L38.8067 2.1196
" />
<path d="M38.8067 2.1196
L38.8672 2.2406
" />
<path d="M38.8672 2.2406
L38.8672 2.3615
" />
<path d="M38.8672 2.3615
L38.8067 2.4825
" />
<path d="M38.8067 2.4825
L38.7463 2.5429
" />
<path d="M38.7463 2.5429
L38.6253 2.6034
" />
<path d="M38.6253 2.6034
L38.5648 2.6639
" />
<path d="M38.5648 2.6639
L38.5044 2.7848
" />
<path d="M38.5044 2.7848
L38.5044 2.8453
" />
</g><text x="48.0899" y="16.0849"
textLength="10.0800" font-size="1.6933" lengthAdjust="spacingAndGlyphs"
text-anchor="middle" opacity="0">GTXO-14V</text>
<g class="stroked-text"><desc>GTXO-14V</desc>
<path d="M44.1287 14.8196
L44.0077 14.7591
" />
<path d="M44.0077 14.7591
L43.8263 14.7591
" />
<path d="M43.8263 14.7591
L43.6449 14.8196
" />
<path d="M43.6449 14.8196
L43.5239 14.9406
" />
<path d="M43.5239 14.9406
L43.4634 15.0615
" />
<path d="M43.4634 15.0615
L43.4030 15.3034
" />
<path d="M43.4030 15.3034
L43.4030 15.4848
" />
<path d="M43.4030 15.4848
L43.4634 15.7267
" />
<path d="M43.4634 15.7267
L43.5239 15.8477
" />
<path d="M43.5239 15.8477
L43.6449 15.9687
" />
<path d="M43.6449 15.9687
L43.8263 16.0291
" />
<path d="M43.8263 16.0291
L43.9472 16.0291
" />
<path d="M43.9472 16.0291
L44.1287 15.9687
" />
<path d="M44.1287 15.9687
L44.1891 15.9082
" />
<path d="M44.1891 15.9082
L44.1891 15.4848
" />
<path d="M44.1891 15.4848
L43.9472 15.4848
" />
<path d="M44.5520 14.7591
L45.2777 14.7591
" />
<path d="M44.9149 16.0291
L44.9149 14.7591
" />
<path d="M45.5801 14.7591
L46.4267 16.0291
" />
<path d="M46.4267 14.7591
L45.5801 16.0291
" />
<path d="M47.1524 14.7591
L47.3943 14.7591
" />
<path d="M47.3943 14.7591
L47.5153 14.8196
" />
<path d="M47.5153 14.8196
L47.6362 14.9406
" />
<path d="M47.6362 14.9406
L47.6967 15.1825
" />
<path d="M47.6967 15.1825
L47.6967 15.6058
" />
<path d="M47.6967 15.6058
L47.6362 15.8477
" />
<path d="M47.6362 15.8477
L47.5153 15.9687
" />
<path d="M47.5153 15.9687
L47.3943 16.0291
" />
<path d="M47.3943 16.0291
L47.1524 16.0291
" />
<path d="M47.1524 16.0291
L47.0315 15.9687
" />
<path d="M47.0315 15.9687
L46.9105 15.8477
" />
<path d="M46.9105 15.8477
L46.8501 15.6058
" />
<path d="M46.8501 15.6058
L46.8501 15.1825
" />
<path d="M46.8501 15.1825
L46.9105 14.9406
" />
<path d="M46.9105 14.9406
L47.0315 14.8196
" />
<path d="M47.0315 14.8196
L47.1524 14.7591
" />
<path d="M48.2410 15.5453
L49.2087 15.5453
" />
<path d="M50.4787 16.0291
L49.7530 16.0291
" />
<path d="M50.1158 16.0291
L50.1158 14.7591
" />
<path d="M50.1158 14.7591
L49.9949 14.9406
" />
<path d="M49.9949 14.9406
L49.8739 15.0615
" />
<path d="M49.8739 15.0615
L49.7530 15.1220
" />
<path d="M51.5672 15.1825
L51.5672 16.0291
" />
<path d="M51.2648 14.6987
L50.9625 15.6058
" />
<path d="M50.9625 15.6058
L51.7486 15.6058
" />
<path d="M52.0510 14.7591
L52.4743 16.0291
" />
<path d="M52.4743 16.0291
L52.8977 14.7591
" />
</g></g>
<g style="fill:#840084; fill-opacity:0.0; 
stroke:#840084; stroke-width:0.1588; stroke-opacity:1; 
stroke-linecap:round; stroke-linejoin:round;">
<text x="53.2099" y="18.6249"
textLength="27.3156" font-size="1.6933" lengthAdjust="spacingAndGlyphs"
text-anchor="middle" opacity="0">Oscillator:Oscillator_DIP-14</text>
<g class="stroked-text"><desc>Oscillator:Oscillator_DIP-14</desc>
<path d="M40.2075 17.2991
L40.4494 17.2991
" />
<path d="M40.4494 17.2991
L40.5704 17.3596
" />
<path d="M40.5704 17.3596
L40.6913 17.4806
" />
<path d="M40.6913 17.4806
L40.7518 17.7225
" />
<path d="M40.7518 17.7225
L40.7518 18.1458
" />
<path d="M40.7518 18.1458
L40.6913 18.3877
" />
<path d="M40.6913 18.3877
L40.5704 18.5087
" />
<path d="M40.5704 18.5087
L40.4494 18.5691
" />
<path d="M40.4494 18.5691
L40.2075 18.5691
" />
<path d="M40.2075 18.5691
L40.0866 18.5087
" />
<path d="M40.0866 18.5087
L39.9656 18.3877
" />
<path d="M39.9656 18.3877
L39.9052 18.1458
" />
<path d="M39.9052 18.1458
L39.9052 17.7225
" />
<path d="M39.9052 17.7225
L39.9656 17.4806
" />
<path d="M39.9656 17.4806
L40.0866 17.3596
" />
<path d="M40.0866 17.3596
L40.2075 17.2991
" />
<path d="M41.2357 18.5087
L41.3566 18.5691
" />
<path d="M41.3566 18.5691
L41.5985 18.5691
" />
<path d="M41.5985 18.5691
L41.7195 18.5087
" />
<path d="M41.7195 18.5087
L41.7799 18.3877
" />
<path d="M41.7799 18.3877
L41.7799 18.3272
" />
<path d="M41.7799 18.3272
L41.7195 18.2063
" />
<path d="M41.7195 18.2063
L41.5985 18.1458
" />
<path d="M41.5985 18.1458
L41.4171 18.1458
" />
<path d="M41.4171 18.1458
L41.2961 18.0853
" />
<path d="M41.2961 18.0853
L41.2357 17.9644
" />
<path d="M41.2357 17.9644
L41.2357 17.9039
" />
<path d="M41.2357 17.9039
L41.2961 17.7829
" />
<path d="M41.2961 17.7829
L41.4171 17.7225
" />
<path d="M41.4171 17.7225
L41.5985 17.7225
" />
<path d="M41.5985 17.7225
L41.7195 17.7829
" />
<path d="M42.8685 18.5087
L42.7476 18.5691
" />
<path d="M42.7476 18.5691
L42.5057 18.5691
" />
<path d="M42.5057 18.5691
L42.3847 18.5087
" />
<path d="M42.3847 18.5087
L42.3242 18.4482
" />
<path d="M42.3242 18.4482
L42.2638 18.3272
" />
<path d="M42.2638 18.3272
L42.2638 17.9644
" />
<path d="M42.2638 17.9644
L42.3242 17.8434
" />
<path d="M42.3242 17.8434
L42.3847 17.7829
" />
<path d="M42.3847 17.7829
L42.5057 17.7225
" />
<path d="M42.5057 17.7225
L42.7476 17.7225
" />
<path d="M42.7476 17.7225
L42.8685 17.7829
" />
<path d="M43.4128 18.5691
L43.4128 17.7225
" />
<path d="M43.4128 17.2991
L43.3524 17.3596
" />
<path d="M43.3524 17.3596
L43.4128 17.4201
" />
<path d="M43.4128 17.4201
L43.4733 17.3596
" />
<path d="M43.4733 17.3596
L43.4128 17.2991
" />
<path d="M43.4128 17.2991
L43.4128 17.4201
" />
<path d="M44.1991 18.5691
L44.0781 18.5087
" />
<path d="M44.0781 18.5087
L44.0176 18.3877
" />
<path d="M44.0176 18.3877
L44.0176 17.2991
" />
<path d="M44.8643 18.5691
L44.7433 18.5087
" />
<path d="M44.7433 18.5087
L44.6828 18.3877
" />
<path d="M44.6828 18.3877
L44.6828 17.2991
" />
<path d="M45.8923 18.5691
L45.8923 17.9039
" />
<path d="M45.8923 17.9039
L45.8318 17.7829
" />
<path d="M45.8318 17.7829
L45.7109 17.7225
" />
<path d="M45.7109 17.7225
L45.4690 17.7225
" />
<path d="M45.4690 17.7225
L45.3480 17.7829
" />
<path d="M45.8923 18.5087
L45.7714 18.5691
" />
<path d="M45.7714 18.5691
L45.4690 18.5691
" />
<path d="M45.4690 18.5691
L45.3480 18.5087
" />
<path d="M45.3480 18.5087
L45.2876 18.3877
" />
<path d="M45.2876 18.3877
L45.2876 18.2667
" />
<path d="M45.2876 18.2667
L45.3480 18.1458
" />
<path d="M45.3480 18.1458
L45.4690 18.0853
" />
<path d="M45.4690 18.0853
L45.7714 18.0853
" />
<path d="M45.7714 18.0853
L45.8923 18.0248
" />
<path d="M46.3156 17.7225
L46.7994 17.7225
" />
<path d="M46.4970 17.2991
L46.4970 18.3877
" />
<path d="M46.4970 18.3877
L46.5575 18.5087
" />
<path d="M46.5575 18.5087
L46.6785 18.5691
" />
<path d="M46.6785 18.5691
L46.7994 18.5691
" />
<path d="M47.4042 18.5691
L47.2832 18.5087
" />
<path d="M47.2832 18.5087
L47.2227 18.4482
" />
<path d="M47.2227 18.4482
L47.1623 18.3272
" />
<path d="M47.1623 18.3272
L47.1623 17.9644
" />
<path d="M47.1623 17.9644
L47.2227 17.8434
" />
<path d="M47.2227 17.8434
L47.2832 17.7829
" />
<path d="M47.2832 17.7829
L47.4042 17.7225
" />
<path d="M47.4042 17.7225
L47.5856 17.7225
" />
<path d="M47.5856 17.7225
L47.7065 17.7829
" />
<path d="M47.7065 17.7829
L47.7670 17.8434
" />
<path d="M47.7670 17.8434
L47.8275 17.9644
" />
<path d="M47.8275 17.9644
L47.8275 18.3272
" />
<path d="M47.8275 18.3272
L47.7670 18.4482
" />
<path d="M47.7670 18.4482
L47.7065 18.5087
" />
<path d="M47.7065 18.5087
L47.5856 18.5691
" />
<path d="M47.5856 18.5691
L47.4042 18.5691
" />
<path d="M48.3717 18.5691
L48.3717 17.7225
" />
<path d="M48.3717 17.9644
L48.4322 17.8434
" />
<path d="M48.4322 17.8434
L48.4927 17.7829
" />
<path d="M48.4927 17.7829
L48.6136 17.7225
" />
<path d="M48.6136 17.7225
L48.7346 17.7225
" />
<path d="M49.1579 18.4482
L49.2184 18.5087
" />
<path d="M49.2184 18.5087
L49.1579 18.5691
" />
<path d="M49.1579 18.5691
L49.0975 18.5087
" />
<path d="M49.0975 18.5087
L49.1579 18.4482
" />
<path d="M49.1579 18.4482
L49.1579 18.5691
" />
<path d="M49.1579 17.7829
L49.2184 17.8434
" />
<path d="M49.2184 17.8434
L49.1579 17.9039
" />
<path d="M49.1579 17.9039
L49.0975 17.8434
" />
<path d="M49.0975 17.8434
L49.1579 17.7829
" />
<path d="M49.1579 17.7829
L49.1579 17.9039
" />
<path d="M50.0046 17.2991
L50.2465 17.2991
" />
<path d="M50.2465 17.2991
L50.3675 17.3596
" />
<path d="M50.3675 17.3596
L50.4884 17.4806
" />
<path d="M50.4884 17.4806
L50.5489 17.7225
" />
<path d="M50.5489 17.7225
L50.5489 18.1458
" />
<path d="M50.5489 18.1458
L50.4884 18.3877
" />
<path d="M50.4884 18.3877
L50.3675 18.5087
" />
<path d="M50.3675 18.5087
L50.2465 18.5691
" />
<path d="M50.2465 18.5691
L50.0046 18.5691
" />
<path d="M50.0046 18.5691
L49.8837 18.5087
" />
<path d="M49.8837 18.5087
L49.7627 18.3877
" />
<path d="M49.7627 18.3877
L49.7023 18.1458
" />
<path d="M49.7023 18.1458
L49.7023 17.7225
" />
<path d="M49.7023 17.7225
L49.7627 17.4806
" />
<path d="M49.7627 17.4806
L49.8837 17.3596
" />
<path d="M49.8837 17.3596
L50.0046 17.2991
" />
<path d="M51.0328 18.5087
L51.1537 18.5691
" />
<path d="M51.1537 18.5691
L51.3956 18.5691
" />
<path d="M51.3956 18.5691
L51.5166 18.5087
" />
<path d="M51.5166 18.5087
L51.5770 18.3877
" />
<path d="M51.5770 18.3877
L51.5770 18.3272
" />
<path d="M51.5770 18.3272
L51.5166 18.2063
" />
<path d="M51.5166 18.2063
L51.3956 18.1458
" />
<path d="M51.3956 18.1458
L51.2142 18.1458
" />
<path d="M51.2142 18.1458
L51.0932 18.0853
" />
<path d="M51.0932 18.0853
L51.0328 17.9644
" />
<path d="M51.0328 17.9644
L51.0328 17.9039
" />
<path d="M51.0328 17.9039
L51.0932 17.7829
" />
<path d="M51.0932 17.7829
L51.2142 17.7225
" />
<path d="M51.2142 17.7225
L51.3956 17.7225
" />
<path d="M51.3956 17.7225
L51.5166 17.7829
" />
<path d="M52.6656 18.5087
L52.5447 18.5691
" />
<path d="M52.5447 18.5691
L52.3028 18.5691
" />
<path d="M52.3028 18.5691
L52.1818 18.5087
" />
<path d="M52.1818 18.5087
L52.1213 18.4482
" />
<path d="M52.1213 18.4482
L52.0609 18.3272
" />
<path d="M52.0609 18.3272
L52.0609 17.9644
" />
<path d="M52.0609 17.9644
L52.1213 17.8434
" />
<path d="M52.1213 17.8434
L52.1818 17.7829
" />
<path d="M52.1818 17.7829
L52.3028 17.7225
" />
<path d="M52.3028 17.7225
L52.5447 17.7225
" />
<path d="M52.5447 17.7225
L52.6656 17.7829
" />
<path d="M53.2099 18.5691
L53.2099 17.7225
" />
<path d="M53.2099 17.2991
L53.1495 17.3596
" />
<path d="M53.1495 17.3596
L53.2099 17.4201
" />
<path d="M53.2099 17.4201
L53.2704 17.3596
" />
<path d="M53.2704 17.3596
L53.2099 17.2991
" />
<path d="M53.2099 17.2991
L53.2099 17.4201
" />
<path d="M53.9962 18.5691
L53.8752 18.5087
" />
<path d="M53.8752 18.5087
L53.8147 18.3877
" />
<path d="M53.8147 18.3877
L53.8147 17.2991
" />
<path d="M54.6614 18.5691
L54.5404 18.5087
" />
<path d="M54.5404 18.5087
L54.4799 18.3877
" />
<path d="M54.4799 18.3877
L54.4799 17.2991
" />
<path d="M55.6894 18.5691
L55.6894 17.9039
" />
<path d="M55.6894 17.9039
L55.6289 17.7829
" />
<path d="M55.6289 17.7829
L55.5080 17.7225
" />
<path d="M55.5080 17.7225
L55.2661 17.7225
" />
<path d="M55.2661 17.7225
L55.1451 17.7829
" />
<path d="M55.6894 18.5087
L55.5685 18.5691
" />
<path d="M55.5685 18.5691
L55.2661 18.5691
" />
<path d="M55.2661 18.5691
L55.1451 18.5087
" />
<path d="M55.1451 18.5087
L55.0847 18.3877
" />
<path d="M55.0847 18.3877
L55.0847 18.2667
" />
<path d="M55.0847 18.2667
L55.1451 18.1458
" />
<path d="M55.1451 18.1458
L55.2661 18.0853
" />
<path d="M55.2661 18.0853
L55.5685 18.0853
" />
<path d="M55.5685 18.0853
L55.6894 18.0248
" />
<path d="M56.1127 17.7225
L56.5965 17.7225
" />
<path d="M56.2941 17.2991
L56.2941 18.3877
" />
<path d="M56.2941 18.3877
L56.3546 18.5087
" />
<path d="M56.3546 18.5087
L56.4756 18.5691
" />
<path d="M56.4756 18.5691
L56.5965 18.5691
" />
<path d="M57.2013 18.5691
L57.0803 18.5087
" />
<path d="M57.0803 18.5087
L57.0198 18.4482
" />
<path d="M57.0198 18.4482
L56.9594 18.3272
" />
<path d="M56.9594 18.3272
L56.9594 17.9644
" />
<path d="M56.9594 17.9644
L57.0198 17.8434
" />
<path d="M57.0198 17.8434
L57.0803 17.7829
" />
<path d="M57.0803 17.7829
L57.2013 17.7225
" />
<path d="M57.2013 17.7225
L57.3827 17.7225
" />
<path d="M57.3827 17.7225
L57.5036 17.7829
" />
<path d="M57.5036 17.7829
L57.5641 17.8434
" />
<path d="M57.5641 17.8434
L57.6246 17.9644
" />
<path d="M57.6246 17.9644
L57.6246 18.3272
" />
<path d="M57.6246 18.3272
L57.5641 18.4482
" />
<path d="M57.5641 18.4482
L57.5036 18.5087
" />
<path d="M57.5036 18.5087
L57.3827 18.5691
" />
<path d="M57.3827 18.5691
L57.2013 18.5691
" />
<path d="M58.1688 18.5691
L58.1688 17.7225
" />
<path d="M58.1688 17.9644
L58.2293 17.8434
" />
<path d="M58.2293 17.8434
L58.2898 17.7829
" />
<path d="M58.2898 17.7829
L58.4107 17.7225
" />
<path d="M58.4107 17.7225
L58.5317 17.7225
" />
<path d="M58.6527 18.6901
L59.6203 18.6901
" />
<path d="M59.9226 18.5691
L59.9226 17.2991
" />
<path d="M59.9226 17.2991
L60.2250 17.2991
" />
<path d="M60.2250 17.2991
L60.4064 17.3596
" />
<path d="M60.4064 17.3596
L60.5274 17.4806
" />
<path d="M60.5274 17.4806
L60.5879 17.6015
" />
<path d="M60.5879 17.6015
L60.6483 17.8434
" />
<path d="M60.6483 17.8434
L60.6483 18.0248
" />
<path d="M60.6483 18.0248
L60.5879 18.2667
" />
<path d="M60.5879 18.2667
L60.5274 18.3877
" />
<path d="M60.5274 18.3877
L60.4064 18.5087
" />
<path d="M60.4064 18.5087
L60.2250 18.5691
" />
<path d="M60.2250 18.5691
L59.9226 18.5691
" />
<path d="M61.1926 18.5691
L61.1926 17.2991
" />
<path d="M61.7974 18.5691
L61.7974 17.2991
" />
<path d="M61.7974 17.2991
L62.2812 17.2991
" />
<path d="M62.2812 17.2991
L62.4022 17.3596
" />
<path d="M62.4022 17.3596
L62.4627 17.4201
" />
<path d="M62.4627 17.4201
L62.5231 17.5410
" />
<path d="M62.5231 17.5410
L62.5231 17.7225
" />
<path d="M62.5231 17.7225
L62.4627 17.8434
" />
<path d="M62.4627 17.8434
L62.4022 17.9039
" />
<path d="M62.4022 17.9039
L62.2812 17.9644
" />
<path d="M62.2812 17.9644
L61.7974 17.9644
" />
<path d="M63.0674 18.0853
L64.0351 18.0853
" />
<path d="M65.3051 18.5691
L64.5794 18.5691
" />
<path d="M64.9422 18.5691
L64.9422 17.2991
" />
<path d="M64.9422 17.2991
L64.8213 17.4806
" />
<path d="M64.8213 17.4806
L64.7003 17.6015
" />
<path d="M64.7003 17.6015
L64.5794 17.6620
" />
<path d="M66.3936 17.7225
L66.3936 18.5691
" />
<path d="M66.0912 17.2387
L65.7889 18.1458
" />
<path d="M65.7889 18.1458
L66.5750 18.1458
" />
</g><text x="34.1599" y="7.1949"
textLength="56.1623" font-size="1.6933" lengthAdjust="spacingAndGlyphs"
text-anchor="middle" opacity="0">http://www.golledge.com/pdf/products/tcxos/gtxo14.pdf</text>
<g class="stroked-text"><desc>http://www.golledge.com/pdf/products/tcxos/gtxo14.pdf</desc>
<path d="M6.4923 7.1391
L6.4923 5.8691
" />
<path d="M7.0366 7.1391
L7.0366 6.4739
" />
<path d="M7.0366 6.4739
L6.9761 6.3529
" />
<path d="M6.9761 6.3529
L6.8552 6.2925
" />
<path d="M6.8552 6.2925
L6.6738 6.2925
" />
<path d="M6.6738 6.2925
L6.5528 6.3529
" />
<path d="M6.5528 6.3529
L6.4923 6.4134
" />
<path d="M7.4599 6.2925
L7.9437 6.2925
" />
<path d="M7.6413 5.8691
L7.6413 6.9577
" />
<path d="M7.6413 6.9577
L7.7018 7.0787
" />
<path d="M7.7018 7.0787
L7.8228 7.1391
" />
<path d="M7.8228 7.1391
L7.9437 7.1391
" />
<path d="M8.1856 6.2925
L8.6694 6.2925
" />
<path d="M8.3670 5.8691
L8.3670 6.9577
" />
<path d="M8.3670 6.9577
L8.4275 7.0787
" />
<path d="M8.4275 7.0787
L8.5485 7.1391
" />
<path d="M8.5485 7.1391
L8.6694 7.1391
" />
<path d="M9.0927 6.2925
L9.0927 7.5625
" />
<path d="M9.0927 6.3529
L9.2137 6.2925
" />
<path d="M9.2137 6.2925
L9.4556 6.2925
" />
<path d="M9.4556 6.2925
L9.5765 6.3529
" />
<path d="M9.5765 6.3529
L9.6370 6.4134
" />
<path d="M9.6370 6.4134
L9.6975 6.5344
" />
<path d="M9.6975 6.5344
L9.6975 6.8972
" />
<path d="M9.6975 6.8972
L9.6370 7.0182
" />
<path d="M9.6370 7.0182
L9.5765 7.0787
" />
<path d="M9.5765 7.0787
L9.4556 7.1391
" />
<path d="M9.4556 7.1391
L9.2137 7.1391
" />
<path d="M9.2137 7.1391
L9.0927 7.0787
" />
<path d="M10.2417 7.0182
L10.3022 7.0787
" />
<path d="M10.3022 7.0787
L10.2417 7.1391
" />
<path d="M10.2417 7.1391
L10.1813 7.0787
" />
<path d="M10.1813 7.0787
L10.2417 7.0182
" />
<path d="M10.2417 7.0182
L10.2417 7.1391
" />
<path d="M10.2417 6.3529
L10.3022 6.4134
" />
<path d="M10.3022 6.4134
L10.2417 6.4739
" />
<path d="M10.2417 6.4739
L10.1813 6.4134
" />
<path d="M10.1813 6.4134
L10.2417 6.3529
" />
<path d="M10.2417 6.3529
L10.2417 6.4739
" />
<path d="M11.7537 5.8087
L10.6651 7.4415
" />
<path d="M13.0842 5.8087
L11.9956 7.4415
" />
<path d="M13.3866 6.2925
L13.6285 7.1391
" />
<path d="M13.6285 7.1391
L13.8704 6.5344
" />
<path d="M13.8704 6.5344
L14.1123 7.1391
" />
<path d="M14.1123 7.1391
L14.3542 6.2925
" />
<path d="M14.7171 6.2925
L14.9590 7.1391
" />
<path d="M14.9590 7.1391
L15.2009 6.5344
" />
<path d="M15.2009 6.5344
L15.4428 7.1391
" />
<path d="M15.4428 7.1391
L15.6847 6.2925
" />
<path d="M16.0476 6.2925
L16.2895 7.1391
" />
<path d="M16.2895 7.1391
L16.5314 6.5344
" />
<path d="M16.5314 6.5344
L16.7733 7.1391
" />
<path d="M16.7733 7.1391
L17.0152 6.2925
" />
<path d="M17.4990 7.0182
L17.5595 7.0787
" />
<path d="M17.5595 7.0787
L17.4990 7.1391
" />
<path d="M17.4990 7.1391
L17.4386 7.0787
" />
<path d="M17.4386 7.0787
L17.4990 7.0182
" />
<path d="M17.4990 7.0182
L17.4990 7.1391
" />
<path d="M18.6481 6.2925
L18.6481 7.3206
" />
<path d="M18.6481 7.3206
L18.5876 7.4415
" />
<path d="M18.5876 7.4415
L18.5272 7.5020
" />
<path d="M18.5272 7.5020
L18.4062 7.5625
" />
<path d="M18.4062 7.5625
L18.2248 7.5625
" />
<path d="M18.2248 7.5625
L18.1038 7.5020
" />
<path d="M18.6481 7.0787
L18.5272 7.1391
" />
<path d="M18.5272 7.1391
L18.2853 7.1391
" />
<path d="M18.2853 7.1391
L18.1643 7.0787
" />
<path d="M18.1643 7.0787
L18.1038 7.0182
" />
<path d="M18.1038 7.0182
L18.0434 6.8972
" />
<path d="M18.0434 6.8972
L18.0434 6.5344
" />
<path d="M18.0434 6.5344
L18.1038 6.4134
" />
<path d="M18.1038 6.4134
L18.1643 6.3529
" />
<path d="M18.1643 6.3529
L18.2853 6.2925
" />
<path d="M18.2853 6.2925
L18.5272 6.2925
" />
<path d="M18.5272 6.2925
L18.6481 6.3529
" />
<path d="M19.4343 7.1391
L19.3133 7.0787
" />
<path d="M19.3133 7.0787
L19.2528 7.0182
" />
<path d="M19.2528 7.0182
L19.1924 6.8972
" />
<path d="M19.1924 6.8972
L19.1924 6.5344
" />
<path d="M19.1924 6.5344
L19.2528 6.4134
" />
<path d="M19.2528 6.4134
L19.3133 6.3529
" />
<path d="M19.3133 6.3529
L19.4343 6.2925
" />
<path d="M19.4343 6.2925
L19.6157 6.2925
" />
<path d="M19.6157 6.2925
L19.7366 6.3529
" />
<path d="M19.7366 6.3529
L19.7971 6.4134
" />
<path d="M19.7971 6.4134
L19.8576 6.5344
" />
<path d="M19.8576 6.5344
L19.8576 6.8972
" />
<path d="M19.8576 6.8972
L19.7971 7.0182
" />
<path d="M19.7971 7.0182
L19.7366 7.0787
" />
<path d="M19.7366 7.0787
L19.6157 7.1391
" />
<path d="M19.6157 7.1391
L19.4343 7.1391
" />
<path d="M20.5833 7.1391
L20.4623 7.0787
" />
<path d="M20.4623 7.0787
L20.4018 6.9577
" />
<path d="M20.4018 6.9577
L20.4018 5.8691
" />
<path d="M21.2485 7.1391
L21.1275 7.0787
" />
<path d="M21.1275 7.0787
L21.0670 6.9577
" />
<path d="M21.0670 6.9577
L21.0670 5.8691
" />
<path d="M22.2160 7.0787
L22.0951 7.1391
" />
<path d="M22.0951 7.1391
L21.8532 7.1391
" />
<path d="M21.8532 7.1391
L21.7322 7.0787
" />
<path d="M21.7322 7.0787
L21.6718 6.9577
" />
<path d="M21.6718 6.9577
L21.6718 6.4739
" />
<path d="M21.6718 6.4739
L21.7322 6.3529
" />
<path d="M21.7322 6.3529
L21.8532 6.2925
" />
<path d="M21.8532 6.2925
L22.0951 6.2925
" />
<path d="M22.0951 6.2925
L22.2160 6.3529
" />
<path d="M22.2160 6.3529
L22.2765 6.4739
" />
<path d="M22.2765 6.4739
L22.2765 6.5948
" />
<path d="M22.2765 6.5948
L21.6718 6.7158
" />
<path d="M23.3651 7.1391
L23.3651 5.8691
" />
<path d="M23.3651 7.0787
L23.2442 7.1391
" />
<path d="M23.2442 7.1391
L23.0023 7.1391
" />
<path d="M23.0023 7.1391
L22.8813 7.0787
" />
<path d="M22.8813 7.0787
L22.8208 7.0182
" />
<path d="M22.8208 7.0182
L22.7604 6.8972
" />
<path d="M22.7604 6.8972
L22.7604 6.5344
" />
<path d="M22.7604 6.5344
L22.8208 6.4134
" />
<path d="M22.8208 6.4134
L22.8813 6.3529
" />
<path d="M22.8813 6.3529
L23.0023 6.2925
" />
<path d="M23.0023 6.2925
L23.2442 6.2925
" />
<path d="M23.2442 6.2925
L23.3651 6.3529
" />
<path d="M24.5141 6.2925
L24.5141 7.3206
" />
<path d="M24.5141 7.3206
L24.4536 7.4415
" />
<path d="M24.4536 7.4415
L24.3932 7.5020
" />
<path d="M24.3932 7.5020
L24.2722 7.5625
" />
<path d="M24.2722 7.5625
L24.0908 7.5625
" />
<path d="M24.0908 7.5625
L23.9698 7.5020
" />
<path d="M24.5141 7.0787
L24.3932 7.1391
" />
<path d="M24.3932 7.1391
L24.1513 7.1391
" />
<path d="M24.1513 7.1391
L24.0303 7.0787
" />
<path d="M24.0303 7.0787
L23.9698 7.0182
" />
<path d="M23.9698 7.0182
L23.9094 6.8972
" />
<path d="M23.9094 6.8972
L23.9094 6.5344
" />
<path d="M23.9094 6.5344
L23.9698 6.4134
" />
<path d="M23.9698 6.4134
L24.0303 6.3529
" />
<path d="M24.0303 6.3529
L24.1513 6.2925
" />
<path d="M24.1513 6.2925
L24.3932 6.2925
" />
<path d="M24.3932 6.2925
L24.5141 6.3529
" />
<path d="M25.6026 7.0787
L25.4817 7.1391
" />
<path d="M25.4817 7.1391
L25.2398 7.1391
" />
<path d="M25.2398 7.1391
L25.1188 7.0787
" />
<path d="M25.1188 7.0787
L25.0584 6.9577
" />
<path d="M25.0584 6.9577
L25.0584 6.4739
" />
<path d="M25.0584 6.4739
L25.1188 6.3529
" />
<path d="M25.1188 6.3529
L25.2398 6.2925
" />
<path d="M25.2398 6.2925
L25.4817 6.2925
" />
<path d="M25.4817 6.2925
L25.6026 6.3529
" />
<path d="M25.6026 6.3529
L25.6631 6.4739
" />
<path d="M25.6631 6.4739
L25.6631 6.5948
" />
<path d="M25.6631 6.5948
L25.0584 6.7158
" />
<path d="M26.2074 7.0182
L26.2679 7.0787
" />
<path d="M26.2679 7.0787
L26.2074 7.1391
" />
<path d="M26.2074 7.1391
L26.1470 7.0787
" />
<path d="M26.1470 7.0787
L26.2074 7.0182
" />
<path d="M26.2074 7.0182
L26.2074 7.1391
" />
<path d="M27.3565 7.0787
L27.2356 7.1391
" />
<path d="M27.2356 7.1391
L26.9937 7.1391
" />
<path d="M26.9937 7.1391
L26.8727 7.0787
" />
<path d="M26.8727 7.0787
L26.8122 7.0182
" />
<path d="M26.8122 7.0182
L26.7518 6.8972
" />
<path d="M26.7518 6.8972
L26.7518 6.5344
" />
<path d="M26.7518 6.5344
L26.8122 6.4134
" />
<path d="M26.8122 6.4134
L26.8727 6.3529
" />
<path d="M26.8727 6.3529
L26.9937 6.2925
" />
<path d="M26.9937 6.2925
L27.2356 6.2925
" />
<path d="M27.2356 6.2925
L27.3565 6.3529
" />
<path d="M28.0823 7.1391
L27.9613 7.0787
" />
<path d="M27.9613 7.0787
L27.9008 7.0182
" />
<path d="M27.9008 7.0182
L27.8404 6.8972
" />
<path d="M27.8404 6.8972
L27.8404 6.5344
" />
<path d="M27.8404 6.5344
L27.9008 6.4134
" />
<path d="M27.9008 6.4134
L27.9613 6.3529
" />
<path d="M27.9613 6.3529
L28.0823 6.2925
" />
<path d="M28.0823 6.2925
L28.2637 6.2925
" />
<path d="M28.2637 6.2925
L28.3846 6.3529
" />
<path d="M28.3846 6.3529
L28.4451 6.4134
" />
<path d="M28.4451 6.4134
L28.5056 6.5344
" />
<path d="M28.5056 6.5344
L28.5056 6.8972
" />
<path d="M28.5056 6.8972
L28.4451 7.0182
" />
<path d="M28.4451 7.0182
L28.3846 7.0787
" />
<path d="M28.3846 7.0787
L28.2637 7.1391
" />
<path d="M28.2637 7.1391
L28.0823 7.1391
" />
<path d="M29.0498 7.1391
L29.0498 6.2925
" />
<path d="M29.0498 6.4134
L29.1103 6.3529
" />
<path d="M29.1103 6.3529
L29.2313 6.2925
" />
<path d="M29.2313 6.2925
L29.4127 6.2925
" />
<path d="M29.4127 6.2925
L29.5336 6.3529
" />
<path d="M29.5336 6.3529
L29.5941 6.4739
" />
<path d="M29.5941 6.4739
L29.5941 7.1391
" />
<path d="M29.5941 6.4739
L29.6546 6.3529
" />
<path d="M29.6546 6.3529
L29.7755 6.2925
" />
<path d="M29.7755 6.2925
L29.9570 6.2925
" />
<path d="M29.9570 6.2925
L30.0779 6.3529
" />
<path d="M30.0779 6.3529
L30.1384 6.4739
" />
<path d="M30.1384 6.4739
L30.1384 7.1391
" />
<path d="M31.6503 5.8087
L30.5617 7.4415
" />
<path d="M32.0736 6.2925
L32.0736 7.5625
" />
<path d="M32.0736 6.3529
L32.1946 6.2925
" />
<path d="M32.1946 6.2925
L32.4365 6.2925
" />
<path d="M32.4365 6.2925
L32.5574 6.3529
" />
<path d="M32.5574 6.3529
L32.6179 6.4134
" />
<path d="M32.6179 6.4134
L32.6784 6.5344
" />
<path d="M32.6784 6.5344
L32.6784 6.8972
" />
<path d="M32.6784 6.8972
L32.6179 7.0182
" />
<path d="M32.6179 7.0182
L32.5574 7.0787
" />
<path d="M32.5574 7.0787
L32.4365 7.1391
" />
<path d="M32.4365 7.1391
L32.1946 7.1391
" />
<path d="M32.1946 7.1391
L32.0736 7.0787
" />
<path d="M33.7669 7.1391
L33.7669 5.8691
" />
<path d="M33.7669 7.0787
L33.6460 7.1391
" />
<path d="M33.6460 7.1391
L33.4041 7.1391
" />
<path d="M33.4041 7.1391
L33.2831 7.0787
" />
<path d="M33.2831 7.0787
L33.2226 7.0182
" />
<path d="M33.2226 7.0182
L33.1622 6.8972
" />
<path d="M33.1622 6.8972
L33.1622 6.5344
" />
<path d="M33.1622 6.5344
L33.2226 6.4134
" />
<path d="M33.2226 6.4134
L33.2831 6.3529
" />
<path d="M33.2831 6.3529
L33.4041 6.2925
" />
<path d="M33.4041 6.2925
L33.6460 6.2925
" />
<path d="M33.6460 6.2925
L33.7669 6.3529
" />
<path d="M34.1902 6.2925
L34.6740 6.2925
" />
<path d="M34.3716 7.1391
L34.3716 6.0506
" />
<path d="M34.3716 6.0506
L34.4321 5.9296
" />
<path d="M34.4321 5.9296
L34.5531 5.8691
" />
<path d="M34.5531 5.8691
L34.6740 5.8691
" />
<path d="M36.0045 5.8087
L34.9159 7.4415
" />
<path d="M36.4278 6.2925
L36.4278 7.5625
" />
<path d="M36.4278 6.3529
L36.5488 6.2925
" />
<path d="M36.5488 6.2925
L36.7907 6.2925
" />
<path d="M36.7907 6.2925
L36.9116 6.3529
" />
<path d="M36.9116 6.3529
L36.9721 6.4134
" />
<path d="M36.9721 6.4134
L37.0326 6.5344
" />
<path d="M37.0326 6.5344
L37.0326 6.8972
" />
<path d="M37.0326 6.8972
L36.9721 7.0182
" />
<path d="M36.9721 7.0182
L36.9116 7.0787
" />
<path d="M36.9116 7.0787
L36.7907 7.1391
" />
<path d="M36.7907 7.1391
L36.5488 7.1391
" />
<path d="M36.5488 7.1391
L36.4278 7.0787
" />
<path d="M37.5768 7.1391
L37.5768 6.2925
" />
<path d="M37.5768 6.5344
L37.6373 6.4134
" />
<path d="M37.6373 6.4134
L37.6978 6.3529
" />
<path d="M37.6978 6.3529
L37.8187 6.2925
" />
<path d="M37.8187 6.2925
L37.9397 6.2925
" />
<path d="M38.5445 7.1391
L38.4235 7.0787
" />
<path d="M38.4235 7.0787
L38.3630 7.0182
" />
<path d="M38.3630 7.0182
L38.3026 6.8972
" />
<path d="M38.3026 6.8972
L38.3026 6.5344
" />
<path d="M38.3026 6.5344
L38.3630 6.4134
" />
<path d="M38.3630 6.4134
L38.4235 6.3529
" />
<path d="M38.4235 6.3529
L38.5445 6.2925
" />
<path d="M38.5445 6.2925
L38.7259 6.2925
" />
<path d="M38.7259 6.2925
L38.8468 6.3529
" />
<path d="M38.8468 6.3529
L38.9073 6.4134
" />
<path d="M38.9073 6.4134
L38.9678 6.5344
" />
<path d="M38.9678 6.5344
L38.9678 6.8972
" />
<path d="M38.9678 6.8972
L38.9073 7.0182
" />
<path d="M38.9073 7.0182
L38.8468 7.0787
" />
<path d="M38.8468 7.0787
L38.7259 7.1391
" />
<path d="M38.7259 7.1391
L38.5445 7.1391
" />
<path d="M40.0563 7.1391
L40.0563 5.8691
" />
<path d="M40.0563 7.0787
L39.9354 7.1391
" />
<path d="M39.9354 7.1391
L39.6935 7.1391
" />
<path d="M39.6935 7.1391
L39.5725 7.0787
" />
<path d="M39.5725 7.0787
L39.5120 7.0182
" />
<path d="M39.5120 7.0182
L39.4516 6.8972
" />
<path d="M39.4516 6.8972
L39.4516 6.5344
" />
<path d="M39.4516 6.5344
L39.5120 6.4134
" />
<path d="M39.5120 6.4134
L39.5725 6.3529
" />
<path d="M39.5725 6.3529
L39.6935 6.2925
" />
<path d="M39.6935 6.2925
L39.9354 6.2925
" />
<path d="M39.9354 6.2925
L40.0563 6.3529
" />
<path d="M41.2053 6.2925
L41.2053 7.1391
" />
<path d="M40.6610 6.2925
L40.6610 6.9577
" />
<path d="M40.6610 6.9577
L40.7215 7.0787
" />
<path d="M40.7215 7.0787
L40.8425 7.1391
" />
<path d="M40.8425 7.1391
L41.0239 7.1391
" />
<path d="M41.0239 7.1391
L41.1448 7.0787
" />
<path d="M41.1448 7.0787
L41.2053 7.0182
" />
<path d="M42.3543 7.0787
L42.2334 7.1391
" />
<path d="M42.2334 7.1391
L41.9915 7.1391
" />
<path d="M41.9915 7.1391
L41.8705 7.0787
" />
<path d="M41.8705 7.0787
L41.8100 7.0182
" />
<path d="M41.8100 7.0182
L41.7496 6.8972
" />
<path d="M41.7496 6.8972
L41.7496 6.5344
" />
<path d="M41.7496 6.5344
L41.8100 6.4134
" />
<path d="M41.8100 6.4134
L41.8705 6.3529
" />
<path d="M41.8705 6.3529
L41.9915 6.2925
" />
<path d="M41.9915 6.2925
L42.2334 6.2925
" />
<path d="M42.2334 6.2925
L42.3543 6.3529
" />
<path d="M42.7172 6.2925
L43.2010 6.2925
" />
<path d="M42.8986 5.8691
L42.8986 6.9577
" />
<path d="M42.8986 6.9577
L42.9591 7.0787
" />
<path d="M42.9591 7.0787
L43.0801 7.1391
" />
<path d="M43.0801 7.1391
L43.2010 7.1391
" />
<path d="M43.5639 7.0787
L43.6848 7.1391
" />
<path d="M43.6848 7.1391
L43.9267 7.1391
" />
<path d="M43.9267 7.1391
L44.0477 7.0787
" />
<path d="M44.0477 7.0787
L44.1081 6.9577
" />
<path d="M44.1081 6.9577
L44.1081 6.8972
" />
<path d="M44.1081 6.8972
L44.0477 6.7763
" />
<path d="M44.0477 6.7763
L43.9267 6.7158
" />
<path d="M43.9267 6.7158
L43.7453 6.7158
" />
<path d="M43.7453 6.7158
L43.6243 6.6553
" />
<path d="M43.6243 6.6553
L43.5639 6.5344
" />
<path d="M43.5639 6.5344
L43.5639 6.4739
" />
<path d="M43.5639 6.4739
L43.6243 6.3529
" />
<path d="M43.6243 6.3529
L43.7453 6.2925
" />
<path d="M43.7453 6.2925
L43.9267 6.2925
" />
<path d="M43.9267 6.2925
L44.0477 6.3529
" />
<path d="M45.5596 5.8087
L44.4710 7.4415
" />
<path d="M45.8015 6.2925
L46.2853 6.2925
" />
<path d="M45.9829 5.8691
L45.9829 6.9577
" />
<path d="M45.9829 6.9577
L46.0434 7.0787
" />
<path d="M46.0434 7.0787
L46.1644 7.1391
" />
<path d="M46.1644 7.1391
L46.2853 7.1391
" />
<path d="M47.2529 7.0787
L47.1320 7.1391
" />
<path d="M47.1320 7.1391
L46.8901 7.1391
" />
<path d="M46.8901 7.1391
L46.7691 7.0787
" />
<path d="M46.7691 7.0787
L46.7086 7.0182
" />
<path d="M46.7086 7.0182
L46.6482 6.8972
" />
<path d="M46.6482 6.8972
L46.6482 6.5344
" />
<path d="M46.6482 6.5344
L46.7086 6.4134
" />
<path d="M46.7086 6.4134
L46.7691 6.3529
" />
<path d="M46.7691 6.3529
L46.8901 6.2925
" />
<path d="M46.8901 6.2925
L47.1320 6.2925
" />
<path d="M47.1320 6.2925
L47.2529 6.3529
" />
<path d="M47.6763 7.1391
L48.3415 6.2925
" />
<path d="M47.6763 6.2925
L48.3415 7.1391
" />
<path d="M49.0068 7.1391
L48.8858 7.0787
" />
<path d="M48.8858 7.0787
L48.8253 7.0182
" />
<path d="M48.8253 7.0182
L48.7649 6.8972
" />
<path d="M48.7649 6.8972
L48.7649 6.5344
" />
<path d="M48.7649 6.5344
L48.8253 6.4134
" />
<path d="M48.8253 6.4134
L48.8858 6.3529
" />
<path d="M48.8858 6.3529
L49.0068 6.2925
" />
<path d="M49.0068 6.2925
L49.1882 6.2925
" />
<path d="M49.1882 6.2925
L49.3091 6.3529
" />
<path d="M49.3091 6.3529
L49.3696 6.4134
" />
<path d="M49.3696 6.4134
L49.4301 6.5344
" />
<path d="M49.4301 6.5344
L49.4301 6.8972
" />
<path d="M49.4301 6.8972
L49.3696 7.0182
" />
<path d="M49.3696 7.0182
L49.3091 7.0787
" />
<path d="M49.3091 7.0787
L49.1882 7.1391
" />
<path d="M49.1882 7.1391
L49.0068 7.1391
" />
<path d="M49.9139 7.0787
L50.0348 7.1391
" />
<path d="M50.0348 7.1391
L50.2767 7.1391
" />
<path d="M50.2767 7.1391
L50.3977 7.0787
" />
<path d="M50.3977 7.0787
L50.4581 6.9577
" />
<path d="M50.4581 6.9577
L50.4581 6.8972
" />
<path d="M50.4581 6.8972
L50.3977 6.7763
" />
<path d="M50.3977 6.7763
L50.2767 6.7158
" />
<path d="M50.2767 6.7158
L50.0953 6.7158
" />
<path d="M50.0953 6.7158
L49.9743 6.6553
" />
<path d="M49.9743 6.6553
L49.9139 6.5344
" />
<path d="M49.9139 6.5344
L49.9139 6.4739
" />
<path d="M49.9139 6.4739
L49.9743 6.3529
" />
<path d="M49.9743 6.3529
L50.0953 6.2925
" />
<path d="M50.0953 6.2925
L50.2767 6.2925
" />
<path d="M50.2767 6.2925
L50.3977 6.3529
" />
<path d="M51.9096 5.8087
L50.8210 7.4415
" />
<path d="M52.8772 6.2925
L52.8772 7.3206
" />
<path d="M52.8772 7.3206
L52.8167 7.4415
" />
<path d="M52.8167 7.4415
L52.7563 7.5020
" />
<path d="M52.7563 7.5020
L52.6353 7.5625
" />
<path d="M52.6353 7.5625
L52.4539 7.5625
" />
<path d="M52.4539 7.5625
L52.3329 7.5020
" />
<path d="M52.8772 7.0787
L52.7563 7.1391
" />
<path d="M52.7563 7.1391
L52.5144 7.1391
" />
<path d="M52.5144 7.1391
L52.3934 7.0787
" />
<path d="M52.3934 7.0787
L52.3329 7.0182
" />
<path d="M52.3329 7.0182
L52.2725 6.8972
" />
<path d="M52.2725 6.8972
L52.2725 6.5344
" />
<path d="M52.2725 6.5344
L52.3329 6.4134
" />
<path d="M52.3329 6.4134
L52.3934 6.3529
" />
<path d="M52.3934 6.3529
L52.5144 6.2925
" />
<path d="M52.5144 6.2925
L52.7563 6.2925
" />
<path d="M52.7563 6.2925
L52.8772 6.3529
" />
<path d="M53.3005 6.2925
L53.7843 6.2925
" />
<path d="M53.4819 5.8691
L53.4819 6.9577
" />
<path d="M53.4819 6.9577
L53.5424 7.0787
" />
<path d="M53.5424 7.0787
L53.6634 7.1391
" />
<path d="M53.6634 7.1391
L53.7843 7.1391
" />
<path d="M54.0867 7.1391
L54.7519 6.2925
" />
<path d="M54.0867 6.2925
L54.7519 7.1391
" />
<path d="M55.4172 7.1391
L55.2962 7.0787
" />
<path d="M55.2962 7.0787
L55.2357 7.0182
" />
<path d="M55.2357 7.0182
L55.1753 6.8972
" />
<path d="M55.1753 6.8972
L55.1753 6.5344
" />
<path d="M55.1753 6.5344
L55.2357 6.4134
" />
<path d="M55.2357 6.4134
L55.2962 6.3529
" />
<path d="M55.2962 6.3529
L55.4172 6.2925
" />
<path d="M55.4172 6.2925
L55.5986 6.2925
" />
<path d="M55.5986 6.2925
L55.7195 6.3529
" />
<path d="M55.7195 6.3529
L55.7800 6.4134
" />
<path d="M55.7800 6.4134
L55.8405 6.5344
" />
<path d="M55.8405 6.5344
L55.8405 6.8972
" />
<path d="M55.8405 6.8972
L55.7800 7.0182
" />
<path d="M55.7800 7.0182
L55.7195 7.0787
" />
<path d="M55.7195 7.0787
L55.5986 7.1391
" />
<path d="M55.5986 7.1391
L55.4172 7.1391
" />
<path d="M57.0500 7.1391
L56.3243 7.1391
" />
<path d="M56.6871 7.1391
L56.6871 5.8691
" />
<path d="M56.6871 5.8691
L56.5662 6.0506
" />
<path d="M56.5662 6.0506
L56.4452 6.1715
" />
<path d="M56.4452 6.1715
L56.3243 6.2320
" />
<path d="M58.1385 6.2925
L58.1385 7.1391
" />
<path d="M57.8361 5.8087
L57.5338 6.7158
" />
<path d="M57.5338 6.7158
L58.3199 6.7158
" />
<path d="M58.8037 7.0182
L58.8642 7.0787
" />
<path d="M58.8642 7.0787
L58.8037 7.1391
" />
<path d="M58.8037 7.1391
L58.7433 7.0787
" />
<path d="M58.7433 7.0787
L58.8037 7.0182
" />
<path d="M58.8037 7.0182
L58.8037 7.1391
" />
<path d="M59.4085 6.2925
L59.4085 7.5625
" />
<path d="M59.4085 6.3529
L59.5295 6.2925
" />
<path d="M59.5295 6.2925
L59.7714 6.2925
" />
<path d="M59.7714 6.2925
L59.8923 6.3529
" />
<path d="M59.8923 6.3529
L59.9528 6.4134
" />
<path d="M59.9528 6.4134
L60.0133 6.5344
" />
<path d="M60.0133 6.5344
L60.0133 6.8972
" />
<path d="M60.0133 6.8972
L59.9528 7.0182
" />
<path d="M59.9528 7.0182
L59.8923 7.0787
" />
<path d="M59.8923 7.0787
L59.7714 7.1391
" />
<path d="M59.7714 7.1391
L59.5295 7.1391
" />
<path d="M59.5295 7.1391
L59.4085 7.0787
" />
<path d="M61.1018 7.1391
L61.1018 5.8691
" />
<path d="M61.1018 7.0787
L60.9809 7.1391
" />
<path d="M60.9809 7.1391
L60.7390 7.1391
" />
<path d="M60.7390 7.1391
L60.6180 7.0787
" />
<path d="M60.6180 7.0787
L60.5575 7.0182
" />
<path d="M60.5575 7.0182
L60.4971 6.8972
" />
<path d="M60.4971 6.8972
L60.4971 6.5344
" />
<path d="M60.4971 6.5344
L60.5575 6.4134
" />
<path d="M60.5575 6.4134
L60.6180 6.3529
" />
<path d="M60.6180 6.3529
L60.7390 6.2925
" />
<path d="M60.7390 6.2925
L60.9809 6.2925
" />
<path d="M60.9809 6.2925
L61.1018 6.3529
" />
<path d="M61.5251 6.2925
L62.0089 6.2925
" />
<path d="M61.7065 7.1391
L61.7065 6.0506
" />
<path d="M61.7065 6.0506
L61.7670 5.9296
" />
<path d="M61.7670 5.9296
L61.8880 5.8691
" />
<path d="M61.8880 5.8691
L62.0089 5.8691
" />
</g></g> 
</svg>
