<?xml version="1.0" standalone="no"?>
 <!DOCTYPE svg PUBLIC "-//W3C//DTD SVG 1.1//EN" 
 "http://www.w3.org/Graphics/SVG/1.1/DTD/svg11.dtd"> 
<svg
  xmlns:svg="http://www.w3.org/2000/svg"
  xmlns="http://www.w3.org/2000/svg"
  xmlns:xlink="http://www.w3.org/1999/xlink"
  version="1.1"
  width="93.2942mm" height="24.3840mm" viewBox="0.0000 0.0000 93.2942 24.3840">
<title>SVG Image created as working.svg date 2023/08/31 18:58:38 </title>
  <desc>Image generated by Eeschema-SVG </desc>
<g style="fill:#000000; fill-opacity:1.0000;stroke:#000000; stroke-opacity:1.0000;
stroke-linecap:round; stroke-linejoin:round;"
 transform="translate(0 0) scale(1 1)">
</g>
<g style="fill:#840000; fill-opacity:0.0; 
stroke:#840000; stroke-width:0.0000; stroke-opacity:1; 
stroke-linecap:round; stroke-linejoin:round;">
</g>
<g style="fill:#FFFFC2; fill-opacity:0.0; 
stroke:#FFFFC2; stroke-width:0.0000; stroke-opacity:1; 
stroke-linecap:round; stroke-linejoin:round;">
</g>
<g style="fill:#FFFFC2; fill-opacity:1.0000; 
stroke:#FFFFC2; stroke-width:0.0000; stroke-opacity:1; 
stroke-linecap:round; stroke-linejoin:round;">
<rect x="36.491400" y="4.572100" width="20.320000" height="15.240000" rx="0.000000" />
</g>
<g style="fill:#840084; fill-opacity:1.0000; 
stroke:#840084; stroke-width:0.0000; stroke-opacity:1; 
stroke-linecap:round; stroke-linejoin:round;">
</g>
<g style="fill:#840000; fill-opacity:1.0000; 
stroke:#840000; stroke-width:0.0000; stroke-opacity:1; 
stroke-linecap:round; stroke-linejoin:round;">
</g>
<g style="fill:#840000; fill-opacity:0.0; 
stroke:#840000; stroke-width:0.2540; stroke-opacity:1; 
stroke-linecap:round; stroke-linejoin:round;">
<rect x="36.491400" y="4.572100" width="20.320000" height="15.240000" rx="0.000000" />
</g>
<g style="fill:#840000; fill-opacity:0.0; 
stroke:#840000; stroke-width:0.1524; stroke-opacity:1; 
stroke-linecap:round; stroke-linejoin:round;">
<path d="M56.8114 7.1121
L59.3514 7.1121
" />
</g>
<g style="fill:#006464; fill-opacity:0.0; 
stroke:#006464; stroke-width:0.1524; stroke-opacity:1; 
stroke-linecap:round; stroke-linejoin:round;">
<text x="56.3034" y="7.7471"
textLength="6.3718" font-size="1.6933" lengthAdjust="spacingAndGlyphs"
text-anchor="end" opacity="0">CSYNC</text>
<g class="stroked-text"><desc>CSYNC</desc>
<path d="M51.0626 7.5707
L51.0022 7.6312
" />
<path d="M51.0022 7.6312
L50.8207 7.6916
" />
<path d="M50.8207 7.6916
L50.6998 7.6916
" />
<path d="M50.6998 7.6916
L50.5184 7.6312
" />
<path d="M50.5184 7.6312
L50.3974 7.5102
" />
<path d="M50.3974 7.5102
L50.3369 7.3892
" />
<path d="M50.3369 7.3892
L50.2765 7.1473
" />
<path d="M50.2765 7.1473
L50.2765 6.9659
" />
<path d="M50.2765 6.9659
L50.3369 6.7240
" />
<path d="M50.3369 6.7240
L50.3974 6.6031
" />
<path d="M50.3974 6.6031
L50.5184 6.4821
" />
<path d="M50.5184 6.4821
L50.6998 6.4216
" />
<path d="M50.6998 6.4216
L50.8207 6.4216
" />
<path d="M50.8207 6.4216
L51.0022 6.4821
" />
<path d="M51.0022 6.4821
L51.0626 6.5426
" />
<path d="M51.5465 7.6312
L51.7279 7.6916
" />
<path d="M51.7279 7.6916
L52.0303 7.6916
" />
<path d="M52.0303 7.6916
L52.1512 7.6312
" />
<path d="M52.1512 7.6312
L52.2117 7.5707
" />
<path d="M52.2117 7.5707
L52.2722 7.4497
" />
<path d="M52.2722 7.4497
L52.2722 7.3288
" />
<path d="M52.2722 7.3288
L52.2117 7.2078
" />
<path d="M52.2117 7.2078
L52.1512 7.1473
" />
<path d="M52.1512 7.1473
L52.0303 7.0869
" />
<path d="M52.0303 7.0869
L51.7884 7.0264
" />
<path d="M51.7884 7.0264
L51.6674 6.9659
" />
<path d="M51.6674 6.9659
L51.6069 6.9054
" />
<path d="M51.6069 6.9054
L51.5465 6.7845
" />
<path d="M51.5465 6.7845
L51.5465 6.6635
" />
<path d="M51.5465 6.6635
L51.6069 6.5426
" />
<path d="M51.6069 6.5426
L51.6674 6.4821
" />
<path d="M51.6674 6.4821
L51.7884 6.4216
" />
<path d="M51.7884 6.4216
L52.0907 6.4216
" />
<path d="M52.0907 6.4216
L52.2722 6.4821
" />
<path d="M53.0583 7.0869
L53.0583 7.6916
" />
<path d="M52.6350 6.4216
L53.0583 7.0869
" />
<path d="M53.0583 7.0869
L53.4817 6.4216
" />
<path d="M53.9050 7.6916
L53.9050 6.4216
" />
<path d="M53.9050 6.4216
L54.6307 7.6916
" />
<path d="M54.6307 7.6916
L54.6307 6.4216
" />
<path d="M55.9612 7.5707
L55.9008 7.6312
" />
<path d="M55.9008 7.6312
L55.7193 7.6916
" />
<path d="M55.7193 7.6916
L55.5984 7.6916
" />
<path d="M55.5984 7.6916
L55.4170 7.6312
" />
<path d="M55.4170 7.6312
L55.2960 7.5102
" />
<path d="M55.2960 7.5102
L55.2355 7.3892
" />
<path d="M55.2355 7.3892
L55.1751 7.1473
" />
<path d="M55.1751 7.1473
L55.1751 6.9659
" />
<path d="M55.1751 6.9659
L55.2355 6.7240
" />
<path d="M55.2355 6.7240
L55.2960 6.6031
" />
<path d="M55.2960 6.6031
L55.4170 6.4821
" />
<path d="M55.4170 6.4821
L55.5984 6.4216
" />
<path d="M55.5984 6.4216
L55.7193 6.4216
" />
<path d="M55.7193 6.4216
L55.9008 6.4821
" />
<path d="M55.9008 6.4821
L55.9612 6.5426
" />
</g></g>
<g style="fill:#A90000; fill-opacity:0.0; 
stroke:#A90000; stroke-width:0.1524; stroke-opacity:1; 
stroke-linecap:round; stroke-linejoin:round;">
<text x="58.0814" y="6.8581"
textLength="1.4127" font-size="1.6933" lengthAdjust="spacingAndGlyphs"
text-anchor="middle" opacity="0">1</text>
<g class="stroked-text"><desc>1</desc>
<path d="M58.4443 6.6946
L57.7186 6.6946
" />
<path d="M58.0814 6.6946
L58.0814 5.4246
" />
<path d="M58.0814 5.4246
L57.9605 5.6061
" />
<path d="M57.9605 5.6061
L57.8395 5.7270
" />
<path d="M57.8395 5.7270
L57.7186 5.7875
" />
</g></g>
<g style="fill:#840000; fill-opacity:0.0; 
stroke:#840000; stroke-width:0.1524; stroke-opacity:1; 
stroke-linecap:round; stroke-linejoin:round;">
<path d="M36.4914 7.1121
L33.9514 7.1121
" />
</g>
<g style="fill:#006464; fill-opacity:0.0; 
stroke:#006464; stroke-width:0.1524; stroke-opacity:1; 
stroke-linecap:round; stroke-linejoin:round;">
<text x="36.9994" y="7.7471"
textLength="5.0413" font-size="1.6933" lengthAdjust="spacingAndGlyphs"
text-anchor="start" opacity="0">CVBS</text>
<g class="stroked-text"><desc>CVBS</desc>
<path d="M38.1276 7.5707
L38.0672 7.6312
" />
<path d="M38.0672 7.6312
L37.8857 7.6916
" />
<path d="M37.8857 7.6916
L37.7648 7.6916
" />
<path d="M37.7648 7.6916
L37.5834 7.6312
" />
<path d="M37.5834 7.6312
L37.4624 7.5102
" />
<path d="M37.4624 7.5102
L37.4019 7.3892
" />
<path d="M37.4019 7.3892
L37.3415 7.1473
" />
<path d="M37.3415 7.1473
L37.3415 6.9659
" />
<path d="M37.3415 6.9659
L37.4019 6.7240
" />
<path d="M37.4019 6.7240
L37.4624 6.6031
" />
<path d="M37.4624 6.6031
L37.5834 6.4821
" />
<path d="M37.5834 6.4821
L37.7648 6.4216
" />
<path d="M37.7648 6.4216
L37.8857 6.4216
" />
<path d="M37.8857 6.4216
L38.0672 6.4821
" />
<path d="M38.0672 6.4821
L38.1276 6.5426
" />
<path d="M38.4905 6.4216
L38.9138 7.6916
" />
<path d="M38.9138 7.6916
L39.3372 6.4216
" />
<path d="M40.1839 7.0264
L40.3653 7.0869
" />
<path d="M40.3653 7.0869
L40.4258 7.1473
" />
<path d="M40.4258 7.1473
L40.4862 7.2683
" />
<path d="M40.4862 7.2683
L40.4862 7.4497
" />
<path d="M40.4862 7.4497
L40.4258 7.5707
" />
<path d="M40.4258 7.5707
L40.3653 7.6312
" />
<path d="M40.3653 7.6312
L40.2443 7.6916
" />
<path d="M40.2443 7.6916
L39.7605 7.6916
" />
<path d="M39.7605 7.6916
L39.7605 6.4216
" />
<path d="M39.7605 6.4216
L40.1839 6.4216
" />
<path d="M40.1839 6.4216
L40.3048 6.4821
" />
<path d="M40.3048 6.4821
L40.3653 6.5426
" />
<path d="M40.3653 6.5426
L40.4258 6.6635
" />
<path d="M40.4258 6.6635
L40.4258 6.7845
" />
<path d="M40.4258 6.7845
L40.3653 6.9054
" />
<path d="M40.3653 6.9054
L40.3048 6.9659
" />
<path d="M40.3048 6.9659
L40.1839 7.0264
" />
<path d="M40.1839 7.0264
L39.7605 7.0264
" />
<path d="M40.9701 7.6312
L41.1515 7.6916
" />
<path d="M41.1515 7.6916
L41.4539 7.6916
" />
<path d="M41.4539 7.6916
L41.5748 7.6312
" />
<path d="M41.5748 7.6312
L41.6353 7.5707
" />
<path d="M41.6353 7.5707
L41.6958 7.4497
" />
<path d="M41.6958 7.4497
L41.6958 7.3288
" />
<path d="M41.6958 7.3288
L41.6353 7.2078
" />
<path d="M41.6353 7.2078
L41.5748 7.1473
" />
<path d="M41.5748 7.1473
L41.4539 7.0869
" />
<path d="M41.4539 7.0869
L41.2120 7.0264
" />
<path d="M41.2120 7.0264
L41.0910 6.9659
" />
<path d="M41.0910 6.9659
L41.0305 6.9054
" />
<path d="M41.0305 6.9054
L40.9701 6.7845
" />
<path d="M40.9701 6.7845
L40.9701 6.6635
" />
<path d="M40.9701 6.6635
L41.0305 6.5426
" />
<path d="M41.0305 6.5426
L41.0910 6.4821
" />
<path d="M41.0910 6.4821
L41.2120 6.4216
" />
<path d="M41.2120 6.4216
L41.5143 6.4216
" />
<path d="M41.5143 6.4216
L41.6958 6.4821
" />
</g></g>
<g style="fill:#A90000; fill-opacity:0.0; 
stroke:#A90000; stroke-width:0.1524; stroke-opacity:1; 
stroke-linecap:round; stroke-linejoin:round;">
<text x="35.2214" y="6.8581"
textLength="1.4127" font-size="1.6933" lengthAdjust="spacingAndGlyphs"
text-anchor="middle" opacity="0">2</text>
<g class="stroked-text"><desc>2</desc>
<path d="M34.8586 5.5456
L34.9190 5.4851
" />
<path d="M34.9190 5.4851
L35.0400 5.4246
" />
<path d="M35.0400 5.4246
L35.3424 5.4246
" />
<path d="M35.3424 5.4246
L35.4633 5.4851
" />
<path d="M35.4633 5.4851
L35.5238 5.5456
" />
<path d="M35.5238 5.5456
L35.5843 5.6665
" />
<path d="M35.5843 5.6665
L35.5843 5.7875
" />
<path d="M35.5843 5.7875
L35.5238 5.9689
" />
<path d="M35.5238 5.9689
L34.7981 6.6946
" />
<path d="M34.7981 6.6946
L35.5843 6.6946
" />
</g></g>
<g style="fill:#840000; fill-opacity:0.0; 
stroke:#840000; stroke-width:0.1524; stroke-opacity:1; 
stroke-linecap:round; stroke-linejoin:round;">
<path d="M56.8114 9.6521
L59.3514 9.6521
" />
</g>
<g style="fill:#006464; fill-opacity:0.0; 
stroke:#006464; stroke-width:0.1524; stroke-opacity:1; 
stroke-linecap:round; stroke-linejoin:round;">
<text x="56.3034" y="10.2871"
textLength="6.1904" font-size="1.6933" lengthAdjust="spacingAndGlyphs"
text-anchor="end" opacity="0">VSYNC</text>
<g class="stroked-text"><desc>VSYNC</desc>
<path d="M50.3369 8.9616
L50.7602 10.2316
" />
<path d="M50.7602 10.2316
L51.1836 8.9616
" />
<path d="M51.5465 10.1712
L51.7279 10.2316
" />
<path d="M51.7279 10.2316
L52.0303 10.2316
" />
<path d="M52.0303 10.2316
L52.1512 10.1712
" />
<path d="M52.1512 10.1712
L52.2117 10.1107
" />
<path d="M52.2117 10.1107
L52.2722 9.9897
" />
<path d="M52.2722 9.9897
L52.2722 9.8688
" />
<path d="M52.2722 9.8688
L52.2117 9.7478
" />
<path d="M52.2117 9.7478
L52.1512 9.6873
" />
<path d="M52.1512 9.6873
L52.0303 9.6269
" />
<path d="M52.0303 9.6269
L51.7884 9.5664
" />
<path d="M51.7884 9.5664
L51.6674 9.5059
" />
<path d="M51.6674 9.5059
L51.6069 9.4454
" />
<path d="M51.6069 9.4454
L51.5465 9.3245
" />
<path d="M51.5465 9.3245
L51.5465 9.2035
" />
<path d="M51.5465 9.2035
L51.6069 9.0826
" />
<path d="M51.6069 9.0826
L51.6674 9.0221
" />
<path d="M51.6674 9.0221
L51.7884 8.9616
" />
<path d="M51.7884 8.9616
L52.0907 8.9616
" />
<path d="M52.0907 8.9616
L52.2722 9.0221
" />
<path d="M53.0583 9.6269
L53.0583 10.2316
" />
<path d="M52.6350 8.9616
L53.0583 9.6269
" />
<path d="M53.0583 9.6269
L53.4817 8.9616
" />
<path d="M53.9050 10.2316
L53.9050 8.9616
" />
<path d="M53.9050 8.9616
L54.6307 10.2316
" />
<path d="M54.6307 10.2316
L54.6307 8.9616
" />
<path d="M55.9612 10.1107
L55.9008 10.1712
" />
<path d="M55.9008 10.1712
L55.7193 10.2316
" />
<path d="M55.7193 10.2316
L55.5984 10.2316
" />
<path d="M55.5984 10.2316
L55.4170 10.1712
" />
<path d="M55.4170 10.1712
L55.2960 10.0502
" />
<path d="M55.2960 10.0502
L55.2355 9.9292
" />
<path d="M55.2355 9.9292
L55.1751 9.6873
" />
<path d="M55.1751 9.6873
L55.1751 9.5059
" />
<path d="M55.1751 9.5059
L55.2355 9.2640
" />
<path d="M55.2355 9.2640
L55.2960 9.1431
" />
<path d="M55.2960 9.1431
L55.4170 9.0221
" />
<path d="M55.4170 9.0221
L55.5984 8.9616
" />
<path d="M55.5984 8.9616
L55.7193 8.9616
" />
<path d="M55.7193 8.9616
L55.9008 9.0221
" />
<path d="M55.9008 9.0221
L55.9612 9.0826
" />
</g></g>
<g style="fill:#A90000; fill-opacity:0.0; 
stroke:#A90000; stroke-width:0.1524; stroke-opacity:1; 
stroke-linecap:round; stroke-linejoin:round;">
<text x="58.0814" y="9.3981"
textLength="1.4127" font-size="1.6933" lengthAdjust="spacingAndGlyphs"
text-anchor="middle" opacity="0">3</text>
<g class="stroked-text"><desc>3</desc>
<path d="M57.6581 7.9646
L58.4443 7.9646
" />
<path d="M58.4443 7.9646
L58.0209 8.4484
" />
<path d="M58.0209 8.4484
L58.2024 8.4484
" />
<path d="M58.2024 8.4484
L58.3233 8.5089
" />
<path d="M58.3233 8.5089
L58.3838 8.5694
" />
<path d="M58.3838 8.5694
L58.4443 8.6903
" />
<path d="M58.4443 8.6903
L58.4443 8.9927
" />
<path d="M58.4443 8.9927
L58.3838 9.1137
" />
<path d="M58.3838 9.1137
L58.3233 9.1742
" />
<path d="M58.3233 9.1742
L58.2024 9.2346
" />
<path d="M58.2024 9.2346
L57.8395 9.2346
" />
<path d="M57.8395 9.2346
L57.7186 9.1742
" />
<path d="M57.7186 9.1742
L57.6581 9.1137
" />
</g></g>
<g style="fill:#840000; fill-opacity:0.0; 
stroke:#840000; stroke-width:0.1524; stroke-opacity:1; 
stroke-linecap:round; stroke-linejoin:round;">
<path d="M46.6514 19.8121
L46.6514 22.3521
" />
</g>
<g style="fill:#006464; fill-opacity:0.0; 
stroke:#006464; stroke-width:0.1524; stroke-opacity:1; 
stroke-linecap:round; stroke-linejoin:round;">
<g transform="rotate(-90.000000 46.6514 19.3041)">
<text x="46.6514" y="19.9391"
textLength="4.0737" font-size="1.6933" lengthAdjust="spacingAndGlyphs"
text-anchor="start" opacity="0">GND</text>
</g>
<g class="stroked-text"><desc>GND</desc>
<path d="M46.0214 18.2362
L45.9609 18.3572
" />
<path d="M45.9609 18.3572
L45.9609 18.5386
" />
<path d="M45.9609 18.5386
L46.0214 18.7200
" />
<path d="M46.0214 18.7200
L46.1424 18.8410
" />
<path d="M46.1424 18.8410
L46.2633 18.9015
" />
<path d="M46.2633 18.9015
L46.5052 18.9619
" />
<path d="M46.5052 18.9619
L46.6866 18.9619
" />
<path d="M46.6866 18.9619
L46.9285 18.9015
" />
<path d="M46.9285 18.9015
L47.0495 18.8410
" />
<path d="M47.0495 18.8410
L47.1705 18.7200
" />
<path d="M47.1705 18.7200
L47.2309 18.5386
" />
<path d="M47.2309 18.5386
L47.2309 18.4177
" />
<path d="M47.2309 18.4177
L47.1705 18.2362
" />
<path d="M47.1705 18.2362
L47.1100 18.1758
" />
<path d="M47.1100 18.1758
L46.6866 18.1758
" />
<path d="M46.6866 18.1758
L46.6866 18.4177
" />
<path d="M47.2309 17.6315
L45.9609 17.6315
" />
<path d="M45.9609 17.6315
L47.2309 16.9058
" />
<path d="M47.2309 16.9058
L45.9609 16.9058
" />
<path d="M47.2309 16.3010
L45.9609 16.3010
" />
<path d="M45.9609 16.3010
L45.9609 15.9986
" />
<path d="M45.9609 15.9986
L46.0214 15.8172
" />
<path d="M46.0214 15.8172
L46.1424 15.6962
" />
<path d="M46.1424 15.6962
L46.2633 15.6357
" />
<path d="M46.2633 15.6357
L46.5052 15.5753
" />
<path d="M46.5052 15.5753
L46.6866 15.5753
" />
<path d="M46.6866 15.5753
L46.9285 15.6357
" />
<path d="M46.9285 15.6357
L47.0495 15.6962
" />
<path d="M47.0495 15.6962
L47.1705 15.8172
" />
<path d="M47.1705 15.8172
L47.2309 15.9986
" />
<path d="M47.2309 15.9986
L47.2309 16.3010
" />
</g></g>
<g style="fill:#A90000; fill-opacity:0.0; 
stroke:#A90000; stroke-width:0.1524; stroke-opacity:1; 
stroke-linecap:round; stroke-linejoin:round;">
<g transform="rotate(-90.000000 46.3974 21.0821)">
<text x="46.3974" y="21.0821"
textLength="1.4127" font-size="1.6933" lengthAdjust="spacingAndGlyphs"
text-anchor="middle" opacity="0">4</text>
</g>
<g class="stroked-text"><desc>4</desc>
<path d="M45.3873 20.8401
L46.2339 20.8401
" />
<path d="M44.9035 21.1425
L45.8106 21.4448
" />
<path d="M45.8106 21.4448
L45.8106 20.6587
" />
</g></g>
<g style="fill:#840000; fill-opacity:0.0; 
stroke:#840000; stroke-width:0.1524; stroke-opacity:1; 
stroke-linecap:round; stroke-linejoin:round;">
<path d="M56.8114 17.2721
L59.3514 17.2721
" />
</g>
<g style="fill:#006464; fill-opacity:0.0; 
stroke:#006464; stroke-width:0.1524; stroke-opacity:1; 
stroke-linecap:round; stroke-linejoin:round;">
<text x="56.3034" y="17.9071"
textLength="2.8037" font-size="1.6933" lengthAdjust="spacingAndGlyphs"
text-anchor="end" opacity="0">~{HD}</text>
<g class="stroked-text"><desc>~{HD}</desc>
<path d="M53.9050 17.8516
L53.9050 16.5816
" />
<path d="M53.9050 17.1864
L54.6307 17.1864
" />
<path d="M54.6307 17.8516
L54.6307 16.5816
" />
<path d="M55.2355 17.8516
L55.2355 16.5816
" />
<path d="M55.2355 16.5816
L55.5379 16.5816
" />
<path d="M55.5379 16.5816
L55.7193 16.6421
" />
<path d="M55.7193 16.6421
L55.8403 16.7631
" />
<path d="M55.8403 16.7631
L55.9008 16.8840
" />
<path d="M55.9008 16.8840
L55.9612 17.1259
" />
<path d="M55.9612 17.1259
L55.9612 17.3073
" />
<path d="M55.9612 17.3073
L55.9008 17.5492
" />
<path d="M55.9008 17.5492
L55.8403 17.6702
" />
<path d="M55.8403 17.6702
L55.7193 17.7912
" />
<path d="M55.7193 17.7912
L55.5379 17.8516
" />
<path d="M55.5379 17.8516
L55.2355 17.8516
" />
<path d="M53.7297 16.2291
L56.0762 16.2291
" />
</g></g>
<g style="fill:#A90000; fill-opacity:0.0; 
stroke:#A90000; stroke-width:0.1524; stroke-opacity:1; 
stroke-linecap:round; stroke-linejoin:round;">
<text x="58.0814" y="17.0181"
textLength="1.4127" font-size="1.6933" lengthAdjust="spacingAndGlyphs"
text-anchor="middle" opacity="0">5</text>
<g class="stroked-text"><desc>5</desc>
<path d="M58.3838 15.5846
L57.7790 15.5846
" />
<path d="M57.7790 15.5846
L57.7186 16.1894
" />
<path d="M57.7186 16.1894
L57.7790 16.1289
" />
<path d="M57.7790 16.1289
L57.9000 16.0684
" />
<path d="M57.9000 16.0684
L58.2024 16.0684
" />
<path d="M58.2024 16.0684
L58.3233 16.1289
" />
<path d="M58.3233 16.1289
L58.3838 16.1894
" />
<path d="M58.3838 16.1894
L58.4443 16.3103
" />
<path d="M58.4443 16.3103
L58.4443 16.6127
" />
<path d="M58.4443 16.6127
L58.3838 16.7337
" />
<path d="M58.3838 16.7337
L58.3233 16.7942
" />
<path d="M58.3233 16.7942
L58.2024 16.8546
" />
<path d="M58.2024 16.8546
L57.9000 16.8546
" />
<path d="M57.9000 16.8546
L57.7790 16.7942
" />
<path d="M57.7790 16.7942
L57.7186 16.7337
" />
</g></g>
<g style="fill:#840000; fill-opacity:0.0; 
stroke:#840000; stroke-width:0.1524; stroke-opacity:1; 
stroke-linecap:round; stroke-linejoin:round;">
<path d="M36.4914 17.2721
L33.9514 17.2721
" />
</g>
<g style="fill:#006464; fill-opacity:0.0; 
stroke:#006464; stroke-width:0.1524; stroke-opacity:1; 
stroke-linecap:round; stroke-linejoin:round;">
<text x="36.9994" y="17.9071"
textLength="4.7993" font-size="1.6933" lengthAdjust="spacingAndGlyphs"
text-anchor="start" opacity="0">CSET</text>
<g class="stroked-text"><desc>CSET</desc>
<path d="M38.1276 17.7307
L38.0672 17.7912
" />
<path d="M38.0672 17.7912
L37.8857 17.8516
" />
<path d="M37.8857 17.8516
L37.7648 17.8516
" />
<path d="M37.7648 17.8516
L37.5834 17.7912
" />
<path d="M37.5834 17.7912
L37.4624 17.6702
" />
<path d="M37.4624 17.6702
L37.4019 17.5492
" />
<path d="M37.4019 17.5492
L37.3415 17.3073
" />
<path d="M37.3415 17.3073
L37.3415 17.1259
" />
<path d="M37.3415 17.1259
L37.4019 16.8840
" />
<path d="M37.4019 16.8840
L37.4624 16.7631
" />
<path d="M37.4624 16.7631
L37.5834 16.6421
" />
<path d="M37.5834 16.6421
L37.7648 16.5816
" />
<path d="M37.7648 16.5816
L37.8857 16.5816
" />
<path d="M37.8857 16.5816
L38.0672 16.6421
" />
<path d="M38.0672 16.6421
L38.1276 16.7026
" />
<path d="M38.6115 17.7912
L38.7929 17.8516
" />
<path d="M38.7929 17.8516
L39.0953 17.8516
" />
<path d="M39.0953 17.8516
L39.2162 17.7912
" />
<path d="M39.2162 17.7912
L39.2767 17.7307
" />
<path d="M39.2767 17.7307
L39.3372 17.6097
" />
<path d="M39.3372 17.6097
L39.3372 17.4888
" />
<path d="M39.3372 17.4888
L39.2767 17.3678
" />
<path d="M39.2767 17.3678
L39.2162 17.3073
" />
<path d="M39.2162 17.3073
L39.0953 17.2469
" />
<path d="M39.0953 17.2469
L38.8534 17.1864
" />
<path d="M38.8534 17.1864
L38.7324 17.1259
" />
<path d="M38.7324 17.1259
L38.6719 17.0654
" />
<path d="M38.6719 17.0654
L38.6115 16.9445
" />
<path d="M38.6115 16.9445
L38.6115 16.8235
" />
<path d="M38.6115 16.8235
L38.6719 16.7026
" />
<path d="M38.6719 16.7026
L38.7324 16.6421
" />
<path d="M38.7324 16.6421
L38.8534 16.5816
" />
<path d="M38.8534 16.5816
L39.1557 16.5816
" />
<path d="M39.1557 16.5816
L39.3372 16.6421
" />
<path d="M39.8814 17.1864
L40.3048 17.1864
" />
<path d="M40.4862 17.8516
L39.8814 17.8516
" />
<path d="M39.8814 17.8516
L39.8814 16.5816
" />
<path d="M39.8814 16.5816
L40.4862 16.5816
" />
<path d="M40.8490 16.5816
L41.5747 16.5816
" />
<path d="M41.2119 17.8516
L41.2119 16.5816
" />
</g></g>
<g style="fill:#A90000; fill-opacity:0.0; 
stroke:#A90000; stroke-width:0.1524; stroke-opacity:1; 
stroke-linecap:round; stroke-linejoin:round;">
<text x="35.2214" y="17.0181"
textLength="1.4127" font-size="1.6933" lengthAdjust="spacingAndGlyphs"
text-anchor="middle" opacity="0">6</text>
<g class="stroked-text"><desc>6</desc>
<path d="M35.4633 15.5846
L35.2214 15.5846
" />
<path d="M35.2214 15.5846
L35.1005 15.6451
" />
<path d="M35.1005 15.6451
L35.0400 15.7056
" />
<path d="M35.0400 15.7056
L34.9190 15.8870
" />
<path d="M34.9190 15.8870
L34.8586 16.1289
" />
<path d="M34.8586 16.1289
L34.8586 16.6127
" />
<path d="M34.8586 16.6127
L34.9190 16.7337
" />
<path d="M34.9190 16.7337
L34.9795 16.7942
" />
<path d="M34.9795 16.7942
L35.1005 16.8546
" />
<path d="M35.1005 16.8546
L35.3424 16.8546
" />
<path d="M35.3424 16.8546
L35.4633 16.7942
" />
<path d="M35.4633 16.7942
L35.5238 16.7337
" />
<path d="M35.5238 16.7337
L35.5843 16.6127
" />
<path d="M35.5843 16.6127
L35.5843 16.3103
" />
<path d="M35.5843 16.3103
L35.5238 16.1894
" />
<path d="M35.5238 16.1894
L35.4633 16.1289
" />
<path d="M35.4633 16.1289
L35.3424 16.0684
" />
<path d="M35.3424 16.0684
L35.1005 16.0684
" />
<path d="M35.1005 16.0684
L34.9795 16.1289
" />
<path d="M34.9795 16.1289
L34.9190 16.1894
" />
<path d="M34.9190 16.1894
L34.8586 16.3103
" />
</g></g>
<g style="fill:#840000; fill-opacity:0.0; 
stroke:#840000; stroke-width:0.1524; stroke-opacity:1; 
stroke-linecap:round; stroke-linejoin:round;">
<path d="M56.8114 12.1921
L59.3514 12.1921
" />
</g>
<g style="fill:#006464; fill-opacity:0.0; 
stroke:#006464; stroke-width:0.1524; stroke-opacity:1; 
stroke-linecap:round; stroke-linejoin:round;">
<text x="56.3034" y="12.8271"
textLength="6.4323" font-size="1.6933" lengthAdjust="spacingAndGlyphs"
text-anchor="end" opacity="0">HSYNC</text>
<g class="stroked-text"><desc>HSYNC</desc>
<path d="M50.2764 12.7716
L50.2764 11.5016
" />
<path d="M50.2764 12.1064
L51.0021 12.1064
" />
<path d="M51.0021 12.7716
L51.0021 11.5016
" />
<path d="M51.5465 12.7112
L51.7279 12.7716
" />
<path d="M51.7279 12.7716
L52.0303 12.7716
" />
<path d="M52.0303 12.7716
L52.1512 12.7112
" />
<path d="M52.1512 12.7112
L52.2117 12.6507
" />
<path d="M52.2117 12.6507
L52.2722 12.5297
" />
<path d="M52.2722 12.5297
L52.2722 12.4088
" />
<path d="M52.2722 12.4088
L52.2117 12.2878
" />
<path d="M52.2117 12.2878
L52.1512 12.2273
" />
<path d="M52.1512 12.2273
L52.0303 12.1669
" />
<path d="M52.0303 12.1669
L51.7884 12.1064
" />
<path d="M51.7884 12.1064
L51.6674 12.0459
" />
<path d="M51.6674 12.0459
L51.6069 11.9854
" />
<path d="M51.6069 11.9854
L51.5465 11.8645
" />
<path d="M51.5465 11.8645
L51.5465 11.7435
" />
<path d="M51.5465 11.7435
L51.6069 11.6226
" />
<path d="M51.6069 11.6226
L51.6674 11.5621
" />
<path d="M51.6674 11.5621
L51.7884 11.5016
" />
<path d="M51.7884 11.5016
L52.0907 11.5016
" />
<path d="M52.0907 11.5016
L52.2722 11.5621
" />
<path d="M53.0583 12.1669
L53.0583 12.7716
" />
<path d="M52.6350 11.5016
L53.0583 12.1669
" />
<path d="M53.0583 12.1669
L53.4817 11.5016
" />
<path d="M53.9050 12.7716
L53.9050 11.5016
" />
<path d="M53.9050 11.5016
L54.6307 12.7716
" />
<path d="M54.6307 12.7716
L54.6307 11.5016
" />
<path d="M55.9612 12.6507
L55.9008 12.7112
" />
<path d="M55.9008 12.7112
L55.7193 12.7716
" />
<path d="M55.7193 12.7716
L55.5984 12.7716
" />
<path d="M55.5984 12.7716
L55.4170 12.7112
" />
<path d="M55.4170 12.7112
L55.2960 12.5902
" />
<path d="M55.2960 12.5902
L55.2355 12.4692
" />
<path d="M55.2355 12.4692
L55.1751 12.2273
" />
<path d="M55.1751 12.2273
L55.1751 12.0459
" />
<path d="M55.1751 12.0459
L55.2355 11.8040
" />
<path d="M55.2355 11.8040
L55.2960 11.6831
" />
<path d="M55.2960 11.6831
L55.4170 11.5621
" />
<path d="M55.4170 11.5621
L55.5984 11.5016
" />
<path d="M55.5984 11.5016
L55.7193 11.5016
" />
<path d="M55.7193 11.5016
L55.9008 11.5621
" />
<path d="M55.9008 11.5621
L55.9612 11.6226
" />
</g></g>
<g style="fill:#A90000; fill-opacity:0.0; 
stroke:#A90000; stroke-width:0.1524; stroke-opacity:1; 
stroke-linecap:round; stroke-linejoin:round;">
<text x="58.0814" y="11.9381"
textLength="1.4127" font-size="1.6933" lengthAdjust="spacingAndGlyphs"
text-anchor="middle" opacity="0">7</text>
<g class="stroked-text"><desc>7</desc>
<path d="M57.6581 10.5046
L58.5047 10.5046
" />
<path d="M58.5047 10.5046
L57.9605 11.7746
" />
</g></g>
<g style="fill:#840000; fill-opacity:0.0; 
stroke:#840000; stroke-width:0.1524; stroke-opacity:1; 
stroke-linecap:round; stroke-linejoin:round;">
<path d="M46.6514 4.5721
L46.6514 2.0321
" />
</g>
<g style="fill:#006464; fill-opacity:0.0; 
stroke:#006464; stroke-width:0.1524; stroke-opacity:1; 
stroke-linecap:round; stroke-linejoin:round;">
<g transform="rotate(-90.000000 46.6514 5.0801)">
<text x="46.6514" y="5.7151"
textLength="3.8318" font-size="1.6933" lengthAdjust="spacingAndGlyphs"
text-anchor="end" opacity="0">VDD</text>
</g>
<g class="stroked-text"><desc>VDD</desc>
<path d="M45.9609 8.6879
L47.2309 8.2646
" />
<path d="M47.2309 8.2646
L45.9609 7.8412
" />
<path d="M47.2309 7.4179
L45.9609 7.4179
" />
<path d="M45.9609 7.4179
L45.9609 7.1155
" />
<path d="M45.9609 7.1155
L46.0214 6.9341
" />
<path d="M46.0214 6.9341
L46.1424 6.8131
" />
<path d="M46.1424 6.8131
L46.2633 6.7526
" />
<path d="M46.2633 6.7526
L46.5052 6.6922
" />
<path d="M46.5052 6.6922
L46.6866 6.6922
" />
<path d="M46.6866 6.6922
L46.9285 6.7526
" />
<path d="M46.9285 6.7526
L47.0495 6.8131
" />
<path d="M47.0495 6.8131
L47.1705 6.9341
" />
<path d="M47.1705 6.9341
L47.2309 7.1155
" />
<path d="M47.2309 7.1155
L47.2309 7.4179
" />
<path d="M47.2309 6.1479
L45.9609 6.1479
" />
<path d="M45.9609 6.1479
L45.9609 5.8455
" />
<path d="M45.9609 5.8455
L46.0214 5.6641
" />
<path d="M46.0214 5.6641
L46.1424 5.5431
" />
<path d="M46.1424 5.5431
L46.2633 5.4826
" />
<path d="M46.2633 5.4826
L46.5052 5.4222
" />
<path d="M46.5052 5.4222
L46.6866 5.4222
" />
<path d="M46.6866 5.4222
L46.9285 5.4826
" />
<path d="M46.9285 5.4826
L47.0495 5.5431
" />
<path d="M47.0495 5.5431
L47.1705 5.6641
" />
<path d="M47.1705 5.6641
L47.2309 5.8455
" />
<path d="M47.2309 5.8455
L47.2309 6.1479
" />
</g></g>
<g style="fill:#A90000; fill-opacity:0.0; 
stroke:#A90000; stroke-width:0.1524; stroke-opacity:1; 
stroke-linecap:round; stroke-linejoin:round;">
<g transform="rotate(-90.000000 46.3974 3.3021)">
<text x="46.3974" y="3.3021"
textLength="1.4127" font-size="1.6933" lengthAdjust="spacingAndGlyphs"
text-anchor="middle" opacity="0">8</text>
</g>
<g class="stroked-text"><desc>8</desc>
<path d="M45.5082 3.4229
L45.4477 3.5439
" />
<path d="M45.4477 3.5439
L45.3873 3.6044
" />
<path d="M45.3873 3.6044
L45.2663 3.6648
" />
<path d="M45.2663 3.6648
L45.2058 3.6648
" />
<path d="M45.2058 3.6648
L45.0849 3.6044
" />
<path d="M45.0849 3.6044
L45.0244 3.5439
" />
<path d="M45.0244 3.5439
L44.9639 3.4229
" />
<path d="M44.9639 3.4229
L44.9639 3.1810
" />
<path d="M44.9639 3.1810
L45.0244 3.0601
" />
<path d="M45.0244 3.0601
L45.0849 2.9996
" />
<path d="M45.0849 2.9996
L45.2058 2.9391
" />
<path d="M45.2058 2.9391
L45.2663 2.9391
" />
<path d="M45.2663 2.9391
L45.3873 2.9996
" />
<path d="M45.3873 2.9996
L45.4477 3.0601
" />
<path d="M45.4477 3.0601
L45.5082 3.1810
" />
<path d="M45.5082 3.1810
L45.5082 3.4229
" />
<path d="M45.5082 3.4229
L45.5687 3.5439
" />
<path d="M45.5687 3.5439
L45.6292 3.6044
" />
<path d="M45.6292 3.6044
L45.7501 3.6648
" />
<path d="M45.7501 3.6648
L45.9920 3.6648
" />
<path d="M45.9920 3.6648
L46.1130 3.6044
" />
<path d="M46.1130 3.6044
L46.1735 3.5439
" />
<path d="M46.1735 3.5439
L46.2339 3.4229
" />
<path d="M46.2339 3.4229
L46.2339 3.1810
" />
<path d="M46.2339 3.1810
L46.1735 3.0601
" />
<path d="M46.1735 3.0601
L46.1130 2.9996
" />
<path d="M46.1130 2.9996
L45.9920 2.9391
" />
<path d="M45.9920 2.9391
L45.7501 2.9391
" />
<path d="M45.7501 2.9391
L45.6292 2.9996
" />
<path d="M45.6292 2.9996
L45.5687 3.0601
" />
<path d="M45.5687 3.0601
L45.5082 3.1810
" />
</g></g>
<g style="fill:#840084; fill-opacity:0.0; 
stroke:#840084; stroke-width:0.1524; stroke-opacity:1; 
stroke-linecap:round; stroke-linejoin:round;">
</g>
<g style="fill:#006464; fill-opacity:0.0; 
stroke:#006464; stroke-width:0.1524; stroke-opacity:1; 
stroke-linecap:round; stroke-linejoin:round;">
</g>
<g style="fill:#006464; fill-opacity:0.0; 
stroke:#006464; stroke-width:0.1588; stroke-opacity:1; 
stroke-linecap:round; stroke-linejoin:round;">
<text x="37.7614" y="3.9371"
textLength="2.6415" font-size="1.6933" lengthAdjust="spacingAndGlyphs"
text-anchor="middle" opacity="0">U?</text>
<g class="stroked-text"><desc>U?</desc>
<path d="M36.8542 2.6113
L36.8542 3.6394
" />
<path d="M36.8542 3.6394
L36.9147 3.7604
" />
<path d="M36.9147 3.7604
L36.9752 3.8209
" />
<path d="M36.9752 3.8209
L37.0961 3.8813
" />
<path d="M37.0961 3.8813
L37.3380 3.8813
" />
<path d="M37.3380 3.8813
L37.4590 3.8209
" />
<path d="M37.4590 3.8209
L37.5195 3.7604
" />
<path d="M37.5195 3.7604
L37.5799 3.6394
" />
<path d="M37.5799 3.6394
L37.5799 2.6113
" />
<path d="M38.3662 3.7604
L38.4266 3.8209
" />
<path d="M38.4266 3.8209
L38.3662 3.8813
" />
<path d="M38.3662 3.8813
L38.3057 3.8209
" />
<path d="M38.3057 3.8209
L38.3662 3.7604
" />
<path d="M38.3662 3.7604
L38.3662 3.8813
" />
<path d="M38.1243 2.6718
L38.2452 2.6113
" />
<path d="M38.2452 2.6113
L38.5476 2.6113
" />
<path d="M38.5476 2.6113
L38.6685 2.6718
" />
<path d="M38.6685 2.6718
L38.7290 2.7928
" />
<path d="M38.7290 2.7928
L38.7290 2.9137
" />
<path d="M38.7290 2.9137
L38.6685 3.0347
" />
<path d="M38.6685 3.0347
L38.6081 3.0951
" />
<path d="M38.6081 3.0951
L38.4871 3.1556
" />
<path d="M38.4871 3.1556
L38.4266 3.2161
" />
<path d="M38.4266 3.2161
L38.3662 3.3370
" />
<path d="M38.3662 3.3370
L38.3662 3.3975
" />
</g><text x="51.7314" y="3.9371"
textLength="9.1123" font-size="1.6933" lengthAdjust="spacingAndGlyphs"
text-anchor="middle" opacity="0">ISL59885</text>
<g class="stroked-text"><desc>ISL59885</desc>
<path d="M47.5888 3.8813
L47.5888 2.6113
" />
<path d="M48.1332 3.8209
L48.3146 3.8813
" />
<path d="M48.3146 3.8813
L48.6170 3.8813
" />
<path d="M48.6170 3.8813
L48.7379 3.8209
" />
<path d="M48.7379 3.8209
L48.7984 3.7604
" />
<path d="M48.7984 3.7604
L48.8589 3.6394
" />
<path d="M48.8589 3.6394
L48.8589 3.5185
" />
<path d="M48.8589 3.5185
L48.7984 3.3975
" />
<path d="M48.7984 3.3975
L48.7379 3.3370
" />
<path d="M48.7379 3.3370
L48.6170 3.2766
" />
<path d="M48.6170 3.2766
L48.3751 3.2161
" />
<path d="M48.3751 3.2161
L48.2541 3.1556
" />
<path d="M48.2541 3.1556
L48.1936 3.0951
" />
<path d="M48.1936 3.0951
L48.1332 2.9742
" />
<path d="M48.1332 2.9742
L48.1332 2.8532
" />
<path d="M48.1332 2.8532
L48.1936 2.7323
" />
<path d="M48.1936 2.7323
L48.2541 2.6718
" />
<path d="M48.2541 2.6718
L48.3751 2.6113
" />
<path d="M48.3751 2.6113
L48.6774 2.6113
" />
<path d="M48.6774 2.6113
L48.8589 2.6718
" />
<path d="M50.0079 3.8813
L49.4031 3.8813
" />
<path d="M49.4031 3.8813
L49.4031 2.6113
" />
<path d="M51.0360 2.6113
L50.4312 2.6113
" />
<path d="M50.4312 2.6113
L50.3708 3.2161
" />
<path d="M50.3708 3.2161
L50.4312 3.1556
" />
<path d="M50.4312 3.1556
L50.5522 3.0951
" />
<path d="M50.5522 3.0951
L50.8546 3.0951
" />
<path d="M50.8546 3.0951
L50.9755 3.1556
" />
<path d="M50.9755 3.1556
L51.0360 3.2161
" />
<path d="M51.0360 3.2161
L51.0965 3.3370
" />
<path d="M51.0965 3.3370
L51.0965 3.6394
" />
<path d="M51.0965 3.6394
L51.0360 3.7604
" />
<path d="M51.0360 3.7604
L50.9755 3.8209
" />
<path d="M50.9755 3.8209
L50.8546 3.8813
" />
<path d="M50.8546 3.8813
L50.5522 3.8813
" />
<path d="M50.5522 3.8813
L50.4312 3.8209
" />
<path d="M50.4312 3.8209
L50.3708 3.7604
" />
<path d="M51.7012 3.8813
L51.9431 3.8813
" />
<path d="M51.9431 3.8813
L52.0641 3.8209
" />
<path d="M52.0641 3.8209
L52.1245 3.7604
" />
<path d="M52.1245 3.7604
L52.2455 3.5789
" />
<path d="M52.2455 3.5789
L52.3060 3.3370
" />
<path d="M52.3060 3.3370
L52.3060 2.8532
" />
<path d="M52.3060 2.8532
L52.2455 2.7323
" />
<path d="M52.2455 2.7323
L52.1850 2.6718
" />
<path d="M52.1850 2.6718
L52.0641 2.6113
" />
<path d="M52.0641 2.6113
L51.8222 2.6113
" />
<path d="M51.8222 2.6113
L51.7012 2.6718
" />
<path d="M51.7012 2.6718
L51.6407 2.7323
" />
<path d="M51.6407 2.7323
L51.5803 2.8532
" />
<path d="M51.5803 2.8532
L51.5803 3.1556
" />
<path d="M51.5803 3.1556
L51.6407 3.2766
" />
<path d="M51.6407 3.2766
L51.7012 3.3370
" />
<path d="M51.7012 3.3370
L51.8222 3.3975
" />
<path d="M51.8222 3.3975
L52.0641 3.3975
" />
<path d="M52.0641 3.3975
L52.1850 3.3370
" />
<path d="M52.1850 3.3370
L52.2455 3.2766
" />
<path d="M52.2455 3.2766
L52.3060 3.1556
" />
<path d="M53.0317 3.1556
L52.9107 3.0951
" />
<path d="M52.9107 3.0951
L52.8502 3.0347
" />
<path d="M52.8502 3.0347
L52.7898 2.9137
" />
<path d="M52.7898 2.9137
L52.7898 2.8532
" />
<path d="M52.7898 2.8532
L52.8502 2.7323
" />
<path d="M52.8502 2.7323
L52.9107 2.6718
" />
<path d="M52.9107 2.6718
L53.0317 2.6113
" />
<path d="M53.0317 2.6113
L53.2736 2.6113
" />
<path d="M53.2736 2.6113
L53.3945 2.6718
" />
<path d="M53.3945 2.6718
L53.4550 2.7323
" />
<path d="M53.4550 2.7323
L53.5155 2.8532
" />
<path d="M53.5155 2.8532
L53.5155 2.9137
" />
<path d="M53.5155 2.9137
L53.4550 3.0347
" />
<path d="M53.4550 3.0347
L53.3945 3.0951
" />
<path d="M53.3945 3.0951
L53.2736 3.1556
" />
<path d="M53.2736 3.1556
L53.0317 3.1556
" />
<path d="M53.0317 3.1556
L52.9107 3.2161
" />
<path d="M52.9107 3.2161
L52.8502 3.2766
" />
<path d="M52.8502 3.2766
L52.7898 3.3975
" />
<path d="M52.7898 3.3975
L52.7898 3.6394
" />
<path d="M52.7898 3.6394
L52.8502 3.7604
" />
<path d="M52.8502 3.7604
L52.9107 3.8209
" />
<path d="M52.9107 3.8209
L53.0317 3.8813
" />
<path d="M53.0317 3.8813
L53.2736 3.8813
" />
<path d="M53.2736 3.8813
L53.3945 3.8209
" />
<path d="M53.3945 3.8209
L53.4550 3.7604
" />
<path d="M53.4550 3.7604
L53.5155 3.6394
" />
<path d="M53.5155 3.6394
L53.5155 3.3975
" />
<path d="M53.5155 3.3975
L53.4550 3.2766
" />
<path d="M53.4550 3.2766
L53.3945 3.2161
" />
<path d="M53.3945 3.2161
L53.2736 3.1556
" />
<path d="M54.2412 3.1556
L54.1202 3.0951
" />
<path d="M54.1202 3.0951
L54.0597 3.0347
" />
<path d="M54.0597 3.0347
L53.9993 2.9137
" />
<path d="M53.9993 2.9137
L53.9993 2.8532
" />
<path d="M53.9993 2.8532
L54.0597 2.7323
" />
<path d="M54.0597 2.7323
L54.1202 2.6718
" />
<path d="M54.1202 2.6718
L54.2412 2.6113
" />
<path d="M54.2412 2.6113
L54.4831 2.6113
" />
<path d="M54.4831 2.6113
L54.6040 2.6718
" />
<path d="M54.6040 2.6718
L54.6645 2.7323
" />
<path d="M54.6645 2.7323
L54.7250 2.8532
" />
<path d="M54.7250 2.8532
L54.7250 2.9137
" />
<path d="M54.7250 2.9137
L54.6645 3.0347
" />
<path d="M54.6645 3.0347
L54.6040 3.0951
" />
<path d="M54.6040 3.0951
L54.4831 3.1556
" />
<path d="M54.4831 3.1556
L54.2412 3.1556
" />
<path d="M54.2412 3.1556
L54.1202 3.2161
" />
<path d="M54.1202 3.2161
L54.0597 3.2766
" />
<path d="M54.0597 3.2766
L53.9993 3.3975
" />
<path d="M53.9993 3.3975
L53.9993 3.6394
" />
<path d="M53.9993 3.6394
L54.0597 3.7604
" />
<path d="M54.0597 3.7604
L54.1202 3.8209
" />
<path d="M54.1202 3.8209
L54.2412 3.8813
" />
<path d="M54.2412 3.8813
L54.4831 3.8813
" />
<path d="M54.4831 3.8813
L54.6040 3.8209
" />
<path d="M54.6040 3.8209
L54.6645 3.7604
" />
<path d="M54.6645 3.7604
L54.7250 3.6394
" />
<path d="M54.7250 3.6394
L54.7250 3.3975
" />
<path d="M54.7250 3.3975
L54.6645 3.2766
" />
<path d="M54.6645 3.2766
L54.6040 3.2161
" />
<path d="M54.6040 3.2161
L54.4831 3.1556
" />
<path d="M55.8740 2.6113
L55.2692 2.6113
" />
<path d="M55.2692 2.6113
L55.2088 3.2161
" />
<path d="M55.2088 3.2161
L55.2692 3.1556
" />
<path d="M55.2692 3.1556
L55.3902 3.0951
" />
<path d="M55.3902 3.0951
L55.6926 3.0951
" />
<path d="M55.6926 3.0951
L55.8135 3.1556
" />
<path d="M55.8135 3.1556
L55.8740 3.2161
" />
<path d="M55.8740 3.2161
L55.9345 3.3370
" />
<path d="M55.9345 3.3370
L55.9345 3.6394
" />
<path d="M55.9345 3.6394
L55.8740 3.7604
" />
<path d="M55.8740 3.7604
L55.8135 3.8209
" />
<path d="M55.8135 3.8209
L55.6926 3.8813
" />
<path d="M55.6926 3.8813
L55.3902 3.8813
" />
<path d="M55.3902 3.8813
L55.2692 3.8209
" />
<path d="M55.2692 3.8209
L55.2088 3.7604
" />
</g></g>
<g style="fill:#840084; fill-opacity:0.0; 
stroke:#840084; stroke-width:0.1588; stroke-opacity:1; 
stroke-linecap:round; stroke-linejoin:round;">
<text x="46.6514" y="12.8271"
textLength="40.7412" font-size="1.6933" lengthAdjust="spacingAndGlyphs"
text-anchor="middle" opacity="0">Package_SO:SOIC-8_3.9x4.9mm_P1.27mm</text>
<g class="stroked-text"><desc>Package_SO:SOIC-8_3.9x4.9mm_P1.27mm</desc>
<path d="M26.6943 12.7713
L26.6943 11.5013
" />
<path d="M26.6943 11.5013
L27.1781 11.5013
" />
<path d="M27.1781 11.5013
L27.2991 11.5618
" />
<path d="M27.2991 11.5618
L27.3596 11.6223
" />
<path d="M27.3596 11.6223
L27.4200 11.7432
" />
<path d="M27.4200 11.7432
L27.4200 11.9247
" />
<path d="M27.4200 11.9247
L27.3596 12.0456
" />
<path d="M27.3596 12.0456
L27.2991 12.1061
" />
<path d="M27.2991 12.1061
L27.1781 12.1666
" />
<path d="M27.1781 12.1666
L26.6943 12.1666
" />
<path d="M28.5086 12.7713
L28.5086 12.1061
" />
<path d="M28.5086 12.1061
L28.4481 11.9851
" />
<path d="M28.4481 11.9851
L28.3272 11.9247
" />
<path d="M28.3272 11.9247
L28.0853 11.9247
" />
<path d="M28.0853 11.9247
L27.9643 11.9851
" />
<path d="M28.5086 12.7109
L28.3877 12.7713
" />
<path d="M28.3877 12.7713
L28.0853 12.7713
" />
<path d="M28.0853 12.7713
L27.9643 12.7109
" />
<path d="M27.9643 12.7109
L27.9039 12.5899
" />
<path d="M27.9039 12.5899
L27.9039 12.4689
" />
<path d="M27.9039 12.4689
L27.9643 12.3480
" />
<path d="M27.9643 12.3480
L28.0853 12.2875
" />
<path d="M28.0853 12.2875
L28.3877 12.2875
" />
<path d="M28.3877 12.2875
L28.5086 12.2270
" />
<path d="M29.6576 12.7109
L29.5367 12.7713
" />
<path d="M29.5367 12.7713
L29.2948 12.7713
" />
<path d="M29.2948 12.7713
L29.1738 12.7109
" />
<path d="M29.1738 12.7109
L29.1133 12.6504
" />
<path d="M29.1133 12.6504
L29.0529 12.5294
" />
<path d="M29.0529 12.5294
L29.0529 12.1666
" />
<path d="M29.0529 12.1666
L29.1133 12.0456
" />
<path d="M29.1133 12.0456
L29.1738 11.9851
" />
<path d="M29.1738 11.9851
L29.2948 11.9247
" />
<path d="M29.2948 11.9247
L29.5367 11.9247
" />
<path d="M29.5367 11.9247
L29.6576 11.9851
" />
<path d="M30.2019 12.7713
L30.2019 11.5013
" />
<path d="M30.3229 12.2875
L30.6857 12.7713
" />
<path d="M30.6857 11.9247
L30.2019 12.4085
" />
<path d="M31.7743 12.7713
L31.7743 12.1061
" />
<path d="M31.7743 12.1061
L31.7138 11.9851
" />
<path d="M31.7138 11.9851
L31.5929 11.9247
" />
<path d="M31.5929 11.9247
L31.3510 11.9247
" />
<path d="M31.3510 11.9247
L31.2300 11.9851
" />
<path d="M31.7743 12.7109
L31.6534 12.7713
" />
<path d="M31.6534 12.7713
L31.3510 12.7713
" />
<path d="M31.3510 12.7713
L31.2300 12.7109
" />
<path d="M31.2300 12.7109
L31.1696 12.5899
" />
<path d="M31.1696 12.5899
L31.1696 12.4689
" />
<path d="M31.1696 12.4689
L31.2300 12.3480
" />
<path d="M31.2300 12.3480
L31.3510 12.2875
" />
<path d="M31.3510 12.2875
L31.6534 12.2875
" />
<path d="M31.6534 12.2875
L31.7743 12.2270
" />
<path d="M32.9233 11.9247
L32.9233 12.9528
" />
<path d="M32.9233 12.9528
L32.8628 13.0737
" />
<path d="M32.8628 13.0737
L32.8024 13.1342
" />
<path d="M32.8024 13.1342
L32.6814 13.1947
" />
<path d="M32.6814 13.1947
L32.5000 13.1947
" />
<path d="M32.5000 13.1947
L32.3790 13.1342
" />
<path d="M32.9233 12.7109
L32.8024 12.7713
" />
<path d="M32.8024 12.7713
L32.5605 12.7713
" />
<path d="M32.5605 12.7713
L32.4395 12.7109
" />
<path d="M32.4395 12.7109
L32.3790 12.6504
" />
<path d="M32.3790 12.6504
L32.3186 12.5294
" />
<path d="M32.3186 12.5294
L32.3186 12.1666
" />
<path d="M32.3186 12.1666
L32.3790 12.0456
" />
<path d="M32.3790 12.0456
L32.4395 11.9851
" />
<path d="M32.4395 11.9851
L32.5605 11.9247
" />
<path d="M32.5605 11.9247
L32.8024 11.9247
" />
<path d="M32.8024 11.9247
L32.9233 11.9851
" />
<path d="M34.0118 12.7109
L33.8909 12.7713
" />
<path d="M33.8909 12.7713
L33.6490 12.7713
" />
<path d="M33.6490 12.7713
L33.5280 12.7109
" />
<path d="M33.5280 12.7109
L33.4676 12.5899
" />
<path d="M33.4676 12.5899
L33.4676 12.1061
" />
<path d="M33.4676 12.1061
L33.5280 11.9851
" />
<path d="M33.5280 11.9851
L33.6490 11.9247
" />
<path d="M33.6490 11.9247
L33.8909 11.9247
" />
<path d="M33.8909 11.9247
L34.0118 11.9851
" />
<path d="M34.0118 11.9851
L34.0723 12.1061
" />
<path d="M34.0723 12.1061
L34.0723 12.2270
" />
<path d="M34.0723 12.2270
L33.4676 12.3480
" />
<path d="M34.3143 12.8923
L35.2819 12.8923
" />
<path d="M35.5238 12.7109
L35.7052 12.7713
" />
<path d="M35.7052 12.7713
L36.0076 12.7713
" />
<path d="M36.0076 12.7713
L36.1285 12.7109
" />
<path d="M36.1285 12.7109
L36.1890 12.6504
" />
<path d="M36.1890 12.6504
L36.2495 12.5294
" />
<path d="M36.2495 12.5294
L36.2495 12.4085
" />
<path d="M36.2495 12.4085
L36.1890 12.2875
" />
<path d="M36.1890 12.2875
L36.1285 12.2270
" />
<path d="M36.1285 12.2270
L36.0076 12.1666
" />
<path d="M36.0076 12.1666
L35.7657 12.1061
" />
<path d="M35.7657 12.1061
L35.6447 12.0456
" />
<path d="M35.6447 12.0456
L35.5842 11.9851
" />
<path d="M35.5842 11.9851
L35.5238 11.8642
" />
<path d="M35.5238 11.8642
L35.5238 11.7432
" />
<path d="M35.5238 11.7432
L35.5842 11.6223
" />
<path d="M35.5842 11.6223
L35.6447 11.5618
" />
<path d="M35.6447 11.5618
L35.7657 11.5013
" />
<path d="M35.7657 11.5013
L36.0680 11.5013
" />
<path d="M36.0680 11.5013
L36.2495 11.5618
" />
<path d="M37.0356 11.5013
L37.2775 11.5013
" />
<path d="M37.2775 11.5013
L37.3985 11.5618
" />
<path d="M37.3985 11.5618
L37.5194 11.6828
" />
<path d="M37.5194 11.6828
L37.5799 11.9247
" />
<path d="M37.5799 11.9247
L37.5799 12.3480
" />
<path d="M37.5799 12.3480
L37.5194 12.5899
" />
<path d="M37.5194 12.5899
L37.3985 12.7109
" />
<path d="M37.3985 12.7109
L37.2775 12.7713
" />
<path d="M37.2775 12.7713
L37.0356 12.7713
" />
<path d="M37.0356 12.7713
L36.9147 12.7109
" />
<path d="M36.9147 12.7109
L36.7937 12.5899
" />
<path d="M36.7937 12.5899
L36.7333 12.3480
" />
<path d="M36.7333 12.3480
L36.7333 11.9247
" />
<path d="M36.7333 11.9247
L36.7937 11.6828
" />
<path d="M36.7937 11.6828
L36.9147 11.5618
" />
<path d="M36.9147 11.5618
L37.0356 11.5013
" />
<path d="M38.1242 12.6504
L38.1847 12.7109
" />
<path d="M38.1847 12.7109
L38.1242 12.7713
" />
<path d="M38.1242 12.7713
L38.0638 12.7109
" />
<path d="M38.0638 12.7109
L38.1242 12.6504
" />
<path d="M38.1242 12.6504
L38.1242 12.7713
" />
<path d="M38.1242 11.9851
L38.1847 12.0456
" />
<path d="M38.1847 12.0456
L38.1242 12.1061
" />
<path d="M38.1242 12.1061
L38.0638 12.0456
" />
<path d="M38.0638 12.0456
L38.1242 11.9851
" />
<path d="M38.1242 11.9851
L38.1242 12.1061
" />
<path d="M38.6686 12.7109
L38.8500 12.7713
" />
<path d="M38.8500 12.7713
L39.1524 12.7713
" />
<path d="M39.1524 12.7713
L39.2733 12.7109
" />
<path d="M39.2733 12.7109
L39.3338 12.6504
" />
<path d="M39.3338 12.6504
L39.3943 12.5294
" />
<path d="M39.3943 12.5294
L39.3943 12.4085
" />
<path d="M39.3943 12.4085
L39.3338 12.2875
" />
<path d="M39.3338 12.2875
L39.2733 12.2270
" />
<path d="M39.2733 12.2270
L39.1524 12.1666
" />
<path d="M39.1524 12.1666
L38.9105 12.1061
" />
<path d="M38.9105 12.1061
L38.7895 12.0456
" />
<path d="M38.7895 12.0456
L38.7290 11.9851
" />
<path d="M38.7290 11.9851
L38.6686 11.8642
" />
<path d="M38.6686 11.8642
L38.6686 11.7432
" />
<path d="M38.6686 11.7432
L38.7290 11.6223
" />
<path d="M38.7290 11.6223
L38.7895 11.5618
" />
<path d="M38.7895 11.5618
L38.9105 11.5013
" />
<path d="M38.9105 11.5013
L39.2128 11.5013
" />
<path d="M39.2128 11.5013
L39.3943 11.5618
" />
<path d="M40.1804 11.5013
L40.4223 11.5013
" />
<path d="M40.4223 11.5013
L40.5433 11.5618
" />
<path d="M40.5433 11.5618
L40.6642 11.6828
" />
<path d="M40.6642 11.6828
L40.7247 11.9247
" />
<path d="M40.7247 11.9247
L40.7247 12.3480
" />
<path d="M40.7247 12.3480
L40.6642 12.5899
" />
<path d="M40.6642 12.5899
L40.5433 12.7109
" />
<path d="M40.5433 12.7109
L40.4223 12.7713
" />
<path d="M40.4223 12.7713
L40.1804 12.7713
" />
<path d="M40.1804 12.7713
L40.0595 12.7109
" />
<path d="M40.0595 12.7109
L39.9385 12.5899
" />
<path d="M39.9385 12.5899
L39.8781 12.3480
" />
<path d="M39.8781 12.3480
L39.8781 11.9247
" />
<path d="M39.8781 11.9247
L39.9385 11.6828
" />
<path d="M39.9385 11.6828
L40.0595 11.5618
" />
<path d="M40.0595 11.5618
L40.1804 11.5013
" />
<path d="M41.2690 12.7713
L41.2690 11.5013
" />
<path d="M42.5995 12.6504
L42.5391 12.7109
" />
<path d="M42.5391 12.7109
L42.3576 12.7713
" />
<path d="M42.3576 12.7713
L42.2367 12.7713
" />
<path d="M42.2367 12.7713
L42.0553 12.7109
" />
<path d="M42.0553 12.7109
L41.9343 12.5899
" />
<path d="M41.9343 12.5899
L41.8738 12.4689
" />
<path d="M41.8738 12.4689
L41.8134 12.2270
" />
<path d="M41.8134 12.2270
L41.8134 12.0456
" />
<path d="M41.8134 12.0456
L41.8738 11.8037
" />
<path d="M41.8738 11.8037
L41.9343 11.6828
" />
<path d="M41.9343 11.6828
L42.0553 11.5618
" />
<path d="M42.0553 11.5618
L42.2367 11.5013
" />
<path d="M42.2367 11.5013
L42.3576 11.5013
" />
<path d="M42.3576 11.5013
L42.5391 11.5618
" />
<path d="M42.5391 11.5618
L42.5995 11.6223
" />
<path d="M43.1438 12.2875
L44.1115 12.2875
" />
<path d="M44.8977 12.0456
L44.7767 11.9851
" />
<path d="M44.7767 11.9851
L44.7162 11.9247
" />
<path d="M44.7162 11.9247
L44.6558 11.8037
" />
<path d="M44.6558 11.8037
L44.6558 11.7432
" />
<path d="M44.6558 11.7432
L44.7162 11.6223
" />
<path d="M44.7162 11.6223
L44.7767 11.5618
" />
<path d="M44.7767 11.5618
L44.8977 11.5013
" />
<path d="M44.8977 11.5013
L45.1396 11.5013
" />
<path d="M45.1396 11.5013
L45.2605 11.5618
" />
<path d="M45.2605 11.5618
L45.3210 11.6223
" />
<path d="M45.3210 11.6223
L45.3815 11.7432
" />
<path d="M45.3815 11.7432
L45.3815 11.8037
" />
<path d="M45.3815 11.8037
L45.3210 11.9247
" />
<path d="M45.3210 11.9247
L45.2605 11.9851
" />
<path d="M45.2605 11.9851
L45.1396 12.0456
" />
<path d="M45.1396 12.0456
L44.8977 12.0456
" />
<path d="M44.8977 12.0456
L44.7767 12.1061
" />
<path d="M44.7767 12.1061
L44.7162 12.1666
" />
<path d="M44.7162 12.1666
L44.6558 12.2875
" />
<path d="M44.6558 12.2875
L44.6558 12.5294
" />
<path d="M44.6558 12.5294
L44.7162 12.6504
" />
<path d="M44.7162 12.6504
L44.7767 12.7109
" />
<path d="M44.7767 12.7109
L44.8977 12.7713
" />
<path d="M44.8977 12.7713
L45.1396 12.7713
" />
<path d="M45.1396 12.7713
L45.2605 12.7109
" />
<path d="M45.2605 12.7109
L45.3210 12.6504
" />
<path d="M45.3210 12.6504
L45.3815 12.5294
" />
<path d="M45.3815 12.5294
L45.3815 12.2875
" />
<path d="M45.3815 12.2875
L45.3210 12.1666
" />
<path d="M45.3210 12.1666
L45.2605 12.1061
" />
<path d="M45.2605 12.1061
L45.1396 12.0456
" />
<path d="M45.6234 12.8923
L46.5910 12.8923
" />
<path d="M46.7724 11.5013
L47.5586 11.5013
" />
<path d="M47.5586 11.5013
L47.1352 11.9851
" />
<path d="M47.1352 11.9851
L47.3167 11.9851
" />
<path d="M47.3167 11.9851
L47.4376 12.0456
" />
<path d="M47.4376 12.0456
L47.4981 12.1061
" />
<path d="M47.4981 12.1061
L47.5586 12.2270
" />
<path d="M47.5586 12.2270
L47.5586 12.5294
" />
<path d="M47.5586 12.5294
L47.4981 12.6504
" />
<path d="M47.4981 12.6504
L47.4376 12.7109
" />
<path d="M47.4376 12.7109
L47.3167 12.7713
" />
<path d="M47.3167 12.7713
L46.9538 12.7713
" />
<path d="M46.9538 12.7713
L46.8329 12.7109
" />
<path d="M46.8329 12.7109
L46.7724 12.6504
" />
<path d="M48.1028 12.6504
L48.1633 12.7109
" />
<path d="M48.1633 12.7109
L48.1028 12.7713
" />
<path d="M48.1028 12.7713
L48.0424 12.7109
" />
<path d="M48.0424 12.7109
L48.1028 12.6504
" />
<path d="M48.1028 12.6504
L48.1028 12.7713
" />
<path d="M48.7681 12.7713
L49.0100 12.7713
" />
<path d="M49.0100 12.7713
L49.1310 12.7109
" />
<path d="M49.1310 12.7109
L49.1914 12.6504
" />
<path d="M49.1914 12.6504
L49.3124 12.4689
" />
<path d="M49.3124 12.4689
L49.3729 12.2270
" />
<path d="M49.3729 12.2270
L49.3729 11.7432
" />
<path d="M49.3729 11.7432
L49.3124 11.6223
" />
<path d="M49.3124 11.6223
L49.2519 11.5618
" />
<path d="M49.2519 11.5618
L49.1310 11.5013
" />
<path d="M49.1310 11.5013
L48.8891 11.5013
" />
<path d="M48.8891 11.5013
L48.7681 11.5618
" />
<path d="M48.7681 11.5618
L48.7076 11.6223
" />
<path d="M48.7076 11.6223
L48.6472 11.7432
" />
<path d="M48.6472 11.7432
L48.6472 12.0456
" />
<path d="M48.6472 12.0456
L48.7076 12.1666
" />
<path d="M48.7076 12.1666
L48.7681 12.2270
" />
<path d="M48.7681 12.2270
L48.8891 12.2875
" />
<path d="M48.8891 12.2875
L49.1310 12.2875
" />
<path d="M49.1310 12.2875
L49.2519 12.2270
" />
<path d="M49.2519 12.2270
L49.3124 12.1666
" />
<path d="M49.3124 12.1666
L49.3729 12.0456
" />
<path d="M49.7962 12.7713
L50.4614 11.9247
" />
<path d="M49.7962 11.9247
L50.4614 12.7713
" />
<path d="M51.4895 11.9247
L51.4895 12.7713
" />
<path d="M51.1871 11.4409
L50.8848 12.3480
" />
<path d="M50.8848 12.3480
L51.6709 12.3480
" />
<path d="M52.1547 12.6504
L52.2152 12.7109
" />
<path d="M52.2152 12.7109
L52.1547 12.7713
" />
<path d="M52.1547 12.7713
L52.0943 12.7109
" />
<path d="M52.0943 12.7109
L52.1547 12.6504
" />
<path d="M52.1547 12.6504
L52.1547 12.7713
" />
<path d="M52.8200 12.7713
L53.0619 12.7713
" />
<path d="M53.0619 12.7713
L53.1829 12.7109
" />
<path d="M53.1829 12.7109
L53.2433 12.6504
" />
<path d="M53.2433 12.6504
L53.3643 12.4689
" />
<path d="M53.3643 12.4689
L53.4248 12.2270
" />
<path d="M53.4248 12.2270
L53.4248 11.7432
" />
<path d="M53.4248 11.7432
L53.3643 11.6223
" />
<path d="M53.3643 11.6223
L53.3038 11.5618
" />
<path d="M53.3038 11.5618
L53.1829 11.5013
" />
<path d="M53.1829 11.5013
L52.9410 11.5013
" />
<path d="M52.9410 11.5013
L52.8200 11.5618
" />
<path d="M52.8200 11.5618
L52.7595 11.6223
" />
<path d="M52.7595 11.6223
L52.6991 11.7432
" />
<path d="M52.6991 11.7432
L52.6991 12.0456
" />
<path d="M52.6991 12.0456
L52.7595 12.1666
" />
<path d="M52.7595 12.1666
L52.8200 12.2270
" />
<path d="M52.8200 12.2270
L52.9410 12.2875
" />
<path d="M52.9410 12.2875
L53.1829 12.2875
" />
<path d="M53.1829 12.2875
L53.3038 12.2270
" />
<path d="M53.3038 12.2270
L53.3643 12.1666
" />
<path d="M53.3643 12.1666
L53.4248 12.0456
" />
<path d="M53.9690 12.7713
L53.9690 11.9247
" />
<path d="M53.9690 12.0456
L54.0295 11.9851
" />
<path d="M54.0295 11.9851
L54.1505 11.9247
" />
<path d="M54.1505 11.9247
L54.3319 11.9247
" />
<path d="M54.3319 11.9247
L54.4528 11.9851
" />
<path d="M54.4528 11.9851
L54.5133 12.1061
" />
<path d="M54.5133 12.1061
L54.5133 12.7713
" />
<path d="M54.5133 12.1061
L54.5738 11.9851
" />
<path d="M54.5738 11.9851
L54.6947 11.9247
" />
<path d="M54.6947 11.9247
L54.8762 11.9247
" />
<path d="M54.8762 11.9247
L54.9971 11.9851
" />
<path d="M54.9971 11.9851
L55.0576 12.1061
" />
<path d="M55.0576 12.1061
L55.0576 12.7713
" />
<path d="M55.6623 12.7713
L55.6623 11.9247
" />
<path d="M55.6623 12.0456
L55.7228 11.9851
" />
<path d="M55.7228 11.9851
L55.8438 11.9247
" />
<path d="M55.8438 11.9247
L56.0252 11.9247
" />
<path d="M56.0252 11.9247
L56.1461 11.9851
" />
<path d="M56.1461 11.9851
L56.2066 12.1061
" />
<path d="M56.2066 12.1061
L56.2066 12.7713
" />
<path d="M56.2066 12.1061
L56.2671 11.9851
" />
<path d="M56.2671 11.9851
L56.3880 11.9247
" />
<path d="M56.3880 11.9247
L56.5695 11.9247
" />
<path d="M56.5695 11.9247
L56.6904 11.9851
" />
<path d="M56.6904 11.9851
L56.7509 12.1061
" />
<path d="M56.7509 12.1061
L56.7509 12.7713
" />
<path d="M57.0533 12.8923
L58.0209 12.8923
" />
<path d="M58.3232 12.7713
L58.3232 11.5013
" />
<path d="M58.3232 11.5013
L58.8070 11.5013
" />
<path d="M58.8070 11.5013
L58.9280 11.5618
" />
<path d="M58.9280 11.5618
L58.9885 11.6223
" />
<path d="M58.9885 11.6223
L59.0489 11.7432
" />
<path d="M59.0489 11.7432
L59.0489 11.9247
" />
<path d="M59.0489 11.9247
L58.9885 12.0456
" />
<path d="M58.9885 12.0456
L58.9280 12.1061
" />
<path d="M58.9280 12.1061
L58.8070 12.1666
" />
<path d="M58.8070 12.1666
L58.3232 12.1666
" />
<path d="M60.2585 12.7713
L59.5328 12.7713
" />
<path d="M59.8956 12.7713
L59.8956 11.5013
" />
<path d="M59.8956 11.5013
L59.7747 11.6828
" />
<path d="M59.7747 11.6828
L59.6537 11.8037
" />
<path d="M59.6537 11.8037
L59.5328 11.8642
" />
<path d="M60.8027 12.6504
L60.8632 12.7109
" />
<path d="M60.8632 12.7109
L60.8027 12.7713
" />
<path d="M60.8027 12.7713
L60.7423 12.7109
" />
<path d="M60.7423 12.7109
L60.8027 12.6504
" />
<path d="M60.8027 12.6504
L60.8027 12.7713
" />
<path d="M61.3471 11.6223
L61.4075 11.5618
" />
<path d="M61.4075 11.5618
L61.5285 11.5013
" />
<path d="M61.5285 11.5013
L61.8309 11.5013
" />
<path d="M61.8309 11.5013
L61.9518 11.5618
" />
<path d="M61.9518 11.5618
L62.0123 11.6223
" />
<path d="M62.0123 11.6223
L62.0728 11.7432
" />
<path d="M62.0728 11.7432
L62.0728 11.8642
" />
<path d="M62.0728 11.8642
L62.0123 12.0456
" />
<path d="M62.0123 12.0456
L61.2866 12.7713
" />
<path d="M61.2866 12.7713
L62.0728 12.7713
" />
<path d="M62.4961 11.5013
L63.3427 11.5013
" />
<path d="M63.3427 11.5013
L62.7985 12.7713
" />
<path d="M63.8265 12.7713
L63.8265 11.9247
" />
<path d="M63.8265 12.0456
L63.8870 11.9851
" />
<path d="M63.8870 11.9851
L64.0080 11.9247
" />
<path d="M64.0080 11.9247
L64.1894 11.9247
" />
<path d="M64.1894 11.9247
L64.3103 11.9851
" />
<path d="M64.3103 11.9851
L64.3708 12.1061
" />
<path d="M64.3708 12.1061
L64.3708 12.7713
" />
<path d="M64.3708 12.1061
L64.4313 11.9851
" />
<path d="M64.4313 11.9851
L64.5522 11.9247
" />
<path d="M64.5522 11.9247
L64.7337 11.9247
" />
<path d="M64.7337 11.9247
L64.8546 11.9851
" />
<path d="M64.8546 11.9851
L64.9151 12.1061
" />
<path d="M64.9151 12.1061
L64.9151 12.7713
" />
<path d="M65.5198 12.7713
L65.5198 11.9247
" />
<path d="M65.5198 12.0456
L65.5803 11.9851
" />
<path d="M65.5803 11.9851
L65.7013 11.9247
" />
<path d="M65.7013 11.9247
L65.8827 11.9247
" />
<path d="M65.8827 11.9247
L66.0036 11.9851
" />
<path d="M66.0036 11.9851
L66.0641 12.1061
" />
<path d="M66.0641 12.1061
L66.0641 12.7713
" />
<path d="M66.0641 12.1061
L66.1246 11.9851
" />
<path d="M66.1246 11.9851
L66.2455 11.9247
" />
<path d="M66.2455 11.9247
L66.4270 11.9247
" />
<path d="M66.4270 11.9247
L66.5479 11.9851
" />
<path d="M66.5479 11.9851
L66.6084 12.1061
" />
<path d="M66.6084 12.1061
L66.6084 12.7713
" />
</g><text x="46.6514" y="12.8271"
textLength="77.7524" font-size="1.6933" lengthAdjust="spacingAndGlyphs"
text-anchor="middle" opacity="0">https://www.renesas.com/us/en/document/dst/isl59885-datasheet?r=533081</text>
<g class="stroked-text"><desc>https://www.renesas.com/us/en/document/dst/isl59885-datasheet?r=533081</desc>
<path d="M8.1887 12.7713
L8.1887 11.5013
" />
<path d="M8.7330 12.7713
L8.7330 12.1061
" />
<path d="M8.7330 12.1061
L8.6725 11.9851
" />
<path d="M8.6725 11.9851
L8.5516 11.9247
" />
<path d="M8.5516 11.9247
L8.3702 11.9247
" />
<path d="M8.3702 11.9247
L8.2492 11.9851
" />
<path d="M8.2492 11.9851
L8.1887 12.0456
" />
<path d="M9.1563 11.9247
L9.6401 11.9247
" />
<path d="M9.3377 11.5013
L9.3377 12.5899
" />
<path d="M9.3377 12.5899
L9.3982 12.7109
" />
<path d="M9.3982 12.7109
L9.5192 12.7713
" />
<path d="M9.5192 12.7713
L9.6401 12.7713
" />
<path d="M9.8820 11.9247
L10.3658 11.9247
" />
<path d="M10.0634 11.5013
L10.0634 12.5899
" />
<path d="M10.0634 12.5899
L10.1239 12.7109
" />
<path d="M10.1239 12.7109
L10.2449 12.7713
" />
<path d="M10.2449 12.7713
L10.3658 12.7713
" />
<path d="M10.7891 11.9247
L10.7891 13.1947
" />
<path d="M10.7891 11.9851
L10.9101 11.9247
" />
<path d="M10.9101 11.9247
L11.1520 11.9247
" />
<path d="M11.1520 11.9247
L11.2729 11.9851
" />
<path d="M11.2729 11.9851
L11.3334 12.0456
" />
<path d="M11.3334 12.0456
L11.3939 12.1666
" />
<path d="M11.3939 12.1666
L11.3939 12.5294
" />
<path d="M11.3939 12.5294
L11.3334 12.6504
" />
<path d="M11.3334 12.6504
L11.2729 12.7109
" />
<path d="M11.2729 12.7109
L11.1520 12.7713
" />
<path d="M11.1520 12.7713
L10.9101 12.7713
" />
<path d="M10.9101 12.7713
L10.7891 12.7109
" />
<path d="M11.8777 12.7109
L11.9986 12.7713
" />
<path d="M11.9986 12.7713
L12.2405 12.7713
" />
<path d="M12.2405 12.7713
L12.3615 12.7109
" />
<path d="M12.3615 12.7109
L12.4219 12.5899
" />
<path d="M12.4219 12.5899
L12.4219 12.5294
" />
<path d="M12.4219 12.5294
L12.3615 12.4085
" />
<path d="M12.3615 12.4085
L12.2405 12.3480
" />
<path d="M12.2405 12.3480
L12.0591 12.3480
" />
<path d="M12.0591 12.3480
L11.9381 12.2875
" />
<path d="M11.9381 12.2875
L11.8777 12.1666
" />
<path d="M11.8777 12.1666
L11.8777 12.1061
" />
<path d="M11.8777 12.1061
L11.9381 11.9851
" />
<path d="M11.9381 11.9851
L12.0591 11.9247
" />
<path d="M12.0591 11.9247
L12.2405 11.9247
" />
<path d="M12.2405 11.9247
L12.3615 11.9851
" />
<path d="M12.9662 12.6504
L13.0267 12.7109
" />
<path d="M13.0267 12.7109
L12.9662 12.7713
" />
<path d="M12.9662 12.7713
L12.9058 12.7109
" />
<path d="M12.9058 12.7109
L12.9662 12.6504
" />
<path d="M12.9662 12.6504
L12.9662 12.7713
" />
<path d="M12.9662 11.9851
L13.0267 12.0456
" />
<path d="M13.0267 12.0456
L12.9662 12.1061
" />
<path d="M12.9662 12.1061
L12.9058 12.0456
" />
<path d="M12.9058 12.0456
L12.9662 11.9851
" />
<path d="M12.9662 11.9851
L12.9662 12.1061
" />
<path d="M14.4782 11.4409
L13.3896 13.0737
" />
<path d="M15.8087 11.4409
L14.7201 13.0737
" />
<path d="M16.1111 11.9247
L16.3530 12.7713
" />
<path d="M16.3530 12.7713
L16.5949 12.1666
" />
<path d="M16.5949 12.1666
L16.8368 12.7713
" />
<path d="M16.8368 12.7713
L17.0787 11.9247
" />
<path d="M17.4416 11.9247
L17.6835 12.7713
" />
<path d="M17.6835 12.7713
L17.9254 12.1666
" />
<path d="M17.9254 12.1666
L18.1673 12.7713
" />
<path d="M18.1673 12.7713
L18.4092 11.9247
" />
<path d="M18.7721 11.9247
L19.0140 12.7713
" />
<path d="M19.0140 12.7713
L19.2559 12.1666
" />
<path d="M19.2559 12.1666
L19.4978 12.7713
" />
<path d="M19.4978 12.7713
L19.7397 11.9247
" />
<path d="M20.2235 12.6504
L20.2840 12.7109
" />
<path d="M20.2840 12.7109
L20.2235 12.7713
" />
<path d="M20.2235 12.7713
L20.1631 12.7109
" />
<path d="M20.1631 12.7109
L20.2235 12.6504
" />
<path d="M20.2235 12.6504
L20.2235 12.7713
" />
<path d="M20.8283 12.7713
L20.8283 11.9247
" />
<path d="M20.8283 12.1666
L20.8888 12.0456
" />
<path d="M20.8888 12.0456
L20.9493 11.9851
" />
<path d="M20.9493 11.9851
L21.0702 11.9247
" />
<path d="M21.0702 11.9247
L21.1912 11.9247
" />
<path d="M22.0983 12.7109
L21.9774 12.7713
" />
<path d="M21.9774 12.7713
L21.7355 12.7713
" />
<path d="M21.7355 12.7713
L21.6145 12.7109
" />
<path d="M21.6145 12.7109
L21.5541 12.5899
" />
<path d="M21.5541 12.5899
L21.5541 12.1061
" />
<path d="M21.5541 12.1061
L21.6145 11.9851
" />
<path d="M21.6145 11.9851
L21.7355 11.9247
" />
<path d="M21.7355 11.9247
L21.9774 11.9247
" />
<path d="M21.9774 11.9247
L22.0983 11.9851
" />
<path d="M22.0983 11.9851
L22.1588 12.1061
" />
<path d="M22.1588 12.1061
L22.1588 12.2270
" />
<path d="M22.1588 12.2270
L21.5541 12.3480
" />
<path d="M22.7031 11.9247
L22.7031 12.7713
" />
<path d="M22.7031 12.0456
L22.7636 11.9851
" />
<path d="M22.7636 11.9851
L22.8846 11.9247
" />
<path d="M22.8846 11.9247
L23.0660 11.9247
" />
<path d="M23.0660 11.9247
L23.1869 11.9851
" />
<path d="M23.1869 11.9851
L23.2474 12.1061
" />
<path d="M23.2474 12.1061
L23.2474 12.7713
" />
<path d="M24.3359 12.7109
L24.2150 12.7713
" />
<path d="M24.2150 12.7713
L23.9731 12.7713
" />
<path d="M23.9731 12.7713
L23.8521 12.7109
" />
<path d="M23.8521 12.7109
L23.7917 12.5899
" />
<path d="M23.7917 12.5899
L23.7917 12.1061
" />
<path d="M23.7917 12.1061
L23.8521 11.9851
" />
<path d="M23.8521 11.9851
L23.9731 11.9247
" />
<path d="M23.9731 11.9247
L24.2150 11.9247
" />
<path d="M24.2150 11.9247
L24.3359 11.9851
" />
<path d="M24.3359 11.9851
L24.3964 12.1061
" />
<path d="M24.3964 12.1061
L24.3964 12.2270
" />
<path d="M24.3964 12.2270
L23.7917 12.3480
" />
<path d="M24.8803 12.7109
L25.0012 12.7713
" />
<path d="M25.0012 12.7713
L25.2431 12.7713
" />
<path d="M25.2431 12.7713
L25.3641 12.7109
" />
<path d="M25.3641 12.7109
L25.4245 12.5899
" />
<path d="M25.4245 12.5899
L25.4245 12.5294
" />
<path d="M25.4245 12.5294
L25.3641 12.4085
" />
<path d="M25.3641 12.4085
L25.2431 12.3480
" />
<path d="M25.2431 12.3480
L25.0617 12.3480
" />
<path d="M25.0617 12.3480
L24.9407 12.2875
" />
<path d="M24.9407 12.2875
L24.8803 12.1666
" />
<path d="M24.8803 12.1666
L24.8803 12.1061
" />
<path d="M24.8803 12.1061
L24.9407 11.9851
" />
<path d="M24.9407 11.9851
L25.0617 11.9247
" />
<path d="M25.0617 11.9247
L25.2431 11.9247
" />
<path d="M25.2431 11.9247
L25.3641 11.9851
" />
<path d="M26.5131 12.7713
L26.5131 12.1061
" />
<path d="M26.5131 12.1061
L26.4526 11.9851
" />
<path d="M26.4526 11.9851
L26.3317 11.9247
" />
<path d="M26.3317 11.9247
L26.0898 11.9247
" />
<path d="M26.0898 11.9247
L25.9688 11.9851
" />
<path d="M26.5131 12.7109
L26.3922 12.7713
" />
<path d="M26.3922 12.7713
L26.0898 12.7713
" />
<path d="M26.0898 12.7713
L25.9688 12.7109
" />
<path d="M25.9688 12.7109
L25.9084 12.5899
" />
<path d="M25.9084 12.5899
L25.9084 12.4689
" />
<path d="M25.9084 12.4689
L25.9688 12.3480
" />
<path d="M25.9688 12.3480
L26.0898 12.2875
" />
<path d="M26.0898 12.2875
L26.3922 12.2875
" />
<path d="M26.3922 12.2875
L26.5131 12.2270
" />
<path d="M27.0574 12.7109
L27.1783 12.7713
" />
<path d="M27.1783 12.7713
L27.4202 12.7713
" />
<path d="M27.4202 12.7713
L27.5412 12.7109
" />
<path d="M27.5412 12.7109
L27.6016 12.5899
" />
<path d="M27.6016 12.5899
L27.6016 12.5294
" />
<path d="M27.6016 12.5294
L27.5412 12.4085
" />
<path d="M27.5412 12.4085
L27.4202 12.3480
" />
<path d="M27.4202 12.3480
L27.2388 12.3480
" />
<path d="M27.2388 12.3480
L27.1178 12.2875
" />
<path d="M27.1178 12.2875
L27.0574 12.1666
" />
<path d="M27.0574 12.1666
L27.0574 12.1061
" />
<path d="M27.0574 12.1061
L27.1178 11.9851
" />
<path d="M27.1178 11.9851
L27.2388 11.9247
" />
<path d="M27.2388 11.9247
L27.4202 11.9247
" />
<path d="M27.4202 11.9247
L27.5412 11.9851
" />
<path d="M28.1459 12.6504
L28.2064 12.7109
" />
<path d="M28.2064 12.7109
L28.1459 12.7713
" />
<path d="M28.1459 12.7713
L28.0855 12.7109
" />
<path d="M28.0855 12.7109
L28.1459 12.6504
" />
<path d="M28.1459 12.6504
L28.1459 12.7713
" />
<path d="M29.2950 12.7109
L29.1741 12.7713
" />
<path d="M29.1741 12.7713
L28.9322 12.7713
" />
<path d="M28.9322 12.7713
L28.8112 12.7109
" />
<path d="M28.8112 12.7109
L28.7507 12.6504
" />
<path d="M28.7507 12.6504
L28.6903 12.5294
" />
<path d="M28.6903 12.5294
L28.6903 12.1666
" />
<path d="M28.6903 12.1666
L28.7507 12.0456
" />
<path d="M28.7507 12.0456
L28.8112 11.9851
" />
<path d="M28.8112 11.9851
L28.9322 11.9247
" />
<path d="M28.9322 11.9247
L29.1741 11.9247
" />
<path d="M29.1741 11.9247
L29.2950 11.9851
" />
<path d="M30.0208 12.7713
L29.8998 12.7109
" />
<path d="M29.8998 12.7109
L29.8393 12.6504
" />
<path d="M29.8393 12.6504
L29.7789 12.5294
" />
<path d="M29.7789 12.5294
L29.7789 12.1666
" />
<path d="M29.7789 12.1666
L29.8393 12.0456
" />
<path d="M29.8393 12.0456
L29.8998 11.9851
" />
<path d="M29.8998 11.9851
L30.0208 11.9247
" />
<path d="M30.0208 11.9247
L30.2022 11.9247
" />
<path d="M30.2022 11.9247
L30.3231 11.9851
" />
<path d="M30.3231 11.9851
L30.3836 12.0456
" />
<path d="M30.3836 12.0456
L30.4441 12.1666
" />
<path d="M30.4441 12.1666
L30.4441 12.5294
" />
<path d="M30.4441 12.5294
L30.3836 12.6504
" />
<path d="M30.3836 12.6504
L30.3231 12.7109
" />
<path d="M30.3231 12.7109
L30.2022 12.7713
" />
<path d="M30.2022 12.7713
L30.0208 12.7713
" />
<path d="M30.9883 12.7713
L30.9883 11.9247
" />
<path d="M30.9883 12.0456
L31.0488 11.9851
" />
<path d="M31.0488 11.9851
L31.1698 11.9247
" />
<path d="M31.1698 11.9247
L31.3512 11.9247
" />
<path d="M31.3512 11.9247
L31.4721 11.9851
" />
<path d="M31.4721 11.9851
L31.5326 12.1061
" />
<path d="M31.5326 12.1061
L31.5326 12.7713
" />
<path d="M31.5326 12.1061
L31.5931 11.9851
" />
<path d="M31.5931 11.9851
L31.7140 11.9247
" />
<path d="M31.7140 11.9247
L31.8955 11.9247
" />
<path d="M31.8955 11.9247
L32.0164 11.9851
" />
<path d="M32.0164 11.9851
L32.0769 12.1061
" />
<path d="M32.0769 12.1061
L32.0769 12.7713
" />
<path d="M33.5888 11.4409
L32.5002 13.0737
" />
<path d="M34.5564 11.9247
L34.5564 12.7713
" />
<path d="M34.0121 11.9247
L34.0121 12.5899
" />
<path d="M34.0121 12.5899
L34.0726 12.7109
" />
<path d="M34.0726 12.7109
L34.1936 12.7713
" />
<path d="M34.1936 12.7713
L34.3750 12.7713
" />
<path d="M34.3750 12.7713
L34.4959 12.7109
" />
<path d="M34.4959 12.7109
L34.5564 12.6504
" />
<path d="M35.1007 12.7109
L35.2216 12.7713
" />
<path d="M35.2216 12.7713
L35.4635 12.7713
" />
<path d="M35.4635 12.7713
L35.5845 12.7109
" />
<path d="M35.5845 12.7109
L35.6449 12.5899
" />
<path d="M35.6449 12.5899
L35.6449 12.5294
" />
<path d="M35.6449 12.5294
L35.5845 12.4085
" />
<path d="M35.5845 12.4085
L35.4635 12.3480
" />
<path d="M35.4635 12.3480
L35.2821 12.3480
" />
<path d="M35.2821 12.3480
L35.1611 12.2875
" />
<path d="M35.1611 12.2875
L35.1007 12.1666
" />
<path d="M35.1007 12.1666
L35.1007 12.1061
" />
<path d="M35.1007 12.1061
L35.1611 11.9851
" />
<path d="M35.1611 11.9851
L35.2821 11.9247
" />
<path d="M35.2821 11.9247
L35.4635 11.9247
" />
<path d="M35.4635 11.9247
L35.5845 11.9851
" />
<path d="M37.0964 11.4409
L36.0078 13.0737
" />
<path d="M38.0035 12.7109
L37.8826 12.7713
" />
<path d="M37.8826 12.7713
L37.6407 12.7713
" />
<path d="M37.6407 12.7713
L37.5197 12.7109
" />
<path d="M37.5197 12.7109
L37.4593 12.5899
" />
<path d="M37.4593 12.5899
L37.4593 12.1061
" />
<path d="M37.4593 12.1061
L37.5197 11.9851
" />
<path d="M37.5197 11.9851
L37.6407 11.9247
" />
<path d="M37.6407 11.9247
L37.8826 11.9247
" />
<path d="M37.8826 11.9247
L38.0035 11.9851
" />
<path d="M38.0035 11.9851
L38.0640 12.1061
" />
<path d="M38.0640 12.1061
L38.0640 12.2270
" />
<path d="M38.0640 12.2270
L37.4593 12.3480
" />
<path d="M38.6083 11.9247
L38.6083 12.7713
" />
<path d="M38.6083 12.0456
L38.6688 11.9851
" />
<path d="M38.6688 11.9851
L38.7898 11.9247
" />
<path d="M38.7898 11.9247
L38.9712 11.9247
" />
<path d="M38.9712 11.9247
L39.0921 11.9851
" />
<path d="M39.0921 11.9851
L39.1526 12.1061
" />
<path d="M39.1526 12.1061
L39.1526 12.7713
" />
<path d="M40.6645 11.4409
L39.5759 13.0737
" />
<path d="M41.6321 12.7713
L41.6321 11.5013
" />
<path d="M41.6321 12.7109
L41.5112 12.7713
" />
<path d="M41.5112 12.7713
L41.2693 12.7713
" />
<path d="M41.2693 12.7713
L41.1483 12.7109
" />
<path d="M41.1483 12.7109
L41.0878 12.6504
" />
<path d="M41.0878 12.6504
L41.0274 12.5294
" />
<path d="M41.0274 12.5294
L41.0274 12.1666
" />
<path d="M41.0274 12.1666
L41.0878 12.0456
" />
<path d="M41.0878 12.0456
L41.1483 11.9851
" />
<path d="M41.1483 11.9851
L41.2693 11.9247
" />
<path d="M41.2693 11.9247
L41.5112 11.9247
" />
<path d="M41.5112 11.9247
L41.6321 11.9851
" />
<path d="M42.4183 12.7713
L42.2973 12.7109
" />
<path d="M42.2973 12.7109
L42.2368 12.6504
" />
<path d="M42.2368 12.6504
L42.1764 12.5294
" />
<path d="M42.1764 12.5294
L42.1764 12.1666
" />
<path d="M42.1764 12.1666
L42.2368 12.0456
" />
<path d="M42.2368 12.0456
L42.2973 11.9851
" />
<path d="M42.2973 11.9851
L42.4183 11.9247
" />
<path d="M42.4183 11.9247
L42.5997 11.9247
" />
<path d="M42.5997 11.9247
L42.7206 11.9851
" />
<path d="M42.7206 11.9851
L42.7811 12.0456
" />
<path d="M42.7811 12.0456
L42.8416 12.1666
" />
<path d="M42.8416 12.1666
L42.8416 12.5294
" />
<path d="M42.8416 12.5294
L42.7811 12.6504
" />
<path d="M42.7811 12.6504
L42.7206 12.7109
" />
<path d="M42.7206 12.7109
L42.5997 12.7713
" />
<path d="M42.5997 12.7713
L42.4183 12.7713
" />
<path d="M43.9301 12.7109
L43.8092 12.7713
" />
<path d="M43.8092 12.7713
L43.5673 12.7713
" />
<path d="M43.5673 12.7713
L43.4463 12.7109
" />
<path d="M43.4463 12.7109
L43.3858 12.6504
" />
<path d="M43.3858 12.6504
L43.3254 12.5294
" />
<path d="M43.3254 12.5294
L43.3254 12.1666
" />
<path d="M43.3254 12.1666
L43.3858 12.0456
" />
<path d="M43.3858 12.0456
L43.4463 11.9851
" />
<path d="M43.4463 11.9851
L43.5673 11.9247
" />
<path d="M43.5673 11.9247
L43.8092 11.9247
" />
<path d="M43.8092 11.9247
L43.9301 11.9851
" />
<path d="M45.0187 11.9247
L45.0187 12.7713
" />
<path d="M44.4744 11.9247
L44.4744 12.5899
" />
<path d="M44.4744 12.5899
L44.5349 12.7109
" />
<path d="M44.5349 12.7109
L44.6559 12.7713
" />
<path d="M44.6559 12.7713
L44.8373 12.7713
" />
<path d="M44.8373 12.7713
L44.9582 12.7109
" />
<path d="M44.9582 12.7109
L45.0187 12.6504
" />
<path d="M45.6234 12.7713
L45.6234 11.9247
" />
<path d="M45.6234 12.0456
L45.6839 11.9851
" />
<path d="M45.6839 11.9851
L45.8049 11.9247
" />
<path d="M45.8049 11.9247
L45.9863 11.9247
" />
<path d="M45.9863 11.9247
L46.1072 11.9851
" />
<path d="M46.1072 11.9851
L46.1677 12.1061
" />
<path d="M46.1677 12.1061
L46.1677 12.7713
" />
<path d="M46.1677 12.1061
L46.2282 11.9851
" />
<path d="M46.2282 11.9851
L46.3491 11.9247
" />
<path d="M46.3491 11.9247
L46.5306 11.9247
" />
<path d="M46.5306 11.9247
L46.6515 11.9851
" />
<path d="M46.6515 11.9851
L46.7120 12.1061
" />
<path d="M46.7120 12.1061
L46.7120 12.7713
" />
<path d="M47.8005 12.7109
L47.6796 12.7713
" />
<path d="M47.6796 12.7713
L47.4377 12.7713
" />
<path d="M47.4377 12.7713
L47.3167 12.7109
" />
<path d="M47.3167 12.7109
L47.2563 12.5899
" />
<path d="M47.2563 12.5899
L47.2563 12.1061
" />
<path d="M47.2563 12.1061
L47.3167 11.9851
" />
<path d="M47.3167 11.9851
L47.4377 11.9247
" />
<path d="M47.4377 11.9247
L47.6796 11.9247
" />
<path d="M47.6796 11.9247
L47.8005 11.9851
" />
<path d="M47.8005 11.9851
L47.8610 12.1061
" />
<path d="M47.8610 12.1061
L47.8610 12.2270
" />
<path d="M47.8610 12.2270
L47.2563 12.3480
" />
<path d="M48.4053 11.9247
L48.4053 12.7713
" />
<path d="M48.4053 12.0456
L48.4658 11.9851
" />
<path d="M48.4658 11.9851
L48.5868 11.9247
" />
<path d="M48.5868 11.9247
L48.7682 11.9247
" />
<path d="M48.7682 11.9247
L48.8891 11.9851
" />
<path d="M48.8891 11.9851
L48.9496 12.1061
" />
<path d="M48.9496 12.1061
L48.9496 12.7713
" />
<path d="M49.3729 11.9247
L49.8567 11.9247
" />
<path d="M49.5543 11.5013
L49.5543 12.5899
" />
<path d="M49.5543 12.5899
L49.6148 12.7109
" />
<path d="M49.6148 12.7109
L49.7358 12.7713
" />
<path d="M49.7358 12.7713
L49.8567 12.7713
" />
<path d="M51.1872 11.4409
L50.0986 13.0737
" />
<path d="M52.1548 12.7713
L52.1548 11.5013
" />
<path d="M52.1548 12.7109
L52.0339 12.7713
" />
<path d="M52.0339 12.7713
L51.7920 12.7713
" />
<path d="M51.7920 12.7713
L51.6710 12.7109
" />
<path d="M51.6710 12.7109
L51.6105 12.6504
" />
<path d="M51.6105 12.6504
L51.5501 12.5294
" />
<path d="M51.5501 12.5294
L51.5501 12.1666
" />
<path d="M51.5501 12.1666
L51.6105 12.0456
" />
<path d="M51.6105 12.0456
L51.6710 11.9851
" />
<path d="M51.6710 11.9851
L51.7920 11.9247
" />
<path d="M51.7920 11.9247
L52.0339 11.9247
" />
<path d="M52.0339 11.9247
L52.1548 11.9851
" />
<path d="M52.6991 12.7109
L52.8200 12.7713
" />
<path d="M52.8200 12.7713
L53.0619 12.7713
" />
<path d="M53.0619 12.7713
L53.1829 12.7109
" />
<path d="M53.1829 12.7109
L53.2433 12.5899
" />
<path d="M53.2433 12.5899
L53.2433 12.5294
" />
<path d="M53.2433 12.5294
L53.1829 12.4085
" />
<path d="M53.1829 12.4085
L53.0619 12.3480
" />
<path d="M53.0619 12.3480
L52.8805 12.3480
" />
<path d="M52.8805 12.3480
L52.7595 12.2875
" />
<path d="M52.7595 12.2875
L52.6991 12.1666
" />
<path d="M52.6991 12.1666
L52.6991 12.1061
" />
<path d="M52.6991 12.1061
L52.7595 11.9851
" />
<path d="M52.7595 11.9851
L52.8805 11.9247
" />
<path d="M52.8805 11.9247
L53.0619 11.9247
" />
<path d="M53.0619 11.9247
L53.1829 11.9851
" />
<path d="M53.6062 11.9247
L54.0900 11.9247
" />
<path d="M53.7876 11.5013
L53.7876 12.5899
" />
<path d="M53.7876 12.5899
L53.8481 12.7109
" />
<path d="M53.8481 12.7109
L53.9691 12.7713
" />
<path d="M53.9691 12.7713
L54.0900 12.7713
" />
<path d="M55.4205 11.4409
L54.3319 13.0737
" />
<path d="M55.8438 12.7713
L55.8438 11.9247
" />
<path d="M55.8438 11.5013
L55.7834 11.5618
" />
<path d="M55.7834 11.5618
L55.8438 11.6223
" />
<path d="M55.8438 11.6223
L55.9043 11.5618
" />
<path d="M55.9043 11.5618
L55.8438 11.5013
" />
<path d="M55.8438 11.5013
L55.8438 11.6223
" />
<path d="M56.3882 12.7109
L56.5091 12.7713
" />
<path d="M56.5091 12.7713
L56.7510 12.7713
" />
<path d="M56.7510 12.7713
L56.8720 12.7109
" />
<path d="M56.8720 12.7109
L56.9324 12.5899
" />
<path d="M56.9324 12.5899
L56.9324 12.5294
" />
<path d="M56.9324 12.5294
L56.8720 12.4085
" />
<path d="M56.8720 12.4085
L56.7510 12.3480
" />
<path d="M56.7510 12.3480
L56.5696 12.3480
" />
<path d="M56.5696 12.3480
L56.4486 12.2875
" />
<path d="M56.4486 12.2875
L56.3882 12.1666
" />
<path d="M56.3882 12.1666
L56.3882 12.1061
" />
<path d="M56.3882 12.1061
L56.4486 11.9851
" />
<path d="M56.4486 11.9851
L56.5696 11.9247
" />
<path d="M56.5696 11.9247
L56.7510 11.9247
" />
<path d="M56.7510 11.9247
L56.8720 11.9851
" />
<path d="M57.6582 12.7713
L57.5372 12.7109
" />
<path d="M57.5372 12.7109
L57.4767 12.5899
" />
<path d="M57.4767 12.5899
L57.4767 11.5013
" />
<path d="M58.7467 11.5013
L58.1419 11.5013
" />
<path d="M58.1419 11.5013
L58.0815 12.1061
" />
<path d="M58.0815 12.1061
L58.1419 12.0456
" />
<path d="M58.1419 12.0456
L58.2629 11.9851
" />
<path d="M58.2629 11.9851
L58.5653 11.9851
" />
<path d="M58.5653 11.9851
L58.6862 12.0456
" />
<path d="M58.6862 12.0456
L58.7467 12.1061
" />
<path d="M58.7467 12.1061
L58.8072 12.2270
" />
<path d="M58.8072 12.2270
L58.8072 12.5294
" />
<path d="M58.8072 12.5294
L58.7467 12.6504
" />
<path d="M58.7467 12.6504
L58.6862 12.7109
" />
<path d="M58.6862 12.7109
L58.5653 12.7713
" />
<path d="M58.5653 12.7713
L58.2629 12.7713
" />
<path d="M58.2629 12.7713
L58.1419 12.7109
" />
<path d="M58.1419 12.7109
L58.0815 12.6504
" />
<path d="M59.4119 12.7713
L59.6538 12.7713
" />
<path d="M59.6538 12.7713
L59.7748 12.7109
" />
<path d="M59.7748 12.7109
L59.8352 12.6504
" />
<path d="M59.8352 12.6504
L59.9562 12.4689
" />
<path d="M59.9562 12.4689
L60.0167 12.2270
" />
<path d="M60.0167 12.2270
L60.0167 11.7432
" />
<path d="M60.0167 11.7432
L59.9562 11.6223
" />
<path d="M59.9562 11.6223
L59.8957 11.5618
" />
<path d="M59.8957 11.5618
L59.7748 11.5013
" />
<path d="M59.7748 11.5013
L59.5329 11.5013
" />
<path d="M59.5329 11.5013
L59.4119 11.5618
" />
<path d="M59.4119 11.5618
L59.3514 11.6223
" />
<path d="M59.3514 11.6223
L59.2910 11.7432
" />
<path d="M59.2910 11.7432
L59.2910 12.0456
" />
<path d="M59.2910 12.0456
L59.3514 12.1666
" />
<path d="M59.3514 12.1666
L59.4119 12.2270
" />
<path d="M59.4119 12.2270
L59.5329 12.2875
" />
<path d="M59.5329 12.2875
L59.7748 12.2875
" />
<path d="M59.7748 12.2875
L59.8957 12.2270
" />
<path d="M59.8957 12.2270
L59.9562 12.1666
" />
<path d="M59.9562 12.1666
L60.0167 12.0456
" />
<path d="M60.7424 12.0456
L60.6214 11.9851
" />
<path d="M60.6214 11.9851
L60.5609 11.9247
" />
<path d="M60.5609 11.9247
L60.5005 11.8037
" />
<path d="M60.5005 11.8037
L60.5005 11.7432
" />
<path d="M60.5005 11.7432
L60.5609 11.6223
" />
<path d="M60.5609 11.6223
L60.6214 11.5618
" />
<path d="M60.6214 11.5618
L60.7424 11.5013
" />
<path d="M60.7424 11.5013
L60.9843 11.5013
" />
<path d="M60.9843 11.5013
L61.1052 11.5618
" />
<path d="M61.1052 11.5618
L61.1657 11.6223
" />
<path d="M61.1657 11.6223
L61.2262 11.7432
" />
<path d="M61.2262 11.7432
L61.2262 11.8037
" />
<path d="M61.2262 11.8037
L61.1657 11.9247
" />
<path d="M61.1657 11.9247
L61.1052 11.9851
" />
<path d="M61.1052 11.9851
L60.9843 12.0456
" />
<path d="M60.9843 12.0456
L60.7424 12.0456
" />
<path d="M60.7424 12.0456
L60.6214 12.1061
" />
<path d="M60.6214 12.1061
L60.5609 12.1666
" />
<path d="M60.5609 12.1666
L60.5005 12.2875
" />
<path d="M60.5005 12.2875
L60.5005 12.5294
" />
<path d="M60.5005 12.5294
L60.5609 12.6504
" />
<path d="M60.5609 12.6504
L60.6214 12.7109
" />
<path d="M60.6214 12.7109
L60.7424 12.7713
" />
<path d="M60.7424 12.7713
L60.9843 12.7713
" />
<path d="M60.9843 12.7713
L61.1052 12.7109
" />
<path d="M61.1052 12.7109
L61.1657 12.6504
" />
<path d="M61.1657 12.6504
L61.2262 12.5294
" />
<path d="M61.2262 12.5294
L61.2262 12.2875
" />
<path d="M61.2262 12.2875
L61.1657 12.1666
" />
<path d="M61.1657 12.1666
L61.1052 12.1061
" />
<path d="M61.1052 12.1061
L60.9843 12.0456
" />
<path d="M61.9519 12.0456
L61.8309 11.9851
" />
<path d="M61.8309 11.9851
L61.7704 11.9247
" />
<path d="M61.7704 11.9247
L61.7100 11.8037
" />
<path d="M61.7100 11.8037
L61.7100 11.7432
" />
<path d="M61.7100 11.7432
L61.7704 11.6223
" />
<path d="M61.7704 11.6223
L61.8309 11.5618
" />
<path d="M61.8309 11.5618
L61.9519 11.5013
" />
<path d="M61.9519 11.5013
L62.1938 11.5013
" />
<path d="M62.1938 11.5013
L62.3147 11.5618
" />
<path d="M62.3147 11.5618
L62.3752 11.6223
" />
<path d="M62.3752 11.6223
L62.4357 11.7432
" />
<path d="M62.4357 11.7432
L62.4357 11.8037
" />
<path d="M62.4357 11.8037
L62.3752 11.9247
" />
<path d="M62.3752 11.9247
L62.3147 11.9851
" />
<path d="M62.3147 11.9851
L62.1938 12.0456
" />
<path d="M62.1938 12.0456
L61.9519 12.0456
" />
<path d="M61.9519 12.0456
L61.8309 12.1061
" />
<path d="M61.8309 12.1061
L61.7704 12.1666
" />
<path d="M61.7704 12.1666
L61.7100 12.2875
" />
<path d="M61.7100 12.2875
L61.7100 12.5294
" />
<path d="M61.7100 12.5294
L61.7704 12.6504
" />
<path d="M61.7704 12.6504
L61.8309 12.7109
" />
<path d="M61.8309 12.7109
L61.9519 12.7713
" />
<path d="M61.9519 12.7713
L62.1938 12.7713
" />
<path d="M62.1938 12.7713
L62.3147 12.7109
" />
<path d="M62.3147 12.7109
L62.3752 12.6504
" />
<path d="M62.3752 12.6504
L62.4357 12.5294
" />
<path d="M62.4357 12.5294
L62.4357 12.2875
" />
<path d="M62.4357 12.2875
L62.3752 12.1666
" />
<path d="M62.3752 12.1666
L62.3147 12.1061
" />
<path d="M62.3147 12.1061
L62.1938 12.0456
" />
<path d="M63.5847 11.5013
L62.9799 11.5013
" />
<path d="M62.9799 11.5013
L62.9195 12.1061
" />
<path d="M62.9195 12.1061
L62.9799 12.0456
" />
<path d="M62.9799 12.0456
L63.1009 11.9851
" />
<path d="M63.1009 11.9851
L63.4033 11.9851
" />
<path d="M63.4033 11.9851
L63.5242 12.0456
" />
<path d="M63.5242 12.0456
L63.5847 12.1061
" />
<path d="M63.5847 12.1061
L63.6452 12.2270
" />
<path d="M63.6452 12.2270
L63.6452 12.5294
" />
<path d="M63.6452 12.5294
L63.5847 12.6504
" />
<path d="M63.5847 12.6504
L63.5242 12.7109
" />
<path d="M63.5242 12.7109
L63.4033 12.7713
" />
<path d="M63.4033 12.7713
L63.1009 12.7713
" />
<path d="M63.1009 12.7713
L62.9799 12.7109
" />
<path d="M62.9799 12.7109
L62.9195 12.6504
" />
<path d="M64.1894 12.2875
L65.1571 12.2875
" />
<path d="M66.3061 12.7713
L66.3061 11.5013
" />
<path d="M66.3061 12.7109
L66.1852 12.7713
" />
<path d="M66.1852 12.7713
L65.9433 12.7713
" />
<path d="M65.9433 12.7713
L65.8223 12.7109
" />
<path d="M65.8223 12.7109
L65.7618 12.6504
" />
<path d="M65.7618 12.6504
L65.7014 12.5294
" />
<path d="M65.7014 12.5294
L65.7014 12.1666
" />
<path d="M65.7014 12.1666
L65.7618 12.0456
" />
<path d="M65.7618 12.0456
L65.8223 11.9851
" />
<path d="M65.8223 11.9851
L65.9433 11.9247
" />
<path d="M65.9433 11.9247
L66.1852 11.9247
" />
<path d="M66.1852 11.9247
L66.3061 11.9851
" />
<path d="M67.4551 12.7713
L67.4551 12.1061
" />
<path d="M67.4551 12.1061
L67.3946 11.9851
" />
<path d="M67.3946 11.9851
L67.2737 11.9247
" />
<path d="M67.2737 11.9247
L67.0318 11.9247
" />
<path d="M67.0318 11.9247
L66.9108 11.9851
" />
<path d="M67.4551 12.7109
L67.3342 12.7713
" />
<path d="M67.3342 12.7713
L67.0318 12.7713
" />
<path d="M67.0318 12.7713
L66.9108 12.7109
" />
<path d="M66.9108 12.7109
L66.8504 12.5899
" />
<path d="M66.8504 12.5899
L66.8504 12.4689
" />
<path d="M66.8504 12.4689
L66.9108 12.3480
" />
<path d="M66.9108 12.3480
L67.0318 12.2875
" />
<path d="M67.0318 12.2875
L67.3342 12.2875
" />
<path d="M67.3342 12.2875
L67.4551 12.2270
" />
<path d="M67.8784 11.9247
L68.3622 11.9247
" />
<path d="M68.0598 11.5013
L68.0598 12.5899
" />
<path d="M68.0598 12.5899
L68.1203 12.7109
" />
<path d="M68.1203 12.7109
L68.2413 12.7713
" />
<path d="M68.2413 12.7713
L68.3622 12.7713
" />
<path d="M69.3298 12.7713
L69.3298 12.1061
" />
<path d="M69.3298 12.1061
L69.2693 11.9851
" />
<path d="M69.2693 11.9851
L69.1484 11.9247
" />
<path d="M69.1484 11.9247
L68.9065 11.9247
" />
<path d="M68.9065 11.9247
L68.7855 11.9851
" />
<path d="M69.3298 12.7109
L69.2089 12.7713
" />
<path d="M69.2089 12.7713
L68.9065 12.7713
" />
<path d="M68.9065 12.7713
L68.7855 12.7109
" />
<path d="M68.7855 12.7109
L68.7251 12.5899
" />
<path d="M68.7251 12.5899
L68.7251 12.4689
" />
<path d="M68.7251 12.4689
L68.7855 12.3480
" />
<path d="M68.7855 12.3480
L68.9065 12.2875
" />
<path d="M68.9065 12.2875
L69.2089 12.2875
" />
<path d="M69.2089 12.2875
L69.3298 12.2270
" />
<path d="M69.8741 12.7109
L69.9950 12.7713
" />
<path d="M69.9950 12.7713
L70.2369 12.7713
" />
<path d="M70.2369 12.7713
L70.3579 12.7109
" />
<path d="M70.3579 12.7109
L70.4183 12.5899
" />
<path d="M70.4183 12.5899
L70.4183 12.5294
" />
<path d="M70.4183 12.5294
L70.3579 12.4085
" />
<path d="M70.3579 12.4085
L70.2369 12.3480
" />
<path d="M70.2369 12.3480
L70.0555 12.3480
" />
<path d="M70.0555 12.3480
L69.9345 12.2875
" />
<path d="M69.9345 12.2875
L69.8741 12.1666
" />
<path d="M69.8741 12.1666
L69.8741 12.1061
" />
<path d="M69.8741 12.1061
L69.9345 11.9851
" />
<path d="M69.9345 11.9851
L70.0555 11.9247
" />
<path d="M70.0555 11.9247
L70.2369 11.9247
" />
<path d="M70.2369 11.9247
L70.3579 11.9851
" />
<path d="M70.9626 12.7713
L70.9626 11.5013
" />
<path d="M71.5069 12.7713
L71.5069 12.1061
" />
<path d="M71.5069 12.1061
L71.4464 11.9851
" />
<path d="M71.4464 11.9851
L71.3255 11.9247
" />
<path d="M71.3255 11.9247
L71.1441 11.9247
" />
<path d="M71.1441 11.9247
L71.0231 11.9851
" />
<path d="M71.0231 11.9851
L70.9626 12.0456
" />
<path d="M72.5954 12.7109
L72.4745 12.7713
" />
<path d="M72.4745 12.7713
L72.2326 12.7713
" />
<path d="M72.2326 12.7713
L72.1116 12.7109
" />
<path d="M72.1116 12.7109
L72.0512 12.5899
" />
<path d="M72.0512 12.5899
L72.0512 12.1061
" />
<path d="M72.0512 12.1061
L72.1116 11.9851
" />
<path d="M72.1116 11.9851
L72.2326 11.9247
" />
<path d="M72.2326 11.9247
L72.4745 11.9247
" />
<path d="M72.4745 11.9247
L72.5954 11.9851
" />
<path d="M72.5954 11.9851
L72.6559 12.1061
" />
<path d="M72.6559 12.1061
L72.6559 12.2270
" />
<path d="M72.6559 12.2270
L72.0512 12.3480
" />
<path d="M73.6840 12.7109
L73.5631 12.7713
" />
<path d="M73.5631 12.7713
L73.3212 12.7713
" />
<path d="M73.3212 12.7713
L73.2002 12.7109
" />
<path d="M73.2002 12.7109
L73.1398 12.5899
" />
<path d="M73.1398 12.5899
L73.1398 12.1061
" />
<path d="M73.1398 12.1061
L73.2002 11.9851
" />
<path d="M73.2002 11.9851
L73.3212 11.9247
" />
<path d="M73.3212 11.9247
L73.5631 11.9247
" />
<path d="M73.5631 11.9247
L73.6840 11.9851
" />
<path d="M73.6840 11.9851
L73.7445 12.1061
" />
<path d="M73.7445 12.1061
L73.7445 12.2270
" />
<path d="M73.7445 12.2270
L73.1398 12.3480
" />
<path d="M74.1074 11.9247
L74.5912 11.9247
" />
<path d="M74.2888 11.5013
L74.2888 12.5899
" />
<path d="M74.2888 12.5899
L74.3493 12.7109
" />
<path d="M74.3493 12.7109
L74.4703 12.7713
" />
<path d="M74.4703 12.7713
L74.5912 12.7713
" />
<path d="M75.1960 12.6504
L75.2564 12.7109
" />
<path d="M75.2564 12.7109
L75.1960 12.7713
" />
<path d="M75.1960 12.7713
L75.1355 12.7109
" />
<path d="M75.1355 12.7109
L75.1960 12.6504
" />
<path d="M75.1960 12.6504
L75.1960 12.7713
" />
<path d="M74.9541 11.5618
L75.0750 11.5013
" />
<path d="M75.0750 11.5013
L75.3774 11.5013
" />
<path d="M75.3774 11.5013
L75.4983 11.5618
" />
<path d="M75.4983 11.5618
L75.5588 11.6828
" />
<path d="M75.5588 11.6828
L75.5588 11.8037
" />
<path d="M75.5588 11.8037
L75.4983 11.9247
" />
<path d="M75.4983 11.9247
L75.4379 11.9851
" />
<path d="M75.4379 11.9851
L75.3169 12.0456
" />
<path d="M75.3169 12.0456
L75.2564 12.1061
" />
<path d="M75.2564 12.1061
L75.1960 12.2270
" />
<path d="M75.1960 12.2270
L75.1960 12.2875
" />
<path d="M76.1031 12.7713
L76.1031 11.9247
" />
<path d="M76.1031 12.1666
L76.1636 12.0456
" />
<path d="M76.1636 12.0456
L76.2241 11.9851
" />
<path d="M76.2241 11.9851
L76.3450 11.9247
" />
<path d="M76.3450 11.9247
L76.4660 11.9247
" />
<path d="M76.8893 12.1061
L77.8570 12.1061
" />
<path d="M77.8570 12.4689
L76.8893 12.4689
" />
<path d="M79.0665 11.5013
L78.4617 11.5013
" />
<path d="M78.4617 11.5013
L78.4013 12.1061
" />
<path d="M78.4013 12.1061
L78.4617 12.0456
" />
<path d="M78.4617 12.0456
L78.5827 11.9851
" />
<path d="M78.5827 11.9851
L78.8851 11.9851
" />
<path d="M78.8851 11.9851
L79.0060 12.0456
" />
<path d="M79.0060 12.0456
L79.0665 12.1061
" />
<path d="M79.0665 12.1061
L79.1270 12.2270
" />
<path d="M79.1270 12.2270
L79.1270 12.5294
" />
<path d="M79.1270 12.5294
L79.0665 12.6504
" />
<path d="M79.0665 12.6504
L79.0060 12.7109
" />
<path d="M79.0060 12.7109
L78.8851 12.7713
" />
<path d="M78.8851 12.7713
L78.5827 12.7713
" />
<path d="M78.5827 12.7713
L78.4617 12.7109
" />
<path d="M78.4617 12.7109
L78.4013 12.6504
" />
<path d="M79.5503 11.5013
L80.3365 11.5013
" />
<path d="M80.3365 11.5013
L79.9131 11.9851
" />
<path d="M79.9131 11.9851
L80.0946 11.9851
" />
<path d="M80.0946 11.9851
L80.2155 12.0456
" />
<path d="M80.2155 12.0456
L80.2760 12.1061
" />
<path d="M80.2760 12.1061
L80.3365 12.2270
" />
<path d="M80.3365 12.2270
L80.3365 12.5294
" />
<path d="M80.3365 12.5294
L80.2760 12.6504
" />
<path d="M80.2760 12.6504
L80.2155 12.7109
" />
<path d="M80.2155 12.7109
L80.0946 12.7713
" />
<path d="M80.0946 12.7713
L79.7317 12.7713
" />
<path d="M79.7317 12.7713
L79.6108 12.7109
" />
<path d="M79.6108 12.7109
L79.5503 12.6504
" />
<path d="M80.7598 11.5013
L81.5460 11.5013
" />
<path d="M81.5460 11.5013
L81.1226 11.9851
" />
<path d="M81.1226 11.9851
L81.3041 11.9851
" />
<path d="M81.3041 11.9851
L81.4250 12.0456
" />
<path d="M81.4250 12.0456
L81.4855 12.1061
" />
<path d="M81.4855 12.1061
L81.5460 12.2270
" />
<path d="M81.5460 12.2270
L81.5460 12.5294
" />
<path d="M81.5460 12.5294
L81.4855 12.6504
" />
<path d="M81.4855 12.6504
L81.4250 12.7109
" />
<path d="M81.4250 12.7109
L81.3041 12.7713
" />
<path d="M81.3041 12.7713
L80.9412 12.7713
" />
<path d="M80.9412 12.7713
L80.8203 12.7109
" />
<path d="M80.8203 12.7109
L80.7598 12.6504
" />
<path d="M82.3321 11.5013
L82.4531 11.5013
" />
<path d="M82.4531 11.5013
L82.5740 11.5618
" />
<path d="M82.5740 11.5618
L82.6345 11.6223
" />
<path d="M82.6345 11.6223
L82.6950 11.7432
" />
<path d="M82.6950 11.7432
L82.7555 11.9851
" />
<path d="M82.7555 11.9851
L82.7555 12.2875
" />
<path d="M82.7555 12.2875
L82.6950 12.5294
" />
<path d="M82.6950 12.5294
L82.6345 12.6504
" />
<path d="M82.6345 12.6504
L82.5740 12.7109
" />
<path d="M82.5740 12.7109
L82.4531 12.7713
" />
<path d="M82.4531 12.7713
L82.3321 12.7713
" />
<path d="M82.3321 12.7713
L82.2112 12.7109
" />
<path d="M82.2112 12.7109
L82.1507 12.6504
" />
<path d="M82.1507 12.6504
L82.0902 12.5294
" />
<path d="M82.0902 12.5294
L82.0298 12.2875
" />
<path d="M82.0298 12.2875
L82.0298 11.9851
" />
<path d="M82.0298 11.9851
L82.0902 11.7432
" />
<path d="M82.0902 11.7432
L82.1507 11.6223
" />
<path d="M82.1507 11.6223
L82.2112 11.5618
" />
<path d="M82.2112 11.5618
L82.3321 11.5013
" />
<path d="M83.4812 12.0456
L83.3602 11.9851
" />
<path d="M83.3602 11.9851
L83.2997 11.9247
" />
<path d="M83.2997 11.9247
L83.2393 11.8037
" />
<path d="M83.2393 11.8037
L83.2393 11.7432
" />
<path d="M83.2393 11.7432
L83.2997 11.6223
" />
<path d="M83.2997 11.6223
L83.3602 11.5618
" />
<path d="M83.3602 11.5618
L83.4812 11.5013
" />
<path d="M83.4812 11.5013
L83.7231 11.5013
" />
<path d="M83.7231 11.5013
L83.8440 11.5618
" />
<path d="M83.8440 11.5618
L83.9045 11.6223
" />
<path d="M83.9045 11.6223
L83.9650 11.7432
" />
<path d="M83.9650 11.7432
L83.9650 11.8037
" />
<path d="M83.9650 11.8037
L83.9045 11.9247
" />
<path d="M83.9045 11.9247
L83.8440 11.9851
" />
<path d="M83.8440 11.9851
L83.7231 12.0456
" />
<path d="M83.7231 12.0456
L83.4812 12.0456
" />
<path d="M83.4812 12.0456
L83.3602 12.1061
" />
<path d="M83.3602 12.1061
L83.2997 12.1666
" />
<path d="M83.2997 12.1666
L83.2393 12.2875
" />
<path d="M83.2393 12.2875
L83.2393 12.5294
" />
<path d="M83.2393 12.5294
L83.2997 12.6504
" />
<path d="M83.2997 12.6504
L83.3602 12.7109
" />
<path d="M83.3602 12.7109
L83.4812 12.7713
" />
<path d="M83.4812 12.7713
L83.7231 12.7713
" />
<path d="M83.7231 12.7713
L83.8440 12.7109
" />
<path d="M83.8440 12.7109
L83.9045 12.6504
" />
<path d="M83.9045 12.6504
L83.9650 12.5294
" />
<path d="M83.9650 12.5294
L83.9650 12.2875
" />
<path d="M83.9650 12.2875
L83.9045 12.1666
" />
<path d="M83.9045 12.1666
L83.8440 12.1061
" />
<path d="M83.8440 12.1061
L83.7231 12.0456
" />
<path d="M85.1745 12.7713
L84.4488 12.7713
" />
<path d="M84.8116 12.7713
L84.8116 11.5013
" />
<path d="M84.8116 11.5013
L84.6907 11.6828
" />
<path d="M84.6907 11.6828
L84.5697 11.8037
" />
<path d="M84.5697 11.8037
L84.4488 11.8642
" />
</g></g> 
</svg>
