<?xml version="1.0" standalone="no"?>
 <!DOCTYPE svg PUBLIC "-//W3C//DTD SVG 1.1//EN" 
 "http://www.w3.org/Graphics/SVG/1.1/DTD/svg11.dtd"> 
<svg
  xmlns:svg="http://www.w3.org/2000/svg"
  xmlns="http://www.w3.org/2000/svg"
  xmlns:xlink="http://www.w3.org/1999/xlink"
  version="1.1"
  width="159.4104mm" height="8.5598mm" viewBox="0.0000 0.0000 159.4104 8.5598">
<title>SVG Image created as working.svg date 2023/08/28 13:05:28 </title>
  <desc>Image generated by Eeschema-SVG </desc>
<g style="fill:#000000; fill-opacity:1.0000;stroke:#000000; stroke-opacity:1.0000;
stroke-linecap:round; stroke-linejoin:round;"
 transform="translate(0 0) scale(1 1)">
</g>
<g style="fill:#840000; fill-opacity:0.0; 
stroke:#840000; stroke-width:0.0000; stroke-opacity:1; 
stroke-linecap:round; stroke-linejoin:round;">
</g>
<g style="fill:#840084; fill-opacity:0.0; 
stroke:#840084; stroke-width:0.0000; stroke-opacity:1; 
stroke-linecap:round; stroke-linejoin:round;">
</g>
<g style="fill:#840000; fill-opacity:0.0; 
stroke:#840000; stroke-width:0.0000; stroke-opacity:1; 
stroke-linecap:round; stroke-linejoin:round;">
</g>
<g style="fill:#840084; fill-opacity:0.0; 
stroke:#840084; stroke-width:0.0000; stroke-opacity:1; 
stroke-linecap:round; stroke-linejoin:round;">
</g>
<g style="fill:#006464; fill-opacity:0.0; 
stroke:#006464; stroke-width:0.0000; stroke-opacity:1; 
stroke-linecap:round; stroke-linejoin:round;">
</g>
<g style="fill:#006464; fill-opacity:0.0; 
stroke:#006464; stroke-width:0.1588; stroke-opacity:1; 
stroke-linecap:round; stroke-linejoin:round;">
<text x="91.7628" y="2.3689"
textLength="2.5810" font-size="1.6933" lengthAdjust="spacingAndGlyphs"
text-anchor="middle" opacity="0">K?</text>
<g class="stroked-text"><desc>K?</desc>
<path d="M90.8858 2.3131
L90.8858 1.0431
" />
<path d="M91.6115 2.3131
L91.0673 1.5874
" />
<path d="M91.6115 1.0431
L90.8858 1.7688
" />
<path d="M92.3373 2.1922
L92.3977 2.2527
" />
<path d="M92.3977 2.2527
L92.3373 2.3131
" />
<path d="M92.3373 2.3131
L92.2768 2.2527
" />
<path d="M92.2768 2.2527
L92.3373 2.1922
" />
<path d="M92.3373 2.1922
L92.3373 2.3131
" />
<path d="M92.0954 1.1036
L92.2163 1.0431
" />
<path d="M92.2163 1.0431
L92.5187 1.0431
" />
<path d="M92.5187 1.0431
L92.6396 1.1036
" />
<path d="M92.6396 1.1036
L92.7001 1.2246
" />
<path d="M92.7001 1.2246
L92.7001 1.3455
" />
<path d="M92.7001 1.3455
L92.6396 1.4665
" />
<path d="M92.6396 1.4665
L92.5792 1.5269
" />
<path d="M92.5792 1.5269
L92.4582 1.5874
" />
<path d="M92.4582 1.5874
L92.3977 1.6479
" />
<path d="M92.3977 1.6479
L92.3373 1.7688
" />
<path d="M92.3373 1.7688
L92.3373 1.8293
" />
</g><text x="95.2703" y="4.9089"
textLength="9.5961" font-size="1.6933" lengthAdjust="spacingAndGlyphs"
text-anchor="middle" opacity="0">RT314A12</text>
<g class="stroked-text"><desc>RT314A12</desc>
<path d="M91.6115 4.8531
L91.1882 4.2484
" />
<path d="M90.8858 4.8531
L90.8858 3.5831
" />
<path d="M90.8858 3.5831
L91.3696 3.5831
" />
<path d="M91.3696 3.5831
L91.4906 3.6436
" />
<path d="M91.4906 3.6436
L91.5511 3.7041
" />
<path d="M91.5511 3.7041
L91.6115 3.8250
" />
<path d="M91.6115 3.8250
L91.6115 4.0065
" />
<path d="M91.6115 4.0065
L91.5511 4.1274
" />
<path d="M91.5511 4.1274
L91.4906 4.1879
" />
<path d="M91.4906 4.1879
L91.3696 4.2484
" />
<path d="M91.3696 4.2484
L90.8858 4.2484
" />
<path d="M91.9744 3.5831
L92.7001 3.5831
" />
<path d="M92.3373 4.8531
L92.3373 3.5831
" />
<path d="M93.0025 3.5831
L93.7887 3.5831
" />
<path d="M93.7887 3.5831
L93.3653 4.0669
" />
<path d="M93.3653 4.0669
L93.5468 4.0669
" />
<path d="M93.5468 4.0669
L93.6677 4.1274
" />
<path d="M93.6677 4.1274
L93.7282 4.1879
" />
<path d="M93.7282 4.1879
L93.7887 4.3088
" />
<path d="M93.7887 4.3088
L93.7887 4.6112
" />
<path d="M93.7887 4.6112
L93.7282 4.7322
" />
<path d="M93.7282 4.7322
L93.6677 4.7927
" />
<path d="M93.6677 4.7927
L93.5468 4.8531
" />
<path d="M93.5468 4.8531
L93.1839 4.8531
" />
<path d="M93.1839 4.8531
L93.0630 4.7927
" />
<path d="M93.0630 4.7927
L93.0025 4.7322
" />
<path d="M94.9982 4.8531
L94.2725 4.8531
" />
<path d="M94.6353 4.8531
L94.6353 3.5831
" />
<path d="M94.6353 3.5831
L94.5144 3.7646
" />
<path d="M94.5144 3.7646
L94.3934 3.8855
" />
<path d="M94.3934 3.8855
L94.2725 3.9460
" />
<path d="M96.0867 4.0065
L96.0867 4.8531
" />
<path d="M95.7843 3.5227
L95.4820 4.4298
" />
<path d="M95.4820 4.4298
L96.2681 4.4298
" />
<path d="M96.6915 4.4903
L97.2962 4.4903
" />
<path d="M96.5705 4.8531
L96.9938 3.5831
" />
<path d="M96.9938 3.5831
L97.4172 4.8531
" />
<path d="M98.5058 4.8531
L97.7801 4.8531
" />
<path d="M98.1429 4.8531
L98.1429 3.5831
" />
<path d="M98.1429 3.5831
L98.0220 3.7646
" />
<path d="M98.0220 3.7646
L97.9010 3.8855
" />
<path d="M97.9010 3.8855
L97.7801 3.9460
" />
<path d="M98.9896 3.7041
L99.0500 3.6436
" />
<path d="M99.0500 3.6436
L99.1710 3.5831
" />
<path d="M99.1710 3.5831
L99.4734 3.5831
" />
<path d="M99.4734 3.5831
L99.5943 3.6436
" />
<path d="M99.5943 3.6436
L99.6548 3.7041
" />
<path d="M99.6548 3.7041
L99.7153 3.8250
" />
<path d="M99.7153 3.8250
L99.7153 3.9460
" />
<path d="M99.7153 3.9460
L99.6548 4.1274
" />
<path d="M99.6548 4.1274
L98.9291 4.8531
" />
<path d="M98.9291 4.8531
L99.7153 4.8531
" />
</g></g>
<g style="fill:#840084; fill-opacity:0.0; 
stroke:#840084; stroke-width:0.1588; stroke-opacity:1; 
stroke-linecap:round; stroke-linejoin:round;">
<text x="118.4123" y="7.4489"
textLength="55.4367" font-size="1.6933" lengthAdjust="spacingAndGlyphs"
text-anchor="middle" opacity="0">Relay_THT:Relay_SPDT_Schrack-RT1-16A-FormC_RM5mm</text>
<g class="stroked-text"><desc>Relay_THT:Relay_SPDT_Schrack-RT1-16A-FormC_RM5mm</desc>
<path d="M91.8332 7.3931
L91.4099 6.7884
" />
<path d="M91.1075 7.3931
L91.1075 6.1231
" />
<path d="M91.1075 6.1231
L91.5913 6.1231
" />
<path d="M91.5913 6.1231
L91.7123 6.1836
" />
<path d="M91.7123 6.1836
L91.7728 6.2441
" />
<path d="M91.7728 6.2441
L91.8332 6.3650
" />
<path d="M91.8332 6.3650
L91.8332 6.5465
" />
<path d="M91.8332 6.5465
L91.7728 6.6674
" />
<path d="M91.7728 6.6674
L91.7123 6.7279
" />
<path d="M91.7123 6.7279
L91.5913 6.7884
" />
<path d="M91.5913 6.7884
L91.1075 6.7884
" />
<path d="M92.8613 7.3327
L92.7404 7.3931
" />
<path d="M92.7404 7.3931
L92.4985 7.3931
" />
<path d="M92.4985 7.3931
L92.3775 7.3327
" />
<path d="M92.3775 7.3327
L92.3171 7.2117
" />
<path d="M92.3171 7.2117
L92.3171 6.7279
" />
<path d="M92.3171 6.7279
L92.3775 6.6069
" />
<path d="M92.3775 6.6069
L92.4985 6.5465
" />
<path d="M92.4985 6.5465
L92.7404 6.5465
" />
<path d="M92.7404 6.5465
L92.8613 6.6069
" />
<path d="M92.8613 6.6069
L92.9218 6.7279
" />
<path d="M92.9218 6.7279
L92.9218 6.8488
" />
<path d="M92.9218 6.8488
L92.3171 6.9698
" />
<path d="M93.6476 7.3931
L93.5266 7.3327
" />
<path d="M93.5266 7.3327
L93.4661 7.2117
" />
<path d="M93.4661 7.2117
L93.4661 6.1231
" />
<path d="M94.6756 7.3931
L94.6756 6.7279
" />
<path d="M94.6756 6.7279
L94.6151 6.6069
" />
<path d="M94.6151 6.6069
L94.4942 6.5465
" />
<path d="M94.4942 6.5465
L94.2523 6.5465
" />
<path d="M94.2523 6.5465
L94.1313 6.6069
" />
<path d="M94.6756 7.3327
L94.5547 7.3931
" />
<path d="M94.5547 7.3931
L94.2523 7.3931
" />
<path d="M94.2523 7.3931
L94.1313 7.3327
" />
<path d="M94.1313 7.3327
L94.0709 7.2117
" />
<path d="M94.0709 7.2117
L94.0709 7.0907
" />
<path d="M94.0709 7.0907
L94.1313 6.9698
" />
<path d="M94.1313 6.9698
L94.2523 6.9093
" />
<path d="M94.2523 6.9093
L94.5547 6.9093
" />
<path d="M94.5547 6.9093
L94.6756 6.8488
" />
<path d="M95.1594 6.5465
L95.4618 7.3931
" />
<path d="M95.7641 6.5465
L95.4618 7.3931
" />
<path d="M95.4618 7.3931
L95.3408 7.6955
" />
<path d="M95.3408 7.6955
L95.2803 7.7560
" />
<path d="M95.2803 7.7560
L95.1594 7.8165
" />
<path d="M95.9456 7.5141
L96.9132 7.5141
" />
<path d="M97.0341 6.1231
L97.7598 6.1231
" />
<path d="M97.3970 7.3931
L97.3970 6.1231
" />
<path d="M98.1831 7.3931
L98.1831 6.1231
" />
<path d="M98.1831 6.7279
L98.9088 6.7279
" />
<path d="M98.9088 7.3931
L98.9088 6.1231
" />
<path d="M99.3322 6.1231
L100.0579 6.1231
" />
<path d="M99.6951 7.3931
L99.6951 6.1231
" />
<path d="M100.4812 7.2722
L100.5417 7.3327
" />
<path d="M100.5417 7.3327
L100.4812 7.3931
" />
<path d="M100.4812 7.3931
L100.4208 7.3327
" />
<path d="M100.4208 7.3327
L100.4812 7.2722
" />
<path d="M100.4812 7.2722
L100.4812 7.3931
" />
<path d="M100.4812 6.6069
L100.5417 6.6674
" />
<path d="M100.5417 6.6674
L100.4812 6.7279
" />
<path d="M100.4812 6.7279
L100.4208 6.6674
" />
<path d="M100.4208 6.6674
L100.4812 6.6069
" />
<path d="M100.4812 6.6069
L100.4812 6.7279
" />
<path d="M101.8117 7.3931
L101.3884 6.7884
" />
<path d="M101.0860 7.3931
L101.0860 6.1231
" />
<path d="M101.0860 6.1231
L101.5698 6.1231
" />
<path d="M101.5698 6.1231
L101.6908 6.1836
" />
<path d="M101.6908 6.1836
L101.7513 6.2441
" />
<path d="M101.7513 6.2441
L101.8117 6.3650
" />
<path d="M101.8117 6.3650
L101.8117 6.5465
" />
<path d="M101.8117 6.5465
L101.7513 6.6674
" />
<path d="M101.7513 6.6674
L101.6908 6.7279
" />
<path d="M101.6908 6.7279
L101.5698 6.7884
" />
<path d="M101.5698 6.7884
L101.0860 6.7884
" />
<path d="M102.8398 7.3327
L102.7189 7.3931
" />
<path d="M102.7189 7.3931
L102.4770 7.3931
" />
<path d="M102.4770 7.3931
L102.3560 7.3327
" />
<path d="M102.3560 7.3327
L102.2956 7.2117
" />
<path d="M102.2956 7.2117
L102.2956 6.7279
" />
<path d="M102.2956 6.7279
L102.3560 6.6069
" />
<path d="M102.3560 6.6069
L102.4770 6.5465
" />
<path d="M102.4770 6.5465
L102.7189 6.5465
" />
<path d="M102.7189 6.5465
L102.8398 6.6069
" />
<path d="M102.8398 6.6069
L102.9003 6.7279
" />
<path d="M102.9003 6.7279
L102.9003 6.8488
" />
<path d="M102.9003 6.8488
L102.2956 6.9698
" />
<path d="M103.6261 7.3931
L103.5051 7.3327
" />
<path d="M103.5051 7.3327
L103.4446 7.2117
" />
<path d="M103.4446 7.2117
L103.4446 6.1231
" />
<path d="M104.6541 7.3931
L104.6541 6.7279
" />
<path d="M104.6541 6.7279
L104.5936 6.6069
" />
<path d="M104.5936 6.6069
L104.4727 6.5465
" />
<path d="M104.4727 6.5465
L104.2308 6.5465
" />
<path d="M104.2308 6.5465
L104.1098 6.6069
" />
<path d="M104.6541 7.3327
L104.5332 7.3931
" />
<path d="M104.5332 7.3931
L104.2308 7.3931
" />
<path d="M104.2308 7.3931
L104.1098 7.3327
" />
<path d="M104.1098 7.3327
L104.0494 7.2117
" />
<path d="M104.0494 7.2117
L104.0494 7.0907
" />
<path d="M104.0494 7.0907
L104.1098 6.9698
" />
<path d="M104.1098 6.9698
L104.2308 6.9093
" />
<path d="M104.2308 6.9093
L104.5332 6.9093
" />
<path d="M104.5332 6.9093
L104.6541 6.8488
" />
<path d="M105.1379 6.5465
L105.4403 7.3931
" />
<path d="M105.7426 6.5465
L105.4403 7.3931
" />
<path d="M105.4403 7.3931
L105.3193 7.6955
" />
<path d="M105.3193 7.6955
L105.2588 7.7560
" />
<path d="M105.2588 7.7560
L105.1379 7.8165
" />
<path d="M105.9241 7.5141
L106.8917 7.5141
" />
<path d="M107.1336 7.3327
L107.3150 7.3931
" />
<path d="M107.3150 7.3931
L107.6174 7.3931
" />
<path d="M107.6174 7.3931
L107.7383 7.3327
" />
<path d="M107.7383 7.3327
L107.7988 7.2722
" />
<path d="M107.7988 7.2722
L107.8593 7.1512
" />
<path d="M107.8593 7.1512
L107.8593 7.0303
" />
<path d="M107.8593 7.0303
L107.7988 6.9093
" />
<path d="M107.7988 6.9093
L107.7383 6.8488
" />
<path d="M107.7383 6.8488
L107.6174 6.7884
" />
<path d="M107.6174 6.7884
L107.3755 6.7279
" />
<path d="M107.3755 6.7279
L107.2545 6.6674
" />
<path d="M107.2545 6.6674
L107.1940 6.6069
" />
<path d="M107.1940 6.6069
L107.1336 6.4860
" />
<path d="M107.1336 6.4860
L107.1336 6.3650
" />
<path d="M107.1336 6.3650
L107.1940 6.2441
" />
<path d="M107.1940 6.2441
L107.2545 6.1836
" />
<path d="M107.2545 6.1836
L107.3755 6.1231
" />
<path d="M107.3755 6.1231
L107.6778 6.1231
" />
<path d="M107.6778 6.1231
L107.8593 6.1836
" />
<path d="M108.4035 7.3931
L108.4035 6.1231
" />
<path d="M108.4035 6.1231
L108.8873 6.1231
" />
<path d="M108.8873 6.1231
L109.0083 6.1836
" />
<path d="M109.0083 6.1836
L109.0688 6.2441
" />
<path d="M109.0688 6.2441
L109.1292 6.3650
" />
<path d="M109.1292 6.3650
L109.1292 6.5465
" />
<path d="M109.1292 6.5465
L109.0688 6.6674
" />
<path d="M109.0688 6.6674
L109.0083 6.7279
" />
<path d="M109.0083 6.7279
L108.8873 6.7884
" />
<path d="M108.8873 6.7884
L108.4035 6.7884
" />
<path d="M109.6735 7.3931
L109.6735 6.1231
" />
<path d="M109.6735 6.1231
L109.9759 6.1231
" />
<path d="M109.9759 6.1231
L110.1573 6.1836
" />
<path d="M110.1573 6.1836
L110.2783 6.3046
" />
<path d="M110.2783 6.3046
L110.3388 6.4255
" />
<path d="M110.3388 6.4255
L110.3992 6.6674
" />
<path d="M110.3992 6.6674
L110.3992 6.8488
" />
<path d="M110.3992 6.8488
L110.3388 7.0907
" />
<path d="M110.3388 7.0907
L110.2783 7.2117
" />
<path d="M110.2783 7.2117
L110.1573 7.3327
" />
<path d="M110.1573 7.3327
L109.9759 7.3931
" />
<path d="M109.9759 7.3931
L109.6735 7.3931
" />
<path d="M110.7621 6.1231
L111.4878 6.1231
" />
<path d="M111.1250 7.3931
L111.1250 6.1231
" />
<path d="M111.6088 7.5141
L112.5764 7.5141
" />
<path d="M112.8183 7.3327
L112.9997 7.3931
" />
<path d="M112.9997 7.3931
L113.3021 7.3931
" />
<path d="M113.3021 7.3931
L113.4230 7.3327
" />
<path d="M113.4230 7.3327
L113.4835 7.2722
" />
<path d="M113.4835 7.2722
L113.5440 7.1512
" />
<path d="M113.5440 7.1512
L113.5440 7.0303
" />
<path d="M113.5440 7.0303
L113.4835 6.9093
" />
<path d="M113.4835 6.9093
L113.4230 6.8488
" />
<path d="M113.4230 6.8488
L113.3021 6.7884
" />
<path d="M113.3021 6.7884
L113.0602 6.7279
" />
<path d="M113.0602 6.7279
L112.9392 6.6674
" />
<path d="M112.9392 6.6674
L112.8787 6.6069
" />
<path d="M112.8787 6.6069
L112.8183 6.4860
" />
<path d="M112.8183 6.4860
L112.8183 6.3650
" />
<path d="M112.8183 6.3650
L112.8787 6.2441
" />
<path d="M112.8787 6.2441
L112.9392 6.1836
" />
<path d="M112.9392 6.1836
L113.0602 6.1231
" />
<path d="M113.0602 6.1231
L113.3625 6.1231
" />
<path d="M113.3625 6.1231
L113.5440 6.1836
" />
<path d="M114.6325 7.3327
L114.5116 7.3931
" />
<path d="M114.5116 7.3931
L114.2697 7.3931
" />
<path d="M114.2697 7.3931
L114.1487 7.3327
" />
<path d="M114.1487 7.3327
L114.0882 7.2722
" />
<path d="M114.0882 7.2722
L114.0278 7.1512
" />
<path d="M114.0278 7.1512
L114.0278 6.7884
" />
<path d="M114.0278 6.7884
L114.0882 6.6674
" />
<path d="M114.0882 6.6674
L114.1487 6.6069
" />
<path d="M114.1487 6.6069
L114.2697 6.5465
" />
<path d="M114.2697 6.5465
L114.5116 6.5465
" />
<path d="M114.5116 6.5465
L114.6325 6.6069
" />
<path d="M115.1768 7.3931
L115.1768 6.1231
" />
<path d="M115.7211 7.3931
L115.7211 6.7279
" />
<path d="M115.7211 6.7279
L115.6606 6.6069
" />
<path d="M115.6606 6.6069
L115.5397 6.5465
" />
<path d="M115.5397 6.5465
L115.3583 6.5465
" />
<path d="M115.3583 6.5465
L115.2373 6.6069
" />
<path d="M115.2373 6.6069
L115.1768 6.6674
" />
<path d="M116.3258 7.3931
L116.3258 6.5465
" />
<path d="M116.3258 6.7884
L116.3863 6.6674
" />
<path d="M116.3863 6.6674
L116.4468 6.6069
" />
<path d="M116.4468 6.6069
L116.5677 6.5465
" />
<path d="M116.5677 6.5465
L116.6887 6.5465
" />
<path d="M117.6563 7.3931
L117.6563 6.7279
" />
<path d="M117.6563 6.7279
L117.5958 6.6069
" />
<path d="M117.5958 6.6069
L117.4749 6.5465
" />
<path d="M117.4749 6.5465
L117.2330 6.5465
" />
<path d="M117.2330 6.5465
L117.1120 6.6069
" />
<path d="M117.6563 7.3327
L117.5354 7.3931
" />
<path d="M117.5354 7.3931
L117.2330 7.3931
" />
<path d="M117.2330 7.3931
L117.1120 7.3327
" />
<path d="M117.1120 7.3327
L117.0516 7.2117
" />
<path d="M117.0516 7.2117
L117.0516 7.0907
" />
<path d="M117.0516 7.0907
L117.1120 6.9698
" />
<path d="M117.1120 6.9698
L117.2330 6.9093
" />
<path d="M117.2330 6.9093
L117.5354 6.9093
" />
<path d="M117.5354 6.9093
L117.6563 6.8488
" />
<path d="M118.8053 7.3327
L118.6844 7.3931
" />
<path d="M118.6844 7.3931
L118.4425 7.3931
" />
<path d="M118.4425 7.3931
L118.3215 7.3327
" />
<path d="M118.3215 7.3327
L118.2610 7.2722
" />
<path d="M118.2610 7.2722
L118.2006 7.1512
" />
<path d="M118.2006 7.1512
L118.2006 6.7884
" />
<path d="M118.2006 6.7884
L118.2610 6.6674
" />
<path d="M118.2610 6.6674
L118.3215 6.6069
" />
<path d="M118.3215 6.6069
L118.4425 6.5465
" />
<path d="M118.4425 6.5465
L118.6844 6.5465
" />
<path d="M118.6844 6.5465
L118.8053 6.6069
" />
<path d="M119.3496 7.3931
L119.3496 6.1231
" />
<path d="M119.4706 6.9093
L119.8334 7.3931
" />
<path d="M119.8334 6.5465
L119.3496 7.0303
" />
<path d="M120.3777 6.9093
L121.3454 6.9093
" />
<path d="M122.6758 7.3931
L122.2525 6.7884
" />
<path d="M121.9501 7.3931
L121.9501 6.1231
" />
<path d="M121.9501 6.1231
L122.4339 6.1231
" />
<path d="M122.4339 6.1231
L122.5549 6.1836
" />
<path d="M122.5549 6.1836
L122.6154 6.2441
" />
<path d="M122.6154 6.2441
L122.6758 6.3650
" />
<path d="M122.6758 6.3650
L122.6758 6.5465
" />
<path d="M122.6758 6.5465
L122.6154 6.6674
" />
<path d="M122.6154 6.6674
L122.5549 6.7279
" />
<path d="M122.5549 6.7279
L122.4339 6.7884
" />
<path d="M122.4339 6.7884
L121.9501 6.7884
" />
<path d="M123.0387 6.1231
L123.7644 6.1231
" />
<path d="M123.4016 7.3931
L123.4016 6.1231
" />
<path d="M124.8530 7.3931
L124.1273 7.3931
" />
<path d="M124.4901 7.3931
L124.4901 6.1231
" />
<path d="M124.4901 6.1231
L124.3692 6.3046
" />
<path d="M124.3692 6.3046
L124.2482 6.4255
" />
<path d="M124.2482 6.4255
L124.1273 6.4860
" />
<path d="M125.3972 6.9093
L126.3649 6.9093
" />
<path d="M127.6349 7.3931
L126.9092 7.3931
" />
<path d="M127.2720 7.3931
L127.2720 6.1231
" />
<path d="M127.2720 6.1231
L127.1511 6.3046
" />
<path d="M127.1511 6.3046
L127.0301 6.4255
" />
<path d="M127.0301 6.4255
L126.9092 6.4860
" />
<path d="M128.7234 6.1231
L128.4815 6.1231
" />
<path d="M128.4815 6.1231
L128.3606 6.1836
" />
<path d="M128.3606 6.1836
L128.3001 6.2441
" />
<path d="M128.3001 6.2441
L128.1791 6.4255
" />
<path d="M128.1791 6.4255
L128.1187 6.6674
" />
<path d="M128.1187 6.6674
L128.1187 7.1512
" />
<path d="M128.1187 7.1512
L128.1791 7.2722
" />
<path d="M128.1791 7.2722
L128.2396 7.3327
" />
<path d="M128.2396 7.3327
L128.3606 7.3931
" />
<path d="M128.3606 7.3931
L128.6025 7.3931
" />
<path d="M128.6025 7.3931
L128.7234 7.3327
" />
<path d="M128.7234 7.3327
L128.7839 7.2722
" />
<path d="M128.7839 7.2722
L128.8444 7.1512
" />
<path d="M128.8444 7.1512
L128.8444 6.8488
" />
<path d="M128.8444 6.8488
L128.7839 6.7279
" />
<path d="M128.7839 6.7279
L128.7234 6.6674
" />
<path d="M128.7234 6.6674
L128.6025 6.6069
" />
<path d="M128.6025 6.6069
L128.3606 6.6069
" />
<path d="M128.3606 6.6069
L128.2396 6.6674
" />
<path d="M128.2396 6.6674
L128.1791 6.7279
" />
<path d="M128.1791 6.7279
L128.1187 6.8488
" />
<path d="M129.3282 7.0303
L129.9329 7.0303
" />
<path d="M129.2072 7.3931
L129.6305 6.1231
" />
<path d="M129.6305 6.1231
L130.0539 7.3931
" />
<path d="M130.4772 6.9093
L131.4449 6.9093
" />
<path d="M132.4730 6.7279
L132.0496 6.7279
" />
<path d="M132.0496 7.3931
L132.0496 6.1231
" />
<path d="M132.0496 6.1231
L132.6544 6.1231
" />
<path d="M133.3197 7.3931
L133.1987 7.3327
" />
<path d="M133.1987 7.3327
L133.1382 7.2722
" />
<path d="M133.1382 7.2722
L133.0778 7.1512
" />
<path d="M133.0778 7.1512
L133.0778 6.7884
" />
<path d="M133.0778 6.7884
L133.1382 6.6674
" />
<path d="M133.1382 6.6674
L133.1987 6.6069
" />
<path d="M133.1987 6.6069
L133.3197 6.5465
" />
<path d="M133.3197 6.5465
L133.5011 6.5465
" />
<path d="M133.5011 6.5465
L133.6220 6.6069
" />
<path d="M133.6220 6.6069
L133.6825 6.6674
" />
<path d="M133.6825 6.6674
L133.7430 6.7884
" />
<path d="M133.7430 6.7884
L133.7430 7.1512
" />
<path d="M133.7430 7.1512
L133.6825 7.2722
" />
<path d="M133.6825 7.2722
L133.6220 7.3327
" />
<path d="M133.6220 7.3327
L133.5011 7.3931
" />
<path d="M133.5011 7.3931
L133.3197 7.3931
" />
<path d="M134.2872 7.3931
L134.2872 6.5465
" />
<path d="M134.2872 6.7884
L134.3477 6.6674
" />
<path d="M134.3477 6.6674
L134.4082 6.6069
" />
<path d="M134.4082 6.6069
L134.5291 6.5465
" />
<path d="M134.5291 6.5465
L134.6501 6.5465
" />
<path d="M135.0734 7.3931
L135.0734 6.5465
" />
<path d="M135.0734 6.6674
L135.1339 6.6069
" />
<path d="M135.1339 6.6069
L135.2549 6.5465
" />
<path d="M135.2549 6.5465
L135.4363 6.5465
" />
<path d="M135.4363 6.5465
L135.5572 6.6069
" />
<path d="M135.5572 6.6069
L135.6177 6.7279
" />
<path d="M135.6177 6.7279
L135.6177 7.3931
" />
<path d="M135.6177 6.7279
L135.6782 6.6069
" />
<path d="M135.6782 6.6069
L135.7991 6.5465
" />
<path d="M135.7991 6.5465
L135.9806 6.5465
" />
<path d="M135.9806 6.5465
L136.1015 6.6069
" />
<path d="M136.1015 6.6069
L136.1620 6.7279
" />
<path d="M136.1620 6.7279
L136.1620 7.3931
" />
<path d="M137.4924 7.2722
L137.4320 7.3327
" />
<path d="M137.4320 7.3327
L137.2505 7.3931
" />
<path d="M137.2505 7.3931
L137.1296 7.3931
" />
<path d="M137.1296 7.3931
L136.9482 7.3327
" />
<path d="M136.9482 7.3327
L136.8272 7.2117
" />
<path d="M136.8272 7.2117
L136.7667 7.0907
" />
<path d="M136.7667 7.0907
L136.7063 6.8488
" />
<path d="M136.7063 6.8488
L136.7063 6.6674
" />
<path d="M136.7063 6.6674
L136.7667 6.4255
" />
<path d="M136.7667 6.4255
L136.8272 6.3046
" />
<path d="M136.8272 6.3046
L136.9482 6.1836
" />
<path d="M136.9482 6.1836
L137.1296 6.1231
" />
<path d="M137.1296 6.1231
L137.2505 6.1231
" />
<path d="M137.2505 6.1231
L137.4320 6.1836
" />
<path d="M137.4320 6.1836
L137.4924 6.2441
" />
<path d="M137.7344 7.5141
L138.7020 7.5141
" />
<path d="M139.7300 7.3931
L139.3067 6.7884
" />
<path d="M139.0043 7.3931
L139.0043 6.1231
" />
<path d="M139.0043 6.1231
L139.4881 6.1231
" />
<path d="M139.4881 6.1231
L139.6091 6.1836
" />
<path d="M139.6091 6.1836
L139.6696 6.2441
" />
<path d="M139.6696 6.2441
L139.7300 6.3650
" />
<path d="M139.7300 6.3650
L139.7300 6.5465
" />
<path d="M139.7300 6.5465
L139.6696 6.6674
" />
<path d="M139.6696 6.6674
L139.6091 6.7279
" />
<path d="M139.6091 6.7279
L139.4881 6.7884
" />
<path d="M139.4881 6.7884
L139.0043 6.7884
" />
<path d="M140.2743 7.3931
L140.2743 6.1231
" />
<path d="M140.2743 6.1231
L140.6977 7.0303
" />
<path d="M140.6977 7.0303
L141.1210 6.1231
" />
<path d="M141.1210 6.1231
L141.1210 7.3931
" />
<path d="M142.3305 6.1231
L141.7257 6.1231
" />
<path d="M141.7257 6.1231
L141.6653 6.7279
" />
<path d="M141.6653 6.7279
L141.7257 6.6674
" />
<path d="M141.7257 6.6674
L141.8467 6.6069
" />
<path d="M141.8467 6.6069
L142.1491 6.6069
" />
<path d="M142.1491 6.6069
L142.2700 6.6674
" />
<path d="M142.2700 6.6674
L142.3305 6.7279
" />
<path d="M142.3305 6.7279
L142.3910 6.8488
" />
<path d="M142.3910 6.8488
L142.3910 7.1512
" />
<path d="M142.3910 7.1512
L142.3305 7.2722
" />
<path d="M142.3305 7.2722
L142.2700 7.3327
" />
<path d="M142.2700 7.3327
L142.1491 7.3931
" />
<path d="M142.1491 7.3931
L141.8467 7.3931
" />
<path d="M141.8467 7.3931
L141.7257 7.3327
" />
<path d="M141.7257 7.3327
L141.6653 7.2722
" />
<path d="M142.9352 7.3931
L142.9352 6.5465
" />
<path d="M142.9352 6.6674
L142.9957 6.6069
" />
<path d="M142.9957 6.6069
L143.1167 6.5465
" />
<path d="M143.1167 6.5465
L143.2981 6.5465
" />
<path d="M143.2981 6.5465
L143.4190 6.6069
" />
<path d="M143.4190 6.6069
L143.4795 6.7279
" />
<path d="M143.4795 6.7279
L143.4795 7.3931
" />
<path d="M143.4795 6.7279
L143.5400 6.6069
" />
<path d="M143.5400 6.6069
L143.6609 6.5465
" />
<path d="M143.6609 6.5465
L143.8424 6.5465
" />
<path d="M143.8424 6.5465
L143.9633 6.6069
" />
<path d="M143.9633 6.6069
L144.0238 6.7279
" />
<path d="M144.0238 6.7279
L144.0238 7.3931
" />
<path d="M144.6285 7.3931
L144.6285 6.5465
" />
<path d="M144.6285 6.6674
L144.6890 6.6069
" />
<path d="M144.6890 6.6069
L144.8100 6.5465
" />
<path d="M144.8100 6.5465
L144.9914 6.5465
" />
<path d="M144.9914 6.5465
L145.1123 6.6069
" />
<path d="M145.1123 6.6069
L145.1728 6.7279
" />
<path d="M145.1728 6.7279
L145.1728 7.3931
" />
<path d="M145.1728 6.7279
L145.2333 6.6069
" />
<path d="M145.2333 6.6069
L145.3542 6.5465
" />
<path d="M145.3542 6.5465
L145.5357 6.5465
" />
<path d="M145.5357 6.5465
L145.6566 6.6069
" />
<path d="M145.6566 6.6069
L145.7171 6.7279
" />
<path d="M145.7171 6.7279
L145.7171 7.3931
" />
</g><text x="79.0423" y="6.1789"
textLength="131.5155" font-size="1.6933" lengthAdjust="spacingAndGlyphs"
text-anchor="middle" opacity="0">https://www.te.com/commerce/DocumentDelivery/DDEController?Action=srchrtrv&amp;DocNm=RT1_bistable&amp;DocType=DS&amp;DocLang=English</text>
<g class="stroked-text"><desc>https://www.te.com/commerce/DocumentDelivery/DDEController?Action=srchrtrv&amp;DocNm=RT1_bistable&amp;DocType=DS&amp;DocLang=English</desc>
<path d="M13.6981 6.1231
L13.6981 4.8531
" />
<path d="M14.2424 6.1231
L14.2424 5.4579
" />
<path d="M14.2424 5.4579
L14.1819 5.3369
" />
<path d="M14.1819 5.3369
L14.0610 5.2765
" />
<path d="M14.0610 5.2765
L13.8796 5.2765
" />
<path d="M13.8796 5.2765
L13.7586 5.3369
" />
<path d="M13.7586 5.3369
L13.6981 5.3974
" />
<path d="M14.6657 5.2765
L15.1495 5.2765
" />
<path d="M14.8471 4.8531
L14.8471 5.9417
" />
<path d="M14.8471 5.9417
L14.9076 6.0627
" />
<path d="M14.9076 6.0627
L15.0286 6.1231
" />
<path d="M15.0286 6.1231
L15.1495 6.1231
" />
<path d="M15.3914 5.2765
L15.8752 5.2765
" />
<path d="M15.5728 4.8531
L15.5728 5.9417
" />
<path d="M15.5728 5.9417
L15.6333 6.0627
" />
<path d="M15.6333 6.0627
L15.7543 6.1231
" />
<path d="M15.7543 6.1231
L15.8752 6.1231
" />
<path d="M16.2985 5.2765
L16.2985 6.5465
" />
<path d="M16.2985 5.3369
L16.4195 5.2765
" />
<path d="M16.4195 5.2765
L16.6614 5.2765
" />
<path d="M16.6614 5.2765
L16.7823 5.3369
" />
<path d="M16.7823 5.3369
L16.8428 5.3974
" />
<path d="M16.8428 5.3974
L16.9033 5.5184
" />
<path d="M16.9033 5.5184
L16.9033 5.8812
" />
<path d="M16.9033 5.8812
L16.8428 6.0022
" />
<path d="M16.8428 6.0022
L16.7823 6.0627
" />
<path d="M16.7823 6.0627
L16.6614 6.1231
" />
<path d="M16.6614 6.1231
L16.4195 6.1231
" />
<path d="M16.4195 6.1231
L16.2985 6.0627
" />
<path d="M17.3871 6.0627
L17.5080 6.1231
" />
<path d="M17.5080 6.1231
L17.7499 6.1231
" />
<path d="M17.7499 6.1231
L17.8709 6.0627
" />
<path d="M17.8709 6.0627
L17.9313 5.9417
" />
<path d="M17.9313 5.9417
L17.9313 5.8812
" />
<path d="M17.9313 5.8812
L17.8709 5.7603
" />
<path d="M17.8709 5.7603
L17.7499 5.6998
" />
<path d="M17.7499 5.6998
L17.5685 5.6998
" />
<path d="M17.5685 5.6998
L17.4475 5.6393
" />
<path d="M17.4475 5.6393
L17.3871 5.5184
" />
<path d="M17.3871 5.5184
L17.3871 5.4579
" />
<path d="M17.3871 5.4579
L17.4475 5.3369
" />
<path d="M17.4475 5.3369
L17.5685 5.2765
" />
<path d="M17.5685 5.2765
L17.7499 5.2765
" />
<path d="M17.7499 5.2765
L17.8709 5.3369
" />
<path d="M18.4756 6.0022
L18.5361 6.0627
" />
<path d="M18.5361 6.0627
L18.4756 6.1231
" />
<path d="M18.4756 6.1231
L18.4152 6.0627
" />
<path d="M18.4152 6.0627
L18.4756 6.0022
" />
<path d="M18.4756 6.0022
L18.4756 6.1231
" />
<path d="M18.4756 5.3369
L18.5361 5.3974
" />
<path d="M18.5361 5.3974
L18.4756 5.4579
" />
<path d="M18.4756 5.4579
L18.4152 5.3974
" />
<path d="M18.4152 5.3974
L18.4756 5.3369
" />
<path d="M18.4756 5.3369
L18.4756 5.4579
" />
<path d="M19.9876 4.7927
L18.8990 6.4255
" />
<path d="M21.3181 4.7927
L20.2295 6.4255
" />
<path d="M21.6205 5.2765
L21.8624 6.1231
" />
<path d="M21.8624 6.1231
L22.1043 5.5184
" />
<path d="M22.1043 5.5184
L22.3462 6.1231
" />
<path d="M22.3462 6.1231
L22.5881 5.2765
" />
<path d="M22.9510 5.2765
L23.1929 6.1231
" />
<path d="M23.1929 6.1231
L23.4348 5.5184
" />
<path d="M23.4348 5.5184
L23.6767 6.1231
" />
<path d="M23.6767 6.1231
L23.9186 5.2765
" />
<path d="M24.2815 5.2765
L24.5234 6.1231
" />
<path d="M24.5234 6.1231
L24.7653 5.5184
" />
<path d="M24.7653 5.5184
L25.0072 6.1231
" />
<path d="M25.0072 6.1231
L25.2491 5.2765
" />
<path d="M25.7329 6.0022
L25.7934 6.0627
" />
<path d="M25.7934 6.0627
L25.7329 6.1231
" />
<path d="M25.7329 6.1231
L25.6725 6.0627
" />
<path d="M25.6725 6.0627
L25.7329 6.0022
" />
<path d="M25.7329 6.0022
L25.7329 6.1231
" />
<path d="M26.1563 5.2765
L26.6401 5.2765
" />
<path d="M26.3377 4.8531
L26.3377 5.9417
" />
<path d="M26.3377 5.9417
L26.3982 6.0627
" />
<path d="M26.3982 6.0627
L26.5192 6.1231
" />
<path d="M26.5192 6.1231
L26.6401 6.1231
" />
<path d="M27.5472 6.0627
L27.4263 6.1231
" />
<path d="M27.4263 6.1231
L27.1844 6.1231
" />
<path d="M27.1844 6.1231
L27.0634 6.0627
" />
<path d="M27.0634 6.0627
L27.0030 5.9417
" />
<path d="M27.0030 5.9417
L27.0030 5.4579
" />
<path d="M27.0030 5.4579
L27.0634 5.3369
" />
<path d="M27.0634 5.3369
L27.1844 5.2765
" />
<path d="M27.1844 5.2765
L27.4263 5.2765
" />
<path d="M27.4263 5.2765
L27.5472 5.3369
" />
<path d="M27.5472 5.3369
L27.6077 5.4579
" />
<path d="M27.6077 5.4579
L27.6077 5.5788
" />
<path d="M27.6077 5.5788
L27.0030 5.6998
" />
<path d="M28.1520 6.0022
L28.2125 6.0627
" />
<path d="M28.2125 6.0627
L28.1520 6.1231
" />
<path d="M28.1520 6.1231
L28.0916 6.0627
" />
<path d="M28.0916 6.0627
L28.1520 6.0022
" />
<path d="M28.1520 6.0022
L28.1520 6.1231
" />
<path d="M29.3011 6.0627
L29.1802 6.1231
" />
<path d="M29.1802 6.1231
L28.9383 6.1231
" />
<path d="M28.9383 6.1231
L28.8173 6.0627
" />
<path d="M28.8173 6.0627
L28.7568 6.0022
" />
<path d="M28.7568 6.0022
L28.6964 5.8812
" />
<path d="M28.6964 5.8812
L28.6964 5.5184
" />
<path d="M28.6964 5.5184
L28.7568 5.3974
" />
<path d="M28.7568 5.3974
L28.8173 5.3369
" />
<path d="M28.8173 5.3369
L28.9383 5.2765
" />
<path d="M28.9383 5.2765
L29.1802 5.2765
" />
<path d="M29.1802 5.2765
L29.3011 5.3369
" />
<path d="M30.0269 6.1231
L29.9059 6.0627
" />
<path d="M29.9059 6.0627
L29.8454 6.0022
" />
<path d="M29.8454 6.0022
L29.7850 5.8812
" />
<path d="M29.7850 5.8812
L29.7850 5.5184
" />
<path d="M29.7850 5.5184
L29.8454 5.3974
" />
<path d="M29.8454 5.3974
L29.9059 5.3369
" />
<path d="M29.9059 5.3369
L30.0269 5.2765
" />
<path d="M30.0269 5.2765
L30.2083 5.2765
" />
<path d="M30.2083 5.2765
L30.3292 5.3369
" />
<path d="M30.3292 5.3369
L30.3897 5.3974
" />
<path d="M30.3897 5.3974
L30.4502 5.5184
" />
<path d="M30.4502 5.5184
L30.4502 5.8812
" />
<path d="M30.4502 5.8812
L30.3897 6.0022
" />
<path d="M30.3897 6.0022
L30.3292 6.0627
" />
<path d="M30.3292 6.0627
L30.2083 6.1231
" />
<path d="M30.2083 6.1231
L30.0269 6.1231
" />
<path d="M30.9944 6.1231
L30.9944 5.2765
" />
<path d="M30.9944 5.3974
L31.0549 5.3369
" />
<path d="M31.0549 5.3369
L31.1759 5.2765
" />
<path d="M31.1759 5.2765
L31.3573 5.2765
" />
<path d="M31.3573 5.2765
L31.4782 5.3369
" />
<path d="M31.4782 5.3369
L31.5387 5.4579
" />
<path d="M31.5387 5.4579
L31.5387 6.1231
" />
<path d="M31.5387 5.4579
L31.5992 5.3369
" />
<path d="M31.5992 5.3369
L31.7201 5.2765
" />
<path d="M31.7201 5.2765
L31.9016 5.2765
" />
<path d="M31.9016 5.2765
L32.0225 5.3369
" />
<path d="M32.0225 5.3369
L32.0830 5.4579
" />
<path d="M32.0830 5.4579
L32.0830 6.1231
" />
<path d="M33.5949 4.7927
L32.5063 6.4255
" />
<path d="M34.5625 6.0627
L34.4416 6.1231
" />
<path d="M34.4416 6.1231
L34.1997 6.1231
" />
<path d="M34.1997 6.1231
L34.0787 6.0627
" />
<path d="M34.0787 6.0627
L34.0182 6.0022
" />
<path d="M34.0182 6.0022
L33.9578 5.8812
" />
<path d="M33.9578 5.8812
L33.9578 5.5184
" />
<path d="M33.9578 5.5184
L34.0182 5.3974
" />
<path d="M34.0182 5.3974
L34.0787 5.3369
" />
<path d="M34.0787 5.3369
L34.1997 5.2765
" />
<path d="M34.1997 5.2765
L34.4416 5.2765
" />
<path d="M34.4416 5.2765
L34.5625 5.3369
" />
<path d="M35.2883 6.1231
L35.1673 6.0627
" />
<path d="M35.1673 6.0627
L35.1068 6.0022
" />
<path d="M35.1068 6.0022
L35.0464 5.8812
" />
<path d="M35.0464 5.8812
L35.0464 5.5184
" />
<path d="M35.0464 5.5184
L35.1068 5.3974
" />
<path d="M35.1068 5.3974
L35.1673 5.3369
" />
<path d="M35.1673 5.3369
L35.2883 5.2765
" />
<path d="M35.2883 5.2765
L35.4697 5.2765
" />
<path d="M35.4697 5.2765
L35.5906 5.3369
" />
<path d="M35.5906 5.3369
L35.6511 5.3974
" />
<path d="M35.6511 5.3974
L35.7116 5.5184
" />
<path d="M35.7116 5.5184
L35.7116 5.8812
" />
<path d="M35.7116 5.8812
L35.6511 6.0022
" />
<path d="M35.6511 6.0022
L35.5906 6.0627
" />
<path d="M35.5906 6.0627
L35.4697 6.1231
" />
<path d="M35.4697 6.1231
L35.2883 6.1231
" />
<path d="M36.2558 6.1231
L36.2558 5.2765
" />
<path d="M36.2558 5.3974
L36.3163 5.3369
" />
<path d="M36.3163 5.3369
L36.4373 5.2765
" />
<path d="M36.4373 5.2765
L36.6187 5.2765
" />
<path d="M36.6187 5.2765
L36.7396 5.3369
" />
<path d="M36.7396 5.3369
L36.8001 5.4579
" />
<path d="M36.8001 5.4579
L36.8001 6.1231
" />
<path d="M36.8001 5.4579
L36.8606 5.3369
" />
<path d="M36.8606 5.3369
L36.9815 5.2765
" />
<path d="M36.9815 5.2765
L37.1630 5.2765
" />
<path d="M37.1630 5.2765
L37.2839 5.3369
" />
<path d="M37.2839 5.3369
L37.3444 5.4579
" />
<path d="M37.3444 5.4579
L37.3444 6.1231
" />
<path d="M37.9491 6.1231
L37.9491 5.2765
" />
<path d="M37.9491 5.3974
L38.0096 5.3369
" />
<path d="M38.0096 5.3369
L38.1306 5.2765
" />
<path d="M38.1306 5.2765
L38.3120 5.2765
" />
<path d="M38.3120 5.2765
L38.4329 5.3369
" />
<path d="M38.4329 5.3369
L38.4934 5.4579
" />
<path d="M38.4934 5.4579
L38.4934 6.1231
" />
<path d="M38.4934 5.4579
L38.5539 5.3369
" />
<path d="M38.5539 5.3369
L38.6748 5.2765
" />
<path d="M38.6748 5.2765
L38.8563 5.2765
" />
<path d="M38.8563 5.2765
L38.9772 5.3369
" />
<path d="M38.9772 5.3369
L39.0377 5.4579
" />
<path d="M39.0377 5.4579
L39.0377 6.1231
" />
<path d="M40.1262 6.0627
L40.0053 6.1231
" />
<path d="M40.0053 6.1231
L39.7634 6.1231
" />
<path d="M39.7634 6.1231
L39.6424 6.0627
" />
<path d="M39.6424 6.0627
L39.5820 5.9417
" />
<path d="M39.5820 5.9417
L39.5820 5.4579
" />
<path d="M39.5820 5.4579
L39.6424 5.3369
" />
<path d="M39.6424 5.3369
L39.7634 5.2765
" />
<path d="M39.7634 5.2765
L40.0053 5.2765
" />
<path d="M40.0053 5.2765
L40.1262 5.3369
" />
<path d="M40.1262 5.3369
L40.1867 5.4579
" />
<path d="M40.1867 5.4579
L40.1867 5.5788
" />
<path d="M40.1867 5.5788
L39.5820 5.6998
" />
<path d="M40.7310 6.1231
L40.7310 5.2765
" />
<path d="M40.7310 5.5184
L40.7915 5.3974
" />
<path d="M40.7915 5.3974
L40.8520 5.3369
" />
<path d="M40.8520 5.3369
L40.9729 5.2765
" />
<path d="M40.9729 5.2765
L41.0939 5.2765
" />
<path d="M42.0615 6.0627
L41.9406 6.1231
" />
<path d="M41.9406 6.1231
L41.6987 6.1231
" />
<path d="M41.6987 6.1231
L41.5777 6.0627
" />
<path d="M41.5777 6.0627
L41.5172 6.0022
" />
<path d="M41.5172 6.0022
L41.4568 5.8812
" />
<path d="M41.4568 5.8812
L41.4568 5.5184
" />
<path d="M41.4568 5.5184
L41.5172 5.3974
" />
<path d="M41.5172 5.3974
L41.5777 5.3369
" />
<path d="M41.5777 5.3369
L41.6987 5.2765
" />
<path d="M41.6987 5.2765
L41.9406 5.2765
" />
<path d="M41.9406 5.2765
L42.0615 5.3369
" />
<path d="M43.0896 6.0627
L42.9687 6.1231
" />
<path d="M42.9687 6.1231
L42.7268 6.1231
" />
<path d="M42.7268 6.1231
L42.6058 6.0627
" />
<path d="M42.6058 6.0627
L42.5454 5.9417
" />
<path d="M42.5454 5.9417
L42.5454 5.4579
" />
<path d="M42.5454 5.4579
L42.6058 5.3369
" />
<path d="M42.6058 5.3369
L42.7268 5.2765
" />
<path d="M42.7268 5.2765
L42.9687 5.2765
" />
<path d="M42.9687 5.2765
L43.0896 5.3369
" />
<path d="M43.0896 5.3369
L43.1501 5.4579
" />
<path d="M43.1501 5.4579
L43.1501 5.5788
" />
<path d="M43.1501 5.5788
L42.5454 5.6998
" />
<path d="M44.6016 4.7927
L43.5130 6.4255
" />
<path d="M45.0249 6.1231
L45.0249 4.8531
" />
<path d="M45.0249 4.8531
L45.3273 4.8531
" />
<path d="M45.3273 4.8531
L45.5087 4.9136
" />
<path d="M45.5087 4.9136
L45.6297 5.0346
" />
<path d="M45.6297 5.0346
L45.6902 5.1555
" />
<path d="M45.6902 5.1555
L45.7506 5.3974
" />
<path d="M45.7506 5.3974
L45.7506 5.5788
" />
<path d="M45.7506 5.5788
L45.6902 5.8207
" />
<path d="M45.6902 5.8207
L45.6297 5.9417
" />
<path d="M45.6297 5.9417
L45.5087 6.0627
" />
<path d="M45.5087 6.0627
L45.3273 6.1231
" />
<path d="M45.3273 6.1231
L45.0249 6.1231
" />
<path d="M46.4764 6.1231
L46.3554 6.0627
" />
<path d="M46.3554 6.0627
L46.2949 6.0022
" />
<path d="M46.2949 6.0022
L46.2345 5.8812
" />
<path d="M46.2345 5.8812
L46.2345 5.5184
" />
<path d="M46.2345 5.5184
L46.2949 5.3974
" />
<path d="M46.2949 5.3974
L46.3554 5.3369
" />
<path d="M46.3554 5.3369
L46.4764 5.2765
" />
<path d="M46.4764 5.2765
L46.6578 5.2765
" />
<path d="M46.6578 5.2765
L46.7787 5.3369
" />
<path d="M46.7787 5.3369
L46.8392 5.3974
" />
<path d="M46.8392 5.3974
L46.8997 5.5184
" />
<path d="M46.8997 5.5184
L46.8997 5.8812
" />
<path d="M46.8997 5.8812
L46.8392 6.0022
" />
<path d="M46.8392 6.0022
L46.7787 6.0627
" />
<path d="M46.7787 6.0627
L46.6578 6.1231
" />
<path d="M46.6578 6.1231
L46.4764 6.1231
" />
<path d="M47.9882 6.0627
L47.8673 6.1231
" />
<path d="M47.8673 6.1231
L47.6254 6.1231
" />
<path d="M47.6254 6.1231
L47.5044 6.0627
" />
<path d="M47.5044 6.0627
L47.4439 6.0022
" />
<path d="M47.4439 6.0022
L47.3835 5.8812
" />
<path d="M47.3835 5.8812
L47.3835 5.5184
" />
<path d="M47.3835 5.5184
L47.4439 5.3974
" />
<path d="M47.4439 5.3974
L47.5044 5.3369
" />
<path d="M47.5044 5.3369
L47.6254 5.2765
" />
<path d="M47.6254 5.2765
L47.8673 5.2765
" />
<path d="M47.8673 5.2765
L47.9882 5.3369
" />
<path d="M49.0768 5.2765
L49.0768 6.1231
" />
<path d="M48.5325 5.2765
L48.5325 5.9417
" />
<path d="M48.5325 5.9417
L48.5930 6.0627
" />
<path d="M48.5930 6.0627
L48.7140 6.1231
" />
<path d="M48.7140 6.1231
L48.8954 6.1231
" />
<path d="M48.8954 6.1231
L49.0163 6.0627
" />
<path d="M49.0163 6.0627
L49.0768 6.0022
" />
<path d="M49.6815 6.1231
L49.6815 5.2765
" />
<path d="M49.6815 5.3974
L49.7420 5.3369
" />
<path d="M49.7420 5.3369
L49.8630 5.2765
" />
<path d="M49.8630 5.2765
L50.0444 5.2765
" />
<path d="M50.0444 5.2765
L50.1653 5.3369
" />
<path d="M50.1653 5.3369
L50.2258 5.4579
" />
<path d="M50.2258 5.4579
L50.2258 6.1231
" />
<path d="M50.2258 5.4579
L50.2863 5.3369
" />
<path d="M50.2863 5.3369
L50.4072 5.2765
" />
<path d="M50.4072 5.2765
L50.5887 5.2765
" />
<path d="M50.5887 5.2765
L50.7096 5.3369
" />
<path d="M50.7096 5.3369
L50.7701 5.4579
" />
<path d="M50.7701 5.4579
L50.7701 6.1231
" />
<path d="M51.8586 6.0627
L51.7377 6.1231
" />
<path d="M51.7377 6.1231
L51.4958 6.1231
" />
<path d="M51.4958 6.1231
L51.3748 6.0627
" />
<path d="M51.3748 6.0627
L51.3144 5.9417
" />
<path d="M51.3144 5.9417
L51.3144 5.4579
" />
<path d="M51.3144 5.4579
L51.3748 5.3369
" />
<path d="M51.3748 5.3369
L51.4958 5.2765
" />
<path d="M51.4958 5.2765
L51.7377 5.2765
" />
<path d="M51.7377 5.2765
L51.8586 5.3369
" />
<path d="M51.8586 5.3369
L51.9191 5.4579
" />
<path d="M51.9191 5.4579
L51.9191 5.5788
" />
<path d="M51.9191 5.5788
L51.3144 5.6998
" />
<path d="M52.4634 5.2765
L52.4634 6.1231
" />
<path d="M52.4634 5.3974
L52.5239 5.3369
" />
<path d="M52.5239 5.3369
L52.6449 5.2765
" />
<path d="M52.6449 5.2765
L52.8263 5.2765
" />
<path d="M52.8263 5.2765
L52.9472 5.3369
" />
<path d="M52.9472 5.3369
L53.0077 5.4579
" />
<path d="M53.0077 5.4579
L53.0077 6.1231
" />
<path d="M53.4310 5.2765
L53.9148 5.2765
" />
<path d="M53.6124 4.8531
L53.6124 5.9417
" />
<path d="M53.6124 5.9417
L53.6729 6.0627
" />
<path d="M53.6729 6.0627
L53.7939 6.1231
" />
<path d="M53.7939 6.1231
L53.9148 6.1231
" />
<path d="M54.3381 6.1231
L54.3381 4.8531
" />
<path d="M54.3381 4.8531
L54.6405 4.8531
" />
<path d="M54.6405 4.8531
L54.8219 4.9136
" />
<path d="M54.8219 4.9136
L54.9429 5.0346
" />
<path d="M54.9429 5.0346
L55.0034 5.1555
" />
<path d="M55.0034 5.1555
L55.0638 5.3974
" />
<path d="M55.0638 5.3974
L55.0638 5.5788
" />
<path d="M55.0638 5.5788
L55.0034 5.8207
" />
<path d="M55.0034 5.8207
L54.9429 5.9417
" />
<path d="M54.9429 5.9417
L54.8219 6.0627
" />
<path d="M54.8219 6.0627
L54.6405 6.1231
" />
<path d="M54.6405 6.1231
L54.3381 6.1231
" />
<path d="M56.0919 6.0627
L55.9710 6.1231
" />
<path d="M55.9710 6.1231
L55.7291 6.1231
" />
<path d="M55.7291 6.1231
L55.6081 6.0627
" />
<path d="M55.6081 6.0627
L55.5477 5.9417
" />
<path d="M55.5477 5.9417
L55.5477 5.4579
" />
<path d="M55.5477 5.4579
L55.6081 5.3369
" />
<path d="M55.6081 5.3369
L55.7291 5.2765
" />
<path d="M55.7291 5.2765
L55.9710 5.2765
" />
<path d="M55.9710 5.2765
L56.0919 5.3369
" />
<path d="M56.0919 5.3369
L56.1524 5.4579
" />
<path d="M56.1524 5.4579
L56.1524 5.5788
" />
<path d="M56.1524 5.5788
L55.5477 5.6998
" />
<path d="M56.8782 6.1231
L56.7572 6.0627
" />
<path d="M56.7572 6.0627
L56.6967 5.9417
" />
<path d="M56.6967 5.9417
L56.6967 4.8531
" />
<path d="M57.3619 6.1231
L57.3619 5.2765
" />
<path d="M57.3619 4.8531
L57.3015 4.9136
" />
<path d="M57.3015 4.9136
L57.3619 4.9741
" />
<path d="M57.3619 4.9741
L57.4224 4.9136
" />
<path d="M57.4224 4.9136
L57.3619 4.8531
" />
<path d="M57.3619 4.8531
L57.3619 4.9741
" />
<path d="M57.8458 5.2765
L58.1482 6.1231
" />
<path d="M58.1482 6.1231
L58.4505 5.2765
" />
<path d="M59.4181 6.0627
L59.2972 6.1231
" />
<path d="M59.2972 6.1231
L59.0553 6.1231
" />
<path d="M59.0553 6.1231
L58.9343 6.0627
" />
<path d="M58.9343 6.0627
L58.8739 5.9417
" />
<path d="M58.8739 5.9417
L58.8739 5.4579
" />
<path d="M58.8739 5.4579
L58.9343 5.3369
" />
<path d="M58.9343 5.3369
L59.0553 5.2765
" />
<path d="M59.0553 5.2765
L59.2972 5.2765
" />
<path d="M59.2972 5.2765
L59.4181 5.3369
" />
<path d="M59.4181 5.3369
L59.4786 5.4579
" />
<path d="M59.4786 5.4579
L59.4786 5.5788
" />
<path d="M59.4786 5.5788
L58.8739 5.6998
" />
<path d="M60.0229 6.1231
L60.0229 5.2765
" />
<path d="M60.0229 5.5184
L60.0834 5.3974
" />
<path d="M60.0834 5.3974
L60.1439 5.3369
" />
<path d="M60.1439 5.3369
L60.2648 5.2765
" />
<path d="M60.2648 5.2765
L60.3858 5.2765
" />
<path d="M60.6882 5.2765
L60.9906 6.1231
" />
<path d="M61.2929 5.2765
L60.9906 6.1231
" />
<path d="M60.9906 6.1231
L60.8696 6.4255
" />
<path d="M60.8696 6.4255
L60.8091 6.4860
" />
<path d="M60.8091 6.4860
L60.6882 6.5465
" />
<path d="M62.6839 4.7927
L61.5953 6.4255
" />
<path d="M63.1072 6.1231
L63.1072 4.8531
" />
<path d="M63.1072 4.8531
L63.4096 4.8531
" />
<path d="M63.4096 4.8531
L63.5910 4.9136
" />
<path d="M63.5910 4.9136
L63.7120 5.0346
" />
<path d="M63.7120 5.0346
L63.7725 5.1555
" />
<path d="M63.7725 5.1555
L63.8329 5.3974
" />
<path d="M63.8329 5.3974
L63.8329 5.5788
" />
<path d="M63.8329 5.5788
L63.7725 5.8207
" />
<path d="M63.7725 5.8207
L63.7120 5.9417
" />
<path d="M63.7120 5.9417
L63.5910 6.0627
" />
<path d="M63.5910 6.0627
L63.4096 6.1231
" />
<path d="M63.4096 6.1231
L63.1072 6.1231
" />
<path d="M64.3772 6.1231
L64.3772 4.8531
" />
<path d="M64.3772 4.8531
L64.6796 4.8531
" />
<path d="M64.6796 4.8531
L64.8610 4.9136
" />
<path d="M64.8610 4.9136
L64.9820 5.0346
" />
<path d="M64.9820 5.0346
L65.0425 5.1555
" />
<path d="M65.0425 5.1555
L65.1029 5.3974
" />
<path d="M65.1029 5.3974
L65.1029 5.5788
" />
<path d="M65.1029 5.5788
L65.0425 5.8207
" />
<path d="M65.0425 5.8207
L64.9820 5.9417
" />
<path d="M64.9820 5.9417
L64.8610 6.0627
" />
<path d="M64.8610 6.0627
L64.6796 6.1231
" />
<path d="M64.6796 6.1231
L64.3772 6.1231
" />
<path d="M65.6472 5.4579
L66.0706 5.4579
" />
<path d="M66.2520 6.1231
L65.6472 6.1231
" />
<path d="M65.6472 6.1231
L65.6472 4.8531
" />
<path d="M65.6472 4.8531
L66.2520 4.8531
" />
<path d="M67.5219 6.0022
L67.4615 6.0627
" />
<path d="M67.4615 6.0627
L67.2800 6.1231
" />
<path d="M67.2800 6.1231
L67.1591 6.1231
" />
<path d="M67.1591 6.1231
L66.9777 6.0627
" />
<path d="M66.9777 6.0627
L66.8567 5.9417
" />
<path d="M66.8567 5.9417
L66.7962 5.8207
" />
<path d="M66.7962 5.8207
L66.7358 5.5788
" />
<path d="M66.7358 5.5788
L66.7358 5.3974
" />
<path d="M66.7358 5.3974
L66.7962 5.1555
" />
<path d="M66.7962 5.1555
L66.8567 5.0346
" />
<path d="M66.8567 5.0346
L66.9777 4.9136
" />
<path d="M66.9777 4.9136
L67.1591 4.8531
" />
<path d="M67.1591 4.8531
L67.2800 4.8531
" />
<path d="M67.2800 4.8531
L67.4615 4.9136
" />
<path d="M67.4615 4.9136
L67.5219 4.9741
" />
<path d="M68.2477 6.1231
L68.1267 6.0627
" />
<path d="M68.1267 6.0627
L68.0662 6.0022
" />
<path d="M68.0662 6.0022
L68.0058 5.8812
" />
<path d="M68.0058 5.8812
L68.0058 5.5184
" />
<path d="M68.0058 5.5184
L68.0662 5.3974
" />
<path d="M68.0662 5.3974
L68.1267 5.3369
" />
<path d="M68.1267 5.3369
L68.2477 5.2765
" />
<path d="M68.2477 5.2765
L68.4291 5.2765
" />
<path d="M68.4291 5.2765
L68.5500 5.3369
" />
<path d="M68.5500 5.3369
L68.6105 5.3974
" />
<path d="M68.6105 5.3974
L68.6710 5.5184
" />
<path d="M68.6710 5.5184
L68.6710 5.8812
" />
<path d="M68.6710 5.8812
L68.6105 6.0022
" />
<path d="M68.6105 6.0022
L68.5500 6.0627
" />
<path d="M68.5500 6.0627
L68.4291 6.1231
" />
<path d="M68.4291 6.1231
L68.2477 6.1231
" />
<path d="M69.2152 5.2765
L69.2152 6.1231
" />
<path d="M69.2152 5.3974
L69.2757 5.3369
" />
<path d="M69.2757 5.3369
L69.3967 5.2765
" />
<path d="M69.3967 5.2765
L69.5781 5.2765
" />
<path d="M69.5781 5.2765
L69.6990 5.3369
" />
<path d="M69.6990 5.3369
L69.7595 5.4579
" />
<path d="M69.7595 5.4579
L69.7595 6.1231
" />
<path d="M70.1828 5.2765
L70.6666 5.2765
" />
<path d="M70.3642 4.8531
L70.3642 5.9417
" />
<path d="M70.3642 5.9417
L70.4247 6.0627
" />
<path d="M70.4247 6.0627
L70.5457 6.1231
" />
<path d="M70.5457 6.1231
L70.6666 6.1231
" />
<path d="M71.0899 6.1231
L71.0899 5.2765
" />
<path d="M71.0899 5.5184
L71.1504 5.3974
" />
<path d="M71.1504 5.3974
L71.2109 5.3369
" />
<path d="M71.2109 5.3369
L71.3318 5.2765
" />
<path d="M71.3318 5.2765
L71.4528 5.2765
" />
<path d="M72.0576 6.1231
L71.9366 6.0627
" />
<path d="M71.9366 6.0627
L71.8761 6.0022
" />
<path d="M71.8761 6.0022
L71.8157 5.8812
" />
<path d="M71.8157 5.8812
L71.8157 5.5184
" />
<path d="M71.8157 5.5184
L71.8761 5.3974
" />
<path d="M71.8761 5.3974
L71.9366 5.3369
" />
<path d="M71.9366 5.3369
L72.0576 5.2765
" />
<path d="M72.0576 5.2765
L72.2390 5.2765
" />
<path d="M72.2390 5.2765
L72.3599 5.3369
" />
<path d="M72.3599 5.3369
L72.4204 5.3974
" />
<path d="M72.4204 5.3974
L72.4809 5.5184
" />
<path d="M72.4809 5.5184
L72.4809 5.8812
" />
<path d="M72.4809 5.8812
L72.4204 6.0022
" />
<path d="M72.4204 6.0022
L72.3599 6.0627
" />
<path d="M72.3599 6.0627
L72.2390 6.1231
" />
<path d="M72.2390 6.1231
L72.0576 6.1231
" />
<path d="M73.2066 6.1231
L73.0856 6.0627
" />
<path d="M73.0856 6.0627
L73.0251 5.9417
" />
<path d="M73.0251 5.9417
L73.0251 4.8531
" />
<path d="M73.8718 6.1231
L73.7508 6.0627
" />
<path d="M73.7508 6.0627
L73.6903 5.9417
" />
<path d="M73.6903 5.9417
L73.6903 4.8531
" />
<path d="M74.8393 6.0627
L74.7184 6.1231
" />
<path d="M74.7184 6.1231
L74.4765 6.1231
" />
<path d="M74.4765 6.1231
L74.3555 6.0627
" />
<path d="M74.3555 6.0627
L74.2951 5.9417
" />
<path d="M74.2951 5.9417
L74.2951 5.4579
" />
<path d="M74.2951 5.4579
L74.3555 5.3369
" />
<path d="M74.3555 5.3369
L74.4765 5.2765
" />
<path d="M74.4765 5.2765
L74.7184 5.2765
" />
<path d="M74.7184 5.2765
L74.8393 5.3369
" />
<path d="M74.8393 5.3369
L74.8998 5.4579
" />
<path d="M74.8998 5.4579
L74.8998 5.5788
" />
<path d="M74.8998 5.5788
L74.2951 5.6998
" />
<path d="M75.4441 6.1231
L75.4441 5.2765
" />
<path d="M75.4441 5.5184
L75.5046 5.3974
" />
<path d="M75.5046 5.3974
L75.5651 5.3369
" />
<path d="M75.5651 5.3369
L75.6860 5.2765
" />
<path d="M75.6860 5.2765
L75.8070 5.2765
" />
<path d="M76.4118 6.0022
L76.4722 6.0627
" />
<path d="M76.4722 6.0627
L76.4118 6.1231
" />
<path d="M76.4118 6.1231
L76.3513 6.0627
" />
<path d="M76.3513 6.0627
L76.4118 6.0022
" />
<path d="M76.4118 6.0022
L76.4118 6.1231
" />
<path d="M76.1699 4.9136
L76.2908 4.8531
" />
<path d="M76.2908 4.8531
L76.5932 4.8531
" />
<path d="M76.5932 4.8531
L76.7141 4.9136
" />
<path d="M76.7141 4.9136
L76.7746 5.0346
" />
<path d="M76.7746 5.0346
L76.7746 5.1555
" />
<path d="M76.7746 5.1555
L76.7141 5.2765
" />
<path d="M76.7141 5.2765
L76.6537 5.3369
" />
<path d="M76.6537 5.3369
L76.5327 5.3974
" />
<path d="M76.5327 5.3974
L76.4722 5.4579
" />
<path d="M76.4722 5.4579
L76.4118 5.5788
" />
<path d="M76.4118 5.5788
L76.4118 5.6393
" />
<path d="M77.2585 5.7603
L77.8632 5.7603
" />
<path d="M77.1375 6.1231
L77.5608 4.8531
" />
<path d="M77.5608 4.8531
L77.9842 6.1231
" />
<path d="M78.9518 6.0627
L78.8309 6.1231
" />
<path d="M78.8309 6.1231
L78.5890 6.1231
" />
<path d="M78.5890 6.1231
L78.4680 6.0627
" />
<path d="M78.4680 6.0627
L78.4075 6.0022
" />
<path d="M78.4075 6.0022
L78.3471 5.8812
" />
<path d="M78.3471 5.8812
L78.3471 5.5184
" />
<path d="M78.3471 5.5184
L78.4075 5.3974
" />
<path d="M78.4075 5.3974
L78.4680 5.3369
" />
<path d="M78.4680 5.3369
L78.5890 5.2765
" />
<path d="M78.5890 5.2765
L78.8309 5.2765
" />
<path d="M78.8309 5.2765
L78.9518 5.3369
" />
<path d="M79.3147 5.2765
L79.7985 5.2765
" />
<path d="M79.4961 4.8531
L79.4961 5.9417
" />
<path d="M79.4961 5.9417
L79.5566 6.0627
" />
<path d="M79.5566 6.0627
L79.6776 6.1231
" />
<path d="M79.6776 6.1231
L79.7985 6.1231
" />
<path d="M80.2218 6.1231
L80.2218 5.2765
" />
<path d="M80.2218 4.8531
L80.1614 4.9136
" />
<path d="M80.1614 4.9136
L80.2218 4.9741
" />
<path d="M80.2218 4.9741
L80.2823 4.9136
" />
<path d="M80.2823 4.9136
L80.2218 4.8531
" />
<path d="M80.2218 4.8531
L80.2218 4.9741
" />
<path d="M81.0081 6.1231
L80.8871 6.0627
" />
<path d="M80.8871 6.0627
L80.8266 6.0022
" />
<path d="M80.8266 6.0022
L80.7662 5.8812
" />
<path d="M80.7662 5.8812
L80.7662 5.5184
" />
<path d="M80.7662 5.5184
L80.8266 5.3974
" />
<path d="M80.8266 5.3974
L80.8871 5.3369
" />
<path d="M80.8871 5.3369
L81.0081 5.2765
" />
<path d="M81.0081 5.2765
L81.1895 5.2765
" />
<path d="M81.1895 5.2765
L81.3104 5.3369
" />
<path d="M81.3104 5.3369
L81.3709 5.3974
" />
<path d="M81.3709 5.3974
L81.4314 5.5184
" />
<path d="M81.4314 5.5184
L81.4314 5.8812
" />
<path d="M81.4314 5.8812
L81.3709 6.0022
" />
<path d="M81.3709 6.0022
L81.3104 6.0627
" />
<path d="M81.3104 6.0627
L81.1895 6.1231
" />
<path d="M81.1895 6.1231
L81.0081 6.1231
" />
<path d="M81.9756 5.2765
L81.9756 6.1231
" />
<path d="M81.9756 5.3974
L82.0361 5.3369
" />
<path d="M82.0361 5.3369
L82.1571 5.2765
" />
<path d="M82.1571 5.2765
L82.3385 5.2765
" />
<path d="M82.3385 5.2765
L82.4594 5.3369
" />
<path d="M82.4594 5.3369
L82.5199 5.4579
" />
<path d="M82.5199 5.4579
L82.5199 6.1231
" />
<path d="M83.1246 5.4579
L84.0923 5.4579
" />
<path d="M84.0923 5.8207
L83.1246 5.8207
" />
<path d="M84.6366 6.0627
L84.7575 6.1231
" />
<path d="M84.7575 6.1231
L84.9994 6.1231
" />
<path d="M84.9994 6.1231
L85.1204 6.0627
" />
<path d="M85.1204 6.0627
L85.1808 5.9417
" />
<path d="M85.1808 5.9417
L85.1808 5.8812
" />
<path d="M85.1808 5.8812
L85.1204 5.7603
" />
<path d="M85.1204 5.7603
L84.9994 5.6998
" />
<path d="M84.9994 5.6998
L84.8180 5.6998
" />
<path d="M84.8180 5.6998
L84.6970 5.6393
" />
<path d="M84.6970 5.6393
L84.6366 5.5184
" />
<path d="M84.6366 5.5184
L84.6366 5.4579
" />
<path d="M84.6366 5.4579
L84.6970 5.3369
" />
<path d="M84.6970 5.3369
L84.8180 5.2765
" />
<path d="M84.8180 5.2765
L84.9994 5.2765
" />
<path d="M84.9994 5.2765
L85.1204 5.3369
" />
<path d="M85.7251 6.1231
L85.7251 5.2765
" />
<path d="M85.7251 5.5184
L85.7856 5.3974
" />
<path d="M85.7856 5.3974
L85.8461 5.3369
" />
<path d="M85.8461 5.3369
L85.9670 5.2765
" />
<path d="M85.9670 5.2765
L86.0880 5.2765
" />
<path d="M87.0556 6.0627
L86.9347 6.1231
" />
<path d="M86.9347 6.1231
L86.6928 6.1231
" />
<path d="M86.6928 6.1231
L86.5718 6.0627
" />
<path d="M86.5718 6.0627
L86.5113 6.0022
" />
<path d="M86.5113 6.0022
L86.4509 5.8812
" />
<path d="M86.4509 5.8812
L86.4509 5.5184
" />
<path d="M86.4509 5.5184
L86.5113 5.3974
" />
<path d="M86.5113 5.3974
L86.5718 5.3369
" />
<path d="M86.5718 5.3369
L86.6928 5.2765
" />
<path d="M86.6928 5.2765
L86.9347 5.2765
" />
<path d="M86.9347 5.2765
L87.0556 5.3369
" />
<path d="M87.5999 6.1231
L87.5999 4.8531
" />
<path d="M88.1442 6.1231
L88.1442 5.4579
" />
<path d="M88.1442 5.4579
L88.0837 5.3369
" />
<path d="M88.0837 5.3369
L87.9628 5.2765
" />
<path d="M87.9628 5.2765
L87.7814 5.2765
" />
<path d="M87.7814 5.2765
L87.6604 5.3369
" />
<path d="M87.6604 5.3369
L87.5999 5.3974
" />
<path d="M88.7489 6.1231
L88.7489 5.2765
" />
<path d="M88.7489 5.5184
L88.8094 5.3974
" />
<path d="M88.8094 5.3974
L88.8699 5.3369
" />
<path d="M88.8699 5.3369
L88.9908 5.2765
" />
<path d="M88.9908 5.2765
L89.1118 5.2765
" />
<path d="M89.3537 5.2765
L89.8375 5.2765
" />
<path d="M89.5351 4.8531
L89.5351 5.9417
" />
<path d="M89.5351 5.9417
L89.5956 6.0627
" />
<path d="M89.5956 6.0627
L89.7166 6.1231
" />
<path d="M89.7166 6.1231
L89.8375 6.1231
" />
<path d="M90.2608 6.1231
L90.2608 5.2765
" />
<path d="M90.2608 5.5184
L90.3213 5.3974
" />
<path d="M90.3213 5.3974
L90.3818 5.3369
" />
<path d="M90.3818 5.3369
L90.5027 5.2765
" />
<path d="M90.5027 5.2765
L90.6237 5.2765
" />
<path d="M90.9261 5.2765
L91.2285 6.1231
" />
<path d="M91.2285 6.1231
L91.5308 5.2765
" />
<path d="M93.0427 6.1231
L92.9823 6.1231
" />
<path d="M92.9823 6.1231
L92.8613 6.0627
" />
<path d="M92.8613 6.0627
L92.6799 5.8812
" />
<path d="M92.6799 5.8812
L92.3775 5.5184
" />
<path d="M92.3775 5.5184
L92.2565 5.3369
" />
<path d="M92.2565 5.3369
L92.1961 5.1555
" />
<path d="M92.1961 5.1555
L92.1961 5.0346
" />
<path d="M92.1961 5.0346
L92.2565 4.9136
" />
<path d="M92.2565 4.9136
L92.3775 4.8531
" />
<path d="M92.3775 4.8531
L92.4380 4.8531
" />
<path d="M92.4380 4.8531
L92.5589 4.9136
" />
<path d="M92.5589 4.9136
L92.6194 5.0346
" />
<path d="M92.6194 5.0346
L92.6194 5.0950
" />
<path d="M92.6194 5.0950
L92.5589 5.2160
" />
<path d="M92.5589 5.2160
L92.4984 5.2765
" />
<path d="M92.4984 5.2765
L92.1356 5.5184
" />
<path d="M92.1356 5.5184
L92.0751 5.5788
" />
<path d="M92.0751 5.5788
L92.0146 5.6998
" />
<path d="M92.0146 5.6998
L92.0146 5.8812
" />
<path d="M92.0146 5.8812
L92.0751 6.0022
" />
<path d="M92.0751 6.0022
L92.1356 6.0627
" />
<path d="M92.1356 6.0627
L92.2565 6.1231
" />
<path d="M92.2565 6.1231
L92.4380 6.1231
" />
<path d="M92.4380 6.1231
L92.5589 6.0627
" />
<path d="M92.5589 6.0627
L92.6194 6.0022
" />
<path d="M92.6194 6.0022
L92.8008 5.7603
" />
<path d="M92.8008 5.7603
L92.8613 5.5788
" />
<path d="M92.8613 5.5788
L92.8613 5.4579
" />
<path d="M93.5870 6.1231
L93.5870 4.8531
" />
<path d="M93.5870 4.8531
L93.8894 4.8531
" />
<path d="M93.8894 4.8531
L94.0708 4.9136
" />
<path d="M94.0708 4.9136
L94.1918 5.0346
" />
<path d="M94.1918 5.0346
L94.2523 5.1555
" />
<path d="M94.2523 5.1555
L94.3127 5.3974
" />
<path d="M94.3127 5.3974
L94.3127 5.5788
" />
<path d="M94.3127 5.5788
L94.2523 5.8207
" />
<path d="M94.2523 5.8207
L94.1918 5.9417
" />
<path d="M94.1918 5.9417
L94.0708 6.0627
" />
<path d="M94.0708 6.0627
L93.8894 6.1231
" />
<path d="M93.8894 6.1231
L93.5870 6.1231
" />
<path d="M95.0385 6.1231
L94.9175 6.0627
" />
<path d="M94.9175 6.0627
L94.8570 6.0022
" />
<path d="M94.8570 6.0022
L94.7966 5.8812
" />
<path d="M94.7966 5.8812
L94.7966 5.5184
" />
<path d="M94.7966 5.5184
L94.8570 5.3974
" />
<path d="M94.8570 5.3974
L94.9175 5.3369
" />
<path d="M94.9175 5.3369
L95.0385 5.2765
" />
<path d="M95.0385 5.2765
L95.2199 5.2765
" />
<path d="M95.2199 5.2765
L95.3408 5.3369
" />
<path d="M95.3408 5.3369
L95.4013 5.3974
" />
<path d="M95.4013 5.3974
L95.4618 5.5184
" />
<path d="M95.4618 5.5184
L95.4618 5.8812
" />
<path d="M95.4618 5.8812
L95.4013 6.0022
" />
<path d="M95.4013 6.0022
L95.3408 6.0627
" />
<path d="M95.3408 6.0627
L95.2199 6.1231
" />
<path d="M95.2199 6.1231
L95.0385 6.1231
" />
<path d="M96.5503 6.0627
L96.4294 6.1231
" />
<path d="M96.4294 6.1231
L96.1875 6.1231
" />
<path d="M96.1875 6.1231
L96.0665 6.0627
" />
<path d="M96.0665 6.0627
L96.0060 6.0022
" />
<path d="M96.0060 6.0022
L95.9456 5.8812
" />
<path d="M95.9456 5.8812
L95.9456 5.5184
" />
<path d="M95.9456 5.5184
L96.0060 5.3974
" />
<path d="M96.0060 5.3974
L96.0665 5.3369
" />
<path d="M96.0665 5.3369
L96.1875 5.2765
" />
<path d="M96.1875 5.2765
L96.4294 5.2765
" />
<path d="M96.4294 5.2765
L96.5503 5.3369
" />
<path d="M97.0946 6.1231
L97.0946 4.8531
" />
<path d="M97.0946 4.8531
L97.8203 6.1231
" />
<path d="M97.8203 6.1231
L97.8203 4.8531
" />
<path d="M98.4251 6.1231
L98.4251 5.2765
" />
<path d="M98.4251 5.3974
L98.4856 5.3369
" />
<path d="M98.4856 5.3369
L98.6066 5.2765
" />
<path d="M98.6066 5.2765
L98.7880 5.2765
" />
<path d="M98.7880 5.2765
L98.9089 5.3369
" />
<path d="M98.9089 5.3369
L98.9694 5.4579
" />
<path d="M98.9694 5.4579
L98.9694 6.1231
" />
<path d="M98.9694 5.4579
L99.0299 5.3369
" />
<path d="M99.0299 5.3369
L99.1508 5.2765
" />
<path d="M99.1508 5.2765
L99.3323 5.2765
" />
<path d="M99.3323 5.2765
L99.4532 5.3369
" />
<path d="M99.4532 5.3369
L99.5137 5.4579
" />
<path d="M99.5137 5.4579
L99.5137 6.1231
" />
<path d="M100.1184 5.4579
L101.0861 5.4579
" />
<path d="M101.0861 5.8207
L100.1184 5.8207
" />
<path d="M102.4165 6.1231
L101.9932 5.5184
" />
<path d="M101.6908 6.1231
L101.6908 4.8531
" />
<path d="M101.6908 4.8531
L102.1746 4.8531
" />
<path d="M102.1746 4.8531
L102.2956 4.9136
" />
<path d="M102.2956 4.9136
L102.3561 4.9741
" />
<path d="M102.3561 4.9741
L102.4165 5.0950
" />
<path d="M102.4165 5.0950
L102.4165 5.2765
" />
<path d="M102.4165 5.2765
L102.3561 5.3974
" />
<path d="M102.3561 5.3974
L102.2956 5.4579
" />
<path d="M102.2956 5.4579
L102.1746 5.5184
" />
<path d="M102.1746 5.5184
L101.6908 5.5184
" />
<path d="M102.7794 4.8531
L103.5051 4.8531
" />
<path d="M103.1423 6.1231
L103.1423 4.8531
" />
<path d="M104.5937 6.1231
L103.8680 6.1231
" />
<path d="M104.2308 6.1231
L104.2308 4.8531
" />
<path d="M104.2308 4.8531
L104.1099 5.0346
" />
<path d="M104.1099 5.0346
L103.9889 5.1555
" />
<path d="M103.9889 5.1555
L103.8680 5.2160
" />
<path d="M104.8356 6.2441
L105.8032 6.2441
" />
<path d="M106.1055 6.1231
L106.1055 4.8531
" />
<path d="M106.1055 5.3369
L106.2265 5.2765
" />
<path d="M106.2265 5.2765
L106.4684 5.2765
" />
<path d="M106.4684 5.2765
L106.5893 5.3369
" />
<path d="M106.5893 5.3369
L106.6498 5.3974
" />
<path d="M106.6498 5.3974
L106.7103 5.5184
" />
<path d="M106.7103 5.5184
L106.7103 5.8812
" />
<path d="M106.7103 5.8812
L106.6498 6.0022
" />
<path d="M106.6498 6.0022
L106.5893 6.0627
" />
<path d="M106.5893 6.0627
L106.4684 6.1231
" />
<path d="M106.4684 6.1231
L106.2265 6.1231
" />
<path d="M106.2265 6.1231
L106.1055 6.0627
" />
<path d="M107.2545 6.1231
L107.2545 5.2765
" />
<path d="M107.2545 4.8531
L107.1941 4.9136
" />
<path d="M107.1941 4.9136
L107.2545 4.9741
" />
<path d="M107.2545 4.9741
L107.3150 4.9136
" />
<path d="M107.3150 4.9136
L107.2545 4.8531
" />
<path d="M107.2545 4.8531
L107.2545 4.9741
" />
<path d="M107.7989 6.0627
L107.9198 6.1231
" />
<path d="M107.9198 6.1231
L108.1617 6.1231
" />
<path d="M108.1617 6.1231
L108.2827 6.0627
" />
<path d="M108.2827 6.0627
L108.3431 5.9417
" />
<path d="M108.3431 5.9417
L108.3431 5.8812
" />
<path d="M108.3431 5.8812
L108.2827 5.7603
" />
<path d="M108.2827 5.7603
L108.1617 5.6998
" />
<path d="M108.1617 5.6998
L107.9803 5.6998
" />
<path d="M107.9803 5.6998
L107.8593 5.6393
" />
<path d="M107.8593 5.6393
L107.7989 5.5184
" />
<path d="M107.7989 5.5184
L107.7989 5.4579
" />
<path d="M107.7989 5.4579
L107.8593 5.3369
" />
<path d="M107.8593 5.3369
L107.9803 5.2765
" />
<path d="M107.9803 5.2765
L108.1617 5.2765
" />
<path d="M108.1617 5.2765
L108.2827 5.3369
" />
<path d="M108.7060 5.2765
L109.1898 5.2765
" />
<path d="M108.8874 4.8531
L108.8874 5.9417
" />
<path d="M108.8874 5.9417
L108.9479 6.0627
" />
<path d="M108.9479 6.0627
L109.0689 6.1231
" />
<path d="M109.0689 6.1231
L109.1898 6.1231
" />
<path d="M110.1574 6.1231
L110.1574 5.4579
" />
<path d="M110.1574 5.4579
L110.0969 5.3369
" />
<path d="M110.0969 5.3369
L109.9760 5.2765
" />
<path d="M109.9760 5.2765
L109.7341 5.2765
" />
<path d="M109.7341 5.2765
L109.6131 5.3369
" />
<path d="M110.1574 6.0627
L110.0365 6.1231
" />
<path d="M110.0365 6.1231
L109.7341 6.1231
" />
<path d="M109.7341 6.1231
L109.6131 6.0627
" />
<path d="M109.6131 6.0627
L109.5527 5.9417
" />
<path d="M109.5527 5.9417
L109.5527 5.8207
" />
<path d="M109.5527 5.8207
L109.6131 5.6998
" />
<path d="M109.6131 5.6998
L109.7341 5.6393
" />
<path d="M109.7341 5.6393
L110.0365 5.6393
" />
<path d="M110.0365 5.6393
L110.1574 5.5788
" />
<path d="M110.7621 6.1231
L110.7621 4.8531
" />
<path d="M110.7621 5.3369
L110.8831 5.2765
" />
<path d="M110.8831 5.2765
L111.1250 5.2765
" />
<path d="M111.1250 5.2765
L111.2459 5.3369
" />
<path d="M111.2459 5.3369
L111.3064 5.3974
" />
<path d="M111.3064 5.3974
L111.3669 5.5184
" />
<path d="M111.3669 5.5184
L111.3669 5.8812
" />
<path d="M111.3669 5.8812
L111.3064 6.0022
" />
<path d="M111.3064 6.0022
L111.2459 6.0627
" />
<path d="M111.2459 6.0627
L111.1250 6.1231
" />
<path d="M111.1250 6.1231
L110.8831 6.1231
" />
<path d="M110.8831 6.1231
L110.7621 6.0627
" />
<path d="M112.0926 6.1231
L111.9716 6.0627
" />
<path d="M111.9716 6.0627
L111.9111 5.9417
" />
<path d="M111.9111 5.9417
L111.9111 4.8531
" />
<path d="M113.0601 6.0627
L112.9392 6.1231
" />
<path d="M112.9392 6.1231
L112.6973 6.1231
" />
<path d="M112.6973 6.1231
L112.5763 6.0627
" />
<path d="M112.5763 6.0627
L112.5159 5.9417
" />
<path d="M112.5159 5.9417
L112.5159 5.4579
" />
<path d="M112.5159 5.4579
L112.5763 5.3369
" />
<path d="M112.5763 5.3369
L112.6973 5.2765
" />
<path d="M112.6973 5.2765
L112.9392 5.2765
" />
<path d="M112.9392 5.2765
L113.0601 5.3369
" />
<path d="M113.0601 5.3369
L113.1206 5.4579
" />
<path d="M113.1206 5.4579
L113.1206 5.5788
" />
<path d="M113.1206 5.5788
L112.5159 5.6998
" />
<path d="M114.6930 6.1231
L114.6326 6.1231
" />
<path d="M114.6326 6.1231
L114.5116 6.0627
" />
<path d="M114.5116 6.0627
L114.3302 5.8812
" />
<path d="M114.3302 5.8812
L114.0278 5.5184
" />
<path d="M114.0278 5.5184
L113.9068 5.3369
" />
<path d="M113.9068 5.3369
L113.8464 5.1555
" />
<path d="M113.8464 5.1555
L113.8464 5.0346
" />
<path d="M113.8464 5.0346
L113.9068 4.9136
" />
<path d="M113.9068 4.9136
L114.0278 4.8531
" />
<path d="M114.0278 4.8531
L114.0883 4.8531
" />
<path d="M114.0883 4.8531
L114.2092 4.9136
" />
<path d="M114.2092 4.9136
L114.2697 5.0346
" />
<path d="M114.2697 5.0346
L114.2697 5.0950
" />
<path d="M114.2697 5.0950
L114.2092 5.2160
" />
<path d="M114.2092 5.2160
L114.1487 5.2765
" />
<path d="M114.1487 5.2765
L113.7859 5.5184
" />
<path d="M113.7859 5.5184
L113.7254 5.5788
" />
<path d="M113.7254 5.5788
L113.6649 5.6998
" />
<path d="M113.6649 5.6998
L113.6649 5.8812
" />
<path d="M113.6649 5.8812
L113.7254 6.0022
" />
<path d="M113.7254 6.0022
L113.7859 6.0627
" />
<path d="M113.7859 6.0627
L113.9068 6.1231
" />
<path d="M113.9068 6.1231
L114.0883 6.1231
" />
<path d="M114.0883 6.1231
L114.2092 6.0627
" />
<path d="M114.2092 6.0627
L114.2697 6.0022
" />
<path d="M114.2697 6.0022
L114.4511 5.7603
" />
<path d="M114.4511 5.7603
L114.5116 5.5788
" />
<path d="M114.5116 5.5788
L114.5116 5.4579
" />
<path d="M115.2373 6.1231
L115.2373 4.8531
" />
<path d="M115.2373 4.8531
L115.5397 4.8531
" />
<path d="M115.5397 4.8531
L115.7211 4.9136
" />
<path d="M115.7211 4.9136
L115.8421 5.0346
" />
<path d="M115.8421 5.0346
L115.9026 5.1555
" />
<path d="M115.9026 5.1555
L115.9630 5.3974
" />
<path d="M115.9630 5.3974
L115.9630 5.5788
" />
<path d="M115.9630 5.5788
L115.9026 5.8207
" />
<path d="M115.9026 5.8207
L115.8421 5.9417
" />
<path d="M115.8421 5.9417
L115.7211 6.0627
" />
<path d="M115.7211 6.0627
L115.5397 6.1231
" />
<path d="M115.5397 6.1231
L115.2373 6.1231
" />
<path d="M116.6888 6.1231
L116.5678 6.0627
" />
<path d="M116.5678 6.0627
L116.5073 6.0022
" />
<path d="M116.5073 6.0022
L116.4469 5.8812
" />
<path d="M116.4469 5.8812
L116.4469 5.5184
" />
<path d="M116.4469 5.5184
L116.5073 5.3974
" />
<path d="M116.5073 5.3974
L116.5678 5.3369
" />
<path d="M116.5678 5.3369
L116.6888 5.2765
" />
<path d="M116.6888 5.2765
L116.8702 5.2765
" />
<path d="M116.8702 5.2765
L116.9911 5.3369
" />
<path d="M116.9911 5.3369
L117.0516 5.3974
" />
<path d="M117.0516 5.3974
L117.1121 5.5184
" />
<path d="M117.1121 5.5184
L117.1121 5.8812
" />
<path d="M117.1121 5.8812
L117.0516 6.0022
" />
<path d="M117.0516 6.0022
L116.9911 6.0627
" />
<path d="M116.9911 6.0627
L116.8702 6.1231
" />
<path d="M116.8702 6.1231
L116.6888 6.1231
" />
<path d="M118.2006 6.0627
L118.0797 6.1231
" />
<path d="M118.0797 6.1231
L117.8378 6.1231
" />
<path d="M117.8378 6.1231
L117.7168 6.0627
" />
<path d="M117.7168 6.0627
L117.6563 6.0022
" />
<path d="M117.6563 6.0022
L117.5959 5.8812
" />
<path d="M117.5959 5.8812
L117.5959 5.5184
" />
<path d="M117.5959 5.5184
L117.6563 5.3974
" />
<path d="M117.6563 5.3974
L117.7168 5.3369
" />
<path d="M117.7168 5.3369
L117.8378 5.2765
" />
<path d="M117.8378 5.2765
L118.0797 5.2765
" />
<path d="M118.0797 5.2765
L118.2006 5.3369
" />
<path d="M118.5635 4.8531
L119.2892 4.8531
" />
<path d="M118.9264 6.1231
L118.9264 4.8531
" />
<path d="M119.5916 5.2765
L119.8940 6.1231
" />
<path d="M120.1963 5.2765
L119.8940 6.1231
" />
<path d="M119.8940 6.1231
L119.7730 6.4255
" />
<path d="M119.7730 6.4255
L119.7125 6.4860
" />
<path d="M119.7125 6.4860
L119.5916 6.5465
" />
<path d="M120.6801 5.2765
L120.6801 6.5465
" />
<path d="M120.6801 5.3369
L120.8011 5.2765
" />
<path d="M120.8011 5.2765
L121.0430 5.2765
" />
<path d="M121.0430 5.2765
L121.1639 5.3369
" />
<path d="M121.1639 5.3369
L121.2244 5.3974
" />
<path d="M121.2244 5.3974
L121.2849 5.5184
" />
<path d="M121.2849 5.5184
L121.2849 5.8812
" />
<path d="M121.2849 5.8812
L121.2244 6.0022
" />
<path d="M121.2244 6.0022
L121.1639 6.0627
" />
<path d="M121.1639 6.0627
L121.0430 6.1231
" />
<path d="M121.0430 6.1231
L120.8011 6.1231
" />
<path d="M120.8011 6.1231
L120.6801 6.0627
" />
<path d="M122.3129 6.0627
L122.1920 6.1231
" />
<path d="M122.1920 6.1231
L121.9501 6.1231
" />
<path d="M121.9501 6.1231
L121.8291 6.0627
" />
<path d="M121.8291 6.0627
L121.7687 5.9417
" />
<path d="M121.7687 5.9417
L121.7687 5.4579
" />
<path d="M121.7687 5.4579
L121.8291 5.3369
" />
<path d="M121.8291 5.3369
L121.9501 5.2765
" />
<path d="M121.9501 5.2765
L122.1920 5.2765
" />
<path d="M122.1920 5.2765
L122.3129 5.3369
" />
<path d="M122.3129 5.3369
L122.3734 5.4579
" />
<path d="M122.3734 5.4579
L122.3734 5.5788
" />
<path d="M122.3734 5.5788
L121.7687 5.6998
" />
<path d="M122.9177 5.4579
L123.8854 5.4579
" />
<path d="M123.8854 5.8207
L122.9177 5.8207
" />
<path d="M124.4901 6.1231
L124.4901 4.8531
" />
<path d="M124.4901 4.8531
L124.7925 4.8531
" />
<path d="M124.7925 4.8531
L124.9739 4.9136
" />
<path d="M124.9739 4.9136
L125.0949 5.0346
" />
<path d="M125.0949 5.0346
L125.1554 5.1555
" />
<path d="M125.1554 5.1555
L125.2158 5.3974
" />
<path d="M125.2158 5.3974
L125.2158 5.5788
" />
<path d="M125.2158 5.5788
L125.1554 5.8207
" />
<path d="M125.1554 5.8207
L125.0949 5.9417
" />
<path d="M125.0949 5.9417
L124.9739 6.0627
" />
<path d="M124.9739 6.0627
L124.7925 6.1231
" />
<path d="M124.7925 6.1231
L124.4901 6.1231
" />
<path d="M125.6997 6.0627
L125.8811 6.1231
" />
<path d="M125.8811 6.1231
L126.1835 6.1231
" />
<path d="M126.1835 6.1231
L126.3044 6.0627
" />
<path d="M126.3044 6.0627
L126.3649 6.0022
" />
<path d="M126.3649 6.0022
L126.4254 5.8812
" />
<path d="M126.4254 5.8812
L126.4254 5.7603
" />
<path d="M126.4254 5.7603
L126.3649 5.6393
" />
<path d="M126.3649 5.6393
L126.3044 5.5788
" />
<path d="M126.3044 5.5788
L126.1835 5.5184
" />
<path d="M126.1835 5.5184
L125.9416 5.4579
" />
<path d="M125.9416 5.4579
L125.8206 5.3974
" />
<path d="M125.8206 5.3974
L125.7601 5.3369
" />
<path d="M125.7601 5.3369
L125.6997 5.2160
" />
<path d="M125.6997 5.2160
L125.6997 5.0950
" />
<path d="M125.6997 5.0950
L125.7601 4.9741
" />
<path d="M125.7601 4.9741
L125.8206 4.9136
" />
<path d="M125.8206 4.9136
L125.9416 4.8531
" />
<path d="M125.9416 4.8531
L126.2439 4.8531
" />
<path d="M126.2439 4.8531
L126.4254 4.9136
" />
<path d="M127.9977 6.1231
L127.9373 6.1231
" />
<path d="M127.9373 6.1231
L127.8163 6.0627
" />
<path d="M127.8163 6.0627
L127.6349 5.8812
" />
<path d="M127.6349 5.8812
L127.3325 5.5184
" />
<path d="M127.3325 5.5184
L127.2115 5.3369
" />
<path d="M127.2115 5.3369
L127.1511 5.1555
" />
<path d="M127.1511 5.1555
L127.1511 5.0346
" />
<path d="M127.1511 5.0346
L127.2115 4.9136
" />
<path d="M127.2115 4.9136
L127.3325 4.8531
" />
<path d="M127.3325 4.8531
L127.3930 4.8531
" />
<path d="M127.3930 4.8531
L127.5139 4.9136
" />
<path d="M127.5139 4.9136
L127.5744 5.0346
" />
<path d="M127.5744 5.0346
L127.5744 5.0950
" />
<path d="M127.5744 5.0950
L127.5139 5.2160
" />
<path d="M127.5139 5.2160
L127.4534 5.2765
" />
<path d="M127.4534 5.2765
L127.0906 5.5184
" />
<path d="M127.0906 5.5184
L127.0301 5.5788
" />
<path d="M127.0301 5.5788
L126.9696 5.6998
" />
<path d="M126.9696 5.6998
L126.9696 5.8812
" />
<path d="M126.9696 5.8812
L127.0301 6.0022
" />
<path d="M127.0301 6.0022
L127.0906 6.0627
" />
<path d="M127.0906 6.0627
L127.2115 6.1231
" />
<path d="M127.2115 6.1231
L127.3930 6.1231
" />
<path d="M127.3930 6.1231
L127.5139 6.0627
" />
<path d="M127.5139 6.0627
L127.5744 6.0022
" />
<path d="M127.5744 6.0022
L127.7558 5.7603
" />
<path d="M127.7558 5.7603
L127.8163 5.5788
" />
<path d="M127.8163 5.5788
L127.8163 5.4579
" />
<path d="M128.5420 6.1231
L128.5420 4.8531
" />
<path d="M128.5420 4.8531
L128.8444 4.8531
" />
<path d="M128.8444 4.8531
L129.0258 4.9136
" />
<path d="M129.0258 4.9136
L129.1468 5.0346
" />
<path d="M129.1468 5.0346
L129.2073 5.1555
" />
<path d="M129.2073 5.1555
L129.2677 5.3974
" />
<path d="M129.2677 5.3974
L129.2677 5.5788
" />
<path d="M129.2677 5.5788
L129.2073 5.8207
" />
<path d="M129.2073 5.8207
L129.1468 5.9417
" />
<path d="M129.1468 5.9417
L129.0258 6.0627
" />
<path d="M129.0258 6.0627
L128.8444 6.1231
" />
<path d="M128.8444 6.1231
L128.5420 6.1231
" />
<path d="M129.9935 6.1231
L129.8725 6.0627
" />
<path d="M129.8725 6.0627
L129.8120 6.0022
" />
<path d="M129.8120 6.0022
L129.7516 5.8812
" />
<path d="M129.7516 5.8812
L129.7516 5.5184
" />
<path d="M129.7516 5.5184
L129.8120 5.3974
" />
<path d="M129.8120 5.3974
L129.8725 5.3369
" />
<path d="M129.8725 5.3369
L129.9935 5.2765
" />
<path d="M129.9935 5.2765
L130.1749 5.2765
" />
<path d="M130.1749 5.2765
L130.2958 5.3369
" />
<path d="M130.2958 5.3369
L130.3563 5.3974
" />
<path d="M130.3563 5.3974
L130.4168 5.5184
" />
<path d="M130.4168 5.5184
L130.4168 5.8812
" />
<path d="M130.4168 5.8812
L130.3563 6.0022
" />
<path d="M130.3563 6.0022
L130.2958 6.0627
" />
<path d="M130.2958 6.0627
L130.1749 6.1231
" />
<path d="M130.1749 6.1231
L129.9935 6.1231
" />
<path d="M131.5053 6.0627
L131.3844 6.1231
" />
<path d="M131.3844 6.1231
L131.1425 6.1231
" />
<path d="M131.1425 6.1231
L131.0215 6.0627
" />
<path d="M131.0215 6.0627
L130.9610 6.0022
" />
<path d="M130.9610 6.0022
L130.9006 5.8812
" />
<path d="M130.9006 5.8812
L130.9006 5.5184
" />
<path d="M130.9006 5.5184
L130.9610 5.3974
" />
<path d="M130.9610 5.3974
L131.0215 5.3369
" />
<path d="M131.0215 5.3369
L131.1425 5.2765
" />
<path d="M131.1425 5.2765
L131.3844 5.2765
" />
<path d="M131.3844 5.2765
L131.5053 5.3369
" />
<path d="M132.6544 6.1231
L132.0496 6.1231
" />
<path d="M132.0496 6.1231
L132.0496 4.8531
" />
<path d="M133.6220 6.1231
L133.6220 5.4579
" />
<path d="M133.6220 5.4579
L133.5615 5.3369
" />
<path d="M133.5615 5.3369
L133.4406 5.2765
" />
<path d="M133.4406 5.2765
L133.1987 5.2765
" />
<path d="M133.1987 5.2765
L133.0777 5.3369
" />
<path d="M133.6220 6.0627
L133.5011 6.1231
" />
<path d="M133.5011 6.1231
L133.1987 6.1231
" />
<path d="M133.1987 6.1231
L133.0777 6.0627
" />
<path d="M133.0777 6.0627
L133.0173 5.9417
" />
<path d="M133.0173 5.9417
L133.0173 5.8207
" />
<path d="M133.0173 5.8207
L133.0777 5.6998
" />
<path d="M133.0777 5.6998
L133.1987 5.6393
" />
<path d="M133.1987 5.6393
L133.5011 5.6393
" />
<path d="M133.5011 5.6393
L133.6220 5.5788
" />
<path d="M134.2267 5.2765
L134.2267 6.1231
" />
<path d="M134.2267 5.3974
L134.2872 5.3369
" />
<path d="M134.2872 5.3369
L134.4082 5.2765
" />
<path d="M134.4082 5.2765
L134.5896 5.2765
" />
<path d="M134.5896 5.2765
L134.7105 5.3369
" />
<path d="M134.7105 5.3369
L134.7710 5.4579
" />
<path d="M134.7710 5.4579
L134.7710 6.1231
" />
<path d="M135.9200 5.2765
L135.9200 6.3046
" />
<path d="M135.9200 6.3046
L135.8595 6.4255
" />
<path d="M135.8595 6.4255
L135.7991 6.4860
" />
<path d="M135.7991 6.4860
L135.6781 6.5465
" />
<path d="M135.6781 6.5465
L135.4967 6.5465
" />
<path d="M135.4967 6.5465
L135.3757 6.4860
" />
<path d="M135.9200 6.0627
L135.7991 6.1231
" />
<path d="M135.7991 6.1231
L135.5572 6.1231
" />
<path d="M135.5572 6.1231
L135.4362 6.0627
" />
<path d="M135.4362 6.0627
L135.3757 6.0022
" />
<path d="M135.3757 6.0022
L135.3153 5.8812
" />
<path d="M135.3153 5.8812
L135.3153 5.5184
" />
<path d="M135.3153 5.5184
L135.3757 5.3974
" />
<path d="M135.3757 5.3974
L135.4362 5.3369
" />
<path d="M135.4362 5.3369
L135.5572 5.2765
" />
<path d="M135.5572 5.2765
L135.7991 5.2765
" />
<path d="M135.7991 5.2765
L135.9200 5.3369
" />
<path d="M136.5247 5.4579
L137.4924 5.4579
" />
<path d="M137.4924 5.8207
L136.5247 5.8207
" />
<path d="M138.0971 5.4579
L138.5205 5.4579
" />
<path d="M138.7019 6.1231
L138.0971 6.1231
" />
<path d="M138.0971 6.1231
L138.0971 4.8531
" />
<path d="M138.0971 4.8531
L138.7019 4.8531
" />
<path d="M139.2461 5.2765
L139.2461 6.1231
" />
<path d="M139.2461 5.3974
L139.3066 5.3369
" />
<path d="M139.3066 5.3369
L139.4276 5.2765
" />
<path d="M139.4276 5.2765
L139.6090 5.2765
" />
<path d="M139.6090 5.2765
L139.7299 5.3369
" />
<path d="M139.7299 5.3369
L139.7904 5.4579
" />
<path d="M139.7904 5.4579
L139.7904 6.1231
" />
<path d="M140.9394 5.2765
L140.9394 6.3046
" />
<path d="M140.9394 6.3046
L140.8789 6.4255
" />
<path d="M140.8789 6.4255
L140.8185 6.4860
" />
<path d="M140.8185 6.4860
L140.6975 6.5465
" />
<path d="M140.6975 6.5465
L140.5161 6.5465
" />
<path d="M140.5161 6.5465
L140.3951 6.4860
" />
<path d="M140.9394 6.0627
L140.8185 6.1231
" />
<path d="M140.8185 6.1231
L140.5766 6.1231
" />
<path d="M140.5766 6.1231
L140.4556 6.0627
" />
<path d="M140.4556 6.0627
L140.3951 6.0022
" />
<path d="M140.3951 6.0022
L140.3347 5.8812
" />
<path d="M140.3347 5.8812
L140.3347 5.5184
" />
<path d="M140.3347 5.5184
L140.3951 5.3974
" />
<path d="M140.3951 5.3974
L140.4556 5.3369
" />
<path d="M140.4556 5.3369
L140.5766 5.2765
" />
<path d="M140.5766 5.2765
L140.8185 5.2765
" />
<path d="M140.8185 5.2765
L140.9394 5.3369
" />
<path d="M141.7256 6.1231
L141.6046 6.0627
" />
<path d="M141.6046 6.0627
L141.5441 5.9417
" />
<path d="M141.5441 5.9417
L141.5441 4.8531
" />
<path d="M142.2093 6.1231
L142.2093 5.2765
" />
<path d="M142.2093 4.8531
L142.1489 4.9136
" />
<path d="M142.1489 4.9136
L142.2093 4.9741
" />
<path d="M142.2093 4.9741
L142.2698 4.9136
" />
<path d="M142.2698 4.9136
L142.2093 4.8531
" />
<path d="M142.2093 4.8531
L142.2093 4.9741
" />
<path d="M142.7537 6.0627
L142.8746 6.1231
" />
<path d="M142.8746 6.1231
L143.1165 6.1231
" />
<path d="M143.1165 6.1231
L143.2375 6.0627
" />
<path d="M143.2375 6.0627
L143.2979 5.9417
" />
<path d="M143.2979 5.9417
L143.2979 5.8812
" />
<path d="M143.2979 5.8812
L143.2375 5.7603
" />
<path d="M143.2375 5.7603
L143.1165 5.6998
" />
<path d="M143.1165 5.6998
L142.9351 5.6998
" />
<path d="M142.9351 5.6998
L142.8141 5.6393
" />
<path d="M142.8141 5.6393
L142.7537 5.5184
" />
<path d="M142.7537 5.5184
L142.7537 5.4579
" />
<path d="M142.7537 5.4579
L142.8141 5.3369
" />
<path d="M142.8141 5.3369
L142.9351 5.2765
" />
<path d="M142.9351 5.2765
L143.1165 5.2765
" />
<path d="M143.1165 5.2765
L143.2375 5.3369
" />
<path d="M143.8422 6.1231
L143.8422 4.8531
" />
<path d="M144.3865 6.1231
L144.3865 5.4579
" />
<path d="M144.3865 5.4579
L144.3260 5.3369
" />
<path d="M144.3260 5.3369
L144.2051 5.2765
" />
<path d="M144.2051 5.2765
L144.0237 5.2765
" />
<path d="M144.0237 5.2765
L143.9027 5.3369
" />
<path d="M143.9027 5.3369
L143.8422 5.3974
" />
</g></g> 
</svg>
