<?xml version="1.0" standalone="no"?>
 <!DOCTYPE svg PUBLIC "-//W3C//DTD SVG 1.1//EN" 
 "http://www.w3.org/Graphics/SVG/1.1/DTD/svg11.dtd"> 
<svg
  xmlns:svg="http://www.w3.org/2000/svg"
  xmlns="http://www.w3.org/2000/svg"
  xmlns:xlink="http://www.w3.org/1999/xlink"
  version="1.1"
  width="103.1748mm" height="37.5158mm" viewBox="0.0000 0.0000 103.1748 37.5158">
<title>SVG Image created as working.svg date 2023/08/16 00:37:45 </title>
  <desc>Image generated by Eeschema-SVG </desc>
<g style="fill:#000000; fill-opacity:1.0000;stroke:#000000; stroke-opacity:1.0000;
stroke-linecap:round; stroke-linejoin:round;"
 transform="translate(0 0) scale(1 1)">
</g>
<g style="fill:#840000; fill-opacity:0.0; 
stroke:#840000; stroke-width:0.0000; stroke-opacity:1; 
stroke-linecap:round; stroke-linejoin:round;">
</g>
<g style="fill:#840084; fill-opacity:0.0; 
stroke:#840084; stroke-width:0.0000; stroke-opacity:1; 
stroke-linecap:round; stroke-linejoin:round;">
</g>
<g style="fill:#840000; fill-opacity:0.0; 
stroke:#840000; stroke-width:0.0000; stroke-opacity:1; 
stroke-linecap:round; stroke-linejoin:round;">
</g>
<g style="fill:#840084; fill-opacity:0.0; 
stroke:#840084; stroke-width:0.0000; stroke-opacity:1; 
stroke-linecap:round; stroke-linejoin:round;">
</g>
<g style="fill:#006464; fill-opacity:0.0; 
stroke:#006464; stroke-width:0.0000; stroke-opacity:1; 
stroke-linecap:round; stroke-linejoin:round;">
</g>
<g style="fill:#006464; fill-opacity:0.0; 
stroke:#006464; stroke-width:0.1588; stroke-opacity:1; 
stroke-linecap:round; stroke-linejoin:round;">
<text x="43.9663" y="4.7819"
textLength="2.6415" font-size="1.6933" lengthAdjust="spacingAndGlyphs"
text-anchor="middle" opacity="0">U?</text>
<g class="stroked-text"><desc>U?</desc>
<path d="M43.0591 3.4561
L43.0591 4.4842
" />
<path d="M43.0591 4.4842
L43.1196 4.6052
" />
<path d="M43.1196 4.6052
L43.1801 4.6657
" />
<path d="M43.1801 4.6657
L43.3010 4.7261
" />
<path d="M43.3010 4.7261
L43.5429 4.7261
" />
<path d="M43.5429 4.7261
L43.6639 4.6657
" />
<path d="M43.6639 4.6657
L43.7244 4.6052
" />
<path d="M43.7244 4.6052
L43.7848 4.4842
" />
<path d="M43.7848 4.4842
L43.7848 3.4561
" />
<path d="M44.5711 4.6052
L44.6315 4.6657
" />
<path d="M44.6315 4.6657
L44.5711 4.7261
" />
<path d="M44.5711 4.7261
L44.5106 4.6657
" />
<path d="M44.5106 4.6657
L44.5711 4.6052
" />
<path d="M44.5711 4.6052
L44.5711 4.7261
" />
<path d="M44.3292 3.5166
L44.4501 3.4561
" />
<path d="M44.4501 3.4561
L44.7525 3.4561
" />
<path d="M44.7525 3.4561
L44.8734 3.5166
" />
<path d="M44.8734 3.5166
L44.9339 3.6376
" />
<path d="M44.9339 3.6376
L44.9339 3.7585
" />
<path d="M44.9339 3.7585
L44.8734 3.8795
" />
<path d="M44.8734 3.8795
L44.8130 3.9399
" />
<path d="M44.8130 3.9399
L44.6920 4.0004
" />
<path d="M44.6920 4.0004
L44.6315 4.0609
" />
<path d="M44.6315 4.0609
L44.5711 4.1818
" />
<path d="M44.5711 4.1818
L44.5711 4.2423
" />
</g><text x="54.1263" y="4.7819"
textLength="11.4104" font-size="1.6933" lengthAdjust="spacingAndGlyphs"
text-anchor="middle" opacity="0">AP63203WU</text>
<g class="stroked-text"><desc>AP63203WU</desc>
<path d="M48.7742 4.3633
L49.3789 4.3633
" />
<path d="M48.6532 4.7261
L49.0765 3.4561
" />
<path d="M49.0765 3.4561
L49.4999 4.7261
" />
<path d="M49.9232 4.7261
L49.9232 3.4561
" />
<path d="M49.9232 3.4561
L50.4070 3.4561
" />
<path d="M50.4070 3.4561
L50.5280 3.5166
" />
<path d="M50.5280 3.5166
L50.5885 3.5771
" />
<path d="M50.5885 3.5771
L50.6489 3.6980
" />
<path d="M50.6489 3.6980
L50.6489 3.8795
" />
<path d="M50.6489 3.8795
L50.5885 4.0004
" />
<path d="M50.5885 4.0004
L50.5280 4.0609
" />
<path d="M50.5280 4.0609
L50.4070 4.1214
" />
<path d="M50.4070 4.1214
L49.9232 4.1214
" />
<path d="M51.7375 3.4561
L51.4956 3.4561
" />
<path d="M51.4956 3.4561
L51.3747 3.5166
" />
<path d="M51.3747 3.5166
L51.3142 3.5771
" />
<path d="M51.3142 3.5771
L51.1932 3.7585
" />
<path d="M51.1932 3.7585
L51.1328 4.0004
" />
<path d="M51.1328 4.0004
L51.1328 4.4842
" />
<path d="M51.1328 4.4842
L51.1932 4.6052
" />
<path d="M51.1932 4.6052
L51.2537 4.6657
" />
<path d="M51.2537 4.6657
L51.3747 4.7261
" />
<path d="M51.3747 4.7261
L51.6166 4.7261
" />
<path d="M51.6166 4.7261
L51.7375 4.6657
" />
<path d="M51.7375 4.6657
L51.7980 4.6052
" />
<path d="M51.7980 4.6052
L51.8585 4.4842
" />
<path d="M51.8585 4.4842
L51.8585 4.1818
" />
<path d="M51.8585 4.1818
L51.7980 4.0609
" />
<path d="M51.7980 4.0609
L51.7375 4.0004
" />
<path d="M51.7375 4.0004
L51.6166 3.9399
" />
<path d="M51.6166 3.9399
L51.3747 3.9399
" />
<path d="M51.3747 3.9399
L51.2537 4.0004
" />
<path d="M51.2537 4.0004
L51.1932 4.0609
" />
<path d="M51.1932 4.0609
L51.1328 4.1818
" />
<path d="M52.2818 3.4561
L53.0680 3.4561
" />
<path d="M53.0680 3.4561
L52.6446 3.9399
" />
<path d="M52.6446 3.9399
L52.8261 3.9399
" />
<path d="M52.8261 3.9399
L52.9470 4.0004
" />
<path d="M52.9470 4.0004
L53.0075 4.0609
" />
<path d="M53.0075 4.0609
L53.0680 4.1818
" />
<path d="M53.0680 4.1818
L53.0680 4.4842
" />
<path d="M53.0680 4.4842
L53.0075 4.6052
" />
<path d="M53.0075 4.6052
L52.9470 4.6657
" />
<path d="M52.9470 4.6657
L52.8261 4.7261
" />
<path d="M52.8261 4.7261
L52.4632 4.7261
" />
<path d="M52.4632 4.7261
L52.3423 4.6657
" />
<path d="M52.3423 4.6657
L52.2818 4.6052
" />
<path d="M53.5518 3.5771
L53.6122 3.5166
" />
<path d="M53.6122 3.5166
L53.7332 3.4561
" />
<path d="M53.7332 3.4561
L54.0356 3.4561
" />
<path d="M54.0356 3.4561
L54.1565 3.5166
" />
<path d="M54.1565 3.5166
L54.2170 3.5771
" />
<path d="M54.2170 3.5771
L54.2775 3.6980
" />
<path d="M54.2775 3.6980
L54.2775 3.8190
" />
<path d="M54.2775 3.8190
L54.2170 4.0004
" />
<path d="M54.2170 4.0004
L53.4913 4.7261
" />
<path d="M53.4913 4.7261
L54.2775 4.7261
" />
<path d="M55.0636 3.4561
L55.1846 3.4561
" />
<path d="M55.1846 3.4561
L55.3055 3.5166
" />
<path d="M55.3055 3.5166
L55.3660 3.5771
" />
<path d="M55.3660 3.5771
L55.4265 3.6980
" />
<path d="M55.4265 3.6980
L55.4870 3.9399
" />
<path d="M55.4870 3.9399
L55.4870 4.2423
" />
<path d="M55.4870 4.2423
L55.4265 4.4842
" />
<path d="M55.4265 4.4842
L55.3660 4.6052
" />
<path d="M55.3660 4.6052
L55.3055 4.6657
" />
<path d="M55.3055 4.6657
L55.1846 4.7261
" />
<path d="M55.1846 4.7261
L55.0636 4.7261
" />
<path d="M55.0636 4.7261
L54.9427 4.6657
" />
<path d="M54.9427 4.6657
L54.8822 4.6052
" />
<path d="M54.8822 4.6052
L54.8217 4.4842
" />
<path d="M54.8217 4.4842
L54.7613 4.2423
" />
<path d="M54.7613 4.2423
L54.7613 3.9399
" />
<path d="M54.7613 3.9399
L54.8217 3.6980
" />
<path d="M54.8217 3.6980
L54.8822 3.5771
" />
<path d="M54.8822 3.5771
L54.9427 3.5166
" />
<path d="M54.9427 3.5166
L55.0636 3.4561
" />
<path d="M55.9103 3.4561
L56.6965 3.4561
" />
<path d="M56.6965 3.4561
L56.2731 3.9399
" />
<path d="M56.2731 3.9399
L56.4546 3.9399
" />
<path d="M56.4546 3.9399
L56.5755 4.0004
" />
<path d="M56.5755 4.0004
L56.6360 4.0609
" />
<path d="M56.6360 4.0609
L56.6965 4.1818
" />
<path d="M56.6965 4.1818
L56.6965 4.4842
" />
<path d="M56.6965 4.4842
L56.6360 4.6052
" />
<path d="M56.6360 4.6052
L56.5755 4.6657
" />
<path d="M56.5755 4.6657
L56.4546 4.7261
" />
<path d="M56.4546 4.7261
L56.0917 4.7261
" />
<path d="M56.0917 4.7261
L55.9708 4.6657
" />
<path d="M55.9708 4.6657
L55.9103 4.6052
" />
<path d="M57.1198 3.4561
L57.4222 4.7261
" />
<path d="M57.4222 4.7261
L57.6641 3.8190
" />
<path d="M57.6641 3.8190
L57.9060 4.7261
" />
<path d="M57.9060 4.7261
L58.2084 3.4561
" />
<path d="M58.6921 3.4561
L58.6921 4.4842
" />
<path d="M58.6921 4.4842
L58.7526 4.6052
" />
<path d="M58.7526 4.6052
L58.8131 4.6657
" />
<path d="M58.8131 4.6657
L58.9340 4.7261
" />
<path d="M58.9340 4.7261
L59.1759 4.7261
" />
<path d="M59.1759 4.7261
L59.2969 4.6657
" />
<path d="M59.2969 4.6657
L59.3574 4.6052
" />
<path d="M59.3574 4.6052
L59.4178 4.4842
" />
<path d="M59.4178 4.4842
L59.4178 3.4561
" />
</g></g>
<g style="fill:#840084; fill-opacity:0.0; 
stroke:#840084; stroke-width:0.1588; stroke-opacity:1; 
stroke-linecap:round; stroke-linejoin:round;">
<text x="51.5863" y="33.9919"
textLength="32.6374" font-size="1.6933" lengthAdjust="spacingAndGlyphs"
text-anchor="middle" opacity="0">Package_TO_SOT_SMD:TSOT-23-6</text>
<g class="stroked-text"><desc>Package_TO_SOT_SMD:TSOT-23-6</desc>
<path d="M35.6811 33.9361
L35.6811 32.6661
" />
<path d="M35.6811 32.6661
L36.1649 32.6661
" />
<path d="M36.1649 32.6661
L36.2859 32.7266
" />
<path d="M36.2859 32.7266
L36.3464 32.7871
" />
<path d="M36.3464 32.7871
L36.4068 32.9080
" />
<path d="M36.4068 32.9080
L36.4068 33.0895
" />
<path d="M36.4068 33.0895
L36.3464 33.2104
" />
<path d="M36.3464 33.2104
L36.2859 33.2709
" />
<path d="M36.2859 33.2709
L36.1649 33.3314
" />
<path d="M36.1649 33.3314
L35.6811 33.3314
" />
<path d="M37.4954 33.9361
L37.4954 33.2709
" />
<path d="M37.4954 33.2709
L37.4349 33.1499
" />
<path d="M37.4349 33.1499
L37.3140 33.0895
" />
<path d="M37.3140 33.0895
L37.0721 33.0895
" />
<path d="M37.0721 33.0895
L36.9511 33.1499
" />
<path d="M37.4954 33.8757
L37.3745 33.9361
" />
<path d="M37.3745 33.9361
L37.0721 33.9361
" />
<path d="M37.0721 33.9361
L36.9511 33.8757
" />
<path d="M36.9511 33.8757
L36.8907 33.7547
" />
<path d="M36.8907 33.7547
L36.8907 33.6337
" />
<path d="M36.8907 33.6337
L36.9511 33.5128
" />
<path d="M36.9511 33.5128
L37.0721 33.4523
" />
<path d="M37.0721 33.4523
L37.3745 33.4523
" />
<path d="M37.3745 33.4523
L37.4954 33.3918
" />
<path d="M38.6444 33.8757
L38.5235 33.9361
" />
<path d="M38.5235 33.9361
L38.2816 33.9361
" />
<path d="M38.2816 33.9361
L38.1606 33.8757
" />
<path d="M38.1606 33.8757
L38.1001 33.8152
" />
<path d="M38.1001 33.8152
L38.0397 33.6942
" />
<path d="M38.0397 33.6942
L38.0397 33.3314
" />
<path d="M38.0397 33.3314
L38.1001 33.2104
" />
<path d="M38.1001 33.2104
L38.1606 33.1499
" />
<path d="M38.1606 33.1499
L38.2816 33.0895
" />
<path d="M38.2816 33.0895
L38.5235 33.0895
" />
<path d="M38.5235 33.0895
L38.6444 33.1499
" />
<path d="M39.1887 33.9361
L39.1887 32.6661
" />
<path d="M39.3097 33.4523
L39.6725 33.9361
" />
<path d="M39.6725 33.0895
L39.1887 33.5733
" />
<path d="M40.7611 33.9361
L40.7611 33.2709
" />
<path d="M40.7611 33.2709
L40.7006 33.1499
" />
<path d="M40.7006 33.1499
L40.5797 33.0895
" />
<path d="M40.5797 33.0895
L40.3378 33.0895
" />
<path d="M40.3378 33.0895
L40.2168 33.1499
" />
<path d="M40.7611 33.8757
L40.6402 33.9361
" />
<path d="M40.6402 33.9361
L40.3378 33.9361
" />
<path d="M40.3378 33.9361
L40.2168 33.8757
" />
<path d="M40.2168 33.8757
L40.1564 33.7547
" />
<path d="M40.1564 33.7547
L40.1564 33.6337
" />
<path d="M40.1564 33.6337
L40.2168 33.5128
" />
<path d="M40.2168 33.5128
L40.3378 33.4523
" />
<path d="M40.3378 33.4523
L40.6402 33.4523
" />
<path d="M40.6402 33.4523
L40.7611 33.3918
" />
<path d="M41.9101 33.0895
L41.9101 34.1176
" />
<path d="M41.9101 34.1176
L41.8496 34.2385
" />
<path d="M41.8496 34.2385
L41.7892 34.2990
" />
<path d="M41.7892 34.2990
L41.6682 34.3595
" />
<path d="M41.6682 34.3595
L41.4868 34.3595
" />
<path d="M41.4868 34.3595
L41.3658 34.2990
" />
<path d="M41.9101 33.8757
L41.7892 33.9361
" />
<path d="M41.7892 33.9361
L41.5473 33.9361
" />
<path d="M41.5473 33.9361
L41.4263 33.8757
" />
<path d="M41.4263 33.8757
L41.3658 33.8152
" />
<path d="M41.3658 33.8152
L41.3054 33.6942
" />
<path d="M41.3054 33.6942
L41.3054 33.3314
" />
<path d="M41.3054 33.3314
L41.3658 33.2104
" />
<path d="M41.3658 33.2104
L41.4263 33.1499
" />
<path d="M41.4263 33.1499
L41.5473 33.0895
" />
<path d="M41.5473 33.0895
L41.7892 33.0895
" />
<path d="M41.7892 33.0895
L41.9101 33.1499
" />
<path d="M42.9986 33.8757
L42.8777 33.9361
" />
<path d="M42.8777 33.9361
L42.6358 33.9361
" />
<path d="M42.6358 33.9361
L42.5148 33.8757
" />
<path d="M42.5148 33.8757
L42.4544 33.7547
" />
<path d="M42.4544 33.7547
L42.4544 33.2709
" />
<path d="M42.4544 33.2709
L42.5148 33.1499
" />
<path d="M42.5148 33.1499
L42.6358 33.0895
" />
<path d="M42.6358 33.0895
L42.8777 33.0895
" />
<path d="M42.8777 33.0895
L42.9986 33.1499
" />
<path d="M42.9986 33.1499
L43.0591 33.2709
" />
<path d="M43.0591 33.2709
L43.0591 33.3918
" />
<path d="M43.0591 33.3918
L42.4544 33.5128
" />
<path d="M43.3011 34.0571
L44.2687 34.0571
" />
<path d="M44.3896 32.6661
L45.1153 32.6661
" />
<path d="M44.7525 33.9361
L44.7525 32.6661
" />
<path d="M45.7805 32.6661
L46.0224 32.6661
" />
<path d="M46.0224 32.6661
L46.1434 32.7266
" />
<path d="M46.1434 32.7266
L46.2643 32.8476
" />
<path d="M46.2643 32.8476
L46.3248 33.0895
" />
<path d="M46.3248 33.0895
L46.3248 33.5128
" />
<path d="M46.3248 33.5128
L46.2643 33.7547
" />
<path d="M46.2643 33.7547
L46.1434 33.8757
" />
<path d="M46.1434 33.8757
L46.0224 33.9361
" />
<path d="M46.0224 33.9361
L45.7805 33.9361
" />
<path d="M45.7805 33.9361
L45.6596 33.8757
" />
<path d="M45.6596 33.8757
L45.5386 33.7547
" />
<path d="M45.5386 33.7547
L45.4782 33.5128
" />
<path d="M45.4782 33.5128
L45.4782 33.0895
" />
<path d="M45.4782 33.0895
L45.5386 32.8476
" />
<path d="M45.5386 32.8476
L45.6596 32.7266
" />
<path d="M45.6596 32.7266
L45.7805 32.6661
" />
<path d="M46.5668 34.0571
L47.5344 34.0571
" />
<path d="M47.7763 33.8757
L47.9577 33.9361
" />
<path d="M47.9577 33.9361
L48.2601 33.9361
" />
<path d="M48.2601 33.9361
L48.3810 33.8757
" />
<path d="M48.3810 33.8757
L48.4415 33.8152
" />
<path d="M48.4415 33.8152
L48.5020 33.6942
" />
<path d="M48.5020 33.6942
L48.5020 33.5733
" />
<path d="M48.5020 33.5733
L48.4415 33.4523
" />
<path d="M48.4415 33.4523
L48.3810 33.3918
" />
<path d="M48.3810 33.3918
L48.2601 33.3314
" />
<path d="M48.2601 33.3314
L48.0182 33.2709
" />
<path d="M48.0182 33.2709
L47.8972 33.2104
" />
<path d="M47.8972 33.2104
L47.8367 33.1499
" />
<path d="M47.8367 33.1499
L47.7763 33.0290
" />
<path d="M47.7763 33.0290
L47.7763 32.9080
" />
<path d="M47.7763 32.9080
L47.8367 32.7871
" />
<path d="M47.8367 32.7871
L47.8972 32.7266
" />
<path d="M47.8972 32.7266
L48.0182 32.6661
" />
<path d="M48.0182 32.6661
L48.3205 32.6661
" />
<path d="M48.3205 32.6661
L48.5020 32.7266
" />
<path d="M49.2881 32.6661
L49.5300 32.6661
" />
<path d="M49.5300 32.6661
L49.6510 32.7266
" />
<path d="M49.6510 32.7266
L49.7719 32.8476
" />
<path d="M49.7719 32.8476
L49.8324 33.0895
" />
<path d="M49.8324 33.0895
L49.8324 33.5128
" />
<path d="M49.8324 33.5128
L49.7719 33.7547
" />
<path d="M49.7719 33.7547
L49.6510 33.8757
" />
<path d="M49.6510 33.8757
L49.5300 33.9361
" />
<path d="M49.5300 33.9361
L49.2881 33.9361
" />
<path d="M49.2881 33.9361
L49.1672 33.8757
" />
<path d="M49.1672 33.8757
L49.0462 33.7547
" />
<path d="M49.0462 33.7547
L48.9858 33.5128
" />
<path d="M48.9858 33.5128
L48.9858 33.0895
" />
<path d="M48.9858 33.0895
L49.0462 32.8476
" />
<path d="M49.0462 32.8476
L49.1672 32.7266
" />
<path d="M49.1672 32.7266
L49.2881 32.6661
" />
<path d="M50.1953 32.6661
L50.9210 32.6661
" />
<path d="M50.5582 33.9361
L50.5582 32.6661
" />
<path d="M51.0420 34.0571
L52.0096 34.0571
" />
<path d="M52.2515 33.8757
L52.4329 33.9361
" />
<path d="M52.4329 33.9361
L52.7353 33.9361
" />
<path d="M52.7353 33.9361
L52.8562 33.8757
" />
<path d="M52.8562 33.8757
L52.9167 33.8152
" />
<path d="M52.9167 33.8152
L52.9772 33.6942
" />
<path d="M52.9772 33.6942
L52.9772 33.5733
" />
<path d="M52.9772 33.5733
L52.9167 33.4523
" />
<path d="M52.9167 33.4523
L52.8562 33.3918
" />
<path d="M52.8562 33.3918
L52.7353 33.3314
" />
<path d="M52.7353 33.3314
L52.4934 33.2709
" />
<path d="M52.4934 33.2709
L52.3724 33.2104
" />
<path d="M52.3724 33.2104
L52.3119 33.1499
" />
<path d="M52.3119 33.1499
L52.2515 33.0290
" />
<path d="M52.2515 33.0290
L52.2515 32.9080
" />
<path d="M52.2515 32.9080
L52.3119 32.7871
" />
<path d="M52.3119 32.7871
L52.3724 32.7266
" />
<path d="M52.3724 32.7266
L52.4934 32.6661
" />
<path d="M52.4934 32.6661
L52.7957 32.6661
" />
<path d="M52.7957 32.6661
L52.9772 32.7266
" />
<path d="M53.5214 33.9361
L53.5214 32.6661
" />
<path d="M53.5214 32.6661
L53.9448 33.5733
" />
<path d="M53.9448 33.5733
L54.3681 32.6661
" />
<path d="M54.3681 32.6661
L54.3681 33.9361
" />
<path d="M54.9728 33.9361
L54.9728 32.6661
" />
<path d="M54.9728 32.6661
L55.2752 32.6661
" />
<path d="M55.2752 32.6661
L55.4566 32.7266
" />
<path d="M55.4566 32.7266
L55.5776 32.8476
" />
<path d="M55.5776 32.8476
L55.6381 32.9685
" />
<path d="M55.6381 32.9685
L55.6985 33.2104
" />
<path d="M55.6985 33.2104
L55.6985 33.3918
" />
<path d="M55.6985 33.3918
L55.6381 33.6337
" />
<path d="M55.6381 33.6337
L55.5776 33.7547
" />
<path d="M55.5776 33.7547
L55.4566 33.8757
" />
<path d="M55.4566 33.8757
L55.2752 33.9361
" />
<path d="M55.2752 33.9361
L54.9728 33.9361
" />
<path d="M56.2428 33.8152
L56.3033 33.8757
" />
<path d="M56.3033 33.8757
L56.2428 33.9361
" />
<path d="M56.2428 33.9361
L56.1824 33.8757
" />
<path d="M56.1824 33.8757
L56.2428 33.8152
" />
<path d="M56.2428 33.8152
L56.2428 33.9361
" />
<path d="M56.2428 33.1499
L56.3033 33.2104
" />
<path d="M56.3033 33.2104
L56.2428 33.2709
" />
<path d="M56.2428 33.2709
L56.1824 33.2104
" />
<path d="M56.1824 33.2104
L56.2428 33.1499
" />
<path d="M56.2428 33.1499
L56.2428 33.2709
" />
<path d="M56.6662 32.6661
L57.3919 32.6661
" />
<path d="M57.0291 33.9361
L57.0291 32.6661
" />
<path d="M57.7548 33.8757
L57.9362 33.9361
" />
<path d="M57.9362 33.9361
L58.2386 33.9361
" />
<path d="M58.2386 33.9361
L58.3595 33.8757
" />
<path d="M58.3595 33.8757
L58.4200 33.8152
" />
<path d="M58.4200 33.8152
L58.4805 33.6942
" />
<path d="M58.4805 33.6942
L58.4805 33.5733
" />
<path d="M58.4805 33.5733
L58.4200 33.4523
" />
<path d="M58.4200 33.4523
L58.3595 33.3918
" />
<path d="M58.3595 33.3918
L58.2386 33.3314
" />
<path d="M58.2386 33.3314
L57.9967 33.2709
" />
<path d="M57.9967 33.2709
L57.8757 33.2104
" />
<path d="M57.8757 33.2104
L57.8152 33.1499
" />
<path d="M57.8152 33.1499
L57.7548 33.0290
" />
<path d="M57.7548 33.0290
L57.7548 32.9080
" />
<path d="M57.7548 32.9080
L57.8152 32.7871
" />
<path d="M57.8152 32.7871
L57.8757 32.7266
" />
<path d="M57.8757 32.7266
L57.9967 32.6661
" />
<path d="M57.9967 32.6661
L58.2990 32.6661
" />
<path d="M58.2990 32.6661
L58.4805 32.7266
" />
<path d="M59.2666 32.6661
L59.5085 32.6661
" />
<path d="M59.5085 32.6661
L59.6295 32.7266
" />
<path d="M59.6295 32.7266
L59.7504 32.8476
" />
<path d="M59.7504 32.8476
L59.8109 33.0895
" />
<path d="M59.8109 33.0895
L59.8109 33.5128
" />
<path d="M59.8109 33.5128
L59.7504 33.7547
" />
<path d="M59.7504 33.7547
L59.6295 33.8757
" />
<path d="M59.6295 33.8757
L59.5085 33.9361
" />
<path d="M59.5085 33.9361
L59.2666 33.9361
" />
<path d="M59.2666 33.9361
L59.1457 33.8757
" />
<path d="M59.1457 33.8757
L59.0247 33.7547
" />
<path d="M59.0247 33.7547
L58.9643 33.5128
" />
<path d="M58.9643 33.5128
L58.9643 33.0895
" />
<path d="M58.9643 33.0895
L59.0247 32.8476
" />
<path d="M59.0247 32.8476
L59.1457 32.7266
" />
<path d="M59.1457 32.7266
L59.2666 32.6661
" />
<path d="M60.1738 32.6661
L60.8995 32.6661
" />
<path d="M60.5367 33.9361
L60.5367 32.6661
" />
<path d="M61.3228 33.4523
L62.2905 33.4523
" />
<path d="M62.8348 32.7871
L62.8952 32.7266
" />
<path d="M62.8952 32.7266
L63.0162 32.6661
" />
<path d="M63.0162 32.6661
L63.3186 32.6661
" />
<path d="M63.3186 32.6661
L63.4395 32.7266
" />
<path d="M63.4395 32.7266
L63.5000 32.7871
" />
<path d="M63.5000 32.7871
L63.5605 32.9080
" />
<path d="M63.5605 32.9080
L63.5605 33.0290
" />
<path d="M63.5605 33.0290
L63.5000 33.2104
" />
<path d="M63.5000 33.2104
L62.7743 33.9361
" />
<path d="M62.7743 33.9361
L63.5605 33.9361
" />
<path d="M63.9838 32.6661
L64.7700 32.6661
" />
<path d="M64.7700 32.6661
L64.3466 33.1499
" />
<path d="M64.3466 33.1499
L64.5281 33.1499
" />
<path d="M64.5281 33.1499
L64.6490 33.2104
" />
<path d="M64.6490 33.2104
L64.7095 33.2709
" />
<path d="M64.7095 33.2709
L64.7700 33.3918
" />
<path d="M64.7700 33.3918
L64.7700 33.6942
" />
<path d="M64.7700 33.6942
L64.7095 33.8152
" />
<path d="M64.7095 33.8152
L64.6490 33.8757
" />
<path d="M64.6490 33.8757
L64.5281 33.9361
" />
<path d="M64.5281 33.9361
L64.1652 33.9361
" />
<path d="M64.1652 33.9361
L64.0443 33.8757
" />
<path d="M64.0443 33.8757
L63.9838 33.8152
" />
<path d="M65.3142 33.4523
L66.2819 33.4523
" />
<path d="M67.4309 32.6661
L67.1890 32.6661
" />
<path d="M67.1890 32.6661
L67.0681 32.7266
" />
<path d="M67.0681 32.7266
L67.0076 32.7871
" />
<path d="M67.0076 32.7871
L66.8866 32.9685
" />
<path d="M66.8866 32.9685
L66.8262 33.2104
" />
<path d="M66.8262 33.2104
L66.8262 33.6942
" />
<path d="M66.8262 33.6942
L66.8866 33.8152
" />
<path d="M66.8866 33.8152
L66.9471 33.8757
" />
<path d="M66.9471 33.8757
L67.0681 33.9361
" />
<path d="M67.0681 33.9361
L67.3100 33.9361
" />
<path d="M67.3100 33.9361
L67.4309 33.8757
" />
<path d="M67.4309 33.8757
L67.4914 33.8152
" />
<path d="M67.4914 33.8152
L67.5519 33.6942
" />
<path d="M67.5519 33.6942
L67.5519 33.3918
" />
<path d="M67.5519 33.3918
L67.4914 33.2709
" />
<path d="M67.4914 33.2709
L67.4309 33.2104
" />
<path d="M67.4309 33.2104
L67.3100 33.1499
" />
<path d="M67.3100 33.1499
L67.0681 33.1499
" />
<path d="M67.0681 33.1499
L66.9471 33.2104
" />
<path d="M66.9471 33.2104
L66.8866 33.2709
" />
<path d="M66.8866 33.2709
L66.8262 33.3918
" />
</g><text x="51.5863" y="11.1319"
textLength="85.9772" font-size="1.6933" lengthAdjust="spacingAndGlyphs"
text-anchor="middle" opacity="0">https://www.diodes.com/assets/Datasheets/AP63200-AP63201-AP63203-AP63205.pdf</text>
<g class="stroked-text"><desc>https://www.diodes.com/assets/Datasheets/AP63200-AP63201-AP63203-AP63205.pdf</desc>
<path d="M9.0112 11.0761
L9.0112 9.8061
" />
<path d="M9.5555 11.0761
L9.5555 10.4109
" />
<path d="M9.5555 10.4109
L9.4950 10.2899
" />
<path d="M9.4950 10.2899
L9.3741 10.2295
" />
<path d="M9.3741 10.2295
L9.1927 10.2295
" />
<path d="M9.1927 10.2295
L9.0717 10.2899
" />
<path d="M9.0717 10.2899
L9.0112 10.3504
" />
<path d="M9.9788 10.2295
L10.4626 10.2295
" />
<path d="M10.1602 9.8061
L10.1602 10.8947
" />
<path d="M10.1602 10.8947
L10.2207 11.0157
" />
<path d="M10.2207 11.0157
L10.3417 11.0761
" />
<path d="M10.3417 11.0761
L10.4626 11.0761
" />
<path d="M10.7045 10.2295
L11.1883 10.2295
" />
<path d="M10.8859 9.8061
L10.8859 10.8947
" />
<path d="M10.8859 10.8947
L10.9464 11.0157
" />
<path d="M10.9464 11.0157
L11.0674 11.0761
" />
<path d="M11.0674 11.0761
L11.1883 11.0761
" />
<path d="M11.6116 10.2295
L11.6116 11.4995
" />
<path d="M11.6116 10.2899
L11.7326 10.2295
" />
<path d="M11.7326 10.2295
L11.9745 10.2295
" />
<path d="M11.9745 10.2295
L12.0954 10.2899
" />
<path d="M12.0954 10.2899
L12.1559 10.3504
" />
<path d="M12.1559 10.3504
L12.2164 10.4714
" />
<path d="M12.2164 10.4714
L12.2164 10.8342
" />
<path d="M12.2164 10.8342
L12.1559 10.9552
" />
<path d="M12.1559 10.9552
L12.0954 11.0157
" />
<path d="M12.0954 11.0157
L11.9745 11.0761
" />
<path d="M11.9745 11.0761
L11.7326 11.0761
" />
<path d="M11.7326 11.0761
L11.6116 11.0157
" />
<path d="M12.7002 11.0157
L12.8211 11.0761
" />
<path d="M12.8211 11.0761
L13.0630 11.0761
" />
<path d="M13.0630 11.0761
L13.1840 11.0157
" />
<path d="M13.1840 11.0157
L13.2444 10.8947
" />
<path d="M13.2444 10.8947
L13.2444 10.8342
" />
<path d="M13.2444 10.8342
L13.1840 10.7133
" />
<path d="M13.1840 10.7133
L13.0630 10.6528
" />
<path d="M13.0630 10.6528
L12.8816 10.6528
" />
<path d="M12.8816 10.6528
L12.7606 10.5923
" />
<path d="M12.7606 10.5923
L12.7002 10.4714
" />
<path d="M12.7002 10.4714
L12.7002 10.4109
" />
<path d="M12.7002 10.4109
L12.7606 10.2899
" />
<path d="M12.7606 10.2899
L12.8816 10.2295
" />
<path d="M12.8816 10.2295
L13.0630 10.2295
" />
<path d="M13.0630 10.2295
L13.1840 10.2899
" />
<path d="M13.7887 10.9552
L13.8492 11.0157
" />
<path d="M13.8492 11.0157
L13.7887 11.0761
" />
<path d="M13.7887 11.0761
L13.7283 11.0157
" />
<path d="M13.7283 11.0157
L13.7887 10.9552
" />
<path d="M13.7887 10.9552
L13.7887 11.0761
" />
<path d="M13.7887 10.2899
L13.8492 10.3504
" />
<path d="M13.8492 10.3504
L13.7887 10.4109
" />
<path d="M13.7887 10.4109
L13.7283 10.3504
" />
<path d="M13.7283 10.3504
L13.7887 10.2899
" />
<path d="M13.7887 10.2899
L13.7887 10.4109
" />
<path d="M15.3007 9.7457
L14.2121 11.3785
" />
<path d="M16.6312 9.7457
L15.5426 11.3785
" />
<path d="M16.9336 10.2295
L17.1755 11.0761
" />
<path d="M17.1755 11.0761
L17.4174 10.4714
" />
<path d="M17.4174 10.4714
L17.6593 11.0761
" />
<path d="M17.6593 11.0761
L17.9012 10.2295
" />
<path d="M18.2641 10.2295
L18.5060 11.0761
" />
<path d="M18.5060 11.0761
L18.7479 10.4714
" />
<path d="M18.7479 10.4714
L18.9898 11.0761
" />
<path d="M18.9898 11.0761
L19.2317 10.2295
" />
<path d="M19.5946 10.2295
L19.8365 11.0761
" />
<path d="M19.8365 11.0761
L20.0784 10.4714
" />
<path d="M20.0784 10.4714
L20.3203 11.0761
" />
<path d="M20.3203 11.0761
L20.5622 10.2295
" />
<path d="M21.0460 10.9552
L21.1065 11.0157
" />
<path d="M21.1065 11.0157
L21.0460 11.0761
" />
<path d="M21.0460 11.0761
L20.9856 11.0157
" />
<path d="M20.9856 11.0157
L21.0460 10.9552
" />
<path d="M21.0460 10.9552
L21.0460 11.0761
" />
<path d="M22.1951 11.0761
L22.1951 9.8061
" />
<path d="M22.1951 11.0157
L22.0742 11.0761
" />
<path d="M22.0742 11.0761
L21.8323 11.0761
" />
<path d="M21.8323 11.0761
L21.7113 11.0157
" />
<path d="M21.7113 11.0157
L21.6508 10.9552
" />
<path d="M21.6508 10.9552
L21.5904 10.8342
" />
<path d="M21.5904 10.8342
L21.5904 10.4714
" />
<path d="M21.5904 10.4714
L21.6508 10.3504
" />
<path d="M21.6508 10.3504
L21.7113 10.2899
" />
<path d="M21.7113 10.2899
L21.8323 10.2295
" />
<path d="M21.8323 10.2295
L22.0742 10.2295
" />
<path d="M22.0742 10.2295
L22.1951 10.2899
" />
<path d="M22.7998 11.0761
L22.7998 10.2295
" />
<path d="M22.7998 9.8061
L22.7394 9.8666
" />
<path d="M22.7394 9.8666
L22.7998 9.9271
" />
<path d="M22.7998 9.9271
L22.8603 9.8666
" />
<path d="M22.8603 9.8666
L22.7998 9.8061
" />
<path d="M22.7998 9.8061
L22.7998 9.9271
" />
<path d="M23.5861 11.0761
L23.4651 11.0157
" />
<path d="M23.4651 11.0157
L23.4046 10.9552
" />
<path d="M23.4046 10.9552
L23.3442 10.8342
" />
<path d="M23.3442 10.8342
L23.3442 10.4714
" />
<path d="M23.3442 10.4714
L23.4046 10.3504
" />
<path d="M23.4046 10.3504
L23.4651 10.2899
" />
<path d="M23.4651 10.2899
L23.5861 10.2295
" />
<path d="M23.5861 10.2295
L23.7675 10.2295
" />
<path d="M23.7675 10.2295
L23.8884 10.2899
" />
<path d="M23.8884 10.2899
L23.9489 10.3504
" />
<path d="M23.9489 10.3504
L24.0094 10.4714
" />
<path d="M24.0094 10.4714
L24.0094 10.8342
" />
<path d="M24.0094 10.8342
L23.9489 10.9552
" />
<path d="M23.9489 10.9552
L23.8884 11.0157
" />
<path d="M23.8884 11.0157
L23.7675 11.0761
" />
<path d="M23.7675 11.0761
L23.5861 11.0761
" />
<path d="M25.0979 11.0761
L25.0979 9.8061
" />
<path d="M25.0979 11.0157
L24.9770 11.0761
" />
<path d="M24.9770 11.0761
L24.7351 11.0761
" />
<path d="M24.7351 11.0761
L24.6141 11.0157
" />
<path d="M24.6141 11.0157
L24.5536 10.9552
" />
<path d="M24.5536 10.9552
L24.4932 10.8342
" />
<path d="M24.4932 10.8342
L24.4932 10.4714
" />
<path d="M24.4932 10.4714
L24.5536 10.3504
" />
<path d="M24.5536 10.3504
L24.6141 10.2899
" />
<path d="M24.6141 10.2899
L24.7351 10.2295
" />
<path d="M24.7351 10.2295
L24.9770 10.2295
" />
<path d="M24.9770 10.2295
L25.0979 10.2899
" />
<path d="M26.1864 11.0157
L26.0655 11.0761
" />
<path d="M26.0655 11.0761
L25.8236 11.0761
" />
<path d="M25.8236 11.0761
L25.7026 11.0157
" />
<path d="M25.7026 11.0157
L25.6422 10.8947
" />
<path d="M25.6422 10.8947
L25.6422 10.4109
" />
<path d="M25.6422 10.4109
L25.7026 10.2899
" />
<path d="M25.7026 10.2899
L25.8236 10.2295
" />
<path d="M25.8236 10.2295
L26.0655 10.2295
" />
<path d="M26.0655 10.2295
L26.1864 10.2899
" />
<path d="M26.1864 10.2899
L26.2469 10.4109
" />
<path d="M26.2469 10.4109
L26.2469 10.5318
" />
<path d="M26.2469 10.5318
L25.6422 10.6528
" />
<path d="M26.7308 11.0157
L26.8517 11.0761
" />
<path d="M26.8517 11.0761
L27.0936 11.0761
" />
<path d="M27.0936 11.0761
L27.2146 11.0157
" />
<path d="M27.2146 11.0157
L27.2750 10.8947
" />
<path d="M27.2750 10.8947
L27.2750 10.8342
" />
<path d="M27.2750 10.8342
L27.2146 10.7133
" />
<path d="M27.2146 10.7133
L27.0936 10.6528
" />
<path d="M27.0936 10.6528
L26.9122 10.6528
" />
<path d="M26.9122 10.6528
L26.7912 10.5923
" />
<path d="M26.7912 10.5923
L26.7308 10.4714
" />
<path d="M26.7308 10.4714
L26.7308 10.4109
" />
<path d="M26.7308 10.4109
L26.7912 10.2899
" />
<path d="M26.7912 10.2899
L26.9122 10.2295
" />
<path d="M26.9122 10.2295
L27.0936 10.2295
" />
<path d="M27.0936 10.2295
L27.2146 10.2899
" />
<path d="M27.8193 10.9552
L27.8798 11.0157
" />
<path d="M27.8798 11.0157
L27.8193 11.0761
" />
<path d="M27.8193 11.0761
L27.7589 11.0157
" />
<path d="M27.7589 11.0157
L27.8193 10.9552
" />
<path d="M27.8193 10.9552
L27.8193 11.0761
" />
<path d="M28.9684 11.0157
L28.8475 11.0761
" />
<path d="M28.8475 11.0761
L28.6056 11.0761
" />
<path d="M28.6056 11.0761
L28.4846 11.0157
" />
<path d="M28.4846 11.0157
L28.4241 10.9552
" />
<path d="M28.4241 10.9552
L28.3637 10.8342
" />
<path d="M28.3637 10.8342
L28.3637 10.4714
" />
<path d="M28.3637 10.4714
L28.4241 10.3504
" />
<path d="M28.4241 10.3504
L28.4846 10.2899
" />
<path d="M28.4846 10.2899
L28.6056 10.2295
" />
<path d="M28.6056 10.2295
L28.8475 10.2295
" />
<path d="M28.8475 10.2295
L28.9684 10.2899
" />
<path d="M29.6942 11.0761
L29.5732 11.0157
" />
<path d="M29.5732 11.0157
L29.5127 10.9552
" />
<path d="M29.5127 10.9552
L29.4523 10.8342
" />
<path d="M29.4523 10.8342
L29.4523 10.4714
" />
<path d="M29.4523 10.4714
L29.5127 10.3504
" />
<path d="M29.5127 10.3504
L29.5732 10.2899
" />
<path d="M29.5732 10.2899
L29.6942 10.2295
" />
<path d="M29.6942 10.2295
L29.8756 10.2295
" />
<path d="M29.8756 10.2295
L29.9965 10.2899
" />
<path d="M29.9965 10.2899
L30.0570 10.3504
" />
<path d="M30.0570 10.3504
L30.1175 10.4714
" />
<path d="M30.1175 10.4714
L30.1175 10.8342
" />
<path d="M30.1175 10.8342
L30.0570 10.9552
" />
<path d="M30.0570 10.9552
L29.9965 11.0157
" />
<path d="M29.9965 11.0157
L29.8756 11.0761
" />
<path d="M29.8756 11.0761
L29.6942 11.0761
" />
<path d="M30.6617 11.0761
L30.6617 10.2295
" />
<path d="M30.6617 10.3504
L30.7222 10.2899
" />
<path d="M30.7222 10.2899
L30.8432 10.2295
" />
<path d="M30.8432 10.2295
L31.0246 10.2295
" />
<path d="M31.0246 10.2295
L31.1455 10.2899
" />
<path d="M31.1455 10.2899
L31.2060 10.4109
" />
<path d="M31.2060 10.4109
L31.2060 11.0761
" />
<path d="M31.2060 10.4109
L31.2665 10.2899
" />
<path d="M31.2665 10.2899
L31.3874 10.2295
" />
<path d="M31.3874 10.2295
L31.5689 10.2295
" />
<path d="M31.5689 10.2295
L31.6898 10.2899
" />
<path d="M31.6898 10.2899
L31.7503 10.4109
" />
<path d="M31.7503 10.4109
L31.7503 11.0761
" />
<path d="M33.2622 9.7457
L32.1736 11.3785
" />
<path d="M34.2298 11.0761
L34.2298 10.4109
" />
<path d="M34.2298 10.4109
L34.1693 10.2899
" />
<path d="M34.1693 10.2899
L34.0484 10.2295
" />
<path d="M34.0484 10.2295
L33.8065 10.2295
" />
<path d="M33.8065 10.2295
L33.6855 10.2899
" />
<path d="M34.2298 11.0157
L34.1089 11.0761
" />
<path d="M34.1089 11.0761
L33.8065 11.0761
" />
<path d="M33.8065 11.0761
L33.6855 11.0157
" />
<path d="M33.6855 11.0157
L33.6251 10.8947
" />
<path d="M33.6251 10.8947
L33.6251 10.7737
" />
<path d="M33.6251 10.7737
L33.6855 10.6528
" />
<path d="M33.6855 10.6528
L33.8065 10.5923
" />
<path d="M33.8065 10.5923
L34.1089 10.5923
" />
<path d="M34.1089 10.5923
L34.2298 10.5318
" />
<path d="M34.7741 11.0157
L34.8950 11.0761
" />
<path d="M34.8950 11.0761
L35.1369 11.0761
" />
<path d="M35.1369 11.0761
L35.2579 11.0157
" />
<path d="M35.2579 11.0157
L35.3183 10.8947
" />
<path d="M35.3183 10.8947
L35.3183 10.8342
" />
<path d="M35.3183 10.8342
L35.2579 10.7133
" />
<path d="M35.2579 10.7133
L35.1369 10.6528
" />
<path d="M35.1369 10.6528
L34.9555 10.6528
" />
<path d="M34.9555 10.6528
L34.8345 10.5923
" />
<path d="M34.8345 10.5923
L34.7741 10.4714
" />
<path d="M34.7741 10.4714
L34.7741 10.4109
" />
<path d="M34.7741 10.4109
L34.8345 10.2899
" />
<path d="M34.8345 10.2899
L34.9555 10.2295
" />
<path d="M34.9555 10.2295
L35.1369 10.2295
" />
<path d="M35.1369 10.2295
L35.2579 10.2899
" />
<path d="M35.8022 11.0157
L35.9231 11.0761
" />
<path d="M35.9231 11.0761
L36.1650 11.0761
" />
<path d="M36.1650 11.0761
L36.2860 11.0157
" />
<path d="M36.2860 11.0157
L36.3464 10.8947
" />
<path d="M36.3464 10.8947
L36.3464 10.8342
" />
<path d="M36.3464 10.8342
L36.2860 10.7133
" />
<path d="M36.2860 10.7133
L36.1650 10.6528
" />
<path d="M36.1650 10.6528
L35.9836 10.6528
" />
<path d="M35.9836 10.6528
L35.8626 10.5923
" />
<path d="M35.8626 10.5923
L35.8022 10.4714
" />
<path d="M35.8022 10.4714
L35.8022 10.4109
" />
<path d="M35.8022 10.4109
L35.8626 10.2899
" />
<path d="M35.8626 10.2899
L35.9836 10.2295
" />
<path d="M35.9836 10.2295
L36.1650 10.2295
" />
<path d="M36.1650 10.2295
L36.2860 10.2899
" />
<path d="M37.3745 11.0157
L37.2536 11.0761
" />
<path d="M37.2536 11.0761
L37.0117 11.0761
" />
<path d="M37.0117 11.0761
L36.8907 11.0157
" />
<path d="M36.8907 11.0157
L36.8303 10.8947
" />
<path d="M36.8303 10.8947
L36.8303 10.4109
" />
<path d="M36.8303 10.4109
L36.8907 10.2899
" />
<path d="M36.8907 10.2899
L37.0117 10.2295
" />
<path d="M37.0117 10.2295
L37.2536 10.2295
" />
<path d="M37.2536 10.2295
L37.3745 10.2899
" />
<path d="M37.3745 10.2899
L37.4350 10.4109
" />
<path d="M37.4350 10.4109
L37.4350 10.5318
" />
<path d="M37.4350 10.5318
L36.8303 10.6528
" />
<path d="M37.7979 10.2295
L38.2817 10.2295
" />
<path d="M37.9793 9.8061
L37.9793 10.8947
" />
<path d="M37.9793 10.8947
L38.0398 11.0157
" />
<path d="M38.0398 11.0157
L38.1608 11.0761
" />
<path d="M38.1608 11.0761
L38.2817 11.0761
" />
<path d="M38.6446 11.0157
L38.7655 11.0761
" />
<path d="M38.7655 11.0761
L39.0074 11.0761
" />
<path d="M39.0074 11.0761
L39.1284 11.0157
" />
<path d="M39.1284 11.0157
L39.1888 10.8947
" />
<path d="M39.1888 10.8947
L39.1888 10.8342
" />
<path d="M39.1888 10.8342
L39.1284 10.7133
" />
<path d="M39.1284 10.7133
L39.0074 10.6528
" />
<path d="M39.0074 10.6528
L38.8260 10.6528
" />
<path d="M38.8260 10.6528
L38.7050 10.5923
" />
<path d="M38.7050 10.5923
L38.6446 10.4714
" />
<path d="M38.6446 10.4714
L38.6446 10.4109
" />
<path d="M38.6446 10.4109
L38.7050 10.2899
" />
<path d="M38.7050 10.2899
L38.8260 10.2295
" />
<path d="M38.8260 10.2295
L39.0074 10.2295
" />
<path d="M39.0074 10.2295
L39.1284 10.2899
" />
<path d="M40.6403 9.7457
L39.5517 11.3785
" />
<path d="M41.0636 11.0761
L41.0636 9.8061
" />
<path d="M41.0636 9.8061
L41.3660 9.8061
" />
<path d="M41.3660 9.8061
L41.5474 9.8666
" />
<path d="M41.5474 9.8666
L41.6684 9.9876
" />
<path d="M41.6684 9.9876
L41.7289 10.1085
" />
<path d="M41.7289 10.1085
L41.7893 10.3504
" />
<path d="M41.7893 10.3504
L41.7893 10.5318
" />
<path d="M41.7893 10.5318
L41.7289 10.7737
" />
<path d="M41.7289 10.7737
L41.6684 10.8947
" />
<path d="M41.6684 10.8947
L41.5474 11.0157
" />
<path d="M41.5474 11.0157
L41.3660 11.0761
" />
<path d="M41.3660 11.0761
L41.0636 11.0761
" />
<path d="M42.8779 11.0761
L42.8779 10.4109
" />
<path d="M42.8779 10.4109
L42.8174 10.2899
" />
<path d="M42.8174 10.2899
L42.6965 10.2295
" />
<path d="M42.6965 10.2295
L42.4546 10.2295
" />
<path d="M42.4546 10.2295
L42.3336 10.2899
" />
<path d="M42.8779 11.0157
L42.7570 11.0761
" />
<path d="M42.7570 11.0761
L42.4546 11.0761
" />
<path d="M42.4546 11.0761
L42.3336 11.0157
" />
<path d="M42.3336 11.0157
L42.2732 10.8947
" />
<path d="M42.2732 10.8947
L42.2732 10.7737
" />
<path d="M42.2732 10.7737
L42.3336 10.6528
" />
<path d="M42.3336 10.6528
L42.4546 10.5923
" />
<path d="M42.4546 10.5923
L42.7570 10.5923
" />
<path d="M42.7570 10.5923
L42.8779 10.5318
" />
<path d="M43.3012 10.2295
L43.7850 10.2295
" />
<path d="M43.4826 9.8061
L43.4826 10.8947
" />
<path d="M43.4826 10.8947
L43.5431 11.0157
" />
<path d="M43.5431 11.0157
L43.6641 11.0761
" />
<path d="M43.6641 11.0761
L43.7850 11.0761
" />
<path d="M44.7526 11.0761
L44.7526 10.4109
" />
<path d="M44.7526 10.4109
L44.6921 10.2899
" />
<path d="M44.6921 10.2899
L44.5712 10.2295
" />
<path d="M44.5712 10.2295
L44.3293 10.2295
" />
<path d="M44.3293 10.2295
L44.2083 10.2899
" />
<path d="M44.7526 11.0157
L44.6317 11.0761
" />
<path d="M44.6317 11.0761
L44.3293 11.0761
" />
<path d="M44.3293 11.0761
L44.2083 11.0157
" />
<path d="M44.2083 11.0157
L44.1479 10.8947
" />
<path d="M44.1479 10.8947
L44.1479 10.7737
" />
<path d="M44.1479 10.7737
L44.2083 10.6528
" />
<path d="M44.2083 10.6528
L44.3293 10.5923
" />
<path d="M44.3293 10.5923
L44.6317 10.5923
" />
<path d="M44.6317 10.5923
L44.7526 10.5318
" />
<path d="M45.2969 11.0157
L45.4178 11.0761
" />
<path d="M45.4178 11.0761
L45.6597 11.0761
" />
<path d="M45.6597 11.0761
L45.7807 11.0157
" />
<path d="M45.7807 11.0157
L45.8411 10.8947
" />
<path d="M45.8411 10.8947
L45.8411 10.8342
" />
<path d="M45.8411 10.8342
L45.7807 10.7133
" />
<path d="M45.7807 10.7133
L45.6597 10.6528
" />
<path d="M45.6597 10.6528
L45.4783 10.6528
" />
<path d="M45.4783 10.6528
L45.3573 10.5923
" />
<path d="M45.3573 10.5923
L45.2969 10.4714
" />
<path d="M45.2969 10.4714
L45.2969 10.4109
" />
<path d="M45.2969 10.4109
L45.3573 10.2899
" />
<path d="M45.3573 10.2899
L45.4783 10.2295
" />
<path d="M45.4783 10.2295
L45.6597 10.2295
" />
<path d="M45.6597 10.2295
L45.7807 10.2899
" />
<path d="M46.3854 11.0761
L46.3854 9.8061
" />
<path d="M46.9297 11.0761
L46.9297 10.4109
" />
<path d="M46.9297 10.4109
L46.8692 10.2899
" />
<path d="M46.8692 10.2899
L46.7483 10.2295
" />
<path d="M46.7483 10.2295
L46.5669 10.2295
" />
<path d="M46.5669 10.2295
L46.4459 10.2899
" />
<path d="M46.4459 10.2899
L46.3854 10.3504
" />
<path d="M48.0182 11.0157
L47.8973 11.0761
" />
<path d="M47.8973 11.0761
L47.6554 11.0761
" />
<path d="M47.6554 11.0761
L47.5344 11.0157
" />
<path d="M47.5344 11.0157
L47.4740 10.8947
" />
<path d="M47.4740 10.8947
L47.4740 10.4109
" />
<path d="M47.4740 10.4109
L47.5344 10.2899
" />
<path d="M47.5344 10.2899
L47.6554 10.2295
" />
<path d="M47.6554 10.2295
L47.8973 10.2295
" />
<path d="M47.8973 10.2295
L48.0182 10.2899
" />
<path d="M48.0182 10.2899
L48.0787 10.4109
" />
<path d="M48.0787 10.4109
L48.0787 10.5318
" />
<path d="M48.0787 10.5318
L47.4740 10.6528
" />
<path d="M49.1068 11.0157
L48.9859 11.0761
" />
<path d="M48.9859 11.0761
L48.7440 11.0761
" />
<path d="M48.7440 11.0761
L48.6230 11.0157
" />
<path d="M48.6230 11.0157
L48.5626 10.8947
" />
<path d="M48.5626 10.8947
L48.5626 10.4109
" />
<path d="M48.5626 10.4109
L48.6230 10.2899
" />
<path d="M48.6230 10.2899
L48.7440 10.2295
" />
<path d="M48.7440 10.2295
L48.9859 10.2295
" />
<path d="M48.9859 10.2295
L49.1068 10.2899
" />
<path d="M49.1068 10.2899
L49.1673 10.4109
" />
<path d="M49.1673 10.4109
L49.1673 10.5318
" />
<path d="M49.1673 10.5318
L48.5626 10.6528
" />
<path d="M49.5302 10.2295
L50.0140 10.2295
" />
<path d="M49.7116 9.8061
L49.7116 10.8947
" />
<path d="M49.7116 10.8947
L49.7721 11.0157
" />
<path d="M49.7721 11.0157
L49.8931 11.0761
" />
<path d="M49.8931 11.0761
L50.0140 11.0761
" />
<path d="M50.3769 11.0157
L50.4978 11.0761
" />
<path d="M50.4978 11.0761
L50.7397 11.0761
" />
<path d="M50.7397 11.0761
L50.8607 11.0157
" />
<path d="M50.8607 11.0157
L50.9211 10.8947
" />
<path d="M50.9211 10.8947
L50.9211 10.8342
" />
<path d="M50.9211 10.8342
L50.8607 10.7133
" />
<path d="M50.8607 10.7133
L50.7397 10.6528
" />
<path d="M50.7397 10.6528
L50.5583 10.6528
" />
<path d="M50.5583 10.6528
L50.4373 10.5923
" />
<path d="M50.4373 10.5923
L50.3769 10.4714
" />
<path d="M50.3769 10.4714
L50.3769 10.4109
" />
<path d="M50.3769 10.4109
L50.4373 10.2899
" />
<path d="M50.4373 10.2899
L50.5583 10.2295
" />
<path d="M50.5583 10.2295
L50.7397 10.2295
" />
<path d="M50.7397 10.2295
L50.8607 10.2899
" />
<path d="M52.3726 9.7457
L51.2840 11.3785
" />
<path d="M52.7355 10.7133
L53.3402 10.7133
" />
<path d="M52.6145 11.0761
L53.0378 9.8061
" />
<path d="M53.0378 9.8061
L53.4612 11.0761
" />
<path d="M53.8845 11.0761
L53.8845 9.8061
" />
<path d="M53.8845 9.8061
L54.3683 9.8061
" />
<path d="M54.3683 9.8061
L54.4893 9.8666
" />
<path d="M54.4893 9.8666
L54.5498 9.9271
" />
<path d="M54.5498 9.9271
L54.6102 10.0480
" />
<path d="M54.6102 10.0480
L54.6102 10.2295
" />
<path d="M54.6102 10.2295
L54.5498 10.3504
" />
<path d="M54.5498 10.3504
L54.4893 10.4109
" />
<path d="M54.4893 10.4109
L54.3683 10.4714
" />
<path d="M54.3683 10.4714
L53.8845 10.4714
" />
<path d="M55.6988 9.8061
L55.4569 9.8061
" />
<path d="M55.4569 9.8061
L55.3360 9.8666
" />
<path d="M55.3360 9.8666
L55.2755 9.9271
" />
<path d="M55.2755 9.9271
L55.1545 10.1085
" />
<path d="M55.1545 10.1085
L55.0941 10.3504
" />
<path d="M55.0941 10.3504
L55.0941 10.8342
" />
<path d="M55.0941 10.8342
L55.1545 10.9552
" />
<path d="M55.1545 10.9552
L55.2150 11.0157
" />
<path d="M55.2150 11.0157
L55.3360 11.0761
" />
<path d="M55.3360 11.0761
L55.5779 11.0761
" />
<path d="M55.5779 11.0761
L55.6988 11.0157
" />
<path d="M55.6988 11.0157
L55.7593 10.9552
" />
<path d="M55.7593 10.9552
L55.8198 10.8342
" />
<path d="M55.8198 10.8342
L55.8198 10.5318
" />
<path d="M55.8198 10.5318
L55.7593 10.4109
" />
<path d="M55.7593 10.4109
L55.6988 10.3504
" />
<path d="M55.6988 10.3504
L55.5779 10.2899
" />
<path d="M55.5779 10.2899
L55.3360 10.2899
" />
<path d="M55.3360 10.2899
L55.2150 10.3504
" />
<path d="M55.2150 10.3504
L55.1545 10.4109
" />
<path d="M55.1545 10.4109
L55.0941 10.5318
" />
<path d="M56.2431 9.8061
L57.0293 9.8061
" />
<path d="M57.0293 9.8061
L56.6059 10.2899
" />
<path d="M56.6059 10.2899
L56.7874 10.2899
" />
<path d="M56.7874 10.2899
L56.9083 10.3504
" />
<path d="M56.9083 10.3504
L56.9688 10.4109
" />
<path d="M56.9688 10.4109
L57.0293 10.5318
" />
<path d="M57.0293 10.5318
L57.0293 10.8342
" />
<path d="M57.0293 10.8342
L56.9688 10.9552
" />
<path d="M56.9688 10.9552
L56.9083 11.0157
" />
<path d="M56.9083 11.0157
L56.7874 11.0761
" />
<path d="M56.7874 11.0761
L56.4245 11.0761
" />
<path d="M56.4245 11.0761
L56.3036 11.0157
" />
<path d="M56.3036 11.0157
L56.2431 10.9552
" />
<path d="M57.5131 9.9271
L57.5735 9.8666
" />
<path d="M57.5735 9.8666
L57.6945 9.8061
" />
<path d="M57.6945 9.8061
L57.9969 9.8061
" />
<path d="M57.9969 9.8061
L58.1178 9.8666
" />
<path d="M58.1178 9.8666
L58.1783 9.9271
" />
<path d="M58.1783 9.9271
L58.2388 10.0480
" />
<path d="M58.2388 10.0480
L58.2388 10.1690
" />
<path d="M58.2388 10.1690
L58.1783 10.3504
" />
<path d="M58.1783 10.3504
L57.4526 11.0761
" />
<path d="M57.4526 11.0761
L58.2388 11.0761
" />
<path d="M59.0249 9.8061
L59.1459 9.8061
" />
<path d="M59.1459 9.8061
L59.2668 9.8666
" />
<path d="M59.2668 9.8666
L59.3273 9.9271
" />
<path d="M59.3273 9.9271
L59.3878 10.0480
" />
<path d="M59.3878 10.0480
L59.4483 10.2899
" />
<path d="M59.4483 10.2899
L59.4483 10.5923
" />
<path d="M59.4483 10.5923
L59.3878 10.8342
" />
<path d="M59.3878 10.8342
L59.3273 10.9552
" />
<path d="M59.3273 10.9552
L59.2668 11.0157
" />
<path d="M59.2668 11.0157
L59.1459 11.0761
" />
<path d="M59.1459 11.0761
L59.0249 11.0761
" />
<path d="M59.0249 11.0761
L58.9040 11.0157
" />
<path d="M58.9040 11.0157
L58.8435 10.9552
" />
<path d="M58.8435 10.9552
L58.7830 10.8342
" />
<path d="M58.7830 10.8342
L58.7226 10.5923
" />
<path d="M58.7226 10.5923
L58.7226 10.2899
" />
<path d="M58.7226 10.2899
L58.7830 10.0480
" />
<path d="M58.7830 10.0480
L58.8435 9.9271
" />
<path d="M58.8435 9.9271
L58.9040 9.8666
" />
<path d="M58.9040 9.8666
L59.0249 9.8061
" />
<path d="M60.2344 9.8061
L60.3554 9.8061
" />
<path d="M60.3554 9.8061
L60.4763 9.8666
" />
<path d="M60.4763 9.8666
L60.5368 9.9271
" />
<path d="M60.5368 9.9271
L60.5973 10.0480
" />
<path d="M60.5973 10.0480
L60.6578 10.2899
" />
<path d="M60.6578 10.2899
L60.6578 10.5923
" />
<path d="M60.6578 10.5923
L60.5973 10.8342
" />
<path d="M60.5973 10.8342
L60.5368 10.9552
" />
<path d="M60.5368 10.9552
L60.4763 11.0157
" />
<path d="M60.4763 11.0157
L60.3554 11.0761
" />
<path d="M60.3554 11.0761
L60.2344 11.0761
" />
<path d="M60.2344 11.0761
L60.1135 11.0157
" />
<path d="M60.1135 11.0157
L60.0530 10.9552
" />
<path d="M60.0530 10.9552
L59.9925 10.8342
" />
<path d="M59.9925 10.8342
L59.9321 10.5923
" />
<path d="M59.9321 10.5923
L59.9321 10.2899
" />
<path d="M59.9321 10.2899
L59.9925 10.0480
" />
<path d="M59.9925 10.0480
L60.0530 9.9271
" />
<path d="M60.0530 9.9271
L60.1135 9.8666
" />
<path d="M60.1135 9.8666
L60.2344 9.8061
" />
<path d="M61.2020 10.5923
L62.1697 10.5923
" />
<path d="M62.7140 10.7133
L63.3187 10.7133
" />
<path d="M62.5930 11.0761
L63.0163 9.8061
" />
<path d="M63.0163 9.8061
L63.4397 11.0761
" />
<path d="M63.8630 11.0761
L63.8630 9.8061
" />
<path d="M63.8630 9.8061
L64.3468 9.8061
" />
<path d="M64.3468 9.8061
L64.4678 9.8666
" />
<path d="M64.4678 9.8666
L64.5283 9.9271
" />
<path d="M64.5283 9.9271
L64.5887 10.0480
" />
<path d="M64.5887 10.0480
L64.5887 10.2295
" />
<path d="M64.5887 10.2295
L64.5283 10.3504
" />
<path d="M64.5283 10.3504
L64.4678 10.4109
" />
<path d="M64.4678 10.4109
L64.3468 10.4714
" />
<path d="M64.3468 10.4714
L63.8630 10.4714
" />
<path d="M65.6773 9.8061
L65.4354 9.8061
" />
<path d="M65.4354 9.8061
L65.3145 9.8666
" />
<path d="M65.3145 9.8666
L65.2540 9.9271
" />
<path d="M65.2540 9.9271
L65.1330 10.1085
" />
<path d="M65.1330 10.1085
L65.0726 10.3504
" />
<path d="M65.0726 10.3504
L65.0726 10.8342
" />
<path d="M65.0726 10.8342
L65.1330 10.9552
" />
<path d="M65.1330 10.9552
L65.1935 11.0157
" />
<path d="M65.1935 11.0157
L65.3145 11.0761
" />
<path d="M65.3145 11.0761
L65.5564 11.0761
" />
<path d="M65.5564 11.0761
L65.6773 11.0157
" />
<path d="M65.6773 11.0157
L65.7378 10.9552
" />
<path d="M65.7378 10.9552
L65.7983 10.8342
" />
<path d="M65.7983 10.8342
L65.7983 10.5318
" />
<path d="M65.7983 10.5318
L65.7378 10.4109
" />
<path d="M65.7378 10.4109
L65.6773 10.3504
" />
<path d="M65.6773 10.3504
L65.5564 10.2899
" />
<path d="M65.5564 10.2899
L65.3145 10.2899
" />
<path d="M65.3145 10.2899
L65.1935 10.3504
" />
<path d="M65.1935 10.3504
L65.1330 10.4109
" />
<path d="M65.1330 10.4109
L65.0726 10.5318
" />
<path d="M66.2216 9.8061
L67.0078 9.8061
" />
<path d="M67.0078 9.8061
L66.5844 10.2899
" />
<path d="M66.5844 10.2899
L66.7659 10.2899
" />
<path d="M66.7659 10.2899
L66.8868 10.3504
" />
<path d="M66.8868 10.3504
L66.9473 10.4109
" />
<path d="M66.9473 10.4109
L67.0078 10.5318
" />
<path d="M67.0078 10.5318
L67.0078 10.8342
" />
<path d="M67.0078 10.8342
L66.9473 10.9552
" />
<path d="M66.9473 10.9552
L66.8868 11.0157
" />
<path d="M66.8868 11.0157
L66.7659 11.0761
" />
<path d="M66.7659 11.0761
L66.4030 11.0761
" />
<path d="M66.4030 11.0761
L66.2821 11.0157
" />
<path d="M66.2821 11.0157
L66.2216 10.9552
" />
<path d="M67.4916 9.9271
L67.5520 9.8666
" />
<path d="M67.5520 9.8666
L67.6730 9.8061
" />
<path d="M67.6730 9.8061
L67.9754 9.8061
" />
<path d="M67.9754 9.8061
L68.0963 9.8666
" />
<path d="M68.0963 9.8666
L68.1568 9.9271
" />
<path d="M68.1568 9.9271
L68.2173 10.0480
" />
<path d="M68.2173 10.0480
L68.2173 10.1690
" />
<path d="M68.2173 10.1690
L68.1568 10.3504
" />
<path d="M68.1568 10.3504
L67.4311 11.0761
" />
<path d="M67.4311 11.0761
L68.2173 11.0761
" />
<path d="M69.0034 9.8061
L69.1244 9.8061
" />
<path d="M69.1244 9.8061
L69.2453 9.8666
" />
<path d="M69.2453 9.8666
L69.3058 9.9271
" />
<path d="M69.3058 9.9271
L69.3663 10.0480
" />
<path d="M69.3663 10.0480
L69.4268 10.2899
" />
<path d="M69.4268 10.2899
L69.4268 10.5923
" />
<path d="M69.4268 10.5923
L69.3663 10.8342
" />
<path d="M69.3663 10.8342
L69.3058 10.9552
" />
<path d="M69.3058 10.9552
L69.2453 11.0157
" />
<path d="M69.2453 11.0157
L69.1244 11.0761
" />
<path d="M69.1244 11.0761
L69.0034 11.0761
" />
<path d="M69.0034 11.0761
L68.8825 11.0157
" />
<path d="M68.8825 11.0157
L68.8220 10.9552
" />
<path d="M68.8220 10.9552
L68.7615 10.8342
" />
<path d="M68.7615 10.8342
L68.7011 10.5923
" />
<path d="M68.7011 10.5923
L68.7011 10.2899
" />
<path d="M68.7011 10.2899
L68.7615 10.0480
" />
<path d="M68.7615 10.0480
L68.8220 9.9271
" />
<path d="M68.8220 9.9271
L68.8825 9.8666
" />
<path d="M68.8825 9.8666
L69.0034 9.8061
" />
<path d="M70.6363 11.0761
L69.9106 11.0761
" />
<path d="M70.2734 11.0761
L70.2734 9.8061
" />
<path d="M70.2734 9.8061
L70.1525 9.9876
" />
<path d="M70.1525 9.9876
L70.0315 10.1085
" />
<path d="M70.0315 10.1085
L69.9106 10.1690
" />
<path d="M71.1805 10.5923
L72.1482 10.5923
" />
<path d="M72.6925 10.7133
L73.2972 10.7133
" />
<path d="M72.5715 11.0761
L72.9948 9.8061
" />
<path d="M72.9948 9.8061
L73.4182 11.0761
" />
<path d="M73.8415 11.0761
L73.8415 9.8061
" />
<path d="M73.8415 9.8061
L74.3253 9.8061
" />
<path d="M74.3253 9.8061
L74.4463 9.8666
" />
<path d="M74.4463 9.8666
L74.5068 9.9271
" />
<path d="M74.5068 9.9271
L74.5672 10.0480
" />
<path d="M74.5672 10.0480
L74.5672 10.2295
" />
<path d="M74.5672 10.2295
L74.5068 10.3504
" />
<path d="M74.5068 10.3504
L74.4463 10.4109
" />
<path d="M74.4463 10.4109
L74.3253 10.4714
" />
<path d="M74.3253 10.4714
L73.8415 10.4714
" />
<path d="M75.6558 9.8061
L75.4139 9.8061
" />
<path d="M75.4139 9.8061
L75.2930 9.8666
" />
<path d="M75.2930 9.8666
L75.2325 9.9271
" />
<path d="M75.2325 9.9271
L75.1115 10.1085
" />
<path d="M75.1115 10.1085
L75.0511 10.3504
" />
<path d="M75.0511 10.3504
L75.0511 10.8342
" />
<path d="M75.0511 10.8342
L75.1115 10.9552
" />
<path d="M75.1115 10.9552
L75.1720 11.0157
" />
<path d="M75.1720 11.0157
L75.2930 11.0761
" />
<path d="M75.2930 11.0761
L75.5349 11.0761
" />
<path d="M75.5349 11.0761
L75.6558 11.0157
" />
<path d="M75.6558 11.0157
L75.7163 10.9552
" />
<path d="M75.7163 10.9552
L75.7768 10.8342
" />
<path d="M75.7768 10.8342
L75.7768 10.5318
" />
<path d="M75.7768 10.5318
L75.7163 10.4109
" />
<path d="M75.7163 10.4109
L75.6558 10.3504
" />
<path d="M75.6558 10.3504
L75.5349 10.2899
" />
<path d="M75.5349 10.2899
L75.2930 10.2899
" />
<path d="M75.2930 10.2899
L75.1720 10.3504
" />
<path d="M75.1720 10.3504
L75.1115 10.4109
" />
<path d="M75.1115 10.4109
L75.0511 10.5318
" />
<path d="M76.2001 9.8061
L76.9863 9.8061
" />
<path d="M76.9863 9.8061
L76.5629 10.2899
" />
<path d="M76.5629 10.2899
L76.7444 10.2899
" />
<path d="M76.7444 10.2899
L76.8653 10.3504
" />
<path d="M76.8653 10.3504
L76.9258 10.4109
" />
<path d="M76.9258 10.4109
L76.9863 10.5318
" />
<path d="M76.9863 10.5318
L76.9863 10.8342
" />
<path d="M76.9863 10.8342
L76.9258 10.9552
" />
<path d="M76.9258 10.9552
L76.8653 11.0157
" />
<path d="M76.8653 11.0157
L76.7444 11.0761
" />
<path d="M76.7444 11.0761
L76.3815 11.0761
" />
<path d="M76.3815 11.0761
L76.2606 11.0157
" />
<path d="M76.2606 11.0157
L76.2001 10.9552
" />
<path d="M77.4701 9.9271
L77.5305 9.8666
" />
<path d="M77.5305 9.8666
L77.6515 9.8061
" />
<path d="M77.6515 9.8061
L77.9539 9.8061
" />
<path d="M77.9539 9.8061
L78.0748 9.8666
" />
<path d="M78.0748 9.8666
L78.1353 9.9271
" />
<path d="M78.1353 9.9271
L78.1958 10.0480
" />
<path d="M78.1958 10.0480
L78.1958 10.1690
" />
<path d="M78.1958 10.1690
L78.1353 10.3504
" />
<path d="M78.1353 10.3504
L77.4096 11.0761
" />
<path d="M77.4096 11.0761
L78.1958 11.0761
" />
<path d="M78.9819 9.8061
L79.1029 9.8061
" />
<path d="M79.1029 9.8061
L79.2238 9.8666
" />
<path d="M79.2238 9.8666
L79.2843 9.9271
" />
<path d="M79.2843 9.9271
L79.3448 10.0480
" />
<path d="M79.3448 10.0480
L79.4053 10.2899
" />
<path d="M79.4053 10.2899
L79.4053 10.5923
" />
<path d="M79.4053 10.5923
L79.3448 10.8342
" />
<path d="M79.3448 10.8342
L79.2843 10.9552
" />
<path d="M79.2843 10.9552
L79.2238 11.0157
" />
<path d="M79.2238 11.0157
L79.1029 11.0761
" />
<path d="M79.1029 11.0761
L78.9819 11.0761
" />
<path d="M78.9819 11.0761
L78.8610 11.0157
" />
<path d="M78.8610 11.0157
L78.8005 10.9552
" />
<path d="M78.8005 10.9552
L78.7400 10.8342
" />
<path d="M78.7400 10.8342
L78.6796 10.5923
" />
<path d="M78.6796 10.5923
L78.6796 10.2899
" />
<path d="M78.6796 10.2899
L78.7400 10.0480
" />
<path d="M78.7400 10.0480
L78.8005 9.9271
" />
<path d="M78.8005 9.9271
L78.8610 9.8666
" />
<path d="M78.8610 9.8666
L78.9819 9.8061
" />
<path d="M79.8286 9.8061
L80.6148 9.8061
" />
<path d="M80.6148 9.8061
L80.1914 10.2899
" />
<path d="M80.1914 10.2899
L80.3729 10.2899
" />
<path d="M80.3729 10.2899
L80.4938 10.3504
" />
<path d="M80.4938 10.3504
L80.5543 10.4109
" />
<path d="M80.5543 10.4109
L80.6148 10.5318
" />
<path d="M80.6148 10.5318
L80.6148 10.8342
" />
<path d="M80.6148 10.8342
L80.5543 10.9552
" />
<path d="M80.5543 10.9552
L80.4938 11.0157
" />
<path d="M80.4938 11.0157
L80.3729 11.0761
" />
<path d="M80.3729 11.0761
L80.0100 11.0761
" />
<path d="M80.0100 11.0761
L79.8891 11.0157
" />
<path d="M79.8891 11.0157
L79.8286 10.9552
" />
<path d="M81.1590 10.5923
L82.1267 10.5923
" />
<path d="M82.6710 10.7133
L83.2757 10.7133
" />
<path d="M82.5500 11.0761
L82.9733 9.8061
" />
<path d="M82.9733 9.8061
L83.3967 11.0761
" />
<path d="M83.8200 11.0761
L83.8200 9.8061
" />
<path d="M83.8200 9.8061
L84.3038 9.8061
" />
<path d="M84.3038 9.8061
L84.4248 9.8666
" />
<path d="M84.4248 9.8666
L84.4853 9.9271
" />
<path d="M84.4853 9.9271
L84.5457 10.0480
" />
<path d="M84.5457 10.0480
L84.5457 10.2295
" />
<path d="M84.5457 10.2295
L84.4853 10.3504
" />
<path d="M84.4853 10.3504
L84.4248 10.4109
" />
<path d="M84.4248 10.4109
L84.3038 10.4714
" />
<path d="M84.3038 10.4714
L83.8200 10.4714
" />
<path d="M85.6343 9.8061
L85.3924 9.8061
" />
<path d="M85.3924 9.8061
L85.2715 9.8666
" />
<path d="M85.2715 9.8666
L85.2110 9.9271
" />
<path d="M85.2110 9.9271
L85.0900 10.1085
" />
<path d="M85.0900 10.1085
L85.0296 10.3504
" />
<path d="M85.0296 10.3504
L85.0296 10.8342
" />
<path d="M85.0296 10.8342
L85.0900 10.9552
" />
<path d="M85.0900 10.9552
L85.1505 11.0157
" />
<path d="M85.1505 11.0157
L85.2715 11.0761
" />
<path d="M85.2715 11.0761
L85.5134 11.0761
" />
<path d="M85.5134 11.0761
L85.6343 11.0157
" />
<path d="M85.6343 11.0157
L85.6948 10.9552
" />
<path d="M85.6948 10.9552
L85.7553 10.8342
" />
<path d="M85.7553 10.8342
L85.7553 10.5318
" />
<path d="M85.7553 10.5318
L85.6948 10.4109
" />
<path d="M85.6948 10.4109
L85.6343 10.3504
" />
<path d="M85.6343 10.3504
L85.5134 10.2899
" />
<path d="M85.5134 10.2899
L85.2715 10.2899
" />
<path d="M85.2715 10.2899
L85.1505 10.3504
" />
<path d="M85.1505 10.3504
L85.0900 10.4109
" />
<path d="M85.0900 10.4109
L85.0296 10.5318
" />
<path d="M86.1786 9.8061
L86.9648 9.8061
" />
<path d="M86.9648 9.8061
L86.5414 10.2899
" />
<path d="M86.5414 10.2899
L86.7229 10.2899
" />
<path d="M86.7229 10.2899
L86.8438 10.3504
" />
<path d="M86.8438 10.3504
L86.9043 10.4109
" />
<path d="M86.9043 10.4109
L86.9648 10.5318
" />
<path d="M86.9648 10.5318
L86.9648 10.8342
" />
<path d="M86.9648 10.8342
L86.9043 10.9552
" />
<path d="M86.9043 10.9552
L86.8438 11.0157
" />
<path d="M86.8438 11.0157
L86.7229 11.0761
" />
<path d="M86.7229 11.0761
L86.3600 11.0761
" />
<path d="M86.3600 11.0761
L86.2391 11.0157
" />
<path d="M86.2391 11.0157
L86.1786 10.9552
" />
<path d="M87.4486 9.9271
L87.5090 9.8666
" />
<path d="M87.5090 9.8666
L87.6300 9.8061
" />
<path d="M87.6300 9.8061
L87.9324 9.8061
" />
<path d="M87.9324 9.8061
L88.0533 9.8666
" />
<path d="M88.0533 9.8666
L88.1138 9.9271
" />
<path d="M88.1138 9.9271
L88.1743 10.0480
" />
<path d="M88.1743 10.0480
L88.1743 10.1690
" />
<path d="M88.1743 10.1690
L88.1138 10.3504
" />
<path d="M88.1138 10.3504
L87.3881 11.0761
" />
<path d="M87.3881 11.0761
L88.1743 11.0761
" />
<path d="M88.9604 9.8061
L89.0814 9.8061
" />
<path d="M89.0814 9.8061
L89.2023 9.8666
" />
<path d="M89.2023 9.8666
L89.2628 9.9271
" />
<path d="M89.2628 9.9271
L89.3233 10.0480
" />
<path d="M89.3233 10.0480
L89.3838 10.2899
" />
<path d="M89.3838 10.2899
L89.3838 10.5923
" />
<path d="M89.3838 10.5923
L89.3233 10.8342
" />
<path d="M89.3233 10.8342
L89.2628 10.9552
" />
<path d="M89.2628 10.9552
L89.2023 11.0157
" />
<path d="M89.2023 11.0157
L89.0814 11.0761
" />
<path d="M89.0814 11.0761
L88.9604 11.0761
" />
<path d="M88.9604 11.0761
L88.8395 11.0157
" />
<path d="M88.8395 11.0157
L88.7790 10.9552
" />
<path d="M88.7790 10.9552
L88.7185 10.8342
" />
<path d="M88.7185 10.8342
L88.6581 10.5923
" />
<path d="M88.6581 10.5923
L88.6581 10.2899
" />
<path d="M88.6581 10.2899
L88.7185 10.0480
" />
<path d="M88.7185 10.0480
L88.7790 9.9271
" />
<path d="M88.7790 9.9271
L88.8395 9.8666
" />
<path d="M88.8395 9.8666
L88.9604 9.8061
" />
<path d="M90.5328 9.8061
L89.9280 9.8061
" />
<path d="M89.9280 9.8061
L89.8676 10.4109
" />
<path d="M89.8676 10.4109
L89.9280 10.3504
" />
<path d="M89.9280 10.3504
L90.0490 10.2899
" />
<path d="M90.0490 10.2899
L90.3514 10.2899
" />
<path d="M90.3514 10.2899
L90.4723 10.3504
" />
<path d="M90.4723 10.3504
L90.5328 10.4109
" />
<path d="M90.5328 10.4109
L90.5933 10.5318
" />
<path d="M90.5933 10.5318
L90.5933 10.8342
" />
<path d="M90.5933 10.8342
L90.5328 10.9552
" />
<path d="M90.5328 10.9552
L90.4723 11.0157
" />
<path d="M90.4723 11.0157
L90.3514 11.0761
" />
<path d="M90.3514 11.0761
L90.0490 11.0761
" />
<path d="M90.0490 11.0761
L89.9280 11.0157
" />
<path d="M89.9280 11.0157
L89.8676 10.9552
" />
<path d="M91.1375 10.9552
L91.1980 11.0157
" />
<path d="M91.1980 11.0157
L91.1375 11.0761
" />
<path d="M91.1375 11.0761
L91.0771 11.0157
" />
<path d="M91.0771 11.0157
L91.1375 10.9552
" />
<path d="M91.1375 10.9552
L91.1375 11.0761
" />
<path d="M91.7423 10.2295
L91.7423 11.4995
" />
<path d="M91.7423 10.2899
L91.8633 10.2295
" />
<path d="M91.8633 10.2295
L92.1052 10.2295
" />
<path d="M92.1052 10.2295
L92.2261 10.2899
" />
<path d="M92.2261 10.2899
L92.2866 10.3504
" />
<path d="M92.2866 10.3504
L92.3471 10.4714
" />
<path d="M92.3471 10.4714
L92.3471 10.8342
" />
<path d="M92.3471 10.8342
L92.2866 10.9552
" />
<path d="M92.2866 10.9552
L92.2261 11.0157
" />
<path d="M92.2261 11.0157
L92.1052 11.0761
" />
<path d="M92.1052 11.0761
L91.8633 11.0761
" />
<path d="M91.8633 11.0761
L91.7423 11.0157
" />
<path d="M93.4356 11.0761
L93.4356 9.8061
" />
<path d="M93.4356 11.0157
L93.3147 11.0761
" />
<path d="M93.3147 11.0761
L93.0728 11.0761
" />
<path d="M93.0728 11.0761
L92.9518 11.0157
" />
<path d="M92.9518 11.0157
L92.8913 10.9552
" />
<path d="M92.8913 10.9552
L92.8309 10.8342
" />
<path d="M92.8309 10.8342
L92.8309 10.4714
" />
<path d="M92.8309 10.4714
L92.8913 10.3504
" />
<path d="M92.8913 10.3504
L92.9518 10.2899
" />
<path d="M92.9518 10.2899
L93.0728 10.2295
" />
<path d="M93.0728 10.2295
L93.3147 10.2295
" />
<path d="M93.3147 10.2295
L93.4356 10.2899
" />
<path d="M93.8589 10.2295
L94.3427 10.2295
" />
<path d="M94.0403 11.0761
L94.0403 9.9876
" />
<path d="M94.0403 9.9876
L94.1008 9.8666
" />
<path d="M94.1008 9.8666
L94.2218 9.8061
" />
<path d="M94.2218 9.8061
L94.3427 9.8061
" />
</g></g> 
</svg>
