<?xml version="1.0" standalone="no"?>
 <!DOCTYPE svg PUBLIC "-//W3C//DTD SVG 1.1//EN" 
 "http://www.w3.org/Graphics/SVG/1.1/DTD/svg11.dtd"> 
<svg
  xmlns:svg="http://www.w3.org/2000/svg"
  xmlns="http://www.w3.org/2000/svg"
  xmlns:xlink="http://www.w3.org/1999/xlink"
  version="1.1"
  width="86.4870mm" height="18.2880mm" viewBox="0.0000 0.0000 86.4870 18.2880">
<title>SVG Image created as working.svg date 2023/08/27 16:25:05 </title>
  <desc>Image generated by Eeschema-SVG </desc>
<g style="fill:#000000; fill-opacity:1.0000;stroke:#000000; stroke-opacity:1.0000;
stroke-linecap:round; stroke-linejoin:round;"
 transform="translate(0 0) scale(1 1)">
</g>
<g style="fill:#840000; fill-opacity:0.0; 
stroke:#840000; stroke-width:0.0000; stroke-opacity:1; 
stroke-linecap:round; stroke-linejoin:round;">
</g>
<g style="fill:#FFFFC2; fill-opacity:0.0; 
stroke:#FFFFC2; stroke-width:0.0000; stroke-opacity:1; 
stroke-linecap:round; stroke-linejoin:round;">
</g>
<g style="fill:#FFFFC2; fill-opacity:1.0000; 
stroke:#FFFFC2; stroke-width:0.0000; stroke-opacity:1; 
stroke-linecap:round; stroke-linejoin:round;">
<rect x="11.016800" y="5.334100" width="15.240000" height="7.620000" rx="0.000000" />
</g>
<g style="fill:#840084; fill-opacity:1.0000; 
stroke:#840084; stroke-width:0.0000; stroke-opacity:1; 
stroke-linecap:round; stroke-linejoin:round;">
</g>
<g style="fill:#840000; fill-opacity:1.0000; 
stroke:#840000; stroke-width:0.0000; stroke-opacity:1; 
stroke-linecap:round; stroke-linejoin:round;">
</g>
<g style="fill:#840000; fill-opacity:0.0; 
stroke:#840000; stroke-width:0.2540; stroke-opacity:1; 
stroke-linecap:round; stroke-linejoin:round;">
<rect x="11.016800" y="5.334100" width="15.240000" height="7.620000" rx="0.000000" />
</g>
<g style="fill:#840000; fill-opacity:0.0; 
stroke:#840000; stroke-width:0.1524; stroke-opacity:1; 
stroke-linecap:round; stroke-linejoin:round;">
<path style="fill:#840000; fill-opacity:0.0; 
stroke:#840000; stroke-width:0.1524; stroke-opacity:1; 
stroke-linecap:round; stroke-linejoin:round;fill:none"
d="M 17.3668,12.9541
17.3668,11.0491
" /> 
<path style="fill:#840000; fill-opacity:0.0; 
stroke:#840000; stroke-width:0.1524; stroke-opacity:1; 
stroke-linecap:round; stroke-linejoin:round;fill:none"
d="M 17.3668,6.6041
17.3668,5.3341
" /> 
<path style="fill:#840000; fill-opacity:0.0; 
stroke:#840000; stroke-width:0.1524; stroke-opacity:1; 
stroke-linecap:round; stroke-linejoin:round;fill:none"
d="M 19.9068,6.6041
19.9068,5.3341
" /> 
<path style="fill:#840000; fill-opacity:0.0; 
stroke:#840000; stroke-width:0.1524; stroke-opacity:1; 
stroke-linecap:round; stroke-linejoin:round;fill:none"
d="M 11.0168,11.6841
14.1918,11.6841
14.1918,11.0491
" /> 
<path style="fill:#840000; fill-opacity:0.0; 
stroke:#840000; stroke-width:0.1524; stroke-opacity:1; 
stroke-linecap:round; stroke-linejoin:round;fill:none"
d="M 11.0168,6.6041
14.1918,6.6041
14.1918,7.2391
" /> 
<path style="fill:#840000; fill-opacity:0.0; 
stroke:#840000; stroke-width:0.1524; stroke-opacity:1; 
stroke-linecap:round; stroke-linejoin:round;fill:none"
d="M 16.0968,7.2391
16.0968,6.6041
21.1768,6.6041
" /> 
<path style="fill:#840000; fill-opacity:0.0; 
stroke:#840000; stroke-width:0.1524; stroke-opacity:1; 
stroke-linecap:round; stroke-linejoin:round;fill:none"
d="M 21.1768,6.6041
22.4468,6.6041
22.4468,5.3341
" /> 
<circle cx="17.3668" cy="6.6041" r="0.1270" /> 
<circle cx="19.9068" cy="6.6041" r="0.1270" /> 
<circle cx="22.4468" cy="6.6041" r="0.1270" /> 
<rect x="12.921800" y="7.239100" width="5.715000" height="3.810000" rx="0.000000" />
<path style="fill:#840000; fill-opacity:0.0; 
stroke:#840000; stroke-width:0.1524; stroke-opacity:1; 
stroke-linecap:round; stroke-linejoin:round;fill:none"
d="M 19.9068,10.4141
18.6368,10.4141
" /> 
</g>
<g style="fill:#840000; fill-opacity:0.0; 
stroke:#840000; stroke-width:0.5080; stroke-opacity:1; 
stroke-linecap:round; stroke-linejoin:round;">
<path style="fill:#840000; fill-opacity:0.0; 
stroke:#840000; stroke-width:0.5080; stroke-opacity:1; 
stroke-linecap:round; stroke-linejoin:round;fill:none"
d="M 20.5418,10.1601
20.5418,10.7951
" /> 
<path style="fill:#840000; fill-opacity:0.0; 
stroke:#840000; stroke-width:0.5080; stroke-opacity:1; 
stroke-linecap:round; stroke-linejoin:round;fill:none"
d="M 20.5418,8.7631
20.5418,9.5251
" /> 
<path style="fill:#840000; fill-opacity:0.0; 
stroke:#840000; stroke-width:0.5080; stroke-opacity:1; 
stroke-linecap:round; stroke-linejoin:round;fill:none"
d="M 20.5418,7.4931
20.5418,8.1281
" /> 
</g>
<g style="fill:#840000; fill-opacity:0.0; 
stroke:#840000; stroke-width:0.1524; stroke-opacity:1; 
stroke-linecap:round; stroke-linejoin:round;">
<path style="fill:#840000; fill-opacity:0.0; 
stroke:#840000; stroke-width:0.1524; stroke-opacity:1; 
stroke-linecap:round; stroke-linejoin:round;fill:none"
d="M 20.6688,10.4141
22.4468,10.4141
" /> 
<path style="fill:#840000; fill-opacity:0.0; 
stroke:#840000; stroke-width:0.1524; stroke-opacity:1; 
stroke-linecap:round; stroke-linejoin:round;fill:none"
d="M 20.6688,7.8741
22.4468,7.8741
" /> 
<path style="fill:#840000; fill-opacity:0.0; 
stroke:#840000; stroke-width:0.1524; stroke-opacity:1; 
stroke-linecap:round; stroke-linejoin:round;fill:none"
d="M 22.4468,7.8741
22.4468,6.6041
" /> 
<path style="fill:#840000; fill-opacity:0.0; 
stroke:#840000; stroke-width:0.1524; stroke-opacity:1; 
stroke-linecap:round; stroke-linejoin:round;fill:none"
d="M 22.9548,8.7631
22.8278,8.8901
" /> 
<path style="fill:#840000; fill-opacity:0.0; 
stroke:#840000; stroke-width:0.1524; stroke-opacity:1; 
stroke-linecap:round; stroke-linejoin:round;fill:none"
d="M 22.9548,8.7631
23.4628,8.7631
" /> 
<path style="fill:#840000; fill-opacity:0.0; 
stroke:#840000; stroke-width:0.1524; stroke-opacity:1; 
stroke-linecap:round; stroke-linejoin:round;fill:none"
d="M 23.4628,8.7631
23.5898,8.6361
" /> 
</g>
<g style="fill:#840000; fill-opacity:0.0; 
stroke:#840000; stroke-width:0.2540; stroke-opacity:1; 
stroke-linecap:round; stroke-linejoin:round;">
<path style="fill:#840000; fill-opacity:0.0; 
stroke:#840000; stroke-width:0.2540; stroke-opacity:1; 
stroke-linecap:round; stroke-linejoin:round;fill:none"
d="M 19.9068,7.6201
19.9068,10.6681
19.9068,10.6681
" /> 
</g>
<g style="fill:#840000; fill-opacity:0.0; 
stroke:#840000; stroke-width:0.1524; stroke-opacity:1; 
stroke-linecap:round; stroke-linejoin:round;">
<path style="fill:#840000; fill-opacity:0.0; 
stroke:#840000; stroke-width:0.1524; stroke-opacity:1; 
stroke-linecap:round; stroke-linejoin:round;fill:none"
d="M 20.6688,9.1441
22.4468,9.1441
22.4468,12.9541
" /> 
<path style="fill:#840000; fill-opacity:0.0; 
stroke:#840000; stroke-width:0.1524; stroke-opacity:1; 
stroke-linecap:round; stroke-linejoin:round;fill:none"
d="M 22.4468,6.6041
24.9868,6.6041
24.9868,5.3341
" /> 
<path style="fill:#840000; fill-opacity:0.0; 
stroke:#840000; stroke-width:0.1524; stroke-opacity:1; 
stroke-linecap:round; stroke-linejoin:round;fill:none"
d="M 22.4468,7.8741
23.2088,7.8741
23.2088,10.4141
22.4468,10.4141
" /> 
</g>
<g style="fill:#840000; fill-opacity:1.0000; 
stroke:#840000; stroke-width:0.1524; stroke-opacity:1; 
stroke-linecap:round; stroke-linejoin:round;">
<path style="fill:#840000; fill-opacity:1.0000; 
stroke:#840000; stroke-width:0.1524; stroke-opacity:1; 
stroke-linecap:round; stroke-linejoin:round;fill-rule:evenodd;"
d="M 23.2088,8.8901
22.9548,9.3981
23.4628,9.3981
Z" /> 
<path style="fill:#840000; fill-opacity:1.0000; 
stroke:#840000; stroke-width:0.1524; stroke-opacity:1; 
stroke-linecap:round; stroke-linejoin:round;fill-rule:evenodd;"
d="M 20.7958,9.1441
21.8118,8.7631
21.8118,9.5251
20.7958,9.1441
20.9228,9.1441
20.9228,9.1441
" /> 
</g>
<g style="fill:#840000; fill-opacity:0.0; 
stroke:#840000; stroke-width:0.1524; stroke-opacity:1; 
stroke-linecap:round; stroke-linejoin:round;">
<circle cx="22.4468" cy="10.4141" r="0.1270" /> 
<circle cx="22.4468" cy="7.8741" r="0.1270" /> 
</g>
<g style="fill:#840000; fill-opacity:0.0; 
stroke:#840000; stroke-width:0.1429; stroke-opacity:1; 
stroke-linecap:round; stroke-linejoin:round;">
<text x="15.7158" y="9.7156"
textLength="4.2824" font-size="1.5240" lengthAdjust="spacingAndGlyphs"
text-anchor="middle" opacity="0">CTRL</text>
<g class="stroked-text"><desc>CTRL</desc>
<path d="M14.5999 9.5565
L14.5455 9.6110
" />
<path d="M14.5455 9.6110
L14.3822 9.6654
" />
<path d="M14.3822 9.6654
L14.2734 9.6654
" />
<path d="M14.2734 9.6654
L14.1101 9.6110
" />
<path d="M14.1101 9.6110
L14.0012 9.5021
" />
<path d="M14.0012 9.5021
L13.9468 9.3932
" />
<path d="M13.9468 9.3932
L13.8924 9.1755
" />
<path d="M13.8924 9.1755
L13.8924 9.0122
" />
<path d="M13.8924 9.0122
L13.9468 8.7945
" />
<path d="M13.9468 8.7945
L14.0012 8.6857
" />
<path d="M14.0012 8.6857
L14.1101 8.5768
" />
<path d="M14.1101 8.5768
L14.2734 8.5224
" />
<path d="M14.2734 8.5224
L14.3822 8.5224
" />
<path d="M14.3822 8.5224
L14.5455 8.5768
" />
<path d="M14.5455 8.5768
L14.5999 8.6312
" />
<path d="M14.9265 8.5224
L15.5797 8.5224
" />
<path d="M15.2531 9.6654
L15.2531 8.5224
" />
<path d="M16.6138 9.6654
L16.2328 9.1211
" />
<path d="M15.9607 9.6654
L15.9607 8.5224
" />
<path d="M15.9607 8.5224
L16.3961 8.5224
" />
<path d="M16.3961 8.5224
L16.5050 8.5768
" />
<path d="M16.5050 8.5768
L16.5594 8.6312
" />
<path d="M16.5594 8.6312
L16.6138 8.7401
" />
<path d="M16.6138 8.7401
L16.6138 8.9034
" />
<path d="M16.6138 8.9034
L16.5594 9.0122
" />
<path d="M16.5594 9.0122
L16.5050 9.0667
" />
<path d="M16.5050 9.0667
L16.3961 9.1211
" />
<path d="M16.3961 9.1211
L15.9607 9.1211
" />
<path d="M17.6480 9.6654
L17.1037 9.6654
" />
<path d="M17.1037 9.6654
L17.1037 8.5224
" />
</g></g>
<g style="fill:#840000; fill-opacity:0.0; 
stroke:#840000; stroke-width:0.1524; stroke-opacity:1; 
stroke-linecap:round; stroke-linejoin:round;">
<path d="M17.3668 12.9541
L17.3668 16.7641
" />
</g>
<g style="fill:#A90000; fill-opacity:0.0; 
stroke:#A90000; stroke-width:0.1524; stroke-opacity:1; 
stroke-linecap:round; stroke-linejoin:round;">
<g transform="rotate(-90.000000 17.6208 14.8591)">
<text x="17.6208" y="16.1291"
textLength="1.4127" font-size="1.6933" lengthAdjust="spacingAndGlyphs"
text-anchor="middle" opacity="0">1</text>
</g>
<g class="stroked-text"><desc>1</desc>
<path d="M18.9432 14.4961
L18.9432 15.2218
" />
<path d="M18.9432 14.8590
L17.6732 14.8590
" />
<path d="M17.6732 14.8590
L17.8547 14.9799
" />
<path d="M17.8547 14.9799
L17.9756 15.1009
" />
<path d="M17.9756 15.1009
L18.0361 15.2218
" />
</g></g>
<g style="fill:#840000; fill-opacity:0.0; 
stroke:#840000; stroke-width:0.1524; stroke-opacity:1; 
stroke-linecap:round; stroke-linejoin:round;">
<path d="M11.0168 6.6041
L7.2068 6.6041
" />
</g>
<g style="fill:#A90000; fill-opacity:0.0; 
stroke:#A90000; stroke-width:0.1524; stroke-opacity:1; 
stroke-linecap:round; stroke-linejoin:round;">
<text x="9.1118" y="8.1281"
textLength="1.4127" font-size="1.6933" lengthAdjust="spacingAndGlyphs"
text-anchor="middle" opacity="0">2</text>
<g class="stroked-text"><desc>2</desc>
<path d="M8.7490 7.0315
L8.8094 6.9710
" />
<path d="M8.8094 6.9710
L8.9304 6.9105
" />
<path d="M8.9304 6.9105
L9.2328 6.9105
" />
<path d="M9.2328 6.9105
L9.3537 6.9710
" />
<path d="M9.3537 6.9710
L9.4142 7.0315
" />
<path d="M9.4142 7.0315
L9.4747 7.1524
" />
<path d="M9.4747 7.1524
L9.4747 7.2734
" />
<path d="M9.4747 7.2734
L9.4142 7.4548
" />
<path d="M9.4142 7.4548
L8.6885 8.1805
" />
<path d="M8.6885 8.1805
L9.4747 8.1805
" />
</g></g>
<g style="fill:#840000; fill-opacity:0.0; 
stroke:#840000; stroke-width:0.1524; stroke-opacity:1; 
stroke-linecap:round; stroke-linejoin:round;">
<path d="M11.0168 11.6841
L7.2068 11.6841
" />
</g>
<g style="fill:#A90000; fill-opacity:0.0; 
stroke:#A90000; stroke-width:0.1524; stroke-opacity:1; 
stroke-linecap:round; stroke-linejoin:round;">
<text x="9.1118" y="13.2081"
textLength="1.4127" font-size="1.6933" lengthAdjust="spacingAndGlyphs"
text-anchor="middle" opacity="0">3</text>
<g class="stroked-text"><desc>3</desc>
<path d="M8.6885 11.9905
L9.4747 11.9905
" />
<path d="M9.4747 11.9905
L9.0513 12.4743
" />
<path d="M9.0513 12.4743
L9.2328 12.4743
" />
<path d="M9.2328 12.4743
L9.3537 12.5348
" />
<path d="M9.3537 12.5348
L9.4142 12.5953
" />
<path d="M9.4142 12.5953
L9.4747 12.7162
" />
<path d="M9.4747 12.7162
L9.4747 13.0186
" />
<path d="M9.4747 13.0186
L9.4142 13.1396
" />
<path d="M9.4142 13.1396
L9.3537 13.2001
" />
<path d="M9.3537 13.2001
L9.2328 13.2605
" />
<path d="M9.2328 13.2605
L8.8699 13.2605
" />
<path d="M8.8699 13.2605
L8.7490 13.2001
" />
<path d="M8.7490 13.2001
L8.6885 13.1396
" />
</g></g>
<g style="fill:#840000; fill-opacity:0.0; 
stroke:#840000; stroke-width:0.1524; stroke-opacity:1; 
stroke-linecap:round; stroke-linejoin:round;">
<path d="M22.4468 12.9541
L22.4468 16.7641
" />
</g>
<g style="fill:#A90000; fill-opacity:0.0; 
stroke:#A90000; stroke-width:0.1524; stroke-opacity:1; 
stroke-linecap:round; stroke-linejoin:round;">
<g transform="rotate(-90.000000 22.7008 14.8591)">
<text x="22.7008" y="16.1291"
textLength="1.4127" font-size="1.6933" lengthAdjust="spacingAndGlyphs"
text-anchor="middle" opacity="0">4</text>
</g>
<g class="stroked-text"><desc>4</desc>
<path d="M23.1766 14.6171
L24.0232 14.6171
" />
<path d="M22.6928 14.9195
L23.5999 15.2218
" />
<path d="M23.5999 15.2218
L23.5999 14.4357
" />
</g></g>
<g style="fill:#840000; fill-opacity:0.0; 
stroke:#840000; stroke-width:0.1524; stroke-opacity:1; 
stroke-linecap:round; stroke-linejoin:round;">
<path d="M17.3668 5.3341
L17.3668 1.5241
" />
</g>
<g style="fill:#A90000; fill-opacity:0.0; 
stroke:#A90000; stroke-width:0.1524; stroke-opacity:1; 
stroke-linecap:round; stroke-linejoin:round;">
<g transform="rotate(-90.000000 17.6208 3.4291)">
<text x="17.6208" y="4.6991"
textLength="1.4127" font-size="1.6933" lengthAdjust="spacingAndGlyphs"
text-anchor="middle" opacity="0">5</text>
</g>
<g class="stroked-text"><desc>5</desc>
<path d="M17.6732 3.1266
L17.6732 3.7314
" />
<path d="M17.6732 3.7314
L18.2780 3.7918
" />
<path d="M18.2780 3.7918
L18.2175 3.7314
" />
<path d="M18.2175 3.7314
L18.1570 3.6104
" />
<path d="M18.1570 3.6104
L18.1570 3.3080
" />
<path d="M18.1570 3.3080
L18.2175 3.1871
" />
<path d="M18.2175 3.1871
L18.2780 3.1266
" />
<path d="M18.2780 3.1266
L18.3989 3.0661
" />
<path d="M18.3989 3.0661
L18.7013 3.0661
" />
<path d="M18.7013 3.0661
L18.8223 3.1266
" />
<path d="M18.8223 3.1266
L18.8828 3.1871
" />
<path d="M18.8828 3.1871
L18.9432 3.3080
" />
<path d="M18.9432 3.3080
L18.9432 3.6104
" />
<path d="M18.9432 3.6104
L18.8828 3.7314
" />
<path d="M18.8828 3.7314
L18.8223 3.7918
" />
</g></g>
<g style="fill:#840000; fill-opacity:0.0; 
stroke:#840000; stroke-width:0.1524; stroke-opacity:1; 
stroke-linecap:round; stroke-linejoin:round;">
<path d="M19.9068 5.3341
L19.9068 1.5241
" />
</g>
<g style="fill:#A90000; fill-opacity:0.0; 
stroke:#A90000; stroke-width:0.1524; stroke-opacity:1; 
stroke-linecap:round; stroke-linejoin:round;">
<g transform="rotate(-90.000000 20.1608 3.4291)">
<text x="20.1608" y="4.6991"
textLength="1.4127" font-size="1.6933" lengthAdjust="spacingAndGlyphs"
text-anchor="middle" opacity="0">6</text>
</g>
<g class="stroked-text"><desc>6</desc>
<path d="M20.2132 3.1871
L20.2132 3.4290
" />
<path d="M20.2132 3.4290
L20.2737 3.5499
" />
<path d="M20.2737 3.5499
L20.3342 3.6104
" />
<path d="M20.3342 3.6104
L20.5156 3.7314
" />
<path d="M20.5156 3.7314
L20.7575 3.7918
" />
<path d="M20.7575 3.7918
L21.2413 3.7918
" />
<path d="M21.2413 3.7918
L21.3623 3.7314
" />
<path d="M21.3623 3.7314
L21.4228 3.6709
" />
<path d="M21.4228 3.6709
L21.4832 3.5499
" />
<path d="M21.4832 3.5499
L21.4832 3.3080
" />
<path d="M21.4832 3.3080
L21.4228 3.1871
" />
<path d="M21.4228 3.1871
L21.3623 3.1266
" />
<path d="M21.3623 3.1266
L21.2413 3.0661
" />
<path d="M21.2413 3.0661
L20.9389 3.0661
" />
<path d="M20.9389 3.0661
L20.8180 3.1266
" />
<path d="M20.8180 3.1266
L20.7575 3.1871
" />
<path d="M20.7575 3.1871
L20.6970 3.3080
" />
<path d="M20.6970 3.3080
L20.6970 3.5499
" />
<path d="M20.6970 3.5499
L20.7575 3.6709
" />
<path d="M20.7575 3.6709
L20.8180 3.7314
" />
<path d="M20.8180 3.7314
L20.9389 3.7918
" />
</g></g>
<g style="fill:#840000; fill-opacity:0.0; 
stroke:#840000; stroke-width:0.1524; stroke-opacity:1; 
stroke-linecap:round; stroke-linejoin:round;">
<path d="M22.4468 5.3341
L22.4468 1.5241
" />
</g>
<g style="fill:#A90000; fill-opacity:0.0; 
stroke:#A90000; stroke-width:0.1524; stroke-opacity:1; 
stroke-linecap:round; stroke-linejoin:round;">
<g transform="rotate(-90.000000 22.7008 3.4291)">
<text x="22.7008" y="4.6991"
textLength="1.4127" font-size="1.6933" lengthAdjust="spacingAndGlyphs"
text-anchor="middle" opacity="0">7</text>
</g>
<g class="stroked-text"><desc>7</desc>
<path d="M22.7532 3.8523
L22.7532 3.0057
" />
<path d="M22.7532 3.0057
L24.0232 3.5499
" />
</g></g>
<g style="fill:#840000; fill-opacity:0.0; 
stroke:#840000; stroke-width:0.1524; stroke-opacity:1; 
stroke-linecap:round; stroke-linejoin:round;">
<path d="M24.9868 5.3341
L24.9868 1.5241
" />
</g>
<g style="fill:#A90000; fill-opacity:0.0; 
stroke:#A90000; stroke-width:0.1524; stroke-opacity:1; 
stroke-linecap:round; stroke-linejoin:round;">
<g transform="rotate(-90.000000 25.2408 3.4291)">
<text x="25.2408" y="4.6991"
textLength="1.4127" font-size="1.6933" lengthAdjust="spacingAndGlyphs"
text-anchor="middle" opacity="0">8</text>
</g>
<g class="stroked-text"><desc>8</desc>
<path d="M25.8375 3.5499
L25.7770 3.6709
" />
<path d="M25.7770 3.6709
L25.7166 3.7314
" />
<path d="M25.7166 3.7314
L25.5956 3.7918
" />
<path d="M25.5956 3.7918
L25.5351 3.7918
" />
<path d="M25.5351 3.7918
L25.4142 3.7314
" />
<path d="M25.4142 3.7314
L25.3537 3.6709
" />
<path d="M25.3537 3.6709
L25.2932 3.5499
" />
<path d="M25.2932 3.5499
L25.2932 3.3080
" />
<path d="M25.2932 3.3080
L25.3537 3.1871
" />
<path d="M25.3537 3.1871
L25.4142 3.1266
" />
<path d="M25.4142 3.1266
L25.5351 3.0661
" />
<path d="M25.5351 3.0661
L25.5956 3.0661
" />
<path d="M25.5956 3.0661
L25.7166 3.1266
" />
<path d="M25.7166 3.1266
L25.7770 3.1871
" />
<path d="M25.7770 3.1871
L25.8375 3.3080
" />
<path d="M25.8375 3.3080
L25.8375 3.5499
" />
<path d="M25.8375 3.5499
L25.8980 3.6709
" />
<path d="M25.8980 3.6709
L25.9585 3.7314
" />
<path d="M25.9585 3.7314
L26.0794 3.7918
" />
<path d="M26.0794 3.7918
L26.3213 3.7918
" />
<path d="M26.3213 3.7918
L26.4423 3.7314
" />
<path d="M26.4423 3.7314
L26.5028 3.6709
" />
<path d="M26.5028 3.6709
L26.5632 3.5499
" />
<path d="M26.5632 3.5499
L26.5632 3.3080
" />
<path d="M26.5632 3.3080
L26.5028 3.1871
" />
<path d="M26.5028 3.1871
L26.4423 3.1266
" />
<path d="M26.4423 3.1266
L26.3213 3.0661
" />
<path d="M26.3213 3.0661
L26.0794 3.0661
" />
<path d="M26.0794 3.0661
L25.9585 3.1266
" />
<path d="M25.9585 3.1266
L25.8980 3.1871
" />
<path d="M25.8980 3.1871
L25.8375 3.3080
" />
</g></g>
<g style="fill:#840084; fill-opacity:0.0; 
stroke:#840084; stroke-width:0.1524; stroke-opacity:1; 
stroke-linecap:round; stroke-linejoin:round;">
</g>
<g style="fill:#006464; fill-opacity:0.0; 
stroke:#006464; stroke-width:0.1524; stroke-opacity:1; 
stroke-linecap:round; stroke-linejoin:round;">
</g>
<g style="fill:#006464; fill-opacity:0.0; 
stroke:#006464; stroke-width:0.1588; stroke-opacity:1; 
stroke-linecap:round; stroke-linejoin:round;">
<text x="28.8475" y="7.2391"
textLength="2.6415" font-size="1.6933" lengthAdjust="spacingAndGlyphs"
text-anchor="middle" opacity="0">Q?</text>
<g class="stroked-text"><desc>Q?</desc>
<path d="M28.7870 7.3043
L28.6660 7.2438
" />
<path d="M28.6660 7.2438
L28.5451 7.1229
" />
<path d="M28.5451 7.1229
L28.3637 6.9414
" />
<path d="M28.3637 6.9414
L28.2427 6.8809
" />
<path d="M28.2427 6.8809
L28.1218 6.8809
" />
<path d="M28.1822 7.1833
L28.0613 7.1229
" />
<path d="M28.0613 7.1229
L27.9403 7.0019
" />
<path d="M27.9403 7.0019
L27.8799 6.7600
" />
<path d="M27.8799 6.7600
L27.8799 6.3367
" />
<path d="M27.8799 6.3367
L27.9403 6.0948
" />
<path d="M27.9403 6.0948
L28.0613 5.9738
" />
<path d="M28.0613 5.9738
L28.1822 5.9133
" />
<path d="M28.1822 5.9133
L28.4241 5.9133
" />
<path d="M28.4241 5.9133
L28.5451 5.9738
" />
<path d="M28.5451 5.9738
L28.6660 6.0948
" />
<path d="M28.6660 6.0948
L28.7265 6.3367
" />
<path d="M28.7265 6.3367
L28.7265 6.7600
" />
<path d="M28.7265 6.7600
L28.6660 7.0019
" />
<path d="M28.6660 7.0019
L28.5451 7.1229
" />
<path d="M28.5451 7.1229
L28.4241 7.1833
" />
<path d="M28.4241 7.1833
L28.1822 7.1833
" />
<path d="M29.4523 7.0624
L29.5127 7.1229
" />
<path d="M29.5127 7.1229
L29.4523 7.1833
" />
<path d="M29.4523 7.1833
L29.3918 7.1229
" />
<path d="M29.3918 7.1229
L29.4523 7.0624
" />
<path d="M29.4523 7.0624
L29.4523 7.1833
" />
<path d="M29.2104 5.9738
L29.3313 5.9133
" />
<path d="M29.3313 5.9133
L29.6337 5.9133
" />
<path d="M29.6337 5.9133
L29.7546 5.9738
" />
<path d="M29.7546 5.9738
L29.8151 6.0948
" />
<path d="M29.8151 6.0948
L29.8151 6.2157
" />
<path d="M29.8151 6.2157
L29.7546 6.3367
" />
<path d="M29.7546 6.3367
L29.6942 6.3971
" />
<path d="M29.6942 6.3971
L29.5732 6.4576
" />
<path d="M29.5732 6.4576
L29.5127 6.5181
" />
<path d="M29.5127 6.5181
L29.4523 6.6390
" />
<path d="M29.4523 6.6390
L29.4523 6.6995
" />
</g><text x="34.0484" y="9.7791"
textLength="13.0433" font-size="1.6933" lengthAdjust="spacingAndGlyphs"
text-anchor="middle" opacity="0">IPS7091GPBF</text>
<g class="stroked-text"><desc>IPS7091GPBF</desc>
<path d="M27.9403 9.7233
L27.9403 8.4533
" />
<path d="M28.5451 9.7233
L28.5451 8.4533
" />
<path d="M28.5451 8.4533
L29.0289 8.4533
" />
<path d="M29.0289 8.4533
L29.1499 8.5138
" />
<path d="M29.1499 8.5138
L29.2104 8.5743
" />
<path d="M29.2104 8.5743
L29.2708 8.6952
" />
<path d="M29.2708 8.6952
L29.2708 8.8767
" />
<path d="M29.2708 8.8767
L29.2104 8.9976
" />
<path d="M29.2104 8.9976
L29.1499 9.0581
" />
<path d="M29.1499 9.0581
L29.0289 9.1186
" />
<path d="M29.0289 9.1186
L28.5451 9.1186
" />
<path d="M29.7547 9.6629
L29.9361 9.7233
" />
<path d="M29.9361 9.7233
L30.2385 9.7233
" />
<path d="M30.2385 9.7233
L30.3594 9.6629
" />
<path d="M30.3594 9.6629
L30.4199 9.6024
" />
<path d="M30.4199 9.6024
L30.4804 9.4814
" />
<path d="M30.4804 9.4814
L30.4804 9.3605
" />
<path d="M30.4804 9.3605
L30.4199 9.2395
" />
<path d="M30.4199 9.2395
L30.3594 9.1790
" />
<path d="M30.3594 9.1790
L30.2385 9.1186
" />
<path d="M30.2385 9.1186
L29.9966 9.0581
" />
<path d="M29.9966 9.0581
L29.8756 8.9976
" />
<path d="M29.8756 8.9976
L29.8151 8.9371
" />
<path d="M29.8151 8.9371
L29.7547 8.8162
" />
<path d="M29.7547 8.8162
L29.7547 8.6952
" />
<path d="M29.7547 8.6952
L29.8151 8.5743
" />
<path d="M29.8151 8.5743
L29.8756 8.5138
" />
<path d="M29.8756 8.5138
L29.9966 8.4533
" />
<path d="M29.9966 8.4533
L30.2989 8.4533
" />
<path d="M30.2989 8.4533
L30.4804 8.5138
" />
<path d="M30.9037 8.4533
L31.7503 8.4533
" />
<path d="M31.7503 8.4533
L31.2061 9.7233
" />
<path d="M32.4760 8.4533
L32.5970 8.4533
" />
<path d="M32.5970 8.4533
L32.7179 8.5138
" />
<path d="M32.7179 8.5138
L32.7784 8.5743
" />
<path d="M32.7784 8.5743
L32.8389 8.6952
" />
<path d="M32.8389 8.6952
L32.8994 8.9371
" />
<path d="M32.8994 8.9371
L32.8994 9.2395
" />
<path d="M32.8994 9.2395
L32.8389 9.4814
" />
<path d="M32.8389 9.4814
L32.7784 9.6024
" />
<path d="M32.7784 9.6024
L32.7179 9.6629
" />
<path d="M32.7179 9.6629
L32.5970 9.7233
" />
<path d="M32.5970 9.7233
L32.4760 9.7233
" />
<path d="M32.4760 9.7233
L32.3551 9.6629
" />
<path d="M32.3551 9.6629
L32.2946 9.6024
" />
<path d="M32.2946 9.6024
L32.2341 9.4814
" />
<path d="M32.2341 9.4814
L32.1737 9.2395
" />
<path d="M32.1737 9.2395
L32.1737 8.9371
" />
<path d="M32.1737 8.9371
L32.2341 8.6952
" />
<path d="M32.2341 8.6952
L32.2946 8.5743
" />
<path d="M32.2946 8.5743
L32.3551 8.5138
" />
<path d="M32.3551 8.5138
L32.4760 8.4533
" />
<path d="M33.5041 9.7233
L33.7460 9.7233
" />
<path d="M33.7460 9.7233
L33.8670 9.6629
" />
<path d="M33.8670 9.6629
L33.9274 9.6024
" />
<path d="M33.9274 9.6024
L34.0484 9.4209
" />
<path d="M34.0484 9.4209
L34.1089 9.1790
" />
<path d="M34.1089 9.1790
L34.1089 8.6952
" />
<path d="M34.1089 8.6952
L34.0484 8.5743
" />
<path d="M34.0484 8.5743
L33.9879 8.5138
" />
<path d="M33.9879 8.5138
L33.8670 8.4533
" />
<path d="M33.8670 8.4533
L33.6251 8.4533
" />
<path d="M33.6251 8.4533
L33.5041 8.5138
" />
<path d="M33.5041 8.5138
L33.4436 8.5743
" />
<path d="M33.4436 8.5743
L33.3832 8.6952
" />
<path d="M33.3832 8.6952
L33.3832 8.9976
" />
<path d="M33.3832 8.9976
L33.4436 9.1186
" />
<path d="M33.4436 9.1186
L33.5041 9.1790
" />
<path d="M33.5041 9.1790
L33.6251 9.2395
" />
<path d="M33.6251 9.2395
L33.8670 9.2395
" />
<path d="M33.8670 9.2395
L33.9879 9.1790
" />
<path d="M33.9879 9.1790
L34.0484 9.1186
" />
<path d="M34.0484 9.1186
L34.1089 8.9976
" />
<path d="M35.3184 9.7233
L34.5927 9.7233
" />
<path d="M34.9555 9.7233
L34.9555 8.4533
" />
<path d="M34.9555 8.4533
L34.8346 8.6348
" />
<path d="M34.8346 8.6348
L34.7136 8.7557
" />
<path d="M34.7136 8.7557
L34.5927 8.8162
" />
<path d="M36.5279 8.5138
L36.4069 8.4533
" />
<path d="M36.4069 8.4533
L36.2255 8.4533
" />
<path d="M36.2255 8.4533
L36.0441 8.5138
" />
<path d="M36.0441 8.5138
L35.9231 8.6348
" />
<path d="M35.9231 8.6348
L35.8626 8.7557
" />
<path d="M35.8626 8.7557
L35.8022 8.9976
" />
<path d="M35.8022 8.9976
L35.8022 9.1790
" />
<path d="M35.8022 9.1790
L35.8626 9.4209
" />
<path d="M35.8626 9.4209
L35.9231 9.5419
" />
<path d="M35.9231 9.5419
L36.0441 9.6629
" />
<path d="M36.0441 9.6629
L36.2255 9.7233
" />
<path d="M36.2255 9.7233
L36.3464 9.7233
" />
<path d="M36.3464 9.7233
L36.5279 9.6629
" />
<path d="M36.5279 9.6629
L36.5883 9.6024
" />
<path d="M36.5883 9.6024
L36.5883 9.1790
" />
<path d="M36.5883 9.1790
L36.3464 9.1790
" />
<path d="M37.1326 9.7233
L37.1326 8.4533
" />
<path d="M37.1326 8.4533
L37.6164 8.4533
" />
<path d="M37.6164 8.4533
L37.7374 8.5138
" />
<path d="M37.7374 8.5138
L37.7979 8.5743
" />
<path d="M37.7979 8.5743
L37.8583 8.6952
" />
<path d="M37.8583 8.6952
L37.8583 8.8767
" />
<path d="M37.8583 8.8767
L37.7979 8.9976
" />
<path d="M37.7979 8.9976
L37.7374 9.0581
" />
<path d="M37.7374 9.0581
L37.6164 9.1186
" />
<path d="M37.6164 9.1186
L37.1326 9.1186
" />
<path d="M38.8260 9.0581
L39.0074 9.1186
" />
<path d="M39.0074 9.1186
L39.0679 9.1790
" />
<path d="M39.0679 9.1790
L39.1283 9.3000
" />
<path d="M39.1283 9.3000
L39.1283 9.4814
" />
<path d="M39.1283 9.4814
L39.0679 9.6024
" />
<path d="M39.0679 9.6024
L39.0074 9.6629
" />
<path d="M39.0074 9.6629
L38.8864 9.7233
" />
<path d="M38.8864 9.7233
L38.4026 9.7233
" />
<path d="M38.4026 9.7233
L38.4026 8.4533
" />
<path d="M38.4026 8.4533
L38.8260 8.4533
" />
<path d="M38.8260 8.4533
L38.9469 8.5138
" />
<path d="M38.9469 8.5138
L39.0074 8.5743
" />
<path d="M39.0074 8.5743
L39.0679 8.6952
" />
<path d="M39.0679 8.6952
L39.0679 8.8162
" />
<path d="M39.0679 8.8162
L39.0074 8.9371
" />
<path d="M39.0074 8.9371
L38.9469 8.9976
" />
<path d="M38.9469 8.9976
L38.8260 9.0581
" />
<path d="M38.8260 9.0581
L38.4026 9.0581
" />
<path d="M40.0960 9.0581
L39.6726 9.0581
" />
<path d="M39.6726 9.7233
L39.6726 8.4533
" />
<path d="M39.6726 8.4533
L40.2774 8.4533
" />
</g></g>
<g style="fill:#840084; fill-opacity:0.0; 
stroke:#840084; stroke-width:0.1588; stroke-opacity:1; 
stroke-linecap:round; stroke-linejoin:round;">
<text x="47.8974" y="12.3191"
textLength="40.7412" font-size="1.6933" lengthAdjust="spacingAndGlyphs"
text-anchor="middle" opacity="0">Package_SO:SOIC-8_3.9x4.9mm_P1.27mm</text>
<g class="stroked-text"><desc>Package_SO:SOIC-8_3.9x4.9mm_P1.27mm</desc>
<path d="M27.9403 12.2633
L27.9403 10.9933
" />
<path d="M27.9403 10.9933
L28.4241 10.9933
" />
<path d="M28.4241 10.9933
L28.5451 11.0538
" />
<path d="M28.5451 11.0538
L28.6056 11.1143
" />
<path d="M28.6056 11.1143
L28.6660 11.2352
" />
<path d="M28.6660 11.2352
L28.6660 11.4167
" />
<path d="M28.6660 11.4167
L28.6056 11.5376
" />
<path d="M28.6056 11.5376
L28.5451 11.5981
" />
<path d="M28.5451 11.5981
L28.4241 11.6586
" />
<path d="M28.4241 11.6586
L27.9403 11.6586
" />
<path d="M29.7546 12.2633
L29.7546 11.5981
" />
<path d="M29.7546 11.5981
L29.6941 11.4771
" />
<path d="M29.6941 11.4771
L29.5732 11.4167
" />
<path d="M29.5732 11.4167
L29.3313 11.4167
" />
<path d="M29.3313 11.4167
L29.2103 11.4771
" />
<path d="M29.7546 12.2029
L29.6337 12.2633
" />
<path d="M29.6337 12.2633
L29.3313 12.2633
" />
<path d="M29.3313 12.2633
L29.2103 12.2029
" />
<path d="M29.2103 12.2029
L29.1499 12.0819
" />
<path d="M29.1499 12.0819
L29.1499 11.9609
" />
<path d="M29.1499 11.9609
L29.2103 11.8400
" />
<path d="M29.2103 11.8400
L29.3313 11.7795
" />
<path d="M29.3313 11.7795
L29.6337 11.7795
" />
<path d="M29.6337 11.7795
L29.7546 11.7190
" />
<path d="M30.9036 12.2029
L30.7827 12.2633
" />
<path d="M30.7827 12.2633
L30.5408 12.2633
" />
<path d="M30.5408 12.2633
L30.4198 12.2029
" />
<path d="M30.4198 12.2029
L30.3593 12.1424
" />
<path d="M30.3593 12.1424
L30.2989 12.0214
" />
<path d="M30.2989 12.0214
L30.2989 11.6586
" />
<path d="M30.2989 11.6586
L30.3593 11.5376
" />
<path d="M30.3593 11.5376
L30.4198 11.4771
" />
<path d="M30.4198 11.4771
L30.5408 11.4167
" />
<path d="M30.5408 11.4167
L30.7827 11.4167
" />
<path d="M30.7827 11.4167
L30.9036 11.4771
" />
<path d="M31.4479 12.2633
L31.4479 10.9933
" />
<path d="M31.5689 11.7795
L31.9317 12.2633
" />
<path d="M31.9317 11.4167
L31.4479 11.9005
" />
<path d="M33.0203 12.2633
L33.0203 11.5981
" />
<path d="M33.0203 11.5981
L32.9598 11.4771
" />
<path d="M32.9598 11.4771
L32.8389 11.4167
" />
<path d="M32.8389 11.4167
L32.5970 11.4167
" />
<path d="M32.5970 11.4167
L32.4760 11.4771
" />
<path d="M33.0203 12.2029
L32.8994 12.2633
" />
<path d="M32.8994 12.2633
L32.5970 12.2633
" />
<path d="M32.5970 12.2633
L32.4760 12.2029
" />
<path d="M32.4760 12.2029
L32.4156 12.0819
" />
<path d="M32.4156 12.0819
L32.4156 11.9609
" />
<path d="M32.4156 11.9609
L32.4760 11.8400
" />
<path d="M32.4760 11.8400
L32.5970 11.7795
" />
<path d="M32.5970 11.7795
L32.8994 11.7795
" />
<path d="M32.8994 11.7795
L33.0203 11.7190
" />
<path d="M34.1693 11.4167
L34.1693 12.4448
" />
<path d="M34.1693 12.4448
L34.1088 12.5657
" />
<path d="M34.1088 12.5657
L34.0484 12.6262
" />
<path d="M34.0484 12.6262
L33.9274 12.6867
" />
<path d="M33.9274 12.6867
L33.7460 12.6867
" />
<path d="M33.7460 12.6867
L33.6250 12.6262
" />
<path d="M34.1693 12.2029
L34.0484 12.2633
" />
<path d="M34.0484 12.2633
L33.8065 12.2633
" />
<path d="M33.8065 12.2633
L33.6855 12.2029
" />
<path d="M33.6855 12.2029
L33.6250 12.1424
" />
<path d="M33.6250 12.1424
L33.5646 12.0214
" />
<path d="M33.5646 12.0214
L33.5646 11.6586
" />
<path d="M33.5646 11.6586
L33.6250 11.5376
" />
<path d="M33.6250 11.5376
L33.6855 11.4771
" />
<path d="M33.6855 11.4771
L33.8065 11.4167
" />
<path d="M33.8065 11.4167
L34.0484 11.4167
" />
<path d="M34.0484 11.4167
L34.1693 11.4771
" />
<path d="M35.2578 12.2029
L35.1369 12.2633
" />
<path d="M35.1369 12.2633
L34.8950 12.2633
" />
<path d="M34.8950 12.2633
L34.7740 12.2029
" />
<path d="M34.7740 12.2029
L34.7136 12.0819
" />
<path d="M34.7136 12.0819
L34.7136 11.5981
" />
<path d="M34.7136 11.5981
L34.7740 11.4771
" />
<path d="M34.7740 11.4771
L34.8950 11.4167
" />
<path d="M34.8950 11.4167
L35.1369 11.4167
" />
<path d="M35.1369 11.4167
L35.2578 11.4771
" />
<path d="M35.2578 11.4771
L35.3183 11.5981
" />
<path d="M35.3183 11.5981
L35.3183 11.7190
" />
<path d="M35.3183 11.7190
L34.7136 11.8400
" />
<path d="M35.5603 12.3843
L36.5279 12.3843
" />
<path d="M36.7698 12.2029
L36.9512 12.2633
" />
<path d="M36.9512 12.2633
L37.2536 12.2633
" />
<path d="M37.2536 12.2633
L37.3745 12.2029
" />
<path d="M37.3745 12.2029
L37.4350 12.1424
" />
<path d="M37.4350 12.1424
L37.4955 12.0214
" />
<path d="M37.4955 12.0214
L37.4955 11.9005
" />
<path d="M37.4955 11.9005
L37.4350 11.7795
" />
<path d="M37.4350 11.7795
L37.3745 11.7190
" />
<path d="M37.3745 11.7190
L37.2536 11.6586
" />
<path d="M37.2536 11.6586
L37.0117 11.5981
" />
<path d="M37.0117 11.5981
L36.8907 11.5376
" />
<path d="M36.8907 11.5376
L36.8302 11.4771
" />
<path d="M36.8302 11.4771
L36.7698 11.3562
" />
<path d="M36.7698 11.3562
L36.7698 11.2352
" />
<path d="M36.7698 11.2352
L36.8302 11.1143
" />
<path d="M36.8302 11.1143
L36.8907 11.0538
" />
<path d="M36.8907 11.0538
L37.0117 10.9933
" />
<path d="M37.0117 10.9933
L37.3140 10.9933
" />
<path d="M37.3140 10.9933
L37.4955 11.0538
" />
<path d="M38.2816 10.9933
L38.5235 10.9933
" />
<path d="M38.5235 10.9933
L38.6445 11.0538
" />
<path d="M38.6445 11.0538
L38.7654 11.1748
" />
<path d="M38.7654 11.1748
L38.8259 11.4167
" />
<path d="M38.8259 11.4167
L38.8259 11.8400
" />
<path d="M38.8259 11.8400
L38.7654 12.0819
" />
<path d="M38.7654 12.0819
L38.6445 12.2029
" />
<path d="M38.6445 12.2029
L38.5235 12.2633
" />
<path d="M38.5235 12.2633
L38.2816 12.2633
" />
<path d="M38.2816 12.2633
L38.1607 12.2029
" />
<path d="M38.1607 12.2029
L38.0397 12.0819
" />
<path d="M38.0397 12.0819
L37.9793 11.8400
" />
<path d="M37.9793 11.8400
L37.9793 11.4167
" />
<path d="M37.9793 11.4167
L38.0397 11.1748
" />
<path d="M38.0397 11.1748
L38.1607 11.0538
" />
<path d="M38.1607 11.0538
L38.2816 10.9933
" />
<path d="M39.3702 12.1424
L39.4307 12.2029
" />
<path d="M39.4307 12.2029
L39.3702 12.2633
" />
<path d="M39.3702 12.2633
L39.3098 12.2029
" />
<path d="M39.3098 12.2029
L39.3702 12.1424
" />
<path d="M39.3702 12.1424
L39.3702 12.2633
" />
<path d="M39.3702 11.4771
L39.4307 11.5376
" />
<path d="M39.4307 11.5376
L39.3702 11.5981
" />
<path d="M39.3702 11.5981
L39.3098 11.5376
" />
<path d="M39.3098 11.5376
L39.3702 11.4771
" />
<path d="M39.3702 11.4771
L39.3702 11.5981
" />
<path d="M39.9146 12.2029
L40.0960 12.2633
" />
<path d="M40.0960 12.2633
L40.3984 12.2633
" />
<path d="M40.3984 12.2633
L40.5193 12.2029
" />
<path d="M40.5193 12.2029
L40.5798 12.1424
" />
<path d="M40.5798 12.1424
L40.6403 12.0214
" />
<path d="M40.6403 12.0214
L40.6403 11.9005
" />
<path d="M40.6403 11.9005
L40.5798 11.7795
" />
<path d="M40.5798 11.7795
L40.5193 11.7190
" />
<path d="M40.5193 11.7190
L40.3984 11.6586
" />
<path d="M40.3984 11.6586
L40.1565 11.5981
" />
<path d="M40.1565 11.5981
L40.0355 11.5376
" />
<path d="M40.0355 11.5376
L39.9750 11.4771
" />
<path d="M39.9750 11.4771
L39.9146 11.3562
" />
<path d="M39.9146 11.3562
L39.9146 11.2352
" />
<path d="M39.9146 11.2352
L39.9750 11.1143
" />
<path d="M39.9750 11.1143
L40.0355 11.0538
" />
<path d="M40.0355 11.0538
L40.1565 10.9933
" />
<path d="M40.1565 10.9933
L40.4588 10.9933
" />
<path d="M40.4588 10.9933
L40.6403 11.0538
" />
<path d="M41.4264 10.9933
L41.6683 10.9933
" />
<path d="M41.6683 10.9933
L41.7893 11.0538
" />
<path d="M41.7893 11.0538
L41.9102 11.1748
" />
<path d="M41.9102 11.1748
L41.9707 11.4167
" />
<path d="M41.9707 11.4167
L41.9707 11.8400
" />
<path d="M41.9707 11.8400
L41.9102 12.0819
" />
<path d="M41.9102 12.0819
L41.7893 12.2029
" />
<path d="M41.7893 12.2029
L41.6683 12.2633
" />
<path d="M41.6683 12.2633
L41.4264 12.2633
" />
<path d="M41.4264 12.2633
L41.3055 12.2029
" />
<path d="M41.3055 12.2029
L41.1845 12.0819
" />
<path d="M41.1845 12.0819
L41.1241 11.8400
" />
<path d="M41.1241 11.8400
L41.1241 11.4167
" />
<path d="M41.1241 11.4167
L41.1845 11.1748
" />
<path d="M41.1845 11.1748
L41.3055 11.0538
" />
<path d="M41.3055 11.0538
L41.4264 10.9933
" />
<path d="M42.5150 12.2633
L42.5150 10.9933
" />
<path d="M43.8455 12.1424
L43.7851 12.2029
" />
<path d="M43.7851 12.2029
L43.6036 12.2633
" />
<path d="M43.6036 12.2633
L43.4827 12.2633
" />
<path d="M43.4827 12.2633
L43.3013 12.2029
" />
<path d="M43.3013 12.2029
L43.1803 12.0819
" />
<path d="M43.1803 12.0819
L43.1198 11.9609
" />
<path d="M43.1198 11.9609
L43.0594 11.7190
" />
<path d="M43.0594 11.7190
L43.0594 11.5376
" />
<path d="M43.0594 11.5376
L43.1198 11.2957
" />
<path d="M43.1198 11.2957
L43.1803 11.1748
" />
<path d="M43.1803 11.1748
L43.3013 11.0538
" />
<path d="M43.3013 11.0538
L43.4827 10.9933
" />
<path d="M43.4827 10.9933
L43.6036 10.9933
" />
<path d="M43.6036 10.9933
L43.7851 11.0538
" />
<path d="M43.7851 11.0538
L43.8455 11.1143
" />
<path d="M44.3898 11.7795
L45.3575 11.7795
" />
<path d="M46.1437 11.5376
L46.0227 11.4771
" />
<path d="M46.0227 11.4771
L45.9622 11.4167
" />
<path d="M45.9622 11.4167
L45.9018 11.2957
" />
<path d="M45.9018 11.2957
L45.9018 11.2352
" />
<path d="M45.9018 11.2352
L45.9622 11.1143
" />
<path d="M45.9622 11.1143
L46.0227 11.0538
" />
<path d="M46.0227 11.0538
L46.1437 10.9933
" />
<path d="M46.1437 10.9933
L46.3856 10.9933
" />
<path d="M46.3856 10.9933
L46.5065 11.0538
" />
<path d="M46.5065 11.0538
L46.5670 11.1143
" />
<path d="M46.5670 11.1143
L46.6275 11.2352
" />
<path d="M46.6275 11.2352
L46.6275 11.2957
" />
<path d="M46.6275 11.2957
L46.5670 11.4167
" />
<path d="M46.5670 11.4167
L46.5065 11.4771
" />
<path d="M46.5065 11.4771
L46.3856 11.5376
" />
<path d="M46.3856 11.5376
L46.1437 11.5376
" />
<path d="M46.1437 11.5376
L46.0227 11.5981
" />
<path d="M46.0227 11.5981
L45.9622 11.6586
" />
<path d="M45.9622 11.6586
L45.9018 11.7795
" />
<path d="M45.9018 11.7795
L45.9018 12.0214
" />
<path d="M45.9018 12.0214
L45.9622 12.1424
" />
<path d="M45.9622 12.1424
L46.0227 12.2029
" />
<path d="M46.0227 12.2029
L46.1437 12.2633
" />
<path d="M46.1437 12.2633
L46.3856 12.2633
" />
<path d="M46.3856 12.2633
L46.5065 12.2029
" />
<path d="M46.5065 12.2029
L46.5670 12.1424
" />
<path d="M46.5670 12.1424
L46.6275 12.0214
" />
<path d="M46.6275 12.0214
L46.6275 11.7795
" />
<path d="M46.6275 11.7795
L46.5670 11.6586
" />
<path d="M46.5670 11.6586
L46.5065 11.5981
" />
<path d="M46.5065 11.5981
L46.3856 11.5376
" />
<path d="M46.8694 12.3843
L47.8370 12.3843
" />
<path d="M48.0184 10.9933
L48.8046 10.9933
" />
<path d="M48.8046 10.9933
L48.3812 11.4771
" />
<path d="M48.3812 11.4771
L48.5627 11.4771
" />
<path d="M48.5627 11.4771
L48.6836 11.5376
" />
<path d="M48.6836 11.5376
L48.7441 11.5981
" />
<path d="M48.7441 11.5981
L48.8046 11.7190
" />
<path d="M48.8046 11.7190
L48.8046 12.0214
" />
<path d="M48.8046 12.0214
L48.7441 12.1424
" />
<path d="M48.7441 12.1424
L48.6836 12.2029
" />
<path d="M48.6836 12.2029
L48.5627 12.2633
" />
<path d="M48.5627 12.2633
L48.1998 12.2633
" />
<path d="M48.1998 12.2633
L48.0789 12.2029
" />
<path d="M48.0789 12.2029
L48.0184 12.1424
" />
<path d="M49.3488 12.1424
L49.4093 12.2029
" />
<path d="M49.4093 12.2029
L49.3488 12.2633
" />
<path d="M49.3488 12.2633
L49.2884 12.2029
" />
<path d="M49.2884 12.2029
L49.3488 12.1424
" />
<path d="M49.3488 12.1424
L49.3488 12.2633
" />
<path d="M50.0141 12.2633
L50.2560 12.2633
" />
<path d="M50.2560 12.2633
L50.3770 12.2029
" />
<path d="M50.3770 12.2029
L50.4374 12.1424
" />
<path d="M50.4374 12.1424
L50.5584 11.9609
" />
<path d="M50.5584 11.9609
L50.6189 11.7190
" />
<path d="M50.6189 11.7190
L50.6189 11.2352
" />
<path d="M50.6189 11.2352
L50.5584 11.1143
" />
<path d="M50.5584 11.1143
L50.4979 11.0538
" />
<path d="M50.4979 11.0538
L50.3770 10.9933
" />
<path d="M50.3770 10.9933
L50.1351 10.9933
" />
<path d="M50.1351 10.9933
L50.0141 11.0538
" />
<path d="M50.0141 11.0538
L49.9536 11.1143
" />
<path d="M49.9536 11.1143
L49.8932 11.2352
" />
<path d="M49.8932 11.2352
L49.8932 11.5376
" />
<path d="M49.8932 11.5376
L49.9536 11.6586
" />
<path d="M49.9536 11.6586
L50.0141 11.7190
" />
<path d="M50.0141 11.7190
L50.1351 11.7795
" />
<path d="M50.1351 11.7795
L50.3770 11.7795
" />
<path d="M50.3770 11.7795
L50.4979 11.7190
" />
<path d="M50.4979 11.7190
L50.5584 11.6586
" />
<path d="M50.5584 11.6586
L50.6189 11.5376
" />
<path d="M51.0422 12.2633
L51.7074 11.4167
" />
<path d="M51.0422 11.4167
L51.7074 12.2633
" />
<path d="M52.7355 11.4167
L52.7355 12.2633
" />
<path d="M52.4331 10.9329
L52.1308 11.8400
" />
<path d="M52.1308 11.8400
L52.9169 11.8400
" />
<path d="M53.4007 12.1424
L53.4612 12.2029
" />
<path d="M53.4612 12.2029
L53.4007 12.2633
" />
<path d="M53.4007 12.2633
L53.3403 12.2029
" />
<path d="M53.3403 12.2029
L53.4007 12.1424
" />
<path d="M53.4007 12.1424
L53.4007 12.2633
" />
<path d="M54.0660 12.2633
L54.3079 12.2633
" />
<path d="M54.3079 12.2633
L54.4289 12.2029
" />
<path d="M54.4289 12.2029
L54.4893 12.1424
" />
<path d="M54.4893 12.1424
L54.6103 11.9609
" />
<path d="M54.6103 11.9609
L54.6708 11.7190
" />
<path d="M54.6708 11.7190
L54.6708 11.2352
" />
<path d="M54.6708 11.2352
L54.6103 11.1143
" />
<path d="M54.6103 11.1143
L54.5498 11.0538
" />
<path d="M54.5498 11.0538
L54.4289 10.9933
" />
<path d="M54.4289 10.9933
L54.1870 10.9933
" />
<path d="M54.1870 10.9933
L54.0660 11.0538
" />
<path d="M54.0660 11.0538
L54.0055 11.1143
" />
<path d="M54.0055 11.1143
L53.9451 11.2352
" />
<path d="M53.9451 11.2352
L53.9451 11.5376
" />
<path d="M53.9451 11.5376
L54.0055 11.6586
" />
<path d="M54.0055 11.6586
L54.0660 11.7190
" />
<path d="M54.0660 11.7190
L54.1870 11.7795
" />
<path d="M54.1870 11.7795
L54.4289 11.7795
" />
<path d="M54.4289 11.7795
L54.5498 11.7190
" />
<path d="M54.5498 11.7190
L54.6103 11.6586
" />
<path d="M54.6103 11.6586
L54.6708 11.5376
" />
<path d="M55.2150 12.2633
L55.2150 11.4167
" />
<path d="M55.2150 11.5376
L55.2755 11.4771
" />
<path d="M55.2755 11.4771
L55.3965 11.4167
" />
<path d="M55.3965 11.4167
L55.5779 11.4167
" />
<path d="M55.5779 11.4167
L55.6988 11.4771
" />
<path d="M55.6988 11.4771
L55.7593 11.5981
" />
<path d="M55.7593 11.5981
L55.7593 12.2633
" />
<path d="M55.7593 11.5981
L55.8198 11.4771
" />
<path d="M55.8198 11.4771
L55.9407 11.4167
" />
<path d="M55.9407 11.4167
L56.1222 11.4167
" />
<path d="M56.1222 11.4167
L56.2431 11.4771
" />
<path d="M56.2431 11.4771
L56.3036 11.5981
" />
<path d="M56.3036 11.5981
L56.3036 12.2633
" />
<path d="M56.9083 12.2633
L56.9083 11.4167
" />
<path d="M56.9083 11.5376
L56.9688 11.4771
" />
<path d="M56.9688 11.4771
L57.0898 11.4167
" />
<path d="M57.0898 11.4167
L57.2712 11.4167
" />
<path d="M57.2712 11.4167
L57.3921 11.4771
" />
<path d="M57.3921 11.4771
L57.4526 11.5981
" />
<path d="M57.4526 11.5981
L57.4526 12.2633
" />
<path d="M57.4526 11.5981
L57.5131 11.4771
" />
<path d="M57.5131 11.4771
L57.6340 11.4167
" />
<path d="M57.6340 11.4167
L57.8155 11.4167
" />
<path d="M57.8155 11.4167
L57.9364 11.4771
" />
<path d="M57.9364 11.4771
L57.9969 11.5981
" />
<path d="M57.9969 11.5981
L57.9969 12.2633
" />
<path d="M58.2993 12.3843
L59.2669 12.3843
" />
<path d="M59.5692 12.2633
L59.5692 10.9933
" />
<path d="M59.5692 10.9933
L60.0530 10.9933
" />
<path d="M60.0530 10.9933
L60.1740 11.0538
" />
<path d="M60.1740 11.0538
L60.2345 11.1143
" />
<path d="M60.2345 11.1143
L60.2949 11.2352
" />
<path d="M60.2949 11.2352
L60.2949 11.4167
" />
<path d="M60.2949 11.4167
L60.2345 11.5376
" />
<path d="M60.2345 11.5376
L60.1740 11.5981
" />
<path d="M60.1740 11.5981
L60.0530 11.6586
" />
<path d="M60.0530 11.6586
L59.5692 11.6586
" />
<path d="M61.5045 12.2633
L60.7788 12.2633
" />
<path d="M61.1416 12.2633
L61.1416 10.9933
" />
<path d="M61.1416 10.9933
L61.0207 11.1748
" />
<path d="M61.0207 11.1748
L60.8997 11.2957
" />
<path d="M60.8997 11.2957
L60.7788 11.3562
" />
<path d="M62.0487 12.1424
L62.1092 12.2029
" />
<path d="M62.1092 12.2029
L62.0487 12.2633
" />
<path d="M62.0487 12.2633
L61.9883 12.2029
" />
<path d="M61.9883 12.2029
L62.0487 12.1424
" />
<path d="M62.0487 12.1424
L62.0487 12.2633
" />
<path d="M62.5931 11.1143
L62.6535 11.0538
" />
<path d="M62.6535 11.0538
L62.7745 10.9933
" />
<path d="M62.7745 10.9933
L63.0769 10.9933
" />
<path d="M63.0769 10.9933
L63.1978 11.0538
" />
<path d="M63.1978 11.0538
L63.2583 11.1143
" />
<path d="M63.2583 11.1143
L63.3188 11.2352
" />
<path d="M63.3188 11.2352
L63.3188 11.3562
" />
<path d="M63.3188 11.3562
L63.2583 11.5376
" />
<path d="M63.2583 11.5376
L62.5326 12.2633
" />
<path d="M62.5326 12.2633
L63.3188 12.2633
" />
<path d="M63.7421 10.9933
L64.5887 10.9933
" />
<path d="M64.5887 10.9933
L64.0445 12.2633
" />
<path d="M65.0725 12.2633
L65.0725 11.4167
" />
<path d="M65.0725 11.5376
L65.1330 11.4771
" />
<path d="M65.1330 11.4771
L65.2540 11.4167
" />
<path d="M65.2540 11.4167
L65.4354 11.4167
" />
<path d="M65.4354 11.4167
L65.5563 11.4771
" />
<path d="M65.5563 11.4771
L65.6168 11.5981
" />
<path d="M65.6168 11.5981
L65.6168 12.2633
" />
<path d="M65.6168 11.5981
L65.6773 11.4771
" />
<path d="M65.6773 11.4771
L65.7982 11.4167
" />
<path d="M65.7982 11.4167
L65.9797 11.4167
" />
<path d="M65.9797 11.4167
L66.1006 11.4771
" />
<path d="M66.1006 11.4771
L66.1611 11.5981
" />
<path d="M66.1611 11.5981
L66.1611 12.2633
" />
<path d="M66.7658 12.2633
L66.7658 11.4167
" />
<path d="M66.7658 11.5376
L66.8263 11.4771
" />
<path d="M66.8263 11.4771
L66.9473 11.4167
" />
<path d="M66.9473 11.4167
L67.1287 11.4167
" />
<path d="M67.1287 11.4167
L67.2496 11.4771
" />
<path d="M67.2496 11.4771
L67.3101 11.5981
" />
<path d="M67.3101 11.5981
L67.3101 12.2633
" />
<path d="M67.3101 11.5981
L67.3706 11.4771
" />
<path d="M67.3706 11.4771
L67.4915 11.4167
" />
<path d="M67.4915 11.4167
L67.6730 11.4167
" />
<path d="M67.6730 11.4167
L67.7939 11.4771
" />
<path d="M67.7939 11.4771
L67.8544 11.5981
" />
<path d="M67.8544 11.5981
L67.8544 12.2633
" />
</g><text x="48.3206" y="9.7791"
textLength="61.9076" font-size="1.6933" lengthAdjust="spacingAndGlyphs"
text-anchor="middle" opacity="0">http://www.irf.com/product-info/datasheets/data/ips7091.pdf</text>
<g class="stroked-text"><desc>http://www.irf.com/product-info/datasheets/data/ips7091.pdf</desc>
<path d="M17.7803 9.7233
L17.7803 8.4533
" />
<path d="M18.3246 9.7233
L18.3246 9.0581
" />
<path d="M18.3246 9.0581
L18.2641 8.9371
" />
<path d="M18.2641 8.9371
L18.1432 8.8767
" />
<path d="M18.1432 8.8767
L17.9618 8.8767
" />
<path d="M17.9618 8.8767
L17.8408 8.9371
" />
<path d="M17.8408 8.9371
L17.7803 8.9976
" />
<path d="M18.7479 8.8767
L19.2317 8.8767
" />
<path d="M18.9293 8.4533
L18.9293 9.5419
" />
<path d="M18.9293 9.5419
L18.9898 9.6629
" />
<path d="M18.9898 9.6629
L19.1108 9.7233
" />
<path d="M19.1108 9.7233
L19.2317 9.7233
" />
<path d="M19.4736 8.8767
L19.9574 8.8767
" />
<path d="M19.6550 8.4533
L19.6550 9.5419
" />
<path d="M19.6550 9.5419
L19.7155 9.6629
" />
<path d="M19.7155 9.6629
L19.8365 9.7233
" />
<path d="M19.8365 9.7233
L19.9574 9.7233
" />
<path d="M20.3807 8.8767
L20.3807 10.1467
" />
<path d="M20.3807 8.9371
L20.5017 8.8767
" />
<path d="M20.5017 8.8767
L20.7436 8.8767
" />
<path d="M20.7436 8.8767
L20.8645 8.9371
" />
<path d="M20.8645 8.9371
L20.9250 8.9976
" />
<path d="M20.9250 8.9976
L20.9855 9.1186
" />
<path d="M20.9855 9.1186
L20.9855 9.4814
" />
<path d="M20.9855 9.4814
L20.9250 9.6024
" />
<path d="M20.9250 9.6024
L20.8645 9.6629
" />
<path d="M20.8645 9.6629
L20.7436 9.7233
" />
<path d="M20.7436 9.7233
L20.5017 9.7233
" />
<path d="M20.5017 9.7233
L20.3807 9.6629
" />
<path d="M21.5297 9.6024
L21.5902 9.6629
" />
<path d="M21.5902 9.6629
L21.5297 9.7233
" />
<path d="M21.5297 9.7233
L21.4693 9.6629
" />
<path d="M21.4693 9.6629
L21.5297 9.6024
" />
<path d="M21.5297 9.6024
L21.5297 9.7233
" />
<path d="M21.5297 8.9371
L21.5902 8.9976
" />
<path d="M21.5902 8.9976
L21.5297 9.0581
" />
<path d="M21.5297 9.0581
L21.4693 8.9976
" />
<path d="M21.4693 8.9976
L21.5297 8.9371
" />
<path d="M21.5297 8.9371
L21.5297 9.0581
" />
<path d="M23.0417 8.3929
L21.9531 10.0257
" />
<path d="M24.3722 8.3929
L23.2836 10.0257
" />
<path d="M24.6746 8.8767
L24.9165 9.7233
" />
<path d="M24.9165 9.7233
L25.1584 9.1186
" />
<path d="M25.1584 9.1186
L25.4003 9.7233
" />
<path d="M25.4003 9.7233
L25.6422 8.8767
" />
<path d="M26.0051 8.8767
L26.2470 9.7233
" />
<path d="M26.2470 9.7233
L26.4889 9.1186
" />
<path d="M26.4889 9.1186
L26.7308 9.7233
" />
<path d="M26.7308 9.7233
L26.9727 8.8767
" />
<path d="M27.3356 8.8767
L27.5775 9.7233
" />
<path d="M27.5775 9.7233
L27.8194 9.1186
" />
<path d="M27.8194 9.1186
L28.0613 9.7233
" />
<path d="M28.0613 9.7233
L28.3032 8.8767
" />
<path d="M28.7870 9.6024
L28.8475 9.6629
" />
<path d="M28.8475 9.6629
L28.7870 9.7233
" />
<path d="M28.7870 9.7233
L28.7266 9.6629
" />
<path d="M28.7266 9.6629
L28.7870 9.6024
" />
<path d="M28.7870 9.6024
L28.7870 9.7233
" />
<path d="M29.3918 9.7233
L29.3918 8.8767
" />
<path d="M29.3918 8.4533
L29.3314 8.5138
" />
<path d="M29.3314 8.5138
L29.3918 8.5743
" />
<path d="M29.3918 8.5743
L29.4523 8.5138
" />
<path d="M29.4523 8.5138
L29.3918 8.4533
" />
<path d="M29.3918 8.4533
L29.3918 8.5743
" />
<path d="M29.9966 9.7233
L29.9966 8.8767
" />
<path d="M29.9966 9.1186
L30.0571 8.9976
" />
<path d="M30.0571 8.9976
L30.1176 8.9371
" />
<path d="M30.1176 8.9371
L30.2385 8.8767
" />
<path d="M30.2385 8.8767
L30.3595 8.8767
" />
<path d="M30.6014 8.8767
L31.0852 8.8767
" />
<path d="M30.7828 9.7233
L30.7828 8.6348
" />
<path d="M30.7828 8.6348
L30.8433 8.5138
" />
<path d="M30.8433 8.5138
L30.9643 8.4533
" />
<path d="M30.9643 8.4533
L31.0852 8.4533
" />
<path d="M31.5085 9.6024
L31.5690 9.6629
" />
<path d="M31.5690 9.6629
L31.5085 9.7233
" />
<path d="M31.5085 9.7233
L31.4481 9.6629
" />
<path d="M31.4481 9.6629
L31.5085 9.6024
" />
<path d="M31.5085 9.6024
L31.5085 9.7233
" />
<path d="M32.6576 9.6629
L32.5367 9.7233
" />
<path d="M32.5367 9.7233
L32.2948 9.7233
" />
<path d="M32.2948 9.7233
L32.1738 9.6629
" />
<path d="M32.1738 9.6629
L32.1133 9.6024
" />
<path d="M32.1133 9.6024
L32.0529 9.4814
" />
<path d="M32.0529 9.4814
L32.0529 9.1186
" />
<path d="M32.0529 9.1186
L32.1133 8.9976
" />
<path d="M32.1133 8.9976
L32.1738 8.9371
" />
<path d="M32.1738 8.9371
L32.2948 8.8767
" />
<path d="M32.2948 8.8767
L32.5367 8.8767
" />
<path d="M32.5367 8.8767
L32.6576 8.9371
" />
<path d="M33.3834 9.7233
L33.2624 9.6629
" />
<path d="M33.2624 9.6629
L33.2019 9.6024
" />
<path d="M33.2019 9.6024
L33.1415 9.4814
" />
<path d="M33.1415 9.4814
L33.1415 9.1186
" />
<path d="M33.1415 9.1186
L33.2019 8.9976
" />
<path d="M33.2019 8.9976
L33.2624 8.9371
" />
<path d="M33.2624 8.9371
L33.3834 8.8767
" />
<path d="M33.3834 8.8767
L33.5648 8.8767
" />
<path d="M33.5648 8.8767
L33.6857 8.9371
" />
<path d="M33.6857 8.9371
L33.7462 8.9976
" />
<path d="M33.7462 8.9976
L33.8067 9.1186
" />
<path d="M33.8067 9.1186
L33.8067 9.4814
" />
<path d="M33.8067 9.4814
L33.7462 9.6024
" />
<path d="M33.7462 9.6024
L33.6857 9.6629
" />
<path d="M33.6857 9.6629
L33.5648 9.7233
" />
<path d="M33.5648 9.7233
L33.3834 9.7233
" />
<path d="M34.3509 9.7233
L34.3509 8.8767
" />
<path d="M34.3509 8.9976
L34.4114 8.9371
" />
<path d="M34.4114 8.9371
L34.5324 8.8767
" />
<path d="M34.5324 8.8767
L34.7138 8.8767
" />
<path d="M34.7138 8.8767
L34.8347 8.9371
" />
<path d="M34.8347 8.9371
L34.8952 9.0581
" />
<path d="M34.8952 9.0581
L34.8952 9.7233
" />
<path d="M34.8952 9.0581
L34.9557 8.9371
" />
<path d="M34.9557 8.9371
L35.0766 8.8767
" />
<path d="M35.0766 8.8767
L35.2581 8.8767
" />
<path d="M35.2581 8.8767
L35.3790 8.9371
" />
<path d="M35.3790 8.9371
L35.4395 9.0581
" />
<path d="M35.4395 9.0581
L35.4395 9.7233
" />
<path d="M36.9514 8.3929
L35.8628 10.0257
" />
<path d="M37.3747 8.8767
L37.3747 10.1467
" />
<path d="M37.3747 8.9371
L37.4957 8.8767
" />
<path d="M37.4957 8.8767
L37.7376 8.8767
" />
<path d="M37.7376 8.8767
L37.8585 8.9371
" />
<path d="M37.8585 8.9371
L37.9190 8.9976
" />
<path d="M37.9190 8.9976
L37.9795 9.1186
" />
<path d="M37.9795 9.1186
L37.9795 9.4814
" />
<path d="M37.9795 9.4814
L37.9190 9.6024
" />
<path d="M37.9190 9.6024
L37.8585 9.6629
" />
<path d="M37.8585 9.6629
L37.7376 9.7233
" />
<path d="M37.7376 9.7233
L37.4957 9.7233
" />
<path d="M37.4957 9.7233
L37.3747 9.6629
" />
<path d="M38.5237 9.7233
L38.5237 8.8767
" />
<path d="M38.5237 9.1186
L38.5842 8.9976
" />
<path d="M38.5842 8.9976
L38.6447 8.9371
" />
<path d="M38.6447 8.9371
L38.7656 8.8767
" />
<path d="M38.7656 8.8767
L38.8866 8.8767
" />
<path d="M39.4914 9.7233
L39.3704 9.6629
" />
<path d="M39.3704 9.6629
L39.3099 9.6024
" />
<path d="M39.3099 9.6024
L39.2495 9.4814
" />
<path d="M39.2495 9.4814
L39.2495 9.1186
" />
<path d="M39.2495 9.1186
L39.3099 8.9976
" />
<path d="M39.3099 8.9976
L39.3704 8.9371
" />
<path d="M39.3704 8.9371
L39.4914 8.8767
" />
<path d="M39.4914 8.8767
L39.6728 8.8767
" />
<path d="M39.6728 8.8767
L39.7937 8.9371
" />
<path d="M39.7937 8.9371
L39.8542 8.9976
" />
<path d="M39.8542 8.9976
L39.9147 9.1186
" />
<path d="M39.9147 9.1186
L39.9147 9.4814
" />
<path d="M39.9147 9.4814
L39.8542 9.6024
" />
<path d="M39.8542 9.6024
L39.7937 9.6629
" />
<path d="M39.7937 9.6629
L39.6728 9.7233
" />
<path d="M39.6728 9.7233
L39.4914 9.7233
" />
<path d="M41.0032 9.7233
L41.0032 8.4533
" />
<path d="M41.0032 9.6629
L40.8823 9.7233
" />
<path d="M40.8823 9.7233
L40.6404 9.7233
" />
<path d="M40.6404 9.7233
L40.5194 9.6629
" />
<path d="M40.5194 9.6629
L40.4589 9.6024
" />
<path d="M40.4589 9.6024
L40.3985 9.4814
" />
<path d="M40.3985 9.4814
L40.3985 9.1186
" />
<path d="M40.3985 9.1186
L40.4589 8.9976
" />
<path d="M40.4589 8.9976
L40.5194 8.9371
" />
<path d="M40.5194 8.9371
L40.6404 8.8767
" />
<path d="M40.6404 8.8767
L40.8823 8.8767
" />
<path d="M40.8823 8.8767
L41.0032 8.9371
" />
<path d="M42.1522 8.8767
L42.1522 9.7233
" />
<path d="M41.6079 8.8767
L41.6079 9.5419
" />
<path d="M41.6079 9.5419
L41.6684 9.6629
" />
<path d="M41.6684 9.6629
L41.7894 9.7233
" />
<path d="M41.7894 9.7233
L41.9708 9.7233
" />
<path d="M41.9708 9.7233
L42.0917 9.6629
" />
<path d="M42.0917 9.6629
L42.1522 9.6024
" />
<path d="M43.3012 9.6629
L43.1803 9.7233
" />
<path d="M43.1803 9.7233
L42.9384 9.7233
" />
<path d="M42.9384 9.7233
L42.8174 9.6629
" />
<path d="M42.8174 9.6629
L42.7569 9.6024
" />
<path d="M42.7569 9.6024
L42.6965 9.4814
" />
<path d="M42.6965 9.4814
L42.6965 9.1186
" />
<path d="M42.6965 9.1186
L42.7569 8.9976
" />
<path d="M42.7569 8.9976
L42.8174 8.9371
" />
<path d="M42.8174 8.9371
L42.9384 8.8767
" />
<path d="M42.9384 8.8767
L43.1803 8.8767
" />
<path d="M43.1803 8.8767
L43.3012 8.9371
" />
<path d="M43.6641 8.8767
L44.1479 8.8767
" />
<path d="M43.8455 8.4533
L43.8455 9.5419
" />
<path d="M43.8455 9.5419
L43.9060 9.6629
" />
<path d="M43.9060 9.6629
L44.0270 9.7233
" />
<path d="M44.0270 9.7233
L44.1479 9.7233
" />
<path d="M44.5712 9.2395
L45.5389 9.2395
" />
<path d="M46.1436 9.7233
L46.1436 8.8767
" />
<path d="M46.1436 8.4533
L46.0832 8.5138
" />
<path d="M46.0832 8.5138
L46.1436 8.5743
" />
<path d="M46.1436 8.5743
L46.2041 8.5138
" />
<path d="M46.2041 8.5138
L46.1436 8.4533
" />
<path d="M46.1436 8.4533
L46.1436 8.5743
" />
<path d="M46.7484 8.8767
L46.7484 9.7233
" />
<path d="M46.7484 8.9976
L46.8089 8.9371
" />
<path d="M46.8089 8.9371
L46.9299 8.8767
" />
<path d="M46.9299 8.8767
L47.1113 8.8767
" />
<path d="M47.1113 8.8767
L47.2322 8.9371
" />
<path d="M47.2322 8.9371
L47.2927 9.0581
" />
<path d="M47.2927 9.0581
L47.2927 9.7233
" />
<path d="M47.7160 8.8767
L48.1998 8.8767
" />
<path d="M47.8974 9.7233
L47.8974 8.6348
" />
<path d="M47.8974 8.6348
L47.9579 8.5138
" />
<path d="M47.9579 8.5138
L48.0789 8.4533
" />
<path d="M48.0789 8.4533
L48.1998 8.4533
" />
<path d="M48.8046 9.7233
L48.6836 9.6629
" />
<path d="M48.6836 9.6629
L48.6231 9.6024
" />
<path d="M48.6231 9.6024
L48.5627 9.4814
" />
<path d="M48.5627 9.4814
L48.5627 9.1186
" />
<path d="M48.5627 9.1186
L48.6231 8.9976
" />
<path d="M48.6231 8.9976
L48.6836 8.9371
" />
<path d="M48.6836 8.9371
L48.8046 8.8767
" />
<path d="M48.8046 8.8767
L48.9860 8.8767
" />
<path d="M48.9860 8.8767
L49.1069 8.9371
" />
<path d="M49.1069 8.9371
L49.1674 8.9976
" />
<path d="M49.1674 8.9976
L49.2279 9.1186
" />
<path d="M49.2279 9.1186
L49.2279 9.4814
" />
<path d="M49.2279 9.4814
L49.1674 9.6024
" />
<path d="M49.1674 9.6024
L49.1069 9.6629
" />
<path d="M49.1069 9.6629
L48.9860 9.7233
" />
<path d="M48.9860 9.7233
L48.8046 9.7233
" />
<path d="M50.6793 8.3929
L49.5907 10.0257
" />
<path d="M51.6469 9.7233
L51.6469 8.4533
" />
<path d="M51.6469 9.6629
L51.5260 9.7233
" />
<path d="M51.5260 9.7233
L51.2841 9.7233
" />
<path d="M51.2841 9.7233
L51.1631 9.6629
" />
<path d="M51.1631 9.6629
L51.1026 9.6024
" />
<path d="M51.1026 9.6024
L51.0422 9.4814
" />
<path d="M51.0422 9.4814
L51.0422 9.1186
" />
<path d="M51.0422 9.1186
L51.1026 8.9976
" />
<path d="M51.1026 8.9976
L51.1631 8.9371
" />
<path d="M51.1631 8.9371
L51.2841 8.8767
" />
<path d="M51.2841 8.8767
L51.5260 8.8767
" />
<path d="M51.5260 8.8767
L51.6469 8.9371
" />
<path d="M52.7959 9.7233
L52.7959 9.0581
" />
<path d="M52.7959 9.0581
L52.7354 8.9371
" />
<path d="M52.7354 8.9371
L52.6145 8.8767
" />
<path d="M52.6145 8.8767
L52.3726 8.8767
" />
<path d="M52.3726 8.8767
L52.2516 8.9371
" />
<path d="M52.7959 9.6629
L52.6750 9.7233
" />
<path d="M52.6750 9.7233
L52.3726 9.7233
" />
<path d="M52.3726 9.7233
L52.2516 9.6629
" />
<path d="M52.2516 9.6629
L52.1912 9.5419
" />
<path d="M52.1912 9.5419
L52.1912 9.4209
" />
<path d="M52.1912 9.4209
L52.2516 9.3000
" />
<path d="M52.2516 9.3000
L52.3726 9.2395
" />
<path d="M52.3726 9.2395
L52.6750 9.2395
" />
<path d="M52.6750 9.2395
L52.7959 9.1790
" />
<path d="M53.2192 8.8767
L53.7030 8.8767
" />
<path d="M53.4006 8.4533
L53.4006 9.5419
" />
<path d="M53.4006 9.5419
L53.4611 9.6629
" />
<path d="M53.4611 9.6629
L53.5821 9.7233
" />
<path d="M53.5821 9.7233
L53.7030 9.7233
" />
<path d="M54.6706 9.7233
L54.6706 9.0581
" />
<path d="M54.6706 9.0581
L54.6101 8.9371
" />
<path d="M54.6101 8.9371
L54.4892 8.8767
" />
<path d="M54.4892 8.8767
L54.2473 8.8767
" />
<path d="M54.2473 8.8767
L54.1263 8.9371
" />
<path d="M54.6706 9.6629
L54.5497 9.7233
" />
<path d="M54.5497 9.7233
L54.2473 9.7233
" />
<path d="M54.2473 9.7233
L54.1263 9.6629
" />
<path d="M54.1263 9.6629
L54.0659 9.5419
" />
<path d="M54.0659 9.5419
L54.0659 9.4209
" />
<path d="M54.0659 9.4209
L54.1263 9.3000
" />
<path d="M54.1263 9.3000
L54.2473 9.2395
" />
<path d="M54.2473 9.2395
L54.5497 9.2395
" />
<path d="M54.5497 9.2395
L54.6706 9.1790
" />
<path d="M55.2149 9.6629
L55.3358 9.7233
" />
<path d="M55.3358 9.7233
L55.5777 9.7233
" />
<path d="M55.5777 9.7233
L55.6987 9.6629
" />
<path d="M55.6987 9.6629
L55.7591 9.5419
" />
<path d="M55.7591 9.5419
L55.7591 9.4814
" />
<path d="M55.7591 9.4814
L55.6987 9.3605
" />
<path d="M55.6987 9.3605
L55.5777 9.3000
" />
<path d="M55.5777 9.3000
L55.3963 9.3000
" />
<path d="M55.3963 9.3000
L55.2753 9.2395
" />
<path d="M55.2753 9.2395
L55.2149 9.1186
" />
<path d="M55.2149 9.1186
L55.2149 9.0581
" />
<path d="M55.2149 9.0581
L55.2753 8.9371
" />
<path d="M55.2753 8.9371
L55.3963 8.8767
" />
<path d="M55.3963 8.8767
L55.5777 8.8767
" />
<path d="M55.5777 8.8767
L55.6987 8.9371
" />
<path d="M56.3034 9.7233
L56.3034 8.4533
" />
<path d="M56.8477 9.7233
L56.8477 9.0581
" />
<path d="M56.8477 9.0581
L56.7872 8.9371
" />
<path d="M56.7872 8.9371
L56.6663 8.8767
" />
<path d="M56.6663 8.8767
L56.4849 8.8767
" />
<path d="M56.4849 8.8767
L56.3639 8.9371
" />
<path d="M56.3639 8.9371
L56.3034 8.9976
" />
<path d="M57.9362 9.6629
L57.8153 9.7233
" />
<path d="M57.8153 9.7233
L57.5734 9.7233
" />
<path d="M57.5734 9.7233
L57.4524 9.6629
" />
<path d="M57.4524 9.6629
L57.3920 9.5419
" />
<path d="M57.3920 9.5419
L57.3920 9.0581
" />
<path d="M57.3920 9.0581
L57.4524 8.9371
" />
<path d="M57.4524 8.9371
L57.5734 8.8767
" />
<path d="M57.5734 8.8767
L57.8153 8.8767
" />
<path d="M57.8153 8.8767
L57.9362 8.9371
" />
<path d="M57.9362 8.9371
L57.9967 9.0581
" />
<path d="M57.9967 9.0581
L57.9967 9.1790
" />
<path d="M57.9967 9.1790
L57.3920 9.3000
" />
<path d="M59.0248 9.6629
L58.9039 9.7233
" />
<path d="M58.9039 9.7233
L58.6620 9.7233
" />
<path d="M58.6620 9.7233
L58.5410 9.6629
" />
<path d="M58.5410 9.6629
L58.4806 9.5419
" />
<path d="M58.4806 9.5419
L58.4806 9.0581
" />
<path d="M58.4806 9.0581
L58.5410 8.9371
" />
<path d="M58.5410 8.9371
L58.6620 8.8767
" />
<path d="M58.6620 8.8767
L58.9039 8.8767
" />
<path d="M58.9039 8.8767
L59.0248 8.9371
" />
<path d="M59.0248 8.9371
L59.0853 9.0581
" />
<path d="M59.0853 9.0581
L59.0853 9.1790
" />
<path d="M59.0853 9.1790
L58.4806 9.3000
" />
<path d="M59.4482 8.8767
L59.9320 8.8767
" />
<path d="M59.6296 8.4533
L59.6296 9.5419
" />
<path d="M59.6296 9.5419
L59.6901 9.6629
" />
<path d="M59.6901 9.6629
L59.8111 9.7233
" />
<path d="M59.8111 9.7233
L59.9320 9.7233
" />
<path d="M60.2949 9.6629
L60.4158 9.7233
" />
<path d="M60.4158 9.7233
L60.6577 9.7233
" />
<path d="M60.6577 9.7233
L60.7787 9.6629
" />
<path d="M60.7787 9.6629
L60.8391 9.5419
" />
<path d="M60.8391 9.5419
L60.8391 9.4814
" />
<path d="M60.8391 9.4814
L60.7787 9.3605
" />
<path d="M60.7787 9.3605
L60.6577 9.3000
" />
<path d="M60.6577 9.3000
L60.4763 9.3000
" />
<path d="M60.4763 9.3000
L60.3553 9.2395
" />
<path d="M60.3553 9.2395
L60.2949 9.1186
" />
<path d="M60.2949 9.1186
L60.2949 9.0581
" />
<path d="M60.2949 9.0581
L60.3553 8.9371
" />
<path d="M60.3553 8.9371
L60.4763 8.8767
" />
<path d="M60.4763 8.8767
L60.6577 8.8767
" />
<path d="M60.6577 8.8767
L60.7787 8.9371
" />
<path d="M62.2906 8.3929
L61.2020 10.0257
" />
<path d="M63.2582 9.7233
L63.2582 8.4533
" />
<path d="M63.2582 9.6629
L63.1373 9.7233
" />
<path d="M63.1373 9.7233
L62.8954 9.7233
" />
<path d="M62.8954 9.7233
L62.7744 9.6629
" />
<path d="M62.7744 9.6629
L62.7139 9.6024
" />
<path d="M62.7139 9.6024
L62.6535 9.4814
" />
<path d="M62.6535 9.4814
L62.6535 9.1186
" />
<path d="M62.6535 9.1186
L62.7139 8.9976
" />
<path d="M62.7139 8.9976
L62.7744 8.9371
" />
<path d="M62.7744 8.9371
L62.8954 8.8767
" />
<path d="M62.8954 8.8767
L63.1373 8.8767
" />
<path d="M63.1373 8.8767
L63.2582 8.9371
" />
<path d="M64.4072 9.7233
L64.4072 9.0581
" />
<path d="M64.4072 9.0581
L64.3467 8.9371
" />
<path d="M64.3467 8.9371
L64.2258 8.8767
" />
<path d="M64.2258 8.8767
L63.9839 8.8767
" />
<path d="M63.9839 8.8767
L63.8629 8.9371
" />
<path d="M64.4072 9.6629
L64.2863 9.7233
" />
<path d="M64.2863 9.7233
L63.9839 9.7233
" />
<path d="M63.9839 9.7233
L63.8629 9.6629
" />
<path d="M63.8629 9.6629
L63.8025 9.5419
" />
<path d="M63.8025 9.5419
L63.8025 9.4209
" />
<path d="M63.8025 9.4209
L63.8629 9.3000
" />
<path d="M63.8629 9.3000
L63.9839 9.2395
" />
<path d="M63.9839 9.2395
L64.2863 9.2395
" />
<path d="M64.2863 9.2395
L64.4072 9.1790
" />
<path d="M64.8305 8.8767
L65.3143 8.8767
" />
<path d="M65.0119 8.4533
L65.0119 9.5419
" />
<path d="M65.0119 9.5419
L65.0724 9.6629
" />
<path d="M65.0724 9.6629
L65.1934 9.7233
" />
<path d="M65.1934 9.7233
L65.3143 9.7233
" />
<path d="M66.2819 9.7233
L66.2819 9.0581
" />
<path d="M66.2819 9.0581
L66.2214 8.9371
" />
<path d="M66.2214 8.9371
L66.1005 8.8767
" />
<path d="M66.1005 8.8767
L65.8586 8.8767
" />
<path d="M65.8586 8.8767
L65.7376 8.9371
" />
<path d="M66.2819 9.6629
L66.1610 9.7233
" />
<path d="M66.1610 9.7233
L65.8586 9.7233
" />
<path d="M65.8586 9.7233
L65.7376 9.6629
" />
<path d="M65.7376 9.6629
L65.6772 9.5419
" />
<path d="M65.6772 9.5419
L65.6772 9.4209
" />
<path d="M65.6772 9.4209
L65.7376 9.3000
" />
<path d="M65.7376 9.3000
L65.8586 9.2395
" />
<path d="M65.8586 9.2395
L66.1610 9.2395
" />
<path d="M66.1610 9.2395
L66.2819 9.1790
" />
<path d="M67.7938 8.3929
L66.7052 10.0257
" />
<path d="M68.2171 9.7233
L68.2171 8.8767
" />
<path d="M68.2171 8.4533
L68.1567 8.5138
" />
<path d="M68.1567 8.5138
L68.2171 8.5743
" />
<path d="M68.2171 8.5743
L68.2776 8.5138
" />
<path d="M68.2776 8.5138
L68.2171 8.4533
" />
<path d="M68.2171 8.4533
L68.2171 8.5743
" />
<path d="M68.8219 8.8767
L68.8219 10.1467
" />
<path d="M68.8219 8.9371
L68.9429 8.8767
" />
<path d="M68.9429 8.8767
L69.1848 8.8767
" />
<path d="M69.1848 8.8767
L69.3057 8.9371
" />
<path d="M69.3057 8.9371
L69.3662 8.9976
" />
<path d="M69.3662 8.9976
L69.4267 9.1186
" />
<path d="M69.4267 9.1186
L69.4267 9.4814
" />
<path d="M69.4267 9.4814
L69.3662 9.6024
" />
<path d="M69.3662 9.6024
L69.3057 9.6629
" />
<path d="M69.3057 9.6629
L69.1848 9.7233
" />
<path d="M69.1848 9.7233
L68.9429 9.7233
" />
<path d="M68.9429 9.7233
L68.8219 9.6629
" />
<path d="M69.9105 9.6629
L70.0314 9.7233
" />
<path d="M70.0314 9.7233
L70.2733 9.7233
" />
<path d="M70.2733 9.7233
L70.3943 9.6629
" />
<path d="M70.3943 9.6629
L70.4547 9.5419
" />
<path d="M70.4547 9.5419
L70.4547 9.4814
" />
<path d="M70.4547 9.4814
L70.3943 9.3605
" />
<path d="M70.3943 9.3605
L70.2733 9.3000
" />
<path d="M70.2733 9.3000
L70.0919 9.3000
" />
<path d="M70.0919 9.3000
L69.9709 9.2395
" />
<path d="M69.9709 9.2395
L69.9105 9.1186
" />
<path d="M69.9105 9.1186
L69.9105 9.0581
" />
<path d="M69.9105 9.0581
L69.9709 8.9371
" />
<path d="M69.9709 8.9371
L70.0919 8.8767
" />
<path d="M70.0919 8.8767
L70.2733 8.8767
" />
<path d="M70.2733 8.8767
L70.3943 8.9371
" />
<path d="M70.8781 8.4533
L71.7247 8.4533
" />
<path d="M71.7247 8.4533
L71.1805 9.7233
" />
<path d="M72.4504 8.4533
L72.5714 8.4533
" />
<path d="M72.5714 8.4533
L72.6923 8.5138
" />
<path d="M72.6923 8.5138
L72.7528 8.5743
" />
<path d="M72.7528 8.5743
L72.8133 8.6952
" />
<path d="M72.8133 8.6952
L72.8738 8.9371
" />
<path d="M72.8738 8.9371
L72.8738 9.2395
" />
<path d="M72.8738 9.2395
L72.8133 9.4814
" />
<path d="M72.8133 9.4814
L72.7528 9.6024
" />
<path d="M72.7528 9.6024
L72.6923 9.6629
" />
<path d="M72.6923 9.6629
L72.5714 9.7233
" />
<path d="M72.5714 9.7233
L72.4504 9.7233
" />
<path d="M72.4504 9.7233
L72.3295 9.6629
" />
<path d="M72.3295 9.6629
L72.2690 9.6024
" />
<path d="M72.2690 9.6024
L72.2085 9.4814
" />
<path d="M72.2085 9.4814
L72.1481 9.2395
" />
<path d="M72.1481 9.2395
L72.1481 8.9371
" />
<path d="M72.1481 8.9371
L72.2085 8.6952
" />
<path d="M72.2085 8.6952
L72.2690 8.5743
" />
<path d="M72.2690 8.5743
L72.3295 8.5138
" />
<path d="M72.3295 8.5138
L72.4504 8.4533
" />
<path d="M73.4785 9.7233
L73.7204 9.7233
" />
<path d="M73.7204 9.7233
L73.8414 9.6629
" />
<path d="M73.8414 9.6629
L73.9018 9.6024
" />
<path d="M73.9018 9.6024
L74.0228 9.4209
" />
<path d="M74.0228 9.4209
L74.0833 9.1790
" />
<path d="M74.0833 9.1790
L74.0833 8.6952
" />
<path d="M74.0833 8.6952
L74.0228 8.5743
" />
<path d="M74.0228 8.5743
L73.9623 8.5138
" />
<path d="M73.9623 8.5138
L73.8414 8.4533
" />
<path d="M73.8414 8.4533
L73.5995 8.4533
" />
<path d="M73.5995 8.4533
L73.4785 8.5138
" />
<path d="M73.4785 8.5138
L73.4180 8.5743
" />
<path d="M73.4180 8.5743
L73.3576 8.6952
" />
<path d="M73.3576 8.6952
L73.3576 8.9976
" />
<path d="M73.3576 8.9976
L73.4180 9.1186
" />
<path d="M73.4180 9.1186
L73.4785 9.1790
" />
<path d="M73.4785 9.1790
L73.5995 9.2395
" />
<path d="M73.5995 9.2395
L73.8414 9.2395
" />
<path d="M73.8414 9.2395
L73.9623 9.1790
" />
<path d="M73.9623 9.1790
L74.0228 9.1186
" />
<path d="M74.0228 9.1186
L74.0833 8.9976
" />
<path d="M75.2928 9.7233
L74.5671 9.7233
" />
<path d="M74.9299 9.7233
L74.9299 8.4533
" />
<path d="M74.9299 8.4533
L74.8090 8.6348
" />
<path d="M74.8090 8.6348
L74.6880 8.7557
" />
<path d="M74.6880 8.7557
L74.5671 8.8162
" />
<path d="M75.8370 9.6024
L75.8975 9.6629
" />
<path d="M75.8975 9.6629
L75.8370 9.7233
" />
<path d="M75.8370 9.7233
L75.7766 9.6629
" />
<path d="M75.7766 9.6629
L75.8370 9.6024
" />
<path d="M75.8370 9.6024
L75.8370 9.7233
" />
<path d="M76.4418 8.8767
L76.4418 10.1467
" />
<path d="M76.4418 8.9371
L76.5628 8.8767
" />
<path d="M76.5628 8.8767
L76.8047 8.8767
" />
<path d="M76.8047 8.8767
L76.9256 8.9371
" />
<path d="M76.9256 8.9371
L76.9861 8.9976
" />
<path d="M76.9861 8.9976
L77.0466 9.1186
" />
<path d="M77.0466 9.1186
L77.0466 9.4814
" />
<path d="M77.0466 9.4814
L76.9861 9.6024
" />
<path d="M76.9861 9.6024
L76.9256 9.6629
" />
<path d="M76.9256 9.6629
L76.8047 9.7233
" />
<path d="M76.8047 9.7233
L76.5628 9.7233
" />
<path d="M76.5628 9.7233
L76.4418 9.6629
" />
<path d="M78.1351 9.7233
L78.1351 8.4533
" />
<path d="M78.1351 9.6629
L78.0142 9.7233
" />
<path d="M78.0142 9.7233
L77.7723 9.7233
" />
<path d="M77.7723 9.7233
L77.6513 9.6629
" />
<path d="M77.6513 9.6629
L77.5908 9.6024
" />
<path d="M77.5908 9.6024
L77.5304 9.4814
" />
<path d="M77.5304 9.4814
L77.5304 9.1186
" />
<path d="M77.5304 9.1186
L77.5908 8.9976
" />
<path d="M77.5908 8.9976
L77.6513 8.9371
" />
<path d="M77.6513 8.9371
L77.7723 8.8767
" />
<path d="M77.7723 8.8767
L78.0142 8.8767
" />
<path d="M78.0142 8.8767
L78.1351 8.9371
" />
<path d="M78.5584 8.8767
L79.0422 8.8767
" />
<path d="M78.7398 9.7233
L78.7398 8.6348
" />
<path d="M78.7398 8.6348
L78.8003 8.5138
" />
<path d="M78.8003 8.5138
L78.9213 8.4533
" />
<path d="M78.9213 8.4533
L79.0422 8.4533
" />
</g></g> 
</svg>
