<?xml version="1.0" standalone="no"?>
 <!DOCTYPE svg PUBLIC "-//W3C//DTD SVG 1.1//EN" 
 "http://www.w3.org/Graphics/SVG/1.1/DTD/svg11.dtd"> 
<svg
  xmlns:svg="http://www.w3.org/2000/svg"
  xmlns="http://www.w3.org/2000/svg"
  xmlns:xlink="http://www.w3.org/1999/xlink"
  version="1.1"
  width="77.4192mm" height="98.6790mm" viewBox="0.0000 0.0000 77.4192 98.6790">
<title>SVG Image created as working.svg date 2023/08/18 09:40:56 </title>
  <desc>Image generated by Eeschema-SVG </desc>
<g style="fill:#000000; fill-opacity:1.0000;stroke:#000000; stroke-opacity:1.0000;
stroke-linecap:round; stroke-linejoin:round;"
 transform="translate(0 0) scale(1 1)">
</g>
<g style="fill:#840000; fill-opacity:0.0; 
stroke:#840000; stroke-width:0.0000; stroke-opacity:1; 
stroke-linecap:round; stroke-linejoin:round;">
</g>
<g style="fill:#840084; fill-opacity:0.0; 
stroke:#840084; stroke-width:0.0000; stroke-opacity:1; 
stroke-linecap:round; stroke-linejoin:round;">
</g>
<g style="fill:#840000; fill-opacity:0.0; 
stroke:#840000; stroke-width:0.0000; stroke-opacity:1; 
stroke-linecap:round; stroke-linejoin:round;">
</g>
<g style="fill:#840084; fill-opacity:0.0; 
stroke:#840084; stroke-width:0.0000; stroke-opacity:1; 
stroke-linecap:round; stroke-linejoin:round;">
</g>
<g style="fill:#006464; fill-opacity:0.0; 
stroke:#006464; stroke-width:0.0000; stroke-opacity:1; 
stroke-linecap:round; stroke-linejoin:round;">
</g>
<g style="fill:#006464; fill-opacity:0.0; 
stroke:#006464; stroke-width:0.1588; stroke-opacity:1; 
stroke-linecap:round; stroke-linejoin:round;">
<text x="27.3256" y="9.8798"
textLength="2.6415" font-size="1.6933" lengthAdjust="spacingAndGlyphs"
text-anchor="middle" opacity="0">U?</text>
<g class="stroked-text"><desc>U?</desc>
<path d="M26.4184 8.5540
L26.4184 9.5821
" />
<path d="M26.4184 9.5821
L26.4789 9.7031
" />
<path d="M26.4789 9.7031
L26.5394 9.7636
" />
<path d="M26.5394 9.7636
L26.6603 9.8240
" />
<path d="M26.6603 9.8240
L26.9022 9.8240
" />
<path d="M26.9022 9.8240
L27.0232 9.7636
" />
<path d="M27.0232 9.7636
L27.0837 9.7031
" />
<path d="M27.0837 9.7031
L27.1441 9.5821
" />
<path d="M27.1441 9.5821
L27.1441 8.5540
" />
<path d="M27.9304 9.7031
L27.9908 9.7636
" />
<path d="M27.9908 9.7636
L27.9304 9.8240
" />
<path d="M27.9304 9.8240
L27.8699 9.7636
" />
<path d="M27.8699 9.7636
L27.9304 9.7031
" />
<path d="M27.9304 9.7031
L27.9304 9.8240
" />
<path d="M27.6885 8.6145
L27.8094 8.5540
" />
<path d="M27.8094 8.5540
L28.1118 8.5540
" />
<path d="M28.1118 8.5540
L28.2327 8.6145
" />
<path d="M28.2327 8.6145
L28.2932 8.7355
" />
<path d="M28.2932 8.7355
L28.2932 8.8564
" />
<path d="M28.2932 8.8564
L28.2327 8.9774
" />
<path d="M28.2327 8.9774
L28.1723 9.0378
" />
<path d="M28.1723 9.0378
L28.0513 9.0983
" />
<path d="M28.0513 9.0983
L27.9908 9.1588
" />
<path d="M27.9908 9.1588
L27.9304 9.2797
" />
<path d="M27.9304 9.2797
L27.9304 9.3402
" />
</g><text x="46.7384" y="90.0694"
textLength="10.9871" font-size="1.6933" lengthAdjust="spacingAndGlyphs"
text-anchor="middle" opacity="0">ATtiny88-P</text>
<g class="stroked-text"><desc>ATtiny88-P</desc>
<path d="M41.5980 89.6508
L42.2027 89.6508
" />
<path d="M41.4770 90.0136
L41.9003 88.7436
" />
<path d="M41.9003 88.7436
L42.3237 90.0136
" />
<path d="M42.5656 88.7436
L43.2913 88.7436
" />
<path d="M42.9285 90.0136
L42.9285 88.7436
" />
<path d="M43.5332 89.1670
L44.0170 89.1670
" />
<path d="M43.7146 88.7436
L43.7146 89.8322
" />
<path d="M43.7146 89.8322
L43.7751 89.9532
" />
<path d="M43.7751 89.9532
L43.8961 90.0136
" />
<path d="M43.8961 90.0136
L44.0170 90.0136
" />
<path d="M44.4403 90.0136
L44.4403 89.1670
" />
<path d="M44.4403 88.7436
L44.3799 88.8041
" />
<path d="M44.3799 88.8041
L44.4403 88.8646
" />
<path d="M44.4403 88.8646
L44.5008 88.8041
" />
<path d="M44.5008 88.8041
L44.4403 88.7436
" />
<path d="M44.4403 88.7436
L44.4403 88.8646
" />
<path d="M45.0451 89.1670
L45.0451 90.0136
" />
<path d="M45.0451 89.2879
L45.1056 89.2274
" />
<path d="M45.1056 89.2274
L45.2266 89.1670
" />
<path d="M45.2266 89.1670
L45.4080 89.1670
" />
<path d="M45.4080 89.1670
L45.5289 89.2274
" />
<path d="M45.5289 89.2274
L45.5894 89.3484
" />
<path d="M45.5894 89.3484
L45.5894 90.0136
" />
<path d="M46.0732 89.1670
L46.3756 90.0136
" />
<path d="M46.6779 89.1670
L46.3756 90.0136
" />
<path d="M46.3756 90.0136
L46.2546 90.3160
" />
<path d="M46.2546 90.3160
L46.1941 90.3765
" />
<path d="M46.1941 90.3765
L46.0732 90.4370
" />
<path d="M47.3432 89.2879
L47.2222 89.2274
" />
<path d="M47.2222 89.2274
L47.1617 89.1670
" />
<path d="M47.1617 89.1670
L47.1013 89.0460
" />
<path d="M47.1013 89.0460
L47.1013 88.9855
" />
<path d="M47.1013 88.9855
L47.1617 88.8646
" />
<path d="M47.1617 88.8646
L47.2222 88.8041
" />
<path d="M47.2222 88.8041
L47.3432 88.7436
" />
<path d="M47.3432 88.7436
L47.5851 88.7436
" />
<path d="M47.5851 88.7436
L47.7060 88.8041
" />
<path d="M47.7060 88.8041
L47.7665 88.8646
" />
<path d="M47.7665 88.8646
L47.8270 88.9855
" />
<path d="M47.8270 88.9855
L47.8270 89.0460
" />
<path d="M47.8270 89.0460
L47.7665 89.1670
" />
<path d="M47.7665 89.1670
L47.7060 89.2274
" />
<path d="M47.7060 89.2274
L47.5851 89.2879
" />
<path d="M47.5851 89.2879
L47.3432 89.2879
" />
<path d="M47.3432 89.2879
L47.2222 89.3484
" />
<path d="M47.2222 89.3484
L47.1617 89.4089
" />
<path d="M47.1617 89.4089
L47.1013 89.5298
" />
<path d="M47.1013 89.5298
L47.1013 89.7717
" />
<path d="M47.1013 89.7717
L47.1617 89.8927
" />
<path d="M47.1617 89.8927
L47.2222 89.9532
" />
<path d="M47.2222 89.9532
L47.3432 90.0136
" />
<path d="M47.3432 90.0136
L47.5851 90.0136
" />
<path d="M47.5851 90.0136
L47.7060 89.9532
" />
<path d="M47.7060 89.9532
L47.7665 89.8927
" />
<path d="M47.7665 89.8927
L47.8270 89.7717
" />
<path d="M47.8270 89.7717
L47.8270 89.5298
" />
<path d="M47.8270 89.5298
L47.7665 89.4089
" />
<path d="M47.7665 89.4089
L47.7060 89.3484
" />
<path d="M47.7060 89.3484
L47.5851 89.2879
" />
<path d="M48.5527 89.2879
L48.4317 89.2274
" />
<path d="M48.4317 89.2274
L48.3712 89.1670
" />
<path d="M48.3712 89.1670
L48.3108 89.0460
" />
<path d="M48.3108 89.0460
L48.3108 88.9855
" />
<path d="M48.3108 88.9855
L48.3712 88.8646
" />
<path d="M48.3712 88.8646
L48.4317 88.8041
" />
<path d="M48.4317 88.8041
L48.5527 88.7436
" />
<path d="M48.5527 88.7436
L48.7946 88.7436
" />
<path d="M48.7946 88.7436
L48.9155 88.8041
" />
<path d="M48.9155 88.8041
L48.9760 88.8646
" />
<path d="M48.9760 88.8646
L49.0365 88.9855
" />
<path d="M49.0365 88.9855
L49.0365 89.0460
" />
<path d="M49.0365 89.0460
L48.9760 89.1670
" />
<path d="M48.9760 89.1670
L48.9155 89.2274
" />
<path d="M48.9155 89.2274
L48.7946 89.2879
" />
<path d="M48.7946 89.2879
L48.5527 89.2879
" />
<path d="M48.5527 89.2879
L48.4317 89.3484
" />
<path d="M48.4317 89.3484
L48.3712 89.4089
" />
<path d="M48.3712 89.4089
L48.3108 89.5298
" />
<path d="M48.3108 89.5298
L48.3108 89.7717
" />
<path d="M48.3108 89.7717
L48.3712 89.8927
" />
<path d="M48.3712 89.8927
L48.4317 89.9532
" />
<path d="M48.4317 89.9532
L48.5527 90.0136
" />
<path d="M48.5527 90.0136
L48.7946 90.0136
" />
<path d="M48.7946 90.0136
L48.9155 89.9532
" />
<path d="M48.9155 89.9532
L48.9760 89.8927
" />
<path d="M48.9760 89.8927
L49.0365 89.7717
" />
<path d="M49.0365 89.7717
L49.0365 89.5298
" />
<path d="M49.0365 89.5298
L48.9760 89.4089
" />
<path d="M48.9760 89.4089
L48.9155 89.3484
" />
<path d="M48.9155 89.3484
L48.7946 89.2879
" />
<path d="M49.5807 89.5298
L50.5484 89.5298
" />
<path d="M51.1531 90.0136
L51.1531 88.7436
" />
<path d="M51.1531 88.7436
L51.6369 88.7436
" />
<path d="M51.6369 88.7436
L51.7579 88.8041
" />
<path d="M51.7579 88.8041
L51.8184 88.8646
" />
<path d="M51.8184 88.8646
L51.8788 88.9855
" />
<path d="M51.8788 88.9855
L51.8788 89.1670
" />
<path d="M51.8788 89.1670
L51.8184 89.2879
" />
<path d="M51.8184 89.2879
L51.7579 89.3484
" />
<path d="M51.7579 89.3484
L51.6369 89.4089
" />
<path d="M51.6369 89.4089
L51.1531 89.4089
" />
</g></g>
<g style="fill:#840084; fill-opacity:0.0; 
stroke:#840084; stroke-width:0.1588; stroke-opacity:1; 
stroke-linecap:round; stroke-linejoin:round;">
<text x="38.7843" y="49.9746"
textLength="30.0370" font-size="1.6933" lengthAdjust="spacingAndGlyphs"
text-anchor="middle" opacity="0">Package_DIP:DIP-28_W7.62mm</text>
<g class="stroked-text"><desc>Package_DIP:DIP-28_W7.62mm</desc>
<path d="M24.1718 49.9188
L24.3305 48.6488
" />
<path d="M24.3305 48.6488
L24.8143 48.6488
" />
<path d="M24.8143 48.6488
L24.9277 48.7093
" />
<path d="M24.9277 48.7093
L24.9806 48.7698
" />
<path d="M24.9806 48.7698
L25.0260 48.8907
" />
<path d="M25.0260 48.8907
L25.0033 49.0722
" />
<path d="M25.0033 49.0722
L24.9277 49.1931
" />
<path d="M24.9277 49.1931
L24.8597 49.2536
" />
<path d="M24.8597 49.2536
L24.7312 49.3141
" />
<path d="M24.7312 49.3141
L24.2474 49.3141
" />
<path d="M25.9861 49.9188
L26.0692 49.2536
" />
<path d="M26.0692 49.2536
L26.0239 49.1326
" />
<path d="M26.0239 49.1326
L25.9105 49.0722
" />
<path d="M25.9105 49.0722
L25.6686 49.0722
" />
<path d="M25.6686 49.0722
L25.5400 49.1326
" />
<path d="M25.9936 49.8584
L25.8651 49.9188
" />
<path d="M25.8651 49.9188
L25.5627 49.9188
" />
<path d="M25.5627 49.9188
L25.4493 49.8584
" />
<path d="M25.4493 49.8584
L25.4040 49.7374
" />
<path d="M25.4040 49.7374
L25.4191 49.6164
" />
<path d="M25.4191 49.6164
L25.4947 49.4955
" />
<path d="M25.4947 49.4955
L25.6232 49.4350
" />
<path d="M25.6232 49.4350
L25.9256 49.4350
" />
<path d="M25.9256 49.4350
L26.0541 49.3745
" />
<path d="M27.1426 49.8584
L27.0141 49.9188
" />
<path d="M27.0141 49.9188
L26.7722 49.9188
" />
<path d="M26.7722 49.9188
L26.6588 49.8584
" />
<path d="M26.6588 49.8584
L26.6059 49.7979
" />
<path d="M26.6059 49.7979
L26.5605 49.6769
" />
<path d="M26.5605 49.6769
L26.6059 49.3141
" />
<path d="M26.6059 49.3141
L26.6815 49.1931
" />
<path d="M26.6815 49.1931
L26.7495 49.1326
" />
<path d="M26.7495 49.1326
L26.8780 49.0722
" />
<path d="M26.8780 49.0722
L27.1199 49.0722
" />
<path d="M27.1199 49.0722
L27.2333 49.1326
" />
<path d="M27.6794 49.9188
L27.8381 48.6488
" />
<path d="M27.8608 49.4350
L28.1632 49.9188
" />
<path d="M28.2690 49.0722
L27.7247 49.5560
" />
<path d="M29.2518 49.9188
L29.3349 49.2536
" />
<path d="M29.3349 49.2536
L29.2896 49.1326
" />
<path d="M29.2896 49.1326
L29.1762 49.0722
" />
<path d="M29.1762 49.0722
L28.9343 49.0722
" />
<path d="M28.9343 49.0722
L28.8057 49.1326
" />
<path d="M29.2593 49.8584
L29.1308 49.9188
" />
<path d="M29.1308 49.9188
L28.8284 49.9188
" />
<path d="M28.8284 49.9188
L28.7150 49.8584
" />
<path d="M28.7150 49.8584
L28.6697 49.7374
" />
<path d="M28.6697 49.7374
L28.6848 49.6164
" />
<path d="M28.6848 49.6164
L28.7604 49.4955
" />
<path d="M28.7604 49.4955
L28.8889 49.4350
" />
<path d="M28.8889 49.4350
L29.1913 49.4350
" />
<path d="M29.1913 49.4350
L29.3198 49.3745
" />
<path d="M30.5066 49.0722
L30.3781 50.1003
" />
<path d="M30.3781 50.1003
L30.3025 50.2212
" />
<path d="M30.3025 50.2212
L30.2344 50.2817
" />
<path d="M30.2344 50.2817
L30.1059 50.3422
" />
<path d="M30.1059 50.3422
L29.9245 50.3422
" />
<path d="M29.9245 50.3422
L29.8111 50.2817
" />
<path d="M30.4083 49.8584
L30.2798 49.9188
" />
<path d="M30.2798 49.9188
L30.0379 49.9188
" />
<path d="M30.0379 49.9188
L29.9245 49.8584
" />
<path d="M29.9245 49.8584
L29.8716 49.7979
" />
<path d="M29.8716 49.7979
L29.8262 49.6769
" />
<path d="M29.8262 49.6769
L29.8716 49.3141
" />
<path d="M29.8716 49.3141
L29.9472 49.1931
" />
<path d="M29.9472 49.1931
L30.0152 49.1326
" />
<path d="M30.0152 49.1326
L30.1437 49.0722
" />
<path d="M30.1437 49.0722
L30.3856 49.0722
" />
<path d="M30.3856 49.0722
L30.4990 49.1326
" />
<path d="M31.4968 49.8584
L31.3683 49.9188
" />
<path d="M31.3683 49.9188
L31.1264 49.9188
" />
<path d="M31.1264 49.9188
L31.0130 49.8584
" />
<path d="M31.0130 49.8584
L30.9677 49.7374
" />
<path d="M30.9677 49.7374
L31.0282 49.2536
" />
<path d="M31.0282 49.2536
L31.1037 49.1326
" />
<path d="M31.1037 49.1326
L31.2323 49.0722
" />
<path d="M31.2323 49.0722
L31.4742 49.0722
" />
<path d="M31.4742 49.0722
L31.5876 49.1326
" />
<path d="M31.5876 49.1326
L31.6329 49.2536
" />
<path d="M31.6329 49.2536
L31.6178 49.3745
" />
<path d="M31.6178 49.3745
L30.9979 49.4955
" />
<path d="M31.7766 50.0398
L32.7442 50.0398
" />
<path d="M33.0617 49.9188
L33.2204 48.6488
" />
<path d="M33.2204 48.6488
L33.5228 48.6488
" />
<path d="M33.5228 48.6488
L33.6967 48.7093
" />
<path d="M33.6967 48.7093
L33.8025 48.8303
" />
<path d="M33.8025 48.8303
L33.8479 48.9512
" />
<path d="M33.8479 48.9512
L33.8781 49.1931
" />
<path d="M33.8781 49.1931
L33.8554 49.3745
" />
<path d="M33.8554 49.3745
L33.7647 49.6164
" />
<path d="M33.7647 49.6164
L33.6891 49.7374
" />
<path d="M33.6891 49.7374
L33.5530 49.8584
" />
<path d="M33.5530 49.8584
L33.3641 49.9188
" />
<path d="M33.3641 49.9188
L33.0617 49.9188
" />
<path d="M34.3317 49.9188
L34.4904 48.6488
" />
<path d="M34.9365 49.9188
L35.0952 48.6488
" />
<path d="M35.0952 48.6488
L35.5790 48.6488
" />
<path d="M35.5790 48.6488
L35.6924 48.7093
" />
<path d="M35.6924 48.7093
L35.7453 48.7698
" />
<path d="M35.7453 48.7698
L35.7907 48.8907
" />
<path d="M35.7907 48.8907
L35.7680 49.0722
" />
<path d="M35.7680 49.0722
L35.6924 49.1931
" />
<path d="M35.6924 49.1931
L35.6244 49.2536
" />
<path d="M35.6244 49.2536
L35.4959 49.3141
" />
<path d="M35.4959 49.3141
L35.0121 49.3141
" />
<path d="M36.2216 49.7979
L36.2745 49.8584
" />
<path d="M36.2745 49.8584
L36.2065 49.9188
" />
<path d="M36.2065 49.9188
L36.1536 49.8584
" />
<path d="M36.1536 49.8584
L36.2216 49.7979
" />
<path d="M36.2216 49.7979
L36.2065 49.9188
" />
<path d="M36.3047 49.1326
L36.3577 49.1931
" />
<path d="M36.3577 49.1931
L36.2896 49.2536
" />
<path d="M36.2896 49.2536
L36.2367 49.1931
" />
<path d="M36.2367 49.1931
L36.3047 49.1326
" />
<path d="M36.3047 49.1326
L36.2896 49.2536
" />
<path d="M36.8113 49.9188
L36.9700 48.6488
" />
<path d="M36.9700 48.6488
L37.2724 48.6488
" />
<path d="M37.2724 48.6488
L37.4463 48.7093
" />
<path d="M37.4463 48.7093
L37.5521 48.8303
" />
<path d="M37.5521 48.8303
L37.5975 48.9512
" />
<path d="M37.5975 48.9512
L37.6277 49.1931
" />
<path d="M37.6277 49.1931
L37.6050 49.3745
" />
<path d="M37.6050 49.3745
L37.5143 49.6164
" />
<path d="M37.5143 49.6164
L37.4387 49.7374
" />
<path d="M37.4387 49.7374
L37.3026 49.8584
" />
<path d="M37.3026 49.8584
L37.1137 49.9188
" />
<path d="M37.1137 49.9188
L36.8113 49.9188
" />
<path d="M38.0813 49.9188
L38.2400 48.6488
" />
<path d="M38.6861 49.9188
L38.8448 48.6488
" />
<path d="M38.8448 48.6488
L39.3286 48.6488
" />
<path d="M39.3286 48.6488
L39.4420 48.7093
" />
<path d="M39.4420 48.7093
L39.4949 48.7698
" />
<path d="M39.4949 48.7698
L39.5403 48.8907
" />
<path d="M39.5403 48.8907
L39.5176 49.0722
" />
<path d="M39.5176 49.0722
L39.4420 49.1931
" />
<path d="M39.4420 49.1931
L39.3740 49.2536
" />
<path d="M39.3740 49.2536
L39.2455 49.3141
" />
<path d="M39.2455 49.3141
L38.7617 49.3141
" />
<path d="M40.0165 49.4350
L40.9842 49.4350
" />
<path d="M41.6116 48.7698
L41.6797 48.7093
" />
<path d="M41.6797 48.7093
L41.8082 48.6488
" />
<path d="M41.8082 48.6488
L42.1106 48.6488
" />
<path d="M42.1106 48.6488
L42.2239 48.7093
" />
<path d="M42.2239 48.7093
L42.2769 48.7698
" />
<path d="M42.2769 48.7698
L42.3222 48.8907
" />
<path d="M42.3222 48.8907
L42.3071 49.0117
" />
<path d="M42.3071 49.0117
L42.2239 49.1931
" />
<path d="M42.2239 49.1931
L41.4075 49.9188
" />
<path d="M41.4075 49.9188
L42.1937 49.9188
" />
<path d="M43.0101 49.1931
L42.8967 49.1326
" />
<path d="M42.8967 49.1326
L42.8438 49.0722
" />
<path d="M42.8438 49.0722
L42.7984 48.9512
" />
<path d="M42.7984 48.9512
L42.8060 48.8907
" />
<path d="M42.8060 48.8907
L42.8816 48.7698
" />
<path d="M42.8816 48.7698
L42.9496 48.7093
" />
<path d="M42.9496 48.7093
L43.0782 48.6488
" />
<path d="M43.0782 48.6488
L43.3201 48.6488
" />
<path d="M43.3201 48.6488
L43.4334 48.7093
" />
<path d="M43.4334 48.7093
L43.4864 48.7698
" />
<path d="M43.4864 48.7698
L43.5317 48.8907
" />
<path d="M43.5317 48.8907
L43.5242 48.9512
" />
<path d="M43.5242 48.9512
L43.4486 49.0722
" />
<path d="M43.4486 49.0722
L43.3805 49.1326
" />
<path d="M43.3805 49.1326
L43.2520 49.1931
" />
<path d="M43.2520 49.1931
L43.0101 49.1931
" />
<path d="M43.0101 49.1931
L42.8816 49.2536
" />
<path d="M42.8816 49.2536
L42.8136 49.3141
" />
<path d="M42.8136 49.3141
L42.7380 49.4350
" />
<path d="M42.7380 49.4350
L42.7077 49.6769
" />
<path d="M42.7077 49.6769
L42.7531 49.7979
" />
<path d="M42.7531 49.7979
L42.8060 49.8584
" />
<path d="M42.8060 49.8584
L42.9194 49.9188
" />
<path d="M42.9194 49.9188
L43.1613 49.9188
" />
<path d="M43.1613 49.9188
L43.2898 49.8584
" />
<path d="M43.2898 49.8584
L43.3579 49.7979
" />
<path d="M43.3579 49.7979
L43.4334 49.6769
" />
<path d="M43.4334 49.6769
L43.4637 49.4350
" />
<path d="M43.4637 49.4350
L43.4183 49.3141
" />
<path d="M43.4183 49.3141
L43.3654 49.2536
" />
<path d="M43.3654 49.2536
L43.2520 49.1931
" />
<path d="M43.6300 50.0398
L44.5976 50.0398
" />
<path d="M44.9529 48.6488
L45.0965 49.9188
" />
<path d="M45.0965 49.9188
L45.4518 49.0117
" />
<path d="M45.4518 49.0117
L45.5803 49.9188
" />
<path d="M45.5803 49.9188
L46.0414 48.6488
" />
<path d="M46.4043 48.6488
L47.2509 48.6488
" />
<path d="M47.2509 48.6488
L46.5479 49.9188
" />
<path d="M47.5911 49.7979
L47.6440 49.8584
" />
<path d="M47.6440 49.8584
L47.5760 49.9188
" />
<path d="M47.5760 49.9188
L47.5231 49.8584
" />
<path d="M47.5231 49.8584
L47.5911 49.7979
" />
<path d="M47.5911 49.7979
L47.5760 49.9188
" />
<path d="M48.8838 48.6488
L48.6419 48.6488
" />
<path d="M48.6419 48.6488
L48.5134 48.7093
" />
<path d="M48.5134 48.7093
L48.4454 48.7698
" />
<path d="M48.4454 48.7698
L48.3017 48.9512
" />
<path d="M48.3017 48.9512
L48.2110 49.1931
" />
<path d="M48.2110 49.1931
L48.1505 49.6769
" />
<path d="M48.1505 49.6769
L48.1959 49.7979
" />
<path d="M48.1959 49.7979
L48.2488 49.8584
" />
<path d="M48.2488 49.8584
L48.3622 49.9188
" />
<path d="M48.3622 49.9188
L48.6041 49.9188
" />
<path d="M48.6041 49.9188
L48.7326 49.8584
" />
<path d="M48.7326 49.8584
L48.8007 49.7979
" />
<path d="M48.8007 49.7979
L48.8762 49.6769
" />
<path d="M48.8762 49.6769
L48.9140 49.3745
" />
<path d="M48.9140 49.3745
L48.8687 49.2536
" />
<path d="M48.8687 49.2536
L48.8158 49.1931
" />
<path d="M48.8158 49.1931
L48.7024 49.1326
" />
<path d="M48.7024 49.1326
L48.4605 49.1326
" />
<path d="M48.4605 49.1326
L48.3320 49.1931
" />
<path d="M48.3320 49.1931
L48.2639 49.2536
" />
<path d="M48.2639 49.2536
L48.1883 49.3745
" />
<path d="M49.4734 48.7698
L49.5415 48.7093
" />
<path d="M49.5415 48.7093
L49.6700 48.6488
" />
<path d="M49.6700 48.6488
L49.9724 48.6488
" />
<path d="M49.9724 48.6488
L50.0857 48.7093
" />
<path d="M50.0857 48.7093
L50.1387 48.7698
" />
<path d="M50.1387 48.7698
L50.1840 48.8907
" />
<path d="M50.1840 48.8907
L50.1689 49.0117
" />
<path d="M50.1689 49.0117
L50.0857 49.1931
" />
<path d="M50.0857 49.1931
L49.2693 49.9188
" />
<path d="M49.2693 49.9188
L50.0555 49.9188
" />
<path d="M50.5998 49.9188
L50.7056 49.0722
" />
<path d="M50.6905 49.1931
L50.7585 49.1326
" />
<path d="M50.7585 49.1326
L50.8870 49.0722
" />
<path d="M50.8870 49.0722
L51.0685 49.0722
" />
<path d="M51.0685 49.0722
L51.1819 49.1326
" />
<path d="M51.1819 49.1326
L51.2272 49.2536
" />
<path d="M51.2272 49.2536
L51.1441 49.9188
" />
<path d="M51.2272 49.2536
L51.3028 49.1326
" />
<path d="M51.3028 49.1326
L51.4313 49.0722
" />
<path d="M51.4313 49.0722
L51.6127 49.0722
" />
<path d="M51.6127 49.0722
L51.7261 49.1326
" />
<path d="M51.7261 49.1326
L51.7715 49.2536
" />
<path d="M51.7715 49.2536
L51.6883 49.9188
" />
<path d="M52.2931 49.9188
L52.3989 49.0722
" />
<path d="M52.3838 49.1931
L52.4518 49.1326
" />
<path d="M52.4518 49.1326
L52.5803 49.0722
" />
<path d="M52.5803 49.0722
L52.7618 49.0722
" />
<path d="M52.7618 49.0722
L52.8752 49.1326
" />
<path d="M52.8752 49.1326
L52.9205 49.2536
" />
<path d="M52.9205 49.2536
L52.8374 49.9188
" />
<path d="M52.9205 49.2536
L52.9961 49.1326
" />
<path d="M52.9961 49.1326
L53.1246 49.0722
" />
<path d="M53.1246 49.0722
L53.3060 49.0722
" />
<path d="M53.3060 49.0722
L53.4194 49.1326
" />
<path d="M53.4194 49.1326
L53.4648 49.2536
" />
<path d="M53.4648 49.2536
L53.3816 49.9188
" />
</g><text x="38.7049" y="49.9746"
textLength="64.5082" font-size="1.6933" lengthAdjust="spacingAndGlyphs"
text-anchor="middle" opacity="0">http://ww1.microchip.com/downloads/en/DeviceDoc/doc8008.pdf</text>
<g class="stroked-text"><desc>http://ww1.microchip.com/downloads/en/DeviceDoc/doc8008.pdf</desc>
<path d="M6.8643 49.9188
L6.8643 48.6488
" />
<path d="M7.4086 49.9188
L7.4086 49.2536
" />
<path d="M7.4086 49.2536
L7.3481 49.1326
" />
<path d="M7.3481 49.1326
L7.2272 49.0722
" />
<path d="M7.2272 49.0722
L7.0458 49.0722
" />
<path d="M7.0458 49.0722
L6.9248 49.1326
" />
<path d="M6.9248 49.1326
L6.8643 49.1931
" />
<path d="M7.8319 49.0722
L8.3157 49.0722
" />
<path d="M8.0133 48.6488
L8.0133 49.7374
" />
<path d="M8.0133 49.7374
L8.0738 49.8584
" />
<path d="M8.0738 49.8584
L8.1948 49.9188
" />
<path d="M8.1948 49.9188
L8.3157 49.9188
" />
<path d="M8.5576 49.0722
L9.0414 49.0722
" />
<path d="M8.7390 48.6488
L8.7390 49.7374
" />
<path d="M8.7390 49.7374
L8.7995 49.8584
" />
<path d="M8.7995 49.8584
L8.9205 49.9188
" />
<path d="M8.9205 49.9188
L9.0414 49.9188
" />
<path d="M9.4647 49.0722
L9.4647 50.3422
" />
<path d="M9.4647 49.1326
L9.5857 49.0722
" />
<path d="M9.5857 49.0722
L9.8276 49.0722
" />
<path d="M9.8276 49.0722
L9.9485 49.1326
" />
<path d="M9.9485 49.1326
L10.0090 49.1931
" />
<path d="M10.0090 49.1931
L10.0695 49.3141
" />
<path d="M10.0695 49.3141
L10.0695 49.6769
" />
<path d="M10.0695 49.6769
L10.0090 49.7979
" />
<path d="M10.0090 49.7979
L9.9485 49.8584
" />
<path d="M9.9485 49.8584
L9.8276 49.9188
" />
<path d="M9.8276 49.9188
L9.5857 49.9188
" />
<path d="M9.5857 49.9188
L9.4647 49.8584
" />
<path d="M10.6137 49.7979
L10.6742 49.8584
" />
<path d="M10.6742 49.8584
L10.6137 49.9188
" />
<path d="M10.6137 49.9188
L10.5533 49.8584
" />
<path d="M10.5533 49.8584
L10.6137 49.7979
" />
<path d="M10.6137 49.7979
L10.6137 49.9188
" />
<path d="M10.6137 49.1326
L10.6742 49.1931
" />
<path d="M10.6742 49.1931
L10.6137 49.2536
" />
<path d="M10.6137 49.2536
L10.5533 49.1931
" />
<path d="M10.5533 49.1931
L10.6137 49.1326
" />
<path d="M10.6137 49.1326
L10.6137 49.2536
" />
<path d="M12.1257 48.5884
L11.0371 50.2212
" />
<path d="M13.4562 48.5884
L12.3676 50.2212
" />
<path d="M13.7586 49.0722
L14.0005 49.9188
" />
<path d="M14.0005 49.9188
L14.2424 49.3141
" />
<path d="M14.2424 49.3141
L14.4843 49.9188
" />
<path d="M14.4843 49.9188
L14.7262 49.0722
" />
<path d="M15.0891 49.0722
L15.3310 49.9188
" />
<path d="M15.3310 49.9188
L15.5729 49.3141
" />
<path d="M15.5729 49.3141
L15.8148 49.9188
" />
<path d="M15.8148 49.9188
L16.0567 49.0722
" />
<path d="M17.2058 49.9188
L16.4801 49.9188
" />
<path d="M16.8429 49.9188
L16.8429 48.6488
" />
<path d="M16.8429 48.6488
L16.7220 48.8303
" />
<path d="M16.7220 48.8303
L16.6010 48.9512
" />
<path d="M16.6010 48.9512
L16.4801 49.0117
" />
<path d="M17.7500 49.7979
L17.8105 49.8584
" />
<path d="M17.8105 49.8584
L17.7500 49.9188
" />
<path d="M17.7500 49.9188
L17.6896 49.8584
" />
<path d="M17.6896 49.8584
L17.7500 49.7979
" />
<path d="M17.7500 49.7979
L17.7500 49.9188
" />
<path d="M18.3548 49.9188
L18.3548 49.0722
" />
<path d="M18.3548 49.1931
L18.4153 49.1326
" />
<path d="M18.4153 49.1326
L18.5363 49.0722
" />
<path d="M18.5363 49.0722
L18.7177 49.0722
" />
<path d="M18.7177 49.0722
L18.8386 49.1326
" />
<path d="M18.8386 49.1326
L18.8991 49.2536
" />
<path d="M18.8991 49.2536
L18.8991 49.9188
" />
<path d="M18.8991 49.2536
L18.9596 49.1326
" />
<path d="M18.9596 49.1326
L19.0805 49.0722
" />
<path d="M19.0805 49.0722
L19.2620 49.0722
" />
<path d="M19.2620 49.0722
L19.3829 49.1326
" />
<path d="M19.3829 49.1326
L19.4434 49.2536
" />
<path d="M19.4434 49.2536
L19.4434 49.9188
" />
<path d="M20.0481 49.9188
L20.0481 49.0722
" />
<path d="M20.0481 48.6488
L19.9877 48.7093
" />
<path d="M19.9877 48.7093
L20.0481 48.7698
" />
<path d="M20.0481 48.7698
L20.1086 48.7093
" />
<path d="M20.1086 48.7093
L20.0481 48.6488
" />
<path d="M20.0481 48.6488
L20.0481 48.7698
" />
<path d="M21.1972 49.8584
L21.0763 49.9188
" />
<path d="M21.0763 49.9188
L20.8344 49.9188
" />
<path d="M20.8344 49.9188
L20.7134 49.8584
" />
<path d="M20.7134 49.8584
L20.6529 49.7979
" />
<path d="M20.6529 49.7979
L20.5925 49.6769
" />
<path d="M20.5925 49.6769
L20.5925 49.3141
" />
<path d="M20.5925 49.3141
L20.6529 49.1931
" />
<path d="M20.6529 49.1931
L20.7134 49.1326
" />
<path d="M20.7134 49.1326
L20.8344 49.0722
" />
<path d="M20.8344 49.0722
L21.0763 49.0722
" />
<path d="M21.0763 49.0722
L21.1972 49.1326
" />
<path d="M21.7415 49.9188
L21.7415 49.0722
" />
<path d="M21.7415 49.3141
L21.8020 49.1931
" />
<path d="M21.8020 49.1931
L21.8625 49.1326
" />
<path d="M21.8625 49.1326
L21.9834 49.0722
" />
<path d="M21.9834 49.0722
L22.1044 49.0722
" />
<path d="M22.7092 49.9188
L22.5882 49.8584
" />
<path d="M22.5882 49.8584
L22.5277 49.7979
" />
<path d="M22.5277 49.7979
L22.4673 49.6769
" />
<path d="M22.4673 49.6769
L22.4673 49.3141
" />
<path d="M22.4673 49.3141
L22.5277 49.1931
" />
<path d="M22.5277 49.1931
L22.5882 49.1326
" />
<path d="M22.5882 49.1326
L22.7092 49.0722
" />
<path d="M22.7092 49.0722
L22.8906 49.0722
" />
<path d="M22.8906 49.0722
L23.0115 49.1326
" />
<path d="M23.0115 49.1326
L23.0720 49.1931
" />
<path d="M23.0720 49.1931
L23.1325 49.3141
" />
<path d="M23.1325 49.3141
L23.1325 49.6769
" />
<path d="M23.1325 49.6769
L23.0720 49.7979
" />
<path d="M23.0720 49.7979
L23.0115 49.8584
" />
<path d="M23.0115 49.8584
L22.8906 49.9188
" />
<path d="M22.8906 49.9188
L22.7092 49.9188
" />
<path d="M24.2210 49.8584
L24.1001 49.9188
" />
<path d="M24.1001 49.9188
L23.8582 49.9188
" />
<path d="M23.8582 49.9188
L23.7372 49.8584
" />
<path d="M23.7372 49.8584
L23.6767 49.7979
" />
<path d="M23.6767 49.7979
L23.6163 49.6769
" />
<path d="M23.6163 49.6769
L23.6163 49.3141
" />
<path d="M23.6163 49.3141
L23.6767 49.1931
" />
<path d="M23.6767 49.1931
L23.7372 49.1326
" />
<path d="M23.7372 49.1326
L23.8582 49.0722
" />
<path d="M23.8582 49.0722
L24.1001 49.0722
" />
<path d="M24.1001 49.0722
L24.2210 49.1326
" />
<path d="M24.7653 49.9188
L24.7653 48.6488
" />
<path d="M25.3096 49.9188
L25.3096 49.2536
" />
<path d="M25.3096 49.2536
L25.2491 49.1326
" />
<path d="M25.2491 49.1326
L25.1282 49.0722
" />
<path d="M25.1282 49.0722
L24.9468 49.0722
" />
<path d="M24.9468 49.0722
L24.8258 49.1326
" />
<path d="M24.8258 49.1326
L24.7653 49.1931
" />
<path d="M25.9143 49.9188
L25.9143 49.0722
" />
<path d="M25.9143 48.6488
L25.8539 48.7093
" />
<path d="M25.8539 48.7093
L25.9143 48.7698
" />
<path d="M25.9143 48.7698
L25.9748 48.7093
" />
<path d="M25.9748 48.7093
L25.9143 48.6488
" />
<path d="M25.9143 48.6488
L25.9143 48.7698
" />
<path d="M26.5191 49.0722
L26.5191 50.3422
" />
<path d="M26.5191 49.1326
L26.6401 49.0722
" />
<path d="M26.6401 49.0722
L26.8820 49.0722
" />
<path d="M26.8820 49.0722
L27.0029 49.1326
" />
<path d="M27.0029 49.1326
L27.0634 49.1931
" />
<path d="M27.0634 49.1931
L27.1239 49.3141
" />
<path d="M27.1239 49.3141
L27.1239 49.6769
" />
<path d="M27.1239 49.6769
L27.0634 49.7979
" />
<path d="M27.0634 49.7979
L27.0029 49.8584
" />
<path d="M27.0029 49.8584
L26.8820 49.9188
" />
<path d="M26.8820 49.9188
L26.6401 49.9188
" />
<path d="M26.6401 49.9188
L26.5191 49.8584
" />
<path d="M27.6681 49.7979
L27.7286 49.8584
" />
<path d="M27.7286 49.8584
L27.6681 49.9188
" />
<path d="M27.6681 49.9188
L27.6077 49.8584
" />
<path d="M27.6077 49.8584
L27.6681 49.7979
" />
<path d="M27.6681 49.7979
L27.6681 49.9188
" />
<path d="M28.8172 49.8584
L28.6963 49.9188
" />
<path d="M28.6963 49.9188
L28.4544 49.9188
" />
<path d="M28.4544 49.9188
L28.3334 49.8584
" />
<path d="M28.3334 49.8584
L28.2729 49.7979
" />
<path d="M28.2729 49.7979
L28.2125 49.6769
" />
<path d="M28.2125 49.6769
L28.2125 49.3141
" />
<path d="M28.2125 49.3141
L28.2729 49.1931
" />
<path d="M28.2729 49.1931
L28.3334 49.1326
" />
<path d="M28.3334 49.1326
L28.4544 49.0722
" />
<path d="M28.4544 49.0722
L28.6963 49.0722
" />
<path d="M28.6963 49.0722
L28.8172 49.1326
" />
<path d="M29.5430 49.9188
L29.4220 49.8584
" />
<path d="M29.4220 49.8584
L29.3615 49.7979
" />
<path d="M29.3615 49.7979
L29.3011 49.6769
" />
<path d="M29.3011 49.6769
L29.3011 49.3141
" />
<path d="M29.3011 49.3141
L29.3615 49.1931
" />
<path d="M29.3615 49.1931
L29.4220 49.1326
" />
<path d="M29.4220 49.1326
L29.5430 49.0722
" />
<path d="M29.5430 49.0722
L29.7244 49.0722
" />
<path d="M29.7244 49.0722
L29.8453 49.1326
" />
<path d="M29.8453 49.1326
L29.9058 49.1931
" />
<path d="M29.9058 49.1931
L29.9663 49.3141
" />
<path d="M29.9663 49.3141
L29.9663 49.6769
" />
<path d="M29.9663 49.6769
L29.9058 49.7979
" />
<path d="M29.9058 49.7979
L29.8453 49.8584
" />
<path d="M29.8453 49.8584
L29.7244 49.9188
" />
<path d="M29.7244 49.9188
L29.5430 49.9188
" />
<path d="M30.5105 49.9188
L30.5105 49.0722
" />
<path d="M30.5105 49.1931
L30.5710 49.1326
" />
<path d="M30.5710 49.1326
L30.6920 49.0722
" />
<path d="M30.6920 49.0722
L30.8734 49.0722
" />
<path d="M30.8734 49.0722
L30.9943 49.1326
" />
<path d="M30.9943 49.1326
L31.0548 49.2536
" />
<path d="M31.0548 49.2536
L31.0548 49.9188
" />
<path d="M31.0548 49.2536
L31.1153 49.1326
" />
<path d="M31.1153 49.1326
L31.2362 49.0722
" />
<path d="M31.2362 49.0722
L31.4177 49.0722
" />
<path d="M31.4177 49.0722
L31.5386 49.1326
" />
<path d="M31.5386 49.1326
L31.5991 49.2536
" />
<path d="M31.5991 49.2536
L31.5991 49.9188
" />
<path d="M33.1110 48.5884
L32.0224 50.2212
" />
<path d="M34.0786 49.9188
L34.0786 48.6488
" />
<path d="M34.0786 49.8584
L33.9577 49.9188
" />
<path d="M33.9577 49.9188
L33.7158 49.9188
" />
<path d="M33.7158 49.9188
L33.5948 49.8584
" />
<path d="M33.5948 49.8584
L33.5343 49.7979
" />
<path d="M33.5343 49.7979
L33.4739 49.6769
" />
<path d="M33.4739 49.6769
L33.4739 49.3141
" />
<path d="M33.4739 49.3141
L33.5343 49.1931
" />
<path d="M33.5343 49.1931
L33.5948 49.1326
" />
<path d="M33.5948 49.1326
L33.7158 49.0722
" />
<path d="M33.7158 49.0722
L33.9577 49.0722
" />
<path d="M33.9577 49.0722
L34.0786 49.1326
" />
<path d="M34.8648 49.9188
L34.7438 49.8584
" />
<path d="M34.7438 49.8584
L34.6833 49.7979
" />
<path d="M34.6833 49.7979
L34.6229 49.6769
" />
<path d="M34.6229 49.6769
L34.6229 49.3141
" />
<path d="M34.6229 49.3141
L34.6833 49.1931
" />
<path d="M34.6833 49.1931
L34.7438 49.1326
" />
<path d="M34.7438 49.1326
L34.8648 49.0722
" />
<path d="M34.8648 49.0722
L35.0462 49.0722
" />
<path d="M35.0462 49.0722
L35.1671 49.1326
" />
<path d="M35.1671 49.1326
L35.2276 49.1931
" />
<path d="M35.2276 49.1931
L35.2881 49.3141
" />
<path d="M35.2881 49.3141
L35.2881 49.6769
" />
<path d="M35.2881 49.6769
L35.2276 49.7979
" />
<path d="M35.2276 49.7979
L35.1671 49.8584
" />
<path d="M35.1671 49.8584
L35.0462 49.9188
" />
<path d="M35.0462 49.9188
L34.8648 49.9188
" />
<path d="M35.7114 49.0722
L35.9533 49.9188
" />
<path d="M35.9533 49.9188
L36.1952 49.3141
" />
<path d="M36.1952 49.3141
L36.4371 49.9188
" />
<path d="M36.4371 49.9188
L36.6790 49.0722
" />
<path d="M37.1628 49.0722
L37.1628 49.9188
" />
<path d="M37.1628 49.1931
L37.2233 49.1326
" />
<path d="M37.2233 49.1326
L37.3443 49.0722
" />
<path d="M37.3443 49.0722
L37.5257 49.0722
" />
<path d="M37.5257 49.0722
L37.6466 49.1326
" />
<path d="M37.6466 49.1326
L37.7071 49.2536
" />
<path d="M37.7071 49.2536
L37.7071 49.9188
" />
<path d="M38.4933 49.9188
L38.3723 49.8584
" />
<path d="M38.3723 49.8584
L38.3118 49.7374
" />
<path d="M38.3118 49.7374
L38.3118 48.6488
" />
<path d="M39.1585 49.9188
L39.0375 49.8584
" />
<path d="M39.0375 49.8584
L38.9770 49.7979
" />
<path d="M38.9770 49.7979
L38.9166 49.6769
" />
<path d="M38.9166 49.6769
L38.9166 49.3141
" />
<path d="M38.9166 49.3141
L38.9770 49.1931
" />
<path d="M38.9770 49.1931
L39.0375 49.1326
" />
<path d="M39.0375 49.1326
L39.1585 49.0722
" />
<path d="M39.1585 49.0722
L39.3399 49.0722
" />
<path d="M39.3399 49.0722
L39.4608 49.1326
" />
<path d="M39.4608 49.1326
L39.5213 49.1931
" />
<path d="M39.5213 49.1931
L39.5818 49.3141
" />
<path d="M39.5818 49.3141
L39.5818 49.6769
" />
<path d="M39.5818 49.6769
L39.5213 49.7979
" />
<path d="M39.5213 49.7979
L39.4608 49.8584
" />
<path d="M39.4608 49.8584
L39.3399 49.9188
" />
<path d="M39.3399 49.9188
L39.1585 49.9188
" />
<path d="M40.6703 49.9188
L40.6703 49.2536
" />
<path d="M40.6703 49.2536
L40.6098 49.1326
" />
<path d="M40.6098 49.1326
L40.4889 49.0722
" />
<path d="M40.4889 49.0722
L40.2470 49.0722
" />
<path d="M40.2470 49.0722
L40.1260 49.1326
" />
<path d="M40.6703 49.8584
L40.5494 49.9188
" />
<path d="M40.5494 49.9188
L40.2470 49.9188
" />
<path d="M40.2470 49.9188
L40.1260 49.8584
" />
<path d="M40.1260 49.8584
L40.0656 49.7374
" />
<path d="M40.0656 49.7374
L40.0656 49.6164
" />
<path d="M40.0656 49.6164
L40.1260 49.4955
" />
<path d="M40.1260 49.4955
L40.2470 49.4350
" />
<path d="M40.2470 49.4350
L40.5494 49.4350
" />
<path d="M40.5494 49.4350
L40.6703 49.3745
" />
<path d="M41.8193 49.9188
L41.8193 48.6488
" />
<path d="M41.8193 49.8584
L41.6984 49.9188
" />
<path d="M41.6984 49.9188
L41.4565 49.9188
" />
<path d="M41.4565 49.9188
L41.3355 49.8584
" />
<path d="M41.3355 49.8584
L41.2750 49.7979
" />
<path d="M41.2750 49.7979
L41.2146 49.6769
" />
<path d="M41.2146 49.6769
L41.2146 49.3141
" />
<path d="M41.2146 49.3141
L41.2750 49.1931
" />
<path d="M41.2750 49.1931
L41.3355 49.1326
" />
<path d="M41.3355 49.1326
L41.4565 49.0722
" />
<path d="M41.4565 49.0722
L41.6984 49.0722
" />
<path d="M41.6984 49.0722
L41.8193 49.1326
" />
<path d="M42.3636 49.8584
L42.4845 49.9188
" />
<path d="M42.4845 49.9188
L42.7264 49.9188
" />
<path d="M42.7264 49.9188
L42.8474 49.8584
" />
<path d="M42.8474 49.8584
L42.9078 49.7374
" />
<path d="M42.9078 49.7374
L42.9078 49.6769
" />
<path d="M42.9078 49.6769
L42.8474 49.5560
" />
<path d="M42.8474 49.5560
L42.7264 49.4955
" />
<path d="M42.7264 49.4955
L42.5450 49.4955
" />
<path d="M42.5450 49.4955
L42.4240 49.4350
" />
<path d="M42.4240 49.4350
L42.3636 49.3141
" />
<path d="M42.3636 49.3141
L42.3636 49.2536
" />
<path d="M42.3636 49.2536
L42.4240 49.1326
" />
<path d="M42.4240 49.1326
L42.5450 49.0722
" />
<path d="M42.5450 49.0722
L42.7264 49.0722
" />
<path d="M42.7264 49.0722
L42.8474 49.1326
" />
<path d="M44.3593 48.5884
L43.2707 50.2212
" />
<path d="M45.2664 49.8584
L45.1455 49.9188
" />
<path d="M45.1455 49.9188
L44.9036 49.9188
" />
<path d="M44.9036 49.9188
L44.7826 49.8584
" />
<path d="M44.7826 49.8584
L44.7222 49.7374
" />
<path d="M44.7222 49.7374
L44.7222 49.2536
" />
<path d="M44.7222 49.2536
L44.7826 49.1326
" />
<path d="M44.7826 49.1326
L44.9036 49.0722
" />
<path d="M44.9036 49.0722
L45.1455 49.0722
" />
<path d="M45.1455 49.0722
L45.2664 49.1326
" />
<path d="M45.2664 49.1326
L45.3269 49.2536
" />
<path d="M45.3269 49.2536
L45.3269 49.3745
" />
<path d="M45.3269 49.3745
L44.7222 49.4955
" />
<path d="M45.8712 49.0722
L45.8712 49.9188
" />
<path d="M45.8712 49.1931
L45.9317 49.1326
" />
<path d="M45.9317 49.1326
L46.0527 49.0722
" />
<path d="M46.0527 49.0722
L46.2341 49.0722
" />
<path d="M46.2341 49.0722
L46.3550 49.1326
" />
<path d="M46.3550 49.1326
L46.4155 49.2536
" />
<path d="M46.4155 49.2536
L46.4155 49.9188
" />
<path d="M47.9274 48.5884
L46.8388 50.2212
" />
<path d="M48.3507 49.9188
L48.3507 48.6488
" />
<path d="M48.3507 48.6488
L48.6531 48.6488
" />
<path d="M48.6531 48.6488
L48.8345 48.7093
" />
<path d="M48.8345 48.7093
L48.9555 48.8303
" />
<path d="M48.9555 48.8303
L49.0160 48.9512
" />
<path d="M49.0160 48.9512
L49.0764 49.1931
" />
<path d="M49.0764 49.1931
L49.0764 49.3745
" />
<path d="M49.0764 49.3745
L49.0160 49.6164
" />
<path d="M49.0160 49.6164
L48.9555 49.7374
" />
<path d="M48.9555 49.7374
L48.8345 49.8584
" />
<path d="M48.8345 49.8584
L48.6531 49.9188
" />
<path d="M48.6531 49.9188
L48.3507 49.9188
" />
<path d="M50.1045 49.8584
L49.9836 49.9188
" />
<path d="M49.9836 49.9188
L49.7417 49.9188
" />
<path d="M49.7417 49.9188
L49.6207 49.8584
" />
<path d="M49.6207 49.8584
L49.5603 49.7374
" />
<path d="M49.5603 49.7374
L49.5603 49.2536
" />
<path d="M49.5603 49.2536
L49.6207 49.1326
" />
<path d="M49.6207 49.1326
L49.7417 49.0722
" />
<path d="M49.7417 49.0722
L49.9836 49.0722
" />
<path d="M49.9836 49.0722
L50.1045 49.1326
" />
<path d="M50.1045 49.1326
L50.1650 49.2536
" />
<path d="M50.1650 49.2536
L50.1650 49.3745
" />
<path d="M50.1650 49.3745
L49.5603 49.4955
" />
<path d="M50.5884 49.0722
L50.8908 49.9188
" />
<path d="M50.8908 49.9188
L51.1931 49.0722
" />
<path d="M51.6769 49.9188
L51.6769 49.0722
" />
<path d="M51.6769 48.6488
L51.6165 48.7093
" />
<path d="M51.6165 48.7093
L51.6769 48.7698
" />
<path d="M51.6769 48.7698
L51.7374 48.7093
" />
<path d="M51.7374 48.7093
L51.6769 48.6488
" />
<path d="M51.6769 48.6488
L51.6769 48.7698
" />
<path d="M52.8260 49.8584
L52.7051 49.9188
" />
<path d="M52.7051 49.9188
L52.4632 49.9188
" />
<path d="M52.4632 49.9188
L52.3422 49.8584
" />
<path d="M52.3422 49.8584
L52.2817 49.7979
" />
<path d="M52.2817 49.7979
L52.2213 49.6769
" />
<path d="M52.2213 49.6769
L52.2213 49.3141
" />
<path d="M52.2213 49.3141
L52.2817 49.1931
" />
<path d="M52.2817 49.1931
L52.3422 49.1326
" />
<path d="M52.3422 49.1326
L52.4632 49.0722
" />
<path d="M52.4632 49.0722
L52.7051 49.0722
" />
<path d="M52.7051 49.0722
L52.8260 49.1326
" />
<path d="M53.8541 49.8584
L53.7332 49.9188
" />
<path d="M53.7332 49.9188
L53.4913 49.9188
" />
<path d="M53.4913 49.9188
L53.3703 49.8584
" />
<path d="M53.3703 49.8584
L53.3099 49.7374
" />
<path d="M53.3099 49.7374
L53.3099 49.2536
" />
<path d="M53.3099 49.2536
L53.3703 49.1326
" />
<path d="M53.3703 49.1326
L53.4913 49.0722
" />
<path d="M53.4913 49.0722
L53.7332 49.0722
" />
<path d="M53.7332 49.0722
L53.8541 49.1326
" />
<path d="M53.8541 49.1326
L53.9146 49.2536
" />
<path d="M53.9146 49.2536
L53.9146 49.3745
" />
<path d="M53.9146 49.3745
L53.3099 49.4955
" />
<path d="M54.4589 49.9188
L54.4589 48.6488
" />
<path d="M54.4589 48.6488
L54.7613 48.6488
" />
<path d="M54.7613 48.6488
L54.9427 48.7093
" />
<path d="M54.9427 48.7093
L55.0637 48.8303
" />
<path d="M55.0637 48.8303
L55.1242 48.9512
" />
<path d="M55.1242 48.9512
L55.1846 49.1931
" />
<path d="M55.1846 49.1931
L55.1846 49.3745
" />
<path d="M55.1846 49.3745
L55.1242 49.6164
" />
<path d="M55.1242 49.6164
L55.0637 49.7374
" />
<path d="M55.0637 49.7374
L54.9427 49.8584
" />
<path d="M54.9427 49.8584
L54.7613 49.9188
" />
<path d="M54.7613 49.9188
L54.4589 49.9188
" />
<path d="M55.9104 49.9188
L55.7894 49.8584
" />
<path d="M55.7894 49.8584
L55.7289 49.7979
" />
<path d="M55.7289 49.7979
L55.6685 49.6769
" />
<path d="M55.6685 49.6769
L55.6685 49.3141
" />
<path d="M55.6685 49.3141
L55.7289 49.1931
" />
<path d="M55.7289 49.1931
L55.7894 49.1326
" />
<path d="M55.7894 49.1326
L55.9104 49.0722
" />
<path d="M55.9104 49.0722
L56.0918 49.0722
" />
<path d="M56.0918 49.0722
L56.2127 49.1326
" />
<path d="M56.2127 49.1326
L56.2732 49.1931
" />
<path d="M56.2732 49.1931
L56.3337 49.3141
" />
<path d="M56.3337 49.3141
L56.3337 49.6769
" />
<path d="M56.3337 49.6769
L56.2732 49.7979
" />
<path d="M56.2732 49.7979
L56.2127 49.8584
" />
<path d="M56.2127 49.8584
L56.0918 49.9188
" />
<path d="M56.0918 49.9188
L55.9104 49.9188
" />
<path d="M57.4222 49.8584
L57.3013 49.9188
" />
<path d="M57.3013 49.9188
L57.0594 49.9188
" />
<path d="M57.0594 49.9188
L56.9384 49.8584
" />
<path d="M56.9384 49.8584
L56.8779 49.7979
" />
<path d="M56.8779 49.7979
L56.8175 49.6769
" />
<path d="M56.8175 49.6769
L56.8175 49.3141
" />
<path d="M56.8175 49.3141
L56.8779 49.1931
" />
<path d="M56.8779 49.1931
L56.9384 49.1326
" />
<path d="M56.9384 49.1326
L57.0594 49.0722
" />
<path d="M57.0594 49.0722
L57.3013 49.0722
" />
<path d="M57.3013 49.0722
L57.4222 49.1326
" />
<path d="M58.8737 48.5884
L57.7851 50.2212
" />
<path d="M59.8413 49.9188
L59.8413 48.6488
" />
<path d="M59.8413 49.8584
L59.7204 49.9188
" />
<path d="M59.7204 49.9188
L59.4785 49.9188
" />
<path d="M59.4785 49.9188
L59.3575 49.8584
" />
<path d="M59.3575 49.8584
L59.2970 49.7979
" />
<path d="M59.2970 49.7979
L59.2366 49.6769
" />
<path d="M59.2366 49.6769
L59.2366 49.3141
" />
<path d="M59.2366 49.3141
L59.2970 49.1931
" />
<path d="M59.2970 49.1931
L59.3575 49.1326
" />
<path d="M59.3575 49.1326
L59.4785 49.0722
" />
<path d="M59.4785 49.0722
L59.7204 49.0722
" />
<path d="M59.7204 49.0722
L59.8413 49.1326
" />
<path d="M60.6275 49.9188
L60.5065 49.8584
" />
<path d="M60.5065 49.8584
L60.4460 49.7979
" />
<path d="M60.4460 49.7979
L60.3856 49.6769
" />
<path d="M60.3856 49.6769
L60.3856 49.3141
" />
<path d="M60.3856 49.3141
L60.4460 49.1931
" />
<path d="M60.4460 49.1931
L60.5065 49.1326
" />
<path d="M60.5065 49.1326
L60.6275 49.0722
" />
<path d="M60.6275 49.0722
L60.8089 49.0722
" />
<path d="M60.8089 49.0722
L60.9298 49.1326
" />
<path d="M60.9298 49.1326
L60.9903 49.1931
" />
<path d="M60.9903 49.1931
L61.0508 49.3141
" />
<path d="M61.0508 49.3141
L61.0508 49.6769
" />
<path d="M61.0508 49.6769
L60.9903 49.7979
" />
<path d="M60.9903 49.7979
L60.9298 49.8584
" />
<path d="M60.9298 49.8584
L60.8089 49.9188
" />
<path d="M60.8089 49.9188
L60.6275 49.9188
" />
<path d="M62.1393 49.8584
L62.0184 49.9188
" />
<path d="M62.0184 49.9188
L61.7765 49.9188
" />
<path d="M61.7765 49.9188
L61.6555 49.8584
" />
<path d="M61.6555 49.8584
L61.5950 49.7979
" />
<path d="M61.5950 49.7979
L61.5346 49.6769
" />
<path d="M61.5346 49.6769
L61.5346 49.3141
" />
<path d="M61.5346 49.3141
L61.5950 49.1931
" />
<path d="M61.5950 49.1931
L61.6555 49.1326
" />
<path d="M61.6555 49.1326
L61.7765 49.0722
" />
<path d="M61.7765 49.0722
L62.0184 49.0722
" />
<path d="M62.0184 49.0722
L62.1393 49.1326
" />
<path d="M62.8651 49.1931
L62.7441 49.1326
" />
<path d="M62.7441 49.1326
L62.6836 49.0722
" />
<path d="M62.6836 49.0722
L62.6232 48.9512
" />
<path d="M62.6232 48.9512
L62.6232 48.8907
" />
<path d="M62.6232 48.8907
L62.6836 48.7698
" />
<path d="M62.6836 48.7698
L62.7441 48.7093
" />
<path d="M62.7441 48.7093
L62.8651 48.6488
" />
<path d="M62.8651 48.6488
L63.1070 48.6488
" />
<path d="M63.1070 48.6488
L63.2279 48.7093
" />
<path d="M63.2279 48.7093
L63.2884 48.7698
" />
<path d="M63.2884 48.7698
L63.3489 48.8907
" />
<path d="M63.3489 48.8907
L63.3489 48.9512
" />
<path d="M63.3489 48.9512
L63.2884 49.0722
" />
<path d="M63.2884 49.0722
L63.2279 49.1326
" />
<path d="M63.2279 49.1326
L63.1070 49.1931
" />
<path d="M63.1070 49.1931
L62.8651 49.1931
" />
<path d="M62.8651 49.1931
L62.7441 49.2536
" />
<path d="M62.7441 49.2536
L62.6836 49.3141
" />
<path d="M62.6836 49.3141
L62.6232 49.4350
" />
<path d="M62.6232 49.4350
L62.6232 49.6769
" />
<path d="M62.6232 49.6769
L62.6836 49.7979
" />
<path d="M62.6836 49.7979
L62.7441 49.8584
" />
<path d="M62.7441 49.8584
L62.8651 49.9188
" />
<path d="M62.8651 49.9188
L63.1070 49.9188
" />
<path d="M63.1070 49.9188
L63.2279 49.8584
" />
<path d="M63.2279 49.8584
L63.2884 49.7979
" />
<path d="M63.2884 49.7979
L63.3489 49.6769
" />
<path d="M63.3489 49.6769
L63.3489 49.4350
" />
<path d="M63.3489 49.4350
L63.2884 49.3141
" />
<path d="M63.2884 49.3141
L63.2279 49.2536
" />
<path d="M63.2279 49.2536
L63.1070 49.1931
" />
<path d="M64.1350 48.6488
L64.2560 48.6488
" />
<path d="M64.2560 48.6488
L64.3769 48.7093
" />
<path d="M64.3769 48.7093
L64.4374 48.7698
" />
<path d="M64.4374 48.7698
L64.4979 48.8907
" />
<path d="M64.4979 48.8907
L64.5584 49.1326
" />
<path d="M64.5584 49.1326
L64.5584 49.4350
" />
<path d="M64.5584 49.4350
L64.4979 49.6769
" />
<path d="M64.4979 49.6769
L64.4374 49.7979
" />
<path d="M64.4374 49.7979
L64.3769 49.8584
" />
<path d="M64.3769 49.8584
L64.2560 49.9188
" />
<path d="M64.2560 49.9188
L64.1350 49.9188
" />
<path d="M64.1350 49.9188
L64.0141 49.8584
" />
<path d="M64.0141 49.8584
L63.9536 49.7979
" />
<path d="M63.9536 49.7979
L63.8931 49.6769
" />
<path d="M63.8931 49.6769
L63.8327 49.4350
" />
<path d="M63.8327 49.4350
L63.8327 49.1326
" />
<path d="M63.8327 49.1326
L63.8931 48.8907
" />
<path d="M63.8931 48.8907
L63.9536 48.7698
" />
<path d="M63.9536 48.7698
L64.0141 48.7093
" />
<path d="M64.0141 48.7093
L64.1350 48.6488
" />
<path d="M65.3445 48.6488
L65.4655 48.6488
" />
<path d="M65.4655 48.6488
L65.5864 48.7093
" />
<path d="M65.5864 48.7093
L65.6469 48.7698
" />
<path d="M65.6469 48.7698
L65.7074 48.8907
" />
<path d="M65.7074 48.8907
L65.7679 49.1326
" />
<path d="M65.7679 49.1326
L65.7679 49.4350
" />
<path d="M65.7679 49.4350
L65.7074 49.6769
" />
<path d="M65.7074 49.6769
L65.6469 49.7979
" />
<path d="M65.6469 49.7979
L65.5864 49.8584
" />
<path d="M65.5864 49.8584
L65.4655 49.9188
" />
<path d="M65.4655 49.9188
L65.3445 49.9188
" />
<path d="M65.3445 49.9188
L65.2236 49.8584
" />
<path d="M65.2236 49.8584
L65.1631 49.7979
" />
<path d="M65.1631 49.7979
L65.1026 49.6769
" />
<path d="M65.1026 49.6769
L65.0422 49.4350
" />
<path d="M65.0422 49.4350
L65.0422 49.1326
" />
<path d="M65.0422 49.1326
L65.1026 48.8907
" />
<path d="M65.1026 48.8907
L65.1631 48.7698
" />
<path d="M65.1631 48.7698
L65.2236 48.7093
" />
<path d="M65.2236 48.7093
L65.3445 48.6488
" />
<path d="M66.4936 49.1931
L66.3726 49.1326
" />
<path d="M66.3726 49.1326
L66.3121 49.0722
" />
<path d="M66.3121 49.0722
L66.2517 48.9512
" />
<path d="M66.2517 48.9512
L66.2517 48.8907
" />
<path d="M66.2517 48.8907
L66.3121 48.7698
" />
<path d="M66.3121 48.7698
L66.3726 48.7093
" />
<path d="M66.3726 48.7093
L66.4936 48.6488
" />
<path d="M66.4936 48.6488
L66.7355 48.6488
" />
<path d="M66.7355 48.6488
L66.8564 48.7093
" />
<path d="M66.8564 48.7093
L66.9169 48.7698
" />
<path d="M66.9169 48.7698
L66.9774 48.8907
" />
<path d="M66.9774 48.8907
L66.9774 48.9512
" />
<path d="M66.9774 48.9512
L66.9169 49.0722
" />
<path d="M66.9169 49.0722
L66.8564 49.1326
" />
<path d="M66.8564 49.1326
L66.7355 49.1931
" />
<path d="M66.7355 49.1931
L66.4936 49.1931
" />
<path d="M66.4936 49.1931
L66.3726 49.2536
" />
<path d="M66.3726 49.2536
L66.3121 49.3141
" />
<path d="M66.3121 49.3141
L66.2517 49.4350
" />
<path d="M66.2517 49.4350
L66.2517 49.6769
" />
<path d="M66.2517 49.6769
L66.3121 49.7979
" />
<path d="M66.3121 49.7979
L66.3726 49.8584
" />
<path d="M66.3726 49.8584
L66.4936 49.9188
" />
<path d="M66.4936 49.9188
L66.7355 49.9188
" />
<path d="M66.7355 49.9188
L66.8564 49.8584
" />
<path d="M66.8564 49.8584
L66.9169 49.7979
" />
<path d="M66.9169 49.7979
L66.9774 49.6769
" />
<path d="M66.9774 49.6769
L66.9774 49.4350
" />
<path d="M66.9774 49.4350
L66.9169 49.3141
" />
<path d="M66.9169 49.3141
L66.8564 49.2536
" />
<path d="M66.8564 49.2536
L66.7355 49.1931
" />
<path d="M67.5216 49.7979
L67.5821 49.8584
" />
<path d="M67.5821 49.8584
L67.5216 49.9188
" />
<path d="M67.5216 49.9188
L67.4612 49.8584
" />
<path d="M67.4612 49.8584
L67.5216 49.7979
" />
<path d="M67.5216 49.7979
L67.5216 49.9188
" />
<path d="M68.1264 49.0722
L68.1264 50.3422
" />
<path d="M68.1264 49.1326
L68.2474 49.0722
" />
<path d="M68.2474 49.0722
L68.4893 49.0722
" />
<path d="M68.4893 49.0722
L68.6102 49.1326
" />
<path d="M68.6102 49.1326
L68.6707 49.1931
" />
<path d="M68.6707 49.1931
L68.7312 49.3141
" />
<path d="M68.7312 49.3141
L68.7312 49.6769
" />
<path d="M68.7312 49.6769
L68.6707 49.7979
" />
<path d="M68.6707 49.7979
L68.6102 49.8584
" />
<path d="M68.6102 49.8584
L68.4893 49.9188
" />
<path d="M68.4893 49.9188
L68.2474 49.9188
" />
<path d="M68.2474 49.9188
L68.1264 49.8584
" />
<path d="M69.8197 49.9188
L69.8197 48.6488
" />
<path d="M69.8197 49.8584
L69.6988 49.9188
" />
<path d="M69.6988 49.9188
L69.4569 49.9188
" />
<path d="M69.4569 49.9188
L69.3359 49.8584
" />
<path d="M69.3359 49.8584
L69.2754 49.7979
" />
<path d="M69.2754 49.7979
L69.2150 49.6769
" />
<path d="M69.2150 49.6769
L69.2150 49.3141
" />
<path d="M69.2150 49.3141
L69.2754 49.1931
" />
<path d="M69.2754 49.1931
L69.3359 49.1326
" />
<path d="M69.3359 49.1326
L69.4569 49.0722
" />
<path d="M69.4569 49.0722
L69.6988 49.0722
" />
<path d="M69.6988 49.0722
L69.8197 49.1326
" />
<path d="M70.2430 49.0722
L70.7268 49.0722
" />
<path d="M70.4244 49.9188
L70.4244 48.8303
" />
<path d="M70.4244 48.8303
L70.4849 48.7093
" />
<path d="M70.4849 48.7093
L70.6059 48.6488
" />
<path d="M70.6059 48.6488
L70.7268 48.6488
" />
</g></g> 
</svg>
