<?xml version="1.0" standalone="no"?>
 <!DOCTYPE svg PUBLIC "-//W3C//DTD SVG 1.1//EN" 
 "http://www.w3.org/Graphics/SVG/1.1/DTD/svg11.dtd"> 
<svg
  xmlns:svg="http://www.w3.org/2000/svg"
  xmlns="http://www.w3.org/2000/svg"
  xmlns:xlink="http://www.w3.org/1999/xlink"
  version="1.1"
  width="192.5066mm" height="12.1920mm" viewBox="0.0000 0.0000 192.5066 12.1920">
<title>SVG Image created as working.svg date 2023/08/29 17:58:06 </title>
  <desc>Image generated by Eeschema-SVG </desc>
<g style="fill:#000000; fill-opacity:1.0000;stroke:#000000; stroke-opacity:1.0000;
stroke-linecap:round; stroke-linejoin:round;"
 transform="translate(0 0) scale(1 1)">
</g>
<g style="fill:#840000; fill-opacity:0.0; 
stroke:#840000; stroke-width:0.0000; stroke-opacity:1; 
stroke-linecap:round; stroke-linejoin:round;">
</g>
<g style="fill:#840084; fill-opacity:0.0; 
stroke:#840084; stroke-width:0.0000; stroke-opacity:1; 
stroke-linecap:round; stroke-linejoin:round;">
</g>
<g style="fill:#840000; fill-opacity:0.0; 
stroke:#840000; stroke-width:0.0000; stroke-opacity:1; 
stroke-linecap:round; stroke-linejoin:round;">
</g>
<g style="fill:#840000; fill-opacity:0.0; 
stroke:#840000; stroke-width:0.1524; stroke-opacity:1; 
stroke-linecap:round; stroke-linejoin:round;">
<path style="fill:#840000; fill-opacity:0.0; 
stroke:#840000; stroke-width:0.1524; stroke-opacity:1; 
stroke-linecap:round; stroke-linejoin:round;fill:none"
d="M 94.3483,4.8261
93.7133,4.8261
" /> 
<path style="fill:#840000; fill-opacity:0.0; 
stroke:#840000; stroke-width:0.1524; stroke-opacity:1; 
stroke-linecap:round; stroke-linejoin:round;fill:none"
d="M 94.9833,3.5561
94.3483,3.5561
" /> 
<path style="fill:#840000; fill-opacity:0.0; 
stroke:#840000; stroke-width:0.1524; stroke-opacity:1; 
stroke-linecap:round; stroke-linejoin:round;fill:none"
d="M 96.8883,5.4611
98.7933,3.5561
" /> 
<path style="fill:#840000; fill-opacity:0.0; 
stroke:#840000; stroke-width:0.1524; stroke-opacity:1; 
stroke-linecap:round; stroke-linejoin:round;fill:none"
d="M 92.4433,2.9211
94.3483,4.8261
94.3483,4.1911
" /> 
<path style="fill:#840000; fill-opacity:0.0; 
stroke:#840000; stroke-width:0.1524; stroke-opacity:1; 
stroke-linecap:round; stroke-linejoin:round;fill:none"
d="M 93.0783,1.6511
94.9833,3.5561
94.9833,2.9211
" /> 
<path style="fill:#840000; fill-opacity:0.0; 
stroke:#840000; stroke-width:0.1524; stroke-opacity:1; 
stroke-linecap:round; stroke-linejoin:round;fill:none"
d="M 96.8883,6.7311
98.7933,8.6361
98.7933,8.6361
" /> 
</g>
<g style="fill:#840000; fill-opacity:0.0; 
stroke:#840000; stroke-width:0.5080; stroke-opacity:1; 
stroke-linecap:round; stroke-linejoin:round;">
<path style="fill:#840000; fill-opacity:0.0; 
stroke:#840000; stroke-width:0.5080; stroke-opacity:1; 
stroke-linecap:round; stroke-linejoin:round;fill:none"
d="M 96.8883,4.1911
96.8883,8.0011
96.8883,8.0011
" /> 
</g>
<g style="fill:#840000; fill-opacity:1.0000; 
stroke:#840000; stroke-width:0.1524; stroke-opacity:1; 
stroke-linecap:round; stroke-linejoin:round;">
<path style="fill:#840000; fill-opacity:1.0000; 
stroke:#840000; stroke-width:0.1524; stroke-opacity:1; 
stroke-linecap:round; stroke-linejoin:round;fill-rule:evenodd;"
d="M 97.5233,7.8741
98.0313,7.3661
98.5393,8.3821
97.5233,7.8741
Z" /> 
</g>
<g style="fill:#840000; fill-opacity:0.0; 
stroke:#840000; stroke-width:0.2540; stroke-opacity:1; 
stroke-linecap:round; stroke-linejoin:round;">
<circle cx="97.5233" cy="6.0961" r="2.8194" /> 
</g>
<g style="fill:#840000; fill-opacity:0.0; 
stroke:#840000; stroke-width:0.1524; stroke-opacity:1; 
stroke-linecap:round; stroke-linejoin:round;">
<path d="M98.7933 3.5561
L98.7933 1.0161
" />
</g>
<g style="fill:#A90000; fill-opacity:0.0; 
stroke:#A90000; stroke-width:0.1524; stroke-opacity:1; 
stroke-linecap:round; stroke-linejoin:round;">
<g transform="rotate(-90.000000 99.0473 2.2861)">
<text x="99.0473" y="3.5561"
textLength="1.4127" font-size="1.6933" lengthAdjust="spacingAndGlyphs"
text-anchor="middle" opacity="0">1</text>
</g>
<g class="stroked-text"><desc>1</desc>
<path d="M100.3697 1.9231
L100.3697 2.6488
" />
<path d="M100.3697 2.2860
L99.0997 2.2860
" />
<path d="M99.0997 2.2860
L99.2812 2.4069
" />
<path d="M99.2812 2.4069
L99.4021 2.5279
" />
<path d="M99.4021 2.5279
L99.4626 2.6488
" />
</g></g>
<g style="fill:#840000; fill-opacity:0.0; 
stroke:#840000; stroke-width:0.1524; stroke-opacity:1; 
stroke-linecap:round; stroke-linejoin:round;">
<path d="M98.7933 8.6361
L98.7933 11.1761
" />
</g>
<g style="fill:#A90000; fill-opacity:0.0; 
stroke:#A90000; stroke-width:0.1524; stroke-opacity:1; 
stroke-linecap:round; stroke-linejoin:round;">
<g transform="rotate(-90.000000 99.0473 9.9061)">
<text x="99.0473" y="11.1761"
textLength="1.4127" font-size="1.6933" lengthAdjust="spacingAndGlyphs"
text-anchor="middle" opacity="0">2</text>
</g>
<g class="stroked-text"><desc>2</desc>
<path d="M99.2207 10.2688
L99.1602 10.2084
" />
<path d="M99.1602 10.2084
L99.0997 10.0874
" />
<path d="M99.0997 10.0874
L99.0997 9.7850
" />
<path d="M99.0997 9.7850
L99.1602 9.6641
" />
<path d="M99.1602 9.6641
L99.2207 9.6036
" />
<path d="M99.2207 9.6036
L99.3416 9.5431
" />
<path d="M99.3416 9.5431
L99.4626 9.5431
" />
<path d="M99.4626 9.5431
L99.6440 9.6036
" />
<path d="M99.6440 9.6036
L100.3697 10.3293
" />
<path d="M100.3697 10.3293
L100.3697 9.5431
" />
</g></g>
<g style="fill:#840084; fill-opacity:0.0; 
stroke:#840084; stroke-width:0.1524; stroke-opacity:1; 
stroke-linecap:round; stroke-linejoin:round;">
</g>
<g style="fill:#006464; fill-opacity:0.0; 
stroke:#006464; stroke-width:0.1524; stroke-opacity:1; 
stroke-linecap:round; stroke-linejoin:round;">
</g>
<g style="fill:#006464; fill-opacity:0.0; 
stroke:#006464; stroke-width:0.1588; stroke-opacity:1; 
stroke-linecap:round; stroke-linejoin:round;">
<text x="102.6540" y="5.4611"
textLength="2.6415" font-size="1.6933" lengthAdjust="spacingAndGlyphs"
text-anchor="middle" opacity="0">Q?</text>
<g class="stroked-text"><desc>Q?</desc>
<path d="M102.5935 5.5263
L102.4725 5.4658
" />
<path d="M102.4725 5.4658
L102.3516 5.3449
" />
<path d="M102.3516 5.3449
L102.1702 5.1634
" />
<path d="M102.1702 5.1634
L102.0492 5.1029
" />
<path d="M102.0492 5.1029
L101.9283 5.1029
" />
<path d="M101.9887 5.4053
L101.8678 5.3449
" />
<path d="M101.8678 5.3449
L101.7468 5.2239
" />
<path d="M101.7468 5.2239
L101.6864 4.9820
" />
<path d="M101.6864 4.9820
L101.6864 4.5587
" />
<path d="M101.6864 4.5587
L101.7468 4.3168
" />
<path d="M101.7468 4.3168
L101.8678 4.1958
" />
<path d="M101.8678 4.1958
L101.9887 4.1353
" />
<path d="M101.9887 4.1353
L102.2306 4.1353
" />
<path d="M102.2306 4.1353
L102.3516 4.1958
" />
<path d="M102.3516 4.1958
L102.4725 4.3168
" />
<path d="M102.4725 4.3168
L102.5330 4.5587
" />
<path d="M102.5330 4.5587
L102.5330 4.9820
" />
<path d="M102.5330 4.9820
L102.4725 5.2239
" />
<path d="M102.4725 5.2239
L102.3516 5.3449
" />
<path d="M102.3516 5.3449
L102.2306 5.4053
" />
<path d="M102.2306 5.4053
L101.9887 5.4053
" />
<path d="M103.2588 5.2844
L103.3192 5.3449
" />
<path d="M103.3192 5.3449
L103.2588 5.4053
" />
<path d="M103.2588 5.4053
L103.1983 5.3449
" />
<path d="M103.1983 5.3449
L103.2588 5.2844
" />
<path d="M103.2588 5.2844
L103.2588 5.4053
" />
<path d="M103.0169 4.1958
L103.1378 4.1353
" />
<path d="M103.1378 4.1353
L103.4402 4.1353
" />
<path d="M103.4402 4.1353
L103.5611 4.1958
" />
<path d="M103.5611 4.1958
L103.6216 4.3168
" />
<path d="M103.6216 4.3168
L103.6216 4.4377
" />
<path d="M103.6216 4.4377
L103.5611 4.5587
" />
<path d="M103.5611 4.5587
L103.5007 4.6191
" />
<path d="M103.5007 4.6191
L103.3797 4.6796
" />
<path d="M103.3797 4.6796
L103.3192 4.7401
" />
<path d="M103.3192 4.7401
L103.2588 4.8610
" />
<path d="M103.2588 4.8610
L103.2588 4.9215
" />
</g><text x="105.0730" y="8.0011"
textLength="7.4795" font-size="1.6933" lengthAdjust="spacingAndGlyphs"
text-anchor="middle" opacity="0">SFH309</text>
<g class="stroked-text"><desc>SFH309</desc>
<path d="M101.6864 7.8849
L101.8678 7.9453
" />
<path d="M101.8678 7.9453
L102.1702 7.9453
" />
<path d="M102.1702 7.9453
L102.2911 7.8849
" />
<path d="M102.2911 7.8849
L102.3516 7.8244
" />
<path d="M102.3516 7.8244
L102.4121 7.7034
" />
<path d="M102.4121 7.7034
L102.4121 7.5825
" />
<path d="M102.4121 7.5825
L102.3516 7.4615
" />
<path d="M102.3516 7.4615
L102.2911 7.4010
" />
<path d="M102.2911 7.4010
L102.1702 7.3406
" />
<path d="M102.1702 7.3406
L101.9283 7.2801
" />
<path d="M101.9283 7.2801
L101.8073 7.2196
" />
<path d="M101.8073 7.2196
L101.7468 7.1591
" />
<path d="M101.7468 7.1591
L101.6864 7.0382
" />
<path d="M101.6864 7.0382
L101.6864 6.9172
" />
<path d="M101.6864 6.9172
L101.7468 6.7963
" />
<path d="M101.7468 6.7963
L101.8073 6.7358
" />
<path d="M101.8073 6.7358
L101.9283 6.6753
" />
<path d="M101.9283 6.6753
L102.2306 6.6753
" />
<path d="M102.2306 6.6753
L102.4121 6.7358
" />
<path d="M103.3797 7.2801
L102.9563 7.2801
" />
<path d="M102.9563 7.9453
L102.9563 6.6753
" />
<path d="M102.9563 6.6753
L103.5611 6.6753
" />
<path d="M104.0449 7.9453
L104.0449 6.6753
" />
<path d="M104.0449 7.2801
L104.7706 7.2801
" />
<path d="M104.7706 7.9453
L104.7706 6.6753
" />
<path d="M105.2545 6.6753
L106.0407 6.6753
" />
<path d="M106.0407 6.6753
L105.6173 7.1591
" />
<path d="M105.6173 7.1591
L105.7988 7.1591
" />
<path d="M105.7988 7.1591
L105.9197 7.2196
" />
<path d="M105.9197 7.2196
L105.9802 7.2801
" />
<path d="M105.9802 7.2801
L106.0407 7.4010
" />
<path d="M106.0407 7.4010
L106.0407 7.7034
" />
<path d="M106.0407 7.7034
L105.9802 7.8244
" />
<path d="M105.9802 7.8244
L105.9197 7.8849
" />
<path d="M105.9197 7.8849
L105.7988 7.9453
" />
<path d="M105.7988 7.9453
L105.4359 7.9453
" />
<path d="M105.4359 7.9453
L105.3150 7.8849
" />
<path d="M105.3150 7.8849
L105.2545 7.8244
" />
<path d="M106.8268 6.6753
L106.9478 6.6753
" />
<path d="M106.9478 6.6753
L107.0687 6.7358
" />
<path d="M107.0687 6.7358
L107.1292 6.7963
" />
<path d="M107.1292 6.7963
L107.1897 6.9172
" />
<path d="M107.1897 6.9172
L107.2502 7.1591
" />
<path d="M107.2502 7.1591
L107.2502 7.4615
" />
<path d="M107.2502 7.4615
L107.1897 7.7034
" />
<path d="M107.1897 7.7034
L107.1292 7.8244
" />
<path d="M107.1292 7.8244
L107.0687 7.8849
" />
<path d="M107.0687 7.8849
L106.9478 7.9453
" />
<path d="M106.9478 7.9453
L106.8268 7.9453
" />
<path d="M106.8268 7.9453
L106.7059 7.8849
" />
<path d="M106.7059 7.8849
L106.6454 7.8244
" />
<path d="M106.6454 7.8244
L106.5849 7.7034
" />
<path d="M106.5849 7.7034
L106.5245 7.4615
" />
<path d="M106.5245 7.4615
L106.5245 7.1591
" />
<path d="M106.5245 7.1591
L106.5849 6.9172
" />
<path d="M106.5849 6.9172
L106.6454 6.7963
" />
<path d="M106.6454 6.7963
L106.7059 6.7358
" />
<path d="M106.7059 6.7358
L106.8268 6.6753
" />
<path d="M107.8549 7.9453
L108.0968 7.9453
" />
<path d="M108.0968 7.9453
L108.2178 7.8849
" />
<path d="M108.2178 7.8849
L108.2782 7.8244
" />
<path d="M108.2782 7.8244
L108.3992 7.6429
" />
<path d="M108.3992 7.6429
L108.4597 7.4010
" />
<path d="M108.4597 7.4010
L108.4597 6.9172
" />
<path d="M108.4597 6.9172
L108.3992 6.7963
" />
<path d="M108.3992 6.7963
L108.3387 6.7358
" />
<path d="M108.3387 6.7358
L108.2178 6.6753
" />
<path d="M108.2178 6.6753
L107.9759 6.6753
" />
<path d="M107.9759 6.6753
L107.8549 6.7358
" />
<path d="M107.8549 6.7358
L107.7944 6.7963
" />
<path d="M107.7944 6.7963
L107.7340 6.9172
" />
<path d="M107.7340 6.9172
L107.7340 7.2196
" />
<path d="M107.7340 7.2196
L107.7944 7.3406
" />
<path d="M107.7944 7.3406
L107.8549 7.4010
" />
<path d="M107.8549 7.4010
L107.9759 7.4615
" />
<path d="M107.9759 7.4615
L108.2178 7.4615
" />
<path d="M108.2178 7.4615
L108.3387 7.4010
" />
<path d="M108.3387 7.4010
L108.3992 7.3406
" />
<path d="M108.3992 7.3406
L108.4597 7.2196
" />
</g></g>
<g style="fill:#840084; fill-opacity:0.0; 
stroke:#840084; stroke-width:0.1588; stroke-opacity:1; 
stroke-linecap:round; stroke-linejoin:round;">
<text x="108.4453" y="10.2871"
textLength="26.5293" font-size="1.6933" lengthAdjust="spacingAndGlyphs"
text-anchor="middle" opacity="0">LED_THT:LED_D3.0mm_Clear</text>
<g class="stroked-text"><desc>LED_THT:LED_D3.0mm_Clear</desc>
<path d="M96.1990 10.2313
L95.5942 10.2313
" />
<path d="M95.5942 10.2313
L95.5942 8.9613
" />
<path d="M96.6223 9.5661
L97.0457 9.5661
" />
<path d="M97.2271 10.2313
L96.6223 10.2313
" />
<path d="M96.6223 10.2313
L96.6223 8.9613
" />
<path d="M96.6223 8.9613
L97.2271 8.9613
" />
<path d="M97.7713 10.2313
L97.7713 8.9613
" />
<path d="M97.7713 8.9613
L98.0737 8.9613
" />
<path d="M98.0737 8.9613
L98.2551 9.0218
" />
<path d="M98.2551 9.0218
L98.3761 9.1428
" />
<path d="M98.3761 9.1428
L98.4366 9.2637
" />
<path d="M98.4366 9.2637
L98.4970 9.5056
" />
<path d="M98.4970 9.5056
L98.4970 9.6870
" />
<path d="M98.4970 9.6870
L98.4366 9.9289
" />
<path d="M98.4366 9.9289
L98.3761 10.0499
" />
<path d="M98.3761 10.0499
L98.2551 10.1709
" />
<path d="M98.2551 10.1709
L98.0737 10.2313
" />
<path d="M98.0737 10.2313
L97.7713 10.2313
" />
<path d="M98.7390 10.3523
L99.7066 10.3523
" />
<path d="M99.8275 8.9613
L100.5532 8.9613
" />
<path d="M100.1904 10.2313
L100.1904 8.9613
" />
<path d="M100.9765 10.2313
L100.9765 8.9613
" />
<path d="M100.9765 9.5661
L101.7022 9.5661
" />
<path d="M101.7022 10.2313
L101.7022 8.9613
" />
<path d="M102.1256 8.9613
L102.8513 8.9613
" />
<path d="M102.4885 10.2313
L102.4885 8.9613
" />
<path d="M103.2746 10.1104
L103.3351 10.1709
" />
<path d="M103.3351 10.1709
L103.2746 10.2313
" />
<path d="M103.2746 10.2313
L103.2142 10.1709
" />
<path d="M103.2142 10.1709
L103.2746 10.1104
" />
<path d="M103.2746 10.1104
L103.2746 10.2313
" />
<path d="M103.2746 9.4451
L103.3351 9.5056
" />
<path d="M103.3351 9.5056
L103.2746 9.5661
" />
<path d="M103.2746 9.5661
L103.2142 9.5056
" />
<path d="M103.2142 9.5056
L103.2746 9.4451
" />
<path d="M103.2746 9.4451
L103.2746 9.5661
" />
<path d="M104.4842 10.2313
L103.8794 10.2313
" />
<path d="M103.8794 10.2313
L103.8794 8.9613
" />
<path d="M104.9075 9.5661
L105.3309 9.5661
" />
<path d="M105.5123 10.2313
L104.9075 10.2313
" />
<path d="M104.9075 10.2313
L104.9075 8.9613
" />
<path d="M104.9075 8.9613
L105.5123 8.9613
" />
<path d="M106.0565 10.2313
L106.0565 8.9613
" />
<path d="M106.0565 8.9613
L106.3589 8.9613
" />
<path d="M106.3589 8.9613
L106.5403 9.0218
" />
<path d="M106.5403 9.0218
L106.6613 9.1428
" />
<path d="M106.6613 9.1428
L106.7218 9.2637
" />
<path d="M106.7218 9.2637
L106.7822 9.5056
" />
<path d="M106.7822 9.5056
L106.7822 9.6870
" />
<path d="M106.7822 9.6870
L106.7218 9.9289
" />
<path d="M106.7218 9.9289
L106.6613 10.0499
" />
<path d="M106.6613 10.0499
L106.5403 10.1709
" />
<path d="M106.5403 10.1709
L106.3589 10.2313
" />
<path d="M106.3589 10.2313
L106.0565 10.2313
" />
<path d="M107.0242 10.3523
L107.9918 10.3523
" />
<path d="M108.2941 10.2313
L108.2941 8.9613
" />
<path d="M108.2941 8.9613
L108.5965 8.9613
" />
<path d="M108.5965 8.9613
L108.7779 9.0218
" />
<path d="M108.7779 9.0218
L108.8989 9.1428
" />
<path d="M108.8989 9.1428
L108.9594 9.2637
" />
<path d="M108.9594 9.2637
L109.0198 9.5056
" />
<path d="M109.0198 9.5056
L109.0198 9.6870
" />
<path d="M109.0198 9.6870
L108.9594 9.9289
" />
<path d="M108.9594 9.9289
L108.8989 10.0499
" />
<path d="M108.8989 10.0499
L108.7779 10.1709
" />
<path d="M108.7779 10.1709
L108.5965 10.2313
" />
<path d="M108.5965 10.2313
L108.2941 10.2313
" />
<path d="M109.4432 8.9613
L110.2294 8.9613
" />
<path d="M110.2294 8.9613
L109.8060 9.4451
" />
<path d="M109.8060 9.4451
L109.9875 9.4451
" />
<path d="M109.9875 9.4451
L110.1084 9.5056
" />
<path d="M110.1084 9.5056
L110.1689 9.5661
" />
<path d="M110.1689 9.5661
L110.2294 9.6870
" />
<path d="M110.2294 9.6870
L110.2294 9.9894
" />
<path d="M110.2294 9.9894
L110.1689 10.1104
" />
<path d="M110.1689 10.1104
L110.1084 10.1709
" />
<path d="M110.1084 10.1709
L109.9875 10.2313
" />
<path d="M109.9875 10.2313
L109.6246 10.2313
" />
<path d="M109.6246 10.2313
L109.5037 10.1709
" />
<path d="M109.5037 10.1709
L109.4432 10.1104
" />
<path d="M110.7736 10.1104
L110.8341 10.1709
" />
<path d="M110.8341 10.1709
L110.7736 10.2313
" />
<path d="M110.7736 10.2313
L110.7132 10.1709
" />
<path d="M110.7132 10.1709
L110.7736 10.1104
" />
<path d="M110.7736 10.1104
L110.7736 10.2313
" />
<path d="M111.6203 8.9613
L111.7413 8.9613
" />
<path d="M111.7413 8.9613
L111.8622 9.0218
" />
<path d="M111.8622 9.0218
L111.9227 9.0823
" />
<path d="M111.9227 9.0823
L111.9832 9.2032
" />
<path d="M111.9832 9.2032
L112.0437 9.4451
" />
<path d="M112.0437 9.4451
L112.0437 9.7475
" />
<path d="M112.0437 9.7475
L111.9832 9.9894
" />
<path d="M111.9832 9.9894
L111.9227 10.1104
" />
<path d="M111.9227 10.1104
L111.8622 10.1709
" />
<path d="M111.8622 10.1709
L111.7413 10.2313
" />
<path d="M111.7413 10.2313
L111.6203 10.2313
" />
<path d="M111.6203 10.2313
L111.4994 10.1709
" />
<path d="M111.4994 10.1709
L111.4389 10.1104
" />
<path d="M111.4389 10.1104
L111.3784 9.9894
" />
<path d="M111.3784 9.9894
L111.3180 9.7475
" />
<path d="M111.3180 9.7475
L111.3180 9.4451
" />
<path d="M111.3180 9.4451
L111.3784 9.2032
" />
<path d="M111.3784 9.2032
L111.4389 9.0823
" />
<path d="M111.4389 9.0823
L111.4994 9.0218
" />
<path d="M111.4994 9.0218
L111.6203 8.9613
" />
<path d="M112.5879 10.2313
L112.5879 9.3847
" />
<path d="M112.5879 9.5056
L112.6484 9.4451
" />
<path d="M112.6484 9.4451
L112.7694 9.3847
" />
<path d="M112.7694 9.3847
L112.9508 9.3847
" />
<path d="M112.9508 9.3847
L113.0717 9.4451
" />
<path d="M113.0717 9.4451
L113.1322 9.5661
" />
<path d="M113.1322 9.5661
L113.1322 10.2313
" />
<path d="M113.1322 9.5661
L113.1927 9.4451
" />
<path d="M113.1927 9.4451
L113.3136 9.3847
" />
<path d="M113.3136 9.3847
L113.4951 9.3847
" />
<path d="M113.4951 9.3847
L113.6160 9.4451
" />
<path d="M113.6160 9.4451
L113.6765 9.5661
" />
<path d="M113.6765 9.5661
L113.6765 10.2313
" />
<path d="M114.2812 10.2313
L114.2812 9.3847
" />
<path d="M114.2812 9.5056
L114.3417 9.4451
" />
<path d="M114.3417 9.4451
L114.4627 9.3847
" />
<path d="M114.4627 9.3847
L114.6441 9.3847
" />
<path d="M114.6441 9.3847
L114.7650 9.4451
" />
<path d="M114.7650 9.4451
L114.8255 9.5661
" />
<path d="M114.8255 9.5661
L114.8255 10.2313
" />
<path d="M114.8255 9.5661
L114.8860 9.4451
" />
<path d="M114.8860 9.4451
L115.0069 9.3847
" />
<path d="M115.0069 9.3847
L115.1884 9.3847
" />
<path d="M115.1884 9.3847
L115.3093 9.4451
" />
<path d="M115.3093 9.4451
L115.3698 9.5661
" />
<path d="M115.3698 9.5661
L115.3698 10.2313
" />
<path d="M115.6722 10.3523
L116.6398 10.3523
" />
<path d="M117.6678 10.1104
L117.6074 10.1709
" />
<path d="M117.6074 10.1709
L117.4259 10.2313
" />
<path d="M117.4259 10.2313
L117.3050 10.2313
" />
<path d="M117.3050 10.2313
L117.1236 10.1709
" />
<path d="M117.1236 10.1709
L117.0026 10.0499
" />
<path d="M117.0026 10.0499
L116.9421 9.9289
" />
<path d="M116.9421 9.9289
L116.8817 9.6870
" />
<path d="M116.8817 9.6870
L116.8817 9.5056
" />
<path d="M116.8817 9.5056
L116.9421 9.2637
" />
<path d="M116.9421 9.2637
L117.0026 9.1428
" />
<path d="M117.0026 9.1428
L117.1236 9.0218
" />
<path d="M117.1236 9.0218
L117.3050 8.9613
" />
<path d="M117.3050 8.9613
L117.4259 8.9613
" />
<path d="M117.4259 8.9613
L117.6074 9.0218
" />
<path d="M117.6074 9.0218
L117.6678 9.0823
" />
<path d="M118.3936 10.2313
L118.2726 10.1709
" />
<path d="M118.2726 10.1709
L118.2121 10.0499
" />
<path d="M118.2121 10.0499
L118.2121 8.9613
" />
<path d="M119.3611 10.1709
L119.2402 10.2313
" />
<path d="M119.2402 10.2313
L118.9983 10.2313
" />
<path d="M118.9983 10.2313
L118.8773 10.1709
" />
<path d="M118.8773 10.1709
L118.8169 10.0499
" />
<path d="M118.8169 10.0499
L118.8169 9.5661
" />
<path d="M118.8169 9.5661
L118.8773 9.4451
" />
<path d="M118.8773 9.4451
L118.9983 9.3847
" />
<path d="M118.9983 9.3847
L119.2402 9.3847
" />
<path d="M119.2402 9.3847
L119.3611 9.4451
" />
<path d="M119.3611 9.4451
L119.4216 9.5661
" />
<path d="M119.4216 9.5661
L119.4216 9.6870
" />
<path d="M119.4216 9.6870
L118.8169 9.8080
" />
<path d="M120.5102 10.2313
L120.5102 9.5661
" />
<path d="M120.5102 9.5661
L120.4497 9.4451
" />
<path d="M120.4497 9.4451
L120.3288 9.3847
" />
<path d="M120.3288 9.3847
L120.0869 9.3847
" />
<path d="M120.0869 9.3847
L119.9659 9.4451
" />
<path d="M120.5102 10.1709
L120.3893 10.2313
" />
<path d="M120.3893 10.2313
L120.0869 10.2313
" />
<path d="M120.0869 10.2313
L119.9659 10.1709
" />
<path d="M119.9659 10.1709
L119.9055 10.0499
" />
<path d="M119.9055 10.0499
L119.9055 9.9289
" />
<path d="M119.9055 9.9289
L119.9659 9.8080
" />
<path d="M119.9659 9.8080
L120.0869 9.7475
" />
<path d="M120.0869 9.7475
L120.3893 9.7475
" />
<path d="M120.3893 9.7475
L120.5102 9.6870
" />
<path d="M121.1149 10.2313
L121.1149 9.3847
" />
<path d="M121.1149 9.6266
L121.1754 9.5056
" />
<path d="M121.1754 9.5056
L121.2359 9.4451
" />
<path d="M121.2359 9.4451
L121.3568 9.3847
" />
<path d="M121.3568 9.3847
L121.4778 9.3847
" />
</g><text x="96.2533" y="6.7311"
textLength="160.4223" font-size="1.6933" lengthAdjust="spacingAndGlyphs"
text-anchor="middle" opacity="0">http://www.osram-os.com/Graphics/XPic2/00101811_0.pdf/SFH%20309,%20SFH%20309%20FA,%20Lead%20(Pb)%20Free%20Product%20-%20RoHS%20Compliant.pdf</text>
<g class="stroked-text"><desc>http://www.osram-os.com/Graphics/XPic2/00101811_0.pdf/SFH%20309,%20SFH%20309%20FA,%20Lead%20(Pb)%20Free%20Product%20-%20RoHS%20Compliant.pdf</desc>
<path d="M16.4557 6.6753
L16.4557 5.4053
" />
<path d="M17.0000 6.6753
L17.0000 6.0101
" />
<path d="M17.0000 6.0101
L16.9395 5.8891
" />
<path d="M16.9395 5.8891
L16.8186 5.8287
" />
<path d="M16.8186 5.8287
L16.6372 5.8287
" />
<path d="M16.6372 5.8287
L16.5162 5.8891
" />
<path d="M16.5162 5.8891
L16.4557 5.9496
" />
<path d="M17.4233 5.8287
L17.9071 5.8287
" />
<path d="M17.6047 5.4053
L17.6047 6.4939
" />
<path d="M17.6047 6.4939
L17.6652 6.6149
" />
<path d="M17.6652 6.6149
L17.7862 6.6753
" />
<path d="M17.7862 6.6753
L17.9071 6.6753
" />
<path d="M18.1490 5.8287
L18.6328 5.8287
" />
<path d="M18.3304 5.4053
L18.3304 6.4939
" />
<path d="M18.3304 6.4939
L18.3909 6.6149
" />
<path d="M18.3909 6.6149
L18.5119 6.6753
" />
<path d="M18.5119 6.6753
L18.6328 6.6753
" />
<path d="M19.0561 5.8287
L19.0561 7.0987
" />
<path d="M19.0561 5.8891
L19.1771 5.8287
" />
<path d="M19.1771 5.8287
L19.4190 5.8287
" />
<path d="M19.4190 5.8287
L19.5399 5.8891
" />
<path d="M19.5399 5.8891
L19.6004 5.9496
" />
<path d="M19.6004 5.9496
L19.6609 6.0706
" />
<path d="M19.6609 6.0706
L19.6609 6.4334
" />
<path d="M19.6609 6.4334
L19.6004 6.5544
" />
<path d="M19.6004 6.5544
L19.5399 6.6149
" />
<path d="M19.5399 6.6149
L19.4190 6.6753
" />
<path d="M19.4190 6.6753
L19.1771 6.6753
" />
<path d="M19.1771 6.6753
L19.0561 6.6149
" />
<path d="M20.2051 6.5544
L20.2656 6.6149
" />
<path d="M20.2656 6.6149
L20.2051 6.6753
" />
<path d="M20.2051 6.6753
L20.1447 6.6149
" />
<path d="M20.1447 6.6149
L20.2051 6.5544
" />
<path d="M20.2051 6.5544
L20.2051 6.6753
" />
<path d="M20.2051 5.8891
L20.2656 5.9496
" />
<path d="M20.2656 5.9496
L20.2051 6.0101
" />
<path d="M20.2051 6.0101
L20.1447 5.9496
" />
<path d="M20.1447 5.9496
L20.2051 5.8891
" />
<path d="M20.2051 5.8891
L20.2051 6.0101
" />
<path d="M21.7171 5.3449
L20.6285 6.9777
" />
<path d="M23.0476 5.3449
L21.9590 6.9777
" />
<path d="M23.3500 5.8287
L23.5919 6.6753
" />
<path d="M23.5919 6.6753
L23.8338 6.0706
" />
<path d="M23.8338 6.0706
L24.0757 6.6753
" />
<path d="M24.0757 6.6753
L24.3176 5.8287
" />
<path d="M24.6805 5.8287
L24.9224 6.6753
" />
<path d="M24.9224 6.6753
L25.1643 6.0706
" />
<path d="M25.1643 6.0706
L25.4062 6.6753
" />
<path d="M25.4062 6.6753
L25.6481 5.8287
" />
<path d="M26.0110 5.8287
L26.2529 6.6753
" />
<path d="M26.2529 6.6753
L26.4948 6.0706
" />
<path d="M26.4948 6.0706
L26.7367 6.6753
" />
<path d="M26.7367 6.6753
L26.9786 5.8287
" />
<path d="M27.4624 6.5544
L27.5229 6.6149
" />
<path d="M27.5229 6.6149
L27.4624 6.6753
" />
<path d="M27.4624 6.6753
L27.4020 6.6149
" />
<path d="M27.4020 6.6149
L27.4624 6.5544
" />
<path d="M27.4624 6.5544
L27.4624 6.6753
" />
<path d="M28.2487 6.6753
L28.1277 6.6149
" />
<path d="M28.1277 6.6149
L28.0672 6.5544
" />
<path d="M28.0672 6.5544
L28.0068 6.4334
" />
<path d="M28.0068 6.4334
L28.0068 6.0706
" />
<path d="M28.0068 6.0706
L28.0672 5.9496
" />
<path d="M28.0672 5.9496
L28.1277 5.8891
" />
<path d="M28.1277 5.8891
L28.2487 5.8287
" />
<path d="M28.2487 5.8287
L28.4301 5.8287
" />
<path d="M28.4301 5.8287
L28.5510 5.8891
" />
<path d="M28.5510 5.8891
L28.6115 5.9496
" />
<path d="M28.6115 5.9496
L28.6720 6.0706
" />
<path d="M28.6720 6.0706
L28.6720 6.4334
" />
<path d="M28.6720 6.4334
L28.6115 6.5544
" />
<path d="M28.6115 6.5544
L28.5510 6.6149
" />
<path d="M28.5510 6.6149
L28.4301 6.6753
" />
<path d="M28.4301 6.6753
L28.2487 6.6753
" />
<path d="M29.1558 6.6149
L29.2767 6.6753
" />
<path d="M29.2767 6.6753
L29.5186 6.6753
" />
<path d="M29.5186 6.6753
L29.6396 6.6149
" />
<path d="M29.6396 6.6149
L29.7000 6.4939
" />
<path d="M29.7000 6.4939
L29.7000 6.4334
" />
<path d="M29.7000 6.4334
L29.6396 6.3125
" />
<path d="M29.6396 6.3125
L29.5186 6.2520
" />
<path d="M29.5186 6.2520
L29.3372 6.2520
" />
<path d="M29.3372 6.2520
L29.2162 6.1915
" />
<path d="M29.2162 6.1915
L29.1558 6.0706
" />
<path d="M29.1558 6.0706
L29.1558 6.0101
" />
<path d="M29.1558 6.0101
L29.2162 5.8891
" />
<path d="M29.2162 5.8891
L29.3372 5.8287
" />
<path d="M29.3372 5.8287
L29.5186 5.8287
" />
<path d="M29.5186 5.8287
L29.6396 5.8891
" />
<path d="M30.2443 6.6753
L30.2443 5.8287
" />
<path d="M30.2443 6.0706
L30.3048 5.9496
" />
<path d="M30.3048 5.9496
L30.3653 5.8891
" />
<path d="M30.3653 5.8891
L30.4862 5.8287
" />
<path d="M30.4862 5.8287
L30.6072 5.8287
" />
<path d="M31.5748 6.6753
L31.5748 6.0101
" />
<path d="M31.5748 6.0101
L31.5143 5.8891
" />
<path d="M31.5143 5.8891
L31.3934 5.8287
" />
<path d="M31.3934 5.8287
L31.1515 5.8287
" />
<path d="M31.1515 5.8287
L31.0305 5.8891
" />
<path d="M31.5748 6.6149
L31.4539 6.6753
" />
<path d="M31.4539 6.6753
L31.1515 6.6753
" />
<path d="M31.1515 6.6753
L31.0305 6.6149
" />
<path d="M31.0305 6.6149
L30.9701 6.4939
" />
<path d="M30.9701 6.4939
L30.9701 6.3729
" />
<path d="M30.9701 6.3729
L31.0305 6.2520
" />
<path d="M31.0305 6.2520
L31.1515 6.1915
" />
<path d="M31.1515 6.1915
L31.4539 6.1915
" />
<path d="M31.4539 6.1915
L31.5748 6.1310
" />
<path d="M32.1795 6.6753
L32.1795 5.8287
" />
<path d="M32.1795 5.9496
L32.2400 5.8891
" />
<path d="M32.2400 5.8891
L32.3610 5.8287
" />
<path d="M32.3610 5.8287
L32.5424 5.8287
" />
<path d="M32.5424 5.8287
L32.6633 5.8891
" />
<path d="M32.6633 5.8891
L32.7238 6.0101
" />
<path d="M32.7238 6.0101
L32.7238 6.6753
" />
<path d="M32.7238 6.0101
L32.7843 5.8891
" />
<path d="M32.7843 5.8891
L32.9052 5.8287
" />
<path d="M32.9052 5.8287
L33.0867 5.8287
" />
<path d="M33.0867 5.8287
L33.2076 5.8891
" />
<path d="M33.2076 5.8891
L33.2681 6.0101
" />
<path d="M33.2681 6.0101
L33.2681 6.6753
" />
<path d="M33.8728 6.1915
L34.8405 6.1915
" />
<path d="M35.6267 6.6753
L35.5057 6.6149
" />
<path d="M35.5057 6.6149
L35.4452 6.5544
" />
<path d="M35.4452 6.5544
L35.3848 6.4334
" />
<path d="M35.3848 6.4334
L35.3848 6.0706
" />
<path d="M35.3848 6.0706
L35.4452 5.9496
" />
<path d="M35.4452 5.9496
L35.5057 5.8891
" />
<path d="M35.5057 5.8891
L35.6267 5.8287
" />
<path d="M35.6267 5.8287
L35.8081 5.8287
" />
<path d="M35.8081 5.8287
L35.9290 5.8891
" />
<path d="M35.9290 5.8891
L35.9895 5.9496
" />
<path d="M35.9895 5.9496
L36.0500 6.0706
" />
<path d="M36.0500 6.0706
L36.0500 6.4334
" />
<path d="M36.0500 6.4334
L35.9895 6.5544
" />
<path d="M35.9895 6.5544
L35.9290 6.6149
" />
<path d="M35.9290 6.6149
L35.8081 6.6753
" />
<path d="M35.8081 6.6753
L35.6267 6.6753
" />
<path d="M36.5338 6.6149
L36.6547 6.6753
" />
<path d="M36.6547 6.6753
L36.8966 6.6753
" />
<path d="M36.8966 6.6753
L37.0176 6.6149
" />
<path d="M37.0176 6.6149
L37.0780 6.4939
" />
<path d="M37.0780 6.4939
L37.0780 6.4334
" />
<path d="M37.0780 6.4334
L37.0176 6.3125
" />
<path d="M37.0176 6.3125
L36.8966 6.2520
" />
<path d="M36.8966 6.2520
L36.7152 6.2520
" />
<path d="M36.7152 6.2520
L36.5942 6.1915
" />
<path d="M36.5942 6.1915
L36.5338 6.0706
" />
<path d="M36.5338 6.0706
L36.5338 6.0101
" />
<path d="M36.5338 6.0101
L36.5942 5.8891
" />
<path d="M36.5942 5.8891
L36.7152 5.8287
" />
<path d="M36.7152 5.8287
L36.8966 5.8287
" />
<path d="M36.8966 5.8287
L37.0176 5.8891
" />
<path d="M37.6223 6.5544
L37.6828 6.6149
" />
<path d="M37.6828 6.6149
L37.6223 6.6753
" />
<path d="M37.6223 6.6753
L37.5619 6.6149
" />
<path d="M37.5619 6.6149
L37.6223 6.5544
" />
<path d="M37.6223 6.5544
L37.6223 6.6753
" />
<path d="M38.7714 6.6149
L38.6505 6.6753
" />
<path d="M38.6505 6.6753
L38.4086 6.6753
" />
<path d="M38.4086 6.6753
L38.2876 6.6149
" />
<path d="M38.2876 6.6149
L38.2271 6.5544
" />
<path d="M38.2271 6.5544
L38.1667 6.4334
" />
<path d="M38.1667 6.4334
L38.1667 6.0706
" />
<path d="M38.1667 6.0706
L38.2271 5.9496
" />
<path d="M38.2271 5.9496
L38.2876 5.8891
" />
<path d="M38.2876 5.8891
L38.4086 5.8287
" />
<path d="M38.4086 5.8287
L38.6505 5.8287
" />
<path d="M38.6505 5.8287
L38.7714 5.8891
" />
<path d="M39.4972 6.6753
L39.3762 6.6149
" />
<path d="M39.3762 6.6149
L39.3157 6.5544
" />
<path d="M39.3157 6.5544
L39.2553 6.4334
" />
<path d="M39.2553 6.4334
L39.2553 6.0706
" />
<path d="M39.2553 6.0706
L39.3157 5.9496
" />
<path d="M39.3157 5.9496
L39.3762 5.8891
" />
<path d="M39.3762 5.8891
L39.4972 5.8287
" />
<path d="M39.4972 5.8287
L39.6786 5.8287
" />
<path d="M39.6786 5.8287
L39.7995 5.8891
" />
<path d="M39.7995 5.8891
L39.8600 5.9496
" />
<path d="M39.8600 5.9496
L39.9205 6.0706
" />
<path d="M39.9205 6.0706
L39.9205 6.4334
" />
<path d="M39.9205 6.4334
L39.8600 6.5544
" />
<path d="M39.8600 6.5544
L39.7995 6.6149
" />
<path d="M39.7995 6.6149
L39.6786 6.6753
" />
<path d="M39.6786 6.6753
L39.4972 6.6753
" />
<path d="M40.4647 6.6753
L40.4647 5.8287
" />
<path d="M40.4647 5.9496
L40.5252 5.8891
" />
<path d="M40.5252 5.8891
L40.6462 5.8287
" />
<path d="M40.6462 5.8287
L40.8276 5.8287
" />
<path d="M40.8276 5.8287
L40.9485 5.8891
" />
<path d="M40.9485 5.8891
L41.0090 6.0101
" />
<path d="M41.0090 6.0101
L41.0090 6.6753
" />
<path d="M41.0090 6.0101
L41.0695 5.8891
" />
<path d="M41.0695 5.8891
L41.1904 5.8287
" />
<path d="M41.1904 5.8287
L41.3719 5.8287
" />
<path d="M41.3719 5.8287
L41.4928 5.8891
" />
<path d="M41.4928 5.8891
L41.5533 6.0101
" />
<path d="M41.5533 6.0101
L41.5533 6.6753
" />
<path d="M43.0652 5.3449
L41.9766 6.9777
" />
<path d="M44.1538 5.4658
L44.0328 5.4053
" />
<path d="M44.0328 5.4053
L43.8514 5.4053
" />
<path d="M43.8514 5.4053
L43.6700 5.4658
" />
<path d="M43.6700 5.4658
L43.5490 5.5868
" />
<path d="M43.5490 5.5868
L43.4885 5.7077
" />
<path d="M43.4885 5.7077
L43.4281 5.9496
" />
<path d="M43.4281 5.9496
L43.4281 6.1310
" />
<path d="M43.4281 6.1310
L43.4885 6.3729
" />
<path d="M43.4885 6.3729
L43.5490 6.4939
" />
<path d="M43.5490 6.4939
L43.6700 6.6149
" />
<path d="M43.6700 6.6149
L43.8514 6.6753
" />
<path d="M43.8514 6.6753
L43.9723 6.6753
" />
<path d="M43.9723 6.6753
L44.1538 6.6149
" />
<path d="M44.1538 6.6149
L44.2142 6.5544
" />
<path d="M44.2142 6.5544
L44.2142 6.1310
" />
<path d="M44.2142 6.1310
L43.9723 6.1310
" />
<path d="M44.7585 6.6753
L44.7585 5.8287
" />
<path d="M44.7585 6.0706
L44.8190 5.9496
" />
<path d="M44.8190 5.9496
L44.8795 5.8891
" />
<path d="M44.8795 5.8891
L45.0004 5.8287
" />
<path d="M45.0004 5.8287
L45.1214 5.8287
" />
<path d="M46.0890 6.6753
L46.0890 6.0101
" />
<path d="M46.0890 6.0101
L46.0285 5.8891
" />
<path d="M46.0285 5.8891
L45.9076 5.8287
" />
<path d="M45.9076 5.8287
L45.6657 5.8287
" />
<path d="M45.6657 5.8287
L45.5447 5.8891
" />
<path d="M46.0890 6.6149
L45.9681 6.6753
" />
<path d="M45.9681 6.6753
L45.6657 6.6753
" />
<path d="M45.6657 6.6753
L45.5447 6.6149
" />
<path d="M45.5447 6.6149
L45.4843 6.4939
" />
<path d="M45.4843 6.4939
L45.4843 6.3729
" />
<path d="M45.4843 6.3729
L45.5447 6.2520
" />
<path d="M45.5447 6.2520
L45.6657 6.1915
" />
<path d="M45.6657 6.1915
L45.9681 6.1915
" />
<path d="M45.9681 6.1915
L46.0890 6.1310
" />
<path d="M46.6937 5.8287
L46.6937 7.0987
" />
<path d="M46.6937 5.8891
L46.8147 5.8287
" />
<path d="M46.8147 5.8287
L47.0566 5.8287
" />
<path d="M47.0566 5.8287
L47.1775 5.8891
" />
<path d="M47.1775 5.8891
L47.2380 5.9496
" />
<path d="M47.2380 5.9496
L47.2985 6.0706
" />
<path d="M47.2985 6.0706
L47.2985 6.4334
" />
<path d="M47.2985 6.4334
L47.2380 6.5544
" />
<path d="M47.2380 6.5544
L47.1775 6.6149
" />
<path d="M47.1775 6.6149
L47.0566 6.6753
" />
<path d="M47.0566 6.6753
L46.8147 6.6753
" />
<path d="M46.8147 6.6753
L46.6937 6.6149
" />
<path d="M47.8427 6.6753
L47.8427 5.4053
" />
<path d="M48.3870 6.6753
L48.3870 6.0101
" />
<path d="M48.3870 6.0101
L48.3265 5.8891
" />
<path d="M48.3265 5.8891
L48.2056 5.8287
" />
<path d="M48.2056 5.8287
L48.0242 5.8287
" />
<path d="M48.0242 5.8287
L47.9032 5.8891
" />
<path d="M47.9032 5.8891
L47.8427 5.9496
" />
<path d="M48.9917 6.6753
L48.9917 5.8287
" />
<path d="M48.9917 5.4053
L48.9313 5.4658
" />
<path d="M48.9313 5.4658
L48.9917 5.5263
" />
<path d="M48.9917 5.5263
L49.0522 5.4658
" />
<path d="M49.0522 5.4658
L48.9917 5.4053
" />
<path d="M48.9917 5.4053
L48.9917 5.5263
" />
<path d="M50.1408 6.6149
L50.0199 6.6753
" />
<path d="M50.0199 6.6753
L49.7780 6.6753
" />
<path d="M49.7780 6.6753
L49.6570 6.6149
" />
<path d="M49.6570 6.6149
L49.5965 6.5544
" />
<path d="M49.5965 6.5544
L49.5361 6.4334
" />
<path d="M49.5361 6.4334
L49.5361 6.0706
" />
<path d="M49.5361 6.0706
L49.5965 5.9496
" />
<path d="M49.5965 5.9496
L49.6570 5.8891
" />
<path d="M49.6570 5.8891
L49.7780 5.8287
" />
<path d="M49.7780 5.8287
L50.0199 5.8287
" />
<path d="M50.0199 5.8287
L50.1408 5.8891
" />
<path d="M50.6247 6.6149
L50.7456 6.6753
" />
<path d="M50.7456 6.6753
L50.9875 6.6753
" />
<path d="M50.9875 6.6753
L51.1085 6.6149
" />
<path d="M51.1085 6.6149
L51.1689 6.4939
" />
<path d="M51.1689 6.4939
L51.1689 6.4334
" />
<path d="M51.1689 6.4334
L51.1085 6.3125
" />
<path d="M51.1085 6.3125
L50.9875 6.2520
" />
<path d="M50.9875 6.2520
L50.8061 6.2520
" />
<path d="M50.8061 6.2520
L50.6851 6.1915
" />
<path d="M50.6851 6.1915
L50.6247 6.0706
" />
<path d="M50.6247 6.0706
L50.6247 6.0101
" />
<path d="M50.6247 6.0101
L50.6851 5.8891
" />
<path d="M50.6851 5.8891
L50.8061 5.8287
" />
<path d="M50.8061 5.8287
L50.9875 5.8287
" />
<path d="M50.9875 5.8287
L51.1085 5.8891
" />
<path d="M52.6204 5.3449
L51.5318 6.9777
" />
<path d="M52.9228 5.4053
L53.7694 6.6753
" />
<path d="M53.7694 5.4053
L52.9228 6.6753
" />
<path d="M54.2532 6.6753
L54.2532 5.4053
" />
<path d="M54.2532 5.4053
L54.7370 5.4053
" />
<path d="M54.7370 5.4053
L54.8580 5.4658
" />
<path d="M54.8580 5.4658
L54.9185 5.5263
" />
<path d="M54.9185 5.5263
L54.9789 5.6472
" />
<path d="M54.9789 5.6472
L54.9789 5.8287
" />
<path d="M54.9789 5.8287
L54.9185 5.9496
" />
<path d="M54.9185 5.9496
L54.8580 6.0101
" />
<path d="M54.8580 6.0101
L54.7370 6.0706
" />
<path d="M54.7370 6.0706
L54.2532 6.0706
" />
<path d="M55.5232 6.6753
L55.5232 5.8287
" />
<path d="M55.5232 5.4053
L55.4628 5.4658
" />
<path d="M55.4628 5.4658
L55.5232 5.5263
" />
<path d="M55.5232 5.5263
L55.5837 5.4658
" />
<path d="M55.5837 5.4658
L55.5232 5.4053
" />
<path d="M55.5232 5.4053
L55.5232 5.5263
" />
<path d="M56.6723 6.6149
L56.5514 6.6753
" />
<path d="M56.5514 6.6753
L56.3095 6.6753
" />
<path d="M56.3095 6.6753
L56.1885 6.6149
" />
<path d="M56.1885 6.6149
L56.1280 6.5544
" />
<path d="M56.1280 6.5544
L56.0676 6.4334
" />
<path d="M56.0676 6.4334
L56.0676 6.0706
" />
<path d="M56.0676 6.0706
L56.1280 5.9496
" />
<path d="M56.1280 5.9496
L56.1885 5.8891
" />
<path d="M56.1885 5.8891
L56.3095 5.8287
" />
<path d="M56.3095 5.8287
L56.5514 5.8287
" />
<path d="M56.5514 5.8287
L56.6723 5.8891
" />
<path d="M57.1562 5.5263
L57.2166 5.4658
" />
<path d="M57.2166 5.4658
L57.3376 5.4053
" />
<path d="M57.3376 5.4053
L57.6400 5.4053
" />
<path d="M57.6400 5.4053
L57.7609 5.4658
" />
<path d="M57.7609 5.4658
L57.8214 5.5263
" />
<path d="M57.8214 5.5263
L57.8819 5.6472
" />
<path d="M57.8819 5.6472
L57.8819 5.7682
" />
<path d="M57.8819 5.7682
L57.8214 5.9496
" />
<path d="M57.8214 5.9496
L57.0957 6.6753
" />
<path d="M57.0957 6.6753
L57.8819 6.6753
" />
<path d="M59.3333 5.3449
L58.2447 6.9777
" />
<path d="M59.9985 5.4053
L60.1195 5.4053
" />
<path d="M60.1195 5.4053
L60.2404 5.4658
" />
<path d="M60.2404 5.4658
L60.3009 5.5263
" />
<path d="M60.3009 5.5263
L60.3614 5.6472
" />
<path d="M60.3614 5.6472
L60.4219 5.8891
" />
<path d="M60.4219 5.8891
L60.4219 6.1915
" />
<path d="M60.4219 6.1915
L60.3614 6.4334
" />
<path d="M60.3614 6.4334
L60.3009 6.5544
" />
<path d="M60.3009 6.5544
L60.2404 6.6149
" />
<path d="M60.2404 6.6149
L60.1195 6.6753
" />
<path d="M60.1195 6.6753
L59.9985 6.6753
" />
<path d="M59.9985 6.6753
L59.8776 6.6149
" />
<path d="M59.8776 6.6149
L59.8171 6.5544
" />
<path d="M59.8171 6.5544
L59.7566 6.4334
" />
<path d="M59.7566 6.4334
L59.6962 6.1915
" />
<path d="M59.6962 6.1915
L59.6962 5.8891
" />
<path d="M59.6962 5.8891
L59.7566 5.6472
" />
<path d="M59.7566 5.6472
L59.8171 5.5263
" />
<path d="M59.8171 5.5263
L59.8776 5.4658
" />
<path d="M59.8776 5.4658
L59.9985 5.4053
" />
<path d="M61.2080 5.4053
L61.3290 5.4053
" />
<path d="M61.3290 5.4053
L61.4499 5.4658
" />
<path d="M61.4499 5.4658
L61.5104 5.5263
" />
<path d="M61.5104 5.5263
L61.5709 5.6472
" />
<path d="M61.5709 5.6472
L61.6314 5.8891
" />
<path d="M61.6314 5.8891
L61.6314 6.1915
" />
<path d="M61.6314 6.1915
L61.5709 6.4334
" />
<path d="M61.5709 6.4334
L61.5104 6.5544
" />
<path d="M61.5104 6.5544
L61.4499 6.6149
" />
<path d="M61.4499 6.6149
L61.3290 6.6753
" />
<path d="M61.3290 6.6753
L61.2080 6.6753
" />
<path d="M61.2080 6.6753
L61.0871 6.6149
" />
<path d="M61.0871 6.6149
L61.0266 6.5544
" />
<path d="M61.0266 6.5544
L60.9661 6.4334
" />
<path d="M60.9661 6.4334
L60.9057 6.1915
" />
<path d="M60.9057 6.1915
L60.9057 5.8891
" />
<path d="M60.9057 5.8891
L60.9661 5.6472
" />
<path d="M60.9661 5.6472
L61.0266 5.5263
" />
<path d="M61.0266 5.5263
L61.0871 5.4658
" />
<path d="M61.0871 5.4658
L61.2080 5.4053
" />
<path d="M62.8409 6.6753
L62.1152 6.6753
" />
<path d="M62.4780 6.6753
L62.4780 5.4053
" />
<path d="M62.4780 5.4053
L62.3571 5.5868
" />
<path d="M62.3571 5.5868
L62.2361 5.7077
" />
<path d="M62.2361 5.7077
L62.1152 5.7682
" />
<path d="M63.6270 5.4053
L63.7480 5.4053
" />
<path d="M63.7480 5.4053
L63.8689 5.4658
" />
<path d="M63.8689 5.4658
L63.9294 5.5263
" />
<path d="M63.9294 5.5263
L63.9899 5.6472
" />
<path d="M63.9899 5.6472
L64.0504 5.8891
" />
<path d="M64.0504 5.8891
L64.0504 6.1915
" />
<path d="M64.0504 6.1915
L63.9899 6.4334
" />
<path d="M63.9899 6.4334
L63.9294 6.5544
" />
<path d="M63.9294 6.5544
L63.8689 6.6149
" />
<path d="M63.8689 6.6149
L63.7480 6.6753
" />
<path d="M63.7480 6.6753
L63.6270 6.6753
" />
<path d="M63.6270 6.6753
L63.5061 6.6149
" />
<path d="M63.5061 6.6149
L63.4456 6.5544
" />
<path d="M63.4456 6.5544
L63.3851 6.4334
" />
<path d="M63.3851 6.4334
L63.3247 6.1915
" />
<path d="M63.3247 6.1915
L63.3247 5.8891
" />
<path d="M63.3247 5.8891
L63.3851 5.6472
" />
<path d="M63.3851 5.6472
L63.4456 5.5263
" />
<path d="M63.4456 5.5263
L63.5061 5.4658
" />
<path d="M63.5061 5.4658
L63.6270 5.4053
" />
<path d="M65.2599 6.6753
L64.5342 6.6753
" />
<path d="M64.8970 6.6753
L64.8970 5.4053
" />
<path d="M64.8970 5.4053
L64.7761 5.5868
" />
<path d="M64.7761 5.5868
L64.6551 5.7077
" />
<path d="M64.6551 5.7077
L64.5342 5.7682
" />
<path d="M65.9856 5.9496
L65.8646 5.8891
" />
<path d="M65.8646 5.8891
L65.8041 5.8287
" />
<path d="M65.8041 5.8287
L65.7437 5.7077
" />
<path d="M65.7437 5.7077
L65.7437 5.6472
" />
<path d="M65.7437 5.6472
L65.8041 5.5263
" />
<path d="M65.8041 5.5263
L65.8646 5.4658
" />
<path d="M65.8646 5.4658
L65.9856 5.4053
" />
<path d="M65.9856 5.4053
L66.2275 5.4053
" />
<path d="M66.2275 5.4053
L66.3484 5.4658
" />
<path d="M66.3484 5.4658
L66.4089 5.5263
" />
<path d="M66.4089 5.5263
L66.4694 5.6472
" />
<path d="M66.4694 5.6472
L66.4694 5.7077
" />
<path d="M66.4694 5.7077
L66.4089 5.8287
" />
<path d="M66.4089 5.8287
L66.3484 5.8891
" />
<path d="M66.3484 5.8891
L66.2275 5.9496
" />
<path d="M66.2275 5.9496
L65.9856 5.9496
" />
<path d="M65.9856 5.9496
L65.8646 6.0101
" />
<path d="M65.8646 6.0101
L65.8041 6.0706
" />
<path d="M65.8041 6.0706
L65.7437 6.1915
" />
<path d="M65.7437 6.1915
L65.7437 6.4334
" />
<path d="M65.7437 6.4334
L65.8041 6.5544
" />
<path d="M65.8041 6.5544
L65.8646 6.6149
" />
<path d="M65.8646 6.6149
L65.9856 6.6753
" />
<path d="M65.9856 6.6753
L66.2275 6.6753
" />
<path d="M66.2275 6.6753
L66.3484 6.6149
" />
<path d="M66.3484 6.6149
L66.4089 6.5544
" />
<path d="M66.4089 6.5544
L66.4694 6.4334
" />
<path d="M66.4694 6.4334
L66.4694 6.1915
" />
<path d="M66.4694 6.1915
L66.4089 6.0706
" />
<path d="M66.4089 6.0706
L66.3484 6.0101
" />
<path d="M66.3484 6.0101
L66.2275 5.9496
" />
<path d="M67.6789 6.6753
L66.9532 6.6753
" />
<path d="M67.3160 6.6753
L67.3160 5.4053
" />
<path d="M67.3160 5.4053
L67.1951 5.5868
" />
<path d="M67.1951 5.5868
L67.0741 5.7077
" />
<path d="M67.0741 5.7077
L66.9532 5.7682
" />
<path d="M68.8884 6.6753
L68.1627 6.6753
" />
<path d="M68.5255 6.6753
L68.5255 5.4053
" />
<path d="M68.5255 5.4053
L68.4046 5.5868
" />
<path d="M68.4046 5.5868
L68.2836 5.7077
" />
<path d="M68.2836 5.7077
L68.1627 5.7682
" />
<path d="M69.1303 6.7963
L70.0979 6.7963
" />
<path d="M70.6421 5.4053
L70.7631 5.4053
" />
<path d="M70.7631 5.4053
L70.8840 5.4658
" />
<path d="M70.8840 5.4658
L70.9445 5.5263
" />
<path d="M70.9445 5.5263
L71.0050 5.6472
" />
<path d="M71.0050 5.6472
L71.0655 5.8891
" />
<path d="M71.0655 5.8891
L71.0655 6.1915
" />
<path d="M71.0655 6.1915
L71.0050 6.4334
" />
<path d="M71.0050 6.4334
L70.9445 6.5544
" />
<path d="M70.9445 6.5544
L70.8840 6.6149
" />
<path d="M70.8840 6.6149
L70.7631 6.6753
" />
<path d="M70.7631 6.6753
L70.6421 6.6753
" />
<path d="M70.6421 6.6753
L70.5212 6.6149
" />
<path d="M70.5212 6.6149
L70.4607 6.5544
" />
<path d="M70.4607 6.5544
L70.4002 6.4334
" />
<path d="M70.4002 6.4334
L70.3398 6.1915
" />
<path d="M70.3398 6.1915
L70.3398 5.8891
" />
<path d="M70.3398 5.8891
L70.4002 5.6472
" />
<path d="M70.4002 5.6472
L70.4607 5.5263
" />
<path d="M70.4607 5.5263
L70.5212 5.4658
" />
<path d="M70.5212 5.4658
L70.6421 5.4053
" />
<path d="M71.6097 6.5544
L71.6702 6.6149
" />
<path d="M71.6702 6.6149
L71.6097 6.6753
" />
<path d="M71.6097 6.6753
L71.5493 6.6149
" />
<path d="M71.5493 6.6149
L71.6097 6.5544
" />
<path d="M71.6097 6.5544
L71.6097 6.6753
" />
<path d="M72.2145 5.8287
L72.2145 7.0987
" />
<path d="M72.2145 5.8891
L72.3355 5.8287
" />
<path d="M72.3355 5.8287
L72.5774 5.8287
" />
<path d="M72.5774 5.8287
L72.6983 5.8891
" />
<path d="M72.6983 5.8891
L72.7588 5.9496
" />
<path d="M72.7588 5.9496
L72.8193 6.0706
" />
<path d="M72.8193 6.0706
L72.8193 6.4334
" />
<path d="M72.8193 6.4334
L72.7588 6.5544
" />
<path d="M72.7588 6.5544
L72.6983 6.6149
" />
<path d="M72.6983 6.6149
L72.5774 6.6753
" />
<path d="M72.5774 6.6753
L72.3355 6.6753
" />
<path d="M72.3355 6.6753
L72.2145 6.6149
" />
<path d="M73.9078 6.6753
L73.9078 5.4053
" />
<path d="M73.9078 6.6149
L73.7869 6.6753
" />
<path d="M73.7869 6.6753
L73.5450 6.6753
" />
<path d="M73.5450 6.6753
L73.4240 6.6149
" />
<path d="M73.4240 6.6149
L73.3635 6.5544
" />
<path d="M73.3635 6.5544
L73.3031 6.4334
" />
<path d="M73.3031 6.4334
L73.3031 6.0706
" />
<path d="M73.3031 6.0706
L73.3635 5.9496
" />
<path d="M73.3635 5.9496
L73.4240 5.8891
" />
<path d="M73.4240 5.8891
L73.5450 5.8287
" />
<path d="M73.5450 5.8287
L73.7869 5.8287
" />
<path d="M73.7869 5.8287
L73.9078 5.8891
" />
<path d="M74.3311 5.8287
L74.8149 5.8287
" />
<path d="M74.5125 6.6753
L74.5125 5.5868
" />
<path d="M74.5125 5.5868
L74.5730 5.4658
" />
<path d="M74.5730 5.4658
L74.6940 5.4053
" />
<path d="M74.6940 5.4053
L74.8149 5.4053
" />
<path d="M76.1454 5.3449
L75.0568 6.9777
" />
<path d="M76.5083 6.6149
L76.6897 6.6753
" />
<path d="M76.6897 6.6753
L76.9921 6.6753
" />
<path d="M76.9921 6.6753
L77.1130 6.6149
" />
<path d="M77.1130 6.6149
L77.1735 6.5544
" />
<path d="M77.1735 6.5544
L77.2340 6.4334
" />
<path d="M77.2340 6.4334
L77.2340 6.3125
" />
<path d="M77.2340 6.3125
L77.1735 6.1915
" />
<path d="M77.1735 6.1915
L77.1130 6.1310
" />
<path d="M77.1130 6.1310
L76.9921 6.0706
" />
<path d="M76.9921 6.0706
L76.7502 6.0101
" />
<path d="M76.7502 6.0101
L76.6292 5.9496
" />
<path d="M76.6292 5.9496
L76.5687 5.8891
" />
<path d="M76.5687 5.8891
L76.5083 5.7682
" />
<path d="M76.5083 5.7682
L76.5083 5.6472
" />
<path d="M76.5083 5.6472
L76.5687 5.5263
" />
<path d="M76.5687 5.5263
L76.6292 5.4658
" />
<path d="M76.6292 5.4658
L76.7502 5.4053
" />
<path d="M76.7502 5.4053
L77.0525 5.4053
" />
<path d="M77.0525 5.4053
L77.2340 5.4658
" />
<path d="M78.2016 6.0101
L77.7782 6.0101
" />
<path d="M77.7782 6.6753
L77.7782 5.4053
" />
<path d="M77.7782 5.4053
L78.3830 5.4053
" />
<path d="M78.8668 6.6753
L78.8668 5.4053
" />
<path d="M78.8668 6.0101
L79.5925 6.0101
" />
<path d="M79.5925 6.6753
L79.5925 5.4053
" />
<path d="M80.1369 6.6753
L81.1045 5.4053
" />
<path d="M80.3183 5.4053
L80.4392 5.4658
" />
<path d="M80.4392 5.4658
L80.4997 5.5868
" />
<path d="M80.4997 5.5868
L80.4392 5.7077
" />
<path d="M80.4392 5.7077
L80.3183 5.7682
" />
<path d="M80.3183 5.7682
L80.1973 5.7077
" />
<path d="M80.1973 5.7077
L80.1369 5.5868
" />
<path d="M80.1369 5.5868
L80.1973 5.4658
" />
<path d="M80.1973 5.4658
L80.3183 5.4053
" />
<path d="M81.0440 6.6149
L81.1045 6.4939
" />
<path d="M81.1045 6.4939
L81.0440 6.3729
" />
<path d="M81.0440 6.3729
L80.9230 6.3125
" />
<path d="M80.9230 6.3125
L80.8021 6.3729
" />
<path d="M80.8021 6.3729
L80.7416 6.4939
" />
<path d="M80.7416 6.4939
L80.8021 6.6149
" />
<path d="M80.8021 6.6149
L80.9230 6.6753
" />
<path d="M80.9230 6.6753
L81.0440 6.6149
" />
<path d="M81.5883 5.5263
L81.6487 5.4658
" />
<path d="M81.6487 5.4658
L81.7697 5.4053
" />
<path d="M81.7697 5.4053
L82.0721 5.4053
" />
<path d="M82.0721 5.4053
L82.1930 5.4658
" />
<path d="M82.1930 5.4658
L82.2535 5.5263
" />
<path d="M82.2535 5.5263
L82.3140 5.6472
" />
<path d="M82.3140 5.6472
L82.3140 5.7682
" />
<path d="M82.3140 5.7682
L82.2535 5.9496
" />
<path d="M82.2535 5.9496
L81.5278 6.6753
" />
<path d="M81.5278 6.6753
L82.3140 6.6753
" />
<path d="M83.1001 5.4053
L83.2211 5.4053
" />
<path d="M83.2211 5.4053
L83.3420 5.4658
" />
<path d="M83.3420 5.4658
L83.4025 5.5263
" />
<path d="M83.4025 5.5263
L83.4630 5.6472
" />
<path d="M83.4630 5.6472
L83.5235 5.8891
" />
<path d="M83.5235 5.8891
L83.5235 6.1915
" />
<path d="M83.5235 6.1915
L83.4630 6.4334
" />
<path d="M83.4630 6.4334
L83.4025 6.5544
" />
<path d="M83.4025 6.5544
L83.3420 6.6149
" />
<path d="M83.3420 6.6149
L83.2211 6.6753
" />
<path d="M83.2211 6.6753
L83.1001 6.6753
" />
<path d="M83.1001 6.6753
L82.9792 6.6149
" />
<path d="M82.9792 6.6149
L82.9187 6.5544
" />
<path d="M82.9187 6.5544
L82.8582 6.4334
" />
<path d="M82.8582 6.4334
L82.7978 6.1915
" />
<path d="M82.7978 6.1915
L82.7978 5.8891
" />
<path d="M82.7978 5.8891
L82.8582 5.6472
" />
<path d="M82.8582 5.6472
L82.9187 5.5263
" />
<path d="M82.9187 5.5263
L82.9792 5.4658
" />
<path d="M82.9792 5.4658
L83.1001 5.4053
" />
<path d="M83.9468 5.4053
L84.7330 5.4053
" />
<path d="M84.7330 5.4053
L84.3096 5.8891
" />
<path d="M84.3096 5.8891
L84.4911 5.8891
" />
<path d="M84.4911 5.8891
L84.6120 5.9496
" />
<path d="M84.6120 5.9496
L84.6725 6.0101
" />
<path d="M84.6725 6.0101
L84.7330 6.1310
" />
<path d="M84.7330 6.1310
L84.7330 6.4334
" />
<path d="M84.7330 6.4334
L84.6725 6.5544
" />
<path d="M84.6725 6.5544
L84.6120 6.6149
" />
<path d="M84.6120 6.6149
L84.4911 6.6753
" />
<path d="M84.4911 6.6753
L84.1282 6.6753
" />
<path d="M84.1282 6.6753
L84.0073 6.6149
" />
<path d="M84.0073 6.6149
L83.9468 6.5544
" />
<path d="M85.5191 5.4053
L85.6401 5.4053
" />
<path d="M85.6401 5.4053
L85.7610 5.4658
" />
<path d="M85.7610 5.4658
L85.8215 5.5263
" />
<path d="M85.8215 5.5263
L85.8820 5.6472
" />
<path d="M85.8820 5.6472
L85.9425 5.8891
" />
<path d="M85.9425 5.8891
L85.9425 6.1915
" />
<path d="M85.9425 6.1915
L85.8820 6.4334
" />
<path d="M85.8820 6.4334
L85.8215 6.5544
" />
<path d="M85.8215 6.5544
L85.7610 6.6149
" />
<path d="M85.7610 6.6149
L85.6401 6.6753
" />
<path d="M85.6401 6.6753
L85.5191 6.6753
" />
<path d="M85.5191 6.6753
L85.3982 6.6149
" />
<path d="M85.3982 6.6149
L85.3377 6.5544
" />
<path d="M85.3377 6.5544
L85.2772 6.4334
" />
<path d="M85.2772 6.4334
L85.2168 6.1915
" />
<path d="M85.2168 6.1915
L85.2168 5.8891
" />
<path d="M85.2168 5.8891
L85.2772 5.6472
" />
<path d="M85.2772 5.6472
L85.3377 5.5263
" />
<path d="M85.3377 5.5263
L85.3982 5.4658
" />
<path d="M85.3982 5.4658
L85.5191 5.4053
" />
<path d="M86.5472 6.6753
L86.7891 6.6753
" />
<path d="M86.7891 6.6753
L86.9101 6.6149
" />
<path d="M86.9101 6.6149
L86.9705 6.5544
" />
<path d="M86.9705 6.5544
L87.0915 6.3729
" />
<path d="M87.0915 6.3729
L87.1520 6.1310
" />
<path d="M87.1520 6.1310
L87.1520 5.6472
" />
<path d="M87.1520 5.6472
L87.0915 5.5263
" />
<path d="M87.0915 5.5263
L87.0310 5.4658
" />
<path d="M87.0310 5.4658
L86.9101 5.4053
" />
<path d="M86.9101 5.4053
L86.6682 5.4053
" />
<path d="M86.6682 5.4053
L86.5472 5.4658
" />
<path d="M86.5472 5.4658
L86.4867 5.5263
" />
<path d="M86.4867 5.5263
L86.4263 5.6472
" />
<path d="M86.4263 5.6472
L86.4263 5.9496
" />
<path d="M86.4263 5.9496
L86.4867 6.0706
" />
<path d="M86.4867 6.0706
L86.5472 6.1310
" />
<path d="M86.5472 6.1310
L86.6682 6.1915
" />
<path d="M86.6682 6.1915
L86.9101 6.1915
" />
<path d="M86.9101 6.1915
L87.0310 6.1310
" />
<path d="M87.0310 6.1310
L87.0915 6.0706
" />
<path d="M87.0915 6.0706
L87.1520 5.9496
" />
<path d="M87.7567 6.6149
L87.7567 6.6753
" />
<path d="M87.7567 6.6753
L87.6962 6.7963
" />
<path d="M87.6962 6.7963
L87.6358 6.8568
" />
<path d="M88.2406 6.6753
L89.2082 5.4053
" />
<path d="M88.4220 5.4053
L88.5429 5.4658
" />
<path d="M88.5429 5.4658
L88.6034 5.5868
" />
<path d="M88.6034 5.5868
L88.5429 5.7077
" />
<path d="M88.5429 5.7077
L88.4220 5.7682
" />
<path d="M88.4220 5.7682
L88.3010 5.7077
" />
<path d="M88.3010 5.7077
L88.2406 5.5868
" />
<path d="M88.2406 5.5868
L88.3010 5.4658
" />
<path d="M88.3010 5.4658
L88.4220 5.4053
" />
<path d="M89.1477 6.6149
L89.2082 6.4939
" />
<path d="M89.2082 6.4939
L89.1477 6.3729
" />
<path d="M89.1477 6.3729
L89.0267 6.3125
" />
<path d="M89.0267 6.3125
L88.9058 6.3729
" />
<path d="M88.9058 6.3729
L88.8453 6.4939
" />
<path d="M88.8453 6.4939
L88.9058 6.6149
" />
<path d="M88.9058 6.6149
L89.0267 6.6753
" />
<path d="M89.0267 6.6753
L89.1477 6.6149
" />
<path d="M89.6920 5.5263
L89.7524 5.4658
" />
<path d="M89.7524 5.4658
L89.8734 5.4053
" />
<path d="M89.8734 5.4053
L90.1758 5.4053
" />
<path d="M90.1758 5.4053
L90.2967 5.4658
" />
<path d="M90.2967 5.4658
L90.3572 5.5263
" />
<path d="M90.3572 5.5263
L90.4177 5.6472
" />
<path d="M90.4177 5.6472
L90.4177 5.7682
" />
<path d="M90.4177 5.7682
L90.3572 5.9496
" />
<path d="M90.3572 5.9496
L89.6315 6.6753
" />
<path d="M89.6315 6.6753
L90.4177 6.6753
" />
<path d="M91.2038 5.4053
L91.3248 5.4053
" />
<path d="M91.3248 5.4053
L91.4457 5.4658
" />
<path d="M91.4457 5.4658
L91.5062 5.5263
" />
<path d="M91.5062 5.5263
L91.5667 5.6472
" />
<path d="M91.5667 5.6472
L91.6272 5.8891
" />
<path d="M91.6272 5.8891
L91.6272 6.1915
" />
<path d="M91.6272 6.1915
L91.5667 6.4334
" />
<path d="M91.5667 6.4334
L91.5062 6.5544
" />
<path d="M91.5062 6.5544
L91.4457 6.6149
" />
<path d="M91.4457 6.6149
L91.3248 6.6753
" />
<path d="M91.3248 6.6753
L91.2038 6.6753
" />
<path d="M91.2038 6.6753
L91.0829 6.6149
" />
<path d="M91.0829 6.6149
L91.0224 6.5544
" />
<path d="M91.0224 6.5544
L90.9619 6.4334
" />
<path d="M90.9619 6.4334
L90.9015 6.1915
" />
<path d="M90.9015 6.1915
L90.9015 5.8891
" />
<path d="M90.9015 5.8891
L90.9619 5.6472
" />
<path d="M90.9619 5.6472
L91.0224 5.5263
" />
<path d="M91.0224 5.5263
L91.0829 5.4658
" />
<path d="M91.0829 5.4658
L91.2038 5.4053
" />
<path d="M92.1110 6.6149
L92.2924 6.6753
" />
<path d="M92.2924 6.6753
L92.5948 6.6753
" />
<path d="M92.5948 6.6753
L92.7157 6.6149
" />
<path d="M92.7157 6.6149
L92.7762 6.5544
" />
<path d="M92.7762 6.5544
L92.8367 6.4334
" />
<path d="M92.8367 6.4334
L92.8367 6.3125
" />
<path d="M92.8367 6.3125
L92.7762 6.1915
" />
<path d="M92.7762 6.1915
L92.7157 6.1310
" />
<path d="M92.7157 6.1310
L92.5948 6.0706
" />
<path d="M92.5948 6.0706
L92.3529 6.0101
" />
<path d="M92.3529 6.0101
L92.2319 5.9496
" />
<path d="M92.2319 5.9496
L92.1714 5.8891
" />
<path d="M92.1714 5.8891
L92.1110 5.7682
" />
<path d="M92.1110 5.7682
L92.1110 5.6472
" />
<path d="M92.1110 5.6472
L92.1714 5.5263
" />
<path d="M92.1714 5.5263
L92.2319 5.4658
" />
<path d="M92.2319 5.4658
L92.3529 5.4053
" />
<path d="M92.3529 5.4053
L92.6552 5.4053
" />
<path d="M92.6552 5.4053
L92.8367 5.4658
" />
<path d="M93.8043 6.0101
L93.3809 6.0101
" />
<path d="M93.3809 6.6753
L93.3809 5.4053
" />
<path d="M93.3809 5.4053
L93.9857 5.4053
" />
<path d="M94.4695 6.6753
L94.4695 5.4053
" />
<path d="M94.4695 6.0101
L95.1952 6.0101
" />
<path d="M95.1952 6.6753
L95.1952 5.4053
" />
<path d="M95.7396 6.6753
L96.7072 5.4053
" />
<path d="M95.9210 5.4053
L96.0419 5.4658
" />
<path d="M96.0419 5.4658
L96.1024 5.5868
" />
<path d="M96.1024 5.5868
L96.0419 5.7077
" />
<path d="M96.0419 5.7077
L95.9210 5.7682
" />
<path d="M95.9210 5.7682
L95.8000 5.7077
" />
<path d="M95.8000 5.7077
L95.7396 5.5868
" />
<path d="M95.7396 5.5868
L95.8000 5.4658
" />
<path d="M95.8000 5.4658
L95.9210 5.4053
" />
<path d="M96.6467 6.6149
L96.7072 6.4939
" />
<path d="M96.7072 6.4939
L96.6467 6.3729
" />
<path d="M96.6467 6.3729
L96.5257 6.3125
" />
<path d="M96.5257 6.3125
L96.4048 6.3729
" />
<path d="M96.4048 6.3729
L96.3443 6.4939
" />
<path d="M96.3443 6.4939
L96.4048 6.6149
" />
<path d="M96.4048 6.6149
L96.5257 6.6753
" />
<path d="M96.5257 6.6753
L96.6467 6.6149
" />
<path d="M97.1910 5.5263
L97.2514 5.4658
" />
<path d="M97.2514 5.4658
L97.3724 5.4053
" />
<path d="M97.3724 5.4053
L97.6748 5.4053
" />
<path d="M97.6748 5.4053
L97.7957 5.4658
" />
<path d="M97.7957 5.4658
L97.8562 5.5263
" />
<path d="M97.8562 5.5263
L97.9167 5.6472
" />
<path d="M97.9167 5.6472
L97.9167 5.7682
" />
<path d="M97.9167 5.7682
L97.8562 5.9496
" />
<path d="M97.8562 5.9496
L97.1305 6.6753
" />
<path d="M97.1305 6.6753
L97.9167 6.6753
" />
<path d="M98.7028 5.4053
L98.8238 5.4053
" />
<path d="M98.8238 5.4053
L98.9447 5.4658
" />
<path d="M98.9447 5.4658
L99.0052 5.5263
" />
<path d="M99.0052 5.5263
L99.0657 5.6472
" />
<path d="M99.0657 5.6472
L99.1262 5.8891
" />
<path d="M99.1262 5.8891
L99.1262 6.1915
" />
<path d="M99.1262 6.1915
L99.0657 6.4334
" />
<path d="M99.0657 6.4334
L99.0052 6.5544
" />
<path d="M99.0052 6.5544
L98.9447 6.6149
" />
<path d="M98.9447 6.6149
L98.8238 6.6753
" />
<path d="M98.8238 6.6753
L98.7028 6.6753
" />
<path d="M98.7028 6.6753
L98.5819 6.6149
" />
<path d="M98.5819 6.6149
L98.5214 6.5544
" />
<path d="M98.5214 6.5544
L98.4609 6.4334
" />
<path d="M98.4609 6.4334
L98.4005 6.1915
" />
<path d="M98.4005 6.1915
L98.4005 5.8891
" />
<path d="M98.4005 5.8891
L98.4609 5.6472
" />
<path d="M98.4609 5.6472
L98.5214 5.5263
" />
<path d="M98.5214 5.5263
L98.5819 5.4658
" />
<path d="M98.5819 5.4658
L98.7028 5.4053
" />
<path d="M99.5495 5.4053
L100.3357 5.4053
" />
<path d="M100.3357 5.4053
L99.9123 5.8891
" />
<path d="M99.9123 5.8891
L100.0938 5.8891
" />
<path d="M100.0938 5.8891
L100.2147 5.9496
" />
<path d="M100.2147 5.9496
L100.2752 6.0101
" />
<path d="M100.2752 6.0101
L100.3357 6.1310
" />
<path d="M100.3357 6.1310
L100.3357 6.4334
" />
<path d="M100.3357 6.4334
L100.2752 6.5544
" />
<path d="M100.2752 6.5544
L100.2147 6.6149
" />
<path d="M100.2147 6.6149
L100.0938 6.6753
" />
<path d="M100.0938 6.6753
L99.7309 6.6753
" />
<path d="M99.7309 6.6753
L99.6100 6.6149
" />
<path d="M99.6100 6.6149
L99.5495 6.5544
" />
<path d="M101.1218 5.4053
L101.2428 5.4053
" />
<path d="M101.2428 5.4053
L101.3637 5.4658
" />
<path d="M101.3637 5.4658
L101.4242 5.5263
" />
<path d="M101.4242 5.5263
L101.4847 5.6472
" />
<path d="M101.4847 5.6472
L101.5452 5.8891
" />
<path d="M101.5452 5.8891
L101.5452 6.1915
" />
<path d="M101.5452 6.1915
L101.4847 6.4334
" />
<path d="M101.4847 6.4334
L101.4242 6.5544
" />
<path d="M101.4242 6.5544
L101.3637 6.6149
" />
<path d="M101.3637 6.6149
L101.2428 6.6753
" />
<path d="M101.2428 6.6753
L101.1218 6.6753
" />
<path d="M101.1218 6.6753
L101.0009 6.6149
" />
<path d="M101.0009 6.6149
L100.9404 6.5544
" />
<path d="M100.9404 6.5544
L100.8799 6.4334
" />
<path d="M100.8799 6.4334
L100.8195 6.1915
" />
<path d="M100.8195 6.1915
L100.8195 5.8891
" />
<path d="M100.8195 5.8891
L100.8799 5.6472
" />
<path d="M100.8799 5.6472
L100.9404 5.5263
" />
<path d="M100.9404 5.5263
L101.0009 5.4658
" />
<path d="M101.0009 5.4658
L101.1218 5.4053
" />
<path d="M102.1499 6.6753
L102.3918 6.6753
" />
<path d="M102.3918 6.6753
L102.5128 6.6149
" />
<path d="M102.5128 6.6149
L102.5732 6.5544
" />
<path d="M102.5732 6.5544
L102.6942 6.3729
" />
<path d="M102.6942 6.3729
L102.7547 6.1310
" />
<path d="M102.7547 6.1310
L102.7547 5.6472
" />
<path d="M102.7547 5.6472
L102.6942 5.5263
" />
<path d="M102.6942 5.5263
L102.6337 5.4658
" />
<path d="M102.6337 5.4658
L102.5128 5.4053
" />
<path d="M102.5128 5.4053
L102.2709 5.4053
" />
<path d="M102.2709 5.4053
L102.1499 5.4658
" />
<path d="M102.1499 5.4658
L102.0894 5.5263
" />
<path d="M102.0894 5.5263
L102.0290 5.6472
" />
<path d="M102.0290 5.6472
L102.0290 5.9496
" />
<path d="M102.0290 5.9496
L102.0894 6.0706
" />
<path d="M102.0894 6.0706
L102.1499 6.1310
" />
<path d="M102.1499 6.1310
L102.2709 6.1915
" />
<path d="M102.2709 6.1915
L102.5128 6.1915
" />
<path d="M102.5128 6.1915
L102.6337 6.1310
" />
<path d="M102.6337 6.1310
L102.6942 6.0706
" />
<path d="M102.6942 6.0706
L102.7547 5.9496
" />
<path d="M103.2385 6.6753
L104.2061 5.4053
" />
<path d="M103.4199 5.4053
L103.5408 5.4658
" />
<path d="M103.5408 5.4658
L103.6013 5.5868
" />
<path d="M103.6013 5.5868
L103.5408 5.7077
" />
<path d="M103.5408 5.7077
L103.4199 5.7682
" />
<path d="M103.4199 5.7682
L103.2989 5.7077
" />
<path d="M103.2989 5.7077
L103.2385 5.5868
" />
<path d="M103.2385 5.5868
L103.2989 5.4658
" />
<path d="M103.2989 5.4658
L103.4199 5.4053
" />
<path d="M104.1456 6.6149
L104.2061 6.4939
" />
<path d="M104.2061 6.4939
L104.1456 6.3729
" />
<path d="M104.1456 6.3729
L104.0246 6.3125
" />
<path d="M104.0246 6.3125
L103.9037 6.3729
" />
<path d="M103.9037 6.3729
L103.8432 6.4939
" />
<path d="M103.8432 6.4939
L103.9037 6.6149
" />
<path d="M103.9037 6.6149
L104.0246 6.6753
" />
<path d="M104.0246 6.6753
L104.1456 6.6149
" />
<path d="M104.6899 5.5263
L104.7503 5.4658
" />
<path d="M104.7503 5.4658
L104.8713 5.4053
" />
<path d="M104.8713 5.4053
L105.1737 5.4053
" />
<path d="M105.1737 5.4053
L105.2946 5.4658
" />
<path d="M105.2946 5.4658
L105.3551 5.5263
" />
<path d="M105.3551 5.5263
L105.4156 5.6472
" />
<path d="M105.4156 5.6472
L105.4156 5.7682
" />
<path d="M105.4156 5.7682
L105.3551 5.9496
" />
<path d="M105.3551 5.9496
L104.6294 6.6753
" />
<path d="M104.6294 6.6753
L105.4156 6.6753
" />
<path d="M106.2017 5.4053
L106.3227 5.4053
" />
<path d="M106.3227 5.4053
L106.4436 5.4658
" />
<path d="M106.4436 5.4658
L106.5041 5.5263
" />
<path d="M106.5041 5.5263
L106.5646 5.6472
" />
<path d="M106.5646 5.6472
L106.6251 5.8891
" />
<path d="M106.6251 5.8891
L106.6251 6.1915
" />
<path d="M106.6251 6.1915
L106.5646 6.4334
" />
<path d="M106.5646 6.4334
L106.5041 6.5544
" />
<path d="M106.5041 6.5544
L106.4436 6.6149
" />
<path d="M106.4436 6.6149
L106.3227 6.6753
" />
<path d="M106.3227 6.6753
L106.2017 6.6753
" />
<path d="M106.2017 6.6753
L106.0808 6.6149
" />
<path d="M106.0808 6.6149
L106.0203 6.5544
" />
<path d="M106.0203 6.5544
L105.9598 6.4334
" />
<path d="M105.9598 6.4334
L105.8994 6.1915
" />
<path d="M105.8994 6.1915
L105.8994 5.8891
" />
<path d="M105.8994 5.8891
L105.9598 5.6472
" />
<path d="M105.9598 5.6472
L106.0203 5.5263
" />
<path d="M106.0203 5.5263
L106.0808 5.4658
" />
<path d="M106.0808 5.4658
L106.2017 5.4053
" />
<path d="M107.5927 6.0101
L107.1693 6.0101
" />
<path d="M107.1693 6.6753
L107.1693 5.4053
" />
<path d="M107.1693 5.4053
L107.7741 5.4053
" />
<path d="M108.1975 6.3125
L108.8022 6.3125
" />
<path d="M108.0765 6.6753
L108.4998 5.4053
" />
<path d="M108.4998 5.4053
L108.9232 6.6753
" />
<path d="M109.4070 6.6149
L109.4070 6.6753
" />
<path d="M109.4070 6.6753
L109.3465 6.7963
" />
<path d="M109.3465 6.7963
L109.2861 6.8568
" />
<path d="M109.8909 6.6753
L110.8585 5.4053
" />
<path d="M110.0723 5.4053
L110.1932 5.4658
" />
<path d="M110.1932 5.4658
L110.2537 5.5868
" />
<path d="M110.2537 5.5868
L110.1932 5.7077
" />
<path d="M110.1932 5.7077
L110.0723 5.7682
" />
<path d="M110.0723 5.7682
L109.9513 5.7077
" />
<path d="M109.9513 5.7077
L109.8909 5.5868
" />
<path d="M109.8909 5.5868
L109.9513 5.4658
" />
<path d="M109.9513 5.4658
L110.0723 5.4053
" />
<path d="M110.7980 6.6149
L110.8585 6.4939
" />
<path d="M110.8585 6.4939
L110.7980 6.3729
" />
<path d="M110.7980 6.3729
L110.6770 6.3125
" />
<path d="M110.6770 6.3125
L110.5561 6.3729
" />
<path d="M110.5561 6.3729
L110.4956 6.4939
" />
<path d="M110.4956 6.4939
L110.5561 6.6149
" />
<path d="M110.5561 6.6149
L110.6770 6.6753
" />
<path d="M110.6770 6.6753
L110.7980 6.6149
" />
<path d="M111.3423 5.5263
L111.4027 5.4658
" />
<path d="M111.4027 5.4658
L111.5237 5.4053
" />
<path d="M111.5237 5.4053
L111.8261 5.4053
" />
<path d="M111.8261 5.4053
L111.9470 5.4658
" />
<path d="M111.9470 5.4658
L112.0075 5.5263
" />
<path d="M112.0075 5.5263
L112.0680 5.6472
" />
<path d="M112.0680 5.6472
L112.0680 5.7682
" />
<path d="M112.0680 5.7682
L112.0075 5.9496
" />
<path d="M112.0075 5.9496
L111.2818 6.6753
" />
<path d="M111.2818 6.6753
L112.0680 6.6753
" />
<path d="M112.8541 5.4053
L112.9751 5.4053
" />
<path d="M112.9751 5.4053
L113.0960 5.4658
" />
<path d="M113.0960 5.4658
L113.1565 5.5263
" />
<path d="M113.1565 5.5263
L113.2170 5.6472
" />
<path d="M113.2170 5.6472
L113.2775 5.8891
" />
<path d="M113.2775 5.8891
L113.2775 6.1915
" />
<path d="M113.2775 6.1915
L113.2170 6.4334
" />
<path d="M113.2170 6.4334
L113.1565 6.5544
" />
<path d="M113.1565 6.5544
L113.0960 6.6149
" />
<path d="M113.0960 6.6149
L112.9751 6.6753
" />
<path d="M112.9751 6.6753
L112.8541 6.6753
" />
<path d="M112.8541 6.6753
L112.7332 6.6149
" />
<path d="M112.7332 6.6149
L112.6727 6.5544
" />
<path d="M112.6727 6.5544
L112.6122 6.4334
" />
<path d="M112.6122 6.4334
L112.5518 6.1915
" />
<path d="M112.5518 6.1915
L112.5518 5.8891
" />
<path d="M112.5518 5.8891
L112.6122 5.6472
" />
<path d="M112.6122 5.6472
L112.6727 5.5263
" />
<path d="M112.6727 5.5263
L112.7332 5.4658
" />
<path d="M112.7332 5.4658
L112.8541 5.4053
" />
<path d="M114.4265 6.6753
L113.8217 6.6753
" />
<path d="M113.8217 6.6753
L113.8217 5.4053
" />
<path d="M115.3336 6.6149
L115.2127 6.6753
" />
<path d="M115.2127 6.6753
L114.9708 6.6753
" />
<path d="M114.9708 6.6753
L114.8498 6.6149
" />
<path d="M114.8498 6.6149
L114.7894 6.4939
" />
<path d="M114.7894 6.4939
L114.7894 6.0101
" />
<path d="M114.7894 6.0101
L114.8498 5.8891
" />
<path d="M114.8498 5.8891
L114.9708 5.8287
" />
<path d="M114.9708 5.8287
L115.2127 5.8287
" />
<path d="M115.2127 5.8287
L115.3336 5.8891
" />
<path d="M115.3336 5.8891
L115.3941 6.0101
" />
<path d="M115.3941 6.0101
L115.3941 6.1310
" />
<path d="M115.3941 6.1310
L114.7894 6.2520
" />
<path d="M116.4827 6.6753
L116.4827 6.0101
" />
<path d="M116.4827 6.0101
L116.4222 5.8891
" />
<path d="M116.4222 5.8891
L116.3013 5.8287
" />
<path d="M116.3013 5.8287
L116.0594 5.8287
" />
<path d="M116.0594 5.8287
L115.9384 5.8891
" />
<path d="M116.4827 6.6149
L116.3618 6.6753
" />
<path d="M116.3618 6.6753
L116.0594 6.6753
" />
<path d="M116.0594 6.6753
L115.9384 6.6149
" />
<path d="M115.9384 6.6149
L115.8780 6.4939
" />
<path d="M115.8780 6.4939
L115.8780 6.3729
" />
<path d="M115.8780 6.3729
L115.9384 6.2520
" />
<path d="M115.9384 6.2520
L116.0594 6.1915
" />
<path d="M116.0594 6.1915
L116.3618 6.1915
" />
<path d="M116.3618 6.1915
L116.4827 6.1310
" />
<path d="M117.6317 6.6753
L117.6317 5.4053
" />
<path d="M117.6317 6.6149
L117.5108 6.6753
" />
<path d="M117.5108 6.6753
L117.2689 6.6753
" />
<path d="M117.2689 6.6753
L117.1479 6.6149
" />
<path d="M117.1479 6.6149
L117.0874 6.5544
" />
<path d="M117.0874 6.5544
L117.0270 6.4334
" />
<path d="M117.0270 6.4334
L117.0270 6.0706
" />
<path d="M117.0270 6.0706
L117.0874 5.9496
" />
<path d="M117.0874 5.9496
L117.1479 5.8891
" />
<path d="M117.1479 5.8891
L117.2689 5.8287
" />
<path d="M117.2689 5.8287
L117.5108 5.8287
" />
<path d="M117.5108 5.8287
L117.6317 5.8891
" />
<path d="M118.1760 6.6753
L119.1436 5.4053
" />
<path d="M118.3574 5.4053
L118.4783 5.4658
" />
<path d="M118.4783 5.4658
L118.5388 5.5868
" />
<path d="M118.5388 5.5868
L118.4783 5.7077
" />
<path d="M118.4783 5.7077
L118.3574 5.7682
" />
<path d="M118.3574 5.7682
L118.2364 5.7077
" />
<path d="M118.2364 5.7077
L118.1760 5.5868
" />
<path d="M118.1760 5.5868
L118.2364 5.4658
" />
<path d="M118.2364 5.4658
L118.3574 5.4053
" />
<path d="M119.0831 6.6149
L119.1436 6.4939
" />
<path d="M119.1436 6.4939
L119.0831 6.3729
" />
<path d="M119.0831 6.3729
L118.9621 6.3125
" />
<path d="M118.9621 6.3125
L118.8412 6.3729
" />
<path d="M118.8412 6.3729
L118.7807 6.4939
" />
<path d="M118.7807 6.4939
L118.8412 6.6149
" />
<path d="M118.8412 6.6149
L118.9621 6.6753
" />
<path d="M118.9621 6.6753
L119.0831 6.6149
" />
<path d="M119.6274 5.5263
L119.6878 5.4658
" />
<path d="M119.6878 5.4658
L119.8088 5.4053
" />
<path d="M119.8088 5.4053
L120.1112 5.4053
" />
<path d="M120.1112 5.4053
L120.2321 5.4658
" />
<path d="M120.2321 5.4658
L120.2926 5.5263
" />
<path d="M120.2926 5.5263
L120.3531 5.6472
" />
<path d="M120.3531 5.6472
L120.3531 5.7682
" />
<path d="M120.3531 5.7682
L120.2926 5.9496
" />
<path d="M120.2926 5.9496
L119.5669 6.6753
" />
<path d="M119.5669 6.6753
L120.3531 6.6753
" />
<path d="M121.1392 5.4053
L121.2602 5.4053
" />
<path d="M121.2602 5.4053
L121.3811 5.4658
" />
<path d="M121.3811 5.4658
L121.4416 5.5263
" />
<path d="M121.4416 5.5263
L121.5021 5.6472
" />
<path d="M121.5021 5.6472
L121.5626 5.8891
" />
<path d="M121.5626 5.8891
L121.5626 6.1915
" />
<path d="M121.5626 6.1915
L121.5021 6.4334
" />
<path d="M121.5021 6.4334
L121.4416 6.5544
" />
<path d="M121.4416 6.5544
L121.3811 6.6149
" />
<path d="M121.3811 6.6149
L121.2602 6.6753
" />
<path d="M121.2602 6.6753
L121.1392 6.6753
" />
<path d="M121.1392 6.6753
L121.0183 6.6149
" />
<path d="M121.0183 6.6149
L120.9578 6.5544
" />
<path d="M120.9578 6.5544
L120.8973 6.4334
" />
<path d="M120.8973 6.4334
L120.8369 6.1915
" />
<path d="M120.8369 6.1915
L120.8369 5.8891
" />
<path d="M120.8369 5.8891
L120.8973 5.6472
" />
<path d="M120.8973 5.6472
L120.9578 5.5263
" />
<path d="M120.9578 5.5263
L121.0183 5.4658
" />
<path d="M121.0183 5.4658
L121.1392 5.4053
" />
<path d="M122.4697 7.1591
L122.4092 7.0987
" />
<path d="M122.4092 7.0987
L122.2883 6.9172
" />
<path d="M122.2883 6.9172
L122.2278 6.7963
" />
<path d="M122.2278 6.7963
L122.1673 6.6149
" />
<path d="M122.1673 6.6149
L122.1068 6.3125
" />
<path d="M122.1068 6.3125
L122.1068 6.0706
" />
<path d="M122.1068 6.0706
L122.1673 5.7682
" />
<path d="M122.1673 5.7682
L122.2278 5.5868
" />
<path d="M122.2278 5.5868
L122.2883 5.4658
" />
<path d="M122.2883 5.4658
L122.4092 5.2844
" />
<path d="M122.4092 5.2844
L122.4697 5.2239
" />
<path d="M122.9535 6.6753
L122.9535 5.4053
" />
<path d="M122.9535 5.4053
L123.4373 5.4053
" />
<path d="M123.4373 5.4053
L123.5583 5.4658
" />
<path d="M123.5583 5.4658
L123.6188 5.5263
" />
<path d="M123.6188 5.5263
L123.6792 5.6472
" />
<path d="M123.6792 5.6472
L123.6792 5.8287
" />
<path d="M123.6792 5.8287
L123.6188 5.9496
" />
<path d="M123.6188 5.9496
L123.5583 6.0101
" />
<path d="M123.5583 6.0101
L123.4373 6.0706
" />
<path d="M123.4373 6.0706
L122.9535 6.0706
" />
<path d="M124.2235 6.6753
L124.2235 5.4053
" />
<path d="M124.2235 5.8891
L124.3445 5.8287
" />
<path d="M124.3445 5.8287
L124.5864 5.8287
" />
<path d="M124.5864 5.8287
L124.7073 5.8891
" />
<path d="M124.7073 5.8891
L124.7678 5.9496
" />
<path d="M124.7678 5.9496
L124.8283 6.0706
" />
<path d="M124.8283 6.0706
L124.8283 6.4334
" />
<path d="M124.8283 6.4334
L124.7678 6.5544
" />
<path d="M124.7678 6.5544
L124.7073 6.6149
" />
<path d="M124.7073 6.6149
L124.5864 6.6753
" />
<path d="M124.5864 6.6753
L124.3445 6.6753
" />
<path d="M124.3445 6.6753
L124.2235 6.6149
" />
<path d="M125.2516 7.1591
L125.3121 7.0987
" />
<path d="M125.3121 7.0987
L125.4330 6.9172
" />
<path d="M125.4330 6.9172
L125.4935 6.7963
" />
<path d="M125.4935 6.7963
L125.5540 6.6149
" />
<path d="M125.5540 6.6149
L125.6144 6.3125
" />
<path d="M125.6144 6.3125
L125.6144 6.0706
" />
<path d="M125.6144 6.0706
L125.5540 5.7682
" />
<path d="M125.5540 5.7682
L125.4935 5.5868
" />
<path d="M125.4935 5.5868
L125.4330 5.4658
" />
<path d="M125.4330 5.4658
L125.3121 5.2844
" />
<path d="M125.3121 5.2844
L125.2516 5.2239
" />
<path d="M126.1588 6.6753
L127.1264 5.4053
" />
<path d="M126.3402 5.4053
L126.4611 5.4658
" />
<path d="M126.4611 5.4658
L126.5216 5.5868
" />
<path d="M126.5216 5.5868
L126.4611 5.7077
" />
<path d="M126.4611 5.7077
L126.3402 5.7682
" />
<path d="M126.3402 5.7682
L126.2192 5.7077
" />
<path d="M126.2192 5.7077
L126.1588 5.5868
" />
<path d="M126.1588 5.5868
L126.2192 5.4658
" />
<path d="M126.2192 5.4658
L126.3402 5.4053
" />
<path d="M127.0659 6.6149
L127.1264 6.4939
" />
<path d="M127.1264 6.4939
L127.0659 6.3729
" />
<path d="M127.0659 6.3729
L126.9449 6.3125
" />
<path d="M126.9449 6.3125
L126.8240 6.3729
" />
<path d="M126.8240 6.3729
L126.7635 6.4939
" />
<path d="M126.7635 6.4939
L126.8240 6.6149
" />
<path d="M126.8240 6.6149
L126.9449 6.6753
" />
<path d="M126.9449 6.6753
L127.0659 6.6149
" />
<path d="M127.6102 5.5263
L127.6706 5.4658
" />
<path d="M127.6706 5.4658
L127.7916 5.4053
" />
<path d="M127.7916 5.4053
L128.0940 5.4053
" />
<path d="M128.0940 5.4053
L128.2149 5.4658
" />
<path d="M128.2149 5.4658
L128.2754 5.5263
" />
<path d="M128.2754 5.5263
L128.3359 5.6472
" />
<path d="M128.3359 5.6472
L128.3359 5.7682
" />
<path d="M128.3359 5.7682
L128.2754 5.9496
" />
<path d="M128.2754 5.9496
L127.5497 6.6753
" />
<path d="M127.5497 6.6753
L128.3359 6.6753
" />
<path d="M129.1220 5.4053
L129.2430 5.4053
" />
<path d="M129.2430 5.4053
L129.3639 5.4658
" />
<path d="M129.3639 5.4658
L129.4244 5.5263
" />
<path d="M129.4244 5.5263
L129.4849 5.6472
" />
<path d="M129.4849 5.6472
L129.5454 5.8891
" />
<path d="M129.5454 5.8891
L129.5454 6.1915
" />
<path d="M129.5454 6.1915
L129.4849 6.4334
" />
<path d="M129.4849 6.4334
L129.4244 6.5544
" />
<path d="M129.4244 6.5544
L129.3639 6.6149
" />
<path d="M129.3639 6.6149
L129.2430 6.6753
" />
<path d="M129.2430 6.6753
L129.1220 6.6753
" />
<path d="M129.1220 6.6753
L129.0011 6.6149
" />
<path d="M129.0011 6.6149
L128.9406 6.5544
" />
<path d="M128.9406 6.5544
L128.8801 6.4334
" />
<path d="M128.8801 6.4334
L128.8197 6.1915
" />
<path d="M128.8197 6.1915
L128.8197 5.8891
" />
<path d="M128.8197 5.8891
L128.8801 5.6472
" />
<path d="M128.8801 5.6472
L128.9406 5.5263
" />
<path d="M128.9406 5.5263
L129.0011 5.4658
" />
<path d="M129.0011 5.4658
L129.1220 5.4053
" />
<path d="M130.5130 6.0101
L130.0896 6.0101
" />
<path d="M130.0896 6.6753
L130.0896 5.4053
" />
<path d="M130.0896 5.4053
L130.6944 5.4053
" />
<path d="M131.1782 6.6753
L131.1782 5.8287
" />
<path d="M131.1782 6.0706
L131.2387 5.9496
" />
<path d="M131.2387 5.9496
L131.2992 5.8891
" />
<path d="M131.2992 5.8891
L131.4201 5.8287
" />
<path d="M131.4201 5.8287
L131.5411 5.8287
" />
<path d="M132.4482 6.6149
L132.3273 6.6753
" />
<path d="M132.3273 6.6753
L132.0854 6.6753
" />
<path d="M132.0854 6.6753
L131.9644 6.6149
" />
<path d="M131.9644 6.6149
L131.9040 6.4939
" />
<path d="M131.9040 6.4939
L131.9040 6.0101
" />
<path d="M131.9040 6.0101
L131.9644 5.8891
" />
<path d="M131.9644 5.8891
L132.0854 5.8287
" />
<path d="M132.0854 5.8287
L132.3273 5.8287
" />
<path d="M132.3273 5.8287
L132.4482 5.8891
" />
<path d="M132.4482 5.8891
L132.5087 6.0101
" />
<path d="M132.5087 6.0101
L132.5087 6.1310
" />
<path d="M132.5087 6.1310
L131.9040 6.2520
" />
<path d="M133.5368 6.6149
L133.4159 6.6753
" />
<path d="M133.4159 6.6753
L133.1740 6.6753
" />
<path d="M133.1740 6.6753
L133.0530 6.6149
" />
<path d="M133.0530 6.6149
L132.9926 6.4939
" />
<path d="M132.9926 6.4939
L132.9926 6.0101
" />
<path d="M132.9926 6.0101
L133.0530 5.8891
" />
<path d="M133.0530 5.8891
L133.1740 5.8287
" />
<path d="M133.1740 5.8287
L133.4159 5.8287
" />
<path d="M133.4159 5.8287
L133.5368 5.8891
" />
<path d="M133.5368 5.8891
L133.5973 6.0101
" />
<path d="M133.5973 6.0101
L133.5973 6.1310
" />
<path d="M133.5973 6.1310
L132.9926 6.2520
" />
<path d="M134.0812 6.6753
L135.0488 5.4053
" />
<path d="M134.2626 5.4053
L134.3835 5.4658
" />
<path d="M134.3835 5.4658
L134.4440 5.5868
" />
<path d="M134.4440 5.5868
L134.3835 5.7077
" />
<path d="M134.3835 5.7077
L134.2626 5.7682
" />
<path d="M134.2626 5.7682
L134.1416 5.7077
" />
<path d="M134.1416 5.7077
L134.0812 5.5868
" />
<path d="M134.0812 5.5868
L134.1416 5.4658
" />
<path d="M134.1416 5.4658
L134.2626 5.4053
" />
<path d="M134.9883 6.6149
L135.0488 6.4939
" />
<path d="M135.0488 6.4939
L134.9883 6.3729
" />
<path d="M134.9883 6.3729
L134.8673 6.3125
" />
<path d="M134.8673 6.3125
L134.7464 6.3729
" />
<path d="M134.7464 6.3729
L134.6859 6.4939
" />
<path d="M134.6859 6.4939
L134.7464 6.6149
" />
<path d="M134.7464 6.6149
L134.8673 6.6753
" />
<path d="M134.8673 6.6753
L134.9883 6.6149
" />
<path d="M135.5326 5.5263
L135.5930 5.4658
" />
<path d="M135.5930 5.4658
L135.7140 5.4053
" />
<path d="M135.7140 5.4053
L136.0164 5.4053
" />
<path d="M136.0164 5.4053
L136.1373 5.4658
" />
<path d="M136.1373 5.4658
L136.1978 5.5263
" />
<path d="M136.1978 5.5263
L136.2583 5.6472
" />
<path d="M136.2583 5.6472
L136.2583 5.7682
" />
<path d="M136.2583 5.7682
L136.1978 5.9496
" />
<path d="M136.1978 5.9496
L135.4721 6.6753
" />
<path d="M135.4721 6.6753
L136.2583 6.6753
" />
<path d="M137.0444 5.4053
L137.1654 5.4053
" />
<path d="M137.1654 5.4053
L137.2863 5.4658
" />
<path d="M137.2863 5.4658
L137.3468 5.5263
" />
<path d="M137.3468 5.5263
L137.4073 5.6472
" />
<path d="M137.4073 5.6472
L137.4678 5.8891
" />
<path d="M137.4678 5.8891
L137.4678 6.1915
" />
<path d="M137.4678 6.1915
L137.4073 6.4334
" />
<path d="M137.4073 6.4334
L137.3468 6.5544
" />
<path d="M137.3468 6.5544
L137.2863 6.6149
" />
<path d="M137.2863 6.6149
L137.1654 6.6753
" />
<path d="M137.1654 6.6753
L137.0444 6.6753
" />
<path d="M137.0444 6.6753
L136.9235 6.6149
" />
<path d="M136.9235 6.6149
L136.8630 6.5544
" />
<path d="M136.8630 6.5544
L136.8025 6.4334
" />
<path d="M136.8025 6.4334
L136.7421 6.1915
" />
<path d="M136.7421 6.1915
L136.7421 5.8891
" />
<path d="M136.7421 5.8891
L136.8025 5.6472
" />
<path d="M136.8025 5.6472
L136.8630 5.5263
" />
<path d="M136.8630 5.5263
L136.9235 5.4658
" />
<path d="M136.9235 5.4658
L137.0444 5.4053
" />
<path d="M138.0120 6.6753
L138.0120 5.4053
" />
<path d="M138.0120 5.4053
L138.4958 5.4053
" />
<path d="M138.4958 5.4053
L138.6168 5.4658
" />
<path d="M138.6168 5.4658
L138.6773 5.5263
" />
<path d="M138.6773 5.5263
L138.7377 5.6472
" />
<path d="M138.7377 5.6472
L138.7377 5.8287
" />
<path d="M138.7377 5.8287
L138.6773 5.9496
" />
<path d="M138.6773 5.9496
L138.6168 6.0101
" />
<path d="M138.6168 6.0101
L138.4958 6.0706
" />
<path d="M138.4958 6.0706
L138.0120 6.0706
" />
<path d="M139.2820 6.6753
L139.2820 5.8287
" />
<path d="M139.2820 6.0706
L139.3425 5.9496
" />
<path d="M139.3425 5.9496
L139.4030 5.8891
" />
<path d="M139.4030 5.8891
L139.5239 5.8287
" />
<path d="M139.5239 5.8287
L139.6449 5.8287
" />
<path d="M140.2497 6.6753
L140.1287 6.6149
" />
<path d="M140.1287 6.6149
L140.0682 6.5544
" />
<path d="M140.0682 6.5544
L140.0078 6.4334
" />
<path d="M140.0078 6.4334
L140.0078 6.0706
" />
<path d="M140.0078 6.0706
L140.0682 5.9496
" />
<path d="M140.0682 5.9496
L140.1287 5.8891
" />
<path d="M140.1287 5.8891
L140.2497 5.8287
" />
<path d="M140.2497 5.8287
L140.4311 5.8287
" />
<path d="M140.4311 5.8287
L140.5520 5.8891
" />
<path d="M140.5520 5.8891
L140.6125 5.9496
" />
<path d="M140.6125 5.9496
L140.6730 6.0706
" />
<path d="M140.6730 6.0706
L140.6730 6.4334
" />
<path d="M140.6730 6.4334
L140.6125 6.5544
" />
<path d="M140.6125 6.5544
L140.5520 6.6149
" />
<path d="M140.5520 6.6149
L140.4311 6.6753
" />
<path d="M140.4311 6.6753
L140.2497 6.6753
" />
<path d="M141.7615 6.6753
L141.7615 5.4053
" />
<path d="M141.7615 6.6149
L141.6406 6.6753
" />
<path d="M141.6406 6.6753
L141.3987 6.6753
" />
<path d="M141.3987 6.6753
L141.2777 6.6149
" />
<path d="M141.2777 6.6149
L141.2172 6.5544
" />
<path d="M141.2172 6.5544
L141.1568 6.4334
" />
<path d="M141.1568 6.4334
L141.1568 6.0706
" />
<path d="M141.1568 6.0706
L141.2172 5.9496
" />
<path d="M141.2172 5.9496
L141.2777 5.8891
" />
<path d="M141.2777 5.8891
L141.3987 5.8287
" />
<path d="M141.3987 5.8287
L141.6406 5.8287
" />
<path d="M141.6406 5.8287
L141.7615 5.8891
" />
<path d="M142.9105 5.8287
L142.9105 6.6753
" />
<path d="M142.3662 5.8287
L142.3662 6.4939
" />
<path d="M142.3662 6.4939
L142.4267 6.6149
" />
<path d="M142.4267 6.6149
L142.5477 6.6753
" />
<path d="M142.5477 6.6753
L142.7291 6.6753
" />
<path d="M142.7291 6.6753
L142.8500 6.6149
" />
<path d="M142.8500 6.6149
L142.9105 6.5544
" />
<path d="M144.0595 6.6149
L143.9386 6.6753
" />
<path d="M143.9386 6.6753
L143.6967 6.6753
" />
<path d="M143.6967 6.6753
L143.5757 6.6149
" />
<path d="M143.5757 6.6149
L143.5152 6.5544
" />
<path d="M143.5152 6.5544
L143.4548 6.4334
" />
<path d="M143.4548 6.4334
L143.4548 6.0706
" />
<path d="M143.4548 6.0706
L143.5152 5.9496
" />
<path d="M143.5152 5.9496
L143.5757 5.8891
" />
<path d="M143.5757 5.8891
L143.6967 5.8287
" />
<path d="M143.6967 5.8287
L143.9386 5.8287
" />
<path d="M143.9386 5.8287
L144.0595 5.8891
" />
<path d="M144.4224 5.8287
L144.9062 5.8287
" />
<path d="M144.6038 5.4053
L144.6038 6.4939
" />
<path d="M144.6038 6.4939
L144.6643 6.6149
" />
<path d="M144.6643 6.6149
L144.7853 6.6753
" />
<path d="M144.7853 6.6753
L144.9062 6.6753
" />
<path d="M145.2691 6.6753
L146.2367 5.4053
" />
<path d="M145.4505 5.4053
L145.5714 5.4658
" />
<path d="M145.5714 5.4658
L145.6319 5.5868
" />
<path d="M145.6319 5.5868
L145.5714 5.7077
" />
<path d="M145.5714 5.7077
L145.4505 5.7682
" />
<path d="M145.4505 5.7682
L145.3295 5.7077
" />
<path d="M145.3295 5.7077
L145.2691 5.5868
" />
<path d="M145.2691 5.5868
L145.3295 5.4658
" />
<path d="M145.3295 5.4658
L145.4505 5.4053
" />
<path d="M146.1762 6.6149
L146.2367 6.4939
" />
<path d="M146.2367 6.4939
L146.1762 6.3729
" />
<path d="M146.1762 6.3729
L146.0552 6.3125
" />
<path d="M146.0552 6.3125
L145.9343 6.3729
" />
<path d="M145.9343 6.3729
L145.8738 6.4939
" />
<path d="M145.8738 6.4939
L145.9343 6.6149
" />
<path d="M145.9343 6.6149
L146.0552 6.6753
" />
<path d="M146.0552 6.6753
L146.1762 6.6149
" />
<path d="M146.7205 5.5263
L146.7809 5.4658
" />
<path d="M146.7809 5.4658
L146.9019 5.4053
" />
<path d="M146.9019 5.4053
L147.2043 5.4053
" />
<path d="M147.2043 5.4053
L147.3252 5.4658
" />
<path d="M147.3252 5.4658
L147.3857 5.5263
" />
<path d="M147.3857 5.5263
L147.4462 5.6472
" />
<path d="M147.4462 5.6472
L147.4462 5.7682
" />
<path d="M147.4462 5.7682
L147.3857 5.9496
" />
<path d="M147.3857 5.9496
L146.6600 6.6753
" />
<path d="M146.6600 6.6753
L147.4462 6.6753
" />
<path d="M148.2323 5.4053
L148.3533 5.4053
" />
<path d="M148.3533 5.4053
L148.4742 5.4658
" />
<path d="M148.4742 5.4658
L148.5347 5.5263
" />
<path d="M148.5347 5.5263
L148.5952 5.6472
" />
<path d="M148.5952 5.6472
L148.6557 5.8891
" />
<path d="M148.6557 5.8891
L148.6557 6.1915
" />
<path d="M148.6557 6.1915
L148.5952 6.4334
" />
<path d="M148.5952 6.4334
L148.5347 6.5544
" />
<path d="M148.5347 6.5544
L148.4742 6.6149
" />
<path d="M148.4742 6.6149
L148.3533 6.6753
" />
<path d="M148.3533 6.6753
L148.2323 6.6753
" />
<path d="M148.2323 6.6753
L148.1114 6.6149
" />
<path d="M148.1114 6.6149
L148.0509 6.5544
" />
<path d="M148.0509 6.5544
L147.9904 6.4334
" />
<path d="M147.9904 6.4334
L147.9300 6.1915
" />
<path d="M147.9300 6.1915
L147.9300 5.8891
" />
<path d="M147.9300 5.8891
L147.9904 5.6472
" />
<path d="M147.9904 5.6472
L148.0509 5.5263
" />
<path d="M148.0509 5.5263
L148.1114 5.4658
" />
<path d="M148.1114 5.4658
L148.2323 5.4053
" />
<path d="M149.1999 6.1915
L150.1676 6.1915
" />
<path d="M150.7119 6.6753
L151.6795 5.4053
" />
<path d="M150.8933 5.4053
L151.0142 5.4658
" />
<path d="M151.0142 5.4658
L151.0747 5.5868
" />
<path d="M151.0747 5.5868
L151.0142 5.7077
" />
<path d="M151.0142 5.7077
L150.8933 5.7682
" />
<path d="M150.8933 5.7682
L150.7723 5.7077
" />
<path d="M150.7723 5.7077
L150.7119 5.5868
" />
<path d="M150.7119 5.5868
L150.7723 5.4658
" />
<path d="M150.7723 5.4658
L150.8933 5.4053
" />
<path d="M151.6190 6.6149
L151.6795 6.4939
" />
<path d="M151.6795 6.4939
L151.6190 6.3729
" />
<path d="M151.6190 6.3729
L151.4980 6.3125
" />
<path d="M151.4980 6.3125
L151.3771 6.3729
" />
<path d="M151.3771 6.3729
L151.3166 6.4939
" />
<path d="M151.3166 6.4939
L151.3771 6.6149
" />
<path d="M151.3771 6.6149
L151.4980 6.6753
" />
<path d="M151.4980 6.6753
L151.6190 6.6149
" />
<path d="M152.1633 5.5263
L152.2237 5.4658
" />
<path d="M152.2237 5.4658
L152.3447 5.4053
" />
<path d="M152.3447 5.4053
L152.6471 5.4053
" />
<path d="M152.6471 5.4053
L152.7680 5.4658
" />
<path d="M152.7680 5.4658
L152.8285 5.5263
" />
<path d="M152.8285 5.5263
L152.8890 5.6472
" />
<path d="M152.8890 5.6472
L152.8890 5.7682
" />
<path d="M152.8890 5.7682
L152.8285 5.9496
" />
<path d="M152.8285 5.9496
L152.1028 6.6753
" />
<path d="M152.1028 6.6753
L152.8890 6.6753
" />
<path d="M153.6751 5.4053
L153.7961 5.4053
" />
<path d="M153.7961 5.4053
L153.9170 5.4658
" />
<path d="M153.9170 5.4658
L153.9775 5.5263
" />
<path d="M153.9775 5.5263
L154.0380 5.6472
" />
<path d="M154.0380 5.6472
L154.0985 5.8891
" />
<path d="M154.0985 5.8891
L154.0985 6.1915
" />
<path d="M154.0985 6.1915
L154.0380 6.4334
" />
<path d="M154.0380 6.4334
L153.9775 6.5544
" />
<path d="M153.9775 6.5544
L153.9170 6.6149
" />
<path d="M153.9170 6.6149
L153.7961 6.6753
" />
<path d="M153.7961 6.6753
L153.6751 6.6753
" />
<path d="M153.6751 6.6753
L153.5542 6.6149
" />
<path d="M153.5542 6.6149
L153.4937 6.5544
" />
<path d="M153.4937 6.5544
L153.4332 6.4334
" />
<path d="M153.4332 6.4334
L153.3728 6.1915
" />
<path d="M153.3728 6.1915
L153.3728 5.8891
" />
<path d="M153.3728 5.8891
L153.4332 5.6472
" />
<path d="M153.4332 5.6472
L153.4937 5.5263
" />
<path d="M153.4937 5.5263
L153.5542 5.4658
" />
<path d="M153.5542 5.4658
L153.6751 5.4053
" />
<path d="M155.3684 6.6753
L154.9451 6.0706
" />
<path d="M154.6427 6.6753
L154.6427 5.4053
" />
<path d="M154.6427 5.4053
L155.1265 5.4053
" />
<path d="M155.1265 5.4053
L155.2475 5.4658
" />
<path d="M155.2475 5.4658
L155.3080 5.5263
" />
<path d="M155.3080 5.5263
L155.3684 5.6472
" />
<path d="M155.3684 5.6472
L155.3684 5.8287
" />
<path d="M155.3684 5.8287
L155.3080 5.9496
" />
<path d="M155.3080 5.9496
L155.2475 6.0101
" />
<path d="M155.2475 6.0101
L155.1265 6.0706
" />
<path d="M155.1265 6.0706
L154.6427 6.0706
" />
<path d="M156.0942 6.6753
L155.9732 6.6149
" />
<path d="M155.9732 6.6149
L155.9127 6.5544
" />
<path d="M155.9127 6.5544
L155.8523 6.4334
" />
<path d="M155.8523 6.4334
L155.8523 6.0706
" />
<path d="M155.8523 6.0706
L155.9127 5.9496
" />
<path d="M155.9127 5.9496
L155.9732 5.8891
" />
<path d="M155.9732 5.8891
L156.0942 5.8287
" />
<path d="M156.0942 5.8287
L156.2756 5.8287
" />
<path d="M156.2756 5.8287
L156.3965 5.8891
" />
<path d="M156.3965 5.8891
L156.4570 5.9496
" />
<path d="M156.4570 5.9496
L156.5175 6.0706
" />
<path d="M156.5175 6.0706
L156.5175 6.4334
" />
<path d="M156.5175 6.4334
L156.4570 6.5544
" />
<path d="M156.4570 6.5544
L156.3965 6.6149
" />
<path d="M156.3965 6.6149
L156.2756 6.6753
" />
<path d="M156.2756 6.6753
L156.0942 6.6753
" />
<path d="M157.0617 6.6753
L157.0617 5.4053
" />
<path d="M157.0617 6.0101
L157.7874 6.0101
" />
<path d="M157.7874 6.6753
L157.7874 5.4053
" />
<path d="M158.3318 6.6149
L158.5132 6.6753
" />
<path d="M158.5132 6.6753
L158.8156 6.6753
" />
<path d="M158.8156 6.6753
L158.9365 6.6149
" />
<path d="M158.9365 6.6149
L158.9970 6.5544
" />
<path d="M158.9970 6.5544
L159.0575 6.4334
" />
<path d="M159.0575 6.4334
L159.0575 6.3125
" />
<path d="M159.0575 6.3125
L158.9970 6.1915
" />
<path d="M158.9970 6.1915
L158.9365 6.1310
" />
<path d="M158.9365 6.1310
L158.8156 6.0706
" />
<path d="M158.8156 6.0706
L158.5737 6.0101
" />
<path d="M158.5737 6.0101
L158.4527 5.9496
" />
<path d="M158.4527 5.9496
L158.3922 5.8891
" />
<path d="M158.3922 5.8891
L158.3318 5.7682
" />
<path d="M158.3318 5.7682
L158.3318 5.6472
" />
<path d="M158.3318 5.6472
L158.3922 5.5263
" />
<path d="M158.3922 5.5263
L158.4527 5.4658
" />
<path d="M158.4527 5.4658
L158.5737 5.4053
" />
<path d="M158.5737 5.4053
L158.8760 5.4053
" />
<path d="M158.8760 5.4053
L159.0575 5.4658
" />
<path d="M159.5413 6.6753
L160.5089 5.4053
" />
<path d="M159.7227 5.4053
L159.8436 5.4658
" />
<path d="M159.8436 5.4658
L159.9041 5.5868
" />
<path d="M159.9041 5.5868
L159.8436 5.7077
" />
<path d="M159.8436 5.7077
L159.7227 5.7682
" />
<path d="M159.7227 5.7682
L159.6017 5.7077
" />
<path d="M159.6017 5.7077
L159.5413 5.5868
" />
<path d="M159.5413 5.5868
L159.6017 5.4658
" />
<path d="M159.6017 5.4658
L159.7227 5.4053
" />
<path d="M160.4484 6.6149
L160.5089 6.4939
" />
<path d="M160.5089 6.4939
L160.4484 6.3729
" />
<path d="M160.4484 6.3729
L160.3274 6.3125
" />
<path d="M160.3274 6.3125
L160.2065 6.3729
" />
<path d="M160.2065 6.3729
L160.1460 6.4939
" />
<path d="M160.1460 6.4939
L160.2065 6.6149
" />
<path d="M160.2065 6.6149
L160.3274 6.6753
" />
<path d="M160.3274 6.6753
L160.4484 6.6149
" />
<path d="M160.9927 5.5263
L161.0531 5.4658
" />
<path d="M161.0531 5.4658
L161.1741 5.4053
" />
<path d="M161.1741 5.4053
L161.4765 5.4053
" />
<path d="M161.4765 5.4053
L161.5974 5.4658
" />
<path d="M161.5974 5.4658
L161.6579 5.5263
" />
<path d="M161.6579 5.5263
L161.7184 5.6472
" />
<path d="M161.7184 5.6472
L161.7184 5.7682
" />
<path d="M161.7184 5.7682
L161.6579 5.9496
" />
<path d="M161.6579 5.9496
L160.9322 6.6753
" />
<path d="M160.9322 6.6753
L161.7184 6.6753
" />
<path d="M162.5045 5.4053
L162.6255 5.4053
" />
<path d="M162.6255 5.4053
L162.7464 5.4658
" />
<path d="M162.7464 5.4658
L162.8069 5.5263
" />
<path d="M162.8069 5.5263
L162.8674 5.6472
" />
<path d="M162.8674 5.6472
L162.9279 5.8891
" />
<path d="M162.9279 5.8891
L162.9279 6.1915
" />
<path d="M162.9279 6.1915
L162.8674 6.4334
" />
<path d="M162.8674 6.4334
L162.8069 6.5544
" />
<path d="M162.8069 6.5544
L162.7464 6.6149
" />
<path d="M162.7464 6.6149
L162.6255 6.6753
" />
<path d="M162.6255 6.6753
L162.5045 6.6753
" />
<path d="M162.5045 6.6753
L162.3836 6.6149
" />
<path d="M162.3836 6.6149
L162.3231 6.5544
" />
<path d="M162.3231 6.5544
L162.2626 6.4334
" />
<path d="M162.2626 6.4334
L162.2022 6.1915
" />
<path d="M162.2022 6.1915
L162.2022 5.8891
" />
<path d="M162.2022 5.8891
L162.2626 5.6472
" />
<path d="M162.2626 5.6472
L162.3231 5.5263
" />
<path d="M162.3231 5.5263
L162.3836 5.4658
" />
<path d="M162.3836 5.4658
L162.5045 5.4053
" />
<path d="M164.1978 6.5544
L164.1374 6.6149
" />
<path d="M164.1374 6.6149
L163.9559 6.6753
" />
<path d="M163.9559 6.6753
L163.8350 6.6753
" />
<path d="M163.8350 6.6753
L163.6536 6.6149
" />
<path d="M163.6536 6.6149
L163.5326 6.4939
" />
<path d="M163.5326 6.4939
L163.4721 6.3729
" />
<path d="M163.4721 6.3729
L163.4117 6.1310
" />
<path d="M163.4117 6.1310
L163.4117 5.9496
" />
<path d="M163.4117 5.9496
L163.4721 5.7077
" />
<path d="M163.4721 5.7077
L163.5326 5.5868
" />
<path d="M163.5326 5.5868
L163.6536 5.4658
" />
<path d="M163.6536 5.4658
L163.8350 5.4053
" />
<path d="M163.8350 5.4053
L163.9559 5.4053
" />
<path d="M163.9559 5.4053
L164.1374 5.4658
" />
<path d="M164.1374 5.4658
L164.1978 5.5263
" />
<path d="M164.9236 6.6753
L164.8026 6.6149
" />
<path d="M164.8026 6.6149
L164.7421 6.5544
" />
<path d="M164.7421 6.5544
L164.6817 6.4334
" />
<path d="M164.6817 6.4334
L164.6817 6.0706
" />
<path d="M164.6817 6.0706
L164.7421 5.9496
" />
<path d="M164.7421 5.9496
L164.8026 5.8891
" />
<path d="M164.8026 5.8891
L164.9236 5.8287
" />
<path d="M164.9236 5.8287
L165.1050 5.8287
" />
<path d="M165.1050 5.8287
L165.2259 5.8891
" />
<path d="M165.2259 5.8891
L165.2864 5.9496
" />
<path d="M165.2864 5.9496
L165.3469 6.0706
" />
<path d="M165.3469 6.0706
L165.3469 6.4334
" />
<path d="M165.3469 6.4334
L165.2864 6.5544
" />
<path d="M165.2864 6.5544
L165.2259 6.6149
" />
<path d="M165.2259 6.6149
L165.1050 6.6753
" />
<path d="M165.1050 6.6753
L164.9236 6.6753
" />
<path d="M165.8911 6.6753
L165.8911 5.8287
" />
<path d="M165.8911 5.9496
L165.9516 5.8891
" />
<path d="M165.9516 5.8891
L166.0726 5.8287
" />
<path d="M166.0726 5.8287
L166.2540 5.8287
" />
<path d="M166.2540 5.8287
L166.3749 5.8891
" />
<path d="M166.3749 5.8891
L166.4354 6.0101
" />
<path d="M166.4354 6.0101
L166.4354 6.6753
" />
<path d="M166.4354 6.0101
L166.4959 5.8891
" />
<path d="M166.4959 5.8891
L166.6168 5.8287
" />
<path d="M166.6168 5.8287
L166.7983 5.8287
" />
<path d="M166.7983 5.8287
L166.9192 5.8891
" />
<path d="M166.9192 5.8891
L166.9797 6.0101
" />
<path d="M166.9797 6.0101
L166.9797 6.6753
" />
<path d="M167.5844 5.8287
L167.5844 7.0987
" />
<path d="M167.5844 5.8891
L167.7054 5.8287
" />
<path d="M167.7054 5.8287
L167.9473 5.8287
" />
<path d="M167.9473 5.8287
L168.0682 5.8891
" />
<path d="M168.0682 5.8891
L168.1287 5.9496
" />
<path d="M168.1287 5.9496
L168.1892 6.0706
" />
<path d="M168.1892 6.0706
L168.1892 6.4334
" />
<path d="M168.1892 6.4334
L168.1287 6.5544
" />
<path d="M168.1287 6.5544
L168.0682 6.6149
" />
<path d="M168.0682 6.6149
L167.9473 6.6753
" />
<path d="M167.9473 6.6753
L167.7054 6.6753
" />
<path d="M167.7054 6.6753
L167.5844 6.6149
" />
<path d="M168.9149 6.6753
L168.7939 6.6149
" />
<path d="M168.7939 6.6149
L168.7334 6.4939
" />
<path d="M168.7334 6.4939
L168.7334 5.4053
" />
<path d="M169.3986 6.6753
L169.3986 5.8287
" />
<path d="M169.3986 5.4053
L169.3382 5.4658
" />
<path d="M169.3382 5.4658
L169.3986 5.5263
" />
<path d="M169.3986 5.5263
L169.4591 5.4658
" />
<path d="M169.4591 5.4658
L169.3986 5.4053
" />
<path d="M169.3986 5.4053
L169.3986 5.5263
" />
<path d="M170.5477 6.6753
L170.5477 6.0101
" />
<path d="M170.5477 6.0101
L170.4872 5.8891
" />
<path d="M170.4872 5.8891
L170.3663 5.8287
" />
<path d="M170.3663 5.8287
L170.1244 5.8287
" />
<path d="M170.1244 5.8287
L170.0034 5.8891
" />
<path d="M170.5477 6.6149
L170.4268 6.6753
" />
<path d="M170.4268 6.6753
L170.1244 6.6753
" />
<path d="M170.1244 6.6753
L170.0034 6.6149
" />
<path d="M170.0034 6.6149
L169.9430 6.4939
" />
<path d="M169.9430 6.4939
L169.9430 6.3729
" />
<path d="M169.9430 6.3729
L170.0034 6.2520
" />
<path d="M170.0034 6.2520
L170.1244 6.1915
" />
<path d="M170.1244 6.1915
L170.4268 6.1915
" />
<path d="M170.4268 6.1915
L170.5477 6.1310
" />
<path d="M171.1524 5.8287
L171.1524 6.6753
" />
<path d="M171.1524 5.9496
L171.2129 5.8891
" />
<path d="M171.2129 5.8891
L171.3339 5.8287
" />
<path d="M171.3339 5.8287
L171.5153 5.8287
" />
<path d="M171.5153 5.8287
L171.6362 5.8891
" />
<path d="M171.6362 5.8891
L171.6967 6.0101
" />
<path d="M171.6967 6.0101
L171.6967 6.6753
" />
<path d="M172.1200 5.8287
L172.6038 5.8287
" />
<path d="M172.3014 5.4053
L172.3014 6.4939
" />
<path d="M172.3014 6.4939
L172.3619 6.6149
" />
<path d="M172.3619 6.6149
L172.4829 6.6753
" />
<path d="M172.4829 6.6753
L172.6038 6.6753
" />
<path d="M173.0271 6.5544
L173.0876 6.6149
" />
<path d="M173.0876 6.6149
L173.0271 6.6753
" />
<path d="M173.0271 6.6753
L172.9667 6.6149
" />
<path d="M172.9667 6.6149
L173.0271 6.5544
" />
<path d="M173.0271 6.5544
L173.0271 6.6753
" />
<path d="M173.6319 5.8287
L173.6319 7.0987
" />
<path d="M173.6319 5.8891
L173.7529 5.8287
" />
<path d="M173.7529 5.8287
L173.9948 5.8287
" />
<path d="M173.9948 5.8287
L174.1157 5.8891
" />
<path d="M174.1157 5.8891
L174.1762 5.9496
" />
<path d="M174.1762 5.9496
L174.2367 6.0706
" />
<path d="M174.2367 6.0706
L174.2367 6.4334
" />
<path d="M174.2367 6.4334
L174.1762 6.5544
" />
<path d="M174.1762 6.5544
L174.1157 6.6149
" />
<path d="M174.1157 6.6149
L173.9948 6.6753
" />
<path d="M173.9948 6.6753
L173.7529 6.6753
" />
<path d="M173.7529 6.6753
L173.6319 6.6149
" />
<path d="M175.3252 6.6753
L175.3252 5.4053
" />
<path d="M175.3252 6.6149
L175.2043 6.6753
" />
<path d="M175.2043 6.6753
L174.9624 6.6753
" />
<path d="M174.9624 6.6753
L174.8414 6.6149
" />
<path d="M174.8414 6.6149
L174.7809 6.5544
" />
<path d="M174.7809 6.5544
L174.7205 6.4334
" />
<path d="M174.7205 6.4334
L174.7205 6.0706
" />
<path d="M174.7205 6.0706
L174.7809 5.9496
" />
<path d="M174.7809 5.9496
L174.8414 5.8891
" />
<path d="M174.8414 5.8891
L174.9624 5.8287
" />
<path d="M174.9624 5.8287
L175.2043 5.8287
" />
<path d="M175.2043 5.8287
L175.3252 5.8891
" />
<path d="M175.7485 5.8287
L176.2323 5.8287
" />
<path d="M175.9299 6.6753
L175.9299 5.5868
" />
<path d="M175.9299 5.5868
L175.9904 5.4658
" />
<path d="M175.9904 5.4658
L176.1114 5.4053
" />
<path d="M176.1114 5.4053
L176.2323 5.4053
" />
</g></g> 
</svg>
