<?xml version="1.0" standalone="no"?>
 <!DOCTYPE svg PUBLIC "-//W3C//DTD SVG 1.1//EN" 
 "http://www.w3.org/Graphics/SVG/1.1/DTD/svg11.dtd"> 
<svg
  xmlns:svg="http://www.w3.org/2000/svg"
  xmlns="http://www.w3.org/2000/svg"
  xmlns:xlink="http://www.w3.org/1999/xlink"
  version="1.1"
  width="113.9190mm" height="131.2418mm" viewBox="0.0000 0.0000 113.9190 131.2418">
<title>SVG Image created as working.svg date 2023/08/19 04:51:34 </title>
  <desc>Image generated by Eeschema-SVG </desc>
<g style="fill:#000000; fill-opacity:1.0000;stroke:#000000; stroke-opacity:1.0000;
stroke-linecap:round; stroke-linejoin:round;"
 transform="translate(0 0) scale(1 1)">
</g>
<g style="fill:#840000; fill-opacity:0.0; 
stroke:#840000; stroke-width:0.0000; stroke-opacity:1; 
stroke-linecap:round; stroke-linejoin:round;">
</g>
<g style="fill:#840084; fill-opacity:0.0; 
stroke:#840084; stroke-width:0.0000; stroke-opacity:1; 
stroke-linecap:round; stroke-linejoin:round;">
</g>
<g style="fill:#840000; fill-opacity:0.0; 
stroke:#840000; stroke-width:0.0000; stroke-opacity:1; 
stroke-linecap:round; stroke-linejoin:round;">
</g>
<g style="fill:#840084; fill-opacity:0.0; 
stroke:#840084; stroke-width:0.0000; stroke-opacity:1; 
stroke-linecap:round; stroke-linejoin:round;">
</g>
<g style="fill:#006464; fill-opacity:0.0; 
stroke:#006464; stroke-width:0.0000; stroke-opacity:1; 
stroke-linecap:round; stroke-linejoin:round;">
</g>
<g style="fill:#006464; fill-opacity:0.0; 
stroke:#006464; stroke-width:0.1588; stroke-opacity:1; 
stroke-linecap:round; stroke-linejoin:round;">
<text x="10.8134" y="12.5924"
textLength="2.6415" font-size="1.6933" lengthAdjust="spacingAndGlyphs"
text-anchor="middle" opacity="0">U?</text>
<g class="stroked-text"><desc>U?</desc>
<path d="M9.9062 11.2666
L9.9062 12.2947
" />
<path d="M9.9062 12.2947
L9.9667 12.4157
" />
<path d="M9.9667 12.4157
L10.0272 12.4762
" />
<path d="M10.0272 12.4762
L10.1481 12.5366
" />
<path d="M10.1481 12.5366
L10.3900 12.5366
" />
<path d="M10.3900 12.5366
L10.5110 12.4762
" />
<path d="M10.5110 12.4762
L10.5715 12.4157
" />
<path d="M10.5715 12.4157
L10.6319 12.2947
" />
<path d="M10.6319 12.2947
L10.6319 11.2666
" />
<path d="M11.4182 12.4157
L11.4786 12.4762
" />
<path d="M11.4786 12.4762
L11.4182 12.5366
" />
<path d="M11.4182 12.5366
L11.3577 12.4762
" />
<path d="M11.3577 12.4762
L11.4182 12.4157
" />
<path d="M11.4182 12.4157
L11.4182 12.5366
" />
<path d="M11.1763 11.3271
L11.2972 11.2666
" />
<path d="M11.2972 11.2666
L11.5996 11.2666
" />
<path d="M11.5996 11.2666
L11.7205 11.3271
" />
<path d="M11.7205 11.3271
L11.7810 11.4481
" />
<path d="M11.7810 11.4481
L11.7810 11.5690
" />
<path d="M11.7810 11.5690
L11.7205 11.6900
" />
<path d="M11.7205 11.6900
L11.6601 11.7504
" />
<path d="M11.6601 11.7504
L11.5391 11.8109
" />
<path d="M11.5391 11.8109
L11.4786 11.8714
" />
<path d="M11.4786 11.8714
L11.4182 11.9923
" />
<path d="M11.4182 11.9923
L11.4182 12.0528
" />
</g><text x="52.9546" y="12.5924"
textLength="14.6761" font-size="1.6933" lengthAdjust="spacingAndGlyphs"
text-anchor="middle" opacity="0">MKL26Z64VLH4</text>
<g class="stroked-text"><desc>MKL26Z64VLH4</desc>
<path d="M46.0301 12.5366
L46.0301 11.2666
" />
<path d="M46.0301 11.2666
L46.4535 12.1738
" />
<path d="M46.4535 12.1738
L46.8768 11.2666
" />
<path d="M46.8768 11.2666
L46.8768 12.5366
" />
<path d="M47.4815 12.5366
L47.4815 11.2666
" />
<path d="M48.2072 12.5366
L47.6630 11.8109
" />
<path d="M48.2072 11.2666
L47.4815 11.9923
" />
<path d="M49.3563 12.5366
L48.7515 12.5366
" />
<path d="M48.7515 12.5366
L48.7515 11.2666
" />
<path d="M49.7192 11.3876
L49.7796 11.3271
" />
<path d="M49.7796 11.3271
L49.9006 11.2666
" />
<path d="M49.9006 11.2666
L50.2030 11.2666
" />
<path d="M50.2030 11.2666
L50.3239 11.3271
" />
<path d="M50.3239 11.3271
L50.3844 11.3876
" />
<path d="M50.3844 11.3876
L50.4449 11.5085
" />
<path d="M50.4449 11.5085
L50.4449 11.6295
" />
<path d="M50.4449 11.6295
L50.3844 11.8109
" />
<path d="M50.3844 11.8109
L49.6587 12.5366
" />
<path d="M49.6587 12.5366
L50.4449 12.5366
" />
<path d="M51.5334 11.2666
L51.2915 11.2666
" />
<path d="M51.2915 11.2666
L51.1706 11.3271
" />
<path d="M51.1706 11.3271
L51.1101 11.3876
" />
<path d="M51.1101 11.3876
L50.9891 11.5690
" />
<path d="M50.9891 11.5690
L50.9287 11.8109
" />
<path d="M50.9287 11.8109
L50.9287 12.2947
" />
<path d="M50.9287 12.2947
L50.9891 12.4157
" />
<path d="M50.9891 12.4157
L51.0496 12.4762
" />
<path d="M51.0496 12.4762
L51.1706 12.5366
" />
<path d="M51.1706 12.5366
L51.4125 12.5366
" />
<path d="M51.4125 12.5366
L51.5334 12.4762
" />
<path d="M51.5334 12.4762
L51.5939 12.4157
" />
<path d="M51.5939 12.4157
L51.6544 12.2947
" />
<path d="M51.6544 12.2947
L51.6544 11.9923
" />
<path d="M51.6544 11.9923
L51.5939 11.8714
" />
<path d="M51.5939 11.8714
L51.5334 11.8109
" />
<path d="M51.5334 11.8109
L51.4125 11.7504
" />
<path d="M51.4125 11.7504
L51.1706 11.7504
" />
<path d="M51.1706 11.7504
L51.0496 11.8109
" />
<path d="M51.0496 11.8109
L50.9891 11.8714
" />
<path d="M50.9891 11.8714
L50.9287 11.9923
" />
<path d="M52.0777 11.2666
L52.9243 11.2666
" />
<path d="M52.9243 11.2666
L52.0777 12.5366
" />
<path d="M52.0777 12.5366
L52.9243 12.5366
" />
<path d="M53.9524 11.2666
L53.7105 11.2666
" />
<path d="M53.7105 11.2666
L53.5896 11.3271
" />
<path d="M53.5896 11.3271
L53.5291 11.3876
" />
<path d="M53.5291 11.3876
L53.4081 11.5690
" />
<path d="M53.4081 11.5690
L53.3477 11.8109
" />
<path d="M53.3477 11.8109
L53.3477 12.2947
" />
<path d="M53.3477 12.2947
L53.4081 12.4157
" />
<path d="M53.4081 12.4157
L53.4686 12.4762
" />
<path d="M53.4686 12.4762
L53.5896 12.5366
" />
<path d="M53.5896 12.5366
L53.8315 12.5366
" />
<path d="M53.8315 12.5366
L53.9524 12.4762
" />
<path d="M53.9524 12.4762
L54.0129 12.4157
" />
<path d="M54.0129 12.4157
L54.0734 12.2947
" />
<path d="M54.0734 12.2947
L54.0734 11.9923
" />
<path d="M54.0734 11.9923
L54.0129 11.8714
" />
<path d="M54.0129 11.8714
L53.9524 11.8109
" />
<path d="M53.9524 11.8109
L53.8315 11.7504
" />
<path d="M53.8315 11.7504
L53.5896 11.7504
" />
<path d="M53.5896 11.7504
L53.4686 11.8109
" />
<path d="M53.4686 11.8109
L53.4081 11.8714
" />
<path d="M53.4081 11.8714
L53.3477 11.9923
" />
<path d="M55.1619 11.6900
L55.1619 12.5366
" />
<path d="M54.8595 11.2062
L54.5572 12.1133
" />
<path d="M54.5572 12.1133
L55.3433 12.1133
" />
<path d="M55.6457 11.2666
L56.0690 12.5366
" />
<path d="M56.0690 12.5366
L56.4924 11.2666
" />
<path d="M57.5205 12.5366
L56.9157 12.5366
" />
<path d="M56.9157 12.5366
L56.9157 11.2666
" />
<path d="M57.9438 12.5366
L57.9438 11.2666
" />
<path d="M57.9438 11.8714
L58.6695 11.8714
" />
<path d="M58.6695 12.5366
L58.6695 11.2666
" />
<path d="M59.8186 11.6900
L59.8186 12.5366
" />
<path d="M59.5162 11.2062
L59.2139 12.1133
" />
<path d="M59.2139 12.1133
L60.0000 12.1133
" />
</g></g>
<g style="fill:#840084; fill-opacity:0.0; 
stroke:#840084; stroke-width:0.1588; stroke-opacity:1; 
stroke-linecap:round; stroke-linejoin:round;">
<text x="61.7342" y="116.9120"
textLength="40.9831" font-size="1.6933" lengthAdjust="spacingAndGlyphs"
text-anchor="middle" opacity="0">Package_QFP:LQFP-64_10x10mm_P0.5mm</text>
<g class="stroked-text"><desc>Package_QFP:LQFP-64_10x10mm_P0.5mm</desc>
<path d="M41.6562 116.8562
L41.6562 115.5862
" />
<path d="M41.6562 115.5862
L42.1400 115.5862
" />
<path d="M42.1400 115.5862
L42.2610 115.6467
" />
<path d="M42.2610 115.6467
L42.3215 115.7072
" />
<path d="M42.3215 115.7072
L42.3819 115.8281
" />
<path d="M42.3819 115.8281
L42.3819 116.0096
" />
<path d="M42.3819 116.0096
L42.3215 116.1305
" />
<path d="M42.3215 116.1305
L42.2610 116.1910
" />
<path d="M42.2610 116.1910
L42.1400 116.2515
" />
<path d="M42.1400 116.2515
L41.6562 116.2515
" />
<path d="M43.4705 116.8562
L43.4705 116.1910
" />
<path d="M43.4705 116.1910
L43.4100 116.0700
" />
<path d="M43.4100 116.0700
L43.2891 116.0096
" />
<path d="M43.2891 116.0096
L43.0472 116.0096
" />
<path d="M43.0472 116.0096
L42.9262 116.0700
" />
<path d="M43.4705 116.7958
L43.3496 116.8562
" />
<path d="M43.3496 116.8562
L43.0472 116.8562
" />
<path d="M43.0472 116.8562
L42.9262 116.7958
" />
<path d="M42.9262 116.7958
L42.8658 116.6748
" />
<path d="M42.8658 116.6748
L42.8658 116.5538
" />
<path d="M42.8658 116.5538
L42.9262 116.4329
" />
<path d="M42.9262 116.4329
L43.0472 116.3724
" />
<path d="M43.0472 116.3724
L43.3496 116.3724
" />
<path d="M43.3496 116.3724
L43.4705 116.3119
" />
<path d="M44.6195 116.7958
L44.4986 116.8562
" />
<path d="M44.4986 116.8562
L44.2567 116.8562
" />
<path d="M44.2567 116.8562
L44.1357 116.7958
" />
<path d="M44.1357 116.7958
L44.0752 116.7353
" />
<path d="M44.0752 116.7353
L44.0148 116.6143
" />
<path d="M44.0148 116.6143
L44.0148 116.2515
" />
<path d="M44.0148 116.2515
L44.0752 116.1305
" />
<path d="M44.0752 116.1305
L44.1357 116.0700
" />
<path d="M44.1357 116.0700
L44.2567 116.0096
" />
<path d="M44.2567 116.0096
L44.4986 116.0096
" />
<path d="M44.4986 116.0096
L44.6195 116.0700
" />
<path d="M45.1638 116.8562
L45.1638 115.5862
" />
<path d="M45.2848 116.3724
L45.6476 116.8562
" />
<path d="M45.6476 116.0096
L45.1638 116.4934
" />
<path d="M46.7362 116.8562
L46.7362 116.1910
" />
<path d="M46.7362 116.1910
L46.6757 116.0700
" />
<path d="M46.6757 116.0700
L46.5548 116.0096
" />
<path d="M46.5548 116.0096
L46.3129 116.0096
" />
<path d="M46.3129 116.0096
L46.1919 116.0700
" />
<path d="M46.7362 116.7958
L46.6153 116.8562
" />
<path d="M46.6153 116.8562
L46.3129 116.8562
" />
<path d="M46.3129 116.8562
L46.1919 116.7958
" />
<path d="M46.1919 116.7958
L46.1315 116.6748
" />
<path d="M46.1315 116.6748
L46.1315 116.5538
" />
<path d="M46.1315 116.5538
L46.1919 116.4329
" />
<path d="M46.1919 116.4329
L46.3129 116.3724
" />
<path d="M46.3129 116.3724
L46.6153 116.3724
" />
<path d="M46.6153 116.3724
L46.7362 116.3119
" />
<path d="M47.8852 116.0096
L47.8852 117.0377
" />
<path d="M47.8852 117.0377
L47.8247 117.1586
" />
<path d="M47.8247 117.1586
L47.7643 117.2191
" />
<path d="M47.7643 117.2191
L47.6433 117.2796
" />
<path d="M47.6433 117.2796
L47.4619 117.2796
" />
<path d="M47.4619 117.2796
L47.3409 117.2191
" />
<path d="M47.8852 116.7958
L47.7643 116.8562
" />
<path d="M47.7643 116.8562
L47.5224 116.8562
" />
<path d="M47.5224 116.8562
L47.4014 116.7958
" />
<path d="M47.4014 116.7958
L47.3409 116.7353
" />
<path d="M47.3409 116.7353
L47.2805 116.6143
" />
<path d="M47.2805 116.6143
L47.2805 116.2515
" />
<path d="M47.2805 116.2515
L47.3409 116.1305
" />
<path d="M47.3409 116.1305
L47.4014 116.0700
" />
<path d="M47.4014 116.0700
L47.5224 116.0096
" />
<path d="M47.5224 116.0096
L47.7643 116.0096
" />
<path d="M47.7643 116.0096
L47.8852 116.0700
" />
<path d="M48.9737 116.7958
L48.8528 116.8562
" />
<path d="M48.8528 116.8562
L48.6109 116.8562
" />
<path d="M48.6109 116.8562
L48.4899 116.7958
" />
<path d="M48.4899 116.7958
L48.4295 116.6748
" />
<path d="M48.4295 116.6748
L48.4295 116.1910
" />
<path d="M48.4295 116.1910
L48.4899 116.0700
" />
<path d="M48.4899 116.0700
L48.6109 116.0096
" />
<path d="M48.6109 116.0096
L48.8528 116.0096
" />
<path d="M48.8528 116.0096
L48.9737 116.0700
" />
<path d="M48.9737 116.0700
L49.0342 116.1910
" />
<path d="M49.0342 116.1910
L49.0342 116.3119
" />
<path d="M49.0342 116.3119
L48.4295 116.4329
" />
<path d="M49.2762 116.9772
L50.2438 116.9772
" />
<path d="M51.3928 116.9772
L51.2718 116.9167
" />
<path d="M51.2718 116.9167
L51.1509 116.7958
" />
<path d="M51.1509 116.7958
L50.9695 116.6143
" />
<path d="M50.9695 116.6143
L50.8485 116.5538
" />
<path d="M50.8485 116.5538
L50.7276 116.5538
" />
<path d="M50.7880 116.8562
L50.6671 116.7958
" />
<path d="M50.6671 116.7958
L50.5461 116.6748
" />
<path d="M50.5461 116.6748
L50.4857 116.4329
" />
<path d="M50.4857 116.4329
L50.4857 116.0096
" />
<path d="M50.4857 116.0096
L50.5461 115.7677
" />
<path d="M50.5461 115.7677
L50.6671 115.6467
" />
<path d="M50.6671 115.6467
L50.7880 115.5862
" />
<path d="M50.7880 115.5862
L51.0299 115.5862
" />
<path d="M51.0299 115.5862
L51.1509 115.6467
" />
<path d="M51.1509 115.6467
L51.2718 115.7677
" />
<path d="M51.2718 115.7677
L51.3323 116.0096
" />
<path d="M51.3323 116.0096
L51.3323 116.4329
" />
<path d="M51.3323 116.4329
L51.2718 116.6748
" />
<path d="M51.2718 116.6748
L51.1509 116.7958
" />
<path d="M51.1509 116.7958
L51.0299 116.8562
" />
<path d="M51.0299 116.8562
L50.7880 116.8562
" />
<path d="M52.3000 116.1910
L51.8766 116.1910
" />
<path d="M51.8766 116.8562
L51.8766 115.5862
" />
<path d="M51.8766 115.5862
L52.4814 115.5862
" />
<path d="M52.9652 116.8562
L52.9652 115.5862
" />
<path d="M52.9652 115.5862
L53.4490 115.5862
" />
<path d="M53.4490 115.5862
L53.5700 115.6467
" />
<path d="M53.5700 115.6467
L53.6305 115.7072
" />
<path d="M53.6305 115.7072
L53.6909 115.8281
" />
<path d="M53.6909 115.8281
L53.6909 116.0096
" />
<path d="M53.6909 116.0096
L53.6305 116.1305
" />
<path d="M53.6305 116.1305
L53.5700 116.1910
" />
<path d="M53.5700 116.1910
L53.4490 116.2515
" />
<path d="M53.4490 116.2515
L52.9652 116.2515
" />
<path d="M54.2352 116.7353
L54.2957 116.7958
" />
<path d="M54.2957 116.7958
L54.2352 116.8562
" />
<path d="M54.2352 116.8562
L54.1748 116.7958
" />
<path d="M54.1748 116.7958
L54.2352 116.7353
" />
<path d="M54.2352 116.7353
L54.2352 116.8562
" />
<path d="M54.2352 116.0700
L54.2957 116.1305
" />
<path d="M54.2957 116.1305
L54.2352 116.1910
" />
<path d="M54.2352 116.1910
L54.1748 116.1305
" />
<path d="M54.1748 116.1305
L54.2352 116.0700
" />
<path d="M54.2352 116.0700
L54.2352 116.1910
" />
<path d="M55.4448 116.8562
L54.8400 116.8562
" />
<path d="M54.8400 116.8562
L54.8400 115.5862
" />
<path d="M56.7148 116.9772
L56.5938 116.9167
" />
<path d="M56.5938 116.9167
L56.4729 116.7958
" />
<path d="M56.4729 116.7958
L56.2915 116.6143
" />
<path d="M56.2915 116.6143
L56.1705 116.5538
" />
<path d="M56.1705 116.5538
L56.0496 116.5538
" />
<path d="M56.1100 116.8562
L55.9891 116.7958
" />
<path d="M55.9891 116.7958
L55.8681 116.6748
" />
<path d="M55.8681 116.6748
L55.8077 116.4329
" />
<path d="M55.8077 116.4329
L55.8077 116.0096
" />
<path d="M55.8077 116.0096
L55.8681 115.7677
" />
<path d="M55.8681 115.7677
L55.9891 115.6467
" />
<path d="M55.9891 115.6467
L56.1100 115.5862
" />
<path d="M56.1100 115.5862
L56.3519 115.5862
" />
<path d="M56.3519 115.5862
L56.4729 115.6467
" />
<path d="M56.4729 115.6467
L56.5938 115.7677
" />
<path d="M56.5938 115.7677
L56.6543 116.0096
" />
<path d="M56.6543 116.0096
L56.6543 116.4329
" />
<path d="M56.6543 116.4329
L56.5938 116.6748
" />
<path d="M56.5938 116.6748
L56.4729 116.7958
" />
<path d="M56.4729 116.7958
L56.3519 116.8562
" />
<path d="M56.3519 116.8562
L56.1100 116.8562
" />
<path d="M57.6220 116.1910
L57.1986 116.1910
" />
<path d="M57.1986 116.8562
L57.1986 115.5862
" />
<path d="M57.1986 115.5862
L57.8034 115.5862
" />
<path d="M58.2872 116.8562
L58.2872 115.5862
" />
<path d="M58.2872 115.5862
L58.7710 115.5862
" />
<path d="M58.7710 115.5862
L58.8920 115.6467
" />
<path d="M58.8920 115.6467
L58.9525 115.7072
" />
<path d="M58.9525 115.7072
L59.0129 115.8281
" />
<path d="M59.0129 115.8281
L59.0129 116.0096
" />
<path d="M59.0129 116.0096
L58.9525 116.1305
" />
<path d="M58.9525 116.1305
L58.8920 116.1910
" />
<path d="M58.8920 116.1910
L58.7710 116.2515
" />
<path d="M58.7710 116.2515
L58.2872 116.2515
" />
<path d="M59.5572 116.3724
L60.5249 116.3724
" />
<path d="M61.6739 115.5862
L61.4320 115.5862
" />
<path d="M61.4320 115.5862
L61.3111 115.6467
" />
<path d="M61.3111 115.6467
L61.2506 115.7072
" />
<path d="M61.2506 115.7072
L61.1296 115.8886
" />
<path d="M61.1296 115.8886
L61.0692 116.1305
" />
<path d="M61.0692 116.1305
L61.0692 116.6143
" />
<path d="M61.0692 116.6143
L61.1296 116.7353
" />
<path d="M61.1296 116.7353
L61.1901 116.7958
" />
<path d="M61.1901 116.7958
L61.3111 116.8562
" />
<path d="M61.3111 116.8562
L61.5530 116.8562
" />
<path d="M61.5530 116.8562
L61.6739 116.7958
" />
<path d="M61.6739 116.7958
L61.7344 116.7353
" />
<path d="M61.7344 116.7353
L61.7949 116.6143
" />
<path d="M61.7949 116.6143
L61.7949 116.3119
" />
<path d="M61.7949 116.3119
L61.7344 116.1910
" />
<path d="M61.7344 116.1910
L61.6739 116.1305
" />
<path d="M61.6739 116.1305
L61.5530 116.0700
" />
<path d="M61.5530 116.0700
L61.3111 116.0700
" />
<path d="M61.3111 116.0700
L61.1901 116.1305
" />
<path d="M61.1901 116.1305
L61.1296 116.1910
" />
<path d="M61.1296 116.1910
L61.0692 116.3119
" />
<path d="M62.8834 116.0096
L62.8834 116.8562
" />
<path d="M62.5810 115.5258
L62.2787 116.4329
" />
<path d="M62.2787 116.4329
L63.0648 116.4329
" />
<path d="M63.2463 116.9772
L64.2139 116.9772
" />
<path d="M65.1815 116.8562
L64.4558 116.8562
" />
<path d="M64.8186 116.8562
L64.8186 115.5862
" />
<path d="M64.8186 115.5862
L64.6977 115.7677
" />
<path d="M64.6977 115.7677
L64.5767 115.8886
" />
<path d="M64.5767 115.8886
L64.4558 115.9491
" />
<path d="M65.9676 115.5862
L66.0886 115.5862
" />
<path d="M66.0886 115.5862
L66.2095 115.6467
" />
<path d="M66.2095 115.6467
L66.2700 115.7072
" />
<path d="M66.2700 115.7072
L66.3305 115.8281
" />
<path d="M66.3305 115.8281
L66.3910 116.0700
" />
<path d="M66.3910 116.0700
L66.3910 116.3724
" />
<path d="M66.3910 116.3724
L66.3305 116.6143
" />
<path d="M66.3305 116.6143
L66.2700 116.7353
" />
<path d="M66.2700 116.7353
L66.2095 116.7958
" />
<path d="M66.2095 116.7958
L66.0886 116.8562
" />
<path d="M66.0886 116.8562
L65.9676 116.8562
" />
<path d="M65.9676 116.8562
L65.8467 116.7958
" />
<path d="M65.8467 116.7958
L65.7862 116.7353
" />
<path d="M65.7862 116.7353
L65.7257 116.6143
" />
<path d="M65.7257 116.6143
L65.6653 116.3724
" />
<path d="M65.6653 116.3724
L65.6653 116.0700
" />
<path d="M65.6653 116.0700
L65.7257 115.8281
" />
<path d="M65.7257 115.8281
L65.7862 115.7072
" />
<path d="M65.7862 115.7072
L65.8467 115.6467
" />
<path d="M65.8467 115.6467
L65.9676 115.5862
" />
<path d="M66.8143 116.8562
L67.4795 116.0096
" />
<path d="M66.8143 116.0096
L67.4795 116.8562
" />
<path d="M68.6286 116.8562
L67.9029 116.8562
" />
<path d="M68.2657 116.8562
L68.2657 115.5862
" />
<path d="M68.2657 115.5862
L68.1448 115.7677
" />
<path d="M68.1448 115.7677
L68.0238 115.8886
" />
<path d="M68.0238 115.8886
L67.9029 115.9491
" />
<path d="M69.4147 115.5862
L69.5357 115.5862
" />
<path d="M69.5357 115.5862
L69.6566 115.6467
" />
<path d="M69.6566 115.6467
L69.7171 115.7072
" />
<path d="M69.7171 115.7072
L69.7776 115.8281
" />
<path d="M69.7776 115.8281
L69.8381 116.0700
" />
<path d="M69.8381 116.0700
L69.8381 116.3724
" />
<path d="M69.8381 116.3724
L69.7776 116.6143
" />
<path d="M69.7776 116.6143
L69.7171 116.7353
" />
<path d="M69.7171 116.7353
L69.6566 116.7958
" />
<path d="M69.6566 116.7958
L69.5357 116.8562
" />
<path d="M69.5357 116.8562
L69.4147 116.8562
" />
<path d="M69.4147 116.8562
L69.2938 116.7958
" />
<path d="M69.2938 116.7958
L69.2333 116.7353
" />
<path d="M69.2333 116.7353
L69.1728 116.6143
" />
<path d="M69.1728 116.6143
L69.1124 116.3724
" />
<path d="M69.1124 116.3724
L69.1124 116.0700
" />
<path d="M69.1124 116.0700
L69.1728 115.8281
" />
<path d="M69.1728 115.8281
L69.2333 115.7072
" />
<path d="M69.2333 115.7072
L69.2938 115.6467
" />
<path d="M69.2938 115.6467
L69.4147 115.5862
" />
<path d="M70.3823 116.8562
L70.3823 116.0096
" />
<path d="M70.3823 116.1305
L70.4428 116.0700
" />
<path d="M70.4428 116.0700
L70.5638 116.0096
" />
<path d="M70.5638 116.0096
L70.7452 116.0096
" />
<path d="M70.7452 116.0096
L70.8661 116.0700
" />
<path d="M70.8661 116.0700
L70.9266 116.1910
" />
<path d="M70.9266 116.1910
L70.9266 116.8562
" />
<path d="M70.9266 116.1910
L70.9871 116.0700
" />
<path d="M70.9871 116.0700
L71.1080 116.0096
" />
<path d="M71.1080 116.0096
L71.2895 116.0096
" />
<path d="M71.2895 116.0096
L71.4104 116.0700
" />
<path d="M71.4104 116.0700
L71.4709 116.1910
" />
<path d="M71.4709 116.1910
L71.4709 116.8562
" />
<path d="M72.0756 116.8562
L72.0756 116.0096
" />
<path d="M72.0756 116.1305
L72.1361 116.0700
" />
<path d="M72.1361 116.0700
L72.2571 116.0096
" />
<path d="M72.2571 116.0096
L72.4385 116.0096
" />
<path d="M72.4385 116.0096
L72.5594 116.0700
" />
<path d="M72.5594 116.0700
L72.6199 116.1910
" />
<path d="M72.6199 116.1910
L72.6199 116.8562
" />
<path d="M72.6199 116.1910
L72.6804 116.0700
" />
<path d="M72.6804 116.0700
L72.8013 116.0096
" />
<path d="M72.8013 116.0096
L72.9828 116.0096
" />
<path d="M72.9828 116.0096
L73.1037 116.0700
" />
<path d="M73.1037 116.0700
L73.1642 116.1910
" />
<path d="M73.1642 116.1910
L73.1642 116.8562
" />
<path d="M73.4666 116.9772
L74.4342 116.9772
" />
<path d="M74.7365 116.8562
L74.7365 115.5862
" />
<path d="M74.7365 115.5862
L75.2203 115.5862
" />
<path d="M75.2203 115.5862
L75.3413 115.6467
" />
<path d="M75.3413 115.6467
L75.4018 115.7072
" />
<path d="M75.4018 115.7072
L75.4622 115.8281
" />
<path d="M75.4622 115.8281
L75.4622 116.0096
" />
<path d="M75.4622 116.0096
L75.4018 116.1305
" />
<path d="M75.4018 116.1305
L75.3413 116.1910
" />
<path d="M75.3413 116.1910
L75.2203 116.2515
" />
<path d="M75.2203 116.2515
L74.7365 116.2515
" />
<path d="M76.2484 115.5862
L76.3694 115.5862
" />
<path d="M76.3694 115.5862
L76.4903 115.6467
" />
<path d="M76.4903 115.6467
L76.5508 115.7072
" />
<path d="M76.5508 115.7072
L76.6113 115.8281
" />
<path d="M76.6113 115.8281
L76.6718 116.0700
" />
<path d="M76.6718 116.0700
L76.6718 116.3724
" />
<path d="M76.6718 116.3724
L76.6113 116.6143
" />
<path d="M76.6113 116.6143
L76.5508 116.7353
" />
<path d="M76.5508 116.7353
L76.4903 116.7958
" />
<path d="M76.4903 116.7958
L76.3694 116.8562
" />
<path d="M76.3694 116.8562
L76.2484 116.8562
" />
<path d="M76.2484 116.8562
L76.1275 116.7958
" />
<path d="M76.1275 116.7958
L76.0670 116.7353
" />
<path d="M76.0670 116.7353
L76.0065 116.6143
" />
<path d="M76.0065 116.6143
L75.9461 116.3724
" />
<path d="M75.9461 116.3724
L75.9461 116.0700
" />
<path d="M75.9461 116.0700
L76.0065 115.8281
" />
<path d="M76.0065 115.8281
L76.0670 115.7072
" />
<path d="M76.0670 115.7072
L76.1275 115.6467
" />
<path d="M76.1275 115.6467
L76.2484 115.5862
" />
<path d="M77.2160 116.7353
L77.2765 116.7958
" />
<path d="M77.2765 116.7958
L77.2160 116.8562
" />
<path d="M77.2160 116.8562
L77.1556 116.7958
" />
<path d="M77.1556 116.7958
L77.2160 116.7353
" />
<path d="M77.2160 116.7353
L77.2160 116.8562
" />
<path d="M78.4256 115.5862
L77.8208 115.5862
" />
<path d="M77.8208 115.5862
L77.7604 116.1910
" />
<path d="M77.7604 116.1910
L77.8208 116.1305
" />
<path d="M77.8208 116.1305
L77.9418 116.0700
" />
<path d="M77.9418 116.0700
L78.2442 116.0700
" />
<path d="M78.2442 116.0700
L78.3651 116.1305
" />
<path d="M78.3651 116.1305
L78.4256 116.1910
" />
<path d="M78.4256 116.1910
L78.4861 116.3119
" />
<path d="M78.4861 116.3119
L78.4861 116.6143
" />
<path d="M78.4861 116.6143
L78.4256 116.7353
" />
<path d="M78.4256 116.7353
L78.3651 116.7958
" />
<path d="M78.3651 116.7958
L78.2442 116.8562
" />
<path d="M78.2442 116.8562
L77.9418 116.8562
" />
<path d="M77.9418 116.8562
L77.8208 116.7958
" />
<path d="M77.8208 116.7958
L77.7604 116.7353
" />
<path d="M79.0303 116.8562
L79.0303 116.0096
" />
<path d="M79.0303 116.1305
L79.0908 116.0700
" />
<path d="M79.0908 116.0700
L79.2118 116.0096
" />
<path d="M79.2118 116.0096
L79.3932 116.0096
" />
<path d="M79.3932 116.0096
L79.5141 116.0700
" />
<path d="M79.5141 116.0700
L79.5746 116.1910
" />
<path d="M79.5746 116.1910
L79.5746 116.8562
" />
<path d="M79.5746 116.1910
L79.6351 116.0700
" />
<path d="M79.6351 116.0700
L79.7560 116.0096
" />
<path d="M79.7560 116.0096
L79.9375 116.0096
" />
<path d="M79.9375 116.0096
L80.0584 116.0700
" />
<path d="M80.0584 116.0700
L80.1189 116.1910
" />
<path d="M80.1189 116.1910
L80.1189 116.8562
" />
<path d="M80.7236 116.8562
L80.7236 116.0096
" />
<path d="M80.7236 116.1305
L80.7841 116.0700
" />
<path d="M80.7841 116.0700
L80.9051 116.0096
" />
<path d="M80.9051 116.0096
L81.0865 116.0096
" />
<path d="M81.0865 116.0096
L81.2074 116.0700
" />
<path d="M81.2074 116.0700
L81.2679 116.1910
" />
<path d="M81.2679 116.1910
L81.2679 116.8562
" />
<path d="M81.2679 116.1910
L81.3284 116.0700
" />
<path d="M81.3284 116.0700
L81.4493 116.0096
" />
<path d="M81.4493 116.0096
L81.6308 116.0096
" />
<path d="M81.6308 116.0096
L81.7517 116.0700
" />
<path d="M81.7517 116.0700
L81.8122 116.1910
" />
<path d="M81.8122 116.1910
L81.8122 116.8562
" />
</g><text x="73.4665" y="119.9074"
textLength="61.9077" font-size="1.6933" lengthAdjust="spacingAndGlyphs"
text-anchor="middle" opacity="0">http://www.nxp.com/docs/en/data-sheet/KL26P64M48SF5.pdf</text>
<g class="stroked-text"><desc>http://www.nxp.com/docs/en/data-sheet/KL26P64M48SF5.pdf</desc>
<path d="M42.9262 119.8516
L42.9262 118.5816
" />
<path d="M43.4705 119.8516
L43.4705 119.1864
" />
<path d="M43.4705 119.1864
L43.4100 119.0654
" />
<path d="M43.4100 119.0654
L43.2891 119.0050
" />
<path d="M43.2891 119.0050
L43.1077 119.0050
" />
<path d="M43.1077 119.0050
L42.9867 119.0654
" />
<path d="M42.9867 119.0654
L42.9262 119.1259
" />
<path d="M43.8938 119.0050
L44.3776 119.0050
" />
<path d="M44.0752 118.5816
L44.0752 119.6702
" />
<path d="M44.0752 119.6702
L44.1357 119.7912
" />
<path d="M44.1357 119.7912
L44.2567 119.8516
" />
<path d="M44.2567 119.8516
L44.3776 119.8516
" />
<path d="M44.6195 119.0050
L45.1033 119.0050
" />
<path d="M44.8009 118.5816
L44.8009 119.6702
" />
<path d="M44.8009 119.6702
L44.8614 119.7912
" />
<path d="M44.8614 119.7912
L44.9824 119.8516
" />
<path d="M44.9824 119.8516
L45.1033 119.8516
" />
<path d="M45.5266 119.0050
L45.5266 120.2750
" />
<path d="M45.5266 119.0654
L45.6476 119.0050
" />
<path d="M45.6476 119.0050
L45.8895 119.0050
" />
<path d="M45.8895 119.0050
L46.0104 119.0654
" />
<path d="M46.0104 119.0654
L46.0709 119.1259
" />
<path d="M46.0709 119.1259
L46.1314 119.2469
" />
<path d="M46.1314 119.2469
L46.1314 119.6097
" />
<path d="M46.1314 119.6097
L46.0709 119.7307
" />
<path d="M46.0709 119.7307
L46.0104 119.7912
" />
<path d="M46.0104 119.7912
L45.8895 119.8516
" />
<path d="M45.8895 119.8516
L45.6476 119.8516
" />
<path d="M45.6476 119.8516
L45.5266 119.7912
" />
<path d="M46.6756 119.7307
L46.7361 119.7912
" />
<path d="M46.7361 119.7912
L46.6756 119.8516
" />
<path d="M46.6756 119.8516
L46.6152 119.7912
" />
<path d="M46.6152 119.7912
L46.6756 119.7307
" />
<path d="M46.6756 119.7307
L46.6756 119.8516
" />
<path d="M46.6756 119.0654
L46.7361 119.1259
" />
<path d="M46.7361 119.1259
L46.6756 119.1864
" />
<path d="M46.6756 119.1864
L46.6152 119.1259
" />
<path d="M46.6152 119.1259
L46.6756 119.0654
" />
<path d="M46.6756 119.0654
L46.6756 119.1864
" />
<path d="M48.1876 118.5212
L47.0990 120.1540
" />
<path d="M49.5181 118.5212
L48.4295 120.1540
" />
<path d="M49.8205 119.0050
L50.0624 119.8516
" />
<path d="M50.0624 119.8516
L50.3043 119.2469
" />
<path d="M50.3043 119.2469
L50.5462 119.8516
" />
<path d="M50.5462 119.8516
L50.7881 119.0050
" />
<path d="M51.1510 119.0050
L51.3929 119.8516
" />
<path d="M51.3929 119.8516
L51.6348 119.2469
" />
<path d="M51.6348 119.2469
L51.8767 119.8516
" />
<path d="M51.8767 119.8516
L52.1186 119.0050
" />
<path d="M52.4815 119.0050
L52.7234 119.8516
" />
<path d="M52.7234 119.8516
L52.9653 119.2469
" />
<path d="M52.9653 119.2469
L53.2072 119.8516
" />
<path d="M53.2072 119.8516
L53.4491 119.0050
" />
<path d="M53.9329 119.7307
L53.9934 119.7912
" />
<path d="M53.9934 119.7912
L53.9329 119.8516
" />
<path d="M53.9329 119.8516
L53.8725 119.7912
" />
<path d="M53.8725 119.7912
L53.9329 119.7307
" />
<path d="M53.9329 119.7307
L53.9329 119.8516
" />
<path d="M54.5377 119.0050
L54.5377 119.8516
" />
<path d="M54.5377 119.1259
L54.5982 119.0654
" />
<path d="M54.5982 119.0654
L54.7192 119.0050
" />
<path d="M54.7192 119.0050
L54.9006 119.0050
" />
<path d="M54.9006 119.0050
L55.0215 119.0654
" />
<path d="M55.0215 119.0654
L55.0820 119.1864
" />
<path d="M55.0820 119.1864
L55.0820 119.8516
" />
<path d="M55.5658 119.8516
L56.2310 119.0050
" />
<path d="M55.5658 119.0050
L56.2310 119.8516
" />
<path d="M56.7148 119.0050
L56.7148 120.2750
" />
<path d="M56.7148 119.0654
L56.8358 119.0050
" />
<path d="M56.8358 119.0050
L57.0777 119.0050
" />
<path d="M57.0777 119.0050
L57.1986 119.0654
" />
<path d="M57.1986 119.0654
L57.2591 119.1259
" />
<path d="M57.2591 119.1259
L57.3196 119.2469
" />
<path d="M57.3196 119.2469
L57.3196 119.6097
" />
<path d="M57.3196 119.6097
L57.2591 119.7307
" />
<path d="M57.2591 119.7307
L57.1986 119.7912
" />
<path d="M57.1986 119.7912
L57.0777 119.8516
" />
<path d="M57.0777 119.8516
L56.8358 119.8516
" />
<path d="M56.8358 119.8516
L56.7148 119.7912
" />
<path d="M57.8638 119.7307
L57.9243 119.7912
" />
<path d="M57.9243 119.7912
L57.8638 119.8516
" />
<path d="M57.8638 119.8516
L57.8034 119.7912
" />
<path d="M57.8034 119.7912
L57.8638 119.7307
" />
<path d="M57.8638 119.7307
L57.8638 119.8516
" />
<path d="M59.0129 119.7912
L58.8920 119.8516
" />
<path d="M58.8920 119.8516
L58.6501 119.8516
" />
<path d="M58.6501 119.8516
L58.5291 119.7912
" />
<path d="M58.5291 119.7912
L58.4686 119.7307
" />
<path d="M58.4686 119.7307
L58.4082 119.6097
" />
<path d="M58.4082 119.6097
L58.4082 119.2469
" />
<path d="M58.4082 119.2469
L58.4686 119.1259
" />
<path d="M58.4686 119.1259
L58.5291 119.0654
" />
<path d="M58.5291 119.0654
L58.6501 119.0050
" />
<path d="M58.6501 119.0050
L58.8920 119.0050
" />
<path d="M58.8920 119.0050
L59.0129 119.0654
" />
<path d="M59.7387 119.8516
L59.6177 119.7912
" />
<path d="M59.6177 119.7912
L59.5572 119.7307
" />
<path d="M59.5572 119.7307
L59.4968 119.6097
" />
<path d="M59.4968 119.6097
L59.4968 119.2469
" />
<path d="M59.4968 119.2469
L59.5572 119.1259
" />
<path d="M59.5572 119.1259
L59.6177 119.0654
" />
<path d="M59.6177 119.0654
L59.7387 119.0050
" />
<path d="M59.7387 119.0050
L59.9201 119.0050
" />
<path d="M59.9201 119.0050
L60.0410 119.0654
" />
<path d="M60.0410 119.0654
L60.1015 119.1259
" />
<path d="M60.1015 119.1259
L60.1620 119.2469
" />
<path d="M60.1620 119.2469
L60.1620 119.6097
" />
<path d="M60.1620 119.6097
L60.1015 119.7307
" />
<path d="M60.1015 119.7307
L60.0410 119.7912
" />
<path d="M60.0410 119.7912
L59.9201 119.8516
" />
<path d="M59.9201 119.8516
L59.7387 119.8516
" />
<path d="M60.7062 119.8516
L60.7062 119.0050
" />
<path d="M60.7062 119.1259
L60.7667 119.0654
" />
<path d="M60.7667 119.0654
L60.8877 119.0050
" />
<path d="M60.8877 119.0050
L61.0691 119.0050
" />
<path d="M61.0691 119.0050
L61.1900 119.0654
" />
<path d="M61.1900 119.0654
L61.2505 119.1864
" />
<path d="M61.2505 119.1864
L61.2505 119.8516
" />
<path d="M61.2505 119.1864
L61.3110 119.0654
" />
<path d="M61.3110 119.0654
L61.4319 119.0050
" />
<path d="M61.4319 119.0050
L61.6134 119.0050
" />
<path d="M61.6134 119.0050
L61.7343 119.0654
" />
<path d="M61.7343 119.0654
L61.7948 119.1864
" />
<path d="M61.7948 119.1864
L61.7948 119.8516
" />
<path d="M63.3067 118.5212
L62.2181 120.1540
" />
<path d="M64.2743 119.8516
L64.2743 118.5816
" />
<path d="M64.2743 119.7912
L64.1534 119.8516
" />
<path d="M64.1534 119.8516
L63.9115 119.8516
" />
<path d="M63.9115 119.8516
L63.7905 119.7912
" />
<path d="M63.7905 119.7912
L63.7300 119.7307
" />
<path d="M63.7300 119.7307
L63.6696 119.6097
" />
<path d="M63.6696 119.6097
L63.6696 119.2469
" />
<path d="M63.6696 119.2469
L63.7300 119.1259
" />
<path d="M63.7300 119.1259
L63.7905 119.0654
" />
<path d="M63.7905 119.0654
L63.9115 119.0050
" />
<path d="M63.9115 119.0050
L64.1534 119.0050
" />
<path d="M64.1534 119.0050
L64.2743 119.0654
" />
<path d="M65.0605 119.8516
L64.9395 119.7912
" />
<path d="M64.9395 119.7912
L64.8790 119.7307
" />
<path d="M64.8790 119.7307
L64.8186 119.6097
" />
<path d="M64.8186 119.6097
L64.8186 119.2469
" />
<path d="M64.8186 119.2469
L64.8790 119.1259
" />
<path d="M64.8790 119.1259
L64.9395 119.0654
" />
<path d="M64.9395 119.0654
L65.0605 119.0050
" />
<path d="M65.0605 119.0050
L65.2419 119.0050
" />
<path d="M65.2419 119.0050
L65.3628 119.0654
" />
<path d="M65.3628 119.0654
L65.4233 119.1259
" />
<path d="M65.4233 119.1259
L65.4838 119.2469
" />
<path d="M65.4838 119.2469
L65.4838 119.6097
" />
<path d="M65.4838 119.6097
L65.4233 119.7307
" />
<path d="M65.4233 119.7307
L65.3628 119.7912
" />
<path d="M65.3628 119.7912
L65.2419 119.8516
" />
<path d="M65.2419 119.8516
L65.0605 119.8516
" />
<path d="M66.5723 119.7912
L66.4514 119.8516
" />
<path d="M66.4514 119.8516
L66.2095 119.8516
" />
<path d="M66.2095 119.8516
L66.0885 119.7912
" />
<path d="M66.0885 119.7912
L66.0280 119.7307
" />
<path d="M66.0280 119.7307
L65.9676 119.6097
" />
<path d="M65.9676 119.6097
L65.9676 119.2469
" />
<path d="M65.9676 119.2469
L66.0280 119.1259
" />
<path d="M66.0280 119.1259
L66.0885 119.0654
" />
<path d="M66.0885 119.0654
L66.2095 119.0050
" />
<path d="M66.2095 119.0050
L66.4514 119.0050
" />
<path d="M66.4514 119.0050
L66.5723 119.0654
" />
<path d="M67.0562 119.7912
L67.1771 119.8516
" />
<path d="M67.1771 119.8516
L67.4190 119.8516
" />
<path d="M67.4190 119.8516
L67.5400 119.7912
" />
<path d="M67.5400 119.7912
L67.6004 119.6702
" />
<path d="M67.6004 119.6702
L67.6004 119.6097
" />
<path d="M67.6004 119.6097
L67.5400 119.4888
" />
<path d="M67.5400 119.4888
L67.4190 119.4283
" />
<path d="M67.4190 119.4283
L67.2376 119.4283
" />
<path d="M67.2376 119.4283
L67.1166 119.3678
" />
<path d="M67.1166 119.3678
L67.0562 119.2469
" />
<path d="M67.0562 119.2469
L67.0562 119.1864
" />
<path d="M67.0562 119.1864
L67.1166 119.0654
" />
<path d="M67.1166 119.0654
L67.2376 119.0050
" />
<path d="M67.2376 119.0050
L67.4190 119.0050
" />
<path d="M67.4190 119.0050
L67.5400 119.0654
" />
<path d="M69.0519 118.5212
L67.9633 120.1540
" />
<path d="M69.9590 119.7912
L69.8381 119.8516
" />
<path d="M69.8381 119.8516
L69.5962 119.8516
" />
<path d="M69.5962 119.8516
L69.4752 119.7912
" />
<path d="M69.4752 119.7912
L69.4148 119.6702
" />
<path d="M69.4148 119.6702
L69.4148 119.1864
" />
<path d="M69.4148 119.1864
L69.4752 119.0654
" />
<path d="M69.4752 119.0654
L69.5962 119.0050
" />
<path d="M69.5962 119.0050
L69.8381 119.0050
" />
<path d="M69.8381 119.0050
L69.9590 119.0654
" />
<path d="M69.9590 119.0654
L70.0195 119.1864
" />
<path d="M70.0195 119.1864
L70.0195 119.3073
" />
<path d="M70.0195 119.3073
L69.4148 119.4283
" />
<path d="M70.5638 119.0050
L70.5638 119.8516
" />
<path d="M70.5638 119.1259
L70.6243 119.0654
" />
<path d="M70.6243 119.0654
L70.7453 119.0050
" />
<path d="M70.7453 119.0050
L70.9267 119.0050
" />
<path d="M70.9267 119.0050
L71.0476 119.0654
" />
<path d="M71.0476 119.0654
L71.1081 119.1864
" />
<path d="M71.1081 119.1864
L71.1081 119.8516
" />
<path d="M72.6200 118.5212
L71.5314 120.1540
" />
<path d="M73.5876 119.8516
L73.5876 118.5816
" />
<path d="M73.5876 119.7912
L73.4667 119.8516
" />
<path d="M73.4667 119.8516
L73.2248 119.8516
" />
<path d="M73.2248 119.8516
L73.1038 119.7912
" />
<path d="M73.1038 119.7912
L73.0433 119.7307
" />
<path d="M73.0433 119.7307
L72.9829 119.6097
" />
<path d="M72.9829 119.6097
L72.9829 119.2469
" />
<path d="M72.9829 119.2469
L73.0433 119.1259
" />
<path d="M73.0433 119.1259
L73.1038 119.0654
" />
<path d="M73.1038 119.0654
L73.2248 119.0050
" />
<path d="M73.2248 119.0050
L73.4667 119.0050
" />
<path d="M73.4667 119.0050
L73.5876 119.0654
" />
<path d="M74.7366 119.8516
L74.7366 119.1864
" />
<path d="M74.7366 119.1864
L74.6761 119.0654
" />
<path d="M74.6761 119.0654
L74.5552 119.0050
" />
<path d="M74.5552 119.0050
L74.3133 119.0050
" />
<path d="M74.3133 119.0050
L74.1923 119.0654
" />
<path d="M74.7366 119.7912
L74.6157 119.8516
" />
<path d="M74.6157 119.8516
L74.3133 119.8516
" />
<path d="M74.3133 119.8516
L74.1923 119.7912
" />
<path d="M74.1923 119.7912
L74.1319 119.6702
" />
<path d="M74.1319 119.6702
L74.1319 119.5492
" />
<path d="M74.1319 119.5492
L74.1923 119.4283
" />
<path d="M74.1923 119.4283
L74.3133 119.3678
" />
<path d="M74.3133 119.3678
L74.6157 119.3678
" />
<path d="M74.6157 119.3678
L74.7366 119.3073
" />
<path d="M75.1599 119.0050
L75.6437 119.0050
" />
<path d="M75.3413 118.5816
L75.3413 119.6702
" />
<path d="M75.3413 119.6702
L75.4018 119.7912
" />
<path d="M75.4018 119.7912
L75.5228 119.8516
" />
<path d="M75.5228 119.8516
L75.6437 119.8516
" />
<path d="M76.6113 119.8516
L76.6113 119.1864
" />
<path d="M76.6113 119.1864
L76.5508 119.0654
" />
<path d="M76.5508 119.0654
L76.4299 119.0050
" />
<path d="M76.4299 119.0050
L76.1880 119.0050
" />
<path d="M76.1880 119.0050
L76.0670 119.0654
" />
<path d="M76.6113 119.7912
L76.4904 119.8516
" />
<path d="M76.4904 119.8516
L76.1880 119.8516
" />
<path d="M76.1880 119.8516
L76.0670 119.7912
" />
<path d="M76.0670 119.7912
L76.0066 119.6702
" />
<path d="M76.0066 119.6702
L76.0066 119.5492
" />
<path d="M76.0066 119.5492
L76.0670 119.4283
" />
<path d="M76.0670 119.4283
L76.1880 119.3678
" />
<path d="M76.1880 119.3678
L76.4904 119.3678
" />
<path d="M76.4904 119.3678
L76.6113 119.3073
" />
<path d="M77.2160 119.3678
L78.1837 119.3678
" />
<path d="M78.7280 119.7912
L78.8489 119.8516
" />
<path d="M78.8489 119.8516
L79.0908 119.8516
" />
<path d="M79.0908 119.8516
L79.2118 119.7912
" />
<path d="M79.2118 119.7912
L79.2722 119.6702
" />
<path d="M79.2722 119.6702
L79.2722 119.6097
" />
<path d="M79.2722 119.6097
L79.2118 119.4888
" />
<path d="M79.2118 119.4888
L79.0908 119.4283
" />
<path d="M79.0908 119.4283
L78.9094 119.4283
" />
<path d="M78.9094 119.4283
L78.7884 119.3678
" />
<path d="M78.7884 119.3678
L78.7280 119.2469
" />
<path d="M78.7280 119.2469
L78.7280 119.1864
" />
<path d="M78.7280 119.1864
L78.7884 119.0654
" />
<path d="M78.7884 119.0654
L78.9094 119.0050
" />
<path d="M78.9094 119.0050
L79.0908 119.0050
" />
<path d="M79.0908 119.0050
L79.2118 119.0654
" />
<path d="M79.8165 119.8516
L79.8165 118.5816
" />
<path d="M80.3608 119.8516
L80.3608 119.1864
" />
<path d="M80.3608 119.1864
L80.3003 119.0654
" />
<path d="M80.3003 119.0654
L80.1794 119.0050
" />
<path d="M80.1794 119.0050
L79.9980 119.0050
" />
<path d="M79.9980 119.0050
L79.8770 119.0654
" />
<path d="M79.8770 119.0654
L79.8165 119.1259
" />
<path d="M81.4493 119.7912
L81.3284 119.8516
" />
<path d="M81.3284 119.8516
L81.0865 119.8516
" />
<path d="M81.0865 119.8516
L80.9655 119.7912
" />
<path d="M80.9655 119.7912
L80.9051 119.6702
" />
<path d="M80.9051 119.6702
L80.9051 119.1864
" />
<path d="M80.9051 119.1864
L80.9655 119.0654
" />
<path d="M80.9655 119.0654
L81.0865 119.0050
" />
<path d="M81.0865 119.0050
L81.3284 119.0050
" />
<path d="M81.3284 119.0050
L81.4493 119.0654
" />
<path d="M81.4493 119.0654
L81.5098 119.1864
" />
<path d="M81.5098 119.1864
L81.5098 119.3073
" />
<path d="M81.5098 119.3073
L80.9051 119.4283
" />
<path d="M82.5379 119.7912
L82.4170 119.8516
" />
<path d="M82.4170 119.8516
L82.1751 119.8516
" />
<path d="M82.1751 119.8516
L82.0541 119.7912
" />
<path d="M82.0541 119.7912
L81.9937 119.6702
" />
<path d="M81.9937 119.6702
L81.9937 119.1864
" />
<path d="M81.9937 119.1864
L82.0541 119.0654
" />
<path d="M82.0541 119.0654
L82.1751 119.0050
" />
<path d="M82.1751 119.0050
L82.4170 119.0050
" />
<path d="M82.4170 119.0050
L82.5379 119.0654
" />
<path d="M82.5379 119.0654
L82.5984 119.1864
" />
<path d="M82.5984 119.1864
L82.5984 119.3073
" />
<path d="M82.5984 119.3073
L81.9937 119.4283
" />
<path d="M82.9613 119.0050
L83.4451 119.0050
" />
<path d="M83.1427 118.5816
L83.1427 119.6702
" />
<path d="M83.1427 119.6702
L83.2032 119.7912
" />
<path d="M83.2032 119.7912
L83.3242 119.8516
" />
<path d="M83.3242 119.8516
L83.4451 119.8516
" />
<path d="M84.7756 118.5212
L83.6870 120.1540
" />
<path d="M85.1989 119.8516
L85.1989 118.5816
" />
<path d="M85.9246 119.8516
L85.3804 119.1259
" />
<path d="M85.9246 118.5816
L85.1989 119.3073
" />
<path d="M87.0737 119.8516
L86.4689 119.8516
" />
<path d="M86.4689 119.8516
L86.4689 118.5816
" />
<path d="M87.4366 118.7026
L87.4970 118.6421
" />
<path d="M87.4970 118.6421
L87.6180 118.5816
" />
<path d="M87.6180 118.5816
L87.9204 118.5816
" />
<path d="M87.9204 118.5816
L88.0413 118.6421
" />
<path d="M88.0413 118.6421
L88.1018 118.7026
" />
<path d="M88.1018 118.7026
L88.1623 118.8235
" />
<path d="M88.1623 118.8235
L88.1623 118.9445
" />
<path d="M88.1623 118.9445
L88.1018 119.1259
" />
<path d="M88.1018 119.1259
L87.3761 119.8516
" />
<path d="M87.3761 119.8516
L88.1623 119.8516
" />
<path d="M89.2508 118.5816
L89.0089 118.5816
" />
<path d="M89.0089 118.5816
L88.8880 118.6421
" />
<path d="M88.8880 118.6421
L88.8275 118.7026
" />
<path d="M88.8275 118.7026
L88.7065 118.8840
" />
<path d="M88.7065 118.8840
L88.6461 119.1259
" />
<path d="M88.6461 119.1259
L88.6461 119.6097
" />
<path d="M88.6461 119.6097
L88.7065 119.7307
" />
<path d="M88.7065 119.7307
L88.7670 119.7912
" />
<path d="M88.7670 119.7912
L88.8880 119.8516
" />
<path d="M88.8880 119.8516
L89.1299 119.8516
" />
<path d="M89.1299 119.8516
L89.2508 119.7912
" />
<path d="M89.2508 119.7912
L89.3113 119.7307
" />
<path d="M89.3113 119.7307
L89.3718 119.6097
" />
<path d="M89.3718 119.6097
L89.3718 119.3073
" />
<path d="M89.3718 119.3073
L89.3113 119.1864
" />
<path d="M89.3113 119.1864
L89.2508 119.1259
" />
<path d="M89.2508 119.1259
L89.1299 119.0654
" />
<path d="M89.1299 119.0654
L88.8880 119.0654
" />
<path d="M88.8880 119.0654
L88.7670 119.1259
" />
<path d="M88.7670 119.1259
L88.7065 119.1864
" />
<path d="M88.7065 119.1864
L88.6461 119.3073
" />
<path d="M89.9160 119.8516
L89.9160 118.5816
" />
<path d="M89.9160 118.5816
L90.3998 118.5816
" />
<path d="M90.3998 118.5816
L90.5208 118.6421
" />
<path d="M90.5208 118.6421
L90.5813 118.7026
" />
<path d="M90.5813 118.7026
L90.6417 118.8235
" />
<path d="M90.6417 118.8235
L90.6417 119.0050
" />
<path d="M90.6417 119.0050
L90.5813 119.1259
" />
<path d="M90.5813 119.1259
L90.5208 119.1864
" />
<path d="M90.5208 119.1864
L90.3998 119.2469
" />
<path d="M90.3998 119.2469
L89.9160 119.2469
" />
<path d="M91.7303 118.5816
L91.4884 118.5816
" />
<path d="M91.4884 118.5816
L91.3675 118.6421
" />
<path d="M91.3675 118.6421
L91.3070 118.7026
" />
<path d="M91.3070 118.7026
L91.1860 118.8840
" />
<path d="M91.1860 118.8840
L91.1256 119.1259
" />
<path d="M91.1256 119.1259
L91.1256 119.6097
" />
<path d="M91.1256 119.6097
L91.1860 119.7307
" />
<path d="M91.1860 119.7307
L91.2465 119.7912
" />
<path d="M91.2465 119.7912
L91.3675 119.8516
" />
<path d="M91.3675 119.8516
L91.6094 119.8516
" />
<path d="M91.6094 119.8516
L91.7303 119.7912
" />
<path d="M91.7303 119.7912
L91.7908 119.7307
" />
<path d="M91.7908 119.7307
L91.8513 119.6097
" />
<path d="M91.8513 119.6097
L91.8513 119.3073
" />
<path d="M91.8513 119.3073
L91.7908 119.1864
" />
<path d="M91.7908 119.1864
L91.7303 119.1259
" />
<path d="M91.7303 119.1259
L91.6094 119.0654
" />
<path d="M91.6094 119.0654
L91.3675 119.0654
" />
<path d="M91.3675 119.0654
L91.2465 119.1259
" />
<path d="M91.2465 119.1259
L91.1860 119.1864
" />
<path d="M91.1860 119.1864
L91.1256 119.3073
" />
<path d="M92.9398 119.0050
L92.9398 119.8516
" />
<path d="M92.6374 118.5212
L92.3351 119.4283
" />
<path d="M92.3351 119.4283
L93.1212 119.4283
" />
<path d="M93.6050 119.8516
L93.6050 118.5816
" />
<path d="M93.6050 118.5816
L94.0284 119.4888
" />
<path d="M94.0284 119.4888
L94.4517 118.5816
" />
<path d="M94.4517 118.5816
L94.4517 119.8516
" />
<path d="M95.6007 119.0050
L95.6007 119.8516
" />
<path d="M95.2983 118.5212
L94.9960 119.4283
" />
<path d="M94.9960 119.4283
L95.7821 119.4283
" />
<path d="M96.4474 119.1259
L96.3264 119.0654
" />
<path d="M96.3264 119.0654
L96.2659 119.0050
" />
<path d="M96.2659 119.0050
L96.2055 118.8840
" />
<path d="M96.2055 118.8840
L96.2055 118.8235
" />
<path d="M96.2055 118.8235
L96.2659 118.7026
" />
<path d="M96.2659 118.7026
L96.3264 118.6421
" />
<path d="M96.3264 118.6421
L96.4474 118.5816
" />
<path d="M96.4474 118.5816
L96.6893 118.5816
" />
<path d="M96.6893 118.5816
L96.8102 118.6421
" />
<path d="M96.8102 118.6421
L96.8707 118.7026
" />
<path d="M96.8707 118.7026
L96.9312 118.8235
" />
<path d="M96.9312 118.8235
L96.9312 118.8840
" />
<path d="M96.9312 118.8840
L96.8707 119.0050
" />
<path d="M96.8707 119.0050
L96.8102 119.0654
" />
<path d="M96.8102 119.0654
L96.6893 119.1259
" />
<path d="M96.6893 119.1259
L96.4474 119.1259
" />
<path d="M96.4474 119.1259
L96.3264 119.1864
" />
<path d="M96.3264 119.1864
L96.2659 119.2469
" />
<path d="M96.2659 119.2469
L96.2055 119.3678
" />
<path d="M96.2055 119.3678
L96.2055 119.6097
" />
<path d="M96.2055 119.6097
L96.2659 119.7307
" />
<path d="M96.2659 119.7307
L96.3264 119.7912
" />
<path d="M96.3264 119.7912
L96.4474 119.8516
" />
<path d="M96.4474 119.8516
L96.6893 119.8516
" />
<path d="M96.6893 119.8516
L96.8102 119.7912
" />
<path d="M96.8102 119.7912
L96.8707 119.7307
" />
<path d="M96.8707 119.7307
L96.9312 119.6097
" />
<path d="M96.9312 119.6097
L96.9312 119.3678
" />
<path d="M96.9312 119.3678
L96.8707 119.2469
" />
<path d="M96.8707 119.2469
L96.8102 119.1864
" />
<path d="M96.8102 119.1864
L96.6893 119.1259
" />
<path d="M97.4150 119.7912
L97.5964 119.8516
" />
<path d="M97.5964 119.8516
L97.8988 119.8516
" />
<path d="M97.8988 119.8516
L98.0197 119.7912
" />
<path d="M98.0197 119.7912
L98.0802 119.7307
" />
<path d="M98.0802 119.7307
L98.1407 119.6097
" />
<path d="M98.1407 119.6097
L98.1407 119.4888
" />
<path d="M98.1407 119.4888
L98.0802 119.3678
" />
<path d="M98.0802 119.3678
L98.0197 119.3073
" />
<path d="M98.0197 119.3073
L97.8988 119.2469
" />
<path d="M97.8988 119.2469
L97.6569 119.1864
" />
<path d="M97.6569 119.1864
L97.5359 119.1259
" />
<path d="M97.5359 119.1259
L97.4754 119.0654
" />
<path d="M97.4754 119.0654
L97.4150 118.9445
" />
<path d="M97.4150 118.9445
L97.4150 118.8235
" />
<path d="M97.4150 118.8235
L97.4754 118.7026
" />
<path d="M97.4754 118.7026
L97.5359 118.6421
" />
<path d="M97.5359 118.6421
L97.6569 118.5816
" />
<path d="M97.6569 118.5816
L97.9592 118.5816
" />
<path d="M97.9592 118.5816
L98.1407 118.6421
" />
<path d="M99.1083 119.1864
L98.6849 119.1864
" />
<path d="M98.6849 119.8516
L98.6849 118.5816
" />
<path d="M98.6849 118.5816
L99.2897 118.5816
" />
<path d="M100.3783 118.5816
L99.7735 118.5816
" />
<path d="M99.7735 118.5816
L99.7131 119.1864
" />
<path d="M99.7131 119.1864
L99.7735 119.1259
" />
<path d="M99.7735 119.1259
L99.8945 119.0654
" />
<path d="M99.8945 119.0654
L100.1969 119.0654
" />
<path d="M100.1969 119.0654
L100.3178 119.1259
" />
<path d="M100.3178 119.1259
L100.3783 119.1864
" />
<path d="M100.3783 119.1864
L100.4388 119.3073
" />
<path d="M100.4388 119.3073
L100.4388 119.6097
" />
<path d="M100.4388 119.6097
L100.3783 119.7307
" />
<path d="M100.3783 119.7307
L100.3178 119.7912
" />
<path d="M100.3178 119.7912
L100.1969 119.8516
" />
<path d="M100.1969 119.8516
L99.8945 119.8516
" />
<path d="M99.8945 119.8516
L99.7735 119.7912
" />
<path d="M99.7735 119.7912
L99.7131 119.7307
" />
<path d="M100.9830 119.7307
L101.0435 119.7912
" />
<path d="M101.0435 119.7912
L100.9830 119.8516
" />
<path d="M100.9830 119.8516
L100.9226 119.7912
" />
<path d="M100.9226 119.7912
L100.9830 119.7307
" />
<path d="M100.9830 119.7307
L100.9830 119.8516
" />
<path d="M101.5878 119.0050
L101.5878 120.2750
" />
<path d="M101.5878 119.0654
L101.7088 119.0050
" />
<path d="M101.7088 119.0050
L101.9507 119.0050
" />
<path d="M101.9507 119.0050
L102.0716 119.0654
" />
<path d="M102.0716 119.0654
L102.1321 119.1259
" />
<path d="M102.1321 119.1259
L102.1926 119.2469
" />
<path d="M102.1926 119.2469
L102.1926 119.6097
" />
<path d="M102.1926 119.6097
L102.1321 119.7307
" />
<path d="M102.1321 119.7307
L102.0716 119.7912
" />
<path d="M102.0716 119.7912
L101.9507 119.8516
" />
<path d="M101.9507 119.8516
L101.7088 119.8516
" />
<path d="M101.7088 119.8516
L101.5878 119.7912
" />
<path d="M103.2811 119.8516
L103.2811 118.5816
" />
<path d="M103.2811 119.7912
L103.1602 119.8516
" />
<path d="M103.1602 119.8516
L102.9183 119.8516
" />
<path d="M102.9183 119.8516
L102.7973 119.7912
" />
<path d="M102.7973 119.7912
L102.7368 119.7307
" />
<path d="M102.7368 119.7307
L102.6764 119.6097
" />
<path d="M102.6764 119.6097
L102.6764 119.2469
" />
<path d="M102.6764 119.2469
L102.7368 119.1259
" />
<path d="M102.7368 119.1259
L102.7973 119.0654
" />
<path d="M102.7973 119.0654
L102.9183 119.0050
" />
<path d="M102.9183 119.0050
L103.1602 119.0050
" />
<path d="M103.1602 119.0050
L103.2811 119.0654
" />
<path d="M103.7044 119.0050
L104.1882 119.0050
" />
<path d="M103.8858 119.8516
L103.8858 118.7631
" />
<path d="M103.8858 118.7631
L103.9463 118.6421
" />
<path d="M103.9463 118.6421
L104.0673 118.5816
" />
<path d="M104.0673 118.5816
L104.1882 118.5816
" />
</g></g> 
</svg>
