<?xml version="1.0" standalone="no"?>
 <!DOCTYPE svg PUBLIC "-//W3C//DTD SVG 1.1//EN" 
 "http://www.w3.org/Graphics/SVG/1.1/DTD/svg11.dtd"> 
<svg
  xmlns:svg="http://www.w3.org/2000/svg"
  xmlns="http://www.w3.org/2000/svg"
  xmlns:xlink="http://www.w3.org/1999/xlink"
  version="1.1"
  width="72.3900mm" height="15.2400mm" viewBox="0.0000 0.0000 72.3900 15.2400">
<title>SVG Image created as working.svg date 2023/08/30 22:52:09 </title>
  <desc>Image generated by Eeschema-SVG </desc>
<g style="fill:#000000; fill-opacity:1.0000;stroke:#000000; stroke-opacity:1.0000;
stroke-linecap:round; stroke-linejoin:round;"
 transform="translate(0 0) scale(1 1)">
</g>
<g style="fill:#840000; fill-opacity:0.0; 
stroke:#840000; stroke-width:0.0000; stroke-opacity:1; 
stroke-linecap:round; stroke-linejoin:round;">
</g>
<g style="fill:#840084; fill-opacity:0.0; 
stroke:#840084; stroke-width:0.0000; stroke-opacity:1; 
stroke-linecap:round; stroke-linejoin:round;">
</g>
<g style="fill:#840000; fill-opacity:0.0; 
stroke:#840000; stroke-width:0.0000; stroke-opacity:1; 
stroke-linecap:round; stroke-linejoin:round;">
</g>
<g style="fill:#840000; fill-opacity:0.0; 
stroke:#840000; stroke-width:0.1524; stroke-opacity:1; 
stroke-linecap:round; stroke-linejoin:round;">
<path style="fill:#840000; fill-opacity:0.0; 
stroke:#840000; stroke-width:0.1524; stroke-opacity:1; 
stroke-linecap:round; stroke-linejoin:round;fill:none"
d="M 11.3676,6.3501
8.5736,6.3501
" /> 
</g>
<g style="fill:#840000; fill-opacity:0.0; 
stroke:#840000; stroke-width:0.2540; stroke-opacity:1; 
stroke-linecap:round; stroke-linejoin:round;">
<path style="fill:#840000; fill-opacity:0.0; 
stroke:#840000; stroke-width:0.2540; stroke-opacity:1; 
stroke-linecap:round; stroke-linejoin:round;fill:none"
d="M 11.3676,4.4451
11.3676,8.2551
" /> 
<path style="fill:#840000; fill-opacity:0.0; 
stroke:#840000; stroke-width:0.2540; stroke-opacity:1; 
stroke-linecap:round; stroke-linejoin:round;fill:none"
d="M 11.8756,7.6201
11.8756,8.6361
" /> 
<path style="fill:#840000; fill-opacity:0.0; 
stroke:#840000; stroke-width:0.2540; stroke-opacity:1; 
stroke-linecap:round; stroke-linejoin:round;fill:none"
d="M 11.8756,5.8421
11.8756,6.8581
" /> 
<path style="fill:#840000; fill-opacity:0.0; 
stroke:#840000; stroke-width:0.2540; stroke-opacity:1; 
stroke-linecap:round; stroke-linejoin:round;fill:none"
d="M 11.8756,4.0641
11.8756,5.0801
" /> 
</g>
<g style="fill:#840000; fill-opacity:0.0; 
stroke:#840000; stroke-width:0.1524; stroke-opacity:1; 
stroke-linecap:round; stroke-linejoin:round;">
<path style="fill:#840000; fill-opacity:0.0; 
stroke:#840000; stroke-width:0.1524; stroke-opacity:1; 
stroke-linecap:round; stroke-linejoin:round;fill:none"
d="M 13.6536,3.8101
13.6536,4.5721
" /> 
<path style="fill:#840000; fill-opacity:0.0; 
stroke:#840000; stroke-width:0.1524; stroke-opacity:1; 
stroke-linecap:round; stroke-linejoin:round;fill:none"
d="M 13.6536,8.8901
13.6536,6.3501
11.8756,6.3501
" /> 
<path style="fill:#840000; fill-opacity:0.0; 
stroke:#840000; stroke-width:0.1524; stroke-opacity:1; 
stroke-linecap:round; stroke-linejoin:round;fill:none"
d="M 11.8756,8.1281
14.4156,8.1281
14.4156,4.5721
11.8756,4.5721
" /> 
</g>
<g style="fill:#840000; fill-opacity:1.0000; 
stroke:#840000; stroke-width:0.1524; stroke-opacity:1; 
stroke-linecap:round; stroke-linejoin:round;">
<path style="fill:#840000; fill-opacity:1.0000; 
stroke:#840000; stroke-width:0.1524; stroke-opacity:1; 
stroke-linecap:round; stroke-linejoin:round;fill-rule:evenodd;"
d="M 12.1296,6.3501
13.1456,5.9691
13.1456,6.7311
Z" /> 
</g>
<g style="fill:#840000; fill-opacity:0.0; 
stroke:#840000; stroke-width:0.1524; stroke-opacity:1; 
stroke-linecap:round; stroke-linejoin:round;">
<path style="fill:#840000; fill-opacity:0.0; 
stroke:#840000; stroke-width:0.1524; stroke-opacity:1; 
stroke-linecap:round; stroke-linejoin:round;fill:none"
d="M 13.9076,5.8421
14.0346,5.9691
14.7966,5.9691
14.9236,6.0961
" /> 
<path style="fill:#840000; fill-opacity:0.0; 
stroke:#840000; stroke-width:0.1524; stroke-opacity:1; 
stroke-linecap:round; stroke-linejoin:round;fill:none"
d="M 14.4156,5.9691
14.0346,6.6041
14.7966,6.6041
Z" /> 
</g>
<g style="fill:#840000; fill-opacity:0.0; 
stroke:#840000; stroke-width:0.2540; stroke-opacity:1; 
stroke-linecap:round; stroke-linejoin:round;">
<circle cx="12.7646" cy="6.3501" r="2.7940" /> 
</g>
<g style="fill:#840000; fill-opacity:1.0000; 
stroke:#840000; stroke-width:0.1524; stroke-opacity:1; 
stroke-linecap:round; stroke-linejoin:round;">
<circle cx="13.6536" cy="8.1281" r="0.2540" /> 
<circle cx="13.6536" cy="4.5721" r="0.2540" /> 
</g>
<g style="fill:#840000; fill-opacity:0.0; 
stroke:#840000; stroke-width:0.1524; stroke-opacity:1; 
stroke-linecap:round; stroke-linejoin:round;">
<path d="M8.5736 6.3501
L6.0336 6.3501
" />
</g>
<g style="fill:#A90000; fill-opacity:0.0; 
stroke:#A90000; stroke-width:0.1524; stroke-opacity:1; 
stroke-linecap:round; stroke-linejoin:round;">
<text x="7.3036" y="6.0961"
textLength="1.4127" font-size="1.6933" lengthAdjust="spacingAndGlyphs"
text-anchor="middle" opacity="0">1</text>
<g class="stroked-text"><desc>1</desc>
<path d="M7.6665 5.9326
L6.9408 5.9326
" />
<path d="M7.3036 5.9326
L7.3036 4.6626
" />
<path d="M7.3036 4.6626
L7.1827 4.8441
" />
<path d="M7.1827 4.8441
L7.0617 4.9650
" />
<path d="M7.0617 4.9650
L6.9408 5.0255
" />
</g></g>
<g style="fill:#840000; fill-opacity:0.0; 
stroke:#840000; stroke-width:0.1524; stroke-opacity:1; 
stroke-linecap:round; stroke-linejoin:round;">
<path d="M13.6536 13.9701
L13.6536 11.4301
" />
</g>
<g style="fill:#A90000; fill-opacity:0.0; 
stroke:#A90000; stroke-width:0.1524; stroke-opacity:1; 
stroke-linecap:round; stroke-linejoin:round;">
<g transform="rotate(-90.000000 13.3996 12.7001)">
<text x="13.3996" y="12.7001"
textLength="1.4127" font-size="1.6933" lengthAdjust="spacingAndGlyphs"
text-anchor="middle" opacity="0">2</text>
</g>
<g class="stroked-text"><desc>2</desc>
<path d="M12.0871 13.0628
L12.0266 13.0024
" />
<path d="M12.0266 13.0024
L11.9661 12.8814
" />
<path d="M11.9661 12.8814
L11.9661 12.5790
" />
<path d="M11.9661 12.5790
L12.0266 12.4581
" />
<path d="M12.0266 12.4581
L12.0871 12.3976
" />
<path d="M12.0871 12.3976
L12.2080 12.3371
" />
<path d="M12.2080 12.3371
L12.3290 12.3371
" />
<path d="M12.3290 12.3371
L12.5104 12.3976
" />
<path d="M12.5104 12.3976
L13.2361 13.1233
" />
<path d="M13.2361 13.1233
L13.2361 12.3371
" />
</g></g>
<g style="fill:#840000; fill-opacity:0.0; 
stroke:#840000; stroke-width:0.1524; stroke-opacity:1; 
stroke-linecap:round; stroke-linejoin:round;">
<path d="M13.6536 3.8101
L13.6536 1.2701
" />
</g>
<g style="fill:#A90000; fill-opacity:0.0; 
stroke:#A90000; stroke-width:0.1524; stroke-opacity:1; 
stroke-linecap:round; stroke-linejoin:round;">
<g transform="rotate(-90.000000 13.3996 2.5401)">
<text x="13.3996" y="2.5401"
textLength="1.4127" font-size="1.6933" lengthAdjust="spacingAndGlyphs"
text-anchor="middle" opacity="0">3</text>
</g>
<g class="stroked-text"><desc>3</desc>
<path d="M11.9661 2.9633
L11.9661 2.1771
" />
<path d="M11.9661 2.1771
L12.4499 2.6005
" />
<path d="M12.4499 2.6005
L12.4499 2.4190
" />
<path d="M12.4499 2.4190
L12.5104 2.2981
" />
<path d="M12.5104 2.2981
L12.5709 2.2376
" />
<path d="M12.5709 2.2376
L12.6918 2.1771
" />
<path d="M12.6918 2.1771
L12.9942 2.1771
" />
<path d="M12.9942 2.1771
L13.1152 2.2376
" />
<path d="M13.1152 2.2376
L13.1757 2.2981
" />
<path d="M13.1757 2.2981
L13.2361 2.4190
" />
<path d="M13.2361 2.4190
L13.2361 2.7819
" />
<path d="M13.2361 2.7819
L13.1757 2.9028
" />
<path d="M13.1757 2.9028
L13.1152 2.9633
" />
</g></g>
<g style="fill:#840084; fill-opacity:0.0; 
stroke:#840084; stroke-width:0.1524; stroke-opacity:1; 
stroke-linecap:round; stroke-linejoin:round;">
</g>
<g style="fill:#006464; fill-opacity:0.0; 
stroke:#006464; stroke-width:0.1524; stroke-opacity:1; 
stroke-linecap:round; stroke-linejoin:round;">
</g>
<g style="fill:#006464; fill-opacity:0.0; 
stroke:#006464; stroke-width:0.1588; stroke-opacity:1; 
stroke-linecap:round; stroke-linejoin:round;">
<text x="17.5143" y="5.0801"
textLength="2.6415" font-size="1.6933" lengthAdjust="spacingAndGlyphs"
text-anchor="middle" opacity="0">Q?</text>
<g class="stroked-text"><desc>Q?</desc>
<path d="M17.4538 5.1453
L17.3328 5.0848
" />
<path d="M17.3328 5.0848
L17.2119 4.9639
" />
<path d="M17.2119 4.9639
L17.0305 4.7824
" />
<path d="M17.0305 4.7824
L16.9095 4.7219
" />
<path d="M16.9095 4.7219
L16.7886 4.7219
" />
<path d="M16.8490 5.0243
L16.7281 4.9639
" />
<path d="M16.7281 4.9639
L16.6071 4.8429
" />
<path d="M16.6071 4.8429
L16.5467 4.6010
" />
<path d="M16.5467 4.6010
L16.5467 4.1777
" />
<path d="M16.5467 4.1777
L16.6071 3.9358
" />
<path d="M16.6071 3.9358
L16.7281 3.8148
" />
<path d="M16.7281 3.8148
L16.8490 3.7543
" />
<path d="M16.8490 3.7543
L17.0909 3.7543
" />
<path d="M17.0909 3.7543
L17.2119 3.8148
" />
<path d="M17.2119 3.8148
L17.3328 3.9358
" />
<path d="M17.3328 3.9358
L17.3933 4.1777
" />
<path d="M17.3933 4.1777
L17.3933 4.6010
" />
<path d="M17.3933 4.6010
L17.3328 4.8429
" />
<path d="M17.3328 4.8429
L17.2119 4.9639
" />
<path d="M17.2119 4.9639
L17.0909 5.0243
" />
<path d="M17.0909 5.0243
L16.8490 5.0243
" />
<path d="M18.1191 4.9034
L18.1795 4.9639
" />
<path d="M18.1795 4.9639
L18.1191 5.0243
" />
<path d="M18.1191 5.0243
L18.0586 4.9639
" />
<path d="M18.0586 4.9639
L18.1191 4.9034
" />
<path d="M18.1191 4.9034
L18.1191 5.0243
" />
<path d="M17.8772 3.8148
L17.9981 3.7543
" />
<path d="M17.9981 3.7543
L18.3005 3.7543
" />
<path d="M18.3005 3.7543
L18.4214 3.8148
" />
<path d="M18.4214 3.8148
L18.4819 3.9358
" />
<path d="M18.4819 3.9358
L18.4819 4.0567
" />
<path d="M18.4819 4.0567
L18.4214 4.1777
" />
<path d="M18.4214 4.1777
L18.3610 4.2381
" />
<path d="M18.3610 4.2381
L18.2400 4.2986
" />
<path d="M18.2400 4.2986
L18.1795 4.3591
" />
<path d="M18.1795 4.3591
L18.1191 4.4800
" />
<path d="M18.1191 4.4800
L18.1191 4.5405
" />
</g><text x="19.9635" y="6.9851"
textLength="7.5399" font-size="1.6933" lengthAdjust="spacingAndGlyphs"
text-anchor="middle" opacity="0">BSS138</text>
<g class="stroked-text"><desc>BSS138</desc>
<path d="M17.0305 6.2641
L17.2119 6.3246
" />
<path d="M17.2119 6.3246
L17.2724 6.3850
" />
<path d="M17.2724 6.3850
L17.3328 6.5060
" />
<path d="M17.3328 6.5060
L17.3328 6.6874
" />
<path d="M17.3328 6.6874
L17.2724 6.8084
" />
<path d="M17.2724 6.8084
L17.2119 6.8689
" />
<path d="M17.2119 6.8689
L17.0909 6.9293
" />
<path d="M17.0909 6.9293
L16.6071 6.9293
" />
<path d="M16.6071 6.9293
L16.6071 5.6593
" />
<path d="M16.6071 5.6593
L17.0305 5.6593
" />
<path d="M17.0305 5.6593
L17.1514 5.7198
" />
<path d="M17.1514 5.7198
L17.2119 5.7803
" />
<path d="M17.2119 5.7803
L17.2724 5.9012
" />
<path d="M17.2724 5.9012
L17.2724 6.0222
" />
<path d="M17.2724 6.0222
L17.2119 6.1431
" />
<path d="M17.2119 6.1431
L17.1514 6.2036
" />
<path d="M17.1514 6.2036
L17.0305 6.2641
" />
<path d="M17.0305 6.2641
L16.6071 6.2641
" />
<path d="M17.8167 6.8689
L17.9981 6.9293
" />
<path d="M17.9981 6.9293
L18.3005 6.9293
" />
<path d="M18.3005 6.9293
L18.4214 6.8689
" />
<path d="M18.4214 6.8689
L18.4819 6.8084
" />
<path d="M18.4819 6.8084
L18.5424 6.6874
" />
<path d="M18.5424 6.6874
L18.5424 6.5665
" />
<path d="M18.5424 6.5665
L18.4819 6.4455
" />
<path d="M18.4819 6.4455
L18.4214 6.3850
" />
<path d="M18.4214 6.3850
L18.3005 6.3246
" />
<path d="M18.3005 6.3246
L18.0586 6.2641
" />
<path d="M18.0586 6.2641
L17.9376 6.2036
" />
<path d="M17.9376 6.2036
L17.8771 6.1431
" />
<path d="M17.8771 6.1431
L17.8167 6.0222
" />
<path d="M17.8167 6.0222
L17.8167 5.9012
" />
<path d="M17.8167 5.9012
L17.8771 5.7803
" />
<path d="M17.8771 5.7803
L17.9376 5.7198
" />
<path d="M17.9376 5.7198
L18.0586 5.6593
" />
<path d="M18.0586 5.6593
L18.3609 5.6593
" />
<path d="M18.3609 5.6593
L18.5424 5.7198
" />
<path d="M19.0262 6.8689
L19.2076 6.9293
" />
<path d="M19.2076 6.9293
L19.5100 6.9293
" />
<path d="M19.5100 6.9293
L19.6309 6.8689
" />
<path d="M19.6309 6.8689
L19.6914 6.8084
" />
<path d="M19.6914 6.8084
L19.7519 6.6874
" />
<path d="M19.7519 6.6874
L19.7519 6.5665
" />
<path d="M19.7519 6.5665
L19.6914 6.4455
" />
<path d="M19.6914 6.4455
L19.6309 6.3850
" />
<path d="M19.6309 6.3850
L19.5100 6.3246
" />
<path d="M19.5100 6.3246
L19.2681 6.2641
" />
<path d="M19.2681 6.2641
L19.1471 6.2036
" />
<path d="M19.1471 6.2036
L19.0866 6.1431
" />
<path d="M19.0866 6.1431
L19.0262 6.0222
" />
<path d="M19.0262 6.0222
L19.0262 5.9012
" />
<path d="M19.0262 5.9012
L19.0866 5.7803
" />
<path d="M19.0866 5.7803
L19.1471 5.7198
" />
<path d="M19.1471 5.7198
L19.2681 5.6593
" />
<path d="M19.2681 5.6593
L19.5704 5.6593
" />
<path d="M19.5704 5.6593
L19.7519 5.7198
" />
<path d="M20.9614 6.9293
L20.2357 6.9293
" />
<path d="M20.5985 6.9293
L20.5985 5.6593
" />
<path d="M20.5985 5.6593
L20.4776 5.8408
" />
<path d="M20.4776 5.8408
L20.3566 5.9617
" />
<path d="M20.3566 5.9617
L20.2357 6.0222
" />
<path d="M21.3847 5.6593
L22.1709 5.6593
" />
<path d="M22.1709 5.6593
L21.7475 6.1431
" />
<path d="M21.7475 6.1431
L21.9290 6.1431
" />
<path d="M21.9290 6.1431
L22.0499 6.2036
" />
<path d="M22.0499 6.2036
L22.1104 6.2641
" />
<path d="M22.1104 6.2641
L22.1709 6.3850
" />
<path d="M22.1709 6.3850
L22.1709 6.6874
" />
<path d="M22.1709 6.6874
L22.1104 6.8084
" />
<path d="M22.1104 6.8084
L22.0499 6.8689
" />
<path d="M22.0499 6.8689
L21.9290 6.9293
" />
<path d="M21.9290 6.9293
L21.5661 6.9293
" />
<path d="M21.5661 6.9293
L21.4452 6.8689
" />
<path d="M21.4452 6.8689
L21.3847 6.8084
" />
<path d="M22.8966 6.2036
L22.7756 6.1431
" />
<path d="M22.7756 6.1431
L22.7151 6.0827
" />
<path d="M22.7151 6.0827
L22.6547 5.9617
" />
<path d="M22.6547 5.9617
L22.6547 5.9012
" />
<path d="M22.6547 5.9012
L22.7151 5.7803
" />
<path d="M22.7151 5.7803
L22.7756 5.7198
" />
<path d="M22.7756 5.7198
L22.8966 5.6593
" />
<path d="M22.8966 5.6593
L23.1385 5.6593
" />
<path d="M23.1385 5.6593
L23.2594 5.7198
" />
<path d="M23.2594 5.7198
L23.3199 5.7803
" />
<path d="M23.3199 5.7803
L23.3804 5.9012
" />
<path d="M23.3804 5.9012
L23.3804 5.9617
" />
<path d="M23.3804 5.9617
L23.3199 6.0827
" />
<path d="M23.3199 6.0827
L23.2594 6.1431
" />
<path d="M23.2594 6.1431
L23.1385 6.2036
" />
<path d="M23.1385 6.2036
L22.8966 6.2036
" />
<path d="M22.8966 6.2036
L22.7756 6.2641
" />
<path d="M22.7756 6.2641
L22.7151 6.3246
" />
<path d="M22.7151 6.3246
L22.6547 6.4455
" />
<path d="M22.6547 6.4455
L22.6547 6.6874
" />
<path d="M22.6547 6.6874
L22.7151 6.8084
" />
<path d="M22.7151 6.8084
L22.7756 6.8689
" />
<path d="M22.7756 6.8689
L22.8966 6.9293
" />
<path d="M22.8966 6.9293
L23.1385 6.9293
" />
<path d="M23.1385 6.9293
L23.2594 6.8689
" />
<path d="M23.2594 6.8689
L23.3199 6.8084
" />
<path d="M23.3199 6.8084
L23.3804 6.6874
" />
<path d="M23.3804 6.6874
L23.3804 6.4455
" />
<path d="M23.3804 6.4455
L23.3199 6.3246
" />
<path d="M23.3199 6.3246
L23.2594 6.2641
" />
<path d="M23.2594 6.2641
L23.1385 6.2036
" />
</g></g>
<g style="fill:#840084; fill-opacity:0.0; 
stroke:#840084; stroke-width:0.1588; stroke-opacity:1; 
stroke-linecap:round; stroke-linejoin:round;">
<text x="30.6375" y="8.8901"
textLength="28.8879" font-size="1.6933" lengthAdjust="spacingAndGlyphs"
text-anchor="middle" opacity="0">Package_TO_SOT_SMD:SOT-23</text>
<g class="stroked-text"><desc>Package_TO_SOT_SMD:SOT-23</desc>
<path d="M16.5996 8.8343
L16.7583 7.5643
" />
<path d="M16.7583 7.5643
L17.2421 7.5643
" />
<path d="M17.2421 7.5643
L17.3555 7.6248
" />
<path d="M17.3555 7.6248
L17.4084 7.6853
" />
<path d="M17.4084 7.6853
L17.4538 7.8062
" />
<path d="M17.4538 7.8062
L17.4311 7.9877
" />
<path d="M17.4311 7.9877
L17.3555 8.1086
" />
<path d="M17.3555 8.1086
L17.2875 8.1691
" />
<path d="M17.2875 8.1691
L17.1590 8.2296
" />
<path d="M17.1590 8.2296
L16.6752 8.2296
" />
<path d="M18.4139 8.8343
L18.4970 8.1691
" />
<path d="M18.4970 8.1691
L18.4517 8.0481
" />
<path d="M18.4517 8.0481
L18.3383 7.9877
" />
<path d="M18.3383 7.9877
L18.0964 7.9877
" />
<path d="M18.0964 7.9877
L17.9678 8.0481
" />
<path d="M18.4214 8.7739
L18.2929 8.8343
" />
<path d="M18.2929 8.8343
L17.9905 8.8343
" />
<path d="M17.9905 8.8343
L17.8771 8.7739
" />
<path d="M17.8771 8.7739
L17.8318 8.6529
" />
<path d="M17.8318 8.6529
L17.8469 8.5319
" />
<path d="M17.8469 8.5319
L17.9225 8.4110
" />
<path d="M17.9225 8.4110
L18.0510 8.3505
" />
<path d="M18.0510 8.3505
L18.3534 8.3505
" />
<path d="M18.3534 8.3505
L18.4819 8.2900
" />
<path d="M19.5704 8.7739
L19.4419 8.8343
" />
<path d="M19.4419 8.8343
L19.2000 8.8343
" />
<path d="M19.2000 8.8343
L19.0866 8.7739
" />
<path d="M19.0866 8.7739
L19.0337 8.7134
" />
<path d="M19.0337 8.7134
L18.9883 8.5924
" />
<path d="M18.9883 8.5924
L19.0337 8.2296
" />
<path d="M19.0337 8.2296
L19.1093 8.1086
" />
<path d="M19.1093 8.1086
L19.1773 8.0481
" />
<path d="M19.1773 8.0481
L19.3058 7.9877
" />
<path d="M19.3058 7.9877
L19.5477 7.9877
" />
<path d="M19.5477 7.9877
L19.6611 8.0481
" />
<path d="M20.1072 8.8343
L20.2659 7.5643
" />
<path d="M20.2886 8.3505
L20.5910 8.8343
" />
<path d="M20.6968 7.9877
L20.1525 8.4715
" />
<path d="M21.6796 8.8343
L21.7627 8.1691
" />
<path d="M21.7627 8.1691
L21.7174 8.0481
" />
<path d="M21.7174 8.0481
L21.6040 7.9877
" />
<path d="M21.6040 7.9877
L21.3621 7.9877
" />
<path d="M21.3621 7.9877
L21.2335 8.0481
" />
<path d="M21.6871 8.7739
L21.5586 8.8343
" />
<path d="M21.5586 8.8343
L21.2562 8.8343
" />
<path d="M21.2562 8.8343
L21.1428 8.7739
" />
<path d="M21.1428 8.7739
L21.0975 8.6529
" />
<path d="M21.0975 8.6529
L21.1126 8.5319
" />
<path d="M21.1126 8.5319
L21.1882 8.4110
" />
<path d="M21.1882 8.4110
L21.3167 8.3505
" />
<path d="M21.3167 8.3505
L21.6191 8.3505
" />
<path d="M21.6191 8.3505
L21.7476 8.2900
" />
<path d="M22.9344 7.9877
L22.8059 9.0158
" />
<path d="M22.8059 9.0158
L22.7303 9.1367
" />
<path d="M22.7303 9.1367
L22.6622 9.1972
" />
<path d="M22.6622 9.1972
L22.5337 9.2577
" />
<path d="M22.5337 9.2577
L22.3523 9.2577
" />
<path d="M22.3523 9.2577
L22.2389 9.1972
" />
<path d="M22.8361 8.7739
L22.7076 8.8343
" />
<path d="M22.7076 8.8343
L22.4657 8.8343
" />
<path d="M22.4657 8.8343
L22.3523 8.7739
" />
<path d="M22.3523 8.7739
L22.2994 8.7134
" />
<path d="M22.2994 8.7134
L22.2540 8.5924
" />
<path d="M22.2540 8.5924
L22.2994 8.2296
" />
<path d="M22.2994 8.2296
L22.3750 8.1086
" />
<path d="M22.3750 8.1086
L22.4430 8.0481
" />
<path d="M22.4430 8.0481
L22.5715 7.9877
" />
<path d="M22.5715 7.9877
L22.8134 7.9877
" />
<path d="M22.8134 7.9877
L22.9268 8.0481
" />
<path d="M23.9246 8.7739
L23.7961 8.8343
" />
<path d="M23.7961 8.8343
L23.5542 8.8343
" />
<path d="M23.5542 8.8343
L23.4408 8.7739
" />
<path d="M23.4408 8.7739
L23.3955 8.6529
" />
<path d="M23.3955 8.6529
L23.4560 8.1691
" />
<path d="M23.4560 8.1691
L23.5315 8.0481
" />
<path d="M23.5315 8.0481
L23.6601 7.9877
" />
<path d="M23.6601 7.9877
L23.9020 7.9877
" />
<path d="M23.9020 7.9877
L24.0154 8.0481
" />
<path d="M24.0154 8.0481
L24.0607 8.1691
" />
<path d="M24.0607 8.1691
L24.0456 8.2900
" />
<path d="M24.0456 8.2900
L23.4257 8.4110
" />
<path d="M24.2044 8.9553
L25.1720 8.9553
" />
<path d="M25.4668 7.5643
L26.1925 7.5643
" />
<path d="M25.6709 8.8343
L25.8297 7.5643
" />
<path d="M26.8577 7.5643
L27.0996 7.5643
" />
<path d="M27.0996 7.5643
L27.2130 7.6248
" />
<path d="M27.2130 7.6248
L27.3189 7.7458
" />
<path d="M27.3189 7.7458
L27.3491 7.9877
" />
<path d="M27.3491 7.9877
L27.2962 8.4110
" />
<path d="M27.2962 8.4110
L27.2055 8.6529
" />
<path d="M27.2055 8.6529
L27.0694 8.7739
" />
<path d="M27.0694 8.7739
L26.9409 8.8343
" />
<path d="M26.9409 8.8343
L26.6990 8.8343
" />
<path d="M26.6990 8.8343
L26.5856 8.7739
" />
<path d="M26.5856 8.7739
L26.4798 8.6529
" />
<path d="M26.4798 8.6529
L26.4495 8.4110
" />
<path d="M26.4495 8.4110
L26.5024 7.9877
" />
<path d="M26.5024 7.9877
L26.5931 7.7458
" />
<path d="M26.5931 7.7458
L26.7292 7.6248
" />
<path d="M26.7292 7.6248
L26.8577 7.5643
" />
<path d="M27.4701 8.9553
L28.4377 8.9553
" />
<path d="M28.7023 8.7739
L28.8761 8.8343
" />
<path d="M28.8761 8.8343
L29.1785 8.8343
" />
<path d="M29.1785 8.8343
L29.3070 8.7739
" />
<path d="M29.3070 8.7739
L29.3751 8.7134
" />
<path d="M29.3751 8.7134
L29.4506 8.5924
" />
<path d="M29.4506 8.5924
L29.4658 8.4715
" />
<path d="M29.4658 8.4715
L29.4204 8.3505
" />
<path d="M29.4204 8.3505
L29.3675 8.2900
" />
<path d="M29.3675 8.2900
L29.2541 8.2296
" />
<path d="M29.2541 8.2296
L29.0198 8.1691
" />
<path d="M29.0198 8.1691
L28.9064 8.1086
" />
<path d="M28.9064 8.1086
L28.8534 8.0481
" />
<path d="M28.8534 8.0481
L28.8081 7.9272
" />
<path d="M28.8081 7.9272
L28.8232 7.8062
" />
<path d="M28.8232 7.8062
L28.8988 7.6853
" />
<path d="M28.8988 7.6853
L28.9668 7.6248
" />
<path d="M28.9668 7.6248
L29.0954 7.5643
" />
<path d="M29.0954 7.5643
L29.3977 7.5643
" />
<path d="M29.3977 7.5643
L29.5716 7.6248
" />
<path d="M30.3653 7.5643
L30.6072 7.5643
" />
<path d="M30.6072 7.5643
L30.7206 7.6248
" />
<path d="M30.7206 7.6248
L30.8265 7.7458
" />
<path d="M30.8265 7.7458
L30.8567 7.9877
" />
<path d="M30.8567 7.9877
L30.8038 8.4110
" />
<path d="M30.8038 8.4110
L30.7131 8.6529
" />
<path d="M30.7131 8.6529
L30.5770 8.7739
" />
<path d="M30.5770 8.7739
L30.4485 8.8343
" />
<path d="M30.4485 8.8343
L30.2066 8.8343
" />
<path d="M30.2066 8.8343
L30.0932 8.7739
" />
<path d="M30.0932 8.7739
L29.9874 8.6529
" />
<path d="M29.9874 8.6529
L29.9571 8.4110
" />
<path d="M29.9571 8.4110
L30.0100 7.9877
" />
<path d="M30.0100 7.9877
L30.1007 7.7458
" />
<path d="M30.1007 7.7458
L30.2368 7.6248
" />
<path d="M30.2368 7.6248
L30.3653 7.5643
" />
<path d="M31.2725 7.5643
L31.9982 7.5643
" />
<path d="M31.4766 8.8343
L31.6354 7.5643
" />
<path d="M31.9453 8.9553
L32.9129 8.9553
" />
<path d="M33.1775 8.7739
L33.3513 8.8343
" />
<path d="M33.3513 8.8343
L33.6537 8.8343
" />
<path d="M33.6537 8.8343
L33.7822 8.7739
" />
<path d="M33.7822 8.7739
L33.8503 8.7134
" />
<path d="M33.8503 8.7134
L33.9258 8.5924
" />
<path d="M33.9258 8.5924
L33.9410 8.4715
" />
<path d="M33.9410 8.4715
L33.8956 8.3505
" />
<path d="M33.8956 8.3505
L33.8427 8.2900
" />
<path d="M33.8427 8.2900
L33.7293 8.2296
" />
<path d="M33.7293 8.2296
L33.4950 8.1691
" />
<path d="M33.4950 8.1691
L33.3816 8.1086
" />
<path d="M33.3816 8.1086
L33.3286 8.0481
" />
<path d="M33.3286 8.0481
L33.2833 7.9272
" />
<path d="M33.2833 7.9272
L33.2984 7.8062
" />
<path d="M33.2984 7.8062
L33.3740 7.6853
" />
<path d="M33.3740 7.6853
L33.4420 7.6248
" />
<path d="M33.4420 7.6248
L33.5706 7.5643
" />
<path d="M33.5706 7.5643
L33.8729 7.5643
" />
<path d="M33.8729 7.5643
L34.0468 7.6248
" />
<path d="M34.4399 8.8343
L34.5986 7.5643
" />
<path d="M34.5986 7.5643
L34.9086 8.4715
" />
<path d="M34.9086 8.4715
L35.4453 7.5643
" />
<path d="M35.4453 7.5643
L35.2865 8.8343
" />
<path d="M35.8913 8.8343
L36.0500 7.5643
" />
<path d="M36.0500 7.5643
L36.3524 7.5643
" />
<path d="M36.3524 7.5643
L36.5263 7.6248
" />
<path d="M36.5263 7.6248
L36.6321 7.7458
" />
<path d="M36.6321 7.7458
L36.6775 7.8667
" />
<path d="M36.6775 7.8667
L36.7077 8.1086
" />
<path d="M36.7077 8.1086
L36.6850 8.2900
" />
<path d="M36.6850 8.2900
L36.5943 8.5319
" />
<path d="M36.5943 8.5319
L36.5187 8.6529
" />
<path d="M36.5187 8.6529
L36.3826 8.7739
" />
<path d="M36.3826 8.7739
L36.1937 8.8343
" />
<path d="M36.1937 8.8343
L35.8913 8.8343
" />
<path d="M37.1764 8.7134
L37.2293 8.7739
" />
<path d="M37.2293 8.7739
L37.1613 8.8343
" />
<path d="M37.1613 8.8343
L37.1084 8.7739
" />
<path d="M37.1084 8.7739
L37.1764 8.7134
" />
<path d="M37.1764 8.7134
L37.1613 8.8343
" />
<path d="M37.2595 8.0481
L37.3125 8.1086
" />
<path d="M37.3125 8.1086
L37.2444 8.1691
" />
<path d="M37.2444 8.1691
L37.1915 8.1086
" />
<path d="M37.1915 8.1086
L37.2595 8.0481
" />
<path d="M37.2595 8.0481
L37.2444 8.1691
" />
<path d="M37.7132 8.7739
L37.8870 8.8343
" />
<path d="M37.8870 8.8343
L38.1894 8.8343
" />
<path d="M38.1894 8.8343
L38.3179 8.7739
" />
<path d="M38.3179 8.7739
L38.3860 8.7134
" />
<path d="M38.3860 8.7134
L38.4615 8.5924
" />
<path d="M38.4615 8.5924
L38.4767 8.4715
" />
<path d="M38.4767 8.4715
L38.4313 8.3505
" />
<path d="M38.4313 8.3505
L38.3784 8.2900
" />
<path d="M38.3784 8.2900
L38.2650 8.2296
" />
<path d="M38.2650 8.2296
L38.0307 8.1691
" />
<path d="M38.0307 8.1691
L37.9173 8.1086
" />
<path d="M37.9173 8.1086
L37.8643 8.0481
" />
<path d="M37.8643 8.0481
L37.8190 7.9272
" />
<path d="M37.8190 7.9272
L37.8341 7.8062
" />
<path d="M37.8341 7.8062
L37.9097 7.6853
" />
<path d="M37.9097 7.6853
L37.9777 7.6248
" />
<path d="M37.9777 7.6248
L38.1063 7.5643
" />
<path d="M38.1063 7.5643
L38.4086 7.5643
" />
<path d="M38.4086 7.5643
L38.5825 7.6248
" />
<path d="M39.3762 7.5643
L39.6181 7.5643
" />
<path d="M39.6181 7.5643
L39.7315 7.6248
" />
<path d="M39.7315 7.6248
L39.8374 7.7458
" />
<path d="M39.8374 7.7458
L39.8676 7.9877
" />
<path d="M39.8676 7.9877
L39.8147 8.4110
" />
<path d="M39.8147 8.4110
L39.7240 8.6529
" />
<path d="M39.7240 8.6529
L39.5879 8.7739
" />
<path d="M39.5879 8.7739
L39.4594 8.8343
" />
<path d="M39.4594 8.8343
L39.2175 8.8343
" />
<path d="M39.2175 8.8343
L39.1041 8.7739
" />
<path d="M39.1041 8.7739
L38.9983 8.6529
" />
<path d="M38.9983 8.6529
L38.9680 8.4110
" />
<path d="M38.9680 8.4110
L39.0209 7.9877
" />
<path d="M39.0209 7.9877
L39.1116 7.7458
" />
<path d="M39.1116 7.7458
L39.2477 7.6248
" />
<path d="M39.2477 7.6248
L39.3762 7.5643
" />
<path d="M40.2834 7.5643
L41.0091 7.5643
" />
<path d="M40.4875 8.8343
L40.6463 7.5643
" />
<path d="M41.3341 8.3505
L42.3018 8.3505
" />
<path d="M42.9292 7.6853
L42.9973 7.6248
" />
<path d="M42.9973 7.6248
L43.1258 7.5643
" />
<path d="M43.1258 7.5643
L43.4282 7.5643
" />
<path d="M43.4282 7.5643
L43.5415 7.6248
" />
<path d="M43.5415 7.6248
L43.5945 7.6853
" />
<path d="M43.5945 7.6853
L43.6398 7.8062
" />
<path d="M43.6398 7.8062
L43.6247 7.9272
" />
<path d="M43.6247 7.9272
L43.5415 8.1086
" />
<path d="M43.5415 8.1086
L42.7251 8.8343
" />
<path d="M42.7251 8.8343
L43.5113 8.8343
" />
<path d="M44.0934 7.5643
L44.8796 7.5643
" />
<path d="M44.8796 7.5643
L44.3958 8.0481
" />
<path d="M44.3958 8.0481
L44.5772 8.0481
" />
<path d="M44.5772 8.0481
L44.6906 8.1086
" />
<path d="M44.6906 8.1086
L44.7435 8.1691
" />
<path d="M44.7435 8.1691
L44.7888 8.2900
" />
<path d="M44.7888 8.2900
L44.7510 8.5924
" />
<path d="M44.7510 8.5924
L44.6755 8.7134
" />
<path d="M44.6755 8.7134
L44.6074 8.7739
" />
<path d="M44.6074 8.7739
L44.4789 8.8343
" />
<path d="M44.4789 8.8343
L44.1160 8.8343
" />
<path d="M44.1160 8.8343
L44.0027 8.7739
" />
<path d="M44.0027 8.7739
L43.9497 8.7134
" />
</g><text x="38.7413" y="6.9851"
textLength="55.2554" font-size="1.6933" lengthAdjust="spacingAndGlyphs"
text-anchor="middle" opacity="0">https://www.onsemi.com/pub/Collateral/BSS138-D.PDF</text>
<g class="stroked-text"><desc>https://www.onsemi.com/pub/Collateral/BSS138-D.PDF</desc>
<path d="M11.5271 6.9293
L11.5271 5.6593
" />
<path d="M12.0714 6.9293
L12.0714 6.2641
" />
<path d="M12.0714 6.2641
L12.0109 6.1431
" />
<path d="M12.0109 6.1431
L11.8900 6.0827
" />
<path d="M11.8900 6.0827
L11.7086 6.0827
" />
<path d="M11.7086 6.0827
L11.5876 6.1431
" />
<path d="M11.5876 6.1431
L11.5271 6.2036
" />
<path d="M12.4947 6.0827
L12.9785 6.0827
" />
<path d="M12.6761 5.6593
L12.6761 6.7479
" />
<path d="M12.6761 6.7479
L12.7366 6.8689
" />
<path d="M12.7366 6.8689
L12.8576 6.9293
" />
<path d="M12.8576 6.9293
L12.9785 6.9293
" />
<path d="M13.2204 6.0827
L13.7042 6.0827
" />
<path d="M13.4018 5.6593
L13.4018 6.7479
" />
<path d="M13.4018 6.7479
L13.4623 6.8689
" />
<path d="M13.4623 6.8689
L13.5833 6.9293
" />
<path d="M13.5833 6.9293
L13.7042 6.9293
" />
<path d="M14.1275 6.0827
L14.1275 7.3527
" />
<path d="M14.1275 6.1431
L14.2485 6.0827
" />
<path d="M14.2485 6.0827
L14.4904 6.0827
" />
<path d="M14.4904 6.0827
L14.6113 6.1431
" />
<path d="M14.6113 6.1431
L14.6718 6.2036
" />
<path d="M14.6718 6.2036
L14.7323 6.3246
" />
<path d="M14.7323 6.3246
L14.7323 6.6874
" />
<path d="M14.7323 6.6874
L14.6718 6.8084
" />
<path d="M14.6718 6.8084
L14.6113 6.8689
" />
<path d="M14.6113 6.8689
L14.4904 6.9293
" />
<path d="M14.4904 6.9293
L14.2485 6.9293
" />
<path d="M14.2485 6.9293
L14.1275 6.8689
" />
<path d="M15.2161 6.8689
L15.3370 6.9293
" />
<path d="M15.3370 6.9293
L15.5789 6.9293
" />
<path d="M15.5789 6.9293
L15.6999 6.8689
" />
<path d="M15.6999 6.8689
L15.7603 6.7479
" />
<path d="M15.7603 6.7479
L15.7603 6.6874
" />
<path d="M15.7603 6.6874
L15.6999 6.5665
" />
<path d="M15.6999 6.5665
L15.5789 6.5060
" />
<path d="M15.5789 6.5060
L15.3975 6.5060
" />
<path d="M15.3975 6.5060
L15.2765 6.4455
" />
<path d="M15.2765 6.4455
L15.2161 6.3246
" />
<path d="M15.2161 6.3246
L15.2161 6.2641
" />
<path d="M15.2161 6.2641
L15.2765 6.1431
" />
<path d="M15.2765 6.1431
L15.3975 6.0827
" />
<path d="M15.3975 6.0827
L15.5789 6.0827
" />
<path d="M15.5789 6.0827
L15.6999 6.1431
" />
<path d="M16.3046 6.8084
L16.3651 6.8689
" />
<path d="M16.3651 6.8689
L16.3046 6.9293
" />
<path d="M16.3046 6.9293
L16.2442 6.8689
" />
<path d="M16.2442 6.8689
L16.3046 6.8084
" />
<path d="M16.3046 6.8084
L16.3046 6.9293
" />
<path d="M16.3046 6.1431
L16.3651 6.2036
" />
<path d="M16.3651 6.2036
L16.3046 6.2641
" />
<path d="M16.3046 6.2641
L16.2442 6.2036
" />
<path d="M16.2442 6.2036
L16.3046 6.1431
" />
<path d="M16.3046 6.1431
L16.3046 6.2641
" />
<path d="M17.8166 5.5989
L16.7280 7.2317
" />
<path d="M19.1471 5.5989
L18.0585 7.2317
" />
<path d="M19.4495 6.0827
L19.6914 6.9293
" />
<path d="M19.6914 6.9293
L19.9333 6.3246
" />
<path d="M19.9333 6.3246
L20.1752 6.9293
" />
<path d="M20.1752 6.9293
L20.4171 6.0827
" />
<path d="M20.7800 6.0827
L21.0219 6.9293
" />
<path d="M21.0219 6.9293
L21.2638 6.3246
" />
<path d="M21.2638 6.3246
L21.5057 6.9293
" />
<path d="M21.5057 6.9293
L21.7476 6.0827
" />
<path d="M22.1105 6.0827
L22.3524 6.9293
" />
<path d="M22.3524 6.9293
L22.5943 6.3246
" />
<path d="M22.5943 6.3246
L22.8362 6.9293
" />
<path d="M22.8362 6.9293
L23.0781 6.0827
" />
<path d="M23.5619 6.8084
L23.6224 6.8689
" />
<path d="M23.6224 6.8689
L23.5619 6.9293
" />
<path d="M23.5619 6.9293
L23.5015 6.8689
" />
<path d="M23.5015 6.8689
L23.5619 6.8084
" />
<path d="M23.5619 6.8084
L23.5619 6.9293
" />
<path d="M24.3482 6.9293
L24.2272 6.8689
" />
<path d="M24.2272 6.8689
L24.1667 6.8084
" />
<path d="M24.1667 6.8084
L24.1063 6.6874
" />
<path d="M24.1063 6.6874
L24.1063 6.3246
" />
<path d="M24.1063 6.3246
L24.1667 6.2036
" />
<path d="M24.1667 6.2036
L24.2272 6.1431
" />
<path d="M24.2272 6.1431
L24.3482 6.0827
" />
<path d="M24.3482 6.0827
L24.5296 6.0827
" />
<path d="M24.5296 6.0827
L24.6505 6.1431
" />
<path d="M24.6505 6.1431
L24.7110 6.2036
" />
<path d="M24.7110 6.2036
L24.7715 6.3246
" />
<path d="M24.7715 6.3246
L24.7715 6.6874
" />
<path d="M24.7715 6.6874
L24.7110 6.8084
" />
<path d="M24.7110 6.8084
L24.6505 6.8689
" />
<path d="M24.6505 6.8689
L24.5296 6.9293
" />
<path d="M24.5296 6.9293
L24.3482 6.9293
" />
<path d="M25.3157 6.0827
L25.3157 6.9293
" />
<path d="M25.3157 6.2036
L25.3762 6.1431
" />
<path d="M25.3762 6.1431
L25.4972 6.0827
" />
<path d="M25.4972 6.0827
L25.6786 6.0827
" />
<path d="M25.6786 6.0827
L25.7995 6.1431
" />
<path d="M25.7995 6.1431
L25.8600 6.2641
" />
<path d="M25.8600 6.2641
L25.8600 6.9293
" />
<path d="M26.4043 6.8689
L26.5252 6.9293
" />
<path d="M26.5252 6.9293
L26.7671 6.9293
" />
<path d="M26.7671 6.9293
L26.8881 6.8689
" />
<path d="M26.8881 6.8689
L26.9485 6.7479
" />
<path d="M26.9485 6.7479
L26.9485 6.6874
" />
<path d="M26.9485 6.6874
L26.8881 6.5665
" />
<path d="M26.8881 6.5665
L26.7671 6.5060
" />
<path d="M26.7671 6.5060
L26.5857 6.5060
" />
<path d="M26.5857 6.5060
L26.4647 6.4455
" />
<path d="M26.4647 6.4455
L26.4043 6.3246
" />
<path d="M26.4043 6.3246
L26.4043 6.2641
" />
<path d="M26.4043 6.2641
L26.4647 6.1431
" />
<path d="M26.4647 6.1431
L26.5857 6.0827
" />
<path d="M26.5857 6.0827
L26.7671 6.0827
" />
<path d="M26.7671 6.0827
L26.8881 6.1431
" />
<path d="M27.9766 6.8689
L27.8557 6.9293
" />
<path d="M27.8557 6.9293
L27.6138 6.9293
" />
<path d="M27.6138 6.9293
L27.4928 6.8689
" />
<path d="M27.4928 6.8689
L27.4324 6.7479
" />
<path d="M27.4324 6.7479
L27.4324 6.2641
" />
<path d="M27.4324 6.2641
L27.4928 6.1431
" />
<path d="M27.4928 6.1431
L27.6138 6.0827
" />
<path d="M27.6138 6.0827
L27.8557 6.0827
" />
<path d="M27.8557 6.0827
L27.9766 6.1431
" />
<path d="M27.9766 6.1431
L28.0371 6.2641
" />
<path d="M28.0371 6.2641
L28.0371 6.3850
" />
<path d="M28.0371 6.3850
L27.4324 6.5060
" />
<path d="M28.5814 6.9293
L28.5814 6.0827
" />
<path d="M28.5814 6.2036
L28.6419 6.1431
" />
<path d="M28.6419 6.1431
L28.7629 6.0827
" />
<path d="M28.7629 6.0827
L28.9443 6.0827
" />
<path d="M28.9443 6.0827
L29.0652 6.1431
" />
<path d="M29.0652 6.1431
L29.1257 6.2641
" />
<path d="M29.1257 6.2641
L29.1257 6.9293
" />
<path d="M29.1257 6.2641
L29.1862 6.1431
" />
<path d="M29.1862 6.1431
L29.3071 6.0827
" />
<path d="M29.3071 6.0827
L29.4886 6.0827
" />
<path d="M29.4886 6.0827
L29.6095 6.1431
" />
<path d="M29.6095 6.1431
L29.6700 6.2641
" />
<path d="M29.6700 6.2641
L29.6700 6.9293
" />
<path d="M30.2747 6.9293
L30.2747 6.0827
" />
<path d="M30.2747 5.6593
L30.2143 5.7198
" />
<path d="M30.2143 5.7198
L30.2747 5.7803
" />
<path d="M30.2747 5.7803
L30.3352 5.7198
" />
<path d="M30.3352 5.7198
L30.2747 5.6593
" />
<path d="M30.2747 5.6593
L30.2747 5.7803
" />
<path d="M30.8795 6.8084
L30.9400 6.8689
" />
<path d="M30.9400 6.8689
L30.8795 6.9293
" />
<path d="M30.8795 6.9293
L30.8191 6.8689
" />
<path d="M30.8191 6.8689
L30.8795 6.8084
" />
<path d="M30.8795 6.8084
L30.8795 6.9293
" />
<path d="M32.0286 6.8689
L31.9077 6.9293
" />
<path d="M31.9077 6.9293
L31.6658 6.9293
" />
<path d="M31.6658 6.9293
L31.5448 6.8689
" />
<path d="M31.5448 6.8689
L31.4843 6.8084
" />
<path d="M31.4843 6.8084
L31.4239 6.6874
" />
<path d="M31.4239 6.6874
L31.4239 6.3246
" />
<path d="M31.4239 6.3246
L31.4843 6.2036
" />
<path d="M31.4843 6.2036
L31.5448 6.1431
" />
<path d="M31.5448 6.1431
L31.6658 6.0827
" />
<path d="M31.6658 6.0827
L31.9077 6.0827
" />
<path d="M31.9077 6.0827
L32.0286 6.1431
" />
<path d="M32.7544 6.9293
L32.6334 6.8689
" />
<path d="M32.6334 6.8689
L32.5729 6.8084
" />
<path d="M32.5729 6.8084
L32.5125 6.6874
" />
<path d="M32.5125 6.6874
L32.5125 6.3246
" />
<path d="M32.5125 6.3246
L32.5729 6.2036
" />
<path d="M32.5729 6.2036
L32.6334 6.1431
" />
<path d="M32.6334 6.1431
L32.7544 6.0827
" />
<path d="M32.7544 6.0827
L32.9358 6.0827
" />
<path d="M32.9358 6.0827
L33.0567 6.1431
" />
<path d="M33.0567 6.1431
L33.1172 6.2036
" />
<path d="M33.1172 6.2036
L33.1777 6.3246
" />
<path d="M33.1777 6.3246
L33.1777 6.6874
" />
<path d="M33.1777 6.6874
L33.1172 6.8084
" />
<path d="M33.1172 6.8084
L33.0567 6.8689
" />
<path d="M33.0567 6.8689
L32.9358 6.9293
" />
<path d="M32.9358 6.9293
L32.7544 6.9293
" />
<path d="M33.7219 6.9293
L33.7219 6.0827
" />
<path d="M33.7219 6.2036
L33.7824 6.1431
" />
<path d="M33.7824 6.1431
L33.9034 6.0827
" />
<path d="M33.9034 6.0827
L34.0848 6.0827
" />
<path d="M34.0848 6.0827
L34.2057 6.1431
" />
<path d="M34.2057 6.1431
L34.2662 6.2641
" />
<path d="M34.2662 6.2641
L34.2662 6.9293
" />
<path d="M34.2662 6.2641
L34.3267 6.1431
" />
<path d="M34.3267 6.1431
L34.4476 6.0827
" />
<path d="M34.4476 6.0827
L34.6291 6.0827
" />
<path d="M34.6291 6.0827
L34.7500 6.1431
" />
<path d="M34.7500 6.1431
L34.8105 6.2641
" />
<path d="M34.8105 6.2641
L34.8105 6.9293
" />
<path d="M36.3224 5.5989
L35.2338 7.2317
" />
<path d="M36.7457 6.0827
L36.7457 7.3527
" />
<path d="M36.7457 6.1431
L36.8667 6.0827
" />
<path d="M36.8667 6.0827
L37.1086 6.0827
" />
<path d="M37.1086 6.0827
L37.2295 6.1431
" />
<path d="M37.2295 6.1431
L37.2900 6.2036
" />
<path d="M37.2900 6.2036
L37.3505 6.3246
" />
<path d="M37.3505 6.3246
L37.3505 6.6874
" />
<path d="M37.3505 6.6874
L37.2900 6.8084
" />
<path d="M37.2900 6.8084
L37.2295 6.8689
" />
<path d="M37.2295 6.8689
L37.1086 6.9293
" />
<path d="M37.1086 6.9293
L36.8667 6.9293
" />
<path d="M36.8667 6.9293
L36.7457 6.8689
" />
<path d="M38.4390 6.0827
L38.4390 6.9293
" />
<path d="M37.8947 6.0827
L37.8947 6.7479
" />
<path d="M37.8947 6.7479
L37.9552 6.8689
" />
<path d="M37.9552 6.8689
L38.0762 6.9293
" />
<path d="M38.0762 6.9293
L38.2576 6.9293
" />
<path d="M38.2576 6.9293
L38.3785 6.8689
" />
<path d="M38.3785 6.8689
L38.4390 6.8084
" />
<path d="M39.0437 6.9293
L39.0437 5.6593
" />
<path d="M39.0437 6.1431
L39.1647 6.0827
" />
<path d="M39.1647 6.0827
L39.4066 6.0827
" />
<path d="M39.4066 6.0827
L39.5275 6.1431
" />
<path d="M39.5275 6.1431
L39.5880 6.2036
" />
<path d="M39.5880 6.2036
L39.6485 6.3246
" />
<path d="M39.6485 6.3246
L39.6485 6.6874
" />
<path d="M39.6485 6.6874
L39.5880 6.8084
" />
<path d="M39.5880 6.8084
L39.5275 6.8689
" />
<path d="M39.5275 6.8689
L39.4066 6.9293
" />
<path d="M39.4066 6.9293
L39.1647 6.9293
" />
<path d="M39.1647 6.9293
L39.0437 6.8689
" />
<path d="M41.0999 5.5989
L40.0113 7.2317
" />
<path d="M42.2489 6.8084
L42.1885 6.8689
" />
<path d="M42.1885 6.8689
L42.0070 6.9293
" />
<path d="M42.0070 6.9293
L41.8861 6.9293
" />
<path d="M41.8861 6.9293
L41.7047 6.8689
" />
<path d="M41.7047 6.8689
L41.5837 6.7479
" />
<path d="M41.5837 6.7479
L41.5232 6.6269
" />
<path d="M41.5232 6.6269
L41.4628 6.3850
" />
<path d="M41.4628 6.3850
L41.4628 6.2036
" />
<path d="M41.4628 6.2036
L41.5232 5.9617
" />
<path d="M41.5232 5.9617
L41.5837 5.8408
" />
<path d="M41.5837 5.8408
L41.7047 5.7198
" />
<path d="M41.7047 5.7198
L41.8861 5.6593
" />
<path d="M41.8861 5.6593
L42.0070 5.6593
" />
<path d="M42.0070 5.6593
L42.1885 5.7198
" />
<path d="M42.1885 5.7198
L42.2489 5.7803
" />
<path d="M42.9747 6.9293
L42.8537 6.8689
" />
<path d="M42.8537 6.8689
L42.7932 6.8084
" />
<path d="M42.7932 6.8084
L42.7328 6.6874
" />
<path d="M42.7328 6.6874
L42.7328 6.3246
" />
<path d="M42.7328 6.3246
L42.7932 6.2036
" />
<path d="M42.7932 6.2036
L42.8537 6.1431
" />
<path d="M42.8537 6.1431
L42.9747 6.0827
" />
<path d="M42.9747 6.0827
L43.1561 6.0827
" />
<path d="M43.1561 6.0827
L43.2770 6.1431
" />
<path d="M43.2770 6.1431
L43.3375 6.2036
" />
<path d="M43.3375 6.2036
L43.3980 6.3246
" />
<path d="M43.3980 6.3246
L43.3980 6.6874
" />
<path d="M43.3980 6.6874
L43.3375 6.8084
" />
<path d="M43.3375 6.8084
L43.2770 6.8689
" />
<path d="M43.2770 6.8689
L43.1561 6.9293
" />
<path d="M43.1561 6.9293
L42.9747 6.9293
" />
<path d="M44.1237 6.9293
L44.0027 6.8689
" />
<path d="M44.0027 6.8689
L43.9422 6.7479
" />
<path d="M43.9422 6.7479
L43.9422 5.6593
" />
<path d="M44.7889 6.9293
L44.6679 6.8689
" />
<path d="M44.6679 6.8689
L44.6074 6.7479
" />
<path d="M44.6074 6.7479
L44.6074 5.6593
" />
<path d="M45.8169 6.9293
L45.8169 6.2641
" />
<path d="M45.8169 6.2641
L45.7564 6.1431
" />
<path d="M45.7564 6.1431
L45.6355 6.0827
" />
<path d="M45.6355 6.0827
L45.3936 6.0827
" />
<path d="M45.3936 6.0827
L45.2726 6.1431
" />
<path d="M45.8169 6.8689
L45.6960 6.9293
" />
<path d="M45.6960 6.9293
L45.3936 6.9293
" />
<path d="M45.3936 6.9293
L45.2726 6.8689
" />
<path d="M45.2726 6.8689
L45.2122 6.7479
" />
<path d="M45.2122 6.7479
L45.2122 6.6269
" />
<path d="M45.2122 6.6269
L45.2726 6.5060
" />
<path d="M45.2726 6.5060
L45.3936 6.4455
" />
<path d="M45.3936 6.4455
L45.6960 6.4455
" />
<path d="M45.6960 6.4455
L45.8169 6.3850
" />
<path d="M46.2402 6.0827
L46.7240 6.0827
" />
<path d="M46.4216 5.6593
L46.4216 6.7479
" />
<path d="M46.4216 6.7479
L46.4821 6.8689
" />
<path d="M46.4821 6.8689
L46.6031 6.9293
" />
<path d="M46.6031 6.9293
L46.7240 6.9293
" />
<path d="M47.6311 6.8689
L47.5102 6.9293
" />
<path d="M47.5102 6.9293
L47.2683 6.9293
" />
<path d="M47.2683 6.9293
L47.1473 6.8689
" />
<path d="M47.1473 6.8689
L47.0869 6.7479
" />
<path d="M47.0869 6.7479
L47.0869 6.2641
" />
<path d="M47.0869 6.2641
L47.1473 6.1431
" />
<path d="M47.1473 6.1431
L47.2683 6.0827
" />
<path d="M47.2683 6.0827
L47.5102 6.0827
" />
<path d="M47.5102 6.0827
L47.6311 6.1431
" />
<path d="M47.6311 6.1431
L47.6916 6.2641
" />
<path d="M47.6916 6.2641
L47.6916 6.3850
" />
<path d="M47.6916 6.3850
L47.0869 6.5060
" />
<path d="M48.2359 6.9293
L48.2359 6.0827
" />
<path d="M48.2359 6.3246
L48.2964 6.2036
" />
<path d="M48.2964 6.2036
L48.3569 6.1431
" />
<path d="M48.3569 6.1431
L48.4778 6.0827
" />
<path d="M48.4778 6.0827
L48.5988 6.0827
" />
<path d="M49.5664 6.9293
L49.5664 6.2641
" />
<path d="M49.5664 6.2641
L49.5059 6.1431
" />
<path d="M49.5059 6.1431
L49.3850 6.0827
" />
<path d="M49.3850 6.0827
L49.1431 6.0827
" />
<path d="M49.1431 6.0827
L49.0221 6.1431
" />
<path d="M49.5664 6.8689
L49.4455 6.9293
" />
<path d="M49.4455 6.9293
L49.1431 6.9293
" />
<path d="M49.1431 6.9293
L49.0221 6.8689
" />
<path d="M49.0221 6.8689
L48.9617 6.7479
" />
<path d="M48.9617 6.7479
L48.9617 6.6269
" />
<path d="M48.9617 6.6269
L49.0221 6.5060
" />
<path d="M49.0221 6.5060
L49.1431 6.4455
" />
<path d="M49.1431 6.4455
L49.4455 6.4455
" />
<path d="M49.4455 6.4455
L49.5664 6.3850
" />
<path d="M50.3526 6.9293
L50.2316 6.8689
" />
<path d="M50.2316 6.8689
L50.1711 6.7479
" />
<path d="M50.1711 6.7479
L50.1711 5.6593
" />
<path d="M51.7435 5.5989
L50.6549 7.2317
" />
<path d="M52.5902 6.2641
L52.7716 6.3246
" />
<path d="M52.7716 6.3246
L52.8321 6.3850
" />
<path d="M52.8321 6.3850
L52.8925 6.5060
" />
<path d="M52.8925 6.5060
L52.8925 6.6874
" />
<path d="M52.8925 6.6874
L52.8321 6.8084
" />
<path d="M52.8321 6.8084
L52.7716 6.8689
" />
<path d="M52.7716 6.8689
L52.6506 6.9293
" />
<path d="M52.6506 6.9293
L52.1668 6.9293
" />
<path d="M52.1668 6.9293
L52.1668 5.6593
" />
<path d="M52.1668 5.6593
L52.5902 5.6593
" />
<path d="M52.5902 5.6593
L52.7111 5.7198
" />
<path d="M52.7111 5.7198
L52.7716 5.7803
" />
<path d="M52.7716 5.7803
L52.8321 5.9012
" />
<path d="M52.8321 5.9012
L52.8321 6.0222
" />
<path d="M52.8321 6.0222
L52.7716 6.1431
" />
<path d="M52.7716 6.1431
L52.7111 6.2036
" />
<path d="M52.7111 6.2036
L52.5902 6.2641
" />
<path d="M52.5902 6.2641
L52.1668 6.2641
" />
<path d="M53.3764 6.8689
L53.5578 6.9293
" />
<path d="M53.5578 6.9293
L53.8602 6.9293
" />
<path d="M53.8602 6.9293
L53.9811 6.8689
" />
<path d="M53.9811 6.8689
L54.0416 6.8084
" />
<path d="M54.0416 6.8084
L54.1021 6.6874
" />
<path d="M54.1021 6.6874
L54.1021 6.5665
" />
<path d="M54.1021 6.5665
L54.0416 6.4455
" />
<path d="M54.0416 6.4455
L53.9811 6.3850
" />
<path d="M53.9811 6.3850
L53.8602 6.3246
" />
<path d="M53.8602 6.3246
L53.6183 6.2641
" />
<path d="M53.6183 6.2641
L53.4973 6.2036
" />
<path d="M53.4973 6.2036
L53.4368 6.1431
" />
<path d="M53.4368 6.1431
L53.3764 6.0222
" />
<path d="M53.3764 6.0222
L53.3764 5.9012
" />
<path d="M53.3764 5.9012
L53.4368 5.7803
" />
<path d="M53.4368 5.7803
L53.4973 5.7198
" />
<path d="M53.4973 5.7198
L53.6183 5.6593
" />
<path d="M53.6183 5.6593
L53.9206 5.6593
" />
<path d="M53.9206 5.6593
L54.1021 5.7198
" />
<path d="M54.5859 6.8689
L54.7673 6.9293
" />
<path d="M54.7673 6.9293
L55.0697 6.9293
" />
<path d="M55.0697 6.9293
L55.1906 6.8689
" />
<path d="M55.1906 6.8689
L55.2511 6.8084
" />
<path d="M55.2511 6.8084
L55.3116 6.6874
" />
<path d="M55.3116 6.6874
L55.3116 6.5665
" />
<path d="M55.3116 6.5665
L55.2511 6.4455
" />
<path d="M55.2511 6.4455
L55.1906 6.3850
" />
<path d="M55.1906 6.3850
L55.0697 6.3246
" />
<path d="M55.0697 6.3246
L54.8278 6.2641
" />
<path d="M54.8278 6.2641
L54.7068 6.2036
" />
<path d="M54.7068 6.2036
L54.6463 6.1431
" />
<path d="M54.6463 6.1431
L54.5859 6.0222
" />
<path d="M54.5859 6.0222
L54.5859 5.9012
" />
<path d="M54.5859 5.9012
L54.6463 5.7803
" />
<path d="M54.6463 5.7803
L54.7068 5.7198
" />
<path d="M54.7068 5.7198
L54.8278 5.6593
" />
<path d="M54.8278 5.6593
L55.1301 5.6593
" />
<path d="M55.1301 5.6593
L55.3116 5.7198
" />
<path d="M56.5211 6.9293
L55.7954 6.9293
" />
<path d="M56.1582 6.9293
L56.1582 5.6593
" />
<path d="M56.1582 5.6593
L56.0373 5.8408
" />
<path d="M56.0373 5.8408
L55.9163 5.9617
" />
<path d="M55.9163 5.9617
L55.7954 6.0222
" />
<path d="M56.9444 5.6593
L57.7306 5.6593
" />
<path d="M57.7306 5.6593
L57.3072 6.1431
" />
<path d="M57.3072 6.1431
L57.4887 6.1431
" />
<path d="M57.4887 6.1431
L57.6096 6.2036
" />
<path d="M57.6096 6.2036
L57.6701 6.2641
" />
<path d="M57.6701 6.2641
L57.7306 6.3850
" />
<path d="M57.7306 6.3850
L57.7306 6.6874
" />
<path d="M57.7306 6.6874
L57.6701 6.8084
" />
<path d="M57.6701 6.8084
L57.6096 6.8689
" />
<path d="M57.6096 6.8689
L57.4887 6.9293
" />
<path d="M57.4887 6.9293
L57.1258 6.9293
" />
<path d="M57.1258 6.9293
L57.0049 6.8689
" />
<path d="M57.0049 6.8689
L56.9444 6.8084
" />
<path d="M58.4563 6.2036
L58.3353 6.1431
" />
<path d="M58.3353 6.1431
L58.2748 6.0827
" />
<path d="M58.2748 6.0827
L58.2144 5.9617
" />
<path d="M58.2144 5.9617
L58.2144 5.9012
" />
<path d="M58.2144 5.9012
L58.2748 5.7803
" />
<path d="M58.2748 5.7803
L58.3353 5.7198
" />
<path d="M58.3353 5.7198
L58.4563 5.6593
" />
<path d="M58.4563 5.6593
L58.6982 5.6593
" />
<path d="M58.6982 5.6593
L58.8191 5.7198
" />
<path d="M58.8191 5.7198
L58.8796 5.7803
" />
<path d="M58.8796 5.7803
L58.9401 5.9012
" />
<path d="M58.9401 5.9012
L58.9401 5.9617
" />
<path d="M58.9401 5.9617
L58.8796 6.0827
" />
<path d="M58.8796 6.0827
L58.8191 6.1431
" />
<path d="M58.8191 6.1431
L58.6982 6.2036
" />
<path d="M58.6982 6.2036
L58.4563 6.2036
" />
<path d="M58.4563 6.2036
L58.3353 6.2641
" />
<path d="M58.3353 6.2641
L58.2748 6.3246
" />
<path d="M58.2748 6.3246
L58.2144 6.4455
" />
<path d="M58.2144 6.4455
L58.2144 6.6874
" />
<path d="M58.2144 6.6874
L58.2748 6.8084
" />
<path d="M58.2748 6.8084
L58.3353 6.8689
" />
<path d="M58.3353 6.8689
L58.4563 6.9293
" />
<path d="M58.4563 6.9293
L58.6982 6.9293
" />
<path d="M58.6982 6.9293
L58.8191 6.8689
" />
<path d="M58.8191 6.8689
L58.8796 6.8084
" />
<path d="M58.8796 6.8084
L58.9401 6.6874
" />
<path d="M58.9401 6.6874
L58.9401 6.4455
" />
<path d="M58.9401 6.4455
L58.8796 6.3246
" />
<path d="M58.8796 6.3246
L58.8191 6.2641
" />
<path d="M58.8191 6.2641
L58.6982 6.2036
" />
<path d="M59.4843 6.4455
L60.4520 6.4455
" />
<path d="M61.0567 6.9293
L61.0567 5.6593
" />
<path d="M61.0567 5.6593
L61.3591 5.6593
" />
<path d="M61.3591 5.6593
L61.5405 5.7198
" />
<path d="M61.5405 5.7198
L61.6615 5.8408
" />
<path d="M61.6615 5.8408
L61.7220 5.9617
" />
<path d="M61.7220 5.9617
L61.7824 6.2036
" />
<path d="M61.7824 6.2036
L61.7824 6.3850
" />
<path d="M61.7824 6.3850
L61.7220 6.6269
" />
<path d="M61.7220 6.6269
L61.6615 6.7479
" />
<path d="M61.6615 6.7479
L61.5405 6.8689
" />
<path d="M61.5405 6.8689
L61.3591 6.9293
" />
<path d="M61.3591 6.9293
L61.0567 6.9293
" />
<path d="M62.3267 6.8084
L62.3872 6.8689
" />
<path d="M62.3872 6.8689
L62.3267 6.9293
" />
<path d="M62.3267 6.9293
L62.2663 6.8689
" />
<path d="M62.2663 6.8689
L62.3267 6.8084
" />
<path d="M62.3267 6.8084
L62.3267 6.9293
" />
<path d="M62.9315 6.9293
L62.9315 5.6593
" />
<path d="M62.9315 5.6593
L63.4153 5.6593
" />
<path d="M63.4153 5.6593
L63.5363 5.7198
" />
<path d="M63.5363 5.7198
L63.5968 5.7803
" />
<path d="M63.5968 5.7803
L63.6572 5.9012
" />
<path d="M63.6572 5.9012
L63.6572 6.0827
" />
<path d="M63.6572 6.0827
L63.5968 6.2036
" />
<path d="M63.5968 6.2036
L63.5363 6.2641
" />
<path d="M63.5363 6.2641
L63.4153 6.3246
" />
<path d="M63.4153 6.3246
L62.9315 6.3246
" />
<path d="M64.2015 6.9293
L64.2015 5.6593
" />
<path d="M64.2015 5.6593
L64.5039 5.6593
" />
<path d="M64.5039 5.6593
L64.6853 5.7198
" />
<path d="M64.6853 5.7198
L64.8063 5.8408
" />
<path d="M64.8063 5.8408
L64.8668 5.9617
" />
<path d="M64.8668 5.9617
L64.9272 6.2036
" />
<path d="M64.9272 6.2036
L64.9272 6.3850
" />
<path d="M64.9272 6.3850
L64.8668 6.6269
" />
<path d="M64.8668 6.6269
L64.8063 6.7479
" />
<path d="M64.8063 6.7479
L64.6853 6.8689
" />
<path d="M64.6853 6.8689
L64.5039 6.9293
" />
<path d="M64.5039 6.9293
L64.2015 6.9293
" />
<path d="M65.8949 6.2641
L65.4715 6.2641
" />
<path d="M65.4715 6.9293
L65.4715 5.6593
" />
<path d="M65.4715 5.6593
L66.0763 5.6593
" />
</g></g> 
</svg>
