<?xml version="1.0" standalone="no"?>
 <!DOCTYPE svg PUBLIC "-//W3C//DTD SVG 1.1//EN" 
 "http://www.w3.org/Graphics/SVG/1.1/DTD/svg11.dtd"> 
<svg
  xmlns:svg="http://www.w3.org/2000/svg"
  xmlns="http://www.w3.org/2000/svg"
  xmlns:xlink="http://www.w3.org/1999/xlink"
  version="1.1"
  width="58.9026mm" height="27.5844mm" viewBox="0.0000 0.0000 58.9026 27.5844">
<title>SVG Image created as working.svg date 2023/08/14 18:16:16 </title>
  <desc>Image generated by Eeschema-SVG </desc>
<g style="fill:#000000; fill-opacity:1.0000;stroke:#000000; stroke-opacity:1.0000;
stroke-linecap:round; stroke-linejoin:round;"
 transform="translate(0 0) scale(1 1)">
</g>
<g style="fill:#840000; fill-opacity:0.0; 
stroke:#840000; stroke-width:0.0000; stroke-opacity:1; 
stroke-linecap:round; stroke-linejoin:round;">
</g>
<g style="fill:#FFFFC2; fill-opacity:0.0; 
stroke:#FFFFC2; stroke-width:0.0000; stroke-opacity:1; 
stroke-linecap:round; stroke-linejoin:round;">
</g>
<g style="fill:#FFFFC2; fill-opacity:1.0000; 
stroke:#FFFFC2; stroke-width:0.0000; stroke-opacity:1; 
stroke-linecap:round; stroke-linejoin:round;">
<rect x="21.832000" y="2.425700" width="15.240000" height="10.160000" rx="0.000000" />
</g>
<g style="fill:#840084; fill-opacity:1.0000; 
stroke:#840084; stroke-width:0.0000; stroke-opacity:1; 
stroke-linecap:round; stroke-linejoin:round;">
</g>
<g style="fill:#840000; fill-opacity:1.0000; 
stroke:#840000; stroke-width:0.0000; stroke-opacity:1; 
stroke-linecap:round; stroke-linejoin:round;">
</g>
<g style="fill:#840000; fill-opacity:0.0; 
stroke:#840000; stroke-width:0.2540; stroke-opacity:1; 
stroke-linecap:round; stroke-linejoin:round;">
<rect x="21.832000" y="2.425700" width="15.240000" height="10.160000" rx="0.000000" />
</g>
<g style="fill:#840000; fill-opacity:0.0; 
stroke:#840000; stroke-width:0.1524; stroke-opacity:1; 
stroke-linecap:round; stroke-linejoin:round;">
<path d="M21.8320 15.1257
L19.2920 15.1257
" />
</g>
<g style="fill:#006464; fill-opacity:0.0; 
stroke:#006464; stroke-width:0.1524; stroke-opacity:1; 
stroke-linecap:round; stroke-linejoin:round;">
<text x="22.3400" y="15.7607"
textLength="3.2271" font-size="1.6933" lengthAdjust="spacingAndGlyphs"
text-anchor="start" opacity="0">VIN</text>
<g class="stroked-text"><desc>VIN</desc>
<path d="M22.5611 14.4352
L22.9844 15.7052
" />
<path d="M22.9844 15.7052
L23.4078 14.4352
" />
<path d="M23.8311 15.7052
L23.8311 14.4352
" />
<path d="M24.4359 15.7052
L24.4359 14.4352
" />
<path d="M24.4359 14.4352
L25.1616 15.7052
" />
<path d="M25.1616 15.7052
L25.1616 14.4352
" />
</g></g>
<g style="fill:#A90000; fill-opacity:0.0; 
stroke:#A90000; stroke-width:0.1524; stroke-opacity:1; 
stroke-linecap:round; stroke-linejoin:round;">
<text x="20.5620" y="14.8717"
textLength="1.4127" font-size="1.6933" lengthAdjust="spacingAndGlyphs"
text-anchor="middle" opacity="0">1</text>
<g class="stroked-text"><desc>1</desc>
<path d="M20.9249 14.7082
L20.1992 14.7082
" />
<path d="M20.5620 14.7082
L20.5620 13.4382
" />
<path d="M20.5620 13.4382
L20.4411 13.6197
" />
<path d="M20.4411 13.6197
L20.3201 13.7406
" />
<path d="M20.3201 13.7406
L20.1992 13.8011
" />
</g></g>
<g style="fill:#840000; fill-opacity:0.0; 
stroke:#840000; stroke-width:0.1524; stroke-opacity:1; 
stroke-linecap:round; stroke-linejoin:round;">
<path d="M29.4520 22.7457
L29.4520 25.2857
" />
</g>
<g style="fill:#006464; fill-opacity:0.0; 
stroke:#006464; stroke-width:0.1524; stroke-opacity:1; 
stroke-linecap:round; stroke-linejoin:round;">
<g transform="rotate(-90.000000 29.4520 22.2377)">
<text x="29.4520" y="22.8727"
textLength="4.0737" font-size="1.6933" lengthAdjust="spacingAndGlyphs"
text-anchor="start" opacity="0">GND</text>
</g>
<g class="stroked-text"><desc>GND</desc>
<path d="M28.8220 21.1698
L28.7615 21.2908
" />
<path d="M28.7615 21.2908
L28.7615 21.4722
" />
<path d="M28.7615 21.4722
L28.8220 21.6536
" />
<path d="M28.8220 21.6536
L28.9430 21.7746
" />
<path d="M28.9430 21.7746
L29.0639 21.8351
" />
<path d="M29.0639 21.8351
L29.3058 21.8955
" />
<path d="M29.3058 21.8955
L29.4872 21.8955
" />
<path d="M29.4872 21.8955
L29.7291 21.8351
" />
<path d="M29.7291 21.8351
L29.8501 21.7746
" />
<path d="M29.8501 21.7746
L29.9711 21.6536
" />
<path d="M29.9711 21.6536
L30.0315 21.4722
" />
<path d="M30.0315 21.4722
L30.0315 21.3513
" />
<path d="M30.0315 21.3513
L29.9711 21.1698
" />
<path d="M29.9711 21.1698
L29.9106 21.1094
" />
<path d="M29.9106 21.1094
L29.4872 21.1094
" />
<path d="M29.4872 21.1094
L29.4872 21.3513
" />
<path d="M30.0315 20.5651
L28.7615 20.5651
" />
<path d="M28.7615 20.5651
L30.0315 19.8394
" />
<path d="M30.0315 19.8394
L28.7615 19.8394
" />
<path d="M30.0315 19.2346
L28.7615 19.2346
" />
<path d="M28.7615 19.2346
L28.7615 18.9322
" />
<path d="M28.7615 18.9322
L28.8220 18.7508
" />
<path d="M28.8220 18.7508
L28.9430 18.6298
" />
<path d="M28.9430 18.6298
L29.0639 18.5693
" />
<path d="M29.0639 18.5693
L29.3058 18.5089
" />
<path d="M29.3058 18.5089
L29.4872 18.5089
" />
<path d="M29.4872 18.5089
L29.7291 18.5693
" />
<path d="M29.7291 18.5693
L29.8501 18.6298
" />
<path d="M29.8501 18.6298
L29.9711 18.7508
" />
<path d="M29.9711 18.7508
L30.0315 18.9322
" />
<path d="M30.0315 18.9322
L30.0315 19.2346
" />
</g></g>
<g style="fill:#A90000; fill-opacity:0.0; 
stroke:#A90000; stroke-width:0.1524; stroke-opacity:1; 
stroke-linecap:round; stroke-linejoin:round;">
<g transform="rotate(-90.000000 29.1980 24.0157)">
<text x="29.1980" y="24.0157"
textLength="1.4127" font-size="1.6933" lengthAdjust="spacingAndGlyphs"
text-anchor="middle" opacity="0">2</text>
</g>
<g class="stroked-text"><desc>2</desc>
<path d="M27.8855 24.3784
L27.8250 24.3180
" />
<path d="M27.8250 24.3180
L27.7645 24.1970
" />
<path d="M27.7645 24.1970
L27.7645 23.8946
" />
<path d="M27.7645 23.8946
L27.8250 23.7737
" />
<path d="M27.8250 23.7737
L27.8855 23.7132
" />
<path d="M27.8855 23.7132
L28.0064 23.6527
" />
<path d="M28.0064 23.6527
L28.1274 23.6527
" />
<path d="M28.1274 23.6527
L28.3088 23.7132
" />
<path d="M28.3088 23.7132
L29.0345 24.4389
" />
<path d="M29.0345 24.4389
L29.0345 23.6527
" />
</g></g>
<g style="fill:#840000; fill-opacity:0.0; 
stroke:#840000; stroke-width:0.1524; stroke-opacity:1; 
stroke-linecap:round; stroke-linejoin:round;">
<path d="M21.8320 17.6657
L19.2920 17.6657
" />
</g>
<g style="fill:#006464; fill-opacity:0.0; 
stroke:#006464; stroke-width:0.1524; stroke-opacity:1; 
stroke-linecap:round; stroke-linejoin:round;">
<text x="22.3400" y="18.3007"
textLength="7.7024" font-size="1.6933" lengthAdjust="spacingAndGlyphs"
text-anchor="start" opacity="0">ON/~{OFF}</text>
<g class="stroked-text"><desc>ON/~{OFF}</desc>
<path d="M22.9844 16.9752
L23.2263 16.9752
" />
<path d="M23.2263 16.9752
L23.3473 17.0357
" />
<path d="M23.3473 17.0357
L23.4682 17.1567
" />
<path d="M23.4682 17.1567
L23.5287 17.3986
" />
<path d="M23.5287 17.3986
L23.5287 17.8219
" />
<path d="M23.5287 17.8219
L23.4682 18.0638
" />
<path d="M23.4682 18.0638
L23.3473 18.1848
" />
<path d="M23.3473 18.1848
L23.2263 18.2452
" />
<path d="M23.2263 18.2452
L22.9844 18.2452
" />
<path d="M22.9844 18.2452
L22.8635 18.1848
" />
<path d="M22.8635 18.1848
L22.7425 18.0638
" />
<path d="M22.7425 18.0638
L22.6821 17.8219
" />
<path d="M22.6821 17.8219
L22.6821 17.3986
" />
<path d="M22.6821 17.3986
L22.7425 17.1567
" />
<path d="M22.7425 17.1567
L22.8635 17.0357
" />
<path d="M22.8635 17.0357
L22.9844 16.9752
" />
<path d="M24.0730 18.2452
L24.0730 16.9752
" />
<path d="M24.0730 16.9752
L24.7987 18.2452
" />
<path d="M24.7987 18.2452
L24.7987 16.9752
" />
<path d="M26.3107 16.9148
L25.2221 18.5476
" />
<path d="M26.9759 16.9752
L27.2178 16.9752
" />
<path d="M27.2178 16.9752
L27.3388 17.0357
" />
<path d="M27.3388 17.0357
L27.4597 17.1567
" />
<path d="M27.4597 17.1567
L27.5202 17.3986
" />
<path d="M27.5202 17.3986
L27.5202 17.8219
" />
<path d="M27.5202 17.8219
L27.4597 18.0638
" />
<path d="M27.4597 18.0638
L27.3388 18.1848
" />
<path d="M27.3388 18.1848
L27.2178 18.2452
" />
<path d="M27.2178 18.2452
L26.9759 18.2452
" />
<path d="M26.9759 18.2452
L26.8550 18.1848
" />
<path d="M26.8550 18.1848
L26.7340 18.0638
" />
<path d="M26.7340 18.0638
L26.6736 17.8219
" />
<path d="M26.6736 17.8219
L26.6736 17.3986
" />
<path d="M26.6736 17.3986
L26.7340 17.1567
" />
<path d="M26.7340 17.1567
L26.8550 17.0357
" />
<path d="M26.8550 17.0357
L26.9759 16.9752
" />
<path d="M28.4879 17.5800
L28.0645 17.5800
" />
<path d="M28.0645 18.2452
L28.0645 16.9752
" />
<path d="M28.0645 16.9752
L28.6693 16.9752
" />
<path d="M29.5765 17.5800
L29.1531 17.5800
" />
<path d="M29.1531 18.2452
L29.1531 16.9752
" />
<path d="M29.1531 16.9752
L29.7579 16.9752
" />
<path d="M26.5587 16.6227
L29.8124 16.6227
" />
</g></g>
<g style="fill:#A90000; fill-opacity:0.0; 
stroke:#A90000; stroke-width:0.1524; stroke-opacity:1; 
stroke-linecap:round; stroke-linejoin:round;">
<text x="20.5620" y="17.4117"
textLength="1.4127" font-size="1.6933" lengthAdjust="spacingAndGlyphs"
text-anchor="middle" opacity="0">3</text>
<g class="stroked-text"><desc>3</desc>
<path d="M20.1387 15.9782
L20.9249 15.9782
" />
<path d="M20.9249 15.9782
L20.5015 16.4620
" />
<path d="M20.5015 16.4620
L20.6830 16.4620
" />
<path d="M20.6830 16.4620
L20.8039 16.5225
" />
<path d="M20.8039 16.5225
L20.8644 16.5830
" />
<path d="M20.8644 16.5830
L20.9249 16.7039
" />
<path d="M20.9249 16.7039
L20.9249 17.0063
" />
<path d="M20.9249 17.0063
L20.8644 17.1273
" />
<path d="M20.8644 17.1273
L20.8039 17.1878
" />
<path d="M20.8039 17.1878
L20.6830 17.2482
" />
<path d="M20.6830 17.2482
L20.3201 17.2482
" />
<path d="M20.3201 17.2482
L20.1992 17.1878
" />
<path d="M20.1992 17.1878
L20.1387 17.1273
" />
</g></g>
<g style="fill:#840000; fill-opacity:0.0; 
stroke:#840000; stroke-width:0.1524; stroke-opacity:1; 
stroke-linecap:round; stroke-linejoin:round;">
<path d="M37.0720 17.6657
L39.6120 17.6657
" />
</g>
<g style="fill:#006464; fill-opacity:0.0; 
stroke:#006464; stroke-width:0.1524; stroke-opacity:1; 
stroke-linecap:round; stroke-linejoin:round;">
<text x="36.5640" y="18.3007"
textLength="3.5294" font-size="1.6933" lengthAdjust="spacingAndGlyphs"
text-anchor="end" opacity="0">ADJ</text>
<g class="stroked-text"><desc>ADJ</desc>
<path d="M33.3795 17.8824
L33.9842 17.8824
" />
<path d="M33.2585 18.2452
L33.6818 16.9752
" />
<path d="M33.6818 16.9752
L34.1052 18.2452
" />
<path d="M34.5285 18.2452
L34.5285 16.9752
" />
<path d="M34.5285 16.9752
L34.8309 16.9752
" />
<path d="M34.8309 16.9752
L35.0123 17.0357
" />
<path d="M35.0123 17.0357
L35.1333 17.1567
" />
<path d="M35.1333 17.1567
L35.1938 17.2776
" />
<path d="M35.1938 17.2776
L35.2542 17.5195
" />
<path d="M35.2542 17.5195
L35.2542 17.7009
" />
<path d="M35.2542 17.7009
L35.1938 17.9428
" />
<path d="M35.1938 17.9428
L35.1333 18.0638
" />
<path d="M35.1333 18.0638
L35.0123 18.1848
" />
<path d="M35.0123 18.1848
L34.8309 18.2452
" />
<path d="M34.8309 18.2452
L34.5285 18.2452
" />
<path d="M36.1614 16.9752
L36.1614 17.8824
" />
<path d="M36.1614 17.8824
L36.1009 18.0638
" />
<path d="M36.1009 18.0638
L35.9800 18.1848
" />
<path d="M35.9800 18.1848
L35.7985 18.2452
" />
<path d="M35.7985 18.2452
L35.6776 18.2452
" />
</g></g>
<g style="fill:#A90000; fill-opacity:0.0; 
stroke:#A90000; stroke-width:0.1524; stroke-opacity:1; 
stroke-linecap:round; stroke-linejoin:round;">
<text x="38.3420" y="17.4117"
textLength="1.4127" font-size="1.6933" lengthAdjust="spacingAndGlyphs"
text-anchor="middle" opacity="0">4</text>
<g class="stroked-text"><desc>4</desc>
<path d="M38.5839 16.4016
L38.5839 17.2482
" />
<path d="M38.2815 15.9178
L37.9792 16.8249
" />
<path d="M37.9792 16.8249
L38.7653 16.8249
" />
</g></g>
<g style="fill:#840000; fill-opacity:0.0; 
stroke:#840000; stroke-width:0.1524; stroke-opacity:1; 
stroke-linecap:round; stroke-linejoin:round;">
<path d="M37.0720 15.1257
L39.6120 15.1257
" />
</g>
<g style="fill:#006464; fill-opacity:0.0; 
stroke:#006464; stroke-width:0.1524; stroke-opacity:1; 
stroke-linecap:round; stroke-linejoin:round;">
<text x="36.5640" y="15.7607"
textLength="4.9204" font-size="1.6933" lengthAdjust="spacingAndGlyphs"
text-anchor="end" opacity="0">VOUT</text>
<g class="stroked-text"><desc>VOUT</desc>
<path d="M31.8675 14.4352
L32.2908 15.7052
" />
<path d="M32.2908 15.7052
L32.7142 14.4352
" />
<path d="M33.3794 14.4352
L33.6213 14.4352
" />
<path d="M33.6213 14.4352
L33.7423 14.4957
" />
<path d="M33.7423 14.4957
L33.8632 14.6167
" />
<path d="M33.8632 14.6167
L33.9237 14.8586
" />
<path d="M33.9237 14.8586
L33.9237 15.2819
" />
<path d="M33.9237 15.2819
L33.8632 15.5238
" />
<path d="M33.8632 15.5238
L33.7423 15.6448
" />
<path d="M33.7423 15.6448
L33.6213 15.7052
" />
<path d="M33.6213 15.7052
L33.3794 15.7052
" />
<path d="M33.3794 15.7052
L33.2585 15.6448
" />
<path d="M33.2585 15.6448
L33.1375 15.5238
" />
<path d="M33.1375 15.5238
L33.0771 15.2819
" />
<path d="M33.0771 15.2819
L33.0771 14.8586
" />
<path d="M33.0771 14.8586
L33.1375 14.6167
" />
<path d="M33.1375 14.6167
L33.2585 14.4957
" />
<path d="M33.2585 14.4957
L33.3794 14.4352
" />
<path d="M34.4680 14.4352
L34.4680 15.4633
" />
<path d="M34.4680 15.4633
L34.5285 15.5843
" />
<path d="M34.5285 15.5843
L34.5890 15.6448
" />
<path d="M34.5890 15.6448
L34.7099 15.7052
" />
<path d="M34.7099 15.7052
L34.9518 15.7052
" />
<path d="M34.9518 15.7052
L35.0728 15.6448
" />
<path d="M35.0728 15.6448
L35.1333 15.5843
" />
<path d="M35.1333 15.5843
L35.1937 15.4633
" />
<path d="M35.1937 15.4633
L35.1937 14.4352
" />
<path d="M35.6171 14.4352
L36.3428 14.4352
" />
<path d="M35.9800 15.7052
L35.9800 14.4352
" />
</g></g>
<g style="fill:#A90000; fill-opacity:0.0; 
stroke:#A90000; stroke-width:0.1524; stroke-opacity:1; 
stroke-linecap:round; stroke-linejoin:round;">
<text x="38.3420" y="14.8717"
textLength="1.4127" font-size="1.6933" lengthAdjust="spacingAndGlyphs"
text-anchor="middle" opacity="0">5</text>
<g class="stroked-text"><desc>5</desc>
<path d="M38.6444 13.4382
L38.0396 13.4382
" />
<path d="M38.0396 13.4382
L37.9792 14.0430
" />
<path d="M37.9792 14.0430
L38.0396 13.9825
" />
<path d="M38.0396 13.9825
L38.1606 13.9220
" />
<path d="M38.1606 13.9220
L38.4630 13.9220
" />
<path d="M38.4630 13.9220
L38.5839 13.9825
" />
<path d="M38.5839 13.9825
L38.6444 14.0430
" />
<path d="M38.6444 14.0430
L38.7049 14.1639
" />
<path d="M38.7049 14.1639
L38.7049 14.4663
" />
<path d="M38.7049 14.4663
L38.6444 14.5873
" />
<path d="M38.6444 14.5873
L38.5839 14.6478
" />
<path d="M38.5839 14.6478
L38.4630 14.7082
" />
<path d="M38.4630 14.7082
L38.1606 14.7082
" />
<path d="M38.1606 14.7082
L38.0396 14.6478
" />
<path d="M38.0396 14.6478
L37.9792 14.5873
" />
</g></g>
<g style="fill:#840084; fill-opacity:0.0; 
stroke:#840084; stroke-width:0.1524; stroke-opacity:1; 
stroke-linecap:round; stroke-linejoin:round;">
</g>
<g style="fill:#006464; fill-opacity:0.0; 
stroke:#006464; stroke-width:0.1524; stroke-opacity:1; 
stroke-linecap:round; stroke-linejoin:round;">
</g>
<g style="fill:#006464; fill-opacity:0.0; 
stroke:#006464; stroke-width:0.1588; stroke-opacity:1; 
stroke-linecap:round; stroke-linejoin:round;">
<text x="29.4520" y="8.1407"
textLength="2.6415" font-size="1.6933" lengthAdjust="spacingAndGlyphs"
text-anchor="middle" opacity="0">U?</text>
<g class="stroked-text"><desc>U?</desc>
<path d="M28.5448 6.8149
L28.5448 7.8430
" />
<path d="M28.5448 7.8430
L28.6053 7.9640
" />
<path d="M28.6053 7.9640
L28.6658 8.0245
" />
<path d="M28.6658 8.0245
L28.7867 8.0849
" />
<path d="M28.7867 8.0849
L29.0286 8.0849
" />
<path d="M29.0286 8.0849
L29.1496 8.0245
" />
<path d="M29.1496 8.0245
L29.2101 7.9640
" />
<path d="M29.2101 7.9640
L29.2705 7.8430
" />
<path d="M29.2705 7.8430
L29.2705 6.8149
" />
<path d="M30.0568 7.9640
L30.1172 8.0245
" />
<path d="M30.1172 8.0245
L30.0568 8.0849
" />
<path d="M30.0568 8.0849
L29.9963 8.0245
" />
<path d="M29.9963 8.0245
L30.0568 7.9640
" />
<path d="M30.0568 7.9640
L30.0568 8.0849
" />
<path d="M29.8149 6.8754
L29.9358 6.8149
" />
<path d="M29.9358 6.8149
L30.2382 6.8149
" />
<path d="M30.2382 6.8149
L30.3591 6.8754
" />
<path d="M30.3591 6.8754
L30.4196 6.9964
" />
<path d="M30.4196 6.9964
L30.4196 7.1173
" />
<path d="M30.4196 7.1173
L30.3591 7.2383
" />
<path d="M30.3591 7.2383
L30.2987 7.2987
" />
<path d="M30.2987 7.2987
L30.1777 7.3592
" />
<path d="M30.1777 7.3592
L30.1172 7.4197
" />
<path d="M30.1172 7.4197
L30.0568 7.5406
" />
<path d="M30.0568 7.5406
L30.0568 7.6011
" />
</g><text x="29.4520" y="10.6807"
textLength="12.2571" font-size="1.6933" lengthAdjust="spacingAndGlyphs"
text-anchor="middle" opacity="0">LP2980-ADJ</text>
<g class="stroked-text"><desc>LP2980-ADJ</desc>
<path d="M24.3418 10.6249
L23.7370 10.6249
" />
<path d="M23.7370 10.6249
L23.7370 9.3549
" />
<path d="M24.7651 10.6249
L24.7651 9.3549
" />
<path d="M24.7651 9.3549
L25.2489 9.3549
" />
<path d="M25.2489 9.3549
L25.3699 9.4154
" />
<path d="M25.3699 9.4154
L25.4304 9.4759
" />
<path d="M25.4304 9.4759
L25.4908 9.5968
" />
<path d="M25.4908 9.5968
L25.4908 9.7783
" />
<path d="M25.4908 9.7783
L25.4304 9.8992
" />
<path d="M25.4304 9.8992
L25.3699 9.9597
" />
<path d="M25.3699 9.9597
L25.2489 10.0202
" />
<path d="M25.2489 10.0202
L24.7651 10.0202
" />
<path d="M25.9747 9.4759
L26.0351 9.4154
" />
<path d="M26.0351 9.4154
L26.1561 9.3549
" />
<path d="M26.1561 9.3549
L26.4585 9.3549
" />
<path d="M26.4585 9.3549
L26.5794 9.4154
" />
<path d="M26.5794 9.4154
L26.6399 9.4759
" />
<path d="M26.6399 9.4759
L26.7004 9.5968
" />
<path d="M26.7004 9.5968
L26.7004 9.7178
" />
<path d="M26.7004 9.7178
L26.6399 9.8992
" />
<path d="M26.6399 9.8992
L25.9142 10.6249
" />
<path d="M25.9142 10.6249
L26.7004 10.6249
" />
<path d="M27.3051 10.6249
L27.5470 10.6249
" />
<path d="M27.5470 10.6249
L27.6680 10.5645
" />
<path d="M27.6680 10.5645
L27.7284 10.5040
" />
<path d="M27.7284 10.5040
L27.8494 10.3225
" />
<path d="M27.8494 10.3225
L27.9099 10.0806
" />
<path d="M27.9099 10.0806
L27.9099 9.5968
" />
<path d="M27.9099 9.5968
L27.8494 9.4759
" />
<path d="M27.8494 9.4759
L27.7889 9.4154
" />
<path d="M27.7889 9.4154
L27.6680 9.3549
" />
<path d="M27.6680 9.3549
L27.4261 9.3549
" />
<path d="M27.4261 9.3549
L27.3051 9.4154
" />
<path d="M27.3051 9.4154
L27.2446 9.4759
" />
<path d="M27.2446 9.4759
L27.1842 9.5968
" />
<path d="M27.1842 9.5968
L27.1842 9.8992
" />
<path d="M27.1842 9.8992
L27.2446 10.0202
" />
<path d="M27.2446 10.0202
L27.3051 10.0806
" />
<path d="M27.3051 10.0806
L27.4261 10.1411
" />
<path d="M27.4261 10.1411
L27.6680 10.1411
" />
<path d="M27.6680 10.1411
L27.7889 10.0806
" />
<path d="M27.7889 10.0806
L27.8494 10.0202
" />
<path d="M27.8494 10.0202
L27.9099 9.8992
" />
<path d="M28.6356 9.8992
L28.5146 9.8387
" />
<path d="M28.5146 9.8387
L28.4541 9.7783
" />
<path d="M28.4541 9.7783
L28.3937 9.6573
" />
<path d="M28.3937 9.6573
L28.3937 9.5968
" />
<path d="M28.3937 9.5968
L28.4541 9.4759
" />
<path d="M28.4541 9.4759
L28.5146 9.4154
" />
<path d="M28.5146 9.4154
L28.6356 9.3549
" />
<path d="M28.6356 9.3549
L28.8775 9.3549
" />
<path d="M28.8775 9.3549
L28.9984 9.4154
" />
<path d="M28.9984 9.4154
L29.0589 9.4759
" />
<path d="M29.0589 9.4759
L29.1194 9.5968
" />
<path d="M29.1194 9.5968
L29.1194 9.6573
" />
<path d="M29.1194 9.6573
L29.0589 9.7783
" />
<path d="M29.0589 9.7783
L28.9984 9.8387
" />
<path d="M28.9984 9.8387
L28.8775 9.8992
" />
<path d="M28.8775 9.8992
L28.6356 9.8992
" />
<path d="M28.6356 9.8992
L28.5146 9.9597
" />
<path d="M28.5146 9.9597
L28.4541 10.0202
" />
<path d="M28.4541 10.0202
L28.3937 10.1411
" />
<path d="M28.3937 10.1411
L28.3937 10.3830
" />
<path d="M28.3937 10.3830
L28.4541 10.5040
" />
<path d="M28.4541 10.5040
L28.5146 10.5645
" />
<path d="M28.5146 10.5645
L28.6356 10.6249
" />
<path d="M28.6356 10.6249
L28.8775 10.6249
" />
<path d="M28.8775 10.6249
L28.9984 10.5645
" />
<path d="M28.9984 10.5645
L29.0589 10.5040
" />
<path d="M29.0589 10.5040
L29.1194 10.3830
" />
<path d="M29.1194 10.3830
L29.1194 10.1411
" />
<path d="M29.1194 10.1411
L29.0589 10.0202
" />
<path d="M29.0589 10.0202
L28.9984 9.9597
" />
<path d="M28.9984 9.9597
L28.8775 9.8992
" />
<path d="M29.9055 9.3549
L30.0265 9.3549
" />
<path d="M30.0265 9.3549
L30.1474 9.4154
" />
<path d="M30.1474 9.4154
L30.2079 9.4759
" />
<path d="M30.2079 9.4759
L30.2684 9.5968
" />
<path d="M30.2684 9.5968
L30.3289 9.8387
" />
<path d="M30.3289 9.8387
L30.3289 10.1411
" />
<path d="M30.3289 10.1411
L30.2684 10.3830
" />
<path d="M30.2684 10.3830
L30.2079 10.5040
" />
<path d="M30.2079 10.5040
L30.1474 10.5645
" />
<path d="M30.1474 10.5645
L30.0265 10.6249
" />
<path d="M30.0265 10.6249
L29.9055 10.6249
" />
<path d="M29.9055 10.6249
L29.7846 10.5645
" />
<path d="M29.7846 10.5645
L29.7241 10.5040
" />
<path d="M29.7241 10.5040
L29.6636 10.3830
" />
<path d="M29.6636 10.3830
L29.6032 10.1411
" />
<path d="M29.6032 10.1411
L29.6032 9.8387
" />
<path d="M29.6032 9.8387
L29.6636 9.5968
" />
<path d="M29.6636 9.5968
L29.7241 9.4759
" />
<path d="M29.7241 9.4759
L29.7846 9.4154
" />
<path d="M29.7846 9.4154
L29.9055 9.3549
" />
<path d="M30.8731 10.1411
L31.8408 10.1411
" />
<path d="M32.3851 10.2621
L32.9898 10.2621
" />
<path d="M32.2641 10.6249
L32.6874 9.3549
" />
<path d="M32.6874 9.3549
L33.1108 10.6249
" />
<path d="M33.5341 10.6249
L33.5341 9.3549
" />
<path d="M33.5341 9.3549
L33.8365 9.3549
" />
<path d="M33.8365 9.3549
L34.0179 9.4154
" />
<path d="M34.0179 9.4154
L34.1389 9.5364
" />
<path d="M34.1389 9.5364
L34.1994 9.6573
" />
<path d="M34.1994 9.6573
L34.2598 9.8992
" />
<path d="M34.2598 9.8992
L34.2598 10.0806
" />
<path d="M34.2598 10.0806
L34.1994 10.3225
" />
<path d="M34.1994 10.3225
L34.1389 10.4435
" />
<path d="M34.1389 10.4435
L34.0179 10.5645
" />
<path d="M34.0179 10.5645
L33.8365 10.6249
" />
<path d="M33.8365 10.6249
L33.5341 10.6249
" />
<path d="M35.1670 9.3549
L35.1670 10.2621
" />
<path d="M35.1670 10.2621
L35.1065 10.4435
" />
<path d="M35.1065 10.4435
L34.9856 10.5645
" />
<path d="M34.9856 10.5645
L34.8041 10.6249
" />
<path d="M34.8041 10.6249
L34.6832 10.6249
" />
</g></g>
<g style="fill:#840084; fill-opacity:0.0; 
stroke:#840084; stroke-width:0.1588; stroke-opacity:1; 
stroke-linecap:round; stroke-linejoin:round;">
<text x="29.4520" y="5.6007"
textLength="31.6698" font-size="1.6933" lengthAdjust="spacingAndGlyphs"
text-anchor="middle" opacity="0">Package_TO_SOT_SMD:SOT-23-5</text>
<g class="stroked-text"><desc>Package_TO_SOT_SMD:SOT-23-5</desc>
<path d="M14.0306 5.5449
L14.0306 4.2749
" />
<path d="M14.0306 4.2749
L14.5144 4.2749
" />
<path d="M14.5144 4.2749
L14.6354 4.3354
" />
<path d="M14.6354 4.3354
L14.6959 4.3959
" />
<path d="M14.6959 4.3959
L14.7563 4.5168
" />
<path d="M14.7563 4.5168
L14.7563 4.6983
" />
<path d="M14.7563 4.6983
L14.6959 4.8192
" />
<path d="M14.6959 4.8192
L14.6354 4.8797
" />
<path d="M14.6354 4.8797
L14.5144 4.9402
" />
<path d="M14.5144 4.9402
L14.0306 4.9402
" />
<path d="M15.8449 5.5449
L15.8449 4.8797
" />
<path d="M15.8449 4.8797
L15.7844 4.7587
" />
<path d="M15.7844 4.7587
L15.6635 4.6983
" />
<path d="M15.6635 4.6983
L15.4216 4.6983
" />
<path d="M15.4216 4.6983
L15.3006 4.7587
" />
<path d="M15.8449 5.4845
L15.7240 5.5449
" />
<path d="M15.7240 5.5449
L15.4216 5.5449
" />
<path d="M15.4216 5.5449
L15.3006 5.4845
" />
<path d="M15.3006 5.4845
L15.2402 5.3635
" />
<path d="M15.2402 5.3635
L15.2402 5.2425
" />
<path d="M15.2402 5.2425
L15.3006 5.1216
" />
<path d="M15.3006 5.1216
L15.4216 5.0611
" />
<path d="M15.4216 5.0611
L15.7240 5.0611
" />
<path d="M15.7240 5.0611
L15.8449 5.0006
" />
<path d="M16.9939 5.4845
L16.8730 5.5449
" />
<path d="M16.8730 5.5449
L16.6311 5.5449
" />
<path d="M16.6311 5.5449
L16.5101 5.4845
" />
<path d="M16.5101 5.4845
L16.4496 5.4240
" />
<path d="M16.4496 5.4240
L16.3892 5.3030
" />
<path d="M16.3892 5.3030
L16.3892 4.9402
" />
<path d="M16.3892 4.9402
L16.4496 4.8192
" />
<path d="M16.4496 4.8192
L16.5101 4.7587
" />
<path d="M16.5101 4.7587
L16.6311 4.6983
" />
<path d="M16.6311 4.6983
L16.8730 4.6983
" />
<path d="M16.8730 4.6983
L16.9939 4.7587
" />
<path d="M17.5382 5.5449
L17.5382 4.2749
" />
<path d="M17.6592 5.0611
L18.0220 5.5449
" />
<path d="M18.0220 4.6983
L17.5382 5.1821
" />
<path d="M19.1106 5.5449
L19.1106 4.8797
" />
<path d="M19.1106 4.8797
L19.0501 4.7587
" />
<path d="M19.0501 4.7587
L18.9292 4.6983
" />
<path d="M18.9292 4.6983
L18.6873 4.6983
" />
<path d="M18.6873 4.6983
L18.5663 4.7587
" />
<path d="M19.1106 5.4845
L18.9897 5.5449
" />
<path d="M18.9897 5.5449
L18.6873 5.5449
" />
<path d="M18.6873 5.5449
L18.5663 5.4845
" />
<path d="M18.5663 5.4845
L18.5059 5.3635
" />
<path d="M18.5059 5.3635
L18.5059 5.2425
" />
<path d="M18.5059 5.2425
L18.5663 5.1216
" />
<path d="M18.5663 5.1216
L18.6873 5.0611
" />
<path d="M18.6873 5.0611
L18.9897 5.0611
" />
<path d="M18.9897 5.0611
L19.1106 5.0006
" />
<path d="M20.2596 4.6983
L20.2596 5.7264
" />
<path d="M20.2596 5.7264
L20.1991 5.8473
" />
<path d="M20.1991 5.8473
L20.1387 5.9078
" />
<path d="M20.1387 5.9078
L20.0177 5.9683
" />
<path d="M20.0177 5.9683
L19.8363 5.9683
" />
<path d="M19.8363 5.9683
L19.7153 5.9078
" />
<path d="M20.2596 5.4845
L20.1387 5.5449
" />
<path d="M20.1387 5.5449
L19.8968 5.5449
" />
<path d="M19.8968 5.5449
L19.7758 5.4845
" />
<path d="M19.7758 5.4845
L19.7153 5.4240
" />
<path d="M19.7153 5.4240
L19.6549 5.3030
" />
<path d="M19.6549 5.3030
L19.6549 4.9402
" />
<path d="M19.6549 4.9402
L19.7153 4.8192
" />
<path d="M19.7153 4.8192
L19.7758 4.7587
" />
<path d="M19.7758 4.7587
L19.8968 4.6983
" />
<path d="M19.8968 4.6983
L20.1387 4.6983
" />
<path d="M20.1387 4.6983
L20.2596 4.7587
" />
<path d="M21.3481 5.4845
L21.2272 5.5449
" />
<path d="M21.2272 5.5449
L20.9853 5.5449
" />
<path d="M20.9853 5.5449
L20.8643 5.4845
" />
<path d="M20.8643 5.4845
L20.8039 5.3635
" />
<path d="M20.8039 5.3635
L20.8039 4.8797
" />
<path d="M20.8039 4.8797
L20.8643 4.7587
" />
<path d="M20.8643 4.7587
L20.9853 4.6983
" />
<path d="M20.9853 4.6983
L21.2272 4.6983
" />
<path d="M21.2272 4.6983
L21.3481 4.7587
" />
<path d="M21.3481 4.7587
L21.4086 4.8797
" />
<path d="M21.4086 4.8797
L21.4086 5.0006
" />
<path d="M21.4086 5.0006
L20.8039 5.1216
" />
<path d="M21.6506 5.6659
L22.6182 5.6659
" />
<path d="M22.7391 4.2749
L23.4648 4.2749
" />
<path d="M23.1020 5.5449
L23.1020 4.2749
" />
<path d="M24.1300 4.2749
L24.3719 4.2749
" />
<path d="M24.3719 4.2749
L24.4929 4.3354
" />
<path d="M24.4929 4.3354
L24.6138 4.4564
" />
<path d="M24.6138 4.4564
L24.6743 4.6983
" />
<path d="M24.6743 4.6983
L24.6743 5.1216
" />
<path d="M24.6743 5.1216
L24.6138 5.3635
" />
<path d="M24.6138 5.3635
L24.4929 5.4845
" />
<path d="M24.4929 5.4845
L24.3719 5.5449
" />
<path d="M24.3719 5.5449
L24.1300 5.5449
" />
<path d="M24.1300 5.5449
L24.0091 5.4845
" />
<path d="M24.0091 5.4845
L23.8881 5.3635
" />
<path d="M23.8881 5.3635
L23.8277 5.1216
" />
<path d="M23.8277 5.1216
L23.8277 4.6983
" />
<path d="M23.8277 4.6983
L23.8881 4.4564
" />
<path d="M23.8881 4.4564
L24.0091 4.3354
" />
<path d="M24.0091 4.3354
L24.1300 4.2749
" />
<path d="M24.9163 5.6659
L25.8839 5.6659
" />
<path d="M26.1258 5.4845
L26.3072 5.5449
" />
<path d="M26.3072 5.5449
L26.6096 5.5449
" />
<path d="M26.6096 5.5449
L26.7305 5.4845
" />
<path d="M26.7305 5.4845
L26.7910 5.4240
" />
<path d="M26.7910 5.4240
L26.8515 5.3030
" />
<path d="M26.8515 5.3030
L26.8515 5.1821
" />
<path d="M26.8515 5.1821
L26.7910 5.0611
" />
<path d="M26.7910 5.0611
L26.7305 5.0006
" />
<path d="M26.7305 5.0006
L26.6096 4.9402
" />
<path d="M26.6096 4.9402
L26.3677 4.8797
" />
<path d="M26.3677 4.8797
L26.2467 4.8192
" />
<path d="M26.2467 4.8192
L26.1862 4.7587
" />
<path d="M26.1862 4.7587
L26.1258 4.6378
" />
<path d="M26.1258 4.6378
L26.1258 4.5168
" />
<path d="M26.1258 4.5168
L26.1862 4.3959
" />
<path d="M26.1862 4.3959
L26.2467 4.3354
" />
<path d="M26.2467 4.3354
L26.3677 4.2749
" />
<path d="M26.3677 4.2749
L26.6700 4.2749
" />
<path d="M26.6700 4.2749
L26.8515 4.3354
" />
<path d="M27.6376 4.2749
L27.8795 4.2749
" />
<path d="M27.8795 4.2749
L28.0005 4.3354
" />
<path d="M28.0005 4.3354
L28.1214 4.4564
" />
<path d="M28.1214 4.4564
L28.1819 4.6983
" />
<path d="M28.1819 4.6983
L28.1819 5.1216
" />
<path d="M28.1819 5.1216
L28.1214 5.3635
" />
<path d="M28.1214 5.3635
L28.0005 5.4845
" />
<path d="M28.0005 5.4845
L27.8795 5.5449
" />
<path d="M27.8795 5.5449
L27.6376 5.5449
" />
<path d="M27.6376 5.5449
L27.5167 5.4845
" />
<path d="M27.5167 5.4845
L27.3957 5.3635
" />
<path d="M27.3957 5.3635
L27.3353 5.1216
" />
<path d="M27.3353 5.1216
L27.3353 4.6983
" />
<path d="M27.3353 4.6983
L27.3957 4.4564
" />
<path d="M27.3957 4.4564
L27.5167 4.3354
" />
<path d="M27.5167 4.3354
L27.6376 4.2749
" />
<path d="M28.5448 4.2749
L29.2705 4.2749
" />
<path d="M28.9077 5.5449
L28.9077 4.2749
" />
<path d="M29.3915 5.6659
L30.3591 5.6659
" />
<path d="M30.6010 5.4845
L30.7824 5.5449
" />
<path d="M30.7824 5.5449
L31.0848 5.5449
" />
<path d="M31.0848 5.5449
L31.2057 5.4845
" />
<path d="M31.2057 5.4845
L31.2662 5.4240
" />
<path d="M31.2662 5.4240
L31.3267 5.3030
" />
<path d="M31.3267 5.3030
L31.3267 5.1821
" />
<path d="M31.3267 5.1821
L31.2662 5.0611
" />
<path d="M31.2662 5.0611
L31.2057 5.0006
" />
<path d="M31.2057 5.0006
L31.0848 4.9402
" />
<path d="M31.0848 4.9402
L30.8429 4.8797
" />
<path d="M30.8429 4.8797
L30.7219 4.8192
" />
<path d="M30.7219 4.8192
L30.6614 4.7587
" />
<path d="M30.6614 4.7587
L30.6010 4.6378
" />
<path d="M30.6010 4.6378
L30.6010 4.5168
" />
<path d="M30.6010 4.5168
L30.6614 4.3959
" />
<path d="M30.6614 4.3959
L30.7219 4.3354
" />
<path d="M30.7219 4.3354
L30.8429 4.2749
" />
<path d="M30.8429 4.2749
L31.1452 4.2749
" />
<path d="M31.1452 4.2749
L31.3267 4.3354
" />
<path d="M31.8709 5.5449
L31.8709 4.2749
" />
<path d="M31.8709 4.2749
L32.2943 5.1821
" />
<path d="M32.2943 5.1821
L32.7176 4.2749
" />
<path d="M32.7176 4.2749
L32.7176 5.5449
" />
<path d="M33.3223 5.5449
L33.3223 4.2749
" />
<path d="M33.3223 4.2749
L33.6247 4.2749
" />
<path d="M33.6247 4.2749
L33.8061 4.3354
" />
<path d="M33.8061 4.3354
L33.9271 4.4564
" />
<path d="M33.9271 4.4564
L33.9876 4.5773
" />
<path d="M33.9876 4.5773
L34.0480 4.8192
" />
<path d="M34.0480 4.8192
L34.0480 5.0006
" />
<path d="M34.0480 5.0006
L33.9876 5.2425
" />
<path d="M33.9876 5.2425
L33.9271 5.3635
" />
<path d="M33.9271 5.3635
L33.8061 5.4845
" />
<path d="M33.8061 5.4845
L33.6247 5.5449
" />
<path d="M33.6247 5.5449
L33.3223 5.5449
" />
<path d="M34.5923 5.4240
L34.6528 5.4845
" />
<path d="M34.6528 5.4845
L34.5923 5.5449
" />
<path d="M34.5923 5.5449
L34.5319 5.4845
" />
<path d="M34.5319 5.4845
L34.5923 5.4240
" />
<path d="M34.5923 5.4240
L34.5923 5.5449
" />
<path d="M34.5923 4.7587
L34.6528 4.8192
" />
<path d="M34.6528 4.8192
L34.5923 4.8797
" />
<path d="M34.5923 4.8797
L34.5319 4.8192
" />
<path d="M34.5319 4.8192
L34.5923 4.7587
" />
<path d="M34.5923 4.7587
L34.5923 4.8797
" />
<path d="M35.1367 5.4845
L35.3181 5.5449
" />
<path d="M35.3181 5.5449
L35.6205 5.5449
" />
<path d="M35.6205 5.5449
L35.7414 5.4845
" />
<path d="M35.7414 5.4845
L35.8019 5.4240
" />
<path d="M35.8019 5.4240
L35.8624 5.3030
" />
<path d="M35.8624 5.3030
L35.8624 5.1821
" />
<path d="M35.8624 5.1821
L35.8019 5.0611
" />
<path d="M35.8019 5.0611
L35.7414 5.0006
" />
<path d="M35.7414 5.0006
L35.6205 4.9402
" />
<path d="M35.6205 4.9402
L35.3786 4.8797
" />
<path d="M35.3786 4.8797
L35.2576 4.8192
" />
<path d="M35.2576 4.8192
L35.1971 4.7587
" />
<path d="M35.1971 4.7587
L35.1367 4.6378
" />
<path d="M35.1367 4.6378
L35.1367 4.5168
" />
<path d="M35.1367 4.5168
L35.1971 4.3959
" />
<path d="M35.1971 4.3959
L35.2576 4.3354
" />
<path d="M35.2576 4.3354
L35.3786 4.2749
" />
<path d="M35.3786 4.2749
L35.6809 4.2749
" />
<path d="M35.6809 4.2749
L35.8624 4.3354
" />
<path d="M36.6485 4.2749
L36.8904 4.2749
" />
<path d="M36.8904 4.2749
L37.0114 4.3354
" />
<path d="M37.0114 4.3354
L37.1323 4.4564
" />
<path d="M37.1323 4.4564
L37.1928 4.6983
" />
<path d="M37.1928 4.6983
L37.1928 5.1216
" />
<path d="M37.1928 5.1216
L37.1323 5.3635
" />
<path d="M37.1323 5.3635
L37.0114 5.4845
" />
<path d="M37.0114 5.4845
L36.8904 5.5449
" />
<path d="M36.8904 5.5449
L36.6485 5.5449
" />
<path d="M36.6485 5.5449
L36.5276 5.4845
" />
<path d="M36.5276 5.4845
L36.4066 5.3635
" />
<path d="M36.4066 5.3635
L36.3462 5.1216
" />
<path d="M36.3462 5.1216
L36.3462 4.6983
" />
<path d="M36.3462 4.6983
L36.4066 4.4564
" />
<path d="M36.4066 4.4564
L36.5276 4.3354
" />
<path d="M36.5276 4.3354
L36.6485 4.2749
" />
<path d="M37.5557 4.2749
L38.2814 4.2749
" />
<path d="M37.9186 5.5449
L37.9186 4.2749
" />
<path d="M38.7047 5.0611
L39.6724 5.0611
" />
<path d="M40.2167 4.3959
L40.2771 4.3354
" />
<path d="M40.2771 4.3354
L40.3981 4.2749
" />
<path d="M40.3981 4.2749
L40.7005 4.2749
" />
<path d="M40.7005 4.2749
L40.8214 4.3354
" />
<path d="M40.8214 4.3354
L40.8819 4.3959
" />
<path d="M40.8819 4.3959
L40.9424 4.5168
" />
<path d="M40.9424 4.5168
L40.9424 4.6378
" />
<path d="M40.9424 4.6378
L40.8819 4.8192
" />
<path d="M40.8819 4.8192
L40.1562 5.5449
" />
<path d="M40.1562 5.5449
L40.9424 5.5449
" />
<path d="M41.3657 4.2749
L42.1519 4.2749
" />
<path d="M42.1519 4.2749
L41.7285 4.7587
" />
<path d="M41.7285 4.7587
L41.9100 4.7587
" />
<path d="M41.9100 4.7587
L42.0309 4.8192
" />
<path d="M42.0309 4.8192
L42.0914 4.8797
" />
<path d="M42.0914 4.8797
L42.1519 5.0006
" />
<path d="M42.1519 5.0006
L42.1519 5.3030
" />
<path d="M42.1519 5.3030
L42.0914 5.4240
" />
<path d="M42.0914 5.4240
L42.0309 5.4845
" />
<path d="M42.0309 5.4845
L41.9100 5.5449
" />
<path d="M41.9100 5.5449
L41.5471 5.5449
" />
<path d="M41.5471 5.5449
L41.4262 5.4845
" />
<path d="M41.4262 5.4845
L41.3657 5.4240
" />
<path d="M42.6961 5.0611
L43.6638 5.0611
" />
<path d="M44.8733 4.2749
L44.2685 4.2749
" />
<path d="M44.2685 4.2749
L44.2081 4.8797
" />
<path d="M44.2081 4.8797
L44.2685 4.8192
" />
<path d="M44.2685 4.8192
L44.3895 4.7587
" />
<path d="M44.3895 4.7587
L44.6919 4.7587
" />
<path d="M44.6919 4.7587
L44.8128 4.8192
" />
<path d="M44.8128 4.8192
L44.8733 4.8797
" />
<path d="M44.8733 4.8797
L44.9338 5.0006
" />
<path d="M44.9338 5.0006
L44.9338 5.3030
" />
<path d="M44.9338 5.3030
L44.8733 5.4240
" />
<path d="M44.8733 5.4240
L44.8128 5.4845
" />
<path d="M44.8128 5.4845
L44.6919 5.5449
" />
<path d="M44.6919 5.5449
L44.3895 5.5449
" />
<path d="M44.3895 5.5449
L44.2685 5.4845
" />
<path d="M44.2685 5.4845
L44.2081 5.4240
" />
</g><text x="29.4520" y="10.6807"
textLength="49.0869" font-size="1.6933" lengthAdjust="spacingAndGlyphs"
text-anchor="middle" opacity="0">http://www.ti.com/lit/ds/symlink/lp2980-adj.pdf</text>
<g class="stroked-text"><desc>http://www.ti.com/lit/ds/symlink/lp2980-adj.pdf</desc>
<path d="M5.3221 10.6249
L5.3221 9.3549
" />
<path d="M5.8664 10.6249
L5.8664 9.9597
" />
<path d="M5.8664 9.9597
L5.8059 9.8387
" />
<path d="M5.8059 9.8387
L5.6850 9.7783
" />
<path d="M5.6850 9.7783
L5.5036 9.7783
" />
<path d="M5.5036 9.7783
L5.3826 9.8387
" />
<path d="M5.3826 9.8387
L5.3221 9.8992
" />
<path d="M6.2897 9.7783
L6.7735 9.7783
" />
<path d="M6.4711 9.3549
L6.4711 10.4435
" />
<path d="M6.4711 10.4435
L6.5316 10.5645
" />
<path d="M6.5316 10.5645
L6.6526 10.6249
" />
<path d="M6.6526 10.6249
L6.7735 10.6249
" />
<path d="M7.0154 9.7783
L7.4992 9.7783
" />
<path d="M7.1968 9.3549
L7.1968 10.4435
" />
<path d="M7.1968 10.4435
L7.2573 10.5645
" />
<path d="M7.2573 10.5645
L7.3783 10.6249
" />
<path d="M7.3783 10.6249
L7.4992 10.6249
" />
<path d="M7.9225 9.7783
L7.9225 11.0483
" />
<path d="M7.9225 9.8387
L8.0435 9.7783
" />
<path d="M8.0435 9.7783
L8.2854 9.7783
" />
<path d="M8.2854 9.7783
L8.4063 9.8387
" />
<path d="M8.4063 9.8387
L8.4668 9.8992
" />
<path d="M8.4668 9.8992
L8.5273 10.0202
" />
<path d="M8.5273 10.0202
L8.5273 10.3830
" />
<path d="M8.5273 10.3830
L8.4668 10.5040
" />
<path d="M8.4668 10.5040
L8.4063 10.5645
" />
<path d="M8.4063 10.5645
L8.2854 10.6249
" />
<path d="M8.2854 10.6249
L8.0435 10.6249
" />
<path d="M8.0435 10.6249
L7.9225 10.5645
" />
<path d="M9.0715 10.5040
L9.1320 10.5645
" />
<path d="M9.1320 10.5645
L9.0715 10.6249
" />
<path d="M9.0715 10.6249
L9.0111 10.5645
" />
<path d="M9.0111 10.5645
L9.0715 10.5040
" />
<path d="M9.0715 10.5040
L9.0715 10.6249
" />
<path d="M9.0715 9.8387
L9.1320 9.8992
" />
<path d="M9.1320 9.8992
L9.0715 9.9597
" />
<path d="M9.0715 9.9597
L9.0111 9.8992
" />
<path d="M9.0111 9.8992
L9.0715 9.8387
" />
<path d="M9.0715 9.8387
L9.0715 9.9597
" />
<path d="M10.5835 9.2945
L9.4949 10.9273
" />
<path d="M11.9140 9.2945
L10.8254 10.9273
" />
<path d="M12.2164 9.7783
L12.4583 10.6249
" />
<path d="M12.4583 10.6249
L12.7002 10.0202
" />
<path d="M12.7002 10.0202
L12.9421 10.6249
" />
<path d="M12.9421 10.6249
L13.1840 9.7783
" />
<path d="M13.5469 9.7783
L13.7888 10.6249
" />
<path d="M13.7888 10.6249
L14.0307 10.0202
" />
<path d="M14.0307 10.0202
L14.2726 10.6249
" />
<path d="M14.2726 10.6249
L14.5145 9.7783
" />
<path d="M14.8774 9.7783
L15.1193 10.6249
" />
<path d="M15.1193 10.6249
L15.3612 10.0202
" />
<path d="M15.3612 10.0202
L15.6031 10.6249
" />
<path d="M15.6031 10.6249
L15.8450 9.7783
" />
<path d="M16.3288 10.5040
L16.3893 10.5645
" />
<path d="M16.3893 10.5645
L16.3288 10.6249
" />
<path d="M16.3288 10.6249
L16.2684 10.5645
" />
<path d="M16.2684 10.5645
L16.3288 10.5040
" />
<path d="M16.3288 10.5040
L16.3288 10.6249
" />
<path d="M16.7522 9.7783
L17.2360 9.7783
" />
<path d="M16.9336 9.3549
L16.9336 10.4435
" />
<path d="M16.9336 10.4435
L16.9941 10.5645
" />
<path d="M16.9941 10.5645
L17.1151 10.6249
" />
<path d="M17.1151 10.6249
L17.2360 10.6249
" />
<path d="M17.6593 10.6249
L17.6593 9.7783
" />
<path d="M17.6593 9.3549
L17.5989 9.4154
" />
<path d="M17.5989 9.4154
L17.6593 9.4759
" />
<path d="M17.6593 9.4759
L17.7198 9.4154
" />
<path d="M17.7198 9.4154
L17.6593 9.3549
" />
<path d="M17.6593 9.3549
L17.6593 9.4759
" />
<path d="M18.2641 10.5040
L18.3246 10.5645
" />
<path d="M18.3246 10.5645
L18.2641 10.6249
" />
<path d="M18.2641 10.6249
L18.2037 10.5645
" />
<path d="M18.2037 10.5645
L18.2641 10.5040
" />
<path d="M18.2641 10.5040
L18.2641 10.6249
" />
<path d="M19.4132 10.5645
L19.2923 10.6249
" />
<path d="M19.2923 10.6249
L19.0504 10.6249
" />
<path d="M19.0504 10.6249
L18.9294 10.5645
" />
<path d="M18.9294 10.5645
L18.8689 10.5040
" />
<path d="M18.8689 10.5040
L18.8085 10.3830
" />
<path d="M18.8085 10.3830
L18.8085 10.0202
" />
<path d="M18.8085 10.0202
L18.8689 9.8992
" />
<path d="M18.8689 9.8992
L18.9294 9.8387
" />
<path d="M18.9294 9.8387
L19.0504 9.7783
" />
<path d="M19.0504 9.7783
L19.2923 9.7783
" />
<path d="M19.2923 9.7783
L19.4132 9.8387
" />
<path d="M20.1390 10.6249
L20.0180 10.5645
" />
<path d="M20.0180 10.5645
L19.9575 10.5040
" />
<path d="M19.9575 10.5040
L19.8971 10.3830
" />
<path d="M19.8971 10.3830
L19.8971 10.0202
" />
<path d="M19.8971 10.0202
L19.9575 9.8992
" />
<path d="M19.9575 9.8992
L20.0180 9.8387
" />
<path d="M20.0180 9.8387
L20.1390 9.7783
" />
<path d="M20.1390 9.7783
L20.3204 9.7783
" />
<path d="M20.3204 9.7783
L20.4413 9.8387
" />
<path d="M20.4413 9.8387
L20.5018 9.8992
" />
<path d="M20.5018 9.8992
L20.5623 10.0202
" />
<path d="M20.5623 10.0202
L20.5623 10.3830
" />
<path d="M20.5623 10.3830
L20.5018 10.5040
" />
<path d="M20.5018 10.5040
L20.4413 10.5645
" />
<path d="M20.4413 10.5645
L20.3204 10.6249
" />
<path d="M20.3204 10.6249
L20.1390 10.6249
" />
<path d="M21.1065 10.6249
L21.1065 9.7783
" />
<path d="M21.1065 9.8992
L21.1670 9.8387
" />
<path d="M21.1670 9.8387
L21.2880 9.7783
" />
<path d="M21.2880 9.7783
L21.4694 9.7783
" />
<path d="M21.4694 9.7783
L21.5903 9.8387
" />
<path d="M21.5903 9.8387
L21.6508 9.9597
" />
<path d="M21.6508 9.9597
L21.6508 10.6249
" />
<path d="M21.6508 9.9597
L21.7113 9.8387
" />
<path d="M21.7113 9.8387
L21.8322 9.7783
" />
<path d="M21.8322 9.7783
L22.0137 9.7783
" />
<path d="M22.0137 9.7783
L22.1346 9.8387
" />
<path d="M22.1346 9.8387
L22.1951 9.9597
" />
<path d="M22.1951 9.9597
L22.1951 10.6249
" />
<path d="M23.7070 9.2945
L22.6184 10.9273
" />
<path d="M24.3118 10.6249
L24.1908 10.5645
" />
<path d="M24.1908 10.5645
L24.1303 10.4435
" />
<path d="M24.1303 10.4435
L24.1303 9.3549
" />
<path d="M24.7955 10.6249
L24.7955 9.7783
" />
<path d="M24.7955 9.3549
L24.7351 9.4154
" />
<path d="M24.7351 9.4154
L24.7955 9.4759
" />
<path d="M24.7955 9.4759
L24.8560 9.4154
" />
<path d="M24.8560 9.4154
L24.7955 9.3549
" />
<path d="M24.7955 9.3549
L24.7955 9.4759
" />
<path d="M25.2189 9.7783
L25.7027 9.7783
" />
<path d="M25.4003 9.3549
L25.4003 10.4435
" />
<path d="M25.4003 10.4435
L25.4608 10.5645
" />
<path d="M25.4608 10.5645
L25.5818 10.6249
" />
<path d="M25.5818 10.6249
L25.7027 10.6249
" />
<path d="M27.0332 9.2945
L25.9446 10.9273
" />
<path d="M28.0008 10.6249
L28.0008 9.3549
" />
<path d="M28.0008 10.5645
L27.8799 10.6249
" />
<path d="M27.8799 10.6249
L27.6380 10.6249
" />
<path d="M27.6380 10.6249
L27.5170 10.5645
" />
<path d="M27.5170 10.5645
L27.4565 10.5040
" />
<path d="M27.4565 10.5040
L27.3961 10.3830
" />
<path d="M27.3961 10.3830
L27.3961 10.0202
" />
<path d="M27.3961 10.0202
L27.4565 9.8992
" />
<path d="M27.4565 9.8992
L27.5170 9.8387
" />
<path d="M27.5170 9.8387
L27.6380 9.7783
" />
<path d="M27.6380 9.7783
L27.8799 9.7783
" />
<path d="M27.8799 9.7783
L28.0008 9.8387
" />
<path d="M28.5451 10.5645
L28.6660 10.6249
" />
<path d="M28.6660 10.6249
L28.9079 10.6249
" />
<path d="M28.9079 10.6249
L29.0289 10.5645
" />
<path d="M29.0289 10.5645
L29.0893 10.4435
" />
<path d="M29.0893 10.4435
L29.0893 10.3830
" />
<path d="M29.0893 10.3830
L29.0289 10.2621
" />
<path d="M29.0289 10.2621
L28.9079 10.2016
" />
<path d="M28.9079 10.2016
L28.7265 10.2016
" />
<path d="M28.7265 10.2016
L28.6055 10.1411
" />
<path d="M28.6055 10.1411
L28.5451 10.0202
" />
<path d="M28.5451 10.0202
L28.5451 9.9597
" />
<path d="M28.5451 9.9597
L28.6055 9.8387
" />
<path d="M28.6055 9.8387
L28.7265 9.7783
" />
<path d="M28.7265 9.7783
L28.9079 9.7783
" />
<path d="M28.9079 9.7783
L29.0289 9.8387
" />
<path d="M30.5408 9.2945
L29.4522 10.9273
" />
<path d="M30.9037 10.5645
L31.0246 10.6249
" />
<path d="M31.0246 10.6249
L31.2665 10.6249
" />
<path d="M31.2665 10.6249
L31.3875 10.5645
" />
<path d="M31.3875 10.5645
L31.4479 10.4435
" />
<path d="M31.4479 10.4435
L31.4479 10.3830
" />
<path d="M31.4479 10.3830
L31.3875 10.2621
" />
<path d="M31.3875 10.2621
L31.2665 10.2016
" />
<path d="M31.2665 10.2016
L31.0851 10.2016
" />
<path d="M31.0851 10.2016
L30.9641 10.1411
" />
<path d="M30.9641 10.1411
L30.9037 10.0202
" />
<path d="M30.9037 10.0202
L30.9037 9.9597
" />
<path d="M30.9037 9.9597
L30.9641 9.8387
" />
<path d="M30.9641 9.8387
L31.0851 9.7783
" />
<path d="M31.0851 9.7783
L31.2665 9.7783
" />
<path d="M31.2665 9.7783
L31.3875 9.8387
" />
<path d="M31.8713 9.7783
L32.1737 10.6249
" />
<path d="M32.4760 9.7783
L32.1737 10.6249
" />
<path d="M32.1737 10.6249
L32.0527 10.9273
" />
<path d="M32.0527 10.9273
L31.9922 10.9878
" />
<path d="M31.9922 10.9878
L31.8713 11.0483
" />
<path d="M32.9598 10.6249
L32.9598 9.7783
" />
<path d="M32.9598 9.8992
L33.0203 9.8387
" />
<path d="M33.0203 9.8387
L33.1413 9.7783
" />
<path d="M33.1413 9.7783
L33.3227 9.7783
" />
<path d="M33.3227 9.7783
L33.4436 9.8387
" />
<path d="M33.4436 9.8387
L33.5041 9.9597
" />
<path d="M33.5041 9.9597
L33.5041 10.6249
" />
<path d="M33.5041 9.9597
L33.5646 9.8387
" />
<path d="M33.5646 9.8387
L33.6855 9.7783
" />
<path d="M33.6855 9.7783
L33.8670 9.7783
" />
<path d="M33.8670 9.7783
L33.9879 9.8387
" />
<path d="M33.9879 9.8387
L34.0484 9.9597
" />
<path d="M34.0484 9.9597
L34.0484 10.6249
" />
<path d="M34.8346 10.6249
L34.7136 10.5645
" />
<path d="M34.7136 10.5645
L34.6531 10.4435
" />
<path d="M34.6531 10.4435
L34.6531 9.3549
" />
<path d="M35.3183 10.6249
L35.3183 9.7783
" />
<path d="M35.3183 9.3549
L35.2579 9.4154
" />
<path d="M35.2579 9.4154
L35.3183 9.4759
" />
<path d="M35.3183 9.4759
L35.3788 9.4154
" />
<path d="M35.3788 9.4154
L35.3183 9.3549
" />
<path d="M35.3183 9.3549
L35.3183 9.4759
" />
<path d="M35.9231 9.7783
L35.9231 10.6249
" />
<path d="M35.9231 9.8992
L35.9836 9.8387
" />
<path d="M35.9836 9.8387
L36.1046 9.7783
" />
<path d="M36.1046 9.7783
L36.2860 9.7783
" />
<path d="M36.2860 9.7783
L36.4069 9.8387
" />
<path d="M36.4069 9.8387
L36.4674 9.9597
" />
<path d="M36.4674 9.9597
L36.4674 10.6249
" />
<path d="M37.0721 10.6249
L37.0721 9.3549
" />
<path d="M37.1931 10.1411
L37.5559 10.6249
" />
<path d="M37.5559 9.7783
L37.0721 10.2621
" />
<path d="M39.0074 9.2945
L37.9188 10.9273
" />
<path d="M39.6122 10.6249
L39.4912 10.5645
" />
<path d="M39.4912 10.5645
L39.4307 10.4435
" />
<path d="M39.4307 10.4435
L39.4307 9.3549
" />
<path d="M40.0959 9.7783
L40.0959 11.0483
" />
<path d="M40.0959 9.8387
L40.2169 9.7783
" />
<path d="M40.2169 9.7783
L40.4588 9.7783
" />
<path d="M40.4588 9.7783
L40.5797 9.8387
" />
<path d="M40.5797 9.8387
L40.6402 9.8992
" />
<path d="M40.6402 9.8992
L40.7007 10.0202
" />
<path d="M40.7007 10.0202
L40.7007 10.3830
" />
<path d="M40.7007 10.3830
L40.6402 10.5040
" />
<path d="M40.6402 10.5040
L40.5797 10.5645
" />
<path d="M40.5797 10.5645
L40.4588 10.6249
" />
<path d="M40.4588 10.6249
L40.2169 10.6249
" />
<path d="M40.2169 10.6249
L40.0959 10.5645
" />
<path d="M41.1845 9.4759
L41.2449 9.4154
" />
<path d="M41.2449 9.4154
L41.3659 9.3549
" />
<path d="M41.3659 9.3549
L41.6683 9.3549
" />
<path d="M41.6683 9.3549
L41.7892 9.4154
" />
<path d="M41.7892 9.4154
L41.8497 9.4759
" />
<path d="M41.8497 9.4759
L41.9102 9.5968
" />
<path d="M41.9102 9.5968
L41.9102 9.7178
" />
<path d="M41.9102 9.7178
L41.8497 9.8992
" />
<path d="M41.8497 9.8992
L41.1240 10.6249
" />
<path d="M41.1240 10.6249
L41.9102 10.6249
" />
<path d="M42.5149 10.6249
L42.7568 10.6249
" />
<path d="M42.7568 10.6249
L42.8778 10.5645
" />
<path d="M42.8778 10.5645
L42.9382 10.5040
" />
<path d="M42.9382 10.5040
L43.0592 10.3225
" />
<path d="M43.0592 10.3225
L43.1197 10.0806
" />
<path d="M43.1197 10.0806
L43.1197 9.5968
" />
<path d="M43.1197 9.5968
L43.0592 9.4759
" />
<path d="M43.0592 9.4759
L42.9987 9.4154
" />
<path d="M42.9987 9.4154
L42.8778 9.3549
" />
<path d="M42.8778 9.3549
L42.6359 9.3549
" />
<path d="M42.6359 9.3549
L42.5149 9.4154
" />
<path d="M42.5149 9.4154
L42.4544 9.4759
" />
<path d="M42.4544 9.4759
L42.3940 9.5968
" />
<path d="M42.3940 9.5968
L42.3940 9.8992
" />
<path d="M42.3940 9.8992
L42.4544 10.0202
" />
<path d="M42.4544 10.0202
L42.5149 10.0806
" />
<path d="M42.5149 10.0806
L42.6359 10.1411
" />
<path d="M42.6359 10.1411
L42.8778 10.1411
" />
<path d="M42.8778 10.1411
L42.9987 10.0806
" />
<path d="M42.9987 10.0806
L43.0592 10.0202
" />
<path d="M43.0592 10.0202
L43.1197 9.8992
" />
<path d="M43.8454 9.8992
L43.7244 9.8387
" />
<path d="M43.7244 9.8387
L43.6639 9.7783
" />
<path d="M43.6639 9.7783
L43.6035 9.6573
" />
<path d="M43.6035 9.6573
L43.6035 9.5968
" />
<path d="M43.6035 9.5968
L43.6639 9.4759
" />
<path d="M43.6639 9.4759
L43.7244 9.4154
" />
<path d="M43.7244 9.4154
L43.8454 9.3549
" />
<path d="M43.8454 9.3549
L44.0873 9.3549
" />
<path d="M44.0873 9.3549
L44.2082 9.4154
" />
<path d="M44.2082 9.4154
L44.2687 9.4759
" />
<path d="M44.2687 9.4759
L44.3292 9.5968
" />
<path d="M44.3292 9.5968
L44.3292 9.6573
" />
<path d="M44.3292 9.6573
L44.2687 9.7783
" />
<path d="M44.2687 9.7783
L44.2082 9.8387
" />
<path d="M44.2082 9.8387
L44.0873 9.8992
" />
<path d="M44.0873 9.8992
L43.8454 9.8992
" />
<path d="M43.8454 9.8992
L43.7244 9.9597
" />
<path d="M43.7244 9.9597
L43.6639 10.0202
" />
<path d="M43.6639 10.0202
L43.6035 10.1411
" />
<path d="M43.6035 10.1411
L43.6035 10.3830
" />
<path d="M43.6035 10.3830
L43.6639 10.5040
" />
<path d="M43.6639 10.5040
L43.7244 10.5645
" />
<path d="M43.7244 10.5645
L43.8454 10.6249
" />
<path d="M43.8454 10.6249
L44.0873 10.6249
" />
<path d="M44.0873 10.6249
L44.2082 10.5645
" />
<path d="M44.2082 10.5645
L44.2687 10.5040
" />
<path d="M44.2687 10.5040
L44.3292 10.3830
" />
<path d="M44.3292 10.3830
L44.3292 10.1411
" />
<path d="M44.3292 10.1411
L44.2687 10.0202
" />
<path d="M44.2687 10.0202
L44.2082 9.9597
" />
<path d="M44.2082 9.9597
L44.0873 9.8992
" />
<path d="M45.1153 9.3549
L45.2363 9.3549
" />
<path d="M45.2363 9.3549
L45.3572 9.4154
" />
<path d="M45.3572 9.4154
L45.4177 9.4759
" />
<path d="M45.4177 9.4759
L45.4782 9.5968
" />
<path d="M45.4782 9.5968
L45.5387 9.8387
" />
<path d="M45.5387 9.8387
L45.5387 10.1411
" />
<path d="M45.5387 10.1411
L45.4782 10.3830
" />
<path d="M45.4782 10.3830
L45.4177 10.5040
" />
<path d="M45.4177 10.5040
L45.3572 10.5645
" />
<path d="M45.3572 10.5645
L45.2363 10.6249
" />
<path d="M45.2363 10.6249
L45.1153 10.6249
" />
<path d="M45.1153 10.6249
L44.9944 10.5645
" />
<path d="M44.9944 10.5645
L44.9339 10.5040
" />
<path d="M44.9339 10.5040
L44.8734 10.3830
" />
<path d="M44.8734 10.3830
L44.8130 10.1411
" />
<path d="M44.8130 10.1411
L44.8130 9.8387
" />
<path d="M44.8130 9.8387
L44.8734 9.5968
" />
<path d="M44.8734 9.5968
L44.9339 9.4759
" />
<path d="M44.9339 9.4759
L44.9944 9.4154
" />
<path d="M44.9944 9.4154
L45.1153 9.3549
" />
<path d="M46.0829 10.1411
L47.0506 10.1411
" />
<path d="M48.1996 10.6249
L48.1996 9.9597
" />
<path d="M48.1996 9.9597
L48.1391 9.8387
" />
<path d="M48.1391 9.8387
L48.0182 9.7783
" />
<path d="M48.0182 9.7783
L47.7763 9.7783
" />
<path d="M47.7763 9.7783
L47.6553 9.8387
" />
<path d="M48.1996 10.5645
L48.0787 10.6249
" />
<path d="M48.0787 10.6249
L47.7763 10.6249
" />
<path d="M47.7763 10.6249
L47.6553 10.5645
" />
<path d="M47.6553 10.5645
L47.5949 10.4435
" />
<path d="M47.5949 10.4435
L47.5949 10.3225
" />
<path d="M47.5949 10.3225
L47.6553 10.2016
" />
<path d="M47.6553 10.2016
L47.7763 10.1411
" />
<path d="M47.7763 10.1411
L48.0787 10.1411
" />
<path d="M48.0787 10.1411
L48.1996 10.0806
" />
<path d="M49.3486 10.6249
L49.3486 9.3549
" />
<path d="M49.3486 10.5645
L49.2277 10.6249
" />
<path d="M49.2277 10.6249
L48.9858 10.6249
" />
<path d="M48.9858 10.6249
L48.8648 10.5645
" />
<path d="M48.8648 10.5645
L48.8043 10.5040
" />
<path d="M48.8043 10.5040
L48.7439 10.3830
" />
<path d="M48.7439 10.3830
L48.7439 10.0202
" />
<path d="M48.7439 10.0202
L48.8043 9.8992
" />
<path d="M48.8043 9.8992
L48.8648 9.8387
" />
<path d="M48.8648 9.8387
L48.9858 9.7783
" />
<path d="M48.9858 9.7783
L49.2277 9.7783
" />
<path d="M49.2277 9.7783
L49.3486 9.8387
" />
<path d="M49.9533 9.7783
L49.9533 10.8668
" />
<path d="M49.9533 10.8668
L49.8929 10.9878
" />
<path d="M49.8929 10.9878
L49.7719 11.0483
" />
<path d="M49.7719 11.0483
L49.7114 11.0483
" />
<path d="M49.9533 9.3549
L49.8929 9.4154
" />
<path d="M49.8929 9.4154
L49.9533 9.4759
" />
<path d="M49.9533 9.4759
L50.0138 9.4154
" />
<path d="M50.0138 9.4154
L49.9533 9.3549
" />
<path d="M49.9533 9.3549
L49.9533 9.4759
" />
<path d="M50.5581 10.5040
L50.6186 10.5645
" />
<path d="M50.6186 10.5645
L50.5581 10.6249
" />
<path d="M50.5581 10.6249
L50.4977 10.5645
" />
<path d="M50.4977 10.5645
L50.5581 10.5040
" />
<path d="M50.5581 10.5040
L50.5581 10.6249
" />
<path d="M51.1629 9.7783
L51.1629 11.0483
" />
<path d="M51.1629 9.8387
L51.2839 9.7783
" />
<path d="M51.2839 9.7783
L51.5258 9.7783
" />
<path d="M51.5258 9.7783
L51.6467 9.8387
" />
<path d="M51.6467 9.8387
L51.7072 9.8992
" />
<path d="M51.7072 9.8992
L51.7677 10.0202
" />
<path d="M51.7677 10.0202
L51.7677 10.3830
" />
<path d="M51.7677 10.3830
L51.7072 10.5040
" />
<path d="M51.7072 10.5040
L51.6467 10.5645
" />
<path d="M51.6467 10.5645
L51.5258 10.6249
" />
<path d="M51.5258 10.6249
L51.2839 10.6249
" />
<path d="M51.2839 10.6249
L51.1629 10.5645
" />
<path d="M52.8562 10.6249
L52.8562 9.3549
" />
<path d="M52.8562 10.5645
L52.7353 10.6249
" />
<path d="M52.7353 10.6249
L52.4934 10.6249
" />
<path d="M52.4934 10.6249
L52.3724 10.5645
" />
<path d="M52.3724 10.5645
L52.3119 10.5040
" />
<path d="M52.3119 10.5040
L52.2515 10.3830
" />
<path d="M52.2515 10.3830
L52.2515 10.0202
" />
<path d="M52.2515 10.0202
L52.3119 9.8992
" />
<path d="M52.3119 9.8992
L52.3724 9.8387
" />
<path d="M52.3724 9.8387
L52.4934 9.7783
" />
<path d="M52.4934 9.7783
L52.7353 9.7783
" />
<path d="M52.7353 9.7783
L52.8562 9.8387
" />
<path d="M53.2795 9.7783
L53.7633 9.7783
" />
<path d="M53.4609 10.6249
L53.4609 9.5364
" />
<path d="M53.4609 9.5364
L53.5214 9.4154
" />
<path d="M53.5214 9.4154
L53.6424 9.3549
" />
<path d="M53.6424 9.3549
L53.7633 9.3549
" />
</g></g> 
</svg>
