<?xml version="1.0" standalone="no"?>
 <!DOCTYPE svg PUBLIC "-//W3C//DTD SVG 1.1//EN" 
 "http://www.w3.org/Graphics/SVG/1.1/DTD/svg11.dtd"> 
<svg
  xmlns:svg="http://www.w3.org/2000/svg"
  xmlns="http://www.w3.org/2000/svg"
  xmlns:xlink="http://www.w3.org/1999/xlink"
  version="1.1"
  width="80.5180mm" height="56.6674mm" viewBox="0.0000 0.0000 80.5180 56.6674">
<title>SVG Image created as working.svg date 2023/08/19 00:26:55 </title>
  <desc>Image generated by Eeschema-SVG </desc>
<g style="fill:#000000; fill-opacity:1.0000;stroke:#000000; stroke-opacity:1.0000;
stroke-linecap:round; stroke-linejoin:round;"
 transform="translate(0 0) scale(1 1)">
</g>
<g style="fill:#840000; fill-opacity:0.0; 
stroke:#840000; stroke-width:0.0000; stroke-opacity:1; 
stroke-linecap:round; stroke-linejoin:round;">
</g>
<g style="fill:#840084; fill-opacity:0.0; 
stroke:#840084; stroke-width:0.0000; stroke-opacity:1; 
stroke-linecap:round; stroke-linejoin:round;">
</g>
<g style="fill:#840000; fill-opacity:0.0; 
stroke:#840000; stroke-width:0.0000; stroke-opacity:1; 
stroke-linecap:round; stroke-linejoin:round;">
</g>
<g style="fill:#840084; fill-opacity:0.0; 
stroke:#840084; stroke-width:0.0000; stroke-opacity:1; 
stroke-linecap:round; stroke-linejoin:round;">
</g>
<g style="fill:#006464; fill-opacity:0.0; 
stroke:#006464; stroke-width:0.0000; stroke-opacity:1; 
stroke-linecap:round; stroke-linejoin:round;">
</g>
<g style="fill:#006464; fill-opacity:0.0; 
stroke:#006464; stroke-width:0.1588; stroke-opacity:1; 
stroke-linecap:round; stroke-linejoin:round;">
<text x="26.3458" y="51.5532"
textLength="2.6415" font-size="1.6933" lengthAdjust="spacingAndGlyphs"
text-anchor="middle" opacity="0">U?</text>
<g class="stroked-text"><desc>U?</desc>
<path d="M25.4386 50.2274
L25.4386 51.2555
" />
<path d="M25.4386 51.2555
L25.4991 51.3765
" />
<path d="M25.4991 51.3765
L25.5596 51.4370
" />
<path d="M25.5596 51.4370
L25.6805 51.4974
" />
<path d="M25.6805 51.4974
L25.9224 51.4974
" />
<path d="M25.9224 51.4974
L26.0434 51.4370
" />
<path d="M26.0434 51.4370
L26.1039 51.3765
" />
<path d="M26.1039 51.3765
L26.1643 51.2555
" />
<path d="M26.1643 51.2555
L26.1643 50.2274
" />
<path d="M26.9506 51.3765
L27.0110 51.4370
" />
<path d="M27.0110 51.4370
L26.9506 51.4974
" />
<path d="M26.9506 51.4974
L26.8901 51.4370
" />
<path d="M26.8901 51.4370
L26.9506 51.3765
" />
<path d="M26.9506 51.3765
L26.9506 51.4974
" />
<path d="M26.7087 50.2879
L26.8296 50.2274
" />
<path d="M26.8296 50.2274
L27.1320 50.2274
" />
<path d="M27.1320 50.2274
L27.2529 50.2879
" />
<path d="M27.2529 50.2879
L27.3134 50.4089
" />
<path d="M27.3134 50.4089
L27.3134 50.5298
" />
<path d="M27.3134 50.5298
L27.2529 50.6508
" />
<path d="M27.2529 50.6508
L27.1925 50.7112
" />
<path d="M27.1925 50.7112
L27.0715 50.7717
" />
<path d="M27.0715 50.7717
L27.0110 50.8322
" />
<path d="M27.0110 50.8322
L26.9506 50.9531
" />
<path d="M26.9506 50.9531
L26.9506 51.0136
" />
</g><text x="53.9531" y="51.5532"
textLength="17.2161" font-size="1.6933" lengthAdjust="spacingAndGlyphs"
text-anchor="middle" opacity="0">ATSAMD51J19A-M</text>
<g class="stroked-text"><desc>ATSAMD51J19A-M</desc>
<path d="M45.6982 51.1346
L46.3029 51.1346
" />
<path d="M45.5772 51.4974
L46.0005 50.2274
" />
<path d="M46.0005 50.2274
L46.4239 51.4974
" />
<path d="M46.6658 50.2274
L47.3915 50.2274
" />
<path d="M47.0287 51.4974
L47.0287 50.2274
" />
<path d="M47.7544 51.4370
L47.9358 51.4974
" />
<path d="M47.9358 51.4974
L48.2382 51.4974
" />
<path d="M48.2382 51.4974
L48.3591 51.4370
" />
<path d="M48.3591 51.4370
L48.4196 51.3765
" />
<path d="M48.4196 51.3765
L48.4801 51.2555
" />
<path d="M48.4801 51.2555
L48.4801 51.1346
" />
<path d="M48.4801 51.1346
L48.4196 51.0136
" />
<path d="M48.4196 51.0136
L48.3591 50.9531
" />
<path d="M48.3591 50.9531
L48.2382 50.8927
" />
<path d="M48.2382 50.8927
L47.9963 50.8322
" />
<path d="M47.9963 50.8322
L47.8753 50.7717
" />
<path d="M47.8753 50.7717
L47.8148 50.7112
" />
<path d="M47.8148 50.7112
L47.7544 50.5903
" />
<path d="M47.7544 50.5903
L47.7544 50.4693
" />
<path d="M47.7544 50.4693
L47.8148 50.3484
" />
<path d="M47.8148 50.3484
L47.8753 50.2879
" />
<path d="M47.8753 50.2879
L47.9963 50.2274
" />
<path d="M47.9963 50.2274
L48.2986 50.2274
" />
<path d="M48.2986 50.2274
L48.4801 50.2879
" />
<path d="M48.9639 51.1346
L49.5686 51.1346
" />
<path d="M48.8429 51.4974
L49.2662 50.2274
" />
<path d="M49.2662 50.2274
L49.6896 51.4974
" />
<path d="M50.1129 51.4974
L50.1129 50.2274
" />
<path d="M50.1129 50.2274
L50.5363 51.1346
" />
<path d="M50.5363 51.1346
L50.9596 50.2274
" />
<path d="M50.9596 50.2274
L50.9596 51.4974
" />
<path d="M51.5643 51.4974
L51.5643 50.2274
" />
<path d="M51.5643 50.2274
L51.8667 50.2274
" />
<path d="M51.8667 50.2274
L52.0481 50.2879
" />
<path d="M52.0481 50.2879
L52.1691 50.4089
" />
<path d="M52.1691 50.4089
L52.2296 50.5298
" />
<path d="M52.2296 50.5298
L52.2900 50.7717
" />
<path d="M52.2900 50.7717
L52.2900 50.9531
" />
<path d="M52.2900 50.9531
L52.2296 51.1950
" />
<path d="M52.2296 51.1950
L52.1691 51.3160
" />
<path d="M52.1691 51.3160
L52.0481 51.4370
" />
<path d="M52.0481 51.4370
L51.8667 51.4974
" />
<path d="M51.8667 51.4974
L51.5643 51.4974
" />
<path d="M53.4391 50.2274
L52.8343 50.2274
" />
<path d="M52.8343 50.2274
L52.7739 50.8322
" />
<path d="M52.7739 50.8322
L52.8343 50.7717
" />
<path d="M52.8343 50.7717
L52.9553 50.7112
" />
<path d="M52.9553 50.7112
L53.2577 50.7112
" />
<path d="M53.2577 50.7112
L53.3786 50.7717
" />
<path d="M53.3786 50.7717
L53.4391 50.8322
" />
<path d="M53.4391 50.8322
L53.4996 50.9531
" />
<path d="M53.4996 50.9531
L53.4996 51.2555
" />
<path d="M53.4996 51.2555
L53.4391 51.3765
" />
<path d="M53.4391 51.3765
L53.3786 51.4370
" />
<path d="M53.3786 51.4370
L53.2577 51.4974
" />
<path d="M53.2577 51.4974
L52.9553 51.4974
" />
<path d="M52.9553 51.4974
L52.8343 51.4370
" />
<path d="M52.8343 51.4370
L52.7739 51.3765
" />
<path d="M54.7091 51.4974
L53.9834 51.4974
" />
<path d="M54.3462 51.4974
L54.3462 50.2274
" />
<path d="M54.3462 50.2274
L54.2253 50.4089
" />
<path d="M54.2253 50.4089
L54.1043 50.5298
" />
<path d="M54.1043 50.5298
L53.9834 50.5903
" />
<path d="M55.6162 50.2274
L55.6162 51.1346
" />
<path d="M55.6162 51.1346
L55.5557 51.3160
" />
<path d="M55.5557 51.3160
L55.4348 51.4370
" />
<path d="M55.4348 51.4370
L55.2533 51.4974
" />
<path d="M55.2533 51.4974
L55.1324 51.4974
" />
<path d="M56.8862 51.4974
L56.1605 51.4974
" />
<path d="M56.5233 51.4974
L56.5233 50.2274
" />
<path d="M56.5233 50.2274
L56.4024 50.4089
" />
<path d="M56.4024 50.4089
L56.2814 50.5298
" />
<path d="M56.2814 50.5298
L56.1605 50.5903
" />
<path d="M57.4909 51.4974
L57.7328 51.4974
" />
<path d="M57.7328 51.4974
L57.8538 51.4370
" />
<path d="M57.8538 51.4370
L57.9142 51.3765
" />
<path d="M57.9142 51.3765
L58.0352 51.1950
" />
<path d="M58.0352 51.1950
L58.0957 50.9531
" />
<path d="M58.0957 50.9531
L58.0957 50.4693
" />
<path d="M58.0957 50.4693
L58.0352 50.3484
" />
<path d="M58.0352 50.3484
L57.9747 50.2879
" />
<path d="M57.9747 50.2879
L57.8538 50.2274
" />
<path d="M57.8538 50.2274
L57.6119 50.2274
" />
<path d="M57.6119 50.2274
L57.4909 50.2879
" />
<path d="M57.4909 50.2879
L57.4304 50.3484
" />
<path d="M57.4304 50.3484
L57.3700 50.4693
" />
<path d="M57.3700 50.4693
L57.3700 50.7717
" />
<path d="M57.3700 50.7717
L57.4304 50.8927
" />
<path d="M57.4304 50.8927
L57.4909 50.9531
" />
<path d="M57.4909 50.9531
L57.6119 51.0136
" />
<path d="M57.6119 51.0136
L57.8538 51.0136
" />
<path d="M57.8538 51.0136
L57.9747 50.9531
" />
<path d="M57.9747 50.9531
L58.0352 50.8927
" />
<path d="M58.0352 50.8927
L58.0957 50.7717
" />
<path d="M58.5795 51.1346
L59.1842 51.1346
" />
<path d="M58.4585 51.4974
L58.8818 50.2274
" />
<path d="M58.8818 50.2274
L59.3052 51.4974
" />
<path d="M59.7285 51.0136
L60.6962 51.0136
" />
<path d="M61.3009 51.4974
L61.3009 50.2274
" />
<path d="M61.3009 50.2274
L61.7243 51.1346
" />
<path d="M61.7243 51.1346
L62.1476 50.2274
" />
<path d="M62.1476 50.2274
L62.1476 51.4974
" />
</g></g>
<g style="fill:#840084; fill-opacity:0.0; 
stroke:#840084; stroke-width:0.1588; stroke-opacity:1; 
stroke-linecap:round; stroke-linejoin:round;">
<text x="40.3445" y="6.3784"
textLength="61.3635" font-size="1.6933" lengthAdjust="spacingAndGlyphs"
text-anchor="middle" opacity="0">Package_DFN_QFN:QFN-64-1EP_9x9mm_P0.5mm_EP4.7x4.7mm</text>
<g class="stroked-text"><desc>Package_DFN_QFN:QFN-64-1EP_9x9mm_P0.5mm_EP4.7x4.7mm</desc>
<path d="M10.0688 6.3226
L10.2275 5.0526
" />
<path d="M10.2275 5.0526
L10.7113 5.0526
" />
<path d="M10.7113 5.0526
L10.8247 5.1131
" />
<path d="M10.8247 5.1131
L10.8776 5.1736
" />
<path d="M10.8776 5.1736
L10.9230 5.2945
" />
<path d="M10.9230 5.2945
L10.9003 5.4760
" />
<path d="M10.9003 5.4760
L10.8247 5.5969
" />
<path d="M10.8247 5.5969
L10.7567 5.6574
" />
<path d="M10.7567 5.6574
L10.6282 5.7179
" />
<path d="M10.6282 5.7179
L10.1444 5.7179
" />
<path d="M11.8831 6.3226
L11.9662 5.6574
" />
<path d="M11.9662 5.6574
L11.9209 5.5364
" />
<path d="M11.9209 5.5364
L11.8075 5.4760
" />
<path d="M11.8075 5.4760
L11.5656 5.4760
" />
<path d="M11.5656 5.4760
L11.4370 5.5364
" />
<path d="M11.8906 6.2622
L11.7621 6.3226
" />
<path d="M11.7621 6.3226
L11.4597 6.3226
" />
<path d="M11.4597 6.3226
L11.3463 6.2622
" />
<path d="M11.3463 6.2622
L11.3010 6.1412
" />
<path d="M11.3010 6.1412
L11.3161 6.0202
" />
<path d="M11.3161 6.0202
L11.3917 5.8993
" />
<path d="M11.3917 5.8993
L11.5202 5.8388
" />
<path d="M11.5202 5.8388
L11.8226 5.8388
" />
<path d="M11.8226 5.8388
L11.9511 5.7783
" />
<path d="M13.0396 6.2622
L12.9111 6.3226
" />
<path d="M12.9111 6.3226
L12.6692 6.3226
" />
<path d="M12.6692 6.3226
L12.5558 6.2622
" />
<path d="M12.5558 6.2622
L12.5029 6.2017
" />
<path d="M12.5029 6.2017
L12.4575 6.0807
" />
<path d="M12.4575 6.0807
L12.5029 5.7179
" />
<path d="M12.5029 5.7179
L12.5785 5.5969
" />
<path d="M12.5785 5.5969
L12.6465 5.5364
" />
<path d="M12.6465 5.5364
L12.7750 5.4760
" />
<path d="M12.7750 5.4760
L13.0169 5.4760
" />
<path d="M13.0169 5.4760
L13.1303 5.5364
" />
<path d="M13.5764 6.3226
L13.7351 5.0526
" />
<path d="M13.7578 5.8388
L14.0602 6.3226
" />
<path d="M14.1660 5.4760
L13.6217 5.9598
" />
<path d="M15.1488 6.3226
L15.2319 5.6574
" />
<path d="M15.2319 5.6574
L15.1866 5.5364
" />
<path d="M15.1866 5.5364
L15.0732 5.4760
" />
<path d="M15.0732 5.4760
L14.8313 5.4760
" />
<path d="M14.8313 5.4760
L14.7027 5.5364
" />
<path d="M15.1563 6.2622
L15.0278 6.3226
" />
<path d="M15.0278 6.3226
L14.7254 6.3226
" />
<path d="M14.7254 6.3226
L14.6120 6.2622
" />
<path d="M14.6120 6.2622
L14.5667 6.1412
" />
<path d="M14.5667 6.1412
L14.5818 6.0202
" />
<path d="M14.5818 6.0202
L14.6574 5.8993
" />
<path d="M14.6574 5.8993
L14.7859 5.8388
" />
<path d="M14.7859 5.8388
L15.0883 5.8388
" />
<path d="M15.0883 5.8388
L15.2168 5.7783
" />
<path d="M16.4036 5.4760
L16.2751 6.5041
" />
<path d="M16.2751 6.5041
L16.1995 6.6250
" />
<path d="M16.1995 6.6250
L16.1314 6.6855
" />
<path d="M16.1314 6.6855
L16.0029 6.7460
" />
<path d="M16.0029 6.7460
L15.8215 6.7460
" />
<path d="M15.8215 6.7460
L15.7081 6.6855
" />
<path d="M16.3053 6.2622
L16.1768 6.3226
" />
<path d="M16.1768 6.3226
L15.9349 6.3226
" />
<path d="M15.9349 6.3226
L15.8215 6.2622
" />
<path d="M15.8215 6.2622
L15.7686 6.2017
" />
<path d="M15.7686 6.2017
L15.7232 6.0807
" />
<path d="M15.7232 6.0807
L15.7686 5.7179
" />
<path d="M15.7686 5.7179
L15.8442 5.5969
" />
<path d="M15.8442 5.5969
L15.9122 5.5364
" />
<path d="M15.9122 5.5364
L16.0407 5.4760
" />
<path d="M16.0407 5.4760
L16.2826 5.4760
" />
<path d="M16.2826 5.4760
L16.3960 5.5364
" />
<path d="M17.3938 6.2622
L17.2653 6.3226
" />
<path d="M17.2653 6.3226
L17.0234 6.3226
" />
<path d="M17.0234 6.3226
L16.9100 6.2622
" />
<path d="M16.9100 6.2622
L16.8647 6.1412
" />
<path d="M16.8647 6.1412
L16.9252 5.6574
" />
<path d="M16.9252 5.6574
L17.0007 5.5364
" />
<path d="M17.0007 5.5364
L17.1293 5.4760
" />
<path d="M17.1293 5.4760
L17.3712 5.4760
" />
<path d="M17.3712 5.4760
L17.4846 5.5364
" />
<path d="M17.4846 5.5364
L17.5299 5.6574
" />
<path d="M17.5299 5.6574
L17.5148 5.7783
" />
<path d="M17.5148 5.7783
L16.8949 5.8993
" />
<path d="M17.6736 6.4436
L18.6412 6.4436
" />
<path d="M18.9587 6.3226
L19.1174 5.0526
" />
<path d="M19.1174 5.0526
L19.4198 5.0526
" />
<path d="M19.4198 5.0526
L19.5937 5.1131
" />
<path d="M19.5937 5.1131
L19.6995 5.2341
" />
<path d="M19.6995 5.2341
L19.7449 5.3550
" />
<path d="M19.7449 5.3550
L19.7751 5.5969
" />
<path d="M19.7751 5.5969
L19.7524 5.7783
" />
<path d="M19.7524 5.7783
L19.6617 6.0202
" />
<path d="M19.6617 6.0202
L19.5861 6.1412
" />
<path d="M19.5861 6.1412
L19.4500 6.2622
" />
<path d="M19.4500 6.2622
L19.2611 6.3226
" />
<path d="M19.2611 6.3226
L18.9587 6.3226
" />
<path d="M20.7352 5.6574
L20.3118 5.6574
" />
<path d="M20.2287 6.3226
L20.3874 5.0526
" />
<path d="M20.3874 5.0526
L20.9922 5.0526
" />
<path d="M21.3173 6.3226
L21.4760 5.0526
" />
<path d="M21.4760 5.0526
L22.0430 6.3226
" />
<path d="M22.0430 6.3226
L22.2017 5.0526
" />
<path d="M22.3303 6.4436
L23.2979 6.4436
" />
<path d="M24.4469 6.4436
L24.3335 6.3831
" />
<path d="M24.3335 6.3831
L24.2277 6.2622
" />
<path d="M24.2277 6.2622
L24.0689 6.0807
" />
<path d="M24.0689 6.0807
L23.9556 6.0202
" />
<path d="M23.9556 6.0202
L23.8346 6.0202
" />
<path d="M23.8573 6.3226
L23.7439 6.2622
" />
<path d="M23.7439 6.2622
L23.6381 6.1412
" />
<path d="M23.6381 6.1412
L23.6078 5.8993
" />
<path d="M23.6078 5.8993
L23.6607 5.4760
" />
<path d="M23.6607 5.4760
L23.7514 5.2341
" />
<path d="M23.7514 5.2341
L23.8875 5.1131
" />
<path d="M23.8875 5.1131
L24.0160 5.0526
" />
<path d="M24.0160 5.0526
L24.2579 5.0526
" />
<path d="M24.2579 5.0526
L24.3713 5.1131
" />
<path d="M24.3713 5.1131
L24.4772 5.2341
" />
<path d="M24.4772 5.2341
L24.5074 5.4760
" />
<path d="M24.5074 5.4760
L24.4545 5.8993
" />
<path d="M24.4545 5.8993
L24.3638 6.1412
" />
<path d="M24.3638 6.1412
L24.2277 6.2622
" />
<path d="M24.2277 6.2622
L24.0992 6.3226
" />
<path d="M24.0992 6.3226
L23.8573 6.3226
" />
<path d="M25.4524 5.6574
L25.0290 5.6574
" />
<path d="M24.9459 6.3226
L25.1046 5.0526
" />
<path d="M25.1046 5.0526
L25.7094 5.0526
" />
<path d="M26.0345 6.3226
L26.1932 5.0526
" />
<path d="M26.1932 5.0526
L26.7602 6.3226
" />
<path d="M26.7602 6.3226
L26.9189 5.0526
" />
<path d="M27.3801 6.2017
L27.4330 6.2622
" />
<path d="M27.4330 6.2622
L27.3650 6.3226
" />
<path d="M27.3650 6.3226
L27.3121 6.2622
" />
<path d="M27.3121 6.2622
L27.3801 6.2017
" />
<path d="M27.3801 6.2017
L27.3650 6.3226
" />
<path d="M27.4632 5.5364
L27.5162 5.5969
" />
<path d="M27.5162 5.5969
L27.4481 5.6574
" />
<path d="M27.4481 5.6574
L27.3952 5.5969
" />
<path d="M27.3952 5.5969
L27.4632 5.5364
" />
<path d="M27.4632 5.5364
L27.4481 5.6574
" />
<path d="M28.8013 6.4436
L28.6879 6.3831
" />
<path d="M28.6879 6.3831
L28.5821 6.2622
" />
<path d="M28.5821 6.2622
L28.4233 6.0807
" />
<path d="M28.4233 6.0807
L28.3100 6.0202
" />
<path d="M28.3100 6.0202
L28.1890 6.0202
" />
<path d="M28.2117 6.3226
L28.0983 6.2622
" />
<path d="M28.0983 6.2622
L27.9925 6.1412
" />
<path d="M27.9925 6.1412
L27.9622 5.8993
" />
<path d="M27.9622 5.8993
L28.0151 5.4760
" />
<path d="M28.0151 5.4760
L28.1058 5.2341
" />
<path d="M28.1058 5.2341
L28.2419 5.1131
" />
<path d="M28.2419 5.1131
L28.3704 5.0526
" />
<path d="M28.3704 5.0526
L28.6123 5.0526
" />
<path d="M28.6123 5.0526
L28.7257 5.1131
" />
<path d="M28.7257 5.1131
L28.8316 5.2341
" />
<path d="M28.8316 5.2341
L28.8618 5.4760
" />
<path d="M28.8618 5.4760
L28.8089 5.8993
" />
<path d="M28.8089 5.8993
L28.7182 6.1412
" />
<path d="M28.7182 6.1412
L28.5821 6.2622
" />
<path d="M28.5821 6.2622
L28.4536 6.3226
" />
<path d="M28.4536 6.3226
L28.2117 6.3226
" />
<path d="M29.8068 5.6574
L29.3834 5.6574
" />
<path d="M29.3003 6.3226
L29.4590 5.0526
" />
<path d="M29.4590 5.0526
L30.0638 5.0526
" />
<path d="M30.3889 6.3226
L30.5476 5.0526
" />
<path d="M30.5476 5.0526
L31.1146 6.3226
" />
<path d="M31.1146 6.3226
L31.2733 5.0526
" />
<path d="M31.7798 5.8388
L32.7475 5.8388
" />
<path d="M33.9948 5.0526
L33.7529 5.0526
" />
<path d="M33.7529 5.0526
L33.6244 5.1131
" />
<path d="M33.6244 5.1131
L33.5564 5.1736
" />
<path d="M33.5564 5.1736
L33.4127 5.3550
" />
<path d="M33.4127 5.3550
L33.3220 5.5969
" />
<path d="M33.3220 5.5969
L33.2615 6.0807
" />
<path d="M33.2615 6.0807
L33.3069 6.2017
" />
<path d="M33.3069 6.2017
L33.3598 6.2622
" />
<path d="M33.3598 6.2622
L33.4732 6.3226
" />
<path d="M33.4732 6.3226
L33.7151 6.3226
" />
<path d="M33.7151 6.3226
L33.8436 6.2622
" />
<path d="M33.8436 6.2622
L33.9117 6.2017
" />
<path d="M33.9117 6.2017
L33.9872 6.0807
" />
<path d="M33.9872 6.0807
L34.0250 5.7783
" />
<path d="M34.0250 5.7783
L33.9797 5.6574
" />
<path d="M33.9797 5.6574
L33.9268 5.5969
" />
<path d="M33.9268 5.5969
L33.8134 5.5364
" />
<path d="M33.8134 5.5364
L33.5715 5.5364
" />
<path d="M33.5715 5.5364
L33.4430 5.5969
" />
<path d="M33.4430 5.5969
L33.3749 5.6574
" />
<path d="M33.3749 5.6574
L33.2993 5.7783
" />
<path d="M35.1514 5.4760
L35.0456 6.3226
" />
<path d="M34.9095 4.9922
L34.4937 5.8993
" />
<path d="M34.4937 5.8993
L35.2799 5.8993
" />
<path d="M35.7712 5.8388
L36.7389 5.8388
" />
<path d="M37.9484 6.3226
L37.2227 6.3226
" />
<path d="M37.5856 6.3226
L37.7443 5.0526
" />
<path d="M37.7443 5.0526
L37.6007 5.2341
" />
<path d="M37.6007 5.2341
L37.4646 5.3550
" />
<path d="M37.4646 5.3550
L37.3361 5.4155
" />
<path d="M38.5758 5.6574
L38.9992 5.6574
" />
<path d="M39.0974 6.3226
L38.4927 6.3226
" />
<path d="M38.4927 6.3226
L38.6514 5.0526
" />
<path d="M38.6514 5.0526
L39.2562 5.0526
" />
<path d="M39.6417 6.3226
L39.8004 5.0526
" />
<path d="M39.8004 5.0526
L40.2842 5.0526
" />
<path d="M40.2842 5.0526
L40.3976 5.1131
" />
<path d="M40.3976 5.1131
L40.4505 5.1736
" />
<path d="M40.4505 5.1736
L40.4959 5.2945
" />
<path d="M40.4959 5.2945
L40.4732 5.4760
" />
<path d="M40.4732 5.4760
L40.3976 5.5969
" />
<path d="M40.3976 5.5969
L40.3296 5.6574
" />
<path d="M40.3296 5.6574
L40.2011 5.7179
" />
<path d="M40.2011 5.7179
L39.7173 5.7179
" />
<path d="M40.5942 6.4436
L41.5618 6.4436
" />
<path d="M41.9397 6.3226
L42.1817 6.3226
" />
<path d="M42.1817 6.3226
L42.3102 6.2622
" />
<path d="M42.3102 6.2622
L42.3782 6.2017
" />
<path d="M42.3782 6.2017
L42.5218 6.0202
" />
<path d="M42.5218 6.0202
L42.6125 5.7783
" />
<path d="M42.6125 5.7783
L42.6730 5.2945
" />
<path d="M42.6730 5.2945
L42.6277 5.1736
" />
<path d="M42.6277 5.1736
L42.5747 5.1131
" />
<path d="M42.5747 5.1131
L42.4614 5.0526
" />
<path d="M42.4614 5.0526
L42.2195 5.0526
" />
<path d="M42.2195 5.0526
L42.0909 5.1131
" />
<path d="M42.0909 5.1131
L42.0229 5.1736
" />
<path d="M42.0229 5.1736
L41.9473 5.2945
" />
<path d="M41.9473 5.2945
L41.9095 5.5969
" />
<path d="M41.9095 5.5969
L41.9549 5.7179
" />
<path d="M41.9549 5.7179
L42.0078 5.7783
" />
<path d="M42.0078 5.7783
L42.1212 5.8388
" />
<path d="M42.1212 5.8388
L42.3631 5.8388
" />
<path d="M42.3631 5.8388
L42.4916 5.7783
" />
<path d="M42.4916 5.7783
L42.5596 5.7179
" />
<path d="M42.5596 5.7179
L42.6352 5.5969
" />
<path d="M42.9678 6.3226
L43.7389 5.4760
" />
<path d="M43.0737 5.4760
L43.6331 6.3226
" />
<path d="M44.1773 6.3226
L44.4193 6.3226
" />
<path d="M44.4193 6.3226
L44.5478 6.2622
" />
<path d="M44.5478 6.2622
L44.6158 6.2017
" />
<path d="M44.6158 6.2017
L44.7594 6.0202
" />
<path d="M44.7594 6.0202
L44.8501 5.7783
" />
<path d="M44.8501 5.7783
L44.9106 5.2945
" />
<path d="M44.9106 5.2945
L44.8653 5.1736
" />
<path d="M44.8653 5.1736
L44.8123 5.1131
" />
<path d="M44.8123 5.1131
L44.6990 5.0526
" />
<path d="M44.6990 5.0526
L44.4571 5.0526
" />
<path d="M44.4571 5.0526
L44.3285 5.1131
" />
<path d="M44.3285 5.1131
L44.2605 5.1736
" />
<path d="M44.2605 5.1736
L44.1849 5.2945
" />
<path d="M44.1849 5.2945
L44.1471 5.5969
" />
<path d="M44.1471 5.5969
L44.1925 5.7179
" />
<path d="M44.1925 5.7179
L44.2454 5.7783
" />
<path d="M44.2454 5.7783
L44.3588 5.8388
" />
<path d="M44.3588 5.8388
L44.6007 5.8388
" />
<path d="M44.6007 5.8388
L44.7292 5.7783
" />
<path d="M44.7292 5.7783
L44.7972 5.7179
" />
<path d="M44.7972 5.7179
L44.8728 5.5969
" />
<path d="M45.3264 6.3226
L45.4322 5.4760
" />
<path d="M45.4171 5.5969
L45.4851 5.5364
" />
<path d="M45.4851 5.5364
L45.6136 5.4760
" />
<path d="M45.6136 5.4760
L45.7951 5.4760
" />
<path d="M45.7951 5.4760
L45.9085 5.5364
" />
<path d="M45.9085 5.5364
L45.9538 5.6574
" />
<path d="M45.9538 5.6574
L45.8707 6.3226
" />
<path d="M45.9538 5.6574
L46.0294 5.5364
" />
<path d="M46.0294 5.5364
L46.1579 5.4760
" />
<path d="M46.1579 5.4760
L46.3393 5.4760
" />
<path d="M46.3393 5.4760
L46.4527 5.5364
" />
<path d="M46.4527 5.5364
L46.4981 5.6574
" />
<path d="M46.4981 5.6574
L46.4149 6.3226
" />
<path d="M47.0197 6.3226
L47.1255 5.4760
" />
<path d="M47.1104 5.5969
L47.1784 5.5364
" />
<path d="M47.1784 5.5364
L47.3069 5.4760
" />
<path d="M47.3069 5.4760
L47.4884 5.4760
" />
<path d="M47.4884 5.4760
L47.6018 5.5364
" />
<path d="M47.6018 5.5364
L47.6471 5.6574
" />
<path d="M47.6471 5.6574
L47.5640 6.3226
" />
<path d="M47.6471 5.6574
L47.7227 5.5364
" />
<path d="M47.7227 5.5364
L47.8512 5.4760
" />
<path d="M47.8512 5.4760
L48.0326 5.4760
" />
<path d="M48.0326 5.4760
L48.1460 5.5364
" />
<path d="M48.1460 5.5364
L48.1914 5.6574
" />
<path d="M48.1914 5.6574
L48.1082 6.3226
" />
<path d="M48.3955 6.4436
L49.3631 6.4436
" />
<path d="M49.6806 6.3226
L49.8393 5.0526
" />
<path d="M49.8393 5.0526
L50.3231 5.0526
" />
<path d="M50.3231 5.0526
L50.4365 5.1131
" />
<path d="M50.4365 5.1131
L50.4894 5.1736
" />
<path d="M50.4894 5.1736
L50.5348 5.2945
" />
<path d="M50.5348 5.2945
L50.5121 5.4760
" />
<path d="M50.5121 5.4760
L50.4365 5.5969
" />
<path d="M50.4365 5.5969
L50.3685 5.6574
" />
<path d="M50.3685 5.6574
L50.2400 5.7179
" />
<path d="M50.2400 5.7179
L49.7562 5.7179
" />
<path d="M51.3512 5.0526
L51.4722 5.0526
" />
<path d="M51.4722 5.0526
L51.5856 5.1131
" />
<path d="M51.5856 5.1131
L51.6385 5.1736
" />
<path d="M51.6385 5.1736
L51.6838 5.2945
" />
<path d="M51.6838 5.2945
L51.7141 5.5364
" />
<path d="M51.7141 5.5364
L51.6763 5.8388
" />
<path d="M51.6763 5.8388
L51.5856 6.0807
" />
<path d="M51.5856 6.0807
L51.5100 6.2017
" />
<path d="M51.5100 6.2017
L51.4419 6.2622
" />
<path d="M51.4419 6.2622
L51.3134 6.3226
" />
<path d="M51.3134 6.3226
L51.1925 6.3226
" />
<path d="M51.1925 6.3226
L51.0791 6.2622
" />
<path d="M51.0791 6.2622
L51.0262 6.2017
" />
<path d="M51.0262 6.2017
L50.9808 6.0807
" />
<path d="M50.9808 6.0807
L50.9506 5.8388
" />
<path d="M50.9506 5.8388
L50.9884 5.5364
" />
<path d="M50.9884 5.5364
L51.0791 5.2945
" />
<path d="M51.0791 5.2945
L51.1547 5.1736
" />
<path d="M51.1547 5.1736
L51.2227 5.1131
" />
<path d="M51.2227 5.1131
L51.3512 5.0526
" />
<path d="M52.1752 6.2017
L52.2281 6.2622
" />
<path d="M52.2281 6.2622
L52.1601 6.3226
" />
<path d="M52.1601 6.3226
L52.1072 6.2622
" />
<path d="M52.1072 6.2622
L52.1752 6.2017
" />
<path d="M52.1752 6.2017
L52.1601 6.3226
" />
<path d="M53.5284 5.0526
L52.9236 5.0526
" />
<path d="M52.9236 5.0526
L52.7876 5.6574
" />
<path d="M52.7876 5.6574
L52.8556 5.5969
" />
<path d="M52.8556 5.5969
L52.9841 5.5364
" />
<path d="M52.9841 5.5364
L53.2865 5.5364
" />
<path d="M53.2865 5.5364
L53.3999 5.5969
" />
<path d="M53.3999 5.5969
L53.4528 5.6574
" />
<path d="M53.4528 5.6574
L53.4981 5.7783
" />
<path d="M53.4981 5.7783
L53.4603 6.0807
" />
<path d="M53.4603 6.0807
L53.3848 6.2017
" />
<path d="M53.3848 6.2017
L53.3167 6.2622
" />
<path d="M53.3167 6.2622
L53.1882 6.3226
" />
<path d="M53.1882 6.3226
L52.8858 6.3226
" />
<path d="M52.8858 6.3226
L52.7724 6.2622
" />
<path d="M52.7724 6.2622
L52.7195 6.2017
" />
<path d="M53.9744 6.3226
L54.0802 5.4760
" />
<path d="M54.0651 5.5969
L54.1331 5.5364
" />
<path d="M54.1331 5.5364
L54.2616 5.4760
" />
<path d="M54.2616 5.4760
L54.4431 5.4760
" />
<path d="M54.4431 5.4760
L54.5565 5.5364
" />
<path d="M54.5565 5.5364
L54.6018 5.6574
" />
<path d="M54.6018 5.6574
L54.5187 6.3226
" />
<path d="M54.6018 5.6574
L54.6774 5.5364
" />
<path d="M54.6774 5.5364
L54.8059 5.4760
" />
<path d="M54.8059 5.4760
L54.9873 5.4760
" />
<path d="M54.9873 5.4760
L55.1007 5.5364
" />
<path d="M55.1007 5.5364
L55.1461 5.6574
" />
<path d="M55.1461 5.6574
L55.0629 6.3226
" />
<path d="M55.6677 6.3226
L55.7735 5.4760
" />
<path d="M55.7584 5.5969
L55.8264 5.5364
" />
<path d="M55.8264 5.5364
L55.9549 5.4760
" />
<path d="M55.9549 5.4760
L56.1364 5.4760
" />
<path d="M56.1364 5.4760
L56.2498 5.5364
" />
<path d="M56.2498 5.5364
L56.2951 5.6574
" />
<path d="M56.2951 5.6574
L56.2120 6.3226
" />
<path d="M56.2951 5.6574
L56.3707 5.5364
" />
<path d="M56.3707 5.5364
L56.4992 5.4760
" />
<path d="M56.4992 5.4760
L56.6806 5.4760
" />
<path d="M56.6806 5.4760
L56.7940 5.5364
" />
<path d="M56.7940 5.5364
L56.8394 5.6574
" />
<path d="M56.8394 5.6574
L56.7562 6.3226
" />
<path d="M57.0435 6.4436
L58.0111 6.4436
" />
<path d="M58.4117 5.6574
L58.8351 5.6574
" />
<path d="M58.9333 6.3226
L58.3286 6.3226
" />
<path d="M58.3286 6.3226
L58.4873 5.0526
" />
<path d="M58.4873 5.0526
L59.0921 5.0526
" />
<path d="M59.4776 6.3226
L59.6363 5.0526
" />
<path d="M59.6363 5.0526
L60.1201 5.0526
" />
<path d="M60.1201 5.0526
L60.2335 5.1131
" />
<path d="M60.2335 5.1131
L60.2864 5.1736
" />
<path d="M60.2864 5.1736
L60.3318 5.2945
" />
<path d="M60.3318 5.2945
L60.3091 5.4760
" />
<path d="M60.3091 5.4760
L60.2335 5.5969
" />
<path d="M60.2335 5.5969
L60.1655 5.6574
" />
<path d="M60.1655 5.6574
L60.0370 5.7179
" />
<path d="M60.0370 5.7179
L59.5532 5.7179
" />
<path d="M61.3977 5.4760
L61.2919 6.3226
" />
<path d="M61.1558 4.9922
L60.7400 5.8993
" />
<path d="M60.7400 5.8993
L61.5262 5.8993
" />
<path d="M61.9722 6.2017
L62.0251 6.2622
" />
<path d="M62.0251 6.2622
L61.9571 6.3226
" />
<path d="M61.9571 6.3226
L61.9042 6.2622
" />
<path d="M61.9042 6.2622
L61.9722 6.2017
" />
<path d="M61.9722 6.2017
L61.9571 6.3226
" />
<path d="M62.5997 5.0526
L63.4463 5.0526
" />
<path d="M63.4463 5.0526
L62.7433 6.3226
" />
<path d="M63.6504 6.3226
L64.4215 5.4760
" />
<path d="M63.7563 5.4760
L64.3157 6.3226
" />
<path d="M65.4496 5.4760
L65.3438 6.3226
" />
<path d="M65.2077 4.9922
L64.7919 5.8993
" />
<path d="M64.7919 5.8993
L65.5781 5.8993
" />
<path d="M66.0241 6.2017
L66.0770 6.2622
" />
<path d="M66.0770 6.2622
L66.0090 6.3226
" />
<path d="M66.0090 6.3226
L65.9561 6.2622
" />
<path d="M65.9561 6.2622
L66.0241 6.2017
" />
<path d="M66.0241 6.2017
L66.0090 6.3226
" />
<path d="M66.6516 5.0526
L67.4982 5.0526
" />
<path d="M67.4982 5.0526
L66.7952 6.3226
" />
<path d="M67.8233 6.3226
L67.9291 5.4760
" />
<path d="M67.9140 5.5969
L67.9820 5.5364
" />
<path d="M67.9820 5.5364
L68.1105 5.4760
" />
<path d="M68.1105 5.4760
L68.2920 5.4760
" />
<path d="M68.2920 5.4760
L68.4054 5.5364
" />
<path d="M68.4054 5.5364
L68.4507 5.6574
" />
<path d="M68.4507 5.6574
L68.3676 6.3226
" />
<path d="M68.4507 5.6574
L68.5263 5.5364
" />
<path d="M68.5263 5.5364
L68.6548 5.4760
" />
<path d="M68.6548 5.4760
L68.8362 5.4760
" />
<path d="M68.8362 5.4760
L68.9496 5.5364
" />
<path d="M68.9496 5.5364
L68.9950 5.6574
" />
<path d="M68.9950 5.6574
L68.9118 6.3226
" />
<path d="M69.5166 6.3226
L69.6224 5.4760
" />
<path d="M69.6073 5.5969
L69.6753 5.5364
" />
<path d="M69.6753 5.5364
L69.8038 5.4760
" />
<path d="M69.8038 5.4760
L69.9853 5.4760
" />
<path d="M69.9853 5.4760
L70.0987 5.5364
" />
<path d="M70.0987 5.5364
L70.1440 5.6574
" />
<path d="M70.1440 5.6574
L70.0609 6.3226
" />
<path d="M70.1440 5.6574
L70.2196 5.5364
" />
<path d="M70.2196 5.5364
L70.3481 5.4760
" />
<path d="M70.3481 5.4760
L70.5295 5.4760
" />
<path d="M70.5295 5.4760
L70.6429 5.5364
" />
<path d="M70.6429 5.5364
L70.6883 5.6574
" />
<path d="M70.6883 5.6574
L70.6051 6.3226
" />
</g><text x="40.2651" y="6.3784"
textLength="67.1086" font-size="1.6933" lengthAdjust="spacingAndGlyphs"
text-anchor="middle" opacity="0">http://ww1.microchip.com/downloads/en/DeviceDoc/60001507E.pdf</text>
<g class="stroked-text"><desc>http://ww1.microchip.com/downloads/en/DeviceDoc/60001507E.pdf</desc>
<path d="M7.1243 6.3226
L7.1243 5.0526
" />
<path d="M7.6686 6.3226
L7.6686 5.6574
" />
<path d="M7.6686 5.6574
L7.6081 5.5364
" />
<path d="M7.6081 5.5364
L7.4872 5.4760
" />
<path d="M7.4872 5.4760
L7.3058 5.4760
" />
<path d="M7.3058 5.4760
L7.1848 5.5364
" />
<path d="M7.1848 5.5364
L7.1243 5.5969
" />
<path d="M8.0919 5.4760
L8.5757 5.4760
" />
<path d="M8.2733 5.0526
L8.2733 6.1412
" />
<path d="M8.2733 6.1412
L8.3338 6.2622
" />
<path d="M8.3338 6.2622
L8.4548 6.3226
" />
<path d="M8.4548 6.3226
L8.5757 6.3226
" />
<path d="M8.8176 5.4760
L9.3014 5.4760
" />
<path d="M8.9990 5.0526
L8.9990 6.1412
" />
<path d="M8.9990 6.1412
L9.0595 6.2622
" />
<path d="M9.0595 6.2622
L9.1805 6.3226
" />
<path d="M9.1805 6.3226
L9.3014 6.3226
" />
<path d="M9.7247 5.4760
L9.7247 6.7460
" />
<path d="M9.7247 5.5364
L9.8457 5.4760
" />
<path d="M9.8457 5.4760
L10.0876 5.4760
" />
<path d="M10.0876 5.4760
L10.2085 5.5364
" />
<path d="M10.2085 5.5364
L10.2690 5.5969
" />
<path d="M10.2690 5.5969
L10.3295 5.7179
" />
<path d="M10.3295 5.7179
L10.3295 6.0807
" />
<path d="M10.3295 6.0807
L10.2690 6.2017
" />
<path d="M10.2690 6.2017
L10.2085 6.2622
" />
<path d="M10.2085 6.2622
L10.0876 6.3226
" />
<path d="M10.0876 6.3226
L9.8457 6.3226
" />
<path d="M9.8457 6.3226
L9.7247 6.2622
" />
<path d="M10.8737 6.2017
L10.9342 6.2622
" />
<path d="M10.9342 6.2622
L10.8737 6.3226
" />
<path d="M10.8737 6.3226
L10.8133 6.2622
" />
<path d="M10.8133 6.2622
L10.8737 6.2017
" />
<path d="M10.8737 6.2017
L10.8737 6.3226
" />
<path d="M10.8737 5.5364
L10.9342 5.5969
" />
<path d="M10.9342 5.5969
L10.8737 5.6574
" />
<path d="M10.8737 5.6574
L10.8133 5.5969
" />
<path d="M10.8133 5.5969
L10.8737 5.5364
" />
<path d="M10.8737 5.5364
L10.8737 5.6574
" />
<path d="M12.3857 4.9922
L11.2971 6.6250
" />
<path d="M13.7162 4.9922
L12.6276 6.6250
" />
<path d="M14.0186 5.4760
L14.2605 6.3226
" />
<path d="M14.2605 6.3226
L14.5024 5.7179
" />
<path d="M14.5024 5.7179
L14.7443 6.3226
" />
<path d="M14.7443 6.3226
L14.9862 5.4760
" />
<path d="M15.3491 5.4760
L15.5910 6.3226
" />
<path d="M15.5910 6.3226
L15.8329 5.7179
" />
<path d="M15.8329 5.7179
L16.0748 6.3226
" />
<path d="M16.0748 6.3226
L16.3167 5.4760
" />
<path d="M17.4658 6.3226
L16.7401 6.3226
" />
<path d="M17.1029 6.3226
L17.1029 5.0526
" />
<path d="M17.1029 5.0526
L16.9820 5.2341
" />
<path d="M16.9820 5.2341
L16.8610 5.3550
" />
<path d="M16.8610 5.3550
L16.7401 5.4155
" />
<path d="M18.0100 6.2017
L18.0705 6.2622
" />
<path d="M18.0705 6.2622
L18.0100 6.3226
" />
<path d="M18.0100 6.3226
L17.9496 6.2622
" />
<path d="M17.9496 6.2622
L18.0100 6.2017
" />
<path d="M18.0100 6.2017
L18.0100 6.3226
" />
<path d="M18.6148 6.3226
L18.6148 5.4760
" />
<path d="M18.6148 5.5969
L18.6753 5.5364
" />
<path d="M18.6753 5.5364
L18.7963 5.4760
" />
<path d="M18.7963 5.4760
L18.9777 5.4760
" />
<path d="M18.9777 5.4760
L19.0986 5.5364
" />
<path d="M19.0986 5.5364
L19.1591 5.6574
" />
<path d="M19.1591 5.6574
L19.1591 6.3226
" />
<path d="M19.1591 5.6574
L19.2196 5.5364
" />
<path d="M19.2196 5.5364
L19.3405 5.4760
" />
<path d="M19.3405 5.4760
L19.5220 5.4760
" />
<path d="M19.5220 5.4760
L19.6429 5.5364
" />
<path d="M19.6429 5.5364
L19.7034 5.6574
" />
<path d="M19.7034 5.6574
L19.7034 6.3226
" />
<path d="M20.3081 6.3226
L20.3081 5.4760
" />
<path d="M20.3081 5.0526
L20.2477 5.1131
" />
<path d="M20.2477 5.1131
L20.3081 5.1736
" />
<path d="M20.3081 5.1736
L20.3686 5.1131
" />
<path d="M20.3686 5.1131
L20.3081 5.0526
" />
<path d="M20.3081 5.0526
L20.3081 5.1736
" />
<path d="M21.4572 6.2622
L21.3363 6.3226
" />
<path d="M21.3363 6.3226
L21.0944 6.3226
" />
<path d="M21.0944 6.3226
L20.9734 6.2622
" />
<path d="M20.9734 6.2622
L20.9129 6.2017
" />
<path d="M20.9129 6.2017
L20.8525 6.0807
" />
<path d="M20.8525 6.0807
L20.8525 5.7179
" />
<path d="M20.8525 5.7179
L20.9129 5.5969
" />
<path d="M20.9129 5.5969
L20.9734 5.5364
" />
<path d="M20.9734 5.5364
L21.0944 5.4760
" />
<path d="M21.0944 5.4760
L21.3363 5.4760
" />
<path d="M21.3363 5.4760
L21.4572 5.5364
" />
<path d="M22.0015 6.3226
L22.0015 5.4760
" />
<path d="M22.0015 5.7179
L22.0620 5.5969
" />
<path d="M22.0620 5.5969
L22.1225 5.5364
" />
<path d="M22.1225 5.5364
L22.2434 5.4760
" />
<path d="M22.2434 5.4760
L22.3644 5.4760
" />
<path d="M22.9692 6.3226
L22.8482 6.2622
" />
<path d="M22.8482 6.2622
L22.7877 6.2017
" />
<path d="M22.7877 6.2017
L22.7273 6.0807
" />
<path d="M22.7273 6.0807
L22.7273 5.7179
" />
<path d="M22.7273 5.7179
L22.7877 5.5969
" />
<path d="M22.7877 5.5969
L22.8482 5.5364
" />
<path d="M22.8482 5.5364
L22.9692 5.4760
" />
<path d="M22.9692 5.4760
L23.1506 5.4760
" />
<path d="M23.1506 5.4760
L23.2715 5.5364
" />
<path d="M23.2715 5.5364
L23.3320 5.5969
" />
<path d="M23.3320 5.5969
L23.3925 5.7179
" />
<path d="M23.3925 5.7179
L23.3925 6.0807
" />
<path d="M23.3925 6.0807
L23.3320 6.2017
" />
<path d="M23.3320 6.2017
L23.2715 6.2622
" />
<path d="M23.2715 6.2622
L23.1506 6.3226
" />
<path d="M23.1506 6.3226
L22.9692 6.3226
" />
<path d="M24.4810 6.2622
L24.3601 6.3226
" />
<path d="M24.3601 6.3226
L24.1182 6.3226
" />
<path d="M24.1182 6.3226
L23.9972 6.2622
" />
<path d="M23.9972 6.2622
L23.9367 6.2017
" />
<path d="M23.9367 6.2017
L23.8763 6.0807
" />
<path d="M23.8763 6.0807
L23.8763 5.7179
" />
<path d="M23.8763 5.7179
L23.9367 5.5969
" />
<path d="M23.9367 5.5969
L23.9972 5.5364
" />
<path d="M23.9972 5.5364
L24.1182 5.4760
" />
<path d="M24.1182 5.4760
L24.3601 5.4760
" />
<path d="M24.3601 5.4760
L24.4810 5.5364
" />
<path d="M25.0253 6.3226
L25.0253 5.0526
" />
<path d="M25.5696 6.3226
L25.5696 5.6574
" />
<path d="M25.5696 5.6574
L25.5091 5.5364
" />
<path d="M25.5091 5.5364
L25.3882 5.4760
" />
<path d="M25.3882 5.4760
L25.2068 5.4760
" />
<path d="M25.2068 5.4760
L25.0858 5.5364
" />
<path d="M25.0858 5.5364
L25.0253 5.5969
" />
<path d="M26.1743 6.3226
L26.1743 5.4760
" />
<path d="M26.1743 5.0526
L26.1139 5.1131
" />
<path d="M26.1139 5.1131
L26.1743 5.1736
" />
<path d="M26.1743 5.1736
L26.2348 5.1131
" />
<path d="M26.2348 5.1131
L26.1743 5.0526
" />
<path d="M26.1743 5.0526
L26.1743 5.1736
" />
<path d="M26.7791 5.4760
L26.7791 6.7460
" />
<path d="M26.7791 5.5364
L26.9001 5.4760
" />
<path d="M26.9001 5.4760
L27.1420 5.4760
" />
<path d="M27.1420 5.4760
L27.2629 5.5364
" />
<path d="M27.2629 5.5364
L27.3234 5.5969
" />
<path d="M27.3234 5.5969
L27.3839 5.7179
" />
<path d="M27.3839 5.7179
L27.3839 6.0807
" />
<path d="M27.3839 6.0807
L27.3234 6.2017
" />
<path d="M27.3234 6.2017
L27.2629 6.2622
" />
<path d="M27.2629 6.2622
L27.1420 6.3226
" />
<path d="M27.1420 6.3226
L26.9001 6.3226
" />
<path d="M26.9001 6.3226
L26.7791 6.2622
" />
<path d="M27.9281 6.2017
L27.9886 6.2622
" />
<path d="M27.9886 6.2622
L27.9281 6.3226
" />
<path d="M27.9281 6.3226
L27.8677 6.2622
" />
<path d="M27.8677 6.2622
L27.9281 6.2017
" />
<path d="M27.9281 6.2017
L27.9281 6.3226
" />
<path d="M29.0772 6.2622
L28.9563 6.3226
" />
<path d="M28.9563 6.3226
L28.7144 6.3226
" />
<path d="M28.7144 6.3226
L28.5934 6.2622
" />
<path d="M28.5934 6.2622
L28.5329 6.2017
" />
<path d="M28.5329 6.2017
L28.4725 6.0807
" />
<path d="M28.4725 6.0807
L28.4725 5.7179
" />
<path d="M28.4725 5.7179
L28.5329 5.5969
" />
<path d="M28.5329 5.5969
L28.5934 5.5364
" />
<path d="M28.5934 5.5364
L28.7144 5.4760
" />
<path d="M28.7144 5.4760
L28.9563 5.4760
" />
<path d="M28.9563 5.4760
L29.0772 5.5364
" />
<path d="M29.8030 6.3226
L29.6820 6.2622
" />
<path d="M29.6820 6.2622
L29.6215 6.2017
" />
<path d="M29.6215 6.2017
L29.5611 6.0807
" />
<path d="M29.5611 6.0807
L29.5611 5.7179
" />
<path d="M29.5611 5.7179
L29.6215 5.5969
" />
<path d="M29.6215 5.5969
L29.6820 5.5364
" />
<path d="M29.6820 5.5364
L29.8030 5.4760
" />
<path d="M29.8030 5.4760
L29.9844 5.4760
" />
<path d="M29.9844 5.4760
L30.1053 5.5364
" />
<path d="M30.1053 5.5364
L30.1658 5.5969
" />
<path d="M30.1658 5.5969
L30.2263 5.7179
" />
<path d="M30.2263 5.7179
L30.2263 6.0807
" />
<path d="M30.2263 6.0807
L30.1658 6.2017
" />
<path d="M30.1658 6.2017
L30.1053 6.2622
" />
<path d="M30.1053 6.2622
L29.9844 6.3226
" />
<path d="M29.9844 6.3226
L29.8030 6.3226
" />
<path d="M30.7705 6.3226
L30.7705 5.4760
" />
<path d="M30.7705 5.5969
L30.8310 5.5364
" />
<path d="M30.8310 5.5364
L30.9520 5.4760
" />
<path d="M30.9520 5.4760
L31.1334 5.4760
" />
<path d="M31.1334 5.4760
L31.2543 5.5364
" />
<path d="M31.2543 5.5364
L31.3148 5.6574
" />
<path d="M31.3148 5.6574
L31.3148 6.3226
" />
<path d="M31.3148 5.6574
L31.3753 5.5364
" />
<path d="M31.3753 5.5364
L31.4962 5.4760
" />
<path d="M31.4962 5.4760
L31.6777 5.4760
" />
<path d="M31.6777 5.4760
L31.7986 5.5364
" />
<path d="M31.7986 5.5364
L31.8591 5.6574
" />
<path d="M31.8591 5.6574
L31.8591 6.3226
" />
<path d="M33.3710 4.9922
L32.2824 6.6250
" />
<path d="M34.3386 6.3226
L34.3386 5.0526
" />
<path d="M34.3386 6.2622
L34.2177 6.3226
" />
<path d="M34.2177 6.3226
L33.9758 6.3226
" />
<path d="M33.9758 6.3226
L33.8548 6.2622
" />
<path d="M33.8548 6.2622
L33.7943 6.2017
" />
<path d="M33.7943 6.2017
L33.7339 6.0807
" />
<path d="M33.7339 6.0807
L33.7339 5.7179
" />
<path d="M33.7339 5.7179
L33.7943 5.5969
" />
<path d="M33.7943 5.5969
L33.8548 5.5364
" />
<path d="M33.8548 5.5364
L33.9758 5.4760
" />
<path d="M33.9758 5.4760
L34.2177 5.4760
" />
<path d="M34.2177 5.4760
L34.3386 5.5364
" />
<path d="M35.1248 6.3226
L35.0038 6.2622
" />
<path d="M35.0038 6.2622
L34.9433 6.2017
" />
<path d="M34.9433 6.2017
L34.8829 6.0807
" />
<path d="M34.8829 6.0807
L34.8829 5.7179
" />
<path d="M34.8829 5.7179
L34.9433 5.5969
" />
<path d="M34.9433 5.5969
L35.0038 5.5364
" />
<path d="M35.0038 5.5364
L35.1248 5.4760
" />
<path d="M35.1248 5.4760
L35.3062 5.4760
" />
<path d="M35.3062 5.4760
L35.4271 5.5364
" />
<path d="M35.4271 5.5364
L35.4876 5.5969
" />
<path d="M35.4876 5.5969
L35.5481 5.7179
" />
<path d="M35.5481 5.7179
L35.5481 6.0807
" />
<path d="M35.5481 6.0807
L35.4876 6.2017
" />
<path d="M35.4876 6.2017
L35.4271 6.2622
" />
<path d="M35.4271 6.2622
L35.3062 6.3226
" />
<path d="M35.3062 6.3226
L35.1248 6.3226
" />
<path d="M35.9714 5.4760
L36.2133 6.3226
" />
<path d="M36.2133 6.3226
L36.4552 5.7179
" />
<path d="M36.4552 5.7179
L36.6971 6.3226
" />
<path d="M36.6971 6.3226
L36.9390 5.4760
" />
<path d="M37.4228 5.4760
L37.4228 6.3226
" />
<path d="M37.4228 5.5969
L37.4833 5.5364
" />
<path d="M37.4833 5.5364
L37.6043 5.4760
" />
<path d="M37.6043 5.4760
L37.7857 5.4760
" />
<path d="M37.7857 5.4760
L37.9066 5.5364
" />
<path d="M37.9066 5.5364
L37.9671 5.6574
" />
<path d="M37.9671 5.6574
L37.9671 6.3226
" />
<path d="M38.7533 6.3226
L38.6323 6.2622
" />
<path d="M38.6323 6.2622
L38.5718 6.1412
" />
<path d="M38.5718 6.1412
L38.5718 5.0526
" />
<path d="M39.4185 6.3226
L39.2975 6.2622
" />
<path d="M39.2975 6.2622
L39.2370 6.2017
" />
<path d="M39.2370 6.2017
L39.1766 6.0807
" />
<path d="M39.1766 6.0807
L39.1766 5.7179
" />
<path d="M39.1766 5.7179
L39.2370 5.5969
" />
<path d="M39.2370 5.5969
L39.2975 5.5364
" />
<path d="M39.2975 5.5364
L39.4185 5.4760
" />
<path d="M39.4185 5.4760
L39.5999 5.4760
" />
<path d="M39.5999 5.4760
L39.7208 5.5364
" />
<path d="M39.7208 5.5364
L39.7813 5.5969
" />
<path d="M39.7813 5.5969
L39.8418 5.7179
" />
<path d="M39.8418 5.7179
L39.8418 6.0807
" />
<path d="M39.8418 6.0807
L39.7813 6.2017
" />
<path d="M39.7813 6.2017
L39.7208 6.2622
" />
<path d="M39.7208 6.2622
L39.5999 6.3226
" />
<path d="M39.5999 6.3226
L39.4185 6.3226
" />
<path d="M40.9303 6.3226
L40.9303 5.6574
" />
<path d="M40.9303 5.6574
L40.8698 5.5364
" />
<path d="M40.8698 5.5364
L40.7489 5.4760
" />
<path d="M40.7489 5.4760
L40.5070 5.4760
" />
<path d="M40.5070 5.4760
L40.3860 5.5364
" />
<path d="M40.9303 6.2622
L40.8094 6.3226
" />
<path d="M40.8094 6.3226
L40.5070 6.3226
" />
<path d="M40.5070 6.3226
L40.3860 6.2622
" />
<path d="M40.3860 6.2622
L40.3256 6.1412
" />
<path d="M40.3256 6.1412
L40.3256 6.0202
" />
<path d="M40.3256 6.0202
L40.3860 5.8993
" />
<path d="M40.3860 5.8993
L40.5070 5.8388
" />
<path d="M40.5070 5.8388
L40.8094 5.8388
" />
<path d="M40.8094 5.8388
L40.9303 5.7783
" />
<path d="M42.0793 6.3226
L42.0793 5.0526
" />
<path d="M42.0793 6.2622
L41.9584 6.3226
" />
<path d="M41.9584 6.3226
L41.7165 6.3226
" />
<path d="M41.7165 6.3226
L41.5955 6.2622
" />
<path d="M41.5955 6.2622
L41.5350 6.2017
" />
<path d="M41.5350 6.2017
L41.4746 6.0807
" />
<path d="M41.4746 6.0807
L41.4746 5.7179
" />
<path d="M41.4746 5.7179
L41.5350 5.5969
" />
<path d="M41.5350 5.5969
L41.5955 5.5364
" />
<path d="M41.5955 5.5364
L41.7165 5.4760
" />
<path d="M41.7165 5.4760
L41.9584 5.4760
" />
<path d="M41.9584 5.4760
L42.0793 5.5364
" />
<path d="M42.6236 6.2622
L42.7445 6.3226
" />
<path d="M42.7445 6.3226
L42.9864 6.3226
" />
<path d="M42.9864 6.3226
L43.1074 6.2622
" />
<path d="M43.1074 6.2622
L43.1678 6.1412
" />
<path d="M43.1678 6.1412
L43.1678 6.0807
" />
<path d="M43.1678 6.0807
L43.1074 5.9598
" />
<path d="M43.1074 5.9598
L42.9864 5.8993
" />
<path d="M42.9864 5.8993
L42.8050 5.8993
" />
<path d="M42.8050 5.8993
L42.6840 5.8388
" />
<path d="M42.6840 5.8388
L42.6236 5.7179
" />
<path d="M42.6236 5.7179
L42.6236 5.6574
" />
<path d="M42.6236 5.6574
L42.6840 5.5364
" />
<path d="M42.6840 5.5364
L42.8050 5.4760
" />
<path d="M42.8050 5.4760
L42.9864 5.4760
" />
<path d="M42.9864 5.4760
L43.1074 5.5364
" />
<path d="M44.6193 4.9922
L43.5307 6.6250
" />
<path d="M45.5264 6.2622
L45.4055 6.3226
" />
<path d="M45.4055 6.3226
L45.1636 6.3226
" />
<path d="M45.1636 6.3226
L45.0426 6.2622
" />
<path d="M45.0426 6.2622
L44.9822 6.1412
" />
<path d="M44.9822 6.1412
L44.9822 5.6574
" />
<path d="M44.9822 5.6574
L45.0426 5.5364
" />
<path d="M45.0426 5.5364
L45.1636 5.4760
" />
<path d="M45.1636 5.4760
L45.4055 5.4760
" />
<path d="M45.4055 5.4760
L45.5264 5.5364
" />
<path d="M45.5264 5.5364
L45.5869 5.6574
" />
<path d="M45.5869 5.6574
L45.5869 5.7783
" />
<path d="M45.5869 5.7783
L44.9822 5.8993
" />
<path d="M46.1312 5.4760
L46.1312 6.3226
" />
<path d="M46.1312 5.5969
L46.1917 5.5364
" />
<path d="M46.1917 5.5364
L46.3127 5.4760
" />
<path d="M46.3127 5.4760
L46.4941 5.4760
" />
<path d="M46.4941 5.4760
L46.6150 5.5364
" />
<path d="M46.6150 5.5364
L46.6755 5.6574
" />
<path d="M46.6755 5.6574
L46.6755 6.3226
" />
<path d="M48.1874 4.9922
L47.0988 6.6250
" />
<path d="M48.6107 6.3226
L48.6107 5.0526
" />
<path d="M48.6107 5.0526
L48.9131 5.0526
" />
<path d="M48.9131 5.0526
L49.0945 5.1131
" />
<path d="M49.0945 5.1131
L49.2155 5.2341
" />
<path d="M49.2155 5.2341
L49.2760 5.3550
" />
<path d="M49.2760 5.3550
L49.3364 5.5969
" />
<path d="M49.3364 5.5969
L49.3364 5.7783
" />
<path d="M49.3364 5.7783
L49.2760 6.0202
" />
<path d="M49.2760 6.0202
L49.2155 6.1412
" />
<path d="M49.2155 6.1412
L49.0945 6.2622
" />
<path d="M49.0945 6.2622
L48.9131 6.3226
" />
<path d="M48.9131 6.3226
L48.6107 6.3226
" />
<path d="M50.3645 6.2622
L50.2436 6.3226
" />
<path d="M50.2436 6.3226
L50.0017 6.3226
" />
<path d="M50.0017 6.3226
L49.8807 6.2622
" />
<path d="M49.8807 6.2622
L49.8203 6.1412
" />
<path d="M49.8203 6.1412
L49.8203 5.6574
" />
<path d="M49.8203 5.6574
L49.8807 5.5364
" />
<path d="M49.8807 5.5364
L50.0017 5.4760
" />
<path d="M50.0017 5.4760
L50.2436 5.4760
" />
<path d="M50.2436 5.4760
L50.3645 5.5364
" />
<path d="M50.3645 5.5364
L50.4250 5.6574
" />
<path d="M50.4250 5.6574
L50.4250 5.7783
" />
<path d="M50.4250 5.7783
L49.8203 5.8993
" />
<path d="M50.8484 5.4760
L51.1508 6.3226
" />
<path d="M51.1508 6.3226
L51.4531 5.4760
" />
<path d="M51.9369 6.3226
L51.9369 5.4760
" />
<path d="M51.9369 5.0526
L51.8765 5.1131
" />
<path d="M51.8765 5.1131
L51.9369 5.1736
" />
<path d="M51.9369 5.1736
L51.9974 5.1131
" />
<path d="M51.9974 5.1131
L51.9369 5.0526
" />
<path d="M51.9369 5.0526
L51.9369 5.1736
" />
<path d="M53.0860 6.2622
L52.9651 6.3226
" />
<path d="M52.9651 6.3226
L52.7232 6.3226
" />
<path d="M52.7232 6.3226
L52.6022 6.2622
" />
<path d="M52.6022 6.2622
L52.5417 6.2017
" />
<path d="M52.5417 6.2017
L52.4813 6.0807
" />
<path d="M52.4813 6.0807
L52.4813 5.7179
" />
<path d="M52.4813 5.7179
L52.5417 5.5969
" />
<path d="M52.5417 5.5969
L52.6022 5.5364
" />
<path d="M52.6022 5.5364
L52.7232 5.4760
" />
<path d="M52.7232 5.4760
L52.9651 5.4760
" />
<path d="M52.9651 5.4760
L53.0860 5.5364
" />
<path d="M54.1141 6.2622
L53.9932 6.3226
" />
<path d="M53.9932 6.3226
L53.7513 6.3226
" />
<path d="M53.7513 6.3226
L53.6303 6.2622
" />
<path d="M53.6303 6.2622
L53.5699 6.1412
" />
<path d="M53.5699 6.1412
L53.5699 5.6574
" />
<path d="M53.5699 5.6574
L53.6303 5.5364
" />
<path d="M53.6303 5.5364
L53.7513 5.4760
" />
<path d="M53.7513 5.4760
L53.9932 5.4760
" />
<path d="M53.9932 5.4760
L54.1141 5.5364
" />
<path d="M54.1141 5.5364
L54.1746 5.6574
" />
<path d="M54.1746 5.6574
L54.1746 5.7783
" />
<path d="M54.1746 5.7783
L53.5699 5.8993
" />
<path d="M54.7189 6.3226
L54.7189 5.0526
" />
<path d="M54.7189 5.0526
L55.0213 5.0526
" />
<path d="M55.0213 5.0526
L55.2027 5.1131
" />
<path d="M55.2027 5.1131
L55.3237 5.2341
" />
<path d="M55.3237 5.2341
L55.3842 5.3550
" />
<path d="M55.3842 5.3550
L55.4446 5.5969
" />
<path d="M55.4446 5.5969
L55.4446 5.7783
" />
<path d="M55.4446 5.7783
L55.3842 6.0202
" />
<path d="M55.3842 6.0202
L55.3237 6.1412
" />
<path d="M55.3237 6.1412
L55.2027 6.2622
" />
<path d="M55.2027 6.2622
L55.0213 6.3226
" />
<path d="M55.0213 6.3226
L54.7189 6.3226
" />
<path d="M56.1704 6.3226
L56.0494 6.2622
" />
<path d="M56.0494 6.2622
L55.9889 6.2017
" />
<path d="M55.9889 6.2017
L55.9285 6.0807
" />
<path d="M55.9285 6.0807
L55.9285 5.7179
" />
<path d="M55.9285 5.7179
L55.9889 5.5969
" />
<path d="M55.9889 5.5969
L56.0494 5.5364
" />
<path d="M56.0494 5.5364
L56.1704 5.4760
" />
<path d="M56.1704 5.4760
L56.3518 5.4760
" />
<path d="M56.3518 5.4760
L56.4727 5.5364
" />
<path d="M56.4727 5.5364
L56.5332 5.5969
" />
<path d="M56.5332 5.5969
L56.5937 5.7179
" />
<path d="M56.5937 5.7179
L56.5937 6.0807
" />
<path d="M56.5937 6.0807
L56.5332 6.2017
" />
<path d="M56.5332 6.2017
L56.4727 6.2622
" />
<path d="M56.4727 6.2622
L56.3518 6.3226
" />
<path d="M56.3518 6.3226
L56.1704 6.3226
" />
<path d="M57.6822 6.2622
L57.5613 6.3226
" />
<path d="M57.5613 6.3226
L57.3194 6.3226
" />
<path d="M57.3194 6.3226
L57.1984 6.2622
" />
<path d="M57.1984 6.2622
L57.1379 6.2017
" />
<path d="M57.1379 6.2017
L57.0775 6.0807
" />
<path d="M57.0775 6.0807
L57.0775 5.7179
" />
<path d="M57.0775 5.7179
L57.1379 5.5969
" />
<path d="M57.1379 5.5969
L57.1984 5.5364
" />
<path d="M57.1984 5.5364
L57.3194 5.4760
" />
<path d="M57.3194 5.4760
L57.5613 5.4760
" />
<path d="M57.5613 5.4760
L57.6822 5.5364
" />
<path d="M59.1337 4.9922
L58.0451 6.6250
" />
<path d="M60.1013 5.0526
L59.8594 5.0526
" />
<path d="M59.8594 5.0526
L59.7385 5.1131
" />
<path d="M59.7385 5.1131
L59.6780 5.1736
" />
<path d="M59.6780 5.1736
L59.5570 5.3550
" />
<path d="M59.5570 5.3550
L59.4966 5.5969
" />
<path d="M59.4966 5.5969
L59.4966 6.0807
" />
<path d="M59.4966 6.0807
L59.5570 6.2017
" />
<path d="M59.5570 6.2017
L59.6175 6.2622
" />
<path d="M59.6175 6.2622
L59.7385 6.3226
" />
<path d="M59.7385 6.3226
L59.9804 6.3226
" />
<path d="M59.9804 6.3226
L60.1013 6.2622
" />
<path d="M60.1013 6.2622
L60.1618 6.2017
" />
<path d="M60.1618 6.2017
L60.2223 6.0807
" />
<path d="M60.2223 6.0807
L60.2223 5.7783
" />
<path d="M60.2223 5.7783
L60.1618 5.6574
" />
<path d="M60.1618 5.6574
L60.1013 5.5969
" />
<path d="M60.1013 5.5969
L59.9804 5.5364
" />
<path d="M59.9804 5.5364
L59.7385 5.5364
" />
<path d="M59.7385 5.5364
L59.6175 5.5969
" />
<path d="M59.6175 5.5969
L59.5570 5.6574
" />
<path d="M59.5570 5.6574
L59.4966 5.7783
" />
<path d="M61.0084 5.0526
L61.1294 5.0526
" />
<path d="M61.1294 5.0526
L61.2503 5.1131
" />
<path d="M61.2503 5.1131
L61.3108 5.1736
" />
<path d="M61.3108 5.1736
L61.3713 5.2945
" />
<path d="M61.3713 5.2945
L61.4318 5.5364
" />
<path d="M61.4318 5.5364
L61.4318 5.8388
" />
<path d="M61.4318 5.8388
L61.3713 6.0807
" />
<path d="M61.3713 6.0807
L61.3108 6.2017
" />
<path d="M61.3108 6.2017
L61.2503 6.2622
" />
<path d="M61.2503 6.2622
L61.1294 6.3226
" />
<path d="M61.1294 6.3226
L61.0084 6.3226
" />
<path d="M61.0084 6.3226
L60.8875 6.2622
" />
<path d="M60.8875 6.2622
L60.8270 6.2017
" />
<path d="M60.8270 6.2017
L60.7665 6.0807
" />
<path d="M60.7665 6.0807
L60.7061 5.8388
" />
<path d="M60.7061 5.8388
L60.7061 5.5364
" />
<path d="M60.7061 5.5364
L60.7665 5.2945
" />
<path d="M60.7665 5.2945
L60.8270 5.1736
" />
<path d="M60.8270 5.1736
L60.8875 5.1131
" />
<path d="M60.8875 5.1131
L61.0084 5.0526
" />
<path d="M62.2179 5.0526
L62.3389 5.0526
" />
<path d="M62.3389 5.0526
L62.4598 5.1131
" />
<path d="M62.4598 5.1131
L62.5203 5.1736
" />
<path d="M62.5203 5.1736
L62.5808 5.2945
" />
<path d="M62.5808 5.2945
L62.6413 5.5364
" />
<path d="M62.6413 5.5364
L62.6413 5.8388
" />
<path d="M62.6413 5.8388
L62.5808 6.0807
" />
<path d="M62.5808 6.0807
L62.5203 6.2017
" />
<path d="M62.5203 6.2017
L62.4598 6.2622
" />
<path d="M62.4598 6.2622
L62.3389 6.3226
" />
<path d="M62.3389 6.3226
L62.2179 6.3226
" />
<path d="M62.2179 6.3226
L62.0970 6.2622
" />
<path d="M62.0970 6.2622
L62.0365 6.2017
" />
<path d="M62.0365 6.2017
L61.9760 6.0807
" />
<path d="M61.9760 6.0807
L61.9156 5.8388
" />
<path d="M61.9156 5.8388
L61.9156 5.5364
" />
<path d="M61.9156 5.5364
L61.9760 5.2945
" />
<path d="M61.9760 5.2945
L62.0365 5.1736
" />
<path d="M62.0365 5.1736
L62.0970 5.1131
" />
<path d="M62.0970 5.1131
L62.2179 5.0526
" />
<path d="M63.4274 5.0526
L63.5484 5.0526
" />
<path d="M63.5484 5.0526
L63.6693 5.1131
" />
<path d="M63.6693 5.1131
L63.7298 5.1736
" />
<path d="M63.7298 5.1736
L63.7903 5.2945
" />
<path d="M63.7903 5.2945
L63.8508 5.5364
" />
<path d="M63.8508 5.5364
L63.8508 5.8388
" />
<path d="M63.8508 5.8388
L63.7903 6.0807
" />
<path d="M63.7903 6.0807
L63.7298 6.2017
" />
<path d="M63.7298 6.2017
L63.6693 6.2622
" />
<path d="M63.6693 6.2622
L63.5484 6.3226
" />
<path d="M63.5484 6.3226
L63.4274 6.3226
" />
<path d="M63.4274 6.3226
L63.3065 6.2622
" />
<path d="M63.3065 6.2622
L63.2460 6.2017
" />
<path d="M63.2460 6.2017
L63.1855 6.0807
" />
<path d="M63.1855 6.0807
L63.1251 5.8388
" />
<path d="M63.1251 5.8388
L63.1251 5.5364
" />
<path d="M63.1251 5.5364
L63.1855 5.2945
" />
<path d="M63.1855 5.2945
L63.2460 5.1736
" />
<path d="M63.2460 5.1736
L63.3065 5.1131
" />
<path d="M63.3065 5.1131
L63.4274 5.0526
" />
<path d="M65.0603 6.3226
L64.3346 6.3226
" />
<path d="M64.6974 6.3226
L64.6974 5.0526
" />
<path d="M64.6974 5.0526
L64.5765 5.2341
" />
<path d="M64.5765 5.2341
L64.4555 5.3550
" />
<path d="M64.4555 5.3550
L64.3346 5.4155
" />
<path d="M66.2093 5.0526
L65.6045 5.0526
" />
<path d="M65.6045 5.0526
L65.5441 5.6574
" />
<path d="M65.5441 5.6574
L65.6045 5.5969
" />
<path d="M65.6045 5.5969
L65.7255 5.5364
" />
<path d="M65.7255 5.5364
L66.0279 5.5364
" />
<path d="M66.0279 5.5364
L66.1488 5.5969
" />
<path d="M66.1488 5.5969
L66.2093 5.6574
" />
<path d="M66.2093 5.6574
L66.2698 5.7783
" />
<path d="M66.2698 5.7783
L66.2698 6.0807
" />
<path d="M66.2698 6.0807
L66.2093 6.2017
" />
<path d="M66.2093 6.2017
L66.1488 6.2622
" />
<path d="M66.1488 6.2622
L66.0279 6.3226
" />
<path d="M66.0279 6.3226
L65.7255 6.3226
" />
<path d="M65.7255 6.3226
L65.6045 6.2622
" />
<path d="M65.6045 6.2622
L65.5441 6.2017
" />
<path d="M67.0559 5.0526
L67.1769 5.0526
" />
<path d="M67.1769 5.0526
L67.2978 5.1131
" />
<path d="M67.2978 5.1131
L67.3583 5.1736
" />
<path d="M67.3583 5.1736
L67.4188 5.2945
" />
<path d="M67.4188 5.2945
L67.4793 5.5364
" />
<path d="M67.4793 5.5364
L67.4793 5.8388
" />
<path d="M67.4793 5.8388
L67.4188 6.0807
" />
<path d="M67.4188 6.0807
L67.3583 6.2017
" />
<path d="M67.3583 6.2017
L67.2978 6.2622
" />
<path d="M67.2978 6.2622
L67.1769 6.3226
" />
<path d="M67.1769 6.3226
L67.0559 6.3226
" />
<path d="M67.0559 6.3226
L66.9350 6.2622
" />
<path d="M66.9350 6.2622
L66.8745 6.2017
" />
<path d="M66.8745 6.2017
L66.8140 6.0807
" />
<path d="M66.8140 6.0807
L66.7536 5.8388
" />
<path d="M66.7536 5.8388
L66.7536 5.5364
" />
<path d="M66.7536 5.5364
L66.8140 5.2945
" />
<path d="M66.8140 5.2945
L66.8745 5.1736
" />
<path d="M66.8745 5.1736
L66.9350 5.1131
" />
<path d="M66.9350 5.1131
L67.0559 5.0526
" />
<path d="M67.9026 5.0526
L68.7492 5.0526
" />
<path d="M68.7492 5.0526
L68.2050 6.3226
" />
<path d="M69.2330 5.6574
L69.6564 5.6574
" />
<path d="M69.8378 6.3226
L69.2330 6.3226
" />
<path d="M69.2330 6.3226
L69.2330 5.0526
" />
<path d="M69.2330 5.0526
L69.8378 5.0526
" />
<path d="M70.3820 6.2017
L70.4425 6.2622
" />
<path d="M70.4425 6.2622
L70.3820 6.3226
" />
<path d="M70.3820 6.3226
L70.3216 6.2622
" />
<path d="M70.3216 6.2622
L70.3820 6.2017
" />
<path d="M70.3820 6.2017
L70.3820 6.3226
" />
<path d="M70.9868 5.4760
L70.9868 6.7460
" />
<path d="M70.9868 5.5364
L71.1078 5.4760
" />
<path d="M71.1078 5.4760
L71.3497 5.4760
" />
<path d="M71.3497 5.4760
L71.4706 5.5364
" />
<path d="M71.4706 5.5364
L71.5311 5.5969
" />
<path d="M71.5311 5.5969
L71.5916 5.7179
" />
<path d="M71.5916 5.7179
L71.5916 6.0807
" />
<path d="M71.5916 6.0807
L71.5311 6.2017
" />
<path d="M71.5311 6.2017
L71.4706 6.2622
" />
<path d="M71.4706 6.2622
L71.3497 6.3226
" />
<path d="M71.3497 6.3226
L71.1078 6.3226
" />
<path d="M71.1078 6.3226
L70.9868 6.2622
" />
<path d="M72.6801 6.3226
L72.6801 5.0526
" />
<path d="M72.6801 6.2622
L72.5592 6.3226
" />
<path d="M72.5592 6.3226
L72.3173 6.3226
" />
<path d="M72.3173 6.3226
L72.1963 6.2622
" />
<path d="M72.1963 6.2622
L72.1358 6.2017
" />
<path d="M72.1358 6.2017
L72.0754 6.0807
" />
<path d="M72.0754 6.0807
L72.0754 5.7179
" />
<path d="M72.0754 5.7179
L72.1358 5.5969
" />
<path d="M72.1358 5.5969
L72.1963 5.5364
" />
<path d="M72.1963 5.5364
L72.3173 5.4760
" />
<path d="M72.3173 5.4760
L72.5592 5.4760
" />
<path d="M72.5592 5.4760
L72.6801 5.5364
" />
<path d="M73.1034 5.4760
L73.5872 5.4760
" />
<path d="M73.2848 6.3226
L73.2848 5.2341
" />
<path d="M73.2848 5.2341
L73.3453 5.1131
" />
<path d="M73.3453 5.1131
L73.4663 5.0526
" />
<path d="M73.4663 5.0526
L73.5872 5.0526
" />
</g></g> 
</svg>
