<?xml version="1.0" standalone="no"?>
 <!DOCTYPE svg PUBLIC "-//W3C//DTD SVG 1.1//EN" 
 "http://www.w3.org/Graphics/SVG/1.1/DTD/svg11.dtd"> 
<svg
  xmlns:svg="http://www.w3.org/2000/svg"
  xmlns="http://www.w3.org/2000/svg"
  xmlns:xlink="http://www.w3.org/1999/xlink"
  version="1.1"
  width="66.0146mm" height="28.6512mm" viewBox="0.0000 0.0000 66.0146 28.6512">
<title>SVG Image created as working.svg date 2023/08/27 14:12:47 </title>
  <desc>Image generated by Eeschema-SVG </desc>
<g style="fill:#000000; fill-opacity:1.0000;stroke:#000000; stroke-opacity:1.0000;
stroke-linecap:round; stroke-linejoin:round;"
 transform="translate(0 0) scale(1 1)">
</g>
<g style="fill:#840000; fill-opacity:0.0; 
stroke:#840000; stroke-width:0.0000; stroke-opacity:1; 
stroke-linecap:round; stroke-linejoin:round;">
</g>
<g style="fill:#FFFFC2; fill-opacity:0.0; 
stroke:#FFFFC2; stroke-width:0.0000; stroke-opacity:1; 
stroke-linecap:round; stroke-linejoin:round;">
</g>
<g style="fill:#FFFFC2; fill-opacity:1.0000; 
stroke:#FFFFC2; stroke-width:0.0000; stroke-opacity:1; 
stroke-linecap:round; stroke-linejoin:round;">
<rect x="29.198000" y="4.928200" width="11.430000" height="10.160000" rx="0.000000" />
</g>
<g style="fill:#840084; fill-opacity:1.0000; 
stroke:#840084; stroke-width:0.0000; stroke-opacity:1; 
stroke-linecap:round; stroke-linejoin:round;">
</g>
<g style="fill:#840000; fill-opacity:1.0000; 
stroke:#840000; stroke-width:0.0000; stroke-opacity:1; 
stroke-linecap:round; stroke-linejoin:round;">
</g>
<g style="fill:#840000; fill-opacity:0.0; 
stroke:#840000; stroke-width:0.2540; stroke-opacity:1; 
stroke-linecap:round; stroke-linejoin:round;">
<rect x="29.198000" y="4.928200" width="11.430000" height="10.160000" rx="0.000000" />
</g>
<g style="fill:#840000; fill-opacity:0.0; 
stroke:#840000; stroke-width:0.1524; stroke-opacity:1; 
stroke-linecap:round; stroke-linejoin:round;">
<path d="M40.6280 10.0082
L43.1680 10.0082
" />
</g>
<g style="fill:#006464; fill-opacity:0.0; 
stroke:#006464; stroke-width:0.1524; stroke-opacity:1; 
stroke-linecap:round; stroke-linejoin:round;">
<text x="39.6120" y="10.6432"
textLength="4.9204" font-size="1.6933" lengthAdjust="spacingAndGlyphs"
text-anchor="end" opacity="0">VOUT</text>
<g class="stroked-text"><desc>VOUT</desc>
<path d="M34.9155 9.3177
L35.3388 10.5877
" />
<path d="M35.3388 10.5877
L35.7622 9.3177
" />
<path d="M36.4274 9.3177
L36.6693 9.3177
" />
<path d="M36.6693 9.3177
L36.7903 9.3782
" />
<path d="M36.7903 9.3782
L36.9112 9.4992
" />
<path d="M36.9112 9.4992
L36.9717 9.7411
" />
<path d="M36.9717 9.7411
L36.9717 10.1644
" />
<path d="M36.9717 10.1644
L36.9112 10.4063
" />
<path d="M36.9112 10.4063
L36.7903 10.5273
" />
<path d="M36.7903 10.5273
L36.6693 10.5877
" />
<path d="M36.6693 10.5877
L36.4274 10.5877
" />
<path d="M36.4274 10.5877
L36.3065 10.5273
" />
<path d="M36.3065 10.5273
L36.1855 10.4063
" />
<path d="M36.1855 10.4063
L36.1251 10.1644
" />
<path d="M36.1251 10.1644
L36.1251 9.7411
" />
<path d="M36.1251 9.7411
L36.1855 9.4992
" />
<path d="M36.1855 9.4992
L36.3065 9.3782
" />
<path d="M36.3065 9.3782
L36.4274 9.3177
" />
<path d="M37.5160 9.3177
L37.5160 10.3458
" />
<path d="M37.5160 10.3458
L37.5765 10.4668
" />
<path d="M37.5765 10.4668
L37.6370 10.5273
" />
<path d="M37.6370 10.5273
L37.7579 10.5877
" />
<path d="M37.7579 10.5877
L37.9998 10.5877
" />
<path d="M37.9998 10.5877
L38.1208 10.5273
" />
<path d="M38.1208 10.5273
L38.1813 10.4668
" />
<path d="M38.1813 10.4668
L38.2417 10.3458
" />
<path d="M38.2417 10.3458
L38.2417 9.3177
" />
<path d="M38.6651 9.3177
L39.3908 9.3177
" />
<path d="M39.0280 10.5877
L39.0280 9.3177
" />
</g></g>
<g style="fill:#A90000; fill-opacity:0.0; 
stroke:#A90000; stroke-width:0.1524; stroke-opacity:1; 
stroke-linecap:round; stroke-linejoin:round;">
<text x="41.8980" y="9.7542"
textLength="1.4127" font-size="1.6933" lengthAdjust="spacingAndGlyphs"
text-anchor="middle" opacity="0">1</text>
<g class="stroked-text"><desc>1</desc>
<path d="M42.2609 9.5907
L41.5352 9.5907
" />
<path d="M41.8980 9.5907
L41.8980 8.3207
" />
<path d="M41.8980 8.3207
L41.7771 8.5022
" />
<path d="M41.7771 8.5022
L41.6561 8.6231
" />
<path d="M41.6561 8.6231
L41.5352 8.6836
" />
</g></g>
<g style="fill:#840000; fill-opacity:0.0; 
stroke:#840000; stroke-width:0.1524; stroke-opacity:1; 
stroke-linecap:round; stroke-linejoin:round;">
<path d="M33.0080 4.9282
L33.0080 2.3882
" />
</g>
<g style="fill:#006464; fill-opacity:0.0; 
stroke:#006464; stroke-width:0.1524; stroke-opacity:1; 
stroke-linecap:round; stroke-linejoin:round;">
<g transform="rotate(-90.000000 33.0080 5.9442)">
<text x="33.0080" y="6.5792"
textLength="3.8318" font-size="1.6933" lengthAdjust="spacingAndGlyphs"
text-anchor="end" opacity="0">VDD</text>
</g>
<g class="stroked-text"><desc>VDD</desc>
<path d="M32.3175 9.5520
L33.5875 9.1287
" />
<path d="M33.5875 9.1287
L32.3175 8.7053
" />
<path d="M33.5875 8.2820
L32.3175 8.2820
" />
<path d="M32.3175 8.2820
L32.3175 7.9796
" />
<path d="M32.3175 7.9796
L32.3780 7.7982
" />
<path d="M32.3780 7.7982
L32.4990 7.6772
" />
<path d="M32.4990 7.6772
L32.6199 7.6167
" />
<path d="M32.6199 7.6167
L32.8618 7.5563
" />
<path d="M32.8618 7.5563
L33.0432 7.5563
" />
<path d="M33.0432 7.5563
L33.2851 7.6167
" />
<path d="M33.2851 7.6167
L33.4061 7.6772
" />
<path d="M33.4061 7.6772
L33.5271 7.7982
" />
<path d="M33.5271 7.7982
L33.5875 7.9796
" />
<path d="M33.5875 7.9796
L33.5875 8.2820
" />
<path d="M33.5875 7.0120
L32.3175 7.0120
" />
<path d="M32.3175 7.0120
L32.3175 6.7096
" />
<path d="M32.3175 6.7096
L32.3780 6.5282
" />
<path d="M32.3780 6.5282
L32.4990 6.4072
" />
<path d="M32.4990 6.4072
L32.6199 6.3467
" />
<path d="M32.6199 6.3467
L32.8618 6.2863
" />
<path d="M32.8618 6.2863
L33.0432 6.2863
" />
<path d="M33.0432 6.2863
L33.2851 6.3467
" />
<path d="M33.2851 6.3467
L33.4061 6.4072
" />
<path d="M33.4061 6.4072
L33.5271 6.5282
" />
<path d="M33.5271 6.5282
L33.5875 6.7096
" />
<path d="M33.5875 6.7096
L33.5875 7.0120
" />
</g></g>
<g style="fill:#A90000; fill-opacity:0.0; 
stroke:#A90000; stroke-width:0.1524; stroke-opacity:1; 
stroke-linecap:round; stroke-linejoin:round;">
<g transform="rotate(-90.000000 32.7540 3.6582)">
<text x="32.7540" y="3.6582"
textLength="1.4127" font-size="1.6933" lengthAdjust="spacingAndGlyphs"
text-anchor="middle" opacity="0">2</text>
</g>
<g class="stroked-text"><desc>2</desc>
<path d="M31.4415 4.0209
L31.3810 3.9605
" />
<path d="M31.3810 3.9605
L31.3205 3.8395
" />
<path d="M31.3205 3.8395
L31.3205 3.5371
" />
<path d="M31.3205 3.5371
L31.3810 3.4162
" />
<path d="M31.3810 3.4162
L31.4415 3.3557
" />
<path d="M31.4415 3.3557
L31.5624 3.2952
" />
<path d="M31.5624 3.2952
L31.6834 3.2952
" />
<path d="M31.6834 3.2952
L31.8648 3.3557
" />
<path d="M31.8648 3.3557
L32.5905 4.0814
" />
<path d="M32.5905 4.0814
L32.5905 3.2952
" />
</g></g>
<g style="fill:#840000; fill-opacity:0.0; 
stroke:#840000; stroke-width:0.1524; stroke-opacity:1; 
stroke-linecap:round; stroke-linejoin:round;">
<path d="M33.0080 15.0882
L33.0080 17.6282
" />
</g>
<g style="fill:#006464; fill-opacity:0.0; 
stroke:#006464; stroke-width:0.1524; stroke-opacity:1; 
stroke-linecap:round; stroke-linejoin:round;">
<g transform="rotate(-90.000000 33.0080 14.0722)">
<text x="33.0080" y="14.7072"
textLength="4.0737" font-size="1.6933" lengthAdjust="spacingAndGlyphs"
text-anchor="start" opacity="0">GND</text>
</g>
<g class="stroked-text"><desc>GND</desc>
<path d="M32.3780 13.0043
L32.3175 13.1253
" />
<path d="M32.3175 13.1253
L32.3175 13.3067
" />
<path d="M32.3175 13.3067
L32.3780 13.4881
" />
<path d="M32.3780 13.4881
L32.4990 13.6091
" />
<path d="M32.4990 13.6091
L32.6199 13.6696
" />
<path d="M32.6199 13.6696
L32.8618 13.7300
" />
<path d="M32.8618 13.7300
L33.0432 13.7300
" />
<path d="M33.0432 13.7300
L33.2851 13.6696
" />
<path d="M33.2851 13.6696
L33.4061 13.6091
" />
<path d="M33.4061 13.6091
L33.5271 13.4881
" />
<path d="M33.5271 13.4881
L33.5875 13.3067
" />
<path d="M33.5875 13.3067
L33.5875 13.1858
" />
<path d="M33.5875 13.1858
L33.5271 13.0043
" />
<path d="M33.5271 13.0043
L33.4666 12.9439
" />
<path d="M33.4666 12.9439
L33.0432 12.9439
" />
<path d="M33.0432 12.9439
L33.0432 13.1858
" />
<path d="M33.5875 12.3996
L32.3175 12.3996
" />
<path d="M32.3175 12.3996
L33.5875 11.6739
" />
<path d="M33.5875 11.6739
L32.3175 11.6739
" />
<path d="M33.5875 11.0691
L32.3175 11.0691
" />
<path d="M32.3175 11.0691
L32.3175 10.7667
" />
<path d="M32.3175 10.7667
L32.3780 10.5853
" />
<path d="M32.3780 10.5853
L32.4990 10.4643
" />
<path d="M32.4990 10.4643
L32.6199 10.4038
" />
<path d="M32.6199 10.4038
L32.8618 10.3434
" />
<path d="M32.8618 10.3434
L33.0432 10.3434
" />
<path d="M33.0432 10.3434
L33.2851 10.4038
" />
<path d="M33.2851 10.4038
L33.4061 10.4643
" />
<path d="M33.4061 10.4643
L33.5271 10.5853
" />
<path d="M33.5271 10.5853
L33.5875 10.7667
" />
<path d="M33.5875 10.7667
L33.5875 11.0691
" />
</g></g>
<g style="fill:#A90000; fill-opacity:0.0; 
stroke:#A90000; stroke-width:0.1524; stroke-opacity:1; 
stroke-linecap:round; stroke-linejoin:round;">
<g transform="rotate(-90.000000 32.7540 16.3582)">
<text x="32.7540" y="16.3582"
textLength="1.4127" font-size="1.6933" lengthAdjust="spacingAndGlyphs"
text-anchor="middle" opacity="0">3</text>
</g>
<g class="stroked-text"><desc>3</desc>
<path d="M31.3205 16.7814
L31.3205 15.9952
" />
<path d="M31.3205 15.9952
L31.8043 16.4186
" />
<path d="M31.8043 16.4186
L31.8043 16.2371
" />
<path d="M31.8043 16.2371
L31.8648 16.1162
" />
<path d="M31.8648 16.1162
L31.9253 16.0557
" />
<path d="M31.9253 16.0557
L32.0462 15.9952
" />
<path d="M32.0462 15.9952
L32.3486 15.9952
" />
<path d="M32.3486 15.9952
L32.4696 16.0557
" />
<path d="M32.4696 16.0557
L32.5301 16.1162
" />
<path d="M32.5301 16.1162
L32.5905 16.2371
" />
<path d="M32.5905 16.2371
L32.5905 16.6000
" />
<path d="M32.5905 16.6000
L32.5301 16.7209
" />
<path d="M32.5301 16.7209
L32.4696 16.7814
" />
</g></g>
<g style="fill:#840084; fill-opacity:0.0; 
stroke:#840084; stroke-width:0.1524; stroke-opacity:1; 
stroke-linecap:round; stroke-linejoin:round;">
</g>
<g style="fill:#006464; fill-opacity:0.0; 
stroke:#006464; stroke-width:0.1524; stroke-opacity:1; 
stroke-linecap:round; stroke-linejoin:round;">
</g>
<g style="fill:#006464; fill-opacity:0.0; 
stroke:#006464; stroke-width:0.1588; stroke-opacity:1; 
stroke-linecap:round; stroke-linejoin:round;">
<text x="30.5187" y="4.2932"
textLength="2.6415" font-size="1.6933" lengthAdjust="spacingAndGlyphs"
text-anchor="middle" opacity="0">U?</text>
<g class="stroked-text"><desc>U?</desc>
<path d="M29.6115 2.9674
L29.6115 3.9955
" />
<path d="M29.6115 3.9955
L29.6720 4.1165
" />
<path d="M29.6720 4.1165
L29.7325 4.1770
" />
<path d="M29.7325 4.1770
L29.8534 4.2374
" />
<path d="M29.8534 4.2374
L30.0953 4.2374
" />
<path d="M30.0953 4.2374
L30.2163 4.1770
" />
<path d="M30.2163 4.1770
L30.2768 4.1165
" />
<path d="M30.2768 4.1165
L30.3372 3.9955
" />
<path d="M30.3372 3.9955
L30.3372 2.9674
" />
<path d="M31.1235 4.1165
L31.1839 4.1770
" />
<path d="M31.1839 4.1770
L31.1235 4.2374
" />
<path d="M31.1235 4.2374
L31.0630 4.1770
" />
<path d="M31.0630 4.1770
L31.1235 4.1165
" />
<path d="M31.1235 4.1165
L31.1235 4.2374
" />
<path d="M30.8816 3.0279
L31.0025 2.9674
" />
<path d="M31.0025 2.9674
L31.3049 2.9674
" />
<path d="M31.3049 2.9674
L31.4258 3.0279
" />
<path d="M31.4258 3.0279
L31.4863 3.1489
" />
<path d="M31.4863 3.1489
L31.4863 3.2698
" />
<path d="M31.4863 3.2698
L31.4258 3.3908
" />
<path d="M31.4258 3.3908
L31.3654 3.4512
" />
<path d="M31.3654 3.4512
L31.2444 3.5117
" />
<path d="M31.2444 3.5117
L31.1839 3.5722
" />
<path d="M31.1839 3.5722
L31.1235 3.6931
" />
<path d="M31.1235 3.6931
L31.1235 3.7536
" />
</g><g transform="rotate(-90.000000 27.9280 10.0082)">
<text x="27.9280" y="10.6432"
textLength="9.6566" font-size="1.6933" lengthAdjust="spacingAndGlyphs"
text-anchor="middle" opacity="0">BD48ExxG</text>
</g>
<g class="stroked-text"><desc>BD48ExxG</desc>
<path d="M27.8420 13.9995
L27.9025 13.8181
" />
<path d="M27.9025 13.8181
L27.9629 13.7576
" />
<path d="M27.9629 13.7576
L28.0839 13.6972
" />
<path d="M28.0839 13.6972
L28.2653 13.6972
" />
<path d="M28.2653 13.6972
L28.3863 13.7576
" />
<path d="M28.3863 13.7576
L28.4468 13.8181
" />
<path d="M28.4468 13.8181
L28.5072 13.9391
" />
<path d="M28.5072 13.9391
L28.5072 14.4229
" />
<path d="M28.5072 14.4229
L27.2372 14.4229
" />
<path d="M27.2372 14.4229
L27.2372 13.9995
" />
<path d="M27.2372 13.9995
L27.2977 13.8786
" />
<path d="M27.2977 13.8786
L27.3582 13.8181
" />
<path d="M27.3582 13.8181
L27.4791 13.7576
" />
<path d="M27.4791 13.7576
L27.6001 13.7576
" />
<path d="M27.6001 13.7576
L27.7210 13.8181
" />
<path d="M27.7210 13.8181
L27.7815 13.8786
" />
<path d="M27.7815 13.8786
L27.8420 13.9995
" />
<path d="M27.8420 13.9995
L27.8420 14.4229
" />
<path d="M28.5072 13.1529
L27.2372 13.1529
" />
<path d="M27.2372 13.1529
L27.2372 12.8505
" />
<path d="M27.2372 12.8505
L27.2977 12.6691
" />
<path d="M27.2977 12.6691
L27.4187 12.5481
" />
<path d="M27.4187 12.5481
L27.5396 12.4876
" />
<path d="M27.5396 12.4876
L27.7815 12.4272
" />
<path d="M27.7815 12.4272
L27.9629 12.4272
" />
<path d="M27.9629 12.4272
L28.2048 12.4876
" />
<path d="M28.2048 12.4876
L28.3258 12.5481
" />
<path d="M28.3258 12.5481
L28.4468 12.6691
" />
<path d="M28.4468 12.6691
L28.5072 12.8505
" />
<path d="M28.5072 12.8505
L28.5072 13.1529
" />
<path d="M27.6606 11.3386
L28.5072 11.3386
" />
<path d="M27.1768 11.6410
L28.0839 11.9433
" />
<path d="M28.0839 11.9433
L28.0839 11.1572
" />
<path d="M27.7815 10.4919
L27.7210 10.6129
" />
<path d="M27.7210 10.6129
L27.6606 10.6734
" />
<path d="M27.6606 10.6734
L27.5396 10.7338
" />
<path d="M27.5396 10.7338
L27.4791 10.7338
" />
<path d="M27.4791 10.7338
L27.3582 10.6734
" />
<path d="M27.3582 10.6734
L27.2977 10.6129
" />
<path d="M27.2977 10.6129
L27.2372 10.4919
" />
<path d="M27.2372 10.4919
L27.2372 10.2500
" />
<path d="M27.2372 10.2500
L27.2977 10.1291
" />
<path d="M27.2977 10.1291
L27.3582 10.0686
" />
<path d="M27.3582 10.0686
L27.4791 10.0081
" />
<path d="M27.4791 10.0081
L27.5396 10.0081
" />
<path d="M27.5396 10.0081
L27.6606 10.0686
" />
<path d="M27.6606 10.0686
L27.7210 10.1291
" />
<path d="M27.7210 10.1291
L27.7815 10.2500
" />
<path d="M27.7815 10.2500
L27.7815 10.4919
" />
<path d="M27.7815 10.4919
L27.8420 10.6129
" />
<path d="M27.8420 10.6129
L27.9025 10.6734
" />
<path d="M27.9025 10.6734
L28.0234 10.7338
" />
<path d="M28.0234 10.7338
L28.2653 10.7338
" />
<path d="M28.2653 10.7338
L28.3863 10.6734
" />
<path d="M28.3863 10.6734
L28.4468 10.6129
" />
<path d="M28.4468 10.6129
L28.5072 10.4919
" />
<path d="M28.5072 10.4919
L28.5072 10.2500
" />
<path d="M28.5072 10.2500
L28.4468 10.1291
" />
<path d="M28.4468 10.1291
L28.3863 10.0686
" />
<path d="M28.3863 10.0686
L28.2653 10.0081
" />
<path d="M28.2653 10.0081
L28.0234 10.0081
" />
<path d="M28.0234 10.0081
L27.9025 10.0686
" />
<path d="M27.9025 10.0686
L27.8420 10.1291
" />
<path d="M27.8420 10.1291
L27.7815 10.2500
" />
<path d="M27.8420 9.4639
L27.8420 9.0405
" />
<path d="M28.5072 8.8591
L28.5072 9.4639
" />
<path d="M28.5072 9.4639
L27.2372 9.4639
" />
<path d="M27.2372 9.4639
L27.2372 8.8591
" />
<path d="M28.5072 8.4358
L27.6606 7.7706
" />
<path d="M27.6606 8.4358
L28.5072 7.7706
" />
<path d="M28.5072 7.4077
L27.6606 6.7425
" />
<path d="M27.6606 7.4077
L28.5072 6.7425
" />
<path d="M27.2977 5.5934
L27.2372 5.7144
" />
<path d="M27.2372 5.7144
L27.2372 5.8958
" />
<path d="M27.2372 5.8958
L27.2977 6.0772
" />
<path d="M27.2977 6.0772
L27.4187 6.1982
" />
<path d="M27.4187 6.1982
L27.5396 6.2587
" />
<path d="M27.5396 6.2587
L27.7815 6.3191
" />
<path d="M27.7815 6.3191
L27.9629 6.3191
" />
<path d="M27.9629 6.3191
L28.2048 6.2587
" />
<path d="M28.2048 6.2587
L28.3258 6.1982
" />
<path d="M28.3258 6.1982
L28.4468 6.0772
" />
<path d="M28.4468 6.0772
L28.5072 5.8958
" />
<path d="M28.5072 5.8958
L28.5072 5.7749
" />
<path d="M28.5072 5.7749
L28.4468 5.5934
" />
<path d="M28.4468 5.5934
L28.3863 5.5330
" />
<path d="M28.3863 5.5330
L27.9629 5.5330
" />
<path d="M27.9629 5.5330
L27.9629 5.7749
" />
</g></g>
<g style="fill:#840084; fill-opacity:0.0; 
stroke:#840084; stroke-width:0.1588; stroke-opacity:1; 
stroke-linecap:round; stroke-linejoin:round;">
<text x="33.0080" y="23.3432"
textLength="31.6698" font-size="1.6933" lengthAdjust="spacingAndGlyphs"
text-anchor="middle" opacity="0">Package_TO_SOT_SMD:SOT-23-5</text>
<g class="stroked-text"><desc>Package_TO_SOT_SMD:SOT-23-5</desc>
<path d="M17.5866 23.2874
L17.5866 22.0174
" />
<path d="M17.5866 22.0174
L18.0704 22.0174
" />
<path d="M18.0704 22.0174
L18.1914 22.0779
" />
<path d="M18.1914 22.0779
L18.2519 22.1384
" />
<path d="M18.2519 22.1384
L18.3123 22.2593
" />
<path d="M18.3123 22.2593
L18.3123 22.4408
" />
<path d="M18.3123 22.4408
L18.2519 22.5617
" />
<path d="M18.2519 22.5617
L18.1914 22.6222
" />
<path d="M18.1914 22.6222
L18.0704 22.6827
" />
<path d="M18.0704 22.6827
L17.5866 22.6827
" />
<path d="M19.4009 23.2874
L19.4009 22.6222
" />
<path d="M19.4009 22.6222
L19.3404 22.5012
" />
<path d="M19.3404 22.5012
L19.2195 22.4408
" />
<path d="M19.2195 22.4408
L18.9776 22.4408
" />
<path d="M18.9776 22.4408
L18.8566 22.5012
" />
<path d="M19.4009 23.2270
L19.2800 23.2874
" />
<path d="M19.2800 23.2874
L18.9776 23.2874
" />
<path d="M18.9776 23.2874
L18.8566 23.2270
" />
<path d="M18.8566 23.2270
L18.7962 23.1060
" />
<path d="M18.7962 23.1060
L18.7962 22.9850
" />
<path d="M18.7962 22.9850
L18.8566 22.8641
" />
<path d="M18.8566 22.8641
L18.9776 22.8036
" />
<path d="M18.9776 22.8036
L19.2800 22.8036
" />
<path d="M19.2800 22.8036
L19.4009 22.7431
" />
<path d="M20.5499 23.2270
L20.4290 23.2874
" />
<path d="M20.4290 23.2874
L20.1871 23.2874
" />
<path d="M20.1871 23.2874
L20.0661 23.2270
" />
<path d="M20.0661 23.2270
L20.0056 23.1665
" />
<path d="M20.0056 23.1665
L19.9452 23.0455
" />
<path d="M19.9452 23.0455
L19.9452 22.6827
" />
<path d="M19.9452 22.6827
L20.0056 22.5617
" />
<path d="M20.0056 22.5617
L20.0661 22.5012
" />
<path d="M20.0661 22.5012
L20.1871 22.4408
" />
<path d="M20.1871 22.4408
L20.4290 22.4408
" />
<path d="M20.4290 22.4408
L20.5499 22.5012
" />
<path d="M21.0942 23.2874
L21.0942 22.0174
" />
<path d="M21.2152 22.8036
L21.5780 23.2874
" />
<path d="M21.5780 22.4408
L21.0942 22.9246
" />
<path d="M22.6666 23.2874
L22.6666 22.6222
" />
<path d="M22.6666 22.6222
L22.6061 22.5012
" />
<path d="M22.6061 22.5012
L22.4852 22.4408
" />
<path d="M22.4852 22.4408
L22.2433 22.4408
" />
<path d="M22.2433 22.4408
L22.1223 22.5012
" />
<path d="M22.6666 23.2270
L22.5457 23.2874
" />
<path d="M22.5457 23.2874
L22.2433 23.2874
" />
<path d="M22.2433 23.2874
L22.1223 23.2270
" />
<path d="M22.1223 23.2270
L22.0619 23.1060
" />
<path d="M22.0619 23.1060
L22.0619 22.9850
" />
<path d="M22.0619 22.9850
L22.1223 22.8641
" />
<path d="M22.1223 22.8641
L22.2433 22.8036
" />
<path d="M22.2433 22.8036
L22.5457 22.8036
" />
<path d="M22.5457 22.8036
L22.6666 22.7431
" />
<path d="M23.8156 22.4408
L23.8156 23.4689
" />
<path d="M23.8156 23.4689
L23.7551 23.5898
" />
<path d="M23.7551 23.5898
L23.6947 23.6503
" />
<path d="M23.6947 23.6503
L23.5737 23.7108
" />
<path d="M23.5737 23.7108
L23.3923 23.7108
" />
<path d="M23.3923 23.7108
L23.2713 23.6503
" />
<path d="M23.8156 23.2270
L23.6947 23.2874
" />
<path d="M23.6947 23.2874
L23.4528 23.2874
" />
<path d="M23.4528 23.2874
L23.3318 23.2270
" />
<path d="M23.3318 23.2270
L23.2713 23.1665
" />
<path d="M23.2713 23.1665
L23.2109 23.0455
" />
<path d="M23.2109 23.0455
L23.2109 22.6827
" />
<path d="M23.2109 22.6827
L23.2713 22.5617
" />
<path d="M23.2713 22.5617
L23.3318 22.5012
" />
<path d="M23.3318 22.5012
L23.4528 22.4408
" />
<path d="M23.4528 22.4408
L23.6947 22.4408
" />
<path d="M23.6947 22.4408
L23.8156 22.5012
" />
<path d="M24.9041 23.2270
L24.7832 23.2874
" />
<path d="M24.7832 23.2874
L24.5413 23.2874
" />
<path d="M24.5413 23.2874
L24.4203 23.2270
" />
<path d="M24.4203 23.2270
L24.3599 23.1060
" />
<path d="M24.3599 23.1060
L24.3599 22.6222
" />
<path d="M24.3599 22.6222
L24.4203 22.5012
" />
<path d="M24.4203 22.5012
L24.5413 22.4408
" />
<path d="M24.5413 22.4408
L24.7832 22.4408
" />
<path d="M24.7832 22.4408
L24.9041 22.5012
" />
<path d="M24.9041 22.5012
L24.9646 22.6222
" />
<path d="M24.9646 22.6222
L24.9646 22.7431
" />
<path d="M24.9646 22.7431
L24.3599 22.8641
" />
<path d="M25.2066 23.4084
L26.1742 23.4084
" />
<path d="M26.2951 22.0174
L27.0208 22.0174
" />
<path d="M26.6580 23.2874
L26.6580 22.0174
" />
<path d="M27.6860 22.0174
L27.9279 22.0174
" />
<path d="M27.9279 22.0174
L28.0489 22.0779
" />
<path d="M28.0489 22.0779
L28.1698 22.1989
" />
<path d="M28.1698 22.1989
L28.2303 22.4408
" />
<path d="M28.2303 22.4408
L28.2303 22.8641
" />
<path d="M28.2303 22.8641
L28.1698 23.1060
" />
<path d="M28.1698 23.1060
L28.0489 23.2270
" />
<path d="M28.0489 23.2270
L27.9279 23.2874
" />
<path d="M27.9279 23.2874
L27.6860 23.2874
" />
<path d="M27.6860 23.2874
L27.5651 23.2270
" />
<path d="M27.5651 23.2270
L27.4441 23.1060
" />
<path d="M27.4441 23.1060
L27.3837 22.8641
" />
<path d="M27.3837 22.8641
L27.3837 22.4408
" />
<path d="M27.3837 22.4408
L27.4441 22.1989
" />
<path d="M27.4441 22.1989
L27.5651 22.0779
" />
<path d="M27.5651 22.0779
L27.6860 22.0174
" />
<path d="M28.4723 23.4084
L29.4399 23.4084
" />
<path d="M29.6818 23.2270
L29.8632 23.2874
" />
<path d="M29.8632 23.2874
L30.1656 23.2874
" />
<path d="M30.1656 23.2874
L30.2865 23.2270
" />
<path d="M30.2865 23.2270
L30.3470 23.1665
" />
<path d="M30.3470 23.1665
L30.4075 23.0455
" />
<path d="M30.4075 23.0455
L30.4075 22.9246
" />
<path d="M30.4075 22.9246
L30.3470 22.8036
" />
<path d="M30.3470 22.8036
L30.2865 22.7431
" />
<path d="M30.2865 22.7431
L30.1656 22.6827
" />
<path d="M30.1656 22.6827
L29.9237 22.6222
" />
<path d="M29.9237 22.6222
L29.8027 22.5617
" />
<path d="M29.8027 22.5617
L29.7422 22.5012
" />
<path d="M29.7422 22.5012
L29.6818 22.3803
" />
<path d="M29.6818 22.3803
L29.6818 22.2593
" />
<path d="M29.6818 22.2593
L29.7422 22.1384
" />
<path d="M29.7422 22.1384
L29.8027 22.0779
" />
<path d="M29.8027 22.0779
L29.9237 22.0174
" />
<path d="M29.9237 22.0174
L30.2260 22.0174
" />
<path d="M30.2260 22.0174
L30.4075 22.0779
" />
<path d="M31.1936 22.0174
L31.4355 22.0174
" />
<path d="M31.4355 22.0174
L31.5565 22.0779
" />
<path d="M31.5565 22.0779
L31.6774 22.1989
" />
<path d="M31.6774 22.1989
L31.7379 22.4408
" />
<path d="M31.7379 22.4408
L31.7379 22.8641
" />
<path d="M31.7379 22.8641
L31.6774 23.1060
" />
<path d="M31.6774 23.1060
L31.5565 23.2270
" />
<path d="M31.5565 23.2270
L31.4355 23.2874
" />
<path d="M31.4355 23.2874
L31.1936 23.2874
" />
<path d="M31.1936 23.2874
L31.0727 23.2270
" />
<path d="M31.0727 23.2270
L30.9517 23.1060
" />
<path d="M30.9517 23.1060
L30.8913 22.8641
" />
<path d="M30.8913 22.8641
L30.8913 22.4408
" />
<path d="M30.8913 22.4408
L30.9517 22.1989
" />
<path d="M30.9517 22.1989
L31.0727 22.0779
" />
<path d="M31.0727 22.0779
L31.1936 22.0174
" />
<path d="M32.1008 22.0174
L32.8265 22.0174
" />
<path d="M32.4637 23.2874
L32.4637 22.0174
" />
<path d="M32.9475 23.4084
L33.9151 23.4084
" />
<path d="M34.1570 23.2270
L34.3384 23.2874
" />
<path d="M34.3384 23.2874
L34.6408 23.2874
" />
<path d="M34.6408 23.2874
L34.7617 23.2270
" />
<path d="M34.7617 23.2270
L34.8222 23.1665
" />
<path d="M34.8222 23.1665
L34.8827 23.0455
" />
<path d="M34.8827 23.0455
L34.8827 22.9246
" />
<path d="M34.8827 22.9246
L34.8222 22.8036
" />
<path d="M34.8222 22.8036
L34.7617 22.7431
" />
<path d="M34.7617 22.7431
L34.6408 22.6827
" />
<path d="M34.6408 22.6827
L34.3989 22.6222
" />
<path d="M34.3989 22.6222
L34.2779 22.5617
" />
<path d="M34.2779 22.5617
L34.2174 22.5012
" />
<path d="M34.2174 22.5012
L34.1570 22.3803
" />
<path d="M34.1570 22.3803
L34.1570 22.2593
" />
<path d="M34.1570 22.2593
L34.2174 22.1384
" />
<path d="M34.2174 22.1384
L34.2779 22.0779
" />
<path d="M34.2779 22.0779
L34.3989 22.0174
" />
<path d="M34.3989 22.0174
L34.7012 22.0174
" />
<path d="M34.7012 22.0174
L34.8827 22.0779
" />
<path d="M35.4269 23.2874
L35.4269 22.0174
" />
<path d="M35.4269 22.0174
L35.8503 22.9246
" />
<path d="M35.8503 22.9246
L36.2736 22.0174
" />
<path d="M36.2736 22.0174
L36.2736 23.2874
" />
<path d="M36.8783 23.2874
L36.8783 22.0174
" />
<path d="M36.8783 22.0174
L37.1807 22.0174
" />
<path d="M37.1807 22.0174
L37.3621 22.0779
" />
<path d="M37.3621 22.0779
L37.4831 22.1989
" />
<path d="M37.4831 22.1989
L37.5436 22.3198
" />
<path d="M37.5436 22.3198
L37.6040 22.5617
" />
<path d="M37.6040 22.5617
L37.6040 22.7431
" />
<path d="M37.6040 22.7431
L37.5436 22.9850
" />
<path d="M37.5436 22.9850
L37.4831 23.1060
" />
<path d="M37.4831 23.1060
L37.3621 23.2270
" />
<path d="M37.3621 23.2270
L37.1807 23.2874
" />
<path d="M37.1807 23.2874
L36.8783 23.2874
" />
<path d="M38.1483 23.1665
L38.2088 23.2270
" />
<path d="M38.2088 23.2270
L38.1483 23.2874
" />
<path d="M38.1483 23.2874
L38.0879 23.2270
" />
<path d="M38.0879 23.2270
L38.1483 23.1665
" />
<path d="M38.1483 23.1665
L38.1483 23.2874
" />
<path d="M38.1483 22.5012
L38.2088 22.5617
" />
<path d="M38.2088 22.5617
L38.1483 22.6222
" />
<path d="M38.1483 22.6222
L38.0879 22.5617
" />
<path d="M38.0879 22.5617
L38.1483 22.5012
" />
<path d="M38.1483 22.5012
L38.1483 22.6222
" />
<path d="M38.6927 23.2270
L38.8741 23.2874
" />
<path d="M38.8741 23.2874
L39.1765 23.2874
" />
<path d="M39.1765 23.2874
L39.2974 23.2270
" />
<path d="M39.2974 23.2270
L39.3579 23.1665
" />
<path d="M39.3579 23.1665
L39.4184 23.0455
" />
<path d="M39.4184 23.0455
L39.4184 22.9246
" />
<path d="M39.4184 22.9246
L39.3579 22.8036
" />
<path d="M39.3579 22.8036
L39.2974 22.7431
" />
<path d="M39.2974 22.7431
L39.1765 22.6827
" />
<path d="M39.1765 22.6827
L38.9346 22.6222
" />
<path d="M38.9346 22.6222
L38.8136 22.5617
" />
<path d="M38.8136 22.5617
L38.7531 22.5012
" />
<path d="M38.7531 22.5012
L38.6927 22.3803
" />
<path d="M38.6927 22.3803
L38.6927 22.2593
" />
<path d="M38.6927 22.2593
L38.7531 22.1384
" />
<path d="M38.7531 22.1384
L38.8136 22.0779
" />
<path d="M38.8136 22.0779
L38.9346 22.0174
" />
<path d="M38.9346 22.0174
L39.2369 22.0174
" />
<path d="M39.2369 22.0174
L39.4184 22.0779
" />
<path d="M40.2045 22.0174
L40.4464 22.0174
" />
<path d="M40.4464 22.0174
L40.5674 22.0779
" />
<path d="M40.5674 22.0779
L40.6883 22.1989
" />
<path d="M40.6883 22.1989
L40.7488 22.4408
" />
<path d="M40.7488 22.4408
L40.7488 22.8641
" />
<path d="M40.7488 22.8641
L40.6883 23.1060
" />
<path d="M40.6883 23.1060
L40.5674 23.2270
" />
<path d="M40.5674 23.2270
L40.4464 23.2874
" />
<path d="M40.4464 23.2874
L40.2045 23.2874
" />
<path d="M40.2045 23.2874
L40.0836 23.2270
" />
<path d="M40.0836 23.2270
L39.9626 23.1060
" />
<path d="M39.9626 23.1060
L39.9022 22.8641
" />
<path d="M39.9022 22.8641
L39.9022 22.4408
" />
<path d="M39.9022 22.4408
L39.9626 22.1989
" />
<path d="M39.9626 22.1989
L40.0836 22.0779
" />
<path d="M40.0836 22.0779
L40.2045 22.0174
" />
<path d="M41.1117 22.0174
L41.8374 22.0174
" />
<path d="M41.4746 23.2874
L41.4746 22.0174
" />
<path d="M42.2607 22.8036
L43.2284 22.8036
" />
<path d="M43.7727 22.1384
L43.8331 22.0779
" />
<path d="M43.8331 22.0779
L43.9541 22.0174
" />
<path d="M43.9541 22.0174
L44.2565 22.0174
" />
<path d="M44.2565 22.0174
L44.3774 22.0779
" />
<path d="M44.3774 22.0779
L44.4379 22.1384
" />
<path d="M44.4379 22.1384
L44.4984 22.2593
" />
<path d="M44.4984 22.2593
L44.4984 22.3803
" />
<path d="M44.4984 22.3803
L44.4379 22.5617
" />
<path d="M44.4379 22.5617
L43.7122 23.2874
" />
<path d="M43.7122 23.2874
L44.4984 23.2874
" />
<path d="M44.9217 22.0174
L45.7079 22.0174
" />
<path d="M45.7079 22.0174
L45.2845 22.5012
" />
<path d="M45.2845 22.5012
L45.4660 22.5012
" />
<path d="M45.4660 22.5012
L45.5869 22.5617
" />
<path d="M45.5869 22.5617
L45.6474 22.6222
" />
<path d="M45.6474 22.6222
L45.7079 22.7431
" />
<path d="M45.7079 22.7431
L45.7079 23.0455
" />
<path d="M45.7079 23.0455
L45.6474 23.1665
" />
<path d="M45.6474 23.1665
L45.5869 23.2270
" />
<path d="M45.5869 23.2270
L45.4660 23.2874
" />
<path d="M45.4660 23.2874
L45.1031 23.2874
" />
<path d="M45.1031 23.2874
L44.9822 23.2270
" />
<path d="M44.9822 23.2270
L44.9217 23.1665
" />
<path d="M46.2521 22.8036
L47.2198 22.8036
" />
<path d="M48.4293 22.0174
L47.8245 22.0174
" />
<path d="M47.8245 22.0174
L47.7641 22.6222
" />
<path d="M47.7641 22.6222
L47.8245 22.5617
" />
<path d="M47.8245 22.5617
L47.9455 22.5012
" />
<path d="M47.9455 22.5012
L48.2479 22.5012
" />
<path d="M48.2479 22.5012
L48.3688 22.5617
" />
<path d="M48.3688 22.5617
L48.4293 22.6222
" />
<path d="M48.4293 22.6222
L48.4898 22.7431
" />
<path d="M48.4898 22.7431
L48.4898 23.0455
" />
<path d="M48.4898 23.0455
L48.4293 23.1665
" />
<path d="M48.4293 23.1665
L48.3688 23.2270
" />
<path d="M48.3688 23.2270
L48.2479 23.2874
" />
<path d="M48.2479 23.2874
L47.9455 23.2874
" />
<path d="M47.9455 23.2874
L47.8245 23.2270
" />
<path d="M47.8245 23.2270
L47.7641 23.1665
" />
</g><text x="33.0080" y="25.8832"
textLength="55.0135" font-size="1.6933" lengthAdjust="spacingAndGlyphs"
text-anchor="middle" opacity="0">https://www.rohm.de/datasheet/BD4830FVE/bd48xxg-e</text>
<g class="stroked-text"><desc>https://www.rohm.de/datasheet/BD4830FVE/bd48xxg-e</desc>
<path d="M5.9148 25.8274
L5.9148 24.5574
" />
<path d="M6.4591 25.8274
L6.4591 25.1622
" />
<path d="M6.4591 25.1622
L6.3986 25.0412
" />
<path d="M6.3986 25.0412
L6.2777 24.9808
" />
<path d="M6.2777 24.9808
L6.0963 24.9808
" />
<path d="M6.0963 24.9808
L5.9753 25.0412
" />
<path d="M5.9753 25.0412
L5.9148 25.1017
" />
<path d="M6.8824 24.9808
L7.3662 24.9808
" />
<path d="M7.0638 24.5574
L7.0638 25.6460
" />
<path d="M7.0638 25.6460
L7.1243 25.7670
" />
<path d="M7.1243 25.7670
L7.2453 25.8274
" />
<path d="M7.2453 25.8274
L7.3662 25.8274
" />
<path d="M7.6081 24.9808
L8.0919 24.9808
" />
<path d="M7.7895 24.5574
L7.7895 25.6460
" />
<path d="M7.7895 25.6460
L7.8500 25.7670
" />
<path d="M7.8500 25.7670
L7.9710 25.8274
" />
<path d="M7.9710 25.8274
L8.0919 25.8274
" />
<path d="M8.5152 24.9808
L8.5152 26.2508
" />
<path d="M8.5152 25.0412
L8.6362 24.9808
" />
<path d="M8.6362 24.9808
L8.8781 24.9808
" />
<path d="M8.8781 24.9808
L8.9990 25.0412
" />
<path d="M8.9990 25.0412
L9.0595 25.1017
" />
<path d="M9.0595 25.1017
L9.1200 25.2227
" />
<path d="M9.1200 25.2227
L9.1200 25.5855
" />
<path d="M9.1200 25.5855
L9.0595 25.7065
" />
<path d="M9.0595 25.7065
L8.9990 25.7670
" />
<path d="M8.9990 25.7670
L8.8781 25.8274
" />
<path d="M8.8781 25.8274
L8.6362 25.8274
" />
<path d="M8.6362 25.8274
L8.5152 25.7670
" />
<path d="M9.6038 25.7670
L9.7247 25.8274
" />
<path d="M9.7247 25.8274
L9.9666 25.8274
" />
<path d="M9.9666 25.8274
L10.0876 25.7670
" />
<path d="M10.0876 25.7670
L10.1480 25.6460
" />
<path d="M10.1480 25.6460
L10.1480 25.5855
" />
<path d="M10.1480 25.5855
L10.0876 25.4646
" />
<path d="M10.0876 25.4646
L9.9666 25.4041
" />
<path d="M9.9666 25.4041
L9.7852 25.4041
" />
<path d="M9.7852 25.4041
L9.6642 25.3436
" />
<path d="M9.6642 25.3436
L9.6038 25.2227
" />
<path d="M9.6038 25.2227
L9.6038 25.1622
" />
<path d="M9.6038 25.1622
L9.6642 25.0412
" />
<path d="M9.6642 25.0412
L9.7852 24.9808
" />
<path d="M9.7852 24.9808
L9.9666 24.9808
" />
<path d="M9.9666 24.9808
L10.0876 25.0412
" />
<path d="M10.6923 25.7065
L10.7528 25.7670
" />
<path d="M10.7528 25.7670
L10.6923 25.8274
" />
<path d="M10.6923 25.8274
L10.6319 25.7670
" />
<path d="M10.6319 25.7670
L10.6923 25.7065
" />
<path d="M10.6923 25.7065
L10.6923 25.8274
" />
<path d="M10.6923 25.0412
L10.7528 25.1017
" />
<path d="M10.7528 25.1017
L10.6923 25.1622
" />
<path d="M10.6923 25.1622
L10.6319 25.1017
" />
<path d="M10.6319 25.1017
L10.6923 25.0412
" />
<path d="M10.6923 25.0412
L10.6923 25.1622
" />
<path d="M12.2043 24.4970
L11.1157 26.1298
" />
<path d="M13.5348 24.4970
L12.4462 26.1298
" />
<path d="M13.8372 24.9808
L14.0791 25.8274
" />
<path d="M14.0791 25.8274
L14.3210 25.2227
" />
<path d="M14.3210 25.2227
L14.5629 25.8274
" />
<path d="M14.5629 25.8274
L14.8048 24.9808
" />
<path d="M15.1677 24.9808
L15.4096 25.8274
" />
<path d="M15.4096 25.8274
L15.6515 25.2227
" />
<path d="M15.6515 25.2227
L15.8934 25.8274
" />
<path d="M15.8934 25.8274
L16.1353 24.9808
" />
<path d="M16.4982 24.9808
L16.7401 25.8274
" />
<path d="M16.7401 25.8274
L16.9820 25.2227
" />
<path d="M16.9820 25.2227
L17.2239 25.8274
" />
<path d="M17.2239 25.8274
L17.4658 24.9808
" />
<path d="M17.9496 25.7065
L18.0101 25.7670
" />
<path d="M18.0101 25.7670
L17.9496 25.8274
" />
<path d="M17.9496 25.8274
L17.8892 25.7670
" />
<path d="M17.8892 25.7670
L17.9496 25.7065
" />
<path d="M17.9496 25.7065
L17.9496 25.8274
" />
<path d="M18.5544 25.8274
L18.5544 24.9808
" />
<path d="M18.5544 25.2227
L18.6149 25.1017
" />
<path d="M18.6149 25.1017
L18.6754 25.0412
" />
<path d="M18.6754 25.0412
L18.7963 24.9808
" />
<path d="M18.7963 24.9808
L18.9173 24.9808
" />
<path d="M19.5221 25.8274
L19.4011 25.7670
" />
<path d="M19.4011 25.7670
L19.3406 25.7065
" />
<path d="M19.3406 25.7065
L19.2802 25.5855
" />
<path d="M19.2802 25.5855
L19.2802 25.2227
" />
<path d="M19.2802 25.2227
L19.3406 25.1017
" />
<path d="M19.3406 25.1017
L19.4011 25.0412
" />
<path d="M19.4011 25.0412
L19.5221 24.9808
" />
<path d="M19.5221 24.9808
L19.7035 24.9808
" />
<path d="M19.7035 24.9808
L19.8244 25.0412
" />
<path d="M19.8244 25.0412
L19.8849 25.1017
" />
<path d="M19.8849 25.1017
L19.9454 25.2227
" />
<path d="M19.9454 25.2227
L19.9454 25.5855
" />
<path d="M19.9454 25.5855
L19.8849 25.7065
" />
<path d="M19.8849 25.7065
L19.8244 25.7670
" />
<path d="M19.8244 25.7670
L19.7035 25.8274
" />
<path d="M19.7035 25.8274
L19.5221 25.8274
" />
<path d="M20.4896 25.8274
L20.4896 24.5574
" />
<path d="M21.0339 25.8274
L21.0339 25.1622
" />
<path d="M21.0339 25.1622
L20.9734 25.0412
" />
<path d="M20.9734 25.0412
L20.8525 24.9808
" />
<path d="M20.8525 24.9808
L20.6711 24.9808
" />
<path d="M20.6711 24.9808
L20.5501 25.0412
" />
<path d="M20.5501 25.0412
L20.4896 25.1017
" />
<path d="M21.6386 25.8274
L21.6386 24.9808
" />
<path d="M21.6386 25.1017
L21.6991 25.0412
" />
<path d="M21.6991 25.0412
L21.8201 24.9808
" />
<path d="M21.8201 24.9808
L22.0015 24.9808
" />
<path d="M22.0015 24.9808
L22.1224 25.0412
" />
<path d="M22.1224 25.0412
L22.1829 25.1622
" />
<path d="M22.1829 25.1622
L22.1829 25.8274
" />
<path d="M22.1829 25.1622
L22.2434 25.0412
" />
<path d="M22.2434 25.0412
L22.3643 24.9808
" />
<path d="M22.3643 24.9808
L22.5458 24.9808
" />
<path d="M22.5458 24.9808
L22.6667 25.0412
" />
<path d="M22.6667 25.0412
L22.7272 25.1622
" />
<path d="M22.7272 25.1622
L22.7272 25.8274
" />
<path d="M23.3319 25.7065
L23.3924 25.7670
" />
<path d="M23.3924 25.7670
L23.3319 25.8274
" />
<path d="M23.3319 25.8274
L23.2715 25.7670
" />
<path d="M23.2715 25.7670
L23.3319 25.7065
" />
<path d="M23.3319 25.7065
L23.3319 25.8274
" />
<path d="M24.4810 25.8274
L24.4810 24.5574
" />
<path d="M24.4810 25.7670
L24.3601 25.8274
" />
<path d="M24.3601 25.8274
L24.1182 25.8274
" />
<path d="M24.1182 25.8274
L23.9972 25.7670
" />
<path d="M23.9972 25.7670
L23.9367 25.7065
" />
<path d="M23.9367 25.7065
L23.8763 25.5855
" />
<path d="M23.8763 25.5855
L23.8763 25.2227
" />
<path d="M23.8763 25.2227
L23.9367 25.1017
" />
<path d="M23.9367 25.1017
L23.9972 25.0412
" />
<path d="M23.9972 25.0412
L24.1182 24.9808
" />
<path d="M24.1182 24.9808
L24.3601 24.9808
" />
<path d="M24.3601 24.9808
L24.4810 25.0412
" />
<path d="M25.5695 25.7670
L25.4486 25.8274
" />
<path d="M25.4486 25.8274
L25.2067 25.8274
" />
<path d="M25.2067 25.8274
L25.0857 25.7670
" />
<path d="M25.0857 25.7670
L25.0253 25.6460
" />
<path d="M25.0253 25.6460
L25.0253 25.1622
" />
<path d="M25.0253 25.1622
L25.0857 25.0412
" />
<path d="M25.0857 25.0412
L25.2067 24.9808
" />
<path d="M25.2067 24.9808
L25.4486 24.9808
" />
<path d="M25.4486 24.9808
L25.5695 25.0412
" />
<path d="M25.5695 25.0412
L25.6300 25.1622
" />
<path d="M25.6300 25.1622
L25.6300 25.2831
" />
<path d="M25.6300 25.2831
L25.0253 25.4041
" />
<path d="M27.0815 24.4970
L25.9929 26.1298
" />
<path d="M28.0491 25.8274
L28.0491 24.5574
" />
<path d="M28.0491 25.7670
L27.9282 25.8274
" />
<path d="M27.9282 25.8274
L27.6863 25.8274
" />
<path d="M27.6863 25.8274
L27.5653 25.7670
" />
<path d="M27.5653 25.7670
L27.5048 25.7065
" />
<path d="M27.5048 25.7065
L27.4444 25.5855
" />
<path d="M27.4444 25.5855
L27.4444 25.2227
" />
<path d="M27.4444 25.2227
L27.5048 25.1017
" />
<path d="M27.5048 25.1017
L27.5653 25.0412
" />
<path d="M27.5653 25.0412
L27.6863 24.9808
" />
<path d="M27.6863 24.9808
L27.9282 24.9808
" />
<path d="M27.9282 24.9808
L28.0491 25.0412
" />
<path d="M29.1981 25.8274
L29.1981 25.1622
" />
<path d="M29.1981 25.1622
L29.1376 25.0412
" />
<path d="M29.1376 25.0412
L29.0167 24.9808
" />
<path d="M29.0167 24.9808
L28.7748 24.9808
" />
<path d="M28.7748 24.9808
L28.6538 25.0412
" />
<path d="M29.1981 25.7670
L29.0772 25.8274
" />
<path d="M29.0772 25.8274
L28.7748 25.8274
" />
<path d="M28.7748 25.8274
L28.6538 25.7670
" />
<path d="M28.6538 25.7670
L28.5934 25.6460
" />
<path d="M28.5934 25.6460
L28.5934 25.5250
" />
<path d="M28.5934 25.5250
L28.6538 25.4041
" />
<path d="M28.6538 25.4041
L28.7748 25.3436
" />
<path d="M28.7748 25.3436
L29.0772 25.3436
" />
<path d="M29.0772 25.3436
L29.1981 25.2831
" />
<path d="M29.6214 24.9808
L30.1052 24.9808
" />
<path d="M29.8028 24.5574
L29.8028 25.6460
" />
<path d="M29.8028 25.6460
L29.8633 25.7670
" />
<path d="M29.8633 25.7670
L29.9843 25.8274
" />
<path d="M29.9843 25.8274
L30.1052 25.8274
" />
<path d="M31.0728 25.8274
L31.0728 25.1622
" />
<path d="M31.0728 25.1622
L31.0123 25.0412
" />
<path d="M31.0123 25.0412
L30.8914 24.9808
" />
<path d="M30.8914 24.9808
L30.6495 24.9808
" />
<path d="M30.6495 24.9808
L30.5285 25.0412
" />
<path d="M31.0728 25.7670
L30.9519 25.8274
" />
<path d="M30.9519 25.8274
L30.6495 25.8274
" />
<path d="M30.6495 25.8274
L30.5285 25.7670
" />
<path d="M30.5285 25.7670
L30.4681 25.6460
" />
<path d="M30.4681 25.6460
L30.4681 25.5250
" />
<path d="M30.4681 25.5250
L30.5285 25.4041
" />
<path d="M30.5285 25.4041
L30.6495 25.3436
" />
<path d="M30.6495 25.3436
L30.9519 25.3436
" />
<path d="M30.9519 25.3436
L31.0728 25.2831
" />
<path d="M31.6171 25.7670
L31.7380 25.8274
" />
<path d="M31.7380 25.8274
L31.9799 25.8274
" />
<path d="M31.9799 25.8274
L32.1009 25.7670
" />
<path d="M32.1009 25.7670
L32.1613 25.6460
" />
<path d="M32.1613 25.6460
L32.1613 25.5855
" />
<path d="M32.1613 25.5855
L32.1009 25.4646
" />
<path d="M32.1009 25.4646
L31.9799 25.4041
" />
<path d="M31.9799 25.4041
L31.7985 25.4041
" />
<path d="M31.7985 25.4041
L31.6775 25.3436
" />
<path d="M31.6775 25.3436
L31.6171 25.2227
" />
<path d="M31.6171 25.2227
L31.6171 25.1622
" />
<path d="M31.6171 25.1622
L31.6775 25.0412
" />
<path d="M31.6775 25.0412
L31.7985 24.9808
" />
<path d="M31.7985 24.9808
L31.9799 24.9808
" />
<path d="M31.9799 24.9808
L32.1009 25.0412
" />
<path d="M32.7056 25.8274
L32.7056 24.5574
" />
<path d="M33.2499 25.8274
L33.2499 25.1622
" />
<path d="M33.2499 25.1622
L33.1894 25.0412
" />
<path d="M33.1894 25.0412
L33.0685 24.9808
" />
<path d="M33.0685 24.9808
L32.8871 24.9808
" />
<path d="M32.8871 24.9808
L32.7661 25.0412
" />
<path d="M32.7661 25.0412
L32.7056 25.1017
" />
<path d="M34.3384 25.7670
L34.2175 25.8274
" />
<path d="M34.2175 25.8274
L33.9756 25.8274
" />
<path d="M33.9756 25.8274
L33.8546 25.7670
" />
<path d="M33.8546 25.7670
L33.7942 25.6460
" />
<path d="M33.7942 25.6460
L33.7942 25.1622
" />
<path d="M33.7942 25.1622
L33.8546 25.0412
" />
<path d="M33.8546 25.0412
L33.9756 24.9808
" />
<path d="M33.9756 24.9808
L34.2175 24.9808
" />
<path d="M34.2175 24.9808
L34.3384 25.0412
" />
<path d="M34.3384 25.0412
L34.3989 25.1622
" />
<path d="M34.3989 25.1622
L34.3989 25.2831
" />
<path d="M34.3989 25.2831
L33.7942 25.4041
" />
<path d="M35.4270 25.7670
L35.3061 25.8274
" />
<path d="M35.3061 25.8274
L35.0642 25.8274
" />
<path d="M35.0642 25.8274
L34.9432 25.7670
" />
<path d="M34.9432 25.7670
L34.8828 25.6460
" />
<path d="M34.8828 25.6460
L34.8828 25.1622
" />
<path d="M34.8828 25.1622
L34.9432 25.0412
" />
<path d="M34.9432 25.0412
L35.0642 24.9808
" />
<path d="M35.0642 24.9808
L35.3061 24.9808
" />
<path d="M35.3061 24.9808
L35.4270 25.0412
" />
<path d="M35.4270 25.0412
L35.4875 25.1622
" />
<path d="M35.4875 25.1622
L35.4875 25.2831
" />
<path d="M35.4875 25.2831
L34.8828 25.4041
" />
<path d="M35.8504 24.9808
L36.3342 24.9808
" />
<path d="M36.0318 24.5574
L36.0318 25.6460
" />
<path d="M36.0318 25.6460
L36.0923 25.7670
" />
<path d="M36.0923 25.7670
L36.2133 25.8274
" />
<path d="M36.2133 25.8274
L36.3342 25.8274
" />
<path d="M37.6647 24.4970
L36.5761 26.1298
" />
<path d="M38.5114 25.1622
L38.6928 25.2227
" />
<path d="M38.6928 25.2227
L38.7533 25.2831
" />
<path d="M38.7533 25.2831
L38.8137 25.4041
" />
<path d="M38.8137 25.4041
L38.8137 25.5855
" />
<path d="M38.8137 25.5855
L38.7533 25.7065
" />
<path d="M38.7533 25.7065
L38.6928 25.7670
" />
<path d="M38.6928 25.7670
L38.5718 25.8274
" />
<path d="M38.5718 25.8274
L38.0880 25.8274
" />
<path d="M38.0880 25.8274
L38.0880 24.5574
" />
<path d="M38.0880 24.5574
L38.5114 24.5574
" />
<path d="M38.5114 24.5574
L38.6323 24.6179
" />
<path d="M38.6323 24.6179
L38.6928 24.6784
" />
<path d="M38.6928 24.6784
L38.7533 24.7993
" />
<path d="M38.7533 24.7993
L38.7533 24.9203
" />
<path d="M38.7533 24.9203
L38.6928 25.0412
" />
<path d="M38.6928 25.0412
L38.6323 25.1017
" />
<path d="M38.6323 25.1017
L38.5114 25.1622
" />
<path d="M38.5114 25.1622
L38.0880 25.1622
" />
<path d="M39.3580 25.8274
L39.3580 24.5574
" />
<path d="M39.3580 24.5574
L39.6604 24.5574
" />
<path d="M39.6604 24.5574
L39.8418 24.6179
" />
<path d="M39.8418 24.6179
L39.9628 24.7389
" />
<path d="M39.9628 24.7389
L40.0233 24.8598
" />
<path d="M40.0233 24.8598
L40.0837 25.1017
" />
<path d="M40.0837 25.1017
L40.0837 25.2831
" />
<path d="M40.0837 25.2831
L40.0233 25.5250
" />
<path d="M40.0233 25.5250
L39.9628 25.6460
" />
<path d="M39.9628 25.6460
L39.8418 25.7670
" />
<path d="M39.8418 25.7670
L39.6604 25.8274
" />
<path d="M39.6604 25.8274
L39.3580 25.8274
" />
<path d="M41.1723 24.9808
L41.1723 25.8274
" />
<path d="M40.8699 24.4970
L40.5676 25.4041
" />
<path d="M40.5676 25.4041
L41.3537 25.4041
" />
<path d="M42.0190 25.1017
L41.8980 25.0412
" />
<path d="M41.8980 25.0412
L41.8375 24.9808
" />
<path d="M41.8375 24.9808
L41.7771 24.8598
" />
<path d="M41.7771 24.8598
L41.7771 24.7993
" />
<path d="M41.7771 24.7993
L41.8375 24.6784
" />
<path d="M41.8375 24.6784
L41.8980 24.6179
" />
<path d="M41.8980 24.6179
L42.0190 24.5574
" />
<path d="M42.0190 24.5574
L42.2609 24.5574
" />
<path d="M42.2609 24.5574
L42.3818 24.6179
" />
<path d="M42.3818 24.6179
L42.4423 24.6784
" />
<path d="M42.4423 24.6784
L42.5028 24.7993
" />
<path d="M42.5028 24.7993
L42.5028 24.8598
" />
<path d="M42.5028 24.8598
L42.4423 24.9808
" />
<path d="M42.4423 24.9808
L42.3818 25.0412
" />
<path d="M42.3818 25.0412
L42.2609 25.1017
" />
<path d="M42.2609 25.1017
L42.0190 25.1017
" />
<path d="M42.0190 25.1017
L41.8980 25.1622
" />
<path d="M41.8980 25.1622
L41.8375 25.2227
" />
<path d="M41.8375 25.2227
L41.7771 25.3436
" />
<path d="M41.7771 25.3436
L41.7771 25.5855
" />
<path d="M41.7771 25.5855
L41.8375 25.7065
" />
<path d="M41.8375 25.7065
L41.8980 25.7670
" />
<path d="M41.8980 25.7670
L42.0190 25.8274
" />
<path d="M42.0190 25.8274
L42.2609 25.8274
" />
<path d="M42.2609 25.8274
L42.3818 25.7670
" />
<path d="M42.3818 25.7670
L42.4423 25.7065
" />
<path d="M42.4423 25.7065
L42.5028 25.5855
" />
<path d="M42.5028 25.5855
L42.5028 25.3436
" />
<path d="M42.5028 25.3436
L42.4423 25.2227
" />
<path d="M42.4423 25.2227
L42.3818 25.1622
" />
<path d="M42.3818 25.1622
L42.2609 25.1017
" />
<path d="M42.9261 24.5574
L43.7123 24.5574
" />
<path d="M43.7123 24.5574
L43.2889 25.0412
" />
<path d="M43.2889 25.0412
L43.4704 25.0412
" />
<path d="M43.4704 25.0412
L43.5913 25.1017
" />
<path d="M43.5913 25.1017
L43.6518 25.1622
" />
<path d="M43.6518 25.1622
L43.7123 25.2831
" />
<path d="M43.7123 25.2831
L43.7123 25.5855
" />
<path d="M43.7123 25.5855
L43.6518 25.7065
" />
<path d="M43.6518 25.7065
L43.5913 25.7670
" />
<path d="M43.5913 25.7670
L43.4704 25.8274
" />
<path d="M43.4704 25.8274
L43.1075 25.8274
" />
<path d="M43.1075 25.8274
L42.9866 25.7670
" />
<path d="M42.9866 25.7670
L42.9261 25.7065
" />
<path d="M44.4984 24.5574
L44.6194 24.5574
" />
<path d="M44.6194 24.5574
L44.7403 24.6179
" />
<path d="M44.7403 24.6179
L44.8008 24.6784
" />
<path d="M44.8008 24.6784
L44.8613 24.7993
" />
<path d="M44.8613 24.7993
L44.9218 25.0412
" />
<path d="M44.9218 25.0412
L44.9218 25.3436
" />
<path d="M44.9218 25.3436
L44.8613 25.5855
" />
<path d="M44.8613 25.5855
L44.8008 25.7065
" />
<path d="M44.8008 25.7065
L44.7403 25.7670
" />
<path d="M44.7403 25.7670
L44.6194 25.8274
" />
<path d="M44.6194 25.8274
L44.4984 25.8274
" />
<path d="M44.4984 25.8274
L44.3775 25.7670
" />
<path d="M44.3775 25.7670
L44.3170 25.7065
" />
<path d="M44.3170 25.7065
L44.2565 25.5855
" />
<path d="M44.2565 25.5855
L44.1961 25.3436
" />
<path d="M44.1961 25.3436
L44.1961 25.0412
" />
<path d="M44.1961 25.0412
L44.2565 24.7993
" />
<path d="M44.2565 24.7993
L44.3170 24.6784
" />
<path d="M44.3170 24.6784
L44.3775 24.6179
" />
<path d="M44.3775 24.6179
L44.4984 24.5574
" />
<path d="M45.8894 25.1622
L45.4660 25.1622
" />
<path d="M45.4660 25.8274
L45.4660 24.5574
" />
<path d="M45.4660 24.5574
L46.0708 24.5574
" />
<path d="M46.3732 24.5574
L46.7965 25.8274
" />
<path d="M46.7965 25.8274
L47.2199 24.5574
" />
<path d="M47.6432 25.1622
L48.0666 25.1622
" />
<path d="M48.2480 25.8274
L47.6432 25.8274
" />
<path d="M47.6432 25.8274
L47.6432 24.5574
" />
<path d="M47.6432 24.5574
L48.2480 24.5574
" />
<path d="M49.6994 24.4970
L48.6108 26.1298
" />
<path d="M50.1227 25.8274
L50.1227 24.5574
" />
<path d="M50.1227 25.0412
L50.2437 24.9808
" />
<path d="M50.2437 24.9808
L50.4856 24.9808
" />
<path d="M50.4856 24.9808
L50.6065 25.0412
" />
<path d="M50.6065 25.0412
L50.6670 25.1017
" />
<path d="M50.6670 25.1017
L50.7275 25.2227
" />
<path d="M50.7275 25.2227
L50.7275 25.5855
" />
<path d="M50.7275 25.5855
L50.6670 25.7065
" />
<path d="M50.6670 25.7065
L50.6065 25.7670
" />
<path d="M50.6065 25.7670
L50.4856 25.8274
" />
<path d="M50.4856 25.8274
L50.2437 25.8274
" />
<path d="M50.2437 25.8274
L50.1227 25.7670
" />
<path d="M51.8160 25.8274
L51.8160 24.5574
" />
<path d="M51.8160 25.7670
L51.6951 25.8274
" />
<path d="M51.6951 25.8274
L51.4532 25.8274
" />
<path d="M51.4532 25.8274
L51.3322 25.7670
" />
<path d="M51.3322 25.7670
L51.2717 25.7065
" />
<path d="M51.2717 25.7065
L51.2113 25.5855
" />
<path d="M51.2113 25.5855
L51.2113 25.2227
" />
<path d="M51.2113 25.2227
L51.2717 25.1017
" />
<path d="M51.2717 25.1017
L51.3322 25.0412
" />
<path d="M51.3322 25.0412
L51.4532 24.9808
" />
<path d="M51.4532 24.9808
L51.6951 24.9808
" />
<path d="M51.6951 24.9808
L51.8160 25.0412
" />
<path d="M52.9650 24.9808
L52.9650 25.8274
" />
<path d="M52.6626 24.4970
L52.3603 25.4041
" />
<path d="M52.3603 25.4041
L53.1464 25.4041
" />
<path d="M53.8117 25.1017
L53.6907 25.0412
" />
<path d="M53.6907 25.0412
L53.6302 24.9808
" />
<path d="M53.6302 24.9808
L53.5698 24.8598
" />
<path d="M53.5698 24.8598
L53.5698 24.7993
" />
<path d="M53.5698 24.7993
L53.6302 24.6784
" />
<path d="M53.6302 24.6784
L53.6907 24.6179
" />
<path d="M53.6907 24.6179
L53.8117 24.5574
" />
<path d="M53.8117 24.5574
L54.0536 24.5574
" />
<path d="M54.0536 24.5574
L54.1745 24.6179
" />
<path d="M54.1745 24.6179
L54.2350 24.6784
" />
<path d="M54.2350 24.6784
L54.2955 24.7993
" />
<path d="M54.2955 24.7993
L54.2955 24.8598
" />
<path d="M54.2955 24.8598
L54.2350 24.9808
" />
<path d="M54.2350 24.9808
L54.1745 25.0412
" />
<path d="M54.1745 25.0412
L54.0536 25.1017
" />
<path d="M54.0536 25.1017
L53.8117 25.1017
" />
<path d="M53.8117 25.1017
L53.6907 25.1622
" />
<path d="M53.6907 25.1622
L53.6302 25.2227
" />
<path d="M53.6302 25.2227
L53.5698 25.3436
" />
<path d="M53.5698 25.3436
L53.5698 25.5855
" />
<path d="M53.5698 25.5855
L53.6302 25.7065
" />
<path d="M53.6302 25.7065
L53.6907 25.7670
" />
<path d="M53.6907 25.7670
L53.8117 25.8274
" />
<path d="M53.8117 25.8274
L54.0536 25.8274
" />
<path d="M54.0536 25.8274
L54.1745 25.7670
" />
<path d="M54.1745 25.7670
L54.2350 25.7065
" />
<path d="M54.2350 25.7065
L54.2955 25.5855
" />
<path d="M54.2955 25.5855
L54.2955 25.3436
" />
<path d="M54.2955 25.3436
L54.2350 25.2227
" />
<path d="M54.2350 25.2227
L54.1745 25.1622
" />
<path d="M54.1745 25.1622
L54.0536 25.1017
" />
<path d="M54.7188 25.8274
L55.3840 24.9808
" />
<path d="M54.7188 24.9808
L55.3840 25.8274
" />
<path d="M55.7469 25.8274
L56.4121 24.9808
" />
<path d="M55.7469 24.9808
L56.4121 25.8274
" />
<path d="M57.4402 24.9808
L57.4402 26.0089
" />
<path d="M57.4402 26.0089
L57.3797 26.1298
" />
<path d="M57.3797 26.1298
L57.3193 26.1903
" />
<path d="M57.3193 26.1903
L57.1983 26.2508
" />
<path d="M57.1983 26.2508
L57.0169 26.2508
" />
<path d="M57.0169 26.2508
L56.8959 26.1903
" />
<path d="M57.4402 25.7670
L57.3193 25.8274
" />
<path d="M57.3193 25.8274
L57.0774 25.8274
" />
<path d="M57.0774 25.8274
L56.9564 25.7670
" />
<path d="M56.9564 25.7670
L56.8959 25.7065
" />
<path d="M56.8959 25.7065
L56.8355 25.5855
" />
<path d="M56.8355 25.5855
L56.8355 25.2227
" />
<path d="M56.8355 25.2227
L56.8959 25.1017
" />
<path d="M56.8959 25.1017
L56.9564 25.0412
" />
<path d="M56.9564 25.0412
L57.0774 24.9808
" />
<path d="M57.0774 24.9808
L57.3193 24.9808
" />
<path d="M57.3193 24.9808
L57.4402 25.0412
" />
<path d="M58.0449 25.3436
L59.0126 25.3436
" />
<path d="M60.1011 25.7670
L59.9802 25.8274
" />
<path d="M59.9802 25.8274
L59.7383 25.8274
" />
<path d="M59.7383 25.8274
L59.6173 25.7670
" />
<path d="M59.6173 25.7670
L59.5569 25.6460
" />
<path d="M59.5569 25.6460
L59.5569 25.1622
" />
<path d="M59.5569 25.1622
L59.6173 25.0412
" />
<path d="M59.6173 25.0412
L59.7383 24.9808
" />
<path d="M59.7383 24.9808
L59.9802 24.9808
" />
<path d="M59.9802 24.9808
L60.1011 25.0412
" />
<path d="M60.1011 25.0412
L60.1616 25.1622
" />
<path d="M60.1616 25.1622
L60.1616 25.2831
" />
<path d="M60.1616 25.2831
L59.5569 25.4041
" />
</g></g> 
</svg>
