<?xml version="1.0" standalone="no"?>
 <!DOCTYPE svg PUBLIC "-//W3C//DTD SVG 1.1//EN" 
 "http://www.w3.org/Graphics/SVG/1.1/DTD/svg11.dtd"> 
<svg
  xmlns:svg="http://www.w3.org/2000/svg"
  xmlns="http://www.w3.org/2000/svg"
  xmlns:xlink="http://www.w3.org/1999/xlink"
  version="1.1"
  width="80.6704mm" height="10.0838mm" viewBox="0.0000 0.0000 80.6704 10.0838">
<title>SVG Image created as working.svg date 2023/08/15 04:57:59 </title>
  <desc>Image generated by Eeschema-SVG </desc>
<g style="fill:#000000; fill-opacity:1.0000;stroke:#000000; stroke-opacity:1.0000;
stroke-linecap:round; stroke-linejoin:round;"
 transform="translate(0 0) scale(1 1)">
</g>
<g style="fill:#840000; fill-opacity:0.0; 
stroke:#840000; stroke-width:0.0000; stroke-opacity:1; 
stroke-linecap:round; stroke-linejoin:round;">
</g>
<g style="fill:#840084; fill-opacity:0.0; 
stroke:#840084; stroke-width:0.0000; stroke-opacity:1; 
stroke-linecap:round; stroke-linejoin:round;">
</g>
<g style="fill:#840000; fill-opacity:0.0; 
stroke:#840000; stroke-width:0.0000; stroke-opacity:1; 
stroke-linecap:round; stroke-linejoin:round;">
</g>
<g style="fill:#840084; fill-opacity:0.0; 
stroke:#840084; stroke-width:0.0000; stroke-opacity:1; 
stroke-linecap:round; stroke-linejoin:round;">
</g>
<g style="fill:#006464; fill-opacity:0.0; 
stroke:#006464; stroke-width:0.0000; stroke-opacity:1; 
stroke-linecap:round; stroke-linejoin:round;">
</g>
<g style="fill:#006464; fill-opacity:0.0; 
stroke:#006464; stroke-width:0.1588; stroke-opacity:1; 
stroke-linecap:round; stroke-linejoin:round;">
<text x="36.5277" y="4.4009"
textLength="2.6415" font-size="1.6933" lengthAdjust="spacingAndGlyphs"
text-anchor="middle" opacity="0">U?</text>
<g class="stroked-text"><desc>U?</desc>
<path d="M35.6205 3.0751
L35.6205 4.1032
" />
<path d="M35.6205 4.1032
L35.6810 4.2242
" />
<path d="M35.6810 4.2242
L35.7415 4.2847
" />
<path d="M35.7415 4.2847
L35.8624 4.3451
" />
<path d="M35.8624 4.3451
L36.1043 4.3451
" />
<path d="M36.1043 4.3451
L36.2253 4.2847
" />
<path d="M36.2253 4.2847
L36.2858 4.2242
" />
<path d="M36.2858 4.2242
L36.3462 4.1032
" />
<path d="M36.3462 4.1032
L36.3462 3.0751
" />
<path d="M37.1325 4.2242
L37.1929 4.2847
" />
<path d="M37.1929 4.2847
L37.1325 4.3451
" />
<path d="M37.1325 4.3451
L37.0720 4.2847
" />
<path d="M37.0720 4.2847
L37.1325 4.2242
" />
<path d="M37.1325 4.2242
L37.1325 4.3451
" />
<path d="M36.8906 3.1356
L37.0115 3.0751
" />
<path d="M37.0115 3.0751
L37.3139 3.0751
" />
<path d="M37.3139 3.0751
L37.4348 3.1356
" />
<path d="M37.4348 3.1356
L37.4953 3.2566
" />
<path d="M37.4953 3.2566
L37.4953 3.3775
" />
<path d="M37.4953 3.3775
L37.4348 3.4985
" />
<path d="M37.4348 3.4985
L37.3744 3.5589
" />
<path d="M37.3744 3.5589
L37.2534 3.6194
" />
<path d="M37.2534 3.6194
L37.1929 3.6799
" />
<path d="M37.1929 3.6799
L37.1325 3.8008
" />
<path d="M37.1325 3.8008
L37.1325 3.8613
" />
</g><text x="49.8226" y="4.4009"
textLength="20.2398" font-size="1.6933" lengthAdjust="spacingAndGlyphs"
text-anchor="middle" opacity="0">MCP1804x-2502xMB</text>
<g class="stroked-text"><desc>MCP1804x-2502xMB</desc>
<path d="M40.1162 4.3451
L40.1162 3.0751
" />
<path d="M40.1162 3.0751
L40.5396 3.9823
" />
<path d="M40.5396 3.9823
L40.9629 3.0751
" />
<path d="M40.9629 3.0751
L40.9629 4.3451
" />
<path d="M42.2933 4.2242
L42.2329 4.2847
" />
<path d="M42.2329 4.2847
L42.0514 4.3451
" />
<path d="M42.0514 4.3451
L41.9305 4.3451
" />
<path d="M41.9305 4.3451
L41.7491 4.2847
" />
<path d="M41.7491 4.2847
L41.6281 4.1637
" />
<path d="M41.6281 4.1637
L41.5676 4.0427
" />
<path d="M41.5676 4.0427
L41.5072 3.8008
" />
<path d="M41.5072 3.8008
L41.5072 3.6194
" />
<path d="M41.5072 3.6194
L41.5676 3.3775
" />
<path d="M41.5676 3.3775
L41.6281 3.2566
" />
<path d="M41.6281 3.2566
L41.7491 3.1356
" />
<path d="M41.7491 3.1356
L41.9305 3.0751
" />
<path d="M41.9305 3.0751
L42.0514 3.0751
" />
<path d="M42.0514 3.0751
L42.2329 3.1356
" />
<path d="M42.2329 3.1356
L42.2933 3.1961
" />
<path d="M42.8376 4.3451
L42.8376 3.0751
" />
<path d="M42.8376 3.0751
L43.3214 3.0751
" />
<path d="M43.3214 3.0751
L43.4424 3.1356
" />
<path d="M43.4424 3.1356
L43.5029 3.1961
" />
<path d="M43.5029 3.1961
L43.5633 3.3170
" />
<path d="M43.5633 3.3170
L43.5633 3.4985
" />
<path d="M43.5633 3.4985
L43.5029 3.6194
" />
<path d="M43.5029 3.6194
L43.4424 3.6799
" />
<path d="M43.4424 3.6799
L43.3214 3.7404
" />
<path d="M43.3214 3.7404
L42.8376 3.7404
" />
<path d="M44.7729 4.3451
L44.0472 4.3451
" />
<path d="M44.4100 4.3451
L44.4100 3.0751
" />
<path d="M44.4100 3.0751
L44.2891 3.2566
" />
<path d="M44.2891 3.2566
L44.1681 3.3775
" />
<path d="M44.1681 3.3775
L44.0472 3.4380
" />
<path d="M45.4986 3.6194
L45.3776 3.5589
" />
<path d="M45.3776 3.5589
L45.3171 3.4985
" />
<path d="M45.3171 3.4985
L45.2567 3.3775
" />
<path d="M45.2567 3.3775
L45.2567 3.3170
" />
<path d="M45.2567 3.3170
L45.3171 3.1961
" />
<path d="M45.3171 3.1961
L45.3776 3.1356
" />
<path d="M45.3776 3.1356
L45.4986 3.0751
" />
<path d="M45.4986 3.0751
L45.7405 3.0751
" />
<path d="M45.7405 3.0751
L45.8614 3.1356
" />
<path d="M45.8614 3.1356
L45.9219 3.1961
" />
<path d="M45.9219 3.1961
L45.9824 3.3170
" />
<path d="M45.9824 3.3170
L45.9824 3.3775
" />
<path d="M45.9824 3.3775
L45.9219 3.4985
" />
<path d="M45.9219 3.4985
L45.8614 3.5589
" />
<path d="M45.8614 3.5589
L45.7405 3.6194
" />
<path d="M45.7405 3.6194
L45.4986 3.6194
" />
<path d="M45.4986 3.6194
L45.3776 3.6799
" />
<path d="M45.3776 3.6799
L45.3171 3.7404
" />
<path d="M45.3171 3.7404
L45.2567 3.8613
" />
<path d="M45.2567 3.8613
L45.2567 4.1032
" />
<path d="M45.2567 4.1032
L45.3171 4.2242
" />
<path d="M45.3171 4.2242
L45.3776 4.2847
" />
<path d="M45.3776 4.2847
L45.4986 4.3451
" />
<path d="M45.4986 4.3451
L45.7405 4.3451
" />
<path d="M45.7405 4.3451
L45.8614 4.2847
" />
<path d="M45.8614 4.2847
L45.9219 4.2242
" />
<path d="M45.9219 4.2242
L45.9824 4.1032
" />
<path d="M45.9824 4.1032
L45.9824 3.8613
" />
<path d="M45.9824 3.8613
L45.9219 3.7404
" />
<path d="M45.9219 3.7404
L45.8614 3.6799
" />
<path d="M45.8614 3.6799
L45.7405 3.6194
" />
<path d="M46.7685 3.0751
L46.8895 3.0751
" />
<path d="M46.8895 3.0751
L47.0104 3.1356
" />
<path d="M47.0104 3.1356
L47.0709 3.1961
" />
<path d="M47.0709 3.1961
L47.1314 3.3170
" />
<path d="M47.1314 3.3170
L47.1919 3.5589
" />
<path d="M47.1919 3.5589
L47.1919 3.8613
" />
<path d="M47.1919 3.8613
L47.1314 4.1032
" />
<path d="M47.1314 4.1032
L47.0709 4.2242
" />
<path d="M47.0709 4.2242
L47.0104 4.2847
" />
<path d="M47.0104 4.2847
L46.8895 4.3451
" />
<path d="M46.8895 4.3451
L46.7685 4.3451
" />
<path d="M46.7685 4.3451
L46.6476 4.2847
" />
<path d="M46.6476 4.2847
L46.5871 4.2242
" />
<path d="M46.5871 4.2242
L46.5266 4.1032
" />
<path d="M46.5266 4.1032
L46.4662 3.8613
" />
<path d="M46.4662 3.8613
L46.4662 3.5589
" />
<path d="M46.4662 3.5589
L46.5266 3.3170
" />
<path d="M46.5266 3.3170
L46.5871 3.1961
" />
<path d="M46.5871 3.1961
L46.6476 3.1356
" />
<path d="M46.6476 3.1356
L46.7685 3.0751
" />
<path d="M48.2804 3.4985
L48.2804 4.3451
" />
<path d="M47.9780 3.0147
L47.6757 3.9218
" />
<path d="M47.6757 3.9218
L48.4618 3.9218
" />
<path d="M48.8247 4.3451
L49.4899 3.4985
" />
<path d="M48.8247 3.4985
L49.4899 4.3451
" />
<path d="M49.9737 3.8613
L50.9414 3.8613
" />
<path d="M51.4857 3.1961
L51.5461 3.1356
" />
<path d="M51.5461 3.1356
L51.6671 3.0751
" />
<path d="M51.6671 3.0751
L51.9695 3.0751
" />
<path d="M51.9695 3.0751
L52.0904 3.1356
" />
<path d="M52.0904 3.1356
L52.1509 3.1961
" />
<path d="M52.1509 3.1961
L52.2114 3.3170
" />
<path d="M52.2114 3.3170
L52.2114 3.4380
" />
<path d="M52.2114 3.4380
L52.1509 3.6194
" />
<path d="M52.1509 3.6194
L51.4252 4.3451
" />
<path d="M51.4252 4.3451
L52.2114 4.3451
" />
<path d="M53.3604 3.0751
L52.7556 3.0751
" />
<path d="M52.7556 3.0751
L52.6952 3.6799
" />
<path d="M52.6952 3.6799
L52.7556 3.6194
" />
<path d="M52.7556 3.6194
L52.8766 3.5589
" />
<path d="M52.8766 3.5589
L53.1790 3.5589
" />
<path d="M53.1790 3.5589
L53.2999 3.6194
" />
<path d="M53.2999 3.6194
L53.3604 3.6799
" />
<path d="M53.3604 3.6799
L53.4209 3.8008
" />
<path d="M53.4209 3.8008
L53.4209 4.1032
" />
<path d="M53.4209 4.1032
L53.3604 4.2242
" />
<path d="M53.3604 4.2242
L53.2999 4.2847
" />
<path d="M53.2999 4.2847
L53.1790 4.3451
" />
<path d="M53.1790 4.3451
L52.8766 4.3451
" />
<path d="M52.8766 4.3451
L52.7556 4.2847
" />
<path d="M52.7556 4.2847
L52.6952 4.2242
" />
<path d="M54.2070 3.0751
L54.3280 3.0751
" />
<path d="M54.3280 3.0751
L54.4489 3.1356
" />
<path d="M54.4489 3.1356
L54.5094 3.1961
" />
<path d="M54.5094 3.1961
L54.5699 3.3170
" />
<path d="M54.5699 3.3170
L54.6304 3.5589
" />
<path d="M54.6304 3.5589
L54.6304 3.8613
" />
<path d="M54.6304 3.8613
L54.5699 4.1032
" />
<path d="M54.5699 4.1032
L54.5094 4.2242
" />
<path d="M54.5094 4.2242
L54.4489 4.2847
" />
<path d="M54.4489 4.2847
L54.3280 4.3451
" />
<path d="M54.3280 4.3451
L54.2070 4.3451
" />
<path d="M54.2070 4.3451
L54.0861 4.2847
" />
<path d="M54.0861 4.2847
L54.0256 4.2242
" />
<path d="M54.0256 4.2242
L53.9651 4.1032
" />
<path d="M53.9651 4.1032
L53.9047 3.8613
" />
<path d="M53.9047 3.8613
L53.9047 3.5589
" />
<path d="M53.9047 3.5589
L53.9651 3.3170
" />
<path d="M53.9651 3.3170
L54.0256 3.1961
" />
<path d="M54.0256 3.1961
L54.0861 3.1356
" />
<path d="M54.0861 3.1356
L54.2070 3.0751
" />
<path d="M55.1142 3.1961
L55.1746 3.1356
" />
<path d="M55.1746 3.1356
L55.2956 3.0751
" />
<path d="M55.2956 3.0751
L55.5980 3.0751
" />
<path d="M55.5980 3.0751
L55.7189 3.1356
" />
<path d="M55.7189 3.1356
L55.7794 3.1961
" />
<path d="M55.7794 3.1961
L55.8399 3.3170
" />
<path d="M55.8399 3.3170
L55.8399 3.4380
" />
<path d="M55.8399 3.4380
L55.7794 3.6194
" />
<path d="M55.7794 3.6194
L55.0537 4.3451
" />
<path d="M55.0537 4.3451
L55.8399 4.3451
" />
<path d="M56.2632 4.3451
L56.9284 3.4985
" />
<path d="M56.2632 3.4985
L56.9284 4.3451
" />
<path d="M57.4122 4.3451
L57.4122 3.0751
" />
<path d="M57.4122 3.0751
L57.8356 3.9823
" />
<path d="M57.8356 3.9823
L58.2589 3.0751
" />
<path d="M58.2589 3.0751
L58.2589 4.3451
" />
<path d="M59.2870 3.6799
L59.4684 3.7404
" />
<path d="M59.4684 3.7404
L59.5289 3.8008
" />
<path d="M59.5289 3.8008
L59.5893 3.9218
" />
<path d="M59.5893 3.9218
L59.5893 4.1032
" />
<path d="M59.5893 4.1032
L59.5289 4.2242
" />
<path d="M59.5289 4.2242
L59.4684 4.2847
" />
<path d="M59.4684 4.2847
L59.3474 4.3451
" />
<path d="M59.3474 4.3451
L58.8636 4.3451
" />
<path d="M58.8636 4.3451
L58.8636 3.0751
" />
<path d="M58.8636 3.0751
L59.2870 3.0751
" />
<path d="M59.2870 3.0751
L59.4079 3.1356
" />
<path d="M59.4079 3.1356
L59.4684 3.1961
" />
<path d="M59.4684 3.1961
L59.5289 3.3170
" />
<path d="M59.5289 3.3170
L59.5289 3.4380
" />
<path d="M59.5289 3.4380
L59.4684 3.5589
" />
<path d="M59.4684 3.5589
L59.4079 3.6194
" />
<path d="M59.4079 3.6194
L59.2870 3.6799
" />
<path d="M59.2870 3.6799
L58.8636 3.6799
" />
</g></g>
<g style="fill:#840084; fill-opacity:0.0; 
stroke:#840084; stroke-width:0.1588; stroke-opacity:1; 
stroke-linecap:round; stroke-linejoin:round;">
<text x="40.4171" y="2.4959"
textLength="31.6698" font-size="1.6933" lengthAdjust="spacingAndGlyphs"
text-anchor="middle" opacity="0">Package_TO_SOT_SMD:SOT-89-3</text>
<g class="stroked-text"><desc>Package_TO_SOT_SMD:SOT-89-3</desc>
<path d="M24.9882 2.4401
L25.1469 1.1701
" />
<path d="M25.1469 1.1701
L25.6307 1.1701
" />
<path d="M25.6307 1.1701
L25.7441 1.2306
" />
<path d="M25.7441 1.2306
L25.7970 1.2911
" />
<path d="M25.7970 1.2911
L25.8424 1.4120
" />
<path d="M25.8424 1.4120
L25.8197 1.5935
" />
<path d="M25.8197 1.5935
L25.7441 1.7144
" />
<path d="M25.7441 1.7144
L25.6761 1.7749
" />
<path d="M25.6761 1.7749
L25.5476 1.8354
" />
<path d="M25.5476 1.8354
L25.0638 1.8354
" />
<path d="M26.8025 2.4401
L26.8856 1.7749
" />
<path d="M26.8856 1.7749
L26.8403 1.6539
" />
<path d="M26.8403 1.6539
L26.7269 1.5935
" />
<path d="M26.7269 1.5935
L26.4850 1.5935
" />
<path d="M26.4850 1.5935
L26.3564 1.6539
" />
<path d="M26.8100 2.3797
L26.6815 2.4401
" />
<path d="M26.6815 2.4401
L26.3791 2.4401
" />
<path d="M26.3791 2.4401
L26.2657 2.3797
" />
<path d="M26.2657 2.3797
L26.2204 2.2587
" />
<path d="M26.2204 2.2587
L26.2355 2.1377
" />
<path d="M26.2355 2.1377
L26.3111 2.0168
" />
<path d="M26.3111 2.0168
L26.4396 1.9563
" />
<path d="M26.4396 1.9563
L26.7420 1.9563
" />
<path d="M26.7420 1.9563
L26.8705 1.8958
" />
<path d="M27.9590 2.3797
L27.8305 2.4401
" />
<path d="M27.8305 2.4401
L27.5886 2.4401
" />
<path d="M27.5886 2.4401
L27.4752 2.3797
" />
<path d="M27.4752 2.3797
L27.4223 2.3192
" />
<path d="M27.4223 2.3192
L27.3769 2.1982
" />
<path d="M27.3769 2.1982
L27.4223 1.8354
" />
<path d="M27.4223 1.8354
L27.4979 1.7144
" />
<path d="M27.4979 1.7144
L27.5659 1.6539
" />
<path d="M27.5659 1.6539
L27.6944 1.5935
" />
<path d="M27.6944 1.5935
L27.9363 1.5935
" />
<path d="M27.9363 1.5935
L28.0497 1.6539
" />
<path d="M28.4958 2.4401
L28.6545 1.1701
" />
<path d="M28.6772 1.9563
L28.9796 2.4401
" />
<path d="M29.0854 1.5935
L28.5411 2.0773
" />
<path d="M30.0682 2.4401
L30.1513 1.7749
" />
<path d="M30.1513 1.7749
L30.1060 1.6539
" />
<path d="M30.1060 1.6539
L29.9926 1.5935
" />
<path d="M29.9926 1.5935
L29.7507 1.5935
" />
<path d="M29.7507 1.5935
L29.6221 1.6539
" />
<path d="M30.0757 2.3797
L29.9472 2.4401
" />
<path d="M29.9472 2.4401
L29.6448 2.4401
" />
<path d="M29.6448 2.4401
L29.5314 2.3797
" />
<path d="M29.5314 2.3797
L29.4861 2.2587
" />
<path d="M29.4861 2.2587
L29.5012 2.1377
" />
<path d="M29.5012 2.1377
L29.5768 2.0168
" />
<path d="M29.5768 2.0168
L29.7053 1.9563
" />
<path d="M29.7053 1.9563
L30.0077 1.9563
" />
<path d="M30.0077 1.9563
L30.1362 1.8958
" />
<path d="M31.3230 1.5935
L31.1945 2.6216
" />
<path d="M31.1945 2.6216
L31.1189 2.7425
" />
<path d="M31.1189 2.7425
L31.0508 2.8030
" />
<path d="M31.0508 2.8030
L30.9223 2.8635
" />
<path d="M30.9223 2.8635
L30.7409 2.8635
" />
<path d="M30.7409 2.8635
L30.6275 2.8030
" />
<path d="M31.2247 2.3797
L31.0962 2.4401
" />
<path d="M31.0962 2.4401
L30.8543 2.4401
" />
<path d="M30.8543 2.4401
L30.7409 2.3797
" />
<path d="M30.7409 2.3797
L30.6880 2.3192
" />
<path d="M30.6880 2.3192
L30.6426 2.1982
" />
<path d="M30.6426 2.1982
L30.6880 1.8354
" />
<path d="M30.6880 1.8354
L30.7636 1.7144
" />
<path d="M30.7636 1.7144
L30.8316 1.6539
" />
<path d="M30.8316 1.6539
L30.9601 1.5935
" />
<path d="M30.9601 1.5935
L31.2020 1.5935
" />
<path d="M31.2020 1.5935
L31.3154 1.6539
" />
<path d="M32.3132 2.3797
L32.1847 2.4401
" />
<path d="M32.1847 2.4401
L31.9428 2.4401
" />
<path d="M31.9428 2.4401
L31.8294 2.3797
" />
<path d="M31.8294 2.3797
L31.7841 2.2587
" />
<path d="M31.7841 2.2587
L31.8446 1.7749
" />
<path d="M31.8446 1.7749
L31.9201 1.6539
" />
<path d="M31.9201 1.6539
L32.0487 1.5935
" />
<path d="M32.0487 1.5935
L32.2906 1.5935
" />
<path d="M32.2906 1.5935
L32.4040 1.6539
" />
<path d="M32.4040 1.6539
L32.4493 1.7749
" />
<path d="M32.4493 1.7749
L32.4342 1.8958
" />
<path d="M32.4342 1.8958
L31.8143 2.0168
" />
<path d="M32.5930 2.5611
L33.5606 2.5611
" />
<path d="M33.8554 1.1701
L34.5811 1.1701
" />
<path d="M34.0595 2.4401
L34.2183 1.1701
" />
<path d="M35.2463 1.1701
L35.4882 1.1701
" />
<path d="M35.4882 1.1701
L35.6016 1.2306
" />
<path d="M35.6016 1.2306
L35.7075 1.3516
" />
<path d="M35.7075 1.3516
L35.7377 1.5935
" />
<path d="M35.7377 1.5935
L35.6848 2.0168
" />
<path d="M35.6848 2.0168
L35.5941 2.2587
" />
<path d="M35.5941 2.2587
L35.4580 2.3797
" />
<path d="M35.4580 2.3797
L35.3295 2.4401
" />
<path d="M35.3295 2.4401
L35.0876 2.4401
" />
<path d="M35.0876 2.4401
L34.9742 2.3797
" />
<path d="M34.9742 2.3797
L34.8684 2.2587
" />
<path d="M34.8684 2.2587
L34.8381 2.0168
" />
<path d="M34.8381 2.0168
L34.8910 1.5935
" />
<path d="M34.8910 1.5935
L34.9817 1.3516
" />
<path d="M34.9817 1.3516
L35.1178 1.2306
" />
<path d="M35.1178 1.2306
L35.2463 1.1701
" />
<path d="M35.8587 2.5611
L36.8263 2.5611
" />
<path d="M37.0909 2.3797
L37.2647 2.4401
" />
<path d="M37.2647 2.4401
L37.5671 2.4401
" />
<path d="M37.5671 2.4401
L37.6956 2.3797
" />
<path d="M37.6956 2.3797
L37.7637 2.3192
" />
<path d="M37.7637 2.3192
L37.8392 2.1982
" />
<path d="M37.8392 2.1982
L37.8544 2.0773
" />
<path d="M37.8544 2.0773
L37.8090 1.9563
" />
<path d="M37.8090 1.9563
L37.7561 1.8958
" />
<path d="M37.7561 1.8958
L37.6427 1.8354
" />
<path d="M37.6427 1.8354
L37.4084 1.7749
" />
<path d="M37.4084 1.7749
L37.2950 1.7144
" />
<path d="M37.2950 1.7144
L37.2420 1.6539
" />
<path d="M37.2420 1.6539
L37.1967 1.5330
" />
<path d="M37.1967 1.5330
L37.2118 1.4120
" />
<path d="M37.2118 1.4120
L37.2874 1.2911
" />
<path d="M37.2874 1.2911
L37.3554 1.2306
" />
<path d="M37.3554 1.2306
L37.4840 1.1701
" />
<path d="M37.4840 1.1701
L37.7863 1.1701
" />
<path d="M37.7863 1.1701
L37.9602 1.2306
" />
<path d="M38.7539 1.1701
L38.9958 1.1701
" />
<path d="M38.9958 1.1701
L39.1092 1.2306
" />
<path d="M39.1092 1.2306
L39.2151 1.3516
" />
<path d="M39.2151 1.3516
L39.2453 1.5935
" />
<path d="M39.2453 1.5935
L39.1924 2.0168
" />
<path d="M39.1924 2.0168
L39.1017 2.2587
" />
<path d="M39.1017 2.2587
L38.9656 2.3797
" />
<path d="M38.9656 2.3797
L38.8371 2.4401
" />
<path d="M38.8371 2.4401
L38.5952 2.4401
" />
<path d="M38.5952 2.4401
L38.4818 2.3797
" />
<path d="M38.4818 2.3797
L38.3760 2.2587
" />
<path d="M38.3760 2.2587
L38.3457 2.0168
" />
<path d="M38.3457 2.0168
L38.3986 1.5935
" />
<path d="M38.3986 1.5935
L38.4893 1.3516
" />
<path d="M38.4893 1.3516
L38.6254 1.2306
" />
<path d="M38.6254 1.2306
L38.7539 1.1701
" />
<path d="M39.6611 1.1701
L40.3868 1.1701
" />
<path d="M39.8652 2.4401
L40.0240 1.1701
" />
<path d="M40.3339 2.5611
L41.3015 2.5611
" />
<path d="M41.5661 2.3797
L41.7399 2.4401
" />
<path d="M41.7399 2.4401
L42.0423 2.4401
" />
<path d="M42.0423 2.4401
L42.1708 2.3797
" />
<path d="M42.1708 2.3797
L42.2389 2.3192
" />
<path d="M42.2389 2.3192
L42.3144 2.1982
" />
<path d="M42.3144 2.1982
L42.3296 2.0773
" />
<path d="M42.3296 2.0773
L42.2842 1.9563
" />
<path d="M42.2842 1.9563
L42.2313 1.8958
" />
<path d="M42.2313 1.8958
L42.1179 1.8354
" />
<path d="M42.1179 1.8354
L41.8836 1.7749
" />
<path d="M41.8836 1.7749
L41.7702 1.7144
" />
<path d="M41.7702 1.7144
L41.7172 1.6539
" />
<path d="M41.7172 1.6539
L41.6719 1.5330
" />
<path d="M41.6719 1.5330
L41.6870 1.4120
" />
<path d="M41.6870 1.4120
L41.7626 1.2911
" />
<path d="M41.7626 1.2911
L41.8306 1.2306
" />
<path d="M41.8306 1.2306
L41.9592 1.1701
" />
<path d="M41.9592 1.1701
L42.2615 1.1701
" />
<path d="M42.2615 1.1701
L42.4354 1.2306
" />
<path d="M42.8285 2.4401
L42.9872 1.1701
" />
<path d="M42.9872 1.1701
L43.2972 2.0773
" />
<path d="M43.2972 2.0773
L43.8339 1.1701
" />
<path d="M43.8339 1.1701
L43.6751 2.4401
" />
<path d="M44.2799 2.4401
L44.4386 1.1701
" />
<path d="M44.4386 1.1701
L44.7410 1.1701
" />
<path d="M44.7410 1.1701
L44.9149 1.2306
" />
<path d="M44.9149 1.2306
L45.0207 1.3516
" />
<path d="M45.0207 1.3516
L45.0661 1.4725
" />
<path d="M45.0661 1.4725
L45.0963 1.7144
" />
<path d="M45.0963 1.7144
L45.0736 1.8958
" />
<path d="M45.0736 1.8958
L44.9829 2.1377
" />
<path d="M44.9829 2.1377
L44.9073 2.2587
" />
<path d="M44.9073 2.2587
L44.7712 2.3797
" />
<path d="M44.7712 2.3797
L44.5823 2.4401
" />
<path d="M44.5823 2.4401
L44.2799 2.4401
" />
<path d="M45.5650 2.3192
L45.6179 2.3797
" />
<path d="M45.6179 2.3797
L45.5499 2.4401
" />
<path d="M45.5499 2.4401
L45.4970 2.3797
" />
<path d="M45.4970 2.3797
L45.5650 2.3192
" />
<path d="M45.5650 2.3192
L45.5499 2.4401
" />
<path d="M45.6481 1.6539
L45.7011 1.7144
" />
<path d="M45.7011 1.7144
L45.6330 1.7749
" />
<path d="M45.6330 1.7749
L45.5801 1.7144
" />
<path d="M45.5801 1.7144
L45.6481 1.6539
" />
<path d="M45.6481 1.6539
L45.6330 1.7749
" />
<path d="M46.1018 2.3797
L46.2756 2.4401
" />
<path d="M46.2756 2.4401
L46.5780 2.4401
" />
<path d="M46.5780 2.4401
L46.7065 2.3797
" />
<path d="M46.7065 2.3797
L46.7746 2.3192
" />
<path d="M46.7746 2.3192
L46.8501 2.1982
" />
<path d="M46.8501 2.1982
L46.8653 2.0773
" />
<path d="M46.8653 2.0773
L46.8199 1.9563
" />
<path d="M46.8199 1.9563
L46.7670 1.8958
" />
<path d="M46.7670 1.8958
L46.6536 1.8354
" />
<path d="M46.6536 1.8354
L46.4193 1.7749
" />
<path d="M46.4193 1.7749
L46.3059 1.7144
" />
<path d="M46.3059 1.7144
L46.2529 1.6539
" />
<path d="M46.2529 1.6539
L46.2076 1.5330
" />
<path d="M46.2076 1.5330
L46.2227 1.4120
" />
<path d="M46.2227 1.4120
L46.2983 1.2911
" />
<path d="M46.2983 1.2911
L46.3663 1.2306
" />
<path d="M46.3663 1.2306
L46.4949 1.1701
" />
<path d="M46.4949 1.1701
L46.7972 1.1701
" />
<path d="M46.7972 1.1701
L46.9711 1.2306
" />
<path d="M47.7648 1.1701
L48.0067 1.1701
" />
<path d="M48.0067 1.1701
L48.1201 1.2306
" />
<path d="M48.1201 1.2306
L48.2260 1.3516
" />
<path d="M48.2260 1.3516
L48.2562 1.5935
" />
<path d="M48.2562 1.5935
L48.2033 2.0168
" />
<path d="M48.2033 2.0168
L48.1126 2.2587
" />
<path d="M48.1126 2.2587
L47.9765 2.3797
" />
<path d="M47.9765 2.3797
L47.8480 2.4401
" />
<path d="M47.8480 2.4401
L47.6061 2.4401
" />
<path d="M47.6061 2.4401
L47.4927 2.3797
" />
<path d="M47.4927 2.3797
L47.3869 2.2587
" />
<path d="M47.3869 2.2587
L47.3566 2.0168
" />
<path d="M47.3566 2.0168
L47.4095 1.5935
" />
<path d="M47.4095 1.5935
L47.5002 1.3516
" />
<path d="M47.5002 1.3516
L47.6363 1.2306
" />
<path d="M47.6363 1.2306
L47.7648 1.1701
" />
<path d="M48.6720 1.1701
L49.3977 1.1701
" />
<path d="M48.8761 2.4401
L49.0349 1.1701
" />
<path d="M49.7227 1.9563
L50.6904 1.9563
" />
<path d="M51.5068 1.7144
L51.3934 1.6539
" />
<path d="M51.3934 1.6539
L51.3405 1.5935
" />
<path d="M51.3405 1.5935
L51.2951 1.4725
" />
<path d="M51.2951 1.4725
L51.3027 1.4120
" />
<path d="M51.3027 1.4120
L51.3783 1.2911
" />
<path d="M51.3783 1.2911
L51.4463 1.2306
" />
<path d="M51.4463 1.2306
L51.5749 1.1701
" />
<path d="M51.5749 1.1701
L51.8168 1.1701
" />
<path d="M51.8168 1.1701
L51.9301 1.2306
" />
<path d="M51.9301 1.2306
L51.9831 1.2911
" />
<path d="M51.9831 1.2911
L52.0284 1.4120
" />
<path d="M52.0284 1.4120
L52.0209 1.4725
" />
<path d="M52.0209 1.4725
L51.9453 1.5935
" />
<path d="M51.9453 1.5935
L51.8772 1.6539
" />
<path d="M51.8772 1.6539
L51.7487 1.7144
" />
<path d="M51.7487 1.7144
L51.5068 1.7144
" />
<path d="M51.5068 1.7144
L51.3783 1.7749
" />
<path d="M51.3783 1.7749
L51.3103 1.8354
" />
<path d="M51.3103 1.8354
L51.2347 1.9563
" />
<path d="M51.2347 1.9563
L51.2044 2.1982
" />
<path d="M51.2044 2.1982
L51.2498 2.3192
" />
<path d="M51.2498 2.3192
L51.3027 2.3797
" />
<path d="M51.3027 2.3797
L51.4161 2.4401
" />
<path d="M51.4161 2.4401
L51.6580 2.4401
" />
<path d="M51.6580 2.4401
L51.7865 2.3797
" />
<path d="M51.7865 2.3797
L51.8546 2.3192
" />
<path d="M51.8546 2.3192
L51.9301 2.1982
" />
<path d="M51.9301 2.1982
L51.9604 1.9563
" />
<path d="M51.9604 1.9563
L51.9150 1.8354
" />
<path d="M51.9150 1.8354
L51.8621 1.7749
" />
<path d="M51.8621 1.7749
L51.7487 1.7144
" />
<path d="M52.5046 2.4401
L52.7466 2.4401
" />
<path d="M52.7466 2.4401
L52.8751 2.3797
" />
<path d="M52.8751 2.3797
L52.9431 2.3192
" />
<path d="M52.9431 2.3192
L53.0867 2.1377
" />
<path d="M53.0867 2.1377
L53.1774 1.8958
" />
<path d="M53.1774 1.8958
L53.2379 1.4120
" />
<path d="M53.2379 1.4120
L53.1926 1.2911
" />
<path d="M53.1926 1.2911
L53.1396 1.2306
" />
<path d="M53.1396 1.2306
L53.0263 1.1701
" />
<path d="M53.0263 1.1701
L52.7844 1.1701
" />
<path d="M52.7844 1.1701
L52.6558 1.2306
" />
<path d="M52.6558 1.2306
L52.5878 1.2911
" />
<path d="M52.5878 1.2911
L52.5122 1.4120
" />
<path d="M52.5122 1.4120
L52.4744 1.7144
" />
<path d="M52.4744 1.7144
L52.5198 1.8354
" />
<path d="M52.5198 1.8354
L52.5727 1.8958
" />
<path d="M52.5727 1.8958
L52.6861 1.9563
" />
<path d="M52.6861 1.9563
L52.9280 1.9563
" />
<path d="M52.9280 1.9563
L53.0565 1.8958
" />
<path d="M53.0565 1.8958
L53.1245 1.8354
" />
<path d="M53.1245 1.8354
L53.2001 1.7144
" />
<path d="M53.7141 1.9563
L54.6818 1.9563
" />
<path d="M55.2639 1.1701
L56.0501 1.1701
" />
<path d="M56.0501 1.1701
L55.5663 1.6539
" />
<path d="M55.5663 1.6539
L55.7477 1.6539
" />
<path d="M55.7477 1.6539
L55.8611 1.7144
" />
<path d="M55.8611 1.7144
L55.9140 1.7749
" />
<path d="M55.9140 1.7749
L55.9593 1.8958
" />
<path d="M55.9593 1.8958
L55.9215 2.1982
" />
<path d="M55.9215 2.1982
L55.8460 2.3192
" />
<path d="M55.8460 2.3192
L55.7779 2.3797
" />
<path d="M55.7779 2.3797
L55.6494 2.4401
" />
<path d="M55.6494 2.4401
L55.2865 2.4401
" />
<path d="M55.2865 2.4401
L55.1732 2.3797
" />
<path d="M55.1732 2.3797
L55.1202 2.3192
" />
</g><text x="40.3377" y="8.8459"
textLength="67.2296" font-size="1.6933" lengthAdjust="spacingAndGlyphs"
text-anchor="middle" opacity="0">http://ww1.microchip.com/downloads/en/DeviceDoc/20002200D.pdf</text>
<g class="stroked-text"><desc>http://ww1.microchip.com/downloads/en/DeviceDoc/20002200D.pdf</desc>
<path d="M7.1364 8.7901
L7.1364 7.5201
" />
<path d="M7.6807 8.7901
L7.6807 8.1249
" />
<path d="M7.6807 8.1249
L7.6202 8.0039
" />
<path d="M7.6202 8.0039
L7.4993 7.9435
" />
<path d="M7.4993 7.9435
L7.3179 7.9435
" />
<path d="M7.3179 7.9435
L7.1969 8.0039
" />
<path d="M7.1969 8.0039
L7.1364 8.0644
" />
<path d="M8.1040 7.9435
L8.5878 7.9435
" />
<path d="M8.2854 7.5201
L8.2854 8.6087
" />
<path d="M8.2854 8.6087
L8.3459 8.7297
" />
<path d="M8.3459 8.7297
L8.4669 8.7901
" />
<path d="M8.4669 8.7901
L8.5878 8.7901
" />
<path d="M8.8297 7.9435
L9.3135 7.9435
" />
<path d="M9.0111 7.5201
L9.0111 8.6087
" />
<path d="M9.0111 8.6087
L9.0716 8.7297
" />
<path d="M9.0716 8.7297
L9.1926 8.7901
" />
<path d="M9.1926 8.7901
L9.3135 8.7901
" />
<path d="M9.7368 7.9435
L9.7368 9.2135
" />
<path d="M9.7368 8.0039
L9.8578 7.9435
" />
<path d="M9.8578 7.9435
L10.0997 7.9435
" />
<path d="M10.0997 7.9435
L10.2206 8.0039
" />
<path d="M10.2206 8.0039
L10.2811 8.0644
" />
<path d="M10.2811 8.0644
L10.3416 8.1854
" />
<path d="M10.3416 8.1854
L10.3416 8.5482
" />
<path d="M10.3416 8.5482
L10.2811 8.6692
" />
<path d="M10.2811 8.6692
L10.2206 8.7297
" />
<path d="M10.2206 8.7297
L10.0997 8.7901
" />
<path d="M10.0997 8.7901
L9.8578 8.7901
" />
<path d="M9.8578 8.7901
L9.7368 8.7297
" />
<path d="M10.8858 8.6692
L10.9463 8.7297
" />
<path d="M10.9463 8.7297
L10.8858 8.7901
" />
<path d="M10.8858 8.7901
L10.8254 8.7297
" />
<path d="M10.8254 8.7297
L10.8858 8.6692
" />
<path d="M10.8858 8.6692
L10.8858 8.7901
" />
<path d="M10.8858 8.0039
L10.9463 8.0644
" />
<path d="M10.9463 8.0644
L10.8858 8.1249
" />
<path d="M10.8858 8.1249
L10.8254 8.0644
" />
<path d="M10.8254 8.0644
L10.8858 8.0039
" />
<path d="M10.8858 8.0039
L10.8858 8.1249
" />
<path d="M12.3978 7.4597
L11.3092 9.0925
" />
<path d="M13.7283 7.4597
L12.6397 9.0925
" />
<path d="M14.0307 7.9435
L14.2726 8.7901
" />
<path d="M14.2726 8.7901
L14.5145 8.1854
" />
<path d="M14.5145 8.1854
L14.7564 8.7901
" />
<path d="M14.7564 8.7901
L14.9983 7.9435
" />
<path d="M15.3612 7.9435
L15.6031 8.7901
" />
<path d="M15.6031 8.7901
L15.8450 8.1854
" />
<path d="M15.8450 8.1854
L16.0869 8.7901
" />
<path d="M16.0869 8.7901
L16.3288 7.9435
" />
<path d="M17.4779 8.7901
L16.7522 8.7901
" />
<path d="M17.1150 8.7901
L17.1150 7.5201
" />
<path d="M17.1150 7.5201
L16.9941 7.7016
" />
<path d="M16.9941 7.7016
L16.8731 7.8225
" />
<path d="M16.8731 7.8225
L16.7522 7.8830
" />
<path d="M18.0221 8.6692
L18.0826 8.7297
" />
<path d="M18.0826 8.7297
L18.0221 8.7901
" />
<path d="M18.0221 8.7901
L17.9617 8.7297
" />
<path d="M17.9617 8.7297
L18.0221 8.6692
" />
<path d="M18.0221 8.6692
L18.0221 8.7901
" />
<path d="M18.6269 8.7901
L18.6269 7.9435
" />
<path d="M18.6269 8.0644
L18.6874 8.0039
" />
<path d="M18.6874 8.0039
L18.8084 7.9435
" />
<path d="M18.8084 7.9435
L18.9898 7.9435
" />
<path d="M18.9898 7.9435
L19.1107 8.0039
" />
<path d="M19.1107 8.0039
L19.1712 8.1249
" />
<path d="M19.1712 8.1249
L19.1712 8.7901
" />
<path d="M19.1712 8.1249
L19.2317 8.0039
" />
<path d="M19.2317 8.0039
L19.3526 7.9435
" />
<path d="M19.3526 7.9435
L19.5341 7.9435
" />
<path d="M19.5341 7.9435
L19.6550 8.0039
" />
<path d="M19.6550 8.0039
L19.7155 8.1249
" />
<path d="M19.7155 8.1249
L19.7155 8.7901
" />
<path d="M20.3202 8.7901
L20.3202 7.9435
" />
<path d="M20.3202 7.5201
L20.2598 7.5806
" />
<path d="M20.2598 7.5806
L20.3202 7.6411
" />
<path d="M20.3202 7.6411
L20.3807 7.5806
" />
<path d="M20.3807 7.5806
L20.3202 7.5201
" />
<path d="M20.3202 7.5201
L20.3202 7.6411
" />
<path d="M21.4693 8.7297
L21.3484 8.7901
" />
<path d="M21.3484 8.7901
L21.1065 8.7901
" />
<path d="M21.1065 8.7901
L20.9855 8.7297
" />
<path d="M20.9855 8.7297
L20.9250 8.6692
" />
<path d="M20.9250 8.6692
L20.8646 8.5482
" />
<path d="M20.8646 8.5482
L20.8646 8.1854
" />
<path d="M20.8646 8.1854
L20.9250 8.0644
" />
<path d="M20.9250 8.0644
L20.9855 8.0039
" />
<path d="M20.9855 8.0039
L21.1065 7.9435
" />
<path d="M21.1065 7.9435
L21.3484 7.9435
" />
<path d="M21.3484 7.9435
L21.4693 8.0039
" />
<path d="M22.0136 8.7901
L22.0136 7.9435
" />
<path d="M22.0136 8.1854
L22.0741 8.0644
" />
<path d="M22.0741 8.0644
L22.1346 8.0039
" />
<path d="M22.1346 8.0039
L22.2555 7.9435
" />
<path d="M22.2555 7.9435
L22.3765 7.9435
" />
<path d="M22.9813 8.7901
L22.8603 8.7297
" />
<path d="M22.8603 8.7297
L22.7998 8.6692
" />
<path d="M22.7998 8.6692
L22.7394 8.5482
" />
<path d="M22.7394 8.5482
L22.7394 8.1854
" />
<path d="M22.7394 8.1854
L22.7998 8.0644
" />
<path d="M22.7998 8.0644
L22.8603 8.0039
" />
<path d="M22.8603 8.0039
L22.9813 7.9435
" />
<path d="M22.9813 7.9435
L23.1627 7.9435
" />
<path d="M23.1627 7.9435
L23.2836 8.0039
" />
<path d="M23.2836 8.0039
L23.3441 8.0644
" />
<path d="M23.3441 8.0644
L23.4046 8.1854
" />
<path d="M23.4046 8.1854
L23.4046 8.5482
" />
<path d="M23.4046 8.5482
L23.3441 8.6692
" />
<path d="M23.3441 8.6692
L23.2836 8.7297
" />
<path d="M23.2836 8.7297
L23.1627 8.7901
" />
<path d="M23.1627 8.7901
L22.9813 8.7901
" />
<path d="M24.4931 8.7297
L24.3722 8.7901
" />
<path d="M24.3722 8.7901
L24.1303 8.7901
" />
<path d="M24.1303 8.7901
L24.0093 8.7297
" />
<path d="M24.0093 8.7297
L23.9488 8.6692
" />
<path d="M23.9488 8.6692
L23.8884 8.5482
" />
<path d="M23.8884 8.5482
L23.8884 8.1854
" />
<path d="M23.8884 8.1854
L23.9488 8.0644
" />
<path d="M23.9488 8.0644
L24.0093 8.0039
" />
<path d="M24.0093 8.0039
L24.1303 7.9435
" />
<path d="M24.1303 7.9435
L24.3722 7.9435
" />
<path d="M24.3722 7.9435
L24.4931 8.0039
" />
<path d="M25.0374 8.7901
L25.0374 7.5201
" />
<path d="M25.5817 8.7901
L25.5817 8.1249
" />
<path d="M25.5817 8.1249
L25.5212 8.0039
" />
<path d="M25.5212 8.0039
L25.4003 7.9435
" />
<path d="M25.4003 7.9435
L25.2189 7.9435
" />
<path d="M25.2189 7.9435
L25.0979 8.0039
" />
<path d="M25.0979 8.0039
L25.0374 8.0644
" />
<path d="M26.1864 8.7901
L26.1864 7.9435
" />
<path d="M26.1864 7.5201
L26.1260 7.5806
" />
<path d="M26.1260 7.5806
L26.1864 7.6411
" />
<path d="M26.1864 7.6411
L26.2469 7.5806
" />
<path d="M26.2469 7.5806
L26.1864 7.5201
" />
<path d="M26.1864 7.5201
L26.1864 7.6411
" />
<path d="M26.7912 7.9435
L26.7912 9.2135
" />
<path d="M26.7912 8.0039
L26.9122 7.9435
" />
<path d="M26.9122 7.9435
L27.1541 7.9435
" />
<path d="M27.1541 7.9435
L27.2750 8.0039
" />
<path d="M27.2750 8.0039
L27.3355 8.0644
" />
<path d="M27.3355 8.0644
L27.3960 8.1854
" />
<path d="M27.3960 8.1854
L27.3960 8.5482
" />
<path d="M27.3960 8.5482
L27.3355 8.6692
" />
<path d="M27.3355 8.6692
L27.2750 8.7297
" />
<path d="M27.2750 8.7297
L27.1541 8.7901
" />
<path d="M27.1541 8.7901
L26.9122 8.7901
" />
<path d="M26.9122 8.7901
L26.7912 8.7297
" />
<path d="M27.9402 8.6692
L28.0007 8.7297
" />
<path d="M28.0007 8.7297
L27.9402 8.7901
" />
<path d="M27.9402 8.7901
L27.8798 8.7297
" />
<path d="M27.8798 8.7297
L27.9402 8.6692
" />
<path d="M27.9402 8.6692
L27.9402 8.7901
" />
<path d="M29.0893 8.7297
L28.9684 8.7901
" />
<path d="M28.9684 8.7901
L28.7265 8.7901
" />
<path d="M28.7265 8.7901
L28.6055 8.7297
" />
<path d="M28.6055 8.7297
L28.5450 8.6692
" />
<path d="M28.5450 8.6692
L28.4846 8.5482
" />
<path d="M28.4846 8.5482
L28.4846 8.1854
" />
<path d="M28.4846 8.1854
L28.5450 8.0644
" />
<path d="M28.5450 8.0644
L28.6055 8.0039
" />
<path d="M28.6055 8.0039
L28.7265 7.9435
" />
<path d="M28.7265 7.9435
L28.9684 7.9435
" />
<path d="M28.9684 7.9435
L29.0893 8.0039
" />
<path d="M29.8151 8.7901
L29.6941 8.7297
" />
<path d="M29.6941 8.7297
L29.6336 8.6692
" />
<path d="M29.6336 8.6692
L29.5732 8.5482
" />
<path d="M29.5732 8.5482
L29.5732 8.1854
" />
<path d="M29.5732 8.1854
L29.6336 8.0644
" />
<path d="M29.6336 8.0644
L29.6941 8.0039
" />
<path d="M29.6941 8.0039
L29.8151 7.9435
" />
<path d="M29.8151 7.9435
L29.9965 7.9435
" />
<path d="M29.9965 7.9435
L30.1174 8.0039
" />
<path d="M30.1174 8.0039
L30.1779 8.0644
" />
<path d="M30.1779 8.0644
L30.2384 8.1854
" />
<path d="M30.2384 8.1854
L30.2384 8.5482
" />
<path d="M30.2384 8.5482
L30.1779 8.6692
" />
<path d="M30.1779 8.6692
L30.1174 8.7297
" />
<path d="M30.1174 8.7297
L29.9965 8.7901
" />
<path d="M29.9965 8.7901
L29.8151 8.7901
" />
<path d="M30.7826 8.7901
L30.7826 7.9435
" />
<path d="M30.7826 8.0644
L30.8431 8.0039
" />
<path d="M30.8431 8.0039
L30.9641 7.9435
" />
<path d="M30.9641 7.9435
L31.1455 7.9435
" />
<path d="M31.1455 7.9435
L31.2664 8.0039
" />
<path d="M31.2664 8.0039
L31.3269 8.1249
" />
<path d="M31.3269 8.1249
L31.3269 8.7901
" />
<path d="M31.3269 8.1249
L31.3874 8.0039
" />
<path d="M31.3874 8.0039
L31.5083 7.9435
" />
<path d="M31.5083 7.9435
L31.6898 7.9435
" />
<path d="M31.6898 7.9435
L31.8107 8.0039
" />
<path d="M31.8107 8.0039
L31.8712 8.1249
" />
<path d="M31.8712 8.1249
L31.8712 8.7901
" />
<path d="M33.3831 7.4597
L32.2945 9.0925
" />
<path d="M34.3507 8.7901
L34.3507 7.5201
" />
<path d="M34.3507 8.7297
L34.2298 8.7901
" />
<path d="M34.2298 8.7901
L33.9879 8.7901
" />
<path d="M33.9879 8.7901
L33.8669 8.7297
" />
<path d="M33.8669 8.7297
L33.8064 8.6692
" />
<path d="M33.8064 8.6692
L33.7460 8.5482
" />
<path d="M33.7460 8.5482
L33.7460 8.1854
" />
<path d="M33.7460 8.1854
L33.8064 8.0644
" />
<path d="M33.8064 8.0644
L33.8669 8.0039
" />
<path d="M33.8669 8.0039
L33.9879 7.9435
" />
<path d="M33.9879 7.9435
L34.2298 7.9435
" />
<path d="M34.2298 7.9435
L34.3507 8.0039
" />
<path d="M35.1369 8.7901
L35.0159 8.7297
" />
<path d="M35.0159 8.7297
L34.9554 8.6692
" />
<path d="M34.9554 8.6692
L34.8950 8.5482
" />
<path d="M34.8950 8.5482
L34.8950 8.1854
" />
<path d="M34.8950 8.1854
L34.9554 8.0644
" />
<path d="M34.9554 8.0644
L35.0159 8.0039
" />
<path d="M35.0159 8.0039
L35.1369 7.9435
" />
<path d="M35.1369 7.9435
L35.3183 7.9435
" />
<path d="M35.3183 7.9435
L35.4392 8.0039
" />
<path d="M35.4392 8.0039
L35.4997 8.0644
" />
<path d="M35.4997 8.0644
L35.5602 8.1854
" />
<path d="M35.5602 8.1854
L35.5602 8.5482
" />
<path d="M35.5602 8.5482
L35.4997 8.6692
" />
<path d="M35.4997 8.6692
L35.4392 8.7297
" />
<path d="M35.4392 8.7297
L35.3183 8.7901
" />
<path d="M35.3183 8.7901
L35.1369 8.7901
" />
<path d="M35.9835 7.9435
L36.2254 8.7901
" />
<path d="M36.2254 8.7901
L36.4673 8.1854
" />
<path d="M36.4673 8.1854
L36.7092 8.7901
" />
<path d="M36.7092 8.7901
L36.9511 7.9435
" />
<path d="M37.4349 7.9435
L37.4349 8.7901
" />
<path d="M37.4349 8.0644
L37.4954 8.0039
" />
<path d="M37.4954 8.0039
L37.6164 7.9435
" />
<path d="M37.6164 7.9435
L37.7978 7.9435
" />
<path d="M37.7978 7.9435
L37.9187 8.0039
" />
<path d="M37.9187 8.0039
L37.9792 8.1249
" />
<path d="M37.9792 8.1249
L37.9792 8.7901
" />
<path d="M38.7654 8.7901
L38.6444 8.7297
" />
<path d="M38.6444 8.7297
L38.5839 8.6087
" />
<path d="M38.5839 8.6087
L38.5839 7.5201
" />
<path d="M39.4306 8.7901
L39.3096 8.7297
" />
<path d="M39.3096 8.7297
L39.2491 8.6692
" />
<path d="M39.2491 8.6692
L39.1887 8.5482
" />
<path d="M39.1887 8.5482
L39.1887 8.1854
" />
<path d="M39.1887 8.1854
L39.2491 8.0644
" />
<path d="M39.2491 8.0644
L39.3096 8.0039
" />
<path d="M39.3096 8.0039
L39.4306 7.9435
" />
<path d="M39.4306 7.9435
L39.6120 7.9435
" />
<path d="M39.6120 7.9435
L39.7329 8.0039
" />
<path d="M39.7329 8.0039
L39.7934 8.0644
" />
<path d="M39.7934 8.0644
L39.8539 8.1854
" />
<path d="M39.8539 8.1854
L39.8539 8.5482
" />
<path d="M39.8539 8.5482
L39.7934 8.6692
" />
<path d="M39.7934 8.6692
L39.7329 8.7297
" />
<path d="M39.7329 8.7297
L39.6120 8.7901
" />
<path d="M39.6120 8.7901
L39.4306 8.7901
" />
<path d="M40.9424 8.7901
L40.9424 8.1249
" />
<path d="M40.9424 8.1249
L40.8819 8.0039
" />
<path d="M40.8819 8.0039
L40.7610 7.9435
" />
<path d="M40.7610 7.9435
L40.5191 7.9435
" />
<path d="M40.5191 7.9435
L40.3981 8.0039
" />
<path d="M40.9424 8.7297
L40.8215 8.7901
" />
<path d="M40.8215 8.7901
L40.5191 8.7901
" />
<path d="M40.5191 8.7901
L40.3981 8.7297
" />
<path d="M40.3981 8.7297
L40.3377 8.6087
" />
<path d="M40.3377 8.6087
L40.3377 8.4877
" />
<path d="M40.3377 8.4877
L40.3981 8.3668
" />
<path d="M40.3981 8.3668
L40.5191 8.3063
" />
<path d="M40.5191 8.3063
L40.8215 8.3063
" />
<path d="M40.8215 8.3063
L40.9424 8.2458
" />
<path d="M42.0914 8.7901
L42.0914 7.5201
" />
<path d="M42.0914 8.7297
L41.9705 8.7901
" />
<path d="M41.9705 8.7901
L41.7286 8.7901
" />
<path d="M41.7286 8.7901
L41.6076 8.7297
" />
<path d="M41.6076 8.7297
L41.5471 8.6692
" />
<path d="M41.5471 8.6692
L41.4867 8.5482
" />
<path d="M41.4867 8.5482
L41.4867 8.1854
" />
<path d="M41.4867 8.1854
L41.5471 8.0644
" />
<path d="M41.5471 8.0644
L41.6076 8.0039
" />
<path d="M41.6076 8.0039
L41.7286 7.9435
" />
<path d="M41.7286 7.9435
L41.9705 7.9435
" />
<path d="M41.9705 7.9435
L42.0914 8.0039
" />
<path d="M42.6357 8.7297
L42.7566 8.7901
" />
<path d="M42.7566 8.7901
L42.9985 8.7901
" />
<path d="M42.9985 8.7901
L43.1195 8.7297
" />
<path d="M43.1195 8.7297
L43.1799 8.6087
" />
<path d="M43.1799 8.6087
L43.1799 8.5482
" />
<path d="M43.1799 8.5482
L43.1195 8.4273
" />
<path d="M43.1195 8.4273
L42.9985 8.3668
" />
<path d="M42.9985 8.3668
L42.8171 8.3668
" />
<path d="M42.8171 8.3668
L42.6961 8.3063
" />
<path d="M42.6961 8.3063
L42.6357 8.1854
" />
<path d="M42.6357 8.1854
L42.6357 8.1249
" />
<path d="M42.6357 8.1249
L42.6961 8.0039
" />
<path d="M42.6961 8.0039
L42.8171 7.9435
" />
<path d="M42.8171 7.9435
L42.9985 7.9435
" />
<path d="M42.9985 7.9435
L43.1195 8.0039
" />
<path d="M44.6314 7.4597
L43.5428 9.0925
" />
<path d="M45.5385 8.7297
L45.4176 8.7901
" />
<path d="M45.4176 8.7901
L45.1757 8.7901
" />
<path d="M45.1757 8.7901
L45.0547 8.7297
" />
<path d="M45.0547 8.7297
L44.9943 8.6087
" />
<path d="M44.9943 8.6087
L44.9943 8.1249
" />
<path d="M44.9943 8.1249
L45.0547 8.0039
" />
<path d="M45.0547 8.0039
L45.1757 7.9435
" />
<path d="M45.1757 7.9435
L45.4176 7.9435
" />
<path d="M45.4176 7.9435
L45.5385 8.0039
" />
<path d="M45.5385 8.0039
L45.5990 8.1249
" />
<path d="M45.5990 8.1249
L45.5990 8.2458
" />
<path d="M45.5990 8.2458
L44.9943 8.3668
" />
<path d="M46.1433 7.9435
L46.1433 8.7901
" />
<path d="M46.1433 8.0644
L46.2038 8.0039
" />
<path d="M46.2038 8.0039
L46.3248 7.9435
" />
<path d="M46.3248 7.9435
L46.5062 7.9435
" />
<path d="M46.5062 7.9435
L46.6271 8.0039
" />
<path d="M46.6271 8.0039
L46.6876 8.1249
" />
<path d="M46.6876 8.1249
L46.6876 8.7901
" />
<path d="M48.1995 7.4597
L47.1109 9.0925
" />
<path d="M48.6228 8.7901
L48.6228 7.5201
" />
<path d="M48.6228 7.5201
L48.9252 7.5201
" />
<path d="M48.9252 7.5201
L49.1066 7.5806
" />
<path d="M49.1066 7.5806
L49.2276 7.7016
" />
<path d="M49.2276 7.7016
L49.2881 7.8225
" />
<path d="M49.2881 7.8225
L49.3485 8.0644
" />
<path d="M49.3485 8.0644
L49.3485 8.2458
" />
<path d="M49.3485 8.2458
L49.2881 8.4877
" />
<path d="M49.2881 8.4877
L49.2276 8.6087
" />
<path d="M49.2276 8.6087
L49.1066 8.7297
" />
<path d="M49.1066 8.7297
L48.9252 8.7901
" />
<path d="M48.9252 8.7901
L48.6228 8.7901
" />
<path d="M50.3766 8.7297
L50.2557 8.7901
" />
<path d="M50.2557 8.7901
L50.0138 8.7901
" />
<path d="M50.0138 8.7901
L49.8928 8.7297
" />
<path d="M49.8928 8.7297
L49.8324 8.6087
" />
<path d="M49.8324 8.6087
L49.8324 8.1249
" />
<path d="M49.8324 8.1249
L49.8928 8.0039
" />
<path d="M49.8928 8.0039
L50.0138 7.9435
" />
<path d="M50.0138 7.9435
L50.2557 7.9435
" />
<path d="M50.2557 7.9435
L50.3766 8.0039
" />
<path d="M50.3766 8.0039
L50.4371 8.1249
" />
<path d="M50.4371 8.1249
L50.4371 8.2458
" />
<path d="M50.4371 8.2458
L49.8324 8.3668
" />
<path d="M50.8605 7.9435
L51.1629 8.7901
" />
<path d="M51.1629 8.7901
L51.4652 7.9435
" />
<path d="M51.9490 8.7901
L51.9490 7.9435
" />
<path d="M51.9490 7.5201
L51.8886 7.5806
" />
<path d="M51.8886 7.5806
L51.9490 7.6411
" />
<path d="M51.9490 7.6411
L52.0095 7.5806
" />
<path d="M52.0095 7.5806
L51.9490 7.5201
" />
<path d="M51.9490 7.5201
L51.9490 7.6411
" />
<path d="M53.0981 8.7297
L52.9772 8.7901
" />
<path d="M52.9772 8.7901
L52.7353 8.7901
" />
<path d="M52.7353 8.7901
L52.6143 8.7297
" />
<path d="M52.6143 8.7297
L52.5538 8.6692
" />
<path d="M52.5538 8.6692
L52.4934 8.5482
" />
<path d="M52.4934 8.5482
L52.4934 8.1854
" />
<path d="M52.4934 8.1854
L52.5538 8.0644
" />
<path d="M52.5538 8.0644
L52.6143 8.0039
" />
<path d="M52.6143 8.0039
L52.7353 7.9435
" />
<path d="M52.7353 7.9435
L52.9772 7.9435
" />
<path d="M52.9772 7.9435
L53.0981 8.0039
" />
<path d="M54.1262 8.7297
L54.0053 8.7901
" />
<path d="M54.0053 8.7901
L53.7634 8.7901
" />
<path d="M53.7634 8.7901
L53.6424 8.7297
" />
<path d="M53.6424 8.7297
L53.5820 8.6087
" />
<path d="M53.5820 8.6087
L53.5820 8.1249
" />
<path d="M53.5820 8.1249
L53.6424 8.0039
" />
<path d="M53.6424 8.0039
L53.7634 7.9435
" />
<path d="M53.7634 7.9435
L54.0053 7.9435
" />
<path d="M54.0053 7.9435
L54.1262 8.0039
" />
<path d="M54.1262 8.0039
L54.1867 8.1249
" />
<path d="M54.1867 8.1249
L54.1867 8.2458
" />
<path d="M54.1867 8.2458
L53.5820 8.3668
" />
<path d="M54.7310 8.7901
L54.7310 7.5201
" />
<path d="M54.7310 7.5201
L55.0334 7.5201
" />
<path d="M55.0334 7.5201
L55.2148 7.5806
" />
<path d="M55.2148 7.5806
L55.3358 7.7016
" />
<path d="M55.3358 7.7016
L55.3963 7.8225
" />
<path d="M55.3963 7.8225
L55.4567 8.0644
" />
<path d="M55.4567 8.0644
L55.4567 8.2458
" />
<path d="M55.4567 8.2458
L55.3963 8.4877
" />
<path d="M55.3963 8.4877
L55.3358 8.6087
" />
<path d="M55.3358 8.6087
L55.2148 8.7297
" />
<path d="M55.2148 8.7297
L55.0334 8.7901
" />
<path d="M55.0334 8.7901
L54.7310 8.7901
" />
<path d="M56.1825 8.7901
L56.0615 8.7297
" />
<path d="M56.0615 8.7297
L56.0010 8.6692
" />
<path d="M56.0010 8.6692
L55.9406 8.5482
" />
<path d="M55.9406 8.5482
L55.9406 8.1854
" />
<path d="M55.9406 8.1854
L56.0010 8.0644
" />
<path d="M56.0010 8.0644
L56.0615 8.0039
" />
<path d="M56.0615 8.0039
L56.1825 7.9435
" />
<path d="M56.1825 7.9435
L56.3639 7.9435
" />
<path d="M56.3639 7.9435
L56.4848 8.0039
" />
<path d="M56.4848 8.0039
L56.5453 8.0644
" />
<path d="M56.5453 8.0644
L56.6058 8.1854
" />
<path d="M56.6058 8.1854
L56.6058 8.5482
" />
<path d="M56.6058 8.5482
L56.5453 8.6692
" />
<path d="M56.5453 8.6692
L56.4848 8.7297
" />
<path d="M56.4848 8.7297
L56.3639 8.7901
" />
<path d="M56.3639 8.7901
L56.1825 8.7901
" />
<path d="M57.6943 8.7297
L57.5734 8.7901
" />
<path d="M57.5734 8.7901
L57.3315 8.7901
" />
<path d="M57.3315 8.7901
L57.2105 8.7297
" />
<path d="M57.2105 8.7297
L57.1500 8.6692
" />
<path d="M57.1500 8.6692
L57.0896 8.5482
" />
<path d="M57.0896 8.5482
L57.0896 8.1854
" />
<path d="M57.0896 8.1854
L57.1500 8.0644
" />
<path d="M57.1500 8.0644
L57.2105 8.0039
" />
<path d="M57.2105 8.0039
L57.3315 7.9435
" />
<path d="M57.3315 7.9435
L57.5734 7.9435
" />
<path d="M57.5734 7.9435
L57.6943 8.0039
" />
<path d="M59.1458 7.4597
L58.0572 9.0925
" />
<path d="M59.5087 7.6411
L59.5691 7.5806
" />
<path d="M59.5691 7.5806
L59.6901 7.5201
" />
<path d="M59.6901 7.5201
L59.9925 7.5201
" />
<path d="M59.9925 7.5201
L60.1134 7.5806
" />
<path d="M60.1134 7.5806
L60.1739 7.6411
" />
<path d="M60.1739 7.6411
L60.2344 7.7620
" />
<path d="M60.2344 7.7620
L60.2344 7.8830
" />
<path d="M60.2344 7.8830
L60.1739 8.0644
" />
<path d="M60.1739 8.0644
L59.4482 8.7901
" />
<path d="M59.4482 8.7901
L60.2344 8.7901
" />
<path d="M61.0205 7.5201
L61.1415 7.5201
" />
<path d="M61.1415 7.5201
L61.2624 7.5806
" />
<path d="M61.2624 7.5806
L61.3229 7.6411
" />
<path d="M61.3229 7.6411
L61.3834 7.7620
" />
<path d="M61.3834 7.7620
L61.4439 8.0039
" />
<path d="M61.4439 8.0039
L61.4439 8.3063
" />
<path d="M61.4439 8.3063
L61.3834 8.5482
" />
<path d="M61.3834 8.5482
L61.3229 8.6692
" />
<path d="M61.3229 8.6692
L61.2624 8.7297
" />
<path d="M61.2624 8.7297
L61.1415 8.7901
" />
<path d="M61.1415 8.7901
L61.0205 8.7901
" />
<path d="M61.0205 8.7901
L60.8996 8.7297
" />
<path d="M60.8996 8.7297
L60.8391 8.6692
" />
<path d="M60.8391 8.6692
L60.7786 8.5482
" />
<path d="M60.7786 8.5482
L60.7182 8.3063
" />
<path d="M60.7182 8.3063
L60.7182 8.0039
" />
<path d="M60.7182 8.0039
L60.7786 7.7620
" />
<path d="M60.7786 7.7620
L60.8391 7.6411
" />
<path d="M60.8391 7.6411
L60.8996 7.5806
" />
<path d="M60.8996 7.5806
L61.0205 7.5201
" />
<path d="M62.2300 7.5201
L62.3510 7.5201
" />
<path d="M62.3510 7.5201
L62.4719 7.5806
" />
<path d="M62.4719 7.5806
L62.5324 7.6411
" />
<path d="M62.5324 7.6411
L62.5929 7.7620
" />
<path d="M62.5929 7.7620
L62.6534 8.0039
" />
<path d="M62.6534 8.0039
L62.6534 8.3063
" />
<path d="M62.6534 8.3063
L62.5929 8.5482
" />
<path d="M62.5929 8.5482
L62.5324 8.6692
" />
<path d="M62.5324 8.6692
L62.4719 8.7297
" />
<path d="M62.4719 8.7297
L62.3510 8.7901
" />
<path d="M62.3510 8.7901
L62.2300 8.7901
" />
<path d="M62.2300 8.7901
L62.1091 8.7297
" />
<path d="M62.1091 8.7297
L62.0486 8.6692
" />
<path d="M62.0486 8.6692
L61.9881 8.5482
" />
<path d="M61.9881 8.5482
L61.9277 8.3063
" />
<path d="M61.9277 8.3063
L61.9277 8.0039
" />
<path d="M61.9277 8.0039
L61.9881 7.7620
" />
<path d="M61.9881 7.7620
L62.0486 7.6411
" />
<path d="M62.0486 7.6411
L62.1091 7.5806
" />
<path d="M62.1091 7.5806
L62.2300 7.5201
" />
<path d="M63.4395 7.5201
L63.5605 7.5201
" />
<path d="M63.5605 7.5201
L63.6814 7.5806
" />
<path d="M63.6814 7.5806
L63.7419 7.6411
" />
<path d="M63.7419 7.6411
L63.8024 7.7620
" />
<path d="M63.8024 7.7620
L63.8629 8.0039
" />
<path d="M63.8629 8.0039
L63.8629 8.3063
" />
<path d="M63.8629 8.3063
L63.8024 8.5482
" />
<path d="M63.8024 8.5482
L63.7419 8.6692
" />
<path d="M63.7419 8.6692
L63.6814 8.7297
" />
<path d="M63.6814 8.7297
L63.5605 8.7901
" />
<path d="M63.5605 8.7901
L63.4395 8.7901
" />
<path d="M63.4395 8.7901
L63.3186 8.7297
" />
<path d="M63.3186 8.7297
L63.2581 8.6692
" />
<path d="M63.2581 8.6692
L63.1976 8.5482
" />
<path d="M63.1976 8.5482
L63.1372 8.3063
" />
<path d="M63.1372 8.3063
L63.1372 8.0039
" />
<path d="M63.1372 8.0039
L63.1976 7.7620
" />
<path d="M63.1976 7.7620
L63.2581 7.6411
" />
<path d="M63.2581 7.6411
L63.3186 7.5806
" />
<path d="M63.3186 7.5806
L63.4395 7.5201
" />
<path d="M64.3467 7.6411
L64.4071 7.5806
" />
<path d="M64.4071 7.5806
L64.5281 7.5201
" />
<path d="M64.5281 7.5201
L64.8305 7.5201
" />
<path d="M64.8305 7.5201
L64.9514 7.5806
" />
<path d="M64.9514 7.5806
L65.0119 7.6411
" />
<path d="M65.0119 7.6411
L65.0724 7.7620
" />
<path d="M65.0724 7.7620
L65.0724 7.8830
" />
<path d="M65.0724 7.8830
L65.0119 8.0644
" />
<path d="M65.0119 8.0644
L64.2862 8.7901
" />
<path d="M64.2862 8.7901
L65.0724 8.7901
" />
<path d="M65.5562 7.6411
L65.6166 7.5806
" />
<path d="M65.6166 7.5806
L65.7376 7.5201
" />
<path d="M65.7376 7.5201
L66.0400 7.5201
" />
<path d="M66.0400 7.5201
L66.1609 7.5806
" />
<path d="M66.1609 7.5806
L66.2214 7.6411
" />
<path d="M66.2214 7.6411
L66.2819 7.7620
" />
<path d="M66.2819 7.7620
L66.2819 7.8830
" />
<path d="M66.2819 7.8830
L66.2214 8.0644
" />
<path d="M66.2214 8.0644
L65.4957 8.7901
" />
<path d="M65.4957 8.7901
L66.2819 8.7901
" />
<path d="M67.0680 7.5201
L67.1890 7.5201
" />
<path d="M67.1890 7.5201
L67.3099 7.5806
" />
<path d="M67.3099 7.5806
L67.3704 7.6411
" />
<path d="M67.3704 7.6411
L67.4309 7.7620
" />
<path d="M67.4309 7.7620
L67.4914 8.0039
" />
<path d="M67.4914 8.0039
L67.4914 8.3063
" />
<path d="M67.4914 8.3063
L67.4309 8.5482
" />
<path d="M67.4309 8.5482
L67.3704 8.6692
" />
<path d="M67.3704 8.6692
L67.3099 8.7297
" />
<path d="M67.3099 8.7297
L67.1890 8.7901
" />
<path d="M67.1890 8.7901
L67.0680 8.7901
" />
<path d="M67.0680 8.7901
L66.9471 8.7297
" />
<path d="M66.9471 8.7297
L66.8866 8.6692
" />
<path d="M66.8866 8.6692
L66.8261 8.5482
" />
<path d="M66.8261 8.5482
L66.7657 8.3063
" />
<path d="M66.7657 8.3063
L66.7657 8.0039
" />
<path d="M66.7657 8.0039
L66.8261 7.7620
" />
<path d="M66.8261 7.7620
L66.8866 7.6411
" />
<path d="M66.8866 7.6411
L66.9471 7.5806
" />
<path d="M66.9471 7.5806
L67.0680 7.5201
" />
<path d="M68.2775 7.5201
L68.3985 7.5201
" />
<path d="M68.3985 7.5201
L68.5194 7.5806
" />
<path d="M68.5194 7.5806
L68.5799 7.6411
" />
<path d="M68.5799 7.6411
L68.6404 7.7620
" />
<path d="M68.6404 7.7620
L68.7009 8.0039
" />
<path d="M68.7009 8.0039
L68.7009 8.3063
" />
<path d="M68.7009 8.3063
L68.6404 8.5482
" />
<path d="M68.6404 8.5482
L68.5799 8.6692
" />
<path d="M68.5799 8.6692
L68.5194 8.7297
" />
<path d="M68.5194 8.7297
L68.3985 8.7901
" />
<path d="M68.3985 8.7901
L68.2775 8.7901
" />
<path d="M68.2775 8.7901
L68.1566 8.7297
" />
<path d="M68.1566 8.7297
L68.0961 8.6692
" />
<path d="M68.0961 8.6692
L68.0356 8.5482
" />
<path d="M68.0356 8.5482
L67.9752 8.3063
" />
<path d="M67.9752 8.3063
L67.9752 8.0039
" />
<path d="M67.9752 8.0039
L68.0356 7.7620
" />
<path d="M68.0356 7.7620
L68.0961 7.6411
" />
<path d="M68.0961 7.6411
L68.1566 7.5806
" />
<path d="M68.1566 7.5806
L68.2775 7.5201
" />
<path d="M69.2451 8.7901
L69.2451 7.5201
" />
<path d="M69.2451 7.5201
L69.5475 7.5201
" />
<path d="M69.5475 7.5201
L69.7289 7.5806
" />
<path d="M69.7289 7.5806
L69.8499 7.7016
" />
<path d="M69.8499 7.7016
L69.9104 7.8225
" />
<path d="M69.9104 7.8225
L69.9708 8.0644
" />
<path d="M69.9708 8.0644
L69.9708 8.2458
" />
<path d="M69.9708 8.2458
L69.9104 8.4877
" />
<path d="M69.9104 8.4877
L69.8499 8.6087
" />
<path d="M69.8499 8.6087
L69.7289 8.7297
" />
<path d="M69.7289 8.7297
L69.5475 8.7901
" />
<path d="M69.5475 8.7901
L69.2451 8.7901
" />
<path d="M70.5151 8.6692
L70.5756 8.7297
" />
<path d="M70.5756 8.7297
L70.5151 8.7901
" />
<path d="M70.5151 8.7901
L70.4547 8.7297
" />
<path d="M70.4547 8.7297
L70.5151 8.6692
" />
<path d="M70.5151 8.6692
L70.5151 8.7901
" />
<path d="M71.1199 7.9435
L71.1199 9.2135
" />
<path d="M71.1199 8.0039
L71.2409 7.9435
" />
<path d="M71.2409 7.9435
L71.4828 7.9435
" />
<path d="M71.4828 7.9435
L71.6037 8.0039
" />
<path d="M71.6037 8.0039
L71.6642 8.0644
" />
<path d="M71.6642 8.0644
L71.7247 8.1854
" />
<path d="M71.7247 8.1854
L71.7247 8.5482
" />
<path d="M71.7247 8.5482
L71.6642 8.6692
" />
<path d="M71.6642 8.6692
L71.6037 8.7297
" />
<path d="M71.6037 8.7297
L71.4828 8.7901
" />
<path d="M71.4828 8.7901
L71.2409 8.7901
" />
<path d="M71.2409 8.7901
L71.1199 8.7297
" />
<path d="M72.8132 8.7901
L72.8132 7.5201
" />
<path d="M72.8132 8.7297
L72.6923 8.7901
" />
<path d="M72.6923 8.7901
L72.4504 8.7901
" />
<path d="M72.4504 8.7901
L72.3294 8.7297
" />
<path d="M72.3294 8.7297
L72.2689 8.6692
" />
<path d="M72.2689 8.6692
L72.2085 8.5482
" />
<path d="M72.2085 8.5482
L72.2085 8.1854
" />
<path d="M72.2085 8.1854
L72.2689 8.0644
" />
<path d="M72.2689 8.0644
L72.3294 8.0039
" />
<path d="M72.3294 8.0039
L72.4504 7.9435
" />
<path d="M72.4504 7.9435
L72.6923 7.9435
" />
<path d="M72.6923 7.9435
L72.8132 8.0039
" />
<path d="M73.2365 7.9435
L73.7203 7.9435
" />
<path d="M73.4179 8.7901
L73.4179 7.7016
" />
<path d="M73.4179 7.7016
L73.4784 7.5806
" />
<path d="M73.4784 7.5806
L73.5994 7.5201
" />
<path d="M73.5994 7.5201
L73.7203 7.5201
" />
</g></g> 
</svg>
