<?xml version="1.0" standalone="no"?>
 <!DOCTYPE svg PUBLIC "-//W3C//DTD SVG 1.1//EN" 
 "http://www.w3.org/Graphics/SVG/1.1/DTD/svg11.dtd"> 
<svg
  xmlns:svg="http://www.w3.org/2000/svg"
  xmlns="http://www.w3.org/2000/svg"
  xmlns:xlink="http://www.w3.org/1999/xlink"
  version="1.1"
  width="92.3798mm" height="60.3758mm" viewBox="0.0000 0.0000 92.3798 60.3758">
<title>SVG Image created as working.svg date 2023/08/19 18:20:28 </title>
  <desc>Image generated by Eeschema-SVG </desc>
<g style="fill:#000000; fill-opacity:1.0000;stroke:#000000; stroke-opacity:1.0000;
stroke-linecap:round; stroke-linejoin:round;"
 transform="translate(0 0) scale(1 1)">
</g>
<g style="fill:#840000; fill-opacity:0.0; 
stroke:#840000; stroke-width:0.0000; stroke-opacity:1; 
stroke-linecap:round; stroke-linejoin:round;">
</g>
<g style="fill:#840084; fill-opacity:0.0; 
stroke:#840084; stroke-width:0.0000; stroke-opacity:1; 
stroke-linecap:round; stroke-linejoin:round;">
</g>
<g style="fill:#840000; fill-opacity:0.0; 
stroke:#840000; stroke-width:0.0000; stroke-opacity:1; 
stroke-linecap:round; stroke-linejoin:round;">
</g>
<g style="fill:#840084; fill-opacity:0.0; 
stroke:#840084; stroke-width:0.0000; stroke-opacity:1; 
stroke-linecap:round; stroke-linejoin:round;">
</g>
<g style="fill:#006464; fill-opacity:0.0; 
stroke:#006464; stroke-width:0.0000; stroke-opacity:1; 
stroke-linecap:round; stroke-linejoin:round;">
</g>
<g style="fill:#006464; fill-opacity:0.0; 
stroke:#006464; stroke-width:0.1588; stroke-opacity:1; 
stroke-linecap:round; stroke-linejoin:round;">
<text x="16.2665" y="6.6869"
textLength="3.1858" font-size="1.6933" lengthAdjust="spacingAndGlyphs"
text-anchor="middle" opacity="0">IC?</text>
<g class="stroked-text"><desc>IC?</desc>
<path d="M15.0871 6.6311
L15.0871 5.3611
" />
<path d="M16.4176 6.5102
L16.3572 6.5707
" />
<path d="M16.3572 6.5707
L16.1757 6.6311
" />
<path d="M16.1757 6.6311
L16.0548 6.6311
" />
<path d="M16.0548 6.6311
L15.8734 6.5707
" />
<path d="M15.8734 6.5707
L15.7524 6.4497
" />
<path d="M15.7524 6.4497
L15.6919 6.3287
" />
<path d="M15.6919 6.3287
L15.6315 6.0868
" />
<path d="M15.6315 6.0868
L15.6315 5.9054
" />
<path d="M15.6315 5.9054
L15.6919 5.6635
" />
<path d="M15.6919 5.6635
L15.7524 5.5426
" />
<path d="M15.7524 5.5426
L15.8734 5.4216
" />
<path d="M15.8734 5.4216
L16.0548 5.3611
" />
<path d="M16.0548 5.3611
L16.1757 5.3611
" />
<path d="M16.1757 5.3611
L16.3572 5.4216
" />
<path d="M16.3572 5.4216
L16.4176 5.4821
" />
<path d="M17.1434 6.5102
L17.2038 6.5707
" />
<path d="M17.2038 6.5707
L17.1434 6.6311
" />
<path d="M17.1434 6.6311
L17.0829 6.5707
" />
<path d="M17.0829 6.5707
L17.1434 6.5102
" />
<path d="M17.1434 6.5102
L17.1434 6.6311
" />
<path d="M16.9015 5.4216
L17.0224 5.3611
" />
<path d="M17.0224 5.3611
L17.3248 5.3611
" />
<path d="M17.3248 5.3611
L17.4457 5.4216
" />
<path d="M17.4457 5.4216
L17.5062 5.5426
" />
<path d="M17.5062 5.5426
L17.5062 5.6635
" />
<path d="M17.5062 5.6635
L17.4457 5.7845
" />
<path d="M17.4457 5.7845
L17.3853 5.8449
" />
<path d="M17.3853 5.8449
L17.2643 5.9054
" />
<path d="M17.2643 5.9054
L17.2038 5.9659
" />
<path d="M17.2038 5.9659
L17.1434 6.0868
" />
<path d="M17.1434 6.0868
L17.1434 6.1473
" />
</g><text x="47.1894" y="6.6869"
textLength="16.2484" font-size="1.6933" lengthAdjust="spacingAndGlyphs"
text-anchor="middle" opacity="0">MC9S08SH16xWL</text>
<g class="stroked-text"><desc>MC9S08SH16xWL</desc>
<path d="M39.4787 6.6311
L39.4787 5.3611
" />
<path d="M39.4787 5.3611
L39.9021 6.2683
" />
<path d="M39.9021 6.2683
L40.3254 5.3611
" />
<path d="M40.3254 5.3611
L40.3254 6.6311
" />
<path d="M41.6558 6.5102
L41.5954 6.5707
" />
<path d="M41.5954 6.5707
L41.4139 6.6311
" />
<path d="M41.4139 6.6311
L41.2930 6.6311
" />
<path d="M41.2930 6.6311
L41.1116 6.5707
" />
<path d="M41.1116 6.5707
L40.9906 6.4497
" />
<path d="M40.9906 6.4497
L40.9301 6.3287
" />
<path d="M40.9301 6.3287
L40.8697 6.0868
" />
<path d="M40.8697 6.0868
L40.8697 5.9054
" />
<path d="M40.8697 5.9054
L40.9301 5.6635
" />
<path d="M40.9301 5.6635
L40.9906 5.5426
" />
<path d="M40.9906 5.5426
L41.1116 5.4216
" />
<path d="M41.1116 5.4216
L41.2930 5.3611
" />
<path d="M41.2930 5.3611
L41.4139 5.3611
" />
<path d="M41.4139 5.3611
L41.5954 5.4216
" />
<path d="M41.5954 5.4216
L41.6558 5.4821
" />
<path d="M42.2606 6.6311
L42.5025 6.6311
" />
<path d="M42.5025 6.6311
L42.6235 6.5707
" />
<path d="M42.6235 6.5707
L42.6839 6.5102
" />
<path d="M42.6839 6.5102
L42.8049 6.3287
" />
<path d="M42.8049 6.3287
L42.8654 6.0868
" />
<path d="M42.8654 6.0868
L42.8654 5.6030
" />
<path d="M42.8654 5.6030
L42.8049 5.4821
" />
<path d="M42.8049 5.4821
L42.7444 5.4216
" />
<path d="M42.7444 5.4216
L42.6235 5.3611
" />
<path d="M42.6235 5.3611
L42.3816 5.3611
" />
<path d="M42.3816 5.3611
L42.2606 5.4216
" />
<path d="M42.2606 5.4216
L42.2001 5.4821
" />
<path d="M42.2001 5.4821
L42.1397 5.6030
" />
<path d="M42.1397 5.6030
L42.1397 5.9054
" />
<path d="M42.1397 5.9054
L42.2001 6.0264
" />
<path d="M42.2001 6.0264
L42.2606 6.0868
" />
<path d="M42.2606 6.0868
L42.3816 6.1473
" />
<path d="M42.3816 6.1473
L42.6235 6.1473
" />
<path d="M42.6235 6.1473
L42.7444 6.0868
" />
<path d="M42.7444 6.0868
L42.8049 6.0264
" />
<path d="M42.8049 6.0264
L42.8654 5.9054
" />
<path d="M43.3492 6.5707
L43.5306 6.6311
" />
<path d="M43.5306 6.6311
L43.8330 6.6311
" />
<path d="M43.8330 6.6311
L43.9539 6.5707
" />
<path d="M43.9539 6.5707
L44.0144 6.5102
" />
<path d="M44.0144 6.5102
L44.0749 6.3892
" />
<path d="M44.0749 6.3892
L44.0749 6.2683
" />
<path d="M44.0749 6.2683
L44.0144 6.1473
" />
<path d="M44.0144 6.1473
L43.9539 6.0868
" />
<path d="M43.9539 6.0868
L43.8330 6.0264
" />
<path d="M43.8330 6.0264
L43.5911 5.9659
" />
<path d="M43.5911 5.9659
L43.4701 5.9054
" />
<path d="M43.4701 5.9054
L43.4096 5.8449
" />
<path d="M43.4096 5.8449
L43.3492 5.7240
" />
<path d="M43.3492 5.7240
L43.3492 5.6030
" />
<path d="M43.3492 5.6030
L43.4096 5.4821
" />
<path d="M43.4096 5.4821
L43.4701 5.4216
" />
<path d="M43.4701 5.4216
L43.5911 5.3611
" />
<path d="M43.5911 5.3611
L43.8934 5.3611
" />
<path d="M43.8934 5.3611
L44.0749 5.4216
" />
<path d="M44.8610 5.3611
L44.9820 5.3611
" />
<path d="M44.9820 5.3611
L45.1029 5.4216
" />
<path d="M45.1029 5.4216
L45.1634 5.4821
" />
<path d="M45.1634 5.4821
L45.2239 5.6030
" />
<path d="M45.2239 5.6030
L45.2844 5.8449
" />
<path d="M45.2844 5.8449
L45.2844 6.1473
" />
<path d="M45.2844 6.1473
L45.2239 6.3892
" />
<path d="M45.2239 6.3892
L45.1634 6.5102
" />
<path d="M45.1634 6.5102
L45.1029 6.5707
" />
<path d="M45.1029 6.5707
L44.9820 6.6311
" />
<path d="M44.9820 6.6311
L44.8610 6.6311
" />
<path d="M44.8610 6.6311
L44.7401 6.5707
" />
<path d="M44.7401 6.5707
L44.6796 6.5102
" />
<path d="M44.6796 6.5102
L44.6191 6.3892
" />
<path d="M44.6191 6.3892
L44.5587 6.1473
" />
<path d="M44.5587 6.1473
L44.5587 5.8449
" />
<path d="M44.5587 5.8449
L44.6191 5.6030
" />
<path d="M44.6191 5.6030
L44.6796 5.4821
" />
<path d="M44.6796 5.4821
L44.7401 5.4216
" />
<path d="M44.7401 5.4216
L44.8610 5.3611
" />
<path d="M46.0101 5.9054
L45.8891 5.8449
" />
<path d="M45.8891 5.8449
L45.8286 5.7845
" />
<path d="M45.8286 5.7845
L45.7682 5.6635
" />
<path d="M45.7682 5.6635
L45.7682 5.6030
" />
<path d="M45.7682 5.6030
L45.8286 5.4821
" />
<path d="M45.8286 5.4821
L45.8891 5.4216
" />
<path d="M45.8891 5.4216
L46.0101 5.3611
" />
<path d="M46.0101 5.3611
L46.2520 5.3611
" />
<path d="M46.2520 5.3611
L46.3729 5.4216
" />
<path d="M46.3729 5.4216
L46.4334 5.4821
" />
<path d="M46.4334 5.4821
L46.4939 5.6030
" />
<path d="M46.4939 5.6030
L46.4939 5.6635
" />
<path d="M46.4939 5.6635
L46.4334 5.7845
" />
<path d="M46.4334 5.7845
L46.3729 5.8449
" />
<path d="M46.3729 5.8449
L46.2520 5.9054
" />
<path d="M46.2520 5.9054
L46.0101 5.9054
" />
<path d="M46.0101 5.9054
L45.8891 5.9659
" />
<path d="M45.8891 5.9659
L45.8286 6.0264
" />
<path d="M45.8286 6.0264
L45.7682 6.1473
" />
<path d="M45.7682 6.1473
L45.7682 6.3892
" />
<path d="M45.7682 6.3892
L45.8286 6.5102
" />
<path d="M45.8286 6.5102
L45.8891 6.5707
" />
<path d="M45.8891 6.5707
L46.0101 6.6311
" />
<path d="M46.0101 6.6311
L46.2520 6.6311
" />
<path d="M46.2520 6.6311
L46.3729 6.5707
" />
<path d="M46.3729 6.5707
L46.4334 6.5102
" />
<path d="M46.4334 6.5102
L46.4939 6.3892
" />
<path d="M46.4939 6.3892
L46.4939 6.1473
" />
<path d="M46.4939 6.1473
L46.4334 6.0264
" />
<path d="M46.4334 6.0264
L46.3729 5.9659
" />
<path d="M46.3729 5.9659
L46.2520 5.9054
" />
<path d="M46.9777 6.5707
L47.1591 6.6311
" />
<path d="M47.1591 6.6311
L47.4615 6.6311
" />
<path d="M47.4615 6.6311
L47.5824 6.5707
" />
<path d="M47.5824 6.5707
L47.6429 6.5102
" />
<path d="M47.6429 6.5102
L47.7034 6.3892
" />
<path d="M47.7034 6.3892
L47.7034 6.2683
" />
<path d="M47.7034 6.2683
L47.6429 6.1473
" />
<path d="M47.6429 6.1473
L47.5824 6.0868
" />
<path d="M47.5824 6.0868
L47.4615 6.0264
" />
<path d="M47.4615 6.0264
L47.2196 5.9659
" />
<path d="M47.2196 5.9659
L47.0986 5.9054
" />
<path d="M47.0986 5.9054
L47.0381 5.8449
" />
<path d="M47.0381 5.8449
L46.9777 5.7240
" />
<path d="M46.9777 5.7240
L46.9777 5.6030
" />
<path d="M46.9777 5.6030
L47.0381 5.4821
" />
<path d="M47.0381 5.4821
L47.0986 5.4216
" />
<path d="M47.0986 5.4216
L47.2196 5.3611
" />
<path d="M47.2196 5.3611
L47.5219 5.3611
" />
<path d="M47.5219 5.3611
L47.7034 5.4216
" />
<path d="M48.2476 6.6311
L48.2476 5.3611
" />
<path d="M48.2476 5.9659
L48.9733 5.9659
" />
<path d="M48.9733 6.6311
L48.9733 5.3611
" />
<path d="M50.2434 6.6311
L49.5177 6.6311
" />
<path d="M49.8805 6.6311
L49.8805 5.3611
" />
<path d="M49.8805 5.3611
L49.7596 5.5426
" />
<path d="M49.7596 5.5426
L49.6386 5.6635
" />
<path d="M49.6386 5.6635
L49.5177 5.7240
" />
<path d="M51.3319 5.3611
L51.0900 5.3611
" />
<path d="M51.0900 5.3611
L50.9691 5.4216
" />
<path d="M50.9691 5.4216
L50.9086 5.4821
" />
<path d="M50.9086 5.4821
L50.7876 5.6635
" />
<path d="M50.7876 5.6635
L50.7272 5.9054
" />
<path d="M50.7272 5.9054
L50.7272 6.3892
" />
<path d="M50.7272 6.3892
L50.7876 6.5102
" />
<path d="M50.7876 6.5102
L50.8481 6.5707
" />
<path d="M50.8481 6.5707
L50.9691 6.6311
" />
<path d="M50.9691 6.6311
L51.2110 6.6311
" />
<path d="M51.2110 6.6311
L51.3319 6.5707
" />
<path d="M51.3319 6.5707
L51.3924 6.5102
" />
<path d="M51.3924 6.5102
L51.4529 6.3892
" />
<path d="M51.4529 6.3892
L51.4529 6.0868
" />
<path d="M51.4529 6.0868
L51.3924 5.9659
" />
<path d="M51.3924 5.9659
L51.3319 5.9054
" />
<path d="M51.3319 5.9054
L51.2110 5.8449
" />
<path d="M51.2110 5.8449
L50.9691 5.8449
" />
<path d="M50.9691 5.8449
L50.8481 5.9054
" />
<path d="M50.8481 5.9054
L50.7876 5.9659
" />
<path d="M50.7876 5.9659
L50.7272 6.0868
" />
<path d="M51.8762 6.6311
L52.5414 5.7845
" />
<path d="M51.8762 5.7845
L52.5414 6.6311
" />
<path d="M52.9043 5.3611
L53.2067 6.6311
" />
<path d="M53.2067 6.6311
L53.4486 5.7240
" />
<path d="M53.4486 5.7240
L53.6905 6.6311
" />
<path d="M53.6905 6.6311
L53.9929 5.3611
" />
<path d="M55.0814 6.6311
L54.4766 6.6311
" />
<path d="M54.4766 6.6311
L54.4766 5.3611
" />
</g></g>
<g style="fill:#840084; fill-opacity:0.0; 
stroke:#840084; stroke-width:0.1588; stroke-opacity:1; 
stroke-linecap:round; stroke-linejoin:round;">
<text x="62.3794" y="54.9469"
textLength="44.6116" font-size="1.6933" lengthAdjust="spacingAndGlyphs"
text-anchor="middle" opacity="0">Package_SO:SOIC-28W_7.5x17.9mm_P1.27mm</text>
<g class="stroked-text"><desc>Package_SO:SOIC-28W_7.5x17.9mm_P1.27mm</desc>
<path d="M40.4796 54.8911
L40.6383 53.6211
" />
<path d="M40.6383 53.6211
L41.1221 53.6211
" />
<path d="M41.1221 53.6211
L41.2355 53.6816
" />
<path d="M41.2355 53.6816
L41.2884 53.7421
" />
<path d="M41.2884 53.7421
L41.3338 53.8630
" />
<path d="M41.3338 53.8630
L41.3111 54.0445
" />
<path d="M41.3111 54.0445
L41.2355 54.1654
" />
<path d="M41.2355 54.1654
L41.1675 54.2259
" />
<path d="M41.1675 54.2259
L41.0390 54.2864
" />
<path d="M41.0390 54.2864
L40.5552 54.2864
" />
<path d="M42.2939 54.8911
L42.3770 54.2259
" />
<path d="M42.3770 54.2259
L42.3317 54.1049
" />
<path d="M42.3317 54.1049
L42.2183 54.0445
" />
<path d="M42.2183 54.0445
L41.9764 54.0445
" />
<path d="M41.9764 54.0445
L41.8478 54.1049
" />
<path d="M42.3014 54.8307
L42.1729 54.8911
" />
<path d="M42.1729 54.8911
L41.8705 54.8911
" />
<path d="M41.8705 54.8911
L41.7571 54.8307
" />
<path d="M41.7571 54.8307
L41.7118 54.7097
" />
<path d="M41.7118 54.7097
L41.7269 54.5887
" />
<path d="M41.7269 54.5887
L41.8025 54.4678
" />
<path d="M41.8025 54.4678
L41.9310 54.4073
" />
<path d="M41.9310 54.4073
L42.2334 54.4073
" />
<path d="M42.2334 54.4073
L42.3619 54.3468
" />
<path d="M43.4504 54.8307
L43.3219 54.8911
" />
<path d="M43.3219 54.8911
L43.0800 54.8911
" />
<path d="M43.0800 54.8911
L42.9666 54.8307
" />
<path d="M42.9666 54.8307
L42.9137 54.7702
" />
<path d="M42.9137 54.7702
L42.8683 54.6492
" />
<path d="M42.8683 54.6492
L42.9137 54.2864
" />
<path d="M42.9137 54.2864
L42.9893 54.1654
" />
<path d="M42.9893 54.1654
L43.0573 54.1049
" />
<path d="M43.0573 54.1049
L43.1858 54.0445
" />
<path d="M43.1858 54.0445
L43.4277 54.0445
" />
<path d="M43.4277 54.0445
L43.5411 54.1049
" />
<path d="M43.9872 54.8911
L44.1459 53.6211
" />
<path d="M44.1686 54.4073
L44.4710 54.8911
" />
<path d="M44.5768 54.0445
L44.0325 54.5283
" />
<path d="M45.5596 54.8911
L45.6427 54.2259
" />
<path d="M45.6427 54.2259
L45.5974 54.1049
" />
<path d="M45.5974 54.1049
L45.4840 54.0445
" />
<path d="M45.4840 54.0445
L45.2421 54.0445
" />
<path d="M45.2421 54.0445
L45.1135 54.1049
" />
<path d="M45.5671 54.8307
L45.4386 54.8911
" />
<path d="M45.4386 54.8911
L45.1362 54.8911
" />
<path d="M45.1362 54.8911
L45.0228 54.8307
" />
<path d="M45.0228 54.8307
L44.9775 54.7097
" />
<path d="M44.9775 54.7097
L44.9926 54.5887
" />
<path d="M44.9926 54.5887
L45.0682 54.4678
" />
<path d="M45.0682 54.4678
L45.1967 54.4073
" />
<path d="M45.1967 54.4073
L45.4991 54.4073
" />
<path d="M45.4991 54.4073
L45.6276 54.3468
" />
<path d="M46.8144 54.0445
L46.6859 55.0726
" />
<path d="M46.6859 55.0726
L46.6103 55.1935
" />
<path d="M46.6103 55.1935
L46.5422 55.2540
" />
<path d="M46.5422 55.2540
L46.4137 55.3145
" />
<path d="M46.4137 55.3145
L46.2323 55.3145
" />
<path d="M46.2323 55.3145
L46.1189 55.2540
" />
<path d="M46.7161 54.8307
L46.5876 54.8911
" />
<path d="M46.5876 54.8911
L46.3457 54.8911
" />
<path d="M46.3457 54.8911
L46.2323 54.8307
" />
<path d="M46.2323 54.8307
L46.1794 54.7702
" />
<path d="M46.1794 54.7702
L46.1340 54.6492
" />
<path d="M46.1340 54.6492
L46.1794 54.2864
" />
<path d="M46.1794 54.2864
L46.2550 54.1654
" />
<path d="M46.2550 54.1654
L46.3230 54.1049
" />
<path d="M46.3230 54.1049
L46.4515 54.0445
" />
<path d="M46.4515 54.0445
L46.6934 54.0445
" />
<path d="M46.6934 54.0445
L46.8068 54.1049
" />
<path d="M47.8046 54.8307
L47.6761 54.8911
" />
<path d="M47.6761 54.8911
L47.4342 54.8911
" />
<path d="M47.4342 54.8911
L47.3208 54.8307
" />
<path d="M47.3208 54.8307
L47.2755 54.7097
" />
<path d="M47.2755 54.7097
L47.3360 54.2259
" />
<path d="M47.3360 54.2259
L47.4115 54.1049
" />
<path d="M47.4115 54.1049
L47.5401 54.0445
" />
<path d="M47.5401 54.0445
L47.7820 54.0445
" />
<path d="M47.7820 54.0445
L47.8954 54.1049
" />
<path d="M47.8954 54.1049
L47.9407 54.2259
" />
<path d="M47.9407 54.2259
L47.9256 54.3468
" />
<path d="M47.9256 54.3468
L47.3057 54.4678
" />
<path d="M48.0844 55.0121
L49.0520 55.0121
" />
<path d="M49.3166 54.8307
L49.4904 54.8911
" />
<path d="M49.4904 54.8911
L49.7928 54.8911
" />
<path d="M49.7928 54.8911
L49.9213 54.8307
" />
<path d="M49.9213 54.8307
L49.9894 54.7702
" />
<path d="M49.9894 54.7702
L50.0649 54.6492
" />
<path d="M50.0649 54.6492
L50.0801 54.5283
" />
<path d="M50.0801 54.5283
L50.0347 54.4073
" />
<path d="M50.0347 54.4073
L49.9818 54.3468
" />
<path d="M49.9818 54.3468
L49.8684 54.2864
" />
<path d="M49.8684 54.2864
L49.6341 54.2259
" />
<path d="M49.6341 54.2259
L49.5207 54.1654
" />
<path d="M49.5207 54.1654
L49.4677 54.1049
" />
<path d="M49.4677 54.1049
L49.4224 53.9840
" />
<path d="M49.4224 53.9840
L49.4375 53.8630
" />
<path d="M49.4375 53.8630
L49.5131 53.7421
" />
<path d="M49.5131 53.7421
L49.5811 53.6816
" />
<path d="M49.5811 53.6816
L49.7097 53.6211
" />
<path d="M49.7097 53.6211
L50.0120 53.6211
" />
<path d="M50.0120 53.6211
L50.1859 53.6816
" />
<path d="M50.9796 53.6211
L51.2215 53.6211
" />
<path d="M51.2215 53.6211
L51.3349 53.6816
" />
<path d="M51.3349 53.6816
L51.4408 53.8026
" />
<path d="M51.4408 53.8026
L51.4710 54.0445
" />
<path d="M51.4710 54.0445
L51.4181 54.4678
" />
<path d="M51.4181 54.4678
L51.3274 54.7097
" />
<path d="M51.3274 54.7097
L51.1913 54.8307
" />
<path d="M51.1913 54.8307
L51.0628 54.8911
" />
<path d="M51.0628 54.8911
L50.8209 54.8911
" />
<path d="M50.8209 54.8911
L50.7075 54.8307
" />
<path d="M50.7075 54.8307
L50.6017 54.7097
" />
<path d="M50.6017 54.7097
L50.5714 54.4678
" />
<path d="M50.5714 54.4678
L50.6243 54.0445
" />
<path d="M50.6243 54.0445
L50.7150 53.8026
" />
<path d="M50.7150 53.8026
L50.8511 53.6816
" />
<path d="M50.8511 53.6816
L50.9796 53.6211
" />
<path d="M51.9246 54.7702
L51.9775 54.8307
" />
<path d="M51.9775 54.8307
L51.9095 54.8911
" />
<path d="M51.9095 54.8911
L51.8566 54.8307
" />
<path d="M51.8566 54.8307
L51.9246 54.7702
" />
<path d="M51.9246 54.7702
L51.9095 54.8911
" />
<path d="M52.0077 54.1049
L52.0607 54.1654
" />
<path d="M52.0607 54.1654
L51.9926 54.2259
" />
<path d="M51.9926 54.2259
L51.9397 54.1654
" />
<path d="M51.9397 54.1654
L52.0077 54.1049
" />
<path d="M52.0077 54.1049
L51.9926 54.2259
" />
<path d="M52.4614 54.8307
L52.6352 54.8911
" />
<path d="M52.6352 54.8911
L52.9376 54.8911
" />
<path d="M52.9376 54.8911
L53.0661 54.8307
" />
<path d="M53.0661 54.8307
L53.1342 54.7702
" />
<path d="M53.1342 54.7702
L53.2097 54.6492
" />
<path d="M53.2097 54.6492
L53.2249 54.5283
" />
<path d="M53.2249 54.5283
L53.1795 54.4073
" />
<path d="M53.1795 54.4073
L53.1266 54.3468
" />
<path d="M53.1266 54.3468
L53.0132 54.2864
" />
<path d="M53.0132 54.2864
L52.7789 54.2259
" />
<path d="M52.7789 54.2259
L52.6655 54.1654
" />
<path d="M52.6655 54.1654
L52.6125 54.1049
" />
<path d="M52.6125 54.1049
L52.5672 53.9840
" />
<path d="M52.5672 53.9840
L52.5823 53.8630
" />
<path d="M52.5823 53.8630
L52.6579 53.7421
" />
<path d="M52.6579 53.7421
L52.7259 53.6816
" />
<path d="M52.7259 53.6816
L52.8545 53.6211
" />
<path d="M52.8545 53.6211
L53.1568 53.6211
" />
<path d="M53.1568 53.6211
L53.3307 53.6816
" />
<path d="M54.1244 53.6211
L54.3663 53.6211
" />
<path d="M54.3663 53.6211
L54.4797 53.6816
" />
<path d="M54.4797 53.6816
L54.5856 53.8026
" />
<path d="M54.5856 53.8026
L54.6158 54.0445
" />
<path d="M54.6158 54.0445
L54.5629 54.4678
" />
<path d="M54.5629 54.4678
L54.4722 54.7097
" />
<path d="M54.4722 54.7097
L54.3361 54.8307
" />
<path d="M54.3361 54.8307
L54.2076 54.8911
" />
<path d="M54.2076 54.8911
L53.9657 54.8911
" />
<path d="M53.9657 54.8911
L53.8523 54.8307
" />
<path d="M53.8523 54.8307
L53.7465 54.7097
" />
<path d="M53.7465 54.7097
L53.7162 54.4678
" />
<path d="M53.7162 54.4678
L53.7691 54.0445
" />
<path d="M53.7691 54.0445
L53.8598 53.8026
" />
<path d="M53.8598 53.8026
L53.9959 53.6816
" />
<path d="M53.9959 53.6816
L54.1244 53.6211
" />
<path d="M55.0543 54.8911
L55.2130 53.6211
" />
<path d="M56.3999 54.7702
L56.3319 54.8307
" />
<path d="M56.3319 54.8307
L56.1429 54.8911
" />
<path d="M56.1429 54.8911
L56.0219 54.8911
" />
<path d="M56.0219 54.8911
L55.8481 54.8307
" />
<path d="M55.8481 54.8307
L55.7422 54.7097
" />
<path d="M55.7422 54.7097
L55.6969 54.5887
" />
<path d="M55.6969 54.5887
L55.6666 54.3468
" />
<path d="M55.6666 54.3468
L55.6893 54.1654
" />
<path d="M55.6893 54.1654
L55.7800 53.9235
" />
<path d="M55.7800 53.9235
L55.8556 53.8026
" />
<path d="M55.8556 53.8026
L55.9917 53.6816
" />
<path d="M55.9917 53.6816
L56.1807 53.6211
" />
<path d="M56.1807 53.6211
L56.3016 53.6211
" />
<path d="M56.3016 53.6211
L56.4755 53.6816
" />
<path d="M56.4755 53.6816
L56.5284 53.7421
" />
<path d="M56.9895 54.4073
L57.9572 54.4073
" />
<path d="M58.5846 53.7421
L58.6527 53.6816
" />
<path d="M58.6527 53.6816
L58.7812 53.6211
" />
<path d="M58.7812 53.6211
L59.0836 53.6211
" />
<path d="M59.0836 53.6211
L59.1969 53.6816
" />
<path d="M59.1969 53.6816
L59.2499 53.7421
" />
<path d="M59.2499 53.7421
L59.2952 53.8630
" />
<path d="M59.2952 53.8630
L59.2801 53.9840
" />
<path d="M59.2801 53.9840
L59.1969 54.1654
" />
<path d="M59.1969 54.1654
L58.3805 54.8911
" />
<path d="M58.3805 54.8911
L59.1667 54.8911
" />
<path d="M59.9831 54.1654
L59.8697 54.1049
" />
<path d="M59.8697 54.1049
L59.8168 54.0445
" />
<path d="M59.8168 54.0445
L59.7714 53.9235
" />
<path d="M59.7714 53.9235
L59.7790 53.8630
" />
<path d="M59.7790 53.8630
L59.8546 53.7421
" />
<path d="M59.8546 53.7421
L59.9226 53.6816
" />
<path d="M59.9226 53.6816
L60.0512 53.6211
" />
<path d="M60.0512 53.6211
L60.2931 53.6211
" />
<path d="M60.2931 53.6211
L60.4064 53.6816
" />
<path d="M60.4064 53.6816
L60.4594 53.7421
" />
<path d="M60.4594 53.7421
L60.5047 53.8630
" />
<path d="M60.5047 53.8630
L60.4972 53.9235
" />
<path d="M60.4972 53.9235
L60.4216 54.0445
" />
<path d="M60.4216 54.0445
L60.3535 54.1049
" />
<path d="M60.3535 54.1049
L60.2250 54.1654
" />
<path d="M60.2250 54.1654
L59.9831 54.1654
" />
<path d="M59.9831 54.1654
L59.8546 54.2259
" />
<path d="M59.8546 54.2259
L59.7866 54.2864
" />
<path d="M59.7866 54.2864
L59.7110 54.4073
" />
<path d="M59.7110 54.4073
L59.6807 54.6492
" />
<path d="M59.6807 54.6492
L59.7261 54.7702
" />
<path d="M59.7261 54.7702
L59.7790 54.8307
" />
<path d="M59.7790 54.8307
L59.8924 54.8911
" />
<path d="M59.8924 54.8911
L60.1343 54.8911
" />
<path d="M60.1343 54.8911
L60.2628 54.8307
" />
<path d="M60.2628 54.8307
L60.3309 54.7702
" />
<path d="M60.3309 54.7702
L60.4064 54.6492
" />
<path d="M60.4064 54.6492
L60.4367 54.4073
" />
<path d="M60.4367 54.4073
L60.3913 54.2864
" />
<path d="M60.3913 54.2864
L60.3384 54.2259
" />
<path d="M60.3384 54.2259
L60.2250 54.1654
" />
<path d="M60.9583 53.6211
L61.1019 54.8911
" />
<path d="M61.1019 54.8911
L61.4572 53.9840
" />
<path d="M61.4572 53.9840
L61.5857 54.8911
" />
<path d="M61.5857 54.8911
L62.0468 53.6211
" />
<path d="M62.0544 55.0121
L63.0220 55.0121
" />
<path d="M63.3773 53.6211
L64.2239 53.6211
" />
<path d="M64.2239 53.6211
L63.5209 54.8911
" />
<path d="M64.5641 54.7702
L64.6170 54.8307
" />
<path d="M64.6170 54.8307
L64.5490 54.8911
" />
<path d="M64.5490 54.8911
L64.4961 54.8307
" />
<path d="M64.4961 54.8307
L64.5641 54.7702
" />
<path d="M64.5641 54.7702
L64.5490 54.8911
" />
<path d="M65.9173 53.6211
L65.3125 53.6211
" />
<path d="M65.3125 53.6211
L65.1765 54.2259
" />
<path d="M65.1765 54.2259
L65.2445 54.1654
" />
<path d="M65.2445 54.1654
L65.3730 54.1049
" />
<path d="M65.3730 54.1049
L65.6754 54.1049
" />
<path d="M65.6754 54.1049
L65.7888 54.1654
" />
<path d="M65.7888 54.1654
L65.8417 54.2259
" />
<path d="M65.8417 54.2259
L65.8870 54.3468
" />
<path d="M65.8870 54.3468
L65.8492 54.6492
" />
<path d="M65.8492 54.6492
L65.7737 54.7702
" />
<path d="M65.7737 54.7702
L65.7056 54.8307
" />
<path d="M65.7056 54.8307
L65.5771 54.8911
" />
<path d="M65.5771 54.8911
L65.2747 54.8911
" />
<path d="M65.2747 54.8911
L65.1613 54.8307
" />
<path d="M65.1613 54.8307
L65.1084 54.7702
" />
<path d="M66.2423 54.8911
L67.0134 54.0445
" />
<path d="M66.3482 54.0445
L66.9076 54.8911
" />
<path d="M68.0566 54.8911
L67.3309 54.8911
" />
<path d="M67.6938 54.8911
L67.8525 53.6211
" />
<path d="M67.8525 53.6211
L67.7089 53.8026
" />
<path d="M67.7089 53.8026
L67.5728 53.9235
" />
<path d="M67.5728 53.9235
L67.4443 53.9840
" />
<path d="M68.6387 53.6211
L69.4853 53.6211
" />
<path d="M69.4853 53.6211
L68.7823 54.8911
" />
<path d="M69.8255 54.7702
L69.8784 54.8307
" />
<path d="M69.8784 54.8307
L69.8104 54.8911
" />
<path d="M69.8104 54.8911
L69.7575 54.8307
" />
<path d="M69.7575 54.8307
L69.8255 54.7702
" />
<path d="M69.8255 54.7702
L69.8104 54.8911
" />
<path d="M70.4756 54.8911
L70.7176 54.8911
" />
<path d="M70.7176 54.8911
L70.8461 54.8307
" />
<path d="M70.8461 54.8307
L70.9141 54.7702
" />
<path d="M70.9141 54.7702
L71.0577 54.5887
" />
<path d="M71.0577 54.5887
L71.1484 54.3468
" />
<path d="M71.1484 54.3468
L71.2089 53.8630
" />
<path d="M71.2089 53.8630
L71.1636 53.7421
" />
<path d="M71.1636 53.7421
L71.1106 53.6816
" />
<path d="M71.1106 53.6816
L70.9973 53.6211
" />
<path d="M70.9973 53.6211
L70.7554 53.6211
" />
<path d="M70.7554 53.6211
L70.6268 53.6816
" />
<path d="M70.6268 53.6816
L70.5588 53.7421
" />
<path d="M70.5588 53.7421
L70.4832 53.8630
" />
<path d="M70.4832 53.8630
L70.4454 54.1654
" />
<path d="M70.4454 54.1654
L70.4908 54.2864
" />
<path d="M70.4908 54.2864
L70.5437 54.3468
" />
<path d="M70.5437 54.3468
L70.6571 54.4073
" />
<path d="M70.6571 54.4073
L70.8990 54.4073
" />
<path d="M70.8990 54.4073
L71.0275 54.3468
" />
<path d="M71.0275 54.3468
L71.0955 54.2864
" />
<path d="M71.0955 54.2864
L71.1711 54.1654
" />
<path d="M71.6247 54.8911
L71.7305 54.0445
" />
<path d="M71.7154 54.1654
L71.7834 54.1049
" />
<path d="M71.7834 54.1049
L71.9119 54.0445
" />
<path d="M71.9119 54.0445
L72.0934 54.0445
" />
<path d="M72.0934 54.0445
L72.2068 54.1049
" />
<path d="M72.2068 54.1049
L72.2521 54.2259
" />
<path d="M72.2521 54.2259
L72.1690 54.8911
" />
<path d="M72.2521 54.2259
L72.3277 54.1049
" />
<path d="M72.3277 54.1049
L72.4562 54.0445
" />
<path d="M72.4562 54.0445
L72.6376 54.0445
" />
<path d="M72.6376 54.0445
L72.7510 54.1049
" />
<path d="M72.7510 54.1049
L72.7964 54.2259
" />
<path d="M72.7964 54.2259
L72.7132 54.8911
" />
<path d="M73.3180 54.8911
L73.4238 54.0445
" />
<path d="M73.4087 54.1654
L73.4767 54.1049
" />
<path d="M73.4767 54.1049
L73.6052 54.0445
" />
<path d="M73.6052 54.0445
L73.7867 54.0445
" />
<path d="M73.7867 54.0445
L73.9001 54.1049
" />
<path d="M73.9001 54.1049
L73.9454 54.2259
" />
<path d="M73.9454 54.2259
L73.8623 54.8911
" />
<path d="M73.9454 54.2259
L74.0210 54.1049
" />
<path d="M74.0210 54.1049
L74.1495 54.0445
" />
<path d="M74.1495 54.0445
L74.3309 54.0445
" />
<path d="M74.3309 54.0445
L74.4443 54.1049
" />
<path d="M74.4443 54.1049
L74.4897 54.2259
" />
<path d="M74.4897 54.2259
L74.4065 54.8911
" />
<path d="M74.6938 55.0121
L75.6614 55.0121
" />
<path d="M75.9789 54.8911
L76.1376 53.6211
" />
<path d="M76.1376 53.6211
L76.6214 53.6211
" />
<path d="M76.6214 53.6211
L76.7348 53.6816
" />
<path d="M76.7348 53.6816
L76.7877 53.7421
" />
<path d="M76.7877 53.7421
L76.8331 53.8630
" />
<path d="M76.8331 53.8630
L76.8104 54.0445
" />
<path d="M76.8104 54.0445
L76.7348 54.1654
" />
<path d="M76.7348 54.1654
L76.6668 54.2259
" />
<path d="M76.6668 54.2259
L76.5383 54.2864
" />
<path d="M76.5383 54.2864
L76.0545 54.2864
" />
<path d="M77.9141 54.8911
L77.1884 54.8911
" />
<path d="M77.5513 54.8911
L77.7100 53.6211
" />
<path d="M77.7100 53.6211
L77.5664 53.8026
" />
<path d="M77.5664 53.8026
L77.4303 53.9235
" />
<path d="M77.4303 53.9235
L77.3018 53.9840
" />
<path d="M78.4735 54.7702
L78.5264 54.8307
" />
<path d="M78.5264 54.8307
L78.4584 54.8911
" />
<path d="M78.4584 54.8911
L78.4055 54.8307
" />
<path d="M78.4055 54.8307
L78.4735 54.7702
" />
<path d="M78.4735 54.7702
L78.4584 54.8911
" />
<path d="M79.1463 53.7421
L79.2144 53.6816
" />
<path d="M79.2144 53.6816
L79.3429 53.6211
" />
<path d="M79.3429 53.6211
L79.6453 53.6211
" />
<path d="M79.6453 53.6211
L79.7586 53.6816
" />
<path d="M79.7586 53.6816
L79.8116 53.7421
" />
<path d="M79.8116 53.7421
L79.8569 53.8630
" />
<path d="M79.8569 53.8630
L79.8418 53.9840
" />
<path d="M79.8418 53.9840
L79.7586 54.1654
" />
<path d="M79.7586 54.1654
L78.9422 54.8911
" />
<path d="M78.9422 54.8911
L79.7284 54.8911
" />
<path d="M80.3105 53.6211
L81.1571 53.6211
" />
<path d="M81.1571 53.6211
L80.4541 54.8911
" />
<path d="M81.4822 54.8911
L81.5880 54.0445
" />
<path d="M81.5729 54.1654
L81.6409 54.1049
" />
<path d="M81.6409 54.1049
L81.7694 54.0445
" />
<path d="M81.7694 54.0445
L81.9509 54.0445
" />
<path d="M81.9509 54.0445
L82.0643 54.1049
" />
<path d="M82.0643 54.1049
L82.1096 54.2259
" />
<path d="M82.1096 54.2259
L82.0265 54.8911
" />
<path d="M82.1096 54.2259
L82.1852 54.1049
" />
<path d="M82.1852 54.1049
L82.3137 54.0445
" />
<path d="M82.3137 54.0445
L82.4951 54.0445
" />
<path d="M82.4951 54.0445
L82.6085 54.1049
" />
<path d="M82.6085 54.1049
L82.6539 54.2259
" />
<path d="M82.6539 54.2259
L82.5707 54.8911
" />
<path d="M83.1755 54.8911
L83.2813 54.0445
" />
<path d="M83.2662 54.1654
L83.3342 54.1049
" />
<path d="M83.3342 54.1049
L83.4627 54.0445
" />
<path d="M83.4627 54.0445
L83.6442 54.0445
" />
<path d="M83.6442 54.0445
L83.7576 54.1049
" />
<path d="M83.7576 54.1049
L83.8029 54.2259
" />
<path d="M83.8029 54.2259
L83.7198 54.8911
" />
<path d="M83.8029 54.2259
L83.8785 54.1049
" />
<path d="M83.8785 54.1049
L84.0070 54.0445
" />
<path d="M84.0070 54.0445
L84.1884 54.0445
" />
<path d="M84.1884 54.0445
L84.3018 54.1049
" />
<path d="M84.3018 54.1049
L84.3472 54.2259
" />
<path d="M84.3472 54.2259
L84.2640 54.8911
" />
</g><text x="37.5336" y="30.8169"
textLength="59.6701" font-size="1.6933" lengthAdjust="spacingAndGlyphs"
text-anchor="middle" opacity="0">https://www.nxp.com/docs/en/data-sheet/MC9S08SH32.pdf</text>
<g class="stroked-text"><desc>https://www.nxp.com/docs/en/data-sheet/MC9S08SH32.pdf</desc>
<path d="M8.1121 30.7611
L8.1121 29.4911
" />
<path d="M8.6564 30.7611
L8.6564 30.0959
" />
<path d="M8.6564 30.0959
L8.5959 29.9749
" />
<path d="M8.5959 29.9749
L8.4750 29.9145
" />
<path d="M8.4750 29.9145
L8.2936 29.9145
" />
<path d="M8.2936 29.9145
L8.1726 29.9749
" />
<path d="M8.1726 29.9749
L8.1121 30.0354
" />
<path d="M9.0797 29.9145
L9.5635 29.9145
" />
<path d="M9.2611 29.4911
L9.2611 30.5797
" />
<path d="M9.2611 30.5797
L9.3216 30.7007
" />
<path d="M9.3216 30.7007
L9.4426 30.7611
" />
<path d="M9.4426 30.7611
L9.5635 30.7611
" />
<path d="M9.8054 29.9145
L10.2892 29.9145
" />
<path d="M9.9868 29.4911
L9.9868 30.5797
" />
<path d="M9.9868 30.5797
L10.0473 30.7007
" />
<path d="M10.0473 30.7007
L10.1683 30.7611
" />
<path d="M10.1683 30.7611
L10.2892 30.7611
" />
<path d="M10.7125 29.9145
L10.7125 31.1845
" />
<path d="M10.7125 29.9749
L10.8335 29.9145
" />
<path d="M10.8335 29.9145
L11.0754 29.9145
" />
<path d="M11.0754 29.9145
L11.1963 29.9749
" />
<path d="M11.1963 29.9749
L11.2568 30.0354
" />
<path d="M11.2568 30.0354
L11.3173 30.1564
" />
<path d="M11.3173 30.1564
L11.3173 30.5192
" />
<path d="M11.3173 30.5192
L11.2568 30.6402
" />
<path d="M11.2568 30.6402
L11.1963 30.7007
" />
<path d="M11.1963 30.7007
L11.0754 30.7611
" />
<path d="M11.0754 30.7611
L10.8335 30.7611
" />
<path d="M10.8335 30.7611
L10.7125 30.7007
" />
<path d="M11.8011 30.7007
L11.9220 30.7611
" />
<path d="M11.9220 30.7611
L12.1639 30.7611
" />
<path d="M12.1639 30.7611
L12.2849 30.7007
" />
<path d="M12.2849 30.7007
L12.3453 30.5797
" />
<path d="M12.3453 30.5797
L12.3453 30.5192
" />
<path d="M12.3453 30.5192
L12.2849 30.3983
" />
<path d="M12.2849 30.3983
L12.1639 30.3378
" />
<path d="M12.1639 30.3378
L11.9825 30.3378
" />
<path d="M11.9825 30.3378
L11.8615 30.2773
" />
<path d="M11.8615 30.2773
L11.8011 30.1564
" />
<path d="M11.8011 30.1564
L11.8011 30.0959
" />
<path d="M11.8011 30.0959
L11.8615 29.9749
" />
<path d="M11.8615 29.9749
L11.9825 29.9145
" />
<path d="M11.9825 29.9145
L12.1639 29.9145
" />
<path d="M12.1639 29.9145
L12.2849 29.9749
" />
<path d="M12.8896 30.6402
L12.9501 30.7007
" />
<path d="M12.9501 30.7007
L12.8896 30.7611
" />
<path d="M12.8896 30.7611
L12.8292 30.7007
" />
<path d="M12.8292 30.7007
L12.8896 30.6402
" />
<path d="M12.8896 30.6402
L12.8896 30.7611
" />
<path d="M12.8896 29.9749
L12.9501 30.0354
" />
<path d="M12.9501 30.0354
L12.8896 30.0959
" />
<path d="M12.8896 30.0959
L12.8292 30.0354
" />
<path d="M12.8292 30.0354
L12.8896 29.9749
" />
<path d="M12.8896 29.9749
L12.8896 30.0959
" />
<path d="M14.4016 29.4307
L13.3130 31.0635
" />
<path d="M15.7321 29.4307
L14.6435 31.0635
" />
<path d="M16.0345 29.9145
L16.2764 30.7611
" />
<path d="M16.2764 30.7611
L16.5183 30.1564
" />
<path d="M16.5183 30.1564
L16.7602 30.7611
" />
<path d="M16.7602 30.7611
L17.0021 29.9145
" />
<path d="M17.3650 29.9145
L17.6069 30.7611
" />
<path d="M17.6069 30.7611
L17.8488 30.1564
" />
<path d="M17.8488 30.1564
L18.0907 30.7611
" />
<path d="M18.0907 30.7611
L18.3326 29.9145
" />
<path d="M18.6955 29.9145
L18.9374 30.7611
" />
<path d="M18.9374 30.7611
L19.1793 30.1564
" />
<path d="M19.1793 30.1564
L19.4212 30.7611
" />
<path d="M19.4212 30.7611
L19.6631 29.9145
" />
<path d="M20.1469 30.6402
L20.2074 30.7007
" />
<path d="M20.2074 30.7007
L20.1469 30.7611
" />
<path d="M20.1469 30.7611
L20.0865 30.7007
" />
<path d="M20.0865 30.7007
L20.1469 30.6402
" />
<path d="M20.1469 30.6402
L20.1469 30.7611
" />
<path d="M20.7517 29.9145
L20.7517 30.7611
" />
<path d="M20.7517 30.0354
L20.8122 29.9749
" />
<path d="M20.8122 29.9749
L20.9332 29.9145
" />
<path d="M20.9332 29.9145
L21.1146 29.9145
" />
<path d="M21.1146 29.9145
L21.2355 29.9749
" />
<path d="M21.2355 29.9749
L21.2960 30.0959
" />
<path d="M21.2960 30.0959
L21.2960 30.7611
" />
<path d="M21.7798 30.7611
L22.4450 29.9145
" />
<path d="M21.7798 29.9145
L22.4450 30.7611
" />
<path d="M22.9288 29.9145
L22.9288 31.1845
" />
<path d="M22.9288 29.9749
L23.0498 29.9145
" />
<path d="M23.0498 29.9145
L23.2917 29.9145
" />
<path d="M23.2917 29.9145
L23.4126 29.9749
" />
<path d="M23.4126 29.9749
L23.4731 30.0354
" />
<path d="M23.4731 30.0354
L23.5336 30.1564
" />
<path d="M23.5336 30.1564
L23.5336 30.5192
" />
<path d="M23.5336 30.5192
L23.4731 30.6402
" />
<path d="M23.4731 30.6402
L23.4126 30.7007
" />
<path d="M23.4126 30.7007
L23.2917 30.7611
" />
<path d="M23.2917 30.7611
L23.0498 30.7611
" />
<path d="M23.0498 30.7611
L22.9288 30.7007
" />
<path d="M24.0778 30.6402
L24.1383 30.7007
" />
<path d="M24.1383 30.7007
L24.0778 30.7611
" />
<path d="M24.0778 30.7611
L24.0174 30.7007
" />
<path d="M24.0174 30.7007
L24.0778 30.6402
" />
<path d="M24.0778 30.6402
L24.0778 30.7611
" />
<path d="M25.2269 30.7007
L25.1060 30.7611
" />
<path d="M25.1060 30.7611
L24.8641 30.7611
" />
<path d="M24.8641 30.7611
L24.7431 30.7007
" />
<path d="M24.7431 30.7007
L24.6826 30.6402
" />
<path d="M24.6826 30.6402
L24.6222 30.5192
" />
<path d="M24.6222 30.5192
L24.6222 30.1564
" />
<path d="M24.6222 30.1564
L24.6826 30.0354
" />
<path d="M24.6826 30.0354
L24.7431 29.9749
" />
<path d="M24.7431 29.9749
L24.8641 29.9145
" />
<path d="M24.8641 29.9145
L25.1060 29.9145
" />
<path d="M25.1060 29.9145
L25.2269 29.9749
" />
<path d="M25.9527 30.7611
L25.8317 30.7007
" />
<path d="M25.8317 30.7007
L25.7712 30.6402
" />
<path d="M25.7712 30.6402
L25.7108 30.5192
" />
<path d="M25.7108 30.5192
L25.7108 30.1564
" />
<path d="M25.7108 30.1564
L25.7712 30.0354
" />
<path d="M25.7712 30.0354
L25.8317 29.9749
" />
<path d="M25.8317 29.9749
L25.9527 29.9145
" />
<path d="M25.9527 29.9145
L26.1341 29.9145
" />
<path d="M26.1341 29.9145
L26.2550 29.9749
" />
<path d="M26.2550 29.9749
L26.3155 30.0354
" />
<path d="M26.3155 30.0354
L26.3760 30.1564
" />
<path d="M26.3760 30.1564
L26.3760 30.5192
" />
<path d="M26.3760 30.5192
L26.3155 30.6402
" />
<path d="M26.3155 30.6402
L26.2550 30.7007
" />
<path d="M26.2550 30.7007
L26.1341 30.7611
" />
<path d="M26.1341 30.7611
L25.9527 30.7611
" />
<path d="M26.9202 30.7611
L26.9202 29.9145
" />
<path d="M26.9202 30.0354
L26.9807 29.9749
" />
<path d="M26.9807 29.9749
L27.1017 29.9145
" />
<path d="M27.1017 29.9145
L27.2831 29.9145
" />
<path d="M27.2831 29.9145
L27.4040 29.9749
" />
<path d="M27.4040 29.9749
L27.4645 30.0959
" />
<path d="M27.4645 30.0959
L27.4645 30.7611
" />
<path d="M27.4645 30.0959
L27.5250 29.9749
" />
<path d="M27.5250 29.9749
L27.6459 29.9145
" />
<path d="M27.6459 29.9145
L27.8274 29.9145
" />
<path d="M27.8274 29.9145
L27.9483 29.9749
" />
<path d="M27.9483 29.9749
L28.0088 30.0959
" />
<path d="M28.0088 30.0959
L28.0088 30.7611
" />
<path d="M29.5207 29.4307
L28.4321 31.0635
" />
<path d="M30.4883 30.7611
L30.4883 29.4911
" />
<path d="M30.4883 30.7007
L30.3674 30.7611
" />
<path d="M30.3674 30.7611
L30.1255 30.7611
" />
<path d="M30.1255 30.7611
L30.0045 30.7007
" />
<path d="M30.0045 30.7007
L29.9440 30.6402
" />
<path d="M29.9440 30.6402
L29.8836 30.5192
" />
<path d="M29.8836 30.5192
L29.8836 30.1564
" />
<path d="M29.8836 30.1564
L29.9440 30.0354
" />
<path d="M29.9440 30.0354
L30.0045 29.9749
" />
<path d="M30.0045 29.9749
L30.1255 29.9145
" />
<path d="M30.1255 29.9145
L30.3674 29.9145
" />
<path d="M30.3674 29.9145
L30.4883 29.9749
" />
<path d="M31.2745 30.7611
L31.1535 30.7007
" />
<path d="M31.1535 30.7007
L31.0930 30.6402
" />
<path d="M31.0930 30.6402
L31.0326 30.5192
" />
<path d="M31.0326 30.5192
L31.0326 30.1564
" />
<path d="M31.0326 30.1564
L31.0930 30.0354
" />
<path d="M31.0930 30.0354
L31.1535 29.9749
" />
<path d="M31.1535 29.9749
L31.2745 29.9145
" />
<path d="M31.2745 29.9145
L31.4559 29.9145
" />
<path d="M31.4559 29.9145
L31.5768 29.9749
" />
<path d="M31.5768 29.9749
L31.6373 30.0354
" />
<path d="M31.6373 30.0354
L31.6978 30.1564
" />
<path d="M31.6978 30.1564
L31.6978 30.5192
" />
<path d="M31.6978 30.5192
L31.6373 30.6402
" />
<path d="M31.6373 30.6402
L31.5768 30.7007
" />
<path d="M31.5768 30.7007
L31.4559 30.7611
" />
<path d="M31.4559 30.7611
L31.2745 30.7611
" />
<path d="M32.7863 30.7007
L32.6654 30.7611
" />
<path d="M32.6654 30.7611
L32.4235 30.7611
" />
<path d="M32.4235 30.7611
L32.3025 30.7007
" />
<path d="M32.3025 30.7007
L32.2420 30.6402
" />
<path d="M32.2420 30.6402
L32.1816 30.5192
" />
<path d="M32.1816 30.5192
L32.1816 30.1564
" />
<path d="M32.1816 30.1564
L32.2420 30.0354
" />
<path d="M32.2420 30.0354
L32.3025 29.9749
" />
<path d="M32.3025 29.9749
L32.4235 29.9145
" />
<path d="M32.4235 29.9145
L32.6654 29.9145
" />
<path d="M32.6654 29.9145
L32.7863 29.9749
" />
<path d="M33.2702 30.7007
L33.3911 30.7611
" />
<path d="M33.3911 30.7611
L33.6330 30.7611
" />
<path d="M33.6330 30.7611
L33.7540 30.7007
" />
<path d="M33.7540 30.7007
L33.8144 30.5797
" />
<path d="M33.8144 30.5797
L33.8144 30.5192
" />
<path d="M33.8144 30.5192
L33.7540 30.3983
" />
<path d="M33.7540 30.3983
L33.6330 30.3378
" />
<path d="M33.6330 30.3378
L33.4516 30.3378
" />
<path d="M33.4516 30.3378
L33.3306 30.2773
" />
<path d="M33.3306 30.2773
L33.2702 30.1564
" />
<path d="M33.2702 30.1564
L33.2702 30.0959
" />
<path d="M33.2702 30.0959
L33.3306 29.9749
" />
<path d="M33.3306 29.9749
L33.4516 29.9145
" />
<path d="M33.4516 29.9145
L33.6330 29.9145
" />
<path d="M33.6330 29.9145
L33.7540 29.9749
" />
<path d="M35.2659 29.4307
L34.1773 31.0635
" />
<path d="M36.1730 30.7007
L36.0521 30.7611
" />
<path d="M36.0521 30.7611
L35.8102 30.7611
" />
<path d="M35.8102 30.7611
L35.6892 30.7007
" />
<path d="M35.6892 30.7007
L35.6288 30.5797
" />
<path d="M35.6288 30.5797
L35.6288 30.0959
" />
<path d="M35.6288 30.0959
L35.6892 29.9749
" />
<path d="M35.6892 29.9749
L35.8102 29.9145
" />
<path d="M35.8102 29.9145
L36.0521 29.9145
" />
<path d="M36.0521 29.9145
L36.1730 29.9749
" />
<path d="M36.1730 29.9749
L36.2335 30.0959
" />
<path d="M36.2335 30.0959
L36.2335 30.2168
" />
<path d="M36.2335 30.2168
L35.6288 30.3378
" />
<path d="M36.7778 29.9145
L36.7778 30.7611
" />
<path d="M36.7778 30.0354
L36.8383 29.9749
" />
<path d="M36.8383 29.9749
L36.9593 29.9145
" />
<path d="M36.9593 29.9145
L37.1407 29.9145
" />
<path d="M37.1407 29.9145
L37.2616 29.9749
" />
<path d="M37.2616 29.9749
L37.3221 30.0959
" />
<path d="M37.3221 30.0959
L37.3221 30.7611
" />
<path d="M38.8340 29.4307
L37.7454 31.0635
" />
<path d="M39.8016 30.7611
L39.8016 29.4911
" />
<path d="M39.8016 30.7007
L39.6807 30.7611
" />
<path d="M39.6807 30.7611
L39.4388 30.7611
" />
<path d="M39.4388 30.7611
L39.3178 30.7007
" />
<path d="M39.3178 30.7007
L39.2573 30.6402
" />
<path d="M39.2573 30.6402
L39.1969 30.5192
" />
<path d="M39.1969 30.5192
L39.1969 30.1564
" />
<path d="M39.1969 30.1564
L39.2573 30.0354
" />
<path d="M39.2573 30.0354
L39.3178 29.9749
" />
<path d="M39.3178 29.9749
L39.4388 29.9145
" />
<path d="M39.4388 29.9145
L39.6807 29.9145
" />
<path d="M39.6807 29.9145
L39.8016 29.9749
" />
<path d="M40.9506 30.7611
L40.9506 30.0959
" />
<path d="M40.9506 30.0959
L40.8901 29.9749
" />
<path d="M40.8901 29.9749
L40.7692 29.9145
" />
<path d="M40.7692 29.9145
L40.5273 29.9145
" />
<path d="M40.5273 29.9145
L40.4063 29.9749
" />
<path d="M40.9506 30.7007
L40.8297 30.7611
" />
<path d="M40.8297 30.7611
L40.5273 30.7611
" />
<path d="M40.5273 30.7611
L40.4063 30.7007
" />
<path d="M40.4063 30.7007
L40.3459 30.5797
" />
<path d="M40.3459 30.5797
L40.3459 30.4587
" />
<path d="M40.3459 30.4587
L40.4063 30.3378
" />
<path d="M40.4063 30.3378
L40.5273 30.2773
" />
<path d="M40.5273 30.2773
L40.8297 30.2773
" />
<path d="M40.8297 30.2773
L40.9506 30.2168
" />
<path d="M41.3739 29.9145
L41.8577 29.9145
" />
<path d="M41.5553 29.4911
L41.5553 30.5797
" />
<path d="M41.5553 30.5797
L41.6158 30.7007
" />
<path d="M41.6158 30.7007
L41.7368 30.7611
" />
<path d="M41.7368 30.7611
L41.8577 30.7611
" />
<path d="M42.8253 30.7611
L42.8253 30.0959
" />
<path d="M42.8253 30.0959
L42.7648 29.9749
" />
<path d="M42.7648 29.9749
L42.6439 29.9145
" />
<path d="M42.6439 29.9145
L42.4020 29.9145
" />
<path d="M42.4020 29.9145
L42.2810 29.9749
" />
<path d="M42.8253 30.7007
L42.7044 30.7611
" />
<path d="M42.7044 30.7611
L42.4020 30.7611
" />
<path d="M42.4020 30.7611
L42.2810 30.7007
" />
<path d="M42.2810 30.7007
L42.2206 30.5797
" />
<path d="M42.2206 30.5797
L42.2206 30.4587
" />
<path d="M42.2206 30.4587
L42.2810 30.3378
" />
<path d="M42.2810 30.3378
L42.4020 30.2773
" />
<path d="M42.4020 30.2773
L42.7044 30.2773
" />
<path d="M42.7044 30.2773
L42.8253 30.2168
" />
<path d="M43.4300 30.2773
L44.3977 30.2773
" />
<path d="M44.9420 30.7007
L45.0629 30.7611
" />
<path d="M45.0629 30.7611
L45.3048 30.7611
" />
<path d="M45.3048 30.7611
L45.4258 30.7007
" />
<path d="M45.4258 30.7007
L45.4862 30.5797
" />
<path d="M45.4862 30.5797
L45.4862 30.5192
" />
<path d="M45.4862 30.5192
L45.4258 30.3983
" />
<path d="M45.4258 30.3983
L45.3048 30.3378
" />
<path d="M45.3048 30.3378
L45.1234 30.3378
" />
<path d="M45.1234 30.3378
L45.0024 30.2773
" />
<path d="M45.0024 30.2773
L44.9420 30.1564
" />
<path d="M44.9420 30.1564
L44.9420 30.0959
" />
<path d="M44.9420 30.0959
L45.0024 29.9749
" />
<path d="M45.0024 29.9749
L45.1234 29.9145
" />
<path d="M45.1234 29.9145
L45.3048 29.9145
" />
<path d="M45.3048 29.9145
L45.4258 29.9749
" />
<path d="M46.0305 30.7611
L46.0305 29.4911
" />
<path d="M46.5748 30.7611
L46.5748 30.0959
" />
<path d="M46.5748 30.0959
L46.5143 29.9749
" />
<path d="M46.5143 29.9749
L46.3934 29.9145
" />
<path d="M46.3934 29.9145
L46.2120 29.9145
" />
<path d="M46.2120 29.9145
L46.0910 29.9749
" />
<path d="M46.0910 29.9749
L46.0305 30.0354
" />
<path d="M47.6633 30.7007
L47.5424 30.7611
" />
<path d="M47.5424 30.7611
L47.3005 30.7611
" />
<path d="M47.3005 30.7611
L47.1795 30.7007
" />
<path d="M47.1795 30.7007
L47.1191 30.5797
" />
<path d="M47.1191 30.5797
L47.1191 30.0959
" />
<path d="M47.1191 30.0959
L47.1795 29.9749
" />
<path d="M47.1795 29.9749
L47.3005 29.9145
" />
<path d="M47.3005 29.9145
L47.5424 29.9145
" />
<path d="M47.5424 29.9145
L47.6633 29.9749
" />
<path d="M47.6633 29.9749
L47.7238 30.0959
" />
<path d="M47.7238 30.0959
L47.7238 30.2168
" />
<path d="M47.7238 30.2168
L47.1191 30.3378
" />
<path d="M48.7519 30.7007
L48.6310 30.7611
" />
<path d="M48.6310 30.7611
L48.3891 30.7611
" />
<path d="M48.3891 30.7611
L48.2681 30.7007
" />
<path d="M48.2681 30.7007
L48.2077 30.5797
" />
<path d="M48.2077 30.5797
L48.2077 30.0959
" />
<path d="M48.2077 30.0959
L48.2681 29.9749
" />
<path d="M48.2681 29.9749
L48.3891 29.9145
" />
<path d="M48.3891 29.9145
L48.6310 29.9145
" />
<path d="M48.6310 29.9145
L48.7519 29.9749
" />
<path d="M48.7519 29.9749
L48.8124 30.0959
" />
<path d="M48.8124 30.0959
L48.8124 30.2168
" />
<path d="M48.8124 30.2168
L48.2077 30.3378
" />
<path d="M49.1753 29.9145
L49.6591 29.9145
" />
<path d="M49.3567 29.4911
L49.3567 30.5797
" />
<path d="M49.3567 30.5797
L49.4172 30.7007
" />
<path d="M49.4172 30.7007
L49.5382 30.7611
" />
<path d="M49.5382 30.7611
L49.6591 30.7611
" />
<path d="M50.9896 29.4307
L49.9010 31.0635
" />
<path d="M51.4129 30.7611
L51.4129 29.4911
" />
<path d="M51.4129 29.4911
L51.8363 30.3983
" />
<path d="M51.8363 30.3983
L52.2596 29.4911
" />
<path d="M52.2596 29.4911
L52.2596 30.7611
" />
<path d="M53.5900 30.6402
L53.5296 30.7007
" />
<path d="M53.5296 30.7007
L53.3481 30.7611
" />
<path d="M53.3481 30.7611
L53.2272 30.7611
" />
<path d="M53.2272 30.7611
L53.0458 30.7007
" />
<path d="M53.0458 30.7007
L52.9248 30.5797
" />
<path d="M52.9248 30.5797
L52.8643 30.4587
" />
<path d="M52.8643 30.4587
L52.8039 30.2168
" />
<path d="M52.8039 30.2168
L52.8039 30.0354
" />
<path d="M52.8039 30.0354
L52.8643 29.7935
" />
<path d="M52.8643 29.7935
L52.9248 29.6726
" />
<path d="M52.9248 29.6726
L53.0458 29.5516
" />
<path d="M53.0458 29.5516
L53.2272 29.4911
" />
<path d="M53.2272 29.4911
L53.3481 29.4911
" />
<path d="M53.3481 29.4911
L53.5296 29.5516
" />
<path d="M53.5296 29.5516
L53.5900 29.6121
" />
<path d="M54.1948 30.7611
L54.4367 30.7611
" />
<path d="M54.4367 30.7611
L54.5577 30.7007
" />
<path d="M54.5577 30.7007
L54.6181 30.6402
" />
<path d="M54.6181 30.6402
L54.7391 30.4587
" />
<path d="M54.7391 30.4587
L54.7996 30.2168
" />
<path d="M54.7996 30.2168
L54.7996 29.7330
" />
<path d="M54.7996 29.7330
L54.7391 29.6121
" />
<path d="M54.7391 29.6121
L54.6786 29.5516
" />
<path d="M54.6786 29.5516
L54.5577 29.4911
" />
<path d="M54.5577 29.4911
L54.3158 29.4911
" />
<path d="M54.3158 29.4911
L54.1948 29.5516
" />
<path d="M54.1948 29.5516
L54.1343 29.6121
" />
<path d="M54.1343 29.6121
L54.0739 29.7330
" />
<path d="M54.0739 29.7330
L54.0739 30.0354
" />
<path d="M54.0739 30.0354
L54.1343 30.1564
" />
<path d="M54.1343 30.1564
L54.1948 30.2168
" />
<path d="M54.1948 30.2168
L54.3158 30.2773
" />
<path d="M54.3158 30.2773
L54.5577 30.2773
" />
<path d="M54.5577 30.2773
L54.6786 30.2168
" />
<path d="M54.6786 30.2168
L54.7391 30.1564
" />
<path d="M54.7391 30.1564
L54.7996 30.0354
" />
<path d="M55.2834 30.7007
L55.4648 30.7611
" />
<path d="M55.4648 30.7611
L55.7672 30.7611
" />
<path d="M55.7672 30.7611
L55.8881 30.7007
" />
<path d="M55.8881 30.7007
L55.9486 30.6402
" />
<path d="M55.9486 30.6402
L56.0091 30.5192
" />
<path d="M56.0091 30.5192
L56.0091 30.3983
" />
<path d="M56.0091 30.3983
L55.9486 30.2773
" />
<path d="M55.9486 30.2773
L55.8881 30.2168
" />
<path d="M55.8881 30.2168
L55.7672 30.1564
" />
<path d="M55.7672 30.1564
L55.5253 30.0959
" />
<path d="M55.5253 30.0959
L55.4043 30.0354
" />
<path d="M55.4043 30.0354
L55.3438 29.9749
" />
<path d="M55.3438 29.9749
L55.2834 29.8540
" />
<path d="M55.2834 29.8540
L55.2834 29.7330
" />
<path d="M55.2834 29.7330
L55.3438 29.6121
" />
<path d="M55.3438 29.6121
L55.4043 29.5516
" />
<path d="M55.4043 29.5516
L55.5253 29.4911
" />
<path d="M55.5253 29.4911
L55.8276 29.4911
" />
<path d="M55.8276 29.4911
L56.0091 29.5516
" />
<path d="M56.7952 29.4911
L56.9162 29.4911
" />
<path d="M56.9162 29.4911
L57.0371 29.5516
" />
<path d="M57.0371 29.5516
L57.0976 29.6121
" />
<path d="M57.0976 29.6121
L57.1581 29.7330
" />
<path d="M57.1581 29.7330
L57.2186 29.9749
" />
<path d="M57.2186 29.9749
L57.2186 30.2773
" />
<path d="M57.2186 30.2773
L57.1581 30.5192
" />
<path d="M57.1581 30.5192
L57.0976 30.6402
" />
<path d="M57.0976 30.6402
L57.0371 30.7007
" />
<path d="M57.0371 30.7007
L56.9162 30.7611
" />
<path d="M56.9162 30.7611
L56.7952 30.7611
" />
<path d="M56.7952 30.7611
L56.6743 30.7007
" />
<path d="M56.6743 30.7007
L56.6138 30.6402
" />
<path d="M56.6138 30.6402
L56.5533 30.5192
" />
<path d="M56.5533 30.5192
L56.4929 30.2773
" />
<path d="M56.4929 30.2773
L56.4929 29.9749
" />
<path d="M56.4929 29.9749
L56.5533 29.7330
" />
<path d="M56.5533 29.7330
L56.6138 29.6121
" />
<path d="M56.6138 29.6121
L56.6743 29.5516
" />
<path d="M56.6743 29.5516
L56.7952 29.4911
" />
<path d="M57.9443 30.0354
L57.8233 29.9749
" />
<path d="M57.8233 29.9749
L57.7628 29.9145
" />
<path d="M57.7628 29.9145
L57.7024 29.7935
" />
<path d="M57.7024 29.7935
L57.7024 29.7330
" />
<path d="M57.7024 29.7330
L57.7628 29.6121
" />
<path d="M57.7628 29.6121
L57.8233 29.5516
" />
<path d="M57.8233 29.5516
L57.9443 29.4911
" />
<path d="M57.9443 29.4911
L58.1862 29.4911
" />
<path d="M58.1862 29.4911
L58.3071 29.5516
" />
<path d="M58.3071 29.5516
L58.3676 29.6121
" />
<path d="M58.3676 29.6121
L58.4281 29.7330
" />
<path d="M58.4281 29.7330
L58.4281 29.7935
" />
<path d="M58.4281 29.7935
L58.3676 29.9145
" />
<path d="M58.3676 29.9145
L58.3071 29.9749
" />
<path d="M58.3071 29.9749
L58.1862 30.0354
" />
<path d="M58.1862 30.0354
L57.9443 30.0354
" />
<path d="M57.9443 30.0354
L57.8233 30.0959
" />
<path d="M57.8233 30.0959
L57.7628 30.1564
" />
<path d="M57.7628 30.1564
L57.7024 30.2773
" />
<path d="M57.7024 30.2773
L57.7024 30.5192
" />
<path d="M57.7024 30.5192
L57.7628 30.6402
" />
<path d="M57.7628 30.6402
L57.8233 30.7007
" />
<path d="M57.8233 30.7007
L57.9443 30.7611
" />
<path d="M57.9443 30.7611
L58.1862 30.7611
" />
<path d="M58.1862 30.7611
L58.3071 30.7007
" />
<path d="M58.3071 30.7007
L58.3676 30.6402
" />
<path d="M58.3676 30.6402
L58.4281 30.5192
" />
<path d="M58.4281 30.5192
L58.4281 30.2773
" />
<path d="M58.4281 30.2773
L58.3676 30.1564
" />
<path d="M58.3676 30.1564
L58.3071 30.0959
" />
<path d="M58.3071 30.0959
L58.1862 30.0354
" />
<path d="M58.9119 30.7007
L59.0933 30.7611
" />
<path d="M59.0933 30.7611
L59.3957 30.7611
" />
<path d="M59.3957 30.7611
L59.5166 30.7007
" />
<path d="M59.5166 30.7007
L59.5771 30.6402
" />
<path d="M59.5771 30.6402
L59.6376 30.5192
" />
<path d="M59.6376 30.5192
L59.6376 30.3983
" />
<path d="M59.6376 30.3983
L59.5771 30.2773
" />
<path d="M59.5771 30.2773
L59.5166 30.2168
" />
<path d="M59.5166 30.2168
L59.3957 30.1564
" />
<path d="M59.3957 30.1564
L59.1538 30.0959
" />
<path d="M59.1538 30.0959
L59.0328 30.0354
" />
<path d="M59.0328 30.0354
L58.9723 29.9749
" />
<path d="M58.9723 29.9749
L58.9119 29.8540
" />
<path d="M58.9119 29.8540
L58.9119 29.7330
" />
<path d="M58.9119 29.7330
L58.9723 29.6121
" />
<path d="M58.9723 29.6121
L59.0328 29.5516
" />
<path d="M59.0328 29.5516
L59.1538 29.4911
" />
<path d="M59.1538 29.4911
L59.4561 29.4911
" />
<path d="M59.4561 29.4911
L59.6376 29.5516
" />
<path d="M60.1818 30.7611
L60.1818 29.4911
" />
<path d="M60.1818 30.0959
L60.9075 30.0959
" />
<path d="M60.9075 30.7611
L60.9075 29.4911
" />
<path d="M61.3914 29.4911
L62.1776 29.4911
" />
<path d="M62.1776 29.4911
L61.7542 29.9749
" />
<path d="M61.7542 29.9749
L61.9357 29.9749
" />
<path d="M61.9357 29.9749
L62.0566 30.0354
" />
<path d="M62.0566 30.0354
L62.1171 30.0959
" />
<path d="M62.1171 30.0959
L62.1776 30.2168
" />
<path d="M62.1776 30.2168
L62.1776 30.5192
" />
<path d="M62.1776 30.5192
L62.1171 30.6402
" />
<path d="M62.1171 30.6402
L62.0566 30.7007
" />
<path d="M62.0566 30.7007
L61.9357 30.7611
" />
<path d="M61.9357 30.7611
L61.5728 30.7611
" />
<path d="M61.5728 30.7611
L61.4519 30.7007
" />
<path d="M61.4519 30.7007
L61.3914 30.6402
" />
<path d="M62.6614 29.6121
L62.7218 29.5516
" />
<path d="M62.7218 29.5516
L62.8428 29.4911
" />
<path d="M62.8428 29.4911
L63.1452 29.4911
" />
<path d="M63.1452 29.4911
L63.2661 29.5516
" />
<path d="M63.2661 29.5516
L63.3266 29.6121
" />
<path d="M63.3266 29.6121
L63.3871 29.7330
" />
<path d="M63.3871 29.7330
L63.3871 29.8540
" />
<path d="M63.3871 29.8540
L63.3266 30.0354
" />
<path d="M63.3266 30.0354
L62.6009 30.7611
" />
<path d="M62.6009 30.7611
L63.3871 30.7611
" />
<path d="M63.9313 30.6402
L63.9918 30.7007
" />
<path d="M63.9918 30.7007
L63.9313 30.7611
" />
<path d="M63.9313 30.7611
L63.8709 30.7007
" />
<path d="M63.8709 30.7007
L63.9313 30.6402
" />
<path d="M63.9313 30.6402
L63.9313 30.7611
" />
<path d="M64.5361 29.9145
L64.5361 31.1845
" />
<path d="M64.5361 29.9749
L64.6571 29.9145
" />
<path d="M64.6571 29.9145
L64.8990 29.9145
" />
<path d="M64.8990 29.9145
L65.0199 29.9749
" />
<path d="M65.0199 29.9749
L65.0804 30.0354
" />
<path d="M65.0804 30.0354
L65.1409 30.1564
" />
<path d="M65.1409 30.1564
L65.1409 30.5192
" />
<path d="M65.1409 30.5192
L65.0804 30.6402
" />
<path d="M65.0804 30.6402
L65.0199 30.7007
" />
<path d="M65.0199 30.7007
L64.8990 30.7611
" />
<path d="M64.8990 30.7611
L64.6571 30.7611
" />
<path d="M64.6571 30.7611
L64.5361 30.7007
" />
<path d="M66.2294 30.7611
L66.2294 29.4911
" />
<path d="M66.2294 30.7007
L66.1085 30.7611
" />
<path d="M66.1085 30.7611
L65.8666 30.7611
" />
<path d="M65.8666 30.7611
L65.7456 30.7007
" />
<path d="M65.7456 30.7007
L65.6851 30.6402
" />
<path d="M65.6851 30.6402
L65.6247 30.5192
" />
<path d="M65.6247 30.5192
L65.6247 30.1564
" />
<path d="M65.6247 30.1564
L65.6851 30.0354
" />
<path d="M65.6851 30.0354
L65.7456 29.9749
" />
<path d="M65.7456 29.9749
L65.8666 29.9145
" />
<path d="M65.8666 29.9145
L66.1085 29.9145
" />
<path d="M66.1085 29.9145
L66.2294 29.9749
" />
<path d="M66.6527 29.9145
L67.1365 29.9145
" />
<path d="M66.8341 30.7611
L66.8341 29.6726
" />
<path d="M66.8341 29.6726
L66.8946 29.5516
" />
<path d="M66.8946 29.5516
L67.0156 29.4911
" />
<path d="M67.0156 29.4911
L67.1365 29.4911
" />
</g></g> 
</svg>
