<?xml version="1.0" standalone="no"?>
 <!DOCTYPE svg PUBLIC "-//W3C//DTD SVG 1.1//EN" 
 "http://www.w3.org/Graphics/SVG/1.1/DTD/svg11.dtd"> 
<svg
  xmlns:svg="http://www.w3.org/2000/svg"
  xmlns="http://www.w3.org/2000/svg"
  xmlns:xlink="http://www.w3.org/1999/xlink"
  version="1.1"
  width="19.0500mm" height="13.2080mm" viewBox="0.0000 0.0000 19.0500 13.2080">
<title>SVG Image created as working.svg date 2023/09/18 18:12:54 </title>
  <desc>Image generated by Eeschema-SVG </desc>
<g style="fill:#000000; fill-opacity:1.0000;stroke:#000000; stroke-opacity:1.0000;
stroke-linecap:round; stroke-linejoin:round;"
 transform="translate(0 0) scale(1 1)">
</g>
<g style="fill:#840000; fill-opacity:0.0; 
stroke:#840000; stroke-width:0.0000; stroke-opacity:1; 
stroke-linecap:round; stroke-linejoin:round;">
</g>
<g style="fill:#840084; fill-opacity:0.0; 
stroke:#840084; stroke-width:0.0000; stroke-opacity:1; 
stroke-linecap:round; stroke-linejoin:round;">
</g>
<g style="fill:#840000; fill-opacity:0.0; 
stroke:#840000; stroke-width:0.0000; stroke-opacity:1; 
stroke-linecap:round; stroke-linejoin:round;">
</g>
<g style="fill:#840000; fill-opacity:0.0; 
stroke:#840000; stroke-width:0.1524; stroke-opacity:1; 
stroke-linecap:round; stroke-linejoin:round;">
<circle cx="7.4993" cy="5.9958" r="0.4572" /> 
<path style="fill:#840000; fill-opacity:0.0; 
stroke:#840000; stroke-width:0.1524; stroke-opacity:1; 
stroke-linecap:round; stroke-linejoin:round;fill:none"
d="M 8.0073,5.9958
11.0553,4.9798
" /> 
<circle cx="11.5633" cy="8.5358" r="0.4572" /> 
<circle cx="11.5633" cy="5.9958" r="0.4572" /> 
<circle cx="11.5633" cy="3.4558" r="0.4572" /> 
<path d="M12.0713 3.4558
L14.6113 3.4558
" />
</g>
<g style="fill:#A90000; fill-opacity:0.0; 
stroke:#A90000; stroke-width:0.1524; stroke-opacity:1; 
stroke-linecap:round; stroke-linejoin:round;">
<text x="13.3413" y="3.2018"
textLength="1.4127" font-size="1.6933" lengthAdjust="spacingAndGlyphs"
text-anchor="middle" opacity="0">1</text>
<g class="stroked-text"><desc>1</desc>
<path d="M13.7042 3.0383
L12.9785 3.0383
" />
<path d="M13.3413 3.0383
L13.3413 1.7683
" />
<path d="M13.3413 1.7683
L13.2204 1.9498
" />
<path d="M13.2204 1.9498
L13.0994 2.0707
" />
<path d="M13.0994 2.0707
L12.9785 2.1312
" />
</g></g>
<g style="fill:#840000; fill-opacity:0.0; 
stroke:#840000; stroke-width:0.1524; stroke-opacity:1; 
stroke-linecap:round; stroke-linejoin:round;">
<path d="M12.0713 8.5358
L14.6113 8.5358
" />
</g>
<g style="fill:#A90000; fill-opacity:0.0; 
stroke:#A90000; stroke-width:0.1524; stroke-opacity:1; 
stroke-linecap:round; stroke-linejoin:round;">
<text x="13.3413" y="8.2818"
textLength="1.4127" font-size="1.6933" lengthAdjust="spacingAndGlyphs"
text-anchor="middle" opacity="0">2</text>
<g class="stroked-text"><desc>2</desc>
<path d="M12.9785 6.9693
L13.0389 6.9088
" />
<path d="M13.0389 6.9088
L13.1599 6.8483
" />
<path d="M13.1599 6.8483
L13.4623 6.8483
" />
<path d="M13.4623 6.8483
L13.5832 6.9088
" />
<path d="M13.5832 6.9088
L13.6437 6.9693
" />
<path d="M13.6437 6.9693
L13.7042 7.0902
" />
<path d="M13.7042 7.0902
L13.7042 7.2112
" />
<path d="M13.7042 7.2112
L13.6437 7.3926
" />
<path d="M13.6437 7.3926
L12.9180 8.1183
" />
<path d="M12.9180 8.1183
L13.7042 8.1183
" />
</g></g>
<g style="fill:#840000; fill-opacity:0.0; 
stroke:#840000; stroke-width:0.1524; stroke-opacity:1; 
stroke-linecap:round; stroke-linejoin:round;">
<path d="M6.9913 5.9958
L4.4513 5.9958
" />
</g>
<g style="fill:#A90000; fill-opacity:0.0; 
stroke:#A90000; stroke-width:0.1524; stroke-opacity:1; 
stroke-linecap:round; stroke-linejoin:round;">
<text x="5.7213" y="5.7418"
textLength="1.4732" font-size="1.6933" lengthAdjust="spacingAndGlyphs"
text-anchor="middle" opacity="0">C</text>
<g class="stroked-text"><desc>C</desc>
<path d="M6.1143 5.4574
L6.0539 5.5179
" />
<path d="M6.0539 5.5179
L5.8724 5.5783
" />
<path d="M5.8724 5.5783
L5.7515 5.5783
" />
<path d="M5.7515 5.5783
L5.5701 5.5179
" />
<path d="M5.5701 5.5179
L5.4491 5.3969
" />
<path d="M5.4491 5.3969
L5.3886 5.2759
" />
<path d="M5.3886 5.2759
L5.3282 5.0340
" />
<path d="M5.3282 5.0340
L5.3282 4.8526
" />
<path d="M5.3282 4.8526
L5.3886 4.6107
" />
<path d="M5.3886 4.6107
L5.4491 4.4898
" />
<path d="M5.4491 4.4898
L5.5701 4.3688
" />
<path d="M5.5701 4.3688
L5.7515 4.3083
" />
<path d="M5.7515 4.3083
L5.8724 4.3083
" />
<path d="M5.8724 4.3083
L6.0539 4.3688
" />
<path d="M6.0539 4.3688
L6.1143 4.4293
" />
</g></g>
<g style="fill:#840000; fill-opacity:0.0; 
stroke:#840000; stroke-width:0.1524; stroke-opacity:1; 
stroke-linecap:round; stroke-linejoin:round;">
<path d="M12.0713 5.9958
L14.6113 5.9958
" />
</g>
<g style="fill:#A90000; fill-opacity:0.0; 
stroke:#A90000; stroke-width:0.1524; stroke-opacity:1; 
stroke-linecap:round; stroke-linejoin:round;">
<text x="13.3413" y="5.7418"
textLength="1.1708" font-size="1.6933" lengthAdjust="spacingAndGlyphs"
text-anchor="middle" opacity="0">T</text>
<g class="stroked-text"><desc>T</desc>
<path d="M12.9784 4.3083
L13.7041 4.3083
" />
<path d="M13.3413 5.5783
L13.3413 4.3083
" />
</g></g>
<g style="fill:#840084; fill-opacity:0.0; 
stroke:#840084; stroke-width:0.1524; stroke-opacity:1; 
stroke-linecap:round; stroke-linejoin:round;">
</g>
<g style="fill:#006464; fill-opacity:0.0; 
stroke:#006464; stroke-width:0.1524; stroke-opacity:1; 
stroke-linecap:round; stroke-linejoin:round;">
</g>
<g style="fill:#006464; fill-opacity:0.0; 
stroke:#006464; stroke-width:0.1588; stroke-opacity:1; 
stroke-linecap:round; stroke-linejoin:round;">
<text x="8.2613" y="4.0908"
textLength="2.6415" font-size="1.6933" lengthAdjust="spacingAndGlyphs"
text-anchor="middle" opacity="0">U?</text>
<g class="stroked-text"><desc>U?</desc>
<path d="M7.3541 2.7650
L7.3541 3.7931
" />
<path d="M7.3541 3.7931
L7.4146 3.9141
" />
<path d="M7.4146 3.9141
L7.4751 3.9746
" />
<path d="M7.4751 3.9746
L7.5960 4.0350
" />
<path d="M7.5960 4.0350
L7.8379 4.0350
" />
<path d="M7.8379 4.0350
L7.9589 3.9746
" />
<path d="M7.9589 3.9746
L8.0194 3.9141
" />
<path d="M8.0194 3.9141
L8.0798 3.7931
" />
<path d="M8.0798 3.7931
L8.0798 2.7650
" />
<path d="M8.8661 3.9141
L8.9265 3.9746
" />
<path d="M8.9265 3.9746
L8.8661 4.0350
" />
<path d="M8.8661 4.0350
L8.8056 3.9746
" />
<path d="M8.8056 3.9746
L8.8661 3.9141
" />
<path d="M8.8661 3.9141
L8.8661 4.0350
" />
<path d="M8.6242 2.8255
L8.7451 2.7650
" />
<path d="M8.7451 2.7650
L9.0475 2.7650
" />
<path d="M9.0475 2.7650
L9.1684 2.8255
" />
<path d="M9.1684 2.8255
L9.2289 2.9465
" />
<path d="M9.2289 2.9465
L9.2289 3.0674
" />
<path d="M9.2289 3.0674
L9.1684 3.1884
" />
<path d="M9.1684 3.1884
L9.1080 3.2488
" />
<path d="M9.1080 3.2488
L8.9870 3.3093
" />
<path d="M8.9870 3.3093
L8.9265 3.3698
" />
<path d="M8.9265 3.3698
L8.8661 3.4907
" />
<path d="M8.8661 3.4907
L8.8661 3.5512
" />
</g><text x="9.5313" y="11.7108"
textLength="15.8856" font-size="1.6933" lengthAdjust="spacingAndGlyphs"
text-anchor="middle" opacity="0">SW_SP3T_Rocker</text>
<g class="stroked-text"><desc>SW_SP3T_Rocker</desc>
<path d="M1.9416 11.5946
L2.1230 11.6550
" />
<path d="M2.1230 11.6550
L2.4254 11.6550
" />
<path d="M2.4254 11.6550
L2.5463 11.5946
" />
<path d="M2.5463 11.5946
L2.6068 11.5341
" />
<path d="M2.6068 11.5341
L2.6673 11.4131
" />
<path d="M2.6673 11.4131
L2.6673 11.2922
" />
<path d="M2.6673 11.2922
L2.6068 11.1712
" />
<path d="M2.6068 11.1712
L2.5463 11.1107
" />
<path d="M2.5463 11.1107
L2.4254 11.0503
" />
<path d="M2.4254 11.0503
L2.1835 10.9898
" />
<path d="M2.1835 10.9898
L2.0625 10.9293
" />
<path d="M2.0625 10.9293
L2.0020 10.8688
" />
<path d="M2.0020 10.8688
L1.9416 10.7479
" />
<path d="M1.9416 10.7479
L1.9416 10.6269
" />
<path d="M1.9416 10.6269
L2.0020 10.5060
" />
<path d="M2.0020 10.5060
L2.0625 10.4455
" />
<path d="M2.0625 10.4455
L2.1835 10.3850
" />
<path d="M2.1835 10.3850
L2.4858 10.3850
" />
<path d="M2.4858 10.3850
L2.6673 10.4455
" />
<path d="M3.0906 10.3850
L3.3930 11.6550
" />
<path d="M3.3930 11.6550
L3.6349 10.7479
" />
<path d="M3.6349 10.7479
L3.8768 11.6550
" />
<path d="M3.8768 11.6550
L4.1792 10.3850
" />
<path d="M4.3606 11.7760
L5.3282 11.7760
" />
<path d="M5.5701 11.5946
L5.7515 11.6550
" />
<path d="M5.7515 11.6550
L6.0539 11.6550
" />
<path d="M6.0539 11.6550
L6.1748 11.5946
" />
<path d="M6.1748 11.5946
L6.2353 11.5341
" />
<path d="M6.2353 11.5341
L6.2958 11.4131
" />
<path d="M6.2958 11.4131
L6.2958 11.2922
" />
<path d="M6.2958 11.2922
L6.2353 11.1712
" />
<path d="M6.2353 11.1712
L6.1748 11.1107
" />
<path d="M6.1748 11.1107
L6.0539 11.0503
" />
<path d="M6.0539 11.0503
L5.8120 10.9898
" />
<path d="M5.8120 10.9898
L5.6910 10.9293
" />
<path d="M5.6910 10.9293
L5.6305 10.8688
" />
<path d="M5.6305 10.8688
L5.5701 10.7479
" />
<path d="M5.5701 10.7479
L5.5701 10.6269
" />
<path d="M5.5701 10.6269
L5.6305 10.5060
" />
<path d="M5.6305 10.5060
L5.6910 10.4455
" />
<path d="M5.6910 10.4455
L5.8120 10.3850
" />
<path d="M5.8120 10.3850
L6.1143 10.3850
" />
<path d="M6.1143 10.3850
L6.2958 10.4455
" />
<path d="M6.8400 11.6550
L6.8400 10.3850
" />
<path d="M6.8400 10.3850
L7.3238 10.3850
" />
<path d="M7.3238 10.3850
L7.4448 10.4455
" />
<path d="M7.4448 10.4455
L7.5053 10.5060
" />
<path d="M7.5053 10.5060
L7.5657 10.6269
" />
<path d="M7.5657 10.6269
L7.5657 10.8084
" />
<path d="M7.5657 10.8084
L7.5053 10.9293
" />
<path d="M7.5053 10.9293
L7.4448 10.9898
" />
<path d="M7.4448 10.9898
L7.3238 11.0503
" />
<path d="M7.3238 11.0503
L6.8400 11.0503
" />
<path d="M7.9891 10.3850
L8.7753 10.3850
" />
<path d="M8.7753 10.3850
L8.3519 10.8688
" />
<path d="M8.3519 10.8688
L8.5334 10.8688
" />
<path d="M8.5334 10.8688
L8.6543 10.9293
" />
<path d="M8.6543 10.9293
L8.7148 10.9898
" />
<path d="M8.7148 10.9898
L8.7753 11.1107
" />
<path d="M8.7753 11.1107
L8.7753 11.4131
" />
<path d="M8.7753 11.4131
L8.7148 11.5341
" />
<path d="M8.7148 11.5341
L8.6543 11.5946
" />
<path d="M8.6543 11.5946
L8.5334 11.6550
" />
<path d="M8.5334 11.6550
L8.1705 11.6550
" />
<path d="M8.1705 11.6550
L8.0496 11.5946
" />
<path d="M8.0496 11.5946
L7.9891 11.5341
" />
<path d="M9.1381 10.3850
L9.8638 10.3850
" />
<path d="M9.5010 11.6550
L9.5010 10.3850
" />
<path d="M9.9848 11.7760
L10.9524 11.7760
" />
<path d="M11.9804 11.6550
L11.5571 11.0503
" />
<path d="M11.2547 11.6550
L11.2547 10.3850
" />
<path d="M11.2547 10.3850
L11.7385 10.3850
" />
<path d="M11.7385 10.3850
L11.8595 10.4455
" />
<path d="M11.8595 10.4455
L11.9200 10.5060
" />
<path d="M11.9200 10.5060
L11.9804 10.6269
" />
<path d="M11.9804 10.6269
L11.9804 10.8084
" />
<path d="M11.9804 10.8084
L11.9200 10.9293
" />
<path d="M11.9200 10.9293
L11.8595 10.9898
" />
<path d="M11.8595 10.9898
L11.7385 11.0503
" />
<path d="M11.7385 11.0503
L11.2547 11.0503
" />
<path d="M12.7062 11.6550
L12.5852 11.5946
" />
<path d="M12.5852 11.5946
L12.5247 11.5341
" />
<path d="M12.5247 11.5341
L12.4643 11.4131
" />
<path d="M12.4643 11.4131
L12.4643 11.0503
" />
<path d="M12.4643 11.0503
L12.5247 10.9293
" />
<path d="M12.5247 10.9293
L12.5852 10.8688
" />
<path d="M12.5852 10.8688
L12.7062 10.8084
" />
<path d="M12.7062 10.8084
L12.8876 10.8084
" />
<path d="M12.8876 10.8084
L13.0085 10.8688
" />
<path d="M13.0085 10.8688
L13.0690 10.9293
" />
<path d="M13.0690 10.9293
L13.1295 11.0503
" />
<path d="M13.1295 11.0503
L13.1295 11.4131
" />
<path d="M13.1295 11.4131
L13.0690 11.5341
" />
<path d="M13.0690 11.5341
L13.0085 11.5946
" />
<path d="M13.0085 11.5946
L12.8876 11.6550
" />
<path d="M12.8876 11.6550
L12.7062 11.6550
" />
<path d="M14.2180 11.5946
L14.0971 11.6550
" />
<path d="M14.0971 11.6550
L13.8552 11.6550
" />
<path d="M13.8552 11.6550
L13.7342 11.5946
" />
<path d="M13.7342 11.5946
L13.6737 11.5341
" />
<path d="M13.6737 11.5341
L13.6133 11.4131
" />
<path d="M13.6133 11.4131
L13.6133 11.0503
" />
<path d="M13.6133 11.0503
L13.6737 10.9293
" />
<path d="M13.6737 10.9293
L13.7342 10.8688
" />
<path d="M13.7342 10.8688
L13.8552 10.8084
" />
<path d="M13.8552 10.8084
L14.0971 10.8084
" />
<path d="M14.0971 10.8084
L14.2180 10.8688
" />
<path d="M14.7623 11.6550
L14.7623 10.3850
" />
<path d="M14.8833 11.1712
L15.2461 11.6550
" />
<path d="M15.2461 10.8084
L14.7623 11.2922
" />
<path d="M16.2742 11.5946
L16.1533 11.6550
" />
<path d="M16.1533 11.6550
L15.9114 11.6550
" />
<path d="M15.9114 11.6550
L15.7904 11.5946
" />
<path d="M15.7904 11.5946
L15.7300 11.4736
" />
<path d="M15.7300 11.4736
L15.7300 10.9898
" />
<path d="M15.7300 10.9898
L15.7904 10.8688
" />
<path d="M15.7904 10.8688
L15.9114 10.8084
" />
<path d="M15.9114 10.8084
L16.1533 10.8084
" />
<path d="M16.1533 10.8084
L16.2742 10.8688
" />
<path d="M16.2742 10.8688
L16.3347 10.9898
" />
<path d="M16.3347 10.9898
L16.3347 11.1107
" />
<path d="M16.3347 11.1107
L15.7300 11.2317
" />
<path d="M16.8790 11.6550
L16.8790 10.8084
" />
<path d="M16.8790 11.0503
L16.9395 10.9293
" />
<path d="M16.9395 10.9293
L17.0000 10.8688
" />
<path d="M17.0000 10.8688
L17.1209 10.8084
" />
<path d="M17.1209 10.8084
L17.2419 10.8084
" />
</g></g> 
</svg>
