<?xml version="1.0" standalone="no"?>
 <!DOCTYPE svg PUBLIC "-//W3C//DTD SVG 1.1//EN" 
 "http://www.w3.org/Graphics/SVG/1.1/DTD/svg11.dtd"> 
<svg
  xmlns:svg="http://www.w3.org/2000/svg"
  xmlns="http://www.w3.org/2000/svg"
  xmlns:xlink="http://www.w3.org/1999/xlink"
  version="1.1"
  width="84.8106mm" height="10.8458mm" viewBox="0.0000 0.0000 84.8106 10.8458">
<title>SVG Image created as working.svg date 2023/08/12 06:50:11 </title>
  <desc>Image generated by Eeschema-SVG </desc>
<g style="fill:#000000; fill-opacity:1.0000;stroke:#000000; stroke-opacity:1.0000;
stroke-linecap:round; stroke-linejoin:round;"
 transform="translate(0 0) scale(1 1)">
</g>
<g style="fill:#840000; fill-opacity:0.0; 
stroke:#840000; stroke-width:0.0000; stroke-opacity:1; 
stroke-linecap:round; stroke-linejoin:round;">
</g>
<g style="fill:#840084; fill-opacity:0.0; 
stroke:#840084; stroke-width:0.0000; stroke-opacity:1; 
stroke-linecap:round; stroke-linejoin:round;">
</g>
<g style="fill:#840000; fill-opacity:0.0; 
stroke:#840000; stroke-width:0.0000; stroke-opacity:1; 
stroke-linecap:round; stroke-linejoin:round;">
</g>
<g style="fill:#840084; fill-opacity:0.0; 
stroke:#840084; stroke-width:0.0000; stroke-opacity:1; 
stroke-linecap:round; stroke-linejoin:round;">
</g>
<g style="fill:#006464; fill-opacity:0.0; 
stroke:#006464; stroke-width:0.0000; stroke-opacity:1; 
stroke-linecap:round; stroke-linejoin:round;">
</g>
<g style="fill:#006464; fill-opacity:0.0; 
stroke:#006464; stroke-width:0.1588; stroke-opacity:1; 
stroke-linecap:round; stroke-linejoin:round;">
<text x="42.4059" y="2.5594"
textLength="2.5810" font-size="1.6933" lengthAdjust="spacingAndGlyphs"
text-anchor="middle" opacity="0">D?</text>
<g class="stroked-text"><desc>D?</desc>
<path d="M41.5289 2.5036
L41.5289 1.2336
" />
<path d="M41.5289 1.2336
L41.8313 1.2336
" />
<path d="M41.8313 1.2336
L42.0127 1.2941
" />
<path d="M42.0127 1.2941
L42.1337 1.4151
" />
<path d="M42.1337 1.4151
L42.1942 1.5360
" />
<path d="M42.1942 1.5360
L42.2546 1.7779
" />
<path d="M42.2546 1.7779
L42.2546 1.9593
" />
<path d="M42.2546 1.9593
L42.1942 2.2012
" />
<path d="M42.1942 2.2012
L42.1337 2.3222
" />
<path d="M42.1337 2.3222
L42.0127 2.4432
" />
<path d="M42.0127 2.4432
L41.8313 2.5036
" />
<path d="M41.8313 2.5036
L41.5289 2.5036
" />
<path d="M42.9804 2.3827
L43.0408 2.4432
" />
<path d="M43.0408 2.4432
L42.9804 2.5036
" />
<path d="M42.9804 2.5036
L42.9199 2.4432
" />
<path d="M42.9199 2.4432
L42.9804 2.3827
" />
<path d="M42.9804 2.3827
L42.9804 2.5036
" />
<path d="M42.7385 1.2941
L42.8594 1.2336
" />
<path d="M42.8594 1.2336
L43.1618 1.2336
" />
<path d="M43.1618 1.2336
L43.2827 1.2941
" />
<path d="M43.2827 1.2941
L43.3432 1.4151
" />
<path d="M43.3432 1.4151
L43.3432 1.5360
" />
<path d="M43.3432 1.5360
L43.2827 1.6570
" />
<path d="M43.2827 1.6570
L43.2223 1.7174
" />
<path d="M43.2223 1.7174
L43.1013 1.7779
" />
<path d="M43.1013 1.7779
L43.0408 1.8384
" />
<path d="M43.0408 1.8384
L42.9804 1.9593
" />
<path d="M42.9804 1.9593
L42.9804 2.0198
" />
</g><text x="42.4059" y="7.6394"
textLength="14.7365" font-size="1.6933" lengthAdjust="spacingAndGlyphs"
text-anchor="middle" opacity="0">PMEG6020AELR</text>
<g class="stroked-text"><desc>PMEG6020AELR</desc>
<path d="M35.4512 7.5836
L35.4512 6.3136
" />
<path d="M35.4512 6.3136
L35.9350 6.3136
" />
<path d="M35.9350 6.3136
L36.0560 6.3741
" />
<path d="M36.0560 6.3741
L36.1165 6.4346
" />
<path d="M36.1165 6.4346
L36.1769 6.5555
" />
<path d="M36.1769 6.5555
L36.1769 6.7370
" />
<path d="M36.1769 6.7370
L36.1165 6.8579
" />
<path d="M36.1165 6.8579
L36.0560 6.9184
" />
<path d="M36.0560 6.9184
L35.9350 6.9789
" />
<path d="M35.9350 6.9789
L35.4512 6.9789
" />
<path d="M36.7212 7.5836
L36.7212 6.3136
" />
<path d="M36.7212 6.3136
L37.1446 7.2208
" />
<path d="M37.1446 7.2208
L37.5679 6.3136
" />
<path d="M37.5679 6.3136
L37.5679 7.5836
" />
<path d="M38.1726 6.9184
L38.5960 6.9184
" />
<path d="M38.7774 7.5836
L38.1726 7.5836
" />
<path d="M38.1726 7.5836
L38.1726 6.3136
" />
<path d="M38.1726 6.3136
L38.7774 6.3136
" />
<path d="M39.9869 6.3741
L39.8659 6.3136
" />
<path d="M39.8659 6.3136
L39.6845 6.3136
" />
<path d="M39.6845 6.3136
L39.5031 6.3741
" />
<path d="M39.5031 6.3741
L39.3821 6.4951
" />
<path d="M39.3821 6.4951
L39.3216 6.6160
" />
<path d="M39.3216 6.6160
L39.2612 6.8579
" />
<path d="M39.2612 6.8579
L39.2612 7.0393
" />
<path d="M39.2612 7.0393
L39.3216 7.2812
" />
<path d="M39.3216 7.2812
L39.3821 7.4022
" />
<path d="M39.3821 7.4022
L39.5031 7.5232
" />
<path d="M39.5031 7.5232
L39.6845 7.5836
" />
<path d="M39.6845 7.5836
L39.8054 7.5836
" />
<path d="M39.8054 7.5836
L39.9869 7.5232
" />
<path d="M39.9869 7.5232
L40.0473 7.4627
" />
<path d="M40.0473 7.4627
L40.0473 7.0393
" />
<path d="M40.0473 7.0393
L39.8054 7.0393
" />
<path d="M41.1359 6.3136
L40.8940 6.3136
" />
<path d="M40.8940 6.3136
L40.7731 6.3741
" />
<path d="M40.7731 6.3741
L40.7126 6.4346
" />
<path d="M40.7126 6.4346
L40.5916 6.6160
" />
<path d="M40.5916 6.6160
L40.5312 6.8579
" />
<path d="M40.5312 6.8579
L40.5312 7.3417
" />
<path d="M40.5312 7.3417
L40.5916 7.4627
" />
<path d="M40.5916 7.4627
L40.6521 7.5232
" />
<path d="M40.6521 7.5232
L40.7731 7.5836
" />
<path d="M40.7731 7.5836
L41.0150 7.5836
" />
<path d="M41.0150 7.5836
L41.1359 7.5232
" />
<path d="M41.1359 7.5232
L41.1964 7.4627
" />
<path d="M41.1964 7.4627
L41.2569 7.3417
" />
<path d="M41.2569 7.3417
L41.2569 7.0393
" />
<path d="M41.2569 7.0393
L41.1964 6.9184
" />
<path d="M41.1964 6.9184
L41.1359 6.8579
" />
<path d="M41.1359 6.8579
L41.0150 6.7974
" />
<path d="M41.0150 6.7974
L40.7731 6.7974
" />
<path d="M40.7731 6.7974
L40.6521 6.8579
" />
<path d="M40.6521 6.8579
L40.5916 6.9184
" />
<path d="M40.5916 6.9184
L40.5312 7.0393
" />
<path d="M42.0430 6.3136
L42.1640 6.3136
" />
<path d="M42.1640 6.3136
L42.2849 6.3741
" />
<path d="M42.2849 6.3741
L42.3454 6.4346
" />
<path d="M42.3454 6.4346
L42.4059 6.5555
" />
<path d="M42.4059 6.5555
L42.4664 6.7974
" />
<path d="M42.4664 6.7974
L42.4664 7.0998
" />
<path d="M42.4664 7.0998
L42.4059 7.3417
" />
<path d="M42.4059 7.3417
L42.3454 7.4627
" />
<path d="M42.3454 7.4627
L42.2849 7.5232
" />
<path d="M42.2849 7.5232
L42.1640 7.5836
" />
<path d="M42.1640 7.5836
L42.0430 7.5836
" />
<path d="M42.0430 7.5836
L41.9221 7.5232
" />
<path d="M41.9221 7.5232
L41.8616 7.4627
" />
<path d="M41.8616 7.4627
L41.8011 7.3417
" />
<path d="M41.8011 7.3417
L41.7407 7.0998
" />
<path d="M41.7407 7.0998
L41.7407 6.7974
" />
<path d="M41.7407 6.7974
L41.8011 6.5555
" />
<path d="M41.8011 6.5555
L41.8616 6.4346
" />
<path d="M41.8616 6.4346
L41.9221 6.3741
" />
<path d="M41.9221 6.3741
L42.0430 6.3136
" />
<path d="M42.9502 6.4346
L43.0106 6.3741
" />
<path d="M43.0106 6.3741
L43.1316 6.3136
" />
<path d="M43.1316 6.3136
L43.4340 6.3136
" />
<path d="M43.4340 6.3136
L43.5549 6.3741
" />
<path d="M43.5549 6.3741
L43.6154 6.4346
" />
<path d="M43.6154 6.4346
L43.6759 6.5555
" />
<path d="M43.6759 6.5555
L43.6759 6.6765
" />
<path d="M43.6759 6.6765
L43.6154 6.8579
" />
<path d="M43.6154 6.8579
L42.8897 7.5836
" />
<path d="M42.8897 7.5836
L43.6759 7.5836
" />
<path d="M44.4620 6.3136
L44.5830 6.3136
" />
<path d="M44.5830 6.3136
L44.7039 6.3741
" />
<path d="M44.7039 6.3741
L44.7644 6.4346
" />
<path d="M44.7644 6.4346
L44.8249 6.5555
" />
<path d="M44.8249 6.5555
L44.8854 6.7974
" />
<path d="M44.8854 6.7974
L44.8854 7.0998
" />
<path d="M44.8854 7.0998
L44.8249 7.3417
" />
<path d="M44.8249 7.3417
L44.7644 7.4627
" />
<path d="M44.7644 7.4627
L44.7039 7.5232
" />
<path d="M44.7039 7.5232
L44.5830 7.5836
" />
<path d="M44.5830 7.5836
L44.4620 7.5836
" />
<path d="M44.4620 7.5836
L44.3411 7.5232
" />
<path d="M44.3411 7.5232
L44.2806 7.4627
" />
<path d="M44.2806 7.4627
L44.2201 7.3417
" />
<path d="M44.2201 7.3417
L44.1597 7.0998
" />
<path d="M44.1597 7.0998
L44.1597 6.7974
" />
<path d="M44.1597 6.7974
L44.2201 6.5555
" />
<path d="M44.2201 6.5555
L44.2806 6.4346
" />
<path d="M44.2806 6.4346
L44.3411 6.3741
" />
<path d="M44.3411 6.3741
L44.4620 6.3136
" />
<path d="M45.3692 7.2208
L45.9739 7.2208
" />
<path d="M45.2482 7.5836
L45.6715 6.3136
" />
<path d="M45.6715 6.3136
L46.0949 7.5836
" />
<path d="M46.5182 6.9184
L46.9416 6.9184
" />
<path d="M47.1230 7.5836
L46.5182 7.5836
" />
<path d="M46.5182 7.5836
L46.5182 6.3136
" />
<path d="M46.5182 6.3136
L47.1230 6.3136
" />
<path d="M48.2720 7.5836
L47.6672 7.5836
" />
<path d="M47.6672 7.5836
L47.6672 6.3136
" />
<path d="M49.4210 7.5836
L48.9977 6.9789
" />
<path d="M48.6953 7.5836
L48.6953 6.3136
" />
<path d="M48.6953 6.3136
L49.1791 6.3136
" />
<path d="M49.1791 6.3136
L49.3001 6.3741
" />
<path d="M49.3001 6.3741
L49.3606 6.4346
" />
<path d="M49.3606 6.4346
L49.4210 6.5555
" />
<path d="M49.4210 6.5555
L49.4210 6.7370
" />
<path d="M49.4210 6.7370
L49.3606 6.8579
" />
<path d="M49.3606 6.8579
L49.3001 6.9184
" />
<path d="M49.3001 6.9184
L49.1791 6.9789
" />
<path d="M49.1791 6.9789
L48.6953 6.9789
" />
</g></g>
<g style="fill:#840084; fill-opacity:0.0; 
stroke:#840084; stroke-width:0.1588; stroke-opacity:1; 
stroke-linecap:round; stroke-linejoin:round;">
<text x="42.4059" y="9.5444"
textLength="36.4475" font-size="1.6933" lengthAdjust="spacingAndGlyphs"
text-anchor="middle" opacity="0">Diode_SMD:Nexperia_CFP3_SOD-123W</text>
<g class="stroked-text"><desc>Diode_SMD:Nexperia_CFP3_SOD-123W</desc>
<path d="M24.5957 9.4886
L24.5957 8.2186
" />
<path d="M24.5957 8.2186
L24.8981 8.2186
" />
<path d="M24.8981 8.2186
L25.0795 8.2791
" />
<path d="M25.0795 8.2791
L25.2005 8.4001
" />
<path d="M25.2005 8.4001
L25.2610 8.5210
" />
<path d="M25.2610 8.5210
L25.3214 8.7629
" />
<path d="M25.3214 8.7629
L25.3214 8.9443
" />
<path d="M25.3214 8.9443
L25.2610 9.1862
" />
<path d="M25.2610 9.1862
L25.2005 9.3072
" />
<path d="M25.2005 9.3072
L25.0795 9.4282
" />
<path d="M25.0795 9.4282
L24.8981 9.4886
" />
<path d="M24.8981 9.4886
L24.5957 9.4886
" />
<path d="M25.8657 9.4886
L25.8657 8.6420
" />
<path d="M25.8657 8.2186
L25.8053 8.2791
" />
<path d="M25.8053 8.2791
L25.8657 8.3396
" />
<path d="M25.8657 8.3396
L25.9262 8.2791
" />
<path d="M25.9262 8.2791
L25.8657 8.2186
" />
<path d="M25.8657 8.2186
L25.8657 8.3396
" />
<path d="M26.6520 9.4886
L26.5310 9.4282
" />
<path d="M26.5310 9.4282
L26.4705 9.3677
" />
<path d="M26.4705 9.3677
L26.4101 9.2467
" />
<path d="M26.4101 9.2467
L26.4101 8.8839
" />
<path d="M26.4101 8.8839
L26.4705 8.7629
" />
<path d="M26.4705 8.7629
L26.5310 8.7024
" />
<path d="M26.5310 8.7024
L26.6520 8.6420
" />
<path d="M26.6520 8.6420
L26.8334 8.6420
" />
<path d="M26.8334 8.6420
L26.9543 8.7024
" />
<path d="M26.9543 8.7024
L27.0148 8.7629
" />
<path d="M27.0148 8.7629
L27.0753 8.8839
" />
<path d="M27.0753 8.8839
L27.0753 9.2467
" />
<path d="M27.0753 9.2467
L27.0148 9.3677
" />
<path d="M27.0148 9.3677
L26.9543 9.4282
" />
<path d="M26.9543 9.4282
L26.8334 9.4886
" />
<path d="M26.8334 9.4886
L26.6520 9.4886
" />
<path d="M28.1638 9.4886
L28.1638 8.2186
" />
<path d="M28.1638 9.4282
L28.0429 9.4886
" />
<path d="M28.0429 9.4886
L27.8010 9.4886
" />
<path d="M27.8010 9.4886
L27.6800 9.4282
" />
<path d="M27.6800 9.4282
L27.6195 9.3677
" />
<path d="M27.6195 9.3677
L27.5591 9.2467
" />
<path d="M27.5591 9.2467
L27.5591 8.8839
" />
<path d="M27.5591 8.8839
L27.6195 8.7629
" />
<path d="M27.6195 8.7629
L27.6800 8.7024
" />
<path d="M27.6800 8.7024
L27.8010 8.6420
" />
<path d="M27.8010 8.6420
L28.0429 8.6420
" />
<path d="M28.0429 8.6420
L28.1638 8.7024
" />
<path d="M29.2523 9.4282
L29.1314 9.4886
" />
<path d="M29.1314 9.4886
L28.8895 9.4886
" />
<path d="M28.8895 9.4886
L28.7685 9.4282
" />
<path d="M28.7685 9.4282
L28.7081 9.3072
" />
<path d="M28.7081 9.3072
L28.7081 8.8234
" />
<path d="M28.7081 8.8234
L28.7685 8.7024
" />
<path d="M28.7685 8.7024
L28.8895 8.6420
" />
<path d="M28.8895 8.6420
L29.1314 8.6420
" />
<path d="M29.1314 8.6420
L29.2523 8.7024
" />
<path d="M29.2523 8.7024
L29.3128 8.8234
" />
<path d="M29.3128 8.8234
L29.3128 8.9443
" />
<path d="M29.3128 8.9443
L28.7081 9.0653
" />
<path d="M29.5548 9.6096
L30.5224 9.6096
" />
<path d="M30.7643 9.4282
L30.9457 9.4886
" />
<path d="M30.9457 9.4886
L31.2481 9.4886
" />
<path d="M31.2481 9.4886
L31.3690 9.4282
" />
<path d="M31.3690 9.4282
L31.4295 9.3677
" />
<path d="M31.4295 9.3677
L31.4900 9.2467
" />
<path d="M31.4900 9.2467
L31.4900 9.1258
" />
<path d="M31.4900 9.1258
L31.4295 9.0048
" />
<path d="M31.4295 9.0048
L31.3690 8.9443
" />
<path d="M31.3690 8.9443
L31.2481 8.8839
" />
<path d="M31.2481 8.8839
L31.0062 8.8234
" />
<path d="M31.0062 8.8234
L30.8852 8.7629
" />
<path d="M30.8852 8.7629
L30.8247 8.7024
" />
<path d="M30.8247 8.7024
L30.7643 8.5815
" />
<path d="M30.7643 8.5815
L30.7643 8.4605
" />
<path d="M30.7643 8.4605
L30.8247 8.3396
" />
<path d="M30.8247 8.3396
L30.8852 8.2791
" />
<path d="M30.8852 8.2791
L31.0062 8.2186
" />
<path d="M31.0062 8.2186
L31.3085 8.2186
" />
<path d="M31.3085 8.2186
L31.4900 8.2791
" />
<path d="M32.0342 9.4886
L32.0342 8.2186
" />
<path d="M32.0342 8.2186
L32.4576 9.1258
" />
<path d="M32.4576 9.1258
L32.8809 8.2186
" />
<path d="M32.8809 8.2186
L32.8809 9.4886
" />
<path d="M33.4856 9.4886
L33.4856 8.2186
" />
<path d="M33.4856 8.2186
L33.7880 8.2186
" />
<path d="M33.7880 8.2186
L33.9694 8.2791
" />
<path d="M33.9694 8.2791
L34.0904 8.4001
" />
<path d="M34.0904 8.4001
L34.1509 8.5210
" />
<path d="M34.1509 8.5210
L34.2113 8.7629
" />
<path d="M34.2113 8.7629
L34.2113 8.9443
" />
<path d="M34.2113 8.9443
L34.1509 9.1862
" />
<path d="M34.1509 9.1862
L34.0904 9.3072
" />
<path d="M34.0904 9.3072
L33.9694 9.4282
" />
<path d="M33.9694 9.4282
L33.7880 9.4886
" />
<path d="M33.7880 9.4886
L33.4856 9.4886
" />
<path d="M34.7556 9.3677
L34.8161 9.4282
" />
<path d="M34.8161 9.4282
L34.7556 9.4886
" />
<path d="M34.7556 9.4886
L34.6952 9.4282
" />
<path d="M34.6952 9.4282
L34.7556 9.3677
" />
<path d="M34.7556 9.3677
L34.7556 9.4886
" />
<path d="M34.7556 8.7024
L34.8161 8.7629
" />
<path d="M34.8161 8.7629
L34.7556 8.8234
" />
<path d="M34.7556 8.8234
L34.6952 8.7629
" />
<path d="M34.6952 8.7629
L34.7556 8.7024
" />
<path d="M34.7556 8.7024
L34.7556 8.8234
" />
<path d="M35.3604 9.4886
L35.3604 8.2186
" />
<path d="M35.3604 8.2186
L36.0861 9.4886
" />
<path d="M36.0861 9.4886
L36.0861 8.2186
" />
<path d="M37.1747 9.4282
L37.0538 9.4886
" />
<path d="M37.0538 9.4886
L36.8119 9.4886
" />
<path d="M36.8119 9.4886
L36.6909 9.4282
" />
<path d="M36.6909 9.4282
L36.6305 9.3072
" />
<path d="M36.6305 9.3072
L36.6305 8.8234
" />
<path d="M36.6305 8.8234
L36.6909 8.7024
" />
<path d="M36.6909 8.7024
L36.8119 8.6420
" />
<path d="M36.8119 8.6420
L37.0538 8.6420
" />
<path d="M37.0538 8.6420
L37.1747 8.7024
" />
<path d="M37.1747 8.7024
L37.2352 8.8234
" />
<path d="M37.2352 8.8234
L37.2352 8.9443
" />
<path d="M37.2352 8.9443
L36.6305 9.0653
" />
<path d="M37.6586 9.4886
L38.3238 8.6420
" />
<path d="M37.6586 8.6420
L38.3238 9.4886
" />
<path d="M38.8076 8.6420
L38.8076 9.9120
" />
<path d="M38.8076 8.7024
L38.9286 8.6420
" />
<path d="M38.9286 8.6420
L39.1705 8.6420
" />
<path d="M39.1705 8.6420
L39.2914 8.7024
" />
<path d="M39.2914 8.7024
L39.3519 8.7629
" />
<path d="M39.3519 8.7629
L39.4124 8.8839
" />
<path d="M39.4124 8.8839
L39.4124 9.2467
" />
<path d="M39.4124 9.2467
L39.3519 9.3677
" />
<path d="M39.3519 9.3677
L39.2914 9.4282
" />
<path d="M39.2914 9.4282
L39.1705 9.4886
" />
<path d="M39.1705 9.4886
L38.9286 9.4886
" />
<path d="M38.9286 9.4886
L38.8076 9.4282
" />
<path d="M40.4404 9.4282
L40.3195 9.4886
" />
<path d="M40.3195 9.4886
L40.0776 9.4886
" />
<path d="M40.0776 9.4886
L39.9566 9.4282
" />
<path d="M39.9566 9.4282
L39.8962 9.3072
" />
<path d="M39.8962 9.3072
L39.8962 8.8234
" />
<path d="M39.8962 8.8234
L39.9566 8.7024
" />
<path d="M39.9566 8.7024
L40.0776 8.6420
" />
<path d="M40.0776 8.6420
L40.3195 8.6420
" />
<path d="M40.3195 8.6420
L40.4404 8.7024
" />
<path d="M40.4404 8.7024
L40.5009 8.8234
" />
<path d="M40.5009 8.8234
L40.5009 8.9443
" />
<path d="M40.5009 8.9443
L39.8962 9.0653
" />
<path d="M41.0452 9.4886
L41.0452 8.6420
" />
<path d="M41.0452 8.8839
L41.1057 8.7629
" />
<path d="M41.1057 8.7629
L41.1662 8.7024
" />
<path d="M41.1662 8.7024
L41.2871 8.6420
" />
<path d="M41.2871 8.6420
L41.4081 8.6420
" />
<path d="M41.8314 9.4886
L41.8314 8.6420
" />
<path d="M41.8314 8.2186
L41.7710 8.2791
" />
<path d="M41.7710 8.2791
L41.8314 8.3396
" />
<path d="M41.8314 8.3396
L41.8919 8.2791
" />
<path d="M41.8919 8.2791
L41.8314 8.2186
" />
<path d="M41.8314 8.2186
L41.8314 8.3396
" />
<path d="M42.9805 9.4886
L42.9805 8.8234
" />
<path d="M42.9805 8.8234
L42.9200 8.7024
" />
<path d="M42.9200 8.7024
L42.7991 8.6420
" />
<path d="M42.7991 8.6420
L42.5572 8.6420
" />
<path d="M42.5572 8.6420
L42.4362 8.7024
" />
<path d="M42.9805 9.4282
L42.8596 9.4886
" />
<path d="M42.8596 9.4886
L42.5572 9.4886
" />
<path d="M42.5572 9.4886
L42.4362 9.4282
" />
<path d="M42.4362 9.4282
L42.3758 9.3072
" />
<path d="M42.3758 9.3072
L42.3758 9.1862
" />
<path d="M42.3758 9.1862
L42.4362 9.0653
" />
<path d="M42.4362 9.0653
L42.5572 9.0048
" />
<path d="M42.5572 9.0048
L42.8596 9.0048
" />
<path d="M42.8596 9.0048
L42.9805 8.9443
" />
<path d="M43.2829 9.6096
L44.2505 9.6096
" />
<path d="M45.2785 9.3677
L45.2181 9.4282
" />
<path d="M45.2181 9.4282
L45.0366 9.4886
" />
<path d="M45.0366 9.4886
L44.9157 9.4886
" />
<path d="M44.9157 9.4886
L44.7343 9.4282
" />
<path d="M44.7343 9.4282
L44.6133 9.3072
" />
<path d="M44.6133 9.3072
L44.5528 9.1862
" />
<path d="M44.5528 9.1862
L44.4924 8.9443
" />
<path d="M44.4924 8.9443
L44.4924 8.7629
" />
<path d="M44.4924 8.7629
L44.5528 8.5210
" />
<path d="M44.5528 8.5210
L44.6133 8.4001
" />
<path d="M44.6133 8.4001
L44.7343 8.2791
" />
<path d="M44.7343 8.2791
L44.9157 8.2186
" />
<path d="M44.9157 8.2186
L45.0366 8.2186
" />
<path d="M45.0366 8.2186
L45.2181 8.2791
" />
<path d="M45.2181 8.2791
L45.2785 8.3396
" />
<path d="M46.2462 8.8234
L45.8228 8.8234
" />
<path d="M45.8228 9.4886
L45.8228 8.2186
" />
<path d="M45.8228 8.2186
L46.4276 8.2186
" />
<path d="M46.9114 9.4886
L46.9114 8.2186
" />
<path d="M46.9114 8.2186
L47.3952 8.2186
" />
<path d="M47.3952 8.2186
L47.5162 8.2791
" />
<path d="M47.5162 8.2791
L47.5767 8.3396
" />
<path d="M47.5767 8.3396
L47.6371 8.4605
" />
<path d="M47.6371 8.4605
L47.6371 8.6420
" />
<path d="M47.6371 8.6420
L47.5767 8.7629
" />
<path d="M47.5767 8.7629
L47.5162 8.8234
" />
<path d="M47.5162 8.8234
L47.3952 8.8839
" />
<path d="M47.3952 8.8839
L46.9114 8.8839
" />
<path d="M48.0605 8.2186
L48.8467 8.2186
" />
<path d="M48.8467 8.2186
L48.4233 8.7024
" />
<path d="M48.4233 8.7024
L48.6048 8.7024
" />
<path d="M48.6048 8.7024
L48.7257 8.7629
" />
<path d="M48.7257 8.7629
L48.7862 8.8234
" />
<path d="M48.7862 8.8234
L48.8467 8.9443
" />
<path d="M48.8467 8.9443
L48.8467 9.2467
" />
<path d="M48.8467 9.2467
L48.7862 9.3677
" />
<path d="M48.7862 9.3677
L48.7257 9.4282
" />
<path d="M48.7257 9.4282
L48.6048 9.4886
" />
<path d="M48.6048 9.4886
L48.2419 9.4886
" />
<path d="M48.2419 9.4886
L48.1210 9.4282
" />
<path d="M48.1210 9.4282
L48.0605 9.3677
" />
<path d="M49.0886 9.6096
L50.0562 9.6096
" />
<path d="M50.2981 9.4282
L50.4795 9.4886
" />
<path d="M50.4795 9.4886
L50.7819 9.4886
" />
<path d="M50.7819 9.4886
L50.9028 9.4282
" />
<path d="M50.9028 9.4282
L50.9633 9.3677
" />
<path d="M50.9633 9.3677
L51.0238 9.2467
" />
<path d="M51.0238 9.2467
L51.0238 9.1258
" />
<path d="M51.0238 9.1258
L50.9633 9.0048
" />
<path d="M50.9633 9.0048
L50.9028 8.9443
" />
<path d="M50.9028 8.9443
L50.7819 8.8839
" />
<path d="M50.7819 8.8839
L50.5400 8.8234
" />
<path d="M50.5400 8.8234
L50.4190 8.7629
" />
<path d="M50.4190 8.7629
L50.3585 8.7024
" />
<path d="M50.3585 8.7024
L50.2981 8.5815
" />
<path d="M50.2981 8.5815
L50.2981 8.4605
" />
<path d="M50.2981 8.4605
L50.3585 8.3396
" />
<path d="M50.3585 8.3396
L50.4190 8.2791
" />
<path d="M50.4190 8.2791
L50.5400 8.2186
" />
<path d="M50.5400 8.2186
L50.8423 8.2186
" />
<path d="M50.8423 8.2186
L51.0238 8.2791
" />
<path d="M51.8099 8.2186
L52.0518 8.2186
" />
<path d="M52.0518 8.2186
L52.1728 8.2791
" />
<path d="M52.1728 8.2791
L52.2937 8.4001
" />
<path d="M52.2937 8.4001
L52.3542 8.6420
" />
<path d="M52.3542 8.6420
L52.3542 9.0653
" />
<path d="M52.3542 9.0653
L52.2937 9.3072
" />
<path d="M52.2937 9.3072
L52.1728 9.4282
" />
<path d="M52.1728 9.4282
L52.0518 9.4886
" />
<path d="M52.0518 9.4886
L51.8099 9.4886
" />
<path d="M51.8099 9.4886
L51.6890 9.4282
" />
<path d="M51.6890 9.4282
L51.5680 9.3072
" />
<path d="M51.5680 9.3072
L51.5076 9.0653
" />
<path d="M51.5076 9.0653
L51.5076 8.6420
" />
<path d="M51.5076 8.6420
L51.5680 8.4001
" />
<path d="M51.5680 8.4001
L51.6890 8.2791
" />
<path d="M51.6890 8.2791
L51.8099 8.2186
" />
<path d="M52.8985 9.4886
L52.8985 8.2186
" />
<path d="M52.8985 8.2186
L53.2009 8.2186
" />
<path d="M53.2009 8.2186
L53.3823 8.2791
" />
<path d="M53.3823 8.2791
L53.5033 8.4001
" />
<path d="M53.5033 8.4001
L53.5638 8.5210
" />
<path d="M53.5638 8.5210
L53.6242 8.7629
" />
<path d="M53.6242 8.7629
L53.6242 8.9443
" />
<path d="M53.6242 8.9443
L53.5638 9.1862
" />
<path d="M53.5638 9.1862
L53.5033 9.3072
" />
<path d="M53.5033 9.3072
L53.3823 9.4282
" />
<path d="M53.3823 9.4282
L53.2009 9.4886
" />
<path d="M53.2009 9.4886
L52.8985 9.4886
" />
<path d="M54.1685 9.0048
L55.1362 9.0048
" />
<path d="M56.4062 9.4886
L55.6805 9.4886
" />
<path d="M56.0433 9.4886
L56.0433 8.2186
" />
<path d="M56.0433 8.2186
L55.9224 8.4001
" />
<path d="M55.9224 8.4001
L55.8014 8.5210
" />
<path d="M55.8014 8.5210
L55.6805 8.5815
" />
<path d="M56.8900 8.3396
L56.9504 8.2791
" />
<path d="M56.9504 8.2791
L57.0714 8.2186
" />
<path d="M57.0714 8.2186
L57.3738 8.2186
" />
<path d="M57.3738 8.2186
L57.4947 8.2791
" />
<path d="M57.4947 8.2791
L57.5552 8.3396
" />
<path d="M57.5552 8.3396
L57.6157 8.4605
" />
<path d="M57.6157 8.4605
L57.6157 8.5815
" />
<path d="M57.6157 8.5815
L57.5552 8.7629
" />
<path d="M57.5552 8.7629
L56.8295 9.4886
" />
<path d="M56.8295 9.4886
L57.6157 9.4886
" />
<path d="M58.0390 8.2186
L58.8252 8.2186
" />
<path d="M58.8252 8.2186
L58.4018 8.7024
" />
<path d="M58.4018 8.7024
L58.5833 8.7024
" />
<path d="M58.5833 8.7024
L58.7042 8.7629
" />
<path d="M58.7042 8.7629
L58.7647 8.8234
" />
<path d="M58.7647 8.8234
L58.8252 8.9443
" />
<path d="M58.8252 8.9443
L58.8252 9.2467
" />
<path d="M58.8252 9.2467
L58.7647 9.3677
" />
<path d="M58.7647 9.3677
L58.7042 9.4282
" />
<path d="M58.7042 9.4282
L58.5833 9.4886
" />
<path d="M58.5833 9.4886
L58.2204 9.4886
" />
<path d="M58.2204 9.4886
L58.0995 9.4282
" />
<path d="M58.0995 9.4282
L58.0390 9.3677
" />
<path d="M59.2485 8.2186
L59.5509 9.4886
" />
<path d="M59.5509 9.4886
L59.7928 8.5815
" />
<path d="M59.7928 8.5815
L60.0347 9.4886
" />
<path d="M60.0347 9.4886
L60.3371 8.2186
" />
</g><text x="42.4059" y="5.0994"
textLength="70.6766" font-size="1.6933" lengthAdjust="spacingAndGlyphs"
text-anchor="middle" opacity="0">https://assets.nexperia.com/documents/data-sheet/PMEG6020AELR.pdf</text>
<g class="stroked-text"><desc>https://assets.nexperia.com/documents/data-sheet/PMEG6020AELR.pdf</desc>
<path d="M7.4811 5.0436
L7.4811 3.7736
" />
<path d="M8.0254 5.0436
L8.0254 4.3784
" />
<path d="M8.0254 4.3784
L7.9649 4.2574
" />
<path d="M7.9649 4.2574
L7.8440 4.1970
" />
<path d="M7.8440 4.1970
L7.6626 4.1970
" />
<path d="M7.6626 4.1970
L7.5416 4.2574
" />
<path d="M7.5416 4.2574
L7.4811 4.3179
" />
<path d="M8.4487 4.1970
L8.9325 4.1970
" />
<path d="M8.6301 3.7736
L8.6301 4.8622
" />
<path d="M8.6301 4.8622
L8.6906 4.9832
" />
<path d="M8.6906 4.9832
L8.8116 5.0436
" />
<path d="M8.8116 5.0436
L8.9325 5.0436
" />
<path d="M9.1744 4.1970
L9.6582 4.1970
" />
<path d="M9.3558 3.7736
L9.3558 4.8622
" />
<path d="M9.3558 4.8622
L9.4163 4.9832
" />
<path d="M9.4163 4.9832
L9.5373 5.0436
" />
<path d="M9.5373 5.0436
L9.6582 5.0436
" />
<path d="M10.0815 4.1970
L10.0815 5.4670
" />
<path d="M10.0815 4.2574
L10.2025 4.1970
" />
<path d="M10.2025 4.1970
L10.4444 4.1970
" />
<path d="M10.4444 4.1970
L10.5653 4.2574
" />
<path d="M10.5653 4.2574
L10.6258 4.3179
" />
<path d="M10.6258 4.3179
L10.6863 4.4389
" />
<path d="M10.6863 4.4389
L10.6863 4.8017
" />
<path d="M10.6863 4.8017
L10.6258 4.9227
" />
<path d="M10.6258 4.9227
L10.5653 4.9832
" />
<path d="M10.5653 4.9832
L10.4444 5.0436
" />
<path d="M10.4444 5.0436
L10.2025 5.0436
" />
<path d="M10.2025 5.0436
L10.0815 4.9832
" />
<path d="M11.1701 4.9832
L11.2910 5.0436
" />
<path d="M11.2910 5.0436
L11.5329 5.0436
" />
<path d="M11.5329 5.0436
L11.6539 4.9832
" />
<path d="M11.6539 4.9832
L11.7143 4.8622
" />
<path d="M11.7143 4.8622
L11.7143 4.8017
" />
<path d="M11.7143 4.8017
L11.6539 4.6808
" />
<path d="M11.6539 4.6808
L11.5329 4.6203
" />
<path d="M11.5329 4.6203
L11.3515 4.6203
" />
<path d="M11.3515 4.6203
L11.2305 4.5598
" />
<path d="M11.2305 4.5598
L11.1701 4.4389
" />
<path d="M11.1701 4.4389
L11.1701 4.3784
" />
<path d="M11.1701 4.3784
L11.2305 4.2574
" />
<path d="M11.2305 4.2574
L11.3515 4.1970
" />
<path d="M11.3515 4.1970
L11.5329 4.1970
" />
<path d="M11.5329 4.1970
L11.6539 4.2574
" />
<path d="M12.2586 4.9227
L12.3191 4.9832
" />
<path d="M12.3191 4.9832
L12.2586 5.0436
" />
<path d="M12.2586 5.0436
L12.1982 4.9832
" />
<path d="M12.1982 4.9832
L12.2586 4.9227
" />
<path d="M12.2586 4.9227
L12.2586 5.0436
" />
<path d="M12.2586 4.2574
L12.3191 4.3179
" />
<path d="M12.3191 4.3179
L12.2586 4.3784
" />
<path d="M12.2586 4.3784
L12.1982 4.3179
" />
<path d="M12.1982 4.3179
L12.2586 4.2574
" />
<path d="M12.2586 4.2574
L12.2586 4.3784
" />
<path d="M13.7706 3.7132
L12.6820 5.3460
" />
<path d="M15.1011 3.7132
L14.0125 5.3460
" />
<path d="M16.0687 5.0436
L16.0687 4.3784
" />
<path d="M16.0687 4.3784
L16.0082 4.2574
" />
<path d="M16.0082 4.2574
L15.8873 4.1970
" />
<path d="M15.8873 4.1970
L15.6454 4.1970
" />
<path d="M15.6454 4.1970
L15.5244 4.2574
" />
<path d="M16.0687 4.9832
L15.9478 5.0436
" />
<path d="M15.9478 5.0436
L15.6454 5.0436
" />
<path d="M15.6454 5.0436
L15.5244 4.9832
" />
<path d="M15.5244 4.9832
L15.4640 4.8622
" />
<path d="M15.4640 4.8622
L15.4640 4.7412
" />
<path d="M15.4640 4.7412
L15.5244 4.6203
" />
<path d="M15.5244 4.6203
L15.6454 4.5598
" />
<path d="M15.6454 4.5598
L15.9478 4.5598
" />
<path d="M15.9478 4.5598
L16.0687 4.4993
" />
<path d="M16.6130 4.9832
L16.7339 5.0436
" />
<path d="M16.7339 5.0436
L16.9758 5.0436
" />
<path d="M16.9758 5.0436
L17.0968 4.9832
" />
<path d="M17.0968 4.9832
L17.1572 4.8622
" />
<path d="M17.1572 4.8622
L17.1572 4.8017
" />
<path d="M17.1572 4.8017
L17.0968 4.6808
" />
<path d="M17.0968 4.6808
L16.9758 4.6203
" />
<path d="M16.9758 4.6203
L16.7944 4.6203
" />
<path d="M16.7944 4.6203
L16.6734 4.5598
" />
<path d="M16.6734 4.5598
L16.6130 4.4389
" />
<path d="M16.6130 4.4389
L16.6130 4.3784
" />
<path d="M16.6130 4.3784
L16.6734 4.2574
" />
<path d="M16.6734 4.2574
L16.7944 4.1970
" />
<path d="M16.7944 4.1970
L16.9758 4.1970
" />
<path d="M16.9758 4.1970
L17.0968 4.2574
" />
<path d="M17.6411 4.9832
L17.7620 5.0436
" />
<path d="M17.7620 5.0436
L18.0039 5.0436
" />
<path d="M18.0039 5.0436
L18.1249 4.9832
" />
<path d="M18.1249 4.9832
L18.1853 4.8622
" />
<path d="M18.1853 4.8622
L18.1853 4.8017
" />
<path d="M18.1853 4.8017
L18.1249 4.6808
" />
<path d="M18.1249 4.6808
L18.0039 4.6203
" />
<path d="M18.0039 4.6203
L17.8225 4.6203
" />
<path d="M17.8225 4.6203
L17.7015 4.5598
" />
<path d="M17.7015 4.5598
L17.6411 4.4389
" />
<path d="M17.6411 4.4389
L17.6411 4.3784
" />
<path d="M17.6411 4.3784
L17.7015 4.2574
" />
<path d="M17.7015 4.2574
L17.8225 4.1970
" />
<path d="M17.8225 4.1970
L18.0039 4.1970
" />
<path d="M18.0039 4.1970
L18.1249 4.2574
" />
<path d="M19.2134 4.9832
L19.0925 5.0436
" />
<path d="M19.0925 5.0436
L18.8506 5.0436
" />
<path d="M18.8506 5.0436
L18.7296 4.9832
" />
<path d="M18.7296 4.9832
L18.6692 4.8622
" />
<path d="M18.6692 4.8622
L18.6692 4.3784
" />
<path d="M18.6692 4.3784
L18.7296 4.2574
" />
<path d="M18.7296 4.2574
L18.8506 4.1970
" />
<path d="M18.8506 4.1970
L19.0925 4.1970
" />
<path d="M19.0925 4.1970
L19.2134 4.2574
" />
<path d="M19.2134 4.2574
L19.2739 4.3784
" />
<path d="M19.2739 4.3784
L19.2739 4.4993
" />
<path d="M19.2739 4.4993
L18.6692 4.6203
" />
<path d="M19.6368 4.1970
L20.1206 4.1970
" />
<path d="M19.8182 3.7736
L19.8182 4.8622
" />
<path d="M19.8182 4.8622
L19.8787 4.9832
" />
<path d="M19.8787 4.9832
L19.9997 5.0436
" />
<path d="M19.9997 5.0436
L20.1206 5.0436
" />
<path d="M20.4835 4.9832
L20.6044 5.0436
" />
<path d="M20.6044 5.0436
L20.8463 5.0436
" />
<path d="M20.8463 5.0436
L20.9673 4.9832
" />
<path d="M20.9673 4.9832
L21.0277 4.8622
" />
<path d="M21.0277 4.8622
L21.0277 4.8017
" />
<path d="M21.0277 4.8017
L20.9673 4.6808
" />
<path d="M20.9673 4.6808
L20.8463 4.6203
" />
<path d="M20.8463 4.6203
L20.6649 4.6203
" />
<path d="M20.6649 4.6203
L20.5439 4.5598
" />
<path d="M20.5439 4.5598
L20.4835 4.4389
" />
<path d="M20.4835 4.4389
L20.4835 4.3784
" />
<path d="M20.4835 4.3784
L20.5439 4.2574
" />
<path d="M20.5439 4.2574
L20.6649 4.1970
" />
<path d="M20.6649 4.1970
L20.8463 4.1970
" />
<path d="M20.8463 4.1970
L20.9673 4.2574
" />
<path d="M21.5720 4.9227
L21.6325 4.9832
" />
<path d="M21.6325 4.9832
L21.5720 5.0436
" />
<path d="M21.5720 5.0436
L21.5116 4.9832
" />
<path d="M21.5116 4.9832
L21.5720 4.9227
" />
<path d="M21.5720 4.9227
L21.5720 5.0436
" />
<path d="M22.1768 4.1970
L22.1768 5.0436
" />
<path d="M22.1768 4.3179
L22.2373 4.2574
" />
<path d="M22.2373 4.2574
L22.3583 4.1970
" />
<path d="M22.3583 4.1970
L22.5397 4.1970
" />
<path d="M22.5397 4.1970
L22.6606 4.2574
" />
<path d="M22.6606 4.2574
L22.7211 4.3784
" />
<path d="M22.7211 4.3784
L22.7211 5.0436
" />
<path d="M23.8096 4.9832
L23.6887 5.0436
" />
<path d="M23.6887 5.0436
L23.4468 5.0436
" />
<path d="M23.4468 5.0436
L23.3258 4.9832
" />
<path d="M23.3258 4.9832
L23.2654 4.8622
" />
<path d="M23.2654 4.8622
L23.2654 4.3784
" />
<path d="M23.2654 4.3784
L23.3258 4.2574
" />
<path d="M23.3258 4.2574
L23.4468 4.1970
" />
<path d="M23.4468 4.1970
L23.6887 4.1970
" />
<path d="M23.6887 4.1970
L23.8096 4.2574
" />
<path d="M23.8096 4.2574
L23.8701 4.3784
" />
<path d="M23.8701 4.3784
L23.8701 4.4993
" />
<path d="M23.8701 4.4993
L23.2654 4.6203
" />
<path d="M24.2935 5.0436
L24.9587 4.1970
" />
<path d="M24.2935 4.1970
L24.9587 5.0436
" />
<path d="M25.4425 4.1970
L25.4425 5.4670
" />
<path d="M25.4425 4.2574
L25.5635 4.1970
" />
<path d="M25.5635 4.1970
L25.8054 4.1970
" />
<path d="M25.8054 4.1970
L25.9263 4.2574
" />
<path d="M25.9263 4.2574
L25.9868 4.3179
" />
<path d="M25.9868 4.3179
L26.0473 4.4389
" />
<path d="M26.0473 4.4389
L26.0473 4.8017
" />
<path d="M26.0473 4.8017
L25.9868 4.9227
" />
<path d="M25.9868 4.9227
L25.9263 4.9832
" />
<path d="M25.9263 4.9832
L25.8054 5.0436
" />
<path d="M25.8054 5.0436
L25.5635 5.0436
" />
<path d="M25.5635 5.0436
L25.4425 4.9832
" />
<path d="M27.0753 4.9832
L26.9544 5.0436
" />
<path d="M26.9544 5.0436
L26.7125 5.0436
" />
<path d="M26.7125 5.0436
L26.5915 4.9832
" />
<path d="M26.5915 4.9832
L26.5311 4.8622
" />
<path d="M26.5311 4.8622
L26.5311 4.3784
" />
<path d="M26.5311 4.3784
L26.5915 4.2574
" />
<path d="M26.5915 4.2574
L26.7125 4.1970
" />
<path d="M26.7125 4.1970
L26.9544 4.1970
" />
<path d="M26.9544 4.1970
L27.0753 4.2574
" />
<path d="M27.0753 4.2574
L27.1358 4.3784
" />
<path d="M27.1358 4.3784
L27.1358 4.4993
" />
<path d="M27.1358 4.4993
L26.5311 4.6203
" />
<path d="M27.6801 5.0436
L27.6801 4.1970
" />
<path d="M27.6801 4.4389
L27.7406 4.3179
" />
<path d="M27.7406 4.3179
L27.8011 4.2574
" />
<path d="M27.8011 4.2574
L27.9220 4.1970
" />
<path d="M27.9220 4.1970
L28.0430 4.1970
" />
<path d="M28.4663 5.0436
L28.4663 4.1970
" />
<path d="M28.4663 3.7736
L28.4059 3.8341
" />
<path d="M28.4059 3.8341
L28.4663 3.8946
" />
<path d="M28.4663 3.8946
L28.5268 3.8341
" />
<path d="M28.5268 3.8341
L28.4663 3.7736
" />
<path d="M28.4663 3.7736
L28.4663 3.8946
" />
<path d="M29.6154 5.0436
L29.6154 4.3784
" />
<path d="M29.6154 4.3784
L29.5549 4.2574
" />
<path d="M29.5549 4.2574
L29.4340 4.1970
" />
<path d="M29.4340 4.1970
L29.1921 4.1970
" />
<path d="M29.1921 4.1970
L29.0711 4.2574
" />
<path d="M29.6154 4.9832
L29.4945 5.0436
" />
<path d="M29.4945 5.0436
L29.1921 5.0436
" />
<path d="M29.1921 5.0436
L29.0711 4.9832
" />
<path d="M29.0711 4.9832
L29.0107 4.8622
" />
<path d="M29.0107 4.8622
L29.0107 4.7412
" />
<path d="M29.0107 4.7412
L29.0711 4.6203
" />
<path d="M29.0711 4.6203
L29.1921 4.5598
" />
<path d="M29.1921 4.5598
L29.4945 4.5598
" />
<path d="M29.4945 4.5598
L29.6154 4.4993
" />
<path d="M30.2201 4.9227
L30.2806 4.9832
" />
<path d="M30.2806 4.9832
L30.2201 5.0436
" />
<path d="M30.2201 5.0436
L30.1597 4.9832
" />
<path d="M30.1597 4.9832
L30.2201 4.9227
" />
<path d="M30.2201 4.9227
L30.2201 5.0436
" />
<path d="M31.3692 4.9832
L31.2483 5.0436
" />
<path d="M31.2483 5.0436
L31.0064 5.0436
" />
<path d="M31.0064 5.0436
L30.8854 4.9832
" />
<path d="M30.8854 4.9832
L30.8249 4.9227
" />
<path d="M30.8249 4.9227
L30.7645 4.8017
" />
<path d="M30.7645 4.8017
L30.7645 4.4389
" />
<path d="M30.7645 4.4389
L30.8249 4.3179
" />
<path d="M30.8249 4.3179
L30.8854 4.2574
" />
<path d="M30.8854 4.2574
L31.0064 4.1970
" />
<path d="M31.0064 4.1970
L31.2483 4.1970
" />
<path d="M31.2483 4.1970
L31.3692 4.2574
" />
<path d="M32.0950 5.0436
L31.9740 4.9832
" />
<path d="M31.9740 4.9832
L31.9135 4.9227
" />
<path d="M31.9135 4.9227
L31.8531 4.8017
" />
<path d="M31.8531 4.8017
L31.8531 4.4389
" />
<path d="M31.8531 4.4389
L31.9135 4.3179
" />
<path d="M31.9135 4.3179
L31.9740 4.2574
" />
<path d="M31.9740 4.2574
L32.0950 4.1970
" />
<path d="M32.0950 4.1970
L32.2764 4.1970
" />
<path d="M32.2764 4.1970
L32.3973 4.2574
" />
<path d="M32.3973 4.2574
L32.4578 4.3179
" />
<path d="M32.4578 4.3179
L32.5183 4.4389
" />
<path d="M32.5183 4.4389
L32.5183 4.8017
" />
<path d="M32.5183 4.8017
L32.4578 4.9227
" />
<path d="M32.4578 4.9227
L32.3973 4.9832
" />
<path d="M32.3973 4.9832
L32.2764 5.0436
" />
<path d="M32.2764 5.0436
L32.0950 5.0436
" />
<path d="M33.0625 5.0436
L33.0625 4.1970
" />
<path d="M33.0625 4.3179
L33.1230 4.2574
" />
<path d="M33.1230 4.2574
L33.2440 4.1970
" />
<path d="M33.2440 4.1970
L33.4254 4.1970
" />
<path d="M33.4254 4.1970
L33.5463 4.2574
" />
<path d="M33.5463 4.2574
L33.6068 4.3784
" />
<path d="M33.6068 4.3784
L33.6068 5.0436
" />
<path d="M33.6068 4.3784
L33.6673 4.2574
" />
<path d="M33.6673 4.2574
L33.7882 4.1970
" />
<path d="M33.7882 4.1970
L33.9697 4.1970
" />
<path d="M33.9697 4.1970
L34.0906 4.2574
" />
<path d="M34.0906 4.2574
L34.1511 4.3784
" />
<path d="M34.1511 4.3784
L34.1511 5.0436
" />
<path d="M35.6630 3.7132
L34.5744 5.3460
" />
<path d="M36.6306 5.0436
L36.6306 3.7736
" />
<path d="M36.6306 4.9832
L36.5097 5.0436
" />
<path d="M36.5097 5.0436
L36.2678 5.0436
" />
<path d="M36.2678 5.0436
L36.1468 4.9832
" />
<path d="M36.1468 4.9832
L36.0863 4.9227
" />
<path d="M36.0863 4.9227
L36.0259 4.8017
" />
<path d="M36.0259 4.8017
L36.0259 4.4389
" />
<path d="M36.0259 4.4389
L36.0863 4.3179
" />
<path d="M36.0863 4.3179
L36.1468 4.2574
" />
<path d="M36.1468 4.2574
L36.2678 4.1970
" />
<path d="M36.2678 4.1970
L36.5097 4.1970
" />
<path d="M36.5097 4.1970
L36.6306 4.2574
" />
<path d="M37.4168 5.0436
L37.2958 4.9832
" />
<path d="M37.2958 4.9832
L37.2353 4.9227
" />
<path d="M37.2353 4.9227
L37.1749 4.8017
" />
<path d="M37.1749 4.8017
L37.1749 4.4389
" />
<path d="M37.1749 4.4389
L37.2353 4.3179
" />
<path d="M37.2353 4.3179
L37.2958 4.2574
" />
<path d="M37.2958 4.2574
L37.4168 4.1970
" />
<path d="M37.4168 4.1970
L37.5982 4.1970
" />
<path d="M37.5982 4.1970
L37.7191 4.2574
" />
<path d="M37.7191 4.2574
L37.7796 4.3179
" />
<path d="M37.7796 4.3179
L37.8401 4.4389
" />
<path d="M37.8401 4.4389
L37.8401 4.8017
" />
<path d="M37.8401 4.8017
L37.7796 4.9227
" />
<path d="M37.7796 4.9227
L37.7191 4.9832
" />
<path d="M37.7191 4.9832
L37.5982 5.0436
" />
<path d="M37.5982 5.0436
L37.4168 5.0436
" />
<path d="M38.9286 4.9832
L38.8077 5.0436
" />
<path d="M38.8077 5.0436
L38.5658 5.0436
" />
<path d="M38.5658 5.0436
L38.4448 4.9832
" />
<path d="M38.4448 4.9832
L38.3843 4.9227
" />
<path d="M38.3843 4.9227
L38.3239 4.8017
" />
<path d="M38.3239 4.8017
L38.3239 4.4389
" />
<path d="M38.3239 4.4389
L38.3843 4.3179
" />
<path d="M38.3843 4.3179
L38.4448 4.2574
" />
<path d="M38.4448 4.2574
L38.5658 4.1970
" />
<path d="M38.5658 4.1970
L38.8077 4.1970
" />
<path d="M38.8077 4.1970
L38.9286 4.2574
" />
<path d="M40.0172 4.1970
L40.0172 5.0436
" />
<path d="M39.4729 4.1970
L39.4729 4.8622
" />
<path d="M39.4729 4.8622
L39.5334 4.9832
" />
<path d="M39.5334 4.9832
L39.6544 5.0436
" />
<path d="M39.6544 5.0436
L39.8358 5.0436
" />
<path d="M39.8358 5.0436
L39.9567 4.9832
" />
<path d="M39.9567 4.9832
L40.0172 4.9227
" />
<path d="M40.6219 5.0436
L40.6219 4.1970
" />
<path d="M40.6219 4.3179
L40.6824 4.2574
" />
<path d="M40.6824 4.2574
L40.8034 4.1970
" />
<path d="M40.8034 4.1970
L40.9848 4.1970
" />
<path d="M40.9848 4.1970
L41.1057 4.2574
" />
<path d="M41.1057 4.2574
L41.1662 4.3784
" />
<path d="M41.1662 4.3784
L41.1662 5.0436
" />
<path d="M41.1662 4.3784
L41.2267 4.2574
" />
<path d="M41.2267 4.2574
L41.3476 4.1970
" />
<path d="M41.3476 4.1970
L41.5291 4.1970
" />
<path d="M41.5291 4.1970
L41.6500 4.2574
" />
<path d="M41.6500 4.2574
L41.7105 4.3784
" />
<path d="M41.7105 4.3784
L41.7105 5.0436
" />
<path d="M42.7990 4.9832
L42.6781 5.0436
" />
<path d="M42.6781 5.0436
L42.4362 5.0436
" />
<path d="M42.4362 5.0436
L42.3152 4.9832
" />
<path d="M42.3152 4.9832
L42.2548 4.8622
" />
<path d="M42.2548 4.8622
L42.2548 4.3784
" />
<path d="M42.2548 4.3784
L42.3152 4.2574
" />
<path d="M42.3152 4.2574
L42.4362 4.1970
" />
<path d="M42.4362 4.1970
L42.6781 4.1970
" />
<path d="M42.6781 4.1970
L42.7990 4.2574
" />
<path d="M42.7990 4.2574
L42.8595 4.3784
" />
<path d="M42.8595 4.3784
L42.8595 4.4993
" />
<path d="M42.8595 4.4993
L42.2548 4.6203
" />
<path d="M43.4038 4.1970
L43.4038 5.0436
" />
<path d="M43.4038 4.3179
L43.4643 4.2574
" />
<path d="M43.4643 4.2574
L43.5853 4.1970
" />
<path d="M43.5853 4.1970
L43.7667 4.1970
" />
<path d="M43.7667 4.1970
L43.8876 4.2574
" />
<path d="M43.8876 4.2574
L43.9481 4.3784
" />
<path d="M43.9481 4.3784
L43.9481 5.0436
" />
<path d="M44.3714 4.1970
L44.8552 4.1970
" />
<path d="M44.5528 3.7736
L44.5528 4.8622
" />
<path d="M44.5528 4.8622
L44.6133 4.9832
" />
<path d="M44.6133 4.9832
L44.7343 5.0436
" />
<path d="M44.7343 5.0436
L44.8552 5.0436
" />
<path d="M45.2181 4.9832
L45.3390 5.0436
" />
<path d="M45.3390 5.0436
L45.5809 5.0436
" />
<path d="M45.5809 5.0436
L45.7019 4.9832
" />
<path d="M45.7019 4.9832
L45.7623 4.8622
" />
<path d="M45.7623 4.8622
L45.7623 4.8017
" />
<path d="M45.7623 4.8017
L45.7019 4.6808
" />
<path d="M45.7019 4.6808
L45.5809 4.6203
" />
<path d="M45.5809 4.6203
L45.3995 4.6203
" />
<path d="M45.3995 4.6203
L45.2785 4.5598
" />
<path d="M45.2785 4.5598
L45.2181 4.4389
" />
<path d="M45.2181 4.4389
L45.2181 4.3784
" />
<path d="M45.2181 4.3784
L45.2785 4.2574
" />
<path d="M45.2785 4.2574
L45.3995 4.1970
" />
<path d="M45.3995 4.1970
L45.5809 4.1970
" />
<path d="M45.5809 4.1970
L45.7019 4.2574
" />
<path d="M47.2138 3.7132
L46.1252 5.3460
" />
<path d="M48.1814 5.0436
L48.1814 3.7736
" />
<path d="M48.1814 4.9832
L48.0605 5.0436
" />
<path d="M48.0605 5.0436
L47.8186 5.0436
" />
<path d="M47.8186 5.0436
L47.6976 4.9832
" />
<path d="M47.6976 4.9832
L47.6371 4.9227
" />
<path d="M47.6371 4.9227
L47.5767 4.8017
" />
<path d="M47.5767 4.8017
L47.5767 4.4389
" />
<path d="M47.5767 4.4389
L47.6371 4.3179
" />
<path d="M47.6371 4.3179
L47.6976 4.2574
" />
<path d="M47.6976 4.2574
L47.8186 4.1970
" />
<path d="M47.8186 4.1970
L48.0605 4.1970
" />
<path d="M48.0605 4.1970
L48.1814 4.2574
" />
<path d="M49.3304 5.0436
L49.3304 4.3784
" />
<path d="M49.3304 4.3784
L49.2699 4.2574
" />
<path d="M49.2699 4.2574
L49.1490 4.1970
" />
<path d="M49.1490 4.1970
L48.9071 4.1970
" />
<path d="M48.9071 4.1970
L48.7861 4.2574
" />
<path d="M49.3304 4.9832
L49.2095 5.0436
" />
<path d="M49.2095 5.0436
L48.9071 5.0436
" />
<path d="M48.9071 5.0436
L48.7861 4.9832
" />
<path d="M48.7861 4.9832
L48.7257 4.8622
" />
<path d="M48.7257 4.8622
L48.7257 4.7412
" />
<path d="M48.7257 4.7412
L48.7861 4.6203
" />
<path d="M48.7861 4.6203
L48.9071 4.5598
" />
<path d="M48.9071 4.5598
L49.2095 4.5598
" />
<path d="M49.2095 4.5598
L49.3304 4.4993
" />
<path d="M49.7537 4.1970
L50.2375 4.1970
" />
<path d="M49.9351 3.7736
L49.9351 4.8622
" />
<path d="M49.9351 4.8622
L49.9956 4.9832
" />
<path d="M49.9956 4.9832
L50.1166 5.0436
" />
<path d="M50.1166 5.0436
L50.2375 5.0436
" />
<path d="M51.2051 5.0436
L51.2051 4.3784
" />
<path d="M51.2051 4.3784
L51.1446 4.2574
" />
<path d="M51.1446 4.2574
L51.0237 4.1970
" />
<path d="M51.0237 4.1970
L50.7818 4.1970
" />
<path d="M50.7818 4.1970
L50.6608 4.2574
" />
<path d="M51.2051 4.9832
L51.0842 5.0436
" />
<path d="M51.0842 5.0436
L50.7818 5.0436
" />
<path d="M50.7818 5.0436
L50.6608 4.9832
" />
<path d="M50.6608 4.9832
L50.6004 4.8622
" />
<path d="M50.6004 4.8622
L50.6004 4.7412
" />
<path d="M50.6004 4.7412
L50.6608 4.6203
" />
<path d="M50.6608 4.6203
L50.7818 4.5598
" />
<path d="M50.7818 4.5598
L51.0842 4.5598
" />
<path d="M51.0842 4.5598
L51.2051 4.4993
" />
<path d="M51.8098 4.5598
L52.7775 4.5598
" />
<path d="M53.3218 4.9832
L53.4427 5.0436
" />
<path d="M53.4427 5.0436
L53.6846 5.0436
" />
<path d="M53.6846 5.0436
L53.8056 4.9832
" />
<path d="M53.8056 4.9832
L53.8660 4.8622
" />
<path d="M53.8660 4.8622
L53.8660 4.8017
" />
<path d="M53.8660 4.8017
L53.8056 4.6808
" />
<path d="M53.8056 4.6808
L53.6846 4.6203
" />
<path d="M53.6846 4.6203
L53.5032 4.6203
" />
<path d="M53.5032 4.6203
L53.3822 4.5598
" />
<path d="M53.3822 4.5598
L53.3218 4.4389
" />
<path d="M53.3218 4.4389
L53.3218 4.3784
" />
<path d="M53.3218 4.3784
L53.3822 4.2574
" />
<path d="M53.3822 4.2574
L53.5032 4.1970
" />
<path d="M53.5032 4.1970
L53.6846 4.1970
" />
<path d="M53.6846 4.1970
L53.8056 4.2574
" />
<path d="M54.4103 5.0436
L54.4103 3.7736
" />
<path d="M54.9546 5.0436
L54.9546 4.3784
" />
<path d="M54.9546 4.3784
L54.8941 4.2574
" />
<path d="M54.8941 4.2574
L54.7732 4.1970
" />
<path d="M54.7732 4.1970
L54.5918 4.1970
" />
<path d="M54.5918 4.1970
L54.4708 4.2574
" />
<path d="M54.4708 4.2574
L54.4103 4.3179
" />
<path d="M56.0431 4.9832
L55.9222 5.0436
" />
<path d="M55.9222 5.0436
L55.6803 5.0436
" />
<path d="M55.6803 5.0436
L55.5593 4.9832
" />
<path d="M55.5593 4.9832
L55.4989 4.8622
" />
<path d="M55.4989 4.8622
L55.4989 4.3784
" />
<path d="M55.4989 4.3784
L55.5593 4.2574
" />
<path d="M55.5593 4.2574
L55.6803 4.1970
" />
<path d="M55.6803 4.1970
L55.9222 4.1970
" />
<path d="M55.9222 4.1970
L56.0431 4.2574
" />
<path d="M56.0431 4.2574
L56.1036 4.3784
" />
<path d="M56.1036 4.3784
L56.1036 4.4993
" />
<path d="M56.1036 4.4993
L55.4989 4.6203
" />
<path d="M57.1317 4.9832
L57.0108 5.0436
" />
<path d="M57.0108 5.0436
L56.7689 5.0436
" />
<path d="M56.7689 5.0436
L56.6479 4.9832
" />
<path d="M56.6479 4.9832
L56.5875 4.8622
" />
<path d="M56.5875 4.8622
L56.5875 4.3784
" />
<path d="M56.5875 4.3784
L56.6479 4.2574
" />
<path d="M56.6479 4.2574
L56.7689 4.1970
" />
<path d="M56.7689 4.1970
L57.0108 4.1970
" />
<path d="M57.0108 4.1970
L57.1317 4.2574
" />
<path d="M57.1317 4.2574
L57.1922 4.3784
" />
<path d="M57.1922 4.3784
L57.1922 4.4993
" />
<path d="M57.1922 4.4993
L56.5875 4.6203
" />
<path d="M57.5551 4.1970
L58.0389 4.1970
" />
<path d="M57.7365 3.7736
L57.7365 4.8622
" />
<path d="M57.7365 4.8622
L57.7970 4.9832
" />
<path d="M57.7970 4.9832
L57.9180 5.0436
" />
<path d="M57.9180 5.0436
L58.0389 5.0436
" />
<path d="M59.3694 3.7132
L58.2808 5.3460
" />
<path d="M59.7927 5.0436
L59.7927 3.7736
" />
<path d="M59.7927 3.7736
L60.2765 3.7736
" />
<path d="M60.2765 3.7736
L60.3975 3.8341
" />
<path d="M60.3975 3.8341
L60.4580 3.8946
" />
<path d="M60.4580 3.8946
L60.5184 4.0155
" />
<path d="M60.5184 4.0155
L60.5184 4.1970
" />
<path d="M60.5184 4.1970
L60.4580 4.3179
" />
<path d="M60.4580 4.3179
L60.3975 4.3784
" />
<path d="M60.3975 4.3784
L60.2765 4.4389
" />
<path d="M60.2765 4.4389
L59.7927 4.4389
" />
<path d="M61.0627 5.0436
L61.0627 3.7736
" />
<path d="M61.0627 3.7736
L61.4861 4.6808
" />
<path d="M61.4861 4.6808
L61.9094 3.7736
" />
<path d="M61.9094 3.7736
L61.9094 5.0436
" />
<path d="M62.5141 4.3784
L62.9375 4.3784
" />
<path d="M63.1189 5.0436
L62.5141 5.0436
" />
<path d="M62.5141 5.0436
L62.5141 3.7736
" />
<path d="M62.5141 3.7736
L63.1189 3.7736
" />
<path d="M64.3284 3.8341
L64.2074 3.7736
" />
<path d="M64.2074 3.7736
L64.0260 3.7736
" />
<path d="M64.0260 3.7736
L63.8446 3.8341
" />
<path d="M63.8446 3.8341
L63.7236 3.9551
" />
<path d="M63.7236 3.9551
L63.6631 4.0760
" />
<path d="M63.6631 4.0760
L63.6027 4.3179
" />
<path d="M63.6027 4.3179
L63.6027 4.4993
" />
<path d="M63.6027 4.4993
L63.6631 4.7412
" />
<path d="M63.6631 4.7412
L63.7236 4.8622
" />
<path d="M63.7236 4.8622
L63.8446 4.9832
" />
<path d="M63.8446 4.9832
L64.0260 5.0436
" />
<path d="M64.0260 5.0436
L64.1469 5.0436
" />
<path d="M64.1469 5.0436
L64.3284 4.9832
" />
<path d="M64.3284 4.9832
L64.3888 4.9227
" />
<path d="M64.3888 4.9227
L64.3888 4.4993
" />
<path d="M64.3888 4.4993
L64.1469 4.4993
" />
<path d="M65.4774 3.7736
L65.2355 3.7736
" />
<path d="M65.2355 3.7736
L65.1146 3.8341
" />
<path d="M65.1146 3.8341
L65.0541 3.8946
" />
<path d="M65.0541 3.8946
L64.9331 4.0760
" />
<path d="M64.9331 4.0760
L64.8727 4.3179
" />
<path d="M64.8727 4.3179
L64.8727 4.8017
" />
<path d="M64.8727 4.8017
L64.9331 4.9227
" />
<path d="M64.9331 4.9227
L64.9936 4.9832
" />
<path d="M64.9936 4.9832
L65.1146 5.0436
" />
<path d="M65.1146 5.0436
L65.3565 5.0436
" />
<path d="M65.3565 5.0436
L65.4774 4.9832
" />
<path d="M65.4774 4.9832
L65.5379 4.9227
" />
<path d="M65.5379 4.9227
L65.5984 4.8017
" />
<path d="M65.5984 4.8017
L65.5984 4.4993
" />
<path d="M65.5984 4.4993
L65.5379 4.3784
" />
<path d="M65.5379 4.3784
L65.4774 4.3179
" />
<path d="M65.4774 4.3179
L65.3565 4.2574
" />
<path d="M65.3565 4.2574
L65.1146 4.2574
" />
<path d="M65.1146 4.2574
L64.9936 4.3179
" />
<path d="M64.9936 4.3179
L64.9331 4.3784
" />
<path d="M64.9331 4.3784
L64.8727 4.4993
" />
<path d="M66.3845 3.7736
L66.5055 3.7736
" />
<path d="M66.5055 3.7736
L66.6264 3.8341
" />
<path d="M66.6264 3.8341
L66.6869 3.8946
" />
<path d="M66.6869 3.8946
L66.7474 4.0155
" />
<path d="M66.7474 4.0155
L66.8079 4.2574
" />
<path d="M66.8079 4.2574
L66.8079 4.5598
" />
<path d="M66.8079 4.5598
L66.7474 4.8017
" />
<path d="M66.7474 4.8017
L66.6869 4.9227
" />
<path d="M66.6869 4.9227
L66.6264 4.9832
" />
<path d="M66.6264 4.9832
L66.5055 5.0436
" />
<path d="M66.5055 5.0436
L66.3845 5.0436
" />
<path d="M66.3845 5.0436
L66.2636 4.9832
" />
<path d="M66.2636 4.9832
L66.2031 4.9227
" />
<path d="M66.2031 4.9227
L66.1426 4.8017
" />
<path d="M66.1426 4.8017
L66.0822 4.5598
" />
<path d="M66.0822 4.5598
L66.0822 4.2574
" />
<path d="M66.0822 4.2574
L66.1426 4.0155
" />
<path d="M66.1426 4.0155
L66.2031 3.8946
" />
<path d="M66.2031 3.8946
L66.2636 3.8341
" />
<path d="M66.2636 3.8341
L66.3845 3.7736
" />
<path d="M67.2917 3.8946
L67.3521 3.8341
" />
<path d="M67.3521 3.8341
L67.4731 3.7736
" />
<path d="M67.4731 3.7736
L67.7755 3.7736
" />
<path d="M67.7755 3.7736
L67.8964 3.8341
" />
<path d="M67.8964 3.8341
L67.9569 3.8946
" />
<path d="M67.9569 3.8946
L68.0174 4.0155
" />
<path d="M68.0174 4.0155
L68.0174 4.1365
" />
<path d="M68.0174 4.1365
L67.9569 4.3179
" />
<path d="M67.9569 4.3179
L67.2312 5.0436
" />
<path d="M67.2312 5.0436
L68.0174 5.0436
" />
<path d="M68.8035 3.7736
L68.9245 3.7736
" />
<path d="M68.9245 3.7736
L69.0454 3.8341
" />
<path d="M69.0454 3.8341
L69.1059 3.8946
" />
<path d="M69.1059 3.8946
L69.1664 4.0155
" />
<path d="M69.1664 4.0155
L69.2269 4.2574
" />
<path d="M69.2269 4.2574
L69.2269 4.5598
" />
<path d="M69.2269 4.5598
L69.1664 4.8017
" />
<path d="M69.1664 4.8017
L69.1059 4.9227
" />
<path d="M69.1059 4.9227
L69.0454 4.9832
" />
<path d="M69.0454 4.9832
L68.9245 5.0436
" />
<path d="M68.9245 5.0436
L68.8035 5.0436
" />
<path d="M68.8035 5.0436
L68.6826 4.9832
" />
<path d="M68.6826 4.9832
L68.6221 4.9227
" />
<path d="M68.6221 4.9227
L68.5616 4.8017
" />
<path d="M68.5616 4.8017
L68.5012 4.5598
" />
<path d="M68.5012 4.5598
L68.5012 4.2574
" />
<path d="M68.5012 4.2574
L68.5616 4.0155
" />
<path d="M68.5616 4.0155
L68.6221 3.8946
" />
<path d="M68.6221 3.8946
L68.6826 3.8341
" />
<path d="M68.6826 3.8341
L68.8035 3.7736
" />
<path d="M69.7107 4.6808
L70.3154 4.6808
" />
<path d="M69.5897 5.0436
L70.0130 3.7736
" />
<path d="M70.0130 3.7736
L70.4364 5.0436
" />
<path d="M70.8597 4.3784
L71.2831 4.3784
" />
<path d="M71.4645 5.0436
L70.8597 5.0436
" />
<path d="M70.8597 5.0436
L70.8597 3.7736
" />
<path d="M70.8597 3.7736
L71.4645 3.7736
" />
<path d="M72.6135 5.0436
L72.0087 5.0436
" />
<path d="M72.0087 5.0436
L72.0087 3.7736
" />
<path d="M73.7625 5.0436
L73.3392 4.4389
" />
<path d="M73.0368 5.0436
L73.0368 3.7736
" />
<path d="M73.0368 3.7736
L73.5206 3.7736
" />
<path d="M73.5206 3.7736
L73.6416 3.8341
" />
<path d="M73.6416 3.8341
L73.7021 3.8946
" />
<path d="M73.7021 3.8946
L73.7625 4.0155
" />
<path d="M73.7625 4.0155
L73.7625 4.1970
" />
<path d="M73.7625 4.1970
L73.7021 4.3179
" />
<path d="M73.7021 4.3179
L73.6416 4.3784
" />
<path d="M73.6416 4.3784
L73.5206 4.4389
" />
<path d="M73.5206 4.4389
L73.0368 4.4389
" />
<path d="M74.3068 4.9227
L74.3673 4.9832
" />
<path d="M74.3673 4.9832
L74.3068 5.0436
" />
<path d="M74.3068 5.0436
L74.2464 4.9832
" />
<path d="M74.2464 4.9832
L74.3068 4.9227
" />
<path d="M74.3068 4.9227
L74.3068 5.0436
" />
<path d="M74.9116 4.1970
L74.9116 5.4670
" />
<path d="M74.9116 4.2574
L75.0326 4.1970
" />
<path d="M75.0326 4.1970
L75.2745 4.1970
" />
<path d="M75.2745 4.1970
L75.3954 4.2574
" />
<path d="M75.3954 4.2574
L75.4559 4.3179
" />
<path d="M75.4559 4.3179
L75.5164 4.4389
" />
<path d="M75.5164 4.4389
L75.5164 4.8017
" />
<path d="M75.5164 4.8017
L75.4559 4.9227
" />
<path d="M75.4559 4.9227
L75.3954 4.9832
" />
<path d="M75.3954 4.9832
L75.2745 5.0436
" />
<path d="M75.2745 5.0436
L75.0326 5.0436
" />
<path d="M75.0326 5.0436
L74.9116 4.9832
" />
<path d="M76.6049 5.0436
L76.6049 3.7736
" />
<path d="M76.6049 4.9832
L76.4840 5.0436
" />
<path d="M76.4840 5.0436
L76.2421 5.0436
" />
<path d="M76.2421 5.0436
L76.1211 4.9832
" />
<path d="M76.1211 4.9832
L76.0606 4.9227
" />
<path d="M76.0606 4.9227
L76.0002 4.8017
" />
<path d="M76.0002 4.8017
L76.0002 4.4389
" />
<path d="M76.0002 4.4389
L76.0606 4.3179
" />
<path d="M76.0606 4.3179
L76.1211 4.2574
" />
<path d="M76.1211 4.2574
L76.2421 4.1970
" />
<path d="M76.2421 4.1970
L76.4840 4.1970
" />
<path d="M76.4840 4.1970
L76.6049 4.2574
" />
<path d="M77.0282 4.1970
L77.5120 4.1970
" />
<path d="M77.2096 5.0436
L77.2096 3.9551
" />
<path d="M77.2096 3.9551
L77.2701 3.8341
" />
<path d="M77.2701 3.8341
L77.3911 3.7736
" />
<path d="M77.3911 3.7736
L77.5120 3.7736
" />
</g></g> 
</svg>
