<?xml version="1.0" standalone="no"?>
 <!DOCTYPE svg PUBLIC "-//W3C//DTD SVG 1.1//EN" 
 "http://www.w3.org/Graphics/SVG/1.1/DTD/svg11.dtd"> 
<svg
  xmlns:svg="http://www.w3.org/2000/svg"
  xmlns="http://www.w3.org/2000/svg"
  xmlns:xlink="http://www.w3.org/1999/xlink"
  version="1.1"
  width="103.6066mm" height="14.6558mm" viewBox="0.0000 0.0000 103.6066 14.6558">
<title>SVG Image created as working.svg date 2023/08/28 16:02:02 </title>
  <desc>Image generated by Eeschema-SVG </desc>
<g style="fill:#000000; fill-opacity:1.0000;stroke:#000000; stroke-opacity:1.0000;
stroke-linecap:round; stroke-linejoin:round;"
 transform="translate(0 0) scale(1 1)">
</g>
<g style="fill:#840000; fill-opacity:0.0; 
stroke:#840000; stroke-width:0.0000; stroke-opacity:1; 
stroke-linecap:round; stroke-linejoin:round;">
</g>
<g style="fill:#840084; fill-opacity:0.0; 
stroke:#840084; stroke-width:0.0000; stroke-opacity:1; 
stroke-linecap:round; stroke-linejoin:round;">
</g>
<g style="fill:#840000; fill-opacity:0.0; 
stroke:#840000; stroke-width:0.0000; stroke-opacity:1; 
stroke-linecap:round; stroke-linejoin:round;">
</g>
<g style="fill:#840084; fill-opacity:0.0; 
stroke:#840084; stroke-width:0.0000; stroke-opacity:1; 
stroke-linecap:round; stroke-linejoin:round;">
</g>
<g style="fill:#006464; fill-opacity:0.0; 
stroke:#006464; stroke-width:0.0000; stroke-opacity:1; 
stroke-linecap:round; stroke-linejoin:round;">
</g>
<g style="fill:#006464; fill-opacity:0.0; 
stroke:#006464; stroke-width:0.1588; stroke-opacity:1; 
stroke-linecap:round; stroke-linejoin:round;">
<text x="50.5337" y="5.4169"
textLength="2.6415" font-size="1.6933" lengthAdjust="spacingAndGlyphs"
text-anchor="middle" opacity="0">U?</text>
<g class="stroked-text"><desc>U?</desc>
<path d="M49.6265 4.0911
L49.6265 5.1192
" />
<path d="M49.6265 5.1192
L49.6870 5.2402
" />
<path d="M49.6870 5.2402
L49.7475 5.3007
" />
<path d="M49.7475 5.3007
L49.8684 5.3611
" />
<path d="M49.8684 5.3611
L50.1103 5.3611
" />
<path d="M50.1103 5.3611
L50.2313 5.3007
" />
<path d="M50.2313 5.3007
L50.2918 5.2402
" />
<path d="M50.2918 5.2402
L50.3522 5.1192
" />
<path d="M50.3522 5.1192
L50.3522 4.0911
" />
<path d="M51.1385 5.2402
L51.1989 5.3007
" />
<path d="M51.1989 5.3007
L51.1385 5.3611
" />
<path d="M51.1385 5.3611
L51.0780 5.3007
" />
<path d="M51.0780 5.3007
L51.1385 5.2402
" />
<path d="M51.1385 5.2402
L51.1385 5.3611
" />
<path d="M50.8966 4.1516
L51.0175 4.0911
" />
<path d="M51.0175 4.0911
L51.3199 4.0911
" />
<path d="M51.3199 4.0911
L51.4408 4.1516
" />
<path d="M51.4408 4.1516
L51.5013 4.2726
" />
<path d="M51.5013 4.2726
L51.5013 4.3935
" />
<path d="M51.5013 4.3935
L51.4408 4.5145
" />
<path d="M51.4408 4.5145
L51.3804 4.5749
" />
<path d="M51.3804 4.5749
L51.2594 4.6354
" />
<path d="M51.2594 4.6354
L51.1989 4.6959
" />
<path d="M51.1989 4.6959
L51.1385 4.8168
" />
<path d="M51.1385 4.8168
L51.1385 4.8773
" />
</g><text x="54.3437" y="7.9569"
textLength="8.4471" font-size="1.6933" lengthAdjust="spacingAndGlyphs"
text-anchor="middle" opacity="0">ADL5610</text>
<g class="stroked-text"><desc>ADL5610</desc>
<path d="M50.4733 7.5383
L51.0780 7.5383
" />
<path d="M50.3523 7.9011
L50.7756 6.6311
" />
<path d="M50.7756 6.6311
L51.1990 7.9011
" />
<path d="M51.6223 7.9011
L51.6223 6.6311
" />
<path d="M51.6223 6.6311
L51.9247 6.6311
" />
<path d="M51.9247 6.6311
L52.1061 6.6916
" />
<path d="M52.1061 6.6916
L52.2271 6.8126
" />
<path d="M52.2271 6.8126
L52.2876 6.9335
" />
<path d="M52.2876 6.9335
L52.3480 7.1754
" />
<path d="M52.3480 7.1754
L52.3480 7.3568
" />
<path d="M52.3480 7.3568
L52.2876 7.5987
" />
<path d="M52.2876 7.5987
L52.2271 7.7197
" />
<path d="M52.2271 7.7197
L52.1061 7.8407
" />
<path d="M52.1061 7.8407
L51.9247 7.9011
" />
<path d="M51.9247 7.9011
L51.6223 7.9011
" />
<path d="M53.4971 7.9011
L52.8923 7.9011
" />
<path d="M52.8923 7.9011
L52.8923 6.6311
" />
<path d="M54.5252 6.6311
L53.9204 6.6311
" />
<path d="M53.9204 6.6311
L53.8600 7.2359
" />
<path d="M53.8600 7.2359
L53.9204 7.1754
" />
<path d="M53.9204 7.1754
L54.0414 7.1149
" />
<path d="M54.0414 7.1149
L54.3438 7.1149
" />
<path d="M54.3438 7.1149
L54.4647 7.1754
" />
<path d="M54.4647 7.1754
L54.5252 7.2359
" />
<path d="M54.5252 7.2359
L54.5857 7.3568
" />
<path d="M54.5857 7.3568
L54.5857 7.6592
" />
<path d="M54.5857 7.6592
L54.5252 7.7802
" />
<path d="M54.5252 7.7802
L54.4647 7.8407
" />
<path d="M54.4647 7.8407
L54.3438 7.9011
" />
<path d="M54.3438 7.9011
L54.0414 7.9011
" />
<path d="M54.0414 7.9011
L53.9204 7.8407
" />
<path d="M53.9204 7.8407
L53.8600 7.7802
" />
<path d="M55.6742 6.6311
L55.4323 6.6311
" />
<path d="M55.4323 6.6311
L55.3114 6.6916
" />
<path d="M55.3114 6.6916
L55.2509 6.7521
" />
<path d="M55.2509 6.7521
L55.1299 6.9335
" />
<path d="M55.1299 6.9335
L55.0695 7.1754
" />
<path d="M55.0695 7.1754
L55.0695 7.6592
" />
<path d="M55.0695 7.6592
L55.1299 7.7802
" />
<path d="M55.1299 7.7802
L55.1904 7.8407
" />
<path d="M55.1904 7.8407
L55.3114 7.9011
" />
<path d="M55.3114 7.9011
L55.5533 7.9011
" />
<path d="M55.5533 7.9011
L55.6742 7.8407
" />
<path d="M55.6742 7.8407
L55.7347 7.7802
" />
<path d="M55.7347 7.7802
L55.7952 7.6592
" />
<path d="M55.7952 7.6592
L55.7952 7.3568
" />
<path d="M55.7952 7.3568
L55.7347 7.2359
" />
<path d="M55.7347 7.2359
L55.6742 7.1754
" />
<path d="M55.6742 7.1754
L55.5533 7.1149
" />
<path d="M55.5533 7.1149
L55.3114 7.1149
" />
<path d="M55.3114 7.1149
L55.1904 7.1754
" />
<path d="M55.1904 7.1754
L55.1299 7.2359
" />
<path d="M55.1299 7.2359
L55.0695 7.3568
" />
<path d="M57.0047 7.9011
L56.2790 7.9011
" />
<path d="M56.6418 7.9011
L56.6418 6.6311
" />
<path d="M56.6418 6.6311
L56.5209 6.8126
" />
<path d="M56.5209 6.8126
L56.3999 6.9335
" />
<path d="M56.3999 6.9335
L56.2790 6.9940
" />
<path d="M57.7908 6.6311
L57.9118 6.6311
" />
<path d="M57.9118 6.6311
L58.0327 6.6916
" />
<path d="M58.0327 6.6916
L58.0932 6.7521
" />
<path d="M58.0932 6.7521
L58.1537 6.8730
" />
<path d="M58.1537 6.8730
L58.2142 7.1149
" />
<path d="M58.2142 7.1149
L58.2142 7.4173
" />
<path d="M58.2142 7.4173
L58.1537 7.6592
" />
<path d="M58.1537 7.6592
L58.0932 7.7802
" />
<path d="M58.0932 7.7802
L58.0327 7.8407
" />
<path d="M58.0327 7.8407
L57.9118 7.9011
" />
<path d="M57.9118 7.9011
L57.7908 7.9011
" />
<path d="M57.7908 7.9011
L57.6699 7.8407
" />
<path d="M57.6699 7.8407
L57.6094 7.7802
" />
<path d="M57.6094 7.7802
L57.5489 7.6592
" />
<path d="M57.5489 7.6592
L57.4885 7.4173
" />
<path d="M57.4885 7.4173
L57.4885 7.1149
" />
<path d="M57.4885 7.1149
L57.5489 6.8730
" />
<path d="M57.5489 6.8730
L57.6094 6.7521
" />
<path d="M57.6094 6.7521
L57.6699 6.6916
" />
<path d="M57.6699 6.6916
L57.7908 6.6311
" />
</g></g>
<g style="fill:#840084; fill-opacity:0.0; 
stroke:#840084; stroke-width:0.1588; stroke-opacity:1; 
stroke-linecap:round; stroke-linejoin:round;">
<text x="53.0737" y="2.8769"
textLength="31.6698" font-size="1.6933" lengthAdjust="spacingAndGlyphs"
text-anchor="middle" opacity="0">Package_TO_SOT_SMD:SOT-89-3</text>
<g class="stroked-text"><desc>Package_TO_SOT_SMD:SOT-89-3</desc>
<path d="M37.6523 2.8211
L37.6523 1.5511
" />
<path d="M37.6523 1.5511
L38.1361 1.5511
" />
<path d="M38.1361 1.5511
L38.2571 1.6116
" />
<path d="M38.2571 1.6116
L38.3176 1.6721
" />
<path d="M38.3176 1.6721
L38.3780 1.7930
" />
<path d="M38.3780 1.7930
L38.3780 1.9745
" />
<path d="M38.3780 1.9745
L38.3176 2.0954
" />
<path d="M38.3176 2.0954
L38.2571 2.1559
" />
<path d="M38.2571 2.1559
L38.1361 2.2164
" />
<path d="M38.1361 2.2164
L37.6523 2.2164
" />
<path d="M39.4666 2.8211
L39.4666 2.1559
" />
<path d="M39.4666 2.1559
L39.4061 2.0349
" />
<path d="M39.4061 2.0349
L39.2852 1.9745
" />
<path d="M39.2852 1.9745
L39.0433 1.9745
" />
<path d="M39.0433 1.9745
L38.9223 2.0349
" />
<path d="M39.4666 2.7607
L39.3457 2.8211
" />
<path d="M39.3457 2.8211
L39.0433 2.8211
" />
<path d="M39.0433 2.8211
L38.9223 2.7607
" />
<path d="M38.9223 2.7607
L38.8619 2.6397
" />
<path d="M38.8619 2.6397
L38.8619 2.5187
" />
<path d="M38.8619 2.5187
L38.9223 2.3978
" />
<path d="M38.9223 2.3978
L39.0433 2.3373
" />
<path d="M39.0433 2.3373
L39.3457 2.3373
" />
<path d="M39.3457 2.3373
L39.4666 2.2768
" />
<path d="M40.6156 2.7607
L40.4947 2.8211
" />
<path d="M40.4947 2.8211
L40.2528 2.8211
" />
<path d="M40.2528 2.8211
L40.1318 2.7607
" />
<path d="M40.1318 2.7607
L40.0713 2.7002
" />
<path d="M40.0713 2.7002
L40.0109 2.5792
" />
<path d="M40.0109 2.5792
L40.0109 2.2164
" />
<path d="M40.0109 2.2164
L40.0713 2.0954
" />
<path d="M40.0713 2.0954
L40.1318 2.0349
" />
<path d="M40.1318 2.0349
L40.2528 1.9745
" />
<path d="M40.2528 1.9745
L40.4947 1.9745
" />
<path d="M40.4947 1.9745
L40.6156 2.0349
" />
<path d="M41.1599 2.8211
L41.1599 1.5511
" />
<path d="M41.2809 2.3373
L41.6437 2.8211
" />
<path d="M41.6437 1.9745
L41.1599 2.4583
" />
<path d="M42.7323 2.8211
L42.7323 2.1559
" />
<path d="M42.7323 2.1559
L42.6718 2.0349
" />
<path d="M42.6718 2.0349
L42.5509 1.9745
" />
<path d="M42.5509 1.9745
L42.3090 1.9745
" />
<path d="M42.3090 1.9745
L42.1880 2.0349
" />
<path d="M42.7323 2.7607
L42.6114 2.8211
" />
<path d="M42.6114 2.8211
L42.3090 2.8211
" />
<path d="M42.3090 2.8211
L42.1880 2.7607
" />
<path d="M42.1880 2.7607
L42.1276 2.6397
" />
<path d="M42.1276 2.6397
L42.1276 2.5187
" />
<path d="M42.1276 2.5187
L42.1880 2.3978
" />
<path d="M42.1880 2.3978
L42.3090 2.3373
" />
<path d="M42.3090 2.3373
L42.6114 2.3373
" />
<path d="M42.6114 2.3373
L42.7323 2.2768
" />
<path d="M43.8813 1.9745
L43.8813 3.0026
" />
<path d="M43.8813 3.0026
L43.8208 3.1235
" />
<path d="M43.8208 3.1235
L43.7604 3.1840
" />
<path d="M43.7604 3.1840
L43.6394 3.2445
" />
<path d="M43.6394 3.2445
L43.4580 3.2445
" />
<path d="M43.4580 3.2445
L43.3370 3.1840
" />
<path d="M43.8813 2.7607
L43.7604 2.8211
" />
<path d="M43.7604 2.8211
L43.5185 2.8211
" />
<path d="M43.5185 2.8211
L43.3975 2.7607
" />
<path d="M43.3975 2.7607
L43.3370 2.7002
" />
<path d="M43.3370 2.7002
L43.2766 2.5792
" />
<path d="M43.2766 2.5792
L43.2766 2.2164
" />
<path d="M43.2766 2.2164
L43.3370 2.0954
" />
<path d="M43.3370 2.0954
L43.3975 2.0349
" />
<path d="M43.3975 2.0349
L43.5185 1.9745
" />
<path d="M43.5185 1.9745
L43.7604 1.9745
" />
<path d="M43.7604 1.9745
L43.8813 2.0349
" />
<path d="M44.9698 2.7607
L44.8489 2.8211
" />
<path d="M44.8489 2.8211
L44.6070 2.8211
" />
<path d="M44.6070 2.8211
L44.4860 2.7607
" />
<path d="M44.4860 2.7607
L44.4256 2.6397
" />
<path d="M44.4256 2.6397
L44.4256 2.1559
" />
<path d="M44.4256 2.1559
L44.4860 2.0349
" />
<path d="M44.4860 2.0349
L44.6070 1.9745
" />
<path d="M44.6070 1.9745
L44.8489 1.9745
" />
<path d="M44.8489 1.9745
L44.9698 2.0349
" />
<path d="M44.9698 2.0349
L45.0303 2.1559
" />
<path d="M45.0303 2.1559
L45.0303 2.2768
" />
<path d="M45.0303 2.2768
L44.4256 2.3978
" />
<path d="M45.2723 2.9421
L46.2399 2.9421
" />
<path d="M46.3608 1.5511
L47.0865 1.5511
" />
<path d="M46.7237 2.8211
L46.7237 1.5511
" />
<path d="M47.7517 1.5511
L47.9936 1.5511
" />
<path d="M47.9936 1.5511
L48.1146 1.6116
" />
<path d="M48.1146 1.6116
L48.2355 1.7326
" />
<path d="M48.2355 1.7326
L48.2960 1.9745
" />
<path d="M48.2960 1.9745
L48.2960 2.3978
" />
<path d="M48.2960 2.3978
L48.2355 2.6397
" />
<path d="M48.2355 2.6397
L48.1146 2.7607
" />
<path d="M48.1146 2.7607
L47.9936 2.8211
" />
<path d="M47.9936 2.8211
L47.7517 2.8211
" />
<path d="M47.7517 2.8211
L47.6308 2.7607
" />
<path d="M47.6308 2.7607
L47.5098 2.6397
" />
<path d="M47.5098 2.6397
L47.4494 2.3978
" />
<path d="M47.4494 2.3978
L47.4494 1.9745
" />
<path d="M47.4494 1.9745
L47.5098 1.7326
" />
<path d="M47.5098 1.7326
L47.6308 1.6116
" />
<path d="M47.6308 1.6116
L47.7517 1.5511
" />
<path d="M48.5380 2.9421
L49.5056 2.9421
" />
<path d="M49.7475 2.7607
L49.9289 2.8211
" />
<path d="M49.9289 2.8211
L50.2313 2.8211
" />
<path d="M50.2313 2.8211
L50.3522 2.7607
" />
<path d="M50.3522 2.7607
L50.4127 2.7002
" />
<path d="M50.4127 2.7002
L50.4732 2.5792
" />
<path d="M50.4732 2.5792
L50.4732 2.4583
" />
<path d="M50.4732 2.4583
L50.4127 2.3373
" />
<path d="M50.4127 2.3373
L50.3522 2.2768
" />
<path d="M50.3522 2.2768
L50.2313 2.2164
" />
<path d="M50.2313 2.2164
L49.9894 2.1559
" />
<path d="M49.9894 2.1559
L49.8684 2.0954
" />
<path d="M49.8684 2.0954
L49.8079 2.0349
" />
<path d="M49.8079 2.0349
L49.7475 1.9140
" />
<path d="M49.7475 1.9140
L49.7475 1.7930
" />
<path d="M49.7475 1.7930
L49.8079 1.6721
" />
<path d="M49.8079 1.6721
L49.8684 1.6116
" />
<path d="M49.8684 1.6116
L49.9894 1.5511
" />
<path d="M49.9894 1.5511
L50.2917 1.5511
" />
<path d="M50.2917 1.5511
L50.4732 1.6116
" />
<path d="M51.2593 1.5511
L51.5012 1.5511
" />
<path d="M51.5012 1.5511
L51.6222 1.6116
" />
<path d="M51.6222 1.6116
L51.7431 1.7326
" />
<path d="M51.7431 1.7326
L51.8036 1.9745
" />
<path d="M51.8036 1.9745
L51.8036 2.3978
" />
<path d="M51.8036 2.3978
L51.7431 2.6397
" />
<path d="M51.7431 2.6397
L51.6222 2.7607
" />
<path d="M51.6222 2.7607
L51.5012 2.8211
" />
<path d="M51.5012 2.8211
L51.2593 2.8211
" />
<path d="M51.2593 2.8211
L51.1384 2.7607
" />
<path d="M51.1384 2.7607
L51.0174 2.6397
" />
<path d="M51.0174 2.6397
L50.9570 2.3978
" />
<path d="M50.9570 2.3978
L50.9570 1.9745
" />
<path d="M50.9570 1.9745
L51.0174 1.7326
" />
<path d="M51.0174 1.7326
L51.1384 1.6116
" />
<path d="M51.1384 1.6116
L51.2593 1.5511
" />
<path d="M52.1665 1.5511
L52.8922 1.5511
" />
<path d="M52.5294 2.8211
L52.5294 1.5511
" />
<path d="M53.0132 2.9421
L53.9808 2.9421
" />
<path d="M54.2227 2.7607
L54.4041 2.8211
" />
<path d="M54.4041 2.8211
L54.7065 2.8211
" />
<path d="M54.7065 2.8211
L54.8274 2.7607
" />
<path d="M54.8274 2.7607
L54.8879 2.7002
" />
<path d="M54.8879 2.7002
L54.9484 2.5792
" />
<path d="M54.9484 2.5792
L54.9484 2.4583
" />
<path d="M54.9484 2.4583
L54.8879 2.3373
" />
<path d="M54.8879 2.3373
L54.8274 2.2768
" />
<path d="M54.8274 2.2768
L54.7065 2.2164
" />
<path d="M54.7065 2.2164
L54.4646 2.1559
" />
<path d="M54.4646 2.1559
L54.3436 2.0954
" />
<path d="M54.3436 2.0954
L54.2831 2.0349
" />
<path d="M54.2831 2.0349
L54.2227 1.9140
" />
<path d="M54.2227 1.9140
L54.2227 1.7930
" />
<path d="M54.2227 1.7930
L54.2831 1.6721
" />
<path d="M54.2831 1.6721
L54.3436 1.6116
" />
<path d="M54.3436 1.6116
L54.4646 1.5511
" />
<path d="M54.4646 1.5511
L54.7669 1.5511
" />
<path d="M54.7669 1.5511
L54.9484 1.6116
" />
<path d="M55.4926 2.8211
L55.4926 1.5511
" />
<path d="M55.4926 1.5511
L55.9160 2.4583
" />
<path d="M55.9160 2.4583
L56.3393 1.5511
" />
<path d="M56.3393 1.5511
L56.3393 2.8211
" />
<path d="M56.9440 2.8211
L56.9440 1.5511
" />
<path d="M56.9440 1.5511
L57.2464 1.5511
" />
<path d="M57.2464 1.5511
L57.4278 1.6116
" />
<path d="M57.4278 1.6116
L57.5488 1.7326
" />
<path d="M57.5488 1.7326
L57.6093 1.8535
" />
<path d="M57.6093 1.8535
L57.6697 2.0954
" />
<path d="M57.6697 2.0954
L57.6697 2.2768
" />
<path d="M57.6697 2.2768
L57.6093 2.5187
" />
<path d="M57.6093 2.5187
L57.5488 2.6397
" />
<path d="M57.5488 2.6397
L57.4278 2.7607
" />
<path d="M57.4278 2.7607
L57.2464 2.8211
" />
<path d="M57.2464 2.8211
L56.9440 2.8211
" />
<path d="M58.2140 2.7002
L58.2745 2.7607
" />
<path d="M58.2745 2.7607
L58.2140 2.8211
" />
<path d="M58.2140 2.8211
L58.1536 2.7607
" />
<path d="M58.1536 2.7607
L58.2140 2.7002
" />
<path d="M58.2140 2.7002
L58.2140 2.8211
" />
<path d="M58.2140 2.0349
L58.2745 2.0954
" />
<path d="M58.2745 2.0954
L58.2140 2.1559
" />
<path d="M58.2140 2.1559
L58.1536 2.0954
" />
<path d="M58.1536 2.0954
L58.2140 2.0349
" />
<path d="M58.2140 2.0349
L58.2140 2.1559
" />
<path d="M58.7584 2.7607
L58.9398 2.8211
" />
<path d="M58.9398 2.8211
L59.2422 2.8211
" />
<path d="M59.2422 2.8211
L59.3631 2.7607
" />
<path d="M59.3631 2.7607
L59.4236 2.7002
" />
<path d="M59.4236 2.7002
L59.4841 2.5792
" />
<path d="M59.4841 2.5792
L59.4841 2.4583
" />
<path d="M59.4841 2.4583
L59.4236 2.3373
" />
<path d="M59.4236 2.3373
L59.3631 2.2768
" />
<path d="M59.3631 2.2768
L59.2422 2.2164
" />
<path d="M59.2422 2.2164
L59.0003 2.1559
" />
<path d="M59.0003 2.1559
L58.8793 2.0954
" />
<path d="M58.8793 2.0954
L58.8188 2.0349
" />
<path d="M58.8188 2.0349
L58.7584 1.9140
" />
<path d="M58.7584 1.9140
L58.7584 1.7930
" />
<path d="M58.7584 1.7930
L58.8188 1.6721
" />
<path d="M58.8188 1.6721
L58.8793 1.6116
" />
<path d="M58.8793 1.6116
L59.0003 1.5511
" />
<path d="M59.0003 1.5511
L59.3026 1.5511
" />
<path d="M59.3026 1.5511
L59.4841 1.6116
" />
<path d="M60.2702 1.5511
L60.5121 1.5511
" />
<path d="M60.5121 1.5511
L60.6331 1.6116
" />
<path d="M60.6331 1.6116
L60.7540 1.7326
" />
<path d="M60.7540 1.7326
L60.8145 1.9745
" />
<path d="M60.8145 1.9745
L60.8145 2.3978
" />
<path d="M60.8145 2.3978
L60.7540 2.6397
" />
<path d="M60.7540 2.6397
L60.6331 2.7607
" />
<path d="M60.6331 2.7607
L60.5121 2.8211
" />
<path d="M60.5121 2.8211
L60.2702 2.8211
" />
<path d="M60.2702 2.8211
L60.1493 2.7607
" />
<path d="M60.1493 2.7607
L60.0283 2.6397
" />
<path d="M60.0283 2.6397
L59.9679 2.3978
" />
<path d="M59.9679 2.3978
L59.9679 1.9745
" />
<path d="M59.9679 1.9745
L60.0283 1.7326
" />
<path d="M60.0283 1.7326
L60.1493 1.6116
" />
<path d="M60.1493 1.6116
L60.2702 1.5511
" />
<path d="M61.1774 1.5511
L61.9031 1.5511
" />
<path d="M61.5403 2.8211
L61.5403 1.5511
" />
<path d="M62.3264 2.3373
L63.2941 2.3373
" />
<path d="M64.0803 2.0954
L63.9593 2.0349
" />
<path d="M63.9593 2.0349
L63.8988 1.9745
" />
<path d="M63.8988 1.9745
L63.8384 1.8535
" />
<path d="M63.8384 1.8535
L63.8384 1.7930
" />
<path d="M63.8384 1.7930
L63.8988 1.6721
" />
<path d="M63.8988 1.6721
L63.9593 1.6116
" />
<path d="M63.9593 1.6116
L64.0803 1.5511
" />
<path d="M64.0803 1.5511
L64.3222 1.5511
" />
<path d="M64.3222 1.5511
L64.4431 1.6116
" />
<path d="M64.4431 1.6116
L64.5036 1.6721
" />
<path d="M64.5036 1.6721
L64.5641 1.7930
" />
<path d="M64.5641 1.7930
L64.5641 1.8535
" />
<path d="M64.5641 1.8535
L64.5036 1.9745
" />
<path d="M64.5036 1.9745
L64.4431 2.0349
" />
<path d="M64.4431 2.0349
L64.3222 2.0954
" />
<path d="M64.3222 2.0954
L64.0803 2.0954
" />
<path d="M64.0803 2.0954
L63.9593 2.1559
" />
<path d="M63.9593 2.1559
L63.8988 2.2164
" />
<path d="M63.8988 2.2164
L63.8384 2.3373
" />
<path d="M63.8384 2.3373
L63.8384 2.5792
" />
<path d="M63.8384 2.5792
L63.8988 2.7002
" />
<path d="M63.8988 2.7002
L63.9593 2.7607
" />
<path d="M63.9593 2.7607
L64.0803 2.8211
" />
<path d="M64.0803 2.8211
L64.3222 2.8211
" />
<path d="M64.3222 2.8211
L64.4431 2.7607
" />
<path d="M64.4431 2.7607
L64.5036 2.7002
" />
<path d="M64.5036 2.7002
L64.5641 2.5792
" />
<path d="M64.5641 2.5792
L64.5641 2.3373
" />
<path d="M64.5641 2.3373
L64.5036 2.2164
" />
<path d="M64.5036 2.2164
L64.4431 2.1559
" />
<path d="M64.4431 2.1559
L64.3222 2.0954
" />
<path d="M65.1688 2.8211
L65.4107 2.8211
" />
<path d="M65.4107 2.8211
L65.5317 2.7607
" />
<path d="M65.5317 2.7607
L65.5921 2.7002
" />
<path d="M65.5921 2.7002
L65.7131 2.5187
" />
<path d="M65.7131 2.5187
L65.7736 2.2768
" />
<path d="M65.7736 2.2768
L65.7736 1.7930
" />
<path d="M65.7736 1.7930
L65.7131 1.6721
" />
<path d="M65.7131 1.6721
L65.6526 1.6116
" />
<path d="M65.6526 1.6116
L65.5317 1.5511
" />
<path d="M65.5317 1.5511
L65.2898 1.5511
" />
<path d="M65.2898 1.5511
L65.1688 1.6116
" />
<path d="M65.1688 1.6116
L65.1083 1.6721
" />
<path d="M65.1083 1.6721
L65.0479 1.7930
" />
<path d="M65.0479 1.7930
L65.0479 2.0954
" />
<path d="M65.0479 2.0954
L65.1083 2.2164
" />
<path d="M65.1083 2.2164
L65.1688 2.2768
" />
<path d="M65.1688 2.2768
L65.2898 2.3373
" />
<path d="M65.2898 2.3373
L65.5317 2.3373
" />
<path d="M65.5317 2.3373
L65.6526 2.2768
" />
<path d="M65.6526 2.2768
L65.7131 2.2164
" />
<path d="M65.7131 2.2164
L65.7736 2.0954
" />
<path d="M66.3178 2.3373
L67.2855 2.3373
" />
<path d="M67.7693 1.5511
L68.5555 1.5511
" />
<path d="M68.5555 1.5511
L68.1321 2.0349
" />
<path d="M68.1321 2.0349
L68.3136 2.0349
" />
<path d="M68.3136 2.0349
L68.4345 2.0954
" />
<path d="M68.4345 2.0954
L68.4950 2.1559
" />
<path d="M68.4950 2.1559
L68.5555 2.2768
" />
<path d="M68.5555 2.2768
L68.5555 2.5792
" />
<path d="M68.5555 2.5792
L68.4950 2.7002
" />
<path d="M68.4950 2.7002
L68.4345 2.7607
" />
<path d="M68.4345 2.7607
L68.3136 2.8211
" />
<path d="M68.3136 2.8211
L67.9507 2.8211
" />
<path d="M67.9507 2.8211
L67.8298 2.7607
" />
<path d="M67.8298 2.7607
L67.7693 2.7002
" />
</g><text x="51.8037" y="13.0369"
textLength="86.3397" font-size="1.6933" lengthAdjust="spacingAndGlyphs"
text-anchor="middle" opacity="0">https://www.analog.com/media/en/technical-documentation/data-sheets/ADL5610.pdf</text>
<g class="stroked-text"><desc>https://www.analog.com/media/en/technical-documentation/data-sheets/ADL5610.pdf</desc>
<path d="M9.0474 12.9811
L9.0474 11.7111
" />
<path d="M9.5917 12.9811
L9.5917 12.3159
" />
<path d="M9.5917 12.3159
L9.5312 12.1949
" />
<path d="M9.5312 12.1949
L9.4103 12.1345
" />
<path d="M9.4103 12.1345
L9.2289 12.1345
" />
<path d="M9.2289 12.1345
L9.1079 12.1949
" />
<path d="M9.1079 12.1949
L9.0474 12.2554
" />
<path d="M10.0150 12.1345
L10.4988 12.1345
" />
<path d="M10.1964 11.7111
L10.1964 12.7997
" />
<path d="M10.1964 12.7997
L10.2569 12.9207
" />
<path d="M10.2569 12.9207
L10.3779 12.9811
" />
<path d="M10.3779 12.9811
L10.4988 12.9811
" />
<path d="M10.7407 12.1345
L11.2245 12.1345
" />
<path d="M10.9221 11.7111
L10.9221 12.7997
" />
<path d="M10.9221 12.7997
L10.9826 12.9207
" />
<path d="M10.9826 12.9207
L11.1036 12.9811
" />
<path d="M11.1036 12.9811
L11.2245 12.9811
" />
<path d="M11.6478 12.1345
L11.6478 13.4045
" />
<path d="M11.6478 12.1949
L11.7688 12.1345
" />
<path d="M11.7688 12.1345
L12.0107 12.1345
" />
<path d="M12.0107 12.1345
L12.1316 12.1949
" />
<path d="M12.1316 12.1949
L12.1921 12.2554
" />
<path d="M12.1921 12.2554
L12.2526 12.3764
" />
<path d="M12.2526 12.3764
L12.2526 12.7392
" />
<path d="M12.2526 12.7392
L12.1921 12.8602
" />
<path d="M12.1921 12.8602
L12.1316 12.9207
" />
<path d="M12.1316 12.9207
L12.0107 12.9811
" />
<path d="M12.0107 12.9811
L11.7688 12.9811
" />
<path d="M11.7688 12.9811
L11.6478 12.9207
" />
<path d="M12.7364 12.9207
L12.8573 12.9811
" />
<path d="M12.8573 12.9811
L13.0992 12.9811
" />
<path d="M13.0992 12.9811
L13.2202 12.9207
" />
<path d="M13.2202 12.9207
L13.2806 12.7997
" />
<path d="M13.2806 12.7997
L13.2806 12.7392
" />
<path d="M13.2806 12.7392
L13.2202 12.6183
" />
<path d="M13.2202 12.6183
L13.0992 12.5578
" />
<path d="M13.0992 12.5578
L12.9178 12.5578
" />
<path d="M12.9178 12.5578
L12.7968 12.4973
" />
<path d="M12.7968 12.4973
L12.7364 12.3764
" />
<path d="M12.7364 12.3764
L12.7364 12.3159
" />
<path d="M12.7364 12.3159
L12.7968 12.1949
" />
<path d="M12.7968 12.1949
L12.9178 12.1345
" />
<path d="M12.9178 12.1345
L13.0992 12.1345
" />
<path d="M13.0992 12.1345
L13.2202 12.1949
" />
<path d="M13.8249 12.8602
L13.8854 12.9207
" />
<path d="M13.8854 12.9207
L13.8249 12.9811
" />
<path d="M13.8249 12.9811
L13.7645 12.9207
" />
<path d="M13.7645 12.9207
L13.8249 12.8602
" />
<path d="M13.8249 12.8602
L13.8249 12.9811
" />
<path d="M13.8249 12.1949
L13.8854 12.2554
" />
<path d="M13.8854 12.2554
L13.8249 12.3159
" />
<path d="M13.8249 12.3159
L13.7645 12.2554
" />
<path d="M13.7645 12.2554
L13.8249 12.1949
" />
<path d="M13.8249 12.1949
L13.8249 12.3159
" />
<path d="M15.3369 11.6507
L14.2483 13.2835
" />
<path d="M16.6674 11.6507
L15.5788 13.2835
" />
<path d="M16.9698 12.1345
L17.2117 12.9811
" />
<path d="M17.2117 12.9811
L17.4536 12.3764
" />
<path d="M17.4536 12.3764
L17.6955 12.9811
" />
<path d="M17.6955 12.9811
L17.9374 12.1345
" />
<path d="M18.3003 12.1345
L18.5422 12.9811
" />
<path d="M18.5422 12.9811
L18.7841 12.3764
" />
<path d="M18.7841 12.3764
L19.0260 12.9811
" />
<path d="M19.0260 12.9811
L19.2679 12.1345
" />
<path d="M19.6308 12.1345
L19.8727 12.9811
" />
<path d="M19.8727 12.9811
L20.1146 12.3764
" />
<path d="M20.1146 12.3764
L20.3565 12.9811
" />
<path d="M20.3565 12.9811
L20.5984 12.1345
" />
<path d="M21.0822 12.8602
L21.1427 12.9207
" />
<path d="M21.1427 12.9207
L21.0822 12.9811
" />
<path d="M21.0822 12.9811
L21.0218 12.9207
" />
<path d="M21.0218 12.9207
L21.0822 12.8602
" />
<path d="M21.0822 12.8602
L21.0822 12.9811
" />
<path d="M22.2313 12.9811
L22.2313 12.3159
" />
<path d="M22.2313 12.3159
L22.1708 12.1949
" />
<path d="M22.1708 12.1949
L22.0499 12.1345
" />
<path d="M22.0499 12.1345
L21.8080 12.1345
" />
<path d="M21.8080 12.1345
L21.6870 12.1949
" />
<path d="M22.2313 12.9207
L22.1104 12.9811
" />
<path d="M22.1104 12.9811
L21.8080 12.9811
" />
<path d="M21.8080 12.9811
L21.6870 12.9207
" />
<path d="M21.6870 12.9207
L21.6266 12.7997
" />
<path d="M21.6266 12.7997
L21.6266 12.6787
" />
<path d="M21.6266 12.6787
L21.6870 12.5578
" />
<path d="M21.6870 12.5578
L21.8080 12.4973
" />
<path d="M21.8080 12.4973
L22.1104 12.4973
" />
<path d="M22.1104 12.4973
L22.2313 12.4368
" />
<path d="M22.8360 12.1345
L22.8360 12.9811
" />
<path d="M22.8360 12.2554
L22.8965 12.1949
" />
<path d="M22.8965 12.1949
L23.0175 12.1345
" />
<path d="M23.0175 12.1345
L23.1989 12.1345
" />
<path d="M23.1989 12.1345
L23.3198 12.1949
" />
<path d="M23.3198 12.1949
L23.3803 12.3159
" />
<path d="M23.3803 12.3159
L23.3803 12.9811
" />
<path d="M24.5293 12.9811
L24.5293 12.3159
" />
<path d="M24.5293 12.3159
L24.4688 12.1949
" />
<path d="M24.4688 12.1949
L24.3479 12.1345
" />
<path d="M24.3479 12.1345
L24.1060 12.1345
" />
<path d="M24.1060 12.1345
L23.9850 12.1949
" />
<path d="M24.5293 12.9207
L24.4084 12.9811
" />
<path d="M24.4084 12.9811
L24.1060 12.9811
" />
<path d="M24.1060 12.9811
L23.9850 12.9207
" />
<path d="M23.9850 12.9207
L23.9246 12.7997
" />
<path d="M23.9246 12.7997
L23.9246 12.6787
" />
<path d="M23.9246 12.6787
L23.9850 12.5578
" />
<path d="M23.9850 12.5578
L24.1060 12.4973
" />
<path d="M24.1060 12.4973
L24.4084 12.4973
" />
<path d="M24.4084 12.4973
L24.5293 12.4368
" />
<path d="M25.3155 12.9811
L25.1945 12.9207
" />
<path d="M25.1945 12.9207
L25.1340 12.7997
" />
<path d="M25.1340 12.7997
L25.1340 11.7111
" />
<path d="M25.9807 12.9811
L25.8597 12.9207
" />
<path d="M25.8597 12.9207
L25.7992 12.8602
" />
<path d="M25.7992 12.8602
L25.7388 12.7392
" />
<path d="M25.7388 12.7392
L25.7388 12.3764
" />
<path d="M25.7388 12.3764
L25.7992 12.2554
" />
<path d="M25.7992 12.2554
L25.8597 12.1949
" />
<path d="M25.8597 12.1949
L25.9807 12.1345
" />
<path d="M25.9807 12.1345
L26.1621 12.1345
" />
<path d="M26.1621 12.1345
L26.2830 12.1949
" />
<path d="M26.2830 12.1949
L26.3435 12.2554
" />
<path d="M26.3435 12.2554
L26.4040 12.3764
" />
<path d="M26.4040 12.3764
L26.4040 12.7392
" />
<path d="M26.4040 12.7392
L26.3435 12.8602
" />
<path d="M26.3435 12.8602
L26.2830 12.9207
" />
<path d="M26.2830 12.9207
L26.1621 12.9811
" />
<path d="M26.1621 12.9811
L25.9807 12.9811
" />
<path d="M27.4925 12.1345
L27.4925 13.1626
" />
<path d="M27.4925 13.1626
L27.4320 13.2835
" />
<path d="M27.4320 13.2835
L27.3716 13.3440
" />
<path d="M27.3716 13.3440
L27.2506 13.4045
" />
<path d="M27.2506 13.4045
L27.0692 13.4045
" />
<path d="M27.0692 13.4045
L26.9482 13.3440
" />
<path d="M27.4925 12.9207
L27.3716 12.9811
" />
<path d="M27.3716 12.9811
L27.1297 12.9811
" />
<path d="M27.1297 12.9811
L27.0087 12.9207
" />
<path d="M27.0087 12.9207
L26.9482 12.8602
" />
<path d="M26.9482 12.8602
L26.8878 12.7392
" />
<path d="M26.8878 12.7392
L26.8878 12.3764
" />
<path d="M26.8878 12.3764
L26.9482 12.2554
" />
<path d="M26.9482 12.2554
L27.0087 12.1949
" />
<path d="M27.0087 12.1949
L27.1297 12.1345
" />
<path d="M27.1297 12.1345
L27.3716 12.1345
" />
<path d="M27.3716 12.1345
L27.4925 12.1949
" />
<path d="M28.0972 12.8602
L28.1577 12.9207
" />
<path d="M28.1577 12.9207
L28.0972 12.9811
" />
<path d="M28.0972 12.9811
L28.0368 12.9207
" />
<path d="M28.0368 12.9207
L28.0972 12.8602
" />
<path d="M28.0972 12.8602
L28.0972 12.9811
" />
<path d="M29.2463 12.9207
L29.1254 12.9811
" />
<path d="M29.1254 12.9811
L28.8835 12.9811
" />
<path d="M28.8835 12.9811
L28.7625 12.9207
" />
<path d="M28.7625 12.9207
L28.7020 12.8602
" />
<path d="M28.7020 12.8602
L28.6416 12.7392
" />
<path d="M28.6416 12.7392
L28.6416 12.3764
" />
<path d="M28.6416 12.3764
L28.7020 12.2554
" />
<path d="M28.7020 12.2554
L28.7625 12.1949
" />
<path d="M28.7625 12.1949
L28.8835 12.1345
" />
<path d="M28.8835 12.1345
L29.1254 12.1345
" />
<path d="M29.1254 12.1345
L29.2463 12.1949
" />
<path d="M29.9721 12.9811
L29.8511 12.9207
" />
<path d="M29.8511 12.9207
L29.7906 12.8602
" />
<path d="M29.7906 12.8602
L29.7302 12.7392
" />
<path d="M29.7302 12.7392
L29.7302 12.3764
" />
<path d="M29.7302 12.3764
L29.7906 12.2554
" />
<path d="M29.7906 12.2554
L29.8511 12.1949
" />
<path d="M29.8511 12.1949
L29.9721 12.1345
" />
<path d="M29.9721 12.1345
L30.1535 12.1345
" />
<path d="M30.1535 12.1345
L30.2744 12.1949
" />
<path d="M30.2744 12.1949
L30.3349 12.2554
" />
<path d="M30.3349 12.2554
L30.3954 12.3764
" />
<path d="M30.3954 12.3764
L30.3954 12.7392
" />
<path d="M30.3954 12.7392
L30.3349 12.8602
" />
<path d="M30.3349 12.8602
L30.2744 12.9207
" />
<path d="M30.2744 12.9207
L30.1535 12.9811
" />
<path d="M30.1535 12.9811
L29.9721 12.9811
" />
<path d="M30.9396 12.9811
L30.9396 12.1345
" />
<path d="M30.9396 12.2554
L31.0001 12.1949
" />
<path d="M31.0001 12.1949
L31.1211 12.1345
" />
<path d="M31.1211 12.1345
L31.3025 12.1345
" />
<path d="M31.3025 12.1345
L31.4234 12.1949
" />
<path d="M31.4234 12.1949
L31.4839 12.3159
" />
<path d="M31.4839 12.3159
L31.4839 12.9811
" />
<path d="M31.4839 12.3159
L31.5444 12.1949
" />
<path d="M31.5444 12.1949
L31.6653 12.1345
" />
<path d="M31.6653 12.1345
L31.8468 12.1345
" />
<path d="M31.8468 12.1345
L31.9677 12.1949
" />
<path d="M31.9677 12.1949
L32.0282 12.3159
" />
<path d="M32.0282 12.3159
L32.0282 12.9811
" />
<path d="M33.5401 11.6507
L32.4515 13.2835
" />
<path d="M33.9634 12.9811
L33.9634 12.1345
" />
<path d="M33.9634 12.2554
L34.0239 12.1949
" />
<path d="M34.0239 12.1949
L34.1449 12.1345
" />
<path d="M34.1449 12.1345
L34.3263 12.1345
" />
<path d="M34.3263 12.1345
L34.4472 12.1949
" />
<path d="M34.4472 12.1949
L34.5077 12.3159
" />
<path d="M34.5077 12.3159
L34.5077 12.9811
" />
<path d="M34.5077 12.3159
L34.5682 12.1949
" />
<path d="M34.5682 12.1949
L34.6891 12.1345
" />
<path d="M34.6891 12.1345
L34.8706 12.1345
" />
<path d="M34.8706 12.1345
L34.9915 12.1949
" />
<path d="M34.9915 12.1949
L35.0520 12.3159
" />
<path d="M35.0520 12.3159
L35.0520 12.9811
" />
<path d="M36.1405 12.9207
L36.0196 12.9811
" />
<path d="M36.0196 12.9811
L35.7777 12.9811
" />
<path d="M35.7777 12.9811
L35.6567 12.9207
" />
<path d="M35.6567 12.9207
L35.5963 12.7997
" />
<path d="M35.5963 12.7997
L35.5963 12.3159
" />
<path d="M35.5963 12.3159
L35.6567 12.1949
" />
<path d="M35.6567 12.1949
L35.7777 12.1345
" />
<path d="M35.7777 12.1345
L36.0196 12.1345
" />
<path d="M36.0196 12.1345
L36.1405 12.1949
" />
<path d="M36.1405 12.1949
L36.2010 12.3159
" />
<path d="M36.2010 12.3159
L36.2010 12.4368
" />
<path d="M36.2010 12.4368
L35.5963 12.5578
" />
<path d="M37.2896 12.9811
L37.2896 11.7111
" />
<path d="M37.2896 12.9207
L37.1687 12.9811
" />
<path d="M37.1687 12.9811
L36.9268 12.9811
" />
<path d="M36.9268 12.9811
L36.8058 12.9207
" />
<path d="M36.8058 12.9207
L36.7453 12.8602
" />
<path d="M36.7453 12.8602
L36.6849 12.7392
" />
<path d="M36.6849 12.7392
L36.6849 12.3764
" />
<path d="M36.6849 12.3764
L36.7453 12.2554
" />
<path d="M36.7453 12.2554
L36.8058 12.1949
" />
<path d="M36.8058 12.1949
L36.9268 12.1345
" />
<path d="M36.9268 12.1345
L37.1687 12.1345
" />
<path d="M37.1687 12.1345
L37.2896 12.1949
" />
<path d="M37.8943 12.9811
L37.8943 12.1345
" />
<path d="M37.8943 11.7111
L37.8339 11.7716
" />
<path d="M37.8339 11.7716
L37.8943 11.8321
" />
<path d="M37.8943 11.8321
L37.9548 11.7716
" />
<path d="M37.9548 11.7716
L37.8943 11.7111
" />
<path d="M37.8943 11.7111
L37.8943 11.8321
" />
<path d="M39.0434 12.9811
L39.0434 12.3159
" />
<path d="M39.0434 12.3159
L38.9829 12.1949
" />
<path d="M38.9829 12.1949
L38.8620 12.1345
" />
<path d="M38.8620 12.1345
L38.6201 12.1345
" />
<path d="M38.6201 12.1345
L38.4991 12.1949
" />
<path d="M39.0434 12.9207
L38.9225 12.9811
" />
<path d="M38.9225 12.9811
L38.6201 12.9811
" />
<path d="M38.6201 12.9811
L38.4991 12.9207
" />
<path d="M38.4991 12.9207
L38.4387 12.7997
" />
<path d="M38.4387 12.7997
L38.4387 12.6787
" />
<path d="M38.4387 12.6787
L38.4991 12.5578
" />
<path d="M38.4991 12.5578
L38.6201 12.4973
" />
<path d="M38.6201 12.4973
L38.9225 12.4973
" />
<path d="M38.9225 12.4973
L39.0434 12.4368
" />
<path d="M40.5553 11.6507
L39.4667 13.2835
" />
<path d="M41.4624 12.9207
L41.3415 12.9811
" />
<path d="M41.3415 12.9811
L41.0996 12.9811
" />
<path d="M41.0996 12.9811
L40.9786 12.9207
" />
<path d="M40.9786 12.9207
L40.9182 12.7997
" />
<path d="M40.9182 12.7997
L40.9182 12.3159
" />
<path d="M40.9182 12.3159
L40.9786 12.1949
" />
<path d="M40.9786 12.1949
L41.0996 12.1345
" />
<path d="M41.0996 12.1345
L41.3415 12.1345
" />
<path d="M41.3415 12.1345
L41.4624 12.1949
" />
<path d="M41.4624 12.1949
L41.5229 12.3159
" />
<path d="M41.5229 12.3159
L41.5229 12.4368
" />
<path d="M41.5229 12.4368
L40.9182 12.5578
" />
<path d="M42.0672 12.1345
L42.0672 12.9811
" />
<path d="M42.0672 12.2554
L42.1277 12.1949
" />
<path d="M42.1277 12.1949
L42.2487 12.1345
" />
<path d="M42.2487 12.1345
L42.4301 12.1345
" />
<path d="M42.4301 12.1345
L42.5510 12.1949
" />
<path d="M42.5510 12.1949
L42.6115 12.3159
" />
<path d="M42.6115 12.3159
L42.6115 12.9811
" />
<path d="M44.1234 11.6507
L43.0348 13.2835
" />
<path d="M44.3653 12.1345
L44.8491 12.1345
" />
<path d="M44.5467 11.7111
L44.5467 12.7997
" />
<path d="M44.5467 12.7997
L44.6072 12.9207
" />
<path d="M44.6072 12.9207
L44.7282 12.9811
" />
<path d="M44.7282 12.9811
L44.8491 12.9811
" />
<path d="M45.7562 12.9207
L45.6353 12.9811
" />
<path d="M45.6353 12.9811
L45.3934 12.9811
" />
<path d="M45.3934 12.9811
L45.2724 12.9207
" />
<path d="M45.2724 12.9207
L45.2120 12.7997
" />
<path d="M45.2120 12.7997
L45.2120 12.3159
" />
<path d="M45.2120 12.3159
L45.2724 12.1949
" />
<path d="M45.2724 12.1949
L45.3934 12.1345
" />
<path d="M45.3934 12.1345
L45.6353 12.1345
" />
<path d="M45.6353 12.1345
L45.7562 12.1949
" />
<path d="M45.7562 12.1949
L45.8167 12.3159
" />
<path d="M45.8167 12.3159
L45.8167 12.4368
" />
<path d="M45.8167 12.4368
L45.2120 12.5578
" />
<path d="M46.9053 12.9207
L46.7844 12.9811
" />
<path d="M46.7844 12.9811
L46.5425 12.9811
" />
<path d="M46.5425 12.9811
L46.4215 12.9207
" />
<path d="M46.4215 12.9207
L46.3610 12.8602
" />
<path d="M46.3610 12.8602
L46.3006 12.7392
" />
<path d="M46.3006 12.7392
L46.3006 12.3764
" />
<path d="M46.3006 12.3764
L46.3610 12.2554
" />
<path d="M46.3610 12.2554
L46.4215 12.1949
" />
<path d="M46.4215 12.1949
L46.5425 12.1345
" />
<path d="M46.5425 12.1345
L46.7844 12.1345
" />
<path d="M46.7844 12.1345
L46.9053 12.1949
" />
<path d="M47.4496 12.9811
L47.4496 11.7111
" />
<path d="M47.9939 12.9811
L47.9939 12.3159
" />
<path d="M47.9939 12.3159
L47.9334 12.1949
" />
<path d="M47.9334 12.1949
L47.8125 12.1345
" />
<path d="M47.8125 12.1345
L47.6311 12.1345
" />
<path d="M47.6311 12.1345
L47.5101 12.1949
" />
<path d="M47.5101 12.1949
L47.4496 12.2554
" />
<path d="M48.5986 12.1345
L48.5986 12.9811
" />
<path d="M48.5986 12.2554
L48.6591 12.1949
" />
<path d="M48.6591 12.1949
L48.7801 12.1345
" />
<path d="M48.7801 12.1345
L48.9615 12.1345
" />
<path d="M48.9615 12.1345
L49.0824 12.1949
" />
<path d="M49.0824 12.1949
L49.1429 12.3159
" />
<path d="M49.1429 12.3159
L49.1429 12.9811
" />
<path d="M49.7476 12.9811
L49.7476 12.1345
" />
<path d="M49.7476 11.7111
L49.6872 11.7716
" />
<path d="M49.6872 11.7716
L49.7476 11.8321
" />
<path d="M49.7476 11.8321
L49.8081 11.7716
" />
<path d="M49.8081 11.7716
L49.7476 11.7111
" />
<path d="M49.7476 11.7111
L49.7476 11.8321
" />
<path d="M50.8967 12.9207
L50.7758 12.9811
" />
<path d="M50.7758 12.9811
L50.5339 12.9811
" />
<path d="M50.5339 12.9811
L50.4129 12.9207
" />
<path d="M50.4129 12.9207
L50.3524 12.8602
" />
<path d="M50.3524 12.8602
L50.2920 12.7392
" />
<path d="M50.2920 12.7392
L50.2920 12.3764
" />
<path d="M50.2920 12.3764
L50.3524 12.2554
" />
<path d="M50.3524 12.2554
L50.4129 12.1949
" />
<path d="M50.4129 12.1949
L50.5339 12.1345
" />
<path d="M50.5339 12.1345
L50.7758 12.1345
" />
<path d="M50.7758 12.1345
L50.8967 12.1949
" />
<path d="M51.9853 12.9811
L51.9853 12.3159
" />
<path d="M51.9853 12.3159
L51.9248 12.1949
" />
<path d="M51.9248 12.1949
L51.8039 12.1345
" />
<path d="M51.8039 12.1345
L51.5620 12.1345
" />
<path d="M51.5620 12.1345
L51.4410 12.1949
" />
<path d="M51.9853 12.9207
L51.8644 12.9811
" />
<path d="M51.8644 12.9811
L51.5620 12.9811
" />
<path d="M51.5620 12.9811
L51.4410 12.9207
" />
<path d="M51.4410 12.9207
L51.3806 12.7997
" />
<path d="M51.3806 12.7997
L51.3806 12.6787
" />
<path d="M51.3806 12.6787
L51.4410 12.5578
" />
<path d="M51.4410 12.5578
L51.5620 12.4973
" />
<path d="M51.5620 12.4973
L51.8644 12.4973
" />
<path d="M51.8644 12.4973
L51.9853 12.4368
" />
<path d="M52.7715 12.9811
L52.6505 12.9207
" />
<path d="M52.6505 12.9207
L52.5900 12.7997
" />
<path d="M52.5900 12.7997
L52.5900 11.7111
" />
<path d="M53.2552 12.4973
L54.2229 12.4973
" />
<path d="M55.3719 12.9811
L55.3719 11.7111
" />
<path d="M55.3719 12.9207
L55.2510 12.9811
" />
<path d="M55.2510 12.9811
L55.0091 12.9811
" />
<path d="M55.0091 12.9811
L54.8881 12.9207
" />
<path d="M54.8881 12.9207
L54.8276 12.8602
" />
<path d="M54.8276 12.8602
L54.7672 12.7392
" />
<path d="M54.7672 12.7392
L54.7672 12.3764
" />
<path d="M54.7672 12.3764
L54.8276 12.2554
" />
<path d="M54.8276 12.2554
L54.8881 12.1949
" />
<path d="M54.8881 12.1949
L55.0091 12.1345
" />
<path d="M55.0091 12.1345
L55.2510 12.1345
" />
<path d="M55.2510 12.1345
L55.3719 12.1949
" />
<path d="M56.1581 12.9811
L56.0371 12.9207
" />
<path d="M56.0371 12.9207
L55.9766 12.8602
" />
<path d="M55.9766 12.8602
L55.9162 12.7392
" />
<path d="M55.9162 12.7392
L55.9162 12.3764
" />
<path d="M55.9162 12.3764
L55.9766 12.2554
" />
<path d="M55.9766 12.2554
L56.0371 12.1949
" />
<path d="M56.0371 12.1949
L56.1581 12.1345
" />
<path d="M56.1581 12.1345
L56.3395 12.1345
" />
<path d="M56.3395 12.1345
L56.4604 12.1949
" />
<path d="M56.4604 12.1949
L56.5209 12.2554
" />
<path d="M56.5209 12.2554
L56.5814 12.3764
" />
<path d="M56.5814 12.3764
L56.5814 12.7392
" />
<path d="M56.5814 12.7392
L56.5209 12.8602
" />
<path d="M56.5209 12.8602
L56.4604 12.9207
" />
<path d="M56.4604 12.9207
L56.3395 12.9811
" />
<path d="M56.3395 12.9811
L56.1581 12.9811
" />
<path d="M57.6699 12.9207
L57.5490 12.9811
" />
<path d="M57.5490 12.9811
L57.3071 12.9811
" />
<path d="M57.3071 12.9811
L57.1861 12.9207
" />
<path d="M57.1861 12.9207
L57.1256 12.8602
" />
<path d="M57.1256 12.8602
L57.0652 12.7392
" />
<path d="M57.0652 12.7392
L57.0652 12.3764
" />
<path d="M57.0652 12.3764
L57.1256 12.2554
" />
<path d="M57.1256 12.2554
L57.1861 12.1949
" />
<path d="M57.1861 12.1949
L57.3071 12.1345
" />
<path d="M57.3071 12.1345
L57.5490 12.1345
" />
<path d="M57.5490 12.1345
L57.6699 12.1949
" />
<path d="M58.7585 12.1345
L58.7585 12.9811
" />
<path d="M58.2142 12.1345
L58.2142 12.7997
" />
<path d="M58.2142 12.7997
L58.2747 12.9207
" />
<path d="M58.2747 12.9207
L58.3957 12.9811
" />
<path d="M58.3957 12.9811
L58.5771 12.9811
" />
<path d="M58.5771 12.9811
L58.6980 12.9207
" />
<path d="M58.6980 12.9207
L58.7585 12.8602
" />
<path d="M59.3632 12.9811
L59.3632 12.1345
" />
<path d="M59.3632 12.2554
L59.4237 12.1949
" />
<path d="M59.4237 12.1949
L59.5447 12.1345
" />
<path d="M59.5447 12.1345
L59.7261 12.1345
" />
<path d="M59.7261 12.1345
L59.8470 12.1949
" />
<path d="M59.8470 12.1949
L59.9075 12.3159
" />
<path d="M59.9075 12.3159
L59.9075 12.9811
" />
<path d="M59.9075 12.3159
L59.9680 12.1949
" />
<path d="M59.9680 12.1949
L60.0889 12.1345
" />
<path d="M60.0889 12.1345
L60.2704 12.1345
" />
<path d="M60.2704 12.1345
L60.3913 12.1949
" />
<path d="M60.3913 12.1949
L60.4518 12.3159
" />
<path d="M60.4518 12.3159
L60.4518 12.9811
" />
<path d="M61.5403 12.9207
L61.4194 12.9811
" />
<path d="M61.4194 12.9811
L61.1775 12.9811
" />
<path d="M61.1775 12.9811
L61.0565 12.9207
" />
<path d="M61.0565 12.9207
L60.9961 12.7997
" />
<path d="M60.9961 12.7997
L60.9961 12.3159
" />
<path d="M60.9961 12.3159
L61.0565 12.1949
" />
<path d="M61.0565 12.1949
L61.1775 12.1345
" />
<path d="M61.1775 12.1345
L61.4194 12.1345
" />
<path d="M61.4194 12.1345
L61.5403 12.1949
" />
<path d="M61.5403 12.1949
L61.6008 12.3159
" />
<path d="M61.6008 12.3159
L61.6008 12.4368
" />
<path d="M61.6008 12.4368
L60.9961 12.5578
" />
<path d="M62.1451 12.1345
L62.1451 12.9811
" />
<path d="M62.1451 12.2554
L62.2056 12.1949
" />
<path d="M62.2056 12.1949
L62.3266 12.1345
" />
<path d="M62.3266 12.1345
L62.5080 12.1345
" />
<path d="M62.5080 12.1345
L62.6289 12.1949
" />
<path d="M62.6289 12.1949
L62.6894 12.3159
" />
<path d="M62.6894 12.3159
L62.6894 12.9811
" />
<path d="M63.1127 12.1345
L63.5965 12.1345
" />
<path d="M63.2941 11.7111
L63.2941 12.7997
" />
<path d="M63.2941 12.7997
L63.3546 12.9207
" />
<path d="M63.3546 12.9207
L63.4756 12.9811
" />
<path d="M63.4756 12.9811
L63.5965 12.9811
" />
<path d="M64.5641 12.9811
L64.5641 12.3159
" />
<path d="M64.5641 12.3159
L64.5036 12.1949
" />
<path d="M64.5036 12.1949
L64.3827 12.1345
" />
<path d="M64.3827 12.1345
L64.1408 12.1345
" />
<path d="M64.1408 12.1345
L64.0198 12.1949
" />
<path d="M64.5641 12.9207
L64.4432 12.9811
" />
<path d="M64.4432 12.9811
L64.1408 12.9811
" />
<path d="M64.1408 12.9811
L64.0198 12.9207
" />
<path d="M64.0198 12.9207
L63.9594 12.7997
" />
<path d="M63.9594 12.7997
L63.9594 12.6787
" />
<path d="M63.9594 12.6787
L64.0198 12.5578
" />
<path d="M64.0198 12.5578
L64.1408 12.4973
" />
<path d="M64.1408 12.4973
L64.4432 12.4973
" />
<path d="M64.4432 12.4973
L64.5641 12.4368
" />
<path d="M64.9874 12.1345
L65.4712 12.1345
" />
<path d="M65.1688 11.7111
L65.1688 12.7997
" />
<path d="M65.1688 12.7997
L65.2293 12.9207
" />
<path d="M65.2293 12.9207
L65.3503 12.9811
" />
<path d="M65.3503 12.9811
L65.4712 12.9811
" />
<path d="M65.8945 12.9811
L65.8945 12.1345
" />
<path d="M65.8945 11.7111
L65.8341 11.7716
" />
<path d="M65.8341 11.7716
L65.8945 11.8321
" />
<path d="M65.8945 11.8321
L65.9550 11.7716
" />
<path d="M65.9550 11.7716
L65.8945 11.7111
" />
<path d="M65.8945 11.7111
L65.8945 11.8321
" />
<path d="M66.6808 12.9811
L66.5598 12.9207
" />
<path d="M66.5598 12.9207
L66.4993 12.8602
" />
<path d="M66.4993 12.8602
L66.4389 12.7392
" />
<path d="M66.4389 12.7392
L66.4389 12.3764
" />
<path d="M66.4389 12.3764
L66.4993 12.2554
" />
<path d="M66.4993 12.2554
L66.5598 12.1949
" />
<path d="M66.5598 12.1949
L66.6808 12.1345
" />
<path d="M66.6808 12.1345
L66.8622 12.1345
" />
<path d="M66.8622 12.1345
L66.9831 12.1949
" />
<path d="M66.9831 12.1949
L67.0436 12.2554
" />
<path d="M67.0436 12.2554
L67.1041 12.3764
" />
<path d="M67.1041 12.3764
L67.1041 12.7392
" />
<path d="M67.1041 12.7392
L67.0436 12.8602
" />
<path d="M67.0436 12.8602
L66.9831 12.9207
" />
<path d="M66.9831 12.9207
L66.8622 12.9811
" />
<path d="M66.8622 12.9811
L66.6808 12.9811
" />
<path d="M67.6483 12.1345
L67.6483 12.9811
" />
<path d="M67.6483 12.2554
L67.7088 12.1949
" />
<path d="M67.7088 12.1949
L67.8298 12.1345
" />
<path d="M67.8298 12.1345
L68.0112 12.1345
" />
<path d="M68.0112 12.1345
L68.1321 12.1949
" />
<path d="M68.1321 12.1949
L68.1926 12.3159
" />
<path d="M68.1926 12.3159
L68.1926 12.9811
" />
<path d="M69.7045 11.6507
L68.6159 13.2835
" />
<path d="M70.6721 12.9811
L70.6721 11.7111
" />
<path d="M70.6721 12.9207
L70.5512 12.9811
" />
<path d="M70.5512 12.9811
L70.3093 12.9811
" />
<path d="M70.3093 12.9811
L70.1883 12.9207
" />
<path d="M70.1883 12.9207
L70.1278 12.8602
" />
<path d="M70.1278 12.8602
L70.0674 12.7392
" />
<path d="M70.0674 12.7392
L70.0674 12.3764
" />
<path d="M70.0674 12.3764
L70.1278 12.2554
" />
<path d="M70.1278 12.2554
L70.1883 12.1949
" />
<path d="M70.1883 12.1949
L70.3093 12.1345
" />
<path d="M70.3093 12.1345
L70.5512 12.1345
" />
<path d="M70.5512 12.1345
L70.6721 12.1949
" />
<path d="M71.8211 12.9811
L71.8211 12.3159
" />
<path d="M71.8211 12.3159
L71.7606 12.1949
" />
<path d="M71.7606 12.1949
L71.6397 12.1345
" />
<path d="M71.6397 12.1345
L71.3978 12.1345
" />
<path d="M71.3978 12.1345
L71.2768 12.1949
" />
<path d="M71.8211 12.9207
L71.7002 12.9811
" />
<path d="M71.7002 12.9811
L71.3978 12.9811
" />
<path d="M71.3978 12.9811
L71.2768 12.9207
" />
<path d="M71.2768 12.9207
L71.2164 12.7997
" />
<path d="M71.2164 12.7997
L71.2164 12.6787
" />
<path d="M71.2164 12.6787
L71.2768 12.5578
" />
<path d="M71.2768 12.5578
L71.3978 12.4973
" />
<path d="M71.3978 12.4973
L71.7002 12.4973
" />
<path d="M71.7002 12.4973
L71.8211 12.4368
" />
<path d="M72.2444 12.1345
L72.7282 12.1345
" />
<path d="M72.4258 11.7111
L72.4258 12.7997
" />
<path d="M72.4258 12.7997
L72.4863 12.9207
" />
<path d="M72.4863 12.9207
L72.6073 12.9811
" />
<path d="M72.6073 12.9811
L72.7282 12.9811
" />
<path d="M73.6958 12.9811
L73.6958 12.3159
" />
<path d="M73.6958 12.3159
L73.6353 12.1949
" />
<path d="M73.6353 12.1949
L73.5144 12.1345
" />
<path d="M73.5144 12.1345
L73.2725 12.1345
" />
<path d="M73.2725 12.1345
L73.1515 12.1949
" />
<path d="M73.6958 12.9207
L73.5749 12.9811
" />
<path d="M73.5749 12.9811
L73.2725 12.9811
" />
<path d="M73.2725 12.9811
L73.1515 12.9207
" />
<path d="M73.1515 12.9207
L73.0911 12.7997
" />
<path d="M73.0911 12.7997
L73.0911 12.6787
" />
<path d="M73.0911 12.6787
L73.1515 12.5578
" />
<path d="M73.1515 12.5578
L73.2725 12.4973
" />
<path d="M73.2725 12.4973
L73.5749 12.4973
" />
<path d="M73.5749 12.4973
L73.6958 12.4368
" />
<path d="M74.3005 12.4973
L75.2682 12.4973
" />
<path d="M75.8125 12.9207
L75.9334 12.9811
" />
<path d="M75.9334 12.9811
L76.1753 12.9811
" />
<path d="M76.1753 12.9811
L76.2963 12.9207
" />
<path d="M76.2963 12.9207
L76.3567 12.7997
" />
<path d="M76.3567 12.7997
L76.3567 12.7392
" />
<path d="M76.3567 12.7392
L76.2963 12.6183
" />
<path d="M76.2963 12.6183
L76.1753 12.5578
" />
<path d="M76.1753 12.5578
L75.9939 12.5578
" />
<path d="M75.9939 12.5578
L75.8729 12.4973
" />
<path d="M75.8729 12.4973
L75.8125 12.3764
" />
<path d="M75.8125 12.3764
L75.8125 12.3159
" />
<path d="M75.8125 12.3159
L75.8729 12.1949
" />
<path d="M75.8729 12.1949
L75.9939 12.1345
" />
<path d="M75.9939 12.1345
L76.1753 12.1345
" />
<path d="M76.1753 12.1345
L76.2963 12.1949
" />
<path d="M76.9010 12.9811
L76.9010 11.7111
" />
<path d="M77.4453 12.9811
L77.4453 12.3159
" />
<path d="M77.4453 12.3159
L77.3848 12.1949
" />
<path d="M77.3848 12.1949
L77.2639 12.1345
" />
<path d="M77.2639 12.1345
L77.0825 12.1345
" />
<path d="M77.0825 12.1345
L76.9615 12.1949
" />
<path d="M76.9615 12.1949
L76.9010 12.2554
" />
<path d="M78.5338 12.9207
L78.4129 12.9811
" />
<path d="M78.4129 12.9811
L78.1710 12.9811
" />
<path d="M78.1710 12.9811
L78.0500 12.9207
" />
<path d="M78.0500 12.9207
L77.9896 12.7997
" />
<path d="M77.9896 12.7997
L77.9896 12.3159
" />
<path d="M77.9896 12.3159
L78.0500 12.1949
" />
<path d="M78.0500 12.1949
L78.1710 12.1345
" />
<path d="M78.1710 12.1345
L78.4129 12.1345
" />
<path d="M78.4129 12.1345
L78.5338 12.1949
" />
<path d="M78.5338 12.1949
L78.5943 12.3159
" />
<path d="M78.5943 12.3159
L78.5943 12.4368
" />
<path d="M78.5943 12.4368
L77.9896 12.5578
" />
<path d="M79.6224 12.9207
L79.5015 12.9811
" />
<path d="M79.5015 12.9811
L79.2596 12.9811
" />
<path d="M79.2596 12.9811
L79.1386 12.9207
" />
<path d="M79.1386 12.9207
L79.0782 12.7997
" />
<path d="M79.0782 12.7997
L79.0782 12.3159
" />
<path d="M79.0782 12.3159
L79.1386 12.1949
" />
<path d="M79.1386 12.1949
L79.2596 12.1345
" />
<path d="M79.2596 12.1345
L79.5015 12.1345
" />
<path d="M79.5015 12.1345
L79.6224 12.1949
" />
<path d="M79.6224 12.1949
L79.6829 12.3159
" />
<path d="M79.6829 12.3159
L79.6829 12.4368
" />
<path d="M79.6829 12.4368
L79.0782 12.5578
" />
<path d="M80.0458 12.1345
L80.5296 12.1345
" />
<path d="M80.2272 11.7111
L80.2272 12.7997
" />
<path d="M80.2272 12.7997
L80.2877 12.9207
" />
<path d="M80.2877 12.9207
L80.4087 12.9811
" />
<path d="M80.4087 12.9811
L80.5296 12.9811
" />
<path d="M80.8925 12.9207
L81.0134 12.9811
" />
<path d="M81.0134 12.9811
L81.2553 12.9811
" />
<path d="M81.2553 12.9811
L81.3763 12.9207
" />
<path d="M81.3763 12.9207
L81.4367 12.7997
" />
<path d="M81.4367 12.7997
L81.4367 12.7392
" />
<path d="M81.4367 12.7392
L81.3763 12.6183
" />
<path d="M81.3763 12.6183
L81.2553 12.5578
" />
<path d="M81.2553 12.5578
L81.0739 12.5578
" />
<path d="M81.0739 12.5578
L80.9529 12.4973
" />
<path d="M80.9529 12.4973
L80.8925 12.3764
" />
<path d="M80.8925 12.3764
L80.8925 12.3159
" />
<path d="M80.8925 12.3159
L80.9529 12.1949
" />
<path d="M80.9529 12.1949
L81.0739 12.1345
" />
<path d="M81.0739 12.1345
L81.2553 12.1345
" />
<path d="M81.2553 12.1345
L81.3763 12.1949
" />
<path d="M82.8882 11.6507
L81.7996 13.2835
" />
<path d="M83.2511 12.6183
L83.8558 12.6183
" />
<path d="M83.1301 12.9811
L83.5534 11.7111
" />
<path d="M83.5534 11.7111
L83.9768 12.9811
" />
<path d="M84.4001 12.9811
L84.4001 11.7111
" />
<path d="M84.4001 11.7111
L84.7025 11.7111
" />
<path d="M84.7025 11.7111
L84.8839 11.7716
" />
<path d="M84.8839 11.7716
L85.0049 11.8926
" />
<path d="M85.0049 11.8926
L85.0654 12.0135
" />
<path d="M85.0654 12.0135
L85.1258 12.2554
" />
<path d="M85.1258 12.2554
L85.1258 12.4368
" />
<path d="M85.1258 12.4368
L85.0654 12.6787
" />
<path d="M85.0654 12.6787
L85.0049 12.7997
" />
<path d="M85.0049 12.7997
L84.8839 12.9207
" />
<path d="M84.8839 12.9207
L84.7025 12.9811
" />
<path d="M84.7025 12.9811
L84.4001 12.9811
" />
<path d="M86.2749 12.9811
L85.6701 12.9811
" />
<path d="M85.6701 12.9811
L85.6701 11.7111
" />
<path d="M87.3030 11.7111
L86.6982 11.7111
" />
<path d="M86.6982 11.7111
L86.6378 12.3159
" />
<path d="M86.6378 12.3159
L86.6982 12.2554
" />
<path d="M86.6982 12.2554
L86.8192 12.1949
" />
<path d="M86.8192 12.1949
L87.1216 12.1949
" />
<path d="M87.1216 12.1949
L87.2425 12.2554
" />
<path d="M87.2425 12.2554
L87.3030 12.3159
" />
<path d="M87.3030 12.3159
L87.3635 12.4368
" />
<path d="M87.3635 12.4368
L87.3635 12.7392
" />
<path d="M87.3635 12.7392
L87.3030 12.8602
" />
<path d="M87.3030 12.8602
L87.2425 12.9207
" />
<path d="M87.2425 12.9207
L87.1216 12.9811
" />
<path d="M87.1216 12.9811
L86.8192 12.9811
" />
<path d="M86.8192 12.9811
L86.6982 12.9207
" />
<path d="M86.6982 12.9207
L86.6378 12.8602
" />
<path d="M88.4520 11.7111
L88.2101 11.7111
" />
<path d="M88.2101 11.7111
L88.0892 11.7716
" />
<path d="M88.0892 11.7716
L88.0287 11.8321
" />
<path d="M88.0287 11.8321
L87.9077 12.0135
" />
<path d="M87.9077 12.0135
L87.8473 12.2554
" />
<path d="M87.8473 12.2554
L87.8473 12.7392
" />
<path d="M87.8473 12.7392
L87.9077 12.8602
" />
<path d="M87.9077 12.8602
L87.9682 12.9207
" />
<path d="M87.9682 12.9207
L88.0892 12.9811
" />
<path d="M88.0892 12.9811
L88.3311 12.9811
" />
<path d="M88.3311 12.9811
L88.4520 12.9207
" />
<path d="M88.4520 12.9207
L88.5125 12.8602
" />
<path d="M88.5125 12.8602
L88.5730 12.7392
" />
<path d="M88.5730 12.7392
L88.5730 12.4368
" />
<path d="M88.5730 12.4368
L88.5125 12.3159
" />
<path d="M88.5125 12.3159
L88.4520 12.2554
" />
<path d="M88.4520 12.2554
L88.3311 12.1949
" />
<path d="M88.3311 12.1949
L88.0892 12.1949
" />
<path d="M88.0892 12.1949
L87.9682 12.2554
" />
<path d="M87.9682 12.2554
L87.9077 12.3159
" />
<path d="M87.9077 12.3159
L87.8473 12.4368
" />
<path d="M89.7825 12.9811
L89.0568 12.9811
" />
<path d="M89.4196 12.9811
L89.4196 11.7111
" />
<path d="M89.4196 11.7111
L89.2987 11.8926
" />
<path d="M89.2987 11.8926
L89.1777 12.0135
" />
<path d="M89.1777 12.0135
L89.0568 12.0740
" />
<path d="M90.5686 11.7111
L90.6896 11.7111
" />
<path d="M90.6896 11.7111
L90.8105 11.7716
" />
<path d="M90.8105 11.7716
L90.8710 11.8321
" />
<path d="M90.8710 11.8321
L90.9315 11.9530
" />
<path d="M90.9315 11.9530
L90.9920 12.1949
" />
<path d="M90.9920 12.1949
L90.9920 12.4973
" />
<path d="M90.9920 12.4973
L90.9315 12.7392
" />
<path d="M90.9315 12.7392
L90.8710 12.8602
" />
<path d="M90.8710 12.8602
L90.8105 12.9207
" />
<path d="M90.8105 12.9207
L90.6896 12.9811
" />
<path d="M90.6896 12.9811
L90.5686 12.9811
" />
<path d="M90.5686 12.9811
L90.4477 12.9207
" />
<path d="M90.4477 12.9207
L90.3872 12.8602
" />
<path d="M90.3872 12.8602
L90.3267 12.7392
" />
<path d="M90.3267 12.7392
L90.2663 12.4973
" />
<path d="M90.2663 12.4973
L90.2663 12.1949
" />
<path d="M90.2663 12.1949
L90.3267 11.9530
" />
<path d="M90.3267 11.9530
L90.3872 11.8321
" />
<path d="M90.3872 11.8321
L90.4477 11.7716
" />
<path d="M90.4477 11.7716
L90.5686 11.7111
" />
<path d="M91.5362 12.8602
L91.5967 12.9207
" />
<path d="M91.5967 12.9207
L91.5362 12.9811
" />
<path d="M91.5362 12.9811
L91.4758 12.9207
" />
<path d="M91.4758 12.9207
L91.5362 12.8602
" />
<path d="M91.5362 12.8602
L91.5362 12.9811
" />
<path d="M92.1410 12.1345
L92.1410 13.4045
" />
<path d="M92.1410 12.1949
L92.2620 12.1345
" />
<path d="M92.2620 12.1345
L92.5039 12.1345
" />
<path d="M92.5039 12.1345
L92.6248 12.1949
" />
<path d="M92.6248 12.1949
L92.6853 12.2554
" />
<path d="M92.6853 12.2554
L92.7458 12.3764
" />
<path d="M92.7458 12.3764
L92.7458 12.7392
" />
<path d="M92.7458 12.7392
L92.6853 12.8602
" />
<path d="M92.6853 12.8602
L92.6248 12.9207
" />
<path d="M92.6248 12.9207
L92.5039 12.9811
" />
<path d="M92.5039 12.9811
L92.2620 12.9811
" />
<path d="M92.2620 12.9811
L92.1410 12.9207
" />
<path d="M93.8343 12.9811
L93.8343 11.7111
" />
<path d="M93.8343 12.9207
L93.7134 12.9811
" />
<path d="M93.7134 12.9811
L93.4715 12.9811
" />
<path d="M93.4715 12.9811
L93.3505 12.9207
" />
<path d="M93.3505 12.9207
L93.2900 12.8602
" />
<path d="M93.2900 12.8602
L93.2296 12.7392
" />
<path d="M93.2296 12.7392
L93.2296 12.3764
" />
<path d="M93.2296 12.3764
L93.2900 12.2554
" />
<path d="M93.2900 12.2554
L93.3505 12.1949
" />
<path d="M93.3505 12.1949
L93.4715 12.1345
" />
<path d="M93.4715 12.1345
L93.7134 12.1345
" />
<path d="M93.7134 12.1345
L93.8343 12.1949
" />
<path d="M94.2576 12.1345
L94.7414 12.1345
" />
<path d="M94.4390 12.9811
L94.4390 11.8926
" />
<path d="M94.4390 11.8926
L94.4995 11.7716
" />
<path d="M94.4995 11.7716
L94.6205 11.7111
" />
<path d="M94.6205 11.7111
L94.7414 11.7111
" />
</g></g> 
</svg>
