<?xml version="1.0" standalone="no"?>
 <!DOCTYPE svg PUBLIC "-//W3C//DTD SVG 1.1//EN" 
 "http://www.w3.org/Graphics/SVG/1.1/DTD/svg11.dtd"> 
<svg
  xmlns:svg="http://www.w3.org/2000/svg"
  xmlns="http://www.w3.org/2000/svg"
  xmlns:xlink="http://www.w3.org/1999/xlink"
  version="1.1"
  width="76.1746mm" height="69.5198mm" viewBox="0.0000 0.0000 76.1746 69.5198">
<title>SVG Image created as working.svg date 2023/08/18 20:19:46 </title>
  <desc>Image generated by Eeschema-SVG </desc>
<g style="fill:#000000; fill-opacity:1.0000;stroke:#000000; stroke-opacity:1.0000;
stroke-linecap:round; stroke-linejoin:round;"
 transform="translate(0 0) scale(1 1)">
</g>
<g style="fill:#840000; fill-opacity:0.0; 
stroke:#840000; stroke-width:0.0000; stroke-opacity:1; 
stroke-linecap:round; stroke-linejoin:round;">
</g>
<g style="fill:#840084; fill-opacity:0.0; 
stroke:#840084; stroke-width:0.0000; stroke-opacity:1; 
stroke-linecap:round; stroke-linejoin:round;">
</g>
<g style="fill:#840000; fill-opacity:0.0; 
stroke:#840000; stroke-width:0.0000; stroke-opacity:1; 
stroke-linecap:round; stroke-linejoin:round;">
</g>
<g style="fill:#840084; fill-opacity:0.0; 
stroke:#840084; stroke-width:0.0000; stroke-opacity:1; 
stroke-linecap:round; stroke-linejoin:round;">
</g>
<g style="fill:#006464; fill-opacity:0.0; 
stroke:#006464; stroke-width:0.0000; stroke-opacity:1; 
stroke-linecap:round; stroke-linejoin:round;">
</g>
<g style="fill:#006464; fill-opacity:0.0; 
stroke:#006464; stroke-width:0.1588; stroke-opacity:1; 
stroke-linecap:round; stroke-linejoin:round;">
<text x="12.6880" y="7.4489"
textLength="2.6415" font-size="1.6933" lengthAdjust="spacingAndGlyphs"
text-anchor="middle" opacity="0">U?</text>
<g class="stroked-text"><desc>U?</desc>
<path d="M11.7808 6.1231
L11.7808 7.1512
" />
<path d="M11.7808 7.1512
L11.8413 7.2722
" />
<path d="M11.8413 7.2722
L11.9018 7.3327
" />
<path d="M11.9018 7.3327
L12.0227 7.3931
" />
<path d="M12.0227 7.3931
L12.2646 7.3931
" />
<path d="M12.2646 7.3931
L12.3856 7.3327
" />
<path d="M12.3856 7.3327
L12.4461 7.2722
" />
<path d="M12.4461 7.2722
L12.5065 7.1512
" />
<path d="M12.5065 7.1512
L12.5065 6.1231
" />
<path d="M13.2928 7.2722
L13.3532 7.3327
" />
<path d="M13.3532 7.3327
L13.2928 7.3931
" />
<path d="M13.2928 7.3931
L13.2323 7.3327
" />
<path d="M13.2323 7.3327
L13.2928 7.2722
" />
<path d="M13.2928 7.2722
L13.2928 7.3931
" />
<path d="M13.0509 6.1836
L13.1718 6.1231
" />
<path d="M13.1718 6.1231
L13.4742 6.1231
" />
<path d="M13.4742 6.1231
L13.5951 6.1836
" />
<path d="M13.5951 6.1836
L13.6556 6.3046
" />
<path d="M13.6556 6.3046
L13.6556 6.4255
" />
<path d="M13.6556 6.4255
L13.5951 6.5465
" />
<path d="M13.5951 6.5465
L13.5347 6.6069
" />
<path d="M13.5347 6.6069
L13.4137 6.6674
" />
<path d="M13.4137 6.6674
L13.3532 6.7279
" />
<path d="M13.3532 6.7279
L13.2928 6.8488
" />
<path d="M13.2928 6.8488
L13.2928 6.9093
" />
</g><text x="54.5980" y="63.3289"
textLength="17.4581" font-size="1.6933" lengthAdjust="spacingAndGlyphs"
text-anchor="middle" opacity="0">PIC18LF2331-ISO</text>
<g class="stroked-text"><desc>PIC18LF2331-ISO</desc>
<path d="M46.2825 63.2731
L46.2825 62.0031
" />
<path d="M46.2825 62.0031
L46.7663 62.0031
" />
<path d="M46.7663 62.0031
L46.8873 62.0636
" />
<path d="M46.8873 62.0636
L46.9478 62.1241
" />
<path d="M46.9478 62.1241
L47.0082 62.2450
" />
<path d="M47.0082 62.2450
L47.0082 62.4265
" />
<path d="M47.0082 62.4265
L46.9478 62.5474
" />
<path d="M46.9478 62.5474
L46.8873 62.6079
" />
<path d="M46.8873 62.6079
L46.7663 62.6684
" />
<path d="M46.7663 62.6684
L46.2825 62.6684
" />
<path d="M47.5525 63.2731
L47.5525 62.0031
" />
<path d="M48.8830 63.1522
L48.8226 63.2127
" />
<path d="M48.8226 63.2127
L48.6411 63.2731
" />
<path d="M48.6411 63.2731
L48.5202 63.2731
" />
<path d="M48.5202 63.2731
L48.3388 63.2127
" />
<path d="M48.3388 63.2127
L48.2178 63.0917
" />
<path d="M48.2178 63.0917
L48.1573 62.9707
" />
<path d="M48.1573 62.9707
L48.0969 62.7288
" />
<path d="M48.0969 62.7288
L48.0969 62.5474
" />
<path d="M48.0969 62.5474
L48.1573 62.3055
" />
<path d="M48.1573 62.3055
L48.2178 62.1846
" />
<path d="M48.2178 62.1846
L48.3388 62.0636
" />
<path d="M48.3388 62.0636
L48.5202 62.0031
" />
<path d="M48.5202 62.0031
L48.6411 62.0031
" />
<path d="M48.6411 62.0031
L48.8226 62.0636
" />
<path d="M48.8226 62.0636
L48.8830 62.1241
" />
<path d="M50.0926 63.2731
L49.3669 63.2731
" />
<path d="M49.7297 63.2731
L49.7297 62.0031
" />
<path d="M49.7297 62.0031
L49.6088 62.1846
" />
<path d="M49.6088 62.1846
L49.4878 62.3055
" />
<path d="M49.4878 62.3055
L49.3669 62.3660
" />
<path d="M50.8183 62.5474
L50.6973 62.4869
" />
<path d="M50.6973 62.4869
L50.6368 62.4265
" />
<path d="M50.6368 62.4265
L50.5764 62.3055
" />
<path d="M50.5764 62.3055
L50.5764 62.2450
" />
<path d="M50.5764 62.2450
L50.6368 62.1241
" />
<path d="M50.6368 62.1241
L50.6973 62.0636
" />
<path d="M50.6973 62.0636
L50.8183 62.0031
" />
<path d="M50.8183 62.0031
L51.0602 62.0031
" />
<path d="M51.0602 62.0031
L51.1811 62.0636
" />
<path d="M51.1811 62.0636
L51.2416 62.1241
" />
<path d="M51.2416 62.1241
L51.3021 62.2450
" />
<path d="M51.3021 62.2450
L51.3021 62.3055
" />
<path d="M51.3021 62.3055
L51.2416 62.4265
" />
<path d="M51.2416 62.4265
L51.1811 62.4869
" />
<path d="M51.1811 62.4869
L51.0602 62.5474
" />
<path d="M51.0602 62.5474
L50.8183 62.5474
" />
<path d="M50.8183 62.5474
L50.6973 62.6079
" />
<path d="M50.6973 62.6079
L50.6368 62.6684
" />
<path d="M50.6368 62.6684
L50.5764 62.7893
" />
<path d="M50.5764 62.7893
L50.5764 63.0312
" />
<path d="M50.5764 63.0312
L50.6368 63.1522
" />
<path d="M50.6368 63.1522
L50.6973 63.2127
" />
<path d="M50.6973 63.2127
L50.8183 63.2731
" />
<path d="M50.8183 63.2731
L51.0602 63.2731
" />
<path d="M51.0602 63.2731
L51.1811 63.2127
" />
<path d="M51.1811 63.2127
L51.2416 63.1522
" />
<path d="M51.2416 63.1522
L51.3021 63.0312
" />
<path d="M51.3021 63.0312
L51.3021 62.7893
" />
<path d="M51.3021 62.7893
L51.2416 62.6684
" />
<path d="M51.2416 62.6684
L51.1811 62.6079
" />
<path d="M51.1811 62.6079
L51.0602 62.5474
" />
<path d="M52.4511 63.2731
L51.8463 63.2731
" />
<path d="M51.8463 63.2731
L51.8463 62.0031
" />
<path d="M53.2978 62.6079
L52.8744 62.6079
" />
<path d="M52.8744 63.2731
L52.8744 62.0031
" />
<path d="M52.8744 62.0031
L53.4792 62.0031
" />
<path d="M53.9026 62.1241
L53.9630 62.0636
" />
<path d="M53.9630 62.0636
L54.0840 62.0031
" />
<path d="M54.0840 62.0031
L54.3864 62.0031
" />
<path d="M54.3864 62.0031
L54.5073 62.0636
" />
<path d="M54.5073 62.0636
L54.5678 62.1241
" />
<path d="M54.5678 62.1241
L54.6283 62.2450
" />
<path d="M54.6283 62.2450
L54.6283 62.3660
" />
<path d="M54.6283 62.3660
L54.5678 62.5474
" />
<path d="M54.5678 62.5474
L53.8421 63.2731
" />
<path d="M53.8421 63.2731
L54.6283 63.2731
" />
<path d="M55.0516 62.0031
L55.8378 62.0031
" />
<path d="M55.8378 62.0031
L55.4144 62.4869
" />
<path d="M55.4144 62.4869
L55.5959 62.4869
" />
<path d="M55.5959 62.4869
L55.7168 62.5474
" />
<path d="M55.7168 62.5474
L55.7773 62.6079
" />
<path d="M55.7773 62.6079
L55.8378 62.7288
" />
<path d="M55.8378 62.7288
L55.8378 63.0312
" />
<path d="M55.8378 63.0312
L55.7773 63.1522
" />
<path d="M55.7773 63.1522
L55.7168 63.2127
" />
<path d="M55.7168 63.2127
L55.5959 63.2731
" />
<path d="M55.5959 63.2731
L55.2330 63.2731
" />
<path d="M55.2330 63.2731
L55.1121 63.2127
" />
<path d="M55.1121 63.2127
L55.0516 63.1522
" />
<path d="M56.2611 62.0031
L57.0473 62.0031
" />
<path d="M57.0473 62.0031
L56.6239 62.4869
" />
<path d="M56.6239 62.4869
L56.8054 62.4869
" />
<path d="M56.8054 62.4869
L56.9263 62.5474
" />
<path d="M56.9263 62.5474
L56.9868 62.6079
" />
<path d="M56.9868 62.6079
L57.0473 62.7288
" />
<path d="M57.0473 62.7288
L57.0473 63.0312
" />
<path d="M57.0473 63.0312
L56.9868 63.1522
" />
<path d="M56.9868 63.1522
L56.9263 63.2127
" />
<path d="M56.9263 63.2127
L56.8054 63.2731
" />
<path d="M56.8054 63.2731
L56.4425 63.2731
" />
<path d="M56.4425 63.2731
L56.3216 63.2127
" />
<path d="M56.3216 63.2127
L56.2611 63.1522
" />
<path d="M58.2568 63.2731
L57.5311 63.2731
" />
<path d="M57.8939 63.2731
L57.8939 62.0031
" />
<path d="M57.8939 62.0031
L57.7730 62.1846
" />
<path d="M57.7730 62.1846
L57.6520 62.3055
" />
<path d="M57.6520 62.3055
L57.5311 62.3660
" />
<path d="M58.8010 62.7893
L59.7687 62.7893
" />
<path d="M60.3734 63.2731
L60.3734 62.0031
" />
<path d="M60.9178 63.2127
L61.0992 63.2731
" />
<path d="M61.0992 63.2731
L61.4016 63.2731
" />
<path d="M61.4016 63.2731
L61.5225 63.2127
" />
<path d="M61.5225 63.2127
L61.5830 63.1522
" />
<path d="M61.5830 63.1522
L61.6435 63.0312
" />
<path d="M61.6435 63.0312
L61.6435 62.9103
" />
<path d="M61.6435 62.9103
L61.5830 62.7893
" />
<path d="M61.5830 62.7893
L61.5225 62.7288
" />
<path d="M61.5225 62.7288
L61.4016 62.6684
" />
<path d="M61.4016 62.6684
L61.1597 62.6079
" />
<path d="M61.1597 62.6079
L61.0387 62.5474
" />
<path d="M61.0387 62.5474
L60.9782 62.4869
" />
<path d="M60.9782 62.4869
L60.9178 62.3660
" />
<path d="M60.9178 62.3660
L60.9178 62.2450
" />
<path d="M60.9178 62.2450
L60.9782 62.1241
" />
<path d="M60.9782 62.1241
L61.0387 62.0636
" />
<path d="M61.0387 62.0636
L61.1597 62.0031
" />
<path d="M61.1597 62.0031
L61.4620 62.0031
" />
<path d="M61.4620 62.0031
L61.6435 62.0636
" />
<path d="M62.4296 62.0031
L62.6715 62.0031
" />
<path d="M62.6715 62.0031
L62.7925 62.0636
" />
<path d="M62.7925 62.0636
L62.9134 62.1846
" />
<path d="M62.9134 62.1846
L62.9739 62.4265
" />
<path d="M62.9739 62.4265
L62.9739 62.8498
" />
<path d="M62.9739 62.8498
L62.9134 63.0917
" />
<path d="M62.9134 63.0917
L62.7925 63.2127
" />
<path d="M62.7925 63.2127
L62.6715 63.2731
" />
<path d="M62.6715 63.2731
L62.4296 63.2731
" />
<path d="M62.4296 63.2731
L62.3087 63.2127
" />
<path d="M62.3087 63.2127
L62.1877 63.0917
" />
<path d="M62.1877 63.0917
L62.1273 62.8498
" />
<path d="M62.1273 62.8498
L62.1273 62.4265
" />
<path d="M62.1273 62.4265
L62.1877 62.1846
" />
<path d="M62.1877 62.1846
L62.3087 62.0636
" />
<path d="M62.3087 62.0636
L62.4296 62.0031
" />
</g></g>
<g style="fill:#840084; fill-opacity:0.0; 
stroke:#840084; stroke-width:0.1588; stroke-opacity:1; 
stroke-linecap:round; stroke-linejoin:round;">
<text x="38.1674" y="35.3889"
textLength="44.6116" font-size="1.6933" lengthAdjust="spacingAndGlyphs"
text-anchor="middle" opacity="0">Package_SO:SOIC-28W_7.5x17.9mm_P1.27mm</text>
<g class="stroked-text"><desc>Package_SO:SOIC-28W_7.5x17.9mm_P1.27mm</desc>
<path d="M16.2676 35.3331
L16.4263 34.0631
" />
<path d="M16.4263 34.0631
L16.9101 34.0631
" />
<path d="M16.9101 34.0631
L17.0235 34.1236
" />
<path d="M17.0235 34.1236
L17.0764 34.1841
" />
<path d="M17.0764 34.1841
L17.1218 34.3050
" />
<path d="M17.1218 34.3050
L17.0991 34.4865
" />
<path d="M17.0991 34.4865
L17.0235 34.6074
" />
<path d="M17.0235 34.6074
L16.9555 34.6679
" />
<path d="M16.9555 34.6679
L16.8270 34.7284
" />
<path d="M16.8270 34.7284
L16.3432 34.7284
" />
<path d="M18.0819 35.3331
L18.1650 34.6679
" />
<path d="M18.1650 34.6679
L18.1197 34.5469
" />
<path d="M18.1197 34.5469
L18.0063 34.4865
" />
<path d="M18.0063 34.4865
L17.7644 34.4865
" />
<path d="M17.7644 34.4865
L17.6358 34.5469
" />
<path d="M18.0894 35.2727
L17.9609 35.3331
" />
<path d="M17.9609 35.3331
L17.6585 35.3331
" />
<path d="M17.6585 35.3331
L17.5451 35.2727
" />
<path d="M17.5451 35.2727
L17.4998 35.1517
" />
<path d="M17.4998 35.1517
L17.5149 35.0307
" />
<path d="M17.5149 35.0307
L17.5905 34.9098
" />
<path d="M17.5905 34.9098
L17.7190 34.8493
" />
<path d="M17.7190 34.8493
L18.0214 34.8493
" />
<path d="M18.0214 34.8493
L18.1499 34.7888
" />
<path d="M19.2384 35.2727
L19.1099 35.3331
" />
<path d="M19.1099 35.3331
L18.8680 35.3331
" />
<path d="M18.8680 35.3331
L18.7546 35.2727
" />
<path d="M18.7546 35.2727
L18.7017 35.2122
" />
<path d="M18.7017 35.2122
L18.6563 35.0912
" />
<path d="M18.6563 35.0912
L18.7017 34.7284
" />
<path d="M18.7017 34.7284
L18.7773 34.6074
" />
<path d="M18.7773 34.6074
L18.8453 34.5469
" />
<path d="M18.8453 34.5469
L18.9738 34.4865
" />
<path d="M18.9738 34.4865
L19.2157 34.4865
" />
<path d="M19.2157 34.4865
L19.3291 34.5469
" />
<path d="M19.7752 35.3331
L19.9339 34.0631
" />
<path d="M19.9566 34.8493
L20.2590 35.3331
" />
<path d="M20.3648 34.4865
L19.8205 34.9703
" />
<path d="M21.3476 35.3331
L21.4307 34.6679
" />
<path d="M21.4307 34.6679
L21.3854 34.5469
" />
<path d="M21.3854 34.5469
L21.2720 34.4865
" />
<path d="M21.2720 34.4865
L21.0301 34.4865
" />
<path d="M21.0301 34.4865
L20.9015 34.5469
" />
<path d="M21.3551 35.2727
L21.2266 35.3331
" />
<path d="M21.2266 35.3331
L20.9242 35.3331
" />
<path d="M20.9242 35.3331
L20.8108 35.2727
" />
<path d="M20.8108 35.2727
L20.7655 35.1517
" />
<path d="M20.7655 35.1517
L20.7806 35.0307
" />
<path d="M20.7806 35.0307
L20.8562 34.9098
" />
<path d="M20.8562 34.9098
L20.9847 34.8493
" />
<path d="M20.9847 34.8493
L21.2871 34.8493
" />
<path d="M21.2871 34.8493
L21.4156 34.7888
" />
<path d="M22.6024 34.4865
L22.4739 35.5146
" />
<path d="M22.4739 35.5146
L22.3983 35.6355
" />
<path d="M22.3983 35.6355
L22.3302 35.6960
" />
<path d="M22.3302 35.6960
L22.2017 35.7565
" />
<path d="M22.2017 35.7565
L22.0203 35.7565
" />
<path d="M22.0203 35.7565
L21.9069 35.6960
" />
<path d="M22.5041 35.2727
L22.3756 35.3331
" />
<path d="M22.3756 35.3331
L22.1337 35.3331
" />
<path d="M22.1337 35.3331
L22.0203 35.2727
" />
<path d="M22.0203 35.2727
L21.9674 35.2122
" />
<path d="M21.9674 35.2122
L21.9220 35.0912
" />
<path d="M21.9220 35.0912
L21.9674 34.7284
" />
<path d="M21.9674 34.7284
L22.0430 34.6074
" />
<path d="M22.0430 34.6074
L22.1110 34.5469
" />
<path d="M22.1110 34.5469
L22.2395 34.4865
" />
<path d="M22.2395 34.4865
L22.4814 34.4865
" />
<path d="M22.4814 34.4865
L22.5948 34.5469
" />
<path d="M23.5926 35.2727
L23.4641 35.3331
" />
<path d="M23.4641 35.3331
L23.2222 35.3331
" />
<path d="M23.2222 35.3331
L23.1088 35.2727
" />
<path d="M23.1088 35.2727
L23.0635 35.1517
" />
<path d="M23.0635 35.1517
L23.1240 34.6679
" />
<path d="M23.1240 34.6679
L23.1995 34.5469
" />
<path d="M23.1995 34.5469
L23.3281 34.4865
" />
<path d="M23.3281 34.4865
L23.5700 34.4865
" />
<path d="M23.5700 34.4865
L23.6834 34.5469
" />
<path d="M23.6834 34.5469
L23.7287 34.6679
" />
<path d="M23.7287 34.6679
L23.7136 34.7888
" />
<path d="M23.7136 34.7888
L23.0937 34.9098
" />
<path d="M23.8724 35.4541
L24.8400 35.4541
" />
<path d="M25.1046 35.2727
L25.2784 35.3331
" />
<path d="M25.2784 35.3331
L25.5808 35.3331
" />
<path d="M25.5808 35.3331
L25.7093 35.2727
" />
<path d="M25.7093 35.2727
L25.7774 35.2122
" />
<path d="M25.7774 35.2122
L25.8529 35.0912
" />
<path d="M25.8529 35.0912
L25.8681 34.9703
" />
<path d="M25.8681 34.9703
L25.8227 34.8493
" />
<path d="M25.8227 34.8493
L25.7698 34.7888
" />
<path d="M25.7698 34.7888
L25.6564 34.7284
" />
<path d="M25.6564 34.7284
L25.4221 34.6679
" />
<path d="M25.4221 34.6679
L25.3087 34.6074
" />
<path d="M25.3087 34.6074
L25.2557 34.5469
" />
<path d="M25.2557 34.5469
L25.2104 34.4260
" />
<path d="M25.2104 34.4260
L25.2255 34.3050
" />
<path d="M25.2255 34.3050
L25.3011 34.1841
" />
<path d="M25.3011 34.1841
L25.3691 34.1236
" />
<path d="M25.3691 34.1236
L25.4977 34.0631
" />
<path d="M25.4977 34.0631
L25.8000 34.0631
" />
<path d="M25.8000 34.0631
L25.9739 34.1236
" />
<path d="M26.7676 34.0631
L27.0095 34.0631
" />
<path d="M27.0095 34.0631
L27.1229 34.1236
" />
<path d="M27.1229 34.1236
L27.2288 34.2446
" />
<path d="M27.2288 34.2446
L27.2590 34.4865
" />
<path d="M27.2590 34.4865
L27.2061 34.9098
" />
<path d="M27.2061 34.9098
L27.1154 35.1517
" />
<path d="M27.1154 35.1517
L26.9793 35.2727
" />
<path d="M26.9793 35.2727
L26.8508 35.3331
" />
<path d="M26.8508 35.3331
L26.6089 35.3331
" />
<path d="M26.6089 35.3331
L26.4955 35.2727
" />
<path d="M26.4955 35.2727
L26.3897 35.1517
" />
<path d="M26.3897 35.1517
L26.3594 34.9098
" />
<path d="M26.3594 34.9098
L26.4123 34.4865
" />
<path d="M26.4123 34.4865
L26.5030 34.2446
" />
<path d="M26.5030 34.2446
L26.6391 34.1236
" />
<path d="M26.6391 34.1236
L26.7676 34.0631
" />
<path d="M27.7126 35.2122
L27.7655 35.2727
" />
<path d="M27.7655 35.2727
L27.6975 35.3331
" />
<path d="M27.6975 35.3331
L27.6446 35.2727
" />
<path d="M27.6446 35.2727
L27.7126 35.2122
" />
<path d="M27.7126 35.2122
L27.6975 35.3331
" />
<path d="M27.7957 34.5469
L27.8487 34.6074
" />
<path d="M27.8487 34.6074
L27.7806 34.6679
" />
<path d="M27.7806 34.6679
L27.7277 34.6074
" />
<path d="M27.7277 34.6074
L27.7957 34.5469
" />
<path d="M27.7957 34.5469
L27.7806 34.6679
" />
<path d="M28.2494 35.2727
L28.4232 35.3331
" />
<path d="M28.4232 35.3331
L28.7256 35.3331
" />
<path d="M28.7256 35.3331
L28.8541 35.2727
" />
<path d="M28.8541 35.2727
L28.9222 35.2122
" />
<path d="M28.9222 35.2122
L28.9977 35.0912
" />
<path d="M28.9977 35.0912
L29.0129 34.9703
" />
<path d="M29.0129 34.9703
L28.9675 34.8493
" />
<path d="M28.9675 34.8493
L28.9146 34.7888
" />
<path d="M28.9146 34.7888
L28.8012 34.7284
" />
<path d="M28.8012 34.7284
L28.5669 34.6679
" />
<path d="M28.5669 34.6679
L28.4535 34.6074
" />
<path d="M28.4535 34.6074
L28.4005 34.5469
" />
<path d="M28.4005 34.5469
L28.3552 34.4260
" />
<path d="M28.3552 34.4260
L28.3703 34.3050
" />
<path d="M28.3703 34.3050
L28.4459 34.1841
" />
<path d="M28.4459 34.1841
L28.5139 34.1236
" />
<path d="M28.5139 34.1236
L28.6425 34.0631
" />
<path d="M28.6425 34.0631
L28.9448 34.0631
" />
<path d="M28.9448 34.0631
L29.1187 34.1236
" />
<path d="M29.9124 34.0631
L30.1543 34.0631
" />
<path d="M30.1543 34.0631
L30.2677 34.1236
" />
<path d="M30.2677 34.1236
L30.3736 34.2446
" />
<path d="M30.3736 34.2446
L30.4038 34.4865
" />
<path d="M30.4038 34.4865
L30.3509 34.9098
" />
<path d="M30.3509 34.9098
L30.2602 35.1517
" />
<path d="M30.2602 35.1517
L30.1241 35.2727
" />
<path d="M30.1241 35.2727
L29.9956 35.3331
" />
<path d="M29.9956 35.3331
L29.7537 35.3331
" />
<path d="M29.7537 35.3331
L29.6403 35.2727
" />
<path d="M29.6403 35.2727
L29.5345 35.1517
" />
<path d="M29.5345 35.1517
L29.5042 34.9098
" />
<path d="M29.5042 34.9098
L29.5571 34.4865
" />
<path d="M29.5571 34.4865
L29.6478 34.2446
" />
<path d="M29.6478 34.2446
L29.7839 34.1236
" />
<path d="M29.7839 34.1236
L29.9124 34.0631
" />
<path d="M30.8423 35.3331
L31.0010 34.0631
" />
<path d="M32.1879 35.2122
L32.1199 35.2727
" />
<path d="M32.1199 35.2727
L31.9309 35.3331
" />
<path d="M31.9309 35.3331
L31.8099 35.3331
" />
<path d="M31.8099 35.3331
L31.6361 35.2727
" />
<path d="M31.6361 35.2727
L31.5302 35.1517
" />
<path d="M31.5302 35.1517
L31.4849 35.0307
" />
<path d="M31.4849 35.0307
L31.4546 34.7888
" />
<path d="M31.4546 34.7888
L31.4773 34.6074
" />
<path d="M31.4773 34.6074
L31.5680 34.3655
" />
<path d="M31.5680 34.3655
L31.6436 34.2446
" />
<path d="M31.6436 34.2446
L31.7797 34.1236
" />
<path d="M31.7797 34.1236
L31.9687 34.0631
" />
<path d="M31.9687 34.0631
L32.0896 34.0631
" />
<path d="M32.0896 34.0631
L32.2635 34.1236
" />
<path d="M32.2635 34.1236
L32.3164 34.1841
" />
<path d="M32.7775 34.8493
L33.7452 34.8493
" />
<path d="M34.3726 34.1841
L34.4407 34.1236
" />
<path d="M34.4407 34.1236
L34.5692 34.0631
" />
<path d="M34.5692 34.0631
L34.8716 34.0631
" />
<path d="M34.8716 34.0631
L34.9849 34.1236
" />
<path d="M34.9849 34.1236
L35.0379 34.1841
" />
<path d="M35.0379 34.1841
L35.0832 34.3050
" />
<path d="M35.0832 34.3050
L35.0681 34.4260
" />
<path d="M35.0681 34.4260
L34.9849 34.6074
" />
<path d="M34.9849 34.6074
L34.1685 35.3331
" />
<path d="M34.1685 35.3331
L34.9547 35.3331
" />
<path d="M35.7711 34.6074
L35.6577 34.5469
" />
<path d="M35.6577 34.5469
L35.6048 34.4865
" />
<path d="M35.6048 34.4865
L35.5594 34.3655
" />
<path d="M35.5594 34.3655
L35.5670 34.3050
" />
<path d="M35.5670 34.3050
L35.6426 34.1841
" />
<path d="M35.6426 34.1841
L35.7106 34.1236
" />
<path d="M35.7106 34.1236
L35.8392 34.0631
" />
<path d="M35.8392 34.0631
L36.0811 34.0631
" />
<path d="M36.0811 34.0631
L36.1944 34.1236
" />
<path d="M36.1944 34.1236
L36.2474 34.1841
" />
<path d="M36.2474 34.1841
L36.2927 34.3050
" />
<path d="M36.2927 34.3050
L36.2852 34.3655
" />
<path d="M36.2852 34.3655
L36.2096 34.4865
" />
<path d="M36.2096 34.4865
L36.1415 34.5469
" />
<path d="M36.1415 34.5469
L36.0130 34.6074
" />
<path d="M36.0130 34.6074
L35.7711 34.6074
" />
<path d="M35.7711 34.6074
L35.6426 34.6679
" />
<path d="M35.6426 34.6679
L35.5746 34.7284
" />
<path d="M35.5746 34.7284
L35.4990 34.8493
" />
<path d="M35.4990 34.8493
L35.4687 35.0912
" />
<path d="M35.4687 35.0912
L35.5141 35.2122
" />
<path d="M35.5141 35.2122
L35.5670 35.2727
" />
<path d="M35.5670 35.2727
L35.6804 35.3331
" />
<path d="M35.6804 35.3331
L35.9223 35.3331
" />
<path d="M35.9223 35.3331
L36.0508 35.2727
" />
<path d="M36.0508 35.2727
L36.1189 35.2122
" />
<path d="M36.1189 35.2122
L36.1944 35.0912
" />
<path d="M36.1944 35.0912
L36.2247 34.8493
" />
<path d="M36.2247 34.8493
L36.1793 34.7284
" />
<path d="M36.1793 34.7284
L36.1264 34.6679
" />
<path d="M36.1264 34.6679
L36.0130 34.6074
" />
<path d="M36.7463 34.0631
L36.8899 35.3331
" />
<path d="M36.8899 35.3331
L37.2452 34.4260
" />
<path d="M37.2452 34.4260
L37.3737 35.3331
" />
<path d="M37.3737 35.3331
L37.8348 34.0631
" />
<path d="M37.8424 35.4541
L38.8100 35.4541
" />
<path d="M39.1653 34.0631
L40.0119 34.0631
" />
<path d="M40.0119 34.0631
L39.3089 35.3331
" />
<path d="M40.3521 35.2122
L40.4050 35.2727
" />
<path d="M40.4050 35.2727
L40.3370 35.3331
" />
<path d="M40.3370 35.3331
L40.2841 35.2727
" />
<path d="M40.2841 35.2727
L40.3521 35.2122
" />
<path d="M40.3521 35.2122
L40.3370 35.3331
" />
<path d="M41.7053 34.0631
L41.1005 34.0631
" />
<path d="M41.1005 34.0631
L40.9645 34.6679
" />
<path d="M40.9645 34.6679
L41.0325 34.6074
" />
<path d="M41.0325 34.6074
L41.1610 34.5469
" />
<path d="M41.1610 34.5469
L41.4634 34.5469
" />
<path d="M41.4634 34.5469
L41.5768 34.6074
" />
<path d="M41.5768 34.6074
L41.6297 34.6679
" />
<path d="M41.6297 34.6679
L41.6750 34.7888
" />
<path d="M41.6750 34.7888
L41.6372 35.0912
" />
<path d="M41.6372 35.0912
L41.5617 35.2122
" />
<path d="M41.5617 35.2122
L41.4936 35.2727
" />
<path d="M41.4936 35.2727
L41.3651 35.3331
" />
<path d="M41.3651 35.3331
L41.0627 35.3331
" />
<path d="M41.0627 35.3331
L40.9493 35.2727
" />
<path d="M40.9493 35.2727
L40.8964 35.2122
" />
<path d="M42.0303 35.3331
L42.8014 34.4865
" />
<path d="M42.1362 34.4865
L42.6956 35.3331
" />
<path d="M43.8446 35.3331
L43.1189 35.3331
" />
<path d="M43.4818 35.3331
L43.6405 34.0631
" />
<path d="M43.6405 34.0631
L43.4969 34.2446
" />
<path d="M43.4969 34.2446
L43.3608 34.3655
" />
<path d="M43.3608 34.3655
L43.2323 34.4260
" />
<path d="M44.4267 34.0631
L45.2733 34.0631
" />
<path d="M45.2733 34.0631
L44.5703 35.3331
" />
<path d="M45.6135 35.2122
L45.6664 35.2727
" />
<path d="M45.6664 35.2727
L45.5984 35.3331
" />
<path d="M45.5984 35.3331
L45.5455 35.2727
" />
<path d="M45.5455 35.2727
L45.6135 35.2122
" />
<path d="M45.6135 35.2122
L45.5984 35.3331
" />
<path d="M46.2636 35.3331
L46.5056 35.3331
" />
<path d="M46.5056 35.3331
L46.6341 35.2727
" />
<path d="M46.6341 35.2727
L46.7021 35.2122
" />
<path d="M46.7021 35.2122
L46.8457 35.0307
" />
<path d="M46.8457 35.0307
L46.9364 34.7888
" />
<path d="M46.9364 34.7888
L46.9969 34.3050
" />
<path d="M46.9969 34.3050
L46.9516 34.1841
" />
<path d="M46.9516 34.1841
L46.8986 34.1236
" />
<path d="M46.8986 34.1236
L46.7853 34.0631
" />
<path d="M46.7853 34.0631
L46.5434 34.0631
" />
<path d="M46.5434 34.0631
L46.4148 34.1236
" />
<path d="M46.4148 34.1236
L46.3468 34.1841
" />
<path d="M46.3468 34.1841
L46.2712 34.3050
" />
<path d="M46.2712 34.3050
L46.2334 34.6074
" />
<path d="M46.2334 34.6074
L46.2788 34.7284
" />
<path d="M46.2788 34.7284
L46.3317 34.7888
" />
<path d="M46.3317 34.7888
L46.4451 34.8493
" />
<path d="M46.4451 34.8493
L46.6870 34.8493
" />
<path d="M46.6870 34.8493
L46.8155 34.7888
" />
<path d="M46.8155 34.7888
L46.8835 34.7284
" />
<path d="M46.8835 34.7284
L46.9591 34.6074
" />
<path d="M47.4127 35.3331
L47.5185 34.4865
" />
<path d="M47.5034 34.6074
L47.5714 34.5469
" />
<path d="M47.5714 34.5469
L47.6999 34.4865
" />
<path d="M47.6999 34.4865
L47.8814 34.4865
" />
<path d="M47.8814 34.4865
L47.9948 34.5469
" />
<path d="M47.9948 34.5469
L48.0401 34.6679
" />
<path d="M48.0401 34.6679
L47.9570 35.3331
" />
<path d="M48.0401 34.6679
L48.1157 34.5469
" />
<path d="M48.1157 34.5469
L48.2442 34.4865
" />
<path d="M48.2442 34.4865
L48.4256 34.4865
" />
<path d="M48.4256 34.4865
L48.5390 34.5469
" />
<path d="M48.5390 34.5469
L48.5844 34.6679
" />
<path d="M48.5844 34.6679
L48.5012 35.3331
" />
<path d="M49.1060 35.3331
L49.2118 34.4865
" />
<path d="M49.1967 34.6074
L49.2647 34.5469
" />
<path d="M49.2647 34.5469
L49.3932 34.4865
" />
<path d="M49.3932 34.4865
L49.5747 34.4865
" />
<path d="M49.5747 34.4865
L49.6881 34.5469
" />
<path d="M49.6881 34.5469
L49.7334 34.6679
" />
<path d="M49.7334 34.6679
L49.6503 35.3331
" />
<path d="M49.7334 34.6679
L49.8090 34.5469
" />
<path d="M49.8090 34.5469
L49.9375 34.4865
" />
<path d="M49.9375 34.4865
L50.1189 34.4865
" />
<path d="M50.1189 34.4865
L50.2323 34.5469
" />
<path d="M50.2323 34.5469
L50.2777 34.6679
" />
<path d="M50.2777 34.6679
L50.1945 35.3331
" />
<path d="M50.4818 35.4541
L51.4494 35.4541
" />
<path d="M51.7669 35.3331
L51.9256 34.0631
" />
<path d="M51.9256 34.0631
L52.4094 34.0631
" />
<path d="M52.4094 34.0631
L52.5228 34.1236
" />
<path d="M52.5228 34.1236
L52.5757 34.1841
" />
<path d="M52.5757 34.1841
L52.6211 34.3050
" />
<path d="M52.6211 34.3050
L52.5984 34.4865
" />
<path d="M52.5984 34.4865
L52.5228 34.6074
" />
<path d="M52.5228 34.6074
L52.4548 34.6679
" />
<path d="M52.4548 34.6679
L52.3263 34.7284
" />
<path d="M52.3263 34.7284
L51.8425 34.7284
" />
<path d="M53.7021 35.3331
L52.9764 35.3331
" />
<path d="M53.3393 35.3331
L53.4980 34.0631
" />
<path d="M53.4980 34.0631
L53.3544 34.2446
" />
<path d="M53.3544 34.2446
L53.2183 34.3655
" />
<path d="M53.2183 34.3655
L53.0898 34.4260
" />
<path d="M54.2615 35.2122
L54.3144 35.2727
" />
<path d="M54.3144 35.2727
L54.2464 35.3331
" />
<path d="M54.2464 35.3331
L54.1935 35.2727
" />
<path d="M54.1935 35.2727
L54.2615 35.2122
" />
<path d="M54.2615 35.2122
L54.2464 35.3331
" />
<path d="M54.9343 34.1841
L55.0024 34.1236
" />
<path d="M55.0024 34.1236
L55.1309 34.0631
" />
<path d="M55.1309 34.0631
L55.4333 34.0631
" />
<path d="M55.4333 34.0631
L55.5466 34.1236
" />
<path d="M55.5466 34.1236
L55.5996 34.1841
" />
<path d="M55.5996 34.1841
L55.6449 34.3050
" />
<path d="M55.6449 34.3050
L55.6298 34.4260
" />
<path d="M55.6298 34.4260
L55.5466 34.6074
" />
<path d="M55.5466 34.6074
L54.7302 35.3331
" />
<path d="M54.7302 35.3331
L55.5164 35.3331
" />
<path d="M56.0985 34.0631
L56.9451 34.0631
" />
<path d="M56.9451 34.0631
L56.2421 35.3331
" />
<path d="M57.2702 35.3331
L57.3760 34.4865
" />
<path d="M57.3609 34.6074
L57.4289 34.5469
" />
<path d="M57.4289 34.5469
L57.5574 34.4865
" />
<path d="M57.5574 34.4865
L57.7389 34.4865
" />
<path d="M57.7389 34.4865
L57.8523 34.5469
" />
<path d="M57.8523 34.5469
L57.8976 34.6679
" />
<path d="M57.8976 34.6679
L57.8145 35.3331
" />
<path d="M57.8976 34.6679
L57.9732 34.5469
" />
<path d="M57.9732 34.5469
L58.1017 34.4865
" />
<path d="M58.1017 34.4865
L58.2831 34.4865
" />
<path d="M58.2831 34.4865
L58.3965 34.5469
" />
<path d="M58.3965 34.5469
L58.4419 34.6679
" />
<path d="M58.4419 34.6679
L58.3587 35.3331
" />
<path d="M58.9635 35.3331
L59.0693 34.4865
" />
<path d="M59.0542 34.6074
L59.1222 34.5469
" />
<path d="M59.1222 34.5469
L59.2507 34.4865
" />
<path d="M59.2507 34.4865
L59.4322 34.4865
" />
<path d="M59.4322 34.4865
L59.5456 34.5469
" />
<path d="M59.5456 34.5469
L59.5909 34.6679
" />
<path d="M59.5909 34.6679
L59.5078 35.3331
" />
<path d="M59.5909 34.6679
L59.6665 34.5469
" />
<path d="M59.6665 34.5469
L59.7950 34.4865
" />
<path d="M59.7950 34.4865
L59.9764 34.4865
" />
<path d="M59.9764 34.4865
L60.0898 34.5469
" />
<path d="M60.0898 34.5469
L60.1352 34.6679
" />
<path d="M60.1352 34.6679
L60.0520 35.3331
" />
</g><text x="38.0880" y="45.5489"
textLength="63.4801" font-size="1.6933" lengthAdjust="spacingAndGlyphs"
text-anchor="middle" opacity="0">http://ww1.microchip.com/downloads/en/DeviceDoc/39616d.pdf</text>
<g class="stroked-text"><desc>http://ww1.microchip.com/downloads/en/DeviceDoc/39616d.pdf</desc>
<path d="M6.7615 45.4931
L6.7615 44.2231
" />
<path d="M7.3058 45.4931
L7.3058 44.8279
" />
<path d="M7.3058 44.8279
L7.2453 44.7069
" />
<path d="M7.2453 44.7069
L7.1244 44.6465
" />
<path d="M7.1244 44.6465
L6.9430 44.6465
" />
<path d="M6.9430 44.6465
L6.8220 44.7069
" />
<path d="M6.8220 44.7069
L6.7615 44.7674
" />
<path d="M7.7291 44.6465
L8.2129 44.6465
" />
<path d="M7.9105 44.2231
L7.9105 45.3117
" />
<path d="M7.9105 45.3117
L7.9710 45.4327
" />
<path d="M7.9710 45.4327
L8.0920 45.4931
" />
<path d="M8.0920 45.4931
L8.2129 45.4931
" />
<path d="M8.4548 44.6465
L8.9386 44.6465
" />
<path d="M8.6362 44.2231
L8.6362 45.3117
" />
<path d="M8.6362 45.3117
L8.6967 45.4327
" />
<path d="M8.6967 45.4327
L8.8177 45.4931
" />
<path d="M8.8177 45.4931
L8.9386 45.4931
" />
<path d="M9.3619 44.6465
L9.3619 45.9165
" />
<path d="M9.3619 44.7069
L9.4829 44.6465
" />
<path d="M9.4829 44.6465
L9.7248 44.6465
" />
<path d="M9.7248 44.6465
L9.8457 44.7069
" />
<path d="M9.8457 44.7069
L9.9062 44.7674
" />
<path d="M9.9062 44.7674
L9.9667 44.8884
" />
<path d="M9.9667 44.8884
L9.9667 45.2512
" />
<path d="M9.9667 45.2512
L9.9062 45.3722
" />
<path d="M9.9062 45.3722
L9.8457 45.4327
" />
<path d="M9.8457 45.4327
L9.7248 45.4931
" />
<path d="M9.7248 45.4931
L9.4829 45.4931
" />
<path d="M9.4829 45.4931
L9.3619 45.4327
" />
<path d="M10.5109 45.3722
L10.5714 45.4327
" />
<path d="M10.5714 45.4327
L10.5109 45.4931
" />
<path d="M10.5109 45.4931
L10.4505 45.4327
" />
<path d="M10.4505 45.4327
L10.5109 45.3722
" />
<path d="M10.5109 45.3722
L10.5109 45.4931
" />
<path d="M10.5109 44.7069
L10.5714 44.7674
" />
<path d="M10.5714 44.7674
L10.5109 44.8279
" />
<path d="M10.5109 44.8279
L10.4505 44.7674
" />
<path d="M10.4505 44.7674
L10.5109 44.7069
" />
<path d="M10.5109 44.7069
L10.5109 44.8279
" />
<path d="M12.0229 44.1627
L10.9343 45.7955
" />
<path d="M13.3534 44.1627
L12.2648 45.7955
" />
<path d="M13.6558 44.6465
L13.8977 45.4931
" />
<path d="M13.8977 45.4931
L14.1396 44.8884
" />
<path d="M14.1396 44.8884
L14.3815 45.4931
" />
<path d="M14.3815 45.4931
L14.6234 44.6465
" />
<path d="M14.9863 44.6465
L15.2282 45.4931
" />
<path d="M15.2282 45.4931
L15.4701 44.8884
" />
<path d="M15.4701 44.8884
L15.7120 45.4931
" />
<path d="M15.7120 45.4931
L15.9539 44.6465
" />
<path d="M17.1030 45.4931
L16.3773 45.4931
" />
<path d="M16.7401 45.4931
L16.7401 44.2231
" />
<path d="M16.7401 44.2231
L16.6192 44.4046
" />
<path d="M16.6192 44.4046
L16.4982 44.5255
" />
<path d="M16.4982 44.5255
L16.3773 44.5860
" />
<path d="M17.6472 45.3722
L17.7077 45.4327
" />
<path d="M17.7077 45.4327
L17.6472 45.4931
" />
<path d="M17.6472 45.4931
L17.5868 45.4327
" />
<path d="M17.5868 45.4327
L17.6472 45.3722
" />
<path d="M17.6472 45.3722
L17.6472 45.4931
" />
<path d="M18.2520 45.4931
L18.2520 44.6465
" />
<path d="M18.2520 44.7674
L18.3125 44.7069
" />
<path d="M18.3125 44.7069
L18.4335 44.6465
" />
<path d="M18.4335 44.6465
L18.6149 44.6465
" />
<path d="M18.6149 44.6465
L18.7358 44.7069
" />
<path d="M18.7358 44.7069
L18.7963 44.8279
" />
<path d="M18.7963 44.8279
L18.7963 45.4931
" />
<path d="M18.7963 44.8279
L18.8568 44.7069
" />
<path d="M18.8568 44.7069
L18.9777 44.6465
" />
<path d="M18.9777 44.6465
L19.1592 44.6465
" />
<path d="M19.1592 44.6465
L19.2801 44.7069
" />
<path d="M19.2801 44.7069
L19.3406 44.8279
" />
<path d="M19.3406 44.8279
L19.3406 45.4931
" />
<path d="M19.9453 45.4931
L19.9453 44.6465
" />
<path d="M19.9453 44.2231
L19.8849 44.2836
" />
<path d="M19.8849 44.2836
L19.9453 44.3441
" />
<path d="M19.9453 44.3441
L20.0058 44.2836
" />
<path d="M20.0058 44.2836
L19.9453 44.2231
" />
<path d="M19.9453 44.2231
L19.9453 44.3441
" />
<path d="M21.0944 45.4327
L20.9735 45.4931
" />
<path d="M20.9735 45.4931
L20.7316 45.4931
" />
<path d="M20.7316 45.4931
L20.6106 45.4327
" />
<path d="M20.6106 45.4327
L20.5501 45.3722
" />
<path d="M20.5501 45.3722
L20.4897 45.2512
" />
<path d="M20.4897 45.2512
L20.4897 44.8884
" />
<path d="M20.4897 44.8884
L20.5501 44.7674
" />
<path d="M20.5501 44.7674
L20.6106 44.7069
" />
<path d="M20.6106 44.7069
L20.7316 44.6465
" />
<path d="M20.7316 44.6465
L20.9735 44.6465
" />
<path d="M20.9735 44.6465
L21.0944 44.7069
" />
<path d="M21.6387 45.4931
L21.6387 44.6465
" />
<path d="M21.6387 44.8884
L21.6992 44.7674
" />
<path d="M21.6992 44.7674
L21.7597 44.7069
" />
<path d="M21.7597 44.7069
L21.8806 44.6465
" />
<path d="M21.8806 44.6465
L22.0016 44.6465
" />
<path d="M22.6064 45.4931
L22.4854 45.4327
" />
<path d="M22.4854 45.4327
L22.4249 45.3722
" />
<path d="M22.4249 45.3722
L22.3645 45.2512
" />
<path d="M22.3645 45.2512
L22.3645 44.8884
" />
<path d="M22.3645 44.8884
L22.4249 44.7674
" />
<path d="M22.4249 44.7674
L22.4854 44.7069
" />
<path d="M22.4854 44.7069
L22.6064 44.6465
" />
<path d="M22.6064 44.6465
L22.7878 44.6465
" />
<path d="M22.7878 44.6465
L22.9087 44.7069
" />
<path d="M22.9087 44.7069
L22.9692 44.7674
" />
<path d="M22.9692 44.7674
L23.0297 44.8884
" />
<path d="M23.0297 44.8884
L23.0297 45.2512
" />
<path d="M23.0297 45.2512
L22.9692 45.3722
" />
<path d="M22.9692 45.3722
L22.9087 45.4327
" />
<path d="M22.9087 45.4327
L22.7878 45.4931
" />
<path d="M22.7878 45.4931
L22.6064 45.4931
" />
<path d="M24.1182 45.4327
L23.9973 45.4931
" />
<path d="M23.9973 45.4931
L23.7554 45.4931
" />
<path d="M23.7554 45.4931
L23.6344 45.4327
" />
<path d="M23.6344 45.4327
L23.5739 45.3722
" />
<path d="M23.5739 45.3722
L23.5135 45.2512
" />
<path d="M23.5135 45.2512
L23.5135 44.8884
" />
<path d="M23.5135 44.8884
L23.5739 44.7674
" />
<path d="M23.5739 44.7674
L23.6344 44.7069
" />
<path d="M23.6344 44.7069
L23.7554 44.6465
" />
<path d="M23.7554 44.6465
L23.9973 44.6465
" />
<path d="M23.9973 44.6465
L24.1182 44.7069
" />
<path d="M24.6625 45.4931
L24.6625 44.2231
" />
<path d="M25.2068 45.4931
L25.2068 44.8279
" />
<path d="M25.2068 44.8279
L25.1463 44.7069
" />
<path d="M25.1463 44.7069
L25.0254 44.6465
" />
<path d="M25.0254 44.6465
L24.8440 44.6465
" />
<path d="M24.8440 44.6465
L24.7230 44.7069
" />
<path d="M24.7230 44.7069
L24.6625 44.7674
" />
<path d="M25.8115 45.4931
L25.8115 44.6465
" />
<path d="M25.8115 44.2231
L25.7511 44.2836
" />
<path d="M25.7511 44.2836
L25.8115 44.3441
" />
<path d="M25.8115 44.3441
L25.8720 44.2836
" />
<path d="M25.8720 44.2836
L25.8115 44.2231
" />
<path d="M25.8115 44.2231
L25.8115 44.3441
" />
<path d="M26.4163 44.6465
L26.4163 45.9165
" />
<path d="M26.4163 44.7069
L26.5373 44.6465
" />
<path d="M26.5373 44.6465
L26.7792 44.6465
" />
<path d="M26.7792 44.6465
L26.9001 44.7069
" />
<path d="M26.9001 44.7069
L26.9606 44.7674
" />
<path d="M26.9606 44.7674
L27.0211 44.8884
" />
<path d="M27.0211 44.8884
L27.0211 45.2512
" />
<path d="M27.0211 45.2512
L26.9606 45.3722
" />
<path d="M26.9606 45.3722
L26.9001 45.4327
" />
<path d="M26.9001 45.4327
L26.7792 45.4931
" />
<path d="M26.7792 45.4931
L26.5373 45.4931
" />
<path d="M26.5373 45.4931
L26.4163 45.4327
" />
<path d="M27.5653 45.3722
L27.6258 45.4327
" />
<path d="M27.6258 45.4327
L27.5653 45.4931
" />
<path d="M27.5653 45.4931
L27.5049 45.4327
" />
<path d="M27.5049 45.4327
L27.5653 45.3722
" />
<path d="M27.5653 45.3722
L27.5653 45.4931
" />
<path d="M28.7144 45.4327
L28.5935 45.4931
" />
<path d="M28.5935 45.4931
L28.3516 45.4931
" />
<path d="M28.3516 45.4931
L28.2306 45.4327
" />
<path d="M28.2306 45.4327
L28.1701 45.3722
" />
<path d="M28.1701 45.3722
L28.1097 45.2512
" />
<path d="M28.1097 45.2512
L28.1097 44.8884
" />
<path d="M28.1097 44.8884
L28.1701 44.7674
" />
<path d="M28.1701 44.7674
L28.2306 44.7069
" />
<path d="M28.2306 44.7069
L28.3516 44.6465
" />
<path d="M28.3516 44.6465
L28.5935 44.6465
" />
<path d="M28.5935 44.6465
L28.7144 44.7069
" />
<path d="M29.4402 45.4931
L29.3192 45.4327
" />
<path d="M29.3192 45.4327
L29.2587 45.3722
" />
<path d="M29.2587 45.3722
L29.1983 45.2512
" />
<path d="M29.1983 45.2512
L29.1983 44.8884
" />
<path d="M29.1983 44.8884
L29.2587 44.7674
" />
<path d="M29.2587 44.7674
L29.3192 44.7069
" />
<path d="M29.3192 44.7069
L29.4402 44.6465
" />
<path d="M29.4402 44.6465
L29.6216 44.6465
" />
<path d="M29.6216 44.6465
L29.7425 44.7069
" />
<path d="M29.7425 44.7069
L29.8030 44.7674
" />
<path d="M29.8030 44.7674
L29.8635 44.8884
" />
<path d="M29.8635 44.8884
L29.8635 45.2512
" />
<path d="M29.8635 45.2512
L29.8030 45.3722
" />
<path d="M29.8030 45.3722
L29.7425 45.4327
" />
<path d="M29.7425 45.4327
L29.6216 45.4931
" />
<path d="M29.6216 45.4931
L29.4402 45.4931
" />
<path d="M30.4077 45.4931
L30.4077 44.6465
" />
<path d="M30.4077 44.7674
L30.4682 44.7069
" />
<path d="M30.4682 44.7069
L30.5892 44.6465
" />
<path d="M30.5892 44.6465
L30.7706 44.6465
" />
<path d="M30.7706 44.6465
L30.8915 44.7069
" />
<path d="M30.8915 44.7069
L30.9520 44.8279
" />
<path d="M30.9520 44.8279
L30.9520 45.4931
" />
<path d="M30.9520 44.8279
L31.0125 44.7069
" />
<path d="M31.0125 44.7069
L31.1334 44.6465
" />
<path d="M31.1334 44.6465
L31.3149 44.6465
" />
<path d="M31.3149 44.6465
L31.4358 44.7069
" />
<path d="M31.4358 44.7069
L31.4963 44.8279
" />
<path d="M31.4963 44.8279
L31.4963 45.4931
" />
<path d="M33.0082 44.1627
L31.9196 45.7955
" />
<path d="M33.9758 45.4931
L33.9758 44.2231
" />
<path d="M33.9758 45.4327
L33.8549 45.4931
" />
<path d="M33.8549 45.4931
L33.6130 45.4931
" />
<path d="M33.6130 45.4931
L33.4920 45.4327
" />
<path d="M33.4920 45.4327
L33.4315 45.3722
" />
<path d="M33.4315 45.3722
L33.3711 45.2512
" />
<path d="M33.3711 45.2512
L33.3711 44.8884
" />
<path d="M33.3711 44.8884
L33.4315 44.7674
" />
<path d="M33.4315 44.7674
L33.4920 44.7069
" />
<path d="M33.4920 44.7069
L33.6130 44.6465
" />
<path d="M33.6130 44.6465
L33.8549 44.6465
" />
<path d="M33.8549 44.6465
L33.9758 44.7069
" />
<path d="M34.7620 45.4931
L34.6410 45.4327
" />
<path d="M34.6410 45.4327
L34.5805 45.3722
" />
<path d="M34.5805 45.3722
L34.5201 45.2512
" />
<path d="M34.5201 45.2512
L34.5201 44.8884
" />
<path d="M34.5201 44.8884
L34.5805 44.7674
" />
<path d="M34.5805 44.7674
L34.6410 44.7069
" />
<path d="M34.6410 44.7069
L34.7620 44.6465
" />
<path d="M34.7620 44.6465
L34.9434 44.6465
" />
<path d="M34.9434 44.6465
L35.0643 44.7069
" />
<path d="M35.0643 44.7069
L35.1248 44.7674
" />
<path d="M35.1248 44.7674
L35.1853 44.8884
" />
<path d="M35.1853 44.8884
L35.1853 45.2512
" />
<path d="M35.1853 45.2512
L35.1248 45.3722
" />
<path d="M35.1248 45.3722
L35.0643 45.4327
" />
<path d="M35.0643 45.4327
L34.9434 45.4931
" />
<path d="M34.9434 45.4931
L34.7620 45.4931
" />
<path d="M35.6086 44.6465
L35.8505 45.4931
" />
<path d="M35.8505 45.4931
L36.0924 44.8884
" />
<path d="M36.0924 44.8884
L36.3343 45.4931
" />
<path d="M36.3343 45.4931
L36.5762 44.6465
" />
<path d="M37.0600 44.6465
L37.0600 45.4931
" />
<path d="M37.0600 44.7674
L37.1205 44.7069
" />
<path d="M37.1205 44.7069
L37.2415 44.6465
" />
<path d="M37.2415 44.6465
L37.4229 44.6465
" />
<path d="M37.4229 44.6465
L37.5438 44.7069
" />
<path d="M37.5438 44.7069
L37.6043 44.8279
" />
<path d="M37.6043 44.8279
L37.6043 45.4931
" />
<path d="M38.3905 45.4931
L38.2695 45.4327
" />
<path d="M38.2695 45.4327
L38.2090 45.3117
" />
<path d="M38.2090 45.3117
L38.2090 44.2231
" />
<path d="M39.0557 45.4931
L38.9347 45.4327
" />
<path d="M38.9347 45.4327
L38.8742 45.3722
" />
<path d="M38.8742 45.3722
L38.8138 45.2512
" />
<path d="M38.8138 45.2512
L38.8138 44.8884
" />
<path d="M38.8138 44.8884
L38.8742 44.7674
" />
<path d="M38.8742 44.7674
L38.9347 44.7069
" />
<path d="M38.9347 44.7069
L39.0557 44.6465
" />
<path d="M39.0557 44.6465
L39.2371 44.6465
" />
<path d="M39.2371 44.6465
L39.3580 44.7069
" />
<path d="M39.3580 44.7069
L39.4185 44.7674
" />
<path d="M39.4185 44.7674
L39.4790 44.8884
" />
<path d="M39.4790 44.8884
L39.4790 45.2512
" />
<path d="M39.4790 45.2512
L39.4185 45.3722
" />
<path d="M39.4185 45.3722
L39.3580 45.4327
" />
<path d="M39.3580 45.4327
L39.2371 45.4931
" />
<path d="M39.2371 45.4931
L39.0557 45.4931
" />
<path d="M40.5675 45.4931
L40.5675 44.8279
" />
<path d="M40.5675 44.8279
L40.5070 44.7069
" />
<path d="M40.5070 44.7069
L40.3861 44.6465
" />
<path d="M40.3861 44.6465
L40.1442 44.6465
" />
<path d="M40.1442 44.6465
L40.0232 44.7069
" />
<path d="M40.5675 45.4327
L40.4466 45.4931
" />
<path d="M40.4466 45.4931
L40.1442 45.4931
" />
<path d="M40.1442 45.4931
L40.0232 45.4327
" />
<path d="M40.0232 45.4327
L39.9628 45.3117
" />
<path d="M39.9628 45.3117
L39.9628 45.1907
" />
<path d="M39.9628 45.1907
L40.0232 45.0698
" />
<path d="M40.0232 45.0698
L40.1442 45.0093
" />
<path d="M40.1442 45.0093
L40.4466 45.0093
" />
<path d="M40.4466 45.0093
L40.5675 44.9488
" />
<path d="M41.7165 45.4931
L41.7165 44.2231
" />
<path d="M41.7165 45.4327
L41.5956 45.4931
" />
<path d="M41.5956 45.4931
L41.3537 45.4931
" />
<path d="M41.3537 45.4931
L41.2327 45.4327
" />
<path d="M41.2327 45.4327
L41.1722 45.3722
" />
<path d="M41.1722 45.3722
L41.1118 45.2512
" />
<path d="M41.1118 45.2512
L41.1118 44.8884
" />
<path d="M41.1118 44.8884
L41.1722 44.7674
" />
<path d="M41.1722 44.7674
L41.2327 44.7069
" />
<path d="M41.2327 44.7069
L41.3537 44.6465
" />
<path d="M41.3537 44.6465
L41.5956 44.6465
" />
<path d="M41.5956 44.6465
L41.7165 44.7069
" />
<path d="M42.2608 45.4327
L42.3817 45.4931
" />
<path d="M42.3817 45.4931
L42.6236 45.4931
" />
<path d="M42.6236 45.4931
L42.7446 45.4327
" />
<path d="M42.7446 45.4327
L42.8050 45.3117
" />
<path d="M42.8050 45.3117
L42.8050 45.2512
" />
<path d="M42.8050 45.2512
L42.7446 45.1303
" />
<path d="M42.7446 45.1303
L42.6236 45.0698
" />
<path d="M42.6236 45.0698
L42.4422 45.0698
" />
<path d="M42.4422 45.0698
L42.3212 45.0093
" />
<path d="M42.3212 45.0093
L42.2608 44.8884
" />
<path d="M42.2608 44.8884
L42.2608 44.8279
" />
<path d="M42.2608 44.8279
L42.3212 44.7069
" />
<path d="M42.3212 44.7069
L42.4422 44.6465
" />
<path d="M42.4422 44.6465
L42.6236 44.6465
" />
<path d="M42.6236 44.6465
L42.7446 44.7069
" />
<path d="M44.2565 44.1627
L43.1679 45.7955
" />
<path d="M45.1636 45.4327
L45.0427 45.4931
" />
<path d="M45.0427 45.4931
L44.8008 45.4931
" />
<path d="M44.8008 45.4931
L44.6798 45.4327
" />
<path d="M44.6798 45.4327
L44.6194 45.3117
" />
<path d="M44.6194 45.3117
L44.6194 44.8279
" />
<path d="M44.6194 44.8279
L44.6798 44.7069
" />
<path d="M44.6798 44.7069
L44.8008 44.6465
" />
<path d="M44.8008 44.6465
L45.0427 44.6465
" />
<path d="M45.0427 44.6465
L45.1636 44.7069
" />
<path d="M45.1636 44.7069
L45.2241 44.8279
" />
<path d="M45.2241 44.8279
L45.2241 44.9488
" />
<path d="M45.2241 44.9488
L44.6194 45.0698
" />
<path d="M45.7684 44.6465
L45.7684 45.4931
" />
<path d="M45.7684 44.7674
L45.8289 44.7069
" />
<path d="M45.8289 44.7069
L45.9499 44.6465
" />
<path d="M45.9499 44.6465
L46.1313 44.6465
" />
<path d="M46.1313 44.6465
L46.2522 44.7069
" />
<path d="M46.2522 44.7069
L46.3127 44.8279
" />
<path d="M46.3127 44.8279
L46.3127 45.4931
" />
<path d="M47.8246 44.1627
L46.7360 45.7955
" />
<path d="M48.2479 45.4931
L48.2479 44.2231
" />
<path d="M48.2479 44.2231
L48.5503 44.2231
" />
<path d="M48.5503 44.2231
L48.7317 44.2836
" />
<path d="M48.7317 44.2836
L48.8527 44.4046
" />
<path d="M48.8527 44.4046
L48.9132 44.5255
" />
<path d="M48.9132 44.5255
L48.9736 44.7674
" />
<path d="M48.9736 44.7674
L48.9736 44.9488
" />
<path d="M48.9736 44.9488
L48.9132 45.1907
" />
<path d="M48.9132 45.1907
L48.8527 45.3117
" />
<path d="M48.8527 45.3117
L48.7317 45.4327
" />
<path d="M48.7317 45.4327
L48.5503 45.4931
" />
<path d="M48.5503 45.4931
L48.2479 45.4931
" />
<path d="M50.0017 45.4327
L49.8808 45.4931
" />
<path d="M49.8808 45.4931
L49.6389 45.4931
" />
<path d="M49.6389 45.4931
L49.5179 45.4327
" />
<path d="M49.5179 45.4327
L49.4575 45.3117
" />
<path d="M49.4575 45.3117
L49.4575 44.8279
" />
<path d="M49.4575 44.8279
L49.5179 44.7069
" />
<path d="M49.5179 44.7069
L49.6389 44.6465
" />
<path d="M49.6389 44.6465
L49.8808 44.6465
" />
<path d="M49.8808 44.6465
L50.0017 44.7069
" />
<path d="M50.0017 44.7069
L50.0622 44.8279
" />
<path d="M50.0622 44.8279
L50.0622 44.9488
" />
<path d="M50.0622 44.9488
L49.4575 45.0698
" />
<path d="M50.4856 44.6465
L50.7880 45.4931
" />
<path d="M50.7880 45.4931
L51.0903 44.6465
" />
<path d="M51.5741 45.4931
L51.5741 44.6465
" />
<path d="M51.5741 44.2231
L51.5137 44.2836
" />
<path d="M51.5137 44.2836
L51.5741 44.3441
" />
<path d="M51.5741 44.3441
L51.6346 44.2836
" />
<path d="M51.6346 44.2836
L51.5741 44.2231
" />
<path d="M51.5741 44.2231
L51.5741 44.3441
" />
<path d="M52.7232 45.4327
L52.6023 45.4931
" />
<path d="M52.6023 45.4931
L52.3604 45.4931
" />
<path d="M52.3604 45.4931
L52.2394 45.4327
" />
<path d="M52.2394 45.4327
L52.1789 45.3722
" />
<path d="M52.1789 45.3722
L52.1185 45.2512
" />
<path d="M52.1185 45.2512
L52.1185 44.8884
" />
<path d="M52.1185 44.8884
L52.1789 44.7674
" />
<path d="M52.1789 44.7674
L52.2394 44.7069
" />
<path d="M52.2394 44.7069
L52.3604 44.6465
" />
<path d="M52.3604 44.6465
L52.6023 44.6465
" />
<path d="M52.6023 44.6465
L52.7232 44.7069
" />
<path d="M53.7513 45.4327
L53.6304 45.4931
" />
<path d="M53.6304 45.4931
L53.3885 45.4931
" />
<path d="M53.3885 45.4931
L53.2675 45.4327
" />
<path d="M53.2675 45.4327
L53.2071 45.3117
" />
<path d="M53.2071 45.3117
L53.2071 44.8279
" />
<path d="M53.2071 44.8279
L53.2675 44.7069
" />
<path d="M53.2675 44.7069
L53.3885 44.6465
" />
<path d="M53.3885 44.6465
L53.6304 44.6465
" />
<path d="M53.6304 44.6465
L53.7513 44.7069
" />
<path d="M53.7513 44.7069
L53.8118 44.8279
" />
<path d="M53.8118 44.8279
L53.8118 44.9488
" />
<path d="M53.8118 44.9488
L53.2071 45.0698
" />
<path d="M54.3561 45.4931
L54.3561 44.2231
" />
<path d="M54.3561 44.2231
L54.6585 44.2231
" />
<path d="M54.6585 44.2231
L54.8399 44.2836
" />
<path d="M54.8399 44.2836
L54.9609 44.4046
" />
<path d="M54.9609 44.4046
L55.0214 44.5255
" />
<path d="M55.0214 44.5255
L55.0818 44.7674
" />
<path d="M55.0818 44.7674
L55.0818 44.9488
" />
<path d="M55.0818 44.9488
L55.0214 45.1907
" />
<path d="M55.0214 45.1907
L54.9609 45.3117
" />
<path d="M54.9609 45.3117
L54.8399 45.4327
" />
<path d="M54.8399 45.4327
L54.6585 45.4931
" />
<path d="M54.6585 45.4931
L54.3561 45.4931
" />
<path d="M55.8076 45.4931
L55.6866 45.4327
" />
<path d="M55.6866 45.4327
L55.6261 45.3722
" />
<path d="M55.6261 45.3722
L55.5657 45.2512
" />
<path d="M55.5657 45.2512
L55.5657 44.8884
" />
<path d="M55.5657 44.8884
L55.6261 44.7674
" />
<path d="M55.6261 44.7674
L55.6866 44.7069
" />
<path d="M55.6866 44.7069
L55.8076 44.6465
" />
<path d="M55.8076 44.6465
L55.9890 44.6465
" />
<path d="M55.9890 44.6465
L56.1099 44.7069
" />
<path d="M56.1099 44.7069
L56.1704 44.7674
" />
<path d="M56.1704 44.7674
L56.2309 44.8884
" />
<path d="M56.2309 44.8884
L56.2309 45.2512
" />
<path d="M56.2309 45.2512
L56.1704 45.3722
" />
<path d="M56.1704 45.3722
L56.1099 45.4327
" />
<path d="M56.1099 45.4327
L55.9890 45.4931
" />
<path d="M55.9890 45.4931
L55.8076 45.4931
" />
<path d="M57.3194 45.4327
L57.1985 45.4931
" />
<path d="M57.1985 45.4931
L56.9566 45.4931
" />
<path d="M56.9566 45.4931
L56.8356 45.4327
" />
<path d="M56.8356 45.4327
L56.7751 45.3722
" />
<path d="M56.7751 45.3722
L56.7147 45.2512
" />
<path d="M56.7147 45.2512
L56.7147 44.8884
" />
<path d="M56.7147 44.8884
L56.7751 44.7674
" />
<path d="M56.7751 44.7674
L56.8356 44.7069
" />
<path d="M56.8356 44.7069
L56.9566 44.6465
" />
<path d="M56.9566 44.6465
L57.1985 44.6465
" />
<path d="M57.1985 44.6465
L57.3194 44.7069
" />
<path d="M58.7709 44.1627
L57.6823 45.7955
" />
<path d="M59.0733 44.2231
L59.8595 44.2231
" />
<path d="M59.8595 44.2231
L59.4361 44.7069
" />
<path d="M59.4361 44.7069
L59.6176 44.7069
" />
<path d="M59.6176 44.7069
L59.7385 44.7674
" />
<path d="M59.7385 44.7674
L59.7990 44.8279
" />
<path d="M59.7990 44.8279
L59.8595 44.9488
" />
<path d="M59.8595 44.9488
L59.8595 45.2512
" />
<path d="M59.8595 45.2512
L59.7990 45.3722
" />
<path d="M59.7990 45.3722
L59.7385 45.4327
" />
<path d="M59.7385 45.4327
L59.6176 45.4931
" />
<path d="M59.6176 45.4931
L59.2547 45.4931
" />
<path d="M59.2547 45.4931
L59.1338 45.4327
" />
<path d="M59.1338 45.4327
L59.0733 45.3722
" />
<path d="M60.4642 45.4931
L60.7061 45.4931
" />
<path d="M60.7061 45.4931
L60.8271 45.4327
" />
<path d="M60.8271 45.4327
L60.8875 45.3722
" />
<path d="M60.8875 45.3722
L61.0085 45.1907
" />
<path d="M61.0085 45.1907
L61.0690 44.9488
" />
<path d="M61.0690 44.9488
L61.0690 44.4650
" />
<path d="M61.0690 44.4650
L61.0085 44.3441
" />
<path d="M61.0085 44.3441
L60.9480 44.2836
" />
<path d="M60.9480 44.2836
L60.8271 44.2231
" />
<path d="M60.8271 44.2231
L60.5852 44.2231
" />
<path d="M60.5852 44.2231
L60.4642 44.2836
" />
<path d="M60.4642 44.2836
L60.4037 44.3441
" />
<path d="M60.4037 44.3441
L60.3433 44.4650
" />
<path d="M60.3433 44.4650
L60.3433 44.7674
" />
<path d="M60.3433 44.7674
L60.4037 44.8884
" />
<path d="M60.4037 44.8884
L60.4642 44.9488
" />
<path d="M60.4642 44.9488
L60.5852 45.0093
" />
<path d="M60.5852 45.0093
L60.8271 45.0093
" />
<path d="M60.8271 45.0093
L60.9480 44.9488
" />
<path d="M60.9480 44.9488
L61.0085 44.8884
" />
<path d="M61.0085 44.8884
L61.0690 44.7674
" />
<path d="M62.1575 44.2231
L61.9156 44.2231
" />
<path d="M61.9156 44.2231
L61.7947 44.2836
" />
<path d="M61.7947 44.2836
L61.7342 44.3441
" />
<path d="M61.7342 44.3441
L61.6132 44.5255
" />
<path d="M61.6132 44.5255
L61.5528 44.7674
" />
<path d="M61.5528 44.7674
L61.5528 45.2512
" />
<path d="M61.5528 45.2512
L61.6132 45.3722
" />
<path d="M61.6132 45.3722
L61.6737 45.4327
" />
<path d="M61.6737 45.4327
L61.7947 45.4931
" />
<path d="M61.7947 45.4931
L62.0366 45.4931
" />
<path d="M62.0366 45.4931
L62.1575 45.4327
" />
<path d="M62.1575 45.4327
L62.2180 45.3722
" />
<path d="M62.2180 45.3722
L62.2785 45.2512
" />
<path d="M62.2785 45.2512
L62.2785 44.9488
" />
<path d="M62.2785 44.9488
L62.2180 44.8279
" />
<path d="M62.2180 44.8279
L62.1575 44.7674
" />
<path d="M62.1575 44.7674
L62.0366 44.7069
" />
<path d="M62.0366 44.7069
L61.7947 44.7069
" />
<path d="M61.7947 44.7069
L61.6737 44.7674
" />
<path d="M61.6737 44.7674
L61.6132 44.8279
" />
<path d="M61.6132 44.8279
L61.5528 44.9488
" />
<path d="M63.4880 45.4931
L62.7623 45.4931
" />
<path d="M63.1251 45.4931
L63.1251 44.2231
" />
<path d="M63.1251 44.2231
L63.0042 44.4046
" />
<path d="M63.0042 44.4046
L62.8832 44.5255
" />
<path d="M62.8832 44.5255
L62.7623 44.5860
" />
<path d="M64.5765 44.2231
L64.3346 44.2231
" />
<path d="M64.3346 44.2231
L64.2137 44.2836
" />
<path d="M64.2137 44.2836
L64.1532 44.3441
" />
<path d="M64.1532 44.3441
L64.0322 44.5255
" />
<path d="M64.0322 44.5255
L63.9718 44.7674
" />
<path d="M63.9718 44.7674
L63.9718 45.2512
" />
<path d="M63.9718 45.2512
L64.0322 45.3722
" />
<path d="M64.0322 45.3722
L64.0927 45.4327
" />
<path d="M64.0927 45.4327
L64.2137 45.4931
" />
<path d="M64.2137 45.4931
L64.4556 45.4931
" />
<path d="M64.4556 45.4931
L64.5765 45.4327
" />
<path d="M64.5765 45.4327
L64.6370 45.3722
" />
<path d="M64.6370 45.3722
L64.6975 45.2512
" />
<path d="M64.6975 45.2512
L64.6975 44.9488
" />
<path d="M64.6975 44.9488
L64.6370 44.8279
" />
<path d="M64.6370 44.8279
L64.5765 44.7674
" />
<path d="M64.5765 44.7674
L64.4556 44.7069
" />
<path d="M64.4556 44.7069
L64.2137 44.7069
" />
<path d="M64.2137 44.7069
L64.0927 44.7674
" />
<path d="M64.0927 44.7674
L64.0322 44.8279
" />
<path d="M64.0322 44.8279
L63.9718 44.9488
" />
<path d="M65.7860 45.4931
L65.7860 44.2231
" />
<path d="M65.7860 45.4327
L65.6651 45.4931
" />
<path d="M65.6651 45.4931
L65.4232 45.4931
" />
<path d="M65.4232 45.4931
L65.3022 45.4327
" />
<path d="M65.3022 45.4327
L65.2417 45.3722
" />
<path d="M65.2417 45.3722
L65.1813 45.2512
" />
<path d="M65.1813 45.2512
L65.1813 44.8884
" />
<path d="M65.1813 44.8884
L65.2417 44.7674
" />
<path d="M65.2417 44.7674
L65.3022 44.7069
" />
<path d="M65.3022 44.7069
L65.4232 44.6465
" />
<path d="M65.4232 44.6465
L65.6651 44.6465
" />
<path d="M65.6651 44.6465
L65.7860 44.7069
" />
<path d="M66.3907 45.3722
L66.4512 45.4327
" />
<path d="M66.4512 45.4327
L66.3907 45.4931
" />
<path d="M66.3907 45.4931
L66.3303 45.4327
" />
<path d="M66.3303 45.4327
L66.3907 45.3722
" />
<path d="M66.3907 45.3722
L66.3907 45.4931
" />
<path d="M66.9955 44.6465
L66.9955 45.9165
" />
<path d="M66.9955 44.7069
L67.1165 44.6465
" />
<path d="M67.1165 44.6465
L67.3584 44.6465
" />
<path d="M67.3584 44.6465
L67.4793 44.7069
" />
<path d="M67.4793 44.7069
L67.5398 44.7674
" />
<path d="M67.5398 44.7674
L67.6003 44.8884
" />
<path d="M67.6003 44.8884
L67.6003 45.2512
" />
<path d="M67.6003 45.2512
L67.5398 45.3722
" />
<path d="M67.5398 45.3722
L67.4793 45.4327
" />
<path d="M67.4793 45.4327
L67.3584 45.4931
" />
<path d="M67.3584 45.4931
L67.1165 45.4931
" />
<path d="M67.1165 45.4931
L66.9955 45.4327
" />
<path d="M68.6888 45.4931
L68.6888 44.2231
" />
<path d="M68.6888 45.4327
L68.5679 45.4931
" />
<path d="M68.5679 45.4931
L68.3260 45.4931
" />
<path d="M68.3260 45.4931
L68.2050 45.4327
" />
<path d="M68.2050 45.4327
L68.1445 45.3722
" />
<path d="M68.1445 45.3722
L68.0841 45.2512
" />
<path d="M68.0841 45.2512
L68.0841 44.8884
" />
<path d="M68.0841 44.8884
L68.1445 44.7674
" />
<path d="M68.1445 44.7674
L68.2050 44.7069
" />
<path d="M68.2050 44.7069
L68.3260 44.6465
" />
<path d="M68.3260 44.6465
L68.5679 44.6465
" />
<path d="M68.5679 44.6465
L68.6888 44.7069
" />
<path d="M69.1121 44.6465
L69.5959 44.6465
" />
<path d="M69.2935 45.4931
L69.2935 44.4046
" />
<path d="M69.2935 44.4046
L69.3540 44.2836
" />
<path d="M69.3540 44.2836
L69.4750 44.2231
" />
<path d="M69.4750 44.2231
L69.5959 44.2231
" />
</g></g> 
</svg>
