<?xml version="1.0" standalone="no"?>
 <!DOCTYPE svg PUBLIC "-//W3C//DTD SVG 1.1//EN" 
 "http://www.w3.org/Graphics/SVG/1.1/DTD/svg11.dtd"> 
<svg
  xmlns:svg="http://www.w3.org/2000/svg"
  xmlns="http://www.w3.org/2000/svg"
  xmlns:xlink="http://www.w3.org/1999/xlink"
  version="1.1"
  width="81.4070mm" height="17.2466mm" viewBox="0.0000 0.0000 81.4070 17.2466">
<title>SVG Image created as working.svg date 2023/08/10 00:35:27 </title>
  <desc>Image generated by Eeschema-SVG </desc>
<g style="fill:#000000; fill-opacity:1.0000;stroke:#000000; stroke-opacity:1.0000;
stroke-linecap:round; stroke-linejoin:round;"
 transform="translate(0 0) scale(1 1)">
</g>
<g style="fill:#840000; fill-opacity:0.0; 
stroke:#840000; stroke-width:0.0000; stroke-opacity:1; 
stroke-linecap:round; stroke-linejoin:round;">
</g>
<g style="fill:#840084; fill-opacity:0.0; 
stroke:#840084; stroke-width:0.0000; stroke-opacity:1; 
stroke-linecap:round; stroke-linejoin:round;">
</g>
<g style="fill:#840000; fill-opacity:0.0; 
stroke:#840000; stroke-width:0.0000; stroke-opacity:1; 
stroke-linecap:round; stroke-linejoin:round;">
</g>
<g style="fill:#840084; fill-opacity:0.0; 
stroke:#840084; stroke-width:0.0000; stroke-opacity:1; 
stroke-linecap:round; stroke-linejoin:round;">
</g>
<g style="fill:#006464; fill-opacity:0.0; 
stroke:#006464; stroke-width:0.0000; stroke-opacity:1; 
stroke-linecap:round; stroke-linejoin:round;">
</g>
<g style="fill:#006464; fill-opacity:0.0; 
stroke:#006464; stroke-width:0.1588; stroke-opacity:1; 
stroke-linecap:round; stroke-linejoin:round;">
<text x="38.8462" y="3.0928"
textLength="2.6415" font-size="1.6933" lengthAdjust="spacingAndGlyphs"
text-anchor="middle" opacity="0">U?</text>
<g class="stroked-text"><desc>U?</desc>
<path d="M37.9390 1.7670
L37.9390 2.7951
" />
<path d="M37.9390 2.7951
L37.9995 2.9161
" />
<path d="M37.9995 2.9161
L38.0600 2.9766
" />
<path d="M38.0600 2.9766
L38.1809 3.0370
" />
<path d="M38.1809 3.0370
L38.4228 3.0370
" />
<path d="M38.4228 3.0370
L38.5438 2.9766
" />
<path d="M38.5438 2.9766
L38.6043 2.9161
" />
<path d="M38.6043 2.9161
L38.6647 2.7951
" />
<path d="M38.6647 2.7951
L38.6647 1.7670
" />
<path d="M39.4510 2.9161
L39.5114 2.9766
" />
<path d="M39.5114 2.9766
L39.4510 3.0370
" />
<path d="M39.4510 3.0370
L39.3905 2.9766
" />
<path d="M39.3905 2.9766
L39.4510 2.9161
" />
<path d="M39.4510 2.9161
L39.4510 3.0370
" />
<path d="M39.2091 1.8275
L39.3300 1.7670
" />
<path d="M39.3300 1.7670
L39.6324 1.7670
" />
<path d="M39.6324 1.7670
L39.7533 1.8275
" />
<path d="M39.7533 1.8275
L39.8138 1.9485
" />
<path d="M39.8138 1.9485
L39.8138 2.0694
" />
<path d="M39.8138 2.0694
L39.7533 2.1904
" />
<path d="M39.7533 2.1904
L39.6929 2.2508
" />
<path d="M39.6929 2.2508
L39.5719 2.3113
" />
<path d="M39.5719 2.3113
L39.5114 2.3718
" />
<path d="M39.5114 2.3718
L39.4510 2.4927
" />
<path d="M39.4510 2.4927
L39.4510 2.5532
" />
</g><text x="42.9888" y="4.8708"
textLength="10.9266" font-size="1.6933" lengthAdjust="spacingAndGlyphs"
text-anchor="middle" opacity="0">MAX319xSA</text>
<g class="stroked-text"><desc>MAX319xSA</desc>
<path d="M37.9390 4.8150
L37.9390 3.5450
" />
<path d="M37.9390 3.5450
L38.3624 4.4522
" />
<path d="M38.3624 4.4522
L38.7857 3.5450
" />
<path d="M38.7857 3.5450
L38.7857 4.8150
" />
<path d="M39.3300 4.4522
L39.9347 4.4522
" />
<path d="M39.2090 4.8150
L39.6323 3.5450
" />
<path d="M39.6323 3.5450
L40.0557 4.8150
" />
<path d="M40.3581 3.5450
L41.2047 4.8150
" />
<path d="M41.2047 3.5450
L40.3581 4.8150
" />
<path d="M41.5676 3.5450
L42.3538 3.5450
" />
<path d="M42.3538 3.5450
L41.9304 4.0288
" />
<path d="M41.9304 4.0288
L42.1119 4.0288
" />
<path d="M42.1119 4.0288
L42.2328 4.0893
" />
<path d="M42.2328 4.0893
L42.2933 4.1498
" />
<path d="M42.2933 4.1498
L42.3538 4.2707
" />
<path d="M42.3538 4.2707
L42.3538 4.5731
" />
<path d="M42.3538 4.5731
L42.2933 4.6941
" />
<path d="M42.2933 4.6941
L42.2328 4.7546
" />
<path d="M42.2328 4.7546
L42.1119 4.8150
" />
<path d="M42.1119 4.8150
L41.7490 4.8150
" />
<path d="M41.7490 4.8150
L41.6281 4.7546
" />
<path d="M41.6281 4.7546
L41.5676 4.6941
" />
<path d="M43.5633 4.8150
L42.8376 4.8150
" />
<path d="M43.2004 4.8150
L43.2004 3.5450
" />
<path d="M43.2004 3.5450
L43.0795 3.7265
" />
<path d="M43.0795 3.7265
L42.9585 3.8474
" />
<path d="M42.9585 3.8474
L42.8376 3.9079
" />
<path d="M44.1680 4.8150
L44.4099 4.8150
" />
<path d="M44.4099 4.8150
L44.5309 4.7546
" />
<path d="M44.5309 4.7546
L44.5913 4.6941
" />
<path d="M44.5913 4.6941
L44.7123 4.5126
" />
<path d="M44.7123 4.5126
L44.7728 4.2707
" />
<path d="M44.7728 4.2707
L44.7728 3.7869
" />
<path d="M44.7728 3.7869
L44.7123 3.6660
" />
<path d="M44.7123 3.6660
L44.6518 3.6055
" />
<path d="M44.6518 3.6055
L44.5309 3.5450
" />
<path d="M44.5309 3.5450
L44.2890 3.5450
" />
<path d="M44.2890 3.5450
L44.1680 3.6055
" />
<path d="M44.1680 3.6055
L44.1075 3.6660
" />
<path d="M44.1075 3.6660
L44.0471 3.7869
" />
<path d="M44.0471 3.7869
L44.0471 4.0893
" />
<path d="M44.0471 4.0893
L44.1075 4.2103
" />
<path d="M44.1075 4.2103
L44.1680 4.2707
" />
<path d="M44.1680 4.2707
L44.2890 4.3312
" />
<path d="M44.2890 4.3312
L44.5309 4.3312
" />
<path d="M44.5309 4.3312
L44.6518 4.2707
" />
<path d="M44.6518 4.2707
L44.7123 4.2103
" />
<path d="M44.7123 4.2103
L44.7728 4.0893
" />
<path d="M45.1961 4.8150
L45.8613 3.9684
" />
<path d="M45.1961 3.9684
L45.8613 4.8150
" />
<path d="M46.2847 4.7546
L46.4661 4.8150
" />
<path d="M46.4661 4.8150
L46.7685 4.8150
" />
<path d="M46.7685 4.8150
L46.8894 4.7546
" />
<path d="M46.8894 4.7546
L46.9499 4.6941
" />
<path d="M46.9499 4.6941
L47.0104 4.5731
" />
<path d="M47.0104 4.5731
L47.0104 4.4522
" />
<path d="M47.0104 4.4522
L46.9499 4.3312
" />
<path d="M46.9499 4.3312
L46.8894 4.2707
" />
<path d="M46.8894 4.2707
L46.7685 4.2103
" />
<path d="M46.7685 4.2103
L46.5266 4.1498
" />
<path d="M46.5266 4.1498
L46.4056 4.0893
" />
<path d="M46.4056 4.0893
L46.3451 4.0288
" />
<path d="M46.3451 4.0288
L46.2847 3.9079
" />
<path d="M46.2847 3.9079
L46.2847 3.7869
" />
<path d="M46.2847 3.7869
L46.3451 3.6660
" />
<path d="M46.3451 3.6660
L46.4056 3.6055
" />
<path d="M46.4056 3.6055
L46.5266 3.5450
" />
<path d="M46.5266 3.5450
L46.8289 3.5450
" />
<path d="M46.8289 3.5450
L47.0104 3.6055
" />
<path d="M47.4942 4.4522
L48.0989 4.4522
" />
<path d="M47.3732 4.8150
L47.7965 3.5450
" />
<path d="M47.7965 3.5450
L48.2199 4.8150
" />
</g></g>
<g style="fill:#840084; fill-opacity:0.0; 
stroke:#840084; stroke-width:0.1588; stroke-opacity:1; 
stroke-linecap:round; stroke-linejoin:round;">
<text x="40.7005" y="15.4118"
textLength="40.7412" font-size="1.6933" lengthAdjust="spacingAndGlyphs"
text-anchor="middle" opacity="0">Package_SO:SOIC-8_3.9x4.9mm_P1.27mm</text>
<g class="stroked-text"><desc>Package_SO:SOIC-8_3.9x4.9mm_P1.27mm</desc>
<path d="M20.7434 15.3560
L20.7434 14.0860
" />
<path d="M20.7434 14.0860
L21.2272 14.0860
" />
<path d="M21.2272 14.0860
L21.3482 14.1465
" />
<path d="M21.3482 14.1465
L21.4087 14.2070
" />
<path d="M21.4087 14.2070
L21.4691 14.3279
" />
<path d="M21.4691 14.3279
L21.4691 14.5094
" />
<path d="M21.4691 14.5094
L21.4087 14.6303
" />
<path d="M21.4087 14.6303
L21.3482 14.6908
" />
<path d="M21.3482 14.6908
L21.2272 14.7513
" />
<path d="M21.2272 14.7513
L20.7434 14.7513
" />
<path d="M22.5577 15.3560
L22.5577 14.6908
" />
<path d="M22.5577 14.6908
L22.4972 14.5698
" />
<path d="M22.4972 14.5698
L22.3763 14.5094
" />
<path d="M22.3763 14.5094
L22.1344 14.5094
" />
<path d="M22.1344 14.5094
L22.0134 14.5698
" />
<path d="M22.5577 15.2956
L22.4368 15.3560
" />
<path d="M22.4368 15.3560
L22.1344 15.3560
" />
<path d="M22.1344 15.3560
L22.0134 15.2956
" />
<path d="M22.0134 15.2956
L21.9530 15.1746
" />
<path d="M21.9530 15.1746
L21.9530 15.0536
" />
<path d="M21.9530 15.0536
L22.0134 14.9327
" />
<path d="M22.0134 14.9327
L22.1344 14.8722
" />
<path d="M22.1344 14.8722
L22.4368 14.8722
" />
<path d="M22.4368 14.8722
L22.5577 14.8117
" />
<path d="M23.7067 15.2956
L23.5858 15.3560
" />
<path d="M23.5858 15.3560
L23.3439 15.3560
" />
<path d="M23.3439 15.3560
L23.2229 15.2956
" />
<path d="M23.2229 15.2956
L23.1624 15.2351
" />
<path d="M23.1624 15.2351
L23.1020 15.1141
" />
<path d="M23.1020 15.1141
L23.1020 14.7513
" />
<path d="M23.1020 14.7513
L23.1624 14.6303
" />
<path d="M23.1624 14.6303
L23.2229 14.5698
" />
<path d="M23.2229 14.5698
L23.3439 14.5094
" />
<path d="M23.3439 14.5094
L23.5858 14.5094
" />
<path d="M23.5858 14.5094
L23.7067 14.5698
" />
<path d="M24.2510 15.3560
L24.2510 14.0860
" />
<path d="M24.3720 14.8722
L24.7348 15.3560
" />
<path d="M24.7348 14.5094
L24.2510 14.9932
" />
<path d="M25.8234 15.3560
L25.8234 14.6908
" />
<path d="M25.8234 14.6908
L25.7629 14.5698
" />
<path d="M25.7629 14.5698
L25.6420 14.5094
" />
<path d="M25.6420 14.5094
L25.4001 14.5094
" />
<path d="M25.4001 14.5094
L25.2791 14.5698
" />
<path d="M25.8234 15.2956
L25.7025 15.3560
" />
<path d="M25.7025 15.3560
L25.4001 15.3560
" />
<path d="M25.4001 15.3560
L25.2791 15.2956
" />
<path d="M25.2791 15.2956
L25.2187 15.1746
" />
<path d="M25.2187 15.1746
L25.2187 15.0536
" />
<path d="M25.2187 15.0536
L25.2791 14.9327
" />
<path d="M25.2791 14.9327
L25.4001 14.8722
" />
<path d="M25.4001 14.8722
L25.7025 14.8722
" />
<path d="M25.7025 14.8722
L25.8234 14.8117
" />
<path d="M26.9724 14.5094
L26.9724 15.5375
" />
<path d="M26.9724 15.5375
L26.9119 15.6584
" />
<path d="M26.9119 15.6584
L26.8515 15.7189
" />
<path d="M26.8515 15.7189
L26.7305 15.7794
" />
<path d="M26.7305 15.7794
L26.5491 15.7794
" />
<path d="M26.5491 15.7794
L26.4281 15.7189
" />
<path d="M26.9724 15.2956
L26.8515 15.3560
" />
<path d="M26.8515 15.3560
L26.6096 15.3560
" />
<path d="M26.6096 15.3560
L26.4886 15.2956
" />
<path d="M26.4886 15.2956
L26.4281 15.2351
" />
<path d="M26.4281 15.2351
L26.3677 15.1141
" />
<path d="M26.3677 15.1141
L26.3677 14.7513
" />
<path d="M26.3677 14.7513
L26.4281 14.6303
" />
<path d="M26.4281 14.6303
L26.4886 14.5698
" />
<path d="M26.4886 14.5698
L26.6096 14.5094
" />
<path d="M26.6096 14.5094
L26.8515 14.5094
" />
<path d="M26.8515 14.5094
L26.9724 14.5698
" />
<path d="M28.0609 15.2956
L27.9400 15.3560
" />
<path d="M27.9400 15.3560
L27.6981 15.3560
" />
<path d="M27.6981 15.3560
L27.5771 15.2956
" />
<path d="M27.5771 15.2956
L27.5167 15.1746
" />
<path d="M27.5167 15.1746
L27.5167 14.6908
" />
<path d="M27.5167 14.6908
L27.5771 14.5698
" />
<path d="M27.5771 14.5698
L27.6981 14.5094
" />
<path d="M27.6981 14.5094
L27.9400 14.5094
" />
<path d="M27.9400 14.5094
L28.0609 14.5698
" />
<path d="M28.0609 14.5698
L28.1214 14.6908
" />
<path d="M28.1214 14.6908
L28.1214 14.8117
" />
<path d="M28.1214 14.8117
L27.5167 14.9327
" />
<path d="M28.3634 15.4770
L29.3310 15.4770
" />
<path d="M29.5729 15.2956
L29.7543 15.3560
" />
<path d="M29.7543 15.3560
L30.0567 15.3560
" />
<path d="M30.0567 15.3560
L30.1776 15.2956
" />
<path d="M30.1776 15.2956
L30.2381 15.2351
" />
<path d="M30.2381 15.2351
L30.2986 15.1141
" />
<path d="M30.2986 15.1141
L30.2986 14.9932
" />
<path d="M30.2986 14.9932
L30.2381 14.8722
" />
<path d="M30.2381 14.8722
L30.1776 14.8117
" />
<path d="M30.1776 14.8117
L30.0567 14.7513
" />
<path d="M30.0567 14.7513
L29.8148 14.6908
" />
<path d="M29.8148 14.6908
L29.6938 14.6303
" />
<path d="M29.6938 14.6303
L29.6333 14.5698
" />
<path d="M29.6333 14.5698
L29.5729 14.4489
" />
<path d="M29.5729 14.4489
L29.5729 14.3279
" />
<path d="M29.5729 14.3279
L29.6333 14.2070
" />
<path d="M29.6333 14.2070
L29.6938 14.1465
" />
<path d="M29.6938 14.1465
L29.8148 14.0860
" />
<path d="M29.8148 14.0860
L30.1171 14.0860
" />
<path d="M30.1171 14.0860
L30.2986 14.1465
" />
<path d="M31.0847 14.0860
L31.3266 14.0860
" />
<path d="M31.3266 14.0860
L31.4476 14.1465
" />
<path d="M31.4476 14.1465
L31.5685 14.2675
" />
<path d="M31.5685 14.2675
L31.6290 14.5094
" />
<path d="M31.6290 14.5094
L31.6290 14.9327
" />
<path d="M31.6290 14.9327
L31.5685 15.1746
" />
<path d="M31.5685 15.1746
L31.4476 15.2956
" />
<path d="M31.4476 15.2956
L31.3266 15.3560
" />
<path d="M31.3266 15.3560
L31.0847 15.3560
" />
<path d="M31.0847 15.3560
L30.9638 15.2956
" />
<path d="M30.9638 15.2956
L30.8428 15.1746
" />
<path d="M30.8428 15.1746
L30.7824 14.9327
" />
<path d="M30.7824 14.9327
L30.7824 14.5094
" />
<path d="M30.7824 14.5094
L30.8428 14.2675
" />
<path d="M30.8428 14.2675
L30.9638 14.1465
" />
<path d="M30.9638 14.1465
L31.0847 14.0860
" />
<path d="M32.1733 15.2351
L32.2338 15.2956
" />
<path d="M32.2338 15.2956
L32.1733 15.3560
" />
<path d="M32.1733 15.3560
L32.1129 15.2956
" />
<path d="M32.1129 15.2956
L32.1733 15.2351
" />
<path d="M32.1733 15.2351
L32.1733 15.3560
" />
<path d="M32.1733 14.5698
L32.2338 14.6303
" />
<path d="M32.2338 14.6303
L32.1733 14.6908
" />
<path d="M32.1733 14.6908
L32.1129 14.6303
" />
<path d="M32.1129 14.6303
L32.1733 14.5698
" />
<path d="M32.1733 14.5698
L32.1733 14.6908
" />
<path d="M32.7177 15.2956
L32.8991 15.3560
" />
<path d="M32.8991 15.3560
L33.2015 15.3560
" />
<path d="M33.2015 15.3560
L33.3224 15.2956
" />
<path d="M33.3224 15.2956
L33.3829 15.2351
" />
<path d="M33.3829 15.2351
L33.4434 15.1141
" />
<path d="M33.4434 15.1141
L33.4434 14.9932
" />
<path d="M33.4434 14.9932
L33.3829 14.8722
" />
<path d="M33.3829 14.8722
L33.3224 14.8117
" />
<path d="M33.3224 14.8117
L33.2015 14.7513
" />
<path d="M33.2015 14.7513
L32.9596 14.6908
" />
<path d="M32.9596 14.6908
L32.8386 14.6303
" />
<path d="M32.8386 14.6303
L32.7781 14.5698
" />
<path d="M32.7781 14.5698
L32.7177 14.4489
" />
<path d="M32.7177 14.4489
L32.7177 14.3279
" />
<path d="M32.7177 14.3279
L32.7781 14.2070
" />
<path d="M32.7781 14.2070
L32.8386 14.1465
" />
<path d="M32.8386 14.1465
L32.9596 14.0860
" />
<path d="M32.9596 14.0860
L33.2619 14.0860
" />
<path d="M33.2619 14.0860
L33.4434 14.1465
" />
<path d="M34.2295 14.0860
L34.4714 14.0860
" />
<path d="M34.4714 14.0860
L34.5924 14.1465
" />
<path d="M34.5924 14.1465
L34.7133 14.2675
" />
<path d="M34.7133 14.2675
L34.7738 14.5094
" />
<path d="M34.7738 14.5094
L34.7738 14.9327
" />
<path d="M34.7738 14.9327
L34.7133 15.1746
" />
<path d="M34.7133 15.1746
L34.5924 15.2956
" />
<path d="M34.5924 15.2956
L34.4714 15.3560
" />
<path d="M34.4714 15.3560
L34.2295 15.3560
" />
<path d="M34.2295 15.3560
L34.1086 15.2956
" />
<path d="M34.1086 15.2956
L33.9876 15.1746
" />
<path d="M33.9876 15.1746
L33.9272 14.9327
" />
<path d="M33.9272 14.9327
L33.9272 14.5094
" />
<path d="M33.9272 14.5094
L33.9876 14.2675
" />
<path d="M33.9876 14.2675
L34.1086 14.1465
" />
<path d="M34.1086 14.1465
L34.2295 14.0860
" />
<path d="M35.3181 15.3560
L35.3181 14.0860
" />
<path d="M36.6486 15.2351
L36.5882 15.2956
" />
<path d="M36.5882 15.2956
L36.4067 15.3560
" />
<path d="M36.4067 15.3560
L36.2858 15.3560
" />
<path d="M36.2858 15.3560
L36.1044 15.2956
" />
<path d="M36.1044 15.2956
L35.9834 15.1746
" />
<path d="M35.9834 15.1746
L35.9229 15.0536
" />
<path d="M35.9229 15.0536
L35.8625 14.8117
" />
<path d="M35.8625 14.8117
L35.8625 14.6303
" />
<path d="M35.8625 14.6303
L35.9229 14.3884
" />
<path d="M35.9229 14.3884
L35.9834 14.2675
" />
<path d="M35.9834 14.2675
L36.1044 14.1465
" />
<path d="M36.1044 14.1465
L36.2858 14.0860
" />
<path d="M36.2858 14.0860
L36.4067 14.0860
" />
<path d="M36.4067 14.0860
L36.5882 14.1465
" />
<path d="M36.5882 14.1465
L36.6486 14.2070
" />
<path d="M37.1929 14.8722
L38.1606 14.8722
" />
<path d="M38.9468 14.6303
L38.8258 14.5698
" />
<path d="M38.8258 14.5698
L38.7653 14.5094
" />
<path d="M38.7653 14.5094
L38.7049 14.3884
" />
<path d="M38.7049 14.3884
L38.7049 14.3279
" />
<path d="M38.7049 14.3279
L38.7653 14.2070
" />
<path d="M38.7653 14.2070
L38.8258 14.1465
" />
<path d="M38.8258 14.1465
L38.9468 14.0860
" />
<path d="M38.9468 14.0860
L39.1887 14.0860
" />
<path d="M39.1887 14.0860
L39.3096 14.1465
" />
<path d="M39.3096 14.1465
L39.3701 14.2070
" />
<path d="M39.3701 14.2070
L39.4306 14.3279
" />
<path d="M39.4306 14.3279
L39.4306 14.3884
" />
<path d="M39.4306 14.3884
L39.3701 14.5094
" />
<path d="M39.3701 14.5094
L39.3096 14.5698
" />
<path d="M39.3096 14.5698
L39.1887 14.6303
" />
<path d="M39.1887 14.6303
L38.9468 14.6303
" />
<path d="M38.9468 14.6303
L38.8258 14.6908
" />
<path d="M38.8258 14.6908
L38.7653 14.7513
" />
<path d="M38.7653 14.7513
L38.7049 14.8722
" />
<path d="M38.7049 14.8722
L38.7049 15.1141
" />
<path d="M38.7049 15.1141
L38.7653 15.2351
" />
<path d="M38.7653 15.2351
L38.8258 15.2956
" />
<path d="M38.8258 15.2956
L38.9468 15.3560
" />
<path d="M38.9468 15.3560
L39.1887 15.3560
" />
<path d="M39.1887 15.3560
L39.3096 15.2956
" />
<path d="M39.3096 15.2956
L39.3701 15.2351
" />
<path d="M39.3701 15.2351
L39.4306 15.1141
" />
<path d="M39.4306 15.1141
L39.4306 14.8722
" />
<path d="M39.4306 14.8722
L39.3701 14.7513
" />
<path d="M39.3701 14.7513
L39.3096 14.6908
" />
<path d="M39.3096 14.6908
L39.1887 14.6303
" />
<path d="M39.6725 15.4770
L40.6401 15.4770
" />
<path d="M40.8215 14.0860
L41.6077 14.0860
" />
<path d="M41.6077 14.0860
L41.1843 14.5698
" />
<path d="M41.1843 14.5698
L41.3658 14.5698
" />
<path d="M41.3658 14.5698
L41.4867 14.6303
" />
<path d="M41.4867 14.6303
L41.5472 14.6908
" />
<path d="M41.5472 14.6908
L41.6077 14.8117
" />
<path d="M41.6077 14.8117
L41.6077 15.1141
" />
<path d="M41.6077 15.1141
L41.5472 15.2351
" />
<path d="M41.5472 15.2351
L41.4867 15.2956
" />
<path d="M41.4867 15.2956
L41.3658 15.3560
" />
<path d="M41.3658 15.3560
L41.0029 15.3560
" />
<path d="M41.0029 15.3560
L40.8820 15.2956
" />
<path d="M40.8820 15.2956
L40.8215 15.2351
" />
<path d="M42.1519 15.2351
L42.2124 15.2956
" />
<path d="M42.2124 15.2956
L42.1519 15.3560
" />
<path d="M42.1519 15.3560
L42.0915 15.2956
" />
<path d="M42.0915 15.2956
L42.1519 15.2351
" />
<path d="M42.1519 15.2351
L42.1519 15.3560
" />
<path d="M42.8172 15.3560
L43.0591 15.3560
" />
<path d="M43.0591 15.3560
L43.1801 15.2956
" />
<path d="M43.1801 15.2956
L43.2405 15.2351
" />
<path d="M43.2405 15.2351
L43.3615 15.0536
" />
<path d="M43.3615 15.0536
L43.4220 14.8117
" />
<path d="M43.4220 14.8117
L43.4220 14.3279
" />
<path d="M43.4220 14.3279
L43.3615 14.2070
" />
<path d="M43.3615 14.2070
L43.3010 14.1465
" />
<path d="M43.3010 14.1465
L43.1801 14.0860
" />
<path d="M43.1801 14.0860
L42.9382 14.0860
" />
<path d="M42.9382 14.0860
L42.8172 14.1465
" />
<path d="M42.8172 14.1465
L42.7567 14.2070
" />
<path d="M42.7567 14.2070
L42.6963 14.3279
" />
<path d="M42.6963 14.3279
L42.6963 14.6303
" />
<path d="M42.6963 14.6303
L42.7567 14.7513
" />
<path d="M42.7567 14.7513
L42.8172 14.8117
" />
<path d="M42.8172 14.8117
L42.9382 14.8722
" />
<path d="M42.9382 14.8722
L43.1801 14.8722
" />
<path d="M43.1801 14.8722
L43.3010 14.8117
" />
<path d="M43.3010 14.8117
L43.3615 14.7513
" />
<path d="M43.3615 14.7513
L43.4220 14.6303
" />
<path d="M43.8453 15.3560
L44.5105 14.5094
" />
<path d="M43.8453 14.5094
L44.5105 15.3560
" />
<path d="M45.5386 14.5094
L45.5386 15.3560
" />
<path d="M45.2362 14.0256
L44.9339 14.9327
" />
<path d="M44.9339 14.9327
L45.7200 14.9327
" />
<path d="M46.2038 15.2351
L46.2643 15.2956
" />
<path d="M46.2643 15.2956
L46.2038 15.3560
" />
<path d="M46.2038 15.3560
L46.1434 15.2956
" />
<path d="M46.1434 15.2956
L46.2038 15.2351
" />
<path d="M46.2038 15.2351
L46.2038 15.3560
" />
<path d="M46.8691 15.3560
L47.1110 15.3560
" />
<path d="M47.1110 15.3560
L47.2320 15.2956
" />
<path d="M47.2320 15.2956
L47.2924 15.2351
" />
<path d="M47.2924 15.2351
L47.4134 15.0536
" />
<path d="M47.4134 15.0536
L47.4739 14.8117
" />
<path d="M47.4739 14.8117
L47.4739 14.3279
" />
<path d="M47.4739 14.3279
L47.4134 14.2070
" />
<path d="M47.4134 14.2070
L47.3529 14.1465
" />
<path d="M47.3529 14.1465
L47.2320 14.0860
" />
<path d="M47.2320 14.0860
L46.9901 14.0860
" />
<path d="M46.9901 14.0860
L46.8691 14.1465
" />
<path d="M46.8691 14.1465
L46.8086 14.2070
" />
<path d="M46.8086 14.2070
L46.7482 14.3279
" />
<path d="M46.7482 14.3279
L46.7482 14.6303
" />
<path d="M46.7482 14.6303
L46.8086 14.7513
" />
<path d="M46.8086 14.7513
L46.8691 14.8117
" />
<path d="M46.8691 14.8117
L46.9901 14.8722
" />
<path d="M46.9901 14.8722
L47.2320 14.8722
" />
<path d="M47.2320 14.8722
L47.3529 14.8117
" />
<path d="M47.3529 14.8117
L47.4134 14.7513
" />
<path d="M47.4134 14.7513
L47.4739 14.6303
" />
<path d="M48.0181 15.3560
L48.0181 14.5094
" />
<path d="M48.0181 14.6303
L48.0786 14.5698
" />
<path d="M48.0786 14.5698
L48.1996 14.5094
" />
<path d="M48.1996 14.5094
L48.3810 14.5094
" />
<path d="M48.3810 14.5094
L48.5019 14.5698
" />
<path d="M48.5019 14.5698
L48.5624 14.6908
" />
<path d="M48.5624 14.6908
L48.5624 15.3560
" />
<path d="M48.5624 14.6908
L48.6229 14.5698
" />
<path d="M48.6229 14.5698
L48.7438 14.5094
" />
<path d="M48.7438 14.5094
L48.9253 14.5094
" />
<path d="M48.9253 14.5094
L49.0462 14.5698
" />
<path d="M49.0462 14.5698
L49.1067 14.6908
" />
<path d="M49.1067 14.6908
L49.1067 15.3560
" />
<path d="M49.7114 15.3560
L49.7114 14.5094
" />
<path d="M49.7114 14.6303
L49.7719 14.5698
" />
<path d="M49.7719 14.5698
L49.8929 14.5094
" />
<path d="M49.8929 14.5094
L50.0743 14.5094
" />
<path d="M50.0743 14.5094
L50.1952 14.5698
" />
<path d="M50.1952 14.5698
L50.2557 14.6908
" />
<path d="M50.2557 14.6908
L50.2557 15.3560
" />
<path d="M50.2557 14.6908
L50.3162 14.5698
" />
<path d="M50.3162 14.5698
L50.4371 14.5094
" />
<path d="M50.4371 14.5094
L50.6186 14.5094
" />
<path d="M50.6186 14.5094
L50.7395 14.5698
" />
<path d="M50.7395 14.5698
L50.8000 14.6908
" />
<path d="M50.8000 14.6908
L50.8000 15.3560
" />
<path d="M51.1024 15.4770
L52.0700 15.4770
" />
<path d="M52.3723 15.3560
L52.3723 14.0860
" />
<path d="M52.3723 14.0860
L52.8561 14.0860
" />
<path d="M52.8561 14.0860
L52.9771 14.1465
" />
<path d="M52.9771 14.1465
L53.0376 14.2070
" />
<path d="M53.0376 14.2070
L53.0980 14.3279
" />
<path d="M53.0980 14.3279
L53.0980 14.5094
" />
<path d="M53.0980 14.5094
L53.0376 14.6303
" />
<path d="M53.0376 14.6303
L52.9771 14.6908
" />
<path d="M52.9771 14.6908
L52.8561 14.7513
" />
<path d="M52.8561 14.7513
L52.3723 14.7513
" />
<path d="M54.3076 15.3560
L53.5819 15.3560
" />
<path d="M53.9447 15.3560
L53.9447 14.0860
" />
<path d="M53.9447 14.0860
L53.8238 14.2675
" />
<path d="M53.8238 14.2675
L53.7028 14.3884
" />
<path d="M53.7028 14.3884
L53.5819 14.4489
" />
<path d="M54.8518 15.2351
L54.9123 15.2956
" />
<path d="M54.9123 15.2956
L54.8518 15.3560
" />
<path d="M54.8518 15.3560
L54.7914 15.2956
" />
<path d="M54.7914 15.2956
L54.8518 15.2351
" />
<path d="M54.8518 15.2351
L54.8518 15.3560
" />
<path d="M55.3962 14.2070
L55.4566 14.1465
" />
<path d="M55.4566 14.1465
L55.5776 14.0860
" />
<path d="M55.5776 14.0860
L55.8800 14.0860
" />
<path d="M55.8800 14.0860
L56.0009 14.1465
" />
<path d="M56.0009 14.1465
L56.0614 14.2070
" />
<path d="M56.0614 14.2070
L56.1219 14.3279
" />
<path d="M56.1219 14.3279
L56.1219 14.4489
" />
<path d="M56.1219 14.4489
L56.0614 14.6303
" />
<path d="M56.0614 14.6303
L55.3357 15.3560
" />
<path d="M55.3357 15.3560
L56.1219 15.3560
" />
<path d="M56.5452 14.0860
L57.3918 14.0860
" />
<path d="M57.3918 14.0860
L56.8476 15.3560
" />
<path d="M57.8756 15.3560
L57.8756 14.5094
" />
<path d="M57.8756 14.6303
L57.9361 14.5698
" />
<path d="M57.9361 14.5698
L58.0571 14.5094
" />
<path d="M58.0571 14.5094
L58.2385 14.5094
" />
<path d="M58.2385 14.5094
L58.3594 14.5698
" />
<path d="M58.3594 14.5698
L58.4199 14.6908
" />
<path d="M58.4199 14.6908
L58.4199 15.3560
" />
<path d="M58.4199 14.6908
L58.4804 14.5698
" />
<path d="M58.4804 14.5698
L58.6013 14.5094
" />
<path d="M58.6013 14.5094
L58.7828 14.5094
" />
<path d="M58.7828 14.5094
L58.9037 14.5698
" />
<path d="M58.9037 14.5698
L58.9642 14.6908
" />
<path d="M58.9642 14.6908
L58.9642 15.3560
" />
<path d="M59.5689 15.3560
L59.5689 14.5094
" />
<path d="M59.5689 14.6303
L59.6294 14.5698
" />
<path d="M59.6294 14.5698
L59.7504 14.5094
" />
<path d="M59.7504 14.5094
L59.9318 14.5094
" />
<path d="M59.9318 14.5094
L60.0527 14.5698
" />
<path d="M60.0527 14.5698
L60.1132 14.6908
" />
<path d="M60.1132 14.6908
L60.1132 15.3560
" />
<path d="M60.1132 14.6908
L60.1737 14.5698
" />
<path d="M60.1737 14.5698
L60.2946 14.5094
" />
<path d="M60.2946 14.5094
L60.4761 14.5094
" />
<path d="M60.4761 14.5094
L60.5970 14.5698
" />
<path d="M60.5970 14.5698
L60.6575 14.6908
" />
<path d="M60.6575 14.6908
L60.6575 15.3560
" />
</g><text x="40.7005" y="7.7918"
textLength="67.8342" font-size="1.6933" lengthAdjust="spacingAndGlyphs"
text-anchor="middle" opacity="0">https://datasheets.maximintegrated.com/en/ds/MAX317-MAX319.pdf</text>
<g class="stroked-text"><desc>https://datasheets.maximintegrated.com/en/ds/MAX317-MAX319.pdf</desc>
<path d="M7.1969 7.7360
L7.1969 6.4660
" />
<path d="M7.7412 7.7360
L7.7412 7.0708
" />
<path d="M7.7412 7.0708
L7.6807 6.9498
" />
<path d="M7.6807 6.9498
L7.5598 6.8894
" />
<path d="M7.5598 6.8894
L7.3784 6.8894
" />
<path d="M7.3784 6.8894
L7.2574 6.9498
" />
<path d="M7.2574 6.9498
L7.1969 7.0103
" />
<path d="M8.1645 6.8894
L8.6483 6.8894
" />
<path d="M8.3459 6.4660
L8.3459 7.5546
" />
<path d="M8.3459 7.5546
L8.4064 7.6756
" />
<path d="M8.4064 7.6756
L8.5274 7.7360
" />
<path d="M8.5274 7.7360
L8.6483 7.7360
" />
<path d="M8.8902 6.8894
L9.3740 6.8894
" />
<path d="M9.0716 6.4660
L9.0716 7.5546
" />
<path d="M9.0716 7.5546
L9.1321 7.6756
" />
<path d="M9.1321 7.6756
L9.2531 7.7360
" />
<path d="M9.2531 7.7360
L9.3740 7.7360
" />
<path d="M9.7973 6.8894
L9.7973 8.1594
" />
<path d="M9.7973 6.9498
L9.9183 6.8894
" />
<path d="M9.9183 6.8894
L10.1602 6.8894
" />
<path d="M10.1602 6.8894
L10.2811 6.9498
" />
<path d="M10.2811 6.9498
L10.3416 7.0103
" />
<path d="M10.3416 7.0103
L10.4021 7.1313
" />
<path d="M10.4021 7.1313
L10.4021 7.4941
" />
<path d="M10.4021 7.4941
L10.3416 7.6151
" />
<path d="M10.3416 7.6151
L10.2811 7.6756
" />
<path d="M10.2811 7.6756
L10.1602 7.7360
" />
<path d="M10.1602 7.7360
L9.9183 7.7360
" />
<path d="M9.9183 7.7360
L9.7973 7.6756
" />
<path d="M10.8859 7.6756
L11.0068 7.7360
" />
<path d="M11.0068 7.7360
L11.2487 7.7360
" />
<path d="M11.2487 7.7360
L11.3697 7.6756
" />
<path d="M11.3697 7.6756
L11.4301 7.5546
" />
<path d="M11.4301 7.5546
L11.4301 7.4941
" />
<path d="M11.4301 7.4941
L11.3697 7.3732
" />
<path d="M11.3697 7.3732
L11.2487 7.3127
" />
<path d="M11.2487 7.3127
L11.0673 7.3127
" />
<path d="M11.0673 7.3127
L10.9463 7.2522
" />
<path d="M10.9463 7.2522
L10.8859 7.1313
" />
<path d="M10.8859 7.1313
L10.8859 7.0708
" />
<path d="M10.8859 7.0708
L10.9463 6.9498
" />
<path d="M10.9463 6.9498
L11.0673 6.8894
" />
<path d="M11.0673 6.8894
L11.2487 6.8894
" />
<path d="M11.2487 6.8894
L11.3697 6.9498
" />
<path d="M11.9744 7.6151
L12.0349 7.6756
" />
<path d="M12.0349 7.6756
L11.9744 7.7360
" />
<path d="M11.9744 7.7360
L11.9140 7.6756
" />
<path d="M11.9140 7.6756
L11.9744 7.6151
" />
<path d="M11.9744 7.6151
L11.9744 7.7360
" />
<path d="M11.9744 6.9498
L12.0349 7.0103
" />
<path d="M12.0349 7.0103
L11.9744 7.0708
" />
<path d="M11.9744 7.0708
L11.9140 7.0103
" />
<path d="M11.9140 7.0103
L11.9744 6.9498
" />
<path d="M11.9744 6.9498
L11.9744 7.0708
" />
<path d="M13.4864 6.4056
L12.3978 8.0384
" />
<path d="M14.8169 6.4056
L13.7283 8.0384
" />
<path d="M15.7845 7.7360
L15.7845 6.4660
" />
<path d="M15.7845 7.6756
L15.6636 7.7360
" />
<path d="M15.6636 7.7360
L15.4217 7.7360
" />
<path d="M15.4217 7.7360
L15.3007 7.6756
" />
<path d="M15.3007 7.6756
L15.2402 7.6151
" />
<path d="M15.2402 7.6151
L15.1798 7.4941
" />
<path d="M15.1798 7.4941
L15.1798 7.1313
" />
<path d="M15.1798 7.1313
L15.2402 7.0103
" />
<path d="M15.2402 7.0103
L15.3007 6.9498
" />
<path d="M15.3007 6.9498
L15.4217 6.8894
" />
<path d="M15.4217 6.8894
L15.6636 6.8894
" />
<path d="M15.6636 6.8894
L15.7845 6.9498
" />
<path d="M16.9335 7.7360
L16.9335 7.0708
" />
<path d="M16.9335 7.0708
L16.8730 6.9498
" />
<path d="M16.8730 6.9498
L16.7521 6.8894
" />
<path d="M16.7521 6.8894
L16.5102 6.8894
" />
<path d="M16.5102 6.8894
L16.3892 6.9498
" />
<path d="M16.9335 7.6756
L16.8126 7.7360
" />
<path d="M16.8126 7.7360
L16.5102 7.7360
" />
<path d="M16.5102 7.7360
L16.3892 7.6756
" />
<path d="M16.3892 7.6756
L16.3288 7.5546
" />
<path d="M16.3288 7.5546
L16.3288 7.4336
" />
<path d="M16.3288 7.4336
L16.3892 7.3127
" />
<path d="M16.3892 7.3127
L16.5102 7.2522
" />
<path d="M16.5102 7.2522
L16.8126 7.2522
" />
<path d="M16.8126 7.2522
L16.9335 7.1917
" />
<path d="M17.3568 6.8894
L17.8406 6.8894
" />
<path d="M17.5382 6.4660
L17.5382 7.5546
" />
<path d="M17.5382 7.5546
L17.5987 7.6756
" />
<path d="M17.5987 7.6756
L17.7197 7.7360
" />
<path d="M17.7197 7.7360
L17.8406 7.7360
" />
<path d="M18.8082 7.7360
L18.8082 7.0708
" />
<path d="M18.8082 7.0708
L18.7477 6.9498
" />
<path d="M18.7477 6.9498
L18.6268 6.8894
" />
<path d="M18.6268 6.8894
L18.3849 6.8894
" />
<path d="M18.3849 6.8894
L18.2639 6.9498
" />
<path d="M18.8082 7.6756
L18.6873 7.7360
" />
<path d="M18.6873 7.7360
L18.3849 7.7360
" />
<path d="M18.3849 7.7360
L18.2639 7.6756
" />
<path d="M18.2639 7.6756
L18.2035 7.5546
" />
<path d="M18.2035 7.5546
L18.2035 7.4336
" />
<path d="M18.2035 7.4336
L18.2639 7.3127
" />
<path d="M18.2639 7.3127
L18.3849 7.2522
" />
<path d="M18.3849 7.2522
L18.6873 7.2522
" />
<path d="M18.6873 7.2522
L18.8082 7.1917
" />
<path d="M19.3525 7.6756
L19.4734 7.7360
" />
<path d="M19.4734 7.7360
L19.7153 7.7360
" />
<path d="M19.7153 7.7360
L19.8363 7.6756
" />
<path d="M19.8363 7.6756
L19.8967 7.5546
" />
<path d="M19.8967 7.5546
L19.8967 7.4941
" />
<path d="M19.8967 7.4941
L19.8363 7.3732
" />
<path d="M19.8363 7.3732
L19.7153 7.3127
" />
<path d="M19.7153 7.3127
L19.5339 7.3127
" />
<path d="M19.5339 7.3127
L19.4129 7.2522
" />
<path d="M19.4129 7.2522
L19.3525 7.1313
" />
<path d="M19.3525 7.1313
L19.3525 7.0708
" />
<path d="M19.3525 7.0708
L19.4129 6.9498
" />
<path d="M19.4129 6.9498
L19.5339 6.8894
" />
<path d="M19.5339 6.8894
L19.7153 6.8894
" />
<path d="M19.7153 6.8894
L19.8363 6.9498
" />
<path d="M20.4410 7.7360
L20.4410 6.4660
" />
<path d="M20.9853 7.7360
L20.9853 7.0708
" />
<path d="M20.9853 7.0708
L20.9248 6.9498
" />
<path d="M20.9248 6.9498
L20.8039 6.8894
" />
<path d="M20.8039 6.8894
L20.6225 6.8894
" />
<path d="M20.6225 6.8894
L20.5015 6.9498
" />
<path d="M20.5015 6.9498
L20.4410 7.0103
" />
<path d="M22.0738 7.6756
L21.9529 7.7360
" />
<path d="M21.9529 7.7360
L21.7110 7.7360
" />
<path d="M21.7110 7.7360
L21.5900 7.6756
" />
<path d="M21.5900 7.6756
L21.5296 7.5546
" />
<path d="M21.5296 7.5546
L21.5296 7.0708
" />
<path d="M21.5296 7.0708
L21.5900 6.9498
" />
<path d="M21.5900 6.9498
L21.7110 6.8894
" />
<path d="M21.7110 6.8894
L21.9529 6.8894
" />
<path d="M21.9529 6.8894
L22.0738 6.9498
" />
<path d="M22.0738 6.9498
L22.1343 7.0708
" />
<path d="M22.1343 7.0708
L22.1343 7.1917
" />
<path d="M22.1343 7.1917
L21.5296 7.3127
" />
<path d="M23.1624 7.6756
L23.0415 7.7360
" />
<path d="M23.0415 7.7360
L22.7996 7.7360
" />
<path d="M22.7996 7.7360
L22.6786 7.6756
" />
<path d="M22.6786 7.6756
L22.6182 7.5546
" />
<path d="M22.6182 7.5546
L22.6182 7.0708
" />
<path d="M22.6182 7.0708
L22.6786 6.9498
" />
<path d="M22.6786 6.9498
L22.7996 6.8894
" />
<path d="M22.7996 6.8894
L23.0415 6.8894
" />
<path d="M23.0415 6.8894
L23.1624 6.9498
" />
<path d="M23.1624 6.9498
L23.2229 7.0708
" />
<path d="M23.2229 7.0708
L23.2229 7.1917
" />
<path d="M23.2229 7.1917
L22.6182 7.3127
" />
<path d="M23.5858 6.8894
L24.0696 6.8894
" />
<path d="M23.7672 6.4660
L23.7672 7.5546
" />
<path d="M23.7672 7.5546
L23.8277 7.6756
" />
<path d="M23.8277 7.6756
L23.9487 7.7360
" />
<path d="M23.9487 7.7360
L24.0696 7.7360
" />
<path d="M24.4325 7.6756
L24.5534 7.7360
" />
<path d="M24.5534 7.7360
L24.7953 7.7360
" />
<path d="M24.7953 7.7360
L24.9163 7.6756
" />
<path d="M24.9163 7.6756
L24.9767 7.5546
" />
<path d="M24.9767 7.5546
L24.9767 7.4941
" />
<path d="M24.9767 7.4941
L24.9163 7.3732
" />
<path d="M24.9163 7.3732
L24.7953 7.3127
" />
<path d="M24.7953 7.3127
L24.6139 7.3127
" />
<path d="M24.6139 7.3127
L24.4929 7.2522
" />
<path d="M24.4929 7.2522
L24.4325 7.1313
" />
<path d="M24.4325 7.1313
L24.4325 7.0708
" />
<path d="M24.4325 7.0708
L24.4929 6.9498
" />
<path d="M24.4929 6.9498
L24.6139 6.8894
" />
<path d="M24.6139 6.8894
L24.7953 6.8894
" />
<path d="M24.7953 6.8894
L24.9163 6.9498
" />
<path d="M25.5210 7.6151
L25.5815 7.6756
" />
<path d="M25.5815 7.6756
L25.5210 7.7360
" />
<path d="M25.5210 7.7360
L25.4606 7.6756
" />
<path d="M25.4606 7.6756
L25.5210 7.6151
" />
<path d="M25.5210 7.6151
L25.5210 7.7360
" />
<path d="M26.1258 7.7360
L26.1258 6.8894
" />
<path d="M26.1258 7.0103
L26.1863 6.9498
" />
<path d="M26.1863 6.9498
L26.3073 6.8894
" />
<path d="M26.3073 6.8894
L26.4887 6.8894
" />
<path d="M26.4887 6.8894
L26.6096 6.9498
" />
<path d="M26.6096 6.9498
L26.6701 7.0708
" />
<path d="M26.6701 7.0708
L26.6701 7.7360
" />
<path d="M26.6701 7.0708
L26.7306 6.9498
" />
<path d="M26.7306 6.9498
L26.8515 6.8894
" />
<path d="M26.8515 6.8894
L27.0330 6.8894
" />
<path d="M27.0330 6.8894
L27.1539 6.9498
" />
<path d="M27.1539 6.9498
L27.2144 7.0708
" />
<path d="M27.2144 7.0708
L27.2144 7.7360
" />
<path d="M28.3634 7.7360
L28.3634 7.0708
" />
<path d="M28.3634 7.0708
L28.3029 6.9498
" />
<path d="M28.3029 6.9498
L28.1820 6.8894
" />
<path d="M28.1820 6.8894
L27.9401 6.8894
" />
<path d="M27.9401 6.8894
L27.8191 6.9498
" />
<path d="M28.3634 7.6756
L28.2425 7.7360
" />
<path d="M28.2425 7.7360
L27.9401 7.7360
" />
<path d="M27.9401 7.7360
L27.8191 7.6756
" />
<path d="M27.8191 7.6756
L27.7587 7.5546
" />
<path d="M27.7587 7.5546
L27.7587 7.4336
" />
<path d="M27.7587 7.4336
L27.8191 7.3127
" />
<path d="M27.8191 7.3127
L27.9401 7.2522
" />
<path d="M27.9401 7.2522
L28.2425 7.2522
" />
<path d="M28.2425 7.2522
L28.3634 7.1917
" />
<path d="M28.8472 7.7360
L29.5124 6.8894
" />
<path d="M28.8472 6.8894
L29.5124 7.7360
" />
<path d="M29.9962 7.7360
L29.9962 6.8894
" />
<path d="M29.9962 6.4660
L29.9358 6.5265
" />
<path d="M29.9358 6.5265
L29.9962 6.5870
" />
<path d="M29.9962 6.5870
L30.0567 6.5265
" />
<path d="M30.0567 6.5265
L29.9962 6.4660
" />
<path d="M29.9962 6.4660
L29.9962 6.5870
" />
<path d="M30.6010 7.7360
L30.6010 6.8894
" />
<path d="M30.6010 7.0103
L30.6615 6.9498
" />
<path d="M30.6615 6.9498
L30.7825 6.8894
" />
<path d="M30.7825 6.8894
L30.9639 6.8894
" />
<path d="M30.9639 6.8894
L31.0848 6.9498
" />
<path d="M31.0848 6.9498
L31.1453 7.0708
" />
<path d="M31.1453 7.0708
L31.1453 7.7360
" />
<path d="M31.1453 7.0708
L31.2058 6.9498
" />
<path d="M31.2058 6.9498
L31.3267 6.8894
" />
<path d="M31.3267 6.8894
L31.5082 6.8894
" />
<path d="M31.5082 6.8894
L31.6291 6.9498
" />
<path d="M31.6291 6.9498
L31.6896 7.0708
" />
<path d="M31.6896 7.0708
L31.6896 7.7360
" />
<path d="M32.2943 7.7360
L32.2943 6.8894
" />
<path d="M32.2943 6.4660
L32.2339 6.5265
" />
<path d="M32.2339 6.5265
L32.2943 6.5870
" />
<path d="M32.2943 6.5870
L32.3548 6.5265
" />
<path d="M32.3548 6.5265
L32.2943 6.4660
" />
<path d="M32.2943 6.4660
L32.2943 6.5870
" />
<path d="M32.8991 6.8894
L32.8991 7.7360
" />
<path d="M32.8991 7.0103
L32.9596 6.9498
" />
<path d="M32.9596 6.9498
L33.0806 6.8894
" />
<path d="M33.0806 6.8894
L33.2620 6.8894
" />
<path d="M33.2620 6.8894
L33.3829 6.9498
" />
<path d="M33.3829 6.9498
L33.4434 7.0708
" />
<path d="M33.4434 7.0708
L33.4434 7.7360
" />
<path d="M33.8667 6.8894
L34.3505 6.8894
" />
<path d="M34.0481 6.4660
L34.0481 7.5546
" />
<path d="M34.0481 7.5546
L34.1086 7.6756
" />
<path d="M34.1086 7.6756
L34.2296 7.7360
" />
<path d="M34.2296 7.7360
L34.3505 7.7360
" />
<path d="M35.2576 7.6756
L35.1367 7.7360
" />
<path d="M35.1367 7.7360
L34.8948 7.7360
" />
<path d="M34.8948 7.7360
L34.7738 7.6756
" />
<path d="M34.7738 7.6756
L34.7134 7.5546
" />
<path d="M34.7134 7.5546
L34.7134 7.0708
" />
<path d="M34.7134 7.0708
L34.7738 6.9498
" />
<path d="M34.7738 6.9498
L34.8948 6.8894
" />
<path d="M34.8948 6.8894
L35.1367 6.8894
" />
<path d="M35.1367 6.8894
L35.2576 6.9498
" />
<path d="M35.2576 6.9498
L35.3181 7.0708
" />
<path d="M35.3181 7.0708
L35.3181 7.1917
" />
<path d="M35.3181 7.1917
L34.7134 7.3127
" />
<path d="M36.4067 6.8894
L36.4067 7.9175
" />
<path d="M36.4067 7.9175
L36.3462 8.0384
" />
<path d="M36.3462 8.0384
L36.2858 8.0989
" />
<path d="M36.2858 8.0989
L36.1648 8.1594
" />
<path d="M36.1648 8.1594
L35.9834 8.1594
" />
<path d="M35.9834 8.1594
L35.8624 8.0989
" />
<path d="M36.4067 7.6756
L36.2858 7.7360
" />
<path d="M36.2858 7.7360
L36.0439 7.7360
" />
<path d="M36.0439 7.7360
L35.9229 7.6756
" />
<path d="M35.9229 7.6756
L35.8624 7.6151
" />
<path d="M35.8624 7.6151
L35.8020 7.4941
" />
<path d="M35.8020 7.4941
L35.8020 7.1313
" />
<path d="M35.8020 7.1313
L35.8624 7.0103
" />
<path d="M35.8624 7.0103
L35.9229 6.9498
" />
<path d="M35.9229 6.9498
L36.0439 6.8894
" />
<path d="M36.0439 6.8894
L36.2858 6.8894
" />
<path d="M36.2858 6.8894
L36.4067 6.9498
" />
<path d="M37.0114 7.7360
L37.0114 6.8894
" />
<path d="M37.0114 7.1313
L37.0719 7.0103
" />
<path d="M37.0719 7.0103
L37.1324 6.9498
" />
<path d="M37.1324 6.9498
L37.2533 6.8894
" />
<path d="M37.2533 6.8894
L37.3743 6.8894
" />
<path d="M38.3419 7.7360
L38.3419 7.0708
" />
<path d="M38.3419 7.0708
L38.2814 6.9498
" />
<path d="M38.2814 6.9498
L38.1605 6.8894
" />
<path d="M38.1605 6.8894
L37.9186 6.8894
" />
<path d="M37.9186 6.8894
L37.7976 6.9498
" />
<path d="M38.3419 7.6756
L38.2210 7.7360
" />
<path d="M38.2210 7.7360
L37.9186 7.7360
" />
<path d="M37.9186 7.7360
L37.7976 7.6756
" />
<path d="M37.7976 7.6756
L37.7372 7.5546
" />
<path d="M37.7372 7.5546
L37.7372 7.4336
" />
<path d="M37.7372 7.4336
L37.7976 7.3127
" />
<path d="M37.7976 7.3127
L37.9186 7.2522
" />
<path d="M37.9186 7.2522
L38.2210 7.2522
" />
<path d="M38.2210 7.2522
L38.3419 7.1917
" />
<path d="M38.7652 6.8894
L39.2490 6.8894
" />
<path d="M38.9466 6.4660
L38.9466 7.5546
" />
<path d="M38.9466 7.5546
L39.0071 7.6756
" />
<path d="M39.0071 7.6756
L39.1281 7.7360
" />
<path d="M39.1281 7.7360
L39.2490 7.7360
" />
<path d="M40.1561 7.6756
L40.0352 7.7360
" />
<path d="M40.0352 7.7360
L39.7933 7.7360
" />
<path d="M39.7933 7.7360
L39.6723 7.6756
" />
<path d="M39.6723 7.6756
L39.6119 7.5546
" />
<path d="M39.6119 7.5546
L39.6119 7.0708
" />
<path d="M39.6119 7.0708
L39.6723 6.9498
" />
<path d="M39.6723 6.9498
L39.7933 6.8894
" />
<path d="M39.7933 6.8894
L40.0352 6.8894
" />
<path d="M40.0352 6.8894
L40.1561 6.9498
" />
<path d="M40.1561 6.9498
L40.2166 7.0708
" />
<path d="M40.2166 7.0708
L40.2166 7.1917
" />
<path d="M40.2166 7.1917
L39.6119 7.3127
" />
<path d="M41.3052 7.7360
L41.3052 6.4660
" />
<path d="M41.3052 7.6756
L41.1843 7.7360
" />
<path d="M41.1843 7.7360
L40.9424 7.7360
" />
<path d="M40.9424 7.7360
L40.8214 7.6756
" />
<path d="M40.8214 7.6756
L40.7609 7.6151
" />
<path d="M40.7609 7.6151
L40.7005 7.4941
" />
<path d="M40.7005 7.4941
L40.7005 7.1313
" />
<path d="M40.7005 7.1313
L40.7609 7.0103
" />
<path d="M40.7609 7.0103
L40.8214 6.9498
" />
<path d="M40.8214 6.9498
L40.9424 6.8894
" />
<path d="M40.9424 6.8894
L41.1843 6.8894
" />
<path d="M41.1843 6.8894
L41.3052 6.9498
" />
<path d="M41.9099 7.6151
L41.9704 7.6756
" />
<path d="M41.9704 7.6756
L41.9099 7.7360
" />
<path d="M41.9099 7.7360
L41.8495 7.6756
" />
<path d="M41.8495 7.6756
L41.9099 7.6151
" />
<path d="M41.9099 7.6151
L41.9099 7.7360
" />
<path d="M43.0590 7.6756
L42.9381 7.7360
" />
<path d="M42.9381 7.7360
L42.6962 7.7360
" />
<path d="M42.6962 7.7360
L42.5752 7.6756
" />
<path d="M42.5752 7.6756
L42.5147 7.6151
" />
<path d="M42.5147 7.6151
L42.4543 7.4941
" />
<path d="M42.4543 7.4941
L42.4543 7.1313
" />
<path d="M42.4543 7.1313
L42.5147 7.0103
" />
<path d="M42.5147 7.0103
L42.5752 6.9498
" />
<path d="M42.5752 6.9498
L42.6962 6.8894
" />
<path d="M42.6962 6.8894
L42.9381 6.8894
" />
<path d="M42.9381 6.8894
L43.0590 6.9498
" />
<path d="M43.7848 7.7360
L43.6638 7.6756
" />
<path d="M43.6638 7.6756
L43.6033 7.6151
" />
<path d="M43.6033 7.6151
L43.5429 7.4941
" />
<path d="M43.5429 7.4941
L43.5429 7.1313
" />
<path d="M43.5429 7.1313
L43.6033 7.0103
" />
<path d="M43.6033 7.0103
L43.6638 6.9498
" />
<path d="M43.6638 6.9498
L43.7848 6.8894
" />
<path d="M43.7848 6.8894
L43.9662 6.8894
" />
<path d="M43.9662 6.8894
L44.0871 6.9498
" />
<path d="M44.0871 6.9498
L44.1476 7.0103
" />
<path d="M44.1476 7.0103
L44.2081 7.1313
" />
<path d="M44.2081 7.1313
L44.2081 7.4941
" />
<path d="M44.2081 7.4941
L44.1476 7.6151
" />
<path d="M44.1476 7.6151
L44.0871 7.6756
" />
<path d="M44.0871 7.6756
L43.9662 7.7360
" />
<path d="M43.9662 7.7360
L43.7848 7.7360
" />
<path d="M44.7523 7.7360
L44.7523 6.8894
" />
<path d="M44.7523 7.0103
L44.8128 6.9498
" />
<path d="M44.8128 6.9498
L44.9338 6.8894
" />
<path d="M44.9338 6.8894
L45.1152 6.8894
" />
<path d="M45.1152 6.8894
L45.2361 6.9498
" />
<path d="M45.2361 6.9498
L45.2966 7.0708
" />
<path d="M45.2966 7.0708
L45.2966 7.7360
" />
<path d="M45.2966 7.0708
L45.3571 6.9498
" />
<path d="M45.3571 6.9498
L45.4780 6.8894
" />
<path d="M45.4780 6.8894
L45.6595 6.8894
" />
<path d="M45.6595 6.8894
L45.7804 6.9498
" />
<path d="M45.7804 6.9498
L45.8409 7.0708
" />
<path d="M45.8409 7.0708
L45.8409 7.7360
" />
<path d="M47.3528 6.4056
L46.2642 8.0384
" />
<path d="M48.2599 7.6756
L48.1390 7.7360
" />
<path d="M48.1390 7.7360
L47.8971 7.7360
" />
<path d="M47.8971 7.7360
L47.7761 7.6756
" />
<path d="M47.7761 7.6756
L47.7157 7.5546
" />
<path d="M47.7157 7.5546
L47.7157 7.0708
" />
<path d="M47.7157 7.0708
L47.7761 6.9498
" />
<path d="M47.7761 6.9498
L47.8971 6.8894
" />
<path d="M47.8971 6.8894
L48.1390 6.8894
" />
<path d="M48.1390 6.8894
L48.2599 6.9498
" />
<path d="M48.2599 6.9498
L48.3204 7.0708
" />
<path d="M48.3204 7.0708
L48.3204 7.1917
" />
<path d="M48.3204 7.1917
L47.7157 7.3127
" />
<path d="M48.8647 6.8894
L48.8647 7.7360
" />
<path d="M48.8647 7.0103
L48.9252 6.9498
" />
<path d="M48.9252 6.9498
L49.0462 6.8894
" />
<path d="M49.0462 6.8894
L49.2276 6.8894
" />
<path d="M49.2276 6.8894
L49.3485 6.9498
" />
<path d="M49.3485 6.9498
L49.4090 7.0708
" />
<path d="M49.4090 7.0708
L49.4090 7.7360
" />
<path d="M50.9209 6.4056
L49.8323 8.0384
" />
<path d="M51.8885 7.7360
L51.8885 6.4660
" />
<path d="M51.8885 7.6756
L51.7676 7.7360
" />
<path d="M51.7676 7.7360
L51.5257 7.7360
" />
<path d="M51.5257 7.7360
L51.4047 7.6756
" />
<path d="M51.4047 7.6756
L51.3442 7.6151
" />
<path d="M51.3442 7.6151
L51.2838 7.4941
" />
<path d="M51.2838 7.4941
L51.2838 7.1313
" />
<path d="M51.2838 7.1313
L51.3442 7.0103
" />
<path d="M51.3442 7.0103
L51.4047 6.9498
" />
<path d="M51.4047 6.9498
L51.5257 6.8894
" />
<path d="M51.5257 6.8894
L51.7676 6.8894
" />
<path d="M51.7676 6.8894
L51.8885 6.9498
" />
<path d="M52.4328 7.6756
L52.5537 7.7360
" />
<path d="M52.5537 7.7360
L52.7956 7.7360
" />
<path d="M52.7956 7.7360
L52.9166 7.6756
" />
<path d="M52.9166 7.6756
L52.9770 7.5546
" />
<path d="M52.9770 7.5546
L52.9770 7.4941
" />
<path d="M52.9770 7.4941
L52.9166 7.3732
" />
<path d="M52.9166 7.3732
L52.7956 7.3127
" />
<path d="M52.7956 7.3127
L52.6142 7.3127
" />
<path d="M52.6142 7.3127
L52.4932 7.2522
" />
<path d="M52.4932 7.2522
L52.4328 7.1313
" />
<path d="M52.4328 7.1313
L52.4328 7.0708
" />
<path d="M52.4328 7.0708
L52.4932 6.9498
" />
<path d="M52.4932 6.9498
L52.6142 6.8894
" />
<path d="M52.6142 6.8894
L52.7956 6.8894
" />
<path d="M52.7956 6.8894
L52.9166 6.9498
" />
<path d="M54.4285 6.4056
L53.3399 8.0384
" />
<path d="M54.8518 7.7360
L54.8518 6.4660
" />
<path d="M54.8518 6.4660
L55.2752 7.3732
" />
<path d="M55.2752 7.3732
L55.6985 6.4660
" />
<path d="M55.6985 6.4660
L55.6985 7.7360
" />
<path d="M56.2428 7.3732
L56.8475 7.3732
" />
<path d="M56.1218 7.7360
L56.5451 6.4660
" />
<path d="M56.5451 6.4660
L56.9685 7.7360
" />
<path d="M57.2709 6.4660
L58.1175 7.7360
" />
<path d="M58.1175 6.4660
L57.2709 7.7360
" />
<path d="M58.4804 6.4660
L59.2666 6.4660
" />
<path d="M59.2666 6.4660
L58.8432 6.9498
" />
<path d="M58.8432 6.9498
L59.0247 6.9498
" />
<path d="M59.0247 6.9498
L59.1456 7.0103
" />
<path d="M59.1456 7.0103
L59.2061 7.0708
" />
<path d="M59.2061 7.0708
L59.2666 7.1917
" />
<path d="M59.2666 7.1917
L59.2666 7.4941
" />
<path d="M59.2666 7.4941
L59.2061 7.6151
" />
<path d="M59.2061 7.6151
L59.1456 7.6756
" />
<path d="M59.1456 7.6756
L59.0247 7.7360
" />
<path d="M59.0247 7.7360
L58.6618 7.7360
" />
<path d="M58.6618 7.7360
L58.5409 7.6756
" />
<path d="M58.5409 7.6756
L58.4804 7.6151
" />
<path d="M60.4761 7.7360
L59.7504 7.7360
" />
<path d="M60.1132 7.7360
L60.1132 6.4660
" />
<path d="M60.1132 6.4660
L59.9923 6.6475
" />
<path d="M59.9923 6.6475
L59.8713 6.7684
" />
<path d="M59.8713 6.7684
L59.7504 6.8289
" />
<path d="M60.8994 6.4660
L61.7460 6.4660
" />
<path d="M61.7460 6.4660
L61.2018 7.7360
" />
<path d="M62.2298 7.2522
L63.1975 7.2522
" />
<path d="M63.8022 7.7360
L63.8022 6.4660
" />
<path d="M63.8022 6.4660
L64.2256 7.3732
" />
<path d="M64.2256 7.3732
L64.6489 6.4660
" />
<path d="M64.6489 6.4660
L64.6489 7.7360
" />
<path d="M65.1932 7.3732
L65.7979 7.3732
" />
<path d="M65.0722 7.7360
L65.4955 6.4660
" />
<path d="M65.4955 6.4660
L65.9189 7.7360
" />
<path d="M66.2213 6.4660
L67.0679 7.7360
" />
<path d="M67.0679 6.4660
L66.2213 7.7360
" />
<path d="M67.4308 6.4660
L68.2170 6.4660
" />
<path d="M68.2170 6.4660
L67.7936 6.9498
" />
<path d="M67.7936 6.9498
L67.9751 6.9498
" />
<path d="M67.9751 6.9498
L68.0960 7.0103
" />
<path d="M68.0960 7.0103
L68.1565 7.0708
" />
<path d="M68.1565 7.0708
L68.2170 7.1917
" />
<path d="M68.2170 7.1917
L68.2170 7.4941
" />
<path d="M68.2170 7.4941
L68.1565 7.6151
" />
<path d="M68.1565 7.6151
L68.0960 7.6756
" />
<path d="M68.0960 7.6756
L67.9751 7.7360
" />
<path d="M67.9751 7.7360
L67.6122 7.7360
" />
<path d="M67.6122 7.7360
L67.4913 7.6756
" />
<path d="M67.4913 7.6756
L67.4308 7.6151
" />
<path d="M69.4265 7.7360
L68.7008 7.7360
" />
<path d="M69.0636 7.7360
L69.0636 6.4660
" />
<path d="M69.0636 6.4660
L68.9427 6.6475
" />
<path d="M68.9427 6.6475
L68.8217 6.7684
" />
<path d="M68.8217 6.7684
L68.7008 6.8289
" />
<path d="M70.0312 7.7360
L70.2731 7.7360
" />
<path d="M70.2731 7.7360
L70.3941 7.6756
" />
<path d="M70.3941 7.6756
L70.4545 7.6151
" />
<path d="M70.4545 7.6151
L70.5755 7.4336
" />
<path d="M70.5755 7.4336
L70.6360 7.1917
" />
<path d="M70.6360 7.1917
L70.6360 6.7079
" />
<path d="M70.6360 6.7079
L70.5755 6.5870
" />
<path d="M70.5755 6.5870
L70.5150 6.5265
" />
<path d="M70.5150 6.5265
L70.3941 6.4660
" />
<path d="M70.3941 6.4660
L70.1522 6.4660
" />
<path d="M70.1522 6.4660
L70.0312 6.5265
" />
<path d="M70.0312 6.5265
L69.9707 6.5870
" />
<path d="M69.9707 6.5870
L69.9103 6.7079
" />
<path d="M69.9103 6.7079
L69.9103 7.0103
" />
<path d="M69.9103 7.0103
L69.9707 7.1313
" />
<path d="M69.9707 7.1313
L70.0312 7.1917
" />
<path d="M70.0312 7.1917
L70.1522 7.2522
" />
<path d="M70.1522 7.2522
L70.3941 7.2522
" />
<path d="M70.3941 7.2522
L70.5150 7.1917
" />
<path d="M70.5150 7.1917
L70.5755 7.1313
" />
<path d="M70.5755 7.1313
L70.6360 7.0103
" />
<path d="M71.1802 7.6151
L71.2407 7.6756
" />
<path d="M71.2407 7.6756
L71.1802 7.7360
" />
<path d="M71.1802 7.7360
L71.1198 7.6756
" />
<path d="M71.1198 7.6756
L71.1802 7.6151
" />
<path d="M71.1802 7.6151
L71.1802 7.7360
" />
<path d="M71.7850 6.8894
L71.7850 8.1594
" />
<path d="M71.7850 6.9498
L71.9060 6.8894
" />
<path d="M71.9060 6.8894
L72.1479 6.8894
" />
<path d="M72.1479 6.8894
L72.2688 6.9498
" />
<path d="M72.2688 6.9498
L72.3293 7.0103
" />
<path d="M72.3293 7.0103
L72.3898 7.1313
" />
<path d="M72.3898 7.1313
L72.3898 7.4941
" />
<path d="M72.3898 7.4941
L72.3293 7.6151
" />
<path d="M72.3293 7.6151
L72.2688 7.6756
" />
<path d="M72.2688 7.6756
L72.1479 7.7360
" />
<path d="M72.1479 7.7360
L71.9060 7.7360
" />
<path d="M71.9060 7.7360
L71.7850 7.6756
" />
<path d="M73.4783 7.7360
L73.4783 6.4660
" />
<path d="M73.4783 7.6756
L73.3574 7.7360
" />
<path d="M73.3574 7.7360
L73.1155 7.7360
" />
<path d="M73.1155 7.7360
L72.9945 7.6756
" />
<path d="M72.9945 7.6756
L72.9340 7.6151
" />
<path d="M72.9340 7.6151
L72.8736 7.4941
" />
<path d="M72.8736 7.4941
L72.8736 7.1313
" />
<path d="M72.8736 7.1313
L72.9340 7.0103
" />
<path d="M72.9340 7.0103
L72.9945 6.9498
" />
<path d="M72.9945 6.9498
L73.1155 6.8894
" />
<path d="M73.1155 6.8894
L73.3574 6.8894
" />
<path d="M73.3574 6.8894
L73.4783 6.9498
" />
<path d="M73.9016 6.8894
L74.3854 6.8894
" />
<path d="M74.0830 7.7360
L74.0830 6.6475
" />
<path d="M74.0830 6.6475
L74.1435 6.5265
" />
<path d="M74.1435 6.5265
L74.2645 6.4660
" />
<path d="M74.2645 6.4660
L74.3854 6.4660
" />
</g></g> 
</svg>
