<?xml version="1.0" standalone="no"?>
 <!DOCTYPE svg PUBLIC "-//W3C//DTD SVG 1.1//EN" 
 "http://www.w3.org/Graphics/SVG/1.1/DTD/svg11.dtd"> 
<svg
  xmlns:svg="http://www.w3.org/2000/svg"
  xmlns="http://www.w3.org/2000/svg"
  xmlns:xlink="http://www.w3.org/1999/xlink"
  version="1.1"
  width="77.4192mm" height="34.4678mm" viewBox="0.0000 0.0000 77.4192 34.4678">
<title>SVG Image created as working.svg date 2023/08/16 16:19:01 </title>
  <desc>Image generated by Eeschema-SVG </desc>
<g style="fill:#000000; fill-opacity:1.0000;stroke:#000000; stroke-opacity:1.0000;
stroke-linecap:round; stroke-linejoin:round;"
 transform="translate(0 0) scale(1 1)">
</g>
<g style="fill:#840000; fill-opacity:0.0; 
stroke:#840000; stroke-width:0.0000; stroke-opacity:1; 
stroke-linecap:round; stroke-linejoin:round;">
</g>
<g style="fill:#840084; fill-opacity:0.0; 
stroke:#840084; stroke-width:0.0000; stroke-opacity:1; 
stroke-linecap:round; stroke-linejoin:round;">
</g>
<g style="fill:#840000; fill-opacity:0.0; 
stroke:#840000; stroke-width:0.0000; stroke-opacity:1; 
stroke-linecap:round; stroke-linejoin:round;">
</g>
<g style="fill:#840084; fill-opacity:0.0; 
stroke:#840084; stroke-width:0.0000; stroke-opacity:1; 
stroke-linecap:round; stroke-linejoin:round;">
</g>
<g style="fill:#006464; fill-opacity:0.0; 
stroke:#006464; stroke-width:0.0000; stroke-opacity:1; 
stroke-linecap:round; stroke-linejoin:round;">
</g>
<g style="fill:#006464; fill-opacity:0.0; 
stroke:#006464; stroke-width:0.1588; stroke-opacity:1; 
stroke-linecap:round; stroke-linejoin:round;">
<text x="32.3549" y="4.5279"
textLength="2.6415" font-size="1.6933" lengthAdjust="spacingAndGlyphs"
text-anchor="middle" opacity="0">U?</text>
<g class="stroked-text"><desc>U?</desc>
<path d="M31.4477 3.2021
L31.4477 4.2302
" />
<path d="M31.4477 4.2302
L31.5082 4.3512
" />
<path d="M31.5082 4.3512
L31.5687 4.4117
" />
<path d="M31.5687 4.4117
L31.6896 4.4721
" />
<path d="M31.6896 4.4721
L31.9315 4.4721
" />
<path d="M31.9315 4.4721
L32.0525 4.4117
" />
<path d="M32.0525 4.4117
L32.1130 4.3512
" />
<path d="M32.1130 4.3512
L32.1734 4.2302
" />
<path d="M32.1734 4.2302
L32.1734 3.2021
" />
<path d="M32.9597 4.3512
L33.0201 4.4117
" />
<path d="M33.0201 4.4117
L32.9597 4.4721
" />
<path d="M32.9597 4.4721
L32.8992 4.4117
" />
<path d="M32.8992 4.4117
L32.9597 4.3512
" />
<path d="M32.9597 4.3512
L32.9597 4.4721
" />
<path d="M32.7178 3.2626
L32.8387 3.2021
" />
<path d="M32.8387 3.2021
L33.1411 3.2021
" />
<path d="M33.1411 3.2021
L33.2620 3.2626
" />
<path d="M33.2620 3.2626
L33.3225 3.3836
" />
<path d="M33.3225 3.3836
L33.3225 3.5045
" />
<path d="M33.3225 3.5045
L33.2620 3.6255
" />
<path d="M33.2620 3.6255
L33.2016 3.6859
" />
<path d="M33.2016 3.6859
L33.0806 3.7464
" />
<path d="M33.0806 3.7464
L33.0201 3.8069
" />
<path d="M33.0201 3.8069
L32.9597 3.9278
" />
<path d="M32.9597 3.9278
L32.9597 3.9883
" />
</g><text x="45.1963" y="4.5279"
textLength="12.9828" font-size="1.6933" lengthAdjust="spacingAndGlyphs"
text-anchor="middle" opacity="0">MIC2178-3.3</text>
<g class="stroked-text"><desc>MIC2178-3.3</desc>
<path d="M39.1184 4.4721
L39.1184 3.2021
" />
<path d="M39.1184 3.2021
L39.5418 4.1093
" />
<path d="M39.5418 4.1093
L39.9651 3.2021
" />
<path d="M39.9651 3.2021
L39.9651 4.4721
" />
<path d="M40.5698 4.4721
L40.5698 3.2021
" />
<path d="M41.9003 4.3512
L41.8399 4.4117
" />
<path d="M41.8399 4.4117
L41.6584 4.4721
" />
<path d="M41.6584 4.4721
L41.5375 4.4721
" />
<path d="M41.5375 4.4721
L41.3561 4.4117
" />
<path d="M41.3561 4.4117
L41.2351 4.2907
" />
<path d="M41.2351 4.2907
L41.1746 4.1697
" />
<path d="M41.1746 4.1697
L41.1142 3.9278
" />
<path d="M41.1142 3.9278
L41.1142 3.7464
" />
<path d="M41.1142 3.7464
L41.1746 3.5045
" />
<path d="M41.1746 3.5045
L41.2351 3.3836
" />
<path d="M41.2351 3.3836
L41.3561 3.2626
" />
<path d="M41.3561 3.2626
L41.5375 3.2021
" />
<path d="M41.5375 3.2021
L41.6584 3.2021
" />
<path d="M41.6584 3.2021
L41.8399 3.2626
" />
<path d="M41.8399 3.2626
L41.9003 3.3231
" />
<path d="M42.3842 3.3231
L42.4446 3.2626
" />
<path d="M42.4446 3.2626
L42.5656 3.2021
" />
<path d="M42.5656 3.2021
L42.8680 3.2021
" />
<path d="M42.8680 3.2021
L42.9889 3.2626
" />
<path d="M42.9889 3.2626
L43.0494 3.3231
" />
<path d="M43.0494 3.3231
L43.1099 3.4440
" />
<path d="M43.1099 3.4440
L43.1099 3.5650
" />
<path d="M43.1099 3.5650
L43.0494 3.7464
" />
<path d="M43.0494 3.7464
L42.3237 4.4721
" />
<path d="M42.3237 4.4721
L43.1099 4.4721
" />
<path d="M44.3194 4.4721
L43.5937 4.4721
" />
<path d="M43.9565 4.4721
L43.9565 3.2021
" />
<path d="M43.9565 3.2021
L43.8356 3.3836
" />
<path d="M43.8356 3.3836
L43.7146 3.5045
" />
<path d="M43.7146 3.5045
L43.5937 3.5650
" />
<path d="M44.7427 3.2021
L45.5893 3.2021
" />
<path d="M45.5893 3.2021
L45.0451 4.4721
" />
<path d="M46.2546 3.7464
L46.1336 3.6859
" />
<path d="M46.1336 3.6859
L46.0731 3.6255
" />
<path d="M46.0731 3.6255
L46.0127 3.5045
" />
<path d="M46.0127 3.5045
L46.0127 3.4440
" />
<path d="M46.0127 3.4440
L46.0731 3.3231
" />
<path d="M46.0731 3.3231
L46.1336 3.2626
" />
<path d="M46.1336 3.2626
L46.2546 3.2021
" />
<path d="M46.2546 3.2021
L46.4965 3.2021
" />
<path d="M46.4965 3.2021
L46.6174 3.2626
" />
<path d="M46.6174 3.2626
L46.6779 3.3231
" />
<path d="M46.6779 3.3231
L46.7384 3.4440
" />
<path d="M46.7384 3.4440
L46.7384 3.5045
" />
<path d="M46.7384 3.5045
L46.6779 3.6255
" />
<path d="M46.6779 3.6255
L46.6174 3.6859
" />
<path d="M46.6174 3.6859
L46.4965 3.7464
" />
<path d="M46.4965 3.7464
L46.2546 3.7464
" />
<path d="M46.2546 3.7464
L46.1336 3.8069
" />
<path d="M46.1336 3.8069
L46.0731 3.8674
" />
<path d="M46.0731 3.8674
L46.0127 3.9883
" />
<path d="M46.0127 3.9883
L46.0127 4.2302
" />
<path d="M46.0127 4.2302
L46.0731 4.3512
" />
<path d="M46.0731 4.3512
L46.1336 4.4117
" />
<path d="M46.1336 4.4117
L46.2546 4.4721
" />
<path d="M46.2546 4.4721
L46.4965 4.4721
" />
<path d="M46.4965 4.4721
L46.6174 4.4117
" />
<path d="M46.6174 4.4117
L46.6779 4.3512
" />
<path d="M46.6779 4.3512
L46.7384 4.2302
" />
<path d="M46.7384 4.2302
L46.7384 3.9883
" />
<path d="M46.7384 3.9883
L46.6779 3.8674
" />
<path d="M46.6779 3.8674
L46.6174 3.8069
" />
<path d="M46.6174 3.8069
L46.4965 3.7464
" />
<path d="M47.2826 3.9883
L48.2503 3.9883
" />
<path d="M48.7341 3.2021
L49.5203 3.2021
" />
<path d="M49.5203 3.2021
L49.0969 3.6859
" />
<path d="M49.0969 3.6859
L49.2784 3.6859
" />
<path d="M49.2784 3.6859
L49.3993 3.7464
" />
<path d="M49.3993 3.7464
L49.4598 3.8069
" />
<path d="M49.4598 3.8069
L49.5203 3.9278
" />
<path d="M49.5203 3.9278
L49.5203 4.2302
" />
<path d="M49.5203 4.2302
L49.4598 4.3512
" />
<path d="M49.4598 4.3512
L49.3993 4.4117
" />
<path d="M49.3993 4.4117
L49.2784 4.4721
" />
<path d="M49.2784 4.4721
L48.9155 4.4721
" />
<path d="M48.9155 4.4721
L48.7946 4.4117
" />
<path d="M48.7946 4.4117
L48.7341 4.3512
" />
<path d="M50.0645 4.3512
L50.1250 4.4117
" />
<path d="M50.1250 4.4117
L50.0645 4.4721
" />
<path d="M50.0645 4.4721
L50.0041 4.4117
" />
<path d="M50.0041 4.4117
L50.0645 4.3512
" />
<path d="M50.0645 4.3512
L50.0645 4.4721
" />
<path d="M50.5484 3.2021
L51.3346 3.2021
" />
<path d="M51.3346 3.2021
L50.9112 3.6859
" />
<path d="M50.9112 3.6859
L51.0927 3.6859
" />
<path d="M51.0927 3.6859
L51.2136 3.7464
" />
<path d="M51.2136 3.7464
L51.2741 3.8069
" />
<path d="M51.2741 3.8069
L51.3346 3.9278
" />
<path d="M51.3346 3.9278
L51.3346 4.2302
" />
<path d="M51.3346 4.2302
L51.2741 4.3512
" />
<path d="M51.2741 4.3512
L51.2136 4.4117
" />
<path d="M51.2136 4.4117
L51.0927 4.4721
" />
<path d="M51.0927 4.4721
L50.7298 4.4721
" />
<path d="M50.7298 4.4721
L50.6089 4.4117
" />
<path d="M50.6089 4.4117
L50.5484 4.3512
" />
</g></g>
<g style="fill:#840084; fill-opacity:0.0; 
stroke:#840084; stroke-width:0.1588; stroke-opacity:1; 
stroke-linecap:round; stroke-linejoin:round;">
<text x="38.7049" y="31.1979"
textLength="44.6116" font-size="1.6933" lengthAdjust="spacingAndGlyphs"
text-anchor="middle" opacity="0">Package_SO:SOIC-20W_7.5x12.8mm_P1.27mm</text>
<g class="stroked-text"><desc>Package_SO:SOIC-20W_7.5x12.8mm_P1.27mm</desc>
<path d="M16.8126 31.1421
L16.8126 29.8721
" />
<path d="M16.8126 29.8721
L17.2964 29.8721
" />
<path d="M17.2964 29.8721
L17.4174 29.9326
" />
<path d="M17.4174 29.9326
L17.4779 29.9931
" />
<path d="M17.4779 29.9931
L17.5383 30.1140
" />
<path d="M17.5383 30.1140
L17.5383 30.2955
" />
<path d="M17.5383 30.2955
L17.4779 30.4164
" />
<path d="M17.4779 30.4164
L17.4174 30.4769
" />
<path d="M17.4174 30.4769
L17.2964 30.5374
" />
<path d="M17.2964 30.5374
L16.8126 30.5374
" />
<path d="M18.6269 31.1421
L18.6269 30.4769
" />
<path d="M18.6269 30.4769
L18.5664 30.3559
" />
<path d="M18.5664 30.3559
L18.4455 30.2955
" />
<path d="M18.4455 30.2955
L18.2036 30.2955
" />
<path d="M18.2036 30.2955
L18.0826 30.3559
" />
<path d="M18.6269 31.0817
L18.5060 31.1421
" />
<path d="M18.5060 31.1421
L18.2036 31.1421
" />
<path d="M18.2036 31.1421
L18.0826 31.0817
" />
<path d="M18.0826 31.0817
L18.0222 30.9607
" />
<path d="M18.0222 30.9607
L18.0222 30.8397
" />
<path d="M18.0222 30.8397
L18.0826 30.7188
" />
<path d="M18.0826 30.7188
L18.2036 30.6583
" />
<path d="M18.2036 30.6583
L18.5060 30.6583
" />
<path d="M18.5060 30.6583
L18.6269 30.5978
" />
<path d="M19.7759 31.0817
L19.6550 31.1421
" />
<path d="M19.6550 31.1421
L19.4131 31.1421
" />
<path d="M19.4131 31.1421
L19.2921 31.0817
" />
<path d="M19.2921 31.0817
L19.2316 31.0212
" />
<path d="M19.2316 31.0212
L19.1712 30.9002
" />
<path d="M19.1712 30.9002
L19.1712 30.5374
" />
<path d="M19.1712 30.5374
L19.2316 30.4164
" />
<path d="M19.2316 30.4164
L19.2921 30.3559
" />
<path d="M19.2921 30.3559
L19.4131 30.2955
" />
<path d="M19.4131 30.2955
L19.6550 30.2955
" />
<path d="M19.6550 30.2955
L19.7759 30.3559
" />
<path d="M20.3202 31.1421
L20.3202 29.8721
" />
<path d="M20.4412 30.6583
L20.8040 31.1421
" />
<path d="M20.8040 30.2955
L20.3202 30.7793
" />
<path d="M21.8926 31.1421
L21.8926 30.4769
" />
<path d="M21.8926 30.4769
L21.8321 30.3559
" />
<path d="M21.8321 30.3559
L21.7112 30.2955
" />
<path d="M21.7112 30.2955
L21.4693 30.2955
" />
<path d="M21.4693 30.2955
L21.3483 30.3559
" />
<path d="M21.8926 31.0817
L21.7717 31.1421
" />
<path d="M21.7717 31.1421
L21.4693 31.1421
" />
<path d="M21.4693 31.1421
L21.3483 31.0817
" />
<path d="M21.3483 31.0817
L21.2879 30.9607
" />
<path d="M21.2879 30.9607
L21.2879 30.8397
" />
<path d="M21.2879 30.8397
L21.3483 30.7188
" />
<path d="M21.3483 30.7188
L21.4693 30.6583
" />
<path d="M21.4693 30.6583
L21.7717 30.6583
" />
<path d="M21.7717 30.6583
L21.8926 30.5978
" />
<path d="M23.0416 30.2955
L23.0416 31.3236
" />
<path d="M23.0416 31.3236
L22.9811 31.4445
" />
<path d="M22.9811 31.4445
L22.9207 31.5050
" />
<path d="M22.9207 31.5050
L22.7997 31.5655
" />
<path d="M22.7997 31.5655
L22.6183 31.5655
" />
<path d="M22.6183 31.5655
L22.4973 31.5050
" />
<path d="M23.0416 31.0817
L22.9207 31.1421
" />
<path d="M22.9207 31.1421
L22.6788 31.1421
" />
<path d="M22.6788 31.1421
L22.5578 31.0817
" />
<path d="M22.5578 31.0817
L22.4973 31.0212
" />
<path d="M22.4973 31.0212
L22.4369 30.9002
" />
<path d="M22.4369 30.9002
L22.4369 30.5374
" />
<path d="M22.4369 30.5374
L22.4973 30.4164
" />
<path d="M22.4973 30.4164
L22.5578 30.3559
" />
<path d="M22.5578 30.3559
L22.6788 30.2955
" />
<path d="M22.6788 30.2955
L22.9207 30.2955
" />
<path d="M22.9207 30.2955
L23.0416 30.3559
" />
<path d="M24.1301 31.0817
L24.0092 31.1421
" />
<path d="M24.0092 31.1421
L23.7673 31.1421
" />
<path d="M23.7673 31.1421
L23.6463 31.0817
" />
<path d="M23.6463 31.0817
L23.5859 30.9607
" />
<path d="M23.5859 30.9607
L23.5859 30.4769
" />
<path d="M23.5859 30.4769
L23.6463 30.3559
" />
<path d="M23.6463 30.3559
L23.7673 30.2955
" />
<path d="M23.7673 30.2955
L24.0092 30.2955
" />
<path d="M24.0092 30.2955
L24.1301 30.3559
" />
<path d="M24.1301 30.3559
L24.1906 30.4769
" />
<path d="M24.1906 30.4769
L24.1906 30.5978
" />
<path d="M24.1906 30.5978
L23.5859 30.7188
" />
<path d="M24.4326 31.2631
L25.4002 31.2631
" />
<path d="M25.6421 31.0817
L25.8235 31.1421
" />
<path d="M25.8235 31.1421
L26.1259 31.1421
" />
<path d="M26.1259 31.1421
L26.2468 31.0817
" />
<path d="M26.2468 31.0817
L26.3073 31.0212
" />
<path d="M26.3073 31.0212
L26.3678 30.9002
" />
<path d="M26.3678 30.9002
L26.3678 30.7793
" />
<path d="M26.3678 30.7793
L26.3073 30.6583
" />
<path d="M26.3073 30.6583
L26.2468 30.5978
" />
<path d="M26.2468 30.5978
L26.1259 30.5374
" />
<path d="M26.1259 30.5374
L25.8840 30.4769
" />
<path d="M25.8840 30.4769
L25.7630 30.4164
" />
<path d="M25.7630 30.4164
L25.7025 30.3559
" />
<path d="M25.7025 30.3559
L25.6421 30.2350
" />
<path d="M25.6421 30.2350
L25.6421 30.1140
" />
<path d="M25.6421 30.1140
L25.7025 29.9931
" />
<path d="M25.7025 29.9931
L25.7630 29.9326
" />
<path d="M25.7630 29.9326
L25.8840 29.8721
" />
<path d="M25.8840 29.8721
L26.1863 29.8721
" />
<path d="M26.1863 29.8721
L26.3678 29.9326
" />
<path d="M27.1539 29.8721
L27.3958 29.8721
" />
<path d="M27.3958 29.8721
L27.5168 29.9326
" />
<path d="M27.5168 29.9326
L27.6377 30.0536
" />
<path d="M27.6377 30.0536
L27.6982 30.2955
" />
<path d="M27.6982 30.2955
L27.6982 30.7188
" />
<path d="M27.6982 30.7188
L27.6377 30.9607
" />
<path d="M27.6377 30.9607
L27.5168 31.0817
" />
<path d="M27.5168 31.0817
L27.3958 31.1421
" />
<path d="M27.3958 31.1421
L27.1539 31.1421
" />
<path d="M27.1539 31.1421
L27.0330 31.0817
" />
<path d="M27.0330 31.0817
L26.9120 30.9607
" />
<path d="M26.9120 30.9607
L26.8516 30.7188
" />
<path d="M26.8516 30.7188
L26.8516 30.2955
" />
<path d="M26.8516 30.2955
L26.9120 30.0536
" />
<path d="M26.9120 30.0536
L27.0330 29.9326
" />
<path d="M27.0330 29.9326
L27.1539 29.8721
" />
<path d="M28.2425 31.0212
L28.3030 31.0817
" />
<path d="M28.3030 31.0817
L28.2425 31.1421
" />
<path d="M28.2425 31.1421
L28.1821 31.0817
" />
<path d="M28.1821 31.0817
L28.2425 31.0212
" />
<path d="M28.2425 31.0212
L28.2425 31.1421
" />
<path d="M28.2425 30.3559
L28.3030 30.4164
" />
<path d="M28.3030 30.4164
L28.2425 30.4769
" />
<path d="M28.2425 30.4769
L28.1821 30.4164
" />
<path d="M28.1821 30.4164
L28.2425 30.3559
" />
<path d="M28.2425 30.3559
L28.2425 30.4769
" />
<path d="M28.7869 31.0817
L28.9683 31.1421
" />
<path d="M28.9683 31.1421
L29.2707 31.1421
" />
<path d="M29.2707 31.1421
L29.3916 31.0817
" />
<path d="M29.3916 31.0817
L29.4521 31.0212
" />
<path d="M29.4521 31.0212
L29.5126 30.9002
" />
<path d="M29.5126 30.9002
L29.5126 30.7793
" />
<path d="M29.5126 30.7793
L29.4521 30.6583
" />
<path d="M29.4521 30.6583
L29.3916 30.5978
" />
<path d="M29.3916 30.5978
L29.2707 30.5374
" />
<path d="M29.2707 30.5374
L29.0288 30.4769
" />
<path d="M29.0288 30.4769
L28.9078 30.4164
" />
<path d="M28.9078 30.4164
L28.8473 30.3559
" />
<path d="M28.8473 30.3559
L28.7869 30.2350
" />
<path d="M28.7869 30.2350
L28.7869 30.1140
" />
<path d="M28.7869 30.1140
L28.8473 29.9931
" />
<path d="M28.8473 29.9931
L28.9078 29.9326
" />
<path d="M28.9078 29.9326
L29.0288 29.8721
" />
<path d="M29.0288 29.8721
L29.3311 29.8721
" />
<path d="M29.3311 29.8721
L29.5126 29.9326
" />
<path d="M30.2987 29.8721
L30.5406 29.8721
" />
<path d="M30.5406 29.8721
L30.6616 29.9326
" />
<path d="M30.6616 29.9326
L30.7825 30.0536
" />
<path d="M30.7825 30.0536
L30.8430 30.2955
" />
<path d="M30.8430 30.2955
L30.8430 30.7188
" />
<path d="M30.8430 30.7188
L30.7825 30.9607
" />
<path d="M30.7825 30.9607
L30.6616 31.0817
" />
<path d="M30.6616 31.0817
L30.5406 31.1421
" />
<path d="M30.5406 31.1421
L30.2987 31.1421
" />
<path d="M30.2987 31.1421
L30.1778 31.0817
" />
<path d="M30.1778 31.0817
L30.0568 30.9607
" />
<path d="M30.0568 30.9607
L29.9964 30.7188
" />
<path d="M29.9964 30.7188
L29.9964 30.2955
" />
<path d="M29.9964 30.2955
L30.0568 30.0536
" />
<path d="M30.0568 30.0536
L30.1778 29.9326
" />
<path d="M30.1778 29.9326
L30.2987 29.8721
" />
<path d="M31.3873 31.1421
L31.3873 29.8721
" />
<path d="M32.7178 31.0212
L32.6574 31.0817
" />
<path d="M32.6574 31.0817
L32.4759 31.1421
" />
<path d="M32.4759 31.1421
L32.3550 31.1421
" />
<path d="M32.3550 31.1421
L32.1736 31.0817
" />
<path d="M32.1736 31.0817
L32.0526 30.9607
" />
<path d="M32.0526 30.9607
L31.9921 30.8397
" />
<path d="M31.9921 30.8397
L31.9317 30.5978
" />
<path d="M31.9317 30.5978
L31.9317 30.4164
" />
<path d="M31.9317 30.4164
L31.9921 30.1745
" />
<path d="M31.9921 30.1745
L32.0526 30.0536
" />
<path d="M32.0526 30.0536
L32.1736 29.9326
" />
<path d="M32.1736 29.9326
L32.3550 29.8721
" />
<path d="M32.3550 29.8721
L32.4759 29.8721
" />
<path d="M32.4759 29.8721
L32.6574 29.9326
" />
<path d="M32.6574 29.9326
L32.7178 29.9931
" />
<path d="M33.2621 30.6583
L34.2298 30.6583
" />
<path d="M34.7741 29.9931
L34.8345 29.9326
" />
<path d="M34.8345 29.9326
L34.9555 29.8721
" />
<path d="M34.9555 29.8721
L35.2579 29.8721
" />
<path d="M35.2579 29.8721
L35.3788 29.9326
" />
<path d="M35.3788 29.9326
L35.4393 29.9931
" />
<path d="M35.4393 29.9931
L35.4998 30.1140
" />
<path d="M35.4998 30.1140
L35.4998 30.2350
" />
<path d="M35.4998 30.2350
L35.4393 30.4164
" />
<path d="M35.4393 30.4164
L34.7136 31.1421
" />
<path d="M34.7136 31.1421
L35.4998 31.1421
" />
<path d="M36.2859 29.8721
L36.4069 29.8721
" />
<path d="M36.4069 29.8721
L36.5278 29.9326
" />
<path d="M36.5278 29.9326
L36.5883 29.9931
" />
<path d="M36.5883 29.9931
L36.6488 30.1140
" />
<path d="M36.6488 30.1140
L36.7093 30.3559
" />
<path d="M36.7093 30.3559
L36.7093 30.6583
" />
<path d="M36.7093 30.6583
L36.6488 30.9002
" />
<path d="M36.6488 30.9002
L36.5883 31.0212
" />
<path d="M36.5883 31.0212
L36.5278 31.0817
" />
<path d="M36.5278 31.0817
L36.4069 31.1421
" />
<path d="M36.4069 31.1421
L36.2859 31.1421
" />
<path d="M36.2859 31.1421
L36.1650 31.0817
" />
<path d="M36.1650 31.0817
L36.1045 31.0212
" />
<path d="M36.1045 31.0212
L36.0440 30.9002
" />
<path d="M36.0440 30.9002
L35.9836 30.6583
" />
<path d="M35.9836 30.6583
L35.9836 30.3559
" />
<path d="M35.9836 30.3559
L36.0440 30.1140
" />
<path d="M36.0440 30.1140
L36.1045 29.9931
" />
<path d="M36.1045 29.9931
L36.1650 29.9326
" />
<path d="M36.1650 29.9326
L36.2859 29.8721
" />
<path d="M37.1326 29.8721
L37.4350 31.1421
" />
<path d="M37.4350 31.1421
L37.6769 30.2350
" />
<path d="M37.6769 30.2350
L37.9188 31.1421
" />
<path d="M37.9188 31.1421
L38.2212 29.8721
" />
<path d="M38.4026 31.2631
L39.3702 31.2631
" />
<path d="M39.5516 29.8721
L40.3982 29.8721
" />
<path d="M40.3982 29.8721
L39.8540 31.1421
" />
<path d="M40.8820 31.0212
L40.9425 31.0817
" />
<path d="M40.9425 31.0817
L40.8820 31.1421
" />
<path d="M40.8820 31.1421
L40.8216 31.0817
" />
<path d="M40.8216 31.0817
L40.8820 31.0212
" />
<path d="M40.8820 31.0212
L40.8820 31.1421
" />
<path d="M42.0916 29.8721
L41.4868 29.8721
" />
<path d="M41.4868 29.8721
L41.4264 30.4769
" />
<path d="M41.4264 30.4769
L41.4868 30.4164
" />
<path d="M41.4868 30.4164
L41.6078 30.3559
" />
<path d="M41.6078 30.3559
L41.9102 30.3559
" />
<path d="M41.9102 30.3559
L42.0311 30.4164
" />
<path d="M42.0311 30.4164
L42.0916 30.4769
" />
<path d="M42.0916 30.4769
L42.1521 30.5978
" />
<path d="M42.1521 30.5978
L42.1521 30.9002
" />
<path d="M42.1521 30.9002
L42.0916 31.0212
" />
<path d="M42.0916 31.0212
L42.0311 31.0817
" />
<path d="M42.0311 31.0817
L41.9102 31.1421
" />
<path d="M41.9102 31.1421
L41.6078 31.1421
" />
<path d="M41.6078 31.1421
L41.4868 31.0817
" />
<path d="M41.4868 31.0817
L41.4264 31.0212
" />
<path d="M42.5754 31.1421
L43.2406 30.2955
" />
<path d="M42.5754 30.2955
L43.2406 31.1421
" />
<path d="M44.3897 31.1421
L43.6640 31.1421
" />
<path d="M44.0268 31.1421
L44.0268 29.8721
" />
<path d="M44.0268 29.8721
L43.9059 30.0536
" />
<path d="M43.9059 30.0536
L43.7849 30.1745
" />
<path d="M43.7849 30.1745
L43.6640 30.2350
" />
<path d="M44.8735 29.9931
L44.9339 29.9326
" />
<path d="M44.9339 29.9326
L45.0549 29.8721
" />
<path d="M45.0549 29.8721
L45.3573 29.8721
" />
<path d="M45.3573 29.8721
L45.4782 29.9326
" />
<path d="M45.4782 29.9326
L45.5387 29.9931
" />
<path d="M45.5387 29.9931
L45.5992 30.1140
" />
<path d="M45.5992 30.1140
L45.5992 30.2350
" />
<path d="M45.5992 30.2350
L45.5387 30.4164
" />
<path d="M45.5387 30.4164
L44.8130 31.1421
" />
<path d="M44.8130 31.1421
L45.5992 31.1421
" />
<path d="M46.1434 31.0212
L46.2039 31.0817
" />
<path d="M46.2039 31.0817
L46.1434 31.1421
" />
<path d="M46.1434 31.1421
L46.0830 31.0817
" />
<path d="M46.0830 31.0817
L46.1434 31.0212
" />
<path d="M46.1434 31.0212
L46.1434 31.1421
" />
<path d="M46.9297 30.4164
L46.8087 30.3559
" />
<path d="M46.8087 30.3559
L46.7482 30.2955
" />
<path d="M46.7482 30.2955
L46.6878 30.1745
" />
<path d="M46.6878 30.1745
L46.6878 30.1140
" />
<path d="M46.6878 30.1140
L46.7482 29.9931
" />
<path d="M46.7482 29.9931
L46.8087 29.9326
" />
<path d="M46.8087 29.9326
L46.9297 29.8721
" />
<path d="M46.9297 29.8721
L47.1716 29.8721
" />
<path d="M47.1716 29.8721
L47.2925 29.9326
" />
<path d="M47.2925 29.9326
L47.3530 29.9931
" />
<path d="M47.3530 29.9931
L47.4135 30.1140
" />
<path d="M47.4135 30.1140
L47.4135 30.1745
" />
<path d="M47.4135 30.1745
L47.3530 30.2955
" />
<path d="M47.3530 30.2955
L47.2925 30.3559
" />
<path d="M47.2925 30.3559
L47.1716 30.4164
" />
<path d="M47.1716 30.4164
L46.9297 30.4164
" />
<path d="M46.9297 30.4164
L46.8087 30.4769
" />
<path d="M46.8087 30.4769
L46.7482 30.5374
" />
<path d="M46.7482 30.5374
L46.6878 30.6583
" />
<path d="M46.6878 30.6583
L46.6878 30.9002
" />
<path d="M46.6878 30.9002
L46.7482 31.0212
" />
<path d="M46.7482 31.0212
L46.8087 31.0817
" />
<path d="M46.8087 31.0817
L46.9297 31.1421
" />
<path d="M46.9297 31.1421
L47.1716 31.1421
" />
<path d="M47.1716 31.1421
L47.2925 31.0817
" />
<path d="M47.2925 31.0817
L47.3530 31.0212
" />
<path d="M47.3530 31.0212
L47.4135 30.9002
" />
<path d="M47.4135 30.9002
L47.4135 30.6583
" />
<path d="M47.4135 30.6583
L47.3530 30.5374
" />
<path d="M47.3530 30.5374
L47.2925 30.4769
" />
<path d="M47.2925 30.4769
L47.1716 30.4164
" />
<path d="M47.9577 31.1421
L47.9577 30.2955
" />
<path d="M47.9577 30.4164
L48.0182 30.3559
" />
<path d="M48.0182 30.3559
L48.1392 30.2955
" />
<path d="M48.1392 30.2955
L48.3206 30.2955
" />
<path d="M48.3206 30.2955
L48.4415 30.3559
" />
<path d="M48.4415 30.3559
L48.5020 30.4769
" />
<path d="M48.5020 30.4769
L48.5020 31.1421
" />
<path d="M48.5020 30.4769
L48.5625 30.3559
" />
<path d="M48.5625 30.3559
L48.6834 30.2955
" />
<path d="M48.6834 30.2955
L48.8649 30.2955
" />
<path d="M48.8649 30.2955
L48.9858 30.3559
" />
<path d="M48.9858 30.3559
L49.0463 30.4769
" />
<path d="M49.0463 30.4769
L49.0463 31.1421
" />
<path d="M49.6510 31.1421
L49.6510 30.2955
" />
<path d="M49.6510 30.4164
L49.7115 30.3559
" />
<path d="M49.7115 30.3559
L49.8325 30.2955
" />
<path d="M49.8325 30.2955
L50.0139 30.2955
" />
<path d="M50.0139 30.2955
L50.1348 30.3559
" />
<path d="M50.1348 30.3559
L50.1953 30.4769
" />
<path d="M50.1953 30.4769
L50.1953 31.1421
" />
<path d="M50.1953 30.4769
L50.2558 30.3559
" />
<path d="M50.2558 30.3559
L50.3767 30.2955
" />
<path d="M50.3767 30.2955
L50.5582 30.2955
" />
<path d="M50.5582 30.2955
L50.6791 30.3559
" />
<path d="M50.6791 30.3559
L50.7396 30.4769
" />
<path d="M50.7396 30.4769
L50.7396 31.1421
" />
<path d="M51.0420 31.2631
L52.0096 31.2631
" />
<path d="M52.3119 31.1421
L52.3119 29.8721
" />
<path d="M52.3119 29.8721
L52.7957 29.8721
" />
<path d="M52.7957 29.8721
L52.9167 29.9326
" />
<path d="M52.9167 29.9326
L52.9772 29.9931
" />
<path d="M52.9772 29.9931
L53.0376 30.1140
" />
<path d="M53.0376 30.1140
L53.0376 30.2955
" />
<path d="M53.0376 30.2955
L52.9772 30.4164
" />
<path d="M52.9772 30.4164
L52.9167 30.4769
" />
<path d="M52.9167 30.4769
L52.7957 30.5374
" />
<path d="M52.7957 30.5374
L52.3119 30.5374
" />
<path d="M54.2472 31.1421
L53.5215 31.1421
" />
<path d="M53.8843 31.1421
L53.8843 29.8721
" />
<path d="M53.8843 29.8721
L53.7634 30.0536
" />
<path d="M53.7634 30.0536
L53.6424 30.1745
" />
<path d="M53.6424 30.1745
L53.5215 30.2350
" />
<path d="M54.7914 31.0212
L54.8519 31.0817
" />
<path d="M54.8519 31.0817
L54.7914 31.1421
" />
<path d="M54.7914 31.1421
L54.7310 31.0817
" />
<path d="M54.7310 31.0817
L54.7914 31.0212
" />
<path d="M54.7914 31.0212
L54.7914 31.1421
" />
<path d="M55.3358 29.9931
L55.3962 29.9326
" />
<path d="M55.3962 29.9326
L55.5172 29.8721
" />
<path d="M55.5172 29.8721
L55.8196 29.8721
" />
<path d="M55.8196 29.8721
L55.9405 29.9326
" />
<path d="M55.9405 29.9326
L56.0010 29.9931
" />
<path d="M56.0010 29.9931
L56.0615 30.1140
" />
<path d="M56.0615 30.1140
L56.0615 30.2350
" />
<path d="M56.0615 30.2350
L56.0010 30.4164
" />
<path d="M56.0010 30.4164
L55.2753 31.1421
" />
<path d="M55.2753 31.1421
L56.0615 31.1421
" />
<path d="M56.4848 29.8721
L57.3314 29.8721
" />
<path d="M57.3314 29.8721
L56.7872 31.1421
" />
<path d="M57.8152 31.1421
L57.8152 30.2955
" />
<path d="M57.8152 30.4164
L57.8757 30.3559
" />
<path d="M57.8757 30.3559
L57.9967 30.2955
" />
<path d="M57.9967 30.2955
L58.1781 30.2955
" />
<path d="M58.1781 30.2955
L58.2990 30.3559
" />
<path d="M58.2990 30.3559
L58.3595 30.4769
" />
<path d="M58.3595 30.4769
L58.3595 31.1421
" />
<path d="M58.3595 30.4769
L58.4200 30.3559
" />
<path d="M58.4200 30.3559
L58.5409 30.2955
" />
<path d="M58.5409 30.2955
L58.7224 30.2955
" />
<path d="M58.7224 30.2955
L58.8433 30.3559
" />
<path d="M58.8433 30.3559
L58.9038 30.4769
" />
<path d="M58.9038 30.4769
L58.9038 31.1421
" />
<path d="M59.5085 31.1421
L59.5085 30.2955
" />
<path d="M59.5085 30.4164
L59.5690 30.3559
" />
<path d="M59.5690 30.3559
L59.6900 30.2955
" />
<path d="M59.6900 30.2955
L59.8714 30.2955
" />
<path d="M59.8714 30.2955
L59.9923 30.3559
" />
<path d="M59.9923 30.3559
L60.0528 30.4769
" />
<path d="M60.0528 30.4769
L60.0528 31.1421
" />
<path d="M60.0528 30.4769
L60.1133 30.3559
" />
<path d="M60.1133 30.3559
L60.2342 30.2955
" />
<path d="M60.2342 30.2955
L60.4157 30.2955
" />
<path d="M60.4157 30.2955
L60.5366 30.3559
" />
<path d="M60.5366 30.3559
L60.5971 30.4769
" />
<path d="M60.5971 30.4769
L60.5971 31.1421
" />
</g><text x="38.7049" y="18.4979"
textLength="64.5083" font-size="1.6933" lengthAdjust="spacingAndGlyphs"
text-anchor="middle" opacity="0">http://ww1.microchip.com/downloads/en/DeviceDoc/mic2177.pdf</text>
<g class="stroked-text"><desc>http://ww1.microchip.com/downloads/en/DeviceDoc/mic2177.pdf</desc>
<path d="M6.8643 18.4421
L6.8643 17.1721
" />
<path d="M7.4086 18.4421
L7.4086 17.7769
" />
<path d="M7.4086 17.7769
L7.3481 17.6559
" />
<path d="M7.3481 17.6559
L7.2272 17.5955
" />
<path d="M7.2272 17.5955
L7.0458 17.5955
" />
<path d="M7.0458 17.5955
L6.9248 17.6559
" />
<path d="M6.9248 17.6559
L6.8643 17.7164
" />
<path d="M7.8319 17.5955
L8.3157 17.5955
" />
<path d="M8.0133 17.1721
L8.0133 18.2607
" />
<path d="M8.0133 18.2607
L8.0738 18.3817
" />
<path d="M8.0738 18.3817
L8.1948 18.4421
" />
<path d="M8.1948 18.4421
L8.3157 18.4421
" />
<path d="M8.5576 17.5955
L9.0414 17.5955
" />
<path d="M8.7390 17.1721
L8.7390 18.2607
" />
<path d="M8.7390 18.2607
L8.7995 18.3817
" />
<path d="M8.7995 18.3817
L8.9205 18.4421
" />
<path d="M8.9205 18.4421
L9.0414 18.4421
" />
<path d="M9.4647 17.5955
L9.4647 18.8655
" />
<path d="M9.4647 17.6559
L9.5857 17.5955
" />
<path d="M9.5857 17.5955
L9.8276 17.5955
" />
<path d="M9.8276 17.5955
L9.9485 17.6559
" />
<path d="M9.9485 17.6559
L10.0090 17.7164
" />
<path d="M10.0090 17.7164
L10.0695 17.8374
" />
<path d="M10.0695 17.8374
L10.0695 18.2002
" />
<path d="M10.0695 18.2002
L10.0090 18.3212
" />
<path d="M10.0090 18.3212
L9.9485 18.3817
" />
<path d="M9.9485 18.3817
L9.8276 18.4421
" />
<path d="M9.8276 18.4421
L9.5857 18.4421
" />
<path d="M9.5857 18.4421
L9.4647 18.3817
" />
<path d="M10.6137 18.3212
L10.6742 18.3817
" />
<path d="M10.6742 18.3817
L10.6137 18.4421
" />
<path d="M10.6137 18.4421
L10.5533 18.3817
" />
<path d="M10.5533 18.3817
L10.6137 18.3212
" />
<path d="M10.6137 18.3212
L10.6137 18.4421
" />
<path d="M10.6137 17.6559
L10.6742 17.7164
" />
<path d="M10.6742 17.7164
L10.6137 17.7769
" />
<path d="M10.6137 17.7769
L10.5533 17.7164
" />
<path d="M10.5533 17.7164
L10.6137 17.6559
" />
<path d="M10.6137 17.6559
L10.6137 17.7769
" />
<path d="M12.1257 17.1117
L11.0371 18.7445
" />
<path d="M13.4562 17.1117
L12.3676 18.7445
" />
<path d="M13.7586 17.5955
L14.0005 18.4421
" />
<path d="M14.0005 18.4421
L14.2424 17.8374
" />
<path d="M14.2424 17.8374
L14.4843 18.4421
" />
<path d="M14.4843 18.4421
L14.7262 17.5955
" />
<path d="M15.0891 17.5955
L15.3310 18.4421
" />
<path d="M15.3310 18.4421
L15.5729 17.8374
" />
<path d="M15.5729 17.8374
L15.8148 18.4421
" />
<path d="M15.8148 18.4421
L16.0567 17.5955
" />
<path d="M17.2058 18.4421
L16.4801 18.4421
" />
<path d="M16.8429 18.4421
L16.8429 17.1721
" />
<path d="M16.8429 17.1721
L16.7220 17.3536
" />
<path d="M16.7220 17.3536
L16.6010 17.4745
" />
<path d="M16.6010 17.4745
L16.4801 17.5350
" />
<path d="M17.7500 18.3212
L17.8105 18.3817
" />
<path d="M17.8105 18.3817
L17.7500 18.4421
" />
<path d="M17.7500 18.4421
L17.6896 18.3817
" />
<path d="M17.6896 18.3817
L17.7500 18.3212
" />
<path d="M17.7500 18.3212
L17.7500 18.4421
" />
<path d="M18.3548 18.4421
L18.3548 17.5955
" />
<path d="M18.3548 17.7164
L18.4153 17.6559
" />
<path d="M18.4153 17.6559
L18.5363 17.5955
" />
<path d="M18.5363 17.5955
L18.7177 17.5955
" />
<path d="M18.7177 17.5955
L18.8386 17.6559
" />
<path d="M18.8386 17.6559
L18.8991 17.7769
" />
<path d="M18.8991 17.7769
L18.8991 18.4421
" />
<path d="M18.8991 17.7769
L18.9596 17.6559
" />
<path d="M18.9596 17.6559
L19.0805 17.5955
" />
<path d="M19.0805 17.5955
L19.2620 17.5955
" />
<path d="M19.2620 17.5955
L19.3829 17.6559
" />
<path d="M19.3829 17.6559
L19.4434 17.7769
" />
<path d="M19.4434 17.7769
L19.4434 18.4421
" />
<path d="M20.0481 18.4421
L20.0481 17.5955
" />
<path d="M20.0481 17.1721
L19.9877 17.2326
" />
<path d="M19.9877 17.2326
L20.0481 17.2931
" />
<path d="M20.0481 17.2931
L20.1086 17.2326
" />
<path d="M20.1086 17.2326
L20.0481 17.1721
" />
<path d="M20.0481 17.1721
L20.0481 17.2931
" />
<path d="M21.1972 18.3817
L21.0763 18.4421
" />
<path d="M21.0763 18.4421
L20.8344 18.4421
" />
<path d="M20.8344 18.4421
L20.7134 18.3817
" />
<path d="M20.7134 18.3817
L20.6529 18.3212
" />
<path d="M20.6529 18.3212
L20.5925 18.2002
" />
<path d="M20.5925 18.2002
L20.5925 17.8374
" />
<path d="M20.5925 17.8374
L20.6529 17.7164
" />
<path d="M20.6529 17.7164
L20.7134 17.6559
" />
<path d="M20.7134 17.6559
L20.8344 17.5955
" />
<path d="M20.8344 17.5955
L21.0763 17.5955
" />
<path d="M21.0763 17.5955
L21.1972 17.6559
" />
<path d="M21.7415 18.4421
L21.7415 17.5955
" />
<path d="M21.7415 17.8374
L21.8020 17.7164
" />
<path d="M21.8020 17.7164
L21.8625 17.6559
" />
<path d="M21.8625 17.6559
L21.9834 17.5955
" />
<path d="M21.9834 17.5955
L22.1044 17.5955
" />
<path d="M22.7092 18.4421
L22.5882 18.3817
" />
<path d="M22.5882 18.3817
L22.5277 18.3212
" />
<path d="M22.5277 18.3212
L22.4673 18.2002
" />
<path d="M22.4673 18.2002
L22.4673 17.8374
" />
<path d="M22.4673 17.8374
L22.5277 17.7164
" />
<path d="M22.5277 17.7164
L22.5882 17.6559
" />
<path d="M22.5882 17.6559
L22.7092 17.5955
" />
<path d="M22.7092 17.5955
L22.8906 17.5955
" />
<path d="M22.8906 17.5955
L23.0115 17.6559
" />
<path d="M23.0115 17.6559
L23.0720 17.7164
" />
<path d="M23.0720 17.7164
L23.1325 17.8374
" />
<path d="M23.1325 17.8374
L23.1325 18.2002
" />
<path d="M23.1325 18.2002
L23.0720 18.3212
" />
<path d="M23.0720 18.3212
L23.0115 18.3817
" />
<path d="M23.0115 18.3817
L22.8906 18.4421
" />
<path d="M22.8906 18.4421
L22.7092 18.4421
" />
<path d="M24.2210 18.3817
L24.1001 18.4421
" />
<path d="M24.1001 18.4421
L23.8582 18.4421
" />
<path d="M23.8582 18.4421
L23.7372 18.3817
" />
<path d="M23.7372 18.3817
L23.6767 18.3212
" />
<path d="M23.6767 18.3212
L23.6163 18.2002
" />
<path d="M23.6163 18.2002
L23.6163 17.8374
" />
<path d="M23.6163 17.8374
L23.6767 17.7164
" />
<path d="M23.6767 17.7164
L23.7372 17.6559
" />
<path d="M23.7372 17.6559
L23.8582 17.5955
" />
<path d="M23.8582 17.5955
L24.1001 17.5955
" />
<path d="M24.1001 17.5955
L24.2210 17.6559
" />
<path d="M24.7653 18.4421
L24.7653 17.1721
" />
<path d="M25.3096 18.4421
L25.3096 17.7769
" />
<path d="M25.3096 17.7769
L25.2491 17.6559
" />
<path d="M25.2491 17.6559
L25.1282 17.5955
" />
<path d="M25.1282 17.5955
L24.9468 17.5955
" />
<path d="M24.9468 17.5955
L24.8258 17.6559
" />
<path d="M24.8258 17.6559
L24.7653 17.7164
" />
<path d="M25.9143 18.4421
L25.9143 17.5955
" />
<path d="M25.9143 17.1721
L25.8539 17.2326
" />
<path d="M25.8539 17.2326
L25.9143 17.2931
" />
<path d="M25.9143 17.2931
L25.9748 17.2326
" />
<path d="M25.9748 17.2326
L25.9143 17.1721
" />
<path d="M25.9143 17.1721
L25.9143 17.2931
" />
<path d="M26.5191 17.5955
L26.5191 18.8655
" />
<path d="M26.5191 17.6559
L26.6401 17.5955
" />
<path d="M26.6401 17.5955
L26.8820 17.5955
" />
<path d="M26.8820 17.5955
L27.0029 17.6559
" />
<path d="M27.0029 17.6559
L27.0634 17.7164
" />
<path d="M27.0634 17.7164
L27.1239 17.8374
" />
<path d="M27.1239 17.8374
L27.1239 18.2002
" />
<path d="M27.1239 18.2002
L27.0634 18.3212
" />
<path d="M27.0634 18.3212
L27.0029 18.3817
" />
<path d="M27.0029 18.3817
L26.8820 18.4421
" />
<path d="M26.8820 18.4421
L26.6401 18.4421
" />
<path d="M26.6401 18.4421
L26.5191 18.3817
" />
<path d="M27.6681 18.3212
L27.7286 18.3817
" />
<path d="M27.7286 18.3817
L27.6681 18.4421
" />
<path d="M27.6681 18.4421
L27.6077 18.3817
" />
<path d="M27.6077 18.3817
L27.6681 18.3212
" />
<path d="M27.6681 18.3212
L27.6681 18.4421
" />
<path d="M28.8172 18.3817
L28.6963 18.4421
" />
<path d="M28.6963 18.4421
L28.4544 18.4421
" />
<path d="M28.4544 18.4421
L28.3334 18.3817
" />
<path d="M28.3334 18.3817
L28.2729 18.3212
" />
<path d="M28.2729 18.3212
L28.2125 18.2002
" />
<path d="M28.2125 18.2002
L28.2125 17.8374
" />
<path d="M28.2125 17.8374
L28.2729 17.7164
" />
<path d="M28.2729 17.7164
L28.3334 17.6559
" />
<path d="M28.3334 17.6559
L28.4544 17.5955
" />
<path d="M28.4544 17.5955
L28.6963 17.5955
" />
<path d="M28.6963 17.5955
L28.8172 17.6559
" />
<path d="M29.5430 18.4421
L29.4220 18.3817
" />
<path d="M29.4220 18.3817
L29.3615 18.3212
" />
<path d="M29.3615 18.3212
L29.3011 18.2002
" />
<path d="M29.3011 18.2002
L29.3011 17.8374
" />
<path d="M29.3011 17.8374
L29.3615 17.7164
" />
<path d="M29.3615 17.7164
L29.4220 17.6559
" />
<path d="M29.4220 17.6559
L29.5430 17.5955
" />
<path d="M29.5430 17.5955
L29.7244 17.5955
" />
<path d="M29.7244 17.5955
L29.8453 17.6559
" />
<path d="M29.8453 17.6559
L29.9058 17.7164
" />
<path d="M29.9058 17.7164
L29.9663 17.8374
" />
<path d="M29.9663 17.8374
L29.9663 18.2002
" />
<path d="M29.9663 18.2002
L29.9058 18.3212
" />
<path d="M29.9058 18.3212
L29.8453 18.3817
" />
<path d="M29.8453 18.3817
L29.7244 18.4421
" />
<path d="M29.7244 18.4421
L29.5430 18.4421
" />
<path d="M30.5105 18.4421
L30.5105 17.5955
" />
<path d="M30.5105 17.7164
L30.5710 17.6559
" />
<path d="M30.5710 17.6559
L30.6920 17.5955
" />
<path d="M30.6920 17.5955
L30.8734 17.5955
" />
<path d="M30.8734 17.5955
L30.9943 17.6559
" />
<path d="M30.9943 17.6559
L31.0548 17.7769
" />
<path d="M31.0548 17.7769
L31.0548 18.4421
" />
<path d="M31.0548 17.7769
L31.1153 17.6559
" />
<path d="M31.1153 17.6559
L31.2362 17.5955
" />
<path d="M31.2362 17.5955
L31.4177 17.5955
" />
<path d="M31.4177 17.5955
L31.5386 17.6559
" />
<path d="M31.5386 17.6559
L31.5991 17.7769
" />
<path d="M31.5991 17.7769
L31.5991 18.4421
" />
<path d="M33.1110 17.1117
L32.0224 18.7445
" />
<path d="M34.0786 18.4421
L34.0786 17.1721
" />
<path d="M34.0786 18.3817
L33.9577 18.4421
" />
<path d="M33.9577 18.4421
L33.7158 18.4421
" />
<path d="M33.7158 18.4421
L33.5948 18.3817
" />
<path d="M33.5948 18.3817
L33.5343 18.3212
" />
<path d="M33.5343 18.3212
L33.4739 18.2002
" />
<path d="M33.4739 18.2002
L33.4739 17.8374
" />
<path d="M33.4739 17.8374
L33.5343 17.7164
" />
<path d="M33.5343 17.7164
L33.5948 17.6559
" />
<path d="M33.5948 17.6559
L33.7158 17.5955
" />
<path d="M33.7158 17.5955
L33.9577 17.5955
" />
<path d="M33.9577 17.5955
L34.0786 17.6559
" />
<path d="M34.8648 18.4421
L34.7438 18.3817
" />
<path d="M34.7438 18.3817
L34.6833 18.3212
" />
<path d="M34.6833 18.3212
L34.6229 18.2002
" />
<path d="M34.6229 18.2002
L34.6229 17.8374
" />
<path d="M34.6229 17.8374
L34.6833 17.7164
" />
<path d="M34.6833 17.7164
L34.7438 17.6559
" />
<path d="M34.7438 17.6559
L34.8648 17.5955
" />
<path d="M34.8648 17.5955
L35.0462 17.5955
" />
<path d="M35.0462 17.5955
L35.1671 17.6559
" />
<path d="M35.1671 17.6559
L35.2276 17.7164
" />
<path d="M35.2276 17.7164
L35.2881 17.8374
" />
<path d="M35.2881 17.8374
L35.2881 18.2002
" />
<path d="M35.2881 18.2002
L35.2276 18.3212
" />
<path d="M35.2276 18.3212
L35.1671 18.3817
" />
<path d="M35.1671 18.3817
L35.0462 18.4421
" />
<path d="M35.0462 18.4421
L34.8648 18.4421
" />
<path d="M35.7114 17.5955
L35.9533 18.4421
" />
<path d="M35.9533 18.4421
L36.1952 17.8374
" />
<path d="M36.1952 17.8374
L36.4371 18.4421
" />
<path d="M36.4371 18.4421
L36.6790 17.5955
" />
<path d="M37.1628 17.5955
L37.1628 18.4421
" />
<path d="M37.1628 17.7164
L37.2233 17.6559
" />
<path d="M37.2233 17.6559
L37.3443 17.5955
" />
<path d="M37.3443 17.5955
L37.5257 17.5955
" />
<path d="M37.5257 17.5955
L37.6466 17.6559
" />
<path d="M37.6466 17.6559
L37.7071 17.7769
" />
<path d="M37.7071 17.7769
L37.7071 18.4421
" />
<path d="M38.4933 18.4421
L38.3723 18.3817
" />
<path d="M38.3723 18.3817
L38.3118 18.2607
" />
<path d="M38.3118 18.2607
L38.3118 17.1721
" />
<path d="M39.1585 18.4421
L39.0375 18.3817
" />
<path d="M39.0375 18.3817
L38.9770 18.3212
" />
<path d="M38.9770 18.3212
L38.9166 18.2002
" />
<path d="M38.9166 18.2002
L38.9166 17.8374
" />
<path d="M38.9166 17.8374
L38.9770 17.7164
" />
<path d="M38.9770 17.7164
L39.0375 17.6559
" />
<path d="M39.0375 17.6559
L39.1585 17.5955
" />
<path d="M39.1585 17.5955
L39.3399 17.5955
" />
<path d="M39.3399 17.5955
L39.4608 17.6559
" />
<path d="M39.4608 17.6559
L39.5213 17.7164
" />
<path d="M39.5213 17.7164
L39.5818 17.8374
" />
<path d="M39.5818 17.8374
L39.5818 18.2002
" />
<path d="M39.5818 18.2002
L39.5213 18.3212
" />
<path d="M39.5213 18.3212
L39.4608 18.3817
" />
<path d="M39.4608 18.3817
L39.3399 18.4421
" />
<path d="M39.3399 18.4421
L39.1585 18.4421
" />
<path d="M40.6703 18.4421
L40.6703 17.7769
" />
<path d="M40.6703 17.7769
L40.6098 17.6559
" />
<path d="M40.6098 17.6559
L40.4889 17.5955
" />
<path d="M40.4889 17.5955
L40.2470 17.5955
" />
<path d="M40.2470 17.5955
L40.1260 17.6559
" />
<path d="M40.6703 18.3817
L40.5494 18.4421
" />
<path d="M40.5494 18.4421
L40.2470 18.4421
" />
<path d="M40.2470 18.4421
L40.1260 18.3817
" />
<path d="M40.1260 18.3817
L40.0656 18.2607
" />
<path d="M40.0656 18.2607
L40.0656 18.1397
" />
<path d="M40.0656 18.1397
L40.1260 18.0188
" />
<path d="M40.1260 18.0188
L40.2470 17.9583
" />
<path d="M40.2470 17.9583
L40.5494 17.9583
" />
<path d="M40.5494 17.9583
L40.6703 17.8978
" />
<path d="M41.8193 18.4421
L41.8193 17.1721
" />
<path d="M41.8193 18.3817
L41.6984 18.4421
" />
<path d="M41.6984 18.4421
L41.4565 18.4421
" />
<path d="M41.4565 18.4421
L41.3355 18.3817
" />
<path d="M41.3355 18.3817
L41.2750 18.3212
" />
<path d="M41.2750 18.3212
L41.2146 18.2002
" />
<path d="M41.2146 18.2002
L41.2146 17.8374
" />
<path d="M41.2146 17.8374
L41.2750 17.7164
" />
<path d="M41.2750 17.7164
L41.3355 17.6559
" />
<path d="M41.3355 17.6559
L41.4565 17.5955
" />
<path d="M41.4565 17.5955
L41.6984 17.5955
" />
<path d="M41.6984 17.5955
L41.8193 17.6559
" />
<path d="M42.3636 18.3817
L42.4845 18.4421
" />
<path d="M42.4845 18.4421
L42.7264 18.4421
" />
<path d="M42.7264 18.4421
L42.8474 18.3817
" />
<path d="M42.8474 18.3817
L42.9078 18.2607
" />
<path d="M42.9078 18.2607
L42.9078 18.2002
" />
<path d="M42.9078 18.2002
L42.8474 18.0793
" />
<path d="M42.8474 18.0793
L42.7264 18.0188
" />
<path d="M42.7264 18.0188
L42.5450 18.0188
" />
<path d="M42.5450 18.0188
L42.4240 17.9583
" />
<path d="M42.4240 17.9583
L42.3636 17.8374
" />
<path d="M42.3636 17.8374
L42.3636 17.7769
" />
<path d="M42.3636 17.7769
L42.4240 17.6559
" />
<path d="M42.4240 17.6559
L42.5450 17.5955
" />
<path d="M42.5450 17.5955
L42.7264 17.5955
" />
<path d="M42.7264 17.5955
L42.8474 17.6559
" />
<path d="M44.3593 17.1117
L43.2707 18.7445
" />
<path d="M45.2664 18.3817
L45.1455 18.4421
" />
<path d="M45.1455 18.4421
L44.9036 18.4421
" />
<path d="M44.9036 18.4421
L44.7826 18.3817
" />
<path d="M44.7826 18.3817
L44.7222 18.2607
" />
<path d="M44.7222 18.2607
L44.7222 17.7769
" />
<path d="M44.7222 17.7769
L44.7826 17.6559
" />
<path d="M44.7826 17.6559
L44.9036 17.5955
" />
<path d="M44.9036 17.5955
L45.1455 17.5955
" />
<path d="M45.1455 17.5955
L45.2664 17.6559
" />
<path d="M45.2664 17.6559
L45.3269 17.7769
" />
<path d="M45.3269 17.7769
L45.3269 17.8978
" />
<path d="M45.3269 17.8978
L44.7222 18.0188
" />
<path d="M45.8712 17.5955
L45.8712 18.4421
" />
<path d="M45.8712 17.7164
L45.9317 17.6559
" />
<path d="M45.9317 17.6559
L46.0527 17.5955
" />
<path d="M46.0527 17.5955
L46.2341 17.5955
" />
<path d="M46.2341 17.5955
L46.3550 17.6559
" />
<path d="M46.3550 17.6559
L46.4155 17.7769
" />
<path d="M46.4155 17.7769
L46.4155 18.4421
" />
<path d="M47.9274 17.1117
L46.8388 18.7445
" />
<path d="M48.3507 18.4421
L48.3507 17.1721
" />
<path d="M48.3507 17.1721
L48.6531 17.1721
" />
<path d="M48.6531 17.1721
L48.8345 17.2326
" />
<path d="M48.8345 17.2326
L48.9555 17.3536
" />
<path d="M48.9555 17.3536
L49.0160 17.4745
" />
<path d="M49.0160 17.4745
L49.0764 17.7164
" />
<path d="M49.0764 17.7164
L49.0764 17.8978
" />
<path d="M49.0764 17.8978
L49.0160 18.1397
" />
<path d="M49.0160 18.1397
L48.9555 18.2607
" />
<path d="M48.9555 18.2607
L48.8345 18.3817
" />
<path d="M48.8345 18.3817
L48.6531 18.4421
" />
<path d="M48.6531 18.4421
L48.3507 18.4421
" />
<path d="M50.1045 18.3817
L49.9836 18.4421
" />
<path d="M49.9836 18.4421
L49.7417 18.4421
" />
<path d="M49.7417 18.4421
L49.6207 18.3817
" />
<path d="M49.6207 18.3817
L49.5603 18.2607
" />
<path d="M49.5603 18.2607
L49.5603 17.7769
" />
<path d="M49.5603 17.7769
L49.6207 17.6559
" />
<path d="M49.6207 17.6559
L49.7417 17.5955
" />
<path d="M49.7417 17.5955
L49.9836 17.5955
" />
<path d="M49.9836 17.5955
L50.1045 17.6559
" />
<path d="M50.1045 17.6559
L50.1650 17.7769
" />
<path d="M50.1650 17.7769
L50.1650 17.8978
" />
<path d="M50.1650 17.8978
L49.5603 18.0188
" />
<path d="M50.5884 17.5955
L50.8908 18.4421
" />
<path d="M50.8908 18.4421
L51.1931 17.5955
" />
<path d="M51.6769 18.4421
L51.6769 17.5955
" />
<path d="M51.6769 17.1721
L51.6165 17.2326
" />
<path d="M51.6165 17.2326
L51.6769 17.2931
" />
<path d="M51.6769 17.2931
L51.7374 17.2326
" />
<path d="M51.7374 17.2326
L51.6769 17.1721
" />
<path d="M51.6769 17.1721
L51.6769 17.2931
" />
<path d="M52.8260 18.3817
L52.7051 18.4421
" />
<path d="M52.7051 18.4421
L52.4632 18.4421
" />
<path d="M52.4632 18.4421
L52.3422 18.3817
" />
<path d="M52.3422 18.3817
L52.2817 18.3212
" />
<path d="M52.2817 18.3212
L52.2213 18.2002
" />
<path d="M52.2213 18.2002
L52.2213 17.8374
" />
<path d="M52.2213 17.8374
L52.2817 17.7164
" />
<path d="M52.2817 17.7164
L52.3422 17.6559
" />
<path d="M52.3422 17.6559
L52.4632 17.5955
" />
<path d="M52.4632 17.5955
L52.7051 17.5955
" />
<path d="M52.7051 17.5955
L52.8260 17.6559
" />
<path d="M53.8541 18.3817
L53.7332 18.4421
" />
<path d="M53.7332 18.4421
L53.4913 18.4421
" />
<path d="M53.4913 18.4421
L53.3703 18.3817
" />
<path d="M53.3703 18.3817
L53.3099 18.2607
" />
<path d="M53.3099 18.2607
L53.3099 17.7769
" />
<path d="M53.3099 17.7769
L53.3703 17.6559
" />
<path d="M53.3703 17.6559
L53.4913 17.5955
" />
<path d="M53.4913 17.5955
L53.7332 17.5955
" />
<path d="M53.7332 17.5955
L53.8541 17.6559
" />
<path d="M53.8541 17.6559
L53.9146 17.7769
" />
<path d="M53.9146 17.7769
L53.9146 17.8978
" />
<path d="M53.9146 17.8978
L53.3099 18.0188
" />
<path d="M54.4589 18.4421
L54.4589 17.1721
" />
<path d="M54.4589 17.1721
L54.7613 17.1721
" />
<path d="M54.7613 17.1721
L54.9427 17.2326
" />
<path d="M54.9427 17.2326
L55.0637 17.3536
" />
<path d="M55.0637 17.3536
L55.1242 17.4745
" />
<path d="M55.1242 17.4745
L55.1846 17.7164
" />
<path d="M55.1846 17.7164
L55.1846 17.8978
" />
<path d="M55.1846 17.8978
L55.1242 18.1397
" />
<path d="M55.1242 18.1397
L55.0637 18.2607
" />
<path d="M55.0637 18.2607
L54.9427 18.3817
" />
<path d="M54.9427 18.3817
L54.7613 18.4421
" />
<path d="M54.7613 18.4421
L54.4589 18.4421
" />
<path d="M55.9104 18.4421
L55.7894 18.3817
" />
<path d="M55.7894 18.3817
L55.7289 18.3212
" />
<path d="M55.7289 18.3212
L55.6685 18.2002
" />
<path d="M55.6685 18.2002
L55.6685 17.8374
" />
<path d="M55.6685 17.8374
L55.7289 17.7164
" />
<path d="M55.7289 17.7164
L55.7894 17.6559
" />
<path d="M55.7894 17.6559
L55.9104 17.5955
" />
<path d="M55.9104 17.5955
L56.0918 17.5955
" />
<path d="M56.0918 17.5955
L56.2127 17.6559
" />
<path d="M56.2127 17.6559
L56.2732 17.7164
" />
<path d="M56.2732 17.7164
L56.3337 17.8374
" />
<path d="M56.3337 17.8374
L56.3337 18.2002
" />
<path d="M56.3337 18.2002
L56.2732 18.3212
" />
<path d="M56.2732 18.3212
L56.2127 18.3817
" />
<path d="M56.2127 18.3817
L56.0918 18.4421
" />
<path d="M56.0918 18.4421
L55.9104 18.4421
" />
<path d="M57.4222 18.3817
L57.3013 18.4421
" />
<path d="M57.3013 18.4421
L57.0594 18.4421
" />
<path d="M57.0594 18.4421
L56.9384 18.3817
" />
<path d="M56.9384 18.3817
L56.8779 18.3212
" />
<path d="M56.8779 18.3212
L56.8175 18.2002
" />
<path d="M56.8175 18.2002
L56.8175 17.8374
" />
<path d="M56.8175 17.8374
L56.8779 17.7164
" />
<path d="M56.8779 17.7164
L56.9384 17.6559
" />
<path d="M56.9384 17.6559
L57.0594 17.5955
" />
<path d="M57.0594 17.5955
L57.3013 17.5955
" />
<path d="M57.3013 17.5955
L57.4222 17.6559
" />
<path d="M58.8737 17.1117
L57.7851 18.7445
" />
<path d="M59.2970 18.4421
L59.2970 17.5955
" />
<path d="M59.2970 17.7164
L59.3575 17.6559
" />
<path d="M59.3575 17.6559
L59.4785 17.5955
" />
<path d="M59.4785 17.5955
L59.6599 17.5955
" />
<path d="M59.6599 17.5955
L59.7808 17.6559
" />
<path d="M59.7808 17.6559
L59.8413 17.7769
" />
<path d="M59.8413 17.7769
L59.8413 18.4421
" />
<path d="M59.8413 17.7769
L59.9018 17.6559
" />
<path d="M59.9018 17.6559
L60.0227 17.5955
" />
<path d="M60.0227 17.5955
L60.2042 17.5955
" />
<path d="M60.2042 17.5955
L60.3251 17.6559
" />
<path d="M60.3251 17.6559
L60.3856 17.7769
" />
<path d="M60.3856 17.7769
L60.3856 18.4421
" />
<path d="M60.9903 18.4421
L60.9903 17.5955
" />
<path d="M60.9903 17.1721
L60.9299 17.2326
" />
<path d="M60.9299 17.2326
L60.9903 17.2931
" />
<path d="M60.9903 17.2931
L61.0508 17.2326
" />
<path d="M61.0508 17.2326
L60.9903 17.1721
" />
<path d="M60.9903 17.1721
L60.9903 17.2931
" />
<path d="M62.1394 18.3817
L62.0185 18.4421
" />
<path d="M62.0185 18.4421
L61.7766 18.4421
" />
<path d="M61.7766 18.4421
L61.6556 18.3817
" />
<path d="M61.6556 18.3817
L61.5951 18.3212
" />
<path d="M61.5951 18.3212
L61.5347 18.2002
" />
<path d="M61.5347 18.2002
L61.5347 17.8374
" />
<path d="M61.5347 17.8374
L61.5951 17.7164
" />
<path d="M61.5951 17.7164
L61.6556 17.6559
" />
<path d="M61.6556 17.6559
L61.7766 17.5955
" />
<path d="M61.7766 17.5955
L62.0185 17.5955
" />
<path d="M62.0185 17.5955
L62.1394 17.6559
" />
<path d="M62.6233 17.2931
L62.6837 17.2326
" />
<path d="M62.6837 17.2326
L62.8047 17.1721
" />
<path d="M62.8047 17.1721
L63.1071 17.1721
" />
<path d="M63.1071 17.1721
L63.2280 17.2326
" />
<path d="M63.2280 17.2326
L63.2885 17.2931
" />
<path d="M63.2885 17.2931
L63.3490 17.4140
" />
<path d="M63.3490 17.4140
L63.3490 17.5350
" />
<path d="M63.3490 17.5350
L63.2885 17.7164
" />
<path d="M63.2885 17.7164
L62.5628 18.4421
" />
<path d="M62.5628 18.4421
L63.3490 18.4421
" />
<path d="M64.5585 18.4421
L63.8328 18.4421
" />
<path d="M64.1956 18.4421
L64.1956 17.1721
" />
<path d="M64.1956 17.1721
L64.0747 17.3536
" />
<path d="M64.0747 17.3536
L63.9537 17.4745
" />
<path d="M63.9537 17.4745
L63.8328 17.5350
" />
<path d="M64.9818 17.1721
L65.8284 17.1721
" />
<path d="M65.8284 17.1721
L65.2842 18.4421
" />
<path d="M66.1913 17.1721
L67.0379 17.1721
" />
<path d="M67.0379 17.1721
L66.4937 18.4421
" />
<path d="M67.5217 18.3212
L67.5822 18.3817
" />
<path d="M67.5822 18.3817
L67.5217 18.4421
" />
<path d="M67.5217 18.4421
L67.4613 18.3817
" />
<path d="M67.4613 18.3817
L67.5217 18.3212
" />
<path d="M67.5217 18.3212
L67.5217 18.4421
" />
<path d="M68.1265 17.5955
L68.1265 18.8655
" />
<path d="M68.1265 17.6559
L68.2475 17.5955
" />
<path d="M68.2475 17.5955
L68.4894 17.5955
" />
<path d="M68.4894 17.5955
L68.6103 17.6559
" />
<path d="M68.6103 17.6559
L68.6708 17.7164
" />
<path d="M68.6708 17.7164
L68.7313 17.8374
" />
<path d="M68.7313 17.8374
L68.7313 18.2002
" />
<path d="M68.7313 18.2002
L68.6708 18.3212
" />
<path d="M68.6708 18.3212
L68.6103 18.3817
" />
<path d="M68.6103 18.3817
L68.4894 18.4421
" />
<path d="M68.4894 18.4421
L68.2475 18.4421
" />
<path d="M68.2475 18.4421
L68.1265 18.3817
" />
<path d="M69.8198 18.4421
L69.8198 17.1721
" />
<path d="M69.8198 18.3817
L69.6989 18.4421
" />
<path d="M69.6989 18.4421
L69.4570 18.4421
" />
<path d="M69.4570 18.4421
L69.3360 18.3817
" />
<path d="M69.3360 18.3817
L69.2755 18.3212
" />
<path d="M69.2755 18.3212
L69.2151 18.2002
" />
<path d="M69.2151 18.2002
L69.2151 17.8374
" />
<path d="M69.2151 17.8374
L69.2755 17.7164
" />
<path d="M69.2755 17.7164
L69.3360 17.6559
" />
<path d="M69.3360 17.6559
L69.4570 17.5955
" />
<path d="M69.4570 17.5955
L69.6989 17.5955
" />
<path d="M69.6989 17.5955
L69.8198 17.6559
" />
<path d="M70.2431 17.5955
L70.7269 17.5955
" />
<path d="M70.4245 18.4421
L70.4245 17.3536
" />
<path d="M70.4245 17.3536
L70.4850 17.2326
" />
<path d="M70.4850 17.2326
L70.6060 17.1721
" />
<path d="M70.6060 17.1721
L70.7269 17.1721
" />
</g></g> 
</svg>
