<?xml version="1.0" standalone="no"?>
 <!DOCTYPE svg PUBLIC "-//W3C//DTD SVG 1.1//EN" 
 "http://www.w3.org/Graphics/SVG/1.1/DTD/svg11.dtd"> 
<svg
  xmlns:svg="http://www.w3.org/2000/svg"
  xmlns="http://www.w3.org/2000/svg"
  xmlns:xlink="http://www.w3.org/1999/xlink"
  version="1.1"
  width="42.7736mm" height="90.7288mm" viewBox="0.0000 0.0000 42.7736 90.7288">
<title>SVG Image created as working.svg date 2023/08/30 23:34:41 </title>
  <desc>Image generated by Eeschema-SVG </desc>
<g style="fill:#000000; fill-opacity:1.0000;stroke:#000000; stroke-opacity:1.0000;
stroke-linecap:round; stroke-linejoin:round;"
 transform="translate(0 0) scale(1 1)">
</g>
<g style="fill:#840000; fill-opacity:0.0; 
stroke:#840000; stroke-width:0.0000; stroke-opacity:1; 
stroke-linecap:round; stroke-linejoin:round;">
</g>
<g style="fill:#840084; fill-opacity:0.0; 
stroke:#840084; stroke-width:0.0000; stroke-opacity:1; 
stroke-linecap:round; stroke-linejoin:round;">
</g>
<g style="fill:#840000; fill-opacity:0.0; 
stroke:#840000; stroke-width:0.0000; stroke-opacity:1; 
stroke-linecap:round; stroke-linejoin:round;">
</g>
<g style="fill:#840084; fill-opacity:0.0; 
stroke:#840084; stroke-width:0.0000; stroke-opacity:1; 
stroke-linecap:round; stroke-linejoin:round;">
</g>
<g style="fill:#006464; fill-opacity:0.0; 
stroke:#006464; stroke-width:0.0000; stroke-opacity:1; 
stroke-linecap:round; stroke-linejoin:round;">
</g>
<g style="fill:#006464; fill-opacity:0.0; 
stroke:#006464; stroke-width:0.1588; stroke-opacity:1; 
stroke-linecap:round; stroke-linejoin:round;">
<text x="10.9877" y="78.9621"
textLength="2.6415" font-size="1.6933" lengthAdjust="spacingAndGlyphs"
text-anchor="middle" opacity="0">Q?</text>
<g class="stroked-text"><desc>Q?</desc>
<path d="M10.9272 79.0273
L10.8062 78.9668
" />
<path d="M10.8062 78.9668
L10.6853 78.8459
" />
<path d="M10.6853 78.8459
L10.5039 78.6644
" />
<path d="M10.5039 78.6644
L10.3829 78.6039
" />
<path d="M10.3829 78.6039
L10.2620 78.6039
" />
<path d="M10.3224 78.9063
L10.2015 78.8459
" />
<path d="M10.2015 78.8459
L10.0805 78.7249
" />
<path d="M10.0805 78.7249
L10.0201 78.4830
" />
<path d="M10.0201 78.4830
L10.0201 78.0597
" />
<path d="M10.0201 78.0597
L10.0805 77.8178
" />
<path d="M10.0805 77.8178
L10.2015 77.6968
" />
<path d="M10.2015 77.6968
L10.3224 77.6363
" />
<path d="M10.3224 77.6363
L10.5643 77.6363
" />
<path d="M10.5643 77.6363
L10.6853 77.6968
" />
<path d="M10.6853 77.6968
L10.8062 77.8178
" />
<path d="M10.8062 77.8178
L10.8667 78.0597
" />
<path d="M10.8667 78.0597
L10.8667 78.4830
" />
<path d="M10.8667 78.4830
L10.8062 78.7249
" />
<path d="M10.8062 78.7249
L10.6853 78.8459
" />
<path d="M10.6853 78.8459
L10.5643 78.9063
" />
<path d="M10.5643 78.9063
L10.3224 78.9063
" />
<path d="M11.5925 78.7854
L11.6529 78.8459
" />
<path d="M11.6529 78.8459
L11.5925 78.9063
" />
<path d="M11.5925 78.9063
L11.5320 78.8459
" />
<path d="M11.5320 78.8459
L11.5925 78.7854
" />
<path d="M11.5925 78.7854
L11.5925 78.9063
" />
<path d="M11.3506 77.6968
L11.4715 77.6363
" />
<path d="M11.4715 77.6363
L11.7739 77.6363
" />
<path d="M11.7739 77.6363
L11.8948 77.6968
" />
<path d="M11.8948 77.6968
L11.9553 77.8178
" />
<path d="M11.9553 77.8178
L11.9553 77.9387
" />
<path d="M11.9553 77.9387
L11.8948 78.0597
" />
<path d="M11.8948 78.0597
L11.8344 78.1201
" />
<path d="M11.8344 78.1201
L11.7134 78.1806
" />
<path d="M11.7134 78.1806
L11.6529 78.2411
" />
<path d="M11.6529 78.2411
L11.5925 78.3620
" />
<path d="M11.5925 78.3620
L11.5925 78.4225
" />
</g><text x="18.6378" y="80.8671"
textLength="17.9417" font-size="1.6933" lengthAdjust="spacingAndGlyphs"
text-anchor="middle" opacity="0">BUK9M120-100EX</text>
<g class="stroked-text"><desc>BUK9M120-100EX</desc>
<path d="M10.5039 80.1461
L10.6853 80.2066
" />
<path d="M10.6853 80.2066
L10.7458 80.2670
" />
<path d="M10.7458 80.2670
L10.8062 80.3880
" />
<path d="M10.8062 80.3880
L10.8062 80.5694
" />
<path d="M10.8062 80.5694
L10.7458 80.6904
" />
<path d="M10.7458 80.6904
L10.6853 80.7509
" />
<path d="M10.6853 80.7509
L10.5643 80.8113
" />
<path d="M10.5643 80.8113
L10.0805 80.8113
" />
<path d="M10.0805 80.8113
L10.0805 79.5413
" />
<path d="M10.0805 79.5413
L10.5039 79.5413
" />
<path d="M10.5039 79.5413
L10.6248 79.6018
" />
<path d="M10.6248 79.6018
L10.6853 79.6623
" />
<path d="M10.6853 79.6623
L10.7458 79.7832
" />
<path d="M10.7458 79.7832
L10.7458 79.9042
" />
<path d="M10.7458 79.9042
L10.6853 80.0251
" />
<path d="M10.6853 80.0251
L10.6248 80.0856
" />
<path d="M10.6248 80.0856
L10.5039 80.1461
" />
<path d="M10.5039 80.1461
L10.0805 80.1461
" />
<path d="M11.3505 79.5413
L11.3505 80.5694
" />
<path d="M11.3505 80.5694
L11.4110 80.6904
" />
<path d="M11.4110 80.6904
L11.4715 80.7509
" />
<path d="M11.4715 80.7509
L11.5924 80.8113
" />
<path d="M11.5924 80.8113
L11.8343 80.8113
" />
<path d="M11.8343 80.8113
L11.9553 80.7509
" />
<path d="M11.9553 80.7509
L12.0158 80.6904
" />
<path d="M12.0158 80.6904
L12.0762 80.5694
" />
<path d="M12.0762 80.5694
L12.0762 79.5413
" />
<path d="M12.6810 80.8113
L12.6810 79.5413
" />
<path d="M13.4067 80.8113
L12.8625 80.0856
" />
<path d="M13.4067 79.5413
L12.6810 80.2670
" />
<path d="M14.0115 80.8113
L14.2534 80.8113
" />
<path d="M14.2534 80.8113
L14.3744 80.7509
" />
<path d="M14.3744 80.7509
L14.4348 80.6904
" />
<path d="M14.4348 80.6904
L14.5558 80.5089
" />
<path d="M14.5558 80.5089
L14.6163 80.2670
" />
<path d="M14.6163 80.2670
L14.6163 79.7832
" />
<path d="M14.6163 79.7832
L14.5558 79.6623
" />
<path d="M14.5558 79.6623
L14.4953 79.6018
" />
<path d="M14.4953 79.6018
L14.3744 79.5413
" />
<path d="M14.3744 79.5413
L14.1325 79.5413
" />
<path d="M14.1325 79.5413
L14.0115 79.6018
" />
<path d="M14.0115 79.6018
L13.9510 79.6623
" />
<path d="M13.9510 79.6623
L13.8906 79.7832
" />
<path d="M13.8906 79.7832
L13.8906 80.0856
" />
<path d="M13.8906 80.0856
L13.9510 80.2066
" />
<path d="M13.9510 80.2066
L14.0115 80.2670
" />
<path d="M14.0115 80.2670
L14.1325 80.3275
" />
<path d="M14.1325 80.3275
L14.3744 80.3275
" />
<path d="M14.3744 80.3275
L14.4953 80.2670
" />
<path d="M14.4953 80.2670
L14.5558 80.2066
" />
<path d="M14.5558 80.2066
L14.6163 80.0856
" />
<path d="M15.1605 80.8113
L15.1605 79.5413
" />
<path d="M15.1605 79.5413
L15.5839 80.4485
" />
<path d="M15.5839 80.4485
L16.0072 79.5413
" />
<path d="M16.0072 79.5413
L16.0072 80.8113
" />
<path d="M17.2772 80.8113
L16.5515 80.8113
" />
<path d="M16.9143 80.8113
L16.9143 79.5413
" />
<path d="M16.9143 79.5413
L16.7934 79.7228
" />
<path d="M16.7934 79.7228
L16.6724 79.8437
" />
<path d="M16.6724 79.8437
L16.5515 79.9042
" />
<path d="M17.7610 79.6623
L17.8214 79.6018
" />
<path d="M17.8214 79.6018
L17.9424 79.5413
" />
<path d="M17.9424 79.5413
L18.2448 79.5413
" />
<path d="M18.2448 79.5413
L18.3657 79.6018
" />
<path d="M18.3657 79.6018
L18.4262 79.6623
" />
<path d="M18.4262 79.6623
L18.4867 79.7832
" />
<path d="M18.4867 79.7832
L18.4867 79.9042
" />
<path d="M18.4867 79.9042
L18.4262 80.0856
" />
<path d="M18.4262 80.0856
L17.7005 80.8113
" />
<path d="M17.7005 80.8113
L18.4867 80.8113
" />
<path d="M19.2728 79.5413
L19.3938 79.5413
" />
<path d="M19.3938 79.5413
L19.5147 79.6018
" />
<path d="M19.5147 79.6018
L19.5752 79.6623
" />
<path d="M19.5752 79.6623
L19.6357 79.7832
" />
<path d="M19.6357 79.7832
L19.6962 80.0251
" />
<path d="M19.6962 80.0251
L19.6962 80.3275
" />
<path d="M19.6962 80.3275
L19.6357 80.5694
" />
<path d="M19.6357 80.5694
L19.5752 80.6904
" />
<path d="M19.5752 80.6904
L19.5147 80.7509
" />
<path d="M19.5147 80.7509
L19.3938 80.8113
" />
<path d="M19.3938 80.8113
L19.2728 80.8113
" />
<path d="M19.2728 80.8113
L19.1519 80.7509
" />
<path d="M19.1519 80.7509
L19.0914 80.6904
" />
<path d="M19.0914 80.6904
L19.0309 80.5694
" />
<path d="M19.0309 80.5694
L18.9705 80.3275
" />
<path d="M18.9705 80.3275
L18.9705 80.0251
" />
<path d="M18.9705 80.0251
L19.0309 79.7832
" />
<path d="M19.0309 79.7832
L19.0914 79.6623
" />
<path d="M19.0914 79.6623
L19.1519 79.6018
" />
<path d="M19.1519 79.6018
L19.2728 79.5413
" />
<path d="M20.2404 80.3275
L21.2081 80.3275
" />
<path d="M22.4781 80.8113
L21.7524 80.8113
" />
<path d="M22.1152 80.8113
L22.1152 79.5413
" />
<path d="M22.1152 79.5413
L21.9943 79.7228
" />
<path d="M21.9943 79.7228
L21.8733 79.8437
" />
<path d="M21.8733 79.8437
L21.7524 79.9042
" />
<path d="M23.2642 79.5413
L23.3852 79.5413
" />
<path d="M23.3852 79.5413
L23.5061 79.6018
" />
<path d="M23.5061 79.6018
L23.5666 79.6623
" />
<path d="M23.5666 79.6623
L23.6271 79.7832
" />
<path d="M23.6271 79.7832
L23.6876 80.0251
" />
<path d="M23.6876 80.0251
L23.6876 80.3275
" />
<path d="M23.6876 80.3275
L23.6271 80.5694
" />
<path d="M23.6271 80.5694
L23.5666 80.6904
" />
<path d="M23.5666 80.6904
L23.5061 80.7509
" />
<path d="M23.5061 80.7509
L23.3852 80.8113
" />
<path d="M23.3852 80.8113
L23.2642 80.8113
" />
<path d="M23.2642 80.8113
L23.1433 80.7509
" />
<path d="M23.1433 80.7509
L23.0828 80.6904
" />
<path d="M23.0828 80.6904
L23.0223 80.5694
" />
<path d="M23.0223 80.5694
L22.9619 80.3275
" />
<path d="M22.9619 80.3275
L22.9619 80.0251
" />
<path d="M22.9619 80.0251
L23.0223 79.7832
" />
<path d="M23.0223 79.7832
L23.0828 79.6623
" />
<path d="M23.0828 79.6623
L23.1433 79.6018
" />
<path d="M23.1433 79.6018
L23.2642 79.5413
" />
<path d="M24.4737 79.5413
L24.5947 79.5413
" />
<path d="M24.5947 79.5413
L24.7156 79.6018
" />
<path d="M24.7156 79.6018
L24.7761 79.6623
" />
<path d="M24.7761 79.6623
L24.8366 79.7832
" />
<path d="M24.8366 79.7832
L24.8971 80.0251
" />
<path d="M24.8971 80.0251
L24.8971 80.3275
" />
<path d="M24.8971 80.3275
L24.8366 80.5694
" />
<path d="M24.8366 80.5694
L24.7761 80.6904
" />
<path d="M24.7761 80.6904
L24.7156 80.7509
" />
<path d="M24.7156 80.7509
L24.5947 80.8113
" />
<path d="M24.5947 80.8113
L24.4737 80.8113
" />
<path d="M24.4737 80.8113
L24.3528 80.7509
" />
<path d="M24.3528 80.7509
L24.2923 80.6904
" />
<path d="M24.2923 80.6904
L24.2318 80.5694
" />
<path d="M24.2318 80.5694
L24.1714 80.3275
" />
<path d="M24.1714 80.3275
L24.1714 80.0251
" />
<path d="M24.1714 80.0251
L24.2318 79.7832
" />
<path d="M24.2318 79.7832
L24.2923 79.6623
" />
<path d="M24.2923 79.6623
L24.3528 79.6018
" />
<path d="M24.3528 79.6018
L24.4737 79.5413
" />
<path d="M25.4413 80.1461
L25.8647 80.1461
" />
<path d="M26.0461 80.8113
L25.4413 80.8113
" />
<path d="M25.4413 80.8113
L25.4413 79.5413
" />
<path d="M25.4413 79.5413
L26.0461 79.5413
" />
<path d="M26.4694 79.5413
L27.3160 80.8113
" />
<path d="M27.3160 79.5413
L26.4694 80.8113
" />
</g></g>
<g style="fill:#840084; fill-opacity:0.0; 
stroke:#840084; stroke-width:0.1588; stroke-opacity:1; 
stroke-linecap:round; stroke-linejoin:round;">
<text x="24.4436" y="82.7721"
textLength="29.5532" font-size="1.6933" lengthAdjust="spacingAndGlyphs"
text-anchor="middle" opacity="0">Package_TO_SOT_SMD:LFPAK33</text>
<g class="stroked-text"><desc>Package_TO_SOT_SMD:LFPAK33</desc>
<path d="M10.0730 82.7163
L10.2317 81.4463
" />
<path d="M10.2317 81.4463
L10.7155 81.4463
" />
<path d="M10.7155 81.4463
L10.8289 81.5068
" />
<path d="M10.8289 81.5068
L10.8818 81.5673
" />
<path d="M10.8818 81.5673
L10.9272 81.6882
" />
<path d="M10.9272 81.6882
L10.9045 81.8697
" />
<path d="M10.9045 81.8697
L10.8289 81.9906
" />
<path d="M10.8289 81.9906
L10.7609 82.0511
" />
<path d="M10.7609 82.0511
L10.6324 82.1116
" />
<path d="M10.6324 82.1116
L10.1486 82.1116
" />
<path d="M11.8873 82.7163
L11.9704 82.0511
" />
<path d="M11.9704 82.0511
L11.9251 81.9301
" />
<path d="M11.9251 81.9301
L11.8117 81.8697
" />
<path d="M11.8117 81.8697
L11.5698 81.8697
" />
<path d="M11.5698 81.8697
L11.4412 81.9301
" />
<path d="M11.8948 82.6559
L11.7663 82.7163
" />
<path d="M11.7663 82.7163
L11.4639 82.7163
" />
<path d="M11.4639 82.7163
L11.3505 82.6559
" />
<path d="M11.3505 82.6559
L11.3052 82.5349
" />
<path d="M11.3052 82.5349
L11.3203 82.4139
" />
<path d="M11.3203 82.4139
L11.3959 82.2930
" />
<path d="M11.3959 82.2930
L11.5244 82.2325
" />
<path d="M11.5244 82.2325
L11.8268 82.2325
" />
<path d="M11.8268 82.2325
L11.9553 82.1720
" />
<path d="M13.0438 82.6559
L12.9153 82.7163
" />
<path d="M12.9153 82.7163
L12.6734 82.7163
" />
<path d="M12.6734 82.7163
L12.5600 82.6559
" />
<path d="M12.5600 82.6559
L12.5071 82.5954
" />
<path d="M12.5071 82.5954
L12.4617 82.4744
" />
<path d="M12.4617 82.4744
L12.5071 82.1116
" />
<path d="M12.5071 82.1116
L12.5827 81.9906
" />
<path d="M12.5827 81.9906
L12.6507 81.9301
" />
<path d="M12.6507 81.9301
L12.7792 81.8697
" />
<path d="M12.7792 81.8697
L13.0211 81.8697
" />
<path d="M13.0211 81.8697
L13.1345 81.9301
" />
<path d="M13.5806 82.7163
L13.7393 81.4463
" />
<path d="M13.7620 82.2325
L14.0644 82.7163
" />
<path d="M14.1702 81.8697
L13.6259 82.3535
" />
<path d="M15.1530 82.7163
L15.2361 82.0511
" />
<path d="M15.2361 82.0511
L15.1908 81.9301
" />
<path d="M15.1908 81.9301
L15.0774 81.8697
" />
<path d="M15.0774 81.8697
L14.8355 81.8697
" />
<path d="M14.8355 81.8697
L14.7069 81.9301
" />
<path d="M15.1605 82.6559
L15.0320 82.7163
" />
<path d="M15.0320 82.7163
L14.7296 82.7163
" />
<path d="M14.7296 82.7163
L14.6162 82.6559
" />
<path d="M14.6162 82.6559
L14.5709 82.5349
" />
<path d="M14.5709 82.5349
L14.5860 82.4139
" />
<path d="M14.5860 82.4139
L14.6616 82.2930
" />
<path d="M14.6616 82.2930
L14.7901 82.2325
" />
<path d="M14.7901 82.2325
L15.0925 82.2325
" />
<path d="M15.0925 82.2325
L15.2210 82.1720
" />
<path d="M16.4078 81.8697
L16.2793 82.8978
" />
<path d="M16.2793 82.8978
L16.2037 83.0187
" />
<path d="M16.2037 83.0187
L16.1356 83.0792
" />
<path d="M16.1356 83.0792
L16.0071 83.1397
" />
<path d="M16.0071 83.1397
L15.8257 83.1397
" />
<path d="M15.8257 83.1397
L15.7123 83.0792
" />
<path d="M16.3095 82.6559
L16.1810 82.7163
" />
<path d="M16.1810 82.7163
L15.9391 82.7163
" />
<path d="M15.9391 82.7163
L15.8257 82.6559
" />
<path d="M15.8257 82.6559
L15.7728 82.5954
" />
<path d="M15.7728 82.5954
L15.7274 82.4744
" />
<path d="M15.7274 82.4744
L15.7728 82.1116
" />
<path d="M15.7728 82.1116
L15.8484 81.9906
" />
<path d="M15.8484 81.9906
L15.9164 81.9301
" />
<path d="M15.9164 81.9301
L16.0449 81.8697
" />
<path d="M16.0449 81.8697
L16.2868 81.8697
" />
<path d="M16.2868 81.8697
L16.4002 81.9301
" />
<path d="M17.3980 82.6559
L17.2695 82.7163
" />
<path d="M17.2695 82.7163
L17.0276 82.7163
" />
<path d="M17.0276 82.7163
L16.9142 82.6559
" />
<path d="M16.9142 82.6559
L16.8689 82.5349
" />
<path d="M16.8689 82.5349
L16.9294 82.0511
" />
<path d="M16.9294 82.0511
L17.0049 81.9301
" />
<path d="M17.0049 81.9301
L17.1335 81.8697
" />
<path d="M17.1335 81.8697
L17.3754 81.8697
" />
<path d="M17.3754 81.8697
L17.4888 81.9301
" />
<path d="M17.4888 81.9301
L17.5341 82.0511
" />
<path d="M17.5341 82.0511
L17.5190 82.1720
" />
<path d="M17.5190 82.1720
L16.8991 82.2930
" />
<path d="M17.6778 82.8373
L18.6454 82.8373
" />
<path d="M18.9402 81.4463
L19.6659 81.4463
" />
<path d="M19.1443 82.7163
L19.3031 81.4463
" />
<path d="M20.3311 81.4463
L20.5730 81.4463
" />
<path d="M20.5730 81.4463
L20.6864 81.5068
" />
<path d="M20.6864 81.5068
L20.7923 81.6278
" />
<path d="M20.7923 81.6278
L20.8225 81.8697
" />
<path d="M20.8225 81.8697
L20.7696 82.2930
" />
<path d="M20.7696 82.2930
L20.6789 82.5349
" />
<path d="M20.6789 82.5349
L20.5428 82.6559
" />
<path d="M20.5428 82.6559
L20.4143 82.7163
" />
<path d="M20.4143 82.7163
L20.1724 82.7163
" />
<path d="M20.1724 82.7163
L20.0590 82.6559
" />
<path d="M20.0590 82.6559
L19.9532 82.5349
" />
<path d="M19.9532 82.5349
L19.9229 82.2930
" />
<path d="M19.9229 82.2930
L19.9758 81.8697
" />
<path d="M19.9758 81.8697
L20.0665 81.6278
" />
<path d="M20.0665 81.6278
L20.2026 81.5068
" />
<path d="M20.2026 81.5068
L20.3311 81.4463
" />
<path d="M20.9435 82.8373
L21.9111 82.8373
" />
<path d="M22.1757 82.6559
L22.3495 82.7163
" />
<path d="M22.3495 82.7163
L22.6519 82.7163
" />
<path d="M22.6519 82.7163
L22.7804 82.6559
" />
<path d="M22.7804 82.6559
L22.8485 82.5954
" />
<path d="M22.8485 82.5954
L22.9240 82.4744
" />
<path d="M22.9240 82.4744
L22.9392 82.3535
" />
<path d="M22.9392 82.3535
L22.8938 82.2325
" />
<path d="M22.8938 82.2325
L22.8409 82.1720
" />
<path d="M22.8409 82.1720
L22.7275 82.1116
" />
<path d="M22.7275 82.1116
L22.4932 82.0511
" />
<path d="M22.4932 82.0511
L22.3798 81.9906
" />
<path d="M22.3798 81.9906
L22.3268 81.9301
" />
<path d="M22.3268 81.9301
L22.2815 81.8092
" />
<path d="M22.2815 81.8092
L22.2966 81.6882
" />
<path d="M22.2966 81.6882
L22.3722 81.5673
" />
<path d="M22.3722 81.5673
L22.4402 81.5068
" />
<path d="M22.4402 81.5068
L22.5688 81.4463
" />
<path d="M22.5688 81.4463
L22.8711 81.4463
" />
<path d="M22.8711 81.4463
L23.0450 81.5068
" />
<path d="M23.8387 81.4463
L24.0806 81.4463
" />
<path d="M24.0806 81.4463
L24.1940 81.5068
" />
<path d="M24.1940 81.5068
L24.2999 81.6278
" />
<path d="M24.2999 81.6278
L24.3301 81.8697
" />
<path d="M24.3301 81.8697
L24.2772 82.2930
" />
<path d="M24.2772 82.2930
L24.1865 82.5349
" />
<path d="M24.1865 82.5349
L24.0504 82.6559
" />
<path d="M24.0504 82.6559
L23.9219 82.7163
" />
<path d="M23.9219 82.7163
L23.6800 82.7163
" />
<path d="M23.6800 82.7163
L23.5666 82.6559
" />
<path d="M23.5666 82.6559
L23.4608 82.5349
" />
<path d="M23.4608 82.5349
L23.4305 82.2930
" />
<path d="M23.4305 82.2930
L23.4834 81.8697
" />
<path d="M23.4834 81.8697
L23.5741 81.6278
" />
<path d="M23.5741 81.6278
L23.7102 81.5068
" />
<path d="M23.7102 81.5068
L23.8387 81.4463
" />
<path d="M24.7459 81.4463
L25.4716 81.4463
" />
<path d="M24.9500 82.7163
L25.1088 81.4463
" />
<path d="M25.4187 82.8373
L26.3863 82.8373
" />
<path d="M26.6509 82.6559
L26.8247 82.7163
" />
<path d="M26.8247 82.7163
L27.1271 82.7163
" />
<path d="M27.1271 82.7163
L27.2556 82.6559
" />
<path d="M27.2556 82.6559
L27.3237 82.5954
" />
<path d="M27.3237 82.5954
L27.3992 82.4744
" />
<path d="M27.3992 82.4744
L27.4144 82.3535
" />
<path d="M27.4144 82.3535
L27.3690 82.2325
" />
<path d="M27.3690 82.2325
L27.3161 82.1720
" />
<path d="M27.3161 82.1720
L27.2027 82.1116
" />
<path d="M27.2027 82.1116
L26.9684 82.0511
" />
<path d="M26.9684 82.0511
L26.8550 81.9906
" />
<path d="M26.8550 81.9906
L26.8020 81.9301
" />
<path d="M26.8020 81.9301
L26.7567 81.8092
" />
<path d="M26.7567 81.8092
L26.7718 81.6882
" />
<path d="M26.7718 81.6882
L26.8474 81.5673
" />
<path d="M26.8474 81.5673
L26.9154 81.5068
" />
<path d="M26.9154 81.5068
L27.0440 81.4463
" />
<path d="M27.0440 81.4463
L27.3463 81.4463
" />
<path d="M27.3463 81.4463
L27.5202 81.5068
" />
<path d="M27.9133 82.7163
L28.0720 81.4463
" />
<path d="M28.0720 81.4463
L28.3820 82.3535
" />
<path d="M28.3820 82.3535
L28.9187 81.4463
" />
<path d="M28.9187 81.4463
L28.7599 82.7163
" />
<path d="M29.3647 82.7163
L29.5234 81.4463
" />
<path d="M29.5234 81.4463
L29.8258 81.4463
" />
<path d="M29.8258 81.4463
L29.9997 81.5068
" />
<path d="M29.9997 81.5068
L30.1055 81.6278
" />
<path d="M30.1055 81.6278
L30.1509 81.7487
" />
<path d="M30.1509 81.7487
L30.1811 81.9906
" />
<path d="M30.1811 81.9906
L30.1584 82.1720
" />
<path d="M30.1584 82.1720
L30.0677 82.4139
" />
<path d="M30.0677 82.4139
L29.9921 82.5349
" />
<path d="M29.9921 82.5349
L29.8560 82.6559
" />
<path d="M29.8560 82.6559
L29.6671 82.7163
" />
<path d="M29.6671 82.7163
L29.3647 82.7163
" />
<path d="M30.6498 82.5954
L30.7027 82.6559
" />
<path d="M30.7027 82.6559
L30.6347 82.7163
" />
<path d="M30.6347 82.7163
L30.5818 82.6559
" />
<path d="M30.5818 82.6559
L30.6498 82.5954
" />
<path d="M30.6498 82.5954
L30.6347 82.7163
" />
<path d="M30.7329 81.9301
L30.7859 81.9906
" />
<path d="M30.7859 81.9906
L30.7178 82.0511
" />
<path d="M30.7178 82.0511
L30.6649 81.9906
" />
<path d="M30.6649 81.9906
L30.7329 81.9301
" />
<path d="M30.7329 81.9301
L30.7178 82.0511
" />
<path d="M31.8442 82.7163
L31.2395 82.7163
" />
<path d="M31.2395 82.7163
L31.3982 81.4463
" />
<path d="M32.7741 82.0511
L32.3507 82.0511
" />
<path d="M32.2676 82.7163
L32.4263 81.4463
" />
<path d="M32.4263 81.4463
L33.0311 81.4463
" />
<path d="M33.3562 82.7163
L33.5149 81.4463
" />
<path d="M33.5149 81.4463
L33.9987 81.4463
" />
<path d="M33.9987 81.4463
L34.1121 81.5068
" />
<path d="M34.1121 81.5068
L34.1650 81.5673
" />
<path d="M34.1650 81.5673
L34.2104 81.6882
" />
<path d="M34.2104 81.6882
L34.1877 81.8697
" />
<path d="M34.1877 81.8697
L34.1121 81.9906
" />
<path d="M34.1121 81.9906
L34.0441 82.0511
" />
<path d="M34.0441 82.0511
L33.9156 82.1116
" />
<path d="M33.9156 82.1116
L33.4318 82.1116
" />
<path d="M34.6111 82.3535
L35.2158 82.3535
" />
<path d="M34.4447 82.7163
L35.0268 81.4463
" />
<path d="M35.0268 81.4463
L35.2914 82.7163
" />
<path d="M35.7148 82.7163
L35.8735 81.4463
" />
<path d="M36.4405 82.7163
L35.9869 81.9906
" />
<path d="M36.5992 81.4463
L35.7828 82.1720
" />
<path d="M37.0226 81.4463
L37.8088 81.4463
" />
<path d="M37.8088 81.4463
L37.3250 81.9301
" />
<path d="M37.3250 81.9301
L37.5064 81.9301
" />
<path d="M37.5064 81.9301
L37.6198 81.9906
" />
<path d="M37.6198 81.9906
L37.6727 82.0511
" />
<path d="M37.6727 82.0511
L37.7180 82.1720
" />
<path d="M37.7180 82.1720
L37.6802 82.4744
" />
<path d="M37.6802 82.4744
L37.6047 82.5954
" />
<path d="M37.6047 82.5954
L37.5366 82.6559
" />
<path d="M37.5366 82.6559
L37.4081 82.7163
" />
<path d="M37.4081 82.7163
L37.0452 82.7163
" />
<path d="M37.0452 82.7163
L36.9319 82.6559
" />
<path d="M36.9319 82.6559
L36.8789 82.5954
" />
<path d="M38.2321 81.4463
L39.0183 81.4463
" />
<path d="M39.0183 81.4463
L38.5345 81.9301
" />
<path d="M38.5345 81.9301
L38.7159 81.9301
" />
<path d="M38.7159 81.9301
L38.8293 81.9906
" />
<path d="M38.8293 81.9906
L38.8822 82.0511
" />
<path d="M38.8822 82.0511
L38.9275 82.1720
" />
<path d="M38.9275 82.1720
L38.8897 82.4744
" />
<path d="M38.8897 82.4744
L38.8142 82.5954
" />
<path d="M38.8142 82.5954
L38.7461 82.6559
" />
<path d="M38.7461 82.6559
L38.6176 82.7163
" />
<path d="M38.6176 82.7163
L38.2547 82.7163
" />
<path d="M38.2547 82.7163
L38.1414 82.6559
" />
<path d="M38.1414 82.6559
L38.0884 82.5954
" />
</g><g transform="rotate(-90.000000 4.5870 43.8960)">
<text x="4.5870" y="44.5310"
textLength="72.6723" font-size="1.6933" lengthAdjust="spacingAndGlyphs"
text-anchor="middle" opacity="0">https://assets.nexperia.com/documents/data-sheet/BUK9M120-100E.pdf</text>
</g>
<g class="stroked-text"><desc>https://assets.nexperia.com/documents/data-sheet/BUK9M120-100E.pdf</desc>
<path d="M5.1662 79.8185
L3.8962 79.8185
" />
<path d="M5.1662 79.2742
L4.5010 79.2742
" />
<path d="M4.5010 79.2742
L4.3800 79.3347
" />
<path d="M4.3800 79.3347
L4.3196 79.4556
" />
<path d="M4.3196 79.4556
L4.3196 79.6370
" />
<path d="M4.3196 79.6370
L4.3800 79.7580
" />
<path d="M4.3800 79.7580
L4.4405 79.8185
" />
<path d="M4.3196 78.8509
L4.3196 78.3671
" />
<path d="M3.8962 78.6695
L4.9848 78.6695
" />
<path d="M4.9848 78.6695
L5.1058 78.6090
" />
<path d="M5.1058 78.6090
L5.1662 78.4880
" />
<path d="M5.1662 78.4880
L5.1662 78.3671
" />
<path d="M4.3196 78.1252
L4.3196 77.6414
" />
<path d="M3.8962 77.9438
L4.9848 77.9438
" />
<path d="M4.9848 77.9438
L5.1058 77.8833
" />
<path d="M5.1058 77.8833
L5.1662 77.7623
" />
<path d="M5.1662 77.7623
L5.1662 77.6414
" />
<path d="M4.3196 77.2181
L5.5896 77.2181
" />
<path d="M4.3800 77.2181
L4.3196 77.0971
" />
<path d="M4.3196 77.0971
L4.3196 76.8552
" />
<path d="M4.3196 76.8552
L4.3800 76.7343
" />
<path d="M4.3800 76.7343
L4.4405 76.6738
" />
<path d="M4.4405 76.6738
L4.5615 76.6133
" />
<path d="M4.5615 76.6133
L4.9243 76.6133
" />
<path d="M4.9243 76.6133
L5.0453 76.6738
" />
<path d="M5.0453 76.6738
L5.1058 76.7343
" />
<path d="M5.1058 76.7343
L5.1662 76.8552
" />
<path d="M5.1662 76.8552
L5.1662 77.0971
" />
<path d="M5.1662 77.0971
L5.1058 77.2181
" />
<path d="M5.1058 76.1295
L5.1662 76.0086
" />
<path d="M5.1662 76.0086
L5.1662 75.7667
" />
<path d="M5.1662 75.7667
L5.1058 75.6457
" />
<path d="M5.1058 75.6457
L4.9848 75.5853
" />
<path d="M4.9848 75.5853
L4.9243 75.5853
" />
<path d="M4.9243 75.5853
L4.8034 75.6457
" />
<path d="M4.8034 75.6457
L4.7429 75.7667
" />
<path d="M4.7429 75.7667
L4.7429 75.9481
" />
<path d="M4.7429 75.9481
L4.6824 76.0691
" />
<path d="M4.6824 76.0691
L4.5615 76.1295
" />
<path d="M4.5615 76.1295
L4.5010 76.1295
" />
<path d="M4.5010 76.1295
L4.3800 76.0691
" />
<path d="M4.3800 76.0691
L4.3196 75.9481
" />
<path d="M4.3196 75.9481
L4.3196 75.7667
" />
<path d="M4.3196 75.7667
L4.3800 75.6457
" />
<path d="M5.0453 75.0410
L5.1058 74.9805
" />
<path d="M5.1058 74.9805
L5.1662 75.0410
" />
<path d="M5.1662 75.0410
L5.1058 75.1014
" />
<path d="M5.1058 75.1014
L5.0453 75.0410
" />
<path d="M5.0453 75.0410
L5.1662 75.0410
" />
<path d="M4.3800 75.0410
L4.4405 74.9805
" />
<path d="M4.4405 74.9805
L4.5010 75.0410
" />
<path d="M4.5010 75.0410
L4.4405 75.1014
" />
<path d="M4.4405 75.1014
L4.3800 75.0410
" />
<path d="M4.3800 75.0410
L4.5010 75.0410
" />
<path d="M3.8358 73.5290
L5.4686 74.6176
" />
<path d="M3.8358 72.1985
L5.4686 73.2871
" />
<path d="M5.1662 71.2309
L4.5010 71.2309
" />
<path d="M4.5010 71.2309
L4.3800 71.2914
" />
<path d="M4.3800 71.2914
L4.3196 71.4123
" />
<path d="M4.3196 71.4123
L4.3196 71.6542
" />
<path d="M4.3196 71.6542
L4.3800 71.7752
" />
<path d="M5.1058 71.2309
L5.1662 71.3518
" />
<path d="M5.1662 71.3518
L5.1662 71.6542
" />
<path d="M5.1662 71.6542
L5.1058 71.7752
" />
<path d="M5.1058 71.7752
L4.9848 71.8356
" />
<path d="M4.9848 71.8356
L4.8638 71.8356
" />
<path d="M4.8638 71.8356
L4.7429 71.7752
" />
<path d="M4.7429 71.7752
L4.6824 71.6542
" />
<path d="M4.6824 71.6542
L4.6824 71.3518
" />
<path d="M4.6824 71.3518
L4.6219 71.2309
" />
<path d="M5.1058 70.6866
L5.1662 70.5657
" />
<path d="M5.1662 70.5657
L5.1662 70.3238
" />
<path d="M5.1662 70.3238
L5.1058 70.2028
" />
<path d="M5.1058 70.2028
L4.9848 70.1424
" />
<path d="M4.9848 70.1424
L4.9243 70.1424
" />
<path d="M4.9243 70.1424
L4.8034 70.2028
" />
<path d="M4.8034 70.2028
L4.7429 70.3238
" />
<path d="M4.7429 70.3238
L4.7429 70.5052
" />
<path d="M4.7429 70.5052
L4.6824 70.6262
" />
<path d="M4.6824 70.6262
L4.5615 70.6866
" />
<path d="M4.5615 70.6866
L4.5010 70.6866
" />
<path d="M4.5010 70.6866
L4.3800 70.6262
" />
<path d="M4.3800 70.6262
L4.3196 70.5052
" />
<path d="M4.3196 70.5052
L4.3196 70.3238
" />
<path d="M4.3196 70.3238
L4.3800 70.2028
" />
<path d="M5.1058 69.6585
L5.1662 69.5376
" />
<path d="M5.1662 69.5376
L5.1662 69.2957
" />
<path d="M5.1662 69.2957
L5.1058 69.1747
" />
<path d="M5.1058 69.1747
L4.9848 69.1143
" />
<path d="M4.9848 69.1143
L4.9243 69.1143
" />
<path d="M4.9243 69.1143
L4.8034 69.1747
" />
<path d="M4.8034 69.1747
L4.7429 69.2957
" />
<path d="M4.7429 69.2957
L4.7429 69.4771
" />
<path d="M4.7429 69.4771
L4.6824 69.5981
" />
<path d="M4.6824 69.5981
L4.5615 69.6585
" />
<path d="M4.5615 69.6585
L4.5010 69.6585
" />
<path d="M4.5010 69.6585
L4.3800 69.5981
" />
<path d="M4.3800 69.5981
L4.3196 69.4771
" />
<path d="M4.3196 69.4771
L4.3196 69.2957
" />
<path d="M4.3196 69.2957
L4.3800 69.1747
" />
<path d="M5.1058 68.0862
L5.1662 68.2071
" />
<path d="M5.1662 68.2071
L5.1662 68.4490
" />
<path d="M5.1662 68.4490
L5.1058 68.5700
" />
<path d="M5.1058 68.5700
L4.9848 68.6304
" />
<path d="M4.9848 68.6304
L4.5010 68.6304
" />
<path d="M4.5010 68.6304
L4.3800 68.5700
" />
<path d="M4.3800 68.5700
L4.3196 68.4490
" />
<path d="M4.3196 68.4490
L4.3196 68.2071
" />
<path d="M4.3196 68.2071
L4.3800 68.0862
" />
<path d="M4.3800 68.0862
L4.5010 68.0257
" />
<path d="M4.5010 68.0257
L4.6219 68.0257
" />
<path d="M4.6219 68.0257
L4.7429 68.6304
" />
<path d="M4.3196 67.6628
L4.3196 67.1790
" />
<path d="M3.8962 67.4814
L4.9848 67.4814
" />
<path d="M4.9848 67.4814
L5.1058 67.4209
" />
<path d="M5.1058 67.4209
L5.1662 67.2999
" />
<path d="M5.1662 67.2999
L5.1662 67.1790
" />
<path d="M5.1058 66.8161
L5.1662 66.6952
" />
<path d="M5.1662 66.6952
L5.1662 66.4533
" />
<path d="M5.1662 66.4533
L5.1058 66.3323
" />
<path d="M5.1058 66.3323
L4.9848 66.2719
" />
<path d="M4.9848 66.2719
L4.9243 66.2719
" />
<path d="M4.9243 66.2719
L4.8034 66.3323
" />
<path d="M4.8034 66.3323
L4.7429 66.4533
" />
<path d="M4.7429 66.4533
L4.7429 66.6347
" />
<path d="M4.7429 66.6347
L4.6824 66.7557
" />
<path d="M4.6824 66.7557
L4.5615 66.8161
" />
<path d="M4.5615 66.8161
L4.5010 66.8161
" />
<path d="M4.5010 66.8161
L4.3800 66.7557
" />
<path d="M4.3800 66.7557
L4.3196 66.6347
" />
<path d="M4.3196 66.6347
L4.3196 66.4533
" />
<path d="M4.3196 66.4533
L4.3800 66.3323
" />
<path d="M5.0453 65.7276
L5.1058 65.6671
" />
<path d="M5.1058 65.6671
L5.1662 65.7276
" />
<path d="M5.1662 65.7276
L5.1058 65.7880
" />
<path d="M5.1058 65.7880
L5.0453 65.7276
" />
<path d="M5.0453 65.7276
L5.1662 65.7276
" />
<path d="M4.3196 65.1228
L5.1662 65.1228
" />
<path d="M4.4405 65.1228
L4.3800 65.0623
" />
<path d="M4.3800 65.0623
L4.3196 64.9413
" />
<path d="M4.3196 64.9413
L4.3196 64.7599
" />
<path d="M4.3196 64.7599
L4.3800 64.6390
" />
<path d="M4.3800 64.6390
L4.5010 64.5785
" />
<path d="M4.5010 64.5785
L5.1662 64.5785
" />
<path d="M5.1058 63.4900
L5.1662 63.6109
" />
<path d="M5.1662 63.6109
L5.1662 63.8528
" />
<path d="M5.1662 63.8528
L5.1058 63.9738
" />
<path d="M5.1058 63.9738
L4.9848 64.0342
" />
<path d="M4.9848 64.0342
L4.5010 64.0342
" />
<path d="M4.5010 64.0342
L4.3800 63.9738
" />
<path d="M4.3800 63.9738
L4.3196 63.8528
" />
<path d="M4.3196 63.8528
L4.3196 63.6109
" />
<path d="M4.3196 63.6109
L4.3800 63.4900
" />
<path d="M4.3800 63.4900
L4.5010 63.4295
" />
<path d="M4.5010 63.4295
L4.6219 63.4295
" />
<path d="M4.6219 63.4295
L4.7429 64.0342
" />
<path d="M5.1662 63.0061
L4.3196 62.3409
" />
<path d="M4.3196 63.0061
L5.1662 62.3409
" />
<path d="M4.3196 61.8571
L5.5896 61.8571
" />
<path d="M4.3800 61.8571
L4.3196 61.7361
" />
<path d="M4.3196 61.7361
L4.3196 61.4942
" />
<path d="M4.3196 61.4942
L4.3800 61.3733
" />
<path d="M4.3800 61.3733
L4.4405 61.3128
" />
<path d="M4.4405 61.3128
L4.5615 61.2523
" />
<path d="M4.5615 61.2523
L4.9243 61.2523
" />
<path d="M4.9243 61.2523
L5.0453 61.3128
" />
<path d="M5.0453 61.3128
L5.1058 61.3733
" />
<path d="M5.1058 61.3733
L5.1662 61.4942
" />
<path d="M5.1662 61.4942
L5.1662 61.7361
" />
<path d="M5.1662 61.7361
L5.1058 61.8571
" />
<path d="M5.1058 60.2243
L5.1662 60.3452
" />
<path d="M5.1662 60.3452
L5.1662 60.5871
" />
<path d="M5.1662 60.5871
L5.1058 60.7081
" />
<path d="M5.1058 60.7081
L4.9848 60.7685
" />
<path d="M4.9848 60.7685
L4.5010 60.7685
" />
<path d="M4.5010 60.7685
L4.3800 60.7081
" />
<path d="M4.3800 60.7081
L4.3196 60.5871
" />
<path d="M4.3196 60.5871
L4.3196 60.3452
" />
<path d="M4.3196 60.3452
L4.3800 60.2243
" />
<path d="M4.3800 60.2243
L4.5010 60.1638
" />
<path d="M4.5010 60.1638
L4.6219 60.1638
" />
<path d="M4.6219 60.1638
L4.7429 60.7685
" />
<path d="M5.1662 59.6195
L4.3196 59.6195
" />
<path d="M4.5615 59.6195
L4.4405 59.5590
" />
<path d="M4.4405 59.5590
L4.3800 59.4985
" />
<path d="M4.3800 59.4985
L4.3196 59.3776
" />
<path d="M4.3196 59.3776
L4.3196 59.2566
" />
<path d="M5.1662 58.8333
L4.3196 58.8333
" />
<path d="M3.8962 58.8333
L3.9567 58.8937
" />
<path d="M3.9567 58.8937
L4.0172 58.8333
" />
<path d="M4.0172 58.8333
L3.9567 58.7728
" />
<path d="M3.9567 58.7728
L3.8962 58.8333
" />
<path d="M3.8962 58.8333
L4.0172 58.8333
" />
<path d="M5.1662 57.6842
L4.5010 57.6842
" />
<path d="M4.5010 57.6842
L4.3800 57.7447
" />
<path d="M4.3800 57.7447
L4.3196 57.8656
" />
<path d="M4.3196 57.8656
L4.3196 58.1075
" />
<path d="M4.3196 58.1075
L4.3800 58.2285
" />
<path d="M5.1058 57.6842
L5.1662 57.8051
" />
<path d="M5.1662 57.8051
L5.1662 58.1075
" />
<path d="M5.1662 58.1075
L5.1058 58.2285
" />
<path d="M5.1058 58.2285
L4.9848 58.2889
" />
<path d="M4.9848 58.2889
L4.8638 58.2889
" />
<path d="M4.8638 58.2889
L4.7429 58.2285
" />
<path d="M4.7429 58.2285
L4.6824 58.1075
" />
<path d="M4.6824 58.1075
L4.6824 57.8051
" />
<path d="M4.6824 57.8051
L4.6219 57.6842
" />
<path d="M5.0453 57.0795
L5.1058 57.0190
" />
<path d="M5.1058 57.0190
L5.1662 57.0795
" />
<path d="M5.1662 57.0795
L5.1058 57.1399
" />
<path d="M5.1058 57.1399
L5.0453 57.0795
" />
<path d="M5.0453 57.0795
L5.1662 57.0795
" />
<path d="M5.1058 55.9304
L5.1662 56.0513
" />
<path d="M5.1662 56.0513
L5.1662 56.2932
" />
<path d="M5.1662 56.2932
L5.1058 56.4142
" />
<path d="M5.1058 56.4142
L5.0453 56.4747
" />
<path d="M5.0453 56.4747
L4.9243 56.5351
" />
<path d="M4.9243 56.5351
L4.5615 56.5351
" />
<path d="M4.5615 56.5351
L4.4405 56.4747
" />
<path d="M4.4405 56.4747
L4.3800 56.4142
" />
<path d="M4.3800 56.4142
L4.3196 56.2932
" />
<path d="M4.3196 56.2932
L4.3196 56.0513
" />
<path d="M4.3196 56.0513
L4.3800 55.9304
" />
<path d="M5.1662 55.2046
L5.1058 55.3256
" />
<path d="M5.1058 55.3256
L5.0453 55.3861
" />
<path d="M5.0453 55.3861
L4.9243 55.4465
" />
<path d="M4.9243 55.4465
L4.5615 55.4465
" />
<path d="M4.5615 55.4465
L4.4405 55.3861
" />
<path d="M4.4405 55.3861
L4.3800 55.3256
" />
<path d="M4.3800 55.3256
L4.3196 55.2046
" />
<path d="M4.3196 55.2046
L4.3196 55.0232
" />
<path d="M4.3196 55.0232
L4.3800 54.9023
" />
<path d="M4.3800 54.9023
L4.4405 54.8418
" />
<path d="M4.4405 54.8418
L4.5615 54.7813
" />
<path d="M4.5615 54.7813
L4.9243 54.7813
" />
<path d="M4.9243 54.7813
L5.0453 54.8418
" />
<path d="M5.0453 54.8418
L5.1058 54.9023
" />
<path d="M5.1058 54.9023
L5.1662 55.0232
" />
<path d="M5.1662 55.0232
L5.1662 55.2046
" />
<path d="M5.1662 54.2371
L4.3196 54.2371
" />
<path d="M4.4405 54.2371
L4.3800 54.1766
" />
<path d="M4.3800 54.1766
L4.3196 54.0556
" />
<path d="M4.3196 54.0556
L4.3196 53.8742
" />
<path d="M4.3196 53.8742
L4.3800 53.7533
" />
<path d="M4.3800 53.7533
L4.5010 53.6928
" />
<path d="M4.5010 53.6928
L5.1662 53.6928
" />
<path d="M4.5010 53.6928
L4.3800 53.6323
" />
<path d="M4.3800 53.6323
L4.3196 53.5114
" />
<path d="M4.3196 53.5114
L4.3196 53.3299
" />
<path d="M4.3196 53.3299
L4.3800 53.2090
" />
<path d="M4.3800 53.2090
L4.5010 53.1485
" />
<path d="M4.5010 53.1485
L5.1662 53.1485
" />
<path d="M3.8358 51.6366
L5.4686 52.7252
" />
<path d="M5.1662 50.6690
L3.8962 50.6690
" />
<path d="M5.1058 50.6690
L5.1662 50.7899
" />
<path d="M5.1662 50.7899
L5.1662 51.0318
" />
<path d="M5.1662 51.0318
L5.1058 51.1528
" />
<path d="M5.1058 51.1528
L5.0453 51.2133
" />
<path d="M5.0453 51.2133
L4.9243 51.2737
" />
<path d="M4.9243 51.2737
L4.5615 51.2737
" />
<path d="M4.5615 51.2737
L4.4405 51.2133
" />
<path d="M4.4405 51.2133
L4.3800 51.1528
" />
<path d="M4.3800 51.1528
L4.3196 51.0318
" />
<path d="M4.3196 51.0318
L4.3196 50.7899
" />
<path d="M4.3196 50.7899
L4.3800 50.6690
" />
<path d="M5.1662 49.8828
L5.1058 50.0038
" />
<path d="M5.1058 50.0038
L5.0453 50.0643
" />
<path d="M5.0453 50.0643
L4.9243 50.1247
" />
<path d="M4.9243 50.1247
L4.5615 50.1247
" />
<path d="M4.5615 50.1247
L4.4405 50.0643
" />
<path d="M4.4405 50.0643
L4.3800 50.0038
" />
<path d="M4.3800 50.0038
L4.3196 49.8828
" />
<path d="M4.3196 49.8828
L4.3196 49.7014
" />
<path d="M4.3196 49.7014
L4.3800 49.5805
" />
<path d="M4.3800 49.5805
L4.4405 49.5200
" />
<path d="M4.4405 49.5200
L4.5615 49.4595
" />
<path d="M4.5615 49.4595
L4.9243 49.4595
" />
<path d="M4.9243 49.4595
L5.0453 49.5200
" />
<path d="M5.0453 49.5200
L5.1058 49.5805
" />
<path d="M5.1058 49.5805
L5.1662 49.7014
" />
<path d="M5.1662 49.7014
L5.1662 49.8828
" />
<path d="M5.1058 48.3710
L5.1662 48.4919
" />
<path d="M5.1662 48.4919
L5.1662 48.7338
" />
<path d="M5.1662 48.7338
L5.1058 48.8548
" />
<path d="M5.1058 48.8548
L5.0453 48.9153
" />
<path d="M5.0453 48.9153
L4.9243 48.9757
" />
<path d="M4.9243 48.9757
L4.5615 48.9757
" />
<path d="M4.5615 48.9757
L4.4405 48.9153
" />
<path d="M4.4405 48.9153
L4.3800 48.8548
" />
<path d="M4.3800 48.8548
L4.3196 48.7338
" />
<path d="M4.3196 48.7338
L4.3196 48.4919
" />
<path d="M4.3196 48.4919
L4.3800 48.3710
" />
<path d="M4.3196 47.2824
L5.1662 47.2824
" />
<path d="M4.3196 47.8267
L4.9848 47.8267
" />
<path d="M4.9848 47.8267
L5.1058 47.7662
" />
<path d="M5.1058 47.7662
L5.1662 47.6452
" />
<path d="M5.1662 47.6452
L5.1662 47.4638
" />
<path d="M5.1662 47.4638
L5.1058 47.3429
" />
<path d="M5.1058 47.3429
L5.0453 47.2824
" />
<path d="M5.1662 46.6777
L4.3196 46.6777
" />
<path d="M4.4405 46.6777
L4.3800 46.6172
" />
<path d="M4.3800 46.6172
L4.3196 46.4962
" />
<path d="M4.3196 46.4962
L4.3196 46.3148
" />
<path d="M4.3196 46.3148
L4.3800 46.1939
" />
<path d="M4.3800 46.1939
L4.5010 46.1334
" />
<path d="M4.5010 46.1334
L5.1662 46.1334
" />
<path d="M4.5010 46.1334
L4.3800 46.0729
" />
<path d="M4.3800 46.0729
L4.3196 45.9520
" />
<path d="M4.3196 45.9520
L4.3196 45.7705
" />
<path d="M4.3196 45.7705
L4.3800 45.6496
" />
<path d="M4.3800 45.6496
L4.5010 45.5891
" />
<path d="M4.5010 45.5891
L5.1662 45.5891
" />
<path d="M5.1058 44.5006
L5.1662 44.6215
" />
<path d="M5.1662 44.6215
L5.1662 44.8634
" />
<path d="M5.1662 44.8634
L5.1058 44.9844
" />
<path d="M5.1058 44.9844
L4.9848 45.0448
" />
<path d="M4.9848 45.0448
L4.5010 45.0448
" />
<path d="M4.5010 45.0448
L4.3800 44.9844
" />
<path d="M4.3800 44.9844
L4.3196 44.8634
" />
<path d="M4.3196 44.8634
L4.3196 44.6215
" />
<path d="M4.3196 44.6215
L4.3800 44.5006
" />
<path d="M4.3800 44.5006
L4.5010 44.4401
" />
<path d="M4.5010 44.4401
L4.6219 44.4401
" />
<path d="M4.6219 44.4401
L4.7429 45.0448
" />
<path d="M4.3196 43.8958
L5.1662 43.8958
" />
<path d="M4.4405 43.8958
L4.3800 43.8353
" />
<path d="M4.3800 43.8353
L4.3196 43.7143
" />
<path d="M4.3196 43.7143
L4.3196 43.5329
" />
<path d="M4.3196 43.5329
L4.3800 43.4120
" />
<path d="M4.3800 43.4120
L4.5010 43.3515
" />
<path d="M4.5010 43.3515
L5.1662 43.3515
" />
<path d="M4.3196 42.9282
L4.3196 42.4444
" />
<path d="M3.8962 42.7468
L4.9848 42.7468
" />
<path d="M4.9848 42.7468
L5.1058 42.6863
" />
<path d="M5.1058 42.6863
L5.1662 42.5653
" />
<path d="M5.1662 42.5653
L5.1662 42.4444
" />
<path d="M5.1058 42.0815
L5.1662 41.9606
" />
<path d="M5.1662 41.9606
L5.1662 41.7187
" />
<path d="M5.1662 41.7187
L5.1058 41.5977
" />
<path d="M5.1058 41.5977
L4.9848 41.5373
" />
<path d="M4.9848 41.5373
L4.9243 41.5373
" />
<path d="M4.9243 41.5373
L4.8034 41.5977
" />
<path d="M4.8034 41.5977
L4.7429 41.7187
" />
<path d="M4.7429 41.7187
L4.7429 41.9001
" />
<path d="M4.7429 41.9001
L4.6824 42.0211
" />
<path d="M4.6824 42.0211
L4.5615 42.0815
" />
<path d="M4.5615 42.0815
L4.5010 42.0815
" />
<path d="M4.5010 42.0815
L4.3800 42.0211
" />
<path d="M4.3800 42.0211
L4.3196 41.9001
" />
<path d="M4.3196 41.9001
L4.3196 41.7187
" />
<path d="M4.3196 41.7187
L4.3800 41.5977
" />
<path d="M3.8358 40.0858
L5.4686 41.1744
" />
<path d="M5.1662 39.1182
L3.8962 39.1182
" />
<path d="M5.1058 39.1182
L5.1662 39.2391
" />
<path d="M5.1662 39.2391
L5.1662 39.4810
" />
<path d="M5.1662 39.4810
L5.1058 39.6020
" />
<path d="M5.1058 39.6020
L5.0453 39.6625
" />
<path d="M5.0453 39.6625
L4.9243 39.7229
" />
<path d="M4.9243 39.7229
L4.5615 39.7229
" />
<path d="M4.5615 39.7229
L4.4405 39.6625
" />
<path d="M4.4405 39.6625
L4.3800 39.6020
" />
<path d="M4.3800 39.6020
L4.3196 39.4810
" />
<path d="M4.3196 39.4810
L4.3196 39.2391
" />
<path d="M4.3196 39.2391
L4.3800 39.1182
" />
<path d="M5.1662 37.9692
L4.5010 37.9692
" />
<path d="M4.5010 37.9692
L4.3800 38.0297
" />
<path d="M4.3800 38.0297
L4.3196 38.1506
" />
<path d="M4.3196 38.1506
L4.3196 38.3925
" />
<path d="M4.3196 38.3925
L4.3800 38.5135
" />
<path d="M5.1058 37.9692
L5.1662 38.0901
" />
<path d="M5.1662 38.0901
L5.1662 38.3925
" />
<path d="M5.1662 38.3925
L5.1058 38.5135
" />
<path d="M5.1058 38.5135
L4.9848 38.5739
" />
<path d="M4.9848 38.5739
L4.8638 38.5739
" />
<path d="M4.8638 38.5739
L4.7429 38.5135
" />
<path d="M4.7429 38.5135
L4.6824 38.3925
" />
<path d="M4.6824 38.3925
L4.6824 38.0901
" />
<path d="M4.6824 38.0901
L4.6219 37.9692
" />
<path d="M4.3196 37.5459
L4.3196 37.0621
" />
<path d="M3.8962 37.3645
L4.9848 37.3645
" />
<path d="M4.9848 37.3645
L5.1058 37.3040
" />
<path d="M5.1058 37.3040
L5.1662 37.1830
" />
<path d="M5.1662 37.1830
L5.1662 37.0621
" />
<path d="M5.1662 36.0945
L4.5010 36.0945
" />
<path d="M4.5010 36.0945
L4.3800 36.1550
" />
<path d="M4.3800 36.1550
L4.3196 36.2759
" />
<path d="M4.3196 36.2759
L4.3196 36.5178
" />
<path d="M4.3196 36.5178
L4.3800 36.6388
" />
<path d="M5.1058 36.0945
L5.1662 36.2154
" />
<path d="M5.1662 36.2154
L5.1662 36.5178
" />
<path d="M5.1662 36.5178
L5.1058 36.6388
" />
<path d="M5.1058 36.6388
L4.9848 36.6992
" />
<path d="M4.9848 36.6992
L4.8638 36.6992
" />
<path d="M4.8638 36.6992
L4.7429 36.6388
" />
<path d="M4.7429 36.6388
L4.6824 36.5178
" />
<path d="M4.6824 36.5178
L4.6824 36.2154
" />
<path d="M4.6824 36.2154
L4.6219 36.0945
" />
<path d="M4.6824 35.4898
L4.6824 34.5222
" />
<path d="M5.1058 33.9778
L5.1662 33.8569
" />
<path d="M5.1662 33.8569
L5.1662 33.6150
" />
<path d="M5.1662 33.6150
L5.1058 33.4940
" />
<path d="M5.1058 33.4940
L4.9848 33.4336
" />
<path d="M4.9848 33.4336
L4.9243 33.4336
" />
<path d="M4.9243 33.4336
L4.8034 33.4940
" />
<path d="M4.8034 33.4940
L4.7429 33.6150
" />
<path d="M4.7429 33.6150
L4.7429 33.7964
" />
<path d="M4.7429 33.7964
L4.6824 33.9174
" />
<path d="M4.6824 33.9174
L4.5615 33.9778
" />
<path d="M4.5615 33.9778
L4.5010 33.9778
" />
<path d="M4.5010 33.9778
L4.3800 33.9174
" />
<path d="M4.3800 33.9174
L4.3196 33.7964
" />
<path d="M4.3196 33.7964
L4.3196 33.6150
" />
<path d="M4.3196 33.6150
L4.3800 33.4940
" />
<path d="M5.1662 32.8893
L3.8962 32.8893
" />
<path d="M5.1662 32.3450
L4.5010 32.3450
" />
<path d="M4.5010 32.3450
L4.3800 32.4055
" />
<path d="M4.3800 32.4055
L4.3196 32.5264
" />
<path d="M4.3196 32.5264
L4.3196 32.7078
" />
<path d="M4.3196 32.7078
L4.3800 32.8288
" />
<path d="M4.3800 32.8288
L4.4405 32.8893
" />
<path d="M5.1058 31.2565
L5.1662 31.3774
" />
<path d="M5.1662 31.3774
L5.1662 31.6193
" />
<path d="M5.1662 31.6193
L5.1058 31.7403
" />
<path d="M5.1058 31.7403
L4.9848 31.8007
" />
<path d="M4.9848 31.8007
L4.5010 31.8007
" />
<path d="M4.5010 31.8007
L4.3800 31.7403
" />
<path d="M4.3800 31.7403
L4.3196 31.6193
" />
<path d="M4.3196 31.6193
L4.3196 31.3774
" />
<path d="M4.3196 31.3774
L4.3800 31.2565
" />
<path d="M4.3800 31.2565
L4.5010 31.1960
" />
<path d="M4.5010 31.1960
L4.6219 31.1960
" />
<path d="M4.6219 31.1960
L4.7429 31.8007
" />
<path d="M5.1058 30.1679
L5.1662 30.2888
" />
<path d="M5.1662 30.2888
L5.1662 30.5307
" />
<path d="M5.1662 30.5307
L5.1058 30.6517
" />
<path d="M5.1058 30.6517
L4.9848 30.7121
" />
<path d="M4.9848 30.7121
L4.5010 30.7121
" />
<path d="M4.5010 30.7121
L4.3800 30.6517
" />
<path d="M4.3800 30.6517
L4.3196 30.5307
" />
<path d="M4.3196 30.5307
L4.3196 30.2888
" />
<path d="M4.3196 30.2888
L4.3800 30.1679
" />
<path d="M4.3800 30.1679
L4.5010 30.1074
" />
<path d="M4.5010 30.1074
L4.6219 30.1074
" />
<path d="M4.6219 30.1074
L4.7429 30.7121
" />
<path d="M4.3196 29.7445
L4.3196 29.2607
" />
<path d="M3.8962 29.5631
L4.9848 29.5631
" />
<path d="M4.9848 29.5631
L5.1058 29.5026
" />
<path d="M5.1058 29.5026
L5.1662 29.3816
" />
<path d="M5.1662 29.3816
L5.1662 29.2607
" />
<path d="M3.8358 27.9302
L5.4686 29.0188
" />
<path d="M4.5010 27.0835
L4.5615 26.9021
" />
<path d="M4.5615 26.9021
L4.6219 26.8416
" />
<path d="M4.6219 26.8416
L4.7429 26.7812
" />
<path d="M4.7429 26.7812
L4.9243 26.7812
" />
<path d="M4.9243 26.7812
L5.0453 26.8416
" />
<path d="M5.0453 26.8416
L5.1058 26.9021
" />
<path d="M5.1058 26.9021
L5.1662 27.0231
" />
<path d="M5.1662 27.0231
L5.1662 27.5069
" />
<path d="M5.1662 27.5069
L3.8962 27.5069
" />
<path d="M3.8962 27.5069
L3.8962 27.0835
" />
<path d="M3.8962 27.0835
L3.9567 26.9626
" />
<path d="M3.9567 26.9626
L4.0172 26.9021
" />
<path d="M4.0172 26.9021
L4.1381 26.8416
" />
<path d="M4.1381 26.8416
L4.2591 26.8416
" />
<path d="M4.2591 26.8416
L4.3800 26.9021
" />
<path d="M4.3800 26.9021
L4.4405 26.9626
" />
<path d="M4.4405 26.9626
L4.5010 27.0835
" />
<path d="M4.5010 27.0835
L4.5010 27.5069
" />
<path d="M3.8962 26.2369
L4.9243 26.2369
" />
<path d="M4.9243 26.2369
L5.0453 26.1764
" />
<path d="M5.0453 26.1764
L5.1058 26.1159
" />
<path d="M5.1058 26.1159
L5.1662 25.9950
" />
<path d="M5.1662 25.9950
L5.1662 25.7531
" />
<path d="M5.1662 25.7531
L5.1058 25.6321
" />
<path d="M5.1058 25.6321
L5.0453 25.5716
" />
<path d="M5.0453 25.5716
L4.9243 25.5112
" />
<path d="M4.9243 25.5112
L3.8962 25.5112
" />
<path d="M5.1662 24.9064
L3.8962 24.9064
" />
<path d="M5.1662 24.1807
L4.4405 24.7249
" />
<path d="M3.8962 24.1807
L4.6219 24.9064
" />
<path d="M5.1662 23.5759
L5.1662 23.3340
" />
<path d="M5.1662 23.3340
L5.1058 23.2130
" />
<path d="M5.1058 23.2130
L5.0453 23.1526
" />
<path d="M5.0453 23.1526
L4.8638 23.0316
" />
<path d="M4.8638 23.0316
L4.6219 22.9711
" />
<path d="M4.6219 22.9711
L4.1381 22.9711
" />
<path d="M4.1381 22.9711
L4.0172 23.0316
" />
<path d="M4.0172 23.0316
L3.9567 23.0921
" />
<path d="M3.9567 23.0921
L3.8962 23.2130
" />
<path d="M3.8962 23.2130
L3.8962 23.4549
" />
<path d="M3.8962 23.4549
L3.9567 23.5759
" />
<path d="M3.9567 23.5759
L4.0172 23.6364
" />
<path d="M4.0172 23.6364
L4.1381 23.6968
" />
<path d="M4.1381 23.6968
L4.4405 23.6968
" />
<path d="M4.4405 23.6968
L4.5615 23.6364
" />
<path d="M4.5615 23.6364
L4.6219 23.5759
" />
<path d="M4.6219 23.5759
L4.6824 23.4549
" />
<path d="M4.6824 23.4549
L4.6824 23.2130
" />
<path d="M4.6824 23.2130
L4.6219 23.0921
" />
<path d="M4.6219 23.0921
L4.5615 23.0316
" />
<path d="M4.5615 23.0316
L4.4405 22.9711
" />
<path d="M5.1662 22.4269
L3.8962 22.4269
" />
<path d="M3.8962 22.4269
L4.8034 22.0035
" />
<path d="M4.8034 22.0035
L3.8962 21.5802
" />
<path d="M3.8962 21.5802
L5.1662 21.5802
" />
<path d="M5.1662 20.3102
L5.1662 21.0359
" />
<path d="M5.1662 20.6731
L3.8962 20.6731
" />
<path d="M3.8962 20.6731
L4.0777 20.7940
" />
<path d="M4.0777 20.7940
L4.1986 20.9150
" />
<path d="M4.1986 20.9150
L4.2591 21.0359
" />
<path d="M4.0172 19.8264
L3.9567 19.7660
" />
<path d="M3.9567 19.7660
L3.8962 19.6450
" />
<path d="M3.8962 19.6450
L3.8962 19.3426
" />
<path d="M3.8962 19.3426
L3.9567 19.2217
" />
<path d="M3.9567 19.2217
L4.0172 19.1612
" />
<path d="M4.0172 19.1612
L4.1381 19.1007
" />
<path d="M4.1381 19.1007
L4.2591 19.1007
" />
<path d="M4.2591 19.1007
L4.4405 19.1612
" />
<path d="M4.4405 19.1612
L5.1662 19.8869
" />
<path d="M5.1662 19.8869
L5.1662 19.1007
" />
<path d="M3.8962 18.3146
L3.8962 18.1936
" />
<path d="M3.8962 18.1936
L3.9567 18.0727
" />
<path d="M3.9567 18.0727
L4.0172 18.0122
" />
<path d="M4.0172 18.0122
L4.1381 17.9517
" />
<path d="M4.1381 17.9517
L4.3800 17.8912
" />
<path d="M4.3800 17.8912
L4.6824 17.8912
" />
<path d="M4.6824 17.8912
L4.9243 17.9517
" />
<path d="M4.9243 17.9517
L5.0453 18.0122
" />
<path d="M5.0453 18.0122
L5.1058 18.0727
" />
<path d="M5.1058 18.0727
L5.1662 18.1936
" />
<path d="M5.1662 18.1936
L5.1662 18.3146
" />
<path d="M5.1662 18.3146
L5.1058 18.4355
" />
<path d="M5.1058 18.4355
L5.0453 18.4960
" />
<path d="M5.0453 18.4960
L4.9243 18.5565
" />
<path d="M4.9243 18.5565
L4.6824 18.6169
" />
<path d="M4.6824 18.6169
L4.3800 18.6169
" />
<path d="M4.3800 18.6169
L4.1381 18.5565
" />
<path d="M4.1381 18.5565
L4.0172 18.4960
" />
<path d="M4.0172 18.4960
L3.9567 18.4355
" />
<path d="M3.9567 18.4355
L3.8962 18.3146
" />
<path d="M4.6824 17.3470
L4.6824 16.3794
" />
<path d="M5.1662 15.1093
L5.1662 15.8350
" />
<path d="M5.1662 15.4722
L3.8962 15.4722
" />
<path d="M3.8962 15.4722
L4.0777 15.5931
" />
<path d="M4.0777 15.5931
L4.1986 15.7141
" />
<path d="M4.1986 15.7141
L4.2591 15.8350
" />
<path d="M3.8962 14.3232
L3.8962 14.2022
" />
<path d="M3.8962 14.2022
L3.9567 14.0813
" />
<path d="M3.9567 14.0813
L4.0172 14.0208
" />
<path d="M4.0172 14.0208
L4.1381 13.9603
" />
<path d="M4.1381 13.9603
L4.3800 13.8998
" />
<path d="M4.3800 13.8998
L4.6824 13.8998
" />
<path d="M4.6824 13.8998
L4.9243 13.9603
" />
<path d="M4.9243 13.9603
L5.0453 14.0208
" />
<path d="M5.0453 14.0208
L5.1058 14.0813
" />
<path d="M5.1058 14.0813
L5.1662 14.2022
" />
<path d="M5.1662 14.2022
L5.1662 14.3232
" />
<path d="M5.1662 14.3232
L5.1058 14.4441
" />
<path d="M5.1058 14.4441
L5.0453 14.5046
" />
<path d="M5.0453 14.5046
L4.9243 14.5651
" />
<path d="M4.9243 14.5651
L4.6824 14.6255
" />
<path d="M4.6824 14.6255
L4.3800 14.6255
" />
<path d="M4.3800 14.6255
L4.1381 14.5651
" />
<path d="M4.1381 14.5651
L4.0172 14.5046
" />
<path d="M4.0172 14.5046
L3.9567 14.4441
" />
<path d="M3.9567 14.4441
L3.8962 14.3232
" />
<path d="M3.8962 13.1137
L3.8962 12.9927
" />
<path d="M3.8962 12.9927
L3.9567 12.8718
" />
<path d="M3.9567 12.8718
L4.0172 12.8113
" />
<path d="M4.0172 12.8113
L4.1381 12.7508
" />
<path d="M4.1381 12.7508
L4.3800 12.6903
" />
<path d="M4.3800 12.6903
L4.6824 12.6903
" />
<path d="M4.6824 12.6903
L4.9243 12.7508
" />
<path d="M4.9243 12.7508
L5.0453 12.8113
" />
<path d="M5.0453 12.8113
L5.1058 12.8718
" />
<path d="M5.1058 12.8718
L5.1662 12.9927
" />
<path d="M5.1662 12.9927
L5.1662 13.1137
" />
<path d="M5.1662 13.1137
L5.1058 13.2346
" />
<path d="M5.1058 13.2346
L5.0453 13.2951
" />
<path d="M5.0453 13.2951
L4.9243 13.3556
" />
<path d="M4.9243 13.3556
L4.6824 13.4160
" />
<path d="M4.6824 13.4160
L4.3800 13.4160
" />
<path d="M4.3800 13.4160
L4.1381 13.3556
" />
<path d="M4.1381 13.3556
L4.0172 13.2951
" />
<path d="M4.0172 13.2951
L3.9567 13.2346
" />
<path d="M3.9567 13.2346
L3.8962 13.1137
" />
<path d="M4.5010 12.1461
L4.5010 11.7227
" />
<path d="M5.1662 11.5413
L5.1662 12.1461
" />
<path d="M5.1662 12.1461
L3.8962 12.1461
" />
<path d="M3.8962 12.1461
L3.8962 11.5413
" />
<path d="M5.0453 10.9971
L5.1058 10.9366
" />
<path d="M5.1058 10.9366
L5.1662 10.9971
" />
<path d="M5.1662 10.9971
L5.1058 11.0575
" />
<path d="M5.1058 11.0575
L5.0453 10.9971
" />
<path d="M5.0453 10.9971
L5.1662 10.9971
" />
<path d="M4.3196 10.3923
L5.5896 10.3923
" />
<path d="M4.3800 10.3923
L4.3196 10.2713
" />
<path d="M4.3196 10.2713
L4.3196 10.0294
" />
<path d="M4.3196 10.0294
L4.3800 9.9085
" />
<path d="M4.3800 9.9085
L4.4405 9.8480
" />
<path d="M4.4405 9.8480
L4.5615 9.7875
" />
<path d="M4.5615 9.7875
L4.9243 9.7875
" />
<path d="M4.9243 9.7875
L5.0453 9.8480
" />
<path d="M5.0453 9.8480
L5.1058 9.9085
" />
<path d="M5.1058 9.9085
L5.1662 10.0294
" />
<path d="M5.1662 10.0294
L5.1662 10.2713
" />
<path d="M5.1662 10.2713
L5.1058 10.3923
" />
<path d="M5.1662 8.6990
L3.8962 8.6990
" />
<path d="M5.1058 8.6990
L5.1662 8.8199
" />
<path d="M5.1662 8.8199
L5.1662 9.0618
" />
<path d="M5.1662 9.0618
L5.1058 9.1828
" />
<path d="M5.1058 9.1828
L5.0453 9.2433
" />
<path d="M5.0453 9.2433
L4.9243 9.3037
" />
<path d="M4.9243 9.3037
L4.5615 9.3037
" />
<path d="M4.5615 9.3037
L4.4405 9.2433
" />
<path d="M4.4405 9.2433
L4.3800 9.1828
" />
<path d="M4.3800 9.1828
L4.3196 9.0618
" />
<path d="M4.3196 9.0618
L4.3196 8.8199
" />
<path d="M4.3196 8.8199
L4.3800 8.6990
" />
<path d="M4.3196 8.2757
L4.3196 7.7919
" />
<path d="M5.1662 8.0943
L4.0777 8.0943
" />
<path d="M4.0777 8.0943
L3.9567 8.0338
" />
<path d="M3.9567 8.0338
L3.8962 7.9128
" />
<path d="M3.8962 7.9128
L3.8962 7.7919
" />
</g></g> 
</svg>
