<?xml version="1.0" standalone="no"?>
 <!DOCTYPE svg PUBLIC "-//W3C//DTD SVG 1.1//EN" 
 "http://www.w3.org/Graphics/SVG/1.1/DTD/svg11.dtd"> 
<svg
  xmlns:svg="http://www.w3.org/2000/svg"
  xmlns="http://www.w3.org/2000/svg"
  xmlns:xlink="http://www.w3.org/1999/xlink"
  version="1.1"
  width="60.1980mm" height="13.1318mm" viewBox="0.0000 0.0000 60.1980 13.1318">
<title>SVG Image created as working.svg date 2023/08/13 05:45:57 </title>
  <desc>Image generated by Eeschema-SVG </desc>
<g style="fill:#000000; fill-opacity:1.0000;stroke:#000000; stroke-opacity:1.0000;
stroke-linecap:round; stroke-linejoin:round;"
 transform="translate(0 0) scale(1 1)">
</g>
<g style="fill:#840000; fill-opacity:0.0; 
stroke:#840000; stroke-width:0.0000; stroke-opacity:1; 
stroke-linecap:round; stroke-linejoin:round;">
</g>
<g style="fill:#840084; fill-opacity:0.0; 
stroke:#840084; stroke-width:0.0000; stroke-opacity:1; 
stroke-linecap:round; stroke-linejoin:round;">
</g>
<g style="fill:#840000; fill-opacity:0.0; 
stroke:#840000; stroke-width:0.0000; stroke-opacity:1; 
stroke-linecap:round; stroke-linejoin:round;">
</g>
<g style="fill:#840084; fill-opacity:0.0; 
stroke:#840084; stroke-width:0.0000; stroke-opacity:1; 
stroke-linecap:round; stroke-linejoin:round;">
</g>
<g style="fill:#006464; fill-opacity:0.0; 
stroke:#006464; stroke-width:0.0000; stroke-opacity:1; 
stroke-linecap:round; stroke-linejoin:round;">
</g>
<g style="fill:#006464; fill-opacity:0.0; 
stroke:#006464; stroke-width:0.1588; stroke-opacity:1; 
stroke-linecap:round; stroke-linejoin:round;">
<text x="23.8059" y="2.7499"
textLength="2.6415" font-size="1.6933" lengthAdjust="spacingAndGlyphs"
text-anchor="middle" opacity="0">U?</text>
<g class="stroked-text"><desc>U?</desc>
<path d="M22.8987 1.4241
L22.8987 2.4522
" />
<path d="M22.8987 2.4522
L22.9592 2.5732
" />
<path d="M22.9592 2.5732
L23.0197 2.6337
" />
<path d="M23.0197 2.6337
L23.1406 2.6941
" />
<path d="M23.1406 2.6941
L23.3825 2.6941
" />
<path d="M23.3825 2.6941
L23.5035 2.6337
" />
<path d="M23.5035 2.6337
L23.5640 2.5732
" />
<path d="M23.5640 2.5732
L23.6244 2.4522
" />
<path d="M23.6244 2.4522
L23.6244 1.4241
" />
<path d="M24.4107 2.5732
L24.4711 2.6337
" />
<path d="M24.4711 2.6337
L24.4107 2.6941
" />
<path d="M24.4107 2.6941
L24.3502 2.6337
" />
<path d="M24.3502 2.6337
L24.4107 2.5732
" />
<path d="M24.4107 2.5732
L24.4107 2.6941
" />
<path d="M24.1688 1.4846
L24.2897 1.4241
" />
<path d="M24.2897 1.4241
L24.5921 1.4241
" />
<path d="M24.5921 1.4241
L24.7130 1.4846
" />
<path d="M24.7130 1.4846
L24.7735 1.6056
" />
<path d="M24.7735 1.6056
L24.7735 1.7265
" />
<path d="M24.7735 1.7265
L24.7130 1.8475
" />
<path d="M24.7130 1.8475
L24.6526 1.9079
" />
<path d="M24.6526 1.9079
L24.5316 1.9684
" />
<path d="M24.5316 1.9684
L24.4711 2.0289
" />
<path d="M24.4711 2.0289
L24.4107 2.1498
" />
<path d="M24.4107 2.1498
L24.4107 2.2103
" />
</g><text x="37.6851" y="2.7499"
textLength="10.0799" font-size="1.6933" lengthAdjust="spacingAndGlyphs"
text-anchor="middle" opacity="0">SP3485CP</text>
<g class="stroked-text"><desc>SP3485CP</desc>
<path d="M32.9983 2.6337
L33.1797 2.6941
" />
<path d="M33.1797 2.6941
L33.4821 2.6941
" />
<path d="M33.4821 2.6941
L33.6030 2.6337
" />
<path d="M33.6030 2.6337
L33.6635 2.5732
" />
<path d="M33.6635 2.5732
L33.7240 2.4522
" />
<path d="M33.7240 2.4522
L33.7240 2.3313
" />
<path d="M33.7240 2.3313
L33.6635 2.2103
" />
<path d="M33.6635 2.2103
L33.6030 2.1498
" />
<path d="M33.6030 2.1498
L33.4821 2.0894
" />
<path d="M33.4821 2.0894
L33.2402 2.0289
" />
<path d="M33.2402 2.0289
L33.1192 1.9684
" />
<path d="M33.1192 1.9684
L33.0587 1.9079
" />
<path d="M33.0587 1.9079
L32.9983 1.7870
" />
<path d="M32.9983 1.7870
L32.9983 1.6660
" />
<path d="M32.9983 1.6660
L33.0587 1.5451
" />
<path d="M33.0587 1.5451
L33.1192 1.4846
" />
<path d="M33.1192 1.4846
L33.2402 1.4241
" />
<path d="M33.2402 1.4241
L33.5425 1.4241
" />
<path d="M33.5425 1.4241
L33.7240 1.4846
" />
<path d="M34.2682 2.6941
L34.2682 1.4241
" />
<path d="M34.2682 1.4241
L34.7520 1.4241
" />
<path d="M34.7520 1.4241
L34.8730 1.4846
" />
<path d="M34.8730 1.4846
L34.9335 1.5451
" />
<path d="M34.9335 1.5451
L34.9939 1.6660
" />
<path d="M34.9939 1.6660
L34.9939 1.8475
" />
<path d="M34.9939 1.8475
L34.9335 1.9684
" />
<path d="M34.9335 1.9684
L34.8730 2.0289
" />
<path d="M34.8730 2.0289
L34.7520 2.0894
" />
<path d="M34.7520 2.0894
L34.2682 2.0894
" />
<path d="M35.4173 1.4241
L36.2035 1.4241
" />
<path d="M36.2035 1.4241
L35.7801 1.9079
" />
<path d="M35.7801 1.9079
L35.9616 1.9079
" />
<path d="M35.9616 1.9079
L36.0825 1.9684
" />
<path d="M36.0825 1.9684
L36.1430 2.0289
" />
<path d="M36.1430 2.0289
L36.2035 2.1498
" />
<path d="M36.2035 2.1498
L36.2035 2.4522
" />
<path d="M36.2035 2.4522
L36.1430 2.5732
" />
<path d="M36.1430 2.5732
L36.0825 2.6337
" />
<path d="M36.0825 2.6337
L35.9616 2.6941
" />
<path d="M35.9616 2.6941
L35.5987 2.6941
" />
<path d="M35.5987 2.6941
L35.4778 2.6337
" />
<path d="M35.4778 2.6337
L35.4173 2.5732
" />
<path d="M37.2920 1.8475
L37.2920 2.6941
" />
<path d="M36.9896 1.3637
L36.6873 2.2708
" />
<path d="M36.6873 2.2708
L37.4734 2.2708
" />
<path d="M38.1387 1.9684
L38.0177 1.9079
" />
<path d="M38.0177 1.9079
L37.9572 1.8475
" />
<path d="M37.9572 1.8475
L37.8968 1.7265
" />
<path d="M37.8968 1.7265
L37.8968 1.6660
" />
<path d="M37.8968 1.6660
L37.9572 1.5451
" />
<path d="M37.9572 1.5451
L38.0177 1.4846
" />
<path d="M38.0177 1.4846
L38.1387 1.4241
" />
<path d="M38.1387 1.4241
L38.3806 1.4241
" />
<path d="M38.3806 1.4241
L38.5015 1.4846
" />
<path d="M38.5015 1.4846
L38.5620 1.5451
" />
<path d="M38.5620 1.5451
L38.6225 1.6660
" />
<path d="M38.6225 1.6660
L38.6225 1.7265
" />
<path d="M38.6225 1.7265
L38.5620 1.8475
" />
<path d="M38.5620 1.8475
L38.5015 1.9079
" />
<path d="M38.5015 1.9079
L38.3806 1.9684
" />
<path d="M38.3806 1.9684
L38.1387 1.9684
" />
<path d="M38.1387 1.9684
L38.0177 2.0289
" />
<path d="M38.0177 2.0289
L37.9572 2.0894
" />
<path d="M37.9572 2.0894
L37.8968 2.2103
" />
<path d="M37.8968 2.2103
L37.8968 2.4522
" />
<path d="M37.8968 2.4522
L37.9572 2.5732
" />
<path d="M37.9572 2.5732
L38.0177 2.6337
" />
<path d="M38.0177 2.6337
L38.1387 2.6941
" />
<path d="M38.1387 2.6941
L38.3806 2.6941
" />
<path d="M38.3806 2.6941
L38.5015 2.6337
" />
<path d="M38.5015 2.6337
L38.5620 2.5732
" />
<path d="M38.5620 2.5732
L38.6225 2.4522
" />
<path d="M38.6225 2.4522
L38.6225 2.2103
" />
<path d="M38.6225 2.2103
L38.5620 2.0894
" />
<path d="M38.5620 2.0894
L38.5015 2.0289
" />
<path d="M38.5015 2.0289
L38.3806 1.9684
" />
<path d="M39.7715 1.4241
L39.1667 1.4241
" />
<path d="M39.1667 1.4241
L39.1063 2.0289
" />
<path d="M39.1063 2.0289
L39.1667 1.9684
" />
<path d="M39.1667 1.9684
L39.2877 1.9079
" />
<path d="M39.2877 1.9079
L39.5901 1.9079
" />
<path d="M39.5901 1.9079
L39.7110 1.9684
" />
<path d="M39.7110 1.9684
L39.7715 2.0289
" />
<path d="M39.7715 2.0289
L39.8320 2.1498
" />
<path d="M39.8320 2.1498
L39.8320 2.4522
" />
<path d="M39.8320 2.4522
L39.7715 2.5732
" />
<path d="M39.7715 2.5732
L39.7110 2.6337
" />
<path d="M39.7110 2.6337
L39.5901 2.6941
" />
<path d="M39.5901 2.6941
L39.2877 2.6941
" />
<path d="M39.2877 2.6941
L39.1667 2.6337
" />
<path d="M39.1667 2.6337
L39.1063 2.5732
" />
<path d="M41.1019 2.5732
L41.0415 2.6337
" />
<path d="M41.0415 2.6337
L40.8600 2.6941
" />
<path d="M40.8600 2.6941
L40.7391 2.6941
" />
<path d="M40.7391 2.6941
L40.5577 2.6337
" />
<path d="M40.5577 2.6337
L40.4367 2.5127
" />
<path d="M40.4367 2.5127
L40.3762 2.3917
" />
<path d="M40.3762 2.3917
L40.3158 2.1498
" />
<path d="M40.3158 2.1498
L40.3158 1.9684
" />
<path d="M40.3158 1.9684
L40.3762 1.7265
" />
<path d="M40.3762 1.7265
L40.4367 1.6056
" />
<path d="M40.4367 1.6056
L40.5577 1.4846
" />
<path d="M40.5577 1.4846
L40.7391 1.4241
" />
<path d="M40.7391 1.4241
L40.8600 1.4241
" />
<path d="M40.8600 1.4241
L41.0415 1.4846
" />
<path d="M41.0415 1.4846
L41.1019 1.5451
" />
<path d="M41.6462 2.6941
L41.6462 1.4241
" />
<path d="M41.6462 1.4241
L42.1300 1.4241
" />
<path d="M42.1300 1.4241
L42.2510 1.4846
" />
<path d="M42.2510 1.4846
L42.3115 1.5451
" />
<path d="M42.3115 1.5451
L42.3719 1.6660
" />
<path d="M42.3719 1.6660
L42.3719 1.8475
" />
<path d="M42.3719 1.8475
L42.3115 1.9684
" />
<path d="M42.3115 1.9684
L42.2510 2.0289
" />
<path d="M42.2510 2.0289
L42.1300 2.0894
" />
<path d="M42.1300 2.0894
L41.6462 2.0894
" />
</g></g>
<g style="fill:#840084; fill-opacity:0.0; 
stroke:#840084; stroke-width:0.1588; stroke-opacity:1; 
stroke-linecap:round; stroke-linejoin:round;">
<text x="30.1846" y="11.6399"
textLength="28.8275" font-size="1.6933" lengthAdjust="spacingAndGlyphs"
text-anchor="middle" opacity="0">Package_DIP:DIP-8_W7.62mm</text>
<g class="stroked-text"><desc>Package_DIP:DIP-8_W7.62mm</desc>
<path d="M16.1769 11.5841
L16.3356 10.3141
" />
<path d="M16.3356 10.3141
L16.8194 10.3141
" />
<path d="M16.8194 10.3141
L16.9328 10.3746
" />
<path d="M16.9328 10.3746
L16.9857 10.4351
" />
<path d="M16.9857 10.4351
L17.0311 10.5560
" />
<path d="M17.0311 10.5560
L17.0084 10.7375
" />
<path d="M17.0084 10.7375
L16.9328 10.8584
" />
<path d="M16.9328 10.8584
L16.8648 10.9189
" />
<path d="M16.8648 10.9189
L16.7363 10.9794
" />
<path d="M16.7363 10.9794
L16.2525 10.9794
" />
<path d="M17.9912 11.5841
L18.0743 10.9189
" />
<path d="M18.0743 10.9189
L18.0290 10.7979
" />
<path d="M18.0290 10.7979
L17.9156 10.7375
" />
<path d="M17.9156 10.7375
L17.6737 10.7375
" />
<path d="M17.6737 10.7375
L17.5451 10.7979
" />
<path d="M17.9987 11.5237
L17.8702 11.5841
" />
<path d="M17.8702 11.5841
L17.5678 11.5841
" />
<path d="M17.5678 11.5841
L17.4544 11.5237
" />
<path d="M17.4544 11.5237
L17.4091 11.4027
" />
<path d="M17.4091 11.4027
L17.4242 11.2817
" />
<path d="M17.4242 11.2817
L17.4998 11.1608
" />
<path d="M17.4998 11.1608
L17.6283 11.1003
" />
<path d="M17.6283 11.1003
L17.9307 11.1003
" />
<path d="M17.9307 11.1003
L18.0592 11.0398
" />
<path d="M19.1477 11.5237
L19.0192 11.5841
" />
<path d="M19.0192 11.5841
L18.7773 11.5841
" />
<path d="M18.7773 11.5841
L18.6639 11.5237
" />
<path d="M18.6639 11.5237
L18.6110 11.4632
" />
<path d="M18.6110 11.4632
L18.5656 11.3422
" />
<path d="M18.5656 11.3422
L18.6110 10.9794
" />
<path d="M18.6110 10.9794
L18.6866 10.8584
" />
<path d="M18.6866 10.8584
L18.7546 10.7979
" />
<path d="M18.7546 10.7979
L18.8831 10.7375
" />
<path d="M18.8831 10.7375
L19.1250 10.7375
" />
<path d="M19.1250 10.7375
L19.2384 10.7979
" />
<path d="M19.6845 11.5841
L19.8432 10.3141
" />
<path d="M19.8659 11.1003
L20.1683 11.5841
" />
<path d="M20.2741 10.7375
L19.7298 11.2213
" />
<path d="M21.2569 11.5841
L21.3400 10.9189
" />
<path d="M21.3400 10.9189
L21.2947 10.7979
" />
<path d="M21.2947 10.7979
L21.1813 10.7375
" />
<path d="M21.1813 10.7375
L20.9394 10.7375
" />
<path d="M20.9394 10.7375
L20.8108 10.7979
" />
<path d="M21.2644 11.5237
L21.1359 11.5841
" />
<path d="M21.1359 11.5841
L20.8335 11.5841
" />
<path d="M20.8335 11.5841
L20.7201 11.5237
" />
<path d="M20.7201 11.5237
L20.6748 11.4027
" />
<path d="M20.6748 11.4027
L20.6899 11.2817
" />
<path d="M20.6899 11.2817
L20.7655 11.1608
" />
<path d="M20.7655 11.1608
L20.8940 11.1003
" />
<path d="M20.8940 11.1003
L21.1964 11.1003
" />
<path d="M21.1964 11.1003
L21.3249 11.0398
" />
<path d="M22.5117 10.7375
L22.3832 11.7656
" />
<path d="M22.3832 11.7656
L22.3076 11.8865
" />
<path d="M22.3076 11.8865
L22.2395 11.9470
" />
<path d="M22.2395 11.9470
L22.1110 12.0075
" />
<path d="M22.1110 12.0075
L21.9296 12.0075
" />
<path d="M21.9296 12.0075
L21.8162 11.9470
" />
<path d="M22.4134 11.5237
L22.2849 11.5841
" />
<path d="M22.2849 11.5841
L22.0430 11.5841
" />
<path d="M22.0430 11.5841
L21.9296 11.5237
" />
<path d="M21.9296 11.5237
L21.8767 11.4632
" />
<path d="M21.8767 11.4632
L21.8313 11.3422
" />
<path d="M21.8313 11.3422
L21.8767 10.9794
" />
<path d="M21.8767 10.9794
L21.9523 10.8584
" />
<path d="M21.9523 10.8584
L22.0203 10.7979
" />
<path d="M22.0203 10.7979
L22.1488 10.7375
" />
<path d="M22.1488 10.7375
L22.3907 10.7375
" />
<path d="M22.3907 10.7375
L22.5041 10.7979
" />
<path d="M23.5019 11.5237
L23.3734 11.5841
" />
<path d="M23.3734 11.5841
L23.1315 11.5841
" />
<path d="M23.1315 11.5841
L23.0181 11.5237
" />
<path d="M23.0181 11.5237
L22.9728 11.4027
" />
<path d="M22.9728 11.4027
L23.0333 10.9189
" />
<path d="M23.0333 10.9189
L23.1088 10.7979
" />
<path d="M23.1088 10.7979
L23.2374 10.7375
" />
<path d="M23.2374 10.7375
L23.4793 10.7375
" />
<path d="M23.4793 10.7375
L23.5927 10.7979
" />
<path d="M23.5927 10.7979
L23.6380 10.9189
" />
<path d="M23.6380 10.9189
L23.6229 11.0398
" />
<path d="M23.6229 11.0398
L23.0030 11.1608
" />
<path d="M23.7817 11.7051
L24.7493 11.7051
" />
<path d="M25.0668 11.5841
L25.2255 10.3141
" />
<path d="M25.2255 10.3141
L25.5279 10.3141
" />
<path d="M25.5279 10.3141
L25.7018 10.3746
" />
<path d="M25.7018 10.3746
L25.8076 10.4956
" />
<path d="M25.8076 10.4956
L25.8530 10.6165
" />
<path d="M25.8530 10.6165
L25.8832 10.8584
" />
<path d="M25.8832 10.8584
L25.8605 11.0398
" />
<path d="M25.8605 11.0398
L25.7698 11.2817
" />
<path d="M25.7698 11.2817
L25.6942 11.4027
" />
<path d="M25.6942 11.4027
L25.5581 11.5237
" />
<path d="M25.5581 11.5237
L25.3692 11.5841
" />
<path d="M25.3692 11.5841
L25.0668 11.5841
" />
<path d="M26.3368 11.5841
L26.4955 10.3141
" />
<path d="M26.9416 11.5841
L27.1003 10.3141
" />
<path d="M27.1003 10.3141
L27.5841 10.3141
" />
<path d="M27.5841 10.3141
L27.6975 10.3746
" />
<path d="M27.6975 10.3746
L27.7504 10.4351
" />
<path d="M27.7504 10.4351
L27.7958 10.5560
" />
<path d="M27.7958 10.5560
L27.7731 10.7375
" />
<path d="M27.7731 10.7375
L27.6975 10.8584
" />
<path d="M27.6975 10.8584
L27.6295 10.9189
" />
<path d="M27.6295 10.9189
L27.5010 10.9794
" />
<path d="M27.5010 10.9794
L27.0172 10.9794
" />
<path d="M28.2267 11.4632
L28.2796 11.5237
" />
<path d="M28.2796 11.5237
L28.2116 11.5841
" />
<path d="M28.2116 11.5841
L28.1587 11.5237
" />
<path d="M28.1587 11.5237
L28.2267 11.4632
" />
<path d="M28.2267 11.4632
L28.2116 11.5841
" />
<path d="M28.3098 10.7979
L28.3628 10.8584
" />
<path d="M28.3628 10.8584
L28.2947 10.9189
" />
<path d="M28.2947 10.9189
L28.2418 10.8584
" />
<path d="M28.2418 10.8584
L28.3098 10.7979
" />
<path d="M28.3098 10.7979
L28.2947 10.9189
" />
<path d="M28.8164 11.5841
L28.9751 10.3141
" />
<path d="M28.9751 10.3141
L29.2775 10.3141
" />
<path d="M29.2775 10.3141
L29.4514 10.3746
" />
<path d="M29.4514 10.3746
L29.5572 10.4956
" />
<path d="M29.5572 10.4956
L29.6026 10.6165
" />
<path d="M29.6026 10.6165
L29.6328 10.8584
" />
<path d="M29.6328 10.8584
L29.6101 11.0398
" />
<path d="M29.6101 11.0398
L29.5194 11.2817
" />
<path d="M29.5194 11.2817
L29.4438 11.4027
" />
<path d="M29.4438 11.4027
L29.3077 11.5237
" />
<path d="M29.3077 11.5237
L29.1188 11.5841
" />
<path d="M29.1188 11.5841
L28.8164 11.5841
" />
<path d="M30.0864 11.5841
L30.2451 10.3141
" />
<path d="M30.6912 11.5841
L30.8499 10.3141
" />
<path d="M30.8499 10.3141
L31.3337 10.3141
" />
<path d="M31.3337 10.3141
L31.4471 10.3746
" />
<path d="M31.4471 10.3746
L31.5000 10.4351
" />
<path d="M31.5000 10.4351
L31.5454 10.5560
" />
<path d="M31.5454 10.5560
L31.5227 10.7375
" />
<path d="M31.5227 10.7375
L31.4471 10.8584
" />
<path d="M31.4471 10.8584
L31.3791 10.9189
" />
<path d="M31.3791 10.9189
L31.2506 10.9794
" />
<path d="M31.2506 10.9794
L30.7668 10.9794
" />
<path d="M32.0216 11.1003
L32.9893 11.1003
" />
<path d="M33.8057 10.8584
L33.6923 10.7979
" />
<path d="M33.6923 10.7979
L33.6394 10.7375
" />
<path d="M33.6394 10.7375
L33.5940 10.6165
" />
<path d="M33.5940 10.6165
L33.6016 10.5560
" />
<path d="M33.6016 10.5560
L33.6772 10.4351
" />
<path d="M33.6772 10.4351
L33.7452 10.3746
" />
<path d="M33.7452 10.3746
L33.8738 10.3141
" />
<path d="M33.8738 10.3141
L34.1157 10.3141
" />
<path d="M34.1157 10.3141
L34.2290 10.3746
" />
<path d="M34.2290 10.3746
L34.2820 10.4351
" />
<path d="M34.2820 10.4351
L34.3273 10.5560
" />
<path d="M34.3273 10.5560
L34.3198 10.6165
" />
<path d="M34.3198 10.6165
L34.2442 10.7375
" />
<path d="M34.2442 10.7375
L34.1761 10.7979
" />
<path d="M34.1761 10.7979
L34.0476 10.8584
" />
<path d="M34.0476 10.8584
L33.8057 10.8584
" />
<path d="M33.8057 10.8584
L33.6772 10.9189
" />
<path d="M33.6772 10.9189
L33.6092 10.9794
" />
<path d="M33.6092 10.9794
L33.5336 11.1003
" />
<path d="M33.5336 11.1003
L33.5033 11.3422
" />
<path d="M33.5033 11.3422
L33.5487 11.4632
" />
<path d="M33.5487 11.4632
L33.6016 11.5237
" />
<path d="M33.6016 11.5237
L33.7150 11.5841
" />
<path d="M33.7150 11.5841
L33.9569 11.5841
" />
<path d="M33.9569 11.5841
L34.0854 11.5237
" />
<path d="M34.0854 11.5237
L34.1535 11.4632
" />
<path d="M34.1535 11.4632
L34.2290 11.3422
" />
<path d="M34.2290 11.3422
L34.2593 11.1003
" />
<path d="M34.2593 11.1003
L34.2139 10.9794
" />
<path d="M34.2139 10.9794
L34.1610 10.9189
" />
<path d="M34.1610 10.9189
L34.0476 10.8584
" />
<path d="M34.4256 11.7051
L35.3932 11.7051
" />
<path d="M35.7485 10.3141
L35.8921 11.5841
" />
<path d="M35.8921 11.5841
L36.2474 10.6770
" />
<path d="M36.2474 10.6770
L36.3759 11.5841
" />
<path d="M36.3759 11.5841
L36.8370 10.3141
" />
<path d="M37.1999 10.3141
L38.0465 10.3141
" />
<path d="M38.0465 10.3141
L37.3435 11.5841
" />
<path d="M38.3867 11.4632
L38.4396 11.5237
" />
<path d="M38.4396 11.5237
L38.3716 11.5841
" />
<path d="M38.3716 11.5841
L38.3187 11.5237
" />
<path d="M38.3187 11.5237
L38.3867 11.4632
" />
<path d="M38.3867 11.4632
L38.3716 11.5841
" />
<path d="M39.6794 10.3141
L39.4375 10.3141
" />
<path d="M39.4375 10.3141
L39.3090 10.3746
" />
<path d="M39.3090 10.3746
L39.2410 10.4351
" />
<path d="M39.2410 10.4351
L39.0973 10.6165
" />
<path d="M39.0973 10.6165
L39.0066 10.8584
" />
<path d="M39.0066 10.8584
L38.9461 11.3422
" />
<path d="M38.9461 11.3422
L38.9915 11.4632
" />
<path d="M38.9915 11.4632
L39.0444 11.5237
" />
<path d="M39.0444 11.5237
L39.1578 11.5841
" />
<path d="M39.1578 11.5841
L39.3997 11.5841
" />
<path d="M39.3997 11.5841
L39.5282 11.5237
" />
<path d="M39.5282 11.5237
L39.5963 11.4632
" />
<path d="M39.5963 11.4632
L39.6718 11.3422
" />
<path d="M39.6718 11.3422
L39.7096 11.0398
" />
<path d="M39.7096 11.0398
L39.6643 10.9189
" />
<path d="M39.6643 10.9189
L39.6114 10.8584
" />
<path d="M39.6114 10.8584
L39.4980 10.7979
" />
<path d="M39.4980 10.7979
L39.2561 10.7979
" />
<path d="M39.2561 10.7979
L39.1276 10.8584
" />
<path d="M39.1276 10.8584
L39.0595 10.9189
" />
<path d="M39.0595 10.9189
L38.9839 11.0398
" />
<path d="M40.2690 10.4351
L40.3371 10.3746
" />
<path d="M40.3371 10.3746
L40.4656 10.3141
" />
<path d="M40.4656 10.3141
L40.7680 10.3141
" />
<path d="M40.7680 10.3141
L40.8813 10.3746
" />
<path d="M40.8813 10.3746
L40.9343 10.4351
" />
<path d="M40.9343 10.4351
L40.9796 10.5560
" />
<path d="M40.9796 10.5560
L40.9645 10.6770
" />
<path d="M40.9645 10.6770
L40.8813 10.8584
" />
<path d="M40.8813 10.8584
L40.0649 11.5841
" />
<path d="M40.0649 11.5841
L40.8511 11.5841
" />
<path d="M41.3954 11.5841
L41.5012 10.7375
" />
<path d="M41.4861 10.8584
L41.5541 10.7979
" />
<path d="M41.5541 10.7979
L41.6826 10.7375
" />
<path d="M41.6826 10.7375
L41.8641 10.7375
" />
<path d="M41.8641 10.7375
L41.9775 10.7979
" />
<path d="M41.9775 10.7979
L42.0228 10.9189
" />
<path d="M42.0228 10.9189
L41.9397 11.5841
" />
<path d="M42.0228 10.9189
L42.0984 10.7979
" />
<path d="M42.0984 10.7979
L42.2269 10.7375
" />
<path d="M42.2269 10.7375
L42.4083 10.7375
" />
<path d="M42.4083 10.7375
L42.5217 10.7979
" />
<path d="M42.5217 10.7979
L42.5671 10.9189
" />
<path d="M42.5671 10.9189
L42.4839 11.5841
" />
<path d="M43.0887 11.5841
L43.1945 10.7375
" />
<path d="M43.1794 10.8584
L43.2474 10.7979
" />
<path d="M43.2474 10.7979
L43.3759 10.7375
" />
<path d="M43.3759 10.7375
L43.5574 10.7375
" />
<path d="M43.5574 10.7375
L43.6708 10.7979
" />
<path d="M43.6708 10.7979
L43.7161 10.9189
" />
<path d="M43.7161 10.9189
L43.6330 11.5841
" />
<path d="M43.7161 10.9189
L43.7917 10.7979
" />
<path d="M43.7917 10.7979
L43.9202 10.7375
" />
<path d="M43.9202 10.7375
L44.1016 10.7375
" />
<path d="M44.1016 10.7375
L44.2150 10.7979
" />
<path d="M44.2150 10.7979
L44.2604 10.9189
" />
<path d="M44.2604 10.9189
L44.1772 11.5841
" />
</g><text x="30.1052" y="11.6399"
textLength="50.1754" font-size="1.6933" lengthAdjust="spacingAndGlyphs"
text-anchor="middle" opacity="0">http://www.icbase.com/pdf/SPX/SPX00480106.pdf</text>
<g class="stroked-text"><desc>http://www.icbase.com/pdf/SPX/SPX00480106.pdf</desc>
<path d="M5.4310 11.5841
L5.4310 10.3141
" />
<path d="M5.9753 11.5841
L5.9753 10.9189
" />
<path d="M5.9753 10.9189
L5.9148 10.7979
" />
<path d="M5.9148 10.7979
L5.7939 10.7375
" />
<path d="M5.7939 10.7375
L5.6125 10.7375
" />
<path d="M5.6125 10.7375
L5.4915 10.7979
" />
<path d="M5.4915 10.7979
L5.4310 10.8584
" />
<path d="M6.3986 10.7375
L6.8824 10.7375
" />
<path d="M6.5800 10.3141
L6.5800 11.4027
" />
<path d="M6.5800 11.4027
L6.6405 11.5237
" />
<path d="M6.6405 11.5237
L6.7615 11.5841
" />
<path d="M6.7615 11.5841
L6.8824 11.5841
" />
<path d="M7.1243 10.7375
L7.6081 10.7375
" />
<path d="M7.3057 10.3141
L7.3057 11.4027
" />
<path d="M7.3057 11.4027
L7.3662 11.5237
" />
<path d="M7.3662 11.5237
L7.4872 11.5841
" />
<path d="M7.4872 11.5841
L7.6081 11.5841
" />
<path d="M8.0314 10.7375
L8.0314 12.0075
" />
<path d="M8.0314 10.7979
L8.1524 10.7375
" />
<path d="M8.1524 10.7375
L8.3943 10.7375
" />
<path d="M8.3943 10.7375
L8.5152 10.7979
" />
<path d="M8.5152 10.7979
L8.5757 10.8584
" />
<path d="M8.5757 10.8584
L8.6362 10.9794
" />
<path d="M8.6362 10.9794
L8.6362 11.3422
" />
<path d="M8.6362 11.3422
L8.5757 11.4632
" />
<path d="M8.5757 11.4632
L8.5152 11.5237
" />
<path d="M8.5152 11.5237
L8.3943 11.5841
" />
<path d="M8.3943 11.5841
L8.1524 11.5841
" />
<path d="M8.1524 11.5841
L8.0314 11.5237
" />
<path d="M9.1804 11.4632
L9.2409 11.5237
" />
<path d="M9.2409 11.5237
L9.1804 11.5841
" />
<path d="M9.1804 11.5841
L9.1200 11.5237
" />
<path d="M9.1200 11.5237
L9.1804 11.4632
" />
<path d="M9.1804 11.4632
L9.1804 11.5841
" />
<path d="M9.1804 10.7979
L9.2409 10.8584
" />
<path d="M9.2409 10.8584
L9.1804 10.9189
" />
<path d="M9.1804 10.9189
L9.1200 10.8584
" />
<path d="M9.1200 10.8584
L9.1804 10.7979
" />
<path d="M9.1804 10.7979
L9.1804 10.9189
" />
<path d="M10.6924 10.2537
L9.6038 11.8865
" />
<path d="M12.0229 10.2537
L10.9343 11.8865
" />
<path d="M12.3253 10.7375
L12.5672 11.5841
" />
<path d="M12.5672 11.5841
L12.8091 10.9794
" />
<path d="M12.8091 10.9794
L13.0510 11.5841
" />
<path d="M13.0510 11.5841
L13.2929 10.7375
" />
<path d="M13.6558 10.7375
L13.8977 11.5841
" />
<path d="M13.8977 11.5841
L14.1396 10.9794
" />
<path d="M14.1396 10.9794
L14.3815 11.5841
" />
<path d="M14.3815 11.5841
L14.6234 10.7375
" />
<path d="M14.9863 10.7375
L15.2282 11.5841
" />
<path d="M15.2282 11.5841
L15.4701 10.9794
" />
<path d="M15.4701 10.9794
L15.7120 11.5841
" />
<path d="M15.7120 11.5841
L15.9539 10.7375
" />
<path d="M16.4377 11.4632
L16.4982 11.5237
" />
<path d="M16.4982 11.5237
L16.4377 11.5841
" />
<path d="M16.4377 11.5841
L16.3773 11.5237
" />
<path d="M16.3773 11.5237
L16.4377 11.4632
" />
<path d="M16.4377 11.4632
L16.4377 11.5841
" />
<path d="M17.0425 11.5841
L17.0425 10.7375
" />
<path d="M17.0425 10.3141
L16.9821 10.3746
" />
<path d="M16.9821 10.3746
L17.0425 10.4351
" />
<path d="M17.0425 10.4351
L17.1030 10.3746
" />
<path d="M17.1030 10.3746
L17.0425 10.3141
" />
<path d="M17.0425 10.3141
L17.0425 10.4351
" />
<path d="M18.1916 11.5237
L18.0707 11.5841
" />
<path d="M18.0707 11.5841
L17.8288 11.5841
" />
<path d="M17.8288 11.5841
L17.7078 11.5237
" />
<path d="M17.7078 11.5237
L17.6473 11.4632
" />
<path d="M17.6473 11.4632
L17.5869 11.3422
" />
<path d="M17.5869 11.3422
L17.5869 10.9794
" />
<path d="M17.5869 10.9794
L17.6473 10.8584
" />
<path d="M17.6473 10.8584
L17.7078 10.7979
" />
<path d="M17.7078 10.7979
L17.8288 10.7375
" />
<path d="M17.8288 10.7375
L18.0707 10.7375
" />
<path d="M18.0707 10.7375
L18.1916 10.7979
" />
<path d="M18.7359 11.5841
L18.7359 10.3141
" />
<path d="M18.7359 10.7979
L18.8569 10.7375
" />
<path d="M18.8569 10.7375
L19.0988 10.7375
" />
<path d="M19.0988 10.7375
L19.2197 10.7979
" />
<path d="M19.2197 10.7979
L19.2802 10.8584
" />
<path d="M19.2802 10.8584
L19.3407 10.9794
" />
<path d="M19.3407 10.9794
L19.3407 11.3422
" />
<path d="M19.3407 11.3422
L19.2802 11.4632
" />
<path d="M19.2802 11.4632
L19.2197 11.5237
" />
<path d="M19.2197 11.5237
L19.0988 11.5841
" />
<path d="M19.0988 11.5841
L18.8569 11.5841
" />
<path d="M18.8569 11.5841
L18.7359 11.5237
" />
<path d="M20.4292 11.5841
L20.4292 10.9189
" />
<path d="M20.4292 10.9189
L20.3687 10.7979
" />
<path d="M20.3687 10.7979
L20.2478 10.7375
" />
<path d="M20.2478 10.7375
L20.0059 10.7375
" />
<path d="M20.0059 10.7375
L19.8849 10.7979
" />
<path d="M20.4292 11.5237
L20.3083 11.5841
" />
<path d="M20.3083 11.5841
L20.0059 11.5841
" />
<path d="M20.0059 11.5841
L19.8849 11.5237
" />
<path d="M19.8849 11.5237
L19.8245 11.4027
" />
<path d="M19.8245 11.4027
L19.8245 11.2817
" />
<path d="M19.8245 11.2817
L19.8849 11.1608
" />
<path d="M19.8849 11.1608
L20.0059 11.1003
" />
<path d="M20.0059 11.1003
L20.3083 11.1003
" />
<path d="M20.3083 11.1003
L20.4292 11.0398
" />
<path d="M20.9735 11.5237
L21.0944 11.5841
" />
<path d="M21.0944 11.5841
L21.3363 11.5841
" />
<path d="M21.3363 11.5841
L21.4573 11.5237
" />
<path d="M21.4573 11.5237
L21.5177 11.4027
" />
<path d="M21.5177 11.4027
L21.5177 11.3422
" />
<path d="M21.5177 11.3422
L21.4573 11.2213
" />
<path d="M21.4573 11.2213
L21.3363 11.1608
" />
<path d="M21.3363 11.1608
L21.1549 11.1608
" />
<path d="M21.1549 11.1608
L21.0339 11.1003
" />
<path d="M21.0339 11.1003
L20.9735 10.9794
" />
<path d="M20.9735 10.9794
L20.9735 10.9189
" />
<path d="M20.9735 10.9189
L21.0339 10.7979
" />
<path d="M21.0339 10.7979
L21.1549 10.7375
" />
<path d="M21.1549 10.7375
L21.3363 10.7375
" />
<path d="M21.3363 10.7375
L21.4573 10.7979
" />
<path d="M22.5458 11.5237
L22.4249 11.5841
" />
<path d="M22.4249 11.5841
L22.1830 11.5841
" />
<path d="M22.1830 11.5841
L22.0620 11.5237
" />
<path d="M22.0620 11.5237
L22.0016 11.4027
" />
<path d="M22.0016 11.4027
L22.0016 10.9189
" />
<path d="M22.0016 10.9189
L22.0620 10.7979
" />
<path d="M22.0620 10.7979
L22.1830 10.7375
" />
<path d="M22.1830 10.7375
L22.4249 10.7375
" />
<path d="M22.4249 10.7375
L22.5458 10.7979
" />
<path d="M22.5458 10.7979
L22.6063 10.9189
" />
<path d="M22.6063 10.9189
L22.6063 11.0398
" />
<path d="M22.6063 11.0398
L22.0016 11.1608
" />
<path d="M23.1506 11.4632
L23.2111 11.5237
" />
<path d="M23.2111 11.5237
L23.1506 11.5841
" />
<path d="M23.1506 11.5841
L23.0902 11.5237
" />
<path d="M23.0902 11.5237
L23.1506 11.4632
" />
<path d="M23.1506 11.4632
L23.1506 11.5841
" />
<path d="M24.2997 11.5237
L24.1788 11.5841
" />
<path d="M24.1788 11.5841
L23.9369 11.5841
" />
<path d="M23.9369 11.5841
L23.8159 11.5237
" />
<path d="M23.8159 11.5237
L23.7554 11.4632
" />
<path d="M23.7554 11.4632
L23.6950 11.3422
" />
<path d="M23.6950 11.3422
L23.6950 10.9794
" />
<path d="M23.6950 10.9794
L23.7554 10.8584
" />
<path d="M23.7554 10.8584
L23.8159 10.7979
" />
<path d="M23.8159 10.7979
L23.9369 10.7375
" />
<path d="M23.9369 10.7375
L24.1788 10.7375
" />
<path d="M24.1788 10.7375
L24.2997 10.7979
" />
<path d="M25.0255 11.5841
L24.9045 11.5237
" />
<path d="M24.9045 11.5237
L24.8440 11.4632
" />
<path d="M24.8440 11.4632
L24.7836 11.3422
" />
<path d="M24.7836 11.3422
L24.7836 10.9794
" />
<path d="M24.7836 10.9794
L24.8440 10.8584
" />
<path d="M24.8440 10.8584
L24.9045 10.7979
" />
<path d="M24.9045 10.7979
L25.0255 10.7375
" />
<path d="M25.0255 10.7375
L25.2069 10.7375
" />
<path d="M25.2069 10.7375
L25.3278 10.7979
" />
<path d="M25.3278 10.7979
L25.3883 10.8584
" />
<path d="M25.3883 10.8584
L25.4488 10.9794
" />
<path d="M25.4488 10.9794
L25.4488 11.3422
" />
<path d="M25.4488 11.3422
L25.3883 11.4632
" />
<path d="M25.3883 11.4632
L25.3278 11.5237
" />
<path d="M25.3278 11.5237
L25.2069 11.5841
" />
<path d="M25.2069 11.5841
L25.0255 11.5841
" />
<path d="M25.9930 11.5841
L25.9930 10.7375
" />
<path d="M25.9930 10.8584
L26.0535 10.7979
" />
<path d="M26.0535 10.7979
L26.1745 10.7375
" />
<path d="M26.1745 10.7375
L26.3559 10.7375
" />
<path d="M26.3559 10.7375
L26.4768 10.7979
" />
<path d="M26.4768 10.7979
L26.5373 10.9189
" />
<path d="M26.5373 10.9189
L26.5373 11.5841
" />
<path d="M26.5373 10.9189
L26.5978 10.7979
" />
<path d="M26.5978 10.7979
L26.7187 10.7375
" />
<path d="M26.7187 10.7375
L26.9002 10.7375
" />
<path d="M26.9002 10.7375
L27.0211 10.7979
" />
<path d="M27.0211 10.7979
L27.0816 10.9189
" />
<path d="M27.0816 10.9189
L27.0816 11.5841
" />
<path d="M28.5935 10.2537
L27.5049 11.8865
" />
<path d="M29.0168 10.7375
L29.0168 12.0075
" />
<path d="M29.0168 10.7979
L29.1378 10.7375
" />
<path d="M29.1378 10.7375
L29.3797 10.7375
" />
<path d="M29.3797 10.7375
L29.5006 10.7979
" />
<path d="M29.5006 10.7979
L29.5611 10.8584
" />
<path d="M29.5611 10.8584
L29.6216 10.9794
" />
<path d="M29.6216 10.9794
L29.6216 11.3422
" />
<path d="M29.6216 11.3422
L29.5611 11.4632
" />
<path d="M29.5611 11.4632
L29.5006 11.5237
" />
<path d="M29.5006 11.5237
L29.3797 11.5841
" />
<path d="M29.3797 11.5841
L29.1378 11.5841
" />
<path d="M29.1378 11.5841
L29.0168 11.5237
" />
<path d="M30.7101 11.5841
L30.7101 10.3141
" />
<path d="M30.7101 11.5237
L30.5892 11.5841
" />
<path d="M30.5892 11.5841
L30.3473 11.5841
" />
<path d="M30.3473 11.5841
L30.2263 11.5237
" />
<path d="M30.2263 11.5237
L30.1658 11.4632
" />
<path d="M30.1658 11.4632
L30.1054 11.3422
" />
<path d="M30.1054 11.3422
L30.1054 10.9794
" />
<path d="M30.1054 10.9794
L30.1658 10.8584
" />
<path d="M30.1658 10.8584
L30.2263 10.7979
" />
<path d="M30.2263 10.7979
L30.3473 10.7375
" />
<path d="M30.3473 10.7375
L30.5892 10.7375
" />
<path d="M30.5892 10.7375
L30.7101 10.7979
" />
<path d="M31.1334 10.7375
L31.6172 10.7375
" />
<path d="M31.3148 11.5841
L31.3148 10.4956
" />
<path d="M31.3148 10.4956
L31.3753 10.3746
" />
<path d="M31.3753 10.3746
L31.4963 10.3141
" />
<path d="M31.4963 10.3141
L31.6172 10.3141
" />
<path d="M32.9477 10.2537
L31.8591 11.8865
" />
<path d="M33.3106 11.5237
L33.4920 11.5841
" />
<path d="M33.4920 11.5841
L33.7944 11.5841
" />
<path d="M33.7944 11.5841
L33.9153 11.5237
" />
<path d="M33.9153 11.5237
L33.9758 11.4632
" />
<path d="M33.9758 11.4632
L34.0363 11.3422
" />
<path d="M34.0363 11.3422
L34.0363 11.2213
" />
<path d="M34.0363 11.2213
L33.9758 11.1003
" />
<path d="M33.9758 11.1003
L33.9153 11.0398
" />
<path d="M33.9153 11.0398
L33.7944 10.9794
" />
<path d="M33.7944 10.9794
L33.5525 10.9189
" />
<path d="M33.5525 10.9189
L33.4315 10.8584
" />
<path d="M33.4315 10.8584
L33.3710 10.7979
" />
<path d="M33.3710 10.7979
L33.3106 10.6770
" />
<path d="M33.3106 10.6770
L33.3106 10.5560
" />
<path d="M33.3106 10.5560
L33.3710 10.4351
" />
<path d="M33.3710 10.4351
L33.4315 10.3746
" />
<path d="M33.4315 10.3746
L33.5525 10.3141
" />
<path d="M33.5525 10.3141
L33.8548 10.3141
" />
<path d="M33.8548 10.3141
L34.0363 10.3746
" />
<path d="M34.5805 11.5841
L34.5805 10.3141
" />
<path d="M34.5805 10.3141
L35.0643 10.3141
" />
<path d="M35.0643 10.3141
L35.1853 10.3746
" />
<path d="M35.1853 10.3746
L35.2458 10.4351
" />
<path d="M35.2458 10.4351
L35.3062 10.5560
" />
<path d="M35.3062 10.5560
L35.3062 10.7375
" />
<path d="M35.3062 10.7375
L35.2458 10.8584
" />
<path d="M35.2458 10.8584
L35.1853 10.9189
" />
<path d="M35.1853 10.9189
L35.0643 10.9794
" />
<path d="M35.0643 10.9794
L34.5805 10.9794
" />
<path d="M35.7296 10.3141
L36.5762 11.5841
" />
<path d="M36.5762 10.3141
L35.7296 11.5841
" />
<path d="M37.9672 10.2537
L36.8786 11.8865
" />
<path d="M38.3301 11.5237
L38.5115 11.5841
" />
<path d="M38.5115 11.5841
L38.8139 11.5841
" />
<path d="M38.8139 11.5841
L38.9348 11.5237
" />
<path d="M38.9348 11.5237
L38.9953 11.4632
" />
<path d="M38.9953 11.4632
L39.0558 11.3422
" />
<path d="M39.0558 11.3422
L39.0558 11.2213
" />
<path d="M39.0558 11.2213
L38.9953 11.1003
" />
<path d="M38.9953 11.1003
L38.9348 11.0398
" />
<path d="M38.9348 11.0398
L38.8139 10.9794
" />
<path d="M38.8139 10.9794
L38.5720 10.9189
" />
<path d="M38.5720 10.9189
L38.4510 10.8584
" />
<path d="M38.4510 10.8584
L38.3905 10.7979
" />
<path d="M38.3905 10.7979
L38.3301 10.6770
" />
<path d="M38.3301 10.6770
L38.3301 10.5560
" />
<path d="M38.3301 10.5560
L38.3905 10.4351
" />
<path d="M38.3905 10.4351
L38.4510 10.3746
" />
<path d="M38.4510 10.3746
L38.5720 10.3141
" />
<path d="M38.5720 10.3141
L38.8743 10.3141
" />
<path d="M38.8743 10.3141
L39.0558 10.3746
" />
<path d="M39.6000 11.5841
L39.6000 10.3141
" />
<path d="M39.6000 10.3141
L40.0838 10.3141
" />
<path d="M40.0838 10.3141
L40.2048 10.3746
" />
<path d="M40.2048 10.3746
L40.2653 10.4351
" />
<path d="M40.2653 10.4351
L40.3257 10.5560
" />
<path d="M40.3257 10.5560
L40.3257 10.7375
" />
<path d="M40.3257 10.7375
L40.2653 10.8584
" />
<path d="M40.2653 10.8584
L40.2048 10.9189
" />
<path d="M40.2048 10.9189
L40.0838 10.9794
" />
<path d="M40.0838 10.9794
L39.6000 10.9794
" />
<path d="M40.7491 10.3141
L41.5957 11.5841
" />
<path d="M41.5957 10.3141
L40.7491 11.5841
" />
<path d="M42.3214 10.3141
L42.4424 10.3141
" />
<path d="M42.4424 10.3141
L42.5633 10.3746
" />
<path d="M42.5633 10.3746
L42.6238 10.4351
" />
<path d="M42.6238 10.4351
L42.6843 10.5560
" />
<path d="M42.6843 10.5560
L42.7448 10.7979
" />
<path d="M42.7448 10.7979
L42.7448 11.1003
" />
<path d="M42.7448 11.1003
L42.6843 11.3422
" />
<path d="M42.6843 11.3422
L42.6238 11.4632
" />
<path d="M42.6238 11.4632
L42.5633 11.5237
" />
<path d="M42.5633 11.5237
L42.4424 11.5841
" />
<path d="M42.4424 11.5841
L42.3214 11.5841
" />
<path d="M42.3214 11.5841
L42.2005 11.5237
" />
<path d="M42.2005 11.5237
L42.1400 11.4632
" />
<path d="M42.1400 11.4632
L42.0795 11.3422
" />
<path d="M42.0795 11.3422
L42.0191 11.1003
" />
<path d="M42.0191 11.1003
L42.0191 10.7979
" />
<path d="M42.0191 10.7979
L42.0795 10.5560
" />
<path d="M42.0795 10.5560
L42.1400 10.4351
" />
<path d="M42.1400 10.4351
L42.2005 10.3746
" />
<path d="M42.2005 10.3746
L42.3214 10.3141
" />
<path d="M43.5309 10.3141
L43.6519 10.3141
" />
<path d="M43.6519 10.3141
L43.7728 10.3746
" />
<path d="M43.7728 10.3746
L43.8333 10.4351
" />
<path d="M43.8333 10.4351
L43.8938 10.5560
" />
<path d="M43.8938 10.5560
L43.9543 10.7979
" />
<path d="M43.9543 10.7979
L43.9543 11.1003
" />
<path d="M43.9543 11.1003
L43.8938 11.3422
" />
<path d="M43.8938 11.3422
L43.8333 11.4632
" />
<path d="M43.8333 11.4632
L43.7728 11.5237
" />
<path d="M43.7728 11.5237
L43.6519 11.5841
" />
<path d="M43.6519 11.5841
L43.5309 11.5841
" />
<path d="M43.5309 11.5841
L43.4100 11.5237
" />
<path d="M43.4100 11.5237
L43.3495 11.4632
" />
<path d="M43.3495 11.4632
L43.2890 11.3422
" />
<path d="M43.2890 11.3422
L43.2286 11.1003
" />
<path d="M43.2286 11.1003
L43.2286 10.7979
" />
<path d="M43.2286 10.7979
L43.2890 10.5560
" />
<path d="M43.2890 10.5560
L43.3495 10.4351
" />
<path d="M43.3495 10.4351
L43.4100 10.3746
" />
<path d="M43.4100 10.3746
L43.5309 10.3141
" />
<path d="M45.0428 10.7375
L45.0428 11.5841
" />
<path d="M44.7404 10.2537
L44.4381 11.1608
" />
<path d="M44.4381 11.1608
L45.2242 11.1608
" />
<path d="M45.8895 10.8584
L45.7685 10.7979
" />
<path d="M45.7685 10.7979
L45.7080 10.7375
" />
<path d="M45.7080 10.7375
L45.6476 10.6165
" />
<path d="M45.6476 10.6165
L45.6476 10.5560
" />
<path d="M45.6476 10.5560
L45.7080 10.4351
" />
<path d="M45.7080 10.4351
L45.7685 10.3746
" />
<path d="M45.7685 10.3746
L45.8895 10.3141
" />
<path d="M45.8895 10.3141
L46.1314 10.3141
" />
<path d="M46.1314 10.3141
L46.2523 10.3746
" />
<path d="M46.2523 10.3746
L46.3128 10.4351
" />
<path d="M46.3128 10.4351
L46.3733 10.5560
" />
<path d="M46.3733 10.5560
L46.3733 10.6165
" />
<path d="M46.3733 10.6165
L46.3128 10.7375
" />
<path d="M46.3128 10.7375
L46.2523 10.7979
" />
<path d="M46.2523 10.7979
L46.1314 10.8584
" />
<path d="M46.1314 10.8584
L45.8895 10.8584
" />
<path d="M45.8895 10.8584
L45.7685 10.9189
" />
<path d="M45.7685 10.9189
L45.7080 10.9794
" />
<path d="M45.7080 10.9794
L45.6476 11.1003
" />
<path d="M45.6476 11.1003
L45.6476 11.3422
" />
<path d="M45.6476 11.3422
L45.7080 11.4632
" />
<path d="M45.7080 11.4632
L45.7685 11.5237
" />
<path d="M45.7685 11.5237
L45.8895 11.5841
" />
<path d="M45.8895 11.5841
L46.1314 11.5841
" />
<path d="M46.1314 11.5841
L46.2523 11.5237
" />
<path d="M46.2523 11.5237
L46.3128 11.4632
" />
<path d="M46.3128 11.4632
L46.3733 11.3422
" />
<path d="M46.3733 11.3422
L46.3733 11.1003
" />
<path d="M46.3733 11.1003
L46.3128 10.9794
" />
<path d="M46.3128 10.9794
L46.2523 10.9189
" />
<path d="M46.2523 10.9189
L46.1314 10.8584
" />
<path d="M47.1594 10.3141
L47.2804 10.3141
" />
<path d="M47.2804 10.3141
L47.4013 10.3746
" />
<path d="M47.4013 10.3746
L47.4618 10.4351
" />
<path d="M47.4618 10.4351
L47.5223 10.5560
" />
<path d="M47.5223 10.5560
L47.5828 10.7979
" />
<path d="M47.5828 10.7979
L47.5828 11.1003
" />
<path d="M47.5828 11.1003
L47.5223 11.3422
" />
<path d="M47.5223 11.3422
L47.4618 11.4632
" />
<path d="M47.4618 11.4632
L47.4013 11.5237
" />
<path d="M47.4013 11.5237
L47.2804 11.5841
" />
<path d="M47.2804 11.5841
L47.1594 11.5841
" />
<path d="M47.1594 11.5841
L47.0385 11.5237
" />
<path d="M47.0385 11.5237
L46.9780 11.4632
" />
<path d="M46.9780 11.4632
L46.9175 11.3422
" />
<path d="M46.9175 11.3422
L46.8571 11.1003
" />
<path d="M46.8571 11.1003
L46.8571 10.7979
" />
<path d="M46.8571 10.7979
L46.9175 10.5560
" />
<path d="M46.9175 10.5560
L46.9780 10.4351
" />
<path d="M46.9780 10.4351
L47.0385 10.3746
" />
<path d="M47.0385 10.3746
L47.1594 10.3141
" />
<path d="M48.7923 11.5841
L48.0666 11.5841
" />
<path d="M48.4294 11.5841
L48.4294 10.3141
" />
<path d="M48.4294 10.3141
L48.3085 10.4956
" />
<path d="M48.3085 10.4956
L48.1875 10.6165
" />
<path d="M48.1875 10.6165
L48.0666 10.6770
" />
<path d="M49.5784 10.3141
L49.6994 10.3141
" />
<path d="M49.6994 10.3141
L49.8203 10.3746
" />
<path d="M49.8203 10.3746
L49.8808 10.4351
" />
<path d="M49.8808 10.4351
L49.9413 10.5560
" />
<path d="M49.9413 10.5560
L50.0018 10.7979
" />
<path d="M50.0018 10.7979
L50.0018 11.1003
" />
<path d="M50.0018 11.1003
L49.9413 11.3422
" />
<path d="M49.9413 11.3422
L49.8808 11.4632
" />
<path d="M49.8808 11.4632
L49.8203 11.5237
" />
<path d="M49.8203 11.5237
L49.6994 11.5841
" />
<path d="M49.6994 11.5841
L49.5784 11.5841
" />
<path d="M49.5784 11.5841
L49.4575 11.5237
" />
<path d="M49.4575 11.5237
L49.3970 11.4632
" />
<path d="M49.3970 11.4632
L49.3365 11.3422
" />
<path d="M49.3365 11.3422
L49.2761 11.1003
" />
<path d="M49.2761 11.1003
L49.2761 10.7979
" />
<path d="M49.2761 10.7979
L49.3365 10.5560
" />
<path d="M49.3365 10.5560
L49.3970 10.4351
" />
<path d="M49.3970 10.4351
L49.4575 10.3746
" />
<path d="M49.4575 10.3746
L49.5784 10.3141
" />
<path d="M51.0903 10.3141
L50.8484 10.3141
" />
<path d="M50.8484 10.3141
L50.7275 10.3746
" />
<path d="M50.7275 10.3746
L50.6670 10.4351
" />
<path d="M50.6670 10.4351
L50.5460 10.6165
" />
<path d="M50.5460 10.6165
L50.4856 10.8584
" />
<path d="M50.4856 10.8584
L50.4856 11.3422
" />
<path d="M50.4856 11.3422
L50.5460 11.4632
" />
<path d="M50.5460 11.4632
L50.6065 11.5237
" />
<path d="M50.6065 11.5237
L50.7275 11.5841
" />
<path d="M50.7275 11.5841
L50.9694 11.5841
" />
<path d="M50.9694 11.5841
L51.0903 11.5237
" />
<path d="M51.0903 11.5237
L51.1508 11.4632
" />
<path d="M51.1508 11.4632
L51.2113 11.3422
" />
<path d="M51.2113 11.3422
L51.2113 11.0398
" />
<path d="M51.2113 11.0398
L51.1508 10.9189
" />
<path d="M51.1508 10.9189
L51.0903 10.8584
" />
<path d="M51.0903 10.8584
L50.9694 10.7979
" />
<path d="M50.9694 10.7979
L50.7275 10.7979
" />
<path d="M50.7275 10.7979
L50.6065 10.8584
" />
<path d="M50.6065 10.8584
L50.5460 10.9189
" />
<path d="M50.5460 10.9189
L50.4856 11.0398
" />
<path d="M51.7555 11.4632
L51.8160 11.5237
" />
<path d="M51.8160 11.5237
L51.7555 11.5841
" />
<path d="M51.7555 11.5841
L51.6951 11.5237
" />
<path d="M51.6951 11.5237
L51.7555 11.4632
" />
<path d="M51.7555 11.4632
L51.7555 11.5841
" />
<path d="M52.3603 10.7375
L52.3603 12.0075
" />
<path d="M52.3603 10.7979
L52.4813 10.7375
" />
<path d="M52.4813 10.7375
L52.7232 10.7375
" />
<path d="M52.7232 10.7375
L52.8441 10.7979
" />
<path d="M52.8441 10.7979
L52.9046 10.8584
" />
<path d="M52.9046 10.8584
L52.9651 10.9794
" />
<path d="M52.9651 10.9794
L52.9651 11.3422
" />
<path d="M52.9651 11.3422
L52.9046 11.4632
" />
<path d="M52.9046 11.4632
L52.8441 11.5237
" />
<path d="M52.8441 11.5237
L52.7232 11.5841
" />
<path d="M52.7232 11.5841
L52.4813 11.5841
" />
<path d="M52.4813 11.5841
L52.3603 11.5237
" />
<path d="M54.0536 11.5841
L54.0536 10.3141
" />
<path d="M54.0536 11.5237
L53.9327 11.5841
" />
<path d="M53.9327 11.5841
L53.6908 11.5841
" />
<path d="M53.6908 11.5841
L53.5698 11.5237
" />
<path d="M53.5698 11.5237
L53.5093 11.4632
" />
<path d="M53.5093 11.4632
L53.4489 11.3422
" />
<path d="M53.4489 11.3422
L53.4489 10.9794
" />
<path d="M53.4489 10.9794
L53.5093 10.8584
" />
<path d="M53.5093 10.8584
L53.5698 10.7979
" />
<path d="M53.5698 10.7979
L53.6908 10.7375
" />
<path d="M53.6908 10.7375
L53.9327 10.7375
" />
<path d="M53.9327 10.7375
L54.0536 10.7979
" />
<path d="M54.4769 10.7375
L54.9607 10.7375
" />
<path d="M54.6583 11.5841
L54.6583 10.4956
" />
<path d="M54.6583 10.4956
L54.7188 10.3746
" />
<path d="M54.7188 10.3746
L54.8398 10.3141
" />
<path d="M54.8398 10.3141
L54.9607 10.3141
" />
</g></g> 
</svg>
