<?xml version="1.0" standalone="no"?>
 <!DOCTYPE svg PUBLIC "-//W3C//DTD SVG 1.1//EN" 
 "http://www.w3.org/Graphics/SVG/1.1/DTD/svg11.dtd"> 
<svg
  xmlns:svg="http://www.w3.org/2000/svg"
  xmlns="http://www.w3.org/2000/svg"
  xmlns:xlink="http://www.w3.org/1999/xlink"
  version="1.1"
  width="128.9304mm" height="12.3698mm" viewBox="0.0000 0.0000 128.9304 12.3698">
<title>SVG Image created as working.svg date 2023/08/14 12:42:55 </title>
  <desc>Image generated by Eeschema-SVG </desc>
<g style="fill:#000000; fill-opacity:1.0000;stroke:#000000; stroke-opacity:1.0000;
stroke-linecap:round; stroke-linejoin:round;"
 transform="translate(0 0) scale(1 1)">
</g>
<g style="fill:#840000; fill-opacity:0.0; 
stroke:#840000; stroke-width:0.0000; stroke-opacity:1; 
stroke-linecap:round; stroke-linejoin:round;">
</g>
<g style="fill:#840084; fill-opacity:0.0; 
stroke:#840084; stroke-width:0.0000; stroke-opacity:1; 
stroke-linecap:round; stroke-linejoin:round;">
</g>
<g style="fill:#840000; fill-opacity:0.0; 
stroke:#840000; stroke-width:0.0000; stroke-opacity:1; 
stroke-linecap:round; stroke-linejoin:round;">
</g>
<g style="fill:#840084; fill-opacity:0.0; 
stroke:#840084; stroke-width:0.0000; stroke-opacity:1; 
stroke-linecap:round; stroke-linejoin:round;">
</g>
<g style="fill:#006464; fill-opacity:0.0; 
stroke:#006464; stroke-width:0.0000; stroke-opacity:1; 
stroke-linecap:round; stroke-linejoin:round;">
</g>
<g style="fill:#006464; fill-opacity:0.0; 
stroke:#006464; stroke-width:0.1588; stroke-opacity:1; 
stroke-linecap:round; stroke-linejoin:round;">
<text x="60.6578" y="5.2264"
textLength="2.6415" font-size="1.6933" lengthAdjust="spacingAndGlyphs"
text-anchor="middle" opacity="0">U?</text>
<g class="stroked-text"><desc>U?</desc>
<path d="M59.7506 3.9006
L59.7506 4.9287
" />
<path d="M59.7506 4.9287
L59.8111 5.0497
" />
<path d="M59.8111 5.0497
L59.8716 5.1102
" />
<path d="M59.8716 5.1102
L59.9925 5.1706
" />
<path d="M59.9925 5.1706
L60.2344 5.1706
" />
<path d="M60.2344 5.1706
L60.3554 5.1102
" />
<path d="M60.3554 5.1102
L60.4159 5.0497
" />
<path d="M60.4159 5.0497
L60.4763 4.9287
" />
<path d="M60.4763 4.9287
L60.4763 3.9006
" />
<path d="M61.2626 5.0497
L61.3230 5.1102
" />
<path d="M61.3230 5.1102
L61.2626 5.1706
" />
<path d="M61.2626 5.1706
L61.2021 5.1102
" />
<path d="M61.2021 5.1102
L61.2626 5.0497
" />
<path d="M61.2626 5.0497
L61.2626 5.1706
" />
<path d="M61.0207 3.9611
L61.1416 3.9006
" />
<path d="M61.1416 3.9006
L61.4440 3.9006
" />
<path d="M61.4440 3.9006
L61.5649 3.9611
" />
<path d="M61.5649 3.9611
L61.6254 4.0821
" />
<path d="M61.6254 4.0821
L61.6254 4.2030
" />
<path d="M61.6254 4.2030
L61.5649 4.3240
" />
<path d="M61.5649 4.3240
L61.5045 4.3844
" />
<path d="M61.5045 4.3844
L61.3835 4.4449
" />
<path d="M61.3835 4.4449
L61.3230 4.5054
" />
<path d="M61.3230 4.5054
L61.2626 4.6263
" />
<path d="M61.2626 4.6263
L61.2626 4.6868
" />
</g><text x="74.1643" y="5.2264"
textLength="19.3931" font-size="1.6933" lengthAdjust="spacingAndGlyphs"
text-anchor="middle" opacity="0">LD3985M33R_SOT23</text>
<g class="stroked-text"><desc>LD3985M33R_SOT23</desc>
<path d="M65.4861 5.1706
L64.8813 5.1706
" />
<path d="M64.8813 5.1706
L64.8813 3.9006
" />
<path d="M65.9094 5.1706
L65.9094 3.9006
" />
<path d="M65.9094 3.9006
L66.2118 3.9006
" />
<path d="M66.2118 3.9006
L66.3932 3.9611
" />
<path d="M66.3932 3.9611
L66.5142 4.0821
" />
<path d="M66.5142 4.0821
L66.5747 4.2030
" />
<path d="M66.5747 4.2030
L66.6351 4.4449
" />
<path d="M66.6351 4.4449
L66.6351 4.6263
" />
<path d="M66.6351 4.6263
L66.5747 4.8682
" />
<path d="M66.5747 4.8682
L66.5142 4.9892
" />
<path d="M66.5142 4.9892
L66.3932 5.1102
" />
<path d="M66.3932 5.1102
L66.2118 5.1706
" />
<path d="M66.2118 5.1706
L65.9094 5.1706
" />
<path d="M67.0585 3.9006
L67.8447 3.9006
" />
<path d="M67.8447 3.9006
L67.4213 4.3844
" />
<path d="M67.4213 4.3844
L67.6028 4.3844
" />
<path d="M67.6028 4.3844
L67.7237 4.4449
" />
<path d="M67.7237 4.4449
L67.7842 4.5054
" />
<path d="M67.7842 4.5054
L67.8447 4.6263
" />
<path d="M67.8447 4.6263
L67.8447 4.9287
" />
<path d="M67.8447 4.9287
L67.7842 5.0497
" />
<path d="M67.7842 5.0497
L67.7237 5.1102
" />
<path d="M67.7237 5.1102
L67.6028 5.1706
" />
<path d="M67.6028 5.1706
L67.2399 5.1706
" />
<path d="M67.2399 5.1706
L67.1190 5.1102
" />
<path d="M67.1190 5.1102
L67.0585 5.0497
" />
<path d="M68.4494 5.1706
L68.6913 5.1706
" />
<path d="M68.6913 5.1706
L68.8123 5.1102
" />
<path d="M68.8123 5.1102
L68.8727 5.0497
" />
<path d="M68.8727 5.0497
L68.9937 4.8682
" />
<path d="M68.9937 4.8682
L69.0542 4.6263
" />
<path d="M69.0542 4.6263
L69.0542 4.1425
" />
<path d="M69.0542 4.1425
L68.9937 4.0216
" />
<path d="M68.9937 4.0216
L68.9332 3.9611
" />
<path d="M68.9332 3.9611
L68.8123 3.9006
" />
<path d="M68.8123 3.9006
L68.5704 3.9006
" />
<path d="M68.5704 3.9006
L68.4494 3.9611
" />
<path d="M68.4494 3.9611
L68.3889 4.0216
" />
<path d="M68.3889 4.0216
L68.3285 4.1425
" />
<path d="M68.3285 4.1425
L68.3285 4.4449
" />
<path d="M68.3285 4.4449
L68.3889 4.5659
" />
<path d="M68.3889 4.5659
L68.4494 4.6263
" />
<path d="M68.4494 4.6263
L68.5704 4.6868
" />
<path d="M68.5704 4.6868
L68.8123 4.6868
" />
<path d="M68.8123 4.6868
L68.9332 4.6263
" />
<path d="M68.9332 4.6263
L68.9937 4.5659
" />
<path d="M68.9937 4.5659
L69.0542 4.4449
" />
<path d="M69.7799 4.4449
L69.6589 4.3844
" />
<path d="M69.6589 4.3844
L69.5984 4.3240
" />
<path d="M69.5984 4.3240
L69.5380 4.2030
" />
<path d="M69.5380 4.2030
L69.5380 4.1425
" />
<path d="M69.5380 4.1425
L69.5984 4.0216
" />
<path d="M69.5984 4.0216
L69.6589 3.9611
" />
<path d="M69.6589 3.9611
L69.7799 3.9006
" />
<path d="M69.7799 3.9006
L70.0218 3.9006
" />
<path d="M70.0218 3.9006
L70.1427 3.9611
" />
<path d="M70.1427 3.9611
L70.2032 4.0216
" />
<path d="M70.2032 4.0216
L70.2637 4.1425
" />
<path d="M70.2637 4.1425
L70.2637 4.2030
" />
<path d="M70.2637 4.2030
L70.2032 4.3240
" />
<path d="M70.2032 4.3240
L70.1427 4.3844
" />
<path d="M70.1427 4.3844
L70.0218 4.4449
" />
<path d="M70.0218 4.4449
L69.7799 4.4449
" />
<path d="M69.7799 4.4449
L69.6589 4.5054
" />
<path d="M69.6589 4.5054
L69.5984 4.5659
" />
<path d="M69.5984 4.5659
L69.5380 4.6868
" />
<path d="M69.5380 4.6868
L69.5380 4.9287
" />
<path d="M69.5380 4.9287
L69.5984 5.0497
" />
<path d="M69.5984 5.0497
L69.6589 5.1102
" />
<path d="M69.6589 5.1102
L69.7799 5.1706
" />
<path d="M69.7799 5.1706
L70.0218 5.1706
" />
<path d="M70.0218 5.1706
L70.1427 5.1102
" />
<path d="M70.1427 5.1102
L70.2032 5.0497
" />
<path d="M70.2032 5.0497
L70.2637 4.9287
" />
<path d="M70.2637 4.9287
L70.2637 4.6868
" />
<path d="M70.2637 4.6868
L70.2032 4.5659
" />
<path d="M70.2032 4.5659
L70.1427 4.5054
" />
<path d="M70.1427 4.5054
L70.0218 4.4449
" />
<path d="M71.4127 3.9006
L70.8079 3.9006
" />
<path d="M70.8079 3.9006
L70.7475 4.5054
" />
<path d="M70.7475 4.5054
L70.8079 4.4449
" />
<path d="M70.8079 4.4449
L70.9289 4.3844
" />
<path d="M70.9289 4.3844
L71.2313 4.3844
" />
<path d="M71.2313 4.3844
L71.3522 4.4449
" />
<path d="M71.3522 4.4449
L71.4127 4.5054
" />
<path d="M71.4127 4.5054
L71.4732 4.6263
" />
<path d="M71.4732 4.6263
L71.4732 4.9287
" />
<path d="M71.4732 4.9287
L71.4127 5.0497
" />
<path d="M71.4127 5.0497
L71.3522 5.1102
" />
<path d="M71.3522 5.1102
L71.2313 5.1706
" />
<path d="M71.2313 5.1706
L70.9289 5.1706
" />
<path d="M70.9289 5.1706
L70.8079 5.1102
" />
<path d="M70.8079 5.1102
L70.7475 5.0497
" />
<path d="M72.0174 5.1706
L72.0174 3.9006
" />
<path d="M72.0174 3.9006
L72.4408 4.8078
" />
<path d="M72.4408 4.8078
L72.8641 3.9006
" />
<path d="M72.8641 3.9006
L72.8641 5.1706
" />
<path d="M73.3479 3.9006
L74.1341 3.9006
" />
<path d="M74.1341 3.9006
L73.7107 4.3844
" />
<path d="M73.7107 4.3844
L73.8922 4.3844
" />
<path d="M73.8922 4.3844
L74.0131 4.4449
" />
<path d="M74.0131 4.4449
L74.0736 4.5054
" />
<path d="M74.0736 4.5054
L74.1341 4.6263
" />
<path d="M74.1341 4.6263
L74.1341 4.9287
" />
<path d="M74.1341 4.9287
L74.0736 5.0497
" />
<path d="M74.0736 5.0497
L74.0131 5.1102
" />
<path d="M74.0131 5.1102
L73.8922 5.1706
" />
<path d="M73.8922 5.1706
L73.5293 5.1706
" />
<path d="M73.5293 5.1706
L73.4084 5.1102
" />
<path d="M73.4084 5.1102
L73.3479 5.0497
" />
<path d="M74.5574 3.9006
L75.3436 3.9006
" />
<path d="M75.3436 3.9006
L74.9202 4.3844
" />
<path d="M74.9202 4.3844
L75.1017 4.3844
" />
<path d="M75.1017 4.3844
L75.2226 4.4449
" />
<path d="M75.2226 4.4449
L75.2831 4.5054
" />
<path d="M75.2831 4.5054
L75.3436 4.6263
" />
<path d="M75.3436 4.6263
L75.3436 4.9287
" />
<path d="M75.3436 4.9287
L75.2831 5.0497
" />
<path d="M75.2831 5.0497
L75.2226 5.1102
" />
<path d="M75.2226 5.1102
L75.1017 5.1706
" />
<path d="M75.1017 5.1706
L74.7388 5.1706
" />
<path d="M74.7388 5.1706
L74.6179 5.1102
" />
<path d="M74.6179 5.1102
L74.5574 5.0497
" />
<path d="M76.6135 5.1706
L76.1902 4.5659
" />
<path d="M75.8878 5.1706
L75.8878 3.9006
" />
<path d="M75.8878 3.9006
L76.3716 3.9006
" />
<path d="M76.3716 3.9006
L76.4926 3.9611
" />
<path d="M76.4926 3.9611
L76.5531 4.0216
" />
<path d="M76.5531 4.0216
L76.6135 4.1425
" />
<path d="M76.6135 4.1425
L76.6135 4.3240
" />
<path d="M76.6135 4.3240
L76.5531 4.4449
" />
<path d="M76.5531 4.4449
L76.4926 4.5054
" />
<path d="M76.4926 4.5054
L76.3716 4.5659
" />
<path d="M76.3716 4.5659
L75.8878 4.5659
" />
<path d="M76.8555 5.2916
L77.8231 5.2916
" />
<path d="M78.0650 5.1102
L78.2464 5.1706
" />
<path d="M78.2464 5.1706
L78.5488 5.1706
" />
<path d="M78.5488 5.1706
L78.6697 5.1102
" />
<path d="M78.6697 5.1102
L78.7302 5.0497
" />
<path d="M78.7302 5.0497
L78.7907 4.9287
" />
<path d="M78.7907 4.9287
L78.7907 4.8078
" />
<path d="M78.7907 4.8078
L78.7302 4.6868
" />
<path d="M78.7302 4.6868
L78.6697 4.6263
" />
<path d="M78.6697 4.6263
L78.5488 4.5659
" />
<path d="M78.5488 4.5659
L78.3069 4.5054
" />
<path d="M78.3069 4.5054
L78.1859 4.4449
" />
<path d="M78.1859 4.4449
L78.1254 4.3844
" />
<path d="M78.1254 4.3844
L78.0650 4.2635
" />
<path d="M78.0650 4.2635
L78.0650 4.1425
" />
<path d="M78.0650 4.1425
L78.1254 4.0216
" />
<path d="M78.1254 4.0216
L78.1859 3.9611
" />
<path d="M78.1859 3.9611
L78.3069 3.9006
" />
<path d="M78.3069 3.9006
L78.6092 3.9006
" />
<path d="M78.6092 3.9006
L78.7907 3.9611
" />
<path d="M79.5768 3.9006
L79.8187 3.9006
" />
<path d="M79.8187 3.9006
L79.9397 3.9611
" />
<path d="M79.9397 3.9611
L80.0606 4.0821
" />
<path d="M80.0606 4.0821
L80.1211 4.3240
" />
<path d="M80.1211 4.3240
L80.1211 4.7473
" />
<path d="M80.1211 4.7473
L80.0606 4.9892
" />
<path d="M80.0606 4.9892
L79.9397 5.1102
" />
<path d="M79.9397 5.1102
L79.8187 5.1706
" />
<path d="M79.8187 5.1706
L79.5768 5.1706
" />
<path d="M79.5768 5.1706
L79.4559 5.1102
" />
<path d="M79.4559 5.1102
L79.3349 4.9892
" />
<path d="M79.3349 4.9892
L79.2745 4.7473
" />
<path d="M79.2745 4.7473
L79.2745 4.3240
" />
<path d="M79.2745 4.3240
L79.3349 4.0821
" />
<path d="M79.3349 4.0821
L79.4559 3.9611
" />
<path d="M79.4559 3.9611
L79.5768 3.9006
" />
<path d="M80.4840 3.9006
L81.2097 3.9006
" />
<path d="M80.8469 5.1706
L80.8469 3.9006
" />
<path d="M81.5726 4.0216
L81.6330 3.9611
" />
<path d="M81.6330 3.9611
L81.7540 3.9006
" />
<path d="M81.7540 3.9006
L82.0564 3.9006
" />
<path d="M82.0564 3.9006
L82.1773 3.9611
" />
<path d="M82.1773 3.9611
L82.2378 4.0216
" />
<path d="M82.2378 4.0216
L82.2983 4.1425
" />
<path d="M82.2983 4.1425
L82.2983 4.2635
" />
<path d="M82.2983 4.2635
L82.2378 4.4449
" />
<path d="M82.2378 4.4449
L81.5121 5.1706
" />
<path d="M81.5121 5.1706
L82.2983 5.1706
" />
<path d="M82.7216 3.9006
L83.5078 3.9006
" />
<path d="M83.5078 3.9006
L83.0844 4.3844
" />
<path d="M83.0844 4.3844
L83.2659 4.3844
" />
<path d="M83.2659 4.3844
L83.3868 4.4449
" />
<path d="M83.3868 4.4449
L83.4473 4.5054
" />
<path d="M83.4473 4.5054
L83.5078 4.6263
" />
<path d="M83.5078 4.6263
L83.5078 4.9287
" />
<path d="M83.5078 4.9287
L83.4473 5.0497
" />
<path d="M83.4473 5.0497
L83.3868 5.1102
" />
<path d="M83.3868 5.1102
L83.2659 5.1706
" />
<path d="M83.2659 5.1706
L82.9030 5.1706
" />
<path d="M82.9030 5.1706
L82.7821 5.1102
" />
<path d="M82.7821 5.1102
L82.7216 5.0497
" />
</g></g>
<g style="fill:#840084; fill-opacity:0.0; 
stroke:#840084; stroke-width:0.1588; stroke-opacity:1; 
stroke-linecap:round; stroke-linejoin:round;">
<text x="64.5472" y="2.6864"
textLength="31.6698" font-size="1.6933" lengthAdjust="spacingAndGlyphs"
text-anchor="middle" opacity="0">Package_TO_SOT_SMD:SOT-23-5</text>
<g class="stroked-text"><desc>Package_TO_SOT_SMD:SOT-23-5</desc>
<path d="M49.1183 2.6306
L49.2770 1.3606
" />
<path d="M49.2770 1.3606
L49.7608 1.3606
" />
<path d="M49.7608 1.3606
L49.8742 1.4211
" />
<path d="M49.8742 1.4211
L49.9271 1.4816
" />
<path d="M49.9271 1.4816
L49.9725 1.6025
" />
<path d="M49.9725 1.6025
L49.9498 1.7840
" />
<path d="M49.9498 1.7840
L49.8742 1.9049
" />
<path d="M49.8742 1.9049
L49.8062 1.9654
" />
<path d="M49.8062 1.9654
L49.6777 2.0259
" />
<path d="M49.6777 2.0259
L49.1939 2.0259
" />
<path d="M50.9326 2.6306
L51.0157 1.9654
" />
<path d="M51.0157 1.9654
L50.9704 1.8444
" />
<path d="M50.9704 1.8444
L50.8570 1.7840
" />
<path d="M50.8570 1.7840
L50.6151 1.7840
" />
<path d="M50.6151 1.7840
L50.4865 1.8444
" />
<path d="M50.9401 2.5702
L50.8116 2.6306
" />
<path d="M50.8116 2.6306
L50.5092 2.6306
" />
<path d="M50.5092 2.6306
L50.3958 2.5702
" />
<path d="M50.3958 2.5702
L50.3505 2.4492
" />
<path d="M50.3505 2.4492
L50.3656 2.3282
" />
<path d="M50.3656 2.3282
L50.4412 2.2073
" />
<path d="M50.4412 2.2073
L50.5697 2.1468
" />
<path d="M50.5697 2.1468
L50.8721 2.1468
" />
<path d="M50.8721 2.1468
L51.0006 2.0863
" />
<path d="M52.0891 2.5702
L51.9606 2.6306
" />
<path d="M51.9606 2.6306
L51.7187 2.6306
" />
<path d="M51.7187 2.6306
L51.6053 2.5702
" />
<path d="M51.6053 2.5702
L51.5524 2.5097
" />
<path d="M51.5524 2.5097
L51.5070 2.3887
" />
<path d="M51.5070 2.3887
L51.5524 2.0259
" />
<path d="M51.5524 2.0259
L51.6280 1.9049
" />
<path d="M51.6280 1.9049
L51.6960 1.8444
" />
<path d="M51.6960 1.8444
L51.8245 1.7840
" />
<path d="M51.8245 1.7840
L52.0664 1.7840
" />
<path d="M52.0664 1.7840
L52.1798 1.8444
" />
<path d="M52.6259 2.6306
L52.7846 1.3606
" />
<path d="M52.8073 2.1468
L53.1097 2.6306
" />
<path d="M53.2155 1.7840
L52.6712 2.2678
" />
<path d="M54.1983 2.6306
L54.2814 1.9654
" />
<path d="M54.2814 1.9654
L54.2361 1.8444
" />
<path d="M54.2361 1.8444
L54.1227 1.7840
" />
<path d="M54.1227 1.7840
L53.8808 1.7840
" />
<path d="M53.8808 1.7840
L53.7522 1.8444
" />
<path d="M54.2058 2.5702
L54.0773 2.6306
" />
<path d="M54.0773 2.6306
L53.7749 2.6306
" />
<path d="M53.7749 2.6306
L53.6615 2.5702
" />
<path d="M53.6615 2.5702
L53.6162 2.4492
" />
<path d="M53.6162 2.4492
L53.6313 2.3282
" />
<path d="M53.6313 2.3282
L53.7069 2.2073
" />
<path d="M53.7069 2.2073
L53.8354 2.1468
" />
<path d="M53.8354 2.1468
L54.1378 2.1468
" />
<path d="M54.1378 2.1468
L54.2663 2.0863
" />
<path d="M55.4531 1.7840
L55.3246 2.8121
" />
<path d="M55.3246 2.8121
L55.2490 2.9330
" />
<path d="M55.2490 2.9330
L55.1809 2.9935
" />
<path d="M55.1809 2.9935
L55.0524 3.0540
" />
<path d="M55.0524 3.0540
L54.8710 3.0540
" />
<path d="M54.8710 3.0540
L54.7576 2.9935
" />
<path d="M55.3548 2.5702
L55.2263 2.6306
" />
<path d="M55.2263 2.6306
L54.9844 2.6306
" />
<path d="M54.9844 2.6306
L54.8710 2.5702
" />
<path d="M54.8710 2.5702
L54.8181 2.5097
" />
<path d="M54.8181 2.5097
L54.7727 2.3887
" />
<path d="M54.7727 2.3887
L54.8181 2.0259
" />
<path d="M54.8181 2.0259
L54.8937 1.9049
" />
<path d="M54.8937 1.9049
L54.9617 1.8444
" />
<path d="M54.9617 1.8444
L55.0902 1.7840
" />
<path d="M55.0902 1.7840
L55.3321 1.7840
" />
<path d="M55.3321 1.7840
L55.4455 1.8444
" />
<path d="M56.4433 2.5702
L56.3148 2.6306
" />
<path d="M56.3148 2.6306
L56.0729 2.6306
" />
<path d="M56.0729 2.6306
L55.9595 2.5702
" />
<path d="M55.9595 2.5702
L55.9142 2.4492
" />
<path d="M55.9142 2.4492
L55.9747 1.9654
" />
<path d="M55.9747 1.9654
L56.0502 1.8444
" />
<path d="M56.0502 1.8444
L56.1788 1.7840
" />
<path d="M56.1788 1.7840
L56.4207 1.7840
" />
<path d="M56.4207 1.7840
L56.5341 1.8444
" />
<path d="M56.5341 1.8444
L56.5794 1.9654
" />
<path d="M56.5794 1.9654
L56.5643 2.0863
" />
<path d="M56.5643 2.0863
L55.9444 2.2073
" />
<path d="M56.7231 2.7516
L57.6907 2.7516
" />
<path d="M57.9855 1.3606
L58.7112 1.3606
" />
<path d="M58.1896 2.6306
L58.3484 1.3606
" />
<path d="M59.3764 1.3606
L59.6183 1.3606
" />
<path d="M59.6183 1.3606
L59.7317 1.4211
" />
<path d="M59.7317 1.4211
L59.8376 1.5421
" />
<path d="M59.8376 1.5421
L59.8678 1.7840
" />
<path d="M59.8678 1.7840
L59.8149 2.2073
" />
<path d="M59.8149 2.2073
L59.7242 2.4492
" />
<path d="M59.7242 2.4492
L59.5881 2.5702
" />
<path d="M59.5881 2.5702
L59.4596 2.6306
" />
<path d="M59.4596 2.6306
L59.2177 2.6306
" />
<path d="M59.2177 2.6306
L59.1043 2.5702
" />
<path d="M59.1043 2.5702
L58.9985 2.4492
" />
<path d="M58.9985 2.4492
L58.9682 2.2073
" />
<path d="M58.9682 2.2073
L59.0211 1.7840
" />
<path d="M59.0211 1.7840
L59.1118 1.5421
" />
<path d="M59.1118 1.5421
L59.2479 1.4211
" />
<path d="M59.2479 1.4211
L59.3764 1.3606
" />
<path d="M59.9888 2.7516
L60.9564 2.7516
" />
<path d="M61.2210 2.5702
L61.3948 2.6306
" />
<path d="M61.3948 2.6306
L61.6972 2.6306
" />
<path d="M61.6972 2.6306
L61.8257 2.5702
" />
<path d="M61.8257 2.5702
L61.8938 2.5097
" />
<path d="M61.8938 2.5097
L61.9693 2.3887
" />
<path d="M61.9693 2.3887
L61.9845 2.2678
" />
<path d="M61.9845 2.2678
L61.9391 2.1468
" />
<path d="M61.9391 2.1468
L61.8862 2.0863
" />
<path d="M61.8862 2.0863
L61.7728 2.0259
" />
<path d="M61.7728 2.0259
L61.5385 1.9654
" />
<path d="M61.5385 1.9654
L61.4251 1.9049
" />
<path d="M61.4251 1.9049
L61.3721 1.8444
" />
<path d="M61.3721 1.8444
L61.3268 1.7235
" />
<path d="M61.3268 1.7235
L61.3419 1.6025
" />
<path d="M61.3419 1.6025
L61.4175 1.4816
" />
<path d="M61.4175 1.4816
L61.4855 1.4211
" />
<path d="M61.4855 1.4211
L61.6141 1.3606
" />
<path d="M61.6141 1.3606
L61.9164 1.3606
" />
<path d="M61.9164 1.3606
L62.0903 1.4211
" />
<path d="M62.8840 1.3606
L63.1259 1.3606
" />
<path d="M63.1259 1.3606
L63.2393 1.4211
" />
<path d="M63.2393 1.4211
L63.3452 1.5421
" />
<path d="M63.3452 1.5421
L63.3754 1.7840
" />
<path d="M63.3754 1.7840
L63.3225 2.2073
" />
<path d="M63.3225 2.2073
L63.2318 2.4492
" />
<path d="M63.2318 2.4492
L63.0957 2.5702
" />
<path d="M63.0957 2.5702
L62.9672 2.6306
" />
<path d="M62.9672 2.6306
L62.7253 2.6306
" />
<path d="M62.7253 2.6306
L62.6119 2.5702
" />
<path d="M62.6119 2.5702
L62.5061 2.4492
" />
<path d="M62.5061 2.4492
L62.4758 2.2073
" />
<path d="M62.4758 2.2073
L62.5287 1.7840
" />
<path d="M62.5287 1.7840
L62.6194 1.5421
" />
<path d="M62.6194 1.5421
L62.7555 1.4211
" />
<path d="M62.7555 1.4211
L62.8840 1.3606
" />
<path d="M63.7912 1.3606
L64.5169 1.3606
" />
<path d="M63.9953 2.6306
L64.1541 1.3606
" />
<path d="M64.4640 2.7516
L65.4316 2.7516
" />
<path d="M65.6962 2.5702
L65.8700 2.6306
" />
<path d="M65.8700 2.6306
L66.1724 2.6306
" />
<path d="M66.1724 2.6306
L66.3009 2.5702
" />
<path d="M66.3009 2.5702
L66.3690 2.5097
" />
<path d="M66.3690 2.5097
L66.4445 2.3887
" />
<path d="M66.4445 2.3887
L66.4597 2.2678
" />
<path d="M66.4597 2.2678
L66.4143 2.1468
" />
<path d="M66.4143 2.1468
L66.3614 2.0863
" />
<path d="M66.3614 2.0863
L66.2480 2.0259
" />
<path d="M66.2480 2.0259
L66.0137 1.9654
" />
<path d="M66.0137 1.9654
L65.9003 1.9049
" />
<path d="M65.9003 1.9049
L65.8473 1.8444
" />
<path d="M65.8473 1.8444
L65.8020 1.7235
" />
<path d="M65.8020 1.7235
L65.8171 1.6025
" />
<path d="M65.8171 1.6025
L65.8927 1.4816
" />
<path d="M65.8927 1.4816
L65.9607 1.4211
" />
<path d="M65.9607 1.4211
L66.0893 1.3606
" />
<path d="M66.0893 1.3606
L66.3916 1.3606
" />
<path d="M66.3916 1.3606
L66.5655 1.4211
" />
<path d="M66.9586 2.6306
L67.1173 1.3606
" />
<path d="M67.1173 1.3606
L67.4273 2.2678
" />
<path d="M67.4273 2.2678
L67.9640 1.3606
" />
<path d="M67.9640 1.3606
L67.8052 2.6306
" />
<path d="M68.4100 2.6306
L68.5687 1.3606
" />
<path d="M68.5687 1.3606
L68.8711 1.3606
" />
<path d="M68.8711 1.3606
L69.0450 1.4211
" />
<path d="M69.0450 1.4211
L69.1508 1.5421
" />
<path d="M69.1508 1.5421
L69.1962 1.6630
" />
<path d="M69.1962 1.6630
L69.2264 1.9049
" />
<path d="M69.2264 1.9049
L69.2037 2.0863
" />
<path d="M69.2037 2.0863
L69.1130 2.3282
" />
<path d="M69.1130 2.3282
L69.0374 2.4492
" />
<path d="M69.0374 2.4492
L68.9013 2.5702
" />
<path d="M68.9013 2.5702
L68.7124 2.6306
" />
<path d="M68.7124 2.6306
L68.4100 2.6306
" />
<path d="M69.6951 2.5097
L69.7480 2.5702
" />
<path d="M69.7480 2.5702
L69.6800 2.6306
" />
<path d="M69.6800 2.6306
L69.6271 2.5702
" />
<path d="M69.6271 2.5702
L69.6951 2.5097
" />
<path d="M69.6951 2.5097
L69.6800 2.6306
" />
<path d="M69.7782 1.8444
L69.8312 1.9049
" />
<path d="M69.8312 1.9049
L69.7631 1.9654
" />
<path d="M69.7631 1.9654
L69.7102 1.9049
" />
<path d="M69.7102 1.9049
L69.7782 1.8444
" />
<path d="M69.7782 1.8444
L69.7631 1.9654
" />
<path d="M70.2319 2.5702
L70.4057 2.6306
" />
<path d="M70.4057 2.6306
L70.7081 2.6306
" />
<path d="M70.7081 2.6306
L70.8366 2.5702
" />
<path d="M70.8366 2.5702
L70.9047 2.5097
" />
<path d="M70.9047 2.5097
L70.9802 2.3887
" />
<path d="M70.9802 2.3887
L70.9954 2.2678
" />
<path d="M70.9954 2.2678
L70.9500 2.1468
" />
<path d="M70.9500 2.1468
L70.8971 2.0863
" />
<path d="M70.8971 2.0863
L70.7837 2.0259
" />
<path d="M70.7837 2.0259
L70.5494 1.9654
" />
<path d="M70.5494 1.9654
L70.4360 1.9049
" />
<path d="M70.4360 1.9049
L70.3830 1.8444
" />
<path d="M70.3830 1.8444
L70.3377 1.7235
" />
<path d="M70.3377 1.7235
L70.3528 1.6025
" />
<path d="M70.3528 1.6025
L70.4284 1.4816
" />
<path d="M70.4284 1.4816
L70.4964 1.4211
" />
<path d="M70.4964 1.4211
L70.6250 1.3606
" />
<path d="M70.6250 1.3606
L70.9273 1.3606
" />
<path d="M70.9273 1.3606
L71.1012 1.4211
" />
<path d="M71.8949 1.3606
L72.1368 1.3606
" />
<path d="M72.1368 1.3606
L72.2502 1.4211
" />
<path d="M72.2502 1.4211
L72.3561 1.5421
" />
<path d="M72.3561 1.5421
L72.3863 1.7840
" />
<path d="M72.3863 1.7840
L72.3334 2.2073
" />
<path d="M72.3334 2.2073
L72.2427 2.4492
" />
<path d="M72.2427 2.4492
L72.1066 2.5702
" />
<path d="M72.1066 2.5702
L71.9781 2.6306
" />
<path d="M71.9781 2.6306
L71.7362 2.6306
" />
<path d="M71.7362 2.6306
L71.6228 2.5702
" />
<path d="M71.6228 2.5702
L71.5170 2.4492
" />
<path d="M71.5170 2.4492
L71.4867 2.2073
" />
<path d="M71.4867 2.2073
L71.5396 1.7840
" />
<path d="M71.5396 1.7840
L71.6303 1.5421
" />
<path d="M71.6303 1.5421
L71.7664 1.4211
" />
<path d="M71.7664 1.4211
L71.8949 1.3606
" />
<path d="M72.8021 1.3606
L73.5278 1.3606
" />
<path d="M73.0062 2.6306
L73.1650 1.3606
" />
<path d="M73.8528 2.1468
L74.8205 2.1468
" />
<path d="M75.4479 1.4816
L75.5160 1.4211
" />
<path d="M75.5160 1.4211
L75.6445 1.3606
" />
<path d="M75.6445 1.3606
L75.9469 1.3606
" />
<path d="M75.9469 1.3606
L76.0602 1.4211
" />
<path d="M76.0602 1.4211
L76.1132 1.4816
" />
<path d="M76.1132 1.4816
L76.1585 1.6025
" />
<path d="M76.1585 1.6025
L76.1434 1.7235
" />
<path d="M76.1434 1.7235
L76.0602 1.9049
" />
<path d="M76.0602 1.9049
L75.2438 2.6306
" />
<path d="M75.2438 2.6306
L76.0300 2.6306
" />
<path d="M76.6121 1.3606
L77.3983 1.3606
" />
<path d="M77.3983 1.3606
L76.9145 1.8444
" />
<path d="M76.9145 1.8444
L77.0959 1.8444
" />
<path d="M77.0959 1.8444
L77.2093 1.9049
" />
<path d="M77.2093 1.9049
L77.2622 1.9654
" />
<path d="M77.2622 1.9654
L77.3075 2.0863
" />
<path d="M77.3075 2.0863
L77.2697 2.3887
" />
<path d="M77.2697 2.3887
L77.1942 2.5097
" />
<path d="M77.1942 2.5097
L77.1261 2.5702
" />
<path d="M77.1261 2.5702
L76.9976 2.6306
" />
<path d="M76.9976 2.6306
L76.6347 2.6306
" />
<path d="M76.6347 2.6306
L76.5214 2.5702
" />
<path d="M76.5214 2.5702
L76.4684 2.5097
" />
<path d="M77.8442 2.1468
L78.8119 2.1468
" />
<path d="M80.1197 1.3606
L79.5149 1.3606
" />
<path d="M79.5149 1.3606
L79.3789 1.9654
" />
<path d="M79.3789 1.9654
L79.4469 1.9049
" />
<path d="M79.4469 1.9049
L79.5754 1.8444
" />
<path d="M79.5754 1.8444
L79.8778 1.8444
" />
<path d="M79.8778 1.8444
L79.9912 1.9049
" />
<path d="M79.9912 1.9049
L80.0441 1.9654
" />
<path d="M80.0441 1.9654
L80.0894 2.0863
" />
<path d="M80.0894 2.0863
L80.0516 2.3887
" />
<path d="M80.0516 2.3887
L79.9761 2.5097
" />
<path d="M79.9761 2.5097
L79.9080 2.5702
" />
<path d="M79.9080 2.5702
L79.7795 2.6306
" />
<path d="M79.7795 2.6306
L79.4771 2.6306
" />
<path d="M79.4771 2.6306
L79.3637 2.5702
" />
<path d="M79.3637 2.5702
L79.3108 2.5097
" />
</g><text x="64.4678" y="10.9414"
textLength="107.4464" font-size="1.6933" lengthAdjust="spacingAndGlyphs"
text-anchor="middle" opacity="0">http://www.st.com/internet/com/TECHNICAL_RESOURCES/TECHNICAL_LITERATURE/DATASHEET/CD00003395.pdf</text>
<g class="stroked-text"><desc>http://www.st.com/internet/com/TECHNICAL_RESOURCES/TECHNICAL_LITERATURE/DATASHEET/CD00003395.pdf</desc>
<path d="M11.1581 10.8856
L11.1581 9.6156
" />
<path d="M11.7024 10.8856
L11.7024 10.2204
" />
<path d="M11.7024 10.2204
L11.6419 10.0994
" />
<path d="M11.6419 10.0994
L11.5210 10.0390
" />
<path d="M11.5210 10.0390
L11.3396 10.0390
" />
<path d="M11.3396 10.0390
L11.2186 10.0994
" />
<path d="M11.2186 10.0994
L11.1581 10.1599
" />
<path d="M12.1257 10.0390
L12.6095 10.0390
" />
<path d="M12.3071 9.6156
L12.3071 10.7042
" />
<path d="M12.3071 10.7042
L12.3676 10.8252
" />
<path d="M12.3676 10.8252
L12.4886 10.8856
" />
<path d="M12.4886 10.8856
L12.6095 10.8856
" />
<path d="M12.8514 10.0390
L13.3352 10.0390
" />
<path d="M13.0328 9.6156
L13.0328 10.7042
" />
<path d="M13.0328 10.7042
L13.0933 10.8252
" />
<path d="M13.0933 10.8252
L13.2143 10.8856
" />
<path d="M13.2143 10.8856
L13.3352 10.8856
" />
<path d="M13.7585 10.0390
L13.7585 11.3090
" />
<path d="M13.7585 10.0994
L13.8795 10.0390
" />
<path d="M13.8795 10.0390
L14.1214 10.0390
" />
<path d="M14.1214 10.0390
L14.2423 10.0994
" />
<path d="M14.2423 10.0994
L14.3028 10.1599
" />
<path d="M14.3028 10.1599
L14.3633 10.2809
" />
<path d="M14.3633 10.2809
L14.3633 10.6437
" />
<path d="M14.3633 10.6437
L14.3028 10.7647
" />
<path d="M14.3028 10.7647
L14.2423 10.8252
" />
<path d="M14.2423 10.8252
L14.1214 10.8856
" />
<path d="M14.1214 10.8856
L13.8795 10.8856
" />
<path d="M13.8795 10.8856
L13.7585 10.8252
" />
<path d="M14.9075 10.7647
L14.9680 10.8252
" />
<path d="M14.9680 10.8252
L14.9075 10.8856
" />
<path d="M14.9075 10.8856
L14.8471 10.8252
" />
<path d="M14.8471 10.8252
L14.9075 10.7647
" />
<path d="M14.9075 10.7647
L14.9075 10.8856
" />
<path d="M14.9075 10.0994
L14.9680 10.1599
" />
<path d="M14.9680 10.1599
L14.9075 10.2204
" />
<path d="M14.9075 10.2204
L14.8471 10.1599
" />
<path d="M14.8471 10.1599
L14.9075 10.0994
" />
<path d="M14.9075 10.0994
L14.9075 10.2204
" />
<path d="M16.4195 9.5552
L15.3309 11.1880
" />
<path d="M17.7500 9.5552
L16.6614 11.1880
" />
<path d="M18.0524 10.0390
L18.2943 10.8856
" />
<path d="M18.2943 10.8856
L18.5362 10.2809
" />
<path d="M18.5362 10.2809
L18.7781 10.8856
" />
<path d="M18.7781 10.8856
L19.0200 10.0390
" />
<path d="M19.3829 10.0390
L19.6248 10.8856
" />
<path d="M19.6248 10.8856
L19.8667 10.2809
" />
<path d="M19.8667 10.2809
L20.1086 10.8856
" />
<path d="M20.1086 10.8856
L20.3505 10.0390
" />
<path d="M20.7134 10.0390
L20.9553 10.8856
" />
<path d="M20.9553 10.8856
L21.1972 10.2809
" />
<path d="M21.1972 10.2809
L21.4391 10.8856
" />
<path d="M21.4391 10.8856
L21.6810 10.0390
" />
<path d="M22.1648 10.7647
L22.2253 10.8252
" />
<path d="M22.2253 10.8252
L22.1648 10.8856
" />
<path d="M22.1648 10.8856
L22.1044 10.8252
" />
<path d="M22.1044 10.8252
L22.1648 10.7647
" />
<path d="M22.1648 10.7647
L22.1648 10.8856
" />
<path d="M22.7092 10.8252
L22.8301 10.8856
" />
<path d="M22.8301 10.8856
L23.0720 10.8856
" />
<path d="M23.0720 10.8856
L23.1930 10.8252
" />
<path d="M23.1930 10.8252
L23.2534 10.7042
" />
<path d="M23.2534 10.7042
L23.2534 10.6437
" />
<path d="M23.2534 10.6437
L23.1930 10.5228
" />
<path d="M23.1930 10.5228
L23.0720 10.4623
" />
<path d="M23.0720 10.4623
L22.8906 10.4623
" />
<path d="M22.8906 10.4623
L22.7696 10.4018
" />
<path d="M22.7696 10.4018
L22.7092 10.2809
" />
<path d="M22.7092 10.2809
L22.7092 10.2204
" />
<path d="M22.7092 10.2204
L22.7696 10.0994
" />
<path d="M22.7696 10.0994
L22.8906 10.0390
" />
<path d="M22.8906 10.0390
L23.0720 10.0390
" />
<path d="M23.0720 10.0390
L23.1930 10.0994
" />
<path d="M23.6163 10.0390
L24.1001 10.0390
" />
<path d="M23.7977 9.6156
L23.7977 10.7042
" />
<path d="M23.7977 10.7042
L23.8582 10.8252
" />
<path d="M23.8582 10.8252
L23.9792 10.8856
" />
<path d="M23.9792 10.8856
L24.1001 10.8856
" />
<path d="M24.5234 10.7647
L24.5839 10.8252
" />
<path d="M24.5839 10.8252
L24.5234 10.8856
" />
<path d="M24.5234 10.8856
L24.4630 10.8252
" />
<path d="M24.4630 10.8252
L24.5234 10.7647
" />
<path d="M24.5234 10.7647
L24.5234 10.8856
" />
<path d="M25.6725 10.8252
L25.5516 10.8856
" />
<path d="M25.5516 10.8856
L25.3097 10.8856
" />
<path d="M25.3097 10.8856
L25.1887 10.8252
" />
<path d="M25.1887 10.8252
L25.1282 10.7647
" />
<path d="M25.1282 10.7647
L25.0678 10.6437
" />
<path d="M25.0678 10.6437
L25.0678 10.2809
" />
<path d="M25.0678 10.2809
L25.1282 10.1599
" />
<path d="M25.1282 10.1599
L25.1887 10.0994
" />
<path d="M25.1887 10.0994
L25.3097 10.0390
" />
<path d="M25.3097 10.0390
L25.5516 10.0390
" />
<path d="M25.5516 10.0390
L25.6725 10.0994
" />
<path d="M26.3983 10.8856
L26.2773 10.8252
" />
<path d="M26.2773 10.8252
L26.2168 10.7647
" />
<path d="M26.2168 10.7647
L26.1564 10.6437
" />
<path d="M26.1564 10.6437
L26.1564 10.2809
" />
<path d="M26.1564 10.2809
L26.2168 10.1599
" />
<path d="M26.2168 10.1599
L26.2773 10.0994
" />
<path d="M26.2773 10.0994
L26.3983 10.0390
" />
<path d="M26.3983 10.0390
L26.5797 10.0390
" />
<path d="M26.5797 10.0390
L26.7006 10.0994
" />
<path d="M26.7006 10.0994
L26.7611 10.1599
" />
<path d="M26.7611 10.1599
L26.8216 10.2809
" />
<path d="M26.8216 10.2809
L26.8216 10.6437
" />
<path d="M26.8216 10.6437
L26.7611 10.7647
" />
<path d="M26.7611 10.7647
L26.7006 10.8252
" />
<path d="M26.7006 10.8252
L26.5797 10.8856
" />
<path d="M26.5797 10.8856
L26.3983 10.8856
" />
<path d="M27.3658 10.8856
L27.3658 10.0390
" />
<path d="M27.3658 10.1599
L27.4263 10.0994
" />
<path d="M27.4263 10.0994
L27.5473 10.0390
" />
<path d="M27.5473 10.0390
L27.7287 10.0390
" />
<path d="M27.7287 10.0390
L27.8496 10.0994
" />
<path d="M27.8496 10.0994
L27.9101 10.2204
" />
<path d="M27.9101 10.2204
L27.9101 10.8856
" />
<path d="M27.9101 10.2204
L27.9706 10.0994
" />
<path d="M27.9706 10.0994
L28.0915 10.0390
" />
<path d="M28.0915 10.0390
L28.2730 10.0390
" />
<path d="M28.2730 10.0390
L28.3939 10.0994
" />
<path d="M28.3939 10.0994
L28.4544 10.2204
" />
<path d="M28.4544 10.2204
L28.4544 10.8856
" />
<path d="M29.9663 9.5552
L28.8777 11.1880
" />
<path d="M30.3896 10.8856
L30.3896 10.0390
" />
<path d="M30.3896 9.6156
L30.3292 9.6761
" />
<path d="M30.3292 9.6761
L30.3896 9.7366
" />
<path d="M30.3896 9.7366
L30.4501 9.6761
" />
<path d="M30.4501 9.6761
L30.3896 9.6156
" />
<path d="M30.3896 9.6156
L30.3896 9.7366
" />
<path d="M30.9944 10.0390
L30.9944 10.8856
" />
<path d="M30.9944 10.1599
L31.0549 10.0994
" />
<path d="M31.0549 10.0994
L31.1759 10.0390
" />
<path d="M31.1759 10.0390
L31.3573 10.0390
" />
<path d="M31.3573 10.0390
L31.4782 10.0994
" />
<path d="M31.4782 10.0994
L31.5387 10.2204
" />
<path d="M31.5387 10.2204
L31.5387 10.8856
" />
<path d="M31.9620 10.0390
L32.4458 10.0390
" />
<path d="M32.1434 9.6156
L32.1434 10.7042
" />
<path d="M32.1434 10.7042
L32.2039 10.8252
" />
<path d="M32.2039 10.8252
L32.3249 10.8856
" />
<path d="M32.3249 10.8856
L32.4458 10.8856
" />
<path d="M33.3529 10.8252
L33.2320 10.8856
" />
<path d="M33.2320 10.8856
L32.9901 10.8856
" />
<path d="M32.9901 10.8856
L32.8691 10.8252
" />
<path d="M32.8691 10.8252
L32.8087 10.7042
" />
<path d="M32.8087 10.7042
L32.8087 10.2204
" />
<path d="M32.8087 10.2204
L32.8691 10.0994
" />
<path d="M32.8691 10.0994
L32.9901 10.0390
" />
<path d="M32.9901 10.0390
L33.2320 10.0390
" />
<path d="M33.2320 10.0390
L33.3529 10.0994
" />
<path d="M33.3529 10.0994
L33.4134 10.2204
" />
<path d="M33.4134 10.2204
L33.4134 10.3413
" />
<path d="M33.4134 10.3413
L32.8087 10.4623
" />
<path d="M33.9577 10.8856
L33.9577 10.0390
" />
<path d="M33.9577 10.2809
L34.0182 10.1599
" />
<path d="M34.0182 10.1599
L34.0787 10.0994
" />
<path d="M34.0787 10.0994
L34.1996 10.0390
" />
<path d="M34.1996 10.0390
L34.3206 10.0390
" />
<path d="M34.7439 10.0390
L34.7439 10.8856
" />
<path d="M34.7439 10.1599
L34.8044 10.0994
" />
<path d="M34.8044 10.0994
L34.9254 10.0390
" />
<path d="M34.9254 10.0390
L35.1068 10.0390
" />
<path d="M35.1068 10.0390
L35.2277 10.0994
" />
<path d="M35.2277 10.0994
L35.2882 10.2204
" />
<path d="M35.2882 10.2204
L35.2882 10.8856
" />
<path d="M36.3767 10.8252
L36.2558 10.8856
" />
<path d="M36.2558 10.8856
L36.0139 10.8856
" />
<path d="M36.0139 10.8856
L35.8929 10.8252
" />
<path d="M35.8929 10.8252
L35.8325 10.7042
" />
<path d="M35.8325 10.7042
L35.8325 10.2204
" />
<path d="M35.8325 10.2204
L35.8929 10.0994
" />
<path d="M35.8929 10.0994
L36.0139 10.0390
" />
<path d="M36.0139 10.0390
L36.2558 10.0390
" />
<path d="M36.2558 10.0390
L36.3767 10.0994
" />
<path d="M36.3767 10.0994
L36.4372 10.2204
" />
<path d="M36.4372 10.2204
L36.4372 10.3413
" />
<path d="M36.4372 10.3413
L35.8325 10.4623
" />
<path d="M36.8001 10.0390
L37.2839 10.0390
" />
<path d="M36.9815 9.6156
L36.9815 10.7042
" />
<path d="M36.9815 10.7042
L37.0420 10.8252
" />
<path d="M37.0420 10.8252
L37.1630 10.8856
" />
<path d="M37.1630 10.8856
L37.2839 10.8856
" />
<path d="M38.6144 9.5552
L37.5258 11.1880
" />
<path d="M39.5820 10.8252
L39.4611 10.8856
" />
<path d="M39.4611 10.8856
L39.2192 10.8856
" />
<path d="M39.2192 10.8856
L39.0982 10.8252
" />
<path d="M39.0982 10.8252
L39.0377 10.7647
" />
<path d="M39.0377 10.7647
L38.9773 10.6437
" />
<path d="M38.9773 10.6437
L38.9773 10.2809
" />
<path d="M38.9773 10.2809
L39.0377 10.1599
" />
<path d="M39.0377 10.1599
L39.0982 10.0994
" />
<path d="M39.0982 10.0994
L39.2192 10.0390
" />
<path d="M39.2192 10.0390
L39.4611 10.0390
" />
<path d="M39.4611 10.0390
L39.5820 10.0994
" />
<path d="M40.3078 10.8856
L40.1868 10.8252
" />
<path d="M40.1868 10.8252
L40.1263 10.7647
" />
<path d="M40.1263 10.7647
L40.0659 10.6437
" />
<path d="M40.0659 10.6437
L40.0659 10.2809
" />
<path d="M40.0659 10.2809
L40.1263 10.1599
" />
<path d="M40.1263 10.1599
L40.1868 10.0994
" />
<path d="M40.1868 10.0994
L40.3078 10.0390
" />
<path d="M40.3078 10.0390
L40.4892 10.0390
" />
<path d="M40.4892 10.0390
L40.6101 10.0994
" />
<path d="M40.6101 10.0994
L40.6706 10.1599
" />
<path d="M40.6706 10.1599
L40.7311 10.2809
" />
<path d="M40.7311 10.2809
L40.7311 10.6437
" />
<path d="M40.7311 10.6437
L40.6706 10.7647
" />
<path d="M40.6706 10.7647
L40.6101 10.8252
" />
<path d="M40.6101 10.8252
L40.4892 10.8856
" />
<path d="M40.4892 10.8856
L40.3078 10.8856
" />
<path d="M41.2753 10.8856
L41.2753 10.0390
" />
<path d="M41.2753 10.1599
L41.3358 10.0994
" />
<path d="M41.3358 10.0994
L41.4568 10.0390
" />
<path d="M41.4568 10.0390
L41.6382 10.0390
" />
<path d="M41.6382 10.0390
L41.7591 10.0994
" />
<path d="M41.7591 10.0994
L41.8196 10.2204
" />
<path d="M41.8196 10.2204
L41.8196 10.8856
" />
<path d="M41.8196 10.2204
L41.8801 10.0994
" />
<path d="M41.8801 10.0994
L42.0010 10.0390
" />
<path d="M42.0010 10.0390
L42.1825 10.0390
" />
<path d="M42.1825 10.0390
L42.3034 10.0994
" />
<path d="M42.3034 10.0994
L42.3639 10.2204
" />
<path d="M42.3639 10.2204
L42.3639 10.8856
" />
<path d="M43.8758 9.5552
L42.7872 11.1880
" />
<path d="M44.1177 9.6156
L44.8434 9.6156
" />
<path d="M44.4806 10.8856
L44.4806 9.6156
" />
<path d="M45.2667 10.2204
L45.6901 10.2204
" />
<path d="M45.8715 10.8856
L45.2667 10.8856
" />
<path d="M45.2667 10.8856
L45.2667 9.6156
" />
<path d="M45.2667 9.6156
L45.8715 9.6156
" />
<path d="M47.1414 10.7647
L47.0810 10.8252
" />
<path d="M47.0810 10.8252
L46.8995 10.8856
" />
<path d="M46.8995 10.8856
L46.7786 10.8856
" />
<path d="M46.7786 10.8856
L46.5972 10.8252
" />
<path d="M46.5972 10.8252
L46.4762 10.7042
" />
<path d="M46.4762 10.7042
L46.4157 10.5832
" />
<path d="M46.4157 10.5832
L46.3553 10.3413
" />
<path d="M46.3553 10.3413
L46.3553 10.1599
" />
<path d="M46.3553 10.1599
L46.4157 9.9180
" />
<path d="M46.4157 9.9180
L46.4762 9.7971
" />
<path d="M46.4762 9.7971
L46.5972 9.6761
" />
<path d="M46.5972 9.6761
L46.7786 9.6156
" />
<path d="M46.7786 9.6156
L46.8995 9.6156
" />
<path d="M46.8995 9.6156
L47.0810 9.6761
" />
<path d="M47.0810 9.6761
L47.1414 9.7366
" />
<path d="M47.6857 10.8856
L47.6857 9.6156
" />
<path d="M47.6857 10.2204
L48.4114 10.2204
" />
<path d="M48.4114 10.8856
L48.4114 9.6156
" />
<path d="M49.0162 10.8856
L49.0162 9.6156
" />
<path d="M49.0162 9.6156
L49.7419 10.8856
" />
<path d="M49.7419 10.8856
L49.7419 9.6156
" />
<path d="M50.3467 10.8856
L50.3467 9.6156
" />
<path d="M51.6772 10.7647
L51.6168 10.8252
" />
<path d="M51.6168 10.8252
L51.4353 10.8856
" />
<path d="M51.4353 10.8856
L51.3144 10.8856
" />
<path d="M51.3144 10.8856
L51.1330 10.8252
" />
<path d="M51.1330 10.8252
L51.0120 10.7042
" />
<path d="M51.0120 10.7042
L50.9515 10.5832
" />
<path d="M50.9515 10.5832
L50.8911 10.3413
" />
<path d="M50.8911 10.3413
L50.8911 10.1599
" />
<path d="M50.8911 10.1599
L50.9515 9.9180
" />
<path d="M50.9515 9.9180
L51.0120 9.7971
" />
<path d="M51.0120 9.7971
L51.1330 9.6761
" />
<path d="M51.1330 9.6761
L51.3144 9.6156
" />
<path d="M51.3144 9.6156
L51.4353 9.6156
" />
<path d="M51.4353 9.6156
L51.6168 9.6761
" />
<path d="M51.6168 9.6761
L51.6772 9.7366
" />
<path d="M52.1611 10.5228
L52.7658 10.5228
" />
<path d="M52.0401 10.8856
L52.4634 9.6156
" />
<path d="M52.4634 9.6156
L52.8868 10.8856
" />
<path d="M53.9149 10.8856
L53.3101 10.8856
" />
<path d="M53.3101 10.8856
L53.3101 9.6156
" />
<path d="M54.0359 11.0066
L55.0035 11.0066
" />
<path d="M56.0315 10.8856
L55.6082 10.2809
" />
<path d="M55.3058 10.8856
L55.3058 9.6156
" />
<path d="M55.3058 9.6156
L55.7896 9.6156
" />
<path d="M55.7896 9.6156
L55.9106 9.6761
" />
<path d="M55.9106 9.6761
L55.9711 9.7366
" />
<path d="M55.9711 9.7366
L56.0315 9.8575
" />
<path d="M56.0315 9.8575
L56.0315 10.0390
" />
<path d="M56.0315 10.0390
L55.9711 10.1599
" />
<path d="M55.9711 10.1599
L55.9106 10.2204
" />
<path d="M55.9106 10.2204
L55.7896 10.2809
" />
<path d="M55.7896 10.2809
L55.3058 10.2809
" />
<path d="M56.5758 10.2204
L56.9992 10.2204
" />
<path d="M57.1806 10.8856
L56.5758 10.8856
" />
<path d="M56.5758 10.8856
L56.5758 9.6156
" />
<path d="M56.5758 9.6156
L57.1806 9.6156
" />
<path d="M57.6644 10.8252
L57.8458 10.8856
" />
<path d="M57.8458 10.8856
L58.1482 10.8856
" />
<path d="M58.1482 10.8856
L58.2691 10.8252
" />
<path d="M58.2691 10.8252
L58.3296 10.7647
" />
<path d="M58.3296 10.7647
L58.3901 10.6437
" />
<path d="M58.3901 10.6437
L58.3901 10.5228
" />
<path d="M58.3901 10.5228
L58.3296 10.4018
" />
<path d="M58.3296 10.4018
L58.2691 10.3413
" />
<path d="M58.2691 10.3413
L58.1482 10.2809
" />
<path d="M58.1482 10.2809
L57.9063 10.2204
" />
<path d="M57.9063 10.2204
L57.7853 10.1599
" />
<path d="M57.7853 10.1599
L57.7248 10.0994
" />
<path d="M57.7248 10.0994
L57.6644 9.9785
" />
<path d="M57.6644 9.9785
L57.6644 9.8575
" />
<path d="M57.6644 9.8575
L57.7248 9.7366
" />
<path d="M57.7248 9.7366
L57.7853 9.6761
" />
<path d="M57.7853 9.6761
L57.9063 9.6156
" />
<path d="M57.9063 9.6156
L58.2086 9.6156
" />
<path d="M58.2086 9.6156
L58.3901 9.6761
" />
<path d="M59.1762 9.6156
L59.4181 9.6156
" />
<path d="M59.4181 9.6156
L59.5391 9.6761
" />
<path d="M59.5391 9.6761
L59.6600 9.7971
" />
<path d="M59.6600 9.7971
L59.7205 10.0390
" />
<path d="M59.7205 10.0390
L59.7205 10.4623
" />
<path d="M59.7205 10.4623
L59.6600 10.7042
" />
<path d="M59.6600 10.7042
L59.5391 10.8252
" />
<path d="M59.5391 10.8252
L59.4181 10.8856
" />
<path d="M59.4181 10.8856
L59.1762 10.8856
" />
<path d="M59.1762 10.8856
L59.0553 10.8252
" />
<path d="M59.0553 10.8252
L58.9343 10.7042
" />
<path d="M58.9343 10.7042
L58.8739 10.4623
" />
<path d="M58.8739 10.4623
L58.8739 10.0390
" />
<path d="M58.8739 10.0390
L58.9343 9.7971
" />
<path d="M58.9343 9.7971
L59.0553 9.6761
" />
<path d="M59.0553 9.6761
L59.1762 9.6156
" />
<path d="M60.2648 9.6156
L60.2648 10.6437
" />
<path d="M60.2648 10.6437
L60.3253 10.7647
" />
<path d="M60.3253 10.7647
L60.3858 10.8252
" />
<path d="M60.3858 10.8252
L60.5067 10.8856
" />
<path d="M60.5067 10.8856
L60.7486 10.8856
" />
<path d="M60.7486 10.8856
L60.8696 10.8252
" />
<path d="M60.8696 10.8252
L60.9301 10.7647
" />
<path d="M60.9301 10.7647
L60.9905 10.6437
" />
<path d="M60.9905 10.6437
L60.9905 9.6156
" />
<path d="M62.3210 10.8856
L61.8977 10.2809
" />
<path d="M61.5953 10.8856
L61.5953 9.6156
" />
<path d="M61.5953 9.6156
L62.0791 9.6156
" />
<path d="M62.0791 9.6156
L62.2001 9.6761
" />
<path d="M62.2001 9.6761
L62.2606 9.7366
" />
<path d="M62.2606 9.7366
L62.3210 9.8575
" />
<path d="M62.3210 9.8575
L62.3210 10.0390
" />
<path d="M62.3210 10.0390
L62.2606 10.1599
" />
<path d="M62.2606 10.1599
L62.2001 10.2204
" />
<path d="M62.2001 10.2204
L62.0791 10.2809
" />
<path d="M62.0791 10.2809
L61.5953 10.2809
" />
<path d="M63.5910 10.7647
L63.5306 10.8252
" />
<path d="M63.5306 10.8252
L63.3491 10.8856
" />
<path d="M63.3491 10.8856
L63.2282 10.8856
" />
<path d="M63.2282 10.8856
L63.0468 10.8252
" />
<path d="M63.0468 10.8252
L62.9258 10.7042
" />
<path d="M62.9258 10.7042
L62.8653 10.5832
" />
<path d="M62.8653 10.5832
L62.8049 10.3413
" />
<path d="M62.8049 10.3413
L62.8049 10.1599
" />
<path d="M62.8049 10.1599
L62.8653 9.9180
" />
<path d="M62.8653 9.9180
L62.9258 9.7971
" />
<path d="M62.9258 9.7971
L63.0468 9.6761
" />
<path d="M63.0468 9.6761
L63.2282 9.6156
" />
<path d="M63.2282 9.6156
L63.3491 9.6156
" />
<path d="M63.3491 9.6156
L63.5306 9.6761
" />
<path d="M63.5306 9.6761
L63.5910 9.7366
" />
<path d="M64.1353 10.2204
L64.5587 10.2204
" />
<path d="M64.7401 10.8856
L64.1353 10.8856
" />
<path d="M64.1353 10.8856
L64.1353 9.6156
" />
<path d="M64.1353 9.6156
L64.7401 9.6156
" />
<path d="M65.2239 10.8252
L65.4053 10.8856
" />
<path d="M65.4053 10.8856
L65.7077 10.8856
" />
<path d="M65.7077 10.8856
L65.8286 10.8252
" />
<path d="M65.8286 10.8252
L65.8891 10.7647
" />
<path d="M65.8891 10.7647
L65.9496 10.6437
" />
<path d="M65.9496 10.6437
L65.9496 10.5228
" />
<path d="M65.9496 10.5228
L65.8891 10.4018
" />
<path d="M65.8891 10.4018
L65.8286 10.3413
" />
<path d="M65.8286 10.3413
L65.7077 10.2809
" />
<path d="M65.7077 10.2809
L65.4658 10.2204
" />
<path d="M65.4658 10.2204
L65.3448 10.1599
" />
<path d="M65.3448 10.1599
L65.2843 10.0994
" />
<path d="M65.2843 10.0994
L65.2239 9.9785
" />
<path d="M65.2239 9.9785
L65.2239 9.8575
" />
<path d="M65.2239 9.8575
L65.2843 9.7366
" />
<path d="M65.2843 9.7366
L65.3448 9.6761
" />
<path d="M65.3448 9.6761
L65.4658 9.6156
" />
<path d="M65.4658 9.6156
L65.7681 9.6156
" />
<path d="M65.7681 9.6156
L65.9496 9.6761
" />
<path d="M67.4010 9.5552
L66.3124 11.1880
" />
<path d="M67.6429 9.6156
L68.3686 9.6156
" />
<path d="M68.0058 10.8856
L68.0058 9.6156
" />
<path d="M68.7919 10.2204
L69.2153 10.2204
" />
<path d="M69.3967 10.8856
L68.7919 10.8856
" />
<path d="M68.7919 10.8856
L68.7919 9.6156
" />
<path d="M68.7919 9.6156
L69.3967 9.6156
" />
<path d="M70.6666 10.7647
L70.6062 10.8252
" />
<path d="M70.6062 10.8252
L70.4247 10.8856
" />
<path d="M70.4247 10.8856
L70.3038 10.8856
" />
<path d="M70.3038 10.8856
L70.1224 10.8252
" />
<path d="M70.1224 10.8252
L70.0014 10.7042
" />
<path d="M70.0014 10.7042
L69.9409 10.5832
" />
<path d="M69.9409 10.5832
L69.8805 10.3413
" />
<path d="M69.8805 10.3413
L69.8805 10.1599
" />
<path d="M69.8805 10.1599
L69.9409 9.9180
" />
<path d="M69.9409 9.9180
L70.0014 9.7971
" />
<path d="M70.0014 9.7971
L70.1224 9.6761
" />
<path d="M70.1224 9.6761
L70.3038 9.6156
" />
<path d="M70.3038 9.6156
L70.4247 9.6156
" />
<path d="M70.4247 9.6156
L70.6062 9.6761
" />
<path d="M70.6062 9.6761
L70.6666 9.7366
" />
<path d="M71.2109 10.8856
L71.2109 9.6156
" />
<path d="M71.2109 10.2204
L71.9366 10.2204
" />
<path d="M71.9366 10.8856
L71.9366 9.6156
" />
<path d="M72.5414 10.8856
L72.5414 9.6156
" />
<path d="M72.5414 9.6156
L73.2671 10.8856
" />
<path d="M73.2671 10.8856
L73.2671 9.6156
" />
<path d="M73.8719 10.8856
L73.8719 9.6156
" />
<path d="M75.2024 10.7647
L75.1420 10.8252
" />
<path d="M75.1420 10.8252
L74.9605 10.8856
" />
<path d="M74.9605 10.8856
L74.8396 10.8856
" />
<path d="M74.8396 10.8856
L74.6582 10.8252
" />
<path d="M74.6582 10.8252
L74.5372 10.7042
" />
<path d="M74.5372 10.7042
L74.4767 10.5832
" />
<path d="M74.4767 10.5832
L74.4163 10.3413
" />
<path d="M74.4163 10.3413
L74.4163 10.1599
" />
<path d="M74.4163 10.1599
L74.4767 9.9180
" />
<path d="M74.4767 9.9180
L74.5372 9.7971
" />
<path d="M74.5372 9.7971
L74.6582 9.6761
" />
<path d="M74.6582 9.6761
L74.8396 9.6156
" />
<path d="M74.8396 9.6156
L74.9605 9.6156
" />
<path d="M74.9605 9.6156
L75.1420 9.6761
" />
<path d="M75.1420 9.6761
L75.2024 9.7366
" />
<path d="M75.6863 10.5228
L76.2910 10.5228
" />
<path d="M75.5653 10.8856
L75.9886 9.6156
" />
<path d="M75.9886 9.6156
L76.4120 10.8856
" />
<path d="M77.4401 10.8856
L76.8353 10.8856
" />
<path d="M76.8353 10.8856
L76.8353 9.6156
" />
<path d="M77.5611 11.0066
L78.5287 11.0066
" />
<path d="M79.4358 10.8856
L78.8310 10.8856
" />
<path d="M78.8310 10.8856
L78.8310 9.6156
" />
<path d="M79.8591 10.8856
L79.8591 9.6156
" />
<path d="M80.2825 9.6156
L81.0082 9.6156
" />
<path d="M80.6454 10.8856
L80.6454 9.6156
" />
<path d="M81.4315 10.2204
L81.8549 10.2204
" />
<path d="M82.0363 10.8856
L81.4315 10.8856
" />
<path d="M81.4315 10.8856
L81.4315 9.6156
" />
<path d="M81.4315 9.6156
L82.0363 9.6156
" />
<path d="M83.3062 10.8856
L82.8829 10.2809
" />
<path d="M82.5805 10.8856
L82.5805 9.6156
" />
<path d="M82.5805 9.6156
L83.0643 9.6156
" />
<path d="M83.0643 9.6156
L83.1853 9.6761
" />
<path d="M83.1853 9.6761
L83.2458 9.7366
" />
<path d="M83.2458 9.7366
L83.3062 9.8575
" />
<path d="M83.3062 9.8575
L83.3062 10.0390
" />
<path d="M83.3062 10.0390
L83.2458 10.1599
" />
<path d="M83.2458 10.1599
L83.1853 10.2204
" />
<path d="M83.1853 10.2204
L83.0643 10.2809
" />
<path d="M83.0643 10.2809
L82.5805 10.2809
" />
<path d="M83.7901 10.5228
L84.3948 10.5228
" />
<path d="M83.6691 10.8856
L84.0924 9.6156
" />
<path d="M84.0924 9.6156
L84.5158 10.8856
" />
<path d="M84.7577 9.6156
L85.4834 9.6156
" />
<path d="M85.1206 10.8856
L85.1206 9.6156
" />
<path d="M85.9067 9.6156
L85.9067 10.6437
" />
<path d="M85.9067 10.6437
L85.9672 10.7647
" />
<path d="M85.9672 10.7647
L86.0277 10.8252
" />
<path d="M86.0277 10.8252
L86.1486 10.8856
" />
<path d="M86.1486 10.8856
L86.3905 10.8856
" />
<path d="M86.3905 10.8856
L86.5115 10.8252
" />
<path d="M86.5115 10.8252
L86.5720 10.7647
" />
<path d="M86.5720 10.7647
L86.6324 10.6437
" />
<path d="M86.6324 10.6437
L86.6324 9.6156
" />
<path d="M87.9629 10.8856
L87.5396 10.2809
" />
<path d="M87.2372 10.8856
L87.2372 9.6156
" />
<path d="M87.2372 9.6156
L87.7210 9.6156
" />
<path d="M87.7210 9.6156
L87.8420 9.6761
" />
<path d="M87.8420 9.6761
L87.9025 9.7366
" />
<path d="M87.9025 9.7366
L87.9629 9.8575
" />
<path d="M87.9629 9.8575
L87.9629 10.0390
" />
<path d="M87.9629 10.0390
L87.9025 10.1599
" />
<path d="M87.9025 10.1599
L87.8420 10.2204
" />
<path d="M87.8420 10.2204
L87.7210 10.2809
" />
<path d="M87.7210 10.2809
L87.2372 10.2809
" />
<path d="M88.5072 10.2204
L88.9306 10.2204
" />
<path d="M89.1120 10.8856
L88.5072 10.8856
" />
<path d="M88.5072 10.8856
L88.5072 9.6156
" />
<path d="M88.5072 9.6156
L89.1120 9.6156
" />
<path d="M90.5634 9.5552
L89.4748 11.1880
" />
<path d="M90.9867 10.8856
L90.9867 9.6156
" />
<path d="M90.9867 9.6156
L91.2891 9.6156
" />
<path d="M91.2891 9.6156
L91.4705 9.6761
" />
<path d="M91.4705 9.6761
L91.5915 9.7971
" />
<path d="M91.5915 9.7971
L91.6520 9.9180
" />
<path d="M91.6520 9.9180
L91.7124 10.1599
" />
<path d="M91.7124 10.1599
L91.7124 10.3413
" />
<path d="M91.7124 10.3413
L91.6520 10.5832
" />
<path d="M91.6520 10.5832
L91.5915 10.7042
" />
<path d="M91.5915 10.7042
L91.4705 10.8252
" />
<path d="M91.4705 10.8252
L91.2891 10.8856
" />
<path d="M91.2891 10.8856
L90.9867 10.8856
" />
<path d="M92.1963 10.5228
L92.8010 10.5228
" />
<path d="M92.0753 10.8856
L92.4986 9.6156
" />
<path d="M92.4986 9.6156
L92.9220 10.8856
" />
<path d="M93.1639 9.6156
L93.8896 9.6156
" />
<path d="M93.5268 10.8856
L93.5268 9.6156
" />
<path d="M94.2525 10.5228
L94.8572 10.5228
" />
<path d="M94.1315 10.8856
L94.5548 9.6156
" />
<path d="M94.5548 9.6156
L94.9782 10.8856
" />
<path d="M95.3411 10.8252
L95.5225 10.8856
" />
<path d="M95.5225 10.8856
L95.8249 10.8856
" />
<path d="M95.8249 10.8856
L95.9458 10.8252
" />
<path d="M95.9458 10.8252
L96.0063 10.7647
" />
<path d="M96.0063 10.7647
L96.0668 10.6437
" />
<path d="M96.0668 10.6437
L96.0668 10.5228
" />
<path d="M96.0668 10.5228
L96.0063 10.4018
" />
<path d="M96.0063 10.4018
L95.9458 10.3413
" />
<path d="M95.9458 10.3413
L95.8249 10.2809
" />
<path d="M95.8249 10.2809
L95.5830 10.2204
" />
<path d="M95.5830 10.2204
L95.4620 10.1599
" />
<path d="M95.4620 10.1599
L95.4015 10.0994
" />
<path d="M95.4015 10.0994
L95.3411 9.9785
" />
<path d="M95.3411 9.9785
L95.3411 9.8575
" />
<path d="M95.3411 9.8575
L95.4015 9.7366
" />
<path d="M95.4015 9.7366
L95.4620 9.6761
" />
<path d="M95.4620 9.6761
L95.5830 9.6156
" />
<path d="M95.5830 9.6156
L95.8853 9.6156
" />
<path d="M95.8853 9.6156
L96.0668 9.6761
" />
<path d="M96.6110 10.8856
L96.6110 9.6156
" />
<path d="M96.6110 10.2204
L97.3367 10.2204
" />
<path d="M97.3367 10.8856
L97.3367 9.6156
" />
<path d="M97.9415 10.2204
L98.3649 10.2204
" />
<path d="M98.5463 10.8856
L97.9415 10.8856
" />
<path d="M97.9415 10.8856
L97.9415 9.6156
" />
<path d="M97.9415 9.6156
L98.5463 9.6156
" />
<path d="M99.0905 10.2204
L99.5139 10.2204
" />
<path d="M99.6953 10.8856
L99.0905 10.8856
" />
<path d="M99.0905 10.8856
L99.0905 9.6156
" />
<path d="M99.0905 9.6156
L99.6953 9.6156
" />
<path d="M100.0581 9.6156
L100.7838 9.6156
" />
<path d="M100.4210 10.8856
L100.4210 9.6156
" />
<path d="M102.1143 9.5552
L101.0257 11.1880
" />
<path d="M103.2633 10.7647
L103.2029 10.8252
" />
<path d="M103.2029 10.8252
L103.0214 10.8856
" />
<path d="M103.0214 10.8856
L102.9005 10.8856
" />
<path d="M102.9005 10.8856
L102.7191 10.8252
" />
<path d="M102.7191 10.8252
L102.5981 10.7042
" />
<path d="M102.5981 10.7042
L102.5376 10.5832
" />
<path d="M102.5376 10.5832
L102.4772 10.3413
" />
<path d="M102.4772 10.3413
L102.4772 10.1599
" />
<path d="M102.4772 10.1599
L102.5376 9.9180
" />
<path d="M102.5376 9.9180
L102.5981 9.7971
" />
<path d="M102.5981 9.7971
L102.7191 9.6761
" />
<path d="M102.7191 9.6761
L102.9005 9.6156
" />
<path d="M102.9005 9.6156
L103.0214 9.6156
" />
<path d="M103.0214 9.6156
L103.2029 9.6761
" />
<path d="M103.2029 9.6761
L103.2633 9.7366
" />
<path d="M103.8076 10.8856
L103.8076 9.6156
" />
<path d="M103.8076 9.6156
L104.1100 9.6156
" />
<path d="M104.1100 9.6156
L104.2914 9.6761
" />
<path d="M104.2914 9.6761
L104.4124 9.7971
" />
<path d="M104.4124 9.7971
L104.4729 9.9180
" />
<path d="M104.4729 9.9180
L104.5333 10.1599
" />
<path d="M104.5333 10.1599
L104.5333 10.3413
" />
<path d="M104.5333 10.3413
L104.4729 10.5832
" />
<path d="M104.4729 10.5832
L104.4124 10.7042
" />
<path d="M104.4124 10.7042
L104.2914 10.8252
" />
<path d="M104.2914 10.8252
L104.1100 10.8856
" />
<path d="M104.1100 10.8856
L103.8076 10.8856
" />
<path d="M105.3195 9.6156
L105.4405 9.6156
" />
<path d="M105.4405 9.6156
L105.5614 9.6761
" />
<path d="M105.5614 9.6761
L105.6219 9.7366
" />
<path d="M105.6219 9.7366
L105.6824 9.8575
" />
<path d="M105.6824 9.8575
L105.7429 10.0994
" />
<path d="M105.7429 10.0994
L105.7429 10.4018
" />
<path d="M105.7429 10.4018
L105.6824 10.6437
" />
<path d="M105.6824 10.6437
L105.6219 10.7647
" />
<path d="M105.6219 10.7647
L105.5614 10.8252
" />
<path d="M105.5614 10.8252
L105.4405 10.8856
" />
<path d="M105.4405 10.8856
L105.3195 10.8856
" />
<path d="M105.3195 10.8856
L105.1986 10.8252
" />
<path d="M105.1986 10.8252
L105.1381 10.7647
" />
<path d="M105.1381 10.7647
L105.0776 10.6437
" />
<path d="M105.0776 10.6437
L105.0172 10.4018
" />
<path d="M105.0172 10.4018
L105.0172 10.0994
" />
<path d="M105.0172 10.0994
L105.0776 9.8575
" />
<path d="M105.0776 9.8575
L105.1381 9.7366
" />
<path d="M105.1381 9.7366
L105.1986 9.6761
" />
<path d="M105.1986 9.6761
L105.3195 9.6156
" />
<path d="M106.5290 9.6156
L106.6500 9.6156
" />
<path d="M106.6500 9.6156
L106.7709 9.6761
" />
<path d="M106.7709 9.6761
L106.8314 9.7366
" />
<path d="M106.8314 9.7366
L106.8919 9.8575
" />
<path d="M106.8919 9.8575
L106.9524 10.0994
" />
<path d="M106.9524 10.0994
L106.9524 10.4018
" />
<path d="M106.9524 10.4018
L106.8919 10.6437
" />
<path d="M106.8919 10.6437
L106.8314 10.7647
" />
<path d="M106.8314 10.7647
L106.7709 10.8252
" />
<path d="M106.7709 10.8252
L106.6500 10.8856
" />
<path d="M106.6500 10.8856
L106.5290 10.8856
" />
<path d="M106.5290 10.8856
L106.4081 10.8252
" />
<path d="M106.4081 10.8252
L106.3476 10.7647
" />
<path d="M106.3476 10.7647
L106.2871 10.6437
" />
<path d="M106.2871 10.6437
L106.2267 10.4018
" />
<path d="M106.2267 10.4018
L106.2267 10.0994
" />
<path d="M106.2267 10.0994
L106.2871 9.8575
" />
<path d="M106.2871 9.8575
L106.3476 9.7366
" />
<path d="M106.3476 9.7366
L106.4081 9.6761
" />
<path d="M106.4081 9.6761
L106.5290 9.6156
" />
<path d="M107.7385 9.6156
L107.8595 9.6156
" />
<path d="M107.8595 9.6156
L107.9804 9.6761
" />
<path d="M107.9804 9.6761
L108.0409 9.7366
" />
<path d="M108.0409 9.7366
L108.1014 9.8575
" />
<path d="M108.1014 9.8575
L108.1619 10.0994
" />
<path d="M108.1619 10.0994
L108.1619 10.4018
" />
<path d="M108.1619 10.4018
L108.1014 10.6437
" />
<path d="M108.1014 10.6437
L108.0409 10.7647
" />
<path d="M108.0409 10.7647
L107.9804 10.8252
" />
<path d="M107.9804 10.8252
L107.8595 10.8856
" />
<path d="M107.8595 10.8856
L107.7385 10.8856
" />
<path d="M107.7385 10.8856
L107.6176 10.8252
" />
<path d="M107.6176 10.8252
L107.5571 10.7647
" />
<path d="M107.5571 10.7647
L107.4966 10.6437
" />
<path d="M107.4966 10.6437
L107.4362 10.4018
" />
<path d="M107.4362 10.4018
L107.4362 10.0994
" />
<path d="M107.4362 10.0994
L107.4966 9.8575
" />
<path d="M107.4966 9.8575
L107.5571 9.7366
" />
<path d="M107.5571 9.7366
L107.6176 9.6761
" />
<path d="M107.6176 9.6761
L107.7385 9.6156
" />
<path d="M108.9480 9.6156
L109.0690 9.6156
" />
<path d="M109.0690 9.6156
L109.1899 9.6761
" />
<path d="M109.1899 9.6761
L109.2504 9.7366
" />
<path d="M109.2504 9.7366
L109.3109 9.8575
" />
<path d="M109.3109 9.8575
L109.3714 10.0994
" />
<path d="M109.3714 10.0994
L109.3714 10.4018
" />
<path d="M109.3714 10.4018
L109.3109 10.6437
" />
<path d="M109.3109 10.6437
L109.2504 10.7647
" />
<path d="M109.2504 10.7647
L109.1899 10.8252
" />
<path d="M109.1899 10.8252
L109.0690 10.8856
" />
<path d="M109.0690 10.8856
L108.9480 10.8856
" />
<path d="M108.9480 10.8856
L108.8271 10.8252
" />
<path d="M108.8271 10.8252
L108.7666 10.7647
" />
<path d="M108.7666 10.7647
L108.7061 10.6437
" />
<path d="M108.7061 10.6437
L108.6457 10.4018
" />
<path d="M108.6457 10.4018
L108.6457 10.0994
" />
<path d="M108.6457 10.0994
L108.7061 9.8575
" />
<path d="M108.7061 9.8575
L108.7666 9.7366
" />
<path d="M108.7666 9.7366
L108.8271 9.6761
" />
<path d="M108.8271 9.6761
L108.9480 9.6156
" />
<path d="M109.7947 9.6156
L110.5809 9.6156
" />
<path d="M110.5809 9.6156
L110.1575 10.0994
" />
<path d="M110.1575 10.0994
L110.3390 10.0994
" />
<path d="M110.3390 10.0994
L110.4599 10.1599
" />
<path d="M110.4599 10.1599
L110.5204 10.2204
" />
<path d="M110.5204 10.2204
L110.5809 10.3413
" />
<path d="M110.5809 10.3413
L110.5809 10.6437
" />
<path d="M110.5809 10.6437
L110.5204 10.7647
" />
<path d="M110.5204 10.7647
L110.4599 10.8252
" />
<path d="M110.4599 10.8252
L110.3390 10.8856
" />
<path d="M110.3390 10.8856
L109.9761 10.8856
" />
<path d="M109.9761 10.8856
L109.8552 10.8252
" />
<path d="M109.8552 10.8252
L109.7947 10.7647
" />
<path d="M111.0042 9.6156
L111.7904 9.6156
" />
<path d="M111.7904 9.6156
L111.3670 10.0994
" />
<path d="M111.3670 10.0994
L111.5485 10.0994
" />
<path d="M111.5485 10.0994
L111.6694 10.1599
" />
<path d="M111.6694 10.1599
L111.7299 10.2204
" />
<path d="M111.7299 10.2204
L111.7904 10.3413
" />
<path d="M111.7904 10.3413
L111.7904 10.6437
" />
<path d="M111.7904 10.6437
L111.7299 10.7647
" />
<path d="M111.7299 10.7647
L111.6694 10.8252
" />
<path d="M111.6694 10.8252
L111.5485 10.8856
" />
<path d="M111.5485 10.8856
L111.1856 10.8856
" />
<path d="M111.1856 10.8856
L111.0647 10.8252
" />
<path d="M111.0647 10.8252
L111.0042 10.7647
" />
<path d="M112.3951 10.8856
L112.6370 10.8856
" />
<path d="M112.6370 10.8856
L112.7580 10.8252
" />
<path d="M112.7580 10.8252
L112.8184 10.7647
" />
<path d="M112.8184 10.7647
L112.9394 10.5832
" />
<path d="M112.9394 10.5832
L112.9999 10.3413
" />
<path d="M112.9999 10.3413
L112.9999 9.8575
" />
<path d="M112.9999 9.8575
L112.9394 9.7366
" />
<path d="M112.9394 9.7366
L112.8789 9.6761
" />
<path d="M112.8789 9.6761
L112.7580 9.6156
" />
<path d="M112.7580 9.6156
L112.5161 9.6156
" />
<path d="M112.5161 9.6156
L112.3951 9.6761
" />
<path d="M112.3951 9.6761
L112.3346 9.7366
" />
<path d="M112.3346 9.7366
L112.2742 9.8575
" />
<path d="M112.2742 9.8575
L112.2742 10.1599
" />
<path d="M112.2742 10.1599
L112.3346 10.2809
" />
<path d="M112.3346 10.2809
L112.3951 10.3413
" />
<path d="M112.3951 10.3413
L112.5161 10.4018
" />
<path d="M112.5161 10.4018
L112.7580 10.4018
" />
<path d="M112.7580 10.4018
L112.8789 10.3413
" />
<path d="M112.8789 10.3413
L112.9394 10.2809
" />
<path d="M112.9394 10.2809
L112.9999 10.1599
" />
<path d="M114.1489 9.6156
L113.5441 9.6156
" />
<path d="M113.5441 9.6156
L113.4837 10.2204
" />
<path d="M113.4837 10.2204
L113.5441 10.1599
" />
<path d="M113.5441 10.1599
L113.6651 10.0994
" />
<path d="M113.6651 10.0994
L113.9675 10.0994
" />
<path d="M113.9675 10.0994
L114.0884 10.1599
" />
<path d="M114.0884 10.1599
L114.1489 10.2204
" />
<path d="M114.1489 10.2204
L114.2094 10.3413
" />
<path d="M114.2094 10.3413
L114.2094 10.6437
" />
<path d="M114.2094 10.6437
L114.1489 10.7647
" />
<path d="M114.1489 10.7647
L114.0884 10.8252
" />
<path d="M114.0884 10.8252
L113.9675 10.8856
" />
<path d="M113.9675 10.8856
L113.6651 10.8856
" />
<path d="M113.6651 10.8856
L113.5441 10.8252
" />
<path d="M113.5441 10.8252
L113.4837 10.7647
" />
<path d="M114.7536 10.7647
L114.8141 10.8252
" />
<path d="M114.8141 10.8252
L114.7536 10.8856
" />
<path d="M114.7536 10.8856
L114.6932 10.8252
" />
<path d="M114.6932 10.8252
L114.7536 10.7647
" />
<path d="M114.7536 10.7647
L114.7536 10.8856
" />
<path d="M115.3584 10.0390
L115.3584 11.3090
" />
<path d="M115.3584 10.0994
L115.4794 10.0390
" />
<path d="M115.4794 10.0390
L115.7213 10.0390
" />
<path d="M115.7213 10.0390
L115.8422 10.0994
" />
<path d="M115.8422 10.0994
L115.9027 10.1599
" />
<path d="M115.9027 10.1599
L115.9632 10.2809
" />
<path d="M115.9632 10.2809
L115.9632 10.6437
" />
<path d="M115.9632 10.6437
L115.9027 10.7647
" />
<path d="M115.9027 10.7647
L115.8422 10.8252
" />
<path d="M115.8422 10.8252
L115.7213 10.8856
" />
<path d="M115.7213 10.8856
L115.4794 10.8856
" />
<path d="M115.4794 10.8856
L115.3584 10.8252
" />
<path d="M117.0517 10.8856
L117.0517 9.6156
" />
<path d="M117.0517 10.8252
L116.9308 10.8856
" />
<path d="M116.9308 10.8856
L116.6889 10.8856
" />
<path d="M116.6889 10.8856
L116.5679 10.8252
" />
<path d="M116.5679 10.8252
L116.5074 10.7647
" />
<path d="M116.5074 10.7647
L116.4470 10.6437
" />
<path d="M116.4470 10.6437
L116.4470 10.2809
" />
<path d="M116.4470 10.2809
L116.5074 10.1599
" />
<path d="M116.5074 10.1599
L116.5679 10.0994
" />
<path d="M116.5679 10.0994
L116.6889 10.0390
" />
<path d="M116.6889 10.0390
L116.9308 10.0390
" />
<path d="M116.9308 10.0390
L117.0517 10.0994
" />
<path d="M117.4750 10.0390
L117.9588 10.0390
" />
<path d="M117.6564 10.8856
L117.6564 9.7971
" />
<path d="M117.6564 9.7971
L117.7169 9.6761
" />
<path d="M117.7169 9.6761
L117.8379 9.6156
" />
<path d="M117.8379 9.6156
L117.9588 9.6156
" />
</g></g> 
</svg>
