<?xml version="1.0" standalone="no"?>
 <!DOCTYPE svg PUBLIC "-//W3C//DTD SVG 1.1//EN" 
 "http://www.w3.org/Graphics/SVG/1.1/DTD/svg11.dtd"> 
<svg
  xmlns:svg="http://www.w3.org/2000/svg"
  xmlns="http://www.w3.org/2000/svg"
  xmlns:xlink="http://www.w3.org/1999/xlink"
  version="1.1"
  width="63.9064mm" height="13.1318mm" viewBox="0.0000 0.0000 63.9064 13.1318">
<title>SVG Image created as working.svg date 2023/08/10 05:21:56 </title>
  <desc>Image generated by Eeschema-SVG </desc>
<g style="fill:#000000; fill-opacity:1.0000;stroke:#000000; stroke-opacity:1.0000;
stroke-linecap:round; stroke-linejoin:round;"
 transform="translate(0 0) scale(1 1)">
</g>
<g style="fill:#840000; fill-opacity:0.0; 
stroke:#840000; stroke-width:0.0000; stroke-opacity:1; 
stroke-linecap:round; stroke-linejoin:round;">
</g>
<g style="fill:#840084; fill-opacity:0.0; 
stroke:#840084; stroke-width:0.0000; stroke-opacity:1; 
stroke-linecap:round; stroke-linejoin:round;">
</g>
<g style="fill:#840000; fill-opacity:0.0; 
stroke:#840000; stroke-width:0.0000; stroke-opacity:1; 
stroke-linecap:round; stroke-linejoin:round;">
</g>
<g style="fill:#840084; fill-opacity:0.0; 
stroke:#840084; stroke-width:0.0000; stroke-opacity:1; 
stroke-linecap:round; stroke-linejoin:round;">
</g>
<g style="fill:#006464; fill-opacity:0.0; 
stroke:#006464; stroke-width:0.0000; stroke-opacity:1; 
stroke-linecap:round; stroke-linejoin:round;">
</g>
<g style="fill:#006464; fill-opacity:0.0; 
stroke:#006464; stroke-width:0.1588; stroke-opacity:1; 
stroke-linecap:round; stroke-linejoin:round;">
<text x="31.9557" y="2.7499"
textLength="2.2786" font-size="1.6933" lengthAdjust="spacingAndGlyphs"
text-anchor="middle" opacity="0">J?</text>
<g class="stroked-text"><desc>J?</desc>
<path d="M31.5928 1.4241
L31.5928 2.3313
" />
<path d="M31.5928 2.3313
L31.5323 2.5127
" />
<path d="M31.5323 2.5127
L31.4114 2.6337
" />
<path d="M31.4114 2.6337
L31.2299 2.6941
" />
<path d="M31.2299 2.6941
L31.1090 2.6941
" />
<path d="M32.3790 2.5732
L32.4394 2.6337
" />
<path d="M32.4394 2.6337
L32.3790 2.6941
" />
<path d="M32.3790 2.6941
L32.3185 2.6337
" />
<path d="M32.3185 2.6337
L32.3790 2.5732
" />
<path d="M32.3790 2.5732
L32.3790 2.6941
" />
<path d="M32.1371 1.4846
L32.2580 1.4241
" />
<path d="M32.2580 1.4241
L32.5604 1.4241
" />
<path d="M32.5604 1.4241
L32.6813 1.4846
" />
<path d="M32.6813 1.4846
L32.7418 1.6056
" />
<path d="M32.7418 1.6056
L32.7418 1.7265
" />
<path d="M32.7418 1.7265
L32.6813 1.8475
" />
<path d="M32.6813 1.8475
L32.6209 1.9079
" />
<path d="M32.6209 1.9079
L32.4999 1.9684
" />
<path d="M32.4999 1.9684
L32.4394 2.0289
" />
<path d="M32.4394 2.0289
L32.3790 2.1498
" />
<path d="M32.3790 2.1498
L32.3790 2.2103
" />
</g><text x="31.9557" y="5.2899"
textLength="8.9310" font-size="1.6933" lengthAdjust="spacingAndGlyphs"
text-anchor="middle" opacity="0">NC3FBH2</text>
<g class="stroked-text"><desc>NC3FBH2</desc>
<path d="M27.9037 5.2341
L27.9037 3.9641
" />
<path d="M27.9037 3.9641
L28.6294 5.2341
" />
<path d="M28.6294 5.2341
L28.6294 3.9641
" />
<path d="M29.9599 5.1132
L29.8995 5.1737
" />
<path d="M29.8995 5.1737
L29.7180 5.2341
" />
<path d="M29.7180 5.2341
L29.5971 5.2341
" />
<path d="M29.5971 5.2341
L29.4157 5.1737
" />
<path d="M29.4157 5.1737
L29.2947 5.0527
" />
<path d="M29.2947 5.0527
L29.2342 4.9317
" />
<path d="M29.2342 4.9317
L29.1738 4.6898
" />
<path d="M29.1738 4.6898
L29.1738 4.5084
" />
<path d="M29.1738 4.5084
L29.2342 4.2665
" />
<path d="M29.2342 4.2665
L29.2947 4.1456
" />
<path d="M29.2947 4.1456
L29.4157 4.0246
" />
<path d="M29.4157 4.0246
L29.5971 3.9641
" />
<path d="M29.5971 3.9641
L29.7180 3.9641
" />
<path d="M29.7180 3.9641
L29.8995 4.0246
" />
<path d="M29.8995 4.0246
L29.9599 4.0851
" />
<path d="M30.3833 3.9641
L31.1695 3.9641
" />
<path d="M31.1695 3.9641
L30.7461 4.4479
" />
<path d="M30.7461 4.4479
L30.9276 4.4479
" />
<path d="M30.9276 4.4479
L31.0485 4.5084
" />
<path d="M31.0485 4.5084
L31.1090 4.5689
" />
<path d="M31.1090 4.5689
L31.1695 4.6898
" />
<path d="M31.1695 4.6898
L31.1695 4.9922
" />
<path d="M31.1695 4.9922
L31.1090 5.1132
" />
<path d="M31.1090 5.1132
L31.0485 5.1737
" />
<path d="M31.0485 5.1737
L30.9276 5.2341
" />
<path d="M30.9276 5.2341
L30.5647 5.2341
" />
<path d="M30.5647 5.2341
L30.4438 5.1737
" />
<path d="M30.4438 5.1737
L30.3833 5.1132
" />
<path d="M32.1371 4.5689
L31.7137 4.5689
" />
<path d="M31.7137 5.2341
L31.7137 3.9641
" />
<path d="M31.7137 3.9641
L32.3185 3.9641
" />
<path d="M33.2257 4.5689
L33.4071 4.6294
" />
<path d="M33.4071 4.6294
L33.4676 4.6898
" />
<path d="M33.4676 4.6898
L33.5280 4.8108
" />
<path d="M33.5280 4.8108
L33.5280 4.9922
" />
<path d="M33.5280 4.9922
L33.4676 5.1132
" />
<path d="M33.4676 5.1132
L33.4071 5.1737
" />
<path d="M33.4071 5.1737
L33.2861 5.2341
" />
<path d="M33.2861 5.2341
L32.8023 5.2341
" />
<path d="M32.8023 5.2341
L32.8023 3.9641
" />
<path d="M32.8023 3.9641
L33.2257 3.9641
" />
<path d="M33.2257 3.9641
L33.3466 4.0246
" />
<path d="M33.3466 4.0246
L33.4071 4.0851
" />
<path d="M33.4071 4.0851
L33.4676 4.2060
" />
<path d="M33.4676 4.2060
L33.4676 4.3270
" />
<path d="M33.4676 4.3270
L33.4071 4.4479
" />
<path d="M33.4071 4.4479
L33.3466 4.5084
" />
<path d="M33.3466 4.5084
L33.2257 4.5689
" />
<path d="M33.2257 4.5689
L32.8023 4.5689
" />
<path d="M34.0723 5.2341
L34.0723 3.9641
" />
<path d="M34.0723 4.5689
L34.7980 4.5689
" />
<path d="M34.7980 5.2341
L34.7980 3.9641
" />
<path d="M35.3424 4.0851
L35.4028 4.0246
" />
<path d="M35.4028 4.0246
L35.5238 3.9641
" />
<path d="M35.5238 3.9641
L35.8262 3.9641
" />
<path d="M35.8262 3.9641
L35.9471 4.0246
" />
<path d="M35.9471 4.0246
L36.0076 4.0851
" />
<path d="M36.0076 4.0851
L36.0681 4.2060
" />
<path d="M36.0681 4.2060
L36.0681 4.3270
" />
<path d="M36.0681 4.3270
L36.0076 4.5084
" />
<path d="M36.0076 4.5084
L35.2819 5.2341
" />
<path d="M35.2819 5.2341
L36.0681 5.2341
" />
</g></g>
<g style="fill:#840084; fill-opacity:0.0; 
stroke:#840084; stroke-width:0.1588; stroke-opacity:1; 
stroke-linecap:round; stroke-linejoin:round;">
<text x="31.9557" y="11.6399"
textLength="53.2596" font-size="1.6933" lengthAdjust="spacingAndGlyphs"
text-anchor="middle" opacity="0">Connector_Audio:Jack_XLR_Neutrik_NC3FBH2_Horizontal</text>
<g class="stroked-text"><desc>Connector_Audio:Jack_XLR_Neutrik_NC3FBH2_Horizontal</desc>
<path d="M6.4651 11.4632
L6.4047 11.5237
" />
<path d="M6.4047 11.5237
L6.2232 11.5841
" />
<path d="M6.2232 11.5841
L6.1023 11.5841
" />
<path d="M6.1023 11.5841
L5.9209 11.5237
" />
<path d="M5.9209 11.5237
L5.7999 11.4027
" />
<path d="M5.7999 11.4027
L5.7394 11.2817
" />
<path d="M5.7394 11.2817
L5.6790 11.0398
" />
<path d="M5.6790 11.0398
L5.6790 10.8584
" />
<path d="M5.6790 10.8584
L5.7394 10.6165
" />
<path d="M5.7394 10.6165
L5.7999 10.4956
" />
<path d="M5.7999 10.4956
L5.9209 10.3746
" />
<path d="M5.9209 10.3746
L6.1023 10.3141
" />
<path d="M6.1023 10.3141
L6.2232 10.3141
" />
<path d="M6.2232 10.3141
L6.4047 10.3746
" />
<path d="M6.4047 10.3746
L6.4651 10.4351
" />
<path d="M7.1909 11.5841
L7.0699 11.5237
" />
<path d="M7.0699 11.5237
L7.0094 11.4632
" />
<path d="M7.0094 11.4632
L6.9490 11.3422
" />
<path d="M6.9490 11.3422
L6.9490 10.9794
" />
<path d="M6.9490 10.9794
L7.0094 10.8584
" />
<path d="M7.0094 10.8584
L7.0699 10.7979
" />
<path d="M7.0699 10.7979
L7.1909 10.7375
" />
<path d="M7.1909 10.7375
L7.3723 10.7375
" />
<path d="M7.3723 10.7375
L7.4932 10.7979
" />
<path d="M7.4932 10.7979
L7.5537 10.8584
" />
<path d="M7.5537 10.8584
L7.6142 10.9794
" />
<path d="M7.6142 10.9794
L7.6142 11.3422
" />
<path d="M7.6142 11.3422
L7.5537 11.4632
" />
<path d="M7.5537 11.4632
L7.4932 11.5237
" />
<path d="M7.4932 11.5237
L7.3723 11.5841
" />
<path d="M7.3723 11.5841
L7.1909 11.5841
" />
<path d="M8.1584 10.7375
L8.1584 11.5841
" />
<path d="M8.1584 10.8584
L8.2189 10.7979
" />
<path d="M8.2189 10.7979
L8.3399 10.7375
" />
<path d="M8.3399 10.7375
L8.5213 10.7375
" />
<path d="M8.5213 10.7375
L8.6422 10.7979
" />
<path d="M8.6422 10.7979
L8.7027 10.9189
" />
<path d="M8.7027 10.9189
L8.7027 11.5841
" />
<path d="M9.3074 10.7375
L9.3074 11.5841
" />
<path d="M9.3074 10.8584
L9.3679 10.7979
" />
<path d="M9.3679 10.7979
L9.4889 10.7375
" />
<path d="M9.4889 10.7375
L9.6703 10.7375
" />
<path d="M9.6703 10.7375
L9.7912 10.7979
" />
<path d="M9.7912 10.7979
L9.8517 10.9189
" />
<path d="M9.8517 10.9189
L9.8517 11.5841
" />
<path d="M10.9402 11.5237
L10.8193 11.5841
" />
<path d="M10.8193 11.5841
L10.5774 11.5841
" />
<path d="M10.5774 11.5841
L10.4564 11.5237
" />
<path d="M10.4564 11.5237
L10.3960 11.4027
" />
<path d="M10.3960 11.4027
L10.3960 10.9189
" />
<path d="M10.3960 10.9189
L10.4564 10.7979
" />
<path d="M10.4564 10.7979
L10.5774 10.7375
" />
<path d="M10.5774 10.7375
L10.8193 10.7375
" />
<path d="M10.8193 10.7375
L10.9402 10.7979
" />
<path d="M10.9402 10.7979
L11.0007 10.9189
" />
<path d="M11.0007 10.9189
L11.0007 11.0398
" />
<path d="M11.0007 11.0398
L10.3960 11.1608
" />
<path d="M12.0893 11.5237
L11.9684 11.5841
" />
<path d="M11.9684 11.5841
L11.7265 11.5841
" />
<path d="M11.7265 11.5841
L11.6055 11.5237
" />
<path d="M11.6055 11.5237
L11.5450 11.4632
" />
<path d="M11.5450 11.4632
L11.4846 11.3422
" />
<path d="M11.4846 11.3422
L11.4846 10.9794
" />
<path d="M11.4846 10.9794
L11.5450 10.8584
" />
<path d="M11.5450 10.8584
L11.6055 10.7979
" />
<path d="M11.6055 10.7979
L11.7265 10.7375
" />
<path d="M11.7265 10.7375
L11.9684 10.7375
" />
<path d="M11.9684 10.7375
L12.0893 10.7979
" />
<path d="M12.4522 10.7375
L12.9360 10.7375
" />
<path d="M12.6336 10.3141
L12.6336 11.4027
" />
<path d="M12.6336 11.4027
L12.6941 11.5237
" />
<path d="M12.6941 11.5237
L12.8151 11.5841
" />
<path d="M12.8151 11.5841
L12.9360 11.5841
" />
<path d="M13.5408 11.5841
L13.4198 11.5237
" />
<path d="M13.4198 11.5237
L13.3593 11.4632
" />
<path d="M13.3593 11.4632
L13.2989 11.3422
" />
<path d="M13.2989 11.3422
L13.2989 10.9794
" />
<path d="M13.2989 10.9794
L13.3593 10.8584
" />
<path d="M13.3593 10.8584
L13.4198 10.7979
" />
<path d="M13.4198 10.7979
L13.5408 10.7375
" />
<path d="M13.5408 10.7375
L13.7222 10.7375
" />
<path d="M13.7222 10.7375
L13.8431 10.7979
" />
<path d="M13.8431 10.7979
L13.9036 10.8584
" />
<path d="M13.9036 10.8584
L13.9641 10.9794
" />
<path d="M13.9641 10.9794
L13.9641 11.3422
" />
<path d="M13.9641 11.3422
L13.9036 11.4632
" />
<path d="M13.9036 11.4632
L13.8431 11.5237
" />
<path d="M13.8431 11.5237
L13.7222 11.5841
" />
<path d="M13.7222 11.5841
L13.5408 11.5841
" />
<path d="M14.5083 11.5841
L14.5083 10.7375
" />
<path d="M14.5083 10.9794
L14.5688 10.8584
" />
<path d="M14.5688 10.8584
L14.6293 10.7979
" />
<path d="M14.6293 10.7979
L14.7502 10.7375
" />
<path d="M14.7502 10.7375
L14.8712 10.7375
" />
<path d="M14.9922 11.7051
L15.9598 11.7051
" />
<path d="M16.2017 11.2213
L16.8064 11.2213
" />
<path d="M16.0807 11.5841
L16.5040 10.3141
" />
<path d="M16.5040 10.3141
L16.9274 11.5841
" />
<path d="M17.8950 10.7375
L17.8950 11.5841
" />
<path d="M17.3507 10.7375
L17.3507 11.4027
" />
<path d="M17.3507 11.4027
L17.4112 11.5237
" />
<path d="M17.4112 11.5237
L17.5322 11.5841
" />
<path d="M17.5322 11.5841
L17.7136 11.5841
" />
<path d="M17.7136 11.5841
L17.8345 11.5237
" />
<path d="M17.8345 11.5237
L17.8950 11.4632
" />
<path d="M19.0440 11.5841
L19.0440 10.3141
" />
<path d="M19.0440 11.5237
L18.9231 11.5841
" />
<path d="M18.9231 11.5841
L18.6812 11.5841
" />
<path d="M18.6812 11.5841
L18.5602 11.5237
" />
<path d="M18.5602 11.5237
L18.4997 11.4632
" />
<path d="M18.4997 11.4632
L18.4393 11.3422
" />
<path d="M18.4393 11.3422
L18.4393 10.9794
" />
<path d="M18.4393 10.9794
L18.4997 10.8584
" />
<path d="M18.4997 10.8584
L18.5602 10.7979
" />
<path d="M18.5602 10.7979
L18.6812 10.7375
" />
<path d="M18.6812 10.7375
L18.9231 10.7375
" />
<path d="M18.9231 10.7375
L19.0440 10.7979
" />
<path d="M19.6487 11.5841
L19.6487 10.7375
" />
<path d="M19.6487 10.3141
L19.5883 10.3746
" />
<path d="M19.5883 10.3746
L19.6487 10.4351
" />
<path d="M19.6487 10.4351
L19.7092 10.3746
" />
<path d="M19.7092 10.3746
L19.6487 10.3141
" />
<path d="M19.6487 10.3141
L19.6487 10.4351
" />
<path d="M20.4350 11.5841
L20.3140 11.5237
" />
<path d="M20.3140 11.5237
L20.2535 11.4632
" />
<path d="M20.2535 11.4632
L20.1931 11.3422
" />
<path d="M20.1931 11.3422
L20.1931 10.9794
" />
<path d="M20.1931 10.9794
L20.2535 10.8584
" />
<path d="M20.2535 10.8584
L20.3140 10.7979
" />
<path d="M20.3140 10.7979
L20.4350 10.7375
" />
<path d="M20.4350 10.7375
L20.6164 10.7375
" />
<path d="M20.6164 10.7375
L20.7373 10.7979
" />
<path d="M20.7373 10.7979
L20.7978 10.8584
" />
<path d="M20.7978 10.8584
L20.8583 10.9794
" />
<path d="M20.8583 10.9794
L20.8583 11.3422
" />
<path d="M20.8583 11.3422
L20.7978 11.4632
" />
<path d="M20.7978 11.4632
L20.7373 11.5237
" />
<path d="M20.7373 11.5237
L20.6164 11.5841
" />
<path d="M20.6164 11.5841
L20.4350 11.5841
" />
<path d="M21.4025 11.4632
L21.4630 11.5237
" />
<path d="M21.4630 11.5237
L21.4025 11.5841
" />
<path d="M21.4025 11.5841
L21.3421 11.5237
" />
<path d="M21.3421 11.5237
L21.4025 11.4632
" />
<path d="M21.4025 11.4632
L21.4025 11.5841
" />
<path d="M21.4025 10.7979
L21.4630 10.8584
" />
<path d="M21.4630 10.8584
L21.4025 10.9189
" />
<path d="M21.4025 10.9189
L21.3421 10.8584
" />
<path d="M21.3421 10.8584
L21.4025 10.7979
" />
<path d="M21.4025 10.7979
L21.4025 10.9189
" />
<path d="M22.3702 10.3141
L22.3702 11.2213
" />
<path d="M22.3702 11.2213
L22.3097 11.4027
" />
<path d="M22.3097 11.4027
L22.1888 11.5237
" />
<path d="M22.1888 11.5237
L22.0073 11.5841
" />
<path d="M22.0073 11.5841
L21.8864 11.5841
" />
<path d="M23.5192 11.5841
L23.5192 10.9189
" />
<path d="M23.5192 10.9189
L23.4587 10.7979
" />
<path d="M23.4587 10.7979
L23.3378 10.7375
" />
<path d="M23.3378 10.7375
L23.0959 10.7375
" />
<path d="M23.0959 10.7375
L22.9749 10.7979
" />
<path d="M23.5192 11.5237
L23.3983 11.5841
" />
<path d="M23.3983 11.5841
L23.0959 11.5841
" />
<path d="M23.0959 11.5841
L22.9749 11.5237
" />
<path d="M22.9749 11.5237
L22.9145 11.4027
" />
<path d="M22.9145 11.4027
L22.9145 11.2817
" />
<path d="M22.9145 11.2817
L22.9749 11.1608
" />
<path d="M22.9749 11.1608
L23.0959 11.1003
" />
<path d="M23.0959 11.1003
L23.3983 11.1003
" />
<path d="M23.3983 11.1003
L23.5192 11.0398
" />
<path d="M24.6682 11.5237
L24.5473 11.5841
" />
<path d="M24.5473 11.5841
L24.3054 11.5841
" />
<path d="M24.3054 11.5841
L24.1844 11.5237
" />
<path d="M24.1844 11.5237
L24.1239 11.4632
" />
<path d="M24.1239 11.4632
L24.0635 11.3422
" />
<path d="M24.0635 11.3422
L24.0635 10.9794
" />
<path d="M24.0635 10.9794
L24.1239 10.8584
" />
<path d="M24.1239 10.8584
L24.1844 10.7979
" />
<path d="M24.1844 10.7979
L24.3054 10.7375
" />
<path d="M24.3054 10.7375
L24.5473 10.7375
" />
<path d="M24.5473 10.7375
L24.6682 10.7979
" />
<path d="M25.2125 11.5841
L25.2125 10.3141
" />
<path d="M25.3335 11.1003
L25.6963 11.5841
" />
<path d="M25.6963 10.7375
L25.2125 11.2213
" />
<path d="M25.9383 11.7051
L26.9059 11.7051
" />
<path d="M27.0873 10.3141
L27.9339 11.5841
" />
<path d="M27.9339 10.3141
L27.0873 11.5841
" />
<path d="M29.0225 11.5841
L28.4177 11.5841
" />
<path d="M28.4177 11.5841
L28.4177 10.3141
" />
<path d="M30.1715 11.5841
L29.7482 10.9794
" />
<path d="M29.4458 11.5841
L29.4458 10.3141
" />
<path d="M29.4458 10.3141
L29.9296 10.3141
" />
<path d="M29.9296 10.3141
L30.0506 10.3746
" />
<path d="M30.0506 10.3746
L30.1111 10.4351
" />
<path d="M30.1111 10.4351
L30.1715 10.5560
" />
<path d="M30.1715 10.5560
L30.1715 10.7375
" />
<path d="M30.1715 10.7375
L30.1111 10.8584
" />
<path d="M30.1111 10.8584
L30.0506 10.9189
" />
<path d="M30.0506 10.9189
L29.9296 10.9794
" />
<path d="M29.9296 10.9794
L29.4458 10.9794
" />
<path d="M30.4135 11.7051
L31.3811 11.7051
" />
<path d="M31.6834 11.5841
L31.6834 10.3141
" />
<path d="M31.6834 10.3141
L32.4091 11.5841
" />
<path d="M32.4091 11.5841
L32.4091 10.3141
" />
<path d="M33.4977 11.5237
L33.3768 11.5841
" />
<path d="M33.3768 11.5841
L33.1349 11.5841
" />
<path d="M33.1349 11.5841
L33.0139 11.5237
" />
<path d="M33.0139 11.5237
L32.9535 11.4027
" />
<path d="M32.9535 11.4027
L32.9535 10.9189
" />
<path d="M32.9535 10.9189
L33.0139 10.7979
" />
<path d="M33.0139 10.7979
L33.1349 10.7375
" />
<path d="M33.1349 10.7375
L33.3768 10.7375
" />
<path d="M33.3768 10.7375
L33.4977 10.7979
" />
<path d="M33.4977 10.7979
L33.5582 10.9189
" />
<path d="M33.5582 10.9189
L33.5582 11.0398
" />
<path d="M33.5582 11.0398
L32.9535 11.1608
" />
<path d="M34.6468 10.7375
L34.6468 11.5841
" />
<path d="M34.1025 10.7375
L34.1025 11.4027
" />
<path d="M34.1025 11.4027
L34.1630 11.5237
" />
<path d="M34.1630 11.5237
L34.2840 11.5841
" />
<path d="M34.2840 11.5841
L34.4654 11.5841
" />
<path d="M34.4654 11.5841
L34.5863 11.5237
" />
<path d="M34.5863 11.5237
L34.6468 11.4632
" />
<path d="M35.0701 10.7375
L35.5539 10.7375
" />
<path d="M35.2515 10.3141
L35.2515 11.4027
" />
<path d="M35.2515 11.4027
L35.3120 11.5237
" />
<path d="M35.3120 11.5237
L35.4330 11.5841
" />
<path d="M35.4330 11.5841
L35.5539 11.5841
" />
<path d="M35.9772 11.5841
L35.9772 10.7375
" />
<path d="M35.9772 10.9794
L36.0377 10.8584
" />
<path d="M36.0377 10.8584
L36.0982 10.7979
" />
<path d="M36.0982 10.7979
L36.2191 10.7375
" />
<path d="M36.2191 10.7375
L36.3401 10.7375
" />
<path d="M36.7634 11.5841
L36.7634 10.7375
" />
<path d="M36.7634 10.3141
L36.7030 10.3746
" />
<path d="M36.7030 10.3746
L36.7634 10.4351
" />
<path d="M36.7634 10.4351
L36.8239 10.3746
" />
<path d="M36.8239 10.3746
L36.7634 10.3141
" />
<path d="M36.7634 10.3141
L36.7634 10.4351
" />
<path d="M37.3682 11.5841
L37.3682 10.3141
" />
<path d="M37.4892 11.1003
L37.8520 11.5841
" />
<path d="M37.8520 10.7375
L37.3682 11.2213
" />
<path d="M38.0940 11.7051
L39.0616 11.7051
" />
<path d="M39.3639 11.5841
L39.3639 10.3141
" />
<path d="M39.3639 10.3141
L40.0896 11.5841
" />
<path d="M40.0896 11.5841
L40.0896 10.3141
" />
<path d="M41.4201 11.4632
L41.3597 11.5237
" />
<path d="M41.3597 11.5237
L41.1782 11.5841
" />
<path d="M41.1782 11.5841
L41.0573 11.5841
" />
<path d="M41.0573 11.5841
L40.8759 11.5237
" />
<path d="M40.8759 11.5237
L40.7549 11.4027
" />
<path d="M40.7549 11.4027
L40.6944 11.2817
" />
<path d="M40.6944 11.2817
L40.6340 11.0398
" />
<path d="M40.6340 11.0398
L40.6340 10.8584
" />
<path d="M40.6340 10.8584
L40.6944 10.6165
" />
<path d="M40.6944 10.6165
L40.7549 10.4956
" />
<path d="M40.7549 10.4956
L40.8759 10.3746
" />
<path d="M40.8759 10.3746
L41.0573 10.3141
" />
<path d="M41.0573 10.3141
L41.1782 10.3141
" />
<path d="M41.1782 10.3141
L41.3597 10.3746
" />
<path d="M41.3597 10.3746
L41.4201 10.4351
" />
<path d="M41.8435 10.3141
L42.6297 10.3141
" />
<path d="M42.6297 10.3141
L42.2063 10.7979
" />
<path d="M42.2063 10.7979
L42.3878 10.7979
" />
<path d="M42.3878 10.7979
L42.5087 10.8584
" />
<path d="M42.5087 10.8584
L42.5692 10.9189
" />
<path d="M42.5692 10.9189
L42.6297 11.0398
" />
<path d="M42.6297 11.0398
L42.6297 11.3422
" />
<path d="M42.6297 11.3422
L42.5692 11.4632
" />
<path d="M42.5692 11.4632
L42.5087 11.5237
" />
<path d="M42.5087 11.5237
L42.3878 11.5841
" />
<path d="M42.3878 11.5841
L42.0249 11.5841
" />
<path d="M42.0249 11.5841
L41.9040 11.5237
" />
<path d="M41.9040 11.5237
L41.8435 11.4632
" />
<path d="M43.5973 10.9189
L43.1739 10.9189
" />
<path d="M43.1739 11.5841
L43.1739 10.3141
" />
<path d="M43.1739 10.3141
L43.7787 10.3141
" />
<path d="M44.6859 10.9189
L44.8673 10.9794
" />
<path d="M44.8673 10.9794
L44.9278 11.0398
" />
<path d="M44.9278 11.0398
L44.9882 11.1608
" />
<path d="M44.9882 11.1608
L44.9882 11.3422
" />
<path d="M44.9882 11.3422
L44.9278 11.4632
" />
<path d="M44.9278 11.4632
L44.8673 11.5237
" />
<path d="M44.8673 11.5237
L44.7463 11.5841
" />
<path d="M44.7463 11.5841
L44.2625 11.5841
" />
<path d="M44.2625 11.5841
L44.2625 10.3141
" />
<path d="M44.2625 10.3141
L44.6859 10.3141
" />
<path d="M44.6859 10.3141
L44.8068 10.3746
" />
<path d="M44.8068 10.3746
L44.8673 10.4351
" />
<path d="M44.8673 10.4351
L44.9278 10.5560
" />
<path d="M44.9278 10.5560
L44.9278 10.6770
" />
<path d="M44.9278 10.6770
L44.8673 10.7979
" />
<path d="M44.8673 10.7979
L44.8068 10.8584
" />
<path d="M44.8068 10.8584
L44.6859 10.9189
" />
<path d="M44.6859 10.9189
L44.2625 10.9189
" />
<path d="M45.5325 11.5841
L45.5325 10.3141
" />
<path d="M45.5325 10.9189
L46.2582 10.9189
" />
<path d="M46.2582 11.5841
L46.2582 10.3141
" />
<path d="M46.8026 10.4351
L46.8630 10.3746
" />
<path d="M46.8630 10.3746
L46.9840 10.3141
" />
<path d="M46.9840 10.3141
L47.2864 10.3141
" />
<path d="M47.2864 10.3141
L47.4073 10.3746
" />
<path d="M47.4073 10.3746
L47.4678 10.4351
" />
<path d="M47.4678 10.4351
L47.5283 10.5560
" />
<path d="M47.5283 10.5560
L47.5283 10.6770
" />
<path d="M47.5283 10.6770
L47.4678 10.8584
" />
<path d="M47.4678 10.8584
L46.7421 11.5841
" />
<path d="M46.7421 11.5841
L47.5283 11.5841
" />
<path d="M47.7702 11.7051
L48.7378 11.7051
" />
<path d="M49.0401 11.5841
L49.0401 10.3141
" />
<path d="M49.0401 10.9189
L49.7658 10.9189
" />
<path d="M49.7658 11.5841
L49.7658 10.3141
" />
<path d="M50.5521 11.5841
L50.4311 11.5237
" />
<path d="M50.4311 11.5237
L50.3706 11.4632
" />
<path d="M50.3706 11.4632
L50.3102 11.3422
" />
<path d="M50.3102 11.3422
L50.3102 10.9794
" />
<path d="M50.3102 10.9794
L50.3706 10.8584
" />
<path d="M50.3706 10.8584
L50.4311 10.7979
" />
<path d="M50.4311 10.7979
L50.5521 10.7375
" />
<path d="M50.5521 10.7375
L50.7335 10.7375
" />
<path d="M50.7335 10.7375
L50.8544 10.7979
" />
<path d="M50.8544 10.7979
L50.9149 10.8584
" />
<path d="M50.9149 10.8584
L50.9754 10.9794
" />
<path d="M50.9754 10.9794
L50.9754 11.3422
" />
<path d="M50.9754 11.3422
L50.9149 11.4632
" />
<path d="M50.9149 11.4632
L50.8544 11.5237
" />
<path d="M50.8544 11.5237
L50.7335 11.5841
" />
<path d="M50.7335 11.5841
L50.5521 11.5841
" />
<path d="M51.5196 11.5841
L51.5196 10.7375
" />
<path d="M51.5196 10.9794
L51.5801 10.8584
" />
<path d="M51.5801 10.8584
L51.6406 10.7979
" />
<path d="M51.6406 10.7979
L51.7615 10.7375
" />
<path d="M51.7615 10.7375
L51.8825 10.7375
" />
<path d="M52.3058 11.5841
L52.3058 10.7375
" />
<path d="M52.3058 10.3141
L52.2454 10.3746
" />
<path d="M52.2454 10.3746
L52.3058 10.4351
" />
<path d="M52.3058 10.4351
L52.3663 10.3746
" />
<path d="M52.3663 10.3746
L52.3058 10.3141
" />
<path d="M52.3058 10.3141
L52.3058 10.4351
" />
<path d="M52.7897 10.7375
L53.4549 10.7375
" />
<path d="M53.4549 10.7375
L52.7897 11.5841
" />
<path d="M52.7897 11.5841
L53.4549 11.5841
" />
<path d="M54.1202 11.5841
L53.9992 11.5237
" />
<path d="M53.9992 11.5237
L53.9387 11.4632
" />
<path d="M53.9387 11.4632
L53.8783 11.3422
" />
<path d="M53.8783 11.3422
L53.8783 10.9794
" />
<path d="M53.8783 10.9794
L53.9387 10.8584
" />
<path d="M53.9387 10.8584
L53.9992 10.7979
" />
<path d="M53.9992 10.7979
L54.1202 10.7375
" />
<path d="M54.1202 10.7375
L54.3016 10.7375
" />
<path d="M54.3016 10.7375
L54.4225 10.7979
" />
<path d="M54.4225 10.7979
L54.4830 10.8584
" />
<path d="M54.4830 10.8584
L54.5435 10.9794
" />
<path d="M54.5435 10.9794
L54.5435 11.3422
" />
<path d="M54.5435 11.3422
L54.4830 11.4632
" />
<path d="M54.4830 11.4632
L54.4225 11.5237
" />
<path d="M54.4225 11.5237
L54.3016 11.5841
" />
<path d="M54.3016 11.5841
L54.1202 11.5841
" />
<path d="M55.0877 10.7375
L55.0877 11.5841
" />
<path d="M55.0877 10.8584
L55.1482 10.7979
" />
<path d="M55.1482 10.7979
L55.2692 10.7375
" />
<path d="M55.2692 10.7375
L55.4506 10.7375
" />
<path d="M55.4506 10.7375
L55.5715 10.7979
" />
<path d="M55.5715 10.7979
L55.6320 10.9189
" />
<path d="M55.6320 10.9189
L55.6320 11.5841
" />
<path d="M56.0553 10.7375
L56.5391 10.7375
" />
<path d="M56.2367 10.3141
L56.2367 11.4027
" />
<path d="M56.2367 11.4027
L56.2972 11.5237
" />
<path d="M56.2972 11.5237
L56.4182 11.5841
" />
<path d="M56.4182 11.5841
L56.5391 11.5841
" />
<path d="M57.5067 11.5841
L57.5067 10.9189
" />
<path d="M57.5067 10.9189
L57.4462 10.7979
" />
<path d="M57.4462 10.7979
L57.3253 10.7375
" />
<path d="M57.3253 10.7375
L57.0834 10.7375
" />
<path d="M57.0834 10.7375
L56.9624 10.7979
" />
<path d="M57.5067 11.5237
L57.3858 11.5841
" />
<path d="M57.3858 11.5841
L57.0834 11.5841
" />
<path d="M57.0834 11.5841
L56.9624 11.5237
" />
<path d="M56.9624 11.5237
L56.9020 11.4027
" />
<path d="M56.9020 11.4027
L56.9020 11.2817
" />
<path d="M56.9020 11.2817
L56.9624 11.1608
" />
<path d="M56.9624 11.1608
L57.0834 11.1003
" />
<path d="M57.0834 11.1003
L57.3858 11.1003
" />
<path d="M57.3858 11.1003
L57.5067 11.0398
" />
<path d="M58.2929 11.5841
L58.1719 11.5237
" />
<path d="M58.1719 11.5237
L58.1114 11.4027
" />
<path d="M58.1114 11.4027
L58.1114 10.3141
" />
</g><text x="31.9557" y="11.6399"
textLength="45.0350" font-size="1.6933" lengthAdjust="spacingAndGlyphs"
text-anchor="middle" opacity="0">https://www.neutrik.com/en/product/nc3fbh2</text>
<g class="stroked-text"><desc>https://www.neutrik.com/en/product/nc3fbh2</desc>
<path d="M9.8517 11.5841
L9.8517 10.3141
" />
<path d="M10.3960 11.5841
L10.3960 10.9189
" />
<path d="M10.3960 10.9189
L10.3355 10.7979
" />
<path d="M10.3355 10.7979
L10.2146 10.7375
" />
<path d="M10.2146 10.7375
L10.0332 10.7375
" />
<path d="M10.0332 10.7375
L9.9122 10.7979
" />
<path d="M9.9122 10.7979
L9.8517 10.8584
" />
<path d="M10.8193 10.7375
L11.3031 10.7375
" />
<path d="M11.0007 10.3141
L11.0007 11.4027
" />
<path d="M11.0007 11.4027
L11.0612 11.5237
" />
<path d="M11.0612 11.5237
L11.1822 11.5841
" />
<path d="M11.1822 11.5841
L11.3031 11.5841
" />
<path d="M11.5450 10.7375
L12.0288 10.7375
" />
<path d="M11.7264 10.3141
L11.7264 11.4027
" />
<path d="M11.7264 11.4027
L11.7869 11.5237
" />
<path d="M11.7869 11.5237
L11.9079 11.5841
" />
<path d="M11.9079 11.5841
L12.0288 11.5841
" />
<path d="M12.4521 10.7375
L12.4521 12.0075
" />
<path d="M12.4521 10.7979
L12.5731 10.7375
" />
<path d="M12.5731 10.7375
L12.8150 10.7375
" />
<path d="M12.8150 10.7375
L12.9359 10.7979
" />
<path d="M12.9359 10.7979
L12.9964 10.8584
" />
<path d="M12.9964 10.8584
L13.0569 10.9794
" />
<path d="M13.0569 10.9794
L13.0569 11.3422
" />
<path d="M13.0569 11.3422
L12.9964 11.4632
" />
<path d="M12.9964 11.4632
L12.9359 11.5237
" />
<path d="M12.9359 11.5237
L12.8150 11.5841
" />
<path d="M12.8150 11.5841
L12.5731 11.5841
" />
<path d="M12.5731 11.5841
L12.4521 11.5237
" />
<path d="M13.5407 11.5237
L13.6616 11.5841
" />
<path d="M13.6616 11.5841
L13.9035 11.5841
" />
<path d="M13.9035 11.5841
L14.0245 11.5237
" />
<path d="M14.0245 11.5237
L14.0849 11.4027
" />
<path d="M14.0849 11.4027
L14.0849 11.3422
" />
<path d="M14.0849 11.3422
L14.0245 11.2213
" />
<path d="M14.0245 11.2213
L13.9035 11.1608
" />
<path d="M13.9035 11.1608
L13.7221 11.1608
" />
<path d="M13.7221 11.1608
L13.6011 11.1003
" />
<path d="M13.6011 11.1003
L13.5407 10.9794
" />
<path d="M13.5407 10.9794
L13.5407 10.9189
" />
<path d="M13.5407 10.9189
L13.6011 10.7979
" />
<path d="M13.6011 10.7979
L13.7221 10.7375
" />
<path d="M13.7221 10.7375
L13.9035 10.7375
" />
<path d="M13.9035 10.7375
L14.0245 10.7979
" />
<path d="M14.6292 11.4632
L14.6897 11.5237
" />
<path d="M14.6897 11.5237
L14.6292 11.5841
" />
<path d="M14.6292 11.5841
L14.5688 11.5237
" />
<path d="M14.5688 11.5237
L14.6292 11.4632
" />
<path d="M14.6292 11.4632
L14.6292 11.5841
" />
<path d="M14.6292 10.7979
L14.6897 10.8584
" />
<path d="M14.6897 10.8584
L14.6292 10.9189
" />
<path d="M14.6292 10.9189
L14.5688 10.8584
" />
<path d="M14.5688 10.8584
L14.6292 10.7979
" />
<path d="M14.6292 10.7979
L14.6292 10.9189
" />
<path d="M16.1412 10.2537
L15.0526 11.8865
" />
<path d="M17.4717 10.2537
L16.3831 11.8865
" />
<path d="M17.7741 10.7375
L18.0160 11.5841
" />
<path d="M18.0160 11.5841
L18.2579 10.9794
" />
<path d="M18.2579 10.9794
L18.4998 11.5841
" />
<path d="M18.4998 11.5841
L18.7417 10.7375
" />
<path d="M19.1046 10.7375
L19.3465 11.5841
" />
<path d="M19.3465 11.5841
L19.5884 10.9794
" />
<path d="M19.5884 10.9794
L19.8303 11.5841
" />
<path d="M19.8303 11.5841
L20.0722 10.7375
" />
<path d="M20.4351 10.7375
L20.6770 11.5841
" />
<path d="M20.6770 11.5841
L20.9189 10.9794
" />
<path d="M20.9189 10.9794
L21.1608 11.5841
" />
<path d="M21.1608 11.5841
L21.4027 10.7375
" />
<path d="M21.8865 11.4632
L21.9470 11.5237
" />
<path d="M21.9470 11.5237
L21.8865 11.5841
" />
<path d="M21.8865 11.5841
L21.8261 11.5237
" />
<path d="M21.8261 11.5237
L21.8865 11.4632
" />
<path d="M21.8865 11.4632
L21.8865 11.5841
" />
<path d="M22.4913 10.7375
L22.4913 11.5841
" />
<path d="M22.4913 10.8584
L22.5518 10.7979
" />
<path d="M22.5518 10.7979
L22.6728 10.7375
" />
<path d="M22.6728 10.7375
L22.8542 10.7375
" />
<path d="M22.8542 10.7375
L22.9751 10.7979
" />
<path d="M22.9751 10.7979
L23.0356 10.9189
" />
<path d="M23.0356 10.9189
L23.0356 11.5841
" />
<path d="M24.1241 11.5237
L24.0032 11.5841
" />
<path d="M24.0032 11.5841
L23.7613 11.5841
" />
<path d="M23.7613 11.5841
L23.6403 11.5237
" />
<path d="M23.6403 11.5237
L23.5799 11.4027
" />
<path d="M23.5799 11.4027
L23.5799 10.9189
" />
<path d="M23.5799 10.9189
L23.6403 10.7979
" />
<path d="M23.6403 10.7979
L23.7613 10.7375
" />
<path d="M23.7613 10.7375
L24.0032 10.7375
" />
<path d="M24.0032 10.7375
L24.1241 10.7979
" />
<path d="M24.1241 10.7979
L24.1846 10.9189
" />
<path d="M24.1846 10.9189
L24.1846 11.0398
" />
<path d="M24.1846 11.0398
L23.5799 11.1608
" />
<path d="M25.2732 10.7375
L25.2732 11.5841
" />
<path d="M24.7289 10.7375
L24.7289 11.4027
" />
<path d="M24.7289 11.4027
L24.7894 11.5237
" />
<path d="M24.7894 11.5237
L24.9104 11.5841
" />
<path d="M24.9104 11.5841
L25.0918 11.5841
" />
<path d="M25.0918 11.5841
L25.2127 11.5237
" />
<path d="M25.2127 11.5237
L25.2732 11.4632
" />
<path d="M25.6965 10.7375
L26.1803 10.7375
" />
<path d="M25.8779 10.3141
L25.8779 11.4027
" />
<path d="M25.8779 11.4027
L25.9384 11.5237
" />
<path d="M25.9384 11.5237
L26.0594 11.5841
" />
<path d="M26.0594 11.5841
L26.1803 11.5841
" />
<path d="M26.6036 11.5841
L26.6036 10.7375
" />
<path d="M26.6036 10.9794
L26.6641 10.8584
" />
<path d="M26.6641 10.8584
L26.7246 10.7979
" />
<path d="M26.7246 10.7979
L26.8455 10.7375
" />
<path d="M26.8455 10.7375
L26.9665 10.7375
" />
<path d="M27.3898 11.5841
L27.3898 10.7375
" />
<path d="M27.3898 10.3141
L27.3294 10.3746
" />
<path d="M27.3294 10.3746
L27.3898 10.4351
" />
<path d="M27.3898 10.4351
L27.4503 10.3746
" />
<path d="M27.4503 10.3746
L27.3898 10.3141
" />
<path d="M27.3898 10.3141
L27.3898 10.4351
" />
<path d="M27.9946 11.5841
L27.9946 10.3141
" />
<path d="M28.1156 11.1003
L28.4784 11.5841
" />
<path d="M28.4784 10.7375
L27.9946 11.2213
" />
<path d="M29.0227 11.4632
L29.0832 11.5237
" />
<path d="M29.0832 11.5237
L29.0227 11.5841
" />
<path d="M29.0227 11.5841
L28.9623 11.5237
" />
<path d="M28.9623 11.5237
L29.0227 11.4632
" />
<path d="M29.0227 11.4632
L29.0227 11.5841
" />
<path d="M30.1718 11.5237
L30.0509 11.5841
" />
<path d="M30.0509 11.5841
L29.8090 11.5841
" />
<path d="M29.8090 11.5841
L29.6880 11.5237
" />
<path d="M29.6880 11.5237
L29.6275 11.4632
" />
<path d="M29.6275 11.4632
L29.5671 11.3422
" />
<path d="M29.5671 11.3422
L29.5671 10.9794
" />
<path d="M29.5671 10.9794
L29.6275 10.8584
" />
<path d="M29.6275 10.8584
L29.6880 10.7979
" />
<path d="M29.6880 10.7979
L29.8090 10.7375
" />
<path d="M29.8090 10.7375
L30.0509 10.7375
" />
<path d="M30.0509 10.7375
L30.1718 10.7979
" />
<path d="M30.8976 11.5841
L30.7766 11.5237
" />
<path d="M30.7766 11.5237
L30.7161 11.4632
" />
<path d="M30.7161 11.4632
L30.6557 11.3422
" />
<path d="M30.6557 11.3422
L30.6557 10.9794
" />
<path d="M30.6557 10.9794
L30.7161 10.8584
" />
<path d="M30.7161 10.8584
L30.7766 10.7979
" />
<path d="M30.7766 10.7979
L30.8976 10.7375
" />
<path d="M30.8976 10.7375
L31.0790 10.7375
" />
<path d="M31.0790 10.7375
L31.1999 10.7979
" />
<path d="M31.1999 10.7979
L31.2604 10.8584
" />
<path d="M31.2604 10.8584
L31.3209 10.9794
" />
<path d="M31.3209 10.9794
L31.3209 11.3422
" />
<path d="M31.3209 11.3422
L31.2604 11.4632
" />
<path d="M31.2604 11.4632
L31.1999 11.5237
" />
<path d="M31.1999 11.5237
L31.0790 11.5841
" />
<path d="M31.0790 11.5841
L30.8976 11.5841
" />
<path d="M31.8651 11.5841
L31.8651 10.7375
" />
<path d="M31.8651 10.8584
L31.9256 10.7979
" />
<path d="M31.9256 10.7979
L32.0466 10.7375
" />
<path d="M32.0466 10.7375
L32.2280 10.7375
" />
<path d="M32.2280 10.7375
L32.3489 10.7979
" />
<path d="M32.3489 10.7979
L32.4094 10.9189
" />
<path d="M32.4094 10.9189
L32.4094 11.5841
" />
<path d="M32.4094 10.9189
L32.4699 10.7979
" />
<path d="M32.4699 10.7979
L32.5908 10.7375
" />
<path d="M32.5908 10.7375
L32.7723 10.7375
" />
<path d="M32.7723 10.7375
L32.8932 10.7979
" />
<path d="M32.8932 10.7979
L32.9537 10.9189
" />
<path d="M32.9537 10.9189
L32.9537 11.5841
" />
<path d="M34.4656 10.2537
L33.3770 11.8865
" />
<path d="M35.3727 11.5237
L35.2518 11.5841
" />
<path d="M35.2518 11.5841
L35.0099 11.5841
" />
<path d="M35.0099 11.5841
L34.8889 11.5237
" />
<path d="M34.8889 11.5237
L34.8285 11.4027
" />
<path d="M34.8285 11.4027
L34.8285 10.9189
" />
<path d="M34.8285 10.9189
L34.8889 10.7979
" />
<path d="M34.8889 10.7979
L35.0099 10.7375
" />
<path d="M35.0099 10.7375
L35.2518 10.7375
" />
<path d="M35.2518 10.7375
L35.3727 10.7979
" />
<path d="M35.3727 10.7979
L35.4332 10.9189
" />
<path d="M35.4332 10.9189
L35.4332 11.0398
" />
<path d="M35.4332 11.0398
L34.8285 11.1608
" />
<path d="M35.9775 10.7375
L35.9775 11.5841
" />
<path d="M35.9775 10.8584
L36.0380 10.7979
" />
<path d="M36.0380 10.7979
L36.1590 10.7375
" />
<path d="M36.1590 10.7375
L36.3404 10.7375
" />
<path d="M36.3404 10.7375
L36.4613 10.7979
" />
<path d="M36.4613 10.7979
L36.5218 10.9189
" />
<path d="M36.5218 10.9189
L36.5218 11.5841
" />
<path d="M38.0337 10.2537
L36.9451 11.8865
" />
<path d="M38.4570 10.7375
L38.4570 12.0075
" />
<path d="M38.4570 10.7979
L38.5780 10.7375
" />
<path d="M38.5780 10.7375
L38.8199 10.7375
" />
<path d="M38.8199 10.7375
L38.9408 10.7979
" />
<path d="M38.9408 10.7979
L39.0013 10.8584
" />
<path d="M39.0013 10.8584
L39.0618 10.9794
" />
<path d="M39.0618 10.9794
L39.0618 11.3422
" />
<path d="M39.0618 11.3422
L39.0013 11.4632
" />
<path d="M39.0013 11.4632
L38.9408 11.5237
" />
<path d="M38.9408 11.5237
L38.8199 11.5841
" />
<path d="M38.8199 11.5841
L38.5780 11.5841
" />
<path d="M38.5780 11.5841
L38.4570 11.5237
" />
<path d="M39.6060 11.5841
L39.6060 10.7375
" />
<path d="M39.6060 10.9794
L39.6665 10.8584
" />
<path d="M39.6665 10.8584
L39.7270 10.7979
" />
<path d="M39.7270 10.7979
L39.8479 10.7375
" />
<path d="M39.8479 10.7375
L39.9689 10.7375
" />
<path d="M40.5737 11.5841
L40.4527 11.5237
" />
<path d="M40.4527 11.5237
L40.3922 11.4632
" />
<path d="M40.3922 11.4632
L40.3318 11.3422
" />
<path d="M40.3318 11.3422
L40.3318 10.9794
" />
<path d="M40.3318 10.9794
L40.3922 10.8584
" />
<path d="M40.3922 10.8584
L40.4527 10.7979
" />
<path d="M40.4527 10.7979
L40.5737 10.7375
" />
<path d="M40.5737 10.7375
L40.7551 10.7375
" />
<path d="M40.7551 10.7375
L40.8760 10.7979
" />
<path d="M40.8760 10.7979
L40.9365 10.8584
" />
<path d="M40.9365 10.8584
L40.9970 10.9794
" />
<path d="M40.9970 10.9794
L40.9970 11.3422
" />
<path d="M40.9970 11.3422
L40.9365 11.4632
" />
<path d="M40.9365 11.4632
L40.8760 11.5237
" />
<path d="M40.8760 11.5237
L40.7551 11.5841
" />
<path d="M40.7551 11.5841
L40.5737 11.5841
" />
<path d="M42.0855 11.5841
L42.0855 10.3141
" />
<path d="M42.0855 11.5237
L41.9646 11.5841
" />
<path d="M41.9646 11.5841
L41.7227 11.5841
" />
<path d="M41.7227 11.5841
L41.6017 11.5237
" />
<path d="M41.6017 11.5237
L41.5412 11.4632
" />
<path d="M41.5412 11.4632
L41.4808 11.3422
" />
<path d="M41.4808 11.3422
L41.4808 10.9794
" />
<path d="M41.4808 10.9794
L41.5412 10.8584
" />
<path d="M41.5412 10.8584
L41.6017 10.7979
" />
<path d="M41.6017 10.7979
L41.7227 10.7375
" />
<path d="M41.7227 10.7375
L41.9646 10.7375
" />
<path d="M41.9646 10.7375
L42.0855 10.7979
" />
<path d="M43.2345 10.7375
L43.2345 11.5841
" />
<path d="M42.6902 10.7375
L42.6902 11.4027
" />
<path d="M42.6902 11.4027
L42.7507 11.5237
" />
<path d="M42.7507 11.5237
L42.8717 11.5841
" />
<path d="M42.8717 11.5841
L43.0531 11.5841
" />
<path d="M43.0531 11.5841
L43.1740 11.5237
" />
<path d="M43.1740 11.5237
L43.2345 11.4632
" />
<path d="M44.3835 11.5237
L44.2626 11.5841
" />
<path d="M44.2626 11.5841
L44.0207 11.5841
" />
<path d="M44.0207 11.5841
L43.8997 11.5237
" />
<path d="M43.8997 11.5237
L43.8392 11.4632
" />
<path d="M43.8392 11.4632
L43.7788 11.3422
" />
<path d="M43.7788 11.3422
L43.7788 10.9794
" />
<path d="M43.7788 10.9794
L43.8392 10.8584
" />
<path d="M43.8392 10.8584
L43.8997 10.7979
" />
<path d="M43.8997 10.7979
L44.0207 10.7375
" />
<path d="M44.0207 10.7375
L44.2626 10.7375
" />
<path d="M44.2626 10.7375
L44.3835 10.7979
" />
<path d="M44.7464 10.7375
L45.2302 10.7375
" />
<path d="M44.9278 10.3141
L44.9278 11.4027
" />
<path d="M44.9278 11.4027
L44.9883 11.5237
" />
<path d="M44.9883 11.5237
L45.1093 11.5841
" />
<path d="M45.1093 11.5841
L45.2302 11.5841
" />
<path d="M46.5607 10.2537
L45.4721 11.8865
" />
<path d="M46.9840 10.7375
L46.9840 11.5841
" />
<path d="M46.9840 10.8584
L47.0445 10.7979
" />
<path d="M47.0445 10.7979
L47.1655 10.7375
" />
<path d="M47.1655 10.7375
L47.3469 10.7375
" />
<path d="M47.3469 10.7375
L47.4678 10.7979
" />
<path d="M47.4678 10.7979
L47.5283 10.9189
" />
<path d="M47.5283 10.9189
L47.5283 11.5841
" />
<path d="M48.6773 11.5237
L48.5564 11.5841
" />
<path d="M48.5564 11.5841
L48.3145 11.5841
" />
<path d="M48.3145 11.5841
L48.1935 11.5237
" />
<path d="M48.1935 11.5237
L48.1330 11.4632
" />
<path d="M48.1330 11.4632
L48.0726 11.3422
" />
<path d="M48.0726 11.3422
L48.0726 10.9794
" />
<path d="M48.0726 10.9794
L48.1330 10.8584
" />
<path d="M48.1330 10.8584
L48.1935 10.7979
" />
<path d="M48.1935 10.7979
L48.3145 10.7375
" />
<path d="M48.3145 10.7375
L48.5564 10.7375
" />
<path d="M48.5564 10.7375
L48.6773 10.7979
" />
<path d="M49.1007 10.3141
L49.8869 10.3141
" />
<path d="M49.8869 10.3141
L49.4635 10.7979
" />
<path d="M49.4635 10.7979
L49.6450 10.7979
" />
<path d="M49.6450 10.7979
L49.7659 10.8584
" />
<path d="M49.7659 10.8584
L49.8264 10.9189
" />
<path d="M49.8264 10.9189
L49.8869 11.0398
" />
<path d="M49.8869 11.0398
L49.8869 11.3422
" />
<path d="M49.8869 11.3422
L49.8264 11.4632
" />
<path d="M49.8264 11.4632
L49.7659 11.5237
" />
<path d="M49.7659 11.5237
L49.6450 11.5841
" />
<path d="M49.6450 11.5841
L49.2821 11.5841
" />
<path d="M49.2821 11.5841
L49.1612 11.5237
" />
<path d="M49.1612 11.5237
L49.1007 11.4632
" />
<path d="M50.2497 10.7375
L50.7335 10.7375
" />
<path d="M50.4311 11.5841
L50.4311 10.4956
" />
<path d="M50.4311 10.4956
L50.4916 10.3746
" />
<path d="M50.4916 10.3746
L50.6126 10.3141
" />
<path d="M50.6126 10.3141
L50.7335 10.3141
" />
<path d="M51.1568 11.5841
L51.1568 10.3141
" />
<path d="M51.1568 10.7979
L51.2778 10.7375
" />
<path d="M51.2778 10.7375
L51.5197 10.7375
" />
<path d="M51.5197 10.7375
L51.6406 10.7979
" />
<path d="M51.6406 10.7979
L51.7011 10.8584
" />
<path d="M51.7011 10.8584
L51.7616 10.9794
" />
<path d="M51.7616 10.9794
L51.7616 11.3422
" />
<path d="M51.7616 11.3422
L51.7011 11.4632
" />
<path d="M51.7011 11.4632
L51.6406 11.5237
" />
<path d="M51.6406 11.5237
L51.5197 11.5841
" />
<path d="M51.5197 11.5841
L51.2778 11.5841
" />
<path d="M51.2778 11.5841
L51.1568 11.5237
" />
<path d="M52.3058 11.5841
L52.3058 10.3141
" />
<path d="M52.8501 11.5841
L52.8501 10.9189
" />
<path d="M52.8501 10.9189
L52.7896 10.7979
" />
<path d="M52.7896 10.7979
L52.6687 10.7375
" />
<path d="M52.6687 10.7375
L52.4873 10.7375
" />
<path d="M52.4873 10.7375
L52.3663 10.7979
" />
<path d="M52.3663 10.7979
L52.3058 10.8584
" />
<path d="M53.3944 10.4351
L53.4548 10.3746
" />
<path d="M53.4548 10.3746
L53.5758 10.3141
" />
<path d="M53.5758 10.3141
L53.8782 10.3141
" />
<path d="M53.8782 10.3141
L53.9991 10.3746
" />
<path d="M53.9991 10.3746
L54.0596 10.4351
" />
<path d="M54.0596 10.4351
L54.1201 10.5560
" />
<path d="M54.1201 10.5560
L54.1201 10.6770
" />
<path d="M54.1201 10.6770
L54.0596 10.8584
" />
<path d="M54.0596 10.8584
L53.3339 11.5841
" />
<path d="M53.3339 11.5841
L54.1201 11.5841
" />
</g></g> 
</svg>
