<?xml version="1.0" standalone="no"?>
 <!DOCTYPE svg PUBLIC "-//W3C//DTD SVG 1.1//EN" 
 "http://www.w3.org/Graphics/SVG/1.1/DTD/svg11.dtd"> 
<svg
  xmlns:svg="http://www.w3.org/2000/svg"
  xmlns="http://www.w3.org/2000/svg"
  xmlns:xlink="http://www.w3.org/1999/xlink"
  version="1.1"
  width="139.5222mm" height="30.4800mm" viewBox="0.0000 0.0000 139.5222 30.4800">
<title>SVG Image created as working.svg date 2023/08/13 18:01:37 </title>
  <desc>Image generated by Eeschema-SVG </desc>
<g style="fill:#000000; fill-opacity:1.0000;stroke:#000000; stroke-opacity:1.0000;
stroke-linecap:round; stroke-linejoin:round;"
 transform="translate(0 0) scale(1 1)">
</g>
<g style="fill:#840000; fill-opacity:0.0; 
stroke:#840000; stroke-width:0.0000; stroke-opacity:1; 
stroke-linecap:round; stroke-linejoin:round;">
</g>
<g style="fill:#FFFFC2; fill-opacity:0.0; 
stroke:#FFFFC2; stroke-width:0.0000; stroke-opacity:1; 
stroke-linecap:round; stroke-linejoin:round;">
</g>
<g style="fill:#FFFFC2; fill-opacity:1.0000; 
stroke:#FFFFC2; stroke-width:0.0000; stroke-opacity:1; 
stroke-linecap:round; stroke-linejoin:round;">
<rect x="62.145000" y="5.080100" width="15.240000" height="20.320000" rx="0.000000" />
</g>
<g style="fill:#840084; fill-opacity:1.0000; 
stroke:#840084; stroke-width:0.0000; stroke-opacity:1; 
stroke-linecap:round; stroke-linejoin:round;">
</g>
<g style="fill:#840000; fill-opacity:1.0000; 
stroke:#840000; stroke-width:0.0000; stroke-opacity:1; 
stroke-linecap:round; stroke-linejoin:round;">
</g>
<g style="fill:#840000; fill-opacity:0.0; 
stroke:#840000; stroke-width:0.2540; stroke-opacity:1; 
stroke-linecap:round; stroke-linejoin:round;">
<rect x="62.145000" y="5.080100" width="15.240000" height="20.320000" rx="0.000000" />
</g>
<g style="fill:#840000; fill-opacity:0.0; 
stroke:#840000; stroke-width:0.1524; stroke-opacity:1; 
stroke-linecap:round; stroke-linejoin:round;">
<path d="M69.7650 25.4001
L69.7650 27.9401
" />
</g>
<g style="fill:#006464; fill-opacity:0.0; 
stroke:#006464; stroke-width:0.1524; stroke-opacity:1; 
stroke-linecap:round; stroke-linejoin:round;">
<g transform="rotate(-90.000000 69.7650 24.8921)">
<text x="69.7650" y="25.5271"
textLength="4.0737" font-size="1.6933" lengthAdjust="spacingAndGlyphs"
text-anchor="start" opacity="0">GND</text>
</g>
<g class="stroked-text"><desc>GND</desc>
<path d="M69.1350 23.8242
L69.0745 23.9452
" />
<path d="M69.0745 23.9452
L69.0745 24.1266
" />
<path d="M69.0745 24.1266
L69.1350 24.3080
" />
<path d="M69.1350 24.3080
L69.2560 24.4290
" />
<path d="M69.2560 24.4290
L69.3769 24.4895
" />
<path d="M69.3769 24.4895
L69.6188 24.5499
" />
<path d="M69.6188 24.5499
L69.8002 24.5499
" />
<path d="M69.8002 24.5499
L70.0421 24.4895
" />
<path d="M70.0421 24.4895
L70.1631 24.4290
" />
<path d="M70.1631 24.4290
L70.2841 24.3080
" />
<path d="M70.2841 24.3080
L70.3445 24.1266
" />
<path d="M70.3445 24.1266
L70.3445 24.0057
" />
<path d="M70.3445 24.0057
L70.2841 23.8242
" />
<path d="M70.2841 23.8242
L70.2236 23.7638
" />
<path d="M70.2236 23.7638
L69.8002 23.7638
" />
<path d="M69.8002 23.7638
L69.8002 24.0057
" />
<path d="M70.3445 23.2195
L69.0745 23.2195
" />
<path d="M69.0745 23.2195
L70.3445 22.4938
" />
<path d="M70.3445 22.4938
L69.0745 22.4938
" />
<path d="M70.3445 21.8890
L69.0745 21.8890
" />
<path d="M69.0745 21.8890
L69.0745 21.5866
" />
<path d="M69.0745 21.5866
L69.1350 21.4052
" />
<path d="M69.1350 21.4052
L69.2560 21.2842
" />
<path d="M69.2560 21.2842
L69.3769 21.2237
" />
<path d="M69.3769 21.2237
L69.6188 21.1633
" />
<path d="M69.6188 21.1633
L69.8002 21.1633
" />
<path d="M69.8002 21.1633
L70.0421 21.2237
" />
<path d="M70.0421 21.2237
L70.1631 21.2842
" />
<path d="M70.1631 21.2842
L70.2841 21.4052
" />
<path d="M70.2841 21.4052
L70.3445 21.5866
" />
<path d="M70.3445 21.5866
L70.3445 21.8890
" />
</g></g>
<g style="fill:#A90000; fill-opacity:0.0; 
stroke:#A90000; stroke-width:0.1524; stroke-opacity:1; 
stroke-linecap:round; stroke-linejoin:round;">
<g transform="rotate(-90.000000 69.5110 26.6701)">
<text x="69.5110" y="26.6701"
textLength="1.4127" font-size="1.6933" lengthAdjust="spacingAndGlyphs"
text-anchor="middle" opacity="0">1</text>
</g>
<g class="stroked-text"><desc>1</desc>
<path d="M69.3475 26.3071
L69.3475 27.0328
" />
<path d="M69.3475 26.6700
L68.0775 26.6700
" />
<path d="M68.0775 26.6700
L68.2590 26.7909
" />
<path d="M68.2590 26.7909
L68.3799 26.9119
" />
<path d="M68.3799 26.9119
L68.4404 27.0328
" />
</g></g>
<g style="fill:#840000; fill-opacity:0.0; 
stroke:#840000; stroke-width:0.1524; stroke-opacity:1; 
stroke-linecap:round; stroke-linejoin:round;">
<path d="M62.1450 15.2401
L59.6050 15.2401
" />
</g>
<g style="fill:#006464; fill-opacity:0.0; 
stroke:#006464; stroke-width:0.1524; stroke-opacity:1; 
stroke-linecap:round; stroke-linejoin:round;">
<text x="62.6530" y="15.8751"
textLength="6.1299" font-size="1.6933" lengthAdjust="spacingAndGlyphs"
text-anchor="start" opacity="0">ICOMP</text>
<g class="stroked-text"><desc>ICOMP</desc>
<path d="M63.0555 15.8196
L63.0555 14.5496
" />
<path d="M64.3860 15.6987
L64.3256 15.7592
" />
<path d="M64.3256 15.7592
L64.1441 15.8196
" />
<path d="M64.1441 15.8196
L64.0232 15.8196
" />
<path d="M64.0232 15.8196
L63.8418 15.7592
" />
<path d="M63.8418 15.7592
L63.7208 15.6382
" />
<path d="M63.7208 15.6382
L63.6603 15.5172
" />
<path d="M63.6603 15.5172
L63.5999 15.2753
" />
<path d="M63.5999 15.2753
L63.5999 15.0939
" />
<path d="M63.5999 15.0939
L63.6603 14.8520
" />
<path d="M63.6603 14.8520
L63.7208 14.7311
" />
<path d="M63.7208 14.7311
L63.8418 14.6101
" />
<path d="M63.8418 14.6101
L64.0232 14.5496
" />
<path d="M64.0232 14.5496
L64.1441 14.5496
" />
<path d="M64.1441 14.5496
L64.3256 14.6101
" />
<path d="M64.3256 14.6101
L64.3860 14.6706
" />
<path d="M65.1722 14.5496
L65.4141 14.5496
" />
<path d="M65.4141 14.5496
L65.5351 14.6101
" />
<path d="M65.5351 14.6101
L65.6560 14.7311
" />
<path d="M65.6560 14.7311
L65.7165 14.9730
" />
<path d="M65.7165 14.9730
L65.7165 15.3963
" />
<path d="M65.7165 15.3963
L65.6560 15.6382
" />
<path d="M65.6560 15.6382
L65.5351 15.7592
" />
<path d="M65.5351 15.7592
L65.4141 15.8196
" />
<path d="M65.4141 15.8196
L65.1722 15.8196
" />
<path d="M65.1722 15.8196
L65.0513 15.7592
" />
<path d="M65.0513 15.7592
L64.9303 15.6382
" />
<path d="M64.9303 15.6382
L64.8699 15.3963
" />
<path d="M64.8699 15.3963
L64.8699 14.9730
" />
<path d="M64.8699 14.9730
L64.9303 14.7311
" />
<path d="M64.9303 14.7311
L65.0513 14.6101
" />
<path d="M65.0513 14.6101
L65.1722 14.5496
" />
<path d="M66.2608 15.8196
L66.2608 14.5496
" />
<path d="M66.2608 14.5496
L66.6842 15.4568
" />
<path d="M66.6842 15.4568
L67.1075 14.5496
" />
<path d="M67.1075 14.5496
L67.1075 15.8196
" />
<path d="M67.7122 15.8196
L67.7122 14.5496
" />
<path d="M67.7122 14.5496
L68.1960 14.5496
" />
<path d="M68.1960 14.5496
L68.3170 14.6101
" />
<path d="M68.3170 14.6101
L68.3775 14.6706
" />
<path d="M68.3775 14.6706
L68.4379 14.7915
" />
<path d="M68.4379 14.7915
L68.4379 14.9730
" />
<path d="M68.4379 14.9730
L68.3775 15.0939
" />
<path d="M68.3775 15.0939
L68.3170 15.1544
" />
<path d="M68.3170 15.1544
L68.1960 15.2149
" />
<path d="M68.1960 15.2149
L67.7122 15.2149
" />
</g></g>
<g style="fill:#A90000; fill-opacity:0.0; 
stroke:#A90000; stroke-width:0.1524; stroke-opacity:1; 
stroke-linecap:round; stroke-linejoin:round;">
<text x="60.8750" y="14.9861"
textLength="1.4127" font-size="1.6933" lengthAdjust="spacingAndGlyphs"
text-anchor="middle" opacity="0">2</text>
<g class="stroked-text"><desc>2</desc>
<path d="M60.5122 13.6736
L60.5726 13.6131
" />
<path d="M60.5726 13.6131
L60.6936 13.5526
" />
<path d="M60.6936 13.5526
L60.9960 13.5526
" />
<path d="M60.9960 13.5526
L61.1169 13.6131
" />
<path d="M61.1169 13.6131
L61.1774 13.6736
" />
<path d="M61.1774 13.6736
L61.2379 13.7945
" />
<path d="M61.2379 13.7945
L61.2379 13.9155
" />
<path d="M61.2379 13.9155
L61.1774 14.0969
" />
<path d="M61.1774 14.0969
L60.4517 14.8226
" />
<path d="M60.4517 14.8226
L61.2379 14.8226
" />
</g></g>
<g style="fill:#840000; fill-opacity:0.0; 
stroke:#840000; stroke-width:0.1524; stroke-opacity:1; 
stroke-linecap:round; stroke-linejoin:round;">
<path d="M62.1450 10.1601
L59.6050 10.1601
" />
</g>
<g style="fill:#006464; fill-opacity:0.0; 
stroke:#006464; stroke-width:0.1524; stroke-opacity:1; 
stroke-linecap:round; stroke-linejoin:round;">
<text x="62.6530" y="10.7951"
textLength="6.8555" font-size="1.6933" lengthAdjust="spacingAndGlyphs"
text-anchor="start" opacity="0">ISENSE</text>
<g class="stroked-text"><desc>ISENSE</desc>
<path d="M63.0555 10.7396
L63.0555 9.4696
" />
<path d="M63.5999 10.6792
L63.7813 10.7396
" />
<path d="M63.7813 10.7396
L64.0837 10.7396
" />
<path d="M64.0837 10.7396
L64.2046 10.6792
" />
<path d="M64.2046 10.6792
L64.2651 10.6187
" />
<path d="M64.2651 10.6187
L64.3256 10.4977
" />
<path d="M64.3256 10.4977
L64.3256 10.3768
" />
<path d="M64.3256 10.3768
L64.2651 10.2558
" />
<path d="M64.2651 10.2558
L64.2046 10.1953
" />
<path d="M64.2046 10.1953
L64.0837 10.1349
" />
<path d="M64.0837 10.1349
L63.8418 10.0744
" />
<path d="M63.8418 10.0744
L63.7208 10.0139
" />
<path d="M63.7208 10.0139
L63.6603 9.9534
" />
<path d="M63.6603 9.9534
L63.5999 9.8325
" />
<path d="M63.5999 9.8325
L63.5999 9.7115
" />
<path d="M63.5999 9.7115
L63.6603 9.5906
" />
<path d="M63.6603 9.5906
L63.7208 9.5301
" />
<path d="M63.7208 9.5301
L63.8418 9.4696
" />
<path d="M63.8418 9.4696
L64.1441 9.4696
" />
<path d="M64.1441 9.4696
L64.3256 9.5301
" />
<path d="M64.8698 10.0744
L65.2932 10.0744
" />
<path d="M65.4746 10.7396
L64.8698 10.7396
" />
<path d="M64.8698 10.7396
L64.8698 9.4696
" />
<path d="M64.8698 9.4696
L65.4746 9.4696
" />
<path d="M66.0188 10.7396
L66.0188 9.4696
" />
<path d="M66.0188 9.4696
L66.7445 10.7396
" />
<path d="M66.7445 10.7396
L66.7445 9.4696
" />
<path d="M67.2889 10.6792
L67.4703 10.7396
" />
<path d="M67.4703 10.7396
L67.7727 10.7396
" />
<path d="M67.7727 10.7396
L67.8936 10.6792
" />
<path d="M67.8936 10.6792
L67.9541 10.6187
" />
<path d="M67.9541 10.6187
L68.0146 10.4977
" />
<path d="M68.0146 10.4977
L68.0146 10.3768
" />
<path d="M68.0146 10.3768
L67.9541 10.2558
" />
<path d="M67.9541 10.2558
L67.8936 10.1953
" />
<path d="M67.8936 10.1953
L67.7727 10.1349
" />
<path d="M67.7727 10.1349
L67.5308 10.0744
" />
<path d="M67.5308 10.0744
L67.4098 10.0139
" />
<path d="M67.4098 10.0139
L67.3493 9.9534
" />
<path d="M67.3493 9.9534
L67.2889 9.8325
" />
<path d="M67.2889 9.8325
L67.2889 9.7115
" />
<path d="M67.2889 9.7115
L67.3493 9.5906
" />
<path d="M67.3493 9.5906
L67.4098 9.5301
" />
<path d="M67.4098 9.5301
L67.5308 9.4696
" />
<path d="M67.5308 9.4696
L67.8331 9.4696
" />
<path d="M67.8331 9.4696
L68.0146 9.5301
" />
<path d="M68.5588 10.0744
L68.9822 10.0744
" />
<path d="M69.1636 10.7396
L68.5588 10.7396
" />
<path d="M68.5588 10.7396
L68.5588 9.4696
" />
<path d="M68.5588 9.4696
L69.1636 9.4696
" />
</g></g>
<g style="fill:#A90000; fill-opacity:0.0; 
stroke:#A90000; stroke-width:0.1524; stroke-opacity:1; 
stroke-linecap:round; stroke-linejoin:round;">
<text x="60.8750" y="9.9061"
textLength="1.4127" font-size="1.6933" lengthAdjust="spacingAndGlyphs"
text-anchor="middle" opacity="0">3</text>
<g class="stroked-text"><desc>3</desc>
<path d="M60.4517 8.4726
L61.2379 8.4726
" />
<path d="M61.2379 8.4726
L60.8145 8.9564
" />
<path d="M60.8145 8.9564
L60.9960 8.9564
" />
<path d="M60.9960 8.9564
L61.1169 9.0169
" />
<path d="M61.1169 9.0169
L61.1774 9.0774
" />
<path d="M61.1774 9.0774
L61.2379 9.1983
" />
<path d="M61.2379 9.1983
L61.2379 9.5007
" />
<path d="M61.2379 9.5007
L61.1774 9.6217
" />
<path d="M61.1774 9.6217
L61.1169 9.6822
" />
<path d="M61.1169 9.6822
L60.9960 9.7426
" />
<path d="M60.9960 9.7426
L60.6331 9.7426
" />
<path d="M60.6331 9.7426
L60.5122 9.6822
" />
<path d="M60.5122 9.6822
L60.4517 9.6217
" />
</g></g>
<g style="fill:#840000; fill-opacity:0.0; 
stroke:#840000; stroke-width:0.1524; stroke-opacity:1; 
stroke-linecap:round; stroke-linejoin:round;">
<path d="M62.1450 17.7801
L59.6050 17.7801
" />
</g>
<g style="fill:#006464; fill-opacity:0.0; 
stroke:#006464; stroke-width:0.1524; stroke-opacity:1; 
stroke-linecap:round; stroke-linejoin:round;">
<text x="62.6530" y="18.4151"
textLength="5.0413" font-size="1.6933" lengthAdjust="spacingAndGlyphs"
text-anchor="start" opacity="0">FREQ</text>
<g class="stroked-text"><desc>FREQ</desc>
<path d="M63.4789 17.6944
L63.0555 17.6944
" />
<path d="M63.0555 18.3596
L63.0555 17.0896
" />
<path d="M63.0555 17.0896
L63.6603 17.0896
" />
<path d="M64.8698 18.3596
L64.4465 17.7549
" />
<path d="M64.1441 18.3596
L64.1441 17.0896
" />
<path d="M64.1441 17.0896
L64.6279 17.0896
" />
<path d="M64.6279 17.0896
L64.7489 17.1501
" />
<path d="M64.7489 17.1501
L64.8094 17.2106
" />
<path d="M64.8094 17.2106
L64.8698 17.3315
" />
<path d="M64.8698 17.3315
L64.8698 17.5130
" />
<path d="M64.8698 17.5130
L64.8094 17.6339
" />
<path d="M64.8094 17.6339
L64.7489 17.6944
" />
<path d="M64.7489 17.6944
L64.6279 17.7549
" />
<path d="M64.6279 17.7549
L64.1441 17.7549
" />
<path d="M65.4141 17.6944
L65.8375 17.6944
" />
<path d="M66.0189 18.3596
L65.4141 18.3596
" />
<path d="M65.4141 18.3596
L65.4141 17.0896
" />
<path d="M65.4141 17.0896
L66.0189 17.0896
" />
<path d="M67.4098 18.4806
L67.2888 18.4201
" />
<path d="M67.2888 18.4201
L67.1679 18.2992
" />
<path d="M67.1679 18.2992
L66.9865 18.1177
" />
<path d="M66.9865 18.1177
L66.8655 18.0572
" />
<path d="M66.8655 18.0572
L66.7446 18.0572
" />
<path d="M66.8050 18.3596
L66.6841 18.2992
" />
<path d="M66.6841 18.2992
L66.5631 18.1782
" />
<path d="M66.5631 18.1782
L66.5027 17.9363
" />
<path d="M66.5027 17.9363
L66.5027 17.5130
" />
<path d="M66.5027 17.5130
L66.5631 17.2711
" />
<path d="M66.5631 17.2711
L66.6841 17.1501
" />
<path d="M66.6841 17.1501
L66.8050 17.0896
" />
<path d="M66.8050 17.0896
L67.0469 17.0896
" />
<path d="M67.0469 17.0896
L67.1679 17.1501
" />
<path d="M67.1679 17.1501
L67.2888 17.2711
" />
<path d="M67.2888 17.2711
L67.3493 17.5130
" />
<path d="M67.3493 17.5130
L67.3493 17.9363
" />
<path d="M67.3493 17.9363
L67.2888 18.1782
" />
<path d="M67.2888 18.1782
L67.1679 18.2992
" />
<path d="M67.1679 18.2992
L67.0469 18.3596
" />
<path d="M67.0469 18.3596
L66.8050 18.3596
" />
</g></g>
<g style="fill:#A90000; fill-opacity:0.0; 
stroke:#A90000; stroke-width:0.1524; stroke-opacity:1; 
stroke-linecap:round; stroke-linejoin:round;">
<text x="60.8750" y="17.5261"
textLength="1.4127" font-size="1.6933" lengthAdjust="spacingAndGlyphs"
text-anchor="middle" opacity="0">4</text>
<g class="stroked-text"><desc>4</desc>
<path d="M61.1169 16.5160
L61.1169 17.3626
" />
<path d="M60.8145 16.0322
L60.5122 16.9393
" />
<path d="M60.5122 16.9393
L61.2983 16.9393
" />
</g></g>
<g style="fill:#840000; fill-opacity:0.0; 
stroke:#840000; stroke-width:0.1524; stroke-opacity:1; 
stroke-linecap:round; stroke-linejoin:round;">
<path d="M62.1450 20.3201
L59.6050 20.3201
" />
</g>
<g style="fill:#006464; fill-opacity:0.0; 
stroke:#006464; stroke-width:0.1524; stroke-opacity:1; 
stroke-linecap:round; stroke-linejoin:round;">
<text x="62.6530" y="20.9551"
textLength="6.6137" font-size="1.6933" lengthAdjust="spacingAndGlyphs"
text-anchor="start" opacity="0">VCOMP</text>
<g class="stroked-text"><desc>VCOMP</desc>
<path d="M62.8741 19.6296
L63.2974 20.8996
" />
<path d="M63.2974 20.8996
L63.7208 19.6296
" />
<path d="M64.8698 20.7787
L64.8094 20.8392
" />
<path d="M64.8094 20.8392
L64.6279 20.8996
" />
<path d="M64.6279 20.8996
L64.5070 20.8996
" />
<path d="M64.5070 20.8996
L64.3256 20.8392
" />
<path d="M64.3256 20.8392
L64.2046 20.7182
" />
<path d="M64.2046 20.7182
L64.1441 20.5972
" />
<path d="M64.1441 20.5972
L64.0837 20.3553
" />
<path d="M64.0837 20.3553
L64.0837 20.1739
" />
<path d="M64.0837 20.1739
L64.1441 19.9320
" />
<path d="M64.1441 19.9320
L64.2046 19.8111
" />
<path d="M64.2046 19.8111
L64.3256 19.6901
" />
<path d="M64.3256 19.6901
L64.5070 19.6296
" />
<path d="M64.5070 19.6296
L64.6279 19.6296
" />
<path d="M64.6279 19.6296
L64.8094 19.6901
" />
<path d="M64.8094 19.6901
L64.8698 19.7506
" />
<path d="M65.6560 19.6296
L65.8979 19.6296
" />
<path d="M65.8979 19.6296
L66.0189 19.6901
" />
<path d="M66.0189 19.6901
L66.1398 19.8111
" />
<path d="M66.1398 19.8111
L66.2003 20.0530
" />
<path d="M66.2003 20.0530
L66.2003 20.4763
" />
<path d="M66.2003 20.4763
L66.1398 20.7182
" />
<path d="M66.1398 20.7182
L66.0189 20.8392
" />
<path d="M66.0189 20.8392
L65.8979 20.8996
" />
<path d="M65.8979 20.8996
L65.6560 20.8996
" />
<path d="M65.6560 20.8996
L65.5351 20.8392
" />
<path d="M65.5351 20.8392
L65.4141 20.7182
" />
<path d="M65.4141 20.7182
L65.3537 20.4763
" />
<path d="M65.3537 20.4763
L65.3537 20.0530
" />
<path d="M65.3537 20.0530
L65.4141 19.8111
" />
<path d="M65.4141 19.8111
L65.5351 19.6901
" />
<path d="M65.5351 19.6901
L65.6560 19.6296
" />
<path d="M66.7446 20.8996
L66.7446 19.6296
" />
<path d="M66.7446 19.6296
L67.1680 20.5368
" />
<path d="M67.1680 20.5368
L67.5913 19.6296
" />
<path d="M67.5913 19.6296
L67.5913 20.8996
" />
<path d="M68.1960 20.8996
L68.1960 19.6296
" />
<path d="M68.1960 19.6296
L68.6798 19.6296
" />
<path d="M68.6798 19.6296
L68.8008 19.6901
" />
<path d="M68.8008 19.6901
L68.8613 19.7506
" />
<path d="M68.8613 19.7506
L68.9217 19.8715
" />
<path d="M68.9217 19.8715
L68.9217 20.0530
" />
<path d="M68.9217 20.0530
L68.8613 20.1739
" />
<path d="M68.8613 20.1739
L68.8008 20.2344
" />
<path d="M68.8008 20.2344
L68.6798 20.2949
" />
<path d="M68.6798 20.2949
L68.1960 20.2949
" />
</g></g>
<g style="fill:#A90000; fill-opacity:0.0; 
stroke:#A90000; stroke-width:0.1524; stroke-opacity:1; 
stroke-linecap:round; stroke-linejoin:round;">
<text x="60.8750" y="20.0661"
textLength="1.4127" font-size="1.6933" lengthAdjust="spacingAndGlyphs"
text-anchor="middle" opacity="0">5</text>
<g class="stroked-text"><desc>5</desc>
<path d="M61.1774 18.6326
L60.5726 18.6326
" />
<path d="M60.5726 18.6326
L60.5122 19.2374
" />
<path d="M60.5122 19.2374
L60.5726 19.1769
" />
<path d="M60.5726 19.1769
L60.6936 19.1164
" />
<path d="M60.6936 19.1164
L60.9960 19.1164
" />
<path d="M60.9960 19.1164
L61.1169 19.1769
" />
<path d="M61.1169 19.1769
L61.1774 19.2374
" />
<path d="M61.1774 19.2374
L61.2379 19.3583
" />
<path d="M61.2379 19.3583
L61.2379 19.6607
" />
<path d="M61.2379 19.6607
L61.1774 19.7817
" />
<path d="M61.1774 19.7817
L61.1169 19.8422
" />
<path d="M61.1169 19.8422
L60.9960 19.9026
" />
<path d="M60.9960 19.9026
L60.6936 19.9026
" />
<path d="M60.6936 19.9026
L60.5726 19.8422
" />
<path d="M60.5726 19.8422
L60.5122 19.7817
" />
</g></g>
<g style="fill:#840000; fill-opacity:0.0; 
stroke:#840000; stroke-width:0.1524; stroke-opacity:1; 
stroke-linecap:round; stroke-linejoin:round;">
<path d="M77.3850 12.7001
L79.9250 12.7001
" />
</g>
<g style="fill:#006464; fill-opacity:0.0; 
stroke:#006464; stroke-width:0.1524; stroke-opacity:1; 
stroke-linecap:round; stroke-linejoin:round;">
<text x="76.8770" y="13.3351"
textLength="7.3393" font-size="1.6933" lengthAdjust="spacingAndGlyphs"
text-anchor="end" opacity="0">VSENSE</text>
<g class="stroked-text"><desc>VSENSE</desc>
<path d="M69.7616 12.0096
L70.1849 13.2796
" />
<path d="M70.1849 13.2796
L70.6083 12.0096
" />
<path d="M70.9712 13.2192
L71.1526 13.2796
" />
<path d="M71.1526 13.2796
L71.4550 13.2796
" />
<path d="M71.4550 13.2796
L71.5759 13.2192
" />
<path d="M71.5759 13.2192
L71.6364 13.1587
" />
<path d="M71.6364 13.1587
L71.6969 13.0377
" />
<path d="M71.6969 13.0377
L71.6969 12.9168
" />
<path d="M71.6969 12.9168
L71.6364 12.7958
" />
<path d="M71.6364 12.7958
L71.5759 12.7353
" />
<path d="M71.5759 12.7353
L71.4550 12.6749
" />
<path d="M71.4550 12.6749
L71.2131 12.6144
" />
<path d="M71.2131 12.6144
L71.0921 12.5539
" />
<path d="M71.0921 12.5539
L71.0316 12.4934
" />
<path d="M71.0316 12.4934
L70.9712 12.3725
" />
<path d="M70.9712 12.3725
L70.9712 12.2515
" />
<path d="M70.9712 12.2515
L71.0316 12.1306
" />
<path d="M71.0316 12.1306
L71.0921 12.0701
" />
<path d="M71.0921 12.0701
L71.2131 12.0096
" />
<path d="M71.2131 12.0096
L71.5154 12.0096
" />
<path d="M71.5154 12.0096
L71.6969 12.0701
" />
<path d="M72.2411 12.6144
L72.6645 12.6144
" />
<path d="M72.8459 13.2796
L72.2411 13.2796
" />
<path d="M72.2411 13.2796
L72.2411 12.0096
" />
<path d="M72.2411 12.0096
L72.8459 12.0096
" />
<path d="M73.3901 13.2796
L73.3901 12.0096
" />
<path d="M73.3901 12.0096
L74.1158 13.2796
" />
<path d="M74.1158 13.2796
L74.1158 12.0096
" />
<path d="M74.6602 13.2192
L74.8416 13.2796
" />
<path d="M74.8416 13.2796
L75.1440 13.2796
" />
<path d="M75.1440 13.2796
L75.2649 13.2192
" />
<path d="M75.2649 13.2192
L75.3254 13.1587
" />
<path d="M75.3254 13.1587
L75.3859 13.0377
" />
<path d="M75.3859 13.0377
L75.3859 12.9168
" />
<path d="M75.3859 12.9168
L75.3254 12.7958
" />
<path d="M75.3254 12.7958
L75.2649 12.7353
" />
<path d="M75.2649 12.7353
L75.1440 12.6749
" />
<path d="M75.1440 12.6749
L74.9021 12.6144
" />
<path d="M74.9021 12.6144
L74.7811 12.5539
" />
<path d="M74.7811 12.5539
L74.7206 12.4934
" />
<path d="M74.7206 12.4934
L74.6602 12.3725
" />
<path d="M74.6602 12.3725
L74.6602 12.2515
" />
<path d="M74.6602 12.2515
L74.7206 12.1306
" />
<path d="M74.7206 12.1306
L74.7811 12.0701
" />
<path d="M74.7811 12.0701
L74.9021 12.0096
" />
<path d="M74.9021 12.0096
L75.2044 12.0096
" />
<path d="M75.2044 12.0096
L75.3859 12.0701
" />
<path d="M75.9301 12.6144
L76.3535 12.6144
" />
<path d="M76.5349 13.2796
L75.9301 13.2796
" />
<path d="M75.9301 13.2796
L75.9301 12.0096
" />
<path d="M75.9301 12.0096
L76.5349 12.0096
" />
</g></g>
<g style="fill:#A90000; fill-opacity:0.0; 
stroke:#A90000; stroke-width:0.1524; stroke-opacity:1; 
stroke-linecap:round; stroke-linejoin:round;">
<text x="78.6550" y="12.4461"
textLength="1.4127" font-size="1.6933" lengthAdjust="spacingAndGlyphs"
text-anchor="middle" opacity="0">6</text>
<g class="stroked-text"><desc>6</desc>
<path d="M78.8969 11.0126
L78.6550 11.0126
" />
<path d="M78.6550 11.0126
L78.5341 11.0731
" />
<path d="M78.5341 11.0731
L78.4736 11.1336
" />
<path d="M78.4736 11.1336
L78.3526 11.3150
" />
<path d="M78.3526 11.3150
L78.2922 11.5569
" />
<path d="M78.2922 11.5569
L78.2922 12.0407
" />
<path d="M78.2922 12.0407
L78.3526 12.1617
" />
<path d="M78.3526 12.1617
L78.4131 12.2222
" />
<path d="M78.4131 12.2222
L78.5341 12.2826
" />
<path d="M78.5341 12.2826
L78.7760 12.2826
" />
<path d="M78.7760 12.2826
L78.8969 12.2222
" />
<path d="M78.8969 12.2222
L78.9574 12.1617
" />
<path d="M78.9574 12.1617
L79.0179 12.0407
" />
<path d="M79.0179 12.0407
L79.0179 11.7383
" />
<path d="M79.0179 11.7383
L78.9574 11.6174
" />
<path d="M78.9574 11.6174
L78.8969 11.5569
" />
<path d="M78.8969 11.5569
L78.7760 11.4964
" />
<path d="M78.7760 11.4964
L78.5341 11.4964
" />
<path d="M78.5341 11.4964
L78.4131 11.5569
" />
<path d="M78.4131 11.5569
L78.3526 11.6174
" />
<path d="M78.3526 11.6174
L78.2922 11.7383
" />
</g></g>
<g style="fill:#840000; fill-opacity:0.0; 
stroke:#840000; stroke-width:0.1524; stroke-opacity:1; 
stroke-linecap:round; stroke-linejoin:round;">
<path d="M69.7650 5.0801
L69.7650 2.5401
" />
</g>
<g style="fill:#006464; fill-opacity:0.0; 
stroke:#006464; stroke-width:0.1524; stroke-opacity:1; 
stroke-linecap:round; stroke-linejoin:round;">
<g transform="rotate(-90.000000 69.7650 5.5881)">
<text x="69.7650" y="6.2231"
textLength="3.8318" font-size="1.6933" lengthAdjust="spacingAndGlyphs"
text-anchor="end" opacity="0">VCC</text>
</g>
<g class="stroked-text"><desc>VCC</desc>
<path d="M69.0745 9.1959
L70.3445 8.7726
" />
<path d="M70.3445 8.7726
L69.0745 8.3492
" />
<path d="M70.2236 7.2002
L70.2841 7.2606
" />
<path d="M70.2841 7.2606
L70.3445 7.4421
" />
<path d="M70.3445 7.4421
L70.3445 7.5630
" />
<path d="M70.3445 7.5630
L70.2841 7.7444
" />
<path d="M70.2841 7.7444
L70.1631 7.8654
" />
<path d="M70.1631 7.8654
L70.0421 7.9259
" />
<path d="M70.0421 7.9259
L69.8002 7.9863
" />
<path d="M69.8002 7.9863
L69.6188 7.9863
" />
<path d="M69.6188 7.9863
L69.3769 7.9259
" />
<path d="M69.3769 7.9259
L69.2560 7.8654
" />
<path d="M69.2560 7.8654
L69.1350 7.7444
" />
<path d="M69.1350 7.7444
L69.0745 7.5630
" />
<path d="M69.0745 7.5630
L69.0745 7.4421
" />
<path d="M69.0745 7.4421
L69.1350 7.2606
" />
<path d="M69.1350 7.2606
L69.1955 7.2002
" />
<path d="M70.2236 5.9302
L70.2841 5.9906
" />
<path d="M70.2841 5.9906
L70.3445 6.1721
" />
<path d="M70.3445 6.1721
L70.3445 6.2930
" />
<path d="M70.3445 6.2930
L70.2841 6.4744
" />
<path d="M70.2841 6.4744
L70.1631 6.5954
" />
<path d="M70.1631 6.5954
L70.0421 6.6559
" />
<path d="M70.0421 6.6559
L69.8002 6.7163
" />
<path d="M69.8002 6.7163
L69.6188 6.7163
" />
<path d="M69.6188 6.7163
L69.3769 6.6559
" />
<path d="M69.3769 6.6559
L69.2560 6.5954
" />
<path d="M69.2560 6.5954
L69.1350 6.4744
" />
<path d="M69.1350 6.4744
L69.0745 6.2930
" />
<path d="M69.0745 6.2930
L69.0745 6.1721
" />
<path d="M69.0745 6.1721
L69.1350 5.9906
" />
<path d="M69.1350 5.9906
L69.1955 5.9302
" />
</g></g>
<g style="fill:#A90000; fill-opacity:0.0; 
stroke:#A90000; stroke-width:0.1524; stroke-opacity:1; 
stroke-linecap:round; stroke-linejoin:round;">
<g transform="rotate(-90.000000 69.5110 3.8101)">
<text x="69.5110" y="3.8101"
textLength="1.4127" font-size="1.6933" lengthAdjust="spacingAndGlyphs"
text-anchor="middle" opacity="0">7</text>
</g>
<g class="stroked-text"><desc>7</desc>
<path d="M68.0775 4.2333
L68.0775 3.3867
" />
<path d="M68.0775 3.3867
L69.3475 3.9309
" />
</g></g>
<g style="fill:#840000; fill-opacity:0.0; 
stroke:#840000; stroke-width:0.1524; stroke-opacity:1; 
stroke-linecap:round; stroke-linejoin:round;">
<path d="M77.3850 17.7801
L79.9250 17.7801
" />
</g>
<g style="fill:#006464; fill-opacity:0.0; 
stroke:#006464; stroke-width:0.1524; stroke-opacity:1; 
stroke-linecap:round; stroke-linejoin:round;">
<text x="76.8770" y="18.4151"
textLength="4.6784" font-size="1.6933" lengthAdjust="spacingAndGlyphs"
text-anchor="end" opacity="0">GATE</text>
<g class="stroked-text"><desc>GATE</desc>
<path d="M73.2692 17.1501
L73.1482 17.0896
" />
<path d="M73.1482 17.0896
L72.9668 17.0896
" />
<path d="M72.9668 17.0896
L72.7854 17.1501
" />
<path d="M72.7854 17.1501
L72.6644 17.2711
" />
<path d="M72.6644 17.2711
L72.6039 17.3920
" />
<path d="M72.6039 17.3920
L72.5435 17.6339
" />
<path d="M72.5435 17.6339
L72.5435 17.8153
" />
<path d="M72.5435 17.8153
L72.6039 18.0572
" />
<path d="M72.6039 18.0572
L72.6644 18.1782
" />
<path d="M72.6644 18.1782
L72.7854 18.2992
" />
<path d="M72.7854 18.2992
L72.9668 18.3596
" />
<path d="M72.9668 18.3596
L73.0877 18.3596
" />
<path d="M73.0877 18.3596
L73.2692 18.2992
" />
<path d="M73.2692 18.2992
L73.3296 18.2387
" />
<path d="M73.3296 18.2387
L73.3296 17.8153
" />
<path d="M73.3296 17.8153
L73.0877 17.8153
" />
<path d="M73.8135 17.9968
L74.4182 17.9968
" />
<path d="M73.6925 18.3596
L74.1158 17.0896
" />
<path d="M74.1158 17.0896
L74.5392 18.3596
" />
<path d="M74.7811 17.0896
L75.5068 17.0896
" />
<path d="M75.1440 18.3596
L75.1440 17.0896
" />
<path d="M75.9301 17.6944
L76.3535 17.6944
" />
<path d="M76.5349 18.3596
L75.9301 18.3596
" />
<path d="M75.9301 18.3596
L75.9301 17.0896
" />
<path d="M75.9301 17.0896
L76.5349 17.0896
" />
</g></g>
<g style="fill:#A90000; fill-opacity:0.0; 
stroke:#A90000; stroke-width:0.1524; stroke-opacity:1; 
stroke-linecap:round; stroke-linejoin:round;">
<text x="78.6550" y="17.5261"
textLength="1.4127" font-size="1.6933" lengthAdjust="spacingAndGlyphs"
text-anchor="middle" opacity="0">8</text>
<g class="stroked-text"><desc>8</desc>
<path d="M78.5341 16.6369
L78.4131 16.5764
" />
<path d="M78.4131 16.5764
L78.3526 16.5160
" />
<path d="M78.3526 16.5160
L78.2922 16.3950
" />
<path d="M78.2922 16.3950
L78.2922 16.3345
" />
<path d="M78.2922 16.3345
L78.3526 16.2136
" />
<path d="M78.3526 16.2136
L78.4131 16.1531
" />
<path d="M78.4131 16.1531
L78.5341 16.0926
" />
<path d="M78.5341 16.0926
L78.7760 16.0926
" />
<path d="M78.7760 16.0926
L78.8969 16.1531
" />
<path d="M78.8969 16.1531
L78.9574 16.2136
" />
<path d="M78.9574 16.2136
L79.0179 16.3345
" />
<path d="M79.0179 16.3345
L79.0179 16.3950
" />
<path d="M79.0179 16.3950
L78.9574 16.5160
" />
<path d="M78.9574 16.5160
L78.8969 16.5764
" />
<path d="M78.8969 16.5764
L78.7760 16.6369
" />
<path d="M78.7760 16.6369
L78.5341 16.6369
" />
<path d="M78.5341 16.6369
L78.4131 16.6974
" />
<path d="M78.4131 16.6974
L78.3526 16.7579
" />
<path d="M78.3526 16.7579
L78.2922 16.8788
" />
<path d="M78.2922 16.8788
L78.2922 17.1207
" />
<path d="M78.2922 17.1207
L78.3526 17.2417
" />
<path d="M78.3526 17.2417
L78.4131 17.3022
" />
<path d="M78.4131 17.3022
L78.5341 17.3626
" />
<path d="M78.5341 17.3626
L78.7760 17.3626
" />
<path d="M78.7760 17.3626
L78.8969 17.3022
" />
<path d="M78.8969 17.3022
L78.9574 17.2417
" />
<path d="M78.9574 17.2417
L79.0179 17.1207
" />
<path d="M79.0179 17.1207
L79.0179 16.8788
" />
<path d="M79.0179 16.8788
L78.9574 16.7579
" />
<path d="M78.9574 16.7579
L78.8969 16.6974
" />
<path d="M78.8969 16.6974
L78.7760 16.6369
" />
</g></g>
<g style="fill:#840084; fill-opacity:0.0; 
stroke:#840084; stroke-width:0.1524; stroke-opacity:1; 
stroke-linecap:round; stroke-linejoin:round;">
</g>
<g style="fill:#006464; fill-opacity:0.0; 
stroke:#006464; stroke-width:0.1524; stroke-opacity:1; 
stroke-linecap:round; stroke-linejoin:round;">
</g>
<g style="fill:#006464; fill-opacity:0.0; 
stroke:#006464; stroke-width:0.1588; stroke-opacity:1; 
stroke-linecap:round; stroke-linejoin:round;">
<text x="63.4657" y="4.4451"
textLength="2.6415" font-size="1.6933" lengthAdjust="spacingAndGlyphs"
text-anchor="middle" opacity="0">U?</text>
<g class="stroked-text"><desc>U?</desc>
<path d="M62.5585 3.1193
L62.5585 4.1474
" />
<path d="M62.5585 4.1474
L62.6190 4.2684
" />
<path d="M62.6190 4.2684
L62.6795 4.3289
" />
<path d="M62.6795 4.3289
L62.8004 4.3893
" />
<path d="M62.8004 4.3893
L63.0423 4.3893
" />
<path d="M63.0423 4.3893
L63.1633 4.3289
" />
<path d="M63.1633 4.3289
L63.2238 4.2684
" />
<path d="M63.2238 4.2684
L63.2842 4.1474
" />
<path d="M63.2842 4.1474
L63.2842 3.1193
" />
<path d="M64.0705 4.2684
L64.1309 4.3289
" />
<path d="M64.1309 4.3289
L64.0705 4.3893
" />
<path d="M64.0705 4.3893
L64.0100 4.3289
" />
<path d="M64.0100 4.3289
L64.0705 4.2684
" />
<path d="M64.0705 4.2684
L64.0705 4.3893
" />
<path d="M63.8286 3.1798
L63.9495 3.1193
" />
<path d="M63.9495 3.1193
L64.2519 3.1193
" />
<path d="M64.2519 3.1193
L64.3728 3.1798
" />
<path d="M64.3728 3.1798
L64.4333 3.3008
" />
<path d="M64.4333 3.3008
L64.4333 3.4217
" />
<path d="M64.4333 3.4217
L64.3728 3.5427
" />
<path d="M64.3728 3.5427
L64.3124 3.6031
" />
<path d="M64.3124 3.6031
L64.1914 3.6636
" />
<path d="M64.1914 3.6636
L64.1309 3.7241
" />
<path d="M64.1309 3.7241
L64.0705 3.8450
" />
<path d="M64.0705 3.8450
L64.0705 3.9055
" />
</g><text x="76.3471" y="4.4451"
textLength="10.6242" font-size="1.6933" lengthAdjust="spacingAndGlyphs"
text-anchor="middle" opacity="0">ICE1PCS01</text>
<g class="stroked-text"><desc>ICE1PCS01</desc>
<path d="M71.4485 4.3893
L71.4485 3.1193
" />
<path d="M72.7790 4.2684
L72.7186 4.3289
" />
<path d="M72.7186 4.3289
L72.5371 4.3893
" />
<path d="M72.5371 4.3893
L72.4162 4.3893
" />
<path d="M72.4162 4.3893
L72.2348 4.3289
" />
<path d="M72.2348 4.3289
L72.1138 4.2079
" />
<path d="M72.1138 4.2079
L72.0533 4.0869
" />
<path d="M72.0533 4.0869
L71.9929 3.8450
" />
<path d="M71.9929 3.8450
L71.9929 3.6636
" />
<path d="M71.9929 3.6636
L72.0533 3.4217
" />
<path d="M72.0533 3.4217
L72.1138 3.3008
" />
<path d="M72.1138 3.3008
L72.2348 3.1798
" />
<path d="M72.2348 3.1798
L72.4162 3.1193
" />
<path d="M72.4162 3.1193
L72.5371 3.1193
" />
<path d="M72.5371 3.1193
L72.7186 3.1798
" />
<path d="M72.7186 3.1798
L72.7790 3.2403
" />
<path d="M73.3233 3.7241
L73.7467 3.7241
" />
<path d="M73.9281 4.3893
L73.3233 4.3893
" />
<path d="M73.3233 4.3893
L73.3233 3.1193
" />
<path d="M73.3233 3.1193
L73.9281 3.1193
" />
<path d="M75.1376 4.3893
L74.4119 4.3893
" />
<path d="M74.7747 4.3893
L74.7747 3.1193
" />
<path d="M74.7747 3.1193
L74.6538 3.3008
" />
<path d="M74.6538 3.3008
L74.5328 3.4217
" />
<path d="M74.5328 3.4217
L74.4119 3.4822
" />
<path d="M75.6818 4.3893
L75.6818 3.1193
" />
<path d="M75.6818 3.1193
L76.1656 3.1193
" />
<path d="M76.1656 3.1193
L76.2866 3.1798
" />
<path d="M76.2866 3.1798
L76.3471 3.2403
" />
<path d="M76.3471 3.2403
L76.4075 3.3612
" />
<path d="M76.4075 3.3612
L76.4075 3.5427
" />
<path d="M76.4075 3.5427
L76.3471 3.6636
" />
<path d="M76.3471 3.6636
L76.2866 3.7241
" />
<path d="M76.2866 3.7241
L76.1656 3.7846
" />
<path d="M76.1656 3.7846
L75.6818 3.7846
" />
<path d="M77.6775 4.2684
L77.6171 4.3289
" />
<path d="M77.6171 4.3289
L77.4356 4.3893
" />
<path d="M77.4356 4.3893
L77.3147 4.3893
" />
<path d="M77.3147 4.3893
L77.1333 4.3289
" />
<path d="M77.1333 4.3289
L77.0123 4.2079
" />
<path d="M77.0123 4.2079
L76.9518 4.0869
" />
<path d="M76.9518 4.0869
L76.8914 3.8450
" />
<path d="M76.8914 3.8450
L76.8914 3.6636
" />
<path d="M76.8914 3.6636
L76.9518 3.4217
" />
<path d="M76.9518 3.4217
L77.0123 3.3008
" />
<path d="M77.0123 3.3008
L77.1333 3.1798
" />
<path d="M77.1333 3.1798
L77.3147 3.1193
" />
<path d="M77.3147 3.1193
L77.4356 3.1193
" />
<path d="M77.4356 3.1193
L77.6171 3.1798
" />
<path d="M77.6171 3.1798
L77.6775 3.2403
" />
<path d="M78.1614 4.3289
L78.3428 4.3893
" />
<path d="M78.3428 4.3893
L78.6452 4.3893
" />
<path d="M78.6452 4.3893
L78.7661 4.3289
" />
<path d="M78.7661 4.3289
L78.8266 4.2684
" />
<path d="M78.8266 4.2684
L78.8871 4.1474
" />
<path d="M78.8871 4.1474
L78.8871 4.0265
" />
<path d="M78.8871 4.0265
L78.8266 3.9055
" />
<path d="M78.8266 3.9055
L78.7661 3.8450
" />
<path d="M78.7661 3.8450
L78.6452 3.7846
" />
<path d="M78.6452 3.7846
L78.4033 3.7241
" />
<path d="M78.4033 3.7241
L78.2823 3.6636
" />
<path d="M78.2823 3.6636
L78.2218 3.6031
" />
<path d="M78.2218 3.6031
L78.1614 3.4822
" />
<path d="M78.1614 3.4822
L78.1614 3.3612
" />
<path d="M78.1614 3.3612
L78.2218 3.2403
" />
<path d="M78.2218 3.2403
L78.2823 3.1798
" />
<path d="M78.2823 3.1798
L78.4033 3.1193
" />
<path d="M78.4033 3.1193
L78.7056 3.1193
" />
<path d="M78.7056 3.1193
L78.8871 3.1798
" />
<path d="M79.6732 3.1193
L79.7942 3.1193
" />
<path d="M79.7942 3.1193
L79.9151 3.1798
" />
<path d="M79.9151 3.1798
L79.9756 3.2403
" />
<path d="M79.9756 3.2403
L80.0361 3.3612
" />
<path d="M80.0361 3.3612
L80.0966 3.6031
" />
<path d="M80.0966 3.6031
L80.0966 3.9055
" />
<path d="M80.0966 3.9055
L80.0361 4.1474
" />
<path d="M80.0361 4.1474
L79.9756 4.2684
" />
<path d="M79.9756 4.2684
L79.9151 4.3289
" />
<path d="M79.9151 4.3289
L79.7942 4.3893
" />
<path d="M79.7942 4.3893
L79.6732 4.3893
" />
<path d="M79.6732 4.3893
L79.5523 4.3289
" />
<path d="M79.5523 4.3289
L79.4918 4.2684
" />
<path d="M79.4918 4.2684
L79.4313 4.1474
" />
<path d="M79.4313 4.1474
L79.3709 3.9055
" />
<path d="M79.3709 3.9055
L79.3709 3.6031
" />
<path d="M79.3709 3.6031
L79.4313 3.3612
" />
<path d="M79.4313 3.3612
L79.4918 3.2403
" />
<path d="M79.4918 3.2403
L79.5523 3.1798
" />
<path d="M79.5523 3.1798
L79.6732 3.1193
" />
<path d="M81.3061 4.3893
L80.5804 4.3893
" />
<path d="M80.9432 4.3893
L80.9432 3.1193
" />
<path d="M80.9432 3.1193
L80.8223 3.3008
" />
<path d="M80.8223 3.3008
L80.7013 3.4217
" />
<path d="M80.7013 3.4217
L80.5804 3.4822
" />
</g></g>
<g style="fill:#840084; fill-opacity:0.0; 
stroke:#840084; stroke-width:0.1588; stroke-opacity:1; 
stroke-linecap:round; stroke-linejoin:round;">
<text x="69.7650" y="15.8751"
textLength="116.2750" font-size="1.6933" lengthAdjust="spacingAndGlyphs"
text-anchor="middle" opacity="0">https://www.infineon.com/dgdl/Infineon-ICE1PCS01-DS-v01_03-en.pdf?fileId=db3a304412b407950112b427c6f13cc7</text>
<g class="stroked-text"><desc>https://www.infineon.com/dgdl/Infineon-ICE1PCS01-DS-v01_03-en.pdf?fileId=db3a304412b407950112b427c6f13cc7</desc>
<path d="M12.0410 15.8193
L12.0410 14.5493
" />
<path d="M12.5853 15.8193
L12.5853 15.1541
" />
<path d="M12.5853 15.1541
L12.5248 15.0331
" />
<path d="M12.5248 15.0331
L12.4039 14.9727
" />
<path d="M12.4039 14.9727
L12.2225 14.9727
" />
<path d="M12.2225 14.9727
L12.1015 15.0331
" />
<path d="M12.1015 15.0331
L12.0410 15.0936
" />
<path d="M13.0086 14.9727
L13.4924 14.9727
" />
<path d="M13.1900 14.5493
L13.1900 15.6379
" />
<path d="M13.1900 15.6379
L13.2505 15.7589
" />
<path d="M13.2505 15.7589
L13.3715 15.8193
" />
<path d="M13.3715 15.8193
L13.4924 15.8193
" />
<path d="M13.7343 14.9727
L14.2181 14.9727
" />
<path d="M13.9157 14.5493
L13.9157 15.6379
" />
<path d="M13.9157 15.6379
L13.9762 15.7589
" />
<path d="M13.9762 15.7589
L14.0972 15.8193
" />
<path d="M14.0972 15.8193
L14.2181 15.8193
" />
<path d="M14.6414 14.9727
L14.6414 16.2427
" />
<path d="M14.6414 15.0331
L14.7624 14.9727
" />
<path d="M14.7624 14.9727
L15.0043 14.9727
" />
<path d="M15.0043 14.9727
L15.1252 15.0331
" />
<path d="M15.1252 15.0331
L15.1857 15.0936
" />
<path d="M15.1857 15.0936
L15.2462 15.2146
" />
<path d="M15.2462 15.2146
L15.2462 15.5774
" />
<path d="M15.2462 15.5774
L15.1857 15.6984
" />
<path d="M15.1857 15.6984
L15.1252 15.7589
" />
<path d="M15.1252 15.7589
L15.0043 15.8193
" />
<path d="M15.0043 15.8193
L14.7624 15.8193
" />
<path d="M14.7624 15.8193
L14.6414 15.7589
" />
<path d="M15.7300 15.7589
L15.8509 15.8193
" />
<path d="M15.8509 15.8193
L16.0928 15.8193
" />
<path d="M16.0928 15.8193
L16.2138 15.7589
" />
<path d="M16.2138 15.7589
L16.2742 15.6379
" />
<path d="M16.2742 15.6379
L16.2742 15.5774
" />
<path d="M16.2742 15.5774
L16.2138 15.4565
" />
<path d="M16.2138 15.4565
L16.0928 15.3960
" />
<path d="M16.0928 15.3960
L15.9114 15.3960
" />
<path d="M15.9114 15.3960
L15.7904 15.3355
" />
<path d="M15.7904 15.3355
L15.7300 15.2146
" />
<path d="M15.7300 15.2146
L15.7300 15.1541
" />
<path d="M15.7300 15.1541
L15.7904 15.0331
" />
<path d="M15.7904 15.0331
L15.9114 14.9727
" />
<path d="M15.9114 14.9727
L16.0928 14.9727
" />
<path d="M16.0928 14.9727
L16.2138 15.0331
" />
<path d="M16.8185 15.6984
L16.8790 15.7589
" />
<path d="M16.8790 15.7589
L16.8185 15.8193
" />
<path d="M16.8185 15.8193
L16.7581 15.7589
" />
<path d="M16.7581 15.7589
L16.8185 15.6984
" />
<path d="M16.8185 15.6984
L16.8185 15.8193
" />
<path d="M16.8185 15.0331
L16.8790 15.0936
" />
<path d="M16.8790 15.0936
L16.8185 15.1541
" />
<path d="M16.8185 15.1541
L16.7581 15.0936
" />
<path d="M16.7581 15.0936
L16.8185 15.0331
" />
<path d="M16.8185 15.0331
L16.8185 15.1541
" />
<path d="M18.3305 14.4889
L17.2419 16.1217
" />
<path d="M19.6610 14.4889
L18.5724 16.1217
" />
<path d="M19.9634 14.9727
L20.2053 15.8193
" />
<path d="M20.2053 15.8193
L20.4472 15.2146
" />
<path d="M20.4472 15.2146
L20.6891 15.8193
" />
<path d="M20.6891 15.8193
L20.9310 14.9727
" />
<path d="M21.2939 14.9727
L21.5358 15.8193
" />
<path d="M21.5358 15.8193
L21.7777 15.2146
" />
<path d="M21.7777 15.2146
L22.0196 15.8193
" />
<path d="M22.0196 15.8193
L22.2615 14.9727
" />
<path d="M22.6244 14.9727
L22.8663 15.8193
" />
<path d="M22.8663 15.8193
L23.1082 15.2146
" />
<path d="M23.1082 15.2146
L23.3501 15.8193
" />
<path d="M23.3501 15.8193
L23.5920 14.9727
" />
<path d="M24.0758 15.6984
L24.1363 15.7589
" />
<path d="M24.1363 15.7589
L24.0758 15.8193
" />
<path d="M24.0758 15.8193
L24.0154 15.7589
" />
<path d="M24.0154 15.7589
L24.0758 15.6984
" />
<path d="M24.0758 15.6984
L24.0758 15.8193
" />
<path d="M24.6806 15.8193
L24.6806 14.9727
" />
<path d="M24.6806 14.5493
L24.6202 14.6098
" />
<path d="M24.6202 14.6098
L24.6806 14.6703
" />
<path d="M24.6806 14.6703
L24.7411 14.6098
" />
<path d="M24.7411 14.6098
L24.6806 14.5493
" />
<path d="M24.6806 14.5493
L24.6806 14.6703
" />
<path d="M25.2854 14.9727
L25.2854 15.8193
" />
<path d="M25.2854 15.0936
L25.3459 15.0331
" />
<path d="M25.3459 15.0331
L25.4669 14.9727
" />
<path d="M25.4669 14.9727
L25.6483 14.9727
" />
<path d="M25.6483 14.9727
L25.7692 15.0331
" />
<path d="M25.7692 15.0331
L25.8297 15.1541
" />
<path d="M25.8297 15.1541
L25.8297 15.8193
" />
<path d="M26.2530 14.9727
L26.7368 14.9727
" />
<path d="M26.4344 15.8193
L26.4344 14.7308
" />
<path d="M26.4344 14.7308
L26.4949 14.6098
" />
<path d="M26.4949 14.6098
L26.6159 14.5493
" />
<path d="M26.6159 14.5493
L26.7368 14.5493
" />
<path d="M27.1601 15.8193
L27.1601 14.9727
" />
<path d="M27.1601 14.5493
L27.0997 14.6098
" />
<path d="M27.0997 14.6098
L27.1601 14.6703
" />
<path d="M27.1601 14.6703
L27.2206 14.6098
" />
<path d="M27.2206 14.6098
L27.1601 14.5493
" />
<path d="M27.1601 14.5493
L27.1601 14.6703
" />
<path d="M27.7649 14.9727
L27.7649 15.8193
" />
<path d="M27.7649 15.0936
L27.8254 15.0331
" />
<path d="M27.8254 15.0331
L27.9464 14.9727
" />
<path d="M27.9464 14.9727
L28.1278 14.9727
" />
<path d="M28.1278 14.9727
L28.2487 15.0331
" />
<path d="M28.2487 15.0331
L28.3092 15.1541
" />
<path d="M28.3092 15.1541
L28.3092 15.8193
" />
<path d="M29.3977 15.7589
L29.2768 15.8193
" />
<path d="M29.2768 15.8193
L29.0349 15.8193
" />
<path d="M29.0349 15.8193
L28.9139 15.7589
" />
<path d="M28.9139 15.7589
L28.8535 15.6379
" />
<path d="M28.8535 15.6379
L28.8535 15.1541
" />
<path d="M28.8535 15.1541
L28.9139 15.0331
" />
<path d="M28.9139 15.0331
L29.0349 14.9727
" />
<path d="M29.0349 14.9727
L29.2768 14.9727
" />
<path d="M29.2768 14.9727
L29.3977 15.0331
" />
<path d="M29.3977 15.0331
L29.4582 15.1541
" />
<path d="M29.4582 15.1541
L29.4582 15.2750
" />
<path d="M29.4582 15.2750
L28.8535 15.3960
" />
<path d="M30.1840 15.8193
L30.0630 15.7589
" />
<path d="M30.0630 15.7589
L30.0025 15.6984
" />
<path d="M30.0025 15.6984
L29.9421 15.5774
" />
<path d="M29.9421 15.5774
L29.9421 15.2146
" />
<path d="M29.9421 15.2146
L30.0025 15.0936
" />
<path d="M30.0025 15.0936
L30.0630 15.0331
" />
<path d="M30.0630 15.0331
L30.1840 14.9727
" />
<path d="M30.1840 14.9727
L30.3654 14.9727
" />
<path d="M30.3654 14.9727
L30.4863 15.0331
" />
<path d="M30.4863 15.0331
L30.5468 15.0936
" />
<path d="M30.5468 15.0936
L30.6073 15.2146
" />
<path d="M30.6073 15.2146
L30.6073 15.5774
" />
<path d="M30.6073 15.5774
L30.5468 15.6984
" />
<path d="M30.5468 15.6984
L30.4863 15.7589
" />
<path d="M30.4863 15.7589
L30.3654 15.8193
" />
<path d="M30.3654 15.8193
L30.1840 15.8193
" />
<path d="M31.1515 14.9727
L31.1515 15.8193
" />
<path d="M31.1515 15.0936
L31.2120 15.0331
" />
<path d="M31.2120 15.0331
L31.3330 14.9727
" />
<path d="M31.3330 14.9727
L31.5144 14.9727
" />
<path d="M31.5144 14.9727
L31.6353 15.0331
" />
<path d="M31.6353 15.0331
L31.6958 15.1541
" />
<path d="M31.6958 15.1541
L31.6958 15.8193
" />
<path d="M32.3005 15.6984
L32.3610 15.7589
" />
<path d="M32.3610 15.7589
L32.3005 15.8193
" />
<path d="M32.3005 15.8193
L32.2401 15.7589
" />
<path d="M32.2401 15.7589
L32.3005 15.6984
" />
<path d="M32.3005 15.6984
L32.3005 15.8193
" />
<path d="M33.4496 15.7589
L33.3287 15.8193
" />
<path d="M33.3287 15.8193
L33.0868 15.8193
" />
<path d="M33.0868 15.8193
L32.9658 15.7589
" />
<path d="M32.9658 15.7589
L32.9053 15.6984
" />
<path d="M32.9053 15.6984
L32.8449 15.5774
" />
<path d="M32.8449 15.5774
L32.8449 15.2146
" />
<path d="M32.8449 15.2146
L32.9053 15.0936
" />
<path d="M32.9053 15.0936
L32.9658 15.0331
" />
<path d="M32.9658 15.0331
L33.0868 14.9727
" />
<path d="M33.0868 14.9727
L33.3287 14.9727
" />
<path d="M33.3287 14.9727
L33.4496 15.0331
" />
<path d="M34.1754 15.8193
L34.0544 15.7589
" />
<path d="M34.0544 15.7589
L33.9939 15.6984
" />
<path d="M33.9939 15.6984
L33.9335 15.5774
" />
<path d="M33.9335 15.5774
L33.9335 15.2146
" />
<path d="M33.9335 15.2146
L33.9939 15.0936
" />
<path d="M33.9939 15.0936
L34.0544 15.0331
" />
<path d="M34.0544 15.0331
L34.1754 14.9727
" />
<path d="M34.1754 14.9727
L34.3568 14.9727
" />
<path d="M34.3568 14.9727
L34.4777 15.0331
" />
<path d="M34.4777 15.0331
L34.5382 15.0936
" />
<path d="M34.5382 15.0936
L34.5987 15.2146
" />
<path d="M34.5987 15.2146
L34.5987 15.5774
" />
<path d="M34.5987 15.5774
L34.5382 15.6984
" />
<path d="M34.5382 15.6984
L34.4777 15.7589
" />
<path d="M34.4777 15.7589
L34.3568 15.8193
" />
<path d="M34.3568 15.8193
L34.1754 15.8193
" />
<path d="M35.1429 15.8193
L35.1429 14.9727
" />
<path d="M35.1429 15.0936
L35.2034 15.0331
" />
<path d="M35.2034 15.0331
L35.3244 14.9727
" />
<path d="M35.3244 14.9727
L35.5058 14.9727
" />
<path d="M35.5058 14.9727
L35.6267 15.0331
" />
<path d="M35.6267 15.0331
L35.6872 15.1541
" />
<path d="M35.6872 15.1541
L35.6872 15.8193
" />
<path d="M35.6872 15.1541
L35.7477 15.0331
" />
<path d="M35.7477 15.0331
L35.8686 14.9727
" />
<path d="M35.8686 14.9727
L36.0501 14.9727
" />
<path d="M36.0501 14.9727
L36.1710 15.0331
" />
<path d="M36.1710 15.0331
L36.2315 15.1541
" />
<path d="M36.2315 15.1541
L36.2315 15.8193
" />
<path d="M37.7434 14.4889
L36.6548 16.1217
" />
<path d="M38.7110 15.8193
L38.7110 14.5493
" />
<path d="M38.7110 15.7589
L38.5901 15.8193
" />
<path d="M38.5901 15.8193
L38.3482 15.8193
" />
<path d="M38.3482 15.8193
L38.2272 15.7589
" />
<path d="M38.2272 15.7589
L38.1667 15.6984
" />
<path d="M38.1667 15.6984
L38.1063 15.5774
" />
<path d="M38.1063 15.5774
L38.1063 15.2146
" />
<path d="M38.1063 15.2146
L38.1667 15.0936
" />
<path d="M38.1667 15.0936
L38.2272 15.0331
" />
<path d="M38.2272 15.0331
L38.3482 14.9727
" />
<path d="M38.3482 14.9727
L38.5901 14.9727
" />
<path d="M38.5901 14.9727
L38.7110 15.0331
" />
<path d="M39.8600 14.9727
L39.8600 16.0008
" />
<path d="M39.8600 16.0008
L39.7995 16.1217
" />
<path d="M39.7995 16.1217
L39.7391 16.1822
" />
<path d="M39.7391 16.1822
L39.6181 16.2427
" />
<path d="M39.6181 16.2427
L39.4367 16.2427
" />
<path d="M39.4367 16.2427
L39.3157 16.1822
" />
<path d="M39.8600 15.7589
L39.7391 15.8193
" />
<path d="M39.7391 15.8193
L39.4972 15.8193
" />
<path d="M39.4972 15.8193
L39.3762 15.7589
" />
<path d="M39.3762 15.7589
L39.3157 15.6984
" />
<path d="M39.3157 15.6984
L39.2553 15.5774
" />
<path d="M39.2553 15.5774
L39.2553 15.2146
" />
<path d="M39.2553 15.2146
L39.3157 15.0936
" />
<path d="M39.3157 15.0936
L39.3762 15.0331
" />
<path d="M39.3762 15.0331
L39.4972 14.9727
" />
<path d="M39.4972 14.9727
L39.7391 14.9727
" />
<path d="M39.7391 14.9727
L39.8600 15.0331
" />
<path d="M41.0090 15.8193
L41.0090 14.5493
" />
<path d="M41.0090 15.7589
L40.8881 15.8193
" />
<path d="M40.8881 15.8193
L40.6462 15.8193
" />
<path d="M40.6462 15.8193
L40.5252 15.7589
" />
<path d="M40.5252 15.7589
L40.4647 15.6984
" />
<path d="M40.4647 15.6984
L40.4043 15.5774
" />
<path d="M40.4043 15.5774
L40.4043 15.2146
" />
<path d="M40.4043 15.2146
L40.4647 15.0936
" />
<path d="M40.4647 15.0936
L40.5252 15.0331
" />
<path d="M40.5252 15.0331
L40.6462 14.9727
" />
<path d="M40.6462 14.9727
L40.8881 14.9727
" />
<path d="M40.8881 14.9727
L41.0090 15.0331
" />
<path d="M41.7952 15.8193
L41.6742 15.7589
" />
<path d="M41.6742 15.7589
L41.6137 15.6379
" />
<path d="M41.6137 15.6379
L41.6137 14.5493
" />
<path d="M43.1861 14.4889
L42.0975 16.1217
" />
<path d="M43.6094 15.8193
L43.6094 14.5493
" />
<path d="M44.2142 14.9727
L44.2142 15.8193
" />
<path d="M44.2142 15.0936
L44.2747 15.0331
" />
<path d="M44.2747 15.0331
L44.3957 14.9727
" />
<path d="M44.3957 14.9727
L44.5771 14.9727
" />
<path d="M44.5771 14.9727
L44.6980 15.0331
" />
<path d="M44.6980 15.0331
L44.7585 15.1541
" />
<path d="M44.7585 15.1541
L44.7585 15.8193
" />
<path d="M45.1818 14.9727
L45.6656 14.9727
" />
<path d="M45.3632 15.8193
L45.3632 14.7308
" />
<path d="M45.3632 14.7308
L45.4237 14.6098
" />
<path d="M45.4237 14.6098
L45.5447 14.5493
" />
<path d="M45.5447 14.5493
L45.6656 14.5493
" />
<path d="M46.0889 15.8193
L46.0889 14.9727
" />
<path d="M46.0889 14.5493
L46.0285 14.6098
" />
<path d="M46.0285 14.6098
L46.0889 14.6703
" />
<path d="M46.0889 14.6703
L46.1494 14.6098
" />
<path d="M46.1494 14.6098
L46.0889 14.5493
" />
<path d="M46.0889 14.5493
L46.0889 14.6703
" />
<path d="M46.6937 14.9727
L46.6937 15.8193
" />
<path d="M46.6937 15.0936
L46.7542 15.0331
" />
<path d="M46.7542 15.0331
L46.8752 14.9727
" />
<path d="M46.8752 14.9727
L47.0566 14.9727
" />
<path d="M47.0566 14.9727
L47.1775 15.0331
" />
<path d="M47.1775 15.0331
L47.2380 15.1541
" />
<path d="M47.2380 15.1541
L47.2380 15.8193
" />
<path d="M48.3265 15.7589
L48.2056 15.8193
" />
<path d="M48.2056 15.8193
L47.9637 15.8193
" />
<path d="M47.9637 15.8193
L47.8427 15.7589
" />
<path d="M47.8427 15.7589
L47.7823 15.6379
" />
<path d="M47.7823 15.6379
L47.7823 15.1541
" />
<path d="M47.7823 15.1541
L47.8427 15.0331
" />
<path d="M47.8427 15.0331
L47.9637 14.9727
" />
<path d="M47.9637 14.9727
L48.2056 14.9727
" />
<path d="M48.2056 14.9727
L48.3265 15.0331
" />
<path d="M48.3265 15.0331
L48.3870 15.1541
" />
<path d="M48.3870 15.1541
L48.3870 15.2750
" />
<path d="M48.3870 15.2750
L47.7823 15.3960
" />
<path d="M49.1128 15.8193
L48.9918 15.7589
" />
<path d="M48.9918 15.7589
L48.9313 15.6984
" />
<path d="M48.9313 15.6984
L48.8709 15.5774
" />
<path d="M48.8709 15.5774
L48.8709 15.2146
" />
<path d="M48.8709 15.2146
L48.9313 15.0936
" />
<path d="M48.9313 15.0936
L48.9918 15.0331
" />
<path d="M48.9918 15.0331
L49.1128 14.9727
" />
<path d="M49.1128 14.9727
L49.2942 14.9727
" />
<path d="M49.2942 14.9727
L49.4151 15.0331
" />
<path d="M49.4151 15.0331
L49.4756 15.0936
" />
<path d="M49.4756 15.0936
L49.5361 15.2146
" />
<path d="M49.5361 15.2146
L49.5361 15.5774
" />
<path d="M49.5361 15.5774
L49.4756 15.6984
" />
<path d="M49.4756 15.6984
L49.4151 15.7589
" />
<path d="M49.4151 15.7589
L49.2942 15.8193
" />
<path d="M49.2942 15.8193
L49.1128 15.8193
" />
<path d="M50.0803 14.9727
L50.0803 15.8193
" />
<path d="M50.0803 15.0936
L50.1408 15.0331
" />
<path d="M50.1408 15.0331
L50.2618 14.9727
" />
<path d="M50.2618 14.9727
L50.4432 14.9727
" />
<path d="M50.4432 14.9727
L50.5641 15.0331
" />
<path d="M50.5641 15.0331
L50.6246 15.1541
" />
<path d="M50.6246 15.1541
L50.6246 15.8193
" />
<path d="M51.2293 15.3355
L52.1970 15.3355
" />
<path d="M52.8017 15.8193
L52.8017 14.5493
" />
<path d="M54.1322 15.6984
L54.0718 15.7589
" />
<path d="M54.0718 15.7589
L53.8903 15.8193
" />
<path d="M53.8903 15.8193
L53.7694 15.8193
" />
<path d="M53.7694 15.8193
L53.5880 15.7589
" />
<path d="M53.5880 15.7589
L53.4670 15.6379
" />
<path d="M53.4670 15.6379
L53.4065 15.5169
" />
<path d="M53.4065 15.5169
L53.3461 15.2750
" />
<path d="M53.3461 15.2750
L53.3461 15.0936
" />
<path d="M53.3461 15.0936
L53.4065 14.8517
" />
<path d="M53.4065 14.8517
L53.4670 14.7308
" />
<path d="M53.4670 14.7308
L53.5880 14.6098
" />
<path d="M53.5880 14.6098
L53.7694 14.5493
" />
<path d="M53.7694 14.5493
L53.8903 14.5493
" />
<path d="M53.8903 14.5493
L54.0718 14.6098
" />
<path d="M54.0718 14.6098
L54.1322 14.6703
" />
<path d="M54.6765 15.1541
L55.0999 15.1541
" />
<path d="M55.2813 15.8193
L54.6765 15.8193
" />
<path d="M54.6765 15.8193
L54.6765 14.5493
" />
<path d="M54.6765 14.5493
L55.2813 14.5493
" />
<path d="M56.4908 15.8193
L55.7651 15.8193
" />
<path d="M56.1279 15.8193
L56.1279 14.5493
" />
<path d="M56.1279 14.5493
L56.0070 14.7308
" />
<path d="M56.0070 14.7308
L55.8860 14.8517
" />
<path d="M55.8860 14.8517
L55.7651 14.9122
" />
<path d="M57.0350 15.8193
L57.0350 14.5493
" />
<path d="M57.0350 14.5493
L57.5188 14.5493
" />
<path d="M57.5188 14.5493
L57.6398 14.6098
" />
<path d="M57.6398 14.6098
L57.7003 14.6703
" />
<path d="M57.7003 14.6703
L57.7607 14.7912
" />
<path d="M57.7607 14.7912
L57.7607 14.9727
" />
<path d="M57.7607 14.9727
L57.7003 15.0936
" />
<path d="M57.7003 15.0936
L57.6398 15.1541
" />
<path d="M57.6398 15.1541
L57.5188 15.2146
" />
<path d="M57.5188 15.2146
L57.0350 15.2146
" />
<path d="M59.0307 15.6984
L58.9703 15.7589
" />
<path d="M58.9703 15.7589
L58.7888 15.8193
" />
<path d="M58.7888 15.8193
L58.6679 15.8193
" />
<path d="M58.6679 15.8193
L58.4865 15.7589
" />
<path d="M58.4865 15.7589
L58.3655 15.6379
" />
<path d="M58.3655 15.6379
L58.3050 15.5169
" />
<path d="M58.3050 15.5169
L58.2446 15.2750
" />
<path d="M58.2446 15.2750
L58.2446 15.0936
" />
<path d="M58.2446 15.0936
L58.3050 14.8517
" />
<path d="M58.3050 14.8517
L58.3655 14.7308
" />
<path d="M58.3655 14.7308
L58.4865 14.6098
" />
<path d="M58.4865 14.6098
L58.6679 14.5493
" />
<path d="M58.6679 14.5493
L58.7888 14.5493
" />
<path d="M58.7888 14.5493
L58.9703 14.6098
" />
<path d="M58.9703 14.6098
L59.0307 14.6703
" />
<path d="M59.5146 15.7589
L59.6960 15.8193
" />
<path d="M59.6960 15.8193
L59.9984 15.8193
" />
<path d="M59.9984 15.8193
L60.1193 15.7589
" />
<path d="M60.1193 15.7589
L60.1798 15.6984
" />
<path d="M60.1798 15.6984
L60.2403 15.5774
" />
<path d="M60.2403 15.5774
L60.2403 15.4565
" />
<path d="M60.2403 15.4565
L60.1798 15.3355
" />
<path d="M60.1798 15.3355
L60.1193 15.2750
" />
<path d="M60.1193 15.2750
L59.9984 15.2146
" />
<path d="M59.9984 15.2146
L59.7565 15.1541
" />
<path d="M59.7565 15.1541
L59.6355 15.0936
" />
<path d="M59.6355 15.0936
L59.5750 15.0331
" />
<path d="M59.5750 15.0331
L59.5146 14.9122
" />
<path d="M59.5146 14.9122
L59.5146 14.7912
" />
<path d="M59.5146 14.7912
L59.5750 14.6703
" />
<path d="M59.5750 14.6703
L59.6355 14.6098
" />
<path d="M59.6355 14.6098
L59.7565 14.5493
" />
<path d="M59.7565 14.5493
L60.0588 14.5493
" />
<path d="M60.0588 14.5493
L60.2403 14.6098
" />
<path d="M61.0264 14.5493
L61.1474 14.5493
" />
<path d="M61.1474 14.5493
L61.2683 14.6098
" />
<path d="M61.2683 14.6098
L61.3288 14.6703
" />
<path d="M61.3288 14.6703
L61.3893 14.7912
" />
<path d="M61.3893 14.7912
L61.4498 15.0331
" />
<path d="M61.4498 15.0331
L61.4498 15.3355
" />
<path d="M61.4498 15.3355
L61.3893 15.5774
" />
<path d="M61.3893 15.5774
L61.3288 15.6984
" />
<path d="M61.3288 15.6984
L61.2683 15.7589
" />
<path d="M61.2683 15.7589
L61.1474 15.8193
" />
<path d="M61.1474 15.8193
L61.0264 15.8193
" />
<path d="M61.0264 15.8193
L60.9055 15.7589
" />
<path d="M60.9055 15.7589
L60.8450 15.6984
" />
<path d="M60.8450 15.6984
L60.7845 15.5774
" />
<path d="M60.7845 15.5774
L60.7241 15.3355
" />
<path d="M60.7241 15.3355
L60.7241 15.0331
" />
<path d="M60.7241 15.0331
L60.7845 14.7912
" />
<path d="M60.7845 14.7912
L60.8450 14.6703
" />
<path d="M60.8450 14.6703
L60.9055 14.6098
" />
<path d="M60.9055 14.6098
L61.0264 14.5493
" />
<path d="M62.6593 15.8193
L61.9336 15.8193
" />
<path d="M62.2964 15.8193
L62.2964 14.5493
" />
<path d="M62.2964 14.5493
L62.1755 14.7308
" />
<path d="M62.1755 14.7308
L62.0545 14.8517
" />
<path d="M62.0545 14.8517
L61.9336 14.9122
" />
<path d="M63.2035 15.3355
L64.1712 15.3355
" />
<path d="M64.7759 15.8193
L64.7759 14.5493
" />
<path d="M64.7759 14.5493
L65.0783 14.5493
" />
<path d="M65.0783 14.5493
L65.2597 14.6098
" />
<path d="M65.2597 14.6098
L65.3807 14.7308
" />
<path d="M65.3807 14.7308
L65.4412 14.8517
" />
<path d="M65.4412 14.8517
L65.5016 15.0936
" />
<path d="M65.5016 15.0936
L65.5016 15.2750
" />
<path d="M65.5016 15.2750
L65.4412 15.5169
" />
<path d="M65.4412 15.5169
L65.3807 15.6379
" />
<path d="M65.3807 15.6379
L65.2597 15.7589
" />
<path d="M65.2597 15.7589
L65.0783 15.8193
" />
<path d="M65.0783 15.8193
L64.7759 15.8193
" />
<path d="M65.9855 15.7589
L66.1669 15.8193
" />
<path d="M66.1669 15.8193
L66.4693 15.8193
" />
<path d="M66.4693 15.8193
L66.5902 15.7589
" />
<path d="M66.5902 15.7589
L66.6507 15.6984
" />
<path d="M66.6507 15.6984
L66.7112 15.5774
" />
<path d="M66.7112 15.5774
L66.7112 15.4565
" />
<path d="M66.7112 15.4565
L66.6507 15.3355
" />
<path d="M66.6507 15.3355
L66.5902 15.2750
" />
<path d="M66.5902 15.2750
L66.4693 15.2146
" />
<path d="M66.4693 15.2146
L66.2274 15.1541
" />
<path d="M66.2274 15.1541
L66.1064 15.0936
" />
<path d="M66.1064 15.0936
L66.0459 15.0331
" />
<path d="M66.0459 15.0331
L65.9855 14.9122
" />
<path d="M65.9855 14.9122
L65.9855 14.7912
" />
<path d="M65.9855 14.7912
L66.0459 14.6703
" />
<path d="M66.0459 14.6703
L66.1064 14.6098
" />
<path d="M66.1064 14.6098
L66.2274 14.5493
" />
<path d="M66.2274 14.5493
L66.5297 14.5493
" />
<path d="M66.5297 14.5493
L66.7112 14.6098
" />
<path d="M67.2554 15.3355
L68.2231 15.3355
" />
<path d="M68.7069 14.9727
L69.0093 15.8193
" />
<path d="M69.0093 15.8193
L69.3116 14.9727
" />
<path d="M70.0373 14.5493
L70.1583 14.5493
" />
<path d="M70.1583 14.5493
L70.2792 14.6098
" />
<path d="M70.2792 14.6098
L70.3397 14.6703
" />
<path d="M70.3397 14.6703
L70.4002 14.7912
" />
<path d="M70.4002 14.7912
L70.4607 15.0331
" />
<path d="M70.4607 15.0331
L70.4607 15.3355
" />
<path d="M70.4607 15.3355
L70.4002 15.5774
" />
<path d="M70.4002 15.5774
L70.3397 15.6984
" />
<path d="M70.3397 15.6984
L70.2792 15.7589
" />
<path d="M70.2792 15.7589
L70.1583 15.8193
" />
<path d="M70.1583 15.8193
L70.0373 15.8193
" />
<path d="M70.0373 15.8193
L69.9164 15.7589
" />
<path d="M69.9164 15.7589
L69.8559 15.6984
" />
<path d="M69.8559 15.6984
L69.7954 15.5774
" />
<path d="M69.7954 15.5774
L69.7350 15.3355
" />
<path d="M69.7350 15.3355
L69.7350 15.0331
" />
<path d="M69.7350 15.0331
L69.7954 14.7912
" />
<path d="M69.7954 14.7912
L69.8559 14.6703
" />
<path d="M69.8559 14.6703
L69.9164 14.6098
" />
<path d="M69.9164 14.6098
L70.0373 14.5493
" />
<path d="M71.6702 15.8193
L70.9445 15.8193
" />
<path d="M71.3073 15.8193
L71.3073 14.5493
" />
<path d="M71.3073 14.5493
L71.1864 14.7308
" />
<path d="M71.1864 14.7308
L71.0654 14.8517
" />
<path d="M71.0654 14.8517
L70.9445 14.9122
" />
<path d="M71.9121 15.9403
L72.8797 15.9403
" />
<path d="M73.4239 14.5493
L73.5449 14.5493
" />
<path d="M73.5449 14.5493
L73.6658 14.6098
" />
<path d="M73.6658 14.6098
L73.7263 14.6703
" />
<path d="M73.7263 14.6703
L73.7868 14.7912
" />
<path d="M73.7868 14.7912
L73.8473 15.0331
" />
<path d="M73.8473 15.0331
L73.8473 15.3355
" />
<path d="M73.8473 15.3355
L73.7868 15.5774
" />
<path d="M73.7868 15.5774
L73.7263 15.6984
" />
<path d="M73.7263 15.6984
L73.6658 15.7589
" />
<path d="M73.6658 15.7589
L73.5449 15.8193
" />
<path d="M73.5449 15.8193
L73.4239 15.8193
" />
<path d="M73.4239 15.8193
L73.3030 15.7589
" />
<path d="M73.3030 15.7589
L73.2425 15.6984
" />
<path d="M73.2425 15.6984
L73.1820 15.5774
" />
<path d="M73.1820 15.5774
L73.1216 15.3355
" />
<path d="M73.1216 15.3355
L73.1216 15.0331
" />
<path d="M73.1216 15.0331
L73.1820 14.7912
" />
<path d="M73.1820 14.7912
L73.2425 14.6703
" />
<path d="M73.2425 14.6703
L73.3030 14.6098
" />
<path d="M73.3030 14.6098
L73.4239 14.5493
" />
<path d="M74.2706 14.5493
L75.0568 14.5493
" />
<path d="M75.0568 14.5493
L74.6334 15.0331
" />
<path d="M74.6334 15.0331
L74.8149 15.0331
" />
<path d="M74.8149 15.0331
L74.9358 15.0936
" />
<path d="M74.9358 15.0936
L74.9963 15.1541
" />
<path d="M74.9963 15.1541
L75.0568 15.2750
" />
<path d="M75.0568 15.2750
L75.0568 15.5774
" />
<path d="M75.0568 15.5774
L74.9963 15.6984
" />
<path d="M74.9963 15.6984
L74.9358 15.7589
" />
<path d="M74.9358 15.7589
L74.8149 15.8193
" />
<path d="M74.8149 15.8193
L74.4520 15.8193
" />
<path d="M74.4520 15.8193
L74.3311 15.7589
" />
<path d="M74.3311 15.7589
L74.2706 15.6984
" />
<path d="M75.6010 15.3355
L76.5687 15.3355
" />
<path d="M77.6572 15.7589
L77.5363 15.8193
" />
<path d="M77.5363 15.8193
L77.2944 15.8193
" />
<path d="M77.2944 15.8193
L77.1734 15.7589
" />
<path d="M77.1734 15.7589
L77.1130 15.6379
" />
<path d="M77.1130 15.6379
L77.1130 15.1541
" />
<path d="M77.1130 15.1541
L77.1734 15.0331
" />
<path d="M77.1734 15.0331
L77.2944 14.9727
" />
<path d="M77.2944 14.9727
L77.5363 14.9727
" />
<path d="M77.5363 14.9727
L77.6572 15.0331
" />
<path d="M77.6572 15.0331
L77.7177 15.1541
" />
<path d="M77.7177 15.1541
L77.7177 15.2750
" />
<path d="M77.7177 15.2750
L77.1130 15.3960
" />
<path d="M78.2620 14.9727
L78.2620 15.8193
" />
<path d="M78.2620 15.0936
L78.3225 15.0331
" />
<path d="M78.3225 15.0331
L78.4435 14.9727
" />
<path d="M78.4435 14.9727
L78.6249 14.9727
" />
<path d="M78.6249 14.9727
L78.7458 15.0331
" />
<path d="M78.7458 15.0331
L78.8063 15.1541
" />
<path d="M78.8063 15.1541
L78.8063 15.8193
" />
<path d="M79.4110 15.6984
L79.4715 15.7589
" />
<path d="M79.4715 15.7589
L79.4110 15.8193
" />
<path d="M79.4110 15.8193
L79.3506 15.7589
" />
<path d="M79.3506 15.7589
L79.4110 15.6984
" />
<path d="M79.4110 15.6984
L79.4110 15.8193
" />
<path d="M80.0158 14.9727
L80.0158 16.2427
" />
<path d="M80.0158 15.0331
L80.1368 14.9727
" />
<path d="M80.1368 14.9727
L80.3787 14.9727
" />
<path d="M80.3787 14.9727
L80.4996 15.0331
" />
<path d="M80.4996 15.0331
L80.5601 15.0936
" />
<path d="M80.5601 15.0936
L80.6206 15.2146
" />
<path d="M80.6206 15.2146
L80.6206 15.5774
" />
<path d="M80.6206 15.5774
L80.5601 15.6984
" />
<path d="M80.5601 15.6984
L80.4996 15.7589
" />
<path d="M80.4996 15.7589
L80.3787 15.8193
" />
<path d="M80.3787 15.8193
L80.1368 15.8193
" />
<path d="M80.1368 15.8193
L80.0158 15.7589
" />
<path d="M81.7091 15.8193
L81.7091 14.5493
" />
<path d="M81.7091 15.7589
L81.5882 15.8193
" />
<path d="M81.5882 15.8193
L81.3463 15.8193
" />
<path d="M81.3463 15.8193
L81.2253 15.7589
" />
<path d="M81.2253 15.7589
L81.1648 15.6984
" />
<path d="M81.1648 15.6984
L81.1044 15.5774
" />
<path d="M81.1044 15.5774
L81.1044 15.2146
" />
<path d="M81.1044 15.2146
L81.1648 15.0936
" />
<path d="M81.1648 15.0936
L81.2253 15.0331
" />
<path d="M81.2253 15.0331
L81.3463 14.9727
" />
<path d="M81.3463 14.9727
L81.5882 14.9727
" />
<path d="M81.5882 14.9727
L81.7091 15.0331
" />
<path d="M82.1324 14.9727
L82.6162 14.9727
" />
<path d="M82.3138 15.8193
L82.3138 14.7308
" />
<path d="M82.3138 14.7308
L82.3743 14.6098
" />
<path d="M82.3743 14.6098
L82.4953 14.5493
" />
<path d="M82.4953 14.5493
L82.6162 14.5493
" />
<path d="M83.2210 15.6984
L83.2814 15.7589
" />
<path d="M83.2814 15.7589
L83.2210 15.8193
" />
<path d="M83.2210 15.8193
L83.1605 15.7589
" />
<path d="M83.1605 15.7589
L83.2210 15.6984
" />
<path d="M83.2210 15.6984
L83.2210 15.8193
" />
<path d="M82.9791 14.6098
L83.1000 14.5493
" />
<path d="M83.1000 14.5493
L83.4024 14.5493
" />
<path d="M83.4024 14.5493
L83.5233 14.6098
" />
<path d="M83.5233 14.6098
L83.5838 14.7308
" />
<path d="M83.5838 14.7308
L83.5838 14.8517
" />
<path d="M83.5838 14.8517
L83.5233 14.9727
" />
<path d="M83.5233 14.9727
L83.4629 15.0331
" />
<path d="M83.4629 15.0331
L83.3419 15.0936
" />
<path d="M83.3419 15.0936
L83.2814 15.1541
" />
<path d="M83.2814 15.1541
L83.2210 15.2750
" />
<path d="M83.2210 15.2750
L83.2210 15.3355
" />
<path d="M83.9467 14.9727
L84.4305 14.9727
" />
<path d="M84.1281 15.8193
L84.1281 14.7308
" />
<path d="M84.1281 14.7308
L84.1886 14.6098
" />
<path d="M84.1886 14.6098
L84.3096 14.5493
" />
<path d="M84.3096 14.5493
L84.4305 14.5493
" />
<path d="M84.8538 15.8193
L84.8538 14.9727
" />
<path d="M84.8538 14.5493
L84.7934 14.6098
" />
<path d="M84.7934 14.6098
L84.8538 14.6703
" />
<path d="M84.8538 14.6703
L84.9143 14.6098
" />
<path d="M84.9143 14.6098
L84.8538 14.5493
" />
<path d="M84.8538 14.5493
L84.8538 14.6703
" />
<path d="M85.6401 15.8193
L85.5191 15.7589
" />
<path d="M85.5191 15.7589
L85.4586 15.6379
" />
<path d="M85.4586 15.6379
L85.4586 14.5493
" />
<path d="M86.6076 15.7589
L86.4867 15.8193
" />
<path d="M86.4867 15.8193
L86.2448 15.8193
" />
<path d="M86.2448 15.8193
L86.1238 15.7589
" />
<path d="M86.1238 15.7589
L86.0634 15.6379
" />
<path d="M86.0634 15.6379
L86.0634 15.1541
" />
<path d="M86.0634 15.1541
L86.1238 15.0331
" />
<path d="M86.1238 15.0331
L86.2448 14.9727
" />
<path d="M86.2448 14.9727
L86.4867 14.9727
" />
<path d="M86.4867 14.9727
L86.6076 15.0331
" />
<path d="M86.6076 15.0331
L86.6681 15.1541
" />
<path d="M86.6681 15.1541
L86.6681 15.2750
" />
<path d="M86.6681 15.2750
L86.0634 15.3960
" />
<path d="M87.2124 15.8193
L87.2124 14.5493
" />
<path d="M88.3615 15.8193
L88.3615 14.5493
" />
<path d="M88.3615 15.7589
L88.2406 15.8193
" />
<path d="M88.2406 15.8193
L87.9987 15.8193
" />
<path d="M87.9987 15.8193
L87.8777 15.7589
" />
<path d="M87.8777 15.7589
L87.8172 15.6984
" />
<path d="M87.8172 15.6984
L87.7568 15.5774
" />
<path d="M87.7568 15.5774
L87.7568 15.2146
" />
<path d="M87.7568 15.2146
L87.8172 15.0936
" />
<path d="M87.8172 15.0936
L87.8777 15.0331
" />
<path d="M87.8777 15.0331
L87.9987 14.9727
" />
<path d="M87.9987 14.9727
L88.2406 14.9727
" />
<path d="M88.2406 14.9727
L88.3615 15.0331
" />
<path d="M88.9662 15.1541
L89.9339 15.1541
" />
<path d="M89.9339 15.5169
L88.9662 15.5169
" />
<path d="M91.0829 15.8193
L91.0829 14.5493
" />
<path d="M91.0829 15.7589
L90.9620 15.8193
" />
<path d="M90.9620 15.8193
L90.7201 15.8193
" />
<path d="M90.7201 15.8193
L90.5991 15.7589
" />
<path d="M90.5991 15.7589
L90.5386 15.6984
" />
<path d="M90.5386 15.6984
L90.4782 15.5774
" />
<path d="M90.4782 15.5774
L90.4782 15.2146
" />
<path d="M90.4782 15.2146
L90.5386 15.0936
" />
<path d="M90.5386 15.0936
L90.5991 15.0331
" />
<path d="M90.5991 15.0331
L90.7201 14.9727
" />
<path d="M90.7201 14.9727
L90.9620 14.9727
" />
<path d="M90.9620 14.9727
L91.0829 15.0331
" />
<path d="M91.6876 15.8193
L91.6876 14.5493
" />
<path d="M91.6876 15.0331
L91.8086 14.9727
" />
<path d="M91.8086 14.9727
L92.0505 14.9727
" />
<path d="M92.0505 14.9727
L92.1714 15.0331
" />
<path d="M92.1714 15.0331
L92.2319 15.0936
" />
<path d="M92.2319 15.0936
L92.2924 15.2146
" />
<path d="M92.2924 15.2146
L92.2924 15.5774
" />
<path d="M92.2924 15.5774
L92.2319 15.6984
" />
<path d="M92.2319 15.6984
L92.1714 15.7589
" />
<path d="M92.1714 15.7589
L92.0505 15.8193
" />
<path d="M92.0505 15.8193
L91.8086 15.8193
" />
<path d="M91.8086 15.8193
L91.6876 15.7589
" />
<path d="M92.7157 14.5493
L93.5019 14.5493
" />
<path d="M93.5019 14.5493
L93.0785 15.0331
" />
<path d="M93.0785 15.0331
L93.2600 15.0331
" />
<path d="M93.2600 15.0331
L93.3809 15.0936
" />
<path d="M93.3809 15.0936
L93.4414 15.1541
" />
<path d="M93.4414 15.1541
L93.5019 15.2750
" />
<path d="M93.5019 15.2750
L93.5019 15.5774
" />
<path d="M93.5019 15.5774
L93.4414 15.6984
" />
<path d="M93.4414 15.6984
L93.3809 15.7589
" />
<path d="M93.3809 15.7589
L93.2600 15.8193
" />
<path d="M93.2600 15.8193
L92.8971 15.8193
" />
<path d="M92.8971 15.8193
L92.7762 15.7589
" />
<path d="M92.7762 15.7589
L92.7157 15.6984
" />
<path d="M94.5904 15.8193
L94.5904 15.1541
" />
<path d="M94.5904 15.1541
L94.5299 15.0331
" />
<path d="M94.5299 15.0331
L94.4090 14.9727
" />
<path d="M94.4090 14.9727
L94.1671 14.9727
" />
<path d="M94.1671 14.9727
L94.0461 15.0331
" />
<path d="M94.5904 15.7589
L94.4695 15.8193
" />
<path d="M94.4695 15.8193
L94.1671 15.8193
" />
<path d="M94.1671 15.8193
L94.0461 15.7589
" />
<path d="M94.0461 15.7589
L93.9857 15.6379
" />
<path d="M93.9857 15.6379
L93.9857 15.5169
" />
<path d="M93.9857 15.5169
L94.0461 15.3960
" />
<path d="M94.0461 15.3960
L94.1671 15.3355
" />
<path d="M94.1671 15.3355
L94.4695 15.3355
" />
<path d="M94.4695 15.3355
L94.5904 15.2750
" />
<path d="M95.0742 14.5493
L95.8604 14.5493
" />
<path d="M95.8604 14.5493
L95.4370 15.0331
" />
<path d="M95.4370 15.0331
L95.6185 15.0331
" />
<path d="M95.6185 15.0331
L95.7394 15.0936
" />
<path d="M95.7394 15.0936
L95.7999 15.1541
" />
<path d="M95.7999 15.1541
L95.8604 15.2750
" />
<path d="M95.8604 15.2750
L95.8604 15.5774
" />
<path d="M95.8604 15.5774
L95.7999 15.6984
" />
<path d="M95.7999 15.6984
L95.7394 15.7589
" />
<path d="M95.7394 15.7589
L95.6185 15.8193
" />
<path d="M95.6185 15.8193
L95.2556 15.8193
" />
<path d="M95.2556 15.8193
L95.1347 15.7589
" />
<path d="M95.1347 15.7589
L95.0742 15.6984
" />
<path d="M96.6465 14.5493
L96.7675 14.5493
" />
<path d="M96.7675 14.5493
L96.8884 14.6098
" />
<path d="M96.8884 14.6098
L96.9489 14.6703
" />
<path d="M96.9489 14.6703
L97.0094 14.7912
" />
<path d="M97.0094 14.7912
L97.0699 15.0331
" />
<path d="M97.0699 15.0331
L97.0699 15.3355
" />
<path d="M97.0699 15.3355
L97.0094 15.5774
" />
<path d="M97.0094 15.5774
L96.9489 15.6984
" />
<path d="M96.9489 15.6984
L96.8884 15.7589
" />
<path d="M96.8884 15.7589
L96.7675 15.8193
" />
<path d="M96.7675 15.8193
L96.6465 15.8193
" />
<path d="M96.6465 15.8193
L96.5256 15.7589
" />
<path d="M96.5256 15.7589
L96.4651 15.6984
" />
<path d="M96.4651 15.6984
L96.4046 15.5774
" />
<path d="M96.4046 15.5774
L96.3442 15.3355
" />
<path d="M96.3442 15.3355
L96.3442 15.0331
" />
<path d="M96.3442 15.0331
L96.4046 14.7912
" />
<path d="M96.4046 14.7912
L96.4651 14.6703
" />
<path d="M96.4651 14.6703
L96.5256 14.6098
" />
<path d="M96.5256 14.6098
L96.6465 14.5493
" />
<path d="M98.1584 14.9727
L98.1584 15.8193
" />
<path d="M97.8560 14.4889
L97.5537 15.3960
" />
<path d="M97.5537 15.3960
L98.3398 15.3960
" />
<path d="M99.3679 14.9727
L99.3679 15.8193
" />
<path d="M99.0655 14.4889
L98.7632 15.3960
" />
<path d="M98.7632 15.3960
L99.5493 15.3960
" />
<path d="M100.6984 15.8193
L99.9727 15.8193
" />
<path d="M100.3355 15.8193
L100.3355 14.5493
" />
<path d="M100.3355 14.5493
L100.2146 14.7308
" />
<path d="M100.2146 14.7308
L100.0936 14.8517
" />
<path d="M100.0936 14.8517
L99.9727 14.9122
" />
<path d="M101.1822 14.6703
L101.2426 14.6098
" />
<path d="M101.2426 14.6098
L101.3636 14.5493
" />
<path d="M101.3636 14.5493
L101.6660 14.5493
" />
<path d="M101.6660 14.5493
L101.7869 14.6098
" />
<path d="M101.7869 14.6098
L101.8474 14.6703
" />
<path d="M101.8474 14.6703
L101.9079 14.7912
" />
<path d="M101.9079 14.7912
L101.9079 14.9122
" />
<path d="M101.9079 14.9122
L101.8474 15.0936
" />
<path d="M101.8474 15.0936
L101.1217 15.8193
" />
<path d="M101.1217 15.8193
L101.9079 15.8193
" />
<path d="M102.4521 15.8193
L102.4521 14.5493
" />
<path d="M102.4521 15.0331
L102.5731 14.9727
" />
<path d="M102.5731 14.9727
L102.8150 14.9727
" />
<path d="M102.8150 14.9727
L102.9359 15.0331
" />
<path d="M102.9359 15.0331
L102.9964 15.0936
" />
<path d="M102.9964 15.0936
L103.0569 15.2146
" />
<path d="M103.0569 15.2146
L103.0569 15.5774
" />
<path d="M103.0569 15.5774
L102.9964 15.6984
" />
<path d="M102.9964 15.6984
L102.9359 15.7589
" />
<path d="M102.9359 15.7589
L102.8150 15.8193
" />
<path d="M102.8150 15.8193
L102.5731 15.8193
" />
<path d="M102.5731 15.8193
L102.4521 15.7589
" />
<path d="M104.1454 14.9727
L104.1454 15.8193
" />
<path d="M103.8430 14.4889
L103.5407 15.3960
" />
<path d="M103.5407 15.3960
L104.3268 15.3960
" />
<path d="M105.0525 14.5493
L105.1735 14.5493
" />
<path d="M105.1735 14.5493
L105.2944 14.6098
" />
<path d="M105.2944 14.6098
L105.3549 14.6703
" />
<path d="M105.3549 14.6703
L105.4154 14.7912
" />
<path d="M105.4154 14.7912
L105.4759 15.0331
" />
<path d="M105.4759 15.0331
L105.4759 15.3355
" />
<path d="M105.4759 15.3355
L105.4154 15.5774
" />
<path d="M105.4154 15.5774
L105.3549 15.6984
" />
<path d="M105.3549 15.6984
L105.2944 15.7589
" />
<path d="M105.2944 15.7589
L105.1735 15.8193
" />
<path d="M105.1735 15.8193
L105.0525 15.8193
" />
<path d="M105.0525 15.8193
L104.9316 15.7589
" />
<path d="M104.9316 15.7589
L104.8711 15.6984
" />
<path d="M104.8711 15.6984
L104.8106 15.5774
" />
<path d="M104.8106 15.5774
L104.7502 15.3355
" />
<path d="M104.7502 15.3355
L104.7502 15.0331
" />
<path d="M104.7502 15.0331
L104.8106 14.7912
" />
<path d="M104.8106 14.7912
L104.8711 14.6703
" />
<path d="M104.8711 14.6703
L104.9316 14.6098
" />
<path d="M104.9316 14.6098
L105.0525 14.5493
" />
<path d="M105.8992 14.5493
L106.7458 14.5493
" />
<path d="M106.7458 14.5493
L106.2016 15.8193
" />
<path d="M107.2901 15.8193
L107.5320 15.8193
" />
<path d="M107.5320 15.8193
L107.6530 15.7589
" />
<path d="M107.6530 15.7589
L107.7134 15.6984
" />
<path d="M107.7134 15.6984
L107.8344 15.5169
" />
<path d="M107.8344 15.5169
L107.8949 15.2750
" />
<path d="M107.8949 15.2750
L107.8949 14.7912
" />
<path d="M107.8949 14.7912
L107.8344 14.6703
" />
<path d="M107.8344 14.6703
L107.7739 14.6098
" />
<path d="M107.7739 14.6098
L107.6530 14.5493
" />
<path d="M107.6530 14.5493
L107.4111 14.5493
" />
<path d="M107.4111 14.5493
L107.2901 14.6098
" />
<path d="M107.2901 14.6098
L107.2296 14.6703
" />
<path d="M107.2296 14.6703
L107.1692 14.7912
" />
<path d="M107.1692 14.7912
L107.1692 15.0936
" />
<path d="M107.1692 15.0936
L107.2296 15.2146
" />
<path d="M107.2296 15.2146
L107.2901 15.2750
" />
<path d="M107.2901 15.2750
L107.4111 15.3355
" />
<path d="M107.4111 15.3355
L107.6530 15.3355
" />
<path d="M107.6530 15.3355
L107.7739 15.2750
" />
<path d="M107.7739 15.2750
L107.8344 15.2146
" />
<path d="M107.8344 15.2146
L107.8949 15.0936
" />
<path d="M109.0439 14.5493
L108.4391 14.5493
" />
<path d="M108.4391 14.5493
L108.3787 15.1541
" />
<path d="M108.3787 15.1541
L108.4391 15.0936
" />
<path d="M108.4391 15.0936
L108.5601 15.0331
" />
<path d="M108.5601 15.0331
L108.8625 15.0331
" />
<path d="M108.8625 15.0331
L108.9834 15.0936
" />
<path d="M108.9834 15.0936
L109.0439 15.1541
" />
<path d="M109.0439 15.1541
L109.1044 15.2750
" />
<path d="M109.1044 15.2750
L109.1044 15.5774
" />
<path d="M109.1044 15.5774
L109.0439 15.6984
" />
<path d="M109.0439 15.6984
L108.9834 15.7589
" />
<path d="M108.9834 15.7589
L108.8625 15.8193
" />
<path d="M108.8625 15.8193
L108.5601 15.8193
" />
<path d="M108.5601 15.8193
L108.4391 15.7589
" />
<path d="M108.4391 15.7589
L108.3787 15.6984
" />
<path d="M109.8905 14.5493
L110.0115 14.5493
" />
<path d="M110.0115 14.5493
L110.1324 14.6098
" />
<path d="M110.1324 14.6098
L110.1929 14.6703
" />
<path d="M110.1929 14.6703
L110.2534 14.7912
" />
<path d="M110.2534 14.7912
L110.3139 15.0331
" />
<path d="M110.3139 15.0331
L110.3139 15.3355
" />
<path d="M110.3139 15.3355
L110.2534 15.5774
" />
<path d="M110.2534 15.5774
L110.1929 15.6984
" />
<path d="M110.1929 15.6984
L110.1324 15.7589
" />
<path d="M110.1324 15.7589
L110.0115 15.8193
" />
<path d="M110.0115 15.8193
L109.8905 15.8193
" />
<path d="M109.8905 15.8193
L109.7696 15.7589
" />
<path d="M109.7696 15.7589
L109.7091 15.6984
" />
<path d="M109.7091 15.6984
L109.6486 15.5774
" />
<path d="M109.6486 15.5774
L109.5882 15.3355
" />
<path d="M109.5882 15.3355
L109.5882 15.0331
" />
<path d="M109.5882 15.0331
L109.6486 14.7912
" />
<path d="M109.6486 14.7912
L109.7091 14.6703
" />
<path d="M109.7091 14.6703
L109.7696 14.6098
" />
<path d="M109.7696 14.6098
L109.8905 14.5493
" />
<path d="M111.5234 15.8193
L110.7977 15.8193
" />
<path d="M111.1605 15.8193
L111.1605 14.5493
" />
<path d="M111.1605 14.5493
L111.0396 14.7308
" />
<path d="M111.0396 14.7308
L110.9186 14.8517
" />
<path d="M110.9186 14.8517
L110.7977 14.9122
" />
<path d="M112.7329 15.8193
L112.0072 15.8193
" />
<path d="M112.3700 15.8193
L112.3700 14.5493
" />
<path d="M112.3700 14.5493
L112.2491 14.7308
" />
<path d="M112.2491 14.7308
L112.1281 14.8517
" />
<path d="M112.1281 14.8517
L112.0072 14.9122
" />
<path d="M113.2167 14.6703
L113.2771 14.6098
" />
<path d="M113.2771 14.6098
L113.3981 14.5493
" />
<path d="M113.3981 14.5493
L113.7005 14.5493
" />
<path d="M113.7005 14.5493
L113.8214 14.6098
" />
<path d="M113.8214 14.6098
L113.8819 14.6703
" />
<path d="M113.8819 14.6703
L113.9424 14.7912
" />
<path d="M113.9424 14.7912
L113.9424 14.9122
" />
<path d="M113.9424 14.9122
L113.8819 15.0936
" />
<path d="M113.8819 15.0936
L113.1562 15.8193
" />
<path d="M113.1562 15.8193
L113.9424 15.8193
" />
<path d="M114.4866 15.8193
L114.4866 14.5493
" />
<path d="M114.4866 15.0331
L114.6076 14.9727
" />
<path d="M114.6076 14.9727
L114.8495 14.9727
" />
<path d="M114.8495 14.9727
L114.9704 15.0331
" />
<path d="M114.9704 15.0331
L115.0309 15.0936
" />
<path d="M115.0309 15.0936
L115.0914 15.2146
" />
<path d="M115.0914 15.2146
L115.0914 15.5774
" />
<path d="M115.0914 15.5774
L115.0309 15.6984
" />
<path d="M115.0309 15.6984
L114.9704 15.7589
" />
<path d="M114.9704 15.7589
L114.8495 15.8193
" />
<path d="M114.8495 15.8193
L114.6076 15.8193
" />
<path d="M114.6076 15.8193
L114.4866 15.7589
" />
<path d="M116.1799 14.9727
L116.1799 15.8193
" />
<path d="M115.8775 14.4889
L115.5752 15.3960
" />
<path d="M115.5752 15.3960
L116.3613 15.3960
" />
<path d="M116.7847 14.6703
L116.8451 14.6098
" />
<path d="M116.8451 14.6098
L116.9661 14.5493
" />
<path d="M116.9661 14.5493
L117.2685 14.5493
" />
<path d="M117.2685 14.5493
L117.3894 14.6098
" />
<path d="M117.3894 14.6098
L117.4499 14.6703
" />
<path d="M117.4499 14.6703
L117.5104 14.7912
" />
<path d="M117.5104 14.7912
L117.5104 14.9122
" />
<path d="M117.5104 14.9122
L117.4499 15.0936
" />
<path d="M117.4499 15.0936
L116.7242 15.8193
" />
<path d="M116.7242 15.8193
L117.5104 15.8193
" />
<path d="M117.9337 14.5493
L118.7803 14.5493
" />
<path d="M118.7803 14.5493
L118.2361 15.8193
" />
<path d="M119.8084 15.7589
L119.6875 15.8193
" />
<path d="M119.6875 15.8193
L119.4456 15.8193
" />
<path d="M119.4456 15.8193
L119.3246 15.7589
" />
<path d="M119.3246 15.7589
L119.2641 15.6984
" />
<path d="M119.2641 15.6984
L119.2037 15.5774
" />
<path d="M119.2037 15.5774
L119.2037 15.2146
" />
<path d="M119.2037 15.2146
L119.2641 15.0936
" />
<path d="M119.2641 15.0936
L119.3246 15.0331
" />
<path d="M119.3246 15.0331
L119.4456 14.9727
" />
<path d="M119.4456 14.9727
L119.6875 14.9727
" />
<path d="M119.6875 14.9727
L119.8084 15.0331
" />
<path d="M120.8970 14.5493
L120.6551 14.5493
" />
<path d="M120.6551 14.5493
L120.5342 14.6098
" />
<path d="M120.5342 14.6098
L120.4737 14.6703
" />
<path d="M120.4737 14.6703
L120.3527 14.8517
" />
<path d="M120.3527 14.8517
L120.2923 15.0936
" />
<path d="M120.2923 15.0936
L120.2923 15.5774
" />
<path d="M120.2923 15.5774
L120.3527 15.6984
" />
<path d="M120.3527 15.6984
L120.4132 15.7589
" />
<path d="M120.4132 15.7589
L120.5342 15.8193
" />
<path d="M120.5342 15.8193
L120.7761 15.8193
" />
<path d="M120.7761 15.8193
L120.8970 15.7589
" />
<path d="M120.8970 15.7589
L120.9575 15.6984
" />
<path d="M120.9575 15.6984
L121.0180 15.5774
" />
<path d="M121.0180 15.5774
L121.0180 15.2750
" />
<path d="M121.0180 15.2750
L120.9575 15.1541
" />
<path d="M120.9575 15.1541
L120.8970 15.0936
" />
<path d="M120.8970 15.0936
L120.7761 15.0331
" />
<path d="M120.7761 15.0331
L120.5342 15.0331
" />
<path d="M120.5342 15.0331
L120.4132 15.0936
" />
<path d="M120.4132 15.0936
L120.3527 15.1541
" />
<path d="M120.3527 15.1541
L120.2923 15.2750
" />
<path d="M121.3808 14.9727
L121.8646 14.9727
" />
<path d="M121.5622 15.8193
L121.5622 14.7308
" />
<path d="M121.5622 14.7308
L121.6227 14.6098
" />
<path d="M121.6227 14.6098
L121.7437 14.5493
" />
<path d="M121.7437 14.5493
L121.8646 14.5493
" />
<path d="M122.9532 15.8193
L122.2275 15.8193
" />
<path d="M122.5903 15.8193
L122.5903 14.5493
" />
<path d="M122.5903 14.5493
L122.4694 14.7308
" />
<path d="M122.4694 14.7308
L122.3484 14.8517
" />
<path d="M122.3484 14.8517
L122.2275 14.9122
" />
<path d="M123.3765 14.5493
L124.1627 14.5493
" />
<path d="M124.1627 14.5493
L123.7393 15.0331
" />
<path d="M123.7393 15.0331
L123.9208 15.0331
" />
<path d="M123.9208 15.0331
L124.0417 15.0936
" />
<path d="M124.0417 15.0936
L124.1022 15.1541
" />
<path d="M124.1022 15.1541
L124.1627 15.2750
" />
<path d="M124.1627 15.2750
L124.1627 15.5774
" />
<path d="M124.1627 15.5774
L124.1022 15.6984
" />
<path d="M124.1022 15.6984
L124.0417 15.7589
" />
<path d="M124.0417 15.7589
L123.9208 15.8193
" />
<path d="M123.9208 15.8193
L123.5579 15.8193
" />
<path d="M123.5579 15.8193
L123.4370 15.7589
" />
<path d="M123.4370 15.7589
L123.3765 15.6984
" />
<path d="M125.2512 15.7589
L125.1303 15.8193
" />
<path d="M125.1303 15.8193
L124.8884 15.8193
" />
<path d="M124.8884 15.8193
L124.7674 15.7589
" />
<path d="M124.7674 15.7589
L124.7069 15.6984
" />
<path d="M124.7069 15.6984
L124.6465 15.5774
" />
<path d="M124.6465 15.5774
L124.6465 15.2146
" />
<path d="M124.6465 15.2146
L124.7069 15.0936
" />
<path d="M124.7069 15.0936
L124.7674 15.0331
" />
<path d="M124.7674 15.0331
L124.8884 14.9727
" />
<path d="M124.8884 14.9727
L125.1303 14.9727
" />
<path d="M125.1303 14.9727
L125.2512 15.0331
" />
<path d="M126.3398 15.7589
L126.2189 15.8193
" />
<path d="M126.2189 15.8193
L125.9770 15.8193
" />
<path d="M125.9770 15.8193
L125.8560 15.7589
" />
<path d="M125.8560 15.7589
L125.7955 15.6984
" />
<path d="M125.7955 15.6984
L125.7351 15.5774
" />
<path d="M125.7351 15.5774
L125.7351 15.2146
" />
<path d="M125.7351 15.2146
L125.7955 15.0936
" />
<path d="M125.7955 15.0936
L125.8560 15.0331
" />
<path d="M125.8560 15.0331
L125.9770 14.9727
" />
<path d="M125.9770 14.9727
L126.2189 14.9727
" />
<path d="M126.2189 14.9727
L126.3398 15.0331
" />
<path d="M126.7632 14.5493
L127.6098 14.5493
" />
<path d="M127.6098 14.5493
L127.0656 15.8193
" />
</g></g> 
</svg>
