<?xml version="1.0" standalone="no"?>
 <!DOCTYPE svg PUBLIC "-//W3C//DTD SVG 1.1//EN" 
 "http://www.w3.org/Graphics/SVG/1.1/DTD/svg11.dtd"> 
<svg
  xmlns:svg="http://www.w3.org/2000/svg"
  xmlns="http://www.w3.org/2000/svg"
  xmlns:xlink="http://www.w3.org/1999/xlink"
  version="1.1"
  width="22.7584mm" height="10.8458mm" viewBox="0.0000 0.0000 22.7584 10.8458">
<title>SVG Image created as working.svg date 2023/08/11 09:36:11 </title>
  <desc>Image generated by Eeschema-SVG </desc>
<g style="fill:#000000; fill-opacity:1.0000;stroke:#000000; stroke-opacity:1.0000;
stroke-linecap:round; stroke-linejoin:round;"
 transform="translate(0 0) scale(1 1)">
</g>
<g style="fill:#840000; fill-opacity:0.0; 
stroke:#840000; stroke-width:0.0000; stroke-opacity:1; 
stroke-linecap:round; stroke-linejoin:round;">
</g>
<g style="fill:#840084; fill-opacity:0.0; 
stroke:#840084; stroke-width:0.0000; stroke-opacity:1; 
stroke-linecap:round; stroke-linejoin:round;">
</g>
<g style="fill:#840000; fill-opacity:0.0; 
stroke:#840000; stroke-width:0.0000; stroke-opacity:1; 
stroke-linecap:round; stroke-linejoin:round;">
</g>
<g style="fill:#840084; fill-opacity:0.0; 
stroke:#840084; stroke-width:0.0000; stroke-opacity:1; 
stroke-linecap:round; stroke-linejoin:round;">
</g>
<g style="fill:#006464; fill-opacity:0.0; 
stroke:#006464; stroke-width:0.0000; stroke-opacity:1; 
stroke-linecap:round; stroke-linejoin:round;">
</g>
<g style="fill:#006464; fill-opacity:0.0; 
stroke:#006464; stroke-width:0.1588; stroke-opacity:1; 
stroke-linecap:round; stroke-linejoin:round;">
<text x="19.0923" y="2.5594"
textLength="3.5486" font-size="1.6933" lengthAdjust="spacingAndGlyphs"
text-anchor="middle" opacity="0">LS?</text>
<g class="stroked-text"><desc>LS?</desc>
<path d="M18.3363 2.5036
L17.7315 2.5036
" />
<path d="M17.7315 2.5036
L17.7315 1.2336
" />
<path d="M18.6992 2.4432
L18.8806 2.5036
" />
<path d="M18.8806 2.5036
L19.1830 2.5036
" />
<path d="M19.1830 2.5036
L19.3039 2.4432
" />
<path d="M19.3039 2.4432
L19.3644 2.3827
" />
<path d="M19.3644 2.3827
L19.4249 2.2617
" />
<path d="M19.4249 2.2617
L19.4249 2.1408
" />
<path d="M19.4249 2.1408
L19.3644 2.0198
" />
<path d="M19.3644 2.0198
L19.3039 1.9593
" />
<path d="M19.3039 1.9593
L19.1830 1.8989
" />
<path d="M19.1830 1.8989
L18.9411 1.8384
" />
<path d="M18.9411 1.8384
L18.8201 1.7779
" />
<path d="M18.8201 1.7779
L18.7596 1.7174
" />
<path d="M18.7596 1.7174
L18.6992 1.5965
" />
<path d="M18.6992 1.5965
L18.6992 1.4755
" />
<path d="M18.6992 1.4755
L18.7596 1.3546
" />
<path d="M18.7596 1.3546
L18.8201 1.2941
" />
<path d="M18.8201 1.2941
L18.9411 1.2336
" />
<path d="M18.9411 1.2336
L19.2434 1.2336
" />
<path d="M19.2434 1.2336
L19.4249 1.2941
" />
<path d="M20.1506 2.3827
L20.2110 2.4432
" />
<path d="M20.2110 2.4432
L20.1506 2.5036
" />
<path d="M20.1506 2.5036
L20.0901 2.4432
" />
<path d="M20.0901 2.4432
L20.1506 2.3827
" />
<path d="M20.1506 2.3827
L20.1506 2.5036
" />
<path d="M19.9087 1.2941
L20.0296 1.2336
" />
<path d="M20.0296 1.2336
L20.3320 1.2336
" />
<path d="M20.3320 1.2336
L20.4529 1.2941
" />
<path d="M20.4529 1.2941
L20.5134 1.4151
" />
<path d="M20.5134 1.4151
L20.5134 1.5360
" />
<path d="M20.5134 1.5360
L20.4529 1.6570
" />
<path d="M20.4529 1.6570
L20.3925 1.7174
" />
<path d="M20.3925 1.7174
L20.2715 1.7779
" />
<path d="M20.2715 1.7779
L20.2110 1.8384
" />
<path d="M20.2110 1.8384
L20.1506 1.9593
" />
<path d="M20.1506 1.9593
L20.1506 2.0198
" />
</g><text x="11.3817" y="4.4644"
textLength="18.9697" font-size="1.6933" lengthAdjust="spacingAndGlyphs"
text-anchor="middle" opacity="0">Speaker_Ultrasound</text>
<g class="stroked-text"><desc>Speaker_Ultrasound</desc>
<path d="M2.2500 4.3482
L2.4314 4.4086
" />
<path d="M2.4314 4.4086
L2.7338 4.4086
" />
<path d="M2.7338 4.4086
L2.8547 4.3482
" />
<path d="M2.8547 4.3482
L2.9152 4.2877
" />
<path d="M2.9152 4.2877
L2.9757 4.1667
" />
<path d="M2.9757 4.1667
L2.9757 4.0458
" />
<path d="M2.9757 4.0458
L2.9152 3.9248
" />
<path d="M2.9152 3.9248
L2.8547 3.8643
" />
<path d="M2.8547 3.8643
L2.7338 3.8039
" />
<path d="M2.7338 3.8039
L2.4919 3.7434
" />
<path d="M2.4919 3.7434
L2.3709 3.6829
" />
<path d="M2.3709 3.6829
L2.3104 3.6224
" />
<path d="M2.3104 3.6224
L2.2500 3.5015
" />
<path d="M2.2500 3.5015
L2.2500 3.3805
" />
<path d="M2.2500 3.3805
L2.3104 3.2596
" />
<path d="M2.3104 3.2596
L2.3709 3.1991
" />
<path d="M2.3709 3.1991
L2.4919 3.1386
" />
<path d="M2.4919 3.1386
L2.7942 3.1386
" />
<path d="M2.7942 3.1386
L2.9757 3.1991
" />
<path d="M3.5199 3.5620
L3.5199 4.8320
" />
<path d="M3.5199 3.6224
L3.6409 3.5620
" />
<path d="M3.6409 3.5620
L3.8828 3.5620
" />
<path d="M3.8828 3.5620
L4.0037 3.6224
" />
<path d="M4.0037 3.6224
L4.0642 3.6829
" />
<path d="M4.0642 3.6829
L4.1247 3.8039
" />
<path d="M4.1247 3.8039
L4.1247 4.1667
" />
<path d="M4.1247 4.1667
L4.0642 4.2877
" />
<path d="M4.0642 4.2877
L4.0037 4.3482
" />
<path d="M4.0037 4.3482
L3.8828 4.4086
" />
<path d="M3.8828 4.4086
L3.6409 4.4086
" />
<path d="M3.6409 4.4086
L3.5199 4.3482
" />
<path d="M5.1527 4.3482
L5.0318 4.4086
" />
<path d="M5.0318 4.4086
L4.7899 4.4086
" />
<path d="M4.7899 4.4086
L4.6689 4.3482
" />
<path d="M4.6689 4.3482
L4.6085 4.2272
" />
<path d="M4.6085 4.2272
L4.6085 3.7434
" />
<path d="M4.6085 3.7434
L4.6689 3.6224
" />
<path d="M4.6689 3.6224
L4.7899 3.5620
" />
<path d="M4.7899 3.5620
L5.0318 3.5620
" />
<path d="M5.0318 3.5620
L5.1527 3.6224
" />
<path d="M5.1527 3.6224
L5.2132 3.7434
" />
<path d="M5.2132 3.7434
L5.2132 3.8643
" />
<path d="M5.2132 3.8643
L4.6085 3.9853
" />
<path d="M6.3018 4.4086
L6.3018 3.7434
" />
<path d="M6.3018 3.7434
L6.2413 3.6224
" />
<path d="M6.2413 3.6224
L6.1204 3.5620
" />
<path d="M6.1204 3.5620
L5.8785 3.5620
" />
<path d="M5.8785 3.5620
L5.7575 3.6224
" />
<path d="M6.3018 4.3482
L6.1809 4.4086
" />
<path d="M6.1809 4.4086
L5.8785 4.4086
" />
<path d="M5.8785 4.4086
L5.7575 4.3482
" />
<path d="M5.7575 4.3482
L5.6971 4.2272
" />
<path d="M5.6971 4.2272
L5.6971 4.1062
" />
<path d="M5.6971 4.1062
L5.7575 3.9853
" />
<path d="M5.7575 3.9853
L5.8785 3.9248
" />
<path d="M5.8785 3.9248
L6.1809 3.9248
" />
<path d="M6.1809 3.9248
L6.3018 3.8643
" />
<path d="M6.9065 4.4086
L6.9065 3.1386
" />
<path d="M7.0275 3.9248
L7.3903 4.4086
" />
<path d="M7.3903 3.5620
L6.9065 4.0458
" />
<path d="M8.4184 4.3482
L8.2975 4.4086
" />
<path d="M8.2975 4.4086
L8.0556 4.4086
" />
<path d="M8.0556 4.4086
L7.9346 4.3482
" />
<path d="M7.9346 4.3482
L7.8742 4.2272
" />
<path d="M7.8742 4.2272
L7.8742 3.7434
" />
<path d="M7.8742 3.7434
L7.9346 3.6224
" />
<path d="M7.9346 3.6224
L8.0556 3.5620
" />
<path d="M8.0556 3.5620
L8.2975 3.5620
" />
<path d="M8.2975 3.5620
L8.4184 3.6224
" />
<path d="M8.4184 3.6224
L8.4789 3.7434
" />
<path d="M8.4789 3.7434
L8.4789 3.8643
" />
<path d="M8.4789 3.8643
L7.8742 3.9853
" />
<path d="M9.0232 4.4086
L9.0232 3.5620
" />
<path d="M9.0232 3.8039
L9.0837 3.6829
" />
<path d="M9.0837 3.6829
L9.1442 3.6224
" />
<path d="M9.1442 3.6224
L9.2651 3.5620
" />
<path d="M9.2651 3.5620
L9.3861 3.5620
" />
<path d="M9.5071 4.5296
L10.4747 4.5296
" />
<path d="M10.7770 3.1386
L10.7770 4.1667
" />
<path d="M10.7770 4.1667
L10.8375 4.2877
" />
<path d="M10.8375 4.2877
L10.8980 4.3482
" />
<path d="M10.8980 4.3482
L11.0189 4.4086
" />
<path d="M11.0189 4.4086
L11.2608 4.4086
" />
<path d="M11.2608 4.4086
L11.3818 4.3482
" />
<path d="M11.3818 4.3482
L11.4423 4.2877
" />
<path d="M11.4423 4.2877
L11.5027 4.1667
" />
<path d="M11.5027 4.1667
L11.5027 3.1386
" />
<path d="M12.2890 4.4086
L12.1680 4.3482
" />
<path d="M12.1680 4.3482
L12.1075 4.2272
" />
<path d="M12.1075 4.2272
L12.1075 3.1386
" />
<path d="M12.5913 3.5620
L13.0751 3.5620
" />
<path d="M12.7727 3.1386
L12.7727 4.2272
" />
<path d="M12.7727 4.2272
L12.8332 4.3482
" />
<path d="M12.8332 4.3482
L12.9542 4.4086
" />
<path d="M12.9542 4.4086
L13.0751 4.4086
" />
<path d="M13.4984 4.4086
L13.4984 3.5620
" />
<path d="M13.4984 3.8039
L13.5589 3.6829
" />
<path d="M13.5589 3.6829
L13.6194 3.6224
" />
<path d="M13.6194 3.6224
L13.7403 3.5620
" />
<path d="M13.7403 3.5620
L13.8613 3.5620
" />
<path d="M14.8289 4.4086
L14.8289 3.7434
" />
<path d="M14.8289 3.7434
L14.7684 3.6224
" />
<path d="M14.7684 3.6224
L14.6475 3.5620
" />
<path d="M14.6475 3.5620
L14.4056 3.5620
" />
<path d="M14.4056 3.5620
L14.2846 3.6224
" />
<path d="M14.8289 4.3482
L14.7080 4.4086
" />
<path d="M14.7080 4.4086
L14.4056 4.4086
" />
<path d="M14.4056 4.4086
L14.2846 4.3482
" />
<path d="M14.2846 4.3482
L14.2242 4.2272
" />
<path d="M14.2242 4.2272
L14.2242 4.1062
" />
<path d="M14.2242 4.1062
L14.2846 3.9853
" />
<path d="M14.2846 3.9853
L14.4056 3.9248
" />
<path d="M14.4056 3.9248
L14.7080 3.9248
" />
<path d="M14.7080 3.9248
L14.8289 3.8643
" />
<path d="M15.3732 4.3482
L15.4941 4.4086
" />
<path d="M15.4941 4.4086
L15.7360 4.4086
" />
<path d="M15.7360 4.4086
L15.8570 4.3482
" />
<path d="M15.8570 4.3482
L15.9174 4.2272
" />
<path d="M15.9174 4.2272
L15.9174 4.1667
" />
<path d="M15.9174 4.1667
L15.8570 4.0458
" />
<path d="M15.8570 4.0458
L15.7360 3.9853
" />
<path d="M15.7360 3.9853
L15.5546 3.9853
" />
<path d="M15.5546 3.9853
L15.4336 3.9248
" />
<path d="M15.4336 3.9248
L15.3732 3.8039
" />
<path d="M15.3732 3.8039
L15.3732 3.7434
" />
<path d="M15.3732 3.7434
L15.4336 3.6224
" />
<path d="M15.4336 3.6224
L15.5546 3.5620
" />
<path d="M15.5546 3.5620
L15.7360 3.5620
" />
<path d="M15.7360 3.5620
L15.8570 3.6224
" />
<path d="M16.6432 4.4086
L16.5222 4.3482
" />
<path d="M16.5222 4.3482
L16.4617 4.2877
" />
<path d="M16.4617 4.2877
L16.4013 4.1667
" />
<path d="M16.4013 4.1667
L16.4013 3.8039
" />
<path d="M16.4013 3.8039
L16.4617 3.6829
" />
<path d="M16.4617 3.6829
L16.5222 3.6224
" />
<path d="M16.5222 3.6224
L16.6432 3.5620
" />
<path d="M16.6432 3.5620
L16.8246 3.5620
" />
<path d="M16.8246 3.5620
L16.9455 3.6224
" />
<path d="M16.9455 3.6224
L17.0060 3.6829
" />
<path d="M17.0060 3.6829
L17.0665 3.8039
" />
<path d="M17.0665 3.8039
L17.0665 4.1667
" />
<path d="M17.0665 4.1667
L17.0060 4.2877
" />
<path d="M17.0060 4.2877
L16.9455 4.3482
" />
<path d="M16.9455 4.3482
L16.8246 4.4086
" />
<path d="M16.8246 4.4086
L16.6432 4.4086
" />
<path d="M18.1550 3.5620
L18.1550 4.4086
" />
<path d="M17.6107 3.5620
L17.6107 4.2272
" />
<path d="M17.6107 4.2272
L17.6712 4.3482
" />
<path d="M17.6712 4.3482
L17.7922 4.4086
" />
<path d="M17.7922 4.4086
L17.9736 4.4086
" />
<path d="M17.9736 4.4086
L18.0945 4.3482
" />
<path d="M18.0945 4.3482
L18.1550 4.2877
" />
<path d="M18.7597 3.5620
L18.7597 4.4086
" />
<path d="M18.7597 3.6829
L18.8202 3.6224
" />
<path d="M18.8202 3.6224
L18.9412 3.5620
" />
<path d="M18.9412 3.5620
L19.1226 3.5620
" />
<path d="M19.1226 3.5620
L19.2435 3.6224
" />
<path d="M19.2435 3.6224
L19.3040 3.7434
" />
<path d="M19.3040 3.7434
L19.3040 4.4086
" />
<path d="M20.4530 4.4086
L20.4530 3.1386
" />
<path d="M20.4530 4.3482
L20.3321 4.4086
" />
<path d="M20.3321 4.4086
L20.0902 4.4086
" />
<path d="M20.0902 4.4086
L19.9692 4.3482
" />
<path d="M19.9692 4.3482
L19.9087 4.2877
" />
<path d="M19.9087 4.2877
L19.8483 4.1667
" />
<path d="M19.8483 4.1667
L19.8483 3.8039
" />
<path d="M19.8483 3.8039
L19.9087 3.6829
" />
<path d="M19.9087 3.6829
L19.9692 3.6224
" />
<path d="M19.9692 3.6224
L20.0902 3.5620
" />
<path d="M20.0902 3.5620
L20.3321 3.5620
" />
<path d="M20.3321 3.5620
L20.4530 3.6224
" />
</g></g>
<g style="fill:#840084; fill-opacity:0.0; 
stroke:#840084; stroke-width:0.1588; stroke-opacity:1; 
stroke-linecap:round; stroke-linejoin:round;">
<text x="19.3426" y="9.5444"
textLength="1.1295" font-size="1.6933" lengthAdjust="spacingAndGlyphs"
text-anchor="middle" opacity="0">~</text>
<g class="stroked-text"><desc>~</desc>
<path d="M19.0100 9.0048
L19.0705 8.9443
" />
<path d="M19.0705 8.9443
L19.1914 8.8839
" />
<path d="M19.1914 8.8839
L19.4333 9.0048
" />
<path d="M19.4333 9.0048
L19.5543 8.9443
" />
<path d="M19.5543 8.9443
L19.6148 8.8839
" />
</g></g> 
</svg>
