<?xml version="1.0" standalone="no"?>
 <!DOCTYPE svg PUBLIC "-//W3C//DTD SVG 1.1//EN" 
 "http://www.w3.org/Graphics/SVG/1.1/DTD/svg11.dtd"> 
<svg
  xmlns:svg="http://www.w3.org/2000/svg"
  xmlns="http://www.w3.org/2000/svg"
  xmlns:xlink="http://www.w3.org/1999/xlink"
  version="1.1"
  width="136.1948mm" height="83.2358mm" viewBox="0.0000 0.0000 136.1948 83.2358">
<title>SVG Image created as working.svg date 2023/08/18 17:37:10 </title>
  <desc>Image generated by Eeschema-SVG </desc>
<g style="fill:#000000; fill-opacity:1.0000;stroke:#000000; stroke-opacity:1.0000;
stroke-linecap:round; stroke-linejoin:round;"
 transform="translate(0 0) scale(1 1)">
</g>
<g style="fill:#840000; fill-opacity:0.0; 
stroke:#840000; stroke-width:0.0000; stroke-opacity:1; 
stroke-linecap:round; stroke-linejoin:round;">
</g>
<g style="fill:#840084; fill-opacity:0.0; 
stroke:#840084; stroke-width:0.0000; stroke-opacity:1; 
stroke-linecap:round; stroke-linejoin:round;">
</g>
<g style="fill:#840000; fill-opacity:0.0; 
stroke:#840000; stroke-width:0.0000; stroke-opacity:1; 
stroke-linecap:round; stroke-linejoin:round;">
</g>
<g style="fill:#840084; fill-opacity:0.0; 
stroke:#840084; stroke-width:0.0000; stroke-opacity:1; 
stroke-linecap:round; stroke-linejoin:round;">
</g>
<g style="fill:#006464; fill-opacity:0.0; 
stroke:#006464; stroke-width:0.0000; stroke-opacity:1; 
stroke-linecap:round; stroke-linejoin:round;">
</g>
<g style="fill:#006464; fill-opacity:0.0; 
stroke:#006464; stroke-width:0.1588; stroke-opacity:1; 
stroke-linecap:round; stroke-linejoin:round;">
<text x="49.0460" y="75.9019"
textLength="3.7301" font-size="1.6933" lengthAdjust="spacingAndGlyphs"
text-anchor="middle" opacity="0">U??</text>
<g class="stroked-text"><desc>U??</desc>
<path d="M47.5945 74.5761
L47.5945 75.6042
" />
<path d="M47.5945 75.6042
L47.6550 75.7252
" />
<path d="M47.6550 75.7252
L47.7155 75.7857
" />
<path d="M47.7155 75.7857
L47.8364 75.8461
" />
<path d="M47.8364 75.8461
L48.0783 75.8461
" />
<path d="M48.0783 75.8461
L48.1993 75.7857
" />
<path d="M48.1993 75.7857
L48.2598 75.7252
" />
<path d="M48.2598 75.7252
L48.3202 75.6042
" />
<path d="M48.3202 75.6042
L48.3202 74.5761
" />
<path d="M49.1065 75.7252
L49.1669 75.7857
" />
<path d="M49.1669 75.7857
L49.1065 75.8461
" />
<path d="M49.1065 75.8461
L49.0460 75.7857
" />
<path d="M49.0460 75.7857
L49.1065 75.7252
" />
<path d="M49.1065 75.7252
L49.1065 75.8461
" />
<path d="M48.8646 74.6366
L48.9855 74.5761
" />
<path d="M48.9855 74.5761
L49.2879 74.5761
" />
<path d="M49.2879 74.5761
L49.4088 74.6366
" />
<path d="M49.4088 74.6366
L49.4693 74.7576
" />
<path d="M49.4693 74.7576
L49.4693 74.8785
" />
<path d="M49.4693 74.8785
L49.4088 74.9995
" />
<path d="M49.4088 74.9995
L49.3484 75.0599
" />
<path d="M49.3484 75.0599
L49.2274 75.1204
" />
<path d="M49.2274 75.1204
L49.1669 75.1809
" />
<path d="M49.1669 75.1809
L49.1065 75.3018
" />
<path d="M49.1065 75.3018
L49.1065 75.3623
" />
<path d="M50.1951 75.7252
L50.2555 75.7857
" />
<path d="M50.2555 75.7857
L50.1951 75.8461
" />
<path d="M50.1951 75.8461
L50.1346 75.7857
" />
<path d="M50.1346 75.7857
L50.1951 75.7252
" />
<path d="M50.1951 75.7252
L50.1951 75.8461
" />
<path d="M49.9532 74.6366
L50.0741 74.5761
" />
<path d="M50.0741 74.5761
L50.3765 74.5761
" />
<path d="M50.3765 74.5761
L50.4974 74.6366
" />
<path d="M50.4974 74.6366
L50.5579 74.7576
" />
<path d="M50.5579 74.7576
L50.5579 74.8785
" />
<path d="M50.5579 74.8785
L50.4974 74.9995
" />
<path d="M50.4974 74.9995
L50.4370 75.0599
" />
<path d="M50.4370 75.0599
L50.3160 75.1204
" />
<path d="M50.3160 75.1204
L50.2555 75.1809
" />
<path d="M50.2555 75.1809
L50.1951 75.3018
" />
<path d="M50.1951 75.3018
L50.1951 75.3623
" />
</g><text x="32.5360" y="39.0719"
textLength="17.8209" font-size="1.6933" lengthAdjust="spacingAndGlyphs"
text-anchor="middle" opacity="0">PIC16LF15376-xP</text>
<g class="stroked-text"><desc>PIC16LF15376-xP</desc>
<path d="M24.0391 39.0161
L24.0391 37.7461
" />
<path d="M24.0391 37.7461
L24.5229 37.7461
" />
<path d="M24.5229 37.7461
L24.6439 37.8066
" />
<path d="M24.6439 37.8066
L24.7044 37.8671
" />
<path d="M24.7044 37.8671
L24.7648 37.9880
" />
<path d="M24.7648 37.9880
L24.7648 38.1695
" />
<path d="M24.7648 38.1695
L24.7044 38.2904
" />
<path d="M24.7044 38.2904
L24.6439 38.3509
" />
<path d="M24.6439 38.3509
L24.5229 38.4114
" />
<path d="M24.5229 38.4114
L24.0391 38.4114
" />
<path d="M25.3091 39.0161
L25.3091 37.7461
" />
<path d="M26.6396 38.8952
L26.5792 38.9557
" />
<path d="M26.5792 38.9557
L26.3977 39.0161
" />
<path d="M26.3977 39.0161
L26.2768 39.0161
" />
<path d="M26.2768 39.0161
L26.0954 38.9557
" />
<path d="M26.0954 38.9557
L25.9744 38.8347
" />
<path d="M25.9744 38.8347
L25.9139 38.7137
" />
<path d="M25.9139 38.7137
L25.8535 38.4718
" />
<path d="M25.8535 38.4718
L25.8535 38.2904
" />
<path d="M25.8535 38.2904
L25.9139 38.0485
" />
<path d="M25.9139 38.0485
L25.9744 37.9276
" />
<path d="M25.9744 37.9276
L26.0954 37.8066
" />
<path d="M26.0954 37.8066
L26.2768 37.7461
" />
<path d="M26.2768 37.7461
L26.3977 37.7461
" />
<path d="M26.3977 37.7461
L26.5792 37.8066
" />
<path d="M26.5792 37.8066
L26.6396 37.8671
" />
<path d="M27.8492 39.0161
L27.1235 39.0161
" />
<path d="M27.4863 39.0161
L27.4863 37.7461
" />
<path d="M27.4863 37.7461
L27.3654 37.9276
" />
<path d="M27.3654 37.9276
L27.2444 38.0485
" />
<path d="M27.2444 38.0485
L27.1235 38.1090
" />
<path d="M28.9377 37.7461
L28.6958 37.7461
" />
<path d="M28.6958 37.7461
L28.5749 37.8066
" />
<path d="M28.5749 37.8066
L28.5144 37.8671
" />
<path d="M28.5144 37.8671
L28.3934 38.0485
" />
<path d="M28.3934 38.0485
L28.3330 38.2904
" />
<path d="M28.3330 38.2904
L28.3330 38.7742
" />
<path d="M28.3330 38.7742
L28.3934 38.8952
" />
<path d="M28.3934 38.8952
L28.4539 38.9557
" />
<path d="M28.4539 38.9557
L28.5749 39.0161
" />
<path d="M28.5749 39.0161
L28.8168 39.0161
" />
<path d="M28.8168 39.0161
L28.9377 38.9557
" />
<path d="M28.9377 38.9557
L28.9982 38.8952
" />
<path d="M28.9982 38.8952
L29.0587 38.7742
" />
<path d="M29.0587 38.7742
L29.0587 38.4718
" />
<path d="M29.0587 38.4718
L28.9982 38.3509
" />
<path d="M28.9982 38.3509
L28.9377 38.2904
" />
<path d="M28.9377 38.2904
L28.8168 38.2299
" />
<path d="M28.8168 38.2299
L28.5749 38.2299
" />
<path d="M28.5749 38.2299
L28.4539 38.2904
" />
<path d="M28.4539 38.2904
L28.3934 38.3509
" />
<path d="M28.3934 38.3509
L28.3330 38.4718
" />
<path d="M30.2077 39.0161
L29.6029 39.0161
" />
<path d="M29.6029 39.0161
L29.6029 37.7461
" />
<path d="M31.0544 38.3509
L30.6310 38.3509
" />
<path d="M30.6310 39.0161
L30.6310 37.7461
" />
<path d="M30.6310 37.7461
L31.2358 37.7461
" />
<path d="M32.3849 39.0161
L31.6592 39.0161
" />
<path d="M32.0220 39.0161
L32.0220 37.7461
" />
<path d="M32.0220 37.7461
L31.9011 37.9276
" />
<path d="M31.9011 37.9276
L31.7801 38.0485
" />
<path d="M31.7801 38.0485
L31.6592 38.1090
" />
<path d="M33.5339 37.7461
L32.9291 37.7461
" />
<path d="M32.9291 37.7461
L32.8687 38.3509
" />
<path d="M32.8687 38.3509
L32.9291 38.2904
" />
<path d="M32.9291 38.2904
L33.0501 38.2299
" />
<path d="M33.0501 38.2299
L33.3525 38.2299
" />
<path d="M33.3525 38.2299
L33.4734 38.2904
" />
<path d="M33.4734 38.2904
L33.5339 38.3509
" />
<path d="M33.5339 38.3509
L33.5944 38.4718
" />
<path d="M33.5944 38.4718
L33.5944 38.7742
" />
<path d="M33.5944 38.7742
L33.5339 38.8952
" />
<path d="M33.5339 38.8952
L33.4734 38.9557
" />
<path d="M33.4734 38.9557
L33.3525 39.0161
" />
<path d="M33.3525 39.0161
L33.0501 39.0161
" />
<path d="M33.0501 39.0161
L32.9291 38.9557
" />
<path d="M32.9291 38.9557
L32.8687 38.8952
" />
<path d="M34.0177 37.7461
L34.8039 37.7461
" />
<path d="M34.8039 37.7461
L34.3805 38.2299
" />
<path d="M34.3805 38.2299
L34.5620 38.2299
" />
<path d="M34.5620 38.2299
L34.6829 38.2904
" />
<path d="M34.6829 38.2904
L34.7434 38.3509
" />
<path d="M34.7434 38.3509
L34.8039 38.4718
" />
<path d="M34.8039 38.4718
L34.8039 38.7742
" />
<path d="M34.8039 38.7742
L34.7434 38.8952
" />
<path d="M34.7434 38.8952
L34.6829 38.9557
" />
<path d="M34.6829 38.9557
L34.5620 39.0161
" />
<path d="M34.5620 39.0161
L34.1991 39.0161
" />
<path d="M34.1991 39.0161
L34.0782 38.9557
" />
<path d="M34.0782 38.9557
L34.0177 38.8952
" />
<path d="M35.2272 37.7461
L36.0738 37.7461
" />
<path d="M36.0738 37.7461
L35.5296 39.0161
" />
<path d="M37.1019 37.7461
L36.8600 37.7461
" />
<path d="M36.8600 37.7461
L36.7391 37.8066
" />
<path d="M36.7391 37.8066
L36.6786 37.8671
" />
<path d="M36.6786 37.8671
L36.5576 38.0485
" />
<path d="M36.5576 38.0485
L36.4972 38.2904
" />
<path d="M36.4972 38.2904
L36.4972 38.7742
" />
<path d="M36.4972 38.7742
L36.5576 38.8952
" />
<path d="M36.5576 38.8952
L36.6181 38.9557
" />
<path d="M36.6181 38.9557
L36.7391 39.0161
" />
<path d="M36.7391 39.0161
L36.9810 39.0161
" />
<path d="M36.9810 39.0161
L37.1019 38.9557
" />
<path d="M37.1019 38.9557
L37.1624 38.8952
" />
<path d="M37.1624 38.8952
L37.2229 38.7742
" />
<path d="M37.2229 38.7742
L37.2229 38.4718
" />
<path d="M37.2229 38.4718
L37.1624 38.3509
" />
<path d="M37.1624 38.3509
L37.1019 38.2904
" />
<path d="M37.1019 38.2904
L36.9810 38.2299
" />
<path d="M36.9810 38.2299
L36.7391 38.2299
" />
<path d="M36.7391 38.2299
L36.6181 38.2904
" />
<path d="M36.6181 38.2904
L36.5576 38.3509
" />
<path d="M36.5576 38.3509
L36.4972 38.4718
" />
<path d="M37.7671 38.5323
L38.7348 38.5323
" />
<path d="M39.2186 39.0161
L39.8838 38.1695
" />
<path d="M39.2186 38.1695
L39.8838 39.0161
" />
<path d="M40.3676 39.0161
L40.3676 37.7461
" />
<path d="M40.3676 37.7461
L40.8514 37.7461
" />
<path d="M40.8514 37.7461
L40.9724 37.8066
" />
<path d="M40.9724 37.8066
L41.0329 37.8671
" />
<path d="M41.0329 37.8671
L41.0933 37.9880
" />
<path d="M41.0933 37.9880
L41.0933 38.1695
" />
<path d="M41.0933 38.1695
L41.0329 38.2904
" />
<path d="M41.0329 38.2904
L40.9724 38.3509
" />
<path d="M40.9724 38.3509
L40.8514 38.4114
" />
<path d="M40.8514 38.4114
L40.3676 38.4114
" />
</g></g>
<g style="fill:#840084; fill-opacity:0.0; 
stroke:#840084; stroke-width:0.1588; stroke-opacity:1; 
stroke-linecap:round; stroke-linejoin:round;">
<text x="68.0960" y="8.5919"
textLength="31.2465" font-size="1.6933" lengthAdjust="spacingAndGlyphs"
text-anchor="middle" opacity="0">Package_DIP:DIP-40_W15.24mm</text>
<g class="stroked-text"><desc>Package_DIP:DIP-40_W15.24mm</desc>
<path d="M52.8863 8.5361
L52.8863 7.2661
" />
<path d="M52.8863 7.2661
L53.3701 7.2661
" />
<path d="M53.3701 7.2661
L53.4911 7.3266
" />
<path d="M53.4911 7.3266
L53.5516 7.3871
" />
<path d="M53.5516 7.3871
L53.6120 7.5080
" />
<path d="M53.6120 7.5080
L53.6120 7.6895
" />
<path d="M53.6120 7.6895
L53.5516 7.8104
" />
<path d="M53.5516 7.8104
L53.4911 7.8709
" />
<path d="M53.4911 7.8709
L53.3701 7.9314
" />
<path d="M53.3701 7.9314
L52.8863 7.9314
" />
<path d="M54.7006 8.5361
L54.7006 7.8709
" />
<path d="M54.7006 7.8709
L54.6401 7.7499
" />
<path d="M54.6401 7.7499
L54.5192 7.6895
" />
<path d="M54.5192 7.6895
L54.2773 7.6895
" />
<path d="M54.2773 7.6895
L54.1563 7.7499
" />
<path d="M54.7006 8.4757
L54.5797 8.5361
" />
<path d="M54.5797 8.5361
L54.2773 8.5361
" />
<path d="M54.2773 8.5361
L54.1563 8.4757
" />
<path d="M54.1563 8.4757
L54.0959 8.3547
" />
<path d="M54.0959 8.3547
L54.0959 8.2337
" />
<path d="M54.0959 8.2337
L54.1563 8.1128
" />
<path d="M54.1563 8.1128
L54.2773 8.0523
" />
<path d="M54.2773 8.0523
L54.5797 8.0523
" />
<path d="M54.5797 8.0523
L54.7006 7.9918
" />
<path d="M55.8496 8.4757
L55.7287 8.5361
" />
<path d="M55.7287 8.5361
L55.4868 8.5361
" />
<path d="M55.4868 8.5361
L55.3658 8.4757
" />
<path d="M55.3658 8.4757
L55.3053 8.4152
" />
<path d="M55.3053 8.4152
L55.2449 8.2942
" />
<path d="M55.2449 8.2942
L55.2449 7.9314
" />
<path d="M55.2449 7.9314
L55.3053 7.8104
" />
<path d="M55.3053 7.8104
L55.3658 7.7499
" />
<path d="M55.3658 7.7499
L55.4868 7.6895
" />
<path d="M55.4868 7.6895
L55.7287 7.6895
" />
<path d="M55.7287 7.6895
L55.8496 7.7499
" />
<path d="M56.3939 8.5361
L56.3939 7.2661
" />
<path d="M56.5149 8.0523
L56.8777 8.5361
" />
<path d="M56.8777 7.6895
L56.3939 8.1733
" />
<path d="M57.9663 8.5361
L57.9663 7.8709
" />
<path d="M57.9663 7.8709
L57.9058 7.7499
" />
<path d="M57.9058 7.7499
L57.7849 7.6895
" />
<path d="M57.7849 7.6895
L57.5430 7.6895
" />
<path d="M57.5430 7.6895
L57.4220 7.7499
" />
<path d="M57.9663 8.4757
L57.8454 8.5361
" />
<path d="M57.8454 8.5361
L57.5430 8.5361
" />
<path d="M57.5430 8.5361
L57.4220 8.4757
" />
<path d="M57.4220 8.4757
L57.3616 8.3547
" />
<path d="M57.3616 8.3547
L57.3616 8.2337
" />
<path d="M57.3616 8.2337
L57.4220 8.1128
" />
<path d="M57.4220 8.1128
L57.5430 8.0523
" />
<path d="M57.5430 8.0523
L57.8454 8.0523
" />
<path d="M57.8454 8.0523
L57.9663 7.9918
" />
<path d="M59.1153 7.6895
L59.1153 8.7176
" />
<path d="M59.1153 8.7176
L59.0548 8.8385
" />
<path d="M59.0548 8.8385
L58.9944 8.8990
" />
<path d="M58.9944 8.8990
L58.8734 8.9595
" />
<path d="M58.8734 8.9595
L58.6920 8.9595
" />
<path d="M58.6920 8.9595
L58.5710 8.8990
" />
<path d="M59.1153 8.4757
L58.9944 8.5361
" />
<path d="M58.9944 8.5361
L58.7525 8.5361
" />
<path d="M58.7525 8.5361
L58.6315 8.4757
" />
<path d="M58.6315 8.4757
L58.5710 8.4152
" />
<path d="M58.5710 8.4152
L58.5106 8.2942
" />
<path d="M58.5106 8.2942
L58.5106 7.9314
" />
<path d="M58.5106 7.9314
L58.5710 7.8104
" />
<path d="M58.5710 7.8104
L58.6315 7.7499
" />
<path d="M58.6315 7.7499
L58.7525 7.6895
" />
<path d="M58.7525 7.6895
L58.9944 7.6895
" />
<path d="M58.9944 7.6895
L59.1153 7.7499
" />
<path d="M60.2038 8.4757
L60.0829 8.5361
" />
<path d="M60.0829 8.5361
L59.8410 8.5361
" />
<path d="M59.8410 8.5361
L59.7200 8.4757
" />
<path d="M59.7200 8.4757
L59.6596 8.3547
" />
<path d="M59.6596 8.3547
L59.6596 7.8709
" />
<path d="M59.6596 7.8709
L59.7200 7.7499
" />
<path d="M59.7200 7.7499
L59.8410 7.6895
" />
<path d="M59.8410 7.6895
L60.0829 7.6895
" />
<path d="M60.0829 7.6895
L60.2038 7.7499
" />
<path d="M60.2038 7.7499
L60.2643 7.8709
" />
<path d="M60.2643 7.8709
L60.2643 7.9918
" />
<path d="M60.2643 7.9918
L59.6596 8.1128
" />
<path d="M60.5063 8.6571
L61.4739 8.6571
" />
<path d="M61.7762 8.5361
L61.7762 7.2661
" />
<path d="M61.7762 7.2661
L62.0786 7.2661
" />
<path d="M62.0786 7.2661
L62.2600 7.3266
" />
<path d="M62.2600 7.3266
L62.3810 7.4476
" />
<path d="M62.3810 7.4476
L62.4415 7.5685
" />
<path d="M62.4415 7.5685
L62.5019 7.8104
" />
<path d="M62.5019 7.8104
L62.5019 7.9918
" />
<path d="M62.5019 7.9918
L62.4415 8.2337
" />
<path d="M62.4415 8.2337
L62.3810 8.3547
" />
<path d="M62.3810 8.3547
L62.2600 8.4757
" />
<path d="M62.2600 8.4757
L62.0786 8.5361
" />
<path d="M62.0786 8.5361
L61.7762 8.5361
" />
<path d="M63.0462 8.5361
L63.0462 7.2661
" />
<path d="M63.6510 8.5361
L63.6510 7.2661
" />
<path d="M63.6510 7.2661
L64.1348 7.2661
" />
<path d="M64.1348 7.2661
L64.2558 7.3266
" />
<path d="M64.2558 7.3266
L64.3163 7.3871
" />
<path d="M64.3163 7.3871
L64.3767 7.5080
" />
<path d="M64.3767 7.5080
L64.3767 7.6895
" />
<path d="M64.3767 7.6895
L64.3163 7.8104
" />
<path d="M64.3163 7.8104
L64.2558 7.8709
" />
<path d="M64.2558 7.8709
L64.1348 7.9314
" />
<path d="M64.1348 7.9314
L63.6510 7.9314
" />
<path d="M64.9210 8.4152
L64.9815 8.4757
" />
<path d="M64.9815 8.4757
L64.9210 8.5361
" />
<path d="M64.9210 8.5361
L64.8606 8.4757
" />
<path d="M64.8606 8.4757
L64.9210 8.4152
" />
<path d="M64.9210 8.4152
L64.9210 8.5361
" />
<path d="M64.9210 7.7499
L64.9815 7.8104
" />
<path d="M64.9815 7.8104
L64.9210 7.8709
" />
<path d="M64.9210 7.8709
L64.8606 7.8104
" />
<path d="M64.8606 7.8104
L64.9210 7.7499
" />
<path d="M64.9210 7.7499
L64.9210 7.8709
" />
<path d="M65.5258 8.5361
L65.5258 7.2661
" />
<path d="M65.5258 7.2661
L65.8282 7.2661
" />
<path d="M65.8282 7.2661
L66.0096 7.3266
" />
<path d="M66.0096 7.3266
L66.1306 7.4476
" />
<path d="M66.1306 7.4476
L66.1911 7.5685
" />
<path d="M66.1911 7.5685
L66.2515 7.8104
" />
<path d="M66.2515 7.8104
L66.2515 7.9918
" />
<path d="M66.2515 7.9918
L66.1911 8.2337
" />
<path d="M66.1911 8.2337
L66.1306 8.3547
" />
<path d="M66.1306 8.3547
L66.0096 8.4757
" />
<path d="M66.0096 8.4757
L65.8282 8.5361
" />
<path d="M65.8282 8.5361
L65.5258 8.5361
" />
<path d="M66.7958 8.5361
L66.7958 7.2661
" />
<path d="M67.4006 8.5361
L67.4006 7.2661
" />
<path d="M67.4006 7.2661
L67.8844 7.2661
" />
<path d="M67.8844 7.2661
L68.0054 7.3266
" />
<path d="M68.0054 7.3266
L68.0659 7.3871
" />
<path d="M68.0659 7.3871
L68.1263 7.5080
" />
<path d="M68.1263 7.5080
L68.1263 7.6895
" />
<path d="M68.1263 7.6895
L68.0659 7.8104
" />
<path d="M68.0659 7.8104
L68.0054 7.8709
" />
<path d="M68.0054 7.8709
L67.8844 7.9314
" />
<path d="M67.8844 7.9314
L67.4006 7.9314
" />
<path d="M68.6706 8.0523
L69.6383 8.0523
" />
<path d="M70.7873 7.6895
L70.7873 8.5361
" />
<path d="M70.4849 7.2057
L70.1826 8.1128
" />
<path d="M70.1826 8.1128
L70.9687 8.1128
" />
<path d="M71.6944 7.2661
L71.8154 7.2661
" />
<path d="M71.8154 7.2661
L71.9363 7.3266
" />
<path d="M71.9363 7.3266
L71.9968 7.3871
" />
<path d="M71.9968 7.3871
L72.0573 7.5080
" />
<path d="M72.0573 7.5080
L72.1178 7.7499
" />
<path d="M72.1178 7.7499
L72.1178 8.0523
" />
<path d="M72.1178 8.0523
L72.0573 8.2942
" />
<path d="M72.0573 8.2942
L71.9968 8.4152
" />
<path d="M71.9968 8.4152
L71.9363 8.4757
" />
<path d="M71.9363 8.4757
L71.8154 8.5361
" />
<path d="M71.8154 8.5361
L71.6944 8.5361
" />
<path d="M71.6944 8.5361
L71.5735 8.4757
" />
<path d="M71.5735 8.4757
L71.5130 8.4152
" />
<path d="M71.5130 8.4152
L71.4525 8.2942
" />
<path d="M71.4525 8.2942
L71.3921 8.0523
" />
<path d="M71.3921 8.0523
L71.3921 7.7499
" />
<path d="M71.3921 7.7499
L71.4525 7.5080
" />
<path d="M71.4525 7.5080
L71.5130 7.3871
" />
<path d="M71.5130 7.3871
L71.5735 7.3266
" />
<path d="M71.5735 7.3266
L71.6944 7.2661
" />
<path d="M72.3597 8.6571
L73.3273 8.6571
" />
<path d="M73.5087 7.2661
L73.8111 8.5361
" />
<path d="M73.8111 8.5361
L74.0530 7.6290
" />
<path d="M74.0530 7.6290
L74.2949 8.5361
" />
<path d="M74.2949 8.5361
L74.5973 7.2661
" />
<path d="M75.7463 8.5361
L75.0206 8.5361
" />
<path d="M75.3834 8.5361
L75.3834 7.2661
" />
<path d="M75.3834 7.2661
L75.2625 7.4476
" />
<path d="M75.2625 7.4476
L75.1415 7.5685
" />
<path d="M75.1415 7.5685
L75.0206 7.6290
" />
<path d="M76.8953 7.2661
L76.2905 7.2661
" />
<path d="M76.2905 7.2661
L76.2301 7.8709
" />
<path d="M76.2301 7.8709
L76.2905 7.8104
" />
<path d="M76.2905 7.8104
L76.4115 7.7499
" />
<path d="M76.4115 7.7499
L76.7139 7.7499
" />
<path d="M76.7139 7.7499
L76.8348 7.8104
" />
<path d="M76.8348 7.8104
L76.8953 7.8709
" />
<path d="M76.8953 7.8709
L76.9558 7.9918
" />
<path d="M76.9558 7.9918
L76.9558 8.2942
" />
<path d="M76.9558 8.2942
L76.8953 8.4152
" />
<path d="M76.8953 8.4152
L76.8348 8.4757
" />
<path d="M76.8348 8.4757
L76.7139 8.5361
" />
<path d="M76.7139 8.5361
L76.4115 8.5361
" />
<path d="M76.4115 8.5361
L76.2905 8.4757
" />
<path d="M76.2905 8.4757
L76.2301 8.4152
" />
<path d="M77.5000 8.4152
L77.5605 8.4757
" />
<path d="M77.5605 8.4757
L77.5000 8.5361
" />
<path d="M77.5000 8.5361
L77.4396 8.4757
" />
<path d="M77.4396 8.4757
L77.5000 8.4152
" />
<path d="M77.5000 8.4152
L77.5000 8.5361
" />
<path d="M78.0444 7.3871
L78.1048 7.3266
" />
<path d="M78.1048 7.3266
L78.2258 7.2661
" />
<path d="M78.2258 7.2661
L78.5282 7.2661
" />
<path d="M78.5282 7.2661
L78.6491 7.3266
" />
<path d="M78.6491 7.3266
L78.7096 7.3871
" />
<path d="M78.7096 7.3871
L78.7701 7.5080
" />
<path d="M78.7701 7.5080
L78.7701 7.6290
" />
<path d="M78.7701 7.6290
L78.7096 7.8104
" />
<path d="M78.7096 7.8104
L77.9839 8.5361
" />
<path d="M77.9839 8.5361
L78.7701 8.5361
" />
<path d="M79.8586 7.6895
L79.8586 8.5361
" />
<path d="M79.5562 7.2057
L79.2539 8.1128
" />
<path d="M79.2539 8.1128
L80.0400 8.1128
" />
<path d="M80.5238 8.5361
L80.5238 7.6895
" />
<path d="M80.5238 7.8104
L80.5843 7.7499
" />
<path d="M80.5843 7.7499
L80.7053 7.6895
" />
<path d="M80.7053 7.6895
L80.8867 7.6895
" />
<path d="M80.8867 7.6895
L81.0076 7.7499
" />
<path d="M81.0076 7.7499
L81.0681 7.8709
" />
<path d="M81.0681 7.8709
L81.0681 8.5361
" />
<path d="M81.0681 7.8709
L81.1286 7.7499
" />
<path d="M81.1286 7.7499
L81.2495 7.6895
" />
<path d="M81.2495 7.6895
L81.4310 7.6895
" />
<path d="M81.4310 7.6895
L81.5519 7.7499
" />
<path d="M81.5519 7.7499
L81.6124 7.8709
" />
<path d="M81.6124 7.8709
L81.6124 8.5361
" />
<path d="M82.2171 8.5361
L82.2171 7.6895
" />
<path d="M82.2171 7.8104
L82.2776 7.7499
" />
<path d="M82.2776 7.7499
L82.3986 7.6895
" />
<path d="M82.3986 7.6895
L82.5800 7.6895
" />
<path d="M82.5800 7.6895
L82.7009 7.7499
" />
<path d="M82.7009 7.7499
L82.7614 7.8709
" />
<path d="M82.7614 7.8709
L82.7614 8.5361
" />
<path d="M82.7614 7.8709
L82.8219 7.7499
" />
<path d="M82.8219 7.7499
L82.9428 7.6895
" />
<path d="M82.9428 7.6895
L83.1243 7.6895
" />
<path d="M83.1243 7.6895
L83.2452 7.7499
" />
<path d="M83.2452 7.7499
L83.3057 7.8709
" />
<path d="M83.3057 7.8709
L83.3057 8.5361
" />
</g><text x="68.0960" y="11.1319"
textLength="113.4935" font-size="1.6933" lengthAdjust="spacingAndGlyphs"
text-anchor="middle" opacity="0">http://ww1.microchip.com/downloads/en/DeviceDoc/PIC16LF15356-75-76-85-86-Data%20Sheet-40001866B.pdf</text>
<g class="stroked-text"><desc>http://ww1.microchip.com/downloads/en/DeviceDoc/PIC16LF15356-75-76-85-86-Data%20Sheet-40001866B.pdf</desc>
<path d="M11.7628 11.0761
L11.7628 9.8061
" />
<path d="M12.3071 11.0761
L12.3071 10.4109
" />
<path d="M12.3071 10.4109
L12.2466 10.2899
" />
<path d="M12.2466 10.2899
L12.1257 10.2295
" />
<path d="M12.1257 10.2295
L11.9443 10.2295
" />
<path d="M11.9443 10.2295
L11.8233 10.2899
" />
<path d="M11.8233 10.2899
L11.7628 10.3504
" />
<path d="M12.7304 10.2295
L13.2142 10.2295
" />
<path d="M12.9118 9.8061
L12.9118 10.8947
" />
<path d="M12.9118 10.8947
L12.9723 11.0157
" />
<path d="M12.9723 11.0157
L13.0933 11.0761
" />
<path d="M13.0933 11.0761
L13.2142 11.0761
" />
<path d="M13.4561 10.2295
L13.9399 10.2295
" />
<path d="M13.6375 9.8061
L13.6375 10.8947
" />
<path d="M13.6375 10.8947
L13.6980 11.0157
" />
<path d="M13.6980 11.0157
L13.8190 11.0761
" />
<path d="M13.8190 11.0761
L13.9399 11.0761
" />
<path d="M14.3632 10.2295
L14.3632 11.4995
" />
<path d="M14.3632 10.2899
L14.4842 10.2295
" />
<path d="M14.4842 10.2295
L14.7261 10.2295
" />
<path d="M14.7261 10.2295
L14.8470 10.2899
" />
<path d="M14.8470 10.2899
L14.9075 10.3504
" />
<path d="M14.9075 10.3504
L14.9680 10.4714
" />
<path d="M14.9680 10.4714
L14.9680 10.8342
" />
<path d="M14.9680 10.8342
L14.9075 10.9552
" />
<path d="M14.9075 10.9552
L14.8470 11.0157
" />
<path d="M14.8470 11.0157
L14.7261 11.0761
" />
<path d="M14.7261 11.0761
L14.4842 11.0761
" />
<path d="M14.4842 11.0761
L14.3632 11.0157
" />
<path d="M15.5122 10.9552
L15.5727 11.0157
" />
<path d="M15.5727 11.0157
L15.5122 11.0761
" />
<path d="M15.5122 11.0761
L15.4518 11.0157
" />
<path d="M15.4518 11.0157
L15.5122 10.9552
" />
<path d="M15.5122 10.9552
L15.5122 11.0761
" />
<path d="M15.5122 10.2899
L15.5727 10.3504
" />
<path d="M15.5727 10.3504
L15.5122 10.4109
" />
<path d="M15.5122 10.4109
L15.4518 10.3504
" />
<path d="M15.4518 10.3504
L15.5122 10.2899
" />
<path d="M15.5122 10.2899
L15.5122 10.4109
" />
<path d="M17.0242 9.7457
L15.9356 11.3785
" />
<path d="M18.3547 9.7457
L17.2661 11.3785
" />
<path d="M18.6571 10.2295
L18.8990 11.0761
" />
<path d="M18.8990 11.0761
L19.1409 10.4714
" />
<path d="M19.1409 10.4714
L19.3828 11.0761
" />
<path d="M19.3828 11.0761
L19.6247 10.2295
" />
<path d="M19.9876 10.2295
L20.2295 11.0761
" />
<path d="M20.2295 11.0761
L20.4714 10.4714
" />
<path d="M20.4714 10.4714
L20.7133 11.0761
" />
<path d="M20.7133 11.0761
L20.9552 10.2295
" />
<path d="M22.1043 11.0761
L21.3786 11.0761
" />
<path d="M21.7414 11.0761
L21.7414 9.8061
" />
<path d="M21.7414 9.8061
L21.6205 9.9876
" />
<path d="M21.6205 9.9876
L21.4995 10.1085
" />
<path d="M21.4995 10.1085
L21.3786 10.1690
" />
<path d="M22.6485 10.9552
L22.7090 11.0157
" />
<path d="M22.7090 11.0157
L22.6485 11.0761
" />
<path d="M22.6485 11.0761
L22.5881 11.0157
" />
<path d="M22.5881 11.0157
L22.6485 10.9552
" />
<path d="M22.6485 10.9552
L22.6485 11.0761
" />
<path d="M23.2533 11.0761
L23.2533 10.2295
" />
<path d="M23.2533 10.3504
L23.3138 10.2899
" />
<path d="M23.3138 10.2899
L23.4348 10.2295
" />
<path d="M23.4348 10.2295
L23.6162 10.2295
" />
<path d="M23.6162 10.2295
L23.7371 10.2899
" />
<path d="M23.7371 10.2899
L23.7976 10.4109
" />
<path d="M23.7976 10.4109
L23.7976 11.0761
" />
<path d="M23.7976 10.4109
L23.8581 10.2899
" />
<path d="M23.8581 10.2899
L23.9790 10.2295
" />
<path d="M23.9790 10.2295
L24.1605 10.2295
" />
<path d="M24.1605 10.2295
L24.2814 10.2899
" />
<path d="M24.2814 10.2899
L24.3419 10.4109
" />
<path d="M24.3419 10.4109
L24.3419 11.0761
" />
<path d="M24.9466 11.0761
L24.9466 10.2295
" />
<path d="M24.9466 9.8061
L24.8862 9.8666
" />
<path d="M24.8862 9.8666
L24.9466 9.9271
" />
<path d="M24.9466 9.9271
L25.0071 9.8666
" />
<path d="M25.0071 9.8666
L24.9466 9.8061
" />
<path d="M24.9466 9.8061
L24.9466 9.9271
" />
<path d="M26.0957 11.0157
L25.9748 11.0761
" />
<path d="M25.9748 11.0761
L25.7329 11.0761
" />
<path d="M25.7329 11.0761
L25.6119 11.0157
" />
<path d="M25.6119 11.0157
L25.5514 10.9552
" />
<path d="M25.5514 10.9552
L25.4910 10.8342
" />
<path d="M25.4910 10.8342
L25.4910 10.4714
" />
<path d="M25.4910 10.4714
L25.5514 10.3504
" />
<path d="M25.5514 10.3504
L25.6119 10.2899
" />
<path d="M25.6119 10.2899
L25.7329 10.2295
" />
<path d="M25.7329 10.2295
L25.9748 10.2295
" />
<path d="M25.9748 10.2295
L26.0957 10.2899
" />
<path d="M26.6400 11.0761
L26.6400 10.2295
" />
<path d="M26.6400 10.4714
L26.7005 10.3504
" />
<path d="M26.7005 10.3504
L26.7610 10.2899
" />
<path d="M26.7610 10.2899
L26.8819 10.2295
" />
<path d="M26.8819 10.2295
L27.0029 10.2295
" />
<path d="M27.6077 11.0761
L27.4867 11.0157
" />
<path d="M27.4867 11.0157
L27.4262 10.9552
" />
<path d="M27.4262 10.9552
L27.3658 10.8342
" />
<path d="M27.3658 10.8342
L27.3658 10.4714
" />
<path d="M27.3658 10.4714
L27.4262 10.3504
" />
<path d="M27.4262 10.3504
L27.4867 10.2899
" />
<path d="M27.4867 10.2899
L27.6077 10.2295
" />
<path d="M27.6077 10.2295
L27.7891 10.2295
" />
<path d="M27.7891 10.2295
L27.9100 10.2899
" />
<path d="M27.9100 10.2899
L27.9705 10.3504
" />
<path d="M27.9705 10.3504
L28.0310 10.4714
" />
<path d="M28.0310 10.4714
L28.0310 10.8342
" />
<path d="M28.0310 10.8342
L27.9705 10.9552
" />
<path d="M27.9705 10.9552
L27.9100 11.0157
" />
<path d="M27.9100 11.0157
L27.7891 11.0761
" />
<path d="M27.7891 11.0761
L27.6077 11.0761
" />
<path d="M29.1195 11.0157
L28.9986 11.0761
" />
<path d="M28.9986 11.0761
L28.7567 11.0761
" />
<path d="M28.7567 11.0761
L28.6357 11.0157
" />
<path d="M28.6357 11.0157
L28.5752 10.9552
" />
<path d="M28.5752 10.9552
L28.5148 10.8342
" />
<path d="M28.5148 10.8342
L28.5148 10.4714
" />
<path d="M28.5148 10.4714
L28.5752 10.3504
" />
<path d="M28.5752 10.3504
L28.6357 10.2899
" />
<path d="M28.6357 10.2899
L28.7567 10.2295
" />
<path d="M28.7567 10.2295
L28.9986 10.2295
" />
<path d="M28.9986 10.2295
L29.1195 10.2899
" />
<path d="M29.6638 11.0761
L29.6638 9.8061
" />
<path d="M30.2081 11.0761
L30.2081 10.4109
" />
<path d="M30.2081 10.4109
L30.1476 10.2899
" />
<path d="M30.1476 10.2899
L30.0267 10.2295
" />
<path d="M30.0267 10.2295
L29.8453 10.2295
" />
<path d="M29.8453 10.2295
L29.7243 10.2899
" />
<path d="M29.7243 10.2899
L29.6638 10.3504
" />
<path d="M30.8128 11.0761
L30.8128 10.2295
" />
<path d="M30.8128 9.8061
L30.7524 9.8666
" />
<path d="M30.7524 9.8666
L30.8128 9.9271
" />
<path d="M30.8128 9.9271
L30.8733 9.8666
" />
<path d="M30.8733 9.8666
L30.8128 9.8061
" />
<path d="M30.8128 9.8061
L30.8128 9.9271
" />
<path d="M31.4176 10.2295
L31.4176 11.4995
" />
<path d="M31.4176 10.2899
L31.5386 10.2295
" />
<path d="M31.5386 10.2295
L31.7805 10.2295
" />
<path d="M31.7805 10.2295
L31.9014 10.2899
" />
<path d="M31.9014 10.2899
L31.9619 10.3504
" />
<path d="M31.9619 10.3504
L32.0224 10.4714
" />
<path d="M32.0224 10.4714
L32.0224 10.8342
" />
<path d="M32.0224 10.8342
L31.9619 10.9552
" />
<path d="M31.9619 10.9552
L31.9014 11.0157
" />
<path d="M31.9014 11.0157
L31.7805 11.0761
" />
<path d="M31.7805 11.0761
L31.5386 11.0761
" />
<path d="M31.5386 11.0761
L31.4176 11.0157
" />
<path d="M32.5666 10.9552
L32.6271 11.0157
" />
<path d="M32.6271 11.0157
L32.5666 11.0761
" />
<path d="M32.5666 11.0761
L32.5062 11.0157
" />
<path d="M32.5062 11.0157
L32.5666 10.9552
" />
<path d="M32.5666 10.9552
L32.5666 11.0761
" />
<path d="M33.7157 11.0157
L33.5948 11.0761
" />
<path d="M33.5948 11.0761
L33.3529 11.0761
" />
<path d="M33.3529 11.0761
L33.2319 11.0157
" />
<path d="M33.2319 11.0157
L33.1714 10.9552
" />
<path d="M33.1714 10.9552
L33.1110 10.8342
" />
<path d="M33.1110 10.8342
L33.1110 10.4714
" />
<path d="M33.1110 10.4714
L33.1714 10.3504
" />
<path d="M33.1714 10.3504
L33.2319 10.2899
" />
<path d="M33.2319 10.2899
L33.3529 10.2295
" />
<path d="M33.3529 10.2295
L33.5948 10.2295
" />
<path d="M33.5948 10.2295
L33.7157 10.2899
" />
<path d="M34.4415 11.0761
L34.3205 11.0157
" />
<path d="M34.3205 11.0157
L34.2600 10.9552
" />
<path d="M34.2600 10.9552
L34.1996 10.8342
" />
<path d="M34.1996 10.8342
L34.1996 10.4714
" />
<path d="M34.1996 10.4714
L34.2600 10.3504
" />
<path d="M34.2600 10.3504
L34.3205 10.2899
" />
<path d="M34.3205 10.2899
L34.4415 10.2295
" />
<path d="M34.4415 10.2295
L34.6229 10.2295
" />
<path d="M34.6229 10.2295
L34.7438 10.2899
" />
<path d="M34.7438 10.2899
L34.8043 10.3504
" />
<path d="M34.8043 10.3504
L34.8648 10.4714
" />
<path d="M34.8648 10.4714
L34.8648 10.8342
" />
<path d="M34.8648 10.8342
L34.8043 10.9552
" />
<path d="M34.8043 10.9552
L34.7438 11.0157
" />
<path d="M34.7438 11.0157
L34.6229 11.0761
" />
<path d="M34.6229 11.0761
L34.4415 11.0761
" />
<path d="M35.4090 11.0761
L35.4090 10.2295
" />
<path d="M35.4090 10.3504
L35.4695 10.2899
" />
<path d="M35.4695 10.2899
L35.5905 10.2295
" />
<path d="M35.5905 10.2295
L35.7719 10.2295
" />
<path d="M35.7719 10.2295
L35.8928 10.2899
" />
<path d="M35.8928 10.2899
L35.9533 10.4109
" />
<path d="M35.9533 10.4109
L35.9533 11.0761
" />
<path d="M35.9533 10.4109
L36.0138 10.2899
" />
<path d="M36.0138 10.2899
L36.1347 10.2295
" />
<path d="M36.1347 10.2295
L36.3162 10.2295
" />
<path d="M36.3162 10.2295
L36.4371 10.2899
" />
<path d="M36.4371 10.2899
L36.4976 10.4109
" />
<path d="M36.4976 10.4109
L36.4976 11.0761
" />
<path d="M38.0095 9.7457
L36.9209 11.3785
" />
<path d="M38.9771 11.0761
L38.9771 9.8061
" />
<path d="M38.9771 11.0157
L38.8562 11.0761
" />
<path d="M38.8562 11.0761
L38.6143 11.0761
" />
<path d="M38.6143 11.0761
L38.4933 11.0157
" />
<path d="M38.4933 11.0157
L38.4328 10.9552
" />
<path d="M38.4328 10.9552
L38.3724 10.8342
" />
<path d="M38.3724 10.8342
L38.3724 10.4714
" />
<path d="M38.3724 10.4714
L38.4328 10.3504
" />
<path d="M38.4328 10.3504
L38.4933 10.2899
" />
<path d="M38.4933 10.2899
L38.6143 10.2295
" />
<path d="M38.6143 10.2295
L38.8562 10.2295
" />
<path d="M38.8562 10.2295
L38.9771 10.2899
" />
<path d="M39.7633 11.0761
L39.6423 11.0157
" />
<path d="M39.6423 11.0157
L39.5818 10.9552
" />
<path d="M39.5818 10.9552
L39.5214 10.8342
" />
<path d="M39.5214 10.8342
L39.5214 10.4714
" />
<path d="M39.5214 10.4714
L39.5818 10.3504
" />
<path d="M39.5818 10.3504
L39.6423 10.2899
" />
<path d="M39.6423 10.2899
L39.7633 10.2295
" />
<path d="M39.7633 10.2295
L39.9447 10.2295
" />
<path d="M39.9447 10.2295
L40.0656 10.2899
" />
<path d="M40.0656 10.2899
L40.1261 10.3504
" />
<path d="M40.1261 10.3504
L40.1866 10.4714
" />
<path d="M40.1866 10.4714
L40.1866 10.8342
" />
<path d="M40.1866 10.8342
L40.1261 10.9552
" />
<path d="M40.1261 10.9552
L40.0656 11.0157
" />
<path d="M40.0656 11.0157
L39.9447 11.0761
" />
<path d="M39.9447 11.0761
L39.7633 11.0761
" />
<path d="M40.6099 10.2295
L40.8518 11.0761
" />
<path d="M40.8518 11.0761
L41.0937 10.4714
" />
<path d="M41.0937 10.4714
L41.3356 11.0761
" />
<path d="M41.3356 11.0761
L41.5775 10.2295
" />
<path d="M42.0613 10.2295
L42.0613 11.0761
" />
<path d="M42.0613 10.3504
L42.1218 10.2899
" />
<path d="M42.1218 10.2899
L42.2428 10.2295
" />
<path d="M42.2428 10.2295
L42.4242 10.2295
" />
<path d="M42.4242 10.2295
L42.5451 10.2899
" />
<path d="M42.5451 10.2899
L42.6056 10.4109
" />
<path d="M42.6056 10.4109
L42.6056 11.0761
" />
<path d="M43.3918 11.0761
L43.2708 11.0157
" />
<path d="M43.2708 11.0157
L43.2103 10.8947
" />
<path d="M43.2103 10.8947
L43.2103 9.8061
" />
<path d="M44.0570 11.0761
L43.9360 11.0157
" />
<path d="M43.9360 11.0157
L43.8755 10.9552
" />
<path d="M43.8755 10.9552
L43.8151 10.8342
" />
<path d="M43.8151 10.8342
L43.8151 10.4714
" />
<path d="M43.8151 10.4714
L43.8755 10.3504
" />
<path d="M43.8755 10.3504
L43.9360 10.2899
" />
<path d="M43.9360 10.2899
L44.0570 10.2295
" />
<path d="M44.0570 10.2295
L44.2384 10.2295
" />
<path d="M44.2384 10.2295
L44.3593 10.2899
" />
<path d="M44.3593 10.2899
L44.4198 10.3504
" />
<path d="M44.4198 10.3504
L44.4803 10.4714
" />
<path d="M44.4803 10.4714
L44.4803 10.8342
" />
<path d="M44.4803 10.8342
L44.4198 10.9552
" />
<path d="M44.4198 10.9552
L44.3593 11.0157
" />
<path d="M44.3593 11.0157
L44.2384 11.0761
" />
<path d="M44.2384 11.0761
L44.0570 11.0761
" />
<path d="M45.5688 11.0761
L45.5688 10.4109
" />
<path d="M45.5688 10.4109
L45.5083 10.2899
" />
<path d="M45.5083 10.2899
L45.3874 10.2295
" />
<path d="M45.3874 10.2295
L45.1455 10.2295
" />
<path d="M45.1455 10.2295
L45.0245 10.2899
" />
<path d="M45.5688 11.0157
L45.4479 11.0761
" />
<path d="M45.4479 11.0761
L45.1455 11.0761
" />
<path d="M45.1455 11.0761
L45.0245 11.0157
" />
<path d="M45.0245 11.0157
L44.9641 10.8947
" />
<path d="M44.9641 10.8947
L44.9641 10.7737
" />
<path d="M44.9641 10.7737
L45.0245 10.6528
" />
<path d="M45.0245 10.6528
L45.1455 10.5923
" />
<path d="M45.1455 10.5923
L45.4479 10.5923
" />
<path d="M45.4479 10.5923
L45.5688 10.5318
" />
<path d="M46.7178 11.0761
L46.7178 9.8061
" />
<path d="M46.7178 11.0157
L46.5969 11.0761
" />
<path d="M46.5969 11.0761
L46.3550 11.0761
" />
<path d="M46.3550 11.0761
L46.2340 11.0157
" />
<path d="M46.2340 11.0157
L46.1735 10.9552
" />
<path d="M46.1735 10.9552
L46.1131 10.8342
" />
<path d="M46.1131 10.8342
L46.1131 10.4714
" />
<path d="M46.1131 10.4714
L46.1735 10.3504
" />
<path d="M46.1735 10.3504
L46.2340 10.2899
" />
<path d="M46.2340 10.2899
L46.3550 10.2295
" />
<path d="M46.3550 10.2295
L46.5969 10.2295
" />
<path d="M46.5969 10.2295
L46.7178 10.2899
" />
<path d="M47.2621 11.0157
L47.3830 11.0761
" />
<path d="M47.3830 11.0761
L47.6249 11.0761
" />
<path d="M47.6249 11.0761
L47.7459 11.0157
" />
<path d="M47.7459 11.0157
L47.8063 10.8947
" />
<path d="M47.8063 10.8947
L47.8063 10.8342
" />
<path d="M47.8063 10.8342
L47.7459 10.7133
" />
<path d="M47.7459 10.7133
L47.6249 10.6528
" />
<path d="M47.6249 10.6528
L47.4435 10.6528
" />
<path d="M47.4435 10.6528
L47.3225 10.5923
" />
<path d="M47.3225 10.5923
L47.2621 10.4714
" />
<path d="M47.2621 10.4714
L47.2621 10.4109
" />
<path d="M47.2621 10.4109
L47.3225 10.2899
" />
<path d="M47.3225 10.2899
L47.4435 10.2295
" />
<path d="M47.4435 10.2295
L47.6249 10.2295
" />
<path d="M47.6249 10.2295
L47.7459 10.2899
" />
<path d="M49.2578 9.7457
L48.1692 11.3785
" />
<path d="M50.1649 11.0157
L50.0440 11.0761
" />
<path d="M50.0440 11.0761
L49.8021 11.0761
" />
<path d="M49.8021 11.0761
L49.6811 11.0157
" />
<path d="M49.6811 11.0157
L49.6207 10.8947
" />
<path d="M49.6207 10.8947
L49.6207 10.4109
" />
<path d="M49.6207 10.4109
L49.6811 10.2899
" />
<path d="M49.6811 10.2899
L49.8021 10.2295
" />
<path d="M49.8021 10.2295
L50.0440 10.2295
" />
<path d="M50.0440 10.2295
L50.1649 10.2899
" />
<path d="M50.1649 10.2899
L50.2254 10.4109
" />
<path d="M50.2254 10.4109
L50.2254 10.5318
" />
<path d="M50.2254 10.5318
L49.6207 10.6528
" />
<path d="M50.7697 10.2295
L50.7697 11.0761
" />
<path d="M50.7697 10.3504
L50.8302 10.2899
" />
<path d="M50.8302 10.2899
L50.9512 10.2295
" />
<path d="M50.9512 10.2295
L51.1326 10.2295
" />
<path d="M51.1326 10.2295
L51.2535 10.2899
" />
<path d="M51.2535 10.2899
L51.3140 10.4109
" />
<path d="M51.3140 10.4109
L51.3140 11.0761
" />
<path d="M52.8259 9.7457
L51.7373 11.3785
" />
<path d="M53.2492 11.0761
L53.2492 9.8061
" />
<path d="M53.2492 9.8061
L53.5516 9.8061
" />
<path d="M53.5516 9.8061
L53.7330 9.8666
" />
<path d="M53.7330 9.8666
L53.8540 9.9876
" />
<path d="M53.8540 9.9876
L53.9145 10.1085
" />
<path d="M53.9145 10.1085
L53.9749 10.3504
" />
<path d="M53.9749 10.3504
L53.9749 10.5318
" />
<path d="M53.9749 10.5318
L53.9145 10.7737
" />
<path d="M53.9145 10.7737
L53.8540 10.8947
" />
<path d="M53.8540 10.8947
L53.7330 11.0157
" />
<path d="M53.7330 11.0157
L53.5516 11.0761
" />
<path d="M53.5516 11.0761
L53.2492 11.0761
" />
<path d="M55.0030 11.0157
L54.8821 11.0761
" />
<path d="M54.8821 11.0761
L54.6402 11.0761
" />
<path d="M54.6402 11.0761
L54.5192 11.0157
" />
<path d="M54.5192 11.0157
L54.4588 10.8947
" />
<path d="M54.4588 10.8947
L54.4588 10.4109
" />
<path d="M54.4588 10.4109
L54.5192 10.2899
" />
<path d="M54.5192 10.2899
L54.6402 10.2295
" />
<path d="M54.6402 10.2295
L54.8821 10.2295
" />
<path d="M54.8821 10.2295
L55.0030 10.2899
" />
<path d="M55.0030 10.2899
L55.0635 10.4109
" />
<path d="M55.0635 10.4109
L55.0635 10.5318
" />
<path d="M55.0635 10.5318
L54.4588 10.6528
" />
<path d="M55.4869 10.2295
L55.7893 11.0761
" />
<path d="M55.7893 11.0761
L56.0916 10.2295
" />
<path d="M56.5754 11.0761
L56.5754 10.2295
" />
<path d="M56.5754 9.8061
L56.5150 9.8666
" />
<path d="M56.5150 9.8666
L56.5754 9.9271
" />
<path d="M56.5754 9.9271
L56.6359 9.8666
" />
<path d="M56.6359 9.8666
L56.5754 9.8061
" />
<path d="M56.5754 9.8061
L56.5754 9.9271
" />
<path d="M57.7245 11.0157
L57.6036 11.0761
" />
<path d="M57.6036 11.0761
L57.3617 11.0761
" />
<path d="M57.3617 11.0761
L57.2407 11.0157
" />
<path d="M57.2407 11.0157
L57.1802 10.9552
" />
<path d="M57.1802 10.9552
L57.1198 10.8342
" />
<path d="M57.1198 10.8342
L57.1198 10.4714
" />
<path d="M57.1198 10.4714
L57.1802 10.3504
" />
<path d="M57.1802 10.3504
L57.2407 10.2899
" />
<path d="M57.2407 10.2899
L57.3617 10.2295
" />
<path d="M57.3617 10.2295
L57.6036 10.2295
" />
<path d="M57.6036 10.2295
L57.7245 10.2899
" />
<path d="M58.7526 11.0157
L58.6317 11.0761
" />
<path d="M58.6317 11.0761
L58.3898 11.0761
" />
<path d="M58.3898 11.0761
L58.2688 11.0157
" />
<path d="M58.2688 11.0157
L58.2084 10.8947
" />
<path d="M58.2084 10.8947
L58.2084 10.4109
" />
<path d="M58.2084 10.4109
L58.2688 10.2899
" />
<path d="M58.2688 10.2899
L58.3898 10.2295
" />
<path d="M58.3898 10.2295
L58.6317 10.2295
" />
<path d="M58.6317 10.2295
L58.7526 10.2899
" />
<path d="M58.7526 10.2899
L58.8131 10.4109
" />
<path d="M58.8131 10.4109
L58.8131 10.5318
" />
<path d="M58.8131 10.5318
L58.2084 10.6528
" />
<path d="M59.3574 11.0761
L59.3574 9.8061
" />
<path d="M59.3574 9.8061
L59.6598 9.8061
" />
<path d="M59.6598 9.8061
L59.8412 9.8666
" />
<path d="M59.8412 9.8666
L59.9622 9.9876
" />
<path d="M59.9622 9.9876
L60.0227 10.1085
" />
<path d="M60.0227 10.1085
L60.0831 10.3504
" />
<path d="M60.0831 10.3504
L60.0831 10.5318
" />
<path d="M60.0831 10.5318
L60.0227 10.7737
" />
<path d="M60.0227 10.7737
L59.9622 10.8947
" />
<path d="M59.9622 10.8947
L59.8412 11.0157
" />
<path d="M59.8412 11.0157
L59.6598 11.0761
" />
<path d="M59.6598 11.0761
L59.3574 11.0761
" />
<path d="M60.8089 11.0761
L60.6879 11.0157
" />
<path d="M60.6879 11.0157
L60.6274 10.9552
" />
<path d="M60.6274 10.9552
L60.5670 10.8342
" />
<path d="M60.5670 10.8342
L60.5670 10.4714
" />
<path d="M60.5670 10.4714
L60.6274 10.3504
" />
<path d="M60.6274 10.3504
L60.6879 10.2899
" />
<path d="M60.6879 10.2899
L60.8089 10.2295
" />
<path d="M60.8089 10.2295
L60.9903 10.2295
" />
<path d="M60.9903 10.2295
L61.1112 10.2899
" />
<path d="M61.1112 10.2899
L61.1717 10.3504
" />
<path d="M61.1717 10.3504
L61.2322 10.4714
" />
<path d="M61.2322 10.4714
L61.2322 10.8342
" />
<path d="M61.2322 10.8342
L61.1717 10.9552
" />
<path d="M61.1717 10.9552
L61.1112 11.0157
" />
<path d="M61.1112 11.0157
L60.9903 11.0761
" />
<path d="M60.9903 11.0761
L60.8089 11.0761
" />
<path d="M62.3207 11.0157
L62.1998 11.0761
" />
<path d="M62.1998 11.0761
L61.9579 11.0761
" />
<path d="M61.9579 11.0761
L61.8369 11.0157
" />
<path d="M61.8369 11.0157
L61.7764 10.9552
" />
<path d="M61.7764 10.9552
L61.7160 10.8342
" />
<path d="M61.7160 10.8342
L61.7160 10.4714
" />
<path d="M61.7160 10.4714
L61.7764 10.3504
" />
<path d="M61.7764 10.3504
L61.8369 10.2899
" />
<path d="M61.8369 10.2899
L61.9579 10.2295
" />
<path d="M61.9579 10.2295
L62.1998 10.2295
" />
<path d="M62.1998 10.2295
L62.3207 10.2899
" />
<path d="M63.7722 9.7457
L62.6836 11.3785
" />
<path d="M64.1955 11.0761
L64.1955 9.8061
" />
<path d="M64.1955 9.8061
L64.6793 9.8061
" />
<path d="M64.6793 9.8061
L64.8003 9.8666
" />
<path d="M64.8003 9.8666
L64.8608 9.9271
" />
<path d="M64.8608 9.9271
L64.9212 10.0480
" />
<path d="M64.9212 10.0480
L64.9212 10.2295
" />
<path d="M64.9212 10.2295
L64.8608 10.3504
" />
<path d="M64.8608 10.3504
L64.8003 10.4109
" />
<path d="M64.8003 10.4109
L64.6793 10.4714
" />
<path d="M64.6793 10.4714
L64.1955 10.4714
" />
<path d="M65.4655 11.0761
L65.4655 9.8061
" />
<path d="M66.7960 10.9552
L66.7356 11.0157
" />
<path d="M66.7356 11.0157
L66.5541 11.0761
" />
<path d="M66.5541 11.0761
L66.4332 11.0761
" />
<path d="M66.4332 11.0761
L66.2518 11.0157
" />
<path d="M66.2518 11.0157
L66.1308 10.8947
" />
<path d="M66.1308 10.8947
L66.0703 10.7737
" />
<path d="M66.0703 10.7737
L66.0099 10.5318
" />
<path d="M66.0099 10.5318
L66.0099 10.3504
" />
<path d="M66.0099 10.3504
L66.0703 10.1085
" />
<path d="M66.0703 10.1085
L66.1308 9.9876
" />
<path d="M66.1308 9.9876
L66.2518 9.8666
" />
<path d="M66.2518 9.8666
L66.4332 9.8061
" />
<path d="M66.4332 9.8061
L66.5541 9.8061
" />
<path d="M66.5541 9.8061
L66.7356 9.8666
" />
<path d="M66.7356 9.8666
L66.7960 9.9271
" />
<path d="M68.0056 11.0761
L67.2799 11.0761
" />
<path d="M67.6427 11.0761
L67.6427 9.8061
" />
<path d="M67.6427 9.8061
L67.5218 9.9876
" />
<path d="M67.5218 9.9876
L67.4008 10.1085
" />
<path d="M67.4008 10.1085
L67.2799 10.1690
" />
<path d="M69.0941 9.8061
L68.8522 9.8061
" />
<path d="M68.8522 9.8061
L68.7313 9.8666
" />
<path d="M68.7313 9.8666
L68.6708 9.9271
" />
<path d="M68.6708 9.9271
L68.5498 10.1085
" />
<path d="M68.5498 10.1085
L68.4894 10.3504
" />
<path d="M68.4894 10.3504
L68.4894 10.8342
" />
<path d="M68.4894 10.8342
L68.5498 10.9552
" />
<path d="M68.5498 10.9552
L68.6103 11.0157
" />
<path d="M68.6103 11.0157
L68.7313 11.0761
" />
<path d="M68.7313 11.0761
L68.9732 11.0761
" />
<path d="M68.9732 11.0761
L69.0941 11.0157
" />
<path d="M69.0941 11.0157
L69.1546 10.9552
" />
<path d="M69.1546 10.9552
L69.2151 10.8342
" />
<path d="M69.2151 10.8342
L69.2151 10.5318
" />
<path d="M69.2151 10.5318
L69.1546 10.4109
" />
<path d="M69.1546 10.4109
L69.0941 10.3504
" />
<path d="M69.0941 10.3504
L68.9732 10.2899
" />
<path d="M68.9732 10.2899
L68.7313 10.2899
" />
<path d="M68.7313 10.2899
L68.6103 10.3504
" />
<path d="M68.6103 10.3504
L68.5498 10.4109
" />
<path d="M68.5498 10.4109
L68.4894 10.5318
" />
<path d="M70.3641 11.0761
L69.7593 11.0761
" />
<path d="M69.7593 11.0761
L69.7593 9.8061
" />
<path d="M71.2108 10.4109
L70.7874 10.4109
" />
<path d="M70.7874 11.0761
L70.7874 9.8061
" />
<path d="M70.7874 9.8061
L71.3922 9.8061
" />
<path d="M72.5413 11.0761
L71.8156 11.0761
" />
<path d="M72.1784 11.0761
L72.1784 9.8061
" />
<path d="M72.1784 9.8061
L72.0575 9.9876
" />
<path d="M72.0575 9.9876
L71.9365 10.1085
" />
<path d="M71.9365 10.1085
L71.8156 10.1690
" />
<path d="M73.6903 9.8061
L73.0855 9.8061
" />
<path d="M73.0855 9.8061
L73.0251 10.4109
" />
<path d="M73.0251 10.4109
L73.0855 10.3504
" />
<path d="M73.0855 10.3504
L73.2065 10.2899
" />
<path d="M73.2065 10.2899
L73.5089 10.2899
" />
<path d="M73.5089 10.2899
L73.6298 10.3504
" />
<path d="M73.6298 10.3504
L73.6903 10.4109
" />
<path d="M73.6903 10.4109
L73.7508 10.5318
" />
<path d="M73.7508 10.5318
L73.7508 10.8342
" />
<path d="M73.7508 10.8342
L73.6903 10.9552
" />
<path d="M73.6903 10.9552
L73.6298 11.0157
" />
<path d="M73.6298 11.0157
L73.5089 11.0761
" />
<path d="M73.5089 11.0761
L73.2065 11.0761
" />
<path d="M73.2065 11.0761
L73.0855 11.0157
" />
<path d="M73.0855 11.0157
L73.0251 10.9552
" />
<path d="M74.1741 9.8061
L74.9603 9.8061
" />
<path d="M74.9603 9.8061
L74.5369 10.2899
" />
<path d="M74.5369 10.2899
L74.7184 10.2899
" />
<path d="M74.7184 10.2899
L74.8393 10.3504
" />
<path d="M74.8393 10.3504
L74.8998 10.4109
" />
<path d="M74.8998 10.4109
L74.9603 10.5318
" />
<path d="M74.9603 10.5318
L74.9603 10.8342
" />
<path d="M74.9603 10.8342
L74.8998 10.9552
" />
<path d="M74.8998 10.9552
L74.8393 11.0157
" />
<path d="M74.8393 11.0157
L74.7184 11.0761
" />
<path d="M74.7184 11.0761
L74.3555 11.0761
" />
<path d="M74.3555 11.0761
L74.2346 11.0157
" />
<path d="M74.2346 11.0157
L74.1741 10.9552
" />
<path d="M76.1093 9.8061
L75.5045 9.8061
" />
<path d="M75.5045 9.8061
L75.4441 10.4109
" />
<path d="M75.4441 10.4109
L75.5045 10.3504
" />
<path d="M75.5045 10.3504
L75.6255 10.2899
" />
<path d="M75.6255 10.2899
L75.9279 10.2899
" />
<path d="M75.9279 10.2899
L76.0488 10.3504
" />
<path d="M76.0488 10.3504
L76.1093 10.4109
" />
<path d="M76.1093 10.4109
L76.1698 10.5318
" />
<path d="M76.1698 10.5318
L76.1698 10.8342
" />
<path d="M76.1698 10.8342
L76.1093 10.9552
" />
<path d="M76.1093 10.9552
L76.0488 11.0157
" />
<path d="M76.0488 11.0157
L75.9279 11.0761
" />
<path d="M75.9279 11.0761
L75.6255 11.0761
" />
<path d="M75.6255 11.0761
L75.5045 11.0157
" />
<path d="M75.5045 11.0157
L75.4441 10.9552
" />
<path d="M77.2583 9.8061
L77.0164 9.8061
" />
<path d="M77.0164 9.8061
L76.8955 9.8666
" />
<path d="M76.8955 9.8666
L76.8350 9.9271
" />
<path d="M76.8350 9.9271
L76.7140 10.1085
" />
<path d="M76.7140 10.1085
L76.6536 10.3504
" />
<path d="M76.6536 10.3504
L76.6536 10.8342
" />
<path d="M76.6536 10.8342
L76.7140 10.9552
" />
<path d="M76.7140 10.9552
L76.7745 11.0157
" />
<path d="M76.7745 11.0157
L76.8955 11.0761
" />
<path d="M76.8955 11.0761
L77.1374 11.0761
" />
<path d="M77.1374 11.0761
L77.2583 11.0157
" />
<path d="M77.2583 11.0157
L77.3188 10.9552
" />
<path d="M77.3188 10.9552
L77.3793 10.8342
" />
<path d="M77.3793 10.8342
L77.3793 10.5318
" />
<path d="M77.3793 10.5318
L77.3188 10.4109
" />
<path d="M77.3188 10.4109
L77.2583 10.3504
" />
<path d="M77.2583 10.3504
L77.1374 10.2899
" />
<path d="M77.1374 10.2899
L76.8955 10.2899
" />
<path d="M76.8955 10.2899
L76.7745 10.3504
" />
<path d="M76.7745 10.3504
L76.7140 10.4109
" />
<path d="M76.7140 10.4109
L76.6536 10.5318
" />
<path d="M77.9235 10.5923
L78.8912 10.5923
" />
<path d="M79.3750 9.8061
L80.2216 9.8061
" />
<path d="M80.2216 9.8061
L79.6774 11.0761
" />
<path d="M81.3102 9.8061
L80.7054 9.8061
" />
<path d="M80.7054 9.8061
L80.6450 10.4109
" />
<path d="M80.6450 10.4109
L80.7054 10.3504
" />
<path d="M80.7054 10.3504
L80.8264 10.2899
" />
<path d="M80.8264 10.2899
L81.1288 10.2899
" />
<path d="M81.1288 10.2899
L81.2497 10.3504
" />
<path d="M81.2497 10.3504
L81.3102 10.4109
" />
<path d="M81.3102 10.4109
L81.3707 10.5318
" />
<path d="M81.3707 10.5318
L81.3707 10.8342
" />
<path d="M81.3707 10.8342
L81.3102 10.9552
" />
<path d="M81.3102 10.9552
L81.2497 11.0157
" />
<path d="M81.2497 11.0157
L81.1288 11.0761
" />
<path d="M81.1288 11.0761
L80.8264 11.0761
" />
<path d="M80.8264 11.0761
L80.7054 11.0157
" />
<path d="M80.7054 11.0157
L80.6450 10.9552
" />
<path d="M81.9149 10.5923
L82.8826 10.5923
" />
<path d="M83.3664 9.8061
L84.2130 9.8061
" />
<path d="M84.2130 9.8061
L83.6688 11.0761
" />
<path d="M85.2411 9.8061
L84.9992 9.8061
" />
<path d="M84.9992 9.8061
L84.8783 9.8666
" />
<path d="M84.8783 9.8666
L84.8178 9.9271
" />
<path d="M84.8178 9.9271
L84.6968 10.1085
" />
<path d="M84.6968 10.1085
L84.6364 10.3504
" />
<path d="M84.6364 10.3504
L84.6364 10.8342
" />
<path d="M84.6364 10.8342
L84.6968 10.9552
" />
<path d="M84.6968 10.9552
L84.7573 11.0157
" />
<path d="M84.7573 11.0157
L84.8783 11.0761
" />
<path d="M84.8783 11.0761
L85.1202 11.0761
" />
<path d="M85.1202 11.0761
L85.2411 11.0157
" />
<path d="M85.2411 11.0157
L85.3016 10.9552
" />
<path d="M85.3016 10.9552
L85.3621 10.8342
" />
<path d="M85.3621 10.8342
L85.3621 10.5318
" />
<path d="M85.3621 10.5318
L85.3016 10.4109
" />
<path d="M85.3016 10.4109
L85.2411 10.3504
" />
<path d="M85.2411 10.3504
L85.1202 10.2899
" />
<path d="M85.1202 10.2899
L84.8783 10.2899
" />
<path d="M84.8783 10.2899
L84.7573 10.3504
" />
<path d="M84.7573 10.3504
L84.6968 10.4109
" />
<path d="M84.6968 10.4109
L84.6364 10.5318
" />
<path d="M85.9063 10.5923
L86.8740 10.5923
" />
<path d="M87.6602 10.3504
L87.5392 10.2899
" />
<path d="M87.5392 10.2899
L87.4787 10.2295
" />
<path d="M87.4787 10.2295
L87.4183 10.1085
" />
<path d="M87.4183 10.1085
L87.4183 10.0480
" />
<path d="M87.4183 10.0480
L87.4787 9.9271
" />
<path d="M87.4787 9.9271
L87.5392 9.8666
" />
<path d="M87.5392 9.8666
L87.6602 9.8061
" />
<path d="M87.6602 9.8061
L87.9021 9.8061
" />
<path d="M87.9021 9.8061
L88.0230 9.8666
" />
<path d="M88.0230 9.8666
L88.0835 9.9271
" />
<path d="M88.0835 9.9271
L88.1440 10.0480
" />
<path d="M88.1440 10.0480
L88.1440 10.1085
" />
<path d="M88.1440 10.1085
L88.0835 10.2295
" />
<path d="M88.0835 10.2295
L88.0230 10.2899
" />
<path d="M88.0230 10.2899
L87.9021 10.3504
" />
<path d="M87.9021 10.3504
L87.6602 10.3504
" />
<path d="M87.6602 10.3504
L87.5392 10.4109
" />
<path d="M87.5392 10.4109
L87.4787 10.4714
" />
<path d="M87.4787 10.4714
L87.4183 10.5923
" />
<path d="M87.4183 10.5923
L87.4183 10.8342
" />
<path d="M87.4183 10.8342
L87.4787 10.9552
" />
<path d="M87.4787 10.9552
L87.5392 11.0157
" />
<path d="M87.5392 11.0157
L87.6602 11.0761
" />
<path d="M87.6602 11.0761
L87.9021 11.0761
" />
<path d="M87.9021 11.0761
L88.0230 11.0157
" />
<path d="M88.0230 11.0157
L88.0835 10.9552
" />
<path d="M88.0835 10.9552
L88.1440 10.8342
" />
<path d="M88.1440 10.8342
L88.1440 10.5923
" />
<path d="M88.1440 10.5923
L88.0835 10.4714
" />
<path d="M88.0835 10.4714
L88.0230 10.4109
" />
<path d="M88.0230 10.4109
L87.9021 10.3504
" />
<path d="M89.2930 9.8061
L88.6882 9.8061
" />
<path d="M88.6882 9.8061
L88.6278 10.4109
" />
<path d="M88.6278 10.4109
L88.6882 10.3504
" />
<path d="M88.6882 10.3504
L88.8092 10.2899
" />
<path d="M88.8092 10.2899
L89.1116 10.2899
" />
<path d="M89.1116 10.2899
L89.2325 10.3504
" />
<path d="M89.2325 10.3504
L89.2930 10.4109
" />
<path d="M89.2930 10.4109
L89.3535 10.5318
" />
<path d="M89.3535 10.5318
L89.3535 10.8342
" />
<path d="M89.3535 10.8342
L89.2930 10.9552
" />
<path d="M89.2930 10.9552
L89.2325 11.0157
" />
<path d="M89.2325 11.0157
L89.1116 11.0761
" />
<path d="M89.1116 11.0761
L88.8092 11.0761
" />
<path d="M88.8092 11.0761
L88.6882 11.0157
" />
<path d="M88.6882 11.0157
L88.6278 10.9552
" />
<path d="M89.8977 10.5923
L90.8654 10.5923
" />
<path d="M91.6516 10.3504
L91.5306 10.2899
" />
<path d="M91.5306 10.2899
L91.4701 10.2295
" />
<path d="M91.4701 10.2295
L91.4097 10.1085
" />
<path d="M91.4097 10.1085
L91.4097 10.0480
" />
<path d="M91.4097 10.0480
L91.4701 9.9271
" />
<path d="M91.4701 9.9271
L91.5306 9.8666
" />
<path d="M91.5306 9.8666
L91.6516 9.8061
" />
<path d="M91.6516 9.8061
L91.8935 9.8061
" />
<path d="M91.8935 9.8061
L92.0144 9.8666
" />
<path d="M92.0144 9.8666
L92.0749 9.9271
" />
<path d="M92.0749 9.9271
L92.1354 10.0480
" />
<path d="M92.1354 10.0480
L92.1354 10.1085
" />
<path d="M92.1354 10.1085
L92.0749 10.2295
" />
<path d="M92.0749 10.2295
L92.0144 10.2899
" />
<path d="M92.0144 10.2899
L91.8935 10.3504
" />
<path d="M91.8935 10.3504
L91.6516 10.3504
" />
<path d="M91.6516 10.3504
L91.5306 10.4109
" />
<path d="M91.5306 10.4109
L91.4701 10.4714
" />
<path d="M91.4701 10.4714
L91.4097 10.5923
" />
<path d="M91.4097 10.5923
L91.4097 10.8342
" />
<path d="M91.4097 10.8342
L91.4701 10.9552
" />
<path d="M91.4701 10.9552
L91.5306 11.0157
" />
<path d="M91.5306 11.0157
L91.6516 11.0761
" />
<path d="M91.6516 11.0761
L91.8935 11.0761
" />
<path d="M91.8935 11.0761
L92.0144 11.0157
" />
<path d="M92.0144 11.0157
L92.0749 10.9552
" />
<path d="M92.0749 10.9552
L92.1354 10.8342
" />
<path d="M92.1354 10.8342
L92.1354 10.5923
" />
<path d="M92.1354 10.5923
L92.0749 10.4714
" />
<path d="M92.0749 10.4714
L92.0144 10.4109
" />
<path d="M92.0144 10.4109
L91.8935 10.3504
" />
<path d="M93.2239 9.8061
L92.9820 9.8061
" />
<path d="M92.9820 9.8061
L92.8611 9.8666
" />
<path d="M92.8611 9.8666
L92.8006 9.9271
" />
<path d="M92.8006 9.9271
L92.6796 10.1085
" />
<path d="M92.6796 10.1085
L92.6192 10.3504
" />
<path d="M92.6192 10.3504
L92.6192 10.8342
" />
<path d="M92.6192 10.8342
L92.6796 10.9552
" />
<path d="M92.6796 10.9552
L92.7401 11.0157
" />
<path d="M92.7401 11.0157
L92.8611 11.0761
" />
<path d="M92.8611 11.0761
L93.1030 11.0761
" />
<path d="M93.1030 11.0761
L93.2239 11.0157
" />
<path d="M93.2239 11.0157
L93.2844 10.9552
" />
<path d="M93.2844 10.9552
L93.3449 10.8342
" />
<path d="M93.3449 10.8342
L93.3449 10.5318
" />
<path d="M93.3449 10.5318
L93.2844 10.4109
" />
<path d="M93.2844 10.4109
L93.2239 10.3504
" />
<path d="M93.2239 10.3504
L93.1030 10.2899
" />
<path d="M93.1030 10.2899
L92.8611 10.2899
" />
<path d="M92.8611 10.2899
L92.7401 10.3504
" />
<path d="M92.7401 10.3504
L92.6796 10.4109
" />
<path d="M92.6796 10.4109
L92.6192 10.5318
" />
<path d="M93.8891 10.5923
L94.8568 10.5923
" />
<path d="M95.4615 11.0761
L95.4615 9.8061
" />
<path d="M95.4615 9.8061
L95.7639 9.8061
" />
<path d="M95.7639 9.8061
L95.9453 9.8666
" />
<path d="M95.9453 9.8666
L96.0663 9.9876
" />
<path d="M96.0663 9.9876
L96.1268 10.1085
" />
<path d="M96.1268 10.1085
L96.1872 10.3504
" />
<path d="M96.1872 10.3504
L96.1872 10.5318
" />
<path d="M96.1872 10.5318
L96.1268 10.7737
" />
<path d="M96.1268 10.7737
L96.0663 10.8947
" />
<path d="M96.0663 10.8947
L95.9453 11.0157
" />
<path d="M95.9453 11.0157
L95.7639 11.0761
" />
<path d="M95.7639 11.0761
L95.4615 11.0761
" />
<path d="M97.2758 11.0761
L97.2758 10.4109
" />
<path d="M97.2758 10.4109
L97.2153 10.2899
" />
<path d="M97.2153 10.2899
L97.0944 10.2295
" />
<path d="M97.0944 10.2295
L96.8525 10.2295
" />
<path d="M96.8525 10.2295
L96.7315 10.2899
" />
<path d="M97.2758 11.0157
L97.1549 11.0761
" />
<path d="M97.1549 11.0761
L96.8525 11.0761
" />
<path d="M96.8525 11.0761
L96.7315 11.0157
" />
<path d="M96.7315 11.0157
L96.6711 10.8947
" />
<path d="M96.6711 10.8947
L96.6711 10.7737
" />
<path d="M96.6711 10.7737
L96.7315 10.6528
" />
<path d="M96.7315 10.6528
L96.8525 10.5923
" />
<path d="M96.8525 10.5923
L97.1549 10.5923
" />
<path d="M97.1549 10.5923
L97.2758 10.5318
" />
<path d="M97.6991 10.2295
L98.1829 10.2295
" />
<path d="M97.8805 9.8061
L97.8805 10.8947
" />
<path d="M97.8805 10.8947
L97.9410 11.0157
" />
<path d="M97.9410 11.0157
L98.0620 11.0761
" />
<path d="M98.0620 11.0761
L98.1829 11.0761
" />
<path d="M99.1505 11.0761
L99.1505 10.4109
" />
<path d="M99.1505 10.4109
L99.0900 10.2899
" />
<path d="M99.0900 10.2899
L98.9691 10.2295
" />
<path d="M98.9691 10.2295
L98.7272 10.2295
" />
<path d="M98.7272 10.2295
L98.6062 10.2899
" />
<path d="M99.1505 11.0157
L99.0296 11.0761
" />
<path d="M99.0296 11.0761
L98.7272 11.0761
" />
<path d="M98.7272 11.0761
L98.6062 11.0157
" />
<path d="M98.6062 11.0157
L98.5458 10.8947
" />
<path d="M98.5458 10.8947
L98.5458 10.7737
" />
<path d="M98.5458 10.7737
L98.6062 10.6528
" />
<path d="M98.6062 10.6528
L98.7272 10.5923
" />
<path d="M98.7272 10.5923
L99.0296 10.5923
" />
<path d="M99.0296 10.5923
L99.1505 10.5318
" />
<path d="M99.6948 11.0761
L100.6624 9.8061
" />
<path d="M99.8762 9.8061
L99.9971 9.8666
" />
<path d="M99.9971 9.8666
L100.0576 9.9876
" />
<path d="M100.0576 9.9876
L99.9971 10.1085
" />
<path d="M99.9971 10.1085
L99.8762 10.1690
" />
<path d="M99.8762 10.1690
L99.7552 10.1085
" />
<path d="M99.7552 10.1085
L99.6948 9.9876
" />
<path d="M99.6948 9.9876
L99.7552 9.8666
" />
<path d="M99.7552 9.8666
L99.8762 9.8061
" />
<path d="M100.6019 11.0157
L100.6624 10.8947
" />
<path d="M100.6624 10.8947
L100.6019 10.7737
" />
<path d="M100.6019 10.7737
L100.4809 10.7133
" />
<path d="M100.4809 10.7133
L100.3600 10.7737
" />
<path d="M100.3600 10.7737
L100.2995 10.8947
" />
<path d="M100.2995 10.8947
L100.3600 11.0157
" />
<path d="M100.3600 11.0157
L100.4809 11.0761
" />
<path d="M100.4809 11.0761
L100.6019 11.0157
" />
<path d="M101.1462 9.9271
L101.2066 9.8666
" />
<path d="M101.2066 9.8666
L101.3276 9.8061
" />
<path d="M101.3276 9.8061
L101.6300 9.8061
" />
<path d="M101.6300 9.8061
L101.7509 9.8666
" />
<path d="M101.7509 9.8666
L101.8114 9.9271
" />
<path d="M101.8114 9.9271
L101.8719 10.0480
" />
<path d="M101.8719 10.0480
L101.8719 10.1690
" />
<path d="M101.8719 10.1690
L101.8114 10.3504
" />
<path d="M101.8114 10.3504
L101.0857 11.0761
" />
<path d="M101.0857 11.0761
L101.8719 11.0761
" />
<path d="M102.6580 9.8061
L102.7790 9.8061
" />
<path d="M102.7790 9.8061
L102.8999 9.8666
" />
<path d="M102.8999 9.8666
L102.9604 9.9271
" />
<path d="M102.9604 9.9271
L103.0209 10.0480
" />
<path d="M103.0209 10.0480
L103.0814 10.2899
" />
<path d="M103.0814 10.2899
L103.0814 10.5923
" />
<path d="M103.0814 10.5923
L103.0209 10.8342
" />
<path d="M103.0209 10.8342
L102.9604 10.9552
" />
<path d="M102.9604 10.9552
L102.8999 11.0157
" />
<path d="M102.8999 11.0157
L102.7790 11.0761
" />
<path d="M102.7790 11.0761
L102.6580 11.0761
" />
<path d="M102.6580 11.0761
L102.5371 11.0157
" />
<path d="M102.5371 11.0157
L102.4766 10.9552
" />
<path d="M102.4766 10.9552
L102.4161 10.8342
" />
<path d="M102.4161 10.8342
L102.3557 10.5923
" />
<path d="M102.3557 10.5923
L102.3557 10.2899
" />
<path d="M102.3557 10.2899
L102.4161 10.0480
" />
<path d="M102.4161 10.0480
L102.4766 9.9271
" />
<path d="M102.4766 9.9271
L102.5371 9.8666
" />
<path d="M102.5371 9.8666
L102.6580 9.8061
" />
<path d="M103.5652 11.0157
L103.7466 11.0761
" />
<path d="M103.7466 11.0761
L104.0490 11.0761
" />
<path d="M104.0490 11.0761
L104.1699 11.0157
" />
<path d="M104.1699 11.0157
L104.2304 10.9552
" />
<path d="M104.2304 10.9552
L104.2909 10.8342
" />
<path d="M104.2909 10.8342
L104.2909 10.7133
" />
<path d="M104.2909 10.7133
L104.2304 10.5923
" />
<path d="M104.2304 10.5923
L104.1699 10.5318
" />
<path d="M104.1699 10.5318
L104.0490 10.4714
" />
<path d="M104.0490 10.4714
L103.8071 10.4109
" />
<path d="M103.8071 10.4109
L103.6861 10.3504
" />
<path d="M103.6861 10.3504
L103.6256 10.2899
" />
<path d="M103.6256 10.2899
L103.5652 10.1690
" />
<path d="M103.5652 10.1690
L103.5652 10.0480
" />
<path d="M103.5652 10.0480
L103.6256 9.9271
" />
<path d="M103.6256 9.9271
L103.6861 9.8666
" />
<path d="M103.6861 9.8666
L103.8071 9.8061
" />
<path d="M103.8071 9.8061
L104.1094 9.8061
" />
<path d="M104.1094 9.8061
L104.2909 9.8666
" />
<path d="M104.8351 11.0761
L104.8351 9.8061
" />
<path d="M105.3794 11.0761
L105.3794 10.4109
" />
<path d="M105.3794 10.4109
L105.3189 10.2899
" />
<path d="M105.3189 10.2899
L105.1980 10.2295
" />
<path d="M105.1980 10.2295
L105.0166 10.2295
" />
<path d="M105.0166 10.2295
L104.8956 10.2899
" />
<path d="M104.8956 10.2899
L104.8351 10.3504
" />
<path d="M106.4679 11.0157
L106.3470 11.0761
" />
<path d="M106.3470 11.0761
L106.1051 11.0761
" />
<path d="M106.1051 11.0761
L105.9841 11.0157
" />
<path d="M105.9841 11.0157
L105.9237 10.8947
" />
<path d="M105.9237 10.8947
L105.9237 10.4109
" />
<path d="M105.9237 10.4109
L105.9841 10.2899
" />
<path d="M105.9841 10.2899
L106.1051 10.2295
" />
<path d="M106.1051 10.2295
L106.3470 10.2295
" />
<path d="M106.3470 10.2295
L106.4679 10.2899
" />
<path d="M106.4679 10.2899
L106.5284 10.4109
" />
<path d="M106.5284 10.4109
L106.5284 10.5318
" />
<path d="M106.5284 10.5318
L105.9237 10.6528
" />
<path d="M107.5565 11.0157
L107.4356 11.0761
" />
<path d="M107.4356 11.0761
L107.1937 11.0761
" />
<path d="M107.1937 11.0761
L107.0727 11.0157
" />
<path d="M107.0727 11.0157
L107.0123 10.8947
" />
<path d="M107.0123 10.8947
L107.0123 10.4109
" />
<path d="M107.0123 10.4109
L107.0727 10.2899
" />
<path d="M107.0727 10.2899
L107.1937 10.2295
" />
<path d="M107.1937 10.2295
L107.4356 10.2295
" />
<path d="M107.4356 10.2295
L107.5565 10.2899
" />
<path d="M107.5565 10.2899
L107.6170 10.4109
" />
<path d="M107.6170 10.4109
L107.6170 10.5318
" />
<path d="M107.6170 10.5318
L107.0123 10.6528
" />
<path d="M107.9799 10.2295
L108.4637 10.2295
" />
<path d="M108.1613 9.8061
L108.1613 10.8947
" />
<path d="M108.1613 10.8947
L108.2218 11.0157
" />
<path d="M108.2218 11.0157
L108.3428 11.0761
" />
<path d="M108.3428 11.0761
L108.4637 11.0761
" />
<path d="M108.8870 10.5923
L109.8547 10.5923
" />
<path d="M111.0037 10.2295
L111.0037 11.0761
" />
<path d="M110.7013 9.7457
L110.3990 10.6528
" />
<path d="M110.3990 10.6528
L111.1851 10.6528
" />
<path d="M111.9108 9.8061
L112.0318 9.8061
" />
<path d="M112.0318 9.8061
L112.1527 9.8666
" />
<path d="M112.1527 9.8666
L112.2132 9.9271
" />
<path d="M112.2132 9.9271
L112.2737 10.0480
" />
<path d="M112.2737 10.0480
L112.3342 10.2899
" />
<path d="M112.3342 10.2899
L112.3342 10.5923
" />
<path d="M112.3342 10.5923
L112.2737 10.8342
" />
<path d="M112.2737 10.8342
L112.2132 10.9552
" />
<path d="M112.2132 10.9552
L112.1527 11.0157
" />
<path d="M112.1527 11.0157
L112.0318 11.0761
" />
<path d="M112.0318 11.0761
L111.9108 11.0761
" />
<path d="M111.9108 11.0761
L111.7899 11.0157
" />
<path d="M111.7899 11.0157
L111.7294 10.9552
" />
<path d="M111.7294 10.9552
L111.6689 10.8342
" />
<path d="M111.6689 10.8342
L111.6085 10.5923
" />
<path d="M111.6085 10.5923
L111.6085 10.2899
" />
<path d="M111.6085 10.2899
L111.6689 10.0480
" />
<path d="M111.6689 10.0480
L111.7294 9.9271
" />
<path d="M111.7294 9.9271
L111.7899 9.8666
" />
<path d="M111.7899 9.8666
L111.9108 9.8061
" />
<path d="M113.1203 9.8061
L113.2413 9.8061
" />
<path d="M113.2413 9.8061
L113.3622 9.8666
" />
<path d="M113.3622 9.8666
L113.4227 9.9271
" />
<path d="M113.4227 9.9271
L113.4832 10.0480
" />
<path d="M113.4832 10.0480
L113.5437 10.2899
" />
<path d="M113.5437 10.2899
L113.5437 10.5923
" />
<path d="M113.5437 10.5923
L113.4832 10.8342
" />
<path d="M113.4832 10.8342
L113.4227 10.9552
" />
<path d="M113.4227 10.9552
L113.3622 11.0157
" />
<path d="M113.3622 11.0157
L113.2413 11.0761
" />
<path d="M113.2413 11.0761
L113.1203 11.0761
" />
<path d="M113.1203 11.0761
L112.9994 11.0157
" />
<path d="M112.9994 11.0157
L112.9389 10.9552
" />
<path d="M112.9389 10.9552
L112.8784 10.8342
" />
<path d="M112.8784 10.8342
L112.8180 10.5923
" />
<path d="M112.8180 10.5923
L112.8180 10.2899
" />
<path d="M112.8180 10.2899
L112.8784 10.0480
" />
<path d="M112.8784 10.0480
L112.9389 9.9271
" />
<path d="M112.9389 9.9271
L112.9994 9.8666
" />
<path d="M112.9994 9.8666
L113.1203 9.8061
" />
<path d="M114.3298 9.8061
L114.4508 9.8061
" />
<path d="M114.4508 9.8061
L114.5717 9.8666
" />
<path d="M114.5717 9.8666
L114.6322 9.9271
" />
<path d="M114.6322 9.9271
L114.6927 10.0480
" />
<path d="M114.6927 10.0480
L114.7532 10.2899
" />
<path d="M114.7532 10.2899
L114.7532 10.5923
" />
<path d="M114.7532 10.5923
L114.6927 10.8342
" />
<path d="M114.6927 10.8342
L114.6322 10.9552
" />
<path d="M114.6322 10.9552
L114.5717 11.0157
" />
<path d="M114.5717 11.0157
L114.4508 11.0761
" />
<path d="M114.4508 11.0761
L114.3298 11.0761
" />
<path d="M114.3298 11.0761
L114.2089 11.0157
" />
<path d="M114.2089 11.0157
L114.1484 10.9552
" />
<path d="M114.1484 10.9552
L114.0879 10.8342
" />
<path d="M114.0879 10.8342
L114.0275 10.5923
" />
<path d="M114.0275 10.5923
L114.0275 10.2899
" />
<path d="M114.0275 10.2899
L114.0879 10.0480
" />
<path d="M114.0879 10.0480
L114.1484 9.9271
" />
<path d="M114.1484 9.9271
L114.2089 9.8666
" />
<path d="M114.2089 9.8666
L114.3298 9.8061
" />
<path d="M115.9627 11.0761
L115.2370 11.0761
" />
<path d="M115.5998 11.0761
L115.5998 9.8061
" />
<path d="M115.5998 9.8061
L115.4789 9.9876
" />
<path d="M115.4789 9.9876
L115.3579 10.1085
" />
<path d="M115.3579 10.1085
L115.2370 10.1690
" />
<path d="M116.6884 10.3504
L116.5674 10.2899
" />
<path d="M116.5674 10.2899
L116.5069 10.2295
" />
<path d="M116.5069 10.2295
L116.4465 10.1085
" />
<path d="M116.4465 10.1085
L116.4465 10.0480
" />
<path d="M116.4465 10.0480
L116.5069 9.9271
" />
<path d="M116.5069 9.9271
L116.5674 9.8666
" />
<path d="M116.5674 9.8666
L116.6884 9.8061
" />
<path d="M116.6884 9.8061
L116.9303 9.8061
" />
<path d="M116.9303 9.8061
L117.0512 9.8666
" />
<path d="M117.0512 9.8666
L117.1117 9.9271
" />
<path d="M117.1117 9.9271
L117.1722 10.0480
" />
<path d="M117.1722 10.0480
L117.1722 10.1085
" />
<path d="M117.1722 10.1085
L117.1117 10.2295
" />
<path d="M117.1117 10.2295
L117.0512 10.2899
" />
<path d="M117.0512 10.2899
L116.9303 10.3504
" />
<path d="M116.9303 10.3504
L116.6884 10.3504
" />
<path d="M116.6884 10.3504
L116.5674 10.4109
" />
<path d="M116.5674 10.4109
L116.5069 10.4714
" />
<path d="M116.5069 10.4714
L116.4465 10.5923
" />
<path d="M116.4465 10.5923
L116.4465 10.8342
" />
<path d="M116.4465 10.8342
L116.5069 10.9552
" />
<path d="M116.5069 10.9552
L116.5674 11.0157
" />
<path d="M116.5674 11.0157
L116.6884 11.0761
" />
<path d="M116.6884 11.0761
L116.9303 11.0761
" />
<path d="M116.9303 11.0761
L117.0512 11.0157
" />
<path d="M117.0512 11.0157
L117.1117 10.9552
" />
<path d="M117.1117 10.9552
L117.1722 10.8342
" />
<path d="M117.1722 10.8342
L117.1722 10.5923
" />
<path d="M117.1722 10.5923
L117.1117 10.4714
" />
<path d="M117.1117 10.4714
L117.0512 10.4109
" />
<path d="M117.0512 10.4109
L116.9303 10.3504
" />
<path d="M118.2607 9.8061
L118.0188 9.8061
" />
<path d="M118.0188 9.8061
L117.8979 9.8666
" />
<path d="M117.8979 9.8666
L117.8374 9.9271
" />
<path d="M117.8374 9.9271
L117.7164 10.1085
" />
<path d="M117.7164 10.1085
L117.6560 10.3504
" />
<path d="M117.6560 10.3504
L117.6560 10.8342
" />
<path d="M117.6560 10.8342
L117.7164 10.9552
" />
<path d="M117.7164 10.9552
L117.7769 11.0157
" />
<path d="M117.7769 11.0157
L117.8979 11.0761
" />
<path d="M117.8979 11.0761
L118.1398 11.0761
" />
<path d="M118.1398 11.0761
L118.2607 11.0157
" />
<path d="M118.2607 11.0157
L118.3212 10.9552
" />
<path d="M118.3212 10.9552
L118.3817 10.8342
" />
<path d="M118.3817 10.8342
L118.3817 10.5318
" />
<path d="M118.3817 10.5318
L118.3212 10.4109
" />
<path d="M118.3212 10.4109
L118.2607 10.3504
" />
<path d="M118.2607 10.3504
L118.1398 10.2899
" />
<path d="M118.1398 10.2899
L117.8979 10.2899
" />
<path d="M117.8979 10.2899
L117.7769 10.3504
" />
<path d="M117.7769 10.3504
L117.7164 10.4109
" />
<path d="M117.7164 10.4109
L117.6560 10.5318
" />
<path d="M119.4702 9.8061
L119.2283 9.8061
" />
<path d="M119.2283 9.8061
L119.1074 9.8666
" />
<path d="M119.1074 9.8666
L119.0469 9.9271
" />
<path d="M119.0469 9.9271
L118.9259 10.1085
" />
<path d="M118.9259 10.1085
L118.8655 10.3504
" />
<path d="M118.8655 10.3504
L118.8655 10.8342
" />
<path d="M118.8655 10.8342
L118.9259 10.9552
" />
<path d="M118.9259 10.9552
L118.9864 11.0157
" />
<path d="M118.9864 11.0157
L119.1074 11.0761
" />
<path d="M119.1074 11.0761
L119.3493 11.0761
" />
<path d="M119.3493 11.0761
L119.4702 11.0157
" />
<path d="M119.4702 11.0157
L119.5307 10.9552
" />
<path d="M119.5307 10.9552
L119.5912 10.8342
" />
<path d="M119.5912 10.8342
L119.5912 10.5318
" />
<path d="M119.5912 10.5318
L119.5307 10.4109
" />
<path d="M119.5307 10.4109
L119.4702 10.3504
" />
<path d="M119.4702 10.3504
L119.3493 10.2899
" />
<path d="M119.3493 10.2899
L119.1074 10.2899
" />
<path d="M119.1074 10.2899
L118.9864 10.3504
" />
<path d="M118.9864 10.3504
L118.9259 10.4109
" />
<path d="M118.9259 10.4109
L118.8655 10.5318
" />
<path d="M120.5588 10.4109
L120.7402 10.4714
" />
<path d="M120.7402 10.4714
L120.8007 10.5318
" />
<path d="M120.8007 10.5318
L120.8611 10.6528
" />
<path d="M120.8611 10.6528
L120.8611 10.8342
" />
<path d="M120.8611 10.8342
L120.8007 10.9552
" />
<path d="M120.8007 10.9552
L120.7402 11.0157
" />
<path d="M120.7402 11.0157
L120.6192 11.0761
" />
<path d="M120.6192 11.0761
L120.1354 11.0761
" />
<path d="M120.1354 11.0761
L120.1354 9.8061
" />
<path d="M120.1354 9.8061
L120.5588 9.8061
" />
<path d="M120.5588 9.8061
L120.6797 9.8666
" />
<path d="M120.6797 9.8666
L120.7402 9.9271
" />
<path d="M120.7402 9.9271
L120.8007 10.0480
" />
<path d="M120.8007 10.0480
L120.8007 10.1690
" />
<path d="M120.8007 10.1690
L120.7402 10.2899
" />
<path d="M120.7402 10.2899
L120.6797 10.3504
" />
<path d="M120.6797 10.3504
L120.5588 10.4109
" />
<path d="M120.5588 10.4109
L120.1354 10.4109
" />
<path d="M121.4054 10.9552
L121.4659 11.0157
" />
<path d="M121.4659 11.0157
L121.4054 11.0761
" />
<path d="M121.4054 11.0761
L121.3450 11.0157
" />
<path d="M121.3450 11.0157
L121.4054 10.9552
" />
<path d="M121.4054 10.9552
L121.4054 11.0761
" />
<path d="M122.0102 10.2295
L122.0102 11.4995
" />
<path d="M122.0102 10.2899
L122.1312 10.2295
" />
<path d="M122.1312 10.2295
L122.3731 10.2295
" />
<path d="M122.3731 10.2295
L122.4940 10.2899
" />
<path d="M122.4940 10.2899
L122.5545 10.3504
" />
<path d="M122.5545 10.3504
L122.6150 10.4714
" />
<path d="M122.6150 10.4714
L122.6150 10.8342
" />
<path d="M122.6150 10.8342
L122.5545 10.9552
" />
<path d="M122.5545 10.9552
L122.4940 11.0157
" />
<path d="M122.4940 11.0157
L122.3731 11.0761
" />
<path d="M122.3731 11.0761
L122.1312 11.0761
" />
<path d="M122.1312 11.0761
L122.0102 11.0157
" />
<path d="M123.7035 11.0761
L123.7035 9.8061
" />
<path d="M123.7035 11.0157
L123.5826 11.0761
" />
<path d="M123.5826 11.0761
L123.3407 11.0761
" />
<path d="M123.3407 11.0761
L123.2197 11.0157
" />
<path d="M123.2197 11.0157
L123.1592 10.9552
" />
<path d="M123.1592 10.9552
L123.0988 10.8342
" />
<path d="M123.0988 10.8342
L123.0988 10.4714
" />
<path d="M123.0988 10.4714
L123.1592 10.3504
" />
<path d="M123.1592 10.3504
L123.2197 10.2899
" />
<path d="M123.2197 10.2899
L123.3407 10.2295
" />
<path d="M123.3407 10.2295
L123.5826 10.2295
" />
<path d="M123.5826 10.2295
L123.7035 10.2899
" />
<path d="M124.1268 10.2295
L124.6106 10.2295
" />
<path d="M124.3082 11.0761
L124.3082 9.9876
" />
<path d="M124.3082 9.9876
L124.3687 9.8666
" />
<path d="M124.3687 9.8666
L124.4897 9.8061
" />
<path d="M124.4897 9.8061
L124.6106 9.8061
" />
</g></g> 
</svg>
