<?xml version="1.0" standalone="no"?>
 <!DOCTYPE svg PUBLIC "-//W3C//DTD SVG 1.1//EN" 
 "http://www.w3.org/Graphics/SVG/1.1/DTD/svg11.dtd"> 
<svg
  xmlns:svg="http://www.w3.org/2000/svg"
  xmlns="http://www.w3.org/2000/svg"
  xmlns:xlink="http://www.w3.org/1999/xlink"
  version="1.1"
  width="104.1908mm" height="26.0604mm" viewBox="0.0000 0.0000 104.1908 26.0604">
<title>SVG Image created as working.svg date 2023/08/14 22:02:14 </title>
  <desc>Image generated by Eeschema-SVG </desc>
<g style="fill:#000000; fill-opacity:1.0000;stroke:#000000; stroke-opacity:1.0000;
stroke-linecap:round; stroke-linejoin:round;"
 transform="translate(0 0) scale(1 1)">
</g>
<g style="fill:#840000; fill-opacity:0.0; 
stroke:#840000; stroke-width:0.0000; stroke-opacity:1; 
stroke-linecap:round; stroke-linejoin:round;">
</g>
<g style="fill:#FFFFC2; fill-opacity:0.0; 
stroke:#FFFFC2; stroke-width:0.0000; stroke-opacity:1; 
stroke-linecap:round; stroke-linejoin:round;">
</g>
<g style="fill:#FFFFC2; fill-opacity:1.0000; 
stroke:#FFFFC2; stroke-width:0.0000; stroke-opacity:1; 
stroke-linecap:round; stroke-linejoin:round;">
<rect x="44.474000" y="2.298700" width="15.240000" height="9.525000" rx="0.000000" />
</g>
<g style="fill:#840084; fill-opacity:1.0000; 
stroke:#840084; stroke-width:0.0000; stroke-opacity:1; 
stroke-linecap:round; stroke-linejoin:round;">
</g>
<g style="fill:#840000; fill-opacity:1.0000; 
stroke:#840000; stroke-width:0.0000; stroke-opacity:1; 
stroke-linecap:round; stroke-linejoin:round;">
</g>
<g style="fill:#840000; fill-opacity:0.0; 
stroke:#840000; stroke-width:0.2540; stroke-opacity:1; 
stroke-linecap:round; stroke-linejoin:round;">
<rect x="44.474000" y="2.298700" width="15.240000" height="9.525000" rx="0.000000" />
</g>
<g style="fill:#840000; fill-opacity:0.0; 
stroke:#840000; stroke-width:0.1524; stroke-opacity:1; 
stroke-linecap:round; stroke-linejoin:round;">
<path d="M59.7140 13.7287
L62.2540 13.7287
" />
</g>
<g style="fill:#006464; fill-opacity:0.0; 
stroke:#006464; stroke-width:0.1524; stroke-opacity:1; 
stroke-linecap:round; stroke-linejoin:round;">
<text x="59.4600" y="14.3637"
textLength="3.8318" font-size="1.6933" lengthAdjust="spacingAndGlyphs"
text-anchor="end" opacity="0">OUT</text>
<g class="stroked-text"><desc>OUT</desc>
<path d="M56.2754 13.0382
L56.5173 13.0382
" />
<path d="M56.5173 13.0382
L56.6383 13.0987
" />
<path d="M56.6383 13.0987
L56.7592 13.2197
" />
<path d="M56.7592 13.2197
L56.8197 13.4616
" />
<path d="M56.8197 13.4616
L56.8197 13.8849
" />
<path d="M56.8197 13.8849
L56.7592 14.1268
" />
<path d="M56.7592 14.1268
L56.6383 14.2478
" />
<path d="M56.6383 14.2478
L56.5173 14.3082
" />
<path d="M56.5173 14.3082
L56.2754 14.3082
" />
<path d="M56.2754 14.3082
L56.1545 14.2478
" />
<path d="M56.1545 14.2478
L56.0335 14.1268
" />
<path d="M56.0335 14.1268
L55.9731 13.8849
" />
<path d="M55.9731 13.8849
L55.9731 13.4616
" />
<path d="M55.9731 13.4616
L56.0335 13.2197
" />
<path d="M56.0335 13.2197
L56.1545 13.0987
" />
<path d="M56.1545 13.0987
L56.2754 13.0382
" />
<path d="M57.3640 13.0382
L57.3640 14.0663
" />
<path d="M57.3640 14.0663
L57.4245 14.1873
" />
<path d="M57.4245 14.1873
L57.4850 14.2478
" />
<path d="M57.4850 14.2478
L57.6059 14.3082
" />
<path d="M57.6059 14.3082
L57.8478 14.3082
" />
<path d="M57.8478 14.3082
L57.9688 14.2478
" />
<path d="M57.9688 14.2478
L58.0293 14.1873
" />
<path d="M58.0293 14.1873
L58.0897 14.0663
" />
<path d="M58.0897 14.0663
L58.0897 13.0382
" />
<path d="M58.5131 13.0382
L59.2388 13.0382
" />
<path d="M58.8760 14.3082
L58.8760 13.0382
" />
</g></g>
<g style="fill:#A90000; fill-opacity:0.0; 
stroke:#A90000; stroke-width:0.1524; stroke-opacity:1; 
stroke-linecap:round; stroke-linejoin:round;">
<text x="60.9840" y="13.4747"
textLength="1.4127" font-size="1.6933" lengthAdjust="spacingAndGlyphs"
text-anchor="middle" opacity="0">1</text>
<g class="stroked-text"><desc>1</desc>
<path d="M61.3469 13.3112
L60.6212 13.3112
" />
<path d="M60.9840 13.3112
L60.9840 12.0412
" />
<path d="M60.9840 12.0412
L60.8631 12.2227
" />
<path d="M60.8631 12.2227
L60.7421 12.3436
" />
<path d="M60.7421 12.3436
L60.6212 12.4041
" />
</g></g>
<g style="fill:#840000; fill-opacity:0.0; 
stroke:#840000; stroke-width:0.1524; stroke-opacity:1; 
stroke-linecap:round; stroke-linejoin:round;">
<path d="M59.7140 16.2687
L62.2540 16.2687
" />
</g>
<g style="fill:#006464; fill-opacity:0.0; 
stroke:#006464; stroke-width:0.1524; stroke-opacity:1; 
stroke-linecap:round; stroke-linejoin:round;">
<text x="59.4600" y="16.9037"
textLength="3.5294" font-size="1.6933" lengthAdjust="spacingAndGlyphs"
text-anchor="end" opacity="0">ADJ</text>
<g class="stroked-text"><desc>ADJ</desc>
<path d="M56.2755 16.4854
L56.8802 16.4854
" />
<path d="M56.1545 16.8482
L56.5778 15.5782
" />
<path d="M56.5778 15.5782
L57.0012 16.8482
" />
<path d="M57.4245 16.8482
L57.4245 15.5782
" />
<path d="M57.4245 15.5782
L57.7269 15.5782
" />
<path d="M57.7269 15.5782
L57.9083 15.6387
" />
<path d="M57.9083 15.6387
L58.0293 15.7597
" />
<path d="M58.0293 15.7597
L58.0898 15.8806
" />
<path d="M58.0898 15.8806
L58.1502 16.1225
" />
<path d="M58.1502 16.1225
L58.1502 16.3039
" />
<path d="M58.1502 16.3039
L58.0898 16.5458
" />
<path d="M58.0898 16.5458
L58.0293 16.6668
" />
<path d="M58.0293 16.6668
L57.9083 16.7878
" />
<path d="M57.9083 16.7878
L57.7269 16.8482
" />
<path d="M57.7269 16.8482
L57.4245 16.8482
" />
<path d="M59.0574 15.5782
L59.0574 16.4854
" />
<path d="M59.0574 16.4854
L58.9969 16.6668
" />
<path d="M58.9969 16.6668
L58.8760 16.7878
" />
<path d="M58.8760 16.7878
L58.6945 16.8482
" />
<path d="M58.6945 16.8482
L58.5736 16.8482
" />
</g></g>
<g style="fill:#A90000; fill-opacity:0.0; 
stroke:#A90000; stroke-width:0.1524; stroke-opacity:1; 
stroke-linecap:round; stroke-linejoin:round;">
<text x="60.9840" y="16.0147"
textLength="1.4127" font-size="1.6933" lengthAdjust="spacingAndGlyphs"
text-anchor="middle" opacity="0">2</text>
<g class="stroked-text"><desc>2</desc>
<path d="M60.6212 14.7022
L60.6816 14.6417
" />
<path d="M60.6816 14.6417
L60.8026 14.5812
" />
<path d="M60.8026 14.5812
L61.1050 14.5812
" />
<path d="M61.1050 14.5812
L61.2259 14.6417
" />
<path d="M61.2259 14.6417
L61.2864 14.7022
" />
<path d="M61.2864 14.7022
L61.3469 14.8231
" />
<path d="M61.3469 14.8231
L61.3469 14.9441
" />
<path d="M61.3469 14.9441
L61.2864 15.1255
" />
<path d="M61.2864 15.1255
L60.5607 15.8512
" />
<path d="M60.5607 15.8512
L61.3469 15.8512
" />
</g></g>
<g style="fill:#840000; fill-opacity:0.0; 
stroke:#840000; stroke-width:0.1524; stroke-opacity:1; 
stroke-linecap:round; stroke-linejoin:round;">
<path d="M52.0940 21.3487
L52.0940 23.8887
" />
</g>
<g style="fill:#006464; fill-opacity:0.0; 
stroke:#006464; stroke-width:0.1524; stroke-opacity:1; 
stroke-linecap:round; stroke-linejoin:round;">
<g transform="rotate(-90.000000 52.0940 21.0947)">
<text x="52.0940" y="21.7297"
textLength="4.0737" font-size="1.6933" lengthAdjust="spacingAndGlyphs"
text-anchor="start" opacity="0">GND</text>
</g>
<g class="stroked-text"><desc>GND</desc>
<path d="M51.4640 20.0268
L51.4035 20.1478
" />
<path d="M51.4035 20.1478
L51.4035 20.3292
" />
<path d="M51.4035 20.3292
L51.4640 20.5106
" />
<path d="M51.4640 20.5106
L51.5850 20.6316
" />
<path d="M51.5850 20.6316
L51.7059 20.6921
" />
<path d="M51.7059 20.6921
L51.9478 20.7525
" />
<path d="M51.9478 20.7525
L52.1292 20.7525
" />
<path d="M52.1292 20.7525
L52.3711 20.6921
" />
<path d="M52.3711 20.6921
L52.4921 20.6316
" />
<path d="M52.4921 20.6316
L52.6131 20.5106
" />
<path d="M52.6131 20.5106
L52.6735 20.3292
" />
<path d="M52.6735 20.3292
L52.6735 20.2083
" />
<path d="M52.6735 20.2083
L52.6131 20.0268
" />
<path d="M52.6131 20.0268
L52.5526 19.9664
" />
<path d="M52.5526 19.9664
L52.1292 19.9664
" />
<path d="M52.1292 19.9664
L52.1292 20.2083
" />
<path d="M52.6735 19.4221
L51.4035 19.4221
" />
<path d="M51.4035 19.4221
L52.6735 18.6964
" />
<path d="M52.6735 18.6964
L51.4035 18.6964
" />
<path d="M52.6735 18.0916
L51.4035 18.0916
" />
<path d="M51.4035 18.0916
L51.4035 17.7892
" />
<path d="M51.4035 17.7892
L51.4640 17.6078
" />
<path d="M51.4640 17.6078
L51.5850 17.4868
" />
<path d="M51.5850 17.4868
L51.7059 17.4263
" />
<path d="M51.7059 17.4263
L51.9478 17.3659
" />
<path d="M51.9478 17.3659
L52.1292 17.3659
" />
<path d="M52.1292 17.3659
L52.3711 17.4263
" />
<path d="M52.3711 17.4263
L52.4921 17.4868
" />
<path d="M52.4921 17.4868
L52.6131 17.6078
" />
<path d="M52.6131 17.6078
L52.6735 17.7892
" />
<path d="M52.6735 17.7892
L52.6735 18.0916
" />
</g></g>
<g style="fill:#A90000; fill-opacity:0.0; 
stroke:#A90000; stroke-width:0.1524; stroke-opacity:1; 
stroke-linecap:round; stroke-linejoin:round;">
<g transform="rotate(-90.000000 51.8400 22.6187)">
<text x="51.8400" y="22.6187"
textLength="1.4127" font-size="1.6933" lengthAdjust="spacingAndGlyphs"
text-anchor="middle" opacity="0">3</text>
</g>
<g class="stroked-text"><desc>3</desc>
<path d="M50.4065 23.0419
L50.4065 22.2557
" />
<path d="M50.4065 22.2557
L50.8903 22.6791
" />
<path d="M50.8903 22.6791
L50.8903 22.4976
" />
<path d="M50.8903 22.4976
L50.9508 22.3767
" />
<path d="M50.9508 22.3767
L51.0113 22.3162
" />
<path d="M51.0113 22.3162
L51.1322 22.2557
" />
<path d="M51.1322 22.2557
L51.4346 22.2557
" />
<path d="M51.4346 22.2557
L51.5556 22.3162
" />
<path d="M51.5556 22.3162
L51.6161 22.3767
" />
<path d="M51.6161 22.3767
L51.6765 22.4976
" />
<path d="M51.6765 22.4976
L51.6765 22.8605
" />
<path d="M51.6765 22.8605
L51.6161 22.9814
" />
<path d="M51.6161 22.9814
L51.5556 23.0419
" />
</g></g>
<g style="fill:#840000; fill-opacity:0.0; 
stroke:#840000; stroke-width:0.1524; stroke-opacity:1; 
stroke-linecap:round; stroke-linejoin:round;">
<path d="M44.4740 16.2687
L41.9340 16.2687
" />
</g>
<g style="fill:#006464; fill-opacity:0.0; 
stroke:#006464; stroke-width:0.1524; stroke-opacity:1; 
stroke-linecap:round; stroke-linejoin:round;">
<text x="44.7280" y="16.9037"
textLength="5.3437" font-size="1.6933" lengthAdjust="spacingAndGlyphs"
text-anchor="start" opacity="0">~{SHDN}</text>
<g class="stroked-text"><desc>~{SHDN}</desc>
<path d="M45.0701 16.7878
L45.2515 16.8482
" />
<path d="M45.2515 16.8482
L45.5539 16.8482
" />
<path d="M45.5539 16.8482
L45.6748 16.7878
" />
<path d="M45.6748 16.7878
L45.7353 16.7273
" />
<path d="M45.7353 16.7273
L45.7958 16.6063
" />
<path d="M45.7958 16.6063
L45.7958 16.4854
" />
<path d="M45.7958 16.4854
L45.7353 16.3644
" />
<path d="M45.7353 16.3644
L45.6748 16.3039
" />
<path d="M45.6748 16.3039
L45.5539 16.2435
" />
<path d="M45.5539 16.2435
L45.3120 16.1830
" />
<path d="M45.3120 16.1830
L45.1910 16.1225
" />
<path d="M45.1910 16.1225
L45.1305 16.0620
" />
<path d="M45.1305 16.0620
L45.0701 15.9411
" />
<path d="M45.0701 15.9411
L45.0701 15.8201
" />
<path d="M45.0701 15.8201
L45.1305 15.6992
" />
<path d="M45.1305 15.6992
L45.1910 15.6387
" />
<path d="M45.1910 15.6387
L45.3120 15.5782
" />
<path d="M45.3120 15.5782
L45.6143 15.5782
" />
<path d="M45.6143 15.5782
L45.7958 15.6387
" />
<path d="M46.3400 16.8482
L46.3400 15.5782
" />
<path d="M46.3400 16.1830
L47.0657 16.1830
" />
<path d="M47.0657 16.8482
L47.0657 15.5782
" />
<path d="M47.6705 16.8482
L47.6705 15.5782
" />
<path d="M47.6705 15.5782
L47.9729 15.5782
" />
<path d="M47.9729 15.5782
L48.1543 15.6387
" />
<path d="M48.1543 15.6387
L48.2753 15.7597
" />
<path d="M48.2753 15.7597
L48.3358 15.8806
" />
<path d="M48.3358 15.8806
L48.3962 16.1225
" />
<path d="M48.3962 16.1225
L48.3962 16.3039
" />
<path d="M48.3962 16.3039
L48.3358 16.5458
" />
<path d="M48.3358 16.5458
L48.2753 16.6668
" />
<path d="M48.2753 16.6668
L48.1543 16.7878
" />
<path d="M48.1543 16.7878
L47.9729 16.8482
" />
<path d="M47.9729 16.8482
L47.6705 16.8482
" />
<path d="M48.9405 16.8482
L48.9405 15.5782
" />
<path d="M48.9405 15.5782
L49.6662 16.8482
" />
<path d="M49.6662 16.8482
L49.6662 15.5782
" />
<path d="M44.9552 15.2257
L49.8417 15.2257
" />
</g></g>
<g style="fill:#A90000; fill-opacity:0.0; 
stroke:#A90000; stroke-width:0.1524; stroke-opacity:1; 
stroke-linecap:round; stroke-linejoin:round;">
<text x="43.2040" y="16.0147"
textLength="1.4127" font-size="1.6933" lengthAdjust="spacingAndGlyphs"
text-anchor="middle" opacity="0">5</text>
<g class="stroked-text"><desc>5</desc>
<path d="M43.5064 14.5812
L42.9016 14.5812
" />
<path d="M42.9016 14.5812
L42.8412 15.1860
" />
<path d="M42.8412 15.1860
L42.9016 15.1255
" />
<path d="M42.9016 15.1255
L43.0226 15.0650
" />
<path d="M43.0226 15.0650
L43.3250 15.0650
" />
<path d="M43.3250 15.0650
L43.4459 15.1255
" />
<path d="M43.4459 15.1255
L43.5064 15.1860
" />
<path d="M43.5064 15.1860
L43.5669 15.3069
" />
<path d="M43.5669 15.3069
L43.5669 15.6093
" />
<path d="M43.5669 15.6093
L43.5064 15.7303
" />
<path d="M43.5064 15.7303
L43.4459 15.7908
" />
<path d="M43.4459 15.7908
L43.3250 15.8512
" />
<path d="M43.3250 15.8512
L43.0226 15.8512
" />
<path d="M43.0226 15.8512
L42.9016 15.7908
" />
<path d="M42.9016 15.7908
L42.8412 15.7303
" />
</g></g>
<g style="fill:#840000; fill-opacity:0.0; 
stroke:#840000; stroke-width:0.1524; stroke-opacity:1; 
stroke-linecap:round; stroke-linejoin:round;">
<path d="M44.4740 13.7287
L41.9340 13.7287
" />
</g>
<g style="fill:#006464; fill-opacity:0.0; 
stroke:#006464; stroke-width:0.1524; stroke-opacity:1; 
stroke-linecap:round; stroke-linejoin:round;">
<text x="44.7280" y="14.3637"
textLength="2.1385" font-size="1.6933" lengthAdjust="spacingAndGlyphs"
text-anchor="start" opacity="0">IN</text>
<g class="stroked-text"><desc>IN</desc>
<path d="M45.1305 14.3082
L45.1305 13.0382
" />
<path d="M45.7353 14.3082
L45.7353 13.0382
" />
<path d="M45.7353 13.0382
L46.4610 14.3082
" />
<path d="M46.4610 14.3082
L46.4610 13.0382
" />
</g></g>
<g style="fill:#A90000; fill-opacity:0.0; 
stroke:#A90000; stroke-width:0.1524; stroke-opacity:1; 
stroke-linecap:round; stroke-linejoin:round;">
<text x="43.2040" y="13.4747"
textLength="1.4127" font-size="1.6933" lengthAdjust="spacingAndGlyphs"
text-anchor="middle" opacity="0">8</text>
<g class="stroked-text"><desc>8</desc>
<path d="M43.0831 12.5855
L42.9621 12.5250
" />
<path d="M42.9621 12.5250
L42.9016 12.4646
" />
<path d="M42.9016 12.4646
L42.8412 12.3436
" />
<path d="M42.8412 12.3436
L42.8412 12.2831
" />
<path d="M42.8412 12.2831
L42.9016 12.1622
" />
<path d="M42.9016 12.1622
L42.9621 12.1017
" />
<path d="M42.9621 12.1017
L43.0831 12.0412
" />
<path d="M43.0831 12.0412
L43.3250 12.0412
" />
<path d="M43.3250 12.0412
L43.4459 12.1017
" />
<path d="M43.4459 12.1017
L43.5064 12.1622
" />
<path d="M43.5064 12.1622
L43.5669 12.2831
" />
<path d="M43.5669 12.2831
L43.5669 12.3436
" />
<path d="M43.5669 12.3436
L43.5064 12.4646
" />
<path d="M43.5064 12.4646
L43.4459 12.5250
" />
<path d="M43.4459 12.5250
L43.3250 12.5855
" />
<path d="M43.3250 12.5855
L43.0831 12.5855
" />
<path d="M43.0831 12.5855
L42.9621 12.6460
" />
<path d="M42.9621 12.6460
L42.9016 12.7065
" />
<path d="M42.9016 12.7065
L42.8412 12.8274
" />
<path d="M42.8412 12.8274
L42.8412 13.0693
" />
<path d="M42.8412 13.0693
L42.9016 13.1903
" />
<path d="M42.9016 13.1903
L42.9621 13.2508
" />
<path d="M42.9621 13.2508
L43.0831 13.3112
" />
<path d="M43.0831 13.3112
L43.3250 13.3112
" />
<path d="M43.3250 13.3112
L43.4459 13.2508
" />
<path d="M43.4459 13.2508
L43.5064 13.1903
" />
<path d="M43.5064 13.1903
L43.5669 13.0693
" />
<path d="M43.5669 13.0693
L43.5669 12.8274
" />
<path d="M43.5669 12.8274
L43.5064 12.7065
" />
<path d="M43.5064 12.7065
L43.4459 12.6460
" />
<path d="M43.4459 12.6460
L43.3250 12.5855
" />
</g></g>
<g style="fill:#840084; fill-opacity:0.0; 
stroke:#840084; stroke-width:0.1524; stroke-opacity:1; 
stroke-linecap:round; stroke-linejoin:round;">
</g>
<g style="fill:#006464; fill-opacity:0.0; 
stroke:#006464; stroke-width:0.1524; stroke-opacity:1; 
stroke-linecap:round; stroke-linejoin:round;">
</g>
<g style="fill:#006464; fill-opacity:0.0; 
stroke:#006464; stroke-width:0.1588; stroke-opacity:1; 
stroke-linecap:round; stroke-linejoin:round;">
<text x="45.7440" y="11.1887"
textLength="2.6415" font-size="1.6933" lengthAdjust="spacingAndGlyphs"
text-anchor="middle" opacity="0">U?</text>
<g class="stroked-text"><desc>U?</desc>
<path d="M44.8368 9.8629
L44.8368 10.8910
" />
<path d="M44.8368 10.8910
L44.8973 11.0120
" />
<path d="M44.8973 11.0120
L44.9578 11.0725
" />
<path d="M44.9578 11.0725
L45.0787 11.1329
" />
<path d="M45.0787 11.1329
L45.3206 11.1329
" />
<path d="M45.3206 11.1329
L45.4416 11.0725
" />
<path d="M45.4416 11.0725
L45.5021 11.0120
" />
<path d="M45.5021 11.0120
L45.5625 10.8910
" />
<path d="M45.5625 10.8910
L45.5625 9.8629
" />
<path d="M46.3488 11.0120
L46.4092 11.0725
" />
<path d="M46.4092 11.0725
L46.3488 11.1329
" />
<path d="M46.3488 11.1329
L46.2883 11.0725
" />
<path d="M46.2883 11.0725
L46.3488 11.0120
" />
<path d="M46.3488 11.0120
L46.3488 11.1329
" />
<path d="M46.1069 9.9234
L46.2278 9.8629
" />
<path d="M46.2278 9.8629
L46.5302 9.8629
" />
<path d="M46.5302 9.8629
L46.6511 9.9234
" />
<path d="M46.6511 9.9234
L46.7116 10.0444
" />
<path d="M46.7116 10.0444
L46.7116 10.1653
" />
<path d="M46.7116 10.1653
L46.6511 10.2863
" />
<path d="M46.6511 10.2863
L46.5907 10.3467
" />
<path d="M46.5907 10.3467
L46.4697 10.4072
" />
<path d="M46.4697 10.4072
L46.4092 10.4677
" />
<path d="M46.4092 10.4677
L46.3488 10.5886
" />
<path d="M46.3488 10.5886
L46.3488 10.6491
" />
</g><text x="60.4299" y="11.1887"
textLength="16.6718" font-size="1.6933" lengthAdjust="spacingAndGlyphs"
text-anchor="middle" opacity="0">LT1129-ADJ_SO8</text>
<g class="stroked-text"><desc>LT1129-ADJ_SO8</desc>
<path d="M53.1123 11.1329
L52.5075 11.1329
" />
<path d="M52.5075 11.1329
L52.5075 9.8629
" />
<path d="M53.3542 9.8629
L54.0799 9.8629
" />
<path d="M53.7171 11.1329
L53.7171 9.8629
" />
<path d="M55.1685 11.1329
L54.4428 11.1329
" />
<path d="M54.8056 11.1329
L54.8056 9.8629
" />
<path d="M54.8056 9.8629
L54.6847 10.0444
" />
<path d="M54.6847 10.0444
L54.5637 10.1653
" />
<path d="M54.5637 10.1653
L54.4428 10.2258
" />
<path d="M56.3780 11.1329
L55.6523 11.1329
" />
<path d="M56.0151 11.1329
L56.0151 9.8629
" />
<path d="M56.0151 9.8629
L55.8942 10.0444
" />
<path d="M55.8942 10.0444
L55.7732 10.1653
" />
<path d="M55.7732 10.1653
L55.6523 10.2258
" />
<path d="M56.8618 9.9839
L56.9222 9.9234
" />
<path d="M56.9222 9.9234
L57.0432 9.8629
" />
<path d="M57.0432 9.8629
L57.3456 9.8629
" />
<path d="M57.3456 9.8629
L57.4665 9.9234
" />
<path d="M57.4665 9.9234
L57.5270 9.9839
" />
<path d="M57.5270 9.9839
L57.5875 10.1048
" />
<path d="M57.5875 10.1048
L57.5875 10.2258
" />
<path d="M57.5875 10.2258
L57.5270 10.4072
" />
<path d="M57.5270 10.4072
L56.8013 11.1329
" />
<path d="M56.8013 11.1329
L57.5875 11.1329
" />
<path d="M58.1922 11.1329
L58.4341 11.1329
" />
<path d="M58.4341 11.1329
L58.5551 11.0725
" />
<path d="M58.5551 11.0725
L58.6155 11.0120
" />
<path d="M58.6155 11.0120
L58.7365 10.8305
" />
<path d="M58.7365 10.8305
L58.7970 10.5886
" />
<path d="M58.7970 10.5886
L58.7970 10.1048
" />
<path d="M58.7970 10.1048
L58.7365 9.9839
" />
<path d="M58.7365 9.9839
L58.6760 9.9234
" />
<path d="M58.6760 9.9234
L58.5551 9.8629
" />
<path d="M58.5551 9.8629
L58.3132 9.8629
" />
<path d="M58.3132 9.8629
L58.1922 9.9234
" />
<path d="M58.1922 9.9234
L58.1317 9.9839
" />
<path d="M58.1317 9.9839
L58.0713 10.1048
" />
<path d="M58.0713 10.1048
L58.0713 10.4072
" />
<path d="M58.0713 10.4072
L58.1317 10.5282
" />
<path d="M58.1317 10.5282
L58.1922 10.5886
" />
<path d="M58.1922 10.5886
L58.3132 10.6491
" />
<path d="M58.3132 10.6491
L58.5551 10.6491
" />
<path d="M58.5551 10.6491
L58.6760 10.5886
" />
<path d="M58.6760 10.5886
L58.7365 10.5282
" />
<path d="M58.7365 10.5282
L58.7970 10.4072
" />
<path d="M59.3412 10.6491
L60.3089 10.6491
" />
<path d="M60.8532 10.7701
L61.4579 10.7701
" />
<path d="M60.7322 11.1329
L61.1555 9.8629
" />
<path d="M61.1555 9.8629
L61.5789 11.1329
" />
<path d="M62.0022 11.1329
L62.0022 9.8629
" />
<path d="M62.0022 9.8629
L62.3046 9.8629
" />
<path d="M62.3046 9.8629
L62.4860 9.9234
" />
<path d="M62.4860 9.9234
L62.6070 10.0444
" />
<path d="M62.6070 10.0444
L62.6675 10.1653
" />
<path d="M62.6675 10.1653
L62.7279 10.4072
" />
<path d="M62.7279 10.4072
L62.7279 10.5886
" />
<path d="M62.7279 10.5886
L62.6675 10.8305
" />
<path d="M62.6675 10.8305
L62.6070 10.9515
" />
<path d="M62.6070 10.9515
L62.4860 11.0725
" />
<path d="M62.4860 11.0725
L62.3046 11.1329
" />
<path d="M62.3046 11.1329
L62.0022 11.1329
" />
<path d="M63.6351 9.8629
L63.6351 10.7701
" />
<path d="M63.6351 10.7701
L63.5746 10.9515
" />
<path d="M63.5746 10.9515
L63.4537 11.0725
" />
<path d="M63.4537 11.0725
L63.2722 11.1329
" />
<path d="M63.2722 11.1329
L63.1513 11.1329
" />
<path d="M63.9375 11.2539
L64.9051 11.2539
" />
<path d="M65.1470 11.0725
L65.3284 11.1329
" />
<path d="M65.3284 11.1329
L65.6308 11.1329
" />
<path d="M65.6308 11.1329
L65.7517 11.0725
" />
<path d="M65.7517 11.0725
L65.8122 11.0120
" />
<path d="M65.8122 11.0120
L65.8727 10.8910
" />
<path d="M65.8727 10.8910
L65.8727 10.7701
" />
<path d="M65.8727 10.7701
L65.8122 10.6491
" />
<path d="M65.8122 10.6491
L65.7517 10.5886
" />
<path d="M65.7517 10.5886
L65.6308 10.5282
" />
<path d="M65.6308 10.5282
L65.3889 10.4677
" />
<path d="M65.3889 10.4677
L65.2679 10.4072
" />
<path d="M65.2679 10.4072
L65.2074 10.3467
" />
<path d="M65.2074 10.3467
L65.1470 10.2258
" />
<path d="M65.1470 10.2258
L65.1470 10.1048
" />
<path d="M65.1470 10.1048
L65.2074 9.9839
" />
<path d="M65.2074 9.9839
L65.2679 9.9234
" />
<path d="M65.2679 9.9234
L65.3889 9.8629
" />
<path d="M65.3889 9.8629
L65.6912 9.8629
" />
<path d="M65.6912 9.8629
L65.8727 9.9234
" />
<path d="M66.6588 9.8629
L66.9007 9.8629
" />
<path d="M66.9007 9.8629
L67.0217 9.9234
" />
<path d="M67.0217 9.9234
L67.1426 10.0444
" />
<path d="M67.1426 10.0444
L67.2031 10.2863
" />
<path d="M67.2031 10.2863
L67.2031 10.7096
" />
<path d="M67.2031 10.7096
L67.1426 10.9515
" />
<path d="M67.1426 10.9515
L67.0217 11.0725
" />
<path d="M67.0217 11.0725
L66.9007 11.1329
" />
<path d="M66.9007 11.1329
L66.6588 11.1329
" />
<path d="M66.6588 11.1329
L66.5379 11.0725
" />
<path d="M66.5379 11.0725
L66.4169 10.9515
" />
<path d="M66.4169 10.9515
L66.3565 10.7096
" />
<path d="M66.3565 10.7096
L66.3565 10.2863
" />
<path d="M66.3565 10.2863
L66.4169 10.0444
" />
<path d="M66.4169 10.0444
L66.5379 9.9234
" />
<path d="M66.5379 9.9234
L66.6588 9.8629
" />
<path d="M67.9289 10.4072
L67.8079 10.3467
" />
<path d="M67.8079 10.3467
L67.7474 10.2863
" />
<path d="M67.7474 10.2863
L67.6870 10.1653
" />
<path d="M67.6870 10.1653
L67.6870 10.1048
" />
<path d="M67.6870 10.1048
L67.7474 9.9839
" />
<path d="M67.7474 9.9839
L67.8079 9.9234
" />
<path d="M67.8079 9.9234
L67.9289 9.8629
" />
<path d="M67.9289 9.8629
L68.1708 9.8629
" />
<path d="M68.1708 9.8629
L68.2917 9.9234
" />
<path d="M68.2917 9.9234
L68.3522 9.9839
" />
<path d="M68.3522 9.9839
L68.4127 10.1048
" />
<path d="M68.4127 10.1048
L68.4127 10.1653
" />
<path d="M68.4127 10.1653
L68.3522 10.2863
" />
<path d="M68.3522 10.2863
L68.2917 10.3467
" />
<path d="M68.2917 10.3467
L68.1708 10.4072
" />
<path d="M68.1708 10.4072
L67.9289 10.4072
" />
<path d="M67.9289 10.4072
L67.8079 10.4677
" />
<path d="M67.8079 10.4677
L67.7474 10.5282
" />
<path d="M67.7474 10.5282
L67.6870 10.6491
" />
<path d="M67.6870 10.6491
L67.6870 10.8910
" />
<path d="M67.6870 10.8910
L67.7474 11.0120
" />
<path d="M67.7474 11.0120
L67.8079 11.0725
" />
<path d="M67.8079 11.0725
L67.9289 11.1329
" />
<path d="M67.9289 11.1329
L68.1708 11.1329
" />
<path d="M68.1708 11.1329
L68.2917 11.0725
" />
<path d="M68.2917 11.0725
L68.3522 11.0120
" />
<path d="M68.3522 11.0120
L68.4127 10.8910
" />
<path d="M68.4127 10.8910
L68.4127 10.6491
" />
<path d="M68.4127 10.6491
L68.3522 10.5282
" />
<path d="M68.3522 10.5282
L68.2917 10.4677
" />
<path d="M68.2917 10.4677
L68.1708 10.4072
" />
</g></g>
<g style="fill:#840084; fill-opacity:0.0; 
stroke:#840084; stroke-width:0.1588; stroke-opacity:1; 
stroke-linecap:round; stroke-linejoin:round;">
<text x="52.0940" y="9.2837"
textLength="40.7412" font-size="1.6933" lengthAdjust="spacingAndGlyphs"
text-anchor="middle" opacity="0">Package_SO:SOIC-8_3.9x4.9mm_P1.27mm</text>
<g class="stroked-text"><desc>Package_SO:SOIC-8_3.9x4.9mm_P1.27mm</desc>
<path d="M32.1369 9.2279
L32.1369 7.9579
" />
<path d="M32.1369 7.9579
L32.6207 7.9579
" />
<path d="M32.6207 7.9579
L32.7417 8.0184
" />
<path d="M32.7417 8.0184
L32.8022 8.0789
" />
<path d="M32.8022 8.0789
L32.8626 8.1998
" />
<path d="M32.8626 8.1998
L32.8626 8.3813
" />
<path d="M32.8626 8.3813
L32.8022 8.5022
" />
<path d="M32.8022 8.5022
L32.7417 8.5627
" />
<path d="M32.7417 8.5627
L32.6207 8.6232
" />
<path d="M32.6207 8.6232
L32.1369 8.6232
" />
<path d="M33.9512 9.2279
L33.9512 8.5627
" />
<path d="M33.9512 8.5627
L33.8907 8.4417
" />
<path d="M33.8907 8.4417
L33.7698 8.3813
" />
<path d="M33.7698 8.3813
L33.5279 8.3813
" />
<path d="M33.5279 8.3813
L33.4069 8.4417
" />
<path d="M33.9512 9.1675
L33.8303 9.2279
" />
<path d="M33.8303 9.2279
L33.5279 9.2279
" />
<path d="M33.5279 9.2279
L33.4069 9.1675
" />
<path d="M33.4069 9.1675
L33.3465 9.0465
" />
<path d="M33.3465 9.0465
L33.3465 8.9255
" />
<path d="M33.3465 8.9255
L33.4069 8.8046
" />
<path d="M33.4069 8.8046
L33.5279 8.7441
" />
<path d="M33.5279 8.7441
L33.8303 8.7441
" />
<path d="M33.8303 8.7441
L33.9512 8.6836
" />
<path d="M35.1002 9.1675
L34.9793 9.2279
" />
<path d="M34.9793 9.2279
L34.7374 9.2279
" />
<path d="M34.7374 9.2279
L34.6164 9.1675
" />
<path d="M34.6164 9.1675
L34.5559 9.1070
" />
<path d="M34.5559 9.1070
L34.4955 8.9860
" />
<path d="M34.4955 8.9860
L34.4955 8.6232
" />
<path d="M34.4955 8.6232
L34.5559 8.5022
" />
<path d="M34.5559 8.5022
L34.6164 8.4417
" />
<path d="M34.6164 8.4417
L34.7374 8.3813
" />
<path d="M34.7374 8.3813
L34.9793 8.3813
" />
<path d="M34.9793 8.3813
L35.1002 8.4417
" />
<path d="M35.6445 9.2279
L35.6445 7.9579
" />
<path d="M35.7655 8.7441
L36.1283 9.2279
" />
<path d="M36.1283 8.3813
L35.6445 8.8651
" />
<path d="M37.2169 9.2279
L37.2169 8.5627
" />
<path d="M37.2169 8.5627
L37.1564 8.4417
" />
<path d="M37.1564 8.4417
L37.0355 8.3813
" />
<path d="M37.0355 8.3813
L36.7936 8.3813
" />
<path d="M36.7936 8.3813
L36.6726 8.4417
" />
<path d="M37.2169 9.1675
L37.0960 9.2279
" />
<path d="M37.0960 9.2279
L36.7936 9.2279
" />
<path d="M36.7936 9.2279
L36.6726 9.1675
" />
<path d="M36.6726 9.1675
L36.6122 9.0465
" />
<path d="M36.6122 9.0465
L36.6122 8.9255
" />
<path d="M36.6122 8.9255
L36.6726 8.8046
" />
<path d="M36.6726 8.8046
L36.7936 8.7441
" />
<path d="M36.7936 8.7441
L37.0960 8.7441
" />
<path d="M37.0960 8.7441
L37.2169 8.6836
" />
<path d="M38.3659 8.3813
L38.3659 9.4094
" />
<path d="M38.3659 9.4094
L38.3054 9.5303
" />
<path d="M38.3054 9.5303
L38.2450 9.5908
" />
<path d="M38.2450 9.5908
L38.1240 9.6513
" />
<path d="M38.1240 9.6513
L37.9426 9.6513
" />
<path d="M37.9426 9.6513
L37.8216 9.5908
" />
<path d="M38.3659 9.1675
L38.2450 9.2279
" />
<path d="M38.2450 9.2279
L38.0031 9.2279
" />
<path d="M38.0031 9.2279
L37.8821 9.1675
" />
<path d="M37.8821 9.1675
L37.8216 9.1070
" />
<path d="M37.8216 9.1070
L37.7612 8.9860
" />
<path d="M37.7612 8.9860
L37.7612 8.6232
" />
<path d="M37.7612 8.6232
L37.8216 8.5022
" />
<path d="M37.8216 8.5022
L37.8821 8.4417
" />
<path d="M37.8821 8.4417
L38.0031 8.3813
" />
<path d="M38.0031 8.3813
L38.2450 8.3813
" />
<path d="M38.2450 8.3813
L38.3659 8.4417
" />
<path d="M39.4544 9.1675
L39.3335 9.2279
" />
<path d="M39.3335 9.2279
L39.0916 9.2279
" />
<path d="M39.0916 9.2279
L38.9706 9.1675
" />
<path d="M38.9706 9.1675
L38.9102 9.0465
" />
<path d="M38.9102 9.0465
L38.9102 8.5627
" />
<path d="M38.9102 8.5627
L38.9706 8.4417
" />
<path d="M38.9706 8.4417
L39.0916 8.3813
" />
<path d="M39.0916 8.3813
L39.3335 8.3813
" />
<path d="M39.3335 8.3813
L39.4544 8.4417
" />
<path d="M39.4544 8.4417
L39.5149 8.5627
" />
<path d="M39.5149 8.5627
L39.5149 8.6836
" />
<path d="M39.5149 8.6836
L38.9102 8.8046
" />
<path d="M39.7569 9.3489
L40.7245 9.3489
" />
<path d="M40.9664 9.1675
L41.1478 9.2279
" />
<path d="M41.1478 9.2279
L41.4502 9.2279
" />
<path d="M41.4502 9.2279
L41.5711 9.1675
" />
<path d="M41.5711 9.1675
L41.6316 9.1070
" />
<path d="M41.6316 9.1070
L41.6921 8.9860
" />
<path d="M41.6921 8.9860
L41.6921 8.8651
" />
<path d="M41.6921 8.8651
L41.6316 8.7441
" />
<path d="M41.6316 8.7441
L41.5711 8.6836
" />
<path d="M41.5711 8.6836
L41.4502 8.6232
" />
<path d="M41.4502 8.6232
L41.2083 8.5627
" />
<path d="M41.2083 8.5627
L41.0873 8.5022
" />
<path d="M41.0873 8.5022
L41.0268 8.4417
" />
<path d="M41.0268 8.4417
L40.9664 8.3208
" />
<path d="M40.9664 8.3208
L40.9664 8.1998
" />
<path d="M40.9664 8.1998
L41.0268 8.0789
" />
<path d="M41.0268 8.0789
L41.0873 8.0184
" />
<path d="M41.0873 8.0184
L41.2083 7.9579
" />
<path d="M41.2083 7.9579
L41.5106 7.9579
" />
<path d="M41.5106 7.9579
L41.6921 8.0184
" />
<path d="M42.4782 7.9579
L42.7201 7.9579
" />
<path d="M42.7201 7.9579
L42.8411 8.0184
" />
<path d="M42.8411 8.0184
L42.9620 8.1394
" />
<path d="M42.9620 8.1394
L43.0225 8.3813
" />
<path d="M43.0225 8.3813
L43.0225 8.8046
" />
<path d="M43.0225 8.8046
L42.9620 9.0465
" />
<path d="M42.9620 9.0465
L42.8411 9.1675
" />
<path d="M42.8411 9.1675
L42.7201 9.2279
" />
<path d="M42.7201 9.2279
L42.4782 9.2279
" />
<path d="M42.4782 9.2279
L42.3573 9.1675
" />
<path d="M42.3573 9.1675
L42.2363 9.0465
" />
<path d="M42.2363 9.0465
L42.1759 8.8046
" />
<path d="M42.1759 8.8046
L42.1759 8.3813
" />
<path d="M42.1759 8.3813
L42.2363 8.1394
" />
<path d="M42.2363 8.1394
L42.3573 8.0184
" />
<path d="M42.3573 8.0184
L42.4782 7.9579
" />
<path d="M43.5668 9.1070
L43.6273 9.1675
" />
<path d="M43.6273 9.1675
L43.5668 9.2279
" />
<path d="M43.5668 9.2279
L43.5064 9.1675
" />
<path d="M43.5064 9.1675
L43.5668 9.1070
" />
<path d="M43.5668 9.1070
L43.5668 9.2279
" />
<path d="M43.5668 8.4417
L43.6273 8.5022
" />
<path d="M43.6273 8.5022
L43.5668 8.5627
" />
<path d="M43.5668 8.5627
L43.5064 8.5022
" />
<path d="M43.5064 8.5022
L43.5668 8.4417
" />
<path d="M43.5668 8.4417
L43.5668 8.5627
" />
<path d="M44.1112 9.1675
L44.2926 9.2279
" />
<path d="M44.2926 9.2279
L44.5950 9.2279
" />
<path d="M44.5950 9.2279
L44.7159 9.1675
" />
<path d="M44.7159 9.1675
L44.7764 9.1070
" />
<path d="M44.7764 9.1070
L44.8369 8.9860
" />
<path d="M44.8369 8.9860
L44.8369 8.8651
" />
<path d="M44.8369 8.8651
L44.7764 8.7441
" />
<path d="M44.7764 8.7441
L44.7159 8.6836
" />
<path d="M44.7159 8.6836
L44.5950 8.6232
" />
<path d="M44.5950 8.6232
L44.3531 8.5627
" />
<path d="M44.3531 8.5627
L44.2321 8.5022
" />
<path d="M44.2321 8.5022
L44.1716 8.4417
" />
<path d="M44.1716 8.4417
L44.1112 8.3208
" />
<path d="M44.1112 8.3208
L44.1112 8.1998
" />
<path d="M44.1112 8.1998
L44.1716 8.0789
" />
<path d="M44.1716 8.0789
L44.2321 8.0184
" />
<path d="M44.2321 8.0184
L44.3531 7.9579
" />
<path d="M44.3531 7.9579
L44.6554 7.9579
" />
<path d="M44.6554 7.9579
L44.8369 8.0184
" />
<path d="M45.6230 7.9579
L45.8649 7.9579
" />
<path d="M45.8649 7.9579
L45.9859 8.0184
" />
<path d="M45.9859 8.0184
L46.1068 8.1394
" />
<path d="M46.1068 8.1394
L46.1673 8.3813
" />
<path d="M46.1673 8.3813
L46.1673 8.8046
" />
<path d="M46.1673 8.8046
L46.1068 9.0465
" />
<path d="M46.1068 9.0465
L45.9859 9.1675
" />
<path d="M45.9859 9.1675
L45.8649 9.2279
" />
<path d="M45.8649 9.2279
L45.6230 9.2279
" />
<path d="M45.6230 9.2279
L45.5021 9.1675
" />
<path d="M45.5021 9.1675
L45.3811 9.0465
" />
<path d="M45.3811 9.0465
L45.3207 8.8046
" />
<path d="M45.3207 8.8046
L45.3207 8.3813
" />
<path d="M45.3207 8.3813
L45.3811 8.1394
" />
<path d="M45.3811 8.1394
L45.5021 8.0184
" />
<path d="M45.5021 8.0184
L45.6230 7.9579
" />
<path d="M46.7116 9.2279
L46.7116 7.9579
" />
<path d="M48.0421 9.1070
L47.9817 9.1675
" />
<path d="M47.9817 9.1675
L47.8002 9.2279
" />
<path d="M47.8002 9.2279
L47.6793 9.2279
" />
<path d="M47.6793 9.2279
L47.4979 9.1675
" />
<path d="M47.4979 9.1675
L47.3769 9.0465
" />
<path d="M47.3769 9.0465
L47.3164 8.9255
" />
<path d="M47.3164 8.9255
L47.2560 8.6836
" />
<path d="M47.2560 8.6836
L47.2560 8.5022
" />
<path d="M47.2560 8.5022
L47.3164 8.2603
" />
<path d="M47.3164 8.2603
L47.3769 8.1394
" />
<path d="M47.3769 8.1394
L47.4979 8.0184
" />
<path d="M47.4979 8.0184
L47.6793 7.9579
" />
<path d="M47.6793 7.9579
L47.8002 7.9579
" />
<path d="M47.8002 7.9579
L47.9817 8.0184
" />
<path d="M47.9817 8.0184
L48.0421 8.0789
" />
<path d="M48.5864 8.7441
L49.5541 8.7441
" />
<path d="M50.3403 8.5022
L50.2193 8.4417
" />
<path d="M50.2193 8.4417
L50.1588 8.3813
" />
<path d="M50.1588 8.3813
L50.0984 8.2603
" />
<path d="M50.0984 8.2603
L50.0984 8.1998
" />
<path d="M50.0984 8.1998
L50.1588 8.0789
" />
<path d="M50.1588 8.0789
L50.2193 8.0184
" />
<path d="M50.2193 8.0184
L50.3403 7.9579
" />
<path d="M50.3403 7.9579
L50.5822 7.9579
" />
<path d="M50.5822 7.9579
L50.7031 8.0184
" />
<path d="M50.7031 8.0184
L50.7636 8.0789
" />
<path d="M50.7636 8.0789
L50.8241 8.1998
" />
<path d="M50.8241 8.1998
L50.8241 8.2603
" />
<path d="M50.8241 8.2603
L50.7636 8.3813
" />
<path d="M50.7636 8.3813
L50.7031 8.4417
" />
<path d="M50.7031 8.4417
L50.5822 8.5022
" />
<path d="M50.5822 8.5022
L50.3403 8.5022
" />
<path d="M50.3403 8.5022
L50.2193 8.5627
" />
<path d="M50.2193 8.5627
L50.1588 8.6232
" />
<path d="M50.1588 8.6232
L50.0984 8.7441
" />
<path d="M50.0984 8.7441
L50.0984 8.9860
" />
<path d="M50.0984 8.9860
L50.1588 9.1070
" />
<path d="M50.1588 9.1070
L50.2193 9.1675
" />
<path d="M50.2193 9.1675
L50.3403 9.2279
" />
<path d="M50.3403 9.2279
L50.5822 9.2279
" />
<path d="M50.5822 9.2279
L50.7031 9.1675
" />
<path d="M50.7031 9.1675
L50.7636 9.1070
" />
<path d="M50.7636 9.1070
L50.8241 8.9860
" />
<path d="M50.8241 8.9860
L50.8241 8.7441
" />
<path d="M50.8241 8.7441
L50.7636 8.6232
" />
<path d="M50.7636 8.6232
L50.7031 8.5627
" />
<path d="M50.7031 8.5627
L50.5822 8.5022
" />
<path d="M51.0660 9.3489
L52.0336 9.3489
" />
<path d="M52.2150 7.9579
L53.0012 7.9579
" />
<path d="M53.0012 7.9579
L52.5778 8.4417
" />
<path d="M52.5778 8.4417
L52.7593 8.4417
" />
<path d="M52.7593 8.4417
L52.8802 8.5022
" />
<path d="M52.8802 8.5022
L52.9407 8.5627
" />
<path d="M52.9407 8.5627
L53.0012 8.6836
" />
<path d="M53.0012 8.6836
L53.0012 8.9860
" />
<path d="M53.0012 8.9860
L52.9407 9.1070
" />
<path d="M52.9407 9.1070
L52.8802 9.1675
" />
<path d="M52.8802 9.1675
L52.7593 9.2279
" />
<path d="M52.7593 9.2279
L52.3964 9.2279
" />
<path d="M52.3964 9.2279
L52.2755 9.1675
" />
<path d="M52.2755 9.1675
L52.2150 9.1070
" />
<path d="M53.5454 9.1070
L53.6059 9.1675
" />
<path d="M53.6059 9.1675
L53.5454 9.2279
" />
<path d="M53.5454 9.2279
L53.4850 9.1675
" />
<path d="M53.4850 9.1675
L53.5454 9.1070
" />
<path d="M53.5454 9.1070
L53.5454 9.2279
" />
<path d="M54.2107 9.2279
L54.4526 9.2279
" />
<path d="M54.4526 9.2279
L54.5736 9.1675
" />
<path d="M54.5736 9.1675
L54.6340 9.1070
" />
<path d="M54.6340 9.1070
L54.7550 8.9255
" />
<path d="M54.7550 8.9255
L54.8155 8.6836
" />
<path d="M54.8155 8.6836
L54.8155 8.1998
" />
<path d="M54.8155 8.1998
L54.7550 8.0789
" />
<path d="M54.7550 8.0789
L54.6945 8.0184
" />
<path d="M54.6945 8.0184
L54.5736 7.9579
" />
<path d="M54.5736 7.9579
L54.3317 7.9579
" />
<path d="M54.3317 7.9579
L54.2107 8.0184
" />
<path d="M54.2107 8.0184
L54.1502 8.0789
" />
<path d="M54.1502 8.0789
L54.0898 8.1998
" />
<path d="M54.0898 8.1998
L54.0898 8.5022
" />
<path d="M54.0898 8.5022
L54.1502 8.6232
" />
<path d="M54.1502 8.6232
L54.2107 8.6836
" />
<path d="M54.2107 8.6836
L54.3317 8.7441
" />
<path d="M54.3317 8.7441
L54.5736 8.7441
" />
<path d="M54.5736 8.7441
L54.6945 8.6836
" />
<path d="M54.6945 8.6836
L54.7550 8.6232
" />
<path d="M54.7550 8.6232
L54.8155 8.5022
" />
<path d="M55.2388 9.2279
L55.9040 8.3813
" />
<path d="M55.2388 8.3813
L55.9040 9.2279
" />
<path d="M56.9321 8.3813
L56.9321 9.2279
" />
<path d="M56.6297 7.8975
L56.3274 8.8046
" />
<path d="M56.3274 8.8046
L57.1135 8.8046
" />
<path d="M57.5973 9.1070
L57.6578 9.1675
" />
<path d="M57.6578 9.1675
L57.5973 9.2279
" />
<path d="M57.5973 9.2279
L57.5369 9.1675
" />
<path d="M57.5369 9.1675
L57.5973 9.1070
" />
<path d="M57.5973 9.1070
L57.5973 9.2279
" />
<path d="M58.2626 9.2279
L58.5045 9.2279
" />
<path d="M58.5045 9.2279
L58.6255 9.1675
" />
<path d="M58.6255 9.1675
L58.6859 9.1070
" />
<path d="M58.6859 9.1070
L58.8069 8.9255
" />
<path d="M58.8069 8.9255
L58.8674 8.6836
" />
<path d="M58.8674 8.6836
L58.8674 8.1998
" />
<path d="M58.8674 8.1998
L58.8069 8.0789
" />
<path d="M58.8069 8.0789
L58.7464 8.0184
" />
<path d="M58.7464 8.0184
L58.6255 7.9579
" />
<path d="M58.6255 7.9579
L58.3836 7.9579
" />
<path d="M58.3836 7.9579
L58.2626 8.0184
" />
<path d="M58.2626 8.0184
L58.2021 8.0789
" />
<path d="M58.2021 8.0789
L58.1417 8.1998
" />
<path d="M58.1417 8.1998
L58.1417 8.5022
" />
<path d="M58.1417 8.5022
L58.2021 8.6232
" />
<path d="M58.2021 8.6232
L58.2626 8.6836
" />
<path d="M58.2626 8.6836
L58.3836 8.7441
" />
<path d="M58.3836 8.7441
L58.6255 8.7441
" />
<path d="M58.6255 8.7441
L58.7464 8.6836
" />
<path d="M58.7464 8.6836
L58.8069 8.6232
" />
<path d="M58.8069 8.6232
L58.8674 8.5022
" />
<path d="M59.4116 9.2279
L59.4116 8.3813
" />
<path d="M59.4116 8.5022
L59.4721 8.4417
" />
<path d="M59.4721 8.4417
L59.5931 8.3813
" />
<path d="M59.5931 8.3813
L59.7745 8.3813
" />
<path d="M59.7745 8.3813
L59.8954 8.4417
" />
<path d="M59.8954 8.4417
L59.9559 8.5627
" />
<path d="M59.9559 8.5627
L59.9559 9.2279
" />
<path d="M59.9559 8.5627
L60.0164 8.4417
" />
<path d="M60.0164 8.4417
L60.1373 8.3813
" />
<path d="M60.1373 8.3813
L60.3188 8.3813
" />
<path d="M60.3188 8.3813
L60.4397 8.4417
" />
<path d="M60.4397 8.4417
L60.5002 8.5627
" />
<path d="M60.5002 8.5627
L60.5002 9.2279
" />
<path d="M61.1049 9.2279
L61.1049 8.3813
" />
<path d="M61.1049 8.5022
L61.1654 8.4417
" />
<path d="M61.1654 8.4417
L61.2864 8.3813
" />
<path d="M61.2864 8.3813
L61.4678 8.3813
" />
<path d="M61.4678 8.3813
L61.5887 8.4417
" />
<path d="M61.5887 8.4417
L61.6492 8.5627
" />
<path d="M61.6492 8.5627
L61.6492 9.2279
" />
<path d="M61.6492 8.5627
L61.7097 8.4417
" />
<path d="M61.7097 8.4417
L61.8306 8.3813
" />
<path d="M61.8306 8.3813
L62.0121 8.3813
" />
<path d="M62.0121 8.3813
L62.1330 8.4417
" />
<path d="M62.1330 8.4417
L62.1935 8.5627
" />
<path d="M62.1935 8.5627
L62.1935 9.2279
" />
<path d="M62.4959 9.3489
L63.4635 9.3489
" />
<path d="M63.7658 9.2279
L63.7658 7.9579
" />
<path d="M63.7658 7.9579
L64.2496 7.9579
" />
<path d="M64.2496 7.9579
L64.3706 8.0184
" />
<path d="M64.3706 8.0184
L64.4311 8.0789
" />
<path d="M64.4311 8.0789
L64.4915 8.1998
" />
<path d="M64.4915 8.1998
L64.4915 8.3813
" />
<path d="M64.4915 8.3813
L64.4311 8.5022
" />
<path d="M64.4311 8.5022
L64.3706 8.5627
" />
<path d="M64.3706 8.5627
L64.2496 8.6232
" />
<path d="M64.2496 8.6232
L63.7658 8.6232
" />
<path d="M65.7011 9.2279
L64.9754 9.2279
" />
<path d="M65.3382 9.2279
L65.3382 7.9579
" />
<path d="M65.3382 7.9579
L65.2173 8.1394
" />
<path d="M65.2173 8.1394
L65.0963 8.2603
" />
<path d="M65.0963 8.2603
L64.9754 8.3208
" />
<path d="M66.2453 9.1070
L66.3058 9.1675
" />
<path d="M66.3058 9.1675
L66.2453 9.2279
" />
<path d="M66.2453 9.2279
L66.1849 9.1675
" />
<path d="M66.1849 9.1675
L66.2453 9.1070
" />
<path d="M66.2453 9.1070
L66.2453 9.2279
" />
<path d="M66.7897 8.0789
L66.8501 8.0184
" />
<path d="M66.8501 8.0184
L66.9711 7.9579
" />
<path d="M66.9711 7.9579
L67.2735 7.9579
" />
<path d="M67.2735 7.9579
L67.3944 8.0184
" />
<path d="M67.3944 8.0184
L67.4549 8.0789
" />
<path d="M67.4549 8.0789
L67.5154 8.1998
" />
<path d="M67.5154 8.1998
L67.5154 8.3208
" />
<path d="M67.5154 8.3208
L67.4549 8.5022
" />
<path d="M67.4549 8.5022
L66.7292 9.2279
" />
<path d="M66.7292 9.2279
L67.5154 9.2279
" />
<path d="M67.9387 7.9579
L68.7853 7.9579
" />
<path d="M68.7853 7.9579
L68.2411 9.2279
" />
<path d="M69.2691 9.2279
L69.2691 8.3813
" />
<path d="M69.2691 8.5022
L69.3296 8.4417
" />
<path d="M69.3296 8.4417
L69.4506 8.3813
" />
<path d="M69.4506 8.3813
L69.6320 8.3813
" />
<path d="M69.6320 8.3813
L69.7529 8.4417
" />
<path d="M69.7529 8.4417
L69.8134 8.5627
" />
<path d="M69.8134 8.5627
L69.8134 9.2279
" />
<path d="M69.8134 8.5627
L69.8739 8.4417
" />
<path d="M69.8739 8.4417
L69.9948 8.3813
" />
<path d="M69.9948 8.3813
L70.1763 8.3813
" />
<path d="M70.1763 8.3813
L70.2972 8.4417
" />
<path d="M70.2972 8.4417
L70.3577 8.5627
" />
<path d="M70.3577 8.5627
L70.3577 9.2279
" />
<path d="M70.9624 9.2279
L70.9624 8.3813
" />
<path d="M70.9624 8.5022
L71.0229 8.4417
" />
<path d="M71.0229 8.4417
L71.1439 8.3813
" />
<path d="M71.1439 8.3813
L71.3253 8.3813
" />
<path d="M71.3253 8.3813
L71.4462 8.4417
" />
<path d="M71.4462 8.4417
L71.5067 8.5627
" />
<path d="M71.5067 8.5627
L71.5067 9.2279
" />
<path d="M71.5067 8.5627
L71.5672 8.4417
" />
<path d="M71.5672 8.4417
L71.6881 8.3813
" />
<path d="M71.6881 8.3813
L71.8696 8.3813
" />
<path d="M71.8696 8.3813
L71.9905 8.4417
" />
<path d="M71.9905 8.4417
L72.0510 8.5627
" />
<path d="M72.0510 8.5627
L72.0510 9.2279
" />
</g><text x="52.0940" y="16.9037"
textLength="86.8234" font-size="1.6933" lengthAdjust="spacingAndGlyphs"
text-anchor="middle" opacity="0">https://www.analog.com/media/en/technical-documentation/data-sheets/112935ff.pdf</text>
<g class="stroked-text"><desc>https://www.analog.com/media/en/technical-documentation/data-sheets/112935ff.pdf</desc>
<path d="M9.0958 16.8479
L9.0958 15.5779
" />
<path d="M9.6401 16.8479
L9.6401 16.1827
" />
<path d="M9.6401 16.1827
L9.5796 16.0617
" />
<path d="M9.5796 16.0617
L9.4587 16.0013
" />
<path d="M9.4587 16.0013
L9.2773 16.0013
" />
<path d="M9.2773 16.0013
L9.1563 16.0617
" />
<path d="M9.1563 16.0617
L9.0958 16.1222
" />
<path d="M10.0634 16.0013
L10.5472 16.0013
" />
<path d="M10.2448 15.5779
L10.2448 16.6665
" />
<path d="M10.2448 16.6665
L10.3053 16.7875
" />
<path d="M10.3053 16.7875
L10.4263 16.8479
" />
<path d="M10.4263 16.8479
L10.5472 16.8479
" />
<path d="M10.7891 16.0013
L11.2729 16.0013
" />
<path d="M10.9705 15.5779
L10.9705 16.6665
" />
<path d="M10.9705 16.6665
L11.0310 16.7875
" />
<path d="M11.0310 16.7875
L11.1520 16.8479
" />
<path d="M11.1520 16.8479
L11.2729 16.8479
" />
<path d="M11.6962 16.0013
L11.6962 17.2713
" />
<path d="M11.6962 16.0617
L11.8172 16.0013
" />
<path d="M11.8172 16.0013
L12.0591 16.0013
" />
<path d="M12.0591 16.0013
L12.1800 16.0617
" />
<path d="M12.1800 16.0617
L12.2405 16.1222
" />
<path d="M12.2405 16.1222
L12.3010 16.2432
" />
<path d="M12.3010 16.2432
L12.3010 16.6060
" />
<path d="M12.3010 16.6060
L12.2405 16.7270
" />
<path d="M12.2405 16.7270
L12.1800 16.7875
" />
<path d="M12.1800 16.7875
L12.0591 16.8479
" />
<path d="M12.0591 16.8479
L11.8172 16.8479
" />
<path d="M11.8172 16.8479
L11.6962 16.7875
" />
<path d="M12.7848 16.7875
L12.9057 16.8479
" />
<path d="M12.9057 16.8479
L13.1476 16.8479
" />
<path d="M13.1476 16.8479
L13.2686 16.7875
" />
<path d="M13.2686 16.7875
L13.3290 16.6665
" />
<path d="M13.3290 16.6665
L13.3290 16.6060
" />
<path d="M13.3290 16.6060
L13.2686 16.4851
" />
<path d="M13.2686 16.4851
L13.1476 16.4246
" />
<path d="M13.1476 16.4246
L12.9662 16.4246
" />
<path d="M12.9662 16.4246
L12.8452 16.3641
" />
<path d="M12.8452 16.3641
L12.7848 16.2432
" />
<path d="M12.7848 16.2432
L12.7848 16.1827
" />
<path d="M12.7848 16.1827
L12.8452 16.0617
" />
<path d="M12.8452 16.0617
L12.9662 16.0013
" />
<path d="M12.9662 16.0013
L13.1476 16.0013
" />
<path d="M13.1476 16.0013
L13.2686 16.0617
" />
<path d="M13.8733 16.7270
L13.9338 16.7875
" />
<path d="M13.9338 16.7875
L13.8733 16.8479
" />
<path d="M13.8733 16.8479
L13.8129 16.7875
" />
<path d="M13.8129 16.7875
L13.8733 16.7270
" />
<path d="M13.8733 16.7270
L13.8733 16.8479
" />
<path d="M13.8733 16.0617
L13.9338 16.1222
" />
<path d="M13.9338 16.1222
L13.8733 16.1827
" />
<path d="M13.8733 16.1827
L13.8129 16.1222
" />
<path d="M13.8129 16.1222
L13.8733 16.0617
" />
<path d="M13.8733 16.0617
L13.8733 16.1827
" />
<path d="M15.3853 15.5175
L14.2967 17.1503
" />
<path d="M16.7158 15.5175
L15.6272 17.1503
" />
<path d="M17.0182 16.0013
L17.2601 16.8479
" />
<path d="M17.2601 16.8479
L17.5020 16.2432
" />
<path d="M17.5020 16.2432
L17.7439 16.8479
" />
<path d="M17.7439 16.8479
L17.9858 16.0013
" />
<path d="M18.3487 16.0013
L18.5906 16.8479
" />
<path d="M18.5906 16.8479
L18.8325 16.2432
" />
<path d="M18.8325 16.2432
L19.0744 16.8479
" />
<path d="M19.0744 16.8479
L19.3163 16.0013
" />
<path d="M19.6792 16.0013
L19.9211 16.8479
" />
<path d="M19.9211 16.8479
L20.1630 16.2432
" />
<path d="M20.1630 16.2432
L20.4049 16.8479
" />
<path d="M20.4049 16.8479
L20.6468 16.0013
" />
<path d="M21.1306 16.7270
L21.1911 16.7875
" />
<path d="M21.1911 16.7875
L21.1306 16.8479
" />
<path d="M21.1306 16.8479
L21.0702 16.7875
" />
<path d="M21.0702 16.7875
L21.1306 16.7270
" />
<path d="M21.1306 16.7270
L21.1306 16.8479
" />
<path d="M22.2797 16.8479
L22.2797 16.1827
" />
<path d="M22.2797 16.1827
L22.2192 16.0617
" />
<path d="M22.2192 16.0617
L22.0983 16.0013
" />
<path d="M22.0983 16.0013
L21.8564 16.0013
" />
<path d="M21.8564 16.0013
L21.7354 16.0617
" />
<path d="M22.2797 16.7875
L22.1588 16.8479
" />
<path d="M22.1588 16.8479
L21.8564 16.8479
" />
<path d="M21.8564 16.8479
L21.7354 16.7875
" />
<path d="M21.7354 16.7875
L21.6750 16.6665
" />
<path d="M21.6750 16.6665
L21.6750 16.5455
" />
<path d="M21.6750 16.5455
L21.7354 16.4246
" />
<path d="M21.7354 16.4246
L21.8564 16.3641
" />
<path d="M21.8564 16.3641
L22.1588 16.3641
" />
<path d="M22.1588 16.3641
L22.2797 16.3036
" />
<path d="M22.8844 16.0013
L22.8844 16.8479
" />
<path d="M22.8844 16.1222
L22.9449 16.0617
" />
<path d="M22.9449 16.0617
L23.0659 16.0013
" />
<path d="M23.0659 16.0013
L23.2473 16.0013
" />
<path d="M23.2473 16.0013
L23.3682 16.0617
" />
<path d="M23.3682 16.0617
L23.4287 16.1827
" />
<path d="M23.4287 16.1827
L23.4287 16.8479
" />
<path d="M24.5777 16.8479
L24.5777 16.1827
" />
<path d="M24.5777 16.1827
L24.5172 16.0617
" />
<path d="M24.5172 16.0617
L24.3963 16.0013
" />
<path d="M24.3963 16.0013
L24.1544 16.0013
" />
<path d="M24.1544 16.0013
L24.0334 16.0617
" />
<path d="M24.5777 16.7875
L24.4568 16.8479
" />
<path d="M24.4568 16.8479
L24.1544 16.8479
" />
<path d="M24.1544 16.8479
L24.0334 16.7875
" />
<path d="M24.0334 16.7875
L23.9730 16.6665
" />
<path d="M23.9730 16.6665
L23.9730 16.5455
" />
<path d="M23.9730 16.5455
L24.0334 16.4246
" />
<path d="M24.0334 16.4246
L24.1544 16.3641
" />
<path d="M24.1544 16.3641
L24.4568 16.3641
" />
<path d="M24.4568 16.3641
L24.5777 16.3036
" />
<path d="M25.3639 16.8479
L25.2429 16.7875
" />
<path d="M25.2429 16.7875
L25.1824 16.6665
" />
<path d="M25.1824 16.6665
L25.1824 15.5779
" />
<path d="M26.0291 16.8479
L25.9081 16.7875
" />
<path d="M25.9081 16.7875
L25.8476 16.7270
" />
<path d="M25.8476 16.7270
L25.7872 16.6060
" />
<path d="M25.7872 16.6060
L25.7872 16.2432
" />
<path d="M25.7872 16.2432
L25.8476 16.1222
" />
<path d="M25.8476 16.1222
L25.9081 16.0617
" />
<path d="M25.9081 16.0617
L26.0291 16.0013
" />
<path d="M26.0291 16.0013
L26.2105 16.0013
" />
<path d="M26.2105 16.0013
L26.3314 16.0617
" />
<path d="M26.3314 16.0617
L26.3919 16.1222
" />
<path d="M26.3919 16.1222
L26.4524 16.2432
" />
<path d="M26.4524 16.2432
L26.4524 16.6060
" />
<path d="M26.4524 16.6060
L26.3919 16.7270
" />
<path d="M26.3919 16.7270
L26.3314 16.7875
" />
<path d="M26.3314 16.7875
L26.2105 16.8479
" />
<path d="M26.2105 16.8479
L26.0291 16.8479
" />
<path d="M27.5409 16.0013
L27.5409 17.0294
" />
<path d="M27.5409 17.0294
L27.4804 17.1503
" />
<path d="M27.4804 17.1503
L27.4200 17.2108
" />
<path d="M27.4200 17.2108
L27.2990 17.2713
" />
<path d="M27.2990 17.2713
L27.1176 17.2713
" />
<path d="M27.1176 17.2713
L26.9966 17.2108
" />
<path d="M27.5409 16.7875
L27.4200 16.8479
" />
<path d="M27.4200 16.8479
L27.1781 16.8479
" />
<path d="M27.1781 16.8479
L27.0571 16.7875
" />
<path d="M27.0571 16.7875
L26.9966 16.7270
" />
<path d="M26.9966 16.7270
L26.9362 16.6060
" />
<path d="M26.9362 16.6060
L26.9362 16.2432
" />
<path d="M26.9362 16.2432
L26.9966 16.1222
" />
<path d="M26.9966 16.1222
L27.0571 16.0617
" />
<path d="M27.0571 16.0617
L27.1781 16.0013
" />
<path d="M27.1781 16.0013
L27.4200 16.0013
" />
<path d="M27.4200 16.0013
L27.5409 16.0617
" />
<path d="M28.1456 16.7270
L28.2061 16.7875
" />
<path d="M28.2061 16.7875
L28.1456 16.8479
" />
<path d="M28.1456 16.8479
L28.0852 16.7875
" />
<path d="M28.0852 16.7875
L28.1456 16.7270
" />
<path d="M28.1456 16.7270
L28.1456 16.8479
" />
<path d="M29.2947 16.7875
L29.1738 16.8479
" />
<path d="M29.1738 16.8479
L28.9319 16.8479
" />
<path d="M28.9319 16.8479
L28.8109 16.7875
" />
<path d="M28.8109 16.7875
L28.7504 16.7270
" />
<path d="M28.7504 16.7270
L28.6900 16.6060
" />
<path d="M28.6900 16.6060
L28.6900 16.2432
" />
<path d="M28.6900 16.2432
L28.7504 16.1222
" />
<path d="M28.7504 16.1222
L28.8109 16.0617
" />
<path d="M28.8109 16.0617
L28.9319 16.0013
" />
<path d="M28.9319 16.0013
L29.1738 16.0013
" />
<path d="M29.1738 16.0013
L29.2947 16.0617
" />
<path d="M30.0205 16.8479
L29.8995 16.7875
" />
<path d="M29.8995 16.7875
L29.8390 16.7270
" />
<path d="M29.8390 16.7270
L29.7786 16.6060
" />
<path d="M29.7786 16.6060
L29.7786 16.2432
" />
<path d="M29.7786 16.2432
L29.8390 16.1222
" />
<path d="M29.8390 16.1222
L29.8995 16.0617
" />
<path d="M29.8995 16.0617
L30.0205 16.0013
" />
<path d="M30.0205 16.0013
L30.2019 16.0013
" />
<path d="M30.2019 16.0013
L30.3228 16.0617
" />
<path d="M30.3228 16.0617
L30.3833 16.1222
" />
<path d="M30.3833 16.1222
L30.4438 16.2432
" />
<path d="M30.4438 16.2432
L30.4438 16.6060
" />
<path d="M30.4438 16.6060
L30.3833 16.7270
" />
<path d="M30.3833 16.7270
L30.3228 16.7875
" />
<path d="M30.3228 16.7875
L30.2019 16.8479
" />
<path d="M30.2019 16.8479
L30.0205 16.8479
" />
<path d="M30.9880 16.8479
L30.9880 16.0013
" />
<path d="M30.9880 16.1222
L31.0485 16.0617
" />
<path d="M31.0485 16.0617
L31.1695 16.0013
" />
<path d="M31.1695 16.0013
L31.3509 16.0013
" />
<path d="M31.3509 16.0013
L31.4718 16.0617
" />
<path d="M31.4718 16.0617
L31.5323 16.1827
" />
<path d="M31.5323 16.1827
L31.5323 16.8479
" />
<path d="M31.5323 16.1827
L31.5928 16.0617
" />
<path d="M31.5928 16.0617
L31.7137 16.0013
" />
<path d="M31.7137 16.0013
L31.8952 16.0013
" />
<path d="M31.8952 16.0013
L32.0161 16.0617
" />
<path d="M32.0161 16.0617
L32.0766 16.1827
" />
<path d="M32.0766 16.1827
L32.0766 16.8479
" />
<path d="M33.5885 15.5175
L32.4999 17.1503
" />
<path d="M34.0118 16.8479
L34.0118 16.0013
" />
<path d="M34.0118 16.1222
L34.0723 16.0617
" />
<path d="M34.0723 16.0617
L34.1933 16.0013
" />
<path d="M34.1933 16.0013
L34.3747 16.0013
" />
<path d="M34.3747 16.0013
L34.4956 16.0617
" />
<path d="M34.4956 16.0617
L34.5561 16.1827
" />
<path d="M34.5561 16.1827
L34.5561 16.8479
" />
<path d="M34.5561 16.1827
L34.6166 16.0617
" />
<path d="M34.6166 16.0617
L34.7375 16.0013
" />
<path d="M34.7375 16.0013
L34.9190 16.0013
" />
<path d="M34.9190 16.0013
L35.0399 16.0617
" />
<path d="M35.0399 16.0617
L35.1004 16.1827
" />
<path d="M35.1004 16.1827
L35.1004 16.8479
" />
<path d="M36.1889 16.7875
L36.0680 16.8479
" />
<path d="M36.0680 16.8479
L35.8261 16.8479
" />
<path d="M35.8261 16.8479
L35.7051 16.7875
" />
<path d="M35.7051 16.7875
L35.6447 16.6665
" />
<path d="M35.6447 16.6665
L35.6447 16.1827
" />
<path d="M35.6447 16.1827
L35.7051 16.0617
" />
<path d="M35.7051 16.0617
L35.8261 16.0013
" />
<path d="M35.8261 16.0013
L36.0680 16.0013
" />
<path d="M36.0680 16.0013
L36.1889 16.0617
" />
<path d="M36.1889 16.0617
L36.2494 16.1827
" />
<path d="M36.2494 16.1827
L36.2494 16.3036
" />
<path d="M36.2494 16.3036
L35.6447 16.4246
" />
<path d="M37.3380 16.8479
L37.3380 15.5779
" />
<path d="M37.3380 16.7875
L37.2171 16.8479
" />
<path d="M37.2171 16.8479
L36.9752 16.8479
" />
<path d="M36.9752 16.8479
L36.8542 16.7875
" />
<path d="M36.8542 16.7875
L36.7937 16.7270
" />
<path d="M36.7937 16.7270
L36.7333 16.6060
" />
<path d="M36.7333 16.6060
L36.7333 16.2432
" />
<path d="M36.7333 16.2432
L36.7937 16.1222
" />
<path d="M36.7937 16.1222
L36.8542 16.0617
" />
<path d="M36.8542 16.0617
L36.9752 16.0013
" />
<path d="M36.9752 16.0013
L37.2171 16.0013
" />
<path d="M37.2171 16.0013
L37.3380 16.0617
" />
<path d="M37.9427 16.8479
L37.9427 16.0013
" />
<path d="M37.9427 15.5779
L37.8823 15.6384
" />
<path d="M37.8823 15.6384
L37.9427 15.6989
" />
<path d="M37.9427 15.6989
L38.0032 15.6384
" />
<path d="M38.0032 15.6384
L37.9427 15.5779
" />
<path d="M37.9427 15.5779
L37.9427 15.6989
" />
<path d="M39.0918 16.8479
L39.0918 16.1827
" />
<path d="M39.0918 16.1827
L39.0313 16.0617
" />
<path d="M39.0313 16.0617
L38.9104 16.0013
" />
<path d="M38.9104 16.0013
L38.6685 16.0013
" />
<path d="M38.6685 16.0013
L38.5475 16.0617
" />
<path d="M39.0918 16.7875
L38.9709 16.8479
" />
<path d="M38.9709 16.8479
L38.6685 16.8479
" />
<path d="M38.6685 16.8479
L38.5475 16.7875
" />
<path d="M38.5475 16.7875
L38.4871 16.6665
" />
<path d="M38.4871 16.6665
L38.4871 16.5455
" />
<path d="M38.4871 16.5455
L38.5475 16.4246
" />
<path d="M38.5475 16.4246
L38.6685 16.3641
" />
<path d="M38.6685 16.3641
L38.9709 16.3641
" />
<path d="M38.9709 16.3641
L39.0918 16.3036
" />
<path d="M40.6037 15.5175
L39.5151 17.1503
" />
<path d="M41.5108 16.7875
L41.3899 16.8479
" />
<path d="M41.3899 16.8479
L41.1480 16.8479
" />
<path d="M41.1480 16.8479
L41.0270 16.7875
" />
<path d="M41.0270 16.7875
L40.9666 16.6665
" />
<path d="M40.9666 16.6665
L40.9666 16.1827
" />
<path d="M40.9666 16.1827
L41.0270 16.0617
" />
<path d="M41.0270 16.0617
L41.1480 16.0013
" />
<path d="M41.1480 16.0013
L41.3899 16.0013
" />
<path d="M41.3899 16.0013
L41.5108 16.0617
" />
<path d="M41.5108 16.0617
L41.5713 16.1827
" />
<path d="M41.5713 16.1827
L41.5713 16.3036
" />
<path d="M41.5713 16.3036
L40.9666 16.4246
" />
<path d="M42.1156 16.0013
L42.1156 16.8479
" />
<path d="M42.1156 16.1222
L42.1761 16.0617
" />
<path d="M42.1761 16.0617
L42.2971 16.0013
" />
<path d="M42.2971 16.0013
L42.4785 16.0013
" />
<path d="M42.4785 16.0013
L42.5994 16.0617
" />
<path d="M42.5994 16.0617
L42.6599 16.1827
" />
<path d="M42.6599 16.1827
L42.6599 16.8479
" />
<path d="M44.1718 15.5175
L43.0832 17.1503
" />
<path d="M44.4137 16.0013
L44.8975 16.0013
" />
<path d="M44.5951 15.5779
L44.5951 16.6665
" />
<path d="M44.5951 16.6665
L44.6556 16.7875
" />
<path d="M44.6556 16.7875
L44.7766 16.8479
" />
<path d="M44.7766 16.8479
L44.8975 16.8479
" />
<path d="M45.8046 16.7875
L45.6837 16.8479
" />
<path d="M45.6837 16.8479
L45.4418 16.8479
" />
<path d="M45.4418 16.8479
L45.3208 16.7875
" />
<path d="M45.3208 16.7875
L45.2604 16.6665
" />
<path d="M45.2604 16.6665
L45.2604 16.1827
" />
<path d="M45.2604 16.1827
L45.3208 16.0617
" />
<path d="M45.3208 16.0617
L45.4418 16.0013
" />
<path d="M45.4418 16.0013
L45.6837 16.0013
" />
<path d="M45.6837 16.0013
L45.8046 16.0617
" />
<path d="M45.8046 16.0617
L45.8651 16.1827
" />
<path d="M45.8651 16.1827
L45.8651 16.3036
" />
<path d="M45.8651 16.3036
L45.2604 16.4246
" />
<path d="M46.9537 16.7875
L46.8328 16.8479
" />
<path d="M46.8328 16.8479
L46.5909 16.8479
" />
<path d="M46.5909 16.8479
L46.4699 16.7875
" />
<path d="M46.4699 16.7875
L46.4094 16.7270
" />
<path d="M46.4094 16.7270
L46.3490 16.6060
" />
<path d="M46.3490 16.6060
L46.3490 16.2432
" />
<path d="M46.3490 16.2432
L46.4094 16.1222
" />
<path d="M46.4094 16.1222
L46.4699 16.0617
" />
<path d="M46.4699 16.0617
L46.5909 16.0013
" />
<path d="M46.5909 16.0013
L46.8328 16.0013
" />
<path d="M46.8328 16.0013
L46.9537 16.0617
" />
<path d="M47.4980 16.8479
L47.4980 15.5779
" />
<path d="M48.0423 16.8479
L48.0423 16.1827
" />
<path d="M48.0423 16.1827
L47.9818 16.0617
" />
<path d="M47.9818 16.0617
L47.8609 16.0013
" />
<path d="M47.8609 16.0013
L47.6795 16.0013
" />
<path d="M47.6795 16.0013
L47.5585 16.0617
" />
<path d="M47.5585 16.0617
L47.4980 16.1222
" />
<path d="M48.6470 16.0013
L48.6470 16.8479
" />
<path d="M48.6470 16.1222
L48.7075 16.0617
" />
<path d="M48.7075 16.0617
L48.8285 16.0013
" />
<path d="M48.8285 16.0013
L49.0099 16.0013
" />
<path d="M49.0099 16.0013
L49.1308 16.0617
" />
<path d="M49.1308 16.0617
L49.1913 16.1827
" />
<path d="M49.1913 16.1827
L49.1913 16.8479
" />
<path d="M49.7960 16.8479
L49.7960 16.0013
" />
<path d="M49.7960 15.5779
L49.7356 15.6384
" />
<path d="M49.7356 15.6384
L49.7960 15.6989
" />
<path d="M49.7960 15.6989
L49.8565 15.6384
" />
<path d="M49.8565 15.6384
L49.7960 15.5779
" />
<path d="M49.7960 15.5779
L49.7960 15.6989
" />
<path d="M50.9451 16.7875
L50.8242 16.8479
" />
<path d="M50.8242 16.8479
L50.5823 16.8479
" />
<path d="M50.5823 16.8479
L50.4613 16.7875
" />
<path d="M50.4613 16.7875
L50.4008 16.7270
" />
<path d="M50.4008 16.7270
L50.3404 16.6060
" />
<path d="M50.3404 16.6060
L50.3404 16.2432
" />
<path d="M50.3404 16.2432
L50.4008 16.1222
" />
<path d="M50.4008 16.1222
L50.4613 16.0617
" />
<path d="M50.4613 16.0617
L50.5823 16.0013
" />
<path d="M50.5823 16.0013
L50.8242 16.0013
" />
<path d="M50.8242 16.0013
L50.9451 16.0617
" />
<path d="M52.0337 16.8479
L52.0337 16.1827
" />
<path d="M52.0337 16.1827
L51.9732 16.0617
" />
<path d="M51.9732 16.0617
L51.8523 16.0013
" />
<path d="M51.8523 16.0013
L51.6104 16.0013
" />
<path d="M51.6104 16.0013
L51.4894 16.0617
" />
<path d="M52.0337 16.7875
L51.9128 16.8479
" />
<path d="M51.9128 16.8479
L51.6104 16.8479
" />
<path d="M51.6104 16.8479
L51.4894 16.7875
" />
<path d="M51.4894 16.7875
L51.4290 16.6665
" />
<path d="M51.4290 16.6665
L51.4290 16.5455
" />
<path d="M51.4290 16.5455
L51.4894 16.4246
" />
<path d="M51.4894 16.4246
L51.6104 16.3641
" />
<path d="M51.6104 16.3641
L51.9128 16.3641
" />
<path d="M51.9128 16.3641
L52.0337 16.3036
" />
<path d="M52.8199 16.8479
L52.6989 16.7875
" />
<path d="M52.6989 16.7875
L52.6384 16.6665
" />
<path d="M52.6384 16.6665
L52.6384 15.5779
" />
<path d="M53.3036 16.3641
L54.2713 16.3641
" />
<path d="M55.4203 16.8479
L55.4203 15.5779
" />
<path d="M55.4203 16.7875
L55.2994 16.8479
" />
<path d="M55.2994 16.8479
L55.0575 16.8479
" />
<path d="M55.0575 16.8479
L54.9365 16.7875
" />
<path d="M54.9365 16.7875
L54.8760 16.7270
" />
<path d="M54.8760 16.7270
L54.8156 16.6060
" />
<path d="M54.8156 16.6060
L54.8156 16.2432
" />
<path d="M54.8156 16.2432
L54.8760 16.1222
" />
<path d="M54.8760 16.1222
L54.9365 16.0617
" />
<path d="M54.9365 16.0617
L55.0575 16.0013
" />
<path d="M55.0575 16.0013
L55.2994 16.0013
" />
<path d="M55.2994 16.0013
L55.4203 16.0617
" />
<path d="M56.2065 16.8479
L56.0855 16.7875
" />
<path d="M56.0855 16.7875
L56.0250 16.7270
" />
<path d="M56.0250 16.7270
L55.9646 16.6060
" />
<path d="M55.9646 16.6060
L55.9646 16.2432
" />
<path d="M55.9646 16.2432
L56.0250 16.1222
" />
<path d="M56.0250 16.1222
L56.0855 16.0617
" />
<path d="M56.0855 16.0617
L56.2065 16.0013
" />
<path d="M56.2065 16.0013
L56.3879 16.0013
" />
<path d="M56.3879 16.0013
L56.5088 16.0617
" />
<path d="M56.5088 16.0617
L56.5693 16.1222
" />
<path d="M56.5693 16.1222
L56.6298 16.2432
" />
<path d="M56.6298 16.2432
L56.6298 16.6060
" />
<path d="M56.6298 16.6060
L56.5693 16.7270
" />
<path d="M56.5693 16.7270
L56.5088 16.7875
" />
<path d="M56.5088 16.7875
L56.3879 16.8479
" />
<path d="M56.3879 16.8479
L56.2065 16.8479
" />
<path d="M57.7183 16.7875
L57.5974 16.8479
" />
<path d="M57.5974 16.8479
L57.3555 16.8479
" />
<path d="M57.3555 16.8479
L57.2345 16.7875
" />
<path d="M57.2345 16.7875
L57.1740 16.7270
" />
<path d="M57.1740 16.7270
L57.1136 16.6060
" />
<path d="M57.1136 16.6060
L57.1136 16.2432
" />
<path d="M57.1136 16.2432
L57.1740 16.1222
" />
<path d="M57.1740 16.1222
L57.2345 16.0617
" />
<path d="M57.2345 16.0617
L57.3555 16.0013
" />
<path d="M57.3555 16.0013
L57.5974 16.0013
" />
<path d="M57.5974 16.0013
L57.7183 16.0617
" />
<path d="M58.8069 16.0013
L58.8069 16.8479
" />
<path d="M58.2626 16.0013
L58.2626 16.6665
" />
<path d="M58.2626 16.6665
L58.3231 16.7875
" />
<path d="M58.3231 16.7875
L58.4441 16.8479
" />
<path d="M58.4441 16.8479
L58.6255 16.8479
" />
<path d="M58.6255 16.8479
L58.7464 16.7875
" />
<path d="M58.7464 16.7875
L58.8069 16.7270
" />
<path d="M59.4116 16.8479
L59.4116 16.0013
" />
<path d="M59.4116 16.1222
L59.4721 16.0617
" />
<path d="M59.4721 16.0617
L59.5931 16.0013
" />
<path d="M59.5931 16.0013
L59.7745 16.0013
" />
<path d="M59.7745 16.0013
L59.8954 16.0617
" />
<path d="M59.8954 16.0617
L59.9559 16.1827
" />
<path d="M59.9559 16.1827
L59.9559 16.8479
" />
<path d="M59.9559 16.1827
L60.0164 16.0617
" />
<path d="M60.0164 16.0617
L60.1373 16.0013
" />
<path d="M60.1373 16.0013
L60.3188 16.0013
" />
<path d="M60.3188 16.0013
L60.4397 16.0617
" />
<path d="M60.4397 16.0617
L60.5002 16.1827
" />
<path d="M60.5002 16.1827
L60.5002 16.8479
" />
<path d="M61.5887 16.7875
L61.4678 16.8479
" />
<path d="M61.4678 16.8479
L61.2259 16.8479
" />
<path d="M61.2259 16.8479
L61.1049 16.7875
" />
<path d="M61.1049 16.7875
L61.0445 16.6665
" />
<path d="M61.0445 16.6665
L61.0445 16.1827
" />
<path d="M61.0445 16.1827
L61.1049 16.0617
" />
<path d="M61.1049 16.0617
L61.2259 16.0013
" />
<path d="M61.2259 16.0013
L61.4678 16.0013
" />
<path d="M61.4678 16.0013
L61.5887 16.0617
" />
<path d="M61.5887 16.0617
L61.6492 16.1827
" />
<path d="M61.6492 16.1827
L61.6492 16.3036
" />
<path d="M61.6492 16.3036
L61.0445 16.4246
" />
<path d="M62.1935 16.0013
L62.1935 16.8479
" />
<path d="M62.1935 16.1222
L62.2540 16.0617
" />
<path d="M62.2540 16.0617
L62.3750 16.0013
" />
<path d="M62.3750 16.0013
L62.5564 16.0013
" />
<path d="M62.5564 16.0013
L62.6773 16.0617
" />
<path d="M62.6773 16.0617
L62.7378 16.1827
" />
<path d="M62.7378 16.1827
L62.7378 16.8479
" />
<path d="M63.1611 16.0013
L63.6449 16.0013
" />
<path d="M63.3425 15.5779
L63.3425 16.6665
" />
<path d="M63.3425 16.6665
L63.4030 16.7875
" />
<path d="M63.4030 16.7875
L63.5240 16.8479
" />
<path d="M63.5240 16.8479
L63.6449 16.8479
" />
<path d="M64.6125 16.8479
L64.6125 16.1827
" />
<path d="M64.6125 16.1827
L64.5520 16.0617
" />
<path d="M64.5520 16.0617
L64.4311 16.0013
" />
<path d="M64.4311 16.0013
L64.1892 16.0013
" />
<path d="M64.1892 16.0013
L64.0682 16.0617
" />
<path d="M64.6125 16.7875
L64.4916 16.8479
" />
<path d="M64.4916 16.8479
L64.1892 16.8479
" />
<path d="M64.1892 16.8479
L64.0682 16.7875
" />
<path d="M64.0682 16.7875
L64.0078 16.6665
" />
<path d="M64.0078 16.6665
L64.0078 16.5455
" />
<path d="M64.0078 16.5455
L64.0682 16.4246
" />
<path d="M64.0682 16.4246
L64.1892 16.3641
" />
<path d="M64.1892 16.3641
L64.4916 16.3641
" />
<path d="M64.4916 16.3641
L64.6125 16.3036
" />
<path d="M65.0358 16.0013
L65.5196 16.0013
" />
<path d="M65.2172 15.5779
L65.2172 16.6665
" />
<path d="M65.2172 16.6665
L65.2777 16.7875
" />
<path d="M65.2777 16.7875
L65.3987 16.8479
" />
<path d="M65.3987 16.8479
L65.5196 16.8479
" />
<path d="M65.9429 16.8479
L65.9429 16.0013
" />
<path d="M65.9429 15.5779
L65.8825 15.6384
" />
<path d="M65.8825 15.6384
L65.9429 15.6989
" />
<path d="M65.9429 15.6989
L66.0034 15.6384
" />
<path d="M66.0034 15.6384
L65.9429 15.5779
" />
<path d="M65.9429 15.5779
L65.9429 15.6989
" />
<path d="M66.7292 16.8479
L66.6082 16.7875
" />
<path d="M66.6082 16.7875
L66.5477 16.7270
" />
<path d="M66.5477 16.7270
L66.4873 16.6060
" />
<path d="M66.4873 16.6060
L66.4873 16.2432
" />
<path d="M66.4873 16.2432
L66.5477 16.1222
" />
<path d="M66.5477 16.1222
L66.6082 16.0617
" />
<path d="M66.6082 16.0617
L66.7292 16.0013
" />
<path d="M66.7292 16.0013
L66.9106 16.0013
" />
<path d="M66.9106 16.0013
L67.0315 16.0617
" />
<path d="M67.0315 16.0617
L67.0920 16.1222
" />
<path d="M67.0920 16.1222
L67.1525 16.2432
" />
<path d="M67.1525 16.2432
L67.1525 16.6060
" />
<path d="M67.1525 16.6060
L67.0920 16.7270
" />
<path d="M67.0920 16.7270
L67.0315 16.7875
" />
<path d="M67.0315 16.7875
L66.9106 16.8479
" />
<path d="M66.9106 16.8479
L66.7292 16.8479
" />
<path d="M67.6967 16.0013
L67.6967 16.8479
" />
<path d="M67.6967 16.1222
L67.7572 16.0617
" />
<path d="M67.7572 16.0617
L67.8782 16.0013
" />
<path d="M67.8782 16.0013
L68.0596 16.0013
" />
<path d="M68.0596 16.0013
L68.1805 16.0617
" />
<path d="M68.1805 16.0617
L68.2410 16.1827
" />
<path d="M68.2410 16.1827
L68.2410 16.8479
" />
<path d="M69.7529 15.5175
L68.6643 17.1503
" />
<path d="M70.7205 16.8479
L70.7205 15.5779
" />
<path d="M70.7205 16.7875
L70.5996 16.8479
" />
<path d="M70.5996 16.8479
L70.3577 16.8479
" />
<path d="M70.3577 16.8479
L70.2367 16.7875
" />
<path d="M70.2367 16.7875
L70.1762 16.7270
" />
<path d="M70.1762 16.7270
L70.1158 16.6060
" />
<path d="M70.1158 16.6060
L70.1158 16.2432
" />
<path d="M70.1158 16.2432
L70.1762 16.1222
" />
<path d="M70.1762 16.1222
L70.2367 16.0617
" />
<path d="M70.2367 16.0617
L70.3577 16.0013
" />
<path d="M70.3577 16.0013
L70.5996 16.0013
" />
<path d="M70.5996 16.0013
L70.7205 16.0617
" />
<path d="M71.8695 16.8479
L71.8695 16.1827
" />
<path d="M71.8695 16.1827
L71.8090 16.0617
" />
<path d="M71.8090 16.0617
L71.6881 16.0013
" />
<path d="M71.6881 16.0013
L71.4462 16.0013
" />
<path d="M71.4462 16.0013
L71.3252 16.0617
" />
<path d="M71.8695 16.7875
L71.7486 16.8479
" />
<path d="M71.7486 16.8479
L71.4462 16.8479
" />
<path d="M71.4462 16.8479
L71.3252 16.7875
" />
<path d="M71.3252 16.7875
L71.2648 16.6665
" />
<path d="M71.2648 16.6665
L71.2648 16.5455
" />
<path d="M71.2648 16.5455
L71.3252 16.4246
" />
<path d="M71.3252 16.4246
L71.4462 16.3641
" />
<path d="M71.4462 16.3641
L71.7486 16.3641
" />
<path d="M71.7486 16.3641
L71.8695 16.3036
" />
<path d="M72.2928 16.0013
L72.7766 16.0013
" />
<path d="M72.4742 15.5779
L72.4742 16.6665
" />
<path d="M72.4742 16.6665
L72.5347 16.7875
" />
<path d="M72.5347 16.7875
L72.6557 16.8479
" />
<path d="M72.6557 16.8479
L72.7766 16.8479
" />
<path d="M73.7442 16.8479
L73.7442 16.1827
" />
<path d="M73.7442 16.1827
L73.6837 16.0617
" />
<path d="M73.6837 16.0617
L73.5628 16.0013
" />
<path d="M73.5628 16.0013
L73.3209 16.0013
" />
<path d="M73.3209 16.0013
L73.1999 16.0617
" />
<path d="M73.7442 16.7875
L73.6233 16.8479
" />
<path d="M73.6233 16.8479
L73.3209 16.8479
" />
<path d="M73.3209 16.8479
L73.1999 16.7875
" />
<path d="M73.1999 16.7875
L73.1395 16.6665
" />
<path d="M73.1395 16.6665
L73.1395 16.5455
" />
<path d="M73.1395 16.5455
L73.1999 16.4246
" />
<path d="M73.1999 16.4246
L73.3209 16.3641
" />
<path d="M73.3209 16.3641
L73.6233 16.3641
" />
<path d="M73.6233 16.3641
L73.7442 16.3036
" />
<path d="M74.3489 16.3641
L75.3166 16.3641
" />
<path d="M75.8609 16.7875
L75.9818 16.8479
" />
<path d="M75.9818 16.8479
L76.2237 16.8479
" />
<path d="M76.2237 16.8479
L76.3447 16.7875
" />
<path d="M76.3447 16.7875
L76.4051 16.6665
" />
<path d="M76.4051 16.6665
L76.4051 16.6060
" />
<path d="M76.4051 16.6060
L76.3447 16.4851
" />
<path d="M76.3447 16.4851
L76.2237 16.4246
" />
<path d="M76.2237 16.4246
L76.0423 16.4246
" />
<path d="M76.0423 16.4246
L75.9213 16.3641
" />
<path d="M75.9213 16.3641
L75.8609 16.2432
" />
<path d="M75.8609 16.2432
L75.8609 16.1827
" />
<path d="M75.8609 16.1827
L75.9213 16.0617
" />
<path d="M75.9213 16.0617
L76.0423 16.0013
" />
<path d="M76.0423 16.0013
L76.2237 16.0013
" />
<path d="M76.2237 16.0013
L76.3447 16.0617
" />
<path d="M76.9494 16.8479
L76.9494 15.5779
" />
<path d="M77.4937 16.8479
L77.4937 16.1827
" />
<path d="M77.4937 16.1827
L77.4332 16.0617
" />
<path d="M77.4332 16.0617
L77.3123 16.0013
" />
<path d="M77.3123 16.0013
L77.1309 16.0013
" />
<path d="M77.1309 16.0013
L77.0099 16.0617
" />
<path d="M77.0099 16.0617
L76.9494 16.1222
" />
<path d="M78.5822 16.7875
L78.4613 16.8479
" />
<path d="M78.4613 16.8479
L78.2194 16.8479
" />
<path d="M78.2194 16.8479
L78.0984 16.7875
" />
<path d="M78.0984 16.7875
L78.0380 16.6665
" />
<path d="M78.0380 16.6665
L78.0380 16.1827
" />
<path d="M78.0380 16.1827
L78.0984 16.0617
" />
<path d="M78.0984 16.0617
L78.2194 16.0013
" />
<path d="M78.2194 16.0013
L78.4613 16.0013
" />
<path d="M78.4613 16.0013
L78.5822 16.0617
" />
<path d="M78.5822 16.0617
L78.6427 16.1827
" />
<path d="M78.6427 16.1827
L78.6427 16.3036
" />
<path d="M78.6427 16.3036
L78.0380 16.4246
" />
<path d="M79.6708 16.7875
L79.5499 16.8479
" />
<path d="M79.5499 16.8479
L79.3080 16.8479
" />
<path d="M79.3080 16.8479
L79.1870 16.7875
" />
<path d="M79.1870 16.7875
L79.1266 16.6665
" />
<path d="M79.1266 16.6665
L79.1266 16.1827
" />
<path d="M79.1266 16.1827
L79.1870 16.0617
" />
<path d="M79.1870 16.0617
L79.3080 16.0013
" />
<path d="M79.3080 16.0013
L79.5499 16.0013
" />
<path d="M79.5499 16.0013
L79.6708 16.0617
" />
<path d="M79.6708 16.0617
L79.7313 16.1827
" />
<path d="M79.7313 16.1827
L79.7313 16.3036
" />
<path d="M79.7313 16.3036
L79.1266 16.4246
" />
<path d="M80.0942 16.0013
L80.5780 16.0013
" />
<path d="M80.2756 15.5779
L80.2756 16.6665
" />
<path d="M80.2756 16.6665
L80.3361 16.7875
" />
<path d="M80.3361 16.7875
L80.4571 16.8479
" />
<path d="M80.4571 16.8479
L80.5780 16.8479
" />
<path d="M80.9409 16.7875
L81.0618 16.8479
" />
<path d="M81.0618 16.8479
L81.3037 16.8479
" />
<path d="M81.3037 16.8479
L81.4247 16.7875
" />
<path d="M81.4247 16.7875
L81.4851 16.6665
" />
<path d="M81.4851 16.6665
L81.4851 16.6060
" />
<path d="M81.4851 16.6060
L81.4247 16.4851
" />
<path d="M81.4247 16.4851
L81.3037 16.4246
" />
<path d="M81.3037 16.4246
L81.1223 16.4246
" />
<path d="M81.1223 16.4246
L81.0013 16.3641
" />
<path d="M81.0013 16.3641
L80.9409 16.2432
" />
<path d="M80.9409 16.2432
L80.9409 16.1827
" />
<path d="M80.9409 16.1827
L81.0013 16.0617
" />
<path d="M81.0013 16.0617
L81.1223 16.0013
" />
<path d="M81.1223 16.0013
L81.3037 16.0013
" />
<path d="M81.3037 16.0013
L81.4247 16.0617
" />
<path d="M82.9366 15.5175
L81.8480 17.1503
" />
<path d="M84.0252 16.8479
L83.2995 16.8479
" />
<path d="M83.6623 16.8479
L83.6623 15.5779
" />
<path d="M83.6623 15.5779
L83.5414 15.7594
" />
<path d="M83.5414 15.7594
L83.4204 15.8803
" />
<path d="M83.4204 15.8803
L83.2995 15.9408
" />
<path d="M85.2347 16.8479
L84.5090 16.8479
" />
<path d="M84.8718 16.8479
L84.8718 15.5779
" />
<path d="M84.8718 15.5779
L84.7509 15.7594
" />
<path d="M84.7509 15.7594
L84.6299 15.8803
" />
<path d="M84.6299 15.8803
L84.5090 15.9408
" />
<path d="M85.7185 15.6989
L85.7789 15.6384
" />
<path d="M85.7789 15.6384
L85.8999 15.5779
" />
<path d="M85.8999 15.5779
L86.2023 15.5779
" />
<path d="M86.2023 15.5779
L86.3232 15.6384
" />
<path d="M86.3232 15.6384
L86.3837 15.6989
" />
<path d="M86.3837 15.6989
L86.4442 15.8198
" />
<path d="M86.4442 15.8198
L86.4442 15.9408
" />
<path d="M86.4442 15.9408
L86.3837 16.1222
" />
<path d="M86.3837 16.1222
L85.6580 16.8479
" />
<path d="M85.6580 16.8479
L86.4442 16.8479
" />
<path d="M87.0489 16.8479
L87.2908 16.8479
" />
<path d="M87.2908 16.8479
L87.4118 16.7875
" />
<path d="M87.4118 16.7875
L87.4722 16.7270
" />
<path d="M87.4722 16.7270
L87.5932 16.5455
" />
<path d="M87.5932 16.5455
L87.6537 16.3036
" />
<path d="M87.6537 16.3036
L87.6537 15.8198
" />
<path d="M87.6537 15.8198
L87.5932 15.6989
" />
<path d="M87.5932 15.6989
L87.5327 15.6384
" />
<path d="M87.5327 15.6384
L87.4118 15.5779
" />
<path d="M87.4118 15.5779
L87.1699 15.5779
" />
<path d="M87.1699 15.5779
L87.0489 15.6384
" />
<path d="M87.0489 15.6384
L86.9884 15.6989
" />
<path d="M86.9884 15.6989
L86.9280 15.8198
" />
<path d="M86.9280 15.8198
L86.9280 16.1222
" />
<path d="M86.9280 16.1222
L86.9884 16.2432
" />
<path d="M86.9884 16.2432
L87.0489 16.3036
" />
<path d="M87.0489 16.3036
L87.1699 16.3641
" />
<path d="M87.1699 16.3641
L87.4118 16.3641
" />
<path d="M87.4118 16.3641
L87.5327 16.3036
" />
<path d="M87.5327 16.3036
L87.5932 16.2432
" />
<path d="M87.5932 16.2432
L87.6537 16.1222
" />
<path d="M88.0770 15.5779
L88.8632 15.5779
" />
<path d="M88.8632 15.5779
L88.4398 16.0617
" />
<path d="M88.4398 16.0617
L88.6213 16.0617
" />
<path d="M88.6213 16.0617
L88.7422 16.1222
" />
<path d="M88.7422 16.1222
L88.8027 16.1827
" />
<path d="M88.8027 16.1827
L88.8632 16.3036
" />
<path d="M88.8632 16.3036
L88.8632 16.6060
" />
<path d="M88.8632 16.6060
L88.8027 16.7270
" />
<path d="M88.8027 16.7270
L88.7422 16.7875
" />
<path d="M88.7422 16.7875
L88.6213 16.8479
" />
<path d="M88.6213 16.8479
L88.2584 16.8479
" />
<path d="M88.2584 16.8479
L88.1375 16.7875
" />
<path d="M88.1375 16.7875
L88.0770 16.7270
" />
<path d="M90.0122 15.5779
L89.4074 15.5779
" />
<path d="M89.4074 15.5779
L89.3470 16.1827
" />
<path d="M89.3470 16.1827
L89.4074 16.1222
" />
<path d="M89.4074 16.1222
L89.5284 16.0617
" />
<path d="M89.5284 16.0617
L89.8308 16.0617
" />
<path d="M89.8308 16.0617
L89.9517 16.1222
" />
<path d="M89.9517 16.1222
L90.0122 16.1827
" />
<path d="M90.0122 16.1827
L90.0727 16.3036
" />
<path d="M90.0727 16.3036
L90.0727 16.6060
" />
<path d="M90.0727 16.6060
L90.0122 16.7270
" />
<path d="M90.0122 16.7270
L89.9517 16.7875
" />
<path d="M89.9517 16.7875
L89.8308 16.8479
" />
<path d="M89.8308 16.8479
L89.5284 16.8479
" />
<path d="M89.5284 16.8479
L89.4074 16.7875
" />
<path d="M89.4074 16.7875
L89.3470 16.7270
" />
<path d="M90.4355 16.0013
L90.9193 16.0013
" />
<path d="M90.6169 16.8479
L90.6169 15.7594
" />
<path d="M90.6169 15.7594
L90.6774 15.6384
" />
<path d="M90.6774 15.6384
L90.7984 15.5779
" />
<path d="M90.7984 15.5779
L90.9193 15.5779
" />
<path d="M91.1612 16.0013
L91.6450 16.0013
" />
<path d="M91.3426 16.8479
L91.3426 15.7594
" />
<path d="M91.3426 15.7594
L91.4031 15.6384
" />
<path d="M91.4031 15.6384
L91.5241 15.5779
" />
<path d="M91.5241 15.5779
L91.6450 15.5779
" />
<path d="M92.0683 16.7270
L92.1288 16.7875
" />
<path d="M92.1288 16.7875
L92.0683 16.8479
" />
<path d="M92.0683 16.8479
L92.0079 16.7875
" />
<path d="M92.0079 16.7875
L92.0683 16.7270
" />
<path d="M92.0683 16.7270
L92.0683 16.8479
" />
<path d="M92.6731 16.0013
L92.6731 17.2713
" />
<path d="M92.6731 16.0617
L92.7941 16.0013
" />
<path d="M92.7941 16.0013
L93.0360 16.0013
" />
<path d="M93.0360 16.0013
L93.1569 16.0617
" />
<path d="M93.1569 16.0617
L93.2174 16.1222
" />
<path d="M93.2174 16.1222
L93.2779 16.2432
" />
<path d="M93.2779 16.2432
L93.2779 16.6060
" />
<path d="M93.2779 16.6060
L93.2174 16.7270
" />
<path d="M93.2174 16.7270
L93.1569 16.7875
" />
<path d="M93.1569 16.7875
L93.0360 16.8479
" />
<path d="M93.0360 16.8479
L92.7941 16.8479
" />
<path d="M92.7941 16.8479
L92.6731 16.7875
" />
<path d="M94.3664 16.8479
L94.3664 15.5779
" />
<path d="M94.3664 16.7875
L94.2455 16.8479
" />
<path d="M94.2455 16.8479
L94.0036 16.8479
" />
<path d="M94.0036 16.8479
L93.8826 16.7875
" />
<path d="M93.8826 16.7875
L93.8221 16.7270
" />
<path d="M93.8221 16.7270
L93.7617 16.6060
" />
<path d="M93.7617 16.6060
L93.7617 16.2432
" />
<path d="M93.7617 16.2432
L93.8221 16.1222
" />
<path d="M93.8221 16.1222
L93.8826 16.0617
" />
<path d="M93.8826 16.0617
L94.0036 16.0013
" />
<path d="M94.0036 16.0013
L94.2455 16.0013
" />
<path d="M94.2455 16.0013
L94.3664 16.0617
" />
<path d="M94.7897 16.0013
L95.2735 16.0013
" />
<path d="M94.9711 16.8479
L94.9711 15.7594
" />
<path d="M94.9711 15.7594
L95.0316 15.6384
" />
<path d="M95.0316 15.6384
L95.1526 15.5779
" />
<path d="M95.1526 15.5779
L95.2735 15.5779
" />
</g></g> 
</svg>
