<?xml version="1.0" standalone="no"?>
 <!DOCTYPE svg PUBLIC "-//W3C//DTD SVG 1.1//EN" 
 "http://www.w3.org/Graphics/SVG/1.1/DTD/svg11.dtd"> 
<svg
  xmlns:svg="http://www.w3.org/2000/svg"
  xmlns="http://www.w3.org/2000/svg"
  xmlns:xlink="http://www.w3.org/1999/xlink"
  version="1.1"
  width="73.1266mm" height="7.0358mm" viewBox="0.0000 0.0000 73.1266 7.0358">
<title>SVG Image created as working.svg date 2023/08/31 13:37:54 </title>
  <desc>Image generated by Eeschema-SVG </desc>
<g style="fill:#000000; fill-opacity:1.0000;stroke:#000000; stroke-opacity:1.0000;
stroke-linecap:round; stroke-linejoin:round;"
 transform="translate(0 0) scale(1 1)">
</g>
<g style="fill:#840000; fill-opacity:0.0; 
stroke:#840000; stroke-width:0.0000; stroke-opacity:1; 
stroke-linecap:round; stroke-linejoin:round;">
</g>
<g style="fill:#840084; fill-opacity:0.0; 
stroke:#840084; stroke-width:0.0000; stroke-opacity:1; 
stroke-linecap:round; stroke-linejoin:round;">
</g>
<g style="fill:#840000; fill-opacity:0.0; 
stroke:#840000; stroke-width:0.0000; stroke-opacity:1; 
stroke-linecap:round; stroke-linejoin:round;">
</g>
<g style="fill:#840084; fill-opacity:0.0; 
stroke:#840084; stroke-width:0.0000; stroke-opacity:1; 
stroke-linecap:round; stroke-linejoin:round;">
</g>
<g style="fill:#006464; fill-opacity:0.0; 
stroke:#006464; stroke-width:0.0000; stroke-opacity:1; 
stroke-linecap:round; stroke-linejoin:round;">
</g>
<g style="fill:#006464; fill-opacity:0.0; 
stroke:#006464; stroke-width:0.1588; stroke-opacity:1; 
stroke-linecap:round; stroke-linejoin:round;">
<text x="13.7647" y="2.2419"
textLength="2.6415" font-size="1.6933" lengthAdjust="spacingAndGlyphs"
text-anchor="middle" opacity="0">Q?</text>
<g class="stroked-text"><desc>Q?</desc>
<path d="M13.7042 2.3071
L13.5832 2.2466
" />
<path d="M13.5832 2.2466
L13.4623 2.1257
" />
<path d="M13.4623 2.1257
L13.2809 1.9442
" />
<path d="M13.2809 1.9442
L13.1599 1.8837
" />
<path d="M13.1599 1.8837
L13.0390 1.8837
" />
<path d="M13.0994 2.1861
L12.9785 2.1257
" />
<path d="M12.9785 2.1257
L12.8575 2.0047
" />
<path d="M12.8575 2.0047
L12.7971 1.7628
" />
<path d="M12.7971 1.7628
L12.7971 1.3395
" />
<path d="M12.7971 1.3395
L12.8575 1.0976
" />
<path d="M12.8575 1.0976
L12.9785 0.9766
" />
<path d="M12.9785 0.9766
L13.0994 0.9161
" />
<path d="M13.0994 0.9161
L13.3413 0.9161
" />
<path d="M13.3413 0.9161
L13.4623 0.9766
" />
<path d="M13.4623 0.9766
L13.5832 1.0976
" />
<path d="M13.5832 1.0976
L13.6437 1.3395
" />
<path d="M13.6437 1.3395
L13.6437 1.7628
" />
<path d="M13.6437 1.7628
L13.5832 2.0047
" />
<path d="M13.5832 2.0047
L13.4623 2.1257
" />
<path d="M13.4623 2.1257
L13.3413 2.1861
" />
<path d="M13.3413 2.1861
L13.0994 2.1861
" />
<path d="M14.3695 2.0652
L14.4299 2.1257
" />
<path d="M14.4299 2.1257
L14.3695 2.1861
" />
<path d="M14.3695 2.1861
L14.3090 2.1257
" />
<path d="M14.3090 2.1257
L14.3695 2.0652
" />
<path d="M14.3695 2.0652
L14.3695 2.1861
" />
<path d="M14.1276 0.9766
L14.2485 0.9161
" />
<path d="M14.2485 0.9161
L14.5509 0.9161
" />
<path d="M14.5509 0.9161
L14.6718 0.9766
" />
<path d="M14.6718 0.9766
L14.7323 1.0976
" />
<path d="M14.7323 1.0976
L14.7323 1.2185
" />
<path d="M14.7323 1.2185
L14.6718 1.3395
" />
<path d="M14.6718 1.3395
L14.6114 1.3999
" />
<path d="M14.6114 1.3999
L14.4904 1.4604
" />
<path d="M14.4904 1.4604
L14.4299 1.5209
" />
<path d="M14.4299 1.5209
L14.3695 1.6418
" />
<path d="M14.3695 1.6418
L14.3695 1.7023
" />
</g><text x="16.4861" y="4.1469"
textLength="8.0843" font-size="1.6933" lengthAdjust="spacingAndGlyphs"
text-anchor="middle" opacity="0">IRLZ44N</text>
<g class="stroked-text"><desc>IRLZ44N</desc>
<path d="M12.8575 4.0911
L12.8575 2.8211
" />
<path d="M14.1880 4.0911
L13.7647 3.4864
" />
<path d="M13.4623 4.0911
L13.4623 2.8211
" />
<path d="M13.4623 2.8211
L13.9461 2.8211
" />
<path d="M13.9461 2.8211
L14.0671 2.8816
" />
<path d="M14.0671 2.8816
L14.1276 2.9421
" />
<path d="M14.1276 2.9421
L14.1880 3.0630
" />
<path d="M14.1880 3.0630
L14.1880 3.2445
" />
<path d="M14.1880 3.2445
L14.1276 3.3654
" />
<path d="M14.1276 3.3654
L14.0671 3.4259
" />
<path d="M14.0671 3.4259
L13.9461 3.4864
" />
<path d="M13.9461 3.4864
L13.4623 3.4864
" />
<path d="M15.3371 4.0911
L14.7323 4.0911
" />
<path d="M14.7323 4.0911
L14.7323 2.8211
" />
<path d="M15.6395 2.8211
L16.4861 2.8211
" />
<path d="M16.4861 2.8211
L15.6395 4.0911
" />
<path d="M15.6395 4.0911
L16.4861 4.0911
" />
<path d="M17.5142 3.2445
L17.5142 4.0911
" />
<path d="M17.2118 2.7607
L16.9095 3.6678
" />
<path d="M16.9095 3.6678
L17.6956 3.6678
" />
<path d="M18.7237 3.2445
L18.7237 4.0911
" />
<path d="M18.4213 2.7607
L18.1190 3.6678
" />
<path d="M18.1190 3.6678
L18.9051 3.6678
" />
<path d="M19.3889 4.0911
L19.3889 2.8211
" />
<path d="M19.3889 2.8211
L20.1146 4.0911
" />
<path d="M20.1146 4.0911
L20.1146 2.8211
" />
</g></g>
<g style="fill:#840084; fill-opacity:0.0; 
stroke:#840084; stroke-width:0.1588; stroke-opacity:1; 
stroke-linecap:round; stroke-linejoin:round;">
<text x="32.0284" y="6.0519"
textLength="39.1689" font-size="1.6933" lengthAdjust="spacingAndGlyphs"
text-anchor="middle" opacity="0">Package_TO_SOT_THT:TO-220-3_Vertical</text>
<g class="stroked-text"><desc>Package_TO_SOT_THT:TO-220-3_Vertical</desc>
<path d="M12.8500 5.9961
L13.0087 4.7261
" />
<path d="M13.0087 4.7261
L13.4925 4.7261
" />
<path d="M13.4925 4.7261
L13.6059 4.7866
" />
<path d="M13.6059 4.7866
L13.6588 4.8471
" />
<path d="M13.6588 4.8471
L13.7042 4.9680
" />
<path d="M13.7042 4.9680
L13.6815 5.1495
" />
<path d="M13.6815 5.1495
L13.6059 5.2704
" />
<path d="M13.6059 5.2704
L13.5379 5.3309
" />
<path d="M13.5379 5.3309
L13.4094 5.3914
" />
<path d="M13.4094 5.3914
L12.9256 5.3914
" />
<path d="M14.6643 5.9961
L14.7474 5.3309
" />
<path d="M14.7474 5.3309
L14.7021 5.2099
" />
<path d="M14.7021 5.2099
L14.5887 5.1495
" />
<path d="M14.5887 5.1495
L14.3468 5.1495
" />
<path d="M14.3468 5.1495
L14.2182 5.2099
" />
<path d="M14.6718 5.9357
L14.5433 5.9961
" />
<path d="M14.5433 5.9961
L14.2409 5.9961
" />
<path d="M14.2409 5.9961
L14.1275 5.9357
" />
<path d="M14.1275 5.9357
L14.0822 5.8147
" />
<path d="M14.0822 5.8147
L14.0973 5.6937
" />
<path d="M14.0973 5.6937
L14.1729 5.5728
" />
<path d="M14.1729 5.5728
L14.3014 5.5123
" />
<path d="M14.3014 5.5123
L14.6038 5.5123
" />
<path d="M14.6038 5.5123
L14.7323 5.4518
" />
<path d="M15.8208 5.9357
L15.6923 5.9961
" />
<path d="M15.6923 5.9961
L15.4504 5.9961
" />
<path d="M15.4504 5.9961
L15.3370 5.9357
" />
<path d="M15.3370 5.9357
L15.2841 5.8752
" />
<path d="M15.2841 5.8752
L15.2387 5.7542
" />
<path d="M15.2387 5.7542
L15.2841 5.3914
" />
<path d="M15.2841 5.3914
L15.3597 5.2704
" />
<path d="M15.3597 5.2704
L15.4277 5.2099
" />
<path d="M15.4277 5.2099
L15.5562 5.1495
" />
<path d="M15.5562 5.1495
L15.7981 5.1495
" />
<path d="M15.7981 5.1495
L15.9115 5.2099
" />
<path d="M16.3576 5.9961
L16.5163 4.7261
" />
<path d="M16.5390 5.5123
L16.8414 5.9961
" />
<path d="M16.9472 5.1495
L16.4029 5.6333
" />
<path d="M17.9300 5.9961
L18.0131 5.3309
" />
<path d="M18.0131 5.3309
L17.9678 5.2099
" />
<path d="M17.9678 5.2099
L17.8544 5.1495
" />
<path d="M17.8544 5.1495
L17.6125 5.1495
" />
<path d="M17.6125 5.1495
L17.4839 5.2099
" />
<path d="M17.9375 5.9357
L17.8090 5.9961
" />
<path d="M17.8090 5.9961
L17.5066 5.9961
" />
<path d="M17.5066 5.9961
L17.3932 5.9357
" />
<path d="M17.3932 5.9357
L17.3479 5.8147
" />
<path d="M17.3479 5.8147
L17.3630 5.6937
" />
<path d="M17.3630 5.6937
L17.4386 5.5728
" />
<path d="M17.4386 5.5728
L17.5671 5.5123
" />
<path d="M17.5671 5.5123
L17.8695 5.5123
" />
<path d="M17.8695 5.5123
L17.9980 5.4518
" />
<path d="M19.1848 5.1495
L19.0563 6.1776
" />
<path d="M19.0563 6.1776
L18.9807 6.2985
" />
<path d="M18.9807 6.2985
L18.9126 6.3590
" />
<path d="M18.9126 6.3590
L18.7841 6.4195
" />
<path d="M18.7841 6.4195
L18.6027 6.4195
" />
<path d="M18.6027 6.4195
L18.4893 6.3590
" />
<path d="M19.0865 5.9357
L18.9580 5.9961
" />
<path d="M18.9580 5.9961
L18.7161 5.9961
" />
<path d="M18.7161 5.9961
L18.6027 5.9357
" />
<path d="M18.6027 5.9357
L18.5498 5.8752
" />
<path d="M18.5498 5.8752
L18.5044 5.7542
" />
<path d="M18.5044 5.7542
L18.5498 5.3914
" />
<path d="M18.5498 5.3914
L18.6254 5.2704
" />
<path d="M18.6254 5.2704
L18.6934 5.2099
" />
<path d="M18.6934 5.2099
L18.8219 5.1495
" />
<path d="M18.8219 5.1495
L19.0638 5.1495
" />
<path d="M19.0638 5.1495
L19.1772 5.2099
" />
<path d="M20.1750 5.9357
L20.0465 5.9961
" />
<path d="M20.0465 5.9961
L19.8046 5.9961
" />
<path d="M19.8046 5.9961
L19.6912 5.9357
" />
<path d="M19.6912 5.9357
L19.6459 5.8147
" />
<path d="M19.6459 5.8147
L19.7064 5.3309
" />
<path d="M19.7064 5.3309
L19.7819 5.2099
" />
<path d="M19.7819 5.2099
L19.9105 5.1495
" />
<path d="M19.9105 5.1495
L20.1524 5.1495
" />
<path d="M20.1524 5.1495
L20.2658 5.2099
" />
<path d="M20.2658 5.2099
L20.3111 5.3309
" />
<path d="M20.3111 5.3309
L20.2960 5.4518
" />
<path d="M20.2960 5.4518
L19.6761 5.5728
" />
<path d="M20.4548 6.1171
L21.4224 6.1171
" />
<path d="M21.7172 4.7261
L22.4429 4.7261
" />
<path d="M21.9213 5.9961
L22.0801 4.7261
" />
<path d="M23.1081 4.7261
L23.3500 4.7261
" />
<path d="M23.3500 4.7261
L23.4634 4.7866
" />
<path d="M23.4634 4.7866
L23.5693 4.9076
" />
<path d="M23.5693 4.9076
L23.5995 5.1495
" />
<path d="M23.5995 5.1495
L23.5466 5.5728
" />
<path d="M23.5466 5.5728
L23.4559 5.8147
" />
<path d="M23.4559 5.8147
L23.3198 5.9357
" />
<path d="M23.3198 5.9357
L23.1913 5.9961
" />
<path d="M23.1913 5.9961
L22.9494 5.9961
" />
<path d="M22.9494 5.9961
L22.8360 5.9357
" />
<path d="M22.8360 5.9357
L22.7302 5.8147
" />
<path d="M22.7302 5.8147
L22.6999 5.5728
" />
<path d="M22.6999 5.5728
L22.7528 5.1495
" />
<path d="M22.7528 5.1495
L22.8435 4.9076
" />
<path d="M22.8435 4.9076
L22.9796 4.7866
" />
<path d="M22.9796 4.7866
L23.1081 4.7261
" />
<path d="M23.7205 6.1171
L24.6881 6.1171
" />
<path d="M24.9527 5.9357
L25.1265 5.9961
" />
<path d="M25.1265 5.9961
L25.4289 5.9961
" />
<path d="M25.4289 5.9961
L25.5574 5.9357
" />
<path d="M25.5574 5.9357
L25.6255 5.8752
" />
<path d="M25.6255 5.8752
L25.7010 5.7542
" />
<path d="M25.7010 5.7542
L25.7162 5.6333
" />
<path d="M25.7162 5.6333
L25.6708 5.5123
" />
<path d="M25.6708 5.5123
L25.6179 5.4518
" />
<path d="M25.6179 5.4518
L25.5045 5.3914
" />
<path d="M25.5045 5.3914
L25.2702 5.3309
" />
<path d="M25.2702 5.3309
L25.1568 5.2704
" />
<path d="M25.1568 5.2704
L25.1038 5.2099
" />
<path d="M25.1038 5.2099
L25.0585 5.0890
" />
<path d="M25.0585 5.0890
L25.0736 4.9680
" />
<path d="M25.0736 4.9680
L25.1492 4.8471
" />
<path d="M25.1492 4.8471
L25.2172 4.7866
" />
<path d="M25.2172 4.7866
L25.3458 4.7261
" />
<path d="M25.3458 4.7261
L25.6481 4.7261
" />
<path d="M25.6481 4.7261
L25.8220 4.7866
" />
<path d="M26.6157 4.7261
L26.8576 4.7261
" />
<path d="M26.8576 4.7261
L26.9710 4.7866
" />
<path d="M26.9710 4.7866
L27.0769 4.9076
" />
<path d="M27.0769 4.9076
L27.1071 5.1495
" />
<path d="M27.1071 5.1495
L27.0542 5.5728
" />
<path d="M27.0542 5.5728
L26.9635 5.8147
" />
<path d="M26.9635 5.8147
L26.8274 5.9357
" />
<path d="M26.8274 5.9357
L26.6989 5.9961
" />
<path d="M26.6989 5.9961
L26.4570 5.9961
" />
<path d="M26.4570 5.9961
L26.3436 5.9357
" />
<path d="M26.3436 5.9357
L26.2378 5.8147
" />
<path d="M26.2378 5.8147
L26.2075 5.5728
" />
<path d="M26.2075 5.5728
L26.2604 5.1495
" />
<path d="M26.2604 5.1495
L26.3511 4.9076
" />
<path d="M26.3511 4.9076
L26.4872 4.7866
" />
<path d="M26.4872 4.7866
L26.6157 4.7261
" />
<path d="M27.5229 4.7261
L28.2486 4.7261
" />
<path d="M27.7270 5.9961
L27.8858 4.7261
" />
<path d="M28.1957 6.1171
L29.1633 6.1171
" />
<path d="M29.4581 4.7261
L30.1838 4.7261
" />
<path d="M29.6622 5.9961
L29.8210 4.7261
" />
<path d="M30.4484 5.9961
L30.6071 4.7261
" />
<path d="M30.5315 5.3309
L31.2572 5.3309
" />
<path d="M31.1741 5.9961
L31.3328 4.7261
" />
<path d="M31.7562 4.7261
L32.4819 4.7261
" />
<path d="M31.9603 5.9961
L32.1191 4.7261
" />
<path d="M32.7616 5.8752
L32.8145 5.9357
" />
<path d="M32.8145 5.9357
L32.7465 5.9961
" />
<path d="M32.7465 5.9961
L32.6936 5.9357
" />
<path d="M32.6936 5.9357
L32.7616 5.8752
" />
<path d="M32.7616 5.8752
L32.7465 5.9961
" />
<path d="M32.8447 5.2099
L32.8977 5.2704
" />
<path d="M32.8977 5.2704
L32.8296 5.3309
" />
<path d="M32.8296 5.3309
L32.7767 5.2704
" />
<path d="M32.7767 5.2704
L32.8447 5.2099
" />
<path d="M32.8447 5.2099
L32.8296 5.3309
" />
<path d="M33.3286 4.7261
L34.0543 4.7261
" />
<path d="M33.5327 5.9961
L33.6915 4.7261
" />
<path d="M34.7195 4.7261
L34.9614 4.7261
" />
<path d="M34.9614 4.7261
L35.0748 4.7866
" />
<path d="M35.0748 4.7866
L35.1807 4.9076
" />
<path d="M35.1807 4.9076
L35.2109 5.1495
" />
<path d="M35.2109 5.1495
L35.1580 5.5728
" />
<path d="M35.1580 5.5728
L35.0673 5.8147
" />
<path d="M35.0673 5.8147
L34.9312 5.9357
" />
<path d="M34.9312 5.9357
L34.8027 5.9961
" />
<path d="M34.8027 5.9961
L34.5608 5.9961
" />
<path d="M34.5608 5.9961
L34.4474 5.9357
" />
<path d="M34.4474 5.9357
L34.3416 5.8147
" />
<path d="M34.3416 5.8147
L34.3113 5.5728
" />
<path d="M34.3113 5.5728
L34.3642 5.1495
" />
<path d="M34.3642 5.1495
L34.4549 4.9076
" />
<path d="M34.4549 4.9076
L34.5910 4.7866
" />
<path d="M34.5910 4.7866
L34.7195 4.7261
" />
<path d="M35.7098 5.5123
L36.6775 5.5123
" />
<path d="M37.3049 4.8471
L37.3730 4.7866
" />
<path d="M37.3730 4.7866
L37.5015 4.7261
" />
<path d="M37.5015 4.7261
L37.8039 4.7261
" />
<path d="M37.8039 4.7261
L37.9172 4.7866
" />
<path d="M37.9172 4.7866
L37.9702 4.8471
" />
<path d="M37.9702 4.8471
L38.0155 4.9680
" />
<path d="M38.0155 4.9680
L38.0004 5.0890
" />
<path d="M38.0004 5.0890
L37.9172 5.2704
" />
<path d="M37.9172 5.2704
L37.1008 5.9961
" />
<path d="M37.1008 5.9961
L37.8870 5.9961
" />
<path d="M38.5144 4.8471
L38.5825 4.7866
" />
<path d="M38.5825 4.7866
L38.7110 4.7261
" />
<path d="M38.7110 4.7261
L39.0134 4.7261
" />
<path d="M39.0134 4.7261
L39.1267 4.7866
" />
<path d="M39.1267 4.7866
L39.1797 4.8471
" />
<path d="M39.1797 4.8471
L39.2250 4.9680
" />
<path d="M39.2250 4.9680
L39.2099 5.0890
" />
<path d="M39.2099 5.0890
L39.1267 5.2704
" />
<path d="M39.1267 5.2704
L38.3103 5.9961
" />
<path d="M38.3103 5.9961
L39.0965 5.9961
" />
<path d="M40.0414 4.7261
L40.1624 4.7261
" />
<path d="M40.1624 4.7261
L40.2758 4.7866
" />
<path d="M40.2758 4.7866
L40.3287 4.8471
" />
<path d="M40.3287 4.8471
L40.3740 4.9680
" />
<path d="M40.3740 4.9680
L40.4043 5.2099
" />
<path d="M40.4043 5.2099
L40.3665 5.5123
" />
<path d="M40.3665 5.5123
L40.2758 5.7542
" />
<path d="M40.2758 5.7542
L40.2002 5.8752
" />
<path d="M40.2002 5.8752
L40.1321 5.9357
" />
<path d="M40.1321 5.9357
L40.0036 5.9961
" />
<path d="M40.0036 5.9961
L39.8827 5.9961
" />
<path d="M39.8827 5.9961
L39.7693 5.9357
" />
<path d="M39.7693 5.9357
L39.7164 5.8752
" />
<path d="M39.7164 5.8752
L39.6710 5.7542
" />
<path d="M39.6710 5.7542
L39.6408 5.5123
" />
<path d="M39.6408 5.5123
L39.6786 5.2099
" />
<path d="M39.6786 5.2099
L39.7693 4.9680
" />
<path d="M39.7693 4.9680
L39.8449 4.8471
" />
<path d="M39.8449 4.8471
L39.9129 4.7866
" />
<path d="M39.9129 4.7866
L40.0414 4.7261
" />
<path d="M40.9107 5.5123
L41.8784 5.5123
" />
<path d="M42.4605 4.7261
L43.2467 4.7261
" />
<path d="M43.2467 4.7261
L42.7629 5.2099
" />
<path d="M42.7629 5.2099
L42.9443 5.2099
" />
<path d="M42.9443 5.2099
L43.0577 5.2704
" />
<path d="M43.0577 5.2704
L43.1106 5.3309
" />
<path d="M43.1106 5.3309
L43.1559 5.4518
" />
<path d="M43.1559 5.4518
L43.1181 5.7542
" />
<path d="M43.1181 5.7542
L43.0426 5.8752
" />
<path d="M43.0426 5.8752
L42.9745 5.9357
" />
<path d="M42.9745 5.9357
L42.8460 5.9961
" />
<path d="M42.8460 5.9961
L42.4831 5.9961
" />
<path d="M42.4831 5.9961
L42.3698 5.9357
" />
<path d="M42.3698 5.9357
L42.3168 5.8752
" />
<path d="M43.3147 6.1171
L44.2823 6.1171
" />
<path d="M44.5771 4.7261
L44.8417 5.9961
" />
<path d="M44.8417 5.9961
L45.4238 4.7261
" />
<path d="M46.1797 5.9357
L46.0512 5.9961
" />
<path d="M46.0512 5.9961
L45.8093 5.9961
" />
<path d="M45.8093 5.9961
L45.6959 5.9357
" />
<path d="M45.6959 5.9357
L45.6506 5.8147
" />
<path d="M45.6506 5.8147
L45.7111 5.3309
" />
<path d="M45.7111 5.3309
L45.7866 5.2099
" />
<path d="M45.7866 5.2099
L45.9152 5.1495
" />
<path d="M45.9152 5.1495
L46.1571 5.1495
" />
<path d="M46.1571 5.1495
L46.2705 5.2099
" />
<path d="M46.2705 5.2099
L46.3158 5.3309
" />
<path d="M46.3158 5.3309
L46.3007 5.4518
" />
<path d="M46.3007 5.4518
L45.6808 5.5728
" />
<path d="M46.7770 5.9961
L46.8828 5.1495
" />
<path d="M46.8526 5.3914
L46.9282 5.2704
" />
<path d="M46.9282 5.2704
L46.9962 5.2099
" />
<path d="M46.9962 5.2099
L47.1247 5.1495
" />
<path d="M47.1247 5.1495
L47.2457 5.1495
" />
<path d="M47.4876 5.1495
L47.9714 5.1495
" />
<path d="M47.7219 4.7261
L47.5859 5.8147
" />
<path d="M47.5859 5.8147
L47.6312 5.9357
" />
<path d="M47.6312 5.9357
L47.7446 5.9961
" />
<path d="M47.7446 5.9961
L47.8656 5.9961
" />
<path d="M48.2889 5.9961
L48.3947 5.1495
" />
<path d="M48.4476 4.7261
L48.3796 4.7866
" />
<path d="M48.3796 4.7866
L48.4325 4.8471
" />
<path d="M48.4325 4.8471
L48.5005 4.7866
" />
<path d="M48.5005 4.7866
L48.4476 4.7261
" />
<path d="M48.4476 4.7261
L48.4325 4.8471
" />
<path d="M49.4455 5.9357
L49.3170 5.9961
" />
<path d="M49.3170 5.9961
L49.0751 5.9961
" />
<path d="M49.0751 5.9961
L48.9617 5.9357
" />
<path d="M48.9617 5.9357
L48.9088 5.8752
" />
<path d="M48.9088 5.8752
L48.8634 5.7542
" />
<path d="M48.8634 5.7542
L48.9088 5.3914
" />
<path d="M48.9088 5.3914
L48.9844 5.2704
" />
<path d="M48.9844 5.2704
L49.0524 5.2099
" />
<path d="M49.0524 5.2099
L49.1809 5.1495
" />
<path d="M49.1809 5.1495
L49.4228 5.1495
" />
<path d="M49.4228 5.1495
L49.5362 5.2099
" />
<path d="M50.5266 5.9961
L50.6097 5.3309
" />
<path d="M50.6097 5.3309
L50.5644 5.2099
" />
<path d="M50.5644 5.2099
L50.4510 5.1495
" />
<path d="M50.4510 5.1495
L50.2091 5.1495
" />
<path d="M50.2091 5.1495
L50.0805 5.2099
" />
<path d="M50.5341 5.9357
L50.4056 5.9961
" />
<path d="M50.4056 5.9961
L50.1032 5.9961
" />
<path d="M50.1032 5.9961
L49.9898 5.9357
" />
<path d="M49.9898 5.9357
L49.9445 5.8147
" />
<path d="M49.9445 5.8147
L49.9596 5.6937
" />
<path d="M49.9596 5.6937
L50.0352 5.5728
" />
<path d="M50.0352 5.5728
L50.1637 5.5123
" />
<path d="M50.1637 5.5123
L50.4661 5.5123
" />
<path d="M50.4661 5.5123
L50.5946 5.4518
" />
<path d="M51.3127 5.9961
L51.1993 5.9357
" />
<path d="M51.1993 5.9357
L51.1540 5.8147
" />
<path d="M51.1540 5.8147
L51.2900 4.7261
" />
</g><text x="36.5640" y="4.1469"
textLength="60.9400" font-size="1.6933" lengthAdjust="spacingAndGlyphs"
text-anchor="middle" opacity="0">http://www.irf.com/product-info/datasheets/data/irlz44n.pdf</text>
<g class="stroked-text"><desc>http://www.irf.com/product-info/datasheets/data/irlz44n.pdf</desc>
<path d="M6.5075 4.0911
L6.5075 2.8211
" />
<path d="M7.0518 4.0911
L7.0518 3.4259
" />
<path d="M7.0518 3.4259
L6.9913 3.3049
" />
<path d="M6.9913 3.3049
L6.8704 3.2445
" />
<path d="M6.8704 3.2445
L6.6890 3.2445
" />
<path d="M6.6890 3.2445
L6.5680 3.3049
" />
<path d="M6.5680 3.3049
L6.5075 3.3654
" />
<path d="M7.4751 3.2445
L7.9589 3.2445
" />
<path d="M7.6565 2.8211
L7.6565 3.9097
" />
<path d="M7.6565 3.9097
L7.7170 4.0307
" />
<path d="M7.7170 4.0307
L7.8380 4.0911
" />
<path d="M7.8380 4.0911
L7.9589 4.0911
" />
<path d="M8.2008 3.2445
L8.6846 3.2445
" />
<path d="M8.3822 2.8211
L8.3822 3.9097
" />
<path d="M8.3822 3.9097
L8.4427 4.0307
" />
<path d="M8.4427 4.0307
L8.5637 4.0911
" />
<path d="M8.5637 4.0911
L8.6846 4.0911
" />
<path d="M9.1079 3.2445
L9.1079 4.5145
" />
<path d="M9.1079 3.3049
L9.2289 3.2445
" />
<path d="M9.2289 3.2445
L9.4708 3.2445
" />
<path d="M9.4708 3.2445
L9.5917 3.3049
" />
<path d="M9.5917 3.3049
L9.6522 3.3654
" />
<path d="M9.6522 3.3654
L9.7127 3.4864
" />
<path d="M9.7127 3.4864
L9.7127 3.8492
" />
<path d="M9.7127 3.8492
L9.6522 3.9702
" />
<path d="M9.6522 3.9702
L9.5917 4.0307
" />
<path d="M9.5917 4.0307
L9.4708 4.0911
" />
<path d="M9.4708 4.0911
L9.2289 4.0911
" />
<path d="M9.2289 4.0911
L9.1079 4.0307
" />
<path d="M10.2569 3.9702
L10.3174 4.0307
" />
<path d="M10.3174 4.0307
L10.2569 4.0911
" />
<path d="M10.2569 4.0911
L10.1965 4.0307
" />
<path d="M10.1965 4.0307
L10.2569 3.9702
" />
<path d="M10.2569 3.9702
L10.2569 4.0911
" />
<path d="M10.2569 3.3049
L10.3174 3.3654
" />
<path d="M10.3174 3.3654
L10.2569 3.4259
" />
<path d="M10.2569 3.4259
L10.1965 3.3654
" />
<path d="M10.1965 3.3654
L10.2569 3.3049
" />
<path d="M10.2569 3.3049
L10.2569 3.4259
" />
<path d="M11.7689 2.7607
L10.6803 4.3935
" />
<path d="M13.0994 2.7607
L12.0108 4.3935
" />
<path d="M13.4018 3.2445
L13.6437 4.0911
" />
<path d="M13.6437 4.0911
L13.8856 3.4864
" />
<path d="M13.8856 3.4864
L14.1275 4.0911
" />
<path d="M14.1275 4.0911
L14.3694 3.2445
" />
<path d="M14.7323 3.2445
L14.9742 4.0911
" />
<path d="M14.9742 4.0911
L15.2161 3.4864
" />
<path d="M15.2161 3.4864
L15.4580 4.0911
" />
<path d="M15.4580 4.0911
L15.6999 3.2445
" />
<path d="M16.0628 3.2445
L16.3047 4.0911
" />
<path d="M16.3047 4.0911
L16.5466 3.4864
" />
<path d="M16.5466 3.4864
L16.7885 4.0911
" />
<path d="M16.7885 4.0911
L17.0304 3.2445
" />
<path d="M17.5142 3.9702
L17.5747 4.0307
" />
<path d="M17.5747 4.0307
L17.5142 4.0911
" />
<path d="M17.5142 4.0911
L17.4538 4.0307
" />
<path d="M17.4538 4.0307
L17.5142 3.9702
" />
<path d="M17.5142 3.9702
L17.5142 4.0911
" />
<path d="M18.1190 4.0911
L18.1190 3.2445
" />
<path d="M18.1190 2.8211
L18.0586 2.8816
" />
<path d="M18.0586 2.8816
L18.1190 2.9421
" />
<path d="M18.1190 2.9421
L18.1795 2.8816
" />
<path d="M18.1795 2.8816
L18.1190 2.8211
" />
<path d="M18.1190 2.8211
L18.1190 2.9421
" />
<path d="M18.7238 4.0911
L18.7238 3.2445
" />
<path d="M18.7238 3.4864
L18.7843 3.3654
" />
<path d="M18.7843 3.3654
L18.8448 3.3049
" />
<path d="M18.8448 3.3049
L18.9657 3.2445
" />
<path d="M18.9657 3.2445
L19.0867 3.2445
" />
<path d="M19.3286 3.2445
L19.8124 3.2445
" />
<path d="M19.5100 4.0911
L19.5100 3.0026
" />
<path d="M19.5100 3.0026
L19.5705 2.8816
" />
<path d="M19.5705 2.8816
L19.6915 2.8211
" />
<path d="M19.6915 2.8211
L19.8124 2.8211
" />
<path d="M20.2357 3.9702
L20.2962 4.0307
" />
<path d="M20.2962 4.0307
L20.2357 4.0911
" />
<path d="M20.2357 4.0911
L20.1753 4.0307
" />
<path d="M20.1753 4.0307
L20.2357 3.9702
" />
<path d="M20.2357 3.9702
L20.2357 4.0911
" />
<path d="M21.3848 4.0307
L21.2639 4.0911
" />
<path d="M21.2639 4.0911
L21.0220 4.0911
" />
<path d="M21.0220 4.0911
L20.9010 4.0307
" />
<path d="M20.9010 4.0307
L20.8405 3.9702
" />
<path d="M20.8405 3.9702
L20.7801 3.8492
" />
<path d="M20.7801 3.8492
L20.7801 3.4864
" />
<path d="M20.7801 3.4864
L20.8405 3.3654
" />
<path d="M20.8405 3.3654
L20.9010 3.3049
" />
<path d="M20.9010 3.3049
L21.0220 3.2445
" />
<path d="M21.0220 3.2445
L21.2639 3.2445
" />
<path d="M21.2639 3.2445
L21.3848 3.3049
" />
<path d="M22.1106 4.0911
L21.9896 4.0307
" />
<path d="M21.9896 4.0307
L21.9291 3.9702
" />
<path d="M21.9291 3.9702
L21.8687 3.8492
" />
<path d="M21.8687 3.8492
L21.8687 3.4864
" />
<path d="M21.8687 3.4864
L21.9291 3.3654
" />
<path d="M21.9291 3.3654
L21.9896 3.3049
" />
<path d="M21.9896 3.3049
L22.1106 3.2445
" />
<path d="M22.1106 3.2445
L22.2920 3.2445
" />
<path d="M22.2920 3.2445
L22.4129 3.3049
" />
<path d="M22.4129 3.3049
L22.4734 3.3654
" />
<path d="M22.4734 3.3654
L22.5339 3.4864
" />
<path d="M22.5339 3.4864
L22.5339 3.8492
" />
<path d="M22.5339 3.8492
L22.4734 3.9702
" />
<path d="M22.4734 3.9702
L22.4129 4.0307
" />
<path d="M22.4129 4.0307
L22.2920 4.0911
" />
<path d="M22.2920 4.0911
L22.1106 4.0911
" />
<path d="M23.0781 4.0911
L23.0781 3.2445
" />
<path d="M23.0781 3.3654
L23.1386 3.3049
" />
<path d="M23.1386 3.3049
L23.2596 3.2445
" />
<path d="M23.2596 3.2445
L23.4410 3.2445
" />
<path d="M23.4410 3.2445
L23.5619 3.3049
" />
<path d="M23.5619 3.3049
L23.6224 3.4259
" />
<path d="M23.6224 3.4259
L23.6224 4.0911
" />
<path d="M23.6224 3.4259
L23.6829 3.3049
" />
<path d="M23.6829 3.3049
L23.8038 3.2445
" />
<path d="M23.8038 3.2445
L23.9853 3.2445
" />
<path d="M23.9853 3.2445
L24.1062 3.3049
" />
<path d="M24.1062 3.3049
L24.1667 3.4259
" />
<path d="M24.1667 3.4259
L24.1667 4.0911
" />
<path d="M25.6786 2.7607
L24.5900 4.3935
" />
<path d="M26.1019 3.2445
L26.1019 4.5145
" />
<path d="M26.1019 3.3049
L26.2229 3.2445
" />
<path d="M26.2229 3.2445
L26.4648 3.2445
" />
<path d="M26.4648 3.2445
L26.5857 3.3049
" />
<path d="M26.5857 3.3049
L26.6462 3.3654
" />
<path d="M26.6462 3.3654
L26.7067 3.4864
" />
<path d="M26.7067 3.4864
L26.7067 3.8492
" />
<path d="M26.7067 3.8492
L26.6462 3.9702
" />
<path d="M26.6462 3.9702
L26.5857 4.0307
" />
<path d="M26.5857 4.0307
L26.4648 4.0911
" />
<path d="M26.4648 4.0911
L26.2229 4.0911
" />
<path d="M26.2229 4.0911
L26.1019 4.0307
" />
<path d="M27.2509 4.0911
L27.2509 3.2445
" />
<path d="M27.2509 3.4864
L27.3114 3.3654
" />
<path d="M27.3114 3.3654
L27.3719 3.3049
" />
<path d="M27.3719 3.3049
L27.4928 3.2445
" />
<path d="M27.4928 3.2445
L27.6138 3.2445
" />
<path d="M28.2186 4.0911
L28.0976 4.0307
" />
<path d="M28.0976 4.0307
L28.0371 3.9702
" />
<path d="M28.0371 3.9702
L27.9767 3.8492
" />
<path d="M27.9767 3.8492
L27.9767 3.4864
" />
<path d="M27.9767 3.4864
L28.0371 3.3654
" />
<path d="M28.0371 3.3654
L28.0976 3.3049
" />
<path d="M28.0976 3.3049
L28.2186 3.2445
" />
<path d="M28.2186 3.2445
L28.4000 3.2445
" />
<path d="M28.4000 3.2445
L28.5209 3.3049
" />
<path d="M28.5209 3.3049
L28.5814 3.3654
" />
<path d="M28.5814 3.3654
L28.6419 3.4864
" />
<path d="M28.6419 3.4864
L28.6419 3.8492
" />
<path d="M28.6419 3.8492
L28.5814 3.9702
" />
<path d="M28.5814 3.9702
L28.5209 4.0307
" />
<path d="M28.5209 4.0307
L28.4000 4.0911
" />
<path d="M28.4000 4.0911
L28.2186 4.0911
" />
<path d="M29.7304 4.0911
L29.7304 2.8211
" />
<path d="M29.7304 4.0307
L29.6095 4.0911
" />
<path d="M29.6095 4.0911
L29.3676 4.0911
" />
<path d="M29.3676 4.0911
L29.2466 4.0307
" />
<path d="M29.2466 4.0307
L29.1861 3.9702
" />
<path d="M29.1861 3.9702
L29.1257 3.8492
" />
<path d="M29.1257 3.8492
L29.1257 3.4864
" />
<path d="M29.1257 3.4864
L29.1861 3.3654
" />
<path d="M29.1861 3.3654
L29.2466 3.3049
" />
<path d="M29.2466 3.3049
L29.3676 3.2445
" />
<path d="M29.3676 3.2445
L29.6095 3.2445
" />
<path d="M29.6095 3.2445
L29.7304 3.3049
" />
<path d="M30.8794 3.2445
L30.8794 4.0911
" />
<path d="M30.3351 3.2445
L30.3351 3.9097
" />
<path d="M30.3351 3.9097
L30.3956 4.0307
" />
<path d="M30.3956 4.0307
L30.5166 4.0911
" />
<path d="M30.5166 4.0911
L30.6980 4.0911
" />
<path d="M30.6980 4.0911
L30.8189 4.0307
" />
<path d="M30.8189 4.0307
L30.8794 3.9702
" />
<path d="M32.0284 4.0307
L31.9075 4.0911
" />
<path d="M31.9075 4.0911
L31.6656 4.0911
" />
<path d="M31.6656 4.0911
L31.5446 4.0307
" />
<path d="M31.5446 4.0307
L31.4841 3.9702
" />
<path d="M31.4841 3.9702
L31.4237 3.8492
" />
<path d="M31.4237 3.8492
L31.4237 3.4864
" />
<path d="M31.4237 3.4864
L31.4841 3.3654
" />
<path d="M31.4841 3.3654
L31.5446 3.3049
" />
<path d="M31.5446 3.3049
L31.6656 3.2445
" />
<path d="M31.6656 3.2445
L31.9075 3.2445
" />
<path d="M31.9075 3.2445
L32.0284 3.3049
" />
<path d="M32.3913 3.2445
L32.8751 3.2445
" />
<path d="M32.5727 2.8211
L32.5727 3.9097
" />
<path d="M32.5727 3.9097
L32.6332 4.0307
" />
<path d="M32.6332 4.0307
L32.7542 4.0911
" />
<path d="M32.7542 4.0911
L32.8751 4.0911
" />
<path d="M33.2984 3.6073
L34.2661 3.6073
" />
<path d="M34.8708 4.0911
L34.8708 3.2445
" />
<path d="M34.8708 2.8211
L34.8104 2.8816
" />
<path d="M34.8104 2.8816
L34.8708 2.9421
" />
<path d="M34.8708 2.9421
L34.9313 2.8816
" />
<path d="M34.9313 2.8816
L34.8708 2.8211
" />
<path d="M34.8708 2.8211
L34.8708 2.9421
" />
<path d="M35.4756 3.2445
L35.4756 4.0911
" />
<path d="M35.4756 3.3654
L35.5361 3.3049
" />
<path d="M35.5361 3.3049
L35.6571 3.2445
" />
<path d="M35.6571 3.2445
L35.8385 3.2445
" />
<path d="M35.8385 3.2445
L35.9594 3.3049
" />
<path d="M35.9594 3.3049
L36.0199 3.4259
" />
<path d="M36.0199 3.4259
L36.0199 4.0911
" />
<path d="M36.4432 3.2445
L36.9270 3.2445
" />
<path d="M36.6246 4.0911
L36.6246 3.0026
" />
<path d="M36.6246 3.0026
L36.6851 2.8816
" />
<path d="M36.6851 2.8816
L36.8061 2.8211
" />
<path d="M36.8061 2.8211
L36.9270 2.8211
" />
<path d="M37.5318 4.0911
L37.4108 4.0307
" />
<path d="M37.4108 4.0307
L37.3503 3.9702
" />
<path d="M37.3503 3.9702
L37.2899 3.8492
" />
<path d="M37.2899 3.8492
L37.2899 3.4864
" />
<path d="M37.2899 3.4864
L37.3503 3.3654
" />
<path d="M37.3503 3.3654
L37.4108 3.3049
" />
<path d="M37.4108 3.3049
L37.5318 3.2445
" />
<path d="M37.5318 3.2445
L37.7132 3.2445
" />
<path d="M37.7132 3.2445
L37.8341 3.3049
" />
<path d="M37.8341 3.3049
L37.8946 3.3654
" />
<path d="M37.8946 3.3654
L37.9551 3.4864
" />
<path d="M37.9551 3.4864
L37.9551 3.8492
" />
<path d="M37.9551 3.8492
L37.8946 3.9702
" />
<path d="M37.8946 3.9702
L37.8341 4.0307
" />
<path d="M37.8341 4.0307
L37.7132 4.0911
" />
<path d="M37.7132 4.0911
L37.5318 4.0911
" />
<path d="M39.4065 2.7607
L38.3179 4.3935
" />
<path d="M40.3741 4.0911
L40.3741 2.8211
" />
<path d="M40.3741 4.0307
L40.2532 4.0911
" />
<path d="M40.2532 4.0911
L40.0113 4.0911
" />
<path d="M40.0113 4.0911
L39.8903 4.0307
" />
<path d="M39.8903 4.0307
L39.8298 3.9702
" />
<path d="M39.8298 3.9702
L39.7694 3.8492
" />
<path d="M39.7694 3.8492
L39.7694 3.4864
" />
<path d="M39.7694 3.4864
L39.8298 3.3654
" />
<path d="M39.8298 3.3654
L39.8903 3.3049
" />
<path d="M39.8903 3.3049
L40.0113 3.2445
" />
<path d="M40.0113 3.2445
L40.2532 3.2445
" />
<path d="M40.2532 3.2445
L40.3741 3.3049
" />
<path d="M41.5231 4.0911
L41.5231 3.4259
" />
<path d="M41.5231 3.4259
L41.4626 3.3049
" />
<path d="M41.4626 3.3049
L41.3417 3.2445
" />
<path d="M41.3417 3.2445
L41.0998 3.2445
" />
<path d="M41.0998 3.2445
L40.9788 3.3049
" />
<path d="M41.5231 4.0307
L41.4022 4.0911
" />
<path d="M41.4022 4.0911
L41.0998 4.0911
" />
<path d="M41.0998 4.0911
L40.9788 4.0307
" />
<path d="M40.9788 4.0307
L40.9184 3.9097
" />
<path d="M40.9184 3.9097
L40.9184 3.7887
" />
<path d="M40.9184 3.7887
L40.9788 3.6678
" />
<path d="M40.9788 3.6678
L41.0998 3.6073
" />
<path d="M41.0998 3.6073
L41.4022 3.6073
" />
<path d="M41.4022 3.6073
L41.5231 3.5468
" />
<path d="M41.9464 3.2445
L42.4302 3.2445
" />
<path d="M42.1278 2.8211
L42.1278 3.9097
" />
<path d="M42.1278 3.9097
L42.1883 4.0307
" />
<path d="M42.1883 4.0307
L42.3093 4.0911
" />
<path d="M42.3093 4.0911
L42.4302 4.0911
" />
<path d="M43.3978 4.0911
L43.3978 3.4259
" />
<path d="M43.3978 3.4259
L43.3373 3.3049
" />
<path d="M43.3373 3.3049
L43.2164 3.2445
" />
<path d="M43.2164 3.2445
L42.9745 3.2445
" />
<path d="M42.9745 3.2445
L42.8535 3.3049
" />
<path d="M43.3978 4.0307
L43.2769 4.0911
" />
<path d="M43.2769 4.0911
L42.9745 4.0911
" />
<path d="M42.9745 4.0911
L42.8535 4.0307
" />
<path d="M42.8535 4.0307
L42.7931 3.9097
" />
<path d="M42.7931 3.9097
L42.7931 3.7887
" />
<path d="M42.7931 3.7887
L42.8535 3.6678
" />
<path d="M42.8535 3.6678
L42.9745 3.6073
" />
<path d="M42.9745 3.6073
L43.2769 3.6073
" />
<path d="M43.2769 3.6073
L43.3978 3.5468
" />
<path d="M43.9421 4.0307
L44.0630 4.0911
" />
<path d="M44.0630 4.0911
L44.3049 4.0911
" />
<path d="M44.3049 4.0911
L44.4259 4.0307
" />
<path d="M44.4259 4.0307
L44.4863 3.9097
" />
<path d="M44.4863 3.9097
L44.4863 3.8492
" />
<path d="M44.4863 3.8492
L44.4259 3.7283
" />
<path d="M44.4259 3.7283
L44.3049 3.6678
" />
<path d="M44.3049 3.6678
L44.1235 3.6678
" />
<path d="M44.1235 3.6678
L44.0025 3.6073
" />
<path d="M44.0025 3.6073
L43.9421 3.4864
" />
<path d="M43.9421 3.4864
L43.9421 3.4259
" />
<path d="M43.9421 3.4259
L44.0025 3.3049
" />
<path d="M44.0025 3.3049
L44.1235 3.2445
" />
<path d="M44.1235 3.2445
L44.3049 3.2445
" />
<path d="M44.3049 3.2445
L44.4259 3.3049
" />
<path d="M45.0306 4.0911
L45.0306 2.8211
" />
<path d="M45.5749 4.0911
L45.5749 3.4259
" />
<path d="M45.5749 3.4259
L45.5144 3.3049
" />
<path d="M45.5144 3.3049
L45.3935 3.2445
" />
<path d="M45.3935 3.2445
L45.2121 3.2445
" />
<path d="M45.2121 3.2445
L45.0911 3.3049
" />
<path d="M45.0911 3.3049
L45.0306 3.3654
" />
<path d="M46.6634 4.0307
L46.5425 4.0911
" />
<path d="M46.5425 4.0911
L46.3006 4.0911
" />
<path d="M46.3006 4.0911
L46.1796 4.0307
" />
<path d="M46.1796 4.0307
L46.1192 3.9097
" />
<path d="M46.1192 3.9097
L46.1192 3.4259
" />
<path d="M46.1192 3.4259
L46.1796 3.3049
" />
<path d="M46.1796 3.3049
L46.3006 3.2445
" />
<path d="M46.3006 3.2445
L46.5425 3.2445
" />
<path d="M46.5425 3.2445
L46.6634 3.3049
" />
<path d="M46.6634 3.3049
L46.7239 3.4259
" />
<path d="M46.7239 3.4259
L46.7239 3.5468
" />
<path d="M46.7239 3.5468
L46.1192 3.6678
" />
<path d="M47.7520 4.0307
L47.6311 4.0911
" />
<path d="M47.6311 4.0911
L47.3892 4.0911
" />
<path d="M47.3892 4.0911
L47.2682 4.0307
" />
<path d="M47.2682 4.0307
L47.2078 3.9097
" />
<path d="M47.2078 3.9097
L47.2078 3.4259
" />
<path d="M47.2078 3.4259
L47.2682 3.3049
" />
<path d="M47.2682 3.3049
L47.3892 3.2445
" />
<path d="M47.3892 3.2445
L47.6311 3.2445
" />
<path d="M47.6311 3.2445
L47.7520 3.3049
" />
<path d="M47.7520 3.3049
L47.8125 3.4259
" />
<path d="M47.8125 3.4259
L47.8125 3.5468
" />
<path d="M47.8125 3.5468
L47.2078 3.6678
" />
<path d="M48.1754 3.2445
L48.6592 3.2445
" />
<path d="M48.3568 2.8211
L48.3568 3.9097
" />
<path d="M48.3568 3.9097
L48.4173 4.0307
" />
<path d="M48.4173 4.0307
L48.5383 4.0911
" />
<path d="M48.5383 4.0911
L48.6592 4.0911
" />
<path d="M49.0221 4.0307
L49.1430 4.0911
" />
<path d="M49.1430 4.0911
L49.3849 4.0911
" />
<path d="M49.3849 4.0911
L49.5059 4.0307
" />
<path d="M49.5059 4.0307
L49.5663 3.9097
" />
<path d="M49.5663 3.9097
L49.5663 3.8492
" />
<path d="M49.5663 3.8492
L49.5059 3.7283
" />
<path d="M49.5059 3.7283
L49.3849 3.6678
" />
<path d="M49.3849 3.6678
L49.2035 3.6678
" />
<path d="M49.2035 3.6678
L49.0825 3.6073
" />
<path d="M49.0825 3.6073
L49.0221 3.4864
" />
<path d="M49.0221 3.4864
L49.0221 3.4259
" />
<path d="M49.0221 3.4259
L49.0825 3.3049
" />
<path d="M49.0825 3.3049
L49.2035 3.2445
" />
<path d="M49.2035 3.2445
L49.3849 3.2445
" />
<path d="M49.3849 3.2445
L49.5059 3.3049
" />
<path d="M51.0178 2.7607
L49.9292 4.3935
" />
<path d="M51.9854 4.0911
L51.9854 2.8211
" />
<path d="M51.9854 4.0307
L51.8645 4.0911
" />
<path d="M51.8645 4.0911
L51.6226 4.0911
" />
<path d="M51.6226 4.0911
L51.5016 4.0307
" />
<path d="M51.5016 4.0307
L51.4411 3.9702
" />
<path d="M51.4411 3.9702
L51.3807 3.8492
" />
<path d="M51.3807 3.8492
L51.3807 3.4864
" />
<path d="M51.3807 3.4864
L51.4411 3.3654
" />
<path d="M51.4411 3.3654
L51.5016 3.3049
" />
<path d="M51.5016 3.3049
L51.6226 3.2445
" />
<path d="M51.6226 3.2445
L51.8645 3.2445
" />
<path d="M51.8645 3.2445
L51.9854 3.3049
" />
<path d="M53.1344 4.0911
L53.1344 3.4259
" />
<path d="M53.1344 3.4259
L53.0739 3.3049
" />
<path d="M53.0739 3.3049
L52.9530 3.2445
" />
<path d="M52.9530 3.2445
L52.7111 3.2445
" />
<path d="M52.7111 3.2445
L52.5901 3.3049
" />
<path d="M53.1344 4.0307
L53.0135 4.0911
" />
<path d="M53.0135 4.0911
L52.7111 4.0911
" />
<path d="M52.7111 4.0911
L52.5901 4.0307
" />
<path d="M52.5901 4.0307
L52.5297 3.9097
" />
<path d="M52.5297 3.9097
L52.5297 3.7887
" />
<path d="M52.5297 3.7887
L52.5901 3.6678
" />
<path d="M52.5901 3.6678
L52.7111 3.6073
" />
<path d="M52.7111 3.6073
L53.0135 3.6073
" />
<path d="M53.0135 3.6073
L53.1344 3.5468
" />
<path d="M53.5577 3.2445
L54.0415 3.2445
" />
<path d="M53.7391 2.8211
L53.7391 3.9097
" />
<path d="M53.7391 3.9097
L53.7996 4.0307
" />
<path d="M53.7996 4.0307
L53.9206 4.0911
" />
<path d="M53.9206 4.0911
L54.0415 4.0911
" />
<path d="M55.0091 4.0911
L55.0091 3.4259
" />
<path d="M55.0091 3.4259
L54.9486 3.3049
" />
<path d="M54.9486 3.3049
L54.8277 3.2445
" />
<path d="M54.8277 3.2445
L54.5858 3.2445
" />
<path d="M54.5858 3.2445
L54.4648 3.3049
" />
<path d="M55.0091 4.0307
L54.8882 4.0911
" />
<path d="M54.8882 4.0911
L54.5858 4.0911
" />
<path d="M54.5858 4.0911
L54.4648 4.0307
" />
<path d="M54.4648 4.0307
L54.4044 3.9097
" />
<path d="M54.4044 3.9097
L54.4044 3.7887
" />
<path d="M54.4044 3.7887
L54.4648 3.6678
" />
<path d="M54.4648 3.6678
L54.5858 3.6073
" />
<path d="M54.5858 3.6073
L54.8882 3.6073
" />
<path d="M54.8882 3.6073
L55.0091 3.5468
" />
<path d="M56.5210 2.7607
L55.4324 4.3935
" />
<path d="M56.9443 4.0911
L56.9443 3.2445
" />
<path d="M56.9443 2.8211
L56.8839 2.8816
" />
<path d="M56.8839 2.8816
L56.9443 2.9421
" />
<path d="M56.9443 2.9421
L57.0048 2.8816
" />
<path d="M57.0048 2.8816
L56.9443 2.8211
" />
<path d="M56.9443 2.8211
L56.9443 2.9421
" />
<path d="M57.5491 4.0911
L57.5491 3.2445
" />
<path d="M57.5491 3.4864
L57.6096 3.3654
" />
<path d="M57.6096 3.3654
L57.6701 3.3049
" />
<path d="M57.6701 3.3049
L57.7910 3.2445
" />
<path d="M57.7910 3.2445
L57.9120 3.2445
" />
<path d="M58.5168 4.0911
L58.3958 4.0307
" />
<path d="M58.3958 4.0307
L58.3353 3.9097
" />
<path d="M58.3353 3.9097
L58.3353 2.8211
" />
<path d="M58.8796 3.2445
L59.5448 3.2445
" />
<path d="M59.5448 3.2445
L58.8796 4.0911
" />
<path d="M58.8796 4.0911
L59.5448 4.0911
" />
<path d="M60.5729 3.2445
L60.5729 4.0911
" />
<path d="M60.2705 2.7607
L59.9682 3.6678
" />
<path d="M59.9682 3.6678
L60.7543 3.6678
" />
<path d="M61.7824 3.2445
L61.7824 4.0911
" />
<path d="M61.4800 2.7607
L61.1777 3.6678
" />
<path d="M61.1777 3.6678
L61.9638 3.6678
" />
<path d="M62.4476 3.2445
L62.4476 4.0911
" />
<path d="M62.4476 3.3654
L62.5081 3.3049
" />
<path d="M62.5081 3.3049
L62.6291 3.2445
" />
<path d="M62.6291 3.2445
L62.8105 3.2445
" />
<path d="M62.8105 3.2445
L62.9314 3.3049
" />
<path d="M62.9314 3.3049
L62.9919 3.4259
" />
<path d="M62.9919 3.4259
L62.9919 4.0911
" />
<path d="M63.5966 3.9702
L63.6571 4.0307
" />
<path d="M63.6571 4.0307
L63.5966 4.0911
" />
<path d="M63.5966 4.0911
L63.5362 4.0307
" />
<path d="M63.5362 4.0307
L63.5966 3.9702
" />
<path d="M63.5966 3.9702
L63.5966 4.0911
" />
<path d="M64.2014 3.2445
L64.2014 4.5145
" />
<path d="M64.2014 3.3049
L64.3224 3.2445
" />
<path d="M64.3224 3.2445
L64.5643 3.2445
" />
<path d="M64.5643 3.2445
L64.6852 3.3049
" />
<path d="M64.6852 3.3049
L64.7457 3.3654
" />
<path d="M64.7457 3.3654
L64.8062 3.4864
" />
<path d="M64.8062 3.4864
L64.8062 3.8492
" />
<path d="M64.8062 3.8492
L64.7457 3.9702
" />
<path d="M64.7457 3.9702
L64.6852 4.0307
" />
<path d="M64.6852 4.0307
L64.5643 4.0911
" />
<path d="M64.5643 4.0911
L64.3224 4.0911
" />
<path d="M64.3224 4.0911
L64.2014 4.0307
" />
<path d="M65.8947 4.0911
L65.8947 2.8211
" />
<path d="M65.8947 4.0307
L65.7738 4.0911
" />
<path d="M65.7738 4.0911
L65.5319 4.0911
" />
<path d="M65.5319 4.0911
L65.4109 4.0307
" />
<path d="M65.4109 4.0307
L65.3504 3.9702
" />
<path d="M65.3504 3.9702
L65.2900 3.8492
" />
<path d="M65.2900 3.8492
L65.2900 3.4864
" />
<path d="M65.2900 3.4864
L65.3504 3.3654
" />
<path d="M65.3504 3.3654
L65.4109 3.3049
" />
<path d="M65.4109 3.3049
L65.5319 3.2445
" />
<path d="M65.5319 3.2445
L65.7738 3.2445
" />
<path d="M65.7738 3.2445
L65.8947 3.3049
" />
<path d="M66.3180 3.2445
L66.8018 3.2445
" />
<path d="M66.4994 4.0911
L66.4994 3.0026
" />
<path d="M66.4994 3.0026
L66.5599 2.8816
" />
<path d="M66.5599 2.8816
L66.6809 2.8211
" />
<path d="M66.6809 2.8211
L66.8018 2.8211
" />
</g></g> 
</svg>
