<?xml version="1.0" standalone="no"?>
 <!DOCTYPE svg PUBLIC "-//W3C//DTD SVG 1.1//EN" 
 "http://www.w3.org/Graphics/SVG/1.1/DTD/svg11.dtd"> 
<svg
  xmlns:svg="http://www.w3.org/2000/svg"
  xmlns="http://www.w3.org/2000/svg"
  xmlns:xlink="http://www.w3.org/1999/xlink"
  version="1.1"
  width="86.4870mm" height="18.2880mm" viewBox="0.0000 0.0000 86.4870 18.2880">
<title>SVG Image created as working.svg date 2023/08/27 16:26:27 </title>
  <desc>Image generated by Eeschema-SVG </desc>
<g style="fill:#000000; fill-opacity:1.0000;stroke:#000000; stroke-opacity:1.0000;
stroke-linecap:round; stroke-linejoin:round;"
 transform="translate(0 0) scale(1 1)">
</g>
<g style="fill:#840000; fill-opacity:0.0; 
stroke:#840000; stroke-width:0.0000; stroke-opacity:1; 
stroke-linecap:round; stroke-linejoin:round;">
</g>
<g style="fill:#FFFFC2; fill-opacity:0.0; 
stroke:#FFFFC2; stroke-width:0.0000; stroke-opacity:1; 
stroke-linecap:round; stroke-linejoin:round;">
</g>
<g style="fill:#FFFFC2; fill-opacity:1.0000; 
stroke:#FFFFC2; stroke-width:0.0000; stroke-opacity:1; 
stroke-linecap:round; stroke-linejoin:round;">
<rect x="11.016800" y="5.334100" width="13.970000" height="7.620000" rx="0.000000" />
</g>
<g style="fill:#840084; fill-opacity:1.0000; 
stroke:#840084; stroke-width:0.0000; stroke-opacity:1; 
stroke-linecap:round; stroke-linejoin:round;">
</g>
<g style="fill:#840000; fill-opacity:1.0000; 
stroke:#840000; stroke-width:0.0000; stroke-opacity:1; 
stroke-linecap:round; stroke-linejoin:round;">
</g>
<g style="fill:#840000; fill-opacity:0.0; 
stroke:#840000; stroke-width:0.2540; stroke-opacity:1; 
stroke-linecap:round; stroke-linejoin:round;">
<rect x="11.016800" y="5.334100" width="13.970000" height="7.620000" rx="0.000000" />
</g>
<g style="fill:#840000; fill-opacity:0.0; 
stroke:#840000; stroke-width:0.1524; stroke-opacity:1; 
stroke-linecap:round; stroke-linejoin:round;">
<path style="fill:#840000; fill-opacity:0.0; 
stroke:#840000; stroke-width:0.1524; stroke-opacity:1; 
stroke-linecap:round; stroke-linejoin:round;fill:none"
d="M 17.3668,12.9541
17.3668,11.0491
" /> 
<path style="fill:#840000; fill-opacity:0.0; 
stroke:#840000; stroke-width:0.1524; stroke-opacity:1; 
stroke-linecap:round; stroke-linejoin:round;fill:none"
d="M 11.0168,11.6841
14.1918,11.6841
14.1918,11.0491
" /> 
<path style="fill:#840000; fill-opacity:0.0; 
stroke:#840000; stroke-width:0.1524; stroke-opacity:1; 
stroke-linecap:round; stroke-linejoin:round;fill:none"
d="M 11.0168,6.6041
14.1918,6.6041
14.1918,7.2391
" /> 
<path style="fill:#840000; fill-opacity:0.0; 
stroke:#840000; stroke-width:0.1524; stroke-opacity:1; 
stroke-linecap:round; stroke-linejoin:round;fill:none"
d="M 17.3668,7.2391
17.3668,6.6041
22.4468,6.6041
" /> 
<circle cx="22.4468" cy="6.6041" r="0.1270" /> 
<rect x="12.921800" y="7.239100" width="5.715000" height="3.810000" rx="0.000000" />
<path style="fill:#840000; fill-opacity:0.0; 
stroke:#840000; stroke-width:0.1524; stroke-opacity:1; 
stroke-linecap:round; stroke-linejoin:round;fill:none"
d="M 19.9068,10.4141
18.6368,10.4141
" /> 
</g>
<g style="fill:#840000; fill-opacity:0.0; 
stroke:#840000; stroke-width:0.5080; stroke-opacity:1; 
stroke-linecap:round; stroke-linejoin:round;">
<path style="fill:#840000; fill-opacity:0.0; 
stroke:#840000; stroke-width:0.5080; stroke-opacity:1; 
stroke-linecap:round; stroke-linejoin:round;fill:none"
d="M 20.5418,10.1601
20.5418,10.7951
" /> 
<path style="fill:#840000; fill-opacity:0.0; 
stroke:#840000; stroke-width:0.5080; stroke-opacity:1; 
stroke-linecap:round; stroke-linejoin:round;fill:none"
d="M 20.5418,8.7631
20.5418,9.5251
" /> 
<path style="fill:#840000; fill-opacity:0.0; 
stroke:#840000; stroke-width:0.5080; stroke-opacity:1; 
stroke-linecap:round; stroke-linejoin:round;fill:none"
d="M 20.5418,7.4931
20.5418,8.1281
" /> 
</g>
<g style="fill:#840000; fill-opacity:0.0; 
stroke:#840000; stroke-width:0.1524; stroke-opacity:1; 
stroke-linecap:round; stroke-linejoin:round;">
<path style="fill:#840000; fill-opacity:0.0; 
stroke:#840000; stroke-width:0.1524; stroke-opacity:1; 
stroke-linecap:round; stroke-linejoin:round;fill:none"
d="M 22.9548,8.7631
22.8278,8.8901
" /> 
<path style="fill:#840000; fill-opacity:0.0; 
stroke:#840000; stroke-width:0.1524; stroke-opacity:1; 
stroke-linecap:round; stroke-linejoin:round;fill:none"
d="M 22.9548,8.7631
23.4628,8.7631
" /> 
<path style="fill:#840000; fill-opacity:0.0; 
stroke:#840000; stroke-width:0.1524; stroke-opacity:1; 
stroke-linecap:round; stroke-linejoin:round;fill:none"
d="M 23.4628,8.7631
23.5898,8.6361
" /> 
</g>
<g style="fill:#840000; fill-opacity:0.0; 
stroke:#840000; stroke-width:0.2540; stroke-opacity:1; 
stroke-linecap:round; stroke-linejoin:round;">
<path style="fill:#840000; fill-opacity:0.0; 
stroke:#840000; stroke-width:0.2540; stroke-opacity:1; 
stroke-linecap:round; stroke-linejoin:round;fill:none"
d="M 19.9068,7.6201
19.9068,10.6681
19.9068,10.6681
" /> 
</g>
<g style="fill:#840000; fill-opacity:0.0; 
stroke:#840000; stroke-width:0.1524; stroke-opacity:1; 
stroke-linecap:round; stroke-linejoin:round;">
<path style="fill:#840000; fill-opacity:0.0; 
stroke:#840000; stroke-width:0.1524; stroke-opacity:1; 
stroke-linecap:round; stroke-linejoin:round;fill:none"
d="M 20.6688,9.1441
22.4468,9.1441
22.4468,12.9541
" /> 
<path style="fill:#840000; fill-opacity:0.0; 
stroke:#840000; stroke-width:0.1524; stroke-opacity:1; 
stroke-linecap:round; stroke-linejoin:round;fill:none"
d="M 22.4468,5.3341
22.4468,7.8741
20.6688,7.8741
" /> 
<path style="fill:#840000; fill-opacity:0.0; 
stroke:#840000; stroke-width:0.1524; stroke-opacity:1; 
stroke-linecap:round; stroke-linejoin:round;fill:none"
d="M 20.6688,10.4141
23.2088,10.4141
23.2088,7.8741
22.4468,7.8741
" /> 
</g>
<g style="fill:#840000; fill-opacity:1.0000; 
stroke:#840000; stroke-width:0.1524; stroke-opacity:1; 
stroke-linecap:round; stroke-linejoin:round;">
<path style="fill:#840000; fill-opacity:1.0000; 
stroke:#840000; stroke-width:0.1524; stroke-opacity:1; 
stroke-linecap:round; stroke-linejoin:round;fill-rule:evenodd;"
d="M 23.2088,8.7631
22.9548,9.3981
23.4628,9.3981
Z" /> 
<path style="fill:#840000; fill-opacity:1.0000; 
stroke:#840000; stroke-width:0.1524; stroke-opacity:1; 
stroke-linecap:round; stroke-linejoin:round;fill-rule:evenodd;"
d="M 20.7958,9.1441
21.8118,8.7631
21.8118,9.5251
20.7958,9.1441
20.9228,9.1441
20.9228,9.1441
" /> 
</g>
<g style="fill:#840000; fill-opacity:0.0; 
stroke:#840000; stroke-width:0.1524; stroke-opacity:1; 
stroke-linecap:round; stroke-linejoin:round;">
<circle cx="22.4468" cy="10.4141" r="0.1270" /> 
<circle cx="22.4468" cy="7.8741" r="0.1270" /> 
</g>
<g style="fill:#840000; fill-opacity:0.0; 
stroke:#840000; stroke-width:0.1429; stroke-opacity:1; 
stroke-linecap:round; stroke-linejoin:round;">
<text x="15.7158" y="9.7156"
textLength="4.2824" font-size="1.5240" lengthAdjust="spacingAndGlyphs"
text-anchor="middle" opacity="0">CTRL</text>
<g class="stroked-text"><desc>CTRL</desc>
<path d="M14.5999 9.5565
L14.5455 9.6110
" />
<path d="M14.5455 9.6110
L14.3822 9.6654
" />
<path d="M14.3822 9.6654
L14.2734 9.6654
" />
<path d="M14.2734 9.6654
L14.1101 9.6110
" />
<path d="M14.1101 9.6110
L14.0012 9.5021
" />
<path d="M14.0012 9.5021
L13.9468 9.3932
" />
<path d="M13.9468 9.3932
L13.8924 9.1755
" />
<path d="M13.8924 9.1755
L13.8924 9.0122
" />
<path d="M13.8924 9.0122
L13.9468 8.7945
" />
<path d="M13.9468 8.7945
L14.0012 8.6857
" />
<path d="M14.0012 8.6857
L14.1101 8.5768
" />
<path d="M14.1101 8.5768
L14.2734 8.5224
" />
<path d="M14.2734 8.5224
L14.3822 8.5224
" />
<path d="M14.3822 8.5224
L14.5455 8.5768
" />
<path d="M14.5455 8.5768
L14.5999 8.6312
" />
<path d="M14.9265 8.5224
L15.5797 8.5224
" />
<path d="M15.2531 9.6654
L15.2531 8.5224
" />
<path d="M16.6138 9.6654
L16.2328 9.1211
" />
<path d="M15.9607 9.6654
L15.9607 8.5224
" />
<path d="M15.9607 8.5224
L16.3961 8.5224
" />
<path d="M16.3961 8.5224
L16.5050 8.5768
" />
<path d="M16.5050 8.5768
L16.5594 8.6312
" />
<path d="M16.5594 8.6312
L16.6138 8.7401
" />
<path d="M16.6138 8.7401
L16.6138 8.9034
" />
<path d="M16.6138 8.9034
L16.5594 9.0122
" />
<path d="M16.5594 9.0122
L16.5050 9.0667
" />
<path d="M16.5050 9.0667
L16.3961 9.1211
" />
<path d="M16.3961 9.1211
L15.9607 9.1211
" />
<path d="M17.6480 9.6654
L17.1037 9.6654
" />
<path d="M17.1037 9.6654
L17.1037 8.5224
" />
</g></g>
<g style="fill:#840000; fill-opacity:0.0; 
stroke:#840000; stroke-width:0.1524; stroke-opacity:1; 
stroke-linecap:round; stroke-linejoin:round;">
<path d="M17.3668 12.9541
L17.3668 16.7641
" />
</g>
<g style="fill:#A90000; fill-opacity:0.0; 
stroke:#A90000; stroke-width:0.1524; stroke-opacity:1; 
stroke-linecap:round; stroke-linejoin:round;">
<g transform="rotate(-90.000000 17.6208 14.8591)">
<text x="17.6208" y="16.1291"
textLength="1.4127" font-size="1.6933" lengthAdjust="spacingAndGlyphs"
text-anchor="middle" opacity="0">1</text>
</g>
<g class="stroked-text"><desc>1</desc>
<path d="M18.9432 14.4961
L18.9432 15.2218
" />
<path d="M18.9432 14.8590
L17.6732 14.8590
" />
<path d="M17.6732 14.8590
L17.8547 14.9799
" />
<path d="M17.8547 14.9799
L17.9756 15.1009
" />
<path d="M17.9756 15.1009
L18.0361 15.2218
" />
</g></g>
<g style="fill:#840000; fill-opacity:0.0; 
stroke:#840000; stroke-width:0.1524; stroke-opacity:1; 
stroke-linecap:round; stroke-linejoin:round;">
<path d="M11.0168 6.6041
L7.2068 6.6041
" />
</g>
<g style="fill:#A90000; fill-opacity:0.0; 
stroke:#A90000; stroke-width:0.1524; stroke-opacity:1; 
stroke-linecap:round; stroke-linejoin:round;">
<text x="9.1118" y="8.1281"
textLength="1.4127" font-size="1.6933" lengthAdjust="spacingAndGlyphs"
text-anchor="middle" opacity="0">2</text>
<g class="stroked-text"><desc>2</desc>
<path d="M8.7490 7.0315
L8.8094 6.9710
" />
<path d="M8.8094 6.9710
L8.9304 6.9105
" />
<path d="M8.9304 6.9105
L9.2328 6.9105
" />
<path d="M9.2328 6.9105
L9.3537 6.9710
" />
<path d="M9.3537 6.9710
L9.4142 7.0315
" />
<path d="M9.4142 7.0315
L9.4747 7.1524
" />
<path d="M9.4747 7.1524
L9.4747 7.2734
" />
<path d="M9.4747 7.2734
L9.4142 7.4548
" />
<path d="M9.4142 7.4548
L8.6885 8.1805
" />
<path d="M8.6885 8.1805
L9.4747 8.1805
" />
</g></g>
<g style="fill:#840000; fill-opacity:0.0; 
stroke:#840000; stroke-width:0.1524; stroke-opacity:1; 
stroke-linecap:round; stroke-linejoin:round;">
<path d="M22.4468 5.3341
L22.4468 1.5241
" />
</g>
<g style="fill:#A90000; fill-opacity:0.0; 
stroke:#A90000; stroke-width:0.1524; stroke-opacity:1; 
stroke-linecap:round; stroke-linejoin:round;">
<g transform="rotate(-90.000000 22.7008 3.4291)">
<text x="22.7008" y="4.6991"
textLength="1.4127" font-size="1.6933" lengthAdjust="spacingAndGlyphs"
text-anchor="middle" opacity="0">3</text>
</g>
<g class="stroked-text"><desc>3</desc>
<path d="M22.7532 3.8523
L22.7532 3.0661
" />
<path d="M22.7532 3.0661
L23.2370 3.4895
" />
<path d="M23.2370 3.4895
L23.2370 3.3080
" />
<path d="M23.2370 3.3080
L23.2975 3.1871
" />
<path d="M23.2975 3.1871
L23.3580 3.1266
" />
<path d="M23.3580 3.1266
L23.4789 3.0661
" />
<path d="M23.4789 3.0661
L23.7813 3.0661
" />
<path d="M23.7813 3.0661
L23.9023 3.1266
" />
<path d="M23.9023 3.1266
L23.9628 3.1871
" />
<path d="M23.9628 3.1871
L24.0232 3.3080
" />
<path d="M24.0232 3.3080
L24.0232 3.6709
" />
<path d="M24.0232 3.6709
L23.9628 3.7918
" />
<path d="M23.9628 3.7918
L23.9023 3.8523
" />
</g></g>
<g style="fill:#840000; fill-opacity:0.0; 
stroke:#840000; stroke-width:0.1524; stroke-opacity:1; 
stroke-linecap:round; stroke-linejoin:round;">
<path d="M11.0168 11.6841
L7.2068 11.6841
" />
</g>
<g style="fill:#A90000; fill-opacity:0.0; 
stroke:#A90000; stroke-width:0.1524; stroke-opacity:1; 
stroke-linecap:round; stroke-linejoin:round;">
<text x="9.1118" y="13.2081"
textLength="1.4127" font-size="1.6933" lengthAdjust="spacingAndGlyphs"
text-anchor="middle" opacity="0">4</text>
<g class="stroked-text"><desc>4</desc>
<path d="M9.3537 12.4139
L9.3537 13.2605
" />
<path d="M9.0513 11.9301
L8.7490 12.8372
" />
<path d="M8.7490 12.8372
L9.5351 12.8372
" />
</g></g>
<g style="fill:#840000; fill-opacity:0.0; 
stroke:#840000; stroke-width:0.1524; stroke-opacity:1; 
stroke-linecap:round; stroke-linejoin:round;">
<path d="M22.4468 12.9541
L22.4468 16.7641
" />
</g>
<g style="fill:#A90000; fill-opacity:0.0; 
stroke:#A90000; stroke-width:0.1524; stroke-opacity:1; 
stroke-linecap:round; stroke-linejoin:round;">
<g transform="rotate(-90.000000 22.7008 14.8591)">
<text x="22.7008" y="16.1291"
textLength="1.4127" font-size="1.6933" lengthAdjust="spacingAndGlyphs"
text-anchor="middle" opacity="0">5</text>
</g>
<g class="stroked-text"><desc>5</desc>
<path d="M22.7532 14.5566
L22.7532 15.1614
" />
<path d="M22.7532 15.1614
L23.3580 15.2218
" />
<path d="M23.3580 15.2218
L23.2975 15.1614
" />
<path d="M23.2975 15.1614
L23.2370 15.0404
" />
<path d="M23.2370 15.0404
L23.2370 14.7380
" />
<path d="M23.2370 14.7380
L23.2975 14.6171
" />
<path d="M23.2975 14.6171
L23.3580 14.5566
" />
<path d="M23.3580 14.5566
L23.4789 14.4961
" />
<path d="M23.4789 14.4961
L23.7813 14.4961
" />
<path d="M23.7813 14.4961
L23.9023 14.5566
" />
<path d="M23.9023 14.5566
L23.9628 14.6171
" />
<path d="M23.9628 14.6171
L24.0232 14.7380
" />
<path d="M24.0232 14.7380
L24.0232 15.0404
" />
<path d="M24.0232 15.0404
L23.9628 15.1614
" />
<path d="M23.9628 15.1614
L23.9023 15.2218
" />
</g></g>
<g style="fill:#840084; fill-opacity:0.0; 
stroke:#840084; stroke-width:0.1524; stroke-opacity:1; 
stroke-linecap:round; stroke-linejoin:round;">
</g>
<g style="fill:#006464; fill-opacity:0.0; 
stroke:#006464; stroke-width:0.1524; stroke-opacity:1; 
stroke-linecap:round; stroke-linejoin:round;">
</g>
<g style="fill:#006464; fill-opacity:0.0; 
stroke:#006464; stroke-width:0.1588; stroke-opacity:1; 
stroke-linecap:round; stroke-linejoin:round;">
<text x="26.9425" y="7.2391"
textLength="2.6415" font-size="1.6933" lengthAdjust="spacingAndGlyphs"
text-anchor="middle" opacity="0">Q?</text>
<g class="stroked-text"><desc>Q?</desc>
<path d="M26.8820 7.3043
L26.7610 7.2438
" />
<path d="M26.7610 7.2438
L26.6401 7.1229
" />
<path d="M26.6401 7.1229
L26.4587 6.9414
" />
<path d="M26.4587 6.9414
L26.3377 6.8809
" />
<path d="M26.3377 6.8809
L26.2168 6.8809
" />
<path d="M26.2772 7.1833
L26.1563 7.1229
" />
<path d="M26.1563 7.1229
L26.0353 7.0019
" />
<path d="M26.0353 7.0019
L25.9749 6.7600
" />
<path d="M25.9749 6.7600
L25.9749 6.3367
" />
<path d="M25.9749 6.3367
L26.0353 6.0948
" />
<path d="M26.0353 6.0948
L26.1563 5.9738
" />
<path d="M26.1563 5.9738
L26.2772 5.9133
" />
<path d="M26.2772 5.9133
L26.5191 5.9133
" />
<path d="M26.5191 5.9133
L26.6401 5.9738
" />
<path d="M26.6401 5.9738
L26.7610 6.0948
" />
<path d="M26.7610 6.0948
L26.8215 6.3367
" />
<path d="M26.8215 6.3367
L26.8215 6.7600
" />
<path d="M26.8215 6.7600
L26.7610 7.0019
" />
<path d="M26.7610 7.0019
L26.6401 7.1229
" />
<path d="M26.6401 7.1229
L26.5191 7.1833
" />
<path d="M26.5191 7.1833
L26.2772 7.1833
" />
<path d="M27.5473 7.0624
L27.6077 7.1229
" />
<path d="M27.6077 7.1229
L27.5473 7.1833
" />
<path d="M27.5473 7.1833
L27.4868 7.1229
" />
<path d="M27.4868 7.1229
L27.5473 7.0624
" />
<path d="M27.5473 7.0624
L27.5473 7.1833
" />
<path d="M27.3054 5.9738
L27.4263 5.9133
" />
<path d="M27.4263 5.9133
L27.7287 5.9133
" />
<path d="M27.7287 5.9133
L27.8496 5.9738
" />
<path d="M27.8496 5.9738
L27.9101 6.0948
" />
<path d="M27.9101 6.0948
L27.9101 6.2157
" />
<path d="M27.9101 6.2157
L27.8496 6.3367
" />
<path d="M27.8496 6.3367
L27.7892 6.3971
" />
<path d="M27.7892 6.3971
L27.6682 6.4576
" />
<path d="M27.6682 6.4576
L27.6077 6.5181
" />
<path d="M27.6077 6.5181
L27.5473 6.6390
" />
<path d="M27.5473 6.6390
L27.5473 6.6995
" />
</g><text x="31.5084" y="9.7791"
textLength="11.7733" font-size="1.6933" lengthAdjust="spacingAndGlyphs"
text-anchor="middle" opacity="0">IPS7091PBF</text>
<g class="stroked-text"><desc>IPS7091PBF</desc>
<path d="M26.0353 9.7233
L26.0353 8.4533
" />
<path d="M26.6401 9.7233
L26.6401 8.4533
" />
<path d="M26.6401 8.4533
L27.1239 8.4533
" />
<path d="M27.1239 8.4533
L27.2449 8.5138
" />
<path d="M27.2449 8.5138
L27.3054 8.5743
" />
<path d="M27.3054 8.5743
L27.3658 8.6952
" />
<path d="M27.3658 8.6952
L27.3658 8.8767
" />
<path d="M27.3658 8.8767
L27.3054 8.9976
" />
<path d="M27.3054 8.9976
L27.2449 9.0581
" />
<path d="M27.2449 9.0581
L27.1239 9.1186
" />
<path d="M27.1239 9.1186
L26.6401 9.1186
" />
<path d="M27.8497 9.6629
L28.0311 9.7233
" />
<path d="M28.0311 9.7233
L28.3335 9.7233
" />
<path d="M28.3335 9.7233
L28.4544 9.6629
" />
<path d="M28.4544 9.6629
L28.5149 9.6024
" />
<path d="M28.5149 9.6024
L28.5754 9.4814
" />
<path d="M28.5754 9.4814
L28.5754 9.3605
" />
<path d="M28.5754 9.3605
L28.5149 9.2395
" />
<path d="M28.5149 9.2395
L28.4544 9.1790
" />
<path d="M28.4544 9.1790
L28.3335 9.1186
" />
<path d="M28.3335 9.1186
L28.0916 9.0581
" />
<path d="M28.0916 9.0581
L27.9706 8.9976
" />
<path d="M27.9706 8.9976
L27.9101 8.9371
" />
<path d="M27.9101 8.9371
L27.8497 8.8162
" />
<path d="M27.8497 8.8162
L27.8497 8.6952
" />
<path d="M27.8497 8.6952
L27.9101 8.5743
" />
<path d="M27.9101 8.5743
L27.9706 8.5138
" />
<path d="M27.9706 8.5138
L28.0916 8.4533
" />
<path d="M28.0916 8.4533
L28.3939 8.4533
" />
<path d="M28.3939 8.4533
L28.5754 8.5138
" />
<path d="M28.9987 8.4533
L29.8453 8.4533
" />
<path d="M29.8453 8.4533
L29.3011 9.7233
" />
<path d="M30.5710 8.4533
L30.6920 8.4533
" />
<path d="M30.6920 8.4533
L30.8129 8.5138
" />
<path d="M30.8129 8.5138
L30.8734 8.5743
" />
<path d="M30.8734 8.5743
L30.9339 8.6952
" />
<path d="M30.9339 8.6952
L30.9944 8.9371
" />
<path d="M30.9944 8.9371
L30.9944 9.2395
" />
<path d="M30.9944 9.2395
L30.9339 9.4814
" />
<path d="M30.9339 9.4814
L30.8734 9.6024
" />
<path d="M30.8734 9.6024
L30.8129 9.6629
" />
<path d="M30.8129 9.6629
L30.6920 9.7233
" />
<path d="M30.6920 9.7233
L30.5710 9.7233
" />
<path d="M30.5710 9.7233
L30.4501 9.6629
" />
<path d="M30.4501 9.6629
L30.3896 9.6024
" />
<path d="M30.3896 9.6024
L30.3291 9.4814
" />
<path d="M30.3291 9.4814
L30.2687 9.2395
" />
<path d="M30.2687 9.2395
L30.2687 8.9371
" />
<path d="M30.2687 8.9371
L30.3291 8.6952
" />
<path d="M30.3291 8.6952
L30.3896 8.5743
" />
<path d="M30.3896 8.5743
L30.4501 8.5138
" />
<path d="M30.4501 8.5138
L30.5710 8.4533
" />
<path d="M31.5991 9.7233
L31.8410 9.7233
" />
<path d="M31.8410 9.7233
L31.9620 9.6629
" />
<path d="M31.9620 9.6629
L32.0224 9.6024
" />
<path d="M32.0224 9.6024
L32.1434 9.4209
" />
<path d="M32.1434 9.4209
L32.2039 9.1790
" />
<path d="M32.2039 9.1790
L32.2039 8.6952
" />
<path d="M32.2039 8.6952
L32.1434 8.5743
" />
<path d="M32.1434 8.5743
L32.0829 8.5138
" />
<path d="M32.0829 8.5138
L31.9620 8.4533
" />
<path d="M31.9620 8.4533
L31.7201 8.4533
" />
<path d="M31.7201 8.4533
L31.5991 8.5138
" />
<path d="M31.5991 8.5138
L31.5386 8.5743
" />
<path d="M31.5386 8.5743
L31.4782 8.6952
" />
<path d="M31.4782 8.6952
L31.4782 8.9976
" />
<path d="M31.4782 8.9976
L31.5386 9.1186
" />
<path d="M31.5386 9.1186
L31.5991 9.1790
" />
<path d="M31.5991 9.1790
L31.7201 9.2395
" />
<path d="M31.7201 9.2395
L31.9620 9.2395
" />
<path d="M31.9620 9.2395
L32.0829 9.1790
" />
<path d="M32.0829 9.1790
L32.1434 9.1186
" />
<path d="M32.1434 9.1186
L32.2039 8.9976
" />
<path d="M33.4134 9.7233
L32.6877 9.7233
" />
<path d="M33.0505 9.7233
L33.0505 8.4533
" />
<path d="M33.0505 8.4533
L32.9296 8.6348
" />
<path d="M32.9296 8.6348
L32.8086 8.7557
" />
<path d="M32.8086 8.7557
L32.6877 8.8162
" />
<path d="M33.9576 9.7233
L33.9576 8.4533
" />
<path d="M33.9576 8.4533
L34.4414 8.4533
" />
<path d="M34.4414 8.4533
L34.5624 8.5138
" />
<path d="M34.5624 8.5138
L34.6229 8.5743
" />
<path d="M34.6229 8.5743
L34.6833 8.6952
" />
<path d="M34.6833 8.6952
L34.6833 8.8767
" />
<path d="M34.6833 8.8767
L34.6229 8.9976
" />
<path d="M34.6229 8.9976
L34.5624 9.0581
" />
<path d="M34.5624 9.0581
L34.4414 9.1186
" />
<path d="M34.4414 9.1186
L33.9576 9.1186
" />
<path d="M35.6510 9.0581
L35.8324 9.1186
" />
<path d="M35.8324 9.1186
L35.8929 9.1790
" />
<path d="M35.8929 9.1790
L35.9533 9.3000
" />
<path d="M35.9533 9.3000
L35.9533 9.4814
" />
<path d="M35.9533 9.4814
L35.8929 9.6024
" />
<path d="M35.8929 9.6024
L35.8324 9.6629
" />
<path d="M35.8324 9.6629
L35.7114 9.7233
" />
<path d="M35.7114 9.7233
L35.2276 9.7233
" />
<path d="M35.2276 9.7233
L35.2276 8.4533
" />
<path d="M35.2276 8.4533
L35.6510 8.4533
" />
<path d="M35.6510 8.4533
L35.7719 8.5138
" />
<path d="M35.7719 8.5138
L35.8324 8.5743
" />
<path d="M35.8324 8.5743
L35.8929 8.6952
" />
<path d="M35.8929 8.6952
L35.8929 8.8162
" />
<path d="M35.8929 8.8162
L35.8324 8.9371
" />
<path d="M35.8324 8.9371
L35.7719 8.9976
" />
<path d="M35.7719 8.9976
L35.6510 9.0581
" />
<path d="M35.6510 9.0581
L35.2276 9.0581
" />
<path d="M36.9210 9.0581
L36.4976 9.0581
" />
<path d="M36.4976 9.7233
L36.4976 8.4533
" />
<path d="M36.4976 8.4533
L37.1024 8.4533
" />
</g></g>
<g style="fill:#840084; fill-opacity:0.0; 
stroke:#840084; stroke-width:0.1588; stroke-opacity:1; 
stroke-linecap:round; stroke-linejoin:round;">
<text x="45.2062" y="12.3191"
textLength="39.1689" font-size="1.6933" lengthAdjust="spacingAndGlyphs"
text-anchor="middle" opacity="0">Package_TO_SOT_THT:TO-220-5_Vertical</text>
<g class="stroked-text"><desc>Package_TO_SOT_THT:TO-220-5_Vertical</desc>
<path d="M26.0353 12.2633
L26.0353 10.9933
" />
<path d="M26.0353 10.9933
L26.5191 10.9933
" />
<path d="M26.5191 10.9933
L26.6401 11.0538
" />
<path d="M26.6401 11.0538
L26.7006 11.1143
" />
<path d="M26.7006 11.1143
L26.7610 11.2352
" />
<path d="M26.7610 11.2352
L26.7610 11.4167
" />
<path d="M26.7610 11.4167
L26.7006 11.5376
" />
<path d="M26.7006 11.5376
L26.6401 11.5981
" />
<path d="M26.6401 11.5981
L26.5191 11.6586
" />
<path d="M26.5191 11.6586
L26.0353 11.6586
" />
<path d="M27.8496 12.2633
L27.8496 11.5981
" />
<path d="M27.8496 11.5981
L27.7891 11.4771
" />
<path d="M27.7891 11.4771
L27.6682 11.4167
" />
<path d="M27.6682 11.4167
L27.4263 11.4167
" />
<path d="M27.4263 11.4167
L27.3053 11.4771
" />
<path d="M27.8496 12.2029
L27.7287 12.2633
" />
<path d="M27.7287 12.2633
L27.4263 12.2633
" />
<path d="M27.4263 12.2633
L27.3053 12.2029
" />
<path d="M27.3053 12.2029
L27.2449 12.0819
" />
<path d="M27.2449 12.0819
L27.2449 11.9609
" />
<path d="M27.2449 11.9609
L27.3053 11.8400
" />
<path d="M27.3053 11.8400
L27.4263 11.7795
" />
<path d="M27.4263 11.7795
L27.7287 11.7795
" />
<path d="M27.7287 11.7795
L27.8496 11.7190
" />
<path d="M28.9986 12.2029
L28.8777 12.2633
" />
<path d="M28.8777 12.2633
L28.6358 12.2633
" />
<path d="M28.6358 12.2633
L28.5148 12.2029
" />
<path d="M28.5148 12.2029
L28.4543 12.1424
" />
<path d="M28.4543 12.1424
L28.3939 12.0214
" />
<path d="M28.3939 12.0214
L28.3939 11.6586
" />
<path d="M28.3939 11.6586
L28.4543 11.5376
" />
<path d="M28.4543 11.5376
L28.5148 11.4771
" />
<path d="M28.5148 11.4771
L28.6358 11.4167
" />
<path d="M28.6358 11.4167
L28.8777 11.4167
" />
<path d="M28.8777 11.4167
L28.9986 11.4771
" />
<path d="M29.5429 12.2633
L29.5429 10.9933
" />
<path d="M29.6639 11.7795
L30.0267 12.2633
" />
<path d="M30.0267 11.4167
L29.5429 11.9005
" />
<path d="M31.1153 12.2633
L31.1153 11.5981
" />
<path d="M31.1153 11.5981
L31.0548 11.4771
" />
<path d="M31.0548 11.4771
L30.9339 11.4167
" />
<path d="M30.9339 11.4167
L30.6920 11.4167
" />
<path d="M30.6920 11.4167
L30.5710 11.4771
" />
<path d="M31.1153 12.2029
L30.9944 12.2633
" />
<path d="M30.9944 12.2633
L30.6920 12.2633
" />
<path d="M30.6920 12.2633
L30.5710 12.2029
" />
<path d="M30.5710 12.2029
L30.5106 12.0819
" />
<path d="M30.5106 12.0819
L30.5106 11.9609
" />
<path d="M30.5106 11.9609
L30.5710 11.8400
" />
<path d="M30.5710 11.8400
L30.6920 11.7795
" />
<path d="M30.6920 11.7795
L30.9944 11.7795
" />
<path d="M30.9944 11.7795
L31.1153 11.7190
" />
<path d="M32.2643 11.4167
L32.2643 12.4448
" />
<path d="M32.2643 12.4448
L32.2038 12.5657
" />
<path d="M32.2038 12.5657
L32.1434 12.6262
" />
<path d="M32.1434 12.6262
L32.0224 12.6867
" />
<path d="M32.0224 12.6867
L31.8410 12.6867
" />
<path d="M31.8410 12.6867
L31.7200 12.6262
" />
<path d="M32.2643 12.2029
L32.1434 12.2633
" />
<path d="M32.1434 12.2633
L31.9015 12.2633
" />
<path d="M31.9015 12.2633
L31.7805 12.2029
" />
<path d="M31.7805 12.2029
L31.7200 12.1424
" />
<path d="M31.7200 12.1424
L31.6596 12.0214
" />
<path d="M31.6596 12.0214
L31.6596 11.6586
" />
<path d="M31.6596 11.6586
L31.7200 11.5376
" />
<path d="M31.7200 11.5376
L31.7805 11.4771
" />
<path d="M31.7805 11.4771
L31.9015 11.4167
" />
<path d="M31.9015 11.4167
L32.1434 11.4167
" />
<path d="M32.1434 11.4167
L32.2643 11.4771
" />
<path d="M33.3528 12.2029
L33.2319 12.2633
" />
<path d="M33.2319 12.2633
L32.9900 12.2633
" />
<path d="M32.9900 12.2633
L32.8690 12.2029
" />
<path d="M32.8690 12.2029
L32.8086 12.0819
" />
<path d="M32.8086 12.0819
L32.8086 11.5981
" />
<path d="M32.8086 11.5981
L32.8690 11.4771
" />
<path d="M32.8690 11.4771
L32.9900 11.4167
" />
<path d="M32.9900 11.4167
L33.2319 11.4167
" />
<path d="M33.2319 11.4167
L33.3528 11.4771
" />
<path d="M33.3528 11.4771
L33.4133 11.5981
" />
<path d="M33.4133 11.5981
L33.4133 11.7190
" />
<path d="M33.4133 11.7190
L32.8086 11.8400
" />
<path d="M33.6553 12.3843
L34.6229 12.3843
" />
<path d="M34.7438 10.9933
L35.4695 10.9933
" />
<path d="M35.1067 12.2633
L35.1067 10.9933
" />
<path d="M36.1347 10.9933
L36.3766 10.9933
" />
<path d="M36.3766 10.9933
L36.4976 11.0538
" />
<path d="M36.4976 11.0538
L36.6185 11.1748
" />
<path d="M36.6185 11.1748
L36.6790 11.4167
" />
<path d="M36.6790 11.4167
L36.6790 11.8400
" />
<path d="M36.6790 11.8400
L36.6185 12.0819
" />
<path d="M36.6185 12.0819
L36.4976 12.2029
" />
<path d="M36.4976 12.2029
L36.3766 12.2633
" />
<path d="M36.3766 12.2633
L36.1347 12.2633
" />
<path d="M36.1347 12.2633
L36.0138 12.2029
" />
<path d="M36.0138 12.2029
L35.8928 12.0819
" />
<path d="M35.8928 12.0819
L35.8324 11.8400
" />
<path d="M35.8324 11.8400
L35.8324 11.4167
" />
<path d="M35.8324 11.4167
L35.8928 11.1748
" />
<path d="M35.8928 11.1748
L36.0138 11.0538
" />
<path d="M36.0138 11.0538
L36.1347 10.9933
" />
<path d="M36.9210 12.3843
L37.8886 12.3843
" />
<path d="M38.1305 12.2029
L38.3119 12.2633
" />
<path d="M38.3119 12.2633
L38.6143 12.2633
" />
<path d="M38.6143 12.2633
L38.7352 12.2029
" />
<path d="M38.7352 12.2029
L38.7957 12.1424
" />
<path d="M38.7957 12.1424
L38.8562 12.0214
" />
<path d="M38.8562 12.0214
L38.8562 11.9005
" />
<path d="M38.8562 11.9005
L38.7957 11.7795
" />
<path d="M38.7957 11.7795
L38.7352 11.7190
" />
<path d="M38.7352 11.7190
L38.6143 11.6586
" />
<path d="M38.6143 11.6586
L38.3724 11.5981
" />
<path d="M38.3724 11.5981
L38.2514 11.5376
" />
<path d="M38.2514 11.5376
L38.1909 11.4771
" />
<path d="M38.1909 11.4771
L38.1305 11.3562
" />
<path d="M38.1305 11.3562
L38.1305 11.2352
" />
<path d="M38.1305 11.2352
L38.1909 11.1143
" />
<path d="M38.1909 11.1143
L38.2514 11.0538
" />
<path d="M38.2514 11.0538
L38.3724 10.9933
" />
<path d="M38.3724 10.9933
L38.6747 10.9933
" />
<path d="M38.6747 10.9933
L38.8562 11.0538
" />
<path d="M39.6423 10.9933
L39.8842 10.9933
" />
<path d="M39.8842 10.9933
L40.0052 11.0538
" />
<path d="M40.0052 11.0538
L40.1261 11.1748
" />
<path d="M40.1261 11.1748
L40.1866 11.4167
" />
<path d="M40.1866 11.4167
L40.1866 11.8400
" />
<path d="M40.1866 11.8400
L40.1261 12.0819
" />
<path d="M40.1261 12.0819
L40.0052 12.2029
" />
<path d="M40.0052 12.2029
L39.8842 12.2633
" />
<path d="M39.8842 12.2633
L39.6423 12.2633
" />
<path d="M39.6423 12.2633
L39.5214 12.2029
" />
<path d="M39.5214 12.2029
L39.4004 12.0819
" />
<path d="M39.4004 12.0819
L39.3400 11.8400
" />
<path d="M39.3400 11.8400
L39.3400 11.4167
" />
<path d="M39.3400 11.4167
L39.4004 11.1748
" />
<path d="M39.4004 11.1748
L39.5214 11.0538
" />
<path d="M39.5214 11.0538
L39.6423 10.9933
" />
<path d="M40.5495 10.9933
L41.2752 10.9933
" />
<path d="M40.9124 12.2633
L40.9124 10.9933
" />
<path d="M41.3962 12.3843
L42.3638 12.3843
" />
<path d="M42.4847 10.9933
L43.2104 10.9933
" />
<path d="M42.8476 12.2633
L42.8476 10.9933
" />
<path d="M43.6337 12.2633
L43.6337 10.9933
" />
<path d="M43.6337 11.5981
L44.3594 11.5981
" />
<path d="M44.3594 12.2633
L44.3594 10.9933
" />
<path d="M44.7828 10.9933
L45.5085 10.9933
" />
<path d="M45.1457 12.2633
L45.1457 10.9933
" />
<path d="M45.9318 12.1424
L45.9923 12.2029
" />
<path d="M45.9923 12.2029
L45.9318 12.2633
" />
<path d="M45.9318 12.2633
L45.8714 12.2029
" />
<path d="M45.8714 12.2029
L45.9318 12.1424
" />
<path d="M45.9318 12.1424
L45.9318 12.2633
" />
<path d="M45.9318 11.4771
L45.9923 11.5376
" />
<path d="M45.9923 11.5376
L45.9318 11.5981
" />
<path d="M45.9318 11.5981
L45.8714 11.5376
" />
<path d="M45.8714 11.5376
L45.9318 11.4771
" />
<path d="M45.9318 11.4771
L45.9318 11.5981
" />
<path d="M46.3552 10.9933
L47.0809 10.9933
" />
<path d="M46.7181 12.2633
L46.7181 10.9933
" />
<path d="M47.7461 10.9933
L47.9880 10.9933
" />
<path d="M47.9880 10.9933
L48.1090 11.0538
" />
<path d="M48.1090 11.0538
L48.2299 11.1748
" />
<path d="M48.2299 11.1748
L48.2904 11.4167
" />
<path d="M48.2904 11.4167
L48.2904 11.8400
" />
<path d="M48.2904 11.8400
L48.2299 12.0819
" />
<path d="M48.2299 12.0819
L48.1090 12.2029
" />
<path d="M48.1090 12.2029
L47.9880 12.2633
" />
<path d="M47.9880 12.2633
L47.7461 12.2633
" />
<path d="M47.7461 12.2633
L47.6252 12.2029
" />
<path d="M47.6252 12.2029
L47.5042 12.0819
" />
<path d="M47.5042 12.0819
L47.4438 11.8400
" />
<path d="M47.4438 11.8400
L47.4438 11.4167
" />
<path d="M47.4438 11.4167
L47.5042 11.1748
" />
<path d="M47.5042 11.1748
L47.6252 11.0538
" />
<path d="M47.6252 11.0538
L47.7461 10.9933
" />
<path d="M48.8347 11.7795
L49.8024 11.7795
" />
<path d="M50.3467 11.1143
L50.4071 11.0538
" />
<path d="M50.4071 11.0538
L50.5281 10.9933
" />
<path d="M50.5281 10.9933
L50.8305 10.9933
" />
<path d="M50.8305 10.9933
L50.9514 11.0538
" />
<path d="M50.9514 11.0538
L51.0119 11.1143
" />
<path d="M51.0119 11.1143
L51.0724 11.2352
" />
<path d="M51.0724 11.2352
L51.0724 11.3562
" />
<path d="M51.0724 11.3562
L51.0119 11.5376
" />
<path d="M51.0119 11.5376
L50.2862 12.2633
" />
<path d="M50.2862 12.2633
L51.0724 12.2633
" />
<path d="M51.5562 11.1143
L51.6166 11.0538
" />
<path d="M51.6166 11.0538
L51.7376 10.9933
" />
<path d="M51.7376 10.9933
L52.0400 10.9933
" />
<path d="M52.0400 10.9933
L52.1609 11.0538
" />
<path d="M52.1609 11.0538
L52.2214 11.1143
" />
<path d="M52.2214 11.1143
L52.2819 11.2352
" />
<path d="M52.2819 11.2352
L52.2819 11.3562
" />
<path d="M52.2819 11.3562
L52.2214 11.5376
" />
<path d="M52.2214 11.5376
L51.4957 12.2633
" />
<path d="M51.4957 12.2633
L52.2819 12.2633
" />
<path d="M53.0680 10.9933
L53.1890 10.9933
" />
<path d="M53.1890 10.9933
L53.3099 11.0538
" />
<path d="M53.3099 11.0538
L53.3704 11.1143
" />
<path d="M53.3704 11.1143
L53.4309 11.2352
" />
<path d="M53.4309 11.2352
L53.4914 11.4771
" />
<path d="M53.4914 11.4771
L53.4914 11.7795
" />
<path d="M53.4914 11.7795
L53.4309 12.0214
" />
<path d="M53.4309 12.0214
L53.3704 12.1424
" />
<path d="M53.3704 12.1424
L53.3099 12.2029
" />
<path d="M53.3099 12.2029
L53.1890 12.2633
" />
<path d="M53.1890 12.2633
L53.0680 12.2633
" />
<path d="M53.0680 12.2633
L52.9471 12.2029
" />
<path d="M52.9471 12.2029
L52.8866 12.1424
" />
<path d="M52.8866 12.1424
L52.8261 12.0214
" />
<path d="M52.8261 12.0214
L52.7657 11.7795
" />
<path d="M52.7657 11.7795
L52.7657 11.4771
" />
<path d="M52.7657 11.4771
L52.8261 11.2352
" />
<path d="M52.8261 11.2352
L52.8866 11.1143
" />
<path d="M52.8866 11.1143
L52.9471 11.0538
" />
<path d="M52.9471 11.0538
L53.0680 10.9933
" />
<path d="M54.0356 11.7795
L55.0033 11.7795
" />
<path d="M56.2128 10.9933
L55.6080 10.9933
" />
<path d="M55.6080 10.9933
L55.5476 11.5981
" />
<path d="M55.5476 11.5981
L55.6080 11.5376
" />
<path d="M55.6080 11.5376
L55.7290 11.4771
" />
<path d="M55.7290 11.4771
L56.0314 11.4771
" />
<path d="M56.0314 11.4771
L56.1523 11.5376
" />
<path d="M56.1523 11.5376
L56.2128 11.5981
" />
<path d="M56.2128 11.5981
L56.2733 11.7190
" />
<path d="M56.2733 11.7190
L56.2733 12.0214
" />
<path d="M56.2733 12.0214
L56.2128 12.1424
" />
<path d="M56.2128 12.1424
L56.1523 12.2029
" />
<path d="M56.1523 12.2029
L56.0314 12.2633
" />
<path d="M56.0314 12.2633
L55.7290 12.2633
" />
<path d="M55.7290 12.2633
L55.6080 12.2029
" />
<path d="M55.6080 12.2029
L55.5476 12.1424
" />
<path d="M56.5152 12.3843
L57.4828 12.3843
" />
<path d="M57.6037 10.9933
L58.0270 12.2633
" />
<path d="M58.0270 12.2633
L58.4504 10.9933
" />
<path d="M59.3575 12.2029
L59.2366 12.2633
" />
<path d="M59.2366 12.2633
L58.9947 12.2633
" />
<path d="M58.9947 12.2633
L58.8737 12.2029
" />
<path d="M58.8737 12.2029
L58.8133 12.0819
" />
<path d="M58.8133 12.0819
L58.8133 11.5981
" />
<path d="M58.8133 11.5981
L58.8737 11.4771
" />
<path d="M58.8737 11.4771
L58.9947 11.4167
" />
<path d="M58.9947 11.4167
L59.2366 11.4167
" />
<path d="M59.2366 11.4167
L59.3575 11.4771
" />
<path d="M59.3575 11.4771
L59.4180 11.5981
" />
<path d="M59.4180 11.5981
L59.4180 11.7190
" />
<path d="M59.4180 11.7190
L58.8133 11.8400
" />
<path d="M59.9623 12.2633
L59.9623 11.4167
" />
<path d="M59.9623 11.6586
L60.0228 11.5376
" />
<path d="M60.0228 11.5376
L60.0833 11.4771
" />
<path d="M60.0833 11.4771
L60.2042 11.4167
" />
<path d="M60.2042 11.4167
L60.3252 11.4167
" />
<path d="M60.5671 11.4167
L61.0509 11.4167
" />
<path d="M60.7485 10.9933
L60.7485 12.0819
" />
<path d="M60.7485 12.0819
L60.8090 12.2029
" />
<path d="M60.8090 12.2029
L60.9300 12.2633
" />
<path d="M60.9300 12.2633
L61.0509 12.2633
" />
<path d="M61.4742 12.2633
L61.4742 11.4167
" />
<path d="M61.4742 10.9933
L61.4138 11.0538
" />
<path d="M61.4138 11.0538
L61.4742 11.1143
" />
<path d="M61.4742 11.1143
L61.5347 11.0538
" />
<path d="M61.5347 11.0538
L61.4742 10.9933
" />
<path d="M61.4742 10.9933
L61.4742 11.1143
" />
<path d="M62.6233 12.2029
L62.5024 12.2633
" />
<path d="M62.5024 12.2633
L62.2605 12.2633
" />
<path d="M62.2605 12.2633
L62.1395 12.2029
" />
<path d="M62.1395 12.2029
L62.0790 12.1424
" />
<path d="M62.0790 12.1424
L62.0186 12.0214
" />
<path d="M62.0186 12.0214
L62.0186 11.6586
" />
<path d="M62.0186 11.6586
L62.0790 11.5376
" />
<path d="M62.0790 11.5376
L62.1395 11.4771
" />
<path d="M62.1395 11.4771
L62.2605 11.4167
" />
<path d="M62.2605 11.4167
L62.5024 11.4167
" />
<path d="M62.5024 11.4167
L62.6233 11.4771
" />
<path d="M63.7119 12.2633
L63.7119 11.5981
" />
<path d="M63.7119 11.5981
L63.6514 11.4771
" />
<path d="M63.6514 11.4771
L63.5305 11.4167
" />
<path d="M63.5305 11.4167
L63.2886 11.4167
" />
<path d="M63.2886 11.4167
L63.1676 11.4771
" />
<path d="M63.7119 12.2029
L63.5910 12.2633
" />
<path d="M63.5910 12.2633
L63.2886 12.2633
" />
<path d="M63.2886 12.2633
L63.1676 12.2029
" />
<path d="M63.1676 12.2029
L63.1072 12.0819
" />
<path d="M63.1072 12.0819
L63.1072 11.9609
" />
<path d="M63.1072 11.9609
L63.1676 11.8400
" />
<path d="M63.1676 11.8400
L63.2886 11.7795
" />
<path d="M63.2886 11.7795
L63.5910 11.7795
" />
<path d="M63.5910 11.7795
L63.7119 11.7190
" />
<path d="M64.4981 12.2633
L64.3771 12.2029
" />
<path d="M64.3771 12.2029
L64.3166 12.0819
" />
<path d="M64.3166 12.0819
L64.3166 10.9933
" />
</g><text x="48.3206" y="9.7791"
textLength="61.9076" font-size="1.6933" lengthAdjust="spacingAndGlyphs"
text-anchor="middle" opacity="0">http://www.irf.com/product-info/datasheets/data/ips7091.pdf</text>
<g class="stroked-text"><desc>http://www.irf.com/product-info/datasheets/data/ips7091.pdf</desc>
<path d="M17.7803 9.7233
L17.7803 8.4533
" />
<path d="M18.3246 9.7233
L18.3246 9.0581
" />
<path d="M18.3246 9.0581
L18.2641 8.9371
" />
<path d="M18.2641 8.9371
L18.1432 8.8767
" />
<path d="M18.1432 8.8767
L17.9618 8.8767
" />
<path d="M17.9618 8.8767
L17.8408 8.9371
" />
<path d="M17.8408 8.9371
L17.7803 8.9976
" />
<path d="M18.7479 8.8767
L19.2317 8.8767
" />
<path d="M18.9293 8.4533
L18.9293 9.5419
" />
<path d="M18.9293 9.5419
L18.9898 9.6629
" />
<path d="M18.9898 9.6629
L19.1108 9.7233
" />
<path d="M19.1108 9.7233
L19.2317 9.7233
" />
<path d="M19.4736 8.8767
L19.9574 8.8767
" />
<path d="M19.6550 8.4533
L19.6550 9.5419
" />
<path d="M19.6550 9.5419
L19.7155 9.6629
" />
<path d="M19.7155 9.6629
L19.8365 9.7233
" />
<path d="M19.8365 9.7233
L19.9574 9.7233
" />
<path d="M20.3807 8.8767
L20.3807 10.1467
" />
<path d="M20.3807 8.9371
L20.5017 8.8767
" />
<path d="M20.5017 8.8767
L20.7436 8.8767
" />
<path d="M20.7436 8.8767
L20.8645 8.9371
" />
<path d="M20.8645 8.9371
L20.9250 8.9976
" />
<path d="M20.9250 8.9976
L20.9855 9.1186
" />
<path d="M20.9855 9.1186
L20.9855 9.4814
" />
<path d="M20.9855 9.4814
L20.9250 9.6024
" />
<path d="M20.9250 9.6024
L20.8645 9.6629
" />
<path d="M20.8645 9.6629
L20.7436 9.7233
" />
<path d="M20.7436 9.7233
L20.5017 9.7233
" />
<path d="M20.5017 9.7233
L20.3807 9.6629
" />
<path d="M21.5297 9.6024
L21.5902 9.6629
" />
<path d="M21.5902 9.6629
L21.5297 9.7233
" />
<path d="M21.5297 9.7233
L21.4693 9.6629
" />
<path d="M21.4693 9.6629
L21.5297 9.6024
" />
<path d="M21.5297 9.6024
L21.5297 9.7233
" />
<path d="M21.5297 8.9371
L21.5902 8.9976
" />
<path d="M21.5902 8.9976
L21.5297 9.0581
" />
<path d="M21.5297 9.0581
L21.4693 8.9976
" />
<path d="M21.4693 8.9976
L21.5297 8.9371
" />
<path d="M21.5297 8.9371
L21.5297 9.0581
" />
<path d="M23.0417 8.3929
L21.9531 10.0257
" />
<path d="M24.3722 8.3929
L23.2836 10.0257
" />
<path d="M24.6746 8.8767
L24.9165 9.7233
" />
<path d="M24.9165 9.7233
L25.1584 9.1186
" />
<path d="M25.1584 9.1186
L25.4003 9.7233
" />
<path d="M25.4003 9.7233
L25.6422 8.8767
" />
<path d="M26.0051 8.8767
L26.2470 9.7233
" />
<path d="M26.2470 9.7233
L26.4889 9.1186
" />
<path d="M26.4889 9.1186
L26.7308 9.7233
" />
<path d="M26.7308 9.7233
L26.9727 8.8767
" />
<path d="M27.3356 8.8767
L27.5775 9.7233
" />
<path d="M27.5775 9.7233
L27.8194 9.1186
" />
<path d="M27.8194 9.1186
L28.0613 9.7233
" />
<path d="M28.0613 9.7233
L28.3032 8.8767
" />
<path d="M28.7870 9.6024
L28.8475 9.6629
" />
<path d="M28.8475 9.6629
L28.7870 9.7233
" />
<path d="M28.7870 9.7233
L28.7266 9.6629
" />
<path d="M28.7266 9.6629
L28.7870 9.6024
" />
<path d="M28.7870 9.6024
L28.7870 9.7233
" />
<path d="M29.3918 9.7233
L29.3918 8.8767
" />
<path d="M29.3918 8.4533
L29.3314 8.5138
" />
<path d="M29.3314 8.5138
L29.3918 8.5743
" />
<path d="M29.3918 8.5743
L29.4523 8.5138
" />
<path d="M29.4523 8.5138
L29.3918 8.4533
" />
<path d="M29.3918 8.4533
L29.3918 8.5743
" />
<path d="M29.9966 9.7233
L29.9966 8.8767
" />
<path d="M29.9966 9.1186
L30.0571 8.9976
" />
<path d="M30.0571 8.9976
L30.1176 8.9371
" />
<path d="M30.1176 8.9371
L30.2385 8.8767
" />
<path d="M30.2385 8.8767
L30.3595 8.8767
" />
<path d="M30.6014 8.8767
L31.0852 8.8767
" />
<path d="M30.7828 9.7233
L30.7828 8.6348
" />
<path d="M30.7828 8.6348
L30.8433 8.5138
" />
<path d="M30.8433 8.5138
L30.9643 8.4533
" />
<path d="M30.9643 8.4533
L31.0852 8.4533
" />
<path d="M31.5085 9.6024
L31.5690 9.6629
" />
<path d="M31.5690 9.6629
L31.5085 9.7233
" />
<path d="M31.5085 9.7233
L31.4481 9.6629
" />
<path d="M31.4481 9.6629
L31.5085 9.6024
" />
<path d="M31.5085 9.6024
L31.5085 9.7233
" />
<path d="M32.6576 9.6629
L32.5367 9.7233
" />
<path d="M32.5367 9.7233
L32.2948 9.7233
" />
<path d="M32.2948 9.7233
L32.1738 9.6629
" />
<path d="M32.1738 9.6629
L32.1133 9.6024
" />
<path d="M32.1133 9.6024
L32.0529 9.4814
" />
<path d="M32.0529 9.4814
L32.0529 9.1186
" />
<path d="M32.0529 9.1186
L32.1133 8.9976
" />
<path d="M32.1133 8.9976
L32.1738 8.9371
" />
<path d="M32.1738 8.9371
L32.2948 8.8767
" />
<path d="M32.2948 8.8767
L32.5367 8.8767
" />
<path d="M32.5367 8.8767
L32.6576 8.9371
" />
<path d="M33.3834 9.7233
L33.2624 9.6629
" />
<path d="M33.2624 9.6629
L33.2019 9.6024
" />
<path d="M33.2019 9.6024
L33.1415 9.4814
" />
<path d="M33.1415 9.4814
L33.1415 9.1186
" />
<path d="M33.1415 9.1186
L33.2019 8.9976
" />
<path d="M33.2019 8.9976
L33.2624 8.9371
" />
<path d="M33.2624 8.9371
L33.3834 8.8767
" />
<path d="M33.3834 8.8767
L33.5648 8.8767
" />
<path d="M33.5648 8.8767
L33.6857 8.9371
" />
<path d="M33.6857 8.9371
L33.7462 8.9976
" />
<path d="M33.7462 8.9976
L33.8067 9.1186
" />
<path d="M33.8067 9.1186
L33.8067 9.4814
" />
<path d="M33.8067 9.4814
L33.7462 9.6024
" />
<path d="M33.7462 9.6024
L33.6857 9.6629
" />
<path d="M33.6857 9.6629
L33.5648 9.7233
" />
<path d="M33.5648 9.7233
L33.3834 9.7233
" />
<path d="M34.3509 9.7233
L34.3509 8.8767
" />
<path d="M34.3509 8.9976
L34.4114 8.9371
" />
<path d="M34.4114 8.9371
L34.5324 8.8767
" />
<path d="M34.5324 8.8767
L34.7138 8.8767
" />
<path d="M34.7138 8.8767
L34.8347 8.9371
" />
<path d="M34.8347 8.9371
L34.8952 9.0581
" />
<path d="M34.8952 9.0581
L34.8952 9.7233
" />
<path d="M34.8952 9.0581
L34.9557 8.9371
" />
<path d="M34.9557 8.9371
L35.0766 8.8767
" />
<path d="M35.0766 8.8767
L35.2581 8.8767
" />
<path d="M35.2581 8.8767
L35.3790 8.9371
" />
<path d="M35.3790 8.9371
L35.4395 9.0581
" />
<path d="M35.4395 9.0581
L35.4395 9.7233
" />
<path d="M36.9514 8.3929
L35.8628 10.0257
" />
<path d="M37.3747 8.8767
L37.3747 10.1467
" />
<path d="M37.3747 8.9371
L37.4957 8.8767
" />
<path d="M37.4957 8.8767
L37.7376 8.8767
" />
<path d="M37.7376 8.8767
L37.8585 8.9371
" />
<path d="M37.8585 8.9371
L37.9190 8.9976
" />
<path d="M37.9190 8.9976
L37.9795 9.1186
" />
<path d="M37.9795 9.1186
L37.9795 9.4814
" />
<path d="M37.9795 9.4814
L37.9190 9.6024
" />
<path d="M37.9190 9.6024
L37.8585 9.6629
" />
<path d="M37.8585 9.6629
L37.7376 9.7233
" />
<path d="M37.7376 9.7233
L37.4957 9.7233
" />
<path d="M37.4957 9.7233
L37.3747 9.6629
" />
<path d="M38.5237 9.7233
L38.5237 8.8767
" />
<path d="M38.5237 9.1186
L38.5842 8.9976
" />
<path d="M38.5842 8.9976
L38.6447 8.9371
" />
<path d="M38.6447 8.9371
L38.7656 8.8767
" />
<path d="M38.7656 8.8767
L38.8866 8.8767
" />
<path d="M39.4914 9.7233
L39.3704 9.6629
" />
<path d="M39.3704 9.6629
L39.3099 9.6024
" />
<path d="M39.3099 9.6024
L39.2495 9.4814
" />
<path d="M39.2495 9.4814
L39.2495 9.1186
" />
<path d="M39.2495 9.1186
L39.3099 8.9976
" />
<path d="M39.3099 8.9976
L39.3704 8.9371
" />
<path d="M39.3704 8.9371
L39.4914 8.8767
" />
<path d="M39.4914 8.8767
L39.6728 8.8767
" />
<path d="M39.6728 8.8767
L39.7937 8.9371
" />
<path d="M39.7937 8.9371
L39.8542 8.9976
" />
<path d="M39.8542 8.9976
L39.9147 9.1186
" />
<path d="M39.9147 9.1186
L39.9147 9.4814
" />
<path d="M39.9147 9.4814
L39.8542 9.6024
" />
<path d="M39.8542 9.6024
L39.7937 9.6629
" />
<path d="M39.7937 9.6629
L39.6728 9.7233
" />
<path d="M39.6728 9.7233
L39.4914 9.7233
" />
<path d="M41.0032 9.7233
L41.0032 8.4533
" />
<path d="M41.0032 9.6629
L40.8823 9.7233
" />
<path d="M40.8823 9.7233
L40.6404 9.7233
" />
<path d="M40.6404 9.7233
L40.5194 9.6629
" />
<path d="M40.5194 9.6629
L40.4589 9.6024
" />
<path d="M40.4589 9.6024
L40.3985 9.4814
" />
<path d="M40.3985 9.4814
L40.3985 9.1186
" />
<path d="M40.3985 9.1186
L40.4589 8.9976
" />
<path d="M40.4589 8.9976
L40.5194 8.9371
" />
<path d="M40.5194 8.9371
L40.6404 8.8767
" />
<path d="M40.6404 8.8767
L40.8823 8.8767
" />
<path d="M40.8823 8.8767
L41.0032 8.9371
" />
<path d="M42.1522 8.8767
L42.1522 9.7233
" />
<path d="M41.6079 8.8767
L41.6079 9.5419
" />
<path d="M41.6079 9.5419
L41.6684 9.6629
" />
<path d="M41.6684 9.6629
L41.7894 9.7233
" />
<path d="M41.7894 9.7233
L41.9708 9.7233
" />
<path d="M41.9708 9.7233
L42.0917 9.6629
" />
<path d="M42.0917 9.6629
L42.1522 9.6024
" />
<path d="M43.3012 9.6629
L43.1803 9.7233
" />
<path d="M43.1803 9.7233
L42.9384 9.7233
" />
<path d="M42.9384 9.7233
L42.8174 9.6629
" />
<path d="M42.8174 9.6629
L42.7569 9.6024
" />
<path d="M42.7569 9.6024
L42.6965 9.4814
" />
<path d="M42.6965 9.4814
L42.6965 9.1186
" />
<path d="M42.6965 9.1186
L42.7569 8.9976
" />
<path d="M42.7569 8.9976
L42.8174 8.9371
" />
<path d="M42.8174 8.9371
L42.9384 8.8767
" />
<path d="M42.9384 8.8767
L43.1803 8.8767
" />
<path d="M43.1803 8.8767
L43.3012 8.9371
" />
<path d="M43.6641 8.8767
L44.1479 8.8767
" />
<path d="M43.8455 8.4533
L43.8455 9.5419
" />
<path d="M43.8455 9.5419
L43.9060 9.6629
" />
<path d="M43.9060 9.6629
L44.0270 9.7233
" />
<path d="M44.0270 9.7233
L44.1479 9.7233
" />
<path d="M44.5712 9.2395
L45.5389 9.2395
" />
<path d="M46.1436 9.7233
L46.1436 8.8767
" />
<path d="M46.1436 8.4533
L46.0832 8.5138
" />
<path d="M46.0832 8.5138
L46.1436 8.5743
" />
<path d="M46.1436 8.5743
L46.2041 8.5138
" />
<path d="M46.2041 8.5138
L46.1436 8.4533
" />
<path d="M46.1436 8.4533
L46.1436 8.5743
" />
<path d="M46.7484 8.8767
L46.7484 9.7233
" />
<path d="M46.7484 8.9976
L46.8089 8.9371
" />
<path d="M46.8089 8.9371
L46.9299 8.8767
" />
<path d="M46.9299 8.8767
L47.1113 8.8767
" />
<path d="M47.1113 8.8767
L47.2322 8.9371
" />
<path d="M47.2322 8.9371
L47.2927 9.0581
" />
<path d="M47.2927 9.0581
L47.2927 9.7233
" />
<path d="M47.7160 8.8767
L48.1998 8.8767
" />
<path d="M47.8974 9.7233
L47.8974 8.6348
" />
<path d="M47.8974 8.6348
L47.9579 8.5138
" />
<path d="M47.9579 8.5138
L48.0789 8.4533
" />
<path d="M48.0789 8.4533
L48.1998 8.4533
" />
<path d="M48.8046 9.7233
L48.6836 9.6629
" />
<path d="M48.6836 9.6629
L48.6231 9.6024
" />
<path d="M48.6231 9.6024
L48.5627 9.4814
" />
<path d="M48.5627 9.4814
L48.5627 9.1186
" />
<path d="M48.5627 9.1186
L48.6231 8.9976
" />
<path d="M48.6231 8.9976
L48.6836 8.9371
" />
<path d="M48.6836 8.9371
L48.8046 8.8767
" />
<path d="M48.8046 8.8767
L48.9860 8.8767
" />
<path d="M48.9860 8.8767
L49.1069 8.9371
" />
<path d="M49.1069 8.9371
L49.1674 8.9976
" />
<path d="M49.1674 8.9976
L49.2279 9.1186
" />
<path d="M49.2279 9.1186
L49.2279 9.4814
" />
<path d="M49.2279 9.4814
L49.1674 9.6024
" />
<path d="M49.1674 9.6024
L49.1069 9.6629
" />
<path d="M49.1069 9.6629
L48.9860 9.7233
" />
<path d="M48.9860 9.7233
L48.8046 9.7233
" />
<path d="M50.6793 8.3929
L49.5907 10.0257
" />
<path d="M51.6469 9.7233
L51.6469 8.4533
" />
<path d="M51.6469 9.6629
L51.5260 9.7233
" />
<path d="M51.5260 9.7233
L51.2841 9.7233
" />
<path d="M51.2841 9.7233
L51.1631 9.6629
" />
<path d="M51.1631 9.6629
L51.1026 9.6024
" />
<path d="M51.1026 9.6024
L51.0422 9.4814
" />
<path d="M51.0422 9.4814
L51.0422 9.1186
" />
<path d="M51.0422 9.1186
L51.1026 8.9976
" />
<path d="M51.1026 8.9976
L51.1631 8.9371
" />
<path d="M51.1631 8.9371
L51.2841 8.8767
" />
<path d="M51.2841 8.8767
L51.5260 8.8767
" />
<path d="M51.5260 8.8767
L51.6469 8.9371
" />
<path d="M52.7959 9.7233
L52.7959 9.0581
" />
<path d="M52.7959 9.0581
L52.7354 8.9371
" />
<path d="M52.7354 8.9371
L52.6145 8.8767
" />
<path d="M52.6145 8.8767
L52.3726 8.8767
" />
<path d="M52.3726 8.8767
L52.2516 8.9371
" />
<path d="M52.7959 9.6629
L52.6750 9.7233
" />
<path d="M52.6750 9.7233
L52.3726 9.7233
" />
<path d="M52.3726 9.7233
L52.2516 9.6629
" />
<path d="M52.2516 9.6629
L52.1912 9.5419
" />
<path d="M52.1912 9.5419
L52.1912 9.4209
" />
<path d="M52.1912 9.4209
L52.2516 9.3000
" />
<path d="M52.2516 9.3000
L52.3726 9.2395
" />
<path d="M52.3726 9.2395
L52.6750 9.2395
" />
<path d="M52.6750 9.2395
L52.7959 9.1790
" />
<path d="M53.2192 8.8767
L53.7030 8.8767
" />
<path d="M53.4006 8.4533
L53.4006 9.5419
" />
<path d="M53.4006 9.5419
L53.4611 9.6629
" />
<path d="M53.4611 9.6629
L53.5821 9.7233
" />
<path d="M53.5821 9.7233
L53.7030 9.7233
" />
<path d="M54.6706 9.7233
L54.6706 9.0581
" />
<path d="M54.6706 9.0581
L54.6101 8.9371
" />
<path d="M54.6101 8.9371
L54.4892 8.8767
" />
<path d="M54.4892 8.8767
L54.2473 8.8767
" />
<path d="M54.2473 8.8767
L54.1263 8.9371
" />
<path d="M54.6706 9.6629
L54.5497 9.7233
" />
<path d="M54.5497 9.7233
L54.2473 9.7233
" />
<path d="M54.2473 9.7233
L54.1263 9.6629
" />
<path d="M54.1263 9.6629
L54.0659 9.5419
" />
<path d="M54.0659 9.5419
L54.0659 9.4209
" />
<path d="M54.0659 9.4209
L54.1263 9.3000
" />
<path d="M54.1263 9.3000
L54.2473 9.2395
" />
<path d="M54.2473 9.2395
L54.5497 9.2395
" />
<path d="M54.5497 9.2395
L54.6706 9.1790
" />
<path d="M55.2149 9.6629
L55.3358 9.7233
" />
<path d="M55.3358 9.7233
L55.5777 9.7233
" />
<path d="M55.5777 9.7233
L55.6987 9.6629
" />
<path d="M55.6987 9.6629
L55.7591 9.5419
" />
<path d="M55.7591 9.5419
L55.7591 9.4814
" />
<path d="M55.7591 9.4814
L55.6987 9.3605
" />
<path d="M55.6987 9.3605
L55.5777 9.3000
" />
<path d="M55.5777 9.3000
L55.3963 9.3000
" />
<path d="M55.3963 9.3000
L55.2753 9.2395
" />
<path d="M55.2753 9.2395
L55.2149 9.1186
" />
<path d="M55.2149 9.1186
L55.2149 9.0581
" />
<path d="M55.2149 9.0581
L55.2753 8.9371
" />
<path d="M55.2753 8.9371
L55.3963 8.8767
" />
<path d="M55.3963 8.8767
L55.5777 8.8767
" />
<path d="M55.5777 8.8767
L55.6987 8.9371
" />
<path d="M56.3034 9.7233
L56.3034 8.4533
" />
<path d="M56.8477 9.7233
L56.8477 9.0581
" />
<path d="M56.8477 9.0581
L56.7872 8.9371
" />
<path d="M56.7872 8.9371
L56.6663 8.8767
" />
<path d="M56.6663 8.8767
L56.4849 8.8767
" />
<path d="M56.4849 8.8767
L56.3639 8.9371
" />
<path d="M56.3639 8.9371
L56.3034 8.9976
" />
<path d="M57.9362 9.6629
L57.8153 9.7233
" />
<path d="M57.8153 9.7233
L57.5734 9.7233
" />
<path d="M57.5734 9.7233
L57.4524 9.6629
" />
<path d="M57.4524 9.6629
L57.3920 9.5419
" />
<path d="M57.3920 9.5419
L57.3920 9.0581
" />
<path d="M57.3920 9.0581
L57.4524 8.9371
" />
<path d="M57.4524 8.9371
L57.5734 8.8767
" />
<path d="M57.5734 8.8767
L57.8153 8.8767
" />
<path d="M57.8153 8.8767
L57.9362 8.9371
" />
<path d="M57.9362 8.9371
L57.9967 9.0581
" />
<path d="M57.9967 9.0581
L57.9967 9.1790
" />
<path d="M57.9967 9.1790
L57.3920 9.3000
" />
<path d="M59.0248 9.6629
L58.9039 9.7233
" />
<path d="M58.9039 9.7233
L58.6620 9.7233
" />
<path d="M58.6620 9.7233
L58.5410 9.6629
" />
<path d="M58.5410 9.6629
L58.4806 9.5419
" />
<path d="M58.4806 9.5419
L58.4806 9.0581
" />
<path d="M58.4806 9.0581
L58.5410 8.9371
" />
<path d="M58.5410 8.9371
L58.6620 8.8767
" />
<path d="M58.6620 8.8767
L58.9039 8.8767
" />
<path d="M58.9039 8.8767
L59.0248 8.9371
" />
<path d="M59.0248 8.9371
L59.0853 9.0581
" />
<path d="M59.0853 9.0581
L59.0853 9.1790
" />
<path d="M59.0853 9.1790
L58.4806 9.3000
" />
<path d="M59.4482 8.8767
L59.9320 8.8767
" />
<path d="M59.6296 8.4533
L59.6296 9.5419
" />
<path d="M59.6296 9.5419
L59.6901 9.6629
" />
<path d="M59.6901 9.6629
L59.8111 9.7233
" />
<path d="M59.8111 9.7233
L59.9320 9.7233
" />
<path d="M60.2949 9.6629
L60.4158 9.7233
" />
<path d="M60.4158 9.7233
L60.6577 9.7233
" />
<path d="M60.6577 9.7233
L60.7787 9.6629
" />
<path d="M60.7787 9.6629
L60.8391 9.5419
" />
<path d="M60.8391 9.5419
L60.8391 9.4814
" />
<path d="M60.8391 9.4814
L60.7787 9.3605
" />
<path d="M60.7787 9.3605
L60.6577 9.3000
" />
<path d="M60.6577 9.3000
L60.4763 9.3000
" />
<path d="M60.4763 9.3000
L60.3553 9.2395
" />
<path d="M60.3553 9.2395
L60.2949 9.1186
" />
<path d="M60.2949 9.1186
L60.2949 9.0581
" />
<path d="M60.2949 9.0581
L60.3553 8.9371
" />
<path d="M60.3553 8.9371
L60.4763 8.8767
" />
<path d="M60.4763 8.8767
L60.6577 8.8767
" />
<path d="M60.6577 8.8767
L60.7787 8.9371
" />
<path d="M62.2906 8.3929
L61.2020 10.0257
" />
<path d="M63.2582 9.7233
L63.2582 8.4533
" />
<path d="M63.2582 9.6629
L63.1373 9.7233
" />
<path d="M63.1373 9.7233
L62.8954 9.7233
" />
<path d="M62.8954 9.7233
L62.7744 9.6629
" />
<path d="M62.7744 9.6629
L62.7139 9.6024
" />
<path d="M62.7139 9.6024
L62.6535 9.4814
" />
<path d="M62.6535 9.4814
L62.6535 9.1186
" />
<path d="M62.6535 9.1186
L62.7139 8.9976
" />
<path d="M62.7139 8.9976
L62.7744 8.9371
" />
<path d="M62.7744 8.9371
L62.8954 8.8767
" />
<path d="M62.8954 8.8767
L63.1373 8.8767
" />
<path d="M63.1373 8.8767
L63.2582 8.9371
" />
<path d="M64.4072 9.7233
L64.4072 9.0581
" />
<path d="M64.4072 9.0581
L64.3467 8.9371
" />
<path d="M64.3467 8.9371
L64.2258 8.8767
" />
<path d="M64.2258 8.8767
L63.9839 8.8767
" />
<path d="M63.9839 8.8767
L63.8629 8.9371
" />
<path d="M64.4072 9.6629
L64.2863 9.7233
" />
<path d="M64.2863 9.7233
L63.9839 9.7233
" />
<path d="M63.9839 9.7233
L63.8629 9.6629
" />
<path d="M63.8629 9.6629
L63.8025 9.5419
" />
<path d="M63.8025 9.5419
L63.8025 9.4209
" />
<path d="M63.8025 9.4209
L63.8629 9.3000
" />
<path d="M63.8629 9.3000
L63.9839 9.2395
" />
<path d="M63.9839 9.2395
L64.2863 9.2395
" />
<path d="M64.2863 9.2395
L64.4072 9.1790
" />
<path d="M64.8305 8.8767
L65.3143 8.8767
" />
<path d="M65.0119 8.4533
L65.0119 9.5419
" />
<path d="M65.0119 9.5419
L65.0724 9.6629
" />
<path d="M65.0724 9.6629
L65.1934 9.7233
" />
<path d="M65.1934 9.7233
L65.3143 9.7233
" />
<path d="M66.2819 9.7233
L66.2819 9.0581
" />
<path d="M66.2819 9.0581
L66.2214 8.9371
" />
<path d="M66.2214 8.9371
L66.1005 8.8767
" />
<path d="M66.1005 8.8767
L65.8586 8.8767
" />
<path d="M65.8586 8.8767
L65.7376 8.9371
" />
<path d="M66.2819 9.6629
L66.1610 9.7233
" />
<path d="M66.1610 9.7233
L65.8586 9.7233
" />
<path d="M65.8586 9.7233
L65.7376 9.6629
" />
<path d="M65.7376 9.6629
L65.6772 9.5419
" />
<path d="M65.6772 9.5419
L65.6772 9.4209
" />
<path d="M65.6772 9.4209
L65.7376 9.3000
" />
<path d="M65.7376 9.3000
L65.8586 9.2395
" />
<path d="M65.8586 9.2395
L66.1610 9.2395
" />
<path d="M66.1610 9.2395
L66.2819 9.1790
" />
<path d="M67.7938 8.3929
L66.7052 10.0257
" />
<path d="M68.2171 9.7233
L68.2171 8.8767
" />
<path d="M68.2171 8.4533
L68.1567 8.5138
" />
<path d="M68.1567 8.5138
L68.2171 8.5743
" />
<path d="M68.2171 8.5743
L68.2776 8.5138
" />
<path d="M68.2776 8.5138
L68.2171 8.4533
" />
<path d="M68.2171 8.4533
L68.2171 8.5743
" />
<path d="M68.8219 8.8767
L68.8219 10.1467
" />
<path d="M68.8219 8.9371
L68.9429 8.8767
" />
<path d="M68.9429 8.8767
L69.1848 8.8767
" />
<path d="M69.1848 8.8767
L69.3057 8.9371
" />
<path d="M69.3057 8.9371
L69.3662 8.9976
" />
<path d="M69.3662 8.9976
L69.4267 9.1186
" />
<path d="M69.4267 9.1186
L69.4267 9.4814
" />
<path d="M69.4267 9.4814
L69.3662 9.6024
" />
<path d="M69.3662 9.6024
L69.3057 9.6629
" />
<path d="M69.3057 9.6629
L69.1848 9.7233
" />
<path d="M69.1848 9.7233
L68.9429 9.7233
" />
<path d="M68.9429 9.7233
L68.8219 9.6629
" />
<path d="M69.9105 9.6629
L70.0314 9.7233
" />
<path d="M70.0314 9.7233
L70.2733 9.7233
" />
<path d="M70.2733 9.7233
L70.3943 9.6629
" />
<path d="M70.3943 9.6629
L70.4547 9.5419
" />
<path d="M70.4547 9.5419
L70.4547 9.4814
" />
<path d="M70.4547 9.4814
L70.3943 9.3605
" />
<path d="M70.3943 9.3605
L70.2733 9.3000
" />
<path d="M70.2733 9.3000
L70.0919 9.3000
" />
<path d="M70.0919 9.3000
L69.9709 9.2395
" />
<path d="M69.9709 9.2395
L69.9105 9.1186
" />
<path d="M69.9105 9.1186
L69.9105 9.0581
" />
<path d="M69.9105 9.0581
L69.9709 8.9371
" />
<path d="M69.9709 8.9371
L70.0919 8.8767
" />
<path d="M70.0919 8.8767
L70.2733 8.8767
" />
<path d="M70.2733 8.8767
L70.3943 8.9371
" />
<path d="M70.8781 8.4533
L71.7247 8.4533
" />
<path d="M71.7247 8.4533
L71.1805 9.7233
" />
<path d="M72.4504 8.4533
L72.5714 8.4533
" />
<path d="M72.5714 8.4533
L72.6923 8.5138
" />
<path d="M72.6923 8.5138
L72.7528 8.5743
" />
<path d="M72.7528 8.5743
L72.8133 8.6952
" />
<path d="M72.8133 8.6952
L72.8738 8.9371
" />
<path d="M72.8738 8.9371
L72.8738 9.2395
" />
<path d="M72.8738 9.2395
L72.8133 9.4814
" />
<path d="M72.8133 9.4814
L72.7528 9.6024
" />
<path d="M72.7528 9.6024
L72.6923 9.6629
" />
<path d="M72.6923 9.6629
L72.5714 9.7233
" />
<path d="M72.5714 9.7233
L72.4504 9.7233
" />
<path d="M72.4504 9.7233
L72.3295 9.6629
" />
<path d="M72.3295 9.6629
L72.2690 9.6024
" />
<path d="M72.2690 9.6024
L72.2085 9.4814
" />
<path d="M72.2085 9.4814
L72.1481 9.2395
" />
<path d="M72.1481 9.2395
L72.1481 8.9371
" />
<path d="M72.1481 8.9371
L72.2085 8.6952
" />
<path d="M72.2085 8.6952
L72.2690 8.5743
" />
<path d="M72.2690 8.5743
L72.3295 8.5138
" />
<path d="M72.3295 8.5138
L72.4504 8.4533
" />
<path d="M73.4785 9.7233
L73.7204 9.7233
" />
<path d="M73.7204 9.7233
L73.8414 9.6629
" />
<path d="M73.8414 9.6629
L73.9018 9.6024
" />
<path d="M73.9018 9.6024
L74.0228 9.4209
" />
<path d="M74.0228 9.4209
L74.0833 9.1790
" />
<path d="M74.0833 9.1790
L74.0833 8.6952
" />
<path d="M74.0833 8.6952
L74.0228 8.5743
" />
<path d="M74.0228 8.5743
L73.9623 8.5138
" />
<path d="M73.9623 8.5138
L73.8414 8.4533
" />
<path d="M73.8414 8.4533
L73.5995 8.4533
" />
<path d="M73.5995 8.4533
L73.4785 8.5138
" />
<path d="M73.4785 8.5138
L73.4180 8.5743
" />
<path d="M73.4180 8.5743
L73.3576 8.6952
" />
<path d="M73.3576 8.6952
L73.3576 8.9976
" />
<path d="M73.3576 8.9976
L73.4180 9.1186
" />
<path d="M73.4180 9.1186
L73.4785 9.1790
" />
<path d="M73.4785 9.1790
L73.5995 9.2395
" />
<path d="M73.5995 9.2395
L73.8414 9.2395
" />
<path d="M73.8414 9.2395
L73.9623 9.1790
" />
<path d="M73.9623 9.1790
L74.0228 9.1186
" />
<path d="M74.0228 9.1186
L74.0833 8.9976
" />
<path d="M75.2928 9.7233
L74.5671 9.7233
" />
<path d="M74.9299 9.7233
L74.9299 8.4533
" />
<path d="M74.9299 8.4533
L74.8090 8.6348
" />
<path d="M74.8090 8.6348
L74.6880 8.7557
" />
<path d="M74.6880 8.7557
L74.5671 8.8162
" />
<path d="M75.8370 9.6024
L75.8975 9.6629
" />
<path d="M75.8975 9.6629
L75.8370 9.7233
" />
<path d="M75.8370 9.7233
L75.7766 9.6629
" />
<path d="M75.7766 9.6629
L75.8370 9.6024
" />
<path d="M75.8370 9.6024
L75.8370 9.7233
" />
<path d="M76.4418 8.8767
L76.4418 10.1467
" />
<path d="M76.4418 8.9371
L76.5628 8.8767
" />
<path d="M76.5628 8.8767
L76.8047 8.8767
" />
<path d="M76.8047 8.8767
L76.9256 8.9371
" />
<path d="M76.9256 8.9371
L76.9861 8.9976
" />
<path d="M76.9861 8.9976
L77.0466 9.1186
" />
<path d="M77.0466 9.1186
L77.0466 9.4814
" />
<path d="M77.0466 9.4814
L76.9861 9.6024
" />
<path d="M76.9861 9.6024
L76.9256 9.6629
" />
<path d="M76.9256 9.6629
L76.8047 9.7233
" />
<path d="M76.8047 9.7233
L76.5628 9.7233
" />
<path d="M76.5628 9.7233
L76.4418 9.6629
" />
<path d="M78.1351 9.7233
L78.1351 8.4533
" />
<path d="M78.1351 9.6629
L78.0142 9.7233
" />
<path d="M78.0142 9.7233
L77.7723 9.7233
" />
<path d="M77.7723 9.7233
L77.6513 9.6629
" />
<path d="M77.6513 9.6629
L77.5908 9.6024
" />
<path d="M77.5908 9.6024
L77.5304 9.4814
" />
<path d="M77.5304 9.4814
L77.5304 9.1186
" />
<path d="M77.5304 9.1186
L77.5908 8.9976
" />
<path d="M77.5908 8.9976
L77.6513 8.9371
" />
<path d="M77.6513 8.9371
L77.7723 8.8767
" />
<path d="M77.7723 8.8767
L78.0142 8.8767
" />
<path d="M78.0142 8.8767
L78.1351 8.9371
" />
<path d="M78.5584 8.8767
L79.0422 8.8767
" />
<path d="M78.7398 9.7233
L78.7398 8.6348
" />
<path d="M78.7398 8.6348
L78.8003 8.5138
" />
<path d="M78.8003 8.5138
L78.9213 8.4533
" />
<path d="M78.9213 8.4533
L79.0422 8.4533
" />
</g></g> 
</svg>
