<?xml version="1.0" standalone="no"?>
 <!DOCTYPE svg PUBLIC "-//W3C//DTD SVG 1.1//EN" 
 "http://www.w3.org/Graphics/SVG/1.1/DTD/svg11.dtd"> 
<svg
  xmlns:svg="http://www.w3.org/2000/svg"
  xmlns="http://www.w3.org/2000/svg"
  xmlns:xlink="http://www.w3.org/1999/xlink"
  version="1.1"
  width="61.8744mm" height="10.8458mm" viewBox="0.0000 0.0000 61.8744 10.8458">
<title>SVG Image created as working.svg date 2023/08/14 09:11:22 </title>
  <desc>Image generated by Eeschema-SVG </desc>
<g style="fill:#000000; fill-opacity:1.0000;stroke:#000000; stroke-opacity:1.0000;
stroke-linecap:round; stroke-linejoin:round;"
 transform="translate(0 0) scale(1 1)">
</g>
<g style="fill:#840000; fill-opacity:0.0; 
stroke:#840000; stroke-width:0.0000; stroke-opacity:1; 
stroke-linecap:round; stroke-linejoin:round;">
</g>
<g style="fill:#840084; fill-opacity:0.0; 
stroke:#840084; stroke-width:0.0000; stroke-opacity:1; 
stroke-linecap:round; stroke-linejoin:round;">
</g>
<g style="fill:#840000; fill-opacity:0.0; 
stroke:#840000; stroke-width:0.0000; stroke-opacity:1; 
stroke-linecap:round; stroke-linejoin:round;">
</g>
<g style="fill:#840084; fill-opacity:0.0; 
stroke:#840084; stroke-width:0.0000; stroke-opacity:1; 
stroke-linecap:round; stroke-linejoin:round;">
</g>
<g style="fill:#006464; fill-opacity:0.0; 
stroke:#006464; stroke-width:0.0000; stroke-opacity:1; 
stroke-linecap:round; stroke-linejoin:round;">
</g>
<g style="fill:#006464; fill-opacity:0.0; 
stroke:#006464; stroke-width:0.1588; stroke-opacity:1; 
stroke-linecap:round; stroke-linejoin:round;">
<text x="27.1299" y="5.0994"
textLength="2.6415" font-size="1.6933" lengthAdjust="spacingAndGlyphs"
text-anchor="middle" opacity="0">U?</text>
<g class="stroked-text"><desc>U?</desc>
<path d="M26.2227 3.7736
L26.2227 4.8017
" />
<path d="M26.2227 4.8017
L26.2832 4.9227
" />
<path d="M26.2832 4.9227
L26.3437 4.9832
" />
<path d="M26.3437 4.9832
L26.4646 5.0436
" />
<path d="M26.4646 5.0436
L26.7065 5.0436
" />
<path d="M26.7065 5.0436
L26.8275 4.9832
" />
<path d="M26.8275 4.9832
L26.8880 4.9227
" />
<path d="M26.8880 4.9227
L26.9484 4.8017
" />
<path d="M26.9484 4.8017
L26.9484 3.7736
" />
<path d="M27.7347 4.9227
L27.7951 4.9832
" />
<path d="M27.7951 4.9832
L27.7347 5.0436
" />
<path d="M27.7347 5.0436
L27.6742 4.9832
" />
<path d="M27.6742 4.9832
L27.7347 4.9227
" />
<path d="M27.7347 4.9227
L27.7347 5.0436
" />
<path d="M27.4928 3.8341
L27.6137 3.7736
" />
<path d="M27.6137 3.7736
L27.9161 3.7736
" />
<path d="M27.9161 3.7736
L28.0370 3.8341
" />
<path d="M28.0370 3.8341
L28.0975 3.9551
" />
<path d="M28.0975 3.9551
L28.0975 4.0760
" />
<path d="M28.0975 4.0760
L28.0370 4.1970
" />
<path d="M28.0370 4.1970
L27.9766 4.2574
" />
<path d="M27.9766 4.2574
L27.8556 4.3179
" />
<path d="M27.8556 4.3179
L27.7951 4.3784
" />
<path d="M27.7951 4.3784
L27.7347 4.4993
" />
<path d="M27.7347 4.4993
L27.7347 4.5598
" />
</g><text x="35.1937" y="5.0994"
textLength="8.5076" font-size="1.6933" lengthAdjust="spacingAndGlyphs"
text-anchor="middle" opacity="0">KF50BDT</text>
<g class="stroked-text"><desc>KF50BDT</desc>
<path d="M31.3534 5.0436
L31.3534 3.7736
" />
<path d="M32.0791 5.0436
L31.5349 4.3179
" />
<path d="M32.0791 3.7736
L31.3534 4.4993
" />
<path d="M33.0468 4.3784
L32.6234 4.3784
" />
<path d="M32.6234 5.0436
L32.6234 3.7736
" />
<path d="M32.6234 3.7736
L33.2282 3.7736
" />
<path d="M34.3168 3.7736
L33.7120 3.7736
" />
<path d="M33.7120 3.7736
L33.6516 4.3784
" />
<path d="M33.6516 4.3784
L33.7120 4.3179
" />
<path d="M33.7120 4.3179
L33.8330 4.2574
" />
<path d="M33.8330 4.2574
L34.1354 4.2574
" />
<path d="M34.1354 4.2574
L34.2563 4.3179
" />
<path d="M34.2563 4.3179
L34.3168 4.3784
" />
<path d="M34.3168 4.3784
L34.3773 4.4993
" />
<path d="M34.3773 4.4993
L34.3773 4.8017
" />
<path d="M34.3773 4.8017
L34.3168 4.9227
" />
<path d="M34.3168 4.9227
L34.2563 4.9832
" />
<path d="M34.2563 4.9832
L34.1354 5.0436
" />
<path d="M34.1354 5.0436
L33.8330 5.0436
" />
<path d="M33.8330 5.0436
L33.7120 4.9832
" />
<path d="M33.7120 4.9832
L33.6516 4.9227
" />
<path d="M35.1634 3.7736
L35.2844 3.7736
" />
<path d="M35.2844 3.7736
L35.4053 3.8341
" />
<path d="M35.4053 3.8341
L35.4658 3.8946
" />
<path d="M35.4658 3.8946
L35.5263 4.0155
" />
<path d="M35.5263 4.0155
L35.5868 4.2574
" />
<path d="M35.5868 4.2574
L35.5868 4.5598
" />
<path d="M35.5868 4.5598
L35.5263 4.8017
" />
<path d="M35.5263 4.8017
L35.4658 4.9227
" />
<path d="M35.4658 4.9227
L35.4053 4.9832
" />
<path d="M35.4053 4.9832
L35.2844 5.0436
" />
<path d="M35.2844 5.0436
L35.1634 5.0436
" />
<path d="M35.1634 5.0436
L35.0425 4.9832
" />
<path d="M35.0425 4.9832
L34.9820 4.9227
" />
<path d="M34.9820 4.9227
L34.9215 4.8017
" />
<path d="M34.9215 4.8017
L34.8611 4.5598
" />
<path d="M34.8611 4.5598
L34.8611 4.2574
" />
<path d="M34.8611 4.2574
L34.9215 4.0155
" />
<path d="M34.9215 4.0155
L34.9820 3.8946
" />
<path d="M34.9820 3.8946
L35.0425 3.8341
" />
<path d="M35.0425 3.8341
L35.1634 3.7736
" />
<path d="M36.5544 4.3784
L36.7358 4.4389
" />
<path d="M36.7358 4.4389
L36.7963 4.4993
" />
<path d="M36.7963 4.4993
L36.8567 4.6203
" />
<path d="M36.8567 4.6203
L36.8567 4.8017
" />
<path d="M36.8567 4.8017
L36.7963 4.9227
" />
<path d="M36.7963 4.9227
L36.7358 4.9832
" />
<path d="M36.7358 4.9832
L36.6148 5.0436
" />
<path d="M36.6148 5.0436
L36.1310 5.0436
" />
<path d="M36.1310 5.0436
L36.1310 3.7736
" />
<path d="M36.1310 3.7736
L36.5544 3.7736
" />
<path d="M36.5544 3.7736
L36.6753 3.8341
" />
<path d="M36.6753 3.8341
L36.7358 3.8946
" />
<path d="M36.7358 3.8946
L36.7963 4.0155
" />
<path d="M36.7963 4.0155
L36.7963 4.1365
" />
<path d="M36.7963 4.1365
L36.7358 4.2574
" />
<path d="M36.7358 4.2574
L36.6753 4.3179
" />
<path d="M36.6753 4.3179
L36.5544 4.3784
" />
<path d="M36.5544 4.3784
L36.1310 4.3784
" />
<path d="M37.4010 5.0436
L37.4010 3.7736
" />
<path d="M37.4010 3.7736
L37.7034 3.7736
" />
<path d="M37.7034 3.7736
L37.8848 3.8341
" />
<path d="M37.8848 3.8341
L38.0058 3.9551
" />
<path d="M38.0058 3.9551
L38.0663 4.0760
" />
<path d="M38.0663 4.0760
L38.1267 4.3179
" />
<path d="M38.1267 4.3179
L38.1267 4.4993
" />
<path d="M38.1267 4.4993
L38.0663 4.7412
" />
<path d="M38.0663 4.7412
L38.0058 4.8622
" />
<path d="M38.0058 4.8622
L37.8848 4.9832
" />
<path d="M37.8848 4.9832
L37.7034 5.0436
" />
<path d="M37.7034 5.0436
L37.4010 5.0436
" />
<path d="M38.4896 3.7736
L39.2153 3.7736
" />
<path d="M38.8525 5.0436
L38.8525 3.7736
" />
</g></g>
<g style="fill:#840084; fill-opacity:0.0; 
stroke:#840084; stroke-width:0.1588; stroke-opacity:1; 
stroke-linecap:round; stroke-linejoin:round;">
<text x="31.0193" y="2.5594"
textLength="31.6698" font-size="1.6933" lengthAdjust="spacingAndGlyphs"
text-anchor="middle" opacity="0">Package_TO_SOT_SMD:TO-252-2</text>
<g class="stroked-text"><desc>Package_TO_SOT_SMD:TO-252-2</desc>
<path d="M15.5904 2.5036
L15.7491 1.2336
" />
<path d="M15.7491 1.2336
L16.2329 1.2336
" />
<path d="M16.2329 1.2336
L16.3463 1.2941
" />
<path d="M16.3463 1.2941
L16.3992 1.3546
" />
<path d="M16.3992 1.3546
L16.4446 1.4755
" />
<path d="M16.4446 1.4755
L16.4219 1.6570
" />
<path d="M16.4219 1.6570
L16.3463 1.7779
" />
<path d="M16.3463 1.7779
L16.2783 1.8384
" />
<path d="M16.2783 1.8384
L16.1498 1.8989
" />
<path d="M16.1498 1.8989
L15.6660 1.8989
" />
<path d="M17.4047 2.5036
L17.4878 1.8384
" />
<path d="M17.4878 1.8384
L17.4425 1.7174
" />
<path d="M17.4425 1.7174
L17.3291 1.6570
" />
<path d="M17.3291 1.6570
L17.0872 1.6570
" />
<path d="M17.0872 1.6570
L16.9586 1.7174
" />
<path d="M17.4122 2.4432
L17.2837 2.5036
" />
<path d="M17.2837 2.5036
L16.9813 2.5036
" />
<path d="M16.9813 2.5036
L16.8679 2.4432
" />
<path d="M16.8679 2.4432
L16.8226 2.3222
" />
<path d="M16.8226 2.3222
L16.8377 2.2012
" />
<path d="M16.8377 2.2012
L16.9133 2.0803
" />
<path d="M16.9133 2.0803
L17.0418 2.0198
" />
<path d="M17.0418 2.0198
L17.3442 2.0198
" />
<path d="M17.3442 2.0198
L17.4727 1.9593
" />
<path d="M18.5612 2.4432
L18.4327 2.5036
" />
<path d="M18.4327 2.5036
L18.1908 2.5036
" />
<path d="M18.1908 2.5036
L18.0774 2.4432
" />
<path d="M18.0774 2.4432
L18.0245 2.3827
" />
<path d="M18.0245 2.3827
L17.9791 2.2617
" />
<path d="M17.9791 2.2617
L18.0245 1.8989
" />
<path d="M18.0245 1.8989
L18.1001 1.7779
" />
<path d="M18.1001 1.7779
L18.1681 1.7174
" />
<path d="M18.1681 1.7174
L18.2966 1.6570
" />
<path d="M18.2966 1.6570
L18.5385 1.6570
" />
<path d="M18.5385 1.6570
L18.6519 1.7174
" />
<path d="M19.0980 2.5036
L19.2567 1.2336
" />
<path d="M19.2794 2.0198
L19.5818 2.5036
" />
<path d="M19.6876 1.6570
L19.1433 2.1408
" />
<path d="M20.6704 2.5036
L20.7535 1.8384
" />
<path d="M20.7535 1.8384
L20.7082 1.7174
" />
<path d="M20.7082 1.7174
L20.5948 1.6570
" />
<path d="M20.5948 1.6570
L20.3529 1.6570
" />
<path d="M20.3529 1.6570
L20.2243 1.7174
" />
<path d="M20.6779 2.4432
L20.5494 2.5036
" />
<path d="M20.5494 2.5036
L20.2470 2.5036
" />
<path d="M20.2470 2.5036
L20.1336 2.4432
" />
<path d="M20.1336 2.4432
L20.0883 2.3222
" />
<path d="M20.0883 2.3222
L20.1034 2.2012
" />
<path d="M20.1034 2.2012
L20.1790 2.0803
" />
<path d="M20.1790 2.0803
L20.3075 2.0198
" />
<path d="M20.3075 2.0198
L20.6099 2.0198
" />
<path d="M20.6099 2.0198
L20.7384 1.9593
" />
<path d="M21.9252 1.6570
L21.7967 2.6851
" />
<path d="M21.7967 2.6851
L21.7211 2.8060
" />
<path d="M21.7211 2.8060
L21.6530 2.8665
" />
<path d="M21.6530 2.8665
L21.5245 2.9270
" />
<path d="M21.5245 2.9270
L21.3431 2.9270
" />
<path d="M21.3431 2.9270
L21.2297 2.8665
" />
<path d="M21.8269 2.4432
L21.6984 2.5036
" />
<path d="M21.6984 2.5036
L21.4565 2.5036
" />
<path d="M21.4565 2.5036
L21.3431 2.4432
" />
<path d="M21.3431 2.4432
L21.2902 2.3827
" />
<path d="M21.2902 2.3827
L21.2448 2.2617
" />
<path d="M21.2448 2.2617
L21.2902 1.8989
" />
<path d="M21.2902 1.8989
L21.3658 1.7779
" />
<path d="M21.3658 1.7779
L21.4338 1.7174
" />
<path d="M21.4338 1.7174
L21.5623 1.6570
" />
<path d="M21.5623 1.6570
L21.8042 1.6570
" />
<path d="M21.8042 1.6570
L21.9176 1.7174
" />
<path d="M22.9154 2.4432
L22.7869 2.5036
" />
<path d="M22.7869 2.5036
L22.5450 2.5036
" />
<path d="M22.5450 2.5036
L22.4316 2.4432
" />
<path d="M22.4316 2.4432
L22.3863 2.3222
" />
<path d="M22.3863 2.3222
L22.4468 1.8384
" />
<path d="M22.4468 1.8384
L22.5223 1.7174
" />
<path d="M22.5223 1.7174
L22.6509 1.6570
" />
<path d="M22.6509 1.6570
L22.8928 1.6570
" />
<path d="M22.8928 1.6570
L23.0062 1.7174
" />
<path d="M23.0062 1.7174
L23.0515 1.8384
" />
<path d="M23.0515 1.8384
L23.0364 1.9593
" />
<path d="M23.0364 1.9593
L22.4165 2.0803
" />
<path d="M23.1952 2.6246
L24.1628 2.6246
" />
<path d="M24.4576 1.2336
L25.1833 1.2336
" />
<path d="M24.6617 2.5036
L24.8205 1.2336
" />
<path d="M25.8485 1.2336
L26.0904 1.2336
" />
<path d="M26.0904 1.2336
L26.2038 1.2941
" />
<path d="M26.2038 1.2941
L26.3097 1.4151
" />
<path d="M26.3097 1.4151
L26.3399 1.6570
" />
<path d="M26.3399 1.6570
L26.2870 2.0803
" />
<path d="M26.2870 2.0803
L26.1963 2.3222
" />
<path d="M26.1963 2.3222
L26.0602 2.4432
" />
<path d="M26.0602 2.4432
L25.9317 2.5036
" />
<path d="M25.9317 2.5036
L25.6898 2.5036
" />
<path d="M25.6898 2.5036
L25.5764 2.4432
" />
<path d="M25.5764 2.4432
L25.4706 2.3222
" />
<path d="M25.4706 2.3222
L25.4403 2.0803
" />
<path d="M25.4403 2.0803
L25.4932 1.6570
" />
<path d="M25.4932 1.6570
L25.5839 1.4151
" />
<path d="M25.5839 1.4151
L25.7200 1.2941
" />
<path d="M25.7200 1.2941
L25.8485 1.2336
" />
<path d="M26.4609 2.6246
L27.4285 2.6246
" />
<path d="M27.6931 2.4432
L27.8669 2.5036
" />
<path d="M27.8669 2.5036
L28.1693 2.5036
" />
<path d="M28.1693 2.5036
L28.2978 2.4432
" />
<path d="M28.2978 2.4432
L28.3659 2.3827
" />
<path d="M28.3659 2.3827
L28.4414 2.2617
" />
<path d="M28.4414 2.2617
L28.4566 2.1408
" />
<path d="M28.4566 2.1408
L28.4112 2.0198
" />
<path d="M28.4112 2.0198
L28.3583 1.9593
" />
<path d="M28.3583 1.9593
L28.2449 1.8989
" />
<path d="M28.2449 1.8989
L28.0106 1.8384
" />
<path d="M28.0106 1.8384
L27.8972 1.7779
" />
<path d="M27.8972 1.7779
L27.8442 1.7174
" />
<path d="M27.8442 1.7174
L27.7989 1.5965
" />
<path d="M27.7989 1.5965
L27.8140 1.4755
" />
<path d="M27.8140 1.4755
L27.8896 1.3546
" />
<path d="M27.8896 1.3546
L27.9576 1.2941
" />
<path d="M27.9576 1.2941
L28.0862 1.2336
" />
<path d="M28.0862 1.2336
L28.3885 1.2336
" />
<path d="M28.3885 1.2336
L28.5624 1.2941
" />
<path d="M29.3561 1.2336
L29.5980 1.2336
" />
<path d="M29.5980 1.2336
L29.7114 1.2941
" />
<path d="M29.7114 1.2941
L29.8173 1.4151
" />
<path d="M29.8173 1.4151
L29.8475 1.6570
" />
<path d="M29.8475 1.6570
L29.7946 2.0803
" />
<path d="M29.7946 2.0803
L29.7039 2.3222
" />
<path d="M29.7039 2.3222
L29.5678 2.4432
" />
<path d="M29.5678 2.4432
L29.4393 2.5036
" />
<path d="M29.4393 2.5036
L29.1974 2.5036
" />
<path d="M29.1974 2.5036
L29.0840 2.4432
" />
<path d="M29.0840 2.4432
L28.9782 2.3222
" />
<path d="M28.9782 2.3222
L28.9479 2.0803
" />
<path d="M28.9479 2.0803
L29.0008 1.6570
" />
<path d="M29.0008 1.6570
L29.0915 1.4151
" />
<path d="M29.0915 1.4151
L29.2276 1.2941
" />
<path d="M29.2276 1.2941
L29.3561 1.2336
" />
<path d="M30.2633 1.2336
L30.9890 1.2336
" />
<path d="M30.4674 2.5036
L30.6262 1.2336
" />
<path d="M30.9361 2.6246
L31.9037 2.6246
" />
<path d="M32.1683 2.4432
L32.3421 2.5036
" />
<path d="M32.3421 2.5036
L32.6445 2.5036
" />
<path d="M32.6445 2.5036
L32.7730 2.4432
" />
<path d="M32.7730 2.4432
L32.8411 2.3827
" />
<path d="M32.8411 2.3827
L32.9166 2.2617
" />
<path d="M32.9166 2.2617
L32.9318 2.1408
" />
<path d="M32.9318 2.1408
L32.8864 2.0198
" />
<path d="M32.8864 2.0198
L32.8335 1.9593
" />
<path d="M32.8335 1.9593
L32.7201 1.8989
" />
<path d="M32.7201 1.8989
L32.4858 1.8384
" />
<path d="M32.4858 1.8384
L32.3724 1.7779
" />
<path d="M32.3724 1.7779
L32.3194 1.7174
" />
<path d="M32.3194 1.7174
L32.2741 1.5965
" />
<path d="M32.2741 1.5965
L32.2892 1.4755
" />
<path d="M32.2892 1.4755
L32.3648 1.3546
" />
<path d="M32.3648 1.3546
L32.4328 1.2941
" />
<path d="M32.4328 1.2941
L32.5614 1.2336
" />
<path d="M32.5614 1.2336
L32.8637 1.2336
" />
<path d="M32.8637 1.2336
L33.0376 1.2941
" />
<path d="M33.4307 2.5036
L33.5894 1.2336
" />
<path d="M33.5894 1.2336
L33.8994 2.1408
" />
<path d="M33.8994 2.1408
L34.4361 1.2336
" />
<path d="M34.4361 1.2336
L34.2773 2.5036
" />
<path d="M34.8821 2.5036
L35.0408 1.2336
" />
<path d="M35.0408 1.2336
L35.3432 1.2336
" />
<path d="M35.3432 1.2336
L35.5171 1.2941
" />
<path d="M35.5171 1.2941
L35.6229 1.4151
" />
<path d="M35.6229 1.4151
L35.6683 1.5360
" />
<path d="M35.6683 1.5360
L35.6985 1.7779
" />
<path d="M35.6985 1.7779
L35.6758 1.9593
" />
<path d="M35.6758 1.9593
L35.5851 2.2012
" />
<path d="M35.5851 2.2012
L35.5095 2.3222
" />
<path d="M35.5095 2.3222
L35.3734 2.4432
" />
<path d="M35.3734 2.4432
L35.1845 2.5036
" />
<path d="M35.1845 2.5036
L34.8821 2.5036
" />
<path d="M36.1672 2.3827
L36.2201 2.4432
" />
<path d="M36.2201 2.4432
L36.1521 2.5036
" />
<path d="M36.1521 2.5036
L36.0992 2.4432
" />
<path d="M36.0992 2.4432
L36.1672 2.3827
" />
<path d="M36.1672 2.3827
L36.1521 2.5036
" />
<path d="M36.2503 1.7174
L36.3033 1.7779
" />
<path d="M36.3033 1.7779
L36.2352 1.8384
" />
<path d="M36.2352 1.8384
L36.1823 1.7779
" />
<path d="M36.1823 1.7779
L36.2503 1.7174
" />
<path d="M36.2503 1.7174
L36.2352 1.8384
" />
<path d="M36.7342 1.2336
L37.4599 1.2336
" />
<path d="M36.9383 2.5036
L37.0971 1.2336
" />
<path d="M38.1251 1.2336
L38.3670 1.2336
" />
<path d="M38.3670 1.2336
L38.4804 1.2941
" />
<path d="M38.4804 1.2941
L38.5863 1.4151
" />
<path d="M38.5863 1.4151
L38.6165 1.6570
" />
<path d="M38.6165 1.6570
L38.5636 2.0803
" />
<path d="M38.5636 2.0803
L38.4729 2.3222
" />
<path d="M38.4729 2.3222
L38.3368 2.4432
" />
<path d="M38.3368 2.4432
L38.2083 2.5036
" />
<path d="M38.2083 2.5036
L37.9664 2.5036
" />
<path d="M37.9664 2.5036
L37.8530 2.4432
" />
<path d="M37.8530 2.4432
L37.7472 2.3222
" />
<path d="M37.7472 2.3222
L37.7169 2.0803
" />
<path d="M37.7169 2.0803
L37.7698 1.6570
" />
<path d="M37.7698 1.6570
L37.8605 1.4151
" />
<path d="M37.8605 1.4151
L37.9966 1.2941
" />
<path d="M37.9966 1.2941
L38.1251 1.2336
" />
<path d="M39.1154 2.0198
L40.0831 2.0198
" />
<path d="M40.7105 1.3546
L40.7786 1.2941
" />
<path d="M40.7786 1.2941
L40.9071 1.2336
" />
<path d="M40.9071 1.2336
L41.2095 1.2336
" />
<path d="M41.2095 1.2336
L41.3228 1.2941
" />
<path d="M41.3228 1.2941
L41.3758 1.3546
" />
<path d="M41.3758 1.3546
L41.4211 1.4755
" />
<path d="M41.4211 1.4755
L41.4060 1.5965
" />
<path d="M41.4060 1.5965
L41.3228 1.7779
" />
<path d="M41.3228 1.7779
L40.5064 2.5036
" />
<path d="M40.5064 2.5036
L41.2926 2.5036
" />
<path d="M42.6004 1.2336
L41.9956 1.2336
" />
<path d="M41.9956 1.2336
L41.8596 1.8384
" />
<path d="M41.8596 1.8384
L41.9276 1.7779
" />
<path d="M41.9276 1.7779
L42.0561 1.7174
" />
<path d="M42.0561 1.7174
L42.3585 1.7174
" />
<path d="M42.3585 1.7174
L42.4719 1.7779
" />
<path d="M42.4719 1.7779
L42.5248 1.8384
" />
<path d="M42.5248 1.8384
L42.5701 1.9593
" />
<path d="M42.5701 1.9593
L42.5323 2.2617
" />
<path d="M42.5323 2.2617
L42.4568 2.3827
" />
<path d="M42.4568 2.3827
L42.3887 2.4432
" />
<path d="M42.3887 2.4432
L42.2602 2.5036
" />
<path d="M42.2602 2.5036
L41.9578 2.5036
" />
<path d="M41.9578 2.5036
L41.8444 2.4432
" />
<path d="M41.8444 2.4432
L41.7915 2.3827
" />
<path d="M43.1295 1.3546
L43.1976 1.2941
" />
<path d="M43.1976 1.2941
L43.3261 1.2336
" />
<path d="M43.3261 1.2336
L43.6285 1.2336
" />
<path d="M43.6285 1.2336
L43.7418 1.2941
" />
<path d="M43.7418 1.2941
L43.7948 1.3546
" />
<path d="M43.7948 1.3546
L43.8401 1.4755
" />
<path d="M43.8401 1.4755
L43.8250 1.5965
" />
<path d="M43.8250 1.5965
L43.7418 1.7779
" />
<path d="M43.7418 1.7779
L42.9254 2.5036
" />
<path d="M42.9254 2.5036
L43.7116 2.5036
" />
<path d="M44.3163 2.0198
L45.2840 2.0198
" />
<path d="M45.9114 1.3546
L45.9795 1.2941
" />
<path d="M45.9795 1.2941
L46.1080 1.2336
" />
<path d="M46.1080 1.2336
L46.4104 1.2336
" />
<path d="M46.4104 1.2336
L46.5237 1.2941
" />
<path d="M46.5237 1.2941
L46.5767 1.3546
" />
<path d="M46.5767 1.3546
L46.6220 1.4755
" />
<path d="M46.6220 1.4755
L46.6069 1.5965
" />
<path d="M46.6069 1.5965
L46.5237 1.7779
" />
<path d="M46.5237 1.7779
L45.7073 2.5036
" />
<path d="M45.7073 2.5036
L46.4935 2.5036
" />
</g><text x="30.9399" y="9.5444"
textLength="51.5666" font-size="1.6933" lengthAdjust="spacingAndGlyphs"
text-anchor="middle" opacity="0">https://www.st.com/resource/en/datasheet/kfxx.pdf</text>
<g class="stroked-text"><desc>https://www.st.com/resource/en/datasheet/kfxx.pdf</desc>
<path d="M5.5701 9.4886
L5.5701 8.2186
" />
<path d="M6.1144 9.4886
L6.1144 8.8234
" />
<path d="M6.1144 8.8234
L6.0539 8.7024
" />
<path d="M6.0539 8.7024
L5.9330 8.6420
" />
<path d="M5.9330 8.6420
L5.7516 8.6420
" />
<path d="M5.7516 8.6420
L5.6306 8.7024
" />
<path d="M5.6306 8.7024
L5.5701 8.7629
" />
<path d="M6.5377 8.6420
L7.0215 8.6420
" />
<path d="M6.7191 8.2186
L6.7191 9.3072
" />
<path d="M6.7191 9.3072
L6.7796 9.4282
" />
<path d="M6.7796 9.4282
L6.9006 9.4886
" />
<path d="M6.9006 9.4886
L7.0215 9.4886
" />
<path d="M7.2634 8.6420
L7.7472 8.6420
" />
<path d="M7.4448 8.2186
L7.4448 9.3072
" />
<path d="M7.4448 9.3072
L7.5053 9.4282
" />
<path d="M7.5053 9.4282
L7.6263 9.4886
" />
<path d="M7.6263 9.4886
L7.7472 9.4886
" />
<path d="M8.1705 8.6420
L8.1705 9.9120
" />
<path d="M8.1705 8.7024
L8.2915 8.6420
" />
<path d="M8.2915 8.6420
L8.5334 8.6420
" />
<path d="M8.5334 8.6420
L8.6543 8.7024
" />
<path d="M8.6543 8.7024
L8.7148 8.7629
" />
<path d="M8.7148 8.7629
L8.7753 8.8839
" />
<path d="M8.7753 8.8839
L8.7753 9.2467
" />
<path d="M8.7753 9.2467
L8.7148 9.3677
" />
<path d="M8.7148 9.3677
L8.6543 9.4282
" />
<path d="M8.6543 9.4282
L8.5334 9.4886
" />
<path d="M8.5334 9.4886
L8.2915 9.4886
" />
<path d="M8.2915 9.4886
L8.1705 9.4282
" />
<path d="M9.2591 9.4282
L9.3800 9.4886
" />
<path d="M9.3800 9.4886
L9.6219 9.4886
" />
<path d="M9.6219 9.4886
L9.7429 9.4282
" />
<path d="M9.7429 9.4282
L9.8033 9.3072
" />
<path d="M9.8033 9.3072
L9.8033 9.2467
" />
<path d="M9.8033 9.2467
L9.7429 9.1258
" />
<path d="M9.7429 9.1258
L9.6219 9.0653
" />
<path d="M9.6219 9.0653
L9.4405 9.0653
" />
<path d="M9.4405 9.0653
L9.3195 9.0048
" />
<path d="M9.3195 9.0048
L9.2591 8.8839
" />
<path d="M9.2591 8.8839
L9.2591 8.8234
" />
<path d="M9.2591 8.8234
L9.3195 8.7024
" />
<path d="M9.3195 8.7024
L9.4405 8.6420
" />
<path d="M9.4405 8.6420
L9.6219 8.6420
" />
<path d="M9.6219 8.6420
L9.7429 8.7024
" />
<path d="M10.3476 9.3677
L10.4081 9.4282
" />
<path d="M10.4081 9.4282
L10.3476 9.4886
" />
<path d="M10.3476 9.4886
L10.2872 9.4282
" />
<path d="M10.2872 9.4282
L10.3476 9.3677
" />
<path d="M10.3476 9.3677
L10.3476 9.4886
" />
<path d="M10.3476 8.7024
L10.4081 8.7629
" />
<path d="M10.4081 8.7629
L10.3476 8.8234
" />
<path d="M10.3476 8.8234
L10.2872 8.7629
" />
<path d="M10.2872 8.7629
L10.3476 8.7024
" />
<path d="M10.3476 8.7024
L10.3476 8.8234
" />
<path d="M11.8596 8.1582
L10.7710 9.7910
" />
<path d="M13.1901 8.1582
L12.1015 9.7910
" />
<path d="M13.4925 8.6420
L13.7344 9.4886
" />
<path d="M13.7344 9.4886
L13.9763 8.8839
" />
<path d="M13.9763 8.8839
L14.2182 9.4886
" />
<path d="M14.2182 9.4886
L14.4601 8.6420
" />
<path d="M14.8230 8.6420
L15.0649 9.4886
" />
<path d="M15.0649 9.4886
L15.3068 8.8839
" />
<path d="M15.3068 8.8839
L15.5487 9.4886
" />
<path d="M15.5487 9.4886
L15.7906 8.6420
" />
<path d="M16.1535 8.6420
L16.3954 9.4886
" />
<path d="M16.3954 9.4886
L16.6373 8.8839
" />
<path d="M16.6373 8.8839
L16.8792 9.4886
" />
<path d="M16.8792 9.4886
L17.1211 8.6420
" />
<path d="M17.6049 9.3677
L17.6654 9.4282
" />
<path d="M17.6654 9.4282
L17.6049 9.4886
" />
<path d="M17.6049 9.4886
L17.5445 9.4282
" />
<path d="M17.5445 9.4282
L17.6049 9.3677
" />
<path d="M17.6049 9.3677
L17.6049 9.4886
" />
<path d="M18.1493 9.4282
L18.2702 9.4886
" />
<path d="M18.2702 9.4886
L18.5121 9.4886
" />
<path d="M18.5121 9.4886
L18.6331 9.4282
" />
<path d="M18.6331 9.4282
L18.6935 9.3072
" />
<path d="M18.6935 9.3072
L18.6935 9.2467
" />
<path d="M18.6935 9.2467
L18.6331 9.1258
" />
<path d="M18.6331 9.1258
L18.5121 9.0653
" />
<path d="M18.5121 9.0653
L18.3307 9.0653
" />
<path d="M18.3307 9.0653
L18.2097 9.0048
" />
<path d="M18.2097 9.0048
L18.1493 8.8839
" />
<path d="M18.1493 8.8839
L18.1493 8.8234
" />
<path d="M18.1493 8.8234
L18.2097 8.7024
" />
<path d="M18.2097 8.7024
L18.3307 8.6420
" />
<path d="M18.3307 8.6420
L18.5121 8.6420
" />
<path d="M18.5121 8.6420
L18.6331 8.7024
" />
<path d="M19.0564 8.6420
L19.5402 8.6420
" />
<path d="M19.2378 8.2186
L19.2378 9.3072
" />
<path d="M19.2378 9.3072
L19.2983 9.4282
" />
<path d="M19.2983 9.4282
L19.4193 9.4886
" />
<path d="M19.4193 9.4886
L19.5402 9.4886
" />
<path d="M19.9635 9.3677
L20.0240 9.4282
" />
<path d="M20.0240 9.4282
L19.9635 9.4886
" />
<path d="M19.9635 9.4886
L19.9031 9.4282
" />
<path d="M19.9031 9.4282
L19.9635 9.3677
" />
<path d="M19.9635 9.3677
L19.9635 9.4886
" />
<path d="M21.1126 9.4282
L20.9917 9.4886
" />
<path d="M20.9917 9.4886
L20.7498 9.4886
" />
<path d="M20.7498 9.4886
L20.6288 9.4282
" />
<path d="M20.6288 9.4282
L20.5683 9.3677
" />
<path d="M20.5683 9.3677
L20.5079 9.2467
" />
<path d="M20.5079 9.2467
L20.5079 8.8839
" />
<path d="M20.5079 8.8839
L20.5683 8.7629
" />
<path d="M20.5683 8.7629
L20.6288 8.7024
" />
<path d="M20.6288 8.7024
L20.7498 8.6420
" />
<path d="M20.7498 8.6420
L20.9917 8.6420
" />
<path d="M20.9917 8.6420
L21.1126 8.7024
" />
<path d="M21.8384 9.4886
L21.7174 9.4282
" />
<path d="M21.7174 9.4282
L21.6569 9.3677
" />
<path d="M21.6569 9.3677
L21.5965 9.2467
" />
<path d="M21.5965 9.2467
L21.5965 8.8839
" />
<path d="M21.5965 8.8839
L21.6569 8.7629
" />
<path d="M21.6569 8.7629
L21.7174 8.7024
" />
<path d="M21.7174 8.7024
L21.8384 8.6420
" />
<path d="M21.8384 8.6420
L22.0198 8.6420
" />
<path d="M22.0198 8.6420
L22.1407 8.7024
" />
<path d="M22.1407 8.7024
L22.2012 8.7629
" />
<path d="M22.2012 8.7629
L22.2617 8.8839
" />
<path d="M22.2617 8.8839
L22.2617 9.2467
" />
<path d="M22.2617 9.2467
L22.2012 9.3677
" />
<path d="M22.2012 9.3677
L22.1407 9.4282
" />
<path d="M22.1407 9.4282
L22.0198 9.4886
" />
<path d="M22.0198 9.4886
L21.8384 9.4886
" />
<path d="M22.8059 9.4886
L22.8059 8.6420
" />
<path d="M22.8059 8.7629
L22.8664 8.7024
" />
<path d="M22.8664 8.7024
L22.9874 8.6420
" />
<path d="M22.9874 8.6420
L23.1688 8.6420
" />
<path d="M23.1688 8.6420
L23.2897 8.7024
" />
<path d="M23.2897 8.7024
L23.3502 8.8234
" />
<path d="M23.3502 8.8234
L23.3502 9.4886
" />
<path d="M23.3502 8.8234
L23.4107 8.7024
" />
<path d="M23.4107 8.7024
L23.5316 8.6420
" />
<path d="M23.5316 8.6420
L23.7131 8.6420
" />
<path d="M23.7131 8.6420
L23.8340 8.7024
" />
<path d="M23.8340 8.7024
L23.8945 8.8234
" />
<path d="M23.8945 8.8234
L23.8945 9.4886
" />
<path d="M25.4064 8.1582
L24.3178 9.7910
" />
<path d="M25.8297 9.4886
L25.8297 8.6420
" />
<path d="M25.8297 8.8839
L25.8902 8.7629
" />
<path d="M25.8902 8.7629
L25.9507 8.7024
" />
<path d="M25.9507 8.7024
L26.0716 8.6420
" />
<path d="M26.0716 8.6420
L26.1926 8.6420
" />
<path d="M27.0997 9.4282
L26.9788 9.4886
" />
<path d="M26.9788 9.4886
L26.7369 9.4886
" />
<path d="M26.7369 9.4886
L26.6159 9.4282
" />
<path d="M26.6159 9.4282
L26.5555 9.3072
" />
<path d="M26.5555 9.3072
L26.5555 8.8234
" />
<path d="M26.5555 8.8234
L26.6159 8.7024
" />
<path d="M26.6159 8.7024
L26.7369 8.6420
" />
<path d="M26.7369 8.6420
L26.9788 8.6420
" />
<path d="M26.9788 8.6420
L27.0997 8.7024
" />
<path d="M27.0997 8.7024
L27.1602 8.8234
" />
<path d="M27.1602 8.8234
L27.1602 8.9443
" />
<path d="M27.1602 8.9443
L26.5555 9.0653
" />
<path d="M27.6441 9.4282
L27.7650 9.4886
" />
<path d="M27.7650 9.4886
L28.0069 9.4886
" />
<path d="M28.0069 9.4886
L28.1279 9.4282
" />
<path d="M28.1279 9.4282
L28.1883 9.3072
" />
<path d="M28.1883 9.3072
L28.1883 9.2467
" />
<path d="M28.1883 9.2467
L28.1279 9.1258
" />
<path d="M28.1279 9.1258
L28.0069 9.0653
" />
<path d="M28.0069 9.0653
L27.8255 9.0653
" />
<path d="M27.8255 9.0653
L27.7045 9.0048
" />
<path d="M27.7045 9.0048
L27.6441 8.8839
" />
<path d="M27.6441 8.8839
L27.6441 8.8234
" />
<path d="M27.6441 8.8234
L27.7045 8.7024
" />
<path d="M27.7045 8.7024
L27.8255 8.6420
" />
<path d="M27.8255 8.6420
L28.0069 8.6420
" />
<path d="M28.0069 8.6420
L28.1279 8.7024
" />
<path d="M28.9141 9.4886
L28.7931 9.4282
" />
<path d="M28.7931 9.4282
L28.7326 9.3677
" />
<path d="M28.7326 9.3677
L28.6722 9.2467
" />
<path d="M28.6722 9.2467
L28.6722 8.8839
" />
<path d="M28.6722 8.8839
L28.7326 8.7629
" />
<path d="M28.7326 8.7629
L28.7931 8.7024
" />
<path d="M28.7931 8.7024
L28.9141 8.6420
" />
<path d="M28.9141 8.6420
L29.0955 8.6420
" />
<path d="M29.0955 8.6420
L29.2164 8.7024
" />
<path d="M29.2164 8.7024
L29.2769 8.7629
" />
<path d="M29.2769 8.7629
L29.3374 8.8839
" />
<path d="M29.3374 8.8839
L29.3374 9.2467
" />
<path d="M29.3374 9.2467
L29.2769 9.3677
" />
<path d="M29.2769 9.3677
L29.2164 9.4282
" />
<path d="M29.2164 9.4282
L29.0955 9.4886
" />
<path d="M29.0955 9.4886
L28.9141 9.4886
" />
<path d="M30.4259 8.6420
L30.4259 9.4886
" />
<path d="M29.8816 8.6420
L29.8816 9.3072
" />
<path d="M29.8816 9.3072
L29.9421 9.4282
" />
<path d="M29.9421 9.4282
L30.0631 9.4886
" />
<path d="M30.0631 9.4886
L30.2445 9.4886
" />
<path d="M30.2445 9.4886
L30.3654 9.4282
" />
<path d="M30.3654 9.4282
L30.4259 9.3677
" />
<path d="M31.0306 9.4886
L31.0306 8.6420
" />
<path d="M31.0306 8.8839
L31.0911 8.7629
" />
<path d="M31.0911 8.7629
L31.1516 8.7024
" />
<path d="M31.1516 8.7024
L31.2725 8.6420
" />
<path d="M31.2725 8.6420
L31.3935 8.6420
" />
<path d="M32.3611 9.4282
L32.2402 9.4886
" />
<path d="M32.2402 9.4886
L31.9983 9.4886
" />
<path d="M31.9983 9.4886
L31.8773 9.4282
" />
<path d="M31.8773 9.4282
L31.8168 9.3677
" />
<path d="M31.8168 9.3677
L31.7564 9.2467
" />
<path d="M31.7564 9.2467
L31.7564 8.8839
" />
<path d="M31.7564 8.8839
L31.8168 8.7629
" />
<path d="M31.8168 8.7629
L31.8773 8.7024
" />
<path d="M31.8773 8.7024
L31.9983 8.6420
" />
<path d="M31.9983 8.6420
L32.2402 8.6420
" />
<path d="M32.2402 8.6420
L32.3611 8.7024
" />
<path d="M33.3892 9.4282
L33.2683 9.4886
" />
<path d="M33.2683 9.4886
L33.0264 9.4886
" />
<path d="M33.0264 9.4886
L32.9054 9.4282
" />
<path d="M32.9054 9.4282
L32.8450 9.3072
" />
<path d="M32.8450 9.3072
L32.8450 8.8234
" />
<path d="M32.8450 8.8234
L32.9054 8.7024
" />
<path d="M32.9054 8.7024
L33.0264 8.6420
" />
<path d="M33.0264 8.6420
L33.2683 8.6420
" />
<path d="M33.2683 8.6420
L33.3892 8.7024
" />
<path d="M33.3892 8.7024
L33.4497 8.8234
" />
<path d="M33.4497 8.8234
L33.4497 8.9443
" />
<path d="M33.4497 8.9443
L32.8450 9.0653
" />
<path d="M34.9012 8.1582
L33.8126 9.7910
" />
<path d="M35.8083 9.4282
L35.6874 9.4886
" />
<path d="M35.6874 9.4886
L35.4455 9.4886
" />
<path d="M35.4455 9.4886
L35.3245 9.4282
" />
<path d="M35.3245 9.4282
L35.2641 9.3072
" />
<path d="M35.2641 9.3072
L35.2641 8.8234
" />
<path d="M35.2641 8.8234
L35.3245 8.7024
" />
<path d="M35.3245 8.7024
L35.4455 8.6420
" />
<path d="M35.4455 8.6420
L35.6874 8.6420
" />
<path d="M35.6874 8.6420
L35.8083 8.7024
" />
<path d="M35.8083 8.7024
L35.8688 8.8234
" />
<path d="M35.8688 8.8234
L35.8688 8.9443
" />
<path d="M35.8688 8.9443
L35.2641 9.0653
" />
<path d="M36.4131 8.6420
L36.4131 9.4886
" />
<path d="M36.4131 8.7629
L36.4736 8.7024
" />
<path d="M36.4736 8.7024
L36.5946 8.6420
" />
<path d="M36.5946 8.6420
L36.7760 8.6420
" />
<path d="M36.7760 8.6420
L36.8969 8.7024
" />
<path d="M36.8969 8.7024
L36.9574 8.8234
" />
<path d="M36.9574 8.8234
L36.9574 9.4886
" />
<path d="M38.4693 8.1582
L37.3807 9.7910
" />
<path d="M39.4369 9.4886
L39.4369 8.2186
" />
<path d="M39.4369 9.4282
L39.3160 9.4886
" />
<path d="M39.3160 9.4886
L39.0741 9.4886
" />
<path d="M39.0741 9.4886
L38.9531 9.4282
" />
<path d="M38.9531 9.4282
L38.8926 9.3677
" />
<path d="M38.8926 9.3677
L38.8322 9.2467
" />
<path d="M38.8322 9.2467
L38.8322 8.8839
" />
<path d="M38.8322 8.8839
L38.8926 8.7629
" />
<path d="M38.8926 8.7629
L38.9531 8.7024
" />
<path d="M38.9531 8.7024
L39.0741 8.6420
" />
<path d="M39.0741 8.6420
L39.3160 8.6420
" />
<path d="M39.3160 8.6420
L39.4369 8.7024
" />
<path d="M40.5859 9.4886
L40.5859 8.8234
" />
<path d="M40.5859 8.8234
L40.5254 8.7024
" />
<path d="M40.5254 8.7024
L40.4045 8.6420
" />
<path d="M40.4045 8.6420
L40.1626 8.6420
" />
<path d="M40.1626 8.6420
L40.0416 8.7024
" />
<path d="M40.5859 9.4282
L40.4650 9.4886
" />
<path d="M40.4650 9.4886
L40.1626 9.4886
" />
<path d="M40.1626 9.4886
L40.0416 9.4282
" />
<path d="M40.0416 9.4282
L39.9812 9.3072
" />
<path d="M39.9812 9.3072
L39.9812 9.1862
" />
<path d="M39.9812 9.1862
L40.0416 9.0653
" />
<path d="M40.0416 9.0653
L40.1626 9.0048
" />
<path d="M40.1626 9.0048
L40.4650 9.0048
" />
<path d="M40.4650 9.0048
L40.5859 8.9443
" />
<path d="M41.0092 8.6420
L41.4930 8.6420
" />
<path d="M41.1906 8.2186
L41.1906 9.3072
" />
<path d="M41.1906 9.3072
L41.2511 9.4282
" />
<path d="M41.2511 9.4282
L41.3721 9.4886
" />
<path d="M41.3721 9.4886
L41.4930 9.4886
" />
<path d="M42.4606 9.4886
L42.4606 8.8234
" />
<path d="M42.4606 8.8234
L42.4001 8.7024
" />
<path d="M42.4001 8.7024
L42.2792 8.6420
" />
<path d="M42.2792 8.6420
L42.0373 8.6420
" />
<path d="M42.0373 8.6420
L41.9163 8.7024
" />
<path d="M42.4606 9.4282
L42.3397 9.4886
" />
<path d="M42.3397 9.4886
L42.0373 9.4886
" />
<path d="M42.0373 9.4886
L41.9163 9.4282
" />
<path d="M41.9163 9.4282
L41.8559 9.3072
" />
<path d="M41.8559 9.3072
L41.8559 9.1862
" />
<path d="M41.8559 9.1862
L41.9163 9.0653
" />
<path d="M41.9163 9.0653
L42.0373 9.0048
" />
<path d="M42.0373 9.0048
L42.3397 9.0048
" />
<path d="M42.3397 9.0048
L42.4606 8.9443
" />
<path d="M43.0049 9.4282
L43.1258 9.4886
" />
<path d="M43.1258 9.4886
L43.3677 9.4886
" />
<path d="M43.3677 9.4886
L43.4887 9.4282
" />
<path d="M43.4887 9.4282
L43.5491 9.3072
" />
<path d="M43.5491 9.3072
L43.5491 9.2467
" />
<path d="M43.5491 9.2467
L43.4887 9.1258
" />
<path d="M43.4887 9.1258
L43.3677 9.0653
" />
<path d="M43.3677 9.0653
L43.1863 9.0653
" />
<path d="M43.1863 9.0653
L43.0653 9.0048
" />
<path d="M43.0653 9.0048
L43.0049 8.8839
" />
<path d="M43.0049 8.8839
L43.0049 8.8234
" />
<path d="M43.0049 8.8234
L43.0653 8.7024
" />
<path d="M43.0653 8.7024
L43.1863 8.6420
" />
<path d="M43.1863 8.6420
L43.3677 8.6420
" />
<path d="M43.3677 8.6420
L43.4887 8.7024
" />
<path d="M44.0934 9.4886
L44.0934 8.2186
" />
<path d="M44.6377 9.4886
L44.6377 8.8234
" />
<path d="M44.6377 8.8234
L44.5772 8.7024
" />
<path d="M44.5772 8.7024
L44.4563 8.6420
" />
<path d="M44.4563 8.6420
L44.2749 8.6420
" />
<path d="M44.2749 8.6420
L44.1539 8.7024
" />
<path d="M44.1539 8.7024
L44.0934 8.7629
" />
<path d="M45.7262 9.4282
L45.6053 9.4886
" />
<path d="M45.6053 9.4886
L45.3634 9.4886
" />
<path d="M45.3634 9.4886
L45.2424 9.4282
" />
<path d="M45.2424 9.4282
L45.1820 9.3072
" />
<path d="M45.1820 9.3072
L45.1820 8.8234
" />
<path d="M45.1820 8.8234
L45.2424 8.7024
" />
<path d="M45.2424 8.7024
L45.3634 8.6420
" />
<path d="M45.3634 8.6420
L45.6053 8.6420
" />
<path d="M45.6053 8.6420
L45.7262 8.7024
" />
<path d="M45.7262 8.7024
L45.7867 8.8234
" />
<path d="M45.7867 8.8234
L45.7867 8.9443
" />
<path d="M45.7867 8.9443
L45.1820 9.0653
" />
<path d="M46.8148 9.4282
L46.6939 9.4886
" />
<path d="M46.6939 9.4886
L46.4520 9.4886
" />
<path d="M46.4520 9.4886
L46.3310 9.4282
" />
<path d="M46.3310 9.4282
L46.2706 9.3072
" />
<path d="M46.2706 9.3072
L46.2706 8.8234
" />
<path d="M46.2706 8.8234
L46.3310 8.7024
" />
<path d="M46.3310 8.7024
L46.4520 8.6420
" />
<path d="M46.4520 8.6420
L46.6939 8.6420
" />
<path d="M46.6939 8.6420
L46.8148 8.7024
" />
<path d="M46.8148 8.7024
L46.8753 8.8234
" />
<path d="M46.8753 8.8234
L46.8753 8.9443
" />
<path d="M46.8753 8.9443
L46.2706 9.0653
" />
<path d="M47.2382 8.6420
L47.7220 8.6420
" />
<path d="M47.4196 8.2186
L47.4196 9.3072
" />
<path d="M47.4196 9.3072
L47.4801 9.4282
" />
<path d="M47.4801 9.4282
L47.6011 9.4886
" />
<path d="M47.6011 9.4886
L47.7220 9.4886
" />
<path d="M49.0525 8.1582
L47.9639 9.7910
" />
<path d="M49.4758 9.4886
L49.4758 8.2186
" />
<path d="M49.5968 9.0048
L49.9596 9.4886
" />
<path d="M49.9596 8.6420
L49.4758 9.1258
" />
<path d="M50.3225 8.6420
L50.8063 8.6420
" />
<path d="M50.5039 9.4886
L50.5039 8.4001
" />
<path d="M50.5039 8.4001
L50.5644 8.2791
" />
<path d="M50.5644 8.2791
L50.6854 8.2186
" />
<path d="M50.6854 8.2186
L50.8063 8.2186
" />
<path d="M51.1087 9.4886
L51.7739 8.6420
" />
<path d="M51.1087 8.6420
L51.7739 9.4886
" />
<path d="M52.1368 9.4886
L52.8020 8.6420
" />
<path d="M52.1368 8.6420
L52.8020 9.4886
" />
<path d="M53.2858 9.3677
L53.3463 9.4282
" />
<path d="M53.3463 9.4282
L53.2858 9.4886
" />
<path d="M53.2858 9.4886
L53.2254 9.4282
" />
<path d="M53.2254 9.4282
L53.2858 9.3677
" />
<path d="M53.2858 9.3677
L53.2858 9.4886
" />
<path d="M53.8906 8.6420
L53.8906 9.9120
" />
<path d="M53.8906 8.7024
L54.0116 8.6420
" />
<path d="M54.0116 8.6420
L54.2535 8.6420
" />
<path d="M54.2535 8.6420
L54.3744 8.7024
" />
<path d="M54.3744 8.7024
L54.4349 8.7629
" />
<path d="M54.4349 8.7629
L54.4954 8.8839
" />
<path d="M54.4954 8.8839
L54.4954 9.2467
" />
<path d="M54.4954 9.2467
L54.4349 9.3677
" />
<path d="M54.4349 9.3677
L54.3744 9.4282
" />
<path d="M54.3744 9.4282
L54.2535 9.4886
" />
<path d="M54.2535 9.4886
L54.0116 9.4886
" />
<path d="M54.0116 9.4886
L53.8906 9.4282
" />
<path d="M55.5839 9.4886
L55.5839 8.2186
" />
<path d="M55.5839 9.4282
L55.4630 9.4886
" />
<path d="M55.4630 9.4886
L55.2211 9.4886
" />
<path d="M55.2211 9.4886
L55.1001 9.4282
" />
<path d="M55.1001 9.4282
L55.0396 9.3677
" />
<path d="M55.0396 9.3677
L54.9792 9.2467
" />
<path d="M54.9792 9.2467
L54.9792 8.8839
" />
<path d="M54.9792 8.8839
L55.0396 8.7629
" />
<path d="M55.0396 8.7629
L55.1001 8.7024
" />
<path d="M55.1001 8.7024
L55.2211 8.6420
" />
<path d="M55.2211 8.6420
L55.4630 8.6420
" />
<path d="M55.4630 8.6420
L55.5839 8.7024
" />
<path d="M56.0072 8.6420
L56.4910 8.6420
" />
<path d="M56.1886 9.4886
L56.1886 8.4001
" />
<path d="M56.1886 8.4001
L56.2491 8.2791
" />
<path d="M56.2491 8.2791
L56.3701 8.2186
" />
<path d="M56.3701 8.2186
L56.4910 8.2186
" />
</g></g> 
</svg>
