<?xml version="1.0" standalone="no"?>
 <!DOCTYPE svg PUBLIC "-//W3C//DTD SVG 1.1//EN" 
 "http://www.w3.org/Graphics/SVG/1.1/DTD/svg11.dtd"> 
<svg
  xmlns:svg="http://www.w3.org/2000/svg"
  xmlns="http://www.w3.org/2000/svg"
  xmlns:xlink="http://www.w3.org/1999/xlink"
  version="1.1"
  width="126.3904mm" height="43.6118mm" viewBox="0.0000 0.0000 126.3904 43.6118">
<title>SVG Image created as working.svg date 2023/08/13 07:21:47 </title>
  <desc>Image generated by Eeschema-SVG </desc>
<g style="fill:#000000; fill-opacity:1.0000;stroke:#000000; stroke-opacity:1.0000;
stroke-linecap:round; stroke-linejoin:round;"
 transform="translate(0 0) scale(1 1)">
</g>
<g style="fill:#840000; fill-opacity:0.0; 
stroke:#840000; stroke-width:0.0000; stroke-opacity:1; 
stroke-linecap:round; stroke-linejoin:round;">
</g>
<g style="fill:#840084; fill-opacity:0.0; 
stroke:#840084; stroke-width:0.0000; stroke-opacity:1; 
stroke-linecap:round; stroke-linejoin:round;">
</g>
<g style="fill:#840000; fill-opacity:0.0; 
stroke:#840000; stroke-width:0.0000; stroke-opacity:1; 
stroke-linecap:round; stroke-linejoin:round;">
</g>
<g style="fill:#840084; fill-opacity:0.0; 
stroke:#840084; stroke-width:0.0000; stroke-opacity:1; 
stroke-linecap:round; stroke-linejoin:round;">
</g>
<g style="fill:#006464; fill-opacity:0.0; 
stroke:#006464; stroke-width:0.0000; stroke-opacity:1; 
stroke-linecap:round; stroke-linejoin:round;">
</g>
<g style="fill:#006464; fill-opacity:0.0; 
stroke:#006464; stroke-width:0.1588; stroke-opacity:1; 
stroke-linecap:round; stroke-linejoin:round;">
<text x="55.6279" y="5.2899"
textLength="2.6415" font-size="1.6933" lengthAdjust="spacingAndGlyphs"
text-anchor="middle" opacity="0">U?</text>
<g class="stroked-text"><desc>U?</desc>
<path d="M54.7207 3.9641
L54.7207 4.9922
" />
<path d="M54.7207 4.9922
L54.7812 5.1132
" />
<path d="M54.7812 5.1132
L54.8417 5.1737
" />
<path d="M54.8417 5.1737
L54.9626 5.2341
" />
<path d="M54.9626 5.2341
L55.2045 5.2341
" />
<path d="M55.2045 5.2341
L55.3255 5.1737
" />
<path d="M55.3255 5.1737
L55.3860 5.1132
" />
<path d="M55.3860 5.1132
L55.4464 4.9922
" />
<path d="M55.4464 4.9922
L55.4464 3.9641
" />
<path d="M56.2327 5.1132
L56.2931 5.1737
" />
<path d="M56.2931 5.1737
L56.2327 5.2341
" />
<path d="M56.2327 5.2341
L56.1722 5.1737
" />
<path d="M56.1722 5.1737
L56.2327 5.1132
" />
<path d="M56.2327 5.1132
L56.2327 5.2341
" />
<path d="M55.9908 4.0246
L56.1117 3.9641
" />
<path d="M56.1117 3.9641
L56.4141 3.9641
" />
<path d="M56.4141 3.9641
L56.5350 4.0246
" />
<path d="M56.5350 4.0246
L56.5955 4.1456
" />
<path d="M56.5955 4.1456
L56.5955 4.2665
" />
<path d="M56.5955 4.2665
L56.5350 4.3875
" />
<path d="M56.5350 4.3875
L56.4746 4.4479
" />
<path d="M56.4746 4.4479
L56.3536 4.5084
" />
<path d="M56.3536 4.5084
L56.2931 4.5689
" />
<path d="M56.2931 4.5689
L56.2327 4.6898
" />
<path d="M56.2327 4.6898
L56.2327 4.7503
" />
</g><text x="67.4812" y="5.2899"
textLength="11.1080" font-size="1.6933" lengthAdjust="spacingAndGlyphs"
text-anchor="middle" opacity="0">ADuM7640A</text>
<g class="stroked-text"><desc>ADuM7640A</desc>
<path d="M62.2803 4.8713
L62.8850 4.8713
" />
<path d="M62.1593 5.2341
L62.5826 3.9641
" />
<path d="M62.5826 3.9641
L63.0060 5.2341
" />
<path d="M63.4293 5.2341
L63.4293 3.9641
" />
<path d="M63.4293 3.9641
L63.7317 3.9641
" />
<path d="M63.7317 3.9641
L63.9131 4.0246
" />
<path d="M63.9131 4.0246
L64.0341 4.1456
" />
<path d="M64.0341 4.1456
L64.0946 4.2665
" />
<path d="M64.0946 4.2665
L64.1550 4.5084
" />
<path d="M64.1550 4.5084
L64.1550 4.6898
" />
<path d="M64.1550 4.6898
L64.0946 4.9317
" />
<path d="M64.0946 4.9317
L64.0341 5.0527
" />
<path d="M64.0341 5.0527
L63.9131 5.1737
" />
<path d="M63.9131 5.1737
L63.7317 5.2341
" />
<path d="M63.7317 5.2341
L63.4293 5.2341
" />
<path d="M65.2436 4.3875
L65.2436 5.2341
" />
<path d="M64.6993 4.3875
L64.6993 5.0527
" />
<path d="M64.6993 5.0527
L64.7598 5.1737
" />
<path d="M64.7598 5.1737
L64.8808 5.2341
" />
<path d="M64.8808 5.2341
L65.0622 5.2341
" />
<path d="M65.0622 5.2341
L65.1831 5.1737
" />
<path d="M65.1831 5.1737
L65.2436 5.1132
" />
<path d="M65.8483 5.2341
L65.8483 3.9641
" />
<path d="M65.8483 3.9641
L66.2717 4.8713
" />
<path d="M66.2717 4.8713
L66.6950 3.9641
" />
<path d="M66.6950 3.9641
L66.6950 5.2341
" />
<path d="M67.1788 3.9641
L68.0254 3.9641
" />
<path d="M68.0254 3.9641
L67.4812 5.2341
" />
<path d="M69.0535 3.9641
L68.8116 3.9641
" />
<path d="M68.8116 3.9641
L68.6907 4.0246
" />
<path d="M68.6907 4.0246
L68.6302 4.0851
" />
<path d="M68.6302 4.0851
L68.5092 4.2665
" />
<path d="M68.5092 4.2665
L68.4488 4.5084
" />
<path d="M68.4488 4.5084
L68.4488 4.9922
" />
<path d="M68.4488 4.9922
L68.5092 5.1132
" />
<path d="M68.5092 5.1132
L68.5697 5.1737
" />
<path d="M68.5697 5.1737
L68.6907 5.2341
" />
<path d="M68.6907 5.2341
L68.9326 5.2341
" />
<path d="M68.9326 5.2341
L69.0535 5.1737
" />
<path d="M69.0535 5.1737
L69.1140 5.1132
" />
<path d="M69.1140 5.1132
L69.1745 4.9922
" />
<path d="M69.1745 4.9922
L69.1745 4.6898
" />
<path d="M69.1745 4.6898
L69.1140 4.5689
" />
<path d="M69.1140 4.5689
L69.0535 4.5084
" />
<path d="M69.0535 4.5084
L68.9326 4.4479
" />
<path d="M68.9326 4.4479
L68.6907 4.4479
" />
<path d="M68.6907 4.4479
L68.5697 4.5084
" />
<path d="M68.5697 4.5084
L68.5092 4.5689
" />
<path d="M68.5092 4.5689
L68.4488 4.6898
" />
<path d="M70.2630 4.3875
L70.2630 5.2341
" />
<path d="M69.9606 3.9037
L69.6583 4.8108
" />
<path d="M69.6583 4.8108
L70.4444 4.8108
" />
<path d="M71.1701 3.9641
L71.2911 3.9641
" />
<path d="M71.2911 3.9641
L71.4120 4.0246
" />
<path d="M71.4120 4.0246
L71.4725 4.0851
" />
<path d="M71.4725 4.0851
L71.5330 4.2060
" />
<path d="M71.5330 4.2060
L71.5935 4.4479
" />
<path d="M71.5935 4.4479
L71.5935 4.7503
" />
<path d="M71.5935 4.7503
L71.5330 4.9922
" />
<path d="M71.5330 4.9922
L71.4725 5.1132
" />
<path d="M71.4725 5.1132
L71.4120 5.1737
" />
<path d="M71.4120 5.1737
L71.2911 5.2341
" />
<path d="M71.2911 5.2341
L71.1701 5.2341
" />
<path d="M71.1701 5.2341
L71.0492 5.1737
" />
<path d="M71.0492 5.1737
L70.9887 5.1132
" />
<path d="M70.9887 5.1132
L70.9282 4.9922
" />
<path d="M70.9282 4.9922
L70.8678 4.7503
" />
<path d="M70.8678 4.7503
L70.8678 4.4479
" />
<path d="M70.8678 4.4479
L70.9282 4.2060
" />
<path d="M70.9282 4.2060
L70.9887 4.0851
" />
<path d="M70.9887 4.0851
L71.0492 4.0246
" />
<path d="M71.0492 4.0246
L71.1701 3.9641
" />
<path d="M72.0773 4.8713
L72.6820 4.8713
" />
<path d="M71.9563 5.2341
L72.3796 3.9641
" />
<path d="M72.3796 3.9641
L72.8030 5.2341
" />
</g></g>
<g style="fill:#840084; fill-opacity:0.0; 
stroke:#840084; stroke-width:0.1588; stroke-opacity:1; 
stroke-linecap:round; stroke-linejoin:round;">
<text x="63.2766" y="39.5799"
textLength="43.8859" font-size="1.6933" lengthAdjust="spacingAndGlyphs"
text-anchor="middle" opacity="0">Package_SO:QSOP-20_3.9x8.7mm_P0.635mm</text>
<g class="stroked-text"><desc>Package_SO:QSOP-20_3.9x8.7mm_P0.635mm</desc>
<path d="M41.7397 39.5241
L41.8984 38.2541
" />
<path d="M41.8984 38.2541
L42.3822 38.2541
" />
<path d="M42.3822 38.2541
L42.4956 38.3146
" />
<path d="M42.4956 38.3146
L42.5485 38.3751
" />
<path d="M42.5485 38.3751
L42.5939 38.4960
" />
<path d="M42.5939 38.4960
L42.5712 38.6775
" />
<path d="M42.5712 38.6775
L42.4956 38.7984
" />
<path d="M42.4956 38.7984
L42.4276 38.8589
" />
<path d="M42.4276 38.8589
L42.2991 38.9194
" />
<path d="M42.2991 38.9194
L41.8153 38.9194
" />
<path d="M43.5540 39.5241
L43.6371 38.8589
" />
<path d="M43.6371 38.8589
L43.5918 38.7379
" />
<path d="M43.5918 38.7379
L43.4784 38.6775
" />
<path d="M43.4784 38.6775
L43.2365 38.6775
" />
<path d="M43.2365 38.6775
L43.1079 38.7379
" />
<path d="M43.5615 39.4637
L43.4330 39.5241
" />
<path d="M43.4330 39.5241
L43.1306 39.5241
" />
<path d="M43.1306 39.5241
L43.0172 39.4637
" />
<path d="M43.0172 39.4637
L42.9719 39.3427
" />
<path d="M42.9719 39.3427
L42.9870 39.2217
" />
<path d="M42.9870 39.2217
L43.0626 39.1008
" />
<path d="M43.0626 39.1008
L43.1911 39.0403
" />
<path d="M43.1911 39.0403
L43.4935 39.0403
" />
<path d="M43.4935 39.0403
L43.6220 38.9798
" />
<path d="M44.7105 39.4637
L44.5820 39.5241
" />
<path d="M44.5820 39.5241
L44.3401 39.5241
" />
<path d="M44.3401 39.5241
L44.2267 39.4637
" />
<path d="M44.2267 39.4637
L44.1738 39.4032
" />
<path d="M44.1738 39.4032
L44.1284 39.2822
" />
<path d="M44.1284 39.2822
L44.1738 38.9194
" />
<path d="M44.1738 38.9194
L44.2494 38.7984
" />
<path d="M44.2494 38.7984
L44.3174 38.7379
" />
<path d="M44.3174 38.7379
L44.4459 38.6775
" />
<path d="M44.4459 38.6775
L44.6878 38.6775
" />
<path d="M44.6878 38.6775
L44.8012 38.7379
" />
<path d="M45.2473 39.5241
L45.4060 38.2541
" />
<path d="M45.4287 39.0403
L45.7311 39.5241
" />
<path d="M45.8369 38.6775
L45.2926 39.1613
" />
<path d="M46.8197 39.5241
L46.9028 38.8589
" />
<path d="M46.9028 38.8589
L46.8575 38.7379
" />
<path d="M46.8575 38.7379
L46.7441 38.6775
" />
<path d="M46.7441 38.6775
L46.5022 38.6775
" />
<path d="M46.5022 38.6775
L46.3736 38.7379
" />
<path d="M46.8272 39.4637
L46.6987 39.5241
" />
<path d="M46.6987 39.5241
L46.3963 39.5241
" />
<path d="M46.3963 39.5241
L46.2829 39.4637
" />
<path d="M46.2829 39.4637
L46.2376 39.3427
" />
<path d="M46.2376 39.3427
L46.2527 39.2217
" />
<path d="M46.2527 39.2217
L46.3283 39.1008
" />
<path d="M46.3283 39.1008
L46.4568 39.0403
" />
<path d="M46.4568 39.0403
L46.7592 39.0403
" />
<path d="M46.7592 39.0403
L46.8877 38.9798
" />
<path d="M48.0745 38.6775
L47.9460 39.7056
" />
<path d="M47.9460 39.7056
L47.8704 39.8265
" />
<path d="M47.8704 39.8265
L47.8023 39.8870
" />
<path d="M47.8023 39.8870
L47.6738 39.9475
" />
<path d="M47.6738 39.9475
L47.4924 39.9475
" />
<path d="M47.4924 39.9475
L47.3790 39.8870
" />
<path d="M47.9762 39.4637
L47.8477 39.5241
" />
<path d="M47.8477 39.5241
L47.6058 39.5241
" />
<path d="M47.6058 39.5241
L47.4924 39.4637
" />
<path d="M47.4924 39.4637
L47.4395 39.4032
" />
<path d="M47.4395 39.4032
L47.3941 39.2822
" />
<path d="M47.3941 39.2822
L47.4395 38.9194
" />
<path d="M47.4395 38.9194
L47.5151 38.7984
" />
<path d="M47.5151 38.7984
L47.5831 38.7379
" />
<path d="M47.5831 38.7379
L47.7116 38.6775
" />
<path d="M47.7116 38.6775
L47.9535 38.6775
" />
<path d="M47.9535 38.6775
L48.0669 38.7379
" />
<path d="M49.0647 39.4637
L48.9362 39.5241
" />
<path d="M48.9362 39.5241
L48.6943 39.5241
" />
<path d="M48.6943 39.5241
L48.5809 39.4637
" />
<path d="M48.5809 39.4637
L48.5356 39.3427
" />
<path d="M48.5356 39.3427
L48.5961 38.8589
" />
<path d="M48.5961 38.8589
L48.6716 38.7379
" />
<path d="M48.6716 38.7379
L48.8002 38.6775
" />
<path d="M48.8002 38.6775
L49.0421 38.6775
" />
<path d="M49.0421 38.6775
L49.1555 38.7379
" />
<path d="M49.1555 38.7379
L49.2008 38.8589
" />
<path d="M49.2008 38.8589
L49.1857 38.9798
" />
<path d="M49.1857 38.9798
L48.5658 39.1008
" />
<path d="M49.3445 39.6451
L50.3121 39.6451
" />
<path d="M50.5767 39.4637
L50.7505 39.5241
" />
<path d="M50.7505 39.5241
L51.0529 39.5241
" />
<path d="M51.0529 39.5241
L51.1814 39.4637
" />
<path d="M51.1814 39.4637
L51.2495 39.4032
" />
<path d="M51.2495 39.4032
L51.3250 39.2822
" />
<path d="M51.3250 39.2822
L51.3402 39.1613
" />
<path d="M51.3402 39.1613
L51.2948 39.0403
" />
<path d="M51.2948 39.0403
L51.2419 38.9798
" />
<path d="M51.2419 38.9798
L51.1285 38.9194
" />
<path d="M51.1285 38.9194
L50.8942 38.8589
" />
<path d="M50.8942 38.8589
L50.7808 38.7984
" />
<path d="M50.7808 38.7984
L50.7278 38.7379
" />
<path d="M50.7278 38.7379
L50.6825 38.6170
" />
<path d="M50.6825 38.6170
L50.6976 38.4960
" />
<path d="M50.6976 38.4960
L50.7732 38.3751
" />
<path d="M50.7732 38.3751
L50.8412 38.3146
" />
<path d="M50.8412 38.3146
L50.9698 38.2541
" />
<path d="M50.9698 38.2541
L51.2721 38.2541
" />
<path d="M51.2721 38.2541
L51.4460 38.3146
" />
<path d="M52.2397 38.2541
L52.4816 38.2541
" />
<path d="M52.4816 38.2541
L52.5950 38.3146
" />
<path d="M52.5950 38.3146
L52.7009 38.4356
" />
<path d="M52.7009 38.4356
L52.7311 38.6775
" />
<path d="M52.7311 38.6775
L52.6782 39.1008
" />
<path d="M52.6782 39.1008
L52.5875 39.3427
" />
<path d="M52.5875 39.3427
L52.4514 39.4637
" />
<path d="M52.4514 39.4637
L52.3229 39.5241
" />
<path d="M52.3229 39.5241
L52.0810 39.5241
" />
<path d="M52.0810 39.5241
L51.9676 39.4637
" />
<path d="M51.9676 39.4637
L51.8618 39.3427
" />
<path d="M51.8618 39.3427
L51.8315 39.1008
" />
<path d="M51.8315 39.1008
L51.8844 38.6775
" />
<path d="M51.8844 38.6775
L51.9751 38.4356
" />
<path d="M51.9751 38.4356
L52.1112 38.3146
" />
<path d="M52.1112 38.3146
L52.2397 38.2541
" />
<path d="M53.1847 39.4032
L53.2376 39.4637
" />
<path d="M53.2376 39.4637
L53.1696 39.5241
" />
<path d="M53.1696 39.5241
L53.1167 39.4637
" />
<path d="M53.1167 39.4637
L53.1847 39.4032
" />
<path d="M53.1847 39.4032
L53.1696 39.5241
" />
<path d="M53.2678 38.7379
L53.3208 38.7984
" />
<path d="M53.3208 38.7984
L53.2527 38.8589
" />
<path d="M53.2527 38.8589
L53.1998 38.7984
" />
<path d="M53.1998 38.7984
L53.2678 38.7379
" />
<path d="M53.2678 38.7379
L53.2527 38.8589
" />
<path d="M54.6059 39.6451
L54.4925 39.5846
" />
<path d="M54.4925 39.5846
L54.3867 39.4637
" />
<path d="M54.3867 39.4637
L54.2279 39.2822
" />
<path d="M54.2279 39.2822
L54.1146 39.2217
" />
<path d="M54.1146 39.2217
L53.9936 39.2217
" />
<path d="M54.0163 39.5241
L53.9029 39.4637
" />
<path d="M53.9029 39.4637
L53.7971 39.3427
" />
<path d="M53.7971 39.3427
L53.7668 39.1008
" />
<path d="M53.7668 39.1008
L53.8197 38.6775
" />
<path d="M53.8197 38.6775
L53.9104 38.4356
" />
<path d="M53.9104 38.4356
L54.0465 38.3146
" />
<path d="M54.0465 38.3146
L54.1750 38.2541
" />
<path d="M54.1750 38.2541
L54.4169 38.2541
" />
<path d="M54.4169 38.2541
L54.5303 38.3146
" />
<path d="M54.5303 38.3146
L54.6362 38.4356
" />
<path d="M54.6362 38.4356
L54.6664 38.6775
" />
<path d="M54.6664 38.6775
L54.6135 39.1008
" />
<path d="M54.6135 39.1008
L54.5228 39.3427
" />
<path d="M54.5228 39.3427
L54.3867 39.4637
" />
<path d="M54.3867 39.4637
L54.2582 39.5241
" />
<path d="M54.2582 39.5241
L54.0163 39.5241
" />
<path d="M55.0520 39.4637
L55.2258 39.5241
" />
<path d="M55.2258 39.5241
L55.5282 39.5241
" />
<path d="M55.5282 39.5241
L55.6567 39.4637
" />
<path d="M55.6567 39.4637
L55.7248 39.4032
" />
<path d="M55.7248 39.4032
L55.8003 39.2822
" />
<path d="M55.8003 39.2822
L55.8155 39.1613
" />
<path d="M55.8155 39.1613
L55.7701 39.0403
" />
<path d="M55.7701 39.0403
L55.7172 38.9798
" />
<path d="M55.7172 38.9798
L55.6038 38.9194
" />
<path d="M55.6038 38.9194
L55.3695 38.8589
" />
<path d="M55.3695 38.8589
L55.2561 38.7984
" />
<path d="M55.2561 38.7984
L55.2031 38.7379
" />
<path d="M55.2031 38.7379
L55.1578 38.6170
" />
<path d="M55.1578 38.6170
L55.1729 38.4960
" />
<path d="M55.1729 38.4960
L55.2485 38.3751
" />
<path d="M55.2485 38.3751
L55.3165 38.3146
" />
<path d="M55.3165 38.3146
L55.4451 38.2541
" />
<path d="M55.4451 38.2541
L55.7474 38.2541
" />
<path d="M55.7474 38.2541
L55.9213 38.3146
" />
<path d="M56.7150 38.2541
L56.9569 38.2541
" />
<path d="M56.9569 38.2541
L57.0703 38.3146
" />
<path d="M57.0703 38.3146
L57.1762 38.4356
" />
<path d="M57.1762 38.4356
L57.2064 38.6775
" />
<path d="M57.2064 38.6775
L57.1535 39.1008
" />
<path d="M57.1535 39.1008
L57.0628 39.3427
" />
<path d="M57.0628 39.3427
L56.9267 39.4637
" />
<path d="M56.9267 39.4637
L56.7982 39.5241
" />
<path d="M56.7982 39.5241
L56.5563 39.5241
" />
<path d="M56.5563 39.5241
L56.4429 39.4637
" />
<path d="M56.4429 39.4637
L56.3371 39.3427
" />
<path d="M56.3371 39.3427
L56.3068 39.1008
" />
<path d="M56.3068 39.1008
L56.3597 38.6775
" />
<path d="M56.3597 38.6775
L56.4504 38.4356
" />
<path d="M56.4504 38.4356
L56.5865 38.3146
" />
<path d="M56.5865 38.3146
L56.7150 38.2541
" />
<path d="M57.6449 39.5241
L57.8036 38.2541
" />
<path d="M57.8036 38.2541
L58.2874 38.2541
" />
<path d="M58.2874 38.2541
L58.4008 38.3146
" />
<path d="M58.4008 38.3146
L58.4537 38.3751
" />
<path d="M58.4537 38.3751
L58.4991 38.4960
" />
<path d="M58.4991 38.4960
L58.4764 38.6775
" />
<path d="M58.4764 38.6775
L58.4008 38.7984
" />
<path d="M58.4008 38.7984
L58.3328 38.8589
" />
<path d="M58.3328 38.8589
L58.2043 38.9194
" />
<path d="M58.2043 38.9194
L57.7205 38.9194
" />
<path d="M58.9753 39.0403
L59.9430 39.0403
" />
<path d="M60.5704 38.3751
L60.6385 38.3146
" />
<path d="M60.6385 38.3146
L60.7670 38.2541
" />
<path d="M60.7670 38.2541
L61.0694 38.2541
" />
<path d="M61.0694 38.2541
L61.1827 38.3146
" />
<path d="M61.1827 38.3146
L61.2357 38.3751
" />
<path d="M61.2357 38.3751
L61.2810 38.4960
" />
<path d="M61.2810 38.4960
L61.2659 38.6170
" />
<path d="M61.2659 38.6170
L61.1827 38.7984
" />
<path d="M61.1827 38.7984
L60.3663 39.5241
" />
<path d="M60.3663 39.5241
L61.1525 39.5241
" />
<path d="M62.0974 38.2541
L62.2184 38.2541
" />
<path d="M62.2184 38.2541
L62.3318 38.3146
" />
<path d="M62.3318 38.3146
L62.3847 38.3751
" />
<path d="M62.3847 38.3751
L62.4300 38.4960
" />
<path d="M62.4300 38.4960
L62.4603 38.7379
" />
<path d="M62.4603 38.7379
L62.4225 39.0403
" />
<path d="M62.4225 39.0403
L62.3318 39.2822
" />
<path d="M62.3318 39.2822
L62.2562 39.4032
" />
<path d="M62.2562 39.4032
L62.1881 39.4637
" />
<path d="M62.1881 39.4637
L62.0596 39.5241
" />
<path d="M62.0596 39.5241
L61.9387 39.5241
" />
<path d="M61.9387 39.5241
L61.8253 39.4637
" />
<path d="M61.8253 39.4637
L61.7724 39.4032
" />
<path d="M61.7724 39.4032
L61.7270 39.2822
" />
<path d="M61.7270 39.2822
L61.6968 39.0403
" />
<path d="M61.6968 39.0403
L61.7346 38.7379
" />
<path d="M61.7346 38.7379
L61.8253 38.4960
" />
<path d="M61.8253 38.4960
L61.9009 38.3751
" />
<path d="M61.9009 38.3751
L61.9689 38.3146
" />
<path d="M61.9689 38.3146
L62.0974 38.2541
" />
<path d="M62.5888 39.6451
L63.5564 39.6451
" />
<path d="M63.9117 38.2541
L64.6979 38.2541
" />
<path d="M64.6979 38.2541
L64.2141 38.7379
" />
<path d="M64.2141 38.7379
L64.3955 38.7379
" />
<path d="M64.3955 38.7379
L64.5089 38.7984
" />
<path d="M64.5089 38.7984
L64.5618 38.8589
" />
<path d="M64.5618 38.8589
L64.6071 38.9798
" />
<path d="M64.6071 38.9798
L64.5693 39.2822
" />
<path d="M64.5693 39.2822
L64.4938 39.4032
" />
<path d="M64.4938 39.4032
L64.4257 39.4637
" />
<path d="M64.4257 39.4637
L64.2972 39.5241
" />
<path d="M64.2972 39.5241
L63.9343 39.5241
" />
<path d="M63.9343 39.5241
L63.8210 39.4637
" />
<path d="M63.8210 39.4637
L63.7680 39.4032
" />
<path d="M65.0985 39.4032
L65.1514 39.4637
" />
<path d="M65.1514 39.4637
L65.0834 39.5241
" />
<path d="M65.0834 39.5241
L65.0305 39.4637
" />
<path d="M65.0305 39.4637
L65.0985 39.4032
" />
<path d="M65.0985 39.4032
L65.0834 39.5241
" />
<path d="M65.7486 39.5241
L65.9906 39.5241
" />
<path d="M65.9906 39.5241
L66.1191 39.4637
" />
<path d="M66.1191 39.4637
L66.1871 39.4032
" />
<path d="M66.1871 39.4032
L66.3307 39.2217
" />
<path d="M66.3307 39.2217
L66.4214 38.9798
" />
<path d="M66.4214 38.9798
L66.4819 38.4960
" />
<path d="M66.4819 38.4960
L66.4366 38.3751
" />
<path d="M66.4366 38.3751
L66.3836 38.3146
" />
<path d="M66.3836 38.3146
L66.2703 38.2541
" />
<path d="M66.2703 38.2541
L66.0284 38.2541
" />
<path d="M66.0284 38.2541
L65.8998 38.3146
" />
<path d="M65.8998 38.3146
L65.8318 38.3751
" />
<path d="M65.8318 38.3751
L65.7562 38.4960
" />
<path d="M65.7562 38.4960
L65.7184 38.7984
" />
<path d="M65.7184 38.7984
L65.7638 38.9194
" />
<path d="M65.7638 38.9194
L65.8167 38.9798
" />
<path d="M65.8167 38.9798
L65.9301 39.0403
" />
<path d="M65.9301 39.0403
L66.1720 39.0403
" />
<path d="M66.1720 39.0403
L66.3005 38.9798
" />
<path d="M66.3005 38.9798
L66.3685 38.9194
" />
<path d="M66.3685 38.9194
L66.4441 38.7984
" />
<path d="M66.7767 39.5241
L67.5478 38.6775
" />
<path d="M66.8826 38.6775
L67.4420 39.5241
" />
<path d="M68.1979 38.7984
L68.0845 38.7379
" />
<path d="M68.0845 38.7379
L68.0316 38.6775
" />
<path d="M68.0316 38.6775
L67.9862 38.5565
" />
<path d="M67.9862 38.5565
L67.9938 38.4960
" />
<path d="M67.9938 38.4960
L68.0694 38.3751
" />
<path d="M68.0694 38.3751
L68.1374 38.3146
" />
<path d="M68.1374 38.3146
L68.2660 38.2541
" />
<path d="M68.2660 38.2541
L68.5079 38.2541
" />
<path d="M68.5079 38.2541
L68.6212 38.3146
" />
<path d="M68.6212 38.3146
L68.6742 38.3751
" />
<path d="M68.6742 38.3751
L68.7195 38.4960
" />
<path d="M68.7195 38.4960
L68.7120 38.5565
" />
<path d="M68.7120 38.5565
L68.6364 38.6775
" />
<path d="M68.6364 38.6775
L68.5683 38.7379
" />
<path d="M68.5683 38.7379
L68.4398 38.7984
" />
<path d="M68.4398 38.7984
L68.1979 38.7984
" />
<path d="M68.1979 38.7984
L68.0694 38.8589
" />
<path d="M68.0694 38.8589
L68.0014 38.9194
" />
<path d="M68.0014 38.9194
L67.9258 39.0403
" />
<path d="M67.9258 39.0403
L67.8955 39.2822
" />
<path d="M67.8955 39.2822
L67.9409 39.4032
" />
<path d="M67.9409 39.4032
L67.9938 39.4637
" />
<path d="M67.9938 39.4637
L68.1072 39.5241
" />
<path d="M68.1072 39.5241
L68.3491 39.5241
" />
<path d="M68.3491 39.5241
L68.4776 39.4637
" />
<path d="M68.4776 39.4637
L68.5457 39.4032
" />
<path d="M68.5457 39.4032
L68.6212 39.2822
" />
<path d="M68.6212 39.2822
L68.6515 39.0403
" />
<path d="M68.6515 39.0403
L68.6061 38.9194
" />
<path d="M68.6061 38.9194
L68.5532 38.8589
" />
<path d="M68.5532 38.8589
L68.4398 38.7984
" />
<path d="M69.1504 39.4032
L69.2033 39.4637
" />
<path d="M69.2033 39.4637
L69.1353 39.5241
" />
<path d="M69.1353 39.5241
L69.0824 39.4637
" />
<path d="M69.0824 39.4637
L69.1504 39.4032
" />
<path d="M69.1504 39.4032
L69.1353 39.5241
" />
<path d="M69.7779 38.2541
L70.6245 38.2541
" />
<path d="M70.6245 38.2541
L69.9215 39.5241
" />
<path d="M70.9496 39.5241
L71.0554 38.6775
" />
<path d="M71.0403 38.7984
L71.1083 38.7379
" />
<path d="M71.1083 38.7379
L71.2368 38.6775
" />
<path d="M71.2368 38.6775
L71.4183 38.6775
" />
<path d="M71.4183 38.6775
L71.5317 38.7379
" />
<path d="M71.5317 38.7379
L71.5770 38.8589
" />
<path d="M71.5770 38.8589
L71.4939 39.5241
" />
<path d="M71.5770 38.8589
L71.6526 38.7379
" />
<path d="M71.6526 38.7379
L71.7811 38.6775
" />
<path d="M71.7811 38.6775
L71.9625 38.6775
" />
<path d="M71.9625 38.6775
L72.0759 38.7379
" />
<path d="M72.0759 38.7379
L72.1213 38.8589
" />
<path d="M72.1213 38.8589
L72.0381 39.5241
" />
<path d="M72.6429 39.5241
L72.7487 38.6775
" />
<path d="M72.7336 38.7984
L72.8016 38.7379
" />
<path d="M72.8016 38.7379
L72.9301 38.6775
" />
<path d="M72.9301 38.6775
L73.1116 38.6775
" />
<path d="M73.1116 38.6775
L73.2250 38.7379
" />
<path d="M73.2250 38.7379
L73.2703 38.8589
" />
<path d="M73.2703 38.8589
L73.1872 39.5241
" />
<path d="M73.2703 38.8589
L73.3459 38.7379
" />
<path d="M73.3459 38.7379
L73.4744 38.6775
" />
<path d="M73.4744 38.6775
L73.6558 38.6775
" />
<path d="M73.6558 38.6775
L73.7692 38.7379
" />
<path d="M73.7692 38.7379
L73.8146 38.8589
" />
<path d="M73.8146 38.8589
L73.7314 39.5241
" />
<path d="M74.0187 39.6451
L74.9863 39.6451
" />
<path d="M75.3038 39.5241
L75.4625 38.2541
" />
<path d="M75.4625 38.2541
L75.9463 38.2541
" />
<path d="M75.9463 38.2541
L76.0597 38.3146
" />
<path d="M76.0597 38.3146
L76.1126 38.3751
" />
<path d="M76.1126 38.3751
L76.1580 38.4960
" />
<path d="M76.1580 38.4960
L76.1353 38.6775
" />
<path d="M76.1353 38.6775
L76.0597 38.7984
" />
<path d="M76.0597 38.7984
L75.9917 38.8589
" />
<path d="M75.9917 38.8589
L75.8632 38.9194
" />
<path d="M75.8632 38.9194
L75.3794 38.9194
" />
<path d="M76.9744 38.2541
L77.0954 38.2541
" />
<path d="M77.0954 38.2541
L77.2088 38.3146
" />
<path d="M77.2088 38.3146
L77.2617 38.3751
" />
<path d="M77.2617 38.3751
L77.3070 38.4960
" />
<path d="M77.3070 38.4960
L77.3373 38.7379
" />
<path d="M77.3373 38.7379
L77.2995 39.0403
" />
<path d="M77.2995 39.0403
L77.2088 39.2822
" />
<path d="M77.2088 39.2822
L77.1332 39.4032
" />
<path d="M77.1332 39.4032
L77.0651 39.4637
" />
<path d="M77.0651 39.4637
L76.9366 39.5241
" />
<path d="M76.9366 39.5241
L76.8157 39.5241
" />
<path d="M76.8157 39.5241
L76.7023 39.4637
" />
<path d="M76.7023 39.4637
L76.6494 39.4032
" />
<path d="M76.6494 39.4032
L76.6040 39.2822
" />
<path d="M76.6040 39.2822
L76.5738 39.0403
" />
<path d="M76.5738 39.0403
L76.6116 38.7379
" />
<path d="M76.6116 38.7379
L76.7023 38.4960
" />
<path d="M76.7023 38.4960
L76.7779 38.3751
" />
<path d="M76.7779 38.3751
L76.8459 38.3146
" />
<path d="M76.8459 38.3146
L76.9744 38.2541
" />
<path d="M77.7984 39.4032
L77.8513 39.4637
" />
<path d="M77.8513 39.4637
L77.7833 39.5241
" />
<path d="M77.7833 39.5241
L77.7304 39.4637
" />
<path d="M77.7304 39.4637
L77.7984 39.4032
" />
<path d="M77.7984 39.4032
L77.7833 39.5241
" />
<path d="M79.0911 38.2541
L78.8492 38.2541
" />
<path d="M78.8492 38.2541
L78.7207 38.3146
" />
<path d="M78.7207 38.3146
L78.6527 38.3751
" />
<path d="M78.6527 38.3751
L78.5090 38.5565
" />
<path d="M78.5090 38.5565
L78.4183 38.7984
" />
<path d="M78.4183 38.7984
L78.3578 39.2822
" />
<path d="M78.3578 39.2822
L78.4032 39.4032
" />
<path d="M78.4032 39.4032
L78.4561 39.4637
" />
<path d="M78.4561 39.4637
L78.5695 39.5241
" />
<path d="M78.5695 39.5241
L78.8114 39.5241
" />
<path d="M78.8114 39.5241
L78.9399 39.4637
" />
<path d="M78.9399 39.4637
L79.0080 39.4032
" />
<path d="M79.0080 39.4032
L79.0835 39.2822
" />
<path d="M79.0835 39.2822
L79.1213 38.9798
" />
<path d="M79.1213 38.9798
L79.0760 38.8589
" />
<path d="M79.0760 38.8589
L79.0231 38.7984
" />
<path d="M79.0231 38.7984
L78.9097 38.7379
" />
<path d="M78.9097 38.7379
L78.6678 38.7379
" />
<path d="M78.6678 38.7379
L78.5393 38.7984
" />
<path d="M78.5393 38.7984
L78.4712 38.8589
" />
<path d="M78.4712 38.8589
L78.3956 38.9798
" />
<path d="M79.6354 38.2541
L80.4216 38.2541
" />
<path d="M80.4216 38.2541
L79.9378 38.7379
" />
<path d="M79.9378 38.7379
L80.1192 38.7379
" />
<path d="M80.1192 38.7379
L80.2326 38.7984
" />
<path d="M80.2326 38.7984
L80.2855 38.8589
" />
<path d="M80.2855 38.8589
L80.3308 38.9798
" />
<path d="M80.3308 38.9798
L80.2930 39.2822
" />
<path d="M80.2930 39.2822
L80.2175 39.4032
" />
<path d="M80.2175 39.4032
L80.1494 39.4637
" />
<path d="M80.1494 39.4637
L80.0209 39.5241
" />
<path d="M80.0209 39.5241
L79.6580 39.5241
" />
<path d="M79.6580 39.5241
L79.5447 39.4637
" />
<path d="M79.5447 39.4637
L79.4917 39.4032
" />
<path d="M81.5706 38.2541
L80.9658 38.2541
" />
<path d="M80.9658 38.2541
L80.8298 38.8589
" />
<path d="M80.8298 38.8589
L80.8978 38.7984
" />
<path d="M80.8978 38.7984
L81.0263 38.7379
" />
<path d="M81.0263 38.7379
L81.3287 38.7379
" />
<path d="M81.3287 38.7379
L81.4421 38.7984
" />
<path d="M81.4421 38.7984
L81.4950 38.8589
" />
<path d="M81.4950 38.8589
L81.5403 38.9798
" />
<path d="M81.5403 38.9798
L81.5025 39.2822
" />
<path d="M81.5025 39.2822
L81.4270 39.4032
" />
<path d="M81.4270 39.4032
L81.3589 39.4637
" />
<path d="M81.3589 39.4637
L81.2304 39.5241
" />
<path d="M81.2304 39.5241
L80.9280 39.5241
" />
<path d="M80.9280 39.5241
L80.8146 39.4637
" />
<path d="M80.8146 39.4637
L80.7617 39.4032
" />
<path d="M82.0166 39.5241
L82.1224 38.6775
" />
<path d="M82.1073 38.7984
L82.1753 38.7379
" />
<path d="M82.1753 38.7379
L82.3038 38.6775
" />
<path d="M82.3038 38.6775
L82.4853 38.6775
" />
<path d="M82.4853 38.6775
L82.5987 38.7379
" />
<path d="M82.5987 38.7379
L82.6440 38.8589
" />
<path d="M82.6440 38.8589
L82.5609 39.5241
" />
<path d="M82.6440 38.8589
L82.7196 38.7379
" />
<path d="M82.7196 38.7379
L82.8481 38.6775
" />
<path d="M82.8481 38.6775
L83.0295 38.6775
" />
<path d="M83.0295 38.6775
L83.1429 38.7379
" />
<path d="M83.1429 38.7379
L83.1883 38.8589
" />
<path d="M83.1883 38.8589
L83.1051 39.5241
" />
<path d="M83.7099 39.5241
L83.8157 38.6775
" />
<path d="M83.8006 38.7984
L83.8686 38.7379
" />
<path d="M83.8686 38.7379
L83.9971 38.6775
" />
<path d="M83.9971 38.6775
L84.1786 38.6775
" />
<path d="M84.1786 38.6775
L84.2920 38.7379
" />
<path d="M84.2920 38.7379
L84.3373 38.8589
" />
<path d="M84.3373 38.8589
L84.2542 39.5241
" />
<path d="M84.3373 38.8589
L84.4129 38.7379
" />
<path d="M84.4129 38.7379
L84.5414 38.6775
" />
<path d="M84.5414 38.6775
L84.7228 38.6775
" />
<path d="M84.7228 38.6775
L84.8362 38.7379
" />
<path d="M84.8362 38.7379
L84.8816 38.8589
" />
<path d="M84.8816 38.8589
L84.7984 39.5241
" />
</g><text x="63.1972" y="9.0999"
textLength="105.3288" font-size="1.6933" lengthAdjust="spacingAndGlyphs"
text-anchor="middle" opacity="0">https://www.analog.com/media/en/technical-documentation/data-sheets/ADuM7640_7641_7642_7643.pdf</text>
<g class="stroked-text"><desc>https://www.analog.com/media/en/technical-documentation/data-sheets/ADuM7640_7641_7642_7643.pdf</desc>
<path d="M10.9463 9.0441
L10.9463 7.7741
" />
<path d="M11.4906 9.0441
L11.4906 8.3789
" />
<path d="M11.4906 8.3789
L11.4301 8.2579
" />
<path d="M11.4301 8.2579
L11.3092 8.1975
" />
<path d="M11.3092 8.1975
L11.1278 8.1975
" />
<path d="M11.1278 8.1975
L11.0068 8.2579
" />
<path d="M11.0068 8.2579
L10.9463 8.3184
" />
<path d="M11.9139 8.1975
L12.3977 8.1975
" />
<path d="M12.0953 7.7741
L12.0953 8.8627
" />
<path d="M12.0953 8.8627
L12.1558 8.9837
" />
<path d="M12.1558 8.9837
L12.2768 9.0441
" />
<path d="M12.2768 9.0441
L12.3977 9.0441
" />
<path d="M12.6396 8.1975
L13.1234 8.1975
" />
<path d="M12.8210 7.7741
L12.8210 8.8627
" />
<path d="M12.8210 8.8627
L12.8815 8.9837
" />
<path d="M12.8815 8.9837
L13.0025 9.0441
" />
<path d="M13.0025 9.0441
L13.1234 9.0441
" />
<path d="M13.5467 8.1975
L13.5467 9.4675
" />
<path d="M13.5467 8.2579
L13.6677 8.1975
" />
<path d="M13.6677 8.1975
L13.9096 8.1975
" />
<path d="M13.9096 8.1975
L14.0305 8.2579
" />
<path d="M14.0305 8.2579
L14.0910 8.3184
" />
<path d="M14.0910 8.3184
L14.1515 8.4394
" />
<path d="M14.1515 8.4394
L14.1515 8.8022
" />
<path d="M14.1515 8.8022
L14.0910 8.9232
" />
<path d="M14.0910 8.9232
L14.0305 8.9837
" />
<path d="M14.0305 8.9837
L13.9096 9.0441
" />
<path d="M13.9096 9.0441
L13.6677 9.0441
" />
<path d="M13.6677 9.0441
L13.5467 8.9837
" />
<path d="M14.6353 8.9837
L14.7562 9.0441
" />
<path d="M14.7562 9.0441
L14.9981 9.0441
" />
<path d="M14.9981 9.0441
L15.1191 8.9837
" />
<path d="M15.1191 8.9837
L15.1795 8.8627
" />
<path d="M15.1795 8.8627
L15.1795 8.8022
" />
<path d="M15.1795 8.8022
L15.1191 8.6813
" />
<path d="M15.1191 8.6813
L14.9981 8.6208
" />
<path d="M14.9981 8.6208
L14.8167 8.6208
" />
<path d="M14.8167 8.6208
L14.6957 8.5603
" />
<path d="M14.6957 8.5603
L14.6353 8.4394
" />
<path d="M14.6353 8.4394
L14.6353 8.3789
" />
<path d="M14.6353 8.3789
L14.6957 8.2579
" />
<path d="M14.6957 8.2579
L14.8167 8.1975
" />
<path d="M14.8167 8.1975
L14.9981 8.1975
" />
<path d="M14.9981 8.1975
L15.1191 8.2579
" />
<path d="M15.7238 8.9232
L15.7843 8.9837
" />
<path d="M15.7843 8.9837
L15.7238 9.0441
" />
<path d="M15.7238 9.0441
L15.6634 8.9837
" />
<path d="M15.6634 8.9837
L15.7238 8.9232
" />
<path d="M15.7238 8.9232
L15.7238 9.0441
" />
<path d="M15.7238 8.2579
L15.7843 8.3184
" />
<path d="M15.7843 8.3184
L15.7238 8.3789
" />
<path d="M15.7238 8.3789
L15.6634 8.3184
" />
<path d="M15.6634 8.3184
L15.7238 8.2579
" />
<path d="M15.7238 8.2579
L15.7238 8.3789
" />
<path d="M17.2358 7.7137
L16.1472 9.3465
" />
<path d="M18.5663 7.7137
L17.4777 9.3465
" />
<path d="M18.8687 8.1975
L19.1106 9.0441
" />
<path d="M19.1106 9.0441
L19.3525 8.4394
" />
<path d="M19.3525 8.4394
L19.5944 9.0441
" />
<path d="M19.5944 9.0441
L19.8363 8.1975
" />
<path d="M20.1992 8.1975
L20.4411 9.0441
" />
<path d="M20.4411 9.0441
L20.6830 8.4394
" />
<path d="M20.6830 8.4394
L20.9249 9.0441
" />
<path d="M20.9249 9.0441
L21.1668 8.1975
" />
<path d="M21.5297 8.1975
L21.7716 9.0441
" />
<path d="M21.7716 9.0441
L22.0135 8.4394
" />
<path d="M22.0135 8.4394
L22.2554 9.0441
" />
<path d="M22.2554 9.0441
L22.4973 8.1975
" />
<path d="M22.9811 8.9232
L23.0416 8.9837
" />
<path d="M23.0416 8.9837
L22.9811 9.0441
" />
<path d="M22.9811 9.0441
L22.9207 8.9837
" />
<path d="M22.9207 8.9837
L22.9811 8.9232
" />
<path d="M22.9811 8.9232
L22.9811 9.0441
" />
<path d="M24.1302 9.0441
L24.1302 8.3789
" />
<path d="M24.1302 8.3789
L24.0697 8.2579
" />
<path d="M24.0697 8.2579
L23.9488 8.1975
" />
<path d="M23.9488 8.1975
L23.7069 8.1975
" />
<path d="M23.7069 8.1975
L23.5859 8.2579
" />
<path d="M24.1302 8.9837
L24.0093 9.0441
" />
<path d="M24.0093 9.0441
L23.7069 9.0441
" />
<path d="M23.7069 9.0441
L23.5859 8.9837
" />
<path d="M23.5859 8.9837
L23.5255 8.8627
" />
<path d="M23.5255 8.8627
L23.5255 8.7417
" />
<path d="M23.5255 8.7417
L23.5859 8.6208
" />
<path d="M23.5859 8.6208
L23.7069 8.5603
" />
<path d="M23.7069 8.5603
L24.0093 8.5603
" />
<path d="M24.0093 8.5603
L24.1302 8.4998
" />
<path d="M24.7349 8.1975
L24.7349 9.0441
" />
<path d="M24.7349 8.3184
L24.7954 8.2579
" />
<path d="M24.7954 8.2579
L24.9164 8.1975
" />
<path d="M24.9164 8.1975
L25.0978 8.1975
" />
<path d="M25.0978 8.1975
L25.2187 8.2579
" />
<path d="M25.2187 8.2579
L25.2792 8.3789
" />
<path d="M25.2792 8.3789
L25.2792 9.0441
" />
<path d="M26.4282 9.0441
L26.4282 8.3789
" />
<path d="M26.4282 8.3789
L26.3677 8.2579
" />
<path d="M26.3677 8.2579
L26.2468 8.1975
" />
<path d="M26.2468 8.1975
L26.0049 8.1975
" />
<path d="M26.0049 8.1975
L25.8839 8.2579
" />
<path d="M26.4282 8.9837
L26.3073 9.0441
" />
<path d="M26.3073 9.0441
L26.0049 9.0441
" />
<path d="M26.0049 9.0441
L25.8839 8.9837
" />
<path d="M25.8839 8.9837
L25.8235 8.8627
" />
<path d="M25.8235 8.8627
L25.8235 8.7417
" />
<path d="M25.8235 8.7417
L25.8839 8.6208
" />
<path d="M25.8839 8.6208
L26.0049 8.5603
" />
<path d="M26.0049 8.5603
L26.3073 8.5603
" />
<path d="M26.3073 8.5603
L26.4282 8.4998
" />
<path d="M27.2144 9.0441
L27.0934 8.9837
" />
<path d="M27.0934 8.9837
L27.0329 8.8627
" />
<path d="M27.0329 8.8627
L27.0329 7.7741
" />
<path d="M27.8796 9.0441
L27.7586 8.9837
" />
<path d="M27.7586 8.9837
L27.6981 8.9232
" />
<path d="M27.6981 8.9232
L27.6377 8.8022
" />
<path d="M27.6377 8.8022
L27.6377 8.4394
" />
<path d="M27.6377 8.4394
L27.6981 8.3184
" />
<path d="M27.6981 8.3184
L27.7586 8.2579
" />
<path d="M27.7586 8.2579
L27.8796 8.1975
" />
<path d="M27.8796 8.1975
L28.0610 8.1975
" />
<path d="M28.0610 8.1975
L28.1819 8.2579
" />
<path d="M28.1819 8.2579
L28.2424 8.3184
" />
<path d="M28.2424 8.3184
L28.3029 8.4394
" />
<path d="M28.3029 8.4394
L28.3029 8.8022
" />
<path d="M28.3029 8.8022
L28.2424 8.9232
" />
<path d="M28.2424 8.9232
L28.1819 8.9837
" />
<path d="M28.1819 8.9837
L28.0610 9.0441
" />
<path d="M28.0610 9.0441
L27.8796 9.0441
" />
<path d="M29.3914 8.1975
L29.3914 9.2256
" />
<path d="M29.3914 9.2256
L29.3309 9.3465
" />
<path d="M29.3309 9.3465
L29.2705 9.4070
" />
<path d="M29.2705 9.4070
L29.1495 9.4675
" />
<path d="M29.1495 9.4675
L28.9681 9.4675
" />
<path d="M28.9681 9.4675
L28.8471 9.4070
" />
<path d="M29.3914 8.9837
L29.2705 9.0441
" />
<path d="M29.2705 9.0441
L29.0286 9.0441
" />
<path d="M29.0286 9.0441
L28.9076 8.9837
" />
<path d="M28.9076 8.9837
L28.8471 8.9232
" />
<path d="M28.8471 8.9232
L28.7867 8.8022
" />
<path d="M28.7867 8.8022
L28.7867 8.4394
" />
<path d="M28.7867 8.4394
L28.8471 8.3184
" />
<path d="M28.8471 8.3184
L28.9076 8.2579
" />
<path d="M28.9076 8.2579
L29.0286 8.1975
" />
<path d="M29.0286 8.1975
L29.2705 8.1975
" />
<path d="M29.2705 8.1975
L29.3914 8.2579
" />
<path d="M29.9961 8.9232
L30.0566 8.9837
" />
<path d="M30.0566 8.9837
L29.9961 9.0441
" />
<path d="M29.9961 9.0441
L29.9357 8.9837
" />
<path d="M29.9357 8.9837
L29.9961 8.9232
" />
<path d="M29.9961 8.9232
L29.9961 9.0441
" />
<path d="M31.1452 8.9837
L31.0243 9.0441
" />
<path d="M31.0243 9.0441
L30.7824 9.0441
" />
<path d="M30.7824 9.0441
L30.6614 8.9837
" />
<path d="M30.6614 8.9837
L30.6009 8.9232
" />
<path d="M30.6009 8.9232
L30.5405 8.8022
" />
<path d="M30.5405 8.8022
L30.5405 8.4394
" />
<path d="M30.5405 8.4394
L30.6009 8.3184
" />
<path d="M30.6009 8.3184
L30.6614 8.2579
" />
<path d="M30.6614 8.2579
L30.7824 8.1975
" />
<path d="M30.7824 8.1975
L31.0243 8.1975
" />
<path d="M31.0243 8.1975
L31.1452 8.2579
" />
<path d="M31.8710 9.0441
L31.7500 8.9837
" />
<path d="M31.7500 8.9837
L31.6895 8.9232
" />
<path d="M31.6895 8.9232
L31.6291 8.8022
" />
<path d="M31.6291 8.8022
L31.6291 8.4394
" />
<path d="M31.6291 8.4394
L31.6895 8.3184
" />
<path d="M31.6895 8.3184
L31.7500 8.2579
" />
<path d="M31.7500 8.2579
L31.8710 8.1975
" />
<path d="M31.8710 8.1975
L32.0524 8.1975
" />
<path d="M32.0524 8.1975
L32.1733 8.2579
" />
<path d="M32.1733 8.2579
L32.2338 8.3184
" />
<path d="M32.2338 8.3184
L32.2943 8.4394
" />
<path d="M32.2943 8.4394
L32.2943 8.8022
" />
<path d="M32.2943 8.8022
L32.2338 8.9232
" />
<path d="M32.2338 8.9232
L32.1733 8.9837
" />
<path d="M32.1733 8.9837
L32.0524 9.0441
" />
<path d="M32.0524 9.0441
L31.8710 9.0441
" />
<path d="M32.8385 9.0441
L32.8385 8.1975
" />
<path d="M32.8385 8.3184
L32.8990 8.2579
" />
<path d="M32.8990 8.2579
L33.0200 8.1975
" />
<path d="M33.0200 8.1975
L33.2014 8.1975
" />
<path d="M33.2014 8.1975
L33.3223 8.2579
" />
<path d="M33.3223 8.2579
L33.3828 8.3789
" />
<path d="M33.3828 8.3789
L33.3828 9.0441
" />
<path d="M33.3828 8.3789
L33.4433 8.2579
" />
<path d="M33.4433 8.2579
L33.5642 8.1975
" />
<path d="M33.5642 8.1975
L33.7457 8.1975
" />
<path d="M33.7457 8.1975
L33.8666 8.2579
" />
<path d="M33.8666 8.2579
L33.9271 8.3789
" />
<path d="M33.9271 8.3789
L33.9271 9.0441
" />
<path d="M35.4390 7.7137
L34.3504 9.3465
" />
<path d="M35.8623 9.0441
L35.8623 8.1975
" />
<path d="M35.8623 8.3184
L35.9228 8.2579
" />
<path d="M35.9228 8.2579
L36.0438 8.1975
" />
<path d="M36.0438 8.1975
L36.2252 8.1975
" />
<path d="M36.2252 8.1975
L36.3461 8.2579
" />
<path d="M36.3461 8.2579
L36.4066 8.3789
" />
<path d="M36.4066 8.3789
L36.4066 9.0441
" />
<path d="M36.4066 8.3789
L36.4671 8.2579
" />
<path d="M36.4671 8.2579
L36.5880 8.1975
" />
<path d="M36.5880 8.1975
L36.7695 8.1975
" />
<path d="M36.7695 8.1975
L36.8904 8.2579
" />
<path d="M36.8904 8.2579
L36.9509 8.3789
" />
<path d="M36.9509 8.3789
L36.9509 9.0441
" />
<path d="M38.0394 8.9837
L37.9185 9.0441
" />
<path d="M37.9185 9.0441
L37.6766 9.0441
" />
<path d="M37.6766 9.0441
L37.5556 8.9837
" />
<path d="M37.5556 8.9837
L37.4952 8.8627
" />
<path d="M37.4952 8.8627
L37.4952 8.3789
" />
<path d="M37.4952 8.3789
L37.5556 8.2579
" />
<path d="M37.5556 8.2579
L37.6766 8.1975
" />
<path d="M37.6766 8.1975
L37.9185 8.1975
" />
<path d="M37.9185 8.1975
L38.0394 8.2579
" />
<path d="M38.0394 8.2579
L38.0999 8.3789
" />
<path d="M38.0999 8.3789
L38.0999 8.4998
" />
<path d="M38.0999 8.4998
L37.4952 8.6208
" />
<path d="M39.1885 9.0441
L39.1885 7.7741
" />
<path d="M39.1885 8.9837
L39.0676 9.0441
" />
<path d="M39.0676 9.0441
L38.8257 9.0441
" />
<path d="M38.8257 9.0441
L38.7047 8.9837
" />
<path d="M38.7047 8.9837
L38.6442 8.9232
" />
<path d="M38.6442 8.9232
L38.5838 8.8022
" />
<path d="M38.5838 8.8022
L38.5838 8.4394
" />
<path d="M38.5838 8.4394
L38.6442 8.3184
" />
<path d="M38.6442 8.3184
L38.7047 8.2579
" />
<path d="M38.7047 8.2579
L38.8257 8.1975
" />
<path d="M38.8257 8.1975
L39.0676 8.1975
" />
<path d="M39.0676 8.1975
L39.1885 8.2579
" />
<path d="M39.7932 9.0441
L39.7932 8.1975
" />
<path d="M39.7932 7.7741
L39.7328 7.8346
" />
<path d="M39.7328 7.8346
L39.7932 7.8951
" />
<path d="M39.7932 7.8951
L39.8537 7.8346
" />
<path d="M39.8537 7.8346
L39.7932 7.7741
" />
<path d="M39.7932 7.7741
L39.7932 7.8951
" />
<path d="M40.9423 9.0441
L40.9423 8.3789
" />
<path d="M40.9423 8.3789
L40.8818 8.2579
" />
<path d="M40.8818 8.2579
L40.7609 8.1975
" />
<path d="M40.7609 8.1975
L40.5190 8.1975
" />
<path d="M40.5190 8.1975
L40.3980 8.2579
" />
<path d="M40.9423 8.9837
L40.8214 9.0441
" />
<path d="M40.8214 9.0441
L40.5190 9.0441
" />
<path d="M40.5190 9.0441
L40.3980 8.9837
" />
<path d="M40.3980 8.9837
L40.3376 8.8627
" />
<path d="M40.3376 8.8627
L40.3376 8.7417
" />
<path d="M40.3376 8.7417
L40.3980 8.6208
" />
<path d="M40.3980 8.6208
L40.5190 8.5603
" />
<path d="M40.5190 8.5603
L40.8214 8.5603
" />
<path d="M40.8214 8.5603
L40.9423 8.4998
" />
<path d="M42.4542 7.7137
L41.3656 9.3465
" />
<path d="M43.3613 8.9837
L43.2404 9.0441
" />
<path d="M43.2404 9.0441
L42.9985 9.0441
" />
<path d="M42.9985 9.0441
L42.8775 8.9837
" />
<path d="M42.8775 8.9837
L42.8171 8.8627
" />
<path d="M42.8171 8.8627
L42.8171 8.3789
" />
<path d="M42.8171 8.3789
L42.8775 8.2579
" />
<path d="M42.8775 8.2579
L42.9985 8.1975
" />
<path d="M42.9985 8.1975
L43.2404 8.1975
" />
<path d="M43.2404 8.1975
L43.3613 8.2579
" />
<path d="M43.3613 8.2579
L43.4218 8.3789
" />
<path d="M43.4218 8.3789
L43.4218 8.4998
" />
<path d="M43.4218 8.4998
L42.8171 8.6208
" />
<path d="M43.9661 8.1975
L43.9661 9.0441
" />
<path d="M43.9661 8.3184
L44.0266 8.2579
" />
<path d="M44.0266 8.2579
L44.1476 8.1975
" />
<path d="M44.1476 8.1975
L44.3290 8.1975
" />
<path d="M44.3290 8.1975
L44.4499 8.2579
" />
<path d="M44.4499 8.2579
L44.5104 8.3789
" />
<path d="M44.5104 8.3789
L44.5104 9.0441
" />
<path d="M46.0223 7.7137
L44.9337 9.3465
" />
<path d="M46.2642 8.1975
L46.7480 8.1975
" />
<path d="M46.4456 7.7741
L46.4456 8.8627
" />
<path d="M46.4456 8.8627
L46.5061 8.9837
" />
<path d="M46.5061 8.9837
L46.6271 9.0441
" />
<path d="M46.6271 9.0441
L46.7480 9.0441
" />
<path d="M47.6551 8.9837
L47.5342 9.0441
" />
<path d="M47.5342 9.0441
L47.2923 9.0441
" />
<path d="M47.2923 9.0441
L47.1713 8.9837
" />
<path d="M47.1713 8.9837
L47.1109 8.8627
" />
<path d="M47.1109 8.8627
L47.1109 8.3789
" />
<path d="M47.1109 8.3789
L47.1713 8.2579
" />
<path d="M47.1713 8.2579
L47.2923 8.1975
" />
<path d="M47.2923 8.1975
L47.5342 8.1975
" />
<path d="M47.5342 8.1975
L47.6551 8.2579
" />
<path d="M47.6551 8.2579
L47.7156 8.3789
" />
<path d="M47.7156 8.3789
L47.7156 8.4998
" />
<path d="M47.7156 8.4998
L47.1109 8.6208
" />
<path d="M48.8042 8.9837
L48.6833 9.0441
" />
<path d="M48.6833 9.0441
L48.4414 9.0441
" />
<path d="M48.4414 9.0441
L48.3204 8.9837
" />
<path d="M48.3204 8.9837
L48.2599 8.9232
" />
<path d="M48.2599 8.9232
L48.1995 8.8022
" />
<path d="M48.1995 8.8022
L48.1995 8.4394
" />
<path d="M48.1995 8.4394
L48.2599 8.3184
" />
<path d="M48.2599 8.3184
L48.3204 8.2579
" />
<path d="M48.3204 8.2579
L48.4414 8.1975
" />
<path d="M48.4414 8.1975
L48.6833 8.1975
" />
<path d="M48.6833 8.1975
L48.8042 8.2579
" />
<path d="M49.3485 9.0441
L49.3485 7.7741
" />
<path d="M49.8928 9.0441
L49.8928 8.3789
" />
<path d="M49.8928 8.3789
L49.8323 8.2579
" />
<path d="M49.8323 8.2579
L49.7114 8.1975
" />
<path d="M49.7114 8.1975
L49.5300 8.1975
" />
<path d="M49.5300 8.1975
L49.4090 8.2579
" />
<path d="M49.4090 8.2579
L49.3485 8.3184
" />
<path d="M50.4975 8.1975
L50.4975 9.0441
" />
<path d="M50.4975 8.3184
L50.5580 8.2579
" />
<path d="M50.5580 8.2579
L50.6790 8.1975
" />
<path d="M50.6790 8.1975
L50.8604 8.1975
" />
<path d="M50.8604 8.1975
L50.9813 8.2579
" />
<path d="M50.9813 8.2579
L51.0418 8.3789
" />
<path d="M51.0418 8.3789
L51.0418 9.0441
" />
<path d="M51.6465 9.0441
L51.6465 8.1975
" />
<path d="M51.6465 7.7741
L51.5861 7.8346
" />
<path d="M51.5861 7.8346
L51.6465 7.8951
" />
<path d="M51.6465 7.8951
L51.7070 7.8346
" />
<path d="M51.7070 7.8346
L51.6465 7.7741
" />
<path d="M51.6465 7.7741
L51.6465 7.8951
" />
<path d="M52.7956 8.9837
L52.6747 9.0441
" />
<path d="M52.6747 9.0441
L52.4328 9.0441
" />
<path d="M52.4328 9.0441
L52.3118 8.9837
" />
<path d="M52.3118 8.9837
L52.2513 8.9232
" />
<path d="M52.2513 8.9232
L52.1909 8.8022
" />
<path d="M52.1909 8.8022
L52.1909 8.4394
" />
<path d="M52.1909 8.4394
L52.2513 8.3184
" />
<path d="M52.2513 8.3184
L52.3118 8.2579
" />
<path d="M52.3118 8.2579
L52.4328 8.1975
" />
<path d="M52.4328 8.1975
L52.6747 8.1975
" />
<path d="M52.6747 8.1975
L52.7956 8.2579
" />
<path d="M53.8842 9.0441
L53.8842 8.3789
" />
<path d="M53.8842 8.3789
L53.8237 8.2579
" />
<path d="M53.8237 8.2579
L53.7028 8.1975
" />
<path d="M53.7028 8.1975
L53.4609 8.1975
" />
<path d="M53.4609 8.1975
L53.3399 8.2579
" />
<path d="M53.8842 8.9837
L53.7633 9.0441
" />
<path d="M53.7633 9.0441
L53.4609 9.0441
" />
<path d="M53.4609 9.0441
L53.3399 8.9837
" />
<path d="M53.3399 8.9837
L53.2795 8.8627
" />
<path d="M53.2795 8.8627
L53.2795 8.7417
" />
<path d="M53.2795 8.7417
L53.3399 8.6208
" />
<path d="M53.3399 8.6208
L53.4609 8.5603
" />
<path d="M53.4609 8.5603
L53.7633 8.5603
" />
<path d="M53.7633 8.5603
L53.8842 8.4998
" />
<path d="M54.6704 9.0441
L54.5494 8.9837
" />
<path d="M54.5494 8.9837
L54.4889 8.8627
" />
<path d="M54.4889 8.8627
L54.4889 7.7741
" />
<path d="M55.1541 8.5603
L56.1218 8.5603
" />
<path d="M57.2708 9.0441
L57.2708 7.7741
" />
<path d="M57.2708 8.9837
L57.1499 9.0441
" />
<path d="M57.1499 9.0441
L56.9080 9.0441
" />
<path d="M56.9080 9.0441
L56.7870 8.9837
" />
<path d="M56.7870 8.9837
L56.7265 8.9232
" />
<path d="M56.7265 8.9232
L56.6661 8.8022
" />
<path d="M56.6661 8.8022
L56.6661 8.4394
" />
<path d="M56.6661 8.4394
L56.7265 8.3184
" />
<path d="M56.7265 8.3184
L56.7870 8.2579
" />
<path d="M56.7870 8.2579
L56.9080 8.1975
" />
<path d="M56.9080 8.1975
L57.1499 8.1975
" />
<path d="M57.1499 8.1975
L57.2708 8.2579
" />
<path d="M58.0570 9.0441
L57.9360 8.9837
" />
<path d="M57.9360 8.9837
L57.8755 8.9232
" />
<path d="M57.8755 8.9232
L57.8151 8.8022
" />
<path d="M57.8151 8.8022
L57.8151 8.4394
" />
<path d="M57.8151 8.4394
L57.8755 8.3184
" />
<path d="M57.8755 8.3184
L57.9360 8.2579
" />
<path d="M57.9360 8.2579
L58.0570 8.1975
" />
<path d="M58.0570 8.1975
L58.2384 8.1975
" />
<path d="M58.2384 8.1975
L58.3593 8.2579
" />
<path d="M58.3593 8.2579
L58.4198 8.3184
" />
<path d="M58.4198 8.3184
L58.4803 8.4394
" />
<path d="M58.4803 8.4394
L58.4803 8.8022
" />
<path d="M58.4803 8.8022
L58.4198 8.9232
" />
<path d="M58.4198 8.9232
L58.3593 8.9837
" />
<path d="M58.3593 8.9837
L58.2384 9.0441
" />
<path d="M58.2384 9.0441
L58.0570 9.0441
" />
<path d="M59.5688 8.9837
L59.4479 9.0441
" />
<path d="M59.4479 9.0441
L59.2060 9.0441
" />
<path d="M59.2060 9.0441
L59.0850 8.9837
" />
<path d="M59.0850 8.9837
L59.0245 8.9232
" />
<path d="M59.0245 8.9232
L58.9641 8.8022
" />
<path d="M58.9641 8.8022
L58.9641 8.4394
" />
<path d="M58.9641 8.4394
L59.0245 8.3184
" />
<path d="M59.0245 8.3184
L59.0850 8.2579
" />
<path d="M59.0850 8.2579
L59.2060 8.1975
" />
<path d="M59.2060 8.1975
L59.4479 8.1975
" />
<path d="M59.4479 8.1975
L59.5688 8.2579
" />
<path d="M60.6574 8.1975
L60.6574 9.0441
" />
<path d="M60.1131 8.1975
L60.1131 8.8627
" />
<path d="M60.1131 8.8627
L60.1736 8.9837
" />
<path d="M60.1736 8.9837
L60.2946 9.0441
" />
<path d="M60.2946 9.0441
L60.4760 9.0441
" />
<path d="M60.4760 9.0441
L60.5969 8.9837
" />
<path d="M60.5969 8.9837
L60.6574 8.9232
" />
<path d="M61.2621 9.0441
L61.2621 8.1975
" />
<path d="M61.2621 8.3184
L61.3226 8.2579
" />
<path d="M61.3226 8.2579
L61.4436 8.1975
" />
<path d="M61.4436 8.1975
L61.6250 8.1975
" />
<path d="M61.6250 8.1975
L61.7459 8.2579
" />
<path d="M61.7459 8.2579
L61.8064 8.3789
" />
<path d="M61.8064 8.3789
L61.8064 9.0441
" />
<path d="M61.8064 8.3789
L61.8669 8.2579
" />
<path d="M61.8669 8.2579
L61.9878 8.1975
" />
<path d="M61.9878 8.1975
L62.1693 8.1975
" />
<path d="M62.1693 8.1975
L62.2902 8.2579
" />
<path d="M62.2902 8.2579
L62.3507 8.3789
" />
<path d="M62.3507 8.3789
L62.3507 9.0441
" />
<path d="M63.4392 8.9837
L63.3183 9.0441
" />
<path d="M63.3183 9.0441
L63.0764 9.0441
" />
<path d="M63.0764 9.0441
L62.9554 8.9837
" />
<path d="M62.9554 8.9837
L62.8950 8.8627
" />
<path d="M62.8950 8.8627
L62.8950 8.3789
" />
<path d="M62.8950 8.3789
L62.9554 8.2579
" />
<path d="M62.9554 8.2579
L63.0764 8.1975
" />
<path d="M63.0764 8.1975
L63.3183 8.1975
" />
<path d="M63.3183 8.1975
L63.4392 8.2579
" />
<path d="M63.4392 8.2579
L63.4997 8.3789
" />
<path d="M63.4997 8.3789
L63.4997 8.4998
" />
<path d="M63.4997 8.4998
L62.8950 8.6208
" />
<path d="M64.0440 8.1975
L64.0440 9.0441
" />
<path d="M64.0440 8.3184
L64.1045 8.2579
" />
<path d="M64.1045 8.2579
L64.2255 8.1975
" />
<path d="M64.2255 8.1975
L64.4069 8.1975
" />
<path d="M64.4069 8.1975
L64.5278 8.2579
" />
<path d="M64.5278 8.2579
L64.5883 8.3789
" />
<path d="M64.5883 8.3789
L64.5883 9.0441
" />
<path d="M65.0116 8.1975
L65.4954 8.1975
" />
<path d="M65.1930 7.7741
L65.1930 8.8627
" />
<path d="M65.1930 8.8627
L65.2535 8.9837
" />
<path d="M65.2535 8.9837
L65.3745 9.0441
" />
<path d="M65.3745 9.0441
L65.4954 9.0441
" />
<path d="M66.4630 9.0441
L66.4630 8.3789
" />
<path d="M66.4630 8.3789
L66.4025 8.2579
" />
<path d="M66.4025 8.2579
L66.2816 8.1975
" />
<path d="M66.2816 8.1975
L66.0397 8.1975
" />
<path d="M66.0397 8.1975
L65.9187 8.2579
" />
<path d="M66.4630 8.9837
L66.3421 9.0441
" />
<path d="M66.3421 9.0441
L66.0397 9.0441
" />
<path d="M66.0397 9.0441
L65.9187 8.9837
" />
<path d="M65.9187 8.9837
L65.8583 8.8627
" />
<path d="M65.8583 8.8627
L65.8583 8.7417
" />
<path d="M65.8583 8.7417
L65.9187 8.6208
" />
<path d="M65.9187 8.6208
L66.0397 8.5603
" />
<path d="M66.0397 8.5603
L66.3421 8.5603
" />
<path d="M66.3421 8.5603
L66.4630 8.4998
" />
<path d="M66.8863 8.1975
L67.3701 8.1975
" />
<path d="M67.0677 7.7741
L67.0677 8.8627
" />
<path d="M67.0677 8.8627
L67.1282 8.9837
" />
<path d="M67.1282 8.9837
L67.2492 9.0441
" />
<path d="M67.2492 9.0441
L67.3701 9.0441
" />
<path d="M67.7934 9.0441
L67.7934 8.1975
" />
<path d="M67.7934 7.7741
L67.7330 7.8346
" />
<path d="M67.7330 7.8346
L67.7934 7.8951
" />
<path d="M67.7934 7.8951
L67.8539 7.8346
" />
<path d="M67.8539 7.8346
L67.7934 7.7741
" />
<path d="M67.7934 7.7741
L67.7934 7.8951
" />
<path d="M68.5797 9.0441
L68.4587 8.9837
" />
<path d="M68.4587 8.9837
L68.3982 8.9232
" />
<path d="M68.3982 8.9232
L68.3378 8.8022
" />
<path d="M68.3378 8.8022
L68.3378 8.4394
" />
<path d="M68.3378 8.4394
L68.3982 8.3184
" />
<path d="M68.3982 8.3184
L68.4587 8.2579
" />
<path d="M68.4587 8.2579
L68.5797 8.1975
" />
<path d="M68.5797 8.1975
L68.7611 8.1975
" />
<path d="M68.7611 8.1975
L68.8820 8.2579
" />
<path d="M68.8820 8.2579
L68.9425 8.3184
" />
<path d="M68.9425 8.3184
L69.0030 8.4394
" />
<path d="M69.0030 8.4394
L69.0030 8.8022
" />
<path d="M69.0030 8.8022
L68.9425 8.9232
" />
<path d="M68.9425 8.9232
L68.8820 8.9837
" />
<path d="M68.8820 8.9837
L68.7611 9.0441
" />
<path d="M68.7611 9.0441
L68.5797 9.0441
" />
<path d="M69.5472 8.1975
L69.5472 9.0441
" />
<path d="M69.5472 8.3184
L69.6077 8.2579
" />
<path d="M69.6077 8.2579
L69.7287 8.1975
" />
<path d="M69.7287 8.1975
L69.9101 8.1975
" />
<path d="M69.9101 8.1975
L70.0310 8.2579
" />
<path d="M70.0310 8.2579
L70.0915 8.3789
" />
<path d="M70.0915 8.3789
L70.0915 9.0441
" />
<path d="M71.6034 7.7137
L70.5148 9.3465
" />
<path d="M72.5710 9.0441
L72.5710 7.7741
" />
<path d="M72.5710 8.9837
L72.4501 9.0441
" />
<path d="M72.4501 9.0441
L72.2082 9.0441
" />
<path d="M72.2082 9.0441
L72.0872 8.9837
" />
<path d="M72.0872 8.9837
L72.0267 8.9232
" />
<path d="M72.0267 8.9232
L71.9663 8.8022
" />
<path d="M71.9663 8.8022
L71.9663 8.4394
" />
<path d="M71.9663 8.4394
L72.0267 8.3184
" />
<path d="M72.0267 8.3184
L72.0872 8.2579
" />
<path d="M72.0872 8.2579
L72.2082 8.1975
" />
<path d="M72.2082 8.1975
L72.4501 8.1975
" />
<path d="M72.4501 8.1975
L72.5710 8.2579
" />
<path d="M73.7200 9.0441
L73.7200 8.3789
" />
<path d="M73.7200 8.3789
L73.6595 8.2579
" />
<path d="M73.6595 8.2579
L73.5386 8.1975
" />
<path d="M73.5386 8.1975
L73.2967 8.1975
" />
<path d="M73.2967 8.1975
L73.1757 8.2579
" />
<path d="M73.7200 8.9837
L73.5991 9.0441
" />
<path d="M73.5991 9.0441
L73.2967 9.0441
" />
<path d="M73.2967 9.0441
L73.1757 8.9837
" />
<path d="M73.1757 8.9837
L73.1153 8.8627
" />
<path d="M73.1153 8.8627
L73.1153 8.7417
" />
<path d="M73.1153 8.7417
L73.1757 8.6208
" />
<path d="M73.1757 8.6208
L73.2967 8.5603
" />
<path d="M73.2967 8.5603
L73.5991 8.5603
" />
<path d="M73.5991 8.5603
L73.7200 8.4998
" />
<path d="M74.1433 8.1975
L74.6271 8.1975
" />
<path d="M74.3247 7.7741
L74.3247 8.8627
" />
<path d="M74.3247 8.8627
L74.3852 8.9837
" />
<path d="M74.3852 8.9837
L74.5062 9.0441
" />
<path d="M74.5062 9.0441
L74.6271 9.0441
" />
<path d="M75.5947 9.0441
L75.5947 8.3789
" />
<path d="M75.5947 8.3789
L75.5342 8.2579
" />
<path d="M75.5342 8.2579
L75.4133 8.1975
" />
<path d="M75.4133 8.1975
L75.1714 8.1975
" />
<path d="M75.1714 8.1975
L75.0504 8.2579
" />
<path d="M75.5947 8.9837
L75.4738 9.0441
" />
<path d="M75.4738 9.0441
L75.1714 9.0441
" />
<path d="M75.1714 9.0441
L75.0504 8.9837
" />
<path d="M75.0504 8.9837
L74.9900 8.8627
" />
<path d="M74.9900 8.8627
L74.9900 8.7417
" />
<path d="M74.9900 8.7417
L75.0504 8.6208
" />
<path d="M75.0504 8.6208
L75.1714 8.5603
" />
<path d="M75.1714 8.5603
L75.4738 8.5603
" />
<path d="M75.4738 8.5603
L75.5947 8.4998
" />
<path d="M76.1994 8.5603
L77.1671 8.5603
" />
<path d="M77.7114 8.9837
L77.8323 9.0441
" />
<path d="M77.8323 9.0441
L78.0742 9.0441
" />
<path d="M78.0742 9.0441
L78.1952 8.9837
" />
<path d="M78.1952 8.9837
L78.2556 8.8627
" />
<path d="M78.2556 8.8627
L78.2556 8.8022
" />
<path d="M78.2556 8.8022
L78.1952 8.6813
" />
<path d="M78.1952 8.6813
L78.0742 8.6208
" />
<path d="M78.0742 8.6208
L77.8928 8.6208
" />
<path d="M77.8928 8.6208
L77.7718 8.5603
" />
<path d="M77.7718 8.5603
L77.7114 8.4394
" />
<path d="M77.7114 8.4394
L77.7114 8.3789
" />
<path d="M77.7114 8.3789
L77.7718 8.2579
" />
<path d="M77.7718 8.2579
L77.8928 8.1975
" />
<path d="M77.8928 8.1975
L78.0742 8.1975
" />
<path d="M78.0742 8.1975
L78.1952 8.2579
" />
<path d="M78.7999 9.0441
L78.7999 7.7741
" />
<path d="M79.3442 9.0441
L79.3442 8.3789
" />
<path d="M79.3442 8.3789
L79.2837 8.2579
" />
<path d="M79.2837 8.2579
L79.1628 8.1975
" />
<path d="M79.1628 8.1975
L78.9814 8.1975
" />
<path d="M78.9814 8.1975
L78.8604 8.2579
" />
<path d="M78.8604 8.2579
L78.7999 8.3184
" />
<path d="M80.4327 8.9837
L80.3118 9.0441
" />
<path d="M80.3118 9.0441
L80.0699 9.0441
" />
<path d="M80.0699 9.0441
L79.9489 8.9837
" />
<path d="M79.9489 8.9837
L79.8885 8.8627
" />
<path d="M79.8885 8.8627
L79.8885 8.3789
" />
<path d="M79.8885 8.3789
L79.9489 8.2579
" />
<path d="M79.9489 8.2579
L80.0699 8.1975
" />
<path d="M80.0699 8.1975
L80.3118 8.1975
" />
<path d="M80.3118 8.1975
L80.4327 8.2579
" />
<path d="M80.4327 8.2579
L80.4932 8.3789
" />
<path d="M80.4932 8.3789
L80.4932 8.4998
" />
<path d="M80.4932 8.4998
L79.8885 8.6208
" />
<path d="M81.5213 8.9837
L81.4004 9.0441
" />
<path d="M81.4004 9.0441
L81.1585 9.0441
" />
<path d="M81.1585 9.0441
L81.0375 8.9837
" />
<path d="M81.0375 8.9837
L80.9771 8.8627
" />
<path d="M80.9771 8.8627
L80.9771 8.3789
" />
<path d="M80.9771 8.3789
L81.0375 8.2579
" />
<path d="M81.0375 8.2579
L81.1585 8.1975
" />
<path d="M81.1585 8.1975
L81.4004 8.1975
" />
<path d="M81.4004 8.1975
L81.5213 8.2579
" />
<path d="M81.5213 8.2579
L81.5818 8.3789
" />
<path d="M81.5818 8.3789
L81.5818 8.4998
" />
<path d="M81.5818 8.4998
L80.9771 8.6208
" />
<path d="M81.9447 8.1975
L82.4285 8.1975
" />
<path d="M82.1261 7.7741
L82.1261 8.8627
" />
<path d="M82.1261 8.8627
L82.1866 8.9837
" />
<path d="M82.1866 8.9837
L82.3076 9.0441
" />
<path d="M82.3076 9.0441
L82.4285 9.0441
" />
<path d="M82.7914 8.9837
L82.9123 9.0441
" />
<path d="M82.9123 9.0441
L83.1542 9.0441
" />
<path d="M83.1542 9.0441
L83.2752 8.9837
" />
<path d="M83.2752 8.9837
L83.3356 8.8627
" />
<path d="M83.3356 8.8627
L83.3356 8.8022
" />
<path d="M83.3356 8.8022
L83.2752 8.6813
" />
<path d="M83.2752 8.6813
L83.1542 8.6208
" />
<path d="M83.1542 8.6208
L82.9728 8.6208
" />
<path d="M82.9728 8.6208
L82.8518 8.5603
" />
<path d="M82.8518 8.5603
L82.7914 8.4394
" />
<path d="M82.7914 8.4394
L82.7914 8.3789
" />
<path d="M82.7914 8.3789
L82.8518 8.2579
" />
<path d="M82.8518 8.2579
L82.9728 8.1975
" />
<path d="M82.9728 8.1975
L83.1542 8.1975
" />
<path d="M83.1542 8.1975
L83.2752 8.2579
" />
<path d="M84.7871 7.7137
L83.6985 9.3465
" />
<path d="M85.1500 8.6813
L85.7547 8.6813
" />
<path d="M85.0290 9.0441
L85.4523 7.7741
" />
<path d="M85.4523 7.7741
L85.8757 9.0441
" />
<path d="M86.2990 9.0441
L86.2990 7.7741
" />
<path d="M86.2990 7.7741
L86.6014 7.7741
" />
<path d="M86.6014 7.7741
L86.7828 7.8346
" />
<path d="M86.7828 7.8346
L86.9038 7.9556
" />
<path d="M86.9038 7.9556
L86.9643 8.0765
" />
<path d="M86.9643 8.0765
L87.0247 8.3184
" />
<path d="M87.0247 8.3184
L87.0247 8.4998
" />
<path d="M87.0247 8.4998
L86.9643 8.7417
" />
<path d="M86.9643 8.7417
L86.9038 8.8627
" />
<path d="M86.9038 8.8627
L86.7828 8.9837
" />
<path d="M86.7828 8.9837
L86.6014 9.0441
" />
<path d="M86.6014 9.0441
L86.2990 9.0441
" />
<path d="M88.1133 8.1975
L88.1133 9.0441
" />
<path d="M87.5690 8.1975
L87.5690 8.8627
" />
<path d="M87.5690 8.8627
L87.6295 8.9837
" />
<path d="M87.6295 8.9837
L87.7505 9.0441
" />
<path d="M87.7505 9.0441
L87.9319 9.0441
" />
<path d="M87.9319 9.0441
L88.0528 8.9837
" />
<path d="M88.0528 8.9837
L88.1133 8.9232
" />
<path d="M88.7180 9.0441
L88.7180 7.7741
" />
<path d="M88.7180 7.7741
L89.1414 8.6813
" />
<path d="M89.1414 8.6813
L89.5647 7.7741
" />
<path d="M89.5647 7.7741
L89.5647 9.0441
" />
<path d="M90.0485 7.7741
L90.8951 7.7741
" />
<path d="M90.8951 7.7741
L90.3509 9.0441
" />
<path d="M91.9232 7.7741
L91.6813 7.7741
" />
<path d="M91.6813 7.7741
L91.5604 7.8346
" />
<path d="M91.5604 7.8346
L91.4999 7.8951
" />
<path d="M91.4999 7.8951
L91.3789 8.0765
" />
<path d="M91.3789 8.0765
L91.3185 8.3184
" />
<path d="M91.3185 8.3184
L91.3185 8.8022
" />
<path d="M91.3185 8.8022
L91.3789 8.9232
" />
<path d="M91.3789 8.9232
L91.4394 8.9837
" />
<path d="M91.4394 8.9837
L91.5604 9.0441
" />
<path d="M91.5604 9.0441
L91.8023 9.0441
" />
<path d="M91.8023 9.0441
L91.9232 8.9837
" />
<path d="M91.9232 8.9837
L91.9837 8.9232
" />
<path d="M91.9837 8.9232
L92.0442 8.8022
" />
<path d="M92.0442 8.8022
L92.0442 8.4998
" />
<path d="M92.0442 8.4998
L91.9837 8.3789
" />
<path d="M91.9837 8.3789
L91.9232 8.3184
" />
<path d="M91.9232 8.3184
L91.8023 8.2579
" />
<path d="M91.8023 8.2579
L91.5604 8.2579
" />
<path d="M91.5604 8.2579
L91.4394 8.3184
" />
<path d="M91.4394 8.3184
L91.3789 8.3789
" />
<path d="M91.3789 8.3789
L91.3185 8.4998
" />
<path d="M93.1327 8.1975
L93.1327 9.0441
" />
<path d="M92.8303 7.7137
L92.5280 8.6208
" />
<path d="M92.5280 8.6208
L93.3141 8.6208
" />
<path d="M94.0398 7.7741
L94.1608 7.7741
" />
<path d="M94.1608 7.7741
L94.2817 7.8346
" />
<path d="M94.2817 7.8346
L94.3422 7.8951
" />
<path d="M94.3422 7.8951
L94.4027 8.0160
" />
<path d="M94.4027 8.0160
L94.4632 8.2579
" />
<path d="M94.4632 8.2579
L94.4632 8.5603
" />
<path d="M94.4632 8.5603
L94.4027 8.8022
" />
<path d="M94.4027 8.8022
L94.3422 8.9232
" />
<path d="M94.3422 8.9232
L94.2817 8.9837
" />
<path d="M94.2817 8.9837
L94.1608 9.0441
" />
<path d="M94.1608 9.0441
L94.0398 9.0441
" />
<path d="M94.0398 9.0441
L93.9189 8.9837
" />
<path d="M93.9189 8.9837
L93.8584 8.9232
" />
<path d="M93.8584 8.9232
L93.7979 8.8022
" />
<path d="M93.7979 8.8022
L93.7375 8.5603
" />
<path d="M93.7375 8.5603
L93.7375 8.2579
" />
<path d="M93.7375 8.2579
L93.7979 8.0160
" />
<path d="M93.7979 8.0160
L93.8584 7.8951
" />
<path d="M93.8584 7.8951
L93.9189 7.8346
" />
<path d="M93.9189 7.8346
L94.0398 7.7741
" />
<path d="M94.7051 9.1651
L95.6727 9.1651
" />
<path d="M95.8541 7.7741
L96.7007 7.7741
" />
<path d="M96.7007 7.7741
L96.1565 9.0441
" />
<path d="M97.7288 7.7741
L97.4869 7.7741
" />
<path d="M97.4869 7.7741
L97.3660 7.8346
" />
<path d="M97.3660 7.8346
L97.3055 7.8951
" />
<path d="M97.3055 7.8951
L97.1845 8.0765
" />
<path d="M97.1845 8.0765
L97.1241 8.3184
" />
<path d="M97.1241 8.3184
L97.1241 8.8022
" />
<path d="M97.1241 8.8022
L97.1845 8.9232
" />
<path d="M97.1845 8.9232
L97.2450 8.9837
" />
<path d="M97.2450 8.9837
L97.3660 9.0441
" />
<path d="M97.3660 9.0441
L97.6079 9.0441
" />
<path d="M97.6079 9.0441
L97.7288 8.9837
" />
<path d="M97.7288 8.9837
L97.7893 8.9232
" />
<path d="M97.7893 8.9232
L97.8498 8.8022
" />
<path d="M97.8498 8.8022
L97.8498 8.4998
" />
<path d="M97.8498 8.4998
L97.7893 8.3789
" />
<path d="M97.7893 8.3789
L97.7288 8.3184
" />
<path d="M97.7288 8.3184
L97.6079 8.2579
" />
<path d="M97.6079 8.2579
L97.3660 8.2579
" />
<path d="M97.3660 8.2579
L97.2450 8.3184
" />
<path d="M97.2450 8.3184
L97.1845 8.3789
" />
<path d="M97.1845 8.3789
L97.1241 8.4998
" />
<path d="M98.9383 8.1975
L98.9383 9.0441
" />
<path d="M98.6359 7.7137
L98.3336 8.6208
" />
<path d="M98.3336 8.6208
L99.1197 8.6208
" />
<path d="M100.2688 9.0441
L99.5431 9.0441
" />
<path d="M99.9059 9.0441
L99.9059 7.7741
" />
<path d="M99.9059 7.7741
L99.7850 7.9556
" />
<path d="M99.7850 7.9556
L99.6640 8.0765
" />
<path d="M99.6640 8.0765
L99.5431 8.1370
" />
<path d="M100.5107 9.1651
L101.4783 9.1651
" />
<path d="M101.6597 7.7741
L102.5063 7.7741
" />
<path d="M102.5063 7.7741
L101.9621 9.0441
" />
<path d="M103.5344 7.7741
L103.2925 7.7741
" />
<path d="M103.2925 7.7741
L103.1716 7.8346
" />
<path d="M103.1716 7.8346
L103.1111 7.8951
" />
<path d="M103.1111 7.8951
L102.9901 8.0765
" />
<path d="M102.9901 8.0765
L102.9297 8.3184
" />
<path d="M102.9297 8.3184
L102.9297 8.8022
" />
<path d="M102.9297 8.8022
L102.9901 8.9232
" />
<path d="M102.9901 8.9232
L103.0506 8.9837
" />
<path d="M103.0506 8.9837
L103.1716 9.0441
" />
<path d="M103.1716 9.0441
L103.4135 9.0441
" />
<path d="M103.4135 9.0441
L103.5344 8.9837
" />
<path d="M103.5344 8.9837
L103.5949 8.9232
" />
<path d="M103.5949 8.9232
L103.6554 8.8022
" />
<path d="M103.6554 8.8022
L103.6554 8.4998
" />
<path d="M103.6554 8.4998
L103.5949 8.3789
" />
<path d="M103.5949 8.3789
L103.5344 8.3184
" />
<path d="M103.5344 8.3184
L103.4135 8.2579
" />
<path d="M103.4135 8.2579
L103.1716 8.2579
" />
<path d="M103.1716 8.2579
L103.0506 8.3184
" />
<path d="M103.0506 8.3184
L102.9901 8.3789
" />
<path d="M102.9901 8.3789
L102.9297 8.4998
" />
<path d="M104.7439 8.1975
L104.7439 9.0441
" />
<path d="M104.4415 7.7137
L104.1392 8.6208
" />
<path d="M104.1392 8.6208
L104.9253 8.6208
" />
<path d="M105.3487 7.8951
L105.4091 7.8346
" />
<path d="M105.4091 7.8346
L105.5301 7.7741
" />
<path d="M105.5301 7.7741
L105.8325 7.7741
" />
<path d="M105.8325 7.7741
L105.9534 7.8346
" />
<path d="M105.9534 7.8346
L106.0139 7.8951
" />
<path d="M106.0139 7.8951
L106.0744 8.0160
" />
<path d="M106.0744 8.0160
L106.0744 8.1370
" />
<path d="M106.0744 8.1370
L106.0139 8.3184
" />
<path d="M106.0139 8.3184
L105.2882 9.0441
" />
<path d="M105.2882 9.0441
L106.0744 9.0441
" />
<path d="M106.3163 9.1651
L107.2839 9.1651
" />
<path d="M107.4653 7.7741
L108.3119 7.7741
" />
<path d="M108.3119 7.7741
L107.7677 9.0441
" />
<path d="M109.3400 7.7741
L109.0981 7.7741
" />
<path d="M109.0981 7.7741
L108.9772 7.8346
" />
<path d="M108.9772 7.8346
L108.9167 7.8951
" />
<path d="M108.9167 7.8951
L108.7957 8.0765
" />
<path d="M108.7957 8.0765
L108.7353 8.3184
" />
<path d="M108.7353 8.3184
L108.7353 8.8022
" />
<path d="M108.7353 8.8022
L108.7957 8.9232
" />
<path d="M108.7957 8.9232
L108.8562 8.9837
" />
<path d="M108.8562 8.9837
L108.9772 9.0441
" />
<path d="M108.9772 9.0441
L109.2191 9.0441
" />
<path d="M109.2191 9.0441
L109.3400 8.9837
" />
<path d="M109.3400 8.9837
L109.4005 8.9232
" />
<path d="M109.4005 8.9232
L109.4610 8.8022
" />
<path d="M109.4610 8.8022
L109.4610 8.4998
" />
<path d="M109.4610 8.4998
L109.4005 8.3789
" />
<path d="M109.4005 8.3789
L109.3400 8.3184
" />
<path d="M109.3400 8.3184
L109.2191 8.2579
" />
<path d="M109.2191 8.2579
L108.9772 8.2579
" />
<path d="M108.9772 8.2579
L108.8562 8.3184
" />
<path d="M108.8562 8.3184
L108.7957 8.3789
" />
<path d="M108.7957 8.3789
L108.7353 8.4998
" />
<path d="M110.5495 8.1975
L110.5495 9.0441
" />
<path d="M110.2471 7.7137
L109.9448 8.6208
" />
<path d="M109.9448 8.6208
L110.7309 8.6208
" />
<path d="M111.0938 7.7741
L111.8800 7.7741
" />
<path d="M111.8800 7.7741
L111.4566 8.2579
" />
<path d="M111.4566 8.2579
L111.6381 8.2579
" />
<path d="M111.6381 8.2579
L111.7590 8.3184
" />
<path d="M111.7590 8.3184
L111.8195 8.3789
" />
<path d="M111.8195 8.3789
L111.8800 8.4998
" />
<path d="M111.8800 8.4998
L111.8800 8.8022
" />
<path d="M111.8800 8.8022
L111.8195 8.9232
" />
<path d="M111.8195 8.9232
L111.7590 8.9837
" />
<path d="M111.7590 8.9837
L111.6381 9.0441
" />
<path d="M111.6381 9.0441
L111.2752 9.0441
" />
<path d="M111.2752 9.0441
L111.1543 8.9837
" />
<path d="M111.1543 8.9837
L111.0938 8.9232
" />
<path d="M112.4242 8.9232
L112.4847 8.9837
" />
<path d="M112.4847 8.9837
L112.4242 9.0441
" />
<path d="M112.4242 9.0441
L112.3638 8.9837
" />
<path d="M112.3638 8.9837
L112.4242 8.9232
" />
<path d="M112.4242 8.9232
L112.4242 9.0441
" />
<path d="M113.0290 8.1975
L113.0290 9.4675
" />
<path d="M113.0290 8.2579
L113.1500 8.1975
" />
<path d="M113.1500 8.1975
L113.3919 8.1975
" />
<path d="M113.3919 8.1975
L113.5128 8.2579
" />
<path d="M113.5128 8.2579
L113.5733 8.3184
" />
<path d="M113.5733 8.3184
L113.6338 8.4394
" />
<path d="M113.6338 8.4394
L113.6338 8.8022
" />
<path d="M113.6338 8.8022
L113.5733 8.9232
" />
<path d="M113.5733 8.9232
L113.5128 8.9837
" />
<path d="M113.5128 8.9837
L113.3919 9.0441
" />
<path d="M113.3919 9.0441
L113.1500 9.0441
" />
<path d="M113.1500 9.0441
L113.0290 8.9837
" />
<path d="M114.7223 9.0441
L114.7223 7.7741
" />
<path d="M114.7223 8.9837
L114.6014 9.0441
" />
<path d="M114.6014 9.0441
L114.3595 9.0441
" />
<path d="M114.3595 9.0441
L114.2385 8.9837
" />
<path d="M114.2385 8.9837
L114.1780 8.9232
" />
<path d="M114.1780 8.9232
L114.1176 8.8022
" />
<path d="M114.1176 8.8022
L114.1176 8.4394
" />
<path d="M114.1176 8.4394
L114.1780 8.3184
" />
<path d="M114.1780 8.3184
L114.2385 8.2579
" />
<path d="M114.2385 8.2579
L114.3595 8.1975
" />
<path d="M114.3595 8.1975
L114.6014 8.1975
" />
<path d="M114.6014 8.1975
L114.7223 8.2579
" />
<path d="M115.1456 8.1975
L115.6294 8.1975
" />
<path d="M115.3270 9.0441
L115.3270 7.9556
" />
<path d="M115.3270 7.9556
L115.3875 7.8346
" />
<path d="M115.3875 7.8346
L115.5085 7.7741
" />
<path d="M115.5085 7.7741
L115.6294 7.7741
" />
</g></g> 
</svg>
