<?xml version="1.0" standalone="no"?>
 <!DOCTYPE svg PUBLIC "-//W3C//DTD SVG 1.1//EN" 
 "http://www.w3.org/Graphics/SVG/1.1/DTD/svg11.dtd"> 
<svg
  xmlns:svg="http://www.w3.org/2000/svg"
  xmlns="http://www.w3.org/2000/svg"
  xmlns:xlink="http://www.w3.org/1999/xlink"
  version="1.1"
  width="103.1748mm" height="19.5072mm" viewBox="0.0000 0.0000 103.1748 19.5072">
<title>SVG Image created as working.svg date 2023/08/14 05:11:26 </title>
  <desc>Image generated by Eeschema-SVG </desc>
<g style="fill:#000000; fill-opacity:1.0000;stroke:#000000; stroke-opacity:1.0000;
stroke-linecap:round; stroke-linejoin:round;"
 transform="translate(0 0) scale(1 1)">
</g>
<g style="fill:#840000; fill-opacity:0.0; 
stroke:#840000; stroke-width:0.0000; stroke-opacity:1; 
stroke-linecap:round; stroke-linejoin:round;">
</g>
<g style="fill:#FFFFC2; fill-opacity:0.0; 
stroke:#FFFFC2; stroke-width:0.0000; stroke-opacity:1; 
stroke-linecap:round; stroke-linejoin:round;">
</g>
<g style="fill:#FFFFC2; fill-opacity:1.0000; 
stroke:#FFFFC2; stroke-width:0.0000; stroke-opacity:1; 
stroke-linecap:round; stroke-linejoin:round;">
<rect x="43.966200" y="5.822700" width="15.240000" height="9.525000" rx="0.000000" />
</g>
<g style="fill:#840084; fill-opacity:1.0000; 
stroke:#840084; stroke-width:0.0000; stroke-opacity:1; 
stroke-linecap:round; stroke-linejoin:round;">
</g>
<g style="fill:#840000; fill-opacity:1.0000; 
stroke:#840000; stroke-width:0.0000; stroke-opacity:1; 
stroke-linecap:round; stroke-linejoin:round;">
</g>
<g style="fill:#840000; fill-opacity:0.0; 
stroke:#840000; stroke-width:0.2540; stroke-opacity:1; 
stroke-linecap:round; stroke-linejoin:round;">
<rect x="43.966200" y="5.822700" width="15.240000" height="9.525000" rx="0.000000" />
</g>
<g style="fill:#840000; fill-opacity:0.0; 
stroke:#840000; stroke-width:0.1524; stroke-opacity:1; 
stroke-linecap:round; stroke-linejoin:round;">
<path d="M43.9662 7.7277
L41.4262 7.7277
" />
</g>
<g style="fill:#006464; fill-opacity:0.0; 
stroke:#006464; stroke-width:0.1524; stroke-opacity:1; 
stroke-linecap:round; stroke-linejoin:round;">
<text x="44.2202" y="8.3627"
textLength="3.2271" font-size="1.6933" lengthAdjust="spacingAndGlyphs"
text-anchor="start" opacity="0">VIN</text>
<g class="stroked-text"><desc>VIN</desc>
<path d="M44.4413 7.0372
L44.8646 8.3072
" />
<path d="M44.8646 8.3072
L45.2880 7.0372
" />
<path d="M45.7113 8.3072
L45.7113 7.0372
" />
<path d="M46.3161 8.3072
L46.3161 7.0372
" />
<path d="M46.3161 7.0372
L47.0418 8.3072
" />
<path d="M47.0418 8.3072
L47.0418 7.0372
" />
</g></g>
<g style="fill:#A90000; fill-opacity:0.0; 
stroke:#A90000; stroke-width:0.1524; stroke-opacity:1; 
stroke-linecap:round; stroke-linejoin:round;">
<text x="42.6962" y="7.4737"
textLength="1.4127" font-size="1.6933" lengthAdjust="spacingAndGlyphs"
text-anchor="middle" opacity="0">1</text>
<g class="stroked-text"><desc>1</desc>
<path d="M43.0591 7.3102
L42.3334 7.3102
" />
<path d="M42.6962 7.3102
L42.6962 6.0402
" />
<path d="M42.6962 6.0402
L42.5753 6.2217
" />
<path d="M42.5753 6.2217
L42.4543 6.3426
" />
<path d="M42.4543 6.3426
L42.3334 6.4031
" />
</g></g>
<g style="fill:#840000; fill-opacity:0.0; 
stroke:#840000; stroke-width:0.1524; stroke-opacity:1; 
stroke-linecap:round; stroke-linejoin:round;">
<path d="M51.5862 15.3477
L51.5862 17.8877
" />
</g>
<g style="fill:#006464; fill-opacity:0.0; 
stroke:#006464; stroke-width:0.1524; stroke-opacity:1; 
stroke-linecap:round; stroke-linejoin:round;">
<g transform="rotate(-90.000000 51.5862 15.0937)">
<text x="51.5862" y="15.7287"
textLength="4.0737" font-size="1.6933" lengthAdjust="spacingAndGlyphs"
text-anchor="start" opacity="0">GND</text>
</g>
<g class="stroked-text"><desc>GND</desc>
<path d="M50.9562 14.0258
L50.8957 14.1468
" />
<path d="M50.8957 14.1468
L50.8957 14.3282
" />
<path d="M50.8957 14.3282
L50.9562 14.5096
" />
<path d="M50.9562 14.5096
L51.0772 14.6306
" />
<path d="M51.0772 14.6306
L51.1981 14.6911
" />
<path d="M51.1981 14.6911
L51.4400 14.7515
" />
<path d="M51.4400 14.7515
L51.6214 14.7515
" />
<path d="M51.6214 14.7515
L51.8633 14.6911
" />
<path d="M51.8633 14.6911
L51.9843 14.6306
" />
<path d="M51.9843 14.6306
L52.1053 14.5096
" />
<path d="M52.1053 14.5096
L52.1657 14.3282
" />
<path d="M52.1657 14.3282
L52.1657 14.2073
" />
<path d="M52.1657 14.2073
L52.1053 14.0258
" />
<path d="M52.1053 14.0258
L52.0448 13.9654
" />
<path d="M52.0448 13.9654
L51.6214 13.9654
" />
<path d="M51.6214 13.9654
L51.6214 14.2073
" />
<path d="M52.1657 13.4211
L50.8957 13.4211
" />
<path d="M50.8957 13.4211
L52.1657 12.6954
" />
<path d="M52.1657 12.6954
L50.8957 12.6954
" />
<path d="M52.1657 12.0906
L50.8957 12.0906
" />
<path d="M50.8957 12.0906
L50.8957 11.7882
" />
<path d="M50.8957 11.7882
L50.9562 11.6068
" />
<path d="M50.9562 11.6068
L51.0772 11.4858
" />
<path d="M51.0772 11.4858
L51.1981 11.4253
" />
<path d="M51.1981 11.4253
L51.4400 11.3649
" />
<path d="M51.4400 11.3649
L51.6214 11.3649
" />
<path d="M51.6214 11.3649
L51.8633 11.4253
" />
<path d="M51.8633 11.4253
L51.9843 11.4858
" />
<path d="M51.9843 11.4858
L52.1053 11.6068
" />
<path d="M52.1053 11.6068
L52.1657 11.7882
" />
<path d="M52.1657 11.7882
L52.1657 12.0906
" />
</g></g>
<g style="fill:#A90000; fill-opacity:0.0; 
stroke:#A90000; stroke-width:0.1524; stroke-opacity:1; 
stroke-linecap:round; stroke-linejoin:round;">
<g transform="rotate(-90.000000 51.3322 16.6177)">
<text x="51.3322" y="16.6177"
textLength="1.4127" font-size="1.6933" lengthAdjust="spacingAndGlyphs"
text-anchor="middle" opacity="0">2</text>
</g>
<g class="stroked-text"><desc>2</desc>
<path d="M50.0197 16.9804
L49.9592 16.9200
" />
<path d="M49.9592 16.9200
L49.8987 16.7990
" />
<path d="M49.8987 16.7990
L49.8987 16.4966
" />
<path d="M49.8987 16.4966
L49.9592 16.3757
" />
<path d="M49.9592 16.3757
L50.0197 16.3152
" />
<path d="M50.0197 16.3152
L50.1406 16.2547
" />
<path d="M50.1406 16.2547
L50.2616 16.2547
" />
<path d="M50.2616 16.2547
L50.4430 16.3152
" />
<path d="M50.4430 16.3152
L51.1687 17.0409
" />
<path d="M51.1687 17.0409
L51.1687 16.2547
" />
</g></g>
<g style="fill:#840000; fill-opacity:0.0; 
stroke:#840000; stroke-width:0.1524; stroke-opacity:1; 
stroke-linecap:round; stroke-linejoin:round;">
<path d="M43.9662 10.2677
L41.4262 10.2677
" />
</g>
<g style="fill:#006464; fill-opacity:0.0; 
stroke:#006464; stroke-width:0.1524; stroke-opacity:1; 
stroke-linecap:round; stroke-linejoin:round;">
<text x="44.2202" y="10.9027"
textLength="5.3437" font-size="1.6933" lengthAdjust="spacingAndGlyphs"
text-anchor="start" opacity="0">~{SHDN}</text>
<g class="stroked-text"><desc>~{SHDN}</desc>
<path d="M44.5623 10.7868
L44.7437 10.8472
" />
<path d="M44.7437 10.8472
L45.0461 10.8472
" />
<path d="M45.0461 10.8472
L45.1670 10.7868
" />
<path d="M45.1670 10.7868
L45.2275 10.7263
" />
<path d="M45.2275 10.7263
L45.2880 10.6053
" />
<path d="M45.2880 10.6053
L45.2880 10.4844
" />
<path d="M45.2880 10.4844
L45.2275 10.3634
" />
<path d="M45.2275 10.3634
L45.1670 10.3029
" />
<path d="M45.1670 10.3029
L45.0461 10.2425
" />
<path d="M45.0461 10.2425
L44.8042 10.1820
" />
<path d="M44.8042 10.1820
L44.6832 10.1215
" />
<path d="M44.6832 10.1215
L44.6227 10.0610
" />
<path d="M44.6227 10.0610
L44.5623 9.9401
" />
<path d="M44.5623 9.9401
L44.5623 9.8191
" />
<path d="M44.5623 9.8191
L44.6227 9.6982
" />
<path d="M44.6227 9.6982
L44.6832 9.6377
" />
<path d="M44.6832 9.6377
L44.8042 9.5772
" />
<path d="M44.8042 9.5772
L45.1065 9.5772
" />
<path d="M45.1065 9.5772
L45.2880 9.6377
" />
<path d="M45.8322 10.8472
L45.8322 9.5772
" />
<path d="M45.8322 10.1820
L46.5579 10.1820
" />
<path d="M46.5579 10.8472
L46.5579 9.5772
" />
<path d="M47.1627 10.8472
L47.1627 9.5772
" />
<path d="M47.1627 9.5772
L47.4651 9.5772
" />
<path d="M47.4651 9.5772
L47.6465 9.6377
" />
<path d="M47.6465 9.6377
L47.7675 9.7587
" />
<path d="M47.7675 9.7587
L47.8280 9.8796
" />
<path d="M47.8280 9.8796
L47.8884 10.1215
" />
<path d="M47.8884 10.1215
L47.8884 10.3029
" />
<path d="M47.8884 10.3029
L47.8280 10.5448
" />
<path d="M47.8280 10.5448
L47.7675 10.6658
" />
<path d="M47.7675 10.6658
L47.6465 10.7868
" />
<path d="M47.6465 10.7868
L47.4651 10.8472
" />
<path d="M47.4651 10.8472
L47.1627 10.8472
" />
<path d="M48.4327 10.8472
L48.4327 9.5772
" />
<path d="M48.4327 9.5772
L49.1584 10.8472
" />
<path d="M49.1584 10.8472
L49.1584 9.5772
" />
<path d="M44.4474 9.2247
L49.3339 9.2247
" />
</g></g>
<g style="fill:#A90000; fill-opacity:0.0; 
stroke:#A90000; stroke-width:0.1524; stroke-opacity:1; 
stroke-linecap:round; stroke-linejoin:round;">
<text x="42.6962" y="10.0137"
textLength="1.4127" font-size="1.6933" lengthAdjust="spacingAndGlyphs"
text-anchor="middle" opacity="0">3</text>
<g class="stroked-text"><desc>3</desc>
<path d="M42.2729 8.5802
L43.0591 8.5802
" />
<path d="M43.0591 8.5802
L42.6357 9.0640
" />
<path d="M42.6357 9.0640
L42.8172 9.0640
" />
<path d="M42.8172 9.0640
L42.9381 9.1245
" />
<path d="M42.9381 9.1245
L42.9986 9.1850
" />
<path d="M42.9986 9.1850
L43.0591 9.3059
" />
<path d="M43.0591 9.3059
L43.0591 9.6083
" />
<path d="M43.0591 9.6083
L42.9986 9.7293
" />
<path d="M42.9986 9.7293
L42.9381 9.7898
" />
<path d="M42.9381 9.7898
L42.8172 9.8502
" />
<path d="M42.8172 9.8502
L42.4543 9.8502
" />
<path d="M42.4543 9.8502
L42.3334 9.7898
" />
<path d="M42.3334 9.7898
L42.2729 9.7293
" />
</g></g>
<g style="fill:#840000; fill-opacity:0.0; 
stroke:#840000; stroke-width:0.1524; stroke-opacity:1; 
stroke-linecap:round; stroke-linejoin:round;">
<path d="M59.2062 10.2677
L61.7462 10.2677
" />
</g>
<g style="fill:#006464; fill-opacity:0.0; 
stroke:#006464; stroke-width:0.1524; stroke-opacity:1; 
stroke-linecap:round; stroke-linejoin:round;">
<text x="58.9522" y="10.9027"
textLength="3.8318" font-size="1.6933" lengthAdjust="spacingAndGlyphs"
text-anchor="end" opacity="0">BYP</text>
<g class="stroked-text"><desc>BYP</desc>
<path d="M55.9491 10.1820
L56.1305 10.2425
" />
<path d="M56.1305 10.2425
L56.1910 10.3029
" />
<path d="M56.1910 10.3029
L56.2514 10.4239
" />
<path d="M56.2514 10.4239
L56.2514 10.6053
" />
<path d="M56.2514 10.6053
L56.1910 10.7263
" />
<path d="M56.1910 10.7263
L56.1305 10.7868
" />
<path d="M56.1305 10.7868
L56.0095 10.8472
" />
<path d="M56.0095 10.8472
L55.5257 10.8472
" />
<path d="M55.5257 10.8472
L55.5257 9.5772
" />
<path d="M55.5257 9.5772
L55.9491 9.5772
" />
<path d="M55.9491 9.5772
L56.0700 9.6377
" />
<path d="M56.0700 9.6377
L56.1305 9.6982
" />
<path d="M56.1305 9.6982
L56.1910 9.8191
" />
<path d="M56.1910 9.8191
L56.1910 9.9401
" />
<path d="M56.1910 9.9401
L56.1305 10.0610
" />
<path d="M56.1305 10.0610
L56.0700 10.1215
" />
<path d="M56.0700 10.1215
L55.9491 10.1820
" />
<path d="M55.9491 10.1820
L55.5257 10.1820
" />
<path d="M57.0376 10.2425
L57.0376 10.8472
" />
<path d="M56.6143 9.5772
L57.0376 10.2425
" />
<path d="M57.0376 10.2425
L57.4610 9.5772
" />
<path d="M57.8843 10.8472
L57.8843 9.5772
" />
<path d="M57.8843 9.5772
L58.3681 9.5772
" />
<path d="M58.3681 9.5772
L58.4891 9.6377
" />
<path d="M58.4891 9.6377
L58.5496 9.6982
" />
<path d="M58.5496 9.6982
L58.6100 9.8191
" />
<path d="M58.6100 9.8191
L58.6100 10.0006
" />
<path d="M58.6100 10.0006
L58.5496 10.1215
" />
<path d="M58.5496 10.1215
L58.4891 10.1820
" />
<path d="M58.4891 10.1820
L58.3681 10.2425
" />
<path d="M58.3681 10.2425
L57.8843 10.2425
" />
</g></g>
<g style="fill:#A90000; fill-opacity:0.0; 
stroke:#A90000; stroke-width:0.1524; stroke-opacity:1; 
stroke-linecap:round; stroke-linejoin:round;">
<text x="60.4762" y="10.0137"
textLength="1.4127" font-size="1.6933" lengthAdjust="spacingAndGlyphs"
text-anchor="middle" opacity="0">4</text>
<g class="stroked-text"><desc>4</desc>
<path d="M60.7181 9.0036
L60.7181 9.8502
" />
<path d="M60.4157 8.5198
L60.1134 9.4269
" />
<path d="M60.1134 9.4269
L60.8995 9.4269
" />
</g></g>
<g style="fill:#840000; fill-opacity:0.0; 
stroke:#840000; stroke-width:0.1524; stroke-opacity:1; 
stroke-linecap:round; stroke-linejoin:round;">
<path d="M59.2062 7.7277
L61.7462 7.7277
" />
</g>
<g style="fill:#006464; fill-opacity:0.0; 
stroke:#006464; stroke-width:0.1524; stroke-opacity:1; 
stroke-linecap:round; stroke-linejoin:round;">
<text x="58.9522" y="8.3627"
textLength="4.9204" font-size="1.6933" lengthAdjust="spacingAndGlyphs"
text-anchor="end" opacity="0">VOUT</text>
<g class="stroked-text"><desc>VOUT</desc>
<path d="M54.2557 7.0372
L54.6790 8.3072
" />
<path d="M54.6790 8.3072
L55.1024 7.0372
" />
<path d="M55.7676 7.0372
L56.0095 7.0372
" />
<path d="M56.0095 7.0372
L56.1305 7.0977
" />
<path d="M56.1305 7.0977
L56.2514 7.2187
" />
<path d="M56.2514 7.2187
L56.3119 7.4606
" />
<path d="M56.3119 7.4606
L56.3119 7.8839
" />
<path d="M56.3119 7.8839
L56.2514 8.1258
" />
<path d="M56.2514 8.1258
L56.1305 8.2468
" />
<path d="M56.1305 8.2468
L56.0095 8.3072
" />
<path d="M56.0095 8.3072
L55.7676 8.3072
" />
<path d="M55.7676 8.3072
L55.6467 8.2468
" />
<path d="M55.6467 8.2468
L55.5257 8.1258
" />
<path d="M55.5257 8.1258
L55.4653 7.8839
" />
<path d="M55.4653 7.8839
L55.4653 7.4606
" />
<path d="M55.4653 7.4606
L55.5257 7.2187
" />
<path d="M55.5257 7.2187
L55.6467 7.0977
" />
<path d="M55.6467 7.0977
L55.7676 7.0372
" />
<path d="M56.8562 7.0372
L56.8562 8.0653
" />
<path d="M56.8562 8.0653
L56.9167 8.1863
" />
<path d="M56.9167 8.1863
L56.9772 8.2468
" />
<path d="M56.9772 8.2468
L57.0981 8.3072
" />
<path d="M57.0981 8.3072
L57.3400 8.3072
" />
<path d="M57.3400 8.3072
L57.4610 8.2468
" />
<path d="M57.4610 8.2468
L57.5215 8.1863
" />
<path d="M57.5215 8.1863
L57.5819 8.0653
" />
<path d="M57.5819 8.0653
L57.5819 7.0372
" />
<path d="M58.0053 7.0372
L58.7310 7.0372
" />
<path d="M58.3682 8.3072
L58.3682 7.0372
" />
</g></g>
<g style="fill:#A90000; fill-opacity:0.0; 
stroke:#A90000; stroke-width:0.1524; stroke-opacity:1; 
stroke-linecap:round; stroke-linejoin:round;">
<text x="60.4762" y="7.4737"
textLength="1.4127" font-size="1.6933" lengthAdjust="spacingAndGlyphs"
text-anchor="middle" opacity="0">5</text>
<g class="stroked-text"><desc>5</desc>
<path d="M60.7786 6.0402
L60.1738 6.0402
" />
<path d="M60.1738 6.0402
L60.1134 6.6450
" />
<path d="M60.1134 6.6450
L60.1738 6.5845
" />
<path d="M60.1738 6.5845
L60.2948 6.5240
" />
<path d="M60.2948 6.5240
L60.5972 6.5240
" />
<path d="M60.5972 6.5240
L60.7181 6.5845
" />
<path d="M60.7181 6.5845
L60.7786 6.6450
" />
<path d="M60.7786 6.6450
L60.8391 6.7659
" />
<path d="M60.8391 6.7659
L60.8391 7.0683
" />
<path d="M60.8391 7.0683
L60.7786 7.1893
" />
<path d="M60.7786 7.1893
L60.7181 7.2498
" />
<path d="M60.7181 7.2498
L60.5972 7.3102
" />
<path d="M60.5972 7.3102
L60.2948 7.3102
" />
<path d="M60.2948 7.3102
L60.1738 7.2498
" />
<path d="M60.1738 7.2498
L60.1134 7.1893
" />
</g></g>
<g style="fill:#840084; fill-opacity:0.0; 
stroke:#840084; stroke-width:0.1524; stroke-opacity:1; 
stroke-linecap:round; stroke-linejoin:round;">
</g>
<g style="fill:#006464; fill-opacity:0.0; 
stroke:#006464; stroke-width:0.1524; stroke-opacity:1; 
stroke-linecap:round; stroke-linejoin:round;">
</g>
<g style="fill:#006464; fill-opacity:0.0; 
stroke:#006464; stroke-width:0.1588; stroke-opacity:1; 
stroke-linecap:round; stroke-linejoin:round;">
<text x="45.2362" y="5.1877"
textLength="2.6415" font-size="1.6933" lengthAdjust="spacingAndGlyphs"
text-anchor="middle" opacity="0">U?</text>
<g class="stroked-text"><desc>U?</desc>
<path d="M44.3290 3.8619
L44.3290 4.8900
" />
<path d="M44.3290 4.8900
L44.3895 5.0110
" />
<path d="M44.3895 5.0110
L44.4500 5.0715
" />
<path d="M44.4500 5.0715
L44.5709 5.1319
" />
<path d="M44.5709 5.1319
L44.8128 5.1319
" />
<path d="M44.8128 5.1319
L44.9338 5.0715
" />
<path d="M44.9338 5.0715
L44.9943 5.0110
" />
<path d="M44.9943 5.0110
L45.0547 4.8900
" />
<path d="M45.0547 4.8900
L45.0547 3.8619
" />
<path d="M45.8410 5.0110
L45.9014 5.0715
" />
<path d="M45.9014 5.0715
L45.8410 5.1319
" />
<path d="M45.8410 5.1319
L45.7805 5.0715
" />
<path d="M45.7805 5.0715
L45.8410 5.0110
" />
<path d="M45.8410 5.0110
L45.8410 5.1319
" />
<path d="M45.5991 3.9224
L45.7200 3.8619
" />
<path d="M45.7200 3.8619
L46.0224 3.8619
" />
<path d="M46.0224 3.8619
L46.1433 3.9224
" />
<path d="M46.1433 3.9224
L46.2038 4.0434
" />
<path d="M46.2038 4.0434
L46.2038 4.1643
" />
<path d="M46.2038 4.1643
L46.1433 4.2853
" />
<path d="M46.1433 4.2853
L46.0829 4.3457
" />
<path d="M46.0829 4.3457
L45.9619 4.4062
" />
<path d="M45.9619 4.4062
L45.9014 4.4667
" />
<path d="M45.9014 4.4667
L45.8410 4.5876
" />
<path d="M45.8410 4.5876
L45.8410 4.6481
" />
</g><text x="59.3476" y="5.1877"
textLength="21.8728" font-size="1.6933" lengthAdjust="spacingAndGlyphs"
text-anchor="middle" opacity="0">APE8865U5-12-HF-3</text>
<g class="stroked-text"><desc>APE8865U5-12-HF-3</desc>
<path d="M48.7643 4.7691
L49.3690 4.7691
" />
<path d="M48.6433 5.1319
L49.0666 3.8619
" />
<path d="M49.0666 3.8619
L49.4900 5.1319
" />
<path d="M49.9133 5.1319
L49.9133 3.8619
" />
<path d="M49.9133 3.8619
L50.3971 3.8619
" />
<path d="M50.3971 3.8619
L50.5181 3.9224
" />
<path d="M50.5181 3.9224
L50.5786 3.9829
" />
<path d="M50.5786 3.9829
L50.6390 4.1038
" />
<path d="M50.6390 4.1038
L50.6390 4.2853
" />
<path d="M50.6390 4.2853
L50.5786 4.4062
" />
<path d="M50.5786 4.4062
L50.5181 4.4667
" />
<path d="M50.5181 4.4667
L50.3971 4.5272
" />
<path d="M50.3971 4.5272
L49.9133 4.5272
" />
<path d="M51.1833 4.4667
L51.6067 4.4667
" />
<path d="M51.7881 5.1319
L51.1833 5.1319
" />
<path d="M51.1833 5.1319
L51.1833 3.8619
" />
<path d="M51.1833 3.8619
L51.7881 3.8619
" />
<path d="M52.5138 4.4062
L52.3928 4.3457
" />
<path d="M52.3928 4.3457
L52.3323 4.2853
" />
<path d="M52.3323 4.2853
L52.2719 4.1643
" />
<path d="M52.2719 4.1643
L52.2719 4.1038
" />
<path d="M52.2719 4.1038
L52.3323 3.9829
" />
<path d="M52.3323 3.9829
L52.3928 3.9224
" />
<path d="M52.3928 3.9224
L52.5138 3.8619
" />
<path d="M52.5138 3.8619
L52.7557 3.8619
" />
<path d="M52.7557 3.8619
L52.8766 3.9224
" />
<path d="M52.8766 3.9224
L52.9371 3.9829
" />
<path d="M52.9371 3.9829
L52.9976 4.1038
" />
<path d="M52.9976 4.1038
L52.9976 4.1643
" />
<path d="M52.9976 4.1643
L52.9371 4.2853
" />
<path d="M52.9371 4.2853
L52.8766 4.3457
" />
<path d="M52.8766 4.3457
L52.7557 4.4062
" />
<path d="M52.7557 4.4062
L52.5138 4.4062
" />
<path d="M52.5138 4.4062
L52.3928 4.4667
" />
<path d="M52.3928 4.4667
L52.3323 4.5272
" />
<path d="M52.3323 4.5272
L52.2719 4.6481
" />
<path d="M52.2719 4.6481
L52.2719 4.8900
" />
<path d="M52.2719 4.8900
L52.3323 5.0110
" />
<path d="M52.3323 5.0110
L52.3928 5.0715
" />
<path d="M52.3928 5.0715
L52.5138 5.1319
" />
<path d="M52.5138 5.1319
L52.7557 5.1319
" />
<path d="M52.7557 5.1319
L52.8766 5.0715
" />
<path d="M52.8766 5.0715
L52.9371 5.0110
" />
<path d="M52.9371 5.0110
L52.9976 4.8900
" />
<path d="M52.9976 4.8900
L52.9976 4.6481
" />
<path d="M52.9976 4.6481
L52.9371 4.5272
" />
<path d="M52.9371 4.5272
L52.8766 4.4667
" />
<path d="M52.8766 4.4667
L52.7557 4.4062
" />
<path d="M53.7233 4.4062
L53.6023 4.3457
" />
<path d="M53.6023 4.3457
L53.5418 4.2853
" />
<path d="M53.5418 4.2853
L53.4814 4.1643
" />
<path d="M53.4814 4.1643
L53.4814 4.1038
" />
<path d="M53.4814 4.1038
L53.5418 3.9829
" />
<path d="M53.5418 3.9829
L53.6023 3.9224
" />
<path d="M53.6023 3.9224
L53.7233 3.8619
" />
<path d="M53.7233 3.8619
L53.9652 3.8619
" />
<path d="M53.9652 3.8619
L54.0861 3.9224
" />
<path d="M54.0861 3.9224
L54.1466 3.9829
" />
<path d="M54.1466 3.9829
L54.2071 4.1038
" />
<path d="M54.2071 4.1038
L54.2071 4.1643
" />
<path d="M54.2071 4.1643
L54.1466 4.2853
" />
<path d="M54.1466 4.2853
L54.0861 4.3457
" />
<path d="M54.0861 4.3457
L53.9652 4.4062
" />
<path d="M53.9652 4.4062
L53.7233 4.4062
" />
<path d="M53.7233 4.4062
L53.6023 4.4667
" />
<path d="M53.6023 4.4667
L53.5418 4.5272
" />
<path d="M53.5418 4.5272
L53.4814 4.6481
" />
<path d="M53.4814 4.6481
L53.4814 4.8900
" />
<path d="M53.4814 4.8900
L53.5418 5.0110
" />
<path d="M53.5418 5.0110
L53.6023 5.0715
" />
<path d="M53.6023 5.0715
L53.7233 5.1319
" />
<path d="M53.7233 5.1319
L53.9652 5.1319
" />
<path d="M53.9652 5.1319
L54.0861 5.0715
" />
<path d="M54.0861 5.0715
L54.1466 5.0110
" />
<path d="M54.1466 5.0110
L54.2071 4.8900
" />
<path d="M54.2071 4.8900
L54.2071 4.6481
" />
<path d="M54.2071 4.6481
L54.1466 4.5272
" />
<path d="M54.1466 4.5272
L54.0861 4.4667
" />
<path d="M54.0861 4.4667
L53.9652 4.4062
" />
<path d="M55.2956 3.8619
L55.0537 3.8619
" />
<path d="M55.0537 3.8619
L54.9328 3.9224
" />
<path d="M54.9328 3.9224
L54.8723 3.9829
" />
<path d="M54.8723 3.9829
L54.7513 4.1643
" />
<path d="M54.7513 4.1643
L54.6909 4.4062
" />
<path d="M54.6909 4.4062
L54.6909 4.8900
" />
<path d="M54.6909 4.8900
L54.7513 5.0110
" />
<path d="M54.7513 5.0110
L54.8118 5.0715
" />
<path d="M54.8118 5.0715
L54.9328 5.1319
" />
<path d="M54.9328 5.1319
L55.1747 5.1319
" />
<path d="M55.1747 5.1319
L55.2956 5.0715
" />
<path d="M55.2956 5.0715
L55.3561 5.0110
" />
<path d="M55.3561 5.0110
L55.4166 4.8900
" />
<path d="M55.4166 4.8900
L55.4166 4.5876
" />
<path d="M55.4166 4.5876
L55.3561 4.4667
" />
<path d="M55.3561 4.4667
L55.2956 4.4062
" />
<path d="M55.2956 4.4062
L55.1747 4.3457
" />
<path d="M55.1747 4.3457
L54.9328 4.3457
" />
<path d="M54.9328 4.3457
L54.8118 4.4062
" />
<path d="M54.8118 4.4062
L54.7513 4.4667
" />
<path d="M54.7513 4.4667
L54.6909 4.5876
" />
<path d="M56.5656 3.8619
L55.9608 3.8619
" />
<path d="M55.9608 3.8619
L55.9004 4.4667
" />
<path d="M55.9004 4.4667
L55.9608 4.4062
" />
<path d="M55.9608 4.4062
L56.0818 4.3457
" />
<path d="M56.0818 4.3457
L56.3842 4.3457
" />
<path d="M56.3842 4.3457
L56.5051 4.4062
" />
<path d="M56.5051 4.4062
L56.5656 4.4667
" />
<path d="M56.5656 4.4667
L56.6261 4.5876
" />
<path d="M56.6261 4.5876
L56.6261 4.8900
" />
<path d="M56.6261 4.8900
L56.5656 5.0110
" />
<path d="M56.5656 5.0110
L56.5051 5.0715
" />
<path d="M56.5051 5.0715
L56.3842 5.1319
" />
<path d="M56.3842 5.1319
L56.0818 5.1319
" />
<path d="M56.0818 5.1319
L55.9608 5.0715
" />
<path d="M55.9608 5.0715
L55.9004 5.0110
" />
<path d="M57.1703 3.8619
L57.1703 4.8900
" />
<path d="M57.1703 4.8900
L57.2308 5.0110
" />
<path d="M57.2308 5.0110
L57.2913 5.0715
" />
<path d="M57.2913 5.0715
L57.4122 5.1319
" />
<path d="M57.4122 5.1319
L57.6541 5.1319
" />
<path d="M57.6541 5.1319
L57.7751 5.0715
" />
<path d="M57.7751 5.0715
L57.8356 5.0110
" />
<path d="M57.8356 5.0110
L57.8960 4.8900
" />
<path d="M57.8960 4.8900
L57.8960 3.8619
" />
<path d="M59.1056 3.8619
L58.5008 3.8619
" />
<path d="M58.5008 3.8619
L58.4404 4.4667
" />
<path d="M58.4404 4.4667
L58.5008 4.4062
" />
<path d="M58.5008 4.4062
L58.6218 4.3457
" />
<path d="M58.6218 4.3457
L58.9242 4.3457
" />
<path d="M58.9242 4.3457
L59.0451 4.4062
" />
<path d="M59.0451 4.4062
L59.1056 4.4667
" />
<path d="M59.1056 4.4667
L59.1661 4.5876
" />
<path d="M59.1661 4.5876
L59.1661 4.8900
" />
<path d="M59.1661 4.8900
L59.1056 5.0110
" />
<path d="M59.1056 5.0110
L59.0451 5.0715
" />
<path d="M59.0451 5.0715
L58.9242 5.1319
" />
<path d="M58.9242 5.1319
L58.6218 5.1319
" />
<path d="M58.6218 5.1319
L58.5008 5.0715
" />
<path d="M58.5008 5.0715
L58.4404 5.0110
" />
<path d="M59.7103 4.6481
L60.6780 4.6481
" />
<path d="M61.9480 5.1319
L61.2223 5.1319
" />
<path d="M61.5851 5.1319
L61.5851 3.8619
" />
<path d="M61.5851 3.8619
L61.4642 4.0434
" />
<path d="M61.4642 4.0434
L61.3432 4.1643
" />
<path d="M61.3432 4.1643
L61.2223 4.2248
" />
<path d="M62.4318 3.9829
L62.4922 3.9224
" />
<path d="M62.4922 3.9224
L62.6132 3.8619
" />
<path d="M62.6132 3.8619
L62.9156 3.8619
" />
<path d="M62.9156 3.8619
L63.0365 3.9224
" />
<path d="M63.0365 3.9224
L63.0970 3.9829
" />
<path d="M63.0970 3.9829
L63.1575 4.1038
" />
<path d="M63.1575 4.1038
L63.1575 4.2248
" />
<path d="M63.1575 4.2248
L63.0970 4.4062
" />
<path d="M63.0970 4.4062
L62.3713 5.1319
" />
<path d="M62.3713 5.1319
L63.1575 5.1319
" />
<path d="M63.7017 4.6481
L64.6694 4.6481
" />
<path d="M65.2741 5.1319
L65.2741 3.8619
" />
<path d="M65.2741 4.4667
L65.9998 4.4667
" />
<path d="M65.9998 5.1319
L65.9998 3.8619
" />
<path d="M67.0280 4.4667
L66.6046 4.4667
" />
<path d="M66.6046 5.1319
L66.6046 3.8619
" />
<path d="M66.6046 3.8619
L67.2094 3.8619
" />
<path d="M67.6932 4.6481
L68.6609 4.6481
" />
<path d="M69.1447 3.8619
L69.9309 3.8619
" />
<path d="M69.9309 3.8619
L69.5075 4.3457
" />
<path d="M69.5075 4.3457
L69.6890 4.3457
" />
<path d="M69.6890 4.3457
L69.8099 4.4062
" />
<path d="M69.8099 4.4062
L69.8704 4.4667
" />
<path d="M69.8704 4.4667
L69.9309 4.5876
" />
<path d="M69.9309 4.5876
L69.9309 4.8900
" />
<path d="M69.9309 4.8900
L69.8704 5.0110
" />
<path d="M69.8704 5.0110
L69.8099 5.0715
" />
<path d="M69.8099 5.0715
L69.6890 5.1319
" />
<path d="M69.6890 5.1319
L69.3261 5.1319
" />
<path d="M69.3261 5.1319
L69.2052 5.0715
" />
<path d="M69.2052 5.0715
L69.1447 5.0110
" />
</g></g>
<g style="fill:#840084; fill-opacity:0.0; 
stroke:#840084; stroke-width:0.1588; stroke-opacity:1; 
stroke-linecap:round; stroke-linejoin:round;">
<text x="51.6656" y="3.2827"
textLength="40.3178" font-size="1.6933" lengthAdjust="spacingAndGlyphs"
text-anchor="middle" opacity="0">Package_TO_SOT_SMD:SOT-353_SC-70-5</text>
<g class="stroked-text"><desc>Package_TO_SOT_SMD:SOT-353_SC-70-5</desc>
<path d="M31.9127 3.2269
L32.0714 1.9569
" />
<path d="M32.0714 1.9569
L32.5552 1.9569
" />
<path d="M32.5552 1.9569
L32.6686 2.0174
" />
<path d="M32.6686 2.0174
L32.7215 2.0779
" />
<path d="M32.7215 2.0779
L32.7669 2.1988
" />
<path d="M32.7669 2.1988
L32.7442 2.3803
" />
<path d="M32.7442 2.3803
L32.6686 2.5012
" />
<path d="M32.6686 2.5012
L32.6006 2.5617
" />
<path d="M32.6006 2.5617
L32.4721 2.6222
" />
<path d="M32.4721 2.6222
L31.9883 2.6222
" />
<path d="M33.7270 3.2269
L33.8101 2.5617
" />
<path d="M33.8101 2.5617
L33.7648 2.4407
" />
<path d="M33.7648 2.4407
L33.6514 2.3803
" />
<path d="M33.6514 2.3803
L33.4095 2.3803
" />
<path d="M33.4095 2.3803
L33.2809 2.4407
" />
<path d="M33.7345 3.1665
L33.6060 3.2269
" />
<path d="M33.6060 3.2269
L33.3036 3.2269
" />
<path d="M33.3036 3.2269
L33.1902 3.1665
" />
<path d="M33.1902 3.1665
L33.1449 3.0455
" />
<path d="M33.1449 3.0455
L33.1600 2.9245
" />
<path d="M33.1600 2.9245
L33.2356 2.8036
" />
<path d="M33.2356 2.8036
L33.3641 2.7431
" />
<path d="M33.3641 2.7431
L33.6665 2.7431
" />
<path d="M33.6665 2.7431
L33.7950 2.6826
" />
<path d="M34.8835 3.1665
L34.7550 3.2269
" />
<path d="M34.7550 3.2269
L34.5131 3.2269
" />
<path d="M34.5131 3.2269
L34.3997 3.1665
" />
<path d="M34.3997 3.1665
L34.3468 3.1060
" />
<path d="M34.3468 3.1060
L34.3014 2.9850
" />
<path d="M34.3014 2.9850
L34.3468 2.6222
" />
<path d="M34.3468 2.6222
L34.4224 2.5012
" />
<path d="M34.4224 2.5012
L34.4904 2.4407
" />
<path d="M34.4904 2.4407
L34.6189 2.3803
" />
<path d="M34.6189 2.3803
L34.8608 2.3803
" />
<path d="M34.8608 2.3803
L34.9742 2.4407
" />
<path d="M35.4203 3.2269
L35.5790 1.9569
" />
<path d="M35.6017 2.7431
L35.9041 3.2269
" />
<path d="M36.0099 2.3803
L35.4656 2.8641
" />
<path d="M36.9927 3.2269
L37.0758 2.5617
" />
<path d="M37.0758 2.5617
L37.0305 2.4407
" />
<path d="M37.0305 2.4407
L36.9171 2.3803
" />
<path d="M36.9171 2.3803
L36.6752 2.3803
" />
<path d="M36.6752 2.3803
L36.5466 2.4407
" />
<path d="M37.0002 3.1665
L36.8717 3.2269
" />
<path d="M36.8717 3.2269
L36.5693 3.2269
" />
<path d="M36.5693 3.2269
L36.4559 3.1665
" />
<path d="M36.4559 3.1665
L36.4106 3.0455
" />
<path d="M36.4106 3.0455
L36.4257 2.9245
" />
<path d="M36.4257 2.9245
L36.5013 2.8036
" />
<path d="M36.5013 2.8036
L36.6298 2.7431
" />
<path d="M36.6298 2.7431
L36.9322 2.7431
" />
<path d="M36.9322 2.7431
L37.0607 2.6826
" />
<path d="M38.2475 2.3803
L38.1190 3.4084
" />
<path d="M38.1190 3.4084
L38.0434 3.5293
" />
<path d="M38.0434 3.5293
L37.9753 3.5898
" />
<path d="M37.9753 3.5898
L37.8468 3.6503
" />
<path d="M37.8468 3.6503
L37.6654 3.6503
" />
<path d="M37.6654 3.6503
L37.5520 3.5898
" />
<path d="M38.1492 3.1665
L38.0207 3.2269
" />
<path d="M38.0207 3.2269
L37.7788 3.2269
" />
<path d="M37.7788 3.2269
L37.6654 3.1665
" />
<path d="M37.6654 3.1665
L37.6125 3.1060
" />
<path d="M37.6125 3.1060
L37.5671 2.9850
" />
<path d="M37.5671 2.9850
L37.6125 2.6222
" />
<path d="M37.6125 2.6222
L37.6881 2.5012
" />
<path d="M37.6881 2.5012
L37.7561 2.4407
" />
<path d="M37.7561 2.4407
L37.8846 2.3803
" />
<path d="M37.8846 2.3803
L38.1265 2.3803
" />
<path d="M38.1265 2.3803
L38.2399 2.4407
" />
<path d="M39.2377 3.1665
L39.1092 3.2269
" />
<path d="M39.1092 3.2269
L38.8673 3.2269
" />
<path d="M38.8673 3.2269
L38.7539 3.1665
" />
<path d="M38.7539 3.1665
L38.7086 3.0455
" />
<path d="M38.7086 3.0455
L38.7691 2.5617
" />
<path d="M38.7691 2.5617
L38.8446 2.4407
" />
<path d="M38.8446 2.4407
L38.9732 2.3803
" />
<path d="M38.9732 2.3803
L39.2151 2.3803
" />
<path d="M39.2151 2.3803
L39.3285 2.4407
" />
<path d="M39.3285 2.4407
L39.3738 2.5617
" />
<path d="M39.3738 2.5617
L39.3587 2.6826
" />
<path d="M39.3587 2.6826
L38.7388 2.8036
" />
<path d="M39.5175 3.3479
L40.4851 3.3479
" />
<path d="M40.7799 1.9569
L41.5056 1.9569
" />
<path d="M40.9840 3.2269
L41.1428 1.9569
" />
<path d="M42.1708 1.9569
L42.4127 1.9569
" />
<path d="M42.4127 1.9569
L42.5261 2.0174
" />
<path d="M42.5261 2.0174
L42.6320 2.1384
" />
<path d="M42.6320 2.1384
L42.6622 2.3803
" />
<path d="M42.6622 2.3803
L42.6093 2.8036
" />
<path d="M42.6093 2.8036
L42.5186 3.0455
" />
<path d="M42.5186 3.0455
L42.3825 3.1665
" />
<path d="M42.3825 3.1665
L42.2540 3.2269
" />
<path d="M42.2540 3.2269
L42.0121 3.2269
" />
<path d="M42.0121 3.2269
L41.8987 3.1665
" />
<path d="M41.8987 3.1665
L41.7929 3.0455
" />
<path d="M41.7929 3.0455
L41.7626 2.8036
" />
<path d="M41.7626 2.8036
L41.8155 2.3803
" />
<path d="M41.8155 2.3803
L41.9062 2.1384
" />
<path d="M41.9062 2.1384
L42.0423 2.0174
" />
<path d="M42.0423 2.0174
L42.1708 1.9569
" />
<path d="M42.7832 3.3479
L43.7508 3.3479
" />
<path d="M44.0154 3.1665
L44.1892 3.2269
" />
<path d="M44.1892 3.2269
L44.4916 3.2269
" />
<path d="M44.4916 3.2269
L44.6201 3.1665
" />
<path d="M44.6201 3.1665
L44.6882 3.1060
" />
<path d="M44.6882 3.1060
L44.7637 2.9850
" />
<path d="M44.7637 2.9850
L44.7789 2.8641
" />
<path d="M44.7789 2.8641
L44.7335 2.7431
" />
<path d="M44.7335 2.7431
L44.6806 2.6826
" />
<path d="M44.6806 2.6826
L44.5672 2.6222
" />
<path d="M44.5672 2.6222
L44.3329 2.5617
" />
<path d="M44.3329 2.5617
L44.2195 2.5012
" />
<path d="M44.2195 2.5012
L44.1665 2.4407
" />
<path d="M44.1665 2.4407
L44.1212 2.3198
" />
<path d="M44.1212 2.3198
L44.1363 2.1988
" />
<path d="M44.1363 2.1988
L44.2119 2.0779
" />
<path d="M44.2119 2.0779
L44.2799 2.0174
" />
<path d="M44.2799 2.0174
L44.4085 1.9569
" />
<path d="M44.4085 1.9569
L44.7108 1.9569
" />
<path d="M44.7108 1.9569
L44.8847 2.0174
" />
<path d="M45.6784 1.9569
L45.9203 1.9569
" />
<path d="M45.9203 1.9569
L46.0337 2.0174
" />
<path d="M46.0337 2.0174
L46.1396 2.1384
" />
<path d="M46.1396 2.1384
L46.1698 2.3803
" />
<path d="M46.1698 2.3803
L46.1169 2.8036
" />
<path d="M46.1169 2.8036
L46.0262 3.0455
" />
<path d="M46.0262 3.0455
L45.8901 3.1665
" />
<path d="M45.8901 3.1665
L45.7616 3.2269
" />
<path d="M45.7616 3.2269
L45.5197 3.2269
" />
<path d="M45.5197 3.2269
L45.4063 3.1665
" />
<path d="M45.4063 3.1665
L45.3005 3.0455
" />
<path d="M45.3005 3.0455
L45.2702 2.8036
" />
<path d="M45.2702 2.8036
L45.3231 2.3803
" />
<path d="M45.3231 2.3803
L45.4138 2.1384
" />
<path d="M45.4138 2.1384
L45.5499 2.0174
" />
<path d="M45.5499 2.0174
L45.6784 1.9569
" />
<path d="M46.5856 1.9569
L47.3113 1.9569
" />
<path d="M46.7897 3.2269
L46.9485 1.9569
" />
<path d="M47.2584 3.3479
L48.2260 3.3479
" />
<path d="M48.4906 3.1665
L48.6644 3.2269
" />
<path d="M48.6644 3.2269
L48.9668 3.2269
" />
<path d="M48.9668 3.2269
L49.0953 3.1665
" />
<path d="M49.0953 3.1665
L49.1634 3.1060
" />
<path d="M49.1634 3.1060
L49.2389 2.9850
" />
<path d="M49.2389 2.9850
L49.2541 2.8641
" />
<path d="M49.2541 2.8641
L49.2087 2.7431
" />
<path d="M49.2087 2.7431
L49.1558 2.6826
" />
<path d="M49.1558 2.6826
L49.0424 2.6222
" />
<path d="M49.0424 2.6222
L48.8081 2.5617
" />
<path d="M48.8081 2.5617
L48.6947 2.5012
" />
<path d="M48.6947 2.5012
L48.6417 2.4407
" />
<path d="M48.6417 2.4407
L48.5964 2.3198
" />
<path d="M48.5964 2.3198
L48.6115 2.1988
" />
<path d="M48.6115 2.1988
L48.6871 2.0779
" />
<path d="M48.6871 2.0779
L48.7551 2.0174
" />
<path d="M48.7551 2.0174
L48.8837 1.9569
" />
<path d="M48.8837 1.9569
L49.1860 1.9569
" />
<path d="M49.1860 1.9569
L49.3599 2.0174
" />
<path d="M49.7530 3.2269
L49.9117 1.9569
" />
<path d="M49.9117 1.9569
L50.2217 2.8641
" />
<path d="M50.2217 2.8641
L50.7584 1.9569
" />
<path d="M50.7584 1.9569
L50.5996 3.2269
" />
<path d="M51.2044 3.2269
L51.3631 1.9569
" />
<path d="M51.3631 1.9569
L51.6655 1.9569
" />
<path d="M51.6655 1.9569
L51.8394 2.0174
" />
<path d="M51.8394 2.0174
L51.9452 2.1384
" />
<path d="M51.9452 2.1384
L51.9906 2.2593
" />
<path d="M51.9906 2.2593
L52.0208 2.5012
" />
<path d="M52.0208 2.5012
L51.9981 2.6826
" />
<path d="M51.9981 2.6826
L51.9074 2.9245
" />
<path d="M51.9074 2.9245
L51.8318 3.0455
" />
<path d="M51.8318 3.0455
L51.6957 3.1665
" />
<path d="M51.6957 3.1665
L51.5068 3.2269
" />
<path d="M51.5068 3.2269
L51.2044 3.2269
" />
<path d="M52.4895 3.1060
L52.5424 3.1665
" />
<path d="M52.5424 3.1665
L52.4744 3.2269
" />
<path d="M52.4744 3.2269
L52.4215 3.1665
" />
<path d="M52.4215 3.1665
L52.4895 3.1060
" />
<path d="M52.4895 3.1060
L52.4744 3.2269
" />
<path d="M52.5726 2.4407
L52.6256 2.5012
" />
<path d="M52.6256 2.5012
L52.5575 2.5617
" />
<path d="M52.5575 2.5617
L52.5046 2.5012
" />
<path d="M52.5046 2.5012
L52.5726 2.4407
" />
<path d="M52.5726 2.4407
L52.5575 2.5617
" />
<path d="M53.0263 3.1665
L53.2001 3.2269
" />
<path d="M53.2001 3.2269
L53.5025 3.2269
" />
<path d="M53.5025 3.2269
L53.6310 3.1665
" />
<path d="M53.6310 3.1665
L53.6991 3.1060
" />
<path d="M53.6991 3.1060
L53.7746 2.9850
" />
<path d="M53.7746 2.9850
L53.7898 2.8641
" />
<path d="M53.7898 2.8641
L53.7444 2.7431
" />
<path d="M53.7444 2.7431
L53.6915 2.6826
" />
<path d="M53.6915 2.6826
L53.5781 2.6222
" />
<path d="M53.5781 2.6222
L53.3438 2.5617
" />
<path d="M53.3438 2.5617
L53.2304 2.5012
" />
<path d="M53.2304 2.5012
L53.1774 2.4407
" />
<path d="M53.1774 2.4407
L53.1321 2.3198
" />
<path d="M53.1321 2.3198
L53.1472 2.1988
" />
<path d="M53.1472 2.1988
L53.2228 2.0779
" />
<path d="M53.2228 2.0779
L53.2908 2.0174
" />
<path d="M53.2908 2.0174
L53.4194 1.9569
" />
<path d="M53.4194 1.9569
L53.7217 1.9569
" />
<path d="M53.7217 1.9569
L53.8956 2.0174
" />
<path d="M54.6893 1.9569
L54.9312 1.9569
" />
<path d="M54.9312 1.9569
L55.0446 2.0174
" />
<path d="M55.0446 2.0174
L55.1505 2.1384
" />
<path d="M55.1505 2.1384
L55.1807 2.3803
" />
<path d="M55.1807 2.3803
L55.1278 2.8036
" />
<path d="M55.1278 2.8036
L55.0371 3.0455
" />
<path d="M55.0371 3.0455
L54.9010 3.1665
" />
<path d="M54.9010 3.1665
L54.7725 3.2269
" />
<path d="M54.7725 3.2269
L54.5306 3.2269
" />
<path d="M54.5306 3.2269
L54.4172 3.1665
" />
<path d="M54.4172 3.1665
L54.3114 3.0455
" />
<path d="M54.3114 3.0455
L54.2811 2.8036
" />
<path d="M54.2811 2.8036
L54.3340 2.3803
" />
<path d="M54.3340 2.3803
L54.4247 2.1384
" />
<path d="M54.4247 2.1384
L54.5608 2.0174
" />
<path d="M54.5608 2.0174
L54.6893 1.9569
" />
<path d="M55.5965 1.9569
L56.3222 1.9569
" />
<path d="M55.8006 3.2269
L55.9594 1.9569
" />
<path d="M56.6472 2.7431
L57.6149 2.7431
" />
<path d="M58.1970 1.9569
L58.9832 1.9569
" />
<path d="M58.9832 1.9569
L58.4994 2.4407
" />
<path d="M58.4994 2.4407
L58.6808 2.4407
" />
<path d="M58.6808 2.4407
L58.7942 2.5012
" />
<path d="M58.7942 2.5012
L58.8471 2.5617
" />
<path d="M58.8471 2.5617
L58.8924 2.6826
" />
<path d="M58.8924 2.6826
L58.8546 2.9850
" />
<path d="M58.8546 2.9850
L58.7791 3.1060
" />
<path d="M58.7791 3.1060
L58.7110 3.1665
" />
<path d="M58.7110 3.1665
L58.5825 3.2269
" />
<path d="M58.5825 3.2269
L58.2196 3.2269
" />
<path d="M58.2196 3.2269
L58.1063 3.1665
" />
<path d="M58.1063 3.1665
L58.0533 3.1060
" />
<path d="M60.1322 1.9569
L59.5274 1.9569
" />
<path d="M59.5274 1.9569
L59.3914 2.5617
" />
<path d="M59.3914 2.5617
L59.4594 2.5012
" />
<path d="M59.4594 2.5012
L59.5879 2.4407
" />
<path d="M59.5879 2.4407
L59.8903 2.4407
" />
<path d="M59.8903 2.4407
L60.0037 2.5012
" />
<path d="M60.0037 2.5012
L60.0566 2.5617
" />
<path d="M60.0566 2.5617
L60.1019 2.6826
" />
<path d="M60.1019 2.6826
L60.0641 2.9850
" />
<path d="M60.0641 2.9850
L59.9886 3.1060
" />
<path d="M59.9886 3.1060
L59.9205 3.1665
" />
<path d="M59.9205 3.1665
L59.7920 3.2269
" />
<path d="M59.7920 3.2269
L59.4896 3.2269
" />
<path d="M59.4896 3.2269
L59.3762 3.1665
" />
<path d="M59.3762 3.1665
L59.3233 3.1060
" />
<path d="M60.6160 1.9569
L61.4022 1.9569
" />
<path d="M61.4022 1.9569
L60.9184 2.4407
" />
<path d="M60.9184 2.4407
L61.0998 2.4407
" />
<path d="M61.0998 2.4407
L61.2132 2.5012
" />
<path d="M61.2132 2.5012
L61.2661 2.5617
" />
<path d="M61.2661 2.5617
L61.3114 2.6826
" />
<path d="M61.3114 2.6826
L61.2736 2.9850
" />
<path d="M61.2736 2.9850
L61.1981 3.1060
" />
<path d="M61.1981 3.1060
L61.1300 3.1665
" />
<path d="M61.1300 3.1665
L61.0015 3.2269
" />
<path d="M61.0015 3.2269
L60.6386 3.2269
" />
<path d="M60.6386 3.2269
L60.5253 3.1665
" />
<path d="M60.5253 3.1665
L60.4723 3.1060
" />
<path d="M61.4702 3.3479
L62.4378 3.3479
" />
<path d="M62.7024 3.1665
L62.8762 3.2269
" />
<path d="M62.8762 3.2269
L63.1786 3.2269
" />
<path d="M63.1786 3.2269
L63.3071 3.1665
" />
<path d="M63.3071 3.1665
L63.3752 3.1060
" />
<path d="M63.3752 3.1060
L63.4507 2.9850
" />
<path d="M63.4507 2.9850
L63.4659 2.8641
" />
<path d="M63.4659 2.8641
L63.4205 2.7431
" />
<path d="M63.4205 2.7431
L63.3676 2.6826
" />
<path d="M63.3676 2.6826
L63.2542 2.6222
" />
<path d="M63.2542 2.6222
L63.0199 2.5617
" />
<path d="M63.0199 2.5617
L62.9065 2.5012
" />
<path d="M62.9065 2.5012
L62.8535 2.4407
" />
<path d="M62.8535 2.4407
L62.8082 2.3198
" />
<path d="M62.8082 2.3198
L62.8233 2.1988
" />
<path d="M62.8233 2.1988
L62.8989 2.0779
" />
<path d="M62.8989 2.0779
L62.9669 2.0174
" />
<path d="M62.9669 2.0174
L63.0955 1.9569
" />
<path d="M63.0955 1.9569
L63.3978 1.9569
" />
<path d="M63.3978 1.9569
L63.5717 2.0174
" />
<path d="M64.7056 3.1060
L64.6376 3.1665
" />
<path d="M64.6376 3.1665
L64.4486 3.2269
" />
<path d="M64.4486 3.2269
L64.3276 3.2269
" />
<path d="M64.3276 3.2269
L64.1538 3.1665
" />
<path d="M64.1538 3.1665
L64.0479 3.0455
" />
<path d="M64.0479 3.0455
L64.0026 2.9245
" />
<path d="M64.0026 2.9245
L63.9723 2.6826
" />
<path d="M63.9723 2.6826
L63.9950 2.5012
" />
<path d="M63.9950 2.5012
L64.0857 2.2593
" />
<path d="M64.0857 2.2593
L64.1613 2.1384
" />
<path d="M64.1613 2.1384
L64.2974 2.0174
" />
<path d="M64.2974 2.0174
L64.4864 1.9569
" />
<path d="M64.4864 1.9569
L64.6073 1.9569
" />
<path d="M64.6073 1.9569
L64.7812 2.0174
" />
<path d="M64.7812 2.0174
L64.8341 2.0779
" />
<path d="M65.2952 2.7431
L66.2629 2.7431
" />
<path d="M66.8450 1.9569
L67.6916 1.9569
" />
<path d="M67.6916 1.9569
L66.9886 3.2269
" />
<path d="M68.4173 1.9569
L68.5383 1.9569
" />
<path d="M68.5383 1.9569
L68.6517 2.0174
" />
<path d="M68.6517 2.0174
L68.7046 2.0779
" />
<path d="M68.7046 2.0779
L68.7499 2.1988
" />
<path d="M68.7499 2.1988
L68.7802 2.4407
" />
<path d="M68.7802 2.4407
L68.7424 2.7431
" />
<path d="M68.7424 2.7431
L68.6517 2.9850
" />
<path d="M68.6517 2.9850
L68.5761 3.1060
" />
<path d="M68.5761 3.1060
L68.5080 3.1665
" />
<path d="M68.5080 3.1665
L68.3795 3.2269
" />
<path d="M68.3795 3.2269
L68.2586 3.2269
" />
<path d="M68.2586 3.2269
L68.1452 3.1665
" />
<path d="M68.1452 3.1665
L68.0923 3.1060
" />
<path d="M68.0923 3.1060
L68.0469 2.9850
" />
<path d="M68.0469 2.9850
L68.0167 2.7431
" />
<path d="M68.0167 2.7431
L68.0545 2.4407
" />
<path d="M68.0545 2.4407
L68.1452 2.1988
" />
<path d="M68.1452 2.1988
L68.2208 2.0779
" />
<path d="M68.2208 2.0779
L68.2888 2.0174
" />
<path d="M68.2888 2.0174
L68.4173 1.9569
" />
<path d="M69.2866 2.7431
L70.2543 2.7431
" />
<path d="M71.5621 1.9569
L70.9573 1.9569
" />
<path d="M70.9573 1.9569
L70.8213 2.5617
" />
<path d="M70.8213 2.5617
L70.8893 2.5012
" />
<path d="M70.8893 2.5012
L71.0178 2.4407
" />
<path d="M71.0178 2.4407
L71.3202 2.4407
" />
<path d="M71.3202 2.4407
L71.4336 2.5012
" />
<path d="M71.4336 2.5012
L71.4865 2.5617
" />
<path d="M71.4865 2.5617
L71.5318 2.6826
" />
<path d="M71.5318 2.6826
L71.4940 2.9850
" />
<path d="M71.4940 2.9850
L71.4185 3.1060
" />
<path d="M71.4185 3.1060
L71.3504 3.1665
" />
<path d="M71.3504 3.1665
L71.2219 3.2269
" />
<path d="M71.2219 3.2269
L70.9195 3.2269
" />
<path d="M70.9195 3.2269
L70.8061 3.1665
" />
<path d="M70.8061 3.1665
L70.7532 3.1060
" />
</g><text x="51.5862" y="10.9027"
textLength="85.9770" font-size="1.6933" lengthAdjust="spacingAndGlyphs"
text-anchor="middle" opacity="0">http://www.tme.eu/fr/Document/ced3461ed31ea70a3c416fb648e0cde7/APE8865-3.pdf</text>
<g class="stroked-text"><desc>http://www.tme.eu/fr/Document/ced3461ed31ea70a3c416fb648e0cde7/APE8865-3.pdf</desc>
<path d="M9.0112 10.8469
L9.0112 9.5769
" />
<path d="M9.5555 10.8469
L9.5555 10.1817
" />
<path d="M9.5555 10.1817
L9.4950 10.0607
" />
<path d="M9.4950 10.0607
L9.3741 10.0003
" />
<path d="M9.3741 10.0003
L9.1927 10.0003
" />
<path d="M9.1927 10.0003
L9.0717 10.0607
" />
<path d="M9.0717 10.0607
L9.0112 10.1212
" />
<path d="M9.9788 10.0003
L10.4626 10.0003
" />
<path d="M10.1602 9.5769
L10.1602 10.6655
" />
<path d="M10.1602 10.6655
L10.2207 10.7865
" />
<path d="M10.2207 10.7865
L10.3417 10.8469
" />
<path d="M10.3417 10.8469
L10.4626 10.8469
" />
<path d="M10.7045 10.0003
L11.1883 10.0003
" />
<path d="M10.8859 9.5769
L10.8859 10.6655
" />
<path d="M10.8859 10.6655
L10.9464 10.7865
" />
<path d="M10.9464 10.7865
L11.0674 10.8469
" />
<path d="M11.0674 10.8469
L11.1883 10.8469
" />
<path d="M11.6116 10.0003
L11.6116 11.2703
" />
<path d="M11.6116 10.0607
L11.7326 10.0003
" />
<path d="M11.7326 10.0003
L11.9745 10.0003
" />
<path d="M11.9745 10.0003
L12.0954 10.0607
" />
<path d="M12.0954 10.0607
L12.1559 10.1212
" />
<path d="M12.1559 10.1212
L12.2164 10.2422
" />
<path d="M12.2164 10.2422
L12.2164 10.6050
" />
<path d="M12.2164 10.6050
L12.1559 10.7260
" />
<path d="M12.1559 10.7260
L12.0954 10.7865
" />
<path d="M12.0954 10.7865
L11.9745 10.8469
" />
<path d="M11.9745 10.8469
L11.7326 10.8469
" />
<path d="M11.7326 10.8469
L11.6116 10.7865
" />
<path d="M12.7606 10.7260
L12.8211 10.7865
" />
<path d="M12.8211 10.7865
L12.7606 10.8469
" />
<path d="M12.7606 10.8469
L12.7002 10.7865
" />
<path d="M12.7002 10.7865
L12.7606 10.7260
" />
<path d="M12.7606 10.7260
L12.7606 10.8469
" />
<path d="M12.7606 10.0607
L12.8211 10.1212
" />
<path d="M12.8211 10.1212
L12.7606 10.1817
" />
<path d="M12.7606 10.1817
L12.7002 10.1212
" />
<path d="M12.7002 10.1212
L12.7606 10.0607
" />
<path d="M12.7606 10.0607
L12.7606 10.1817
" />
<path d="M14.2726 9.5165
L13.1840 11.1493
" />
<path d="M15.6031 9.5165
L14.5145 11.1493
" />
<path d="M15.9055 10.0003
L16.1474 10.8469
" />
<path d="M16.1474 10.8469
L16.3893 10.2422
" />
<path d="M16.3893 10.2422
L16.6312 10.8469
" />
<path d="M16.6312 10.8469
L16.8731 10.0003
" />
<path d="M17.2360 10.0003
L17.4779 10.8469
" />
<path d="M17.4779 10.8469
L17.7198 10.2422
" />
<path d="M17.7198 10.2422
L17.9617 10.8469
" />
<path d="M17.9617 10.8469
L18.2036 10.0003
" />
<path d="M18.5665 10.0003
L18.8084 10.8469
" />
<path d="M18.8084 10.8469
L19.0503 10.2422
" />
<path d="M19.0503 10.2422
L19.2922 10.8469
" />
<path d="M19.2922 10.8469
L19.5341 10.0003
" />
<path d="M20.0179 10.7260
L20.0784 10.7865
" />
<path d="M20.0784 10.7865
L20.0179 10.8469
" />
<path d="M20.0179 10.8469
L19.9575 10.7865
" />
<path d="M19.9575 10.7865
L20.0179 10.7260
" />
<path d="M20.0179 10.7260
L20.0179 10.8469
" />
<path d="M20.4413 10.0003
L20.9251 10.0003
" />
<path d="M20.6227 9.5769
L20.6227 10.6655
" />
<path d="M20.6227 10.6655
L20.6832 10.7865
" />
<path d="M20.6832 10.7865
L20.8042 10.8469
" />
<path d="M20.8042 10.8469
L20.9251 10.8469
" />
<path d="M21.3484 10.8469
L21.3484 10.0003
" />
<path d="M21.3484 10.1212
L21.4089 10.0607
" />
<path d="M21.4089 10.0607
L21.5299 10.0003
" />
<path d="M21.5299 10.0003
L21.7113 10.0003
" />
<path d="M21.7113 10.0003
L21.8322 10.0607
" />
<path d="M21.8322 10.0607
L21.8927 10.1817
" />
<path d="M21.8927 10.1817
L21.8927 10.8469
" />
<path d="M21.8927 10.1817
L21.9532 10.0607
" />
<path d="M21.9532 10.0607
L22.0741 10.0003
" />
<path d="M22.0741 10.0003
L22.2556 10.0003
" />
<path d="M22.2556 10.0003
L22.3765 10.0607
" />
<path d="M22.3765 10.0607
L22.4370 10.1817
" />
<path d="M22.4370 10.1817
L22.4370 10.8469
" />
<path d="M23.5255 10.7865
L23.4046 10.8469
" />
<path d="M23.4046 10.8469
L23.1627 10.8469
" />
<path d="M23.1627 10.8469
L23.0417 10.7865
" />
<path d="M23.0417 10.7865
L22.9813 10.6655
" />
<path d="M22.9813 10.6655
L22.9813 10.1817
" />
<path d="M22.9813 10.1817
L23.0417 10.0607
" />
<path d="M23.0417 10.0607
L23.1627 10.0003
" />
<path d="M23.1627 10.0003
L23.4046 10.0003
" />
<path d="M23.4046 10.0003
L23.5255 10.0607
" />
<path d="M23.5255 10.0607
L23.5860 10.1817
" />
<path d="M23.5860 10.1817
L23.5860 10.3026
" />
<path d="M23.5860 10.3026
L22.9813 10.4236
" />
<path d="M24.1303 10.7260
L24.1908 10.7865
" />
<path d="M24.1908 10.7865
L24.1303 10.8469
" />
<path d="M24.1303 10.8469
L24.0699 10.7865
" />
<path d="M24.0699 10.7865
L24.1303 10.7260
" />
<path d="M24.1303 10.7260
L24.1303 10.8469
" />
<path d="M25.2189 10.7865
L25.0980 10.8469
" />
<path d="M25.0980 10.8469
L24.8561 10.8469
" />
<path d="M24.8561 10.8469
L24.7351 10.7865
" />
<path d="M24.7351 10.7865
L24.6747 10.6655
" />
<path d="M24.6747 10.6655
L24.6747 10.1817
" />
<path d="M24.6747 10.1817
L24.7351 10.0607
" />
<path d="M24.7351 10.0607
L24.8561 10.0003
" />
<path d="M24.8561 10.0003
L25.0980 10.0003
" />
<path d="M25.0980 10.0003
L25.2189 10.0607
" />
<path d="M25.2189 10.0607
L25.2794 10.1817
" />
<path d="M25.2794 10.1817
L25.2794 10.3026
" />
<path d="M25.2794 10.3026
L24.6747 10.4236
" />
<path d="M26.3680 10.0003
L26.3680 10.8469
" />
<path d="M25.8237 10.0003
L25.8237 10.6655
" />
<path d="M25.8237 10.6655
L25.8842 10.7865
" />
<path d="M25.8842 10.7865
L26.0052 10.8469
" />
<path d="M26.0052 10.8469
L26.1866 10.8469
" />
<path d="M26.1866 10.8469
L26.3075 10.7865
" />
<path d="M26.3075 10.7865
L26.3680 10.7260
" />
<path d="M27.8799 9.5165
L26.7913 11.1493
" />
<path d="M28.1218 10.0003
L28.6056 10.0003
" />
<path d="M28.3032 10.8469
L28.3032 9.7584
" />
<path d="M28.3032 9.7584
L28.3637 9.6374
" />
<path d="M28.3637 9.6374
L28.4847 9.5769
" />
<path d="M28.4847 9.5769
L28.6056 9.5769
" />
<path d="M29.0289 10.8469
L29.0289 10.0003
" />
<path d="M29.0289 10.2422
L29.0894 10.1212
" />
<path d="M29.0894 10.1212
L29.1499 10.0607
" />
<path d="M29.1499 10.0607
L29.2708 10.0003
" />
<path d="M29.2708 10.0003
L29.3918 10.0003
" />
<path d="M30.7223 9.5165
L29.6337 11.1493
" />
<path d="M31.1456 10.8469
L31.1456 9.5769
" />
<path d="M31.1456 9.5769
L31.4480 9.5769
" />
<path d="M31.4480 9.5769
L31.6294 9.6374
" />
<path d="M31.6294 9.6374
L31.7504 9.7584
" />
<path d="M31.7504 9.7584
L31.8109 9.8793
" />
<path d="M31.8109 9.8793
L31.8713 10.1212
" />
<path d="M31.8713 10.1212
L31.8713 10.3026
" />
<path d="M31.8713 10.3026
L31.8109 10.5445
" />
<path d="M31.8109 10.5445
L31.7504 10.6655
" />
<path d="M31.7504 10.6655
L31.6294 10.7865
" />
<path d="M31.6294 10.7865
L31.4480 10.8469
" />
<path d="M31.4480 10.8469
L31.1456 10.8469
" />
<path d="M32.5971 10.8469
L32.4761 10.7865
" />
<path d="M32.4761 10.7865
L32.4156 10.7260
" />
<path d="M32.4156 10.7260
L32.3552 10.6050
" />
<path d="M32.3552 10.6050
L32.3552 10.2422
" />
<path d="M32.3552 10.2422
L32.4156 10.1212
" />
<path d="M32.4156 10.1212
L32.4761 10.0607
" />
<path d="M32.4761 10.0607
L32.5971 10.0003
" />
<path d="M32.5971 10.0003
L32.7785 10.0003
" />
<path d="M32.7785 10.0003
L32.8994 10.0607
" />
<path d="M32.8994 10.0607
L32.9599 10.1212
" />
<path d="M32.9599 10.1212
L33.0204 10.2422
" />
<path d="M33.0204 10.2422
L33.0204 10.6050
" />
<path d="M33.0204 10.6050
L32.9599 10.7260
" />
<path d="M32.9599 10.7260
L32.8994 10.7865
" />
<path d="M32.8994 10.7865
L32.7785 10.8469
" />
<path d="M32.7785 10.8469
L32.5971 10.8469
" />
<path d="M34.1089 10.7865
L33.9880 10.8469
" />
<path d="M33.9880 10.8469
L33.7461 10.8469
" />
<path d="M33.7461 10.8469
L33.6251 10.7865
" />
<path d="M33.6251 10.7865
L33.5646 10.7260
" />
<path d="M33.5646 10.7260
L33.5042 10.6050
" />
<path d="M33.5042 10.6050
L33.5042 10.2422
" />
<path d="M33.5042 10.2422
L33.5646 10.1212
" />
<path d="M33.5646 10.1212
L33.6251 10.0607
" />
<path d="M33.6251 10.0607
L33.7461 10.0003
" />
<path d="M33.7461 10.0003
L33.9880 10.0003
" />
<path d="M33.9880 10.0003
L34.1089 10.0607
" />
<path d="M35.1975 10.0003
L35.1975 10.8469
" />
<path d="M34.6532 10.0003
L34.6532 10.6655
" />
<path d="M34.6532 10.6655
L34.7137 10.7865
" />
<path d="M34.7137 10.7865
L34.8347 10.8469
" />
<path d="M34.8347 10.8469
L35.0161 10.8469
" />
<path d="M35.0161 10.8469
L35.1370 10.7865
" />
<path d="M35.1370 10.7865
L35.1975 10.7260
" />
<path d="M35.8022 10.8469
L35.8022 10.0003
" />
<path d="M35.8022 10.1212
L35.8627 10.0607
" />
<path d="M35.8627 10.0607
L35.9837 10.0003
" />
<path d="M35.9837 10.0003
L36.1651 10.0003
" />
<path d="M36.1651 10.0003
L36.2860 10.0607
" />
<path d="M36.2860 10.0607
L36.3465 10.1817
" />
<path d="M36.3465 10.1817
L36.3465 10.8469
" />
<path d="M36.3465 10.1817
L36.4070 10.0607
" />
<path d="M36.4070 10.0607
L36.5279 10.0003
" />
<path d="M36.5279 10.0003
L36.7094 10.0003
" />
<path d="M36.7094 10.0003
L36.8303 10.0607
" />
<path d="M36.8303 10.0607
L36.8908 10.1817
" />
<path d="M36.8908 10.1817
L36.8908 10.8469
" />
<path d="M37.9793 10.7865
L37.8584 10.8469
" />
<path d="M37.8584 10.8469
L37.6165 10.8469
" />
<path d="M37.6165 10.8469
L37.4955 10.7865
" />
<path d="M37.4955 10.7865
L37.4351 10.6655
" />
<path d="M37.4351 10.6655
L37.4351 10.1817
" />
<path d="M37.4351 10.1817
L37.4955 10.0607
" />
<path d="M37.4955 10.0607
L37.6165 10.0003
" />
<path d="M37.6165 10.0003
L37.8584 10.0003
" />
<path d="M37.8584 10.0003
L37.9793 10.0607
" />
<path d="M37.9793 10.0607
L38.0398 10.1817
" />
<path d="M38.0398 10.1817
L38.0398 10.3026
" />
<path d="M38.0398 10.3026
L37.4351 10.4236
" />
<path d="M38.5841 10.0003
L38.5841 10.8469
" />
<path d="M38.5841 10.1212
L38.6446 10.0607
" />
<path d="M38.6446 10.0607
L38.7656 10.0003
" />
<path d="M38.7656 10.0003
L38.9470 10.0003
" />
<path d="M38.9470 10.0003
L39.0679 10.0607
" />
<path d="M39.0679 10.0607
L39.1284 10.1817
" />
<path d="M39.1284 10.1817
L39.1284 10.8469
" />
<path d="M39.5517 10.0003
L40.0355 10.0003
" />
<path d="M39.7331 9.5769
L39.7331 10.6655
" />
<path d="M39.7331 10.6655
L39.7936 10.7865
" />
<path d="M39.7936 10.7865
L39.9146 10.8469
" />
<path d="M39.9146 10.8469
L40.0355 10.8469
" />
<path d="M41.3660 9.5165
L40.2774 11.1493
" />
<path d="M42.3336 10.7865
L42.2127 10.8469
" />
<path d="M42.2127 10.8469
L41.9708 10.8469
" />
<path d="M41.9708 10.8469
L41.8498 10.7865
" />
<path d="M41.8498 10.7865
L41.7893 10.7260
" />
<path d="M41.7893 10.7260
L41.7289 10.6050
" />
<path d="M41.7289 10.6050
L41.7289 10.2422
" />
<path d="M41.7289 10.2422
L41.7893 10.1212
" />
<path d="M41.7893 10.1212
L41.8498 10.0607
" />
<path d="M41.8498 10.0607
L41.9708 10.0003
" />
<path d="M41.9708 10.0003
L42.2127 10.0003
" />
<path d="M42.2127 10.0003
L42.3336 10.0607
" />
<path d="M43.3617 10.7865
L43.2408 10.8469
" />
<path d="M43.2408 10.8469
L42.9989 10.8469
" />
<path d="M42.9989 10.8469
L42.8779 10.7865
" />
<path d="M42.8779 10.7865
L42.8175 10.6655
" />
<path d="M42.8175 10.6655
L42.8175 10.1817
" />
<path d="M42.8175 10.1817
L42.8779 10.0607
" />
<path d="M42.8779 10.0607
L42.9989 10.0003
" />
<path d="M42.9989 10.0003
L43.2408 10.0003
" />
<path d="M43.2408 10.0003
L43.3617 10.0607
" />
<path d="M43.3617 10.0607
L43.4222 10.1817
" />
<path d="M43.4222 10.1817
L43.4222 10.3026
" />
<path d="M43.4222 10.3026
L42.8175 10.4236
" />
<path d="M44.5108 10.8469
L44.5108 9.5769
" />
<path d="M44.5108 10.7865
L44.3899 10.8469
" />
<path d="M44.3899 10.8469
L44.1480 10.8469
" />
<path d="M44.1480 10.8469
L44.0270 10.7865
" />
<path d="M44.0270 10.7865
L43.9665 10.7260
" />
<path d="M43.9665 10.7260
L43.9061 10.6050
" />
<path d="M43.9061 10.6050
L43.9061 10.2422
" />
<path d="M43.9061 10.2422
L43.9665 10.1212
" />
<path d="M43.9665 10.1212
L44.0270 10.0607
" />
<path d="M44.0270 10.0607
L44.1480 10.0003
" />
<path d="M44.1480 10.0003
L44.3899 10.0003
" />
<path d="M44.3899 10.0003
L44.5108 10.0607
" />
<path d="M44.9946 9.5769
L45.7808 9.5769
" />
<path d="M45.7808 9.5769
L45.3574 10.0607
" />
<path d="M45.3574 10.0607
L45.5389 10.0607
" />
<path d="M45.5389 10.0607
L45.6598 10.1212
" />
<path d="M45.6598 10.1212
L45.7203 10.1817
" />
<path d="M45.7203 10.1817
L45.7808 10.3026
" />
<path d="M45.7808 10.3026
L45.7808 10.6050
" />
<path d="M45.7808 10.6050
L45.7203 10.7260
" />
<path d="M45.7203 10.7260
L45.6598 10.7865
" />
<path d="M45.6598 10.7865
L45.5389 10.8469
" />
<path d="M45.5389 10.8469
L45.1760 10.8469
" />
<path d="M45.1760 10.8469
L45.0551 10.7865
" />
<path d="M45.0551 10.7865
L44.9946 10.7260
" />
<path d="M46.8693 10.0003
L46.8693 10.8469
" />
<path d="M46.5669 9.5165
L46.2646 10.4236
" />
<path d="M46.2646 10.4236
L47.0507 10.4236
" />
<path d="M48.0788 9.5769
L47.8369 9.5769
" />
<path d="M47.8369 9.5769
L47.7160 9.6374
" />
<path d="M47.7160 9.6374
L47.6555 9.6979
" />
<path d="M47.6555 9.6979
L47.5345 9.8793
" />
<path d="M47.5345 9.8793
L47.4741 10.1212
" />
<path d="M47.4741 10.1212
L47.4741 10.6050
" />
<path d="M47.4741 10.6050
L47.5345 10.7260
" />
<path d="M47.5345 10.7260
L47.5950 10.7865
" />
<path d="M47.5950 10.7865
L47.7160 10.8469
" />
<path d="M47.7160 10.8469
L47.9579 10.8469
" />
<path d="M47.9579 10.8469
L48.0788 10.7865
" />
<path d="M48.0788 10.7865
L48.1393 10.7260
" />
<path d="M48.1393 10.7260
L48.1998 10.6050
" />
<path d="M48.1998 10.6050
L48.1998 10.3026
" />
<path d="M48.1998 10.3026
L48.1393 10.1817
" />
<path d="M48.1393 10.1817
L48.0788 10.1212
" />
<path d="M48.0788 10.1212
L47.9579 10.0607
" />
<path d="M47.9579 10.0607
L47.7160 10.0607
" />
<path d="M47.7160 10.0607
L47.5950 10.1212
" />
<path d="M47.5950 10.1212
L47.5345 10.1817
" />
<path d="M47.5345 10.1817
L47.4741 10.3026
" />
<path d="M49.4093 10.8469
L48.6836 10.8469
" />
<path d="M49.0464 10.8469
L49.0464 9.5769
" />
<path d="M49.0464 9.5769
L48.9255 9.7584
" />
<path d="M48.9255 9.7584
L48.8045 9.8793
" />
<path d="M48.8045 9.8793
L48.6836 9.9398
" />
<path d="M50.4373 10.7865
L50.3164 10.8469
" />
<path d="M50.3164 10.8469
L50.0745 10.8469
" />
<path d="M50.0745 10.8469
L49.9535 10.7865
" />
<path d="M49.9535 10.7865
L49.8931 10.6655
" />
<path d="M49.8931 10.6655
L49.8931 10.1817
" />
<path d="M49.8931 10.1817
L49.9535 10.0607
" />
<path d="M49.9535 10.0607
L50.0745 10.0003
" />
<path d="M50.0745 10.0003
L50.3164 10.0003
" />
<path d="M50.3164 10.0003
L50.4373 10.0607
" />
<path d="M50.4373 10.0607
L50.4978 10.1817
" />
<path d="M50.4978 10.1817
L50.4978 10.3026
" />
<path d="M50.4978 10.3026
L49.8931 10.4236
" />
<path d="M51.5864 10.8469
L51.5864 9.5769
" />
<path d="M51.5864 10.7865
L51.4655 10.8469
" />
<path d="M51.4655 10.8469
L51.2236 10.8469
" />
<path d="M51.2236 10.8469
L51.1026 10.7865
" />
<path d="M51.1026 10.7865
L51.0421 10.7260
" />
<path d="M51.0421 10.7260
L50.9817 10.6050
" />
<path d="M50.9817 10.6050
L50.9817 10.2422
" />
<path d="M50.9817 10.2422
L51.0421 10.1212
" />
<path d="M51.0421 10.1212
L51.1026 10.0607
" />
<path d="M51.1026 10.0607
L51.2236 10.0003
" />
<path d="M51.2236 10.0003
L51.4655 10.0003
" />
<path d="M51.4655 10.0003
L51.5864 10.0607
" />
<path d="M52.0702 9.5769
L52.8564 9.5769
" />
<path d="M52.8564 9.5769
L52.4330 10.0607
" />
<path d="M52.4330 10.0607
L52.6145 10.0607
" />
<path d="M52.6145 10.0607
L52.7354 10.1212
" />
<path d="M52.7354 10.1212
L52.7959 10.1817
" />
<path d="M52.7959 10.1817
L52.8564 10.3026
" />
<path d="M52.8564 10.3026
L52.8564 10.6050
" />
<path d="M52.8564 10.6050
L52.7959 10.7260
" />
<path d="M52.7959 10.7260
L52.7354 10.7865
" />
<path d="M52.7354 10.7865
L52.6145 10.8469
" />
<path d="M52.6145 10.8469
L52.2516 10.8469
" />
<path d="M52.2516 10.8469
L52.1307 10.7865
" />
<path d="M52.1307 10.7865
L52.0702 10.7260
" />
<path d="M54.0659 10.8469
L53.3402 10.8469
" />
<path d="M53.7030 10.8469
L53.7030 9.5769
" />
<path d="M53.7030 9.5769
L53.5821 9.7584
" />
<path d="M53.5821 9.7584
L53.4611 9.8793
" />
<path d="M53.4611 9.8793
L53.3402 9.9398
" />
<path d="M55.0939 10.7865
L54.9730 10.8469
" />
<path d="M54.9730 10.8469
L54.7311 10.8469
" />
<path d="M54.7311 10.8469
L54.6101 10.7865
" />
<path d="M54.6101 10.7865
L54.5497 10.6655
" />
<path d="M54.5497 10.6655
L54.5497 10.1817
" />
<path d="M54.5497 10.1817
L54.6101 10.0607
" />
<path d="M54.6101 10.0607
L54.7311 10.0003
" />
<path d="M54.7311 10.0003
L54.9730 10.0003
" />
<path d="M54.9730 10.0003
L55.0939 10.0607
" />
<path d="M55.0939 10.0607
L55.1544 10.1817
" />
<path d="M55.1544 10.1817
L55.1544 10.3026
" />
<path d="M55.1544 10.3026
L54.5497 10.4236
" />
<path d="M56.2430 10.8469
L56.2430 10.1817
" />
<path d="M56.2430 10.1817
L56.1825 10.0607
" />
<path d="M56.1825 10.0607
L56.0616 10.0003
" />
<path d="M56.0616 10.0003
L55.8197 10.0003
" />
<path d="M55.8197 10.0003
L55.6987 10.0607
" />
<path d="M56.2430 10.7865
L56.1221 10.8469
" />
<path d="M56.1221 10.8469
L55.8197 10.8469
" />
<path d="M55.8197 10.8469
L55.6987 10.7865
" />
<path d="M55.6987 10.7865
L55.6383 10.6655
" />
<path d="M55.6383 10.6655
L55.6383 10.5445
" />
<path d="M55.6383 10.5445
L55.6987 10.4236
" />
<path d="M55.6987 10.4236
L55.8197 10.3631
" />
<path d="M55.8197 10.3631
L56.1221 10.3631
" />
<path d="M56.1221 10.3631
L56.2430 10.3026
" />
<path d="M56.7268 9.5769
L57.5734 9.5769
" />
<path d="M57.5734 9.5769
L57.0292 10.8469
" />
<path d="M58.2991 9.5769
L58.4201 9.5769
" />
<path d="M58.4201 9.5769
L58.5410 9.6374
" />
<path d="M58.5410 9.6374
L58.6015 9.6979
" />
<path d="M58.6015 9.6979
L58.6620 9.8188
" />
<path d="M58.6620 9.8188
L58.7225 10.0607
" />
<path d="M58.7225 10.0607
L58.7225 10.3631
" />
<path d="M58.7225 10.3631
L58.6620 10.6050
" />
<path d="M58.6620 10.6050
L58.6015 10.7260
" />
<path d="M58.6015 10.7260
L58.5410 10.7865
" />
<path d="M58.5410 10.7865
L58.4201 10.8469
" />
<path d="M58.4201 10.8469
L58.2991 10.8469
" />
<path d="M58.2991 10.8469
L58.1782 10.7865
" />
<path d="M58.1782 10.7865
L58.1177 10.7260
" />
<path d="M58.1177 10.7260
L58.0572 10.6050
" />
<path d="M58.0572 10.6050
L57.9968 10.3631
" />
<path d="M57.9968 10.3631
L57.9968 10.0607
" />
<path d="M57.9968 10.0607
L58.0572 9.8188
" />
<path d="M58.0572 9.8188
L58.1177 9.6979
" />
<path d="M58.1177 9.6979
L58.1782 9.6374
" />
<path d="M58.1782 9.6374
L58.2991 9.5769
" />
<path d="M59.8110 10.8469
L59.8110 10.1817
" />
<path d="M59.8110 10.1817
L59.7505 10.0607
" />
<path d="M59.7505 10.0607
L59.6296 10.0003
" />
<path d="M59.6296 10.0003
L59.3877 10.0003
" />
<path d="M59.3877 10.0003
L59.2667 10.0607
" />
<path d="M59.8110 10.7865
L59.6901 10.8469
" />
<path d="M59.6901 10.8469
L59.3877 10.8469
" />
<path d="M59.3877 10.8469
L59.2667 10.7865
" />
<path d="M59.2667 10.7865
L59.2063 10.6655
" />
<path d="M59.2063 10.6655
L59.2063 10.5445
" />
<path d="M59.2063 10.5445
L59.2667 10.4236
" />
<path d="M59.2667 10.4236
L59.3877 10.3631
" />
<path d="M59.3877 10.3631
L59.6901 10.3631
" />
<path d="M59.6901 10.3631
L59.8110 10.3026
" />
<path d="M60.2948 9.5769
L61.0810 9.5769
" />
<path d="M61.0810 9.5769
L60.6576 10.0607
" />
<path d="M60.6576 10.0607
L60.8391 10.0607
" />
<path d="M60.8391 10.0607
L60.9600 10.1212
" />
<path d="M60.9600 10.1212
L61.0205 10.1817
" />
<path d="M61.0205 10.1817
L61.0810 10.3026
" />
<path d="M61.0810 10.3026
L61.0810 10.6050
" />
<path d="M61.0810 10.6050
L61.0205 10.7260
" />
<path d="M61.0205 10.7260
L60.9600 10.7865
" />
<path d="M60.9600 10.7865
L60.8391 10.8469
" />
<path d="M60.8391 10.8469
L60.4762 10.8469
" />
<path d="M60.4762 10.8469
L60.3553 10.7865
" />
<path d="M60.3553 10.7865
L60.2948 10.7260
" />
<path d="M62.1695 10.7865
L62.0486 10.8469
" />
<path d="M62.0486 10.8469
L61.8067 10.8469
" />
<path d="M61.8067 10.8469
L61.6857 10.7865
" />
<path d="M61.6857 10.7865
L61.6252 10.7260
" />
<path d="M61.6252 10.7260
L61.5648 10.6050
" />
<path d="M61.5648 10.6050
L61.5648 10.2422
" />
<path d="M61.5648 10.2422
L61.6252 10.1212
" />
<path d="M61.6252 10.1212
L61.6857 10.0607
" />
<path d="M61.6857 10.0607
L61.8067 10.0003
" />
<path d="M61.8067 10.0003
L62.0486 10.0003
" />
<path d="M62.0486 10.0003
L62.1695 10.0607
" />
<path d="M63.2581 10.0003
L63.2581 10.8469
" />
<path d="M62.9557 9.5165
L62.6534 10.4236
" />
<path d="M62.6534 10.4236
L63.4395 10.4236
" />
<path d="M64.5886 10.8469
L63.8629 10.8469
" />
<path d="M64.2257 10.8469
L64.2257 9.5769
" />
<path d="M64.2257 9.5769
L64.1048 9.7584
" />
<path d="M64.1048 9.7584
L63.9838 9.8793
" />
<path d="M63.9838 9.8793
L63.8629 9.9398
" />
<path d="M65.6771 9.5769
L65.4352 9.5769
" />
<path d="M65.4352 9.5769
L65.3143 9.6374
" />
<path d="M65.3143 9.6374
L65.2538 9.6979
" />
<path d="M65.2538 9.6979
L65.1328 9.8793
" />
<path d="M65.1328 9.8793
L65.0724 10.1212
" />
<path d="M65.0724 10.1212
L65.0724 10.6050
" />
<path d="M65.0724 10.6050
L65.1328 10.7260
" />
<path d="M65.1328 10.7260
L65.1933 10.7865
" />
<path d="M65.1933 10.7865
L65.3143 10.8469
" />
<path d="M65.3143 10.8469
L65.5562 10.8469
" />
<path d="M65.5562 10.8469
L65.6771 10.7865
" />
<path d="M65.6771 10.7865
L65.7376 10.7260
" />
<path d="M65.7376 10.7260
L65.7981 10.6050
" />
<path d="M65.7981 10.6050
L65.7981 10.3026
" />
<path d="M65.7981 10.3026
L65.7376 10.1817
" />
<path d="M65.7376 10.1817
L65.6771 10.1212
" />
<path d="M65.6771 10.1212
L65.5562 10.0607
" />
<path d="M65.5562 10.0607
L65.3143 10.0607
" />
<path d="M65.3143 10.0607
L65.1933 10.1212
" />
<path d="M65.1933 10.1212
L65.1328 10.1817
" />
<path d="M65.1328 10.1817
L65.0724 10.3026
" />
<path d="M66.1609 10.0003
L66.6447 10.0003
" />
<path d="M66.3423 10.8469
L66.3423 9.7584
" />
<path d="M66.3423 9.7584
L66.4028 9.6374
" />
<path d="M66.4028 9.6374
L66.5238 9.5769
" />
<path d="M66.5238 9.5769
L66.6447 9.5769
" />
<path d="M67.0680 10.8469
L67.0680 9.5769
" />
<path d="M67.0680 10.0607
L67.1890 10.0003
" />
<path d="M67.1890 10.0003
L67.4309 10.0003
" />
<path d="M67.4309 10.0003
L67.5518 10.0607
" />
<path d="M67.5518 10.0607
L67.6123 10.1212
" />
<path d="M67.6123 10.1212
L67.6728 10.2422
" />
<path d="M67.6728 10.2422
L67.6728 10.6050
" />
<path d="M67.6728 10.6050
L67.6123 10.7260
" />
<path d="M67.6123 10.7260
L67.5518 10.7865
" />
<path d="M67.5518 10.7865
L67.4309 10.8469
" />
<path d="M67.4309 10.8469
L67.1890 10.8469
" />
<path d="M67.1890 10.8469
L67.0680 10.7865
" />
<path d="M68.7613 9.5769
L68.5194 9.5769
" />
<path d="M68.5194 9.5769
L68.3985 9.6374
" />
<path d="M68.3985 9.6374
L68.3380 9.6979
" />
<path d="M68.3380 9.6979
L68.2170 9.8793
" />
<path d="M68.2170 9.8793
L68.1566 10.1212
" />
<path d="M68.1566 10.1212
L68.1566 10.6050
" />
<path d="M68.1566 10.6050
L68.2170 10.7260
" />
<path d="M68.2170 10.7260
L68.2775 10.7865
" />
<path d="M68.2775 10.7865
L68.3985 10.8469
" />
<path d="M68.3985 10.8469
L68.6404 10.8469
" />
<path d="M68.6404 10.8469
L68.7613 10.7865
" />
<path d="M68.7613 10.7865
L68.8218 10.7260
" />
<path d="M68.8218 10.7260
L68.8823 10.6050
" />
<path d="M68.8823 10.6050
L68.8823 10.3026
" />
<path d="M68.8823 10.3026
L68.8218 10.1817
" />
<path d="M68.8218 10.1817
L68.7613 10.1212
" />
<path d="M68.7613 10.1212
L68.6404 10.0607
" />
<path d="M68.6404 10.0607
L68.3985 10.0607
" />
<path d="M68.3985 10.0607
L68.2775 10.1212
" />
<path d="M68.2775 10.1212
L68.2170 10.1817
" />
<path d="M68.2170 10.1817
L68.1566 10.3026
" />
<path d="M69.9708 10.0003
L69.9708 10.8469
" />
<path d="M69.6684 9.5165
L69.3661 10.4236
" />
<path d="M69.3661 10.4236
L70.1522 10.4236
" />
<path d="M70.8175 10.1212
L70.6965 10.0607
" />
<path d="M70.6965 10.0607
L70.6360 10.0003
" />
<path d="M70.6360 10.0003
L70.5756 9.8793
" />
<path d="M70.5756 9.8793
L70.5756 9.8188
" />
<path d="M70.5756 9.8188
L70.6360 9.6979
" />
<path d="M70.6360 9.6979
L70.6965 9.6374
" />
<path d="M70.6965 9.6374
L70.8175 9.5769
" />
<path d="M70.8175 9.5769
L71.0594 9.5769
" />
<path d="M71.0594 9.5769
L71.1803 9.6374
" />
<path d="M71.1803 9.6374
L71.2408 9.6979
" />
<path d="M71.2408 9.6979
L71.3013 9.8188
" />
<path d="M71.3013 9.8188
L71.3013 9.8793
" />
<path d="M71.3013 9.8793
L71.2408 10.0003
" />
<path d="M71.2408 10.0003
L71.1803 10.0607
" />
<path d="M71.1803 10.0607
L71.0594 10.1212
" />
<path d="M71.0594 10.1212
L70.8175 10.1212
" />
<path d="M70.8175 10.1212
L70.6965 10.1817
" />
<path d="M70.6965 10.1817
L70.6360 10.2422
" />
<path d="M70.6360 10.2422
L70.5756 10.3631
" />
<path d="M70.5756 10.3631
L70.5756 10.6050
" />
<path d="M70.5756 10.6050
L70.6360 10.7260
" />
<path d="M70.6360 10.7260
L70.6965 10.7865
" />
<path d="M70.6965 10.7865
L70.8175 10.8469
" />
<path d="M70.8175 10.8469
L71.0594 10.8469
" />
<path d="M71.0594 10.8469
L71.1803 10.7865
" />
<path d="M71.1803 10.7865
L71.2408 10.7260
" />
<path d="M71.2408 10.7260
L71.3013 10.6050
" />
<path d="M71.3013 10.6050
L71.3013 10.3631
" />
<path d="M71.3013 10.3631
L71.2408 10.2422
" />
<path d="M71.2408 10.2422
L71.1803 10.1817
" />
<path d="M71.1803 10.1817
L71.0594 10.1212
" />
<path d="M72.3293 10.7865
L72.2084 10.8469
" />
<path d="M72.2084 10.8469
L71.9665 10.8469
" />
<path d="M71.9665 10.8469
L71.8455 10.7865
" />
<path d="M71.8455 10.7865
L71.7851 10.6655
" />
<path d="M71.7851 10.6655
L71.7851 10.1817
" />
<path d="M71.7851 10.1817
L71.8455 10.0607
" />
<path d="M71.8455 10.0607
L71.9665 10.0003
" />
<path d="M71.9665 10.0003
L72.2084 10.0003
" />
<path d="M72.2084 10.0003
L72.3293 10.0607
" />
<path d="M72.3293 10.0607
L72.3898 10.1817
" />
<path d="M72.3898 10.1817
L72.3898 10.3026
" />
<path d="M72.3898 10.3026
L71.7851 10.4236
" />
<path d="M73.1760 9.5769
L73.2970 9.5769
" />
<path d="M73.2970 9.5769
L73.4179 9.6374
" />
<path d="M73.4179 9.6374
L73.4784 9.6979
" />
<path d="M73.4784 9.6979
L73.5389 9.8188
" />
<path d="M73.5389 9.8188
L73.5994 10.0607
" />
<path d="M73.5994 10.0607
L73.5994 10.3631
" />
<path d="M73.5994 10.3631
L73.5389 10.6050
" />
<path d="M73.5389 10.6050
L73.4784 10.7260
" />
<path d="M73.4784 10.7260
L73.4179 10.7865
" />
<path d="M73.4179 10.7865
L73.2970 10.8469
" />
<path d="M73.2970 10.8469
L73.1760 10.8469
" />
<path d="M73.1760 10.8469
L73.0551 10.7865
" />
<path d="M73.0551 10.7865
L72.9946 10.7260
" />
<path d="M72.9946 10.7260
L72.9341 10.6050
" />
<path d="M72.9341 10.6050
L72.8737 10.3631
" />
<path d="M72.8737 10.3631
L72.8737 10.0607
" />
<path d="M72.8737 10.0607
L72.9341 9.8188
" />
<path d="M72.9341 9.8188
L72.9946 9.6979
" />
<path d="M72.9946 9.6979
L73.0551 9.6374
" />
<path d="M73.0551 9.6374
L73.1760 9.5769
" />
<path d="M74.6879 10.7865
L74.5670 10.8469
" />
<path d="M74.5670 10.8469
L74.3251 10.8469
" />
<path d="M74.3251 10.8469
L74.2041 10.7865
" />
<path d="M74.2041 10.7865
L74.1436 10.7260
" />
<path d="M74.1436 10.7260
L74.0832 10.6050
" />
<path d="M74.0832 10.6050
L74.0832 10.2422
" />
<path d="M74.0832 10.2422
L74.1436 10.1212
" />
<path d="M74.1436 10.1212
L74.2041 10.0607
" />
<path d="M74.2041 10.0607
L74.3251 10.0003
" />
<path d="M74.3251 10.0003
L74.5670 10.0003
" />
<path d="M74.5670 10.0003
L74.6879 10.0607
" />
<path d="M75.7765 10.8469
L75.7765 9.5769
" />
<path d="M75.7765 10.7865
L75.6556 10.8469
" />
<path d="M75.6556 10.8469
L75.4137 10.8469
" />
<path d="M75.4137 10.8469
L75.2927 10.7865
" />
<path d="M75.2927 10.7865
L75.2322 10.7260
" />
<path d="M75.2322 10.7260
L75.1718 10.6050
" />
<path d="M75.1718 10.6050
L75.1718 10.2422
" />
<path d="M75.1718 10.2422
L75.2322 10.1212
" />
<path d="M75.2322 10.1212
L75.2927 10.0607
" />
<path d="M75.2927 10.0607
L75.4137 10.0003
" />
<path d="M75.4137 10.0003
L75.6556 10.0003
" />
<path d="M75.6556 10.0003
L75.7765 10.0607
" />
<path d="M76.8650 10.7865
L76.7441 10.8469
" />
<path d="M76.7441 10.8469
L76.5022 10.8469
" />
<path d="M76.5022 10.8469
L76.3812 10.7865
" />
<path d="M76.3812 10.7865
L76.3208 10.6655
" />
<path d="M76.3208 10.6655
L76.3208 10.1817
" />
<path d="M76.3208 10.1817
L76.3812 10.0607
" />
<path d="M76.3812 10.0607
L76.5022 10.0003
" />
<path d="M76.5022 10.0003
L76.7441 10.0003
" />
<path d="M76.7441 10.0003
L76.8650 10.0607
" />
<path d="M76.8650 10.0607
L76.9255 10.1817
" />
<path d="M76.9255 10.1817
L76.9255 10.3026
" />
<path d="M76.9255 10.3026
L76.3208 10.4236
" />
<path d="M77.3489 9.5769
L78.1955 9.5769
" />
<path d="M78.1955 9.5769
L77.6513 10.8469
" />
<path d="M79.5865 9.5165
L78.4979 11.1493
" />
<path d="M79.9494 10.4841
L80.5541 10.4841
" />
<path d="M79.8284 10.8469
L80.2517 9.5769
" />
<path d="M80.2517 9.5769
L80.6751 10.8469
" />
<path d="M81.0984 10.8469
L81.0984 9.5769
" />
<path d="M81.0984 9.5769
L81.5822 9.5769
" />
<path d="M81.5822 9.5769
L81.7032 9.6374
" />
<path d="M81.7032 9.6374
L81.7637 9.6979
" />
<path d="M81.7637 9.6979
L81.8241 9.8188
" />
<path d="M81.8241 9.8188
L81.8241 10.0003
" />
<path d="M81.8241 10.0003
L81.7637 10.1212
" />
<path d="M81.7637 10.1212
L81.7032 10.1817
" />
<path d="M81.7032 10.1817
L81.5822 10.2422
" />
<path d="M81.5822 10.2422
L81.0984 10.2422
" />
<path d="M82.3684 10.1817
L82.7918 10.1817
" />
<path d="M82.9732 10.8469
L82.3684 10.8469
" />
<path d="M82.3684 10.8469
L82.3684 9.5769
" />
<path d="M82.3684 9.5769
L82.9732 9.5769
" />
<path d="M83.6989 10.1212
L83.5779 10.0607
" />
<path d="M83.5779 10.0607
L83.5174 10.0003
" />
<path d="M83.5174 10.0003
L83.4570 9.8793
" />
<path d="M83.4570 9.8793
L83.4570 9.8188
" />
<path d="M83.4570 9.8188
L83.5174 9.6979
" />
<path d="M83.5174 9.6979
L83.5779 9.6374
" />
<path d="M83.5779 9.6374
L83.6989 9.5769
" />
<path d="M83.6989 9.5769
L83.9408 9.5769
" />
<path d="M83.9408 9.5769
L84.0617 9.6374
" />
<path d="M84.0617 9.6374
L84.1222 9.6979
" />
<path d="M84.1222 9.6979
L84.1827 9.8188
" />
<path d="M84.1827 9.8188
L84.1827 9.8793
" />
<path d="M84.1827 9.8793
L84.1222 10.0003
" />
<path d="M84.1222 10.0003
L84.0617 10.0607
" />
<path d="M84.0617 10.0607
L83.9408 10.1212
" />
<path d="M83.9408 10.1212
L83.6989 10.1212
" />
<path d="M83.6989 10.1212
L83.5779 10.1817
" />
<path d="M83.5779 10.1817
L83.5174 10.2422
" />
<path d="M83.5174 10.2422
L83.4570 10.3631
" />
<path d="M83.4570 10.3631
L83.4570 10.6050
" />
<path d="M83.4570 10.6050
L83.5174 10.7260
" />
<path d="M83.5174 10.7260
L83.5779 10.7865
" />
<path d="M83.5779 10.7865
L83.6989 10.8469
" />
<path d="M83.6989 10.8469
L83.9408 10.8469
" />
<path d="M83.9408 10.8469
L84.0617 10.7865
" />
<path d="M84.0617 10.7865
L84.1222 10.7260
" />
<path d="M84.1222 10.7260
L84.1827 10.6050
" />
<path d="M84.1827 10.6050
L84.1827 10.3631
" />
<path d="M84.1827 10.3631
L84.1222 10.2422
" />
<path d="M84.1222 10.2422
L84.0617 10.1817
" />
<path d="M84.0617 10.1817
L83.9408 10.1212
" />
<path d="M84.9084 10.1212
L84.7874 10.0607
" />
<path d="M84.7874 10.0607
L84.7269 10.0003
" />
<path d="M84.7269 10.0003
L84.6665 9.8793
" />
<path d="M84.6665 9.8793
L84.6665 9.8188
" />
<path d="M84.6665 9.8188
L84.7269 9.6979
" />
<path d="M84.7269 9.6979
L84.7874 9.6374
" />
<path d="M84.7874 9.6374
L84.9084 9.5769
" />
<path d="M84.9084 9.5769
L85.1503 9.5769
" />
<path d="M85.1503 9.5769
L85.2712 9.6374
" />
<path d="M85.2712 9.6374
L85.3317 9.6979
" />
<path d="M85.3317 9.6979
L85.3922 9.8188
" />
<path d="M85.3922 9.8188
L85.3922 9.8793
" />
<path d="M85.3922 9.8793
L85.3317 10.0003
" />
<path d="M85.3317 10.0003
L85.2712 10.0607
" />
<path d="M85.2712 10.0607
L85.1503 10.1212
" />
<path d="M85.1503 10.1212
L84.9084 10.1212
" />
<path d="M84.9084 10.1212
L84.7874 10.1817
" />
<path d="M84.7874 10.1817
L84.7269 10.2422
" />
<path d="M84.7269 10.2422
L84.6665 10.3631
" />
<path d="M84.6665 10.3631
L84.6665 10.6050
" />
<path d="M84.6665 10.6050
L84.7269 10.7260
" />
<path d="M84.7269 10.7260
L84.7874 10.7865
" />
<path d="M84.7874 10.7865
L84.9084 10.8469
" />
<path d="M84.9084 10.8469
L85.1503 10.8469
" />
<path d="M85.1503 10.8469
L85.2712 10.7865
" />
<path d="M85.2712 10.7865
L85.3317 10.7260
" />
<path d="M85.3317 10.7260
L85.3922 10.6050
" />
<path d="M85.3922 10.6050
L85.3922 10.3631
" />
<path d="M85.3922 10.3631
L85.3317 10.2422
" />
<path d="M85.3317 10.2422
L85.2712 10.1817
" />
<path d="M85.2712 10.1817
L85.1503 10.1212
" />
<path d="M86.4807 9.5769
L86.2388 9.5769
" />
<path d="M86.2388 9.5769
L86.1179 9.6374
" />
<path d="M86.1179 9.6374
L86.0574 9.6979
" />
<path d="M86.0574 9.6979
L85.9364 9.8793
" />
<path d="M85.9364 9.8793
L85.8760 10.1212
" />
<path d="M85.8760 10.1212
L85.8760 10.6050
" />
<path d="M85.8760 10.6050
L85.9364 10.7260
" />
<path d="M85.9364 10.7260
L85.9969 10.7865
" />
<path d="M85.9969 10.7865
L86.1179 10.8469
" />
<path d="M86.1179 10.8469
L86.3598 10.8469
" />
<path d="M86.3598 10.8469
L86.4807 10.7865
" />
<path d="M86.4807 10.7865
L86.5412 10.7260
" />
<path d="M86.5412 10.7260
L86.6017 10.6050
" />
<path d="M86.6017 10.6050
L86.6017 10.3026
" />
<path d="M86.6017 10.3026
L86.5412 10.1817
" />
<path d="M86.5412 10.1817
L86.4807 10.1212
" />
<path d="M86.4807 10.1212
L86.3598 10.0607
" />
<path d="M86.3598 10.0607
L86.1179 10.0607
" />
<path d="M86.1179 10.0607
L85.9969 10.1212
" />
<path d="M85.9969 10.1212
L85.9364 10.1817
" />
<path d="M85.9364 10.1817
L85.8760 10.3026
" />
<path d="M87.7507 9.5769
L87.1459 9.5769
" />
<path d="M87.1459 9.5769
L87.0855 10.1817
" />
<path d="M87.0855 10.1817
L87.1459 10.1212
" />
<path d="M87.1459 10.1212
L87.2669 10.0607
" />
<path d="M87.2669 10.0607
L87.5693 10.0607
" />
<path d="M87.5693 10.0607
L87.6902 10.1212
" />
<path d="M87.6902 10.1212
L87.7507 10.1817
" />
<path d="M87.7507 10.1817
L87.8112 10.3026
" />
<path d="M87.8112 10.3026
L87.8112 10.6050
" />
<path d="M87.8112 10.6050
L87.7507 10.7260
" />
<path d="M87.7507 10.7260
L87.6902 10.7865
" />
<path d="M87.6902 10.7865
L87.5693 10.8469
" />
<path d="M87.5693 10.8469
L87.2669 10.8469
" />
<path d="M87.2669 10.8469
L87.1459 10.7865
" />
<path d="M87.1459 10.7865
L87.0855 10.7260
" />
<path d="M88.3554 10.3631
L89.3231 10.3631
" />
<path d="M89.8069 9.5769
L90.5931 9.5769
" />
<path d="M90.5931 9.5769
L90.1697 10.0607
" />
<path d="M90.1697 10.0607
L90.3512 10.0607
" />
<path d="M90.3512 10.0607
L90.4721 10.1212
" />
<path d="M90.4721 10.1212
L90.5326 10.1817
" />
<path d="M90.5326 10.1817
L90.5931 10.3026
" />
<path d="M90.5931 10.3026
L90.5931 10.6050
" />
<path d="M90.5931 10.6050
L90.5326 10.7260
" />
<path d="M90.5326 10.7260
L90.4721 10.7865
" />
<path d="M90.4721 10.7865
L90.3512 10.8469
" />
<path d="M90.3512 10.8469
L89.9883 10.8469
" />
<path d="M89.9883 10.8469
L89.8674 10.7865
" />
<path d="M89.8674 10.7865
L89.8069 10.7260
" />
<path d="M91.1373 10.7260
L91.1978 10.7865
" />
<path d="M91.1978 10.7865
L91.1373 10.8469
" />
<path d="M91.1373 10.8469
L91.0769 10.7865
" />
<path d="M91.0769 10.7865
L91.1373 10.7260
" />
<path d="M91.1373 10.7260
L91.1373 10.8469
" />
<path d="M91.7421 10.0003
L91.7421 11.2703
" />
<path d="M91.7421 10.0607
L91.8631 10.0003
" />
<path d="M91.8631 10.0003
L92.1050 10.0003
" />
<path d="M92.1050 10.0003
L92.2259 10.0607
" />
<path d="M92.2259 10.0607
L92.2864 10.1212
" />
<path d="M92.2864 10.1212
L92.3469 10.2422
" />
<path d="M92.3469 10.2422
L92.3469 10.6050
" />
<path d="M92.3469 10.6050
L92.2864 10.7260
" />
<path d="M92.2864 10.7260
L92.2259 10.7865
" />
<path d="M92.2259 10.7865
L92.1050 10.8469
" />
<path d="M92.1050 10.8469
L91.8631 10.8469
" />
<path d="M91.8631 10.8469
L91.7421 10.7865
" />
<path d="M93.4354 10.8469
L93.4354 9.5769
" />
<path d="M93.4354 10.7865
L93.3145 10.8469
" />
<path d="M93.3145 10.8469
L93.0726 10.8469
" />
<path d="M93.0726 10.8469
L92.9516 10.7865
" />
<path d="M92.9516 10.7865
L92.8911 10.7260
" />
<path d="M92.8911 10.7260
L92.8307 10.6050
" />
<path d="M92.8307 10.6050
L92.8307 10.2422
" />
<path d="M92.8307 10.2422
L92.8911 10.1212
" />
<path d="M92.8911 10.1212
L92.9516 10.0607
" />
<path d="M92.9516 10.0607
L93.0726 10.0003
" />
<path d="M93.0726 10.0003
L93.3145 10.0003
" />
<path d="M93.3145 10.0003
L93.4354 10.0607
" />
<path d="M93.8587 10.0003
L94.3425 10.0003
" />
<path d="M94.0401 10.8469
L94.0401 9.7584
" />
<path d="M94.0401 9.7584
L94.1006 9.6374
" />
<path d="M94.1006 9.6374
L94.2216 9.5769
" />
<path d="M94.2216 9.5769
L94.3425 9.5769
" />
</g></g> 
</svg>
