<?xml version="1.0" standalone="no"?>
 <!DOCTYPE svg PUBLIC "-//W3C//DTD SVG 1.1//EN" 
 "http://www.w3.org/Graphics/SVG/1.1/DTD/svg11.dtd"> 
<svg
  xmlns:svg="http://www.w3.org/2000/svg"
  xmlns="http://www.w3.org/2000/svg"
  xmlns:xlink="http://www.w3.org/1999/xlink"
  version="1.1"
  width="128.8288mm" height="214.2998mm" viewBox="0.0000 0.0000 128.8288 214.2998">
<title>SVG Image created as working.svg date 2023/08/26 23:07:16 </title>
  <desc>Image generated by Eeschema-SVG </desc>
<g style="fill:#000000; fill-opacity:1.0000;stroke:#000000; stroke-opacity:1.0000;
stroke-linecap:round; stroke-linejoin:round;"
 transform="translate(0 0) scale(1 1)">
</g>
<g style="fill:#840000; fill-opacity:0.0; 
stroke:#840000; stroke-width:0.0000; stroke-opacity:1; 
stroke-linecap:round; stroke-linejoin:round;">
</g>
<g style="fill:#840084; fill-opacity:0.0; 
stroke:#840084; stroke-width:0.0000; stroke-opacity:1; 
stroke-linecap:round; stroke-linejoin:round;">
</g>
<g style="fill:#840000; fill-opacity:0.0; 
stroke:#840000; stroke-width:0.0000; stroke-opacity:1; 
stroke-linecap:round; stroke-linejoin:round;">
</g>
<g style="fill:#840084; fill-opacity:0.0; 
stroke:#840084; stroke-width:0.0000; stroke-opacity:1; 
stroke-linecap:round; stroke-linejoin:round;">
</g>
<g style="fill:#006464; fill-opacity:0.0; 
stroke:#006464; stroke-width:0.0000; stroke-opacity:1; 
stroke-linecap:round; stroke-linejoin:round;">
</g>
<g style="fill:#006464; fill-opacity:0.0; 
stroke:#006464; stroke-width:0.1588; stroke-opacity:1; 
stroke-linecap:round; stroke-linejoin:round;">
<text x="66.1030" y="19.5139"
textLength="2.6415" font-size="1.6933" lengthAdjust="spacingAndGlyphs"
text-anchor="middle" opacity="0">U?</text>
<g class="stroked-text"><desc>U?</desc>
<path d="M65.1958 18.1881
L65.1958 19.2162
" />
<path d="M65.1958 19.2162
L65.2563 19.3372
" />
<path d="M65.2563 19.3372
L65.3168 19.3977
" />
<path d="M65.3168 19.3977
L65.4377 19.4581
" />
<path d="M65.4377 19.4581
L65.6796 19.4581
" />
<path d="M65.6796 19.4581
L65.8006 19.3977
" />
<path d="M65.8006 19.3977
L65.8611 19.3372
" />
<path d="M65.8611 19.3372
L65.9215 19.2162
" />
<path d="M65.9215 19.2162
L65.9215 18.1881
" />
<path d="M66.7078 19.3372
L66.7682 19.3977
" />
<path d="M66.7682 19.3977
L66.7078 19.4581
" />
<path d="M66.7078 19.4581
L66.6473 19.3977
" />
<path d="M66.6473 19.3977
L66.7078 19.3372
" />
<path d="M66.7078 19.3372
L66.7078 19.4581
" />
<path d="M66.4659 18.2486
L66.5868 18.1881
" />
<path d="M66.5868 18.1881
L66.8892 18.1881
" />
<path d="M66.8892 18.1881
L67.0101 18.2486
" />
<path d="M67.0101 18.2486
L67.0706 18.3696
" />
<path d="M67.0706 18.3696
L67.0706 18.4905
" />
<path d="M67.0706 18.4905
L67.0101 18.6115
" />
<path d="M67.0101 18.6115
L66.9497 18.6719
" />
<path d="M66.9497 18.6719
L66.8287 18.7324
" />
<path d="M66.8287 18.7324
L66.7682 18.7929
" />
<path d="M66.7682 18.7929
L66.7078 18.9138
" />
<path d="M66.7078 18.9138
L66.7078 18.9743
" />
</g><text x="110.4925" y="19.5139"
textLength="15.2204" font-size="1.6933" lengthAdjust="spacingAndGlyphs"
text-anchor="middle" opacity="0">STM32L4P5QGIx</text>
<g class="stroked-text"><desc>STM32L4P5QGIx</desc>
<path d="M103.2354 19.3977
L103.4168 19.4581
" />
<path d="M103.4168 19.4581
L103.7192 19.4581
" />
<path d="M103.7192 19.4581
L103.8401 19.3977
" />
<path d="M103.8401 19.3977
L103.9006 19.3372
" />
<path d="M103.9006 19.3372
L103.9611 19.2162
" />
<path d="M103.9611 19.2162
L103.9611 19.0953
" />
<path d="M103.9611 19.0953
L103.9006 18.9743
" />
<path d="M103.9006 18.9743
L103.8401 18.9138
" />
<path d="M103.8401 18.9138
L103.7192 18.8534
" />
<path d="M103.7192 18.8534
L103.4773 18.7929
" />
<path d="M103.4773 18.7929
L103.3563 18.7324
" />
<path d="M103.3563 18.7324
L103.2958 18.6719
" />
<path d="M103.2958 18.6719
L103.2354 18.5510
" />
<path d="M103.2354 18.5510
L103.2354 18.4300
" />
<path d="M103.2354 18.4300
L103.2958 18.3091
" />
<path d="M103.2958 18.3091
L103.3563 18.2486
" />
<path d="M103.3563 18.2486
L103.4773 18.1881
" />
<path d="M103.4773 18.1881
L103.7796 18.1881
" />
<path d="M103.7796 18.1881
L103.9611 18.2486
" />
<path d="M104.3239 18.1881
L105.0496 18.1881
" />
<path d="M104.6868 19.4581
L104.6868 18.1881
" />
<path d="M105.4729 19.4581
L105.4729 18.1881
" />
<path d="M105.4729 18.1881
L105.8963 19.0953
" />
<path d="M105.8963 19.0953
L106.3196 18.1881
" />
<path d="M106.3196 18.1881
L106.3196 19.4581
" />
<path d="M106.8034 18.1881
L107.5896 18.1881
" />
<path d="M107.5896 18.1881
L107.1662 18.6719
" />
<path d="M107.1662 18.6719
L107.3477 18.6719
" />
<path d="M107.3477 18.6719
L107.4686 18.7324
" />
<path d="M107.4686 18.7324
L107.5291 18.7929
" />
<path d="M107.5291 18.7929
L107.5896 18.9138
" />
<path d="M107.5896 18.9138
L107.5896 19.2162
" />
<path d="M107.5896 19.2162
L107.5291 19.3372
" />
<path d="M107.5291 19.3372
L107.4686 19.3977
" />
<path d="M107.4686 19.3977
L107.3477 19.4581
" />
<path d="M107.3477 19.4581
L106.9848 19.4581
" />
<path d="M106.9848 19.4581
L106.8639 19.3977
" />
<path d="M106.8639 19.3977
L106.8034 19.3372
" />
<path d="M108.0734 18.3091
L108.1338 18.2486
" />
<path d="M108.1338 18.2486
L108.2548 18.1881
" />
<path d="M108.2548 18.1881
L108.5572 18.1881
" />
<path d="M108.5572 18.1881
L108.6781 18.2486
" />
<path d="M108.6781 18.2486
L108.7386 18.3091
" />
<path d="M108.7386 18.3091
L108.7991 18.4300
" />
<path d="M108.7991 18.4300
L108.7991 18.5510
" />
<path d="M108.7991 18.5510
L108.7386 18.7324
" />
<path d="M108.7386 18.7324
L108.0129 19.4581
" />
<path d="M108.0129 19.4581
L108.7991 19.4581
" />
<path d="M109.9481 19.4581
L109.3433 19.4581
" />
<path d="M109.3433 19.4581
L109.3433 18.1881
" />
<path d="M110.9157 18.6115
L110.9157 19.4581
" />
<path d="M110.6133 18.1277
L110.3110 19.0348
" />
<path d="M110.3110 19.0348
L111.0971 19.0348
" />
<path d="M111.5809 19.4581
L111.5809 18.1881
" />
<path d="M111.5809 18.1881
L112.0647 18.1881
" />
<path d="M112.0647 18.1881
L112.1857 18.2486
" />
<path d="M112.1857 18.2486
L112.2462 18.3091
" />
<path d="M112.2462 18.3091
L112.3066 18.4300
" />
<path d="M112.3066 18.4300
L112.3066 18.6115
" />
<path d="M112.3066 18.6115
L112.2462 18.7324
" />
<path d="M112.2462 18.7324
L112.1857 18.7929
" />
<path d="M112.1857 18.7929
L112.0647 18.8534
" />
<path d="M112.0647 18.8534
L111.5809 18.8534
" />
<path d="M113.4557 18.1881
L112.8509 18.1881
" />
<path d="M112.8509 18.1881
L112.7905 18.7929
" />
<path d="M112.7905 18.7929
L112.8509 18.7324
" />
<path d="M112.8509 18.7324
L112.9719 18.6719
" />
<path d="M112.9719 18.6719
L113.2743 18.6719
" />
<path d="M113.2743 18.6719
L113.3952 18.7324
" />
<path d="M113.3952 18.7324
L113.4557 18.7929
" />
<path d="M113.4557 18.7929
L113.5162 18.9138
" />
<path d="M113.5162 18.9138
L113.5162 19.2162
" />
<path d="M113.5162 19.2162
L113.4557 19.3372
" />
<path d="M113.4557 19.3372
L113.3952 19.3977
" />
<path d="M113.3952 19.3977
L113.2743 19.4581
" />
<path d="M113.2743 19.4581
L112.9719 19.4581
" />
<path d="M112.9719 19.4581
L112.8509 19.3977
" />
<path d="M112.8509 19.3977
L112.7905 19.3372
" />
<path d="M114.9071 19.5791
L114.7861 19.5186
" />
<path d="M114.7861 19.5186
L114.6652 19.3977
" />
<path d="M114.6652 19.3977
L114.4838 19.2162
" />
<path d="M114.4838 19.2162
L114.3628 19.1557
" />
<path d="M114.3628 19.1557
L114.2419 19.1557
" />
<path d="M114.3023 19.4581
L114.1814 19.3977
" />
<path d="M114.1814 19.3977
L114.0604 19.2767
" />
<path d="M114.0604 19.2767
L114.0000 19.0348
" />
<path d="M114.0000 19.0348
L114.0000 18.6115
" />
<path d="M114.0000 18.6115
L114.0604 18.3696
" />
<path d="M114.0604 18.3696
L114.1814 18.2486
" />
<path d="M114.1814 18.2486
L114.3023 18.1881
" />
<path d="M114.3023 18.1881
L114.5442 18.1881
" />
<path d="M114.5442 18.1881
L114.6652 18.2486
" />
<path d="M114.6652 18.2486
L114.7861 18.3696
" />
<path d="M114.7861 18.3696
L114.8466 18.6115
" />
<path d="M114.8466 18.6115
L114.8466 19.0348
" />
<path d="M114.8466 19.0348
L114.7861 19.2767
" />
<path d="M114.7861 19.2767
L114.6652 19.3977
" />
<path d="M114.6652 19.3977
L114.5442 19.4581
" />
<path d="M114.5442 19.4581
L114.3023 19.4581
" />
<path d="M116.0562 18.2486
L115.9352 18.1881
" />
<path d="M115.9352 18.1881
L115.7538 18.1881
" />
<path d="M115.7538 18.1881
L115.5724 18.2486
" />
<path d="M115.5724 18.2486
L115.4514 18.3696
" />
<path d="M115.4514 18.3696
L115.3909 18.4905
" />
<path d="M115.3909 18.4905
L115.3305 18.7324
" />
<path d="M115.3305 18.7324
L115.3305 18.9138
" />
<path d="M115.3305 18.9138
L115.3909 19.1557
" />
<path d="M115.3909 19.1557
L115.4514 19.2767
" />
<path d="M115.4514 19.2767
L115.5724 19.3977
" />
<path d="M115.5724 19.3977
L115.7538 19.4581
" />
<path d="M115.7538 19.4581
L115.8747 19.4581
" />
<path d="M115.8747 19.4581
L116.0562 19.3977
" />
<path d="M116.0562 19.3977
L116.1166 19.3372
" />
<path d="M116.1166 19.3372
L116.1166 18.9138
" />
<path d="M116.1166 18.9138
L115.8747 18.9138
" />
<path d="M116.6609 19.4581
L116.6609 18.1881
" />
<path d="M117.1448 19.4581
L117.8100 18.6115
" />
<path d="M117.1448 18.6115
L117.8100 19.4581
" />
</g></g>
<g style="fill:#840084; fill-opacity:0.0; 
stroke:#840084; stroke-width:0.1588; stroke-opacity:1; 
stroke-linecap:round; stroke-linejoin:round;">
<text x="37.7594" y="196.0439"
textLength="54.0457" font-size="1.6933" lengthAdjust="spacingAndGlyphs"
text-anchor="middle" opacity="0">Package_BGA:UFBGA-132_7x7mm_Layout12x12_P0.5mm</text>
<g class="stroked-text"><desc>Package_BGA:UFBGA-132_7x7mm_Layout12x12_P0.5mm</desc>
<path d="M11.1501 195.9881
L11.1501 194.7181
" />
<path d="M11.1501 194.7181
L11.6339 194.7181
" />
<path d="M11.6339 194.7181
L11.7549 194.7786
" />
<path d="M11.7549 194.7786
L11.8154 194.8391
" />
<path d="M11.8154 194.8391
L11.8758 194.9600
" />
<path d="M11.8758 194.9600
L11.8758 195.1415
" />
<path d="M11.8758 195.1415
L11.8154 195.2624
" />
<path d="M11.8154 195.2624
L11.7549 195.3229
" />
<path d="M11.7549 195.3229
L11.6339 195.3834
" />
<path d="M11.6339 195.3834
L11.1501 195.3834
" />
<path d="M12.9644 195.9881
L12.9644 195.3229
" />
<path d="M12.9644 195.3229
L12.9039 195.2019
" />
<path d="M12.9039 195.2019
L12.7830 195.1415
" />
<path d="M12.7830 195.1415
L12.5411 195.1415
" />
<path d="M12.5411 195.1415
L12.4201 195.2019
" />
<path d="M12.9644 195.9277
L12.8435 195.9881
" />
<path d="M12.8435 195.9881
L12.5411 195.9881
" />
<path d="M12.5411 195.9881
L12.4201 195.9277
" />
<path d="M12.4201 195.9277
L12.3597 195.8067
" />
<path d="M12.3597 195.8067
L12.3597 195.6857
" />
<path d="M12.3597 195.6857
L12.4201 195.5648
" />
<path d="M12.4201 195.5648
L12.5411 195.5043
" />
<path d="M12.5411 195.5043
L12.8435 195.5043
" />
<path d="M12.8435 195.5043
L12.9644 195.4438
" />
<path d="M14.1134 195.9277
L13.9925 195.9881
" />
<path d="M13.9925 195.9881
L13.7506 195.9881
" />
<path d="M13.7506 195.9881
L13.6296 195.9277
" />
<path d="M13.6296 195.9277
L13.5691 195.8672
" />
<path d="M13.5691 195.8672
L13.5087 195.7462
" />
<path d="M13.5087 195.7462
L13.5087 195.3834
" />
<path d="M13.5087 195.3834
L13.5691 195.2624
" />
<path d="M13.5691 195.2624
L13.6296 195.2019
" />
<path d="M13.6296 195.2019
L13.7506 195.1415
" />
<path d="M13.7506 195.1415
L13.9925 195.1415
" />
<path d="M13.9925 195.1415
L14.1134 195.2019
" />
<path d="M14.6577 195.9881
L14.6577 194.7181
" />
<path d="M14.7787 195.5043
L15.1415 195.9881
" />
<path d="M15.1415 195.1415
L14.6577 195.6253
" />
<path d="M16.2301 195.9881
L16.2301 195.3229
" />
<path d="M16.2301 195.3229
L16.1696 195.2019
" />
<path d="M16.1696 195.2019
L16.0487 195.1415
" />
<path d="M16.0487 195.1415
L15.8068 195.1415
" />
<path d="M15.8068 195.1415
L15.6858 195.2019
" />
<path d="M16.2301 195.9277
L16.1092 195.9881
" />
<path d="M16.1092 195.9881
L15.8068 195.9881
" />
<path d="M15.8068 195.9881
L15.6858 195.9277
" />
<path d="M15.6858 195.9277
L15.6254 195.8067
" />
<path d="M15.6254 195.8067
L15.6254 195.6857
" />
<path d="M15.6254 195.6857
L15.6858 195.5648
" />
<path d="M15.6858 195.5648
L15.8068 195.5043
" />
<path d="M15.8068 195.5043
L16.1092 195.5043
" />
<path d="M16.1092 195.5043
L16.2301 195.4438
" />
<path d="M17.3791 195.1415
L17.3791 196.1696
" />
<path d="M17.3791 196.1696
L17.3186 196.2905
" />
<path d="M17.3186 196.2905
L17.2582 196.3510
" />
<path d="M17.2582 196.3510
L17.1372 196.4115
" />
<path d="M17.1372 196.4115
L16.9558 196.4115
" />
<path d="M16.9558 196.4115
L16.8348 196.3510
" />
<path d="M17.3791 195.9277
L17.2582 195.9881
" />
<path d="M17.2582 195.9881
L17.0163 195.9881
" />
<path d="M17.0163 195.9881
L16.8953 195.9277
" />
<path d="M16.8953 195.9277
L16.8348 195.8672
" />
<path d="M16.8348 195.8672
L16.7744 195.7462
" />
<path d="M16.7744 195.7462
L16.7744 195.3834
" />
<path d="M16.7744 195.3834
L16.8348 195.2624
" />
<path d="M16.8348 195.2624
L16.8953 195.2019
" />
<path d="M16.8953 195.2019
L17.0163 195.1415
" />
<path d="M17.0163 195.1415
L17.2582 195.1415
" />
<path d="M17.2582 195.1415
L17.3791 195.2019
" />
<path d="M18.4676 195.9277
L18.3467 195.9881
" />
<path d="M18.3467 195.9881
L18.1048 195.9881
" />
<path d="M18.1048 195.9881
L17.9838 195.9277
" />
<path d="M17.9838 195.9277
L17.9234 195.8067
" />
<path d="M17.9234 195.8067
L17.9234 195.3229
" />
<path d="M17.9234 195.3229
L17.9838 195.2019
" />
<path d="M17.9838 195.2019
L18.1048 195.1415
" />
<path d="M18.1048 195.1415
L18.3467 195.1415
" />
<path d="M18.3467 195.1415
L18.4676 195.2019
" />
<path d="M18.4676 195.2019
L18.5281 195.3229
" />
<path d="M18.5281 195.3229
L18.5281 195.4438
" />
<path d="M18.5281 195.4438
L17.9234 195.5648
" />
<path d="M18.7701 196.1091
L19.7377 196.1091
" />
<path d="M20.4634 195.3229
L20.6448 195.3834
" />
<path d="M20.6448 195.3834
L20.7053 195.4438
" />
<path d="M20.7053 195.4438
L20.7657 195.5648
" />
<path d="M20.7657 195.5648
L20.7657 195.7462
" />
<path d="M20.7657 195.7462
L20.7053 195.8672
" />
<path d="M20.7053 195.8672
L20.6448 195.9277
" />
<path d="M20.6448 195.9277
L20.5238 195.9881
" />
<path d="M20.5238 195.9881
L20.0400 195.9881
" />
<path d="M20.0400 195.9881
L20.0400 194.7181
" />
<path d="M20.0400 194.7181
L20.4634 194.7181
" />
<path d="M20.4634 194.7181
L20.5843 194.7786
" />
<path d="M20.5843 194.7786
L20.6448 194.8391
" />
<path d="M20.6448 194.8391
L20.7053 194.9600
" />
<path d="M20.7053 194.9600
L20.7053 195.0810
" />
<path d="M20.7053 195.0810
L20.6448 195.2019
" />
<path d="M20.6448 195.2019
L20.5843 195.2624
" />
<path d="M20.5843 195.2624
L20.4634 195.3229
" />
<path d="M20.4634 195.3229
L20.0400 195.3229
" />
<path d="M21.9753 194.7786
L21.8543 194.7181
" />
<path d="M21.8543 194.7181
L21.6729 194.7181
" />
<path d="M21.6729 194.7181
L21.4915 194.7786
" />
<path d="M21.4915 194.7786
L21.3705 194.8996
" />
<path d="M21.3705 194.8996
L21.3100 195.0205
" />
<path d="M21.3100 195.0205
L21.2496 195.2624
" />
<path d="M21.2496 195.2624
L21.2496 195.4438
" />
<path d="M21.2496 195.4438
L21.3100 195.6857
" />
<path d="M21.3100 195.6857
L21.3705 195.8067
" />
<path d="M21.3705 195.8067
L21.4915 195.9277
" />
<path d="M21.4915 195.9277
L21.6729 195.9881
" />
<path d="M21.6729 195.9881
L21.7938 195.9881
" />
<path d="M21.7938 195.9881
L21.9753 195.9277
" />
<path d="M21.9753 195.9277
L22.0357 195.8672
" />
<path d="M22.0357 195.8672
L22.0357 195.4438
" />
<path d="M22.0357 195.4438
L21.7938 195.4438
" />
<path d="M22.5196 195.6253
L23.1243 195.6253
" />
<path d="M22.3986 195.9881
L22.8219 194.7181
" />
<path d="M22.8219 194.7181
L23.2453 195.9881
" />
<path d="M23.6686 195.8672
L23.7291 195.9277
" />
<path d="M23.7291 195.9277
L23.6686 195.9881
" />
<path d="M23.6686 195.9881
L23.6082 195.9277
" />
<path d="M23.6082 195.9277
L23.6686 195.8672
" />
<path d="M23.6686 195.8672
L23.6686 195.9881
" />
<path d="M23.6686 195.2019
L23.7291 195.2624
" />
<path d="M23.7291 195.2624
L23.6686 195.3229
" />
<path d="M23.6686 195.3229
L23.6082 195.2624
" />
<path d="M23.6082 195.2624
L23.6686 195.2019
" />
<path d="M23.6686 195.2019
L23.6686 195.3229
" />
<path d="M24.2734 194.7181
L24.2734 195.7462
" />
<path d="M24.2734 195.7462
L24.3339 195.8672
" />
<path d="M24.3339 195.8672
L24.3944 195.9277
" />
<path d="M24.3944 195.9277
L24.5153 195.9881
" />
<path d="M24.5153 195.9881
L24.7572 195.9881
" />
<path d="M24.7572 195.9881
L24.8782 195.9277
" />
<path d="M24.8782 195.9277
L24.9387 195.8672
" />
<path d="M24.9387 195.8672
L24.9991 195.7462
" />
<path d="M24.9991 195.7462
L24.9991 194.7181
" />
<path d="M26.0273 195.3229
L25.6039 195.3229
" />
<path d="M25.6039 195.9881
L25.6039 194.7181
" />
<path d="M25.6039 194.7181
L26.2087 194.7181
" />
<path d="M27.1159 195.3229
L27.2973 195.3834
" />
<path d="M27.2973 195.3834
L27.3578 195.4438
" />
<path d="M27.3578 195.4438
L27.4182 195.5648
" />
<path d="M27.4182 195.5648
L27.4182 195.7462
" />
<path d="M27.4182 195.7462
L27.3578 195.8672
" />
<path d="M27.3578 195.8672
L27.2973 195.9277
" />
<path d="M27.2973 195.9277
L27.1763 195.9881
" />
<path d="M27.1763 195.9881
L26.6925 195.9881
" />
<path d="M26.6925 195.9881
L26.6925 194.7181
" />
<path d="M26.6925 194.7181
L27.1159 194.7181
" />
<path d="M27.1159 194.7181
L27.2368 194.7786
" />
<path d="M27.2368 194.7786
L27.2973 194.8391
" />
<path d="M27.2973 194.8391
L27.3578 194.9600
" />
<path d="M27.3578 194.9600
L27.3578 195.0810
" />
<path d="M27.3578 195.0810
L27.2973 195.2019
" />
<path d="M27.2973 195.2019
L27.2368 195.2624
" />
<path d="M27.2368 195.2624
L27.1159 195.3229
" />
<path d="M27.1159 195.3229
L26.6925 195.3229
" />
<path d="M28.6278 194.7786
L28.5068 194.7181
" />
<path d="M28.5068 194.7181
L28.3254 194.7181
" />
<path d="M28.3254 194.7181
L28.1440 194.7786
" />
<path d="M28.1440 194.7786
L28.0230 194.8996
" />
<path d="M28.0230 194.8996
L27.9625 195.0205
" />
<path d="M27.9625 195.0205
L27.9021 195.2624
" />
<path d="M27.9021 195.2624
L27.9021 195.4438
" />
<path d="M27.9021 195.4438
L27.9625 195.6857
" />
<path d="M27.9625 195.6857
L28.0230 195.8067
" />
<path d="M28.0230 195.8067
L28.1440 195.9277
" />
<path d="M28.1440 195.9277
L28.3254 195.9881
" />
<path d="M28.3254 195.9881
L28.4463 195.9881
" />
<path d="M28.4463 195.9881
L28.6278 195.9277
" />
<path d="M28.6278 195.9277
L28.6882 195.8672
" />
<path d="M28.6882 195.8672
L28.6882 195.4438
" />
<path d="M28.6882 195.4438
L28.4463 195.4438
" />
<path d="M29.1721 195.6253
L29.7768 195.6253
" />
<path d="M29.0511 195.9881
L29.4744 194.7181
" />
<path d="M29.4744 194.7181
L29.8978 195.9881
" />
<path d="M30.3211 195.5043
L31.2888 195.5043
" />
<path d="M32.5588 195.9881
L31.8331 195.9881
" />
<path d="M32.1959 195.9881
L32.1959 194.7181
" />
<path d="M32.1959 194.7181
L32.0750 194.8996
" />
<path d="M32.0750 194.8996
L31.9540 195.0205
" />
<path d="M31.9540 195.0205
L31.8331 195.0810
" />
<path d="M32.9821 194.7181
L33.7683 194.7181
" />
<path d="M33.7683 194.7181
L33.3449 195.2019
" />
<path d="M33.3449 195.2019
L33.5264 195.2019
" />
<path d="M33.5264 195.2019
L33.6473 195.2624
" />
<path d="M33.6473 195.2624
L33.7078 195.3229
" />
<path d="M33.7078 195.3229
L33.7683 195.4438
" />
<path d="M33.7683 195.4438
L33.7683 195.7462
" />
<path d="M33.7683 195.7462
L33.7078 195.8672
" />
<path d="M33.7078 195.8672
L33.6473 195.9277
" />
<path d="M33.6473 195.9277
L33.5264 195.9881
" />
<path d="M33.5264 195.9881
L33.1635 195.9881
" />
<path d="M33.1635 195.9881
L33.0426 195.9277
" />
<path d="M33.0426 195.9277
L32.9821 195.8672
" />
<path d="M34.2521 194.8391
L34.3125 194.7786
" />
<path d="M34.3125 194.7786
L34.4335 194.7181
" />
<path d="M34.4335 194.7181
L34.7359 194.7181
" />
<path d="M34.7359 194.7181
L34.8568 194.7786
" />
<path d="M34.8568 194.7786
L34.9173 194.8391
" />
<path d="M34.9173 194.8391
L34.9778 194.9600
" />
<path d="M34.9778 194.9600
L34.9778 195.0810
" />
<path d="M34.9778 195.0810
L34.9173 195.2624
" />
<path d="M34.9173 195.2624
L34.1916 195.9881
" />
<path d="M34.1916 195.9881
L34.9778 195.9881
" />
<path d="M35.2197 196.1091
L36.1873 196.1091
" />
<path d="M36.3687 194.7181
L37.2153 194.7181
" />
<path d="M37.2153 194.7181
L36.6711 195.9881
" />
<path d="M37.5782 195.9881
L38.2434 195.1415
" />
<path d="M37.5782 195.1415
L38.2434 195.9881
" />
<path d="M38.6063 194.7181
L39.4529 194.7181
" />
<path d="M39.4529 194.7181
L38.9087 195.9881
" />
<path d="M39.9367 195.9881
L39.9367 195.1415
" />
<path d="M39.9367 195.2624
L39.9972 195.2019
" />
<path d="M39.9972 195.2019
L40.1182 195.1415
" />
<path d="M40.1182 195.1415
L40.2996 195.1415
" />
<path d="M40.2996 195.1415
L40.4205 195.2019
" />
<path d="M40.4205 195.2019
L40.4810 195.3229
" />
<path d="M40.4810 195.3229
L40.4810 195.9881
" />
<path d="M40.4810 195.3229
L40.5415 195.2019
" />
<path d="M40.5415 195.2019
L40.6624 195.1415
" />
<path d="M40.6624 195.1415
L40.8439 195.1415
" />
<path d="M40.8439 195.1415
L40.9648 195.2019
" />
<path d="M40.9648 195.2019
L41.0253 195.3229
" />
<path d="M41.0253 195.3229
L41.0253 195.9881
" />
<path d="M41.6300 195.9881
L41.6300 195.1415
" />
<path d="M41.6300 195.2624
L41.6905 195.2019
" />
<path d="M41.6905 195.2019
L41.8115 195.1415
" />
<path d="M41.8115 195.1415
L41.9929 195.1415
" />
<path d="M41.9929 195.1415
L42.1138 195.2019
" />
<path d="M42.1138 195.2019
L42.1743 195.3229
" />
<path d="M42.1743 195.3229
L42.1743 195.9881
" />
<path d="M42.1743 195.3229
L42.2348 195.2019
" />
<path d="M42.2348 195.2019
L42.3557 195.1415
" />
<path d="M42.3557 195.1415
L42.5372 195.1415
" />
<path d="M42.5372 195.1415
L42.6581 195.2019
" />
<path d="M42.6581 195.2019
L42.7186 195.3229
" />
<path d="M42.7186 195.3229
L42.7186 195.9881
" />
<path d="M43.0210 196.1091
L43.9886 196.1091
" />
<path d="M44.8957 195.9881
L44.2909 195.9881
" />
<path d="M44.2909 195.9881
L44.2909 194.7181
" />
<path d="M45.8633 195.9881
L45.8633 195.3229
" />
<path d="M45.8633 195.3229
L45.8028 195.2019
" />
<path d="M45.8028 195.2019
L45.6819 195.1415
" />
<path d="M45.6819 195.1415
L45.4400 195.1415
" />
<path d="M45.4400 195.1415
L45.3190 195.2019
" />
<path d="M45.8633 195.9277
L45.7424 195.9881
" />
<path d="M45.7424 195.9881
L45.4400 195.9881
" />
<path d="M45.4400 195.9881
L45.3190 195.9277
" />
<path d="M45.3190 195.9277
L45.2586 195.8067
" />
<path d="M45.2586 195.8067
L45.2586 195.6857
" />
<path d="M45.2586 195.6857
L45.3190 195.5648
" />
<path d="M45.3190 195.5648
L45.4400 195.5043
" />
<path d="M45.4400 195.5043
L45.7424 195.5043
" />
<path d="M45.7424 195.5043
L45.8633 195.4438
" />
<path d="M46.3471 195.1415
L46.6495 195.9881
" />
<path d="M46.9518 195.1415
L46.6495 195.9881
" />
<path d="M46.6495 195.9881
L46.5285 196.2905
" />
<path d="M46.5285 196.2905
L46.4680 196.3510
" />
<path d="M46.4680 196.3510
L46.3471 196.4115
" />
<path d="M47.6171 195.9881
L47.4961 195.9277
" />
<path d="M47.4961 195.9277
L47.4356 195.8672
" />
<path d="M47.4356 195.8672
L47.3752 195.7462
" />
<path d="M47.3752 195.7462
L47.3752 195.3834
" />
<path d="M47.3752 195.3834
L47.4356 195.2624
" />
<path d="M47.4356 195.2624
L47.4961 195.2019
" />
<path d="M47.4961 195.2019
L47.6171 195.1415
" />
<path d="M47.6171 195.1415
L47.7985 195.1415
" />
<path d="M47.7985 195.1415
L47.9194 195.2019
" />
<path d="M47.9194 195.2019
L47.9799 195.2624
" />
<path d="M47.9799 195.2624
L48.0404 195.3834
" />
<path d="M48.0404 195.3834
L48.0404 195.7462
" />
<path d="M48.0404 195.7462
L47.9799 195.8672
" />
<path d="M47.9799 195.8672
L47.9194 195.9277
" />
<path d="M47.9194 195.9277
L47.7985 195.9881
" />
<path d="M47.7985 195.9881
L47.6171 195.9881
" />
<path d="M49.1289 195.1415
L49.1289 195.9881
" />
<path d="M48.5846 195.1415
L48.5846 195.8067
" />
<path d="M48.5846 195.8067
L48.6451 195.9277
" />
<path d="M48.6451 195.9277
L48.7661 195.9881
" />
<path d="M48.7661 195.9881
L48.9475 195.9881
" />
<path d="M48.9475 195.9881
L49.0684 195.9277
" />
<path d="M49.0684 195.9277
L49.1289 195.8672
" />
<path d="M49.5522 195.1415
L50.0360 195.1415
" />
<path d="M49.7336 194.7181
L49.7336 195.8067
" />
<path d="M49.7336 195.8067
L49.7941 195.9277
" />
<path d="M49.7941 195.9277
L49.9151 195.9881
" />
<path d="M49.9151 195.9881
L50.0360 195.9881
" />
<path d="M51.1246 195.9881
L50.3989 195.9881
" />
<path d="M50.7617 195.9881
L50.7617 194.7181
" />
<path d="M50.7617 194.7181
L50.6408 194.8996
" />
<path d="M50.6408 194.8996
L50.5198 195.0205
" />
<path d="M50.5198 195.0205
L50.3989 195.0810
" />
<path d="M51.6084 194.8391
L51.6688 194.7786
" />
<path d="M51.6688 194.7786
L51.7898 194.7181
" />
<path d="M51.7898 194.7181
L52.0922 194.7181
" />
<path d="M52.0922 194.7181
L52.2131 194.7786
" />
<path d="M52.2131 194.7786
L52.2736 194.8391
" />
<path d="M52.2736 194.8391
L52.3341 194.9600
" />
<path d="M52.3341 194.9600
L52.3341 195.0810
" />
<path d="M52.3341 195.0810
L52.2736 195.2624
" />
<path d="M52.2736 195.2624
L51.5479 195.9881
" />
<path d="M51.5479 195.9881
L52.3341 195.9881
" />
<path d="M52.7574 195.9881
L53.4226 195.1415
" />
<path d="M52.7574 195.1415
L53.4226 195.9881
" />
<path d="M54.5717 195.9881
L53.8460 195.9881
" />
<path d="M54.2088 195.9881
L54.2088 194.7181
" />
<path d="M54.2088 194.7181
L54.0879 194.8996
" />
<path d="M54.0879 194.8996
L53.9669 195.0205
" />
<path d="M53.9669 195.0205
L53.8460 195.0810
" />
<path d="M55.0555 194.8391
L55.1159 194.7786
" />
<path d="M55.1159 194.7786
L55.2369 194.7181
" />
<path d="M55.2369 194.7181
L55.5393 194.7181
" />
<path d="M55.5393 194.7181
L55.6602 194.7786
" />
<path d="M55.6602 194.7786
L55.7207 194.8391
" />
<path d="M55.7207 194.8391
L55.7812 194.9600
" />
<path d="M55.7812 194.9600
L55.7812 195.0810
" />
<path d="M55.7812 195.0810
L55.7207 195.2624
" />
<path d="M55.7207 195.2624
L54.9950 195.9881
" />
<path d="M54.9950 195.9881
L55.7812 195.9881
" />
<path d="M56.0231 196.1091
L56.9907 196.1091
" />
<path d="M57.2930 195.9881
L57.2930 194.7181
" />
<path d="M57.2930 194.7181
L57.7768 194.7181
" />
<path d="M57.7768 194.7181
L57.8978 194.7786
" />
<path d="M57.8978 194.7786
L57.9583 194.8391
" />
<path d="M57.9583 194.8391
L58.0187 194.9600
" />
<path d="M58.0187 194.9600
L58.0187 195.1415
" />
<path d="M58.0187 195.1415
L57.9583 195.2624
" />
<path d="M57.9583 195.2624
L57.8978 195.3229
" />
<path d="M57.8978 195.3229
L57.7768 195.3834
" />
<path d="M57.7768 195.3834
L57.2930 195.3834
" />
<path d="M58.8049 194.7181
L58.9259 194.7181
" />
<path d="M58.9259 194.7181
L59.0468 194.7786
" />
<path d="M59.0468 194.7786
L59.1073 194.8391
" />
<path d="M59.1073 194.8391
L59.1678 194.9600
" />
<path d="M59.1678 194.9600
L59.2283 195.2019
" />
<path d="M59.2283 195.2019
L59.2283 195.5043
" />
<path d="M59.2283 195.5043
L59.1678 195.7462
" />
<path d="M59.1678 195.7462
L59.1073 195.8672
" />
<path d="M59.1073 195.8672
L59.0468 195.9277
" />
<path d="M59.0468 195.9277
L58.9259 195.9881
" />
<path d="M58.9259 195.9881
L58.8049 195.9881
" />
<path d="M58.8049 195.9881
L58.6840 195.9277
" />
<path d="M58.6840 195.9277
L58.6235 195.8672
" />
<path d="M58.6235 195.8672
L58.5630 195.7462
" />
<path d="M58.5630 195.7462
L58.5026 195.5043
" />
<path d="M58.5026 195.5043
L58.5026 195.2019
" />
<path d="M58.5026 195.2019
L58.5630 194.9600
" />
<path d="M58.5630 194.9600
L58.6235 194.8391
" />
<path d="M58.6235 194.8391
L58.6840 194.7786
" />
<path d="M58.6840 194.7786
L58.8049 194.7181
" />
<path d="M59.7725 195.8672
L59.8330 195.9277
" />
<path d="M59.8330 195.9277
L59.7725 195.9881
" />
<path d="M59.7725 195.9881
L59.7121 195.9277
" />
<path d="M59.7121 195.9277
L59.7725 195.8672
" />
<path d="M59.7725 195.8672
L59.7725 195.9881
" />
<path d="M60.9821 194.7181
L60.3773 194.7181
" />
<path d="M60.3773 194.7181
L60.3169 195.3229
" />
<path d="M60.3169 195.3229
L60.3773 195.2624
" />
<path d="M60.3773 195.2624
L60.4983 195.2019
" />
<path d="M60.4983 195.2019
L60.8007 195.2019
" />
<path d="M60.8007 195.2019
L60.9216 195.2624
" />
<path d="M60.9216 195.2624
L60.9821 195.3229
" />
<path d="M60.9821 195.3229
L61.0426 195.4438
" />
<path d="M61.0426 195.4438
L61.0426 195.7462
" />
<path d="M61.0426 195.7462
L60.9821 195.8672
" />
<path d="M60.9821 195.8672
L60.9216 195.9277
" />
<path d="M60.9216 195.9277
L60.8007 195.9881
" />
<path d="M60.8007 195.9881
L60.4983 195.9881
" />
<path d="M60.4983 195.9881
L60.3773 195.9277
" />
<path d="M60.3773 195.9277
L60.3169 195.8672
" />
<path d="M61.5868 195.9881
L61.5868 195.1415
" />
<path d="M61.5868 195.2624
L61.6473 195.2019
" />
<path d="M61.6473 195.2019
L61.7683 195.1415
" />
<path d="M61.7683 195.1415
L61.9497 195.1415
" />
<path d="M61.9497 195.1415
L62.0706 195.2019
" />
<path d="M62.0706 195.2019
L62.1311 195.3229
" />
<path d="M62.1311 195.3229
L62.1311 195.9881
" />
<path d="M62.1311 195.3229
L62.1916 195.2019
" />
<path d="M62.1916 195.2019
L62.3125 195.1415
" />
<path d="M62.3125 195.1415
L62.4940 195.1415
" />
<path d="M62.4940 195.1415
L62.6149 195.2019
" />
<path d="M62.6149 195.2019
L62.6754 195.3229
" />
<path d="M62.6754 195.3229
L62.6754 195.9881
" />
<path d="M63.2801 195.9881
L63.2801 195.1415
" />
<path d="M63.2801 195.2624
L63.3406 195.2019
" />
<path d="M63.3406 195.2019
L63.4616 195.1415
" />
<path d="M63.4616 195.1415
L63.6430 195.1415
" />
<path d="M63.6430 195.1415
L63.7639 195.2019
" />
<path d="M63.7639 195.2019
L63.8244 195.3229
" />
<path d="M63.8244 195.3229
L63.8244 195.9881
" />
<path d="M63.8244 195.3229
L63.8849 195.2019
" />
<path d="M63.8849 195.2019
L64.0058 195.1415
" />
<path d="M64.0058 195.1415
L64.1873 195.1415
" />
<path d="M64.1873 195.1415
L64.3082 195.2019
" />
<path d="M64.3082 195.2019
L64.3687 195.3229
" />
<path d="M64.3687 195.3229
L64.3687 195.9881
" />
</g><text x="87.6423" y="109.6839"
textLength="60.1539" font-size="1.6933" lengthAdjust="spacingAndGlyphs"
text-anchor="middle" opacity="0">https://www.st.com/resource/en/datasheet/stm32l4p5qg.pdf</text>
<g class="stroked-text"><desc>https://www.st.com/resource/en/datasheet/stm32l4p5qg.pdf</desc>
<path d="M57.9789 109.6281
L57.9789 108.3581
" />
<path d="M58.5232 109.6281
L58.5232 108.9629
" />
<path d="M58.5232 108.9629
L58.4627 108.8419
" />
<path d="M58.4627 108.8419
L58.3418 108.7815
" />
<path d="M58.3418 108.7815
L58.1604 108.7815
" />
<path d="M58.1604 108.7815
L58.0394 108.8419
" />
<path d="M58.0394 108.8419
L57.9789 108.9024
" />
<path d="M58.9465 108.7815
L59.4303 108.7815
" />
<path d="M59.1279 108.3581
L59.1279 109.4467
" />
<path d="M59.1279 109.4467
L59.1884 109.5677
" />
<path d="M59.1884 109.5677
L59.3094 109.6281
" />
<path d="M59.3094 109.6281
L59.4303 109.6281
" />
<path d="M59.6722 108.7815
L60.1560 108.7815
" />
<path d="M59.8536 108.3581
L59.8536 109.4467
" />
<path d="M59.8536 109.4467
L59.9141 109.5677
" />
<path d="M59.9141 109.5677
L60.0351 109.6281
" />
<path d="M60.0351 109.6281
L60.1560 109.6281
" />
<path d="M60.5793 108.7815
L60.5793 110.0515
" />
<path d="M60.5793 108.8419
L60.7003 108.7815
" />
<path d="M60.7003 108.7815
L60.9422 108.7815
" />
<path d="M60.9422 108.7815
L61.0631 108.8419
" />
<path d="M61.0631 108.8419
L61.1236 108.9024
" />
<path d="M61.1236 108.9024
L61.1841 109.0234
" />
<path d="M61.1841 109.0234
L61.1841 109.3862
" />
<path d="M61.1841 109.3862
L61.1236 109.5072
" />
<path d="M61.1236 109.5072
L61.0631 109.5677
" />
<path d="M61.0631 109.5677
L60.9422 109.6281
" />
<path d="M60.9422 109.6281
L60.7003 109.6281
" />
<path d="M60.7003 109.6281
L60.5793 109.5677
" />
<path d="M61.6679 109.5677
L61.7888 109.6281
" />
<path d="M61.7888 109.6281
L62.0307 109.6281
" />
<path d="M62.0307 109.6281
L62.1517 109.5677
" />
<path d="M62.1517 109.5677
L62.2121 109.4467
" />
<path d="M62.2121 109.4467
L62.2121 109.3862
" />
<path d="M62.2121 109.3862
L62.1517 109.2653
" />
<path d="M62.1517 109.2653
L62.0307 109.2048
" />
<path d="M62.0307 109.2048
L61.8493 109.2048
" />
<path d="M61.8493 109.2048
L61.7283 109.1443
" />
<path d="M61.7283 109.1443
L61.6679 109.0234
" />
<path d="M61.6679 109.0234
L61.6679 108.9629
" />
<path d="M61.6679 108.9629
L61.7283 108.8419
" />
<path d="M61.7283 108.8419
L61.8493 108.7815
" />
<path d="M61.8493 108.7815
L62.0307 108.7815
" />
<path d="M62.0307 108.7815
L62.1517 108.8419
" />
<path d="M62.7564 109.5072
L62.8169 109.5677
" />
<path d="M62.8169 109.5677
L62.7564 109.6281
" />
<path d="M62.7564 109.6281
L62.6960 109.5677
" />
<path d="M62.6960 109.5677
L62.7564 109.5072
" />
<path d="M62.7564 109.5072
L62.7564 109.6281
" />
<path d="M62.7564 108.8419
L62.8169 108.9024
" />
<path d="M62.8169 108.9024
L62.7564 108.9629
" />
<path d="M62.7564 108.9629
L62.6960 108.9024
" />
<path d="M62.6960 108.9024
L62.7564 108.8419
" />
<path d="M62.7564 108.8419
L62.7564 108.9629
" />
<path d="M64.2684 108.2977
L63.1798 109.9305
" />
<path d="M65.5989 108.2977
L64.5103 109.9305
" />
<path d="M65.9013 108.7815
L66.1432 109.6281
" />
<path d="M66.1432 109.6281
L66.3851 109.0234
" />
<path d="M66.3851 109.0234
L66.6270 109.6281
" />
<path d="M66.6270 109.6281
L66.8689 108.7815
" />
<path d="M67.2318 108.7815
L67.4737 109.6281
" />
<path d="M67.4737 109.6281
L67.7156 109.0234
" />
<path d="M67.7156 109.0234
L67.9575 109.6281
" />
<path d="M67.9575 109.6281
L68.1994 108.7815
" />
<path d="M68.5623 108.7815
L68.8042 109.6281
" />
<path d="M68.8042 109.6281
L69.0461 109.0234
" />
<path d="M69.0461 109.0234
L69.2880 109.6281
" />
<path d="M69.2880 109.6281
L69.5299 108.7815
" />
<path d="M70.0137 109.5072
L70.0742 109.5677
" />
<path d="M70.0742 109.5677
L70.0137 109.6281
" />
<path d="M70.0137 109.6281
L69.9533 109.5677
" />
<path d="M69.9533 109.5677
L70.0137 109.5072
" />
<path d="M70.0137 109.5072
L70.0137 109.6281
" />
<path d="M70.5581 109.5677
L70.6790 109.6281
" />
<path d="M70.6790 109.6281
L70.9209 109.6281
" />
<path d="M70.9209 109.6281
L71.0419 109.5677
" />
<path d="M71.0419 109.5677
L71.1023 109.4467
" />
<path d="M71.1023 109.4467
L71.1023 109.3862
" />
<path d="M71.1023 109.3862
L71.0419 109.2653
" />
<path d="M71.0419 109.2653
L70.9209 109.2048
" />
<path d="M70.9209 109.2048
L70.7395 109.2048
" />
<path d="M70.7395 109.2048
L70.6185 109.1443
" />
<path d="M70.6185 109.1443
L70.5581 109.0234
" />
<path d="M70.5581 109.0234
L70.5581 108.9629
" />
<path d="M70.5581 108.9629
L70.6185 108.8419
" />
<path d="M70.6185 108.8419
L70.7395 108.7815
" />
<path d="M70.7395 108.7815
L70.9209 108.7815
" />
<path d="M70.9209 108.7815
L71.0419 108.8419
" />
<path d="M71.4652 108.7815
L71.9490 108.7815
" />
<path d="M71.6466 108.3581
L71.6466 109.4467
" />
<path d="M71.6466 109.4467
L71.7071 109.5677
" />
<path d="M71.7071 109.5677
L71.8281 109.6281
" />
<path d="M71.8281 109.6281
L71.9490 109.6281
" />
<path d="M72.3723 109.5072
L72.4328 109.5677
" />
<path d="M72.4328 109.5677
L72.3723 109.6281
" />
<path d="M72.3723 109.6281
L72.3119 109.5677
" />
<path d="M72.3119 109.5677
L72.3723 109.5072
" />
<path d="M72.3723 109.5072
L72.3723 109.6281
" />
<path d="M73.5214 109.5677
L73.4005 109.6281
" />
<path d="M73.4005 109.6281
L73.1586 109.6281
" />
<path d="M73.1586 109.6281
L73.0376 109.5677
" />
<path d="M73.0376 109.5677
L72.9771 109.5072
" />
<path d="M72.9771 109.5072
L72.9167 109.3862
" />
<path d="M72.9167 109.3862
L72.9167 109.0234
" />
<path d="M72.9167 109.0234
L72.9771 108.9024
" />
<path d="M72.9771 108.9024
L73.0376 108.8419
" />
<path d="M73.0376 108.8419
L73.1586 108.7815
" />
<path d="M73.1586 108.7815
L73.4005 108.7815
" />
<path d="M73.4005 108.7815
L73.5214 108.8419
" />
<path d="M74.2472 109.6281
L74.1262 109.5677
" />
<path d="M74.1262 109.5677
L74.0657 109.5072
" />
<path d="M74.0657 109.5072
L74.0053 109.3862
" />
<path d="M74.0053 109.3862
L74.0053 109.0234
" />
<path d="M74.0053 109.0234
L74.0657 108.9024
" />
<path d="M74.0657 108.9024
L74.1262 108.8419
" />
<path d="M74.1262 108.8419
L74.2472 108.7815
" />
<path d="M74.2472 108.7815
L74.4286 108.7815
" />
<path d="M74.4286 108.7815
L74.5495 108.8419
" />
<path d="M74.5495 108.8419
L74.6100 108.9024
" />
<path d="M74.6100 108.9024
L74.6705 109.0234
" />
<path d="M74.6705 109.0234
L74.6705 109.3862
" />
<path d="M74.6705 109.3862
L74.6100 109.5072
" />
<path d="M74.6100 109.5072
L74.5495 109.5677
" />
<path d="M74.5495 109.5677
L74.4286 109.6281
" />
<path d="M74.4286 109.6281
L74.2472 109.6281
" />
<path d="M75.2147 109.6281
L75.2147 108.7815
" />
<path d="M75.2147 108.9024
L75.2752 108.8419
" />
<path d="M75.2752 108.8419
L75.3962 108.7815
" />
<path d="M75.3962 108.7815
L75.5776 108.7815
" />
<path d="M75.5776 108.7815
L75.6985 108.8419
" />
<path d="M75.6985 108.8419
L75.7590 108.9629
" />
<path d="M75.7590 108.9629
L75.7590 109.6281
" />
<path d="M75.7590 108.9629
L75.8195 108.8419
" />
<path d="M75.8195 108.8419
L75.9404 108.7815
" />
<path d="M75.9404 108.7815
L76.1219 108.7815
" />
<path d="M76.1219 108.7815
L76.2428 108.8419
" />
<path d="M76.2428 108.8419
L76.3033 108.9629
" />
<path d="M76.3033 108.9629
L76.3033 109.6281
" />
<path d="M77.8152 108.2977
L76.7266 109.9305
" />
<path d="M78.2385 109.6281
L78.2385 108.7815
" />
<path d="M78.2385 109.0234
L78.2990 108.9024
" />
<path d="M78.2990 108.9024
L78.3595 108.8419
" />
<path d="M78.3595 108.8419
L78.4804 108.7815
" />
<path d="M78.4804 108.7815
L78.6014 108.7815
" />
<path d="M79.5085 109.5677
L79.3876 109.6281
" />
<path d="M79.3876 109.6281
L79.1457 109.6281
" />
<path d="M79.1457 109.6281
L79.0247 109.5677
" />
<path d="M79.0247 109.5677
L78.9643 109.4467
" />
<path d="M78.9643 109.4467
L78.9643 108.9629
" />
<path d="M78.9643 108.9629
L79.0247 108.8419
" />
<path d="M79.0247 108.8419
L79.1457 108.7815
" />
<path d="M79.1457 108.7815
L79.3876 108.7815
" />
<path d="M79.3876 108.7815
L79.5085 108.8419
" />
<path d="M79.5085 108.8419
L79.5690 108.9629
" />
<path d="M79.5690 108.9629
L79.5690 109.0838
" />
<path d="M79.5690 109.0838
L78.9643 109.2048
" />
<path d="M80.0529 109.5677
L80.1738 109.6281
" />
<path d="M80.1738 109.6281
L80.4157 109.6281
" />
<path d="M80.4157 109.6281
L80.5367 109.5677
" />
<path d="M80.5367 109.5677
L80.5971 109.4467
" />
<path d="M80.5971 109.4467
L80.5971 109.3862
" />
<path d="M80.5971 109.3862
L80.5367 109.2653
" />
<path d="M80.5367 109.2653
L80.4157 109.2048
" />
<path d="M80.4157 109.2048
L80.2343 109.2048
" />
<path d="M80.2343 109.2048
L80.1133 109.1443
" />
<path d="M80.1133 109.1443
L80.0529 109.0234
" />
<path d="M80.0529 109.0234
L80.0529 108.9629
" />
<path d="M80.0529 108.9629
L80.1133 108.8419
" />
<path d="M80.1133 108.8419
L80.2343 108.7815
" />
<path d="M80.2343 108.7815
L80.4157 108.7815
" />
<path d="M80.4157 108.7815
L80.5367 108.8419
" />
<path d="M81.3229 109.6281
L81.2019 109.5677
" />
<path d="M81.2019 109.5677
L81.1414 109.5072
" />
<path d="M81.1414 109.5072
L81.0810 109.3862
" />
<path d="M81.0810 109.3862
L81.0810 109.0234
" />
<path d="M81.0810 109.0234
L81.1414 108.9024
" />
<path d="M81.1414 108.9024
L81.2019 108.8419
" />
<path d="M81.2019 108.8419
L81.3229 108.7815
" />
<path d="M81.3229 108.7815
L81.5043 108.7815
" />
<path d="M81.5043 108.7815
L81.6252 108.8419
" />
<path d="M81.6252 108.8419
L81.6857 108.9024
" />
<path d="M81.6857 108.9024
L81.7462 109.0234
" />
<path d="M81.7462 109.0234
L81.7462 109.3862
" />
<path d="M81.7462 109.3862
L81.6857 109.5072
" />
<path d="M81.6857 109.5072
L81.6252 109.5677
" />
<path d="M81.6252 109.5677
L81.5043 109.6281
" />
<path d="M81.5043 109.6281
L81.3229 109.6281
" />
<path d="M82.8347 108.7815
L82.8347 109.6281
" />
<path d="M82.2904 108.7815
L82.2904 109.4467
" />
<path d="M82.2904 109.4467
L82.3509 109.5677
" />
<path d="M82.3509 109.5677
L82.4719 109.6281
" />
<path d="M82.4719 109.6281
L82.6533 109.6281
" />
<path d="M82.6533 109.6281
L82.7742 109.5677
" />
<path d="M82.7742 109.5677
L82.8347 109.5072
" />
<path d="M83.4394 109.6281
L83.4394 108.7815
" />
<path d="M83.4394 109.0234
L83.4999 108.9024
" />
<path d="M83.4999 108.9024
L83.5604 108.8419
" />
<path d="M83.5604 108.8419
L83.6813 108.7815
" />
<path d="M83.6813 108.7815
L83.8023 108.7815
" />
<path d="M84.7699 109.5677
L84.6490 109.6281
" />
<path d="M84.6490 109.6281
L84.4071 109.6281
" />
<path d="M84.4071 109.6281
L84.2861 109.5677
" />
<path d="M84.2861 109.5677
L84.2256 109.5072
" />
<path d="M84.2256 109.5072
L84.1652 109.3862
" />
<path d="M84.1652 109.3862
L84.1652 109.0234
" />
<path d="M84.1652 109.0234
L84.2256 108.9024
" />
<path d="M84.2256 108.9024
L84.2861 108.8419
" />
<path d="M84.2861 108.8419
L84.4071 108.7815
" />
<path d="M84.4071 108.7815
L84.6490 108.7815
" />
<path d="M84.6490 108.7815
L84.7699 108.8419
" />
<path d="M85.7980 109.5677
L85.6771 109.6281
" />
<path d="M85.6771 109.6281
L85.4352 109.6281
" />
<path d="M85.4352 109.6281
L85.3142 109.5677
" />
<path d="M85.3142 109.5677
L85.2538 109.4467
" />
<path d="M85.2538 109.4467
L85.2538 108.9629
" />
<path d="M85.2538 108.9629
L85.3142 108.8419
" />
<path d="M85.3142 108.8419
L85.4352 108.7815
" />
<path d="M85.4352 108.7815
L85.6771 108.7815
" />
<path d="M85.6771 108.7815
L85.7980 108.8419
" />
<path d="M85.7980 108.8419
L85.8585 108.9629
" />
<path d="M85.8585 108.9629
L85.8585 109.0838
" />
<path d="M85.8585 109.0838
L85.2538 109.2048
" />
<path d="M87.3100 108.2977
L86.2214 109.9305
" />
<path d="M88.2171 109.5677
L88.0962 109.6281
" />
<path d="M88.0962 109.6281
L87.8543 109.6281
" />
<path d="M87.8543 109.6281
L87.7333 109.5677
" />
<path d="M87.7333 109.5677
L87.6729 109.4467
" />
<path d="M87.6729 109.4467
L87.6729 108.9629
" />
<path d="M87.6729 108.9629
L87.7333 108.8419
" />
<path d="M87.7333 108.8419
L87.8543 108.7815
" />
<path d="M87.8543 108.7815
L88.0962 108.7815
" />
<path d="M88.0962 108.7815
L88.2171 108.8419
" />
<path d="M88.2171 108.8419
L88.2776 108.9629
" />
<path d="M88.2776 108.9629
L88.2776 109.0838
" />
<path d="M88.2776 109.0838
L87.6729 109.2048
" />
<path d="M88.8219 108.7815
L88.8219 109.6281
" />
<path d="M88.8219 108.9024
L88.8824 108.8419
" />
<path d="M88.8824 108.8419
L89.0034 108.7815
" />
<path d="M89.0034 108.7815
L89.1848 108.7815
" />
<path d="M89.1848 108.7815
L89.3057 108.8419
" />
<path d="M89.3057 108.8419
L89.3662 108.9629
" />
<path d="M89.3662 108.9629
L89.3662 109.6281
" />
<path d="M90.8781 108.2977
L89.7895 109.9305
" />
<path d="M91.8457 109.6281
L91.8457 108.3581
" />
<path d="M91.8457 109.5677
L91.7248 109.6281
" />
<path d="M91.7248 109.6281
L91.4829 109.6281
" />
<path d="M91.4829 109.6281
L91.3619 109.5677
" />
<path d="M91.3619 109.5677
L91.3014 109.5072
" />
<path d="M91.3014 109.5072
L91.2410 109.3862
" />
<path d="M91.2410 109.3862
L91.2410 109.0234
" />
<path d="M91.2410 109.0234
L91.3014 108.9024
" />
<path d="M91.3014 108.9024
L91.3619 108.8419
" />
<path d="M91.3619 108.8419
L91.4829 108.7815
" />
<path d="M91.4829 108.7815
L91.7248 108.7815
" />
<path d="M91.7248 108.7815
L91.8457 108.8419
" />
<path d="M92.9947 109.6281
L92.9947 108.9629
" />
<path d="M92.9947 108.9629
L92.9342 108.8419
" />
<path d="M92.9342 108.8419
L92.8133 108.7815
" />
<path d="M92.8133 108.7815
L92.5714 108.7815
" />
<path d="M92.5714 108.7815
L92.4504 108.8419
" />
<path d="M92.9947 109.5677
L92.8738 109.6281
" />
<path d="M92.8738 109.6281
L92.5714 109.6281
" />
<path d="M92.5714 109.6281
L92.4504 109.5677
" />
<path d="M92.4504 109.5677
L92.3900 109.4467
" />
<path d="M92.3900 109.4467
L92.3900 109.3257
" />
<path d="M92.3900 109.3257
L92.4504 109.2048
" />
<path d="M92.4504 109.2048
L92.5714 109.1443
" />
<path d="M92.5714 109.1443
L92.8738 109.1443
" />
<path d="M92.8738 109.1443
L92.9947 109.0838
" />
<path d="M93.4180 108.7815
L93.9018 108.7815
" />
<path d="M93.5994 108.3581
L93.5994 109.4467
" />
<path d="M93.5994 109.4467
L93.6599 109.5677
" />
<path d="M93.6599 109.5677
L93.7809 109.6281
" />
<path d="M93.7809 109.6281
L93.9018 109.6281
" />
<path d="M94.8694 109.6281
L94.8694 108.9629
" />
<path d="M94.8694 108.9629
L94.8089 108.8419
" />
<path d="M94.8089 108.8419
L94.6880 108.7815
" />
<path d="M94.6880 108.7815
L94.4461 108.7815
" />
<path d="M94.4461 108.7815
L94.3251 108.8419
" />
<path d="M94.8694 109.5677
L94.7485 109.6281
" />
<path d="M94.7485 109.6281
L94.4461 109.6281
" />
<path d="M94.4461 109.6281
L94.3251 109.5677
" />
<path d="M94.3251 109.5677
L94.2647 109.4467
" />
<path d="M94.2647 109.4467
L94.2647 109.3257
" />
<path d="M94.2647 109.3257
L94.3251 109.2048
" />
<path d="M94.3251 109.2048
L94.4461 109.1443
" />
<path d="M94.4461 109.1443
L94.7485 109.1443
" />
<path d="M94.7485 109.1443
L94.8694 109.0838
" />
<path d="M95.4137 109.5677
L95.5346 109.6281
" />
<path d="M95.5346 109.6281
L95.7765 109.6281
" />
<path d="M95.7765 109.6281
L95.8975 109.5677
" />
<path d="M95.8975 109.5677
L95.9579 109.4467
" />
<path d="M95.9579 109.4467
L95.9579 109.3862
" />
<path d="M95.9579 109.3862
L95.8975 109.2653
" />
<path d="M95.8975 109.2653
L95.7765 109.2048
" />
<path d="M95.7765 109.2048
L95.5951 109.2048
" />
<path d="M95.5951 109.2048
L95.4741 109.1443
" />
<path d="M95.4741 109.1443
L95.4137 109.0234
" />
<path d="M95.4137 109.0234
L95.4137 108.9629
" />
<path d="M95.4137 108.9629
L95.4741 108.8419
" />
<path d="M95.4741 108.8419
L95.5951 108.7815
" />
<path d="M95.5951 108.7815
L95.7765 108.7815
" />
<path d="M95.7765 108.7815
L95.8975 108.8419
" />
<path d="M96.5022 109.6281
L96.5022 108.3581
" />
<path d="M97.0465 109.6281
L97.0465 108.9629
" />
<path d="M97.0465 108.9629
L96.9860 108.8419
" />
<path d="M96.9860 108.8419
L96.8651 108.7815
" />
<path d="M96.8651 108.7815
L96.6837 108.7815
" />
<path d="M96.6837 108.7815
L96.5627 108.8419
" />
<path d="M96.5627 108.8419
L96.5022 108.9024
" />
<path d="M98.1350 109.5677
L98.0141 109.6281
" />
<path d="M98.0141 109.6281
L97.7722 109.6281
" />
<path d="M97.7722 109.6281
L97.6512 109.5677
" />
<path d="M97.6512 109.5677
L97.5908 109.4467
" />
<path d="M97.5908 109.4467
L97.5908 108.9629
" />
<path d="M97.5908 108.9629
L97.6512 108.8419
" />
<path d="M97.6512 108.8419
L97.7722 108.7815
" />
<path d="M97.7722 108.7815
L98.0141 108.7815
" />
<path d="M98.0141 108.7815
L98.1350 108.8419
" />
<path d="M98.1350 108.8419
L98.1955 108.9629
" />
<path d="M98.1955 108.9629
L98.1955 109.0838
" />
<path d="M98.1955 109.0838
L97.5908 109.2048
" />
<path d="M99.2236 109.5677
L99.1027 109.6281
" />
<path d="M99.1027 109.6281
L98.8608 109.6281
" />
<path d="M98.8608 109.6281
L98.7398 109.5677
" />
<path d="M98.7398 109.5677
L98.6794 109.4467
" />
<path d="M98.6794 109.4467
L98.6794 108.9629
" />
<path d="M98.6794 108.9629
L98.7398 108.8419
" />
<path d="M98.7398 108.8419
L98.8608 108.7815
" />
<path d="M98.8608 108.7815
L99.1027 108.7815
" />
<path d="M99.1027 108.7815
L99.2236 108.8419
" />
<path d="M99.2236 108.8419
L99.2841 108.9629
" />
<path d="M99.2841 108.9629
L99.2841 109.0838
" />
<path d="M99.2841 109.0838
L98.6794 109.2048
" />
<path d="M99.6470 108.7815
L100.1308 108.7815
" />
<path d="M99.8284 108.3581
L99.8284 109.4467
" />
<path d="M99.8284 109.4467
L99.8889 109.5677
" />
<path d="M99.8889 109.5677
L100.0099 109.6281
" />
<path d="M100.0099 109.6281
L100.1308 109.6281
" />
<path d="M101.4613 108.2977
L100.3727 109.9305
" />
<path d="M101.8242 109.5677
L101.9451 109.6281
" />
<path d="M101.9451 109.6281
L102.1870 109.6281
" />
<path d="M102.1870 109.6281
L102.3080 109.5677
" />
<path d="M102.3080 109.5677
L102.3684 109.4467
" />
<path d="M102.3684 109.4467
L102.3684 109.3862
" />
<path d="M102.3684 109.3862
L102.3080 109.2653
" />
<path d="M102.3080 109.2653
L102.1870 109.2048
" />
<path d="M102.1870 109.2048
L102.0056 109.2048
" />
<path d="M102.0056 109.2048
L101.8846 109.1443
" />
<path d="M101.8846 109.1443
L101.8242 109.0234
" />
<path d="M101.8242 109.0234
L101.8242 108.9629
" />
<path d="M101.8242 108.9629
L101.8846 108.8419
" />
<path d="M101.8846 108.8419
L102.0056 108.7815
" />
<path d="M102.0056 108.7815
L102.1870 108.7815
" />
<path d="M102.1870 108.7815
L102.3080 108.8419
" />
<path d="M102.7313 108.7815
L103.2151 108.7815
" />
<path d="M102.9127 108.3581
L102.9127 109.4467
" />
<path d="M102.9127 109.4467
L102.9732 109.5677
" />
<path d="M102.9732 109.5677
L103.0942 109.6281
" />
<path d="M103.0942 109.6281
L103.2151 109.6281
" />
<path d="M103.6384 109.6281
L103.6384 108.7815
" />
<path d="M103.6384 108.9024
L103.6989 108.8419
" />
<path d="M103.6989 108.8419
L103.8199 108.7815
" />
<path d="M103.8199 108.7815
L104.0013 108.7815
" />
<path d="M104.0013 108.7815
L104.1222 108.8419
" />
<path d="M104.1222 108.8419
L104.1827 108.9629
" />
<path d="M104.1827 108.9629
L104.1827 109.6281
" />
<path d="M104.1827 108.9629
L104.2432 108.8419
" />
<path d="M104.2432 108.8419
L104.3641 108.7815
" />
<path d="M104.3641 108.7815
L104.5456 108.7815
" />
<path d="M104.5456 108.7815
L104.6665 108.8419
" />
<path d="M104.6665 108.8419
L104.7270 108.9629
" />
<path d="M104.7270 108.9629
L104.7270 109.6281
" />
<path d="M105.2108 108.3581
L105.9970 108.3581
" />
<path d="M105.9970 108.3581
L105.5736 108.8419
" />
<path d="M105.5736 108.8419
L105.7551 108.8419
" />
<path d="M105.7551 108.8419
L105.8760 108.9024
" />
<path d="M105.8760 108.9024
L105.9365 108.9629
" />
<path d="M105.9365 108.9629
L105.9970 109.0838
" />
<path d="M105.9970 109.0838
L105.9970 109.3862
" />
<path d="M105.9970 109.3862
L105.9365 109.5072
" />
<path d="M105.9365 109.5072
L105.8760 109.5677
" />
<path d="M105.8760 109.5677
L105.7551 109.6281
" />
<path d="M105.7551 109.6281
L105.3922 109.6281
" />
<path d="M105.3922 109.6281
L105.2713 109.5677
" />
<path d="M105.2713 109.5677
L105.2108 109.5072
" />
<path d="M106.4808 108.4791
L106.5412 108.4186
" />
<path d="M106.5412 108.4186
L106.6622 108.3581
" />
<path d="M106.6622 108.3581
L106.9646 108.3581
" />
<path d="M106.9646 108.3581
L107.0855 108.4186
" />
<path d="M107.0855 108.4186
L107.1460 108.4791
" />
<path d="M107.1460 108.4791
L107.2065 108.6000
" />
<path d="M107.2065 108.6000
L107.2065 108.7210
" />
<path d="M107.2065 108.7210
L107.1460 108.9024
" />
<path d="M107.1460 108.9024
L106.4203 109.6281
" />
<path d="M106.4203 109.6281
L107.2065 109.6281
" />
<path d="M107.9322 109.6281
L107.8112 109.5677
" />
<path d="M107.8112 109.5677
L107.7507 109.4467
" />
<path d="M107.7507 109.4467
L107.7507 108.3581
" />
<path d="M108.9602 108.7815
L108.9602 109.6281
" />
<path d="M108.6578 108.2977
L108.3555 109.2048
" />
<path d="M108.3555 109.2048
L109.1416 109.2048
" />
<path d="M109.6254 108.7815
L109.6254 110.0515
" />
<path d="M109.6254 108.8419
L109.7464 108.7815
" />
<path d="M109.7464 108.7815
L109.9883 108.7815
" />
<path d="M109.9883 108.7815
L110.1092 108.8419
" />
<path d="M110.1092 108.8419
L110.1697 108.9024
" />
<path d="M110.1697 108.9024
L110.2302 109.0234
" />
<path d="M110.2302 109.0234
L110.2302 109.3862
" />
<path d="M110.2302 109.3862
L110.1697 109.5072
" />
<path d="M110.1697 109.5072
L110.1092 109.5677
" />
<path d="M110.1092 109.5677
L109.9883 109.6281
" />
<path d="M109.9883 109.6281
L109.7464 109.6281
" />
<path d="M109.7464 109.6281
L109.6254 109.5677
" />
<path d="M111.3792 108.3581
L110.7744 108.3581
" />
<path d="M110.7744 108.3581
L110.7140 108.9629
" />
<path d="M110.7140 108.9629
L110.7744 108.9024
" />
<path d="M110.7744 108.9024
L110.8954 108.8419
" />
<path d="M110.8954 108.8419
L111.1978 108.8419
" />
<path d="M111.1978 108.8419
L111.3187 108.9024
" />
<path d="M111.3187 108.9024
L111.3792 108.9629
" />
<path d="M111.3792 108.9629
L111.4397 109.0838
" />
<path d="M111.4397 109.0838
L111.4397 109.3862
" />
<path d="M111.4397 109.3862
L111.3792 109.5072
" />
<path d="M111.3792 109.5072
L111.3187 109.5677
" />
<path d="M111.3187 109.5677
L111.1978 109.6281
" />
<path d="M111.1978 109.6281
L110.8954 109.6281
" />
<path d="M110.8954 109.6281
L110.7744 109.5677
" />
<path d="M110.7744 109.5677
L110.7140 109.5072
" />
<path d="M112.5282 108.7815
L112.5282 110.0515
" />
<path d="M112.5282 109.5677
L112.4073 109.6281
" />
<path d="M112.4073 109.6281
L112.1654 109.6281
" />
<path d="M112.1654 109.6281
L112.0444 109.5677
" />
<path d="M112.0444 109.5677
L111.9839 109.5072
" />
<path d="M111.9839 109.5072
L111.9235 109.3862
" />
<path d="M111.9235 109.3862
L111.9235 109.0234
" />
<path d="M111.9235 109.0234
L111.9839 108.9024
" />
<path d="M111.9839 108.9024
L112.0444 108.8419
" />
<path d="M112.0444 108.8419
L112.1654 108.7815
" />
<path d="M112.1654 108.7815
L112.4073 108.7815
" />
<path d="M112.4073 108.7815
L112.5282 108.8419
" />
<path d="M113.6772 108.7815
L113.6772 109.8096
" />
<path d="M113.6772 109.8096
L113.6167 109.9305
" />
<path d="M113.6167 109.9305
L113.5563 109.9910
" />
<path d="M113.5563 109.9910
L113.4353 110.0515
" />
<path d="M113.4353 110.0515
L113.2539 110.0515
" />
<path d="M113.2539 110.0515
L113.1329 109.9910
" />
<path d="M113.6772 109.5677
L113.5563 109.6281
" />
<path d="M113.5563 109.6281
L113.3144 109.6281
" />
<path d="M113.3144 109.6281
L113.1934 109.5677
" />
<path d="M113.1934 109.5677
L113.1329 109.5072
" />
<path d="M113.1329 109.5072
L113.0725 109.3862
" />
<path d="M113.0725 109.3862
L113.0725 109.0234
" />
<path d="M113.0725 109.0234
L113.1329 108.9024
" />
<path d="M113.1329 108.9024
L113.1934 108.8419
" />
<path d="M113.1934 108.8419
L113.3144 108.7815
" />
<path d="M113.3144 108.7815
L113.5563 108.7815
" />
<path d="M113.5563 108.7815
L113.6772 108.8419
" />
<path d="M114.2819 109.5072
L114.3424 109.5677
" />
<path d="M114.3424 109.5677
L114.2819 109.6281
" />
<path d="M114.2819 109.6281
L114.2215 109.5677
" />
<path d="M114.2215 109.5677
L114.2819 109.5072
" />
<path d="M114.2819 109.5072
L114.2819 109.6281
" />
<path d="M114.8867 108.7815
L114.8867 110.0515
" />
<path d="M114.8867 108.8419
L115.0077 108.7815
" />
<path d="M115.0077 108.7815
L115.2496 108.7815
" />
<path d="M115.2496 108.7815
L115.3705 108.8419
" />
<path d="M115.3705 108.8419
L115.4310 108.9024
" />
<path d="M115.4310 108.9024
L115.4915 109.0234
" />
<path d="M115.4915 109.0234
L115.4915 109.3862
" />
<path d="M115.4915 109.3862
L115.4310 109.5072
" />
<path d="M115.4310 109.5072
L115.3705 109.5677
" />
<path d="M115.3705 109.5677
L115.2496 109.6281
" />
<path d="M115.2496 109.6281
L115.0077 109.6281
" />
<path d="M115.0077 109.6281
L114.8867 109.5677
" />
<path d="M116.5800 109.6281
L116.5800 108.3581
" />
<path d="M116.5800 109.5677
L116.4591 109.6281
" />
<path d="M116.4591 109.6281
L116.2172 109.6281
" />
<path d="M116.2172 109.6281
L116.0962 109.5677
" />
<path d="M116.0962 109.5677
L116.0357 109.5072
" />
<path d="M116.0357 109.5072
L115.9753 109.3862
" />
<path d="M115.9753 109.3862
L115.9753 109.0234
" />
<path d="M115.9753 109.0234
L116.0357 108.9024
" />
<path d="M116.0357 108.9024
L116.0962 108.8419
" />
<path d="M116.0962 108.8419
L116.2172 108.7815
" />
<path d="M116.2172 108.7815
L116.4591 108.7815
" />
<path d="M116.4591 108.7815
L116.5800 108.8419
" />
<path d="M117.0033 108.7815
L117.4871 108.7815
" />
<path d="M117.1847 109.6281
L117.1847 108.5396
" />
<path d="M117.1847 108.5396
L117.2452 108.4186
" />
<path d="M117.2452 108.4186
L117.3662 108.3581
" />
<path d="M117.3662 108.3581
L117.4871 108.3581
" />
</g></g> 
</svg>
