<?xml version="1.0" standalone="no"?>
 <!DOCTYPE svg PUBLIC "-//W3C//DTD SVG 1.1//EN" 
 "http://www.w3.org/Graphics/SVG/1.1/DTD/svg11.dtd"> 
<svg
  xmlns:svg="http://www.w3.org/2000/svg"
  xmlns="http://www.w3.org/2000/svg"
  xmlns:xlink="http://www.w3.org/1999/xlink"
  version="1.1"
  width="76.5302mm" height="18.2880mm" viewBox="0.0000 0.0000 76.5302 18.2880">
<title>SVG Image created as working.svg date 2023/08/28 11:22:19 </title>
  <desc>Image generated by Eeschema-SVG </desc>
<g style="fill:#000000; fill-opacity:1.0000;stroke:#000000; stroke-opacity:1.0000;
stroke-linecap:round; stroke-linejoin:round;"
 transform="translate(0 0) scale(1 1)">
</g>
<g style="fill:#840000; fill-opacity:0.0; 
stroke:#840000; stroke-width:0.0000; stroke-opacity:1; 
stroke-linecap:round; stroke-linejoin:round;">
</g>
<g style="fill:#FFFFC2; fill-opacity:0.0; 
stroke:#FFFFC2; stroke-width:0.0000; stroke-opacity:1; 
stroke-linecap:round; stroke-linejoin:round;">
</g>
<g style="fill:#FFFFC2; fill-opacity:1.0000; 
stroke:#FFFFC2; stroke-width:0.0000; stroke-opacity:1; 
stroke-linecap:round; stroke-linejoin:round;">
<rect x="20.489300" y="4.064100" width="38.100000" height="10.160000" rx="0.000000" />
</g>
<g style="fill:#840084; fill-opacity:1.0000; 
stroke:#840084; stroke-width:0.0000; stroke-opacity:1; 
stroke-linecap:round; stroke-linejoin:round;">
</g>
<g style="fill:#840000; fill-opacity:1.0000; 
stroke:#840000; stroke-width:0.0000; stroke-opacity:1; 
stroke-linecap:round; stroke-linejoin:round;">
</g>
<g style="fill:#840000; fill-opacity:0.0; 
stroke:#840000; stroke-width:0.2540; stroke-opacity:1; 
stroke-linecap:round; stroke-linejoin:round;">
<rect x="20.489300" y="4.064100" width="38.100000" height="10.160000" rx="0.000000" />
<rect x="22.394300" y="7.239100" width="6.350000" height="3.810000" rx="0.000000" />
<path style="fill:#840000; fill-opacity:0.0; 
stroke:#840000; stroke-width:0.2540; stroke-opacity:1; 
stroke-linecap:round; stroke-linejoin:round;fill:none"
d="M 23.0293,11.0491
28.1093,7.2391
" /> 
</g>
<g style="fill:#840000; fill-opacity:0.0; 
stroke:#840000; stroke-width:0.1524; stroke-opacity:1; 
stroke-linecap:round; stroke-linejoin:round;">
<path style="fill:#840000; fill-opacity:0.0; 
stroke:#840000; stroke-width:0.1524; stroke-opacity:1; 
stroke-linecap:round; stroke-linejoin:round;fill:none"
d="M 25.5693,14.2241
25.5693,11.0491
" /> 
<path style="fill:#840000; fill-opacity:0.0; 
stroke:#840000; stroke-width:0.1524; stroke-opacity:1; 
stroke-linecap:round; stroke-linejoin:round;fill:none"
d="M 25.5693,4.0641
25.5693,7.2391
" /> 
</g>
<g style="fill:#840000; fill-opacity:0.0; 
stroke:#840000; stroke-width:0.2540; stroke-opacity:1; 
stroke-linecap:round; stroke-linejoin:round;">
<path style="fill:#840000; fill-opacity:0.0; 
stroke:#840000; stroke-width:0.2540; stroke-opacity:1; 
stroke-linecap:round; stroke-linejoin:round;fill:none"
d="M 28.7443,9.1441
29.3793,9.1441
" /> 
<path style="fill:#840000; fill-opacity:0.0; 
stroke:#840000; stroke-width:0.2540; stroke-opacity:1; 
stroke-linecap:round; stroke-linejoin:round;fill:none"
d="M 30.0143,9.1441
30.6493,9.1441
" /> 
<path style="fill:#840000; fill-opacity:0.0; 
stroke:#840000; stroke-width:0.2540; stroke-opacity:1; 
stroke-linecap:round; stroke-linejoin:round;fill:none"
d="M 31.2843,9.1441
31.9193,9.1441
" /> 
<path style="fill:#840000; fill-opacity:0.0; 
stroke:#840000; stroke-width:0.2540; stroke-opacity:1; 
stroke-linecap:round; stroke-linejoin:round;fill:none"
d="M 32.5543,9.1441
33.1893,9.1441
" /> 
<path style="fill:#840000; fill-opacity:0.0; 
stroke:#840000; stroke-width:0.2540; stroke-opacity:1; 
stroke-linecap:round; stroke-linejoin:round;fill:none"
d="M 33.8243,9.1441
34.4593,9.1441
" /> 
<path style="fill:#840000; fill-opacity:0.0; 
stroke:#840000; stroke-width:0.2540; stroke-opacity:1; 
stroke-linecap:round; stroke-linejoin:round;fill:none"
d="M 35.0943,9.1441
35.7293,9.1441
" /> 
</g>
<g style="fill:#840000; fill-opacity:0.0; 
stroke:#840000; stroke-width:0.5080; stroke-opacity:1; 
stroke-linecap:round; stroke-linejoin:round;">
<path style="fill:#840000; fill-opacity:0.0; 
stroke:#840000; stroke-width:0.5080; stroke-opacity:1; 
stroke-linecap:round; stroke-linejoin:round;fill:none"
d="M 35.7293,11.6841
33.8243,5.3341
" /> 
</g>
<g style="fill:#840000; fill-opacity:0.0; 
stroke:#840000; stroke-width:0.1524; stroke-opacity:1; 
stroke-linecap:round; stroke-linejoin:round;">
<path style="fill:#840000; fill-opacity:0.0; 
stroke:#840000; stroke-width:0.1524; stroke-opacity:1; 
stroke-linecap:round; stroke-linejoin:round;fill:none"
d="M 35.7293,11.6841
35.7293,14.2241
" /> 
</g>
<g style="fill:#840000; fill-opacity:0.0; 
stroke:#840000; stroke-width:0.2540; stroke-opacity:1; 
stroke-linecap:round; stroke-linejoin:round;">
<path style="fill:#840000; fill-opacity:0.0; 
stroke:#840000; stroke-width:0.2540; stroke-opacity:1; 
stroke-linecap:round; stroke-linejoin:round;fill:none"
d="M 36.3643,9.1441
36.9993,9.1441
" /> 
<path style="fill:#840000; fill-opacity:0.0; 
stroke:#840000; stroke-width:0.2540; stroke-opacity:1; 
stroke-linecap:round; stroke-linejoin:round;fill:none"
d="M 37.6343,9.1441
38.2693,9.1441
" /> 
<path style="fill:#840000; fill-opacity:0.0; 
stroke:#840000; stroke-width:0.2540; stroke-opacity:1; 
stroke-linecap:round; stroke-linejoin:round;fill:none"
d="M 38.9043,9.1441
39.5393,9.1441
" /> 
<path style="fill:#840000; fill-opacity:0.0; 
stroke:#840000; stroke-width:0.2540; stroke-opacity:1; 
stroke-linecap:round; stroke-linejoin:round;fill:none"
d="M 40.1743,9.1441
40.8093,9.1441
" /> 
<path style="fill:#840000; fill-opacity:0.0; 
stroke:#840000; stroke-width:0.2540; stroke-opacity:1; 
stroke-linecap:round; stroke-linejoin:round;fill:none"
d="M 41.4443,9.1441
42.0793,9.1441
" /> 
<path style="fill:#840000; fill-opacity:0.0; 
stroke:#840000; stroke-width:0.2540; stroke-opacity:1; 
stroke-linecap:round; stroke-linejoin:round;fill:none"
d="M 42.7143,9.1441
43.3493,9.1441
" /> 
<path style="fill:#840000; fill-opacity:0.0; 
stroke:#840000; stroke-width:0.2540; stroke-opacity:1; 
stroke-linecap:round; stroke-linejoin:round;fill:none"
d="M 43.9843,9.1441
44.6193,9.1441
" /> 
<path style="fill:#840000; fill-opacity:0.0; 
stroke:#840000; stroke-width:0.2540; stroke-opacity:1; 
stroke-linecap:round; stroke-linejoin:round;fill:none"
d="M 45.2543,9.1441
45.8893,9.1441
" /> 
</g>
<g style="fill:#840000; fill-opacity:0.0; 
stroke:#840000; stroke-width:0.5080; stroke-opacity:1; 
stroke-linecap:round; stroke-linejoin:round;">
<path style="fill:#840000; fill-opacity:0.0; 
stroke:#840000; stroke-width:0.5080; stroke-opacity:1; 
stroke-linecap:round; stroke-linejoin:round;fill:none"
d="M 45.8893,11.6841
43.9843,5.3341
" /> 
</g>
<g style="fill:#840000; fill-opacity:0.0; 
stroke:#840000; stroke-width:0.1524; stroke-opacity:1; 
stroke-linecap:round; stroke-linejoin:round;">
<path style="fill:#840000; fill-opacity:0.0; 
stroke:#840000; stroke-width:0.1524; stroke-opacity:1; 
stroke-linecap:round; stroke-linejoin:round;fill:none"
d="M 45.8893,11.6841
45.8893,14.2241
" /> 
</g>
<g style="fill:#840000; fill-opacity:0.0; 
stroke:#840000; stroke-width:0.2540; stroke-opacity:1; 
stroke-linecap:round; stroke-linejoin:round;">
<path style="fill:#840000; fill-opacity:0.0; 
stroke:#840000; stroke-width:0.2540; stroke-opacity:1; 
stroke-linecap:round; stroke-linejoin:round;fill:none"
d="M 46.5243,9.1441
47.1593,9.1441
" /> 
<path style="fill:#840000; fill-opacity:0.0; 
stroke:#840000; stroke-width:0.2540; stroke-opacity:1; 
stroke-linecap:round; stroke-linejoin:round;fill:none"
d="M 47.7943,9.1441
48.4293,9.1441
" /> 
<path style="fill:#840000; fill-opacity:0.0; 
stroke:#840000; stroke-width:0.2540; stroke-opacity:1; 
stroke-linecap:round; stroke-linejoin:round;fill:none"
d="M 49.0643,9.1441
49.6993,9.1441
" /> 
<path style="fill:#840000; fill-opacity:0.0; 
stroke:#840000; stroke-width:0.2540; stroke-opacity:1; 
stroke-linecap:round; stroke-linejoin:round;fill:none"
d="M 50.9693,11.0491
56.0493,7.2391
" /> 
</g>
<g style="fill:#840000; fill-opacity:0.0; 
stroke:#840000; stroke-width:0.1524; stroke-opacity:1; 
stroke-linecap:round; stroke-linejoin:round;">
<path style="fill:#840000; fill-opacity:0.0; 
stroke:#840000; stroke-width:0.1524; stroke-opacity:1; 
stroke-linecap:round; stroke-linejoin:round;fill:none"
d="M 53.5093,14.2241
53.5093,11.0491
" /> 
<path style="fill:#840000; fill-opacity:0.0; 
stroke:#840000; stroke-width:0.1524; stroke-opacity:1; 
stroke-linecap:round; stroke-linejoin:round;fill:none"
d="M 53.5093,4.0641
53.5093,7.2391
" /> 
</g>
<g style="fill:#840000; fill-opacity:1.0000; 
stroke:#840000; stroke-width:0.1524; stroke-opacity:1; 
stroke-linecap:round; stroke-linejoin:round;">
<path style="fill:#840000; fill-opacity:1.0000; 
stroke:#840000; stroke-width:0.1524; stroke-opacity:1; 
stroke-linecap:round; stroke-linejoin:round;fill-rule:evenodd;"
d="M 33.1893,4.0641
33.1893,6.6041
33.8243,5.9691
33.1893,5.3341
" /> 
</g>
<g style="fill:#840000; fill-opacity:0.0; 
stroke:#840000; stroke-width:0.1524; stroke-opacity:1; 
stroke-linecap:round; stroke-linejoin:round;">
<path style="fill:#840000; fill-opacity:0.0; 
stroke:#840000; stroke-width:0.1524; stroke-opacity:1; 
stroke-linecap:round; stroke-linejoin:round;fill:none"
d="M 38.2693,4.0641
38.2693,6.6041
37.6343,5.9691
38.2693,5.3341
" /> 
</g>
<g style="fill:#840000; fill-opacity:1.0000; 
stroke:#840000; stroke-width:0.1524; stroke-opacity:1; 
stroke-linecap:round; stroke-linejoin:round;">
<path style="fill:#840000; fill-opacity:1.0000; 
stroke:#840000; stroke-width:0.1524; stroke-opacity:1; 
stroke-linecap:round; stroke-linejoin:round;fill-rule:evenodd;"
d="M 43.3493,4.0641
43.3493,6.6041
43.9843,5.9691
43.3493,5.3341
" /> 
</g>
<g style="fill:#840000; fill-opacity:0.0; 
stroke:#840000; stroke-width:0.1524; stroke-opacity:1; 
stroke-linecap:round; stroke-linejoin:round;">
<path style="fill:#840000; fill-opacity:0.0; 
stroke:#840000; stroke-width:0.1524; stroke-opacity:1; 
stroke-linecap:round; stroke-linejoin:round;fill:none"
d="M 48.4293,4.0641
48.4293,6.6041
47.7943,5.9691
48.4293,5.3341
" /> 
</g>
<g style="fill:#840000; fill-opacity:0.0; 
stroke:#840000; stroke-width:0.2540; stroke-opacity:1; 
stroke-linecap:round; stroke-linejoin:round;">
<rect x="50.334300" y="7.239100" width="6.350000" height="3.810000" rx="0.000000" />
</g>
<g style="fill:#840000; fill-opacity:0.0; 
stroke:#840000; stroke-width:0.0953; stroke-opacity:1; 
stroke-linecap:round; stroke-linejoin:round;">
<text x="52.1123" y="6.6042"
textLength="2.2019" font-size="1.0160" lengthAdjust="spacingAndGlyphs"
text-anchor="middle" opacity="0">R:+</text>
<g class="stroked-text"><desc>R:+</desc>
<path d="M51.6950 6.5707
L51.4410 6.2079
" />
<path d="M51.2596 6.5707
L51.2596 5.8087
" />
<path d="M51.2596 5.8087
L51.5499 5.8087
" />
<path d="M51.5499 5.8087
L51.6224 5.8450
" />
<path d="M51.6224 5.8450
L51.6587 5.8813
" />
<path d="M51.6587 5.8813
L51.6950 5.9539
" />
<path d="M51.6950 5.9539
L51.6950 6.0627
" />
<path d="M51.6950 6.0627
L51.6587 6.1353
" />
<path d="M51.6587 6.1353
L51.6224 6.1716
" />
<path d="M51.6224 6.1716
L51.5499 6.2079
" />
<path d="M51.5499 6.2079
L51.2596 6.2079
" />
<path d="M52.0216 6.4982
L52.0579 6.5345
" />
<path d="M52.0579 6.5345
L52.0216 6.5707
" />
<path d="M52.0216 6.5707
L51.9853 6.5345
" />
<path d="M51.9853 6.5345
L52.0216 6.4982
" />
<path d="M52.0216 6.4982
L52.0216 6.5707
" />
<path d="M52.0216 6.0990
L52.0579 6.1353
" />
<path d="M52.0579 6.1353
L52.0216 6.1716
" />
<path d="M52.0216 6.1716
L51.9853 6.1353
" />
<path d="M51.9853 6.1353
L52.0216 6.0990
" />
<path d="M52.0216 6.0990
L52.0216 6.1716
" />
<path d="M52.3845 6.2805
L52.9651 6.2805
" />
<path d="M52.6748 6.5707
L52.6748 5.9902
" />
</g><text x="52.1123" y="12.4462"
textLength="2.2019" font-size="1.0160" lengthAdjust="spacingAndGlyphs"
text-anchor="middle" opacity="0">R:-</text>
<g class="stroked-text"><desc>R:-</desc>
<path d="M51.6950 12.4127
L51.4410 12.0499
" />
<path d="M51.2596 12.4127
L51.2596 11.6507
" />
<path d="M51.2596 11.6507
L51.5499 11.6507
" />
<path d="M51.5499 11.6507
L51.6224 11.6870
" />
<path d="M51.6224 11.6870
L51.6587 11.7233
" />
<path d="M51.6587 11.7233
L51.6950 11.7959
" />
<path d="M51.6950 11.7959
L51.6950 11.9047
" />
<path d="M51.6950 11.9047
L51.6587 11.9773
" />
<path d="M51.6587 11.9773
L51.6224 12.0136
" />
<path d="M51.6224 12.0136
L51.5499 12.0499
" />
<path d="M51.5499 12.0499
L51.2596 12.0499
" />
<path d="M52.0216 12.3402
L52.0579 12.3765
" />
<path d="M52.0579 12.3765
L52.0216 12.4127
" />
<path d="M52.0216 12.4127
L51.9853 12.3765
" />
<path d="M51.9853 12.3765
L52.0216 12.3402
" />
<path d="M52.0216 12.3402
L52.0216 12.4127
" />
<path d="M52.0216 11.9410
L52.0579 11.9773
" />
<path d="M52.0579 11.9773
L52.0216 12.0136
" />
<path d="M52.0216 12.0136
L51.9853 11.9773
" />
<path d="M51.9853 11.9773
L52.0216 11.9410
" />
<path d="M52.0216 11.9410
L52.0216 12.0136
" />
<path d="M52.3845 12.1225
L52.9651 12.1225
" />
</g><text x="26.9663" y="6.6042"
textLength="2.1656" font-size="1.0160" lengthAdjust="spacingAndGlyphs"
text-anchor="middle" opacity="0">S:+</text>
<g class="stroked-text"><desc>S:+</desc>
<path d="M26.0954 6.5345
L26.2043 6.5707
" />
<path d="M26.2043 6.5707
L26.3857 6.5707
" />
<path d="M26.3857 6.5707
L26.4583 6.5345
" />
<path d="M26.4583 6.5345
L26.4945 6.4982
" />
<path d="M26.4945 6.4982
L26.5308 6.4256
" />
<path d="M26.5308 6.4256
L26.5308 6.3530
" />
<path d="M26.5308 6.3530
L26.4945 6.2805
" />
<path d="M26.4945 6.2805
L26.4583 6.2442
" />
<path d="M26.4583 6.2442
L26.3857 6.2079
" />
<path d="M26.3857 6.2079
L26.2405 6.1716
" />
<path d="M26.2405 6.1716
L26.1680 6.1353
" />
<path d="M26.1680 6.1353
L26.1317 6.0990
" />
<path d="M26.1317 6.0990
L26.0954 6.0265
" />
<path d="M26.0954 6.0265
L26.0954 5.9539
" />
<path d="M26.0954 5.9539
L26.1317 5.8813
" />
<path d="M26.1317 5.8813
L26.1680 5.8450
" />
<path d="M26.1680 5.8450
L26.2405 5.8087
" />
<path d="M26.2405 5.8087
L26.4220 5.8087
" />
<path d="M26.4220 5.8087
L26.5308 5.8450
" />
<path d="M26.8574 6.4982
L26.8937 6.5345
" />
<path d="M26.8937 6.5345
L26.8574 6.5707
" />
<path d="M26.8574 6.5707
L26.8211 6.5345
" />
<path d="M26.8211 6.5345
L26.8574 6.4982
" />
<path d="M26.8574 6.4982
L26.8574 6.5707
" />
<path d="M26.8574 6.0990
L26.8937 6.1353
" />
<path d="M26.8937 6.1353
L26.8574 6.1716
" />
<path d="M26.8574 6.1716
L26.8211 6.1353
" />
<path d="M26.8211 6.1353
L26.8574 6.0990
" />
<path d="M26.8574 6.0990
L26.8574 6.1716
" />
<path d="M27.2203 6.2805
L27.8009 6.2805
" />
<path d="M27.5106 6.5707
L27.5106 5.9902
" />
</g><text x="26.9663" y="12.4462"
textLength="2.1656" font-size="1.0160" lengthAdjust="spacingAndGlyphs"
text-anchor="middle" opacity="0">S:-</text>
<g class="stroked-text"><desc>S:-</desc>
<path d="M26.0954 12.3765
L26.2043 12.4127
" />
<path d="M26.2043 12.4127
L26.3857 12.4127
" />
<path d="M26.3857 12.4127
L26.4583 12.3765
" />
<path d="M26.4583 12.3765
L26.4945 12.3402
" />
<path d="M26.4945 12.3402
L26.5308 12.2676
" />
<path d="M26.5308 12.2676
L26.5308 12.1950
" />
<path d="M26.5308 12.1950
L26.4945 12.1225
" />
<path d="M26.4945 12.1225
L26.4583 12.0862
" />
<path d="M26.4583 12.0862
L26.3857 12.0499
" />
<path d="M26.3857 12.0499
L26.2405 12.0136
" />
<path d="M26.2405 12.0136
L26.1680 11.9773
" />
<path d="M26.1680 11.9773
L26.1317 11.9410
" />
<path d="M26.1317 11.9410
L26.0954 11.8685
" />
<path d="M26.0954 11.8685
L26.0954 11.7959
" />
<path d="M26.0954 11.7959
L26.1317 11.7233
" />
<path d="M26.1317 11.7233
L26.1680 11.6870
" />
<path d="M26.1680 11.6870
L26.2405 11.6507
" />
<path d="M26.2405 11.6507
L26.4220 11.6507
" />
<path d="M26.4220 11.6507
L26.5308 11.6870
" />
<path d="M26.8574 12.3402
L26.8937 12.3765
" />
<path d="M26.8937 12.3765
L26.8574 12.4127
" />
<path d="M26.8574 12.4127
L26.8211 12.3765
" />
<path d="M26.8211 12.3765
L26.8574 12.3402
" />
<path d="M26.8574 12.3402
L26.8574 12.4127
" />
<path d="M26.8574 11.9410
L26.8937 11.9773
" />
<path d="M26.8937 11.9773
L26.8574 12.0136
" />
<path d="M26.8574 12.0136
L26.8211 11.9773
" />
<path d="M26.8211 11.9773
L26.8574 11.9410
" />
<path d="M26.8574 11.9410
L26.8574 12.0136
" />
<path d="M27.2203 12.1225
L27.8009 12.1225
" />
</g></g>
<g style="fill:#840000; fill-opacity:0.0; 
stroke:#840000; stroke-width:0.1524; stroke-opacity:1; 
stroke-linecap:round; stroke-linejoin:round;">
<path d="M25.5693 4.0641
L25.5693 1.5241
" />
</g>
<g style="fill:#A90000; fill-opacity:0.0; 
stroke:#A90000; stroke-width:0.1524; stroke-opacity:1; 
stroke-linecap:round; stroke-linejoin:round;">
<g transform="rotate(-90.000000 25.3153 2.7941)">
<text x="25.3153" y="2.7941"
textLength="1.4127" font-size="1.6933" lengthAdjust="spacingAndGlyphs"
text-anchor="middle" opacity="0">1</text>
</g>
<g class="stroked-text"><desc>1</desc>
<path d="M25.1518 2.4311
L25.1518 3.1568
" />
<path d="M25.1518 2.7940
L23.8818 2.7940
" />
<path d="M23.8818 2.7940
L24.0633 2.9149
" />
<path d="M24.0633 2.9149
L24.1842 3.0359
" />
<path d="M24.1842 3.0359
L24.2447 3.1568
" />
</g></g>
<g style="fill:#840000; fill-opacity:0.0; 
stroke:#840000; stroke-width:0.1524; stroke-opacity:1; 
stroke-linecap:round; stroke-linejoin:round;">
<path d="M43.3493 4.0641
L43.3493 1.5241
" />
</g>
<g style="fill:#A90000; fill-opacity:0.0; 
stroke:#A90000; stroke-width:0.1524; stroke-opacity:1; 
stroke-linecap:round; stroke-linejoin:round;">
<g transform="rotate(-90.000000 43.0953 2.7941)">
<text x="43.0953" y="2.7941"
textLength="2.6222" font-size="1.6933" lengthAdjust="spacingAndGlyphs"
text-anchor="middle" opacity="0">10</text>
</g>
<g class="stroked-text"><desc>10</desc>
<path d="M42.9318 3.0359
L42.9318 3.7616
" />
<path d="M42.9318 3.3988
L41.6618 3.3988
" />
<path d="M41.6618 3.3988
L41.8433 3.5197
" />
<path d="M41.8433 3.5197
L41.9642 3.6407
" />
<path d="M41.9642 3.6407
L42.0247 3.7616
" />
<path d="M41.6618 2.2498
L41.6618 2.1288
" />
<path d="M41.6618 2.1288
L41.7223 2.0079
" />
<path d="M41.7223 2.0079
L41.7828 1.9474
" />
<path d="M41.7828 1.9474
L41.9037 1.8869
" />
<path d="M41.9037 1.8869
L42.1456 1.8264
" />
<path d="M42.1456 1.8264
L42.4480 1.8264
" />
<path d="M42.4480 1.8264
L42.6899 1.8869
" />
<path d="M42.6899 1.8869
L42.8109 1.9474
" />
<path d="M42.8109 1.9474
L42.8714 2.0079
" />
<path d="M42.8714 2.0079
L42.9318 2.1288
" />
<path d="M42.9318 2.1288
L42.9318 2.2498
" />
<path d="M42.9318 2.2498
L42.8714 2.3707
" />
<path d="M42.8714 2.3707
L42.8109 2.4312
" />
<path d="M42.8109 2.4312
L42.6899 2.4917
" />
<path d="M42.6899 2.4917
L42.4480 2.5521
" />
<path d="M42.4480 2.5521
L42.1456 2.5521
" />
<path d="M42.1456 2.5521
L41.9037 2.4917
" />
<path d="M41.9037 2.4917
L41.7828 2.4312
" />
<path d="M41.7828 2.4312
L41.7223 2.3707
" />
<path d="M41.7223 2.3707
L41.6618 2.2498
" />
</g></g>
<g style="fill:#840000; fill-opacity:0.0; 
stroke:#840000; stroke-width:0.1524; stroke-opacity:1; 
stroke-linecap:round; stroke-linejoin:round;">
<path d="M25.5693 14.2241
L25.5693 16.7641
" />
</g>
<g style="fill:#A90000; fill-opacity:0.0; 
stroke:#A90000; stroke-width:0.1524; stroke-opacity:1; 
stroke-linecap:round; stroke-linejoin:round;">
<g transform="rotate(-90.000000 25.3153 15.4941)">
<text x="25.3153" y="15.4941"
textLength="2.6222" font-size="1.6933" lengthAdjust="spacingAndGlyphs"
text-anchor="middle" opacity="0">12</text>
</g>
<g class="stroked-text"><desc>12</desc>
<path d="M25.1518 15.7359
L25.1518 16.4616
" />
<path d="M25.1518 16.0988
L23.8818 16.0988
" />
<path d="M23.8818 16.0988
L24.0633 16.2197
" />
<path d="M24.0633 16.2197
L24.1842 16.3407
" />
<path d="M24.1842 16.3407
L24.2447 16.4616
" />
<path d="M24.0028 15.2521
L23.9423 15.1917
" />
<path d="M23.9423 15.1917
L23.8818 15.0707
" />
<path d="M23.8818 15.0707
L23.8818 14.7683
" />
<path d="M23.8818 14.7683
L23.9423 14.6474
" />
<path d="M23.9423 14.6474
L24.0028 14.5869
" />
<path d="M24.0028 14.5869
L24.1237 14.5264
" />
<path d="M24.1237 14.5264
L24.2447 14.5264
" />
<path d="M24.2447 14.5264
L24.4261 14.5869
" />
<path d="M24.4261 14.5869
L25.1518 15.3126
" />
<path d="M25.1518 15.3126
L25.1518 14.5264
" />
</g></g>
<g style="fill:#840000; fill-opacity:0.0; 
stroke:#840000; stroke-width:0.1524; stroke-opacity:1; 
stroke-linecap:round; stroke-linejoin:round;">
<path d="M33.1893 4.0641
L33.1893 1.5241
" />
</g>
<g style="fill:#A90000; fill-opacity:0.0; 
stroke:#A90000; stroke-width:0.1524; stroke-opacity:1; 
stroke-linecap:round; stroke-linejoin:round;">
<g transform="rotate(-90.000000 32.9353 2.7941)">
<text x="32.9353" y="2.7941"
textLength="1.4127" font-size="1.6933" lengthAdjust="spacingAndGlyphs"
text-anchor="middle" opacity="0">3</text>
</g>
<g class="stroked-text"><desc>3</desc>
<path d="M31.5018 3.2173
L31.5018 2.4311
" />
<path d="M31.5018 2.4311
L31.9856 2.8545
" />
<path d="M31.9856 2.8545
L31.9856 2.6730
" />
<path d="M31.9856 2.6730
L32.0461 2.5521
" />
<path d="M32.0461 2.5521
L32.1066 2.4916
" />
<path d="M32.1066 2.4916
L32.2275 2.4311
" />
<path d="M32.2275 2.4311
L32.5299 2.4311
" />
<path d="M32.5299 2.4311
L32.6509 2.4916
" />
<path d="M32.6509 2.4916
L32.7114 2.5521
" />
<path d="M32.7114 2.5521
L32.7718 2.6730
" />
<path d="M32.7718 2.6730
L32.7718 3.0359
" />
<path d="M32.7718 3.0359
L32.7114 3.1568
" />
<path d="M32.7114 3.1568
L32.6509 3.2173
" />
</g></g>
<g style="fill:#840000; fill-opacity:0.0; 
stroke:#840000; stroke-width:0.1524; stroke-opacity:1; 
stroke-linecap:round; stroke-linejoin:round;">
<path d="M35.7293 14.2241
L35.7293 16.7641
" />
</g>
<g style="fill:#A90000; fill-opacity:0.0; 
stroke:#A90000; stroke-width:0.1524; stroke-opacity:1; 
stroke-linecap:round; stroke-linejoin:round;">
<g transform="rotate(-90.000000 35.4753 15.4941)">
<text x="35.4753" y="15.4941"
textLength="1.4127" font-size="1.6933" lengthAdjust="spacingAndGlyphs"
text-anchor="middle" opacity="0">4</text>
</g>
<g class="stroked-text"><desc>4</desc>
<path d="M34.4652 15.2521
L35.3118 15.2521
" />
<path d="M33.9814 15.5545
L34.8885 15.8568
" />
<path d="M34.8885 15.8568
L34.8885 15.0707
" />
</g></g>
<g style="fill:#840000; fill-opacity:0.0; 
stroke:#840000; stroke-width:0.1524; stroke-opacity:1; 
stroke-linecap:round; stroke-linejoin:round;">
<path d="M38.2693 4.0641
L38.2693 1.5241
" />
</g>
<g style="fill:#A90000; fill-opacity:0.0; 
stroke:#A90000; stroke-width:0.1524; stroke-opacity:1; 
stroke-linecap:round; stroke-linejoin:round;">
<g transform="rotate(-90.000000 38.0153 2.7941)">
<text x="38.0153" y="2.7941"
textLength="1.4127" font-size="1.6933" lengthAdjust="spacingAndGlyphs"
text-anchor="middle" opacity="0">5</text>
</g>
<g class="stroked-text"><desc>5</desc>
<path d="M36.5818 2.4916
L36.5818 3.0964
" />
<path d="M36.5818 3.0964
L37.1866 3.1568
" />
<path d="M37.1866 3.1568
L37.1261 3.0964
" />
<path d="M37.1261 3.0964
L37.0656 2.9754
" />
<path d="M37.0656 2.9754
L37.0656 2.6730
" />
<path d="M37.0656 2.6730
L37.1261 2.5521
" />
<path d="M37.1261 2.5521
L37.1866 2.4916
" />
<path d="M37.1866 2.4916
L37.3075 2.4311
" />
<path d="M37.3075 2.4311
L37.6099 2.4311
" />
<path d="M37.6099 2.4311
L37.7309 2.4916
" />
<path d="M37.7309 2.4916
L37.7914 2.5521
" />
<path d="M37.7914 2.5521
L37.8518 2.6730
" />
<path d="M37.8518 2.6730
L37.8518 2.9754
" />
<path d="M37.8518 2.9754
L37.7914 3.0964
" />
<path d="M37.7914 3.0964
L37.7309 3.1568
" />
</g></g>
<g style="fill:#840000; fill-opacity:0.0; 
stroke:#840000; stroke-width:0.1524; stroke-opacity:1; 
stroke-linecap:round; stroke-linejoin:round;">
<path d="M53.5093 4.0641
L53.5093 1.5241
" />
</g>
<g style="fill:#A90000; fill-opacity:0.0; 
stroke:#A90000; stroke-width:0.1524; stroke-opacity:1; 
stroke-linecap:round; stroke-linejoin:round;">
<g transform="rotate(-90.000000 53.2553 2.7941)">
<text x="53.2553" y="2.7941"
textLength="1.4127" font-size="1.6933" lengthAdjust="spacingAndGlyphs"
text-anchor="middle" opacity="0">6</text>
</g>
<g class="stroked-text"><desc>6</desc>
<path d="M51.8218 2.5521
L51.8218 2.7940
" />
<path d="M51.8218 2.7940
L51.8823 2.9149
" />
<path d="M51.8823 2.9149
L51.9428 2.9754
" />
<path d="M51.9428 2.9754
L52.1242 3.0964
" />
<path d="M52.1242 3.0964
L52.3661 3.1568
" />
<path d="M52.3661 3.1568
L52.8499 3.1568
" />
<path d="M52.8499 3.1568
L52.9709 3.0964
" />
<path d="M52.9709 3.0964
L53.0314 3.0359
" />
<path d="M53.0314 3.0359
L53.0918 2.9149
" />
<path d="M53.0918 2.9149
L53.0918 2.6730
" />
<path d="M53.0918 2.6730
L53.0314 2.5521
" />
<path d="M53.0314 2.5521
L52.9709 2.4916
" />
<path d="M52.9709 2.4916
L52.8499 2.4311
" />
<path d="M52.8499 2.4311
L52.5475 2.4311
" />
<path d="M52.5475 2.4311
L52.4266 2.4916
" />
<path d="M52.4266 2.4916
L52.3661 2.5521
" />
<path d="M52.3661 2.5521
L52.3056 2.6730
" />
<path d="M52.3056 2.6730
L52.3056 2.9149
" />
<path d="M52.3056 2.9149
L52.3661 3.0359
" />
<path d="M52.3661 3.0359
L52.4266 3.0964
" />
<path d="M52.4266 3.0964
L52.5475 3.1568
" />
</g></g>
<g style="fill:#840000; fill-opacity:0.0; 
stroke:#840000; stroke-width:0.1524; stroke-opacity:1; 
stroke-linecap:round; stroke-linejoin:round;">
<path d="M53.5093 14.2241
L53.5093 16.7641
" />
</g>
<g style="fill:#A90000; fill-opacity:0.0; 
stroke:#A90000; stroke-width:0.1524; stroke-opacity:1; 
stroke-linecap:round; stroke-linejoin:round;">
<g transform="rotate(-90.000000 53.2553 15.4941)">
<text x="53.2553" y="15.4941"
textLength="1.4127" font-size="1.6933" lengthAdjust="spacingAndGlyphs"
text-anchor="middle" opacity="0">7</text>
</g>
<g class="stroked-text"><desc>7</desc>
<path d="M51.8218 15.9173
L51.8218 15.0707
" />
<path d="M51.8218 15.0707
L53.0918 15.6149
" />
</g></g>
<g style="fill:#840000; fill-opacity:0.0; 
stroke:#840000; stroke-width:0.1524; stroke-opacity:1; 
stroke-linecap:round; stroke-linejoin:round;">
<path d="M48.4293 4.0641
L48.4293 1.5241
" />
</g>
<g style="fill:#A90000; fill-opacity:0.0; 
stroke:#A90000; stroke-width:0.1524; stroke-opacity:1; 
stroke-linecap:round; stroke-linejoin:round;">
<g transform="rotate(-90.000000 48.1753 2.7941)">
<text x="48.1753" y="2.7941"
textLength="1.4127" font-size="1.6933" lengthAdjust="spacingAndGlyphs"
text-anchor="middle" opacity="0">8</text>
</g>
<g class="stroked-text"><desc>8</desc>
<path d="M47.2861 2.9149
L47.2256 3.0359
" />
<path d="M47.2256 3.0359
L47.1652 3.0964
" />
<path d="M47.1652 3.0964
L47.0442 3.1568
" />
<path d="M47.0442 3.1568
L46.9837 3.1568
" />
<path d="M46.9837 3.1568
L46.8628 3.0964
" />
<path d="M46.8628 3.0964
L46.8023 3.0359
" />
<path d="M46.8023 3.0359
L46.7418 2.9149
" />
<path d="M46.7418 2.9149
L46.7418 2.6730
" />
<path d="M46.7418 2.6730
L46.8023 2.5521
" />
<path d="M46.8023 2.5521
L46.8628 2.4916
" />
<path d="M46.8628 2.4916
L46.9837 2.4311
" />
<path d="M46.9837 2.4311
L47.0442 2.4311
" />
<path d="M47.0442 2.4311
L47.1652 2.4916
" />
<path d="M47.1652 2.4916
L47.2256 2.5521
" />
<path d="M47.2256 2.5521
L47.2861 2.6730
" />
<path d="M47.2861 2.6730
L47.2861 2.9149
" />
<path d="M47.2861 2.9149
L47.3466 3.0359
" />
<path d="M47.3466 3.0359
L47.4071 3.0964
" />
<path d="M47.4071 3.0964
L47.5280 3.1568
" />
<path d="M47.5280 3.1568
L47.7699 3.1568
" />
<path d="M47.7699 3.1568
L47.8909 3.0964
" />
<path d="M47.8909 3.0964
L47.9514 3.0359
" />
<path d="M47.9514 3.0359
L48.0118 2.9149
" />
<path d="M48.0118 2.9149
L48.0118 2.6730
" />
<path d="M48.0118 2.6730
L47.9514 2.5521
" />
<path d="M47.9514 2.5521
L47.8909 2.4916
" />
<path d="M47.8909 2.4916
L47.7699 2.4311
" />
<path d="M47.7699 2.4311
L47.5280 2.4311
" />
<path d="M47.5280 2.4311
L47.4071 2.4916
" />
<path d="M47.4071 2.4916
L47.3466 2.5521
" />
<path d="M47.3466 2.5521
L47.2861 2.6730
" />
</g></g>
<g style="fill:#840000; fill-opacity:0.0; 
stroke:#840000; stroke-width:0.1524; stroke-opacity:1; 
stroke-linecap:round; stroke-linejoin:round;">
<path d="M45.8893 14.2241
L45.8893 16.7641
" />
</g>
<g style="fill:#A90000; fill-opacity:0.0; 
stroke:#A90000; stroke-width:0.1524; stroke-opacity:1; 
stroke-linecap:round; stroke-linejoin:round;">
<g transform="rotate(-90.000000 45.6353 15.4941)">
<text x="45.6353" y="15.4941"
textLength="1.4127" font-size="1.6933" lengthAdjust="spacingAndGlyphs"
text-anchor="middle" opacity="0">9</text>
</g>
<g class="stroked-text"><desc>9</desc>
<path d="M45.4718 15.7359
L45.4718 15.4940
" />
<path d="M45.4718 15.4940
L45.4114 15.3730
" />
<path d="M45.4114 15.3730
L45.3509 15.3126
" />
<path d="M45.3509 15.3126
L45.1694 15.1916
" />
<path d="M45.1694 15.1916
L44.9275 15.1311
" />
<path d="M44.9275 15.1311
L44.4437 15.1311
" />
<path d="M44.4437 15.1311
L44.3228 15.1916
" />
<path d="M44.3228 15.1916
L44.2623 15.2521
" />
<path d="M44.2623 15.2521
L44.2018 15.3730
" />
<path d="M44.2018 15.3730
L44.2018 15.6149
" />
<path d="M44.2018 15.6149
L44.2623 15.7359
" />
<path d="M44.2623 15.7359
L44.3228 15.7964
" />
<path d="M44.3228 15.7964
L44.4437 15.8568
" />
<path d="M44.4437 15.8568
L44.7461 15.8568
" />
<path d="M44.7461 15.8568
L44.8671 15.7964
" />
<path d="M44.8671 15.7964
L44.9275 15.7359
" />
<path d="M44.9275 15.7359
L44.9880 15.6149
" />
<path d="M44.9880 15.6149
L44.9880 15.3730
" />
<path d="M44.9880 15.3730
L44.9275 15.2521
" />
<path d="M44.9275 15.2521
L44.8671 15.1916
" />
<path d="M44.8671 15.1916
L44.7461 15.1311
" />
</g></g>
<g style="fill:#840084; fill-opacity:0.0; 
stroke:#840084; stroke-width:0.1524; stroke-opacity:1; 
stroke-linecap:round; stroke-linejoin:round;">
</g>
<g style="fill:#006464; fill-opacity:0.0; 
stroke:#006464; stroke-width:0.1524; stroke-opacity:1; 
stroke-linecap:round; stroke-linejoin:round;">
</g>
<g style="fill:#006464; fill-opacity:0.0; 
stroke:#006464; stroke-width:0.1588; stroke-opacity:1; 
stroke-linecap:round; stroke-linejoin:round;">
<text x="61.1498" y="5.9691"
textLength="2.5810" font-size="1.6933" lengthAdjust="spacingAndGlyphs"
text-anchor="middle" opacity="0">K?</text>
<g class="stroked-text"><desc>K?</desc>
<path d="M60.2728 5.9133
L60.2728 4.6433
" />
<path d="M60.9985 5.9133
L60.4543 5.1876
" />
<path d="M60.9985 4.6433
L60.2728 5.3690
" />
<path d="M61.7243 5.7924
L61.7847 5.8529
" />
<path d="M61.7847 5.8529
L61.7243 5.9133
" />
<path d="M61.7243 5.9133
L61.6638 5.8529
" />
<path d="M61.6638 5.8529
L61.7243 5.7924
" />
<path d="M61.7243 5.7924
L61.7243 5.9133
" />
<path d="M61.4824 4.7038
L61.6033 4.6433
" />
<path d="M61.6033 4.6433
L61.9057 4.6433
" />
<path d="M61.9057 4.6433
L62.0266 4.7038
" />
<path d="M62.0266 4.7038
L62.0871 4.8248
" />
<path d="M62.0871 4.8248
L62.0871 4.9457
" />
<path d="M62.0871 4.9457
L62.0266 5.0667
" />
<path d="M62.0266 5.0667
L61.9662 5.1271
" />
<path d="M61.9662 5.1271
L61.8452 5.1876
" />
<path d="M61.8452 5.1876
L61.7847 5.2481
" />
<path d="M61.7847 5.2481
L61.7243 5.3690
" />
<path d="M61.7243 5.3690
L61.7243 5.4295
" />
</g><text x="63.8409" y="8.5091"
textLength="7.9633" font-size="1.6933" lengthAdjust="spacingAndGlyphs"
text-anchor="middle" opacity="0">G6SK-2</text>
<g class="stroked-text"><desc>G6SK-2</desc>
<path d="M60.9381 7.2438
L60.8171 7.1833
" />
<path d="M60.8171 7.1833
L60.6357 7.1833
" />
<path d="M60.6357 7.1833
L60.4543 7.2438
" />
<path d="M60.4543 7.2438
L60.3333 7.3648
" />
<path d="M60.3333 7.3648
L60.2728 7.4857
" />
<path d="M60.2728 7.4857
L60.2124 7.7276
" />
<path d="M60.2124 7.7276
L60.2124 7.9090
" />
<path d="M60.2124 7.9090
L60.2728 8.1509
" />
<path d="M60.2728 8.1509
L60.3333 8.2719
" />
<path d="M60.3333 8.2719
L60.4543 8.3929
" />
<path d="M60.4543 8.3929
L60.6357 8.4533
" />
<path d="M60.6357 8.4533
L60.7566 8.4533
" />
<path d="M60.7566 8.4533
L60.9381 8.3929
" />
<path d="M60.9381 8.3929
L60.9985 8.3324
" />
<path d="M60.9985 8.3324
L60.9985 7.9090
" />
<path d="M60.9985 7.9090
L60.7566 7.9090
" />
<path d="M62.0871 7.1833
L61.8452 7.1833
" />
<path d="M61.8452 7.1833
L61.7243 7.2438
" />
<path d="M61.7243 7.2438
L61.6638 7.3043
" />
<path d="M61.6638 7.3043
L61.5428 7.4857
" />
<path d="M61.5428 7.4857
L61.4824 7.7276
" />
<path d="M61.4824 7.7276
L61.4824 8.2114
" />
<path d="M61.4824 8.2114
L61.5428 8.3324
" />
<path d="M61.5428 8.3324
L61.6033 8.3929
" />
<path d="M61.6033 8.3929
L61.7243 8.4533
" />
<path d="M61.7243 8.4533
L61.9662 8.4533
" />
<path d="M61.9662 8.4533
L62.0871 8.3929
" />
<path d="M62.0871 8.3929
L62.1476 8.3324
" />
<path d="M62.1476 8.3324
L62.2081 8.2114
" />
<path d="M62.2081 8.2114
L62.2081 7.9090
" />
<path d="M62.2081 7.9090
L62.1476 7.7881
" />
<path d="M62.1476 7.7881
L62.0871 7.7276
" />
<path d="M62.0871 7.7276
L61.9662 7.6671
" />
<path d="M61.9662 7.6671
L61.7243 7.6671
" />
<path d="M61.7243 7.6671
L61.6033 7.7276
" />
<path d="M61.6033 7.7276
L61.5428 7.7881
" />
<path d="M61.5428 7.7881
L61.4824 7.9090
" />
<path d="M62.6919 8.3929
L62.8733 8.4533
" />
<path d="M62.8733 8.4533
L63.1757 8.4533
" />
<path d="M63.1757 8.4533
L63.2966 8.3929
" />
<path d="M63.2966 8.3929
L63.3571 8.3324
" />
<path d="M63.3571 8.3324
L63.4176 8.2114
" />
<path d="M63.4176 8.2114
L63.4176 8.0905
" />
<path d="M63.4176 8.0905
L63.3571 7.9695
" />
<path d="M63.3571 7.9695
L63.2966 7.9090
" />
<path d="M63.2966 7.9090
L63.1757 7.8486
" />
<path d="M63.1757 7.8486
L62.9338 7.7881
" />
<path d="M62.9338 7.7881
L62.8128 7.7276
" />
<path d="M62.8128 7.7276
L62.7523 7.6671
" />
<path d="M62.7523 7.6671
L62.6919 7.5462
" />
<path d="M62.6919 7.5462
L62.6919 7.4252
" />
<path d="M62.6919 7.4252
L62.7523 7.3043
" />
<path d="M62.7523 7.3043
L62.8128 7.2438
" />
<path d="M62.8128 7.2438
L62.9338 7.1833
" />
<path d="M62.9338 7.1833
L63.2361 7.1833
" />
<path d="M63.2361 7.1833
L63.4176 7.2438
" />
<path d="M63.9618 8.4533
L63.9618 7.1833
" />
<path d="M64.6875 8.4533
L64.1433 7.7276
" />
<path d="M64.6875 7.1833
L63.9618 7.9090
" />
<path d="M65.2318 7.9695
L66.1995 7.9695
" />
<path d="M66.7438 7.3043
L66.8042 7.2438
" />
<path d="M66.8042 7.2438
L66.9252 7.1833
" />
<path d="M66.9252 7.1833
L67.2276 7.1833
" />
<path d="M67.2276 7.1833
L67.3485 7.2438
" />
<path d="M67.3485 7.2438
L67.4090 7.3043
" />
<path d="M67.4090 7.3043
L67.4695 7.4252
" />
<path d="M67.4695 7.4252
L67.4695 7.5462
" />
<path d="M67.4695 7.5462
L67.4090 7.7276
" />
<path d="M67.4090 7.7276
L66.6833 8.4533
" />
<path d="M66.6833 8.4533
L67.4695 8.4533
" />
</g></g>
<g style="fill:#840084; fill-opacity:0.0; 
stroke:#840084; stroke-width:0.1588; stroke-opacity:1; 
stroke-linecap:round; stroke-linejoin:round;">
<text x="38.2693" y="9.7791"
textLength="63.7822" font-size="1.6933" lengthAdjust="spacingAndGlyphs"
text-anchor="middle" opacity="0">http://omronfs.omron.com/en_US/ecb/products/pdf/en-g6s.pdf</text>
<g class="stroked-text"><desc>http://omronfs.omron.com/en_US/ecb/products/pdf/en-g6s.pdf</desc>
<path d="M6.7917 9.7233
L6.7917 8.4533
" />
<path d="M7.3360 9.7233
L7.3360 9.0581
" />
<path d="M7.3360 9.0581
L7.2755 8.9371
" />
<path d="M7.2755 8.9371
L7.1546 8.8767
" />
<path d="M7.1546 8.8767
L6.9732 8.8767
" />
<path d="M6.9732 8.8767
L6.8522 8.9371
" />
<path d="M6.8522 8.9371
L6.7917 8.9976
" />
<path d="M7.7593 8.8767
L8.2431 8.8767
" />
<path d="M7.9407 8.4533
L7.9407 9.5419
" />
<path d="M7.9407 9.5419
L8.0012 9.6629
" />
<path d="M8.0012 9.6629
L8.1222 9.7233
" />
<path d="M8.1222 9.7233
L8.2431 9.7233
" />
<path d="M8.4850 8.8767
L8.9688 8.8767
" />
<path d="M8.6664 8.4533
L8.6664 9.5419
" />
<path d="M8.6664 9.5419
L8.7269 9.6629
" />
<path d="M8.7269 9.6629
L8.8479 9.7233
" />
<path d="M8.8479 9.7233
L8.9688 9.7233
" />
<path d="M9.3921 8.8767
L9.3921 10.1467
" />
<path d="M9.3921 8.9371
L9.5131 8.8767
" />
<path d="M9.5131 8.8767
L9.7550 8.8767
" />
<path d="M9.7550 8.8767
L9.8759 8.9371
" />
<path d="M9.8759 8.9371
L9.9364 8.9976
" />
<path d="M9.9364 8.9976
L9.9969 9.1186
" />
<path d="M9.9969 9.1186
L9.9969 9.4814
" />
<path d="M9.9969 9.4814
L9.9364 9.6024
" />
<path d="M9.9364 9.6024
L9.8759 9.6629
" />
<path d="M9.8759 9.6629
L9.7550 9.7233
" />
<path d="M9.7550 9.7233
L9.5131 9.7233
" />
<path d="M9.5131 9.7233
L9.3921 9.6629
" />
<path d="M10.5411 9.6024
L10.6016 9.6629
" />
<path d="M10.6016 9.6629
L10.5411 9.7233
" />
<path d="M10.5411 9.7233
L10.4807 9.6629
" />
<path d="M10.4807 9.6629
L10.5411 9.6024
" />
<path d="M10.5411 9.6024
L10.5411 9.7233
" />
<path d="M10.5411 8.9371
L10.6016 8.9976
" />
<path d="M10.6016 8.9976
L10.5411 9.0581
" />
<path d="M10.5411 9.0581
L10.4807 8.9976
" />
<path d="M10.4807 8.9976
L10.5411 8.9371
" />
<path d="M10.5411 8.9371
L10.5411 9.0581
" />
<path d="M12.0531 8.3929
L10.9645 10.0257
" />
<path d="M13.3836 8.3929
L12.2950 10.0257
" />
<path d="M13.9884 9.7233
L13.8674 9.6629
" />
<path d="M13.8674 9.6629
L13.8069 9.6024
" />
<path d="M13.8069 9.6024
L13.7465 9.4814
" />
<path d="M13.7465 9.4814
L13.7465 9.1186
" />
<path d="M13.7465 9.1186
L13.8069 8.9976
" />
<path d="M13.8069 8.9976
L13.8674 8.9371
" />
<path d="M13.8674 8.9371
L13.9884 8.8767
" />
<path d="M13.9884 8.8767
L14.1698 8.8767
" />
<path d="M14.1698 8.8767
L14.2907 8.9371
" />
<path d="M14.2907 8.9371
L14.3512 8.9976
" />
<path d="M14.3512 8.9976
L14.4117 9.1186
" />
<path d="M14.4117 9.1186
L14.4117 9.4814
" />
<path d="M14.4117 9.4814
L14.3512 9.6024
" />
<path d="M14.3512 9.6024
L14.2907 9.6629
" />
<path d="M14.2907 9.6629
L14.1698 9.7233
" />
<path d="M14.1698 9.7233
L13.9884 9.7233
" />
<path d="M14.9559 9.7233
L14.9559 8.8767
" />
<path d="M14.9559 8.9976
L15.0164 8.9371
" />
<path d="M15.0164 8.9371
L15.1374 8.8767
" />
<path d="M15.1374 8.8767
L15.3188 8.8767
" />
<path d="M15.3188 8.8767
L15.4397 8.9371
" />
<path d="M15.4397 8.9371
L15.5002 9.0581
" />
<path d="M15.5002 9.0581
L15.5002 9.7233
" />
<path d="M15.5002 9.0581
L15.5607 8.9371
" />
<path d="M15.5607 8.9371
L15.6816 8.8767
" />
<path d="M15.6816 8.8767
L15.8631 8.8767
" />
<path d="M15.8631 8.8767
L15.9840 8.9371
" />
<path d="M15.9840 8.9371
L16.0445 9.0581
" />
<path d="M16.0445 9.0581
L16.0445 9.7233
" />
<path d="M16.6492 9.7233
L16.6492 8.8767
" />
<path d="M16.6492 9.1186
L16.7097 8.9976
" />
<path d="M16.7097 8.9976
L16.7702 8.9371
" />
<path d="M16.7702 8.9371
L16.8911 8.8767
" />
<path d="M16.8911 8.8767
L17.0121 8.8767
" />
<path d="M17.6169 9.7233
L17.4959 9.6629
" />
<path d="M17.4959 9.6629
L17.4354 9.6024
" />
<path d="M17.4354 9.6024
L17.3750 9.4814
" />
<path d="M17.3750 9.4814
L17.3750 9.1186
" />
<path d="M17.3750 9.1186
L17.4354 8.9976
" />
<path d="M17.4354 8.9976
L17.4959 8.9371
" />
<path d="M17.4959 8.9371
L17.6169 8.8767
" />
<path d="M17.6169 8.8767
L17.7983 8.8767
" />
<path d="M17.7983 8.8767
L17.9192 8.9371
" />
<path d="M17.9192 8.9371
L17.9797 8.9976
" />
<path d="M17.9797 8.9976
L18.0402 9.1186
" />
<path d="M18.0402 9.1186
L18.0402 9.4814
" />
<path d="M18.0402 9.4814
L17.9797 9.6024
" />
<path d="M17.9797 9.6024
L17.9192 9.6629
" />
<path d="M17.9192 9.6629
L17.7983 9.7233
" />
<path d="M17.7983 9.7233
L17.6169 9.7233
" />
<path d="M18.5844 8.8767
L18.5844 9.7233
" />
<path d="M18.5844 8.9976
L18.6449 8.9371
" />
<path d="M18.6449 8.9371
L18.7659 8.8767
" />
<path d="M18.7659 8.8767
L18.9473 8.8767
" />
<path d="M18.9473 8.8767
L19.0682 8.9371
" />
<path d="M19.0682 8.9371
L19.1287 9.0581
" />
<path d="M19.1287 9.0581
L19.1287 9.7233
" />
<path d="M19.5520 8.8767
L20.0358 8.8767
" />
<path d="M19.7334 9.7233
L19.7334 8.6348
" />
<path d="M19.7334 8.6348
L19.7939 8.5138
" />
<path d="M19.7939 8.5138
L19.9149 8.4533
" />
<path d="M19.9149 8.4533
L20.0358 8.4533
" />
<path d="M20.3987 9.6629
L20.5196 9.7233
" />
<path d="M20.5196 9.7233
L20.7615 9.7233
" />
<path d="M20.7615 9.7233
L20.8825 9.6629
" />
<path d="M20.8825 9.6629
L20.9429 9.5419
" />
<path d="M20.9429 9.5419
L20.9429 9.4814
" />
<path d="M20.9429 9.4814
L20.8825 9.3605
" />
<path d="M20.8825 9.3605
L20.7615 9.3000
" />
<path d="M20.7615 9.3000
L20.5801 9.3000
" />
<path d="M20.5801 9.3000
L20.4591 9.2395
" />
<path d="M20.4591 9.2395
L20.3987 9.1186
" />
<path d="M20.3987 9.1186
L20.3987 9.0581
" />
<path d="M20.3987 9.0581
L20.4591 8.9371
" />
<path d="M20.4591 8.9371
L20.5801 8.8767
" />
<path d="M20.5801 8.8767
L20.7615 8.8767
" />
<path d="M20.7615 8.8767
L20.8825 8.9371
" />
<path d="M21.4872 9.6024
L21.5477 9.6629
" />
<path d="M21.5477 9.6629
L21.4872 9.7233
" />
<path d="M21.4872 9.7233
L21.4268 9.6629
" />
<path d="M21.4268 9.6629
L21.4872 9.6024
" />
<path d="M21.4872 9.6024
L21.4872 9.7233
" />
<path d="M22.2735 9.7233
L22.1525 9.6629
" />
<path d="M22.1525 9.6629
L22.0920 9.6024
" />
<path d="M22.0920 9.6024
L22.0316 9.4814
" />
<path d="M22.0316 9.4814
L22.0316 9.1186
" />
<path d="M22.0316 9.1186
L22.0920 8.9976
" />
<path d="M22.0920 8.9976
L22.1525 8.9371
" />
<path d="M22.1525 8.9371
L22.2735 8.8767
" />
<path d="M22.2735 8.8767
L22.4549 8.8767
" />
<path d="M22.4549 8.8767
L22.5758 8.9371
" />
<path d="M22.5758 8.9371
L22.6363 8.9976
" />
<path d="M22.6363 8.9976
L22.6968 9.1186
" />
<path d="M22.6968 9.1186
L22.6968 9.4814
" />
<path d="M22.6968 9.4814
L22.6363 9.6024
" />
<path d="M22.6363 9.6024
L22.5758 9.6629
" />
<path d="M22.5758 9.6629
L22.4549 9.7233
" />
<path d="M22.4549 9.7233
L22.2735 9.7233
" />
<path d="M23.2410 9.7233
L23.2410 8.8767
" />
<path d="M23.2410 8.9976
L23.3015 8.9371
" />
<path d="M23.3015 8.9371
L23.4225 8.8767
" />
<path d="M23.4225 8.8767
L23.6039 8.8767
" />
<path d="M23.6039 8.8767
L23.7248 8.9371
" />
<path d="M23.7248 8.9371
L23.7853 9.0581
" />
<path d="M23.7853 9.0581
L23.7853 9.7233
" />
<path d="M23.7853 9.0581
L23.8458 8.9371
" />
<path d="M23.8458 8.9371
L23.9667 8.8767
" />
<path d="M23.9667 8.8767
L24.1482 8.8767
" />
<path d="M24.1482 8.8767
L24.2691 8.9371
" />
<path d="M24.2691 8.9371
L24.3296 9.0581
" />
<path d="M24.3296 9.0581
L24.3296 9.7233
" />
<path d="M24.9343 9.7233
L24.9343 8.8767
" />
<path d="M24.9343 9.1186
L24.9948 8.9976
" />
<path d="M24.9948 8.9976
L25.0553 8.9371
" />
<path d="M25.0553 8.9371
L25.1762 8.8767
" />
<path d="M25.1762 8.8767
L25.2972 8.8767
" />
<path d="M25.9020 9.7233
L25.7810 9.6629
" />
<path d="M25.7810 9.6629
L25.7205 9.6024
" />
<path d="M25.7205 9.6024
L25.6601 9.4814
" />
<path d="M25.6601 9.4814
L25.6601 9.1186
" />
<path d="M25.6601 9.1186
L25.7205 8.9976
" />
<path d="M25.7205 8.9976
L25.7810 8.9371
" />
<path d="M25.7810 8.9371
L25.9020 8.8767
" />
<path d="M25.9020 8.8767
L26.0834 8.8767
" />
<path d="M26.0834 8.8767
L26.2043 8.9371
" />
<path d="M26.2043 8.9371
L26.2648 8.9976
" />
<path d="M26.2648 8.9976
L26.3253 9.1186
" />
<path d="M26.3253 9.1186
L26.3253 9.4814
" />
<path d="M26.3253 9.4814
L26.2648 9.6024
" />
<path d="M26.2648 9.6024
L26.2043 9.6629
" />
<path d="M26.2043 9.6629
L26.0834 9.7233
" />
<path d="M26.0834 9.7233
L25.9020 9.7233
" />
<path d="M26.8695 8.8767
L26.8695 9.7233
" />
<path d="M26.8695 8.9976
L26.9300 8.9371
" />
<path d="M26.9300 8.9371
L27.0510 8.8767
" />
<path d="M27.0510 8.8767
L27.2324 8.8767
" />
<path d="M27.2324 8.8767
L27.3533 8.9371
" />
<path d="M27.3533 8.9371
L27.4138 9.0581
" />
<path d="M27.4138 9.0581
L27.4138 9.7233
" />
<path d="M28.0185 9.6024
L28.0790 9.6629
" />
<path d="M28.0790 9.6629
L28.0185 9.7233
" />
<path d="M28.0185 9.7233
L27.9581 9.6629
" />
<path d="M27.9581 9.6629
L28.0185 9.6024
" />
<path d="M28.0185 9.6024
L28.0185 9.7233
" />
<path d="M29.1676 9.6629
L29.0467 9.7233
" />
<path d="M29.0467 9.7233
L28.8048 9.7233
" />
<path d="M28.8048 9.7233
L28.6838 9.6629
" />
<path d="M28.6838 9.6629
L28.6233 9.6024
" />
<path d="M28.6233 9.6024
L28.5629 9.4814
" />
<path d="M28.5629 9.4814
L28.5629 9.1186
" />
<path d="M28.5629 9.1186
L28.6233 8.9976
" />
<path d="M28.6233 8.9976
L28.6838 8.9371
" />
<path d="M28.6838 8.9371
L28.8048 8.8767
" />
<path d="M28.8048 8.8767
L29.0467 8.8767
" />
<path d="M29.0467 8.8767
L29.1676 8.9371
" />
<path d="M29.8934 9.7233
L29.7724 9.6629
" />
<path d="M29.7724 9.6629
L29.7119 9.6024
" />
<path d="M29.7119 9.6024
L29.6515 9.4814
" />
<path d="M29.6515 9.4814
L29.6515 9.1186
" />
<path d="M29.6515 9.1186
L29.7119 8.9976
" />
<path d="M29.7119 8.9976
L29.7724 8.9371
" />
<path d="M29.7724 8.9371
L29.8934 8.8767
" />
<path d="M29.8934 8.8767
L30.0748 8.8767
" />
<path d="M30.0748 8.8767
L30.1957 8.9371
" />
<path d="M30.1957 8.9371
L30.2562 8.9976
" />
<path d="M30.2562 8.9976
L30.3167 9.1186
" />
<path d="M30.3167 9.1186
L30.3167 9.4814
" />
<path d="M30.3167 9.4814
L30.2562 9.6024
" />
<path d="M30.2562 9.6024
L30.1957 9.6629
" />
<path d="M30.1957 9.6629
L30.0748 9.7233
" />
<path d="M30.0748 9.7233
L29.8934 9.7233
" />
<path d="M30.8609 9.7233
L30.8609 8.8767
" />
<path d="M30.8609 8.9976
L30.9214 8.9371
" />
<path d="M30.9214 8.9371
L31.0424 8.8767
" />
<path d="M31.0424 8.8767
L31.2238 8.8767
" />
<path d="M31.2238 8.8767
L31.3447 8.9371
" />
<path d="M31.3447 8.9371
L31.4052 9.0581
" />
<path d="M31.4052 9.0581
L31.4052 9.7233
" />
<path d="M31.4052 9.0581
L31.4657 8.9371
" />
<path d="M31.4657 8.9371
L31.5866 8.8767
" />
<path d="M31.5866 8.8767
L31.7681 8.8767
" />
<path d="M31.7681 8.8767
L31.8890 8.9371
" />
<path d="M31.8890 8.9371
L31.9495 9.0581
" />
<path d="M31.9495 9.0581
L31.9495 9.7233
" />
<path d="M33.4614 8.3929
L32.3728 10.0257
" />
<path d="M34.3685 9.6629
L34.2476 9.7233
" />
<path d="M34.2476 9.7233
L34.0057 9.7233
" />
<path d="M34.0057 9.7233
L33.8847 9.6629
" />
<path d="M33.8847 9.6629
L33.8243 9.5419
" />
<path d="M33.8243 9.5419
L33.8243 9.0581
" />
<path d="M33.8243 9.0581
L33.8847 8.9371
" />
<path d="M33.8847 8.9371
L34.0057 8.8767
" />
<path d="M34.0057 8.8767
L34.2476 8.8767
" />
<path d="M34.2476 8.8767
L34.3685 8.9371
" />
<path d="M34.3685 8.9371
L34.4290 9.0581
" />
<path d="M34.4290 9.0581
L34.4290 9.1790
" />
<path d="M34.4290 9.1790
L33.8243 9.3000
" />
<path d="M34.9733 8.8767
L34.9733 9.7233
" />
<path d="M34.9733 8.9976
L35.0338 8.9371
" />
<path d="M35.0338 8.9371
L35.1548 8.8767
" />
<path d="M35.1548 8.8767
L35.3362 8.8767
" />
<path d="M35.3362 8.8767
L35.4571 8.9371
" />
<path d="M35.4571 8.9371
L35.5176 9.0581
" />
<path d="M35.5176 9.0581
L35.5176 9.7233
" />
<path d="M35.8200 9.8443
L36.7876 9.8443
" />
<path d="M37.0899 8.4533
L37.0899 9.4814
" />
<path d="M37.0899 9.4814
L37.1504 9.6024
" />
<path d="M37.1504 9.6024
L37.2109 9.6629
" />
<path d="M37.2109 9.6629
L37.3318 9.7233
" />
<path d="M37.3318 9.7233
L37.5737 9.7233
" />
<path d="M37.5737 9.7233
L37.6947 9.6629
" />
<path d="M37.6947 9.6629
L37.7552 9.6024
" />
<path d="M37.7552 9.6024
L37.8156 9.4814
" />
<path d="M37.8156 9.4814
L37.8156 8.4533
" />
<path d="M38.3600 9.6629
L38.5414 9.7233
" />
<path d="M38.5414 9.7233
L38.8438 9.7233
" />
<path d="M38.8438 9.7233
L38.9647 9.6629
" />
<path d="M38.9647 9.6629
L39.0252 9.6024
" />
<path d="M39.0252 9.6024
L39.0857 9.4814
" />
<path d="M39.0857 9.4814
L39.0857 9.3605
" />
<path d="M39.0857 9.3605
L39.0252 9.2395
" />
<path d="M39.0252 9.2395
L38.9647 9.1790
" />
<path d="M38.9647 9.1790
L38.8438 9.1186
" />
<path d="M38.8438 9.1186
L38.6019 9.0581
" />
<path d="M38.6019 9.0581
L38.4809 8.9976
" />
<path d="M38.4809 8.9976
L38.4204 8.9371
" />
<path d="M38.4204 8.9371
L38.3600 8.8162
" />
<path d="M38.3600 8.8162
L38.3600 8.6952
" />
<path d="M38.3600 8.6952
L38.4204 8.5743
" />
<path d="M38.4204 8.5743
L38.4809 8.5138
" />
<path d="M38.4809 8.5138
L38.6019 8.4533
" />
<path d="M38.6019 8.4533
L38.9042 8.4533
" />
<path d="M38.9042 8.4533
L39.0857 8.5138
" />
<path d="M40.5371 8.3929
L39.4485 10.0257
" />
<path d="M41.4442 9.6629
L41.3233 9.7233
" />
<path d="M41.3233 9.7233
L41.0814 9.7233
" />
<path d="M41.0814 9.7233
L40.9604 9.6629
" />
<path d="M40.9604 9.6629
L40.9000 9.5419
" />
<path d="M40.9000 9.5419
L40.9000 9.0581
" />
<path d="M40.9000 9.0581
L40.9604 8.9371
" />
<path d="M40.9604 8.9371
L41.0814 8.8767
" />
<path d="M41.0814 8.8767
L41.3233 8.8767
" />
<path d="M41.3233 8.8767
L41.4442 8.9371
" />
<path d="M41.4442 8.9371
L41.5047 9.0581
" />
<path d="M41.5047 9.0581
L41.5047 9.1790
" />
<path d="M41.5047 9.1790
L40.9000 9.3000
" />
<path d="M42.5933 9.6629
L42.4724 9.7233
" />
<path d="M42.4724 9.7233
L42.2305 9.7233
" />
<path d="M42.2305 9.7233
L42.1095 9.6629
" />
<path d="M42.1095 9.6629
L42.0490 9.6024
" />
<path d="M42.0490 9.6024
L41.9886 9.4814
" />
<path d="M41.9886 9.4814
L41.9886 9.1186
" />
<path d="M41.9886 9.1186
L42.0490 8.9976
" />
<path d="M42.0490 8.9976
L42.1095 8.9371
" />
<path d="M42.1095 8.9371
L42.2305 8.8767
" />
<path d="M42.2305 8.8767
L42.4724 8.8767
" />
<path d="M42.4724 8.8767
L42.5933 8.9371
" />
<path d="M43.1376 9.7233
L43.1376 8.4533
" />
<path d="M43.1376 8.9371
L43.2586 8.8767
" />
<path d="M43.2586 8.8767
L43.5005 8.8767
" />
<path d="M43.5005 8.8767
L43.6214 8.9371
" />
<path d="M43.6214 8.9371
L43.6819 8.9976
" />
<path d="M43.6819 8.9976
L43.7424 9.1186
" />
<path d="M43.7424 9.1186
L43.7424 9.4814
" />
<path d="M43.7424 9.4814
L43.6819 9.6024
" />
<path d="M43.6819 9.6024
L43.6214 9.6629
" />
<path d="M43.6214 9.6629
L43.5005 9.7233
" />
<path d="M43.5005 9.7233
L43.2586 9.7233
" />
<path d="M43.2586 9.7233
L43.1376 9.6629
" />
<path d="M45.1938 8.3929
L44.1052 10.0257
" />
<path d="M45.6171 8.8767
L45.6171 10.1467
" />
<path d="M45.6171 8.9371
L45.7381 8.8767
" />
<path d="M45.7381 8.8767
L45.9800 8.8767
" />
<path d="M45.9800 8.8767
L46.1009 8.9371
" />
<path d="M46.1009 8.9371
L46.1614 8.9976
" />
<path d="M46.1614 8.9976
L46.2219 9.1186
" />
<path d="M46.2219 9.1186
L46.2219 9.4814
" />
<path d="M46.2219 9.4814
L46.1614 9.6024
" />
<path d="M46.1614 9.6024
L46.1009 9.6629
" />
<path d="M46.1009 9.6629
L45.9800 9.7233
" />
<path d="M45.9800 9.7233
L45.7381 9.7233
" />
<path d="M45.7381 9.7233
L45.6171 9.6629
" />
<path d="M46.7661 9.7233
L46.7661 8.8767
" />
<path d="M46.7661 9.1186
L46.8266 8.9976
" />
<path d="M46.8266 8.9976
L46.8871 8.9371
" />
<path d="M46.8871 8.9371
L47.0080 8.8767
" />
<path d="M47.0080 8.8767
L47.1290 8.8767
" />
<path d="M47.7338 9.7233
L47.6128 9.6629
" />
<path d="M47.6128 9.6629
L47.5523 9.6024
" />
<path d="M47.5523 9.6024
L47.4919 9.4814
" />
<path d="M47.4919 9.4814
L47.4919 9.1186
" />
<path d="M47.4919 9.1186
L47.5523 8.9976
" />
<path d="M47.5523 8.9976
L47.6128 8.9371
" />
<path d="M47.6128 8.9371
L47.7338 8.8767
" />
<path d="M47.7338 8.8767
L47.9152 8.8767
" />
<path d="M47.9152 8.8767
L48.0361 8.9371
" />
<path d="M48.0361 8.9371
L48.0966 8.9976
" />
<path d="M48.0966 8.9976
L48.1571 9.1186
" />
<path d="M48.1571 9.1186
L48.1571 9.4814
" />
<path d="M48.1571 9.4814
L48.0966 9.6024
" />
<path d="M48.0966 9.6024
L48.0361 9.6629
" />
<path d="M48.0361 9.6629
L47.9152 9.7233
" />
<path d="M47.9152 9.7233
L47.7338 9.7233
" />
<path d="M49.2456 9.7233
L49.2456 8.4533
" />
<path d="M49.2456 9.6629
L49.1247 9.7233
" />
<path d="M49.1247 9.7233
L48.8828 9.7233
" />
<path d="M48.8828 9.7233
L48.7618 9.6629
" />
<path d="M48.7618 9.6629
L48.7013 9.6024
" />
<path d="M48.7013 9.6024
L48.6409 9.4814
" />
<path d="M48.6409 9.4814
L48.6409 9.1186
" />
<path d="M48.6409 9.1186
L48.7013 8.9976
" />
<path d="M48.7013 8.9976
L48.7618 8.9371
" />
<path d="M48.7618 8.9371
L48.8828 8.8767
" />
<path d="M48.8828 8.8767
L49.1247 8.8767
" />
<path d="M49.1247 8.8767
L49.2456 8.9371
" />
<path d="M50.3946 8.8767
L50.3946 9.7233
" />
<path d="M49.8503 8.8767
L49.8503 9.5419
" />
<path d="M49.8503 9.5419
L49.9108 9.6629
" />
<path d="M49.9108 9.6629
L50.0318 9.7233
" />
<path d="M50.0318 9.7233
L50.2132 9.7233
" />
<path d="M50.2132 9.7233
L50.3341 9.6629
" />
<path d="M50.3341 9.6629
L50.3946 9.6024
" />
<path d="M51.5436 9.6629
L51.4227 9.7233
" />
<path d="M51.4227 9.7233
L51.1808 9.7233
" />
<path d="M51.1808 9.7233
L51.0598 9.6629
" />
<path d="M51.0598 9.6629
L50.9993 9.6024
" />
<path d="M50.9993 9.6024
L50.9389 9.4814
" />
<path d="M50.9389 9.4814
L50.9389 9.1186
" />
<path d="M50.9389 9.1186
L50.9993 8.9976
" />
<path d="M50.9993 8.9976
L51.0598 8.9371
" />
<path d="M51.0598 8.9371
L51.1808 8.8767
" />
<path d="M51.1808 8.8767
L51.4227 8.8767
" />
<path d="M51.4227 8.8767
L51.5436 8.9371
" />
<path d="M51.9065 8.8767
L52.3903 8.8767
" />
<path d="M52.0879 8.4533
L52.0879 9.5419
" />
<path d="M52.0879 9.5419
L52.1484 9.6629
" />
<path d="M52.1484 9.6629
L52.2694 9.7233
" />
<path d="M52.2694 9.7233
L52.3903 9.7233
" />
<path d="M52.7532 9.6629
L52.8741 9.7233
" />
<path d="M52.8741 9.7233
L53.1160 9.7233
" />
<path d="M53.1160 9.7233
L53.2370 9.6629
" />
<path d="M53.2370 9.6629
L53.2974 9.5419
" />
<path d="M53.2974 9.5419
L53.2974 9.4814
" />
<path d="M53.2974 9.4814
L53.2370 9.3605
" />
<path d="M53.2370 9.3605
L53.1160 9.3000
" />
<path d="M53.1160 9.3000
L52.9346 9.3000
" />
<path d="M52.9346 9.3000
L52.8136 9.2395
" />
<path d="M52.8136 9.2395
L52.7532 9.1186
" />
<path d="M52.7532 9.1186
L52.7532 9.0581
" />
<path d="M52.7532 9.0581
L52.8136 8.9371
" />
<path d="M52.8136 8.9371
L52.9346 8.8767
" />
<path d="M52.9346 8.8767
L53.1160 8.8767
" />
<path d="M53.1160 8.8767
L53.2370 8.9371
" />
<path d="M54.7489 8.3929
L53.6603 10.0257
" />
<path d="M55.1722 8.8767
L55.1722 10.1467
" />
<path d="M55.1722 8.9371
L55.2932 8.8767
" />
<path d="M55.2932 8.8767
L55.5351 8.8767
" />
<path d="M55.5351 8.8767
L55.6560 8.9371
" />
<path d="M55.6560 8.9371
L55.7165 8.9976
" />
<path d="M55.7165 8.9976
L55.7770 9.1186
" />
<path d="M55.7770 9.1186
L55.7770 9.4814
" />
<path d="M55.7770 9.4814
L55.7165 9.6024
" />
<path d="M55.7165 9.6024
L55.6560 9.6629
" />
<path d="M55.6560 9.6629
L55.5351 9.7233
" />
<path d="M55.5351 9.7233
L55.2932 9.7233
" />
<path d="M55.2932 9.7233
L55.1722 9.6629
" />
<path d="M56.8655 9.7233
L56.8655 8.4533
" />
<path d="M56.8655 9.6629
L56.7446 9.7233
" />
<path d="M56.7446 9.7233
L56.5027 9.7233
" />
<path d="M56.5027 9.7233
L56.3817 9.6629
" />
<path d="M56.3817 9.6629
L56.3212 9.6024
" />
<path d="M56.3212 9.6024
L56.2608 9.4814
" />
<path d="M56.2608 9.4814
L56.2608 9.1186
" />
<path d="M56.2608 9.1186
L56.3212 8.9976
" />
<path d="M56.3212 8.9976
L56.3817 8.9371
" />
<path d="M56.3817 8.9371
L56.5027 8.8767
" />
<path d="M56.5027 8.8767
L56.7446 8.8767
" />
<path d="M56.7446 8.8767
L56.8655 8.9371
" />
<path d="M57.2888 8.8767
L57.7726 8.8767
" />
<path d="M57.4702 9.7233
L57.4702 8.6348
" />
<path d="M57.4702 8.6348
L57.5307 8.5138
" />
<path d="M57.5307 8.5138
L57.6517 8.4533
" />
<path d="M57.6517 8.4533
L57.7726 8.4533
" />
<path d="M59.1031 8.3929
L58.0145 10.0257
" />
<path d="M60.0102 9.6629
L59.8893 9.7233
" />
<path d="M59.8893 9.7233
L59.6474 9.7233
" />
<path d="M59.6474 9.7233
L59.5264 9.6629
" />
<path d="M59.5264 9.6629
L59.4660 9.5419
" />
<path d="M59.4660 9.5419
L59.4660 9.0581
" />
<path d="M59.4660 9.0581
L59.5264 8.9371
" />
<path d="M59.5264 8.9371
L59.6474 8.8767
" />
<path d="M59.6474 8.8767
L59.8893 8.8767
" />
<path d="M59.8893 8.8767
L60.0102 8.9371
" />
<path d="M60.0102 8.9371
L60.0707 9.0581
" />
<path d="M60.0707 9.0581
L60.0707 9.1790
" />
<path d="M60.0707 9.1790
L59.4660 9.3000
" />
<path d="M60.6150 8.8767
L60.6150 9.7233
" />
<path d="M60.6150 8.9976
L60.6755 8.9371
" />
<path d="M60.6755 8.9371
L60.7965 8.8767
" />
<path d="M60.7965 8.8767
L60.9779 8.8767
" />
<path d="M60.9779 8.8767
L61.0988 8.9371
" />
<path d="M61.0988 8.9371
L61.1593 9.0581
" />
<path d="M61.1593 9.0581
L61.1593 9.7233
" />
<path d="M61.7640 9.2395
L62.7317 9.2395
" />
<path d="M63.8807 8.8767
L63.8807 9.9048
" />
<path d="M63.8807 9.9048
L63.8202 10.0257
" />
<path d="M63.8202 10.0257
L63.7598 10.0862
" />
<path d="M63.7598 10.0862
L63.6388 10.1467
" />
<path d="M63.6388 10.1467
L63.4574 10.1467
" />
<path d="M63.4574 10.1467
L63.3364 10.0862
" />
<path d="M63.8807 9.6629
L63.7598 9.7233
" />
<path d="M63.7598 9.7233
L63.5179 9.7233
" />
<path d="M63.5179 9.7233
L63.3969 9.6629
" />
<path d="M63.3969 9.6629
L63.3364 9.6024
" />
<path d="M63.3364 9.6024
L63.2760 9.4814
" />
<path d="M63.2760 9.4814
L63.2760 9.1186
" />
<path d="M63.2760 9.1186
L63.3364 8.9976
" />
<path d="M63.3364 8.9976
L63.3969 8.9371
" />
<path d="M63.3969 8.9371
L63.5179 8.8767
" />
<path d="M63.5179 8.8767
L63.7598 8.8767
" />
<path d="M63.7598 8.8767
L63.8807 8.9371
" />
<path d="M65.0297 8.4533
L64.7878 8.4533
" />
<path d="M64.7878 8.4533
L64.6669 8.5138
" />
<path d="M64.6669 8.5138
L64.6064 8.5743
" />
<path d="M64.6064 8.5743
L64.4854 8.7557
" />
<path d="M64.4854 8.7557
L64.4250 8.9976
" />
<path d="M64.4250 8.9976
L64.4250 9.4814
" />
<path d="M64.4250 9.4814
L64.4854 9.6024
" />
<path d="M64.4854 9.6024
L64.5459 9.6629
" />
<path d="M64.5459 9.6629
L64.6669 9.7233
" />
<path d="M64.6669 9.7233
L64.9088 9.7233
" />
<path d="M64.9088 9.7233
L65.0297 9.6629
" />
<path d="M65.0297 9.6629
L65.0902 9.6024
" />
<path d="M65.0902 9.6024
L65.1507 9.4814
" />
<path d="M65.1507 9.4814
L65.1507 9.1790
" />
<path d="M65.1507 9.1790
L65.0902 9.0581
" />
<path d="M65.0902 9.0581
L65.0297 8.9976
" />
<path d="M65.0297 8.9976
L64.9088 8.9371
" />
<path d="M64.9088 8.9371
L64.6669 8.9371
" />
<path d="M64.6669 8.9371
L64.5459 8.9976
" />
<path d="M64.5459 8.9976
L64.4854 9.0581
" />
<path d="M64.4854 9.0581
L64.4250 9.1790
" />
<path d="M65.6345 9.6629
L65.7554 9.7233
" />
<path d="M65.7554 9.7233
L65.9973 9.7233
" />
<path d="M65.9973 9.7233
L66.1183 9.6629
" />
<path d="M66.1183 9.6629
L66.1787 9.5419
" />
<path d="M66.1787 9.5419
L66.1787 9.4814
" />
<path d="M66.1787 9.4814
L66.1183 9.3605
" />
<path d="M66.1183 9.3605
L65.9973 9.3000
" />
<path d="M65.9973 9.3000
L65.8159 9.3000
" />
<path d="M65.8159 9.3000
L65.6949 9.2395
" />
<path d="M65.6949 9.2395
L65.6345 9.1186
" />
<path d="M65.6345 9.1186
L65.6345 9.0581
" />
<path d="M65.6345 9.0581
L65.6949 8.9371
" />
<path d="M65.6949 8.9371
L65.8159 8.8767
" />
<path d="M65.8159 8.8767
L65.9973 8.8767
" />
<path d="M65.9973 8.8767
L66.1183 8.9371
" />
<path d="M66.7230 9.6024
L66.7835 9.6629
" />
<path d="M66.7835 9.6629
L66.7230 9.7233
" />
<path d="M66.7230 9.7233
L66.6626 9.6629
" />
<path d="M66.6626 9.6629
L66.7230 9.6024
" />
<path d="M66.7230 9.6024
L66.7230 9.7233
" />
<path d="M67.3278 8.8767
L67.3278 10.1467
" />
<path d="M67.3278 8.9371
L67.4488 8.8767
" />
<path d="M67.4488 8.8767
L67.6907 8.8767
" />
<path d="M67.6907 8.8767
L67.8116 8.9371
" />
<path d="M67.8116 8.9371
L67.8721 8.9976
" />
<path d="M67.8721 8.9976
L67.9326 9.1186
" />
<path d="M67.9326 9.1186
L67.9326 9.4814
" />
<path d="M67.9326 9.4814
L67.8721 9.6024
" />
<path d="M67.8721 9.6024
L67.8116 9.6629
" />
<path d="M67.8116 9.6629
L67.6907 9.7233
" />
<path d="M67.6907 9.7233
L67.4488 9.7233
" />
<path d="M67.4488 9.7233
L67.3278 9.6629
" />
<path d="M69.0211 9.7233
L69.0211 8.4533
" />
<path d="M69.0211 9.6629
L68.9002 9.7233
" />
<path d="M68.9002 9.7233
L68.6583 9.7233
" />
<path d="M68.6583 9.7233
L68.5373 9.6629
" />
<path d="M68.5373 9.6629
L68.4768 9.6024
" />
<path d="M68.4768 9.6024
L68.4164 9.4814
" />
<path d="M68.4164 9.4814
L68.4164 9.1186
" />
<path d="M68.4164 9.1186
L68.4768 8.9976
" />
<path d="M68.4768 8.9976
L68.5373 8.9371
" />
<path d="M68.5373 8.9371
L68.6583 8.8767
" />
<path d="M68.6583 8.8767
L68.9002 8.8767
" />
<path d="M68.9002 8.8767
L69.0211 8.9371
" />
<path d="M69.4444 8.8767
L69.9282 8.8767
" />
<path d="M69.6258 9.7233
L69.6258 8.6348
" />
<path d="M69.6258 8.6348
L69.6863 8.5138
" />
<path d="M69.6863 8.5138
L69.8073 8.4533
" />
<path d="M69.8073 8.4533
L69.9282 8.4533
" />
</g></g> 
</svg>
